<?xml version="1.0" standalone="no"?>
<!DOCTYPE svg PUBLIC "-//W3C//DTD SVG 20010904//EN"
 "http://www.w3.org/TR/2001/REC-SVG-20010904/DTD/svg10.dtd">
<svg version="1.0" xmlns="http://www.w3.org/2000/svg"
 width="748.000000pt" height="992.000000pt" viewBox="0 0 748.000000 992.000000"
 preserveAspectRatio="xMidYMid meet">
<metadata>
Created by potrace 1.16, written by Peter Selinger 2001-2019
</metadata>
<g transform="translate(0.000000,992.000000) scale(0.100000,-0.100000)"
fill="#000000" stroke="none">
<path d="M5305 9908 c-49 -5 -157 -22 -238 -39 -1104 -221 -2229 -1214 -3062
-2704 -111 -198 -288 -560 -381 -779 l-79 -186 -358 -2 -358 -3 -209 -412
-209 -413 424 0 423 0 -24 -87 c-42 -148 -111 -440 -140 -590 l-28 -143 -324
-2 -324 -3 -210 -412 -210 -413 482 0 482 0 -6 -27 c-3 -16 -8 -149 -12 -298
-12 -499 33 -942 141 -1381 289 -1176 1007 -1904 1974 -2003 349 -36 754 32
1156 196 309 126 686 356 962 587 l97 81 213 850 c117 468 211 853 210 857 -1
4 -41 -47 -89 -115 -311 -438 -713 -861 -1073 -1128 -330 -244 -680 -414 -990
-479 -128 -27 -344 -37 -456 -21 -264 38 -478 148 -680 350 -328 329 -536 859
-616 1564 -13 115 -17 239 -17 512 -1 198 3 381 7 408 l8 47 1618 0 1617 0
207 409 c114 224 207 411 207 415 0 3 -795 6 -1766 6 l-1766 0 7 43 c14 81
113 463 160 619 l48 158 1871 2 1871 3 208 413 208 412 -1916 0 c-1210 0
-1915 4 -1915 10 0 5 61 130 134 277 568 1131 1335 1993 2126 2387 274 136
505 202 751 213 358 16 640 -96 900 -356 235 -237 414 -587 519 -1016 22 -93
44 -183 48 -198 6 -25 40 36 274 500 l268 529 -59 115 c-102 201 -220 379
-356 538 -444 520 -1078 777 -1750 709z m406 -9 c527 -53 990 -297 1334 -700
136 -159 254 -337 356 -538 l58 -113 -151 -302 c-256 -512 -372 -733 -376
-711 -1 11 -21 94 -43 185 -106 429 -284 776 -523 1016 -265 265 -545 377
-905 361 -511 -23 -1073 -318 -1635 -858 -475 -457 -901 -1053 -1253 -1755
-75 -149 -133 -276 -129 -283 5 -8 495 -11 1912 -11 1047 0 1904 -3 1904 -6 0
-3 -90 -185 -201 -405 l-200 -399 -1872 -2 -1872 -3 -48 -155 c-57 -186 -156
-581 -160 -636 l-2 -39 1762 -5 1762 -5 -203 -400 -202 -400 -1619 -5 -1619
-5 -9 -30 c-5 -16 -10 -201 -10 -410 -1 -300 2 -412 16 -532 81 -711 288
-1235 621 -1569 265 -265 545 -377 905 -361 368 17 760 173 1173 469 376 268
777 681 1117 1148 46 63 82 106 79 95 -2 -11 -96 -389 -209 -839 l-204 -820
-94 -78 c-279 -231 -650 -457 -956 -581 -251 -102 -529 -173 -769 -196 -538
-53 -1065 111 -1481 461 -670 562 -1044 1640 -1011 2913 4 149 8 284 9 300 l2
30 -472 3 c-260 1 -473 5 -473 9 0 3 91 185 202 404 l203 399 324 2 325 3 36
180 c38 184 90 401 133 557 14 48 22 89 19 92 -3 3 -192 6 -420 6 -229 0 -412
4 -410 9 1 4 93 187 203 404 l200 396 359 3 359 3 78 185 c628 1471 1626 2671
2669 3204 486 249 981 360 1411 315z"/>
</g>
</svg>
