<?xml version="1.0" standalone="no"?>
<!DOCTYPE svg PUBLIC "-//W3C//DTD SVG 20010904//EN"
 "http://www.w3.org/TR/2001/REC-SVG-20010904/DTD/svg10.dtd">
<svg version="1.0" xmlns="http://www.w3.org/2000/svg"
 width="956.000000pt" height="952.000000pt" viewBox="0 0 956.000000 952.000000"
 preserveAspectRatio="xMidYMid meet">
<metadata>
Created by potrace 1.16, written by Peter Selinger 2001-2019
</metadata>
<g transform="translate(0.000000,952.000000) scale(0.100000,-0.100000)"
fill="#000000" stroke="none">
<path d="M6495 9509 c-1079 -93 -2194 -619 -3115 -1471 -578 -534 -1053 -1163
-1418 -1878 l-104 -205 -491 -5 -490 -5 -241 -390 -242 -390 578 -3 c318 -1
578 -5 578 -8 0 -3 -18 -71 -40 -152 -43 -157 -99 -401 -126 -549 l-17 -93
-442 0 -443 0 -241 -390 c-132 -214 -241 -392 -241 -395 0 -3 294 -5 653 -5
l654 0 6 -177 c8 -218 20 -343 53 -541 287 -1735 1567 -2851 3271 -2852 883 0
1810 301 2661 867 95 63 178 125 183 137 8 19 329 1298 329 1312 0 3 -63 -55
-141 -130 -821 -795 -1753 -1270 -2699 -1377 -149 -17 -515 -17 -650 -1 -594
74 -1059 292 -1445 677 -393 392 -644 926 -734 1560 -20 137 -41 388 -41 479
l0 46 2326 2 2326 3 239 385 c131 212 239 388 239 393 0 4 -1136 7 -2525 7
-2149 0 -2525 2 -2525 14 0 71 116 518 186 714 l26 72 2672 0 2671 1 241 392
242 392 -2734 3 c-1504 1 -2734 4 -2734 7 0 12 183 315 263 435 868 1303 2173
2174 3477 2321 149 17 515 17 650 1 149 -19 343 -58 461 -93 619 -184 1112
-594 1419 -1180 l55 -107 238 386 239 385 -43 61 c-176 253 -445 535 -670 704
-505 377 -1060 585 -1714 641 -140 13 -486 12 -630 0z m630 -10 c654 -56 1209
-264 1714 -641 224 -168 484 -441 660 -694 l43 -61 -233 -376 -233 -377 -51
98 c-117 223 -261 418 -435 592 -391 391 -853 608 -1450 682 -135 16 -501 16
-650 -1 -1210 -137 -2437 -905 -3300 -2066 -184 -247 -459 -683 -445 -706 4
-5 1036 -9 2731 -9 1499 0 2724 -4 2722 -8 -1 -5 -108 -178 -236 -385 l-234
-377 -2669 0 -2670 0 -19 -45 c-63 -147 -211 -722 -196 -761 5 -12 353 -14
2525 -16 l2520 -3 -237 -382 -237 -383 -2323 0 c-2137 0 -2323 -1 -2329 -16
-9 -25 15 -361 38 -519 92 -640 341 -1168 739 -1565 391 -391 853 -608 1450
-682 135 -16 501 -16 650 1 571 64 1153 269 1698 598 351 212 673 462 994 772
l136 131 -155 -618 c-85 -339 -158 -634 -164 -654 -9 -34 -25 -47 -182 -152
-467 -310 -968 -546 -1481 -695 -840 -246 -1717 -226 -2435 55 -982 385 -1668
1199 -1941 2303 -71 291 -105 540 -118 866 l-7 170 -651 5 -651 5 236 382 236
382 445 3 445 3 18 95 c32 169 86 403 128 555 22 81 36 152 32 156 -5 5 -264
10 -576 11 l-566 3 235 380 235 380 491 5 490 5 108 210 c807 1582 2177 2761
3714 3196 243 68 557 126 811 148 144 12 490 13 630 0z"/>
</g>
</svg>
