<?xml version="1.0" standalone="no"?>
<!DOCTYPE svg PUBLIC "-//W3C//DTD SVG 20010904//EN"
 "http://www.w3.org/TR/2001/REC-SVG-20010904/DTD/svg10.dtd">
<svg version="1.0" xmlns="http://www.w3.org/2000/svg"
 width="998.000000pt" height="900.000000pt" viewBox="0 0 998.000000 900.000000"
 preserveAspectRatio="xMidYMid meet">
<metadata>
Created by potrace 1.16, written by Peter Selinger 2001-2019
</metadata>
<g transform="translate(0.000000,900.000000) scale(0.100000,-0.100000)"
fill="#000000" stroke="none">
<path d="M6725 8990 c-1250 -101 -2478 -660 -3475 -1582 -503 -465 -931 -1018
-1242 -1603 -41 -77 -77 -148 -81 -157 -6 -17 -40 -18 -530 -18 l-524 0 -246
-370 c-136 -203 -247 -372 -247 -375 0 -3 278 -5 619 -5 l618 0 -38 -135 c-47
-166 -104 -420 -121 -537 l-12 -88 -476 0 -475 -1 -247 -372 -248 -372 699 -3
699 -2 7 -88 c36 -493 129 -887 305 -1288 257 -587 701 -1098 1248 -1439 756
-469 1675 -645 2677 -510 430 58 901 186 1320 359 312 130 807 391 1025 542
l44 31 148 589 c80 324 145 590 143 593 -3 2 -35 -24 -72 -59 -245 -230 -652
-526 -968 -705 -158 -90 -488 -250 -646 -314 -713 -286 -1463 -390 -2134 -295
-1138 161 -1984 893 -2251 1948 -32 126 -71 356 -79 466 -3 47 -8 104 -11 128
l-5 42 2498 0 2498 0 246 373 245 372 -2713 3 c-2712 2 -2713 2 -2713 22 0 77
111 498 182 688 l19 52 2868 0 2868 0 246 370 c136 203 247 372 247 375 0 3
-1321 5 -2935 5 l-2935 0 55 90 c214 353 469 675 785 990 280 280 560 509 890
726 365 239 794 449 1196 583 632 211 1273 278 1859 195 621 -88 1167 -348
1571 -749 136 -135 263 -290 344 -422 l55 -90 223 334 c122 183 222 338 222
344 0 18 -146 194 -259 311 -552 576 -1300 930 -2186 1033 -164 19 -636 28
-800 15z m800 -25 c884 -103 1638 -459 2182 -1029 109 -114 253 -288 253 -305
0 -6 -97 -157 -217 -336 l-216 -325 -60 93 c-184 286 -472 566 -782 761 -184
116 -448 234 -672 300 -781 231 -1704 162 -2592 -195 -158 -64 -488 -224 -646
-313 -265 -151 -618 -401 -870 -617 -258 -221 -580 -564 -789 -838 -148 -194
-362 -522 -349 -535 4 -3 1324 -6 2935 -6 l2928 0 -242 -365 -243 -364 -2867
-1 -2867 0 -15 -27 c-53 -105 -205 -674 -194 -730 3 -17 112 -18 2710 -23
l2707 -5 -239 -362 -239 -363 -2495 0 c-1372 0 -2497 -3 -2500 -8 -8 -13 13
-239 35 -372 76 -476 254 -892 533 -1245 43 -55 136 -156 205 -225 303 -301
690 -528 1118 -654 781 -231 1704 -162 2592 195 158 64 488 224 646 314 315
178 723 475 967 704 l66 61 -147 -586 -147 -587 -134 -84 c-711 -446 -1487
-736 -2245 -838 -574 -77 -1120 -53 -1625 71 -863 212 -1557 687 -2025 1384
-304 454 -505 1035 -555 1605 -6 72 -15 159 -18 195 l-7 65 -693 3 c-380 1
-692 4 -692 7 0 3 108 167 240 365 l240 360 477 2 476 3 23 137 c24 140 84
398 127 545 14 45 22 85 19 88 -3 3 -281 5 -619 5 l-613 0 242 365 243 364
524 3 c453 3 525 5 532 18 5 8 43 80 85 160 646 1227 1770 2244 3079 2785 314
131 733 256 1060 319 148 28 408 63 570 76 164 13 636 4 800 -15z"/>
</g>
</svg>
