<?xml version="1.0" standalone="no"?>
<!DOCTYPE svg PUBLIC "-//W3C//DTD SVG 20010904//EN"
 "http://www.w3.org/TR/2001/REC-SVG-20010904/DTD/svg10.dtd">
<svg version="1.0" xmlns="http://www.w3.org/2000/svg"
 width="863.000000pt" height="900.000000pt" viewBox="0 0 863.000000 900.000000"
 preserveAspectRatio="xMidYMid meet">
<metadata>
Created by potrace 1.16, written by Peter Selinger 2001-2019
</metadata>
<g transform="translate(0.000000,900.000000) scale(0.100000,-0.100000)"
fill="#000000" stroke="none">
<path d="M5380 8989 c-470 -54 -958 -265 -1424 -618 -746 -563 -1448 -1514
-1895 -2571 l-70 -165 -326 -5 -326 -5 -190 -372 -190 -373 387 0 c364 0 386
-1 379 -17 -23 -60 -175 -699 -175 -738 0 -3 -132 -5 -294 -5 l-294 0 -186
-369 c-102 -203 -186 -372 -186 -375 0 -3 192 -6 428 -6 l427 0 0 -387 c1
-417 10 -544 61 -853 74 -448 230 -883 431 -1204 14 -23 63 -90 108 -151 727
-980 1972 -1033 3145 -133 63 48 129 100 147 115 32 28 36 41 227 808 107 429
194 780 193 781 -1 1 -36 -46 -77 -104 -562 -794 -1248 -1328 -1880 -1463
-149 -32 -387 -33 -513 -1 -223 56 -417 178 -573 360 -271 317 -441 784 -506
1392 -14 127 -17 741 -5 803 l8 37 1467 0 1467 0 188 369 c103 202 187 371
187 375 0 3 -721 6 -1601 6 l-1602 0 7 43 c13 79 86 372 138 544 l51 173 1699
2 1699 3 190 373 190 372 -1740 0 c-958 0 -1741 4 -1741 8 0 5 40 89 88 188
643 1303 1562 2209 2432 2395 149 32 387 33 513 1 278 -69 511 -242 688 -512
71 -107 170 -306 219 -440 43 -117 103 -336 115 -422 4 -27 10 -48 14 -48 3 0
113 214 245 475 l239 475 -23 52 c-53 122 -143 272 -255 423 -376 507 -907
780 -1507 774 -68 -1 -157 -5 -198 -10z"/>
</g>
</svg>
