<?xml version="1.0" standalone="no"?>
<!DOCTYPE svg PUBLIC "-//W3C//DTD SVG 20010904//EN"
 "http://www.w3.org/TR/2001/REC-SVG-20010904/DTD/svg10.dtd">
<svg version="1.0" xmlns="http://www.w3.org/2000/svg"
 width="1023.000000pt" height="900.000000pt" viewBox="0 0 1023.000000 900.000000"
 preserveAspectRatio="xMidYMid meet">
<metadata>
Created by potrace 1.16, written by Peter Selinger 2001-2019
</metadata>
<g transform="translate(0.000000,900.000000) scale(0.100000,-0.100000)"
fill="#000000" stroke="none">
<path d="M6185 8985 c-892 -100 -1779 -557 -2564 -1320 -554 -539 -1063 -1269
-1374 -1972 l-28 -63 -412 0 -412 0 -210 -366 c-115 -200 -211 -369 -213 -374
-2 -6 175 -10 483 -10 460 0 487 -1 480 -17 -17 -44 -128 -497 -148 -611 l-24
-127 -373 -5 -374 -5 -213 -369 c-117 -203 -213 -371 -213 -373 0 -1 248 -3
550 -3 l550 0 0 -147 c0 -761 203 -1504 556 -2040 425 -644 1038 -1041 1780
-1153 688 -103 1487 72 2204 484 148 86 409 255 510 333 l64 49 168 670 c92
368 166 672 165 676 -1 4 -31 -27 -67 -69 -265 -309 -622 -624 -975 -860 -864
-577 -1789 -719 -2485 -380 -490 239 -859 713 -1040 1339 -81 282 -130 645
-130 971 l0 127 1923 0 1922 1 210 365 c116 201 212 370 213 375 2 5 -834 9
-2088 9 l-2092 0 7 47 c11 77 110 457 152 588 l39 120 2214 3 2215 3 210 365
c116 201 211 370 213 375 2 5 -890 10 -2262 11 l-2266 3 85 152 c450 810 1015
1442 1700 1900 864 577 1789 719 2485 380 283 -138 535 -361 716 -634 85 -128
186 -319 235 -445 19 -49 37 -88 40 -88 8 0 452 771 452 786 0 6 -34 63 -76
127 -429 649 -1037 1044 -1783 1157 -185 28 -535 35 -719 15z"/>
</g>
</svg>
