<?xml version="1.0" standalone="no"?>
<!DOCTYPE svg PUBLIC "-//W3C//DTD SVG 20010904//EN"
 "http://www.w3.org/TR/2001/REC-SVG-20010904/DTD/svg10.dtd">
<svg version="1.0" xmlns="http://www.w3.org/2000/svg"
 width="903.000000pt" height="900.000000pt" viewBox="0 0 903.000000 900.000000"
 preserveAspectRatio="xMidYMid meet">
<metadata>
Created by potrace 1.16, written by Peter Selinger 2001-2019
</metadata>
<g transform="translate(0.000000,900.000000) scale(0.100000,-0.100000)"
fill="#000000" stroke="none">
<path d="M6205 8993 c-270 -22 -476 -55 -707 -113 -809 -202 -1569 -623 -2267
-1253 -552 -500 -1057 -1166 -1379 -1819 l-87 -176 -465 -1 -465 -1 -230 -373
-231 -372 549 -3 549 -2 -6 -23 c-58 -200 -166 -672 -166 -728 0 -5 -168 -9
-422 -9 l-423 -1 -225 -365 c-124 -201 -227 -370 -228 -375 -2 -5 240 -9 616
-9 l619 0 7 -164 c16 -392 84 -770 202 -1116 454 -1331 1617 -2129 3039 -2087
306 9 551 43 847 117 565 141 1139 405 1645 757 79 54 94 69 102 101 6 20 77
306 159 635 l150 598 -127 -123 c-169 -165 -270 -254 -432 -384 -991 -791
-2135 -1115 -3088 -875 -802 202 -1401 814 -1636 1670 -63 230 -98 461 -111
724 l-7 147 2195 0 2195 0 230 373 231 372 -2389 3 c-1314 1 -2389 4 -2389 6
0 2 9 47 20 99 33 163 68 296 127 479 l57 178 2525 2 2525 3 228 370 229 370
-2581 3 c-1419 1 -2580 5 -2580 9 0 3 45 81 99 172 350 585 773 1072 1291
1486 1229 981 2670 1229 3682 632 302 -178 577 -454 762 -766 36 -60 79 -137
96 -171 17 -35 35 -59 40 -54 11 13 430 692 436 709 11 27 -189 286 -348 451
-569 590 -1365 910 -2248 902 -96 -1 -193 -3 -215 -5z m510 -13 c339 -29 644
-98 927 -211 544 -216 977 -558 1322 -1042 37 -53 46 -73 40 -87 -5 -11 -103
-172 -219 -358 l-210 -340 -47 89 c-127 237 -245 397 -422 574 -540 540 -1309
755 -2176 609 -1123 -189 -2278 -988 -3038 -2102 -124 -181 -295 -469 -287
-482 4 -7 833 -10 2577 -10 2052 0 2569 -3 2565 -12 -2 -7 -102 -170 -221
-363 l-216 -350 -2527 -5 -2526 -5 -44 -130 c-72 -214 -171 -614 -157 -636 3
-5 984 -9 2385 -9 1310 0 2379 -4 2377 -8 -1 -5 -102 -169 -223 -365 l-220
-356 -2195 -3 -2195 -3 2 -135 c7 -492 143 -986 383 -1390 191 -323 470 -605
778 -787 860 -507 2045 -409 3152 261 337 204 634 436 954 746 65 63 116 106
113 95 -4 -11 -70 -274 -147 -585 -78 -311 -145 -581 -150 -601 -8 -29 -25
-46 -97 -96 -512 -352 -1078 -612 -1641 -753 -296 -74 -541 -108 -847 -117
-1014 -30 -1915 368 -2502 1106 -447 563 -693 1266 -731 2096 l-7 160 -616 5
-616 5 224 363 225 362 419 0 c327 0 421 3 424 13 3 6 16 75 30 152 14 77 51
237 82 355 30 118 56 224 57 235 1 20 -7 20 -541 25 l-542 5 222 360 223 360
466 5 465 5 105 205 c780 1526 2144 2669 3626 3040 231 58 437 91 707 113 94
8 399 6 510 -3z"/>
</g>
</svg>
