<?xml version="1.0" standalone="no"?>
<!DOCTYPE svg PUBLIC "-//W3C//DTD SVG 20010904//EN"
 "http://www.w3.org/TR/2001/REC-SVG-20010904/DTD/svg10.dtd">
<svg version="1.0" xmlns="http://www.w3.org/2000/svg"
 width="866.000000pt" height="952.000000pt" viewBox="0 0 866.000000 952.000000"
 preserveAspectRatio="xMidYMid meet">
<metadata>
Created by potrace 1.16, written by Peter Selinger 2001-2019
</metadata>
<g transform="translate(0.000000,952.000000) scale(0.100000,-0.100000)"
fill="#000000" stroke="none">
<path d="M5955 9510 c-1147 -115 -2324 -817 -3236 -1930 -364 -445 -641 -880
-899 -1413 l-105 -217 -434 -2 -434 -3 -223 -385 c-123 -212 -223 -388 -224
-392 0 -5 230 -8 510 -8 281 0 510 -2 510 -4 0 -3 -20 -76 -44 -163 -43 -154
-120 -499 -133 -588 l-6 -45 -392 0 -393 0 -224 -387 c-122 -213 -225 -390
-226 -395 -2 -4 258 -8 577 -8 l581 0 0 -172 c1 -924 270 -1775 756 -2387 216
-271 535 -536 839 -697 541 -286 1189 -380 1850 -269 605 102 1230 374 1810
787 l159 114 178 709 c97 391 176 713 175 717 -1 5 -26 -20 -56 -55 -328 -383
-764 -758 -1172 -1008 -503 -308 -980 -473 -1480 -511 -420 -32 -848 65 -1179
266 -504 307 -856 852 -1004 1554 -51 242 -86 576 -86 830 l0 122 2038 0 2038
0 226 392 226 393 -2218 3 -2218 2 29 138 c33 155 102 408 152 557 l34 100
2344 5 2343 5 223 385 c122 212 222 388 223 393 0 4 -1078 7 -2395 7 -1317 0
-2395 4 -2395 8 0 16 173 320 271 477 648 1036 1577 1830 2504 2140 363 121
709 171 1023 147 503 -39 899 -217 1237 -556 206 -207 399 -514 503 -800 l29
-78 23 38 c82 140 450 782 455 795 3 9 -20 56 -58 115 -393 620 -963 1036
-1652 1205 -217 53 -365 70 -640 74 -137 2 -290 0 -340 -5z m725 -29 c803
-123 1459 -553 1897 -1245 38 -59 61 -106 58 -115 -12 -30 -459 -801 -465
-801 -3 0 -14 24 -24 53 -29 84 -138 304 -200 407 -130 212 -314 421 -496 562
-733 567 -1789 523 -2839 -121 -660 -405 -1284 -1042 -1750 -1786 -120 -192
-273 -465 -268 -480 3 -7 767 -12 2394 -15 l2391 -5 -220 -382 -221 -383
-2337 0 c-1858 0 -2340 -3 -2348 -12 -38 -49 -235 -782 -214 -802 3 -4 999 -6
2214 -6 1214 0 2208 -2 2208 -4 0 -3 -98 -175 -218 -383 l-218 -378 -2039 -5
-2040 -5 -3 -100 c-7 -218 31 -604 84 -857 129 -613 424 -1123 834 -1440 733
-567 1789 -523 2839 121 379 232 767 558 1089 914 64 71 118 125 119 120 1 -4
-75 -318 -170 -696 l-172 -688 -155 -110 c-671 -478 -1393 -761 -2089 -820
-191 -16 -513 -6 -691 20 -582 88 -1087 339 -1491 741 -229 227 -392 452 -542
748 -137 268 -222 494 -290 767 -92 368 -125 616 -135 1025 l-7 255 -577 3
-576 2 221 385 222 384 395 3 395 3 8 50 c19 118 93 442 133 589 25 88 41 163
36 168 -4 4 -233 9 -509 10 l-501 3 221 383 221 382 432 0 433 0 120 245 c66
135 155 307 197 383 423 751 986 1423 1607 1920 730 583 1530 933 2312 1012
156 15 571 4 725 -19z"/>
</g>
</svg>
