<?xml version="1.0" standalone="no"?>
<!DOCTYPE svg PUBLIC "-//W3C//DTD SVG 20010904//EN"
 "http://www.w3.org/TR/2001/REC-SVG-20010904/DTD/svg10.dtd">
<svg version="1.0" xmlns="http://www.w3.org/2000/svg"
 width="912.000000pt" height="952.000000pt" viewBox="0 0 912.000000 952.000000"
 preserveAspectRatio="xMidYMid meet">
<metadata>
Created by potrace 1.16, written by Peter Selinger 2001-2019
</metadata>
<g transform="translate(0.000000,952.000000) scale(0.100000,-0.100000)"
fill="#000000" stroke="none">
<path d="M5715 9513 c-297 -27 -650 -137 -970 -302 -380 -196 -706 -441 -1066
-801 -520 -520 -920 -1086 -1292 -1830 -79 -157 -176 -363 -216 -457 l-74
-173 -344 -2 -344 -3 -200 -392 -199 -393 405 0 c223 0 405 -1 405 -3 0 -1
-31 -126 -69 -277 -38 -151 -79 -330 -92 -397 l-24 -123 -311 0 -311 0 -197
-389 c-108 -214 -196 -391 -196 -395 0 -3 204 -6 454 -6 l454 0 -5 -307 c-9
-464 18 -793 93 -1162 202 -996 702 -1692 1419 -1975 385 -152 853 -166 1311
-41 392 108 826 341 1219 656 l110 88 204 818 c112 450 206 825 209 833 3 8
-39 -46 -93 -120 -226 -313 -471 -594 -700 -803 -456 -416 -875 -655 -1296
-738 -91 -19 -146 -23 -274 -22 -145 0 -171 3 -278 31 -320 84 -577 297 -775
645 -176 308 -283 689 -339 1197 -18 171 -24 660 -10 812 l9 88 1556 2 1556 3
199 393 199 392 -1700 0 -1699 0 23 106 c34 153 87 355 141 537 l46 157 1797
0 1797 0 196 389 c109 214 197 391 197 395 0 3 -828 7 -1841 8 l-1840 3 133
265 c152 301 261 490 423 735 573 866 1257 1468 1919 1689 174 59 307 80 491
79 145 0 171 -3 278 -31 207 -54 363 -147 527 -312 249 -251 436 -651 530
-1133 7 -32 13 -57 15 -55 1 2 117 230 258 508 l256 505 -72 140 c-343 667
-884 1074 -1543 1160 -104 14 -350 18 -459 8z"/>
</g>
</svg>
