<?xml version="1.0" standalone="no"?>
<!DOCTYPE svg PUBLIC "-//W3C//DTD SVG 20010904//EN"
 "http://www.w3.org/TR/2001/REC-SVG-20010904/DTD/svg10.dtd">
<svg version="1.0" xmlns="http://www.w3.org/2000/svg"
 width="1100.000000pt" height="992.000000pt" viewBox="0 0 1100.000000 992.000000"
 preserveAspectRatio="xMidYMid meet">
<metadata>
Created by potrace 1.16, written by Peter Selinger 2001-2019
</metadata>
<g transform="translate(0.000000,992.000000) scale(0.100000,-0.100000)"
fill="#000000" stroke="none">
<path d="M7510 9913 c-835 -57 -1562 -256 -2320 -634 -1106 -552 -2043 -1388
-2715 -2424 -96 -148 -250 -415 -319 -552 l-51 -103 -575 0 -575 -1 -270 -405
c-148 -223 -271 -410 -273 -415 -2 -5 280 -9 678 -9 l681 0 -6 -21 c-48 -149
-109 -399 -145 -589 -17 -91 -33 -175 -36 -187 l-4 -23 -518 0 -517 -1 -270
-405 c-149 -223 -271 -410 -273 -415 -2 -5 315 -9 761 -9 l765 0 7 -77 c25
-313 40 -428 76 -613 243 -1242 1024 -2211 2170 -2695 730 -308 1581 -405
2454 -279 835 120 1689 447 2477 947 l126 81 165 658 c119 475 160 655 148
646 -9 -7 -61 -54 -116 -103 -394 -355 -839 -657 -1335 -904 -575 -287 -1119
-452 -1740 -527 -180 -22 -705 -26 -875 -6 -340 39 -630 109 -910 219 -875
344 -1485 1037 -1713 1948 -46 181 -76 370 -92 559 -5 71 -10 133 -10 137 0 5
1236 9 2753 9 l2754 0 276 415 277 415 -3000 0 c-1650 0 -3000 2 -3000 4 0 2
9 48 20 102 33 159 97 398 152 562 l50 152 3162 0 3161 1 270 405 c149 223
271 410 273 415 2 5 -1334 10 -3231 11 l-3235 3 85 135 c443 703 1032 1313
1733 1792 203 139 449 282 700 407 575 287 1119 452 1740 527 180 22 705 26
875 6 746 -86 1352 -349 1825 -791 171 -159 361 -392 463 -566 l28 -48 249
373 249 373 -35 46 c-278 364 -660 694 -1079 933 -603 343 -1373 533 -2135
526 -102 -1 -205 -3 -230 -5z m555 -13 c531 -39 984 -143 1414 -325 589 -249
1099 -637 1465 -1116 l35 -46 -240 -359 c-131 -197 -242 -360 -247 -362 -4 -1
-16 15 -27 35 -71 134 -284 394 -454 554 -474 447 -1085 714 -1836 801 -170
20 -695 16 -875 -6 -621 -75 -1165 -240 -1740 -527 -808 -403 -1504 -969
-2076 -1689 -168 -211 -459 -643 -447 -662 2 -5 1457 -8 3234 -8 l3229 0 -270
-405 -270 -405 -3162 -2 -3162 -3 -43 -124 c-70 -199 -167 -575 -175 -671 l-3
-35 2992 -5 2993 -5 -268 -402 -267 -402 -2752 -1 c-1730 0 -2754 -4 -2758
-10 -3 -5 -1 -69 5 -142 78 -979 536 -1771 1306 -2264 398 -254 870 -412 1419
-476 170 -20 695 -16 875 6 621 75 1165 240 1740 527 499 249 951 555 1338
907 57 52 105 93 107 90 2 -2 -68 -289 -155 -638 -134 -535 -162 -638 -181
-653 -34 -27 -261 -167 -420 -258 -78 -45 -245 -132 -373 -194 -1443 -705
-2987 -807 -4235 -280 -1152 486 -1925 1453 -2165 2710 -29 154 -51 328 -66
519 -6 76 -13 143 -16 147 -3 5 -347 9 -765 9 l-759 0 270 405 270 405 515 0
515 0 9 23 c5 12 21 90 36 172 29 155 86 398 129 544 14 47 23 88 20 93 -3 4
-309 8 -680 8 l-674 0 270 405 270 405 575 0 575 0 55 110 c30 60 97 182 148
272 816 1421 2193 2545 3740 3053 474 155 925 242 1457 278 112 8 428 6 555
-3z"/>
</g>
</svg>
