<?xml version="1.0" standalone="no"?>
<!DOCTYPE svg PUBLIC "-//W3C//DTD SVG 20010904//EN"
 "http://www.w3.org/TR/2001/REC-SVG-20010904/DTD/svg10.dtd">
<svg version="1.0" xmlns="http://www.w3.org/2000/svg"
 width="1040.000000pt" height="938.000000pt" viewBox="0 0 1040.000000 938.000000"
 preserveAspectRatio="xMidYMid meet">
<metadata>
Created by potrace 1.16, written by Peter Selinger 2001-2019
</metadata>
<g transform="translate(0.000000,938.000000) scale(0.100000,-0.100000)"
fill="#000000" stroke="none">
<path d="M7060 9374 c-734 -51 -1451 -250 -2145 -594 -1212 -602 -2241 -1604
-2852 -2777 l-75 -143 -542 0 -543 0 -256 -385 c-142 -212 -257 -387 -257
-390 0 -3 290 -5 643 -5 l644 0 -38 -131 c-44 -150 -100 -396 -125 -546 l-17
-103 -492 0 -492 0 -256 -385 c-142 -212 -257 -387 -257 -390 0 -3 326 -5 725
-5 l725 0 0 -23 c0 -63 23 -308 41 -432 94 -657 346 -1249 741 -1745 528 -661
1357 -1125 2261 -1264 298 -46 367 -51 717 -50 361 1 525 14 840 69 742 130
1489 427 2178 866 l131 83 151 606 c83 333 153 614 157 625 4 13 -14 2 -53
-33 -462 -412 -869 -690 -1359 -932 -1577 -775 -3248 -655 -4211 305 -274 272
-459 550 -598 897 -118 293 -175 557 -210 966 l-6 62 2608 0 2607 1 257 387
258 387 -2835 3 c-1559 1 -2835 4 -2835 7 0 3 11 60 26 127 34 168 66 283 130
481 l55 167 2992 1 2992 0 257 390 257 389 -3060 0 -3061 0 27 48 c59 102 203
314 310 457 168 224 346 427 564 645 452 451 941 802 1506 1080 1437 706 2948
675 3958 -83 218 -163 461 -425 615 -661 35 -54 67 -94 72 -90 13 15 451 675
456 688 2 6 -33 59 -79 116 -292 367 -713 701 -1162 920 -405 198 -810 314
-1315 375 -129 16 -636 28 -770 19z m770 -29 c505 -61 910 -177 1315 -375 448
-218 863 -547 1152 -910 46 -57 83 -107 83 -110 0 -3 -103 -159 -228 -348
l-229 -342 -60 92 c-146 228 -402 502 -620 665 -1010 758 -2521 789 -3958 83
-567 -280 -1054 -629 -1511 -1085 -218 -217 -398 -423 -560 -637 -145 -194
-327 -468 -336 -508 -3 -13 343 -16 3049 -20 l3052 -5 -249 -375 -249 -375
-2993 -5 -2993 -5 -33 -95 c-85 -243 -193 -665 -177 -691 4 -5 1059 -9 2831
-9 1553 0 2824 -2 2824 -5 0 -3 -113 -174 -250 -380 l-250 -375 -2608 -2
-2607 -3 3 -70 c13 -312 91 -671 208 -963 140 -349 324 -625 603 -902 968
-965 2635 -1087 4216 -310 477 235 913 531 1318 896 39 35 72 62 74 60 4 -4
-283 -1162 -296 -1192 -18 -42 -446 -296 -746 -444 -611 -301 -1218 -482
-1880 -562 -150 -18 -236 -22 -515 -22 -350 -1 -419 4 -717 50 -590 91 -1162
323 -1622 659 -149 109 -347 281 -460 401 -222 234 -451 571 -593 870 -195
415 -313 874 -348 1359 -6 83 -13 156 -15 163 -3 9 -157 12 -725 12 l-720 0
252 380 253 379 495 3 494 3 28 150 c33 183 77 373 122 522 18 62 31 115 28
118 -3 3 -293 5 -644 5 l-638 0 252 380 253 379 545 3 545 3 73 140 c441 842
1071 1577 1857 2165 948 709 2037 1128 3135 1204 134 9 641 -3 770 -19z"/>
</g>
</svg>
