<?xml version="1.0" standalone="no"?>
<!DOCTYPE svg PUBLIC "-//W3C//DTD SVG 20010904//EN"
 "http://www.w3.org/TR/2001/REC-SVG-20010904/DTD/svg10.dtd">
<svg version="1.0" xmlns="http://www.w3.org/2000/svg"
 width="1232.000000pt" height="992.000000pt" viewBox="0 0 1232.000000 992.000000"
 preserveAspectRatio="xMidYMid meet">
<metadata>
Created by potrace 1.16, written by Peter Selinger 2001-2019
</metadata>
<g transform="translate(0.000000,992.000000) scale(0.100000,-0.100000)"
fill="#000000" stroke="none">
<path d="M7455 9909 c-1158 -91 -2326 -641 -3316 -1561 -584 -543 -1106 -1241
-1457 -1950 l-97 -197 -509 -3 -509 -3 -254 -410 -253 -410 601 -3 601 -2 -4
-23 c-3 -12 -24 -89 -47 -172 -23 -82 -63 -257 -89 -387 l-47 -238 -460 0
-460 -1 -250 -405 c-137 -224 -251 -410 -253 -415 -2 -5 279 -9 677 -9 l681 0
0 -72 c0 -40 5 -138 10 -218 43 -608 179 -1125 425 -1609 401 -792 1066 -1368
1895 -1641 439 -144 944 -205 1411 -170 736 56 1444 280 2149 680 160 91 506
315 526 341 6 8 86 315 178 684 92 369 170 679 173 690 3 11 -65 -49 -152
-133 -610 -591 -1277 -1011 -1975 -1242 -443 -147 -843 -209 -1265 -197 -579
17 -1068 183 -1500 506 -204 153 -446 422 -595 661 -68 109 -198 376 -245 503
-116 318 -186 678 -201 1050 l-7 167 2419 0 2419 0 250 406 c138 222 252 409
253 414 2 7 -937 10 -2627 10 -2386 0 -2631 1 -2631 16 0 59 90 413 167 657
l46 147 2781 0 2781 0 250 406 c138 222 251 409 253 414 2 6 -1019 11 -2843
12 l-2846 3 82 140 c201 344 431 665 693 965 131 150 441 459 586 584 630 541
1331 917 2030 1090 523 129 1078 139 1535 27 250 -62 511 -170 715 -296 370
-230 694 -585 890 -975 28 -56 55 -99 59 -94 5 5 117 186 251 401 l242 393
-79 107 c-540 742 -1283 1189 -2215 1333 -232 36 -595 48 -843 29z"/>
</g>
</svg>
