<?xml version="1.0" standalone="no"?>
<!DOCTYPE svg PUBLIC "-//W3C//DTD SVG 20010904//EN"
 "http://www.w3.org/TR/2001/REC-SVG-20010904/DTD/svg10.dtd">
<svg version="1.0" xmlns="http://www.w3.org/2000/svg"
 width="1226.000000pt" height="900.000000pt" viewBox="0 0 1226.000000 900.000000"
 preserveAspectRatio="xMidYMid meet">
<metadata>
Created by potrace 1.16, written by Peter Selinger 2001-2019
</metadata>
<g transform="translate(0.000000,900.000000) scale(0.100000,-0.100000)"
fill="#000000" stroke="none">
<path d="M7315 8990 c-1250 -101 -2478 -660 -3475 -1582 -503 -465 -931 -1018
-1242 -1603 -41 -77 -77 -148 -81 -157 -6 -17 -40 -18 -530 -18 l-524 0 -246
-370 c-136 -203 -247 -372 -247 -375 0 -3 278 -5 619 -5 l618 0 -38 -135 c-47
-166 -104 -420 -121 -537 l-12 -88 -476 0 -475 -1 -247 -372 -248 -372 699 -3
699 -2 7 -88 c36 -493 129 -887 305 -1288 257 -587 701 -1098 1248 -1439 756
-469 1675 -645 2677 -510 430 58 901 186 1320 359 312 130 807 391 1025 542
l44 31 148 589 c80 324 145 590 143 593 -3 2 -35 -24 -72 -59 -245 -230 -652
-526 -968 -705 -158 -90 -488 -250 -646 -314 -713 -286 -1463 -390 -2134 -295
-1138 161 -1984 893 -2251 1948 -32 126 -71 356 -79 466 -3 47 -8 104 -11 128
l-5 42 2498 0 2498 0 246 373 245 372 -2713 3 c-2712 2 -2713 2 -2713 22 0 77
111 498 182 688 l19 52 2868 0 2868 0 246 370 c136 203 247 372 247 375 0 3
-1321 5 -2935 5 l-2935 0 55 90 c214 353 469 675 785 990 280 280 560 509 890
726 365 239 794 449 1196 583 632 211 1273 278 1859 195 621 -88 1167 -348
1571 -749 136 -135 263 -290 344 -422 l55 -90 223 334 c122 183 222 338 222
344 0 18 -146 194 -259 311 -552 576 -1300 930 -2186 1033 -164 19 -636 28
-800 15z"/>
</g>
</svg>
