<?xml version="1.0" standalone="no"?>
<!DOCTYPE svg PUBLIC "-//W3C//DTD SVG 20010904//EN"
 "http://www.w3.org/TR/2001/REC-SVG-20010904/DTD/svg10.dtd">
<svg version="1.0" xmlns="http://www.w3.org/2000/svg"
 width="1119.000000pt" height="900.000000pt" viewBox="0 0 1119.000000 900.000000"
 preserveAspectRatio="xMidYMid meet">
<metadata>
Created by potrace 1.16, written by Peter Selinger 2001-2019
</metadata>
<g transform="translate(0.000000,900.000000) scale(0.100000,-0.100000)"
fill="#000000" stroke="none">
<path d="M6795 8993 c-270 -22 -476 -55 -707 -113 -809 -202 -1569 -623 -2267
-1253 -552 -500 -1057 -1166 -1379 -1819 l-87 -176 -465 -1 -465 -1 -230 -373
-231 -372 549 -3 549 -2 -6 -23 c-58 -200 -166 -672 -166 -728 0 -5 -168 -9
-422 -9 l-423 -1 -225 -365 c-124 -201 -227 -370 -228 -375 -2 -5 240 -9 616
-9 l619 0 7 -164 c16 -392 84 -770 202 -1116 454 -1331 1617 -2129 3039 -2087
306 9 551 43 847 117 565 141 1139 405 1645 757 79 54 94 69 102 101 6 20 77
306 159 635 l150 598 -127 -123 c-169 -165 -270 -254 -432 -384 -991 -791
-2135 -1115 -3088 -875 -802 202 -1401 814 -1636 1670 -63 230 -98 461 -111
724 l-7 147 2195 0 2195 0 230 373 231 372 -2389 3 c-1314 1 -2389 4 -2389 6
0 2 9 47 20 99 33 163 68 296 127 479 l57 178 2525 2 2525 3 228 370 229 370
-2581 3 c-1419 1 -2580 5 -2580 9 0 3 45 81 99 172 350 585 773 1072 1291
1486 1229 981 2670 1229 3682 632 302 -178 577 -454 762 -766 36 -60 79 -137
96 -171 17 -35 35 -59 40 -54 11 13 430 692 436 709 11 27 -189 286 -348 451
-569 590 -1365 910 -2248 902 -96 -1 -193 -3 -215 -5z"/>
</g>
</svg>
