<?xml version="1.0" standalone="no"?>
<!DOCTYPE svg PUBLIC "-//W3C//DTD SVG 20010904//EN"
 "http://www.w3.org/TR/2001/REC-SVG-20010904/DTD/svg10.dtd">
<svg version="1.0" xmlns="http://www.w3.org/2000/svg"
 width="678.000000pt" height="900.000000pt" viewBox="0 0 678.000000 900.000000"
 preserveAspectRatio="xMidYMid meet">
<metadata>
Created by potrace 1.16, written by Peter Selinger 2001-2019
</metadata>
<g transform="translate(0.000000,900.000000) scale(0.100000,-0.100000)"
fill="#000000" stroke="none">
<path d="M4790 8989 c-470 -54 -958 -265 -1424 -618 -746 -563 -1448 -1514
-1895 -2571 l-70 -165 -326 -5 -326 -5 -190 -372 -190 -373 387 0 c364 0 386
-1 379 -17 -23 -60 -175 -699 -175 -738 0 -3 -132 -5 -294 -5 l-294 0 -186
-369 c-102 -203 -186 -372 -186 -375 0 -3 192 -6 428 -6 l427 0 0 -387 c1
-417 10 -544 61 -853 74 -448 230 -883 431 -1204 14 -23 63 -90 108 -151 727
-980 1972 -1033 3145 -133 63 48 129 100 147 115 32 28 36 41 227 808 107 429
194 780 193 781 -1 1 -36 -46 -77 -104 -562 -794 -1248 -1328 -1880 -1463
-149 -32 -387 -33 -513 -1 -223 56 -417 178 -573 360 -271 317 -441 784 -506
1392 -14 127 -17 741 -5 803 l8 37 1467 0 1467 0 188 369 c103 202 187 371
187 375 0 3 -721 6 -1601 6 l-1602 0 7 43 c13 79 86 372 138 544 l51 173 1699
2 1699 3 190 373 190 372 -1740 0 c-958 0 -1741 4 -1741 8 0 5 40 89 88 188
643 1303 1562 2209 2432 2395 149 32 387 33 513 1 278 -69 511 -242 688 -512
71 -107 170 -306 219 -440 43 -117 103 -336 115 -422 4 -27 10 -48 14 -48 3 0
113 214 245 475 l239 475 -23 52 c-53 122 -143 272 -255 423 -376 507 -907
780 -1507 774 -68 -1 -157 -5 -198 -10z m418 -10 c635 -68 1170 -465 1498
-1109 30 -58 54 -110 54 -116 0 -5 -105 -219 -234 -474 l-234 -463 -12 59
c-71 362 -226 716 -414 951 -169 209 -375 346 -613 405 -126 32 -364 31 -513
-1 -159 -34 -309 -87 -470 -167 -736 -367 -1453 -1182 -1975 -2246 -48 -97
-84 -181 -80 -187 4 -8 518 -11 1736 -11 951 0 1729 -3 1729 -6 0 -4 -82 -168
-182 -365 l-183 -359 -1700 -2 -1700 -3 -43 -140 c-56 -186 -143 -534 -145
-587 l-2 -43 1597 -5 1597 -5 -184 -360 -183 -360 -1466 -3 -1467 -2 -11 -28
c-16 -39 -16 -673 0 -822 32 -297 95 -590 172 -800 194 -528 511 -861 917
-962 126 -32 364 -31 513 1 496 106 1019 450 1500 987 130 145 271 319 374
464 38 52 66 86 63 75 -4 -11 -90 -355 -192 -765 -172 -686 -188 -747 -213
-768 -229 -191 -516 -378 -765 -497 -1100 -525 -2132 -222 -2695 791 -160 288
-292 685 -356 1074 -51 308 -60 427 -61 850 l-1 395 -426 5 -426 5 181 360
182 360 290 3 c159 1 293 6 297 10 4 4 21 75 38 157 17 83 56 247 86 365 31
118 57 222 57 230 2 13 -47 15 -376 18 -255 1 -377 6 -375 13 2 5 84 169 183
364 l180 355 321 0 c245 0 324 3 331 13 5 6 42 91 83 187 396 935 1012 1811
1671 2376 669 574 1399 854 2047 783z"/>
</g>
</svg>
