<?xml version="1.0" standalone="no"?>
<!DOCTYPE svg PUBLIC "-//W3C//DTD SVG 20010904//EN"
 "http://www.w3.org/TR/2001/REC-SVG-20010904/DTD/svg10.dtd">
<svg version="1.0" xmlns="http://www.w3.org/2000/svg"
 width="899.000000pt" height="938.000000pt" viewBox="0 0 899.000000 938.000000"
 preserveAspectRatio="xMidYMid meet">
<metadata>
Created by potrace 1.16, written by Peter Selinger 2001-2019
</metadata>
<g transform="translate(0.000000,938.000000) scale(0.100000,-0.100000)"
fill="#000000" stroke="none">
<path d="M5595 9368 c-316 -35 -692 -163 -1014 -344 -971 -546 -1861 -1638
-2440 -2994 l-71 -165 -338 -3 -337 -2 -199 -390 -198 -390 402 0 c379 0 402
-1 395 -17 -16 -40 -135 -527 -156 -640 l-24 -123 -305 0 -305 0 -198 -390
-199 -390 451 0 450 0 -6 -302 c-14 -734 87 -1338 313 -1868 131 -306 340
-620 536 -805 326 -308 669 -476 1081 -530 650 -85 1404 183 2079 740 l83 68
204 811 c112 446 206 818 209 826 3 8 -32 -36 -77 -99 -337 -468 -729 -877
-1084 -1132 -390 -279 -767 -429 -1116 -446 -486 -22 -887 248 -1145 772 -148
299 -236 630 -283 1055 -19 178 -25 713 -10 843 l9 67 1531 0 1532 0 198 390
199 390 -1677 0 c-1592 0 -1676 1 -1671 18 3 9 21 89 42 177 34 149 129 495
153 558 l11 27 1768 0 1769 0 197 390 197 390 -1816 2 -1816 3 130 260 c323
646 683 1157 1136 1611 306 307 585 515 900 669 798 391 1463 181 1839 -580
104 -209 185 -459 233 -713 l8 -43 255 505 255 505 -65 128 c-119 235 -298
483 -452 628 -326 308 -669 476 -1081 530 -127 16 -352 18 -482 3z"/>
</g>
</svg>
