<?xml version="1.0" standalone="no"?>
<!DOCTYPE svg PUBLIC "-//W3C//DTD SVG 20010904//EN"
 "http://www.w3.org/TR/2001/REC-SVG-20010904/DTD/svg10.dtd">
<svg version="1.0" xmlns="http://www.w3.org/2000/svg"
 width="1126.000000pt" height="992.000000pt" viewBox="0 0 1126.000000 992.000000"
 preserveAspectRatio="xMidYMid meet">
<metadata>
Created by potrace 1.16, written by Peter Selinger 2001-2019
</metadata>
<g transform="translate(0.000000,992.000000) scale(0.100000,-0.100000)"
fill="#000000" stroke="none">
<path d="M6845 9904 c-1559 -154 -3129 -1341 -4117 -3114 -82 -146 -204 -388
-259 -512 l-34 -78 -451 0 -450 0 -235 -406 c-129 -224 -235 -411 -237 -415
-2 -5 232 -9 527 -9 317 0 531 -4 531 -9 0 -5 -20 -81 -44 -168 -45 -163 -120
-498 -132 -590 l-7 -53 -409 -2 -409 -3 -234 -405 c-129 -223 -235 -408 -235
-412 0 -5 269 -8 598 -8 l599 0 6 -237 c15 -584 111 -1096 293 -1557 442
-1118 1321 -1803 2450 -1911 719 -69 1523 131 2279 565 176 102 392 243 530
347 l89 68 187 749 187 749 -46 -54 c-763 -882 -1696 -1454 -2584 -1585 -148
-21 -430 -29 -571 -15 -393 38 -732 168 -1030 393 -112 84 -296 272 -390 396
-368 490 -566 1170 -567 1939 l0 153 2121 2 2122 3 236 410 237 410 -2312 5
-2311 5 37 165 c45 194 74 302 137 502 l46 148 2441 2 2440 3 236 410 236 410
-2498 5 -2498 5 77 140 c807 1484 2108 2536 3365 2721 148 21 430 29 571 15
393 -38 732 -168 1030 -393 112 -84 296 -272 390 -396 128 -171 258 -406 332
-602 16 -41 31 -78 35 -82 6 -8 500 841 500 861 0 31 -184 299 -311 451 -306
368 -727 663 -1177 825 -405 146 -874 203 -1317 159z"/>
</g>
</svg>
