<?xml version="1.0" standalone="no"?>
<!DOCTYPE svg PUBLIC "-//W3C//DTD SVG 20010904//EN"
 "http://www.w3.org/TR/2001/REC-SVG-20010904/DTD/svg10.dtd">
<svg version="1.0" xmlns="http://www.w3.org/2000/svg"
 width="941.000000pt" height="938.000000pt" viewBox="0 0 941.000000 938.000000"
 preserveAspectRatio="xMidYMid meet">
<metadata>
Created by potrace 1.16, written by Peter Selinger 2001-2019
</metadata>
<g transform="translate(0.000000,938.000000) scale(0.100000,-0.100000)"
fill="#000000" stroke="none">
<path d="M6465 9374 c-449 -43 -718 -98 -1095 -224 -730 -243 -1379 -636
-2035 -1231 -564 -511 -1066 -1180 -1424 -1896 l-81 -163 -483 0 -482 -1 -235
-380 c-129 -210 -236 -385 -238 -390 -2 -5 233 -9 568 -9 539 0 571 -1 566
-17 -2 -10 -14 -49 -25 -88 -51 -178 -111 -439 -145 -637 l-7 -38 -437 0 -437
-1 -235 -380 c-129 -210 -236 -385 -238 -390 -2 -5 263 -9 641 -9 l644 0 6
-172 c33 -852 297 -1607 768 -2198 256 -322 601 -601 977 -793 342 -174 682
-278 1098 -334 182 -24 684 -24 869 0 791 105 1494 377 2196 848 80 54 151
104 156 111 8 11 333 1293 333 1314 0 4 -71 -62 -157 -147 -570 -557 -1205
-956 -1873 -1179 -828 -276 -1604 -249 -2256 78 -219 110 -383 229 -560 406
-479 481 -731 1111 -770 1924 l-7 142 2289 0 2289 0 238 384 c130 211 237 386
237 390 0 3 -1119 6 -2486 6 l-2487 0 7 48 c11 83 93 400 147 569 l53 163
2629 2 2630 3 239 385 238 385 -2690 5 -2691 5 64 110 c429 745 1061 1429
1740 1884 551 369 1121 604 1687 695 626 102 1177 29 1676 -222 219 -110 383
-229 560 -406 188 -189 327 -378 440 -599 31 -60 57 -107 59 -105 8 9 465 750
465 755 0 3 -25 42 -56 87 -280 402 -662 735 -1102 959 -341 174 -689 280
-1093 333 -117 15 -585 28 -684 18z m684 -28 c924 -121 1691 -572 2186 -1285
46 -65 56 -87 48 -100 -5 -9 -106 -171 -223 -361 -117 -190 -216 -349 -220
-354 -5 -4 -31 36 -59 90 -66 129 -155 266 -249 384 -92 115 -281 306 -378
382 -474 374 -1104 551 -1770 498 -957 -76 -1947 -573 -2760 -1384 -267 -267
-467 -502 -670 -786 -147 -206 -359 -554 -348 -571 3 -5 1211 -9 2686 -9 2140
0 2679 -3 2675 -12 -3 -7 -107 -177 -231 -378 l-226 -365 -2632 -5 -2632 -5
-53 -162 c-63 -194 -144 -518 -147 -582 l-1 -46 2482 -5 2482 -5 -232 -375
-232 -375 -2290 -5 -2290 -5 2 -140 c11 -643 225 -1279 581 -1725 92 -115 281
-306 378 -382 474 -374 1104 -551 1770 -498 942 75 1916 558 2730 1353 l152
147 -162 -647 -162 -648 -130 -88 c-414 -283 -860 -506 -1314 -657 -313 -105
-559 -161 -905 -207 -185 -24 -687 -24 -869 0 -299 40 -569 108 -810 203 -794
314 -1385 899 -1725 1710 -178 425 -277 893 -299 1414 l-7 165 -641 5 -641 5
233 375 232 375 433 3 c238 1 437 6 441 10 4 4 19 68 33 142 24 133 95 427
135 565 11 38 16 73 12 77 -4 4 -260 9 -568 10 l-561 3 233 375 232 375 483 5
484 5 100 195 c473 922 1106 1682 1890 2268 499 373 1004 642 1545 822 377
126 646 181 1095 224 99 10 567 -3 684 -18z"/>
</g>
</svg>
