<?xml version="1.0" standalone="no"?>
<!DOCTYPE svg PUBLIC "-//W3C//DTD SVG 20010904//EN"
 "http://www.w3.org/TR/2001/REC-SVG-20010904/DTD/svg10.dtd">
<svg version="1.0" xmlns="http://www.w3.org/2000/svg"
 width="1081.000000pt" height="952.000000pt" viewBox="0 0 1081.000000 952.000000"
 preserveAspectRatio="xMidYMid meet">
<metadata>
Created by potrace 1.16, written by Peter Selinger 2001-2019
</metadata>
<g transform="translate(0.000000,952.000000) scale(0.100000,-0.100000)"
fill="#000000" stroke="none">
<path d="M6575 9510 c-1147 -115 -2324 -817 -3236 -1930 -364 -445 -641 -880
-899 -1413 l-105 -217 -434 -2 -434 -3 -223 -385 c-123 -212 -223 -388 -224
-392 0 -5 230 -8 510 -8 281 0 510 -2 510 -4 0 -3 -20 -76 -44 -163 -43 -154
-120 -499 -133 -588 l-6 -45 -392 0 -393 0 -224 -387 c-122 -213 -225 -390
-226 -395 -2 -4 258 -8 577 -8 l581 0 0 -172 c1 -924 270 -1775 756 -2387 216
-271 535 -536 839 -697 541 -286 1189 -380 1850 -269 605 102 1230 374 1810
787 l159 114 178 709 c97 391 176 713 175 717 -1 5 -26 -20 -56 -55 -328 -383
-764 -758 -1172 -1008 -503 -308 -980 -473 -1480 -511 -420 -32 -848 65 -1179
266 -504 307 -856 852 -1004 1554 -51 242 -86 576 -86 830 l0 122 2038 0 2038
0 226 392 226 393 -2218 3 -2218 2 29 138 c33 155 102 408 152 557 l34 100
2344 5 2343 5 223 385 c122 212 222 388 223 393 0 4 -1078 7 -2395 7 -1317 0
-2395 4 -2395 8 0 16 173 320 271 477 648 1036 1577 1830 2504 2140 363 121
709 171 1023 147 503 -39 899 -217 1237 -556 206 -207 399 -514 503 -800 l29
-78 23 38 c82 140 450 782 455 795 3 9 -20 56 -58 115 -393 620 -963 1036
-1652 1205 -217 53 -365 70 -640 74 -137 2 -290 0 -340 -5z"/>
</g>
</svg>
