<?xml version="1.0" standalone="no"?>
<!DOCTYPE svg PUBLIC "-//W3C//DTD SVG 20010904//EN"
 "http://www.w3.org/TR/2001/REC-SVG-20010904/DTD/svg10.dtd">
<svg version="1.0" xmlns="http://www.w3.org/2000/svg"
 width="707.000000pt" height="938.000000pt" viewBox="0 0 707.000000 938.000000"
 preserveAspectRatio="xMidYMid meet">
<metadata>
Created by potrace 1.16, written by Peter Selinger 2001-2019
</metadata>
<g transform="translate(0.000000,938.000000) scale(0.100000,-0.100000)"
fill="#000000" stroke="none">
<path d="M4985 9368 c-316 -35 -692 -163 -1014 -344 -971 -546 -1861 -1638
-2440 -2994 l-71 -165 -338 -3 -337 -2 -199 -390 -198 -390 402 0 c379 0 402
-1 395 -17 -16 -40 -135 -527 -156 -640 l-24 -123 -305 0 -305 0 -198 -390
-199 -390 451 0 450 0 -6 -302 c-14 -734 87 -1338 313 -1868 131 -306 340
-620 536 -805 326 -308 669 -476 1081 -530 650 -85 1404 183 2079 740 l83 68
204 811 c112 446 206 818 209 826 3 8 -32 -36 -77 -99 -337 -468 -729 -877
-1084 -1132 -390 -279 -767 -429 -1116 -446 -486 -22 -887 248 -1145 772 -148
299 -236 630 -283 1055 -19 178 -25 713 -10 843 l9 67 1531 0 1532 0 198 390
199 390 -1677 0 c-1592 0 -1676 1 -1671 18 3 9 21 89 42 177 34 149 129 495
153 558 l11 27 1768 0 1769 0 197 390 197 390 -1816 2 -1816 3 130 260 c323
646 683 1157 1136 1611 306 307 585 515 900 669 798 391 1463 181 1839 -580
104 -209 185 -459 233 -713 l8 -43 255 505 255 505 -65 128 c-119 235 -298
483 -452 628 -326 308 -669 476 -1081 530 -127 16 -352 18 -482 3z m482 -13
c409 -54 752 -221 1076 -525 147 -138 328 -389 447 -622 l65 -127 -146 -293
c-234 -468 -348 -683 -352 -668 -3 8 -19 78 -37 155 -45 196 -109 375 -196
550 -261 529 -668 804 -1155 782 -411 -20 -855 -223 -1316 -601 -137 -113
-427 -403 -564 -566 -240 -283 -414 -528 -614 -861 -122 -203 -379 -705 -369
-720 3 -5 755 -9 1810 -9 992 0 1804 -3 1804 -7 0 -5 -85 -174 -188 -378
l-187 -370 -1770 -5 -1770 -5 -12 -26 c-36 -75 -209 -742 -197 -761 3 -4 754
-8 1670 -8 915 0 1664 -3 1664 -7 0 -5 -85 -174 -189 -378 l-188 -370 -1534
-5 -1533 -5 -9 -45 c-5 -25 -10 -196 -10 -380 -1 -363 11 -527 59 -790 56
-304 126 -525 240 -755 260 -528 668 -804 1155 -782 349 17 726 167 1116 446
330 237 710 626 1022 1046 58 77 108 144 112 148 4 5 -83 -348 -193 -785
l-199 -793 -46 -43 c-116 -109 -403 -307 -614 -426 -734 -413 -1487 -468
-2102 -154 -228 117 -462 304 -613 492 -406 504 -633 1165 -695 2026 -6 85 -9
299 -7 475 l3 320 -442 3 c-244 1 -443 6 -443 10 0 4 85 174 189 377 l188 370
308 5 308 5 29 145 c16 80 56 251 90 380 33 129 61 242 61 250 2 13 -49 15
-390 18 -216 1 -393 6 -393 10 0 4 85 174 189 377 l188 370 338 5 c286 4 339
7 346 20 5 8 44 96 86 195 422 983 1044 1872 1718 2455 557 482 1156 776 1710
838 130 15 355 13 482 -3z"/>
</g>
</svg>
