<?xml version="1.0" standalone="no"?>
<!DOCTYPE svg PUBLIC "-//W3C//DTD SVG 20010904//EN"
 "http://www.w3.org/TR/2001/REC-SVG-20010904/DTD/svg10.dtd">
<svg version="1.0" xmlns="http://www.w3.org/2000/svg"
 width="1065.000000pt" height="938.000000pt" viewBox="0 0 1065.000000 938.000000"
 preserveAspectRatio="xMidYMid meet">
<metadata>
Created by potrace 1.16, written by Peter Selinger 2001-2019
</metadata>
<g transform="translate(0.000000,938.000000) scale(0.100000,-0.100000)"
fill="#000000" stroke="none">
<path d="M6515 9373 c-136 -11 -408 -57 -554 -93 -1390 -343 -2716 -1511
-3510 -3090 -43 -85 -95 -194 -116 -242 l-39 -88 -427 0 -426 0 -222 -384
c-121 -211 -221 -386 -221 -390 0 -3 227 -6 503 -6 l504 0 -38 -137 c-44 -160
-101 -406 -125 -545 l-18 -98 -387 0 -386 0 -222 -384 c-121 -211 -221 -386
-221 -390 0 -3 256 -6 570 -6 l570 0 0 -162 c0 -671 151 -1330 424 -1853 281
-540 678 -946 1176 -1204 279 -144 546 -229 875 -278 93 -13 182 -17 395 -17
247 0 293 3 450 27 645 98 1256 357 1867 791 l142 100 176 704 c96 388 174
706 173 707 -2 2 -33 -32 -70 -74 -424 -491 -923 -884 -1453 -1146 -359 -177
-637 -265 -1000 -317 -133 -19 -485 -16 -610 6 -512 87 -898 319 -1216 729
-243 314 -424 757 -498 1222 -31 197 -41 309 -48 548 l-6 217 2009 0 2009 1
222 387 222 387 -2185 3 c-2075 2 -2185 3 -2180 20 2 9 10 44 16 77 21 109 99
408 143 545 l43 135 2309 5 2310 5 222 385 222 385 -2364 5 -2365 5 77 140
c249 459 531 852 885 1235 635 689 1403 1158 2133 1305 208 42 291 50 510 49
346 -1 591 -57 875 -199 424 -212 777 -619 970 -1115 18 -47 36 -88 39 -92 5
-5 254 419 448 761 l31 56 -62 98 c-167 264 -391 519 -612 694 -379 300 -793
480 -1279 554 -127 20 -530 34 -660 22z"/>
</g>
</svg>
