<?xml version="1.0" standalone="no"?>
<!DOCTYPE svg PUBLIC "-//W3C//DTD SVG 20010904//EN"
 "http://www.w3.org/TR/2001/REC-SVG-20010904/DTD/svg10.dtd">
<svg version="1.0" xmlns="http://www.w3.org/2000/svg"
 width="901.000000pt" height="992.000000pt" viewBox="0 0 901.000000 992.000000"
 preserveAspectRatio="xMidYMid meet">
<metadata>
Created by potrace 1.16, written by Peter Selinger 2001-2019
</metadata>
<g transform="translate(0.000000,992.000000) scale(0.100000,-0.100000)"
fill="#000000" stroke="none">
<path d="M6195 9904 c-1559 -154 -3129 -1341 -4117 -3114 -82 -146 -204 -388
-259 -512 l-34 -78 -451 0 -450 0 -235 -406 c-129 -224 -235 -411 -237 -415
-2 -5 232 -9 527 -9 317 0 531 -4 531 -9 0 -5 -20 -81 -44 -168 -45 -163 -120
-498 -132 -590 l-7 -53 -409 -2 -409 -3 -234 -405 c-129 -223 -235 -408 -235
-412 0 -5 269 -8 598 -8 l599 0 6 -237 c15 -584 111 -1096 293 -1557 442
-1118 1321 -1803 2450 -1911 719 -69 1523 131 2279 565 176 102 392 243 530
347 l89 68 187 749 187 749 -46 -54 c-763 -882 -1696 -1454 -2584 -1585 -148
-21 -430 -29 -571 -15 -393 38 -732 168 -1030 393 -112 84 -296 272 -390 396
-368 490 -566 1170 -567 1939 l0 153 2121 2 2122 3 236 410 237 410 -2312 5
-2311 5 37 165 c45 194 74 302 137 502 l46 148 2441 2 2440 3 236 410 236 410
-2498 5 -2498 5 77 140 c807 1484 2108 2536 3365 2721 148 21 430 29 571 15
393 -38 732 -168 1030 -393 112 -84 296 -272 390 -396 128 -171 258 -406 332
-602 16 -41 31 -78 35 -82 6 -8 500 841 500 861 0 31 -184 299 -311 451 -306
368 -727 663 -1177 825 -405 146 -874 203 -1317 159z m589 -9 c761 -73 1431
-417 1895 -975 126 -151 311 -419 311 -451 0 -11 -463 -823 -480 -842 -4 -4
-19 25 -35 65 -78 201 -205 431 -332 600 -93 124 -288 321 -400 406 -376 284
-815 416 -1323 399 -192 -7 -320 -23 -498 -63 -1186 -265 -2396 -1295 -3150
-2679 -39 -71 -72 -137 -74 -145 -3 -13 281 -16 2490 -20 l2492 -5 -230 -400
-230 -400 -2442 -5 -2441 -5 -29 -85 c-62 -181 -175 -612 -190 -720 l-3 -25
2307 -5 2308 -5 -232 -402 -232 -403 -2121 -2 -2120 -3 -3 -135 c-12 -534 106
-1115 316 -1550 191 -396 481 -728 814 -931 253 -154 544 -249 865 -280 141
-14 423 -6 571 15 658 97 1341 434 1968 971 140 120 420 394 557 545 l86 95
-183 -730 -182 -730 -85 -63 c-887 -660 -1913 -992 -2803 -907 -1232 118
-2158 921 -2545 2206 -116 388 -176 782 -189 1259 l-7 235 -597 5 -597 5 232
402 232 403 410 2 410 3 7 50 c18 114 93 450 134 599 25 88 42 166 40 173 -4
10 -111 13 -529 15 l-523 3 231 400 230 400 453 3 452 2 32 73 c246 556 633
1172 1050 1673 1114 1337 2605 2084 3912 1959z"/>
</g>
</svg>
