<?xml version="1.0" standalone="no"?>
<!DOCTYPE svg PUBLIC "-//W3C//DTD SVG 20010904//EN"
 "http://www.w3.org/TR/2001/REC-SVG-20010904/DTD/svg10.dtd">
<svg version="1.0" xmlns="http://www.w3.org/2000/svg"
 width="1276.000000pt" height="938.000000pt" viewBox="0 0 1276.000000 938.000000"
 preserveAspectRatio="xMidYMid meet">
<metadata>
Created by potrace 1.16, written by Peter Selinger 2001-2019
</metadata>
<g transform="translate(0.000000,938.000000) scale(0.100000,-0.100000)"
fill="#000000" stroke="none">
<path d="M7670 9374 c-734 -51 -1451 -250 -2145 -594 -1212 -602 -2241 -1604
-2852 -2777 l-75 -143 -542 0 -543 0 -256 -385 c-142 -212 -257 -387 -257
-390 0 -3 290 -5 643 -5 l644 0 -38 -131 c-44 -150 -100 -396 -125 -546 l-17
-103 -492 0 -492 0 -256 -385 c-142 -212 -257 -387 -257 -390 0 -3 326 -5 725
-5 l725 0 0 -23 c0 -63 23 -308 41 -432 94 -657 346 -1249 741 -1745 528 -661
1357 -1125 2261 -1264 298 -46 367 -51 717 -50 361 1 525 14 840 69 742 130
1489 427 2178 866 l131 83 151 606 c83 333 153 614 157 625 4 13 -14 2 -53
-33 -462 -412 -869 -690 -1359 -932 -1577 -775 -3248 -655 -4211 305 -274 272
-459 550 -598 897 -118 293 -175 557 -210 966 l-6 62 2608 0 2607 1 257 387
258 387 -2835 3 c-1559 1 -2835 4 -2835 7 0 3 11 60 26 127 34 168 66 283 130
481 l55 167 2992 1 2992 0 257 390 257 389 -3060 0 -3061 0 27 48 c59 102 203
314 310 457 168 224 346 427 564 645 452 451 941 802 1506 1080 1437 706 2948
675 3958 -83 218 -163 461 -425 615 -661 35 -54 67 -94 72 -90 13 15 451 675
456 688 2 6 -33 59 -79 116 -292 367 -713 701 -1162 920 -405 198 -810 314
-1315 375 -129 16 -636 28 -770 19z"/>
</g>
</svg>
