<?xml version="1.0" standalone="no"?>
<!DOCTYPE svg PUBLIC "-//W3C//DTD SVG 20010904//EN"
 "http://www.w3.org/TR/2001/REC-SVG-20010904/DTD/svg10.dtd">
<svg version="1.0" xmlns="http://www.w3.org/2000/svg"
 width="1057.000000pt" height="952.000000pt" viewBox="0 0 1057.000000 952.000000"
 preserveAspectRatio="xMidYMid meet">
<metadata>
Created by potrace 1.16, written by Peter Selinger 2001-2019
</metadata>
<g transform="translate(0.000000,952.000000) scale(0.100000,-0.100000)"
fill="#000000" stroke="none">
<path d="M7180 9513 c-357 -24 -641 -69 -983 -154 -968 -241 -1926 -764 -2714
-1480 -570 -518 -1063 -1158 -1400 -1816 l-58 -113 -552 0 -553 0 -260 -390
c-143 -214 -260 -392 -260 -395 0 -3 294 -6 653 -7 l653 -3 -37 -131 c-45
-158 -103 -410 -126 -556 l-18 -108 -501 0 -501 0 -261 -392 -262 -393 738 -3
739 -2 12 -170 c56 -787 324 -1489 794 -2075 102 -127 363 -388 487 -487 540
-431 1167 -696 1890 -797 414 -58 923 -53 1370 14 789 117 1633 443 2350 906
l108 69 156 625 c86 344 156 627 156 631 0 3 -39 -31 -87 -75 -1095 -1002
-2586 -1541 -3853 -1395 -1235 142 -2141 871 -2464 1982 -58 200 -102 464
-119 715 l-4 57 2644 0 2644 0 260 393 259 392 -2875 3 c-1581 1 -2875 4
-2875 7 0 2 14 70 31 151 33 160 98 395 151 544 l34 95 3037 5 3037 5 260 390
260 390 -3105 3 c-1708 1 -3105 4 -3105 7 0 13 166 271 250 390 713 1004 1735
1770 2858 2142 962 318 1914 321 2707 7 520 -206 959 -558 1258 -1008 37 -55
68 -104 70 -110 3 -7 8 -8 15 -1 5 6 113 166 240 357 l231 347 -86 108 c-106
132 -365 393 -493 495 -610 487 -1350 768 -2180 827 -131 10 -507 12 -620 4z
m620 -14 c830 -59 1570 -340 2180 -827 128 -102 377 -353 483 -485 l86 -108
-231 -347 c-127 -191 -232 -348 -233 -350 -1 -1 -31 42 -66 95 -201 306 -500
599 -810 792 -699 435 -1598 573 -2549 390 -1353 -260 -2634 -1110 -3490
-2314 -120 -169 -252 -383 -245 -395 4 -7 1117 -10 3101 -10 1818 0 3094 -4
3092 -9 -1 -5 -115 -178 -253 -385 l-250 -375 -3031 -1 c-2413 0 -3034 -3
-3042 -12 -45 -56 -238 -765 -216 -799 3 -5 1142 -9 2870 -9 1575 0 2864 -2
2864 -5 0 -3 -113 -176 -251 -385 l-251 -380 -2643 0 c-1454 0 -2646 -3 -2648
-7 -7 -13 13 -231 32 -368 108 -739 465 -1368 1023 -1800 715 -553 1707 -748
2768 -544 934 180 1868 655 2611 1330 l86 78 -154 -618 -155 -617 -126 -81
c-721 -458 -1541 -772 -2322 -888 -447 -67 -956 -72 -1370 -14 -723 101 -1351
366 -1890 797 -124 99 -375 350 -477 477 -179 223 -303 421 -429 680 -211 437
-327 883 -367 1410 l-12 160 -733 3 c-423 1 -732 6 -730 11 2 5 116 178 253
385 l250 375 504 3 504 3 19 109 c26 157 83 407 127 560 21 72 36 134 34 139
-2 4 -296 7 -654 7 l-649 0 257 385 256 385 553 0 552 0 75 143 c631 1206
1641 2194 2867 2806 736 367 1433 561 2210 614 113 8 489 6 620 -4z"/>
</g>
</svg>
