<?xml version="1.0" standalone="no"?>
<!DOCTYPE svg PUBLIC "-//W3C//DTD SVG 20010904//EN"
 "http://www.w3.org/TR/2001/REC-SVG-20010904/DTD/svg10.dtd">
<svg version="1.0" xmlns="http://www.w3.org/2000/svg"
 width="675.000000pt" height="626.000000pt" viewBox="0 0 675.000000 626.000000"
 preserveAspectRatio="xMidYMid meet">
<metadata>
Created by potrace 1.16, written by Peter Selinger 2001-2019
</metadata>
<g transform="translate(0.000000,626.000000) scale(0.100000,-0.100000)"
fill="#000000" stroke="none">
<path d="M1655 6249 c-195 -28 -431 -131 -608 -266 -89 -67 -278 -254 -356
-353 -275 -345 -512 -842 -657 -1373 -40 -150 -38 -180 16 -232 l31 -30 172
-3 c242 -4 239 -6 301 233 52 196 153 494 226 665 193 453 426 753 685 880
113 56 190 74 315 75 118 0 150 -12 201 -75 97 -121 74 -485 -57 -891 -20 -63
-115 -330 -211 -594 -428 -1177 -600 -1757 -668 -2260 -23 -164 -31 -502 -16
-646 31 -295 124 -570 261 -774 267 -395 797 -624 1395 -602 383 14 749 157
1075 421 81 66 239 219 313 304 l47 54 17 -44 c125 -317 379 -560 699 -668
156 -53 233 -65 419 -64 195 1 265 15 409 82 124 59 200 113 312 227 289 292
496 767 724 1663 46 182 46 204 -11 258 l-30 29 -172 3 c-248 4 -239 11 -312
-279 -239 -954 -455 -1415 -724 -1543 -59 -28 -75 -31 -156 -31 -103 1 -159
20 -213 75 -74 73 -102 171 -109 380 -6 178 10 334 58 570 17 80 260 1062 540
2182 380 1522 509 2052 509 2095 0 114 -44 218 -119 286 -183 165 -504 134
-707 -68 -133 -133 -88 23 -663 -2280 -280 -1122 -517 -2082 -526 -2134 -15
-85 -22 -103 -87 -212 -307 -508 -678 -805 -1098 -880 -114 -20 -331 -18 -405
5 -251 76 -412 273 -474 582 -66 327 -53 654 44 1142 101 503 259 1012 630
2033 229 628 254 732 242 1008 -26 630 -480 1067 -1100 1060 -56 -1 -129 -5
-162 -10z"/>
</g>
</svg>
