<?xml version="1.0" standalone="no"?>
<!DOCTYPE svg PUBLIC "-//W3C//DTD SVG 20010904//EN"
 "http://www.w3.org/TR/2001/REC-SVG-20010904/DTD/svg10.dtd">
<svg version="1.0" xmlns="http://www.w3.org/2000/svg"
 width="904.000000pt" height="901.000000pt" viewBox="0 0 904.000000 901.000000"
 preserveAspectRatio="xMidYMid meet">
<metadata>
Created by potrace 1.16, written by Peter Selinger 2001-2019
</metadata>
<g transform="translate(0.000000,901.000000) scale(0.100000,-0.100000)"
fill="#000000" stroke="none">
<path d="M2330 8992 c-19 -9 -44 -31 -55 -48 -12 -17 -144 -430 -294 -918
-298 -968 -288 -925 -231 -990 45 -51 73 -58 204 -54 97 2 119 6 143 24 40 30
54 62 134 314 120 380 230 652 293 728 29 34 73 42 321 64 184 15 4603 23
5007 9 276 -10 496 -27 508 -38 3 -3 4 -52 3 -110 -2 -126 -30 -329 -84 -628
-46 -249 -45 -270 16 -324 46 -40 63 -43 194 -39 120 3 149 15 183 74 9 17 88
403 187 919 184 959 180 928 129 983 -13 13 -35 30 -50 38 -23 12 -509 14
-3300 14 -3096 0 -3275 -1 -3308 -18z"/>
<path d="M2554 5749 c-18 -5 -45 -24 -61 -43 -27 -30 -50 -113 -267 -981 -185
-740 -235 -955 -230 -982 4 -22 21 -50 45 -74 44 -44 87 -54 212 -47 91 5 134
22 162 65 10 15 48 147 85 293 l66 265 1916 3 1916 2 -59 -232 c-68 -269 -69
-288 -9 -348 45 -45 87 -55 214 -48 96 5 138 25 167 78 11 19 123 451 250 960
180 720 230 935 226 968 -6 53 -53 107 -107 122 -46 13 -185 13 -232 0 -75
-21 -88 -50 -163 -349 l-67 -271 -1914 0 c-1053 0 -1914 2 -1914 5 0 3 25 106
56 228 65 257 66 289 13 343 -18 19 -49 39 -69 44 -43 12 -194 12 -236 -1z"/>
<path d="M440 2148 c-18 -13 -41 -34 -51 -48 -20 -28 -389 -1885 -389 -1957 0
-49 32 -99 80 -124 34 -18 143 -19 3381 -19 l3346 0 33 23 c18 12 41 33 51 47
10 14 149 458 309 987 271 896 290 964 281 1000 -11 39 -47 81 -88 102 -12 6
-70 11 -133 11 -180 0 -188 -8 -269 -270 -153 -496 -278 -822 -357 -926 -18
-25 -34 -33 -81 -42 -236 -46 -583 -52 -2953 -52 -2296 0 -2683 6 -2899 46
l-34 7 6 146 c7 162 35 360 102 712 48 255 48 278 3 327 -42 44 -70 52 -191
52 -102 0 -118 -2 -147 -22z"/>
</g>
</svg>
