<?xml version="1.0" standalone="no"?>
<!DOCTYPE svg PUBLIC "-//W3C//DTD SVG 20010904//EN"
 "http://www.w3.org/TR/2001/REC-SVG-20010904/DTD/svg10.dtd">
<svg version="1.0" xmlns="http://www.w3.org/2000/svg"
 width="894.000000pt" height="908.000000pt" viewBox="0 0 894.000000 908.000000"
 preserveAspectRatio="xMidYMid meet">
<metadata>
Created by potrace 1.16, written by Peter Selinger 2001-2019
</metadata>
<g transform="translate(0.000000,908.000000) scale(0.100000,-0.100000)"
fill="#000000" stroke="none">
<path d="M115 9062 c-51 -33 -67 -59 -92 -150 -30 -112 -30 -169 0 -213 40
-60 71 -69 252 -69 301 0 541 -26 663 -72 64 -24 138 -92 172 -157 11 -23 356
-1106 765 -2406 l743 -2363 -338 -1349 c-186 -741 -348 -1379 -360 -1418 -58
-184 -137 -294 -242 -333 -132 -50 -327 -71 -728 -79 -223 -4 -312 -9 -331
-19 -51 -25 -75 -68 -103 -179 -30 -122 -26 -162 21 -207 53 -49 56 -49 305
-38 128 5 501 15 828 21 612 12 1384 3 2004 -22 261 -11 276 -11 312 7 53 26
78 68 104 174 34 137 18 199 -60 241 -30 17 -59 19 -225 19 -353 0 -652 27
-765 69 -58 21 -75 63 -66 166 9 112 30 199 382 1608 l334 1338 1637 2007
c901 1104 1665 2034 1698 2067 33 33 100 105 149 160 270 304 604 539 931 655
181 64 435 110 605 110 121 0 163 40 200 190 25 102 23 154 -9 198 -39 56 -71
63 -232 52 -79 -5 -311 -15 -516 -21 -386 -12 -1028 -3 -1529 22 -220 11 -234
11 -270 -7 -52 -26 -77 -67 -103 -168 -34 -137 -25 -190 40 -237 26 -18 53
-24 136 -30 263 -21 391 -102 410 -258 12 -102 -46 -258 -148 -401 -30 -41
-58 -85 -64 -98 -10 -22 -2958 -3642 -2962 -3638 -12 10 -1283 4079 -1283
4106 0 51 38 120 87 156 54 41 184 87 303 108 55 10 180 20 295 23 136 4 208
10 226 19 51 26 75 68 103 179 30 122 26 162 -21 207 -53 49 -55 49 -321 38
-461 -19 -1355 -32 -1747 -25 -351 5 -592 13 -1020 31 -127 5 -143 4 -170 -14z"/>
</g>
</svg>
