<?xml version="1.0" standalone="no"?>
<!DOCTYPE svg PUBLIC "-//W3C//DTD SVG 20010904//EN"
 "http://www.w3.org/TR/2001/REC-SVG-20010904/DTD/svg10.dtd">
<svg version="1.0" xmlns="http://www.w3.org/2000/svg"
 width="881.000000pt" height="992.000000pt" viewBox="0 0 881.000000 992.000000"
 preserveAspectRatio="xMidYMid meet">
<metadata>
Created by potrace 1.16, written by Peter Selinger 2001-2019
</metadata>
<g transform="translate(0.000000,992.000000) scale(0.100000,-0.100000)"
fill="#000000" stroke="none">
<path d="M6629 9906 c-49 -17 -98 -49 -131 -83 -14 -15 -1087 -1909 -2383
-4208 -1296 -2299 -2368 -4193 -2382 -4210 -13 -16 -61 -86 -106 -155 -64 -99
-110 -154 -216 -262 -192 -192 -363 -300 -601 -378 -160 -52 -397 -90 -567
-90 -131 0 -167 -36 -212 -214 -17 -69 -31 -140 -31 -157 0 -45 36 -103 80
-128 37 -20 44 -21 187 -11 81 5 343 15 581 22 449 12 1177 2 1671 -23 242
-13 272 -9 318 45 23 26 37 61 61 159 37 147 39 175 13 225 -30 58 -77 78
-201 86 -242 14 -417 87 -510 210 -51 68 -70 130 -70 225 0 100 21 173 102
347 5 12 229 410 497 885 l487 864 1542 3 c1464 2 1542 1 1542 -15 0 -10 31
-506 70 -1103 69 -1083 69 -1084 50 -1127 -27 -61 -105 -135 -181 -171 -159
-76 -349 -110 -664 -119 -307 -8 -305 -7 -361 -231 -38 -150 -36 -184 12 -241
41 -49 66 -52 314 -41 124 5 516 15 873 22 664 12 1420 4 1966 -23 253 -13
282 -9 328 45 23 26 37 61 61 159 38 149 39 177 11 227 -40 71 -72 80 -275 80
-324 0 -607 29 -700 69 -22 10 -53 31 -68 47 -63 68 -41 -223 -352 4651 -271
4252 -287 4500 -308 4543 -16 34 -32 51 -66 68 -40 20 -58 22 -195 22 -96 -1
-163 -6 -186 -14z m-504 -4140 c74 -1161 135 -2127 135 -2148 l0 -38 -1371 0
c-1233 0 -1371 2 -1365 15 3 9 558 996 1233 2193 1190 2110 1228 2176 1231
2132 1 -25 63 -994 137 -2154z"/>
</g>
</svg>
