<?xml version="1.0" standalone="no"?>
<!DOCTYPE svg PUBLIC "-//W3C//DTD SVG 20010904//EN"
 "http://www.w3.org/TR/2001/REC-SVG-20010904/DTD/svg10.dtd">
<svg version="1.0" xmlns="http://www.w3.org/2000/svg"
 width="549.000000pt" height="1192.000000pt" viewBox="0 0 549.000000 1192.000000"
 preserveAspectRatio="xMidYMid meet">
<metadata>
Created by potrace 1.16, written by Peter Selinger 2001-2019
</metadata>
<g transform="translate(0.000000,1192.000000) scale(0.100000,-0.100000)"
fill="#000000" stroke="none">
<path d="M4811 11909 c-259 -51 -503 -243 -611 -483 -71 -155 -85 -330 -38
-462 83 -234 288 -365 548 -351 202 11 385 101 541 264 174 182 255 418 214
617 -44 213 -187 361 -396 411 -69 16 -187 18 -258 4z"/>
<path d="M3533 8940 c-291 -41 -567 -161 -847 -368 -126 -93 -411 -379 -524
-524 -237 -305 -455 -694 -607 -1077 -65 -165 -66 -189 -10 -249 l33 -37 221
-3 c237 -3 263 1 295 51 8 12 42 92 76 177 303 764 731 1305 1162 1467 178 67
380 81 470 31 148 -81 190 -361 118 -787 -11 -64 -65 -298 -120 -521 -206
-835 -1269 -5078 -1290 -5150 -37 -122 -135 -367 -198 -490 -211 -416 -483
-715 -778 -856 -164 -79 -351 -110 -503 -84 l-73 12 39 27 c152 103 263 252
321 431 46 144 53 246 22 365 -56 221 -233 356 -486 372 -165 10 -334 -38
-484 -138 -175 -117 -277 -264 -337 -489 -36 -131 -38 -307 -4 -425 49 -174
142 -315 281 -427 283 -228 700 -301 1188 -207 959 185 1838 987 2105 1924 59
204 1348 5383 1363 5473 23 140 21 379 -4 507 -88 445 -355 769 -762 922 -134
51 -263 74 -440 78 -91 2 -193 0 -227 -5z"/>
</g>
</svg>
