<?xml version="1.0" standalone="no"?>
<!DOCTYPE svg PUBLIC "-//W3C//DTD SVG 20010904//EN"
 "http://www.w3.org/TR/2001/REC-SVG-20010904/DTD/svg10.dtd">
<svg version="1.0" xmlns="http://www.w3.org/2000/svg"
 width="679.000000pt" height="901.000000pt" viewBox="0 0 679.000000 901.000000"
 preserveAspectRatio="xMidYMid meet">
<metadata>
Created by potrace 1.16, written by Peter Selinger 2001-2019
</metadata>
<g transform="translate(0.000000,901.000000) scale(0.100000,-0.100000)"
fill="#000000" stroke="none">
<path d="M6480 8988 c-40 -21 -105 -106 -628 -813 -321 -434 -587 -794 -592
-799 -5 -5 -43 13 -91 44 -45 29 -132 76 -193 106 -286 136 -564 193 -891 181
-369 -14 -696 -102 -1080 -292 -274 -135 -501 -285 -750 -494 -120 -101 -380
-361 -491 -492 -600 -704 -985 -1590 -1080 -2482 -20 -189 -14 -625 10 -785
70 -462 236 -860 494 -1186 l43 -54 -597 -809 c-329 -444 -606 -823 -617 -841
-24 -41 -19 -121 10 -160 26 -35 137 -99 185 -107 26 -5 50 -1 80 13 40 17 91
83 633 817 325 439 593 802 597 808 3 6 40 -12 89 -43 45 -29 132 -76 193
-106 286 -136 564 -193 891 -181 369 14 696 102 1080 292 274 135 501 285 750
494 120 101 380 361 491 492 577 677 953 1516 1071 2389 25 188 26 702 1 867
-71 466 -241 881 -486 1184 -31 38 -48 67 -43 73 113 147 1205 1635 1212 1653
15 41 10 84 -16 129 -21 35 -40 50 -106 83 -45 23 -91 41 -103 41 -12 0 -42
-10 -66 -22z m-2215 -1698 c158 -23 285 -70 410 -152 83 -54 235 -199 235
-224 0 -15 -3234 -4397 -3249 -4402 -11 -4 -45 123 -65 238 -77 448 -27 959
173 1757 131 521 262 901 431 1248 312 642 765 1132 1275 1380 275 134 554
188 790 155z m890 -883 c45 -180 59 -312 59 -567 0 -383 -53 -729 -203 -1327
-233 -929 -506 -1521 -931 -2015 -342 -399 -771 -671 -1185 -755 -118 -23
-359 -23 -461 0 -203 46 -401 163 -523 307 -40 48 -43 54 -31 74 14 22 3120
4228 3198 4329 24 32 46 56 48 54 3 -2 15 -47 29 -100z"/>
</g>
</svg>
