<?xml version="1.0" standalone="no"?>
<!DOCTYPE svg PUBLIC "-//W3C//DTD SVG 20010904//EN"
 "http://www.w3.org/TR/2001/REC-SVG-20010904/DTD/svg10.dtd">
<svg version="1.0" xmlns="http://www.w3.org/2000/svg"
 width="850.000000pt" height="1196.000000pt" viewBox="0 0 850.000000 1196.000000"
 preserveAspectRatio="xMidYMid meet">
<metadata>
Created by potrace 1.16, written by Peter Selinger 2001-2019
</metadata>
<g transform="translate(0.000000,1196.000000) scale(0.100000,-0.100000)"
fill="#000000" stroke="none">
<path d="M5235 11954 c-419 -34 -826 -129 -1240 -291 -179 -70 -582 -269 -750
-370 -715 -431 -1344 -1006 -1874 -1713 -865 -1153 -1371 -2580 -1371 -3865 0
-1184 429 -2194 1195 -2810 199 -160 534 -350 776 -439 638 -235 1375 -246
2122 -32 l148 43 -5 -36 c-14 -88 -77 -580 -92 -711 -22 -201 -30 -639 -14
-782 35 -324 155 -583 343 -738 244 -202 685 -265 1075 -154 115 33 325 136
436 215 115 81 315 275 419 404 328 407 602 993 798 1703 37 132 50 196 46
223 -13 101 -120 157 -213 113 -48 -23 -67 -55 -97 -159 -37 -130 -118 -315
-191 -437 -264 -439 -653 -737 -1065 -814 -130 -25 -339 -15 -447 20 -271 88
-418 322 -488 781 -16 105 -44 389 -47 488 l-3 58 125 58 c145 68 324 164 499
269 608 365 1208 900 1699 1516 1076 1349 1622 3107 1430 4606 -87 681 -327
1284 -709 1780 -104 135 -372 399 -510 502 -408 305 -851 484 -1370 553 -110
15 -519 27 -625 19z m463 -403 c843 -157 1426 -879 1581 -1956 31 -212 41
-373 41 -639 0 -456 -50 -894 -165 -1441 -170 -809 -410 -1544 -708 -2167
-422 -882 -1044 -1654 -1703 -2112 l-82 -56 -7 72 c-35 382 -119 690 -242 886
-177 283 -460 431 -828 432 -293 0 -585 -127 -832 -364 -215 -205 -364 -460
-439 -751 -26 -99 -28 -127 -29 -280 0 -134 4 -185 19 -243 10 -40 16 -75 14
-77 -8 -8 -161 87 -258 159 -470 351 -763 937 -867 1731 -25 196 -25 825 0
1060 118 1089 493 2371 949 3245 453 867 1033 1552 1693 1999 431 292 853 462
1285 517 150 19 433 12 578 -15z m-1888 -7346 c220 -50 366 -183 438 -400 50
-148 72 -426 57 -707 l-7 -137 -121 -54 c-245 -110 -455 -176 -694 -218 -107
-19 -165 -23 -348 -24 l-220 0 -53 29 c-115 64 -201 193 -227 343 -26 146 -14
276 41 443 61 182 153 330 294 470 139 139 295 229 455 264 88 20 279 15 385
-9z"/>
</g>
</svg>
