<?xml version="1.0" standalone="no"?>
<!DOCTYPE svg PUBLIC "-//W3C//DTD SVG 20010904//EN"
 "http://www.w3.org/TR/2001/REC-SVG-20010904/DTD/svg10.dtd">
<svg version="1.0" xmlns="http://www.w3.org/2000/svg"
 width="865.000000pt" height="650.000000pt" viewBox="0 0 865.000000 650.000000"
 preserveAspectRatio="xMidYMid meet">
<metadata>
Created by potrace 1.16, written by Peter Selinger 2001-2019
</metadata>
<g transform="translate(0.000000,650.000000) scale(0.100000,-0.100000)"
fill="#000000" stroke="none">
<path d="M3074 6485 c-128 -18 -342 -73 -470 -120 -266 -98 -623 -305 -879
-511 -208 -168 -477 -444 -671 -689 -586 -741 -977 -1744 -1043 -2675 -40
-560 45 -1066 253 -1496 185 -381 429 -644 757 -814 215 -111 424 -166 669
-177 505 -21 1033 185 1565 611 185 149 470 440 636 651 l52 66 62 -128 c114
-232 247 -416 427 -588 137 -132 262 -220 433 -305 291 -144 551 -198 895
-187 435 15 846 126 1274 345 337 172 675 429 927 705 117 129 252 300 281
356 21 41 23 86 5 118 -19 35 -238 264 -272 284 -16 11 -43 19 -58 19 -58 0
-91 -28 -189 -158 -534 -711 -1305 -1162 -1987 -1162 -385 0 -697 204 -876
574 -123 252 -170 498 -169 881 0 250 15 410 64 700 27 163 107 552 117 568 2
4 120 7 261 7 1600 0 2519 227 3043 750 228 227 359 470 431 797 33 148 31
391 -5 524 -55 209 -140 362 -285 511 -213 220 -486 352 -862 420 -114 20
-504 17 -650 -5 -681 -105 -1314 -418 -1866 -924 l-121 -111 -49 121 c-97 240
-228 440 -404 617 -214 215 -456 348 -752 411 -125 27 -402 34 -544 14z m322
-510 c431 -82 674 -604 626 -1339 -23 -348 -83 -668 -251 -1343 -190 -760
-299 -1101 -474 -1475 -149 -320 -371 -643 -594 -864 -179 -179 -408 -331
-591 -393 -162 -55 -348 -63 -483 -22 -152 48 -286 174 -377 356 -167 336
-174 789 -22 1545 55 274 267 1133 359 1455 241 847 500 1346 888 1716 311
295 626 420 919 364z m3964 -135 c223 -55 400 -193 492 -385 55 -115 71 -203
65 -355 -13 -343 -181 -638 -476 -835 -323 -215 -761 -326 -1486 -375 -174
-12 -945 -26 -945 -17 0 3 23 77 51 164 167 515 373 885 666 1193 264 277 615
490 958 580 96 25 141 34 290 54 74 11 303 -4 385 -24z"/>
</g>
</svg>
