<?xml version="1.0" standalone="no"?>
<!DOCTYPE svg PUBLIC "-//W3C//DTD SVG 20010904//EN"
 "http://www.w3.org/TR/2001/REC-SVG-20010904/DTD/svg10.dtd">
<svg version="1.0" xmlns="http://www.w3.org/2000/svg"
 width="619.000000pt" height="954.000000pt" viewBox="0 0 619.000000 954.000000"
 preserveAspectRatio="xMidYMid meet">
<metadata>
Created by potrace 1.16, written by Peter Selinger 2001-2019
</metadata>
<g transform="translate(0.000000,954.000000) scale(0.100000,-0.100000)"
fill="#000000" stroke="none">
<path d="M4660 9534 c-378 -43 -684 -128 -1020 -283 -824 -379 -1613 -1102
-2245 -2056 -179 -270 -285 -453 -435 -750 -286 -567 -462 -1049 -634 -1740
-239 -963 -338 -1679 -323 -2330 14 -575 105 -1027 281 -1390 236 -487 618
-807 1110 -930 183 -46 322 -59 540 -52 270 10 466 43 704 119 477 152 895
426 1391 913 644 631 974 1209 1199 2100 111 439 146 687 146 1025 0 328 -33
533 -134 825 -193 559 -514 975 -903 1172 -145 73 -365 132 -566 153 -510 51
-962 -81 -1401 -411 -129 -97 -321 -277 -419 -392 -36 -42 -66 -75 -68 -73 -2
2 15 70 37 152 253 920 531 1588 869 2092 414 617 981 1081 1526 1247 343 105
703 96 930 -23 83 -44 178 -135 218 -209 l28 -52 -28 -7 c-194 -44 -330 -119
-450 -248 -136 -146 -209 -315 -220 -511 -15 -254 134 -457 382 -520 86 -22
253 -20 346 5 234 61 426 215 533 427 82 163 134 494 116 728 -44 541 -392
895 -985 1001 -86 15 -442 28 -525 18z m-1055 -3749 c278 -58 447 -220 549
-526 47 -142 60 -266 46 -449 -26 -357 -101 -725 -329 -1635 -225 -899 -336
-1249 -501 -1590 -82 -171 -157 -284 -285 -433 -259 -301 -543 -478 -875 -543
-151 -30 -398 -33 -505 -6 -257 65 -469 279 -571 580 -106 312 -90 633 76
1457 174 868 316 1334 560 1837 380 785 852 1231 1395 1318 113 18 330 13 440
-10z"/>
</g>
</svg>
