<?xml version="1.0" standalone="no"?>
<!DOCTYPE svg PUBLIC "-//W3C//DTD SVG 20010904//EN"
 "http://www.w3.org/TR/2001/REC-SVG-20010904/DTD/svg10.dtd">
<svg version="1.0" xmlns="http://www.w3.org/2000/svg"
 width="905.000000pt" height="953.000000pt" viewBox="0 0 905.000000 953.000000"
 preserveAspectRatio="xMidYMid meet">
<metadata>
Created by potrace 1.16, written by Peter Selinger 2001-2019
</metadata>
<g transform="translate(0.000000,953.000000) scale(0.100000,-0.100000)"
fill="#000000" stroke="none">
<path d="M6688 9506 c-31 -13 -74 -37 -95 -54 -26 -20 -1136 -1588 -3312
-4678 -2616 -3714 -3274 -4655 -3278 -4685 -5 -31 -1 -42 20 -63 l26 -26 4456
2 4456 3 40 42 c29 31 39 51 39 75 0 33 -1872 9213 -1892 9278 -14 46 -53 88
-103 111 -32 15 -65 19 -170 19 -113 0 -137 -3 -187 -24z m231 -4938 l736
-3603 -1637 -3 c-900 -1 -2376 -1 -3281 0 l-1645 3 2541 3607 c1397 1984 2543
3606 2545 3603 3 -3 336 -1626 741 -3607z"/>
</g>
</svg>
