<?xml version="1.0" standalone="no"?>
<!DOCTYPE svg PUBLIC "-//W3C//DTD SVG 20010904//EN"
 "http://www.w3.org/TR/2001/REC-SVG-20010904/DTD/svg10.dtd">
<svg version="1.0" xmlns="http://www.w3.org/2000/svg"
 width="335.000000pt" height="271.000000pt" viewBox="0 0 335.000000 271.000000"
 preserveAspectRatio="xMidYMid meet">
<metadata>
Created by potrace 1.16, written by Peter Selinger 2001-2019
</metadata>
<g transform="translate(0.000000,271.000000) scale(0.100000,-0.100000)"
fill="#000000" stroke="none">
<path d="M1740 2692 c-19 -9 -44 -31 -56 -49 -25 -38 -194 -702 -194 -764 0
-25 9 -55 21 -76 32 -52 78 -69 201 -77 289 -18 524 -138 609 -311 83 -169 25
-432 -134 -602 -209 -223 -543 -333 -1157 -383 -69 -6 -294 -13 -500 -16 -206
-3 -389 -10 -406 -15 -49 -15 -84 -60 -105 -136 -36 -129 -17 -203 62 -243 36
-19 60 -20 351 -20 552 0 1038 25 1368 71 878 122 1361 422 1510 939 31 107
38 301 16 404 -35 156 -134 302 -279 412 -85 65 -279 156 -414 196 -68 20
-113 38 -113 46 0 7 25 111 55 232 30 121 55 238 55 261 0 54 -31 104 -81 129
-36 19 -60 20 -406 20 -330 0 -372 -2 -403 -18z"/>
</g>
</svg>
