<?xml version="1.0" standalone="no"?>
<!DOCTYPE svg PUBLIC "-//W3C//DTD SVG 20010904//EN"
 "http://www.w3.org/TR/2001/REC-SVG-20010904/DTD/svg10.dtd">
<svg version="1.0" xmlns="http://www.w3.org/2000/svg"
 width="942.000000pt" height="938.000000pt" viewBox="0 0 942.000000 938.000000"
 preserveAspectRatio="xMidYMid meet">
<metadata>
Created by potrace 1.16, written by Peter Selinger 2001-2019
</metadata>
<g transform="translate(0.000000,938.000000) scale(0.100000,-0.100000)"
fill="#000000" stroke="none">
<path d="M2419 9360 c-20 -10 -44 -31 -53 -45 -10 -15 -153 -473 -317 -1018
-318 -1053 -315 -1038 -272 -1096 48 -64 57 -66 274 -69 189 -3 201 -2 238 19
44 25 71 68 96 154 119 420 293 876 364 952 21 22 97 35 326 55 184 15 4542
23 4945 9 271 -10 438 -22 499 -37 l24 -5 -6 -117 c-8 -142 -43 -382 -93 -637
-44 -225 -48 -282 -18 -321 49 -67 56 -69 275 -72 190 -3 201 -2 239 19 24 14
47 37 59 63 14 27 87 375 217 1033 l196 993 -23 47 c-13 26 -37 56 -52 67
l-28 21 -3427 2 c-3353 2 -3428 2 -3463 -17z"/>
<path d="M2640 6027 c-19 -12 -42 -36 -51 -52 -10 -17 -135 -500 -279 -1073
-201 -807 -259 -1052 -254 -1079 4 -19 18 -48 31 -64 47 -55 64 -59 275 -59
215 0 244 7 283 66 11 17 49 147 89 307 l68 277 1849 0 c1017 0 1849 -2 1849
-5 0 -3 -27 -114 -60 -246 -66 -262 -67 -287 -23 -340 47 -55 64 -59 275 -59
211 0 241 7 281 61 24 33 536 2075 537 2139 0 54 -27 102 -72 130 -30 18 -51
20 -233 20 -223 0 -244 -6 -284 -71 -11 -17 -50 -155 -88 -305 l-68 -274
-1847 0 c-1265 0 -1848 3 -1848 10 0 6 25 109 55 230 60 240 65 288 35 338
-41 67 -62 72 -286 72 -192 0 -203 -1 -234 -23z"/>
<path d="M520 2389 c-28 -12 -67 -46 -81 -71 -13 -23 -439 -2132 -439 -2170 0
-44 37 -103 80 -127 l38 -21 3481 0 c3775 0 3517 -4 3570 54 19 20 93 256 342
1093 175 588 319 1083 319 1102 0 47 -36 105 -80 130 -35 19 -53 21 -223 21
-107 0 -198 -5 -214 -11 -56 -21 -82 -58 -114 -164 -84 -277 -184 -589 -230
-712 -63 -172 -162 -379 -189 -393 -11 -6 -64 -17 -117 -25 -263 -38 -371 -40
-2873 -40 -2455 0 -2590 2 -2832 36 l-78 11 0 94 c0 145 51 492 130 878 16 82
30 162 30 179 0 43 -37 102 -80 126 -35 19 -52 21 -226 20 -104 0 -200 -5
-214 -10z"/>
</g>
</svg>
