<?xml version="1.0" standalone="no"?>
<!DOCTYPE svg PUBLIC "-//W3C//DTD SVG 20010904//EN"
 "http://www.w3.org/TR/2001/REC-SVG-20010904/DTD/svg10.dtd">
<svg version="1.0" xmlns="http://www.w3.org/2000/svg"
 width="619.000000pt" height="954.000000pt" viewBox="0 0 619.000000 954.000000"
 preserveAspectRatio="xMidYMid meet">
<metadata>
Created by potrace 1.16, written by Peter Selinger 2001-2019
</metadata>
<g transform="translate(0.000000,954.000000) scale(0.100000,-0.100000)"
fill="#000000" stroke="none">
<path d="M4660 9533 c-340 -32 -686 -128 -1020 -282 -824 -379 -1613 -1102
-2245 -2056 -179 -270 -285 -453 -435 -750 -286 -567 -462 -1049 -634 -1740
-239 -963 -338 -1679 -323 -2330 14 -575 105 -1027 281 -1390 232 -478 609
-799 1088 -925 401 -106 924 -69 1378 98 480 176 1007 559 1488 1081 282 306
478 589 651 941 149 302 243 568 341 964 103 416 135 646 134 971 0 244 -14
364 -65 575 -78 320 -259 700 -455 957 -322 422 -763 624 -1358 623 -434 -1
-849 -161 -1230 -474 -127 -105 -328 -312 -436 -450 -46 -58 -85 -104 -87
-102 -6 6 98 387 172 631 291 961 627 1630 1103 2200 42 50 144 158 226 240
569 568 1190 843 1751 774 305 -37 513 -164 611 -374 32 -68 31 -75 -13 -75
-107 -1 -301 -80 -403 -164 -235 -195 -339 -542 -231 -773 59 -125 187 -224
327 -253 95 -20 265 -9 359 24 210 72 380 232 460 433 50 124 78 285 83 474 5
192 -3 260 -44 399 -114 377 -423 629 -886 724 -153 31 -428 45 -588 29z
m-1044 -3697 c297 -64 479 -239 588 -566 58 -174 69 -263 63 -505 -10 -373
-66 -670 -302 -1615 -214 -856 -332 -1217 -509 -1565 -126 -248 -271 -441
-483 -645 -313 -301 -620 -438 -1023 -457 -278 -12 -485 66 -656 249 -236 253
-337 646 -290 1133 53 558 224 1403 381 1884 220 676 536 1240 900 1606 283
285 585 449 911 494 94 13 333 6 420 -13z"/>
</g>
</svg>
