<?xml version="1.0" standalone="no"?>
<!DOCTYPE svg PUBLIC "-//W3C//DTD SVG 20010904//EN"
 "http://www.w3.org/TR/2001/REC-SVG-20010904/DTD/svg10.dtd">
<svg version="1.0" xmlns="http://www.w3.org/2000/svg"
 width="777.000000pt" height="953.000000pt" viewBox="0 0 777.000000 953.000000"
 preserveAspectRatio="xMidYMid meet">
<metadata>
Created by potrace 1.16, written by Peter Selinger 2001-2019
</metadata>
<g transform="translate(0.000000,953.000000) scale(0.100000,-0.100000)"
fill="#000000" stroke="none">
<path d="M6040 9513 c-104 -37 34 208 -2325 -4131 -1200 -2207 -2191 -4022
-2202 -4035 -10 -12 -45 -66 -77 -120 -152 -259 -350 -467 -572 -600 -169
-101 -448 -177 -654 -177 -66 0 -117 -23 -146 -67 -25 -37 -64 -185 -64 -241
0 -49 33 -99 81 -124 33 -17 47 -18 169 -8 73 5 291 15 484 21 365 12 1015 2
1501 -22 250 -13 264 -11 313 46 20 22 36 59 50 118 27 107 28 162 2 204 -33
54 -61 65 -183 75 -210 16 -351 66 -456 163 -130 121 -158 323 -69 514 17 36
33 78 37 92 7 31 3433 6330 3439 6324 10 -10 300 -6717 292 -6746 -23 -79
-107 -176 -187 -217 -171 -87 -418 -132 -733 -132 -200 0 -223 -17 -267 -186
-28 -110 -26 -157 6 -202 42 -60 64 -64 323 -52 128 5 508 15 843 21 624 12
1233 4 1737 -22 242 -13 257 -11 306 46 20 22 36 59 50 118 29 112 28 165 -1
208 -39 59 -73 69 -233 69 -278 0 -522 33 -583 78 -39 29 -59 63 -75 125 -12
45 -60 1084 -206 4390 -104 2383 -192 4346 -195 4364 -7 41 -50 92 -92 109
-46 20 -254 17 -313 -3z"/>
</g>
</svg>
