<?xml version="1.0" standalone="no"?>
<!DOCTYPE svg PUBLIC "-//W3C//DTD SVG 20010904//EN"
 "http://www.w3.org/TR/2001/REC-SVG-20010904/DTD/svg10.dtd">
<svg version="1.0" xmlns="http://www.w3.org/2000/svg"
 width="929.000000pt" height="946.000000pt" viewBox="0 0 929.000000 946.000000"
 preserveAspectRatio="xMidYMid meet">
<metadata>
Created by potrace 1.16, written by Peter Selinger 2001-2019
</metadata>
<g transform="translate(0.000000,946.000000) scale(0.100000,-0.100000)"
fill="#000000" stroke="none">
<path d="M2385 9446 c-57 -25 -80 -65 -114 -200 -17 -69 -31 -139 -31 -156 0
-48 33 -103 78 -128 38 -21 51 -22 243 -22 339 0 658 -25 781 -60 20 -6 47
-19 60 -29 21 -18 23 -26 22 -123 -1 -102 -8 -131 -971 -3978 -1061 -4240
-991 -3979 -1092 -4080 -103 -103 -295 -135 -866 -147 -425 -8 -405 3 -464
-241 l-34 -139 24 -49 c13 -26 37 -57 52 -68 33 -24 54 -24 586 -6 803 27
1906 22 2751 -11 284 -12 286 -11 328 10 24 12 51 35 60 50 10 16 33 92 51
169 l34 139 -24 49 c-45 90 -37 88 -392 96 -496 10 -736 42 -769 101 -7 12
-12 57 -12 102 0 72 46 263 433 1813 l433 1732 1127 0 c1196 0 1235 1 1523 50
1048 177 2056 813 2613 1650 235 353 371 690 436 1075 30 172 32 485 6 652
-96 611 -454 1117 -1014 1432 -313 176 -696 286 -1116 320 -85 7 -903 11
-2420 11 -1883 -1 -2297 -3 -2322 -14z m4405 -530 c441 -65 762 -219 955 -459
226 -280 267 -638 144 -1237 -38 -180 -155 -645 -204 -804 -227 -743 -534
-1135 -1118 -1422 -284 -139 -599 -222 -972 -254 -121 -10 -1965 -15 -1965 -5
0 3 221 888 491 1967 307 1228 502 1990 521 2036 55 133 116 173 292 192 39 4
447 7 906 6 725 -2 850 -5 950 -20z"/>
</g>
</svg>
