<?xml version="1.0" standalone="no"?>
<!DOCTYPE svg PUBLIC "-//W3C//DTD SVG 20010904//EN"
 "http://www.w3.org/TR/2001/REC-SVG-20010904/DTD/svg10.dtd">
<svg version="1.0" xmlns="http://www.w3.org/2000/svg"
 width="789.000000pt" height="946.000000pt" viewBox="0 0 789.000000 946.000000"
 preserveAspectRatio="xMidYMid meet">
<metadata>
Created by potrace 1.16, written by Peter Selinger 2001-2019
</metadata>
<g transform="translate(0.000000,946.000000) scale(0.100000,-0.100000)"
fill="#000000" stroke="none">
<path d="M2928 9440 c-21 -11 -45 -32 -54 -45 -19 -30 -103 -356 -104 -403 0
-50 32 -104 78 -130 38 -21 49 -22 303 -22 473 0 916 -28 1046 -65 31 -9 60
-25 72 -41 45 -57 43 -67 -121 -724 l-154 -615 -29 -7 c-17 -4 -102 -17 -190
-28 -957 -128 -1922 -530 -2635 -1096 -165 -131 -485 -450 -596 -594 -392
-507 -564 -999 -532 -1517 57 -918 851 -1681 2061 -1978 144 -36 475 -95 530
-95 18 0 38 -4 45 -9 10 -6 -18 -131 -128 -572 -79 -315 -152 -587 -165 -615
-30 -61 -118 -148 -177 -174 -127 -56 -560 -89 -1151 -90 -248 0 -271 -1 -307
-20 -22 -11 -47 -31 -56 -45 -19 -30 -103 -356 -104 -403 0 -50 32 -104 78
-130 l41 -23 303 11 c1110 38 2438 38 3590 -1 374 -12 387 -11 436 45 24 28
37 66 77 228 l49 195 -25 48 c-46 93 -24 89 -485 96 -223 4 -449 10 -502 13
-270 19 -434 44 -478 72 -27 18 -44 63 -44 116 0 21 68 310 151 643 137 549
154 606 173 609 11 3 94 14 184 26 795 105 1618 408 2277 838 588 383 1021
842 1270 1347 282 570 297 1152 45 1670 -355 726 -1236 1265 -2305 1410 -66 9
-130 18 -141 20 -21 5 -17 22 124 586 140 561 147 584 186 643 48 71 118 127
187 150 132 42 437 65 964 72 226 3 424 10 442 15 66 21 86 59 138 271 l49
195 -25 48 c-13 27 -37 58 -52 69 -35 26 -29 26 -702 6 -616 -18 -2281 -19
-2860 -2 -214 7 -469 14 -565 17 -163 5 -177 4 -212 -15z m932 -2575 c0 -15
-1064 -4261 -1069 -4267 -9 -10 -157 16 -298 52 -459 119 -799 360 -953 675
-88 179 -120 341 -120 600 0 199 17 354 65 590 122 599 316 1072 588 1429 331
435 891 753 1557 886 204 41 230 44 230 35z m1379 -21 c393 -79 672 -211 893
-422 172 -164 264 -339 315 -597 26 -135 24 -461 -6 -655 -75 -497 -243 -1020
-437 -1363 -191 -337 -402 -562 -719 -770 -331 -216 -772 -377 -1211 -441
l-41 -6 535 2140 c294 1177 537 2140 539 2140 3 0 62 -11 132 -26z"/>
</g>
</svg>
