<?xml version="1.0" standalone="no"?>
<!DOCTYPE svg PUBLIC "-//W3C//DTD SVG 20010904//EN"
 "http://www.w3.org/TR/2001/REC-SVG-20010904/DTD/svg10.dtd">
<svg version="1.0" xmlns="http://www.w3.org/2000/svg"
 width="857.000000pt" height="977.000000pt" viewBox="0 0 857.000000 977.000000"
 preserveAspectRatio="xMidYMid meet">
<metadata>
Created by potrace 1.16, written by Peter Selinger 2001-2019
</metadata>
<g transform="translate(0.000000,977.000000) scale(0.100000,-0.100000)"
fill="#000000" stroke="none">
<path d="M2145 9763 c-93 -8 -268 -47 -380 -85 -225 -75 -481 -218 -691 -388
-113 -91 -336 -317 -433 -440 -272 -343 -490 -760 -605 -1161 -41 -141 -44
-181 -16 -226 29 -48 68 -55 275 -51 176 3 181 4 227 31 62 36 79 63 118 185
136 430 508 791 967 941 371 121 801 77 1087 -110 278 -183 439 -492 513 -984
25 -167 25 -736 0 -970 -51 -471 -168 -1113 -290 -1590 -19 -71 -250 -996
-516 -2055 -294 -1174 -491 -1945 -506 -1976 -30 -61 -118 -148 -177 -174
-127 -56 -560 -89 -1153 -90 -300 0 -319 -3 -361 -67 -24 -36 -104 -343 -104
-400 0 -54 30 -104 78 -131 l41 -23 278 10 c153 6 635 16 1070 23 818 12 1885
3 2654 -23 l327 -11 40 22 c22 12 49 39 60 59 11 20 38 113 61 208 46 190 47
223 3 275 -46 55 -66 58 -354 58 -574 1 -1016 35 -1094 86 -27 18 -44 63 -44
116 0 21 216 901 479 1956 263 1054 482 1934 485 1955 12 64 144 552 212 782
365 1223 782 2045 1290 2547 188 185 334 292 538 395 327 164 737 223 1031
148 297 -76 506 -270 595 -550 31 -97 39 -297 16 -416 -21 -110 -20 -137 4
-176 29 -48 68 -55 275 -51 176 3 181 4 227 31 61 36 85 70 107 159 62 243 91
564 73 805 -47 608 -303 1044 -735 1248 -281 133 -673 151 -1102 49 -314 -75
-650 -235 -930 -442 -439 -326 -839 -799 -1209 -1432 -130 -222 -351 -665
-466 -937 -52 -122 -96 -220 -98 -219 -1 2 2 52 7 112 23 246 32 610 21 846
-34 734 -190 1246 -490 1613 -281 343 -729 531 -1249 523 -64 -1 -134 -3 -156
-5z"/>
</g>
</svg>
