<?xml version="1.0" standalone="no"?>
<!DOCTYPE svg PUBLIC "-//W3C//DTD SVG 20010904//EN"
 "http://www.w3.org/TR/2001/REC-SVG-20010904/DTD/svg10.dtd">
<svg version="1.0" xmlns="http://www.w3.org/2000/svg"
 width="651.000000pt" height="954.000000pt" viewBox="0 0 651.000000 954.000000"
 preserveAspectRatio="xMidYMid meet">
<metadata>
Created by potrace 1.16, written by Peter Selinger 2001-2019
</metadata>
<g transform="translate(0.000000,954.000000) scale(0.100000,-0.100000)"
fill="#000000" stroke="none">
<path d="M4105 9529 c-460 -56 -924 -263 -1340 -597 -217 -175 -490 -462 -682
-717 -233 -311 -474 -738 -638 -1130 -128 -306 -262 -744 -300 -975 -23 -144
-20 -396 6 -523 62 -307 225 -511 473 -594 75 -25 93 -27 241 -27 140 1 172 4
255 27 232 63 430 177 627 361 345 322 645 881 800 1491 33 131 36 151 37 305
1 125 -3 185 -17 250 -44 208 -159 473 -220 510 -38 23 -97 26 -135 6 -43 -22
-155 -115 -174 -144 -30 -46 -23 -101 26 -199 78 -158 107 -277 107 -442 0
-109 -16 -199 -66 -370 -212 -723 -615 -1259 -1029 -1366 -89 -22 -205 -30
-263 -16 -241 58 -242 525 -4 1249 157 476 407 984 661 1342 428 603 928 989
1439 1111 469 112 865 25 1142 -252 335 -336 445 -856 338 -1604 -41 -292
-161 -820 -235 -1040 -81 -244 -219 -519 -376 -754 -174 -261 -319 -433 -587
-702 -418 -417 -848 -741 -1451 -1094 -522 -305 -869 -566 -1253 -944 -469
-461 -836 -966 -1118 -1536 -150 -306 -270 -615 -344 -895 -30 -115 -31 -155
-5 -198 32 -53 69 -62 242 -62 213 0 226 8 273 185 82 307 222 574 378 722
121 115 223 151 392 138 339 -26 560 -121 1065 -460 382 -256 463 -306 616
-383 434 -217 846 -258 1264 -127 193 61 440 202 625 357 501 420 931 1165
1159 2006 42 153 39 191 -15 236 -42 36 -56 38 -232 34 -214 -4 -200 9 -287
-263 -110 -346 -301 -658 -559 -916 -186 -186 -343 -295 -539 -373 -192 -77
-369 -98 -657 -77 -301 22 -545 63 -1165 197 -619 134 -915 176 -1257 178
-137 1 -209 4 -205 11 22 39 114 170 189 271 331 443 753 854 1218 1184 166
117 318 212 630 390 1283 733 1913 1173 2431 1701 291 298 470 540 626 854
136 271 214 549 270 955 20 146 17 635 -4 777 -73 482 -251 897 -521 1220
-310 369 -764 618 -1272 699 -121 19 -468 27 -580 13z"/>
</g>
</svg>
