<?xml version="1.0" standalone="no"?>
<!DOCTYPE svg PUBLIC "-//W3C//DTD SVG 20010904//EN"
 "http://www.w3.org/TR/2001/REC-SVG-20010904/DTD/svg10.dtd">
<svg version="1.0" xmlns="http://www.w3.org/2000/svg"
 width="911.000000pt" height="977.000000pt" viewBox="0 0 911.000000 977.000000"
 preserveAspectRatio="xMidYMid meet">
<metadata>
Created by potrace 1.16, written by Peter Selinger 2001-2019
</metadata>
<g transform="translate(0.000000,977.000000) scale(0.100000,-0.100000)"
fill="#000000" stroke="none">
<path d="M419 9749 c-20 -11 -44 -35 -54 -52 -23 -39 -74 -240 -75 -292 0 -55
29 -105 76 -132 37 -21 50 -23 244 -23 341 0 659 -25 782 -60 20 -6 47 -19 60
-29 21 -18 23 -26 22 -123 -1 -102 -8 -131 -692 -2863 -380 -1518 -702 -2819
-716 -2891 -78 -400 -87 -831 -25 -1194 79 -468 271 -894 557 -1238 333 -402
825 -687 1372 -796 217 -43 295 -50 550 -51 247 0 295 5 510 46 1251 242 2463
1352 3030 2774 110 276 162 473 811 3068 415 1660 661 2628 681 2676 132 318
371 518 739 616 134 35 277 54 474 61 243 9 255 18 306 218 16 61 29 129 29
151 0 55 -29 106 -78 133 -40 22 -41 22 -244 12 -763 -38 -1613 -38 -2434 1
l-251 12 -40 -23 c-53 -29 -71 -62 -104 -194 -34 -130 -36 -179 -10 -226 34
-64 70 -76 259 -83 347 -14 552 -72 694 -197 91 -79 136 -223 125 -391 -5 -69
-145 -640 -647 -2651 -353 -1410 -659 -2626 -681 -2703 -109 -376 -289 -781
-497 -1115 -564 -906 -1405 -1510 -2292 -1647 -155 -23 -468 -24 -595 0 -221
40 -437 130 -595 248 -573 425 -722 1209 -454 2389 59 260 1412 5661 1433
5723 43 124 126 229 207 263 111 47 365 73 774 80 421 8 406 1 461 218 16 61
29 129 29 151 0 55 -29 106 -78 133 -40 22 -40 22 -279 13 -521 -22 -1312 -33
-1873 -27 -516 6 -723 11 -1305 31 -162 6 -172 5 -206 -16z"/>
</g>
</svg>
