<?xml version="1.0" standalone="no"?>
<!DOCTYPE svg PUBLIC "-//W3C//DTD SVG 20010904//EN"
 "http://www.w3.org/TR/2001/REC-SVG-20010904/DTD/svg10.dtd">
<svg version="1.0" xmlns="http://www.w3.org/2000/svg"
 width="857.000000pt" height="977.000000pt" viewBox="0 0 857.000000 977.000000"
 preserveAspectRatio="xMidYMid meet">
<metadata>
Created by potrace 1.16, written by Peter Selinger 2001-2019
</metadata>
<g transform="translate(0.000000,977.000000) scale(0.100000,-0.100000)"
fill="#000000" stroke="none">
<path d="M2072 9759 c-323 -38 -682 -200 -987 -446 -113 -91 -311 -289 -410
-408 -275 -333 -513 -784 -635 -1200 -45 -155 -49 -196 -20 -242 27 -46 72
-56 226 -52 119 4 132 6 176 32 62 36 80 63 117 184 68 222 196 428 376 608
130 130 257 223 415 304 226 116 388 159 625 168 516 18 888 -180 1099 -586
94 -181 153 -386 193 -671 24 -176 24 -712 0 -960 -36 -355 -106 -792 -193
-1195 -55 -252 -3 -41 -602 -2434 -532 -2120 -509 -2040 -607 -2149 -60 -67
-116 -98 -217 -121 -183 -43 -416 -60 -913 -67 -373 -6 -402 -8 -436 -26 -20
-11 -44 -34 -54 -50 -23 -40 -74 -241 -75 -293 0 -55 29 -106 77 -133 l41 -22
298 10 c1108 38 2399 38 3581 -1 l351 -11 40 22 c21 12 47 36 57 52 23 40 74
241 75 293 0 54 -29 105 -74 131 -35 20 -55 21 -434 27 -401 7 -578 16 -753
42 -212 31 -245 59 -243 205 1 77 45 261 482 2010 264 1059 500 2002 523 2095
153 622 404 1369 622 1857 547 1220 1227 1873 2049 1968 157 19 368 8 489 -23
332 -86 557 -314 635 -642 22 -93 22 -303 0 -403 -21 -95 -20 -130 4 -169 27
-46 72 -56 226 -52 119 4 132 6 176 32 62 36 85 70 108 163 49 192 80 444 80
654 0 745 -317 1283 -856 1453 -303 96 -762 66 -1172 -75 -393 -135 -729 -351
-1081 -693 -524 -511 -969 -1209 -1364 -2141 -46 -109 -87 -206 -91 -214 -7
-16 -3 48 16 280 15 195 15 772 0 935 -71 736 -256 1213 -600 1548 -191 184
-413 303 -691 368 -185 43 -463 60 -649 38z"/>
</g>
</svg>
