<?xml version="1.0" standalone="no"?>
<!DOCTYPE svg PUBLIC "-//W3C//DTD SVG 20010904//EN"
 "http://www.w3.org/TR/2001/REC-SVG-20010904/DTD/svg10.dtd">
<svg version="1.0" xmlns="http://www.w3.org/2000/svg"
 width="538.000000pt" height="596.000000pt" viewBox="0 0 538.000000 596.000000"
 preserveAspectRatio="xMidYMid meet">
<metadata>
Created by potrace 1.16, written by Peter Selinger 2001-2019
</metadata>
<g transform="translate(0.000000,596.000000) scale(0.100000,-0.100000)"
fill="#000000" stroke="none">
<path d="M3313 5945 c-89 -25 -175 -75 -246 -143 -122 -119 -102 -35 -313
-1297 -102 -610 -186 -1110 -187 -1111 -1 -1 -283 274 -627 612 -689 677 -661
654 -789 654 -298 0 -588 -348 -509 -611 24 -83 43 -96 858 -590 429 -260 780
-476 780 -479 0 -3 -464 -220 -1030 -484 -956 -445 -1034 -483 -1089 -532
-107 -97 -161 -213 -161 -345 0 -178 115 -304 289 -317 139 -10 109 -27 1136
651 512 338 931 613 932 612 2 0 -162 -495 -363 -1098 -212 -636 -368 -1119
-371 -1150 -8 -80 18 -158 73 -217 146 -156 431 -124 617 69 40 41 78 92 93
125 21 46 58 252 210 1163 102 609 186 1108 187 1109 1 1 283 -274 627 -612
689 -677 661 -654 789 -654 298 0 588 348 509 611 -24 83 -43 96 -858 590
-429 260 -780 476 -780 479 0 3 464 220 1030 484 956 445 1034 483 1089 532
107 97 161 213 161 345 0 178 -115 304 -289 317 -139 10 -109 27 -1136 -651
-511 -338 -932 -613 -934 -611 -1 1 164 504 368 1116 243 730 371 1127 371
1154 0 112 -71 220 -173 264 -66 29 -191 36 -264 15z"/>
</g>
</svg>
