<?xml version="1.0" standalone="no"?>
<!DOCTYPE svg PUBLIC "-//W3C//DTD SVG 20010904//EN"
 "http://www.w3.org/TR/2001/REC-SVG-20010904/DTD/svg10.dtd">
<svg version="1.0" xmlns="http://www.w3.org/2000/svg"
 width="475.000000pt" height="602.000000pt" viewBox="0 0 475.000000 602.000000"
 preserveAspectRatio="xMidYMid meet">
<metadata>
Created by potrace 1.16, written by Peter Selinger 2001-2019
</metadata>
<g transform="translate(0.000000,602.000000) scale(0.100000,-0.100000)"
fill="#000000" stroke="none">
<path d="M3080 6009 c-713 -77 -1440 -441 -2001 -999 -473 -471 -790 -1019
-944 -1630 -219 -871 -172 -1681 135 -2318 256 -531 673 -883 1198 -1011 169
-41 322 -55 537 -48 755 25 1495 301 2105 785 211 168 588 581 621 680 20 60
4 97 -79 184 -90 94 -120 112 -174 105 -48 -6 -64 -20 -141 -122 -134 -177
-365 -420 -532 -561 -408 -344 -926 -594 -1425 -689 -117 -22 -338 -45 -437
-45 -247 0 -429 69 -594 227 -348 333 -471 935 -358 1758 22 164 89 512 140
726 l32 136 386 6 c410 7 640 18 891 43 731 71 1258 233 1625 501 44 32 128
105 186 163 165 164 276 346 347 570 58 183 67 241 66 420 -1 145 -4 177 -27
262 -53 199 -151 364 -303 506 -183 173 -418 286 -704 338 -102 19 -426 27
-550 13z m475 -359 c216 -56 386 -186 484 -370 156 -294 102 -732 -129 -1038
-289 -384 -844 -601 -1735 -677 -208 -17 -600 -35 -793 -35 -122 0 -133 1
-128 18 3 9 28 93 56 187 130 431 313 815 521 1090 351 466 838 778 1314 844
109 15 316 6 410 -19z"/>
</g>
</svg>
