<?xml version="1.0" standalone="no"?>
<!DOCTYPE svg PUBLIC "-//W3C//DTD SVG 20010904//EN"
 "http://www.w3.org/TR/2001/REC-SVG-20010904/DTD/svg10.dtd">
<svg version="1.0" xmlns="http://www.w3.org/2000/svg"
 width="331.000000pt" height="865.000000pt" viewBox="0 0 331.000000 865.000000"
 preserveAspectRatio="xMidYMid meet">
<metadata>
Created by potrace 1.16, written by Peter Selinger 2001-2019
</metadata>
<g transform="translate(0.000000,865.000000) scale(0.100000,-0.100000)"
fill="#000000" stroke="none">
<path d="M2487 8640 c-323 -55 -641 -294 -787 -593 -215 -442 -62 -885 355
-1024 71 -24 96 -27 220 -27 165 -1 253 18 403 89 127 60 221 126 317 220 297
294 388 700 227 1010 -124 240 -432 375 -735 325z"/>
<path d="M1399 4340 c-278 -47 -533 -210 -689 -440 -62 -92 -127 -234 -156
-345 -34 -125 -38 -292 -11 -395 59 -224 219 -385 442 -445 136 -36 355 -29
497 15 40 12 58 14 55 7 -2 -7 -17 -55 -32 -107 -63 -216 -202 -552 -317 -770
-256 -482 -548 -872 -964 -1286 -231 -230 -241 -244 -211 -315 24 -56 155
-223 190 -242 43 -23 85 -21 129 6 93 57 437 406 641 651 483 580 853 1261
1043 1923 264 919 201 1499 -184 1692 -106 53 -291 75 -433 51z"/>
</g>
</svg>
