<?xml version="1.0" standalone="no"?>
<!DOCTYPE svg PUBLIC "-//W3C//DTD SVG 20010904//EN"
 "http://www.w3.org/TR/2001/REC-SVG-20010904/DTD/svg10.dtd">
<svg version="1.0" xmlns="http://www.w3.org/2000/svg"
 width="172.000000pt" height="166.000000pt" viewBox="0 0 172.000000 166.000000"
 preserveAspectRatio="xMidYMid meet">
<metadata>
Created by potrace 1.16, written by Peter Selinger 2001-2019
</metadata>
<g transform="translate(0.000000,166.000000) scale(0.100000,-0.100000)"
fill="#000000" stroke="none">
<path d="M860 1645 c-395 -79 -729 -394 -831 -783 -27 -101 -30 -270 -6 -362
83 -321 360 -515 707 -497 136 7 239 35 375 102 131 64 214 126 316 232 183
192 280 414 282 648 1 132 -16 205 -74 324 -107 218 -344 353 -616 350 -48 0
-117 -7 -153 -14z"/>
</g>
</svg>
