<?xml version="1.0" standalone="no"?>
<!DOCTYPE svg PUBLIC "-//W3C//DTD SVG 20010904//EN"
 "http://www.w3.org/TR/2001/REC-SVG-20010904/DTD/svg10.dtd">
<svg version="1.0" xmlns="http://www.w3.org/2000/svg"
 width="1064.000000pt" height="908.000000pt" viewBox="0 0 1064.000000 908.000000"
 preserveAspectRatio="xMidYMid meet">
<metadata>
Created by potrace 1.16, written by Peter Selinger 2001-2019
</metadata>
<g transform="translate(0.000000,908.000000) scale(0.100000,-0.100000)"
fill="#000000" stroke="none">
<path d="M2282 9064 c-49 -25 -70 -62 -98 -172 -30 -114 -28 -154 13 -202 47
-56 64 -60 275 -60 343 0 620 -24 738 -63 85 -29 93 -43 86 -167 -4 -84 -111
-520 -935 -3818 -512 -2048 -945 -3758 -961 -3800 -58 -151 -128 -225 -246
-262 -140 -43 -449 -70 -805 -70 -187 0 -198 -1 -229 -22 -51 -35 -67 -65 -95
-170 -29 -111 -27 -152 12 -199 50 -59 58 -60 315 -49 128 5 505 15 838 21
622 12 1419 3 2036 -22 251 -11 274 -10 308 6 52 25 73 60 102 173 30 114 28
154 -13 202 -47 56 -64 60 -275 60 -343 0 -620 24 -738 63 -85 29 -93 43 -86
167 4 82 46 262 319 1353 173 692 316 1259 318 1261 2 2 408 339 903 750 494
411 900 745 903 742 3 -2 327 -863 720 -1913 665 -1774 716 -1913 720 -1984
14 -212 -122 -361 -379 -415 -38 -8 -147 -18 -242 -22 -231 -10 -239 -15 -283
-189 -28 -109 -26 -156 6 -201 42 -60 63 -64 328 -52 442 18 1336 32 1673 25
302 -5 468 -12 860 -31 120 -6 126 -5 159 17 53 37 70 68 97 174 29 112 26
149 -13 195 -43 52 -63 57 -263 63 -414 13 -541 76 -693 342 -59 103 -1794
4733 -1780 4752 17 26 2550 2125 2578 2137 17 8 68 45 115 83 289 236 605 447
880 587 334 170 710 276 976 276 102 0 147 41 180 167 31 113 31 170 1 214
-40 61 -76 71 -213 59 -309 -25 -745 -32 -1310 -21 -311 6 -682 16 -824 22
-288 13 -298 11 -349 -46 -33 -38 -75 -174 -75 -247 -1 -84 68 -148 163 -148
126 -1 263 -49 316 -111 37 -45 47 -74 47 -144 0 -119 -65 -237 -224 -404 -76
-80 -684 -591 -2457 -2067 -1296 -1079 -2357 -1961 -2358 -1960 -7 5 1080
4315 1101 4366 59 143 128 214 242 250 140 43 449 70 805 70 187 0 198 1 229
23 51 34 67 64 95 169 29 111 27 152 -12 199 -50 59 -58 60 -320 49 -884 -37
-1889 -35 -2993 5 -133 5 -160 4 -188 -11z"/>
</g>
</svg>
