<?xml version="1.0" standalone="no"?>
<!DOCTYPE svg PUBLIC "-//W3C//DTD SVG 20010904//EN"
 "http://www.w3.org/TR/2001/REC-SVG-20010904/DTD/svg10.dtd">
<svg version="1.0" xmlns="http://www.w3.org/2000/svg"
 width="709.000000pt" height="880.000000pt" viewBox="0 0 709.000000 880.000000"
 preserveAspectRatio="xMidYMid meet">
<metadata>
Created by potrace 1.16, written by Peter Selinger 2001-2019
</metadata>
<g transform="translate(0.000000,880.000000) scale(0.100000,-0.100000)"
fill="#000000" stroke="none">
<path d="M2303 8785 c-413 -75 -741 -406 -996 -1005 -99 -234 -190 -513 -292
-900 -63 -241 -64 -259 -5 -315 l31 -30 222 -3 c208 -2 224 -1 255 18 18 11
39 35 47 52 8 18 46 156 85 306 211 821 398 1220 630 1347 49 26 65 30 140 30
72 0 93 -4 135 -25 59 -30 107 -96 130 -175 39 -131 36 -364 -6 -615 -31 -187
-1633 -6587 -1667 -6663 -66 -144 -154 -172 -577 -183 -121 -3 -234 -10 -252
-15 -66 -21 -86 -59 -138 -271 l-49 -195 25 -48 c13 -27 37 -58 52 -69 33 -24
60 -24 442 -6 560 27 1463 22 2201 -11 239 -11 254 -11 290 7 21 11 48 33 60
51 25 38 104 345 104 405 0 55 -29 102 -77 126 -34 17 -70 20 -333 25 -390 8
-582 29 -622 69 -41 41 -33 78 267 1280 157 629 289 1151 293 1161 6 14 20 1
72 -69 197 -261 465 -433 783 -501 123 -27 422 -24 577 5 567 106 1109 411
1596 897 371 370 650 762 883 1240 485 992 601 2078 309 2880 -236 647 -682
1054 -1299 1186 -87 19 -136 23 -304 23 -172 0 -215 -3 -305 -22 -420 -91
-827 -325 -1205 -694 l-122 -118 -18 47 c-36 98 -129 264 -191 341 -190 238
-461 388 -789 437 -120 18 -283 18 -382 0z m3071 -510 c221 -47 386 -202 489
-461 56 -140 77 -261 84 -475 12 -388 -47 -746 -266 -1624 -197 -788 -290
-1088 -452 -1452 -272 -615 -710 -1064 -1157 -1185 -104 -28 -307 -30 -402 -4
-319 88 -559 422 -663 921 -48 230 -81 58 316 1647 l354 1418 44 67 c305 474
698 866 1038 1037 211 107 441 148 615 111z"/>
</g>
</svg>
