<?xml version="1.0" standalone="no"?>
<!DOCTYPE svg PUBLIC "-//W3C//DTD SVG 20010904//EN"
 "http://www.w3.org/TR/2001/REC-SVG-20010904/DTD/svg10.dtd">
<svg version="1.0" xmlns="http://www.w3.org/2000/svg"
 width="930.000000pt" height="1071.000000pt" viewBox="0 0 930.000000 1071.000000"
 preserveAspectRatio="xMidYMid meet">
<metadata>
Created by potrace 1.16, written by Peter Selinger 2001-2019
</metadata>
<g transform="translate(0.000000,1071.000000) scale(0.100000,-0.100000)"
fill="#000000" stroke="none">
<path d="M9018 10695 c-15 -8 -275 -303 -578 -655 l-552 -640 -76 71 c-344
318 -823 561 -1307 662 -232 49 -360 61 -645 61 -284 0 -423 -12 -675 -60
-591 -113 -1208 -374 -1790 -759 -674 -445 -1337 -1113 -1831 -1845 -736
-1089 -1164 -2405 -1164 -3575 0 -880 249 -1706 690 -2285 34 -45 59 -86 57
-93 -3 -7 -258 -304 -567 -662 -393 -456 -564 -661 -572 -686 -18 -61 5 -114
76 -171 64 -51 104 -64 163 -53 48 8 25 -17 655 716 l504 586 80 -70 c195
-171 385 -297 619 -412 312 -153 574 -232 935 -282 157 -21 601 -24 765 -5
882 103 1738 480 2543 1120 370 293 756 682 1071 1076 1280 1605 1787 3748
1265 5349 -117 356 -305 725 -501 979 l-45 59 49 57 c26 31 277 322 557 647
280 324 517 604 527 620 25 40 25 111 -1 153 -11 18 -48 50 -82 72 -67 44
-120 52 -170 25z m-3027 -845 c419 -43 787 -196 1102 -461 115 -95 253 -248
337 -369 l58 -85 -2929 -3400 c-1610 -1870 -2932 -3400 -2936 -3400 -13 0 -90
232 -127 385 -76 307 -101 578 -93 980 11 532 87 1027 277 1795 280 1135 617
1970 1073 2655 406 611 903 1100 1457 1432 453 273 912 429 1375 471 91 8 310
6 406 -3z m1737 -1432 c220 -666 217 -1489 -9 -2563 -151 -712 -355 -1412
-567 -1940 -462 -1149 -1127 -1997 -1999 -2548 -140 -88 -495 -264 -649 -320
-215 -80 -438 -136 -669 -169 -136 -19 -505 -16 -641 5 -544 86 -990 352
-1308 778 -42 56 -76 104 -76 108 0 10 5851 6801 5860 6801 4 0 30 -69 58
-152z"/>
</g>
</svg>
