<?xml version="1.0" standalone="no"?>
<!DOCTYPE svg PUBLIC "-//W3C//DTD SVG 20010904//EN"
 "http://www.w3.org/TR/2001/REC-SVG-20010904/DTD/svg10.dtd">
<svg version="1.0" xmlns="http://www.w3.org/2000/svg"
 width="484.000000pt" height="425.000000pt" viewBox="0 0 484.000000 425.000000"
 preserveAspectRatio="xMidYMid meet">
<metadata>
Created by potrace 1.16, written by Peter Selinger 2001-2019
</metadata>
<g transform="translate(0.000000,425.000000) scale(0.100000,-0.100000)"
fill="#000000" stroke="none">
<path d="M1950 4239 c-33 -14 -230 -174 -375 -306 -706 -645 -1212 -1438
-1450 -2273 -88 -309 -119 -506 -118 -755 0 -194 16 -304 64 -441 79 -225 211
-364 412 -431 75 -25 95 -27 232 -27 134 1 160 4 240 28 285 86 491 265 621
540 65 139 88 237 88 381 -1 102 -5 132 -27 201 -51 155 -148 267 -292 335
-232 110 -547 86 -795 -61 -57 -34 -80 -44 -76 -32 2 9 18 69 35 132 223 849
798 1699 1565 2312 107 86 136 123 136 176 0 40 -10 60 -68 135 -68 89 -122
114 -192 86z"/>
<path d="M4570 4239 c-33 -14 -230 -174 -375 -306 -706 -645 -1212 -1438
-1450 -2273 -88 -309 -119 -506 -118 -755 0 -194 16 -304 64 -441 79 -225 211
-364 412 -431 75 -25 95 -27 232 -27 134 1 160 4 240 28 285 86 491 265 621
540 65 139 88 237 88 381 -1 102 -5 132 -27 201 -51 155 -148 267 -292 335
-232 110 -547 86 -795 -61 -57 -34 -80 -44 -76 -32 2 9 18 69 35 132 223 849
798 1699 1565 2312 107 86 136 123 136 176 0 40 -10 60 -68 135 -68 89 -122
114 -192 86z"/>
</g>
</svg>
