<?xml version="1.0" standalone="no"?>
<!DOCTYPE svg PUBLIC "-//W3C//DTD SVG 20010904//EN"
 "http://www.w3.org/TR/2001/REC-SVG-20010904/DTD/svg10.dtd">
<svg version="1.0" xmlns="http://www.w3.org/2000/svg"
 width="639.000000pt" height="954.000000pt" viewBox="0 0 639.000000 954.000000"
 preserveAspectRatio="xMidYMid meet">
<metadata>
Created by potrace 1.16, written by Peter Selinger 2001-2019
</metadata>
<g transform="translate(0.000000,954.000000) scale(0.100000,-0.100000)"
fill="#000000" stroke="none">
<path d="M2463 9525 c-18 -8 -41 -28 -52 -45 -11 -19 -261 -1001 -601 -2361
-457 -1826 -581 -2336 -576 -2363 8 -44 50 -95 93 -112 40 -17 226 -19 272 -3
18 7 51 35 77 68 490 604 1055 937 1703 1001 322 32 500 -17 667 -184 203
-203 304 -511 304 -924 0 -355 -60 -715 -241 -1432 -172 -686 -271 -978 -455
-1340 -358 -705 -927 -1186 -1564 -1321 -142 -30 -398 -33 -545 -5 -250 47
-448 149 -620 321 -237 236 -372 569 -401 985 l-6 95 93 2 c281 5 547 171 678
423 117 223 125 468 22 629 -183 284 -631 309 -953 52 -180 -142 -266 -324
-329 -691 -30 -177 -38 -554 -15 -730 117 -894 698 -1490 1541 -1581 143 -15
420 -6 592 20 1056 160 2097 909 2712 1955 77 130 211 403 269 546 253 625
350 1344 256 1905 -146 884 -650 1483 -1389 1653 -149 34 -284 45 -475 39
-536 -19 -1035 -201 -1495 -546 -44 -33 -81 -59 -82 -58 -2 2 638 2570 642
2575 1 1 28 -7 61 -18 360 -125 863 -170 1290 -115 763 96 1531 453 2154 1001
170 149 246 233 259 284 6 25 16 61 21 81 25 91 -1 168 -65 195 -52 21 -73 18
-186 -32 -449 -196 -915 -322 -1414 -380 -209 -25 -654 -25 -855 -1 -428 52
-750 148 -1110 329 -107 54 -206 98 -220 98 -14 -1 -40 -7 -57 -15z"/>
</g>
</svg>
