<?xml version="1.0" standalone="no"?>
<!DOCTYPE svg PUBLIC "-//W3C//DTD SVG 20010904//EN"
 "http://www.w3.org/TR/2001/REC-SVG-20010904/DTD/svg10.dtd">
<svg version="1.0" xmlns="http://www.w3.org/2000/svg"
 width="394.000000pt" height="881.000000pt" viewBox="0 0 394.000000 881.000000"
 preserveAspectRatio="xMidYMid meet">
<metadata>
Created by potrace 1.16, written by Peter Selinger 2001-2019
</metadata>
<g transform="translate(0.000000,881.000000) scale(0.100000,-0.100000)"
fill="#000000" stroke="none">
<path d="M2540 8794 c-168 -45 -325 -169 -393 -312 -27 -55 -97 -321 -322
-1221 l-287 -1151 -680 0 c-740 0 -720 2 -769 -58 -27 -31 -89 -250 -89 -313
0 -45 36 -103 80 -128 37 -21 44 -21 681 -21 l644 0 -497 -1992 c-274 -1096
-505 -2033 -514 -2083 -23 -124 -24 -389 -1 -511 95 -520 430 -869 939 -981
117 -25 408 -25 528 1 571 122 1078 540 1501 1238 107 176 270 505 348 702 71
181 73 203 16 264 l-33 37 -170 3 c-184 4 -215 -3 -246 -51 -8 -12 -43 -92
-77 -177 -289 -726 -664 -1251 -1056 -1481 -171 -101 -323 -144 -503 -144
-108 0 -118 2 -168 29 -58 32 -93 73 -124 143 -62 141 -64 456 -3 778 9 44
248 1013 533 2153 l517 2072 678 0 c739 0 719 -2 768 58 27 31 89 250 89 313
0 45 -36 103 -80 128 -37 21 -44 21 -679 21 -416 0 -641 3 -641 10 0 5 123
504 274 1107 151 604 277 1121 281 1149 14 105 -30 236 -105 313 -100 102
-284 147 -440 105z"/>
</g>
</svg>
