<?xml version="1.0" standalone="no"?>
<!DOCTYPE svg PUBLIC "-//W3C//DTD SVG 20010904//EN"
 "http://www.w3.org/TR/2001/REC-SVG-20010904/DTD/svg10.dtd">
<svg version="1.0" xmlns="http://www.w3.org/2000/svg"
 width="256.000000pt" height="233.000000pt" viewBox="0 0 256.000000 233.000000"
 preserveAspectRatio="xMidYMid meet">
<metadata>
Created by potrace 1.16, written by Peter Selinger 2001-2019
</metadata>
<g transform="translate(0.000000,233.000000) scale(0.100000,-0.100000)"
fill="#000000" stroke="none">
<path d="M1390 2319 c-659 -84 -1260 -618 -1375 -1220 -19 -102 -19 -296 -1
-386 124 -588 770 -866 1457 -627 248 86 453 217 650 413 300 300 441 621 426
971 -6 147 -24 223 -82 345 -107 229 -293 385 -554 465 -142 45 -355 60 -521
39z m291 -344 c219 -33 359 -129 414 -285 23 -63 30 -208 16 -315 -17 -123
-72 -334 -121 -459 -158 -405 -487 -595 -990 -573 -329 15 -508 125 -560 346
-30 129 6 399 87 640 135 406 375 603 798 654 77 10 269 5 356 -8z"/>
</g>
</svg>
