<?xml version="1.0" standalone="no"?>
<!DOCTYPE svg PUBLIC "-//W3C//DTD SVG 20010904//EN"
 "http://www.w3.org/TR/2001/REC-SVG-20010904/DTD/svg10.dtd">
<svg version="1.0" xmlns="http://www.w3.org/2000/svg"
 width="503.000000pt" height="626.000000pt" viewBox="0 0 503.000000 626.000000"
 preserveAspectRatio="xMidYMid meet">
<metadata>
Created by potrace 1.16, written by Peter Selinger 2001-2019
</metadata>
<g transform="translate(0.000000,626.000000) scale(0.100000,-0.100000)"
fill="#000000" stroke="none">
<path d="M3317 6250 c-824 -94 -1642 -564 -2283 -1311 -574 -668 -950 -1533
-1024 -2356 -16 -178 -8 -572 15 -723 151 -996 787 -1685 1695 -1835 135 -23
416 -30 595 -16 745 59 1448 329 2025 777 207 160 505 468 623 641 40 59 49
117 24 159 -24 42 -182 204 -213 219 -77 37 -120 14 -224 -117 -240 -303 -472
-521 -780 -731 -485 -331 -1033 -519 -1580 -544 -211 -9 -359 16 -509 88 -299
142 -502 429 -581 818 -87 436 -38 902 191 1811 133 530 221 809 350 1113 259
605 627 1065 1084 1352 313 197 637 281 944 246 257 -30 447 -111 597 -253 64
-61 153 -174 142 -182 -1 -2 -34 -10 -73 -20 -149 -35 -309 -132 -400 -243
-185 -225 -230 -538 -105 -733 197 -307 730 -272 1003 65 105 129 172 328 184
546 21 392 -165 751 -504 973 -186 122 -387 198 -638 242 -98 18 -451 26 -558
14z"/>
</g>
</svg>
