<?xml version="1.0" standalone="no"?>
<!DOCTYPE svg PUBLIC "-//W3C//DTD SVG 20010904//EN"
 "http://www.w3.org/TR/2001/REC-SVG-20010904/DTD/svg10.dtd">
<svg version="1.0" xmlns="http://www.w3.org/2000/svg"
 width="1350.000000pt" height="1260.000000pt" viewBox="0 0 1350.000000 1260.000000"
 preserveAspectRatio="xMidYMid meet">
<metadata>
Created by potrace 1.16, written by Peter Selinger 2001-2019
</metadata>
<g transform="translate(0.000000,1260.000000) scale(0.100000,-0.100000)"
fill="#000000" stroke="none">
<path d="M5890 12594 c-515 -47 -981 -216 -1344 -488 -287 -216 -472 -444
-646 -801 -102 -207 -170 -385 -240 -628 -85 -294 -142 -561 -336 -1574 l-58
-303 -613 0 c-670 0 -655 1 -705 -58 -37 -45 -123 -391 -108 -441 13 -45 35
-77 67 -98 25 -17 76 -18 633 -23 l606 -5 -272 -1415 c-429 -2230 -447 -2320
-684 -3425 -259 -1206 -482 -2209 -511 -2298 -65 -197 -171 -369 -278 -453
-92 -73 -176 -88 -331 -60 -76 14 -167 46 -202 71 -19 12 -17 14 26 34 67 29
188 115 238 169 102 109 165 227 204 381 68 266 -20 499 -233 614 -275 148
-692 38 -913 -242 -91 -114 -146 -248 -176 -423 -70 -420 148 -818 549 -1003
171 -79 326 -114 532 -122 116 -4 157 -2 235 15 275 58 503 194 750 448 246
253 447 560 615 939 256 577 492 1425 745 2670 66 327 790 4078 790 4095 0 7
496 10 1576 10 l1576 0 -5 -22 c-3 -13 -166 -855 -362 -1873 -416 -2161 -449
-2328 -561 -2865 -231 -1102 -416 -1786 -559 -2070 -65 -128 -182 -278 -344
-440 -151 -150 -263 -236 -396 -302 -185 -93 -344 -115 -587 -83 -135 18 -206
35 -315 76 l-81 31 87 58 c176 118 282 271 337 489 68 266 -20 499 -233 614
-275 148 -692 38 -913 -242 -138 -174 -210 -439 -180 -661 24 -182 100 -338
228 -472 155 -162 379 -282 657 -351 198 -50 303 -62 545 -61 204 0 236 2 345
26 377 82 716 249 1065 527 127 101 405 381 510 514 381 482 673 1274 974
2637 94 425 139 656 525 2660 l347 1805 1453 3 c1380 2 1452 1 1447 -15 -16
-54 -957 -3831 -970 -3896 -112 -544 86 -1088 496 -1360 207 -138 421 -204
693 -214 115 -4 157 -2 235 15 124 26 235 69 340 133 120 73 311 267 408 413
211 319 389 776 557 1434 41 160 39 185 -16 238 l-30 29 -222 3 c-207 2 -224
1 -254 -17 -18 -11 -39 -33 -46 -48 -8 -15 -44 -143 -80 -283 -188 -735 -351
-1122 -548 -1304 -85 -79 -136 -101 -234 -101 -100 0 -143 15 -194 66 -72 72
-102 193 -102 403 0 134 18 292 51 451 10 49 473 1910 1029 4134 556 2224
1011 4053 1011 4065 0 32 -36 84 -72 106 -32 19 -52 20 -466 20 -473 0 -481
-1 -518 -58 -9 -14 -63 -208 -120 -431 -74 -292 -103 -393 -103 -361 -5 212
-84 403 -229 552 -240 248 -639 395 -1192 439 -178 14 -537 6 -710 -16 -452
-57 -840 -194 -1175 -413 -461 -301 -762 -726 -974 -1374 -101 -312 -148 -515
-311 -1362 -65 -340 -121 -620 -123 -622 -2 -2 -710 -3 -1573 -2 l-1570 3 68
355 c267 1391 359 1804 484 2180 85 253 141 352 249 439 345 277 790 372 1280
271 91 -18 265 -77 265 -88 0 -4 -28 -25 -61 -46 -89 -58 -159 -125 -218 -210
-65 -95 -97 -165 -127 -285 -55 -216 -10 -409 126 -534 146 -136 351 -179 573
-123 387 98 631 426 631 846 0 138 -18 217 -78 345 -151 321 -529 543 -1056
621 -101 14 -502 27 -600 18z m4810 -514 c136 -12 266 -33 372 -60 93 -24 188
-59 188 -69 0 -4 -31 -29 -69 -55 -158 -108 -264 -266 -317 -475 -55 -216 -10
-409 126 -534 146 -136 351 -179 573 -123 225 57 414 201 524 398 19 35 33 56
30 48 -2 -8 -138 -554 -303 -1212 l-299 -1198 -1467 0 c-966 0 -1468 3 -1468
10 0 13 221 1158 261 1355 171 834 325 1332 467 1512 51 64 187 166 300 225
289 151 669 214 1082 178z m1507 -552 c-3 -8 -6 -5 -6 6 -1 11 2 17 5 13 3 -3
4 -12 1 -19z"/>
</g>
</svg>
