<?xml version="1.0" standalone="no"?>
<!DOCTYPE svg PUBLIC "-//W3C//DTD SVG 20010904//EN"
 "http://www.w3.org/TR/2001/REC-SVG-20010904/DTD/svg10.dtd">
<svg version="1.0" xmlns="http://www.w3.org/2000/svg"
 width="338.000000pt" height="78.000000pt" viewBox="0 0 338.000000 78.000000"
 preserveAspectRatio="xMidYMid meet">
<metadata>
Created by potrace 1.16, written by Peter Selinger 2001-2019
</metadata>
<g transform="translate(0.000000,78.000000) scale(0.100000,-0.100000)"
fill="#000000" stroke="none">
<path d="M205 761 c-58 -36 -65 -53 -136 -336 -60 -240 -68 -281 -59 -314 10
-37 46 -79 87 -100 16 -8 434 -11 1528 -11 1274 0 1510 2 1533 14 63 33 71 51
143 341 60 240 68 281 59 314 -10 37 -46 79 -87 100 -16 8 -435 11 -1530 11
-1451 0 -1509 -1 -1538 -19z"/>
</g>
</svg>
