<?xml version="1.0" standalone="no"?>
<!DOCTYPE svg PUBLIC "-//W3C//DTD SVG 20010904//EN"
 "http://www.w3.org/TR/2001/REC-SVG-20010904/DTD/svg10.dtd">
<svg version="1.0" xmlns="http://www.w3.org/2000/svg"
 width="876.000000pt" height="938.000000pt" viewBox="0 0 876.000000 938.000000"
 preserveAspectRatio="xMidYMid meet">
<metadata>
Created by potrace 1.16, written by Peter Selinger 2001-2019
</metadata>
<g transform="translate(0.000000,938.000000) scale(0.100000,-0.100000)"
fill="#000000" stroke="none">
<path d="M1048 9360 c-20 -11 -45 -34 -56 -52 -10 -18 -239 -695 -507 -1504
-533 -1606 -505 -1507 -448 -1575 43 -50 76 -59 229 -59 152 0 194 13 228 70
9 16 59 156 112 312 296 874 526 1384 760 1684 191 246 521 439 919 539 294
74 495 88 1185 82 564 -4 620 -9 641 -49 7 -13 9 -45 4 -87 -8 -74 -1923
-7748 -1955 -7832 -42 -112 -155 -230 -256 -268 -165 -63 -656 -101 -1307
-101 -376 0 -368 4 -428 -241 l-33 -136 25 -49 c13 -26 37 -57 52 -68 33 -24
52 -24 752 -6 1044 27 2504 22 3591 -11 356 -11 361 -11 401 10 57 28 75 65
114 222 l33 136 -25 49 c-47 93 -21 88 -512 95 -445 7 -687 19 -887 45 -195
25 -250 48 -288 119 -40 77 -79 -89 952 4034 620 2479 978 3891 998 3939 82
197 128 206 977 199 446 -3 579 -8 671 -21 354 -51 587 -152 752 -324 83 -87
109 -133 137 -244 75 -292 47 -780 -95 -1666 -27 -168 -43 -296 -39 -313 9
-39 52 -89 92 -105 22 -10 76 -14 169 -14 160 0 198 14 234 84 15 31 81 405
266 1514 l246 1473 -24 47 c-13 25 -36 55 -51 66 l-28 21 -3782 2 c-3720 2
-3783 2 -3819 -17z"/>
</g>
</svg>
