<?xml version="1.0" standalone="no"?>
<!DOCTYPE svg PUBLIC "-//W3C//DTD SVG 20010904//EN"
 "http://www.w3.org/TR/2001/REC-SVG-20010904/DTD/svg10.dtd">
<svg version="1.0" xmlns="http://www.w3.org/2000/svg"
 width="866.000000pt" height="946.000000pt" viewBox="0 0 866.000000 946.000000"
 preserveAspectRatio="xMidYMid meet">
<metadata>
Created by potrace 1.16, written by Peter Selinger 2001-2019
</metadata>
<g transform="translate(0.000000,946.000000) scale(0.100000,-0.100000)"
fill="#000000" stroke="none">
<path d="M2689 9440 c-20 -10 -44 -31 -54 -46 -9 -14 -215 -688 -456 -1498
-467 -1561 -455 -1516 -412 -1575 46 -61 62 -66 224 -69 138 -3 152 -2 188 18
48 28 71 69 106 190 44 150 149 455 211 612 334 847 814 1372 1499 1641 319
125 657 192 1105 217 124 7 536 10 1131 8 l935 -3 -3513 -4220 c-1933 -2321
-3529 -4241 -3548 -4266 -28 -37 -41 -73 -70 -190 -39 -158 -38 -184 11 -230
l26 -24 3001 -3 c2020 -2 3014 0 3037 7 82 24 45 -84 642 1838 584 1882 565
1812 521 1872 -46 61 -62 66 -224 69 -137 3 -152 2 -187 -18 -21 -12 -46 -35
-55 -50 -10 -16 -62 -169 -117 -342 -257 -811 -456 -1274 -715 -1663 -192
-289 -386 -491 -629 -654 -442 -298 -950 -448 -1661 -491 -165 -10 -2175 -15
-2175 -5 0 2 1588 1912 3529 4243 1941 2332 3535 4250 3542 4263 16 32 69 236
69 272 0 40 -26 84 -60 102 -26 13 -358 15 -2947 15 -2849 -1 -2919 -1 -2954
-20z"/>
</g>
</svg>
