<?xml version="1.0" standalone="no"?>
<!DOCTYPE svg PUBLIC "-//W3C//DTD SVG 20010904//EN"
 "http://www.w3.org/TR/2001/REC-SVG-20010904/DTD/svg10.dtd">
<svg version="1.0" xmlns="http://www.w3.org/2000/svg"
 width="971.000000pt" height="946.000000pt" viewBox="0 0 971.000000 946.000000"
 preserveAspectRatio="xMidYMid meet">
<metadata>
Created by potrace 1.16, written by Peter Selinger 2001-2019
</metadata>
<g transform="translate(0.000000,946.000000) scale(0.100000,-0.100000)"
fill="#000000" stroke="none">
<path d="M2368 9440 c-20 -11 -45 -34 -56 -52 -27 -46 -86 -290 -77 -320 5
-16 1767 -4457 1922 -4844 2 -7 -920 -897 -2049 -1979 -1129 -1082 -2065
-1985 -2080 -2008 -50 -74 -27 -172 52 -216 l38 -21 3581 0 c3872 0 3617 -4
3669 52 22 24 1139 3060 1149 3123 5 38 -31 111 -70 139 -25 19 -46 21 -177
24 -132 3 -152 1 -187 -17 -52 -26 -63 -44 -122 -203 -363 -984 -717 -1552
-1204 -1929 -293 -227 -634 -361 -1130 -444 -525 -87 -828 -97 -2871 -93
l-1588 3 2075 1989 c1278 1225 2081 2002 2091 2023 9 18 16 47 16 62 0 16
-373 969 -829 2117 l-830 2089 1437 3 c1650 3 1968 -4 2372 -54 578 -72 912
-213 1104 -464 280 -366 339 -899 210 -1895 -18 -137 -14 -172 23 -216 43 -50
76 -59 229 -59 121 0 141 2 175 22 75 42 61 -38 270 1577 l190 1474 -23 46
c-13 25 -36 54 -51 65 l-28 21 -3597 2 c-3537 2 -3598 2 -3634 -17z"/>
</g>
</svg>
