<?xml version="1.0" standalone="no"?>
<!DOCTYPE svg PUBLIC "-//W3C//DTD SVG 20010904//EN"
 "http://www.w3.org/TR/2001/REC-SVG-20010904/DTD/svg10.dtd">
<svg version="1.0" xmlns="http://www.w3.org/2000/svg"
 width="916.000000pt" height="977.000000pt" viewBox="0 0 916.000000 977.000000"
 preserveAspectRatio="xMidYMid meet">
<metadata>
Created by potrace 1.16, written by Peter Selinger 2001-2019
</metadata>
<g transform="translate(0.000000,977.000000) scale(0.100000,-0.100000)"
fill="#000000" stroke="none">
<path d="M137 9750 c-53 -29 -68 -59 -106 -218 l-34 -139 24 -49 c44 -88 44
-88 337 -96 271 -6 411 -18 523 -44 115 -26 164 -73 193 -186 9 -38 178 -1811
421 -4428 223 -2401 410 -4393 415 -4428 11 -75 39 -118 94 -143 34 -15 66
-19 193 -19 185 0 236 15 311 89 37 36 580 945 2472 4136 1334 2249 2436 4103
2450 4120 14 16 60 82 102 145 321 482 747 727 1316 756 141 8 190 24 220 73
10 16 33 92 51 169 l34 139 -24 49 c-13 26 -37 57 -52 68 -32 24 -59 24 -387
6 -487 -27 -1296 -22 -1996 11 l-241 12 -40 -22 c-22 -13 -48 -37 -58 -53 -23
-40 -74 -241 -75 -293 0 -93 70 -154 175 -155 84 0 228 -24 305 -49 77 -26
184 -96 223 -146 45 -57 70 -124 75 -200 6 -89 -14 -167 -74 -300 -54 -116
-3988 -6754 -3992 -6734 -1 8 -151 1607 -332 3554 -317 3397 -330 3542 -315
3582 27 70 88 129 179 172 162 78 331 109 641 117 116 3 224 10 242 15 60 19
87 64 121 202 18 70 32 141 32 158 0 45 -36 103 -80 128 -38 21 -43 21 -277
11 -762 -31 -1893 -36 -2513 -10 -545 23 -511 23 -553 0z"/>
</g>
</svg>
