<?xml version="1.0" standalone="no"?>
<!DOCTYPE svg PUBLIC "-//W3C//DTD SVG 20010904//EN"
 "http://www.w3.org/TR/2001/REC-SVG-20010904/DTD/svg10.dtd">
<svg version="1.0" xmlns="http://www.w3.org/2000/svg"
 width="1057.000000pt" height="904.000000pt" viewBox="0 0 1057.000000 904.000000"
 preserveAspectRatio="xMidYMid meet">
<metadata>
Created by potrace 1.16, written by Peter Selinger 2001-2019
</metadata>
<g transform="translate(0.000000,904.000000) scale(0.100000,-0.100000)"
fill="#000000" stroke="none">
<path d="M2272 9023 c-49 -24 -68 -58 -97 -173 -30 -117 -28 -153 12 -200 47
-56 64 -60 275 -60 343 0 620 -24 738 -63 85 -29 93 -43 86 -167 -4 -84 -110
-518 -930 -3798 -510 -2037 -940 -3738 -956 -3780 -58 -151 -128 -225 -246
-262 -139 -43 -449 -70 -802 -70 -211 0 -228 -4 -274 -59 -17 -19 -34 -65 -52
-136 -30 -122 -26 -162 21 -207 53 -49 56 -49 305 -38 128 5 505 15 838 21
622 12 1419 3 2036 -22 359 -15 359 -15 409 181 30 117 28 153 -12 200 -47 56
-64 60 -275 60 -343 0 -620 24 -738 63 -84 29 -92 44 -87 164 4 80 120 554
982 4002 l977 3911 1814 0 c998 0 1814 -2 1814 -5 0 -30 -1938 -7747 -1960
-7803 -58 -151 -128 -225 -246 -262 -139 -43 -449 -70 -802 -70 -211 0 -228
-4 -274 -59 -17 -19 -34 -65 -52 -136 -30 -122 -26 -162 21 -207 53 -49 56
-49 305 -38 128 5 505 15 838 21 622 12 1419 3 2036 -22 359 -15 359 -15 409
181 30 117 28 153 -12 200 -47 56 -64 60 -275 60 -343 0 -620 24 -738 63 -85
29 -93 43 -86 167 4 84 110 518 930 3798 510 2037 940 3738 956 3780 58 151
128 225 246 262 139 43 449 70 802 70 211 0 228 4 274 59 37 43 82 229 68 280
-10 37 -46 79 -87 100 -16 8 -1102 11 -4090 11 -3727 0 -4071 -2 -4101 -17z"/>
</g>
</svg>
