<?xml version="1.0" standalone="no"?>
<!DOCTYPE svg PUBLIC "-//W3C//DTD SVG 20010904//EN"
 "http://www.w3.org/TR/2001/REC-SVG-20010904/DTD/svg10.dtd">
<svg version="1.0" xmlns="http://www.w3.org/2000/svg"
 width="883.000000pt" height="938.000000pt" viewBox="0 0 883.000000 938.000000"
 preserveAspectRatio="xMidYMid meet">
<metadata>
Created by potrace 1.16, written by Peter Selinger 2001-2019
</metadata>
<g transform="translate(0.000000,938.000000) scale(0.100000,-0.100000)"
fill="#000000" stroke="none">
<path d="M2282 9363 c-49 -24 -68 -58 -97 -173 -30 -117 -28 -153 12 -200 47
-56 64 -60 275 -60 343 0 620 -24 738 -63 85 -29 93 -43 86 -167 -4 -84 -111
-520 -935 -3818 -512 -2048 -945 -3758 -961 -3800 -58 -151 -128 -225 -246
-262 -139 -43 -449 -70 -802 -70 -211 0 -228 -4 -274 -59 -17 -19 -34 -65 -52
-136 -30 -122 -26 -162 21 -207 53 -49 56 -49 305 -38 128 5 499 15 823 21
608 12 1393 3 2007 -22 363 -15 363 -15 413 181 30 117 28 153 -12 200 -47 56
-64 60 -275 60 -343 0 -620 24 -738 63 -85 29 -93 43 -86 167 4 83 60 318 453
1890 l449 1795 813 3 c667 2 830 0 910 -12 467 -70 788 -378 887 -851 26 -124
26 -430 0 -560 -9 -49 -91 -385 -181 -745 -90 -360 -172 -698 -181 -750 -23
-120 -27 -520 -6 -615 43 -195 104 -346 198 -487 275 -413 797 -641 1469 -642
197 0 216 2 310 27 343 92 657 352 905 747 142 226 303 629 304 762 1 61 -2
69 -29 99 -44 47 -82 59 -182 59 -174 0 -197 -20 -253 -212 -138 -475 -369
-851 -633 -1030 -217 -148 -503 -157 -643 -22 -122 119 -172 357 -161 764 7
239 11 285 102 1234 86 890 86 1015 -1 1304 -130 430 -435 777 -883 1006
l-115 59 141 38 c704 193 1362 556 1826 1008 393 383 621 769 714 1211 24 112
27 148 27 335 1 242 -12 336 -75 528 -157 482 -536 885 -1074 1143 -360 172
-751 270 -1220 304 -88 6 -864 10 -2090 10 -1776 0 -1953 -2 -1983 -17z m3947
-456 c346 -49 597 -131 793 -260 442 -289 562 -692 423 -1418 -114 -593 -312
-1077 -572 -1399 -287 -355 -788 -636 -1338 -748 -310 -64 -460 -72 -1320 -72
l-743 0 453 1808 c251 1002 466 1843 483 1887 61 155 115 192 317 219 17 2
336 3 710 1 559 -2 700 -5 794 -18z"/>
</g>
</svg>
