<?xml version="1.0" standalone="no"?>
<!DOCTYPE svg PUBLIC "-//W3C//DTD SVG 20010904//EN"
 "http://www.w3.org/TR/2001/REC-SVG-20010904/DTD/svg10.dtd">
<svg version="1.0" xmlns="http://www.w3.org/2000/svg"
 width="814.000000pt" height="992.000000pt" viewBox="0 0 814.000000 992.000000"
 preserveAspectRatio="xMidYMid meet">
<metadata>
Created by potrace 1.16, written by Peter Selinger 2001-2019
</metadata>
<g transform="translate(0.000000,992.000000) scale(0.100000,-0.100000)"
fill="#000000" stroke="none">
<path d="M6221 9903 c-26 -9 -66 -37 -96 -67 -46 -46 -269 -457 -2288 -4223
-1231 -2295 -2251 -4192 -2268 -4215 -16 -24 -62 -92 -101 -152 -92 -144 -248
-305 -380 -393 -213 -142 -449 -213 -752 -229 -220 -11 -224 -15 -291 -286
l-49 -195 25 -48 c13 -27 37 -58 52 -69 33 -24 63 -24 382 -6 470 27 1312 22
2026 -11 235 -11 248 -11 285 7 21 10 48 33 60 51 24 36 104 343 104 400 0 93
-71 153 -180 153 -79 0 -235 23 -310 46 -134 39 -264 133 -311 224 -20 38 -24
59 -24 145 0 96 2 104 45 208 25 59 792 1500 1705 3201 l1660 3094 3 -65 c2
-36 56 -1533 122 -3326 l119 -3262 -27 -39 c-39 -57 -109 -103 -206 -136 -170
-58 -320 -79 -616 -86 -118 -3 -229 -10 -247 -15 -66 -21 -86 -60 -137 -265
-51 -208 -51 -233 0 -293 41 -49 67 -53 320 -42 126 6 536 16 911 23 699 12
1378 4 1938 -23 227 -11 231 -11 273 10 23 12 49 32 58 46 19 30 103 356 104
403 0 50 -32 104 -78 130 -37 20 -52 22 -205 22 -305 0 -575 28 -650 67 -33
17 -65 80 -72 145 -3 23 -77 2039 -165 4478 -88 2439 -162 4454 -166 4477 -6
51 -44 100 -91 119 -49 21 -422 18 -482 -3z"/>
</g>
</svg>
