<?xml version="1.0" standalone="no"?>
<!DOCTYPE svg PUBLIC "-//W3C//DTD SVG 20010904//EN"
 "http://www.w3.org/TR/2001/REC-SVG-20010904/DTD/svg10.dtd">
<svg version="1.0" xmlns="http://www.w3.org/2000/svg"
 width="365.000000pt" height="225.000000pt" viewBox="0 0 365.000000 225.000000"
 preserveAspectRatio="xMidYMid meet">
<metadata>
Created by potrace 1.16, written by Peter Selinger 2001-2019
</metadata>
<g transform="translate(0.000000,225.000000) scale(0.100000,-0.100000)"
fill="#000000" stroke="none">
<path d="M2208 2237 c-14 -7 -510 -423 -1100 -924 -790 -671 -1079 -922 -1091
-948 -19 -40 -22 -81 -7 -120 16 -42 157 -213 189 -230 31 -16 79 -19 118 -9
13 4 422 316 910 695 489 379 891 688 895 686 3 -1 244 -303 535 -672 291
-369 544 -680 563 -693 35 -24 91 -29 134 -12 14 5 79 52 145 104 123 98 141
122 141 191 0 18 -14 55 -33 86 -29 48 -1125 1670 -1201 1778 -50 71 -130 98
-198 68z"/>
</g>
</svg>
