<?xml version="1.0" standalone="no"?>
<!DOCTYPE svg PUBLIC "-//W3C//DTD SVG 20010904//EN"
 "http://www.w3.org/TR/2001/REC-SVG-20010904/DTD/svg10.dtd">
<svg version="1.0" xmlns="http://www.w3.org/2000/svg"
 width="462.000000pt" height="886.000000pt" viewBox="0 0 462.000000 886.000000"
 preserveAspectRatio="xMidYMid meet">
<metadata>
Created by potrace 1.16, written by Peter Selinger 2001-2019
</metadata>
<g transform="translate(0.000000,886.000000) scale(0.100000,-0.100000)"
fill="#000000" stroke="none">
<path d="M4354 8841 c-35 -21 -37 -24 -188 -226 -272 -366 -562 -660 -902
-915 -454 -340 -990 -548 -1419 -550 -81 0 -144 -24 -170 -64 -20 -30 -65
-197 -65 -241 0 -43 30 -96 69 -122 30 -20 47 -23 132 -23 203 0 461 48 707
131 176 59 499 216 656 319 60 39 110 69 112 68 1 -2 -355 -1434 -792 -3183
-739 -2956 -798 -3186 -839 -3270 -51 -106 -116 -177 -193 -212 -141 -65 -528
-103 -1073 -103 -228 0 -237 -1 -269 -22 -52 -36 -69 -67 -96 -173 -29 -112
-26 -149 13 -195 51 -61 56 -62 343 -51 143 6 561 16 928 22 687 12 1589 3
2264 -22 282 -11 298 -10 334 7 54 27 72 57 101 170 28 110 26 157 -6 202 -40
57 -65 62 -323 62 -497 0 -856 32 -979 86 -54 24 -64 51 -63 173 l1 106 987
3945 c729 2915 986 3953 981 3977 -7 38 -46 88 -86 108 -41 22 -127 19 -165
-4z"/>
</g>
</svg>
