<?xml version="1.0" standalone="no"?>
<!DOCTYPE svg PUBLIC "-//W3C//DTD SVG 20010904//EN"
 "http://www.w3.org/TR/2001/REC-SVG-20010904/DTD/svg10.dtd">
<svg version="1.0" xmlns="http://www.w3.org/2000/svg"
 width="866.000000pt" height="946.000000pt" viewBox="0 0 866.000000 946.000000"
 preserveAspectRatio="xMidYMid meet">
<metadata>
Created by potrace 1.16, written by Peter Selinger 2001-2019
</metadata>
<g transform="translate(0.000000,946.000000) scale(0.100000,-0.100000)"
fill="#000000" stroke="none">
<path d="M2686 9437 c-21 -12 -47 -38 -57 -57 -31 -57 -909 -3033 -909 -3081
0 -54 31 -104 81 -129 34 -18 59 -20 224 -20 263 0 271 5 331 199 251 820 472
1272 806 1650 367 415 867 679 1478 780 320 53 349 54 1395 58 946 4 979 4
964 -14 -58 -67 -6871 -8297 -6889 -8321 -14 -19 -38 -93 -66 -208 -49 -196
-48 -218 2 -265 l26 -24 3001 -3 c2020 -2 3014 0 3037 7 83 24 44 -88 651
1878 370 1199 559 1823 559 1852 0 56 -30 106 -81 131 -34 18 -59 20 -226 20
-205 0 -236 -7 -275 -61 -11 -14 -64 -167 -119 -340 -268 -850 -482 -1346
-747 -1734 -186 -273 -356 -443 -612 -614 -363 -242 -769 -381 -1295 -445
-253 -31 -504 -37 -1406 -34 l-896 3 3434 4145 c1889 2280 3443 4157 3454
4172 21 29 99 313 99 361 0 40 -26 84 -60 102 -26 13 -358 15 -2947 15 l-2918
0 -39 -23z"/>
</g>
</svg>
