<?xml version="1.0" standalone="no"?>
<!DOCTYPE svg PUBLIC "-//W3C//DTD SVG 20010904//EN"
 "http://www.w3.org/TR/2001/REC-SVG-20010904/DTD/svg10.dtd">
<svg version="1.0" xmlns="http://www.w3.org/2000/svg"
 width="933.000000pt" height="942.000000pt" viewBox="0 0 933.000000 942.000000"
 preserveAspectRatio="xMidYMid meet">
<metadata>
Created by potrace 1.16, written by Peter Selinger 2001-2019
</metadata>
<g transform="translate(0.000000,942.000000) scale(0.100000,-0.100000)"
fill="#000000" stroke="none">
<path d="M2375 9406 c-57 -25 -80 -65 -114 -200 -17 -69 -31 -140 -31 -157 0
-45 36 -103 80 -128 35 -19 53 -21 241 -21 339 0 658 -25 781 -60 20 -6 47
-19 60 -29 21 -18 23 -26 22 -123 -1 -102 -8 -131 -966 -3958 -1055 -4218
-986 -3959 -1087 -4060 -103 -103 -295 -135 -866 -147 -356 -6 -373 -10 -413
-75 -11 -18 -34 -91 -51 -163 -34 -142 -32 -175 11 -230 42 -53 63 -56 336
-45 923 38 2140 38 3294 -1 373 -12 387 -11 436 45 22 26 36 62 60 159 18 70
32 140 32 157 0 48 -33 103 -76 126 -37 21 -56 22 -429 27 -394 6 -581 16
-756 42 -214 31 -245 58 -242 210 1 82 39 240 450 1880 l449 1790 710 0 c613
-1 725 -3 830 -18 361 -51 516 -157 555 -382 16 -94 6 -339 -21 -492 -12 -68
-42 -207 -67 -310 -59 -246 -61 -270 -33 -321 39 -69 76 -82 234 -82 93 0 147
4 169 14 77 32 48 -71 523 1828 l438 1754 -25 49 c-41 83 -57 89 -229 93 -132
3 -152 1 -187 -17 -22 -11 -48 -32 -58 -47 -9 -15 -39 -110 -66 -213 -26 -102
-63 -235 -82 -296 -229 -738 -514 -974 -1235 -1024 -152 -11 -1322 -16 -1322
-6 0 3 205 825 456 1827 284 1136 467 1850 486 1896 57 138 113 173 316 193
141 14 2108 6 2252 -10 397 -43 630 -105 822 -218 96 -56 231 -181 284 -260
120 -181 174 -448 175 -859 0 -288 -15 -479 -72 -939 -17 -132 -27 -254 -24
-272 7 -41 50 -92 92 -109 22 -10 76 -14 169 -14 121 0 141 2 175 22 75 42 61
-38 270 1577 l190 1474 -23 46 c-13 25 -36 54 -51 65 l-28 21 -3407 2 c-2817
2 -3412 0 -3437 -11z"/>
</g>
</svg>
