<?xml version="1.0" standalone="no"?>
<!DOCTYPE svg PUBLIC "-//W3C//DTD SVG 20010904//EN"
 "http://www.w3.org/TR/2001/REC-SVG-20010904/DTD/svg10.dtd">
<svg version="1.0" xmlns="http://www.w3.org/2000/svg"
 width="820.000000pt" height="603.000000pt" viewBox="0 0 820.000000 603.000000"
 preserveAspectRatio="xMidYMid meet">
<metadata>
Created by potrace 1.16, written by Peter Selinger 2001-2019
</metadata>
<g transform="translate(0.000000,603.000000) scale(0.100000,-0.100000)"
fill="#000000" stroke="none">
<path d="M7504 6010 c-220 -57 -418 -235 -496 -446 -19 -48 -23 -80 -23 -174
0 -108 2 -119 31 -181 19 -40 60 -97 108 -150 224 -245 338 -510 377 -874 14
-132 7 -355 -16 -510 -19 -124 -171 -740 -269 -1090 -270 -962 -531 -1528
-866 -1878 -155 -163 -311 -266 -485 -320 -231 -71 -496 -57 -681 36 -257 130
-390 337 -450 702 -24 143 -24 456 -1 636 34 260 79 452 479 2059 390 1567
410 1648 405 1718 -21 346 -467 449 -747 173 -119 -118 -93 -30 -529 -1776
-214 -858 -399 -1607 -411 -1665 -45 -217 -62 -363 -67 -575 l-6 -210 -44
-105 c-115 -270 -294 -571 -425 -715 -236 -261 -439 -349 -725 -317 -146 17
-210 35 -328 92 -208 101 -336 252 -416 488 -116 342 -101 819 45 1417 105
430 244 858 566 1740 78 215 155 440 171 501 54 216 61 434 19 624 -83 379
-309 641 -648 753 -432 143 -888 13 -1257 -359 -290 -291 -539 -743 -718
-1299 -30 -93 -64 -211 -77 -261 -23 -90 -23 -91 -4 -129 34 -69 59 -80 198
-83 197 -6 212 7 266 216 18 70 57 204 87 297 264 819 604 1258 1026 1325 87
14 193 8 234 -14 35 -18 76 -61 96 -101 39 -77 47 -247 21 -424 -35 -238 -77
-378 -271 -911 -381 -1044 -554 -1591 -632 -2002 -158 -828 5 -1475 464 -1841
182 -144 379 -239 628 -302 190 -48 316 -65 527 -71 146 -5 206 -3 285 10 385
64 707 296 991 716 l68 100 43 -82 c131 -244 337 -438 599 -564 265 -127 614
-194 949 -181 242 9 416 56 636 168 153 79 268 166 419 318 209 211 365 440
540 796 252 511 430 1053 694 2110 200 800 267 1143 296 1514 48 624 -111
1019 -445 1106 -77 20 -143 18 -231 -5z"/>
</g>
</svg>
