<?xml version="1.0" standalone="no"?>
<!DOCTYPE svg PUBLIC "-//W3C//DTD SVG 20010904//EN"
 "http://www.w3.org/TR/2001/REC-SVG-20010904/DTD/svg10.dtd">
<svg version="1.0" xmlns="http://www.w3.org/2000/svg"
 width="885.000000pt" height="1008.000000pt" viewBox="0 0 885.000000 1008.000000"
 preserveAspectRatio="xMidYMid meet">
<metadata>
Created by potrace 1.16, written by Peter Selinger 2001-2019
</metadata>
<g transform="translate(0.000000,1008.000000) scale(0.100000,-0.100000)"
fill="#000000" stroke="none">
<path d="M5465 10074 c-22 -2 -89 -9 -150 -14 -854 -83 -1794 -495 -2620
-1149 -352 -278 -742 -662 -1057 -1041 -543 -653 -1008 -1483 -1283 -2292
-336 -984 -434 -1933 -290 -2795 92 -550 308 -1096 593 -1503 205 -293 512
-594 797 -782 827 -543 1875 -644 2975 -286 1003 326 1984 1017 2762 1945 246
295 511 669 704 998 112 191 321 605 403 800 278 656 444 1291 517 1975 21
205 30 678 15 881 -75 1018 -431 1854 -1042 2444 -458 443 -1026 712 -1689
800 -109 15 -547 28 -635 19z m390 -568 c372 -65 667 -218 931 -481 145 -145
214 -232 312 -397 188 -319 308 -729 352 -1203 16 -175 14 -599 -5 -810 -39
-444 -126 -921 -271 -1485 -362 -1411 -829 -2405 -1525 -3245 -126 -152 -477
-498 -629 -619 -555 -442 -1105 -673 -1650 -693 -382 -13 -723 86 -1025 299
-112 79 -321 286 -399 397 -320 450 -480 1005 -502 1741 -21 683 131 1642 420
2642 354 1224 860 2153 1551 2843 605 606 1275 957 1960 1029 77 8 401 -4 480
-18z"/>
</g>
</svg>
