<?xml version="1.0" standalone="no"?>
<!DOCTYPE svg PUBLIC "-//W3C//DTD SVG 20010904//EN"
 "http://www.w3.org/TR/2001/REC-SVG-20010904/DTD/svg10.dtd">
<svg version="1.0" xmlns="http://www.w3.org/2000/svg"
 width="893.000000pt" height="908.000000pt" viewBox="0 0 893.000000 908.000000"
 preserveAspectRatio="xMidYMid meet">
<metadata>
Created by potrace 1.16, written by Peter Selinger 2001-2019
</metadata>
<g transform="translate(0.000000,908.000000) scale(0.100000,-0.100000)"
fill="#000000" stroke="none">
<path d="M2282 9063 c-49 -24 -68 -58 -97 -173 -30 -117 -28 -153 12 -200 47
-56 64 -60 275 -60 343 0 620 -24 738 -63 85 -29 93 -43 86 -167 -4 -84 -111
-520 -935 -3818 -512 -2048 -945 -3758 -961 -3800 -58 -151 -128 -225 -246
-262 -139 -43 -449 -70 -802 -70 -211 0 -228 -4 -274 -59 -37 -43 -82 -229
-68 -280 10 -37 46 -79 87 -100 29 -15 4771 -16 4948 -1 697 59 1386 341 1972
806 137 109 451 427 557 564 384 496 596 1045 596 1540 0 497 -194 938 -561
1277 -298 275 -721 464 -1189 531 l-118 17 112 24 c1012 219 1916 869 2301
1656 85 173 134 313 172 492 25 118 27 146 27 358 0 200 -3 243 -22 332 -181
832 -893 1375 -1917 1463 -77 6 -925 10 -2390 10 -2071 0 -2273 -2 -2303 -17z
m4600 -465 c190 -52 339 -138 474 -272 175 -174 291 -415 341 -706 22 -129 22
-418 -1 -561 -40 -258 -109 -477 -226 -714 -363 -741 -1052 -1281 -1820 -1427
-113 -21 -136 -22 -1137 -25 -563 -2 -1023 -1 -1023 2 0 28 857 3423 880 3488
61 168 117 213 294 237 33 4 525 7 1091 6 l1030 -1 97 -27z m-838 -4081 c201
-56 358 -150 501 -299 107 -110 168 -199 235 -340 119 -254 167 -513 157 -853
-6 -199 -21 -322 -64 -515 -231 -1048 -1155 -1938 -2128 -2050 -117 -13 -2081
-13 -2185 0 -137 18 -148 32 -130 163 5 40 226 939 491 2000 l482 1928 1271
-3 1271 -3 99 -28z"/>
</g>
</svg>
