<?xml version="1.0" standalone="no"?>
<!DOCTYPE svg PUBLIC "-//W3C//DTD SVG 20010904//EN"
 "http://www.w3.org/TR/2001/REC-SVG-20010904/DTD/svg10.dtd">
<svg version="1.0" xmlns="http://www.w3.org/2000/svg"
 width="476.000000pt" height="626.000000pt" viewBox="0 0 476.000000 626.000000"
 preserveAspectRatio="xMidYMid meet">
<metadata>
Created by potrace 1.16, written by Peter Selinger 2001-2019
</metadata>
<g transform="translate(0.000000,626.000000) scale(0.100000,-0.100000)"
fill="#000000" stroke="none">
<path d="M3070 6253 c-169 -13 -396 -59 -565 -115 -686 -229 -1174 -783 -1370
-1559 -94 -370 -69 -715 74 -1015 69 -143 140 -245 250 -355 106 -106 199
-173 340 -243 136 -69 224 -94 636 -186 411 -91 496 -115 605 -170 393 -198
558 -584 441 -1030 -72 -279 -206 -515 -401 -710 -288 -289 -665 -436 -1170
-457 -521 -21 -987 150 -1214 446 -39 51 -106 160 -106 173 0 3 20 8 45 11 73
10 194 55 267 98 124 73 223 181 293 318 37 75 75 230 75 310 0 279 -207 473
-503 473 -119 0 -210 -22 -322 -77 -274 -134 -416 -381 -441 -765 -21 -333 96
-638 341 -885 129 -131 252 -217 436 -304 280 -132 564 -196 924 -208 801 -25
1507 228 1991 715 187 188 322 379 449 637 118 239 183 425 236 675 31 143 34
467 6 605 -64 312 -191 550 -411 770 -136 136 -250 217 -421 300 -163 80 -259
108 -710 210 -225 51 -435 103 -465 115 -201 80 -357 269 -396 480 -58 306 92
731 348 989 167 169 367 272 620 323 136 27 406 32 528 9 308 -56 560 -222
672 -446 35 -69 34 -72 -29 -90 -103 -30 -192 -84 -273 -165 -168 -167 -233
-414 -160 -605 28 -71 110 -159 183 -194 269 -130 627 1 774 284 72 138 110
341 100 525 -30 528 -427 938 -1038 1074 -63 13 -158 30 -211 35 -90 10 -321
12 -428 4z"/>
</g>
</svg>
