<?xml version="1.0" standalone="no"?>
<!DOCTYPE svg PUBLIC "-//W3C//DTD SVG 20010904//EN"
 "http://www.w3.org/TR/2001/REC-SVG-20010904/DTD/svg10.dtd">
<svg version="1.0" xmlns="http://www.w3.org/2000/svg"
 width="353.000000pt" height="87.000000pt" viewBox="0 0 353.000000 87.000000"
 preserveAspectRatio="xMidYMid meet">
<metadata>
Created by potrace 1.16, written by Peter Selinger 2001-2019
</metadata>
<g transform="translate(0.000000,87.000000) scale(0.100000,-0.100000)"
fill="#000000" stroke="none">
<path d="M230 852 c-19 -9 -44 -31 -56 -49 -13 -20 -50 -148 -98 -338 -67
-267 -75 -311 -66 -344 12 -45 64 -98 111 -111 46 -14 3101 -13 3149 0 20 5
51 25 69 44 30 31 38 55 107 327 40 162 74 314 74 338 0 56 -30 106 -81 131
-38 20 -66 20 -1606 20 -1473 0 -1570 -1 -1603 -18z"/>
</g>
</svg>
