<?xml version="1.0" standalone="no"?>
<!DOCTYPE svg PUBLIC "-//W3C//DTD SVG 20010904//EN"
 "http://www.w3.org/TR/2001/REC-SVG-20010904/DTD/svg10.dtd">
<svg version="1.0" xmlns="http://www.w3.org/2000/svg"
 width="918.000000pt" height="977.000000pt" viewBox="0 0 918.000000 977.000000"
 preserveAspectRatio="xMidYMid meet">
<metadata>
Created by potrace 1.16, written by Peter Selinger 2001-2019
</metadata>
<g transform="translate(0.000000,977.000000) scale(0.100000,-0.100000)"
fill="#000000" stroke="none">
<path d="M160 9753 c-54 -28 -74 -70 -119 -247 -47 -188 -50 -234 -20 -283 40
-64 75 -73 276 -73 213 0 476 -16 585 -35 114 -20 167 -49 197 -107 23 -46 38
-214 412 -4465 214 -2429 394 -4430 400 -4445 15 -37 61 -75 107 -89 24 -7
113 -9 247 -7 l210 3 53 29 c29 17 67 46 85 65 18 20 1116 1881 2442 4136
1325 2255 2414 4103 2421 4107 7 5 31 38 55 75 150 240 365 441 595 557 213
107 522 176 792 176 89 0 139 23 169 79 11 20 39 114 63 208 47 194 47 222 -1
278 -45 51 -73 56 -234 45 -77 -5 -334 -15 -572 -22 -449 -12 -1176 -3 -1713
23 -232 12 -236 11 -278 -10 -23 -12 -49 -32 -58 -46 -19 -30 -103 -356 -104
-403 0 -86 74 -152 172 -152 217 0 419 -65 524 -169 107 -105 122 -254 43
-413 -16 -32 -29 -63 -29 -69 0 -17 -3813 -6500 -3819 -6493 -3 3 -141 1552
-308 3442 -236 2687 -300 3443 -292 3464 16 39 91 105 147 129 153 66 354 98
671 107 249 8 262 11 300 74 24 39 101 344 101 400 0 56 -29 102 -79 128 -39
20 -48 20 -283 10 -789 -31 -1957 -36 -2593 -10 -574 23 -527 23 -565 3z"/>
</g>
</svg>
