<?xml version="1.0" standalone="no"?>
<!DOCTYPE svg PUBLIC "-//W3C//DTD SVG 20010904//EN"
 "http://www.w3.org/TR/2001/REC-SVG-20010904/DTD/svg10.dtd">
<svg version="1.0" xmlns="http://www.w3.org/2000/svg"
 width="495.000000pt" height="626.000000pt" viewBox="0 0 495.000000 626.000000"
 preserveAspectRatio="xMidYMid meet">
<metadata>
Created by potrace 1.16, written by Peter Selinger 2001-2019
</metadata>
<g transform="translate(0.000000,626.000000) scale(0.100000,-0.100000)"
fill="#000000" stroke="none">
<path d="M3235 6249 c-285 -27 -641 -121 -933 -245 -446 -191 -835 -456 -1192
-814 -483 -483 -807 -1038 -965 -1654 -144 -562 -182 -1122 -109 -1611 70
-472 269 -943 528 -1254 366 -438 871 -671 1455 -671 789 0 1622 289 2261 786
207 160 505 468 623 641 40 59 49 117 24 159 -24 42 -182 204 -213 219 -77 37
-120 14 -224 -117 -240 -303 -472 -521 -780 -731 -489 -333 -1040 -522 -1590
-544 -233 -9 -394 29 -549 130 -451 295 -620 990 -470 1937 32 203 115 606
160 773 l10 37 242 0 c1732 1 2702 301 3149 975 111 168 195 380 234 590 25
137 15 378 -20 505 -116 417 -449 720 -930 845 -197 51 -463 67 -711 44z m475
-429 c280 -69 491 -270 567 -540 14 -51 18 -99 17 -225 -1 -139 -4 -173 -27
-257 -149 -558 -630 -880 -1523 -1017 -291 -45 -616 -69 -1056 -78 l-317 -6
35 119 c117 400 244 707 397 961 348 578 902 977 1465 1058 131 19 331 12 442
-15z"/>
</g>
</svg>
