<?xml version="1.0" standalone="no"?>
<!DOCTYPE svg PUBLIC "-//W3C//DTD SVG 20010904//EN"
 "http://www.w3.org/TR/2001/REC-SVG-20010904/DTD/svg10.dtd">
<svg version="1.0" xmlns="http://www.w3.org/2000/svg"
 width="326.000000pt" height="865.000000pt" viewBox="0 0 326.000000 865.000000"
 preserveAspectRatio="xMidYMid meet">
<metadata>
Created by potrace 1.16, written by Peter Selinger 2001-2019
</metadata>
<g transform="translate(0.000000,865.000000) scale(0.100000,-0.100000)"
fill="#000000" stroke="none">
<path d="M2451 8635 c-312 -68 -573 -270 -711 -550 -66 -134 -91 -232 -92
-365 -1 -186 53 -321 178 -447 128 -129 293 -190 494 -180 407 20 795 340 900
742 27 103 29 263 5 355 -72 277 -323 461 -625 459 -47 0 -114 -7 -149 -14z"/>
<path d="M1351 4239 c-29 -5 -95 -23 -145 -40 -309 -103 -549 -367 -637 -699
-34 -127 -32 -295 4 -406 15 -44 44 -107 65 -140 167 -258 556 -339 916 -189
17 8 18 5 12 -30 -15 -77 -89 -304 -153 -465 -127 -324 -282 -617 -483 -918
-218 -324 -399 -542 -705 -846 l-220 -218 0 -52 c0 -47 5 -60 50 -122 80 -109
131 -133 211 -99 48 20 488 461 628 630 513 617 879 1301 1065 1992 168 624
181 1068 38 1338 -39 74 -135 171 -204 208 -112 59 -287 81 -442 56z"/>
</g>
</svg>
