<?xml version="1.0" standalone="no"?>
<!DOCTYPE svg PUBLIC "-//W3C//DTD SVG 20010904//EN"
 "http://www.w3.org/TR/2001/REC-SVG-20010904/DTD/svg10.dtd">
<svg version="1.0" xmlns="http://www.w3.org/2000/svg"
 width="955.000000pt" height="942.000000pt" viewBox="0 0 955.000000 942.000000"
 preserveAspectRatio="xMidYMid meet">
<metadata>
Created by potrace 1.16, written by Peter Selinger 2001-2019
</metadata>
<g transform="translate(0.000000,942.000000) scale(0.100000,-0.100000)"
fill="#000000" stroke="none">
<path d="M2375 9406 c-63 -27 -79 -61 -131 -269 l-48 -194 25 -48 c45 -92 34
-89 412 -97 323 -6 509 -18 632 -39 129 -22 145 -37 145 -132 -1 -73 -1907
-7696 -1944 -7771 -33 -68 -95 -132 -149 -156 -105 -47 -332 -69 -772 -76
-181 -3 -344 -10 -362 -15 -66 -21 -86 -59 -138 -271 l-49 -195 25 -48 c13
-27 37 -58 52 -69 l28 -21 3602 -3 c2427 -2 3614 0 3637 7 20 6 48 23 62 38
36 37 1428 3509 1428 3560 0 49 -35 107 -80 132 -35 19 -53 21 -224 21 -200 0
-232 -6 -272 -51 -12 -13 -76 -157 -142 -319 -66 -162 -156 -378 -200 -480
-432 -999 -802 -1539 -1257 -1833 -343 -221 -743 -355 -1245 -416 -276 -33
-379 -36 -1455 -36 -929 0 -1087 3 -1130 15 l-50 15 2 60 c1 41 147 642 468
1925 256 1026 470 1882 476 1903 l10 39 697 -5 c755 -5 823 -9 1008 -63 117
-33 193 -75 252 -138 144 -152 143 -449 -4 -1059 -51 -207 -51 -235 -7 -288
45 -53 72 -59 279 -59 172 0 189 2 225 22 23 13 46 37 59 62 26 53 900 3553
900 3607 0 54 -31 104 -81 129 -34 18 -59 20 -226 20 -263 0 -278 -10 -327
-207 -146 -586 -280 -890 -481 -1088 -190 -187 -438 -274 -865 -305 -194 -13
-1270 -13 -1270 0 0 36 846 3385 866 3430 48 106 93 131 274 150 126 13 1889
13 2135 0 329 -18 546 -52 741 -115 276 -90 477 -246 578 -447 94 -189 126
-359 133 -708 6 -286 -9 -516 -62 -940 -19 -151 -35 -294 -35 -319 0 -57 30
-106 82 -132 36 -19 55 -20 238 -17 184 3 201 5 227 24 62 46 52 -15 269 1616
l205 1531 -23 46 c-13 25 -36 54 -51 65 l-28 21 -3517 2 c-2909 2 -3522 0
-3547 -11z"/>
</g>
</svg>
