<?xml version="1.0" standalone="no"?>
<!DOCTYPE svg PUBLIC "-//W3C//DTD SVG 20010904//EN"
 "http://www.w3.org/TR/2001/REC-SVG-20010904/DTD/svg10.dtd">
<svg version="1.0" xmlns="http://www.w3.org/2000/svg"
 width="881.000000pt" height="968.000000pt" viewBox="0 0 881.000000 968.000000"
 preserveAspectRatio="xMidYMid meet">
<metadata>
Created by potrace 1.16, written by Peter Selinger 2001-2019
</metadata>
<g transform="translate(0.000000,968.000000) scale(0.100000,-0.100000)"
fill="#000000" stroke="none">
<path d="M5360 9674 c-1690 -119 -3425 -1306 -4470 -3059 -107 -178 -318 -596
-400 -790 -273 -646 -435 -1306 -481 -1960 -14 -210 -7 -637 16 -825 68 -578
238 -1098 508 -1547 231 -386 566 -735 937 -978 838 -550 1946 -666 2991 -314
256 85 504 201 719 334 200 124 446 327 574 474 l69 79 47 -107 c78 -181 196
-365 356 -557 77 -93 119 -124 169 -124 31 0 73 20 97 46 10 12 146 536 358
1379 187 748 350 1389 362 1425 44 138 95 213 170 251 83 42 288 69 536 69
195 0 222 20 266 195 30 122 26 162 -21 207 -53 48 -60 50 -251 39 -439 -26
-1082 -34 -1764 -22 -372 6 -816 16 -987 22 -344 12 -349 12 -400 -46 -33 -38
-75 -174 -75 -247 -1 -53 20 -89 74 -125 32 -22 41 -23 269 -23 533 0 929 -39
1011 -99 34 -25 53 -98 45 -183 -7 -88 -315 -1323 -355 -1422 -170 -429 -518
-784 -1009 -1030 -503 -253 -1067 -340 -1611 -250 -839 138 -1480 689 -1749
1500 -238 718 -210 1610 88 2809 179 720 379 1281 646 1810 128 254 234 434
386 660 757 1120 1887 1854 3009 1955 714 64 1263 -179 1616 -715 297 -452
438 -1047 421 -1780 -6 -263 -13 -338 -48 -603 -21 -153 -22 -164 -6 -197 30
-63 64 -75 212 -75 111 0 135 3 162 20 17 10 37 28 43 40 18 33 910 3604 910
3641 0 46 -19 79 -59 106 -45 30 -141 32 -187 4 -17 -11 -237 -253 -489 -538
-252 -285 -467 -528 -480 -541 l-21 -23 -53 86 c-132 216 -358 468 -545 607
-286 213 -616 348 -986 404 -102 15 -497 26 -620 18z"/>
</g>
</svg>
