<?xml version="1.0" standalone="no"?>
<!DOCTYPE svg PUBLIC "-//W3C//DTD SVG 20010904//EN"
 "http://www.w3.org/TR/2001/REC-SVG-20010904/DTD/svg10.dtd">
<svg version="1.0" xmlns="http://www.w3.org/2000/svg"
 width="914.000000pt" height="977.000000pt" viewBox="0 0 914.000000 977.000000"
 preserveAspectRatio="xMidYMid meet">
<metadata>
Created by potrace 1.16, written by Peter Selinger 2001-2019
</metadata>
<g transform="translate(0.000000,977.000000) scale(0.100000,-0.100000)"
fill="#000000" stroke="none">
<path d="M5655 9760 c-1446 -118 -2818 -868 -3687 -2016 -583 -770 -856 -1662
-788 -2574 38 -503 143 -952 401 -1710 321 -940 399 -1194 473 -1520 69 -309
95 -509 103 -797 l6 -223 -534 0 c-643 0 -843 12 -981 56 l-46 15 -9 77 c-9
86 -11 539 -3 879 5 212 4 222 -16 249 -47 64 -62 69 -225 72 -138 3 -152 2
-188 -18 -21 -13 -48 -39 -60 -60 -20 -37 -23 -77 -63 -1051 l-41 -1013 22
-41 c13 -25 38 -51 61 -64 l38 -21 1125 2 c1119 3 1126 3 1153 24 15 11 36 31
46 45 35 46 128 520 163 824 30 271 36 374 42 750 7 477 -7 800 -67 1570 -85
1081 -96 1628 -45 2175 103 1083 473 2041 1061 2744 121 144 382 402 514 508
473 378 987 613 1520 695 158 24 504 24 645 0 434 -75 765 -252 1037 -554 192
-214 345 -532 407 -843 40 -204 46 -278 46 -565 -1 -308 -17 -471 -76 -769
-163 -823 -501 -1607 -1272 -2951 -104 -181 -278 -485 -387 -675 -283 -493
-449 -801 -625 -1155 -170 -342 -238 -494 -354 -785 -125 -312 -281 -806 -281
-889 0 -47 36 -105 80 -130 l38 -21 1111 0 c1197 0 1149 -2 1197 51 12 13 228
472 480 1019 411 893 458 1000 458 1047 1 56 -17 89 -68 127 -24 19 -44 21
-177 24 -140 3 -151 2 -190 -20 -45 -25 -34 -4 -245 -453 -187 -399 -344 -691
-409 -761 -49 -52 -195 -86 -450 -104 -142 -10 -1115 -14 -1115 -5 0 3 20 46
45 95 112 224 352 604 565 895 232 318 440 576 976 1210 401 475 590 704 774
940 780 1001 1177 1825 1271 2640 16 140 16 489 0 620 -63 511 -254 974 -558
1350 -94 116 -291 311 -413 408 -394 314 -912 536 -1475 632 -269 45 -742 66
-1010 45z"/>
</g>
</svg>
