<?xml version="1.0" standalone="no"?>
<!DOCTYPE svg PUBLIC "-//W3C//DTD SVG 20010904//EN"
 "http://www.w3.org/TR/2001/REC-SVG-20010904/DTD/svg10.dtd">
<svg version="1.0" xmlns="http://www.w3.org/2000/svg"
 width="379.000000pt" height="992.000000pt" viewBox="0 0 379.000000 992.000000"
 preserveAspectRatio="xMidYMid meet">
<metadata>
Created by potrace 1.16, written by Peter Selinger 2001-2019
</metadata>
<g transform="translate(0.000000,992.000000) scale(0.100000,-0.100000)"
fill="#000000" stroke="none">
<path d="M2900 9901 c-377 -83 -686 -352 -789 -686 -24 -75 -1061 -6289 -1061
-6352 0 -21 9 -53 20 -71 34 -55 65 -62 290 -62 206 0 223 3 267 43 31 28
2128 6316 2143 6427 36 255 -94 512 -318 628 -124 65 -199 84 -342 88 -97 3
-144 0 -210 -15z"/>
<path d="M840 1640 c-377 -80 -686 -360 -805 -730 -36 -111 -46 -299 -21 -402
56 -238 214 -403 456 -480 104 -32 315 -32 435 0 165 45 360 159 488 284 123
122 236 313 279 473 28 106 31 290 5 385 -50 186 -170 334 -337 415 -156 75
-323 93 -500 55z"/>
</g>
</svg>
