<?xml version="1.0" standalone="no"?>
<!DOCTYPE svg PUBLIC "-//W3C//DTD SVG 20010904//EN"
 "http://www.w3.org/TR/2001/REC-SVG-20010904/DTD/svg10.dtd">
<svg version="1.0" xmlns="http://www.w3.org/2000/svg"
 width="855.000000pt" height="640.000000pt" viewBox="0 0 855.000000 640.000000"
 preserveAspectRatio="xMidYMid meet">
<metadata>
Created by potrace 1.16, written by Peter Selinger 2001-2019
</metadata>
<g transform="translate(0.000000,640.000000) scale(0.100000,-0.100000)"
fill="#000000" stroke="none">
<path d="M3020 6386 c-575 -83 -1173 -423 -1684 -957 -628 -655 -1070 -1521
-1255 -2459 -104 -523 -103 -1047 1 -1485 190 -798 660 -1312 1332 -1457 83
-18 135 -22 296 -22 208 -1 270 6 456 54 278 71 582 220 864 424 261 188 542
464 788 773 44 57 83 99 85 95 3 -4 25 -56 51 -117 222 -529 628 -920 1121
-1078 216 -70 389 -92 635 -84 208 7 350 28 566 82 730 184 1416 657 1865
1286 115 161 114 183 -23 331 -158 171 -217 172 -333 7 -472 -676 -1150 -1151
-1815 -1271 -158 -28 -412 -31 -523 -5 -174 41 -315 121 -442 251 -219 224
-341 521 -391 953 -20 170 -14 558 11 763 29 237 108 669 156 853 l10 37 282
0 c1612 0 2504 217 3022 735 186 185 302 376 379 625 57 185 69 271 63 455 -4
132 -9 176 -31 254 -118 422 -454 724 -940 846 -381 96 -832 65 -1301 -90
-520 -171 -970 -449 -1397 -863 -106 -104 -129 -121 -134 -106 -104 294 -244
537 -415 718 -216 228 -447 361 -749 432 -133 32 -401 41 -550 20z m390 -421
c276 -83 477 -354 559 -755 31 -151 43 -291 43 -490 -1 -388 -64 -766 -248
-1502 -170 -682 -294 -1058 -473 -1433 -395 -827 -1008 -1376 -1535 -1375
-481 2 -768 523 -718 1303 24 371 87 706 273 1449 205 820 318 1175 498 1561
313 669 831 1177 1281 1256 76 14 254 5 320 -14z m3840 -59 c111 -17 235 -59
317 -107 74 -43 218 -187 261 -261 119 -203 134 -483 41 -763 -169 -505 -663
-807 -1519 -929 -325 -47 -804 -76 -1238 -76 l-214 0 7 33 c4 17 29 97 55 177
282 862 740 1444 1381 1755 315 152 634 212 909 171z"/>
</g>
</svg>
