<?xml version="1.0" standalone="no"?>
<!DOCTYPE svg PUBLIC "-//W3C//DTD SVG 20010904//EN"
 "http://www.w3.org/TR/2001/REC-SVG-20010904/DTD/svg10.dtd">
<svg version="1.0" xmlns="http://www.w3.org/2000/svg"
 width="593.000000pt" height="976.000000pt" viewBox="0 0 593.000000 976.000000"
 preserveAspectRatio="xMidYMid meet">
<metadata>
Created by potrace 1.16, written by Peter Selinger 2001-2019
</metadata>
<g transform="translate(0.000000,976.000000) scale(0.100000,-0.100000)"
fill="#000000" stroke="none">
<path d="M2140 9684 c-968 -79 -960 -78 -1001 -136 -12 -16 -36 -90 -55 -164
-29 -116 -33 -142 -24 -175 14 -50 53 -95 93 -107 18 -6 142 -13 277 -16 270
-6 386 -17 503 -48 135 -36 161 -83 138 -260 -7 -52 -454 -1860 -1038 -4192
-980 -3915 -1026 -4105 -1027 -4191 0 -115 25 -183 96 -261 226 -247 686 -136
847 205 19 42 141 510 386 1489 l357 1429 56 -9 c404 -62 783 -232 1002 -450
172 -169 261 -363 276 -597 8 -110 -4 -210 -45 -402 -45 -204 -54 -307 -48
-512 4 -129 12 -210 26 -279 115 -533 442 -879 931 -984 106 -22 299 -29 401
-15 237 35 459 151 647 339 327 327 584 872 797 1689 31 117 27 149 -26 199
l-30 29 -172 3 c-248 4 -239 11 -312 -279 -194 -773 -360 -1166 -591 -1395
-136 -136 -288 -195 -461 -180 -92 7 -137 26 -190 78 -160 157 -161 592 -2
1243 45 182 59 287 59 430 0 147 -9 216 -45 341 -127 435 -504 764 -1110 969
-142 48 -408 116 -530 135 -38 6 -76 13 -83 16 -8 2 21 29 66 63 218 162 523
463 930 919 327 364 475 522 620 656 438 405 785 579 1162 580 110 1 130 -2
171 -22 50 -24 113 -82 134 -123 l14 -26 -82 -17 c-223 -48 -415 -191 -515
-384 -51 -97 -92 -248 -92 -336 0 -288 231 -490 540 -473 186 11 346 83 480
217 126 126 178 227 222 430 29 135 29 361 0 481 -85 347 -283 562 -597 645
-104 28 -362 26 -501 -4 -199 -43 -415 -132 -597 -247 -314 -197 -577 -444
-1127 -1060 -324 -363 -598 -643 -760 -779 -151 -126 -449 -320 -465 -304 -3
3 316 1293 710 2867 393 1573 715 2880 715 2902 0 88 -73 150 -172 148 -29 -1
-460 -35 -958 -75z"/>
</g>
</svg>
