<?xml version="1.0" standalone="no"?>
<!DOCTYPE svg PUBLIC "-//W3C//DTD SVG 20010904//EN"
 "http://www.w3.org/TR/2001/REC-SVG-20010904/DTD/svg10.dtd">
<svg version="1.0" xmlns="http://www.w3.org/2000/svg"
 width="1271.000000pt" height="977.000000pt" viewBox="0 0 1271.000000 977.000000"
 preserveAspectRatio="xMidYMid meet">
<metadata>
Created by potrace 1.16, written by Peter Selinger 2001-2019
</metadata>
<g transform="translate(0.000000,977.000000) scale(0.100000,-0.100000)"
fill="#000000" stroke="none">
<path d="M140 9753 c-53 -28 -75 -71 -110 -213 -35 -145 -33 -182 8 -232 42
-50 75 -58 239 -58 287 0 532 -28 616 -71 44 -23 81 -91 92 -169 3 -25 89
-2020 190 -4435 101 -2415 187 -4410 190 -4434 3 -24 16 -59 29 -76 43 -56 76
-65 243 -65 180 0 222 11 293 79 44 41 242 401 1927 3511 1482 2734 1879 3458
1881 3435 1 -17 67 -1577 147 -3468 118 -2785 148 -3443 160 -3466 20 -40 70
-79 109 -87 19 -3 101 -4 183 -2 143 3 150 4 202 33 30 16 67 46 83 66 16 20
1030 1882 2253 4138 1223 2256 2230 4107 2237 4115 7 7 41 59 76 117 89 147
167 249 274 358 195 197 380 306 633 371 113 29 271 50 373 50 69 0 118 23
148 68 31 46 87 281 78 328 -8 45 -55 99 -97 113 -22 7 -72 8 -157 1 -69 -5
-297 -15 -507 -21 -400 -14 -1187 -3 -1743 22 -242 11 -245 11 -285 -10 -54
-29 -72 -62 -106 -195 -34 -132 -36 -189 -9 -233 31 -52 79 -69 211 -77 219
-12 383 -57 509 -141 83 -55 133 -110 169 -185 23 -48 26 -67 25 -155 0 -80
-5 -111 -22 -152 -12 -29 -31 -77 -43 -105 -11 -29 -795 -1483 -1742 -3230
l-1722 -3176 -7 46 c-4 26 -71 1558 -148 3404 l-141 3358 25 48 c36 72 120
144 212 182 172 71 340 99 669 109 281 8 279 7 335 232 37 147 35 181 -11 234
-47 53 -68 56 -314 45 -121 -5 -516 -15 -878 -22 -675 -12 -1333 -4 -1840 23
-237 13 -268 9 -314 -45 -23 -26 -37 -61 -61 -159 -38 -149 -39 -177 -11 -227
40 -71 63 -77 334 -83 376 -9 517 -35 573 -103 17 -20 35 -55 42 -78 6 -23 22
-273 35 -561 l23 -520 -1596 -2944 c-1030 -1898 -1598 -2937 -1600 -2923 -2
12 -68 1544 -147 3404 -138 3276 -142 3384 -125 3424 35 82 116 152 231 199
161 65 331 93 624 101 116 3 224 10 242 15 60 19 87 64 121 202 18 70 32 140
32 157 0 48 -33 103 -78 128 -40 22 -41 22 -279 13 -764 -32 -1871 -37 -2458
-11 -526 23 -487 23 -525 3z"/>
</g>
</svg>
