<?xml version="1.0" standalone="no"?>
<!DOCTYPE svg PUBLIC "-//W3C//DTD SVG 20010904//EN"
 "http://www.w3.org/TR/2001/REC-SVG-20010904/DTD/svg10.dtd">
<svg version="1.0" xmlns="http://www.w3.org/2000/svg"
 width="1116.000000pt" height="946.000000pt" viewBox="0 0 1116.000000 946.000000"
 preserveAspectRatio="xMidYMid meet">
<metadata>
Created by potrace 1.16, written by Peter Selinger 2001-2019
</metadata>
<g transform="translate(0.000000,946.000000) scale(0.100000,-0.100000)"
fill="#000000" stroke="none">
<path d="M2369 9439 c-53 -31 -72 -73 -118 -266 -46 -190 -47 -223 -3 -275 45
-53 70 -58 299 -58 356 0 717 -27 819 -60 39 -13 54 -46 54 -113 -1 -73 -1917
-7736 -1954 -7811 -33 -68 -95 -132 -149 -156 -106 -47 -332 -69 -782 -77
-315 -5 -343 -7 -376 -25 -52 -29 -71 -71 -118 -265 -47 -193 -47 -224 1 -279
46 -52 67 -55 323 -44 127 5 530 15 897 22 690 12 1607 3 2260 -23 263 -11
278 -11 314 7 22 11 48 33 60 51 24 36 104 343 104 400 0 53 -30 104 -76 130
-37 22 -50 23 -254 23 -387 0 -737 27 -824 64 -47 19 -61 69 -46 158 6 35 219
896 473 1913 l463 1850 1811 3 1811 2 -463 -1850 c-309 -1235 -471 -1868 -489
-1904 -33 -68 -95 -132 -149 -156 -106 -47 -332 -69 -782 -77 -315 -5 -343 -7
-376 -25 -52 -29 -71 -71 -118 -265 -47 -193 -47 -224 1 -279 46 -52 67 -55
323 -44 127 5 530 15 897 22 690 12 1607 3 2260 -23 263 -11 278 -11 314 7 22
11 48 33 60 51 24 36 104 343 104 400 0 53 -30 104 -76 130 -37 22 -50 23
-254 23 -387 0 -737 27 -824 64 -28 11 -37 23 -46 55 -6 22 -8 59 -4 83 3 24
438 1770 965 3882 630 2518 969 3858 986 3895 38 80 117 155 183 175 131 39
486 66 870 66 240 0 265 6 306 67 24 36 104 343 104 400 0 54 -30 104 -78 131
l-41 23 -258 -11 c-947 -38 -2066 -38 -3110 1 l-311 11 -40 -22 c-22 -12 -49
-39 -60 -59 -11 -20 -38 -113 -61 -208 -46 -190 -47 -223 -3 -275 45 -53 70
-58 299 -58 356 0 717 -27 819 -60 39 -13 54 -46 54 -113 0 -34 -144 -624
-423 -1742 l-423 -1690 -1811 -3 -1811 -2 415 1656 c265 1060 423 1677 440
1713 38 80 117 155 183 175 131 39 486 66 870 66 240 0 265 6 306 67 24 36
104 343 104 400 0 54 -30 104 -78 131 l-41 23 -248 -10 c-782 -33 -2005 -37
-2803 -11 -157 5 -364 12 -460 15 -168 6 -177 5 -211 -16z"/>
</g>
</svg>
