<?xml version="1.0" standalone="no"?>
<!DOCTYPE svg PUBLIC "-//W3C//DTD SVG 20010904//EN"
 "http://www.w3.org/TR/2001/REC-SVG-20010904/DTD/svg10.dtd">
<svg version="1.0" xmlns="http://www.w3.org/2000/svg"
 width="853.000000pt" height="946.000000pt" viewBox="0 0 853.000000 946.000000"
 preserveAspectRatio="xMidYMid meet">
<metadata>
Created by potrace 1.16, written by Peter Selinger 2001-2019
</metadata>
<g transform="translate(0.000000,946.000000) scale(0.100000,-0.100000)"
fill="#000000" stroke="none">
<path d="M2590 9443 c-19 -10 -44 -32 -56 -50 -24 -36 -104 -343 -104 -400 0
-53 30 -104 76 -130 38 -22 48 -23 304 -23 491 0 938 -29 1053 -68 28 -9 58
-28 69 -42 44 -61 78 82 -720 -3105 -685 -2735 -750 -2990 -768 -2987 -40 7
-222 85 -289 124 -445 260 -667 686 -716 1373 -27 390 31 860 187 1509 120
498 161 746 171 1012 7 194 -5 322 -44 454 -55 191 -163 327 -316 401 -138 66
-171 69 -753 69 -490 0 -517 -1 -553 -19 -21 -11 -46 -32 -56 -48 -23 -35 -74
-235 -75 -292 0 -90 63 -144 180 -153 96 -8 146 -27 199 -74 89 -80 129 -199
138 -419 9 -231 -24 -485 -112 -854 -76 -320 -118 -551 -147 -816 -20 -185
-17 -689 5 -840 99 -661 353 -1133 799 -1478 296 -229 731 -410 1164 -484
l101 -17 -147 -588 c-104 -413 -155 -600 -173 -631 -33 -56 -117 -134 -170
-157 -126 -56 -560 -89 -1152 -90 -300 0 -319 -3 -361 -67 -24 -36 -104 -343
-104 -400 0 -54 30 -104 78 -131 l41 -23 273 10 c150 6 623 16 1050 23 802 12
1843 3 2605 -23 l321 -11 40 22 c22 12 49 39 60 59 11 20 38 113 61 208 46
190 47 223 3 275 -46 55 -66 58 -354 58 -574 1 -1016 35 -1094 86 -26 18 -44
62 -44 113 0 20 68 311 152 647 l152 610 95 13 c131 17 359 64 516 106 450
118 867 308 1250 566 576 388 1053 947 1404 1641 194 385 325 741 457 1243
152 578 324 953 547 1191 139 150 306 233 467 234 57 0 108 26 136 67 12 18
37 93 55 166 l33 134 -25 49 c-13 26 -37 57 -52 68 -28 21 -39 21 -595 21
l-567 0 -89 -28 c-426 -133 -717 -509 -962 -1242 -40 -121 -96 -308 -124 -415
-144 -547 -199 -732 -302 -1003 -194 -514 -438 -947 -743 -1314 -112 -135
-313 -336 -425 -427 -224 -179 -524 -349 -790 -445 -74 -27 -136 -48 -138 -47
-1 2 329 1330 734 2951 737 2947 737 2948 778 3009 48 71 118 127 187 150 133
42 437 65 974 73 395 5 422 7 456 25 52 29 71 71 118 265 46 190 47 223 3 275
-49 58 -62 59 -375 48 -1106 -39 -2456 -37 -3772 5 -172 6 -193 5 -225 -12z"/>
</g>
</svg>
