<?xml version="1.0" standalone="no"?>
<!DOCTYPE svg PUBLIC "-//W3C//DTD SVG 20010904//EN"
 "http://www.w3.org/TR/2001/REC-SVG-20010904/DTD/svg10.dtd">
<svg version="1.0" xmlns="http://www.w3.org/2000/svg"
 width="1074.000000pt" height="946.000000pt" viewBox="0 0 1074.000000 946.000000"
 preserveAspectRatio="xMidYMid meet">
<metadata>
Created by potrace 1.16, written by Peter Selinger 2001-2019
</metadata>
<g transform="translate(0.000000,946.000000) scale(0.100000,-0.100000)"
fill="#000000" stroke="none">
<path d="M2555 9447 c-57 -26 -80 -66 -114 -201 -17 -69 -31 -139 -31 -156 0
-48 33 -103 76 -126 36 -20 59 -22 314 -27 373 -8 557 -31 667 -83 51 -24 135
-105 160 -155 28 -54 1423 -3964 1419 -3976 -7 -18 -2806 -3256 -2825 -3268
-9 -5 -68 -64 -131 -129 -503 -520 -1055 -772 -1762 -802 -78 -3 -157 -10
-175 -16 -60 -18 -87 -63 -121 -201 -18 -70 -32 -140 -32 -157 0 -48 33 -103
78 -128 40 -22 44 -22 204 -12 90 5 373 15 630 22 485 12 1291 2 1860 -23 233
-11 248 -11 284 7 56 28 78 68 114 213 37 149 35 183 -11 236 -36 41 -68 51
-177 59 -216 16 -387 125 -438 280 -24 71 -16 194 17 266 24 52 92 161 141
225 37 48 2519 2920 2527 2923 6 2 1212 -3353 1211 -3371 0 -14 -84 -99 -127
-128 -109 -75 -312 -154 -458 -178 -38 -7 -120 -15 -182 -20 -167 -11 -182
-27 -233 -232 -37 -147 -35 -181 11 -234 47 -53 68 -56 319 -45 124 5 523 15
887 22 684 12 1397 4 1952 -23 233 -12 235 -12 276 10 54 29 72 62 106 195 35
135 36 187 8 233 -40 64 -75 73 -276 73 -319 0 -568 24 -705 67 -93 29 -173
95 -212 176 -14 29 -388 1064 -831 2301 l-805 2249 58 66 c32 36 558 644 1168
1351 611 707 1121 1291 1135 1299 13 7 53 46 89 86 125 141 317 306 490 422
366 245 798 379 1291 399 171 7 215 21 247 73 10 16 33 92 51 169 l34 139 -24
49 c-13 26 -37 57 -52 68 -33 24 -60 24 -442 6 -560 -27 -1473 -22 -2246 11
l-266 12 -40 -23 c-22 -12 -48 -36 -58 -52 -24 -42 -75 -242 -75 -298 0 -87
69 -150 167 -150 161 -2 316 -62 406 -160 67 -72 92 -136 91 -235 0 -89 -23
-157 -83 -248 -26 -40 -55 -85 -65 -101 -37 -59 -2049 -2377 -2056 -2369 -4 4
-231 632 -504 1395 -400 1117 -495 1391 -487 1407 21 38 123 118 209 164 160
84 333 131 544 145 173 12 187 26 238 233 36 145 35 180 -7 230 -49 58 -66 61
-331 49 -758 -31 -1912 -36 -2547 -10 -532 22 -518 21 -550 7z"/>
</g>
</svg>
