<?xml version="1.0" standalone="no"?>
<!DOCTYPE svg PUBLIC "-//W3C//DTD SVG 20010904//EN"
 "http://www.w3.org/TR/2001/REC-SVG-20010904/DTD/svg10.dtd">
<svg version="1.0" xmlns="http://www.w3.org/2000/svg"
 width="481.000000pt" height="602.000000pt" viewBox="0 0 481.000000 602.000000"
 preserveAspectRatio="xMidYMid meet">
<metadata>
Created by potrace 1.16, written by Peter Selinger 2001-2019
</metadata>
<g transform="translate(0.000000,602.000000) scale(0.100000,-0.100000)"
fill="#000000" stroke="none">
<path d="M3123 6005 c-456 -58 -955 -262 -1381 -564 -237 -168 -523 -429 -720
-656 -552 -639 -900 -1415 -1004 -2235 -17 -138 -17 -594 0 -715 66 -461 225
-853 470 -1156 34 -43 106 -119 160 -170 267 -254 579 -410 962 -481 153 -29
557 -31 750 -5 684 94 1284 347 1810 765 211 168 588 581 621 680 20 60 4 97
-79 184 -90 94 -120 112 -174 105 -48 -6 -64 -20 -141 -122 -100 -132 -208
-253 -344 -385 -147 -145 -210 -199 -343 -297 -475 -351 -992 -553 -1540 -603
-387 -36 -637 43 -856 271 -309 322 -411 824 -313 1529 53 382 228 1108 370
1534 103 309 266 665 405 886 383 609 917 1019 1426 1094 274 41 551 -8 773
-138 114 -67 274 -240 310 -336 4 -13 -9 -18 -65 -28 -155 -26 -284 -96 -392
-210 -143 -152 -219 -399 -174 -567 43 -161 152 -265 327 -310 133 -35 327 -1
468 82 79 47 185 151 230 227 84 140 127 340 118 545 -6 152 -32 259 -92 387
-169 362 -501 588 -1000 681 -115 21 -442 26 -582 8z"/>
</g>
</svg>
