<?xml version="1.0" standalone="no"?>
<!DOCTYPE svg PUBLIC "-//W3C//DTD SVG 20010904//EN"
 "http://www.w3.org/TR/2001/REC-SVG-20010904/DTD/svg10.dtd">
<svg version="1.0" xmlns="http://www.w3.org/2000/svg"
 width="877.000000pt" height="938.000000pt" viewBox="0 0 877.000000 938.000000"
 preserveAspectRatio="xMidYMid meet">
<metadata>
Created by potrace 1.16, written by Peter Selinger 2001-2019
</metadata>
<g transform="translate(0.000000,938.000000) scale(0.100000,-0.100000)"
fill="#000000" stroke="none">
<path d="M5475 9374 c-517 -40 -990 -147 -1460 -331 -173 -68 -561 -258 -717
-351 -381 -228 -654 -438 -961 -741 -438 -431 -740 -865 -955 -1371 -182 -428
-266 -856 -266 -1350 1 -612 107 -1081 484 -2140 259 -727 354 -1043 424
-1405 48 -248 81 -596 74 -770 l-3 -80 -630 0 c-436 0 -658 4 -720 13 -95 12
-205 38 -217 50 -24 24 -32 180 -33 644 0 476 0 487 -21 515 -37 50 -77 63
-197 63 -61 0 -118 -5 -130 -11 -38 -20 -76 -61 -86 -93 -5 -17 -22 -450 -37
-962 -31 -1028 -32 -971 34 -1022 l35 -27 1056 -3 c581 -1 1066 0 1078 3 43
10 92 64 108 118 27 91 94 437 115 596 84 640 78 1169 -30 2411 -55 631 -68
822 -80 1150 -37 1048 130 1929 515 2715 372 761 939 1357 1631 1717 483 251
994 363 1445 317 296 -29 573 -124 797 -272 124 -82 158 -110 260 -210 274
-269 438 -617 509 -1077 25 -163 25 -599 0 -795 -85 -656 -297 -1296 -687
-2070 -190 -376 -371 -699 -813 -1452 -624 -1060 -865 -1517 -1100 -2083 -134
-323 -297 -830 -297 -924 0 -53 30 -101 80 -127 33 -18 82 -19 1088 -19 1135
0 1079 -3 1129 52 12 12 218 441 457 951 474 1010 461 976 413 1048 -37 55
-76 69 -200 69 -114 0 -143 -8 -184 -52 -12 -12 -63 -111 -113 -218 -200 -424
-396 -795 -472 -892 -50 -64 -184 -99 -448 -118 -160 -11 -1150 -14 -1150 -3
0 15 147 286 232 426 280 466 562 833 1338 1742 734 861 985 1182 1271 1627
767 1193 923 2299 458 3238 -128 259 -264 446 -473 655 -216 215 -413 356
-701 501 -349 175 -695 276 -1135 329 -128 16 -596 28 -715 19z"/>
</g>
</svg>
