<?xml version="1.0" standalone="no"?>
<!DOCTYPE svg PUBLIC "-//W3C//DTD SVG 20010904//EN"
 "http://www.w3.org/TR/2001/REC-SVG-20010904/DTD/svg10.dtd">
<svg version="1.0" xmlns="http://www.w3.org/2000/svg"
 width="1250.000000pt" height="908.000000pt" viewBox="0 0 1250.000000 908.000000"
 preserveAspectRatio="xMidYMid meet">
<metadata>
Created by potrace 1.16, written by Peter Selinger 2001-2019
</metadata>
<g transform="translate(0.000000,908.000000) scale(0.100000,-0.100000)"
fill="#000000" stroke="none">
<path d="M2280 9061 c-51 -27 -67 -55 -96 -167 -30 -116 -28 -156 13 -204 47
-56 64 -60 275 -60 343 0 620 -24 738 -63 85 -29 93 -43 86 -167 -4 -84 -106
-501 -890 -3638 -605 -2416 -897 -3570 -921 -3628 -116 -290 -324 -483 -638
-593 -159 -56 -392 -91 -608 -91 -73 0 -91 -3 -119 -22 -51 -35 -67 -65 -96
-172 -29 -112 -27 -149 13 -196 49 -59 62 -61 275 -50 106 5 414 15 683 21
505 12 1137 3 1652 -22 222 -11 233 -11 269 8 54 28 70 55 100 169 30 116 28
156 -13 204 -40 48 -73 60 -163 60 -323 0 -597 74 -723 195 -91 87 -135 228
-124 400 5 74 165 725 909 3704 497 1987 904 3605 906 3595 1 -11 182 -1848
401 -4084 220 -2236 405 -4089 410 -4119 12 -63 54 -114 109 -132 20 -7 74
-10 131 -7 83 3 103 8 149 33 29 16 65 43 80 60 15 16 1149 1905 2521 4197
1372 2292 2496 4166 2497 4165 7 -7 -1907 -7632 -1930 -7687 -59 -143 -128
-214 -242 -250 -140 -43 -449 -70 -805 -70 -187 0 -198 -1 -229 -22 -51 -35
-67 -65 -96 -172 -29 -112 -27 -149 13 -196 50 -60 59 -62 311 -50 125 5 488
15 807 21 599 12 1365 3 1963 -22 261 -11 272 -11 308 8 54 28 70 55 100 169
30 116 28 156 -13 204 -47 56 -64 60 -275 60 -343 0 -620 24 -738 63 -85 29
-93 43 -86 167 4 84 111 520 935 3818 512 2048 945 3758 961 3800 58 151 128
225 246 262 140 43 449 70 805 70 187 0 198 1 229 23 51 34 67 64 96 171 29
112 27 149 -13 196 -53 64 23 60 -1171 60 -950 0 -1095 -2 -1140 -15 -115 -34
47 226 -2424 -3904 -1254 -2097 -2264 -3775 -2266 -3765 -1 11 -169 1711 -372
3779 -203 2068 -372 3771 -376 3784 -9 41 -45 82 -88 102 -39 18 -91 19 -1171
19 -1081 0 -1132 -1 -1165 -19z"/>
</g>
</svg>
