<?xml version="1.0" standalone="no"?>
<!DOCTYPE svg PUBLIC "-//W3C//DTD SVG 20010904//EN"
 "http://www.w3.org/TR/2001/REC-SVG-20010904/DTD/svg10.dtd">
<svg version="1.0" xmlns="http://www.w3.org/2000/svg"
 width="851.000000pt" height="946.000000pt" viewBox="0 0 851.000000 946.000000"
 preserveAspectRatio="xMidYMid meet">
<metadata>
Created by potrace 1.16, written by Peter Selinger 2001-2019
</metadata>
<g transform="translate(0.000000,946.000000) scale(0.100000,-0.100000)"
fill="#000000" stroke="none">
<path d="M2610 9443 c-19 -10 -44 -33 -56 -51 -31 -46 -87 -281 -78 -328 8
-46 55 -100 97 -113 18 -5 205 -12 417 -15 396 -6 555 -15 743 -41 210 -30
247 -61 247 -199 -1 -73 -72 -368 -774 -3174 -426 -1701 -776 -3095 -779
-3098 -8 -8 -155 45 -253 92 -277 132 -517 372 -639 638 -216 474 -255 1093
-120 1882 32 182 59 308 130 602 123 513 166 792 167 1082 2 355 -61 559 -223
722 -61 62 -93 86 -160 117 -142 68 -176 71 -710 71 -461 0 -472 0 -509 -21
-47 -27 -73 -72 -95 -170 l-18 -77 24 -48 c35 -70 61 -85 170 -96 158 -15 243
-70 300 -193 52 -109 63 -187 63 -415 0 -277 -27 -464 -129 -890 -89 -373
-139 -662 -165 -960 -13 -150 -13 -549 0 -681 65 -658 323 -1194 745 -1547
303 -254 696 -430 1159 -522 81 -16 149 -30 151 -32 2 -2 -56 -243 -130 -537
-145 -580 -163 -632 -250 -729 -60 -67 -116 -98 -217 -121 -183 -43 -416 -60
-913 -67 -373 -6 -402 -8 -436 -26 -20 -11 -44 -34 -54 -50 -23 -40 -74 -241
-75 -293 0 -55 29 -106 78 -133 l40 -23 264 10 c144 6 604 16 1020 23 783 12
1821 3 2553 -23 309 -11 310 -11 350 10 23 12 49 36 60 53 23 40 74 240 75
293 0 54 -29 105 -74 131 -35 20 -55 21 -434 27 -401 7 -578 16 -753 42 -210
31 -244 59 -244 200 0 69 19 154 139 635 76 305 142 558 145 562 4 4 90 21
191 39 1548 260 2692 1250 3312 2864 95 247 150 428 278 905 114 427 255 769
417 1015 78 117 249 293 335 343 83 49 186 82 280 89 97 7 148 29 176 75 28
47 56 171 48 213 -9 47 -59 102 -104 116 -25 7 -195 9 -532 7 -477 -4 -498 -5
-575 -27 -515 -145 -876 -677 -1151 -1698 -29 -112 -79 -295 -109 -408 -135
-501 -326 -1000 -521 -1357 -477 -874 -1070 -1417 -1819 -1664 -55 -18 -101
-29 -103 -25 -1 5 340 1378 758 3052 840 3363 781 3146 892 3259 60 61 123 93
228 115 185 39 596 65 1035 65 339 0 339 0 395 230 35 148 34 184 -12 236 -47
53 -65 55 -364 44 -1065 -38 -2402 -37 -3684 5 -167 6 -188 5 -220 -12z"/>
</g>
</svg>
