<?xml version="1.0" standalone="no"?>
<!DOCTYPE svg PUBLIC "-//W3C//DTD SVG 20010904//EN"
 "http://www.w3.org/TR/2001/REC-SVG-20010904/DTD/svg10.dtd">
<svg version="1.0" xmlns="http://www.w3.org/2000/svg"
 width="369.000000pt" height="188.000000pt" viewBox="0 0 369.000000 188.000000"
 preserveAspectRatio="xMidYMid meet">
<metadata>
Created by potrace 1.16, written by Peter Selinger 2001-2019
</metadata>
<g transform="translate(0.000000,188.000000) scale(0.100000,-0.100000)"
fill="#000000" stroke="none">
<path d="M345 1861 c-25 -11 -95 -74 -182 -163 -157 -161 -174 -191 -153 -268
12 -45 12 -45 908 -916 266 -258 502 -479 524 -492 49 -26 87 -28 131 -6 18 9
489 315 1047 680 784 512 1019 670 1034 696 36 61 27 106 -57 279 -62 127 -83
161 -109 177 -57 34 -92 36 -150 9 -29 -13 -415 -227 -857 -476 -443 -248
-810 -450 -815 -447 -6 2 -276 212 -600 465 -544 425 -622 482 -671 481 -5 0
-28 -9 -50 -19z"/>
</g>
</svg>
