<?xml version="1.0" standalone="no"?>
<!DOCTYPE svg PUBLIC "-//W3C//DTD SVG 20010904//EN"
 "http://www.w3.org/TR/2001/REC-SVG-20010904/DTD/svg10.dtd">
<svg version="1.0" xmlns="http://www.w3.org/2000/svg"
 width="1346.000000pt" height="1260.000000pt" viewBox="0 0 1346.000000 1260.000000"
 preserveAspectRatio="xMidYMid meet">
<metadata>
Created by potrace 1.16, written by Peter Selinger 2001-2019
</metadata>
<g transform="translate(0.000000,1260.000000) scale(0.100000,-0.100000)"
fill="#000000" stroke="none">
<path d="M5920 12594 c-362 -34 -681 -118 -956 -253 -242 -118 -395 -223 -573
-396 -329 -318 -555 -777 -732 -1490 -38 -151 -162 -765 -280 -1377 l-53 -278
-588 0 c-642 0 -630 1 -679 -58 -27 -31 -89 -250 -89 -313 0 -42 35 -102 73
-125 30 -18 64 -19 607 -24 l575 -5 -362 -1880 c-512 -2663 -669 -3440 -873
-4325 -109 -472 -234 -973 -266 -1062 -127 -353 -323 -577 -521 -595 -80 -7
-219 13 -306 44 -70 25 -197 98 -197 112 0 4 19 13 43 20 98 30 200 93 287
181 95 95 141 165 181 279 70 198 58 366 -36 507 -109 165 -347 241 -580 185
-153 -37 -266 -103 -376 -219 -130 -135 -204 -318 -216 -532 -14 -248 66 -465
236 -643 95 -100 168 -152 301 -216 195 -94 411 -138 630 -128 158 7 275 38
425 111 154 76 279 168 430 320 481 482 790 1170 1120 2498 168 673 195 810
1057 5291 l11 57 1623 0 1624 0 -5 -22 c-3 -13 -169 -878 -370 -1923 -487
-2534 -590 -3044 -754 -3740 -149 -630 -282 -1070 -391 -1286 -101 -199 -351
-487 -562 -646 -225 -171 -438 -253 -656 -253 -154 0 -359 32 -492 77 -78 26
-210 91 -209 102 0 3 41 26 92 50 76 37 105 58 177 130 95 96 141 166 181 280
70 198 58 366 -36 507 -109 165 -347 241 -580 185 -153 -37 -266 -103 -376
-219 -239 -249 -285 -669 -108 -968 46 -79 179 -216 264 -274 284 -192 701
-294 1130 -277 537 22 1090 299 1580 791 363 365 554 693 787 1351 221 626
394 1354 708 2985 83 432 253 1316 378 1965 l227 1180 1503 3 c993 1 1502 -1
1502 -8 0 -5 -222 -900 -494 -1987 -272 -1088 -501 -2018 -510 -2068 -36 -214
-29 -425 19 -617 118 -469 442 -782 915 -884 129 -28 396 -26 505 4 101 28
260 106 346 172 161 122 314 321 441 573 147 294 249 591 393 1147 63 240 63
259 5 315 l-31 30 -172 3 c-248 4 -239 11 -312 -279 -165 -658 -309 -1056
-471 -1301 -71 -107 -171 -203 -252 -241 -60 -29 -76 -32 -157 -32 -104 1
-159 20 -213 75 -73 76 -102 176 -109 380 -6 170 9 331 52 540 13 63 478 1935
1034 4159 556 2224 1011 4053 1011 4065 0 32 -36 84 -72 106 -31 19 -51 20
-416 20 -419 0 -431 -2 -468 -58 -9 -14 -61 -199 -115 -411 -82 -327 -97 -377
-98 -329 -4 252 -137 487 -363 638 -289 194 -685 292 -1228 307 -873 23 -1561
-203 -2048 -672 -390 -374 -634 -905 -822 -1785 -17 -80 -82 -412 -145 -739
-63 -326 -116 -595 -118 -597 -2 -2 -733 -3 -1623 -2 l-1620 3 68 355 c137
712 259 1320 308 1530 100 432 193 734 282 920 44 92 61 115 133 186 169 166
411 295 660 352 342 79 774 38 1048 -99 l78 -40 -93 -46 c-75 -38 -108 -62
-178 -132 -95 -96 -141 -166 -181 -280 -70 -198 -58 -366 36 -507 131 -198
444 -261 710 -143 149 66 291 197 362 335 177 340 115 734 -153 985 -191 177
-514 308 -889 359 -83 11 -505 21 -585 14z m5020 -429 c213 -29 401 -80 519
-140 l45 -22 -85 -44 c-99 -51 -233 -178 -288 -272 -72 -123 -120 -314 -106
-425 21 -168 114 -302 256 -366 201 -92 432 -69 645 66 78 49 199 175 242 253
18 33 32 51 29 40 -2 -11 -140 -568 -308 -1237 l-304 -1218 -1517 0 c-967 0
-1518 3 -1518 10 0 12 209 1099 256 1330 150 737 264 1140 407 1430 52 107 71
135 132 195 225 222 573 370 975 414 117 13 481 5 620 -14z"/>
</g>
</svg>
