<?xml version="1.0" standalone="no"?>
<!DOCTYPE svg PUBLIC "-//W3C//DTD SVG 20010904//EN"
 "http://www.w3.org/TR/2001/REC-SVG-20010904/DTD/svg10.dtd">
<svg version="1.0" xmlns="http://www.w3.org/2000/svg"
 width="1106.000000pt" height="946.000000pt" viewBox="0 0 1106.000000 946.000000"
 preserveAspectRatio="xMidYMid meet">
<metadata>
Created by potrace 1.16, written by Peter Selinger 2001-2019
</metadata>
<g transform="translate(0.000000,946.000000) scale(0.100000,-0.100000)"
fill="#000000" stroke="none">
<path d="M2369 9439 c-20 -12 -44 -35 -54 -52 -23 -39 -74 -240 -75 -292 0
-54 29 -105 74 -131 35 -20 56 -21 399 -27 398 -7 737 -34 764 -60 9 -10
-1891 -7594 -1922 -7672 -91 -228 -264 -414 -490 -528 -196 -98 -496 -157
-800 -157 -156 0 -186 -29 -235 -230 -35 -145 -33 -182 8 -232 47 -56 69 -59
295 -48 759 38 1626 38 2464 -1 239 -11 253 -11 289 7 57 28 79 69 114 214 35
148 34 184 -12 236 -39 45 -68 51 -248 58 -266 10 -428 43 -572 118 -186 96
-261 255 -236 498 6 56 318 1323 901 3655 l893 3569 36 -99 c845 -2349 2936
-8134 2953 -8171 18 -36 36 -56 65 -73 38 -21 49 -22 209 -19 184 3 198 7 243
69 10 15 407 1584 1028 4068 655 2621 1022 4071 1042 4120 132 319 371 518
739 616 134 35 277 54 474 61 243 9 255 18 306 218 16 61 29 129 29 151 0 55
-29 106 -78 133 -40 22 -42 22 -229 12 -103 -5 -427 -15 -720 -22 -551 -12
-1260 -3 -1787 23 -228 12 -230 12 -271 -10 -54 -29 -72 -62 -106 -195 -34
-130 -36 -179 -10 -226 34 -64 70 -76 259 -83 347 -14 552 -72 694 -197 91
-79 136 -223 125 -391 -5 -69 -168 -732 -766 -3121 -417 -1668 -761 -3026
-764 -3018 -4 8 -587 1624 -1297 3590 -709 1966 -1298 3586 -1308 3600 -10 14
-34 33 -53 42 -32 17 -109 18 -1184 18 -1148 0 -1150 -1 -1186 -21z"/>
</g>
</svg>
