<?xml version="1.0" standalone="no"?>
<!DOCTYPE svg PUBLIC "-//W3C//DTD SVG 20010904//EN"
 "http://www.w3.org/TR/2001/REC-SVG-20010904/DTD/svg10.dtd">
<svg version="1.0" xmlns="http://www.w3.org/2000/svg"
 width="775.000000pt" height="1008.000000pt" viewBox="0 0 775.000000 1008.000000"
 preserveAspectRatio="xMidYMid meet">
<metadata>
Created by potrace 1.16, written by Peter Selinger 2001-2019
</metadata>
<g transform="translate(0.000000,1008.000000) scale(0.100000,-0.100000)"
fill="#000000" stroke="none">
<path d="M4715 10074 c-1096 -114 -2143 -901 -2669 -2006 -147 -307 -248 -644
-298 -993 -21 -142 -17 -564 5 -700 122 -734 519 -1254 1152 -1505 40 -16 450
-137 909 -270 460 -132 864 -251 898 -266 450 -188 694 -654 675 -1289 -6
-201 -23 -328 -69 -520 -187 -786 -737 -1505 -1402 -1830 -302 -148 -559 -194
-921 -166 -683 54 -1158 278 -1468 693 -159 213 -263 476 -314 800 -22 140
-25 579 -5 728 23 163 52 331 78 438 29 124 30 147 6 191 -33 61 -66 71 -242
71 -136 0 -159 -2 -187 -20 -18 -10 -39 -29 -47 -42 -18 -28 -816 -3215 -816
-3260 0 -45 34 -96 75 -114 45 -18 148 -18 188 1 21 10 168 175 406 455 206
242 377 440 381 440 4 0 32 -33 63 -72 74 -97 262 -281 364 -356 329 -242 749
-397 1243 -458 198 -25 627 -25 773 -1 648 109 1239 430 1766 958 633 634
1036 1456 1143 2329 20 160 16 547 -6 705 -22 157 -82 398 -129 522 -200 518
-540 867 -1031 1063 -41 16 -451 137 -911 269 -874 251 -933 272 -1075 366
-376 250 -556 775 -465 1355 81 513 330 988 724 1380 318 316 693 526 1074
602 146 29 439 31 620 5 453 -67 772 -256 992 -587 304 -457 387 -1169 244
-2108 -19 -129 -20 -134 -2 -170 10 -20 33 -47 52 -59 32 -21 45 -23 190 -23
179 0 213 10 244 70 17 34 817 3223 817 3257 0 29 -37 82 -72 103 -41 25 -154
28 -198 5 -16 -8 -194 -209 -395 -445 -201 -237 -369 -430 -373 -430 -4 0 -38
48 -77 107 -83 126 -259 311 -382 401 -259 190 -579 311 -958 362 -82 11 -499
21 -570 14z"/>
</g>
</svg>
