<?xml version="1.0" standalone="no"?>
<!DOCTYPE svg PUBLIC "-//W3C//DTD SVG 20010904//EN"
 "http://www.w3.org/TR/2001/REC-SVG-20010904/DTD/svg10.dtd">
<svg version="1.0" xmlns="http://www.w3.org/2000/svg"
 width="523.000000pt" height="1145.000000pt" viewBox="0 0 523.000000 1145.000000"
 preserveAspectRatio="xMidYMid meet">
<metadata>
Created by potrace 1.16, written by Peter Selinger 2001-2019
</metadata>
<g transform="translate(0.000000,1145.000000) scale(0.100000,-0.100000)"
fill="#000000" stroke="none">
<path d="M4617 11434 c-139 -33 -289 -128 -383 -242 -263 -319 -176 -736 175
-834 185 -51 416 17 583 171 210 194 280 470 173 681 -94 185 -323 279 -548
224z"/>
<path d="M3405 8590 c-505 -79 -966 -419 -1361 -1005 -180 -267 -332 -559
-461 -889 -59 -152 -62 -180 -21 -231 34 -44 75 -55 198 -55 121 0 168 13 194
52 8 12 47 104 86 203 309 776 707 1306 1131 1504 128 60 233 84 369 85 133 1
174 -10 232 -62 135 -122 163 -426 82 -872 -40 -219 -1337 -5393 -1395 -5564
-110 -326 -280 -651 -458 -876 -68 -85 -231 -251 -301 -305 -244 -188 -518
-267 -778 -221 -98 17 -233 63 -239 82 -2 6 17 19 43 29 71 27 188 110 244
173 59 66 133 208 156 301 11 45 15 95 12 166 -3 94 -6 108 -41 178 -150 302
-605 319 -893 32 -145 -144 -211 -325 -202 -552 9 -197 63 -318 208 -463 351
-350 1027 -398 1677 -120 677 291 1250 912 1483 1609 57 171 1325 5249 1346
5391 20 136 14 392 -11 505 -105 470 -405 785 -845 886 -98 23 -359 33 -455
19z"/>
</g>
</svg>
