<?xml version="1.0" standalone="no"?>
<!DOCTYPE svg PUBLIC "-//W3C//DTD SVG 20010904//EN"
 "http://www.w3.org/TR/2001/REC-SVG-20010904/DTD/svg10.dtd">
<svg version="1.0" xmlns="http://www.w3.org/2000/svg"
 width="190.000000pt" height="256.000000pt" viewBox="0 0 190.000000 256.000000"
 preserveAspectRatio="xMidYMid meet">
<metadata>
Created by potrace 1.16, written by Peter Selinger 2001-2019
</metadata>
<g transform="translate(0.000000,256.000000) scale(0.100000,-0.100000)"
fill="#000000" stroke="none">
<path d="M480 2554 c-120 -23 -232 -87 -326 -187 -153 -161 -190 -335 -106
-499 37 -71 1437 -1825 1476 -1849 18 -11 50 -19 77 -19 40 0 57 8 131 59 101
71 145 118 153 165 9 44 27 5 -554 1201 -437 899 -475 973 -523 1022 -66 66
-145 103 -236 108 -37 2 -78 1 -92 -1z"/>
</g>
</svg>
