<?xml version="1.0" standalone="no"?>
<!DOCTYPE svg PUBLIC "-//W3C//DTD SVG 20010904//EN"
 "http://www.w3.org/TR/2001/REC-SVG-20010904/DTD/svg10.dtd">
<svg version="1.0" xmlns="http://www.w3.org/2000/svg"
 width="1058.000000pt" height="908.000000pt" viewBox="0 0 1058.000000 908.000000"
 preserveAspectRatio="xMidYMid meet">
<metadata>
Created by potrace 1.16, written by Peter Selinger 2001-2019
</metadata>
<g transform="translate(0.000000,908.000000) scale(0.100000,-0.100000)"
fill="#000000" stroke="none">
<path d="M2282 9063 c-18 -9 -41 -28 -52 -43 -27 -38 -73 -226 -65 -267 7 -40
54 -97 92 -111 16 -6 163 -13 348 -16 176 -3 372 -10 435 -16 142 -13 292 -38
304 -50 13 -13 -1815 -7318 -1859 -7427 -66 -163 -175 -313 -299 -412 -219
-173 -557 -271 -944 -271 -139 0 -175 -33 -216 -195 -30 -122 -26 -162 21
-207 52 -48 58 -49 265 -38 106 5 412 15 679 21 501 12 1170 3 1647 -22 117
-6 228 -8 247 -5 20 4 50 21 69 40 28 29 38 51 61 144 30 123 28 155 -12 203
-40 47 -73 59 -163 59 -234 0 -456 41 -596 109 -186 92 -263 237 -251 475 5
89 94 454 873 3570 477 1909 870 3474 874 3479 3 4 656 -1789 1449 -3985 794
-2196 1451 -4006 1460 -4022 35 -63 58 -71 214 -74 135 -3 144 -2 176 20 19
13 42 34 52 48 12 16 384 1490 989 3908 663 2654 981 3910 1005 3969 66 163
175 313 299 412 219 173 557 271 944 271 139 0 175 33 216 195 30 122 26 162
-21 207 -52 48 -58 49 -265 38 -106 -5 -412 -15 -679 -21 -501 -12 -1170 -3
-1647 22 -117 6 -228 8 -247 5 -20 -4 -50 -21 -69 -40 -28 -29 -38 -51 -61
-144 -30 -123 -28 -155 12 -203 40 -47 73 -59 163 -59 234 0 456 -41 596 -109
186 -92 263 -237 251 -475 -5 -88 -82 -407 -748 -3069 -583 -2332 -744 -2965
-751 -2946 -5 13 -574 1586 -1264 3494 -690 1909 -1263 3481 -1272 3494 -10
13 -33 32 -52 42 -33 18 -82 19 -1105 19 -965 0 -1073 -2 -1103 -17z"/>
</g>
</svg>
