<?xml version="1.0" standalone="no"?>
<!DOCTYPE svg PUBLIC "-//W3C//DTD SVG 20010904//EN"
 "http://www.w3.org/TR/2001/REC-SVG-20010904/DTD/svg10.dtd">
<svg version="1.0" xmlns="http://www.w3.org/2000/svg"
 width="434.000000pt" height="270.000000pt" viewBox="0 0 434.000000 270.000000"
 preserveAspectRatio="xMidYMid meet">
<metadata>
Created by potrace 1.16, written by Peter Selinger 2001-2019
</metadata>
<g transform="translate(0.000000,270.000000) scale(0.100000,-0.100000)"
fill="#000000" stroke="none">
<path d="M1655 2693 c-168 -22 -348 -140 -448 -293 -20 -30 -300 -509 -622
-1065 l-586 -1010 4 -53 c2 -32 12 -64 24 -80 11 -16 83 -61 174 -109 172 -92
211 -101 278 -62 22 13 199 214 476 541 242 286 599 707 793 936 370 437 413
498 447 628 43 164 -8 334 -133 445 -102 91 -268 140 -407 122z"/>
<path d="M3775 2693 c-168 -22 -348 -140 -448 -293 -20 -30 -300 -509 -622
-1065 l-586 -1010 4 -53 c2 -32 12 -64 24 -80 11 -16 83 -61 174 -109 172 -92
211 -101 278 -62 22 13 199 214 476 541 242 286 599 707 793 936 370 437 413
498 447 628 43 164 -8 334 -133 445 -102 91 -268 140 -407 122z"/>
</g>
</svg>
