<?xml version="1.0" standalone="no"?>
<!DOCTYPE svg PUBLIC "-//W3C//DTD SVG 20010904//EN"
 "http://www.w3.org/TR/2001/REC-SVG-20010904/DTD/svg10.dtd">
<svg version="1.0" xmlns="http://www.w3.org/2000/svg"
 width="814.000000pt" height="814.000000pt" viewBox="0 0 814.000000 814.000000"
 preserveAspectRatio="xMidYMid meet">
<metadata>
Created by potrace 1.16, written by Peter Selinger 2001-2019
</metadata>
<g transform="translate(0.000000,814.000000) scale(0.100000,-0.100000)"
fill="#000000" stroke="none">
<path d="M4941 8129 c-19 -6 -53 -23 -76 -39 -89 -61 -58 48 -553 -1932 l-455
-1818 -1831 -2 c-1798 -3 -1832 -3 -1871 -23 -50 -25 -105 -80 -130 -130 -27
-55 -27 -175 0 -230 25 -50 80 -105 130 -130 39 -20 73 -20 1803 -23 969 -1
1762 -4 1762 -7 0 -3 -196 -788 -435 -1745 -239 -957 -435 -1757 -435 -1778 0
-214 241 -344 420 -226 91 60 58 -54 545 1895 245 981 450 1801 456 1821 l10
38 1827 2 c1794 3 1828 3 1867 23 50 25 105 80 130 130 27 55 27 175 0 230
-25 50 -80 105 -130 130 -39 20 -73 20 -1797 23 -1156 1 -1758 6 -1758 12 0 6
196 794 436 1753 471 1882 451 1792 408 1883 -24 49 -79 105 -129 128 -46 22
-146 30 -194 15z"/>
</g>
</svg>
