<?xml version="1.0" standalone="no"?>
<!DOCTYPE svg PUBLIC "-//W3C//DTD SVG 20010904//EN"
 "http://www.w3.org/TR/2001/REC-SVG-20010904/DTD/svg10.dtd">
<svg version="1.0" xmlns="http://www.w3.org/2000/svg"
 width="883.000000pt" height="991.000000pt" viewBox="0 0 883.000000 991.000000"
 preserveAspectRatio="xMidYMid meet">
<metadata>
Created by potrace 1.16, written by Peter Selinger 2001-2019
</metadata>
<g transform="translate(0.000000,991.000000) scale(0.100000,-0.100000)"
fill="#000000" stroke="none">
<path d="M5365 9904 c-1240 -99 -2503 -765 -3517 -1858 -941 -1014 -1570
-2284 -1782 -3597 -54 -332 -61 -426 -61 -859 0 -425 6 -505 56 -800 159 -924
616 -1708 1279 -2197 411 -303 899 -495 1446 -570 157 -21 755 -24 1004 -5
1210 95 2337 383 3470 887 305 136 396 183 415 212 44 66 22 159 -46 195 -31
16 -64 18 -380 18 l-347 0 -119 -51 c-974 -419 -1931 -664 -2913 -744 -793
-65 -1258 -3 -1735 229 -244 120 -424 246 -624 441 -480 466 -767 1101 -868
1915 -22 182 -25 746 -5 940 79 762 285 1466 637 2175 796 1606 2234 2822
3670 3104 218 42 352 55 600 55 329 0 560 -34 823 -121 943 -312 1582 -1134
1771 -2278 86 -521 69 -1118 -50 -1719 -68 -343 -292 -1185 -409 -1536 -255
-765 -555 -1207 -894 -1318 -96 -32 -222 -40 -269 -17 -100 47 -120 268 -52
580 13 61 222 903 464 1872 243 970 441 1778 441 1795 0 45 -19 78 -59 105
-33 23 -39 23 -315 23 l-281 0 -33 93 c-252 697 -799 1126 -1472 1154 -728 30
-1555 -354 -2216 -1029 -663 -677 -1092 -1552 -1220 -2493 -26 -189 -26 -631
0 -810 56 -390 191 -753 388 -1037 418 -603 1149 -888 1893 -737 403 82 890
340 1266 670 l66 59 18 -66 c75 -277 297 -513 587 -621 252 -95 543 -108 807
-38 273 73 473 194 701 424 280 281 499 648 717 1201 205 519 451 1408 532
1920 129 814 75 1589 -157 2270 -182 530 -453 967 -823 1325 -216 209 -443
370 -708 504 -334 169 -659 268 -1031 316 -120 16 -551 28 -665 19z m-57
-2409 c34 -8 98 -29 142 -45 207 -80 408 -271 547 -520 74 -132 153 -372 187
-565 l14 -80 -324 -1300 -325 -1300 -67 -99 c-427 -627 -1000 -1069 -1519
-1173 -121 -24 -335 -24 -423 0 -551 149 -841 966 -704 1982 133 984 568 1926
1179 2554 327 336 634 517 960 565 57 8 270 -4 333 -19z"/>
</g>
</svg>
