<?xml version="1.0" standalone="no"?>
<!DOCTYPE svg PUBLIC "-//W3C//DTD SVG 20010904//EN"
 "http://www.w3.org/TR/2001/REC-SVG-20010904/DTD/svg10.dtd">
<svg version="1.0" xmlns="http://www.w3.org/2000/svg"
 width="944.000000pt" height="992.000000pt" viewBox="0 0 944.000000 992.000000"
 preserveAspectRatio="xMidYMid meet">
<metadata>
Created by potrace 1.16, written by Peter Selinger 2001-2019
</metadata>
<g transform="translate(0.000000,992.000000) scale(0.100000,-0.100000)"
fill="#000000" stroke="none">
<path d="M6911 9905 c-73 -23 -143 -79 -203 -163 -241 -336 -6684 -9594 -6694
-9620 -18 -40 -9 -76 23 -102 26 -20 53 -20 4652 -20 4384 0 4628 1 4661 18
40 20 80 74 80 110 0 57 -1892 9649 -1912 9689 -21 46 -53 73 -107 91 -50 18
-443 15 -500 -3z m185 -5178 c386 -1964 701 -3573 700 -3575 -2 -1 -1440 -1
-3198 0 l-3194 3 2490 3576 c1370 1967 2493 3575 2495 3573 2 -2 320 -1612
707 -3577z"/>
</g>
</svg>
