<?xml version="1.0" standalone="no"?>
<!DOCTYPE svg PUBLIC "-//W3C//DTD SVG 20010904//EN"
 "http://www.w3.org/TR/2001/REC-SVG-20010904/DTD/svg10.dtd">
<svg version="1.0" xmlns="http://www.w3.org/2000/svg"
 width="356.000000pt" height="156.000000pt" viewBox="0 0 356.000000 156.000000"
 preserveAspectRatio="xMidYMid meet">
<metadata>
Created by potrace 1.16, written by Peter Selinger 2001-2019
</metadata>
<g transform="translate(0.000000,156.000000) scale(0.100000,-0.100000)"
fill="#000000" stroke="none">
<path d="M1718 1031 c-889 -291 -1630 -537 -1647 -547 -17 -10 -40 -37 -52
-60 -22 -40 -22 -44 -10 -168 13 -138 21 -169 53 -203 29 -31 101 -57 135 -48
75 18 3252 1059 3278 1074 17 9 40 37 53 63 l23 46 -15 132 c-16 139 -30 177
-78 213 -65 48 7 69 -1740 -502z"/>
</g>
</svg>
