<?xml version="1.0" standalone="no"?>
<!DOCTYPE svg PUBLIC "-//W3C//DTD SVG 20010904//EN"
 "http://www.w3.org/TR/2001/REC-SVG-20010904/DTD/svg10.dtd">
<svg version="1.0" xmlns="http://www.w3.org/2000/svg"
 width="1084.000000pt" height="1260.000000pt" viewBox="0 0 1084.000000 1260.000000"
 preserveAspectRatio="xMidYMid meet">
<metadata>
Created by potrace 1.16, written by Peter Selinger 2001-2019
</metadata>
<g transform="translate(0.000000,1260.000000) scale(0.100000,-0.100000)"
fill="#000000" stroke="none">
<path d="M5877 12590 c-769 -74 -1402 -423 -1759 -970 -138 -210 -268 -501
-363 -805 -99 -318 -151 -551 -320 -1430 -58 -302 -108 -558 -111 -567 -5 -17
-42 -18 -596 -18 -581 0 -591 0 -628 -21 -20 -11 -45 -35 -55 -51 -24 -41 -75
-241 -75 -297 0 -56 30 -106 81 -131 37 -19 61 -20 604 -20 311 0 565 -2 565
-5 0 -13 -738 -3838 -821 -4255 -266 -1339 -591 -2775 -685 -3029 -102 -272
-254 -481 -402 -548 -137 -64 -394 -26 -556 82 -31 20 -56 40 -56 44 0 4 19
13 43 20 98 30 200 93 287 181 95 95 141 165 181 279 70 198 58 366 -36 507
-109 165 -347 241 -580 185 -153 -37 -266 -103 -376 -219 -130 -135 -204 -318
-216 -532 -9 -174 26 -330 110 -480 58 -103 223 -268 333 -332 210 -123 477
-187 728 -175 441 20 863 335 1229 916 94 149 242 449 322 651 133 333 290
850 420 1375 152 619 208 894 680 3345 206 1070 377 1955 380 1968 l5 22 1550
0 c853 0 1550 -3 1550 -6 0 -9 -680 -3543 -771 -4004 -321 -1641 -558 -2593
-734 -2955 -150 -309 -481 -658 -761 -802 -189 -97 -343 -120 -586 -88 -142
19 -241 46 -343 95 -132 63 -132 58 -19 114 82 41 112 63 183 135 96 96 142
166 182 280 70 198 58 366 -36 507 -109 165 -347 241 -580 185 -153 -37 -266
-103 -376 -219 -90 -93 -148 -199 -186 -338 -37 -135 -39 -319 -5 -437 96
-336 382 -573 827 -686 169 -43 272 -54 490 -55 182 -1 225 2 324 22 232 47
507 158 721 292 321 200 701 563 897 857 359 537 654 1448 968 2993 31 151
220 1128 420 2170 201 1042 367 1905 370 1918 l5 22 701 0 c693 0 702 0 739
21 20 11 45 35 55 51 24 41 75 241 75 297 0 56 -30 106 -81 131 -37 19 -61 20
-715 20 l-676 0 5 23 c3 12 71 364 152 782 304 1580 418 2078 509 2218 141
220 307 351 462 364 129 11 310 -23 442 -83 106 -48 164 -94 118 -94 -8 0 -56
-21 -107 -47 -76 -38 -109 -62 -179 -132 -95 -96 -141 -166 -181 -280 -70
-198 -58 -366 36 -507 109 -165 347 -241 580 -185 153 37 266 103 376 219 89
93 148 199 184 333 83 312 9 604 -210 825 -132 133 -276 219 -475 284 -218 71
-511 98 -711 66 -244 -40 -518 -164 -729 -329 -369 -288 -567 -594 -753 -1164
-132 -403 -200 -704 -445 -1983 l-58 -305 -1553 -3 -1553 -2 6 27 c3 16 58
296 121 623 187 972 259 1310 350 1637 106 381 197 594 295 692 276 276 692
427 1120 408 244 -11 457 -60 620 -142 l71 -36 -93 -46 c-75 -38 -108 -62
-178 -132 -95 -96 -141 -166 -181 -280 -70 -198 -58 -366 36 -507 131 -198
444 -261 710 -143 149 66 291 197 362 335 81 155 117 360 93 519 -66 435 -457
723 -1115 821 -118 18 -520 26 -648 14z"/>
</g>
</svg>
