<?xml version="1.0" standalone="no"?>
<!DOCTYPE svg PUBLIC "-//W3C//DTD SVG 20010904//EN"
 "http://www.w3.org/TR/2001/REC-SVG-20010904/DTD/svg10.dtd">
<svg version="1.0" xmlns="http://www.w3.org/2000/svg"
 width="1273.000000pt" height="977.000000pt" viewBox="0 0 1273.000000 977.000000"
 preserveAspectRatio="xMidYMid meet">
<metadata>
Created by potrace 1.16, written by Peter Selinger 2001-2019
</metadata>
<g transform="translate(0.000000,977.000000) scale(0.100000,-0.100000)"
fill="#000000" stroke="none">
<path d="M160 9753 c-19 -10 -44 -32 -56 -50 -24 -36 -104 -343 -104 -400 0
-53 30 -104 76 -130 36 -21 52 -23 206 -23 305 0 576 -28 650 -66 35 -18 68
-81 74 -142 3 -26 83 -2022 179 -4435 162 -4097 175 -4390 193 -4425 12 -23
35 -45 63 -60 43 -23 50 -23 259 -20 l215 3 54 30 c30 16 67 46 83 65 16 19
842 1540 1835 3380 992 1840 1808 3348 1811 3352 4 4 67 -1503 140 -3349 99
-2501 136 -3364 146 -3387 16 -37 51 -71 89 -85 17 -7 110 -11 226 -11 238 0
269 8 346 84 46 46 281 477 2260 4146 1214 2252 2218 4106 2230 4120 12 14 40
57 63 96 108 187 269 361 433 470 217 144 452 215 764 230 149 7 190 22 222
83 11 20 39 114 63 208 47 194 47 222 -1 278 -44 50 -74 56 -224 45 -71 -5
-313 -15 -537 -21 -426 -14 -1220 -4 -1798 22 -253 12 -256 11 -298 -10 -23
-12 -49 -32 -58 -46 -19 -30 -103 -356 -104 -403 0 -49 32 -104 76 -128 31
-17 64 -23 159 -28 225 -11 402 -57 525 -137 185 -119 232 -261 154 -462 -35
-89 -3352 -6252 -3361 -6243 -4 4 -263 6454 -263 6554 0 37 6 49 45 91 55 58
114 91 225 125 171 51 388 76 658 76 224 0 233 9 302 287 47 191 47 221 3 274
-49 58 -65 60 -345 49 -957 -38 -1946 -38 -2774 1 -245 11 -251 11 -291 -9
-22 -12 -48 -33 -57 -47 -21 -32 -106 -355 -106 -404 0 -46 36 -105 79 -129
32 -18 62 -20 301 -25 381 -9 531 -31 582 -87 15 -16 32 -46 37 -67 6 -21 20
-261 32 -534 l20 -496 -1528 -2831 c-840 -1557 -1530 -2828 -1533 -2826 -5 6
-259 6346 -260 6500 0 100 0 100 34 140 109 127 443 204 888 204 227 0 236 8
302 277 50 204 50 229 4 288 -42 53 -64 56 -330 45 -788 -31 -1925 -36 -2538
-10 -124 5 -288 12 -365 15 -123 6 -144 4 -175 -12z"/>
</g>
</svg>
