<?xml version="1.0" standalone="no"?>
<!DOCTYPE svg PUBLIC "-//W3C//DTD SVG 20010904//EN"
 "http://www.w3.org/TR/2001/REC-SVG-20010904/DTD/svg10.dtd">
<svg version="1.0" xmlns="http://www.w3.org/2000/svg"
 width="936.000000pt" height="1023.000000pt" viewBox="0 0 936.000000 1023.000000"
 preserveAspectRatio="xMidYMid meet">
<metadata>
Created by potrace 1.16, written by Peter Selinger 2001-2019
</metadata>
<g transform="translate(0.000000,1023.000000) scale(0.100000,-0.100000)"
fill="#000000" stroke="none">
<path d="M3874 10215 c-467 -67 -961 -321 -1398 -720 -578 -528 -1021 -1284
-1225 -2090 -68 -268 -96 -453 -110 -708 -19 -349 22 -694 117 -978 l18 -56
-94 -109 c-509 -591 -893 -1333 -1091 -2109 -74 -291 -85 -383 -85 -690 0
-302 12 -406 79 -650 259 -944 1082 -1673 2213 -1960 375 -95 656 -131 1087
-142 447 -10 879 26 1285 108 1240 251 2220 889 2875 1874 145 219 216 344
336 590 264 543 425 1094 501 1705 8 67 13 219 12 420 0 270 -3 336 -22 457
-40 264 -102 500 -189 723 -98 251 -284 577 -455 802 l-61 80 34 27 c188 146
489 439 654 636 474 567 802 1194 971 1854 61 241 4 435 -164 552 -110 77
-287 107 -438 75 -45 -10 -123 -39 -182 -67 -87 -42 -115 -62 -185 -132 -65
-64 -93 -102 -129 -172 -191 -371 -66 -707 290 -782 42 -9 79 -18 81 -19 2 -2
-24 -59 -57 -128 -285 -589 -736 -1130 -1276 -1531 -65 -48 -265 -183 -445
-300 -179 -116 -400 -261 -491 -322 -795 -531 -1162 -974 -1281 -1543 -28
-134 -30 -365 -5 -480 73 -327 245 -555 516 -684 124 -59 236 -86 385 -93 102
-5 133 -3 205 16 226 56 405 205 500 415 48 106 62 178 58 301 -3 102 -6 115
-40 187 -44 92 -104 155 -187 198 -171 86 -390 78 -585 -22 -100 -52 -245
-191 -293 -282 l-31 -59 -10 69 c-22 137 -23 172 -12 273 46 417 253 725 732
1087 159 119 320 227 677 449 l254 159 29 -34 c101 -122 248 -351 333 -520
148 -295 227 -554 277 -910 20 -147 17 -610 -5 -780 -73 -548 -263 -1157 -515
-1650 -599 -1177 -1589 -1874 -2952 -2079 -271 -41 -472 -55 -795 -55 -326 -1
-423 6 -670 49 -434 75 -816 241 -1116 483 -104 84 -261 250 -336 356 -120
169 -226 414 -271 627 -41 191 -47 267 -47 549 1 381 20 512 155 1048 87 351
181 675 256 892 56 163 178 468 193 483 5 4 32 -13 62 -38 193 -166 444 -285
730 -346 139 -30 426 -33 535 -7 273 67 481 186 689 393 178 177 297 367 370
589 131 399 57 791 -191 1027 -107 100 -209 157 -361 201 -110 32 -383 32
-554 0 -323 -60 -685 -208 -972 -397 l-28 -18 6 64 c42 401 211 1140 377 1649
233 716 556 1220 987 1541 226 168 465 259 680 259 156 0 343 -45 460 -111
298 -168 468 -484 505 -936 l6 -73 -57 0 c-140 0 -334 -74 -455 -174 -235
-195 -335 -556 -217 -788 12 -23 44 -66 72 -95 232 -245 701 -185 950 122 63
78 130 218 156 325 164 687 23 1337 -379 1740 -189 189 -418 310 -702 371
-125 27 -403 34 -544 14z m-386 -3903 c204 -78 254 -284 162 -659 -95 -389
-275 -622 -555 -719 -71 -25 -94 -28 -210 -28 -105 0 -145 4 -210 23 -217 61
-396 219 -510 447 -71 144 -72 139 36 272 322 399 665 631 1014 686 67 10 220
-2 273 -22z"/>
</g>
</svg>
