<?xml version="1.0" standalone="no"?>
<!DOCTYPE svg PUBLIC "-//W3C//DTD SVG 20010904//EN"
 "http://www.w3.org/TR/2001/REC-SVG-20010904/DTD/svg10.dtd">
<svg version="1.0" xmlns="http://www.w3.org/2000/svg"
 width="401.000000pt" height="242.000000pt" viewBox="0 0 401.000000 242.000000"
 preserveAspectRatio="xMidYMid meet">
<metadata>
Created by potrace 1.16, written by Peter Selinger 2001-2019
</metadata>
<g transform="translate(0.000000,242.000000) scale(0.100000,-0.100000)"
fill="#000000" stroke="none">
<path d="M170 2409 c-63 -25 -84 -65 -116 -216 -85 -402 -70 -823 42 -1168 35
-106 120 -285 179 -376 175 -270 414 -459 713 -563 181 -63 298 -81 527 -81
212 1 302 12 494 61 754 195 1479 869 1837 1709 68 161 145 400 151 472 10
117 -54 173 -197 173 -134 0 -175 -29 -210 -154 -245 -857 -997 -1545 -1807
-1651 -549 -72 -1008 148 -1231 590 -123 245 -158 608 -92 937 25 122 25 162
-1 205 -33 53 -83 73 -181 72 -46 0 -94 -5 -108 -10z"/>
</g>
</svg>
