<?xml version="1.0" standalone="no"?>
<!DOCTYPE svg PUBLIC "-//W3C//DTD SVG 20010904//EN"
 "http://www.w3.org/TR/2001/REC-SVG-20010904/DTD/svg10.dtd">
<svg version="1.0" xmlns="http://www.w3.org/2000/svg"
 width="992.000000pt" height="946.000000pt" viewBox="0 0 992.000000 946.000000"
 preserveAspectRatio="xMidYMid meet">
<metadata>
Created by potrace 1.16, written by Peter Selinger 2001-2019
</metadata>
<g transform="translate(0.000000,946.000000) scale(0.100000,-0.100000)"
fill="#000000" stroke="none">
<path d="M2385 9446 c-57 -25 -80 -65 -114 -200 -17 -69 -31 -139 -31 -156 0
-48 33 -103 78 -128 38 -21 51 -22 243 -22 339 0 658 -25 781 -60 20 -6 47
-19 60 -29 21 -18 23 -26 22 -123 -1 -102 -8 -131 -971 -3978 -1061 -4240
-991 -3979 -1092 -4080 -103 -103 -295 -135 -866 -147 -425 -8 -405 3 -464
-241 l-34 -139 24 -49 c13 -26 37 -57 52 -68 l28 -21 2412 0 c2551 0 2455 -2
2742 46 980 162 2040 776 2854 1653 457 492 806 993 1101 1576 385 764 612
1561 681 2395 18 211 15 652 -5 855 -122 1249 -709 2204 -1631 2655 -266 130
-508 204 -825 252 -107 16 -292 17 -2565 20 -2030 2 -2455 0 -2480 -11z m4525
-530 c156 -26 272 -54 398 -98 617 -212 1054 -676 1241 -1319 86 -298 115
-551 108 -954 -10 -543 -87 -1017 -312 -1915 -201 -801 -377 -1319 -609 -1795
-126 -257 -195 -380 -341 -600 -412 -619 -931 -1078 -1569 -1385 -324 -156
-636 -252 -1000 -307 -96 -14 -235 -17 -1031 -20 -904 -4 -1063 0 -1144 28
l-34 12 6 86 c4 70 193 837 996 4050 638 2548 1003 3991 1023 4039 55 133 116
173 292 192 39 4 476 7 971 6 804 -2 911 -4 1005 -20z"/>
</g>
</svg>
