<?xml version="1.0" standalone="no"?>
<!DOCTYPE svg PUBLIC "-//W3C//DTD SVG 20010904//EN"
 "http://www.w3.org/TR/2001/REC-SVG-20010904/DTD/svg10.dtd">
<svg version="1.0" xmlns="http://www.w3.org/2000/svg"
 width="484.000000pt" height="425.000000pt" viewBox="0 0 484.000000 425.000000"
 preserveAspectRatio="xMidYMid meet">
<metadata>
Created by potrace 1.16, written by Peter Selinger 2001-2019
</metadata>
<g transform="translate(0.000000,425.000000) scale(0.100000,-0.100000)"
fill="#000000" stroke="none">
<path d="M1336 4234 c-368 -73 -662 -353 -761 -724 -30 -116 -35 -285 -9 -384
51 -196 184 -335 389 -403 73 -25 93 -27 235 -27 139 1 164 3 245 28 105 32
196 72 260 116 25 17 45 27 45 23 0 -18 -72 -275 -100 -358 -125 -369 -330
-770 -566 -1105 -234 -334 -531 -655 -844 -914 -190 -157 -217 -185 -225 -230
-9 -47 7 -84 72 -169 71 -92 136 -109 215 -57 165 110 586 505 800 753 498
577 861 1261 1032 1943 204 816 35 1389 -445 1504 -98 23 -238 25 -343 4z"/>
<path d="M3956 4234 c-368 -73 -662 -353 -761 -724 -30 -116 -35 -285 -9 -384
51 -196 184 -335 389 -403 73 -25 93 -27 235 -27 139 1 164 3 245 28 105 32
196 72 260 116 25 17 45 27 45 23 0 -18 -72 -275 -100 -358 -125 -369 -330
-770 -566 -1105 -234 -334 -531 -655 -844 -914 -190 -157 -217 -185 -225 -230
-9 -47 7 -84 72 -169 71 -92 136 -109 215 -57 165 110 586 505 800 753 498
577 861 1261 1032 1943 204 816 35 1389 -445 1504 -98 23 -238 25 -343 4z"/>
</g>
</svg>
