<?xml version="1.0" standalone="no"?>
<!DOCTYPE svg PUBLIC "-//W3C//DTD SVG 20010904//EN"
 "http://www.w3.org/TR/2001/REC-SVG-20010904/DTD/svg10.dtd">
<svg version="1.0" xmlns="http://www.w3.org/2000/svg"
 width="917.000000pt" height="1008.000000pt" viewBox="0 0 917.000000 1008.000000"
 preserveAspectRatio="xMidYMid meet">
<metadata>
Created by potrace 1.16, written by Peter Selinger 2001-2019
</metadata>
<g transform="translate(0.000000,1008.000000) scale(0.100000,-0.100000)"
fill="#000000" stroke="none">
<path d="M5525 10069 c-1323 -108 -2723 -869 -3770 -2049 -985 -1110 -1598
-2468 -1735 -3850 -18 -179 -24 -619 -11 -805 52 -738 263 -1391 622 -1930
138 -206 213 -299 379 -468 257 -263 488 -434 815 -603 699 -360 1559 -459
2337 -268 610 150 1181 448 1733 905 136 112 519 497 641 644 487 587 844
1259 1039 1957 41 147 42 162 15 206 -41 67 -61 72 -288 72 -281 0 -280 0
-332 -190 -224 -826 -676 -1597 -1276 -2180 -498 -484 -1043 -775 -1626 -866
-155 -25 -514 -25 -683 0 -529 76 -942 270 -1284 601 -358 347 -572 788 -655
1351 -41 281 -50 665 -21 989 45 517 184 1209 376 1880 347 1210 827 2094
1504 2770 607 608 1339 1013 2100 1164 212 42 352 55 585 55 327 0 490 -34
726 -149 776 -377 1108 -1503 893 -3022 -22 -150 -22 -151 -2 -185 10 -18 34
-43 53 -55 32 -22 42 -23 239 -23 232 0 259 7 293 71 18 36 968 3824 968 3861
0 33 -35 85 -72 108 -26 16 -51 20 -115 20 -45 0 -94 -5 -108 -12 -15 -6 -256
-254 -537 -550 l-510 -538 -63 95 c-35 52 -85 123 -111 157 -70 92 -277 301
-369 373 -309 242 -658 389 -1066 451 -125 19 -524 27 -684 13z"/>
</g>
</svg>
