<?xml version="1.0" standalone="no"?>
<!DOCTYPE svg PUBLIC "-//W3C//DTD SVG 20010904//EN"
 "http://www.w3.org/TR/2001/REC-SVG-20010904/DTD/svg10.dtd">
<svg version="1.0" xmlns="http://www.w3.org/2000/svg"
 width="659.000000pt" height="1260.000000pt" viewBox="0 0 659.000000 1260.000000"
 preserveAspectRatio="xMidYMid meet">
<metadata>
Created by potrace 1.16, written by Peter Selinger 2001-2019
</metadata>
<g transform="translate(0.000000,1260.000000) scale(0.100000,-0.100000)"
fill="#000000" stroke="none">
<path d="M5238 12585 c-197 -37 -434 -142 -617 -273 -113 -80 -298 -255 -388
-366 -214 -268 -383 -665 -533 -1256 -80 -314 -125 -532 -314 -1510 l-72 -375
-599 -5 c-448 -4 -605 -8 -621 -17 -49 -28 -71 -70 -103 -197 -17 -69 -31
-140 -31 -157 0 -45 36 -103 80 -128 37 -21 46 -21 605 -21 l567 0 -7 -37
c-50 -277 -737 -3823 -825 -4263 -190 -952 -341 -1646 -521 -2401 -108 -455
-126 -520 -184 -663 -130 -322 -319 -506 -521 -506 -70 0 -211 26 -278 50 -58
22 -176 94 -176 108 0 5 19 14 43 21 98 30 200 93 287 181 95 95 141 165 181
279 70 198 58 366 -36 507 -109 165 -347 241 -580 185 -153 -37 -266 -103
-376 -219 -90 -93 -147 -199 -186 -338 -24 -87 -27 -117 -27 -244 -1 -159 15
-237 73 -364 151 -334 522 -551 978 -573 209 -10 369 27 562 128 266 139 547
424 771 781 92 146 245 455 319 642 235 595 447 1389 681 2541 39 193 235
1203 436 2245 201 1042 368 1905 371 1918 l5 22 694 0 c757 0 736 -2 785 58
27 31 89 250 89 313 0 45 -36 103 -80 128 -37 21 -44 21 -714 21 l-676 0 5 23
c3 12 65 337 140 722 262 1360 384 1936 460 2170 64 196 255 414 403 461 135
42 420 -25 546 -128 l28 -24 -43 -13 c-100 -30 -202 -93 -289 -181 -95 -95
-141 -165 -181 -279 -70 -198 -58 -366 36 -507 109 -165 347 -241 580 -185
153 37 266 103 376 219 199 207 271 552 177 842 -107 332 -391 560 -811 651
-124 27 -382 34 -489 14z"/>
</g>
</svg>
