<?xml version="1.0" standalone="no"?>
<!DOCTYPE svg PUBLIC "-//W3C//DTD SVG 20010904//EN"
 "http://www.w3.org/TR/2001/REC-SVG-20010904/DTD/svg10.dtd">
<svg version="1.0" xmlns="http://www.w3.org/2000/svg"
 width="618.000000pt" height="895.000000pt" viewBox="0 0 618.000000 895.000000"
 preserveAspectRatio="xMidYMid meet">
<metadata>
Created by potrace 1.16, written by Peter Selinger 2001-2019
</metadata>
<g transform="translate(0.000000,895.000000) scale(0.100000,-0.100000)"
fill="#000000" stroke="none">
<path d="M3810 8939 c-586 -68 -1208 -398 -1730 -919 -688 -686 -1136 -1591
-1277 -2580 -26 -184 -26 -706 1 -875 81 -531 297 -978 617 -1279 404 -380
993 -533 1529 -395 278 72 601 238 855 440 41 32 75 57 75 54 0 -3 -86 -348
-191 -767 -199 -799 -228 -894 -328 -1083 -240 -456 -633 -816 -1043 -954
-178 -60 -226 -66 -533 -65 -280 0 -447 11 -625 41 -127 21 -131 24 -86 59 94
73 199 235 244 374 46 144 53 246 22 365 -56 221 -233 356 -486 372 -165 10
-334 -38 -484 -138 -175 -117 -276 -264 -338 -489 -21 -79 -26 -116 -26 -220
1 -108 4 -136 27 -205 35 -106 84 -185 165 -268 228 -233 625 -357 1262 -397
452 -28 784 -3 1124 85 554 142 1028 406 1407 785 279 278 463 567 570 893 17
51 385 1513 820 3250 665 2659 789 3168 789 3226 0 78 -24 168 -63 234 -93
158 -322 233 -539 178 -176 -45 -305 -141 -418 -309 -15 -22 -16 -21 -74 57
-74 102 -229 252 -326 318 -159 107 -346 181 -529 208 -104 16 -291 18 -411 4z
m292 -513 c191 -37 335 -131 467 -306 132 -175 236 -449 281 -740 l12 -75
-346 -1383 -346 -1384 -52 -76 c-338 -505 -736 -876 -1100 -1026 -145 -60
-244 -80 -393 -80 -115 0 -139 3 -208 27 -213 74 -367 249 -450 513 -76 241
-76 613 -1 1054 38 222 86 436 200 895 203 813 305 1133 478 1490 139 288 270
478 461 671 325 328 685 480 997 420z"/>
</g>
</svg>
