<?xml version="1.0" standalone="no"?>
<!DOCTYPE svg PUBLIC "-//W3C//DTD SVG 20010904//EN"
 "http://www.w3.org/TR/2001/REC-SVG-20010904/DTD/svg10.dtd">
<svg version="1.0" xmlns="http://www.w3.org/2000/svg"
 width="356.000000pt" height="97.000000pt" viewBox="0 0 356.000000 97.000000"
 preserveAspectRatio="xMidYMid meet">
<metadata>
Created by potrace 1.16, written by Peter Selinger 2001-2019
</metadata>
<g transform="translate(0.000000,97.000000) scale(0.100000,-0.100000)"
fill="#000000" stroke="none">
<path d="M248 950 c-20 -11 -45 -34 -56 -52 -10 -18 -59 -192 -107 -386 -81
-324 -87 -357 -76 -392 15 -50 62 -97 111 -110 26 -7 542 -9 1592 -8 1546 3
1553 3 1588 24 19 11 44 34 55 50 12 18 56 174 109 390 l90 361 -25 48 c-13
27 -37 58 -52 69 -28 21 -33 21 -1610 23 -1547 2 -1583 2 -1619 -17z"/>
</g>
</svg>
