<?xml version="1.0" standalone="no"?>
<!DOCTYPE svg PUBLIC "-//W3C//DTD SVG 20010904//EN"
 "http://www.w3.org/TR/2001/REC-SVG-20010904/DTD/svg10.dtd">
<svg version="1.0" xmlns="http://www.w3.org/2000/svg"
 width="841.000000pt" height="901.000000pt" viewBox="0 0 841.000000 901.000000"
 preserveAspectRatio="xMidYMid meet">
<metadata>
Created by potrace 1.16, written by Peter Selinger 2001-2019
</metadata>
<g transform="translate(0.000000,901.000000) scale(0.100000,-0.100000)"
fill="#000000" stroke="none">
<path d="M1000 8992 c-19 -9 -45 -32 -57 -50 -12 -18 -229 -656 -483 -1418
-501 -1502 -478 -1420 -423 -1484 42 -51 71 -60 188 -60 117 0 159 12 193 54
11 15 44 98 73 184 336 1017 599 1574 868 1842 250 249 628 412 1106 477 112
15 216 17 760 18 501 0 641 -3 683 -14 72 -18 79 -35 63 -153 -15 -118 -1853
-7473 -1887 -7556 -46 -110 -127 -209 -210 -258 -129 -76 -462 -111 -1144
-121 -324 -4 -431 -9 -451 -19 -51 -25 -75 -68 -103 -179 -30 -122 -26 -162
21 -207 54 -50 51 -49 380 -38 170 5 664 15 1098 21 812 12 1883 3 2666 -22
322 -10 349 -10 383 6 52 25 71 58 101 175 30 117 28 153 -12 200 -48 57 -44
57 -498 63 -704 10 -1018 47 -1074 126 -29 40 -44 116 -36 186 3 33 426 1739
939 3790 985 3939 959 3840 1033 3917 38 39 118 66 234 79 160 17 1214 6 1356
-15 240 -35 450 -106 591 -200 85 -56 191 -168 222 -233 121 -258 102 -813
-61 -1788 -17 -102 -28 -194 -24 -212 7 -38 46 -88 86 -108 43 -23 233 -21
279 3 73 36 57 -38 308 1475 187 1125 230 1400 222 1427 -11 38 -43 76 -82 96
-23 12 -558 14 -3650 14 -3429 0 -3625 -1 -3658 -18z"/>
</g>
</svg>
