<?xml version="1.0" standalone="no"?>
<!DOCTYPE svg PUBLIC "-//W3C//DTD SVG 20010904//EN"
 "http://www.w3.org/TR/2001/REC-SVG-20010904/DTD/svg10.dtd">
<svg version="1.0" xmlns="http://www.w3.org/2000/svg"
 width="512.000000pt" height="1384.000000pt" viewBox="0 0 512.000000 1384.000000"
 preserveAspectRatio="xMidYMid meet">
<metadata>
Created by potrace 1.16, written by Peter Selinger 2001-2019
</metadata>
<g transform="translate(0.000000,1384.000000) scale(0.100000,-0.100000)"
fill="#000000" stroke="none">
<path d="M4775 13823 c-44 -23 -389 -284 -540 -408 -452 -370 -964 -881 -1345
-1340 -855 -1031 -1558 -2287 -2063 -3685 -354 -981 -623 -2081 -741 -3035
-63 -507 -80 -781 -80 -1295 -1 -560 23 -879 99 -1325 143 -840 419 -1558 836
-2175 168 -249 388 -518 446 -545 21 -10 63 -15 130 -15 80 0 104 4 131 20 60
37 88 111 60 163 -6 12 -48 78 -93 147 -677 1029 -942 2385 -800 4085 124
1472 596 3383 1202 4864 721 1763 1716 3195 2943 4235 120 101 150 140 150
191 0 44 -31 96 -71 117 -45 24 -219 25 -264 1z"/>
</g>
</svg>
