<?xml version="1.0" standalone="no"?>
<!DOCTYPE svg PUBLIC "-//W3C//DTD SVG 20010904//EN"
 "http://www.w3.org/TR/2001/REC-SVG-20010904/DTD/svg10.dtd">
<svg version="1.0" xmlns="http://www.w3.org/2000/svg"
 width="1064.000000pt" height="626.000000pt" viewBox="0 0 1064.000000 626.000000"
 preserveAspectRatio="xMidYMid meet">
<metadata>
Created by potrace 1.16, written by Peter Selinger 2001-2019
</metadata>
<g transform="translate(0.000000,626.000000) scale(0.100000,-0.100000)"
fill="#000000" stroke="none">
<path d="M1296 6245 c-101 -21 -161 -42 -256 -91 -236 -121 -425 -335 -592
-667 -147 -294 -249 -591 -393 -1147 -63 -240 -63 -259 -5 -315 l31 -30 172
-3 c248 -4 239 -11 312 279 165 658 309 1056 471 1301 71 107 171 203 252 241
60 29 76 32 157 32 104 -1 159 -20 213 -75 73 -76 102 -176 109 -380 6 -170
-9 -331 -52 -540 -13 -63 -263 -1071 -556 -2240 -512 -2041 -533 -2129 -533
-2220 -1 -84 3 -102 27 -155 38 -82 70 -120 133 -162 269 -179 689 -10 805
324 11 32 222 868 469 1858 l449 1800 88 175 c213 424 440 755 697 1019 350
358 705 542 1141 591 189 21 306 9 413 -42 76 -36 175 -126 220 -201 140 -233
162 -672 61 -1197 -17 -85 -242 -1001 -502 -2035 -451 -1803 -471 -1884 -471
-1975 -1 -84 3 -102 27 -155 38 -82 70 -120 133 -162 269 -179 689 -10 805
324 11 32 222 868 469 1858 l449 1800 88 175 c214 424 440 755 697 1019 350
358 705 542 1141 591 189 21 306 9 413 -42 76 -36 175 -126 220 -201 144 -239
163 -695 52 -1242 -114 -563 -339 -1297 -730 -2380 -86 -239 -160 -460 -176
-530 -26 -111 -28 -136 -28 -320 0 -191 2 -205 31 -317 139 -524 562 -830
1113 -805 336 16 640 166 927 458 122 124 180 196 282 349 227 338 418 777
536 1227 31 117 27 149 -26 199 l-30 29 -172 3 c-242 4 -239 6 -301 -233 -21
-77 -66 -225 -101 -330 -245 -737 -571 -1171 -955 -1272 -96 -26 -264 -24
-309 2 -96 56 -126 150 -118 365 9 262 54 431 285 1070 342 947 525 1519 666
2085 95 383 120 561 119 855 0 242 -17 370 -74 545 -168 526 -575 828 -1204
896 -135 14 -419 6 -565 -16 -410 -64 -807 -242 -1146 -515 -116 -93 -366
-348 -469 -478 l-89 -113 -18 83 c-131 608 -559 965 -1243 1039 -135 14 -419
6 -565 -16 -410 -64 -809 -243 -1146 -515 -92 -75 -338 -318 -412 -408 l-51
-62 -11 42 c-45 181 -84 285 -149 396 -163 280 -424 466 -761 543 -115 26
-368 34 -464 14z"/>
</g>
</svg>
