<?xml version="1.0" standalone="no"?>
<!DOCTYPE svg PUBLIC "-//W3C//DTD SVG 20010904//EN"
 "http://www.w3.org/TR/2001/REC-SVG-20010904/DTD/svg10.dtd">
<svg version="1.0" xmlns="http://www.w3.org/2000/svg"
 width="910.000000pt" height="904.000000pt" viewBox="0 0 910.000000 904.000000"
 preserveAspectRatio="xMidYMid meet">
<metadata>
Created by potrace 1.16, written by Peter Selinger 2001-2019
</metadata>
<g transform="translate(0.000000,904.000000) scale(0.100000,-0.100000)"
fill="#000000" stroke="none">
<path d="M2272 9023 c-49 -24 -68 -58 -97 -173 -30 -117 -28 -153 12 -200 47
-56 64 -60 275 -60 343 0 620 -24 738 -63 85 -29 93 -43 86 -167 -4 -84 -110
-518 -930 -3798 -510 -2037 -940 -3738 -956 -3780 -58 -151 -128 -225 -246
-262 -139 -43 -449 -70 -802 -70 -211 0 -228 -4 -274 -59 -37 -43 -82 -229
-68 -280 10 -37 46 -79 87 -100 16 -8 933 -11 3443 -11 2919 0 3425 2 3448 14
15 8 37 25 49 38 13 14 302 708 675 1619 700 1713 678 1653 632 1716 -46 61
-77 73 -196 73 -114 0 -158 -11 -191 -47 -9 -11 -62 -128 -116 -259 -325 -788
-516 -1175 -767 -1556 -245 -372 -456 -582 -765 -761 -397 -230 -841 -342
-1494 -377 -244 -13 -2085 -13 -2185 0 -137 18 -148 32 -130 163 5 40 222 922
481 1960 l472 1889 736 -5 c772 -5 833 -8 1008 -52 212 -54 308 -127 359 -275
16 -46 19 -83 19 -235 -1 -204 -15 -304 -90 -621 -52 -215 -54 -248 -22 -295
37 -56 76 -69 203 -69 120 0 153 12 195 70 28 38 842 3304 836 3352 -3 20 -14
50 -26 66 -34 49 -76 62 -196 62 -118 0 -162 -13 -194 -59 -10 -14 -42 -116
-70 -225 -128 -495 -249 -760 -431 -946 -187 -191 -430 -280 -850 -310 -193
-13 -1360 -14 -1360 0 0 32 835 3342 861 3414 51 141 101 193 218 225 48 13
194 15 1051 19 1007 4 1315 -3 1558 -33 510 -63 824 -226 980 -505 113 -204
165 -560 142 -980 -12 -226 -28 -395 -66 -695 -28 -217 -27 -259 5 -303 37
-52 78 -64 209 -60 131 3 165 18 195 80 16 34 367 2715 367 2801 0 54 -31 105
-80 129 -33 17 -215 18 -3370 18 -3052 0 -3338 -2 -3368 -17z"/>
</g>
</svg>
