<?xml version="1.0" standalone="no"?>
<!DOCTYPE svg PUBLIC "-//W3C//DTD SVG 20010904//EN"
 "http://www.w3.org/TR/2001/REC-SVG-20010904/DTD/svg10.dtd">
<svg version="1.0" xmlns="http://www.w3.org/2000/svg"
 width="829.000000pt" height="1210.000000pt" viewBox="0 0 829.000000 1210.000000"
 preserveAspectRatio="xMidYMid meet">
<metadata>
Created by potrace 1.16, written by Peter Selinger 2001-2019
</metadata>
<g transform="translate(0.000000,1210.000000) scale(0.100000,-0.100000)"
fill="#000000" stroke="none">
<path d="M5979 12089 c-1142 -73 -1867 -553 -2258 -1492 -59 -143 -142 -405
-195 -614 -41 -163 -125 -578 -262 -1290 l-47 -243 -557 0 -557 0 -33 -22
c-51 -35 -67 -65 -96 -172 -29 -112 -27 -149 13 -196 52 -62 32 -60 613 -60
l532 0 -6 -27 c-3 -16 -173 -894 -376 -1953 -493 -2560 -588 -3038 -761 -3810
-94 -416 -272 -1127 -310 -1237 -102 -291 -261 -516 -424 -598 -57 -28 -66
-30 -175 -29 -186 2 -330 52 -442 153 l-51 45 69 21 c176 54 340 184 416 330
73 140 101 301 74 419 -39 167 -149 275 -323 320 -208 54 -481 -39 -638 -216
-54 -61 -128 -206 -150 -293 -72 -281 -7 -572 172 -774 199 -226 552 -362 903
-348 296 12 539 134 815 411 448 449 747 1113 1054 2343 157 629 215 912 687
3363 195 1015 357 1853 360 1863 5 16 76 17 1305 17 714 0 1299 -2 1299 -5 0
-3 -218 -877 -484 -1942 -267 -1066 -492 -1986 -500 -2044 -76 -513 111 -996
482 -1243 101 -67 208 -114 341 -149 108 -28 128 -30 291 -31 163 0 181 2 265
28 385 118 654 454 874 1091 58 166 143 460 217 750 l48 190 -20 39 c-34 70
-58 81 -198 84 -136 4 -182 -7 -211 -51 -9 -14 -48 -146 -86 -294 -205 -789
-351 -1144 -559 -1354 -117 -118 -171 -144 -300 -144 -79 0 -103 4 -142 23
-83 41 -139 126 -169 257 -22 95 -17 390 9 553 34 207 41 239 598 2461 288
1152 524 2101 524 2110 0 31 -37 85 -71 103 -32 17 -106 18 -1726 18 -1479 0
-1693 2 -1693 15 0 19 207 1090 260 1349 114 551 228 931 361 1201 83 169 143
252 246 340 240 205 545 327 958 382 182 24 674 24 864 0 282 -36 484 -89 656
-173 87 -42 212 -130 201 -141 -3 -3 -38 -17 -78 -30 -109 -37 -174 -78 -264
-167 -233 -234 -271 -587 -83 -774 126 -126 340 -164 544 -98 307 99 485 369
487 736 0 140 -18 221 -77 345 -179 374 -688 601 -1463 654 -173 12 -564 12
-753 0z"/>
</g>
</svg>
