<?xml version="1.0" standalone="no"?>
<!DOCTYPE svg PUBLIC "-//W3C//DTD SVG 20010904//EN"
 "http://www.w3.org/TR/2001/REC-SVG-20010904/DTD/svg10.dtd">
<svg version="1.0" xmlns="http://www.w3.org/2000/svg"
 width="380.000000pt" height="229.000000pt" viewBox="0 0 380.000000 229.000000"
 preserveAspectRatio="xMidYMid meet">
<metadata>
Created by potrace 1.16, written by Peter Selinger 2001-2019
</metadata>
<g transform="translate(0.000000,229.000000) scale(0.100000,-0.100000)"
fill="#000000" stroke="none">
<path d="M150 2271 c-52 -27 -75 -69 -99 -183 -52 -249 -67 -578 -36 -798 51
-355 186 -647 405 -874 113 -118 214 -196 337 -259 557 -288 1309 -171 1933
299 497 374 894 951 1065 1547 41 143 41 177 -2 227 -36 43 -74 60 -135 60
-60 0 -113 -23 -140 -60 -9 -14 -29 -65 -43 -114 -221 -768 -911 -1423 -1650
-1566 -705 -136 -1267 204 -1406 850 -33 154 -33 416 1 585 38 191 32 227 -50
283 -42 28 -129 30 -180 3z"/>
</g>
</svg>
