<?xml version="1.0" standalone="no"?>
<!DOCTYPE svg PUBLIC "-//W3C//DTD SVG 20010904//EN"
 "http://www.w3.org/TR/2001/REC-SVG-20010904/DTD/svg10.dtd">
<svg version="1.0" xmlns="http://www.w3.org/2000/svg"
 width="946.000000pt" height="1180.000000pt" viewBox="0 0 946.000000 1180.000000"
 preserveAspectRatio="xMidYMid meet">
<metadata>
Created by potrace 1.16, written by Peter Selinger 2001-2019
</metadata>
<g transform="translate(0.000000,1180.000000) scale(0.100000,-0.100000)"
fill="#000000" stroke="none">
<path d="M6036 11784 c-109 -35 -38 98 -1186 -2217 l-1045 -2107 -1485 -2
-1485 -3 -40 -22 c-87 -46 -155 -153 -155 -243 0 -90 68 -197 155 -243 l40
-22 1346 -5 1345 -5 -497 -1015 -498 -1015 -1168 -5 c-1042 -4 -1172 -7 -1203
-21 -52 -24 -97 -65 -128 -118 -24 -40 -27 -56 -27 -131 0 -75 3 -91 27 -131
31 -53 76 -94 128 -118 31 -14 149 -17 1062 -21 l1027 -5 -757 -1525 c-1183
-2381 -1221 -2460 -1228 -2511 -9 -69 18 -151 69 -206 77 -84 172 -110 281
-79 120 35 36 -120 1196 2219 l1045 2107 1092 0 1092 0 -173 -352 c-96 -194
-538 -1087 -984 -1984 -446 -898 -815 -1649 -821 -1670 -23 -84 0 -174 62
-241 77 -84 172 -110 281 -79 120 35 36 -120 1196 2219 l1045 2107 1485 2
1485 3 40 22 c87 46 155 153 155 243 0 90 -68 197 -155 243 l-40 22 -1346 5
-1345 5 497 1015 498 1015 1168 5 c1042 4 1172 7 1203 21 52 24 97 65 128 118
24 40 27 56 27 131 0 75 -3 91 -27 131 -31 53 -76 94 -128 118 -31 14 -149 17
-1062 21 l-1027 5 757 1525 c1183 2381 1221 2460 1228 2511 9 69 -18 151 -69
206 -77 84 -172 110 -281 79 -120 -35 -36 120 -1196 -2219 l-1045 -2107 -1092
0 -1092 0 173 353 c96 193 538 1086 984 1983 446 898 815 1649 821 1670 15 53
14 81 -5 143 -18 62 -78 132 -138 163 -53 27 -147 32 -210 12z m149 -5136
c-73 -150 -298 -608 -499 -1018 l-365 -745 -1096 -3 -1095 -2 31 62 c47 93
810 1648 895 1826 l74 152 1094 0 1094 0 -133 -272z"/>
</g>
</svg>
