<?xml version="1.0" standalone="no"?>
<!DOCTYPE svg PUBLIC "-//W3C//DTD SVG 20010904//EN"
 "http://www.w3.org/TR/2001/REC-SVG-20010904/DTD/svg10.dtd">
<svg version="1.0" xmlns="http://www.w3.org/2000/svg"
 width="316.000000pt" height="258.000000pt" viewBox="0 0 316.000000 258.000000"
 preserveAspectRatio="xMidYMid meet">
<metadata>
Created by potrace 1.16, written by Peter Selinger 2001-2019
</metadata>
<g transform="translate(0.000000,258.000000) scale(0.100000,-0.100000)"
fill="#000000" stroke="none">
<path d="M1670 2562 c-19 -9 -44 -31 -56 -49 -13 -20 -53 -160 -108 -381 -99
-394 -99 -401 -31 -461 41 -36 49 -38 176 -45 127 -8 234 -36 344 -90 110 -54
183 -123 228 -216 30 -61 32 -71 32 -175 -1 -93 -5 -121 -27 -183 -131 -363
-502 -544 -1233 -602 -77 -6 -302 -13 -500 -16 -213 -3 -371 -10 -388 -16 -39
-15 -84 -71 -98 -120 -23 -85 7 -160 78 -193 35 -17 70 -18 503 -12 498 7 689
16 977 47 442 49 743 125 998 253 134 67 205 116 299 206 138 133 222 277 266
455 31 126 26 298 -13 406 -80 223 -278 383 -596 484 -63 20 -121 36 -130 36
-45 1 -44 8 24 279 72 290 73 311 18 363 -52 48 -54 48 -400 48 -292 0 -332
-2 -363 -18z"/>
</g>
</svg>
