<?xml version="1.0" standalone="no"?>
<!DOCTYPE svg PUBLIC "-//W3C//DTD SVG 20010904//EN"
 "http://www.w3.org/TR/2001/REC-SVG-20010904/DTD/svg10.dtd">
<svg version="1.0" xmlns="http://www.w3.org/2000/svg"
 width="596.000000pt" height="916.000000pt" viewBox="0 0 596.000000 916.000000"
 preserveAspectRatio="xMidYMid meet">
<metadata>
Created by potrace 1.16, written by Peter Selinger 2001-2019
</metadata>
<g transform="translate(0.000000,916.000000) scale(0.100000,-0.100000)"
fill="#000000" stroke="none">
<path d="M4420 9149 c-892 -91 -1869 -704 -2661 -1669 -529 -645 -937 -1377
-1224 -2195 -78 -224 -146 -457 -224 -773 -155 -627 -246 -1133 -293 -1627
-17 -185 -17 -789 0 -950 43 -397 129 -736 252 -991 290 -600 836 -944 1498
-944 782 0 1436 315 2166 1046 570 570 879 1128 1085 1959 151 613 168 1046
57 1480 -78 304 -236 634 -424 884 -312 417 -755 622 -1341 621 -492 -1 -948
-209 -1361 -622 -112 -112 -243 -267 -334 -397 -32 -44 -59 -81 -61 -81 -11 0
174 656 257 909 167 513 365 961 593 1339 607 1012 1463 1642 2230 1642 111 0
296 -25 381 -51 192 -59 340 -177 414 -330 45 -94 44 -97 -35 -98 -61 -1 -181
-38 -260 -79 -91 -48 -219 -173 -267 -262 -65 -119 -83 -190 -83 -325 1 -147
20 -206 97 -290 95 -104 198 -145 363 -145 121 0 197 20 319 83 92 48 201 150
254 239 70 118 119 317 129 523 10 218 -24 382 -113 555 -159 308 -498 503
-953 549 -119 13 -337 12 -461 0z m-998 -3514 c190 -28 311 -86 429 -204 87
-88 145 -180 199 -318 134 -342 135 -680 5 -1328 -54 -268 -259 -1096 -348
-1405 -190 -658 -378 -1025 -710 -1390 -338 -372 -691 -553 -1122 -577 -269
-14 -477 58 -642 223 -181 181 -285 427 -324 764 -30 267 26 779 161 1450 139
695 338 1235 633 1720 138 226 252 374 421 549 255 261 494 411 779 486 170
45 350 56 519 30z"/>
</g>
</svg>
