<?xml version="1.0" standalone="no"?>
<!DOCTYPE svg PUBLIC "-//W3C//DTD SVG 20010904//EN"
 "http://www.w3.org/TR/2001/REC-SVG-20010904/DTD/svg10.dtd">
<svg version="1.0" xmlns="http://www.w3.org/2000/svg"
 width="744.000000pt" height="968.000000pt" viewBox="0 0 744.000000 968.000000"
 preserveAspectRatio="xMidYMid meet">
<metadata>
Created by potrace 1.16, written by Peter Selinger 2001-2019
</metadata>
<g transform="translate(0.000000,968.000000) scale(0.100000,-0.100000)"
fill="#000000" stroke="none">
<path d="M4457 9665 c-452 -55 -935 -250 -1347 -545 -501 -358 -917 -862
-1165 -1410 -114 -252 -210 -570 -251 -825 -25 -161 -31 -534 -10 -690 93
-707 490 -1242 1102 -1485 42 -17 437 -134 877 -261 441 -126 826 -239 855
-249 343 -128 593 -440 676 -843 37 -179 47 -427 25 -625 -46 -432 -226 -901
-487 -1272 -131 -187 -354 -428 -517 -559 -265 -214 -600 -378 -870 -426 -318
-57 -838 -3 -1175 122 -606 225 -959 675 -1057 1348 -12 88 -17 181 -16 350 0
258 19 435 74 686 51 238 49 270 -20 316 -31 21 -45 23 -158 23 -151 0 -185
-12 -214 -74 -22 -47 -779 -3085 -779 -3125 0 -38 21 -72 59 -98 45 -30 141
-32 188 -4 17 11 192 215 389 455 l357 435 65 -87 c350 -467 944 -751 1696
-812 532 -42 942 40 1435 290 895 453 1611 1370 1872 2396 70 277 90 423 96
706 8 352 -21 574 -113 848 -159 478 -449 822 -869 1033 -135 67 -200 88
-1048 331 -430 124 -811 237 -847 252 -162 65 -329 196 -440 343 -185 245
-271 625 -226 1007 30 261 98 488 222 740 275 563 773 1024 1311 1214 301 106
586 126 945 64 929 -158 1334 -987 1172 -2394 -8 -74 -22 -175 -30 -225 -24
-154 -17 -190 45 -232 31 -21 45 -23 160 -23 138 0 179 12 207 60 17 30 784
3099 784 3138 0 39 -20 73 -59 99 -45 30 -141 32 -187 4 -18 -11 -188 -210
-380 -443 -191 -233 -350 -421 -353 -418 -3 2 -36 50 -72 105 -301 454 -766
708 -1399 765 -152 13 -389 11 -523 -5z"/>
</g>
</svg>
