<?xml version="1.0" standalone="no"?>
<!DOCTYPE svg PUBLIC "-//W3C//DTD SVG 20010904//EN"
 "http://www.w3.org/TR/2001/REC-SVG-20010904/DTD/svg10.dtd">
<svg version="1.0" xmlns="http://www.w3.org/2000/svg"
 width="1058.000000pt" height="908.000000pt" viewBox="0 0 1058.000000 908.000000"
 preserveAspectRatio="xMidYMid meet">
<metadata>
Created by potrace 1.16, written by Peter Selinger 2001-2019
</metadata>
<g transform="translate(0.000000,908.000000) scale(0.100000,-0.100000)"
fill="#000000" stroke="none">
<path d="M2282 9064 c-49 -25 -68 -60 -97 -174 -30 -117 -28 -153 12 -200 47
-56 64 -60 275 -60 343 0 620 -24 738 -63 85 -29 93 -43 86 -167 -4 -84 -111
-520 -935 -3818 -512 -2048 -945 -3758 -961 -3800 -58 -151 -128 -225 -246
-262 -139 -43 -449 -70 -802 -70 -211 0 -228 -4 -274 -59 -17 -19 -34 -65 -52
-136 -30 -122 -26 -162 21 -207 53 -49 56 -49 305 -38 128 5 505 15 838 21
622 12 1419 3 2036 -22 359 -15 359 -15 409 181 30 117 28 153 -12 200 -47 56
-64 60 -275 60 -343 0 -620 24 -738 63 -85 29 -93 43 -86 167 4 83 61 322 461
1920 251 1004 460 1842 466 1863 l10 37 1815 0 c1724 0 1815 -1 1810 -17 -3
-10 -208 -830 -456 -1821 -248 -992 -464 -1838 -480 -1880 -58 -151 -128 -225
-246 -262 -139 -43 -449 -70 -802 -70 -211 0 -228 -4 -274 -59 -17 -19 -34
-65 -52 -136 -30 -122 -26 -162 21 -207 53 -49 56 -49 305 -38 128 5 505 15
838 21 622 12 1419 3 2036 -22 359 -15 359 -15 409 181 30 117 28 153 -12 200
-47 56 -64 60 -275 60 -343 0 -620 24 -738 63 -85 29 -93 43 -86 167 4 84 111
520 935 3818 512 2048 945 3758 961 3800 58 151 128 225 246 262 139 43 449
70 802 70 211 0 228 4 274 59 17 19 34 65 52 136 30 122 26 162 -21 207 -53
49 -56 49 -305 38 -128 -5 -505 -15 -838 -21 -622 -12 -1419 -3 -2036 22 -359
15 -359 15 -409 -181 -30 -117 -28 -153 12 -200 47 -56 64 -60 275 -60 343 0
620 -24 738 -63 85 -29 93 -43 86 -167 -4 -83 -57 -306 -423 -1770 l-419
-1675 -1816 -3 -1816 -2 413 1647 c227 907 424 1677 439 1713 59 143 128 214
242 250 139 43 449 70 802 70 211 0 228 4 274 59 17 19 34 65 52 136 30 122
26 162 -21 207 -53 49 -55 49 -310 38 -884 -37 -1889 -35 -2993 5 -133 5 -160
4 -188 -11z"/>
</g>
</svg>
