<?xml version="1.0" standalone="no"?>
<!DOCTYPE svg PUBLIC "-//W3C//DTD SVG 20010904//EN"
 "http://www.w3.org/TR/2001/REC-SVG-20010904/DTD/svg10.dtd">
<svg version="1.0" xmlns="http://www.w3.org/2000/svg"
 width="950.000000pt" height="942.000000pt" viewBox="0 0 950.000000 942.000000"
 preserveAspectRatio="xMidYMid meet">
<metadata>
Created by potrace 1.16, written by Peter Selinger 2001-2019
</metadata>
<g transform="translate(0.000000,942.000000) scale(0.100000,-0.100000)"
fill="#000000" stroke="none">
<path d="M2375 9406 c-57 -25 -80 -65 -114 -200 -17 -69 -31 -139 -31 -156 0
-48 33 -103 78 -128 38 -21 51 -22 243 -22 339 0 658 -25 781 -60 20 -6 47
-19 60 -29 21 -18 23 -26 22 -123 -1 -102 -8 -131 -966 -3958 -1055 -4218
-986 -3959 -1087 -4060 -103 -103 -295 -135 -866 -147 -425 -8 -405 3 -464
-241 l-34 -139 24 -49 c13 -26 37 -57 52 -68 l28 -21 3577 -3 c2410 -2 3589 0
3612 7 20 6 48 23 62 38 19 20 230 529 713 1722 378 932 689 1709 692 1725 5
39 -31 112 -70 140 -25 19 -46 21 -177 24 -132 3 -152 1 -187 -17 -22 -11 -47
-30 -55 -43 -8 -13 -72 -161 -141 -330 -444 -1078 -758 -1638 -1132 -2014
-144 -146 -241 -222 -420 -327 -408 -242 -883 -362 -1565 -397 -252 -13 -2088
-13 -2199 0 -46 5 -100 15 -119 21 l-34 11 4 82 c3 64 105 482 493 2034 l488
1954 741 -5 c613 -3 760 -7 850 -20 346 -51 501 -148 550 -342 47 -189 21
-447 -91 -911 l-46 -192 24 -48 c41 -82 57 -89 232 -92 143 -2 154 -1 191 20
21 13 47 39 57 58 22 40 879 3464 879 3511 0 45 -36 103 -80 128 -33 19 -54
21 -174 21 -152 0 -186 -9 -228 -58 -14 -17 -31 -55 -38 -84 -36 -152 -127
-467 -167 -577 -181 -501 -405 -728 -816 -826 -222 -53 -288 -57 -1049 -62
l-706 -5 437 1749 c467 1865 466 1864 541 1927 41 34 113 54 237 67 141 14
2237 6 2388 -10 493 -50 768 -140 985 -323 165 -138 260 -335 307 -630 15 -91
18 -173 18 -423 -1 -330 -8 -439 -66 -900 -17 -132 -27 -254 -24 -272 7 -41
50 -92 92 -109 22 -10 76 -14 169 -14 121 0 141 2 175 22 75 42 61 -38 270
1577 l190 1474 -23 46 c-13 25 -36 54 -51 65 l-28 21 -3492 2 c-2888 2 -3497
0 -3522 -11z"/>
</g>
</svg>
