<?xml version="1.0" standalone="no"?>
<!DOCTYPE svg PUBLIC "-//W3C//DTD SVG 20010904//EN"
 "http://www.w3.org/TR/2001/REC-SVG-20010904/DTD/svg10.dtd">
<svg version="1.0" xmlns="http://www.w3.org/2000/svg"
 width="597.000000pt" height="1192.000000pt" viewBox="0 0 597.000000 1192.000000"
 preserveAspectRatio="xMidYMid meet">
<metadata>
Created by potrace 1.16, written by Peter Selinger 2001-2019
</metadata>
<g transform="translate(0.000000,1192.000000) scale(0.100000,-0.100000)"
fill="#000000" stroke="none">
<path d="M5390 11897 c-111 -33 -176 -73 -260 -157 -117 -117 -122 -128 -254
-635 -411 -1578 -983 -3064 -1639 -4256 -722 -1312 -1595 -2410 -2605 -3276
-51 -44 -114 -86 -166 -111 -230 -110 -452 -326 -464 -451 -3 -41 1 -53 37
-106 116 -172 169 -219 239 -212 37 4 68 24 215 136 95 72 195 148 222 170 41
32 70 45 150 65 227 57 549 82 940 73 350 -8 531 -39 870 -152 147 -48 775
-287 794 -301 2 -2 -121 -503 -274 -1113 -274 -1099 -277 -1111 -273 -1198 4
-111 38 -192 108 -257 173 -162 456 -152 677 23 58 46 132 144 163 217 12 27
132 490 266 1029 135 539 249 996 254 1015 l9 35 233 0 c178 0 262 5 353 19
232 36 515 115 777 218 137 53 172 80 183 141 9 46 -4 73 -97 197 -69 91 -90
113 -125 126 -38 15 -47 15 -85 2 -306 -107 -437 -142 -638 -169 -91 -13 -453
-19 -463 -9 -3 3 140 588 319 1300 178 712 326 1318 330 1345 13 106 -40 251
-119 321 -22 20 -69 50 -106 67 -57 27 -79 32 -168 35 -84 4 -115 0 -175 -18
-167 -50 -295 -155 -368 -302 -37 -76 -72 -207 -342 -1289 -166 -662 -304
-1208 -308 -1212 -4 -4 -144 46 -311 111 -348 137 -518 196 -709 246 -298 78
-456 96 -826 96 l-265 0 281 277 c289 284 515 522 730 768 1489 1699 2620
3804 3284 6111 134 467 169 613 170 714 1 84 -2 102 -27 155 -38 82 -70 120
-133 162 -109 73 -263 92 -404 50z"/>
</g>
</svg>
