<?xml version="1.0" standalone="no"?>
<!DOCTYPE svg PUBLIC "-//W3C//DTD SVG 20010904//EN"
 "http://www.w3.org/TR/2001/REC-SVG-20010904/DTD/svg10.dtd">
<svg version="1.0" xmlns="http://www.w3.org/2000/svg"
 width="1184.000000pt" height="908.000000pt" viewBox="0 0 1184.000000 908.000000"
 preserveAspectRatio="xMidYMid meet">
<metadata>
Created by potrace 1.16, written by Peter Selinger 2001-2019
</metadata>
<g transform="translate(0.000000,908.000000) scale(0.100000,-0.100000)"
fill="#000000" stroke="none">
<path d="M5052 9063 c-18 -9 -41 -28 -52 -43 -27 -38 -73 -226 -65 -267 7 -40
54 -97 92 -111 18 -7 186 -12 445 -15 230 -2 421 -6 424 -10 8 -8 -4168 -7218
-4208 -7267 -16 -19 -55 -75 -87 -125 -312 -487 -750 -744 -1315 -771 -76 -4
-142 -12 -157 -20 -51 -25 -75 -68 -103 -179 -30 -122 -26 -162 21 -207 52
-48 60 -49 230 -38 594 37 1295 35 2193 -6 131 -6 136 -5 169 17 53 37 70 68
97 174 29 112 26 149 -13 195 -38 46 -68 57 -181 63 -191 11 -344 68 -437 161
-70 71 -96 131 -103 236 -5 102 11 176 67 300 22 47 40 90 42 96 2 7 380 660
839 1453 l835 1441 958 0 c908 0 958 -1 953 -17 -3 -10 -192 -767 -421 -1683
-249 -996 -428 -1693 -446 -1736 -35 -83 -86 -147 -140 -175 -96 -49 -334 -79
-621 -79 -159 0 -182 -5 -226 -53 -27 -28 -71 -187 -72 -253 0 -51 32 -103 80
-126 33 -17 194 -18 2938 -18 3142 0 2927 -4 2979 52 13 14 302 708 675 1619
700 1713 678 1653 632 1716 -46 61 -77 73 -196 73 -114 0 -158 -11 -191 -47
-9 -11 -67 -141 -128 -289 -361 -874 -616 -1382 -879 -1749 -164 -228 -292
-355 -489 -486 -384 -255 -836 -390 -1436 -429 -194 -13 -1646 -12 -1745 0
-138 18 -148 31 -129 168 8 55 768 3129 860 3475 l10 39 697 -5 c587 -3 713
-6 797 -20 263 -44 414 -129 464 -262 65 -174 43 -447 -75 -934 -37 -154 -42
-190 -34 -220 10 -37 46 -79 87 -100 32 -16 238 -14 271 3 70 36 46 -47 489
1723 304 1218 413 1667 408 1690 -3 18 -17 46 -32 63 -43 51 -71 60 -190 60
-118 0 -161 -13 -195 -60 -10 -14 -41 -113 -69 -220 -207 -803 -410 -1082
-875 -1206 -198 -53 -258 -56 -970 -61 l-662 -5 468 1869 c259 1038 481 1904
498 1948 36 91 78 147 130 174 89 45 108 46 1037 46 956 0 1030 -4 1296 -59
369 -77 621 -236 729 -460 139 -289 150 -751 39 -1651 -17 -137 -28 -265 -26
-283 8 -45 40 -86 83 -107 29 -13 58 -16 152 -13 131 3 165 18 195 80 16 34
367 2715 367 2801 0 54 -31 105 -80 129 -33 17 -214 18 -3350 18 -3033 0
-3318 -2 -3348 -17z m1463 -499 c170 -32 219 -83 217 -228 -1 -72 -53 -290
-460 -1911 l-458 -1830 -883 -3 c-485 -1 -881 2 -879 6 1 5 523 905 1158 2000
l1154 1992 36 -6 c19 -3 71 -12 115 -20z"/>
</g>
</svg>
