<?xml version="1.0" standalone="no"?>
<!DOCTYPE svg PUBLIC "-//W3C//DTD SVG 20010904//EN"
 "http://www.w3.org/TR/2001/REC-SVG-20010904/DTD/svg10.dtd">
<svg version="1.0" xmlns="http://www.w3.org/2000/svg"
 width="878.000000pt" height="938.000000pt" viewBox="0 0 878.000000 938.000000"
 preserveAspectRatio="xMidYMid meet">
<metadata>
Created by potrace 1.16, written by Peter Selinger 2001-2019
</metadata>
<g transform="translate(0.000000,938.000000) scale(0.100000,-0.100000)"
fill="#000000" stroke="none">
<path d="M1069 9360 c-20 -10 -43 -30 -53 -44 -30 -46 -1016 -3050 -1016
-3096 0 -55 31 -105 81 -130 34 -18 59 -20 224 -20 201 0 235 7 272 53 11 15
62 149 113 299 296 877 477 1298 704 1637 240 362 687 598 1281 678 111 15
213 17 695 18 438 0 580 -3 633 -14 l67 -13 0 -54 c0 -67 -1910 -7716 -1943
-7783 -27 -54 -119 -141 -183 -171 -133 -62 -623 -99 -1327 -100 -326 0 -342
-2 -389 -58 -19 -23 -37 -75 -74 -225 l-48 -194 25 -48 c13 -27 37 -58 52 -69
33 -24 47 -24 764 -6 1075 27 2578 22 3674 -11 360 -11 366 -11 406 9 22 12
48 33 58 49 21 32 104 351 105 402 0 47 -35 105 -80 130 -36 20 -51 21 -341
21 -659 1 -1145 35 -1247 88 -41 21 -72 73 -72 119 0 52 1918 7710 1946 7773
70 153 133 164 905 157 542 -5 630 -11 832 -63 230 -58 379 -137 510 -269 146
-149 185 -315 174 -740 -9 -311 -41 -593 -132 -1153 -25 -151 -45 -292 -45
-314 0 -53 32 -103 82 -129 36 -19 55 -20 238 -17 184 3 201 5 227 24 15 12
36 35 46 52 12 21 95 485 278 1562 l261 1531 -24 47 c-13 25 -36 55 -51 66
l-28 21 -3782 2 c-3702 2 -3783 2 -3818 -17z"/>
</g>
</svg>
