<?xml version="1.0" standalone="no"?>
<!DOCTYPE svg PUBLIC "-//W3C//DTD SVG 20010904//EN"
 "http://www.w3.org/TR/2001/REC-SVG-20010904/DTD/svg10.dtd">
<svg version="1.0" xmlns="http://www.w3.org/2000/svg"
 width="624.000000pt" height="946.000000pt" viewBox="0 0 624.000000 946.000000"
 preserveAspectRatio="xMidYMid meet">
<metadata>
Created by potrace 1.16, written by Peter Selinger 2001-2019
</metadata>
<g transform="translate(0.000000,946.000000) scale(0.100000,-0.100000)"
fill="#000000" stroke="none">
<path d="M2369 9439 c-49 -29 -67 -64 -100 -193 -34 -132 -36 -189 -9 -233 40
-67 57 -70 430 -76 438 -8 685 -35 758 -83 36 -23 45 -60 38 -154 -9 -131
-1928 -7796 -1977 -7895 -46 -94 -126 -176 -199 -203 -132 -48 -367 -71 -808
-79 -367 -7 -377 -8 -418 -70 -12 -18 -36 -91 -54 -162 -36 -147 -35 -182 7
-232 49 -58 64 -60 350 -49 967 38 2110 38 3125 -1 292 -11 308 -11 345 7 55
28 77 68 113 213 36 147 35 182 -7 232 -46 54 -71 59 -295 59 -369 0 -707 26
-836 65 -72 22 -85 45 -84 148 0 74 89 438 966 3943 531 2123 977 3892 991
3930 51 135 136 229 238 259 150 45 361 64 787 72 432 7 416 0 471 217 46 180
35 242 -51 286 -40 20 -47 20 -283 11 -513 -22 -1364 -33 -1942 -27 -529 6
-716 10 -1345 31 -167 6 -177 5 -211 -16z"/>
</g>
</svg>
