<?xml version="1.0" standalone="no"?>
<!DOCTYPE svg PUBLIC "-//W3C//DTD SVG 20010904//EN"
 "http://www.w3.org/TR/2001/REC-SVG-20010904/DTD/svg10.dtd">
<svg version="1.0" xmlns="http://www.w3.org/2000/svg"
 width="687.000000pt" height="905.000000pt" viewBox="0 0 687.000000 905.000000"
 preserveAspectRatio="xMidYMid meet">
<metadata>
Created by potrace 1.16, written by Peter Selinger 2001-2019
</metadata>
<g transform="translate(0.000000,905.000000) scale(0.100000,-0.100000)"
fill="#000000" stroke="none">
<path d="M6483 9036 c-40 -18 -13 17 -648 -844 -297 -402 -543 -732 -547 -732
-4 0 -31 15 -60 34 -221 141 -530 246 -809 276 -668 70 -1442 -210 -2116 -764
-146 -121 -447 -423 -574 -577 -558 -676 -912 -1470 -1041 -2330 -21 -138 -23
-189 -23 -494 1 -374 11 -470 74 -722 85 -337 246 -677 423 -894 l46 -57 -560
-758 c-683 -924 -648 -874 -648 -927 0 -76 32 -113 152 -180 59 -32 125 -61
146 -64 87 -12 69 -33 697 817 317 429 578 780 580 780 3 0 28 -15 57 -34 221
-141 530 -246 809 -276 668 -70 1442 210 2116 764 146 121 447 423 574 577
558 676 912 1470 1041 2330 21 138 23 189 23 494 -1 374 -11 470 -74 722 -85
336 -246 676 -422 893 l-45 55 598 808 c408 553 599 819 604 842 16 86 -20
133 -157 211 -109 62 -162 74 -216 50z m-2106 -1790 c95 -21 213 -67 290 -113
74 -45 195 -145 218 -179 16 -24 14 -27 -52 -117 -1129 -1532 -3118 -4217
-3123 -4217 -21 0 -59 261 -67 455 -14 361 48 779 213 1439 251 1003 508 1561
944 2054 326 369 787 638 1185 691 95 13 304 6 392 -13z m792 -861 c80 -357
63 -788 -54 -1363 -50 -243 -174 -733 -247 -976 -266 -887 -642 -1489 -1179
-1891 -510 -381 -1095 -470 -1496 -228 -73 44 -195 145 -217 178 -14 22 31 85
1577 2178 876 1186 1595 2156 1598 2156 3 1 11 -24 18 -54z"/>
</g>
</svg>
