<?xml version="1.0" standalone="no"?>
<!DOCTYPE svg PUBLIC "-//W3C//DTD SVG 20010904//EN"
 "http://www.w3.org/TR/2001/REC-SVG-20010904/DTD/svg10.dtd">
<svg version="1.0" xmlns="http://www.w3.org/2000/svg"
 width="1253.000000pt" height="1210.000000pt" viewBox="0 0 1253.000000 1210.000000"
 preserveAspectRatio="xMidYMid meet">
<metadata>
Created by potrace 1.16, written by Peter Selinger 2001-2019
</metadata>
<g transform="translate(0.000000,1210.000000) scale(0.100000,-0.100000)"
fill="#000000" stroke="none">
<path d="M5835 12093 c-436 -35 -752 -114 -1060 -264 -689 -336 -1051 -909
-1299 -2054 -32 -146 -256 -1301 -256 -1318 0 -4 -251 -7 -559 -7 l-558 0 -33
-22 c-52 -36 -69 -67 -96 -173 -29 -112 -26 -149 13 -195 52 -62 32 -60 614
-60 l531 0 -5 -22 c-3 -13 -173 -891 -377 -1953 -584 -3039 -707 -3632 -947
-4590 -119 -476 -174 -630 -288 -806 -64 -99 -184 -217 -260 -254 -56 -28 -67
-30 -175 -29 -183 1 -330 52 -442 153 l-51 45 69 21 c176 54 340 184 416 330
125 241 109 488 -42 629 -182 170 -490 166 -735 -9 -161 -115 -260 -301 -285
-538 -24 -233 50 -464 206 -635 199 -220 545 -352 889 -339 156 5 257 32 410
106 293 144 554 408 795 806 342 566 628 1503 950 3115 45 223 236 1206 424
2185 l342 1780 1588 3 1588 2 -6 -27 c-3 -16 -159 -824 -346 -1798 -543 -2825
-663 -3405 -840 -4075 -206 -781 -309 -991 -654 -1335 -161 -160 -273 -243
-431 -321 -167 -81 -237 -97 -430 -98 -175 0 -301 18 -440 61 -80 25 -228 96
-274 132 l-24 18 39 13 c21 7 75 31 119 53 105 54 225 172 277 272 125 241
109 488 -42 629 -182 170 -490 166 -735 -9 -180 -128 -285 -352 -285 -608 0
-137 17 -213 77 -334 76 -157 219 -291 413 -388 236 -118 550 -185 869 -185
154 0 269 15 427 55 490 125 980 459 1374 935 340 412 639 1212 919 2465 93
419 146 688 527 2665 195 1015 357 1853 360 1863 5 16 80 17 1390 17 761 0
1384 -2 1384 -5 0 -3 -218 -877 -484 -1942 -267 -1066 -492 -1986 -500 -2044
-76 -513 111 -996 482 -1243 101 -67 208 -114 341 -149 108 -28 128 -30 291
-31 163 0 181 2 265 28 385 118 654 453 874 1091 58 166 143 460 217 750 l48
190 -20 39 c-34 70 -58 81 -198 84 -136 4 -182 -7 -211 -51 -9 -14 -48 -146
-86 -294 -121 -466 -205 -728 -309 -963 -106 -242 -255 -434 -386 -501 -63
-32 -74 -34 -163 -34 -80 0 -104 4 -143 23 -83 41 -139 126 -169 257 -22 95
-17 390 9 553 34 207 41 239 598 2461 288 1152 524 2101 524 2110 0 31 -37 85
-71 103 -32 17 -109 18 -1811 18 -1531 0 -1778 2 -1778 14 0 21 224 1181 266
1376 176 823 346 1257 576 1476 335 318 853 460 1608 441 479 -13 851 -83
1088 -206 90 -48 178 -112 171 -126 -2 -5 -35 -20 -74 -33 -106 -36 -172 -78
-261 -166 -233 -234 -271 -587 -83 -774 91 -90 228 -138 374 -129 274 15 509
189 602 444 60 165 74 378 35 524 -117 440 -572 695 -1402 786 -131 14 -249
18 -565 18 -409 0 -552 -8 -805 -45 -879 -129 -1502 -569 -1861 -1315 -176
-367 -259 -666 -434 -1575 -47 -245 -97 -505 -112 -577 l-26 -133 -1587 0
-1586 0 127 658 c174 904 238 1194 335 1530 82 284 181 521 262 627 130 171
438 354 722 430 421 111 1019 72 1355 -89 101 -49 141 -75 114 -76 -10 0 -59
-21 -110 -47 -213 -106 -353 -316 -375 -563 -12 -126 38 -262 126 -344 182
-170 490 -166 735 9 88 63 149 135 200 240 61 123 77 187 82 341 5 112 2 141
-16 209 -61 222 -209 389 -456 512 -210 106 -503 177 -834 203 -123 9 -448 11
-546 3z"/>
</g>
</svg>
