<?xml version="1.0" standalone="no"?>
<!DOCTYPE svg PUBLIC "-//W3C//DTD SVG 20010904//EN"
 "http://www.w3.org/TR/2001/REC-SVG-20010904/DTD/svg10.dtd">
<svg version="1.0" xmlns="http://www.w3.org/2000/svg"
 width="647.000000pt" height="916.000000pt" viewBox="0 0 647.000000 916.000000"
 preserveAspectRatio="xMidYMid meet">
<metadata>
Created by potrace 1.16, written by Peter Selinger 2001-2019
</metadata>
<g transform="translate(0.000000,916.000000) scale(0.100000,-0.100000)"
fill="#000000" stroke="none">
<path d="M1485 9142 c-16 -11 -35 -25 -41 -33 -27 -34 -1437 -3048 -1441
-3079 -6 -48 23 -101 67 -122 28 -14 61 -18 160 -18 171 0 169 -1 264 187 176
353 390 679 647 988 112 135 390 411 519 517 490 400 991 609 1470 612 l145 1
63 -34 c99 -54 155 -125 313 -400 143 -250 241 -360 384 -430 102 -50 181 -64
330 -57 164 7 313 40 473 105 33 13 51 16 46 9 -4 -7 -65 -103 -134 -213
-1173 -1848 -1967 -3383 -2537 -4900 -174 -464 -404 -1193 -505 -1605 -36
-146 -40 -174 -35 -250 8 -142 62 -247 168 -325 157 -116 388 -125 598 -25
140 67 235 156 314 291 37 63 60 134 113 344 249 992 583 2088 919 3015 679
1873 1483 3484 2495 5000 183 274 180 269 180 312 0 45 -19 78 -59 105 -31 21
-45 23 -160 23 -101 0 -133 -3 -158 -17 -22 -12 -79 -85 -179 -228 -267 -382
-435 -593 -632 -797 -313 -323 -597 -484 -892 -505 -150 -10 -233 20 -292 108
-63 94 -85 196 -123 570 -13 135 -31 278 -40 319 -65 315 -199 481 -432 536
-53 13 -100 15 -218 11 -533 -20 -1058 -243 -1549 -658 -54 -46 -111 -95 -128
-108 l-29 -24 34 74 c19 41 84 180 145 309 61 129 113 247 117 262 11 42 -25
111 -68 131 -53 25 -270 24 -312 -1z"/>
</g>
</svg>
