<?xml version="1.0" standalone="no"?>
<!DOCTYPE svg PUBLIC "-//W3C//DTD SVG 20010904//EN"
 "http://www.w3.org/TR/2001/REC-SVG-20010904/DTD/svg10.dtd">
<svg version="1.0" xmlns="http://www.w3.org/2000/svg"
 width="796.000000pt" height="1210.000000pt" viewBox="0 0 796.000000 1210.000000"
 preserveAspectRatio="xMidYMid meet">
<metadata>
Created by potrace 1.16, written by Peter Selinger 2001-2019
</metadata>
<g transform="translate(0.000000,1210.000000) scale(0.100000,-0.100000)"
fill="#000000" stroke="none">
<path d="M5801 12090 c-413 -32 -761 -119 -1066 -266 -143 -69 -225 -119 -362
-221 -479 -358 -762 -895 -967 -1838 -29 -132 -256 -1295 -256 -1310 0 -3
-250 -5 -555 -5 -607 0 -586 2 -637 -59 -37 -43 -82 -229 -68 -280 10 -37 46
-79 87 -100 15 -8 180 -11 552 -11 292 0 531 -2 531 -5 0 -8 -729 -3788 -800
-4150 -297 -1507 -497 -2365 -635 -2725 -84 -220 -207 -430 -331 -568 -68 -76
-176 -154 -251 -182 -165 -62 -362 -18 -469 104 -24 28 -44 53 -44 57 0 3 36
13 80 23 249 53 452 244 519 486 57 203 22 371 -99 484 -182 170 -490 166
-735 -9 -127 -91 -215 -224 -262 -403 -23 -85 -26 -116 -26 -252 0 -176 15
-250 78 -386 180 -391 645 -568 1105 -422 379 120 754 451 1065 938 282 442
539 1210 800 2389 107 485 140 655 715 3641 286 1488 541 2800 566 2915 139
645 275 1059 419 1275 115 174 372 347 654 440 221 74 423 104 696 104 162 0
203 -3 276 -21 353 -89 584 -360 666 -778 23 -123 23 -411 0 -548 -23 -131
-132 -565 -212 -840 -103 -358 -191 -600 -291 -798 -84 -170 -146 -252 -323
-433 -439 -449 -613 -700 -685 -988 -162 -641 -63 -1230 280 -1659 176 -221
276 -439 311 -677 22 -153 9 -286 -47 -501 -234 -892 -598 -1454 -1016 -1566
-94 -26 -233 -30 -360 -11 -299 44 -513 176 -621 384 l-34 66 59 21 c89 32
143 68 206 135 100 108 141 219 134 359 -7 140 -63 225 -188 284 -164 78 -382
29 -527 -119 -114 -116 -158 -252 -158 -489 0 -159 10 -215 59 -337 112 -276
374 -487 739 -592 170 -49 257 -60 482 -60 235 0 325 12 528 70 770 221 1450
887 1724 1689 138 403 143 742 18 1111 -94 275 -214 473 -514 849 -326 407
-450 645 -453 870 -2 105 14 168 74 295 86 184 177 309 552 765 288 351 569
744 727 1020 191 333 345 718 404 1008 110 546 -66 1071 -475 1412 -243 202
-542 333 -905 396 -138 24 -535 34 -734 19z"/>
</g>
</svg>
