<?xml version="1.0" standalone="no"?>
<!DOCTYPE svg PUBLIC "-//W3C//DTD SVG 20010904//EN"
 "http://www.w3.org/TR/2001/REC-SVG-20010904/DTD/svg10.dtd">
<svg version="1.0" xmlns="http://www.w3.org/2000/svg"
 width="1181.000000pt" height="968.000000pt" viewBox="0 0 1181.000000 968.000000"
 preserveAspectRatio="xMidYMid meet">
<metadata>
Created by potrace 1.16, written by Peter Selinger 2001-2019
</metadata>
<g transform="translate(0.000000,968.000000) scale(0.100000,-0.100000)"
fill="#000000" stroke="none">
<path d="M5182 9669 c-1219 -100 -2524 -844 -3521 -2008 -743 -867 -1275
-1919 -1519 -3006 -155 -687 -183 -1378 -82 -1973 186 -1085 754 -1921 1604
-2358 393 -202 802 -305 1276 -321 283 -9 499 19 976 127 355 80 531 117 689
143 130 21 134 22 2600 27 1845 4 2475 8 2490 17 11 6 30 22 42 35 13 14 302
707 675 1619 700 1713 678 1653 632 1716 -46 61 -77 73 -196 73 -114 0 -158
-11 -191 -47 -9 -11 -63 -130 -118 -264 -381 -924 -635 -1421 -914 -1794 -160
-214 -277 -327 -469 -456 -345 -232 -756 -367 -1296 -425 -130 -14 -305 -18
-1075 -21 -1090 -5 -1145 -2 -1159 69 -3 16 -1 64 5 106 6 42 223 928 483
1967 l472 1890 815 0 c832 0 924 -4 1104 -41 255 -53 374 -136 427 -298 21
-64 23 -88 22 -256 -1 -205 -15 -303 -95 -630 -44 -181 -44 -211 -2 -260 43
-51 71 -60 190 -60 119 0 160 13 196 61 12 17 161 596 433 1683 455 1822 430
1699 367 1758 -46 43 -67 48 -183 48 -181 0 -194 -13 -256 -251 -130 -503
-249 -767 -434 -963 -166 -176 -408 -274 -780 -317 -70 -8 -370 -13 -898 -16
-766 -4 -794 -4 -788 14 3 10 192 765 420 1679 228 913 429 1700 447 1748 36
101 79 162 134 193 84 47 107 48 1135 48 855 0 983 -2 1120 -18 274 -31 506
-90 654 -164 87 -44 193 -123 258 -192 106 -112 160 -236 200 -459 21 -115 23
-156 22 -442 0 -334 -7 -423 -65 -895 -17 -137 -28 -265 -26 -283 8 -45 40
-86 83 -107 29 -13 58 -16 152 -13 131 3 165 18 195 80 16 34 367 2715 367
2801 0 54 -31 105 -80 129 -33 17 -164 18 -2306 18 -1488 0 -2308 4 -2375 10
-168 17 -314 47 -649 131 -375 95 -513 124 -686 144 -138 16 -353 18 -522 4z
m518 -354 c378 -67 593 -236 658 -517 24 -104 23 -490 -1 -683 -40 -315 -111
-691 -213 -1125 -65 -278 -968 -3891 -1055 -4225 -131 -497 -267 -936 -384
-1236 -79 -202 -220 -485 -303 -609 -224 -335 -578 -522 -1077 -571 -1117
-109 -1886 767 -2062 2351 -21 193 -24 814 -5 1015 133 1376 543 2580 1227
3605 779 1167 1754 1897 2685 2010 111 13 419 4 530 -15z"/>
</g>
</svg>
