<?xml version="1.0" standalone="no"?>
<!DOCTYPE svg PUBLIC "-//W3C//DTD SVG 20010904//EN"
 "http://www.w3.org/TR/2001/REC-SVG-20010904/DTD/svg10.dtd">
<svg version="1.0" xmlns="http://www.w3.org/2000/svg"
 width="502.000000pt" height="435.000000pt" viewBox="0 0 502.000000 435.000000"
 preserveAspectRatio="xMidYMid meet">
<metadata>
Created by potrace 1.16, written by Peter Selinger 2001-2019
</metadata>
<g transform="translate(0.000000,435.000000) scale(0.100000,-0.100000)"
fill="#000000" stroke="none">
<path d="M1949 4322 c-24 -16 -98 -74 -164 -128 -558 -465 -1006 -1019 -1326
-1639 -357 -693 -524 -1419 -433 -1895 83 -442 357 -678 764 -657 449 23 825
338 946 792 34 125 38 292 11 395 -59 224 -219 385 -442 445 -86 23 -255 30
-356 16 -99 -15 -222 -52 -301 -92 l-56 -29 24 90 c111 406 336 874 602 1254
265 379 572 705 956 1015 85 69 116 110 116 154 0 38 -20 75 -102 183 -97 129
-151 151 -239 96z"/>
<path d="M4669 4322 c-24 -16 -98 -74 -164 -128 -558 -465 -1006 -1019 -1326
-1639 -357 -693 -524 -1419 -433 -1895 83 -442 357 -678 764 -657 449 23 825
338 946 792 34 125 38 292 11 395 -59 224 -219 385 -442 445 -86 23 -255 30
-356 16 -99 -15 -222 -52 -301 -92 l-56 -29 24 90 c111 406 336 874 602 1254
265 379 572 705 956 1015 85 69 116 110 116 154 0 38 -20 75 -102 183 -97 129
-151 151 -239 96z"/>
</g>
</svg>
