<?xml version="1.0" standalone="no"?>
<!DOCTYPE svg PUBLIC "-//W3C//DTD SVG 20010904//EN"
 "http://www.w3.org/TR/2001/REC-SVG-20010904/DTD/svg10.dtd">
<svg version="1.0" xmlns="http://www.w3.org/2000/svg"
 width="942.000000pt" height="938.000000pt" viewBox="0 0 942.000000 938.000000"
 preserveAspectRatio="xMidYMid meet">
<metadata>
Created by potrace 1.16, written by Peter Selinger 2001-2019
</metadata>
<g transform="translate(0.000000,938.000000) scale(0.100000,-0.100000)"
fill="#000000" stroke="none">
<path d="M2419 9360 c-20 -10 -44 -31 -53 -45 -10 -15 -148 -455 -307 -978
-308 -1011 -305 -998 -262 -1056 46 -61 62 -66 224 -69 137 -3 152 -2 187 18
21 12 47 35 56 51 10 16 51 137 91 268 125 400 250 712 315 781 27 29 44 33
215 50 246 24 753 30 2815 30 2131 0 2595 -5 2840 -33 l104 -12 7 -33 c16 -77
-21 -381 -91 -752 -25 -131 -39 -228 -35 -247 7 -41 50 -92 92 -109 22 -10 76
-14 169 -14 160 0 198 14 233 84 14 27 83 356 207 993 l186 953 -23 47 c-13
26 -37 56 -52 67 l-28 21 -3427 2 c-3353 2 -3428 2 -3463 -17z"/>
<path d="M2630 5987 c-19 -12 -42 -36 -51 -52 -10 -17 -131 -482 -269 -1033
-193 -776 -249 -1012 -244 -1039 4 -19 18 -48 31 -64 45 -53 68 -59 225 -59
160 0 196 10 233 66 11 17 49 147 89 307 l68 277 1949 0 c1072 0 1949 -2 1949
-5 0 -3 -27 -114 -60 -246 -66 -262 -67 -287 -23 -340 45 -53 68 -59 225 -59
157 0 193 10 231 61 24 33 516 1995 517 2059 0 54 -27 102 -72 130 -29 18 -51
20 -183 20 -167 0 -196 -9 -234 -71 -11 -17 -50 -155 -88 -305 l-68 -274
-1947 0 c-1334 0 -1948 3 -1948 10 0 6 25 109 55 230 60 240 65 288 35 338
-39 63 -67 72 -236 72 -140 0 -153 -2 -184 -23z"/>
<path d="M500 2309 c-29 -12 -67 -46 -81 -72 -13 -23 -419 -2052 -419 -2091 0
-42 37 -101 80 -125 l38 -21 3481 0 c3773 0 3517 -4 3570 53 18 20 93 258 332
1054 170 565 309 1043 309 1062 0 47 -36 105 -80 130 -33 19 -54 21 -174 21
-147 0 -184 -8 -224 -52 -16 -17 -47 -103 -98 -267 -168 -546 -285 -850 -362
-939 -25 -29 -35 -33 -132 -46 -275 -40 -380 -41 -2970 -41 -2545 0 -2674 2
-2929 37 l-84 11 6 131 c8 160 41 386 107 733 27 145 50 274 50 289 0 41 -38
99 -80 123 -34 19 -53 21 -176 20 -77 0 -150 -5 -164 -10z"/>
</g>
</svg>
