<?xml version="1.0" standalone="no"?>
<!DOCTYPE svg PUBLIC "-//W3C//DTD SVG 20010904//EN"
 "http://www.w3.org/TR/2001/REC-SVG-20010904/DTD/svg10.dtd">
<svg version="1.0" xmlns="http://www.w3.org/2000/svg"
 width="456.000000pt" height="602.000000pt" viewBox="0 0 456.000000 602.000000"
 preserveAspectRatio="xMidYMid meet">
<metadata>
Created by potrace 1.16, written by Peter Selinger 2001-2019
</metadata>
<g transform="translate(0.000000,602.000000) scale(0.100000,-0.100000)"
fill="#000000" stroke="none">
<path d="M2935 6014 c-308 -32 -554 -99 -791 -214 -558 -271 -937 -793 -1086
-1495 -28 -133 -30 -409 -4 -530 77 -357 255 -624 535 -807 177 -115 284 -152
761 -258 201 -44 401 -92 445 -106 322 -105 550 -347 611 -648 24 -116 15
-318 -20 -444 -54 -197 -142 -382 -254 -542 -70 -99 -245 -269 -347 -337 -187
-125 -405 -213 -622 -252 -522 -94 -1018 -15 -1337 213 -126 90 -255 241 -306
360 -29 69 -27 76 23 76 61 0 181 36 262 78 90 47 218 173 268 262 20 36 48
107 63 158 23 81 26 107 22 190 -6 124 -32 193 -100 267 -94 104 -202 147
-363 147 -257 -1 -500 -157 -607 -390 -16 -35 -41 -111 -55 -170 -25 -96 -27
-126 -28 -287 0 -166 2 -188 27 -278 39 -138 80 -232 148 -334 171 -259 439
-448 794 -562 218 -70 399 -100 656 -108 484 -15 915 72 1307 262 243 118 430
250 611 433 428 434 712 1150 664 1677 -48 521 -342 939 -823 1169 -163 79
-246 103 -684 201 -421 94 -491 116 -603 195 -299 210 -356 602 -152 1037 93
199 242 377 410 489 147 98 273 148 464 186 134 27 405 31 526 9 337 -61 592
-245 696 -502 30 -73 30 -79 1 -79 -13 0 -53 -9 -88 -21 -207 -67 -351 -231
-396 -451 -14 -73 -15 -97 -6 -152 22 -132 92 -223 211 -279 57 -27 81 -32
162 -35 114 -5 193 13 294 66 209 109 326 351 326 672 0 329 -144 622 -405
825 -192 149 -401 238 -690 292 -78 14 -432 26 -520 17z"/>
</g>
</svg>
