<?xml version="1.0" standalone="no"?>
<!DOCTYPE svg PUBLIC "-//W3C//DTD SVG 20010904//EN"
 "http://www.w3.org/TR/2001/REC-SVG-20010904/DTD/svg10.dtd">
<svg version="1.0" xmlns="http://www.w3.org/2000/svg"
 width="634.000000pt" height="946.000000pt" viewBox="0 0 634.000000 946.000000"
 preserveAspectRatio="xMidYMid meet">
<metadata>
Created by potrace 1.16, written by Peter Selinger 2001-2019
</metadata>
<g transform="translate(0.000000,946.000000) scale(0.100000,-0.100000)"
fill="#000000" stroke="none">
<path d="M2369 9439 c-53 -31 -71 -73 -119 -266 -47 -191 -47 -221 -3 -274 46
-54 70 -59 310 -59 379 0 733 -25 855 -60 46 -13 68 -50 68 -114 0 -64 -1919
-7737 -1951 -7800 -35 -72 -101 -140 -158 -164 -112 -49 -340 -70 -821 -79
-329 -5 -358 -7 -391 -25 -52 -29 -71 -71 -119 -265 -47 -194 -47 -222 1 -278
47 -53 67 -56 329 -45 129 5 548 15 932 22 720 12 1657 3 2330 -23 272 -11
288 -11 325 7 21 11 47 33 59 51 25 38 104 345 104 405 0 55 -29 102 -77 126
-34 17 -71 20 -393 26 -346 6 -492 14 -635 37 -134 21 -157 42 -157 138 0 76
1910 7719 1949 7797 33 68 102 140 156 164 104 45 357 69 820 77 394 7 402 8
443 70 25 38 104 344 104 405 0 56 -29 102 -80 128 -39 20 -47 20 -298 10
-826 -32 -2076 -36 -2892 -10 -162 5 -376 12 -475 15 -173 6 -181 5 -216 -16z"/>
</g>
</svg>
