<?xml version="1.0" standalone="no"?>
<!DOCTYPE svg PUBLIC "-//W3C//DTD SVG 20010904//EN"
 "http://www.w3.org/TR/2001/REC-SVG-20010904/DTD/svg10.dtd">
<svg version="1.0" xmlns="http://www.w3.org/2000/svg"
 width="411.000000pt" height="255.000000pt" viewBox="0 0 411.000000 255.000000"
 preserveAspectRatio="xMidYMid meet">
<metadata>
Created by potrace 1.16, written by Peter Selinger 2001-2019
</metadata>
<g transform="translate(0.000000,255.000000) scale(0.100000,-0.100000)"
fill="#000000" stroke="none">
<path d="M1528 2531 c-32 -10 -80 -33 -107 -51 -119 -75 -140 -108 -796 -1186
-574 -944 -620 -1023 -623 -1069 -5 -73 23 -108 131 -169 94 -52 138 -61 193
-38 38 16 1618 1830 1676 1924 70 114 88 253 47 363 -29 78 -112 166 -197 207
-59 29 -76 33 -166 35 -78 2 -114 -1 -158 -16z"/>
<path d="M3558 2531 c-32 -10 -80 -33 -107 -51 -119 -75 -140 -108 -796 -1186
-574 -944 -620 -1023 -623 -1069 -5 -73 23 -108 131 -169 94 -52 138 -61 193
-38 38 16 1618 1830 1676 1924 70 114 88 253 47 363 -29 78 -112 166 -197 207
-59 29 -76 33 -166 35 -78 2 -114 -1 -158 -16z"/>
</g>
</svg>
