<?xml version="1.0" standalone="no"?>
<!DOCTYPE svg PUBLIC "-//W3C//DTD SVG 20010904//EN"
 "http://www.w3.org/TR/2001/REC-SVG-20010904/DTD/svg10.dtd">
<svg version="1.0" xmlns="http://www.w3.org/2000/svg"
 width="775.000000pt" height="1008.000000pt" viewBox="0 0 775.000000 1008.000000"
 preserveAspectRatio="xMidYMid meet">
<metadata>
Created by potrace 1.16, written by Peter Selinger 2001-2019
</metadata>
<g transform="translate(0.000000,1008.000000) scale(0.100000,-0.100000)"
fill="#000000" stroke="none">
<path d="M4648 10066 c-530 -68 -1054 -297 -1538 -672 -152 -117 -481 -446
-609 -607 -105 -133 -255 -354 -333 -492 -208 -367 -357 -790 -420 -1197 -30
-195 -32 -593 -4 -768 113 -716 497 -1237 1102 -1495 75 -32 358 -118 909
-276 440 -126 841 -245 891 -264 561 -217 786 -927 568 -1788 -231 -915 -959
-1704 -1719 -1863 -118 -25 -439 -25 -630 0 -683 89 -1145 385 -1390 891 -126
260 -180 527 -179 890 0 261 29 503 90 763 29 124 30 147 6 191 -35 65 -61 71
-292 71 -186 0 -208 -2 -237 -20 -18 -10 -39 -29 -47 -42 -18 -28 -816 -3215
-816 -3260 0 -45 34 -96 75 -114 50 -21 182 -19 222 3 17 10 188 193 378 408
191 215 360 404 377 420 l29 30 32 -40 c67 -85 256 -270 347 -339 331 -250
761 -412 1255 -471 183 -22 524 -30 660 -16 552 59 1110 311 1612 726 134 111
381 357 492 490 413 498 693 1043 845 1650 244 972 54 1887 -502 2417 -172
164 -366 285 -599 373 -34 13 -426 128 -870 255 -865 248 -929 271 -1062 369
-225 167 -368 422 -416 741 -19 123 -19 376 0 509 72 506 322 992 704 1371
298 295 647 492 990 561 198 39 454 35 698 -12 621 -119 997 -556 1104 -1283
53 -366 45 -777 -27 -1259 -24 -164 -24 -170 -7 -205 10 -20 33 -47 52 -59 33
-22 43 -23 240 -23 233 0 262 7 294 70 17 34 817 3223 817 3257 0 29 -37 82
-72 103 -46 28 -189 29 -233 2 -16 -11 -194 -203 -395 -428 l-364 -409 -44 65
c-294 431 -742 688 -1347 770 -132 18 -515 21 -637 6z"/>
</g>
</svg>
