<?xml version="1.0" standalone="no"?>
<!DOCTYPE svg PUBLIC "-//W3C//DTD SVG 20010904//EN"
 "http://www.w3.org/TR/2001/REC-SVG-20010904/DTD/svg10.dtd">
<svg version="1.0" xmlns="http://www.w3.org/2000/svg"
 width="371.000000pt" height="992.000000pt" viewBox="0 0 371.000000 992.000000"
 preserveAspectRatio="xMidYMid meet">
<metadata>
Created by potrace 1.16, written by Peter Selinger 2001-2019
</metadata>
<g transform="translate(0.000000,992.000000) scale(0.100000,-0.100000)"
fill="#000000" stroke="none">
<path d="M2907 9910 c-193 -33 -383 -130 -532 -272 -122 -116 -200 -238 -244
-383 -22 -71 -1091 -6410 -1091 -6466 0 -38 22 -81 56 -108 25 -19 39 -21 198
-21 186 0 216 8 243 61 13 25 2083 6257 2129 6409 89 293 -33 584 -297 714
-141 69 -305 92 -462 66z"/>
<path d="M780 1540 c-300 -64 -565 -275 -697 -555 -60 -127 -83 -225 -83 -354
0 -189 53 -325 175 -447 315 -315 901 -210 1230 220 67 88 138 236 165 340 25
98 27 264 5 351 -44 173 -162 319 -316 393 -148 71 -309 89 -479 52z"/>
</g>
</svg>
