<?xml version="1.0" standalone="no"?>
<!DOCTYPE svg PUBLIC "-//W3C//DTD SVG 20010904//EN"
 "http://www.w3.org/TR/2001/REC-SVG-20010904/DTD/svg10.dtd">
<svg version="1.0" xmlns="http://www.w3.org/2000/svg"
 width="917.000000pt" height="1008.000000pt" viewBox="0 0 917.000000 1008.000000"
 preserveAspectRatio="xMidYMid meet">
<metadata>
Created by potrace 1.16, written by Peter Selinger 2001-2019
</metadata>
<g transform="translate(0.000000,1008.000000) scale(0.100000,-0.100000)"
fill="#000000" stroke="none">
<path d="M5525 10069 c-1323 -108 -2723 -869 -3770 -2049 -985 -1110 -1598
-2468 -1735 -3850 -18 -179 -24 -619 -11 -805 52 -738 263 -1391 622 -1930
138 -206 213 -299 379 -468 257 -263 488 -434 815 -603 496 -256 1058 -378
1660 -361 231 7 328 16 545 53 384 64 745 182 1085 354 299 151 529 310 743
515 67 65 124 116 126 114 1 -2 26 -42 54 -89 68 -115 155 -230 266 -353 109
-120 249 -253 290 -274 56 -29 141 -1 170 56 9 16 173 659 366 1430 192 770
361 1424 373 1453 32 71 73 117 123 140 69 30 225 48 469 54 127 3 244 10 262
15 66 21 86 60 137 265 51 208 51 233 0 293 -39 47 -69 52 -264 41 -96 -5
-408 -15 -692 -22 -539 -13 -1628 -2 -2339 23 -313 11 -315 11 -357 -10 -23
-12 -49 -32 -58 -46 -20 -30 -103 -356 -104 -404 0 -47 35 -105 80 -130 36
-20 52 -21 291 -21 435 0 844 -24 1006 -60 84 -18 110 -60 103 -165 -1 -16
-74 -318 -161 -670 -171 -683 -197 -765 -293 -928 -228 -389 -616 -695 -1111
-879 -109 -40 -316 -93 -455 -114 -155 -25 -512 -25 -690 0 -711 98 -1270 432
-1635 976 -88 132 -196 360 -254 535 -231 701 -195 1592 114 2835 371 1494
868 2484 1630 3245 607 608 1339 1013 2100 1164 212 42 352 55 585 55 327 0
490 -34 726 -149 776 -377 1108 -1503 893 -3022 -22 -150 -22 -151 -2 -185 10
-18 34 -43 53 -55 32 -22 42 -23 239 -23 232 0 259 7 293 71 18 36 968 3824
968 3861 0 33 -35 85 -72 108 -26 16 -51 20 -115 20 -45 0 -94 -5 -108 -12
-15 -6 -256 -254 -537 -550 l-510 -538 -63 95 c-35 52 -85 123 -111 157 -70
92 -277 301 -369 373 -309 242 -658 389 -1066 451 -125 19 -524 27 -684 13z"/>
</g>
</svg>
