<?xml version="1.0" standalone="no"?>
<!DOCTYPE svg PUBLIC "-//W3C//DTD SVG 20010904//EN"
 "http://www.w3.org/TR/2001/REC-SVG-20010904/DTD/svg10.dtd">
<svg version="1.0" xmlns="http://www.w3.org/2000/svg"
 width="914.000000pt" height="977.000000pt" viewBox="0 0 914.000000 977.000000"
 preserveAspectRatio="xMidYMid meet">
<metadata>
Created by potrace 1.16, written by Peter Selinger 2001-2019
</metadata>
<g transform="translate(0.000000,977.000000) scale(0.100000,-0.100000)"
fill="#000000" stroke="none">
<path d="M5655 9760 c-1446 -118 -2818 -868 -3687 -2016 -428 -566 -685 -1185
-773 -1864 -23 -172 -30 -548 -16 -740 40 -529 143 -960 450 -1891 167 -508
214 -659 279 -889 123 -435 187 -809 207 -1214 l7 -128 -569 5 c-434 4 -588 9
-653 20 -95 16 -158 32 -179 46 -22 14 -27 409 -11 825 13 336 13 340 -7 375
-11 20 -38 46 -59 59 -38 21 -47 22 -241 20 -230 -3 -240 -6 -279 -89 -21 -42
-25 -100 -74 -1098 l-53 -1054 22 -42 c13 -25 38 -51 60 -63 l39 -22 1136 0
c1241 0 1176 -3 1228 58 30 36 57 139 112 434 73 386 105 733 113 1233 6 407
-3 702 -47 1400 -46 735 -50 825 -59 1152 -26 961 67 1701 304 2408 224 672
540 1201 979 1641 223 222 439 390 699 543 806 473 1716 518 2334 116 619
-403 858 -1127 712 -2150 -97 -680 -383 -1472 -866 -2399 -148 -283 -282 -528
-613 -1116 -680 -1209 -939 -1724 -1171 -2328 -113 -295 -244 -714 -256 -818
-7 -65 22 -122 77 -153 l38 -21 1136 0 c1224 0 1174 -2 1223 51 11 13 233 496
492 1073 511 1138 496 1099 450 1173 -40 64 -74 73 -283 73 -190 0 -224 -5
-263 -42 -11 -11 -67 -122 -123 -246 -142 -314 -379 -791 -439 -885 -42 -65
-59 -82 -97 -99 -136 -60 -393 -80 -955 -76 l-406 3 66 120 c299 540 626 985
1477 2010 428 515 635 774 834 1040 695 928 1057 1702 1156 2472 20 156 23
514 5 658 -64 512 -254 974 -558 1350 -94 116 -291 311 -413 408 -394 314
-912 536 -1475 632 -269 45 -742 66 -1010 45z"/>
</g>
</svg>
