<?xml version="1.0" standalone="no"?>
<!DOCTYPE svg PUBLIC "-//W3C//DTD SVG 20010904//EN"
 "http://www.w3.org/TR/2001/REC-SVG-20010904/DTD/svg10.dtd">
<svg version="1.0" xmlns="http://www.w3.org/2000/svg"
 width="760.000000pt" height="908.000000pt" viewBox="0 0 760.000000 908.000000"
 preserveAspectRatio="xMidYMid meet">
<metadata>
Created by potrace 1.16, written by Peter Selinger 2001-2019
</metadata>
<g transform="translate(0.000000,908.000000) scale(0.100000,-0.100000)"
fill="#000000" stroke="none">
<path d="M2890 9063 c-49 -26 -74 -69 -100 -173 -34 -137 -18 -199 60 -241 31
-17 60 -19 275 -19 584 0 978 -42 1046 -110 32 -32 44 -92 36 -186 -2 -36 -62
-296 -133 -578 l-128 -514 -72 -6 c-218 -20 -587 -90 -839 -160 -703 -195
-1328 -510 -1870 -944 -151 -121 -454 -423 -569 -567 -530 -665 -714 -1409
-510 -2058 271 -857 1133 -1470 2314 -1647 74 -11 147 -20 163 -20 15 0 27 -5
27 -10 0 -6 -54 -227 -121 -493 -128 -515 -155 -593 -234 -685 -128 -148 -343
-186 -1121 -200 l-371 -7 -36 -28 c-38 -29 -61 -85 -88 -214 -14 -69 -8 -100
27 -143 52 -61 55 -62 356 -50 150 5 588 15 973 21 721 12 1676 3 2373 -22
296 -11 312 -10 349 7 52 26 77 68 103 174 34 137 18 199 -60 241 -31 17 -60
19 -275 19 -584 0 -978 42 -1046 110 -32 32 -44 92 -36 186 2 36 62 296 133
578 l128 514 72 6 c218 20 587 90 839 160 703 195 1328 510 1870 944 151 121
454 423 569 567 530 665 714 1409 510 2058 -271 857 -1133 1470 -2314 1647
-74 11 -147 20 -162 20 -16 0 -28 5 -28 10 0 6 54 227 121 493 128 515 155
593 234 685 128 148 343 186 1121 200 l371 7 36 28 c38 29 61 85 88 214 14 69
8 100 -27 143 -52 61 -54 62 -361 50 -1021 -37 -2292 -35 -3483 6 -157 5 -179
4 -210 -13z m381 -4520 c-471 -1885 -591 -2349 -604 -2351 -9 -2 -65 6 -124
18 -492 100 -870 314 -1100 626 -102 139 -170 297 -213 499 -31 145 -38 457
-16 655 68 585 271 1202 537 1628 143 230 351 472 534 619 312 252 718 456
1125 566 130 35 364 83 421 86 l27 1 -587 -2347z m1799 2322 c645 -137 1087
-472 1244 -945 51 -153 67 -262 73 -480 8 -301 -26 -562 -121 -933 -163 -635
-412 -1115 -766 -1481 -138 -142 -229 -217 -415 -341 -332 -222 -695 -371
-1120 -459 -66 -13 -145 -27 -177 -31 l-56 -7 584 2338 c322 1287 587 2345
589 2352 6 17 29 15 165 -13z"/>
</g>
</svg>
