<?xml version="1.0" standalone="no"?>
<!DOCTYPE svg PUBLIC "-//W3C//DTD SVG 20010904//EN"
 "http://www.w3.org/TR/2001/REC-SVG-20010904/DTD/svg10.dtd">
<svg version="1.0" xmlns="http://www.w3.org/2000/svg"
 width="309.000000pt" height="830.000000pt" viewBox="0 0 309.000000 830.000000"
 preserveAspectRatio="xMidYMid meet">
<metadata>
Created by potrace 1.16, written by Peter Selinger 2001-2019
</metadata>
<g transform="translate(0.000000,830.000000) scale(0.100000,-0.100000)"
fill="#000000" stroke="none">
<path d="M2340 8286 c-313 -70 -577 -294 -686 -582 -55 -147 -67 -281 -35
-407 30 -117 67 -183 146 -263 80 -81 158 -125 273 -155 373 -95 836 175 988
577 32 85 54 197 54 273 0 71 -30 191 -67 268 -38 79 -149 191 -232 232 -129
66 -301 88 -441 57z"/>
<path d="M1245 4003 c-353 -75 -623 -352 -700 -716 -31 -142 -10 -314 52 -430
43 -81 139 -171 225 -212 198 -94 415 -88 680 20 15 6 13 -7 -12 -103 -207
-769 -678 -1536 -1334 -2168 l-156 -151 0 -50 c0 -41 6 -60 33 -99 61 -89 121
-112 195 -77 45 21 397 371 532 528 297 348 531 698 729 1095 163 327 276 629
360 966 135 540 145 907 29 1144 -40 82 -137 182 -210 215 -122 56 -276 70
-423 38z"/>
</g>
</svg>
