<?xml version="1.0" standalone="no"?>
<!DOCTYPE svg PUBLIC "-//W3C//DTD SVG 20010904//EN"
 "http://www.w3.org/TR/2001/REC-SVG-20010904/DTD/svg10.dtd">
<svg version="1.0" xmlns="http://www.w3.org/2000/svg"
 width="610.000000pt" height="895.000000pt" viewBox="0 0 610.000000 895.000000"
 preserveAspectRatio="xMidYMid meet">
<metadata>
Created by potrace 1.16, written by Peter Selinger 2001-2019
</metadata>
<g transform="translate(0.000000,895.000000) scale(0.100000,-0.100000)"
fill="#000000" stroke="none">
<path d="M3810 8944 c-447 -53 -887 -237 -1303 -547 -517 -384 -983 -963
-1284 -1594 -220 -464 -374 -1004 -425 -1493 -17 -171 -14 -548 6 -704 72
-558 274 -999 603 -1317 230 -222 503 -363 828 -426 139 -27 436 -24 574 5
155 34 300 85 456 162 205 101 348 198 617 418 15 13 28 21 28 18 0 -32 -410
-1633 -436 -1705 -227 -614 -716 -1120 -1245 -1289 -163 -52 -289 -66 -554
-59 -330 9 -582 37 -747 83 l-58 17 58 39 c114 80 196 178 256 310 52 112 69
198 64 320 -3 94 -7 110 -40 181 -102 213 -348 311 -618 247 -353 -85 -582
-384 -584 -765 -1 -135 20 -225 75 -322 199 -350 753 -522 1679 -523 209 0
353 11 520 41 1066 188 1960 917 2213 1804 14 50 379 1504 811 3233 625 2497
786 3155 786 3205 0 194 -108 333 -297 382 -241 63 -524 -77 -643 -318 l-43
-87 -35 58 c-151 250 -398 460 -653 553 -155 57 -230 70 -409 74 -91 2 -181 1
-200 -1z m335 -429 c222 -57 413 -232 548 -501 73 -145 148 -402 176 -604 l11
-75 -354 -1413 -354 -1413 -78 -117 c-397 -597 -865 -998 -1292 -1108 -355
-91 -614 4 -800 294 -144 224 -207 593 -172 1007 28 315 86 616 245 1252 198
796 313 1153 488 1513 276 568 706 1009 1115 1145 141 46 334 55 467 20z"/>
</g>
</svg>
