<?xml version="1.0" standalone="no"?>
<!DOCTYPE svg PUBLIC "-//W3C//DTD SVG 20010904//EN"
 "http://www.w3.org/TR/2001/REC-SVG-20010904/DTD/svg10.dtd">
<svg version="1.0" xmlns="http://www.w3.org/2000/svg"
 width="1116.000000pt" height="946.000000pt" viewBox="0 0 1116.000000 946.000000"
 preserveAspectRatio="xMidYMid meet">
<metadata>
Created by potrace 1.16, written by Peter Selinger 2001-2019
</metadata>
<g transform="translate(0.000000,946.000000) scale(0.100000,-0.100000)"
fill="#000000" stroke="none">
<path d="M2385 9447 c-63 -29 -79 -62 -131 -270 l-48 -194 25 -48 c45 -92 34
-89 412 -97 323 -6 509 -18 632 -39 129 -22 145 -37 145 -132 -1 -73 -1917
-7736 -1954 -7811 -33 -68 -95 -132 -149 -156 -105 -47 -332 -69 -772 -76
-181 -3 -344 -10 -362 -15 -66 -21 -86 -59 -138 -271 l-49 -195 25 -48 c13
-27 37 -58 52 -69 33 -24 52 -24 602 -6 825 27 1966 22 2830 -11 288 -11 291
-11 333 10 23 12 49 32 58 46 19 30 103 356 104 403 0 50 -32 104 -78 130 -38
21 -51 22 -253 22 -384 0 -736 27 -823 64 -47 19 -61 69 -46 158 6 35 151 625
323 1313 l313 1250 863 728 c474 401 865 726 868 723 3 -3 316 -857 696 -1898
736 -2018 716 -1959 688 -2061 -28 -99 -126 -185 -262 -231 -83 -28 -233 -46
-380 -46 -183 0 -199 -18 -263 -277 -51 -207 -51 -232 0 -292 41 -49 66 -52
319 -41 127 5 537 15 912 22 701 12 1320 4 1827 -24 l209 -11 44 23 c28 15 51
37 62 59 31 63 104 376 97 416 -9 45 -57 101 -99 114 -18 5 -126 12 -242 15
-296 7 -461 36 -568 99 -56 33 -146 131 -190 205 -41 70 -1782 4843 -1769
4851 4 3 597 503 1316 1111 720 608 1323 1112 1341 1121 17 9 67 45 111 80
579 470 1174 717 1799 745 161 7 204 23 235 84 9 19 36 113 60 207 47 191 47
221 3 274 -45 53 -74 60 -214 49 -365 -27 -871 -34 -1517 -22 -356 7 -769 17
-917 23 -268 11 -271 11 -313 -10 -23 -12 -49 -32 -58 -46 -19 -30 -103 -356
-104 -403 0 -49 32 -104 76 -128 27 -15 65 -23 124 -27 206 -14 330 -99 330
-225 0 -91 -73 -228 -166 -312 -21 -20 -50 -51 -64 -68 -30 -39 -4614 -3912
-4618 -3902 -1 4 234 953 523 2110 339 1358 535 2123 552 2159 38 80 117 155
183 175 131 39 486 66 868 66 193 0 216 2 252 20 22 11 47 31 56 45 19 30 103
356 104 403 0 50 -32 104 -79 130 l-40 23 -248 -10 c-782 -33 -2004 -37 -2803
-11 -157 5 -361 12 -455 15 -134 4 -177 3 -200 -8z"/>
</g>
</svg>
