<?xml version="1.0" standalone="no"?>
<!DOCTYPE svg PUBLIC "-//W3C//DTD SVG 20010904//EN"
 "http://www.w3.org/TR/2001/REC-SVG-20010904/DTD/svg10.dtd">
<svg version="1.0" xmlns="http://www.w3.org/2000/svg"
 width="751.000000pt" height="977.000000pt" viewBox="0 0 751.000000 977.000000"
 preserveAspectRatio="xMidYMid meet">
<metadata>
Created by potrace 1.16, written by Peter Selinger 2001-2019
</metadata>
<g transform="translate(0.000000,977.000000) scale(0.100000,-0.100000)"
fill="#000000" stroke="none">
<path d="M3655 9757 c-63 -29 -79 -62 -131 -270 l-48 -194 25 -48 c46 -94 21
-89 507 -97 558 -8 892 -33 987 -72 41 -18 72 -57 80 -104 5 -30 -161 -708
-830 -3382 -460 -1840 -857 -3408 -882 -3485 -112 -342 -288 -670 -507 -942
-93 -115 -260 -280 -367 -362 -356 -276 -666 -347 -1069 -246 -277 69 -513
236 -650 458 -28 45 -50 86 -50 93 0 7 25 14 61 18 140 16 311 84 434 171 71
51 170 150 221 220 119 166 195 419 180 594 -24 264 -180 448 -441 522 -108
31 -294 31 -407 1 -343 -92 -589 -324 -692 -652 -66 -209 -87 -510 -51 -725
53 -313 221 -615 458 -823 600 -526 1593 -575 2527 -126 770 371 1366 1015
1620 1750 24 68 395 1533 871 3439 456 1826 841 3354 855 3395 40 121 96 185
183 210 82 24 271 41 521 48 292 8 301 9 339 74 24 39 101 344 101 400 0 56
-29 102 -79 128 -39 19 -48 20 -238 10 -789 -39 -1852 -37 -3303 5 -155 4
-201 3 -225 -8z"/>
</g>
</svg>
