<?xml version="1.0" standalone="no"?>
<!DOCTYPE svg PUBLIC "-//W3C//DTD SVG 20010904//EN"
 "http://www.w3.org/TR/2001/REC-SVG-20010904/DTD/svg10.dtd">
<svg version="1.0" xmlns="http://www.w3.org/2000/svg"
 width="944.000000pt" height="992.000000pt" viewBox="0 0 944.000000 992.000000"
 preserveAspectRatio="xMidYMid meet">
<metadata>
Created by potrace 1.16, written by Peter Selinger 2001-2019
</metadata>
<g transform="translate(0.000000,992.000000) scale(0.100000,-0.100000)"
fill="#000000" stroke="none">
<path d="M6960 9903 c-52 -18 -113 -58 -151 -100 -22 -23 -6691 -9515 -6776
-9645 -36 -54 -36 -103 1 -134 l27 -24 4627 0 c4385 0 4629 1 4662 18 39 19
80 74 80 108 0 27 -1936 9615 -1951 9662 -15 46 -57 92 -104 113 -55 25 -345
27 -415 2z m215 -5168 c409 -2024 743 -3681 741 -3682 -1 -2 -1506 -2 -3344
-1 l-3341 3 2597 3699 c1700 2420 2598 3692 2601 3680 1 -11 338 -1675 746
-3699z"/>
</g>
</svg>
