<?xml version="1.0" standalone="no"?>
<!DOCTYPE svg PUBLIC "-//W3C//DTD SVG 20010904//EN"
 "http://www.w3.org/TR/2001/REC-SVG-20010904/DTD/svg10.dtd">
<svg version="1.0" xmlns="http://www.w3.org/2000/svg"
 width="1029.000000pt" height="908.000000pt" viewBox="0 0 1029.000000 908.000000"
 preserveAspectRatio="xMidYMid meet">
<metadata>
Created by potrace 1.16, written by Peter Selinger 2001-2019
</metadata>
<g transform="translate(0.000000,908.000000) scale(0.100000,-0.100000)"
fill="#000000" stroke="none">
<path d="M2442 9064 c-49 -25 -68 -59 -97 -174 -30 -117 -28 -153 12 -200 45
-55 58 -57 333 -63 345 -8 499 -29 617 -84 51 -23 135 -104 161 -154 25 -48
1402 -3844 1398 -3854 -8 -23 -2709 -3122 -2740 -3145 -19 -14 -71 -65 -116
-115 -209 -231 -485 -442 -750 -575 -304 -153 -609 -230 -970 -246 -204 -9
-227 -25 -266 -175 -30 -119 -31 -166 -1 -210 42 -64 71 -71 258 -59 90 5 358
15 594 21 444 12 1175 2 1698 -22 131 -6 254 -8 273 -4 19 3 49 21 68 39 28
29 38 51 61 144 30 123 28 155 -12 203 -36 42 -74 59 -135 59 -134 1 -287 58
-366 137 -70 70 -96 130 -100 230 -5 105 20 193 80 281 24 35 52 79 64 98 35
58 2517 2905 2525 2897 4 -4 276 -747 605 -1651 l597 -1643 -30 -42 c-116
-161 -469 -307 -746 -307 -68 0 -119 -21 -147 -59 -27 -38 -73 -227 -65 -268
7 -39 46 -88 86 -108 24 -13 63 -14 271 -5 916 37 1824 35 2743 -6 136 -6 141
-5 174 17 53 37 70 68 97 174 29 112 26 149 -13 195 -45 55 -58 57 -333 63
-345 8 -499 29 -617 84 -51 23 -135 104 -161 154 -7 13 -370 1007 -808 2209
-655 1799 -793 2188 -784 2203 18 30 2220 2561 2242 2577 11 8 84 80 162 159
502 511 1034 759 1691 788 196 8 223 25 261 170 41 153 26 225 -57 266 -32 15
-51 16 -200 7 -90 -5 -358 -15 -594 -21 -444 -12 -1155 -3 -1705 22 -277 13
-288 11 -339 -46 -33 -38 -75 -174 -75 -247 -1 -84 68 -148 163 -148 130 -1
283 -55 363 -129 145 -133 148 -361 9 -546 -21 -27 -45 -63 -53 -79 -23 -45
-2031 -2347 -2039 -2339 -4 4 -231 622 -504 1373 l-497 1365 18 34 c84 156
473 321 757 321 68 0 119 21 147 59 27 38 73 227 65 268 -7 39 -46 88 -86 108
-24 13 -63 14 -271 5 -465 -19 -1356 -32 -1738 -25 -344 5 -531 11 -1005 30
-119 5 -145 4 -173 -11z"/>
</g>
</svg>
