<?xml version="1.0" standalone="no"?>
<!DOCTYPE svg PUBLIC "-//W3C//DTD SVG 20010904//EN"
 "http://www.w3.org/TR/2001/REC-SVG-20010904/DTD/svg10.dtd">
<svg version="1.0" xmlns="http://www.w3.org/2000/svg"
 width="933.000000pt" height="908.000000pt" viewBox="0 0 933.000000 908.000000"
 preserveAspectRatio="xMidYMid meet">
<metadata>
Created by potrace 1.16, written by Peter Selinger 2001-2019
</metadata>
<g transform="translate(0.000000,908.000000) scale(0.100000,-0.100000)"
fill="#000000" stroke="none">
<path d="M2274 9061 c-17 -10 -40 -30 -51 -45 -25 -31 -76 -230 -67 -260 3
-11 416 -1072 917 -2356 501 -1284 911 -2342 911 -2351 1 -8 -885 -864 -1969
-1902 -1084 -1038 -1980 -1901 -1993 -1918 -47 -68 -20 -169 58 -210 34 -18
146 -19 3483 -19 2942 0 3452 2 3475 14 15 8 37 25 50 39 33 35 1082 2907
1082 2963 0 51 -33 103 -80 126 -27 14 -60 18 -143 18 -170 0 -182 -11 -270
-245 -225 -597 -417 -978 -650 -1295 -190 -258 -406 -468 -632 -615 -304 -198
-737 -322 -1325 -380 -379 -36 -452 -38 -2265 -42 l-1800 -4 70 69 c39 39 945
908 2015 1932 1070 1024 1953 1876 1963 1893 9 18 17 47 17 65 0 20 -312 832
-790 2058 -435 1114 -790 2027 -790 2030 0 9 2945 3 3170 -6 622 -26 1006 -89
1300 -215 332 -142 519 -412 603 -870 20 -109 22 -151 21 -450 0 -269 -5 -364
-22 -515 -50 -428 -47 -391 -27 -433 9 -20 32 -47 49 -60 28 -20 43 -22 161
-22 118 0 133 2 161 22 17 13 38 37 47 55 16 34 367 2715 367 2801 0 54 -31
105 -80 129 -33 17 -220 18 -3485 18 -3361 0 -3451 -1 -3481 -19z"/>
</g>
</svg>
