<?xml version="1.0" standalone="no"?>
<!DOCTYPE svg PUBLIC "-//W3C//DTD SVG 20010904//EN"
 "http://www.w3.org/TR/2001/REC-SVG-20010904/DTD/svg10.dtd">
<svg version="1.0" xmlns="http://www.w3.org/2000/svg"
 width="657.000000pt" height="976.000000pt" viewBox="0 0 657.000000 976.000000"
 preserveAspectRatio="xMidYMid meet">
<metadata>
Created by potrace 1.16, written by Peter Selinger 2001-2019
</metadata>
<g transform="translate(0.000000,976.000000) scale(0.100000,-0.100000)"
fill="#000000" stroke="none">
<path d="M2180 9684 c-1034 -80 -1015 -77 -1056 -139 -19 -30 -103 -356 -104
-404 0 -47 35 -105 80 -130 34 -19 53 -21 201 -21 295 0 562 -28 654 -69 74
-33 80 -47 79 -185 l-1 -121 -1011 -4040 c-556 -2222 -1014 -4067 -1017 -4100
-35 -309 250 -532 589 -460 185 39 363 177 444 346 36 74 93 292 492 1889
l451 1805 76 145 c229 436 433 729 683 981 362 364 730 539 1185 565 200 12
326 -28 435 -138 136 -137 194 -339 193 -673 0 -262 -37 -501 -139 -909 -145
-579 -336 -1176 -675 -2111 -66 -181 -131 -375 -145 -430 -110 -453 2 -897
299 -1182 138 -133 292 -215 503 -269 99 -26 125 -29 284 -29 187 0 229 6 390
57 573 181 1087 817 1384 1710 30 89 66 209 81 265 31 117 27 149 -26 199
l-30 29 -222 3 c-300 3 -287 12 -351 -233 -52 -195 -143 -463 -216 -635 -220
-516 -496 -816 -803 -875 -182 -35 -279 -6 -324 95 -24 54 -29 254 -9 381 34
212 79 363 265 871 317 870 524 1518 665 2083 89 356 116 551 116 833 0 307
-41 512 -144 728 -68 142 -120 218 -218 320 -222 231 -543 371 -953 415 -136
14 -429 6 -575 -16 -465 -71 -897 -277 -1267 -604 -46 -40 -83 -70 -83 -67 0
3 225 906 500 2006 275 1100 500 2019 500 2041 0 88 -73 150 -172 148 -29 -1
-483 -35 -1008 -75z"/>
</g>
</svg>
