<?xml version="1.0" standalone="no"?>
<!DOCTYPE svg PUBLIC "-//W3C//DTD SVG 20010904//EN"
 "http://www.w3.org/TR/2001/REC-SVG-20010904/DTD/svg10.dtd">
<svg version="1.0" xmlns="http://www.w3.org/2000/svg"
 width="1232.000000pt" height="946.000000pt" viewBox="0 0 1232.000000 946.000000"
 preserveAspectRatio="xMidYMid meet">
<metadata>
Created by potrace 1.16, written by Peter Selinger 2001-2019
</metadata>
<g transform="translate(0.000000,946.000000) scale(0.100000,-0.100000)"
fill="#000000" stroke="none">
<path d="M5260 9443 c-19 -10 -44 -32 -56 -50 -24 -36 -104 -343 -104 -400 0
-51 29 -103 71 -128 32 -19 57 -20 422 -25 213 -3 387 -9 388 -13 1 -11 -4210
-7389 -4225 -7402 -7 -5 -42 -55 -78 -110 -234 -355 -548 -565 -972 -650 -128
-26 -313 -45 -434 -45 -83 0 -138 -22 -166 -65 -21 -32 -106 -355 -106 -404 0
-47 36 -105 81 -130 37 -21 43 -21 196 -12 87 6 359 16 605 23 466 12 1203 3
1738 -23 232 -12 236 -11 278 10 23 12 49 32 58 46 20 30 103 356 104 404 0
87 -76 151 -181 151 -87 0 -244 25 -321 50 -118 40 -215 112 -266 199 -21 36
-27 60 -30 130 -4 90 1 110 62 256 13 33 400 717 859 1520 l833 1460 947 3
c633 1 947 -1 947 -8 0 -27 -824 -3304 -846 -3368 -34 -94 -95 -164 -163 -187
-85 -28 -260 -45 -526 -52 -284 -6 -312 -12 -349 -68 -21 -32 -106 -355 -106
-404 0 -47 36 -105 80 -130 l38 -21 3021 0 c3262 0 3058 -3 3108 51 32 35
1423 3512 1423 3556 0 49 -35 107 -80 132 -35 19 -53 21 -224 21 -200 0 -232
-6 -272 -51 -12 -13 -85 -180 -163 -371 -340 -834 -570 -1306 -825 -1693 -184
-278 -326 -429 -541 -572 -360 -241 -738 -368 -1278 -430 -134 -16 -253 -18
-982 -18 -703 1 -838 3 -880 15 l-50 15 1 57 c1 39 141 615 435 1793 l434
1737 625 -5 c530 -3 641 -7 730 -21 213 -35 345 -98 419 -201 104 -145 90
-456 -45 -1014 -50 -207 -53 -249 -23 -298 40 -64 74 -73 286 -73 210 0 239 7
279 67 33 49 919 3600 910 3647 -8 44 -50 95 -93 112 -23 10 -84 14 -219 14
-171 0 -189 -2 -224 -21 -20 -11 -45 -34 -54 -51 -10 -16 -38 -107 -62 -201
-117 -453 -217 -713 -346 -905 -153 -227 -389 -356 -745 -409 -86 -12 -229
-17 -696 -20 -568 -5 -589 -4 -583 14 3 10 215 857 471 1883 265 1060 477
1889 491 1920 73 160 101 163 1135 157 749 -4 811 -7 1058 -48 367 -61 646
-210 784 -419 20 -30 50 -96 66 -145 102 -307 99 -800 -10 -1648 -16 -126 -29
-249 -29 -274 0 -59 30 -107 82 -134 36 -19 55 -20 238 -17 184 3 201 5 227
24 62 46 52 -15 269 1616 l205 1531 -23 46 c-13 25 -36 54 -51 65 l-28 21
-3457 3 c-3276 2 -3459 1 -3492 -15z m1519 -658 c164 -27 221 -68 221 -159 0
-34 -797 -3260 -921 -3728 l-10 -38 -844 0 c-465 0 -845 3 -845 6 0 3 505 890
1121 1970 1116 1955 1122 1964 1153 1964 17 0 73 -7 125 -15z"/>
</g>
</svg>
