<?xml version="1.0" standalone="no"?>
<!DOCTYPE svg PUBLIC "-//W3C//DTD SVG 20010904//EN"
 "http://www.w3.org/TR/2001/REC-SVG-20010904/DTD/svg10.dtd">
<svg version="1.0" xmlns="http://www.w3.org/2000/svg"
 width="921.000000pt" height="977.000000pt" viewBox="0 0 921.000000 977.000000"
 preserveAspectRatio="xMidYMid meet">
<metadata>
Created by potrace 1.16, written by Peter Selinger 2001-2019
</metadata>
<g transform="translate(0.000000,977.000000) scale(0.100000,-0.100000)"
fill="#000000" stroke="none">
<path d="M419 9749 c-53 -31 -72 -73 -118 -266 -46 -190 -47 -223 -3 -275 45
-53 70 -58 299 -58 356 0 717 -27 819 -60 38 -13 54 -45 54 -110 0 -33 -241
-1013 -689 -2808 -379 -1516 -701 -2816 -715 -2888 -48 -246 -59 -371 -60
-649 -1 -283 8 -383 54 -615 188 -941 806 -1632 1704 -1904 118 -36 305 -75
466 -97 125 -18 546 -18 665 -1 537 76 1025 270 1515 603 841 570 1508 1462
1841 2459 55 165 195 712 719 2809 512 2050 658 2620 685 2678 47 101 108 184
198 269 208 199 505 292 988 312 203 8 222 13 258 74 23 37 101 343 101 395 0
54 -30 104 -77 131 -40 22 -43 22 -234 12 -107 -5 -438 -15 -736 -22 -561 -12
-1280 -3 -1822 23 -234 12 -235 12 -276 -10 -25 -13 -50 -37 -62 -59 -32 -59
-106 -373 -97 -418 8 -46 55 -100 97 -112 18 -6 108 -13 201 -16 295 -10 484
-51 627 -136 79 -47 123 -94 157 -169 21 -46 26 -75 30 -161 l4 -105 -656
-2622 c-438 -1751 -674 -2677 -710 -2787 -186 -559 -457 -1050 -802 -1446
-103 -119 -345 -357 -444 -436 -431 -346 -915 -564 -1415 -640 -165 -25 -480
-25 -620 0 -384 68 -703 269 -899 566 -269 406 -314 997 -140 1834 65 310
1443 5804 1471 5865 38 80 117 155 183 175 131 39 486 66 870 66 240 0 265 6
306 67 24 36 104 343 104 400 0 54 -30 104 -78 131 l-41 23 -248 -10 c-782
-33 -2005 -37 -2803 -11 -157 5 -364 12 -460 15 -168 6 -177 5 -211 -16z"/>
</g>
</svg>
