<?xml version="1.0" standalone="no"?>
<!DOCTYPE svg PUBLIC "-//W3C//DTD SVG 20010904//EN"
 "http://www.w3.org/TR/2001/REC-SVG-20010904/DTD/svg10.dtd">
<svg version="1.0" xmlns="http://www.w3.org/2000/svg"
 width="850.000000pt" height="968.000000pt" viewBox="0 0 850.000000 968.000000"
 preserveAspectRatio="xMidYMid meet">
<metadata>
Created by potrace 1.16, written by Peter Selinger 2001-2019
</metadata>
<g transform="translate(0.000000,968.000000) scale(0.100000,-0.100000)"
fill="#000000" stroke="none">
<path d="M5235 9674 c-419 -34 -826 -129 -1240 -291 -179 -70 -582 -269 -750
-370 -715 -431 -1344 -1006 -1874 -1713 -593 -791 -1018 -1706 -1229 -2645
-256 -1140 -163 -2203 268 -3050 299 -589 735 -1026 1295 -1300 312 -153 575
-232 935 -282 157 -21 601 -24 765 -5 882 103 1738 480 2543 1120 370 293 756
682 1071 1076 1076 1349 1622 3107 1430 4606 -87 681 -327 1284 -709 1780
-104 135 -372 399 -510 502 -408 305 -851 484 -1370 553 -110 15 -519 27 -625
19z m455 -359 c491 -88 899 -361 1192 -799 259 -387 412 -880 459 -1480 15
-190 6 -706 -15 -911 -94 -886 -362 -1925 -707 -2740 -84 -198 -287 -605 -389
-780 -539 -919 -1255 -1624 -2012 -1979 -683 -320 -1327 -352 -1875 -91 -592
282 -998 888 -1143 1705 -70 397 -79 898 -24 1380 90 802 357 1820 678 2593
555 1332 1411 2344 2405 2841 289 145 574 234 871 272 137 17 432 11 560 -11z"/>
<path d="M2370 5758 c-18 -13 -41 -34 -51 -48 -28 -38 -422 -1626 -414 -1667
3 -18 17 -46 32 -63 43 -51 71 -60 190 -60 122 0 163 14 198 65 11 17 40 111
64 208 l43 177 1699 0 c934 0 1699 -2 1699 -6 0 -3 -16 -69 -36 -147 -39 -156
-39 -188 3 -237 43 -51 71 -60 190 -60 119 0 160 13 196 61 23 31 416 1593
417 1655 0 51 -32 102 -80 126 -27 14 -60 18 -143 18 -180 0 -195 -15 -257
-263 l-47 -182 -1700 -3 -1701 -2 34 132 c40 159 42 203 11 249 -37 56 -76 69
-203 69 -99 0 -115 -2 -144 -22z"/>
</g>
</svg>
