<?xml version="1.0" standalone="no"?>
<!DOCTYPE svg PUBLIC "-//W3C//DTD SVG 20010904//EN"
 "http://www.w3.org/TR/2001/REC-SVG-20010904/DTD/svg10.dtd">
<svg version="1.0" xmlns="http://www.w3.org/2000/svg"
 width="1230.000000pt" height="1008.000000pt" viewBox="0 0 1230.000000 1008.000000"
 preserveAspectRatio="xMidYMid meet">
<metadata>
Created by potrace 1.16, written by Peter Selinger 2001-2019
</metadata>
<g transform="translate(0.000000,1008.000000) scale(0.100000,-0.100000)"
fill="#000000" stroke="none">
<path d="M5455 10073 c-1022 -67 -2133 -583 -3070 -1425 -152 -136 -453 -439
-585 -587 -627 -709 -1142 -1593 -1445 -2483 -336 -985 -434 -1933 -289 -2798
212 -1267 968 -2230 2044 -2604 359 -125 761 -186 1135 -173 253 9 400 33 960
157 343 76 418 91 615 123 l135 21 2565 6 c1917 4 2570 8 2585 17 11 6 30 22
42 35 23 25 1392 3391 1400 3442 5 39 -31 112 -70 140 -25 19 -45 21 -180 24
-143 2 -154 1 -191 -20 -21 -13 -47 -39 -58 -58 -10 -19 -72 -165 -137 -325
-365 -894 -644 -1438 -938 -1828 -338 -449 -855 -735 -1533 -846 -306 -51
-378 -54 -1354 -58 -907 -4 -1063 -1 -1145 28 l-34 12 6 86 c4 69 103 476 494
2041 l489 1955 820 0 c717 0 836 -3 959 -18 330 -41 504 -123 574 -270 42 -89
55 -165 54 -312 0 -178 -26 -343 -104 -664 -45 -188 -47 -210 -18 -261 38 -67
76 -80 233 -80 93 0 147 4 169 14 77 32 48 -71 523 1828 l438 1754 -25 49
c-41 83 -57 89 -229 93 -132 3 -152 1 -187 -17 -22 -11 -48 -32 -58 -47 -9
-15 -37 -104 -61 -198 -143 -553 -274 -830 -489 -1035 -194 -184 -459 -271
-920 -301 -159 -10 -1545 -15 -1545 -5 0 3 196 789 436 1747 271 1084 447
1770 466 1816 56 136 114 172 303 192 120 13 1664 13 1880 0 582 -35 904 -139
1136 -371 62 -61 86 -94 123 -170 91 -187 121 -384 120 -774 0 -297 -14 -479
-70 -930 -19 -154 -32 -294 -29 -312 7 -41 50 -92 92 -109 22 -10 76 -14 169
-14 121 0 141 2 175 22 75 42 61 -38 270 1577 l190 1474 -23 46 c-13 25 -36
54 -51 65 l-28 21 -2432 5 c-2277 5 -2439 7 -2537 23 -174 30 -330 65 -635
142 -308 77 -515 118 -684 135 -95 9 -327 11 -446 3z m346 -413 c135 -14 297
-51 394 -89 156 -63 292 -174 354 -290 133 -250 114 -733 -60 -1591 -55 -268
-1200 -4863 -1299 -5210 -203 -713 -425 -1254 -629 -1528 -250 -336 -653 -517
-1201 -539 -464 -18 -843 122 -1166 430 -365 348 -616 869 -749 1555 -103 535
-112 1204 -25 1847 202 1480 743 2801 1575 3840 740 925 1586 1483 2385 1574
109 12 302 13 421 1z"/>
</g>
</svg>
