<?xml version="1.0" standalone="no"?>
<!DOCTYPE svg PUBLIC "-//W3C//DTD SVG 20010904//EN"
 "http://www.w3.org/TR/2001/REC-SVG-20010904/DTD/svg10.dtd">
<svg version="1.0" xmlns="http://www.w3.org/2000/svg"
 width="208.000000pt" height="402.000000pt" viewBox="0 0 208.000000 402.000000"
 preserveAspectRatio="xMidYMid meet">
<metadata>
Created by potrace 1.16, written by Peter Selinger 2001-2019
</metadata>
<g transform="translate(0.000000,402.000000) scale(0.100000,-0.100000)"
fill="#000000" stroke="none">
<path d="M1260 4005 c-184 -38 -338 -123 -471 -261 -295 -307 -338 -771 -94
-1009 211 -205 636 -205 925 -1 66 47 69 48 64 29 -142 -635 -431 -1209 -883
-1753 -181 -218 -530 -556 -723 -700 -88 -66 -99 -126 -38 -218 64 -95 130
-115 211 -63 82 53 303 244 468 406 264 258 479 519 677 820 326 496 554 1050
645 1570 26 152 36 429 20 546 -50 353 -208 560 -479 630 -88 22 -223 24 -322
4z"/>
</g>
</svg>
