<?xml version="1.0" standalone="no"?>
<!DOCTYPE svg PUBLIC "-//W3C//DTD SVG 20010904//EN"
 "http://www.w3.org/TR/2001/REC-SVG-20010904/DTD/svg10.dtd">
<svg version="1.0" xmlns="http://www.w3.org/2000/svg"
 width="883.000000pt" height="1210.000000pt" viewBox="0 0 883.000000 1210.000000"
 preserveAspectRatio="xMidYMid meet">
<metadata>
Created by potrace 1.16, written by Peter Selinger 2001-2019
</metadata>
<g transform="translate(0.000000,1210.000000) scale(0.100000,-0.100000)"
fill="#000000" stroke="none">
<path d="M5795 12090 c-861 -71 -1506 -430 -1866 -1038 -155 -262 -283 -590
-384 -987 -43 -167 -149 -685 -275 -1342 l-52 -273 -558 0 -557 0 -33 -22
c-51 -35 -67 -65 -96 -172 -29 -112 -27 -149 13 -196 52 -62 32 -60 613 -60
l532 0 -6 -27 c-3 -16 -170 -883 -371 -1928 -490 -2546 -628 -3234 -806 -4010
-92 -398 -226 -928 -265 -1045 -100 -299 -262 -531 -429 -615 -57 -28 -66 -30
-175 -29 -186 2 -330 52 -442 153 l-51 45 69 21 c176 54 340 184 416 330 125
241 109 488 -42 629 -182 170 -490 166 -735 -9 -182 -130 -286 -353 -287 -620
-1 -144 22 -248 83 -371 131 -267 421 -453 794 -510 131 -21 321 -14 426 15
226 61 435 195 641 409 432 450 726 1115 1027 2319 158 633 212 895 687 3363
195 1015 357 1853 360 1863 5 16 84 17 1475 17 808 0 1469 -2 1469 -5 0 -3
-218 -877 -484 -1942 -267 -1066 -492 -1986 -500 -2044 -76 -513 111 -996 482
-1243 101 -67 208 -114 341 -149 108 -28 128 -30 291 -31 163 0 181 2 265 28
385 118 654 453 874 1091 58 166 143 460 217 750 l48 190 -20 39 c-34 70 -58
81 -198 84 -136 4 -182 -7 -211 -51 -9 -14 -48 -146 -86 -294 -121 -466 -205
-728 -309 -963 -106 -242 -255 -434 -386 -501 -63 -32 -74 -34 -163 -34 -111
0 -168 21 -222 83 -78 88 -104 198 -103 432 0 176 13 295 55 500 10 52 456
1839 989 3971 534 2132 970 3892 970 3910 0 46 -19 79 -59 106 -34 23 -36 23
-377 23 -202 0 -353 -4 -369 -10 -61 -23 -68 -40 -166 -436 l-94 -376 -6 108
c-24 457 -419 741 -1170 840 -138 18 -627 26 -784 14z m695 -355 c218 -29 417
-88 548 -161 l66 -37 -37 -13 c-150 -52 -310 -187 -379 -319 -125 -241 -109
-488 42 -629 251 -235 728 -123 921 215 17 30 29 45 27 34 -3 -11 -137 -550
-299 -1197 l-294 -1178 -1482 0 c-1276 0 -1483 2 -1483 14 0 17 214 1126 265
1376 141 685 283 1147 419 1364 164 262 587 486 1007 535 52 6 108 13 124 15
63 9 445 -4 555 -19z"/>
</g>
</svg>
