<?xml version="1.0" standalone="no"?>
<!DOCTYPE svg PUBLIC "-//W3C//DTD SVG 20010904//EN"
 "http://www.w3.org/TR/2001/REC-SVG-20010904/DTD/svg10.dtd">
<svg version="1.0" xmlns="http://www.w3.org/2000/svg"
 width="501.000000pt" height="895.000000pt" viewBox="0 0 501.000000 895.000000"
 preserveAspectRatio="xMidYMid meet">
<metadata>
Created by potrace 1.16, written by Peter Selinger 2001-2019
</metadata>
<g transform="translate(0.000000,895.000000) scale(0.100000,-0.100000)"
fill="#000000" stroke="none">
<path d="M3515 8935 c-303 -48 -602 -185 -880 -405 -111 -88 -344 -323 -449
-455 -242 -304 -479 -718 -631 -1104 -65 -165 -66 -189 -10 -249 l33 -37 221
-3 c237 -3 263 1 295 51 8 12 43 92 77 177 286 717 676 1232 1082 1430 115 56
231 87 358 96 198 15 295 -57 335 -248 31 -146 16 -418 -37 -677 -41 -202
-1374 -5513 -1416 -5646 -147 -456 -341 -804 -588 -1051 -251 -251 -491 -337
-809 -289 -106 16 -119 21 -96 35 134 83 262 256 318 430 46 144 53 246 22
365 -56 221 -233 356 -486 372 -165 10 -334 -38 -484 -138 -127 -85 -227 -202
-287 -337 -32 -73 -69 -217 -78 -307 -13 -137 30 -323 106 -452 50 -85 208
-238 304 -295 323 -192 767 -248 1205 -152 253 56 554 180 775 319 322 204
643 516 854 830 142 212 256 439 330 661 36 108 1346 5324 1385 5517 62 301
27 632 -93 883 -69 145 -131 234 -231 334 -189 189 -420 302 -705 345 -119 18
-309 18 -420 0z"/>
</g>
</svg>
