<?xml version="1.0" standalone="no"?>
<!DOCTYPE svg PUBLIC "-//W3C//DTD SVG 20010904//EN"
 "http://www.w3.org/TR/2001/REC-SVG-20010904/DTD/svg10.dtd">
<svg version="1.0" xmlns="http://www.w3.org/2000/svg"
 width="495.000000pt" height="1328.000000pt" viewBox="0 0 495.000000 1328.000000"
 preserveAspectRatio="xMidYMid meet">
<metadata>
Created by potrace 1.16, written by Peter Selinger 2001-2019
</metadata>
<g transform="translate(0.000000,1328.000000) scale(0.100000,-0.100000)"
fill="#000000" stroke="none">
<path d="M3324 13261 c-54 -33 -70 -65 -109 -220 -41 -164 -40 -191 2 -242 51
-61 35 -59 583 -59 473 0 501 -1 496 -17 -3 -10 -685 -2738 -1516 -6063 -831
-3325 -1515 -6062 -1521 -6082 l-10 -38 -537 0 c-491 0 -540 -2 -571 -18 -53
-27 -70 -58 -106 -203 -41 -160 -43 -204 -12 -250 48 -72 7 -69 828 -69 l736
0 33 22 c18 13 41 34 51 48 22 30 3269 13011 3269 13069 0 48 -34 100 -80 123
-32 17 -90 18 -770 18 -702 0 -736 -1 -766 -19z"/>
</g>
</svg>
