<?xml version="1.0" standalone="no"?>
<!DOCTYPE svg PUBLIC "-//W3C//DTD SVG 20010904//EN"
 "http://www.w3.org/TR/2001/REC-SVG-20010904/DTD/svg10.dtd">
<svg version="1.0" xmlns="http://www.w3.org/2000/svg"
 width="685.000000pt" height="626.000000pt" viewBox="0 0 685.000000 626.000000"
 preserveAspectRatio="xMidYMid meet">
<metadata>
Created by potrace 1.16, written by Peter Selinger 2001-2019
</metadata>
<g transform="translate(0.000000,626.000000) scale(0.100000,-0.100000)"
fill="#000000" stroke="none">
<path d="M1706 6249 c-159 -23 -357 -96 -503 -184 -262 -159 -510 -418 -713
-746 -191 -306 -368 -727 -470 -1116 -25 -95 -19 -131 31 -179 l30 -29 222 -3
c293 -3 291 -5 341 195 121 477 315 923 514 1178 176 228 354 346 564 376 157
23 232 -3 280 -95 30 -58 37 -242 14 -387 -36 -226 -63 -312 -303 -974 -541
-1487 -687 -2050 -686 -2645 0 -355 55 -614 183 -870 251 -502 829 -793 1525
-767 482 17 917 225 1312 625 l102 103 37 -73 c166 -332 471 -557 857 -634 45
-9 145 -18 222 -21 161 -6 271 12 410 66 233 90 458 300 633 592 180 300 345
744 497 1337 41 160 39 185 -16 238 l-30 29 -222 3 c-207 2 -224 1 -254 -17
-18 -11 -39 -33 -47 -49 -8 -16 -38 -120 -66 -231 -220 -878 -422 -1312 -667
-1432 -68 -34 -197 -34 -265 -1 -153 75 -200 361 -128 790 12 70 255 1062 541
2205 434 1737 519 2089 519 2146 0 78 -24 168 -63 234 -93 158 -322 233 -539
178 -200 -51 -358 -182 -444 -367 -25 -54 -151 -541 -538 -2090 -278 -1110
-511 -2055 -518 -2099 -12 -69 -23 -94 -79 -183 -207 -333 -463 -588 -717
-716 -171 -86 -394 -134 -572 -123 -168 11 -282 60 -390 168 -116 116 -179
257 -216 484 -26 152 -26 487 -1 675 78 577 241 1139 682 2351 97 266 187 529
201 584 73 301 48 611 -70 861 -135 284 -352 473 -654 568 -163 51 -381 69
-546 45z"/>
</g>
</svg>
