<?xml version="1.0" standalone="no"?>
<!DOCTYPE svg PUBLIC "-//W3C//DTD SVG 20010904//EN"
 "http://www.w3.org/TR/2001/REC-SVG-20010904/DTD/svg10.dtd">
<svg version="1.0" xmlns="http://www.w3.org/2000/svg"
 width="495.000000pt" height="992.000000pt" viewBox="0 0 495.000000 992.000000"
 preserveAspectRatio="xMidYMid meet">
<metadata>
Created by potrace 1.16, written by Peter Selinger 2001-2019
</metadata>
<g transform="translate(0.000000,992.000000) scale(0.100000,-0.100000)"
fill="#000000" stroke="none">
<path d="M3890 9900 c-300 -64 -565 -275 -697 -555 -60 -127 -83 -225 -83
-354 0 -189 53 -325 175 -447 315 -315 901 -210 1230 220 67 88 138 236 165
340 25 98 27 264 5 351 -44 173 -162 319 -316 393 -148 71 -309 89 -479 52z"/>
<path d="M3165 7245 c-599 -109 -1142 -583 -1344 -1173 -42 -122 -48 -177 -23
-221 34 -62 66 -71 243 -71 146 0 158 1 190 23 39 26 57 60 94 177 130 409
493 768 865 855 84 19 222 20 258 1 73 -38 132 -139 153 -261 23 -132 -9 -362
-71 -525 -61 -158 -183 -340 -286 -425 -27 -23 -521 -410 -1099 -860 -1019
-796 -1055 -825 -1231 -1000 -203 -202 -274 -288 -409 -490 -159 -239 -266
-452 -351 -700 -216 -627 -202 -1211 41 -1703 82 -166 166 -283 295 -412 439
-439 1087 -570 1800 -365 970 279 1880 1237 2396 2521 103 258 221 639 245
795 32 209 -70 410 -252 493 -201 92 -432 69 -645 -66 -92 -57 -201 -177 -252
-276 -51 -97 -92 -248 -92 -336 0 -126 56 -261 140 -340 81 -76 227 -135 333
-136 20 0 37 -2 37 -4 0 -2 -20 -53 -44 -112 -347 -859 -895 -1569 -1486
-1930 -502 -306 -1074 -379 -1479 -188 -385 181 -601 557 -601 1045 1 548 269
1113 727 1530 40 37 552 442 1139 900 660 516 1099 866 1153 920 293 289 496
694 566 1129 20 126 20 372 -1 481 -72 380 -278 634 -584 718 -60 17 -102 21
-215 20 -77 0 -171 -7 -210 -14z"/>
</g>
</svg>
