<?xml version="1.0" standalone="no"?>
<!DOCTYPE svg PUBLIC "-//W3C//DTD SVG 20010904//EN"
 "http://www.w3.org/TR/2001/REC-SVG-20010904/DTD/svg10.dtd">
<svg version="1.0" xmlns="http://www.w3.org/2000/svg"
 width="937.000000pt" height="946.000000pt" viewBox="0 0 937.000000 946.000000"
 preserveAspectRatio="xMidYMid meet">
<metadata>
Created by potrace 1.16, written by Peter Selinger 2001-2019
</metadata>
<g transform="translate(0.000000,946.000000) scale(0.100000,-0.100000)"
fill="#000000" stroke="none">
<path d="M159 9439 c-53 -31 -71 -73 -119 -266 -47 -191 -47 -221 -3 -274 45
-53 72 -59 280 -59 103 0 262 -5 353 -10 369 -22 474 -53 544 -160 23 -35 198
-603 761 -2465 l731 -2420 -352 -1405 c-193 -773 -361 -1432 -373 -1465 -47
-133 -129 -212 -249 -239 -153 -34 -470 -56 -831 -56 -304 0 -300 3 -370 -287
-46 -190 -47 -223 -3 -275 48 -57 64 -59 345 -48 941 38 2066 38 3074 -1 287
-11 303 -11 340 7 21 11 47 33 59 51 25 38 104 345 104 405 0 55 -29 102 -77
126 -34 17 -71 20 -378 25 -478 9 -708 37 -736 89 -32 59 -14 143 355 1618
196 784 360 1435 365 1446 14 33 3379 4227 3405 4244 12 8 50 47 83 85 327
381 744 618 1228 699 115 19 299 36 395 36 88 0 134 19 166 67 24 36 104 343
104 400 0 54 -30 104 -77 131 -40 22 -44 22 -189 13 -82 -6 -344 -16 -581 -23
-451 -13 -1195 -3 -1734 23 -225 11 -238 11 -275 -7 -21 -10 -48 -33 -60 -51
-25 -38 -104 -345 -104 -405 0 -98 62 -142 215 -152 180 -11 290 -50 358 -125
86 -95 68 -237 -51 -415 -26 -38 -56 -87 -67 -107 -11 -20 -663 -838 -1450
-1818 -1238 -1543 -1431 -1779 -1437 -1759 -93 293 -1208 4004 -1208 4020 0
45 54 94 140 128 122 47 281 70 535 78 242 8 257 11 294 74 24 38 101 344 101
399 0 54 -31 104 -81 130 -38 19 -48 19 -292 10 -801 -33 -1989 -37 -2657 -11
-604 23 -541 23 -581 -1z"/>
</g>
</svg>
