<?xml version="1.0" standalone="no"?>
<!DOCTYPE svg PUBLIC "-//W3C//DTD SVG 20010904//EN"
 "http://www.w3.org/TR/2001/REC-SVG-20010904/DTD/svg10.dtd">
<svg version="1.0" xmlns="http://www.w3.org/2000/svg"
 width="487.000000pt" height="976.000000pt" viewBox="0 0 487.000000 976.000000"
 preserveAspectRatio="xMidYMid meet">
<metadata>
Created by potrace 1.16, written by Peter Selinger 2001-2019
</metadata>
<g transform="translate(0.000000,976.000000) scale(0.100000,-0.100000)"
fill="#000000" stroke="none">
<path d="M1600 9684 c-968 -79 -960 -78 -1001 -136 -12 -16 -36 -90 -55 -164
-29 -116 -33 -142 -24 -175 14 -50 53 -95 93 -107 18 -6 142 -13 277 -16 270
-6 386 -17 503 -48 135 -36 161 -83 138 -260 -7 -51 -321 -1330 -711 -2887
-384 -1538 -712 -2861 -729 -2941 -182 -880 -78 -1690 289 -2250 370 -564 958
-799 1643 -659 367 75 815 299 1172 585 136 109 405 372 532 519 630 729 1044
1714 1123 2669 17 206 8 558 -20 740 -84 552 -320 1028 -653 1317 -210 181
-454 302 -728 360 -122 25 -357 35 -474 20 -382 -49 -762 -237 -1144 -565 -56
-48 -91 -72 -88 -60 41 132 987 3955 987 3985 0 88 -73 150 -172 148 -29 -1
-460 -35 -958 -75z m1635 -3849 c349 -73 568 -448 591 -1014 16 -373 -51 -791
-265 -1646 -211 -844 -320 -1179 -506 -1560 -298 -609 -749 -1062 -1171 -1177
-107 -29 -311 -31 -399 -4 -277 84 -475 338 -559 718 -75 341 -69 692 19 1199
40 225 100 481 324 1377 l209 833 105 157 c530 789 1166 1219 1652 1117z"/>
</g>
</svg>
