<?xml version="1.0" standalone="no"?>
<!DOCTYPE svg PUBLIC "-//W3C//DTD SVG 20010904//EN"
 "http://www.w3.org/TR/2001/REC-SVG-20010904/DTD/svg10.dtd">
<svg version="1.0" xmlns="http://www.w3.org/2000/svg"
 width="812.000000pt" height="992.000000pt" viewBox="0 0 812.000000 992.000000"
 preserveAspectRatio="xMidYMid meet">
<metadata>
Created by potrace 1.16, written by Peter Selinger 2001-2019
</metadata>
<g transform="translate(0.000000,992.000000) scale(0.100000,-0.100000)"
fill="#000000" stroke="none">
<path d="M6272 9903 c-23 -8 -65 -36 -92 -61 -45 -43 -265 -444 -2314 -4229
-1245 -2300 -2271 -4189 -2279 -4198 -9 -8 -30 -41 -48 -72 -198 -351 -459
-596 -764 -719 -149 -60 -378 -104 -540 -104 -69 0 -125 -27 -153 -72 -11 -18
-34 -94 -53 -169 l-33 -136 25 -49 c13 -26 37 -57 52 -68 32 -24 69 -24 367
-6 440 27 1257 22 1947 -11 l241 -12 44 26 c30 17 50 38 61 64 25 58 67 236
67 285 0 89 -70 148 -177 148 -80 0 -237 25 -303 48 -148 51 -249 132 -302
240 -31 62 -33 73 -32 167 1 103 4 117 69 275 15 36 811 1513 1769 3282 1180
2181 1742 3210 1745 3195 2 -12 67 -1559 145 -3437 108 -2578 140 -3423 132
-3447 -32 -93 -122 -174 -251 -222 -173 -66 -326 -90 -620 -98 -300 -8 -303
-10 -356 -217 -16 -61 -29 -131 -29 -155 0 -56 30 -106 81 -131 37 -19 49 -20
271 -10 128 5 531 15 895 22 679 12 1317 4 1863 -23 221 -11 226 -11 267 9 57
29 75 66 114 223 l33 136 -25 49 c-44 88 -45 88 -327 96 -389 10 -548 40 -595
111 -45 69 -38 -64 -232 4639 -182 4397 -188 4514 -209 4558 -16 34 -32 51
-66 68 -40 20 -58 22 -195 21 -107 0 -162 -5 -193 -16z"/>
</g>
</svg>
