<?xml version="1.0" standalone="no"?>
<!DOCTYPE svg PUBLIC "-//W3C//DTD SVG 20010904//EN"
 "http://www.w3.org/TR/2001/REC-SVG-20010904/DTD/svg10.dtd">
<svg version="1.0" xmlns="http://www.w3.org/2000/svg"
 width="474.000000pt" height="860.000000pt" viewBox="0 0 474.000000 860.000000"
 preserveAspectRatio="xMidYMid meet">
<metadata>
Created by potrace 1.16, written by Peter Selinger 2001-2019
</metadata>
<g transform="translate(0.000000,860.000000) scale(0.100000,-0.100000)"
fill="#000000" stroke="none">
<path d="M3405 8590 c-181 -29 -401 -108 -562 -205 -498 -297 -954 -908 -1260
-1689 -59 -152 -62 -180 -21 -231 34 -44 75 -55 198 -55 121 0 168 13 194 52
8 12 47 104 86 203 166 416 372 787 583 1050 94 116 279 292 378 358 192 128
344 178 539 181 141 1 170 -7 237 -68 117 -105 152 -398 94 -766 -30 -190 -9
-101 -711 -2911 -459 -1836 -678 -2693 -715 -2805 -158 -468 -362 -823 -616
-1070 -142 -137 -279 -221 -436 -266 -102 -30 -323 -32 -453 -4 -88 18 -240
72 -240 85 0 4 16 13 35 20 60 21 182 109 235 169 59 66 133 208 156 301 11
45 15 95 12 166 -3 94 -6 108 -41 178 -149 302 -606 319 -892 32 -97 -96 -146
-183 -181 -321 -73 -289 16 -555 243 -734 314 -245 859 -326 1350 -201 389
100 793 345 1114 678 203 211 363 441 499 718 49 99 107 234 130 299 55 162
1333 5276 1356 5426 20 136 14 392 -11 505 -55 249 -167 458 -324 608 -156
149 -319 234 -543 283 -86 19 -345 27 -433 14z"/>
</g>
</svg>
