<?xml version="1.0" standalone="no"?>
<!DOCTYPE svg PUBLIC "-//W3C//DTD SVG 20010904//EN"
 "http://www.w3.org/TR/2001/REC-SVG-20010904/DTD/svg10.dtd">
<svg version="1.0" xmlns="http://www.w3.org/2000/svg"
 width="838.000000pt" height="602.000000pt" viewBox="0 0 838.000000 602.000000"
 preserveAspectRatio="xMidYMid meet">
<metadata>
Created by potrace 1.16, written by Peter Selinger 2001-2019
</metadata>
<g transform="translate(0.000000,602.000000) scale(0.100000,-0.100000)"
fill="#000000" stroke="none">
<path d="M4870 6001 c-150 -48 -248 -138 -305 -276 l-23 -57 -213 -83 c-1610
-621 -2775 -1369 -3502 -2248 -409 -494 -700 -1077 -803 -1612 -26 -134 -24
-368 5 -505 91 -433 373 -781 806 -995 214 -106 396 -162 655 -201 165 -25
494 -26 610 -1 271 58 544 197 820 417 58 46 177 156 264 244 88 88 157 152
153 143 -4 -10 -32 -117 -63 -240 -47 -187 -55 -232 -51 -287 21 -312 412
-407 659 -160 35 35 70 83 87 119 16 35 60 187 101 352 l73 291 20 -34 c107
-179 206 -306 334 -428 227 -217 467 -343 783 -412 92 -19 133 -22 330 -22
185 0 248 4 355 22 293 50 552 135 833 274 474 233 911 608 1214 1039 115 165
115 190 0 311 -90 94 -120 112 -175 105 -49 -7 -73 -29 -155 -147 -36 -52
-101 -140 -146 -195 -107 -134 -396 -423 -524 -524 -335 -264 -713 -449 -1057
-515 -439 -85 -731 -18 -976 224 -222 220 -348 500 -409 907 -60 404 -25 896
106 1509 l37 171 466 6 c256 4 547 11 646 17 731 43 1237 148 1633 340 482
233 749 550 873 1035 32 123 34 139 33 300 0 151 -3 181 -27 267 -119 443
-473 738 -1012 845 -127 25 -475 25 -630 0 -476 -78 -955 -285 -1356 -588
l-85 -65 39 155 c44 179 46 249 7 339 -62 145 -258 219 -430 163z m2308 -336
c446 -72 706 -443 641 -911 -60 -433 -336 -761 -804 -953 -423 -174 -955 -250
-1862 -268 l-352 -6 25 82 c182 594 446 1059 804 1420 321 323 723 551 1096
620 185 34 310 39 452 16z m-2738 -410 c0 -3 -187 -753 -415 -1668 -331 -1325
-422 -1674 -447 -1722 -198 -380 -465 -752 -733 -1020 -354 -355 -690 -519
-1025 -502 -253 13 -453 91 -598 230 -160 154 -220 330 -209 612 12 292 113
719 259 1084 462 1161 1559 2234 2968 2902 181 86 200 94 200 84z"/>
</g>
</svg>
