<?xml version="1.0" standalone="no"?>
<!DOCTYPE svg PUBLIC "-//W3C//DTD SVG 20010904//EN"
 "http://www.w3.org/TR/2001/REC-SVG-20010904/DTD/svg10.dtd">
<svg version="1.0" xmlns="http://www.w3.org/2000/svg"
 width="455.000000pt" height="402.000000pt" viewBox="0 0 455.000000 402.000000"
 preserveAspectRatio="xMidYMid meet">
<metadata>
Created by potrace 1.16, written by Peter Selinger 2001-2019
</metadata>
<g transform="translate(0.000000,402.000000) scale(0.100000,-0.100000)"
fill="#000000" stroke="none">
<path d="M1848 4006 c-75 -39 -348 -275 -533 -461 -608 -608 -1038 -1347
-1230 -2113 -173 -693 -64 -1206 291 -1374 215 -101 520 -67 751 84 302 197
472 583 393 892 -26 104 -63 169 -137 244 -207 210 -615 217 -914 17 -43 -29
-79 -49 -79 -43 0 5 14 64 31 130 213 845 750 1654 1508 2273 111 90 132 112
141 145 13 47 -2 89 -51 151 -52 66 -113 85 -171 55z"/>
<path d="M4308 4006 c-75 -39 -348 -275 -533 -461 -608 -608 -1038 -1347
-1230 -2113 -173 -693 -64 -1206 291 -1374 215 -101 520 -67 751 84 302 197
472 583 393 892 -26 104 -63 169 -137 244 -207 210 -615 217 -914 17 -43 -29
-79 -49 -79 -43 0 5 14 64 31 130 213 845 750 1654 1508 2273 111 90 132 112
141 145 13 47 -2 89 -51 151 -52 66 -113 85 -171 55z"/>
</g>
</svg>
