<?xml version="1.0" standalone="no"?>
<!DOCTYPE svg PUBLIC "-//W3C//DTD SVG 20010904//EN"
 "http://www.w3.org/TR/2001/REC-SVG-20010904/DTD/svg10.dtd">
<svg version="1.0" xmlns="http://www.w3.org/2000/svg"
 width="619.000000pt" height="954.000000pt" viewBox="0 0 619.000000 954.000000"
 preserveAspectRatio="xMidYMid meet">
<metadata>
Created by potrace 1.16, written by Peter Selinger 2001-2019
</metadata>
<g transform="translate(0.000000,954.000000) scale(0.100000,-0.100000)"
fill="#000000" stroke="none">
<path d="M4134 9530 c-663 -64 -1231 -343 -1861 -911 -716 -648 -1099 -1285
-1332 -2216 -232 -929 -190 -1536 153 -2208 253 -497 576 -786 1008 -900 188
-50 269 -59 508 -59 196 -1 240 2 339 22 476 96 922 377 1304 822 l47 54 -26
-94 c-258 -951 -497 -1574 -795 -2075 -367 -616 -887 -1093 -1404 -1288 -311
-118 -692 -127 -997 -23 -128 44 -196 85 -288 176 l-75 74 70 22 c158 49 268
116 372 228 136 146 209 315 220 511 15 254 -134 457 -382 520 -86 22 -253 20
-346 -5 -254 -66 -460 -245 -555 -479 -94 -233 -121 -602 -61 -833 67 -256
215 -463 435 -608 176 -117 394 -195 663 -237 162 -25 540 -25 692 0 684 115
1357 490 2001 1117 786 766 1428 1815 1809 2960 114 340 211 706 321 1205 260
1180 294 2061 110 2812 -127 522 -376 905 -748 1155 -169 113 -371 196 -584
239 -112 23 -446 33 -598 19z m406 -554 c408 -114 644 -609 576 -1206 -49
-428 -231 -1310 -367 -1782 -116 -404 -287 -827 -459 -1133 -427 -765 -949
-1142 -1536 -1112 -251 13 -407 73 -536 204 -32 32 -70 75 -84 96 -41 61 -101
195 -131 292 -26 86 -27 100 -27 295 0 360 59 681 315 1704 176 703 251 967
356 1251 151 408 285 637 515 880 310 328 603 479 1028 529 72 8 296 -3 350
-18z"/>
</g>
</svg>
