<?xml version="1.0" standalone="no"?>
<!DOCTYPE svg PUBLIC "-//W3C//DTD SVG 20010904//EN"
 "http://www.w3.org/TR/2001/REC-SVG-20010904/DTD/svg10.dtd">
<svg version="1.0" xmlns="http://www.w3.org/2000/svg"
 width="522.000000pt" height="845.000000pt" viewBox="0 0 522.000000 845.000000"
 preserveAspectRatio="xMidYMid meet">
<metadata>
Created by potrace 1.16, written by Peter Selinger 2001-2019
</metadata>
<g transform="translate(0.000000,845.000000) scale(0.100000,-0.100000)"
fill="#000000" stroke="none">
<path d="M2872 8439 c-405 -47 -866 -261 -1280 -594 -831 -668 -1428 -1788
-1568 -2945 -24 -198 -25 -603 0 -785 118 -896 599 -1504 1309 -1657 152 -32
430 -32 575 0 345 77 669 258 1013 565 l96 85 -287 -1146 c-158 -631 -297
-1172 -309 -1202 -52 -136 -124 -215 -224 -245 -135 -41 -392 -65 -692 -65
-238 0 -262 -15 -305 -190 -34 -138 -18 -201 62 -242 32 -17 49 -18 234 -8
109 5 427 15 705 21 521 12 1180 3 1711 -22 264 -13 276 -11 326 46 20 22 36
59 50 118 29 112 28 165 -1 208 -40 61 -70 69 -262 69 -396 1 -652 36 -692 96
-42 65 -68 -48 937 3976 781 3125 942 3779 936 3811 -9 48 -64 104 -111 113
-63 12 -96 -3 -217 -96 -255 -198 -467 -413 -600 -608 l-70 -104 -57 106
c-207 392 -505 624 -885 691 -95 16 -272 18 -394 4z m322 -343 c283 -55 501
-275 639 -646 44 -118 91 -310 112 -456 l16 -110 -354 -1417 -355 -1417 -106
-160 c-457 -685 -980 -1089 -1446 -1116 -375 -22 -636 246 -731 750 -16 83
-23 166 -26 328 -10 409 38 711 247 1548 116 466 192 736 264 945 202 590 443
1003 781 1340 334 334 651 469 959 411z"/>
</g>
</svg>
