<?xml version="1.0" standalone="no"?>
<!DOCTYPE svg PUBLIC "-//W3C//DTD SVG 20010904//EN"
 "http://www.w3.org/TR/2001/REC-SVG-20010904/DTD/svg10.dtd">
<svg version="1.0" xmlns="http://www.w3.org/2000/svg"
 width="864.000000pt" height="1260.000000pt" viewBox="0 0 864.000000 1260.000000"
 preserveAspectRatio="xMidYMid meet">
<metadata>
Created by potrace 1.16, written by Peter Selinger 2001-2019
</metadata>
<g transform="translate(0.000000,1260.000000) scale(0.100000,-0.100000)"
fill="#000000" stroke="none">
<path d="M6305 12594 c-824 -44 -1440 -277 -1889 -713 -401 -391 -643 -887
-821 -1686 -20 -88 -87 -428 -150 -755 -63 -327 -117 -605 -120 -617 l-5 -23
-592 0 -591 0 -42 -24 c-49 -29 -64 -60 -100 -203 -41 -168 -29 -230 54 -273
39 -19 56 -20 606 -20 l567 0 -6 -27 c-3 -16 -175 -903 -381 -1973 -377 -1960
-492 -2547 -611 -3115 -183 -876 -422 -1900 -496 -2125 -93 -285 -254 -517
-411 -595 -137 -67 -396 -30 -561 80 -31 20 -56 40 -56 44 0 4 19 13 43 20 98
30 200 93 287 181 95 95 141 165 181 279 70 198 58 366 -36 507 -109 165 -347
241 -580 185 -153 -37 -266 -103 -376 -219 -130 -135 -204 -318 -216 -532 -30
-543 413 -957 1057 -986 161 -8 244 3 390 52 196 65 378 184 562 367 478 476
794 1172 1117 2466 169 673 209 874 765 3761 l313 1625 1326 3 c878 1 1327 -1
1327 -8 0 -5 -222 -900 -494 -1987 -272 -1088 -502 -2021 -512 -2073 -21 -117
-24 -381 -5 -495 86 -525 429 -890 943 -1002 129 -28 385 -25 498 5 429 115
733 493 980 1218 62 182 110 346 190 654 69 262 69 278 10 335 l-31 30 -169 3
c-183 4 -213 -3 -246 -52 -8 -14 -49 -153 -90 -309 -210 -808 -371 -1186 -590
-1386 -89 -81 -148 -106 -259 -106 -78 0 -97 4 -147 28 -60 30 -97 71 -130
144 -62 141 -64 456 -3 778 9 44 271 1102 582 2350 l567 2271 -20 39 c-10 22
-34 50 -53 62 l-34 23 -1768 0 c-973 0 -1769 3 -1769 6 0 18 257 1334 295
1507 181 838 362 1289 593 1479 355 292 823 413 1522 395 536 -15 939 -109
1163 -274 l50 -37 -51 -17 c-187 -64 -338 -199 -427 -384 -60 -124 -78 -208
-73 -337 3 -94 7 -110 40 -181 102 -213 348 -311 618 -247 280 68 484 270 560
555 33 123 39 342 12 456 -36 151 -98 265 -206 378 -240 252 -644 408 -1236
477 -130 15 -698 27 -865 18z"/>
</g>
</svg>
