<?xml version="1.0" standalone="no"?>
<!DOCTYPE svg PUBLIC "-//W3C//DTD SVG 20010904//EN"
 "http://www.w3.org/TR/2001/REC-SVG-20010904/DTD/svg10.dtd">
<svg version="1.0" xmlns="http://www.w3.org/2000/svg"
 width="337.000000pt" height="149.000000pt" viewBox="0 0 337.000000 149.000000"
 preserveAspectRatio="xMidYMid meet">
<metadata>
Created by potrace 1.16, written by Peter Selinger 2001-2019
</metadata>
<g transform="translate(0.000000,149.000000) scale(0.100000,-0.100000)"
fill="#000000" stroke="none">
<path d="M1635 964 c-831 -288 -1529 -533 -1553 -544 -23 -11 -51 -34 -63 -52
-18 -29 -20 -44 -15 -134 6 -118 19 -157 70 -202 29 -26 45 -32 80 -32 68 0
3120 1061 3159 1097 44 43 51 84 34 200 -21 144 -62 194 -159 192 -30 0 -515
-164 -1553 -525z"/>
</g>
</svg>
