<?xml version="1.0" standalone="no"?>
<!DOCTYPE svg PUBLIC "-//W3C//DTD SVG 20010904//EN"
 "http://www.w3.org/TR/2001/REC-SVG-20010904/DTD/svg10.dtd">
<svg version="1.0" xmlns="http://www.w3.org/2000/svg"
 width="885.000000pt" height="1008.000000pt" viewBox="0 0 885.000000 1008.000000"
 preserveAspectRatio="xMidYMid meet">
<metadata>
Created by potrace 1.16, written by Peter Selinger 2001-2019
</metadata>
<g transform="translate(0.000000,1008.000000) scale(0.100000,-0.100000)"
fill="#000000" stroke="none">
<path d="M5465 10074 c-22 -2 -89 -9 -150 -14 -854 -83 -1794 -495 -2620
-1149 -352 -278 -742 -662 -1057 -1041 -543 -653 -1008 -1483 -1283 -2292
-336 -984 -434 -1933 -290 -2795 92 -550 308 -1096 593 -1503 205 -293 512
-594 797 -782 827 -543 1875 -644 2975 -286 1003 326 1984 1017 2762 1945 246
295 511 669 704 998 112 191 321 605 403 800 278 656 444 1291 517 1975 21
205 30 678 15 881 -75 1018 -431 1854 -1042 2444 -458 443 -1026 712 -1689
800 -109 15 -547 28 -635 19z m313 -455 c554 -60 1011 -342 1333 -821 183
-272 314 -612 389 -1013 69 -373 78 -876 24 -1355 -115 -1024 -520 -2406 -965
-3292 -674 -1343 -1675 -2305 -2686 -2583 -221 -61 -353 -79 -578 -79 -217 -1
-297 9 -471 54 -695 183 -1198 798 -1388 1696 -69 328 -90 591 -83 1023 8 512
65 949 203 1581 366 1669 941 2857 1804 3721 632 634 1352 1013 2035 1072 93
8 293 6 383 -4z"/>
</g>
</svg>
