<?xml version="1.0" standalone="no"?>
<!DOCTYPE svg PUBLIC "-//W3C//DTD SVG 20010904//EN"
 "http://www.w3.org/TR/2001/REC-SVG-20010904/DTD/svg10.dtd">
<svg version="1.0" xmlns="http://www.w3.org/2000/svg"
 width="1115.000000pt" height="942.000000pt" viewBox="0 0 1115.000000 942.000000"
 preserveAspectRatio="xMidYMid meet">
<metadata>
Created by potrace 1.16, written by Peter Selinger 2001-2019
</metadata>
<g transform="translate(0.000000,942.000000) scale(0.100000,-0.100000)"
fill="#000000" stroke="none">
<path d="M2359 9398 c-53 -30 -71 -72 -118 -265 -46 -190 -47 -223 -3 -275 45
-53 70 -58 299 -58 356 0 717 -27 819 -60 39 -13 54 -46 54 -113 -1 -73 -1907
-7696 -1944 -7771 -33 -68 -95 -132 -149 -156 -106 -47 -332 -69 -782 -77
-315 -5 -343 -7 -376 -25 -52 -29 -71 -71 -118 -265 -47 -193 -47 -224 1 -279
46 -52 67 -55 323 -44 127 5 530 15 897 22 690 12 1607 3 2260 -23 263 -11
278 -11 314 7 22 11 48 33 60 51 24 36 104 343 104 400 0 53 -30 104 -76 130
-37 22 -50 23 -254 23 -387 0 -737 27 -824 64 -28 12 -37 23 -46 55 -6 23 -8
58 -5 79 3 20 452 1825 998 4010 l992 3972 1807 0 c1440 0 1808 -3 1808 -12 0
-7 -443 -1783 -984 -3945 -670 -2678 -992 -3950 -1010 -3987 -33 -68 -95 -132
-149 -156 -106 -47 -332 -69 -782 -77 -315 -5 -343 -7 -376 -25 -52 -29 -71
-71 -118 -265 -47 -193 -47 -224 1 -279 46 -52 67 -55 323 -44 127 5 530 15
897 22 690 12 1607 3 2260 -23 263 -11 278 -11 314 7 22 11 48 33 60 51 24 36
104 343 104 400 0 53 -30 104 -76 130 -37 22 -50 23 -254 23 -387 0 -737 27
-824 64 -28 11 -37 23 -46 55 -6 22 -8 59 -4 83 3 24 436 1761 960 3862 626
2505 964 3838 981 3875 38 80 117 155 183 175 131 39 486 66 870 66 240 0 265
6 306 67 24 36 104 343 104 400 0 53 -30 104 -76 130 l-39 23 -4315 0 -4315 0
-36 -22z"/>
</g>
</svg>
