<?xml version="1.0" standalone="no"?>
<!DOCTYPE svg PUBLIC "-//W3C//DTD SVG 20010904//EN"
 "http://www.w3.org/TR/2001/REC-SVG-20010904/DTD/svg10.dtd">
<svg version="1.0" xmlns="http://www.w3.org/2000/svg"
 width="917.000000pt" height="1008.000000pt" viewBox="0 0 917.000000 1008.000000"
 preserveAspectRatio="xMidYMid meet">
<metadata>
Created by potrace 1.16, written by Peter Selinger 2001-2019
</metadata>
<g transform="translate(0.000000,1008.000000) scale(0.100000,-0.100000)"
fill="#000000" stroke="none">
<path d="M5530 10069 c-1125 -98 -2287 -642 -3255 -1525 -1263 -1153 -2083
-2731 -2250 -4334 -22 -207 -30 -630 -16 -834 58 -853 330 -1595 799 -2186 94
-118 358 -383 472 -474 282 -225 625 -412 972 -531 377 -129 699 -180 1138
-180 323 1 467 14 745 70 351 70 645 170 960 325 323 159 565 329 797 560
l137 136 55 -110 c93 -187 237 -388 406 -569 86 -92 118 -111 172 -104 49 7
83 29 102 66 9 16 177 674 374 1464 265 1057 368 1453 391 1503 76 163 182
199 616 211 307 8 309 9 364 238 34 142 32 175 -11 230 -40 52 -68 56 -275 45
-717 -38 -1763 -38 -2899 1 -340 11 -340 11 -383 -10 -23 -12 -50 -35 -59 -50
-10 -16 -33 -92 -51 -169 l-34 -139 24 -49 c46 -92 28 -88 457 -96 483 -8 695
-24 864 -64 104 -25 128 -57 128 -174 0 -56 -31 -193 -160 -712 -179 -716
-183 -732 -250 -874 -288 -614 -994 -1081 -1810 -1196 -138 -19 -503 -16 -660
5 -268 37 -525 111 -739 213 -671 318 -1114 908 -1266 1685 -134 686 -72 1504
195 2569 303 1211 710 2121 1269 2835 532 680 1198 1189 1926 1474 534 209
1100 287 1539 211 577 -99 1001 -473 1249 -1100 217 -550 275 -1328 156 -2108
-19 -129 -20 -134 -2 -170 10 -20 33 -47 52 -59 32 -21 45 -23 190 -23 175 0
211 10 242 65 9 17 230 884 490 1928 l474 1897 -20 37 c-32 60 -76 83 -156 83
-37 0 -80 -5 -95 -12 -15 -7 -254 -261 -531 -565 -277 -304 -507 -553 -511
-553 -4 0 -28 33 -52 73 -165 266 -425 534 -680 700 -108 70 -297 164 -425
212 -120 45 -331 98 -475 120 -126 20 -535 28 -690 14z"/>
</g>
</svg>
