<?xml version="1.0" standalone="no"?>
<!DOCTYPE svg PUBLIC "-//W3C//DTD SVG 20010904//EN"
 "http://www.w3.org/TR/2001/REC-SVG-20010904/DTD/svg10.dtd">
<svg version="1.0" xmlns="http://www.w3.org/2000/svg"
 width="1105.000000pt" height="942.000000pt" viewBox="0 0 1105.000000 942.000000"
 preserveAspectRatio="xMidYMid meet">
<metadata>
Created by potrace 1.16, written by Peter Selinger 2001-2019
</metadata>
<g transform="translate(0.000000,942.000000) scale(0.100000,-0.100000)"
fill="#000000" stroke="none">
<path d="M2359 9399 c-20 -12 -44 -35 -54 -52 -23 -39 -74 -240 -75 -292 0
-55 29 -105 76 -132 37 -21 50 -23 244 -23 341 0 659 -25 782 -60 20 -6 47
-19 60 -29 21 -18 23 -26 22 -123 -1 -102 -8 -131 -966 -3958 -1055 -4218
-986 -3959 -1087 -4060 -103 -103 -302 -136 -891 -148 -349 -8 -350 -8 -390
-74 -29 -49 -82 -280 -74 -324 8 -45 55 -99 97 -113 23 -8 99 -8 252 -1 121 5
516 15 877 22 680 12 1553 3 2194 -23 259 -11 274 -11 310 7 57 28 79 69 114
214 35 145 33 182 -8 232 -44 53 -71 58 -289 58 -478 0 -821 42 -855 103 -8
13 -12 57 -11 107 1 77 90 440 1002 4090 551 2203 1006 4022 1012 4043 l10 37
1859 0 c1023 0 1860 -1 1860 -2 0 -2 -452 -1808 -1004 -4013 -1097 -4388
-1024 -4113 -1125 -4215 -103 -103 -302 -136 -891 -148 -349 -8 -350 -8 -390
-74 -29 -49 -82 -280 -74 -324 8 -45 55 -99 97 -113 23 -8 99 -8 252 -1 121 5
516 15 877 22 680 12 1553 3 2194 -23 259 -11 274 -11 310 7 57 28 79 69 114
214 35 145 33 182 -8 232 -44 53 -71 58 -289 58 -478 0 -821 42 -855 103 -8
13 -12 57 -11 107 1 77 86 426 961 3925 529 2112 970 3866 981 3898 43 124
126 229 207 263 111 47 365 73 774 80 421 8 406 1 461 218 16 61 29 129 29
151 0 55 -29 105 -76 132 l-39 23 -4265 0 -4265 0 -36 -21z"/>
</g>
</svg>
