<?xml version="1.0" standalone="no"?>
<!DOCTYPE svg PUBLIC "-//W3C//DTD SVG 20010904//EN"
 "http://www.w3.org/TR/2001/REC-SVG-20010904/DTD/svg10.dtd">
<svg version="1.0" xmlns="http://www.w3.org/2000/svg"
 width="1232.000000pt" height="946.000000pt" viewBox="0 0 1232.000000 946.000000"
 preserveAspectRatio="xMidYMid meet">
<metadata>
Created by potrace 1.16, written by Peter Selinger 2001-2019
</metadata>
<g transform="translate(0.000000,946.000000) scale(0.100000,-0.100000)"
fill="#000000" stroke="none">
<path d="M5260 9443 c-19 -10 -44 -33 -56 -51 -31 -46 -87 -281 -78 -328 9
-48 57 -101 102 -114 21 -5 219 -11 444 -13 224 -1 410 -5 413 -8 6 -6 -4269
-7431 -4305 -7479 -11 -14 -63 -89 -115 -168 -201 -299 -457 -518 -740 -631
-192 -77 -377 -115 -631 -129 -201 -11 -211 -20 -264 -233 -37 -147 -35 -181
11 -234 45 -51 73 -56 234 -45 77 5 338 15 581 22 459 12 1145 3 1668 -24 228
-11 230 -11 271 11 23 12 49 36 60 53 23 40 74 240 75 293 0 93 -70 155 -175
155 -93 0 -245 26 -321 55 -87 33 -151 74 -204 131 -59 64 -83 123 -88 219 -5
95 12 172 61 278 19 40 40 86 48 104 8 17 397 695 864 1507 l850 1475 981 1
982 0 -433 -1727 c-238 -951 -442 -1752 -454 -1781 -83 -206 -191 -246 -696
-258 -132 -3 -254 -10 -272 -15 -60 -19 -87 -64 -121 -202 -18 -70 -32 -141
-32 -158 0 -45 36 -103 80 -128 l38 -21 3021 0 c3261 0 3058 -3 3108 51 23 26
1392 3392 1400 3443 5 39 -31 112 -70 140 -25 19 -46 21 -177 24 -132 3 -152
1 -187 -17 -22 -11 -47 -31 -56 -44 -8 -13 -54 -120 -102 -238 -364 -895 -616
-1410 -885 -1809 -188 -279 -327 -423 -549 -572 -357 -239 -748 -370 -1301
-434 -122 -14 -279 -18 -974 -21 -817 -4 -974 0 -1055 28 l-34 12 6 86 c4 69
94 444 449 1861 l444 1775 665 0 c696 0 785 -4 948 -46 96 -24 204 -76 258
-123 158 -138 160 -445 7 -1075 -24 -101 -44 -197 -44 -213 0 -44 37 -103 80
-127 33 -19 54 -21 174 -21 93 0 147 4 169 14 77 32 48 -71 523 1828 l438
1754 -25 49 c-41 83 -57 89 -229 93 -132 3 -152 1 -187 -17 -22 -11 -48 -32
-58 -47 -9 -15 -37 -104 -61 -198 -249 -964 -472 -1227 -1123 -1323 -85 -13
-235 -17 -753 -20 -357 -3 -648 -2 -648 1 0 4 216 871 481 1928 300 1202 492
1950 511 1996 40 96 86 145 158 166 112 34 245 38 1068 33 673 -3 831 -7 952
-21 446 -52 736 -166 919 -361 104 -112 153 -225 194 -447 20 -111 22 -155 22
-453 -1 -358 -7 -451 -71 -968 -19 -159 -32 -302 -29 -318 9 -39 52 -89 92
-105 22 -10 76 -14 169 -14 121 0 141 2 175 22 75 42 61 -38 270 1577 l190
1474 -23 46 c-13 25 -36 54 -51 65 l-28 21 -3457 3 c-3276 2 -3459 1 -3492
-15z m1470 -558 c147 -24 194 -40 228 -80 33 -37 52 -89 52 -145 0 -19 -214
-893 -476 -1942 l-476 -1908 -895 0 c-492 0 -892 3 -890 8 39 73 2353 4082
2357 4082 3 0 48 -7 100 -15z"/>
</g>
</svg>
