<?xml version="1.0" standalone="no"?>
<!DOCTYPE svg PUBLIC "-//W3C//DTD SVG 20010904//EN"
 "http://www.w3.org/TR/2001/REC-SVG-20010904/DTD/svg10.dtd">
<svg version="1.0" xmlns="http://www.w3.org/2000/svg"
 width="885.000000pt" height="1008.000000pt" viewBox="0 0 885.000000 1008.000000"
 preserveAspectRatio="xMidYMid meet">
<metadata>
Created by potrace 1.16, written by Peter Selinger 2001-2019
</metadata>
<g transform="translate(0.000000,1008.000000) scale(0.100000,-0.100000)"
fill="#000000" stroke="none">
<path d="M5465 10074 c-22 -2 -89 -9 -150 -14 -854 -83 -1794 -495 -2620
-1149 -352 -278 -742 -662 -1057 -1041 -543 -653 -1008 -1483 -1283 -2292
-336 -984 -434 -1933 -290 -2795 92 -550 308 -1096 593 -1503 205 -293 512
-594 797 -782 827 -543 1875 -644 2975 -286 1003 326 1984 1017 2762 1945 246
295 511 669 704 998 112 191 321 605 403 800 278 656 444 1291 517 1975 21
205 30 678 15 881 -75 1018 -431 1854 -1042 2444 -458 443 -1026 712 -1689
800 -109 15 -547 28 -635 19z m400 -528 c732 -130 1261 -655 1501 -1489 224
-777 182 -1738 -131 -3004 -306 -1237 -715 -2165 -1290 -2928 -570 -755 -1285
-1291 -2002 -1499 -1137 -330 -2113 218 -2457 1381 -166 561 -190 1251 -70
2033 80 526 261 1269 442 1815 370 1117 883 1999 1551 2665 603 602 1279 965
1936 1040 114 13 413 5 520 -14z"/>
<path d="M2677 6086 c-44 -16 -74 -41 -92 -76 -6 -14 -115 -436 -240 -938
-213 -853 -227 -916 -216 -952 15 -51 62 -97 113 -111 25 -6 108 -9 212 -7
189 3 219 12 261 74 11 16 40 112 65 212 l44 182 1458 0 c987 0 1458 -3 1458
-10 0 -6 -16 -76 -36 -156 -42 -165 -40 -197 17 -253 45 -45 90 -53 283 -49
189 3 220 12 261 74 13 19 102 360 249 948 213 856 228 920 217 956 -15 51
-62 97 -113 111 -25 6 -108 9 -212 7 -189 -3 -219 -12 -261 -74 -11 -16 -40
-112 -65 -212 l-44 -182 -1458 0 c-987 0 -1458 3 -1458 10 0 6 16 76 36 156
33 128 35 150 25 184 -15 50 -61 96 -109 110 -56 15 -349 12 -395 -4z"/>
</g>
</svg>
