<?xml version="1.0" standalone="no"?>
<!DOCTYPE svg PUBLIC "-//W3C//DTD SVG 20010904//EN"
 "http://www.w3.org/TR/2001/REC-SVG-20010904/DTD/svg10.dtd">
<svg version="1.0" xmlns="http://www.w3.org/2000/svg"
 width="815.000000pt" height="908.000000pt" viewBox="0 0 815.000000 908.000000"
 preserveAspectRatio="xMidYMid meet">
<metadata>
Created by potrace 1.16, written by Peter Selinger 2001-2019
</metadata>
<g transform="translate(0.000000,908.000000) scale(0.100000,-0.100000)"
fill="#000000" stroke="none">
<path d="M2511 9063 c-51 -27 -70 -59 -98 -169 -28 -110 -26 -157 6 -202 40
-57 65 -62 328 -62 582 0 976 -42 1044 -110 33 -32 44 -93 36 -189 -4 -51
-1510 -6107 -1521 -6118 -7 -7 -190 62 -271 102 -268 131 -466 328 -594 590
-142 289 -199 566 -208 995 -9 450 45 851 206 1518 113 469 149 696 158 987 7
277 -27 466 -115 625 -49 90 -169 207 -252 247 -136 66 -139 67 -639 71 -333
2 -462 0 -483 -9 -84 -35 -132 -161 -92 -245 27 -57 64 -76 168 -85 70 -7 105
-16 153 -39 72 -36 105 -71 145 -156 50 -106 62 -187 62 -404 0 -268 -32 -479
-139 -930 -135 -567 -169 -827 -169 -1280 0 -265 3 -325 22 -459 80 -544 292
-983 623 -1295 312 -294 730 -489 1240 -581 l96 -17 -124 -496 c-141 -566
-162 -623 -262 -722 -64 -64 -100 -83 -206 -110 -163 -42 -567 -70 -1003 -70
-315 0 -319 -2 -367 -190 -30 -117 -28 -153 12 -200 51 -61 54 -62 355 -50
150 5 588 15 973 21 720 12 1653 3 2367 -22 301 -11 319 -10 354 7 54 27 72
58 101 170 28 110 26 157 -6 202 -40 57 -65 62 -328 62 -582 0 -976 42 -1044
110 -32 32 -44 92 -36 186 2 36 62 295 133 578 l128 513 169 27 c577 93 1102
298 1572 617 399 269 779 657 1073 1091 329 489 590 1084 762 1738 121 461
193 684 297 920 112 253 211 408 353 551 148 149 270 210 457 228 104 9 139
28 169 88 27 56 25 149 -3 189 -46 64 -46 64 -516 64 -469 0 -535 -6 -676 -60
-455 -176 -795 -716 -1046 -1660 -25 -94 -65 -247 -90 -340 -186 -699 -441
-1294 -758 -1770 -426 -638 -912 -1034 -1530 -1246 -71 -24 -131 -44 -132 -44
-1 0 335 1349 747 2998 832 3331 771 3107 887 3222 64 64 100 83 206 110 163
42 567 70 1003 70 315 0 319 2 367 190 30 117 28 153 -12 200 -51 61 -54 62
-360 50 -1024 -37 -2251 -35 -3478 5 -162 6 -183 5 -214 -12z"/>
</g>
</svg>
