<?xml version="1.0" standalone="no"?>
<!DOCTYPE svg PUBLIC "-//W3C//DTD SVG 20010904//EN"
 "http://www.w3.org/TR/2001/REC-SVG-20010904/DTD/svg10.dtd">
<svg version="1.0" xmlns="http://www.w3.org/2000/svg"
 width="548.000000pt" height="880.000000pt" viewBox="0 0 548.000000 880.000000"
 preserveAspectRatio="xMidYMid meet">
<metadata>
Created by potrace 1.16, written by Peter Selinger 2001-2019
</metadata>
<g transform="translate(0.000000,880.000000) scale(0.100000,-0.100000)"
fill="#000000" stroke="none">
<path d="M3016 8789 c-427 -49 -933 -280 -1351 -615 -136 -109 -405 -372 -532
-519 -619 -717 -1028 -1677 -1119 -2625 -22 -223 -14 -587 16 -784 84 -553
320 -1028 653 -1317 210 -181 454 -302 728 -360 122 -25 357 -35 474 -20 382
49 762 237 1144 565 56 48 91 72 88 60 -4 -10 -134 -532 -291 -1159 -157 -627
-297 -1169 -312 -1205 -42 -103 -93 -168 -156 -201 -102 -52 -307 -78 -688
-86 -374 -7 -367 -3 -421 -217 -16 -61 -29 -129 -29 -151 0 -55 29 -106 77
-133 40 -22 42 -22 254 -12 803 38 1709 38 2560 -1 245 -11 259 -11 295 7 56
28 78 68 114 213 36 147 35 182 -7 232 -45 53 -73 59 -270 59 -402 1 -695 38
-725 93 -37 68 -64 -47 972 4097 729 2915 980 3934 976 3960 -15 97 -132 158
-217 115 -59 -30 -270 -176 -374 -259 -206 -164 -330 -289 -438 -443 l-51 -72
-43 80 c-202 380 -538 631 -926 694 -97 16 -285 18 -401 4z m314 -413 c396
-71 676 -486 770 -1141 l11 -80 -364 -1458 -365 -1458 -105 -157 c-155 -231
-299 -407 -481 -587 -355 -354 -665 -523 -991 -541 -388 -23 -659 256 -746
765 -53 310 -29 679 76 1206 47 236 255 1077 330 1340 222 770 474 1269 832
1645 353 370 698 526 1033 466z"/>
</g>
</svg>
