<?xml version="1.0" standalone="no"?>
<!DOCTYPE svg PUBLIC "-//W3C//DTD SVG 20010904//EN"
 "http://www.w3.org/TR/2001/REC-SVG-20010904/DTD/svg10.dtd">
<svg version="1.0" xmlns="http://www.w3.org/2000/svg"
 width="915.000000pt" height="326.000000pt" viewBox="0 0 915.000000 326.000000"
 preserveAspectRatio="xMidYMid meet">
<metadata>
Created by potrace 1.16, written by Peter Selinger 2001-2019
</metadata>
<g transform="translate(0.000000,326.000000) scale(0.100000,-0.100000)"
fill="#000000" stroke="none">
<path d="M867 3246 c-98 -36 -166 -111 -188 -212 -31 -136 62 -286 201 -324
23 -6 1447 -10 4032 -10 3966 0 3998 0 4050 20 58 21 123 81 154 140 26 49 26
191 0 240 -31 59 -96 119 -154 140 -52 20 -83 20 -4055 20 -3340 -1 -4008 -3
-4040 -14z"/>
<path d="M176 540 c-57 -22 -118 -78 -149 -135 -31 -57 -31 -193 0 -250 30
-58 101 -119 159 -139 46 -15 364 -16 4064 -14 l4015 3 41 22 c92 49 147 126
160 224 14 102 -48 217 -146 273 l-55 31 -4020 2 c-3948 2 -4021 2 -4069 -17z"/>
</g>
</svg>
