<?xml version="1.0" standalone="no"?>
<!DOCTYPE svg PUBLIC "-//W3C//DTD SVG 20010904//EN"
 "http://www.w3.org/TR/2001/REC-SVG-20010904/DTD/svg10.dtd">
<svg version="1.0" xmlns="http://www.w3.org/2000/svg"
 width="927.000000pt" height="977.000000pt" viewBox="0 0 927.000000 977.000000"
 preserveAspectRatio="xMidYMid meet">
<metadata>
Created by potrace 1.16, written by Peter Selinger 2001-2019
</metadata>
<g transform="translate(0.000000,977.000000) scale(0.100000,-0.100000)"
fill="#000000" stroke="none">
<path d="M2385 9756 c-63 -27 -79 -61 -131 -269 l-48 -194 25 -48 c45 -92 34
-89 412 -97 323 -6 509 -18 632 -39 129 -22 145 -37 145 -132 -1 -73 -1917
-7736 -1954 -7811 -33 -68 -95 -132 -149 -156 -105 -47 -332 -69 -772 -76
-181 -3 -344 -10 -362 -15 -66 -21 -86 -59 -138 -271 l-49 -195 25 -48 c13
-27 37 -58 52 -69 33 -24 52 -24 602 -6 823 27 1927 22 2790 -11 286 -11 292
-11 331 9 23 12 49 33 59 49 21 32 104 351 105 402 0 47 -35 105 -80 130 -35
20 -52 21 -251 21 -384 0 -736 27 -823 64 -28 12 -37 23 -46 55 -6 23 -8 58
-5 79 3 20 209 853 458 1850 l452 1812 800 0 c853 0 909 -3 1055 -50 208 -68
384 -208 500 -398 121 -198 183 -496 160 -774 -14 -174 -14 -172 -200 -918
-189 -756 -205 -834 -220 -1023 -22 -296 25 -548 147 -790 226 -445 707 -727
1384 -812 181 -23 476 -31 579 -16 452 66 879 428 1161 983 124 244 237 572
223 646 -9 46 -67 109 -112 122 -47 13 -346 13 -392 0 -68 -19 -95 -61 -139
-216 -105 -370 -254 -658 -435 -840 -148 -148 -273 -202 -446 -191 -106 7
-174 28 -236 70 -90 62 -153 186 -185 367 -18 97 -18 583 -1 770 70 753 132
1546 132 1679 0 635 -296 1177 -834 1526 l-88 58 118 37 c1048 327 1934 1010
2314 1785 265 539 288 1100 66 1605 -234 532 -751 962 -1419 1179 -223 72
-477 126 -767 163 -149 18 -4404 23 -4445 4z m3980 -616 c510 -38 853 -157
1086 -378 185 -174 265 -360 276 -648 9 -232 -22 -457 -123 -862 -198 -805
-417 -1197 -834 -1496 -357 -256 -815 -404 -1375 -446 -78 -5 -465 -10 -871
-10 l-732 0 458 1828 c267 1069 466 1846 479 1872 49 95 98 122 257 139 116
12 1216 13 1379 1z"/>
</g>
</svg>
