<?xml version="1.0" standalone="no"?>
<!DOCTYPE svg PUBLIC "-//W3C//DTD SVG 20010904//EN"
 "http://www.w3.org/TR/2001/REC-SVG-20010904/DTD/svg10.dtd">
<svg version="1.0" xmlns="http://www.w3.org/2000/svg"
 width="256.000000pt" height="572.000000pt" viewBox="0 0 256.000000 572.000000"
 preserveAspectRatio="xMidYMid meet">
<metadata>
Created by potrace 1.16, written by Peter Selinger 2001-2019
</metadata>
<g transform="translate(0.000000,572.000000) scale(0.100000,-0.100000)"
fill="#000000" stroke="none">
<path d="M1810 5706 c-313 -70 -577 -294 -686 -582 -55 -147 -67 -281 -35
-407 30 -117 67 -183 146 -263 80 -81 158 -125 273 -155 373 -95 836 175 988
577 32 85 54 197 54 273 0 71 -30 191 -67 268 -38 79 -149 191 -232 232 -129
66 -301 88 -441 57z"/>
<path d="M740 1426 c-313 -70 -577 -294 -686 -582 -55 -147 -67 -281 -35 -407
30 -117 67 -183 146 -263 80 -81 158 -125 273 -155 373 -95 836 175 988 577
32 85 54 197 54 273 0 71 -30 191 -67 268 -38 79 -149 191 -232 232 -129 66
-301 88 -441 57z"/>
</g>
</svg>
