<?xml version="1.0" standalone="no"?>
<!DOCTYPE svg PUBLIC "-//W3C//DTD SVG 20010904//EN"
 "http://www.w3.org/TR/2001/REC-SVG-20010904/DTD/svg10.dtd">
<svg version="1.0" xmlns="http://www.w3.org/2000/svg"
 width="1082.000000pt" height="1260.000000pt" viewBox="0 0 1082.000000 1260.000000"
 preserveAspectRatio="xMidYMid meet">
<metadata>
Created by potrace 1.16, written by Peter Selinger 2001-2019
</metadata>
<g transform="translate(0.000000,1260.000000) scale(0.100000,-0.100000)"
fill="#000000" stroke="none">
<path d="M5840 12589 c-489 -48 -940 -217 -1300 -484 -513 -383 -804 -951
-1024 -2000 -20 -93 -83 -417 -141 -720 -58 -302 -108 -558 -111 -567 -5 -17
-43 -18 -621 -18 -608 0 -616 0 -653 -21 -53 -30 -72 -71 -120 -266 -47 -191
-47 -221 -3 -274 51 -60 37 -59 683 -59 324 0 590 -3 590 -7 0 -18 -660 -3431
-716 -3703 -216 -1046 -708 -3307 -745 -3420 -82 -250 -207 -436 -342 -508
-48 -25 -60 -27 -162 -26 -89 1 -125 6 -190 28 -44 14 -93 34 -109 45 l-28 19
46 20 c67 30 188 116 238 170 102 109 165 227 204 381 68 266 -20 499 -233
614 -275 148 -692 38 -913 -242 -128 -161 -200 -402 -187 -625 28 -479 387
-829 932 -911 191 -28 344 -18 515 35 477 149 946 670 1260 1398 247 575 479
1411 725 2622 31 151 220 1128 420 2170 201 1042 367 1905 370 1918 l5 22
1501 0 1501 0 -7 -37 c-18 -99 -694 -3609 -751 -3898 -321 -1643 -558 -2592
-730 -2925 -24 -47 -82 -136 -129 -199 -242 -322 -473 -505 -740 -588 -85 -26
-323 -24 -455 4 -95 21 -260 78 -260 91 1 4 32 27 71 50 95 60 166 127 228
216 65 95 97 165 127 285 68 266 -20 499 -233 614 -275 148 -692 38 -914 -242
-122 -154 -184 -348 -182 -571 1 -140 25 -245 84 -363 167 -332 562 -554 1078
-607 221 -22 398 -10 608 40 302 73 621 236 913 468 121 96 423 398 522 523
426 535 742 1452 1087 3152 34 164 219 1118 412 2120 192 1002 353 1832 356
1845 l5 22 722 0 c802 0 765 -3 812 67 25 38 104 344 104 404 0 54 -31 104
-81 129 -37 19 -62 20 -739 20 l-702 0 6 28 c4 15 76 389 162 832 253 1314
367 1837 445 2044 43 117 206 298 315 352 28 14 77 28 108 31 108 11 327 -33
425 -86 l35 -18 -35 -18 c-65 -33 -178 -117 -221 -163 -102 -109 -165 -227
-204 -381 -68 -266 20 -499 233 -614 275 -148 692 -38 914 242 80 102 137 230
171 386 20 97 15 305 -11 400 -103 383 -442 653 -931 741 -134 24 -366 29
-483 10 -360 -59 -742 -283 -1029 -601 -207 -230 -354 -512 -498 -950 -114
-351 -206 -764 -428 -1925 l-58 -305 -1503 -3 -1503 -2 6 27 c3 16 58 296 121
623 265 1378 372 1813 523 2130 53 112 120 184 253 272 329 219 747 289 1184
198 92 -19 265 -77 265 -88 0 -4 -28 -25 -61 -46 -89 -58 -159 -125 -218 -210
-65 -95 -97 -165 -127 -285 -55 -216 -10 -409 126 -534 146 -136 351 -179 573
-123 387 98 631 426 631 846 0 138 -18 217 -78 345 -151 321 -527 542 -1058
621 -125 18 -515 26 -648 13z"/>
</g>
</svg>
