<?xml version="1.0" standalone="no"?>
<!DOCTYPE svg PUBLIC "-//W3C//DTD SVG 20010904//EN"
 "http://www.w3.org/TR/2001/REC-SVG-20010904/DTD/svg10.dtd">
<svg version="1.0" xmlns="http://www.w3.org/2000/svg"
 width="844.000000pt" height="953.000000pt" viewBox="0 0 844.000000 953.000000"
 preserveAspectRatio="xMidYMid meet">
<metadata>
Created by potrace 1.16, written by Peter Selinger 2001-2019
</metadata>
<g transform="translate(0.000000,953.000000) scale(0.100000,-0.100000)"
fill="#000000" stroke="none">
<path d="M6387 9516 c-54 -20 -111 -60 -140 -98 -13 -18 -1042 -1833 -2287
-4033 -1245 -2200 -2274 -4013 -2287 -4030 -14 -16 -55 -77 -92 -135 -315
-491 -736 -739 -1301 -766 -192 -10 -212 -25 -255 -194 -30 -117 -28 -153 12
-200 48 -58 65 -61 235 -50 84 5 331 15 548 21 409 12 1050 3 1545 -22 246
-13 260 -11 310 41 19 20 33 55 51 121 29 114 30 164 4 206 -33 54 -61 65
-183 75 -208 16 -359 70 -452 164 -61 60 -91 119 -104 205 -17 105 0 187 81
380 13 30 245 448 517 927 l493 872 1501 -2 1502 -3 72 -1089 71 -1090 -20
-55 c-31 -83 -111 -158 -213 -201 -181 -75 -315 -98 -610 -107 -220 -6 -240
-10 -283 -56 -28 -30 -72 -182 -72 -248 0 -57 31 -107 82 -132 33 -16 53 -17
264 -8 126 6 502 16 835 22 620 12 1275 4 1820 -22 225 -11 239 -11 275 7 54
27 72 57 101 170 28 110 26 157 -6 202 -38 54 -71 62 -253 62 -290 0 -549 27
-645 66 -67 28 -107 78 -132 169 -6 22 -139 1984 -296 4360 -157 2376 -288
4337 -291 4358 -7 46 -46 95 -91 113 -43 19 -254 18 -306 0z m-471 -3963 c76
-1151 135 -2095 133 -2098 -3 -3 -614 -4 -1357 -3 l-1352 3 1212 2142 1213
2143 7 -48 c4 -26 69 -989 144 -2139z"/>
</g>
</svg>
