<?xml version="1.0" standalone="no"?>
<!DOCTYPE svg PUBLIC "-//W3C//DTD SVG 20010904//EN"
 "http://www.w3.org/TR/2001/REC-SVG-20010904/DTD/svg10.dtd">
<svg version="1.0" xmlns="http://www.w3.org/2000/svg"
 width="903.000000pt" height="942.000000pt" viewBox="0 0 903.000000 942.000000"
 preserveAspectRatio="xMidYMid meet">
<metadata>
Created by potrace 1.16, written by Peter Selinger 2001-2019
</metadata>
<g transform="translate(0.000000,942.000000) scale(0.100000,-0.100000)"
fill="#000000" stroke="none">
<path d="M2375 9406 c-63 -27 -79 -61 -131 -269 l-48 -194 25 -48 c45 -92 34
-89 412 -97 323 -6 509 -18 632 -39 129 -22 145 -37 145 -132 -1 -73 -1907
-7696 -1944 -7771 -33 -68 -95 -132 -149 -156 -105 -47 -332 -69 -772 -76
-181 -3 -344 -10 -362 -15 -66 -21 -86 -59 -138 -271 l-49 -195 25 -48 c13
-27 37 -58 52 -69 33 -24 53 -24 602 -6 816 27 2099 22 3111 -11 l342 -11 40
22 c22 12 49 39 60 59 11 20 38 113 61 208 46 190 47 223 3 275 -46 55 -66 58
-354 58 -574 1 -1016 35 -1094 86 -27 18 -44 63 -44 116 0 55 1925 7751 1956
7818 50 109 94 132 288 151 148 14 1709 6 1856 -10 505 -54 789 -162 984 -372
108 -117 166 -256 203 -491 14 -91 18 -172 17 -408 0 -322 -11 -463 -69 -930
-19 -151 -35 -294 -35 -319 0 -57 30 -106 82 -132 36 -19 55 -20 238 -17 184
3 201 5 227 24 62 46 52 -15 269 1616 l205 1531 -23 46 c-13 25 -36 54 -51 65
l-28 21 -3257 2 c-2693 2 -3262 0 -3287 -11z"/>
</g>
</svg>
