<?xml version="1.0" standalone="no"?>
<!DOCTYPE svg PUBLIC "-//W3C//DTD SVG 20010904//EN"
 "http://www.w3.org/TR/2001/REC-SVG-20010904/DTD/svg10.dtd">
<svg version="1.0" xmlns="http://www.w3.org/2000/svg"
 width="1230.000000pt" height="1008.000000pt" viewBox="0 0 1230.000000 1008.000000"
 preserveAspectRatio="xMidYMid meet">
<metadata>
Created by potrace 1.16, written by Peter Selinger 2001-2019
</metadata>
<g transform="translate(0.000000,1008.000000) scale(0.100000,-0.100000)"
fill="#000000" stroke="none">
<path d="M5455 10074 c-1060 -84 -2130 -582 -3070 -1426 -152 -136 -453 -439
-585 -587 -627 -709 -1142 -1593 -1445 -2483 -336 -985 -434 -1933 -289 -2798
212 -1268 967 -2229 2045 -2605 403 -140 874 -201 1282 -164 179 16 419 58
807 142 352 77 489 104 685 134 101 16 326 17 2655 22 1901 5 2550 9 2565 18
11 6 30 22 42 35 31 33 1423 3510 1423 3555 0 49 -35 107 -80 132 -35 19 -53
21 -224 21 -200 0 -232 -6 -272 -51 -12 -13 -77 -159 -144 -324 -317 -781
-520 -1208 -751 -1583 -226 -367 -398 -557 -661 -732 -402 -267 -866 -402
-1513 -440 -289 -18 -1783 -9 -1850 11 l-50 14 1 57 c1 39 154 669 480 1972
l479 1916 680 0 c804 0 981 -9 1190 -61 161 -40 285 -122 334 -218 41 -80 55
-157 55 -306 -1 -187 -26 -347 -105 -674 -45 -187 -48 -230 -18 -278 40 -64
74 -73 286 -73 210 0 239 7 279 67 33 49 919 3600 910 3647 -8 44 -50 95 -93
112 -23 10 -84 14 -219 14 -171 0 -189 -2 -224 -21 -20 -11 -45 -34 -54 -51
-10 -16 -37 -104 -61 -196 -139 -536 -260 -805 -449 -1001 -173 -178 -388
-270 -746 -317 -103 -14 -257 -17 -868 -21 -719 -5 -744 -4 -738 14 3 10 195
776 426 1703 238 953 432 1709 446 1740 74 162 87 164 1240 157 679 -4 864 -8
971 -20 416 -50 652 -131 851 -291 122 -98 191 -203 237 -363 51 -172 59 -262
59 -598 0 -338 -9 -465 -69 -945 -19 -151 -35 -294 -35 -319 0 -57 30 -106 82
-132 36 -19 55 -20 238 -17 184 3 201 5 227 24 62 46 52 -15 269 1616 l205
1531 -23 46 c-13 25 -36 54 -51 65 l-28 21 -2412 5 c-2248 5 -2419 7 -2517 23
-173 29 -342 66 -575 123 -519 129 -671 154 -970 159 -115 1 -232 1 -260 -1z
m424 -524 c135 -21 264 -59 371 -111 88 -43 118 -64 183 -129 143 -144 182
-273 181 -610 -1 -290 -38 -576 -139 -1070 -54 -260 -1186 -4801 -1276 -5115
-192 -671 -398 -1174 -596 -1453 -204 -288 -509 -456 -958 -528 -155 -25 -492
-26 -625 -1 -504 94 -907 433 -1180 992 -450 921 -499 2207 -140 3665 273
1108 758 2102 1419 2910 678 828 1479 1362 2176 1449 50 6 101 13 115 15 44 8
393 -3 469 -14z"/>
</g>
</svg>
