<?xml version="1.0" standalone="no"?>
<!DOCTYPE svg PUBLIC "-//W3C//DTD SVG 20010904//EN"
 "http://www.w3.org/TR/2001/REC-SVG-20010904/DTD/svg10.dtd">
<svg version="1.0" xmlns="http://www.w3.org/2000/svg"
 width="218.000000pt" height="425.000000pt" viewBox="0 0 218.000000 425.000000"
 preserveAspectRatio="xMidYMid meet">
<metadata>
Created by potrace 1.16, written by Peter Selinger 2001-2019
</metadata>
<g transform="translate(0.000000,425.000000) scale(0.100000,-0.100000)"
fill="#000000" stroke="none">
<path d="M1351 4239 c-29 -5 -95 -23 -145 -40 -309 -103 -549 -367 -637 -699
-34 -127 -32 -295 4 -406 51 -155 148 -267 292 -335 213 -102 499 -89 739 32
43 21 81 38 83 36 1 -2 -12 -60 -31 -128 -198 -717 -603 -1395 -1181 -1975
-93 -94 -231 -223 -305 -286 -74 -63 -142 -123 -150 -133 -9 -11 -15 -38 -15
-69 0 -45 6 -59 47 -118 73 -102 113 -127 183 -114 83 16 533 431 784 724 163
190 261 320 395 522 296 444 499 875 629 1336 103 362 122 491 121 799 0 227
-2 245 -27 339 -93 347 -315 528 -642 525 -49 -1 -114 -5 -144 -10z"/>
</g>
</svg>
