<?xml version="1.0" standalone="no"?>
<!DOCTYPE svg PUBLIC "-//W3C//DTD SVG 20010904//EN"
 "http://www.w3.org/TR/2001/REC-SVG-20010904/DTD/svg10.dtd">
<svg version="1.0" xmlns="http://www.w3.org/2000/svg"
 width="1116.000000pt" height="946.000000pt" viewBox="0 0 1116.000000 946.000000"
 preserveAspectRatio="xMidYMid meet">
<metadata>
Created by potrace 1.16, written by Peter Selinger 2001-2019
</metadata>
<g transform="translate(0.000000,946.000000) scale(0.100000,-0.100000)"
fill="#000000" stroke="none">
<path d="M2369 9438 c-20 -11 -46 -37 -57 -57 -32 -58 -104 -373 -96 -417 8
-46 55 -100 97 -113 18 -5 205 -12 417 -15 440 -6 730 -25 730 -47 0 -29
-1875 -7504 -1895 -7552 -100 -248 -300 -423 -596 -521 -182 -61 -328 -83
-599 -92 -260 -9 -261 -11 -329 -291 -47 -193 -47 -224 1 -279 45 -51 70 -55
278 -44 102 5 435 15 742 22 575 12 1291 3 1849 -23 225 -11 238 -11 275 7 21
10 48 33 60 51 24 36 104 343 104 400 0 52 -30 104 -74 129 -32 18 -60 22
-214 27 -285 11 -438 40 -587 112 -111 53 -180 121 -215 210 -20 51 -24 77
-23 170 l1 110 874 3488 873 3487 1459 -4042 c802 -2224 1467 -4059 1478
-4079 11 -20 37 -46 58 -58 35 -19 52 -21 244 -21 227 0 253 5 297 58 23 26
164 581 1038 4077 803 3215 1019 4063 1046 4122 47 101 107 184 198 269 208
199 505 292 988 312 203 8 222 13 258 74 23 37 101 343 101 395 0 54 -30 104
-77 131 -40 22 -42 22 -254 12 -803 -38 -1709 -38 -2560 1 l-256 12 -41 -23
c-22 -12 -49 -39 -60 -59 -31 -58 -104 -373 -96 -417 8 -46 55 -100 97 -112
18 -6 108 -13 201 -16 295 -10 484 -51 627 -136 129 -77 180 -165 187 -327 l5
-102 -734 -2936 c-404 -1614 -736 -2935 -739 -2935 -3 0 -567 1558 -1254 3463
-687 1904 -1259 3482 -1271 3507 -14 30 -34 52 -61 67 l-39 23 -1210 0 -1210
0 -36 -22z"/>
</g>
</svg>
