<?xml version="1.0" standalone="no"?>
<!DOCTYPE svg PUBLIC "-//W3C//DTD SVG 20010904//EN"
 "http://www.w3.org/TR/2001/REC-SVG-20010904/DTD/svg10.dtd">
<svg version="1.0" xmlns="http://www.w3.org/2000/svg"
 width="476.000000pt" height="952.000000pt" viewBox="0 0 476.000000 952.000000"
 preserveAspectRatio="xMidYMid meet">
<metadata>
Created by potrace 1.16, written by Peter Selinger 2001-2019
</metadata>
<g transform="translate(0.000000,952.000000) scale(0.100000,-0.100000)"
fill="#000000" stroke="none">
<path d="M2935 9509 c-266 -32 -516 -109 -780 -238 -312 -154 -563 -338 -850
-626 -447 -446 -811 -1018 -1070 -1680 -113 -288 -219 -644 -231 -775 -12
-126 38 -262 126 -344 182 -170 490 -166 735 9 88 63 149 135 201 240 61 124
77 195 72 320 -3 94 -6 108 -41 178 -72 145 -226 236 -399 237 -27 0 -48 2
-48 5 0 2 22 60 49 128 247 619 598 1161 1010 1559 397 384 814 598 1263 647
315 35 591 -26 819 -179 178 -120 337 -345 402 -570 68 -234 64 -543 -9 -824
-105 -400 -361 -802 -690 -1087 -54 -47 -560 -449 -1124 -894 -564 -445 -1063
-845 -1108 -889 -209 -202 -367 -455 -461 -741 -137 -414 -131 -757 19 -1060
101 -205 260 -338 473 -395 74 -20 98 -22 242 -17 229 8 371 47 605 168 388
201 698 565 835 983 40 123 42 139 17 185 -31 58 -69 71 -210 71 -178 0 -193
-10 -240 -165 -67 -216 -187 -413 -356 -581 -212 -213 -440 -324 -663 -324
-98 0 -141 15 -196 68 -214 206 -123 759 177 1080 34 36 514 422 1105 889 575
455 1089 864 1142 910 588 508 972 1277 996 1994 12 338 -49 633 -186 903
-214 422 -576 692 -1066 796 -117 25 -427 35 -560 19z"/>
<path d="M1018 1430 c-281 -48 -555 -259 -679 -524 -128 -273 -93 -552 91
-736 121 -122 276 -177 465 -166 215 12 415 105 581 270 308 309 349 741 94
996 -136 136 -340 195 -552 160z"/>
</g>
</svg>
