<?xml version="1.0" standalone="no"?>
<!DOCTYPE svg PUBLIC "-//W3C//DTD SVG 20010904//EN"
 "http://www.w3.org/TR/2001/REC-SVG-20010904/DTD/svg10.dtd">
<svg version="1.0" xmlns="http://www.w3.org/2000/svg"
 width="618.000000pt" height="937.000000pt" viewBox="0 0 618.000000 937.000000"
 preserveAspectRatio="xMidYMid meet">
<metadata>
Created by potrace 1.16, written by Peter Selinger 2001-2019
</metadata>
<g transform="translate(0.000000,937.000000) scale(0.100000,-0.100000)"
fill="#000000" stroke="none">
<path d="M2040 9294 c-465 -41 -855 -76 -868 -79 -13 -3 -39 -20 -58 -38 -30
-27 -39 -47 -59 -127 -31 -121 -32 -167 -2 -211 40 -60 71 -69 252 -69 293 0
534 -27 633 -70 73 -32 89 -117 56 -291 -8 -46 -461 -1866 -1006 -4044 -944
-3775 -990 -3963 -985 -4027 11 -139 99 -260 225 -309 47 -19 75 -23 162 -22
117 0 186 19 270 73 74 47 167 151 200 222 20 44 164 605 470 1828 242 971
452 1792 466 1825 85 202 331 618 498 843 136 182 402 453 546 554 291 206
570 305 904 324 206 12 340 -31 454 -147 123 -123 179 -286 201 -575 41 -533
-195 -1464 -774 -3059 -141 -388 -179 -521 -196 -687 -38 -375 90 -747 330
-959 273 -242 682 -313 1058 -185 440 150 825 587 1118 1272 54 125 182 506
215 640 23 90 23 91 4 129 -34 69 -59 80 -198 83 -197 6 -212 -7 -266 -216
-78 -305 -205 -654 -323 -887 -184 -363 -413 -612 -642 -697 -151 -56 -318
-62 -399 -14 -149 87 -154 415 -15 895 17 58 91 269 164 470 444 1222 693
2060 761 2566 25 191 23 492 -5 649 -40 224 -125 431 -241 584 -230 306 -644
482 -1136 482 -515 0 -994 -171 -1414 -506 -47 -38 -144 -127 -216 -199 l-131
-130 504 2015 c371 1483 503 2024 498 2047 -7 38 -46 88 -86 108 -15 8 -50 14
-76 14 -26 -1 -428 -35 -893 -75z"/>
</g>
</svg>
