<?xml version="1.0" standalone="no"?>
<!DOCTYPE svg PUBLIC "-//W3C//DTD SVG 20010904//EN"
 "http://www.w3.org/TR/2001/REC-SVG-20010904/DTD/svg10.dtd">
<svg version="1.0" xmlns="http://www.w3.org/2000/svg"
 width="517.000000pt" height="1384.000000pt" viewBox="0 0 517.000000 1384.000000"
 preserveAspectRatio="xMidYMid meet">
<metadata>
Created by potrace 1.16, written by Peter Selinger 2001-2019
</metadata>
<g transform="translate(0.000000,1384.000000) scale(0.100000,-0.100000)"
fill="#000000" stroke="none">
<path d="M3468 13820 c-53 -28 -71 -67 -114 -241 l-38 -156 25 -48 c47 -96 6
-90 615 -93 501 -2 535 -4 530 -20 -3 -9 -714 -2854 -1581 -6322 -867 -3468
-1580 -6322 -1586 -6342 l-10 -38 -560 0 c-537 0 -561 -1 -598 -20 -56 -28
-74 -65 -117 -241 l-38 -156 25 -48 c13 -27 37 -58 52 -69 28 -21 40 -21 803
-24 755 -2 775 -2 813 18 21 10 48 34 59 52 11 20 699 2751 1718 6829 l1698
6795 -24 49 c-14 27 -38 58 -53 69 -28 21 -39 21 -805 23 -752 2 -778 2 -814
-17z"/>
</g>
</svg>
