<?xml version="1.0" standalone="no"?>
<!DOCTYPE svg PUBLIC "-//W3C//DTD SVG 20010904//EN"
 "http://www.w3.org/TR/2001/REC-SVG-20010904/DTD/svg10.dtd">
<svg version="1.0" xmlns="http://www.w3.org/2000/svg"
 width="934.000000pt" height="1122.000000pt" viewBox="0 0 934.000000 1122.000000"
 preserveAspectRatio="xMidYMid meet">
<metadata>
Created by potrace 1.16, written by Peter Selinger 2001-2019
</metadata>
<g transform="translate(0.000000,1122.000000) scale(0.100000,-0.100000)"
fill="#000000" stroke="none">
<path d="M8940 11212 c-37 -17 -81 -68 -549 -639 -271 -332 -496 -605 -501
-608 -4 -3 -36 18 -71 46 -411 329 -913 538 -1484 615 -163 22 -614 25 -780 6
-908 -108 -1792 -496 -2620 -1151 -352 -278 -742 -662 -1057 -1041 -543 -653
-1008 -1483 -1283 -2292 -336 -985 -434 -1933 -289 -2798 69 -412 216 -849
398 -1182 111 -201 166 -285 347 -522 16 -20 3 -38 -507 -661 -498 -608 -544
-669 -544 -724 0 -8 9 -34 21 -58 18 -37 40 -56 143 -123 109 -72 126 -80 169
-80 26 0 61 7 77 15 16 8 241 274 525 622 274 335 501 609 506 611 4 2 42 -24
84 -57 361 -287 835 -491 1336 -575 972 -163 2090 126 3128 811 837 553 1603
1372 2147 2298 112 191 321 605 403 800 278 656 444 1291 517 1975 21 205 30
678 15 881 -61 828 -306 1531 -729 2093 -53 69 -79 113 -74 120 5 6 240 295
524 641 283 347 520 640 526 652 16 30 15 98 -2 131 -20 39 -48 62 -165 136
-91 57 -111 66 -150 65 -25 0 -53 -3 -61 -7z m-2925 -1082 c391 -37 746 -173
1047 -401 88 -67 249 -222 312 -302 l39 -47 -34 -43 c-19 -24 -1319 -1613
-2888 -3530 -2315 -2828 -2857 -3484 -2864 -3471 -21 37 -90 255 -117 369 -59
250 -79 411 -87 721 -15 611 85 1272 347 2289 213 828 414 1397 681 1935 378
758 848 1346 1425 1781 538 405 1138 649 1729 702 90 8 307 6 410 -3z m1719
-1352 c251 -714 227 -1608 -79 -2911 -354 -1505 -731 -2427 -1305 -3192 -585
-780 -1363 -1320 -2180 -1517 -762 -182 -1464 -41 -1994 403 -89 74 -256 251
-256 271 0 12 5761 7048 5770 7048 4 0 24 -46 44 -102z"/>
</g>
</svg>
