<?xml version="1.0" standalone="no"?>
<!DOCTYPE svg PUBLIC "-//W3C//DTD SVG 20010904//EN"
 "http://www.w3.org/TR/2001/REC-SVG-20010904/DTD/svg10.dtd">
<svg version="1.0" xmlns="http://www.w3.org/2000/svg"
 width="400.000000pt" height="148.000000pt" viewBox="0 0 400.000000 148.000000"
 preserveAspectRatio="xMidYMid meet">
<metadata>
Created by potrace 1.16, written by Peter Selinger 2001-2019
</metadata>
<g transform="translate(0.000000,148.000000) scale(0.100000,-0.100000)"
fill="#000000" stroke="none">
<path d="M746 1464 c-361 -78 -657 -371 -731 -726 -72 -342 127 -655 461 -724
93 -19 232 -15 334 12 77 19 229 89 296 135 78 53 198 174 254 255 211 306
206 669 -15 889 -144 144 -378 206 -599 159z"/>
<path d="M3220 1464 c-400 -85 -725 -441 -747 -818 -12 -193 43 -344 170 -471
275 -274 758 -220 1088 122 162 168 251 373 252 583 0 114 -19 196 -71 294
-120 230 -409 351 -692 290z"/>
</g>
</svg>
