<?xml version="1.0" standalone="no"?>
<!DOCTYPE svg PUBLIC "-//W3C//DTD SVG 20010904//EN"
 "http://www.w3.org/TR/2001/REC-SVG-20010904/DTD/svg10.dtd">
<svg version="1.0" xmlns="http://www.w3.org/2000/svg"
 width="372.000000pt" height="231.000000pt" viewBox="0 0 372.000000 231.000000"
 preserveAspectRatio="xMidYMid meet">
<metadata>
Created by potrace 1.16, written by Peter Selinger 2001-2019
</metadata>
<g transform="translate(0.000000,231.000000) scale(0.100000,-0.100000)"
fill="#000000" stroke="none">
<path d="M2242 2300 c-38 -16 -2203 -1821 -2223 -1854 -29 -48 -25 -114 11
-167 67 -100 177 -235 209 -256 46 -31 116 -31 162 0 19 13 414 317 878 676
717 554 846 650 858 639 7 -8 242 -302 521 -653 279 -352 522 -650 541 -662
37 -25 107 -31 143 -12 12 7 89 65 172 131 193 152 221 198 178 290 -9 20
-302 442 -651 938 -538 765 -640 904 -672 921 -41 20 -89 24 -127 9z"/>
</g>
</svg>
