<?xml version="1.0" standalone="no"?>
<!DOCTYPE svg PUBLIC "-//W3C//DTD SVG 20010904//EN"
 "http://www.w3.org/TR/2001/REC-SVG-20010904/DTD/svg10.dtd">
<svg version="1.0" xmlns="http://www.w3.org/2000/svg"
 width="956.000000pt" height="1118.000000pt" viewBox="0 0 956.000000 1118.000000"
 preserveAspectRatio="xMidYMid meet">
<metadata>
Created by potrace 1.16, written by Peter Selinger 2001-2019
</metadata>
<g transform="translate(0.000000,1118.000000) scale(0.100000,-0.100000)"
fill="#000000" stroke="none">
<path d="M9219 11157 c-19 -12 -278 -311 -575 -662 -298 -352 -546 -638 -550
-637 -5 2 -53 41 -108 85 -445 368 -941 582 -1541 663 -163 22 -614 25 -780 6
-908 -108 -1792 -496 -2620 -1151 -352 -278 -742 -662 -1057 -1041 -543 -653
-1008 -1483 -1283 -2292 -336 -985 -434 -1933 -289 -2798 98 -589 334 -1159
654 -1584 l80 -106 -565 -668 c-391 -461 -569 -678 -577 -704 -14 -46 -4 -100
26 -135 13 -16 55 -50 94 -77 83 -57 138 -68 194 -42 26 12 185 194 574 653
297 350 542 641 545 646 4 5 64 -38 135 -95 410 -331 863 -533 1395 -622 972
-163 2090 126 3128 811 837 553 1603 1372 2147 2298 112 191 321 605 403 800
278 656 444 1291 517 1975 21 205 30 678 15 881 -59 803 -296 1502 -693 2044
-45 60 -81 115 -82 122 -1 7 251 310 559 674 308 364 565 671 572 683 18 31
16 113 -4 148 -18 29 -109 100 -170 132 -46 23 -103 20 -144 -7z m-3063 -948
c487 -47 919 -246 1249 -574 115 -114 257 -293 247 -310 -4 -6 -1352 -1601
-2997 -3544 l-2989 -3531 -28 71 c-188 473 -244 1132 -158 1871 93 798 408
2040 714 2817 327 829 735 1487 1250 2019 798 822 1822 1268 2712 1181z m1782
-1451 c244 -740 223 -1620 -69 -2888 -309 -1339 -666 -2256 -1171 -3008 -463
-688 -1033 -1209 -1688 -1541 -638 -324 -1268 -431 -1850 -315 -315 63 -642
215 -880 410 -128 104 -286 270 -364 383 l-28 40 2992 3536 c1645 1944 2995
3535 2999 3535 5 0 31 -69 59 -152z"/>
</g>
</svg>
