<?xml version="1.0" standalone="no"?>
<!DOCTYPE svg PUBLIC "-//W3C//DTD SVG 20010904//EN"
 "http://www.w3.org/TR/2001/REC-SVG-20010904/DTD/svg10.dtd">
<svg version="1.0" xmlns="http://www.w3.org/2000/svg"
 width="876.000000pt" height="938.000000pt" viewBox="0 0 876.000000 938.000000"
 preserveAspectRatio="xMidYMid meet">
<metadata>
Created by potrace 1.16, written by Peter Selinger 2001-2019
</metadata>
<g transform="translate(0.000000,938.000000) scale(0.100000,-0.100000)"
fill="#000000" stroke="none">
<path d="M115 9362 c-51 -33 -67 -59 -92 -150 -28 -107 -29 -166 -3 -209 39
-65 48 -67 325 -75 351 -9 520 -38 589 -98 35 -31 70 -100 81 -160 3 -19 190
-1952 414 -4296 359 -3761 409 -4264 427 -4295 11 -20 38 -44 64 -57 42 -21
55 -23 180 -20 127 3 138 5 187 32 28 15 65 42 81 60 17 17 1082 1797 2367
3956 1286 2159 2348 3939 2361 3955 14 17 50 68 80 114 286 433 606 673 1024
770 95 22 250 41 337 41 111 0 156 43 192 184 27 110 27 154 -1 196 -44 64
-74 71 -239 60 -79 -5 -311 -15 -515 -21 -383 -12 -1048 -2 -1513 22 -117 6
-227 8 -246 5 -20 -4 -50 -21 -69 -40 -28 -29 -38 -51 -61 -144 -30 -123 -28
-155 12 -203 39 -45 69 -56 184 -62 121 -8 257 -43 335 -88 64 -36 139 -115
167 -177 18 -39 22 -64 21 -152 -1 -89 -5 -116 -29 -180 -15 -41 -32 -81 -37
-87 -6 -7 -20 -38 -33 -69 -13 -31 -891 -1514 -1951 -3294 -1757 -2950 -1929
-3235 -1932 -3202 -2 20 -151 1578 -331 3462 -288 3005 -327 3430 -316 3466
17 56 68 129 116 164 79 57 255 117 414 140 39 6 165 13 280 17 221 6 240 10
284 57 28 30 71 178 71 247 0 57 -31 107 -82 132 -33 16 -53 17 -269 7 -436
-18 -1322 -32 -1704 -25 -342 5 -572 12 -1000 31 -127 5 -143 4 -170 -14z"/>
</g>
</svg>
