<?xml version="1.0" standalone="no"?>
<!DOCTYPE svg PUBLIC "-//W3C//DTD SVG 20010904//EN"
 "http://www.w3.org/TR/2001/REC-SVG-20010904/DTD/svg10.dtd">
<svg version="1.0" xmlns="http://www.w3.org/2000/svg"
 width="1306.000000pt" height="946.000000pt" viewBox="0 0 1306.000000 946.000000"
 preserveAspectRatio="xMidYMid meet">
<metadata>
Created by potrace 1.16, written by Peter Selinger 2001-2019
</metadata>
<g transform="translate(0.000000,946.000000) scale(0.100000,-0.100000)"
fill="#000000" stroke="none">
<path d="M2385 9446 c-57 -25 -80 -65 -114 -200 -17 -69 -31 -139 -31 -156 0
-48 33 -103 78 -128 38 -21 51 -22 243 -22 339 0 658 -25 781 -60 20 -6 47
-19 60 -29 21 -18 23 -26 22 -123 -1 -102 -8 -130 -921 -3778 -506 -2021 -932
-3706 -948 -3745 -91 -228 -264 -414 -490 -528 -195 -97 -496 -157 -798 -157
-100 0 -156 -21 -185 -69 -10 -16 -33 -92 -51 -169 l-34 -139 24 -49 c13 -26
37 -57 52 -68 33 -24 62 -24 492 -6 645 27 1524 23 2240 -11 238 -11 241 -11
283 10 24 12 51 35 60 50 10 16 33 92 51 169 l34 139 -24 49 c-41 82 -54 87
-250 96 -290 13 -446 45 -591 120 -184 95 -261 255 -237 495 6 52 343 1420
929 3765 506 2025 924 3691 928 3701 4 10 189 -1880 410 -4200 222 -2320 406
-4235 409 -4256 8 -54 41 -98 93 -125 41 -21 56 -23 175 -20 147 3 192 18 262
86 25 25 908 1498 2603 4344 1411 2368 2566 4305 2567 4304 1 -1 -440 -1770
-981 -3931 -1075 -4301 -1004 -4034 -1105 -4135 -103 -103 -295 -135 -866
-147 -425 -8 -405 3 -464 -241 l-34 -139 24 -49 c13 -26 37 -57 52 -68 33 -24
41 -24 566 -6 799 27 1828 23 2662 -11 273 -11 275 -11 317 10 24 12 51 35 60
50 10 16 33 92 51 169 l34 139 -24 49 c-45 90 -37 88 -392 96 -496 10 -736 42
-769 101 -8 13 -12 57 -11 107 1 77 87 428 966 3945 532 2123 975 3886 986
3918 43 124 126 229 207 263 110 46 364 73 764 80 173 3 329 10 347 15 60 19
87 64 121 202 18 70 32 140 32 157 0 48 -33 103 -78 128 l-40 22 -1194 -2
-1193 -3 -54 -30 c-29 -16 -70 -48 -90 -71 -20 -24 -1078 -1792 -2351 -3930
-1273 -2137 -2315 -3883 -2317 -3878 -1 5 -169 1757 -373 3894 -415 4341 -370
3951 -459 3997 l-44 23 -1221 0 c-993 -1 -1227 -3 -1251 -14z"/>
</g>
</svg>
