<?xml version="1.0" standalone="no"?>
<!DOCTYPE svg PUBLIC "-//W3C//DTD SVG 20010904//EN"
 "http://www.w3.org/TR/2001/REC-SVG-20010904/DTD/svg10.dtd">
<svg version="1.0" xmlns="http://www.w3.org/2000/svg"
 width="502.000000pt" height="626.000000pt" viewBox="0 0 502.000000 626.000000"
 preserveAspectRatio="xMidYMid meet">
<metadata>
Created by potrace 1.16, written by Peter Selinger 2001-2019
</metadata>
<g transform="translate(0.000000,626.000000) scale(0.100000,-0.100000)"
fill="#000000" stroke="none">
<path d="M3285 6249 c-935 -89 -1876 -631 -2510 -1444 -160 -206 -279 -398
-405 -657 -106 -219 -166 -382 -225 -612 -146 -569 -181 -1097 -105 -1596 75
-495 284 -972 569 -1297 312 -356 753 -582 1236 -634 133 -14 455 -6 635 15
735 89 1426 378 1961 823 203 169 486 474 525 568 28 68 16 91 -123 240 -126
137 -162 165 -206 165 -57 0 -88 -22 -165 -119 -94 -117 -295 -326 -409 -424
-339 -291 -743 -517 -1153 -642 -362 -111 -794 -154 -1018 -100 -356 85 -623
411 -711 868 -55 286 -55 583 0 977 23 163 92 517 142 720 l32 135 355 6 c375
7 635 20 890 44 1198 115 1929 473 2240 1100 233 469 222 934 -30 1299 -64 92
-221 246 -317 309 -204 135 -467 227 -735 256 -112 13 -341 12 -473 0z m423
-523 c265 -57 463 -228 549 -471 26 -75 28 -90 27 -240 0 -134 -3 -173 -22
-242 -152 -561 -656 -866 -1608 -972 -265 -29 -461 -41 -831 -48 -243 -4 -333
-3 -333 5 0 6 23 87 51 179 131 437 276 742 483 1016 321 428 782 713 1266
783 116 16 317 12 418 -10z"/>
</g>
</svg>
