<?xml version="1.0" standalone="no"?>
<!DOCTYPE svg PUBLIC "-//W3C//DTD SVG 20010904//EN"
 "http://www.w3.org/TR/2001/REC-SVG-20010904/DTD/svg10.dtd">
<svg version="1.0" xmlns="http://www.w3.org/2000/svg"
 width="200.000000pt" height="269.000000pt" viewBox="0 0 200.000000 269.000000"
 preserveAspectRatio="xMidYMid meet">
<metadata>
Created by potrace 1.16, written by Peter Selinger 2001-2019
</metadata>
<g transform="translate(0.000000,269.000000) scale(0.100000,-0.100000)"
fill="#000000" stroke="none">
<path d="M471 2675 c-173 -49 -343 -190 -422 -349 -44 -89 -44 -90 -44 -200 0
-103 2 -115 31 -177 23 -47 229 -313 768 -991 686 -862 740 -928 781 -943 29
-12 56 -15 79 -11 47 9 275 173 300 216 42 72 58 34 -493 1185 -282 589 -528
1093 -547 1122 -42 61 -83 94 -162 131 -71 33 -206 40 -291 17z"/>
</g>
</svg>
