<?xml version="1.0" standalone="no"?>
<!DOCTYPE svg PUBLIC "-//W3C//DTD SVG 20010904//EN"
 "http://www.w3.org/TR/2001/REC-SVG-20010904/DTD/svg10.dtd">
<svg version="1.0" xmlns="http://www.w3.org/2000/svg"
 width="282.000000pt" height="243.000000pt" viewBox="0 0 282.000000 243.000000"
 preserveAspectRatio="xMidYMid meet">
<metadata>
Created by potrace 1.16, written by Peter Selinger 2001-2019
</metadata>
<g transform="translate(0.000000,243.000000) scale(0.100000,-0.100000)"
fill="#000000" stroke="none">
<path d="M1560 2424 c-14 -2 -59 -9 -100 -15 -397 -56 -828 -291 -1095 -596
-181 -206 -301 -441 -346 -673 -20 -106 -15 -300 10 -404 135 -555 735 -847
1434 -696 666 144 1237 689 1332 1270 85 526 -239 974 -790 1090 -96 20 -380
36 -445 24z m384 -533 c96 -26 153 -57 200 -112 48 -57 67 -119 67 -223 0
-100 -10 -162 -56 -346 -79 -312 -149 -449 -286 -552 -156 -118 -329 -154
-704 -146 -238 6 -315 19 -410 72 -170 94 -194 252 -96 636 75 298 126 404
243 515 101 96 235 153 408 175 36 5 175 7 310 5 212 -2 256 -5 324 -24z"/>
</g>
</svg>
