<?xml version="1.0" standalone="no"?>
<!DOCTYPE svg PUBLIC "-//W3C//DTD SVG 20010904//EN"
 "http://www.w3.org/TR/2001/REC-SVG-20010904/DTD/svg10.dtd">
<svg version="1.0" xmlns="http://www.w3.org/2000/svg"
 width="411.000000pt" height="247.000000pt" viewBox="0 0 411.000000 247.000000"
 preserveAspectRatio="xMidYMid meet">
<metadata>
Created by potrace 1.16, written by Peter Selinger 2001-2019
</metadata>
<g transform="translate(0.000000,247.000000) scale(0.100000,-0.100000)"
fill="#000000" stroke="none">
<path d="M160 2452 c-66 -33 -85 -82 -131 -340 -27 -149 -37 -499 -20 -653 67
-588 362 -1058 807 -1286 214 -110 421 -162 679 -170 763 -25 1559 431 2111
1208 193 273 358 613 458 942 42 137 45 195 15 244 -37 59 -79 73 -229 73
-194 0 -220 -16 -265 -168 -111 -372 -291 -676 -564 -956 -143 -145 -240 -227
-389 -326 -502 -334 -1100 -413 -1522 -200 -146 74 -293 200 -377 325 -85 127
-153 292 -184 450 -21 105 -18 455 5 565 30 146 32 194 6 235 -38 62 -79 75
-232 75 -107 0 -140 -3 -168 -18z"/>
</g>
</svg>
