<?xml version="1.0" standalone="no"?>
<!DOCTYPE svg PUBLIC "-//W3C//DTD SVG 20010904//EN"
 "http://www.w3.org/TR/2001/REC-SVG-20010904/DTD/svg10.dtd">
<svg version="1.0" xmlns="http://www.w3.org/2000/svg"
 width="595.000000pt" height="908.000000pt" viewBox="0 0 595.000000 908.000000"
 preserveAspectRatio="xMidYMid meet">
<metadata>
Created by potrace 1.16, written by Peter Selinger 2001-2019
</metadata>
<g transform="translate(0.000000,908.000000) scale(0.100000,-0.100000)"
fill="#000000" stroke="none">
<path d="M2281 9063 c-51 -27 -70 -59 -98 -169 -28 -110 -26 -157 6 -202 39
-56 68 -62 288 -62 353 0 659 -25 791 -65 75 -23 87 -46 86 -165 -1 -91 -39
-245 -933 -3820 -513 -2048 -944 -3754 -958 -3790 -31 -79 -79 -154 -124 -197
-99 -94 -324 -130 -869 -140 -341 -6 -362 -9 -400 -62 -27 -38 -73 -227 -65
-268 7 -39 46 -88 86 -109 26 -13 62 -13 272 -4 133 5 521 15 862 21 637 12
1463 3 2107 -22 272 -11 289 -10 324 7 54 27 72 58 101 170 28 110 26 157 -6
202 -39 56 -68 62 -288 62 -353 0 -659 25 -791 65 -75 23 -87 46 -86 165 1 91
39 245 933 3820 513 2048 944 3754 958 3790 31 79 79 154 124 197 99 94 324
130 869 140 341 6 362 9 400 62 27 38 73 227 65 268 -7 39 -46 88 -86 109 -26
13 -63 13 -277 4 -897 -37 -1987 -35 -3097 6 -143 5 -164 3 -194 -13z"/>
</g>
</svg>
