<?xml version="1.0" standalone="no"?>
<!DOCTYPE svg PUBLIC "-//W3C//DTD SVG 20010904//EN"
 "http://www.w3.org/TR/2001/REC-SVG-20010904/DTD/svg10.dtd">
<svg version="1.0" xmlns="http://www.w3.org/2000/svg"
 width="1075.000000pt" height="946.000000pt" viewBox="0 0 1075.000000 946.000000"
 preserveAspectRatio="xMidYMid meet">
<metadata>
Created by potrace 1.16, written by Peter Selinger 2001-2019
</metadata>
<g transform="translate(0.000000,946.000000) scale(0.100000,-0.100000)"
fill="#000000" stroke="none">
<path d="M2544 9436 c-52 -32 -63 -59 -115 -268 -30 -121 -39 -177 -35 -203 9
-45 57 -101 99 -114 18 -5 167 -12 332 -15 534 -10 701 -42 791 -152 32 -39
110 -257 715 -2000 l678 -1956 -1381 -1622 c-759 -891 -1394 -1632 -1410
-1646 -17 -14 -76 -72 -132 -129 -445 -457 -985 -680 -1711 -707 -88 -3 -174
-10 -192 -16 -66 -20 -86 -59 -137 -264 -51 -208 -51 -233 0 -293 39 -47 69
-52 254 -41 91 5 386 15 657 22 509 12 1355 2 1922 -23 275 -13 301 -9 349 45
24 28 37 65 77 228 l49 195 -25 48 c-37 74 -60 86 -184 97 -184 15 -308 68
-399 169 -103 115 -102 257 4 414 14 22 37 56 51 76 13 20 562 667 1219 1438
l1195 1402 13 -32 c27 -65 1112 -3202 1112 -3215 0 -21 -141 -108 -239 -148
-131 -52 -274 -85 -426 -97 -192 -16 -195 -16 -235 -57 -35 -35 -40 -49 -85
-233 l-49 -196 25 -48 c13 -27 37 -58 52 -69 33 -24 47 -24 612 -6 863 27
1858 23 2610 -11 248 -11 251 -11 293 10 23 12 49 32 58 46 20 30 103 356 104
404 0 47 -35 105 -80 130 -35 19 -53 21 -236 21 -367 0 -675 28 -791 72 -37
14 -67 35 -104 76 l-52 57 -778 2245 c-428 1235 -777 2250 -775 2255 3 6 506
599 1120 1318 1176 1379 1330 1550 1546 1714 252 190 490 306 801 388 212 55
523 95 746 95 94 0 147 20 177 65 21 32 106 355 106 404 0 47 -36 105 -81 130
-37 21 -43 21 -211 12 -95 -6 -394 -16 -665 -23 -510 -12 -1322 -3 -1918 23
-258 11 -261 11 -303 -10 -23 -12 -49 -32 -58 -46 -20 -30 -103 -356 -104
-404 0 -18 10 -50 21 -71 31 -55 78 -76 180 -83 164 -11 292 -61 379 -147 67
-66 93 -127 93 -214 0 -77 -19 -133 -71 -209 -16 -23 -38 -57 -48 -75 -29 -50
-1918 -2261 -1925 -2254 -4 4 -213 601 -464 1327 l-457 1320 41 36 c120 107
417 201 677 215 137 8 179 24 211 83 11 20 39 114 63 208 47 191 47 221 3 274
-49 58 -65 60 -340 49 -811 -31 -1976 -36 -2633 -10 -129 5 -305 12 -390 15
-153 6 -155 6 -196 -19z"/>
</g>
</svg>
