<?xml version="1.0" standalone="no"?>
<!DOCTYPE svg PUBLIC "-//W3C//DTD SVG 20010904//EN"
 "http://www.w3.org/TR/2001/REC-SVG-20010904/DTD/svg10.dtd">
<svg version="1.0" xmlns="http://www.w3.org/2000/svg"
 width="789.000000pt" height="946.000000pt" viewBox="0 0 789.000000 946.000000"
 preserveAspectRatio="xMidYMid meet">
<metadata>
Created by potrace 1.16, written by Peter Selinger 2001-2019
</metadata>
<g transform="translate(0.000000,946.000000) scale(0.100000,-0.100000)"
fill="#000000" stroke="none">
<path d="M2385 9447 c-57 -26 -80 -66 -114 -201 -17 -69 -31 -140 -31 -157 0
-45 36 -103 80 -128 35 -19 53 -21 241 -21 339 0 658 -25 781 -60 20 -6 47
-19 60 -29 21 -18 23 -26 22 -123 -1 -102 -8 -131 -971 -3978 -1061 -4240
-991 -3979 -1092 -4080 -103 -103 -295 -135 -866 -147 -356 -6 -373 -10 -413
-75 -11 -18 -34 -94 -53 -169 l-33 -136 25 -49 c13 -26 37 -57 52 -68 l28 -21
3222 -3 c2169 -2 3234 0 3257 7 20 6 48 23 63 39 37 38 1231 3394 1230 3458 0
54 -29 104 -79 131 -35 20 -53 23 -171 23 -148 0 -200 -13 -232 -59 -11 -15
-63 -148 -116 -296 -373 -1039 -668 -1587 -1075 -1995 -425 -426 -965 -677
-1660 -771 -55 -8 -353 -13 -855 -16 -757 -4 -914 0 -994 28 l-34 12 6 86 c4
70 190 828 981 3991 1078 4314 996 4006 1108 4120 60 61 123 93 228 115 185
39 596 65 1035 65 339 0 339 0 395 230 35 145 33 182 -8 232 -49 58 -62 59
-375 48 -907 -32 -2234 -36 -3002 -10 -154 5 -354 12 -445 15 -129 4 -172 3
-195 -8z"/>
</g>
</svg>
