<?xml version="1.0" standalone="no"?>
<!DOCTYPE svg PUBLIC "-//W3C//DTD SVG 20010904//EN"
 "http://www.w3.org/TR/2001/REC-SVG-20010904/DTD/svg10.dtd">
<svg version="1.0" xmlns="http://www.w3.org/2000/svg"
 width="448.000000pt" height="152.000000pt" viewBox="0 0 448.000000 152.000000"
 preserveAspectRatio="xMidYMid meet">
<metadata>
Created by potrace 1.16, written by Peter Selinger 2001-2019
</metadata>
<g transform="translate(0.000000,152.000000) scale(0.100000,-0.100000)"
fill="#000000" stroke="none">
<path d="M1574 1510 c-191 -35 -448 -160 -669 -328 -216 -164 -829 -740 -880
-827 -30 -50 -32 -108 -7 -150 25 -40 143 -154 190 -182 41 -25 92 -29 134
-10 14 7 97 78 185 159 196 183 316 280 458 374 213 140 359 198 505 198 170
1 241 -44 525 -323 278 -274 363 -335 545 -393 64 -20 95 -23 210 -22 116 1
147 5 225 28 231 70 448 198 730 432 166 138 689 645 720 699 30 50 32 108 7
150 -25 40 -143 154 -190 182 -41 25 -92 29 -134 10 -14 -7 -97 -78 -185 -159
-196 -183 -316 -280 -458 -374 -213 -140 -359 -198 -505 -198 -170 -1 -241 44
-525 323 -276 272 -362 335 -540 391 -79 25 -255 35 -341 20z"/>
</g>
</svg>
