<?xml version="1.0" standalone="no"?>
<!DOCTYPE svg PUBLIC "-//W3C//DTD SVG 20010904//EN"
 "http://www.w3.org/TR/2001/REC-SVG-20010904/DTD/svg10.dtd">
<svg version="1.0" xmlns="http://www.w3.org/2000/svg"
 width="886.000000pt" height="626.000000pt" viewBox="0 0 886.000000 626.000000"
 preserveAspectRatio="xMidYMid meet">
<metadata>
Created by potrace 1.16, written by Peter Selinger 2001-2019
</metadata>
<g transform="translate(0.000000,626.000000) scale(0.100000,-0.100000)"
fill="#000000" stroke="none">
<path d="M5140 6244 c-30 -8 -91 -32 -136 -54 -103 -50 -206 -155 -256 -258
l-33 -69 -145 -53 c-1709 -626 -3017 -1453 -3764 -2381 -374 -466 -629 -960
-754 -1464 -42 -166 -52 -243 -52 -393 0 -158 20 -282 70 -433 76 -230 176
-388 359 -569 355 -353 854 -546 1466 -567 206 -7 304 3 470 47 322 85 680
296 973 573 40 38 75 68 77 66 2 -2 -10 -58 -26 -124 -36 -141 -35 -234 0
-327 69 -179 292 -277 506 -223 114 29 215 87 293 169 95 100 129 173 188 412
l48 190 59 -80 c89 -122 293 -319 417 -402 199 -135 402 -221 639 -271 115
-25 146 -27 356 -27 252 0 370 12 595 63 440 101 902 321 1271 607 211 163
436 388 596 597 113 148 132 196 100 254 -19 35 -238 264 -272 284 -16 11 -43
19 -58 19 -58 0 -91 -28 -189 -158 -437 -582 -1051 -1005 -1624 -1121 -381
-77 -682 -37 -909 119 -139 96 -277 262 -360 434 -130 271 -182 568 -172 990
7 306 54 654 140 1036 l24 105 419 6 c533 8 788 21 1139 60 671 74 1173 229
1551 480 138 92 353 303 436 429 113 174 193 365 240 577 33 148 31 391 -5
524 -55 209 -140 362 -285 511 -213 220 -486 352 -862 420 -115 20 -494 17
-645 -6 -159 -24 -429 -93 -590 -151 -168 -60 -495 -221 -657 -323 -71 -45
-128 -79 -128 -77 0 2 7 34 16 72 43 184 -28 366 -173 446 -102 55 -239 71
-353 41z m2430 -524 c223 -55 400 -193 492 -385 55 -115 71 -203 65 -355 -14
-376 -211 -690 -554 -886 -356 -203 -832 -301 -1618 -334 -228 -9 -785 -14
-785 -6 0 2 25 77 56 167 131 387 279 679 479 944 369 490 888 807 1435 874
117 15 331 5 430 -19z m-3418 -2102 l-416 -1663 -64 -115 c-411 -735 -965
-1235 -1457 -1315 -283 -46 -624 30 -803 178 -208 173 -256 410 -171 847 32
166 117 492 161 619 386 1124 1342 2147 2688 2876 131 71 456 233 471 234 4 1
-181 -747 -409 -1661z"/>
</g>
</svg>
