<?xml version="1.0" standalone="no"?>
<!DOCTYPE svg PUBLIC "-//W3C//DTD SVG 20010904//EN"
 "http://www.w3.org/TR/2001/REC-SVG-20010904/DTD/svg10.dtd">
<svg version="1.0" xmlns="http://www.w3.org/2000/svg"
 width="1218.000000pt" height="938.000000pt" viewBox="0 0 1218.000000 938.000000"
 preserveAspectRatio="xMidYMid meet">
<metadata>
Created by potrace 1.16, written by Peter Selinger 2001-2019
</metadata>
<g transform="translate(0.000000,938.000000) scale(0.100000,-0.100000)"
fill="#000000" stroke="none">
<path d="M115 9362 c-51 -33 -67 -59 -92 -150 -30 -112 -30 -169 0 -213 39
-59 73 -69 233 -69 278 0 522 -33 583 -78 40 -29 60 -63 76 -127 11 -46 59
-1082 200 -4315 102 -2340 187 -4269 190 -4287 7 -41 50 -92 92 -109 47 -20
246 -19 306 2 108 37 -28 -204 1967 3467 1009 1856 1837 3373 1839 3371 3 -2
71 -1521 152 -3374 136 -3104 149 -3373 166 -3403 10 -18 38 -42 63 -55 42
-21 55 -23 175 -20 111 3 136 7 170 26 50 27 73 47 106 92 15 19 986 1801
2159 3960 1173 2159 2143 3936 2155 3950 12 14 41 59 65 100 99 172 242 350
374 468 230 203 488 306 828 330 124 9 153 20 185 68 22 35 63 189 63 240 0
51 -32 100 -81 126 -33 17 -47 18 -169 8 -73 -5 -291 -15 -484 -21 -368 -12
-1068 -2 -1603 22 -242 11 -253 11 -289 -8 -53 -27 -70 -55 -99 -163 -31 -117
-31 -148 -2 -191 38 -56 81 -79 151 -79 165 0 358 -43 480 -108 91 -47 178
-133 214 -209 24 -52 27 -69 27 -168 -1 -92 -5 -119 -24 -165 -13 -30 -33 -80
-45 -111 -11 -31 -779 -1451 -1706 -3155 l-1685 -3098 -7 59 c-4 33 -71 1530
-149 3326 l-142 3266 26 56 c36 80 102 142 200 187 168 79 327 108 635 117
195 6 216 8 244 27 49 33 66 64 93 168 29 111 27 152 -12 199 -50 59 -58 60
-315 49 -128 -5 -505 -15 -838 -21 -619 -12 -1180 -4 -1702 22 -217 11 -228
11 -264 -8 -21 -11 -46 -30 -56 -44 -20 -28 -68 -199 -68 -245 0 -38 34 -91
79 -121 32 -21 45 -23 181 -23 359 0 577 -40 626 -115 40 -61 45 -111 69 -633
l23 -512 -1567 -2882 c-1552 -2855 -1566 -2881 -1569 -2832 -2 27 -68 1523
-146 3324 l-144 3275 20 52 c23 62 93 143 154 179 60 35 213 89 309 108 109
22 283 36 445 36 200 0 223 17 267 186 28 110 26 157 -6 202 -43 60 -63 64
-328 52 -449 -19 -1318 -32 -1683 -25 -328 5 -514 11 -950 31 -122 5 -138 4
-165 -14z"/>
</g>
</svg>
