<?xml version="1.0" standalone="no"?>
<!DOCTYPE svg PUBLIC "-//W3C//DTD SVG 20010904//EN"
 "http://www.w3.org/TR/2001/REC-SVG-20010904/DTD/svg10.dtd">
<svg version="1.0" xmlns="http://www.w3.org/2000/svg"
 width="1074.000000pt" height="626.000000pt" viewBox="0 0 1074.000000 626.000000"
 preserveAspectRatio="xMidYMid meet">
<metadata>
Created by potrace 1.16, written by Peter Selinger 2001-2019
</metadata>
<g transform="translate(0.000000,626.000000) scale(0.100000,-0.100000)"
fill="#000000" stroke="none">
<path d="M1330 6241 c-116 -25 -229 -71 -330 -132 -120 -73 -311 -267 -408
-413 -211 -319 -389 -776 -557 -1434 -41 -160 -39 -185 16 -238 l30 -29 222
-3 c207 -2 224 -1 254 17 18 11 39 33 46 48 8 15 44 143 80 283 188 735 351
1122 548 1304 85 79 136 101 234 101 100 0 143 -15 194 -66 114 -115 135 -429
55 -834 -8 -44 -256 -1045 -551 -2225 -508 -2037 -534 -2149 -530 -2215 10
-141 69 -251 175 -322 159 -107 367 -110 570 -8 149 75 260 197 317 349 14 37
226 869 471 1849 l445 1782 76 145 c229 436 433 729 683 981 362 364 730 539
1185 565 200 12 326 -28 435 -138 136 -137 194 -339 193 -673 0 -197 -16 -340
-63 -577 -16 -80 -237 -976 -491 -1990 -431 -1720 -462 -1849 -463 -1933 -2
-158 55 -273 172 -352 159 -107 367 -110 570 -8 149 75 260 197 317 349 14 37
226 869 471 1849 l445 1782 76 145 c229 436 433 729 683 981 362 364 730 539
1185 565 200 12 326 -28 435 -138 136 -137 194 -339 193 -673 0 -278 -38 -513
-158 -980 -142 -556 -310 -1081 -632 -1970 -79 -220 -155 -445 -169 -500 -111
-453 2 -897 299 -1182 319 -305 825 -388 1275 -208 331 133 656 434 912 846
191 306 368 727 470 1116 25 95 19 131 -31 179 l-30 29 -222 3 c-293 3 -291 5
-341 -195 -92 -363 -243 -748 -392 -1000 -113 -192 -273 -367 -414 -455 -129
-80 -288 -119 -417 -103 -74 9 -123 54 -147 135 -21 69 -21 234 -1 360 34 210
76 346 288 930 312 863 502 1458 641 2015 89 356 116 551 116 833 0 307 -41
512 -144 728 -68 142 -120 218 -218 320 -222 231 -543 371 -953 415 -136 14
-429 6 -575 -16 -509 -78 -964 -310 -1362 -694 -73 -71 -173 -176 -223 -234
l-89 -106 -29 102 c-32 115 -114 294 -178 388 -23 35 -78 100 -121 145 -279
290 -715 438 -1243 421 -357 -12 -654 -83 -960 -231 -276 -133 -484 -284 -733
-532 -95 -95 -175 -168 -177 -161 -2 7 -13 44 -24 82 -11 39 -40 112 -65 162
-170 348 -458 570 -851 655 -135 29 -374 34 -485 9z"/>
</g>
</svg>
