<?xml version="1.0" standalone="no"?>
<!DOCTYPE svg PUBLIC "-//W3C//DTD SVG 20010904//EN"
 "http://www.w3.org/TR/2001/REC-SVG-20010904/DTD/svg10.dtd">
<svg version="1.0" xmlns="http://www.w3.org/2000/svg"
 width="934.000000pt" height="946.000000pt" viewBox="0 0 934.000000 946.000000"
 preserveAspectRatio="xMidYMid meet">
<metadata>
Created by potrace 1.16, written by Peter Selinger 2001-2019
</metadata>
<g transform="translate(0.000000,946.000000) scale(0.100000,-0.100000)"
fill="#000000" stroke="none">
<path d="M2385 9446 c-57 -25 -80 -65 -114 -200 -17 -69 -31 -140 -31 -157 0
-45 36 -103 80 -128 35 -19 53 -21 241 -21 339 0 658 -25 781 -60 20 -6 47
-19 60 -29 21 -18 23 -26 22 -123 -1 -102 -8 -131 -971 -3978 -1061 -4240
-991 -3979 -1092 -4080 -103 -103 -295 -135 -866 -147 -425 -8 -405 3 -464
-241 l-34 -139 24 -49 c13 -26 37 -57 52 -68 l28 -21 2587 0 c2853 0 2653 -4
2982 61 1261 249 2379 1181 2750 2294 134 401 155 768 65 1137 -123 509 -482
941 -996 1198 -229 115 -499 197 -789 240 -47 7 -75 13 -63 14 39 2 342 81
466 122 465 154 920 406 1283 712 114 96 340 327 427 437 270 339 435 704 492
1085 19 128 21 384 5 506 -64 476 -315 890 -720 1188 -304 225 -674 366 -1150
438 -107 16 -295 17 -2570 20 -2036 2 -2460 0 -2485 -11z m4692 -521 c119 -19
267 -72 367 -132 98 -59 247 -199 313 -295 101 -146 171 -315 213 -513 27
-129 38 -407 21 -555 -65 -575 -341 -1132 -776 -1565 -384 -383 -826 -622
-1325 -716 -112 -22 -138 -22 -1157 -26 -742 -3 -1043 -1 -1043 7 0 5 198 803
441 1772 274 1097 452 1790 471 1836 55 133 117 173 292 192 39 4 526 8 1081
9 852 1 1024 -1 1102 -14z m-785 -4242 c401 -114 686 -414 821 -863 161 -535
78 -1238 -215 -1824 -352 -702 -991 -1246 -1667 -1417 -229 -58 -245 -59
-1379 -59 -998 0 -1159 4 -1240 31 l-34 11 4 82 c3 64 106 489 502 2074 l499
1992 1316 -2 1316 -3 77 -22z"/>
</g>
</svg>
