<?xml version="1.0" standalone="no"?>
<!DOCTYPE svg PUBLIC "-//W3C//DTD SVG 20010904//EN"
 "http://www.w3.org/TR/2001/REC-SVG-20010904/DTD/svg10.dtd">
<svg version="1.0" xmlns="http://www.w3.org/2000/svg"
 width="648.000000pt" height="862.000000pt" viewBox="0 0 648.000000 862.000000"
 preserveAspectRatio="xMidYMid meet">
<metadata>
Created by potrace 1.16, written by Peter Selinger 2001-2019
</metadata>
<g transform="translate(0.000000,862.000000) scale(0.100000,-0.100000)"
fill="#000000" stroke="none">
<path d="M6235 8606 c-17 -7 -44 -29 -60 -47 -17 -19 -280 -373 -585 -787
-305 -413 -558 -751 -561 -752 -3 0 -44 25 -90 57 -266 178 -624 283 -972 283
-781 0 -1632 -459 -2294 -1237 -802 -942 -1194 -2282 -967 -3303 76 -341 228
-668 422 -912 l62 -78 -584 -789 c-321 -433 -589 -798 -595 -809 -18 -33 -13
-103 9 -140 22 -36 67 -67 122 -84 53 -16 107 2 149 50 19 21 284 376 589 789
305 414 558 752 561 753 3 0 44 -25 90 -57 266 -178 624 -283 972 -283 849 0
1776 541 2447 1429 472 626 771 1371 862 2146 19 163 16 571 -5 725 -62 449
-224 850 -465 1152 l-62 78 584 789 c321 433 589 798 595 809 19 35 13 106
-12 143 -25 38 -116 89 -156 89 -14 -1 -40 -7 -56 -14z m-2047 -1616 c100 -24
208 -73 301 -135 74 -48 244 -219 239 -239 -2 -7 -714 -972 -1583 -2145
l-1579 -2134 -13 31 c-41 101 -79 307 -93 512 -29 410 67 1026 271 1733 220
765 519 1326 937 1759 352 364 764 594 1152 642 79 10 287 -4 368 -24z m762
-847 c115 -453 79 -995 -121 -1798 -213 -853 -461 -1410 -842 -1888 -342 -430
-788 -736 -1207 -828 -146 -33 -365 -33 -493 -1 -104 26 -212 74 -306 137 -74
48 -244 219 -239 239 2 7 714 972 1583 2145 l1579 2134 13 -31 c7 -17 22 -66
33 -109z"/>
</g>
</svg>
