<?xml version="1.0" standalone="no"?>
<!DOCTYPE svg PUBLIC "-//W3C//DTD SVG 20010904//EN"
 "http://www.w3.org/TR/2001/REC-SVG-20010904/DTD/svg10.dtd">
<svg version="1.0" xmlns="http://www.w3.org/2000/svg"
 width="346.000000pt" height="170.000000pt" viewBox="0 0 346.000000 170.000000"
 preserveAspectRatio="xMidYMid meet">
<metadata>
Created by potrace 1.16, written by Peter Selinger 2001-2019
</metadata>
<g transform="translate(0.000000,170.000000) scale(0.100000,-0.100000)"
fill="#000000" stroke="none">
<path d="M202 1683 c-33 -16 -169 -159 -191 -200 -16 -31 -14 -79 5 -115 20
-39 1289 -1335 1326 -1354 55 -29 99 -19 194 44 282 185 1834 1239 1857 1261
70 64 72 109 12 235 -55 116 -84 141 -165 141 -54 -1 -69 -9 -885 -479 -744
-428 -832 -477 -850 -465 -11 7 -274 217 -584 467 -310 250 -576 461 -590 468
-35 18 -89 17 -129 -3z"/>
</g>
</svg>
