<?xml version="1.0" standalone="no"?>
<!DOCTYPE svg PUBLIC "-//W3C//DTD SVG 20010904//EN"
 "http://www.w3.org/TR/2001/REC-SVG-20010904/DTD/svg10.dtd">
<svg version="1.0" xmlns="http://www.w3.org/2000/svg"
 width="540.000000pt" height="596.000000pt" viewBox="0 0 540.000000 596.000000"
 preserveAspectRatio="xMidYMid meet">
<metadata>
Created by potrace 1.16, written by Peter Selinger 2001-2019
</metadata>
<g transform="translate(0.000000,596.000000) scale(0.100000,-0.100000)"
fill="#000000" stroke="none">
<path d="M3315 5944 c-107 -27 -203 -82 -286 -164 -135 -134 -115 -53 -312
-1243 l-172 -1035 -570 563 c-367 363 -585 571 -612 585 -158 80 -386 17 -559
-155 -167 -166 -227 -381 -150 -538 15 -31 42 -68 59 -81 18 -13 354 -218 747
-455 393 -237 716 -435 718 -439 1 -4 -420 -202 -935 -441 -516 -238 -962
-449 -991 -468 -125 -81 -221 -227 -243 -370 -46 -313 244 -521 536 -384 33
15 435 276 894 580 458 304 835 550 837 548 3 -2 -150 -463 -338 -1023 -336
-1000 -343 -1020 -343 -1099 0 -62 5 -91 23 -130 115 -252 496 -259 743 -15
135 134 115 53 312 1243 l172 1035 570 -563 c367 -363 585 -571 612 -585 158
-80 386 -17 559 155 167 166 227 381 150 538 -15 31 -42 68 -59 81 -18 13
-354 218 -747 455 -393 237 -716 435 -718 439 -1 4 420 202 935 441 516 238
962 449 991 468 125 81 221 227 243 370 46 313 -244 521 -536 384 -33 -15
-435 -276 -894 -580 -458 -304 -835 -550 -837 -548 -3 2 150 463 338 1023 336
1000 343 1020 343 1099 0 96 -24 158 -87 222 -86 88 -248 124 -393 87z"/>
</g>
</svg>
