<?xml version="1.0" standalone="no"?>
<!DOCTYPE svg PUBLIC "-//W3C//DTD SVG 20010904//EN"
 "http://www.w3.org/TR/2001/REC-SVG-20010904/DTD/svg10.dtd">
<svg version="1.0" xmlns="http://www.w3.org/2000/svg"
 width="828.000000pt" height="1260.000000pt" viewBox="0 0 828.000000 1260.000000"
 preserveAspectRatio="xMidYMid meet">
<metadata>
Created by potrace 1.16, written by Peter Selinger 2001-2019
</metadata>
<g transform="translate(0.000000,1260.000000) scale(0.100000,-0.100000)"
fill="#000000" stroke="none">
<path d="M6025 12590 c-772 -62 -1370 -315 -1801 -762 -369 -383 -594 -871
-768 -1663 -19 -88 -83 -407 -141 -710 -58 -302 -110 -574 -116 -602 l-10 -53
-615 0 c-596 0 -616 -1 -654 -20 -22 -11 -47 -31 -56 -45 -19 -30 -103 -356
-104 -403 0 -50 32 -104 78 -130 l40 -22 596 0 596 0 -5 -22 c-3 -13 -172
-889 -375 -1948 -583 -3030 -753 -3859 -935 -4540 -95 -360 -147 -514 -227
-675 -181 -365 -404 -531 -636 -471 -59 15 -112 41 -112 55 0 3 30 17 66 30
83 29 225 123 285 188 103 110 166 227 205 382 68 266 -20 499 -233 614 -275
148 -692 38 -914 -242 -133 -169 -195 -385 -186 -651 5 -169 26 -261 87 -389
95 -198 227 -329 424 -422 336 -157 751 -103 1131 148 133 88 226 166 360 304
154 158 230 254 367 459 281 423 500 1002 736 1945 164 654 197 814 878 4350
300 1557 565 2925 590 3040 151 702 298 1136 448 1326 92 117 322 258 534 328
269 89 757 127 972 76 96 -23 187 -61 260 -110 260 -173 400 -479 400 -875 0
-183 -17 -291 -95 -599 -200 -798 -378 -1279 -571 -1542 -26 -35 -111 -129
-188 -209 -427 -440 -631 -719 -718 -985 -29 -88 -69 -278 -89 -425 -20 -137
-17 -509 4 -630 56 -324 149 -540 344 -798 217 -286 306 -482 333 -735 15
-138 2 -253 -55 -477 -227 -890 -480 -1334 -825 -1450 -172 -58 -433 -25 -616
77 -62 35 -165 132 -203 192 -17 26 -31 50 -31 54 0 3 32 23 72 44 131 68 236
196 289 350 99 288 -26 531 -303 589 -240 51 -525 -91 -645 -322 -76 -145
-114 -363 -94 -542 53 -487 412 -841 969 -953 126 -25 366 -35 500 -20 429 47
863 238 1234 543 139 115 354 338 460 478 236 313 404 655 491 1005 93 371 69
719 -74 1077 -102 258 -222 450 -475 763 -305 378 -435 588 -485 782 -72 281
28 494 501 1068 545 661 820 1059 1035 1500 158 322 255 608 296 870 19 117
16 380 -4 492 -125 686 -686 1167 -1512 1298 -119 19 -545 28 -710 15z"/>
</g>
</svg>
