<?xml version="1.0" standalone="no"?>
<!DOCTYPE svg PUBLIC "-//W3C//DTD SVG 20010904//EN"
 "http://www.w3.org/TR/2001/REC-SVG-20010904/DTD/svg10.dtd">
<svg version="1.0" xmlns="http://www.w3.org/2000/svg"
 width="813.000000pt" height="956.000000pt" viewBox="0 0 813.000000 956.000000"
 preserveAspectRatio="xMidYMid meet">
<metadata>
Created by potrace 1.16, written by Peter Selinger 2001-2019
</metadata>
<g transform="translate(0.000000,956.000000) scale(0.100000,-0.100000)"
fill="#000000" stroke="none">
<path d="M6405 9554 c-892 -97 -1799 -793 -2277 -1749 -166 -330 -201 -446
-519 -1717 l-274 -1098 -483 0 c-524 0 -530 -1 -566 -55 -8 -13 -29 -78 -46
-145 -35 -138 -32 -165 21 -216 l30 -29 465 -3 c255 -1 464 -5 464 -8 0 -2
-131 -526 -290 -1164 -305 -1218 -395 -1538 -428 -1525 -199 81 -450 133 -692
142 -320 12 -641 -58 -939 -205 -348 -171 -602 -414 -752 -717 -137 -279 -153
-484 -52 -679 44 -84 150 -194 237 -245 75 -45 210 -95 316 -118 116 -25 422
-24 560 1 544 99 1033 360 1475 788 67 65 125 118 129 118 4 0 89 -57 189
-127 496 -346 666 -453 892 -563 318 -154 584 -224 901 -237 331 -13 640 58
964 223 623 316 1138 945 1340 1638 34 118 36 145 15 187 -30 58 -65 69 -210
69 -192 0 -188 3 -264 -236 -193 -606 -694 -1127 -1216 -1263 -315 -83 -737
-21 -1125 165 -229 110 -373 201 -927 586 l-151 105 40 69 c126 217 260 525
324 746 19 68 150 584 290 1148 140 564 259 1042 265 1063 l10 37 650 0 c707
0 697 -1 733 55 8 13 29 78 46 145 35 138 32 165 -21 216 l-30 29 -633 5 -633
5 293 1165 c299 1185 350 1369 455 1635 240 611 616 1062 1074 1290 225 112
412 149 633 127 362 -36 617 -206 799 -532 128 -230 204 -620 186 -959 l-6
-106 -74 3 c-292 13 -581 -204 -662 -498 -57 -203 -22 -371 99 -484 182 -170
490 -166 735 9 173 123 253 290 314 650 65 386 51 778 -39 1113 -38 142 -76
236 -151 383 -206 398 -565 664 -1006 745 -85 15 -392 27 -478 18z m-4640
-8174 c133 -21 253 -54 381 -103 l85 -32 -60 -87 c-228 -335 -545 -604 -855
-728 -149 -60 -257 -82 -401 -84 -123 -1 -133 1 -191 27 -122 56 -179 148
-177 282 4 300 316 624 694 721 145 37 305 38 524 4z"/>
</g>
</svg>
