<?xml version="1.0" standalone="no"?>
<!DOCTYPE svg PUBLIC "-//W3C//DTD SVG 20010904//EN"
 "http://www.w3.org/TR/2001/REC-SVG-20010904/DTD/svg10.dtd">
<svg version="1.0" xmlns="http://www.w3.org/2000/svg"
 width="997.000000pt" height="946.000000pt" viewBox="0 0 997.000000 946.000000"
 preserveAspectRatio="xMidYMid meet">
<metadata>
Created by potrace 1.16, written by Peter Selinger 2001-2019
</metadata>
<g transform="translate(0.000000,946.000000) scale(0.100000,-0.100000)"
fill="#000000" stroke="none">
<path d="M2385 9446 c-63 -27 -79 -61 -131 -269 l-48 -194 25 -48 c45 -92 34
-89 412 -97 323 -6 509 -18 632 -39 129 -22 145 -37 145 -132 -1 -73 -1917
-7736 -1954 -7811 -33 -68 -95 -132 -149 -156 -105 -47 -332 -69 -772 -76
-181 -3 -344 -10 -362 -15 -66 -21 -86 -59 -138 -271 l-49 -195 25 -48 c13
-27 37 -58 52 -69 l28 -21 2437 0 c2578 0 2480 -2 2767 46 981 162 2037 774
2855 1654 865 931 1438 2039 1679 3250 44 217 83 489 102 710 18 203 15 664
-5 865 -124 1252 -708 2203 -1631 2655 -266 130 -508 204 -825 252 -107 16
-293 17 -2590 20 -2051 2 -2480 0 -2505 -11z m4530 -629 c337 -57 610 -161
856 -325 462 -309 734 -780 826 -1432 25 -176 25 -691 0 -905 -53 -456 -128
-832 -308 -1547 -262 -1044 -480 -1627 -816 -2184 -591 -980 -1507 -1614
-2563 -1775 -155 -24 -155 -24 -1115 -24 -819 1 -967 3 -1010 15 l-50 15 2 60
c2 76 1952 7883 1989 7965 47 104 96 131 260 149 44 5 473 8 954 7 768 -2 887
-5 975 -19z"/>
</g>
</svg>
