<?xml version="1.0" standalone="no"?>
<!DOCTYPE svg PUBLIC "-//W3C//DTD SVG 20010904//EN"
 "http://www.w3.org/TR/2001/REC-SVG-20010904/DTD/svg10.dtd">
<svg version="1.0" xmlns="http://www.w3.org/2000/svg"
 width="278.000000pt" height="596.000000pt" viewBox="0 0 278.000000 596.000000"
 preserveAspectRatio="xMidYMid meet">
<metadata>
Created by potrace 1.16, written by Peter Selinger 2001-2019
</metadata>
<g transform="translate(0.000000,596.000000) scale(0.100000,-0.100000)"
fill="#000000" stroke="none">
<path d="M1957 5950 c-323 -55 -641 -294 -787 -593 -215 -442 -62 -885 355
-1024 71 -24 96 -27 220 -27 165 -1 253 18 403 89 127 60 221 126 317 220 297
294 388 700 227 1010 -124 240 -432 375 -735 325z"/>
<path d="M860 1646 c-338 -71 -641 -313 -781 -622 -138 -303 -96 -627 106
-830 175 -176 458 -238 729 -159 396 115 696 435 772 823 67 344 -116 663
-441 768 -99 32 -281 42 -385 20z"/>
</g>
</svg>
