<?xml version="1.0" standalone="no"?>
<!DOCTYPE svg PUBLIC "-//W3C//DTD SVG 20010904//EN"
 "http://www.w3.org/TR/2001/REC-SVG-20010904/DTD/svg10.dtd">
<svg version="1.0" xmlns="http://www.w3.org/2000/svg"
 width="898.000000pt" height="942.000000pt" viewBox="0 0 898.000000 942.000000"
 preserveAspectRatio="xMidYMid meet">
<metadata>
Created by potrace 1.16, written by Peter Selinger 2001-2019
</metadata>
<g transform="translate(0.000000,942.000000) scale(0.100000,-0.100000)"
fill="#000000" stroke="none">
<path d="M2375 9406 c-57 -25 -80 -65 -114 -200 -17 -69 -31 -140 -31 -157 0
-45 36 -103 80 -128 35 -19 53 -21 241 -21 339 0 658 -25 781 -60 20 -6 47
-19 60 -29 21 -18 23 -26 22 -123 -1 -102 -8 -131 -966 -3958 -1055 -4218
-986 -3959 -1087 -4060 -103 -103 -295 -135 -866 -147 -356 -6 -373 -10 -413
-75 -11 -18 -34 -94 -53 -169 l-33 -136 25 -49 c13 -26 37 -57 52 -68 33 -24
61 -24 592 -6 782 27 2027 22 3027 -11 l336 -11 40 22 c21 12 47 36 57 52 23
40 74 241 75 293 0 54 -29 105 -74 131 -35 20 -55 21 -434 27 -401 7 -578 16
-753 42 -212 31 -245 59 -243 205 1 78 82 408 973 3969 623 2490 983 3911
1003 3959 56 136 114 172 303 192 119 13 1591 12 1815 0 584 -33 918 -143
1148 -377 89 -92 148 -207 186 -363 42 -177 51 -275 50 -570 0 -303 -14 -479
-70 -935 -19 -154 -32 -294 -29 -312 7 -41 50 -92 92 -109 22 -10 76 -14 169
-14 121 0 141 2 175 22 75 42 61 -38 270 1577 l190 1474 -23 46 c-13 25 -36
54 -51 65 l-28 21 -3232 2 c-2672 2 -3237 0 -3262 -11z"/>
</g>
</svg>
