<?xml version="1.0" standalone="no"?>
<!DOCTYPE svg PUBLIC "-//W3C//DTD SVG 20010904//EN"
 "http://www.w3.org/TR/2001/REC-SVG-20010904/DTD/svg10.dtd">
<svg version="1.0" xmlns="http://www.w3.org/2000/svg"
 width="890.000000pt" height="908.000000pt" viewBox="0 0 890.000000 908.000000"
 preserveAspectRatio="xMidYMid meet">
<metadata>
Created by potrace 1.16, written by Peter Selinger 2001-2019
</metadata>
<g transform="translate(0.000000,908.000000) scale(0.100000,-0.100000)"
fill="#000000" stroke="none">
<path d="M2282 9064 c-49 -25 -68 -59 -97 -174 -30 -117 -28 -153 12 -200 47
-56 64 -60 275 -60 343 0 620 -24 738 -63 85 -29 93 -43 86 -167 -4 -84 -111
-520 -935 -3818 -512 -2048 -945 -3758 -961 -3800 -58 -151 -128 -225 -246
-262 -139 -43 -449 -70 -802 -70 -211 0 -228 -4 -274 -59 -17 -19 -34 -65 -52
-136 -30 -122 -26 -162 21 -207 53 -49 56 -49 305 -38 128 5 505 15 838 21
622 12 1419 3 2036 -22 359 -15 359 -15 409 181 30 117 28 153 -12 200 -47 56
-64 60 -275 60 -343 0 -620 24 -738 63 -84 29 -92 44 -87 163 4 80 59 313 427
1783 l422 1691 1094 0 c912 0 1119 3 1240 15 1051 111 2050 666 2656 1477 690
921 706 2011 41 2727 -301 325 -725 552 -1214 650 -286 58 -134 55 -2604 58
-2083 3 -2273 1 -2303 -13z m4213 -453 c420 -62 696 -180 901 -385 328 -328
365 -746 143 -1629 -159 -636 -306 -980 -546 -1277 -281 -348 -745 -611 -1268
-719 -262 -54 -259 -54 -1313 -58 -944 -4 -983 -3 -978 14 3 10 214 855 470
1879 256 1023 479 1900 496 1947 61 168 116 213 294 237 97 13 1706 5 1801 -9z"/>
</g>
</svg>
