<?xml version="1.0" standalone="no"?>
<!DOCTYPE svg PUBLIC "-//W3C//DTD SVG 20010904//EN"
 "http://www.w3.org/TR/2001/REC-SVG-20010904/DTD/svg10.dtd">
<svg version="1.0" xmlns="http://www.w3.org/2000/svg"
 width="893.000000pt" height="904.000000pt" viewBox="0 0 893.000000 904.000000"
 preserveAspectRatio="xMidYMid meet">
<metadata>
Created by potrace 1.16, written by Peter Selinger 2001-2019
</metadata>
<g transform="translate(0.000000,904.000000) scale(0.100000,-0.100000)"
fill="#000000" stroke="none">
<path d="M2272 9023 c-49 -24 -68 -58 -97 -173 -30 -117 -28 -153 12 -200 47
-56 64 -60 275 -60 343 0 620 -24 738 -63 85 -29 93 -43 86 -167 -4 -84 -110
-518 -930 -3798 -510 -2037 -940 -3738 -956 -3780 -58 -151 -128 -225 -246
-262 -139 -43 -449 -70 -802 -70 -211 0 -228 -4 -274 -59 -17 -19 -34 -65 -52
-136 -30 -122 -26 -162 21 -207 53 -49 56 -49 305 -38 128 5 505 15 838 21
625 12 1598 2 2302 -22 301 -11 319 -10 355 7 52 26 77 68 103 174 25 102 23
154 -9 198 -40 57 -65 62 -328 62 -582 0 -976 42 -1044 110 -33 32 -44 93 -36
189 4 47 754 3082 868 3514 l10 39 712 -5 c459 -3 740 -8 792 -16 228 -33 368
-85 454 -171 71 -71 101 -177 101 -355 0 -177 -28 -353 -111 -694 -32 -136
-37 -170 -29 -200 10 -37 46 -79 87 -100 32 -16 238 -14 271 3 70 36 46 -47
489 1723 304 1218 413 1667 408 1690 -3 18 -17 46 -32 63 -43 51 -71 60 -190
60 -118 0 -161 -13 -195 -60 -10 -14 -41 -113 -69 -220 -117 -451 -223 -706
-374 -895 -124 -154 -277 -246 -517 -310 -202 -53 -269 -57 -1005 -62 l-681
-5 443 1769 c245 979 456 1804 473 1848 35 88 77 147 125 172 90 47 85 47
1087 51 959 3 1231 -3 1481 -33 476 -59 805 -233 944 -496 162 -309 183 -765
74 -1644 -17 -137 -28 -265 -26 -283 8 -45 40 -86 83 -107 29 -13 58 -16 152
-13 131 3 165 18 195 80 16 34 367 2715 367 2801 0 54 -31 105 -80 129 -33 17
-211 18 -3285 18 -2973 0 -3253 -2 -3283 -17z"/>
</g>
</svg>
