<?xml version="1.0" standalone="no"?>
<!DOCTYPE svg PUBLIC "-//W3C//DTD SVG 20010904//EN"
 "http://www.w3.org/TR/2001/REC-SVG-20010904/DTD/svg10.dtd">
<svg version="1.0" xmlns="http://www.w3.org/2000/svg"
 width="352.000000pt" height="952.000000pt" viewBox="0 0 352.000000 952.000000"
 preserveAspectRatio="xMidYMid meet">
<metadata>
Created by potrace 1.16, written by Peter Selinger 2001-2019
</metadata>
<g transform="translate(0.000000,952.000000) scale(0.100000,-0.100000)"
fill="#000000" stroke="none">
<path d="M2788 9510 c-281 -48 -555 -259 -679 -524 -128 -273 -93 -552 91
-736 121 -122 276 -177 465 -166 215 12 415 105 581 270 308 309 349 741 94
996 -136 136 -340 195 -552 160z"/>
<path d="M2128 6994 c-15 -8 -34 -27 -42 -42 -7 -15 -476 -1426 -1040 -3137
-715 -2163 -1031 -3133 -1039 -3186 -16 -111 1 -210 54 -318 147 -299 536
-397 905 -227 223 104 404 296 474 505 12 36 249 1407 551 3184 579 3412 541
3158 478 3212 -30 24 -35 25 -172 25 -106 -1 -149 -5 -169 -16z"/>
</g>
</svg>
