<?xml version="1.0" standalone="no"?>
<!DOCTYPE svg PUBLIC "-//W3C//DTD SVG 20010904//EN"
 "http://www.w3.org/TR/2001/REC-SVG-20010904/DTD/svg10.dtd">
<svg version="1.0" xmlns="http://www.w3.org/2000/svg"
 width="432.000000pt" height="137.000000pt" viewBox="0 0 432.000000 137.000000"
 preserveAspectRatio="xMidYMid meet">
<metadata>
Created by potrace 1.16, written by Peter Selinger 2001-2019
</metadata>
<g transform="translate(0.000000,137.000000) scale(0.100000,-0.100000)"
fill="#000000" stroke="none">
<path d="M1540 1355 c-258 -53 -571 -240 -951 -566 -176 -150 -556 -515 -574
-549 -18 -34 -19 -93 -4 -123 17 -32 70 -87 101 -103 32 -16 76 -18 113 -4 15
6 81 61 148 123 495 458 849 686 1098 704 93 7 156 -12 231 -67 66 -50 113
-107 251 -305 195 -279 333 -397 523 -445 304 -78 687 89 1201 521 137 115
409 367 536 497 l97 99 0 57 c0 52 -3 60 -42 102 -50 54 -85 74 -130 74 -50 0
-78 -19 -206 -139 -381 -357 -707 -587 -952 -672 -96 -33 -236 -33 -305 0 -76
37 -179 149 -306 330 -118 170 -240 310 -316 362 -154 106 -329 142 -513 104z"/>
</g>
</svg>
