<?xml version="1.0" standalone="no"?>
<!DOCTYPE svg PUBLIC "-//W3C//DTD SVG 20010904//EN"
 "http://www.w3.org/TR/2001/REC-SVG-20010904/DTD/svg10.dtd">
<svg version="1.0" xmlns="http://www.w3.org/2000/svg"
 width="1316.000000pt" height="946.000000pt" viewBox="0 0 1316.000000 946.000000"
 preserveAspectRatio="xMidYMid meet">
<metadata>
Created by potrace 1.16, written by Peter Selinger 2001-2019
</metadata>
<g transform="translate(0.000000,946.000000) scale(0.100000,-0.100000)"
fill="#000000" stroke="none">
<path d="M2385 9446 c-63 -27 -79 -61 -131 -269 l-48 -194 25 -48 c45 -92 34
-89 412 -97 323 -6 509 -18 632 -39 128 -22 145 -37 145 -129 0 -58 -1817
-7340 -1855 -7433 -100 -248 -300 -423 -596 -521 -180 -60 -327 -83 -589 -92
-91 -3 -179 -10 -197 -16 -66 -20 -86 -58 -138 -270 l-49 -195 25 -48 c13 -27
37 -58 52 -69 33 -24 56 -24 506 -6 678 27 1594 22 2321 -11 243 -12 246 -11
288 10 23 12 49 32 58 46 19 30 103 356 104 403 0 49 -32 104 -76 128 -34 19
-62 22 -214 28 -282 10 -436 39 -585 111 -111 53 -180 121 -215 210 -19 49
-23 79 -23 165 l0 105 901 3605 c496 1983 906 3613 910 3623 4 10 175 -1842
381 -4115 205 -2273 375 -4152 378 -4176 8 -59 39 -102 93 -130 43 -22 54 -23
225 -20 204 3 238 13 312 88 25 25 910 1513 2533 4263 1372 2324 2496 4225
2497 4224 1 -1 -429 -1727 -956 -3834 -653 -2610 -967 -3850 -985 -3887 -33
-68 -95 -132 -149 -156 -105 -47 -332 -69 -772 -76 -181 -3 -344 -10 -362 -15
-66 -21 -86 -59 -138 -271 l-49 -195 25 -48 c13 -27 37 -58 52 -69 33 -24 54
-24 587 -6 802 27 1880 23 2730 -11 283 -11 286 -11 328 10 23 12 49 32 58 46
19 30 103 356 104 403 0 50 -32 104 -78 130 -38 21 -51 22 -253 22 -384 0
-736 27 -823 64 -28 11 -37 23 -46 55 -6 22 -8 59 -4 83 3 24 438 1770 965
3882 630 2518 969 3858 986 3895 38 80 117 155 183 175 131 39 486 66 868 66
193 0 216 2 252 20 22 11 47 31 56 45 19 30 103 356 104 403 0 50 -32 104 -78
130 l-40 22 -1269 -2 -1268 -3 -52 -29 c-28 -15 -65 -42 -82 -60 -16 -17
-1041 -1743 -2276 -3836 -1236 -2093 -2249 -3808 -2253 -3812 -4 -4 -161 1706
-350 3800 -317 3516 -345 3810 -365 3851 -16 32 -35 51 -66 68 l-44 23 -1296
0 c-1055 -1 -1302 -3 -1326 -14z"/>
</g>
</svg>
