<?xml version="1.0" standalone="no"?>
<!DOCTYPE svg PUBLIC "-//W3C//DTD SVG 20010904//EN"
 "http://www.w3.org/TR/2001/REC-SVG-20010904/DTD/svg10.dtd">
<svg version="1.0" xmlns="http://www.w3.org/2000/svg"
 width="849.000000pt" height="848.000000pt" viewBox="0 0 849.000000 848.000000"
 preserveAspectRatio="xMidYMid meet">
<metadata>
Created by potrace 1.16, written by Peter Selinger 2001-2019
</metadata>
<g transform="translate(0.000000,848.000000) scale(0.100000,-0.100000)"
fill="#000000" stroke="none">
<path d="M5147 8466 c-62 -23 -112 -61 -144 -110 -27 -40 -89 -280 -504 -1941
l-474 -1895 -1910 -2 -1910 -3 -53 -29 c-95 -53 -145 -138 -145 -246 0 -108
50 -193 145 -246 l53 -29 1838 -3 c1195 -1 1837 -6 1837 -12 0 -5 -205 -830
-456 -1832 -487 -1951 -466 -1855 -428 -1946 23 -56 69 -106 126 -138 46 -25
63 -29 133 -29 70 0 87 4 133 29 50 28 96 75 119 121 6 11 223 872 483 1912
l472 1893 1907 2 1906 3 53 29 c95 53 145 138 145 246 0 108 -50 193 -145 246
l-53 29 -1836 3 -1836 2 459 1837 c380 1522 458 1844 452 1878 -23 139 -125
234 -263 242 -41 2 -80 -2 -104 -11z"/>
</g>
</svg>
