<?xml version="1.0" standalone="no"?>
<!DOCTYPE svg PUBLIC "-//W3C//DTD SVG 20010904//EN"
 "http://www.w3.org/TR/2001/REC-SVG-20010904/DTD/svg10.dtd">
<svg version="1.0" xmlns="http://www.w3.org/2000/svg"
 width="986.000000pt" height="1230.000000pt" viewBox="0 0 986.000000 1230.000000"
 preserveAspectRatio="xMidYMid meet">
<metadata>
Created by potrace 1.16, written by Peter Selinger 2001-2019
</metadata>
<g transform="translate(0.000000,1230.000000) scale(0.100000,-0.100000)"
fill="#000000" stroke="none">
<path d="M6309 12286 c-55 -19 -107 -54 -133 -89 -13 -18 -512 -1017 -1109
-2222 l-1085 -2190 -1554 -5 -1553 -5 -41 -22 c-92 -49 -147 -126 -160 -224
-14 -102 48 -217 146 -273 l55 -31 1407 -5 1408 -5 -528 -1067 -527 -1068
-1202 0 c-1176 0 -1203 0 -1255 -20 -58 -21 -123 -81 -154 -140 -26 -49 -26
-191 0 -240 31 -59 96 -119 154 -140 51 -20 79 -20 1107 -20 580 0 1055 -3
1055 -7 0 -4 -462 -938 -1027 -2077 l-1027 -2071 -1 -85 c0 -100 18 -143 87
-207 114 -104 305 -91 400 28 14 19 515 1020 1111 2224 l1085 2190 1136 3
c625 1 1136 -1 1136 -5 0 -3 -462 -938 -1027 -2077 l-1027 -2071 -1 -85 c0
-100 18 -143 87 -207 114 -104 305 -91 400 28 14 19 515 1020 1111 2224 l1085
2190 1554 5 1553 5 55 31 c98 56 160 171 146 273 -13 98 -68 175 -160 224
l-41 22 -1407 5 -1408 5 528 1067 527 1068 1202 0 c1176 0 1203 0 1255 20 58
21 123 81 154 140 26 49 26 191 0 240 -31 59 -96 119 -154 140 -51 20 -79 20
-1107 20 -580 0 -1055 3 -1055 7 0 4 462 938 1027 2077 l1027 2071 1 85 c0
100 -18 143 -87 207 -114 104 -305 91 -400 -28 -14 -19 -515 -1019 -1111
-2224 l-1085 -2190 -1136 -3 c-625 -1 -1136 1 -1136 5 0 3 462 938 1027 2077
l1027 2071 1 85 c0 98 -13 130 -78 198 -70 72 -187 101 -278 68z m268 -5093
c-7 -16 -245 -497 -528 -1070 l-514 -1043 -1138 0 -1138 0 14 28 c7 15 245
496 528 1069 l514 1043 1138 0 1138 0 -14 -27z"/>
</g>
</svg>
