<?xml version="1.0" standalone="no"?>
<!DOCTYPE svg PUBLIC "-//W3C//DTD SVG 20010904//EN"
 "http://www.w3.org/TR/2001/REC-SVG-20010904/DTD/svg10.dtd">
<svg version="1.0" xmlns="http://www.w3.org/2000/svg"
 width="272.000000pt" height="243.000000pt" viewBox="0 0 272.000000 243.000000"
 preserveAspectRatio="xMidYMid meet">
<metadata>
Created by potrace 1.16, written by Peter Selinger 2001-2019
</metadata>
<g transform="translate(0.000000,243.000000) scale(0.100000,-0.100000)"
fill="#000000" stroke="none">
<path d="M1510 2423 c-85 -9 -257 -46 -341 -73 -800 -262 -1325 -1052 -1123
-1691 46 -148 111 -255 218 -362 470 -470 1398 -368 1992 218 219 217 359 453
426 721 32 127 31 372 0 489 -102 376 -403 627 -824 689 -96 15 -258 19 -348
9z m359 -433 c160 -39 265 -120 313 -238 20 -50 23 -74 23 -192 0 -145 -15
-234 -77 -448 -148 -519 -447 -720 -1038 -699 -231 8 -367 46 -466 131 -51 44
-99 132 -115 214 -44 228 105 766 268 967 128 158 319 254 563 284 129 16 432
6 529 -19z"/>
</g>
</svg>
