<?xml version="1.0" standalone="no"?>
<!DOCTYPE svg PUBLIC "-//W3C//DTD SVG 20010904//EN"
 "http://www.w3.org/TR/2001/REC-SVG-20010904/DTD/svg10.dtd">
<svg version="1.0" xmlns="http://www.w3.org/2000/svg"
 width="476.000000pt" height="626.000000pt" viewBox="0 0 476.000000 626.000000"
 preserveAspectRatio="xMidYMid meet">
<metadata>
Created by potrace 1.16, written by Peter Selinger 2001-2019
</metadata>
<g transform="translate(0.000000,626.000000) scale(0.100000,-0.100000)"
fill="#000000" stroke="none">
<path d="M3035 6249 c-775 -80 -1367 -481 -1703 -1154 -106 -210 -168 -385
-228 -641 -27 -113 -29 -130 -28 -354 0 -230 1 -237 31 -351 93 -351 270 -604
548 -784 186 -122 272 -151 755 -260 210 -47 410 -95 444 -106 141 -48 293
-150 383 -258 221 -267 229 -640 23 -1051 -196 -390 -544 -649 -995 -739 -611
-122 -1234 41 -1490 389 -38 52 -43 70 -20 70 9 0 51 14 95 31 243 93 430 307
496 566 65 257 -5 475 -190 595 -142 92 -348 116 -529 64 -382 -112 -594 -407
-623 -866 -21 -333 96 -638 341 -885 255 -258 610 -420 1075 -492 161 -25 600
-25 785 1 1002 137 1696 671 2050 1581 118 304 175 606 161 860 -21 387 -168
719 -435 985 -134 134 -246 214 -422 300 -165 81 -278 115 -709 210 -438 97
-489 117 -606 235 -119 120 -168 248 -168 440 0 122 17 216 66 355 106 299
299 525 553 646 336 160 791 148 1089 -28 76 -45 209 -170 243 -230 l22 -37
-92 -45 c-195 -95 -313 -236 -373 -444 -23 -80 -26 -107 -22 -195 3 -89 8
-111 35 -169 151 -322 623 -349 918 -53 89 89 135 160 170 262 46 132 60 227
59 393 -1 193 -26 299 -109 465 -113 228 -285 394 -540 522 -178 90 -385 149
-597 172 -111 13 -345 12 -463 0z"/>
</g>
</svg>
