<?xml version="1.0" standalone="no"?>
<!DOCTYPE svg PUBLIC "-//W3C//DTD SVG 20010904//EN"
 "http://www.w3.org/TR/2001/REC-SVG-20010904/DTD/svg10.dtd">
<svg version="1.0" xmlns="http://www.w3.org/2000/svg"
 width="282.000000pt" height="256.000000pt" viewBox="0 0 282.000000 256.000000"
 preserveAspectRatio="xMidYMid meet">
<metadata>
Created by potrace 1.16, written by Peter Selinger 2001-2019
</metadata>
<g transform="translate(0.000000,256.000000) scale(0.100000,-0.100000)"
fill="#000000" stroke="none">
<path d="M2316 2545 c-112 -29 -170 -69 -337 -235 -86 -85 -466 -470 -845
-855 -378 -385 -785 -799 -905 -920 -195 -198 -217 -224 -223 -261 -5 -28 -2
-53 8 -78 19 -45 121 -163 158 -182 33 -17 101 -18 131 -2 41 21 2281 1752
2341 1808 158 148 207 338 131 508 -36 81 -130 171 -210 201 -75 28 -175 34
-249 16z"/>
</g>
</svg>
