<?xml version="1.0" standalone="no"?>
<!DOCTYPE svg PUBLIC "-//W3C//DTD SVG 20010904//EN"
 "http://www.w3.org/TR/2001/REC-SVG-20010904/DTD/svg10.dtd">
<svg version="1.0" xmlns="http://www.w3.org/2000/svg"
 width="829.000000pt" height="1260.000000pt" viewBox="0 0 829.000000 1260.000000"
 preserveAspectRatio="xMidYMid meet">
<metadata>
Created by potrace 1.16, written by Peter Selinger 2001-2019
</metadata>
<g transform="translate(0.000000,1260.000000) scale(0.100000,-0.100000)"
fill="#000000" stroke="none">
<path d="M6050 12590 c-721 -55 -1281 -275 -1703 -670 -272 -254 -492 -621
-648 -1080 -108 -315 -168 -571 -324 -1385 -58 -302 -110 -574 -116 -602 l-10
-53 -590 0 c-574 0 -591 -1 -630 -20 -22 -12 -48 -34 -57 -49 -10 -16 -33 -92
-51 -169 l-34 -139 24 -49 c48 -95 0 -89 660 -92 544 -2 580 -4 575 -20 -3 -9
-172 -885 -376 -1947 -597 -3107 -770 -3946 -956 -4649 -117 -444 -210 -681
-352 -896 -69 -104 -218 -256 -293 -298 -165 -93 -355 -80 -496 35 -24 19 -43
38 -43 42 0 5 30 16 68 26 37 10 107 39 157 63 72 37 106 62 175 131 95 96
141 166 181 280 70 198 58 366 -36 507 -109 165 -347 241 -580 185 -153 -37
-266 -103 -376 -219 -90 -93 -147 -198 -186 -338 -26 -91 -28 -113 -27 -279 0
-168 2 -186 28 -270 47 -154 107 -256 216 -366 192 -194 418 -278 710 -266
333 14 664 182 980 496 503 503 801 1142 1119 2405 164 648 209 870 887 4391
300 1557 565 2925 590 3040 130 605 272 1056 406 1283 74 127 274 292 461 381
266 127 560 185 927 185 217 -1 264 -8 412 -64 127 -47 282 -173 365 -296 137
-202 197 -420 196 -719 0 -210 -12 -283 -104 -647 -156 -621 -276 -986 -419
-1283 -94 -196 -161 -286 -380 -510 -591 -606 -726 -865 -771 -1485 -32 -436
67 -843 280 -1155 34 -50 86 -121 117 -160 116 -146 222 -353 264 -511 55
-213 49 -386 -24 -669 -134 -515 -309 -932 -499 -1188 -233 -315 -470 -429
-803 -387 -250 31 -453 132 -572 285 -37 47 -87 134 -80 139 2 1 24 10 50 20
213 79 368 313 356 541 -9 181 -123 306 -313 345 -213 44 -472 -92 -575 -303
-138 -283 -110 -646 70 -916 212 -316 613 -509 1095 -528 379 -14 727 74 1110
280 290 156 603 421 825 697 382 477 613 1087 586 1546 -26 439 -198 824 -577
1294 -304 377 -420 556 -492 756 -114 317 -16 550 489 1159 537 647 797 1022
1018 1465 130 261 208 466 266 700 46 186 54 253 54 440 -1 193 -18 304 -74
472 -188 563 -717 959 -1435 1073 -119 19 -542 28 -715 15z"/>
</g>
</svg>
