<?xml version="1.0" standalone="no"?>
<!DOCTYPE svg PUBLIC "-//W3C//DTD SVG 20010904//EN"
 "http://www.w3.org/TR/2001/REC-SVG-20010904/DTD/svg10.dtd">
<svg version="1.0" xmlns="http://www.w3.org/2000/svg"
 width="934.000000pt" height="946.000000pt" viewBox="0 0 934.000000 946.000000"
 preserveAspectRatio="xMidYMid meet">
<metadata>
Created by potrace 1.16, written by Peter Selinger 2001-2019
</metadata>
<g transform="translate(0.000000,946.000000) scale(0.100000,-0.100000)"
fill="#000000" stroke="none">
<path d="M145 9447 c-57 -26 -80 -66 -114 -201 -37 -148 -38 -176 -10 -226 41
-73 59 -77 369 -83 367 -8 542 -30 650 -80 51 -24 116 -87 143 -140 11 -19
362 -1137 781 -2483 l762 -2449 -352 -1405 c-193 -773 -363 -1441 -378 -1485
-56 -164 -127 -255 -230 -294 -128 -48 -349 -70 -786 -79 -349 -8 -350 -8
-390 -74 -29 -49 -82 -280 -74 -324 8 -45 55 -99 98 -114 22 -7 97 -7 252 0
120 5 510 15 866 22 667 12 1541 3 2170 -23 253 -11 268 -11 304 7 56 28 78
68 114 213 36 147 35 182 -7 232 -46 54 -72 59 -290 59 -354 0 -679 27 -794
66 -36 11 -50 22 -60 47 -18 41 -15 141 6 242 22 109 713 2875 724 2901 16 37
3392 4194 3492 4299 186 196 335 341 419 406 276 215 565 352 875 414 130 26
301 45 402 45 131 0 167 36 212 214 17 69 31 140 31 157 0 45 -36 103 -80 128
-37 21 -44 21 -182 12 -79 -6 -331 -16 -560 -23 -432 -12 -1120 -3 -1654 23
-220 11 -234 11 -270 -7 -56 -28 -78 -68 -114 -213 -36 -147 -35 -182 7 -232
35 -41 79 -59 146 -59 83 0 225 -28 290 -57 81 -37 142 -106 157 -179 22 -106
-30 -262 -138 -413 -25 -36 -55 -81 -66 -102 -12 -20 -694 -866 -1516 -1879
-1418 -1748 -1495 -1841 -1502 -1814 -5 16 -298 958 -651 2094 -589 1889 -643
2068 -635 2105 19 87 112 153 274 194 123 32 203 41 424 48 290 8 290 9 346
231 37 147 36 181 -8 237 -42 53 -63 56 -330 45 -785 -31 -1936 -36 -2573 -10
-533 22 -518 21 -550 7z"/>
</g>
</svg>
