<?xml version="1.0" standalone="no"?>
<!DOCTYPE svg PUBLIC "-//W3C//DTD SVG 20010904//EN"
 "http://www.w3.org/TR/2001/REC-SVG-20010904/DTD/svg10.dtd">
<svg version="1.0" xmlns="http://www.w3.org/2000/svg"
 width="917.000000pt" height="1008.000000pt" viewBox="0 0 917.000000 1008.000000"
 preserveAspectRatio="xMidYMid meet">
<metadata>
Created by potrace 1.16, written by Peter Selinger 2001-2019
</metadata>
<g transform="translate(0.000000,1008.000000) scale(0.100000,-0.100000)"
fill="#000000" stroke="none">
<path d="M5530 10069 c-1125 -98 -2287 -642 -3255 -1525 -1263 -1153 -2083
-2731 -2250 -4334 -22 -207 -30 -630 -16 -834 58 -853 330 -1595 799 -2186 94
-118 358 -383 472 -474 282 -225 625 -412 972 -531 518 -178 1122 -230 1652
-144 1140 186 2261 964 3001 2084 305 462 549 1002 676 1496 22 85 22 86 3
125 -10 21 -34 49 -53 61 -32 21 -45 23 -188 23 -219 0 -243 -14 -279 -164 -9
-39 -45 -156 -79 -261 -375 -1135 -1189 -2120 -2140 -2590 -433 -213 -854
-309 -1285 -292 -524 22 -973 177 -1352 469 -185 143 -395 379 -520 588 -334
556 -445 1290 -337 2230 97 843 407 1989 746 2760 148 336 382 758 573 1032
554 798 1291 1398 2105 1717 534 209 1100 287 1539 211 577 -99 1001 -473
1249 -1100 217 -550 275 -1328 156 -2108 -19 -129 -20 -134 -2 -170 10 -20 33
-47 52 -59 32 -21 45 -23 190 -23 175 0 211 10 242 65 9 17 230 884 490 1928
l474 1897 -20 37 c-32 60 -76 83 -156 83 -37 0 -80 -5 -95 -12 -15 -7 -254
-261 -531 -565 -277 -304 -507 -553 -511 -553 -4 0 -28 33 -52 73 -165 266
-425 534 -680 700 -108 70 -297 164 -425 212 -120 45 -331 98 -475 120 -126
20 -535 28 -690 14z"/>
</g>
</svg>
