<?xml version="1.0" standalone="no"?>
<!DOCTYPE svg PUBLIC "-//W3C//DTD SVG 20010904//EN"
 "http://www.w3.org/TR/2001/REC-SVG-20010904/DTD/svg10.dtd">
<svg version="1.0" xmlns="http://www.w3.org/2000/svg"
 width="597.000000pt" height="916.000000pt" viewBox="0 0 597.000000 916.000000"
 preserveAspectRatio="xMidYMid meet">
<metadata>
Created by potrace 1.16, written by Peter Selinger 2001-2019
</metadata>
<g transform="translate(0.000000,916.000000) scale(0.100000,-0.100000)"
fill="#000000" stroke="none">
<path d="M4040 9153 c-248 -24 -412 -55 -595 -114 -386 -123 -704 -308 -1105
-642 -193 -162 -520 -490 -654 -657 -219 -273 -404 -583 -535 -896 -143 -342
-280 -866 -328 -1259 -18 -156 -21 -491 -4 -620 78 -594 409 -1210 807 -1502
262 -193 611 -293 1013 -293 631 1 1204 345 1691 1015 40 55 70 91 67 80 -3
-11 -26 -99 -51 -196 -335 -1294 -723 -2130 -1287 -2773 -122 -140 -310 -323
-430 -420 -271 -219 -584 -378 -862 -438 -144 -31 -446 -31 -620 0 -288 53
-487 164 -599 336 -49 77 -49 86 5 86 61 0 181 36 262 78 91 48 219 173 267
262 65 119 83 190 83 325 -1 147 -20 206 -97 290 -95 104 -198 145 -363 145
-178 0 -344 -69 -469 -195 -115 -116 -162 -213 -207 -425 -32 -150 -32 -388
-1 -514 99 -399 394 -654 887 -769 182 -42 282 -52 535 -52 199 1 255 4 364
24 658 116 1302 487 1927 1111 227 227 364 381 543 614 474 616 835 1287 1110
2060 204 572 426 1519 511 2180 48 374 67 824 46 1121 -24 348 -96 720 -186
960 -223 598 -695 992 -1282 1070 -96 13 -348 18 -443 8z m395 -398 c432 -118
677 -631 626 -1305 -30 -387 -144 -1046 -262 -1510 -158 -622 -428 -1211 -753
-1645 -108 -144 -348 -388 -466 -475 -340 -250 -694 -349 -1052 -295 -241 36
-399 133 -523 320 -134 202 -205 464 -205 763 0 327 62 676 261 1477 164 657
235 899 350 1190 170 433 420 799 730 1072 305 267 558 382 939 427 75 9 296
-3 355 -19z"/>
</g>
</svg>
