<?xml version="1.0" standalone="no"?>
<!DOCTYPE svg PUBLIC "-//W3C//DTD SVG 20010904//EN"
 "http://www.w3.org/TR/2001/REC-SVG-20010904/DTD/svg10.dtd">
<svg version="1.0" xmlns="http://www.w3.org/2000/svg"
 width="938.000000pt" height="942.000000pt" viewBox="0 0 938.000000 942.000000"
 preserveAspectRatio="xMidYMid meet">
<metadata>
Created by potrace 1.16, written by Peter Selinger 2001-2019
</metadata>
<g transform="translate(0.000000,942.000000) scale(0.100000,-0.100000)"
fill="#000000" stroke="none">
<path d="M2375 9406 c-63 -27 -80 -62 -129 -263 -50 -204 -50 -229 -4 -288 39
-49 69 -55 295 -55 356 0 717 -27 819 -60 39 -13 54 -46 54 -113 -1 -73 -1907
-7696 -1944 -7771 -33 -68 -95 -132 -149 -156 -105 -47 -332 -69 -772 -76
-181 -3 -344 -10 -362 -15 -66 -21 -86 -60 -137 -265 -50 -205 -50 -230 -4
-289 42 -53 63 -56 340 -45 954 38 2220 38 3385 -1 379 -12 392 -11 441 45 24
28 37 66 77 228 l49 195 -25 48 c-46 93 -24 89 -485 96 -223 4 -449 10 -502
13 -270 19 -434 44 -478 72 -26 18 -44 62 -44 113 0 20 199 834 442 1809 l443
1774 675 -5 c718 -4 792 -9 968 -57 151 -42 266 -120 314 -214 84 -164 58
-512 -78 -1048 -30 -119 -31 -170 -3 -215 40 -64 74 -73 286 -73 210 0 239 7
279 67 33 49 919 3600 910 3647 -8 44 -50 95 -93 112 -23 10 -84 14 -219 14
-171 0 -189 -2 -224 -21 -20 -11 -45 -34 -54 -51 -10 -16 -40 -116 -67 -221
-63 -242 -155 -518 -218 -653 -190 -401 -434 -571 -921 -640 -106 -15 -224
-18 -763 -22 -617 -4 -639 -3 -633 15 3 10 204 812 446 1783 250 1000 452
1789 466 1820 48 106 93 131 274 150 124 13 1759 13 1995 0 311 -17 539 -52
718 -111 308 -101 512 -268 607 -500 129 -312 138 -792 30 -1637 -17 -128 -30
-254 -30 -279 0 -59 30 -107 82 -134 36 -19 55 -20 238 -17 184 3 201 5 227
24 62 46 52 -15 269 1616 l205 1531 -23 46 c-13 25 -36 54 -51 65 l-28 21
-3432 2 c-2838 2 -3437 0 -3462 -11z"/>
</g>
</svg>
