<?xml version="1.0" standalone="no"?>
<!DOCTYPE svg PUBLIC "-//W3C//DTD SVG 20010904//EN"
 "http://www.w3.org/TR/2001/REC-SVG-20010904/DTD/svg10.dtd">
<svg version="1.0" xmlns="http://www.w3.org/2000/svg"
 width="823.000000pt" height="938.000000pt" viewBox="0 0 823.000000 938.000000"
 preserveAspectRatio="xMidYMid meet">
<metadata>
Created by potrace 1.16, written by Peter Selinger 2001-2019
</metadata>
<g transform="translate(0.000000,938.000000) scale(0.100000,-0.100000)"
fill="#000000" stroke="none">
<path d="M2000 9373 c-798 -85 -1583 -851 -1925 -1876 -73 -220 -83 -272 -62
-317 25 -53 50 -63 157 -68 120 -5 169 8 225 59 39 36 48 53 79 152 106 337
321 616 635 828 249 168 481 246 761 256 268 10 502 -42 688 -151 101 -59 265
-215 328 -311 342 -523 370 -1429 88 -2794 -55 -267 -27 -154 -594 -2416 -524
-2092 -495 -1992 -609 -2105 -64 -64 -100 -83 -206 -110 -163 -42 -567 -70
-1003 -70 -315 0 -319 -2 -367 -190 -30 -117 -28 -153 12 -200 51 -61 54 -61
360 -50 153 5 600 15 993 21 735 12 1696 3 2412 -22 301 -11 319 -10 354 7 54
27 72 58 101 170 28 110 26 157 -6 202 -40 57 -65 62 -328 62 -582 0 -976 42
-1044 110 -33 32 -44 93 -36 189 3 36 215 905 471 1931 256 1026 479 1924 496
1995 42 170 155 566 223 780 290 907 627 1601 1019 2098 111 140 362 388 487
481 249 185 498 297 786 353 66 13 141 17 285 18 229 0 314 -16 466 -90 221
-107 367 -279 440 -520 24 -80 27 -106 28 -245 1 -117 -4 -177 -18 -245 -18
-85 -18 -93 -2 -125 24 -53 49 -63 156 -68 120 -5 169 8 226 60 49 46 62 77
94 247 64 330 67 679 10 963 -91 447 -347 785 -694 919 -154 59 -239 73 -461
73 -227 0 -349 -15 -560 -69 -807 -208 -1517 -856 -2124 -1938 -146 -260 -342
-672 -471 -989 -24 -59 -45 -106 -47 -104 -2 2 4 82 12 177 22 240 31 732 16
944 -64 929 -364 1531 -900 1808 -172 89 -356 142 -583 166 -92 10 -291 12
-368 4z"/>
</g>
</svg>
