<?xml version="1.0" standalone="no"?>
<!DOCTYPE svg PUBLIC "-//W3C//DTD SVG 20010904//EN"
 "http://www.w3.org/TR/2001/REC-SVG-20010904/DTD/svg10.dtd">
<svg version="1.0" xmlns="http://www.w3.org/2000/svg"
 width="450.000000pt" height="146.000000pt" viewBox="0 0 450.000000 146.000000"
 preserveAspectRatio="xMidYMid meet">
<metadata>
Created by potrace 1.16, written by Peter Selinger 2001-2019
</metadata>
<g transform="translate(0.000000,146.000000) scale(0.100000,-0.100000)"
fill="#000000" stroke="none">
<path d="M1570 1440 c-270 -57 -591 -253 -987 -602 -174 -153 -535 -505 -560
-546 -26 -42 -30 -100 -9 -140 20 -38 116 -129 149 -141 76 -29 120 -9 242
108 372 356 703 592 952 678 62 21 97 27 173 27 86 1 101 -2 160 -30 88 -41
169 -119 308 -294 169 -212 219 -267 302 -333 364 -291 794 -202 1410 294 171
138 319 271 567 513 204 199 224 228 203 305 -21 80 -139 181 -209 181 -20 -1
-48 -6 -63 -13 -14 -7 -95 -76 -180 -154 -415 -383 -706 -580 -954 -643 -132
-34 -226 -23 -322 39 -81 53 -141 116 -301 314 -192 240 -296 335 -434 397
-135 60 -288 74 -447 40z"/>
</g>
</svg>
