<?xml version="1.0" standalone="no"?>
<!DOCTYPE svg PUBLIC "-//W3C//DTD SVG 20010904//EN"
 "http://www.w3.org/TR/2001/REC-SVG-20010904/DTD/svg10.dtd">
<svg version="1.0" xmlns="http://www.w3.org/2000/svg"
 width="972.000000pt" height="1115.000000pt" viewBox="0 0 972.000000 1115.000000"
 preserveAspectRatio="xMidYMid meet">
<metadata>
Created by potrace 1.16, written by Peter Selinger 2001-2019
</metadata>
<g transform="translate(0.000000,1115.000000) scale(0.100000,-0.100000)"
fill="#000000" stroke="none">
<path d="M3335 11144 c-339 -49 -673 -204 -995 -460 -127 -101 -401 -381 -524
-534 -510 -639 -852 -1469 -962 -2335 -22 -173 -26 -619 -6 -765 84 -622 338
-1090 715 -1318 220 -133 521 -191 767 -148 514 90 1046 519 1493 1202 407
623 688 1414 782 2199 22 181 30 512 16 669 -6 71 -10 131 -8 133 3 2 46 -23
98 -55 313 -197 656 -330 1044 -406 328 -64 776 -72 1130 -20 351 51 700 150
1048 299 22 9 37 12 34 8 -3 -4 -1786 -2069 -3962 -4588 -2176 -2519 -3966
-4598 -3978 -4620 -31 -58 -31 -192 0 -251 74 -138 247 -192 383 -118 45 24
634 702 4652 5353 2998 3471 4608 5342 4621 5371 26 56 28 158 4 213 -76 178
-302 233 -440 108 -22 -20 -95 -99 -163 -177 -143 -164 -240 -258 -408 -392
-744 -598 -1669 -903 -2523 -831 -789 66 -1437 420 -1851 1012 -156 224 -351
367 -582 428 -63 16 -120 22 -220 24 -74 2 -148 1 -165 -1z m277 -432 c171
-60 304 -228 394 -497 159 -475 146 -1093 -38 -1830 -156 -625 -392 -1158
-716 -1615 -402 -567 -826 -850 -1164 -779 -88 19 -139 49 -218 128 -58 58
-85 96 -117 161 -164 335 -172 826 -27 1510 50 234 225 926 289 1144 189 641
433 1105 760 1445 173 180 381 313 540 346 91 19 223 13 297 -13z"/>
<path d="M7545 5566 c-262 -43 -498 -142 -760 -317 -378 -253 -752 -664 -1037
-1139 -321 -533 -553 -1208 -635 -1845 -23 -177 -25 -670 -5 -810 99 -655 365
-1113 770 -1323 399 -208 846 -168 1282 115 158 103 245 176 425 357 201 201
312 339 479 591 140 211 191 302 310 547 175 361 301 726 399 1153 180 782
144 1501 -99 2023 -153 329 -381 539 -679 627 -74 22 -115 28 -230 31 -87 2
-170 -2 -220 -10z m261 -407 c442 -82 664 -860 523 -1834 -64 -442 -209 -947
-393 -1370 -292 -668 -769 -1268 -1161 -1459 -126 -62 -199 -80 -325 -80 -126
-1 -183 16 -269 79 -179 132 -284 420 -298 820 -13 356 40 688 233 1458 182
729 292 1055 473 1402 203 390 438 676 699 852 177 119 350 163 518 132z"/>
</g>
</svg>
