<?xml version="1.0" standalone="no"?>
<!DOCTYPE svg PUBLIC "-//W3C//DTD SVG 20010904//EN"
 "http://www.w3.org/TR/2001/REC-SVG-20010904/DTD/svg10.dtd">
<svg version="1.0" xmlns="http://www.w3.org/2000/svg"
 width="222.000000pt" height="425.000000pt" viewBox="0 0 222.000000 425.000000"
 preserveAspectRatio="xMidYMid meet">
<metadata>
Created by potrace 1.16, written by Peter Selinger 2001-2019
</metadata>
<g transform="translate(0.000000,425.000000) scale(0.100000,-0.100000)"
fill="#000000" stroke="none">
<path d="M1951 4239 c-68 -27 -391 -310 -611 -535 -513 -525 -887 -1112 -1127
-1769 -86 -236 -165 -547 -194 -765 -18 -137 -16 -414 4 -526 58 -323 213
-528 460 -611 75 -25 95 -27 232 -27 134 1 160 4 240 28 285 86 491 265 621
540 65 139 88 237 88 381 -1 102 -5 132 -27 201 -51 155 -148 267 -292 335
-232 110 -547 86 -795 -61 -57 -34 -80 -44 -76 -32 2 9 18 69 35 132 221 843
782 1676 1546 2298 147 120 150 123 150 186 0 47 -5 60 -50 122 -76 104 -132
132 -204 103z"/>
</g>
</svg>
