<?xml version="1.0" standalone="no"?>
<!DOCTYPE svg PUBLIC "-//W3C//DTD SVG 20010904//EN"
 "http://www.w3.org/TR/2001/REC-SVG-20010904/DTD/svg10.dtd">
<svg version="1.0" xmlns="http://www.w3.org/2000/svg"
 width="706.000000pt" height="938.000000pt" viewBox="0 0 706.000000 938.000000"
 preserveAspectRatio="xMidYMid meet">
<metadata>
Created by potrace 1.16, written by Peter Selinger 2001-2019
</metadata>
<g transform="translate(0.000000,938.000000) scale(0.100000,-0.100000)"
fill="#000000" stroke="none">
<path d="M3495 9362 c-51 -33 -66 -58 -91 -154 -30 -119 -31 -165 -1 -209 43
-65 63 -69 337 -69 432 0 815 -25 988 -65 125 -29 159 -80 149 -225 -7 -96
-1597 -6461 -1663 -6657 -234 -694 -686 -1277 -1179 -1523 -212 -105 -382
-136 -602 -111 -463 54 -808 323 -933 728 -11 36 -20 68 -20 72 0 3 53 6 118
7 134 0 209 16 321 70 206 97 362 269 432 479 53 157 61 265 29 390 -46 179
-171 303 -365 361 -81 24 -265 25 -354 1 -200 -54 -364 -165 -477 -322 -127
-179 -193 -454 -181 -758 10 -271 79 -493 224 -716 69 -106 239 -281 349 -359
406 -289 958 -373 1564 -237 746 167 1455 675 1882 1347 98 154 217 403 271
565 26 78 400 1554 857 3382 502 2007 822 3272 841 3316 35 84 85 148 140 176
96 48 333 79 618 79 211 0 239 19 281 190 34 138 18 201 -61 242 -33 17 -50
17 -225 8 -715 -37 -1778 -35 -3034 6 -172 5 -187 4 -215 -14z"/>
</g>
</svg>
