<?xml version="1.0" standalone="no"?>
<!DOCTYPE svg PUBLIC "-//W3C//DTD SVG 20010904//EN"
 "http://www.w3.org/TR/2001/REC-SVG-20010904/DTD/svg10.dtd">
<svg version="1.0" xmlns="http://www.w3.org/2000/svg"
 width="518.000000pt" height="572.000000pt" viewBox="0 0 518.000000 572.000000"
 preserveAspectRatio="xMidYMid meet">
<metadata>
Created by potrace 1.16, written by Peter Selinger 2001-2019
</metadata>
<g transform="translate(0.000000,572.000000) scale(0.100000,-0.100000)"
fill="#000000" stroke="none">
<path d="M3191 5704 c-141 -38 -273 -153 -316 -275 -8 -23 -96 -526 -195
-1118 -100 -592 -184 -1085 -188 -1097 -6 -18 -90 60 -622 583 -338 332 -635
616 -660 631 -40 24 -55 27 -130 27 -77 0 -92 -4 -163 -38 -162 -77 -284 -236
-294 -384 -6 -84 9 -143 47 -187 18 -20 332 -217 809 -507 429 -261 776 -477
772 -481 -3 -4 -460 -219 -1015 -478 -555 -259 -1028 -484 -1052 -501 -120
-82 -195 -250 -174 -386 21 -131 120 -220 255 -230 118 -9 107 -16 1115 646
512 337 933 611 936 609 2 -2 -161 -500 -361 -1105 -405 -1222 -390 -1168
-339 -1272 89 -178 368 -187 560 -18 54 47 100 112 119 168 8 23 96 526 195
1118 100 592 184 1085 188 1097 6 18 90 -60 622 -583 338 -332 635 -616 660
-631 40 -24 55 -27 130 -27 77 0 92 4 163 38 162 77 284 236 294 384 6 84 -9
143 -47 187 -18 20 -332 217 -809 507 -429 261 -776 477 -772 481 3 4 460 219
1015 478 555 259 1028 484 1052 501 120 82 195 250 174 386 -21 131 -120 220
-255 230 -118 9 -107 16 -1115 -646 -512 -337 -933 -611 -936 -609 -2 2 161
500 361 1105 405 1222 390 1168 339 1272 -58 116 -206 167 -363 125z"/>
</g>
</svg>
