<?xml version="1.0" standalone="no"?>
<!DOCTYPE svg PUBLIC "-//W3C//DTD SVG 20010904//EN"
 "http://www.w3.org/TR/2001/REC-SVG-20010904/DTD/svg10.dtd">
<svg version="1.0" xmlns="http://www.w3.org/2000/svg"
 width="488.000000pt" height="1328.000000pt" viewBox="0 0 488.000000 1328.000000"
 preserveAspectRatio="xMidYMid meet">
<metadata>
Created by potrace 1.16, written by Peter Selinger 2001-2019
</metadata>
<g transform="translate(0.000000,1328.000000) scale(0.100000,-0.100000)"
fill="#000000" stroke="none">
<path d="M3323 13260 c-18 -10 -39 -33 -48 -49 -31 -61 -22 -88 81 -245 187
-286 312 -526 427 -816 543 -1377 527 -3158 -49 -5470 -525 -2108 -1302 -3786
-2371 -5118 -346 -429 -777 -875 -1186 -1224 -172 -146 -193 -179 -161 -254
26 -63 66 -84 159 -84 82 0 89 3 282 146 604 446 1213 1029 1712 1639 983
1202 1749 2720 2225 4405 264 934 417 1810 467 2673 15 267 6 1006 -15 1222
-105 1050 -376 1879 -851 2600 -161 244 -410 551 -471 580 -48 22 -161 20
-201 -5z"/>
</g>
</svg>
