<?xml version="1.0" standalone="no"?>
<!DOCTYPE svg PUBLIC "-//W3C//DTD SVG 20010904//EN"
 "http://www.w3.org/TR/2001/REC-SVG-20010904/DTD/svg10.dtd">
<svg version="1.0" xmlns="http://www.w3.org/2000/svg"
 width="348.000000pt" height="276.000000pt" viewBox="0 0 348.000000 276.000000"
 preserveAspectRatio="xMidYMid meet">
<metadata>
Created by potrace 1.16, written by Peter Selinger 2001-2019
</metadata>
<g transform="translate(0.000000,276.000000) scale(0.100000,-0.100000)"
fill="#000000" stroke="none">
<path d="M1760 2742 c-19 -9 -44 -31 -56 -49 -25 -38 -194 -702 -194 -764 0
-89 72 -149 177 -149 142 0 347 -49 458 -108 67 -37 166 -130 197 -189 56
-102 57 -235 4 -377 -67 -178 -228 -328 -448 -415 -300 -121 -646 -166 -1341
-178 -428 -7 -431 -7 -473 -70 -12 -18 -37 -93 -55 -166 l-33 -134 25 -49 c45
-90 39 -89 372 -92 297 -4 820 11 1047 28 1057 83 1656 345 1907 836 157 307
165 615 21 858 -49 82 -158 196 -246 255 -91 61 -267 144 -376 176 l-93 28 48
191 c27 105 49 211 49 235 0 56 -30 106 -81 131 -36 19 -60 20 -456 20 -378 0
-421 -2 -453 -18z"/>
</g>
</svg>
