<?xml version="1.0" standalone="no"?>
<!DOCTYPE svg PUBLIC "-//W3C//DTD SVG 20010904//EN"
 "http://www.w3.org/TR/2001/REC-SVG-20010904/DTD/svg10.dtd">
<svg version="1.0" xmlns="http://www.w3.org/2000/svg"
 width="632.000000pt" height="626.000000pt" viewBox="0 0 632.000000 626.000000"
 preserveAspectRatio="xMidYMid meet">
<metadata>
Created by potrace 1.16, written by Peter Selinger 2001-2019
</metadata>
<g transform="translate(0.000000,626.000000) scale(0.100000,-0.100000)"
fill="#000000" stroke="none">
<path d="M2280 6250 c-273 -38 -564 -151 -816 -319 -158 -105 -257 -186 -393
-322 -378 -376 -670 -884 -812 -1411 -24 -90 -18 -126 32 -174 l30 -29 219 -3
c293 -4 288 -7 344 191 62 214 154 436 250 607 333 587 773 929 1231 956 332
20 577 -160 640 -471 34 -165 14 -452 -50 -750 -65 -300 -750 -3008 -786
-3108 -168 -463 -435 -791 -714 -880 -56 -18 -93 -22 -185 -21 -131 0 -208 17
-315 68 -69 33 -175 111 -175 129 0 5 10 11 23 15 54 14 217 105 274 154 148
125 247 302 282 502 16 88 13 153 -9 241 -44 173 -154 286 -335 347 -59 19
-90 23 -200 23 -123 -1 -136 -3 -232 -36 -374 -131 -575 -439 -576 -884 0
-205 40 -355 142 -529 57 -99 195 -246 296 -315 230 -159 534 -242 835 -228
141 7 246 30 382 82 280 108 567 340 771 622 29 40 55 72 59 73 4 0 9 -9 13
-20 11 -34 106 -173 173 -252 203 -241 502 -411 847 -481 159 -32 462 -31 615
2 575 123 1096 508 1489 1100 184 279 336 613 422 933 24 90 18 126 -32 174
l-30 29 -219 3 c-293 4 -288 7 -344 -191 -62 -214 -154 -436 -250 -607 -333
-587 -773 -929 -1231 -956 -332 -20 -577 160 -640 471 -34 165 -14 454 50 750
58 266 729 2937 765 3045 157 469 425 828 694 929 167 62 366 50 541 -33 69
-33 175 -111 175 -129 0 -5 -10 -11 -22 -15 -55 -14 -218 -105 -275 -154 -148
-125 -247 -302 -282 -502 -16 -88 -13 -153 9 -241 44 -173 154 -286 335 -347
59 -19 90 -23 200 -23 123 1 136 3 232 36 374 131 575 439 576 884 0 205 -40
355 -142 529 -57 99 -195 246 -296 315 -230 159 -534 242 -835 228 -141 -7
-246 -30 -382 -82 -280 -108 -567 -340 -771 -622 -29 -40 -55 -72 -59 -73 -4
0 -9 9 -13 20 -11 34 -106 173 -173 252 -200 239 -501 410 -838 479 -113 23
-406 34 -514 19z"/>
</g>
</svg>
