<?xml version="1.0" standalone="no"?>
<!DOCTYPE svg PUBLIC "-//W3C//DTD SVG 20010904//EN"
 "http://www.w3.org/TR/2001/REC-SVG-20010904/DTD/svg10.dtd">
<svg version="1.0" xmlns="http://www.w3.org/2000/svg"
 width="935.000000pt" height="1023.000000pt" viewBox="0 0 935.000000 1023.000000"
 preserveAspectRatio="xMidYMid meet">
<metadata>
Created by potrace 1.16, written by Peter Selinger 2001-2019
</metadata>
<g transform="translate(0.000000,1023.000000) scale(0.100000,-0.100000)"
fill="#000000" stroke="none">
<path d="M3880 10216 c-378 -55 -806 -249 -1172 -533 -604 -466 -1112 -1209
-1377 -2010 -102 -308 -177 -665 -202 -951 -15 -178 -7 -537 16 -682 15 -102
64 -321 83 -369 8 -22 1 -34 -61 -105 -169 -196 -378 -496 -528 -757 -292
-509 -535 -1173 -610 -1671 -26 -170 -31 -513 -10 -668 60 -444 226 -851 494
-1209 90 -121 362 -395 487 -491 537 -414 1195 -661 1980 -745 302 -32 819
-30 1160 6 1478 154 2658 831 3405 1954 145 219 216 344 336 590 189 389 313
745 414 1190 79 347 106 570 112 923 7 382 -14 601 -88 900 -94 384 -300 812
-544 1133 l-35 46 103 89 c367 319 710 734 972 1174 265 446 525 1135 525
1390 0 307 -235 514 -565 497 -275 -14 -530 -176 -654 -416 -119 -233 -129
-452 -27 -625 58 -99 191 -191 315 -217 31 -7 58 -14 60 -15 7 -6 -167 -333
-234 -439 -237 -377 -509 -692 -839 -969 -124 -105 -284 -219 -691 -493 -557
-374 -715 -492 -954 -707 -395 -355 -634 -744 -706 -1149 -23 -131 -16 -367
14 -478 61 -225 184 -412 354 -541 198 -149 461 -228 717 -215 357 17 660 281
734 640 78 377 -167 656 -558 634 -187 -10 -347 -80 -484 -211 -46 -44 -97
-102 -115 -128 -30 -47 -31 -48 -41 -26 -5 13 -9 82 -9 153 0 107 5 147 26
228 53 202 168 394 346 580 216 224 389 353 1056 784 l110 71 23 -26 c52 -62
152 -211 218 -327 172 -300 280 -632 326 -1005 19 -154 16 -591 -5 -755 -65
-498 -208 -1012 -407 -1470 -564 -1293 -1575 -2045 -3005 -2234 -265 -35 -433
-45 -745 -46 -312 0 -415 7 -644 46 -518 87 -953 299 -1252 611 -246 256 -379
536 -441 929 -14 88 -18 171 -18 369 0 373 26 547 166 1101 86 344 166 630
233 834 55 167 128 365 136 365 3 0 41 -27 83 -59 189 -145 410 -243 662 -293
88 -18 145 -22 285 -23 161 0 183 2 274 28 332 92 629 313 837 622 288 426
358 933 180 1297 -145 295 -412 458 -751 458 -339 0 -766 -127 -1124 -333 -55
-31 -100 -56 -102 -54 -4 4 30 200 61 352 36 176 213 883 269 1075 198 680
434 1130 765 1461 148 147 265 234 416 309 166 83 246 103 415 104 169 1 259
-18 395 -84 258 -125 426 -385 480 -745 19 -130 19 -135 -5 -135 -45 0 -179
-33 -247 -62 -299 -124 -503 -422 -503 -733 0 -158 44 -267 146 -365 244 -234
694 -187 970 102 108 112 168 223 209 388 172 680 29 1345 -375 1750 -189 189
-418 310 -702 371 -123 27 -404 34 -538 15z m-404 -3961 c154 -75 168 -238 60
-660 -74 -289 -132 -410 -251 -530 -139 -140 -318 -190 -535 -151 -150 27
-268 90 -376 201 -113 115 -231 344 -207 398 22 47 180 236 287 342 300 299
592 443 874 431 76 -4 104 -10 148 -31z"/>
</g>
</svg>
