<?xml version="1.0" standalone="no"?>
<!DOCTYPE svg PUBLIC "-//W3C//DTD SVG 20010904//EN"
 "http://www.w3.org/TR/2001/REC-SVG-20010904/DTD/svg10.dtd">
<svg version="1.0" xmlns="http://www.w3.org/2000/svg"
 width="884.000000pt" height="992.000000pt" viewBox="0 0 884.000000 992.000000"
 preserveAspectRatio="xMidYMid meet">
<metadata>
Created by potrace 1.16, written by Peter Selinger 2001-2019
</metadata>
<g transform="translate(0.000000,992.000000) scale(0.100000,-0.100000)"
fill="#000000" stroke="none">
<path d="M6575 9907 c-56 -22 -92 -46 -126 -84 -19 -21 -1082 -1914 -2363
-4208 -1281 -2293 -2339 -4181 -2351 -4195 -12 -14 -41 -56 -65 -95 -162 -263
-398 -463 -675 -574 -193 -77 -387 -114 -671 -129 -165 -9 -189 -16 -223 -74
-23 -37 -101 -343 -101 -395 0 -54 30 -104 78 -131 40 -22 43 -23 199 -13 87
6 361 16 610 23 469 12 1203 3 1731 -23 218 -11 235 -11 273 6 22 10 49 31 60
47 22 31 109 354 109 407 0 46 -36 105 -79 129 -27 15 -64 21 -152 26 -275 14
-482 112 -556 263 -38 79 -38 189 1 283 15 36 32 79 38 95 6 17 216 398 466
848 l456 817 1493 0 c1194 0 1493 -3 1493 -13 0 -7 27 -469 60 -1027 50 -856
57 -1017 46 -1035 -96 -146 -352 -219 -811 -231 -121 -3 -234 -10 -252 -15
-66 -21 -86 -59 -138 -271 l-49 -195 25 -48 c13 -27 37 -58 52 -69 33 -24 53
-24 597 -6 833 27 1848 23 2616 -11 l261 -12 40 23 c23 12 50 39 61 59 11 20
38 113 61 208 46 190 47 223 3 275 -44 52 -72 58 -279 58 -353 0 -644 28 -739
70 -46 20 -78 61 -93 120 -6 19 -127 2047 -271 4505 -251 4284 -262 4472 -283
4515 -16 34 -33 51 -67 68 -42 21 -56 22 -250 21 -132 0 -216 -5 -235 -12z
m-514 -4275 c67 -1140 119 -2075 117 -2078 -3 -2 -587 -3 -1300 -2 l-1295 3
1176 2105 c932 1667 1176 2099 1178 2075 2 -17 57 -963 124 -2103z"/>
</g>
</svg>
