<?xml version="1.0" standalone="no"?>
<!DOCTYPE svg PUBLIC "-//W3C//DTD SVG 20010904//EN"
 "http://www.w3.org/TR/2001/REC-SVG-20010904/DTD/svg10.dtd">
<svg version="1.0" xmlns="http://www.w3.org/2000/svg"
 width="816.000000pt" height="610.000000pt" viewBox="0 0 816.000000 610.000000"
 preserveAspectRatio="xMidYMid meet">
<metadata>
Created by potrace 1.16, written by Peter Selinger 2001-2019
</metadata>
<g transform="translate(0.000000,610.000000) scale(0.100000,-0.100000)"
fill="#000000" stroke="none">
<path d="M2860 6086 c-559 -81 -1180 -447 -1656 -977 -644 -716 -1048 -1601
-1181 -2587 -13 -96 -17 -200 -17 -432 0 -336 13 -458 73 -705 218 -886 829
-1412 1606 -1382 642 26 1330 441 1894 1142 53 66 106 133 118 150 12 16 23
28 25 25 2 -3 23 -54 47 -115 210 -534 593 -919 1071 -1079 204 -68 287 -80
545 -80 191 0 252 4 360 22 294 50 553 135 833 274 474 233 911 608 1214 1039
115 165 115 190 0 311 -90 94 -120 112 -175 105 -49 -7 -73 -29 -155 -147
-112 -162 -219 -289 -396 -466 -184 -185 -311 -290 -491 -409 -405 -268 -861
-412 -1232 -392 -132 8 -217 29 -330 83 -269 129 -476 416 -573 794 -118 463
-96 1016 71 1778 l41 189 432 6 c819 12 1263 56 1706 167 479 120 812 295
1065 561 180 189 284 383 357 668 31 119 33 136 32 296 0 151 -3 181 -27 267
-52 194 -149 360 -290 495 -344 330 -868 445 -1480 327 -623 -121 -1271 -488
-1745 -989 -57 -60 -94 -92 -96 -84 -214 632 -588 1007 -1126 1130 -113 26
-387 34 -520 15z m343 -340 c333 -64 555 -394 628 -936 19 -137 16 -493 -5
-670 -38 -321 -93 -598 -218 -1095 -194 -775 -366 -1235 -618 -1654 -153 -256
-289 -429 -486 -622 -243 -237 -478 -374 -714 -415 -444 -77 -739 208 -837
811 -24 148 -24 514 1 700 41 321 96 585 241 1166 114 457 167 646 242 874
213 649 480 1109 849 1465 318 306 624 432 917 376z m3755 -41 c446 -72 706
-443 641 -911 -35 -253 -147 -472 -332 -651 -339 -327 -897 -497 -1817 -553
-90 -5 -310 -13 -487 -16 l-323 -7 16 54 c232 807 628 1409 1162 1767 385 259
795 373 1140 317z"/>
</g>
</svg>
