<?xml version="1.0" standalone="no"?>
<!DOCTYPE svg PUBLIC "-//W3C//DTD SVG 20010904//EN"
 "http://www.w3.org/TR/2001/REC-SVG-20010904/DTD/svg10.dtd">
<svg version="1.0" xmlns="http://www.w3.org/2000/svg"
 width="431.000000pt" height="267.000000pt" viewBox="0 0 431.000000 267.000000"
 preserveAspectRatio="xMidYMid meet">
<metadata>
Created by potrace 1.16, written by Peter Selinger 2001-2019
</metadata>
<g transform="translate(0.000000,267.000000) scale(0.100000,-0.100000)"
fill="#000000" stroke="none">
<path d="M1631 2659 c-67 -13 -188 -74 -246 -124 -28 -24 -70 -67 -92 -97 -22
-29 -321 -523 -664 -1098 -623 -1043 -624 -1045 -624 -1100 0 -81 23 -107 159
-180 131 -69 178 -77 237 -37 27 18 1253 1433 1601 1847 94 112 153 225 168
320 44 293 -228 530 -539 469z"/>
<path d="M3751 2659 c-67 -13 -188 -74 -246 -124 -28 -24 -70 -67 -92 -97 -22
-29 -321 -523 -664 -1098 -623 -1043 -624 -1045 -624 -1100 0 -81 23 -107 159
-180 131 -69 178 -77 237 -37 27 18 1253 1433 1601 1847 94 112 153 225 168
320 44 293 -228 530 -539 469z"/>
</g>
</svg>
