<?xml version="1.0" standalone="no"?>
<!DOCTYPE svg PUBLIC "-//W3C//DTD SVG 20010904//EN"
 "http://www.w3.org/TR/2001/REC-SVG-20010904/DTD/svg10.dtd">
<svg version="1.0" xmlns="http://www.w3.org/2000/svg"
 width="859.000000pt" height="904.000000pt" viewBox="0 0 859.000000 904.000000"
 preserveAspectRatio="xMidYMid meet">
<metadata>
Created by potrace 1.16, written by Peter Selinger 2001-2019
</metadata>
<g transform="translate(0.000000,904.000000) scale(0.100000,-0.100000)"
fill="#000000" stroke="none">
<path d="M2272 9023 c-49 -24 -68 -58 -97 -173 -30 -117 -28 -153 12 -200 47
-56 64 -60 275 -60 343 0 620 -24 738 -63 85 -29 93 -43 86 -167 -4 -84 -110
-518 -930 -3798 -510 -2037 -940 -3738 -956 -3780 -58 -151 -128 -225 -246
-262 -139 -43 -449 -70 -802 -70 -211 0 -228 -4 -274 -59 -17 -19 -34 -65 -52
-136 -30 -122 -26 -162 21 -207 53 -49 56 -49 305 -38 128 5 505 15 838 21
625 12 1598 2 2302 -22 301 -11 319 -10 355 7 52 26 77 68 103 174 25 102 23
154 -9 198 -40 57 -65 62 -328 62 -582 0 -976 42 -1044 110 -33 32 -44 93 -36
189 7 82 1854 7474 1898 7595 35 98 77 160 128 190 85 49 91 50 961 54 1001 4
1238 -6 1524 -68 384 -84 641 -260 740 -511 75 -187 101 -402 93 -769 -6 -279
-18 -417 -68 -825 -17 -137 -28 -265 -26 -283 8 -45 40 -86 83 -107 29 -13 58
-16 152 -13 131 3 165 18 195 80 16 34 367 2715 367 2801 0 54 -31 105 -80
129 -33 17 -202 18 -3115 18 -2817 0 -3083 -2 -3113 -17z"/>
</g>
</svg>
