<?xml version="1.0" standalone="no"?>
<!DOCTYPE svg PUBLIC "-//W3C//DTD SVG 20010904//EN"
 "http://www.w3.org/TR/2001/REC-SVG-20010904/DTD/svg10.dtd">
<svg version="1.0" xmlns="http://www.w3.org/2000/svg"
 width="303.000000pt" height="976.000000pt" viewBox="0 0 303.000000 976.000000"
 preserveAspectRatio="xMidYMid meet">
<metadata>
Created by potrace 1.16, written by Peter Selinger 2001-2019
</metadata>
<g transform="translate(0.000000,976.000000) scale(0.100000,-0.100000)"
fill="#000000" stroke="none">
<path d="M1890 9684 c-968 -79 -960 -78 -1001 -136 -12 -16 -36 -90 -55 -164
-29 -116 -33 -142 -24 -175 14 -50 53 -95 93 -107 18 -6 142 -13 277 -16 270
-6 386 -17 503 -48 135 -36 161 -83 138 -260 -7 -52 -398 -1635 -896 -3627
-486 -1945 -890 -3576 -899 -3626 -72 -427 28 -837 274 -1124 163 -189 389
-318 662 -378 128 -27 385 -25 498 5 254 68 472 238 650 508 199 301 341 675
520 1364 68 262 69 279 10 335 l-31 30 -172 3 c-158 2 -175 1 -205 -18 -18
-11 -39 -35 -47 -52 -8 -18 -46 -154 -84 -303 -198 -771 -365 -1167 -577
-1365 -98 -91 -155 -115 -274 -115 -86 1 -100 4 -148 29 -57 32 -93 73 -123
141 -67 152 -65 476 5 821 14 65 477 1929 1030 4141 553 2213 1006 4042 1006
4064 0 88 -73 150 -172 148 -29 -1 -460 -35 -958 -75z"/>
</g>
</svg>
