<?xml version="1.0" standalone="no"?>
<!DOCTYPE svg PUBLIC "-//W3C//DTD SVG 20010904//EN"
 "http://www.w3.org/TR/2001/REC-SVG-20010904/DTD/svg10.dtd">
<svg version="1.0" xmlns="http://www.w3.org/2000/svg"
 width="871.000000pt" height="938.000000pt" viewBox="0 0 871.000000 938.000000"
 preserveAspectRatio="xMidYMid meet">
<metadata>
Created by potrace 1.16, written by Peter Selinger 2001-2019
</metadata>
<g transform="translate(0.000000,938.000000) scale(0.100000,-0.100000)"
fill="#000000" stroke="none">
<path d="M412 9364 c-49 -25 -68 -60 -97 -174 -30 -117 -28 -153 12 -200 47
-56 64 -60 275 -60 343 0 620 -24 738 -63 85 -29 93 -43 86 -167 -4 -84 -83
-411 -674 -2775 -369 -1474 -680 -2727 -690 -2785 -46 -241 -56 -354 -56 -645
0 -239 3 -301 22 -422 92 -593 334 -1079 718 -1442 415 -392 949 -606 1569
-628 455 -16 899 91 1372 331 367 186 693 426 1018 751 443 442 775 933 1026
1517 139 322 159 399 824 3056 421 1686 637 2531 660 2589 66 163 175 313 299
412 219 173 557 271 944 271 139 0 175 33 216 195 30 122 26 162 -21 207 -52
48 -58 49 -265 38 -106 -5 -407 -15 -668 -21 -489 -12 -1143 -3 -1618 22 -117
6 -228 8 -247 5 -20 -4 -50 -21 -69 -40 -28 -29 -38 -51 -61 -144 -30 -123
-28 -155 12 -203 40 -47 73 -59 163 -59 234 0 456 -41 596 -109 187 -93 263
-238 251 -476 -5 -89 -72 -365 -636 -2621 -387 -1547 -650 -2579 -681 -2673
-377 -1140 -1175 -2052 -2123 -2425 -928 -366 -1734 -148 -2091 563 -220 437
-240 1033 -61 1851 67 307 1366 5484 1395 5558 58 151 128 225 246 262 139 43
449 70 802 70 211 0 228 4 274 59 17 19 34 65 52 136 30 122 26 162 -21 207
-53 49 -55 49 -310 38 -884 -37 -1889 -35 -2993 5 -133 5 -160 4 -188 -11z"/>
</g>
</svg>
