<?xml version="1.0" standalone="no"?>
<!DOCTYPE svg PUBLIC "-//W3C//DTD SVG 20010904//EN"
 "http://www.w3.org/TR/2001/REC-SVG-20010904/DTD/svg10.dtd">
<svg version="1.0" xmlns="http://www.w3.org/2000/svg"
 width="885.000000pt" height="1246.000000pt" viewBox="0 0 885.000000 1246.000000"
 preserveAspectRatio="xMidYMid meet">
<metadata>
Created by potrace 1.16, written by Peter Selinger 2001-2019
</metadata>
<g transform="translate(0.000000,1246.000000) scale(0.100000,-0.100000)"
fill="#000000" stroke="none">
<path d="M5465 12454 c-22 -2 -89 -9 -150 -14 -854 -83 -1794 -495 -2620
-1149 -352 -278 -742 -662 -1057 -1041 -543 -653 -1008 -1483 -1283 -2292
-336 -984 -434 -1933 -290 -2795 92 -550 308 -1096 593 -1503 205 -293 512
-594 797 -782 616 -404 1383 -571 2165 -469 249 32 578 104 746 161 l54 19 -5
-22 c-8 -33 -82 -631 -102 -812 -25 -235 -25 -701 0 -850 50 -294 148 -500
310 -651 123 -114 266 -186 457 -227 76 -17 132 -21 285 -21 210 -1 310 15
484 76 661 233 1224 1003 1584 2169 87 283 122 427 113 473 -15 80 -109 137
-189 115 -63 -17 -94 -52 -117 -132 -88 -307 -241 -573 -458 -799 -239 -248
-485 -399 -767 -470 -78 -20 -115 -23 -275 -22 -173 0 -190 2 -266 27 -183 61
-324 201 -404 399 -79 199 -133 488 -155 838 l-6 95 187 90 c1089 523 2111
1498 2800 2670 112 191 321 605 403 800 278 656 444 1291 517 1975 21 205 30
678 15 881 -75 1018 -431 1854 -1042 2444 -458 443 -1026 712 -1689 800 -109
15 -547 28 -635 19z m313 -455 c546 -60 1008 -348 1322 -824 470 -714 585
-1776 334 -3105 -128 -681 -337 -1420 -556 -1975 -330 -833 -745 -1510 -1271
-2075 -203 -217 -498 -474 -717 -623 l-25 -17 -22 167 c-41 309 -95 510 -188
698 -101 204 -236 344 -420 435 -150 74 -312 110 -499 110 -600 0 -1199 -527
-1352 -1190 -32 -137 -42 -342 -21 -455 8 -44 14 -81 13 -82 -1 -2 -40 23 -87
53 -781 519 -1129 1586 -973 2989 103 933 426 2119 809 2970 442 983 1065
1794 1781 2317 486 354 1011 570 1489 611 93 8 293 6 383 -4z m-1887 -7634
c288 -43 447 -178 533 -453 40 -127 56 -283 56 -537 l0 -225 -87 -44 c-376
-188 -812 -288 -1191 -273 -143 6 -157 8 -199 33 -137 80 -210 202 -233 390
-34 273 97 602 335 840 234 234 474 316 786 269z"/>
</g>
</svg>
