<?xml version="1.0" standalone="no"?>
<!DOCTYPE svg PUBLIC "-//W3C//DTD SVG 20010904//EN"
 "http://www.w3.org/TR/2001/REC-SVG-20010904/DTD/svg10.dtd">
<svg version="1.0" xmlns="http://www.w3.org/2000/svg"
 width="594.000000pt" height="976.000000pt" viewBox="0 0 594.000000 976.000000"
 preserveAspectRatio="xMidYMid meet">
<metadata>
Created by potrace 1.16, written by Peter Selinger 2001-2019
</metadata>
<g transform="translate(0.000000,976.000000) scale(0.100000,-0.100000)"
fill="#000000" stroke="none">
<path d="M2180 9684 c-1024 -79 -1010 -77 -1051 -136 -22 -31 -109 -354 -109
-407 0 -47 36 -105 80 -130 34 -19 53 -21 201 -21 299 0 561 -28 654 -69 74
-33 80 -47 79 -185 l-1 -121 -1011 -4040 c-556 -2222 -1014 -4067 -1017 -4100
-35 -309 250 -532 589 -460 185 39 363 177 444 346 36 74 83 251 383 1454 188
754 345 1373 348 1377 10 12 245 -40 376 -83 455 -150 760 -421 845 -753 41
-161 36 -300 -19 -556 -43 -197 -55 -320 -48 -505 9 -245 58 -440 160 -639
144 -283 379 -487 674 -587 154 -52 232 -63 423 -63 157 0 185 3 273 27 198
53 377 158 540 316 181 175 303 348 445 630 146 287 272 626 372 1002 47 174
46 201 -10 254 l-31 30 -222 3 c-207 2 -224 1 -254 -17 -18 -11 -39 -33 -47
-49 -8 -16 -38 -119 -65 -228 -105 -420 -217 -755 -319 -959 -177 -356 -393
-522 -650 -501 -157 13 -235 97 -269 294 -20 111 -13 334 16 522 19 121 39
214 114 540 18 81 21 125 22 305 0 200 -1 215 -28 310 -65 232 -150 377 -327
555 -182 184 -393 316 -690 433 -177 69 -468 152 -643 181 l-37 7 62 50 c203
163 427 384 788 779 340 372 493 532 630 658 312 288 557 448 820 536 165 55
383 80 473 55 62 -17 120 -77 141 -145 6 -20 0 -23 -90 -44 -289 -66 -512
-271 -602 -550 -46 -144 -53 -246 -22 -365 44 -173 154 -286 335 -347 59 -19
90 -23 200 -23 123 1 136 3 232 36 382 134 571 435 590 939 9 245 -23 414
-112 595 -100 202 -258 335 -472 397 -110 32 -360 32 -509 0 -219 -47 -439
-142 -649 -280 -306 -200 -544 -425 -1115 -1052 -382 -420 -650 -676 -870
-831 -119 -85 -244 -160 -248 -150 -1 4 315 1278 703 2830 388 1551 705 2840
705 2862 0 88 -73 150 -172 148 -29 -1 -483 -35 -1008 -75z"/>
</g>
</svg>
