<?xml version="1.0" standalone="no"?>
<!DOCTYPE svg PUBLIC "-//W3C//DTD SVG 20010904//EN"
 "http://www.w3.org/TR/2001/REC-SVG-20010904/DTD/svg10.dtd">
<svg version="1.0" xmlns="http://www.w3.org/2000/svg"
 width="363.000000pt" height="156.000000pt" viewBox="0 0 363.000000 156.000000"
 preserveAspectRatio="xMidYMid meet">
<metadata>
Created by potrace 1.16, written by Peter Selinger 2001-2019
</metadata>
<g transform="translate(0.000000,156.000000) scale(0.100000,-0.100000)"
fill="#000000" stroke="none">
<path d="M1755 1079 c-913 -264 -1671 -488 -1685 -497 -14 -10 -35 -38 -47
-63 -22 -43 -23 -47 -12 -214 8 -123 16 -182 29 -212 20 -45 62 -77 114 -87
23 -5 450 115 1710 478 1446 418 1683 489 1707 512 50 48 54 69 42 269 -8 151
-13 188 -29 216 -25 42 -88 79 -134 78 -19 0 -782 -217 -1695 -480z"/>
</g>
</svg>
