<?xml version="1.0" standalone="no"?>
<!DOCTYPE svg PUBLIC "-//W3C//DTD SVG 20010904//EN"
 "http://www.w3.org/TR/2001/REC-SVG-20010904/DTD/svg10.dtd">
<svg version="1.0" xmlns="http://www.w3.org/2000/svg"
 width="1111.000000pt" height="946.000000pt" viewBox="0 0 1111.000000 946.000000"
 preserveAspectRatio="xMidYMid meet">
<metadata>
Created by potrace 1.16, written by Peter Selinger 2001-2019
</metadata>
<g transform="translate(0.000000,946.000000) scale(0.100000,-0.100000)"
fill="#000000" stroke="none">
<path d="M2385 9447 c-57 -26 -80 -66 -114 -201 -17 -69 -31 -139 -31 -156 0
-48 33 -103 78 -128 38 -21 51 -22 243 -22 339 0 658 -25 781 -60 20 -6 47
-19 60 -29 21 -18 23 -26 22 -123 -1 -102 -8 -131 -971 -3978 -1061 -4240
-991 -3979 -1092 -4080 -103 -103 -295 -135 -866 -147 -425 -8 -405 3 -464
-241 l-34 -139 24 -49 c13 -26 37 -57 52 -68 33 -24 54 -24 586 -6 803 27
1906 22 2751 -11 284 -12 286 -11 328 10 24 12 51 35 60 50 10 16 33 92 51
169 l34 139 -24 49 c-45 90 -37 88 -392 96 -496 10 -736 42 -769 101 -8 13
-12 57 -11 107 1 76 34 219 322 1370 177 707 325 1294 330 1306 7 17 1807
1532 1827 1537 3 1 335 -882 736 -1963 l729 -1965 1 -86 c1 -72 -3 -94 -25
-142 -53 -117 -188 -209 -352 -242 -44 -9 -152 -19 -240 -22 -88 -2 -174 -9
-192 -14 -60 -19 -87 -64 -121 -202 -18 -70 -32 -141 -32 -158 0 -45 36 -103
81 -128 37 -21 42 -22 271 -12 128 6 526 16 884 23 670 12 1255 5 1756 -23
l206 -12 44 26 c52 30 67 59 103 204 41 168 29 230 -54 273 -34 17 -59 20
-168 20 -371 0 -568 52 -689 183 -122 132 -85 39 -1045 2627 -490 1323 -894
2414 -896 2426 -4 18 209 200 1319 1128 727 610 1339 1116 1358 1126 19 10 67
44 105 76 310 255 693 499 995 632 305 135 568 200 886 221 179 11 193 24 244
232 37 147 35 181 -11 234 -43 49 -75 56 -204 45 -60 -5 -270 -15 -466 -22
-373 -12 -1266 -1 -1838 23 -286 13 -311 9 -358 -45 -23 -26 -37 -61 -61 -159
-37 -147 -39 -175 -13 -225 28 -54 78 -78 181 -85 221 -15 342 -102 342 -246
0 -76 -22 -143 -74 -223 -103 -160 -166 -214 -2647 -2289 -1312 -1099 -2387
-1996 -2388 -1995 -4 3 1096 4384 1111 4425 41 111 126 215 202 247 110 46
364 73 764 80 173 3 329 10 347 15 60 19 87 64 121 202 18 70 32 140 32 157 0
48 -33 103 -78 128 -40 22 -41 22 -279 13 -774 -33 -1949 -37 -2728 -11 -154
5 -354 12 -445 15 -129 4 -172 3 -195 -8z"/>
</g>
</svg>
