<?xml version="1.0" standalone="no"?>
<!DOCTYPE svg PUBLIC "-//W3C//DTD SVG 20010904//EN"
 "http://www.w3.org/TR/2001/REC-SVG-20010904/DTD/svg10.dtd">
<svg version="1.0" xmlns="http://www.w3.org/2000/svg"
 width="1106.000000pt" height="946.000000pt" viewBox="0 0 1106.000000 946.000000"
 preserveAspectRatio="xMidYMid meet">
<metadata>
Created by potrace 1.16, written by Peter Selinger 2001-2019
</metadata>
<g transform="translate(0.000000,946.000000) scale(0.100000,-0.100000)"
fill="#000000" stroke="none">
<path d="M2369 9439 c-20 -11 -44 -35 -54 -52 -23 -39 -74 -240 -75 -292 0
-55 29 -105 76 -132 37 -21 50 -23 244 -23 341 0 659 -25 782 -60 20 -6 47
-19 60 -29 21 -18 23 -26 22 -123 -1 -102 -8 -131 -971 -3978 -1061 -4240
-991 -3979 -1092 -4080 -103 -103 -302 -136 -891 -148 -349 -8 -350 -8 -390
-74 -29 -49 -82 -280 -74 -324 8 -45 55 -99 97 -113 23 -8 99 -8 252 -1 121 5
516 15 877 22 680 12 1553 3 2194 -23 259 -11 274 -11 310 7 57 28 79 69 114
214 35 145 33 182 -8 232 -44 53 -71 58 -289 58 -478 0 -821 42 -855 103 -8
13 -12 57 -11 107 1 77 47 268 472 1970 260 1037 476 1902 482 1923 l10 37
1859 0 c1023 0 1860 -1 1860 -2 0 -2 -213 -854 -474 -1893 -517 -2068 -497
-1997 -595 -2095 -103 -103 -302 -136 -891 -148 -349 -8 -350 -8 -390 -74 -29
-49 -82 -280 -74 -324 8 -45 55 -99 97 -113 23 -8 99 -8 252 -1 121 5 516 15
877 22 680 12 1553 3 2194 -23 259 -11 274 -11 310 7 57 28 79 69 114 214 35
145 33 182 -8 232 -44 53 -71 58 -289 58 -478 0 -821 42 -855 103 -8 13 -12
57 -11 107 1 77 87 428 966 3945 532 2123 975 3886 986 3918 43 124 126 229
207 263 111 47 365 73 774 80 421 8 406 1 461 218 16 61 29 129 29 151 0 55
-29 106 -77 133 l-41 22 -253 -10 c-941 -38 -2027 -38 -3025 1 l-302 12 -39
-23 c-22 -12 -48 -36 -58 -52 -23 -40 -74 -241 -75 -293 0 -55 29 -105 76
-132 37 -21 50 -23 244 -23 341 0 659 -25 782 -60 20 -6 47 -19 60 -29 21 -18
23 -26 22 -123 -1 -101 -8 -130 -423 -1788 -232 -927 -426 -1702 -432 -1722
l-10 -38 -1860 0 c-1767 0 -1860 1 -1855 18 3 9 192 764 420 1677 228 913 424
1686 435 1718 43 124 126 229 207 263 111 47 365 73 774 80 421 8 406 1 461
218 16 61 29 129 29 151 0 55 -29 106 -78 133 -40 22 -40 22 -279 13 -521 -22
-1312 -33 -1873 -27 -516 6 -723 11 -1305 31 -162 6 -172 5 -206 -16z"/>
</g>
</svg>
