<?xml version="1.0" standalone="no"?>
<!DOCTYPE svg PUBLIC "-//W3C//DTD SVG 20010904//EN"
 "http://www.w3.org/TR/2001/REC-SVG-20010904/DTD/svg10.dtd">
<svg version="1.0" xmlns="http://www.w3.org/2000/svg"
 width="832.000000pt" height="908.000000pt" viewBox="0 0 832.000000 908.000000"
 preserveAspectRatio="xMidYMid meet">
<metadata>
Created by potrace 1.16, written by Peter Selinger 2001-2019
</metadata>
<g transform="translate(0.000000,908.000000) scale(0.100000,-0.100000)"
fill="#000000" stroke="none">
<path d="M2580 9058 c-18 -13 -41 -34 -51 -48 -10 -14 -203 -648 -429 -1410
-322 -1083 -411 -1393 -407 -1422 3 -20 14 -50 26 -66 34 -49 76 -62 196 -62
119 0 162 13 193 59 10 14 44 109 76 211 232 747 483 1217 841 1576 372 375
843 599 1440 684 287 42 324 43 1423 47 916 4 1072 2 1065 -10 -4 -7 -1549
-1858 -3433 -4111 -1884 -2254 -3433 -4111 -3444 -4127 -10 -16 -32 -82 -48
-147 -35 -138 -30 -179 25 -212 32 -20 75 -20 2923 -20 l2891 0 33 23 c18 12
41 33 51 47 10 14 250 774 534 1689 553 1781 532 1705 486 1769 -34 49 -76 62
-196 62 -118 0 -162 -13 -194 -59 -10 -14 -42 -101 -70 -193 -301 -975 -559
-1540 -888 -1948 -355 -441 -897 -730 -1574 -840 -321 -52 -359 -53 -1556 -57
-618 -2 -1123 -2 -1123 1 0 4 1543 1852 3428 4109 1886 2256 3436 4113 3444
4127 9 14 29 72 43 130 32 125 26 168 -28 200 -32 20 -74 20 -2838 20 l-2806
0 -33 -22z"/>
</g>
</svg>
