<?xml version="1.0" standalone="no"?>
<!DOCTYPE svg PUBLIC "-//W3C//DTD SVG 20010904//EN"
 "http://www.w3.org/TR/2001/REC-SVG-20010904/DTD/svg10.dtd">
<svg version="1.0" xmlns="http://www.w3.org/2000/svg"
 width="796.000000pt" height="946.000000pt" viewBox="0 0 796.000000 946.000000"
 preserveAspectRatio="xMidYMid meet">
<metadata>
Created by potrace 1.16, written by Peter Selinger 2001-2019
</metadata>
<g transform="translate(0.000000,946.000000) scale(0.100000,-0.100000)"
fill="#000000" stroke="none">
<path d="M2385 9447 c-63 -29 -79 -62 -131 -270 l-48 -194 25 -48 c45 -92 34
-89 412 -97 323 -6 509 -18 632 -39 129 -22 145 -37 145 -132 -1 -73 -1917
-7736 -1954 -7811 -33 -68 -95 -132 -149 -156 -105 -47 -332 -69 -772 -76
-181 -3 -344 -10 -362 -15 -66 -21 -86 -59 -138 -271 l-49 -195 25 -48 c13
-27 37 -58 52 -69 l28 -21 3247 -3 c2186 -2 3259 0 3282 7 20 6 48 23 63 39
22 23 150 377 642 1778 378 1075 615 1763 615 1785 0 41 -30 91 -73 123 -26
19 -44 21 -215 24 -112 2 -201 -1 -222 -7 -67 -20 -84 -50 -179 -316 -355
-998 -617 -1513 -981 -1930 -435 -499 -1104 -817 -1841 -875 -219 -18 -1547
-9 -1614 11 l-50 14 1 57 c1 39 304 1267 974 3949 l973 3892 41 61 c48 71 118
127 187 150 133 42 437 65 974 73 395 5 422 7 456 25 52 29 71 71 118 265 46
190 47 223 3 275 -49 58 -61 59 -379 48 -933 -32 -2294 -36 -3083 -10 -157 5
-361 12 -455 15 -134 4 -177 3 -200 -8z"/>
</g>
</svg>
