<?xml version="1.0" standalone="no"?>
<!DOCTYPE svg PUBLIC "-//W3C//DTD SVG 20010904//EN"
 "http://www.w3.org/TR/2001/REC-SVG-20010904/DTD/svg10.dtd">
<svg version="1.0" xmlns="http://www.w3.org/2000/svg"
 width="633.000000pt" height="1210.000000pt" viewBox="0 0 633.000000 1210.000000"
 preserveAspectRatio="xMidYMid meet">
<metadata>
Created by potrace 1.16, written by Peter Selinger 2001-2019
</metadata>
<g transform="translate(0.000000,1210.000000) scale(0.100000,-0.100000)"
fill="#000000" stroke="none">
<path d="M5039 12084 c-417 -75 -862 -412 -1098 -831 -128 -230 -259 -594
-365 -1024 -62 -247 -176 -804 -307 -1496 l-54 -283 -553 0 c-607 0 -599 1
-642 -59 -27 -38 -73 -227 -65 -268 6 -35 44 -86 79 -106 15 -9 160 -13 557
-17 l535 -5 -377 -1960 c-598 -3103 -701 -3601 -950 -4600 -102 -406 -130
-497 -199 -642 -101 -213 -216 -351 -345 -414 -67 -33 -74 -34 -180 -33 -67 0
-136 7 -175 17 -88 23 -215 88 -270 139 l-45 42 70 21 c177 54 341 184 417
330 125 241 109 488 -42 629 -182 170 -490 166 -735 -9 -162 -115 -260 -300
-285 -541 -37 -352 148 -673 485 -842 253 -126 592 -166 830 -98 324 93 630
350 904 761 284 425 509 1017 746 1965 158 630 235 1008 731 3588 l318 1652
659 0 c723 0 703 -2 747 59 27 38 73 227 65 268 -3 18 -17 46 -32 63 -52 63
-21 60 -718 60 l-635 0 5 23 c3 12 70 360 150 772 210 1091 294 1498 380 1830
56 221 74 266 147 377 116 177 264 294 387 305 77 7 209 -12 304 -43 75 -25
202 -100 240 -142 17 -18 15 -19 -45 -36 -229 -64 -414 -249 -477 -476 -57
-203 -22 -371 99 -484 182 -170 490 -166 735 9 88 63 149 135 200 240 63 126
77 187 82 351 4 121 2 153 -16 225 -92 365 -410 616 -864 683 -126 19 -295 19
-398 0z"/>
</g>
</svg>
