<?xml version="1.0" standalone="no"?>
<!DOCTYPE svg PUBLIC "-//W3C//DTD SVG 20010904//EN"
 "http://www.w3.org/TR/2001/REC-SVG-20010904/DTD/svg10.dtd">
<svg version="1.0" xmlns="http://www.w3.org/2000/svg"
 width="850.000000pt" height="968.000000pt" viewBox="0 0 850.000000 968.000000"
 preserveAspectRatio="xMidYMid meet">
<metadata>
Created by potrace 1.16, written by Peter Selinger 2001-2019
</metadata>
<g transform="translate(0.000000,968.000000) scale(0.100000,-0.100000)"
fill="#000000" stroke="none">
<path d="M5235 9674 c-419 -34 -826 -129 -1240 -291 -179 -70 -582 -269 -750
-370 -715 -431 -1344 -1006 -1874 -1713 -593 -791 -1018 -1706 -1229 -2645
-256 -1140 -163 -2203 268 -3050 299 -589 735 -1026 1295 -1300 312 -153 575
-232 935 -282 157 -21 601 -24 765 -5 882 103 1738 480 2543 1120 370 293 756
682 1071 1076 1076 1349 1622 3107 1430 4606 -87 681 -327 1284 -709 1780
-104 135 -372 399 -510 502 -408 305 -851 484 -1370 553 -110 15 -519 27 -625
19z m333 -385 c694 -76 1241 -517 1528 -1233 338 -838 291 -1956 -145 -3476
-379 -1321 -931 -2347 -1671 -3104 -703 -718 -1498 -1104 -2215 -1073 -457 20
-838 192 -1152 521 -544 569 -771 1520 -647 2716 89 870 376 1982 712 2765
609 1419 1621 2458 2718 2790 297 90 606 124 872 94z"/>
</g>
</svg>
