<?xml version="1.0" standalone="no"?>
<!DOCTYPE svg PUBLIC "-//W3C//DTD SVG 20010904//EN"
 "http://www.w3.org/TR/2001/REC-SVG-20010904/DTD/svg10.dtd">
<svg version="1.0" xmlns="http://www.w3.org/2000/svg"
 width="885.000000pt" height="1008.000000pt" viewBox="0 0 885.000000 1008.000000"
 preserveAspectRatio="xMidYMid meet">
<metadata>
Created by potrace 1.16, written by Peter Selinger 2001-2019
</metadata>
<g transform="translate(0.000000,1008.000000) scale(0.100000,-0.100000)"
fill="#000000" stroke="none">
<path d="M5465 10074 c-22 -2 -89 -9 -150 -14 -854 -83 -1794 -495 -2620
-1149 -352 -278 -742 -662 -1057 -1041 -543 -653 -1008 -1483 -1283 -2292
-336 -984 -434 -1933 -290 -2795 92 -550 308 -1096 593 -1503 205 -293 512
-594 797 -782 827 -543 1875 -644 2975 -286 1003 326 1984 1017 2762 1945 246
295 511 669 704 998 112 191 321 605 403 800 278 656 444 1291 517 1975 21
205 30 678 15 881 -75 1018 -431 1854 -1042 2444 -458 443 -1026 712 -1689
800 -109 15 -547 28 -635 19z m323 -415 c834 -90 1454 -700 1697 -1669 39
-156 68 -313 91 -490 21 -171 30 -701 15 -912 -72 -1000 -403 -2293 -827
-3233 -376 -834 -901 -1562 -1499 -2074 -855 -735 -1815 -1014 -2594 -755
-533 178 -958 607 -1195 1206 -320 812 -311 1856 29 3233 392 1587 989 2752
1854 3615 315 314 594 529 935 720 505 282 1034 409 1494 359z"/>
<path d="M2565 6039 c-17 -4 -45 -24 -64 -43 -32 -33 -39 -56 -252 -911 -243
-972 -234 -917 -166 -983 44 -43 81 -52 212 -52 133 0 171 10 214 54 29 30 38
54 80 222 l47 189 1661 3 1661 2 -39 -155 c-45 -178 -44 -207 14 -263 44 -43
81 -52 212 -52 133 0 171 10 214 54 32 33 39 58 252 911 243 972 234 917 166
983 -44 43 -81 52 -212 52 -133 0 -171 -10 -214 -54 -29 -30 -38 -54 -80 -222
l-47 -189 -1661 -3 -1661 -2 39 155 c33 132 38 162 29 193 -12 46 -64 99 -111
112 -41 12 -252 12 -294 -1z"/>
</g>
</svg>
