<?xml version="1.0" standalone="no"?>
<!DOCTYPE svg PUBLIC "-//W3C//DTD SVG 20010904//EN"
 "http://www.w3.org/TR/2001/REC-SVG-20010904/DTD/svg10.dtd">
<svg version="1.0" xmlns="http://www.w3.org/2000/svg"
 width="922.000000pt" height="977.000000pt" viewBox="0 0 922.000000 977.000000"
 preserveAspectRatio="xMidYMid meet">
<metadata>
Created by potrace 1.16, written by Peter Selinger 2001-2019
</metadata>
<g transform="translate(0.000000,977.000000) scale(0.100000,-0.100000)"
fill="#000000" stroke="none">
<path d="M2385 9756 c-57 -25 -80 -65 -114 -200 -17 -69 -31 -140 -31 -157 0
-45 36 -103 80 -128 35 -19 53 -21 241 -21 339 0 658 -25 781 -60 20 -6 47
-19 60 -29 21 -18 23 -26 22 -123 -1 -102 -8 -131 -971 -3978 -1061 -4240
-991 -3979 -1092 -4080 -103 -103 -295 -135 -866 -147 -356 -6 -373 -10 -413
-75 -11 -18 -34 -94 -53 -169 l-33 -136 25 -49 c13 -26 37 -57 52 -68 33 -24
43 -24 577 -7 820 28 1885 23 2725 -10 277 -11 281 -11 322 9 57 29 75 66 114
223 l33 136 -25 49 c-45 90 -37 88 -392 96 -496 10 -736 42 -769 101 -8 13
-12 57 -11 107 1 77 46 265 465 1940 l464 1855 825 3 c898 3 949 0 1116 -54
319 -103 550 -343 657 -682 58 -184 75 -454 42 -667 -8 -55 -93 -415 -190
-800 -96 -385 -184 -758 -197 -830 -32 -185 -32 -453 -1 -612 55 -276 155
-479 329 -663 310 -330 779 -506 1403 -527 203 -7 298 4 440 49 385 123 737
461 981 940 124 244 237 572 223 646 -9 46 -67 109 -112 122 -47 13 -246 13
-292 0 -66 -18 -95 -61 -135 -200 -168 -588 -462 -1008 -785 -1121 -93 -33
-279 -33 -361 -1 -202 80 -282 302 -281 782 0 258 0 267 88 1280 61 697 65
770 61 945 -7 260 -46 438 -144 660 -151 345 -448 657 -805 845 l-87 46 87 23
c502 138 1049 395 1457 685 574 408 991 938 1145 1457 62 208 75 303 75 544 0
191 -3 235 -23 334 -72 355 -240 667 -501 931 -458 461 -1120 730 -1946 790
-88 6 -898 10 -2185 10 -1678 -1 -2050 -3 -2075 -14z m3945 -516 c579 -43 988
-207 1230 -493 72 -86 150 -238 180 -352 69 -267 44 -618 -80 -1123 -235 -952
-566 -1418 -1235 -1738 -321 -154 -671 -241 -1099 -274 -71 -5 -471 -10 -888
-10 -719 0 -759 1 -754 18 3 9 213 847 466 1862 288 1152 473 1872 492 1918
55 133 117 173 292 192 108 11 1242 11 1396 0z"/>
</g>
</svg>
