<?xml version="1.0" standalone="no"?>
<!DOCTYPE svg PUBLIC "-//W3C//DTD SVG 20010904//EN"
 "http://www.w3.org/TR/2001/REC-SVG-20010904/DTD/svg10.dtd">
<svg version="1.0" xmlns="http://www.w3.org/2000/svg"
 width="789.000000pt" height="946.000000pt" viewBox="0 0 789.000000 946.000000"
 preserveAspectRatio="xMidYMid meet">
<metadata>
Created by potrace 1.16, written by Peter Selinger 2001-2019
</metadata>
<g transform="translate(0.000000,946.000000) scale(0.100000,-0.100000)"
fill="#000000" stroke="none">
<path d="M2977 9440 c-53 -29 -68 -59 -106 -218 l-34 -139 24 -49 c46 -92 28
-88 462 -95 397 -7 609 -19 786 -45 203 -30 241 -61 241 -196 0 -67 -19 -156
-141 -641 l-141 -563 -166 -22 c-366 -47 -723 -129 -1077 -247 -1762 -587
-2943 -1916 -2814 -3165 70 -684 495 -1266 1215 -1664 365 -201 882 -359 1360
-417 l101 -12 -133 -530 c-144 -575 -162 -628 -249 -725 -60 -67 -116 -98
-217 -121 -182 -43 -416 -60 -903 -67 -214 -3 -404 -10 -422 -15 -60 -19 -87
-64 -121 -202 -18 -70 -32 -140 -32 -157 0 -48 33 -103 78 -128 l41 -23 263
10 c145 6 604 16 1020 23 780 12 1839 3 2547 -23 329 -12 351 -10 398 45 23
26 37 61 61 159 18 70 32 140 32 157 0 48 -33 103 -76 126 -37 21 -56 22 -429
27 -394 6 -581 16 -756 42 -214 31 -245 58 -242 210 1 79 18 155 140 640 l139
550 40 6 c21 4 98 15 169 24 267 35 560 98 840 180 333 99 563 189 890 350
512 252 883 513 1246 875 206 205 308 327 444 529 285 425 424 844 425 1281 0
191 -12 297 -55 466 -83 331 -255 630 -515 898 -463 476 -1120 779 -1945 897
-82 12 -151 22 -153 24 -1 1 56 238 128 526 146 586 165 641 262 739 60 61
123 93 228 115 185 39 596 65 1033 65 230 0 251 1 288 20 22 12 48 34 57 49
10 16 33 92 51 169 l34 139 -24 49 c-13 26 -37 57 -52 68 -35 26 -32 26 -687
6 -600 -18 -2225 -19 -2785 -2 -209 7 -459 14 -555 17 -164 5 -177 4 -213 -15z
m983 -2375 c0 -17 -1164 -4662 -1170 -4668 -10 -11 -204 25 -345 65 -303 84
-549 217 -743 402 -209 199 -312 394 -369 699 -24 128 -24 483 0 657 97 702
343 1359 676 1805 95 127 327 360 453 454 361 268 789 456 1256 550 203 41
242 47 242 36z m1340 -32 c489 -106 871 -344 1082 -673 129 -201 188 -445 188
-776 0 -361 -76 -771 -225 -1219 -166 -501 -382 -872 -680 -1171 -334 -335
-811 -594 -1340 -728 -86 -22 -361 -76 -384 -76 -5 0 255 1053 577 2341 l585
2340 41 -6 c23 -4 93 -18 156 -32z"/>
</g>
</svg>
