<?xml version="1.0" standalone="no"?>
<!DOCTYPE svg PUBLIC "-//W3C//DTD SVG 20010904//EN"
 "http://www.w3.org/TR/2001/REC-SVG-20010904/DTD/svg10.dtd">
<svg version="1.0" xmlns="http://www.w3.org/2000/svg"
 width="496.000000pt" height="923.000000pt" viewBox="0 0 496.000000 923.000000"
 preserveAspectRatio="xMidYMid meet">
<metadata>
Created by potrace 1.16, written by Peter Selinger 2001-2019
</metadata>
<g transform="translate(0.000000,923.000000) scale(0.100000,-0.100000)"
fill="#000000" stroke="none">
<path d="M4650 9213 c-24 -12 -70 -65 -145 -165 -161 -214 -288 -361 -480
-553 -559 -558 -1178 -910 -1785 -1016 -63 -11 -183 -23 -266 -28 -226 -12
-229 -14 -294 -278 -45 -183 -48 -224 -20 -271 37 -60 70 -72 202 -72 264 0
610 73 915 192 128 50 406 187 519 255 l81 49 -802 -3207 c-644 -2574 -808
-3217 -830 -3255 -36 -62 -103 -126 -158 -152 -122 -57 -542 -92 -1126 -92
-361 0 -348 9 -421 -287 -47 -194 -47 -222 1 -278 47 -54 65 -56 344 -45 138
5 586 15 998 22 770 12 1773 3 2494 -23 287 -11 303 -10 340 7 21 11 47 33 59
51 25 38 104 344 104 404 0 53 -31 104 -79 128 -32 16 -75 19 -441 24 -415 6
-603 17 -770 43 -154 24 -190 51 -190 147 0 30 375 1548 1026 4150 762 3048
1024 4111 1020 4137 -6 39 -30 74 -70 104 -39 30 -176 35 -226 9z"/>
</g>
</svg>
