<?xml version="1.0" standalone="no"?>
<!DOCTYPE svg PUBLIC "-//W3C//DTD SVG 20010904//EN"
 "http://www.w3.org/TR/2001/REC-SVG-20010904/DTD/svg10.dtd">
<svg version="1.0" xmlns="http://www.w3.org/2000/svg"
 width="226.000000pt" height="435.000000pt" viewBox="0 0 226.000000 435.000000"
 preserveAspectRatio="xMidYMid meet">
<metadata>
Created by potrace 1.16, written by Peter Selinger 2001-2019
</metadata>
<g transform="translate(0.000000,435.000000) scale(0.100000,-0.100000)"
fill="#000000" stroke="none">
<path d="M1399 4341 c-285 -53 -533 -211 -689 -441 -62 -92 -127 -234 -156
-345 -34 -125 -38 -292 -11 -395 59 -224 219 -385 442 -445 93 -25 273 -30
381 -11 76 13 189 47 267 81 22 9 21 2 -41 -190 -247 -775 -754 -1517 -1434
-2098 -193 -165 -196 -180 -67 -355 103 -139 153 -166 232 -126 101 53 565
494 766 729 532 623 896 1313 1080 2050 54 216 73 353 78 577 8 295 -16 434
-103 616 -78 161 -200 270 -369 328 -67 22 -100 27 -205 30 -69 2 -146 -1
-171 -5z"/>
</g>
</svg>
