<?xml version="1.0" standalone="no"?>
<!DOCTYPE svg PUBLIC "-//W3C//DTD SVG 20010904//EN"
 "http://www.w3.org/TR/2001/REC-SVG-20010904/DTD/svg10.dtd">
<svg version="1.0" xmlns="http://www.w3.org/2000/svg"
 width="885.000000pt" height="1246.000000pt" viewBox="0 0 885.000000 1246.000000"
 preserveAspectRatio="xMidYMid meet">
<metadata>
Created by potrace 1.16, written by Peter Selinger 2001-2019
</metadata>
<g transform="translate(0.000000,1246.000000) scale(0.100000,-0.100000)"
fill="#000000" stroke="none">
<path d="M5465 12454 c-22 -2 -89 -9 -150 -14 -854 -83 -1794 -495 -2620
-1149 -352 -278 -742 -662 -1057 -1041 -543 -653 -1008 -1483 -1283 -2292
-336 -984 -434 -1933 -290 -2795 67 -397 204 -815 375 -1138 162 -309 312
-515 544 -754 445 -454 992 -737 1637 -845 526 -89 1124 -43 1698 130 45 14
85 23 87 21 3 -2 -9 -112 -25 -243 -104 -824 -115 -1157 -51 -1497 108 -571
494 -861 1110 -834 509 23 953 305 1347 857 286 401 569 1056 733 1696 39 151
37 189 -14 240 -60 60 -149 64 -215 9 -23 -20 -37 -52 -70 -152 -50 -158 -107
-276 -199 -413 -254 -380 -642 -646 -1042 -716 -118 -20 -353 -15 -445 11
-109 30 -185 75 -265 155 -112 112 -180 244 -234 453 -41 157 -105 585 -94
631 2 8 84 55 183 104 1095 543 2089 1496 2771 2657 112 191 321 605 403 800
278 656 444 1291 517 1975 21 205 30 678 15 881 -75 1018 -431 1854 -1042
2444 -458 443 -1026 712 -1689 800 -109 15 -547 28 -635 19z m283 -555 c618
-68 1125 -441 1417 -1044 413 -851 405 -2008 -26 -3640 -317 -1203 -739 -2104
-1333 -2844 -205 -255 -478 -532 -705 -713 -179 -144 -220 -172 -225 -156 -2
7 -11 67 -20 133 -104 749 -404 1127 -950 1195 -385 49 -779 -94 -1100 -400
-234 -223 -398 -508 -468 -815 -13 -57 -23 -144 -27 -238 l-6 -148 -85 67
c-447 352 -720 908 -817 1659 -26 200 -26 839 0 1070 50 450 130 882 259 1390
271 1073 607 1890 1065 2590 615 938 1408 1586 2226 1819 258 74 553 102 795
75z m-1893 -7580 c244 -29 412 -140 504 -332 70 -145 99 -297 108 -564 l6
-181 -74 -38 c-113 -57 -329 -141 -460 -179 -241 -70 -478 -101 -706 -92 -162
6 -195 17 -271 90 -108 104 -155 266 -132 454 49 391 369 756 735 838 75 17
173 18 290 4z"/>
</g>
</svg>
