<?xml version="1.0" standalone="no"?>
<!DOCTYPE svg PUBLIC "-//W3C//DTD SVG 20010904//EN"
 "http://www.w3.org/TR/2001/REC-SVG-20010904/DTD/svg10.dtd">
<svg version="1.0" xmlns="http://www.w3.org/2000/svg"
 width="363.000000pt" height="180.000000pt" viewBox="0 0 363.000000 180.000000"
 preserveAspectRatio="xMidYMid meet">
<metadata>
Created by potrace 1.16, written by Peter Selinger 2001-2019
</metadata>
<g transform="translate(0.000000,180.000000) scale(0.100000,-0.100000)"
fill="#000000" stroke="none">
<path d="M245 1781 c-16 -10 -74 -63 -127 -118 -111 -116 -130 -154 -108 -226
11 -36 103 -133 683 -717 369 -371 687 -685 707 -697 24 -16 51 -23 83 -23 46
0 70 15 955 607 1226 821 1133 756 1160 805 12 23 22 54 22 69 0 15 -28 83
-62 151 -48 93 -71 129 -97 146 -44 28 -108 29 -163 1 -22 -11 -365 -205 -762
-431 -396 -226 -766 -436 -822 -468 l-101 -57 -607 483 c-334 265 -614 485
-623 488 -32 13 -109 5 -138 -13z"/>
</g>
</svg>
