<?xml version="1.0" standalone="no"?>
<!DOCTYPE svg PUBLIC "-//W3C//DTD SVG 20010904//EN"
 "http://www.w3.org/TR/2001/REC-SVG-20010904/DTD/svg10.dtd">
<svg version="1.0" xmlns="http://www.w3.org/2000/svg"
 width="877.000000pt" height="626.000000pt" viewBox="0 0 877.000000 626.000000"
 preserveAspectRatio="xMidYMid meet">
<metadata>
Created by potrace 1.16, written by Peter Selinger 2001-2019
</metadata>
<g transform="translate(0.000000,626.000000) scale(0.100000,-0.100000)"
fill="#000000" stroke="none">
<path d="M5083 6236 c-151 -50 -256 -140 -320 -276 -35 -74 -41 -81 -83 -96
-1052 -396 -1810 -769 -2505 -1234 -1158 -777 -1876 -1693 -2125 -2712 -83
-340 -56 -651 84 -954 111 -238 343 -492 589 -643 288 -176 617 -278 1007
-312 173 -15 397 -6 513 20 379 87 745 310 1120 684 54 54 96 90 93 80 -31
-100 -96 -400 -96 -444 0 -91 34 -175 99 -240 69 -69 142 -100 253 -107 142
-9 312 65 408 176 72 83 101 158 170 435 36 141 67 257 71 257 3 0 15 -18 28
-40 12 -22 50 -77 83 -122 298 -405 706 -644 1188 -699 129 -15 390 -7 550 16
262 38 596 142 855 264 508 241 973 629 1296 1081 116 163 114 183 -23 332
-158 171 -217 172 -333 7 -472 -676 -1160 -1157 -1815 -1270 -445 -76 -754 7
-1002 270 -205 216 -326 511 -385 931 -23 170 -23 557 1 765 28 246 114 739
152 868 5 16 29 17 312 17 1429 0 2240 154 2808 531 146 97 334 285 427 425
116 175 204 395 243 609 25 137 15 378 -20 504 -118 422 -454 724 -940 846
-306 77 -661 72 -1023 -15 -394 -95 -795 -279 -1137 -523 -44 -31 -81 -55 -82
-54 -1 1 11 56 27 122 35 143 36 209 7 296 -29 85 -106 165 -193 199 -90 35
-209 37 -302 6z m2387 -400 c111 -17 235 -59 317 -107 74 -43 218 -187 261
-261 172 -292 121 -745 -119 -1069 -280 -378 -824 -589 -1709 -663 -376 -32
-1150 -49 -1150 -26 0 6 22 77 49 158 211 638 505 1107 916 1460 346 297 722
467 1140 516 75 8 208 5 295 -8z m-3291 -2152 l-429 -1715 -71 -126 c-205
-367 -417 -653 -673 -908 -273 -273 -524 -432 -786 -498 -114 -28 -344 -30
-470 -3 -339 71 -559 264 -621 541 -22 96 -17 345 9 500 31 180 111 503 167
668 394 1178 1402 2264 2794 3012 146 79 486 244 502 245 4 0 -186 -772 -422
-1716z"/>
</g>
</svg>
