<?xml version="1.0" standalone="no"?>
<!DOCTYPE svg PUBLIC "-//W3C//DTD SVG 20010904//EN"
 "http://www.w3.org/TR/2001/REC-SVG-20010904/DTD/svg10.dtd">
<svg version="1.0" xmlns="http://www.w3.org/2000/svg"
 width="950.000000pt" height="908.000000pt" viewBox="0 0 950.000000 908.000000"
 preserveAspectRatio="xMidYMid meet">
<metadata>
Created by potrace 1.16, written by Peter Selinger 2001-2019
</metadata>
<g transform="translate(0.000000,908.000000) scale(0.100000,-0.100000)"
fill="#000000" stroke="none">
<path d="M2282 9063 c-48 -24 -69 -60 -98 -171 -30 -114 -28 -154 13 -202 47
-56 64 -60 275 -60 343 0 620 -24 738 -63 85 -29 93 -43 86 -167 -4 -84 -111
-520 -935 -3818 -512 -2048 -945 -3758 -961 -3800 -58 -151 -128 -225 -246
-262 -140 -43 -449 -70 -805 -70 -187 0 -198 -1 -229 -22 -18 -13 -41 -34 -51
-48 -29 -39 -71 -213 -63 -256 8 -42 52 -97 92 -113 20 -9 617 -11 2342 -8
2136 3 2324 4 2430 20 295 45 500 94 755 180 1177 401 2284 1357 3015 2602
108 185 322 621 400 815 423 1054 554 2145 369 3075 -108 547 -329 1042 -635
1423 -369 461 -892 784 -1459 903 -272 56 -108 53 -2655 56 -2151 3 -2348 1
-2378 -14z m4244 -444 c889 -86 1531 -644 1745 -1514 163 -667 92 -1482 -242
-2775 -284 -1098 -581 -1782 -1039 -2395 -632 -845 -1555 -1389 -2505 -1475
-142 -13 -1794 -13 -1895 0 -138 18 -148 31 -129 168 15 106 1901 7648 1939
7755 61 168 117 213 294 236 95 13 1704 13 1832 0z"/>
</g>
</svg>
