<?xml version="1.0" standalone="no"?>
<!DOCTYPE svg PUBLIC "-//W3C//DTD SVG 20010904//EN"
 "http://www.w3.org/TR/2001/REC-SVG-20010904/DTD/svg10.dtd">
<svg version="1.0" xmlns="http://www.w3.org/2000/svg"
 width="899.000000pt" height="982.000000pt" viewBox="0 0 899.000000 982.000000"
 preserveAspectRatio="xMidYMid meet">
<metadata>
Created by potrace 1.16, written by Peter Selinger 2001-2019
</metadata>
<g transform="translate(0.000000,982.000000) scale(0.100000,-0.100000)"
fill="#000000" stroke="none">
<path d="M3720 9806 c-834 -121 -1681 -825 -2181 -1811 -219 -433 -362 -899
-414 -1350 -17 -151 -20 -491 -4 -633 15 -140 54 -327 95 -453 41 -127 50 -99
-78 -243 -536 -605 -970 -1499 -1109 -2284 -27 -150 -37 -480 -20 -643 43
-404 211 -833 455 -1158 325 -433 805 -774 1388 -984 929 -336 2181 -330 3223
18 385 128 684 273 1018 492 626 412 1118 987 1473 1718 237 491 407 1062 470
1585 25 202 25 624 0 805 -77 569 -269 1032 -629 1518 -44 59 -76 112 -71 116
5 4 59 47 119 96 137 112 407 375 532 520 350 405 611 835 803 1320 90 227
174 513 186 632 7 66 -14 170 -47 235 -47 92 -155 172 -276 203 -258 67 -577
-90 -702 -345 -57 -119 -74 -193 -69 -309 3 -82 8 -106 35 -163 35 -74 88
-132 158 -174 53 -31 163 -64 212 -64 18 0 33 -4 33 -8 0 -15 -157 -327 -215
-427 -241 -417 -596 -830 -967 -1126 -153 -122 -274 -204 -643 -439 -705 -449
-958 -636 -1189 -882 -241 -255 -373 -490 -452 -803 -32 -124 -44 -362 -24
-483 50 -312 217 -555 465 -678 169 -83 381 -115 539 -80 188 42 361 177 444
346 58 118 75 192 70 309 -3 82 -8 106 -35 163 -91 193 -314 280 -558 218
-185 -47 -323 -156 -417 -326 l-36 -67 -11 39 c-22 83 -31 219 -21 323 31 326
149 561 415 826 136 135 284 251 525 410 186 123 698 442 719 447 6 2 50 -50
98 -114 296 -393 473 -807 544 -1269 19 -119 23 -188 23 -399 1 -342 -29 -575
-120 -935 -177 -694 -490 -1331 -888 -1807 -129 -153 -388 -407 -526 -514
-597 -464 -1290 -723 -2164 -811 -241 -24 -740 -24 -921 0 -594 80 -1049 276
-1392 600 -299 284 -464 611 -530 1057 -12 82 -17 181 -18 345 0 347 27 527
155 1030 148 585 264 929 439 1309 l41 88 44 -40 c176 -162 444 -299 696 -356
116 -26 271 -39 395 -33 764 35 1409 879 1184 1551 -84 253 -261 421 -526 503
-82 25 -101 27 -268 27 -200 0 -294 -13 -500 -69 -212 -58 -449 -163 -659
-290 -59 -36 -110 -65 -113 -65 -3 0 -3 46 1 103 29 455 272 1431 478 1922
311 744 800 1268 1312 1408 114 31 331 30 459 -1 426 -105 682 -470 722 -1033
l7 -95 -88 -2 c-249 -4 -492 -162 -596 -390 -36 -79 -68 -211 -68 -282 0 -75
30 -177 70 -240 130 -203 445 -253 715 -112 85 45 217 172 264 254 57 102 106
282 131 490 19 151 8 506 -20 633 -129 601 -506 998 -1058 1115 -127 27 -397
35 -532 16z m-424 -3707 c218 -40 324 -216 294 -490 -20 -180 -85 -378 -169
-514 -224 -363 -627 -492 -986 -315 -154 75 -286 214 -375 395 -72 146 -73
135 12 240 391 486 863 750 1224 684z"/>
</g>
</svg>
