<?xml version="1.0" standalone="no"?>
<!DOCTYPE svg PUBLIC "-//W3C//DTD SVG 20010904//EN"
 "http://www.w3.org/TR/2001/REC-SVG-20010904/DTD/svg10.dtd">
<svg version="1.0" xmlns="http://www.w3.org/2000/svg"
 width="881.000000pt" height="968.000000pt" viewBox="0 0 881.000000 968.000000"
 preserveAspectRatio="xMidYMid meet">
<metadata>
Created by potrace 1.16, written by Peter Selinger 2001-2019
</metadata>
<g transform="translate(0.000000,968.000000) scale(0.100000,-0.100000)"
fill="#000000" stroke="none">
<path d="M5360 9674 c-1690 -119 -3425 -1306 -4470 -3059 -107 -178 -318 -596
-400 -790 -273 -646 -435 -1306 -481 -1960 -14 -210 -7 -637 16 -825 68 -578
238 -1098 508 -1547 231 -386 566 -735 937 -978 682 -448 1578 -617 2399 -455
947 188 1870 793 2556 1675 298 383 555 844 724 1298 53 144 151 469 151 503
0 34 -35 87 -71 106 -44 23 -264 26 -307 4 -48 -25 -59 -48 -107 -216 -235
-825 -737 -1611 -1390 -2176 -621 -538 -1363 -828 -2050 -801 -918 36 -1635
534 -1971 1369 -150 375 -211 770 -201 1312 7 401 43 705 137 1176 175 872
432 1655 755 2295 128 254 234 434 386 660 757 1120 1887 1854 3009 1955 714
64 1263 -179 1616 -715 297 -452 438 -1047 421 -1780 -6 -263 -13 -338 -48
-603 -21 -153 -22 -164 -6 -197 30 -63 64 -75 212 -75 111 0 135 3 162 20 17
10 37 28 43 40 18 33 910 3604 910 3641 0 46 -19 79 -59 106 -45 30 -141 32
-187 4 -17 -11 -237 -253 -489 -538 -252 -285 -467 -528 -480 -541 l-21 -23
-53 86 c-132 216 -358 468 -545 607 -286 213 -616 348 -986 404 -102 15 -497
26 -620 18z"/>
</g>
</svg>
