<?xml version="1.0" standalone="no"?>
<!DOCTYPE svg PUBLIC "-//W3C//DTD SVG 20010904//EN"
 "http://www.w3.org/TR/2001/REC-SVG-20010904/DTD/svg10.dtd">
<svg version="1.0" xmlns="http://www.w3.org/2000/svg"
 width="741.000000pt" height="977.000000pt" viewBox="0 0 741.000000 977.000000"
 preserveAspectRatio="xMidYMid meet">
<metadata>
Created by potrace 1.16, written by Peter Selinger 2001-2019
</metadata>
<g transform="translate(0.000000,977.000000) scale(0.100000,-0.100000)"
fill="#000000" stroke="none">
<path d="M3655 9757 c-57 -26 -80 -66 -114 -201 -17 -69 -31 -140 -31 -157 0
-45 36 -103 80 -128 36 -20 52 -21 296 -21 556 0 983 -34 1116 -87 31 -12 45
-26 59 -57 43 -94 85 89 -822 -3539 -500 -1999 -859 -3417 -886 -3497 -112
-333 -266 -626 -467 -894 -293 -389 -631 -646 -969 -738 -115 -31 -354 -31
-504 1 -401 84 -687 317 -819 667 l-23 61 112 6 c363 17 679 267 791 624 130
419 -64 750 -473 804 -207 28 -452 -47 -640 -197 -236 -188 -353 -490 -353
-909 0 -196 19 -318 78 -487 216 -620 831 -1008 1598 -1008 749 0 1546 350
2131 935 333 333 572 708 715 1122 23 67 410 1594 886 3496 464 1858 855 3405
869 3438 82 204 189 242 705 255 329 9 328 8 381 218 46 180 35 242 -51 286
-39 20 -47 20 -228 11 -433 -24 -1053 -33 -1692 -27 -587 6 -862 12 -1520 31
-155 4 -201 3 -225 -8z"/>
</g>
</svg>
