<?xml version="1.0" standalone="no"?>
<!DOCTYPE svg PUBLIC "-//W3C//DTD SVG 20010904//EN"
 "http://www.w3.org/TR/2001/REC-SVG-20010904/DTD/svg10.dtd">
<svg version="1.0" xmlns="http://www.w3.org/2000/svg"
 width="938.000000pt" height="946.000000pt" viewBox="0 0 938.000000 946.000000"
 preserveAspectRatio="xMidYMid meet">
<metadata>
Created by potrace 1.16, written by Peter Selinger 2001-2019
</metadata>
<g transform="translate(0.000000,946.000000) scale(0.100000,-0.100000)"
fill="#000000" stroke="none">
<path d="M2385 9446 c-63 -27 -79 -61 -131 -269 l-48 -194 25 -48 c45 -92 34
-89 412 -97 323 -6 509 -18 632 -39 129 -22 145 -37 145 -132 -1 -73 -1917
-7736 -1954 -7811 -33 -68 -95 -132 -149 -156 -105 -47 -332 -69 -772 -76
-181 -3 -344 -10 -362 -15 -66 -21 -86 -59 -138 -271 l-49 -195 25 -48 c13
-27 37 -58 52 -69 l28 -21 2607 0 c2106 0 2627 3 2712 13 464 59 844 174 1255
382 400 201 725 439 1031 751 457 468 751 1003 856 1558 19 99 23 151 23 351
0 207 -3 249 -23 350 -75 367 -238 669 -504 931 -217 213 -502 384 -820 491
-129 42 -340 94 -431 104 -32 4 -56 9 -54 11 3 2 71 21 153 43 541 142 1034
386 1457 723 129 102 355 323 460 450 253 306 440 675 506 1002 69 341 50 685
-54 985 -158 451 -501 821 -977 1050 -292 140 -603 221 -962 250 -84 6 -963
10 -2525 10 -1970 -1 -2401 -3 -2426 -14z m4763 -629 c407 -111 672 -410 766
-869 90 -437 -15 -995 -275 -1463 -341 -613 -917 -1084 -1520 -1244 -251 -67
-203 -64 -1311 -68 -555 -2 -1008 -2 -1008 2 0 32 867 3464 886 3505 47 104
96 132 260 149 44 5 543 8 1109 7 934 -2 1036 -3 1093 -19z m-815 -4190 c344
-108 591 -367 721 -759 105 -313 123 -665 55 -1063 -51 -300 -134 -552 -270
-814 -338 -654 -933 -1154 -1564 -1316 -219 -56 -247 -57 -1415 -53 -898 3
-1073 6 -1115 19 l-50 14 2 60 c1 41 150 654 478 1965 262 1048 480 1922 486
1943 l10 37 1287 -2 1287 -3 88 -28z"/>
</g>
</svg>
