<?xml version="1.0" standalone="no"?>
<!DOCTYPE svg PUBLIC "-//W3C//DTD SVG 20010904//EN"
 "http://www.w3.org/TR/2001/REC-SVG-20010904/DTD/svg10.dtd">
<svg version="1.0" xmlns="http://www.w3.org/2000/svg"
 width="878.000000pt" height="312.000000pt" viewBox="0 0 878.000000 312.000000"
 preserveAspectRatio="xMidYMid meet">
<metadata>
Created by potrace 1.16, written by Peter Selinger 2001-2019
</metadata>
<g transform="translate(0.000000,312.000000) scale(0.100000,-0.100000)"
fill="#000000" stroke="none">
<path d="M840 3111 c-110 -34 -200 -151 -200 -261 0 -90 68 -197 155 -243 l40
-22 3850 -3 c4233 -2 3908 -7 3988 58 20 17 49 53 65 78 24 41 27 57 27 132 0
75 -3 91 -27 132 -16 25 -45 60 -65 78 -80 65 245 60 -3972 59 -2110 0 -3847
-4 -3861 -8z"/>
<path d="M180 525 c-58 -18 -113 -64 -148 -123 -40 -69 -40 -195 0 -264 16
-25 45 -61 65 -78 80 -65 -245 -60 3988 -58 l3850 3 40 22 c87 46 155 153 155
243 0 90 -68 197 -155 243 l-40 22 -3855 2 c-3280 1 -3862 0 -3900 -12z"/>
</g>
</svg>
