<?xml version="1.0" standalone="no"?>
<!DOCTYPE svg PUBLIC "-//W3C//DTD SVG 20010904//EN"
 "http://www.w3.org/TR/2001/REC-SVG-20010904/DTD/svg10.dtd">
<svg version="1.0" xmlns="http://www.w3.org/2000/svg"
 width="753.000000pt" height="908.000000pt" viewBox="0 0 753.000000 908.000000"
 preserveAspectRatio="xMidYMid meet">
<metadata>
Created by potrace 1.16, written by Peter Selinger 2001-2019
</metadata>
<g transform="translate(0.000000,908.000000) scale(0.100000,-0.100000)"
fill="#000000" stroke="none">
<path d="M2282 9064 c-49 -25 -68 -60 -97 -174 -30 -117 -28 -153 12 -200 47
-56 64 -60 275 -60 343 0 620 -24 738 -63 85 -29 93 -43 86 -167 -4 -84 -111
-520 -935 -3818 -512 -2048 -945 -3758 -961 -3800 -58 -151 -128 -225 -246
-262 -139 -43 -449 -70 -802 -70 -211 0 -228 -4 -274 -59 -37 -43 -82 -229
-68 -280 10 -37 46 -79 87 -100 16 -8 846 -11 3106 -11 l3084 0 33 23 c18 12
41 33 51 47 24 34 1149 3214 1149 3248 0 39 -32 93 -70 120 -30 20 -45 22
-154 22 -131 0 -167 -11 -200 -62 -8 -13 -56 -138 -107 -278 -338 -940 -587
-1417 -957 -1834 -130 -147 -333 -313 -528 -432 -362 -220 -801 -357 -1258
-394 -163 -13 -1515 -13 -1616 0 -138 18 -148 31 -129 168 6 42 433 1769 950
3837 1044 4177 961 3869 1078 3985 64 64 100 83 206 110 163 42 567 70 1003
70 314 0 320 3 368 188 30 114 28 154 -13 202 -51 61 -53 61 -365 50 -1045
-37 -2155 -35 -3258 5 -133 5 -160 4 -188 -11z"/>
</g>
</svg>
