<?xml version="1.0" standalone="no"?>
<!DOCTYPE svg PUBLIC "-//W3C//DTD SVG 20010904//EN"
 "http://www.w3.org/TR/2001/REC-SVG-20010904/DTD/svg10.dtd">
<svg version="1.0" xmlns="http://www.w3.org/2000/svg"
 width="971.000000pt" height="946.000000pt" viewBox="0 0 971.000000 946.000000"
 preserveAspectRatio="xMidYMid meet">
<metadata>
Created by potrace 1.16, written by Peter Selinger 2001-2019
</metadata>
<g transform="translate(0.000000,946.000000) scale(0.100000,-0.100000)"
fill="#000000" stroke="none">
<path d="M2369 9440 c-20 -10 -44 -31 -54 -47 -21 -31 -104 -351 -105 -400 0
-20 368 -925 975 -2397 536 -1300 975 -2369 975 -2375 0 -5 -924 -895 -2053
-1976 -1128 -1082 -2064 -1985 -2079 -2008 -50 -74 -27 -172 52 -216 l38 -21
3581 0 c3872 0 3617 -4 3669 52 29 32 1172 3187 1172 3236 0 48 -36 106 -80
131 -35 19 -53 21 -224 21 -200 0 -231 -6 -274 -52 -12 -13 -51 -103 -86 -199
-327 -893 -618 -1401 -1015 -1770 -447 -415 -923 -575 -1926 -651 -99 -7 -723
-12 -1845 -15 l-1695 -4 55 54 c30 30 937 899 2015 1932 1078 1032 1971 1892
1984 1912 51 72 94 -44 -807 2140 -457 1106 -833 2021 -837 2033 l-7 21 1554
-4 c1562 -4 1647 -6 1983 -43 822 -89 1179 -309 1344 -828 65 -202 76 -302 76
-671 -1 -334 -12 -488 -60 -834 -28 -195 -15 -250 67 -292 36 -19 55 -20 238
-17 184 3 201 5 227 24 62 46 52 -15 269 1616 l205 1531 -23 46 c-13 25 -36
54 -51 65 l-28 21 -3597 2 c-3520 2 -3598 2 -3633 -17z"/>
</g>
</svg>
