<?xml version="1.0" standalone="no"?>
<!DOCTYPE svg PUBLIC "-//W3C//DTD SVG 20010904//EN"
 "http://www.w3.org/TR/2001/REC-SVG-20010904/DTD/svg10.dtd">
<svg version="1.0" xmlns="http://www.w3.org/2000/svg"
 width="933.000000pt" height="946.000000pt" viewBox="0 0 933.000000 946.000000"
 preserveAspectRatio="xMidYMid meet">
<metadata>
Created by potrace 1.16, written by Peter Selinger 2001-2019
</metadata>
<g transform="translate(0.000000,946.000000) scale(0.100000,-0.100000)"
fill="#000000" stroke="none">
<path d="M2385 9446 c-63 -27 -79 -61 -131 -269 l-48 -194 25 -48 c45 -92 34
-89 412 -97 323 -6 509 -18 632 -39 129 -22 145 -37 145 -132 -1 -73 -1917
-7736 -1954 -7811 -33 -68 -95 -132 -149 -156 -105 -47 -332 -69 -772 -76
-181 -3 -344 -10 -362 -15 -66 -21 -86 -59 -138 -271 l-49 -195 25 -48 c13
-27 37 -58 52 -69 33 -24 52 -24 602 -6 825 27 1966 22 2830 -11 288 -11 291
-11 333 10 23 12 49 32 58 46 19 30 103 356 104 403 0 50 -32 104 -78 130 -38
21 -51 22 -253 22 -384 0 -736 27 -823 64 -47 19 -61 69 -46 158 6 35 194 797
418 1693 l408 1630 1160 6 c1024 5 1172 7 1272 22 657 100 1197 306 1732 662
222 148 400 294 596 490 513 512 817 1078 910 1695 22 144 25 472 5 610 -95
666 -492 1214 -1104 1521 -275 138 -518 212 -877 266 -106 16 -302 17 -2510
20 -1985 2 -2400 0 -2425 -11z m4410 -629 c311 -47 522 -118 705 -239 129 -85
269 -245 326 -373 25 -59 58 -180 69 -260 12 -85 7 -324 -10 -450 -41 -312
-224 -1054 -342 -1385 -59 -167 -198 -444 -277 -554 -317 -440 -804 -703
-1486 -803 -100 -14 -244 -17 -1082 -20 -533 -2 -968 -2 -968 2 0 32 977 3904
996 3945 47 104 96 131 260 149 44 5 444 8 889 7 692 -2 826 -5 920 -19z"/>
</g>
</svg>
