<?xml version="1.0" standalone="no"?>
<!DOCTYPE svg PUBLIC "-//W3C//DTD SVG 20010904//EN"
 "http://www.w3.org/TR/2001/REC-SVG-20010904/DTD/svg10.dtd">
<svg version="1.0" xmlns="http://www.w3.org/2000/svg"
 width="1166.000000pt" height="946.000000pt" viewBox="0 0 1166.000000 946.000000"
 preserveAspectRatio="xMidYMid meet">
<metadata>
Created by potrace 1.16, written by Peter Selinger 2001-2019
</metadata>
<g transform="translate(0.000000,946.000000) scale(0.100000,-0.100000)"
fill="#000000" stroke="none">
<path d="M3120 9202 l0 -259 551 -5 c302 -3 552 -8 555 -11 9 -8 -2705 -7661
-2746 -7742 -102 -204 -285 -378 -508 -486 -218 -105 -478 -161 -819 -176
l-153 -6 0 -260 0 -259 83 6 c550 41 2237 41 2905 0 l102 -6 0 259 0 260 -115
6 c-269 16 -496 88 -672 213 -168 120 -265 320 -236 488 6 33 246 725 533
1536 287 811 527 1487 532 1502 l10 28 1084 0 1084 0 0 -1709 c0 -1094 -4
-1728 -10 -1762 -23 -124 -96 -212 -202 -243 -103 -30 -291 -47 -575 -53
l-283 -6 0 -259 0 -258 3414 0 3414 0 6 27 c3 16 132 827 286 1803 154 976
283 1787 286 1802 l6 28 -226 0 -225 0 -6 -32 c-3 -18 -28 -170 -56 -338 -165
-999 -340 -1582 -589 -1958 -79 -121 -149 -200 -249 -284 -321 -267 -708 -419
-1241 -487 -282 -36 -529 -43 -1375 -38 -675 3 -812 6 -878 20 -138 28 -194
68 -234 168 -17 41 -18 148 -21 1812 l-2 1769 702 -5 c588 -4 722 -7 818 -21
448 -65 686 -220 809 -528 75 -186 109 -416 118 -800 l6 -258 224 0 223 0 0
1870 0 1870 -223 0 -224 0 -6 -257 c-3 -142 -13 -316 -22 -388 -73 -610 -308
-854 -905 -941 -96 -14 -230 -17 -818 -21 l-702 -5 2 1949 c3 1884 4 1950 22
1997 38 98 105 141 266 168 109 19 1807 18 2005 0 628 -59 1011 -206 1306
-501 58 -58 127 -140 154 -181 223 -342 360 -834 465 -1665 16 -132 32 -259
36 -282 l5 -43 225 0 226 0 -6 38 c-3 20 -87 726 -186 1567 -99 842 -183 1547
-186 1568 l-6 37 -3879 0 -3879 0 0 -258z m1827 -332 c157 -31 280 -109 336
-214 l22 -41 3 -1902 2 -1903 -991 0 c-831 0 -990 2 -987 14 2 7 327 927 722
2043 l719 2031 41 -5 c23 -3 82 -13 133 -23z"/>
</g>
</svg>
