<?xml version="1.0" standalone="no"?>
<!DOCTYPE svg PUBLIC "-//W3C//DTD SVG 20010904//EN"
 "http://www.w3.org/TR/2001/REC-SVG-20010904/DTD/svg10.dtd">
<svg version="1.0" xmlns="http://www.w3.org/2000/svg"
 width="937.000000pt" height="946.000000pt" viewBox="0 0 937.000000 946.000000"
 preserveAspectRatio="xMidYMid meet">
<metadata>
Created by potrace 1.16, written by Peter Selinger 2001-2019
</metadata>
<g transform="translate(0.000000,946.000000) scale(0.100000,-0.100000)"
fill="#000000" stroke="none">
<path d="M0 9202 l0 -259 373 -6 c717 -12 882 -44 981 -190 72 -107 66 263 66
-4017 0 -4280 6 -3910 -66 -4017 -99 -146 -264 -178 -981 -190 l-373 -6 0
-259 0 -258 2723 3 c2986 3 2763 -1 3108 62 1093 199 2082 873 2734 1865 754
1148 985 2613 634 4030 -409 1652 -1570 2932 -3042 3355 -177 50 -352 87 -562
117 l-150 22 -2722 3 -2723 3 0 -258z m5005 -272 c705 -61 1337 -343 1823
-814 584 -566 905 -1330 1006 -2396 55 -577 59 -1434 11 -2000 -76 -879 -293
-1526 -689 -2055 -109 -146 -370 -410 -511 -516 -440 -334 -907 -523 -1495
-606 -113 -16 -222 -18 -1100 -18 -1009 0 -1052 1 -1174 41 -61 20 -117 76
-142 140 -19 48 -19 151 -22 3989 -1 2624 1 3958 8 3995 29 160 111 216 345
239 131 12 1795 13 1940 1z"/>
</g>
</svg>
