<?xml version="1.0" standalone="no"?>
<!DOCTYPE svg PUBLIC "-//W3C//DTD SVG 20010904//EN"
 "http://www.w3.org/TR/2001/REC-SVG-20010904/DTD/svg10.dtd">
<svg version="1.0" xmlns="http://www.w3.org/2000/svg"
 width="690.000000pt" height="976.000000pt" viewBox="0 0 690.000000 976.000000"
 preserveAspectRatio="xMidYMid meet">
<metadata>
Created by potrace 1.16, written by Peter Selinger 2001-2019
</metadata>
<g transform="translate(0.000000,976.000000) scale(0.100000,-0.100000)"
fill="#000000" stroke="none">
<path d="M4745 9684 c-550 -40 -1008 -73 -1017 -73 -17 -1 -18 -20 -18 -261
l0 -260 143 0 c190 0 400 -17 522 -41 235 -47 340 -142 392 -356 16 -62 17
-211 20 -1627 l4 -1559 -78 73 c-534 500 -1215 735 -1943 670 -551 -50 -1075
-254 -1538 -600 -142 -105 -426 -381 -536 -520 -250 -314 -467 -739 -575
-1125 -74 -260 -109 -498 -118 -785 -27 -930 325 -1816 969 -2436 461 -443
1063 -721 1678 -775 160 -14 440 -6 585 16 531 82 1010 319 1392 688 l123 119
0 -417 0 -417 73 7 c59 5 2049 145 2063 145 2 0 4 117 4 260 l0 260 -142 0
c-191 0 -401 17 -523 41 -235 47 -340 142 -393 356 -15 63 -17 369 -19 4381
l-3 4312 -33 -1 c-17 -1 -482 -34 -1032 -75z m-1285 -3863 c164 -29 315 -80
476 -161 173 -87 296 -174 440 -312 123 -118 226 -245 315 -388 l59 -93 0
-1656 0 -1657 -65 -114 c-292 -513 -780 -882 -1308 -990 -582 -119 -1110 43
-1514 463 -460 479 -630 1134 -610 2342 10 583 56 929 168 1269 242 736 816
1227 1539 1316 115 14 368 4 500 -19z"/>
</g>
</svg>
