<?xml version="1.0" standalone="no"?>
<!DOCTYPE svg PUBLIC "-//W3C//DTD SVG 20010904//EN"
 "http://www.w3.org/TR/2001/REC-SVG-20010904/DTD/svg10.dtd">
<svg version="1.0" xmlns="http://www.w3.org/2000/svg"
 width="432.000000pt" height="946.000000pt" viewBox="0 0 432.000000 946.000000"
 preserveAspectRatio="xMidYMid meet">
<metadata>
Created by potrace 1.16, written by Peter Selinger 2001-2019
</metadata>
<g transform="translate(0.000000,946.000000) scale(0.100000,-0.100000)"
fill="#000000" stroke="none">
<path d="M0 9201 l0 -261 248 0 c415 -1 772 -22 942 -56 133 -28 215 -89 269
-203 l26 -56 0 -3895 0 -3895 -26 -56 c-54 -114 -136 -175 -269 -203 -170 -34
-527 -55 -942 -56 l-248 0 0 -261 0 -262 127 7 c822 41 3234 41 4056 0 l127
-7 0 262 0 261 -247 0 c-416 1 -773 22 -943 56 -133 28 -215 89 -269 203 l-26
56 0 3895 0 3895 26 56 c54 114 136 175 269 203 170 34 527 55 943 56 l247 0
0 261 0 262 -127 -7 c-395 -19 -1108 -30 -2028 -30 -920 0 -1633 11 -2027 30
l-128 7 0 -262z"/>
</g>
</svg>
