<?xml version="1.0" standalone="no"?>
<!DOCTYPE svg PUBLIC "-//W3C//DTD SVG 20010904//EN"
 "http://www.w3.org/TR/2001/REC-SVG-20010904/DTD/svg10.dtd">
<svg version="1.0" xmlns="http://www.w3.org/2000/svg"
 width="377.000000pt" height="895.000000pt" viewBox="0 0 377.000000 895.000000"
 preserveAspectRatio="xMidYMid meet">
<metadata>
Created by potrace 1.16, written by Peter Selinger 2001-2019
</metadata>
<g transform="translate(0.000000,895.000000) scale(0.100000,-0.100000)"
fill="#000000" stroke="none">
<path d="M2590 8874 c-602 -40 -1103 -73 -1112 -73 -17 -1 -18 -23 -18 -309
l0 -309 248 -6 c566 -14 765 -77 861 -272 71 -143 65 113 69 -3045 2 -1974 0
-2886 -8 -2980 -14 -176 -35 -307 -72 -455 -121 -485 -364 -800 -688 -892
-132 -37 -492 -16 -679 39 l-45 14 61 48 c112 87 199 224 240 376 27 101 25
311 -5 415 -91 315 -365 515 -707 515 -342 0 -616 -200 -707 -515 -32 -112
-32 -329 0 -459 107 -427 489 -769 1007 -900 206 -52 276 -60 515 -60 233 -1
332 10 530 55 230 53 532 183 728 313 498 330 810 796 925 1381 l21 110 3
3543 3 3542 -37 -1 c-21 -1 -531 -34 -1133 -75z"/>
</g>
</svg>
