<?xml version="1.0" standalone="no"?>
<!DOCTYPE svg PUBLIC "-//W3C//DTD SVG 20010904//EN"
 "http://www.w3.org/TR/2001/REC-SVG-20010904/DTD/svg10.dtd">
<svg version="1.0" xmlns="http://www.w3.org/2000/svg"
 width="885.000000pt" height="968.000000pt" viewBox="0 0 885.000000 968.000000"
 preserveAspectRatio="xMidYMid meet">
<metadata>
Created by potrace 1.16, written by Peter Selinger 2001-2019
</metadata>
<g transform="translate(0.000000,968.000000) scale(0.100000,-0.100000)"
fill="#000000" stroke="none">
<path d="M4190 9674 c-19 -2 -91 -9 -160 -15 -261 -23 -577 -88 -842 -175
-865 -282 -1608 -821 -2178 -1579 -989 -1317 -1277 -3134 -750 -4726 80 -241
144 -398 260 -634 500 -1021 1315 -1803 2316 -2224 1859 -781 3986 -95 5165
1664 162 243 359 616 469 889 460 1147 491 2472 85 3654 -421 1227 -1270 2211
-2360 2738 -427 206 -869 335 -1335 390 -126 14 -591 27 -670 18z m575 -399
c974 -152 1805 -856 2253 -1910 207 -487 331 -1028 389 -1695 21 -249 24
-1039 5 -1295 -82 -1076 -299 -1855 -704 -2525 -171 -282 -316 -466 -540 -685
-424 -416 -877 -651 -1423 -741 -154 -26 -496 -26 -650 0 -443 73 -809 235
-1185 527 -121 93 -358 325 -463 453 -545 658 -882 1561 -991 2656 -33 332
-40 486 -40 940 0 502 11 695 60 1058 162 1202 647 2133 1411 2708 403 304
846 477 1348 528 84 9 434 -4 530 -19z"/>
</g>
</svg>
