<?xml version="1.0" standalone="no"?>
<!DOCTYPE svg PUBLIC "-//W3C//DTD SVG 20010904//EN"
 "http://www.w3.org/TR/2001/REC-SVG-20010904/DTD/svg10.dtd">
<svg version="1.0" xmlns="http://www.w3.org/2000/svg"
 width="695.000000pt" height="976.000000pt" viewBox="0 0 695.000000 976.000000"
 preserveAspectRatio="xMidYMid meet">
<metadata>
Created by potrace 1.16, written by Peter Selinger 2001-2019
</metadata>
<g transform="translate(0.000000,976.000000) scale(0.100000,-0.100000)"
fill="#000000" stroke="none">
<path d="M1085 9684 c-577 -40 -1058 -73 -1067 -73 -17 -1 -18 -23 -18 -311
l0 -310 143 0 c190 0 400 -17 522 -41 235 -47 340 -142 393 -356 15 -63 17
-362 19 -4256 l3 -4187 276 2 276 3 204 369 c112 203 207 373 211 377 5 5 50
-35 99 -89 427 -459 1001 -743 1624 -803 152 -14 451 -6 600 16 774 117 1451
523 1924 1152 600 799 794 1839 531 2848 -153 585 -444 1091 -858 1491 -359
348 -809 590 -1282 693 -287 62 -673 66 -1005 10 -523 -88 -1022 -306 -1405
-614 l-70 -56 -3 2105 -2 2106 -33 -1 c-17 -1 -504 -34 -1082 -75z m3146
-3963 c515 -104 943 -470 1152 -986 102 -249 155 -498 189 -885 18 -200 18
-1153 0 -1350 -55 -612 -174 -982 -423 -1315 -427 -572 -1198 -815 -1875 -590
-386 128 -745 433 -979 829 l-55 94 0 1659 0 1660 42 59 c317 448 803 747
1348 828 158 23 172 24 345 20 105 -2 193 -10 256 -23z"/>
</g>
</svg>
