<?xml version="1.0" standalone="no"?>
<!DOCTYPE svg PUBLIC "-//W3C//DTD SVG 20010904//EN"
 "http://www.w3.org/TR/2001/REC-SVG-20010904/DTD/svg10.dtd">
<svg version="1.0" xmlns="http://www.w3.org/2000/svg"
 width="868.000000pt" height="942.000000pt" viewBox="0 0 868.000000 942.000000"
 preserveAspectRatio="xMidYMid meet">
<metadata>
Created by potrace 1.16, written by Peter Selinger 2001-2019
</metadata>
<g transform="translate(0.000000,942.000000) scale(0.100000,-0.100000)"
fill="#000000" stroke="none">
<path d="M0 9112 l0 -309 403 -6 c545 -8 760 -27 862 -77 50 -24 108 -78 132
-123 17 -30 18 -233 18 -3887 0 -3654 -1 -3857 -18 -3887 -24 -45 -82 -99
-132 -123 -102 -50 -317 -69 -862 -77 l-403 -6 0 -309 0 -308 4045 0 4044 0 6
33 c3 17 131 849 285 1847 154 998 282 1830 285 1848 l6 32 -275 0 -275 0 -5
-32 c-3 -18 -28 -171 -56 -340 -231 -1411 -509 -2018 -1092 -2380 -377 -234
-831 -347 -1533 -378 -307 -14 -2267 -8 -2341 8 -140 29 -187 57 -220 135 -18
40 -19 117 -22 1925 l-2 1884 717 -5 c729 -5 784 -7 995 -47 284 -54 494 -172
610 -343 144 -212 203 -475 215 -964 l6 -253 274 0 273 0 0 1920 0 1920 -273
0 -274 0 -6 -252 c-12 -490 -71 -753 -215 -965 -116 -171 -326 -289 -610 -343
-211 -40 -266 -42 -995 -47 l-717 -5 2 1704 c3 1633 4 1705 22 1745 35 81 84
109 231 136 103 18 2279 17 2490 -1 949 -83 1428 -338 1734 -923 173 -331 287
-793 370 -1494 12 -93 23 -189 26 -212 l6 -43 275 0 275 0 -6 43 c-3 23 -86
749 -185 1612 -99 864 -182 1589 -185 1613 l-6 42 -3950 0 -3949 0 0 -308z"/>
</g>
</svg>
