<?xml version="1.0" standalone="no"?>
<!DOCTYPE svg PUBLIC "-//W3C//DTD SVG 20010904//EN"
 "http://www.w3.org/TR/2001/REC-SVG-20010904/DTD/svg10.dtd">
<svg version="1.0" xmlns="http://www.w3.org/2000/svg"
 width="717.000000pt" height="611.000000pt" viewBox="0 0 717.000000 611.000000"
 preserveAspectRatio="xMidYMid meet">
<metadata>
Created by potrace 1.16, written by Peter Selinger 2001-2019
</metadata>
<g transform="translate(0.000000,611.000000) scale(0.100000,-0.100000)"
fill="#000000" stroke="none">
<path d="M1065 6034 c-567 -40 -1038 -73 -1047 -73 -17 -1 -18 -23 -18 -311
l0 -310 143 0 c190 0 400 -17 522 -41 237 -48 342 -144 393 -361 16 -68 17
-221 17 -2083 l0 -2010 -31 -55 c-74 -131 -181 -156 -732 -167 l-312 -6 0
-310 0 -310 108 7 c697 41 2407 41 3105 0 l107 -7 0 310 0 310 -312 6 c-551
11 -658 36 -732 167 l-31 55 -3 1445 c-2 999 0 1484 8 1570 77 866 648 1565
1397 1710 358 69 702 10 908 -157 161 -131 277 -359 325 -636 39 -229 41 -365
38 -2182 l-3 -1750 -31 -55 c-74 -131 -181 -156 -731 -167 l-313 -6 0 -310 0
-310 108 7 c697 41 2407 41 3105 0 l107 -7 0 310 0 310 -312 6 c-551 11 -658
36 -732 167 l-31 55 -6 1845 c-6 2016 -2 1898 -64 2175 -144 640 -540 1035
-1186 1179 -179 40 -327 56 -564 63 -434 11 -762 -57 -1130 -236 -375 -182
-693 -454 -924 -790 l-51 -75 0 552 0 552 -32 -1 c-18 -1 -496 -34 -1063 -75z"/>
</g>
</svg>
