<?xml version="1.0" standalone="no"?>
<!DOCTYPE svg PUBLIC "-//W3C//DTD SVG 20010904//EN"
 "http://www.w3.org/TR/2001/REC-SVG-20010904/DTD/svg10.dtd">
<svg version="1.0" xmlns="http://www.w3.org/2000/svg"
 width="454.000000pt" height="634.000000pt" viewBox="0 0 454.000000 634.000000"
 preserveAspectRatio="xMidYMid meet">
<metadata>
Created by potrace 1.16, written by Peter Selinger 2001-2019
</metadata>
<g transform="translate(0.000000,634.000000) scale(0.100000,-0.100000)"
fill="#000000" stroke="none">
<path d="M1925 6330 c-649 -53 -1156 -259 -1482 -604 -154 -162 -267 -351
-341 -567 -204 -595 -95 -1181 300 -1614 194 -212 387 -356 663 -491 286 -140
390 -168 1312 -348 183 -36 374 -79 425 -96 428 -144 741 -449 825 -807 25
-110 24 -324 -4 -453 -99 -460 -433 -733 -1000 -817 -178 -26 -529 -24 -683 5
-213 39 -386 107 -549 216 -393 262 -668 736 -820 1410 -17 75 -38 147 -46
160 -32 48 -69 56 -252 56 -188 0 -213 -7 -253 -72 -20 -32 -20 -53 -20 -1118
0 -1032 1 -1087 18 -1119 29 -53 72 -71 172 -71 49 1 95 6 108 13 12 7 139
124 282 260 l260 248 72 -61 c356 -301 829 -460 1368 -460 833 0 1491 264
1865 750 330 429 467 1099 334 1642 -52 215 -158 446 -287 628 -75 106 -269
312 -380 403 -205 167 -475 313 -748 403 -132 44 -240 70 -499 120 -917 180
-927 182 -1112 269 -388 182 -591 465 -570 795 30 458 351 745 939 837 164 26
592 25 733 -1 298 -54 522 -168 710 -360 229 -234 337 -508 363 -921 13 -206
25 -215 279 -215 190 0 221 9 255 71 17 32 18 81 18 924 0 843 -1 892 -18 924
-29 53 -72 71 -172 71 -102 0 -83 10 -339 -188 l-194 -150 -66 43 c-198 127
-470 225 -756 270 -120 19 -545 28 -710 15z"/>
</g>
</svg>
