<?xml version="1.0" standalone="no"?>
<!DOCTYPE svg PUBLIC "-//W3C//DTD SVG 20010904//EN"
 "http://www.w3.org/TR/2001/REC-SVG-20010904/DTD/svg10.dtd">
<svg version="1.0" xmlns="http://www.w3.org/2000/svg"
 width="983.000000pt" height="953.000000pt" viewBox="0 0 983.000000 953.000000"
 preserveAspectRatio="xMidYMid meet">
<metadata>
Created by potrace 1.16, written by Peter Selinger 2001-2019
</metadata>
<g transform="translate(0.000000,953.000000) scale(0.100000,-0.100000)"
fill="#000000" stroke="none">
<path d="M4731 9513 c-106 -38 73 312 -2429 -4733 -1261 -2544 -2296 -4639
-2299 -4657 -8 -49 4 -82 40 -103 32 -20 78 -20 4867 -20 4789 0 4835 0 4867
20 36 21 48 54 40 103 -3 18 -1038 2113 -2299 4657 -2513 5066 -2322 4696
-2433 4733 -66 23 -290 22 -354 0z m1515 -4916 l1761 -3552 -1764 -3 c-969 -1
-2556 -1 -3526 0 l-1763 3 1760 3552 c969 1954 1763 3552 1766 3552 3 1 797
-1598 1766 -3552z"/>
</g>
</svg>
