<?xml version="1.0" standalone="no"?>
<!DOCTYPE svg PUBLIC "-//W3C//DTD SVG 20010904//EN"
 "http://www.w3.org/TR/2001/REC-SVG-20010904/DTD/svg10.dtd">
<svg version="1.0" xmlns="http://www.w3.org/2000/svg"
 width="972.000000pt" height="977.000000pt" viewBox="0 0 972.000000 977.000000"
 preserveAspectRatio="xMidYMid meet">
<metadata>
Created by potrace 1.16, written by Peter Selinger 2001-2019
</metadata>
<g transform="translate(0.000000,977.000000) scale(0.100000,-0.100000)"
fill="#000000" stroke="none">
<path d="M0 9512 l0 -259 373 -6 c717 -12 882 -44 981 -190 72 -107 66 263 66
-4017 0 -4280 6 -3910 -66 -4017 -99 -146 -264 -178 -981 -190 l-373 -6 0
-260 0 -260 127 7 c818 41 3058 41 3876 0 l127 -7 0 260 0 260 -372 6 c-718
12 -883 44 -982 190 -71 105 -66 -39 -66 1989 l0 1828 873 0 c1005 0 1051 -3
1290 -81 242 -79 440 -202 633 -394 213 -212 338 -420 419 -700 58 -202 57
-182 65 -1085 6 -810 7 -839 29 -960 36 -198 82 -337 171 -515 87 -174 163
-284 290 -418 410 -433 1102 -680 1905 -681 229 0 244 1 338 26 375 103 669
387 843 817 87 213 137 461 138 683 1 124 -1 139 -20 165 -42 56 -78 68 -199
68 -92 0 -116 -3 -144 -20 -65 -38 -74 -61 -83 -207 -35 -578 -268 -991 -618
-1100 -96 -29 -287 -32 -390 -5 -298 79 -475 319 -599 815 -50 197 -86 406
-216 1239 -68 441 -133 842 -144 892 -83 379 -303 761 -602 1045 -229 218
-548 421 -857 546 -45 19 -79 37 -75 41 5 3 57 21 117 38 650 189 1281 566
1640 979 267 307 414 595 483 947 24 123 24 432 0 560 -53 280 -150 522 -307
757 -101 152 -189 258 -335 403 -428 426 -1045 755 -1730 925 -243 60 -422 91
-770 132 -73 8 -748 12 -2477 15 l-2378 4 0 -259z m4525 -272 c561 -37 974
-159 1319 -390 119 -80 262 -211 332 -303 220 -294 324 -708 324 -1298 0 -728
-166 -1197 -528 -1492 -358 -292 -832 -453 -1462 -497 -80 -5 -517 -10 -972
-10 l-828 0 0 1849 c0 1201 4 1867 10 1902 30 159 112 215 345 238 127 12
1280 13 1460 1z"/>
</g>
</svg>
