<?xml version="1.0" standalone="no"?>
<!DOCTYPE svg PUBLIC "-//W3C//DTD SVG 20010904//EN"
 "http://www.w3.org/TR/2001/REC-SVG-20010904/DTD/svg10.dtd">
<svg version="1.0" xmlns="http://www.w3.org/2000/svg"
 width="845.000000pt" height="946.000000pt" viewBox="0 0 845.000000 946.000000"
 preserveAspectRatio="xMidYMid meet">
<metadata>
Created by potrace 1.16, written by Peter Selinger 2001-2019
</metadata>
<g transform="translate(0.000000,946.000000) scale(0.100000,-0.100000)"
fill="#000000" stroke="none">
<path d="M1820 9201 l0 -261 298 0 c722 -1 1149 -36 1289 -106 64 -33 136
-107 166 -172 22 -46 22 -56 25 -608 l3 -561 -148 -17 c-1415 -165 -2623 -826
-3163 -1732 -489 -821 -351 -1759 367 -2504 282 -293 584 -513 998 -726 533
-275 1139 -453 1798 -530 l148 -17 -3 -561 c-3 -552 -3 -562 -25 -608 -30 -65
-102 -139 -166 -172 -140 -70 -567 -105 -1289 -106 l-298 0 0 -261 0 -262 153
7 c968 41 3536 41 4505 0 l152 -7 0 262 0 261 -297 0 c-723 1 -1150 36 -1290
106 -64 33 -136 107 -166 172 -22 46 -22 56 -25 610 -2 493 -1 562 12 562 36
0 344 43 474 66 1261 222 2320 855 2812 1680 536 901 316 1932 -578 2707 -504
437 -1204 775 -1959 946 -211 48 -662 121 -749 121 -13 0 -14 69 -12 563 3
553 3 563 25 609 30 65 102 139 166 172 140 70 567 105 1290 106 l297 0 0 261
0 262 -152 -7 c-476 -20 -1225 -30 -2253 -30 -1028 0 -1777 10 -2252 30 l-153
7 0 -262z m1780 -4471 c0 -2235 -1 -2340 -18 -2340 -35 0 -307 51 -406 76
-222 56 -420 130 -606 224 -686 350 -1013 884 -1080 1760 -41 551 40 1095 221
1479 242 512 754 885 1467 1065 109 28 349 73 395 75 l27 1 0 -2340z m1419
2315 c323 -57 595 -145 851 -275 686 -350 1013 -884 1080 -1760 41 -551 -40
-1095 -221 -1479 -242 -512 -755 -885 -1465 -1065 -92 -23 -370 -76 -401 -76
-11 0 -13 450 -13 2340 0 1890 2 2340 13 2340 7 0 77 -11 156 -25z"/>
</g>
</svg>
