<?xml version="1.0" standalone="no"?>
<!DOCTYPE svg PUBLIC "-//W3C//DTD SVG 20010904//EN"
 "http://www.w3.org/TR/2001/REC-SVG-20010904/DTD/svg10.dtd">
<svg version="1.0" xmlns="http://www.w3.org/2000/svg"
 width="426.000000pt" height="244.000000pt" viewBox="0 0 426.000000 244.000000"
 preserveAspectRatio="xMidYMid meet">
<metadata>
Created by potrace 1.16, written by Peter Selinger 2001-2019
</metadata>
<g transform="translate(0.000000,244.000000) scale(0.100000,-0.100000)"
fill="#000000" stroke="none">
<path d="M3 2310 c53 -1031 648 -1911 1493 -2203 698 -242 1454 -67 1998 462
450 439 718 1059 753 1741 l6 130 -206 0 -207 0 0 -50 c0 -140 -38 -363 -90
-525 -97 -301 -247 -543 -472 -760 -143 -138 -257 -220 -423 -301 -151 -74
-269 -114 -427 -146 -162 -32 -444 -32 -606 0 -158 32 -276 72 -427 146 -166
81 -280 163 -423 301 -225 217 -375 459 -472 760 -52 162 -90 385 -90 525 l0
50 -207 0 -206 0 6 -130z"/>
</g>
</svg>
