<?xml version="1.0" standalone="no"?>
<!DOCTYPE svg PUBLIC "-//W3C//DTD SVG 20010904//EN"
 "http://www.w3.org/TR/2001/REC-SVG-20010904/DTD/svg10.dtd">
<svg version="1.0" xmlns="http://www.w3.org/2000/svg"
 width="157.000000pt" height="596.000000pt" viewBox="0 0 157.000000 596.000000"
 preserveAspectRatio="xMidYMid meet">
<metadata>
Created by potrace 1.16, written by Peter Selinger 2001-2019
</metadata>
<g transform="translate(0.000000,596.000000) scale(0.100000,-0.100000)"
fill="#000000" stroke="none">
<path d="M594 5936 c-295 -78 -506 -295 -574 -591 -19 -78 -22 -114 -17 -198
6 -122 24 -195 76 -302 78 -164 194 -281 356 -361 130 -64 196 -79 345 -79
149 0 215 15 345 79 162 80 278 197 356 361 59 123 74 190 74 335 0 149 -15
215 -79 345 -80 162 -197 278 -361 356 -112 54 -182 71 -315 75 -98 4 -128 1
-206 -20z"/>
<path d="M630 1546 c-192 -44 -359 -148 -465 -287 -56 -75 -118 -199 -141
-284 -28 -105 -30 -250 -4 -360 70 -303 292 -526 596 -596 109 -25 254 -23
359 5 90 24 232 98 306 159 115 96 214 253 256 407 24 89 25 290 0 380 -25 95
-98 235 -160 311 -95 114 -252 214 -402 255 -78 21 -273 27 -345 10z"/>
</g>
</svg>
