<?xml version="1.0" standalone="no"?>
<!DOCTYPE svg PUBLIC "-//W3C//DTD SVG 20010904//EN"
 "http://www.w3.org/TR/2001/REC-SVG-20010904/DTD/svg10.dtd">
<svg version="1.0" xmlns="http://www.w3.org/2000/svg"
 width="509.000000pt" height="610.000000pt" viewBox="0 0 509.000000 610.000000"
 preserveAspectRatio="xMidYMid meet">
<metadata>
Created by potrace 1.16, written by Peter Selinger 2001-2019
</metadata>
<g transform="translate(0.000000,610.000000) scale(0.100000,-0.100000)"
fill="#000000" stroke="none">
<path d="M2620 6089 c-427 -41 -877 -202 -1247 -445 -343 -227 -671 -563 -888
-914 -427 -691 -583 -1549 -424 -2340 165 -820 660 -1542 1352 -1971 330 -205
721 -344 1127 -400 145 -21 546 -18 695 4 426 64 797 229 1117 496 297 249
535 614 673 1033 30 92 55 182 55 200 0 43 -31 93 -69 113 -47 24 -196 21
-239 -5 -38 -23 -45 -38 -106 -230 -202 -632 -658 -1076 -1237 -1203 -600
-133 -1144 31 -1581 476 -490 498 -717 1237 -695 2257 16 686 113 1164 321
1579 190 376 474 673 801 835 225 111 366 141 660 140 469 -1 901 -98 1189
-266 l89 -51 -72 -17 c-283 -67 -471 -309 -471 -610 0 -303 182 -536 474 -610
286 -72 592 61 715 311 58 117 74 204 68 354 -12 278 -123 520 -329 724 -353
347 -1010 556 -1732 550 -89 -1 -199 -5 -246 -10z"/>
</g>
</svg>
