<?xml version="1.0" standalone="no"?>
<!DOCTYPE svg PUBLIC "-//W3C//DTD SVG 20010904//EN"
 "http://www.w3.org/TR/2001/REC-SVG-20010904/DTD/svg10.dtd">
<svg version="1.0" xmlns="http://www.w3.org/2000/svg"
 width="806.000000pt" height="938.000000pt" viewBox="0 0 806.000000 938.000000"
 preserveAspectRatio="xMidYMid meet">
<metadata>
Created by potrace 1.16, written by Peter Selinger 2001-2019
</metadata>
<g transform="translate(0.000000,938.000000) scale(0.100000,-0.100000)"
fill="#000000" stroke="none">
<path d="M186 9288 c-4 -51 -29 -518 -56 -1038 -27 -520 -52 -987 -56 -1037
l-6 -93 226 0 c174 0 226 3 226 13 0 6 5 86 10 177 38 592 102 889 202 938 40
19 198 40 411 54 279 19 5485 19 5764 0 213 -14 371 -35 411 -54 100 -49 164
-346 202 -938 5 -91 10 -171 10 -177 0 -10 52 -13 226 -13 l226 0 -6 93 c-4
50 -29 517 -56 1037 -27 520 -52 987 -56 1038 l-6 92 -3833 0 -3833 0 -6 -92z"/>
<path d="M1340 4880 l0 -1240 225 0 225 0 0 355 0 355 2235 0 2235 0 0 -355 0
-355 225 0 225 0 0 1240 0 1240 -225 0 -225 0 0 -355 0 -355 -2235 0 -2235 0
0 355 0 355 -225 0 -225 0 0 -1240z"/>
<path d="M4 2313 c4 -54 29 -552 56 -1108 27 -556 52 -1054 56 -1107 l6 -98
3903 0 3903 0 6 98 c4 53 29 551 56 1107 27 556 52 1054 56 1108 l6 97 -225 0
-225 0 -7 -107 c-36 -597 -64 -835 -121 -1015 -46 -145 -83 -165 -354 -193
-288 -30 -731 -35 -3095 -35 -2364 0 -2807 5 -3095 35 -271 28 -308 48 -354
193 -57 180 -85 418 -121 1015 l-7 107 -225 0 -225 0 6 -97z"/>
</g>
</svg>
