<?xml version="1.0" standalone="no"?>
<!DOCTYPE svg PUBLIC "-//W3C//DTD SVG 20010904//EN"
 "http://www.w3.org/TR/2001/REC-SVG-20010904/DTD/svg10.dtd">
<svg version="1.0" xmlns="http://www.w3.org/2000/svg"
 width="733.000000pt" height="908.000000pt" viewBox="0 0 733.000000 908.000000"
 preserveAspectRatio="xMidYMid meet">
<metadata>
Created by potrace 1.16, written by Peter Selinger 2001-2019
</metadata>
<g transform="translate(0.000000,908.000000) scale(0.100000,-0.100000)"
fill="#000000" stroke="none">
<path d="M0 8858 l0 -225 343 -6 c619 -11 822 -45 915 -152 42 -47 77 -118 91
-183 16 -76 16 -7428 0 -7504 -14 -65 -49 -136 -91 -183 -93 -107 -296 -141
-915 -152 l-343 -6 0 -224 0 -223 3474 0 3474 0 6 43 c3 23 84 782 181 1687
96 905 177 1664 180 1688 l6 42 -185 0 -185 0 -5 -42 c-3 -24 -17 -144 -31
-268 -105 -922 -274 -1462 -583 -1867 -315 -412 -795 -678 -1412 -783 -258
-43 -300 -45 -1165 -45 -764 0 -837 1 -914 18 -166 36 -226 93 -251 238 -8 46
-10 1144 -8 3819 l3 3755 27 57 c31 67 96 140 153 174 128 74 556 114 1248
114 l267 0 0 226 0 227 -147 -7 c-907 -39 -3248 -39 -4010 0 l-123 6 0 -224z"/>
</g>
</svg>
