<?xml version="1.0" standalone="no"?>
<!DOCTYPE svg PUBLIC "-//W3C//DTD SVG 20010904//EN"
 "http://www.w3.org/TR/2001/REC-SVG-20010904/DTD/svg10.dtd">
<svg version="1.0" xmlns="http://www.w3.org/2000/svg"
 width="554.000000pt" height="916.000000pt" viewBox="0 0 554.000000 916.000000"
 preserveAspectRatio="xMidYMid meet">
<metadata>
Created by potrace 1.16, written by Peter Selinger 2001-2019
</metadata>
<g transform="translate(0.000000,916.000000) scale(0.100000,-0.100000)"
fill="#000000" stroke="none">
<path d="M3300 9153 c-751 -72 -1416 -405 -1986 -996 -533 -551 -935 -1306
-1143 -2149 -115 -464 -158 -808 -168 -1343 -21 -1197 136 -2202 464 -2955
225 -518 482 -879 830 -1167 265 -218 589 -387 899 -468 404 -105 886 -98
1314 19 408 112 742 317 1100 676 651 651 920 1308 920 2245 0 945 -270 1605
-924 2261 -479 479 -956 689 -1616 711 -333 11 -561 -37 -830 -173 -360 -182
-666 -524 -872 -974 l-48 -105 0 175 c0 556 44 1139 116 1535 141 781 453
1399 921 1827 446 409 968 571 1548 483 313 -48 536 -153 725 -344 l105 -106
-100 -6 c-125 -8 -178 -21 -282 -70 -368 -175 -449 -717 -151 -1011 296 -292
827 -211 1007 153 60 122 74 202 67 379 -8 214 -55 414 -137 587 -251 527
-829 829 -1573 821 -83 0 -167 -3 -186 -5z m-160 -3532 c173 -35 325 -102 462
-202 84 -63 226 -212 301 -316 254 -356 346 -704 378 -1435 13 -295 6 -1328
-11 -1513 -54 -616 -168 -942 -445 -1274 -254 -306 -553 -448 -980 -468 -369
-16 -677 108 -955 387 -238 238 -393 521 -475 863 -80 337 -138 878 -152 1422
-28 1127 337 2045 955 2403 130 76 288 129 448 151 103 15 362 5 474 -18z"/>
</g>
</svg>
