<?xml version="1.0" standalone="no"?>
<!DOCTYPE svg PUBLIC "-//W3C//DTD SVG 20010904//EN"
 "http://www.w3.org/TR/2001/REC-SVG-20010904/DTD/svg10.dtd">
<svg version="1.0" xmlns="http://www.w3.org/2000/svg"
 width="942.000000pt" height="946.000000pt" viewBox="0 0 942.000000 946.000000"
 preserveAspectRatio="xMidYMid meet">
<metadata>
Created by potrace 1.16, written by Peter Selinger 2001-2019
</metadata>
<g transform="translate(0.000000,946.000000) scale(0.100000,-0.100000)"
fill="#000000" stroke="none">
<path d="M0 9152 l0 -309 403 -6 c545 -8 760 -27 862 -77 50 -24 108 -78 132
-123 17 -30 18 -234 18 -3907 0 -3673 -1 -3877 -18 -3907 -24 -45 -82 -99
-132 -123 -102 -50 -317 -69 -862 -77 l-403 -6 0 -309 0 -308 2748 3 c2994 3
2784 -1 3112 57 1269 225 2390 1088 3014 2320 353 696 536 1470 536 2263 0
2056 -1139 3876 -2848 4551 -299 118 -566 187 -917 238 l-150 22 -2747 3
-2748 3 0 -308z m5180 -336 c372 -55 643 -138 955 -291 545 -268 965 -683
1240 -1225 202 -399 318 -803 389 -1350 77 -594 87 -1720 20 -2375 -80 -787
-290 -1387 -653 -1863 -395 -519 -1001 -886 -1691 -1025 -306 -62 -307 -62
-1350 -62 -960 0 -1013 2 -1133 35 -50 15 -101 61 -123 113 -18 41 -19 169
-22 3927 -1 2732 1 3900 8 3937 20 96 74 150 174 172 115 26 248 29 1151 27
808 -2 934 -5 1035 -20z"/>
</g>
</svg>
