<?xml version="1.0" standalone="no"?>
<!DOCTYPE svg PUBLIC "-//W3C//DTD SVG 20010904//EN"
 "http://www.w3.org/TR/2001/REC-SVG-20010904/DTD/svg10.dtd">
<svg version="1.0" xmlns="http://www.w3.org/2000/svg"
 width="584.000000pt" height="954.000000pt" viewBox="0 0 584.000000 954.000000"
 preserveAspectRatio="xMidYMid meet">
<metadata>
Created by potrace 1.16, written by Peter Selinger 2001-2019
</metadata>
<g transform="translate(0.000000,954.000000) scale(0.100000,-0.100000)"
fill="#000000" stroke="none">
<path d="M2635 9525 c-801 -88 -1507 -538 -1912 -1219 -399 -671 -618 -1472
-693 -2536 -42 -596 -39 -1544 6 -2120 69 -893 238 -1572 539 -2165 196 -387
398 -653 664 -877 380 -318 802 -505 1321 -585 162 -25 548 -25 710 0 519 80
941 267 1321 585 266 224 468 490 664 877 301 593 470 1272 539 2165 45 576
48 1524 6 2120 -75 1064 -294 1865 -693 2536 -505 849 -1477 1328 -2472 1219z
m560 -424 c516 -112 940 -496 1138 -1031 119 -320 189 -833 229 -1675 18 -369
18 -2614 0 -3020 -35 -818 -87 -1289 -183 -1669 -130 -518 -450 -943 -864
-1150 -844 -422 -1802 112 -2064 1150 -96 380 -148 851 -183 1669 -18 406 -18
2651 0 3020 40 842 110 1355 229 1675 213 574 684 971 1244 1050 100 14 350 4
454 -19z"/>
</g>
</svg>
