<?xml version="1.0" standalone="no"?>
<!DOCTYPE svg PUBLIC "-//W3C//DTD SVG 20010904//EN"
 "http://www.w3.org/TR/2001/REC-SVG-20010904/DTD/svg10.dtd">
<svg version="1.0" xmlns="http://www.w3.org/2000/svg"
 width="467.000000pt" height="923.000000pt" viewBox="0 0 467.000000 923.000000"
 preserveAspectRatio="xMidYMid meet">
<metadata>
Created by potrace 1.16, written by Peter Selinger 2001-2019
</metadata>
<g transform="translate(0.000000,923.000000) scale(0.100000,-0.100000)"
fill="#000000" stroke="none">
<path d="M2554 9199 c-69 -74 -259 -228 -382 -310 -402 -267 -894 -436 -1481
-509 -191 -24 -424 -40 -577 -40 l-114 0 0 -260 0 -260 114 0 c333 0 776 55
1101 136 138 35 358 108 482 160 l103 43 -2 -3657 -3 -3657 -24 -52 c-26 -59
-106 -140 -169 -172 -23 -12 -71 -28 -107 -36 -165 -39 -624 -65 -1137 -65
l-288 0 0 -261 0 -262 142 7 c907 41 3399 41 4306 0 l142 -7 0 262 0 261 -287
0 c-514 0 -973 26 -1138 65 -36 8 -84 24 -107 36 -63 32 -143 113 -169 172
l-24 52 -5 4140 c-5 4053 -5 4141 -24 4172 -35 58 -79 73 -208 73 l-114 0 -30
-31z"/>
</g>
</svg>
