<?xml version="1.0" standalone="no"?>
<!DOCTYPE svg PUBLIC "-//W3C//DTD SVG 20010904//EN"
 "http://www.w3.org/TR/2001/REC-SVG-20010904/DTD/svg10.dtd">
<svg version="1.0" xmlns="http://www.w3.org/2000/svg"
 width="922.000000pt" height="922.000000pt" viewBox="0 0 922.000000 922.000000"
 preserveAspectRatio="xMidYMid meet">
<metadata>
Created by potrace 1.16, written by Peter Selinger 2001-2019
</metadata>
<g transform="translate(0.000000,922.000000) scale(0.100000,-0.100000)"
fill="#000000" stroke="none">
<path d="M4510 9203 c-27 -10 -65 -37 -96 -68 -92 -92 -84 115 -84 -2202 l0
-2043 -2048 0 c-2323 0 -2105 8 -2199 -85 -111 -112 -111 -278 0 -390 94 -93
-124 -85 2199 -85 l2048 0 0 -2043 c0 -2316 -8 -2111 83 -2202 116 -115 278
-115 394 0 91 91 83 -114 83 2202 l0 2043 2043 0 c2317 0 2100 -8 2194 85 111
112 111 278 0 390 -94 93 123 85 -2194 85 l-2043 0 0 2043 c0 2316 8 2111 -83
2202 -81 81 -189 106 -297 68z"/>
</g>
</svg>
