<?xml version="1.0" standalone="no"?>
<!DOCTYPE svg PUBLIC "-//W3C//DTD SVG 20010904//EN"
 "http://www.w3.org/TR/2001/REC-SVG-20010904/DTD/svg10.dtd">
<svg version="1.0" xmlns="http://www.w3.org/2000/svg"
 width="436.000000pt" height="610.000000pt" viewBox="0 0 436.000000 610.000000"
 preserveAspectRatio="xMidYMid meet">
<metadata>
Created by potrace 1.16, written by Peter Selinger 2001-2019
</metadata>
<g transform="translate(0.000000,610.000000) scale(0.100000,-0.100000)"
fill="#000000" stroke="none">
<path d="M1835 6089 c-920 -70 -1536 -470 -1754 -1137 -56 -171 -75 -296 -76
-497 0 -200 9 -262 61 -426 67 -208 177 -389 344 -562 208 -216 458 -379 774
-502 181 -71 333 -108 886 -215 561 -110 588 -116 717 -161 365 -129 677 -404
800 -705 54 -134 67 -208 67 -384 -1 -117 -6 -178 -21 -251 -60 -278 -211
-506 -432 -654 -243 -162 -517 -236 -926 -252 -751 -28 -1265 286 -1605 982
-121 246 -206 501 -274 818 -38 174 -45 190 -89 217 -44 27 -186 28 -237 2
-75 -37 -70 42 -70 -1177 0 -1063 1 -1091 20 -1122 10 -18 33 -39 49 -48 41
-21 138 -20 178 3 23 12 346 356 509 541 2 2 33 -23 68 -57 279 -260 632 -425
1036 -483 139 -20 587 -17 755 5 551 72 965 259 1266 574 316 328 486 819 466
1337 -7 169 -30 295 -83 455 -191 578 -702 1040 -1377 1244 -67 21 -365 84
-685 147 -403 79 -600 122 -685 150 -393 129 -679 360 -782 632 -79 212 -47
495 82 709 181 303 545 475 1096 519 186 15 440 6 591 -20 582 -102 987 -503
1105 -1096 22 -113 41 -287 41 -382 0 -124 44 -163 185 -163 72 0 97 4 122 20
66 40 63 -13 63 967 0 863 -1 889 -20 920 -10 18 -33 39 -49 48 -33 17 -126
20 -164 6 -14 -5 -114 -88 -222 -184 l-198 -174 -74 53 c-95 68 -288 163 -425
208 -128 42 -313 81 -457 96 -118 12 -414 11 -576 -1z"/>
</g>
</svg>
