<?xml version="1.0" standalone="no"?>
<!DOCTYPE svg PUBLIC "-//W3C//DTD SVG 20010904//EN"
 "http://www.w3.org/TR/2001/REC-SVG-20010904/DTD/svg10.dtd">
<svg version="1.0" xmlns="http://www.w3.org/2000/svg"
 width="454.000000pt" height="634.000000pt" viewBox="0 0 454.000000 634.000000"
 preserveAspectRatio="xMidYMid meet">
<metadata>
Created by potrace 1.16, written by Peter Selinger 2001-2019
</metadata>
<g transform="translate(0.000000,634.000000) scale(0.100000,-0.100000)"
fill="#000000" stroke="none">
<path d="M1985 6333 c-735 -45 -1311 -291 -1636 -699 -179 -225 -306 -543
-339 -852 -15 -137 -8 -346 15 -457 105 -507 467 -932 1020 -1200 283 -137
427 -177 1140 -315 361 -69 557 -112 642 -139 232 -75 438 -197 599 -356 257
-254 356 -537 313 -890 -47 -387 -247 -673 -588 -844 -367 -185 -1034 -225
-1448 -86 -615 206 -1020 768 -1228 1706 -20 88 -42 171 -51 184 -28 43 -72
55 -201 55 -133 0 -166 -12 -203 -72 -20 -32 -20 -53 -20 -1148 0 -1061 1
-1117 18 -1149 27 -50 73 -71 155 -71 39 0 80 6 95 14 15 8 142 134 282 280
140 146 256 266 258 266 2 0 36 -30 76 -66 248 -224 580 -386 929 -453 175
-34 335 -44 567 -38 471 13 832 93 1161 258 481 240 782 614 920 1143 52 203
63 291 63 536 0 207 -2 235 -27 351 -125 587 -514 1064 -1107 1359 -272 135
-389 168 -1095 306 -297 57 -580 116 -628 130 -446 126 -776 400 -863 715 -27
95 -24 307 5 414 112 414 463 660 1051 735 140 18 454 24 581 11 387 -40 670
-168 898 -407 223 -233 343 -517 380 -898 6 -60 11 -137 11 -170 0 -75 23
-122 71 -148 27 -15 57 -18 154 -18 138 0 176 13 207 71 17 32 18 81 18 939 0
858 -1 907 -18 939 -27 50 -73 71 -155 71 -38 0 -78 -5 -90 -11 -12 -7 -113
-88 -224 -180 -111 -93 -204 -169 -206 -169 -2 0 -35 21 -73 46 -230 155 -578
271 -908 303 -99 10 -393 12 -521 4z"/>
</g>
</svg>
