<?xml version="1.0" standalone="no"?>
<!DOCTYPE svg PUBLIC "-//W3C//DTD SVG 20010904//EN"
 "http://www.w3.org/TR/2001/REC-SVG-20010904/DTD/svg10.dtd">
<svg version="1.0" xmlns="http://www.w3.org/2000/svg"
 width="766.000000pt" height="942.000000pt" viewBox="0 0 766.000000 942.000000"
 preserveAspectRatio="xMidYMid meet">
<metadata>
Created by potrace 1.16, written by Peter Selinger 2001-2019
</metadata>
<g transform="translate(0.000000,942.000000) scale(0.100000,-0.100000)"
fill="#000000" stroke="none">
<path d="M0 9162 l0 -259 373 -6 c717 -12 882 -44 981 -190 72 -107 66 261 66
-3997 0 -4258 6 -3890 -66 -3997 -99 -146 -264 -178 -981 -190 l-373 -6 0
-260 0 -260 127 7 c827 41 3272 41 4251 0 l152 -7 0 262 0 261 -297 0 c-723 1
-1150 36 -1290 106 -64 33 -136 107 -166 172 l-22 47 0 3905 c0 3789 1 3907
19 3959 35 102 102 145 266 173 108 19 1955 18 2155 0 543 -49 893 -161 1187
-379 395 -292 609 -791 748 -1747 16 -111 70 -528 70 -543 0 -2 102 -3 226 -3
l226 0 -6 38 c-3 20 -87 726 -186 1567 -99 842 -183 1547 -186 1568 l-6 37
-3634 0 -3634 0 0 -258z"/>
</g>
</svg>
