<?xml version="1.0" standalone="no"?>
<!DOCTYPE svg PUBLIC "-//W3C//DTD SVG 20010904//EN"
 "http://www.w3.org/TR/2001/REC-SVG-20010904/DTD/svg10.dtd">
<svg version="1.0" xmlns="http://www.w3.org/2000/svg"
 width="615.000000pt" height="1008.000000pt" viewBox="0 0 615.000000 1008.000000"
 preserveAspectRatio="xMidYMid meet">
<metadata>
Created by potrace 1.16, written by Peter Selinger 2001-2019
</metadata>
<g transform="translate(0.000000,1008.000000) scale(0.100000,-0.100000)"
fill="#000000" stroke="none">
<path d="M2485 10074 c-16 -2 -73 -9 -125 -15 -456 -51 -964 -269 -1345 -576
-121 -98 -337 -317 -427 -433 -308 -399 -494 -847 -570 -1375 -20 -138 -17
-560 6 -710 75 -513 277 -982 592 -1375 88 -110 296 -317 404 -403 234 -187
542 -356 811 -445 92 -30 526 -142 1074 -277 506 -125 960 -240 1008 -256 614
-204 1054 -811 1126 -1553 99 -1014 -539 -1918 -1429 -2026 -217 -26 -619 2
-942 65 -976 193 -1670 765 -1961 1615 -90 264 -141 552 -154 878 -10 255 -18
262 -278 262 -190 0 -215 -7 -255 -72 -20 -33 -20 -54 -20 -1653 0 -1550 1
-1622 18 -1654 29 -53 72 -71 172 -71 66 0 92 4 116 19 20 12 135 168 330 448
l299 430 70 -64 c451 -415 1132 -707 1855 -797 408 -51 770 -48 1055 9 684
137 1282 537 1687 1130 239 349 393 717 478 1145 46 232 55 332 54 620 0 348
-31 577 -119 880 -269 923 -923 1633 -1766 1914 -58 20 -526 139 -1040 266
-514 127 -970 242 -1014 256 -549 181 -969 677 -1077 1274 -25 137 -30 439
-10 560 64 385 219 691 481 950 331 327 728 477 1210 456 518 -22 937 -155
1294 -410 357 -255 636 -622 827 -1086 135 -329 217 -660 273 -1101 16 -125
30 -194 41 -211 33 -50 68 -58 253 -58 190 0 221 9 255 71 17 32 18 104 18
1654 0 1550 -1 1622 -18 1654 -29 53 -72 71 -172 71 -65 0 -92 -4 -116 -19
-20 -12 -132 -164 -318 -432 -159 -228 -292 -418 -297 -423 -5 -5 -61 42 -133
111 -210 204 -410 342 -681 474 -285 138 -568 221 -909 265 -114 14 -564 28
-631 18z"/>
</g>
</svg>
