<?xml version="1.0" standalone="no"?>
<!DOCTYPE svg PUBLIC "-//W3C//DTD SVG 20010904//EN"
 "http://www.w3.org/TR/2001/REC-SVG-20010904/DTD/svg10.dtd">
<svg version="1.0" xmlns="http://www.w3.org/2000/svg"
 width="264.000000pt" height="269.000000pt" viewBox="0 0 264.000000 269.000000"
 preserveAspectRatio="xMidYMid meet">
<metadata>
Created by potrace 1.16, written by Peter Selinger 2001-2019
</metadata>
<g transform="translate(0.000000,269.000000) scale(0.100000,-0.100000)"
fill="#000000" stroke="none">
<path d="M530 2683 c-14 -2 -47 -11 -75 -20 -204 -65 -358 -220 -431 -433 -27
-81 -25 -224 5 -310 28 -81 86 -171 148 -231 26 -26 491 -410 1033 -854 542
-444 993 -814 1002 -823 20 -17 20 -17 279 234 l136 132 -783 1039 c-431 571
-814 1068 -850 1105 -124 127 -301 188 -464 161z"/>
</g>
</svg>
