<?xml version="1.0" standalone="no"?>
<!DOCTYPE svg PUBLIC "-//W3C//DTD SVG 20010904//EN"
 "http://www.w3.org/TR/2001/REC-SVG-20010904/DTD/svg10.dtd">
<svg version="1.0" xmlns="http://www.w3.org/2000/svg"
 width="608.000000pt" height="977.000000pt" viewBox="0 0 608.000000 977.000000"
 preserveAspectRatio="xMidYMid meet">
<metadata>
Created by potrace 1.16, written by Peter Selinger 2001-2019
</metadata>
<g transform="translate(0.000000,977.000000) scale(0.100000,-0.100000)"
fill="#000000" stroke="none">
<path d="M1760 9463 l0 -310 533 -6 c930 -11 1115 -34 1247 -153 78 -70 71
277 67 -3534 l-3 -3415 -21 -125 c-76 -444 -240 -787 -503 -1051 -263 -265
-523 -372 -865 -356 -400 20 -773 148 -1060 366 -122 92 -173 139 -155 144 8
2 55 14 104 25 299 73 526 295 608 597 31 117 31 365 0 480 -85 309 -299 520
-611 602 -137 37 -325 37 -462 0 -312 -82 -525 -292 -611 -602 -19 -69 -22
-105 -22 -260 0 -156 4 -197 27 -306 15 -69 41 -166 58 -215 71 -204 216 -440
379 -617 256 -278 700 -529 1130 -637 278 -70 517 -96 810 -87 661 21 1259
235 1747 625 376 300 658 721 772 1154 71 267 64 -92 71 3713 l5 3430 31 55
c74 131 180 156 727 167 l307 6 0 310 0 310 -107 -7 c-704 -41 -3035 -41
-4045 0 l-158 7 0 -310z"/>
</g>
</svg>
