<?xml version="1.0" standalone="no"?>
<!DOCTYPE svg PUBLIC "-//W3C//DTD SVG 20010904//EN"
 "http://www.w3.org/TR/2001/REC-SVG-20010904/DTD/svg10.dtd">
<svg version="1.0" xmlns="http://www.w3.org/2000/svg"
 width="447.000000pt" height="425.000000pt" viewBox="0 0 447.000000 425.000000"
 preserveAspectRatio="xMidYMid meet">
<metadata>
Created by potrace 1.16, written by Peter Selinger 2001-2019
</metadata>
<g transform="translate(0.000000,425.000000) scale(0.100000,-0.100000)"
fill="#000000" stroke="none">
<path d="M650 4243 c-385 -65 -650 -380 -650 -773 0 -357 220 -655 556 -752
66 -19 103 -23 224 -23 121 0 158 4 224 23 103 30 223 93 288 151 l51 46 -6
-215 c-18 -665 -195 -1223 -558 -1766 -108 -161 -221 -297 -395 -474 -214
-218 -217 -235 -76 -373 138 -134 154 -129 377 96 312 315 505 587 699 988
258 531 381 1101 363 1674 -25 768 -329 1290 -810 1389 -70 15 -225 19 -287 9z"/>
<path d="M3360 4243 c-385 -65 -650 -380 -650 -773 0 -357 220 -655 556 -752
66 -19 103 -23 224 -23 121 0 158 4 224 23 103 30 223 93 288 151 l51 46 -6
-215 c-18 -665 -195 -1223 -558 -1766 -108 -161 -221 -297 -395 -474 -214
-218 -217 -235 -76 -373 138 -134 154 -129 377 96 312 315 505 587 699 988
258 531 381 1101 363 1674 -25 768 -329 1290 -810 1389 -70 15 -225 19 -287 9z"/>
</g>
</svg>
