<?xml version="1.0" standalone="no"?>
<!DOCTYPE svg PUBLIC "-//W3C//DTD SVG 20010904//EN"
 "http://www.w3.org/TR/2001/REC-SVG-20010904/DTD/svg10.dtd">
<svg version="1.0" xmlns="http://www.w3.org/2000/svg"
 width="806.000000pt" height="938.000000pt" viewBox="0 0 806.000000 938.000000"
 preserveAspectRatio="xMidYMid meet">
<metadata>
Created by potrace 1.16, written by Peter Selinger 2001-2019
</metadata>
<g transform="translate(0.000000,938.000000) scale(0.100000,-0.100000)"
fill="#000000" stroke="none">
<path d="M190 9378 c0 -2 -27 -527 -60 -1168 -33 -641 -60 -1166 -60 -1167 0
-2 123 -3 274 -3 l274 0 6 103 c39 608 76 841 152 974 37 65 103 80 449 105
262 19 5338 19 5600 0 346 -25 412 -40 449 -105 76 -133 113 -366 152 -974 l6
-103 274 0 c151 0 274 1 274 3 0 1 -27 526 -60 1167 -33 641 -60 1166 -60
1168 0 1 -1726 2 -3835 2 -2109 0 -3835 -1 -3835 -2z"/>
<path d="M1340 4880 l0 -1280 275 0 275 0 0 355 0 355 2135 0 2135 0 0 -355 0
-355 275 0 275 0 0 1280 0 1280 -275 0 -275 0 0 -355 0 -355 -2135 0 -2135 0
0 355 0 355 -275 0 -275 0 0 -1280z"/>
<path d="M4 2388 c4 -57 29 -571 56 -1143 27 -572 52 -1086 56 -1142 l6 -103
3903 0 3903 0 6 103 c4 56 29 570 56 1142 27 572 52 1086 56 1143 l6 102 -275
0 -275 0 -7 -107 c-29 -484 -44 -654 -75 -829 -38 -217 -76 -305 -144 -335
-55 -24 -210 -45 -441 -61 -276 -19 -5344 -19 -5620 0 -231 16 -386 37 -441
61 -68 30 -106 118 -144 335 -31 175 -46 345 -75 829 l-7 107 -275 0 -275 0 6
-102z"/>
</g>
</svg>
