<?xml version="1.0" standalone="no"?>
<!DOCTYPE svg PUBLIC "-//W3C//DTD SVG 20010904//EN"
 "http://www.w3.org/TR/2001/REC-SVG-20010904/DTD/svg10.dtd">
<svg version="1.0" xmlns="http://www.w3.org/2000/svg"
 width="678.000000pt" height="961.000000pt" viewBox="0 0 678.000000 961.000000"
 preserveAspectRatio="xMidYMid meet">
<metadata>
Created by potrace 1.16, written by Peter Selinger 2001-2019
</metadata>
<g transform="translate(0.000000,961.000000) scale(0.100000,-0.100000)"
fill="#000000" stroke="none">
<path d="M1075 9534 c-577 -40 -1056 -73 -1062 -74 -10 0 -13 -69 -13 -310 l0
-310 138 0 c186 0 396 -17 517 -41 237 -48 342 -144 393 -361 16 -68 17 -319
17 -3833 l0 -3760 -31 -55 c-74 -131 -181 -156 -727 -167 l-307 -6 0 -310 0
-309 93 6 c602 40 2432 40 3035 0 l92 -6 0 309 0 310 -307 6 c-546 11 -653 36
-727 167 l-31 55 -3 796 -2 797 362 325 c314 282 364 323 374 309 6 -9 294
-426 640 -927 345 -500 650 -945 676 -988 60 -99 91 -192 90 -271 0 -164 -108
-248 -339 -263 l-93 -6 0 -310 0 -309 103 6 c672 41 2248 41 2735 0 l72 -6 0
309 0 310 -212 6 c-506 16 -707 91 -942 356 -93 105 -126 153 -1061 1505 -616
893 -895 1304 -889 1313 16 23 968 874 1069 956 447 360 974 554 1584 583
l141 7 0 310 0 309 -52 -6 c-29 -3 -145 -11 -258 -18 -369 -23 -1886 -11
-2392 18 l-108 7 0 -310 0 -310 55 -7 c129 -15 234 -83 275 -178 19 -44 22
-65 18 -137 -5 -104 -39 -181 -121 -277 -28 -34 -419 -391 -867 -793 l-815
-732 -3 3195 -2 3196 -33 -1 c-17 -1 -504 -34 -1082 -75z"/>
</g>
</svg>
