<?xml version="1.0" standalone="no"?>
<!DOCTYPE svg PUBLIC "-//W3C//DTD SVG 20010904//EN"
 "http://www.w3.org/TR/2001/REC-SVG-20010904/DTD/svg10.dtd">
<svg version="1.0" xmlns="http://www.w3.org/2000/svg"
 width="672.000000pt" height="922.000000pt" viewBox="0 0 672.000000 922.000000"
 preserveAspectRatio="xMidYMid meet">
<metadata>
Created by potrace 1.16, written by Peter Selinger 2001-2019
</metadata>
<g transform="translate(0.000000,922.000000) scale(0.100000,-0.100000)"
fill="#000000" stroke="none">
<path d="M955 9144 c-512 -40 -936 -73 -942 -73 -10 -1 -13 -53 -13 -224 l0
-224 218 -6 c562 -15 719 -90 790 -375 15 -62 17 -362 20 -3737 2 -2643 0
-3688 -8 -3735 -22 -128 -77 -208 -171 -249 -96 -43 -365 -71 -681 -71 l-168
0 0 -226 0 -226 98 6 c617 39 2207 39 2825 0 l97 -6 0 226 0 226 -167 0 c-317
0 -586 28 -682 71 -94 41 -149 121 -171 249 -8 47 -10 482 -7 1525 3 1622 -1
1515 72 1801 155 606 572 1106 1100 1319 242 97 534 136 765 100 447 -68 681
-362 767 -960 15 -109 17 -289 20 -1920 3 -1295 1 -1818 -7 -1865 -22 -128
-77 -208 -171 -249 -96 -43 -365 -71 -681 -71 l-168 0 0 -226 0 -226 98 6
c617 39 2207 39 2825 0 l97 -6 0 226 0 226 -167 0 c-317 0 -586 28 -682 71
-79 35 -129 94 -162 194 -11 32 -15 379 -19 1840 -7 1880 -6 1834 -51 2065
-46 233 -143 469 -260 633 -73 103 -226 253 -326 320 -153 101 -309 169 -517
222 -211 54 -353 69 -651 69 -288 1 -355 -7 -580 -69 -536 -148 -1024 -547
-1297 -1060 l-48 -90 0 2288 0 2287 -32 -1 c-18 -1 -451 -34 -963 -75z"/>
</g>
</svg>
