<?xml version="1.0" standalone="no"?>
<!DOCTYPE svg PUBLIC "-//W3C//DTD SVG 20010904//EN"
 "http://www.w3.org/TR/2001/REC-SVG-20010904/DTD/svg10.dtd">
<svg version="1.0" xmlns="http://www.w3.org/2000/svg"
 width="873.000000pt" height="992.000000pt" viewBox="0 0 873.000000 992.000000"
 preserveAspectRatio="xMidYMid meet">
<metadata>
Created by potrace 1.16, written by Peter Selinger 2001-2019
</metadata>
<g transform="translate(0.000000,992.000000) scale(0.100000,-0.100000)"
fill="#000000" stroke="none">
<path d="M4099 9893 c-35 -18 -63 -42 -81 -68 -19 -28 -408 -1265 -1353 -4295
-1036 -3324 -1336 -4275 -1371 -4345 -173 -352 -547 -536 -1145 -562 l-149 -6
0 -310 0 -309 83 6 c540 41 2164 41 2860 0 l107 -7 0 310 0 310 -118 7 c-347
19 -625 116 -797 277 -113 106 -169 243 -147 357 6 31 445 1450 976 3152 532
1702 968 3099 969 3103 4 14 2067 -6606 2067 -6633 0 -156 -404 -259 -1017
-260 l-163 0 0 -311 0 -312 133 7 c850 41 2964 41 3660 0 l107 -7 0 310 0 310
-327 6 c-429 9 -619 29 -710 76 -67 34 -131 98 -162 164 -17 34 -652 2056
-1411 4492 -986 3160 -1389 4441 -1408 4470 -18 26 -46 50 -81 68 -54 27 -56
27 -261 27 -205 0 -207 0 -261 -27z"/>
</g>
</svg>
