<?xml version="1.0" standalone="no"?>
<!DOCTYPE svg PUBLIC "-//W3C//DTD SVG 20010904//EN"
 "http://www.w3.org/TR/2001/REC-SVG-20010904/DTD/svg10.dtd">
<svg version="1.0" xmlns="http://www.w3.org/2000/svg"
 width="470.000000pt" height="611.000000pt" viewBox="0 0 470.000000 611.000000"
 preserveAspectRatio="xMidYMid meet">
<metadata>
Created by potrace 1.16, written by Peter Selinger 2001-2019
</metadata>
<g transform="translate(0.000000,611.000000) scale(0.100000,-0.100000)"
fill="#000000" stroke="none">
<path d="M985 6034 c-528 -40 -966 -73 -972 -73 -10 -1 -13 -60 -13 -261 l0
-260 138 0 c186 0 396 -17 517 -41 237 -48 342 -144 393 -361 16 -68 17 -225
17 -2153 l0 -2080 -24 -59 c-33 -84 -92 -139 -173 -164 -126 -39 -374 -61
-690 -62 l-178 0 0 -261 0 -261 93 6 c603 41 2532 41 3230 0 l107 -7 0 260 0
260 -347 6 c-470 9 -692 30 -804 78 -60 26 -122 92 -157 167 l-27 57 0 1335
c0 1038 3 1366 13 1475 104 1080 509 1809 1117 2009 88 29 250 56 333 56 l54
0 -52 -57 c-98 -109 -160 -282 -160 -440 1 -369 276 -643 645 -643 428 0 718
367 629 798 -73 354 -354 610 -794 720 -96 24 -122 26 -300 26 -163 0 -211 -4
-293 -22 -317 -70 -541 -194 -777 -432 -189 -189 -332 -401 -447 -663 l-48
-107 -3 615 -2 615 -33 -1 c-17 -1 -464 -34 -992 -75z"/>
</g>
</svg>
