<?xml version="1.0" standalone="no"?>
<!DOCTYPE svg PUBLIC "-//W3C//DTD SVG 20010904//EN"
 "http://www.w3.org/TR/2001/REC-SVG-20010904/DTD/svg10.dtd">
<svg version="1.0" xmlns="http://www.w3.org/2000/svg"
 width="811.000000pt" height="968.000000pt" viewBox="0 0 811.000000 968.000000"
 preserveAspectRatio="xMidYMid meet">
<metadata>
Created by potrace 1.16, written by Peter Selinger 2001-2019
</metadata>
<g transform="translate(0.000000,968.000000) scale(0.100000,-0.100000)"
fill="#000000" stroke="none">
<path d="M4390 9673 c-268 -18 -542 -59 -780 -116 -828 -201 -1574 -621 -2185
-1232 -789 -789 -1275 -1824 -1402 -2985 -25 -233 -25 -767 0 -1000 127 -1161
613 -2196 1402 -2985 751 -752 1694 -1208 2753 -1332 212 -24 707 -24 887 1
949 131 1752 601 2319 1356 438 583 685 1279 713 2010 7 186 0 214 -60 250
-46 29 -198 29 -244 0 -51 -31 -60 -60 -67 -225 -24 -572 -178 -1091 -460
-1555 -231 -380 -538 -700 -901 -942 -367 -245 -773 -395 -1215 -450 -152 -19
-542 -16 -705 6 -736 96 -1379 410 -1896 926 -708 707 -1060 1647 -1129 3020
-45 885 51 1770 262 2420 302 930 893 1642 1705 2049 456 229 911 336 1423
336 242 -1 362 -14 560 -61 348 -83 728 -279 1015 -526 680 -585 1137 -1524
1256 -2583 21 -188 40 -205 234 -205 111 0 135 3 162 20 68 41 63 -111 63
1895 0 2006 5 1854 -63 1895 -42 26 -139 27 -184 3 -24 -13 -135 -164 -414
-563 -210 -300 -383 -547 -385 -549 -2 -2 -74 68 -161 156 -568 572 -1235 895
-1988 963 -100 9 -403 11 -515 3z"/>
</g>
</svg>
