<?xml version="1.0" standalone="no"?>
<!DOCTYPE svg PUBLIC "-//W3C//DTD SVG 20010904//EN"
 "http://www.w3.org/TR/2001/REC-SVG-20010904/DTD/svg10.dtd">
<svg version="1.0" xmlns="http://www.w3.org/2000/svg"
 width="1025.000000pt" height="992.000000pt" viewBox="0 0 1025.000000 992.000000"
 preserveAspectRatio="xMidYMid meet">
<metadata>
Created by potrace 1.16, written by Peter Selinger 2001-2019
</metadata>
<g transform="translate(0.000000,992.000000) scale(0.100000,-0.100000)"
fill="#000000" stroke="none">
<path d="M4919 9907 c-56 -21 -104 -54 -131 -90 -37 -48 -4788 -9684 -4788
-9710 0 -32 36 -86 66 -97 35 -14 10073 -14 10108 0 30 11 66 65 66 97 0 28
-4753 9666 -4791 9714 -15 19 -51 48 -81 65 -53 29 -54 29 -233 31 -131 2
-190 -1 -216 -10z m1542 -5122 c979 -1986 1783 -3616 1786 -3622 4 -10 -715
-13 -3577 -13 -3407 0 -3582 1 -3576 18 27 70 3572 7240 3578 7234 4 -4 809
-1632 1789 -3617z"/>
</g>
</svg>
