<?xml version="1.0" standalone="no"?>
<!DOCTYPE svg PUBLIC "-//W3C//DTD SVG 20010904//EN"
 "http://www.w3.org/TR/2001/REC-SVG-20010904/DTD/svg10.dtd">
<svg version="1.0" xmlns="http://www.w3.org/2000/svg"
 width="909.000000pt" height="587.000000pt" viewBox="0 0 909.000000 587.000000"
 preserveAspectRatio="xMidYMid meet">
<metadata>
Created by potrace 1.16, written by Peter Selinger 2001-2019
</metadata>
<g transform="translate(0.000000,587.000000) scale(0.100000,-0.100000)"
fill="#000000" stroke="none">
<path d="M0 5646 l0 -226 129 0 c266 0 496 -31 593 -81 67 -34 142 -119 187
-211 23 -46 435 -1192 916 -2547 559 -1576 884 -2476 900 -2496 41 -54 115
-85 204 -85 107 0 148 14 202 69 l45 46 679 1913 c373 1051 681 1912 685 1912
4 0 312 -861 685 -1912 l679 -1913 45 -46 c54 -55 95 -69 202 -69 88 0 163 31
204 84 15 20 116 289 254 677 126 354 491 1382 811 2284 354 996 602 1680 632
1743 187 386 502 598 931 628 l97 7 0 224 0 225 -58 -6 c-379 -40 -1524 -40
-2084 0 l-88 6 0 -225 0 -224 90 -7 c124 -9 228 -38 340 -92 266 -131 394
-405 314 -674 -19 -64 -1203 -3399 -1213 -3417 -8 -15 -1348 3756 -1357 3818
-8 59 15 141 56 197 22 31 50 51 112 81 133 63 286 90 506 91 l102 0 0 226 0
227 -87 -7 c-551 -39 -1985 -39 -2440 0 l-73 6 0 -226 0 -226 129 0 c156 0
362 -16 454 -35 162 -34 262 -113 336 -268 58 -122 224 -595 217 -621 -19 -75
-1102 -3104 -1107 -3098 -4 4 -296 819 -648 1812 -693 1951 -662 1854 -629
1962 15 52 74 117 135 150 110 60 313 98 523 98 l100 0 0 226 0 226 -98 -6
c-615 -39 -2080 -39 -2539 0 l-73 6 0 -226z"/>
</g>
</svg>
