<?xml version="1.0" standalone="no"?>
<!DOCTYPE svg PUBLIC "-//W3C//DTD SVG 20010904//EN"
 "http://www.w3.org/TR/2001/REC-SVG-20010904/DTD/svg10.dtd">
<svg version="1.0" xmlns="http://www.w3.org/2000/svg"
 width="873.000000pt" height="992.000000pt" viewBox="0 0 873.000000 992.000000"
 preserveAspectRatio="xMidYMid meet">
<metadata>
Created by potrace 1.16, written by Peter Selinger 2001-2019
</metadata>
<g transform="translate(0.000000,992.000000) scale(0.100000,-0.100000)"
fill="#000000" stroke="none">
<path d="M4149 9892 c-38 -20 -62 -41 -81 -72 -18 -30 -492 -1510 -1379 -4305
-788 -2486 -1367 -4294 -1389 -4341 -52 -112 -109 -195 -204 -292 -215 -222
-524 -338 -958 -359 l-138 -6 0 -260 0 -260 78 7 c515 41 2070 41 2765 0 l107
-7 0 262 0 261 -55 0 c-31 0 -99 5 -153 11 -299 32 -529 127 -688 284 -122
120 -182 257 -171 392 3 46 280 930 1028 3288 l1024 3226 22 -68 c147 -449
2137 -6738 2140 -6766 8 -55 -20 -118 -76 -170 -65 -61 -130 -92 -264 -126
-164 -42 -332 -61 -599 -68 l-238 -6 0 -260 0 -260 128 7 c826 41 2902 41
3570 0 l102 -6 0 259 0 260 -292 6 c-398 8 -593 33 -707 90 -66 33 -146 119
-186 201 -22 44 -575 1771 -1446 4516 -924 2915 -1419 4460 -1437 4490 -19 31
-43 52 -81 72 -52 27 -58 28 -211 28 -153 0 -159 -1 -211 -28z"/>
</g>
</svg>
