<?xml version="1.0" standalone="no"?>
<!DOCTYPE svg PUBLIC "-//W3C//DTD SVG 20010904//EN"
 "http://www.w3.org/TR/2001/REC-SVG-20010904/DTD/svg10.dtd">
<svg version="1.0" xmlns="http://www.w3.org/2000/svg"
 width="421.000000pt" height="402.000000pt" viewBox="0 0 421.000000 402.000000"
 preserveAspectRatio="xMidYMid meet">
<metadata>
Created by potrace 1.16, written by Peter Selinger 2001-2019
</metadata>
<g transform="translate(0.000000,402.000000) scale(0.100000,-0.100000)"
fill="#000000" stroke="none">
<path d="M1184 4006 c-17 -8 -89 -72 -160 -142 -550 -549 -899 -1262 -999
-2045 -23 -174 -30 -496 -16 -649 23 -241 93 -515 172 -671 163 -325 413 -499
717 -499 343 0 610 202 699 530 25 90 25 290 0 380 -26 97 -87 217 -145 287
-251 302 -759 326 -1057 51 l-44 -39 -7 48 c-10 68 2 387 21 528 46 351 135
659 280 962 160 335 334 580 615 868 97 99 160 171 164 188 11 47 -10 99 -61
148 -74 72 -112 84 -179 55z"/>
<path d="M3764 4006 c-17 -8 -89 -72 -160 -142 -550 -549 -899 -1262 -999
-2045 -23 -174 -30 -496 -16 -649 23 -241 93 -515 172 -671 163 -325 413 -499
717 -499 343 0 610 202 699 530 25 90 25 290 0 380 -26 97 -87 217 -145 287
-251 302 -759 326 -1057 51 l-44 -39 -7 48 c-10 68 2 387 21 528 46 351 135
659 280 962 160 335 334 580 615 868 97 99 160 171 164 188 11 47 -10 99 -61
148 -74 72 -112 84 -179 55z"/>
</g>
</svg>
