<?xml version="1.0" standalone="no"?>
<!DOCTYPE svg PUBLIC "-//W3C//DTD SVG 20010904//EN"
 "http://www.w3.org/TR/2001/REC-SVG-20010904/DTD/svg10.dtd">
<svg version="1.0" xmlns="http://www.w3.org/2000/svg"
 width="700.000000pt" height="946.000000pt" viewBox="0 0 700.000000 946.000000"
 preserveAspectRatio="xMidYMid meet">
<metadata>
Created by potrace 1.16, written by Peter Selinger 2001-2019
</metadata>
<g transform="translate(0.000000,946.000000) scale(0.100000,-0.100000)"
fill="#000000" stroke="none">
<path d="M336 9353 c-4 -60 -36 -756 -71 -1548 -35 -792 -67 -1488 -71 -1547
l-6 -108 275 0 275 0 7 108 c20 332 55 617 101 836 198 937 726 1473 1634
1660 373 76 617 88 1801 84 l946 -3 -2611 -4170 -2611 -4170 0 -197 c0 -216 2
-222 69 -272 l27 -21 3329 -3 3328 -2 7 82 c3 46 53 884 110 1863 57 979 107
1817 110 1863 l7 82 -276 0 c-152 0 -276 -4 -276 -8 0 -38 -33 -504 -46 -642
-71 -786 -215 -1304 -468 -1685 -287 -430 -777 -713 -1431 -824 -373 -64 -597
-73 -1802 -69 l-1001 3 2595 4145 c1427 2280 2602 4160 2610 4179 11 26 14 71
11 202 -3 183 -7 195 -72 243 l-27 21 -3234 3 -3233 2 -6 -107z"/>
</g>
</svg>
