<?xml version="1.0" standalone="no"?>
<!DOCTYPE svg PUBLIC "-//W3C//DTD SVG 20010904//EN"
 "http://www.w3.org/TR/2001/REC-SVG-20010904/DTD/svg10.dtd">
<svg version="1.0" xmlns="http://www.w3.org/2000/svg"
 width="538.000000pt" height="1115.000000pt" viewBox="0 0 538.000000 1115.000000"
 preserveAspectRatio="xMidYMid meet">
<metadata>
Created by potrace 1.16, written by Peter Selinger 2001-2019
</metadata>
<g transform="translate(0.000000,1115.000000) scale(0.100000,-0.100000)"
fill="#000000" stroke="none">
<path d="M2430 10836 l0 -315 -47 -6 c-424 -58 -785 -185 -1128 -398 -334
-207 -669 -550 -871 -889 -188 -317 -301 -636 -361 -1018 -27 -176 -25 -567 5
-755 74 -472 273 -924 570 -1295 336 -419 828 -743 1360 -894 64 -18 197 -53
295 -77 l177 -43 0 -1999 0 -1998 -57 6 c-720 81 -1242 373 -1576 880 -100
152 -221 425 -260 586 l-7 26 118 -5 c144 -6 243 16 372 80 459 230 467 961
12 1196 -129 67 -208 87 -347 87 -98 0 -134 -4 -195 -23 -234 -73 -382 -215
-458 -437 -26 -78 -27 -85 -26 -300 3 -662 199 -1256 564 -1715 84 -106 289
-306 393 -384 299 -224 661 -382 1052 -461 124 -25 334 -55 386 -55 l29 0 0
-315 0 -315 260 0 260 0 0 315 0 315 23 4 c12 3 67 12 122 21 133 21 264 55
410 105 660 228 1208 713 1533 1358 160 315 250 599 303 952 19 120 22 191 23
410 1 288 -8 387 -54 620 -54 272 -130 493 -260 755 -277 562 -697 987 -1235
1251 -204 100 -357 153 -647 225 l-218 54 0 1808 0 1808 63 -6 c824 -86 1408
-440 1703 -1034 45 -92 104 -238 104 -259 0 -4 -50 -5 -110 -4 -141 5 -231
-15 -350 -74 -160 -80 -269 -208 -326 -380 -27 -82 -29 -101 -28 -229 0 -124
3 -149 27 -220 37 -111 90 -196 172 -274 131 -124 289 -185 480 -185 191 0
349 61 480 185 81 78 135 162 173 274 26 77 27 87 26 290 -1 316 -38 546 -134
836 -115 346 -285 623 -535 875 -392 395 -937 638 -1590 711 l-155 17 0 313 0
313 -260 0 -260 0 0 -314z m0 -2581 c0 -1381 -3 -1735 -12 -1735 -30 0 -354
92 -445 126 -551 206 -979 665 -1118 1201 -74 283 -70 591 11 870 180 620 726
1108 1399 1249 61 12 122 23 138 23 l27 1 0 -1735z m643 -3270 c320 -80 549
-192 784 -381 694 -562 911 -1568 513 -2389 -208 -431 -573 -773 -1008 -945
-100 -40 -283 -91 -369 -104 l-43 -6 0 1925 c0 1359 3 1925 11 1925 6 0 56
-11 112 -25z"/>
</g>
</svg>
