<?xml version="1.0" standalone="no"?>
<!DOCTYPE svg PUBLIC "-//W3C//DTD SVG 20010904//EN"
 "http://www.w3.org/TR/2001/REC-SVG-20010904/DTD/svg10.dtd">
<svg version="1.0" xmlns="http://www.w3.org/2000/svg"
 width="912.000000pt" height="982.000000pt" viewBox="0 0 912.000000 982.000000"
 preserveAspectRatio="xMidYMid meet">
<metadata>
Created by potrace 1.16, written by Peter Selinger 2001-2019
</metadata>
<g transform="translate(0.000000,982.000000) scale(0.100000,-0.100000)"
fill="#000000" stroke="none">
<path d="M3226 9805 c-533 -76 -994 -390 -1299 -885 -64 -104 -170 -327 -206
-435 -86 -256 -120 -452 -128 -735 -22 -796 153 -1762 478 -2637 27 -72 49
-136 49 -142 0 -6 -374 -401 -831 -878 -499 -521 -860 -907 -905 -966 -371
-491 -477 -1077 -298 -1648 264 -842 1168 -1441 2224 -1476 853 -28 1662 281
2400 915 l104 90 41 -34 c22 -19 94 -79 160 -133 652 -533 1340 -812 2065
-837 339 -12 604 40 880 172 589 283 986 855 1059 1526 6 54 11 122 11 153 l0
55 -183 0 -184 0 -6 -94 c-23 -352 -172 -681 -421 -930 -212 -212 -456 -343
-756 -407 -148 -32 -404 -33 -536 -2 -395 92 -813 368 -1279 845 -206 210
-271 286 -259 303 5 7 73 92 151 189 428 532 749 1023 1565 2400 192 324 363
610 381 635 262 387 678 625 1217 696 58 8 169 17 248 21 l142 7 0 225 0 225
-77 -7 c-493 -39 -2057 -39 -2760 0 l-113 6 0 -226 0 -226 60 0 c344 0 672
-130 801 -316 72 -105 93 -262 52 -389 -12 -37 -128 -244 -298 -530 -665
-1122 -906 -1501 -1264 -1985 -108 -146 -348 -450 -356 -450 -7 0 -212 265
-372 480 -281 378 -845 1197 -1041 1512 -274 438 -575 1024 -727 1415 l-28 72
24 29 c13 16 89 101 168 188 838 925 1272 1593 1402 2161 27 118 35 339 20
527 -67 821 -398 1373 -906 1507 -104 27 -328 34 -469 14z m363 -340 c231 -55
406 -246 521 -570 76 -216 130 -557 130 -829 1 -525 -375 -1183 -1228 -2149
l-157 -177 -57 175 c-57 174 -147 518 -187 710 -130 632 -181 1324 -126 1713
71 499 296 891 604 1051 159 82 349 111 500 76z m-1264 -4965 c205 -454 521
-1010 843 -1485 489 -720 896 -1245 1271 -1637 l102 -106 -92 -76 c-329 -269
-685 -472 -1049 -598 -392 -135 -900 -184 -1172 -114 -277 71 -510 247 -695
526 -397 599 -497 1577 -238 2331 74 215 221 478 350 629 106 123 618 651 625
643 4 -4 29 -55 55 -113z"/>
</g>
</svg>
