<?xml version="1.0" standalone="no"?>
<!DOCTYPE svg PUBLIC "-//W3C//DTD SVG 20010904//EN"
 "http://www.w3.org/TR/2001/REC-SVG-20010904/DTD/svg10.dtd">
<svg version="1.0" xmlns="http://www.w3.org/2000/svg"
 width="809.000000pt" height="942.000000pt" viewBox="0 0 809.000000 942.000000"
 preserveAspectRatio="xMidYMid meet">
<metadata>
Created by potrace 1.16, written by Peter Selinger 2001-2019
</metadata>
<g transform="translate(0.000000,942.000000) scale(0.100000,-0.100000)"
fill="#000000" stroke="none">
<path d="M0 9112 l0 -309 403 -6 c545 -8 760 -27 862 -77 50 -24 108 -78 132
-123 17 -30 18 -233 18 -3887 0 -3654 -1 -3857 -18 -3887 -24 -45 -82 -99
-132 -123 -102 -50 -317 -69 -862 -77 l-403 -6 0 -310 0 -310 127 7 c829 41
3341 41 4346 0 l157 -7 0 310 0 310 -507 6 c-869 10 -1069 34 -1190 141 -91
80 -83 -111 -83 1879 l0 1757 593 0 c325 0 657 -5 737 -10 281 -20 466 -61
625 -140 178 -87 268 -177 355 -355 97 -196 136 -428 147 -852 l6 -253 274 0
273 0 0 1920 0 1920 -273 0 -274 0 -6 -252 c-11 -425 -50 -657 -147 -853 -87
-178 -177 -268 -355 -355 -159 -79 -344 -120 -625 -140 -80 -5 -412 -10 -738
-10 l-592 0 2 1793 c3 1720 4 1794 22 1834 35 81 84 109 231 136 103 18 2152
17 2355 -1 448 -40 743 -111 1005 -242 607 -304 875 -860 1029 -2135 14 -115
28 -229 32 -252 l5 -43 275 0 275 0 -6 43 c-3 23 -86 749 -185 1612 -99 864
-182 1589 -185 1613 l-6 42 -3850 0 -3849 0 0 -308z"/>
</g>
</svg>
