<?xml version="1.0" standalone="no"?>
<!DOCTYPE svg PUBLIC "-//W3C//DTD SVG 20010904//EN"
 "http://www.w3.org/TR/2001/REC-SVG-20010904/DTD/svg10.dtd">
<svg version="1.0" xmlns="http://www.w3.org/2000/svg"
 width="606.000000pt" height="885.000000pt" viewBox="0 0 606.000000 885.000000"
 preserveAspectRatio="xMidYMid meet">
<metadata>
Created by potrace 1.16, written by Peter Selinger 2001-2019
</metadata>
<g transform="translate(0.000000,885.000000) scale(0.100000,-0.100000)"
fill="#000000" stroke="none">
<path d="M5337 8843 c-3 -4 -190 -330 -417 -723 -227 -393 -430 -745 -451
-782 l-39 -67 -150 73 c-288 142 -572 228 -890 273 -90 12 -191 17 -365 17
-174 0 -275 -5 -365 -17 -327 -46 -613 -135 -910 -283 -885 -443 -1506 -1295
-1694 -2324 -42 -233 -51 -340 -50 -620 0 -283 11 -400 60 -638 96 -468 323
-952 621 -1322 142 -177 406 -431 560 -539 33 -22 50 -41 47 -50 -4 -12 -266
-469 -817 -1422 l-125 -217 177 -101 c143 -83 178 -99 186 -88 5 8 219 377
474 820 l465 805 85 -43 c268 -134 618 -236 951 -277 136 -17 534 -17 670 0
367 46 688 144 1023 314 293 149 511 309 757 557 181 181 255 272 388 471 264
395 429 841 499 1340 22 158 24 601 4 765 -108 897 -510 1658 -1161 2200 -52
43 -94 81 -93 84 1 5 523 911 865 1502 l56 97 -171 98 c-198 115 -184 107
-190 97z m-2119 -1624 c318 -35 591 -134 855 -311 48 -33 90 -65 93 -73 4 -9
-2464 -4308 -2563 -4464 l-15 -24 -24 29 c-63 76 -172 251 -230 369 -137 283
-214 597 -256 1050 -18 190 -17 1025 0 1235 54 637 190 1071 452 1442 370 524
1037 819 1688 747z m1330 -786 c240 -352 372 -789 424 -1403 17 -210 18 -1045
0 -1235 -42 -453 -119 -767 -256 -1050 -270 -554 -750 -906 -1382 -1012 -152
-25 -466 -25 -618 0 -278 47 -520 139 -749 284 l-68 44 33 58 c273 483 2545
4408 2549 4405 4 -2 34 -43 67 -91z"/>
</g>
</svg>
