<?xml version="1.0" standalone="no"?>
<!DOCTYPE svg PUBLIC "-//W3C//DTD SVG 20010904//EN"
 "http://www.w3.org/TR/2001/REC-SVG-20010904/DTD/svg10.dtd">
<svg version="1.0" xmlns="http://www.w3.org/2000/svg"
 width="596.000000pt" height="968.000000pt" viewBox="0 0 596.000000 968.000000"
 preserveAspectRatio="xMidYMid meet">
<metadata>
Created by potrace 1.16, written by Peter Selinger 2001-2019
</metadata>
<g transform="translate(0.000000,968.000000) scale(0.100000,-0.100000)"
fill="#000000" stroke="none">
<path d="M445 9658 c-3 -13 -102 -666 -220 -1453 -118 -786 -217 -1445 -220
-1462 l-6 -33 225 0 225 0 6 33 c3 17 21 129 40 247 86 535 178 857 279 977
22 27 36 32 103 42 262 37 1127 53 2706 49 l1228 -3 -662 -920 c-364 -506
-732 -1026 -818 -1155 -1033 -1554 -1614 -3222 -1701 -4880 -14 -283 -13 -477
5 -568 9 -45 34 -115 60 -168 237 -485 983 -485 1220 0 72 147 75 177 75 698
0 661 19 1287 50 1733 98 1380 371 2377 867 3165 43 69 502 712 1018 1430 517
718 959 1333 982 1368 l43 64 0 204 0 204 -1662 0 c-1984 0 -2426 10 -2823 60
-244 32 -376 78 -475 167 -62 56 -89 109 -90 176 l0 47 -225 0 -225 0 -5 -22z"/>
</g>
</svg>
