<?xml version="1.0" standalone="no"?>
<!DOCTYPE svg PUBLIC "-//W3C//DTD SVG 20010904//EN"
 "http://www.w3.org/TR/2001/REC-SVG-20010904/DTD/svg10.dtd">
<svg version="1.0" xmlns="http://www.w3.org/2000/svg"
 width="922.000000pt" height="977.000000pt" viewBox="0 0 922.000000 977.000000"
 preserveAspectRatio="xMidYMid meet">
<metadata>
Created by potrace 1.16, written by Peter Selinger 2001-2019
</metadata>
<g transform="translate(0.000000,977.000000) scale(0.100000,-0.100000)"
fill="#000000" stroke="none">
<path d="M1632 9760 c-816 -103 -1456 -824 -1603 -1805 -13 -87 -21 -197 -22
-292 -2 -174 4 -190 83 -230 39 -20 59 -23 170 -23 111 0 131 3 170 23 70 35
82 60 92 186 20 267 139 500 345 676 340 290 845 401 1342 293 193 -41 400
-133 568 -251 112 -79 308 -274 400 -397 392 -526 640 -1332 728 -2360 33
-393 36 -648 33 -2700 l-3 -2035 -22 -47 c-30 -65 -102 -139 -166 -172 -140
-70 -567 -105 -1289 -106 l-298 0 0 -261 0 -262 153 7 c976 41 3608 41 4585 0
l152 -7 0 262 0 261 -297 0 c-723 1 -1150 36 -1290 106 -64 33 -136 107 -166
172 l-22 47 -3 2035 c-3 2052 0 2307 33 2700 88 1028 336 1834 728 2360 92
123 288 318 400 397 168 118 375 210 568 251 497 108 1002 -3 1342 -293 206
-176 325 -409 345 -676 10 -126 22 -151 92 -186 39 -20 59 -23 170 -23 111 0
131 3 170 23 79 40 85 56 83 230 -4 481 -180 1011 -457 1381 -285 380 -626
605 -1056 697 -140 30 -473 33 -650 6 -730 -113 -1300 -521 -1735 -1242 -302
-502 -553 -1219 -677 -1943 l-23 -132 -23 132 c-74 442 -227 979 -387 1362
-448 1075 -1122 1684 -2015 1821 -125 19 -445 28 -548 15z"/>
</g>
</svg>
