<?xml version="1.0" standalone="no"?>
<!DOCTYPE svg PUBLIC "-//W3C//DTD SVG 20010904//EN"
 "http://www.w3.org/TR/2001/REC-SVG-20010904/DTD/svg10.dtd">
<svg version="1.0" xmlns="http://www.w3.org/2000/svg"
 width="1006.000000pt" height="946.000000pt" viewBox="0 0 1006.000000 946.000000"
 preserveAspectRatio="xMidYMid meet">
<metadata>
Created by potrace 1.16, written by Peter Selinger 2001-2019
</metadata>
<g transform="translate(0.000000,946.000000) scale(0.100000,-0.100000)"
fill="#000000" stroke="none">
<path d="M0 9201 l0 -261 208 0 c224 0 536 -14 672 -30 240 -28 360 -79 484
-203 45 -45 94 -100 108 -122 15 -22 675 -1111 1467 -2420 l1441 -2380 0
-1456 c0 -1615 4 -1511 -66 -1616 -99 -146 -264 -178 -981 -190 l-373 -6 0
-260 0 -260 128 7 c817 41 3057 41 3875 0 l127 -7 0 262 0 261 -232 0 c-513 1
-898 34 -1002 87 -55 28 -123 102 -152 166 l-29 62 -3 1473 -2 1473 1331 2202
c732 1211 1363 2243 1401 2294 308 410 806 630 1492 659 l156 7 0 260 0 260
-77 -7 c-513 -41 -2194 -41 -2860 0 l-103 6 0 -259 0 -260 101 -7 c248 -16
423 -82 549 -207 135 -133 164 -329 76 -514 -28 -59 -2234 -3716 -2255 -3737
-4 -4 -564 914 -1246 2040 l-1239 2047 -4 61 c-13 203 205 295 736 311 l212 6
0 260 0 260 -127 -7 c-824 -41 -3009 -41 -3705 0 l-108 7 0 -262z"/>
</g>
</svg>
