<?xml version="1.0" standalone="no"?>
<!DOCTYPE svg PUBLIC "-//W3C//DTD SVG 20010904//EN"
 "http://www.w3.org/TR/2001/REC-SVG-20010904/DTD/svg10.dtd">
<svg version="1.0" xmlns="http://www.w3.org/2000/svg"
 width="956.000000pt" height="946.000000pt" viewBox="0 0 956.000000 946.000000"
 preserveAspectRatio="xMidYMid meet">
<metadata>
Created by potrace 1.16, written by Peter Selinger 2001-2019
</metadata>
<g transform="translate(0.000000,946.000000) scale(0.100000,-0.100000)"
fill="#000000" stroke="none">
<path d="M0 9202 l0 -259 433 -6 c237 -4 497 -11 577 -17 141 -10 357 -35 393
-46 16 -5 17 -189 15 -3847 l-3 -3842 -30 -85 c-60 -173 -183 -312 -353 -398
-228 -116 -463 -166 -844 -179 l-188 -6 0 -260 0 -260 97 7 c633 40 2503 40
3136 0 l97 -7 0 260 0 260 -187 6 c-687 23 -1069 208 -1198 577 l-30 85 -2
3675 c-2 2021 1 3670 5 3664 4 -6 1303 -1917 2887 -4247 2400 -3530 2886
-4239 2916 -4256 32 -18 54 -21 164 -21 144 0 185 14 221 73 19 31 19 119 24
4117 l5 4085 30 85 c60 173 183 312 353 398 228 116 463 166 845 179 l187 6 0
260 0 260 -97 -7 c-633 -40 -2503 -40 -3135 0 l-98 7 0 -260 0 -260 188 -6
c686 -23 1068 -208 1197 -577 l30 -85 3 -3000 c1 -1853 -1 -2996 -7 -2990 -5
6 -1077 1580 -2381 3500 -1305 1920 -2395 3523 -2423 3563 -86 125 83 112
-1477 112 l-1350 0 0 -258z"/>
</g>
</svg>
