<?xml version="1.0" standalone="no"?>
<!DOCTYPE svg PUBLIC "-//W3C//DTD SVG 20010904//EN"
 "http://www.w3.org/TR/2001/REC-SVG-20010904/DTD/svg10.dtd">
<svg version="1.0" xmlns="http://www.w3.org/2000/svg"
 width="922.000000pt" height="1104.000000pt" viewBox="0 0 922.000000 1104.000000"
 preserveAspectRatio="xMidYMid meet">
<metadata>
Created by potrace 1.16, written by Peter Selinger 2001-2019
</metadata>
<g transform="translate(0.000000,1104.000000) scale(0.100000,-0.100000)"
fill="#000000" stroke="none">
<path d="M7675 10628 c-148 -227 -338 -518 -422 -645 l-152 -233 -143 94
c-1454 951 -3241 954 -4693 8 -720 -469 -1298 -1126 -1699 -1932 -870 -1750
-726 -3898 366 -5455 198 -283 472 -597 692 -795 64 -57 116 -108 116 -113 0
-5 -191 -302 -426 -660 -342 -524 -423 -653 -412 -662 23 -21 359 -237 363
-233 2 2 189 287 415 633 227 347 415 634 420 638 4 5 36 -12 71 -36 119 -83
353 -219 521 -302 459 -228 939 -370 1466 -432 109 -13 225 -17 447 -17 406 0
676 33 1039 125 959 246 1803 797 2441 1597 1043 1305 1387 3087 921 4772
-170 615 -471 1230 -849 1735 -163 217 -420 502 -591 655 -58 52 -106 98 -106
101 0 3 194 302 431 664 346 530 428 661 417 670 -13 13 -355 235 -360 235 -2
0 -125 -186 -273 -412z m-2660 -508 c566 -84 1096 -328 1540 -711 112 -96 199
-184 194 -196 -5 -11 -4589 -7024 -4599 -7036 -4 -5 -41 43 -82 105 -397 601
-623 1333 -702 2278 -54 640 -46 1465 20 2075 120 1113 475 1970 1067 2582
515 531 1176 853 1900 923 156 15 492 5 662 -20z m2152 -1425 c377 -587 600
-1340 677 -2275 72 -864 37 -1858 -89 -2547 -212 -1159 -767 -2041 -1604
-2547 -364 -221 -778 -364 -1211 -418 -136 -17 -534 -17 -670 0 -663 83 -1244
359 -1749 829 l-75 69 2305 3526 c2276 3483 2304 3526 2322 3505 9 -12 52 -76
94 -142z"/>
</g>
</svg>
