<?xml version="1.0" standalone="no"?>
<!DOCTYPE svg PUBLIC "-//W3C//DTD SVG 20010904//EN"
 "http://www.w3.org/TR/2001/REC-SVG-20010904/DTD/svg10.dtd">
<svg version="1.0" xmlns="http://www.w3.org/2000/svg"
 width="462.000000pt" height="142.000000pt" viewBox="0 0 462.000000 142.000000"
 preserveAspectRatio="xMidYMid meet">
<metadata>
Created by potrace 1.16, written by Peter Selinger 2001-2019
</metadata>
<g transform="translate(0.000000,142.000000) scale(0.100000,-0.100000)"
fill="#000000" stroke="none">
<path d="M1247 1405 c-224 -43 -404 -139 -593 -318 -72 -67 -659 -756 -651
-763 1 -1 89 -74 195 -162 l193 -161 61 67 c198 214 406 349 624 404 128 33
382 32 534 -1 145 -31 348 -101 655 -224 296 -119 493 -186 645 -218 85 -19
136 -23 270 -23 146 0 176 4 261 26 188 51 347 143 509 295 76 71 666 761 657
769 -1 1 -89 74 -195 162 l-193 161 -61 -67 c-198 -214 -406 -349 -624 -404
-128 -33 -382 -32 -534 1 -145 31 -348 101 -655 224 -295 118 -494 186 -640
217 -133 28 -351 35 -458 15z"/>
</g>
</svg>
