<?xml version="1.0" standalone="no"?>
<!DOCTYPE svg PUBLIC "-//W3C//DTD SVG 20010904//EN"
 "http://www.w3.org/TR/2001/REC-SVG-20010904/DTD/svg10.dtd">
<svg version="1.0" xmlns="http://www.w3.org/2000/svg"
 width="313.000000pt" height="1328.000000pt" viewBox="0 0 313.000000 1328.000000"
 preserveAspectRatio="xMidYMid meet">
<metadata>
Created by potrace 1.16, written by Peter Selinger 2001-2019
</metadata>
<g transform="translate(0.000000,1328.000000) scale(0.100000,-0.100000)"
fill="#000000" stroke="none">
<path d="M80 13269 c-37 -15 -58 -38 -71 -76 -24 -74 -13 -91 199 -307 108
-111 252 -267 318 -346 904 -1079 1458 -2469 1678 -4210 137 -1074 137 -2306
0 -3380 -165 -1308 -521 -2421 -1072 -3355 -258 -438 -558 -827 -924 -1201
-215 -219 -225 -236 -197 -311 21 -55 58 -77 139 -81 38 -2 81 -1 94 2 25 6
192 137 326 255 461 407 828 829 1176 1356 604 914 1022 2017 1229 3240 101
602 140 1089 140 1785 0 473 -8 657 -41 1015 -213 2334 -1168 4294 -2689 5521
-55 44 -110 86 -122 92 -26 14 -148 15 -183 1z"/>
</g>
</svg>
