<?xml version="1.0" standalone="no"?>
<!DOCTYPE svg PUBLIC "-//W3C//DTD SVG 20010904//EN"
 "http://www.w3.org/TR/2001/REC-SVG-20010904/DTD/svg10.dtd">
<svg version="1.0" xmlns="http://www.w3.org/2000/svg"
 width="568.000000pt" height="938.000000pt" viewBox="0 0 568.000000 938.000000"
 preserveAspectRatio="xMidYMid meet">
<metadata>
Created by potrace 1.16, written by Peter Selinger 2001-2019
</metadata>
<g transform="translate(0.000000,938.000000) scale(0.100000,-0.100000)"
fill="#000000" stroke="none">
<path d="M1700 9156 l0 -226 283 0 c705 0 1146 -38 1288 -110 60 -31 131 -106
165 -175 l29 -60 0 -3305 c0 -3136 -1 -3311 -18 -3425 -42 -278 -99 -469 -207
-690 -207 -425 -506 -699 -869 -796 -259 -69 -702 -6 -1028 146 -249 116 -457
279 -608 475 -25 32 -45 60 -45 62 0 2 18 2 40 0 21 -2 79 1 127 8 303 40 529
220 624 498 31 92 33 104 33 247 1 127 -2 162 -22 228 -74 256 -266 445 -522
514 -91 25 -329 25 -420 0 -256 -69 -448 -258 -522 -514 -32 -110 -32 -378 0
-530 70 -327 211 -589 446 -832 354 -364 758 -559 1351 -653 125 -20 542 -16
690 6 516 76 939 252 1310 546 107 84 306 286 382 385 191 252 320 517 389
800 57 234 54 45 54 3568 0 3475 -2 3316 48 3413 27 52 77 99 133 123 95 42
365 71 677 71 l162 0 0 226 0 226 -102 -6 c-646 -39 -2808 -39 -3720 0 l-148
7 0 -227z"/>
</g>
</svg>
