<?xml version="1.0" standalone="no"?>
<!DOCTYPE svg PUBLIC "-//W3C//DTD SVG 20010904//EN"
 "http://www.w3.org/TR/2001/REC-SVG-20010904/DTD/svg10.dtd">
<svg version="1.0" xmlns="http://www.w3.org/2000/svg"
 width="554.000000pt" height="916.000000pt" viewBox="0 0 554.000000 916.000000"
 preserveAspectRatio="xMidYMid meet">
<metadata>
Created by potrace 1.16, written by Peter Selinger 2001-2019
</metadata>
<g transform="translate(0.000000,916.000000) scale(0.100000,-0.100000)"
fill="#000000" stroke="none">
<path d="M2427 9150 c-228 -22 -454 -71 -682 -147 -160 -54 -429 -184 -555
-269 -430 -288 -694 -660 -791 -1117 -18 -81 -22 -138 -23 -272 -1 -152 2
-178 22 -245 75 -238 235 -393 478 -461 110 -31 268 -31 378 0 243 68 403 223
478 461 20 64 23 95 22 215 0 124 -3 149 -27 220 -71 214 -219 361 -432 432
-65 21 -104 27 -207 31 -71 2 -128 6 -128 9 0 15 112 142 199 225 288 277 727
468 1211 528 514 63 864 -34 1150 -320 247 -247 351 -541 367 -1030 16 -510
-86 -1039 -276 -1426 -98 -201 -193 -337 -330 -475 -163 -164 -300 -250 -498
-313 -109 -34 -175 -42 -623 -76 -271 -21 -405 -35 -428 -45 -51 -24 -72 -67
-72 -155 0 -82 19 -127 62 -152 18 -10 147 -14 578 -19 590 -6 594 -7 752 -60
215 -71 452 -241 611 -437 182 -224 316 -516 381 -832 97 -474 101 -1158 11
-1635 -137 -721 -561 -1225 -1135 -1351 -68 -15 -124 -19 -280 -18 -634 3
-1246 216 -1662 578 -94 82 -207 207 -269 297 l-38 56 122 5 c99 5 139 11 215
36 318 104 512 375 512 716 0 360 -197 629 -535 732 -79 24 -107 27 -225 27
-118 0 -146 -3 -225 -27 -243 -74 -414 -232 -489 -454 -38 -112 -50 -207 -43
-360 20 -466 223 -904 578 -1248 698 -674 1921 -948 2949 -659 817 230 1490
797 1799 1517 339 790 245 1605 -265 2280 -180 238 -458 485 -734 653 -119 73
-365 192 -491 239 -127 47 -309 101 -439 130 -58 13 -98 26 -90 29 8 4 60 22
115 42 144 52 442 202 571 287 242 160 483 374 638 568 350 438 543 995 523
1509 -13 339 -138 648 -381 938 -361 433 -978 740 -1666 828 -144 19 -551 28
-683 15z"/>
</g>
</svg>
