<?xml version="1.0" standalone="no"?>
<!DOCTYPE svg PUBLIC "-//W3C//DTD SVG 20010904//EN"
 "http://www.w3.org/TR/2001/REC-SVG-20010904/DTD/svg10.dtd">
<svg version="1.0" xmlns="http://www.w3.org/2000/svg"
 width="947.000000pt" height="611.000000pt" viewBox="0 0 947.000000 611.000000"
 preserveAspectRatio="xMidYMid meet">
<metadata>
Created by potrace 1.16, written by Peter Selinger 2001-2019
</metadata>
<g transform="translate(0.000000,611.000000) scale(0.100000,-0.100000)"
fill="#000000" stroke="none">
<path d="M0 5801 l0 -311 163 0 c296 0 549 -25 640 -64 47 -19 132 -98 163
-151 13 -23 424 -1189 913 -2592 489 -1403 894 -2560 900 -2571 18 -33 88 -88
130 -100 51 -16 342 -16 393 0 68 20 122 78 155 166 16 42 308 877 649 1855
340 977 621 1777 624 1777 3 0 284 -800 624 -1778 341 -977 633 -1812 649
-1854 33 -88 87 -146 155 -166 51 -16 342 -16 393 0 42 12 112 66 130 100 6
11 379 1078 830 2371 451 1294 835 2384 853 2423 51 108 98 175 182 264 186
194 444 296 801 317 l113 6 0 310 0 309 -53 -6 c-361 -40 -1803 -41 -2354 0
l-83 6 0 -311 0 -311 48 0 c208 -1 452 -88 583 -208 102 -94 159 -217 159
-347 0 -73 40 45 -650 -1934 l-514 -1473 -22 63 c-12 35 -300 861 -640 1834
-453 1300 -618 1781 -617 1813 0 57 42 116 109 154 106 59 336 98 582 98 l112
0 0 311 0 312 -97 -7 c-637 -41 -2164 -41 -2650 0 l-73 6 0 -311 0 -311 158 0
c296 0 527 -27 613 -70 50 -26 109 -85 142 -141 14 -24 70 -173 126 -331 l100
-288 -511 -1467 c-281 -808 -514 -1471 -517 -1475 -10 -11 -1216 3461 -1219
3510 -4 59 11 93 63 141 78 71 232 108 493 118 l162 6 0 310 0 310 -97 -7
c-637 -41 -2190 -41 -2730 0 l-83 6 0 -311z"/>
</g>
</svg>
