<?xml version="1.0" standalone="no"?>
<!DOCTYPE svg PUBLIC "-//W3C//DTD SVG 20010904//EN"
 "http://www.w3.org/TR/2001/REC-SVG-20010904/DTD/svg10.dtd">
<svg version="1.0" xmlns="http://www.w3.org/2000/svg"
 width="659.000000pt" height="845.000000pt" viewBox="0 0 659.000000 845.000000"
 preserveAspectRatio="xMidYMid meet">
<metadata>
Created by potrace 1.16, written by Peter Selinger 2001-2019
</metadata>
<g transform="translate(0.000000,845.000000) scale(0.100000,-0.100000)"
fill="#000000" stroke="none">
<path d="M2670 8439 c-539 -51 -1084 -269 -1515 -606 -555 -435 -941 -1059
-1090 -1763 -94 -446 -85 -936 26 -1390 289 -1184 1216 -2057 2361 -2225 149
-22 421 -30 562 -16 407 40 787 195 1128 461 104 82 304 281 383 382 l60 77 3
-1262 c2 -883 -1 -1281 -8 -1327 -22 -128 -77 -208 -171 -249 -96 -43 -365
-71 -681 -71 l-168 0 0 -226 0 -226 98 6 c617 39 2207 39 2825 0 l97 -6 0 226
0 226 -167 0 c-317 0 -586 28 -682 71 -56 24 -106 71 -133 123 -50 98 -48
-106 -48 3989 l0 3817 -166 -2 -166 -3 -242 -582 c-133 -320 -244 -584 -247
-587 -3 -3 -20 23 -39 57 -98 181 -257 394 -407 543 -268 269 -602 454 -958
533 -179 39 -434 51 -655 30z m642 -399 c512 -107 937 -512 1183 -1125 31 -77
74 -202 96 -279 l39 -139 0 -1163 0 -1164 -37 -92 c-154 -386 -437 -766 -730
-980 -409 -300 -937 -405 -1346 -268 -440 148 -845 580 -1095 1170 -311 733
-359 1705 -121 2480 129 425 357 817 633 1093 285 285 597 445 956 491 80 10
327 -4 422 -24z"/>
</g>
</svg>
