<?xml version="1.0" standalone="no"?>
<!DOCTYPE svg PUBLIC "-//W3C//DTD SVG 20010904//EN"
 "http://www.w3.org/TR/2001/REC-SVG-20010904/DTD/svg10.dtd">
<svg version="1.0" xmlns="http://www.w3.org/2000/svg"
 width="770.000000pt" height="904.000000pt" viewBox="0 0 770.000000 904.000000"
 preserveAspectRatio="xMidYMid meet">
<metadata>
Created by potrace 1.16, written by Peter Selinger 2001-2019
</metadata>
<g transform="translate(0.000000,904.000000) scale(0.100000,-0.100000)"
fill="#000000" stroke="none">
<path d="M0 8817 l0 -224 343 -6 c619 -11 822 -45 915 -152 42 -47 77 -118 91
-183 16 -76 16 -7388 0 -7464 -14 -65 -49 -136 -91 -183 -93 -107 -296 -141
-915 -152 l-343 -6 0 -225 0 -224 123 6 c764 39 3077 39 4015 0 l152 -7 0 227
0 226 -272 0 c-697 0 -1125 39 -1253 114 -57 34 -122 107 -153 174 l-27 57 -3
1753 -2 1752 637 0 c351 0 703 -5 783 -10 282 -20 465 -61 629 -141 91 -44
117 -63 191 -138 96 -97 148 -184 200 -338 57 -171 90 -455 90 -774 l0 -149
185 0 185 0 0 1775 0 1775 -185 0 -185 0 0 -149 c0 -319 -33 -603 -90 -774
-52 -154 -104 -241 -200 -338 -74 -75 -100 -94 -191 -138 -164 -80 -347 -121
-629 -141 -80 -5 -432 -10 -782 -10 l-638 0 0 1763 c0 1233 3 1781 11 1822 26
140 87 197 250 232 78 17 159 18 1184 18 1152 0 1238 -3 1540 -46 671 -96
1087 -349 1341 -815 179 -329 293 -764 384 -1474 16 -129 30 -236 30 -237 0
-2 84 -3 186 -3 l186 0 -6 38 c-3 20 -85 685 -181 1477 -96 792 -178 1457
-181 1478 l-6 37 -3659 0 -3659 0 0 -223z"/>
</g>
</svg>
