<?xml version="1.0" standalone="no"?>
<!DOCTYPE svg PUBLIC "-//W3C//DTD SVG 20010904//EN"
 "http://www.w3.org/TR/2001/REC-SVG-20010904/DTD/svg10.dtd">
<svg version="1.0" xmlns="http://www.w3.org/2000/svg"
 width="822.000000pt" height="946.000000pt" viewBox="0 0 822.000000 946.000000"
 preserveAspectRatio="xMidYMid meet">
<metadata>
Created by potrace 1.16, written by Peter Selinger 2001-2019
</metadata>
<g transform="translate(0.000000,946.000000) scale(0.100000,-0.100000)"
fill="#000000" stroke="none">
<path d="M0 9202 l0 -259 373 -6 c717 -12 882 -44 981 -190 72 -107 66 263 66
-4017 0 -4280 6 -3910 -66 -4017 -99 -146 -264 -178 -981 -190 l-373 -6 0
-260 0 -260 127 7 c826 41 3090 41 3916 0 l127 -7 0 260 0 260 -372 6 c-718
12 -883 44 -982 190 -71 105 -66 -25 -66 1858 l0 1698 1293 4 c1261 3 1296 4
1442 25 394 56 730 149 1039 285 717 317 1251 823 1513 1434 248 577 226 1205
-62 1788 -117 237 -265 444 -464 649 -470 481 -1101 805 -1831 940 -349 64
-150 60 -3047 63 l-2633 3 0 -258z m4865 -272 c618 -46 1075 -225 1399 -546
260 -259 381 -596 417 -1164 15 -237 6 -786 -15 -965 -60 -497 -204 -805 -489
-1043 -329 -277 -751 -428 -1321 -472 -74 -6 -556 -10 -1137 -10 l-1009 0 0
1954 c0 1271 4 1972 10 2007 30 159 112 215 345 238 131 12 1632 13 1800 1z"/>
</g>
</svg>
