<?xml version="1.0" standalone="no"?>
<!DOCTYPE svg PUBLIC "-//W3C//DTD SVG 20010904//EN"
 "http://www.w3.org/TR/2001/REC-SVG-20010904/DTD/svg10.dtd">
<svg version="1.0" xmlns="http://www.w3.org/2000/svg"
 width="821.000000pt" height="908.000000pt" viewBox="0 0 821.000000 908.000000"
 preserveAspectRatio="xMidYMid meet">
<metadata>
Created by potrace 1.16, written by Peter Selinger 2001-2019
</metadata>
<g transform="translate(0.000000,908.000000) scale(0.100000,-0.100000)"
fill="#000000" stroke="none">
<path d="M0 8857 l0 -224 343 -6 c619 -11 822 -45 915 -152 42 -47 77 -118 91
-183 16 -76 16 -7428 0 -7504 -14 -65 -49 -136 -91 -183 -93 -107 -296 -141
-915 -152 l-343 -6 0 -224 0 -223 2778 3 c3020 3 2814 0 3128 56 925 168 1708
721 2075 1466 173 352 247 745 208 1103 -102 941 -908 1740 -2045 2026 -127
32 -363 74 -467 82 l-80 7 114 24 c1050 216 1865 873 2069 1667 149 584 -47
1226 -529 1728 -496 518 -1240 842 -2080 908 -89 6 -992 10 -2653 10 l-2518 0
0 -223z m5172 -255 c308 -70 592 -232 809 -460 128 -134 215 -259 302 -432
145 -288 207 -555 207 -890 -1 -503 -183 -952 -535 -1319 -329 -343 -774 -555
-1260 -601 -68 -6 -511 -10 -1147 -10 l-1038 0 0 1713 c0 1195 3 1731 11 1772
30 161 112 220 342 245 39 4 554 7 1142 6 1065 -2 1070 -2 1167 -24z m108
-4067 c341 -52 642 -208 906 -470 391 -387 606 -902 639 -1525 34 -636 -254
-1276 -750 -1672 -225 -179 -523 -320 -800 -377 -200 -40 -273 -43 -1380 -39
-972 4 -1066 6 -1135 22 -154 37 -214 94 -239 231 -8 41 -11 627 -11 1952 l0
1893 1338 0 c1122 0 1352 -2 1432 -15z"/>
</g>
</svg>
