<?xml version="1.0" standalone="no"?>
<!DOCTYPE svg PUBLIC "-//W3C//DTD SVG 20010904//EN"
 "http://www.w3.org/TR/2001/REC-SVG-20010904/DTD/svg10.dtd">
<svg version="1.0" xmlns="http://www.w3.org/2000/svg"
 width="264.000000pt" height="269.000000pt" viewBox="0 0 264.000000 269.000000"
 preserveAspectRatio="xMidYMid meet">
<metadata>
Created by potrace 1.16, written by Peter Selinger 2001-2019
</metadata>
<g transform="translate(0.000000,269.000000) scale(0.100000,-0.100000)"
fill="#000000" stroke="none">
<path d="M1910 2680 c-87 -18 -203 -85 -274 -158 -36 -37 -419 -534 -850
-1105 l-783 -1039 136 -132 c259 -251 259 -251 279 -234 9 9 460 379 1002 823
542 444 1007 828 1033 854 62 60 120 150 148 231 30 86 32 229 5 310 -72 212
-217 359 -426 432 -64 22 -204 32 -270 18z"/>
</g>
</svg>
