<?xml version="1.0" standalone="no"?>
<!DOCTYPE svg PUBLIC "-//W3C//DTD SVG 20010904//EN"
 "http://www.w3.org/TR/2001/REC-SVG-20010904/DTD/svg10.dtd">
<svg version="1.0" xmlns="http://www.w3.org/2000/svg"
 width="936.000000pt" height="908.000000pt" viewBox="0 0 936.000000 908.000000"
 preserveAspectRatio="xMidYMid meet">
<metadata>
Created by potrace 1.16, written by Peter Selinger 2001-2019
</metadata>
<g transform="translate(0.000000,908.000000) scale(0.100000,-0.100000)"
fill="#000000" stroke="none">
<path d="M0 8858 l0 -225 343 -6 c622 -12 822 -45 918 -154 39 -45 74 -117 88
-181 16 -76 16 -7428 0 -7504 -14 -64 -49 -136 -88 -181 -96 -109 -296 -142
-918 -154 l-343 -6 0 -225 0 -224 122 6 c763 39 2933 39 3696 0 l122 -6 0 224
0 225 -342 6 c-623 12 -823 45 -919 154 -39 45 -74 117 -88 181 -8 38 -11 418
-11 1310 l0 1258 517 494 c285 272 624 597 754 722 l236 227 1217 -1804 c670
-993 1237 -1839 1261 -1882 95 -169 115 -306 62 -415 -82 -167 -289 -248 -634
-248 l-103 0 0 -226 0 -227 128 7 c795 39 2650 39 3240 0 l92 -6 0 226 0 226
-133 0 c-176 0 -379 17 -500 41 -303 61 -481 186 -727 514 -50 67 -2441 3605
-3018 4466 l-71 106 1205 1153 c663 634 1244 1187 1292 1228 375 321 806 536
1249 622 128 25 351 50 446 50 l67 0 0 226 0 226 -67 -6 c-38 -3 -162 -12
-278 -18 -375 -22 -1872 -10 -2397 18 l-118 7 0 -225 0 -225 78 -7 c236 -20
407 -116 484 -274 29 -58 33 -76 33 -147 0 -104 -25 -179 -90 -273 -40 -59
-475 -480 -2135 -2068 l-2085 -1994 -3 2177 c-2 1593 0 2194 9 2238 13 69 46
140 88 188 96 109 296 142 919 154 l342 6 0 225 0 224 -122 -6 c-359 -18
-1042 -29 -1848 -29 -806 0 -1489 11 -1847 29 l-123 6 0 -224z"/>
</g>
</svg>
