<?xml version="1.0" standalone="no"?>
<!DOCTYPE svg PUBLIC "-//W3C//DTD SVG 20010904//EN"
 "http://www.w3.org/TR/2001/REC-SVG-20010904/DTD/svg10.dtd">
<svg version="1.0" xmlns="http://www.w3.org/2000/svg"
 width="352.000000pt" height="165.000000pt" viewBox="0 0 352.000000 165.000000"
 preserveAspectRatio="xMidYMid meet">
<metadata>
Created by potrace 1.16, written by Peter Selinger 2001-2019
</metadata>
<g transform="translate(0.000000,165.000000) scale(0.100000,-0.100000)"
fill="#000000" stroke="none">
<path d="M105 1508 c-54 -79 -98 -148 -99 -155 -2 -18 1744 -1354 1758 -1346
16 10 1718 1314 1735 1329 11 10 -1 33 -73 141 -48 70 -95 138 -104 151 l-18
24 -774 -454 c-425 -249 -775 -452 -777 -452 -3 1 -349 204 -770 450 -421 247
-768 450 -773 452 -4 2 -51 -61 -105 -140z"/>
</g>
</svg>
