<?xml version="1.0" standalone="no"?>
<!DOCTYPE svg PUBLIC "-//W3C//DTD SVG 20010904//EN"
 "http://www.w3.org/TR/2001/REC-SVG-20010904/DTD/svg10.dtd">
<svg version="1.0" xmlns="http://www.w3.org/2000/svg"
 width="838.000000pt" height="953.000000pt" viewBox="0 0 838.000000 953.000000"
 preserveAspectRatio="xMidYMid meet">
<metadata>
Created by potrace 1.16, written by Peter Selinger 2001-2019
</metadata>
<g transform="translate(0.000000,953.000000) scale(0.100000,-0.100000)"
fill="#000000" stroke="none">
<path d="M4020 9509 c-56 -25 -77 -44 -100 -89 -10 -19 -603 -1869 -1320
-4110 -716 -2241 -1317 -4113 -1335 -4159 -101 -247 -301 -457 -539 -566 -166
-76 -367 -120 -597 -132 l-129 -6 0 -225 0 -224 83 6 c517 39 1989 39 2600 0
l97 -7 0 227 0 226 -52 0 c-158 0 -383 46 -525 107 -290 126 -452 339 -441
581 4 83 46 220 1009 3229 552 1729 1006 3143 1009 3143 3 0 484 -1496 1068
-3324 749 -2345 1062 -3337 1062 -3367 -1 -91 -78 -193 -184 -243 -169 -80
-464 -126 -808 -126 l-138 0 0 -226 0 -227 128 7 c795 39 2685 39 3355 0 l107
-7 0 227 0 226 -172 0 c-315 0 -588 27 -711 69 -108 38 -190 116 -255 246 -16
33 -645 1986 -1397 4340 -752 2354 -1375 4296 -1385 4315 -42 83 -106 110
-265 110 -99 0 -128 -4 -165 -21z"/>
</g>
</svg>
