<?xml version="1.0" standalone="no"?>
<!DOCTYPE svg PUBLIC "-//W3C//DTD SVG 20010904//EN"
 "http://www.w3.org/TR/2001/REC-SVG-20010904/DTD/svg10.dtd">
<svg version="1.0" xmlns="http://www.w3.org/2000/svg"
 width="922.000000pt" height="977.000000pt" viewBox="0 0 922.000000 977.000000"
 preserveAspectRatio="xMidYMid meet">
<metadata>
Created by potrace 1.16, written by Peter Selinger 2001-2019
</metadata>
<g transform="translate(0.000000,977.000000) scale(0.100000,-0.100000)"
fill="#000000" stroke="none">
<path d="M1705 9764 c-364 -39 -718 -203 -994 -461 -427 -397 -701 -1040 -705
-1650 -1 -162 6 -180 84 -220 41 -21 57 -23 220 -23 163 0 179 2 220 23 69 35
82 60 92 179 19 234 102 412 266 575 175 173 428 296 713 344 106 18 152 20
319 17 225 -6 359 -30 535 -99 797 -310 1279 -1308 1405 -2909 26 -335 30
-648 30 -2600 0 -1972 -1 -2057 -19 -2095 -24 -55 -98 -117 -168 -144 -132
-51 -396 -70 -1085 -78 l-508 -6 0 -310 0 -310 158 7 c1003 41 3671 41 4675 0
l157 -7 0 310 0 310 -507 6 c-690 8 -954 27 -1086 78 -70 27 -144 89 -168 144
-18 38 -19 123 -19 2095 0 1952 4 2265 30 2600 126 1601 608 2599 1405 2909
176 69 310 93 535 99 167 3 213 1 319 -17 285 -48 538 -171 713 -344 164 -163
247 -341 266 -575 10 -119 23 -144 92 -179 41 -21 57 -23 220 -23 163 0 179 2
220 23 78 40 85 58 84 220 -3 516 -208 1079 -535 1472 -269 322 -625 538
-1020 617 -96 19 -146 22 -319 23 -115 0 -247 -6 -300 -13 -417 -58 -784 -216
-1105 -477 -107 -87 -294 -277 -389 -395 -80 -100 -231 -327 -305 -457 -274
-484 -496 -1160 -624 -1893 l-4 -25 -2 25 c-2 45 -80 416 -121 579 -102 405
-224 751 -381 1079 -309 647 -729 1109 -1234 1357 -207 102 -416 166 -647 201
-101 14 -433 26 -513 18z"/>
</g>
</svg>
