<?xml version="1.0" standalone="no"?>
<!DOCTYPE svg PUBLIC "-//W3C//DTD SVG 20010904//EN"
 "http://www.w3.org/TR/2001/REC-SVG-20010904/DTD/svg10.dtd">
<svg version="1.0" xmlns="http://www.w3.org/2000/svg"
 width="922.000000pt" height="946.000000pt" viewBox="0 0 922.000000 946.000000"
 preserveAspectRatio="xMidYMid meet">
<metadata>
Created by potrace 1.16, written by Peter Selinger 2001-2019
</metadata>
<g transform="translate(0.000000,946.000000) scale(0.100000,-0.100000)"
fill="#000000" stroke="none">
<path d="M2150 9153 l0 -310 508 -6 c875 -11 1070 -34 1192 -144 89 -80 81
245 78 -3090 l-3 -2963 -120 41 c-252 85 -522 240 -713 409 -221 195 -424 481
-562 790 -213 479 -319 1078 -320 1805 0 748 -122 1276 -364 1581 -123 155
-285 257 -470 295 -90 18 -134 19 -685 17 -578 -3 -590 -3 -617 -24 -64 -47
-69 -63 -72 -220 -3 -133 -2 -147 18 -183 28 -49 84 -81 142 -81 179 0 343
-99 456 -274 155 -239 242 -653 242 -1150 0 -275 26 -565 75 -833 277 -1518
1257 -2458 2827 -2710 l168 -26 0 -596 c0 -676 4 -641 -83 -717 -121 -107
-321 -131 -1189 -141 l-508 -6 0 -310 0 -310 153 7 c971 41 3633 41 4605 0
l152 -7 0 310 0 310 -507 6 c-869 10 -1069 34 -1190 141 -87 76 -83 41 -83
717 l0 596 168 26 c1180 190 2031 767 2496 1696 262 522 405 1174 406 1847 0
497 87 911 242 1150 113 175 277 274 456 274 58 0 114 32 141 80 19 33 21 54
21 175 0 158 -13 196 -80 234 -37 21 -45 21 -621 21 -537 0 -592 -2 -677 -20
-183 -37 -346 -140 -468 -294 -242 -305 -364 -833 -364 -1581 -1 -727 -107
-1326 -320 -1805 -138 -309 -341 -595 -562 -790 -191 -169 -461 -324 -713
-409 l-120 -41 -3 2963 c-3 3335 -11 3010 78 3090 122 110 317 133 1193 144
l507 6 0 310 0 310 -152 -7 c-473 -20 -1258 -30 -2303 -30 -1045 0 -1830 10
-2302 30 l-153 7 0 -310z"/>
</g>
</svg>
