<?xml version="1.0" standalone="no"?>
<!DOCTYPE svg PUBLIC "-//W3C//DTD SVG 20010904//EN"
 "http://www.w3.org/TR/2001/REC-SVG-20010904/DTD/svg10.dtd">
<svg version="1.0" xmlns="http://www.w3.org/2000/svg"
 width="1006.000000pt" height="946.000000pt" viewBox="0 0 1006.000000 946.000000"
 preserveAspectRatio="xMidYMid meet">
<metadata>
Created by potrace 1.16, written by Peter Selinger 2001-2019
</metadata>
<g transform="translate(0.000000,946.000000) scale(0.100000,-0.100000)"
fill="#000000" stroke="none">
<path d="M0 9153 l0 -310 383 -6 c566 -10 750 -31 896 -103 151 -75 44 93
1623 -2554 l1428 -2395 -3 -1465 c-2 -1638 5 -1488 -73 -1564 -103 -100 -263
-123 -941 -133 l-403 -6 0 -310 0 -310 128 7 c819 41 3155 41 3975 0 l127 -7
0 310 0 310 -402 6 c-548 8 -760 27 -864 78 -55 26 -127 105 -142 157 -9 29
-12 396 -12 1481 l0 1442 1318 2210 c858 1441 1339 2239 1381 2291 252 315
703 502 1321 548 74 5 174 10 223 10 l87 0 0 311 0 311 -82 -6 c-540 -41
-2271 -41 -2970 0 l-108 7 0 -312 0 -311 53 0 c76 0 221 -19 304 -41 167 -42
324 -153 380 -266 37 -77 45 -211 16 -293 -11 -31 -503 -865 -1093 -1855 -590
-990 -1073 -1801 -1074 -1802 -1 -1 -256 424 -566 945 -311 521 -845 1417
-1187 1991 -441 738 -623 1052 -623 1073 0 71 74 144 178 176 146 46 379 72
633 72 l139 0 0 311 0 312 -127 -7 c-826 -41 -3117 -41 -3815 0 l-108 7 0
-310z"/>
</g>
</svg>
