<?xml version="1.0" standalone="no"?>
<!DOCTYPE svg PUBLIC "-//W3C//DTD SVG 20010904//EN"
 "http://www.w3.org/TR/2001/REC-SVG-20010904/DTD/svg10.dtd">
<svg version="1.0" xmlns="http://www.w3.org/2000/svg"
 width="877.000000pt" height="977.000000pt" viewBox="0 0 877.000000 977.000000"
 preserveAspectRatio="xMidYMid meet">
<metadata>
Created by potrace 1.16, written by Peter Selinger 2001-2019
</metadata>
<g transform="translate(0.000000,977.000000) scale(0.100000,-0.100000)"
fill="#000000" stroke="none">
<path d="M4020 9759 c-304 -21 -698 -88 -991 -168 -594 -164 -1136 -437 -1599
-807 -169 -135 -435 -400 -565 -564 -243 -304 -432 -645 -552 -995 -111 -327
-161 -662 -150 -1020 23 -770 292 -1511 920 -2536 51 -85 203 -327 337 -539
510 -808 709 -1163 885 -1580 44 -105 165 -439 165 -456 0 -9 -994 -3 -1130 7
-251 17 -430 66 -484 130 -57 67 -140 370 -241 875 -36 179 -65 327 -65 329 0
3 -124 5 -276 5 l-276 0 5 -23 c3 -12 105 -551 227 -1197 122 -646 224 -1185
227 -1197 l5 -23 1270 0 1270 0 38 21 c64 36 80 78 80 210 0 301 -49 735 -126
1124 -96 484 -223 930 -529 1855 -331 1001 -444 1387 -545 1862 -199 933 -182
1790 50 2463 143 414 342 732 641 1020 385 372 865 602 1424 682 151 22 539
22 690 0 648 -93 1211 -400 1612 -880 569 -681 765 -1715 563 -2962 -90 -554
-214 -1003 -605 -2185 -356 -1075 -487 -1559 -580 -2140 -47 -299 -80 -688
-74 -872 4 -104 15 -129 73 -172 27 -21 32 -21 1306 -24 l1278 -2 5 22 c3 13
105 552 227 1198 122 646 224 1185 227 1198 l5 22 -276 0 c-152 0 -276 -2
-276 -5 0 -2 -29 -150 -65 -329 -101 -505 -184 -808 -241 -875 -54 -64 -233
-113 -484 -130 -136 -10 -1130 -16 -1130 -7 0 17 121 351 165 456 176 417 375
772 885 1580 394 624 535 860 702 1180 522 996 676 1882 468 2700 -107 421
-320 841 -615 1210 -130 164 -396 429 -565 564 -228 182 -500 356 -761 487
-747 374 -1655 548 -2549 488z"/>
</g>
</svg>
