<?xml version="1.0" standalone="no"?>
<!DOCTYPE svg PUBLIC "-//W3C//DTD SVG 20010904//EN"
 "http://www.w3.org/TR/2001/REC-SVG-20010904/DTD/svg10.dtd">
<svg version="1.0" xmlns="http://www.w3.org/2000/svg"
 width="707.000000pt" height="626.000000pt" viewBox="0 0 707.000000 626.000000"
 preserveAspectRatio="xMidYMid meet">
<metadata>
Created by potrace 1.16, written by Peter Selinger 2001-2019
</metadata>
<g transform="translate(0.000000,626.000000) scale(0.100000,-0.100000)"
fill="#000000" stroke="none">
<path d="M1055 6184 c-561 -40 -1028 -73 -1037 -73 -17 -1 -18 -20 -18 -261
l0 -260 143 0 c190 0 400 -17 522 -41 235 -47 341 -143 392 -356 15 -62 18
-238 23 -1863 7 -1963 3 -1838 66 -2090 83 -334 247 -616 466 -796 365 -303
860 -443 1561 -444 352 0 615 61 907 211 337 173 624 447 831 790 l49 82 0
-542 0 -543 68 6 c37 4 479 36 982 71 503 35 945 67 983 71 l67 6 0 259 0 259
-142 0 c-191 0 -401 17 -523 41 -235 47 -340 142 -393 356 -15 63 -17 268 -19
2631 l-3 2564 -73 -7 c-59 -5 -2049 -145 -2063 -145 -2 0 -4 -117 -4 -260 l0
-260 143 0 c190 0 400 -17 522 -41 237 -48 342 -144 393 -361 16 -67 17 -191
17 -1548 0 -1556 1 -1521 -46 -1755 -151 -749 -641 -1318 -1245 -1445 -275
-58 -748 -25 -990 69 -142 55 -278 158 -344 261 -72 113 -120 318 -140 600 -6
91 -10 1026 -10 2518 l0 2372 -32 -1 c-18 -1 -492 -34 -1053 -75z"/>
</g>
</svg>
