<?xml version="1.0" standalone="no"?>
<!DOCTYPE svg PUBLIC "-//W3C//DTD SVG 20010904//EN"
 "http://www.w3.org/TR/2001/REC-SVG-20010904/DTD/svg10.dtd">
<svg version="1.0" xmlns="http://www.w3.org/2000/svg"
 width="467.000000pt" height="435.000000pt" viewBox="0 0 467.000000 435.000000"
 preserveAspectRatio="xMidYMid meet">
<metadata>
Created by potrace 1.16, written by Peter Selinger 2001-2019
</metadata>
<g transform="translate(0.000000,435.000000) scale(0.100000,-0.100000)"
fill="#000000" stroke="none">
<path d="M640 4331 c-301 -65 -514 -263 -606 -566 -25 -81 -28 -105 -28 -245
0 -140 3 -164 28 -245 70 -230 212 -403 412 -500 256 -125 624 -107 843 41
l54 37 -6 -159 c-24 -601 -196 -1148 -515 -1644 -125 -194 -374 -492 -506
-603 -65 -56 -86 -91 -86 -142 0 -54 18 -80 132 -192 108 -105 142 -124 203
-109 67 17 351 312 533 552 401 533 649 1161 734 1859 19 157 16 616 -5 756
-101 673 -406 1088 -861 1168 -88 16 -229 12 -326 -8z"/>
<path d="M3450 4331 c-301 -65 -514 -263 -606 -566 -25 -81 -28 -105 -28 -245
0 -140 3 -164 28 -245 70 -230 212 -403 412 -500 256 -125 624 -107 843 41
l54 37 -6 -159 c-24 -601 -196 -1148 -515 -1644 -125 -194 -374 -492 -506
-603 -65 -56 -86 -91 -86 -142 0 -54 18 -80 132 -192 108 -105 142 -124 203
-109 67 17 351 312 533 552 401 533 649 1161 734 1859 19 157 16 616 -5 756
-101 673 -406 1088 -861 1168 -88 16 -229 12 -326 -8z"/>
</g>
</svg>
