<?xml version="1.0" standalone="no"?>
<!DOCTYPE svg PUBLIC "-//W3C//DTD SVG 20010904//EN"
 "http://www.w3.org/TR/2001/REC-SVG-20010904/DTD/svg10.dtd">
<svg version="1.0" xmlns="http://www.w3.org/2000/svg"
 width="596.000000pt" height="968.000000pt" viewBox="0 0 596.000000 968.000000"
 preserveAspectRatio="xMidYMid meet">
<metadata>
Created by potrace 1.16, written by Peter Selinger 2001-2019
</metadata>
<g transform="translate(0.000000,968.000000) scale(0.100000,-0.100000)"
fill="#000000" stroke="none">
<path d="M226 8167 c-120 -831 -220 -1522 -223 -1534 l-5 -23 275 0 276 0 6
33 c3 17 17 109 31 202 84 557 178 903 278 1022 21 25 37 32 98 41 235 37 961
52 2521 52 669 0 1217 -3 1217 -6 0 -3 -287 -400 -637 -882 -351 -482 -710
-985 -798 -1117 -918 -1374 -1486 -2865 -1645 -4320 -34 -312 -43 -472 -44
-760 -1 -312 4 -345 70 -480 88 -180 245 -308 449 -367 114 -33 306 -33 420 0
204 59 361 187 449 367 70 142 68 116 76 890 11 952 30 1387 85 1930 120 1191
403 2099 874 2805 42 63 489 682 993 1376 504 693 925 1276 937 1295 20 32 21
48 21 287 l0 252 -1632 0 c-1904 0 -2349 9 -2738 56 -170 20 -280 47 -375 94
-128 62 -200 147 -212 251 l-6 49 -271 0 -271 0 -219 -1513z"/>
</g>
</svg>
