<?xml version="1.0" standalone="no"?>
<!DOCTYPE svg PUBLIC "-//W3C//DTD SVG 20010904//EN"
 "http://www.w3.org/TR/2001/REC-SVG-20010904/DTD/svg10.dtd">
<svg version="1.0" xmlns="http://www.w3.org/2000/svg"
 width="590.000000pt" height="968.000000pt" viewBox="0 0 590.000000 968.000000"
 preserveAspectRatio="xMidYMid meet">
<metadata>
Created by potrace 1.16, written by Peter Selinger 2001-2019
</metadata>
<g transform="translate(0.000000,968.000000) scale(0.100000,-0.100000)"
fill="#000000" stroke="none">
<path d="M2325 9670 c-391 -40 -811 -188 -1143 -402 -307 -198 -616 -515 -800
-819 -68 -114 -181 -349 -227 -474 -48 -129 -108 -368 -129 -515 -24 -159 -31
-426 -17 -590 91 -1030 782 -1911 1751 -2234 58 -19 533 -141 1055 -270 523
-129 984 -246 1025 -261 400 -144 743 -459 948 -870 144 -290 206 -564 206
-910 0 -215 -13 -331 -61 -520 -128 -514 -482 -966 -932 -1190 -116 -58 -297
-119 -416 -140 -187 -34 -505 -29 -820 11 -1097 140 -1888 725 -2221 1642
-100 275 -156 586 -170 937 -7 176 -15 204 -67 235 -25 16 -50 20 -117 20
-102 0 -147 -18 -172 -70 -17 -33 -18 -130 -18 -1593 0 -1721 -5 -1596 63
-1637 40 -25 135 -27 183 -4 28 13 78 87 310 452 152 241 278 439 280 441 2 2
38 -27 80 -65 396 -357 818 -582 1349 -717 541 -138 1135 -165 1560 -71 922
203 1678 938 1948 1894 75 266 106 462 114 735 37 1225 -669 2322 -1746 2714
-68 25 -391 110 -805 212 -1150 284 -1267 315 -1376 357 -699 275 -1142 1013
-1059 1770 56 519 329 972 758 1254 339 224 705 308 1161 268 782 -69 1362
-402 1769 -1015 285 -430 460 -950 545 -1620 12 -99 28 -190 35 -203 25 -46
68 -62 166 -62 72 0 97 4 122 20 68 41 63 -84 63 1640 0 1724 5 1599 -63 1640
-40 25 -135 27 -183 4 -28 -13 -78 -87 -311 -454 l-278 -438 -120 122 c-420
428 -930 676 -1565 761 -137 19 -548 27 -675 15z"/>
</g>
</svg>
