<?xml version="1.0" standalone="no"?>
<!DOCTYPE svg PUBLIC "-//W3C//DTD SVG 20010904//EN"
 "http://www.w3.org/TR/2001/REC-SVG-20010904/DTD/svg10.dtd">
<svg version="1.0" xmlns="http://www.w3.org/2000/svg"
 width="941.000000pt" height="1008.000000pt" viewBox="0 0 941.000000 1008.000000"
 preserveAspectRatio="xMidYMid meet">
<metadata>
Created by potrace 1.16, written by Peter Selinger 2001-2019
</metadata>
<g transform="translate(0.000000,1008.000000) scale(0.100000,-0.100000)"
fill="#000000" stroke="none">
<path d="M4505 10069 c-1456 -110 -2794 -898 -3630 -2139 -248 -368 -468 -818
-609 -1244 -123 -371 -195 -711 -243 -1136 -24 -219 -24 -801 0 -1020 76 -676
235 -1231 518 -1800 250 -502 524 -889 907 -1282 1085 -1111 2638 -1636 4107
-1388 540 92 1061 311 1415 597 109 88 285 274 359 380 l65 91 64 -86 c81
-109 364 -392 497 -498 240 -192 303 -234 350 -234 39 0 91 27 112 58 17 26
18 99 23 1472 l5 1445 24 58 c44 112 103 154 252 181 112 21 328 36 522 36
l157 0 0 261 0 261 -102 -6 c-671 -41 -2818 -41 -3770 0 l-148 7 0 -262 0
-261 288 0 c513 0 972 -26 1137 -65 36 -8 84 -24 107 -36 63 -32 143 -113 169
-172 l24 -52 3 -650 c2 -436 -1 -683 -8 -749 -22 -188 -84 -358 -190 -519
-270 -409 -759 -680 -1395 -774 -166 -24 -553 -24 -755 1 -347 42 -654 121
-960 246 -788 324 -1434 936 -1801 1705 -321 672 -479 1518 -479 2555 1 1384
278 2423 847 3172 536 706 1308 1166 2180 1298 798 120 1437 -40 2023 -507
118 -94 340 -318 441 -444 184 -231 302 -417 443 -699 235 -472 375 -950 450
-1539 33 -258 37 -261 278 -261 174 0 207 10 240 71 17 32 18 113 18 1934 0
1821 -1 1902 -18 1934 -27 50 -73 71 -157 71 -50 0 -78 -5 -100 -19 -19 -11
-180 -225 -429 -572 -219 -305 -403 -558 -407 -563 -5 -6 -52 35 -115 102
-572 605 -1319 974 -2109 1042 -138 11 -439 11 -600 -1z"/>
</g>
</svg>
