<?xml version="1.0" standalone="no"?>
<!DOCTYPE svg PUBLIC "-//W3C//DTD SVG 20010904//EN"
 "http://www.w3.org/TR/2001/REC-SVG-20010904/DTD/svg10.dtd">
<svg version="1.0" xmlns="http://www.w3.org/2000/svg"
 width="930.000000pt" height="938.000000pt" viewBox="0 0 930.000000 938.000000"
 preserveAspectRatio="xMidYMid meet">
<metadata>
Created by potrace 1.16, written by Peter Selinger 2001-2019
</metadata>
<g transform="translate(0.000000,938.000000) scale(0.100000,-0.100000)"
fill="#000000" stroke="none">
<path d="M0 9157 l0 -224 343 -6 c619 -11 822 -45 915 -152 42 -47 77 -118 91
-183 16 -76 16 -7428 0 -7504 -14 -65 -49 -136 -91 -183 -93 -107 -296 -141
-915 -152 l-343 -6 0 -225 0 -225 117 7 c730 39 2936 39 3666 0 l117 -7 0 225
0 225 -342 6 c-620 11 -823 45 -916 152 -42 47 -77 118 -91 183 -8 38 -11 549
-11 1818 l0 1765 918 -4 c1023 -4 967 0 1207 -77 559 -180 968 -645 1081
-1230 14 -72 18 -204 24 -890 6 -680 9 -819 23 -895 73 -404 215 -684 481
-951 99 -99 161 -150 255 -213 346 -230 762 -361 1275 -401 359 -28 569 3 775
116 404 220 683 742 708 1324 5 130 4 136 -18 169 -45 64 -71 76 -164 76 -69
0 -88 -4 -112 -21 -51 -38 -73 -81 -73 -144 0 -98 -20 -260 -46 -380 -127
-569 -500 -884 -942 -794 -228 46 -388 205 -508 503 -101 251 -147 472 -319
1536 -71 440 -139 830 -156 895 -129 487 -432 894 -896 1201 -169 112 -394
225 -575 290 -38 13 -68 26 -68 29 0 3 41 16 91 29 417 106 905 332 1239 571
293 210 539 470 695 734 424 720 264 1566 -421 2226 -243 234 -534 432 -876
594 -483 230 -1039 367 -1643 406 -100 6 -963 10 -2327 10 l-2168 0 0 -223z
m4490 -250 c548 -67 944 -219 1263 -484 266 -222 421 -548 484 -1019 24 -182
24 -676 0 -858 -69 -517 -245 -846 -581 -1091 -251 -183 -541 -304 -896 -375
-305 -61 -340 -63 -1322 -67 l-898 -4 0 1803 c0 1261 3 1822 11 1863 30 161
111 220 342 245 39 5 385 7 767 6 571 -3 719 -6 830 -19z"/>
</g>
</svg>
