<?xml version="1.0" standalone="no"?>
<!DOCTYPE svg PUBLIC "-//W3C//DTD SVG 20010904//EN"
 "http://www.w3.org/TR/2001/REC-SVG-20010904/DTD/svg10.dtd">
<svg version="1.0" xmlns="http://www.w3.org/2000/svg"
 width="338.000000pt" height="256.000000pt" viewBox="0 0 338.000000 256.000000"
 preserveAspectRatio="xMidYMid meet">
<metadata>
Created by potrace 1.16, written by Peter Selinger 2001-2019
</metadata>
<g transform="translate(0.000000,256.000000) scale(0.100000,-0.100000)"
fill="#000000" stroke="none">
<path d="M1150 2227 l0 -334 113 -6 c477 -28 844 -203 975 -466 52 -104 65
-169 60 -300 -5 -125 -27 -190 -93 -280 -60 -82 -139 -142 -270 -206 -203
-100 -472 -159 -895 -196 -69 -6 -303 -12 -520 -15 -217 -2 -423 -7 -457 -10
l-63 -6 0 -201 0 -202 407 2 c938 6 1482 51 1920 158 573 141 889 371 1003
730 31 97 40 335 16 449 -61 294 -254 517 -591 681 -121 59 -297 120 -447 156
l-98 23 0 178 0 178 -530 0 -530 0 0 -333z"/>
</g>
</svg>
