<?xml version="1.0" standalone="no"?>
<!DOCTYPE svg PUBLIC "-//W3C//DTD SVG 20010904//EN"
 "http://www.w3.org/TR/2001/REC-SVG-20010904/DTD/svg10.dtd">
<svg version="1.0" xmlns="http://www.w3.org/2000/svg"
 width="620.000000pt" height="991.000000pt" viewBox="0 0 620.000000 991.000000"
 preserveAspectRatio="xMidYMid meet">
<metadata>
Created by potrace 1.16, written by Peter Selinger 2001-2019
</metadata>
<g transform="translate(0.000000,991.000000) scale(0.100000,-0.100000)"
fill="#000000" stroke="none">
<path d="M3190 9904 c-519 -48 -987 -226 -1360 -517 -88 -69 -259 -236 -329
-322 -196 -239 -338 -536 -403 -841 l-23 -109 -3 -1002 -3 -1003 -534 0 -535
0 0 -260 0 -260 535 0 535 0 -2 -2317 -3 -2318 -23 -57 c-34 -84 -95 -142
-174 -166 -126 -39 -374 -61 -690 -62 l-178 0 0 -261 0 -261 92 6 c423 28
1640 41 1833 18 61 -7 122 -15 138 -18 l27 -6 0 3934 c0 2651 4 3972 11 4053
37 433 171 751 418 995 189 188 390 296 646 346 109 22 347 25 449 6 443 -83
790 -395 941 -845 72 -216 100 -416 100 -722 -1 -376 -56 -652 -185 -921 -205
-427 -620 -744 -1102 -844 -108 -22 -262 -40 -345 -40 -68 0 -113 -23 -143
-72 -16 -27 -20 -51 -20 -131 0 -171 25 -196 200 -209 223 -16 403 -62 595
-152 405 -192 757 -560 1001 -1047 249 -496 374 -1081 391 -1829 20 -915 -153
-1519 -552 -1915 -122 -122 -209 -184 -348 -250 -141 -67 -243 -89 -412 -89
-154 0 -229 14 -347 63 -65 28 -188 100 -188 111 1 3 35 21 78 40 185 84 295
267 295 490 0 249 -136 441 -368 517 -105 34 -247 36 -345 4 -288 -92 -425
-351 -365 -692 80 -461 461 -821 982 -926 109 -22 431 -25 568 -4 729 107
1356 514 1750 1136 140 221 280 563 335 820 72 335 78 719 19 1130 -172 1190
-873 2208 -1849 2687 -93 46 -169 85 -169 88 -1 3 41 21 92 40 150 55 432 201
577 298 572 382 927 924 991 1510 15 141 6 368 -21 497 -179 855 -940 1502
-1950 1656 -131 20 -513 34 -630 23z"/>
</g>
</svg>
