<?xml version="1.0" standalone="no"?>
<!DOCTYPE svg PUBLIC "-//W3C//DTD SVG 20010904//EN"
 "http://www.w3.org/TR/2001/REC-SVG-20010904/DTD/svg10.dtd">
<svg version="1.0" xmlns="http://www.w3.org/2000/svg"
 width="863.000000pt" height="942.000000pt" viewBox="0 0 863.000000 942.000000"
 preserveAspectRatio="xMidYMid meet">
<metadata>
Created by potrace 1.16, written by Peter Selinger 2001-2019
</metadata>
<g transform="translate(0.000000,942.000000) scale(0.100000,-0.100000)"
fill="#000000" stroke="none">
<path d="M0 9162 l0 -259 373 -6 c717 -12 882 -44 981 -190 72 -107 66 261 66
-3997 0 -4258 6 -3890 -66 -3997 -99 -146 -264 -178 -981 -190 l-373 -6 0
-259 0 -258 4019 0 4019 0 6 28 c3 15 132 826 286 1802 154 976 283 1787 286
1803 l6 27 -226 0 -225 0 -6 -32 c-3 -18 -26 -157 -51 -308 -159 -963 -335
-1521 -605 -1924 -292 -437 -802 -718 -1484 -816 -375 -55 -625 -62 -1880 -57
-917 3 -1070 6 -1138 20 -139 28 -194 68 -234 168 -17 41 -18 155 -21 1982
l-2 1939 757 -5 c799 -5 873 -9 1090 -56 314 -68 511 -203 633 -432 103 -193
160 -535 160 -961 l0 -158 225 0 225 0 0 1870 0 1870 -225 0 -225 0 0 -157 c0
-87 -5 -223 -10 -303 -48 -682 -259 -977 -783 -1091 -217 -47 -291 -51 -1090
-56 l-757 -5 2 1759 c3 1697 4 1760 22 1807 38 98 105 141 266 168 108 19
2350 19 2565 0 738 -63 1160 -216 1481 -536 303 -304 485 -743 603 -1465 23
-136 91 -637 91 -666 0 -3 102 -5 226 -5 l226 0 -6 38 c-3 20 -87 726 -186
1567 -99 842 -183 1547 -186 1568 l-6 37 -3924 0 -3924 0 0 -258z"/>
</g>
</svg>
