<?xml version="1.0" standalone="no"?>
<!DOCTYPE svg PUBLIC "-//W3C//DTD SVG 20010904//EN"
 "http://www.w3.org/TR/2001/REC-SVG-20010904/DTD/svg10.dtd">
<svg version="1.0" xmlns="http://www.w3.org/2000/svg"
 width="592.000000pt" height="952.000000pt" viewBox="0 0 592.000000 952.000000"
 preserveAspectRatio="xMidYMid meet">
<metadata>
Created by potrace 1.16, written by Peter Selinger 2001-2019
</metadata>
<g transform="translate(0.000000,952.000000) scale(0.100000,-0.100000)"
fill="#000000" stroke="none">
<path d="M3055 9514 c-16 -2 -73 -9 -125 -15 -398 -45 -814 -209 -1127 -443
-391 -292 -641 -672 -744 -1131 -23 -99 -23 -106 -26 -1077 l-4 -978 -514 0
-515 0 0 -225 0 -225 515 0 515 0 0 -2227 c0 -2384 1 -2303 -48 -2399 -27 -52
-77 -99 -133 -123 -96 -43 -365 -71 -681 -71 l-168 0 0 -226 0 -226 93 6 c211
14 731 27 1152 29 422 2 548 -4 678 -29 l27 -6 0 3784 c0 2562 3 3820 11 3898
21 230 83 469 166 634 128 255 345 474 588 591 341 165 729 164 1061 -1 172
-86 346 -239 454 -399 320 -474 362 -1310 94 -1884 -141 -301 -417 -577 -727
-725 -224 -107 -514 -176 -744 -176 -116 0 -163 -51 -163 -175 0 -117 46 -165
157 -165 32 0 107 -7 166 -15 715 -95 1333 -694 1640 -1590 270 -790 290
-1988 44 -2631 -205 -533 -588 -887 -1022 -945 -205 -27 -443 20 -615 121
-107 63 -141 100 -92 100 10 0 50 16 90 35 243 116 340 421 215 675 -145 296
-565 360 -803 121 -102 -102 -146 -230 -137 -401 7 -136 35 -241 97 -367 152
-308 457 -525 855 -608 233 -49 582 -24 897 65 737 207 1349 801 1598 1550 81
245 118 459 127 730 20 660 -159 1367 -488 1926 -359 611 -884 1086 -1481
1340 l-100 42 69 22 c246 81 483 197 698 340 489 327 796 757 907 1270 32 152
32 448 0 599 -52 237 -139 445 -267 636 -334 500 -911 843 -1590 946 -124 19
-520 34 -600 23z"/>
</g>
</svg>
