<?xml version="1.0" standalone="no"?>
<!DOCTYPE svg PUBLIC "-//W3C//DTD SVG 20010904//EN"
 "http://www.w3.org/TR/2001/REC-SVG-20010904/DTD/svg10.dtd">
<svg version="1.0" xmlns="http://www.w3.org/2000/svg"
 width="1372.000000pt" height="977.000000pt" viewBox="0 0 1372.000000 977.000000"
 preserveAspectRatio="xMidYMid meet">
<metadata>
Created by potrace 1.16, written by Peter Selinger 2001-2019
</metadata>
<g transform="translate(0.000000,977.000000) scale(0.100000,-0.100000)"
fill="#000000" stroke="none">
<path d="M0 9513 l0 -260 293 -6 c406 -9 582 -30 695 -84 79 -37 153 -116 201
-215 28 -57 486 -1465 1450 -4456 1018 -3159 1417 -4383 1435 -4407 14 -18 49
-45 78 -59 47 -23 63 -26 162 -26 61 0 128 5 150 11 55 15 121 80 144 142 10
29 520 1608 1133 3509 1081 3354 1114 3456 1126 3420 7 -20 503 -1560 1103
-3422 600 -1862 1103 -3421 1117 -3465 21 -64 35 -89 72 -126 57 -58 94 -69
237 -69 99 0 115 3 162 26 29 14 64 41 78 59 18 24 402 1201 1380 4235 745
2311 1367 4229 1383 4264 101 224 270 395 496 506 194 95 403 143 677 157
l138 6 0 260 0 259 -72 -6 c-488 -41 -2074 -41 -2830 0 l-118 7 0 -262 0 -261
63 0 c95 0 269 -19 379 -41 420 -84 715 -308 758 -574 9 -55 9 -82 -2 -127
-18 -78 -2052 -6388 -2059 -6388 -3 0 -495 1519 -1093 3375 -987 3060 -1088
3379 -1084 3425 20 204 326 312 931 327 l237 6 0 260 0 260 -127 -7 c-829 -41
-2828 -41 -3525 0 l-108 7 0 -260 0 -260 293 -6 c401 -9 579 -30 695 -82 76
-35 160 -123 205 -215 20 -41 111 -305 201 -587 l164 -512 -924 -2867 c-509
-1578 -926 -2869 -927 -2871 -3 -2 -2164 6700 -2182 6764 -17 63 46 168 135
225 141 89 493 148 893 148 l147 0 0 261 0 262 -127 -7 c-821 -41 -2901 -41
-3535 0 l-98 7 0 -260z"/>
</g>
</svg>
