<?xml version="1.0" standalone="no"?>
<!DOCTYPE svg PUBLIC "-//W3C//DTD SVG 20010904//EN"
 "http://www.w3.org/TR/2001/REC-SVG-20010904/DTD/svg10.dtd">
<svg version="1.0" xmlns="http://www.w3.org/2000/svg"
 width="1184.000000pt" height="946.000000pt" viewBox="0 0 1184.000000 946.000000"
 preserveAspectRatio="xMidYMid meet">
<metadata>
Created by potrace 1.16, written by Peter Selinger 2001-2019
</metadata>
<g transform="translate(0.000000,946.000000) scale(0.100000,-0.100000)"
fill="#000000" stroke="none">
<path d="M0 9152 l0 -309 403 -6 c545 -8 760 -27 862 -77 50 -24 108 -78 132
-123 17 -30 18 -227 21 -3705 2 -4054 7 -3737 -60 -3866 -47 -90 -173 -211
-273 -263 -223 -115 -481 -167 -882 -180 l-203 -6 0 -310 0 -309 103 6 c672
41 2594 41 3230 0 l97 -7 0 310 0 310 -202 6 c-402 13 -660 65 -883 180 -100
52 -226 173 -273 263 -67 129 -62 -191 -60 3895 l3 3703 1599 -4245 c880
-2334 1610 -4265 1622 -4291 26 -52 74 -93 131 -114 51 -18 285 -18 336 0 54
20 104 61 127 106 11 22 747 1969 1636 4327 889 2358 1620 4297 1624 4308 5
11 8 -1762 7 -3940 -2 -3752 -3 -3962 -20 -3992 -24 -45 -82 -99 -132 -123
-102 -50 -317 -69 -862 -77 l-403 -6 0 -310 0 -310 123 7 c788 41 3116 41
3905 0 l122 -7 0 310 0 310 -402 6 c-546 8 -761 27 -863 77 -50 24 -108 78
-132 123 -17 30 -18 234 -18 3907 0 3673 1 3877 18 3907 24 45 82 99 132 123
102 50 317 69 863 77 l402 6 0 309 0 308 -1426 0 c-1076 0 -1436 -3 -1467 -12
-21 -6 -59 -30 -84 -52 -37 -35 -52 -60 -92 -161 -26 -66 -674 -1786 -1441
-3822 -767 -2037 -1397 -3703 -1400 -3703 -3 0 -633 1666 -1400 3703 -767
2036 -1415 3756 -1441 3822 -40 101 -55 126 -92 161 -25 22 -63 46 -84 52 -31
9 -392 12 -1472 12 l-1431 0 0 -308z"/>
</g>
</svg>
