<?xml version="1.0" standalone="no"?>
<!DOCTYPE svg PUBLIC "-//W3C//DTD SVG 20010904//EN"
 "http://www.w3.org/TR/2001/REC-SVG-20010904/DTD/svg10.dtd">
<svg version="1.0" xmlns="http://www.w3.org/2000/svg"
 width="176.000000pt" height="425.000000pt" viewBox="0 0 176.000000 425.000000"
 preserveAspectRatio="xMidYMid meet">
<metadata>
Created by potrace 1.16, written by Peter Selinger 2001-2019
</metadata>
<g transform="translate(0.000000,425.000000) scale(0.100000,-0.100000)"
fill="#000000" stroke="none">
<path d="M650 4243 c-385 -65 -650 -380 -650 -773 0 -357 220 -655 556 -752
66 -19 103 -23 224 -23 121 0 158 4 224 23 103 30 223 93 286 149 l50 45 0
-135 c0 -442 -91 -897 -257 -1286 -173 -405 -399 -736 -726 -1062 -183 -183
-187 -207 -49 -342 133 -129 156 -124 345 61 310 305 529 610 723 1007 265
544 389 1109 371 1690 -25 768 -329 1290 -810 1389 -70 15 -225 19 -287 9z"/>
</g>
</svg>
