<?xml version="1.0" standalone="no"?>
<!DOCTYPE svg PUBLIC "-//W3C//DTD SVG 20010904//EN"
 "http://www.w3.org/TR/2001/REC-SVG-20010904/DTD/svg10.dtd">
<svg version="1.0" xmlns="http://www.w3.org/2000/svg"
 width="1269.000000pt" height="1008.000000pt" viewBox="0 0 1269.000000 1008.000000"
 preserveAspectRatio="xMidYMid meet">
<metadata>
Created by potrace 1.16, written by Peter Selinger 2001-2019
</metadata>
<g transform="translate(0.000000,1008.000000) scale(0.100000,-0.100000)"
fill="#000000" stroke="none">
<path d="M4300 10070 c-1229 -105 -2339 -706 -3139 -1700 -256 -318 -449 -625
-629 -1000 -465 -965 -634 -2108 -471 -3179 322 -2120 1849 -3774 3809 -4125
266 -47 414 -60 705 -60 361 0 485 17 1112 153 327 72 464 98 663 128 107 16
318 17 2932 20 l2816 3 6 28 c3 15 132 826 286 1802 154 976 283 1787 286
1802 l6 28 -226 0 -225 0 -6 -32 c-3 -18 -26 -157 -51 -308 -186 -1134 -398
-1765 -716 -2128 -264 -301 -708 -518 -1238 -606 -354 -59 -616 -68 -1690 -63
-763 3 -906 6 -973 20 -138 28 -194 68 -234 168 -17 41 -18 155 -21 1992 l-2
1947 757 0 c760 0 980 -7 1192 -36 326 -44 564 -151 699 -313 191 -229 272
-559 272 -1108 l0 -153 225 0 225 0 0 1870 0 1870 -225 0 -225 0 0 -152 c0
-376 -41 -662 -123 -858 -163 -394 -457 -548 -1122 -590 -88 -5 -501 -10 -918
-10 l-757 0 2 1768 c3 1706 4 1769 22 1816 38 98 105 141 266 168 108 19 2045
19 2245 0 543 -49 893 -161 1187 -379 395 -292 609 -791 748 -1747 16 -111 70
-528 70 -543 0 -2 102 -3 226 -3 l226 0 -6 38 c-3 20 -87 726 -186 1567 -99
842 -183 1547 -186 1567 l-6 38 -2721 3 c-2524 3 -2730 4 -2837 20 -199 30
-335 56 -685 132 -572 124 -711 145 -1030 150 -126 2 -277 0 -335 -5z m555
-410 c544 -51 880 -240 1034 -583 102 -228 178 -589 215 -1027 38 -447 40
-618 40 -3010 0 -2392 -2 -2563 -40 -3010 -46 -546 -146 -944 -289 -1160 -51
-77 -154 -177 -238 -233 -236 -157 -611 -238 -1027 -224 -314 11 -591 80 -878
219 -967 469 -1748 1660 -2048 3122 -169 828 -189 1760 -54 2551 243 1419 998
2600 1981 3100 279 142 588 233 874 258 92 8 328 6 430 -3z"/>
</g>
</svg>
