<?xml version="1.0" standalone="no"?>
<!DOCTYPE svg PUBLIC "-//W3C//DTD SVG 20010904//EN"
 "http://www.w3.org/TR/2001/REC-SVG-20010904/DTD/svg10.dtd">
<svg version="1.0" xmlns="http://www.w3.org/2000/svg"
 width="841.000000pt" height="938.000000pt" viewBox="0 0 841.000000 938.000000"
 preserveAspectRatio="xMidYMid meet">
<metadata>
Created by potrace 1.16, written by Peter Selinger 2001-2019
</metadata>
<g transform="translate(0.000000,938.000000) scale(0.100000,-0.100000)"
fill="#000000" stroke="none">
<path d="M3925 9374 c-722 -54 -1271 -197 -1829 -476 -882 -441 -1526 -1147
-1801 -1973 -94 -282 -132 -493 -142 -785 -19 -586 120 -1149 448 -1810 186
-374 327 -610 757 -1270 584 -895 782 -1243 962 -1695 51 -129 134 -379 146
-440 l7 -37 -669 5 c-421 3 -702 9 -759 16 -133 18 -253 48 -310 79 -44 24
-55 37 -87 102 -61 122 -166 524 -248 945 -12 61 -24 118 -26 128 -5 15 -23
17 -190 17 l-184 0 5 -23 c3 -12 100 -492 215 -1067 115 -575 212 -1055 215
-1067 l5 -23 1176 0 c1301 0 1218 -4 1267 64 28 40 34 158 18 395 -39 572
-155 1118 -408 1911 -31 96 -138 411 -238 700 -359 1032 -465 1381 -569 1870
-196 925 -159 1760 111 2445 349 888 1101 1487 2048 1631 169 26 541 26 710 0
555 -85 1039 -321 1432 -700 771 -741 1030 -1947 727 -3376 -104 -489 -210
-838 -569 -1870 -301 -868 -432 -1305 -529 -1765 -76 -367 -126 -788 -126
-1081 0 -99 2 -115 23 -145 12 -18 38 -44 56 -56 l34 -23 1178 0 1179 0 5 23
c3 12 100 492 215 1067 115 575 212 1055 215 1067 l5 23 -184 0 c-167 0 -185
-2 -190 -17 -2 -10 -14 -67 -26 -128 -82 -421 -187 -823 -248 -945 -32 -65
-43 -78 -87 -102 -57 -31 -177 -61 -310 -79 -57 -7 -338 -13 -759 -16 l-669
-5 7 37 c12 61 95 311 146 440 180 452 378 800 962 1695 430 660 571 896 757
1270 328 661 467 1224 448 1810 -10 292 -48 503 -142 785 -275 826 -919 1532
-1801 1973 -494 247 -994 390 -1604 458 -127 14 -661 27 -775 18z"/>
</g>
</svg>
