<?xml version="1.0" standalone="no"?>
<!DOCTYPE svg PUBLIC "-//W3C//DTD SVG 20010904//EN"
 "http://www.w3.org/TR/2001/REC-SVG-20010904/DTD/svg10.dtd">
<svg version="1.0" xmlns="http://www.w3.org/2000/svg"
 width="977.000000pt" height="946.000000pt" viewBox="0 0 977.000000 946.000000"
 preserveAspectRatio="xMidYMid meet">
<metadata>
Created by potrace 1.16, written by Peter Selinger 2001-2019
</metadata>
<g transform="translate(0.000000,946.000000) scale(0.100000,-0.100000)"
fill="#000000" stroke="none">
<path d="M0 9203 l0 -260 373 -6 c717 -12 882 -44 981 -190 72 -107 66 263 66
-4017 0 -4280 6 -3910 -66 -4017 -99 -146 -264 -178 -981 -190 l-373 -6 0
-260 0 -260 127 7 c826 41 3090 41 3916 0 l127 -7 0 260 0 260 -372 6 c-718
12 -883 44 -982 190 -70 104 -66 18 -65 1466 l0 1306 753 725 c415 399 758
725 764 725 15 0 2463 -3656 2519 -3761 64 -119 85 -187 87 -274 1 -63 -4 -84
-26 -130 -82 -167 -297 -249 -655 -250 l-103 0 0 -261 0 -262 128 7 c816 41
2841 41 3450 0 l92 -6 0 261 0 261 -142 0 c-469 0 -764 65 -958 209 -83 62
-213 195 -295 301 -40 53 -778 1148 -1639 2435 l-1566 2340 67 66 c104 102
2306 2222 2412 2322 484 457 1093 710 1790 743 l141 7 0 260 0 259 -62 -6
c-425 -41 -2095 -41 -2885 0 l-123 7 0 -262 0 -261 48 0 c118 -1 292 -52 375
-109 63 -44 122 -110 154 -171 25 -50 28 -65 28 -156 0 -99 -1 -102 -44 -190
-41 -81 -57 -101 -190 -231 -80 -78 -1039 -1003 -2131 -2056 l-1985 -1914 -3
2236 c-2 2481 -7 2292 64 2398 99 146 264 178 982 190 l372 6 0 260 0 260
-127 -7 c-826 -41 -3090 -41 -3915 0 l-128 7 0 -260z"/>
</g>
</svg>
