<?xml version="1.0" standalone="no"?>
<!DOCTYPE svg PUBLIC "-//W3C//DTD SVG 20010904//EN"
 "http://www.w3.org/TR/2001/REC-SVG-20010904/DTD/svg10.dtd">
<svg version="1.0" xmlns="http://www.w3.org/2000/svg"
 width="845.000000pt" height="946.000000pt" viewBox="0 0 845.000000 946.000000"
 preserveAspectRatio="xMidYMid meet">
<metadata>
Created by potrace 1.16, written by Peter Selinger 2001-2019
</metadata>
<g transform="translate(0.000000,946.000000) scale(0.100000,-0.100000)"
fill="#000000" stroke="none">
<path d="M95 9446 c-37 -16 -70 -52 -84 -89 -6 -16 -11 -91 -11 -167 l0 -139
53 -78 c29 -43 805 -1148 1726 -2456 920 -1308 1671 -2384 1668 -2390 -3 -7
-775 -885 -1716 -1952 -1276 -1445 -1714 -1948 -1722 -1976 -22 -73 17 -156
88 -185 27 -12 671 -14 3997 -14 l3965 0 6 43 c3 23 86 762 185 1642 99 880
182 1619 185 1643 l6 42 -225 0 -225 0 -5 -42 c-3 -24 -15 -113 -26 -198 -102
-775 -292 -1311 -600 -1694 -85 -105 -264 -274 -355 -335 -307 -205 -788 -331
-1475 -386 -389 -31 -811 -36 -2623 -33 l-1797 3 1606 1820 c884 1001 1671
1894 1750 1983 162 185 179 216 153 286 -11 30 -2738 3923 -2896 4134 l-25 33
1733 -4 c1744 -4 1836 -6 2224 -42 623 -59 1047 -179 1355 -383 49 -32 135
-106 201 -172 180 -178 290 -337 410 -585 175 -365 269 -741 365 -1462 l5 -43
225 0 226 0 -6 38 c-3 20 -87 726 -186 1567 -99 842 -183 1547 -186 1568 l-6
37 -3966 0 c-3284 -1 -3972 -3 -3997 -14z"/>
</g>
</svg>
