<?xml version="1.0" standalone="no"?>
<!DOCTYPE svg PUBLIC "-//W3C//DTD SVG 20010904//EN"
 "http://www.w3.org/TR/2001/REC-SVG-20010904/DTD/svg10.dtd">
<svg version="1.0" xmlns="http://www.w3.org/2000/svg"
 width="328.000000pt" height="1384.000000pt" viewBox="0 0 328.000000 1384.000000"
 preserveAspectRatio="xMidYMid meet">
<metadata>
Created by potrace 1.16, written by Peter Selinger 2001-2019
</metadata>
<g transform="translate(0.000000,1384.000000) scale(0.100000,-0.100000)"
fill="#000000" stroke="none">
<path d="M2933 13823 c-101 -55 -536 -451 -753 -685 -813 -876 -1399 -1933
-1765 -3188 -215 -738 -336 -1452 -397 -2340 -17 -245 -17 -1135 0 -1380 51
-744 141 -1346 293 -1955 432 -1730 1266 -3132 2457 -4129 175 -146 174 -146
297 -146 116 0 157 15 187 71 37 70 20 120 -69 203 -75 70 -315 330 -426 463
-1227 1466 -1847 3542 -1847 6183 0 819 53 1520 170 2235 262 1610 820 2924
1677 3948 111 133 351 393 426 463 32 30 65 66 73 82 31 60 5 141 -57 174 -47
25 -220 26 -266 1z"/>
</g>
</svg>
