<?xml version="1.0" standalone="no"?>
<!DOCTYPE svg PUBLIC "-//W3C//DTD SVG 20010904//EN"
 "http://www.w3.org/TR/2001/REC-SVG-20010904/DTD/svg10.dtd">
<svg version="1.0" xmlns="http://www.w3.org/2000/svg"
 width="678.000000pt" height="611.000000pt" viewBox="0 0 678.000000 611.000000"
 preserveAspectRatio="xMidYMid meet">
<metadata>
Created by potrace 1.16, written by Peter Selinger 2001-2019
</metadata>
<g transform="translate(0.000000,611.000000) scale(0.100000,-0.100000)"
fill="#000000" stroke="none">
<path d="M0 5853 l0 -260 253 -6 c343 -9 497 -31 608 -87 54 -28 134 -110 177
-183 19 -31 479 -1187 1023 -2569 544 -1382 1001 -2542 1016 -2577 32 -78 86
-133 150 -155 61 -21 254 -22 311 -2 58 21 100 54 127 101 13 22 436 1088 940
2370 504 1282 935 2368 956 2414 197 424 569 658 1096 688 l113 6 0 260 0 259
-62 -6 c-418 -40 -1723 -40 -2205 0 l-73 6 0 -259 0 -260 74 -7 c106 -10 178
-30 276 -78 227 -111 340 -345 286 -596 -16 -73 -1368 -3514 -1377 -3504 -3 4
-343 862 -754 1907 -690 1750 -749 1905 -749 1960 -3 198 189 297 602 312
l172 6 0 260 0 260 -97 -7 c-633 -41 -2233 -41 -2780 0 l-83 6 0 -259z"/>
</g>
</svg>
