<?xml version="1.0" standalone="no"?>
<!DOCTYPE svg PUBLIC "-//W3C//DTD SVG 20010904//EN"
 "http://www.w3.org/TR/2001/REC-SVG-20010904/DTD/svg10.dtd">
<svg version="1.0" xmlns="http://www.w3.org/2000/svg"
 width="477.000000pt" height="923.000000pt" viewBox="0 0 477.000000 923.000000"
 preserveAspectRatio="xMidYMid meet">
<metadata>
Created by potrace 1.16, written by Peter Selinger 2001-2019
</metadata>
<g transform="translate(0.000000,923.000000) scale(0.100000,-0.100000)"
fill="#000000" stroke="none">
<path d="M2581 9156 c-388 -362 -923 -612 -1565 -731 -270 -50 -643 -85 -898
-85 l-118 0 0 -310 0 -310 118 0 c539 0 1191 115 1593 280 39 17 76 30 80 30
5 0 9 -1577 9 -3572 0 -3435 -1 -3575 -19 -3613 -36 -80 -126 -141 -252 -169
-147 -34 -602 -56 -1146 -56 l-313 0 0 -311 0 -312 148 7 c945 41 3449 41
4395 0 l147 -7 0 312 0 311 -312 0 c-545 0 -1000 22 -1147 56 -126 28 -216 89
-252 169 -18 38 -19 196 -19 4154 l0 4113 -21 38 c-37 66 -77 80 -223 80
l-126 0 -79 -74z"/>
</g>
</svg>
