<?xml version="1.0" standalone="no"?>
<!DOCTYPE svg PUBLIC "-//W3C//DTD SVG 20010904//EN"
 "http://www.w3.org/TR/2001/REC-SVG-20010904/DTD/svg10.dtd">
<svg version="1.0" xmlns="http://www.w3.org/2000/svg"
 width="631.000000pt" height="634.000000pt" viewBox="0 0 631.000000 634.000000"
 preserveAspectRatio="xMidYMid meet">
<metadata>
Created by potrace 1.16, written by Peter Selinger 2001-2019
</metadata>
<g transform="translate(0.000000,634.000000) scale(0.100000,-0.100000)"
fill="#000000" stroke="none">
<path d="M2220 6330 c-542 -44 -984 -176 -1303 -389 -347 -233 -534 -580 -514
-960 9 -192 74 -338 204 -462 128 -121 288 -182 478 -182 130 0 203 17 323 74
154 74 272 211 329 384 24 72 27 95 27 225 0 133 -2 151 -28 225 -15 44 -41
104 -58 133 -67 117 -197 226 -332 277 l-61 23 86 40 c185 86 452 154 739 188
208 25 556 25 670 1 253 -54 465 -167 657 -351 250 -238 404 -533 470 -901 12
-69 17 -179 20 -467 l5 -378 -79 0 c-276 0 -849 -54 -1188 -111 -760 -128
-1455 -393 -1887 -720 -108 -82 -314 -283 -393 -384 -183 -234 -298 -475 -357
-750 -18 -82 -22 -134 -22 -290 -1 -174 2 -199 26 -297 105 -416 373 -730 814
-955 361 -185 787 -286 1264 -300 388 -11 715 55 1035 211 397 192 670 442
903 825 15 24 16 22 33 -65 79 -389 337 -718 663 -845 204 -79 475 -76 726 8
360 120 651 408 770 761 54 162 60 235 60 775 l0 487 -224 0 -225 0 -3 -533
c-4 -512 -5 -535 -26 -612 -52 -189 -142 -318 -260 -373 -48 -23 -71 -27 -142
-27 -71 0 -94 4 -142 27 -118 55 -207 183 -260 373 l-23 80 -5 1740 -6 1740
-22 99 c-131 574 -510 1045 -1082 1345 -285 149 -566 240 -905 291 -159 24
-570 35 -755 20z m1707 -3722 c-3 -709 -6 -824 -20 -898 -115 -584 -510 -1036
-1065 -1220 -170 -56 -286 -74 -482 -74 -220 -1 -346 26 -529 110 -228 105
-439 311 -549 535 -246 505 -70 1198 418 1640 368 334 956 571 1659 669 188
26 401 47 499 49 l73 1 -4 -812z"/>
</g>
</svg>
