<?xml version="1.0" standalone="no"?>
<!DOCTYPE svg PUBLIC "-//W3C//DTD SVG 20010904//EN"
 "http://www.w3.org/TR/2001/REC-SVG-20010904/DTD/svg10.dtd">
<svg version="1.0" xmlns="http://www.w3.org/2000/svg"
 width="885.000000pt" height="886.000000pt" viewBox="0 0 885.000000 886.000000"
 preserveAspectRatio="xMidYMid meet">
<metadata>
Created by potrace 1.16, written by Peter Selinger 2001-2019
</metadata>
<g transform="translate(0.000000,886.000000) scale(0.100000,-0.100000)"
fill="#000000" stroke="none">
<path d="M4341 8849 c-82 -25 -157 -102 -180 -185 -8 -27 -11 -621 -11 -2001
l0 -1963 -1977 -2 c-1944 -3 -1979 -3 -2018 -23 -50 -25 -105 -80 -130 -130
-27 -55 -27 -175 0 -230 25 -50 80 -105 130 -130 39 -20 74 -20 2017 -23
l1978 -2 2 -1983 c3 -1948 3 -1983 23 -2022 25 -50 80 -105 130 -130 55 -27
175 -27 230 0 50 25 105 80 130 130 20 39 20 74 23 2022 l2 1983 1978 2 c1943
3 1978 3 2017 23 50 25 105 80 130 130 27 55 27 175 0 230 -25 50 -80 105
-130 130 -39 20 -74 20 -2017 23 l-1978 2 -2 1983 c-3 1948 -3 1983 -23 2022
-25 51 -80 106 -130 129 -46 22 -146 30 -194 15z"/>
</g>
</svg>
