<?xml version="1.0" standalone="no"?>
<!DOCTYPE svg PUBLIC "-//W3C//DTD SVG 20010904//EN"
 "http://www.w3.org/TR/2001/REC-SVG-20010904/DTD/svg10.dtd">
<svg version="1.0" xmlns="http://www.w3.org/2000/svg"
 width="922.000000pt" height="1008.000000pt" viewBox="0 0 922.000000 1008.000000"
 preserveAspectRatio="xMidYMid meet">
<metadata>
Created by potrace 1.16, written by Peter Selinger 2001-2019
</metadata>
<g transform="translate(0.000000,1008.000000) scale(0.100000,-0.100000)"
fill="#000000" stroke="none">
<path d="M4295 10069 c-1331 -101 -2558 -834 -3370 -2014 -311 -451 -572
-1015 -721 -1555 -466 -1685 -122 -3467 921 -4772 434 -544 961 -972 1567
-1273 459 -228 939 -370 1466 -432 206 -24 688 -24 894 0 1307 155 2442 845
3226 1962 1007 1435 1214 3379 540 5070 -646 1620 -2043 2765 -3643 2984 -289
40 -607 51 -880 30z m655 -424 c459 -66 912 -270 1310 -589 775 -622 1281
-1651 1445 -2941 78 -615 85 -1396 19 -2025 -103 -989 -397 -1815 -871 -2448
-495 -660 -1156 -1073 -1903 -1189 -161 -24 -529 -24 -690 0 -747 116 -1408
529 -1903 1189 -474 633 -768 1459 -871 2448 -56 529 -60 1203 -10 1744 73
809 256 1489 558 2071 246 475 550 857 916 1151 446 357 907 548 1465 608 86
9 425 -3 535 -19z"/>
<path d="M2220 5055 l0 -1045 225 0 225 0 0 235 0 235 1935 0 1935 0 0 -235 0
-235 225 0 225 0 0 1045 0 1045 -225 0 -225 0 0 -235 0 -235 -1935 0 -1935 0
0 235 0 235 -225 0 -225 0 0 -1045z"/>
</g>
</svg>
