<?xml version="1.0" standalone="no"?>
<!DOCTYPE svg PUBLIC "-//W3C//DTD SVG 20010904//EN"
 "http://www.w3.org/TR/2001/REC-SVG-20010904/DTD/svg10.dtd">
<svg version="1.0" xmlns="http://www.w3.org/2000/svg"
 width="897.000000pt" height="908.000000pt" viewBox="0 0 897.000000 908.000000"
 preserveAspectRatio="xMidYMid meet">
<metadata>
Created by potrace 1.16, written by Peter Selinger 2001-2019
</metadata>
<g transform="translate(0.000000,908.000000) scale(0.100000,-0.100000)"
fill="#000000" stroke="none">
<path d="M0 8857 l0 -224 343 -6 c622 -12 822 -45 918 -154 39 -45 74 -117 88
-181 16 -76 16 -7428 0 -7504 -14 -64 -49 -136 -88 -181 -96 -109 -296 -142
-918 -154 l-343 -6 0 -224 0 -223 2608 3 2607 3 152 22 c428 62 803 174 1168
351 1015 490 1798 1404 2179 2544 269 807 318 1697 141 2582 -323 1614 -1415
2925 -2820 3389 -237 78 -418 120 -685 159 -144 21 -155 21 -2747 24 l-2603 3
0 -223z m4965 -255 c451 -72 844 -222 1195 -457 175 -117 275 -199 426 -349
226 -226 389 -452 537 -744 265 -521 400 -1102 446 -1912 42 -725 13 -1512
-74 -2027 -71 -419 -171 -744 -330 -1068 -279 -571 -699 -996 -1265 -1279
-251 -125 -469 -200 -750 -256 -274 -55 -280 -55 -1310 -55 -885 0 -961 1
-1039 18 -163 35 -224 92 -250 232 -16 83 -16 7587 0 7670 30 161 112 220 342
245 39 4 491 7 1002 6 907 -2 933 -3 1070 -24z"/>
</g>
</svg>
