<?xml version="1.0" standalone="no"?>
<!DOCTYPE svg PUBLIC "-//W3C//DTD SVG 20010904//EN"
 "http://www.w3.org/TR/2001/REC-SVG-20010904/DTD/svg10.dtd">
<svg version="1.0" xmlns="http://www.w3.org/2000/svg"
 width="804.000000pt" height="942.000000pt" viewBox="0 0 804.000000 942.000000"
 preserveAspectRatio="xMidYMid meet">
<metadata>
Created by potrace 1.16, written by Peter Selinger 2001-2019
</metadata>
<g transform="translate(0.000000,942.000000) scale(0.100000,-0.100000)"
fill="#000000" stroke="none">
<path d="M0 9162 l0 -259 373 -6 c717 -12 882 -44 981 -190 72 -107 66 261 66
-3997 0 -4258 6 -3890 -66 -3997 -59 -87 -124 -122 -274 -147 -163 -27 -322
-36 -707 -43 l-373 -6 0 -260 0 -260 127 7 c827 41 3272 41 4251 0 l152 -7 0
262 0 261 -297 0 c-723 1 -1150 36 -1290 106 -64 33 -136 107 -166 172 l-22
47 -3 1803 -2 1802 632 0 c348 0 701 -5 783 -10 724 -49 1012 -280 1109 -890
21 -127 36 -360 36 -552 l0 -158 225 0 225 0 0 1870 0 1870 -225 0 -225 0 0
-157 c-1 -961 -222 -1309 -900 -1417 -175 -28 -391 -36 -1028 -36 l-632 0 2
1848 c3 1785 4 1849 22 1896 25 64 81 120 142 140 124 40 158 41 1314 41 986
0 1136 -2 1298 -18 611 -59 996 -193 1298 -455 343 -296 554 -804 678 -1627
19 -131 76 -563 76 -582 0 -2 102 -3 226 -3 l226 0 -6 38 c-3 20 -87 726 -186
1567 -99 842 -183 1547 -186 1568 l-6 37 -3824 0 -3824 0 0 -258z"/>
</g>
</svg>
