<?xml version="1.0" standalone="no"?>
<!DOCTYPE svg PUBLIC "-//W3C//DTD SVG 20010904//EN"
 "http://www.w3.org/TR/2001/REC-SVG-20010904/DTD/svg10.dtd">
<svg version="1.0" xmlns="http://www.w3.org/2000/svg"
 width="467.000000pt" height="435.000000pt" viewBox="0 0 467.000000 435.000000"
 preserveAspectRatio="xMidYMid meet">
<metadata>
Created by potrace 1.16, written by Peter Selinger 2001-2019
</metadata>
<g transform="translate(0.000000,435.000000) scale(0.100000,-0.100000)"
fill="#000000" stroke="none">
<path d="M1250 4329 c-45 -28 -263 -248 -361 -364 -489 -583 -777 -1253 -871
-2030 -7 -55 -12 -221 -12 -370 0 -298 10 -404 64 -623 151 -620 518 -964 999
-939 369 19 641 231 747 582 25 81 28 105 28 245 0 140 -3 164 -28 245 -70
230 -212 403 -412 500 -256 125 -624 107 -843 -41 l-54 -37 6 159 c24 601 196
1148 515 1644 125 194 374 492 506 603 65 56 86 91 86 142 0 53 -18 80 -127
187 -125 124 -169 142 -243 97z"/>
<path d="M4060 4329 c-45 -28 -263 -248 -361 -364 -489 -583 -777 -1253 -871
-2030 -7 -55 -12 -221 -12 -370 0 -298 10 -404 64 -623 151 -620 518 -964 999
-939 369 19 641 231 747 582 25 81 28 105 28 245 0 140 -3 164 -28 245 -70
230 -212 403 -412 500 -256 125 -624 107 -843 -41 l-54 -37 6 159 c24 601 196
1148 515 1644 125 194 374 492 506 603 65 56 86 91 86 142 0 53 -18 80 -127
187 -125 124 -169 142 -243 97z"/>
</g>
</svg>
