<?xml version="1.0" standalone="no"?>
<!DOCTYPE svg PUBLIC "-//W3C//DTD SVG 20010904//EN"
 "http://www.w3.org/TR/2001/REC-SVG-20010904/DTD/svg10.dtd">
<svg version="1.0" xmlns="http://www.w3.org/2000/svg"
 width="930.000000pt" height="1246.000000pt" viewBox="0 0 930.000000 1246.000000"
 preserveAspectRatio="xMidYMid meet">
<metadata>
Created by potrace 1.16, written by Peter Selinger 2001-2019
</metadata>
<g transform="translate(0.000000,1246.000000) scale(0.100000,-0.100000)"
fill="#000000" stroke="none">
<path d="M4295 12449 c-1434 -109 -2740 -950 -3540 -2279 -485 -807 -755
-1802 -755 -2785 0 -1539 635 -2961 1755 -3931 587 -508 1357 -876 2113 -1008
277 -49 416 -60 737 -60 454 0 760 43 1188 166 59 17 110 28 113 26 3 -3 34
-165 70 -359 116 -632 193 -941 306 -1226 132 -335 312 -588 533 -751 134 -99
327 -180 516 -217 114 -22 352 -31 462 -16 506 68 885 371 1152 923 209 432
335 1033 339 1610 1 195 0 208 -20 235 -65 87 -192 88 -257 1 -15 -20 -22 -52
-29 -135 -16 -197 -62 -336 -160 -485 -162 -247 -424 -422 -758 -506 -97 -25
-120 -27 -315 -26 -199 0 -215 1 -296 27 -184 56 -315 135 -452 272 -159 159
-274 332 -432 650 -58 116 -105 215 -105 220 0 6 52 36 116 69 562 284 1092
721 1509 1244 919 1150 1299 2667 1049 4192 -216 1322 -917 2510 -1929 3270
-859 645 -1890 956 -2910 879z m650 -563 c757 -120 1432 -576 1900 -1286 406
-614 648 -1356 740 -2265 55 -547 59 -1253 9 -1790 -121 -1320 -567 -2327
-1313 -2966 l-114 -97 -117 236 c-178 358 -311 553 -501 737 -113 109 -212
181 -339 245 -360 181 -800 186 -1143 14 -289 -146 -509 -399 -611 -704 -80
-240 -87 -505 -17 -728 10 -34 18 -62 16 -62 -2 0 -35 18 -75 41 -695 394
-1223 1090 -1515 1999 -205 640 -297 1385 -282 2285 12 681 67 1164 192 1672
245 993 736 1769 1415 2235 379 260 770 404 1225 452 84 9 434 -3 530 -18z
m-170 -7567 c162 -20 322 -78 442 -161 120 -82 251 -236 343 -403 74 -134 209
-498 197 -530 -3 -6 -68 -39 -144 -73 -359 -157 -629 -216 -998 -217 -196 0
-214 2 -267 23 -192 78 -348 246 -415 447 -23 71 -26 96 -26 215 0 119 3 144
26 215 37 113 90 198 177 285 174 175 374 235 665 199z"/>
</g>
</svg>
