<?xml version="1.0" standalone="no"?>
<!DOCTYPE svg PUBLIC "-//W3C//DTD SVG 20010904//EN"
 "http://www.w3.org/TR/2001/REC-SVG-20010904/DTD/svg10.dtd">
<svg version="1.0" xmlns="http://www.w3.org/2000/svg"
 width="649.000000pt" height="587.000000pt" viewBox="0 0 649.000000 587.000000"
 preserveAspectRatio="xMidYMid meet">
<metadata>
Created by potrace 1.16, written by Peter Selinger 2001-2019
</metadata>
<g transform="translate(0.000000,587.000000) scale(0.100000,-0.100000)"
fill="#000000" stroke="none">
<path d="M0 5648 l0 -225 223 -6 c307 -8 445 -28 556 -80 73 -33 169 -138 218
-237 32 -64 1792 -4457 1965 -4903 56 -145 129 -197 278 -197 64 0 96 5 130
21 46 21 94 60 111 91 5 10 416 1036 913 2281 498 1246 923 2302 947 2348 129
259 297 433 524 544 61 30 150 66 199 80 93 26 283 55 367 55 l49 0 0 226 0
226 -57 -6 c-382 -39 -1555 -39 -2045 0 l-78 7 0 -225 0 -225 73 -6 c279 -24
481 -178 542 -413 19 -74 19 -201 0 -283 -9 -36 -317 -821 -686 -1745 -369
-925 -676 -1692 -681 -1706 -8 -22 -108 221 -729 1775 -396 990 -735 1842
-755 1894 -72 191 -35 314 118 392 113 57 284 88 491 89 l97 0 0 226 0 226
-97 -6 c-617 -39 -2138 -39 -2600 0 l-73 6 0 -224z"/>
</g>
</svg>
