<?xml version="1.0" standalone="no"?>
<!DOCTYPE svg PUBLIC "-//W3C//DTD SVG 20010904//EN"
 "http://www.w3.org/TR/2001/REC-SVG-20010904/DTD/svg10.dtd">
<svg version="1.0" xmlns="http://www.w3.org/2000/svg"
 width="885.000000pt" height="938.000000pt" viewBox="0 0 885.000000 938.000000"
 preserveAspectRatio="xMidYMid meet">
<metadata>
Created by potrace 1.16, written by Peter Selinger 2001-2019
</metadata>
<g transform="translate(0.000000,938.000000) scale(0.100000,-0.100000)"
fill="#000000" stroke="none">
<path d="M1585 9374 c-281 -40 -475 -109 -680 -242 -209 -134 -413 -350 -561
-593 -206 -337 -334 -784 -338 -1181 -1 -133 1 -149 20 -174 46 -63 64 -69
199 -69 109 0 127 2 151 21 56 41 66 66 75 176 22 256 116 458 297 636 167
164 407 286 670 343 126 26 379 36 522 20 309 -36 589 -158 832 -360 527 -441
874 -1309 992 -2481 41 -399 41 -418 41 -2580 l0 -2095 -27 -57 c-31 -67 -96
-140 -153 -174 -128 -74 -556 -114 -1247 -114 l-268 0 0 -226 0 -227 148 7
c907 39 3417 39 4325 0 l147 -7 0 227 0 226 -267 0 c-692 0 -1120 40 -1248
114 -57 34 -122 107 -153 174 l-27 57 0 2095 c0 2162 0 2181 41 2580 118 1172
465 2040 992 2481 243 202 523 324 832 360 143 16 396 6 522 -20 263 -57 503
-179 670 -343 181 -178 275 -380 297 -636 9 -110 19 -135 75 -176 24 -19 42
-21 151 -21 135 0 153 6 199 69 19 25 21 41 20 174 -2 175 -29 371 -78 557
-179 687 -621 1208 -1180 1390 -172 56 -275 70 -501 69 -192 0 -271 -8 -435
-40 -1066 -214 -1832 -1238 -2164 -2894 -19 -96 -38 -199 -42 -227 -3 -29 -10
-53 -14 -53 -4 0 -11 24 -14 53 -12 86 -75 392 -112 542 -271 1085 -727 1851
-1350 2268 -265 176 -529 278 -864 332 -91 15 -433 28 -495 19z"/>
</g>
</svg>
