<?xml version="1.0" standalone="no"?>
<!DOCTYPE svg PUBLIC "-//W3C//DTD SVG 20010904//EN"
 "http://www.w3.org/TR/2001/REC-SVG-20010904/DTD/svg10.dtd">
<svg version="1.0" xmlns="http://www.w3.org/2000/svg"
 width="1124.000000pt" height="908.000000pt" viewBox="0 0 1124.000000 908.000000"
 preserveAspectRatio="xMidYMid meet">
<metadata>
Created by potrace 1.16, written by Peter Selinger 2001-2019
</metadata>
<g transform="translate(0.000000,908.000000) scale(0.100000,-0.100000)"
fill="#000000" stroke="none">
<path d="M0 8857 l0 -224 348 -6 c627 -11 827 -45 923 -154 42 -48 75 -119 89
-188 8 -44 10 -989 8 -3610 l-3 -3550 -23 -70 c-43 -128 -90 -204 -182 -295
-66 -66 -105 -95 -175 -131 -222 -115 -439 -162 -802 -176 l-183 -6 0 -225 0
-224 102 6 c652 39 2294 39 2946 0 l102 -6 0 224 0 225 -182 6 c-364 14 -581
61 -803 176 -70 36 -109 65 -175 131 -92 91 -139 167 -182 295 l-23 70 -2
3710 -2 3710 23 -60 c13 -33 744 -1927 1625 -4210 1056 -2735 1612 -4162 1630
-4185 38 -50 122 -90 185 -90 65 0 143 36 182 84 23 27 446 1113 1675 4296
l1644 4260 3 -3893 c2 -2869 0 -3908 -9 -3952 -13 -69 -46 -140 -88 -188 -96
-109 -296 -143 -923 -154 l-348 -6 0 -225 0 -225 128 7 c798 40 2796 40 3595
0 l127 -7 0 225 0 225 -347 6 c-628 11 -828 45 -924 154 -39 45 -74 117 -88
181 -16 76 -16 7428 0 7504 14 64 49 136 88 181 96 109 296 143 924 154 l347
6 0 224 0 223 -1277 -2 -1278 -3 -46 -27 c-25 -15 -57 -44 -71 -65 -14 -21
-682 -1738 -1484 -3817 -1357 -3515 -1459 -3777 -1470 -3750 -7 16 -663 1717
-1459 3779 -796 2063 -1459 3767 -1473 3788 -14 21 -46 50 -71 65 l-46 27
-1277 3 -1278 2 0 -223z"/>
</g>
</svg>
