<?xml version="1.0" standalone="no"?>
<!DOCTYPE svg PUBLIC "-//W3C//DTD SVG 20010904//EN"
 "http://www.w3.org/TR/2001/REC-SVG-20010904/DTD/svg10.dtd">
<svg version="1.0" xmlns="http://www.w3.org/2000/svg"
 width="1087.000000pt" height="976.000000pt" viewBox="0 0 1087.000000 976.000000"
 preserveAspectRatio="xMidYMid meet">
<metadata>
Created by potrace 1.16, written by Peter Selinger 2001-2019
</metadata>
<g transform="translate(0.000000,976.000000) scale(0.100000,-0.100000)"
fill="#000000" stroke="none">
<path d="M3895 9749 c-686 -48 -1323 -252 -1833 -589 -517 -340 -839 -771
-954 -1278 -22 -95 -22 -112 -25 -1009 l-4 -913 -519 0 -520 0 0 -260 0 -260
520 0 520 0 -2 -2317 -3 -2318 -23 -57 c-34 -84 -95 -142 -174 -166 -127 -40
-374 -61 -695 -62 l-183 0 0 -261 0 -262 98 7 c635 41 2349 41 2985 0 l97 -7
0 262 0 261 -182 0 c-322 1 -569 22 -696 62 -79 24 -140 82 -174 166 l-23 57
-3 2318 -2 2317 1410 0 1410 0 -2 -2317 -3 -2318 -23 -57 c-34 -84 -95 -142
-174 -166 -127 -40 -374 -61 -695 -62 l-183 0 0 -261 0 -262 98 7 c635 41
2349 41 2985 0 l97 -7 0 262 0 261 -182 0 c-322 1 -569 22 -696 62 -79 24
-140 82 -174 166 l-23 57 -3 2318 -2 2317 1410 0 1410 0 -2 -2317 -3 -2318
-23 -57 c-34 -84 -95 -142 -174 -166 -127 -40 -374 -61 -695 -62 l-183 0 0
-261 0 -262 98 7 c635 41 2349 41 2985 0 l97 -7 0 262 0 261 -182 0 c-322 1
-569 22 -696 62 -79 24 -140 82 -174 166 l-23 57 -3 4403 -2 4402 -38 -6 c-20
-3 -152 -22 -293 -43 l-257 -37 -63 32 c-192 96 -491 169 -804 195 -153 13
-541 7 -710 -11 -371 -40 -722 -119 -1035 -235 -197 -73 -504 -229 -681 -347
l-157 -103 -38 60 c-59 92 -224 251 -340 328 -247 164 -568 273 -903 307 -115
11 -399 11 -566 -1z m535 -424 c195 -30 370 -78 509 -141 l61 -27 -82 -40
c-117 -56 -220 -160 -276 -277 -95 -198 -95 -412 0 -610 50 -104 158 -217 256
-268 53 -28 61 -37 57 -55 -3 -12 -10 -44 -17 -72 -8 -35 -12 -322 -15 -962
l-4 -913 -1430 0 -1430 0 4 908 c4 983 2 946 61 1152 134 463 493 872 971
1105 249 122 481 185 800 219 84 9 434 -4 535 -19z m3940 1 c121 -15 288 -43
301 -52 4 -2 -28 -39 -71 -81 -91 -91 -149 -200 -174 -325 -56 -274 58 -560
275 -695 l59 -36 0 -1088 0 -1089 -1430 0 -1431 0 4 908 c4 983 2 946 61 1152
134 463 493 872 971 1105 249 122 480 185 800 219 82 9 515 -4 635 -18z"/>
</g>
</svg>
