<?xml version="1.0" standalone="no"?>
<!DOCTYPE svg PUBLIC "-//W3C//DTD SVG 20010904//EN"
 "http://www.w3.org/TR/2001/REC-SVG-20010904/DTD/svg10.dtd">
<svg version="1.0" xmlns="http://www.w3.org/2000/svg"
 width="862.000000pt" height="976.000000pt" viewBox="0 0 862.000000 976.000000"
 preserveAspectRatio="xMidYMid meet">
<metadata>
Created by potrace 1.16, written by Peter Selinger 2001-2019
</metadata>
<g transform="translate(0.000000,976.000000) scale(0.100000,-0.100000)"
fill="#000000" stroke="none">
<path d="M4055 9749 c-624 -46 -1159 -188 -1654 -439 -718 -363 -1159 -865
-1303 -1482 -21 -91 -22 -111 -25 -980 l-4 -888 -494 0 -495 0 0 -310 0 -310
495 0 495 0 -2 -2247 -3 -2248 -31 -55 c-74 -131 -181 -156 -726 -167 l-308
-6 0 -310 0 -310 98 7 c631 41 2433 41 3065 0 l97 -7 0 310 0 310 -307 6
c-546 11 -653 36 -727 167 l-31 55 -3 2248 -2 2247 1360 0 1360 0 -2 -2247 -3
-2248 -31 -55 c-74 -131 -181 -156 -726 -167 l-308 -6 0 -310 0 -310 98 7
c630 41 2591 41 3320 0 l112 -6 0 309 0 310 -382 6 c-712 12 -838 37 -926 187
l-27 45 -3 2243 -2 2242 740 0 740 0 0 310 0 310 -760 0 -761 0 4 903 c3 982
3 970 63 1217 145 589 530 1030 1002 1147 71 18 340 25 375 11 16 -7 12 -14
-32 -57 -139 -136 -210 -330 -198 -546 3 -55 13 -127 22 -160 62 -233 227
-399 475 -477 63 -19 97 -23 205 -23 108 0 142 4 205 23 248 78 412 243 475
477 28 103 30 273 6 393 -95 459 -464 796 -959 878 -75 13 -138 15 -282 10
-416 -12 -788 -105 -1155 -288 -137 -68 -328 -186 -412 -255 l-43 -34 -102
103 c-237 238 -525 381 -913 455 -97 18 -493 26 -670 12z m300 -509 c185 -17
414 -67 528 -115 l39 -16 -61 -39 c-191 -124 -301 -337 -301 -585 0 -254 122
-482 319 -595 40 -23 59 -40 56 -50 -20 -67 -25 -288 -25 -1037 l0 -843 -1380
0 -1380 0 0 828 c0 893 3 947 54 1135 142 521 569 965 1138 1183 169 65 412
118 623 137 89 8 286 6 390 -3z"/>
</g>
</svg>
