<?xml version="1.0" standalone="no"?>
<!DOCTYPE svg PUBLIC "-//W3C//DTD SVG 20010904//EN"
 "http://www.w3.org/TR/2001/REC-SVG-20010904/DTD/svg10.dtd">
<svg version="1.0" xmlns="http://www.w3.org/2000/svg"
 width="885.000000pt" height="908.000000pt" viewBox="0 0 885.000000 908.000000"
 preserveAspectRatio="xMidYMid meet">
<metadata>
Created by potrace 1.16, written by Peter Selinger 2001-2019
</metadata>
<g transform="translate(0.000000,908.000000) scale(0.100000,-0.100000)"
fill="#000000" stroke="none">
<path d="M2150 8856 l0 -226 268 0 c691 0 1119 -40 1247 -114 57 -34 122 -107
153 -174 l27 -57 3 -3032 2 -3032 -72 21 c-269 76 -557 227 -767 402 -362 303
-641 778 -800 1366 -35 130 -89 418 -110 590 -33 264 -41 400 -51 830 -13 585
-44 827 -146 1142 -117 361 -317 611 -572 714 -146 59 -135 58 -697 62 l-520
3 -35 -23 c-55 -37 -80 -82 -80 -145 0 -117 47 -162 183 -174 212 -20 347
-107 467 -301 160 -260 250 -722 250 -1280 0 -452 60 -909 170 -1296 252 -888
767 -1538 1525 -1922 332 -169 728 -292 1120 -348 l130 -18 0 -525 0 -524 -27
-57 c-31 -67 -96 -140 -153 -174 -128 -74 -556 -114 -1247 -114 l-268 0 0
-226 0 -227 148 7 c906 39 3348 39 4255 0 l147 -7 0 227 0 226 -267 0 c-692 0
-1120 40 -1248 114 -57 34 -122 107 -153 174 l-27 57 -3 523 c-2 420 0 523 10
526 7 2 65 11 128 21 719 105 1340 392 1799 830 650 621 1001 1580 1001 2733
0 558 90 1020 250 1280 120 194 255 281 467 301 104 9 140 28 168 87 24 51 17
148 -13 191 -47 66 -36 65 -610 61 -455 -4 -524 -6 -576 -21 -158 -47 -256
-101 -368 -206 -308 -289 -467 -856 -468 -1671 0 -377 -31 -770 -86 -1090
-124 -724 -423 -1328 -837 -1685 -239 -207 -498 -346 -815 -439 l-52 -15 2
3032 3 3032 27 57 c31 67 96 140 153 174 128 74 556 114 1248 114 l267 0 0
226 0 227 -147 -7 c-434 -19 -1192 -29 -2128 -29 -936 0 -1694 10 -2127 29
l-148 7 0 -227z"/>
</g>
</svg>
