<?xml version="1.0" standalone="no"?>
<!DOCTYPE svg PUBLIC "-//W3C//DTD SVG 20010904//EN"
 "http://www.w3.org/TR/2001/REC-SVG-20010904/DTD/svg10.dtd">
<svg version="1.0" xmlns="http://www.w3.org/2000/svg"
 width="576.000000pt" height="954.000000pt" viewBox="0 0 576.000000 954.000000"
 preserveAspectRatio="xMidYMid meet">
<metadata>
Created by potrace 1.16, written by Peter Selinger 2001-2019
</metadata>
<g transform="translate(0.000000,954.000000) scale(0.100000,-0.100000)"
fill="#000000" stroke="none">
<path d="M2675 9534 c-16 -2 -73 -9 -125 -15 -452 -52 -917 -246 -1292 -539
-123 -97 -312 -290 -410 -421 -235 -313 -377 -644 -445 -1034 -24 -141 -24
-529 0 -670 89 -517 324 -960 698 -1320 139 -133 244 -211 555 -413 l262 -169
-67 -32 c-229 -113 -576 -336 -791 -507 -154 -123 -414 -378 -514 -504 -523
-660 -678 -1428 -436 -2163 241 -731 870 -1306 1733 -1586 929 -300 1928 -176
2704 338 647 427 1062 1066 1179 1811 26 162 26 549 1 708 -44 272 -119 508
-242 757 -192 390 -459 710 -805 969 -53 39 -274 186 -493 326 -218 140 -396
257 -396 260 0 3 36 25 81 50 503 277 942 659 1180 1025 120 185 212 393 261
590 46 183 52 240 51 465 0 194 -3 228 -27 343 -103 485 -365 887 -783 1203
-118 88 -240 161 -409 244 -310 153 -652 247 -1020 280 -102 9 -382 11 -450 4z
m386 -444 c313 -32 600 -134 854 -305 383 -257 632 -629 712 -1065 24 -130 24
-418 0 -550 -75 -411 -256 -741 -591 -1075 -186 -185 -360 -323 -571 -453
l-84 -51 -838 541 c-461 297 -874 569 -918 603 -331 258 -524 620 -525 985 -1
566 418 1057 1085 1273 152 49 309 80 515 100 79 8 265 6 361 -3z m212 -5011
c513 -330 975 -633 1027 -672 326 -247 553 -591 632 -960 29 -135 31 -395 5
-537 -130 -701 -771 -1247 -1638 -1394 -236 -41 -525 -45 -749 -11 -892 134
-1588 775 -1731 1595 -104 598 83 1251 509 1780 169 209 435 448 682 612 132
88 299 186 318 187 8 1 433 -269 945 -600z"/>
</g>
</svg>
