<?xml version="1.0" standalone="no"?>
<!DOCTYPE svg PUBLIC "-//W3C//DTD SVG 20010904//EN"
 "http://www.w3.org/TR/2001/REC-SVG-20010904/DTD/svg10.dtd">
<svg version="1.0" xmlns="http://www.w3.org/2000/svg"
 width="512.000000pt" height="596.000000pt" viewBox="0 0 512.000000 596.000000"
 preserveAspectRatio="xMidYMid meet">
<metadata>
Created by potrace 1.16, written by Peter Selinger 2001-2019
</metadata>
<g transform="translate(0.000000,596.000000) scale(0.100000,-0.100000)"
fill="#000000" stroke="none">
<path d="M2443 5945 c-175 -47 -298 -182 -310 -337 -3 -39 35 -482 97 -1137
55 -590 99 -1078 98 -1083 -2 -5 -384 271 -848 613 -465 343 -863 633 -885
645 -137 76 -325 43 -454 -81 -102 -97 -146 -209 -139 -354 6 -128 57 -226
152 -290 22 -15 472 -232 999 -481 526 -249 957 -456 957 -460 0 -4 -431 -211
-957 -460 -527 -249 -977 -466 -999 -481 -95 -64 -146 -162 -152 -290 -7 -145
37 -257 139 -354 129 -124 317 -157 454 -81 22 12 420 302 885 645 464 342
846 618 848 613 1 -5 -43 -493 -98 -1083 -62 -655 -100 -1098 -97 -1137 12
-157 136 -291 314 -337 247 -64 513 105 530 337 3 39 -35 482 -97 1137 -55
590 -99 1078 -98 1083 2 5 384 -271 848 -613 465 -343 863 -633 885 -645 137
-76 325 -43 454 81 102 97 146 209 139 354 -6 128 -57 226 -152 290 -22 15
-472 232 -998 481 -527 249 -958 456 -958 460 0 4 431 211 958 460 526 249
976 466 998 481 95 64 146 162 152 290 7 145 -37 257 -139 354 -129 124 -317
157 -454 81 -22 -12 -420 -302 -885 -645 -464 -342 -846 -618 -848 -613 -1 5
43 493 98 1083 62 655 100 1098 97 1137 -18 233 -287 403 -534 337z"/>
</g>
</svg>
