<?xml version="1.0" standalone="no"?>
<!DOCTYPE svg PUBLIC "-//W3C//DTD SVG 20010904//EN"
 "http://www.w3.org/TR/2001/REC-SVG-20010904/DTD/svg10.dtd">
<svg version="1.0" xmlns="http://www.w3.org/2000/svg"
 width="922.000000pt" height="1008.000000pt" viewBox="0 0 922.000000 1008.000000"
 preserveAspectRatio="xMidYMid meet">
<metadata>
Created by potrace 1.16, written by Peter Selinger 2001-2019
</metadata>
<g transform="translate(0.000000,1008.000000) scale(0.100000,-0.100000)"
fill="#000000" stroke="none">
<path d="M4295 10069 c-1331 -101 -2558 -834 -3370 -2014 -311 -451 -572
-1015 -721 -1555 -466 -1685 -122 -3467 921 -4772 434 -544 961 -972 1567
-1273 459 -228 939 -370 1466 -432 206 -24 688 -24 894 0 1307 155 2442 845
3226 1962 1007 1435 1214 3379 540 5070 -646 1620 -2043 2765 -3643 2984 -289
40 -607 51 -880 30z m658 -464 c472 -74 909 -268 1297 -574 135 -107 412 -386
516 -521 533 -688 817 -1527 906 -2680 17 -215 17 -1036 0 -1265 -39 -532 -94
-906 -193 -1305 -202 -812 -562 -1493 -1049 -1980 -433 -434 -936 -699 -1493
-787 -156 -24 -508 -24 -664 0 -464 74 -884 266 -1271 584 -596 489 -1040
1252 -1271 2183 -99 399 -154 773 -193 1305 -17 229 -17 1050 0 1265 89 1153
373 1992 906 2680 104 135 381 414 516 521 334 263 752 465 1125 542 104 22
183 34 335 51 76 9 440 -4 533 -19z"/>
</g>
</svg>
