<?xml version="1.0" standalone="no"?>
<!DOCTYPE svg PUBLIC "-//W3C//DTD SVG 20010904//EN"
 "http://www.w3.org/TR/2001/REC-SVG-20010904/DTD/svg10.dtd">
<svg version="1.0" xmlns="http://www.w3.org/2000/svg"
 width="999.000000pt" height="1230.000000pt" viewBox="0 0 999.000000 1230.000000"
 preserveAspectRatio="xMidYMid meet">
<metadata>
Created by potrace 1.16, written by Peter Selinger 2001-2019
</metadata>
<g transform="translate(0.000000,1230.000000) scale(0.100000,-0.100000)"
fill="#000000" stroke="none">
<path d="M4890 12283 c-27 -10 -65 -37 -96 -68 -42 -41 -56 -65 -72 -116 -10
-35 -277 -1021 -593 -2191 l-574 -2128 -1661 0 c-1885 0 -1717 8 -1811 -85
-77 -78 -100 -173 -68 -281 19 -64 73 -127 139 -162 l51 -27 1593 -3 c875 -1
1592 -6 1592 -10 0 -4 -127 -485 -282 -1069 l-283 -1063 -1310 -2 -1310 -3
-51 -27 c-171 -90 -206 -308 -71 -443 93 -92 -17 -85 1365 -85 l1214 0 -6 -27
c-4 -16 -257 -955 -563 -2088 -306 -1133 -558 -2081 -561 -2106 -15 -154 119
-299 278 -299 121 0 232 84 268 201 10 35 277 1021 593 2192 l574 2127 1298 0
1299 0 -6 -27 c-4 -16 -257 -955 -563 -2088 -306 -1133 -558 -2081 -561 -2106
-15 -154 119 -299 278 -299 121 0 232 84 268 201 10 35 277 1021 593 2191
l574 2128 1661 0 c1885 0 1717 -8 1811 85 112 112 111 278 -1 391 -92 91 56
84 -1733 84 -865 0 -1573 3 -1573 8 0 4 127 485 282 1069 l283 1063 1291 0
c1471 0 1359 -7 1450 84 112 113 113 279 1 391 -93 92 17 85 -1365 85 l-1214
0 6 28 c4 15 257 954 563 2087 306 1133 558 2081 561 2106 15 154 -119 299
-278 299 -121 0 -232 -84 -268 -201 -10 -35 -277 -1021 -593 -2191 l-574
-2128 -1298 0 -1299 0 6 28 c4 15 257 954 563 2087 306 1133 558 2081 561
2106 15 156 -121 301 -282 298 -28 0 -71 -8 -96 -16z m1680 -5070 c0 -5 -127
-486 -282 -1070 l-283 -1063 -1297 0 c-714 0 -1298 3 -1298 8 0 4 127 485 282
1069 l283 1063 1298 0 c713 0 1297 -3 1297 -7z"/>
</g>
</svg>
