<?xml version="1.0" standalone="no"?>
<!DOCTYPE svg PUBLIC "-//W3C//DTD SVG 20010904//EN"
 "http://www.w3.org/TR/2001/REC-SVG-20010904/DTD/svg10.dtd">
<svg version="1.0" xmlns="http://www.w3.org/2000/svg"
 width="554.000000pt" height="916.000000pt" viewBox="0 0 554.000000 916.000000"
 preserveAspectRatio="xMidYMid meet">
<metadata>
Created by potrace 1.16, written by Peter Selinger 2001-2019
</metadata>
<g transform="translate(0.000000,916.000000) scale(0.100000,-0.100000)"
fill="#000000" stroke="none">
<path d="M2535 9149 c-417 -36 -809 -169 -1135 -384 -448 -295 -887 -787
-1114 -1250 -144 -291 -224 -575 -268 -940 -20 -170 -17 -713 5 -895 79 -646
304 -1132 771 -1659 312 -353 660 -597 1033 -725 230 -78 429 -113 708 -123
341 -11 571 37 846 178 337 174 609 471 826 904 l85 170 -6 -380 c-13 -789
-64 -1273 -183 -1740 -196 -768 -600 -1370 -1131 -1682 -299 -176 -602 -237
-1007 -203 -452 39 -795 170 -1005 384 l-54 56 62 0 c90 0 194 26 289 71 368
176 449 717 151 1011 -296 292 -827 211 -1007 -153 -59 -119 -74 -203 -68
-369 18 -479 233 -862 623 -1112 201 -129 498 -230 815 -279 197 -31 617 -34
784 -6 601 100 1102 363 1579 827 657 640 1123 1589 1306 2655 62 363 90 719
90 1142 0 1310 -174 2253 -560 3038 -217 440 -437 724 -765 985 -331 263 -752
438 -1155 480 -112 11 -374 11 -515 -1z m461 -383 c251 -37 464 -155 673 -371
228 -235 394 -554 465 -894 81 -384 130 -947 131 -1506 0 -387 -9 -502 -61
-785 -84 -459 -239 -847 -456 -1140 -80 -110 -243 -271 -338 -336 -144 -99
-307 -169 -467 -201 -125 -25 -393 -24 -528 1 -346 65 -604 246 -829 586 -220
332 -306 680 -337 1370 -13 305 -6 1314 11 1505 46 525 135 820 334 1120 170
254 361 429 589 535 224 105 564 154 813 116z"/>
</g>
</svg>
