<?xml version="1.0" standalone="no"?>
<!DOCTYPE svg PUBLIC "-//W3C//DTD SVG 20010904//EN"
 "http://www.w3.org/TR/2001/REC-SVG-20010904/DTD/svg10.dtd">
<svg version="1.0" xmlns="http://www.w3.org/2000/svg"
 width="376.000000pt" height="183.000000pt" viewBox="0 0 376.000000 183.000000"
 preserveAspectRatio="xMidYMid meet">
<metadata>
Created by potrace 1.16, written by Peter Selinger 2001-2019
</metadata>
<g transform="translate(0.000000,183.000000) scale(0.100000,-0.100000)"
fill="#000000" stroke="none">
<path d="M152 1603 c-143 -214 -151 -229 -134 -244 19 -18 1851 -1359 1857
-1359 6 0 1838 1341 1857 1359 17 15 9 29 -132 241 -83 124 -154 224 -158 223
-5 -1 -358 -202 -785 -447 -428 -245 -779 -446 -782 -446 -4 0 -1464 835
-1541 881 l-31 19 -151 -227z"/>
</g>
</svg>
