<?xml version="1.0" standalone="no"?>
<!DOCTYPE svg PUBLIC "-//W3C//DTD SVG 20010904//EN"
 "http://www.w3.org/TR/2001/REC-SVG-20010904/DTD/svg10.dtd">
<svg version="1.0" xmlns="http://www.w3.org/2000/svg"
 width="845.000000pt" height="946.000000pt" viewBox="0 0 845.000000 946.000000"
 preserveAspectRatio="xMidYMid meet">
<metadata>
Created by potrace 1.16, written by Peter Selinger 2001-2019
</metadata>
<g transform="translate(0.000000,946.000000) scale(0.100000,-0.100000)"
fill="#000000" stroke="none">
<path d="M95 9446 c-37 -16 -70 -52 -84 -89 -7 -16 -11 -107 -11 -216 l0 -187
28 -45 c16 -24 795 -1108 1731 -2407 1466 -2036 1700 -2366 1689 -2379 -7 -9
-781 -887 -1721 -1952 -1267 -1437 -1710 -1945 -1719 -1972 -21 -73 18 -156
89 -185 27 -12 671 -14 3997 -14 l3964 0 6 43 c3 23 87 785 186 1692 99 908
183 1669 186 1693 l6 42 -276 0 c-152 0 -276 -3 -276 -7 0 -3 -11 -96 -25
-206 -100 -786 -252 -1256 -535 -1660 -87 -123 -291 -327 -401 -400 -276 -182
-682 -304 -1209 -361 -471 -51 -768 -57 -2697 -54 l-1691 3 1540 1745 c847
960 1615 1831 1708 1937 177 201 190 223 176 296 -4 22 -485 698 -1460 2052
l-1454 2020 1431 3 c1653 3 1976 -4 2437 -54 521 -57 937 -181 1205 -358 277
-185 527 -521 685 -922 130 -330 200 -652 286 -1311 l5 -43 275 0 275 0 -6 43
c-3 23 -86 749 -185 1612 -99 864 -182 1589 -185 1613 l-6 42 -3967 0 c-3284
-1 -3972 -3 -3997 -14z"/>
</g>
</svg>
