<?xml version="1.0" standalone="no"?>
<!DOCTYPE svg PUBLIC "-//W3C//DTD SVG 20010904//EN"
 "http://www.w3.org/TR/2001/REC-SVG-20010904/DTD/svg10.dtd">
<svg version="1.0" xmlns="http://www.w3.org/2000/svg"
 width="163.000000pt" height="402.000000pt" viewBox="0 0 163.000000 402.000000"
 preserveAspectRatio="xMidYMid meet">
<metadata>
Created by potrace 1.16, written by Peter Selinger 2001-2019
</metadata>
<g transform="translate(0.000000,402.000000) scale(0.100000,-0.100000)"
fill="#000000" stroke="none">
<path d="M1171 3999 c-18 -11 -88 -75 -155 -143 -546 -548 -892 -1259 -991
-2037 -23 -174 -30 -496 -16 -649 23 -241 93 -515 172 -671 163 -325 413 -499
717 -499 287 0 529 144 643 385 59 123 74 191 74 335 0 144 -15 212 -74 335
-114 240 -355 385 -641 385 -193 0 -371 -68 -505 -192 l-44 -39 -7 48 c-10 68
2 387 21 528 46 351 135 659 280 962 160 335 334 580 615 868 97 99 160 171
164 188 11 47 -10 99 -61 149 -73 71 -129 85 -192 47z"/>
</g>
</svg>
