<?xml version="1.0" standalone="no"?>
<!DOCTYPE svg PUBLIC "-//W3C//DTD SVG 20010904//EN"
 "http://www.w3.org/TR/2001/REC-SVG-20010904/DTD/svg10.dtd">
<svg version="1.0" xmlns="http://www.w3.org/2000/svg"
 width="1166.000000pt" height="946.000000pt" viewBox="0 0 1166.000000 946.000000"
 preserveAspectRatio="xMidYMid meet">
<metadata>
Created by potrace 1.16, written by Peter Selinger 2001-2019
</metadata>
<g transform="translate(0.000000,946.000000) scale(0.100000,-0.100000)"
fill="#000000" stroke="none">
<path d="M3120 9150 l0 -310 458 -1 c251 -1 482 -4 513 -8 l56 -6 -1303 -3740
c-717 -2057 -1315 -3770 -1330 -3808 -36 -93 -108 -200 -189 -280 -233 -231
-609 -353 -1150 -374 l-175 -6 0 -310 0 -310 88 7 c577 41 2329 41 3000 0
l102 -6 0 309 0 310 -112 6 c-354 21 -628 122 -785 290 -83 89 -115 161 -121
265 l-5 84 519 1489 519 1489 1053 0 1052 0 -2 -1697 -3 -1698 -31 -55 c-74
-131 -180 -156 -726 -167 l-308 -6 0 -309 0 -308 3415 0 3414 0 6 32 c3 18
131 850 285 1848 154 998 282 1830 285 1848 l6 32 -275 0 -275 0 -5 -32 c-3
-18 -30 -184 -61 -370 -138 -848 -267 -1336 -456 -1728 -105 -218 -217 -368
-367 -493 -341 -284 -765 -436 -1397 -499 -182 -18 -1808 -19 -1910 -1 -147
27 -196 55 -231 136 -18 40 -19 112 -22 1755 l-2 1712 552 0 c724 0 893 -13
1118 -86 249 -81 413 -222 500 -431 82 -195 117 -430 127 -830 l6 -263 274 0
273 0 0 1920 0 1920 -273 0 -274 0 -6 -262 c-10 -401 -45 -636 -127 -831 -87
-209 -251 -350 -500 -431 -225 -73 -394 -86 -1118 -86 l-552 0 2 1893 c3 1817
4 1894 22 1934 33 78 81 107 220 135 31 6 341 12 781 15 745 5 1021 -2 1266
-32 478 -59 841 -207 1096 -448 112 -106 186 -207 261 -354 178 -352 285 -794
377 -1558 14 -115 27 -229 31 -252 l5 -43 275 0 275 0 -6 43 c-3 23 -86 749
-185 1612 -99 864 -182 1589 -185 1613 l-6 42 -3880 0 -3879 0 0 -310z m1905
-375 c103 -21 212 -80 250 -133 l30 -44 3 -1869 2 -1869 -945 0 -945 0 34 93
c18 50 327 937 687 1971 l654 1878 80 -6 c44 -3 112 -13 150 -21z"/>
</g>
</svg>
