<?xml version="1.0" standalone="no"?>
<!DOCTYPE svg PUBLIC "-//W3C//DTD SVG 20010904//EN"
 "http://www.w3.org/TR/2001/REC-SVG-20010904/DTD/svg10.dtd">
<svg version="1.0" xmlns="http://www.w3.org/2000/svg"
 width="910.000000pt" height="953.000000pt" viewBox="0 0 910.000000 953.000000"
 preserveAspectRatio="xMidYMid meet">
<metadata>
Created by potrace 1.16, written by Peter Selinger 2001-2019
</metadata>
<g transform="translate(0.000000,953.000000) scale(0.100000,-0.100000)"
fill="#000000" stroke="none">
<path d="M4392 9517 c-45 -17 -99 -62 -118 -99 -16 -30 -180 -507 -1944 -5638
-530 -1543 -899 -2601 -925 -2657 -164 -339 -492 -560 -945 -638 -108 -18
-294 -35 -387 -35 l-73 0 0 -226 0 -226 83 6 c521 39 2117 39 2730 0 l97 -7 0
225 0 225 -104 7 c-372 24 -660 156 -800 368 -71 106 -104 240 -87 347 5 32
146 455 312 940 l303 881 1624 -2 1624 -3 364 -1059 c384 -1117 383 -1112 350
-1191 -19 -45 -90 -121 -140 -150 -142 -81 -460 -134 -813 -135 l-143 0 0
-226 0 -227 128 7 c793 39 2784 39 3455 0 l107 -7 0 227 0 226 -192 0 c-379 0
-687 28 -821 75 -122 42 -228 146 -291 286 -14 30 -684 1972 -1489 4315 -806
2344 -1472 4275 -1481 4292 -21 40 -78 87 -125 101 -49 14 -256 13 -299 -2z
m497 -3934 c397 -1155 725 -2110 728 -2122 l5 -21 -1467 0 c-1393 0 -1467 1
-1460 18 3 9 333 968 733 2130 399 1162 729 2109 732 2105 4 -5 332 -954 729
-2110z"/>
</g>
</svg>
