<?xml version="1.0" standalone="no"?>
<!DOCTYPE svg PUBLIC "-//W3C//DTD SVG 20010904//EN"
 "http://www.w3.org/TR/2001/REC-SVG-20010904/DTD/svg10.dtd">
<svg version="1.0" xmlns="http://www.w3.org/2000/svg"
 width="786.000000pt" height="908.000000pt" viewBox="0 0 786.000000 908.000000"
 preserveAspectRatio="xMidYMid meet">
<metadata>
Created by potrace 1.16, written by Peter Selinger 2001-2019
</metadata>
<g transform="translate(0.000000,908.000000) scale(0.100000,-0.100000)"
fill="#000000" stroke="none">
<path d="M0 8857 l0 -224 343 -6 c619 -11 822 -45 915 -152 42 -47 77 -118 91
-183 16 -76 16 -7428 0 -7504 -14 -65 -49 -136 -91 -183 -93 -107 -296 -141
-915 -152 l-343 -6 0 -225 0 -224 122 6 c763 39 2933 39 3696 0 l122 -6 0 224
0 225 -342 6 c-620 11 -823 45 -916 152 -42 47 -77 118 -91 183 -8 38 -11 520
-11 1707 l0 1654 1263 4 c1386 4 1299 0 1649 67 315 61 600 156 883 295 596
292 1036 714 1281 1230 379 796 192 1707 -491 2391 -164 164 -257 241 -455
373 -374 249 -827 427 -1300 511 -327 57 -142 54 -2887 57 l-2523 4 0 -224z
m4809 -251 c544 -72 935 -246 1222 -542 311 -322 422 -757 406 -1594 -3 -168
-13 -350 -21 -424 -54 -444 -174 -726 -406 -956 -284 -281 -672 -451 -1205
-526 -105 -15 -252 -18 -1192 -21 l-1073 -4 0 1889 c0 1321 3 1906 11 1947 30
161 112 220 342 245 39 4 459 7 932 5 735 -2 878 -4 984 -19z"/>
</g>
</svg>
