<?xml version="1.0" standalone="no"?>
<!DOCTYPE svg PUBLIC "-//W3C//DTD SVG 20010904//EN"
 "http://www.w3.org/TR/2001/REC-SVG-20010904/DTD/svg10.dtd">
<svg version="1.0" xmlns="http://www.w3.org/2000/svg"
 width="145.000000pt" height="144.000000pt" viewBox="0 0 145.000000 144.000000"
 preserveAspectRatio="xMidYMid meet">
<metadata>
Created by potrace 1.16, written by Peter Selinger 2001-2019
</metadata>
<g transform="translate(0.000000,144.000000) scale(0.100000,-0.100000)"
fill="#000000" stroke="none">
<path d="M575 1426 c-155 -37 -253 -92 -365 -205 -67 -67 -95 -105 -128 -171
-110 -220 -110 -440 0 -660 33 -66 61 -104 128 -171 94 -95 175 -146 298 -187
67 -23 94 -26 212 -26 118 0 145 3 212 26 123 41 204 92 298 187 67 67 95 105
128 171 110 220 110 440 0 660 -33 66 -61 104 -128 171 -95 96 -177 147 -298
186 -96 31 -266 40 -357 19z"/>
</g>
</svg>
