<?xml version="1.0" standalone="no"?>
<!DOCTYPE svg PUBLIC "-//W3C//DTD SVG 20010904//EN"
 "http://www.w3.org/TR/2001/REC-SVG-20010904/DTD/svg10.dtd">
<svg version="1.0" xmlns="http://www.w3.org/2000/svg"
 width="922.000000pt" height="326.000000pt" viewBox="0 0 922.000000 326.000000"
 preserveAspectRatio="xMidYMid meet">
<metadata>
Created by potrace 1.16, written by Peter Selinger 2001-2019
</metadata>
<g transform="translate(0.000000,326.000000) scale(0.100000,-0.100000)"
fill="#000000" stroke="none">
<path d="M180 3243 c-66 -24 -144 -106 -164 -173 -20 -67 -20 -112 -1 -176 19
-64 73 -127 139 -162 l51 -27 4380 -3 c3956 -2 4385 -1 4434 14 74 21 153 100
175 174 20 68 20 112 0 180 -21 70 -98 149 -168 173 -46 16 -356 17 -4425 16
-3960 -1 -4380 -2 -4421 -16z"/>
<path d="M210 551 c-94 -29 -170 -102 -195 -185 -19 -64 -19 -109 1 -176 21
-70 98 -149 168 -173 46 -16 357 -17 4421 -17 4064 0 4375 1 4421 17 70 24
147 103 168 173 20 68 20 112 0 180 -22 74 -100 152 -174 174 -49 15 -465 16
-4419 15 -2401 0 -4377 -4 -4391 -8z"/>
</g>
</svg>
