<?xml version="1.0" standalone="no"?>
<!DOCTYPE svg PUBLIC "-//W3C//DTD SVG 20010904//EN"
 "http://www.w3.org/TR/2001/REC-SVG-20010904/DTD/svg10.dtd">
<svg version="1.0" xmlns="http://www.w3.org/2000/svg"
 width="977.000000pt" height="977.000000pt" viewBox="0 0 977.000000 977.000000"
 preserveAspectRatio="xMidYMid meet">
<metadata>
Created by potrace 1.16, written by Peter Selinger 2001-2019
</metadata>
<g transform="translate(0.000000,977.000000) scale(0.100000,-0.100000)"
fill="#000000" stroke="none">
<path d="M0 9462 l0 -309 403 -6 c545 -8 760 -27 862 -77 50 -24 108 -78 132
-123 17 -30 18 -234 18 -3907 0 -3673 -1 -3877 -18 -3907 -24 -45 -82 -99
-132 -123 -102 -50 -317 -69 -862 -77 l-403 -6 0 -310 0 -310 127 7 c820 41
3156 41 3976 0 l127 -7 0 310 0 310 -402 6 c-546 8 -761 27 -863 77 -50 24
-108 78 -132 123 -17 30 -18 139 -21 1845 l-2 1813 902 -4 c884 -3 905 -4 999
-25 214 -49 361 -111 538 -229 374 -249 630 -680 680 -1145 7 -59 11 -378 11
-807 0 -728 4 -834 41 -1016 145 -717 673 -1226 1491 -1440 460 -119 1038
-160 1301 -92 494 129 858 604 963 1256 10 60 18 166 18 243 1 124 -1 139 -20
165 -45 60 -73 68 -249 68 -142 0 -164 -2 -194 -20 -65 -38 -74 -61 -83 -207
-18 -291 -79 -517 -190 -706 -48 -83 -200 -231 -270 -265 -119 -57 -243 -70
-403 -42 -334 59 -528 308 -665 855 -53 212 -73 323 -200 1142 -129 832 -138
879 -196 1058 -185 563 -600 1023 -1208 1336 l-158 82 113 37 c982 325 1715
950 1953 1666 61 186 80 307 81 524 0 198 -8 264 -52 440 -124 497 -477 977
-989 1343 -613 437 -1393 696 -2269 752 -101 6 -1002 10 -2457 10 l-2298 0 0
-308z m4768 -336 c543 -63 934 -211 1222 -462 325 -284 460 -703 460 -1434 0
-825 -169 -1251 -615 -1548 -326 -217 -732 -336 -1270 -372 -90 -5 -509 -10
-957 -10 l-798 0 0 1800 c0 1245 3 1814 11 1849 20 95 74 148 173 170 114 25
243 29 931 26 577 -2 725 -5 843 -19z"/>
</g>
</svg>
