<?xml version="1.0" standalone="no"?>
<!DOCTYPE svg PUBLIC "-//W3C//DTD SVG 20010904//EN"
 "http://www.w3.org/TR/2001/REC-SVG-20010904/DTD/svg10.dtd">
<svg version="1.0" xmlns="http://www.w3.org/2000/svg"
 width="615.000000pt" height="1008.000000pt" viewBox="0 0 615.000000 1008.000000"
 preserveAspectRatio="xMidYMid meet">
<metadata>
Created by potrace 1.16, written by Peter Selinger 2001-2019
</metadata>
<g transform="translate(0.000000,1008.000000) scale(0.100000,-0.100000)"
fill="#000000" stroke="none">
<path d="M2435 10070 c-341 -38 -627 -121 -931 -270 -259 -127 -466 -274 -678
-480 -433 -421 -712 -972 -801 -1582 -23 -152 -30 -439 -16 -598 48 -539 244
-1035 581 -1470 89 -115 303 -331 420 -424 254 -202 587 -380 883 -470 48 -15
524 -134 1057 -266 677 -167 1000 -251 1069 -278 582 -229 999 -787 1107
-1482 22 -143 25 -472 6 -605 -68 -451 -240 -816 -526 -1113 -248 -257 -533
-416 -869 -484 -99 -20 -139 -23 -352 -22 -930 4 -1716 303 -2235 851 -437
462 -667 1059 -697 1811 -7 183 -16 213 -74 244 -27 15 -57 18 -154 18 -135 0
-168 -12 -205 -72 -20 -33 -20 -54 -20 -1653 0 -1550 1 -1622 18 -1654 27 -51
73 -71 158 -71 57 0 77 4 104 23 22 15 126 165 319 459 157 240 289 440 293
444 4 3 47 -31 95 -76 454 -425 1134 -721 1873 -814 317 -40 729 -45 950 -11
765 118 1437 567 1866 1248 89 140 223 415 279 572 353 981 192 2082 -424
2905 -97 130 -304 347 -432 455 -246 205 -540 370 -844 471 -71 23 -560 148
-1085 278 -525 129 -995 249 -1045 267 -269 95 -531 277 -715 496 -238 285
-369 593 -409 965 -82 748 336 1477 1019 1778 262 115 555 158 894 131 560
-46 1002 -215 1377 -529 387 -325 690 -826 858 -1422 69 -243 129 -570 157
-842 14 -140 52 -168 229 -168 138 0 176 13 207 71 17 32 18 104 18 1654 0
1550 -1 1622 -18 1654 -27 51 -73 71 -158 71 -57 0 -77 -4 -104 -22 -22 -16
-127 -167 -321 -463 l-289 -441 -142 141 c-223 220 -420 359 -703 496 -285
138 -568 221 -909 265 -142 18 -564 27 -681 14z"/>
</g>
</svg>
