<?xml version="1.0" standalone="no"?>
<!DOCTYPE svg PUBLIC "-//W3C//DTD SVG 20010904//EN"
 "http://www.w3.org/TR/2001/REC-SVG-20010904/DTD/svg10.dtd">
<svg version="1.0" xmlns="http://www.w3.org/2000/svg"
 width="1372.000000pt" height="977.000000pt" viewBox="0 0 1372.000000 977.000000"
 preserveAspectRatio="xMidYMid meet">
<metadata>
Created by potrace 1.16, written by Peter Selinger 2001-2019
</metadata>
<g transform="translate(0.000000,977.000000) scale(0.100000,-0.100000)"
fill="#000000" stroke="none">
<path d="M0 9461 l0 -311 203 0 c415 0 722 -28 824 -75 66 -30 142 -101 175
-162 14 -27 655 -2017 1424 -4423 l1399 -4375 45 -47 c29 -29 59 -50 85 -57
51 -14 338 -14 388 0 50 13 116 73 137 124 9 22 503 1560 1096 3417 593 1857
1080 3373 1081 3370 1 -4 486 -1521 1078 -3372 591 -1851 1082 -3384 1091
-3407 19 -52 89 -118 140 -132 51 -14 338 -14 389 0 26 7 56 28 85 57 l45 47
1338 4185 c862 2697 1352 4215 1378 4270 171 361 550 550 1157 576 l152 7 0
310 0 310 -77 -7 c-515 -41 -2233 -41 -2935 0 l-108 7 0 -312 0 -311 63 0
c105 0 286 -20 413 -45 266 -54 479 -157 606 -294 72 -78 109 -152 115 -236 6
-64 -6 -100 -988 -3170 -546 -1708 -995 -3105 -998 -3105 -13 0 -2101 6556
-2101 6594 0 33 7 46 43 81 56 53 143 88 299 119 180 36 284 46 570 53 l258 6
0 310 0 310 -127 -7 c-823 -41 -2999 -41 -3635 0 l-98 7 0 -312 0 -311 208 0
c411 -1 718 -28 818 -74 63 -29 136 -94 169 -150 23 -40 355 -1060 355 -1094
1 -30 -1765 -5541 -1771 -5529 -19 35 -2099 6559 -2099 6583 0 157 317 247
918 261 l252 6 0 310 0 310 -128 -7 c-823 -41 -2955 -41 -3629 0 l-103 6 0
-311z"/>
</g>
</svg>
