<?xml version="1.0" standalone="no"?>
<!DOCTYPE svg PUBLIC "-//W3C//DTD SVG 20010904//EN"
 "http://www.w3.org/TR/2001/REC-SVG-20010904/DTD/svg10.dtd">
<svg version="1.0" xmlns="http://www.w3.org/2000/svg"
 width="922.000000pt" height="946.000000pt" viewBox="0 0 922.000000 946.000000"
 preserveAspectRatio="xMidYMid meet">
<metadata>
Created by potrace 1.16, written by Peter Selinger 2001-2019
</metadata>
<g transform="translate(0.000000,946.000000) scale(0.100000,-0.100000)"
fill="#000000" stroke="none">
<path d="M2200 9201 l0 -261 298 0 c722 -1 1149 -36 1289 -106 64 -33 136
-107 166 -172 l22 -47 3 -3093 c2 -2946 1 -3093 -15 -3088 -10 3 -49 15 -88
27 -313 95 -615 272 -843 493 -439 424 -721 1068 -821 1876 -33 263 -41 399
-51 835 -10 415 -24 604 -61 815 -41 238 -91 402 -174 576 -64 136 -116 213
-203 306 -112 118 -221 186 -379 235 l-88 28 -577 0 c-567 0 -577 0 -604 -21
-58 -43 -69 -68 -72 -169 -3 -82 -1 -99 18 -133 29 -51 83 -82 146 -82 27 0
79 -7 116 -14 321 -69 529 -436 603 -1066 8 -74 20 -295 25 -490 5 -195 14
-402 20 -460 46 -466 129 -831 273 -1200 346 -887 992 -1502 1909 -1818 226
-78 595 -164 806 -188 l63 -7 -3 -566 c-3 -557 -3 -567 -25 -613 -30 -65 -102
-139 -166 -172 -140 -70 -567 -105 -1289 -106 l-298 0 0 -261 0 -262 153 7
c968 41 3536 41 4505 0 l152 -7 0 262 0 261 -297 0 c-723 1 -1150 36 -1290
106 -64 33 -136 107 -166 172 -22 46 -22 56 -25 613 l-3 566 63 7 c35 4 124
18 198 32 1412 255 2332 1100 2669 2449 94 377 127 657 141 1185 13 493 45
737 130 991 68 204 144 336 254 436 100 92 227 142 360 143 62 0 117 30 145
80 17 30 21 55 21 125 0 104 -20 150 -81 184 -39 22 -39 22 -606 19 l-568 -4
-88 -27 c-158 -49 -267 -117 -379 -235 -87 -93 -139 -170 -203 -306 -83 -174
-133 -338 -174 -576 -37 -211 -51 -400 -61 -815 -10 -436 -18 -572 -51 -835
-44 -359 -123 -682 -236 -970 -99 -252 -274 -556 -426 -738 -256 -306 -615
-543 -1002 -661 -38 -12 -78 -24 -88 -27 -16 -5 -17 142 -15 3088 l3 3093 22
47 c30 65 102 139 166 172 140 70 567 105 1290 106 l297 0 0 261 0 262 -152
-7 c-476 -20 -1225 -30 -2253 -30 -1028 0 -1777 10 -2252 30 l-153 7 0 -262z"/>
</g>
</svg>
