<?xml version="1.0" standalone="no"?>
<!DOCTYPE svg PUBLIC "-//W3C//DTD SVG 20010904//EN"
 "http://www.w3.org/TR/2001/REC-SVG-20010904/DTD/svg10.dtd">
<svg version="1.0" xmlns="http://www.w3.org/2000/svg"
 width="554.000000pt" height="923.000000pt" viewBox="0 0 554.000000 923.000000"
 preserveAspectRatio="xMidYMid meet">
<metadata>
Created by potrace 1.16, written by Peter Selinger 2001-2019
</metadata>
<g transform="translate(0.000000,923.000000) scale(0.100000,-0.100000)"
fill="#000000" stroke="none">
<path d="M2320 9220 c-603 -63 -1173 -332 -1590 -750 -412 -412 -666 -951
-721 -1530 -14 -149 -6 -352 16 -435 94 -342 382 -555 750 -555 370 0 655 213
751 561 28 101 26 329 -4 433 -39 134 -95 230 -191 327 -75 75 -99 93 -191
137 -137 65 -225 86 -366 87 -95 0 -111 2 -106 15 18 54 118 250 167 329 125
202 325 417 516 554 107 76 335 192 454 231 392 127 849 110 1221 -45 706
-293 1145 -1096 1144 -2094 -1 -808 -319 -1578 -1034 -2500 -272 -352 -378
-472 -1893 -2162 -666 -743 -1219 -1365 -1227 -1382 -13 -24 -16 -69 -16 -236
l0 -205 2575 0 2574 0 6 33 c3 17 86 570 185 1227 99 657 182 1210 185 1228
l6 32 -225 0 -225 0 -5 -32 c-3 -18 -24 -145 -46 -283 -68 -420 -137 -699
-210 -850 -50 -104 -69 -121 -150 -134 -231 -36 -1046 -53 -2419 -49 l-1063 3
843 811 c886 852 966 926 1489 1384 856 750 1211 1117 1505 1560 332 501 485
949 502 1475 21 654 -181 1279 -577 1780 -90 114 -317 336 -437 428 -430 327
-943 527 -1538 597 -120 15 -549 21 -655 10z"/>
</g>
</svg>
