<?xml version="1.0" standalone="no"?>
<!DOCTYPE svg PUBLIC "-//W3C//DTD SVG 20010904//EN"
 "http://www.w3.org/TR/2001/REC-SVG-20010904/DTD/svg10.dtd">
<svg version="1.0" xmlns="http://www.w3.org/2000/svg"
 width="636.000000pt" height="634.000000pt" viewBox="0 0 636.000000 634.000000"
 preserveAspectRatio="xMidYMid meet">
<metadata>
Created by potrace 1.16, written by Peter Selinger 2001-2019
</metadata>
<g transform="translate(0.000000,634.000000) scale(0.100000,-0.100000)"
fill="#000000" stroke="none">
<path d="M2215 6330 c-1154 -83 -1779 -485 -1812 -1165 -18 -373 170 -648 517
-757 64 -19 96 -23 215 -23 119 0 151 4 215 23 343 108 535 384 517 746 -11
224 -112 425 -275 548 l-34 25 104 22 c255 53 487 74 823 75 281 1 339 -6 505
-61 380 -128 705 -458 848 -863 74 -212 92 -357 92 -748 l0 -289 -167 -7
c-992 -42 -1807 -213 -2465 -517 -700 -324 -1137 -811 -1270 -1416 -29 -134
-32 -426 -5 -552 56 -257 174 -492 344 -680 301 -334 796 -575 1364 -662 195
-30 604 -33 777 -6 266 43 491 112 717 221 173 84 281 149 416 252 110 85 324
300 389 392 46 65 60 75 60 43 0 -38 63 -207 113 -305 140 -275 345 -451 614
-528 110 -32 351 -32 500 0 273 59 492 173 682 356 158 153 260 328 319 545
l26 96 4 533 3 532 -275 0 -275 0 -3 -527 c-4 -512 -5 -530 -26 -601 -45 -149
-106 -239 -193 -287 -47 -26 -64 -30 -134 -30 -70 0 -87 4 -134 30 -87 48
-147 138 -193 287 l-23 73 -5 1735 c-6 1724 -6 1736 -27 1825 -58 244 -140
435 -272 631 -365 544 -1008 910 -1791 1019 -136 19 -603 28 -785 15z m1712
-3742 c-3 -689 -6 -793 -21 -868 -136 -677 -719 -1168 -1432 -1207 -601 -33
-1111 382 -1193 972 -46 328 60 688 289 984 378 486 1099 789 2110 886 74 7
161 13 193 14 l58 1 -4 -782z"/>
</g>
</svg>
