<?xml version="1.0" standalone="no"?>
<!DOCTYPE svg PUBLIC "-//W3C//DTD SVG 20010904//EN"
 "http://www.w3.org/TR/2001/REC-SVG-20010904/DTD/svg10.dtd">
<svg version="1.0" xmlns="http://www.w3.org/2000/svg"
 width="956.000000pt" height="942.000000pt" viewBox="0 0 956.000000 942.000000"
 preserveAspectRatio="xMidYMid meet">
<metadata>
Created by potrace 1.16, written by Peter Selinger 2001-2019
</metadata>
<g transform="translate(0.000000,942.000000) scale(0.100000,-0.100000)"
fill="#000000" stroke="none">
<path d="M0 9162 l0 -259 373 -6 c717 -12 882 -44 981 -190 72 -107 66 261 66
-3997 0 -4258 6 -3890 -66 -3997 -99 -146 -264 -178 -981 -190 l-373 -6 0
-260 0 -260 127 7 c826 41 3090 41 3916 0 l127 -7 0 260 0 260 -373 6 c-717
12 -882 44 -981 190 -72 107 -66 -280 -66 4174 l0 4013 2025 0 2025 0 0 -4013
c0 -4454 6 -4067 -66 -4174 -99 -146 -264 -178 -981 -190 l-373 -6 0 -260 0
-260 128 7 c825 41 3089 41 3915 0 l127 -7 0 260 0 260 -372 6 c-718 12 -883
44 -982 190 -72 107 -66 -261 -66 3997 0 4258 -6 3890 66 3997 99 146 264 178
981 190 l373 6 0 259 0 258 -4775 0 -4775 0 0 -258z"/>
</g>
</svg>
