<?xml version="1.0" standalone="no"?>
<!DOCTYPE svg PUBLIC "-//W3C//DTD SVG 20010904//EN"
 "http://www.w3.org/TR/2001/REC-SVG-20010904/DTD/svg10.dtd">
<svg version="1.0" xmlns="http://www.w3.org/2000/svg"
 width="707.000000pt" height="611.000000pt" viewBox="0 0 707.000000 611.000000"
 preserveAspectRatio="xMidYMid meet">
<metadata>
Created by potrace 1.16, written by Peter Selinger 2001-2019
</metadata>
<g transform="translate(0.000000,611.000000) scale(0.100000,-0.100000)"
fill="#000000" stroke="none">
<path d="M1015 6034 c-539 -40 -988 -73 -997 -73 -17 -1 -18 -20 -18 -261 l0
-260 143 0 c190 0 400 -17 522 -41 237 -48 342 -144 393 -361 16 -68 17 -225
17 -2153 l0 -2080 -23 -57 c-34 -84 -95 -142 -174 -166 -127 -40 -374 -61
-695 -62 l-183 0 0 -261 0 -261 103 6 c669 41 2345 41 3015 0 l102 -6 0 261 0
261 -182 0 c-322 1 -569 22 -696 62 -79 24 -140 82 -174 166 l-23 57 0 1540
c0 1719 -4 1610 71 1905 145 568 514 1041 999 1283 411 205 928 221 1232 39
225 -134 371 -387 431 -747 41 -240 43 -370 40 -2235 l-3 -1785 -23 -57 c-34
-84 -95 -142 -174 -166 -127 -40 -374 -61 -695 -62 l-183 0 0 -261 0 -261 103
6 c669 41 2345 41 3015 0 l102 -6 0 261 0 261 -182 0 c-322 1 -569 22 -696 62
-79 24 -140 82 -174 166 l-23 57 -6 1865 c-6 2037 -2 1918 -64 2195 -144 640
-540 1035 -1186 1179 -174 39 -324 56 -549 63 -415 12 -734 -53 -1077 -221
-403 -198 -732 -504 -975 -908 l-68 -112 0 622 0 622 -32 -1 c-18 -1 -474 -34
-1013 -75z"/>
</g>
</svg>
