<?xml version="1.0" standalone="no"?>
<!DOCTYPE svg PUBLIC "-//W3C//DTD SVG 20010904//EN"
 "http://www.w3.org/TR/2001/REC-SVG-20010904/DTD/svg10.dtd">
<svg version="1.0" xmlns="http://www.w3.org/2000/svg"
 width="885.000000pt" height="312.000000pt" viewBox="0 0 885.000000 312.000000"
 preserveAspectRatio="xMidYMid meet">
<metadata>
Created by potrace 1.16, written by Peter Selinger 2001-2019
</metadata>
<g transform="translate(0.000000,312.000000) scale(0.100000,-0.100000)"
fill="#000000" stroke="none">
<path d="M191 3108 c-51 -14 -114 -61 -145 -108 -86 -131 -43 -306 94 -384
l55 -31 4225 0 4225 0 55 31 c207 117 172 430 -55 493 -53 14 -8403 14 -8454
-1z"/>
<path d="M189 526 c-98 -35 -162 -105 -182 -201 -28 -137 55 -277 188 -314 57
-16 8393 -16 8450 0 227 63 262 376 55 493 l-55 31 -4210 2 c-3425 2 -4217 0
-4246 -11z"/>
</g>
</svg>
