<?xml version="1.0" standalone="no"?>
<!DOCTYPE svg PUBLIC "-//W3C//DTD SVG 20010904//EN"
 "http://www.w3.org/TR/2001/REC-SVG-20010904/DTD/svg10.dtd">
<svg version="1.0" xmlns="http://www.w3.org/2000/svg"
 width="390.000000pt" height="249.000000pt" viewBox="0 0 390.000000 249.000000"
 preserveAspectRatio="xMidYMid meet">
<metadata>
Created by potrace 1.16, written by Peter Selinger 2001-2019
</metadata>
<g transform="translate(0.000000,249.000000) scale(0.100000,-0.100000)"
fill="#000000" stroke="none">
<path d="M1025 2472 c-114 -39 -209 -121 -261 -223 -34 -69 -766 -2070 -759
-2077 17 -18 320 -170 326 -164 28 31 1251 1719 1277 1762 115 190 88 405 -68
560 -65 64 -168 122 -256 145 -78 20 -196 19 -259 -3z"/>
<path d="M3235 2472 c-114 -39 -209 -121 -261 -223 -34 -69 -766 -2070 -759
-2077 17 -18 320 -170 326 -164 28 31 1251 1719 1277 1762 115 190 88 405 -68
560 -65 64 -168 122 -256 145 -78 20 -196 19 -259 -3z"/>
</g>
</svg>
