<?xml version="1.0" standalone="no"?>
<!DOCTYPE svg PUBLIC "-//W3C//DTD SVG 20010904//EN"
 "http://www.w3.org/TR/2001/REC-SVG-20010904/DTD/svg10.dtd">
<svg version="1.0" xmlns="http://www.w3.org/2000/svg"
 width="161.000000pt" height="865.000000pt" viewBox="0 0 161.000000 865.000000"
 preserveAspectRatio="xMidYMid meet">
<metadata>
Created by potrace 1.16, written by Peter Selinger 2001-2019
</metadata>
<g transform="translate(0.000000,865.000000) scale(0.100000,-0.100000)"
fill="#000000" stroke="none">
<path d="M594 8626 c-295 -78 -506 -295 -574 -591 -19 -78 -22 -114 -17 -198
6 -122 24 -195 76 -302 78 -164 194 -281 356 -361 130 -64 196 -79 345 -79
149 0 215 15 345 79 162 80 278 197 356 361 59 123 74 190 74 335 0 149 -15
215 -79 345 -80 162 -197 278 -361 356 -112 54 -182 71 -315 75 -98 4 -128 1
-206 -20z"/>
<path d="M650 4243 c-385 -65 -650 -380 -650 -773 0 -357 220 -655 556 -752
66 -19 103 -23 224 -23 158 0 248 18 350 70 27 14 52 25 56 25 11 0 -4 -296
-22 -450 -84 -727 -387 -1411 -868 -1960 -114 -130 -112 -171 12 -292 83 -81
110 -94 168 -83 42 7 85 49 209 200 497 605 804 1341 897 2145 20 174 16 709
-5 874 -57 425 -177 709 -369 874 -67 57 -192 118 -283 137 -65 13 -216 18
-275 8z"/>
</g>
</svg>
