<?xml version="1.0" standalone="no"?>
<!DOCTYPE svg PUBLIC "-//W3C//DTD SVG 20010904//EN"
 "http://www.w3.org/TR/2001/REC-SVG-20010904/DTD/svg10.dtd">
<svg version="1.0" xmlns="http://www.w3.org/2000/svg"
 width="904.000000pt" height="634.000000pt" viewBox="0 0 904.000000 634.000000"
 preserveAspectRatio="xMidYMid meet">
<metadata>
Created by potrace 1.16, written by Peter Selinger 2001-2019
</metadata>
<g transform="translate(0.000000,634.000000) scale(0.100000,-0.100000)"
fill="#000000" stroke="none">
<path d="M2180 6330 c-542 -44 -984 -176 -1303 -389 -347 -233 -534 -580 -514
-960 9 -192 74 -338 204 -462 128 -121 288 -182 478 -182 130 0 203 17 323 74
154 74 272 211 329 384 24 72 27 95 27 225 0 133 -2 151 -28 225 -15 44 -41
104 -58 133 -67 117 -197 226 -332 277 l-61 23 86 40 c185 86 452 154 739 188
208 25 556 25 670 1 253 -54 465 -167 657 -351 249 -238 403 -532 470 -901 22
-124 32 -973 11 -986 -7 -5 -56 -9 -108 -9 -186 0 -627 -34 -900 -70 -906
-117 -1702 -403 -2173 -779 -378 -302 -621 -695 -682 -1105 -128 -866 539
-1518 1725 -1683 176 -24 661 -24 844 0 724 97 1313 365 1717 783 86 89 187
218 235 300 14 24 29 44 33 44 5 0 30 -28 57 -62 82 -106 312 -335 444 -441
177 -142 337 -245 545 -347 249 -123 416 -182 660 -235 183 -40 311 -55 500
-62 277 -9 496 21 745 103 702 229 1265 828 1479 1575 37 126 38 159 10 209
-36 63 -79 80 -204 80 -169 0 -197 -24 -249 -217 -135 -494 -482 -938 -900
-1152 -411 -210 -945 -198 -1431 33 -575 274 -978 793 -1155 1491 -74 291
-108 564 -117 953 l-6 262 1983 0 1982 0 38 21 c21 12 48 39 60 62 23 39 23
45 17 246 -26 801 -218 1417 -589 1882 -188 237 -392 400 -680 543 -305 152
-624 230 -998 243 -601 20 -1170 -172 -1680 -568 -106 -82 -319 -286 -394
-377 l-49 -59 -61 81 c-33 44 -106 126 -161 181 -377 380 -882 625 -1480 715
-159 24 -570 35 -755 20z m4657 -415 c222 -36 427 -146 603 -325 223 -226 395
-599 484 -1050 40 -198 62 -398 80 -722 l5 -88 -1519 0 -1520 0 0 23 c0 42 31
292 51 412 113 679 421 1214 873 1517 295 197 639 282 943 233z m-2922 -3150
c21 -160 66 -384 102 -502 26 -83 27 -99 27 -278 0 -158 -4 -207 -22 -292
-103 -476 -420 -866 -887 -1093 -408 -198 -898 -244 -1238 -116 -169 63 -303
153 -428 284 -134 139 -217 287 -266 470 -23 86 -26 116 -26 262 -1 133 4 185
22 269 82 384 333 730 706 973 177 116 477 249 736 328 316 95 798 173 1194
193 l50 2 7 -185 c3 -102 14 -243 23 -315z"/>
</g>
</svg>
