<?xml version="1.0" standalone="no"?>
<!DOCTYPE svg PUBLIC "-//W3C//DTD SVG 20010904//EN"
 "http://www.w3.org/TR/2001/REC-SVG-20010904/DTD/svg10.dtd">
<svg version="1.0" xmlns="http://www.w3.org/2000/svg"
 width="966.000000pt" height="946.000000pt" viewBox="0 0 966.000000 946.000000"
 preserveAspectRatio="xMidYMid meet">
<metadata>
Created by potrace 1.16, written by Peter Selinger 2001-2019
</metadata>
<g transform="translate(0.000000,946.000000) scale(0.100000,-0.100000)"
fill="#000000" stroke="none">
<path d="M0 9152 l0 -309 498 -6 c450 -6 607 -12 845 -33 l77 -7 0 -3771 c0
-4157 5 -3831 -62 -3960 -47 -90 -173 -211 -274 -264 -218 -112 -482 -166
-881 -179 l-203 -6 0 -310 0 -310 97 7 c635 40 2601 40 3236 0 l97 -7 0 310 0
310 -202 6 c-400 13 -664 67 -882 179 -101 53 -227 173 -274 264 -67 129 -62
-176 -60 3754 l3 3561 2835 -4170 c2362 -3475 2841 -4173 2871 -4190 33 -19
54 -21 214 -21 202 0 234 9 274 80 l21 38 0 4043 c0 4458 -5 4104 62 4233 47
90 173 211 274 264 218 112 482 166 882 179 l202 6 0 310 0 310 -97 -7 c-635
-40 -2601 -40 -3235 0 l-98 7 0 -310 0 -310 203 -6 c399 -13 663 -67 881 -179
101 -53 227 -173 274 -264 67 -129 62 105 60 -3066 l-3 -2874 -2366 3480
c-2033 2991 -2371 3484 -2405 3503 l-39 23 -1412 0 -1413 0 0 -308z"/>
</g>
</svg>
