<?xml version="1.0" standalone="no"?>
<!DOCTYPE svg PUBLIC "-//W3C//DTD SVG 20010904//EN"
 "http://www.w3.org/TR/2001/REC-SVG-20010904/DTD/svg10.dtd">
<svg version="1.0" xmlns="http://www.w3.org/2000/svg"
 width="693.000000pt" height="880.000000pt" viewBox="0 0 693.000000 880.000000"
 preserveAspectRatio="xMidYMid meet">
<metadata>
Created by potrace 1.16, written by Peter Selinger 2001-2019
</metadata>
<g transform="translate(0.000000,880.000000) scale(0.100000,-0.100000)"
fill="#000000" stroke="none">
<path d="M2665 8789 c-557 -54 -1131 -302 -1570 -679 -113 -97 -299 -288 -388
-400 -112 -139 -257 -364 -345 -537 -258 -506 -375 -1029 -359 -1603 10 -346
60 -643 164 -965 155 -481 399 -888 747 -1244 232 -237 459 -402 751 -546 204
-101 319 -144 519 -195 245 -63 346 -75 621 -74 179 0 269 4 352 17 324 51
625 156 893 309 202 116 344 223 528 394 l112 106 -2 -1264 -3 -1263 -31 -55
c-74 -131 -181 -156 -726 -167 l-308 -6 0 -310 0 -309 103 6 c663 41 2431 41
3095 0 l102 -6 0 309 0 310 -307 6 c-546 11 -653 36 -727 167 l-31 55 -3 3978
-2 3977 -256 -2 -256 -3 -221 -540 c-121 -297 -222 -542 -225 -545 -2 -3 -8 3
-14 13 -65 116 -328 407 -493 545 -341 286 -794 477 -1234 522 -119 12 -355
11 -486 -1z m745 -564 c580 -110 1065 -599 1290 -1300 l30 -95 0 -1255 0
-1255 -68 -133 c-306 -598 -780 -992 -1322 -1101 -418 -83 -727 -20 -1036 210
-447 335 -782 967 -898 1694 -41 259 -50 372 -50 665 -1 294 8 402 50 655 78
465 263 909 524 1255 277 366 647 609 1020 669 117 19 337 15 460 -9z"/>
</g>
</svg>
