<?xml version="1.0" standalone="no"?>
<!DOCTYPE svg PUBLIC "-//W3C//DTD SVG 20010904//EN"
 "http://www.w3.org/TR/2001/REC-SVG-20010904/DTD/svg10.dtd">
<svg version="1.0" xmlns="http://www.w3.org/2000/svg"
 width="428.000000pt" height="158.000000pt" viewBox="0 0 428.000000 158.000000"
 preserveAspectRatio="xMidYMid meet">
<metadata>
Created by potrace 1.16, written by Peter Selinger 2001-2019
</metadata>
<g transform="translate(0.000000,158.000000) scale(0.100000,-0.100000)"
fill="#000000" stroke="none">
<path d="M640 1565 c-297 -61 -528 -277 -612 -572 -32 -111 -32 -295 0 -406
64 -224 206 -398 407 -497 123 -61 191 -80 320 -87 211 -12 408 60 567 206
346 319 346 843 0 1162 -82 76 -157 122 -249 156 -146 53 -296 66 -433 38z"/>
<path d="M3325 1565 c-157 -36 -267 -93 -377 -194 -346 -319 -346 -843 0
-1162 159 -146 356 -218 567 -206 129 7 197 26 320 87 201 99 343 273 407 497
32 111 32 295 0 406 -64 224 -206 398 -407 497 -55 28 -127 57 -160 66 -83 22
-274 27 -350 9z"/>
</g>
</svg>
