<?xml version="1.0" standalone="no"?>
<!DOCTYPE svg PUBLIC "-//W3C//DTD SVG 20010904//EN"
 "http://www.w3.org/TR/2001/REC-SVG-20010904/DTD/svg10.dtd">
<svg version="1.0" xmlns="http://www.w3.org/2000/svg"
 width="171.000000pt" height="865.000000pt" viewBox="0 0 171.000000 865.000000"
 preserveAspectRatio="xMidYMid meet">
<metadata>
Created by potrace 1.16, written by Peter Selinger 2001-2019
</metadata>
<g transform="translate(0.000000,865.000000) scale(0.100000,-0.100000)"
fill="#000000" stroke="none">
<path d="M710 8644 c-211 -41 -400 -149 -520 -297 -64 -79 -133 -211 -162
-313 -33 -113 -33 -315 0 -428 66 -230 215 -413 423 -521 135 -70 219 -90 379
-90 160 0 244 20 379 90 161 83 273 195 356 356 70 135 90 219 90 379 0 160
-20 244 -90 379 -107 206 -290 356 -515 421 -74 21 -279 36 -340 24z"/>
<path d="M640 4331 c-301 -65 -514 -263 -606 -566 -25 -81 -28 -105 -28 -245
0 -140 3 -164 28 -245 86 -285 287 -483 562 -556 163 -43 392 -34 538 22 28
10 53 19 55 19 7 0 -11 -261 -29 -405 -89 -704 -382 -1365 -837 -1890 -83 -95
-93 -113 -93 -160 0 -54 18 -80 132 -192 108 -106 142 -124 205 -108 77 18
402 434 577 739 283 491 464 1036 531 1601 9 72 19 231 22 355 19 703 -119
1217 -392 1468 -170 156 -415 216 -665 163z"/>
</g>
</svg>
