<?xml version="1.0" standalone="no"?>
<!DOCTYPE svg PUBLIC "-//W3C//DTD SVG 20010904//EN"
 "http://www.w3.org/TR/2001/REC-SVG-20010904/DTD/svg10.dtd">
<svg version="1.0" xmlns="http://www.w3.org/2000/svg"
 width="313.000000pt" height="1328.000000pt" viewBox="0 0 313.000000 1328.000000"
 preserveAspectRatio="xMidYMid meet">
<metadata>
Created by potrace 1.16, written by Peter Selinger 2001-2019
</metadata>
<g transform="translate(0.000000,1328.000000) scale(0.100000,-0.100000)"
fill="#000000" stroke="none">
<path d="M2855 13268 c-28 -16 -205 -159 -305 -247 -457 -402 -828 -829 -1176
-1356 -604 -914 -1022 -2017 -1229 -3240 -101 -602 -140 -1089 -140 -1785 0
-473 8 -657 41 -1015 213 -2334 1168 -4294 2689 -5521 55 -44 110 -86 122 -92
37 -20 163 -15 200 8 55 33 79 110 52 163 -7 12 -98 110 -203 217 -708 723
-1221 1589 -1578 2665 -448 1351 -615 3125 -457 4850 99 1081 322 2034 673
2878 344 824 780 1493 1362 2087 105 107 196 205 203 217 27 53 3 130 -52 163
-37 23 -167 28 -202 8z"/>
</g>
</svg>
