<?xml version="1.0" standalone="no"?>
<!DOCTYPE svg PUBLIC "-//W3C//DTD SVG 20010904//EN"
 "http://www.w3.org/TR/2001/REC-SVG-20010904/DTD/svg10.dtd">
<svg version="1.0" xmlns="http://www.w3.org/2000/svg"
 width="699.000000pt" height="596.000000pt" viewBox="0 0 699.000000 596.000000"
 preserveAspectRatio="xMidYMid meet">
<metadata>
Created by potrace 1.16, written by Peter Selinger 2001-2019
</metadata>
<g transform="translate(0.000000,596.000000) scale(0.100000,-0.100000)"
fill="#000000" stroke="none">
<path d="M70 5651 l0 -311 203 0 c265 0 555 -17 691 -40 146 -25 247 -74 344
-168 89 -85 1657 -2228 1644 -2246 -5 -6 -285 -375 -623 -821 -430 -568 -641
-837 -704 -901 -273 -277 -647 -446 -1135 -513 -107 -15 -319 -31 -411 -31
l-79 0 0 -311 0 -311 73 6 c485 41 1949 41 2555 0 l92 -6 0 309 0 310 -48 6
c-83 10 -158 45 -221 103 -127 117 -153 302 -68 478 20 41 199 286 472 645
242 319 442 580 445 580 4 0 792 -1076 1038 -1416 87 -122 96 -148 68 -202
-48 -91 -221 -172 -403 -188 l-73 -6 0 -310 0 -310 98 7 c634 41 2320 41 2870
0 l82 -6 0 311 0 311 -207 0 c-225 0 -512 14 -635 30 -177 24 -283 70 -389
168 -55 51 -254 316 -936 1250 -477 653 -867 1194 -867 1202 0 17 1032 1378
1121 1479 253 287 658 483 1150 555 122 18 342 36 445 36 l78 0 0 311 0 311
-72 -6 c-486 -41 -1950 -41 -2556 0 l-92 6 0 -309 0 -310 48 -6 c221 -26 370
-225 332 -444 -21 -123 -55 -177 -439 -682 l-364 -479 -484 662 -484 661 4 48
c4 41 11 55 47 92 75 76 209 128 364 142 l76 6 0 310 0 310 -97 -7 c-633 -40
-2333 -41 -2870 0 l-83 6 0 -311z"/>
</g>
</svg>
