<?xml version="1.0" standalone="no"?>
<!DOCTYPE svg PUBLIC "-//W3C//DTD SVG 20010904//EN"
 "http://www.w3.org/TR/2001/REC-SVG-20010904/DTD/svg10.dtd">
<svg version="1.0" xmlns="http://www.w3.org/2000/svg"
 width="966.000000pt" height="908.000000pt" viewBox="0 0 966.000000 908.000000"
 preserveAspectRatio="xMidYMid meet">
<metadata>
Created by potrace 1.16, written by Peter Selinger 2001-2019
</metadata>
<g transform="translate(0.000000,908.000000) scale(0.100000,-0.100000)"
fill="#000000" stroke="none">
<path d="M0 8858 l0 -225 308 -6 c618 -12 794 -53 974 -225 47 -45 106 -116
143 -172 34 -52 679 -1108 1434 -2346 l1371 -2252 0 -1395 c0 -996 -3 -1411
-11 -1449 -14 -65 -49 -136 -91 -183 -93 -107 -296 -141 -916 -152 l-342 -6 0
-225 0 -225 118 7 c731 39 2881 39 3665 0 l127 -7 0 225 0 225 -347 6 c-443 8
-670 28 -793 71 -94 32 -162 104 -204 214 l-21 57 -3 1416 -2 1415 1288 2110
c708 1160 1303 2132 1322 2159 174 256 421 455 724 580 201 83 480 139 759
151 l147 7 0 225 0 224 -82 -6 c-519 -39 -2041 -39 -2685 0 l-103 6 0 -224 0
-225 99 -7 c332 -21 559 -152 632 -363 35 -104 21 -269 -32 -376 -33 -65
-2221 -3647 -2228 -3647 -12 0 -2426 3972 -2439 4013 -30 94 12 205 95 253
128 76 313 112 616 121 l207 6 0 225 0 225 -137 -7 c-845 -39 -2810 -39 -3485
0 l-108 7 0 -225z"/>
</g>
</svg>
