<?xml version="1.0" standalone="no"?>
<!DOCTYPE svg PUBLIC "-//W3C//DTD SVG 20010904//EN"
 "http://www.w3.org/TR/2001/REC-SVG-20010904/DTD/svg10.dtd">
<svg version="1.0" xmlns="http://www.w3.org/2000/svg"
 width="436.000000pt" height="937.000000pt" viewBox="0 0 436.000000 937.000000"
 preserveAspectRatio="xMidYMid meet">
<metadata>
Created by potrace 1.16, written by Peter Selinger 2001-2019
</metadata>
<g transform="translate(0.000000,937.000000) scale(0.100000,-0.100000)"
fill="#000000" stroke="none">
<path d="M2945 9360 c-604 -69 -1153 -376 -1502 -841 -222 -296 -363 -651
-402 -1011 -7 -60 -11 -417 -11 -943 l0 -845 -510 0 -510 0 0 -225 0 -225 510
0 510 0 0 -2227 c0 -2384 1 -2303 -48 -2399 -27 -52 -77 -99 -133 -123 -96
-43 -365 -71 -681 -71 l-168 0 0 -226 0 -226 92 6 c584 39 2368 39 3041 0
l107 -7 0 225 0 225 -332 6 c-706 14 -845 54 -930 265 l-23 57 -3 2248 -2
2247 750 0 750 0 0 225 0 225 -771 0 -770 0 4 913 c4 974 3 963 56 1205 68
311 231 633 427 841 152 161 331 275 509 323 148 39 419 27 573 -26 l36 -13
-64 -34 c-83 -44 -186 -146 -228 -226 -95 -180 -95 -416 0 -596 41 -78 145
-182 223 -224 104 -54 187 -74 305 -74 174 0 313 55 431 171 121 120 176 275
166 469 -23 436 -360 778 -880 892 -106 24 -389 34 -522 19z"/>
</g>
</svg>
