<?xml version="1.0" standalone="no"?>
<!DOCTYPE svg PUBLIC "-//W3C//DTD SVG 20010904//EN"
 "http://www.w3.org/TR/2001/REC-SVG-20010904/DTD/svg10.dtd">
<svg version="1.0" xmlns="http://www.w3.org/2000/svg"
 width="892.000000pt" height="1196.000000pt" viewBox="0 0 892.000000 1196.000000"
 preserveAspectRatio="xMidYMid meet">
<metadata>
Created by potrace 1.16, written by Peter Selinger 2001-2019
</metadata>
<g transform="translate(0.000000,1196.000000) scale(0.100000,-0.100000)"
fill="#000000" stroke="none">
<path d="M4190 11954 c-19 -2 -91 -9 -160 -15 -261 -23 -577 -88 -842 -175
-865 -282 -1608 -821 -2178 -1579 -989 -1317 -1277 -3134 -750 -4726 80 -241
144 -398 260 -634 455 -929 1166 -1657 2049 -2099 862 -432 1789 -551 2724
-350 104 22 324 81 368 99 13 5 20 -20 43 -157 153 -899 230 -1201 391 -1533
86 -178 171 -301 290 -421 231 -233 492 -343 856 -361 511 -24 935 214 1230
687 257 414 414 1034 436 1720 5 175 4 200 -12 233 -48 102 -192 116 -257 25
-11 -16 -22 -51 -25 -76 -22 -251 -45 -355 -113 -500 -151 -322 -428 -550
-790 -650 -88 -24 -110 -26 -295 -26 -191 0 -204 1 -289 27 -335 104 -570 347
-805 832 -75 153 -175 384 -170 390 2 1 64 33 136 69 864 431 1581 1169 2033
2091 116 236 180 393 260 634 354 1069 345 2272 -25 3349 -421 1227 -1270
2211 -2360 2738 -427 206 -869 335 -1335 390 -126 14 -591 27 -670 18z m570
-399 c366 -57 707 -190 1025 -400 859 -567 1421 -1583 1609 -2910 102 -726
101 -1624 -4 -2335 -172 -1156 -643 -2077 -1358 -2653 -45 -37 -86 -67 -90
-67 -4 0 -27 46 -51 103 -120 281 -286 576 -415 741 -77 98 -228 245 -316 308
-223 159 -496 237 -780 225 -270 -12 -496 -108 -690 -294 -103 -98 -167 -183
-229 -303 -169 -328 -174 -726 -14 -1044 19 -37 33 -70 30 -72 -2 -2 -73 31
-158 74 -764 383 -1345 1112 -1662 2087 -190 582 -287 1285 -287 2069 0 1332
265 2386 800 3181 447 666 1090 1125 1770 1264 83 17 133 25 300 45 75 9 420
-4 520 -19z m-147 -7340 c420 -63 685 -331 867 -875 35 -106 100 -346 100
-371 0 -23 -193 -113 -390 -181 -249 -86 -473 -122 -760 -122 -213 -1 -216 -1
-280 27 -223 94 -397 302 -457 544 -23 93 -23 303 0 396 62 249 241 459 469
547 132 51 272 62 451 35z"/>
</g>
</svg>
