<?xml version="1.0" standalone="no"?>
<!DOCTYPE svg PUBLIC "-//W3C//DTD SVG 20010904//EN"
 "http://www.w3.org/TR/2001/REC-SVG-20010904/DTD/svg10.dtd">
<svg version="1.0" xmlns="http://www.w3.org/2000/svg"
 width="532.000000pt" height="916.000000pt" viewBox="0 0 532.000000 916.000000"
 preserveAspectRatio="xMidYMid meet">
<metadata>
Created by potrace 1.16, written by Peter Selinger 2001-2019
</metadata>
<g transform="translate(0.000000,916.000000) scale(0.100000,-0.100000)"
fill="#000000" stroke="none">
<path d="M731 9142 c-19 -10 -43 -34 -53 -53 -17 -33 -18 -118 -16 -2261 l3
-2227 21 -28 c43 -58 79 -73 174 -73 114 0 134 14 227 153 129 194 240 322
388 445 276 231 596 372 975 428 165 25 439 25 544 0 325 -76 631 -347 821
-726 137 -273 211 -568 252 -1002 25 -271 25 -1217 0 -1468 -56 -543 -159
-873 -374 -1200 -95 -143 -303 -356 -433 -442 -391 -260 -777 -332 -1269 -237
-502 97 -977 421 -1274 869 -111 167 -274 522 -232 506 44 -17 158 -28 229
-23 251 19 456 148 554 347 59 119 76 193 76 325 0 132 -17 206 -76 325 -77
157 -231 277 -418 327 -101 27 -275 24 -370 -5 -115 -37 -203 -86 -277 -156
-80 -75 -133 -160 -171 -271 -25 -76 -27 -90 -26 -270 0 -524 176 -1038 503
-1475 392 -524 977 -860 1627 -936 178 -21 469 -14 666 16 1138 171 2062 981
2387 2092 75 259 109 470 118 748 27 860 -277 1692 -830 2266 -375 390 -823
634 -1332 725 -112 20 -163 24 -365 23 -174 0 -265 -4 -350 -17 -501 -77 -870
-246 -1222 -561 l-98 -87 0 1269 0 1269 122 -34 c496 -136 1022 -168 1489 -93
772 126 1475 534 1964 1139 101 126 105 135 105 219 0 46 -6 84 -15 103 -19
37 -70 69 -109 69 -16 0 -103 -32 -195 -71 -731 -313 -1541 -424 -2334 -318
-418 55 -792 160 -1192 333 -71 31 -141 56 -155 56 -14 0 -41 -8 -59 -18z"/>
</g>
</svg>
