<?xml version="1.0" standalone="no"?>
<!DOCTYPE svg PUBLIC "-//W3C//DTD SVG 20010904//EN"
 "http://www.w3.org/TR/2001/REC-SVG-20010904/DTD/svg10.dtd">
<svg version="1.0" xmlns="http://www.w3.org/2000/svg"
 width="941.000000pt" height="1008.000000pt" viewBox="0 0 941.000000 1008.000000"
 preserveAspectRatio="xMidYMid meet">
<metadata>
Created by potrace 1.16, written by Peter Selinger 2001-2019
</metadata>
<g transform="translate(0.000000,1008.000000) scale(0.100000,-0.100000)"
fill="#000000" stroke="none">
<path d="M4560 10073 c-30 -2 -122 -10 -205 -19 -933 -97 -1825 -480 -2575
-1108 -117 -98 -382 -359 -499 -491 -478 -540 -847 -1202 -1055 -1895 -461
-1530 -207 -3172 690 -4470 345 -500 790 -940 1290 -1277 644 -434 1360 -697
2149 -789 186 -22 719 -26 895 -6 694 76 1303 302 1720 639 96 78 271 259 334
344 l48 66 167 -167 c172 -172 298 -279 509 -428 171 -121 240 -162 276 -162
45 0 97 31 118 71 17 32 18 97 18 1425 0 1507 -2 1439 54 1524 59 90 193 117
629 127 l277 6 0 310 0 309 -102 -6 c-676 -41 -2886 -41 -3865 0 l-153 7 0
-312 0 -311 313 0 c171 0 436 -5 587 -10 516 -19 646 -42 750 -136 84 -76 80
-36 80 -764 0 -711 -3 -763 -60 -932 -60 -178 -158 -329 -309 -478 -268 -263
-656 -436 -1126 -502 -115 -16 -524 -16 -670 0 -469 53 -843 161 -1240 357
-344 170 -621 369 -890 639 -749 752 -1094 1827 -1095 3406 0 1207 198 2118
614 2817 484 815 1320 1382 2277 1547 234 41 351 50 599 50 262 0 400 -17 603
-75 886 -250 1594 -1091 1936 -2300 69 -243 117 -491 155 -794 34 -269 28
-265 328 -265 229 0 255 6 290 71 17 32 18 113 18 1959 0 1846 -1 1927 -18
1959 -29 53 -72 71 -172 71 -65 0 -92 -4 -115 -18 -17 -11 -206 -251 -443
-565 l-413 -546 -137 137 c-580 581 -1268 912 -2042 982 -104 9 -402 11 -540
3z"/>
</g>
</svg>
