<?xml version="1.0" standalone="no"?>
<!DOCTYPE svg PUBLIC "-//W3C//DTD SVG 20010904//EN"
 "http://www.w3.org/TR/2001/REC-SVG-20010904/DTD/svg10.dtd">
<svg version="1.0" xmlns="http://www.w3.org/2000/svg"
 width="877.000000pt" height="977.000000pt" viewBox="0 0 877.000000 977.000000"
 preserveAspectRatio="xMidYMid meet">
<metadata>
Created by potrace 1.16, written by Peter Selinger 2001-2019
</metadata>
<g transform="translate(0.000000,977.000000) scale(0.100000,-0.100000)"
fill="#000000" stroke="none">
<path d="M4020 9759 c-304 -21 -698 -88 -991 -168 -594 -164 -1136 -437 -1599
-807 -169 -135 -435 -400 -565 -564 -243 -304 -432 -645 -552 -995 -258 -756
-188 -1594 208 -2494 168 -380 395 -781 792 -1396 464 -718 601 -939 756
-1218 110 -197 245 -477 319 -662 60 -150 152 -423 152 -452 0 -13 -78 -14
-652 -10 -667 5 -753 9 -918 48 -123 28 -184 61 -216 115 -72 123 -161 464
-294 1126 l-11 58 -226 0 -225 0 5 -22 c3 -13 105 -529 227 -1148 122 -619
224 -1135 227 -1147 l5 -23 1245 0 1245 0 38 21 c21 12 48 39 60 62 23 39 23
45 17 236 -21 631 -148 1272 -426 2147 -39 122 -163 490 -275 818 -457 1328
-596 1868 -667 2591 -17 171 -18 674 -1 835 81 779 337 1386 780 1842 134 138
249 237 383 330 342 237 713 385 1134 450 201 31 569 31 770 0 868 -135 1583
-651 1969 -1421 172 -341 280 -739 328 -1201 17 -161 16 -664 -1 -835 -71
-723 -210 -1263 -667 -2591 -225 -656 -315 -933 -405 -1248 -192 -673 -288
-1246 -292 -1733 -2 -222 -1 -227 67 -277 27 -21 33 -21 1281 -24 l1253 -2 5
22 c3 13 105 529 227 1148 122 619 224 1135 227 1148 l5 22 -225 0 -226 0 -11
-57 c-133 -663 -222 -1004 -294 -1127 -32 -54 -93 -87 -216 -115 -165 -39
-251 -43 -917 -48 -575 -4 -653 -3 -653 10 0 29 92 302 152 452 74 185 209
465 319 662 155 279 292 500 756 1218 397 615 624 1016 792 1396 396 900 466
1738 208 2494 -120 350 -309 691 -552 995 -130 164 -396 429 -565 564 -228
182 -500 356 -761 487 -747 374 -1655 548 -2549 488z"/>
</g>
</svg>
