<?xml version="1.0" standalone="no"?>
<!DOCTYPE svg PUBLIC "-//W3C//DTD SVG 20010904//EN"
 "http://www.w3.org/TR/2001/REC-SVG-20010904/DTD/svg10.dtd">
<svg version="1.0" xmlns="http://www.w3.org/2000/svg"
 width="499.000000pt" height="976.000000pt" viewBox="0 0 499.000000 976.000000"
 preserveAspectRatio="xMidYMid meet">
<metadata>
Created by potrace 1.16, written by Peter Selinger 2001-2019
</metadata>
<g transform="translate(0.000000,976.000000) scale(0.100000,-0.100000)"
fill="#000000" stroke="none">
<path d="M2080 9754 c-767 -72 -1426 -425 -1781 -953 -206 -306 -312 -660
-296 -991 13 -282 141 -490 377 -615 113 -59 206 -80 355 -80 106 0 145 5 210
23 255 74 434 255 501 507 26 97 26 303 0 400 -39 148 -125 285 -234 370 -79
63 -196 120 -288 140 -139 31 -133 20 -62 101 240 271 599 468 998 548 187 37
348 50 560 43 480 -16 773 -109 976 -313 118 -117 173 -255 210 -524 26 -182
26 -729 1 -885 -23 -148 -58 -273 -105 -384 -69 -158 -117 -227 -324 -458
-393 -437 -697 -971 -898 -1573 -130 -388 -204 -752 -240 -1175 -5 -66 -10
-343 -10 -615 0 -479 1 -496 20 -528 33 -53 68 -62 252 -62 180 0 212 8 252
63 20 28 21 43 27 535 7 565 13 638 85 922 199 792 715 1522 1479 2089 77 58
163 122 192 143 92 70 265 258 342 372 401 601 401 1378 0 1982 -103 155 -302
352 -462 458 -375 248 -818 389 -1397 446 -109 11 -661 21 -740 14z"/>
<path d="M2180 1654 c-211 -41 -400 -149 -520 -297 -64 -79 -133 -211 -162
-313 -33 -113 -33 -315 0 -428 66 -230 215 -413 423 -521 135 -70 219 -90 379
-90 160 0 244 20 379 90 161 83 273 195 356 356 70 135 90 219 90 379 0 160
-20 244 -90 379 -107 206 -290 356 -515 421 -74 21 -279 36 -340 24z"/>
</g>
</svg>
