<?xml version="1.0" standalone="no"?>
<!DOCTYPE svg PUBLIC "-//W3C//DTD SVG 20010904//EN"
 "http://www.w3.org/TR/2001/REC-SVG-20010904/DTD/svg10.dtd">
<svg version="1.0" xmlns="http://www.w3.org/2000/svg"
 width="933.000000pt" height="908.000000pt" viewBox="0 0 933.000000 908.000000"
 preserveAspectRatio="xMidYMid meet">
<metadata>
Created by potrace 1.16, written by Peter Selinger 2001-2019
</metadata>
<g transform="translate(0.000000,908.000000) scale(0.100000,-0.100000)"
fill="#000000" stroke="none">
<path d="M180 8856 l0 -226 193 0 c371 -1 694 -28 835 -72 198 -61 308 -158
492 -433 244 -366 2380 -3614 2380 -3620 0 -9 -2197 -3283 -2242 -3340 -107
-137 -299 -305 -455 -399 -223 -133 -528 -235 -843 -280 -125 -18 -355 -36
-462 -36 l-78 0 0 -226 0 -226 92 6 c581 39 2302 39 3006 0 l112 -6 0 224 0
225 -78 6 c-252 20 -457 110 -605 266 -137 145 -179 328 -110 481 20 44 1924
2889 1934 2890 9 0 2117 -3204 2129 -3236 30 -78 -63 -190 -221 -267 -158 -76
-333 -120 -533 -133 l-106 -7 0 -225 0 -225 128 7 c789 39 2790 39 3465 0
l107 -7 0 227 0 226 -192 0 c-369 0 -676 26 -839 71 -130 36 -253 119 -357
242 -67 78 -2877 4346 -2876 4368 0 16 1778 2672 1862 2784 66 87 226 241 319
308 327 233 714 358 1228 397 77 5 175 10 218 10 l77 0 0 226 0 226 -92 -6
c-584 -39 -2283 -39 -3010 0 l-118 7 0 -225 0 -225 84 -7 c254 -19 471 -115
612 -269 123 -135 168 -319 111 -457 -13 -30 -371 -574 -796 -1208 l-773
-1153 -54 80 c-72 108 -1650 2504 -1686 2560 -37 59 -37 104 1 162 65 97 232
187 450 244 81 21 258 45 334 45 l57 0 0 226 0 226 -132 -6 c-821 -39 -2794
-39 -3460 0 l-108 7 0 -227z"/>
</g>
</svg>
