<?xml version="1.0" standalone="no"?>
<!DOCTYPE svg PUBLIC "-//W3C//DTD SVG 20010904//EN"
 "http://www.w3.org/TR/2001/REC-SVG-20010904/DTD/svg10.dtd">
<svg version="1.0" xmlns="http://www.w3.org/2000/svg"
 width="286.000000pt" height="243.000000pt" viewBox="0 0 286.000000 243.000000"
 preserveAspectRatio="xMidYMid meet">
<metadata>
Created by potrace 1.16, written by Peter Selinger 2001-2019
</metadata>
<g transform="translate(0.000000,243.000000) scale(0.100000,-0.100000)"
fill="#000000" stroke="none">
<path d="M1200 2415 c-576 -79 -1035 -450 -1167 -943 -23 -85 -26 -116 -26
-257 0 -141 3 -172 26 -257 133 -497 593 -866 1177 -944 738 -98 1438 313
1607 944 23 85 26 116 26 257 0 141 -3 172 -26 257 -117 437 -492 782 -989
909 -187 47 -433 61 -628 34z m520 -505 c191 -20 326 -74 420 -169 64 -64 100
-131 132 -246 19 -70 22 -105 22 -280 0 -175 -3 -210 -22 -280 -32 -115 -68
-182 -132 -246 -134 -135 -310 -179 -715 -179 -405 0 -581 44 -715 179 -64 64
-100 131 -132 246 -19 70 -22 105 -22 280 0 175 3 210 22 280 32 115 68 182
132 246 91 92 232 150 407 168 112 12 492 12 603 1z"/>
</g>
</svg>
