<?xml version="1.0" standalone="no"?>
<!DOCTYPE svg PUBLIC "-//W3C//DTD SVG 20010904//EN"
 "http://www.w3.org/TR/2001/REC-SVG-20010904/DTD/svg10.dtd">
<svg version="1.0" xmlns="http://www.w3.org/2000/svg"
 width="863.000000pt" height="946.000000pt" viewBox="0 0 863.000000 946.000000"
 preserveAspectRatio="xMidYMid meet">
<metadata>
Created by potrace 1.16, written by Peter Selinger 2001-2019
</metadata>
<g transform="translate(0.000000,946.000000) scale(0.100000,-0.100000)"
fill="#000000" stroke="none">
<path d="M0 9152 l0 -309 403 -6 c545 -8 760 -27 862 -77 50 -24 108 -78 132
-123 17 -30 18 -234 18 -3907 0 -3673 -1 -3877 -18 -3907 -24 -45 -82 -99
-132 -123 -102 -50 -317 -69 -862 -77 l-403 -6 0 -309 0 -308 2933 3 c2929 3
2932 3 3078 24 436 63 744 156 1094 328 861 424 1420 1168 1505 2004 104 1040
-635 2008 -1850 2423 -205 70 -591 158 -694 158 -49 0 -24 10 101 41 431 109
824 285 1154 519 380 270 672 633 812 1010 220 593 94 1245 -351 1820 -89 114
-284 308 -409 408 -525 416 -1175 656 -1923 712 -86 6 -1106 10 -2792 10
l-2658 0 0 -308z m5355 -327 c315 -47 593 -193 826 -432 270 -275 432 -610
495 -1018 26 -168 23 -435 -5 -600 -91 -524 -374 -968 -804 -1263 -235 -161
-479 -259 -782 -315 -105 -19 -159 -20 -1212 -24 l-1103 -4 0 1710 c0 1182 3
1725 11 1760 27 128 99 171 317 190 48 5 553 9 1122 10 874 1 1051 -1 1135
-14z m223 -4180 c641 -104 1188 -675 1382 -1445 150 -594 81 -1176 -195 -1645
-308 -523 -832 -865 -1420 -925 -144 -15 -2256 -8 -2331 8 -141 29 -182 54
-218 132 l-21 45 -3 1923 -2 1922 1357 0 c1159 0 1372 -2 1451 -15z"/>
</g>
</svg>
