<?xml version="1.0" standalone="no"?>
<!DOCTYPE svg PUBLIC "-//W3C//DTD SVG 20010904//EN"
 "http://www.w3.org/TR/2001/REC-SVG-20010904/DTD/svg10.dtd">
<svg version="1.0" xmlns="http://www.w3.org/2000/svg"
 width="899.000000pt" height="938.000000pt" viewBox="0 0 899.000000 938.000000"
 preserveAspectRatio="xMidYMid meet">
<metadata>
Created by potrace 1.16, written by Peter Selinger 2001-2019
</metadata>
<g transform="translate(0.000000,938.000000) scale(0.100000,-0.100000)"
fill="#000000" stroke="none">
<path d="M266 9323 c-4 -32 -62 -728 -131 -1548 -68 -819 -127 -1516 -131
-1547 l-6 -58 226 0 c124 0 226 4 226 8 0 4 11 131 25 282 108 1178 266 1708
589 1979 272 229 584 345 1081 403 155 18 1289 18 1395 0 164 -28 231 -71 266
-173 18 -52 19 -170 19 -3939 l0 -3885 -29 -53 c-64 -115 -176 -182 -354 -212
-220 -37 -702 -59 -1289 -60 l-333 0 0 -261 0 -262 168 7 c1068 41 3946 41
5015 0 l167 -7 0 262 0 261 -332 0 c-588 1 -1070 23 -1290 60 -178 30 -290 97
-354 212 l-29 53 0 3885 c0 3769 1 3887 19 3939 23 68 78 124 142 145 117 38
183 41 804 41 658 0 745 -5 1020 -61 333 -68 619 -209 819 -403 285 -276 433
-807 536 -1931 14 -151 25 -278 25 -282 0 -4 102 -8 226 -8 l226 0 -6 58 c-4
31 -63 728 -131 1547 -69 820 -127 1516 -131 1548 l-6 57 -4218 0 -4218 0 -6
-57z"/>
</g>
</svg>
