<?xml version="1.0" standalone="no"?>
<!DOCTYPE svg PUBLIC "-//W3C//DTD SVG 20010904//EN"
 "http://www.w3.org/TR/2001/REC-SVG-20010904/DTD/svg10.dtd">
<svg version="1.0" xmlns="http://www.w3.org/2000/svg"
 width="999.000000pt" height="1115.000000pt" viewBox="0 0 999.000000 1115.000000"
 preserveAspectRatio="xMidYMid meet">
<metadata>
Created by potrace 1.16, written by Peter Selinger 2001-2019
</metadata>
<g transform="translate(0.000000,1115.000000) scale(0.100000,-0.100000)"
fill="#000000" stroke="none">
<path d="M1860 11139 c-401 -51 -810 -282 -1119 -630 -383 -432 -631 -1022
-718 -1704 -25 -198 -25 -692 0 -890 87 -682 335 -1272 718 -1704 279 -314
642 -534 1007 -611 141 -30 361 -37 482 -16 495 87 924 454 1225 1047 193 381
305 766 361 1244 25 213 25 757 0 970 -32 279 -88 540 -168 785 -22 69 -43
130 -45 136 -2 6 78 -30 179 -81 914 -459 1943 -572 2881 -315 229 63 453 148
649 246 l88 44 -134 -197 c-718 -1063 -6070 -9031 -6087 -9064 -35 -65 -33
-175 3 -244 87 -165 300 -206 432 -82 61 58 7184 10655 7203 10716 31 102 6
200 -71 276 -89 90 -210 109 -322 52 -56 -29 -81 -54 -149 -151 -453 -647
-1158 -1105 -1940 -1260 -797 -157 -1618 -44 -2360 327 -353 176 -644 384
-991 708 -233 217 -479 347 -748 394 -94 16 -268 18 -376 4z m385 -424 c130
-35 306 -139 429 -254 56 -53 178 -200 235 -284 242 -359 392 -806 457 -1362
25 -210 25 -700 0 -910 -76 -647 -268 -1150 -580 -1522 -126 -151 -247 -249
-391 -318 -106 -51 -185 -73 -295 -82 -341 -26 -663 210 -875 641 -135 276
-206 570 -247 1026 -18 200 -18 1220 0 1420 41 456 112 750 247 1026 169 344
418 574 684 630 81 17 251 11 336 -11z"/>
<path d="M8000 5569 c-401 -51 -810 -282 -1119 -630 -383 -432 -631 -1022
-718 -1704 -25 -198 -25 -692 0 -890 87 -682 335 -1272 718 -1704 279 -314
642 -534 1007 -611 141 -30 361 -37 482 -16 495 87 924 454 1225 1047 193 381
305 766 361 1244 25 213 25 757 0 970 -56 478 -168 863 -361 1244 -343 676
-865 1066 -1419 1060 -61 -1 -140 -5 -176 -10z m385 -424 c130 -35 306 -139
429 -254 56 -53 178 -200 235 -284 242 -359 392 -806 457 -1362 25 -210 25
-700 0 -910 -76 -647 -268 -1150 -580 -1522 -126 -151 -247 -249 -391 -318
-106 -51 -185 -73 -295 -82 -341 -26 -663 210 -875 641 -135 276 -206 570
-247 1026 -18 200 -18 1220 0 1420 41 456 112 750 247 1026 169 344 418 574
684 630 81 17 251 11 336 -11z"/>
</g>
</svg>
