<?xml version="1.0" standalone="no"?>
<!DOCTYPE svg PUBLIC "-//W3C//DTD SVG 20010904//EN"
 "http://www.w3.org/TR/2001/REC-SVG-20010904/DTD/svg10.dtd">
<svg version="1.0" xmlns="http://www.w3.org/2000/svg"
 width="959.000000pt" height="1180.000000pt" viewBox="0 0 959.000000 1180.000000"
 preserveAspectRatio="xMidYMid meet">
<metadata>
Created by potrace 1.16, written by Peter Selinger 2001-2019
</metadata>
<g transform="translate(0.000000,1180.000000) scale(0.100000,-0.100000)"
fill="#000000" stroke="none">
<path d="M4711 11789 c-52 -16 -114 -62 -145 -109 -21 -32 -142 -468 -589
-2128 l-563 -2087 -1610 -5 c-1575 -5 -1610 -5 -1649 -25 -197 -98 -206 -374
-14 -480 l54 -30 1531 -5 1530 -5 -271 -1015 -271 -1015 -1260 -5 -1259 -5
-54 -30 c-192 -106 -183 -382 14 -480 39 -19 72 -20 1220 -25 l1181 -5 -533
-1975 c-293 -1086 -538 -2001 -545 -2033 -31 -148 60 -289 207 -320 106 -22
220 24 279 113 21 32 142 468 589 2128 l563 2087 1246 3 1246 2 -14 -47 c-44
-155 -1058 -3927 -1067 -3970 -30 -144 63 -285 208 -316 106 -22 220 24 279
113 21 32 142 468 589 2128 l563 2087 1610 5 c1575 5 1610 5 1649 25 197 98
206 374 14 480 l-54 30 -1531 5 -1530 5 271 1015 271 1015 1260 5 1259 5 54
30 c192 106 183 382 -14 480 -39 19 -72 20 -1220 25 l-1181 5 533 1975 c293
1086 538 2001 545 2033 31 148 -60 289 -207 320 -106 22 -220 -24 -279 -113
-21 -32 -142 -468 -589 -2128 l-563 -2087 -1247 -3 -1246 -2 9 27 c5 16 249
917 542 2003 581 2153 559 2061 513 2155 -25 50 -80 106 -130 129 -46 22 -146
30 -194 15z m1577 -4941 c-11 -40 -133 -498 -272 -1018 l-252 -945 -1247 -3
c-996 -2 -1245 0 -1242 10 3 7 124 461 270 1008 146 547 267 1001 270 1008 3
9 262 12 1249 12 l1244 0 -20 -72z"/>
</g>
</svg>
