<?xml version="1.0" standalone="no"?>
<!DOCTYPE svg PUBLIC "-//W3C//DTD SVG 20010904//EN"
 "http://www.w3.org/TR/2001/REC-SVG-20010904/DTD/svg10.dtd">
<svg version="1.0" xmlns="http://www.w3.org/2000/svg"
 width="1025.000000pt" height="992.000000pt" viewBox="0 0 1025.000000 992.000000"
 preserveAspectRatio="xMidYMid meet">
<metadata>
Created by potrace 1.16, written by Peter Selinger 2001-2019
</metadata>
<g transform="translate(0.000000,992.000000) scale(0.100000,-0.100000)"
fill="#000000" stroke="none">
<path d="M4856 9904 c-34 -11 -63 -30 -99 -67 -46 -48 -215 -390 -2405 -4881
-2117 -4343 -2354 -4833 -2348 -4865 3 -19 17 -46 31 -60 l25 -26 5060 0 5060
0 25 26 c14 14 28 41 31 60 6 32 -231 522 -2348 4865 -2188 4486 -2359 4833
-2405 4881 -74 76 -107 83 -367 82 -157 0 -223 -4 -260 -15z m1529 -5130 c941
-1929 1712 -3510 1713 -3515 2 -5 -1423 -9 -3428 -9 -2210 0 -3430 3 -3428 10
10 30 3424 7020 3428 7020 3 0 775 -1578 1715 -3506z"/>
</g>
</svg>
