<?xml version="1.0" standalone="no"?>
<!DOCTYPE svg PUBLIC "-//W3C//DTD SVG 20010904//EN"
 "http://www.w3.org/TR/2001/REC-SVG-20010904/DTD/svg10.dtd">
<svg version="1.0" xmlns="http://www.w3.org/2000/svg"
 width="362.000000pt" height="1209.000000pt" viewBox="0 0 362.000000 1209.000000"
 preserveAspectRatio="xMidYMid meet">
<metadata>
Created by potrace 1.16, written by Peter Selinger 2001-2019
</metadata>
<g transform="translate(0.000000,1209.000000) scale(0.100000,-0.100000)"
fill="#000000" stroke="none">
<path d="M2680 12075 c-298 -63 -528 -282 -607 -575 -24 -89 -24 -291 0 -380
60 -223 209 -405 412 -506 129 -63 196 -79 345 -79 149 0 216 16 345 79 203
101 352 283 412 506 24 89 24 290 0 380 -25 94 -97 235 -160 311 -95 114 -254
215 -402 255 -83 22 -264 27 -345 9z"/>
<path d="M2495 8874 c-577 -40 -1058 -73 -1067 -73 -17 -1 -18 -20 -18 -259
l0 -259 248 -6 c652 -16 834 -97 910 -404 15 -63 17 -294 20 -2968 2 -2030 0
-2945 -8 -3050 -26 -358 -98 -663 -214 -908 -123 -259 -330 -455 -541 -511
-177 -48 -507 -22 -767 60 -43 14 -78 28 -78 32 0 4 24 19 53 35 193 101 320
306 334 544 26 418 -267 733 -682 733 -350 0 -621 -226 -675 -563 -16 -99 -8
-256 20 -362 26 -102 97 -250 161 -336 263 -355 796 -579 1378 -579 514 0
1012 201 1384 558 333 320 537 703 629 1182 l22 115 3 3548 3 3547 -32 -1
c-18 -1 -505 -34 -1083 -75z"/>
</g>
</svg>
