<?xml version="1.0" standalone="no"?>
<!DOCTYPE svg PUBLIC "-//W3C//DTD SVG 20010904//EN"
 "http://www.w3.org/TR/2001/REC-SVG-20010904/DTD/svg10.dtd">
<svg version="1.0" xmlns="http://www.w3.org/2000/svg"
 width="157.000000pt" height="992.000000pt" viewBox="0 0 157.000000 992.000000"
 preserveAspectRatio="xMidYMid meet">
<metadata>
Created by potrace 1.16, written by Peter Selinger 2001-2019
</metadata>
<g transform="translate(0.000000,992.000000) scale(0.100000,-0.100000)"
fill="#000000" stroke="none">
<path d="M660 9914 c-87 -17 -186 -51 -264 -92 -125 -64 -254 -191 -315 -309
-52 -103 -81 -213 -81 -312 0 -67 540 -6307 556 -6421 4 -33 15 -54 44 -82
l38 -38 137 0 c153 0 188 11 215 67 14 31 569 6331 570 6469 0 104 -28 212
-81 317 -61 118 -190 245 -314 309 -130 67 -215 89 -360 93 -66 2 -131 1 -145
-1z"/>
<path d="M630 1545 c-298 -63 -528 -282 -607 -575 -24 -89 -24 -291 0 -380 60
-223 209 -405 412 -506 129 -63 196 -79 345 -79 149 0 216 16 345 79 203 101
352 283 412 506 24 89 24 290 0 380 -25 94 -97 235 -160 311 -95 114 -254 215
-402 255 -83 22 -264 27 -345 9z"/>
</g>
</svg>
