<?xml version="1.0" standalone="no"?>
<!DOCTYPE svg PUBLIC "-//W3C//DTD SVG 20010904//EN"
 "http://www.w3.org/TR/2001/REC-SVG-20010904/DTD/svg10.dtd">
<svg version="1.0" xmlns="http://www.w3.org/2000/svg"
 width="1218.000000pt" height="968.000000pt" viewBox="0 0 1218.000000 968.000000"
 preserveAspectRatio="xMidYMid meet">
<metadata>
Created by potrace 1.16, written by Peter Selinger 2001-2019
</metadata>
<g transform="translate(0.000000,968.000000) scale(0.100000,-0.100000)"
fill="#000000" stroke="none">
<path d="M4130 9670 c-1533 -127 -2874 -1076 -3595 -2545 -339 -690 -512
-1406 -532 -2200 -21 -834 155 -1642 517 -2380 646 -1316 1816 -2228 3180
-2479 247 -45 415 -60 695 -60 340 0 442 14 1030 144 345 76 420 91 615 123
l135 21 2722 3 2721 3 6 28 c3 15 125 781 271 1702 146 921 268 1687 271 1702
l6 28 -186 0 -185 0 -6 -32 c-3 -18 -26 -157 -51 -308 -198 -1194 -430 -1809
-811 -2141 -265 -232 -623 -388 -1068 -464 -334 -57 -420 -60 -1540 -60 -957
0 -1036 1 -1114 18 -163 35 -224 92 -250 232 -8 41 -11 617 -11 1922 l0 1863
763 0 c754 0 994 -7 1196 -35 293 -41 501 -125 631 -255 217 -217 310 -549
310 -1112 l0 -148 185 0 185 0 0 1775 0 1775 -185 0 -185 0 0 -147 c0 -754
-174 -1132 -590 -1284 -282 -103 -494 -119 -1547 -119 l-763 0 0 1688 c0 1179
3 1706 11 1747 25 137 85 194 239 231 68 16 160 18 995 22 938 4 1223 -3 1470
-34 452 -57 779 -186 1045 -410 356 -300 558 -848 684 -1854 15 -113 29 -222
32 -242 l6 -38 185 0 185 0 -6 38 c-3 20 -85 685 -181 1477 -96 792 -178 1457
-181 1477 l-6 38 -2626 3 -2627 3 -135 21 c-195 32 -270 47 -615 123 -551 122
-670 140 -970 145 -121 2 -267 0 -325 -5z m660 -355 c363 -55 628 -192 775
-399 193 -273 293 -791 325 -1681 13 -369 13 -4421 0 -4790 -32 -890 -132
-1408 -325 -1681 -149 -209 -412 -343 -785 -401 -162 -25 -514 -25 -661 0
-703 118 -1332 569 -1830 1314 -483 721 -787 1621 -884 2613 -113 1173 50
2242 479 3135 529 1100 1378 1799 2317 1904 119 14 463 5 589 -14z"/>
</g>
</svg>
