<?xml version="1.0" standalone="no"?>
<!DOCTYPE svg PUBLIC "-//W3C//DTD SVG 20010904//EN"
 "http://www.w3.org/TR/2001/REC-SVG-20010904/DTD/svg10.dtd">
<svg version="1.0" xmlns="http://www.w3.org/2000/svg"
 width="766.000000pt" height="946.000000pt" viewBox="0 0 766.000000 946.000000"
 preserveAspectRatio="xMidYMid meet">
<metadata>
Created by potrace 1.16, written by Peter Selinger 2001-2019
</metadata>
<g transform="translate(0.000000,946.000000) scale(0.100000,-0.100000)"
fill="#000000" stroke="none">
<path d="M0 9203 l0 -260 373 -6 c717 -12 882 -44 981 -190 72 -107 66 263 66
-4017 0 -4280 6 -3910 -66 -4017 -99 -146 -264 -178 -981 -190 l-373 -6 0
-259 0 -258 3634 0 3634 0 6 48 c4 26 87 828 186 1782 99 954 182 1756 186
1782 l6 48 -226 0 c-124 0 -226 -2 -226 -5 0 -32 -67 -590 -86 -720 -158
-1066 -465 -1644 -1079 -2030 -293 -185 -669 -307 -1115 -362 -129 -16 -237
-18 -975 -18 -857 0 -908 2 -1029 41 -64 21 -119 77 -142 145 -18 52 -19 171
-19 3979 l0 3925 22 47 c30 65 102 139 166 172 140 70 567 105 1290 106 l297
0 0 261 0 262 -152 -7 c-979 -41 -3424 -41 -4250 0 l-128 7 0 -260z"/>
</g>
</svg>
