<?xml version="1.0" standalone="no"?>
<!DOCTYPE svg PUBLIC "-//W3C//DTD SVG 20010904//EN"
 "http://www.w3.org/TR/2001/REC-SVG-20010904/DTD/svg10.dtd">
<svg version="1.0" xmlns="http://www.w3.org/2000/svg"
 width="922.000000pt" height="1008.000000pt" viewBox="0 0 922.000000 1008.000000"
 preserveAspectRatio="xMidYMid meet">
<metadata>
Created by potrace 1.16, written by Peter Selinger 2001-2019
</metadata>
<g transform="translate(0.000000,1008.000000) scale(0.100000,-0.100000)"
fill="#000000" stroke="none">
<path d="M4295 10069 c-1331 -101 -2558 -834 -3370 -2014 -311 -451 -572
-1015 -721 -1555 -466 -1685 -122 -3467 921 -4772 434 -544 961 -972 1567
-1273 459 -228 939 -370 1466 -432 206 -24 688 -24 894 0 1307 155 2442 845
3226 1962 1007 1435 1214 3379 540 5070 -646 1620 -2043 2765 -3643 2984 -289
40 -607 51 -880 30z m526 -549 c496 -50 949 -235 1369 -561 188 -145 433 -402
583 -608 576 -796 837 -1855 814 -3301 -10 -610 -50 -1037 -138 -1490 -276
-1419 -1002 -2436 -2024 -2836 -264 -103 -515 -148 -820 -148 -305 0 -556 45
-820 148 -937 367 -1636 1264 -1948 2501 -140 555 -201 1075 -214 1825 -23
1446 238 2505 814 3301 150 206 395 463 583 608 544 422 1186 622 1801 561z"/>
</g>
</svg>
