<?xml version="1.0" standalone="no"?>
<!DOCTYPE svg PUBLIC "-//W3C//DTD SVG 20010904//EN"
 "http://www.w3.org/TR/2001/REC-SVG-20010904/DTD/svg10.dtd">
<svg version="1.0" xmlns="http://www.w3.org/2000/svg"
 width="516.000000pt" height="1070.000000pt" viewBox="0 0 516.000000 1070.000000"
 preserveAspectRatio="xMidYMid meet">
<metadata>
Created by potrace 1.16, written by Peter Selinger 2001-2019
</metadata>
<g transform="translate(0.000000,1070.000000) scale(0.100000,-0.100000)"
fill="#000000" stroke="none">
<path d="M2350 10402 l0 -299 -127 -17 c-455 -63 -893 -251 -1257 -539 -506
-401 -843 -988 -941 -1637 -23 -150 -30 -419 -16 -580 43 -498 245 -997 561
-1389 233 -289 513 -512 860 -685 201 -100 348 -150 669 -231 l246 -61 3
-1957 2 -1957 -24 0 c-44 0 -251 29 -352 50 -729 149 -1259 605 -1482 1275
-22 66 -44 138 -48 159 -7 38 -6 39 17 32 207 -58 463 6 615 154 192 186 239
491 117 750 -27 57 -54 93 -112 150 -128 127 -261 180 -451 180 -190 0 -323
-53 -451 -180 -161 -159 -202 -336 -168 -725 22 -262 64 -470 141 -700 167
-506 473 -910 900 -1191 326 -215 789 -368 1209 -400 l89 -7 0 -298 0 -299
225 0 225 0 0 300 c0 233 3 300 13 300 41 0 230 34 336 61 453 112 847 336
1187 674 418 415 689 963 786 1590 29 189 32 616 5 800 -156 1061 -808 1894
-1742 2225 -50 17 -200 60 -335 94 l-245 63 -3 1773 -2 1773 77 -7 c584 -51
1058 -250 1388 -581 137 -138 226 -262 310 -430 61 -124 131 -303 121 -312 -3
-3 -28 0 -56 6 -191 41 -428 -29 -569 -168 -241 -237 -241 -665 0 -903 78 -77
190 -136 306 -162 286 -63 581 69 702 314 62 128 74 200 67 410 -9 286 -48
508 -132 760 -215 644 -698 1123 -1369 1360 -212 74 -531 141 -742 156 l-103
7 0 298 0 299 -225 0 -225 0 0 -298z m-3 -4178 c-7 -8 -391 97 -472 128 -248
97 -447 223 -634 403 -241 233 -394 491 -471 799 -112 447 -29 907 235 1301
274 407 756 707 1252 778 l88 13 3 -1710 c1 -940 1 -1711 -1 -1712z m609
-1413 c259 -65 485 -165 674 -299 116 -82 335 -297 420 -412 181 -247 297
-519 351 -826 33 -184 33 -474 0 -658 -69 -391 -234 -719 -500 -998 -175 -183
-335 -299 -556 -403 -165 -78 -419 -154 -517 -155 l-28 0 0 1896 c0 1800 1
1895 18 1890 9 -3 71 -19 138 -35z"/>
</g>
</svg>
