<?xml version="1.0" standalone="no"?>
<!DOCTYPE svg PUBLIC "-//W3C//DTD SVG 20010904//EN"
 "http://www.w3.org/TR/2001/REC-SVG-20010904/DTD/svg10.dtd">
<svg version="1.0" xmlns="http://www.w3.org/2000/svg"
 width="462.000000pt" height="136.000000pt" viewBox="0 0 462.000000 136.000000"
 preserveAspectRatio="xMidYMid meet">
<metadata>
Created by potrace 1.16, written by Peter Selinger 2001-2019
</metadata>
<g transform="translate(0.000000,136.000000) scale(0.100000,-0.100000)"
fill="#000000" stroke="none">
<path d="M1287 1345 c-249 -47 -501 -197 -729 -432 -104 -108 -558 -647 -551
-654 5 -3 75 -63 156 -132 l148 -126 72 79 c215 236 454 399 682 466 73 22
117 27 235 31 276 10 437 -39 960 -292 356 -172 486 -223 663 -262 122 -26
344 -24 457 4 210 53 397 163 604 355 95 88 630 709 619 719 -5 3 -75 63 -156
132 l-148 126 -72 -79 c-215 -236 -454 -399 -682 -466 -73 -22 -117 -27 -235
-31 -276 -10 -437 39 -960 292 -353 171 -465 215 -640 256 -115 27 -320 33
-423 14z"/>
</g>
</svg>
