<?xml version="1.0" standalone="no"?>
<!DOCTYPE svg PUBLIC "-//W3C//DTD SVG 20010904//EN"
 "http://www.w3.org/TR/2001/REC-SVG-20010904/DTD/svg10.dtd">
<svg version="1.0" xmlns="http://www.w3.org/2000/svg"
 width="576.000000pt" height="954.000000pt" viewBox="0 0 576.000000 954.000000"
 preserveAspectRatio="xMidYMid meet">
<metadata>
Created by potrace 1.16, written by Peter Selinger 2001-2019
</metadata>
<g transform="translate(0.000000,954.000000) scale(0.100000,-0.100000)"
fill="#000000" stroke="none">
<path d="M2650 9529 c-445 -39 -850 -177 -1195 -406 -462 -307 -918 -823
-1155 -1308 -149 -306 -232 -592 -277 -965 -22 -183 -25 -738 -5 -930 69 -657
279 -1170 689 -1680 489 -610 956 -898 1608 -992 54 -8 184 -13 325 -12 216 0
245 2 361 27 521 110 938 422 1250 935 l59 96 0 -69 c0 -128 -20 -628 -30
-790 -61 -918 -226 -1527 -540 -1995 -284 -424 -662 -708 -1080 -814 -296 -75
-733 -52 -1054 55 -148 49 -380 176 -393 214 -2 6 29 19 68 29 127 32 224 89
319 185 97 97 145 178 182 306 33 115 33 315 0 430 -37 129 -85 209 -182 305
-146 147 -305 210 -525 210 -220 0 -379 -63 -525 -210 -97 -96 -145 -176 -182
-305 -33 -113 -32 -376 0 -543 114 -575 478 -974 1068 -1172 245 -81 461 -117
764 -127 292 -9 529 20 799 98 1354 390 2419 1868 2685 3729 53 364 61 506 60
1050 0 709 -27 1096 -115 1630 -131 804 -419 1547 -793 2047 -95 126 -286 326
-416 435 -346 289 -784 481 -1220 533 -125 16 -398 17 -550 4z m465 -544 c331
-53 618 -258 839 -597 165 -254 237 -487 280 -918 39 -377 72 -1135 61 -1385
-44 -1030 -329 -1771 -818 -2132 -85 -62 -265 -148 -362 -172 -297 -74 -663
-41 -915 83 -113 55 -182 106 -291 215 -154 155 -274 343 -333 526 -52 159
-92 422 -117 755 -16 228 -23 1393 -10 1704 28 660 101 1008 268 1274 284 452
650 654 1203 661 58 0 146 -6 195 -14z"/>
</g>
</svg>
