<?xml version="1.0" standalone="no"?>
<!DOCTYPE svg PUBLIC "-//W3C//DTD SVG 20010904//EN"
 "http://www.w3.org/TR/2001/REC-SVG-20010904/DTD/svg10.dtd">
<svg version="1.0" xmlns="http://www.w3.org/2000/svg"
 width="950.000000pt" height="992.000000pt" viewBox="0 0 950.000000 992.000000"
 preserveAspectRatio="xMidYMid meet">
<metadata>
Created by potrace 1.16, written by Peter Selinger 2001-2019
</metadata>
<g transform="translate(0.000000,992.000000) scale(0.100000,-0.100000)"
fill="#000000" stroke="none">
<path d="M4479 9892 c-33 -17 -64 -43 -81 -67 -18 -27 -489 -1417 -1453 -4285
-785 -2335 -1439 -4273 -1455 -4307 -42 -91 -99 -169 -181 -249 -93 -89 -145
-124 -272 -184 -237 -113 -589 -180 -944 -180 l-93 0 0 -311 0 -312 88 7 c573
41 2310 41 3005 0 l107 -7 0 310 0 310 -120 7 c-235 13 -390 50 -568 137 -157
76 -252 161 -310 277 -34 70 -37 83 -37 161 l0 86 275 813 275 812 1624 -2
1624 -3 98 -290 c53 -159 206 -613 339 -1008 220 -656 240 -721 230 -751 -13
-39 -61 -87 -115 -114 -150 -75 -487 -121 -877 -122 l-158 0 0 -311 0 -312
128 7 c826 41 3012 41 3765 0 l117 -7 0 312 0 311 -237 0 c-265 0 -603 14
-733 31 -195 24 -301 76 -375 184 -28 41 -303 849 -1530 4500 -1010 3004
-1505 4463 -1523 4490 -17 24 -48 50 -81 67 l-53 28 -213 0 -213 0 -53 -28z
m570 -4266 c386 -1149 700 -2090 698 -2092 -2 -2 -638 -3 -1413 -2 l-1409 3
705 2097 c388 1153 708 2094 711 2090 3 -4 322 -947 708 -2096z"/>
</g>
</svg>
