<?xml version="1.0" standalone="no"?>
<!DOCTYPE svg PUBLIC "-//W3C//DTD SVG 20010904//EN"
 "http://www.w3.org/TR/2001/REC-SVG-20010904/DTD/svg10.dtd">
<svg version="1.0" xmlns="http://www.w3.org/2000/svg"
 width="827.000000pt" height="946.000000pt" viewBox="0 0 827.000000 946.000000"
 preserveAspectRatio="xMidYMid meet">
<metadata>
Created by potrace 1.16, written by Peter Selinger 2001-2019
</metadata>
<g transform="translate(0.000000,946.000000) scale(0.100000,-0.100000)"
fill="#000000" stroke="none">
<path d="M0 9152 l0 -309 403 -6 c545 -8 760 -27 862 -77 50 -24 108 -78 132
-123 17 -30 18 -234 18 -3907 0 -3673 -1 -3877 -18 -3907 -24 -45 -82 -99
-132 -123 -102 -50 -317 -69 -862 -77 l-403 -6 0 -310 0 -310 127 7 c827 41
3189 41 4016 0 l127 -7 0 310 0 310 -402 6 c-546 8 -761 27 -863 77 -50 24
-108 78 -132 123 -17 30 -18 132 -21 1690 l-2 1657 1197 0 c750 0 1241 4 1313
10 1329 121 2421 872 2783 1915 342 988 -85 2085 -1073 2754 -404 274 -849
453 -1355 546 -349 63 -130 59 -3052 62 l-2663 3 0 -308z m5069 -336 c533 -70
896 -224 1170 -496 215 -213 324 -469 378 -892 26 -200 26 -1071 0 -1278 -66
-529 -231 -827 -596 -1071 -289 -194 -653 -303 -1126 -339 -83 -6 -538 -10
-1112 -10 l-973 0 0 1930 c0 1338 3 1944 11 1979 20 95 74 148 173 170 115 26
247 29 1091 26 732 -2 878 -5 984 -19z"/>
</g>
</svg>
