<?xml version="1.0" standalone="no"?>
<!DOCTYPE svg PUBLIC "-//W3C//DTD SVG 20010904//EN"
 "http://www.w3.org/TR/2001/REC-SVG-20010904/DTD/svg10.dtd">
<svg version="1.0" xmlns="http://www.w3.org/2000/svg"
 width="885.000000pt" height="1058.000000pt" viewBox="0 0 885.000000 1058.000000"
 preserveAspectRatio="xMidYMid meet">
<metadata>
Created by potrace 1.16, written by Peter Selinger 2001-2019
</metadata>
<g transform="translate(0.000000,1058.000000) scale(0.100000,-0.100000)"
fill="#000000" stroke="none">
<path d="M7306 9950 c-231 -347 -423 -630 -427 -630 -4 0 -52 31 -106 69 -551
389 -1229 646 -1920 728 -206 24 -660 24 -866 0 -1181 -140 -2230 -757 -2977
-1752 -989 -1317 -1277 -3134 -750 -4726 167 -505 406 -967 715 -1384 170
-230 437 -524 627 -692 l57 -50 -433 -649 -433 -650 150 -99 c82 -55 155 -101
161 -102 6 -2 200 281 430 627 231 347 421 630 424 630 2 0 57 -35 121 -78
1103 -745 2427 -930 3658 -511 1114 379 2037 1210 2583 2324 116 236 180 393
260 634 491 1482 276 3176 -568 4466 -191 293 -381 526 -643 787 l-187 186
433 649 432 649 -150 99 c-82 55 -155 101 -161 102 -6 2 -200 -281 -430 -627z
m-2482 -180 c604 -91 1154 -368 1624 -815 68 -65 111 -113 108 -121 -5 -14
-4512 -6752 -4527 -6768 -15 -17 -175 233 -283 444 -291 569 -442 1186 -508
2075 -16 225 -17 1131 0 1365 72 1008 268 1735 635 2345 428 712 1095 1222
1854 1416 133 34 347 71 483 83 118 10 480 -4 614 -24z m2133 -1457 c373 -614
573 -1345 645 -2363 17 -234 16 -1140 0 -1365 -48 -637 -133 -1102 -283 -1540
-197 -578 -468 -1018 -862 -1402 -739 -720 -1771 -1003 -2744 -753 -380 99
-719 264 -1051 512 -150 112 -386 334 -378 355 3 7 1023 1534 2267 3392 l2262
3380 39 -55 c22 -29 69 -102 105 -161z"/>
</g>
</svg>
