<?xml version="1.0" standalone="no"?>
<!DOCTYPE svg PUBLIC "-//W3C//DTD SVG 20010904//EN"
 "http://www.w3.org/TR/2001/REC-SVG-20010904/DTD/svg10.dtd">
<svg version="1.0" xmlns="http://www.w3.org/2000/svg"
 width="384.000000pt" height="226.000000pt" viewBox="0 0 384.000000 226.000000"
 preserveAspectRatio="xMidYMid meet">
<metadata>
Created by potrace 1.16, written by Peter Selinger 2001-2019
</metadata>
<g transform="translate(0.000000,226.000000) scale(0.100000,-0.100000)"
fill="#000000" stroke="none">
<path d="M962 1335 c-524 -509 -953 -927 -953 -930 0 -4 71 -84 159 -178 87
-95 170 -185 183 -200 l24 -28 770 665 c664 574 771 663 785 652 8 -7 348
-300 755 -651 407 -351 747 -644 755 -651 13 -11 42 17 196 184 100 108 182
200 183 205 1 4 -392 388 -871 854 -480 465 -909 881 -953 924 l-80 79 -953
-925z"/>
</g>
</svg>
