<?xml version="1.0" standalone="no"?>
<!DOCTYPE svg PUBLIC "-//W3C//DTD SVG 20010904//EN"
 "http://www.w3.org/TR/2001/REC-SVG-20010904/DTD/svg10.dtd">
<svg version="1.0" xmlns="http://www.w3.org/2000/svg"
 width="1119.000000pt" height="908.000000pt" viewBox="0 0 1119.000000 908.000000"
 preserveAspectRatio="xMidYMid meet">
<metadata>
Created by potrace 1.16, written by Peter Selinger 2001-2019
</metadata>
<g transform="translate(0.000000,908.000000) scale(0.100000,-0.100000)"
fill="#000000" stroke="none">
<path d="M3000 8855 l0 -225 368 -1 c202 -1 451 -4 553 -8 l187 -6 -1322
-3700 c-727 -2035 -1336 -3730 -1353 -3766 -17 -37 -54 -101 -83 -143 -234
-348 -624 -526 -1205 -553 l-145 -6 0 -225 0 -224 83 6 c522 39 2061 39 2730
0 l107 -7 0 227 0 226 -50 0 c-227 0 -489 72 -654 180 -199 130 -307 334 -282
530 4 32 224 661 529 1515 l523 1460 1057 3 1057 2 0 -1662 c0 -1776 1 -1739
-48 -1834 -27 -52 -77 -99 -133 -123 -95 -42 -365 -71 -676 -71 l-163 0 0
-225 0 -225 3274 0 3274 0 6 27 c3 16 125 782 271 1703 146 921 268 1687 271
1703 l6 27 -186 0 -185 0 -6 -32 c-3 -18 -23 -141 -45 -273 -171 -1042 -352
-1623 -621 -1986 -227 -305 -620 -528 -1118 -633 -354 -75 -625 -89 -1656 -84
-728 4 -818 6 -885 22 -154 36 -214 94 -239 231 -8 41 -11 568 -11 1747 l0
1688 618 0 c621 0 817 -7 992 -36 272 -46 473 -145 598 -297 155 -189 232
-538 232 -1059 l0 -158 185 0 185 0 0 1775 0 1775 -185 0 -185 0 0 -157 c0
-188 -15 -411 -36 -543 -90 -571 -359 -791 -1029 -840 -77 -5 -418 -10 -757
-10 l-618 0 0 1863 c0 1305 3 1881 11 1922 26 140 87 197 250 232 78 17 153
18 1004 18 679 0 954 -3 1050 -13 395 -39 656 -105 898 -227 507 -256 747
-700 907 -1675 22 -137 90 -632 90 -657 0 -2 84 -3 186 -3 l186 0 -6 38 c-3
20 -85 685 -181 1477 -96 792 -178 1457 -181 1478 l-6 37 -3719 0 -3719 0 0
-225z m1706 -290 c171 -29 304 -117 366 -243 l23 -47 3 -1842 2 -1843 -976 0
c-777 0 -975 3 -972 13 3 6 324 904 713 1995 654 1831 710 1982 730 1982 12 0
62 -7 111 -15z"/>
</g>
</svg>
