<?xml version="1.0" standalone="no"?>
<!DOCTYPE svg PUBLIC "-//W3C//DTD SVG 20010904//EN"
 "http://www.w3.org/TR/2001/REC-SVG-20010904/DTD/svg10.dtd">
<svg version="1.0" xmlns="http://www.w3.org/2000/svg"
 width="616.000000pt" height="890.000000pt" viewBox="0 0 616.000000 890.000000"
 preserveAspectRatio="xMidYMid meet">
<metadata>
Created by potrace 1.16, written by Peter Selinger 2001-2019
</metadata>
<g transform="translate(0.000000,890.000000) scale(0.100000,-0.100000)"
fill="#000000" stroke="none">
<path d="M4925 8173 c-230 -401 -434 -754 -452 -785 l-34 -58 -78 39 c-257
130 -561 224 -881 273 -122 18 -186 22 -405 22 -219 0 -283 -4 -405 -22 -519
-80 -966 -268 -1389 -584 -160 -120 -435 -389 -562 -548 -387 -490 -623 -1070
-701 -1725 -19 -165 -16 -588 6 -750 88 -651 351 -1222 784 -1702 114 -126
274 -273 405 -371 48 -36 86 -70 84 -76 -3 -6 -215 -375 -471 -820 -257 -445
-465 -810 -464 -811 23 -16 428 -245 434 -245 5 0 215 357 466 793 252 436
464 801 471 811 13 17 19 15 128 -32 1292 -562 2812 -158 3665 974 323 429
525 927 600 1479 22 162 25 585 6 750 -78 655 -315 1237 -702 1725 -98 124
-372 402 -482 488 l-77 60 460 797 c253 439 458 799 457 800 -23 16 -428 245
-434 245 -5 0 -198 -327 -429 -727z m-1647 -1024 c222 -24 429 -82 622 -175
89 -43 222 -118 248 -140 2 -1 -563 -984 -1255 -2183 -1256 -2178 -1258 -2181
-1276 -2159 -10 13 -46 64 -79 113 -203 303 -310 658 -360 1190 -18 189 -18
1105 0 1305 39 440 117 767 247 1039 99 206 186 333 329 480 153 157 293 258
496 355 313 150 682 213 1028 175z m1312 -766 c79 -119 182 -334 233 -489 75
-228 120 -468 149 -794 18 -200 18 -1116 0 -1305 -57 -615 -198 -1014 -473
-1342 -462 -550 -1343 -761 -2094 -503 -98 34 -302 129 -364 169 -11 7 250
467 1235 2175 687 1191 1252 2166 1255 2166 4 0 30 -35 59 -77z"/>
</g>
</svg>
