<?xml version="1.0" standalone="no"?>
<!DOCTYPE svg PUBLIC "-//W3C//DTD SVG 20010904//EN"
 "http://www.w3.org/TR/2001/REC-SVG-20010904/DTD/svg10.dtd">
<svg version="1.0" xmlns="http://www.w3.org/2000/svg"
 width="966.000000pt" height="977.000000pt" viewBox="0 0 966.000000 977.000000"
 preserveAspectRatio="xMidYMid meet">
<metadata>
Created by potrace 1.16, written by Peter Selinger 2001-2019
</metadata>
<g transform="translate(0.000000,977.000000) scale(0.100000,-0.100000)"
fill="#000000" stroke="none">
<path d="M0 9463 l0 -310 403 -6 c545 -8 760 -27 862 -77 50 -24 108 -78 132
-123 17 -30 18 -193 23 -2907 6 -3183 1 -2909 70 -3250 274 -1338 1357 -2405
2746 -2705 447 -96 912 -110 1304 -39 1081 197 1977 945 2419 2022 141 345
230 724 261 1116 6 82 10 1068 10 2730 0 2866 -4 2663 62 2790 47 90 173 211
274 264 218 112 482 166 882 179 l202 6 0 310 0 309 -103 -6 c-667 -41 -2587
-41 -3254 0 l-103 6 0 -309 0 -310 203 -6 c399 -13 663 -67 881 -179 101 -53
227 -173 274 -264 67 -129 63 86 59 -2872 l-3 -2677 -22 -154 c-46 -322 -101
-536 -204 -795 -200 -505 -555 -936 -996 -1209 -632 -391 -1465 -486 -2119
-241 -206 77 -366 164 -538 294 -111 84 -301 277 -384 390 -248 336 -395 758
-455 1305 -35 322 -37 498 -34 3355 3 2660 4 2817 21 2847 24 45 82 99 132
123 102 50 317 69 863 77 l402 6 0 310 0 310 -127 -7 c-827 -41 -3189 -41
-4015 0 l-128 7 0 -310z"/>
</g>
</svg>
