<?xml version="1.0" standalone="no"?>
<!DOCTYPE svg PUBLIC "-//W3C//DTD SVG 20010904//EN"
 "http://www.w3.org/TR/2001/REC-SVG-20010904/DTD/svg10.dtd">
<svg version="1.0" xmlns="http://www.w3.org/2000/svg"
 width="396.000000pt" height="137.000000pt" viewBox="0 0 396.000000 137.000000"
 preserveAspectRatio="xMidYMid meet">
<metadata>
Created by potrace 1.16, written by Peter Selinger 2001-2019
</metadata>
<g transform="translate(0.000000,137.000000) scale(0.100000,-0.100000)"
fill="#000000" stroke="none">
<path d="M545 1356 c-250 -58 -445 -241 -521 -491 -26 -84 -26 -276 0 -360 68
-223 234 -396 451 -471 70 -25 95 -28 205 -28 143 -1 226 19 340 81 95 52 225
187 273 283 102 205 102 425 0 630 -28 55 -60 98 -123 161 -94 95 -172 144
-285 179 -90 28 -255 36 -340 16z"/>
<path d="M3124 1356 c-147 -34 -256 -97 -362 -211 -196 -210 -237 -511 -105
-775 48 -96 178 -231 273 -283 114 -62 197 -82 340 -81 110 0 135 3 205 28
217 75 383 248 451 471 26 84 26 276 0 360 -68 223 -236 398 -451 471 -98 33
-255 42 -351 20z"/>
</g>
</svg>
