<?xml version="1.0" standalone="no"?>
<!DOCTYPE svg PUBLIC "-//W3C//DTD SVG 20010904//EN"
 "http://www.w3.org/TR/2001/REC-SVG-20010904/DTD/svg10.dtd">
<svg version="1.0" xmlns="http://www.w3.org/2000/svg"
 width="1317.000000pt" height="938.000000pt" viewBox="0 0 1317.000000 938.000000"
 preserveAspectRatio="xMidYMid meet">
<metadata>
Created by potrace 1.16, written by Peter Selinger 2001-2019
</metadata>
<g transform="translate(0.000000,938.000000) scale(0.100000,-0.100000)"
fill="#000000" stroke="none">
<path d="M0 9158 l0 -225 268 -6 c369 -9 534 -30 654 -84 81 -36 166 -128 217
-236 24 -50 558 -1686 1396 -4272 830 -2564 1367 -4207 1383 -4235 42 -68 110
-100 217 -100 107 0 175 32 216 100 16 27 480 1444 1125 3438 604 1865 1101
3392 1104 3392 3 0 500 -1527 1104 -3392 645 -1994 1109 -3411 1125 -3438 41
-68 109 -100 216 -100 107 0 175 32 217 100 16 28 533 1608 1329 4065 716
2211 1317 4053 1335 4093 106 232 288 421 511 527 182 88 454 145 685 145 l58
0 0 226 0 226 -72 -6 c-464 -39 -1974 -39 -2650 0 l-108 7 0 -227 0 -226 60 0
c34 0 104 -5 158 -10 566 -61 947 -342 930 -688 -3 -70 -93 -355 -1013 -3193
-556 -1714 -1011 -3116 -1012 -3115 -1 1 -482 1482 -1069 3291 -1154 3557
-1092 3354 -1047 3440 27 52 97 117 162 149 154 78 457 126 804 126 l137 0 0
226 0 227 -127 -7 c-787 -39 -2711 -39 -3325 0 l-98 7 0 -227 0 -226 173 0
c185 0 416 -13 537 -30 225 -32 337 -106 426 -280 15 -30 102 -284 194 -564
l166 -510 -388 -1195 c-213 -658 -623 -1922 -910 -2808 -287 -887 -525 -1609
-529 -1605 -4 4 -485 1483 -1070 3287 -1154 3560 -1088 3342 -1042 3430 29 54
97 117 160 149 158 79 459 126 806 126 l137 0 0 226 0 227 -127 -7 c-782 -39
-2713 -39 -3325 0 l-98 7 0 -225z"/>
</g>
</svg>
