<?xml version="1.0" standalone="no"?>
<!DOCTYPE svg PUBLIC "-//W3C//DTD SVG 20010904//EN"
 "http://www.w3.org/TR/2001/REC-SVG-20010904/DTD/svg10.dtd">
<svg version="1.0" xmlns="http://www.w3.org/2000/svg"
 width="598.000000pt" height="977.000000pt" viewBox="0 0 598.000000 977.000000"
 preserveAspectRatio="xMidYMid meet">
<metadata>
Created by potrace 1.16, written by Peter Selinger 2001-2019
</metadata>
<g transform="translate(0.000000,977.000000) scale(0.100000,-0.100000)"
fill="#000000" stroke="none">
<path d="M1760 9513 l0 -260 488 -6 c645 -9 941 -29 1093 -77 82 -25 160 -78
204 -138 71 -96 65 211 65 -3496 0 -2207 -4 -3390 -10 -3466 -46 -516 -232
-963 -530 -1273 -300 -313 -606 -423 -1039 -373 -436 51 -820 228 -1102 509
-54 54 -103 106 -109 117 -10 19 -7 20 53 20 85 0 236 39 328 85 267 133 419
371 436 681 23 413 -210 741 -602 845 -113 30 -317 30 -430 0 -379 -101 -605
-402 -605 -808 0 -347 122 -705 341 -997 317 -421 832 -722 1423 -831 716
-131 1504 29 2097 426 587 394 957 977 1028 1621 8 67 11 1137 11 3451 0 2189
3 3373 10 3408 23 125 96 213 202 242 128 36 377 57 681 57 l177 0 0 261 0
262 -107 -7 c-702 -41 -2936 -41 -3945 0 l-158 7 0 -260z"/>
</g>
</svg>
