<?xml version="1.0" standalone="no"?>
<!DOCTYPE svg PUBLIC "-//W3C//DTD SVG 20010904//EN"
 "http://www.w3.org/TR/2001/REC-SVG-20010904/DTD/svg10.dtd">
<svg version="1.0" xmlns="http://www.w3.org/2000/svg"
 width="946.000000pt" height="938.000000pt" viewBox="0 0 946.000000 938.000000"
 preserveAspectRatio="xMidYMid meet">
<metadata>
Created by potrace 1.16, written by Peter Selinger 2001-2019
</metadata>
<g transform="translate(0.000000,938.000000) scale(0.100000,-0.100000)"
fill="#000000" stroke="none">
<path d="M0 9158 l0 -225 293 -6 c312 -7 504 -24 631 -59 143 -38 254 -137
330 -292 19 -39 744 -1960 1612 -4269 1396 -3715 1581 -4201 1611 -4232 63
-65 81 -70 248 -70 167 0 185 5 248 70 30 31 207 496 1542 4047 830 2207 1523
4046 1542 4087 133 294 390 519 717 626 170 55 422 95 609 95 l67 0 0 226 0
226 -82 -6 c-523 -39 -2019 -39 -2665 0 l-103 6 0 -226 0 -226 58 0 c31 0 105
-7 165 -15 415 -55 696 -269 739 -562 10 -67 9 -93 -3 -150 -13 -60 -2422
-6486 -2439 -6506 -6 -7 -2528 6686 -2566 6809 -27 87 0 168 79 241 56 52 99
74 207 107 163 49 395 76 658 76 l132 0 0 226 0 227 -127 -7 c-785 -39 -2724
-39 -3395 0 l-108 7 0 -225z"/>
</g>
</svg>
