<?xml version="1.0" standalone="no"?>
<!DOCTYPE svg PUBLIC "-//W3C//DTD SVG 20010904//EN"
 "http://www.w3.org/TR/2001/REC-SVG-20010904/DTD/svg10.dtd">
<svg version="1.0" xmlns="http://www.w3.org/2000/svg"
 width="700.000000pt" height="946.000000pt" viewBox="0 0 700.000000 946.000000"
 preserveAspectRatio="xMidYMid meet">
<metadata>
Created by potrace 1.16, written by Peter Selinger 2001-2019
</metadata>
<g transform="translate(0.000000,946.000000) scale(0.100000,-0.100000)"
fill="#000000" stroke="none">
<path d="M340 9457 c0 -1 -34 -722 -75 -1602 -41 -880 -75 -1601 -75 -1602 0
-2 101 -3 225 -3 l225 0 0 23 c0 48 21 309 35 442 84 771 314 1305 717 1663
380 337 901 509 1668 552 178 10 2300 15 2300 5 0 -2 -1202 -1913 -2671 -4246
-1469 -2333 -2675 -4254 -2681 -4270 -5 -15 -8 -93 -6 -173 3 -157 8 -173 72
-220 l27 -21 3329 -3 3328 -2 7 82 c3 46 53 861 110 1813 57 952 107 1767 110
1813 l7 82 -225 0 -225 0 -6 -82 c-4 -46 -13 -180 -21 -298 -83 -1166 -288
-1794 -722 -2212 -409 -392 -956 -581 -1818 -628 -198 -10 -2415 -15 -2415 -4
0 3 1182 1883 2627 4177 1445 2295 2649 4208 2676 4252 l48 80 -3 142 c-3 154
-9 170 -72 217 l-27 21 -3235 3 c-1779 1 -3234 1 -3234 -1z"/>
</g>
</svg>
