<?xml version="1.0" standalone="no"?>
<!DOCTYPE svg PUBLIC "-//W3C//DTD SVG 20010904//EN"
 "http://www.w3.org/TR/2001/REC-SVG-20010904/DTD/svg10.dtd">
<svg version="1.0" xmlns="http://www.w3.org/2000/svg"
 width="811.000000pt" height="908.000000pt" viewBox="0 0 811.000000 908.000000"
 preserveAspectRatio="xMidYMid meet">
<metadata>
Created by potrace 1.16, written by Peter Selinger 2001-2019
</metadata>
<g transform="translate(0.000000,908.000000) scale(0.100000,-0.100000)"
fill="#000000" stroke="none">
<path d="M79 9057 c-18 -12 -44 -38 -57 -57 -22 -33 -23 -43 -20 -155 l3 -120
1653 -2378 c1463 -2104 1652 -2380 1640 -2395 -7 -9 -745 -848 -1640 -1863
-894 -1016 -1634 -1861 -1642 -1878 -34 -65 -9 -140 63 -188 l34 -23 3808 0
3807 0 6 37 c3 21 85 720 181 1553 96 833 178 1532 181 1553 l6 37 -186 0
c-102 0 -186 -2 -186 -5 0 -26 -56 -406 -76 -512 -106 -579 -283 -1013 -542
-1334 -87 -107 -249 -259 -347 -324 -294 -196 -757 -316 -1425 -370 -387 -31
-810 -36 -2607 -33 l-1783 3 1700 1929 c1290 1464 1703 1939 1712 1968 8 29 8
47 -1 76 -6 20 -639 939 -1406 2042 l-1394 2005 1497 3 c1723 3 2064 -4 2517
-53 522 -58 932 -178 1189 -349 45 -30 121 -92 170 -137 352 -329 571 -780
705 -1454 24 -119 91 -544 91 -577 0 -5 84 -8 186 -8 l186 0 -6 38 c-3 20 -85
685 -181 1477 -96 792 -178 1457 -181 1478 l-6 37 -3807 0 -3808 0 -34 -23z"/>
</g>
</svg>
