<?xml version="1.0" standalone="no"?>
<!DOCTYPE svg PUBLIC "-//W3C//DTD SVG 20010904//EN"
 "http://www.w3.org/TR/2001/REC-SVG-20010904/DTD/svg10.dtd">
<svg version="1.0" xmlns="http://www.w3.org/2000/svg"
 width="776.000000pt" height="901.000000pt" viewBox="0 0 776.000000 901.000000"
 preserveAspectRatio="xMidYMid meet">
<metadata>
Created by potrace 1.16, written by Peter Selinger 2001-2019
</metadata>
<g transform="translate(0.000000,901.000000) scale(0.100000,-0.100000)"
fill="#000000" stroke="none">
<path d="M190 9007 c0 -1 -25 -477 -55 -1057 -30 -580 -55 -1056 -55 -1057 0
-2 83 -3 185 -3 l185 0 0 23 c0 64 32 468 45 572 36 282 89 450 155 485 31 17
197 39 395 52 276 19 5384 19 5660 0 198 -13 364 -35 395 -52 66 -35 119 -203
155 -485 13 -104 45 -508 45 -572 l0 -23 185 0 c102 0 185 1 185 3 0 1 -25
477 -55 1057 -30 580 -55 1056 -55 1057 0 2 -1658 3 -3685 3 -2027 0 -3685 -1
-3685 -3z"/>
<path d="M1290 4685 l0 -1165 185 0 185 0 0 340 0 340 2215 0 2215 0 0 -340 0
-340 185 0 185 0 0 1165 0 1165 -185 0 -185 0 0 -340 0 -340 -2215 0 -2215 0
0 340 0 340 -185 0 -185 0 0 -1165z"/>
<path d="M4 2163 c4 -54 27 -519 51 -1033 24 -514 47 -979 51 -1032 l6 -98
3763 0 3763 0 6 98 c4 53 27 518 51 1032 24 514 47 979 51 1033 l6 97 -185 0
-185 0 -7 -107 c-33 -550 -62 -793 -112 -948 -20 -62 -47 -118 -68 -139 -44
-44 -261 -71 -690 -86 -370 -13 -4890 -13 -5260 0 -429 15 -646 42 -690 86
-21 21 -48 77 -68 139 -50 155 -79 398 -112 948 l-7 107 -185 0 -185 0 6 -97z"/>
</g>
</svg>
