<?xml version="1.0" standalone="no"?>
<!DOCTYPE svg PUBLIC "-//W3C//DTD SVG 20010904//EN"
 "http://www.w3.org/TR/2001/REC-SVG-20010904/DTD/svg10.dtd">
<svg version="1.0" xmlns="http://www.w3.org/2000/svg"
 width="948.000000pt" height="992.000000pt" viewBox="0 0 948.000000 992.000000"
 preserveAspectRatio="xMidYMid meet">
<metadata>
Created by potrace 1.16, written by Peter Selinger 2001-2019
</metadata>
<g transform="translate(0.000000,992.000000) scale(0.100000,-0.100000)"
fill="#000000" stroke="none">
<path d="M4556 9910 c-46 -14 -101 -58 -124 -99 -13 -22 -669 -1931 -1458
-4243 -790 -2312 -1451 -4242 -1468 -4290 -46 -123 -118 -237 -210 -335 -103
-110 -187 -172 -321 -237 -230 -112 -478 -168 -816 -182 l-159 -7 0 -260 0
-259 83 6 c539 41 2209 41 2900 0 l107 -7 0 262 0 261 -55 0 c-177 0 -427 52
-567 117 -218 102 -337 219 -396 387 -21 61 -24 82 -19 166 4 94 9 108 305
970 l300 875 1668 3 1669 2 369 -1079 c329 -965 367 -1083 361 -1120 -8 -46
-46 -107 -91 -145 -132 -110 -477 -176 -916 -176 l-148 0 0 -261 0 -262 128 7
c823 41 2971 41 3665 0 l107 -7 0 260 0 260 -332 6 c-341 7 -475 16 -633 42
-182 31 -309 122 -385 279 -21 44 -718 2069 -1549 4504 -831 2433 -1520 4441
-1532 4463 -25 43 -78 85 -130 99 -41 12 -313 12 -353 0z m522 -4185 l738
-2160 -1485 -3 c-816 -1 -1486 0 -1488 1 -2 2 331 983 739 2180 498 1459 746
2170 751 2159 4 -9 339 -989 745 -2177z"/>
</g>
</svg>
