<?xml version="1.0" standalone="no"?>
<!DOCTYPE svg PUBLIC "-//W3C//DTD SVG 20010904//EN"
 "http://www.w3.org/TR/2001/REC-SVG-20010904/DTD/svg10.dtd">
<svg version="1.0" xmlns="http://www.w3.org/2000/svg"
 width="649.000000pt" height="845.000000pt" viewBox="0 0 649.000000 845.000000"
 preserveAspectRatio="xMidYMid meet">
<metadata>
Created by potrace 1.16, written by Peter Selinger 2001-2019
</metadata>
<g transform="translate(0.000000,845.000000) scale(0.100000,-0.100000)"
fill="#000000" stroke="none">
<path d="M0 8228 l0 -225 223 -6 c312 -8 447 -28 566 -82 75 -35 159 -126 214
-233 25 -48 493 -1182 1041 -2520 l996 -2432 -250 -613 c-138 -336 -282 -675
-320 -752 -340 -694 -788 -1047 -1295 -1022 -176 9 -318 55 -463 149 -34 22
-61 42 -60 43 2 2 32 10 68 19 266 66 430 280 430 561 0 260 -144 463 -383
541 -117 39 -267 39 -384 0 -239 -78 -382 -281 -383 -543 -1 -468 318 -883
802 -1046 144 -48 231 -61 413 -62 141 0 187 4 274 23 303 68 562 220 812 479
213 220 383 474 554 826 49 99 576 1374 1250 3022 641 1568 1189 2896 1216
2952 208 425 565 658 1052 689 l107 7 0 225 0 224 -62 -6 c-404 -39 -1546 -39
-2040 0 l-78 7 0 -225 0 -225 72 -7 c170 -16 311 -78 407 -182 123 -132 167
-304 126 -496 -13 -64 -1353 -3357 -1366 -3358 -3 0 -340 818 -749 1817 -784
1915 -765 1865 -746 1967 16 86 98 158 226 200 110 36 177 46 353 53 l157 6 0
225 0 225 -97 -7 c-613 -39 -2077 -39 -2600 0 l-83 6 0 -224z"/>
</g>
</svg>
