<?xml version="1.0" standalone="no"?>
<!DOCTYPE svg PUBLIC "-//W3C//DTD SVG 20010904//EN"
 "http://www.w3.org/TR/2001/REC-SVG-20010904/DTD/svg10.dtd">
<svg version="1.0" xmlns="http://www.w3.org/2000/svg"
 width="986.000000pt" height="977.000000pt" viewBox="0 0 986.000000 977.000000"
 preserveAspectRatio="xMidYMid meet">
<metadata>
Created by potrace 1.16, written by Peter Selinger 2001-2019
</metadata>
<g transform="translate(0.000000,977.000000) scale(0.100000,-0.100000)"
fill="#000000" stroke="none">
<path d="M0 9463 l0 -310 353 -6 c622 -11 769 -38 892 -161 28 -28 61 -71 73
-96 11 -25 741 -2001 1621 -4393 880 -2391 1607 -4360 1616 -4376 21 -41 88
-96 134 -109 52 -16 420 -16 472 0 46 13 113 68 134 109 9 16 704 1900 1545
4186 842 2287 1548 4195 1571 4241 182 372 608 572 1275 599 l164 6 0 310 0
309 -82 -6 c-540 -41 -2247 -41 -2940 0 l-108 7 0 -312 0 -311 53 0 c199 0
441 -52 600 -128 173 -83 262 -165 324 -298 24 -50 28 -71 28 -144 l-1 -85
-1181 -3205 c-649 -1763 -1187 -3220 -1195 -3239 -13 -33 -32 17 -1227 3265
-668 1815 -1237 3359 -1264 3433 l-48 134 16 44 c52 135 333 206 873 220 l252
6 0 310 0 310 -132 -7 c-851 -41 -3012 -41 -3710 0 l-108 7 0 -310z"/>
</g>
</svg>
