<?xml version="1.0" standalone="no"?>
<!DOCTYPE svg PUBLIC "-//W3C//DTD SVG 20010904//EN"
 "http://www.w3.org/TR/2001/REC-SVG-20010904/DTD/svg10.dtd">
<svg version="1.0" xmlns="http://www.w3.org/2000/svg"
 width="717.000000pt" height="626.000000pt" viewBox="0 0 717.000000 626.000000"
 preserveAspectRatio="xMidYMid meet">
<metadata>
Created by potrace 1.16, written by Peter Selinger 2001-2019
</metadata>
<g transform="translate(0.000000,626.000000) scale(0.100000,-0.100000)"
fill="#000000" stroke="none">
<path d="M1105 6184 c-588 -40 -1078 -73 -1087 -73 -17 -1 -18 -23 -18 -311
l0 -310 143 0 c190 0 400 -17 522 -41 235 -47 341 -143 392 -356 15 -61 17
-234 23 -1808 7 -1933 2 -1800 75 -2080 79 -303 200 -521 397 -711 265 -256
635 -411 1124 -469 182 -22 561 -31 709 -16 596 58 1143 374 1516 875 l59 79
0 -482 0 -483 73 7 c56 4 2109 145 2123 145 2 0 4 139 4 310 l0 310 -142 0
c-191 0 -401 17 -523 41 -235 47 -340 142 -393 356 -15 63 -17 265 -19 2581
l-3 2514 -73 -7 c-57 -4 -2147 -145 -2163 -145 -2 0 -4 -139 -4 -310 l0 -310
143 0 c190 0 400 -17 522 -41 237 -48 342 -144 393 -361 16 -67 17 -188 17
-1498 0 -1588 4 -1498 -70 -1785 -134 -522 -453 -949 -860 -1152 -229 -115
-418 -150 -745 -140 -394 13 -614 71 -772 204 -104 87 -147 170 -182 348 -40
201 -39 180 -43 2723 l-4 2472 -32 -1 c-18 -1 -513 -34 -1102 -75z"/>
</g>
</svg>
