<?xml version="1.0" standalone="no"?>
<!DOCTYPE svg PUBLIC "-//W3C//DTD SVG 20010904//EN"
 "http://www.w3.org/TR/2001/REC-SVG-20010904/DTD/svg10.dtd">
<svg version="1.0" xmlns="http://www.w3.org/2000/svg"
 width="986.000000pt" height="977.000000pt" viewBox="0 0 986.000000 977.000000"
 preserveAspectRatio="xMidYMid meet">
<metadata>
Created by potrace 1.16, written by Peter Selinger 2001-2019
</metadata>
<g transform="translate(0.000000,977.000000) scale(0.100000,-0.100000)"
fill="#000000" stroke="none">
<path d="M0 9513 l0 -260 313 -6 c442 -8 654 -34 775 -93 71 -35 168 -132 209
-210 18 -34 769 -2032 1668 -4440 1145 -3064 1644 -4390 1663 -4414 16 -19 52
-47 82 -62 52 -27 59 -28 215 -28 156 0 163 1 215 28 30 15 66 43 82 62 19 24
497 1294 1588 4215 859 2299 1575 4209 1591 4245 68 147 208 316 348 420 76
56 228 132 347 173 174 61 360 92 612 104 l142 6 0 260 0 260 -77 -7 c-512
-41 -2175 -41 -2840 0 l-103 6 0 -259 0 -260 110 -7 c217 -13 378 -54 543
-138 244 -125 376 -337 346 -556 -5 -36 -455 -1252 -1239 -3352 -676 -1812
-1236 -3307 -1242 -3322 -12 -26 -100 206 -1322 3478 -720 1928 -1312 3518
-1314 3533 -12 82 62 186 170 238 149 72 387 111 736 120 l232 6 0 260 0 260
-132 -7 c-849 -41 -2914 -41 -3610 0 l-108 7 0 -260z"/>
</g>
</svg>
