<?xml version="1.0" standalone="no"?>
<!DOCTYPE svg PUBLIC "-//W3C//DTD SVG 20010904//EN"
 "http://www.w3.org/TR/2001/REC-SVG-20010904/DTD/svg10.dtd">
<svg version="1.0" xmlns="http://www.w3.org/2000/svg"
 width="733.000000pt" height="904.000000pt" viewBox="0 0 733.000000 904.000000"
 preserveAspectRatio="xMidYMid meet">
<metadata>
Created by potrace 1.16, written by Peter Selinger 2001-2019
</metadata>
<g transform="translate(0.000000,904.000000) scale(0.100000,-0.100000)"
fill="#000000" stroke="none">
<path d="M0 8817 l0 -224 343 -6 c619 -11 822 -45 915 -152 42 -47 77 -118 91
-183 16 -76 16 -7388 0 -7464 -14 -65 -49 -136 -91 -183 -93 -107 -296 -141
-915 -152 l-343 -6 0 -225 0 -224 123 6 c762 39 3103 39 4010 0 l147 -7 0 227
0 226 -267 0 c-692 0 -1120 40 -1248 114 -57 34 -122 107 -153 174 l-27 57 -3
3735 c-2 2661 0 3753 8 3799 24 141 84 200 240 237 68 16 158 18 940 21 1084
5 1324 -5 1659 -73 388 -78 730 -259 928 -493 284 -334 449 -854 563 -1771 11
-91 23 -182 26 -202 l6 -38 185 0 185 0 -6 38 c-3 20 -85 685 -181 1477 -96
792 -178 1457 -181 1478 l-6 37 -3474 0 -3474 0 0 -223z"/>
</g>
</svg>
