<?xml version="1.0" standalone="no"?>
<!DOCTYPE svg PUBLIC "-//W3C//DTD SVG 20010904//EN"
 "http://www.w3.org/TR/2001/REC-SVG-20010904/DTD/svg10.dtd">
<svg version="1.0" xmlns="http://www.w3.org/2000/svg"
 width="635.000000pt" height="912.000000pt" viewBox="0 0 635.000000 912.000000"
 preserveAspectRatio="xMidYMid meet">
<metadata>
Created by potrace 1.16, written by Peter Selinger 2001-2019
</metadata>
<g transform="translate(0.000000,912.000000) scale(0.100000,-0.100000)"
fill="#000000" stroke="none">
<path d="M5420 9110 c-315 -38 -641 -157 -900 -327 -106 -70 -256 -190 -319
-257 -19 -20 -38 -36 -42 -36 -4 0 -43 24 -86 54 -519 358 -1217 496 -1867
370 -959 -186 -1674 -894 -1791 -1773 -74 -551 132 -1140 547 -1567 l60 -61
-52 -69 c-155 -206 -271 -467 -332 -745 -20 -91 -22 -132 -22 -334 0 -200 2
-243 22 -328 71 -318 203 -569 408 -773 l102 -101 -87 -33 c-47 -18 -132 -57
-188 -86 -447 -230 -739 -576 -845 -1000 -32 -129 -32 -380 0 -507 97 -385
375 -719 825 -990 465 -280 1026 -455 1682 -523 241 -26 839 -26 1080 0 892
93 1655 401 2110 851 336 331 460 662 416 1110 -56 575 -325 1052 -754 1336
-343 227 -779 375 -1292 439 -318 39 -420 43 -1365 50 -1005 7 -979 6 -1104
60 -131 56 -287 195 -365 327 -170 286 -174 667 -10 973 54 100 63 109 92 90
389 -251 869 -390 1347 -390 812 0 1565 385 1972 1010 487 745 408 1652 -203
2335 -18 21 -18 22 54 82 203 170 447 296 694 357 93 23 171 36 308 51 l59 7
-37 -41 c-150 -166 -140 -460 21 -620 176 -174 478 -174 654 0 112 111 152
283 112 476 -55 268 -232 474 -479 559 -70 24 -98 28 -215 30 -74 1 -169 -2
-210 -6z m-2490 -605 c451 -95 752 -393 860 -849 45 -188 54 -319 54 -741 0
-422 -9 -553 -54 -741 -72 -304 -225 -533 -458 -685 -198 -130 -386 -183 -642
-183 -111 0 -178 5 -238 18 -455 98 -754 393 -862 850 -45 188 -54 319 -54
741 0 490 18 662 95 886 134 390 469 658 901 719 88 12 309 4 398 -15z m840
-5624 c440 -43 724 -113 985 -240 138 -67 194 -106 284 -194 250 -245 343
-612 236 -928 -55 -160 -139 -286 -294 -439 -217 -214 -488 -370 -851 -490
-638 -212 -1472 -212 -2110 0 -371 123 -638 278 -860 500 -273 273 -365 527
-315 865 64 430 371 783 783 900 48 14 114 29 147 34 87 14 1852 6 1995 -8z"/>
</g>
</svg>
