<?xml version="1.0" standalone="no"?>
<!DOCTYPE svg PUBLIC "-//W3C//DTD SVG 20010904//EN"
 "http://www.w3.org/TR/2001/REC-SVG-20010904/DTD/svg10.dtd">
<svg version="1.0" xmlns="http://www.w3.org/2000/svg"
 width="930.000000pt" height="1246.000000pt" viewBox="0 0 930.000000 1246.000000"
 preserveAspectRatio="xMidYMid meet">
<metadata>
Created by potrace 1.16, written by Peter Selinger 2001-2019
</metadata>
<g transform="translate(0.000000,1246.000000) scale(0.100000,-0.100000)"
fill="#000000" stroke="none">
<path d="M4295 12449 c-1331 -101 -2558 -834 -3370 -2014 -311 -451 -572
-1015 -721 -1555 -466 -1685 -122 -3467 921 -4772 434 -544 961 -972 1567
-1273 459 -228 939 -370 1466 -432 206 -24 688 -24 894 0 270 32 587 98 818
171 l46 14 43 -252 c138 -805 236 -1179 391 -1502 76 -158 135 -255 220 -359
195 -238 432 -381 738 -445 125 -27 366 -37 485 -21 506 68 885 371 1152 923
209 432 335 1033 339 1610 1 195 0 208 -20 235 -65 87 -192 88 -257 1 -15 -21
-22 -51 -28 -134 -11 -136 -23 -204 -55 -301 -127 -388 -450 -677 -884 -790
-138 -36 -394 -44 -530 -15 -213 44 -353 123 -526 296 -174 175 -317 405 -490
791 l-72 160 157 81 c587 304 1086 715 1506 1242 919 1150 1299 2667 1049
4192 -216 1322 -917 2510 -1929 3270 -859 645 -1890 956 -2910 879z m655 -464
c813 -124 1539 -635 2036 -1435 374 -602 608 -1346 698 -2225 34 -326 41 -488
41 -940 0 -469 -8 -627 -46 -970 -128 -1166 -521 -2094 -1159 -2736 -118 -119
-322 -299 -339 -299 -3 0 -15 21 -25 48 -44 110 -202 425 -272 542 -193 325
-410 544 -664 674 -297 152 -643 187 -950 96 -83 -25 -232 -97 -312 -151 -147
-100 -302 -278 -383 -439 -100 -199 -130 -330 -129 -560 0 -210 23 -315 111
-519 10 -22 -238 111 -377 203 -179 118 -314 229 -480 396 -582 581 -959 1390
-1125 2411 -67 417 -90 742 -90 1304 0 550 19 832 81 1260 214 1459 888 2558
1885 3074 312 162 600 247 964 285 85 9 434 -3 535 -19z m-86 -7630 c331 -69
569 -274 741 -638 29 -62 71 -165 94 -231 41 -118 105 -345 99 -351 -13 -12
-184 -91 -278 -128 -303 -121 -572 -172 -910 -172 -212 0 -216 0 -279 28 -98
41 -183 101 -259 182 -247 260 -292 650 -110 960 50 84 190 226 270 273 65 39
172 78 249 91 75 14 288 6 383 -14z"/>
</g>
</svg>
