<?xml version="1.0" standalone="no"?>
<!DOCTYPE svg PUBLIC "-//W3C//DTD SVG 20010904//EN"
 "http://www.w3.org/TR/2001/REC-SVG-20010904/DTD/svg10.dtd">
<svg version="1.0" xmlns="http://www.w3.org/2000/svg"
 width="695.000000pt" height="880.000000pt" viewBox="0 0 695.000000 880.000000"
 preserveAspectRatio="xMidYMid meet">
<metadata>
Created by potrace 1.16, written by Peter Selinger 2001-2019
</metadata>
<g transform="translate(0.000000,880.000000) scale(0.100000,-0.100000)"
fill="#000000" stroke="none">
<path d="M1085 8724 c-577 -40 -1058 -73 -1067 -73 -17 -1 -18 -23 -18 -311
l0 -310 143 0 c190 0 400 -17 522 -41 237 -48 342 -144 393 -361 16 -68 17
-296 17 -3428 l0 -3355 -31 -55 c-74 -131 -181 -156 -732 -167 l-312 -6 0
-310 0 -310 107 7 c698 41 2408 41 3106 0 l107 -7 0 310 0 310 -312 6 c-551
11 -658 36 -732 167 l-31 55 -3 1204 -2 1204 52 -49 c315 -297 763 -525 1208
-614 345 -69 714 -66 1065 10 1301 282 2258 1423 2366 2823 13 163 7 488 -11
642 -114 985 -604 1833 -1341 2321 -57 38 -176 105 -264 150 -331 167 -644
249 -1000 261 -728 25 -1496 -224 -2040 -662 l-70 -56 -3 360 -2 361 -33 -1
c-17 -1 -504 -34 -1082 -75z m3001 -485 c252 -35 485 -156 704 -366 180 -172
316 -357 444 -603 414 -799 472 -1943 144 -2840 -58 -160 -193 -425 -287 -566
-280 -419 -638 -693 -1019 -780 -379 -86 -834 5 -1180 237 -232 156 -445 382
-595 634 l-57 95 0 1654 0 1654 58 79 c374 501 973 803 1614 812 53 0 131 -4
174 -10z"/>
</g>
</svg>
