<?xml version="1.0" standalone="no"?>
<!DOCTYPE svg PUBLIC "-//W3C//DTD SVG 20010904//EN"
 "http://www.w3.org/TR/2001/REC-SVG-20010904/DTD/svg10.dtd">
<svg version="1.0" xmlns="http://www.w3.org/2000/svg"
 width="956.000000pt" height="977.000000pt" viewBox="0 0 956.000000 977.000000"
 preserveAspectRatio="xMidYMid meet">
<metadata>
Created by potrace 1.16, written by Peter Selinger 2001-2019
</metadata>
<g transform="translate(0.000000,977.000000) scale(0.100000,-0.100000)"
fill="#000000" stroke="none">
<path d="M0 9513 l0 -260 373 -6 c585 -10 798 -36 906 -111 45 -31 94 -97 119
-158 16 -40 17 -228 22 -2928 6 -3192 1 -2922 70 -3262 62 -303 150 -556 296
-848 165 -330 378 -625 644 -891 577 -577 1317 -931 2155 -1029 153 -18 478
-24 624 -11 586 52 1124 267 1609 643 136 106 413 380 526 523 418 525 669
1133 763 1845 16 126 18 321 23 2850 l5 2715 30 85 c60 173 183 312 353 398
228 116 463 166 845 179 l187 6 0 260 0 259 -102 -6 c-665 -41 -2491 -41
-3155 0 l-103 6 0 -259 0 -260 188 -6 c686 -23 1068 -208 1197 -577 l30 -85 3
-2610 c2 -1808 0 -2656 -8 -2760 -35 -481 -145 -894 -341 -1276 -270 -525
-659 -913 -1164 -1159 -243 -119 -472 -190 -740 -232 -188 -29 -525 -31 -693
-5 -357 56 -683 192 -970 406 -116 87 -322 294 -409 411 -291 395 -437 826
-510 1506 -15 145 -17 409 -20 3093 -4 3261 -9 2990 63 3098 99 146 264 178
982 190 l372 6 0 260 0 260 -127 -7 c-826 -41 -3090 -41 -3915 0 l-128 7 0
-260z"/>
</g>
</svg>
