<?xml version="1.0" standalone="no"?>
<!DOCTYPE svg PUBLIC "-//W3C//DTD SVG 20010904//EN"
 "http://www.w3.org/TR/2001/REC-SVG-20010904/DTD/svg10.dtd">
<svg version="1.0" xmlns="http://www.w3.org/2000/svg"
 width="576.000000pt" height="954.000000pt" viewBox="0 0 576.000000 954.000000"
 preserveAspectRatio="xMidYMid meet">
<metadata>
Created by potrace 1.16, written by Peter Selinger 2001-2019
</metadata>
<g transform="translate(0.000000,954.000000) scale(0.100000,-0.100000)"
fill="#000000" stroke="none">
<path d="M2565 9534 c-407 -40 -708 -119 -1020 -268 -621 -297 -1019 -775
-1137 -1368 -33 -165 -33 -419 0 -533 61 -211 191 -364 387 -455 195 -92 396
-102 602 -31 117 40 186 84 279 177 140 139 205 306 205 529 0 304 -141 543
-398 674 -69 35 -212 71 -312 79 l-94 7 53 65 c319 382 828 624 1435 680 436
40 766 -57 1030 -303 252 -234 365 -523 396 -1007 11 -183 1 -440 -27 -649
-116 -892 -531 -1528 -1105 -1695 -119 -34 -184 -42 -634 -76 -439 -34 -452
-37 -487 -100 -14 -27 -18 -57 -18 -135 0 -116 15 -157 71 -187 31 -17 69 -18
549 -18 568 0 638 -5 800 -60 299 -100 569 -322 757 -625 216 -347 315 -768
330 -1410 21 -944 -149 -1549 -551 -1950 -200 -200 -409 -317 -666 -372 -67
-14 -126 -18 -285 -17 -685 3 -1329 240 -1749 644 -80 77 -186 199 -186 214 0
3 33 6 73 6 190 0 413 95 550 234 97 99 156 203 200 354 18 65 22 101 21 232
-1 139 -3 164 -28 245 -69 228 -206 389 -412 486 -346 164 -782 78 -1010 -199
-150 -183 -208 -421 -175 -727 111 -1030 1050 -1800 2386 -1957 147 -17 608
-17 750 0 665 81 1267 350 1735 774 253 229 456 498 605 803 148 301 224 568
256 894 14 142 6 412 -16 536 -111 629 -469 1178 -1025 1575 -344 245 -796
439 -1202 517 l-87 17 112 42 c907 338 1559 1017 1772 1849 54 211 69 333 70
565 0 162 -4 223 -19 290 -93 433 -342 805 -733 1096 -380 284 -867 471 -1403
539 -118 15 -554 28 -645 19z"/>
</g>
</svg>
