<?xml version="1.0" standalone="no"?>
<!DOCTYPE svg PUBLIC "-//W3C//DTD SVG 20010904//EN"
 "http://www.w3.org/TR/2001/REC-SVG-20010904/DTD/svg10.dtd">
<svg version="1.0" xmlns="http://www.w3.org/2000/svg"
 width="845.000000pt" height="1008.000000pt" viewBox="0 0 845.000000 1008.000000"
 preserveAspectRatio="xMidYMid meet">
<metadata>
Created by potrace 1.16, written by Peter Selinger 2001-2019
</metadata>
<g transform="translate(0.000000,1008.000000) scale(0.100000,-0.100000)"
fill="#000000" stroke="none">
<path d="M4560 10073 c-30 -2 -122 -10 -205 -19 -933 -97 -1825 -480 -2575
-1108 -117 -98 -382 -359 -499 -491 -478 -540 -847 -1202 -1055 -1895 -461
-1530 -207 -3172 690 -4470 345 -500 790 -940 1290 -1277 644 -434 1360 -697
2149 -789 212 -25 717 -25 899 -1 700 95 1313 362 1840 803 143 120 389 370
500 507 518 646 815 1446 842 2267 5 160 4 178 -13 209 -35 63 -66 71 -258 71
-146 0 -175 -3 -204 -18 -51 -28 -71 -73 -71 -162 0 -193 -38 -513 -85 -725
-143 -638 -448 -1196 -886 -1620 -418 -405 -903 -641 -1469 -717 -141 -19
-533 -16 -710 5 -1225 147 -2222 872 -2703 1967 -269 613 -396 1309 -414 2265
-23 1281 175 2250 611 2982 484 815 1320 1382 2277 1547 234 41 351 50 599 50
262 0 400 -17 603 -75 886 -250 1594 -1091 1936 -2300 69 -243 117 -491 155
-794 34 -269 28 -265 328 -265 229 0 255 6 290 71 17 32 18 113 18 1959 0
1846 -1 1927 -18 1959 -29 53 -72 71 -172 71 -65 0 -92 -4 -115 -18 -17 -11
-206 -251 -443 -565 l-413 -546 -137 137 c-580 581 -1268 912 -2042 982 -104
9 -402 11 -540 3z"/>
</g>
</svg>
