<?xml version="1.0" standalone="no"?>
<!DOCTYPE svg PUBLIC "-//W3C//DTD SVG 20010904//EN"
 "http://www.w3.org/TR/2001/REC-SVG-20010904/DTD/svg10.dtd">
<svg version="1.0" xmlns="http://www.w3.org/2000/svg"
 width="348.000000pt" height="261.000000pt" viewBox="0 0 348.000000 261.000000"
 preserveAspectRatio="xMidYMid meet">
<metadata>
Created by potrace 1.16, written by Peter Selinger 2001-2019
</metadata>
<g transform="translate(0.000000,261.000000) scale(0.100000,-0.100000)"
fill="#000000" stroke="none">
<path d="M1150 2277 l0 -334 118 -7 c536 -30 903 -225 1009 -535 31 -91 32
-245 2 -333 -102 -305 -470 -463 -1229 -528 -69 -6 -305 -13 -525 -16 -220 -2
-428 -7 -462 -10 l-63 -6 0 -251 0 -252 407 2 c865 5 1367 41 1808 128 744
147 1137 433 1230 893 22 107 16 354 -10 452 -63 234 -219 436 -454 587 -137
88 -382 190 -583 243 l-88 23 0 139 0 138 -580 0 -580 0 0 -333z"/>
</g>
</svg>
