<?xml version="1.0" standalone="no"?>
<!DOCTYPE svg PUBLIC "-//W3C//DTD SVG 20010904//EN"
 "http://www.w3.org/TR/2001/REC-SVG-20010904/DTD/svg10.dtd">
<svg version="1.0" xmlns="http://www.w3.org/2000/svg"
 width="811.000000pt" height="908.000000pt" viewBox="0 0 811.000000 908.000000"
 preserveAspectRatio="xMidYMid meet">
<metadata>
Created by potrace 1.16, written by Peter Selinger 2001-2019
</metadata>
<g transform="translate(0.000000,908.000000) scale(0.100000,-0.100000)"
fill="#000000" stroke="none">
<path d="M1780 8856 l0 -226 268 0 c691 0 1119 -40 1247 -114 57 -34 122 -107
153 -174 l27 -57 3 -522 3 -523 -35 0 c-60 0 -398 -49 -559 -80 -446 -89 -837
-221 -1227 -417 -1048 -524 -1660 -1337 -1660 -2203 0 -866 612 -1679 1660
-2203 390 -196 781 -328 1227 -417 161 -31 499 -80 559 -80 l35 0 -3 -522 -3
-523 -27 -57 c-31 -67 -96 -140 -153 -174 -128 -74 -556 -114 -1247 -114
l-268 0 0 -226 0 -227 148 7 c906 39 3348 39 4255 0 l147 -7 0 227 0 226 -267
0 c-692 0 -1120 40 -1248 114 -57 34 -122 107 -153 174 l-27 57 -3 520 -3 520
187 23 c599 73 1123 228 1624 479 1048 524 1660 1337 1660 2203 0 866 -612
1679 -1660 2203 -501 251 -1025 406 -1624 479 l-187 23 3 520 3 520 27 57 c31
67 96 140 153 174 128 74 556 114 1248 114 l267 0 0 226 0 227 -147 -7 c-434
-19 -1192 -29 -2128 -29 -936 0 -1694 10 -2127 29 l-148 7 0 -227z m1700
-4316 l0 -2350 -24 0 c-47 0 -262 42 -410 79 -410 105 -782 297 -1049 540
-336 306 -527 714 -604 1296 -13 99 -17 203 -17 435 0 232 4 336 17 435 77
582 268 990 604 1296 269 246 651 440 1064 543 156 39 334 74 387 75 l32 1 0
-2350z m1305 2330 c706 -123 1284 -454 1586 -909 173 -261 282 -581 336 -986
24 -184 24 -686 0 -870 -77 -582 -268 -990 -604 -1296 -267 -243 -639 -435
-1049 -540 -141 -35 -363 -79 -405 -79 -19 0 -19 61 -19 2350 0 2289 0 2350
19 2350 10 0 71 -9 136 -20z"/>
</g>
</svg>
