<?xml version="1.0" standalone="no"?>
<!DOCTYPE svg PUBLIC "-//W3C//DTD SVG 20010904//EN"
 "http://www.w3.org/TR/2001/REC-SVG-20010904/DTD/svg10.dtd">
<svg version="1.0" xmlns="http://www.w3.org/2000/svg"
 width="411.000000pt" height="262.000000pt" viewBox="0 0 411.000000 262.000000"
 preserveAspectRatio="xMidYMid meet">
<metadata>
Created by potrace 1.16, written by Peter Selinger 2001-2019
</metadata>
<g transform="translate(0.000000,262.000000) scale(0.100000,-0.100000)"
fill="#000000" stroke="none">
<path d="M1093 2605 c-123 -33 -233 -120 -300 -235 -23 -41 -620 -1666 -774
-2107 l-18 -52 137 -72 c75 -39 165 -87 198 -105 l61 -34 645 887 c757 1042
684 939 713 1012 56 138 53 269 -12 400 -111 228 -413 370 -650 306z"/>
<path d="M3393 2605 c-123 -33 -233 -120 -300 -235 -23 -41 -620 -1666 -774
-2107 l-18 -52 137 -72 c75 -39 165 -87 198 -105 l61 -34 645 887 c757 1042
684 939 713 1012 56 138 53 269 -12 400 -111 228 -413 370 -650 306z"/>
</g>
</svg>
