<?xml version="1.0" standalone="no"?>
<!DOCTYPE svg PUBLIC "-//W3C//DTD SVG 20010904//EN"
 "http://www.w3.org/TR/2001/REC-SVG-20010904/DTD/svg10.dtd">
<svg version="1.0" xmlns="http://www.w3.org/2000/svg"
 width="276.000000pt" height="243.000000pt" viewBox="0 0 276.000000 243.000000"
 preserveAspectRatio="xMidYMid meet">
<metadata>
Created by potrace 1.16, written by Peter Selinger 2001-2019
</metadata>
<g transform="translate(0.000000,243.000000) scale(0.100000,-0.100000)"
fill="#000000" stroke="none">
<path d="M1225 2424 c-386 -55 -647 -175 -876 -404 -180 -180 -292 -391 -333
-629 -37 -219 0 -463 101 -666 146 -292 433 -532 773 -647 160 -54 285 -73
485 -73 200 0 325 19 485 73 340 115 627 355 773 647 101 203 138 447 101 666
-41 238 -153 449 -333 629 -195 195 -440 322 -727 380 -95 20 -376 35 -449 24z
m383 -414 c345 -37 555 -181 642 -438 48 -145 63 -372 35 -554 -27 -184 -78
-293 -186 -399 -147 -146 -364 -209 -724 -209 -360 0 -577 63 -724 209 -108
106 -159 215 -186 399 -28 182 -13 409 35 554 85 251 298 400 625 437 114 12
369 13 483 1z"/>
</g>
</svg>
