<?xml version="1.0" standalone="no"?>
<!DOCTYPE svg PUBLIC "-//W3C//DTD SVG 20010904//EN"
 "http://www.w3.org/TR/2001/REC-SVG-20010904/DTD/svg10.dtd">
<svg version="1.0" xmlns="http://www.w3.org/2000/svg"
 width="149.000000pt" height="830.000000pt" viewBox="0 0 149.000000 830.000000"
 preserveAspectRatio="xMidYMid meet">
<metadata>
Created by potrace 1.16, written by Peter Selinger 2001-2019
</metadata>
<g transform="translate(0.000000,830.000000) scale(0.100000,-0.100000)"
fill="#000000" stroke="none">
<path d="M591 8290 c-157 -33 -262 -91 -376 -205 -100 -99 -146 -175 -187
-305 -33 -108 -33 -292 0 -400 41 -130 87 -206 187 -305 99 -100 175 -146 305
-187 62 -19 97 -23 200 -23 103 0 138 4 200 23 130 41 206 87 305 187 100 99
146 175 187 305 33 108 33 292 0 400 -41 130 -87 206 -187 305 -98 99 -175
146 -300 185 -79 25 -260 35 -334 20z"/>
<path d="M560 4005 c-220 -47 -390 -178 -481 -370 -59 -123 -74 -191 -74 -335
0 -144 15 -212 74 -335 120 -252 376 -397 675 -382 124 6 213 28 311 77 l75
38 0 -107 c0 -198 -29 -458 -76 -689 -115 -564 -400 -1134 -784 -1567 -106
-120 -113 -171 -31 -258 71 -76 136 -95 196 -58 63 38 328 375 451 574 296
477 480 991 555 1552 26 196 35 559 20 769 -48 645 -240 995 -597 1086 -91 23
-217 25 -314 5z"/>
</g>
</svg>
