<?xml version="1.0" standalone="no"?>
<!DOCTYPE svg PUBLIC "-//W3C//DTD SVG 20010904//EN"
 "http://www.w3.org/TR/2001/REC-SVG-20010904/DTD/svg10.dtd">
<svg version="1.0" xmlns="http://www.w3.org/2000/svg"
 width="421.000000pt" height="402.000000pt" viewBox="0 0 421.000000 402.000000"
 preserveAspectRatio="xMidYMid meet">
<metadata>
Created by potrace 1.16, written by Peter Selinger 2001-2019
</metadata>
<g transform="translate(0.000000,402.000000) scale(0.100000,-0.100000)"
fill="#000000" stroke="none">
<path d="M560 4005 c-220 -47 -390 -178 -481 -370 -59 -123 -74 -191 -74 -335
0 -144 15 -212 74 -335 114 -240 355 -385 641 -385 193 0 371 68 505 192 l44
39 7 -48 c10 -68 -2 -387 -21 -528 -46 -351 -135 -659 -280 -962 -160 -335
-334 -580 -615 -868 -97 -99 -160 -171 -164 -188 -12 -50 10 -100 68 -155 93
-88 139 -84 259 23 218 195 485 534 647 823 222 397 367 837 425 1293 23 174
30 496 16 649 -70 735 -406 1173 -896 1169 -49 0 -119 -7 -155 -14z"/>
<path d="M3140 4005 c-220 -47 -390 -178 -481 -370 -59 -123 -74 -191 -74
-335 0 -144 15 -212 74 -335 114 -240 355 -385 641 -385 193 0 371 68 505 192
l44 39 7 -48 c10 -68 -2 -387 -21 -528 -46 -351 -135 -659 -280 -962 -160
-335 -334 -580 -615 -868 -97 -99 -160 -171 -164 -188 -12 -50 10 -100 68
-155 93 -88 139 -84 259 23 218 195 485 534 647 823 222 397 367 837 425 1293
23 174 30 496 16 649 -70 735 -406 1173 -896 1169 -49 0 -119 -7 -155 -14z"/>
</g>
</svg>
