<?xml version="1.0" standalone="no"?>
<!DOCTYPE svg PUBLIC "-//W3C//DTD SVG 20010904//EN"
 "http://www.w3.org/TR/2001/REC-SVG-20010904/DTD/svg10.dtd">
<svg version="1.0" xmlns="http://www.w3.org/2000/svg"
 width="576.000000pt" height="954.000000pt" viewBox="0 0 576.000000 954.000000"
 preserveAspectRatio="xMidYMid meet">
<metadata>
Created by potrace 1.16, written by Peter Selinger 2001-2019
</metadata>
<g transform="translate(0.000000,954.000000) scale(0.100000,-0.100000)"
fill="#000000" stroke="none">
<path d="M3430 9534 c-789 -73 -1518 -450 -2114 -1092 -500 -539 -893 -1271
-1110 -2067 -141 -519 -206 -1041 -206 -1657 1 -1468 223 -2532 708 -3383 432
-758 1150 -1245 1957 -1326 161 -16 478 -6 659 21 370 56 685 174 977 369 187
124 280 202 460 381 703 700 989 1395 989 2405 0 931 -230 1572 -804 2244
-444 521 -903 786 -1511 873 -54 8 -184 13 -325 12 -216 0 -245 -2 -361 -27
-517 -109 -932 -417 -1244 -922 -33 -53 -61 -91 -63 -85 -7 20 18 661 34 850
86 1089 344 1781 853 2291 460 460 1045 656 1638 549 242 -44 469 -154 602
-294 l35 -36 -26 0 c-45 0 -199 -50 -273 -88 -96 -49 -228 -181 -277 -277 -63
-121 -83 -209 -83 -365 0 -156 20 -244 83 -365 49 -96 181 -228 277 -277 121
-63 228 -88 370 -88 220 0 379 63 525 210 97 96 145 176 182 305 20 70 23 101
23 255 -1 176 -10 257 -47 405 -44 180 -121 356 -221 505 -69 103 -271 303
-377 373 -215 141 -474 238 -758 283 -94 15 -475 27 -572 18z m-185 -3749
c350 -63 615 -258 823 -605 187 -313 242 -763 242 -1985 0 -1188 -60 -1650
-255 -1971 -256 -423 -589 -617 -1095 -640 -334 -16 -598 75 -863 296 -196
164 -375 426 -466 684 -98 279 -173 1039 -173 1766 -1 491 62 928 186 1305
229 694 620 1092 1142 1164 95 13 350 5 459 -14z"/>
</g>
</svg>
