<?xml version="1.0" standalone="no"?>
<!DOCTYPE svg PUBLIC "-//W3C//DTD SVG 20010904//EN"
 "http://www.w3.org/TR/2001/REC-SVG-20010904/DTD/svg10.dtd">
<svg version="1.0" xmlns="http://www.w3.org/2000/svg"
 width="625.000000pt" height="991.000000pt" viewBox="0 0 625.000000 991.000000"
 preserveAspectRatio="xMidYMid meet">
<metadata>
Created by potrace 1.16, written by Peter Selinger 2001-2019
</metadata>
<g transform="translate(0.000000,991.000000) scale(0.100000,-0.100000)"
fill="#000000" stroke="none">
<path d="M3220 9904 c-19 -2 -78 -9 -130 -15 -649 -74 -1278 -420 -1635 -899
-209 -282 -339 -599 -375 -915 -6 -54 -10 -461 -10 -1027 l0 -938 -535 0 -535
0 0 -310 0 -310 535 0 535 0 -2 -2247 -3 -2248 -31 -55 c-74 -131 -181 -156
-726 -167 l-308 -6 0 -310 0 -310 98 7 c446 29 1708 41 1912 18 63 -7 130 -15
147 -18 l33 -6 3 3998 c2 3765 3 4005 20 4104 86 514 296 832 672 1020 413
206 890 164 1246 -112 187 -144 324 -357 400 -618 55 -188 85 -484 76 -745
-20 -569 -165 -963 -462 -1260 -253 -254 -589 -400 -970 -421 -128 -8 -161
-21 -195 -76 -18 -29 -20 -51 -20 -183 0 -127 3 -156 18 -184 24 -45 74 -71
137 -71 209 0 479 -76 680 -191 542 -311 937 -933 1099 -1731 67 -326 94 -595
103 -1008 14 -666 -59 -1115 -238 -1471 -187 -374 -480 -615 -816 -674 -163
-29 -302 -12 -437 53 l-80 38 58 33 c125 70 217 184 262 325 33 102 37 254 10
356 -71 263 -293 431 -571 433 -177 0 -321 -56 -435 -172 -148 -149 -199 -352
-155 -607 43 -241 153 -453 326 -625 138 -137 291 -230 482 -294 160 -54 272
-68 472 -62 348 12 648 88 970 247 253 125 444 260 640 455 403 400 652 909
737 1505 17 124 17 574 0 735 -92 843 -420 1588 -955 2175 -231 252 -556 504
-840 650 -59 30 -107 57 -106 60 0 3 80 44 177 91 183 90 385 217 527 332 115
93 320 306 406 422 274 369 419 787 419 1207 0 376 -133 759 -377 1087 -76
101 -267 296 -373 381 -347 277 -776 458 -1255 531 -124 19 -531 34 -625 23z"/>
</g>
</svg>
