<?xml version="1.0" standalone="no"?>
<!DOCTYPE svg PUBLIC "-//W3C//DTD SVG 20010904//EN"
 "http://www.w3.org/TR/2001/REC-SVG-20010904/DTD/svg10.dtd">
<svg version="1.0" xmlns="http://www.w3.org/2000/svg"
 width="885.000000pt" height="968.000000pt" viewBox="0 0 885.000000 968.000000"
 preserveAspectRatio="xMidYMid meet">
<metadata>
Created by potrace 1.16, written by Peter Selinger 2001-2019
</metadata>
<g transform="translate(0.000000,968.000000) scale(0.100000,-0.100000)"
fill="#000000" stroke="none">
<path d="M4190 9674 c-19 -2 -91 -9 -160 -15 -261 -23 -577 -88 -842 -175
-865 -282 -1608 -821 -2178 -1579 -989 -1317 -1277 -3134 -750 -4726 80 -241
144 -398 260 -634 500 -1021 1315 -1803 2316 -2224 1859 -781 3986 -95 5165
1664 162 243 359 616 469 889 460 1147 491 2472 85 3654 -421 1227 -1270 2211
-2360 2738 -427 206 -869 335 -1335 390 -126 14 -591 27 -670 18z m570 -359
c143 -21 347 -72 476 -120 55 -20 176 -74 269 -120 818 -404 1442 -1225 1748
-2300 225 -786 301 -1781 212 -2760 -127 -1387 -649 -2477 -1490 -3110 -964
-726 -2146 -726 -3110 0 -554 417 -978 1044 -1236 1829 -255 776 -347 1817
-253 2876 123 1392 628 2484 1455 3146 403 322 869 519 1359 573 122 14 435 6
570 -14z"/>
<path d="M2090 4850 l0 -970 185 0 185 0 0 225 0 225 1960 0 1960 0 0 -225 0
-225 185 0 185 0 0 970 0 970 -185 0 -185 0 0 -225 0 -225 -1960 0 -1960 0 0
225 0 225 -185 0 -185 0 0 -970z"/>
</g>
</svg>
