<?xml version="1.0" standalone="no"?>
<!DOCTYPE svg PUBLIC "-//W3C//DTD SVG 20010904//EN"
 "http://www.w3.org/TR/2001/REC-SVG-20010904/DTD/svg10.dtd">
<svg version="1.0" xmlns="http://www.w3.org/2000/svg"
 width="959.000000pt" height="1070.000000pt" viewBox="0 0 959.000000 1070.000000"
 preserveAspectRatio="xMidYMid meet">
<metadata>
Created by potrace 1.16, written by Peter Selinger 2001-2019
</metadata>
<g transform="translate(0.000000,1070.000000) scale(0.100000,-0.100000)"
fill="#000000" stroke="none">
<path d="M1755 10685 c-176 -28 -307 -71 -475 -155 -665 -334 -1135 -1108
-1257 -2070 -24 -189 -24 -681 0 -870 55 -432 180 -831 364 -1164 318 -575
768 -937 1310 -1051 118 -25 328 -31 439 -11 486 84 895 438 1191 1031 248
495 367 1087 350 1740 -9 341 -41 588 -112 871 -29 114 -108 363 -140 437 -5
13 9 8 56 -19 455 -258 997 -432 1544 -496 147 -17 646 -17 790 1 446 53 863
179 1232 370 62 32 110 54 106 47 -4 -6 -1354 -2012 -3000 -4458 -1647 -2446
-3006 -4469 -3021 -4495 -23 -40 -27 -60 -27 -123 0 -85 15 -122 74 -183 93
-99 234 -114 346 -37 36 25 594 848 3476 5129 1889 2806 3443 5118 3454 5138
28 52 28 172 0 228 -25 50 -80 105 -130 130 -58 28 -176 27 -230 -2 -49 -26
-106 -86 -170 -177 -286 -410 -727 -767 -1208 -980 -585 -259 -1265 -335
-1930 -215 -679 122 -1339 456 -1848 935 -192 181 -294 258 -446 333 -232 116
-489 156 -738 116z m405 -351 c272 -68 548 -312 755 -668 198 -342 312 -707
371 -1196 25 -204 25 -686 0 -890 -34 -283 -76 -480 -147 -693 -290 -874 -879
-1351 -1421 -1150 -257 95 -505 382 -651 753 -149 377 -207 803 -207 1535 0
732 58 1158 207 1535 171 434 466 734 778 790 69 12 236 4 315 -16z"/>
<path d="M7655 5335 c-176 -28 -307 -71 -475 -155 -665 -334 -1135 -1108
-1257 -2070 -24 -189 -24 -681 0 -870 55 -432 180 -831 364 -1164 318 -575
768 -937 1310 -1051 118 -25 328 -31 439 -11 486 84 895 438 1191 1031 472
943 472 2317 0 3260 -152 304 -336 550 -538 716 -127 105 -179 140 -298 199
-230 115 -487 155 -736 115z m405 -351 c272 -68 548 -312 755 -668 198 -342
312 -707 371 -1196 25 -204 25 -686 0 -890 -34 -283 -76 -480 -147 -693 -290
-874 -879 -1351 -1421 -1150 -257 95 -505 382 -651 753 -149 377 -207 803
-207 1535 0 732 58 1158 207 1535 171 434 466 734 778 790 69 12 236 4 315
-16z"/>
</g>
</svg>
