<?xml version="1.0" standalone="no"?>
<!DOCTYPE svg PUBLIC "-//W3C//DTD SVG 20010904//EN"
 "http://www.w3.org/TR/2001/REC-SVG-20010904/DTD/svg10.dtd">
<svg version="1.0" xmlns="http://www.w3.org/2000/svg"
 width="922.000000pt" height="1109.000000pt" viewBox="0 0 922.000000 1109.000000"
 preserveAspectRatio="xMidYMid meet">
<metadata>
Created by potrace 1.16, written by Peter Selinger 2001-2019
</metadata>
<g transform="translate(0.000000,1109.000000) scale(0.100000,-0.100000)"
fill="#000000" stroke="none">
<path d="M7723 11048 c-16 -24 -190 -300 -387 -615 l-357 -572 -82 53 c-353
227 -800 424 -1217 534 -1161 309 -2384 106 -3415 -566 -720 -469 -1298 -1126
-1699 -1932 -870 -1750 -726 -3899 366 -5455 234 -334 530 -662 807 -897 l44
-37 -395 -633 -395 -632 228 -144 c126 -79 233 -141 238 -137 6 3 175 270 377
593 202 323 372 595 378 604 10 15 28 7 161 -74 544 -327 1137 -528 1783 -605
206 -24 688 -24 894 0 1201 142 2261 738 3033 1705 1043 1305 1387 3087 921
4772 -253 916 -776 1783 -1442 2391 l-142 130 398 636 397 637 -221 139 c-121
77 -226 141 -233 144 -6 2 -24 -15 -40 -39z m-2718 -997 c591 -89 1123 -338
1554 -728 l53 -48 -2198 -3512 c-1209 -1931 -2202 -3509 -2207 -3506 -5 3 -42
56 -82 117 -488 751 -695 1685 -695 3141 0 1212 134 2034 445 2727 109 243
283 529 441 728 87 109 354 377 464 464 451 359 996 580 1574 636 146 14 501
4 651 -19z m2183 -1521 c264 -465 434 -1020 521 -1700 97 -755 95 -1907 -4
-2645 -158 -1172 -597 -2020 -1330 -2571 -417 -313 -910 -511 -1435 -576 -136
-17 -534 -17 -670 0 -596 74 -1155 321 -1600 709 -72 62 -78 70 -66 88 7 11
993 1586 2191 3500 1197 1914 2182 3486 2188 3493 12 16 92 -100 205 -298z"/>
</g>
</svg>
