<?xml version="1.0" standalone="no"?>
<!DOCTYPE svg PUBLIC "-//W3C//DTD SVG 20010904//EN"
 "http://www.w3.org/TR/2001/REC-SVG-20010904/DTD/svg10.dtd">
<svg version="1.0" xmlns="http://www.w3.org/2000/svg"
 width="949.000000pt" height="1023.000000pt" viewBox="0 0 949.000000 1023.000000"
 preserveAspectRatio="xMidYMid meet">
<metadata>
Created by potrace 1.16, written by Peter Selinger 2001-2019
</metadata>
<g transform="translate(0.000000,1023.000000) scale(0.100000,-0.100000)"
fill="#000000" stroke="none">
<path d="M3368 10215 c-489 -67 -933 -337 -1251 -761 -248 -330 -403 -718
-469 -1179 -17 -115 -16 -655 0 -855 41 -482 124 -956 253 -1430 47 -172 192
-619 252 -772 l25 -66 -461 -474 c-253 -260 -630 -646 -837 -858 -464 -476
-544 -575 -676 -839 -270 -541 -271 -1157 -2 -1695 130 -260 286 -459 513
-654 342 -294 789 -501 1265 -586 372 -66 783 -59 1180 20 616 123 1242 445
1766 910 l71 64 109 -91 c732 -611 1474 -920 2269 -946 205 -6 342 5 514 43
757 169 1345 800 1481 1589 10 61 22 163 26 228 l7 117 -225 0 -225 0 -7 -97
c-14 -202 -67 -389 -161 -571 -210 -403 -590 -684 -1040 -768 -135 -26 -377
-26 -493 -1 -343 73 -694 277 -1096 636 -117 104 -430 420 -485 490 l-30 37
81 100 c506 622 846 1143 1724 2636 185 315 361 607 392 648 30 41 96 116 146
165 311 306 747 466 1340 491 l156 7 0 260 0 260 -77 -7 c-513 -41 -2181 -41
-2945 0 l-118 7 0 -260 0 -260 124 -7 c245 -13 435 -61 580 -148 193 -116 273
-248 264 -437 -3 -70 -10 -99 -34 -151 -33 -70 -613 -1057 -821 -1398 -319
-521 -572 -902 -828 -1242 -117 -155 -253 -324 -264 -328 -16 -6 -419 525
-683 898 -727 1031 -1042 1540 -1318 2130 -88 188 -210 472 -210 486 1 5 27
37 58 71 802 864 1238 1449 1474 1974 152 341 199 612 169 984 -52 640 -269
1152 -602 1418 -240 192 -524 260 -881 212z m433 -427 c97 -36 156 -73 229
-147 97 -98 173 -223 235 -386 112 -299 173 -805 130 -1090 -63 -421 -375
-967 -930 -1630 -207 -246 -472 -542 -479 -534 -9 10 -92 279 -136 439 -118
432 -195 860 -235 1310 -22 256 -30 630 -16 780 66 691 398 1187 856 1276 104
20 263 12 346 -18z m-1377 -5205 c193 -416 483 -928 760 -1343 466 -700 949
-1322 1369 -1769 l126 -133 -46 -40 c-82 -71 -240 -186 -376 -276 -443 -291
-882 -445 -1397 -492 -366 -33 -597 14 -831 169 -398 263 -664 779 -756 1466
-24 181 -24 600 0 775 66 476 215 850 455 1149 56 69 609 641 621 641 3 0 37
-66 75 -147z"/>
</g>
</svg>
