<?xml version="1.0" standalone="no"?>
<!DOCTYPE svg PUBLIC "-//W3C//DTD SVG 20010904//EN"
 "http://www.w3.org/TR/2001/REC-SVG-20010904/DTD/svg10.dtd">
<svg version="1.0" xmlns="http://www.w3.org/2000/svg"
 width="404.000000pt" height="231.000000pt" viewBox="0 0 404.000000 231.000000"
 preserveAspectRatio="xMidYMid meet">
<metadata>
Created by potrace 1.16, written by Peter Selinger 2001-2019
</metadata>
<g transform="translate(0.000000,231.000000) scale(0.100000,-0.100000)"
fill="#000000" stroke="none">
<path d="M4 2184 c57 -1064 715 -1940 1606 -2137 1226 -272 2340 713 2416
2137 l7 126 -170 0 -170 0 -7 -109 c-20 -332 -143 -683 -334 -951 -83 -117
-259 -297 -370 -378 -581 -427 -1353 -427 -1934 0 -111 81 -287 261 -370 378
-191 268 -314 619 -334 951 l-7 109 -170 0 -170 0 7 -126z"/>
</g>
</svg>
