<?xml version="1.0" standalone="no"?>
<!DOCTYPE svg PUBLIC "-//W3C//DTD SVG 20010904//EN"
 "http://www.w3.org/TR/2001/REC-SVG-20010904/DTD/svg10.dtd">
<svg version="1.0" xmlns="http://www.w3.org/2000/svg"
 width="604.000000pt" height="610.000000pt" viewBox="0 0 604.000000 610.000000"
 preserveAspectRatio="xMidYMid meet">
<metadata>
Created by potrace 1.16, written by Peter Selinger 2001-2019
</metadata>
<g transform="translate(0.000000,610.000000) scale(0.100000,-0.100000)"
fill="#000000" stroke="none">
<path d="M2130 6089 c-493 -49 -926 -200 -1227 -426 -332 -249 -514 -592 -513
-966 1 -182 64 -343 181 -458 240 -237 658 -237 898 0 242 238 241 668 -1 904
-88 85 -193 138 -327 165 l-94 19 54 42 c295 234 720 369 1219 387 198 7 319
-8 475 -60 202 -68 359 -167 520 -330 224 -225 375 -519 436 -847 19 -99 22
-163 26 -495 l5 -381 -149 -7 c-938 -43 -1601 -171 -2217 -428 -370 -154 -648
-331 -876 -557 -294 -292 -469 -624 -525 -996 -128 -852 531 -1481 1706 -1630
176 -22 490 -30 624 -16 545 59 1041 339 1352 763 85 114 122 173 164 261 l34
68 12 -83 c54 -371 276 -699 575 -849 259 -130 582 -130 873 1 170 76 368 243
474 398 93 138 167 330 190 496 7 46 11 267 11 547 l0 469 -184 0 -185 0 -4
-513 c-4 -555 -5 -568 -63 -713 -108 -274 -337 -388 -559 -279 -94 45 -177
146 -229 279 -64 159 -60 39 -66 1876 -6 1664 -6 1676 -27 1768 -83 361 -252
662 -520 923 -285 280 -657 483 -1089 594 -217 56 -377 76 -644 80 -129 2
-278 -1 -330 -6z m1650 -3511 c0 -872 -5 -932 -85 -1174 -164 -493 -584 -889
-1077 -1014 -483 -124 -925 -12 -1234 313 -213 224 -299 442 -298 757 0 314
85 580 275 866 105 158 293 344 458 452 388 256 855 418 1438 497 144 20 383
42 466 44 l57 1 0 -742z"/>
</g>
</svg>
