<?xml version="1.0" standalone="no"?>
<!DOCTYPE svg PUBLIC "-//W3C//DTD SVG 20010904//EN"
 "http://www.w3.org/TR/2001/REC-SVG-20010904/DTD/svg10.dtd">
<svg version="1.0" xmlns="http://www.w3.org/2000/svg"
 width="922.000000pt" height="1008.000000pt" viewBox="0 0 922.000000 1008.000000"
 preserveAspectRatio="xMidYMid meet">
<metadata>
Created by potrace 1.16, written by Peter Selinger 2001-2019
</metadata>
<g transform="translate(0.000000,1008.000000) scale(0.100000,-0.100000)"
fill="#000000" stroke="none">
<path d="M4295 10069 c-1331 -101 -2558 -834 -3370 -2014 -311 -451 -572
-1015 -721 -1555 -466 -1685 -122 -3467 921 -4772 434 -544 961 -972 1567
-1273 459 -228 939 -370 1466 -432 206 -24 688 -24 894 0 1307 155 2442 845
3226 1962 1007 1435 1214 3379 540 5070 -646 1620 -2043 2765 -3643 2984 -289
40 -607 51 -880 30z m526 -509 c605 -60 1167 -337 1639 -810 519 -519 883
-1250 1064 -2135 91 -447 132 -863 142 -1440 21 -1160 -140 -2077 -498 -2836
-197 -417 -486 -816 -788 -1087 -440 -394 -930 -629 -1470 -704 -123 -17 -487
-17 -610 0 -540 75 -1030 310 -1470 704 -302 271 -591 670 -788 1087 -358 759
-519 1676 -498 2836 10 577 51 993 142 1440 152 745 438 1389 840 1890 114
142 329 356 469 468 550 440 1199 649 1826 587z"/>
<path d="M2320 5055 l0 -1095 275 0 275 0 0 235 0 235 1735 0 1735 0 0 -235 0
-235 275 0 275 0 0 1095 0 1095 -275 0 -275 0 0 -235 0 -235 -1735 0 -1735 0
0 235 0 235 -275 0 -275 0 0 -1095z"/>
</g>
</svg>
