<?xml version="1.0" standalone="no"?>
<!DOCTYPE svg PUBLIC "-//W3C//DTD SVG 20010904//EN"
 "http://www.w3.org/TR/2001/REC-SVG-20010904/DTD/svg10.dtd">
<svg version="1.0" xmlns="http://www.w3.org/2000/svg"
 width="771.000000pt" height="946.000000pt" viewBox="0 0 771.000000 946.000000"
 preserveAspectRatio="xMidYMid meet">
<metadata>
Created by potrace 1.16, written by Peter Selinger 2001-2019
</metadata>
<g transform="translate(0.000000,946.000000) scale(0.100000,-0.100000)"
fill="#000000" stroke="none">
<path d="M0 9153 l0 -310 403 -6 c545 -8 760 -27 862 -77 50 -24 108 -78 132
-123 17 -30 18 -234 18 -3907 0 -3673 -1 -3877 -18 -3907 -24 -45 -82 -99
-132 -123 -102 -50 -317 -69 -862 -77 l-403 -6 0 -309 0 -308 3659 0 3659 0 6
48 c4 26 87 850 186 1832 99 982 182 1806 186 1833 l6 47 -275 0 -276 0 -6
-52 c-3 -29 -17 -156 -31 -283 -106 -971 -274 -1527 -590 -1952 -75 -101 -256
-282 -361 -361 -372 -282 -839 -440 -1418 -483 -188 -13 -1576 -6 -1651 9
-139 28 -187 57 -220 135 -18 41 -19 169 -22 3917 -2 3459 -1 3879 13 3916 31
81 135 153 263 179 159 33 620 54 1170 55 l332 0 0 311 0 312 -157 -7 c-1005
-41 -3517 -41 -4345 0 l-128 7 0 -310z"/>
</g>
</svg>
