<?xml version="1.0" standalone="no"?>
<!DOCTYPE svg PUBLIC "-//W3C//DTD SVG 20010904//EN"
 "http://www.w3.org/TR/2001/REC-SVG-20010904/DTD/svg10.dtd">
<svg version="1.0" xmlns="http://www.w3.org/2000/svg"
 width="418.000000pt" height="832.000000pt" viewBox="0 0 418.000000 832.000000"
 preserveAspectRatio="xMidYMid meet">
<metadata>
Created by potrace 1.16, written by Peter Selinger 2001-2019
</metadata>
<g transform="translate(0.000000,832.000000) scale(0.100000,-0.100000)"
fill="#000000" stroke="none">
<path d="M1696 8158 c-16 -396 -81 -765 -192 -1089 -272 -799 -769 -1260
-1407 -1305 l-97 -7 0 -168 0 -169 555 0 554 0 4 -1967 c4 -2152 0 -2008 61
-2251 161 -631 578 -1027 1221 -1157 571 -115 964 -16 1288 325 229 240 384
579 459 1005 19 110 22 165 25 653 l5 532 -186 0 -186 0 0 -452 c0 -484 -7
-610 -46 -809 -92 -478 -323 -800 -639 -895 -81 -25 -274 -25 -365 -1 -86 23
-212 86 -282 142 -155 122 -288 364 -343 626 -51 237 -49 139 -52 2267 l-4
1982 941 0 940 0 0 225 0 225 -940 0 -940 0 0 1225 0 1225 -183 0 -184 0 -7
-162z"/>
</g>
</svg>
