<?xml version="1.0" standalone="no"?>
<!DOCTYPE svg PUBLIC "-//W3C//DTD SVG 20010904//EN"
 "http://www.w3.org/TR/2001/REC-SVG-20010904/DTD/svg10.dtd">
<svg version="1.0" xmlns="http://www.w3.org/2000/svg"
 width="973.000000pt" height="946.000000pt" viewBox="0 0 973.000000 946.000000"
 preserveAspectRatio="xMidYMid meet">
<metadata>
Created by potrace 1.16, written by Peter Selinger 2001-2019
</metadata>
<g transform="translate(0.000000,946.000000) scale(0.100000,-0.100000)"
fill="#000000" stroke="none">
<path d="M190 9201 l0 -261 213 0 c229 0 540 -14 677 -31 199 -24 288 -52 401
-125 143 -94 124 -66 1364 -1969 637 -979 1210 -1857 1272 -1952 l112 -172
-1125 -1693 c-619 -931 -1149 -1724 -1177 -1763 -72 -97 -207 -228 -318 -308
-190 -136 -483 -261 -754 -322 -222 -50 -544 -85 -771 -85 l-84 0 0 -261 0
-261 92 6 c600 41 2478 41 3206 0 l112 -6 0 261 0 261 -42 0 c-67 0 -226 27
-303 51 -215 66 -397 208 -474 369 -34 70 -36 82 -36 170 0 75 4 104 21 140
23 50 1954 2960 1963 2959 5 0 1593 -2433 2064 -3161 102 -159 110 -183 82
-238 -72 -140 -506 -289 -837 -290 l-58 0 0 -261 0 -262 133 7 c850 41 2991
41 3690 0 l107 -7 0 262 0 261 -209 0 c-407 0 -796 32 -926 75 -139 47 -280
153 -369 279 -45 63 -2916 4466 -2919 4476 -3 9 1825 2758 1904 2866 333 448
925 690 1759 721 l180 6 0 260 0 260 -97 -7 c-634 -41 -2450 -41 -3205 0
l-118 7 0 -260 0 -260 97 -7 c365 -27 686 -234 753 -485 17 -65 14 -171 -8
-227 -14 -36 -1532 -2341 -1572 -2387 -10 -11 -1783 2711 -1788 2744 -11 71
67 147 228 223 161 76 351 120 567 133 l113 6 0 260 0 260 -132 -7 c-852 -41
-2978 -41 -3680 0 l-108 7 0 -262z"/>
</g>
</svg>
