<?xml version="1.0" standalone="no"?>
<!DOCTYPE svg PUBLIC "-//W3C//DTD SVG 20010904//EN"
 "http://www.w3.org/TR/2001/REC-SVG-20010904/DTD/svg10.dtd">
<svg version="1.0" xmlns="http://www.w3.org/2000/svg"
 width="959.000000pt" height="610.000000pt" viewBox="0 0 959.000000 610.000000"
 preserveAspectRatio="xMidYMid meet">
<metadata>
Created by potrace 1.16, written by Peter Selinger 2001-2019
</metadata>
<g transform="translate(0.000000,610.000000) scale(0.100000,-0.100000)"
fill="#000000" stroke="none">
<path d="M2595 6089 c-524 -54 -1042 -268 -1465 -605 -109 -87 -357 -335 -444
-444 -125 -157 -265 -379 -356 -565 -166 -338 -263 -665 -312 -1055 -19 -155
-16 -600 5 -764 89 -665 358 -1256 790 -1736 257 -286 620 -547 967 -695 211
-90 477 -166 705 -201 168 -26 552 -26 715 -1 774 120 1440 549 1893 1218 l72
106 69 -101 c154 -227 383 -474 586 -636 374 -298 830 -503 1275 -574 650
-105 1192 27 1680 409 91 72 309 291 377 380 177 233 320 519 398 794 35 126
36 171 1 219 -30 43 -78 62 -156 62 -76 0 -126 -19 -154 -59 -10 -14 -31 -71
-46 -126 -52 -193 -151 -409 -264 -580 -259 -393 -623 -645 -1056 -732 -137
-27 -413 -24 -563 5 -622 124 -1141 563 -1411 1193 -166 388 -244 798 -258
1357 l-6 252 1912 0 c2119 0 1955 -5 2004 64 19 26 23 47 26 136 9 279 -43
716 -119 1005 -252 955 -856 1519 -1780 1662 -178 27 -531 24 -709 -6 -406
-69 -760 -223 -1109 -482 -207 -154 -511 -486 -667 -727 l-47 -73 -49 71
c-170 247 -416 510 -629 674 -374 287 -806 472 -1260 541 -125 19 -486 28
-615 14z m546 -358 c457 -91 873 -393 1143 -830 269 -435 396 -1006 396 -1782
0 -863 -145 -1496 -448 -1959 -95 -146 -174 -240 -301 -362 -237 -227 -523
-378 -826 -434 -145 -27 -393 -25 -532 4 -280 60 -546 203 -762 408 -535 509
-753 1251 -727 2484 10 536 60 888 172 1220 199 590 614 1030 1135 1204 89 30
171 48 324 70 67 10 333 -5 426 -23z m4426 0 c196 -50 363 -148 514 -300 328
-330 515 -891 559 -1681 5 -102 10 -193 10 -202 0 -17 -78 -18 -1496 -18
l-1497 0 7 100 c9 137 49 400 81 544 85 380 229 697 437 968 257 333 621 556
990 608 103 14 302 5 395 -19z"/>
</g>
</svg>
