<?xml version="1.0" standalone="no"?>
<!DOCTYPE svg PUBLIC "-//W3C//DTD SVG 20010904//EN"
 "http://www.w3.org/TR/2001/REC-SVG-20010904/DTD/svg10.dtd">
<svg version="1.0" xmlns="http://www.w3.org/2000/svg"
 width="912.000000pt" height="908.000000pt" viewBox="0 0 912.000000 908.000000"
 preserveAspectRatio="xMidYMid meet">
<metadata>
Created by potrace 1.16, written by Peter Selinger 2001-2019
</metadata>
<g transform="translate(0.000000,908.000000) scale(0.100000,-0.100000)"
fill="#000000" stroke="none">
<path d="M0 8855 l0 -225 243 0 c448 0 875 -27 1050 -66 l67 -16 -2 -3711 -3
-3712 -23 -70 c-43 -128 -90 -204 -182 -295 -66 -66 -105 -95 -175 -131 -220
-114 -437 -162 -797 -175 l-178 -7 0 -225 0 -224 102 6 c645 39 2281 39 2926
0 l102 -6 0 224 0 225 -177 7 c-361 13 -578 61 -798 175 -70 36 -109 65 -175
131 -92 91 -139 167 -182 295 l-23 70 -3 3574 -2 3574 22 -29 c13 -15 1275
-1867 2806 -4114 1530 -2247 2794 -4094 2809 -4105 22 -16 47 -21 124 -23 111
-4 155 10 192 62 l22 31 5 3930 5 3930 23 70 c43 128 90 204 182 295 66 66
105 95 175 131 220 114 437 162 798 175 l177 7 0 225 0 224 -102 -6 c-645 -39
-2281 -39 -2925 0 l-103 6 0 -224 0 -225 178 -7 c360 -13 577 -61 797 -175 70
-36 109 -65 175 -131 92 -91 139 -167 182 -295 l23 -70 3 -2940 2 -2939 -48
69 c-27 39 -1087 1595 -2357 3460 -1269 1865 -2319 3403 -2334 3418 -55 61 33
57 -1341 57 l-1260 0 0 -225z"/>
</g>
</svg>
