<?xml version="1.0" standalone="no"?>
<!DOCTYPE svg PUBLIC "-//W3C//DTD SVG 20010904//EN"
 "http://www.w3.org/TR/2001/REC-SVG-20010904/DTD/svg10.dtd">
<svg version="1.0" xmlns="http://www.w3.org/2000/svg"
 width="982.000000pt" height="946.000000pt" viewBox="0 0 982.000000 946.000000"
 preserveAspectRatio="xMidYMid meet">
<metadata>
Created by potrace 1.16, written by Peter Selinger 2001-2019
</metadata>
<g transform="translate(0.000000,946.000000) scale(0.100000,-0.100000)"
fill="#000000" stroke="none">
<path d="M0 9153 l0 -310 403 -6 c545 -8 760 -27 862 -77 50 -24 108 -78 132
-123 17 -30 18 -234 18 -3907 0 -3673 -1 -3877 -18 -3907 -24 -45 -82 -99
-132 -123 -102 -50 -317 -69 -862 -77 l-403 -6 0 -310 0 -310 127 7 c827 41
3189 41 4016 0 l127 -7 0 310 0 310 -402 6 c-679 10 -839 33 -942 133 -78 75
-71 -55 -74 1404 l-2 1305 719 702 719 702 1178 -1777 c648 -977 1196 -1806
1218 -1842 89 -147 120 -302 77 -395 -24 -53 -103 -125 -171 -157 -108 -51
-266 -77 -467 -78 l-103 0 0 -311 0 -312 138 7 c882 41 2921 41 3555 0 l97 -7
0 310 0 310 -252 6 c-371 9 -583 39 -749 107 -145 59 -298 187 -429 360 -57
75 -3116 4679 -3126 4705 -6 15 2447 2405 2561 2496 421 338 962 518 1643 545
l162 7 0 310 0 309 -72 -6 c-486 -41 -2184 -41 -3010 0 l-128 7 0 -310 0 -310
83 -6 c280 -22 483 -169 503 -366 8 -77 -21 -177 -73 -249 -21 -30 -945 -937
-2053 -2017 l-2015 -1964 -3 2147 c-1 1181 0 2166 3 2188 13 92 106 180 220
208 137 35 492 56 938 56 l257 0 0 311 0 312 -127 -7 c-827 -41 -3189 -41
-4015 0 l-128 7 0 -310z"/>
</g>
</svg>
