<?xml version="1.0" standalone="no"?>
<!DOCTYPE svg PUBLIC "-//W3C//DTD SVG 20010904//EN"
 "http://www.w3.org/TR/2001/REC-SVG-20010904/DTD/svg10.dtd">
<svg version="1.0" xmlns="http://www.w3.org/2000/svg"
 width="554.000000pt" height="923.000000pt" viewBox="0 0 554.000000 923.000000"
 preserveAspectRatio="xMidYMid meet">
<metadata>
Created by potrace 1.16, written by Peter Selinger 2001-2019
</metadata>
<g transform="translate(0.000000,923.000000) scale(0.100000,-0.100000)"
fill="#000000" stroke="none">
<path d="M2315 9219 c-913 -94 -1701 -634 -2081 -1424 -154 -321 -228 -636
-229 -980 0 -223 10 -275 85 -430 94 -196 247 -324 480 -401 80 -26 95 -28
255 -28 160 0 175 2 255 28 233 77 386 205 480 401 61 126 80 201 87 340 23
469 -271 814 -740 867 -56 6 -104 13 -106 14 -6 5 78 164 126 239 141 218 343
419 548 545 332 204 744 268 1171 180 498 -103 909 -432 1159 -930 124 -247
208 -535 247 -850 20 -159 17 -585 -6 -735 -115 -782 -496 -1492 -1320 -2460
-169 -197 -327 -376 -1557 -1752 -626 -699 -1145 -1285 -1153 -1302 -13 -25
-16 -72 -16 -286 l0 -255 2575 0 2574 0 6 33 c3 17 86 592 185 1277 99 685
182 1260 185 1278 l6 32 -275 0 -275 0 -6 -32 c-3 -18 -16 -109 -30 -203 -89
-591 -187 -951 -282 -1037 -41 -37 -269 -54 -922 -68 -273 -6 -937 -10 -1475
-8 l-979 3 729 701 c1024 984 984 946 1529 1419 542 470 834 743 1087 1020
503 548 781 1078 875 1667 27 170 24 581 -5 773 -74 480 -250 907 -524 1273
-92 122 -313 350 -439 452 -420 338 -937 549 -1529 625 -148 19 -566 28 -695
14z"/>
</g>
</svg>
