<?xml version="1.0" standalone="no"?>
<!DOCTYPE svg PUBLIC "-//W3C//DTD SVG 20010904//EN"
 "http://www.w3.org/TR/2001/REC-SVG-20010904/DTD/svg10.dtd">
<svg version="1.0" xmlns="http://www.w3.org/2000/svg"
 width="771.000000pt" height="942.000000pt" viewBox="0 0 771.000000 942.000000"
 preserveAspectRatio="xMidYMid meet">
<metadata>
Created by potrace 1.16, written by Peter Selinger 2001-2019
</metadata>
<g transform="translate(0.000000,942.000000) scale(0.100000,-0.100000)"
fill="#000000" stroke="none">
<path d="M0 9112 l0 -309 403 -6 c545 -8 760 -27 862 -77 50 -24 108 -78 132
-123 17 -30 18 -233 18 -3887 0 -3654 -1 -3857 -18 -3887 -24 -45 -82 -99
-132 -123 -102 -50 -317 -69 -862 -77 l-403 -6 0 -310 0 -310 127 7 c829 41
3341 41 4346 0 l157 -7 0 312 0 311 -332 0 c-550 1 -1011 22 -1170 55 -128 26
-232 98 -263 179 -14 37 -15 455 -13 3896 3 3728 4 3856 22 3897 35 81 84 109
231 136 103 18 1875 17 2070 -1 575 -54 945 -183 1247 -435 285 -239 482 -675
603 -1338 33 -181 82 -520 105 -724 6 -55 13 -117 16 -137 l6 -38 274 0 275 0
-6 43 c-3 23 -86 749 -185 1612 -99 864 -182 1589 -185 1613 l-6 42 -3660 0
-3659 0 0 -308z"/>
</g>
</svg>
