<?xml version="1.0" standalone="no"?>
<!DOCTYPE svg PUBLIC "-//W3C//DTD SVG 20010904//EN"
 "http://www.w3.org/TR/2001/REC-SVG-20010904/DTD/svg10.dtd">
<svg version="1.0" xmlns="http://www.w3.org/2000/svg"
 width="858.000000pt" height="946.000000pt" viewBox="0 0 858.000000 946.000000"
 preserveAspectRatio="xMidYMid meet">
<metadata>
Created by potrace 1.16, written by Peter Selinger 2001-2019
</metadata>
<g transform="translate(0.000000,946.000000) scale(0.100000,-0.100000)"
fill="#000000" stroke="none">
<path d="M0 9202 l0 -259 373 -6 c717 -12 882 -44 981 -190 72 -107 66 263 66
-4017 0 -4280 6 -3910 -66 -4017 -99 -146 -264 -178 -981 -190 l-373 -6 0
-259 0 -258 2823 0 c1869 0 2868 4 2958 10 1027 80 1919 569 2415 1325 327
498 446 1091 328 1624 -35 154 -83 290 -160 450 -186 387 -492 726 -896 994
-422 280 -988 483 -1492 533 l-69 7 144 34 c307 71 514 144 784 278 1190 588
1653 1659 1156 2670 -102 206 -210 365 -366 535 -433 474 -1095 817 -1813 940
-336 58 -125 54 -3089 57 l-2723 3 0 -258z m5401 -290 c146 -33 242 -67 374
-133 779 -385 1166 -1395 874 -2283 -177 -538 -581 -978 -1105 -1203 -220 -94
-423 -143 -674 -163 -69 -5 -587 -10 -1162 -10 l-1038 0 0 1759 c0 1140 4
1777 10 1812 30 159 111 215 345 238 50 5 583 8 1185 7 1089 -2 1096 -2 1191
-24z m134 -4217 c689 -111 1267 -697 1471 -1491 201 -786 27 -1539 -481 -2072
-327 -344 -757 -555 -1227 -603 -67 -6 -489 -9 -1198 -6 -950 3 -1105 6 -1173
20 -139 28 -194 68 -234 168 -17 41 -18 157 -21 2022 l-2 1977 1387 0 c1171 0
1402 -2 1478 -15z"/>
</g>
</svg>
