<?xml version="1.0" standalone="no"?>
<!DOCTYPE svg PUBLIC "-//W3C//DTD SVG 20010904//EN"
 "http://www.w3.org/TR/2001/REC-SVG-20010904/DTD/svg10.dtd">
<svg version="1.0" xmlns="http://www.w3.org/2000/svg"
 width="1174.000000pt" height="946.000000pt" viewBox="0 0 1174.000000 946.000000"
 preserveAspectRatio="xMidYMid meet">
<metadata>
Created by potrace 1.16, written by Peter Selinger 2001-2019
</metadata>
<g transform="translate(0.000000,946.000000) scale(0.100000,-0.100000)"
fill="#000000" stroke="none">
<path d="M0 9202 l0 -259 373 -6 c717 -12 882 -44 981 -190 72 -107 66 245 64
-3862 l-3 -3700 -30 -85 c-60 -173 -183 -312 -353 -398 -228 -116 -463 -166
-844 -179 l-188 -6 0 -260 0 -260 97 7 c633 40 2503 40 3136 0 l97 -7 0 260 0
260 -187 6 c-687 23 -1069 208 -1198 577 l-30 85 -2 3815 c-1 3169 1 3809 12
3780 482 -1280 3314 -8665 3331 -8687 14 -18 46 -45 72 -60 44 -26 55 -28 158
-28 106 0 113 1 159 30 27 17 61 48 76 70 15 22 780 2012 1700 4423 l1674
4382 3 -4017 c2 -4459 8 -4073 -64 -4180 -99 -146 -264 -178 -981 -190 l-373
-6 0 -260 0 -260 123 7 c786 41 3018 41 3805 0 l122 -7 0 260 0 260 -372 6
c-718 12 -883 44 -982 190 -72 107 -66 -263 -66 4017 0 4280 -6 3910 66 4017
99 146 264 178 982 190 l372 6 0 259 0 258 -1351 0 c-1032 0 -1361 -3 -1393
-12 -26 -8 -59 -31 -91 -63 l-50 -50 -1484 -3888 c-817 -2138 -1488 -3887
-1491 -3887 -3 0 -674 1749 -1491 3887 l-1484 3888 -50 50 c-32 32 -65 55 -91
63 -32 9 -362 12 -1398 12 l-1356 0 0 -258z"/>
</g>
</svg>
