<?xml version="1.0" standalone="no"?>
<!DOCTYPE svg PUBLIC "-//W3C//DTD SVG 20010904//EN"
 "http://www.w3.org/TR/2001/REC-SVG-20010904/DTD/svg10.dtd">
<svg version="1.0" xmlns="http://www.w3.org/2000/svg"
 width="442.000000pt" height="127.000000pt" viewBox="0 0 442.000000 127.000000"
 preserveAspectRatio="xMidYMid meet">
<metadata>
Created by potrace 1.16, written by Peter Selinger 2001-2019
</metadata>
<g transform="translate(0.000000,127.000000) scale(0.100000,-0.100000)"
fill="#000000" stroke="none">
<path d="M1247 1254 c-216 -39 -438 -165 -664 -379 -51 -47 -192 -202 -314
-343 -122 -141 -233 -269 -246 -283 l-24 -26 128 -111 128 -110 98 103 c229
243 471 405 692 465 112 31 301 38 417 16 180 -34 346 -104 673 -281 344 -187
513 -257 699 -290 279 -48 547 27 818 230 137 103 256 223 489 493 122 141
233 269 246 283 l24 26 -128 111 -128 110 -98 -103 c-229 -243 -471 -405 -692
-465 -112 -31 -301 -38 -417 -16 -180 34 -346 104 -673 281 -250 136 -378 197
-508 240 -189 63 -355 79 -520 49z"/>
</g>
</svg>
