<?xml version="1.0" standalone="no"?>
<!DOCTYPE svg PUBLIC "-//W3C//DTD SVG 20010904//EN"
 "http://www.w3.org/TR/2001/REC-SVG-20010904/DTD/svg10.dtd">
<svg version="1.0" xmlns="http://www.w3.org/2000/svg"
 width="845.000000pt" height="946.000000pt" viewBox="0 0 845.000000 946.000000"
 preserveAspectRatio="xMidYMid meet">
<metadata>
Created by potrace 1.16, written by Peter Selinger 2001-2019
</metadata>
<g transform="translate(0.000000,946.000000) scale(0.100000,-0.100000)"
fill="#000000" stroke="none">
<path d="M1770 9153 l0 -310 508 -6 c868 -10 1068 -34 1189 -141 87 -76 83
-41 83 -713 l0 -592 -32 -5 c-18 -2 -106 -14 -196 -25 -1152 -148 -2206 -650
-2793 -1329 -273 -317 -436 -643 -506 -1017 -24 -125 -24 -445 0 -570 55 -291
145 -510 318 -769 536 -804 1681 -1410 2981 -1577 90 -11 178 -23 196 -25 l32
-5 0 -592 c0 -672 4 -637 -83 -713 -121 -107 -321 -131 -1189 -141 l-508 -6 0
-310 0 -310 153 7 c971 41 3633 41 4605 0 l152 -7 0 310 0 310 -507 6 c-869
10 -1069 34 -1190 141 -87 76 -83 41 -83 713 l0 593 23 4 c12 2 96 13 188 25
1150 144 2212 649 2800 1329 273 317 436 643 506 1017 24 125 24 445 0 570
-70 374 -233 700 -506 1017 -588 680 -1650 1185 -2800 1329 -92 12 -176 23
-188 25 l-23 4 0 593 c0 672 -4 637 83 713 121 107 321 131 1190 141 l507 6 0
310 0 310 -152 -7 c-473 -20 -1258 -30 -2303 -30 -1045 0 -1830 10 -2302 30
l-153 7 0 -310z m1780 -4423 c0 -1842 -2 -2140 -14 -2140 -8 0 -79 11 -158 24
-339 58 -647 161 -893 298 -535 300 -789 701 -882 1395 -24 181 -24 665 0 846
72 535 254 920 553 1168 268 223 577 374 959 470 115 29 365 77 413 78 l22 1
0 -2140z m1512 2116 c339 -58 647 -161 893 -298 535 -300 789 -701 882 -1395
24 -181 24 -665 0 -846 -72 -535 -254 -920 -553 -1168 -327 -271 -719 -439
-1222 -525 -79 -13 -148 -24 -153 -24 -5 0 -9 843 -9 2140 0 1297 4 2140 9
2140 5 0 74 -11 153 -24z"/>
</g>
</svg>
