<?xml version="1.0" standalone="no"?>
<!DOCTYPE svg PUBLIC "-//W3C//DTD SVG 20010904//EN"
 "http://www.w3.org/TR/2001/REC-SVG-20010904/DTD/svg10.dtd">
<svg version="1.0" xmlns="http://www.w3.org/2000/svg"
 width="1000.000000pt" height="634.000000pt" viewBox="0 0 1000.000000 634.000000"
 preserveAspectRatio="xMidYMid meet">
<metadata>
Created by potrace 1.16, written by Peter Selinger 2001-2019
</metadata>
<g transform="translate(0.000000,634.000000) scale(0.100000,-0.100000)"
fill="#000000" stroke="none">
<path d="M2740 6329 c-561 -56 -1105 -279 -1560 -640 -133 -105 -361 -333
-468 -467 -410 -513 -646 -1118 -703 -1797 -14 -169 -6 -502 16 -665 80 -587
290 -1104 637 -1569 119 -159 401 -448 548 -561 424 -327 899 -529 1425 -607
163 -24 581 -24 738 0 615 94 1161 363 1601 787 126 121 254 267 345 393 35
48 65 86 66 85 2 -2 37 -47 78 -101 175 -230 370 -424 597 -596 400 -302 860
-493 1365 -567 149 -22 438 -29 578 -15 846 88 1564 649 1890 1476 45 116 97
294 97 335 0 46 -36 104 -80 129 -34 19 -53 21 -195 21 -223 0 -243 -13 -292
-192 -102 -373 -326 -733 -588 -944 -260 -210 -517 -296 -845 -281 -455 21
-873 179 -1215 457 -84 69 -243 232 -306 315 -340 444 -508 1057 -509 1848 l0
167 1956 0 1956 0 38 21 c21 12 48 39 60 62 23 39 23 45 17 246 -25 793 -221
1413 -597 1886 -321 404 -824 674 -1412 760 -150 22 -439 30 -588 16 -509 -49
-1013 -258 -1430 -594 -188 -151 -392 -369 -542 -578 l-55 -76 -24 36 c-56 82
-211 264 -314 366 -445 445 -1012 734 -1618 826 -154 24 -516 33 -667 18z
m435 -509 c214 -24 369 -70 560 -165 450 -224 771 -628 926 -1166 93 -323 139
-737 139 -1253 0 -1000 -153 -1617 -519 -2086 -244 -313 -601 -536 -984 -612
-146 -29 -414 -31 -552 -5 -673 131 -1168 646 -1356 1412 -47 193 -77 386
-101 665 -17 197 -17 1036 0 1230 44 500 136 844 303 1141 326 577 952 909
1584 839z m4659 -19 c238 -63 461 -221 615 -437 116 -164 229 -421 296 -675
58 -221 115 -621 115 -806 l0 -53 -1438 0 -1438 0 8 83 c23 246 82 531 154
741 71 207 208 455 342 619 134 164 358 340 542 425 132 61 297 108 440 126
83 10 286 -3 364 -23z"/>
</g>
</svg>
