<?xml version="1.0" standalone="no"?>
<!DOCTYPE svg PUBLIC "-//W3C//DTD SVG 20010904//EN"
 "http://www.w3.org/TR/2001/REC-SVG-20010904/DTD/svg10.dtd">
<svg version="1.0" xmlns="http://www.w3.org/2000/svg"
 width="865.000000pt" height="610.000000pt" viewBox="0 0 865.000000 610.000000"
 preserveAspectRatio="xMidYMid meet">
<metadata>
Created by potrace 1.16, written by Peter Selinger 2001-2019
</metadata>
<g transform="translate(0.000000,610.000000) scale(0.100000,-0.100000)"
fill="#000000" stroke="none">
<path d="M2095 6089 c-388 -34 -780 -150 -1066 -316 -432 -250 -679 -640 -679
-1073 0 -185 63 -345 181 -461 240 -237 658 -237 898 0 242 238 241 668 -1
904 -88 85 -193 138 -327 165 l-95 19 60 47 c226 179 534 299 915 357 193 29
505 32 625 7 263 -57 467 -170 664 -368 229 -228 379 -518 441 -851 19 -103
22 -159 26 -566 l5 -451 -54 -6 c-29 -3 -125 -8 -213 -11 -909 -33 -1726 -216
-2355 -529 -252 -125 -456 -272 -642 -465 -245 -252 -385 -507 -454 -831 -14
-65 -18 -127 -18 -265 0 -161 3 -190 26 -276 37 -135 81 -236 151 -342 265
-405 799 -668 1537 -759 65 -8 213 -13 390 -12 237 0 309 4 427 22 806 121
1445 496 1772 1040 l49 81 83 -102 c390 -479 925 -824 1499 -967 722 -179
1355 -57 1895 365 91 72 309 291 377 380 177 233 320 519 398 794 35 126 36
171 1 219 -30 43 -78 62 -156 62 -76 0 -126 -19 -154 -59 -10 -14 -31 -71 -46
-126 -52 -193 -151 -409 -264 -580 -259 -393 -623 -645 -1056 -732 -137 -27
-413 -24 -563 5 -622 124 -1141 563 -1411 1193 -166 388 -244 798 -258 1357
l-6 252 1912 0 c2119 0 1955 -5 2004 64 19 26 23 47 26 136 9 279 -43 716
-119 1005 -252 955 -856 1519 -1780 1662 -178 27 -531 24 -709 -6 -406 -69
-763 -224 -1109 -483 -94 -70 -377 -343 -459 -441 l-40 -48 -63 88 c-36 48
-107 133 -160 187 -388 403 -953 661 -1570 716 -134 12 -392 11 -535 -1z
m4532 -358 c196 -50 363 -148 514 -300 328 -330 515 -891 559 -1681 5 -102 10
-193 10 -202 0 -17 -78 -18 -1496 -18 l-1497 0 7 100 c9 137 49 400 81 544 85
380 229 697 437 968 257 333 621 556 990 608 103 14 302 5 395 -19z m-2887
-2693 c0 -265 42 -575 107 -805 34 -118 37 -140 41 -289 6 -259 -39 -466 -149
-687 -76 -154 -161 -269 -299 -408 -283 -285 -640 -452 -1062 -498 -203 -23
-385 -6 -550 49 -370 124 -640 413 -724 775 -25 107 -25 343 0 469 57 288 187
534 401 755 156 161 271 246 488 361 404 212 913 344 1502 389 77 6 156 13
175 15 19 1 43 4 53 4 15 2 17 -10 17 -130z"/>
</g>
</svg>
