<?xml version="1.0" standalone="no"?>
<!DOCTYPE svg PUBLIC "-//W3C//DTD SVG 20010904//EN"
 "http://www.w3.org/TR/2001/REC-SVG-20010904/DTD/svg10.dtd">
<svg version="1.0" xmlns="http://www.w3.org/2000/svg"
 width="668.000000pt" height="937.000000pt" viewBox="0 0 668.000000 937.000000"
 preserveAspectRatio="xMidYMid meet">
<metadata>
Created by potrace 1.16, written by Peter Selinger 2001-2019
</metadata>
<g transform="translate(0.000000,937.000000) scale(0.100000,-0.100000)"
fill="#000000" stroke="none">
<path d="M3625 9360 c-496 -40 -942 -160 -1346 -362 -375 -187 -686 -433 -891
-706 -168 -223 -260 -415 -326 -682 l-26 -105 -3 -892 -4 -893 -509 0 -510 0
0 -225 0 -225 510 0 510 0 0 -2227 c0 -2384 1 -2303 -48 -2399 -27 -52 -77
-99 -133 -123 -96 -43 -365 -71 -681 -71 l-168 0 0 -226 0 -226 93 6 c584 39
2210 39 2795 0 l92 -6 0 226 0 226 -167 0 c-317 0 -586 28 -682 71 -56 24
-106 71 -133 123 -49 96 -48 15 -48 2399 l0 2227 1385 0 1385 0 0 -2227 c0
-2384 1 -2303 -48 -2399 -27 -52 -77 -99 -133 -123 -96 -43 -365 -71 -681 -71
l-168 0 0 -226 0 -226 93 6 c584 39 2210 39 2795 0 l92 -6 0 226 0 226 -167 0
c-317 0 -586 28 -682 71 -56 24 -106 71 -133 123 -50 98 -48 -136 -48 4374 l0
4203 -32 -6 c-18 -3 -136 -23 -263 -43 l-230 -37 -65 32 c-148 73 -425 148
-660 178 -147 19 -600 28 -765 15z m655 -350 c113 -13 249 -35 343 -57 l68
-15 -47 -30 c-108 -68 -199 -194 -240 -333 -25 -82 -25 -258 0 -340 44 -147
144 -280 261 -346 l55 -31 0 -1069 0 -1069 -1405 0 -1406 0 3 883 c3 872 4
883 26 990 161 765 836 1332 1697 1426 108 12 512 6 645 -9z"/>
</g>
</svg>
