<?xml version="1.0" standalone="no"?>
<!DOCTYPE svg PUBLIC "-//W3C//DTD SVG 20010904//EN"
 "http://www.w3.org/TR/2001/REC-SVG-20010904/DTD/svg10.dtd">
<svg version="1.0" xmlns="http://www.w3.org/2000/svg"
 width="436.000000pt" height="249.000000pt" viewBox="0 0 436.000000 249.000000"
 preserveAspectRatio="xMidYMid meet">
<metadata>
Created by potrace 1.16, written by Peter Selinger 2001-2019
</metadata>
<g transform="translate(0.000000,249.000000) scale(0.100000,-0.100000)"
fill="#000000" stroke="none">
<path d="M3 2360 c36 -700 306 -1325 768 -1776 493 -480 1141 -675 1804 -543
690 138 1293 681 1583 1425 112 290 172 574 189 894 l6 130 -255 0 -255 0 -7
-109 c-26 -439 -202 -843 -500 -1150 -369 -379 -859 -553 -1368 -486 -794 105
-1403 790 -1454 1636 l-7 109 -255 0 -255 0 6 -130z"/>
</g>
</svg>
