<?xml version="1.0" standalone="no"?>
<!DOCTYPE svg PUBLIC "-//W3C//DTD SVG 20010904//EN"
 "http://www.w3.org/TR/2001/REC-SVG-20010904/DTD/svg10.dtd">
<svg version="1.0" xmlns="http://www.w3.org/2000/svg"
 width="904.000000pt" height="968.000000pt" viewBox="0 0 904.000000 968.000000"
 preserveAspectRatio="xMidYMid meet">
<metadata>
Created by potrace 1.16, written by Peter Selinger 2001-2019
</metadata>
<g transform="translate(0.000000,968.000000) scale(0.100000,-0.100000)"
fill="#000000" stroke="none">
<path d="M4330 9670 c-460 -37 -914 -143 -1344 -313 -175 -69 -509 -235 -676
-337 -748 -454 -1360 -1115 -1759 -1900 -131 -257 -208 -441 -291 -690 -118
-354 -195 -708 -237 -1090 -25 -233 -25 -767 0 -1000 146 -1340 780 -2523
1782 -3325 285 -228 521 -378 845 -539 676 -335 1377 -492 2110 -473 471 13
873 90 1265 244 426 167 759 402 984 693 39 50 80 109 93 131 12 21 24 39 27
39 3 0 22 -24 41 -53 70 -104 198 -254 312 -368 106 -105 324 -294 411 -356
68 -49 154 -38 194 24 17 25 18 113 23 1428 5 1345 6 1402 24 1450 47 122 110
171 259 200 106 20 312 35 490 35 l147 0 0 226 0 227 -97 -7 c-613 -39 -2648
-39 -3555 0 l-148 7 0 -227 0 -226 268 0 c293 0 678 -14 842 -30 320 -32 437
-88 514 -250 l31 -65 3 -647 c3 -692 -1 -759 -49 -920 -141 -473 -618 -863
-1254 -1023 -238 -60 -407 -79 -685 -79 -446 0 -823 71 -1225 231 -449 179
-824 429 -1165 779 -258 265 -437 517 -605 854 -268 535 -414 1132 -477 1940
-17 216 -17 952 0 1170 61 789 199 1373 451 1905 356 751 979 1347 1729 1654
279 114 533 179 872 223 127 16 521 16 635 0 461 -65 858 -237 1225 -528 114
-91 346 -325 446 -449 469 -586 770 -1345 864 -2180 22 -188 41 -205 235 -205
111 0 135 3 162 20 68 41 63 -111 63 1895 0 2006 5 1854 -63 1895 -40 25 -135
27 -181 5 -25 -12 -119 -139 -420 -569 l-388 -554 -89 97 c-140 151 -350 335
-534 467 -392 281 -860 470 -1350 544 -159 24 -570 35 -755 20z"/>
</g>
</svg>
