<?xml version="1.0" standalone="no"?>
<!DOCTYPE svg PUBLIC "-//W3C//DTD SVG 20010904//EN"
 "http://www.w3.org/TR/2001/REC-SVG-20010904/DTD/svg10.dtd">
<svg version="1.0" xmlns="http://www.w3.org/2000/svg"
 width="678.000000pt" height="611.000000pt" viewBox="0 0 678.000000 611.000000"
 preserveAspectRatio="xMidYMid meet">
<metadata>
Created by potrace 1.16, written by Peter Selinger 2001-2019
</metadata>
<g transform="translate(0.000000,611.000000) scale(0.100000,-0.100000)"
fill="#000000" stroke="none">
<path d="M0 5801 l0 -311 178 0 c222 0 471 -15 582 -36 138 -25 223 -79 290
-184 16 -25 470 -1192 1010 -2595 540 -1403 993 -2565 1006 -2582 14 -18 46
-45 72 -60 l47 -28 200 0 200 0 47 28 c26 15 58 42 72 60 13 17 432 1092 931
2387 498 1295 922 2387 942 2425 99 196 276 364 478 455 159 71 362 115 586
127 l129 6 0 310 0 310 -67 -7 c-448 -41 -1756 -41 -2300 0 l-83 6 0 -309 0
-310 79 -7 c280 -23 488 -161 552 -367 23 -74 25 -196 4 -265 -31 -104 -1260
-3283 -1267 -3276 -3 4 -320 820 -702 1814 -511 1327 -696 1818 -696 1848 0
159 236 249 658 250 l112 0 0 311 0 312 -97 -7 c-637 -41 -2299 -41 -2875 0
l-88 7 0 -312z"/>
</g>
</svg>
