<?xml version="1.0" standalone="no"?>
<!DOCTYPE svg PUBLIC "-//W3C//DTD SVG 20010904//EN"
 "http://www.w3.org/TR/2001/REC-SVG-20010904/DTD/svg10.dtd">
<svg version="1.0" xmlns="http://www.w3.org/2000/svg"
 width="659.000000pt" height="937.000000pt" viewBox="0 0 659.000000 937.000000"
 preserveAspectRatio="xMidYMid meet">
<metadata>
Created by potrace 1.16, written by Peter Selinger 2001-2019
</metadata>
<g transform="translate(0.000000,937.000000) scale(0.100000,-0.100000)"
fill="#000000" stroke="none">
<path d="M4555 9294 c-511 -40 -936 -73 -942 -73 -10 -1 -13 -53 -13 -224 l0
-224 218 -6 c562 -15 720 -90 790 -375 15 -60 17 -221 19 -1610 l4 -1544 -118
119 c-195 196 -369 321 -608 439 -338 166 -661 234 -1050 221 -1082 -37 -2053
-669 -2535 -1652 -131 -267 -206 -484 -260 -755 -46 -231 -55 -332 -54 -615 0
-279 12 -398 60 -635 163 -794 616 -1476 1269 -1912 151 -101 441 -244 610
-301 152 -52 347 -100 495 -122 148 -22 430 -30 575 -16 435 42 854 210 1200
481 107 84 264 231 334 314 l41 49 0 -428 0 -427 63 6 c34 3 454 35 932 71
479 35 898 67 933 71 l62 6 0 222 0 223 -217 6 c-563 15 -720 90 -791 375 -15
62 -17 394 -19 4230 l-3 4162 -33 -1 c-17 -1 -450 -34 -962 -75z m-1245 -3640
c508 -89 952 -414 1229 -899 l51 -89 0 -1583 0 -1583 -36 -72 c-238 -472 -652
-841 -1120 -998 -183 -61 -324 -83 -539 -84 -269 -1 -436 38 -670 154 -567
282 -926 865 -1029 1670 -34 262 -41 409 -40 830 0 552 28 843 113 1179 211
831 806 1395 1571 1490 104 13 356 5 470 -15z"/>
</g>
</svg>
