<?xml version="1.0" standalone="no"?>
<!DOCTYPE svg PUBLIC "-//W3C//DTD SVG 20010904//EN"
 "http://www.w3.org/TR/2001/REC-SVG-20010904/DTD/svg10.dtd">
<svg version="1.0" xmlns="http://www.w3.org/2000/svg"
 width="974.000000pt" height="946.000000pt" viewBox="0 0 974.000000 946.000000"
 preserveAspectRatio="xMidYMid meet">
<metadata>
Created by potrace 1.16, written by Peter Selinger 2001-2019
</metadata>
<g transform="translate(0.000000,946.000000) scale(0.100000,-0.100000)"
fill="#000000" stroke="none">
<path d="M190 9151 l0 -311 248 0 c301 0 636 -15 796 -35 200 -26 308 -74 414
-184 51 -53 303 -439 1276 -1962 667 -1043 1223 -1913 1235 -1932 l22 -36
-1107 -1698 c-609 -934 -1126 -1723 -1150 -1754 -58 -75 -185 -194 -271 -251
-338 -227 -802 -344 -1448 -365 l-205 -6 0 -310 0 -310 97 7 c637 41 2562 41
3326 0 l117 -7 0 312 0 311 -44 0 c-64 0 -189 18 -277 41 -158 39 -308 120
-409 219 -76 75 -117 149 -132 242 -9 54 -8 71 9 118 12 36 338 545 937 1463
505 774 921 1407 925 1407 8 0 2042 -3179 2055 -3212 8 -23 7 -33 -10 -55 -75
-102 -536 -223 -845 -223 l-59 0 0 -311 0 -312 133 7 c852 41 3099 41 3800 0
l107 -7 0 310 0 310 -387 6 c-481 8 -690 24 -818 64 -86 27 -187 86 -245 143
-44 43 -369 544 -1488 2294 l-1432 2238 916 1407 c505 773 939 1434 966 1468
175 221 474 392 865 493 237 62 506 96 837 107 l206 6 0 310 0 310 -97 -7
c-637 -41 -2557 -41 -3315 0 l-118 7 0 -310 0 -310 93 -7 c252 -19 471 -106
622 -248 116 -108 170 -260 132 -371 -8 -24 -342 -546 -743 -1160 -566 -869
-731 -1114 -740 -1105 -17 20 -1660 2590 -1667 2611 -19 50 39 99 181 152 181
68 388 110 610 121 l122 7 0 310 0 310 -132 -7 c-856 -41 -3028 -41 -3790 0
l-118 7 0 -312z"/>
</g>
</svg>
