<?xml version="1.0" standalone="no"?>
<!DOCTYPE svg PUBLIC "-//W3C//DTD SVG 20010904//EN"
 "http://www.w3.org/TR/2001/REC-SVG-20010904/DTD/svg10.dtd">
<svg version="1.0" xmlns="http://www.w3.org/2000/svg"
 width="845.000000pt" height="1008.000000pt" viewBox="0 0 845.000000 1008.000000"
 preserveAspectRatio="xMidYMid meet">
<metadata>
Created by potrace 1.16, written by Peter Selinger 2001-2019
</metadata>
<g transform="translate(0.000000,1008.000000) scale(0.100000,-0.100000)"
fill="#000000" stroke="none">
<path d="M4505 10069 c-1456 -110 -2794 -898 -3630 -2139 -248 -368 -468 -818
-609 -1244 -123 -371 -195 -711 -243 -1136 -24 -219 -24 -801 0 -1020 76 -676
235 -1231 518 -1800 250 -502 524 -889 907 -1282 833 -852 1916 -1356 3097
-1439 204 -14 547 -7 725 16 679 86 1320 367 1855 813 137 115 368 352 487
501 507 633 797 1412 824 2216 7 193 -1 222 -67 257 -49 26 -259 26 -308 0
-58 -31 -67 -61 -74 -241 -30 -706 -254 -1351 -657 -1886 -484 -644 -1135
-1035 -1900 -1142 -174 -24 -562 -24 -755 1 -587 74 -1116 278 -1575 606 -651
466 -1102 1124 -1344 1962 -214 741 -288 1750 -201 2738 120 1350 577 2320
1405 2979 456 364 1004 602 1587 691 798 120 1437 -40 2023 -507 118 -94 340
-318 441 -444 184 -231 302 -417 443 -699 235 -472 375 -950 450 -1539 33
-258 37 -261 278 -261 174 0 207 10 240 71 17 32 18 113 18 1934 0 1821 -1
1902 -18 1934 -27 50 -73 71 -157 71 -50 0 -78 -5 -100 -19 -19 -11 -180 -225
-429 -572 -219 -305 -403 -558 -407 -563 -5 -6 -52 35 -115 102 -572 605
-1319 974 -2109 1042 -138 11 -439 11 -600 -1z"/>
</g>
</svg>
