<?xml version="1.0" standalone="no"?>
<!DOCTYPE svg PUBLIC "-//W3C//DTD SVG 20010904//EN"
 "http://www.w3.org/TR/2001/REC-SVG-20010904/DTD/svg10.dtd">
<svg version="1.0" xmlns="http://www.w3.org/2000/svg"
 width="1097.000000pt" height="976.000000pt" viewBox="0 0 1097.000000 976.000000"
 preserveAspectRatio="xMidYMid meet">
<metadata>
Created by potrace 1.16, written by Peter Selinger 2001-2019
</metadata>
<g transform="translate(0.000000,976.000000) scale(0.100000,-0.100000)"
fill="#000000" stroke="none">
<path d="M4065 9749 c-844 -63 -1579 -318 -2155 -747 -133 -99 -369 -331 -457
-447 -176 -235 -281 -456 -346 -730 -20 -87 -21 -115 -24 -977 l-4 -888 -494
0 -495 0 0 -310 0 -310 495 0 495 0 -2 -2247 -3 -2248 -31 -55 c-74 -131 -181
-156 -731 -167 l-313 -6 0 -310 0 -310 98 7 c638 41 2446 41 3085 0 l97 -7 0
310 0 310 -312 6 c-551 11 -658 36 -732 167 l-31 55 -3 2248 -2 2247 1360 0
1360 0 -2 -2247 -3 -2248 -31 -55 c-74 -131 -181 -156 -731 -167 l-313 -6 0
-310 0 -310 98 7 c638 41 2446 41 3085 0 l97 -7 0 310 0 310 -312 6 c-551 11
-658 36 -732 167 l-31 55 -3 2248 -2 2247 1101 0 c1071 0 1104 -1 1202 -21
240 -48 344 -144 395 -361 16 -68 17 -221 17 -2093 l0 -2020 -31 -55 c-74
-131 -181 -156 -731 -167 l-313 -6 0 -310 0 -310 98 7 c638 41 2446 41 3085 0
l97 -7 0 310 0 310 -312 6 c-551 11 -658 36 -732 167 l-31 55 -3 2643 -2 2644
-73 -7 c-39 -3 -533 -37 -1097 -75 -605 -42 -1026 -74 -1028 -80 -3 -7 -296
-10 -843 -10 l-840 0 4 878 c3 770 6 887 20 959 151 742 805 1305 1662 1429
450 65 867 -10 1182 -212 l58 -37 -52 -18 c-226 -77 -396 -257 -460 -489 -25
-93 -25 -320 1 -410 72 -253 249 -429 501 -502 114 -33 306 -33 420 0 252 73
428 249 501 502 26 90 26 348 1 470 -124 581 -540 1017 -1122 1175 -195 54
-419 67 -760 45 -803 -52 -1530 -286 -2098 -676 -43 -30 -80 -54 -82 -54 -3 0
-28 35 -56 78 -72 108 -281 313 -398 391 -171 113 -370 197 -578 242 -80 17
-140 21 -328 24 -126 2 -284 -1 -350 -6z m302 -514 c242 -32 433 -99 621 -217
l63 -40 -63 -22 c-230 -81 -382 -244 -450 -483 -32 -112 -32 -305 0 -417 52
-181 168 -335 315 -420 l67 -39 0 -818 0 -819 -1380 0 -1380 0 0 828 c0 893 3
947 54 1135 162 593 693 1082 1360 1252 112 28 275 56 406 68 95 10 281 5 387
-8z"/>
</g>
</svg>
