<?xml version="1.0" standalone="no"?>
<!DOCTYPE svg PUBLIC "-//W3C//DTD SVG 20010904//EN"
 "http://www.w3.org/TR/2001/REC-SVG-20010904/DTD/svg10.dtd">
<svg version="1.0" xmlns="http://www.w3.org/2000/svg"
 width="912.000000pt" height="904.000000pt" viewBox="0 0 912.000000 904.000000"
 preserveAspectRatio="xMidYMid meet">
<metadata>
Created by potrace 1.16, written by Peter Selinger 2001-2019
</metadata>
<g transform="translate(0.000000,904.000000) scale(0.100000,-0.100000)"
fill="#000000" stroke="none">
<path d="M0 8817 l0 -224 343 -6 c619 -11 822 -45 915 -152 42 -47 77 -118 91
-183 16 -76 16 -7388 0 -7464 -14 -65 -49 -136 -91 -183 -93 -107 -296 -141
-915 -152 l-343 -6 0 -225 0 -224 123 6 c762 39 2932 39 3695 0 l122 -6 0 224
0 225 -342 6 c-620 11 -823 45 -916 152 -42 47 -77 118 -91 183 -8 39 -11
1097 -11 3927 l0 3875 1975 0 1975 0 0 -3875 c0 -2830 -3 -3888 -11 -3927 -14
-65 -49 -136 -91 -183 -93 -107 -296 -141 -915 -152 l-343 -6 0 -225 0 -224
123 6 c762 39 2932 39 3695 0 l122 -6 0 224 0 225 -342 6 c-620 11 -823 45
-916 152 -42 47 -77 118 -91 183 -16 76 -16 7388 0 7464 14 65 49 136 91 183
93 107 296 141 916 152 l342 6 0 224 0 223 -4555 0 -4555 0 0 -223z"/>
</g>
</svg>
