<?xml version="1.0" standalone="no"?>
<!DOCTYPE svg PUBLIC "-//W3C//DTD SVG 20010904//EN"
 "http://www.w3.org/TR/2001/REC-SVG-20010904/DTD/svg10.dtd">
<svg version="1.0" xmlns="http://www.w3.org/2000/svg"
 width="554.000000pt" height="954.000000pt" viewBox="0 0 554.000000 954.000000"
 preserveAspectRatio="xMidYMid meet">
<metadata>
Created by potrace 1.16, written by Peter Selinger 2001-2019
</metadata>
<g transform="translate(0.000000,954.000000) scale(0.100000,-0.100000)"
fill="#000000" stroke="none">
<path d="M679 9517 c-19 -12 -42 -38 -52 -57 -16 -33 -17 -165 -15 -2432 l3
-2397 21 -27 c48 -65 61 -69 237 -72 98 -2 176 1 199 7 43 13 72 46 141 163
277 466 719 781 1232 877 530 99 858 15 1162 -297 286 -295 417 -670 475
-1367 17 -209 17 -1322 0 -1505 -39 -412 -102 -681 -216 -924 -290 -618 -917
-967 -1606 -896 -652 68 -1211 456 -1509 1048 l-41 82 89 0 c285 0 564 169
680 414 59 122 76 206 76 366 -1 171 -14 230 -83 370 -38 79 -60 109 -131 180
-99 98 -190 152 -336 196 -79 24 -107 27 -225 27 -118 0 -146 -3 -225 -27
-146 -44 -237 -98 -336 -196 -71 -71 -93 -101 -131 -180 -61 -124 -78 -190
-85 -335 -26 -536 190 -1170 555 -1624 327 -408 790 -706 1296 -836 227 -58
330 -70 611 -70 296 1 456 21 730 90 233 59 397 120 620 230 318 157 567 336
820 590 473 474 776 1092 872 1776 21 155 25 610 5 769 -72 588 -269 1112
-582 1550 -365 511 -880 880 -1442 1034 -238 65 -353 80 -623 80 -269 1 -385
-12 -610 -69 -298 -75 -583 -214 -823 -400 -53 -41 -121 -96 -149 -121 l-53
-47 0 1203 0 1202 23 -6 c66 -18 317 -67 412 -80 278 -38 660 -45 910 -16 890
102 1716 528 2291 1180 127 144 124 137 124 315 0 171 -10 204 -71 237 -48 26
-80 23 -172 -18 -472 -208 -943 -333 -1477 -391 -225 -24 -719 -24 -940 0
-530 59 -986 178 -1451 381 -121 52 -152 56 -200 23z"/>
</g>
</svg>
