<?xml version="1.0" standalone="no"?>
<!DOCTYPE svg PUBLIC "-//W3C//DTD SVG 20010904//EN"
 "http://www.w3.org/TR/2001/REC-SVG-20010904/DTD/svg10.dtd">
<svg version="1.0" xmlns="http://www.w3.org/2000/svg"
 width="912.000000pt" height="938.000000pt" viewBox="0 0 912.000000 938.000000"
 preserveAspectRatio="xMidYMid meet">
<metadata>
Created by potrace 1.16, written by Peter Selinger 2001-2019
</metadata>
<g transform="translate(0.000000,938.000000) scale(0.100000,-0.100000)"
fill="#000000" stroke="none">
<path d="M0 9158 l0 -225 343 -6 c619 -11 822 -45 915 -152 32 -36 66 -94 86
-150 8 -21 12 -815 16 -2815 6 -3064 1 -2823 66 -3138 247 -1207 1167 -2192
2366 -2536 329 -95 578 -129 933 -130 279 -1 387 10 613 60 819 182 1544 747
1980 1540 196 357 339 791 396 1199 8 61 18 128 22 150 4 22 9 1224 13 2670
l6 2630 23 70 c43 128 90 204 182 295 66 66 105 95 175 131 220 114 437 162
798 175 l177 7 0 225 0 225 -97 -7 c-614 -39 -2362 -39 -2975 0 l-98 7 0 -225
0 -225 178 -7 c360 -13 577 -61 797 -175 70 -36 109 -65 175 -131 94 -94 142
-172 182 -300 l23 -75 0 -2590 c0 -2873 4 -2667 -65 -3015 -234 -1173 -1058
-2004 -2149 -2167 -173 -26 -516 -23 -671 5 -672 123 -1226 545 -1520 1157
-174 364 -267 775 -300 1330 -15 250 -14 5557 1 5627 14 65 49 136 91 183 93
107 296 141 916 152 l342 6 0 225 0 224 -122 -6 c-359 -18 -1042 -29 -1848
-29 -806 0 -1489 11 -1847 29 l-123 6 0 -224z"/>
</g>
</svg>
