<?xml version="1.0" standalone="no"?>
<!DOCTYPE svg PUBLIC "-//W3C//DTD SVG 20010904//EN"
 "http://www.w3.org/TR/2001/REC-SVG-20010904/DTD/svg10.dtd">
<svg version="1.0" xmlns="http://www.w3.org/2000/svg"
 width="167.000000pt" height="992.000000pt" viewBox="0 0 167.000000 992.000000"
 preserveAspectRatio="xMidYMid meet">
<metadata>
Created by potrace 1.16, written by Peter Selinger 2001-2019
</metadata>
<g transform="translate(0.000000,992.000000) scale(0.100000,-0.100000)"
fill="#000000" stroke="none">
<path d="M650 9901 c-196 -42 -369 -147 -486 -294 -106 -135 -164 -297 -164
-456 0 -47 126 -1488 278 -3202 307 -3432 277 -3164 352 -3201 29 -15 63 -18
200 -18 181 0 214 8 253 61 17 24 47 345 298 3150 153 1718 279 3163 279 3210
0 159 -58 321 -164 456 -190 242 -530 360 -846 294z"/>
<path d="M710 1654 c-211 -41 -400 -149 -520 -297 -64 -79 -133 -211 -162
-313 -33 -113 -33 -315 0 -428 66 -230 215 -413 423 -521 135 -70 219 -90 379
-90 160 0 244 20 379 90 208 108 357 291 423 521 33 113 33 315 0 428 -47 164
-152 327 -275 426 -78 63 -210 132 -307 160 -74 21 -279 36 -340 24z"/>
</g>
</svg>
