<?xml version="1.0" standalone="no"?>
<!DOCTYPE svg PUBLIC "-//W3C//DTD SVG 20010904//EN"
 "http://www.w3.org/TR/2001/REC-SVG-20010904/DTD/svg10.dtd">
<svg version="1.0" xmlns="http://www.w3.org/2000/svg"
 width="418.000000pt" height="148.000000pt" viewBox="0 0 418.000000 148.000000"
 preserveAspectRatio="xMidYMid meet">
<metadata>
Created by potrace 1.16, written by Peter Selinger 2001-2019
</metadata>
<g transform="translate(0.000000,148.000000) scale(0.100000,-0.100000)"
fill="#000000" stroke="none">
<path d="M611 1469 c-252 -49 -462 -222 -558 -459 -85 -212 -64 -449 58 -658
54 -90 180 -210 274 -259 233 -120 455 -124 685 -11 91 44 116 63 190 137 98
99 140 165 183 288 30 83 32 96 32 233 0 137 -2 150 -32 233 -43 123 -85 189
-183 288 -74 74 -99 93 -190 137 -152 74 -314 100 -459 71z"/>
<path d="M3275 1465 c-38 -9 -117 -39 -175 -67 -91 -44 -116 -63 -190 -137
-98 -99 -140 -165 -183 -288 -30 -83 -32 -96 -32 -233 0 -137 2 -150 32 -233
43 -123 85 -189 183 -288 74 -74 99 -93 190 -137 133 -65 234 -87 370 -79 288
17 537 197 647 467 85 212 64 449 -58 658 -19 31 -70 93 -114 137 -88 88 -184
146 -310 185 -92 29 -262 36 -360 15z"/>
</g>
</svg>
