<?xml version="1.0" standalone="no"?>
<!DOCTYPE svg PUBLIC "-//W3C//DTD SVG 20010904//EN"
 "http://www.w3.org/TR/2001/REC-SVG-20010904/DTD/svg10.dtd">
<svg version="1.0" xmlns="http://www.w3.org/2000/svg"
 width="830.000000pt" height="968.000000pt" viewBox="0 0 830.000000 968.000000"
 preserveAspectRatio="xMidYMid meet">
<metadata>
Created by potrace 1.16, written by Peter Selinger 2001-2019
</metadata>
<g transform="translate(0.000000,968.000000) scale(0.100000,-0.100000)"
fill="#000000" stroke="none">
<path d="M5850 9670 c-838 -80 -1700 -418 -2395 -940 -449 -337 -767 -699
-960 -1092 -84 -171 -133 -312 -171 -493 -25 -116 -28 -151 -28 -330 -1 -221
14 -318 76 -494 172 -487 629 -918 1363 -1283 72 -36 234 -112 360 -168 1115
-502 1690 -934 1961 -1473 127 -251 176 -548 140 -833 -67 -528 -345 -1007
-751 -1299 -503 -361 -1487 -566 -2245 -469 -325 41 -646 134 -900 260 -533
264 -975 727 -1084 1134 -78 291 -48 615 85 935 29 69 31 70 106 110 185 97
373 238 464 347 90 109 113 195 65 243 -31 31 -79 39 -185 32 -372 -24 -857
-263 -1194 -587 -144 -138 -242 -273 -337 -465 -91 -183 -147 -343 -186 -530
-25 -116 -28 -151 -28 -330 -1 -219 9 -292 64 -457 138 -414 597 -883 1125
-1150 446 -226 848 -323 1385 -335 1209 -27 2498 394 3495 1142 487 365 843
770 1055 1200 132 268 202 491 235 755 22 167 16 406 -14 552 -118 580 -542
1065 -1336 1528 -179 104 -585 307 -880 440 -379 170 -555 263 -787 416 -769
507 -1039 1122 -803 1830 113 339 355 645 636 802 78 44 239 106 366 142 467
132 989 130 1527 -6 297 -75 639 -226 791 -350 107 -88 196 -245 230 -408 38
-188 30 -356 -30 -607 -19 -79 -35 -156 -35 -170 0 -15 12 -37 31 -55 30 -28
33 -29 132 -28 122 1 236 34 412 119 246 118 501 322 569 454 17 32 66 221 93
356 25 129 25 427 0 545 -42 192 -113 326 -242 455 -72 71 -114 103 -202 153
-364 205 -753 331 -1193 388 -147 19 -636 27 -780 14z"/>
</g>
</svg>
