<?xml version="1.0" standalone="no"?>
<!DOCTYPE svg PUBLIC "-//W3C//DTD SVG 20010904//EN"
 "http://www.w3.org/TR/2001/REC-SVG-20010904/DTD/svg10.dtd">
<svg version="1.0" xmlns="http://www.w3.org/2000/svg"
 width="922.000000pt" height="922.000000pt" viewBox="0 0 922.000000 922.000000"
 preserveAspectRatio="xMidYMid meet">
<metadata>
Created by potrace 1.16, written by Peter Selinger 2001-2019
</metadata>
<g transform="translate(0.000000,922.000000) scale(0.100000,-0.100000)"
fill="#000000" stroke="none">
<path d="M4280 9209 c-1118 -83 -2148 -555 -2935 -1343 -516 -516 -893 -1136
-1124 -1849 -94 -286 -156 -583 -198 -934 -24 -209 -24 -737 0 -946 71 -597
217 -1097 469 -1597 328 -654 789 -1202 1373 -1635 1068 -791 2428 -1083 3725
-799 1098 241 2083 885 2740 1792 412 570 704 1263 814 1939 51 310 60 427 60
773 0 346 -9 463 -60 773 -110 676 -402 1369 -814 1939 -432 596 -1007 1083
-1670 1413 -652 325 -1357 489 -2080 484 -107 -1 -242 -5 -300 -10z m100
-2409 l0 -1960 -1960 0 -1960 0 0 43 c0 62 27 294 51 432 106 630 386 1282
767 1787 494 655 1133 1130 1911 1419 261 98 639 187 921 218 52 6 109 13 125
15 17 1 56 4 88 5 l57 1 0 -1960z m765 1934 c565 -74 1102 -262 1605 -562 539
-320 1032 -804 1372 -1345 167 -267 345 -651 443 -957 47 -146 108 -400 134
-555 24 -138 51 -370 51 -432 l0 -43 -1960 0 -1960 0 0 1961 0 1962 103 -7
c56 -4 152 -14 212 -22z m-765 -6310 l0 -1967 -102 7 c-511 35 -1045 184
-1528 425 -587 294 -1074 700 -1472 1229 -261 346 -496 803 -633 1232 -94 294
-184 780 -185 993 l0 47 1960 0 1960 0 0 -1966z m4370 1919 c0 -68 -27 -296
-51 -438 -106 -630 -386 -1282 -767 -1787 -550 -730 -1315 -1259 -2171 -1502
-300 -86 -563 -134 -828 -152 l-103 -7 0 1967 0 1966 1960 0 1960 0 0 -47z"/>
</g>
</svg>
