<?xml version="1.0" standalone="no"?>
<!DOCTYPE svg PUBLIC "-//W3C//DTD SVG 20010904//EN"
 "http://www.w3.org/TR/2001/REC-SVG-20010904/DTD/svg10.dtd">
<svg version="1.0" xmlns="http://www.w3.org/2000/svg"
 width="934.000000pt" height="1159.000000pt" viewBox="0 0 934.000000 1159.000000"
 preserveAspectRatio="xMidYMid meet">
<metadata>
Created by potrace 1.16, written by Peter Selinger 2001-2019
</metadata>
<g transform="translate(0.000000,1159.000000) scale(0.100000,-0.100000)"
fill="#000000" stroke="none">
<path d="M5810 11584 c-587 -49 -1106 -173 -1665 -399 -1209 -490 -2324 -1368
-3084 -2429 -563 -785 -922 -1656 -1033 -2501 -29 -223 -31 -660 -5 -855 70
-523 231 -941 496 -1294 339 -450 850 -747 1451 -842 164 -27 698 -26 915 0
651 78 1266 262 1890 565 408 199 698 475 699 667 1 65 -21 98 -90 136 -59 33
-117 36 -250 13 -121 -22 -241 -63 -414 -144 -403 -189 -737 -278 -1175 -312
-380 -29 -814 52 -1105 208 -580 311 -946 903 -1042 1688 -19 160 -16 594 6
760 151 1158 826 2339 1761 3084 493 393 1019 619 1620 697 85 11 204 17 345
17 898 2 1611 -367 2086 -1078 376 -565 563 -1296 540 -2120 -32 -1164 -427
-2231 -1169 -3155 -645 -803 -1467 -1384 -2367 -1675 -669 -215 -1378 -306
-2515 -321 -321 -4 -450 -9 -510 -20 -234 -44 -535 -197 -748 -378 -210 -181
-309 -383 -231 -476 45 -53 92 -70 191 -70 274 -1 686 -47 1028 -115 479 -96
849 -209 1820 -555 917 -327 1253 -432 1681 -529 687 -154 1375 -194 1844
-106 882 166 1800 747 2259 1430 163 243 307 601 280 698 -21 77 -93 117 -209
117 -257 0 -634 -165 -903 -394 -145 -125 -223 -237 -267 -386 -60 -203 -200
-418 -316 -486 -116 -68 -307 -92 -595 -75 -761 45 -1345 192 -2710 683 l-426
154 126 43 c69 24 210 76 313 117 1306 519 2498 1385 3373 2449 212 257 470
627 625 895 515 887 781 1811 806 2795 16 612 -79 1177 -287 1705 -92 236
-286 568 -455 780 -101 127 -324 343 -454 442 -157 119 -269 187 -445 274
-317 155 -566 231 -915 280 -109 15 -653 28 -770 18z"/>
</g>
</svg>
