<?xml version="1.0" standalone="no"?>
<!DOCTYPE svg PUBLIC "-//W3C//DTD SVG 20010904//EN"
 "http://www.w3.org/TR/2001/REC-SVG-20010904/DTD/svg10.dtd">
<svg version="1.0" xmlns="http://www.w3.org/2000/svg"
 width="978.000000pt" height="985.000000pt" viewBox="0 0 978.000000 985.000000"
 preserveAspectRatio="xMidYMid meet">
<metadata>
Created by potrace 1.16, written by Peter Selinger 2001-2019
</metadata>
<g transform="translate(0.000000,985.000000) scale(0.100000,-0.100000)"
fill="#000000" stroke="none">
<path d="M2590 9840 c-503 -60 -1005 -235 -1511 -526 -313 -180 -525 -341
-639 -485 -57 -72 -80 -124 -80 -185 0 -53 15 -76 67 -103 28 -14 166 -14 235
0 161 32 402 139 573 255 179 120 319 171 541 195 232 25 366 -26 436 -164
136 -271 26 -817 -362 -1792 -136 -340 -248 -604 -562 -1320 -492 -1120 -702
-1627 -882 -2131 -213 -599 -328 -1025 -382 -1429 -22 -165 -26 -622 -6 -765
74 -525 275 -896 601 -1108 155 -101 340 -169 525 -192 122 -16 430 -8 571 15
697 111 1485 487 2295 1095 892 670 1842 1659 2731 2842 83 112 156 207 160
212 5 5 -3 -31 -16 -80 -452 -1623 -607 -2344 -685 -3179 -31 -336 -36 -517
-16 -595 39 -154 129 -266 268 -333 121 -58 187 -70 363 -64 202 7 357 43 582
133 114 45 565 273 666 335 264 164 457 375 457 499 0 75 -62 120 -164 120
-140 0 -300 -48 -535 -161 -134 -64 -146 -68 -181 -59 -87 23 -160 106 -180
207 -14 63 -9 161 21 498 75 828 218 1488 694 3200 366 1317 954 3181 1147
3640 165 390 334 867 413 1166 42 159 43 178 10 217 -39 46 -73 56 -183 49
-212 -12 -504 -138 -750 -321 -176 -132 -284 -261 -330 -394 -11 -31 -78 -219
-150 -417 -71 -198 -176 -492 -232 -653 -111 -320 -188 -498 -405 -937 -719
-1452 -1763 -3034 -2797 -4235 -754 -877 -1496 -1540 -2018 -1804 -326 -166
-589 -194 -891 -97 -303 98 -537 389 -640 796 -50 199 -63 325 -63 585 1 325
28 524 124 895 171 662 422 1312 1128 2920 593 1351 804 1898 927 2397 62 253
79 374 80 573 0 201 -10 256 -69 380 -63 133 -165 219 -333 278 -86 30 -93 31
-283 33 -107 1 -229 -2 -270 -6z"/>
</g>
</svg>
