<?xml version="1.0" standalone="no"?>
<!DOCTYPE svg PUBLIC "-//W3C//DTD SVG 20010904//EN"
 "http://www.w3.org/TR/2001/REC-SVG-20010904/DTD/svg10.dtd">
<svg version="1.0" xmlns="http://www.w3.org/2000/svg"
 width="1083.000000pt" height="1384.000000pt" viewBox="0 0 1083.000000 1384.000000"
 preserveAspectRatio="xMidYMid meet">
<metadata>
Created by potrace 1.16, written by Peter Selinger 2001-2019
</metadata>
<g transform="translate(0.000000,1384.000000) scale(0.100000,-0.100000)"
fill="#000000" stroke="none">
<path d="M10470 13831 c-46 -14 -105 -49 -131 -78 -15 -15 -49 -73 -77 -128
-27 -55 -1335 -2764 -2907 -6020 -1571 -3256 -2860 -5923 -2864 -5927 -3 -4
-552 1193 -1220 2660 -887 1950 -1221 2674 -1242 2694 -40 38 -97 52 -146 35
-59 -20 -1836 -1393 -1862 -1438 -23 -40 -27 -83 -10 -126 12 -33 181 -208
221 -229 35 -18 91 -18 128 1 15 8 212 156 437 329 224 173 411 312 414 308 4
-4 602 -1314 1329 -2912 727 -1598 1329 -2917 1338 -2932 30 -51 78 -68 194
-68 136 0 186 17 252 84 45 47 281 531 3268 6723 2732 5661 3220 6680 3225
6725 17 163 -116 310 -276 307 -25 0 -57 -4 -71 -8z"/>
</g>
</svg>
