<?xml version="1.0" standalone="no"?>
<!DOCTYPE svg PUBLIC "-//W3C//DTD SVG 20010904//EN"
 "http://www.w3.org/TR/2001/REC-SVG-20010904/DTD/svg10.dtd">
<svg version="1.0" xmlns="http://www.w3.org/2000/svg"
 width="512.000000pt" height="1384.000000pt" viewBox="0 0 512.000000 1384.000000"
 preserveAspectRatio="xMidYMid meet">
<metadata>
Created by potrace 1.16, written by Peter Selinger 2001-2019
</metadata>
<g transform="translate(0.000000,1384.000000) scale(0.100000,-0.100000)"
fill="#000000" stroke="none">
<path d="M4450 13833 c-504 -29 -1027 -155 -1410 -339 -175 -85 -264 -137
-398 -237 -360 -264 -582 -629 -632 -1037 -6 -55 -10 -695 -10 -1835 0 -1210
-3 -1778 -11 -1840 -74 -603 -546 -1089 -1254 -1289 -137 -39 -313 -66 -487
-75 -171 -8 -193 -15 -228 -74 -18 -28 -20 -51 -20 -187 0 -136 2 -159 20
-187 35 -59 57 -66 228 -74 322 -16 611 -90 874 -223 497 -251 808 -662 867
-1141 8 -62 11 -630 11 -1840 0 -1140 4 -1780 10 -1835 57 -468 332 -864 800
-1153 123 -75 375 -192 535 -247 429 -147 808 -208 1345 -217 297 -4 317 -3
349 14 61 34 71 67 71 238 0 234 -13 248 -247 259 -365 16 -688 92 -972 227
-402 192 -650 463 -744 814 l-21 80 -6 1855 -6 1855 -22 98 c-91 397 -282 703
-603 964 -242 197 -629 393 -956 485 -46 12 -83 25 -83 28 0 3 37 16 83 28
240 68 551 208 757 343 447 292 694 632 802 1106 l22 98 6 1855 6 1855 21 80
c94 351 342 622 744 814 284 135 607 211 972 227 234 11 247 25 247 259 0 171
-10 204 -71 237 -30 16 -59 18 -284 16 -137 -1 -275 -3 -305 -5z"/>
</g>
</svg>
