<?xml version="1.0" standalone="no"?>
<!DOCTYPE svg PUBLIC "-//W3C//DTD SVG 20010904//EN"
 "http://www.w3.org/TR/2001/REC-SVG-20010904/DTD/svg10.dtd">
<svg version="1.0" xmlns="http://www.w3.org/2000/svg"
 width="811.000000pt" height="770.000000pt" viewBox="0 0 811.000000 770.000000"
 preserveAspectRatio="xMidYMid meet">
<metadata>
Created by potrace 1.16, written by Peter Selinger 2001-2019
</metadata>
<g transform="translate(0.000000,770.000000) scale(0.100000,-0.100000)"
fill="#000000" stroke="none">
<path d="M191 7689 c-51 -15 -114 -62 -144 -108 -91 -137 -40 -323 108 -396
39 -20 78 -20 2120 -26 2254 -6 2138 -3 2440 -59 1011 -190 1886 -783 2392
-1623 74 -123 194 -368 248 -507 47 -121 117 -364 144 -500 99 -507 78 -1000
-64 -1495 -210 -734 -701 -1390 -1370 -1831 -478 -315 -1003 -506 -1595 -581
-122 -16 -334 -18 -2205 -23 -2033 -5 -2071 -5 -2110 -25 -50 -25 -105 -80
-130 -130 -27 -55 -27 -175 0 -230 25 -50 80 -105 130 -130 39 -20 72 -20
2120 -20 1946 0 2090 1 2230 18 429 52 836 159 1208 318 480 206 895 487 1268
859 315 315 538 620 725 992 526 1048 526 2268 0 3316 -187 372 -410 677 -725
992 -659 658 -1462 1042 -2461 1177 -113 15 -318 17 -2210 19 -1369 2 -2097
-1 -2119 -7z"/>
</g>
</svg>
