<?xml version="1.0" standalone="no"?>
<!DOCTYPE svg PUBLIC "-//W3C//DTD SVG 20010904//EN"
 "http://www.w3.org/TR/2001/REC-SVG-20010904/DTD/svg10.dtd">
<svg version="1.0" xmlns="http://www.w3.org/2000/svg"
 width="922.000000pt" height="922.000000pt" viewBox="0 0 922.000000 922.000000"
 preserveAspectRatio="xMidYMid meet">
<metadata>
Created by potrace 1.16, written by Peter Selinger 2001-2019
</metadata>
<g transform="translate(0.000000,922.000000) scale(0.100000,-0.100000)"
fill="#000000" stroke="none">
<path d="M4265 9209 c-578 -43 -1168 -205 -1695 -465 -471 -232 -850 -503
-1221 -874 -595 -594 -1009 -1329 -1214 -2154 -265 -1071 -138 -2192 361
-3186 225 -446 501 -828 853 -1180 371 -371 750 -642 1221 -874 373 -184 717
-301 1138 -387 1269 -257 2612 47 3657 829 265 198 567 483 766 723 457 552
773 1174 944 1863 265 1071 138 2192 -361 3186 -398 791 -1004 1439 -1774
1895 -154 91 -454 238 -620 304 -447 177 -924 287 -1395 321 -161 11 -498 11
-660 -1z m65 -2434 l0 -1885 -1885 0 c-1791 0 -1885 1 -1885 18 0 9 7 76 15
147 58 505 191 948 415 1390 248 491 568 898 985 1256 588 505 1335 836 2105
933 133 17 178 22 223 24 l27 2 0 -1885z m834 1854 c670 -90 1324 -358 1871
-767 747 -559 1282 -1368 1505 -2277 22 -88 48 -214 60 -280 19 -114 50 -359
50 -397 0 -17 -94 -18 -1885 -18 l-1885 0 0 1886 0 1886 68 -7 c37 -3 134 -15
216 -26z m-834 -6180 l0 -1891 -67 7 c-628 59 -1206 244 -1723 550 -937 556
-1610 1462 -1870 2520 -52 214 -110 570 -110 682 l0 23 1885 0 1885 0 0 -1891z
m4320 1868 c0 -112 -58 -468 -110 -682 -101 -411 -276 -826 -497 -1180 -340
-545 -817 -1010 -1373 -1340 -517 -306 -1095 -491 -1722 -550 l-68 -7 0 1891
0 1891 1885 0 1885 0 0 -23z"/>
</g>
</svg>
