<?xml version="1.0" standalone="no"?>
<!DOCTYPE svg PUBLIC "-//W3C//DTD SVG 20010904//EN"
 "http://www.w3.org/TR/2001/REC-SVG-20010904/DTD/svg10.dtd">
<svg version="1.0" xmlns="http://www.w3.org/2000/svg"
 width="932.000000pt" height="946.000000pt" viewBox="0 0 932.000000 946.000000"
 preserveAspectRatio="xMidYMid meet">
<metadata>
Created by potrace 1.16, written by Peter Selinger 2001-2019
</metadata>
<g transform="translate(0.000000,946.000000) scale(0.100000,-0.100000)"
fill="#000000" stroke="none">
<path d="M4826 9449 c-1185 -39 -2009 -231 -2718 -633 -491 -278 -892 -651
-1102 -1025 -112 -199 -214 -485 -201 -563 9 -49 39 -86 89 -109 52 -24 187
-25 292 -3 298 61 683 288 869 512 66 80 104 154 144 285 51 165 146 328 209
361 15 7 70 28 122 45 335 109 792 167 1510 191 306 10 1500 14 1500 5 0 -3
-33 -45 -74 -93 -450 -531 -810 -1331 -1169 -2597 -102 -356 -171 -621 -371
-1410 -255 -1011 -348 -1343 -501 -1800 -249 -746 -532 -1308 -806 -1599 -50
-54 -60 -60 -110 -67 -30 -4 -364 -8 -742 -8 -744 -1 -747 -1 -917 -57 -111
-37 -312 -137 -420 -209 -194 -129 -333 -269 -396 -400 -60 -124 -42 -205 57
-255 38 -20 77 -20 2653 -20 1711 0 2650 4 2717 10 573 57 1141 264 1629 594
431 292 727 638 845 990 53 157 41 216 -51 269 -47 27 -53 28 -159 23 -129 -5
-224 -28 -377 -90 -278 -113 -554 -318 -687 -511 -23 -33 -51 -91 -63 -130
-11 -38 -31 -91 -44 -116 -23 -46 -23 -46 -101 -63 -44 -9 -119 -21 -169 -26
-51 -6 -653 -10 -1403 -10 l-1313 0 85 89 c456 480 813 1138 1127 2081 155
465 260 842 516 1855 263 1038 349 1357 490 1808 240 767 483 1323 732 1670
l55 77 823 0 c701 0 834 2 904 16 448 85 1005 510 1004 768 0 65 -23 100 -85
132 l-48 24 -2058 -2 c-1132 0 -2161 -5 -2287 -9z"/>
</g>
</svg>
