<?xml version="1.0" standalone="no"?>
<!DOCTYPE svg PUBLIC "-//W3C//DTD SVG 20010904//EN"
 "http://www.w3.org/TR/2001/REC-SVG-20010904/DTD/svg10.dtd">
<svg version="1.0" xmlns="http://www.w3.org/2000/svg"
 width="738.000000pt" height="825.000000pt" viewBox="0 0 738.000000 825.000000"
 preserveAspectRatio="xMidYMid meet">
<metadata>
Created by potrace 1.16, written by Peter Selinger 2001-2019
</metadata>
<g transform="translate(0.000000,825.000000) scale(0.100000,-0.100000)"
fill="#000000" stroke="none">
<path d="M191 8239 c-85 -26 -160 -105 -181 -191 -8 -30 -10 -855 -8 -2753 l3
-2710 23 -124 c49 -271 106 -448 217 -676 423 -870 1398 -1510 2612 -1714 328
-55 455 -65 828 -65 373 0 500 10 828 65 1071 180 1962 700 2448 1429 197 294
316 597 381 966 l23 129 0 2730 c0 2695 0 2731 -20 2770 -25 50 -80 105 -130
130 -55 27 -175 27 -230 0 -50 -25 -105 -80 -130 -130 -20 -39 -20 -81 -26
-2760 -6 -2924 -3 -2745 -53 -2945 -90 -352 -301 -706 -572 -959 -517 -483
-1247 -784 -2114 -873 -161 -16 -649 -16 -810 0 -867 89 -1597 390 -2114 873
-271 253 -482 607 -572 959 -50 200 -47 21 -53 2945 -6 2679 -6 2721 -26 2760
-25 51 -80 106 -130 129 -46 22 -146 30 -194 15z"/>
</g>
</svg>
