<?xml version="1.0" standalone="no"?>
<!DOCTYPE svg PUBLIC "-//W3C//DTD SVG 20010904//EN"
 "http://www.w3.org/TR/2001/REC-SVG-20010904/DTD/svg10.dtd">
<svg version="1.0" xmlns="http://www.w3.org/2000/svg"
 width="516.000000pt" height="515.000000pt" viewBox="0 0 516.000000 515.000000"
 preserveAspectRatio="xMidYMid meet">
<metadata>
Created by potrace 1.16, written by Peter Selinger 2001-2019
</metadata>
<g transform="translate(0.000000,515.000000) scale(0.100000,-0.100000)"
fill="#000000" stroke="none">
<path d="M2325 5139 c-598 -63 -1138 -321 -1566 -748 -432 -433 -686 -968
-748 -1580 -45 -432 40 -910 235 -1329 208 -446 590 -865 1023 -1122 466 -275
1026 -402 1542 -349 612 62 1147 316 1580 748 432 433 686 968 748 1580 37
362 -17 766 -151 1126 -131 354 -324 652 -597 926 -433 432 -968 686 -1580
748 -118 13 -368 12 -486 0z"/>
</g>
</svg>
