<?xml version="1.0" standalone="no"?>
<!DOCTYPE svg PUBLIC "-//W3C//DTD SVG 20010904//EN"
 "http://www.w3.org/TR/2001/REC-SVG-20010904/DTD/svg10.dtd">
<svg version="1.0" xmlns="http://www.w3.org/2000/svg"
 width="959.000000pt" height="1139.000000pt" viewBox="0 0 959.000000 1139.000000"
 preserveAspectRatio="xMidYMid meet">
<metadata>
Created by potrace 1.16, written by Peter Selinger 2001-2019
</metadata>
<g transform="translate(0.000000,1139.000000) scale(0.100000,-0.100000)"
fill="#000000" stroke="none">
<path d="M4555 11378 c-663 -74 -1261 -452 -1654 -1043 -232 -350 -371 -720
-438 -1170 -25 -169 -25 -571 0 -740 67 -450 206 -820 438 -1170 134 -201 284
-370 491 -550 l57 -50 -147 -300 -147 -300 -115 115 c-222 223 -469 352 -788
412 -170 32 -469 32 -629 0 -318 -64 -585 -204 -831 -436 -512 -484 -814
-1331 -789 -2211 18 -612 205 -1167 550 -1630 103 -139 331 -368 465 -468 492
-364 1082 -494 1688 -371 665 135 1113 561 1151 1096 l6 88 330 0 330 0 -7
-207 c-22 -685 -114 -1260 -313 -1953 -46 -162 -54 -203 -50 -246 10 -95 67
-177 152 -219 38 -19 63 -20 485 -20 422 0 447 1 485 20 85 42 142 124 152
219 4 43 -4 84 -50 246 -199 693 -291 1268 -313 1953 l-7 207 330 0 330 0 6
-88 c43 -604 598 -1055 1394 -1133 155 -15 395 -6 553 21 319 55 621 187 892
387 134 100 362 329 465 468 345 463 532 1018 550 1630 25 880 -277 1727 -789
2211 -246 232 -513 372 -831 436 -160 32 -459 32 -629 0 -319 -60 -566 -189
-788 -412 l-115 -115 -147 300 -147 300 57 50 c207 180 357 349 491 550 232
350 371 720 438 1170 25 169 25 571 0 740 -67 450 -206 820 -438 1170 -398
598 -994 971 -1671 1044 -114 13 -339 12 -453 -1z"/>
</g>
</svg>
