<?xml version="1.0" standalone="no"?>
<!DOCTYPE svg PUBLIC "-//W3C//DTD SVG 20010904//EN"
 "http://www.w3.org/TR/2001/REC-SVG-20010904/DTD/svg10.dtd">
<svg version="1.0" xmlns="http://www.w3.org/2000/svg"
 width="1095.000000pt" height="1078.000000pt" viewBox="0 0 1095.000000 1078.000000"
 preserveAspectRatio="xMidYMid meet">
<metadata>
Created by potrace 1.16, written by Peter Selinger 2001-2019
</metadata>
<g transform="translate(0.000000,1078.000000) scale(0.100000,-0.100000)"
fill="#000000" stroke="none">
<path d="M8579 10765 c-283 -56 -649 -265 -849 -482 -116 -127 -160 -229 -160
-370 l0 -73 -105 0 -105 0 -147 -302 c-755 -1555 -1642 -3124 -2618 -4633
-353 -545 -910 -1364 -1263 -1855 -705 -980 -1205 -1485 -1550 -1566 -57 -14
-80 -14 -157 -4 -303 41 -540 172 -704 391 -84 110 -117 184 -136 304 -27 174
-77 245 -172 245 -247 -1 -583 -604 -610 -1095 -9 -177 36 -407 113 -573 120
-261 370 -514 626 -635 170 -81 367 -122 538 -114 131 7 222 32 365 101 233
113 452 282 745 575 427 427 838 953 1528 1949 l230 332 1813 0 c997 0 1814
-2 1816 -4 3 -2 15 -98 28 -213 60 -525 150 -1029 276 -1536 128 -515 155
-583 279 -707 83 -83 176 -138 315 -186 70 -24 99 -28 237 -32 291 -8 564 53
888 199 170 76 617 311 710 373 249 166 430 385 430 519 0 89 -90 157 -209
157 -171 -1 -325 -49 -614 -192 -120 -60 -229 -108 -242 -108 -56 0 -154 41
-202 84 -84 76 -110 144 -222 591 -166 665 -256 1257 -326 2135 -88 1123 -142
2144 -176 3390 -14 499 -17 2109 -6 2771 l9 475 -27 33 c-46 54 -92 71 -192
70 -48 0 -118 -7 -154 -14z m-1010 -3990 c25 -919 56 -1608 111 -2485 11 -173
22 -332 25 -352 l5 -38 -1327 -2 -1328 -3 -78 -22 c-44 -13 -124 -41 -179 -63
-56 -22 -102 -39 -103 -38 -1 2 69 113 157 248 898 1383 1788 2938 2533 4426
l160 319 6 -790 c4 -434 12 -974 18 -1200z"/>
</g>
</svg>
