<?xml version="1.0" standalone="no"?>
<!DOCTYPE svg PUBLIC "-//W3C//DTD SVG 20010904//EN"
 "http://www.w3.org/TR/2001/REC-SVG-20010904/DTD/svg10.dtd">
<svg version="1.0" xmlns="http://www.w3.org/2000/svg"
 width="1098.000000pt" height="1112.000000pt" viewBox="0 0 1098.000000 1112.000000"
 preserveAspectRatio="xMidYMid meet">
<metadata>
Created by potrace 1.16, written by Peter Selinger 2001-2019
</metadata>
<g transform="translate(0.000000,1112.000000) scale(0.100000,-0.100000)"
fill="#000000" stroke="none">
<path d="M7555 11113 c-122 -8 -413 -47 -555 -74 -1333 -258 -2657 -1063
-3425 -2084 -282 -376 -460 -718 -591 -1140 -60 -194 -51 -259 42 -312 76 -44
274 -27 462 38 322 113 661 363 785 579 14 25 37 86 51 135 98 350 240 635
465 930 90 118 302 334 421 429 360 288 800 468 1327 542 102 15 246 18 1041
21 l923 4 -184 -183 c-101 -101 -226 -235 -279 -298 -744 -896 -1321 -2196
-1917 -4325 -145 -518 -284 -1048 -491 -1872 -119 -475 -203 -720 -348 -1008
-262 -524 -675 -1020 -1066 -1279 -270 -180 -568 -267 -916 -269 -424 -3 -847
115 -1155 322 -608 408 -883 1135 -717 1901 42 196 33 239 -59 286 -192 97
-697 -87 -1037 -376 -81 -70 -181 -189 -216 -259 -79 -156 -135 -633 -107
-916 63 -643 367 -1158 891 -1510 101 -68 365 -199 503 -249 298 -110 594
-152 1002 -143 402 10 725 69 1131 208 1293 442 2443 1448 3058 2676 173 347
273 633 406 1163 116 464 253 996 336 1310 593 2224 1146 3592 1775 4390 97
123 284 313 352 357 64 42 152 61 333 72 86 6 182 19 227 30 449 116 941 512
941 756 0 64 -23 99 -85 131 l-48 24 -1613 -2 c-887 -1 -1635 -3 -1663 -5z"/>
</g>
</svg>
