<?xml version="1.0" standalone="no"?>
<!DOCTYPE svg PUBLIC "-//W3C//DTD SVG 20010904//EN"
 "http://www.w3.org/TR/2001/REC-SVG-20010904/DTD/svg10.dtd">
<svg version="1.0" xmlns="http://www.w3.org/2000/svg"
 width="692.000000pt" height="961.000000pt" viewBox="0 0 692.000000 961.000000"
 preserveAspectRatio="xMidYMid meet">
<metadata>
Created by potrace 1.16, written by Peter Selinger 2001-2019
</metadata>
<g transform="translate(0.000000,961.000000) scale(0.100000,-0.100000)"
fill="#000000" stroke="none">
<path d="M352 9593 c-19 -9 -59 -47 -91 -84 -187 -223 -261 -504 -261 -994 0
-263 37 -414 161 -665 161 -323 367 -588 979 -1255 166 -181 304 -335 307
-342 2 -6 -47 -98 -110 -205 -177 -298 -267 -465 -412 -761 -300 -614 -465
-1138 -527 -1682 -7 -60 -13 -211 -13 -335 0 -199 3 -238 23 -335 51 -239 137
-451 328 -805 169 -316 308 -601 348 -716 74 -217 105 -454 72 -566 -32 -110
-150 -205 -320 -257 -148 -45 -432 -81 -646 -81 -100 0 -143 -18 -172 -71 -15
-28 -18 -57 -18 -184 0 -168 9 -196 72 -235 32 -19 52 -20 750 -20 590 0 738
3 835 15 472 62 827 272 981 580 53 107 74 189 79 320 15 358 -138 690 -517
1120 -58 66 -159 181 -224 255 -295 335 -419 549 -462 794 -14 75 -15 138 -10
366 19 870 133 1534 369 2159 48 127 51 132 66 113 9 -11 859 -941 1890 -2066
1031 -1126 1913 -2094 1961 -2151 229 -275 393 -561 484 -842 52 -163 86 -360
86 -498 0 -70 22 -114 72 -145 69 -42 134 -18 217 81 187 223 261 504 261 994
0 263 -37 414 -161 665 -159 319 -370 591 -958 1232 l-281 308 0 51 c0 75 27
365 56 589 40 319 89 622 199 1225 121 662 172 965 215 1267 16 119 30 220 30
224 0 12 60 -67 122 -161 138 -208 211 -417 225 -647 7 -109 22 -146 75 -178
69 -42 134 -18 217 81 187 222 261 504 261 994 0 225 -21 327 -100 485 -85
169 -228 328 -530 592 -263 230 -330 306 -525 603 -367 557 -554 882 -585
1020 -17 74 -41 117 -79 142 -69 46 -135 23 -220 -78 -194 -231 -273 -550
-258 -1053 4 -153 9 -195 30 -272 76 -269 270 -545 579 -822 68 -61 142 -125
166 -144 l43 -33 -6 -110 c-18 -352 -92 -852 -271 -1830 -102 -559 -148 -833
-189 -1125 -14 -101 -27 -185 -29 -187 -5 -5 -3735 4073 -3823 4181 -226 274
-387 556 -477 833 -52 163 -86 360 -86 498 0 125 -97 198 -198 148z"/>
</g>
</svg>
