<?xml version="1.0" standalone="no"?>
<!DOCTYPE svg PUBLIC "-//W3C//DTD SVG 20010904//EN"
 "http://www.w3.org/TR/2001/REC-SVG-20010904/DTD/svg10.dtd">
<svg version="1.0" xmlns="http://www.w3.org/2000/svg"
 width="1230.000000pt" height="877.000000pt" viewBox="0 0 1230.000000 877.000000"
 preserveAspectRatio="xMidYMid meet">
<metadata>
Created by potrace 1.16, written by Peter Selinger 2001-2019
</metadata>
<g transform="translate(0.000000,877.000000) scale(0.100000,-0.100000)"
fill="#000000" stroke="none">
<path d="M7734 8759 c-23 -4 -68 -21 -100 -37 -33 -16 -1737 -948 -3789 -2071
-3251 -1779 -3735 -2047 -3772 -2087 -96 -103 -96 -265 0 -368 37 -40 521
-308 3772 -2087 2052 -1123 3761 -2057 3800 -2075 151 -74 304 -30 381 108 25
46 29 63 29 133 0 90 -23 146 -80 200 -17 17 -1623 901 -3568 1965 -1945 1064
-3537 1937 -3537 1940 0 3 1592 876 3537 1940 1945 1064 3551 1949 3568 1965
57 54 80 110 80 200 0 70 -4 87 -29 133 -60 108 -176 164 -292 141z"/>
<path d="M11964 8759 c-23 -4 -68 -21 -100 -37 -33 -16 -1737 -948 -3789
-2071 -3251 -1779 -3735 -2047 -3772 -2087 -96 -103 -96 -265 0 -368 37 -40
521 -308 3772 -2087 2052 -1123 3761 -2057 3800 -2075 151 -74 304 -30 381
108 25 46 29 63 29 133 0 90 -23 146 -80 200 -17 17 -1623 901 -3568 1965
-1945 1064 -3537 1937 -3537 1940 0 3 1592 876 3537 1940 1945 1064 3551 1949
3568 1965 57 54 80 110 80 200 0 70 -4 87 -29 133 -60 108 -176 164 -292 141z"/>
</g>
</svg>
