<?xml version="1.0" standalone="no"?>
<!DOCTYPE svg PUBLIC "-//W3C//DTD SVG 20010904//EN"
 "http://www.w3.org/TR/2001/REC-SVG-20010904/DTD/svg10.dtd">
<svg version="1.0" xmlns="http://www.w3.org/2000/svg"
 width="885.000000pt" height="1139.000000pt" viewBox="0 0 885.000000 1139.000000"
 preserveAspectRatio="xMidYMid meet">
<metadata>
Created by potrace 1.16, written by Peter Selinger 2001-2019
</metadata>
<g transform="translate(0.000000,1139.000000) scale(0.100000,-0.100000)"
fill="#000000" stroke="none">
<path d="M4341 11379 c-84 -26 -149 -93 -185 -194 -109 -297 -277 -683 -437
-1005 -226 -453 -449 -814 -707 -1144 -215 -274 -370 -438 -697 -735 -494
-450 -809 -759 -1076 -1057 -765 -854 -1155 -1649 -1230 -2509 -13 -153 -7
-623 11 -845 57 -705 206 -1280 434 -1675 248 -430 595 -692 1021 -771 136
-26 478 -26 645 0 603 91 1016 319 1232 681 75 125 123 282 135 438 l6 87 330
0 330 0 -7 -207 c-22 -685 -114 -1260 -313 -1953 -46 -162 -54 -203 -50 -246
10 -95 67 -177 152 -219 38 -19 63 -20 485 -20 422 0 447 1 485 20 85 42 142
124 152 219 4 43 -4 84 -50 246 -199 693 -291 1268 -313 1953 l-7 207 330 0
330 0 6 -87 c20 -268 133 -496 342 -691 232 -216 576 -360 1025 -428 167 -26
509 -26 645 0 426 79 773 341 1021 771 228 395 377 970 434 1675 18 222 24
692 11 845 -75 860 -465 1655 -1230 2509 -267 298 -582 607 -1076 1057 -327
297 -482 461 -697 735 -258 330 -481 691 -707 1144 -149 300 -228 478 -358
805 -52 132 -100 251 -106 265 -18 37 -78 93 -122 114 -46 22 -146 30 -194 15z"/>
</g>
</svg>
