<?xml version="1.0" standalone="no"?>
<!DOCTYPE svg PUBLIC "-//W3C//DTD SVG 20010904//EN"
 "http://www.w3.org/TR/2001/REC-SVG-20010904/DTD/svg10.dtd">
<svg version="1.0" xmlns="http://www.w3.org/2000/svg"
 width="1266.000000pt" height="1265.000000pt" viewBox="0 0 1266.000000 1265.000000"
 preserveAspectRatio="xMidYMid meet">
<metadata>
Created by potrace 1.16, written by Peter Selinger 2001-2019
</metadata>
<g transform="translate(0.000000,1265.000000) scale(0.100000,-0.100000)"
fill="#000000" stroke="none">
<path d="M180 12633 c-64 -23 -142 -105 -165 -172 -21 -64 -17 -159 10 -211 9
-20 2436 -2455 5483 -5503 4279 -4281 5460 -5467 5437 -5463 -102 20 -372 47
-565 56 -491 24 -1001 -31 -1490 -161 -492 -130 -1009 -363 -1438 -646 -123
-81 -146 -101 -163 -136 -38 -85 -20 -128 109 -259 104 -107 151 -138 207
-138 43 0 50 3 190 95 594 388 1226 612 1950 691 194 21 641 24 820 5 524 -54
946 -166 1416 -375 70 -31 141 -56 159 -56 74 0 150 77 150 153 0 20 -19 75
-45 132 -205 442 -331 912 -386 1440 -19 179 -16 626 5 820 79 724 303 1356
691 1950 92 140 95 147 95 190 0 56 -31 103 -138 207 -131 129 -174 147 -259
109 -35 -17 -55 -40 -136 -163 -569 -862 -857 -1906 -807 -2928 9 -193 36
-463 56 -565 4 -23 -1182 1158 -5463 5437 -3086 3084 -5483 5474 -5503 5484
-49 24 -163 28 -220 7z"/>
</g>
</svg>
