<?xml version="1.0" standalone="no"?>
<!DOCTYPE svg PUBLIC "-//W3C//DTD SVG 20010904//EN"
 "http://www.w3.org/TR/2001/REC-SVG-20010904/DTD/svg10.dtd">
<svg version="1.0" xmlns="http://www.w3.org/2000/svg"
 width="331.000000pt" height="1328.000000pt" viewBox="0 0 331.000000 1328.000000"
 preserveAspectRatio="xMidYMid meet">
<metadata>
Created by potrace 1.16, written by Peter Selinger 2001-2019
</metadata>
<g transform="translate(0.000000,1328.000000) scale(0.100000,-0.100000)"
fill="#000000" stroke="none">
<path d="M191 13268 c-52 -14 -114 -61 -145 -108 -99 -150 -22 -361 149 -409
28 -8 412 -11 1302 -11 l1263 0 2 -6272 c3 -6094 4 -6274 22 -6308 26 -49 84
-108 131 -133 54 -29 172 -30 230 -2 50 25 105 80 130 130 20 40 20 96 20
6485 0 6389 0 6445 -20 6485 -25 50 -80 105 -130 130 -39 20 -70 20 -1480 22
-927 1 -1452 -2 -1474 -9z"/>
</g>
</svg>
