<?xml version="1.0" standalone="no"?>
<!DOCTYPE svg PUBLIC "-//W3C//DTD SVG 20010904//EN"
 "http://www.w3.org/TR/2001/REC-SVG-20010904/DTD/svg10.dtd">
<svg version="1.0" xmlns="http://www.w3.org/2000/svg"
 width="326.000000pt" height="716.000000pt" viewBox="0 0 326.000000 716.000000"
 preserveAspectRatio="xMidYMid meet">
<metadata>
Created by potrace 1.16, written by Peter Selinger 2001-2019
</metadata>
<g transform="translate(0.000000,716.000000) scale(0.100000,-0.100000)"
fill="#000000" stroke="none">
<path d="M2158 7140 c-258 -64 -458 -243 -557 -500 -16 -42 -99 -354 -185
-695 -85 -341 -439 -1749 -786 -3129 -552 -2199 -629 -2513 -620 -2544 18 -68
35 -76 347 -178 321 -105 337 -108 393 -56 24 22 255 586 1239 3019 666 1645
1219 3027 1230 3070 43 166 37 319 -18 474 -38 107 -84 180 -171 272 -123 131
-271 216 -454 262 -126 32 -299 34 -418 5z"/>
</g>
</svg>
