<?xml version="1.0" standalone="no"?>
<!DOCTYPE svg PUBLIC "-//W3C//DTD SVG 20010904//EN"
 "http://www.w3.org/TR/2001/REC-SVG-20010904/DTD/svg10.dtd">
<svg version="1.0" xmlns="http://www.w3.org/2000/svg"
 width="922.000000pt" height="592.000000pt" viewBox="0 0 922.000000 592.000000"
 preserveAspectRatio="xMidYMid meet">
<metadata>
Created by potrace 1.16, written by Peter Selinger 2001-2019
</metadata>
<g transform="translate(0.000000,592.000000) scale(0.100000,-0.100000)"
fill="#000000" stroke="none">
<path d="M2050 5909 c-205 -21 -456 -84 -653 -164 -727 -297 -1231 -928 -1361
-1705 -44 -266 -47 -522 -7 -638 54 -156 139 -217 228 -162 78 47 121 167 133
370 14 222 43 337 130 515 218 444 684 802 1223 940 608 155 1181 66 1867
-292 225 -117 456 -260 945 -583 248 -164 529 -345 625 -402 693 -417 1230
-584 1810 -565 203 7 333 25 516 72 882 226 1519 916 1668 1805 44 266 47 522
7 638 -40 118 -98 182 -164 182 -110 0 -181 -143 -197 -395 -14 -219 -44 -334
-130 -510 -218 -444 -684 -802 -1223 -940 -608 -155 -1181 -66 -1867 292 -225
117 -456 260 -945 583 -489 323 -720 466 -945 583 -417 218 -803 341 -1178
377 -125 12 -360 11 -482 -1z"/>
<path d="M2050 2689 c-205 -21 -456 -84 -653 -164 -727 -297 -1231 -928 -1361
-1705 -44 -266 -47 -522 -7 -638 54 -156 139 -217 228 -162 78 47 121 167 133
370 14 222 43 337 130 515 218 444 684 802 1223 940 608 155 1181 66 1867
-292 225 -117 456 -260 945 -583 248 -164 529 -345 625 -402 693 -417 1230
-584 1810 -565 203 7 333 25 516 72 882 226 1520 917 1668 1805 39 235 47 451
21 575 -30 141 -104 245 -177 245 -111 0 -182 -142 -198 -395 -14 -219 -44
-334 -130 -510 -218 -444 -684 -802 -1223 -940 -608 -155 -1181 -66 -1867 292
-225 117 -456 260 -945 583 -489 323 -720 466 -945 583 -417 218 -803 341
-1178 377 -125 12 -360 11 -482 -1z"/>
</g>
</svg>
