<?xml version="1.0" standalone="no"?>
<!DOCTYPE svg PUBLIC "-//W3C//DTD SVG 20010904//EN"
 "http://www.w3.org/TR/2001/REC-SVG-20010904/DTD/svg10.dtd">
<svg version="1.0" xmlns="http://www.w3.org/2000/svg"
 width="57.000000pt" height="1384.000000pt" viewBox="0 0 57.000000 1384.000000"
 preserveAspectRatio="xMidYMid meet">
<metadata>
Created by potrace 1.16, written by Peter Selinger 2001-2019
</metadata>
<g transform="translate(0.000000,1384.000000) scale(0.100000,-0.100000)"
fill="#000000" stroke="none">
<path d="M180 13823 c-66 -24 -144 -106 -164 -173 -15 -49 -16 -670 -16 -6730
0 -6060 1 -6681 16 -6730 31 -105 149 -190 264 -190 115 0 233 85 264 190 15
49 16 670 16 6730 0 6060 -1 6681 -16 6730 -21 70 -98 149 -168 173 -61 21
-136 21 -196 0z"/>
</g>
</svg>
