<?xml version="1.0" standalone="no"?>
<!DOCTYPE svg PUBLIC "-//W3C//DTD SVG 20010904//EN"
 "http://www.w3.org/TR/2001/REC-SVG-20010904/DTD/svg10.dtd">
<svg version="1.0" xmlns="http://www.w3.org/2000/svg"
 width="838.000000pt" height="1028.000000pt" viewBox="0 0 838.000000 1028.000000"
 preserveAspectRatio="xMidYMid meet">
<metadata>
Created by potrace 1.16, written by Peter Selinger 2001-2019
</metadata>
<g transform="translate(0.000000,1028.000000) scale(0.100000,-0.100000)"
fill="#000000" stroke="none">
<path d="M350 10271 c-69 -21 -140 -82 -176 -151 -18 -34 -19 -146 -19 -3690
0 -3614 0 -3655 20 -3695 25 -50 80 -105 130 -130 40 -20 85 -20 3930 -23
2761 -2 3903 1 3934 8 96 24 173 105 194 206 24 115 -29 229 -133 288 l-55 31
-3742 3 -3743 2 0 3310 0 3310 3743 2 c3698 3 3742 3 3782 23 50 25 105 80
130 130 27 55 27 175 0 230 -25 50 -80 105 -130 130 -40 20 -84 20 -3940 22
-2145 1 -3911 -2 -3925 -6z"/>
<path d="M200 531 c-51 -16 -89 -41 -133 -91 -117 -130 -73 -335 88 -415 40
-20 83 -20 4030 -20 3947 0 3990 0 4030 20 50 25 105 80 130 130 28 58 27 176
-2 230 -25 47 -84 105 -133 131 -34 18 -156 19 -4010 21 -2186 1 -3986 -2
-4000 -6z"/>
</g>
</svg>
