<?xml version="1.0" standalone="no"?>
<!DOCTYPE svg PUBLIC "-//W3C//DTD SVG 20010904//EN"
 "http://www.w3.org/TR/2001/REC-SVG-20010904/DTD/svg10.dtd">
<svg version="1.0" xmlns="http://www.w3.org/2000/svg"
 width="925.000000pt" height="946.000000pt" viewBox="0 0 925.000000 946.000000"
 preserveAspectRatio="xMidYMid meet">
<metadata>
Created by potrace 1.16, written by Peter Selinger 2001-2019
</metadata>
<g transform="translate(0.000000,946.000000) scale(0.100000,-0.100000)"
fill="#000000" stroke="none">
<path d="M4850 9449 c-1494 -51 -2483 -352 -3294 -1003 -358 -288 -613 -635
-736 -1002 -65 -196 -63 -237 15 -281 28 -16 57 -23 97 -23 258 -1 673 196
935 443 113 108 152 170 201 320 58 179 123 302 210 399 42 47 139 85 346 138
496 126 1103 170 2370 170 l638 0 -63 -71 c-427 -475 -734 -1075 -1058 -2061
-159 -484 -273 -900 -575 -2093 -263 -1040 -358 -1383 -516 -1849 -253 -748
-541 -1314 -816 -1605 -57 -60 -62 -62 -124 -71 -36 -5 -374 -10 -752 -10
-751 0 -739 1 -913 -60 -238 -84 -483 -237 -650 -405 -178 -178 -211 -319 -86
-371 28 -12 412 -14 2631 -14 1700 0 2634 4 2701 10 719 71 1455 395 1992 875
247 221 434 488 511 733 30 96 32 122 10 163 -22 43 -68 59 -167 59 -259 0
-681 -205 -931 -453 -93 -92 -141 -165 -167 -252 -25 -82 -85 -202 -108 -214
-32 -17 -198 -50 -300 -61 -66 -6 -592 -10 -1473 -10 l-1369 0 84 79 c46 44
132 135 190 203 400 460 709 1052 998 1906 169 502 259 823 525 1877 108 424
224 880 260 1015 343 1292 664 2122 1006 2598 l59 82 834 0 c553 0 852 4 887
11 274 55 609 238 819 448 153 154 203 265 148 335 -47 60 109 56 -2106 54
-1115 0 -2134 -5 -2263 -9z"/>
</g>
</svg>
