<?xml version="1.0" standalone="no"?>
<!DOCTYPE svg PUBLIC "-//W3C//DTD SVG 20010904//EN"
 "http://www.w3.org/TR/2001/REC-SVG-20010904/DTD/svg10.dtd">
<svg version="1.0" xmlns="http://www.w3.org/2000/svg"
 width="811.000000pt" height="1028.000000pt" viewBox="0 0 811.000000 1028.000000"
 preserveAspectRatio="xMidYMid meet">
<metadata>
Created by potrace 1.16, written by Peter Selinger 2001-2019
</metadata>
<g transform="translate(0.000000,1028.000000) scale(0.100000,-0.100000)"
fill="#000000" stroke="none">
<path d="M191 10269 c-52 -16 -114 -63 -145 -109 -79 -120 -48 -291 68 -369
23 -15 1624 -776 3558 -1692 1935 -915 3518 -1666 3518 -1669 0 -3 -1588 -756
-3528 -1674 -3522 -1667 -3527 -1669 -3583 -1726 -45 -45 -59 -67 -69 -109
-23 -98 2 -193 70 -261 56 -56 103 -75 190 -75 l75 0 3800 1799 c2090 990
3818 1812 3841 1827 120 81 148 256 61 377 -26 37 -53 57 -123 93 -49 26
-1773 844 -3832 1819 -3545 1678 -3747 1773 -3805 1776 -34 2 -77 -1 -96 -7z"/>
<path d="M200 531 c-69 -21 -140 -82 -176 -151 -26 -50 -26 -171 1 -225 25
-50 80 -105 130 -130 40 -20 82 -20 3895 -20 3813 0 3855 0 3895 20 50 25 105
80 130 130 28 58 27 176 -2 230 -25 47 -84 105 -133 131 -34 18 -152 19 -3875
21 -2112 1 -3851 -2 -3865 -6z"/>
</g>
</svg>
