<?xml version="1.0" standalone="no"?>
<!DOCTYPE svg PUBLIC "-//W3C//DTD SVG 20010904//EN"
 "http://www.w3.org/TR/2001/REC-SVG-20010904/DTD/svg10.dtd">
<svg version="1.0" xmlns="http://www.w3.org/2000/svg"
 width="835.000000pt" height="971.000000pt" viewBox="0 0 835.000000 971.000000"
 preserveAspectRatio="xMidYMid meet">
<metadata>
Created by potrace 1.16, written by Peter Selinger 2001-2019
</metadata>
<g transform="translate(0.000000,971.000000) scale(0.100000,-0.100000)"
fill="#000000" stroke="none">
<path d="M745 9699 c-266 -65 -567 -255 -684 -430 -51 -77 -66 -128 -51 -175
18 -53 62 -70 201 -78 317 -17 581 -98 817 -252 458 -298 803 -859 1026 -1667
323 -1171 390 -2864 195 -4927 -58 -620 -163 -1425 -224 -1725 -34 -163 -32
-313 3 -382 39 -74 78 -81 168 -27 132 78 660 487 1047 812 1628 1364 3011
2835 3854 4097 570 854 942 1645 1137 2421 197 780 118 1425 -228 1869 -225
287 -556 452 -946 472 -139 7 -167 -3 -252 -96 -183 -197 -348 -631 -351 -921
-1 -116 11 -170 50 -211 22 -24 33 -27 125 -33 238 -15 450 -83 623 -199 76
-51 219 -194 268 -270 134 -202 190 -389 190 -632 0 -140 -2 -158 -32 -258
-87 -297 -283 -695 -545 -1109 -676 -1066 -1894 -2399 -3336 -3652 -203 -176
-585 -496 -609 -510 -10 -7 -12 -2 -7 20 9 43 62 526 85 774 83 873 118 1658
108 2405 -7 479 -16 678 -47 1057 -130 1561 -536 2656 -1185 3197 -263 219
-570 360 -905 416 -113 19 -438 29 -495 14z"/>
</g>
</svg>
