<?xml version="1.0" standalone="no"?>
<!DOCTYPE svg PUBLIC "-//W3C//DTD SVG 20010904//EN"
 "http://www.w3.org/TR/2001/REC-SVG-20010904/DTD/svg10.dtd">
<svg version="1.0" xmlns="http://www.w3.org/2000/svg"
 width="990.000000pt" height="1024.000000pt" viewBox="0 0 990.000000 1024.000000"
 preserveAspectRatio="xMidYMid meet">
<metadata>
Created by potrace 1.16, written by Peter Selinger 2001-2019
</metadata>
<g transform="translate(0.000000,1024.000000) scale(0.100000,-0.100000)"
fill="#000000" stroke="none">
<path d="M4360 10233 c-833 -44 -1671 -255 -2386 -602 -1028 -500 -1728 -1213
-1945 -1980 -42 -151 -27 -210 65 -252 52 -24 187 -25 292 -3 358 73 811 372
948 624 14 27 40 95 57 152 37 127 111 283 186 397 72 108 206 245 301 306
238 153 624 282 1063 354 178 30 466 61 557 61 l45 0 -7 -82 c-4 -46 -21 -209
-37 -363 -293 -2767 -1040 -5668 -2160 -8390 -112 -272 -122 -321 -84 -378 79
-121 364 -98 685 54 255 122 496 310 598 467 58 90 344 800 572 1417 801 2176
1350 4341 1655 6520 24 178 95 738 95 758 0 16 864 2 1060 -17 1388 -139 2265
-636 2525 -1431 47 -144 60 -242 59 -455 0 -172 -4 -210 -28 -325 -94 -450
-288 -860 -586 -1235 -106 -133 -334 -360 -470 -469 -467 -371 -1066 -624
-1755 -740 -170 -29 -386 -49 -635 -60 -179 -8 -230 -14 -305 -35 -451 -125
-925 -511 -925 -753 0 -61 28 -101 94 -135 39 -20 50 -21 286 -15 1444 37
3024 662 4175 1652 654 562 1130 1221 1365 1888 173 493 212 908 121 1292
-127 535 -516 985 -1118 1293 -502 257 -999 394 -1698 468 -141 15 -308 18
-1380 19 -671 1 -1249 0 -1285 -2z"/>
</g>
</svg>
