<?xml version="1.0" standalone="no"?>
<!DOCTYPE svg PUBLIC "-//W3C//DTD SVG 20010904//EN"
 "http://www.w3.org/TR/2001/REC-SVG-20010904/DTD/svg10.dtd">
<svg version="1.0" xmlns="http://www.w3.org/2000/svg"
 width="877.000000pt" height="1019.000000pt" viewBox="0 0 877.000000 1019.000000"
 preserveAspectRatio="xMidYMid meet">
<metadata>
Created by potrace 1.16, written by Peter Selinger 2001-2019
</metadata>
<g transform="translate(0.000000,1019.000000) scale(0.100000,-0.100000)"
fill="#000000" stroke="none">
<path d="M820 10174 c-269 -57 -587 -255 -727 -451 -121 -169 -121 -293 -3
-361 45 -26 63 -30 175 -36 287 -15 567 -91 767 -208 436 -253 802 -783 1035
-1498 385 -1183 488 -2925 303 -5120 -56 -658 -169 -1581 -235 -1915 -45 -229
-41 -386 11 -492 33 -69 68 -93 133 -93 67 0 93 14 276 147 567 411 1362 1081
2085 1756 259 243 905 886 1127 1124 1525 1632 2434 3055 2834 4436 196 679
209 1268 38 1753 -166 470 -529 816 -973 929 -194 49 -406 59 -482 24 -273
-129 -570 -808 -525 -1201 12 -103 41 -177 86 -216 29 -26 41 -29 132 -35 546
-36 926 -327 1060 -813 24 -88 27 -116 27 -249 0 -145 -1 -154 -38 -270 -369
-1174 -1767 -2914 -3773 -4698 -211 -188 -655 -568 -659 -564 -1 1 9 95 22
210 185 1659 203 3300 48 4490 -165 1274 -506 2171 -1039 2736 -266 282 -682
516 -1052 590 -205 42 -521 54 -653 25z"/>
</g>
</svg>
