<?xml version="1.0" standalone="no"?>
<!DOCTYPE svg PUBLIC "-//W3C//DTD SVG 20010904//EN"
 "http://www.w3.org/TR/2001/REC-SVG-20010904/DTD/svg10.dtd">
<svg version="1.0" xmlns="http://www.w3.org/2000/svg"
 width="811.000000pt" height="1028.000000pt" viewBox="0 0 811.000000 1028.000000"
 preserveAspectRatio="xMidYMid meet">
<metadata>
Created by potrace 1.16, written by Peter Selinger 2001-2019
</metadata>
<g transform="translate(0.000000,1028.000000) scale(0.100000,-0.100000)"
fill="#000000" stroke="none">
<path d="M7735 10261 c-61 -23 -7505 -3549 -7590 -3595 -74 -40 -121 -102
-137 -180 -23 -106 21 -218 106 -275 23 -15 1749 -836 3837 -1824 2964 -1403
3808 -1799 3847 -1804 139 -16 266 75 295 212 23 112 -28 229 -124 284 -27 15
-1626 774 -3554 1687 -1927 912 -3505 1661 -3505 1664 0 3 1583 754 3518 1669
1934 916 3535 1677 3558 1692 85 57 129 169 107 274 -35 163 -201 254 -358
196z"/>
<path d="M200 531 c-69 -21 -140 -82 -176 -151 -26 -50 -26 -171 1 -225 25
-50 80 -105 130 -130 40 -20 82 -20 3895 -20 3813 0 3855 0 3895 20 50 25 105
80 130 130 28 58 27 176 -2 230 -25 47 -84 105 -133 131 -34 18 -152 19 -3875
21 -2112 1 -3851 -2 -3865 -6z"/>
</g>
</svg>
