<?xml version="1.0" standalone="no"?>
<!DOCTYPE svg PUBLIC "-//W3C//DTD SVG 20010904//EN"
 "http://www.w3.org/TR/2001/REC-SVG-20010904/DTD/svg10.dtd">
<svg version="1.0" xmlns="http://www.w3.org/2000/svg"
 width="701.000000pt" height="1180.000000pt" viewBox="0 0 701.000000 1180.000000"
 preserveAspectRatio="xMidYMid meet">
<metadata>
Created by potrace 1.16, written by Peter Selinger 2001-2019
</metadata>
<g transform="translate(0.000000,1180.000000) scale(0.100000,-0.100000)"
fill="#000000" stroke="none">
<path d="M3020 11789 c-151 -13 -403 -56 -564 -96 -865 -217 -1612 -761 -2045
-1491 -207 -349 -333 -715 -392 -1142 -18 -128 -18 -556 0 -675 51 -343 127
-585 270 -861 134 -257 282 -457 510 -685 391 -390 874 -682 1496 -904 423
-151 1007 -267 1463 -291 l122 -7 2 -2721 c3 -2683 3 -2722 23 -2761 25 -50
80 -105 130 -130 55 -27 175 -27 230 0 50 25 105 80 130 130 20 40 20 94 23
5573 l2 5532 465 0 465 0 2 -5532 c3 -5479 3 -5533 23 -5573 25 -50 80 -105
130 -130 29 -14 61 -20 115 -20 54 0 86 6 115 20 50 25 105 80 130 130 20 40
20 94 23 5572 l2 5532 458 3 c431 3 459 4 497 23 50 25 105 80 130 130 27 55
27 175 0 230 -25 50 -80 105 -130 130 -39 20 -72 20 -1880 21 -1012 1 -1887
-3 -1945 -7z"/>
</g>
</svg>
