<?xml version="1.0" standalone="no"?>
<!DOCTYPE svg PUBLIC "-//W3C//DTD SVG 20010904//EN"
 "http://www.w3.org/TR/2001/REC-SVG-20010904/DTD/svg10.dtd">
<svg version="1.0" xmlns="http://www.w3.org/2000/svg"
 width="692.000000pt" height="961.000000pt" viewBox="0 0 692.000000 961.000000"
 preserveAspectRatio="xMidYMid meet">
<metadata>
Created by potrace 1.16, written by Peter Selinger 2001-2019
</metadata>
<g transform="translate(0.000000,961.000000) scale(0.100000,-0.100000)"
fill="#000000" stroke="none">
<path d="M210 9601 c-83 -26 -141 -74 -181 -151 l-24 -45 0 -4600 0 -4600 27
-50 c91 -173 308 -207 444 -70 92 92 84 -127 84 2302 l0 2143 3070 0 c2694 0
3075 2 3106 15 58 24 108 70 140 127 25 46 29 63 29 133 0 70 -4 87 -29 133
-32 57 -81 102 -143 130 -36 16 -218 17 -3105 20 l-3068 2 0 2138 c0 2423 8
2205 -83 2297 -74 73 -178 103 -267 76z"/>
</g>
</svg>
