<?xml version="1.0" standalone="no"?>
<!DOCTYPE svg PUBLIC "-//W3C//DTD SVG 20010904//EN"
 "http://www.w3.org/TR/2001/REC-SVG-20010904/DTD/svg10.dtd">
<svg version="1.0" xmlns="http://www.w3.org/2000/svg"
 width="768.000000pt" height="370.000000pt" viewBox="0 0 768.000000 370.000000"
 preserveAspectRatio="xMidYMid meet">
<metadata>
Created by potrace 1.16, written by Peter Selinger 2001-2019
</metadata>
<g transform="translate(0.000000,370.000000) scale(0.100000,-0.100000)"
fill="#000000" stroke="none">
<path d="M180 3683 c-66 -24 -144 -106 -164 -173 -33 -112 -11 -206 67 -285
95 -94 -303 -85 3589 -85 l3438 0 2 -1467 3 -1468 27 -50 c53 -101 134 -150
248 -150 116 1 196 50 251 155 l24 45 3 1625 c3 1847 10 1694 -81 1785 -95 95
325 85 -3756 84 -3258 -1 -3610 -2 -3651 -16z"/>
</g>
</svg>
