<?xml version="1.0" standalone="no"?>
<!DOCTYPE svg PUBLIC "-//W3C//DTD SVG 20010904//EN"
 "http://www.w3.org/TR/2001/REC-SVG-20010904/DTD/svg10.dtd">
<svg version="1.0" xmlns="http://www.w3.org/2000/svg"
 width="923.000000pt" height="1232.000000pt" viewBox="0 0 923.000000 1232.000000"
 preserveAspectRatio="xMidYMid meet">
<metadata>
Created by potrace 1.16, written by Peter Selinger 2001-2019
</metadata>
<g transform="translate(0.000000,1232.000000) scale(0.100000,-0.100000)"
fill="#000000" stroke="none">
<path d="M4513 12303 c-88 -31 -120 -75 -274 -378 -987 -1949 -2163 -3601
-3549 -4985 -162 -163 -371 -365 -464 -450 -200 -184 -220 -214 -220 -330 0
-116 20 -146 220 -330 93 -85 302 -287 464 -450 1386 -1384 2562 -3036 3549
-4985 116 -228 150 -288 186 -322 105 -97 265 -97 370 0 36 34 70 94 186 322
986 1946 2161 3597 3544 4980 159 160 370 364 467 454 207 190 223 214 223
331 0 117 -16 141 -223 331 -97 90 -308 294 -467 454 -1383 1383 -2558 3034
-3544 4980 -116 228 -150 288 -186 322 -74 69 -185 91 -282 56z m177 -1036
c497 -943 1129 -1941 1752 -2771 562 -747 1057 -1317 1719 -1978 l358 -358
-358 -357 c-662 -662 -1157 -1232 -1719 -1979 -623 -830 -1255 -1828 -1752
-2771 -41 -79 -77 -143 -80 -143 -3 0 -39 64 -80 143 -497 943 -1129 1941
-1752 2771 -562 747 -1057 1317 -1719 1979 l-358 357 358 358 c662 661 1157
1231 1719 1978 623 830 1255 1828 1752 2771 41 79 77 143 80 143 3 0 39 -64
80 -143z"/>
</g>
</svg>
