<?xml version="1.0" standalone="no"?>
<!DOCTYPE svg PUBLIC "-//W3C//DTD SVG 20010904//EN"
 "http://www.w3.org/TR/2001/REC-SVG-20010904/DTD/svg10.dtd">
<svg version="1.0" xmlns="http://www.w3.org/2000/svg"
 width="331.000000pt" height="1328.000000pt" viewBox="0 0 331.000000 1328.000000"
 preserveAspectRatio="xMidYMid meet">
<metadata>
Created by potrace 1.16, written by Peter Selinger 2001-2019
</metadata>
<g transform="translate(0.000000,1328.000000) scale(0.100000,-0.100000)"
fill="#000000" stroke="none">
<path d="M200 13271 c-71 -23 -140 -82 -176 -151 -18 -34 -19 -216 -19 -6480
0 -6264 1 -6446 19 -6480 26 -49 84 -108 131 -133 l40 -22 1455 0 c1427 0
1456 0 1495 20 50 25 105 80 130 130 27 55 27 175 0 230 -25 50 -80 105 -130
130 -39 20 -70 20 -1322 23 l-1283 2 -2 6273 c-3 6214 -3 6272 -23 6312 -25
51 -80 106 -130 129 -43 21 -146 30 -185 17z"/>
</g>
</svg>
