<?xml version="1.0" standalone="no"?>
<!DOCTYPE svg PUBLIC "-//W3C//DTD SVG 20010904//EN"
 "http://www.w3.org/TR/2001/REC-SVG-20010904/DTD/svg10.dtd">
<svg version="1.0" xmlns="http://www.w3.org/2000/svg"
 width="738.000000pt" height="825.000000pt" viewBox="0 0 738.000000 825.000000"
 preserveAspectRatio="xMidYMid meet">
<metadata>
Created by potrace 1.16, written by Peter Selinger 2001-2019
</metadata>
<g transform="translate(0.000000,825.000000) scale(0.100000,-0.100000)"
fill="#000000" stroke="none">
<path d="M191 8238 c-119 -34 -203 -162 -188 -288 4 -35 484 -1128 1713 -3902
938 -2119 1715 -3871 1726 -3893 102 -204 384 -204 486 0 11 22 789 1775 1728
3895 l1708 3855 1 75 c0 87 -19 134 -75 190 -68 68 -163 93 -261 70 -42 -10
-64 -24 -109 -69 -57 -56 -57 -56 -387 -801 -1326 -2997 -2847 -6429 -2849
-6427 -1 1 -712 1604 -1579 3562 -867 1958 -1589 3582 -1603 3609 -58 106
-190 159 -311 124z"/>
</g>
</svg>
