<?xml version="1.0" standalone="no"?>
<!DOCTYPE svg PUBLIC "-//W3C//DTD SVG 20010904//EN"
 "http://www.w3.org/TR/2001/REC-SVG-20010904/DTD/svg10.dtd">
<svg version="1.0" xmlns="http://www.w3.org/2000/svg"
 width="1041.000000pt" height="974.000000pt" viewBox="0 0 1041.000000 974.000000"
 preserveAspectRatio="xMidYMid meet">
<metadata>
Created by potrace 1.16, written by Peter Selinger 2001-2019
</metadata>
<g transform="translate(0.000000,974.000000) scale(0.100000,-0.100000)"
fill="#000000" stroke="none">
<path d="M3726 9730 c-607 -46 -1192 -208 -1729 -477 -876 -438 -1534 -1070
-1923 -1846 -73 -146 -85 -188 -64 -228 35 -64 192 -66 371 -6 233 78 482 229
639 386 89 90 101 106 178 255 211 404 448 700 694 867 249 170 716 280 1198
283 152 1 197 -2 250 -17 202 -57 342 -207 385 -412 20 -94 19 -122 -10 -416
-66 -655 -165 -1293 -302 -1934 -44 -207 -190 -817 -244 -1017 l-10 -38 -260
0 c-292 0 -352 -8 -504 -66 -223 -86 -423 -213 -577 -364 -176 -173 -203 -271
-91 -329 15 -8 197 -11 623 -11 568 0 601 -1 596 -17 -3 -10 -37 -128 -76
-263 -350 -1211 -835 -2650 -1250 -3705 -60 -155 -63 -192 -18 -230 32 -27 35
-27 138 -23 86 4 124 11 211 41 295 99 623 322 742 503 41 62 335 839 570
1509 215 609 433 1278 617 1890 l88 290 1593 5 c1792 6 1606 -3 1822 85 84 34
107 40 103 27 -34 -106 -216 -827 -281 -1107 -206 -891 -397 -2144 -399 -2615
-1 -136 2 -164 22 -230 60 -190 180 -336 347 -422 164 -84 208 -93 450 -92
617 3 1209 141 1700 398 354 185 679 446 855 686 122 167 240 454 212 515 -18
39 -69 65 -130 65 -234 0 -628 -189 -875 -420 -86 -80 -141 -164 -168 -253
-12 -40 -30 -88 -40 -109 -17 -33 -24 -38 -86 -52 -178 -40 -567 -73 -673 -57
-232 36 -386 185 -436 423 -18 82 -16 142 17 458 87 853 240 1714 460 2595
408 1630 929 3288 1560 4964 82 217 149 409 149 426 0 139 -252 124 -575 -35
-77 -37 -183 -97 -235 -132 -126 -84 -288 -240 -327 -315 -17 -32 -98 -238
-181 -458 -450 -1200 -794 -2232 -1152 -3462 l-33 -113 -1739 0 c-956 0 -1738
2 -1738 4 0 2 32 123 71 268 342 1274 524 2233 630 3313 25 259 22 394 -11
500 -77 247 -258 415 -535 497 -60 18 -102 21 -290 23 -121 2 -269 -1 -329 -5z"/>
</g>
</svg>
