<?xml version="1.0" standalone="no"?>
<!DOCTYPE svg PUBLIC "-//W3C//DTD SVG 20010904//EN"
 "http://www.w3.org/TR/2001/REC-SVG-20010904/DTD/svg10.dtd">
<svg version="1.0" xmlns="http://www.w3.org/2000/svg"
 width="442.000000pt" height="1225.000000pt" viewBox="0 0 442.000000 1225.000000"
 preserveAspectRatio="xMidYMid meet">
<metadata>
Created by potrace 1.16, written by Peter Selinger 2001-2019
</metadata>
<g transform="translate(0.000000,1225.000000) scale(0.100000,-0.100000)"
fill="#000000" stroke="none">
<path d="M2081 12234 c-168 -45 -283 -163 -328 -337 -13 -52 -15 -97 -9 -282
10 -376 46 -712 156 -1457 94 -638 132 -966 146 -1272 7 -133 6 -138 -12 -133
-10 3 -46 8 -79 12 -102 11 -320 60 -575 130 -435 118 -604 151 -825 162 -153
7 -216 -4 -314 -53 -320 -160 -320 -658 0 -818 98 -49 161 -60 314 -53 221 11
390 44 825 162 255 70 473 119 575 130 33 4 68 9 79 12 17 5 18 0 11 -88 -17
-237 -54 -479 -145 -954 -67 -352 -112 -618 -136 -815 -48 -397 -16 -2303 66
-3865 58 -1086 174 -2586 206 -2648 27 -50 68 -67 169 -67 101 0 142 17 169
67 32 62 148 1562 206 2648 82 1562 114 3468 66 3865 -24 197 -69 463 -136
815 -91 475 -128 717 -145 954 -7 88 -6 93 11 88 11 -3 46 -8 79 -12 102 -11
320 -60 575 -130 435 -118 604 -151 825 -162 153 -7 216 4 314 53 320 160 320
658 0 818 -98 49 -161 60 -314 53 -221 -11 -390 -44 -825 -162 -255 -70 -473
-119 -575 -130 -33 -4 -69 -9 -79 -12 -18 -5 -19 0 -12 133 14 306 52 634 146
1272 110 745 146 1081 156 1457 7 242 1 293 -52 396 -91 181 -325 279 -533
223z"/>
</g>
</svg>
