<?xml version="1.0" standalone="no"?>
<!DOCTYPE svg PUBLIC "-//W3C//DTD SVG 20010904//EN"
 "http://www.w3.org/TR/2001/REC-SVG-20010904/DTD/svg10.dtd">
<svg version="1.0" xmlns="http://www.w3.org/2000/svg"
 width="832.000000pt" height="968.000000pt" viewBox="0 0 832.000000 968.000000"
 preserveAspectRatio="xMidYMid meet">
<metadata>
Created by potrace 1.16, written by Peter Selinger 2001-2019
</metadata>
<g transform="translate(0.000000,968.000000) scale(0.100000,-0.100000)"
fill="#000000" stroke="none">
<path d="M6440 9669 c-735 -76 -1541 -443 -2230 -1018 -142 -118 -408 -382
-519 -516 -426 -512 -771 -1119 -1084 -1910 -270 -682 -503 -1443 -816 -2670
-66 -258 -140 -537 -165 -620 -200 -667 -483 -1291 -813 -1794 -158 -241 -228
-328 -393 -491 -171 -169 -247 -258 -345 -406 -66 -100 -85 -156 -65 -193 76
-142 588 28 1000 332 52 39 161 136 242 215 l148 146 187 -13 c444 -28 893
-115 1538 -296 883 -248 1121 -307 1492 -370 309 -52 815 -80 1013 -56 234 29
488 98 738 200 436 180 892 472 1235 792 220 206 442 499 561 742 57 115 146
367 146 411 0 14 -11 38 -24 53 -24 27 -26 28 -128 27 -92 -1 -116 -5 -228
-42 -335 -111 -735 -370 -886 -575 -32 -43 -53 -88 -78 -170 -65 -206 -178
-416 -294 -547 l-40 -45 -193 1 c-346 2 -715 56 -1204 174 -183 44 -389 100
-940 255 -277 78 -607 159 -814 200 -560 112 -1092 135 -1430 60 l-31 -7 75
116 c225 345 450 789 622 1226 148 375 232 651 394 1285 207 810 361 1358 521
1844 394 1206 846 2086 1321 2578 141 145 175 168 298 197 205 49 419 56 580
20 279 -63 491 -278 593 -604 46 -145 60 -250 60 -455 0 -184 -5 -228 -46
-455 -6 -36 -8 -78 -5 -93 10 -38 54 -57 129 -57 317 0 990 386 1156 662 87
146 129 655 77 943 -44 244 -151 470 -296 629 -130 143 -342 254 -555 291 -95
17 -359 18 -504 4z"/>
</g>
</svg>
