<?xml version="1.0" standalone="no"?>
<!DOCTYPE svg PUBLIC "-//W3C//DTD SVG 20010904//EN"
 "http://www.w3.org/TR/2001/REC-SVG-20010904/DTD/svg10.dtd">
<svg version="1.0" xmlns="http://www.w3.org/2000/svg"
 width="811.000000pt" height="770.000000pt" viewBox="0 0 811.000000 770.000000"
 preserveAspectRatio="xMidYMid meet">
<metadata>
Created by potrace 1.16, written by Peter Selinger 2001-2019
</metadata>
<g transform="translate(0.000000,770.000000) scale(0.100000,-0.100000)"
fill="#000000" stroke="none">
<path d="M3790 7693 c-498 -36 -969 -149 -1403 -334 -480 -206 -895 -487
-1268 -859 -315 -315 -538 -620 -725 -992 -526 -1048 -526 -2268 0 -3316 187
-372 410 -677 725 -992 661 -660 1488 -1054 2471 -1177 136 -17 277 -18 2230
-18 2053 0 2086 0 2125 20 50 25 105 80 130 130 14 29 20 61 20 115 0 54 -6
86 -20 115 -25 50 -80 105 -130 130 -39 20 -78 20 -2120 26 -2254 6 -2138 3
-2440 59 -1011 190 -1886 783 -2392 1623 -74 123 -194 368 -248 507 -47 121
-117 364 -144 500 -99 507 -78 1000 64 1495 210 734 701 1390 1370 1831 478
315 1003 506 1595 581 122 16 334 18 2205 23 2033 5 2071 5 2110 25 50 25 105
80 130 130 27 55 27 175 0 230 -25 50 -80 105 -130 130 -39 20 -72 20 -2075
21 -1119 0 -2055 -1 -2080 -3z"/>
</g>
</svg>
