<?xml version="1.0" standalone="no"?>
<!DOCTYPE svg PUBLIC "-//W3C//DTD SVG 20010904//EN"
 "http://www.w3.org/TR/2001/REC-SVG-20010904/DTD/svg10.dtd">
<svg version="1.0" xmlns="http://www.w3.org/2000/svg"
 width="1008.000000pt" height="908.000000pt" viewBox="0 0 1008.000000 908.000000"
 preserveAspectRatio="xMidYMid meet">
<metadata>
Created by potrace 1.16, written by Peter Selinger 2001-2019
</metadata>
<g transform="translate(0.000000,908.000000) scale(0.100000,-0.100000)"
fill="#000000" stroke="none">
<path d="M4255 9065 c-372 -43 -720 -156 -1030 -335 -432 -248 -705 -533 -811
-844 -54 -157 -17 -202 155 -194 240 12 619 206 846 433 50 49 102 112 115
139 l25 48 120 -5 c163 -6 264 -34 361 -99 222 -148 365 -452 448 -953 37
-221 46 -312 156 -1480 55 -588 102 -1086 105 -1106 l5 -36 -398 -238 c-1639
-983 -2408 -1477 -3087 -1985 -343 -257 -537 -422 -756 -640 -216 -216 -326
-356 -404 -515 -78 -158 -99 -264 -99 -500 0 -209 10 -265 80 -413 77 -166
224 -284 406 -327 74 -17 215 -19 290 -4 328 66 773 350 892 569 21 38 26 61
24 97 -3 41 -7 50 -37 70 -21 15 -49 23 -75 23 -240 1 -393 193 -412 515 -6
98 10 246 36 336 71 248 742 763 2080 1598 528 330 1499 917 1504 909 1 -1 46
-473 100 -1048 131 -1408 153 -1619 181 -1802 60 -391 149 -666 280 -870 60
-93 201 -232 285 -281 158 -92 308 -127 539 -127 519 0 996 135 1431 405 314
195 578 463 679 688 67 149 77 228 35 268 -24 22 -33 24 -137 24 -99 -1 -123
-5 -207 -33 -320 -109 -657 -344 -763 -531 l-30 -54 -121 6 c-221 10 -334 55
-461 183 -198 198 -323 570 -390 1159 -30 263 -256 2698 -252 2710 3 6 38 31
79 55 578 342 1522 932 1988 1243 440 294 903 633 1185 868 211 175 508 473
614 614 110 147 183 297 213 435 18 86 22 137 22 285 0 209 -10 265 -80 413
-77 166 -224 284 -406 327 -74 17 -215 19 -290 4 -328 -66 -773 -350 -892
-569 -21 -38 -26 -61 -24 -97 3 -41 7 -50 37 -70 21 -15 49 -23 75 -23 240 -1
393 -193 412 -515 6 -98 -10 -246 -36 -336 -70 -245 -736 -759 -2040 -1574
-421 -263 -903 -556 -907 -551 -2 1 -48 479 -103 1062 -55 582 -107 1120 -115
1194 -105 901 -342 1320 -826 1461 -63 18 -105 22 -284 25 -136 2 -252 -2
-330 -11z"/>
</g>
</svg>
