<?xml version="1.0" standalone="no"?>
<!DOCTYPE svg PUBLIC "-//W3C//DTD SVG 20010904//EN"
 "http://www.w3.org/TR/2001/REC-SVG-20010904/DTD/svg10.dtd">
<svg version="1.0" xmlns="http://www.w3.org/2000/svg"
 width="1088.000000pt" height="938.000000pt" viewBox="0 0 1088.000000 938.000000"
 preserveAspectRatio="xMidYMid meet">
<metadata>
Created by potrace 1.16, written by Peter Selinger 2001-2019
</metadata>
<g transform="translate(0.000000,938.000000) scale(0.100000,-0.100000)"
fill="#000000" stroke="none">
<path d="M4125 9374 c-625 -43 -1110 -134 -1615 -304 -971 -325 -1794 -892
-2217 -1525 -118 -176 -228 -415 -275 -596 -25 -99 -21 -131 25 -160 28 -18
44 -20 132 -16 81 3 120 11 206 40 229 77 481 228 635 382 107 106 134 150
169 269 57 195 146 369 270 523 174 217 425 354 860 468 317 84 548 118 1009
150 l79 5 -7 -98 c-4 -53 -18 -207 -32 -342 -266 -2643 -960 -5316 -2068
-7960 -42 -100 -45 -138 -14 -167 37 -34 64 -43 122 -43 213 0 575 168 827
383 151 130 161 147 419 792 946 2365 1577 4813 1842 7146 l33 292 520 -6
c958 -11 1512 -65 2030 -196 971 -245 1349 -786 1169 -1671 -149 -729 -630
-1363 -1279 -1688 -419 -210 -914 -330 -1433 -347 -197 -7 -268 -18 -381 -57
-243 -85 -473 -227 -636 -392 -100 -101 -137 -167 -133 -233 4 -65 38 -88 145
-96 316 -25 578 -244 868 -728 157 -263 275 -511 580 -1219 101 -236 225 -515
274 -621 331 -706 626 -1088 976 -1259 172 -84 225 -95 470 -94 306 0 564 45
895 154 862 283 1678 873 2166 1566 89 126 113 175 114 225 0 36 -21 64 -67
88 -76 39 -344 -30 -563 -146 -228 -121 -411 -274 -521 -436 -125 -183 -284
-359 -417 -460 -129 -99 -297 -170 -476 -201 -277 -49 -450 -22 -628 96 -264
176 -514 530 -789 1119 -49 105 -172 383 -274 618 -399 926 -554 1229 -790
1537 l-62 81 191 75 c1201 476 2189 1280 2654 2158 174 328 290 704 323 1045
14 142 6 387 -16 495 -126 625 -647 1020 -1605 1215 -258 53 -641 97 -1090
126 -160 10 -2485 22 -2615 13z"/>
</g>
</svg>
