<?xml version="1.0" standalone="no"?>
<!DOCTYPE svg PUBLIC "-//W3C//DTD SVG 20010904//EN"
 "http://www.w3.org/TR/2001/REC-SVG-20010904/DTD/svg10.dtd">
<svg version="1.0" xmlns="http://www.w3.org/2000/svg"
 width="724.000000pt" height="1011.000000pt" viewBox="0 0 724.000000 1011.000000"
 preserveAspectRatio="xMidYMid meet">
<metadata>
Created by potrace 1.16, written by Peter Selinger 2001-2019
</metadata>
<g transform="translate(0.000000,1011.000000) scale(0.100000,-0.100000)"
fill="#000000" stroke="none">
<path d="M5785 10099 c-1101 -82 -2200 -532 -3142 -1285 -1175 -942 -1993
-2299 -2427 -4031 -219 -872 -272 -1739 -150 -2471 217 -1310 959 -2105 2134
-2289 181 -28 669 -25 884 5 807 115 1619 465 2341 1009 224 169 363 290 560
487 235 235 407 444 583 707 124 185 147 234 147 311 0 57 -3 70 -25 93 -47
50 -90 65 -192 65 -353 0 -889 -304 -1095 -620 -167 -256 -246 -359 -390 -510
-355 -373 -772 -576 -1278 -621 -340 -30 -817 62 -1120 216 -554 281 -937 813
-1120 1555 -115 469 -144 1083 -80 1678 108 987 494 2156 980 2967 239 400
465 696 745 975 537 538 1069 771 1874 821 169 11 205 10 309 -5 304 -43 417
-122 494 -343 25 -72 27 -91 27 -238 1 -229 -21 -321 -167 -691 -129 -328
-276 -642 -457 -977 -87 -161 -103 -196 -107 -245 -6 -73 17 -112 86 -147 199
-100 732 102 1061 403 132 121 183 201 394 617 178 349 367 786 465 1073 166
485 141 919 -67 1178 -127 157 -350 269 -614 308 -115 17 -454 20 -653 5z"/>
</g>
</svg>
