<?xml version="1.0" standalone="no"?>
<!DOCTYPE svg PUBLIC "-//W3C//DTD SVG 20010904//EN"
 "http://www.w3.org/TR/2001/REC-SVG-20010904/DTD/svg10.dtd">
<svg version="1.0" xmlns="http://www.w3.org/2000/svg"
 width="990.000000pt" height="1020.000000pt" viewBox="0 0 990.000000 1020.000000"
 preserveAspectRatio="xMidYMid meet">
<metadata>
Created by potrace 1.16, written by Peter Selinger 2001-2019
</metadata>
<g transform="translate(0.000000,1020.000000) scale(0.100000,-0.100000)"
fill="#000000" stroke="none">
<path d="M4250 10189 c-1340 -91 -2577 -576 -3436 -1348 -365 -329 -629 -711
-757 -1097 -70 -212 -70 -242 3 -292 33 -22 42 -24 145 -20 96 4 126 10 234
47 308 103 630 317 767 508 42 59 60 98 99 218 75 232 174 407 318 561 92 99
179 162 317 233 338 173 927 310 1440 336 69 3 135 8 147 11 19 3 21 0 17 -34
-2 -20 -13 -131 -24 -247 -92 -950 -273 -2118 -479 -3092 -394 -1860 -929
-3606 -1662 -5430 -83 -205 -153 -388 -156 -406 -11 -73 59 -136 153 -137 337
-2 944 347 1091 627 65 123 402 983 603 1538 816 2254 1383 4590 1654 6810 20
160 39 310 42 334 l6 43 496 -5 c511 -6 661 -14 967 -57 487 -68 968 -206
1295 -370 850 -427 1209 -1098 1034 -1933 -156 -743 -655 -1461 -1321 -1900
-599 -395 -1380 -627 -2203 -652 -220 -7 -282 -16 -415 -62 -406 -141 -816
-479 -819 -674 -1 -54 19 -82 73 -105 40 -17 242 -19 466 -4 1277 85 2621 599
3710 1417 650 489 1158 1067 1468 1670 110 216 161 337 231 552 102 315 143
579 133 856 -18 460 -186 837 -526 1175 -445 443 -1178 757 -2056 880 -379 53
-384 53 -1700 55 -676 2 -1286 -1 -1355 -6z"/>
</g>
</svg>
