<?xml version="1.0" standalone="no"?>
<!DOCTYPE svg PUBLIC "-//W3C//DTD SVG 20010904//EN"
 "http://www.w3.org/TR/2001/REC-SVG-20010904/DTD/svg10.dtd">
<svg version="1.0" xmlns="http://www.w3.org/2000/svg"
 width="1398.000000pt" height="1019.000000pt" viewBox="0 0 1398.000000 1019.000000"
 preserveAspectRatio="xMidYMid meet">
<metadata>
Created by potrace 1.16, written by Peter Selinger 2001-2019
</metadata>
<g transform="translate(0.000000,1019.000000) scale(0.100000,-0.100000)"
fill="#000000" stroke="none">
<path d="M815 10173 c-314 -67 -680 -325 -783 -553 -33 -73 -35 -152 -5 -201
33 -52 106 -89 177 -89 148 0 385 -40 538 -91 480 -159 851 -607 1093 -1320
405 -1192 431 -3148 74 -5589 -70 -479 -224 -1359 -263 -1505 -61 -227 -76
-293 -86 -380 -22 -185 7 -343 76 -412 29 -30 38 -33 91 -33 52 0 67 5 119 38
74 48 105 83 434 477 1906 2287 3565 4729 4954 7293 69 127 167 311 217 408
61 117 94 172 100 163 12 -22 141 -467 224 -774 571 -2099 903 -4344 975
-6590 28 -883 26 -835 49 -897 14 -35 36 -69 58 -88 34 -30 40 -32 99 -28 88
5 146 48 303 222 778 864 1787 2170 2527 3271 548 816 923 1449 1278 2155 627
1247 929 2266 903 3050 -24 706 -261 1179 -700 1395 -120 59 -223 85 -372 92
-107 5 -126 4 -165 -14 -119 -53 -238 -194 -349 -413 -179 -353 -241 -762
-146 -951 36 -70 63 -85 172 -93 125 -9 230 -37 338 -90 202 -100 338 -288
407 -563 19 -74 22 -116 22 -263 0 -193 -9 -255 -71 -460 -338 -1129 -1444
-2935 -2969 -4849 l-199 -250 -7 82 c-4 45 -17 217 -28 382 -146 2100 -533
4229 -1125 6200 -129 431 -371 1156 -398 1197 -13 18 -45 45 -72 60 -43 24
-62 28 -133 28 -376 1 -896 -339 -968 -633 l-16 -63 40 -116 40 -116 -165
-313 c-921 -1750 -1947 -3400 -3127 -5024 -255 -351 -810 -1090 -855 -1138 -4
-4 0 48 10 115 59 398 139 1103 174 1528 78 950 85 1862 20 2585 -109 1209
-408 2071 -899 2592 -251 266 -618 473 -964 542 -212 43 -508 54 -647 24z"/>
</g>
</svg>
