<?xml version="1.0" standalone="no"?>
<!DOCTYPE svg PUBLIC "-//W3C//DTD SVG 20010904//EN"
 "http://www.w3.org/TR/2001/REC-SVG-20010904/DTD/svg10.dtd">
<svg version="1.0" xmlns="http://www.w3.org/2000/svg"
 width="846.000000pt" height="802.000000pt" viewBox="0 0 846.000000 802.000000"
 preserveAspectRatio="xMidYMid meet">
<metadata>
Created by potrace 1.16, written by Peter Selinger 2001-2019
</metadata>
<g transform="translate(0.000000,802.000000) scale(0.100000,-0.100000)"
fill="#000000" stroke="none">
<path d="M3896 8009 c-573 -44 -1109 -190 -1616 -440 -454 -223 -780 -457
-1135 -813 -740 -742 -1145 -1713 -1145 -2746 0 -890 298 -1730 866 -2440 119
-148 397 -433 539 -552 321 -267 704 -502 1090 -668 275 -118 669 -234 970
-284 381 -64 209 -60 2584 -63 2456 -4 2223 -12 2317 82 56 55 84 122 84 195
0 101 -66 207 -158 252 l-47 23 -2170 6 c-2356 6 -2215 2 -2535 60 -378 68
-755 196 -1097 374 -687 357 -1240 920 -1558 1588 -222 467 -319 900 -319
1427 0 249 8 346 45 570 148 894 693 1712 1494 2247 414 276 909 476 1409 567
343 64 192 60 2566 66 l2165 5 47 23 c92 45 158 151 158 252 0 73 -28 140 -83
195 -94 94 132 85 -2256 84 -1158 -1 -2155 -6 -2215 -10z"/>
</g>
</svg>
