<?xml version="1.0" standalone="no"?>
<!DOCTYPE svg PUBLIC "-//W3C//DTD SVG 20010904//EN"
 "http://www.w3.org/TR/2001/REC-SVG-20010904/DTD/svg10.dtd">
<svg version="1.0" xmlns="http://www.w3.org/2000/svg"
 width="846.000000pt" height="1072.000000pt" viewBox="0 0 846.000000 1072.000000"
 preserveAspectRatio="xMidYMid meet">
<metadata>
Created by potrace 1.16, written by Peter Selinger 2001-2019
</metadata>
<g transform="translate(0.000000,1072.000000) scale(0.100000,-0.100000)"
fill="#000000" stroke="none">
<path d="M180 10703 c-69 -25 -145 -107 -166 -178 -31 -109 -1 -222 79 -291
30 -25 1098 -535 3725 -1776 2025 -958 3682 -1744 3682 -1748 0 -4 -1617 -771
-3593 -1705 -1975 -934 -3640 -1722 -3698 -1751 -122 -60 -170 -108 -194 -188
-32 -108 -9 -203 69 -281 63 -63 130 -89 215 -83 50 4 470 199 4036 1884 3768
1780 3983 1884 4032 1931 41 40 55 63 69 109 31 108 1 221 -79 290 -30 25
-1180 574 -4021 1916 -3894 1841 -3979 1881 -4045 1884 -44 3 -81 -2 -111 -13z"/>
<path d="M210 551 c-158 -49 -241 -200 -196 -356 22 -74 97 -153 170 -178 46
-16 333 -17 4041 -17 3708 0 3995 1 4041 17 70 24 147 103 168 173 20 67 20
112 1 176 -19 64 -73 127 -139 162 l-51 27 -4005 2 c-2203 1 -4016 -2 -4030
-6z"/>
</g>
</svg>
