<?xml version="1.0" standalone="no"?>
<!DOCTYPE svg PUBLIC "-//W3C//DTD SVG 20010904//EN"
 "http://www.w3.org/TR/2001/REC-SVG-20010904/DTD/svg10.dtd">
<svg version="1.0" xmlns="http://www.w3.org/2000/svg"
 width="739.000000pt" height="952.000000pt" viewBox="0 0 739.000000 952.000000"
 preserveAspectRatio="xMidYMid meet">
<metadata>
Created by potrace 1.16, written by Peter Selinger 2001-2019
</metadata>
<g transform="translate(0.000000,952.000000) scale(0.100000,-0.100000)"
fill="#000000" stroke="none">
<path d="M200 9511 c-46 -14 -85 -39 -121 -78 -59 -62 -74 -98 -73 -183 1 -75
2 -78 1720 -4585 946 -2481 1730 -4527 1742 -4548 53 -84 172 -132 277 -110
67 14 135 60 167 110 12 21 796 2067 1742 4548 1718 4506 1719 4510 1720 4585
1 87 -17 133 -74 190 -56 56 -103 75 -190 75 -57 0 -84 -5 -115 -22 -57 -31
-110 -90 -138 -153 -13 -30 -280 -729 -593 -1552 l-569 -1498 -2005 0 -2005 0
-584 1538 c-322 845 -597 1555 -612 1578 -60 88 -189 135 -289 105z m5211
-3963 c-1304 -3426 -1717 -4508 -1721 -4508 -4 0 -417 1082 -1721 4508 l-77
202 1798 0 1798 0 -77 -202z"/>
</g>
</svg>
