<?xml version="1.0" standalone="no"?>
<!DOCTYPE svg PUBLIC "-//W3C//DTD SVG 20010904//EN"
 "http://www.w3.org/TR/2001/REC-SVG-20010904/DTD/svg10.dtd">
<svg version="1.0" xmlns="http://www.w3.org/2000/svg"
 width="738.000000pt" height="355.000000pt" viewBox="0 0 738.000000 355.000000"
 preserveAspectRatio="xMidYMid meet">
<metadata>
Created by potrace 1.16, written by Peter Selinger 2001-2019
</metadata>
<g transform="translate(0.000000,355.000000) scale(0.100000,-0.100000)"
fill="#000000" stroke="none">
<path d="M191 3538 c-51 -14 -114 -61 -145 -108 -99 -150 -22 -361 149 -409
29 -8 961 -11 3337 -11 l3298 0 2 -1407 3 -1408 25 -49 c99 -194 381 -194 480
0 l25 49 0 1580 c0 1551 0 1581 -20 1620 -25 50 -80 105 -130 130 -40 20 -81
20 -3515 22 -2263 1 -3487 -2 -3509 -9z"/>
</g>
</svg>
