<?xml version="1.0" standalone="no"?>
<!DOCTYPE svg PUBLIC "-//W3C//DTD SVG 20010904//EN"
 "http://www.w3.org/TR/2001/REC-SVG-20010904/DTD/svg10.dtd">
<svg version="1.0" xmlns="http://www.w3.org/2000/svg"
 width="1099.000000pt" height="1112.000000pt" viewBox="0 0 1099.000000 1112.000000"
 preserveAspectRatio="xMidYMid meet">
<metadata>
Created by potrace 1.16, written by Peter Selinger 2001-2019
</metadata>
<g transform="translate(0.000000,1112.000000) scale(0.100000,-0.100000)"
fill="#000000" stroke="none">
<path d="M7520 11109 c-858 -69 -1813 -419 -2624 -961 -924 -619 -1553 -1379
-1827 -2208 -86 -263 -87 -310 -6 -352 63 -31 217 -22 352 22 272 89 535 247
715 431 93 94 129 160 174 315 117 408 343 798 642 1113 358 376 772 606 1304
725 321 71 446 77 1526 74 l911 -3 -119 -105 c-756 -665 -1366 -1736 -1921
-3375 -267 -788 -496 -1594 -843 -2974 -161 -637 -195 -762 -259 -931 -196
-524 -489 -994 -860 -1379 -439 -455 -852 -644 -1410 -644 -491 -1 -936 140
-1290 406 -111 84 -287 264 -367 377 -137 192 -250 453 -297 685 -57 282 -54
523 10 848 30 152 31 160 15 194 -19 41 -81 72 -142 73 -264 1 -709 -214 -960
-465 -129 -129 -153 -176 -193 -380 -84 -425 -67 -794 55 -1166 98 -301 249
-545 478 -775 180 -179 331 -284 591 -410 231 -112 444 -177 715 -219 145 -22
529 -31 700 -16 964 86 2016 595 2882 1395 493 455 924 1044 1191 1631 160
349 202 483 399 1260 254 1005 400 1546 572 2127 475 1601 959 2698 1492 3388
106 137 321 357 384 392 61 35 165 57 307 64 145 7 201 17 323 56 236 76 501
237 670 407 112 113 156 180 166 255 8 53 -9 86 -59 116 -31 20 -63 20 -1662
19 -896 -1 -1677 -6 -1735 -10z"/>
</g>
</svg>
