<?xml version="1.0" standalone="no"?>
<!DOCTYPE svg PUBLIC "-//W3C//DTD SVG 20010904//EN"
 "http://www.w3.org/TR/2001/REC-SVG-20010904/DTD/svg10.dtd">
<svg version="1.0" xmlns="http://www.w3.org/2000/svg"
 width="1025.000000pt" height="992.000000pt" viewBox="0 0 1025.000000 992.000000"
 preserveAspectRatio="xMidYMid meet">
<metadata>
Created by potrace 1.16, written by Peter Selinger 2001-2019
</metadata>
<g transform="translate(0.000000,992.000000) scale(0.100000,-0.100000)"
fill="#000000" stroke="none">
<path d="M65 9911 c-31 -13 -55 -45 -61 -83 -5 -31 252 -564 2348 -4864 2188
-4486 2359 -4833 2405 -4881 73 -75 107 -83 363 -83 256 0 290 8 363 83 46 48
217 395 2405 4881 2117 4343 2354 4833 2348 4865 -3 19 -17 46 -31 60 l-25 26
-5048 2 c-2776 1 -5056 -2 -5067 -6z m8811 -1503 c-89 -183 -879 -1803 -1756
-3600 -876 -1797 -1594 -3267 -1595 -3265 -7 8 -3505 7185 -3505 7191 0 3
1579 6 3509 6 l3510 0 -163 -332z"/>
</g>
</svg>
