<?xml version="1.0" standalone="no"?>
<!DOCTYPE svg PUBLIC "-//W3C//DTD SVG 20010904//EN"
 "http://www.w3.org/TR/2001/REC-SVG-20010904/DTD/svg10.dtd">
<svg version="1.0" xmlns="http://www.w3.org/2000/svg"
 width="590.000000pt" height="922.000000pt" viewBox="0 0 590.000000 922.000000"
 preserveAspectRatio="xMidYMid meet">
<metadata>
Created by potrace 1.16, written by Peter Selinger 2001-2019
</metadata>
<g transform="translate(0.000000,922.000000) scale(0.100000,-0.100000)"
fill="#000000" stroke="none">
<path d="M191 9208 c-51 -14 -114 -61 -145 -108 -99 -150 -22 -361 149 -409
29 -8 761 -11 2598 -11 l2557 0 0 -1900 0 -1900 -2470 0 c-2460 0 -2469 0
-2524 -20 -61 -23 -125 -85 -152 -147 -21 -50 -21 -156 0 -206 27 -62 91 -124
152 -147 55 -20 64 -20 2524 -20 l2470 0 0 -1900 0 -1900 -2578 -2 c-2540 -3
-2578 -3 -2617 -23 -50 -25 -105 -80 -130 -130 -27 -55 -27 -175 0 -230 25
-50 80 -105 130 -130 39 -20 76 -20 2790 -20 2714 0 2751 0 2790 20 50 25 105
80 130 130 20 40 20 85 20 4455 0 4370 0 4415 -20 4455 -25 50 -80 105 -130
130 -39 20 -77 20 -2775 22 -1777 1 -2747 -2 -2769 -9z"/>
</g>
</svg>
