<?xml version="1.0" standalone="no"?>
<!DOCTYPE svg PUBLIC "-//W3C//DTD SVG 20010904//EN"
 "http://www.w3.org/TR/2001/REC-SVG-20010904/DTD/svg10.dtd">
<svg version="1.0" xmlns="http://www.w3.org/2000/svg"
 width="647.000000pt" height="1230.000000pt" viewBox="0 0 647.000000 1230.000000"
 preserveAspectRatio="xMidYMid meet">
<metadata>
Created by potrace 1.16, written by Peter Selinger 2001-2019
</metadata>
<g transform="translate(0.000000,1230.000000) scale(0.100000,-0.100000)"
fill="#000000" stroke="none">
<path d="M3157 12279 c-46 -24 -74 -68 -83 -129 -3 -25 -21 -122 -40 -216
-284 -1423 -1379 -2580 -2782 -2939 -163 -42 -195 -57 -225 -104 -20 -32 -22
-52 -25 -182 -4 -170 4 -212 52 -259 53 -50 106 -51 281 -6 1037 271 1945 917
2539 1805 l76 115 0 -5067 0 -5066 20 -55 c38 -101 149 -176 260 -176 111 0
222 75 260 176 l20 55 0 5066 0 5067 76 -115 c322 -482 763 -918 1245 -1232
396 -258 838 -454 1294 -573 175 -45 228 -44 281 6 48 47 56 89 52 259 -5 216
-12 225 -250 286 -1430 366 -2545 1570 -2798 3020 -13 72 -27 146 -31 166 -24
101 -129 147 -222 98z"/>
</g>
</svg>
