<?xml version="1.0" standalone="no"?>
<!DOCTYPE svg PUBLIC "-//W3C//DTD SVG 20010904//EN"
 "http://www.w3.org/TR/2001/REC-SVG-20010904/DTD/svg10.dtd">
<svg version="1.0" xmlns="http://www.w3.org/2000/svg"
 width="1039.000000pt" height="1329.000000pt" viewBox="0 0 1039.000000 1329.000000"
 preserveAspectRatio="xMidYMid meet">
<metadata>
Created by potrace 1.16, written by Peter Selinger 2001-2019
</metadata>
<g transform="translate(0.000000,1329.000000) scale(0.100000,-0.100000)"
fill="#000000" stroke="none">
<path d="M10040 13281 c-89 -29 -142 -85 -208 -216 -27 -55 -1297 -2687 -2822
-5850 -1525 -3162 -2776 -5753 -2780 -5758 -3 -4 -548 1183 -1210 2639 -844
1855 -1211 2651 -1228 2665 -63 49 -134 43 -220 -22 -361 -271 -1504 -1138
-1525 -1158 -34 -31 -52 -87 -43 -136 8 -40 63 -108 107 -131 34 -17 102 -18
132 -2 12 6 196 143 409 305 213 161 390 293 395 293 4 0 604 -1311 1332
-2913 729 -1601 1333 -2924 1343 -2938 33 -49 78 -62 202 -57 177 6 226 41
317 228 31 63 1423 2950 3095 6415 l3039 6300 0 75 c0 54 -6 86 -20 115 -25
51 -80 106 -130 129 -43 21 -146 30 -185 17z"/>
</g>
</svg>
