<?xml version="1.0" standalone="no"?>
<!DOCTYPE svg PUBLIC "-//W3C//DTD SVG 20010904//EN"
 "http://www.w3.org/TR/2001/REC-SVG-20010904/DTD/svg10.dtd">
<svg version="1.0" xmlns="http://www.w3.org/2000/svg"
 width="1065.000000pt" height="1044.000000pt" viewBox="0 0 1065.000000 1044.000000"
 preserveAspectRatio="xMidYMid meet">
<metadata>
Created by potrace 1.16, written by Peter Selinger 2001-2019
</metadata>
<g transform="translate(0.000000,1044.000000) scale(0.100000,-0.100000)"
fill="#000000" stroke="none">
<path d="M10325 10415 c-185 -48 -395 -150 -605 -291 -69 -46 -138 -94 -153
-107 l-28 -22 -3212 -5 -3212 -6 -125 -21 c-513 -89 -1002 -276 -1491 -569
-882 -530 -1415 -1184 -1489 -1829 -28 -245 -10 -272 168 -262 75 4 122 13
207 41 298 99 709 358 855 539 67 84 90 132 90 191 0 174 46 370 125 534 73
152 133 239 240 348 88 89 92 92 177 118 200 63 106 59 1696 63 l1453 4 -98
-98 c-64 -64 -108 -117 -126 -153 -20 -39 -247 -935 -797 -3135 -423 -1694
-808 -3215 -855 -3380 -188 -659 -443 -1360 -725 -1995 -116 -263 -124 -286
-109 -323 74 -179 782 101 1158 457 95 91 141 163 226 355 311 704 566 1404
770 2116 46 160 413 1609 817 3222 l733 2932 1305 4 c1373 5 1366 4 1640 53
354 64 717 214 1052 437 339 225 551 456 612 666 21 73 21 78 -13 112 -28 28
-34 29 -113 29 -54 -1 -115 -9 -173 -25z"/>
</g>
</svg>
