<?xml version="1.0" standalone="no"?>
<!DOCTYPE svg PUBLIC "-//W3C//DTD SVG 20010904//EN"
 "http://www.w3.org/TR/2001/REC-SVG-20010904/DTD/svg10.dtd">
<svg version="1.0" xmlns="http://www.w3.org/2000/svg"
 width="922.000000pt" height="922.000000pt" viewBox="0 0 922.000000 922.000000"
 preserveAspectRatio="xMidYMid meet">
<metadata>
Created by potrace 1.16, written by Peter Selinger 2001-2019
</metadata>
<g transform="translate(0.000000,922.000000) scale(0.100000,-0.100000)"
fill="#000000" stroke="none">
<path d="M180 9203 c-66 -24 -144 -106 -164 -173 -33 -112 -11 -206 67 -285
94 -93 -124 -85 2199 -85 l2048 0 0 -1885 0 -1885 -2048 0 c-2323 0 -2105 8
-2199 -85 -111 -112 -111 -278 0 -390 94 -93 -124 -85 2199 -85 l2048 0 0
-2057 0 -2058 24 -50 c103 -222 411 -215 514 12 16 36 17 167 20 2096 l2 2057
2043 0 c2317 0 2100 -8 2194 85 111 112 111 278 0 390 -94 93 123 85 -2194 85
l-2043 0 0 1885 0 1885 2043 0 c2317 0 2100 -8 2194 85 78 79 100 173 67 285
-21 70 -98 149 -168 173 -46 16 -356 17 -4425 16 -3960 -1 -4380 -2 -4421 -16z"/>
</g>
</svg>
