<?xml version="1.0" standalone="no"?>
<!DOCTYPE svg PUBLIC "-//W3C//DTD SVG 20010904//EN"
 "http://www.w3.org/TR/2001/REC-SVG-20010904/DTD/svg10.dtd">
<svg version="1.0" xmlns="http://www.w3.org/2000/svg"
 width="724.000000pt" height="795.000000pt" viewBox="0 0 724.000000 795.000000"
 preserveAspectRatio="xMidYMid meet">
<metadata>
Created by potrace 1.16, written by Peter Selinger 2001-2019
</metadata>
<g transform="translate(0.000000,795.000000) scale(0.100000,-0.100000)"
fill="#000000" stroke="none">
<path d="M191 7939 c-85 -26 -160 -105 -181 -191 -7 -30 -10 -1174 -8 -3798 3
-3639 4 -3756 22 -3790 26 -49 84 -108 131 -133 l40 -22 3420 0 c3381 0 3420
0 3460 20 50 25 105 80 130 130 20 40 20 81 20 3820 0 3739 0 3780 -20 3820
-25 50 -80 105 -130 130 -29 14 -61 20 -115 20 -54 0 -86 -6 -115 -20 -50 -25
-105 -80 -130 -130 -20 -40 -20 -83 -23 -3647 l-2 -3608 -3075 0 -3075 0 -2
3608 c-3 3564 -3 3607 -23 3647 -25 51 -80 106 -130 129 -46 22 -146 30 -194
15z"/>
</g>
</svg>
