<?xml version="1.0" standalone="no"?>
<!DOCTYPE svg PUBLIC "-//W3C//DTD SVG 20010904//EN"
 "http://www.w3.org/TR/2001/REC-SVG-20010904/DTD/svg10.dtd">
<svg version="1.0" xmlns="http://www.w3.org/2000/svg"
 width="762.000000pt" height="1230.000000pt" viewBox="0 0 762.000000 1230.000000"
 preserveAspectRatio="xMidYMid meet">
<metadata>
Created by potrace 1.16, written by Peter Selinger 2001-2019
</metadata>
<g transform="translate(0.000000,1230.000000) scale(0.100000,-0.100000)"
fill="#000000" stroke="none">
<path d="M3728 12278 c-49 -28 -69 -72 -119 -258 -129 -489 -352 -1030 -616
-1493 -312 -550 -656 -1002 -1103 -1447 -515 -513 -1061 -906 -1740 -1252
-150 -76 -150 -75 -150 -296 0 -158 2 -178 20 -208 23 -35 91 -74 132 -74 34
0 316 140 533 265 497 285 930 606 1394 1034 l91 83 2 -4208 c3 -3971 4 -4211
20 -4247 28 -62 73 -111 130 -143 46 -25 63 -29 133 -29 70 0 87 4 133 29 61
34 106 85 127 146 13 37 15 586 15 4556 l0 4514 94 120 c354 450 677 987 920
1531 l61 135 44 -100 c24 -56 102 -216 172 -356 221 -440 472 -838 765 -1210
l94 -120 0 -4519 0 -4519 33 -64 c53 -102 151 -156 269 -145 102 9 191 75 236
174 16 36 17 276 20 4247 l2 4208 91 -83 c464 -428 897 -749 1394 -1034 217
-125 499 -265 533 -265 41 0 109 39 132 74 18 30 20 50 20 208 0 221 0 220
-150 296 -679 346 -1225 739 -1740 1252 -447 445 -791 897 -1103 1447 -264
463 -487 1004 -616 1493 -23 85 -51 173 -62 196 -38 77 -135 106 -211 62z"/>
</g>
</svg>
