<?xml version="1.0" standalone="no"?>
<!DOCTYPE svg PUBLIC "-//W3C//DTD SVG 20010904//EN"
 "http://www.w3.org/TR/2001/REC-SVG-20010904/DTD/svg10.dtd">
<svg version="1.0" xmlns="http://www.w3.org/2000/svg"
 width="692.000000pt" height="1292.000000pt" viewBox="0 0 692.000000 1292.000000"
 preserveAspectRatio="xMidYMid meet">
<metadata>
Created by potrace 1.16, written by Peter Selinger 2001-2019
</metadata>
<g transform="translate(0.000000,1292.000000) scale(0.100000,-0.100000)"
fill="#000000" stroke="none">
<path d="M6533 12903 c-24 -8 -63 -33 -88 -56 -41 -38 -332 -600 -3156 -6097
-1711 -3330 -3150 -6131 -3197 -6225 -86 -169 -86 -171 -86 -245 0 -62 4 -84
26 -126 87 -166 298 -205 433 -81 41 38 339 612 3161 6107 1714 3336 3153
6137 3197 6225 80 158 81 161 81 235 0 62 -4 84 -26 126 -66 126 -212 185
-345 137z"/>
</g>
</svg>
