<?xml version="1.0" standalone="no"?>
<!DOCTYPE svg PUBLIC "-//W3C//DTD SVG 20010904//EN"
 "http://www.w3.org/TR/2001/REC-SVG-20010904/DTD/svg10.dtd">
<svg version="1.0" xmlns="http://www.w3.org/2000/svg"
 width="461.000000pt" height="1260.000000pt" viewBox="0 0 461.000000 1260.000000"
 preserveAspectRatio="xMidYMid meet">
<metadata>
Created by potrace 1.16, written by Peter Selinger 2001-2019
</metadata>
<g transform="translate(0.000000,1260.000000) scale(0.100000,-0.100000)"
fill="#000000" stroke="none">
<path d="M2170 12584 c-136 -36 -265 -136 -324 -252 -49 -98 -59 -166 -52
-377 10 -329 38 -539 161 -1215 95 -523 120 -693 151 -1024 l6 -69 -60 7
c-110 12 -341 64 -601 135 -458 125 -626 158 -856 168 -217 8 -322 -25 -441
-139 -205 -196 -205 -540 0 -736 119 -114 224 -147 441 -139 230 10 398 43
856 168 260 71 491 123 601 135 l60 7 -6 -69 c-31 -331 -56 -501 -151 -1024
-123 -676 -151 -886 -161 -1215 -5 -155 -3 -202 10 -258 44 -185 182 -324 371
-372 223 -57 478 55 579 253 49 98 59 166 52 377 -10 329 -38 539 -161 1215
-95 523 -120 693 -151 1024 l-6 69 60 -7 c110 -12 341 -64 601 -135 458 -125
626 -158 856 -168 217 -8 322 25 441 139 205 196 205 540 0 736 -119 114 -224
147 -441 139 -230 -10 -398 -43 -856 -168 -260 -71 -491 -123 -601 -135 l-60
-7 6 69 c31 331 56 501 151 1024 123 676 151 886 161 1215 5 155 3 202 -10
258 -22 94 -59 161 -128 233 -123 129 -323 184 -498 138z"/>
<path d="M2170 6274 c-93 -24 -175 -72 -238 -138 -134 -139 -160 -267 -132
-646 20 -267 55 -513 145 -1000 68 -371 110 -621 129 -775 19 -152 38 -366 33
-371 -6 -6 -239 34 -350 60 -56 14 -210 54 -342 90 -425 117 -637 156 -858
157 -198 2 -301 -34 -408 -140 -197 -197 -197 -535 0 -732 107 -107 212 -143
409 -141 222 3 433 42 857 158 132 36 286 76 342 90 111 26 344 66 350 60 5
-5 -14 -219 -33 -371 -19 -154 -61 -404 -129 -775 -90 -487 -125 -733 -145
-1000 -28 -379 -2 -507 132 -646 196 -205 540 -205 736 0 134 139 160 267 132
646 -20 267 -55 513 -145 1000 -68 371 -110 621 -129 775 -19 152 -38 366 -33
371 6 6 239 -34 350 -60 56 -14 210 -54 342 -90 424 -116 635 -155 857 -158
197 -2 302 34 409 141 197 197 197 535 0 732 -107 107 -211 142 -409 140 -222
-2 -432 -40 -857 -157 -132 -36 -286 -76 -342 -90 -111 -26 -344 -66 -350 -60
-5 5 14 219 33 371 19 154 61 404 129 775 90 487 125 733 145 1000 28 379 2
507 -132 646 -123 129 -323 184 -498 138z"/>
</g>
</svg>
