<?xml version="1.0" standalone="no"?>
<!DOCTYPE svg PUBLIC "-//W3C//DTD SVG 20010904//EN"
 "http://www.w3.org/TR/2001/REC-SVG-20010904/DTD/svg10.dtd">
<svg version="1.0" xmlns="http://www.w3.org/2000/svg"
 width="664.000000pt" height="770.000000pt" viewBox="0 0 664.000000 770.000000"
 preserveAspectRatio="xMidYMid meet">
<metadata>
Created by potrace 1.16, written by Peter Selinger 2001-2019
</metadata>
<g transform="translate(0.000000,770.000000) scale(0.100000,-0.100000)"
fill="#000000" stroke="none">
<path d="M191 7689 c-51 -15 -114 -62 -144 -108 -91 -137 -40 -323 108 -396
39 -20 74 -20 1375 -26 1170 -4 1352 -7 1470 -22 1075 -135 1996 -690 2566
-1548 102 -155 244 -427 312 -603 81 -206 156 -495 181 -701 6 -49 14 -107 16
-127 l5 -38 -2942 -2 c-2904 -3 -2944 -3 -2983 -23 -50 -25 -105 -80 -130
-130 -27 -55 -27 -175 0 -230 25 -50 80 -105 130 -130 39 -20 79 -20 2983 -23
l2942 -2 -5 -38 c-2 -20 -10 -77 -16 -127 -25 -206 -100 -495 -181 -701 -23
-60 -81 -188 -129 -284 -388 -776 -1111 -1395 -1975 -1690 -163 -56 -411 -120
-554 -144 -301 -50 -260 -49 -1685 -55 -1306 -6 -1341 -6 -1380 -26 -50 -25
-105 -80 -130 -130 -27 -55 -27 -175 0 -230 25 -50 80 -105 130 -130 39 -20
70 -20 1300 -23 846 -2 1309 1 1410 8 485 35 944 146 1378 331 340 146 657
336 959 577 255 203 571 541 761 813 784 1125 884 2577 263 3796 -188 368
-401 659 -711 969 -662 662 -1482 1054 -2470 1181 -115 14 -290 17 -1475 19
-882 2 -1357 -1 -1379 -7z"/>
</g>
</svg>
