<?xml version="1.0" standalone="no"?>
<!DOCTYPE svg PUBLIC "-//W3C//DTD SVG 20010904//EN"
 "http://www.w3.org/TR/2001/REC-SVG-20010904/DTD/svg10.dtd">
<svg version="1.0" xmlns="http://www.w3.org/2000/svg"
 width="423.000000pt" height="1260.000000pt" viewBox="0 0 423.000000 1260.000000"
 preserveAspectRatio="xMidYMid meet">
<metadata>
Created by potrace 1.16, written by Peter Selinger 2001-2019
</metadata>
<g transform="translate(0.000000,1260.000000) scale(0.100000,-0.100000)"
fill="#000000" stroke="none">
<path d="M1880 12589 c-546 -67 -1045 -342 -1391 -766 -144 -175 -297 -451
-368 -658 -87 -257 -115 -430 -115 -710 -1 -191 2 -235 22 -334 64 -317 208
-618 425 -886 87 -107 318 -333 442 -431 116 -92 305 -221 454 -311 83 -50
100 -64 85 -69 -83 -30 -178 -71 -256 -110 -550 -276 -957 -790 -1113 -1403
-38 -152 -55 -274 -62 -446 -9 -244 15 -415 88 -641 98 -304 273 -578 539
-844 338 -339 777 -620 1389 -889 100 -44 229 -108 287 -142 368 -219 648
-524 829 -902 212 -443 259 -931 139 -1464 -136 -608 -502 -1054 -944 -1149
-207 -45 -489 -21 -736 61 -339 113 -632 347 -799 640 l-45 79 78 21 c42 11
102 34 132 50 283 154 337 583 101 809 -203 193 -520 192 -724 -2 -111 -107
-154 -239 -144 -445 31 -669 496 -1261 1191 -1518 360 -134 776 -164 1152 -84
536 113 1007 435 1321 902 77 115 198 360 242 488 87 257 115 430 115 710 1
191 -2 235 -22 334 -64 317 -208 618 -425 886 -87 107 -318 333 -442 431 -116
92 -305 221 -454 311 -83 50 -100 64 -85 69 83 30 178 71 256 110 550 276 957
790 1113 1403 38 152 55 274 62 446 9 244 -15 415 -88 641 -98 304 -273 578
-539 844 -338 339 -777 620 -1389 889 -100 44 -229 108 -287 142 -368 219
-648 524 -829 902 -212 443 -259 931 -139 1464 136 608 502 1054 944 1149 207
45 489 21 736 -61 339 -113 632 -347 799 -640 l45 -79 -78 -21 c-42 -11 -102
-34 -132 -50 -283 -154 -337 -583 -101 -809 203 -193 520 -192 724 2 111 107
154 239 144 445 -31 669 -496 1261 -1191 1518 -103 39 -278 85 -396 104 -113
20 -451 28 -560 14z m308 -4513 c605 -304 1018 -872 1129 -1551 21 -133 24
-469 5 -615 -37 -282 -107 -518 -218 -740 -207 -411 -510 -648 -883 -689 l-85
-9 -105 53 c-604 303 -1017 871 -1128 1550 -21 133 -24 469 -5 615 37 282 107
518 218 740 204 406 509 646 875 689 41 5 77 9 82 10 4 0 56 -23 115 -53z"/>
</g>
</svg>
