<?xml version="1.0" standalone="no"?>
<!DOCTYPE svg PUBLIC "-//W3C//DTD SVG 20010904//EN"
 "http://www.w3.org/TR/2001/REC-SVG-20010904/DTD/svg10.dtd">
<svg version="1.0" xmlns="http://www.w3.org/2000/svg"
 width="922.000000pt" height="922.000000pt" viewBox="0 0 922.000000 922.000000"
 preserveAspectRatio="xMidYMid meet">
<metadata>
Created by potrace 1.16, written by Peter Selinger 2001-2019
</metadata>
<g transform="translate(0.000000,922.000000) scale(0.100000,-0.100000)"
fill="#000000" stroke="none">
<path d="M4280 9209 c-1118 -83 -2148 -555 -2935 -1343 -516 -516 -893 -1136
-1124 -1849 -94 -286 -156 -583 -198 -934 -24 -209 -24 -737 0 -946 71 -597
217 -1097 469 -1597 328 -654 789 -1202 1373 -1635 1068 -791 2428 -1083 3725
-799 1098 241 2083 885 2740 1792 412 570 704 1263 814 1939 51 310 60 427 60
773 0 346 -9 463 -60 773 -110 676 -402 1369 -814 1939 -432 596 -1007 1083
-1670 1413 -652 325 -1357 489 -2080 484 -107 -1 -242 -5 -300 -10z m600 -449
c682 -50 1286 -240 1870 -588 539 -320 1032 -804 1372 -1345 167 -267 345
-651 443 -957 78 -243 144 -567 177 -860 16 -150 16 -650 0 -800 -61 -547
-194 -1003 -433 -1480 -165 -328 -347 -597 -592 -875 -782 -889 -1924 -1405
-3112 -1405 -953 0 -1874 328 -2625 935 -331 267 -661 641 -892 1008 -167 267
-345 651 -443 957 -78 243 -144 567 -177 860 -16 150 -16 650 0 800 61 547
194 1003 433 1480 402 800 1041 1436 1849 1841 661 330 1411 482 2130 429z"/>
<path d="M4433 5605 c-404 -73 -727 -380 -819 -780 -26 -110 -26 -320 0 -430
106 -462 522 -795 991 -795 469 0 885 333 991 795 26 110 26 320 0 430 -68
295 -267 549 -536 685 -192 97 -424 132 -627 95z"/>
</g>
</svg>
