<?xml version="1.0" standalone="no"?>
<!DOCTYPE svg PUBLIC "-//W3C//DTD SVG 20010904//EN"
 "http://www.w3.org/TR/2001/REC-SVG-20010904/DTD/svg10.dtd">
<svg version="1.0" xmlns="http://www.w3.org/2000/svg"
 width="949.000000pt" height="1138.000000pt" viewBox="0 0 949.000000 1138.000000"
 preserveAspectRatio="xMidYMid meet">
<metadata>
Created by potrace 1.16, written by Peter Selinger 2001-2019
</metadata>
<g transform="translate(0.000000,1138.000000) scale(0.100000,-0.100000)"
fill="#000000" stroke="none">
<path d="M2082 11364 c-370 -54 -814 -260 -1157 -537 -156 -126 -354 -348
-407 -457 -32 -64 -31 -140 2 -175 42 -45 72 -55 162 -55 247 0 579 164 791
390 l78 83 92 -7 c302 -22 594 -106 824 -238 195 -112 430 -321 595 -528 768
-966 1178 -2851 1178 -5415 0 -598 -37 -1564 -76 -1986 l-6 -66 -182 -145
c-839 -671 -1556 -1078 -1901 -1078 -158 0 -414 47 -575 107 -112 41 -261 118
-345 178 -160 114 -309 291 -394 468 -63 130 -87 204 -111 344 -23 132 -39
176 -82 221 -137 140 -423 -177 -527 -583 -37 -147 -44 -249 -26 -381 81 -588
395 -1054 885 -1312 334 -176 790 -239 1107 -153 561 152 1471 750 2458 1615
319 280 519 468 886 835 566 567 936 979 1412 1571 1320 1642 2220 3320 2607
4862 202 800 121 1481 -232 1948 -106 141 -294 298 -453 377 -150 76 -335 121
-532 130 -157 8 -191 -4 -283 -96 -151 -151 -266 -411 -301 -675 -20 -158 10
-302 74 -350 27 -19 49 -25 132 -30 308 -21 567 -127 746 -305 243 -244 358
-608 304 -961 -26 -177 -155 -593 -288 -931 -179 -455 -459 -1011 -758 -1505
-595 -983 -1421 -2031 -2332 -2958 l-138 -141 6 120 c20 414 26 620 31 1120 6
540 -3 1044 -26 1465 -144 2555 -734 4203 -1750 4882 -226 151 -533 281 -773
327 -219 42 -524 53 -715 25z"/>
</g>
</svg>
