<?xml version="1.0" standalone="no"?>
<!DOCTYPE svg PUBLIC "-//W3C//DTD SVG 20010904//EN"
 "http://www.w3.org/TR/2001/REC-SVG-20010904/DTD/svg10.dtd">
<svg version="1.0" xmlns="http://www.w3.org/2000/svg"
 width="872.000000pt" height="1014.000000pt" viewBox="0 0 872.000000 1014.000000"
 preserveAspectRatio="xMidYMid meet">
<metadata>
Created by potrace 1.16, written by Peter Selinger 2001-2019
</metadata>
<g transform="translate(0.000000,1014.000000) scale(0.100000,-0.100000)"
fill="#000000" stroke="none">
<path d="M785 10123 c-202 -43 -443 -174 -607 -331 -96 -92 -153 -175 -169
-246 -10 -48 -10 -58 7 -92 26 -54 82 -84 157 -84 236 -1 556 -74 758 -175
388 -192 718 -571 964 -1107 555 -1207 713 -3293 450 -5923 -64 -636 -172
-1437 -221 -1635 -21 -85 -26 -132 -27 -245 -2 -159 9 -213 53 -257 24 -23 37
-28 78 -28 44 0 58 7 153 71 492 338 1421 1116 2199 1842 283 265 987 970
1220 1222 1396 1514 2248 2820 2671 4095 229 691 290 1228 193 1710 -97 484
-352 849 -733 1049 -176 92 -354 138 -571 148 -116 5 -128 4 -169 -17 -156
-79 -338 -378 -432 -710 -80 -283 -79 -521 2 -606 29 -30 35 -31 132 -37 556
-34 952 -347 1084 -856 17 -66 26 -136 30 -221 7 -149 -7 -229 -68 -407 -390
-1130 -1759 -2832 -3642 -4527 -279 -250 -908 -790 -913 -783 0 1 14 133 32
292 202 1780 217 3460 43 4679 -169 1189 -503 2037 -1012 2573 -271 286 -671
510 -1037 582 -220 43 -489 54 -625 24z"/>
</g>
</svg>
