<?xml version="1.0" standalone="no"?>
<!DOCTYPE svg PUBLIC "-//W3C//DTD SVG 20010904//EN"
 "http://www.w3.org/TR/2001/REC-SVG-20010904/DTD/svg10.dtd">
<svg version="1.0" xmlns="http://www.w3.org/2000/svg"
 width="768.000000pt" height="859.000000pt" viewBox="0 0 768.000000 859.000000"
 preserveAspectRatio="xMidYMid meet">
<metadata>
Created by potrace 1.16, written by Peter Selinger 2001-2019
</metadata>
<g transform="translate(0.000000,859.000000) scale(0.100000,-0.100000)"
fill="#000000" stroke="none">
<path d="M180 8573 c-27 -10 -65 -37 -97 -68 -62 -63 -89 -136 -80 -221 4 -42
382 -904 1797 -4101 986 -2226 1805 -4064 1821 -4084 15 -19 51 -48 81 -65 46
-25 63 -29 133 -29 70 0 87 4 133 29 30 17 66 46 81 65 16 20 835 1858 1821
4084 1415 3197 1793 4059 1797 4101 17 161 -115 306 -277 306 -105 0 -200 -60
-249 -159 -22 -42 -3232 -7286 -3294 -7433 -11 -25 -128 236 -1621 3610 -885
2000 -1635 3691 -1666 3757 -44 94 -66 128 -99 157 -77 65 -184 85 -281 51z"/>
</g>
</svg>
