<?xml version="1.0" standalone="no"?>
<!DOCTYPE svg PUBLIC "-//W3C//DTD SVG 20010904//EN"
 "http://www.w3.org/TR/2001/REC-SVG-20010904/DTD/svg10.dtd">
<svg version="1.0" xmlns="http://www.w3.org/2000/svg"
 width="762.000000pt" height="1230.000000pt" viewBox="0 0 762.000000 1230.000000"
 preserveAspectRatio="xMidYMid meet">
<metadata>
Created by potrace 1.16, written by Peter Selinger 2001-2019
</metadata>
<g transform="translate(0.000000,1230.000000) scale(0.100000,-0.100000)"
fill="#000000" stroke="none">
<path d="M2367 12286 c-95 -35 -159 -105 -184 -198 -11 -44 -13 -760 -13
-4236 l0 -4184 -91 83 c-464 428 -897 749 -1394 1034 -217 125 -499 265 -533
265 -41 0 -109 -39 -132 -74 -18 -30 -20 -50 -20 -208 0 -221 0 -220 150 -296
675 -344 1226 -740 1740 -1252 447 -445 791 -897 1103 -1447 264 -463 487
-1004 616 -1493 23 -85 51 -173 62 -196 54 -110 214 -110 268 0 11 23 39 111
62 196 129 489 352 1030 616 1493 312 550 656 1002 1103 1447 514 512 1065
908 1740 1252 150 76 150 75 150 296 0 158 -2 178 -20 208 -23 35 -91 74 -132
74 -34 0 -316 -140 -533 -265 -497 -285 -930 -606 -1394 -1034 l-91 -83 -2
4208 c-3 3971 -4 4211 -20 4247 -45 99 -134 165 -236 174 -118 11 -216 -43
-269 -145 l-33 -64 0 -4519 0 -4519 -94 -120 c-354 -450 -677 -987 -920 -1531
l-61 -135 -44 100 c-24 56 -102 216 -172 356 -221 440 -472 838 -765 1210
l-94 120 0 4514 c0 3970 -2 4519 -15 4556 -36 102 -130 170 -244 177 -41 2
-80 -2 -104 -11z"/>
</g>
</svg>
