<?xml version="1.0" standalone="no"?>
<!DOCTYPE svg PUBLIC "-//W3C//DTD SVG 20010904//EN"
 "http://www.w3.org/TR/2001/REC-SVG-20010904/DTD/svg10.dtd">
<svg version="1.0" xmlns="http://www.w3.org/2000/svg"
 width="1180.000000pt" height="602.000000pt" viewBox="0 0 1180.000000 602.000000"
 preserveAspectRatio="xMidYMid meet">
<metadata>
Created by potrace 1.16, written by Peter Selinger 2001-2019
</metadata>
<g transform="translate(0.000000,602.000000) scale(0.100000,-0.100000)"
fill="#000000" stroke="none">
<path d="M2365 6014 c-305 -32 -604 -119 -855 -251 -800 -417 -1343 -1269
-1486 -2328 -22 -164 -26 -645 -6 -805 72 -577 244 -1072 522 -1494 404 -614
951 -988 1617 -1108 112 -20 160 -22 383 -22 294 1 437 18 694 83 363 93 745
271 1061 494 518 366 1007 897 1418 1540 l75 118 232 -300 c327 -424 417 -530
644 -756 378 -376 716 -625 1136 -834 344 -171 682 -278 1040 -328 179 -25
573 -25 725 0 606 99 1129 411 1529 912 357 448 586 1009 672 1650 22 164 26
645 6 805 -72 577 -244 1072 -522 1494 -404 614 -951 988 -1617 1108 -112 20
-160 22 -383 22 -294 -1 -437 -18 -694 -83 -363 -93 -745 -271 -1061 -494
-518 -366 -1007 -897 -1418 -1540 l-75 -118 -232 300 c-327 424 -417 530 -644
756 -378 376 -716 625 -1136 834 -341 170 -684 278 -1030 326 -110 15 -509 28
-595 19z m7213 -465 c221 -24 394 -74 587 -168 674 -331 1139 -1062 1262
-1986 24 -182 24 -575 0 -740 -106 -721 -457 -1317 -980 -1666 -335 -222 -679
-320 -1077 -306 -351 12 -642 112 -975 332 -318 211 -666 555 -1071 1060 -303
378 -945 1218 -940 1231 27 71 350 563 493 753 275 362 601 699 888 917 443
336 905 526 1395 573 127 12 309 12 418 0z m-6898 -237 c255 -53 471 -145 715
-307 318 -211 666 -555 1071 -1060 303 -378 945 -1218 940 -1231 -12 -31 -167
-280 -279 -448 -237 -356 -421 -582 -706 -866 -265 -265 -436 -403 -699 -561
-538 -325 -1161 -449 -1700 -338 -369 76 -741 301 -1013 615 -351 404 -566
905 -646 1509 -24 182 -24 575 0 740 106 721 457 1317 980 1666 244 161 484
254 767 295 135 19 444 11 570 -14z"/>
</g>
</svg>
