<?xml version="1.0" standalone="no"?>
<!DOCTYPE svg PUBLIC "-//W3C//DTD SVG 20010904//EN"
 "http://www.w3.org/TR/2001/REC-SVG-20010904/DTD/svg10.dtd">
<svg version="1.0" xmlns="http://www.w3.org/2000/svg"
 width="1292.000000pt" height="762.000000pt" viewBox="0 0 1292.000000 762.000000"
 preserveAspectRatio="xMidYMid meet">
<metadata>
Created by potrace 1.16, written by Peter Selinger 2001-2019
</metadata>
<g transform="translate(0.000000,762.000000) scale(0.100000,-0.100000)"
fill="#000000" stroke="none">
<path d="M3805 7606 c-47 -21 -59 -40 -131 -211 -37 -88 -115 -254 -174 -370
-700 -1384 -1869 -2452 -3320 -3034 -121 -48 -130 -54 -159 -101 -27 -45 -27
-102 1 -151 25 -44 43 -55 263 -145 599 -246 1202 -621 1715 -1068 719 -627
1306 -1434 1675 -2304 37 -86 74 -165 83 -176 34 -39 74 -46 245 -46 154 0
166 1 198 23 45 29 82 101 75 145 -8 55 -131 331 -267 602 -238 473 -492 867
-827 1280 l-101 125 1690 3 c930 1 2448 1 3374 0 l1684 -3 -101 -125 c-335
-413 -589 -807 -827 -1280 -136 -271 -259 -547 -267 -602 -7 -44 30 -116 75
-145 32 -22 44 -23 198 -23 171 0 211 7 245 46 9 11 46 90 83 176 431 1018
1143 1925 2040 2600 406 305 899 587 1350 772 220 90 238 101 263 145 28 49
28 106 1 151 -29 47 -38 53 -159 101 -1451 582 -2620 1650 -3320 3034 -59 116
-137 282 -174 370 -37 88 -75 168 -84 179 -34 39 -74 46 -245 46 -154 0 -166
-1 -198 -23 -45 -29 -82 -101 -75 -145 13 -83 262 -613 419 -892 192 -341 414
-665 681 -995 l97 -120 -1685 -3 c-926 -1 -2446 -1 -3376 0 l-1691 3 97 120
c267 330 489 654 681 995 157 279 406 809 419 892 7 44 -30 116 -75 145 -32
22 -44 23 -200 23 -115 -1 -175 -5 -196 -14z m6663 -2814 c382 -346 842 -674
1330 -949 l53 -29 -157 -90 c-394 -223 -832 -540 -1199 -868 l-130 -116 -3910
0 -3910 0 -130 116 c-367 328 -805 645 -1199 868 l-157 90 53 29 c492 277
1004 644 1353 971 l70 65 3918 1 3918 0 97 -88z"/>
</g>
</svg>
