<?xml version="1.0" standalone="no"?>
<!DOCTYPE svg PUBLIC "-//W3C//DTD SVG 20010904//EN"
 "http://www.w3.org/TR/2001/REC-SVG-20010904/DTD/svg10.dtd">
<svg version="1.0" xmlns="http://www.w3.org/2000/svg"
 width="1135.000000pt" height="977.000000pt" viewBox="0 0 1135.000000 977.000000"
 preserveAspectRatio="xMidYMid meet">
<metadata>
Created by potrace 1.16, written by Peter Selinger 2001-2019
</metadata>
<g transform="translate(0.000000,977.000000) scale(0.100000,-0.100000)"
fill="#000000" stroke="none">
<path d="M4360 9763 c-844 -46 -1670 -255 -2386 -602 -1028 -500 -1728 -1213
-1945 -1980 -42 -151 -27 -210 65 -252 52 -24 187 -25 292 -3 358 73 811 372
948 624 14 27 40 95 57 152 37 127 111 283 186 397 72 108 206 245 301 306
238 153 624 282 1063 354 178 30 466 61 557 61 l45 0 -7 -97 c-16 -235 -74
-765 -127 -1163 -312 -2357 -1001 -4856 -1969 -7150 -69 -162 -83 -205 -84
-252 -2 -105 68 -157 212 -158 292 -1 730 211 991 480 113 117 140 172 423
880 952 2383 1603 4923 1858 7245 12 110 24 206 26 214 4 12 73 13 457 8 464
-7 674 -16 997 -43 681 -57 1254 -192 1564 -370 434 -250 626 -596 603 -1089
-29 -616 -343 -1242 -826 -1647 -466 -390 -1124 -617 -1871 -644 -91 -3 -202
-12 -248 -20 -440 -78 -1006 -510 -1006 -768 0 -99 65 -146 229 -164 124 -14
209 -43 296 -100 143 -94 277 -238 412 -444 195 -298 326 -573 647 -1358 278
-679 367 -880 520 -1168 239 -454 499 -750 785 -894 109 -55 196 -87 283 -104
87 -17 343 -19 493 -4 1102 109 2322 823 3004 1756 101 137 128 193 133 268 4
56 1 65 -24 95 -41 50 -96 71 -182 71 -263 1 -652 -172 -921 -410 -55 -49
-121 -123 -183 -205 -176 -234 -347 -398 -514 -491 -185 -103 -518 -173 -685
-144 -170 29 -289 97 -439 249 -168 170 -292 359 -468 711 -131 261 -202 423
-450 1030 -320 782 -475 1103 -678 1406 l-81 120 86 34 c274 107 652 294 913
451 1168 703 1907 1621 2107 2619 38 188 46 274 45 470 0 215 -16 317 -75 494
-184 550 -760 928 -1679 1100 -271 51 -600 88 -1050 117 -153 10 -2544 21
-2700 12z"/>
</g>
</svg>
