<?xml version="1.0" standalone="no"?>
<!DOCTYPE svg PUBLIC "-//W3C//DTD SVG 20010904//EN"
 "http://www.w3.org/TR/2001/REC-SVG-20010904/DTD/svg10.dtd">
<svg version="1.0" xmlns="http://www.w3.org/2000/svg"
 width="1023.000000pt" height="952.000000pt" viewBox="0 0 1023.000000 952.000000"
 preserveAspectRatio="xMidYMid meet">
<metadata>
Created by potrace 1.16, written by Peter Selinger 2001-2019
</metadata>
<g transform="translate(0.000000,952.000000) scale(0.100000,-0.100000)"
fill="#000000" stroke="none">
<path d="M200 9511 c-69 -21 -141 -83 -175 -150 -24 -49 -30 -137 -12 -188 8
-23 1107 -2071 2443 -4550 1672 -3102 2440 -4518 2464 -4543 56 -56 103 -75
190 -75 87 0 134 19 190 75 51 52 4897 9045 4913 9118 29 133 -56 274 -188
311 -47 13 -9783 15 -9825 2z m9290 -538 c0 -11 -4374 -8123 -4380 -8123 -6 0
-4380 8112 -4380 8123 0 4 1971 7 4380 7 2409 0 4380 -3 4380 -7z"/>
</g>
</svg>
