<?xml version="1.0" standalone="no"?>
<!DOCTYPE svg PUBLIC "-//W3C//DTD SVG 20010904//EN"
 "http://www.w3.org/TR/2001/REC-SVG-20010904/DTD/svg10.dtd">
<svg version="1.0" xmlns="http://www.w3.org/2000/svg"
 width="885.000000pt" height="886.000000pt" viewBox="0 0 885.000000 886.000000"
 preserveAspectRatio="xMidYMid meet">
<metadata>
Created by potrace 1.16, written by Peter Selinger 2001-2019
</metadata>
<g transform="translate(0.000000,886.000000) scale(0.100000,-0.100000)"
fill="#000000" stroke="none">
<path d="M4165 8854 c-22 -2 -96 -9 -165 -15 -493 -43 -1023 -192 -1495 -418
-1527 -734 -2505 -2292 -2505 -3991 0 -1489 753 -2886 1996 -3702 601 -395
1268 -631 2009 -710 157 -17 673 -17 830 0 741 79 1408 315 2009 710 1243 816
1996 2213 1996 3702 0 1489 -753 2886 -1996 3702 -589 387 -1236 620 -1954
704 -127 14 -631 27 -725 18z m700 -389 c815 -94 1571 -423 2188 -953 l98 -84
-2857 -2864 c-1571 -1575 -2860 -2864 -2865 -2864 -20 0 -263 306 -377 476
-488 730 -734 1651 -671 2522 97 1369 849 2576 2024 3252 538 310 1111 482
1780 534 108 8 547 -4 680 -19z m2620 -1382 c573 -668 911 -1494 974 -2385 21
-280 10 -543 -34 -848 -162 -1140 -806 -2163 -1760 -2797 -544 -362 -1147
-581 -1810 -659 -209 -25 -661 -25 -870 0 -831 97 -1578 421 -2198 954 l-98
84 2857 2864 c1571 1575 2860 2864 2865 2864 4 0 37 -35 74 -77z"/>
</g>
</svg>
