<?xml version="1.0" standalone="no"?>
<!DOCTYPE svg PUBLIC "-//W3C//DTD SVG 20010904//EN"
 "http://www.w3.org/TR/2001/REC-SVG-20010904/DTD/svg10.dtd">
<svg version="1.0" xmlns="http://www.w3.org/2000/svg"
 width="885.000000pt" height="886.000000pt" viewBox="0 0 885.000000 886.000000"
 preserveAspectRatio="xMidYMid meet">
<metadata>
Created by potrace 1.16, written by Peter Selinger 2001-2019
</metadata>
<g transform="translate(0.000000,886.000000) scale(0.100000,-0.100000)"
fill="#000000" stroke="none">
<path d="M4165 8854 c-22 -2 -96 -9 -165 -15 -493 -43 -1023 -192 -1495 -418
-1527 -734 -2505 -2292 -2505 -3991 0 -1489 753 -2886 1996 -3702 601 -395
1268 -631 2009 -710 157 -17 673 -17 830 0 741 79 1408 315 2009 710 1243 816
1996 2213 1996 3702 0 1489 -753 2886 -1996 3702 -589 387 -1236 620 -1954
704 -127 14 -631 27 -725 18z m700 -389 c997 -115 1928 -596 2575 -1332 389
-443 658 -915 838 -1474 89 -274 162 -655 178 -924 l7 -115 -4043 0 -4043 0 7
115 c22 368 128 828 277 1202 481 1210 1517 2115 2784 2432 221 55 468 94 740
115 108 8 547 -4 680 -19z m3591 -4333 c-20 -369 -127 -833 -277 -1209 -481
-1210 -1517 -2115 -2784 -2432 -337 -84 -596 -115 -975 -115 -379 0 -638 31
-975 115 -792 199 -1519 638 -2045 1236 -389 443 -658 915 -838 1474 -90 277
-163 661 -178 931 l-7 118 4043 0 4043 0 -7 -118z"/>
</g>
</svg>
