<?xml version="1.0" standalone="no"?>
<!DOCTYPE svg PUBLIC "-//W3C//DTD SVG 20010904//EN"
 "http://www.w3.org/TR/2001/REC-SVG-20010904/DTD/svg10.dtd">
<svg version="1.0" xmlns="http://www.w3.org/2000/svg"
 width="423.000000pt" height="1260.000000pt" viewBox="0 0 423.000000 1260.000000"
 preserveAspectRatio="xMidYMid meet">
<metadata>
Created by potrace 1.16, written by Peter Selinger 2001-2019
</metadata>
<g transform="translate(0.000000,1260.000000) scale(0.100000,-0.100000)"
fill="#000000" stroke="none">
<path d="M1881 12589 c-356 -38 -744 -199 -1047 -435 -516 -401 -835 -1070
-834 -1748 1 -407 136 -792 408 -1160 92 -125 388 -421 532 -533 91 -70 368
-261 403 -277 9 -5 9 -8 -2 -12 -202 -92 -380 -198 -522 -311 -508 -406 -820
-1066 -819 -1737 1 -408 137 -795 408 -1159 89 -120 319 -357 455 -470 297
-246 696 -484 1151 -687 286 -127 479 -260 671 -462 380 -399 575 -932 551
-1508 -32 -794 -376 -1400 -875 -1545 -188 -55 -483 -38 -716 40 -286 95 -548
291 -703 523 -34 51 -62 97 -62 102 0 5 29 18 64 30 174 58 300 194 346 376
79 310 -83 599 -386 690 -79 24 -229 24 -308 0 -96 -28 -176 -74 -242 -138
-144 -138 -189 -323 -149 -621 54 -408 274 -803 599 -1076 471 -397 1132 -559
1736 -425 538 120 993 434 1306 901 146 218 276 531 328 793 121 601 5 1118
-362 1614 -92 125 -388 421 -532 533 -91 70 -368 261 -403 277 -9 5 -9 8 2 12
202 92 380 198 522 311 508 406 820 1066 819 1737 -1 408 -137 795 -408 1159
-89 120 -319 357 -455 470 -297 246 -696 484 -1151 687 -286 127 -479 260
-671 462 -380 399 -575 932 -551 1508 32 794 376 1400 875 1545 188 55 483 38
716 -40 286 -95 548 -291 703 -523 34 -51 62 -97 62 -102 0 -5 -29 -18 -64
-30 -174 -58 -300 -194 -346 -376 -79 -310 83 -599 386 -690 79 -24 229 -24
308 0 96 28 176 74 242 138 144 138 189 323 149 621 -45 336 -201 665 -441
925 -308 334 -764 558 -1249 612 -106 12 -325 11 -444 -1z m294 -4574 c530
-277 910 -792 1024 -1388 75 -389 38 -868 -95 -1236 -180 -496 -482 -788 -872
-841 l-92 -13 -73 36 c-187 93 -369 228 -528 395 -383 400 -579 934 -555 1512
34 848 419 1471 966 1565 119 21 132 19 225 -30z"/>
</g>
</svg>
