<?xml version="1.0" standalone="no"?>
<!DOCTYPE svg PUBLIC "-//W3C//DTD SVG 20010904//EN"
 "http://www.w3.org/TR/2001/REC-SVG-20010904/DTD/svg10.dtd">
<svg version="1.0" xmlns="http://www.w3.org/2000/svg"
 width="922.000000pt" height="626.000000pt" viewBox="0 0 922.000000 626.000000"
 preserveAspectRatio="xMidYMid meet">
<metadata>
Created by potrace 1.16, written by Peter Selinger 2001-2019
</metadata>
<g transform="translate(0.000000,626.000000) scale(0.100000,-0.100000)"
fill="#000000" stroke="none">
<path d="M2226 6250 c-317 -37 -660 -161 -926 -337 -143 -95 -245 -178 -371
-304 -487 -486 -803 -1194 -906 -2029 -25 -204 -25 -694 0 -905 72 -607 266
-1166 557 -1608 259 -394 565 -672 942 -857 318 -156 626 -220 998 -207 337
12 629 75 944 204 764 311 1454 992 1976 1950 l67 122 184 -285 c282 -437 483
-696 744 -959 507 -513 1073 -842 1670 -974 332 -73 700 -80 995 -18 l105 22
3 313 c1 171 0 312 -4 312 -3 0 -60 -7 -127 -16 -136 -18 -311 -14 -457 10
-632 104 -1205 572 -1832 1496 -220 324 -782 1206 -781 1225 1 27 179 383 278
555 42 74 132 218 200 320 592 888 1313 1392 2117 1479 150 17 387 13 506 -7
l102 -18 0 232 0 232 -67 16 c-157 35 -220 41 -458 40 -256 -1 -355 -11 -573
-60 -948 -211 -1798 -946 -2422 -2091 l-67 -122 -184 285 c-282 437 -483 696
-744 959 -564 569 -1183 905 -1865 1010 -124 19 -488 28 -604 15z m284 -673
c634 -107 1205 -573 1832 -1497 220 -324 782 -1206 781 -1225 -1 -27 -179
-383 -278 -555 -394 -689 -901 -1227 -1430 -1518 -525 -288 -1158 -372 -1623
-217 -411 138 -775 480 -1022 961 -299 583 -425 1396 -324 2094 146 998 696
1750 1415 1931 193 49 448 59 649 26z"/>
</g>
</svg>
