<?xml version="1.0" standalone="no"?>
<!DOCTYPE svg PUBLIC "-//W3C//DTD SVG 20010904//EN"
 "http://www.w3.org/TR/2001/REC-SVG-20010904/DTD/svg10.dtd">
<svg version="1.0" xmlns="http://www.w3.org/2000/svg"
 width="461.000000pt" height="1276.000000pt" viewBox="0 0 461.000000 1276.000000"
 preserveAspectRatio="xMidYMid meet">
<metadata>
Created by potrace 1.16, written by Peter Selinger 2001-2019
</metadata>
<g transform="translate(0.000000,1276.000000) scale(0.100000,-0.100000)"
fill="#000000" stroke="none">
<path d="M2152 12740 c-155 -41 -276 -135 -345 -266 -62 -121 -70 -175 -63
-439 11 -424 37 -654 190 -1685 63 -422 96 -710 121 -1051 l7 -86 -59 9 c-105
16 -280 58 -496 119 -486 137 -705 179 -927 179 -173 0 -316 -55 -420 -160
-257 -260 -191 -728 126 -893 131 -68 269 -82 504 -53 188 24 337 58 717 165
214 60 391 103 493 119 l56 8 -13 -130 c-19 -194 -56 -436 -118 -761 -166
-869 -185 -1045 -185 -1670 1 -1760 99 -3919 264 -5788 25 -288 29 -301 89
-337 29 -18 51 -20 207 -20 156 0 178 2 207 20 60 36 64 49 89 337 165 1869
263 4028 264 5788 0 625 -19 801 -185 1670 -62 325 -99 567 -118 761 l-13 130
56 -8 c102 -16 279 -59 493 -119 486 -137 705 -179 927 -179 173 0 316 55 420
160 257 260 191 728 -126 893 -131 68 -269 82 -504 53 -188 -24 -337 -58 -717
-165 -216 -61 -391 -103 -496 -119 l-59 -9 7 86 c25 341 58 629 121 1051 153
1031 179 1261 190 1685 7 264 -1 318 -63 439 -114 219 -387 332 -641 266z"/>
</g>
</svg>
