<?xml version="1.0" standalone="no"?>
<!DOCTYPE svg PUBLIC "-//W3C//DTD SVG 20010904//EN"
 "http://www.w3.org/TR/2001/REC-SVG-20010904/DTD/svg10.dtd">
<svg version="1.0" xmlns="http://www.w3.org/2000/svg"
 width="1230.000000pt" height="626.000000pt" viewBox="0 0 1230.000000 626.000000"
 preserveAspectRatio="xMidYMid meet">
<metadata>
Created by potrace 1.16, written by Peter Selinger 2001-2019
</metadata>
<g transform="translate(0.000000,626.000000) scale(0.100000,-0.100000)"
fill="#000000" stroke="none">
<path d="M2450 6249 c-1263 -139 -2237 -1220 -2426 -2694 -22 -169 -25 -651
-6 -810 81 -663 302 -1240 656 -1709 425 -564 975 -903 1641 -1013 152 -25
555 -25 735 0 618 86 1208 357 1747 801 147 121 535 511 667 671 152 182 314
400 451 605 65 96 118 176 120 178 1 1 100 -125 220 -280 356 -462 541 -672
794 -905 663 -610 1366 -961 2142 -1069 179 -25 591 -26 749 -1 134 21 338 73
465 117 132 46 394 177 520 260 730 481 1214 1312 1341 2305 22 169 25 651 6
810 -81 663 -302 1240 -656 1709 -425 564 -975 903 -1641 1013 -152 25 -555
25 -735 0 -618 -86 -1208 -357 -1747 -801 -147 -121 -535 -511 -667 -671 -152
-182 -314 -400 -451 -605 -65 -96 -118 -176 -120 -178 -1 -1 -100 125 -220
280 -356 462 -541 672 -794 905 -661 608 -1369 962 -2136 1068 -133 19 -537
27 -655 14z m7706 -553 c778 -165 1396 -843 1629 -1789 241 -977 8 -1953 -615
-2577 -379 -380 -824 -571 -1335 -571 -584 0 -1090 251 -1660 825 -260 262
-446 487 -1060 1281 -208 270 -392 507 -408 527 l-29 37 83 138 c333 548 732
1044 1104 1370 512 450 1026 701 1580 773 44 5 94 12 110 14 17 2 131 3 255 1
196 -3 241 -7 346 -29z m-7476 -207 c475 -52 941 -316 1435 -813 260 -262 446
-487 1060 -1281 208 -269 392 -507 408 -527 l29 -37 -83 -138 c-726 -1196
-1600 -1935 -2499 -2112 -208 -40 -271 -46 -520 -46 -227 1 -254 3 -371 28
-485 103 -899 390 -1214 842 -492 707 -648 1727 -390 2545 120 378 321 716
585 980 434 435 961 624 1560 559z"/>
</g>
</svg>
