<?xml version="1.0" standalone="no"?>
<!DOCTYPE svg PUBLIC "-//W3C//DTD SVG 20010904//EN"
 "http://www.w3.org/TR/2001/REC-SVG-20010904/DTD/svg10.dtd">
<svg version="1.0" xmlns="http://www.w3.org/2000/svg"
 width="1180.000000pt" height="842.000000pt" viewBox="0 0 1180.000000 842.000000"
 preserveAspectRatio="xMidYMid meet">
<metadata>
Created by potrace 1.16, written by Peter Selinger 2001-2019
</metadata>
<g transform="translate(0.000000,842.000000) scale(0.100000,-0.100000)"
fill="#000000" stroke="none">
<path d="M191 8408 c-89 -25 -164 -108 -184 -204 -21 -100 22 -216 100 -269
18 -12 1554 -854 3413 -1871 1859 -1017 3380 -1851 3380 -1854 0 -3 -1527
-840 -3392 -1860 -2268 -1240 -3404 -1867 -3428 -1890 -56 -56 -75 -103 -75
-190 0 -87 19 -134 75 -190 69 -69 181 -97 267 -67 23 8 1670 905 3660 1993
2419 1324 3629 1991 3653 2014 56 56 75 103 75 190 0 87 -19 134 -75 190 -24
23 -1234 690 -3653 2014 -1990 1088 -3635 1985 -3655 1992 -43 15 -112 16
-161 2z"/>
<path d="M4241 8408 c-89 -25 -164 -108 -184 -204 -21 -100 22 -216 100 -269
18 -12 1554 -854 3413 -1871 1859 -1017 3380 -1851 3380 -1854 0 -3 -1527
-840 -3392 -1860 -2268 -1240 -3404 -1867 -3428 -1890 -56 -56 -75 -103 -75
-190 0 -87 19 -134 75 -190 69 -69 181 -97 267 -67 23 8 1670 905 3660 1993
2419 1324 3629 1991 3653 2014 56 56 75 103 75 190 0 87 -19 134 -75 190 -24
23 -1234 690 -3653 2014 -1990 1088 -3635 1985 -3655 1992 -43 15 -112 16
-161 2z"/>
</g>
</svg>
