<?xml version="1.0" standalone="no"?>
<!DOCTYPE svg PUBLIC "-//W3C//DTD SVG 20010904//EN"
 "http://www.w3.org/TR/2001/REC-SVG-20010904/DTD/svg10.dtd">
<svg version="1.0" xmlns="http://www.w3.org/2000/svg"
 width="1049.000000pt" height="946.000000pt" viewBox="0 0 1049.000000 946.000000"
 preserveAspectRatio="xMidYMid meet">
<metadata>
Created by potrace 1.16, written by Peter Selinger 2001-2019
</metadata>
<g transform="translate(0.000000,946.000000) scale(0.100000,-0.100000)"
fill="#000000" stroke="none">
<path d="M4530 9454 c-525 -44 -943 -184 -1340 -449 -367 -245 -612 -537 -689
-824 -33 -121 -16 -173 70 -217 40 -20 63 -24 133 -24 152 0 312 45 511 144
214 106 412 251 511 376 l49 61 100 -5 c117 -6 237 -34 301 -72 70 -41 149
-119 204 -200 144 -217 231 -519 284 -989 13 -115 196 -2337 196 -2380 0 -7
-197 -133 -437 -281 -2650 -1624 -3715 -2405 -4198 -3079 -215 -301 -281 -688
-174 -1025 41 -129 125 -255 221 -331 71 -56 195 -116 286 -140 92 -23 266
-26 375 -5 287 55 654 262 857 483 216 237 200 424 -40 446 -36 3 -89 13 -119
22 -100 31 -195 155 -232 305 -18 72 -18 298 0 370 21 86 56 136 175 256 369
368 1179 933 2611 1821 573 356 730 451 732 444 1 -3 45 -539 98 -1191 52
-652 100 -1232 105 -1290 77 -794 247 -1245 560 -1482 80 -62 243 -141 347
-170 72 -21 100 -22 368 -23 303 0 439 12 655 56 418 86 838 287 1160 557 231
193 395 422 461 646 51 171 -14 256 -196 256 -305 0 -736 -212 -999 -491 l-86
-92 -93 6 c-113 8 -232 37 -293 73 -115 68 -232 215 -306 385 -112 261 -169
564 -218 1169 -119 1453 -196 2435 -191 2438 15 6 793 492 1066 665 1823 1157
2740 1906 3010 2462 202 413 131 937 -157 1166 -71 56 -217 126 -303 144 -92
19 -276 19 -373 -1 -296 -60 -684 -286 -869 -506 -198 -234 -171 -397 68 -422
158 -16 244 -74 306 -206 46 -98 58 -160 58 -305 0 -222 -22 -274 -189 -441
-348 -347 -1096 -874 -2374 -1674 -164 -103 -296 -179 -301 -174 -4 5 -45 473
-90 1039 -88 1103 -98 1198 -136 1431 -65 387 -162 665 -302 862 -106 148
-208 235 -370 313 -171 83 -218 92 -508 94 -137 1 -270 1 -295 -1z"/>
</g>
</svg>
