<?xml version="1.0" standalone="no"?>
<!DOCTYPE svg PUBLIC "-//W3C//DTD SVG 20010904//EN"
 "http://www.w3.org/TR/2001/REC-SVG-20010904/DTD/svg10.dtd">
<svg version="1.0" xmlns="http://www.w3.org/2000/svg"
 width="846.000000pt" height="802.000000pt" viewBox="0 0 846.000000 802.000000"
 preserveAspectRatio="xMidYMid meet">
<metadata>
Created by potrace 1.16, written by Peter Selinger 2001-2019
</metadata>
<g transform="translate(0.000000,802.000000) scale(0.100000,-0.100000)"
fill="#000000" stroke="none">
<path d="M8100 8011 c-46 -14 -105 -49 -131 -78 -51 -54 -68 -105 -94 -282
-70 -488 -211 -871 -454 -1238 -324 -491 -829 -908 -1476 -1219 -1208 -581
-2891 -869 -5250 -900 -533 -7 -528 -6 -611 -89 -112 -112 -112 -278 0 -390
83 -83 78 -82 611 -89 487 -7 787 -17 1210 -42 2884 -168 4709 -855 5516
-2077 243 -367 384 -750 455 -1240 28 -195 44 -238 110 -296 114 -100 272 -94
381 14 86 87 97 154 63 385 -45 302 -144 658 -252 910 -116 271 -294 567 -484
805 -120 150 -400 428 -564 558 -621 496 -1418 860 -2445 1116 -210 52 -479
112 -602 133 -40 6 -73 15 -73 18 0 3 33 12 73 18 123 21 392 81 602 133 1027
256 1824 620 2445 1116 164 130 444 408 564 558 396 496 638 1060 736 1717 34
229 23 296 -63 383 -74 73 -178 103 -267 76z"/>
</g>
</svg>
