<?xml version="1.0" standalone="no"?>
<!DOCTYPE svg PUBLIC "-//W3C//DTD SVG 20010904//EN"
 "http://www.w3.org/TR/2001/REC-SVG-20010904/DTD/svg10.dtd">
<svg version="1.0" xmlns="http://www.w3.org/2000/svg"
 width="885.000000pt" height="622.000000pt" viewBox="0 0 885.000000 622.000000"
 preserveAspectRatio="xMidYMid meet">
<metadata>
Created by potrace 1.16, written by Peter Selinger 2001-2019
</metadata>
<g transform="translate(0.000000,622.000000) scale(0.100000,-0.100000)"
fill="#000000" stroke="none">
<path d="M191 6209 c-165 -50 -242 -258 -149 -404 13 -20 95 -94 183 -164 978
-781 2014 -1306 3025 -1530 180 -40 457 -85 660 -107 127 -14 245 -18 510 -18
378 0 523 11 855 65 1019 168 2020 614 3030 1352 233 170 468 362 493 402 75
118 41 286 -73 365 -83 57 -195 64 -278 17 -23 -12 -107 -75 -187 -138 -980
-781 -2046 -1293 -3032 -1459 -311 -52 -463 -64 -808 -64 -345 0 -497 12 -808
64 -986 166 -2052 678 -3032 1459 -80 63 -164 126 -188 139 -49 28 -146 38
-201 21z"/>
<path d="M4125 2234 c-1207 -77 -2401 -548 -3590 -1417 -233 -170 -468 -362
-493 -402 -120 -189 37 -438 259 -412 68 8 109 33 279 168 1094 872 2232 1381
3365 1505 224 25 726 25 950 0 1133 -124 2271 -633 3365 -1505 170 -135 211
-160 279 -168 222 -26 379 223 259 412 -13 20 -95 94 -183 164 -978 781 -2014
1305 -3025 1530 -172 39 -463 86 -650 106 -138 15 -677 28 -815 19z"/>
</g>
</svg>
