<?xml version="1.0" standalone="no"?>
<!DOCTYPE svg PUBLIC "-//W3C//DTD SVG 20010904//EN"
 "http://www.w3.org/TR/2001/REC-SVG-20010904/DTD/svg10.dtd">
<svg version="1.0" xmlns="http://www.w3.org/2000/svg"
 width="811.000000pt" height="1028.000000pt" viewBox="0 0 811.000000 1028.000000"
 preserveAspectRatio="xMidYMid meet">
<metadata>
Created by potrace 1.16, written by Peter Selinger 2001-2019
</metadata>
<g transform="translate(0.000000,1028.000000) scale(0.100000,-0.100000)"
fill="#000000" stroke="none">
<path d="M191 10269 c-90 -27 -164 -110 -184 -204 -13 -63 6 -222 54 -459 280
-1385 1334 -2372 3111 -2911 239 -72 642 -173 890 -221 109 -22 198 -41 198
-44 0 -3 -89 -22 -198 -44 -408 -80 -898 -213 -1250 -341 -581 -210 -1026
-442 -1430 -745 -788 -591 -1236 -1350 -1368 -2319 -21 -154 -14 -214 35 -284
110 -161 357 -151 452 18 23 41 32 81 53 226 166 1144 860 1946 2152 2484 602
251 1376 446 2239 564 770 105 1624 159 2775 174 207 2 232 9 300 77 56 56 75
103 75 190 0 87 -19 134 -75 190 -68 68 -93 75 -300 77 -1151 15 -2005 69
-2775 174 -1272 174 -2306 504 -3017 965 -798 516 -1245 1194 -1374 2082 -13
96 -32 189 -41 206 -22 45 -82 104 -128 128 -46 24 -144 32 -194 17z"/>
<path d="M191 528 c-51 -14 -114 -61 -145 -108 -101 -153 -20 -367 155 -410
31 -7 1156 -10 3874 -8 3785 3 3830 3 3870 23 50 25 105 80 130 130 27 55 27
175 0 230 -25 50 -80 105 -130 130 -40 20 -83 20 -3880 22 -2502 1 -3852 -2
-3874 -9z"/>
</g>
</svg>
