<?xml version="1.0" standalone="no"?>
<!DOCTYPE svg PUBLIC "-//W3C//DTD SVG 20010904//EN"
 "http://www.w3.org/TR/2001/REC-SVG-20010904/DTD/svg10.dtd">
<svg version="1.0" xmlns="http://www.w3.org/2000/svg"
 width="1523.000000pt" height="1047.000000pt" viewBox="0 0 1523.000000 1047.000000"
 preserveAspectRatio="xMidYMid meet">
<metadata>
Created by potrace 1.16, written by Peter Selinger 2001-2019
</metadata>
<g transform="translate(0.000000,1047.000000) scale(0.100000,-0.100000)"
fill="#000000" stroke="none">
<path d="M5445 10453 c-202 -43 -443 -174 -606 -330 -134 -128 -175 -210 -199
-393 -88 -688 -289 -1722 -496 -2555 -298 -1195 -628 -2207 -1199 -3674 -555
-1428 -907 -2036 -1224 -2117 -54 -13 -78 -14 -159 -5 -354 42 -669 181 -881
388 -91 90 -108 97 -178 68 -171 -72 -392 -463 -475 -840 -15 -72 -22 -136
-22 -230 -1 -190 6 -209 123 -325 252 -250 644 -417 1026 -436 128 -7 177 1
299 46 156 59 421 285 604 517 414 525 832 1355 1339 2657 550 1414 872 2371
1184 3511 103 376 256 986 320 1278 23 108 45 197 49 197 3 0 23 -87 43 -192
290 -1470 834 -3632 1162 -4613 239 -717 548 -1393 927 -2031 81 -137 94 -154
138 -178 58 -32 126 -34 187 -7 113 52 1381 1321 2078 2081 733 799 2426 2739
3499 4010 170 201 317 374 328 385 l20 20 -5 -35 c-3 -19 -30 -188 -61 -375
-240 -1473 -478 -3434 -558 -4595 -17 -245 -17 -1086 0 -1330 21 -295 50 -571
68 -630 47 -159 141 -268 294 -344 118 -58 201 -76 357 -76 204 0 430 49 664
145 136 56 568 272 671 336 265 164 458 375 458 499 0 75 -62 120 -164 120
-143 0 -301 -48 -546 -167 -140 -67 -159 -74 -198 -69 -141 19 -246 129 -271
287 -13 79 -36 327 -53 559 -16 232 -16 1013 0 1250 57 822 216 2256 383 3440
158 1123 448 2812 535 3113 43 150 64 277 64 389 0 123 -15 182 -57 229 -42
46 -82 51 -148 19 -58 -28 -117 -93 -445 -490 -1272 -1542 -2811 -3335 -4225
-4925 -786 -883 -1395 -1525 -2041 -2151 l-243 -235 -51 102 c-251 500 -500
1170 -714 1924 -503 1774 -914 3589 -1225 5412 -28 161 -55 301 -61 312 -6 11
-30 32 -54 46 -36 21 -55 25 -117 24 -41 0 -105 -7 -144 -16z"/>
</g>
</svg>
