<?xml version="1.0" standalone="no"?>
<!DOCTYPE svg PUBLIC "-//W3C//DTD SVG 20010904//EN"
 "http://www.w3.org/TR/2001/REC-SVG-20010904/DTD/svg10.dtd">
<svg version="1.0" xmlns="http://www.w3.org/2000/svg"
 width="92.000000pt" height="496.000000pt" viewBox="0 0 92.000000 496.000000"
 preserveAspectRatio="xMidYMid meet">
<metadata>
Created by potrace 1.16, written by Peter Selinger 2001-2019
</metadata>
<g transform="translate(0.000000,496.000000) scale(0.100000,-0.100000)"
fill="#000000" stroke="none">
<path d="M177 4946 c-79 -29 -139 -93 -163 -173 -22 -71 -21 -4517 1 -4589 18
-61 62 -116 123 -152 41 -24 57 -27 132 -27 75 0 91 3 132 27 25 16 60 45 78
65 62 76 60 39 60 1124 l0 987 88 4 c103 5 148 25 209 91 42 45 73 121 73 177
0 56 -31 132 -73 177 -61 66 -106 86 -209 91 l-88 4 0 987 c0 1085 2 1048 -60
1124 -51 60 -110 90 -194 94 -45 2 -85 -2 -109 -11z"/>
</g>
</svg>
