<?xml version="1.0" standalone="no"?>
<!DOCTYPE svg PUBLIC "-//W3C//DTD SVG 20010904//EN"
 "http://www.w3.org/TR/2001/REC-SVG-20010904/DTD/svg10.dtd">
<svg version="1.0" xmlns="http://www.w3.org/2000/svg"
 width="1230.000000pt" height="722.000000pt" viewBox="0 0 1230.000000 722.000000"
 preserveAspectRatio="xMidYMid meet">
<metadata>
Created by potrace 1.16, written by Peter Selinger 2001-2019
</metadata>
<g transform="translate(0.000000,722.000000) scale(0.100000,-0.100000)"
fill="#000000" stroke="none">
<path d="M8848 7195 c-24 -16 -42 -40 -53 -70 -17 -42 -17 -50 -1 -137 29
-164 104 -451 165 -635 260 -782 731 -1517 1321 -2061 115 -106 349 -301 455
-379 l30 -22 -5267 -1 -5267 0 -55 -20 c-101 -38 -176 -149 -176 -260 0 -111
75 -222 176 -260 l55 -20 5267 0 5267 -1 -30 -22 c-106 -78 -340 -273 -455
-379 -590 -544 -1061 -1279 -1321 -2061 -61 -184 -136 -471 -165 -635 -16 -87
-16 -95 1 -137 11 -30 29 -54 53 -70 36 -24 42 -25 212 -25 248 0 253 3 300
229 148 712 452 1348 912 1906 110 133 366 394 503 512 372 321 811 586 1255
757 239 92 255 105 255 206 0 101 -16 114 -255 206 -444 171 -883 436 -1255
757 -137 118 -393 379 -503 512 -460 558 -764 1194 -912 1906 -32 153 -44 179
-93 209 -29 18 -51 20 -207 20 -170 0 -176 -1 -212 -25z"/>
</g>
</svg>
