<?xml version="1.0" standalone="no"?>
<!DOCTYPE svg PUBLIC "-//W3C//DTD SVG 20010904//EN"
 "http://www.w3.org/TR/2001/REC-SVG-20010904/DTD/svg10.dtd">
<svg version="1.0" xmlns="http://www.w3.org/2000/svg"
 width="923.000000pt" height="922.000000pt" viewBox="0 0 923.000000 922.000000"
 preserveAspectRatio="xMidYMid meet">
<metadata>
Created by potrace 1.16, written by Peter Selinger 2001-2019
</metadata>
<g transform="translate(0.000000,922.000000) scale(0.100000,-0.100000)"
fill="#000000" stroke="none">
<path d="M210 9211 c-83 -26 -141 -74 -181 -151 -19 -35 -24 -61 -24 -120 1
-116 50 -196 155 -251 l45 -24 2062 -3 2063 -2 2 -4228 3 -4227 27 -50 c91
-173 308 -207 444 -70 39 39 56 66 68 105 14 49 16 453 16 4262 l0 4208 2048
0 c2323 0 2105 -8 2199 85 78 79 100 173 67 285 -21 70 -98 149 -168 173 -46
16 -356 17 -4425 16 -2407 0 -4387 -4 -4401 -8z"/>
</g>
</svg>
