<?xml version="1.0" standalone="no"?>
<!DOCTYPE svg PUBLIC "-//W3C//DTD SVG 20010904//EN"
 "http://www.w3.org/TR/2001/REC-SVG-20010904/DTD/svg10.dtd">
<svg version="1.0" xmlns="http://www.w3.org/2000/svg"
 width="538.000000pt" height="537.000000pt" viewBox="0 0 538.000000 537.000000"
 preserveAspectRatio="xMidYMid meet">
<metadata>
Created by potrace 1.16, written by Peter Selinger 2001-2019
</metadata>
<g transform="translate(0.000000,537.000000) scale(0.100000,-0.100000)"
fill="#000000" stroke="none">
<path d="M2490 5364 c-19 -2 -78 -9 -130 -15 -389 -43 -805 -196 -1147 -420
-646 -425 -1067 -1088 -1190 -1879 -25 -163 -25 -567 0 -730 67 -427 208 -792
438 -1135 427 -635 1090 -1048 1864 -1162 168 -24 552 -24 720 0 1038 153
1873 853 2193 1837 96 297 127 494 127 825 0 268 -11 369 -61 590 -213 929
-890 1669 -1796 1964 -270 88 -473 121 -773 126 -115 2 -226 1 -245 -1z m395
-564 c767 -73 1448 -568 1748 -1271 121 -284 172 -531 172 -844 0 -243 -28
-431 -95 -640 -216 -671 -729 -1180 -1402 -1389 -1027 -320 -2149 197 -2571
1185 -121 284 -172 531 -172 844 0 243 28 431 95 640 216 671 729 1180 1402
1389 268 84 542 112 823 86z"/>
</g>
</svg>
