<?xml version="1.0" standalone="no"?>
<!DOCTYPE svg PUBLIC "-//W3C//DTD SVG 20010904//EN"
 "http://www.w3.org/TR/2001/REC-SVG-20010904/DTD/svg10.dtd">
<svg version="1.0" xmlns="http://www.w3.org/2000/svg"
 width="576.000000pt" height="1292.000000pt" viewBox="0 0 576.000000 1292.000000"
 preserveAspectRatio="xMidYMid meet">
<metadata>
Created by potrace 1.16, written by Peter Selinger 2001-2019
</metadata>
<g transform="translate(0.000000,1292.000000) scale(0.100000,-0.100000)"
fill="#000000" stroke="none">
<path d="M4475 12905 c-634 -118 -1041 -660 -1304 -1737 -61 -247 -80 -347
-220 -1123 -255 -1411 -399 -2288 -540 -3280 -136 -953 -191 -1430 -351 -3035
-188 -1889 -271 -2437 -429 -2825 -129 -315 -291 -471 -509 -491 -156 -15
-291 35 -407 150 -40 39 -77 81 -83 92 -11 20 -8 22 43 28 315 37 535 284 535
601 0 169 -59 314 -175 431 -229 231 -630 231 -861 0 -83 -83 -134 -177 -160
-293 -14 -62 -16 -104 -11 -213 17 -356 153 -684 377 -911 187 -189 397 -284
656 -296 322 -15 623 101 866 335 336 324 571 846 742 1652 94 443 425 2333
560 3195 218 1393 307 2108 486 3905 133 1342 210 1983 281 2350 152 786 396
1118 780 1062 114 -16 196 -58 284 -146 40 -39 77 -81 83 -92 11 -20 8 -22
-43 -28 -315 -37 -535 -284 -535 -601 0 -169 59 -314 175 -431 229 -231 630
-231 861 0 83 83 134 177 160 293 14 62 16 104 11 213 -17 356 -153 684 -377
911 -133 134 -282 222 -455 269 -106 29 -325 36 -440 15z"/>
</g>
</svg>
