<?xml version="1.0" standalone="no"?>
<!DOCTYPE svg PUBLIC "-//W3C//DTD SVG 20010904//EN"
 "http://www.w3.org/TR/2001/REC-SVG-20010904/DTD/svg10.dtd">
<svg version="1.0" xmlns="http://www.w3.org/2000/svg"
 width="1266.000000pt" height="1265.000000pt" viewBox="0 0 1266.000000 1265.000000"
 preserveAspectRatio="xMidYMid meet">
<metadata>
Created by potrace 1.16, written by Peter Selinger 2001-2019
</metadata>
<g transform="translate(0.000000,1265.000000) scale(0.100000,-0.100000)"
fill="#000000" stroke="none">
<path d="M4985 12638 c-11 -6 -69 -43 -130 -83 -595 -388 -1226 -612 -1950
-691 -194 -21 -641 -24 -820 -5 -528 55 -998 181 -1440 386 -54 25 -111 45
-127 45 -99 0 -180 -104 -150 -194 6 -17 42 -103 80 -191 182 -417 292 -845
343 -1340 19 -179 16 -626 -5 -820 -79 -724 -303 -1356 -691 -1950 -92 -140
-95 -147 -95 -190 0 -56 31 -103 138 -207 131 -129 174 -147 259 -109 35 17
55 40 136 163 569 862 857 1906 807 2928 -9 193 -36 463 -56 565 -4 23 1182
-1158 5463 -5437 3048 -3047 5483 -5474 5503 -5483 52 -27 147 -31 211 -10 73
25 149 101 174 174 21 64 17 159 -10 211 -9 20 -2436 2455 -5483 5503 -4279
4281 -5460 5467 -5437 5463 102 -20 372 -47 565 -56 491 -24 1001 31 1490 161
492 130 1009 363 1438 646 123 81 146 101 163 136 23 51 24 77 4 124 -19 45
-197 228 -247 254 -41 21 -102 24 -133 7z"/>
</g>
</svg>
