<?xml version="1.0" standalone="no"?>
<!DOCTYPE svg PUBLIC "-//W3C//DTD SVG 20010904//EN"
 "http://www.w3.org/TR/2001/REC-SVG-20010904/DTD/svg10.dtd">
<svg version="1.0" xmlns="http://www.w3.org/2000/svg"
 width="516.000000pt" height="515.000000pt" viewBox="0 0 516.000000 515.000000"
 preserveAspectRatio="xMidYMid meet">
<metadata>
Created by potrace 1.16, written by Peter Selinger 2001-2019
</metadata>
<g transform="translate(0.000000,515.000000) scale(0.100000,-0.100000)"
fill="#000000" stroke="none">
<path d="M2325 5139 c-598 -63 -1138 -321 -1566 -748 -432 -433 -686 -968
-748 -1580 -45 -432 40 -910 235 -1329 208 -446 590 -865 1023 -1122 466 -275
1026 -402 1542 -349 612 62 1147 316 1580 748 432 433 686 968 748 1580 37
362 -17 766 -151 1126 -131 354 -324 652 -597 926 -433 432 -968 686 -1580
748 -118 13 -368 12 -486 0z m585 -558 c562 -98 1046 -415 1360 -889 156 -235
259 -492 312 -782 31 -166 31 -504 0 -670 -105 -570 -416 -1046 -890 -1360
-235 -156 -492 -259 -782 -312 -166 -31 -504 -31 -670 0 -788 145 -1402 697
-1622 1457 -57 196 -71 308 -71 550 0 181 4 240 21 335 105 570 416 1046 890
1360 271 180 580 292 908 330 125 14 412 4 544 -19z"/>
</g>
</svg>
