<?xml version="1.0" standalone="no"?>
<!DOCTYPE svg PUBLIC "-//W3C//DTD SVG 20010904//EN"
 "http://www.w3.org/TR/2001/REC-SVG-20010904/DTD/svg10.dtd">
<svg version="1.0" xmlns="http://www.w3.org/2000/svg"
 width="572.000000pt" height="1177.000000pt" viewBox="0 0 572.000000 1177.000000"
 preserveAspectRatio="xMidYMid meet">
<metadata>
Created by potrace 1.16, written by Peter Selinger 2001-2019
</metadata>
<g transform="translate(0.000000,1177.000000) scale(0.100000,-0.100000)"
fill="#000000" stroke="none">
<path d="M4394 11754 c-57 -20 -120 -77 -148 -133 -13 -25 -78 -235 -146 -466
-67 -231 -125 -423 -129 -428 -4 -4 -59 17 -122 47 -206 99 -421 165 -659 202
-161 26 -510 25 -670 0 -260 -41 -471 -108 -710 -227 -256 -127 -447 -265
-650 -469 -233 -232 -395 -468 -561 -815 -319 -668 -494 -1417 -564 -2409 -37
-527 -45 -1648 -15 -2161 65 -1141 237 -1912 585 -2620 174 -355 339 -592 569
-814 l77 -74 -152 -521 c-84 -287 -154 -542 -157 -567 -15 -154 119 -299 278
-299 101 0 200 60 244 149 13 25 79 235 146 466 67 231 124 423 126 427 2 3
55 -18 117 -47 199 -95 432 -165 672 -202 153 -24 507 -24 660 0 740 116 1367
538 1762 1186 85 139 237 450 307 626 217 553 351 1180 411 1920 55 686 60
1824 10 2531 -70 992 -245 1741 -564 2409 -161 337 -318 567 -550 807 l-103
107 152 523 c84 288 155 544 158 569 15 156 -121 301 -282 298 -28 0 -70 -7
-92 -15z m-1256 -1193 c129 -27 240 -65 357 -121 92 -44 241 -138 307 -193
l27 -22 -1180 -4045 c-648 -2225 -1181 -4049 -1183 -4055 -7 -18 -95 181 -140
317 -145 434 -232 1017 -276 1843 -32 616 -39 2655 -11 3230 53 1060 165 1685
382 2119 105 211 274 431 439 571 251 214 501 326 845 379 72 11 342 -3 433
-23z m1167 -958 c205 -431 315 -1056 366 -2088 28 -575 21 -2614 -11 -3230
-54 -1023 -176 -1687 -390 -2120 -257 -521 -662 -857 -1160 -962 -119 -25
-391 -25 -510 0 -117 25 -273 78 -367 126 -93 46 -240 143 -302 198 l-44 39
1183 4057 c651 2231 1187 4057 1191 4057 4 0 24 -35 44 -77z"/>
</g>
</svg>
