<?xml version="1.0" standalone="no"?>
<!DOCTYPE svg PUBLIC "-//W3C//DTD SVG 20010904//EN"
 "http://www.w3.org/TR/2001/REC-SVG-20010904/DTD/svg10.dtd">
<svg version="1.0" xmlns="http://www.w3.org/2000/svg"
 width="738.000000pt" height="825.000000pt" viewBox="0 0 738.000000 825.000000"
 preserveAspectRatio="xMidYMid meet">
<metadata>
Created by potrace 1.16, written by Peter Selinger 2001-2019
</metadata>
<g transform="translate(0.000000,825.000000) scale(0.100000,-0.100000)"
fill="#000000" stroke="none">
<path d="M3395 8244 c-1308 -87 -2418 -642 -2986 -1494 -197 -294 -316 -597
-381 -966 l-23 -129 0 -2730 c0 -2695 0 -2731 20 -2770 25 -50 80 -105 130
-130 55 -27 175 -27 230 0 50 25 105 80 130 130 20 39 20 81 26 2760 6 2924 3
2745 53 2945 90 352 301 706 572 959 517 483 1247 784 2114 873 69 7 250 13
405 13 155 0 336 -6 405 -13 867 -89 1597 -390 2114 -873 271 -253 482 -607
572 -959 50 -200 47 -21 53 -2945 6 -2679 6 -2721 26 -2760 25 -50 80 -105
130 -130 55 -27 175 -27 230 0 50 25 105 80 130 130 20 39 20 75 20 2770 l0
2730 -23 129 c-47 270 -105 450 -217 681 -341 701 -1032 1251 -1955 1554 -275
91 -653 170 -985 207 -135 15 -657 26 -790 18z"/>
</g>
</svg>
