<?xml version="1.0" standalone="no"?>
<!DOCTYPE svg PUBLIC "-//W3C//DTD SVG 20010904//EN"
 "http://www.w3.org/TR/2001/REC-SVG-20010904/DTD/svg10.dtd">
<svg version="1.0" xmlns="http://www.w3.org/2000/svg"
 width="328.000000pt" height="1384.000000pt" viewBox="0 0 328.000000 1384.000000"
 preserveAspectRatio="xMidYMid meet">
<metadata>
Created by potrace 1.16, written by Peter Selinger 2001-2019
</metadata>
<g transform="translate(0.000000,1384.000000) scale(0.100000,-0.100000)"
fill="#000000" stroke="none">
<path d="M197 13826 c-96 -35 -167 -114 -187 -209 -7 -37 -9 -2044 -8 -6727 3
-6312 4 -6677 20 -6713 83 -182 304 -233 446 -103 25 22 56 64 68 91 l24 50 0
6705 0 6705 -21 45 c-59 131 -214 201 -342 156z"/>
<path d="M2886 13820 c-63 -25 -122 -81 -152 -145 l-24 -50 0 -6705 0 -6705
24 -50 c103 -222 411 -215 514 12 16 36 17 400 17 6743 0 6343 -1 6707 -17
6743 -48 105 -136 167 -247 174 -49 2 -78 -2 -115 -17z"/>
</g>
</svg>
