<?xml version="1.0" standalone="no"?>
<!DOCTYPE svg PUBLIC "-//W3C//DTD SVG 20010904//EN"
 "http://www.w3.org/TR/2001/REC-SVG-20010904/DTD/svg10.dtd">
<svg version="1.0" xmlns="http://www.w3.org/2000/svg"
 width="1395.000000pt" height="1153.000000pt" viewBox="0 0 1395.000000 1153.000000"
 preserveAspectRatio="xMidYMid meet">
<metadata>
Created by potrace 1.16, written by Peter Selinger 2001-2019
</metadata>
<g transform="translate(0.000000,1153.000000) scale(0.100000,-0.100000)"
fill="#000000" stroke="none">
<path d="M13415 11519 c-485 -33 -882 -130 -1240 -303 -363 -175 -668 -420
-831 -668 -214 -323 -434 -860 -699 -1703 -482 -1538 -1326 -4707 -1871 -7025
-31 -129 -57 -236 -59 -238 -5 -5 -247 403 -369 623 -317 571 -567 1112 -868
1875 -790 2006 -1478 4022 -2068 6059 -38 135 -77 255 -85 268 -9 12 -34 32
-57 44 -38 19 -53 21 -138 16 -52 -3 -129 -15 -170 -27 -98 -27 -281 -116
-389 -187 -113 -75 -256 -219 -299 -300 -36 -68 -33 -52 -87 -508 -209 -1761
-615 -3637 -1175 -5425 -123 -392 -344 -1057 -447 -1340 -141 -392 -253 -655
-366 -865 -177 -327 -354 -463 -576 -440 -389 39 -730 183 -943 397 -63 64
-82 78 -108 78 -169 0 -414 -373 -519 -789 -59 -234 -60 -420 -4 -523 72 -131
345 -324 598 -422 246 -94 569 -139 737 -102 314 70 647 387 962 916 339 568
617 1249 1047 2565 520 1594 904 3097 1183 4627 l62 337 92 -297 c613 -1967
1543 -4520 2049 -5622 296 -645 664 -1306 1059 -1902 221 -334 208 -323 378
-315 89 3 130 11 205 36 281 94 565 309 656 495 19 39 35 62 35 52 0 -11 2
-17 5 -15 2 3 58 239 124 524 470 2040 958 3946 1542 6022 294 1047 465 1603
628 2041 46 124 55 136 139 200 396 299 934 455 1657 478 105 3 205 10 223 16
49 15 164 128 227 223 160 240 277 600 279 860 1 140 -17 209 -65 250 -30 24
-34 25 -182 24 -84 -1 -206 -6 -272 -10z"/>
</g>
</svg>
