<?xml version="1.0" standalone="no"?>
<!DOCTYPE svg PUBLIC "-//W3C//DTD SVG 20010904//EN"
 "http://www.w3.org/TR/2001/REC-SVG-20010904/DTD/svg10.dtd">
<svg version="1.0" xmlns="http://www.w3.org/2000/svg"
 width="846.000000pt" height="1072.000000pt" viewBox="0 0 846.000000 1072.000000"
 preserveAspectRatio="xMidYMid meet">
<metadata>
Created by potrace 1.16, written by Peter Selinger 2001-2019
</metadata>
<g transform="translate(0.000000,1072.000000) scale(0.100000,-0.100000)"
fill="#000000" stroke="none">
<path d="M8075 10701 c-46 -17 -7743 -3654 -7901 -3734 -44 -22 -86 -53 -108
-79 -95 -111 -82 -290 27 -384 30 -25 1181 -574 4022 -1917 3567 -1686 3986
-1881 4036 -1885 85 -6 152 20 215 83 78 78 101 173 69 281 -24 80 -72 128
-194 188 -58 29 -1723 817 -3698 1751 -1976 934 -3593 1701 -3593 1705 0 4
1657 790 3683 1748 2626 1241 3694 1751 3724 1776 80 69 110 182 79 291 -14
45 -29 69 -69 110 -83 82 -184 105 -292 66z"/>
<path d="M210 551 c-158 -49 -241 -200 -196 -356 22 -74 97 -153 170 -178 46
-16 333 -17 4041 -17 3708 0 3995 1 4041 17 70 24 147 103 168 173 20 67 20
112 1 176 -19 64 -73 127 -139 162 l-51 27 -4005 2 c-2203 1 -4016 -2 -4030
-6z"/>
</g>
</svg>
