<?xml version="1.0" standalone="no"?>
<!DOCTYPE svg PUBLIC "-//W3C//DTD SVG 20010904//EN"
 "http://www.w3.org/TR/2001/REC-SVG-20010904/DTD/svg10.dtd">
<svg version="1.0" xmlns="http://www.w3.org/2000/svg"
 width="738.000000pt" height="825.000000pt" viewBox="0 0 738.000000 825.000000"
 preserveAspectRatio="xMidYMid meet">
<metadata>
Created by potrace 1.16, written by Peter Selinger 2001-2019
</metadata>
<g transform="translate(0.000000,825.000000) scale(0.100000,-0.100000)"
fill="#000000" stroke="none">
<path d="M191 8239 c-85 -26 -160 -105 -181 -191 -8 -30 -10 -855 -8 -2753 l3
-2710 23 -124 c49 -271 106 -448 217 -676 423 -870 1398 -1510 2612 -1714 328
-55 455 -65 828 -65 373 0 500 10 828 65 1071 180 1962 700 2448 1429 197 294
316 597 381 966 l23 129 0 2730 c0 2695 0 2731 -20 2770 -25 50 -80 105 -130
130 -55 27 -175 27 -230 0 -50 -25 -105 -80 -130 -130 -20 -39 -20 -81 -26
-2760 -6 -2924 -3 -2745 -53 -2945 -90 -352 -301 -706 -572 -959 -517 -483
-1247 -784 -2114 -873 -161 -16 -649 -16 -810 0 -867 89 -1597 390 -2114 873
-271 253 -482 607 -572 959 -50 200 -47 21 -53 2945 -6 2679 -6 2721 -26 2760
-25 51 -80 106 -130 129 -46 22 -146 30 -194 15z"/>
<path d="M3605 6948 c-85 -32 -151 -102 -174 -183 -8 -28 -11 -354 -11 -1087
l0 -1048 -1072 -2 -1073 -3 -40 -22 c-48 -25 -106 -84 -131 -133 -27 -52 -26
-172 3 -225 25 -47 84 -105 133 -131 33 -18 84 -19 1107 -22 l1073 -2 2 -1073
3 -1072 22 -40 c46 -87 153 -155 243 -155 90 0 197 68 243 155 l22 40 3 1072
2 1073 1068 2 c1018 3 1069 4 1102 22 49 26 108 84 133 131 29 53 30 173 3
225 -25 49 -83 108 -131 133 l-40 22 -1067 3 -1068 2 0 1046 c0 713 -3 1059
-11 1088 -15 61 -75 134 -134 165 -56 29 -159 38 -210 19z"/>
</g>
</svg>
