<?xml version="1.0" standalone="no"?>
<!DOCTYPE svg PUBLIC "-//W3C//DTD SVG 20010904//EN"
 "http://www.w3.org/TR/2001/REC-SVG-20010904/DTD/svg10.dtd">
<svg version="1.0" xmlns="http://www.w3.org/2000/svg"
 width="1266.000000pt" height="1265.000000pt" viewBox="0 0 1266.000000 1265.000000"
 preserveAspectRatio="xMidYMid meet">
<metadata>
Created by potrace 1.16, written by Peter Selinger 2001-2019
</metadata>
<g transform="translate(0.000000,1265.000000) scale(0.100000,-0.100000)"
fill="#000000" stroke="none">
<path d="M12275 12635 c-22 -8 -42 -15 -45 -15 -3 0 -2468 -2463 -5478 -5472
-4284 -4283 -5473 -5466 -5468 -5443 20 102 47 372 56 565 24 491 -31 1001
-161 1490 -130 492 -363 1009 -646 1438 -81 123 -101 146 -136 163 -85 38
-128 20 -259 -109 -107 -104 -138 -151 -138 -207 0 -43 3 -50 95 -190 388
-594 612 -1226 691 -1950 21 -194 24 -641 5 -820 -51 -495 -161 -923 -343
-1340 -38 -88 -74 -174 -80 -191 -30 -90 51 -194 150 -194 16 0 73 20 127 45
442 205 912 331 1440 386 179 19 626 16 820 -5 724 -79 1356 -303 1950 -691
140 -92 147 -95 190 -95 56 0 103 31 207 138 129 131 147 174 109 259 -17 35
-40 55 -163 136 -862 569 -1906 857 -2928 807 -193 -9 -463 -36 -565 -56 -23
-4 1158 1182 5437 5463 3047 3048 5474 5483 5483 5503 27 52 31 147 10 211
-24 70 -101 149 -169 172 -60 21 -137 21 -191 2z"/>
</g>
</svg>
