<?xml version="1.0" standalone="no"?>
<!DOCTYPE svg PUBLIC "-//W3C//DTD SVG 20010904//EN"
 "http://www.w3.org/TR/2001/REC-SVG-20010904/DTD/svg10.dtd">
<svg version="1.0" xmlns="http://www.w3.org/2000/svg"
 width="741.000000pt" height="1008.000000pt" viewBox="0 0 741.000000 1008.000000"
 preserveAspectRatio="xMidYMid meet">
<metadata>
Created by potrace 1.16, written by Peter Selinger 2001-2019
</metadata>
<g transform="translate(0.000000,1008.000000) scale(0.100000,-0.100000)"
fill="#000000" stroke="none">
<path d="M5545 10073 c-106 -7 -385 -46 -505 -69 -625 -123 -1287 -399 -1837
-765 -882 -587 -1433 -1321 -1575 -2099 -31 -170 -31 -464 1 -610 32 -149 63
-237 131 -375 156 -315 435 -578 820 -774 l122 -63 -149 -85 c-734 -422 -1385
-1000 -1835 -1629 -454 -635 -736 -1390 -715 -1914 23 -581 347 -1064 918
-1369 286 -152 600 -251 949 -298 193 -26 707 -26 900 0 531 72 1015 223 1530
478 842 416 1545 1004 2050 1715 127 177 144 213 145 296 0 57 -3 70 -25 93
-47 50 -90 65 -192 65 -113 0 -250 -31 -391 -89 -308 -126 -559 -318 -722
-554 -466 -671 -1019 -1018 -1715 -1078 -299 -25 -677 25 -1009 133 -493 162
-847 480 -994 894 -82 229 -87 496 -17 783 121 487 383 973 737 1366 355 393
767 661 1230 799 230 69 429 100 738 116 119 6 204 16 252 28 302 81 654 299
823 509 78 96 111 162 117 232 4 47 1 62 -19 91 -42 62 -85 76 -264 83 -271
12 -506 45 -754 107 -702 176 -1173 586 -1287 1120 -27 128 -24 399 6 539 94
439 346 831 681 1060 229 157 549 268 895 312 128 16 431 16 560 0 217 -27
508 -97 610 -146 107 -52 192 -153 237 -283 19 -57 23 -86 22 -192 0 -154 -21
-223 -124 -410 -38 -69 -74 -144 -80 -167 -23 -78 7 -146 81 -183 48 -25 185
-27 295 -4 287 59 677 285 858 498 95 112 250 404 301 566 120 385 30 763
-230 972 -185 149 -554 262 -968 297 -117 10 -480 12 -602 4z"/>
</g>
</svg>
