<?xml version="1.0" standalone="no"?>
<!DOCTYPE svg PUBLIC "-//W3C//DTD SVG 20010904//EN"
 "http://www.w3.org/TR/2001/REC-SVG-20010904/DTD/svg10.dtd">
<svg version="1.0" xmlns="http://www.w3.org/2000/svg"
 width="741.000000pt" height="1097.000000pt" viewBox="0 0 741.000000 1097.000000"
 preserveAspectRatio="xMidYMid meet">
<metadata>
Created by potrace 1.16, written by Peter Selinger 2001-2019
</metadata>
<g transform="translate(0.000000,1097.000000) scale(0.100000,-0.100000)"
fill="#000000" stroke="none">
<path d="M5355 10959 c-1159 -82 -2318 -568 -3295 -1382 -181 -152 -541 -510
-684 -682 -309 -372 -547 -737 -751 -1150 -327 -665 -528 -1357 -607 -2095
-20 -183 -16 -733 5 -910 65 -524 205 -943 432 -1295 109 -170 293 -373 445
-494 211 -168 504 -312 775 -380 221 -55 321 -66 625 -66 292 1 382 9 644 61
697 138 1478 516 2119 1027 54 43 101 77 103 74 15 -14 -281 -845 -409 -1147
-299 -711 -662 -1294 -974 -1566 -107 -93 -137 -110 -243 -138 -171 -45 -348
-55 -615 -36 -637 47 -1156 203 -1645 494 -87 52 -99 56 -155 56 -120 -1 -256
-41 -441 -130 -294 -142 -547 -363 -586 -512 -11 -43 -10 -50 8 -74 23 -31
151 -110 314 -193 574 -293 1224 -435 1915 -418 239 6 389 25 600 76 467 114
928 338 1360 661 759 567 1286 1355 1769 2642 248 662 473 1427 776 2638 114
454 113 443 38 481 -41 21 -47 22 -137 10 -261 -32 -602 -211 -822 -430 -118
-118 -138 -150 -169 -272 -34 -133 -126 -400 -192 -553 -315 -737 -855 -1408
-1395 -1732 -179 -108 -390 -183 -628 -225 -171 -30 -462 -32 -635 -6 -316 49
-544 133 -772 286 -418 279 -714 741 -856 1336 -73 303 -96 513 -96 870 -1
513 67 945 234 1500 323 1070 934 1981 1645 2450 396 261 895 412 1505 455
423 29 844 -17 1240 -137 144 -43 199 -73 271 -144 146 -146 195 -392 123
-620 -69 -219 -353 -698 -600 -1013 -192 -244 -189 -239 -189 -308 0 -55 3
-63 28 -82 24 -18 42 -21 115 -20 143 1 331 64 531 178 207 119 327 221 476
406 275 342 499 688 681 1052 129 259 172 424 161 627 -11 204 -71 346 -201
477 -69 68 -98 89 -186 132 -215 105 -594 193 -959 221 -155 13 -520 12 -696
0z"/>
</g>
</svg>
