<?xml version="1.0" standalone="no"?>
<!DOCTYPE svg PUBLIC "-//W3C//DTD SVG 20010904//EN"
 "http://www.w3.org/TR/2001/REC-SVG-20010904/DTD/svg10.dtd">
<svg version="1.0" xmlns="http://www.w3.org/2000/svg"
 width="884.000000pt" height="991.000000pt" viewBox="0 0 884.000000 991.000000"
 preserveAspectRatio="xMidYMid meet">
<metadata>
Created by potrace 1.16, written by Peter Selinger 2001-2019
</metadata>
<g transform="translate(0.000000,991.000000) scale(0.100000,-0.100000)"
fill="#000000" stroke="none">
<path d="M2690 9904 c-429 -38 -804 -142 -1170 -325 -458 -230 -818 -543
-1092 -949 -161 -240 -296 -548 -361 -825 -50 -210 -62 -322 -62 -575 0 -265
13 -375 70 -595 48 -187 86 -289 174 -470 132 -270 279 -475 500 -696 395
-395 899 -671 1493 -819 325 -81 787 -126 883 -86 60 25 75 64 75 191 0 181
-21 199 -250 209 -981 44 -1837 569 -2221 1361 -204 422 -258 867 -163 1345
180 906 963 1632 1934 1794 510 85 881 18 1239 -222 278 -187 488 -401 951
-972 329 -405 434 -526 629 -720 202 -201 288 -273 491 -408 351 -234 727
-372 1125 -413 146 -15 458 -7 629 16 511 68 897 245 1090 499 103 136 161
285 172 446 8 102 -8 149 -58 180 -30 18 -50 20 -198 20 -226 0 -245 -12 -261
-162 -23 -200 -116 -323 -329 -432 -192 -99 -516 -166 -806 -166 -188 0 -279
79 -516 452 -280 441 -522 743 -849 1063 -731 715 -1566 1132 -2489 1245 -87
11 -550 21 -630 14z"/>
<path d="M6910 6100 c-340 -42 -665 -160 -931 -338 -356 -238 -583 -559 -686
-967 -34 -136 -43 -398 -19 -527 45 -236 151 -449 343 -688 37 -47 199 -218
358 -380 405 -412 527 -566 615 -771 84 -198 96 -439 36 -709 -125 -557 -567
-1030 -1190 -1275 -130 -51 -352 -115 -399 -115 -53 0 -250 73 -407 151 -350
174 -622 386 -1265 984 -457 426 -682 615 -935 783 -378 252 -730 390 -1105
432 -50 5 -343 10 -655 10 -546 0 -566 -1 -598 -20 -57 -35 -72 -72 -72 -183
0 -172 24 -197 205 -209 312 -20 546 -83 825 -222 317 -158 592 -359 1150
-842 360 -311 527 -450 680 -566 467 -353 861 -542 1295 -621 117 -21 141 -22
855 -22 717 0 739 1 879 23 303 48 569 131 827 258 536 262 923 679 1097 1180
132 380 136 750 10 1054 -102 248 -234 418 -658 850 -362 368 -473 505 -560
685 -72 150 -95 262 -95 455 0 330 58 636 160 845 80 164 179 269 299 315 114
44 366 33 564 -25 349 -101 625 -332 725 -607 31 -86 52 -195 52 -270 0 -56
28 -107 71 -130 50 -27 328 -27 378 0 68 37 84 108 60 278 -56 406 -326 757
-749 973 -195 100 -370 157 -600 196 -112 20 -450 28 -560 15z"/>
</g>
</svg>
