<?xml version="1.0" standalone="no"?>
<!DOCTYPE svg PUBLIC "-//W3C//DTD SVG 20010904//EN"
 "http://www.w3.org/TR/2001/REC-SVG-20010904/DTD/svg10.dtd">
<svg version="1.0" xmlns="http://www.w3.org/2000/svg"
 width="923.000000pt" height="1038.000000pt" viewBox="0 0 923.000000 1038.000000"
 preserveAspectRatio="xMidYMid meet">
<metadata>
Created by potrace 1.16, written by Peter Selinger 2001-2019
</metadata>
<g transform="translate(0.000000,1038.000000) scale(0.100000,-0.100000)"
fill="#000000" stroke="none">
<path d="M2100 10373 c-690 -66 -1185 -355 -1557 -908 -252 -375 -440 -956
-507 -1570 -40 -366 -46 -882 -12 -1155 102 -829 444 -1609 1071 -2445 418
-557 914 -1086 1805 -1926 329 -310 449 -435 611 -641 312 -394 610 -939 815
-1488 32 -88 47 -113 89 -156 112 -113 278 -113 390 0 42 43 57 68 89 156 205
549 503 1094 815 1488 162 206 282 331 611 641 891 840 1387 1369 1805 1926
627 836 969 1616 1071 2445 45 368 22 1004 -52 1440 -199 1172 -763 1906
-1637 2129 -389 100 -851 92 -1242 -20 -623 -178 -1161 -604 -1523 -1206 -34
-55 -76 -131 -94 -167 -18 -36 -35 -66 -38 -66 -3 0 -20 30 -38 66 -18 36 -60
112 -94 167 -497 826 -1312 1305 -2202 1295 -77 0 -157 -3 -176 -5z m525 -582
c486 -90 911 -362 1230 -786 84 -112 179 -263 232 -370 100 -199 191 -486 233
-734 30 -175 65 -237 164 -288 104 -53 223 -38 309 38 61 53 82 102 107 249
41 248 132 536 233 735 134 268 352 547 566 726 273 229 562 367 901 431 166
32 484 32 651 0 311 -58 550 -181 754 -387 387 -391 592 -996 646 -1905 54
-915 -170 -1681 -744 -2545 -420 -632 -970 -1237 -2040 -2244 -141 -133 -304
-294 -362 -357 -312 -342 -588 -744 -803 -1171 -48 -95 -89 -173 -92 -173 -3
0 -44 78 -92 173 -215 427 -491 829 -803 1171 -58 63 -221 224 -362 357 -142
133 -375 355 -517 493 -1455 1408 -2116 2464 -2252 3596 -55 462 -6 1146 116
1615 185 716 536 1154 1061 1325 87 29 261 64 359 74 107 10 397 -3 505 -23z"/>
</g>
</svg>
