<?xml version="1.0" standalone="no"?>
<!DOCTYPE svg PUBLIC "-//W3C//DTD SVG 20010904//EN"
 "http://www.w3.org/TR/2001/REC-SVG-20010904/DTD/svg10.dtd">
<svg version="1.0" xmlns="http://www.w3.org/2000/svg"
 width="731.000000pt" height="1388.000000pt" viewBox="0 0 731.000000 1388.000000"
 preserveAspectRatio="xMidYMid meet">
<metadata>
Created by potrace 1.16, written by Peter Selinger 2001-2019
</metadata>
<g transform="translate(0.000000,1388.000000) scale(0.100000,-0.100000)"
fill="#000000" stroke="none">
<path d="M3582 13863 c-46 -22 -60 -47 -133 -228 -76 -190 -245 -537 -354
-725 -594 -1030 -1482 -1868 -2544 -2400 -97 -48 -246 -118 -331 -155 -85 -36
-165 -76 -177 -87 -39 -37 -45 -67 -41 -241 l3 -166 34 -35 c40 -41 90 -61
132 -52 42 8 268 106 464 200 468 226 952 537 1350 865 l100 83 3 -1991 c1
-1095 1 -2887 0 -3982 l-3 -1991 -100 83 c-398 328 -882 639 -1350 865 -196
94 -422 192 -464 200 -42 9 -92 -11 -132 -52 l-34 -35 -3 -166 c-4 -174 2
-204 41 -241 12 -11 92 -51 177 -87 1216 -526 2220 -1418 2875 -2555 112 -194
280 -538 355 -729 46 -117 74 -173 97 -197 57 -58 149 -58 206 0 23 24 51 80
97 197 75 191 243 535 355 729 594 1030 1482 1868 2544 2400 97 48 246 118
331 155 85 36 165 76 177 87 39 37 45 67 41 241 l-3 166 -34 35 c-40 41 -90
61 -132 52 -42 -8 -268 -106 -464 -200 -468 -226 -952 -537 -1350 -865 l-100
-83 -3 1991 c-1 1095 -1 2887 0 3982 l3 1991 100 -83 c398 -328 882 -639 1350
-865 196 -94 422 -192 464 -200 42 -9 92 11 132 52 l34 35 3 166 c4 174 -2
204 -41 241 -12 11 -92 51 -177 87 -1216 526 -2220 1418 -2875 2555 -109 188
-278 535 -354 725 -36 88 -73 172 -83 186 -37 54 -122 74 -186 42z m107 -1075
c214 -394 541 -852 873 -1225 l108 -121 0 -4502 0 -4502 -108 -121 c-332 -373
-659 -831 -873 -1225 -18 -34 -36 -62 -39 -62 -3 0 -21 28 -39 63 -214 393
-541 851 -873 1224 l-108 121 0 4502 0 4502 108 121 c332 373 659 831 873
1225 18 34 36 62 39 62 3 0 21 -28 39 -62z"/>
</g>
</svg>
