<?xml version="1.0" standalone="no"?>
<!DOCTYPE svg PUBLIC "-//W3C//DTD SVG 20010904//EN"
 "http://www.w3.org/TR/2001/REC-SVG-20010904/DTD/svg10.dtd">
<svg version="1.0" xmlns="http://www.w3.org/2000/svg"
 width="1083.000000pt" height="1384.000000pt" viewBox="0 0 1083.000000 1384.000000"
 preserveAspectRatio="xMidYMid meet">
<metadata>
Created by potrace 1.16, written by Peter Selinger 2001-2019
</metadata>
<g transform="translate(0.000000,1384.000000) scale(0.100000,-0.100000)"
fill="#000000" stroke="none">
<path d="M10470 13831 c-46 -14 -105 -49 -131 -78 -15 -15 -58 -91 -96 -168
-39 -77 -1361 -2814 -2938 -6083 -1577 -3268 -2869 -5941 -2870 -5940 -1 2
-559 1227 -1240 2723 -905 1990 -1245 2727 -1266 2747 -37 35 -94 51 -140 38
-55 -15 -1737 -1299 -1766 -1348 -45 -75 -26 -138 69 -229 53 -50 72 -62 109
-68 25 -4 56 -2 72 4 16 6 216 153 444 327 231 176 419 312 423 308 5 -5 620
-1352 1368 -2994 747 -1642 1365 -2995 1372 -3007 30 -47 80 -63 192 -63 136
0 186 17 252 84 45 47 281 531 3268 6723 2732 5661 3220 6680 3225 6725 17
163 -116 310 -276 307 -25 0 -57 -4 -71 -8z"/>
</g>
</svg>
