<?xml version="1.0" standalone="no"?>
<!DOCTYPE svg PUBLIC "-//W3C//DTD SVG 20010904//EN"
 "http://www.w3.org/TR/2001/REC-SVG-20010904/DTD/svg10.dtd">
<svg version="1.0" xmlns="http://www.w3.org/2000/svg"
 width="1180.000000pt" height="730.000000pt" viewBox="0 0 1180.000000 730.000000"
 preserveAspectRatio="xMidYMid meet">
<metadata>
Created by potrace 1.16, written by Peter Selinger 2001-2019
</metadata>
<g transform="translate(0.000000,730.000000) scale(0.100000,-0.100000)"
fill="#000000" stroke="none">
<path d="M7022 7280 c-44 -27 -72 -76 -72 -128 0 -32 15 -72 61 -164 307 -613
724 -1206 1188 -1690 l84 -88 -4024 0 c-2863 0 -4035 -3 -4063 -11 -228 -63
-264 -375 -56 -493 l55 -31 4340 -3 4339 -2 40 -33 c410 -331 984 -683 1471
-903 96 -43 175 -81 175 -84 0 -3 -79 -41 -175 -84 -487 -220 -1061 -572
-1471 -903 l-40 -33 -4339 -2 -4340 -3 -55 -31 c-208 -118 -172 -430 56 -493
28 -8 1200 -11 4063 -11 l4024 0 -84 -88 c-464 -484 -881 -1077 -1188 -1690
-68 -136 -76 -182 -41 -240 40 -65 65 -72 252 -72 l167 0 36 31 c23 21 59 78
105 168 822 1617 2288 2805 4040 3277 123 33 149 44 177 71 57 57 57 149 0
206 -28 27 -54 38 -177 71 -1752 472 -3218 1660 -4040 3277 -46 90 -82 147
-105 168 l-36 31 -167 0 c-149 0 -171 -2 -200 -20z"/>
</g>
</svg>
