<?xml version="1.0" standalone="no"?>
<!DOCTYPE svg PUBLIC "-//W3C//DTD SVG 20010904//EN"
 "http://www.w3.org/TR/2001/REC-SVG-20010904/DTD/svg10.dtd">
<svg version="1.0" xmlns="http://www.w3.org/2000/svg"
 width="922.000000pt" height="594.000000pt" viewBox="0 0 922.000000 594.000000"
 preserveAspectRatio="xMidYMid meet">
<metadata>
Created by potrace 1.16, written by Peter Selinger 2001-2019
</metadata>
<g transform="translate(0.000000,594.000000) scale(0.100000,-0.100000)"
fill="#000000" stroke="none">
<path d="M2115 5934 c-16 -2 -70 -9 -120 -15 -49 -6 -148 -26 -220 -44 -829
-211 -1464 -884 -1689 -1790 -76 -306 -107 -687 -71 -860 61 -295 256 -330
346 -63 16 47 23 105 30 233 6 93 19 215 30 270 135 672 694 1248 1384 1428
182 48 285 60 495 61 219 1 326 -13 545 -69 380 -97 788 -316 1305 -698 74
-55 250 -189 390 -297 472 -364 689 -518 950 -675 359 -215 716 -352 1075
-412 151 -25 534 -25 680 0 692 119 1262 531 1623 1172 220 391 356 947 340
1388 -6 142 -25 221 -74 298 -65 104 -169 104 -235 1 -50 -80 -69 -160 -80
-342 -6 -91 -19 -210 -30 -265 -135 -671 -694 -1248 -1384 -1428 -182 -48
-285 -60 -495 -61 -219 -1 -326 13 -545 69 -380 97 -788 316 -1305 698 -74 55
-250 189 -390 297 -744 573 -1094 793 -1510 948 -294 110 -513 152 -810 157
-113 2 -218 2 -235 -1z"/>
<path d="M210 551 c-94 -29 -170 -102 -195 -185 -19 -64 -19 -109 1 -176 21
-70 98 -149 168 -173 46 -16 357 -17 4421 -17 4064 0 4375 1 4421 17 70 24
147 103 168 173 20 67 20 112 1 176 -19 64 -73 127 -139 162 l-51 27 -4385 2
c-2412 1 -4396 -2 -4410 -6z"/>
</g>
</svg>
