<?xml version="1.0" standalone="no"?>
<!DOCTYPE svg PUBLIC "-//W3C//DTD SVG 20010904//EN"
 "http://www.w3.org/TR/2001/REC-SVG-20010904/DTD/svg10.dtd">
<svg version="1.0" xmlns="http://www.w3.org/2000/svg"
 width="1012.000000pt" height="946.000000pt" viewBox="0 0 1012.000000 946.000000"
 preserveAspectRatio="xMidYMid meet">
<metadata>
Created by potrace 1.16, written by Peter Selinger 2001-2019
</metadata>
<g transform="translate(0.000000,946.000000) scale(0.100000,-0.100000)"
fill="#000000" stroke="none">
<path d="M5575 9445 c-511 -53 -1001 -197 -1505 -441 -718 -349 -1285 -799
-1634 -1297 -124 -178 -256 -457 -302 -640 -21 -85 -10 -118 50 -149 78 -40
268 -10 486 76 290 115 633 343 785 523 69 81 85 112 134 260 65 199 159 364
286 501 81 87 155 126 325 171 213 56 290 65 570 65 400 0 703 -33 1475 -159
978 -159 1504 -205 1875 -161 63 8 116 13 117 12 4 -4 -398 -467 -686 -791
-501 -563 -845 -933 -1429 -1537 l-364 -378 -812 0 c-781 0 -816 -1 -892 -20
-162 -41 -319 -134 -437 -259 -146 -155 -166 -296 -53 -369 l41 -27 729 -5
729 -5 -364 -351 c-1380 -1329 -2723 -2544 -4145 -3751 -216 -183 -415 -360
-444 -395 -29 -35 -66 -90 -81 -123 -46 -96 -38 -140 34 -176 102 -52 363 10
657 156 310 155 489 180 1080 156 514 -22 833 -49 1765 -151 1242 -136 1593
-165 2185 -177 422 -8 599 10 876 92 598 176 1248 573 1699 1036 352 362 620
775 803 1240 67 170 140 399 148 469 7 52 -15 89 -69 116 -56 30 -263 -3 -437
-69 -381 -145 -799 -447 -900 -652 -16 -33 -48 -123 -70 -200 -114 -390 -311
-764 -549 -1044 l-46 -54 -261 7 c-561 14 -927 44 -2129 176 -932 102 -1250
129 -1765 151 -317 13 -713 6 -860 -15 -52 -7 -96 -12 -97 -11 -2 1 93 84 210
186 1130 979 2328 2077 3471 3176 l219 211 111 -4 c312 -14 580 -51 696 -97
l55 -22 6 -62 c6 -68 15 -82 73 -125 36 -26 46 -28 130 -28 120 0 199 20 321
79 175 86 302 200 366 330 30 59 33 75 34 151 0 70 -4 93 -23 128 -66 124
-241 227 -458 271 -118 24 -381 51 -503 51 -47 0 -92 4 -98 8 -9 5 30 50 118
137 518 515 1325 1373 1925 2047 435 488 1200 1386 1302 1527 45 63 68 142 50
178 -21 44 -73 73 -132 73 -202 0 -568 -139 -823 -312 -49 -33 -87 -35 -363
-18 -332 20 -645 61 -1285 165 -505 82 -751 116 -1070 145 -194 18 -693 21
-850 5z"/>
</g>
</svg>
