<?xml version="1.0" standalone="no"?>
<!DOCTYPE svg PUBLIC "-//W3C//DTD SVG 20010904//EN"
 "http://www.w3.org/TR/2001/REC-SVG-20010904/DTD/svg10.dtd">
<svg version="1.0" xmlns="http://www.w3.org/2000/svg"
 width="1230.000000pt" height="762.000000pt" viewBox="0 0 1230.000000 762.000000"
 preserveAspectRatio="xMidYMid meet">
<metadata>
Created by potrace 1.16, written by Peter Selinger 2001-2019
</metadata>
<g transform="translate(0.000000,762.000000) scale(0.100000,-0.100000)"
fill="#000000" stroke="none">
<path d="M4580 7609 c-44 -18 -60 -41 -135 -189 -515 -1016 -1290 -1891 -2234
-2525 -590 -395 -1286 -714 -1931 -885 -85 -22 -173 -50 -196 -61 -110 -54
-110 -214 0 -268 23 -11 109 -38 191 -60 550 -147 1161 -411 1674 -724 1023
-624 1860 -1507 2419 -2552 44 -83 97 -183 119 -224 59 -116 60 -116 278 -116
171 0 185 1 212 21 41 30 66 80 66 129 0 69 -233 507 -452 850 -234 367 -548
768 -852 1089 l-81 86 4199 0 c3903 0 4203 1 4249 17 70 24 147 103 168 173
34 113 11 206 -68 286 -40 39 -67 56 -106 68 -49 15 -478 16 -4555 16 l-4501
0 -147 114 c-453 353 -1024 694 -1524 911 l-112 48 117 52 c542 240 1060 549
1534 917 l127 98 4504 0 c4078 0 4508 1 4557 16 74 22 152 100 174 174 20 68
20 112 0 180 -21 70 -98 149 -168 173 -46 16 -346 17 -4249 17 l-4199 0 93
101 c500 539 869 1062 1192 1688 109 212 119 247 81 311 -41 70 -56 75 -247
77 -100 1 -182 -2 -197 -8z"/>
</g>
</svg>
