<?xml version="1.0" standalone="no"?>
<!DOCTYPE svg PUBLIC "-//W3C//DTD SVG 20010904//EN"
 "http://www.w3.org/TR/2001/REC-SVG-20010904/DTD/svg10.dtd">
<svg version="1.0" xmlns="http://www.w3.org/2000/svg"
 width="1180.000000pt" height="694.000000pt" viewBox="0 0 1180.000000 694.000000"
 preserveAspectRatio="xMidYMid meet">
<metadata>
Created by potrace 1.16, written by Peter Selinger 2001-2019
</metadata>
<g transform="translate(0.000000,694.000000) scale(0.100000,-0.100000)"
fill="#000000" stroke="none">
<path d="M8515 6926 c-41 -18 -83 -69 -90 -110 -18 -93 119 -609 250 -946 314
-808 858 -1529 1554 -2059 l93 -71 -5044 0 c-4562 0 -5049 -2 -5097 -16 -103
-30 -181 -140 -181 -254 0 -114 78 -224 181 -254 48 -14 535 -16 5097 -16
l5044 0 -93 -71 c-696 -530 -1240 -1251 -1554 -2059 -131 -337 -268 -853 -250
-946 7 -42 50 -93 92 -110 22 -10 78 -14 178 -14 161 0 204 12 239 65 10 14
31 90 47 168 129 620 386 1187 760 1678 315 413 679 745 1128 1027 159 100
504 270 691 341 170 65 214 95 226 156 3 19 3 51 0 70 -12 61 -56 91 -226 156
-187 71 -532 241 -691 341 -449 282 -813 614 -1128 1027 -374 491 -631 1058
-760 1678 -16 78 -37 154 -47 168 -35 53 -78 65 -241 65 -100 -1 -158 -5 -178
-14z"/>
</g>
</svg>
