<?xml version="1.0" standalone="no"?>
<!DOCTYPE svg PUBLIC "-//W3C//DTD SVG 20010904//EN"
 "http://www.w3.org/TR/2001/REC-SVG-20010904/DTD/svg10.dtd">
<svg version="1.0" xmlns="http://www.w3.org/2000/svg"
 width="1023.000000pt" height="952.000000pt" viewBox="0 0 1023.000000 952.000000"
 preserveAspectRatio="xMidYMid meet">
<metadata>
Created by potrace 1.16, written by Peter Selinger 2001-2019
</metadata>
<g transform="translate(0.000000,952.000000) scale(0.100000,-0.100000)"
fill="#000000" stroke="none">
<path d="M5028 9507 c-60 -20 -121 -70 -154 -128 -28 -47 -4782 -8868 -4845
-8989 -31 -59 -33 -177 -5 -230 25 -49 83 -108 131 -133 l40 -22 4890 -3
c3423 -2 4903 1 4933 8 136 33 224 176 195 312 -16 73 -4862 9066 -4913 9118
-20 20 -53 44 -75 54 -48 23 -148 30 -197 13z m2275 -4895 c1203 -2232 2187
-4061 2187 -4065 0 -4 -1971 -7 -4380 -7 -2409 0 -4380 3 -4380 7 0 11 4374
8123 4380 8123 3 0 990 -1826 2193 -4058z"/>
</g>
</svg>
