<?xml version="1.0" standalone="no"?>
<!DOCTYPE svg PUBLIC "-//W3C//DTD SVG 20010904//EN"
 "http://www.w3.org/TR/2001/REC-SVG-20010904/DTD/svg10.dtd">
<svg version="1.0" xmlns="http://www.w3.org/2000/svg"
 width="738.000000pt" height="825.000000pt" viewBox="0 0 738.000000 825.000000"
 preserveAspectRatio="xMidYMid meet">
<metadata>
Created by potrace 1.16, written by Peter Selinger 2001-2019
</metadata>
<g transform="translate(0.000000,825.000000) scale(0.100000,-0.100000)"
fill="#000000" stroke="none">
<path d="M3586 8230 c-60 -23 -110 -70 -141 -130 -12 -25 -791 -1779 -1729
-3898 -1229 -2774 -1709 -3867 -1713 -3902 -16 -137 76 -264 213 -293 105 -22
220 24 274 110 15 23 739 1650 1610 3617 871 1966 1585 3574 1586 3573 1 -1
711 -1603 1578 -3559 866 -1956 1584 -3575 1595 -3596 31 -61 112 -128 172
-142 96 -23 192 3 259 70 56 56 75 103 75 190 l-1 75 -1708 3855 c-939 2120
-1717 3873 -1728 3895 -64 129 -210 186 -342 135z"/>
</g>
</svg>
