<?xml version="1.0" standalone="no"?>
<!DOCTYPE svg PUBLIC "-//W3C//DTD SVG 20010904//EN"
 "http://www.w3.org/TR/2001/REC-SVG-20010904/DTD/svg10.dtd">
<svg version="1.0" xmlns="http://www.w3.org/2000/svg"
 width="885.000000pt" height="886.000000pt" viewBox="0 0 885.000000 886.000000"
 preserveAspectRatio="xMidYMid meet">
<metadata>
Created by potrace 1.16, written by Peter Selinger 2001-2019
</metadata>
<g transform="translate(0.000000,886.000000) scale(0.100000,-0.100000)"
fill="#000000" stroke="none">
<path d="M4165 8854 c-22 -2 -96 -9 -165 -15 -493 -43 -1023 -192 -1495 -418
-1527 -734 -2505 -2292 -2505 -3991 0 -1489 753 -2886 1996 -3702 601 -395
1268 -631 2009 -710 157 -17 673 -17 830 0 741 79 1408 315 2009 710 1243 816
1996 2213 1996 3702 0 1489 -753 2886 -1996 3702 -589 387 -1236 620 -1954
704 -127 14 -631 27 -725 18z m700 -389 c997 -115 1928 -596 2575 -1332 608
-691 954 -1517 1019 -2435 49 -681 -90 -1401 -392 -2030 -521 -1086 -1499
-1883 -2672 -2177 -337 -84 -596 -115 -975 -115 -379 0 -638 31 -975 115 -792
199 -1519 638 -2045 1236 -608 691 -954 1517 -1019 2435 -49 681 90 1401 392
2030 521 1086 1499 1883 2672 2177 221 55 468 94 740 115 108 8 547 -4 680
-19z"/>
<path d="M4270 5359 c-91 -16 -245 -73 -332 -125 -111 -66 -256 -211 -322
-322 -85 -143 -136 -324 -136 -482 0 -158 51 -339 136 -482 66 -111 211 -256
322 -322 143 -85 324 -136 482 -136 158 0 339 51 482 136 111 66 256 211 322
322 85 143 136 324 136 482 0 158 -51 339 -136 482 -66 111 -211 256 -322 322
-91 54 -242 110 -342 125 -77 13 -213 12 -290 0z"/>
</g>
</svg>
