<?xml version="1.0" standalone="no"?>
<!DOCTYPE svg PUBLIC "-//W3C//DTD SVG 20010904//EN"
 "http://www.w3.org/TR/2001/REC-SVG-20010904/DTD/svg10.dtd">
<svg version="1.0" xmlns="http://www.w3.org/2000/svg"
 width="1055.000000pt" height="1067.000000pt" viewBox="0 0 1055.000000 1067.000000"
 preserveAspectRatio="xMidYMid meet">
<metadata>
Created by potrace 1.16, written by Peter Selinger 2001-2019
</metadata>
<g transform="translate(0.000000,1067.000000) scale(0.100000,-0.100000)"
fill="#000000" stroke="none">
<path d="M7270 10663 c-102 -6 -384 -44 -515 -69 -677 -130 -1418 -441 -2040
-857 -914 -611 -1537 -1386 -1770 -2201 -35 -123 -34 -167 6 -200 27 -23 39
-26 112 -26 237 0 614 183 855 414 107 104 147 159 168 236 131 478 364 883
698 1215 199 197 387 332 621 446 183 88 303 132 510 184 359 91 453 97 1599
93 l929 -3 -89 -75 c-303 -253 -609 -607 -867 -1000 -457 -699 -889 -1728
-1295 -3085 -172 -573 -323 -1132 -572 -2120 -159 -629 -179 -701 -257 -905
-258 -675 -737 -1316 -1231 -1649 -290 -194 -600 -284 -992 -285 -206 -1 -308
10 -505 51 -819 170 -1373 773 -1455 1582 -19 196 -8 388 36 608 32 163 32
185 -6 217 -41 34 -82 40 -176 26 -330 -49 -824 -356 -932 -580 -75 -156 -121
-588 -93 -875 68 -699 465 -1260 1106 -1566 352 -168 683 -239 1110 -239 548
0 1117 145 1705 435 414 205 774 439 1130 735 162 135 508 480 640 640 356
428 612 855 799 1330 95 241 120 325 281 965 395 1564 642 2417 937 3235 398
1103 843 1923 1278 2355 55 55 119 112 141 127 56 39 177 67 313 74 139 7 200
17 306 51 303 98 657 346 759 532 21 39 26 61 24 98 -3 41 -7 50 -37 70 l-34
23 -1571 -2 c-864 -1 -1596 -3 -1626 -5z"/>
</g>
</svg>
