<?xml version="1.0" standalone="no"?>
<!DOCTYPE svg PUBLIC "-//W3C//DTD SVG 20010904//EN"
 "http://www.w3.org/TR/2001/REC-SVG-20010904/DTD/svg10.dtd">
<svg version="1.0" xmlns="http://www.w3.org/2000/svg"
 width="936.000000pt" height="1023.000000pt" viewBox="0 0 936.000000 1023.000000"
 preserveAspectRatio="xMidYMid meet">
<metadata>
Created by potrace 1.16, written by Peter Selinger 2001-2019
</metadata>
<g transform="translate(0.000000,1023.000000) scale(0.100000,-0.100000)"
fill="#000000" stroke="none">
<path d="M6875 10219 c-1115 -65 -2117 -398 -2778 -921 -122 -97 -339 -313
-422 -421 -50 -66 -62 -75 -70 -61 -5 9 -55 85 -110 168 -382 579 -881 947
-1437 1058 -152 30 -439 33 -568 4 -303 -66 -558 -210 -774 -437 -323 -340
-514 -862 -493 -1344 9 -193 50 -342 152 -545 101 -201 213 -354 520 -710 359
-418 507 -651 576 -915 23 -88 24 -100 23 -490 0 -222 -6 -460 -12 -535 -37
-418 -104 -654 -222 -783 -58 -63 -112 -93 -187 -103 -104 -13 -170 22 -219
118 -45 89 -84 313 -84 485 0 78 -21 128 -64 154 -27 17 -52 19 -211 19 -205
0 -227 -7 -260 -76 -15 -33 -17 -55 -12 -159 24 -461 214 -837 496 -979 125
-62 214 -80 360 -73 238 11 435 100 597 268 182 190 303 462 378 848 58 296
79 564 80 996 1 319 0 346 -22 445 -56 255 -171 521 -329 760 -144 217 -253
349 -556 677 -222 238 -333 406 -372 558 -20 77 -19 248 1 382 40 273 146 506
308 680 170 182 364 272 586 272 309 1 586 -227 789 -649 186 -388 262 -822
292 -1663 14 -411 6 -4632 -10 -4927 -32 -611 -61 -828 -147 -1129 -105 -365
-224 -567 -381 -647 -55 -28 -64 -29 -178 -28 -70 1 -150 8 -192 17 -329 74
-629 320 -845 693 -59 103 -151 312 -145 328 3 7 48 29 101 50 115 45 152 74
166 127 17 62 -10 107 -132 226 -123 119 -142 126 -234 93 -92 -34 -94 -33
-122 35 -29 74 -54 102 -104 117 -65 19 -109 -6 -241 -141 -121 -123 -137
-152 -123 -218 6 -27 4 -29 -56 -52 -155 -59 -188 -88 -188 -164 0 -56 17 -82
133 -194 120 -117 147 -129 226 -98 25 9 53 19 61 22 12 3 30 -31 75 -143 254
-631 735 -1058 1332 -1184 146 -31 362 -37 493 -15 299 50 535 180 790 435
221 221 358 419 535 772 288 576 446 1170 521 1958 14 141 18 333 21 998 l5
822 758 0 757 0 6 -67 c4 -38 41 -699 84 -1470 l77 -1401 -17 -109 c-56 -366
-10 -686 148 -1009 232 -476 662 -807 1190 -915 96 -19 149 -23 405 -26 277
-4 297 -3 325 15 61 39 1221 1065 1238 1095 22 41 22 84 -1 126 -14 27 -51 53
-163 119 -79 46 -167 95 -196 108 -95 45 -73 62 -593 -453 l-461 -456 -27 14
c-43 23 -213 199 -275 287 -227 318 -313 726 -233 1107 12 58 5 211 -75 1652
-48 873 -87 1588 -86 1588 1 1 31 14 67 29 274 119 644 308 1567 798 431 229
628 339 640 357 12 17 18 44 17 76 0 47 -67 175 -979 1887 -691 1299 -986
1843 -1004 1855 -22 15 -51 18 -186 19 -88 1 -223 -2 -300 -7z m189 -2295
c467 -879 844 -1599 840 -1604 -17 -16 -322 -174 -645 -335 -328 -163 -556
-265 -729 -326 l-95 -34 -1121 -3 -1122 -2 -5 617 c-3 474 -8 652 -21 763 -42
380 -94 640 -192 963 l-45 148 44 92 c297 625 1003 1069 2042 1283 88 18 169
33 180 33 17 1 164 -270 869 -1595z"/>
</g>
</svg>
