<?xml version="1.0" standalone="no"?>
<!DOCTYPE svg PUBLIC "-//W3C//DTD SVG 20010904//EN"
 "http://www.w3.org/TR/2001/REC-SVG-20010904/DTD/svg10.dtd">
<svg version="1.0" xmlns="http://www.w3.org/2000/svg"
 width="621.000000pt" height="1180.000000pt" viewBox="0 0 621.000000 1180.000000"
 preserveAspectRatio="xMidYMid meet">
<metadata>
Created by potrace 1.16, written by Peter Selinger 2001-2019
</metadata>
<g transform="translate(0.000000,1180.000000) scale(0.100000,-0.100000)"
fill="#000000" stroke="none">
<path d="M3029 11777 c-54 -36 -75 -78 -88 -169 -23 -156 -82 -403 -141 -579
-186 -560 -478 -1031 -899 -1449 -474 -471 -1017 -783 -1656 -951 -230 -60
-239 -70 -243 -277 -4 -170 4 -208 53 -251 55 -48 87 -49 253 -6 985 251 1872
875 2435 1712 l82 122 5 -4867 5 -4867 23 -47 c43 -87 142 -148 242 -148 100
0 199 61 242 148 l23 47 5 4867 5 4867 82 -122 c563 -837 1450 -1461 2435
-1712 166 -43 198 -42 253 6 49 43 57 81 53 251 -4 207 -13 217 -243 277 -508
133 -938 350 -1374 692 -145 114 -437 407 -559 561 -396 500 -649 1064 -756
1685 -27 156 -42 189 -100 217 -48 22 -97 20 -137 -7z"/>
</g>
</svg>
