<?xml version="1.0" standalone="no"?>
<!DOCTYPE svg PUBLIC "-//W3C//DTD SVG 20010904//EN"
 "http://www.w3.org/TR/2001/REC-SVG-20010904/DTD/svg10.dtd">
<svg version="1.0" xmlns="http://www.w3.org/2000/svg"
 width="1230.000000pt" height="762.000000pt" viewBox="0 0 1230.000000 762.000000"
 preserveAspectRatio="xMidYMid meet">
<metadata>
Created by potrace 1.16, written by Peter Selinger 2001-2019
</metadata>
<g transform="translate(0.000000,762.000000) scale(0.100000,-0.100000)"
fill="#000000" stroke="none">
<path d="M7334 7606 c-62 -28 -102 -112 -84 -175 12 -43 177 -362 275 -531
271 -469 610 -923 1014 -1359 l93 -101 -4199 0 c-3903 0 -4203 -1 -4249 -17
-70 -24 -147 -103 -168 -173 -20 -67 -20 -112 -1 -176 19 -64 73 -127 139
-162 l51 -27 4523 -3 4523 -2 127 -99 c474 -367 992 -676 1534 -916 l117 -52
-112 -48 c-500 -217 -1085 -566 -1520 -909 l-142 -111 -4525 -5 -4525 -5 -51
-27 c-171 -90 -206 -308 -71 -443 35 -34 69 -57 101 -68 46 -16 346 -17 4249
-17 l4199 0 -81 -86 c-477 -504 -881 -1075 -1203 -1701 -81 -157 -101 -205
-101 -238 0 -49 25 -99 66 -129 27 -20 41 -21 212 -21 218 0 219 0 278 116 99
190 206 384 274 499 561 932 1334 1710 2264 2277 513 313 1124 577 1674 724
183 48 225 68 253 118 44 77 15 172 -62 210 -23 11 -111 39 -196 61 -762 202
-1558 593 -2225 1095 -809 609 -1449 1370 -1932 2299 -56 109 -98 177 -116
190 -26 19 -44 21 -200 23 -129 2 -180 -1 -203 -11z"/>
</g>
</svg>
