<?xml version="1.0" standalone="no"?>
<!DOCTYPE svg PUBLIC "-//W3C//DTD SVG 20010904//EN"
 "http://www.w3.org/TR/2001/REC-SVG-20010904/DTD/svg10.dtd">
<svg version="1.0" xmlns="http://www.w3.org/2000/svg"
 width="874.000000pt" height="1072.000000pt" viewBox="0 0 874.000000 1072.000000"
 preserveAspectRatio="xMidYMid meet">
<metadata>
Created by potrace 1.16, written by Peter Selinger 2001-2019
</metadata>
<g transform="translate(0.000000,1072.000000) scale(0.100000,-0.100000)"
fill="#000000" stroke="none">
<path d="M360 10711 c-83 -26 -141 -74 -181 -151 l-24 -45 -3 -3785 c-2 -4276
-11 -3852 81 -3945 35 -34 69 -57 101 -68 46 -16 337 -17 4106 -17 3769 0
4060 1 4106 17 70 24 147 103 168 173 20 67 20 112 1 176 -19 64 -73 127 -139
162 l-51 27 -3907 3 -3908 2 0 3450 0 3450 3893 0 c3617 0 3897 1 3943 17 70
24 147 103 168 173 20 68 20 112 0 180 -21 70 -98 149 -168 173 -46 16 -335
17 -4105 16 -2231 0 -4067 -4 -4081 -8z"/>
<path d="M210 551 c-94 -29 -170 -102 -195 -185 -19 -64 -19 -109 1 -176 21
-70 98 -149 168 -173 46 -16 342 -17 4181 -17 3839 0 4135 1 4181 17 70 24
147 103 168 173 20 67 20 112 1 176 -19 64 -73 127 -139 162 l-51 27 -4145 2
c-2280 1 -4156 -2 -4170 -6z"/>
</g>
</svg>
