<?xml version="1.0" standalone="no"?>
<!DOCTYPE svg PUBLIC "-//W3C//DTD SVG 20010904//EN"
 "http://www.w3.org/TR/2001/REC-SVG-20010904/DTD/svg10.dtd">
<svg version="1.0" xmlns="http://www.w3.org/2000/svg"
 width="1125.000000pt" height="992.000000pt" viewBox="0 0 1125.000000 992.000000"
 preserveAspectRatio="xMidYMid meet">
<metadata>
Created by potrace 1.16, written by Peter Selinger 2001-2019
</metadata>
<g transform="translate(0.000000,992.000000) scale(0.100000,-0.100000)"
fill="#000000" stroke="none">
<path d="M4450 9909 c-703 -40 -1261 -244 -1723 -629 -160 -134 -266 -264
-337 -412 -68 -141 -64 -220 11 -259 71 -36 240 -20 403 38 189 67 457 224
592 347 l61 55 184 11 c101 5 563 10 1025 10 l842 0 -39 -187 c-507 -2429
-1314 -4756 -2501 -7208 -213 -440 -332 -667 -397 -756 l-48 -65 -79 8 c-163
16 -402 81 -519 140 -69 35 -197 122 -268 183 -145 122 -277 309 -352 498 -20
51 -42 98 -48 105 -46 56 -217 55 -394 -2 -202 -66 -371 -155 -552 -291 -168
-127 -287 -273 -306 -376 -15 -79 122 -355 259 -526 255 -316 673 -533 1118
-582 139 -16 364 -13 484 4 541 81 1219 466 1640 932 250 278 350 447 732
1238 390 809 761 1654 1035 2355 l25 65 1291 3 1291 2 0 -33 c0 -42 22 -72 70
-97 85 -43 285 -8 510 90 266 115 553 335 649 495 59 98 98 284 71 336 -6 10
-28 28 -50 39 -39 20 -58 20 -1776 20 -1649 0 -1736 1 -1729 18 27 71 154 438
236 685 301 907 590 1941 776 2780 l28 128 1350 -4 c1472 -4 1475 -4 1695 -63
201 -53 259 -123 244 -293 -8 -92 4 -118 66 -146 55 -25 203 -16 321 19 330
97 728 368 848 577 57 100 66 274 21 393 -66 172 -297 295 -650 343 -115 16
-351 17 -3045 19 -1606 1 -2985 -2 -3065 -7z"/>
</g>
</svg>
