<?xml version="1.0" standalone="no"?>
<!DOCTYPE svg PUBLIC "-//W3C//DTD SVG 20010904//EN"
 "http://www.w3.org/TR/2001/REC-SVG-20010904/DTD/svg10.dtd">
<svg version="1.0" xmlns="http://www.w3.org/2000/svg"
 width="621.000000pt" height="1388.000000pt" viewBox="0 0 621.000000 1388.000000"
 preserveAspectRatio="xMidYMid meet">
<metadata>
Created by potrace 1.16, written by Peter Selinger 2001-2019
</metadata>
<g transform="translate(0.000000,1388.000000) scale(0.100000,-0.100000)"
fill="#000000" stroke="none">
<path d="M3030 13861 c-48 -25 -76 -79 -90 -175 -22 -154 -82 -402 -140 -577
-186 -560 -478 -1031 -899 -1449 -474 -471 -1017 -783 -1656 -951 -230 -60
-239 -70 -243 -277 -4 -170 4 -208 53 -251 55 -48 87 -49 253 -6 985 251 1872
875 2435 1712 l82 122 3 -2535 c1 -1394 1 -3674 0 -5068 l-3 -2535 -82 122
c-563 837 -1450 1461 -2435 1712 -166 43 -198 42 -253 -6 -49 -43 -57 -81 -53
-251 4 -207 13 -217 243 -277 639 -168 1182 -480 1656 -951 421 -418 713 -889
899 -1449 58 -175 118 -423 140 -577 7 -45 21 -98 33 -119 39 -68 121 -93 193
-59 58 28 73 61 100 217 107 621 360 1185 756 1685 122 154 414 447 559 561
436 342 866 559 1374 692 230 60 239 70 243 277 4 170 -4 208 -53 251 -55 48
-87 49 -253 6 -985 -251 -1872 -875 -2435 -1712 l-82 -122 -3 2535 c-1 1394
-1 3674 0 5068 l3 2535 82 -122 c563 -837 1450 -1461 2435 -1712 166 -43 198
-42 253 6 49 43 57 81 53 251 -4 207 -13 217 -243 277 -508 133 -938 350
-1374 692 -145 114 -437 407 -559 561 -396 500 -649 1064 -756 1685 -27 156
-42 189 -100 217 -45 21 -93 20 -136 -3z"/>
</g>
</svg>
