<?xml version="1.0" standalone="no"?>
<!DOCTYPE svg PUBLIC "-//W3C//DTD SVG 20010904//EN"
 "http://www.w3.org/TR/2001/REC-SVG-20010904/DTD/svg10.dtd">
<svg version="1.0" xmlns="http://www.w3.org/2000/svg"
 width="1230.000000pt" height="1292.000000pt" viewBox="0 0 1230.000000 1292.000000"
 preserveAspectRatio="xMidYMid meet">
<metadata>
Created by potrace 1.16, written by Peter Selinger 2001-2019
</metadata>
<g transform="translate(0.000000,1292.000000) scale(0.100000,-0.100000)"
fill="#000000" stroke="none">
<path d="M5855 12914 c-333 -24 -605 -58 -839 -105 -1084 -217 -2101 -738
-2926 -1501 -1182 -1092 -1909 -2590 -2067 -4258 -24 -261 -24 -919 0 -1180
94 -992 380 -1905 860 -2742 902 -1572 2408 -2672 4133 -3017 160 -32 430 -71
649 -93 173 -17 787 -17 960 0 219 22 489 61 649 93 1084 217 2101 738 2926
1501 1182 1092 1909 2590 2067 4258 24 261 24 919 0 1180 -216 2287 -1515
4246 -3467 5229 -686 346 -1332 534 -2120 617 -136 14 -708 27 -825 18z m795
-579 c1392 -145 2650 -800 3586 -1866 794 -904 1291 -2017 1443 -3229 35 -280
46 -460 46 -780 0 -320 -11 -500 -46 -780 -247 -1971 -1424 -3678 -3129 -4539
-619 -313 -1238 -491 -1955 -562 -171 -17 -729 -17 -900 0 -199 19 -404 49
-570 82 -1455 290 -2744 1176 -3583 2463 -498 765 -816 1636 -931 2556 -35
280 -46 460 -46 780 0 404 25 705 90 1080 242 1393 971 2664 2035 3550 709
589 1548 992 2435 1169 234 47 430 71 760 95 111 8 629 -4 765 -19z"/>
</g>
</svg>
