<?xml version="1.0" standalone="no"?>
<!DOCTYPE svg PUBLIC "-//W3C//DTD SVG 20010904//EN"
 "http://www.w3.org/TR/2001/REC-SVG-20010904/DTD/svg10.dtd">
<svg version="1.0" xmlns="http://www.w3.org/2000/svg"
 width="1215.000000pt" height="1214.000000pt" viewBox="0 0 1215.000000 1214.000000"
 preserveAspectRatio="xMidYMid meet">
<metadata>
Created by potrace 1.16, written by Peter Selinger 2001-2019
</metadata>
<g transform="translate(0.000000,1214.000000) scale(0.100000,-0.100000)"
fill="#000000" stroke="none">
<path d="M4809 12131 c-15 -5 -78 -42 -140 -83 -837 -551 -1835 -780 -2834
-652 -407 52 -862 186 -1235 363 -36 17 -81 31 -101 31 -70 0 -149 -79 -149
-149 0 -20 14 -65 31 -101 296 -623 439 -1377 389 -2050 -56 -746 -279 -1413
-677 -2017 -87 -134 -96 -155 -87 -208 6 -34 24 -57 128 -162 106 -106 126
-122 163 -128 31 -5 53 -1 86 13 40 18 55 36 130 149 628 951 891 2086 746
3221 -10 84 -19 156 -19 160 0 4 2364 -2356 5253 -5244 4627 -4626 5257 -5252
5293 -5262 102 -29 204 -1 276 74 71 74 94 169 66 268 -10 36 -636 666 -5265
5297 l-5255 5256 80 -13 c227 -36 400 -48 707 -48 340 0 480 12 793 64 644
109 1266 354 1815 717 113 75 131 90 149 130 35 80 22 111 -96 231 -55 57
-112 112 -126 122 -31 22 -86 32 -121 21z"/>
</g>
</svg>
