<?xml version="1.0" standalone="no"?>
<!DOCTYPE svg PUBLIC "-//W3C//DTD SVG 20010904//EN"
 "http://www.w3.org/TR/2001/REC-SVG-20010904/DTD/svg10.dtd">
<svg version="1.0" xmlns="http://www.w3.org/2000/svg"
 width="866.000000pt" height="1008.000000pt" viewBox="0 0 866.000000 1008.000000"
 preserveAspectRatio="xMidYMid meet">
<metadata>
Created by potrace 1.16, written by Peter Selinger 2001-2019
</metadata>
<g transform="translate(0.000000,1008.000000) scale(0.100000,-0.100000)"
fill="#000000" stroke="none">
<path d="M6704 10065 c-814 -84 -1662 -477 -2394 -1107 -920 -793 -1568 -2015
-2164 -4078 -95 -330 -183 -657 -316 -1180 -137 -539 -185 -707 -281 -994
-196 -584 -431 -1082 -726 -1534 -135 -208 -227 -322 -354 -442 -232 -218
-439 -485 -464 -598 -16 -76 47 -132 147 -132 238 2 641 175 954 411 52 39
157 132 234 206 l140 135 112 -6 c547 -33 963 -115 1938 -386 948 -263 1387
-343 1945 -356 187 -5 270 -3 374 10 335 40 676 149 1036 328 216 109 291 152
490 284 441 292 803 652 1018 1010 113 188 247 524 247 618 0 69 -52 106 -148
106 -144 0 -335 -58 -562 -171 -248 -124 -444 -261 -587 -412 -92 -98 -114
-136 -167 -301 -62 -190 -172 -392 -271 -501 l-36 -38 -187 6 c-531 18 -985
103 -1902 357 -861 239 -1256 324 -1730 372 -187 19 -631 16 -755 -4 -55 -9
-101 -15 -103 -14 -1 2 42 77 97 167 274 454 504 959 690 1515 96 287 144 455
281 994 274 1073 464 1719 697 2365 362 1002 792 1781 1223 2216 58 58 121
118 141 133 86 63 409 110 604 88 291 -32 481 -163 620 -425 149 -279 183
-658 99 -1077 -30 -148 -26 -168 38 -201 38 -19 53 -21 133 -16 385 25 1075
439 1224 735 46 91 101 442 101 642 0 340 -94 655 -260 880 -136 183 -342 318
-578 382 -100 26 -405 33 -598 13z"/>
</g>
</svg>
