<?xml version="1.0" standalone="no"?>
<!DOCTYPE svg PUBLIC "-//W3C//DTD SVG 20010904//EN"
 "http://www.w3.org/TR/2001/REC-SVG-20010904/DTD/svg10.dtd">
<svg version="1.0" xmlns="http://www.w3.org/2000/svg"
 width="992.000000pt" height="908.000000pt" viewBox="0 0 992.000000 908.000000"
 preserveAspectRatio="xMidYMid meet">
<metadata>
Created by potrace 1.16, written by Peter Selinger 2001-2019
</metadata>
<g transform="translate(0.000000,908.000000) scale(0.100000,-0.100000)"
fill="#000000" stroke="none">
<path d="M4125 9073 c-1105 -65 -2085 -380 -2905 -934 -385 -259 -718 -580
-927 -894 -118 -176 -228 -415 -275 -596 -25 -99 -21 -131 25 -160 28 -18 44
-20 132 -16 81 3 120 11 206 40 229 77 481 228 635 382 107 106 134 150 169
269 57 195 146 369 270 523 174 217 425 354 860 468 317 84 550 118 1008 149
l77 6 0 -43 c0 -23 -9 -141 -20 -262 -185 -2038 -633 -4061 -1352 -6105 -97
-276 -294 -803 -381 -1019 l-55 -135 -113 -46 c-240 -96 -415 -207 -571 -360
-176 -173 -203 -271 -91 -329 28 -14 1700 -15 1953 -1 1366 77 2781 523 4020
1267 426 256 802 527 1190 859 148 126 548 526 674 674 569 666 936 1356 1115
2100 106 438 148 803 138 1190 -3 118 -13 269 -22 335 -73 547 -272 1011 -599
1391 -249 291 -551 524 -932 716 -622 315 -1317 481 -2209 528 -165 9 -1884
12 -2020 3z m1030 -773 c1256 -66 2169 -377 2804 -958 289 -263 521 -634 649
-1034 91 -282 126 -529 126 -883 0 -359 -34 -633 -129 -1022 -219 -900 -721
-1694 -1470 -2324 -821 -690 -1979 -1149 -3220 -1274 -261 -26 -488 -35 -927
-35 l-427 0 45 108 c456 1083 886 2339 1194 3487 328 1222 599 2665 710 3775
5 58 13 120 16 138 l5 32 217 0 c119 0 303 -5 407 -10z"/>
</g>
</svg>
