<?xml version="1.0" standalone="no"?>
<!DOCTYPE svg PUBLIC "-//W3C//DTD SVG 20010904//EN"
 "http://www.w3.org/TR/2001/REC-SVG-20010904/DTD/svg10.dtd">
<svg version="1.0" xmlns="http://www.w3.org/2000/svg"
 width="1536.000000pt" height="1047.000000pt" viewBox="0 0 1536.000000 1047.000000"
 preserveAspectRatio="xMidYMid meet">
<metadata>
Created by potrace 1.16, written by Peter Selinger 2001-2019
</metadata>
<g transform="translate(0.000000,1047.000000) scale(0.100000,-0.100000)"
fill="#000000" stroke="none">
<path d="M5400 10454 c-346 -74 -738 -365 -805 -599 -8 -27 -33 -180 -55 -338
-200 -1423 -553 -2897 -1039 -4337 -299 -887 -787 -2138 -1061 -2720 -257
-545 -476 -865 -655 -955 -52 -26 -70 -30 -135 -29 -95 1 -275 36 -392 75
-216 73 -367 164 -505 307 l-92 95 -49 -5 c-71 -7 -134 -43 -211 -122 -300
-310 -489 -979 -355 -1255 59 -121 294 -313 507 -415 243 -116 588 -182 769
-147 306 60 636 349 977 856 422 627 783 1406 1378 2975 398 1051 706 1992
967 2960 56 206 214 845 258 1039 l24 104 72 -339 c369 -1714 908 -3711 1227
-4544 216 -561 512 -1167 818 -1673 84 -139 97 -155 147 -184 48 -30 62 -33
130 -33 123 0 159 23 422 272 512 486 1358 1347 1854 1888 728 795 2283 2567
3293 3755 178 209 331 388 340 398 15 16 13 -9 -16 -185 -250 -1532 -472
-3344 -565 -4613 -16 -224 -16 -1047 0 -1270 23 -313 53 -579 73 -655 47 -174
148 -294 320 -379 143 -71 212 -84 414 -78 336 10 542 75 1064 336 369 186
477 256 632 410 95 96 122 129 154 193 65 133 52 204 -51 260 -59 33 -125 36
-260 13 -134 -24 -249 -66 -465 -172 l-196 -95 -58 16 c-75 22 -143 89 -173
168 -22 58 -49 292 -74 633 -16 223 -16 1026 0 1250 82 1107 261 2635 468
3980 131 854 388 2297 439 2460 21 71 52 237 59 325 13 153 -24 302 -91 360
-57 51 -148 35 -245 -41 -21 -18 -195 -219 -386 -448 -1795 -2158 -3999 -4687
-5120 -5876 -290 -308 -1298 -1315 -1316 -1315 -26 0 -278 557 -421 930 -93
244 -209 594 -310 939 -520 1777 -929 3524 -1265 5401 -42 239 -65 342 -78
360 -10 14 -41 37 -68 52 -43 24 -59 27 -139 27 -49 0 -119 -7 -155 -15z"/>
</g>
</svg>
