<?xml version="1.0" standalone="no"?>
<!DOCTYPE svg PUBLIC "-//W3C//DTD SVG 20010904//EN"
 "http://www.w3.org/TR/2001/REC-SVG-20010904/DTD/svg10.dtd">
<svg version="1.0" xmlns="http://www.w3.org/2000/svg"
 width="664.000000pt" height="770.000000pt" viewBox="0 0 664.000000 770.000000"
 preserveAspectRatio="xMidYMid meet">
<metadata>
Created by potrace 1.16, written by Peter Selinger 2001-2019
</metadata>
<g transform="translate(0.000000,770.000000) scale(0.100000,-0.100000)"
fill="#000000" stroke="none">
<path d="M3735 7689 c-358 -29 -723 -104 -1050 -216 -365 -125 -678 -282 -992
-495 -386 -263 -765 -635 -1026 -1009 -784 -1125 -884 -2577 -263 -3796 188
-368 401 -659 711 -969 375 -375 790 -657 1272 -863 372 -159 779 -266 1208
-318 138 -17 259 -18 1495 -18 1317 0 1346 0 1385 20 50 25 105 80 130 130 27
55 27 175 0 230 -25 50 -80 105 -130 130 -39 20 -74 20 -1375 26 -1170 4
-1352 7 -1470 22 -1075 135 -1996 690 -2566 1548 -102 155 -244 427 -312 603
-81 206 -156 495 -181 701 -6 50 -14 107 -16 127 l-5 38 2942 2 c2904 3 2944
3 2983 23 50 25 105 80 130 130 27 55 27 175 0 230 -25 50 -80 105 -130 130
-39 20 -79 20 -2983 23 l-2942 2 5 38 c2 20 10 78 16 127 25 206 100 495 181
701 23 60 81 188 129 284 388 776 1111 1395 1975 1690 163 56 411 120 554 144
301 50 260 49 1685 55 1306 6 1341 6 1380 26 50 25 105 80 130 130 27 55 27
175 0 230 -25 50 -80 105 -130 130 -39 20 -69 20 -1340 21 -715 1 -1345 -2
-1400 -7z"/>
</g>
</svg>
