<?xml version="1.0" standalone="no"?>
<!DOCTYPE svg PUBLIC "-//W3C//DTD SVG 20010904//EN"
 "http://www.w3.org/TR/2001/REC-SVG-20010904/DTD/svg10.dtd">
<svg version="1.0" xmlns="http://www.w3.org/2000/svg"
 width="904.000000pt" height="908.000000pt" viewBox="0 0 904.000000 908.000000"
 preserveAspectRatio="xMidYMid meet">
<metadata>
Created by potrace 1.16, written by Peter Selinger 2001-2019
</metadata>
<g transform="translate(0.000000,908.000000) scale(0.100000,-0.100000)"
fill="#000000" stroke="none">
<path d="M80 9063 c-19 -10 -45 -33 -57 -52 -21 -31 -23 -46 -23 -156 0 -110
2 -125 23 -156 42 -64 50 -65 419 -72 439 -8 664 -33 784 -86 51 -23 85 -71
111 -156 17 -58 18 -212 18 -3845 0 -3633 -1 -3787 -18 -3845 -26 -85 -60
-133 -111 -156 -120 -53 -345 -78 -784 -86 -369 -7 -377 -8 -419 -72 -21 -31
-23 -46 -23 -156 0 -110 2 -125 23 -156 12 -19 38 -42 57 -51 33 -17 266 -18
4435 -18 4169 0 4402 1 4435 18 19 9 45 32 57 51 21 31 23 46 23 156 0 110 -2
125 -23 156 -42 64 -50 65 -419 72 -439 8 -664 33 -784 86 -51 23 -85 71 -111
156 -17 58 -18 212 -18 3845 0 3633 1 3787 18 3845 26 85 60 133 111 156 120
53 345 78 784 86 369 7 377 8 419 72 21 31 23 46 23 156 0 110 -2 125 -23 156
-12 19 -39 42 -59 52 -35 17 -54 18 -310 8 -150 -6 -559 -16 -909 -22 -650
-12 -1548 -3 -2177 22 -256 10 -275 9 -310 -8 -20 -10 -47 -33 -59 -52 -21
-31 -23 -46 -23 -156 0 -110 2 -125 23 -156 42 -64 50 -65 419 -72 552 -11
785 -48 848 -137 12 -17 32 -60 44 -93 l21 -62 3 -3942 2 -3943 -2005 0 -2005
0 2 3943 3 3942 21 62 c12 33 32 76 44 93 63 89 296 126 848 137 369 7 377 8
419 72 21 31 23 46 23 156 0 110 -2 125 -23 156 -12 19 -39 42 -59 52 -35 17
-54 18 -315 8 -968 -37 -2229 -36 -3213 4 -128 6 -149 4 -180 -12z"/>
</g>
</svg>
