<?xml version="1.0" standalone="no"?>
<!DOCTYPE svg PUBLIC "-//W3C//DTD SVG 20010904//EN"
 "http://www.w3.org/TR/2001/REC-SVG-20010904/DTD/svg10.dtd">
<svg version="1.0" xmlns="http://www.w3.org/2000/svg"
 width="885.000000pt" height="884.000000pt" viewBox="0 0 885.000000 884.000000"
 preserveAspectRatio="xMidYMid meet">
<metadata>
Created by potrace 1.16, written by Peter Selinger 2001-2019
</metadata>
<g transform="translate(0.000000,884.000000) scale(0.100000,-0.100000)"
fill="#000000" stroke="none">
<path d="M200 8831 c-46 -14 -85 -39 -121 -78 -59 -61 -74 -98 -74 -183 0 -53
6 -85 19 -110 25 -49 83 -108 131 -133 l40 -22 1977 -3 1978 -2 2 -4053 c3
-3929 4 -4053 22 -4087 26 -49 84 -108 131 -133 54 -29 172 -30 230 -2 50 25
105 80 130 130 20 40 20 86 23 4092 l2 4053 1978 2 c1943 3 1978 3 2017 23 50
25 105 80 130 130 27 55 27 175 0 230 -25 50 -80 105 -130 130 -40 20 -85 20
-4250 22 -2316 1 -4221 -2 -4235 -6z"/>
</g>
</svg>
