<?xml version="1.0" standalone="no"?>
<!DOCTYPE svg PUBLIC "-//W3C//DTD SVG 20010904//EN"
 "http://www.w3.org/TR/2001/REC-SVG-20010904/DTD/svg10.dtd">
<svg version="1.0" xmlns="http://www.w3.org/2000/svg"
 width="647.000000pt" height="1446.000000pt" viewBox="0 0 647.000000 1446.000000"
 preserveAspectRatio="xMidYMid meet">
<metadata>
Created by potrace 1.16, written by Peter Selinger 2001-2019
</metadata>
<g transform="translate(0.000000,1446.000000) scale(0.100000,-0.100000)"
fill="#000000" stroke="none">
<path d="M3164 14446 c-65 -29 -76 -56 -114 -271 -253 -1450 -1368 -2654
-2798 -3020 -163 -42 -195 -57 -225 -104 -20 -32 -22 -52 -25 -182 -4 -170 4
-212 52 -259 53 -50 106 -51 281 -6 1037 271 1945 917 2539 1805 l76 115 0
-5294 0 -5294 -76 115 c-322 482 -763 918 -1245 1232 -396 258 -838 454 -1294
573 -175 45 -228 44 -281 -6 -48 -47 -56 -89 -52 -259 5 -216 12 -225 250
-286 1430 -366 2545 -1570 2798 -3020 33 -187 38 -205 74 -241 58 -58 154 -58
212 0 36 36 41 54 74 241 253 1450 1368 2654 2798 3020 163 42 195 57 225 104
20 32 22 52 25 182 4 170 -4 212 -52 259 -53 50 -106 51 -281 6 -1037 -271
-1945 -917 -2539 -1805 l-76 -115 0 5294 0 5294 76 -115 c322 -482 763 -918
1245 -1232 396 -258 838 -454 1294 -573 175 -45 228 -44 281 6 48 47 56 89 52
259 -5 216 -12 225 -250 286 -1430 366 -2545 1570 -2798 3020 -31 176 -37 198
-62 230 -40 51 -120 69 -184 41z"/>
</g>
</svg>
