<?xml version="1.0" standalone="no"?>
<!DOCTYPE svg PUBLIC "-//W3C//DTD SVG 20010904//EN"
 "http://www.w3.org/TR/2001/REC-SVG-20010904/DTD/svg10.dtd">
<svg version="1.0" xmlns="http://www.w3.org/2000/svg"
 width="1339.000000pt" height="1101.000000pt" viewBox="0 0 1339.000000 1101.000000"
 preserveAspectRatio="xMidYMid meet">
<metadata>
Created by potrace 1.16, written by Peter Selinger 2001-2019
</metadata>
<g transform="translate(0.000000,1101.000000) scale(0.100000,-0.100000)"
fill="#000000" stroke="none">
<path d="M12870 10999 c-709 -44 -1228 -224 -1668 -579 -122 -98 -200 -180
-278 -295 -277 -408 -535 -1112 -979 -2670 -509 -1788 -993 -3649 -1436 -5524
-60 -256 -111 -466 -112 -468 -4 -3 -213 345 -314 522 -132 231 -248 453 -394
749 -214 438 -329 707 -608 1420 -690 1764 -1317 3595 -1840 5381 -152 517
-135 472 -184 497 -36 18 -53 20 -132 16 -306 -17 -773 -326 -825 -548 -6 -25
-24 -169 -41 -320 -192 -1754 -602 -3649 -1183 -5475 -299 -941 -510 -1519
-681 -1870 -151 -308 -267 -456 -421 -531 -76 -38 -80 -39 -184 -38 -255 2
-606 112 -827 261 -40 26 -106 81 -148 120 -42 40 -83 73 -93 73 -36 -1 -105
-41 -153 -91 -140 -144 -279 -441 -340 -725 -30 -140 -31 -312 -2 -374 45 -99
250 -260 458 -360 268 -129 644 -199 837 -156 471 105 949 755 1418 1931 231
576 609 1708 864 2585 324 1115 606 2325 802 3439 l49 273 43 -138 c505 -1616
1010 -3055 1583 -4520 277 -709 394 -981 605 -1413 209 -427 407 -789 641
-1170 139 -226 396 -612 428 -641 25 -24 33 -25 143 -25 97 0 129 4 187 24
172 59 362 169 488 281 64 58 142 161 152 203 4 15 13 31 19 35 7 4 50 171 95
372 392 1733 872 3640 1366 5431 353 1278 575 2016 729 2424 52 137 59 145
221 254 281 188 653 310 1105 360 136 16 397 31 523 31 128 0 156 11 233 92
70 72 126 159 190 292 107 223 166 448 168 636 1 125 -10 171 -49 214 -24 26
-24 26 -177 25 -84 -1 -209 -5 -278 -10z"/>
</g>
</svg>
