<?xml version="1.0" standalone="no"?>
<!DOCTYPE svg PUBLIC "-//W3C//DTD SVG 20010904//EN"
 "http://www.w3.org/TR/2001/REC-SVG-20010904/DTD/svg10.dtd">
<svg version="1.0" xmlns="http://www.w3.org/2000/svg"
 width="692.000000pt" height="802.000000pt" viewBox="0 0 692.000000 802.000000"
 preserveAspectRatio="xMidYMid meet">
<metadata>
Created by potrace 1.16, written by Peter Selinger 2001-2019
</metadata>
<g transform="translate(0.000000,802.000000) scale(0.100000,-0.100000)"
fill="#000000" stroke="none">
<path d="M180 8003 c-66 -24 -144 -106 -164 -173 -9 -30 -16 -70 -16 -90 0
-101 66 -207 158 -252 l47 -23 1395 -5 c1256 -5 1408 -8 1530 -24 468 -61 843
-170 1237 -361 384 -185 698 -409 998 -709 513 -514 842 -1159 944 -1853 11
-70 21 -149 24 -175 l5 -48 -3052 0 c-3456 0 -3108 9 -3203 -85 -111 -112
-111 -278 0 -390 95 -94 -253 -85 3203 -85 l3052 0 -5 -47 c-39 -395 -156
-801 -334 -1156 -233 -463 -590 -887 -1024 -1213 -454 -342 -1007 -583 -1579
-688 -331 -61 -277 -60 -1796 -66 l-1395 -5 -47 -23 c-92 -45 -158 -151 -158
-252 0 -73 28 -140 84 -195 93 -93 -40 -86 1547 -82 1251 3 1408 5 1529 20
578 74 1005 199 1470 428 455 224 779 456 1135 813 551 553 917 1230 1069
1981 169 835 58 1695 -317 2459 -197 403 -432 731 -752 1052 -356 357 -680
589 -1135 813 -465 229 -892 354 -1470 428 -122 15 -274 17 -1535 19 -1262 3
-1404 1 -1445 -13z"/>
</g>
</svg>
