<?xml version="1.0" standalone="no"?>
<!DOCTYPE svg PUBLIC "-//W3C//DTD SVG 20010904//EN"
 "http://www.w3.org/TR/2001/REC-SVG-20010904/DTD/svg10.dtd">
<svg version="1.0" xmlns="http://www.w3.org/2000/svg"
 width="939.000000pt" height="946.000000pt" viewBox="0 0 939.000000 946.000000"
 preserveAspectRatio="xMidYMid meet">
<metadata>
Created by potrace 1.16, written by Peter Selinger 2001-2019
</metadata>
<g transform="translate(0.000000,946.000000) scale(0.100000,-0.100000)"
fill="#000000" stroke="none">
<path d="M2430 9445 c-545 -69 -1097 -287 -1645 -649 -285 -189 -441 -358
-433 -469 2 -34 9 -45 38 -65 33 -22 42 -24 135 -19 70 3 125 13 185 32 120
38 325 140 455 225 61 40 134 84 163 97 146 64 419 106 554 84 131 -21 201
-68 252 -170 39 -78 51 -146 50 -291 -1 -188 -35 -369 -131 -690 -131 -443
-315 -897 -913 -2260 -611 -1394 -876 -2097 -1029 -2730 -81 -333 -106 -539
-106 -865 0 -333 25 -506 107 -744 132 -384 364 -638 702 -770 142 -55 227
-71 413 -78 320 -11 675 55 1058 197 1184 441 2418 1444 3716 3020 213 259
630 800 704 913 10 15 19 26 22 24 2 -2 -23 -100 -56 -218 -281 -1009 -485
-1847 -565 -2324 -86 -513 -146 -1189 -116 -1316 34 -147 114 -245 254 -314
114 -57 178 -69 331 -62 259 11 463 77 849 275 328 169 438 244 579 391 111
116 149 205 111 259 -65 94 -284 61 -593 -90 -138 -68 -158 -69 -236 -23 -55
32 -98 93 -120 169 -20 67 -17 142 16 511 69 759 194 1349 610 2870 378 1381
964 3250 1191 3800 164 396 278 719 359 1016 49 181 49 223 0 256 -143 96
-669 -117 -954 -387 -145 -137 -131 -108 -368 -774 -55 -154 -140 -396 -190
-537 -332 -958 -1333 -2691 -2307 -3998 -951 -1275 -1946 -2280 -2669 -2695
-533 -306 -1085 -243 -1388 160 -143 189 -233 433 -277 744 -16 121 -17 482 0
620 42 346 120 656 291 1160 169 500 376 1011 801 1980 694 1582 890 2085
1009 2590 55 233 65 312 65 505 1 204 -10 261 -71 377 -60 115 -158 193 -308
244 -74 25 -94 28 -255 30 -109 2 -218 -3 -290 -11z"/>
</g>
</svg>
