<?xml version="1.0" standalone="no"?>
<!DOCTYPE svg PUBLIC "-//W3C//DTD SVG 20010904//EN"
 "http://www.w3.org/TR/2001/REC-SVG-20010904/DTD/svg10.dtd">
<svg version="1.0" xmlns="http://www.w3.org/2000/svg"
 width="1050.000000pt" height="946.000000pt" viewBox="0 0 1050.000000 946.000000"
 preserveAspectRatio="xMidYMid meet">
<metadata>
Created by potrace 1.16, written by Peter Selinger 2001-2019
</metadata>
<g transform="translate(0.000000,946.000000) scale(0.100000,-0.100000)"
fill="#000000" stroke="none">
<path d="M4487 9450 c-478 -45 -909 -197 -1302 -460 -373 -250 -613 -541 -681
-828 -17 -67 -17 -74 -1 -107 10 -22 32 -42 59 -56 106 -54 383 15 660 164
195 105 401 272 484 393 l39 57 110 -6 c132 -7 250 -36 324 -80 64 -38 174
-142 219 -208 88 -131 177 -358 226 -581 60 -269 71 -372 196 -1773 78 -877
97 -1122 87 -1131 -7 -6 -115 -73 -242 -149 -2396 -1442 -3500 -2198 -4126
-2824 -345 -346 -480 -569 -524 -866 -62 -417 69 -764 344 -909 118 -62 174
-77 302 -83 184 -9 318 23 539 128 280 134 534 342 615 503 26 53 33 123 15
157 -16 30 -79 56 -153 63 -105 10 -173 40 -237 105 -130 131 -184 359 -146
611 24 159 52 207 210 366 414 414 1411 1086 3278 2210 l187 113 6 -42 c3 -23
50 -553 105 -1177 117 -1324 134 -1497 161 -1685 115 -791 371 -1193 849
-1328 69 -20 99 -21 350 -21 305 1 448 16 689 75 641 157 1260 580 1483 1015
84 162 107 277 67 328 -66 84 -255 70 -522 -39 -270 -109 -575 -331 -672 -489
l-30 -48 -110 5 c-132 7 -250 36 -325 80 -79 47 -197 169 -253 263 -130 220
-220 555 -272 1014 -8 74 -66 718 -129 1430 -64 712 -118 1315 -121 1340 l-5
45 302 185 c1832 1115 2848 1828 3409 2389 406 407 539 670 539 1067 0 289
-110 543 -288 666 -71 49 -181 99 -251 114 -86 18 -242 18 -328 -1 -272 -58
-599 -238 -803 -444 -114 -115 -158 -182 -167 -259 -5 -41 -2 -52 21 -79 32
-38 58 -48 164 -62 100 -13 166 -45 226 -112 118 -132 168 -359 132 -599 -24
-159 -52 -207 -210 -366 -361 -361 -1096 -871 -2500 -1736 -159 -98 -291 -176
-293 -174 -2 2 -46 482 -98 1067 -120 1345 -128 1420 -181 1672 -116 549 -308
858 -631 1013 -158 76 -213 87 -478 90 -126 1 -269 -2 -318 -6z"/>
</g>
</svg>
