<?xml version="1.0" standalone="no"?>
<!DOCTYPE svg PUBLIC "-//W3C//DTD SVG 20010904//EN"
 "http://www.w3.org/TR/2001/REC-SVG-20010904/DTD/svg10.dtd">
<svg version="1.0" xmlns="http://www.w3.org/2000/svg"
 width="1394.000000pt" height="1163.000000pt" viewBox="0 0 1394.000000 1163.000000"
 preserveAspectRatio="xMidYMid meet">
<metadata>
Created by potrace 1.16, written by Peter Selinger 2001-2019
</metadata>
<g transform="translate(0.000000,1163.000000) scale(0.100000,-0.100000)"
fill="#000000" stroke="none">
<path d="M13475 11623 c-816 -51 -1505 -335 -1996 -823 -89 -89 -136 -147
-207 -253 -236 -358 -472 -946 -795 -1987 -348 -1118 -926 -3191 -1371 -4915
-89 -344 -470 -1875 -478 -1920 -8 -44 -353 567 -593 1050 -201 404 -323 681
-510 1150 -777 1953 -1477 3999 -2080 6075 -58 201 -113 376 -123 390 -10 14
-41 38 -68 53 -47 27 -53 28 -164 23 -135 -5 -239 -32 -384 -100 -239 -112
-448 -290 -527 -451 -27 -55 -32 -85 -65 -370 -150 -1319 -369 -2521 -696
-3820 -194 -774 -383 -1419 -665 -2270 -335 -1014 -522 -1472 -716 -1753 -64
-93 -135 -157 -217 -196 -58 -27 -75 -31 -150 -30 -164 1 -405 63 -588 149
-137 65 -226 127 -330 232 -88 89 -94 93 -135 93 -174 0 -410 -302 -536 -686
-64 -195 -76 -267 -76 -454 0 -160 1 -167 28 -225 36 -78 178 -218 307 -303
273 -182 569 -276 870 -277 125 0 156 3 220 23 507 159 997 826 1477 2012 209
517 602 1688 853 2540 316 1072 599 2247 786 3260 57 311 64 343 70 325 2 -5
60 -190 129 -410 457 -1448 1023 -3036 1590 -4460 190 -478 310 -747 525
-1180 283 -571 539 -1016 871 -1515 166 -251 182 -271 231 -300 47 -27 62 -30
136 -30 260 0 582 148 802 369 97 98 159 193 175 271 7 30 9 32 16 15 7 -17 8
-18 8 -2 3 60 514 2147 736 3002 506 1952 1097 4046 1412 5000 72 221 180 519
221 616 23 53 98 120 227 205 388 252 884 389 1487 410 132 5 183 11 213 24
110 47 234 194 341 402 180 354 245 769 149 959 -42 82 -61 89 -222 87 -76 -1
-160 -3 -188 -5z"/>
</g>
</svg>
