<?xml version="1.0" standalone="no"?>
<!DOCTYPE svg PUBLIC "-//W3C//DTD SVG 20010904//EN"
 "http://www.w3.org/TR/2001/REC-SVG-20010904/DTD/svg10.dtd">
<svg version="1.0" xmlns="http://www.w3.org/2000/svg"
 width="1081.000000pt" height="952.000000pt" viewBox="0 0 1081.000000 952.000000"
 preserveAspectRatio="xMidYMid meet">
<metadata>
Created by potrace 1.16, written by Peter Selinger 2001-2019
</metadata>
<g transform="translate(0.000000,952.000000) scale(0.100000,-0.100000)"
fill="#000000" stroke="none">
<path d="M4282 9509 c-549 -31 -958 -148 -1357 -389 -210 -127 -441 -330 -535
-470 -54 -80 -99 -185 -106 -248 -5 -43 -3 -49 26 -77 31 -29 33 -30 133 -29
89 1 116 6 214 38 198 65 425 193 587 332 l76 64 167 10 c93 5 544 10 1004 10
l836 0 -34 -162 c-469 -2261 -1229 -4494 -2293 -6738 -201 -425 -432 -877
-498 -975 l-67 -100 -65 3 c-159 7 -387 62 -529 128 -186 86 -387 253 -497
414 -58 85 -124 209 -158 302 -32 86 -64 108 -161 108 -238 0 -617 -186 -862
-424 -104 -100 -163 -188 -163 -242 0 -59 106 -287 193 -413 78 -114 253 -285
372 -364 308 -204 653 -298 1043 -284 177 6 316 31 497 92 489 163 980 497
1312 890 152 181 244 331 440 725 407 818 749 1577 1077 2391 l135 334 1265 3
1265 2 3 -42 c3 -38 8 -45 43 -66 36 -21 49 -23 120 -18 297 19 798 307 958
551 29 45 77 200 77 249 0 33 -23 62 -67 85 -16 8 -476 11 -1697 11 -922 0
-1676 2 -1676 4 0 1 26 77 59 167 339 945 700 2191 927 3202 l38 167 1235 0
c1445 0 1581 -6 1798 -75 168 -53 232 -146 203 -298 -22 -120 16 -152 169
-145 238 12 618 205 842 428 106 104 140 160 159 258 41 204 -41 372 -226 465
-147 74 -304 109 -569 127 -176 11 -5505 11 -5713 -1z"/>
</g>
</svg>
