<?xml version="1.0" standalone="no"?>
<!DOCTYPE svg PUBLIC "-//W3C//DTD SVG 20010904//EN"
 "http://www.w3.org/TR/2001/REC-SVG-20010904/DTD/svg10.dtd">
<svg version="1.0" xmlns="http://www.w3.org/2000/svg"
 width="221.000000pt" height="886.000000pt" viewBox="0 0 221.000000 886.000000"
 preserveAspectRatio="xMidYMid meet">
<metadata>
Created by potrace 1.16, written by Peter Selinger 2001-2019
</metadata>
<g transform="translate(0.000000,886.000000) scale(0.100000,-0.100000)"
fill="#000000" stroke="none">
<path d="M240 8845 c-88 -20 -184 -69 -212 -108 -29 -41 -29 -93 0 -134 45
-64 213 -122 351 -123 172 0 339 -88 517 -271 142 -148 248 -314 338 -534 137
-337 199 -674 200 -1095 1 -279 -13 -412 -70 -644 -96 -392 -236 -714 -629
-1456 -109 -206 -240 -460 -291 -565 -228 -469 -357 -850 -416 -1230 -29 -184
-31 -579 -5 -780 134 -1014 597 -1656 1330 -1845 167 -43 255 -54 437 -54 147
0 172 2 229 23 190 67 236 182 108 270 -67 46 -156 71 -271 78 -226 12 -364
81 -552 274 -142 148 -248 314 -338 534 -137 337 -199 674 -200 1095 -1 279
13 412 70 644 96 392 236 714 629 1456 109 206 240 461 291 565 228 469 357
850 416 1230 29 184 31 579 5 780 -133 1002 -591 1646 -1309 1840 -208 56
-499 80 -628 50z"/>
</g>
</svg>
