<?xml version="1.0" standalone="no"?>
<!DOCTYPE svg PUBLIC "-//W3C//DTD SVG 20010904//EN"
 "http://www.w3.org/TR/2001/REC-SVG-20010904/DTD/svg10.dtd">
<svg version="1.0" xmlns="http://www.w3.org/2000/svg"
 width="922.000000pt" height="922.000000pt" viewBox="0 0 922.000000 922.000000"
 preserveAspectRatio="xMidYMid meet">
<metadata>
Created by potrace 1.16, written by Peter Selinger 2001-2019
</metadata>
<g transform="translate(0.000000,922.000000) scale(0.100000,-0.100000)"
fill="#000000" stroke="none">
<path d="M4265 9209 c-578 -43 -1168 -205 -1695 -465 -471 -232 -850 -503
-1221 -874 -595 -594 -1009 -1329 -1214 -2154 -265 -1071 -138 -2192 361
-3186 225 -446 501 -828 853 -1180 371 -371 750 -642 1221 -874 373 -184 717
-301 1138 -387 1269 -257 2612 47 3657 829 265 198 567 483 766 723 457 552
773 1174 944 1863 265 1071 138 2192 -361 3186 -398 791 -1004 1439 -1774
1895 -154 91 -454 238 -620 304 -447 177 -924 287 -1395 321 -161 11 -498 11
-660 -1z m610 -549 c892 -65 1704 -397 2374 -970 l25 -21 -1335 -1335 -1334
-1334 -1334 1334 -1335 1335 25 21 c405 346 870 609 1375 776 487 161 1038
230 1539 194z m-1994 -5384 l-1334 -1334 -57 67 c-174 202 -356 480 -500 766
-225 443 -352 870 -416 1395 -25 204 -25 676 0 880 64 525 191 952 416 1395
143 283 318 552 499 766 l56 67 1335 -1334 1335 -1334 -1334 -1334z m4988
3744 c131 -177 240 -356 351 -575 225 -443 352 -870 416 -1395 25 -204 25
-676 0 -880 -64 -525 -191 -952 -416 -1395 -144 -286 -326 -564 -500 -766
l-57 -67 -1334 1334 -1334 1334 1334 1334 1334 1334 57 -67 c31 -36 99 -122
149 -191z m-620 -5490 c-595 -509 -1317 -835 -2085 -939 -390 -54 -728 -54
-1118 0 -768 104 -1490 430 -2085 939 l-25 21 1335 1335 1334 1334 1334 -1334
1335 -1335 -25 -21z"/>
</g>
</svg>
