<?xml version="1.0" standalone="no"?>
<!DOCTYPE svg PUBLIC "-//W3C//DTD SVG 20010904//EN"
 "http://www.w3.org/TR/2001/REC-SVG-20010904/DTD/svg10.dtd">
<svg version="1.0" xmlns="http://www.w3.org/2000/svg"
 width="633.000000pt" height="632.000000pt" viewBox="0 0 633.000000 632.000000"
 preserveAspectRatio="xMidYMid meet">
<metadata>
Created by potrace 1.16, written by Peter Selinger 2001-2019
</metadata>
<g transform="translate(0.000000,632.000000) scale(0.100000,-0.100000)"
fill="#000000" stroke="none">
<path d="M3075 6305 c-22 -8 -42 -15 -45 -15 -3 0 -675 -669 -1493 -1487 -885
-885 -1497 -1504 -1510 -1528 -30 -57 -30 -173 0 -230 27 -51 2974 -2996 3023
-3021 49 -26 170 -26 225 0 56 27 2994 2965 3021 3021 13 28 19 62 19 115 0
53 -6 87 -19 115 -27 57 -2965 2995 -3020 3020 -54 24 -151 29 -201 10z m1345
-4400 l-1255 -1255 -1255 1255 -1255 1255 1255 1255 1255 1255 1255 -1255
1255 -1255 -1255 -1255z"/>
</g>
</svg>
