<?xml version="1.0" standalone="no"?>
<!DOCTYPE svg PUBLIC "-//W3C//DTD SVG 20010904//EN"
 "http://www.w3.org/TR/2001/REC-SVG-20010904/DTD/svg10.dtd">
<svg version="1.0" xmlns="http://www.w3.org/2000/svg"
 width="998.000000pt" height="1008.000000pt" viewBox="0 0 998.000000 1008.000000"
 preserveAspectRatio="xMidYMid meet">
<metadata>
Created by potrace 1.16, written by Peter Selinger 2001-2019
</metadata>
<g transform="translate(0.000000,1008.000000) scale(0.100000,-0.100000)"
fill="#000000" stroke="none">
<path d="M4460 10066 c-172 -38 -345 -116 -625 -280 -983 -578 -1849 -1343
-2497 -2206 -811 -1082 -1251 -2254 -1329 -3545 -14 -233 -6 -652 16 -865 104
-980 470 -1799 1051 -2349 397 -376 913 -642 1454 -751 278 -56 373 -64 755
-64 373 0 481 8 796 60 845 138 1751 511 2581 1060 1183 784 2116 1847 2686
3060 417 888 641 1955 619 2949 -10 424 -51 745 -137 1070 -210 793 -616 1343
-1208 1635 -270 133 -515 202 -817 230 -144 13 -433 13 -571 -1 -754 -74
-1579 -458 -2294 -1067 -156 -133 -423 -399 -559 -557 -227 -265 -481 -623
-675 -955 -176 -301 -486 -947 -502 -1048 -13 -80 55 -141 158 -142 201 -1
542 139 795 326 99 73 213 183 257 247 19 29 65 122 101 207 333 782 805 1490
1245 1864 219 186 375 251 673 278 208 19 499 -13 732 -80 637 -184 1092 -672
1338 -1437 256 -796 246 -1866 -29 -2950 -299 -1179 -1026 -2321 -1949 -3064
-598 -481 -1210 -740 -1945 -822 -166 -19 -545 -16 -705 5 -485 63 -871 199
-1211 425 -418 279 -726 635 -971 1126 -205 409 -328 852 -389 1410 -25 220
-25 760 -1 995 90 872 317 1613 710 2315 289 518 604 934 1031 1360 374 373
696 622 1146 885 216 126 322 204 431 317 160 166 193 300 87 354 -44 22 -159
25 -248 5z"/>
</g>
</svg>
