<?xml version="1.0" standalone="no"?>
<!DOCTYPE svg PUBLIC "-//W3C//DTD SVG 20010904//EN"
 "http://www.w3.org/TR/2001/REC-SVG-20010904/DTD/svg10.dtd">
<svg version="1.0" xmlns="http://www.w3.org/2000/svg"
 width="731.000000pt" height="1180.000000pt" viewBox="0 0 731.000000 1180.000000"
 preserveAspectRatio="xMidYMid meet">
<metadata>
Created by potrace 1.16, written by Peter Selinger 2001-2019
</metadata>
<g transform="translate(0.000000,1180.000000) scale(0.100000,-0.100000)"
fill="#000000" stroke="none">
<path d="M3582 11783 c-50 -24 -67 -57 -107 -207 -188 -712 -530 -1436 -964
-2046 -596 -838 -1389 -1522 -2305 -1988 -147 -75 -170 -91 -192 -134 -18 -34
-20 -328 -3 -361 21 -41 63 -77 101 -87 51 -14 106 6 320 120 583 310 1122
696 1550 1109 l108 104 0 -4029 c0 -2866 3 -4040 11 -4068 63 -228 375 -264
493 -56 l31 55 3 4343 2 4344 83 106 c350 447 693 1023 903 1515 15 37 31 67
34 67 3 0 19 -30 34 -67 210 -492 553 -1068 903 -1515 l83 -106 2 -4344 3
-4343 31 -55 c118 -208 430 -172 493 56 8 28 11 1202 11 4068 l0 4029 108
-104 c428 -413 967 -799 1550 -1109 214 -114 269 -134 320 -120 38 10 80 46
101 87 17 33 15 327 -3 361 -22 43 -45 59 -192 134 -811 413 -1525 996 -2091
1705 -548 687 -958 1497 -1178 2329 -21 76 -46 151 -56 165 -39 55 -123 74
-187 42z"/>
</g>
</svg>
