<?xml version="1.0" standalone="no"?>
<!DOCTYPE svg PUBLIC "-//W3C//DTD SVG 20010904//EN"
 "http://www.w3.org/TR/2001/REC-SVG-20010904/DTD/svg10.dtd">
<svg version="1.0" xmlns="http://www.w3.org/2000/svg"
 width="743.000000pt" height="1008.000000pt" viewBox="0 0 743.000000 1008.000000"
 preserveAspectRatio="xMidYMid meet">
<metadata>
Created by potrace 1.16, written by Peter Selinger 2001-2019
</metadata>
<g transform="translate(0.000000,1008.000000) scale(0.100000,-0.100000)"
fill="#000000" stroke="none">
<path d="M5530 10070 c-898 -84 -1823 -449 -2590 -1023 -506 -379 -863 -789
-1091 -1252 -173 -353 -249 -675 -236 -1000 9 -229 52 -399 152 -600 120 -242
324 -461 594 -637 90 -58 247 -141 409 -214 l43 -19 -83 -45 c-755 -400 -1452
-979 -1933 -1605 -95 -123 -264 -376 -340 -509 -191 -335 -347 -734 -417
-1070 -30 -141 -32 -164 -32 -361 0 -180 3 -225 22 -312 104 -481 421 -867
917 -1119 289 -146 569 -231 925 -281 181 -25 712 -25 895 0 739 102 1468 386
2160 841 600 395 1083 857 1463 1398 97 138 121 187 122 249 0 37 -5 50 -27
70 -39 35 -76 49 -131 49 -264 0 -703 -212 -950 -458 -38 -37 -105 -119 -150
-183 -453 -648 -951 -995 -1582 -1103 -365 -63 -774 -35 -1178 80 -289 82
-514 197 -724 371 -331 275 -509 674 -484 1088 9 150 46 327 110 519 165 498
433 932 811 1312 418 422 858 660 1425 774 170 34 280 47 525 59 127 7 201 16
252 30 429 122 904 492 903 703 -1 81 -56 118 -177 118 -297 0 -703 61 -998
149 -368 111 -642 266 -870 495 -339 340 -448 779 -320 1281 88 341 265 643
516 879 290 273 709 431 1259 477 301 24 656 -19 965 -118 152 -49 219 -85
290 -157 158 -158 205 -414 121 -656 -13 -40 -59 -133 -102 -207 -108 -189
-113 -258 -19 -303 206 -100 871 206 1113 513 94 119 223 358 272 505 132 394
38 783 -239 986 -152 112 -462 216 -791 267 -107 16 -195 21 -420 24 -157 2
-328 0 -380 -5z"/>
</g>
</svg>
