<?xml version="1.0" standalone="no"?>
<!DOCTYPE svg PUBLIC "-//W3C//DTD SVG 20010904//EN"
 "http://www.w3.org/TR/2001/REC-SVG-20010904/DTD/svg10.dtd">
<svg version="1.0" xmlns="http://www.w3.org/2000/svg"
 width="512.000000pt" height="1384.000000pt" viewBox="0 0 512.000000 1384.000000"
 preserveAspectRatio="xMidYMid meet">
<metadata>
Created by potrace 1.16, written by Peter Selinger 2001-2019
</metadata>
<g transform="translate(0.000000,1384.000000) scale(0.100000,-0.100000)"
fill="#000000" stroke="none">
<path d="M72 13820 c-63 -39 -72 -67 -72 -235 0 -234 13 -248 244 -258 828
-38 1478 -388 1685 -908 70 -177 64 -22 71 -2074 l6 -1850 22 -98 c67 -292
179 -518 366 -737 256 -298 661 -545 1143 -697 68 -21 123 -40 123 -43 0 -3
-55 -22 -123 -43 -482 -152 -887 -399 -1143 -697 -187 -219 -299 -445 -366
-737 l-22 -98 -6 -1850 c-7 -2052 -1 -1897 -71 -2074 -207 -520 -857 -870
-1685 -908 -231 -10 -244 -24 -244 -258 0 -168 9 -196 72 -235 30 -18 51 -20
258 -20 720 0 1322 126 1823 382 471 240 784 584 907 998 57 192 53 56 60
2075 l6 1860 22 97 c103 449 409 812 877 1038 267 130 525 193 842 209 166 8
188 15 223 74 30 48 30 326 0 374 -35 59 -57 66 -223 74 -317 16 -575 79 -842
209 -468 226 -774 589 -877 1038 l-22 97 -6 1860 c-7 2019 -3 1883 -60 2075
-123 414 -436 758 -907 998 -501 256 -1103 382 -1823 382 -207 0 -228 -2 -258
-20z"/>
</g>
</svg>
