<?xml version="1.0" standalone="no"?>
<!DOCTYPE svg PUBLIC "-//W3C//DTD SVG 20010904//EN"
 "http://www.w3.org/TR/2001/REC-SVG-20010904/DTD/svg10.dtd">
<svg version="1.0" xmlns="http://www.w3.org/2000/svg"
 width="811.000000pt" height="770.000000pt" viewBox="0 0 811.000000 770.000000"
 preserveAspectRatio="xMidYMid meet">
<metadata>
Created by potrace 1.16, written by Peter Selinger 2001-2019
</metadata>
<g transform="translate(0.000000,770.000000) scale(0.100000,-0.100000)"
fill="#000000" stroke="none">
<path d="M7760 7691 c-68 -21 -141 -83 -173 -147 -9 -17 -28 -110 -41 -206
-166 -1143 -861 -1945 -2152 -2483 -602 -251 -1376 -446 -2239 -564 -770 -105
-1624 -159 -2775 -174 -207 -2 -232 -9 -300 -77 -56 -56 -75 -103 -75 -190 0
-87 19 -134 75 -190 68 -68 93 -75 300 -77 1151 -15 2005 -69 2775 -174 1272
-174 2306 -504 3017 -965 798 -516 1245 -1194 1374 -2083 27 -190 40 -227 94
-281 151 -151 409 -74 453 135 13 63 -5 221 -54 459 -280 1385 -1334 2372
-3111 2911 -239 72 -642 173 -890 221 -109 22 -198 41 -198 44 0 3 89 22 198
44 408 80 898 213 1250 341 581 210 1026 442 1430 745 788 591 1236 1350 1368
2319 21 154 14 214 -35 284 -63 92 -190 139 -291 108z"/>
</g>
</svg>
