<?xml version="1.0" standalone="no"?>
<!DOCTYPE svg PUBLIC "-//W3C//DTD SVG 20010904//EN"
 "http://www.w3.org/TR/2001/REC-SVG-20010904/DTD/svg10.dtd">
<svg version="1.0" xmlns="http://www.w3.org/2000/svg"
 width="326.000000pt" height="715.000000pt" viewBox="0 0 326.000000 715.000000"
 preserveAspectRatio="xMidYMid meet">
<metadata>
Created by potrace 1.16, written by Peter Selinger 2001-2019
</metadata>
<g transform="translate(0.000000,715.000000) scale(0.100000,-0.100000)"
fill="#000000" stroke="none">
<path d="M2271 7140 c-252 -54 -430 -190 -542 -415 -47 -95 -90 -252 -890
-3270 -766 -2888 -840 -3173 -830 -3205 20 -66 49 -82 305 -169 262 -89 283
-92 337 -42 22 20 302 682 1280 3021 689 1647 1263 3027 1275 3067 35 108 48
234 36 329 -43 319 -263 561 -599 660 -98 28 -291 41 -372 24z"/>
</g>
</svg>
