<?xml version="1.0" standalone="no"?>
<!DOCTYPE svg PUBLIC "-//W3C//DTD SVG 20010904//EN"
 "http://www.w3.org/TR/2001/REC-SVG-20010904/DTD/svg10.dtd">
<svg version="1.0" xmlns="http://www.w3.org/2000/svg"
 width="476.000000pt" height="1328.000000pt" viewBox="0 0 476.000000 1328.000000"
 preserveAspectRatio="xMidYMid meet">
<metadata>
Created by potrace 1.16, written by Peter Selinger 2001-2019
</metadata>
<g transform="translate(0.000000,1328.000000) scale(0.100000,-0.100000)"
fill="#000000" stroke="none">
<path d="M70 13262 c-49 -24 -70 -71 -70 -157 0 -80 20 -125 67 -148 17 -9 77
-17 155 -20 444 -22 835 -154 1153 -389 213 -158 397 -406 474 -638 59 -180
55 -40 61 -2010 l6 -1805 22 -97 c96 -420 337 -747 744 -1012 176 -115 455
-240 686 -308 61 -18 112 -35 112 -38 0 -3 -51 -20 -112 -38 -231 -68 -510
-193 -686 -308 -407 -265 -648 -592 -744 -1012 l-22 -97 -6 -1805 c-5 -1652
-7 -1811 -23 -1875 -62 -253 -167 -444 -346 -624 -321 -324 -781 -512 -1319
-538 -141 -6 -172 -17 -202 -66 -26 -43 -28 -157 -2 -207 29 -59 66 -70 227
-70 713 0 1417 187 1885 501 376 253 586 548 686 969 17 70 18 192 24 1885 6
1795 6 1811 27 1900 65 278 192 497 412 707 183 175 408 310 666 397 190 64
461 111 642 111 119 0 163 45 163 170 0 125 -44 170 -163 170 -181 0 -452 47
-642 111 -258 87 -483 222 -666 397 -220 210 -347 429 -412 707 -21 89 -21
105 -27 1900 -6 1693 -7 1815 -24 1885 -100 421 -310 716 -686 969 -287 192
-645 333 -1075 421 -335 69 -900 105 -985 62z"/>
</g>
</svg>
