<?xml version="1.0" standalone="no"?>
<!DOCTYPE svg PUBLIC "-//W3C//DTD SVG 20010904//EN"
 "http://www.w3.org/TR/2001/REC-SVG-20010904/DTD/svg10.dtd">
<svg version="1.0" xmlns="http://www.w3.org/2000/svg"
 width="1087.000000pt" height="1014.000000pt" viewBox="0 0 1087.000000 1014.000000"
 preserveAspectRatio="xMidYMid meet">
<metadata>
Created by potrace 1.16, written by Peter Selinger 2001-2019
</metadata>
<g transform="translate(0.000000,1014.000000) scale(0.100000,-0.100000)"
fill="#000000" stroke="none">
<path d="M3945 10129 c-861 -64 -1688 -352 -2404 -836 -646 -436 -1118 -968
-1449 -1631 -77 -153 -86 -178 -86 -227 0 -105 70 -155 217 -155 206 0 479 99
727 265 225 150 325 261 440 486 94 183 192 343 292 477 93 124 281 312 381
380 249 171 604 269 1092 303 255 17 383 -2 501 -72 118 -71 211 -212 236
-357 14 -83 5 -223 -43 -652 -90 -810 -244 -1637 -462 -2490 l-52 -205 -320
-5 c-288 -5 -328 -8 -401 -27 -306 -84 -655 -300 -827 -513 -108 -134 -142
-250 -95 -320 13 -19 43 -45 68 -57 l44 -23 638 0 637 0 -14 -47 c-363 -1270
-790 -2543 -1289 -3845 -58 -152 -106 -292 -106 -310 0 -53 31 -100 86 -130
41 -23 61 -28 122 -28 213 0 530 120 782 298 126 88 295 258 337 338 52 98
311 779 545 1434 221 618 524 1542 711 2170 l35 115 1518 5 1519 5 90 27 c50
15 117 38 150 52 33 13 61 23 63 21 2 -2 -24 -106 -57 -232 -268 -1018 -419
-1770 -530 -2633 -86 -666 -103 -945 -67 -1090 40 -162 139 -324 261 -423 68
-56 251 -149 340 -173 182 -49 750 -15 1180 71 344 69 585 150 880 295 628
308 1050 733 1197 1204 44 144 31 202 -58 253 -73 42 -259 28 -442 -33 -256
-85 -567 -286 -720 -466 -70 -83 -105 -146 -132 -240 -13 -43 -28 -82 -34 -87
-19 -16 -254 -50 -452 -66 -214 -17 -294 -9 -400 39 -124 57 -231 212 -256
369 -13 89 -5 224 43 647 90 802 236 1599 450 2455 424 1693 1012 3542 1657
5210 85 219 97 258 97 312 0 52 -4 66 -25 89 -101 109 -378 78 -700 -79 -224
-109 -486 -317 -578 -461 -36 -56 -93 -199 -307 -771 -390 -1043 -792 -2251
-1061 -3187 l-48 -168 -1653 0 c-909 0 -1653 2 -1653 5 0 3 25 99 56 213 300
1116 463 1914 578 2824 104 820 106 987 11 1195 -85 186 -205 302 -416 402
-166 79 -188 83 -474 86 -137 2 -304 -1 -370 -6z"/>
</g>
</svg>
