<?xml version="1.0" standalone="no"?>
<!DOCTYPE svg PUBLIC "-//W3C//DTD SVG 20010904//EN"
 "http://www.w3.org/TR/2001/REC-SVG-20010904/DTD/svg10.dtd">
<svg version="1.0" xmlns="http://www.w3.org/2000/svg"
 width="972.000000pt" height="1008.000000pt" viewBox="0 0 972.000000 1008.000000"
 preserveAspectRatio="xMidYMid meet">
<metadata>
Created by potrace 1.16, written by Peter Selinger 2001-2019
</metadata>
<g transform="translate(0.000000,1008.000000) scale(0.100000,-0.100000)"
fill="#000000" stroke="none">
<path d="M3289 10065 c-145 -29 -263 -81 -868 -384 -339 -170 -660 -333 -713
-363 -149 -81 -273 -173 -383 -283 -108 -108 -160 -186 -182 -268 -23 -89 0
-143 78 -183 88 -44 276 -28 469 41 41 15 186 82 322 151 136 68 249 124 250
124 9 0 -38 -561 -72 -865 -120 -1072 -327 -2054 -756 -3582 -361 -1290 -912
-2936 -1362 -4073 -94 -238 -91 -303 19 -357 55 -28 173 -31 287 -7 342 70
771 341 931 588 25 39 86 181 164 386 657 1716 1229 3520 1647 5200 172 692
282 1247 375 1895 87 604 159 1379 166 1786 3 115 -11 145 -82 183 -41 23 -58
26 -135 25 -49 0 -119 -7 -155 -14z"/>
<path d="M8670 10073 c-248 -23 -585 -119 -947 -269 -187 -77 -713 -336 -933
-459 -1268 -711 -2552 -1688 -3179 -2419 -270 -316 -422 -573 -477 -811 -25
-106 -25 -396 0 -573 117 -840 537 -2054 1095 -3172 397 -793 799 -1405 1197
-1819 231 -241 541 -453 764 -523 70 -21 91 -23 300 -23 124 1 279 7 345 14
1184 126 2242 770 2656 1616 69 141 139 346 146 424 6 77 -23 133 -97 184
l-55 39 -115 -5 c-137 -7 -205 -24 -327 -82 -166 -81 -317 -214 -377 -333 -13
-26 -36 -87 -51 -137 -126 -416 -441 -692 -975 -853 -178 -54 -490 -99 -615
-88 -140 11 -302 78 -437 179 -97 72 -311 283 -420 412 -493 588 -1030 1570
-1463 2670 -431 1095 -660 2104 -543 2390 95 233 491 648 1043 1094 1006 813
2347 1602 2982 1756 68 16 77 16 152 1 128 -26 186 -53 235 -107 102 -114 137
-272 102 -468 -22 -123 -1 -176 97 -243 l59 -40 97 7 c233 17 444 116 607 282
112 115 157 232 170 443 13 207 -37 403 -141 556 -68 100 -116 146 -243 229
-164 107 -268 136 -484 133 -73 0 -149 -3 -168 -5z"/>
</g>
</svg>
