<?xml version="1.0" standalone="no"?>
<!DOCTYPE svg PUBLIC "-//W3C//DTD SVG 20010904//EN"
 "http://www.w3.org/TR/2001/REC-SVG-20010904/DTD/svg10.dtd">
<svg version="1.0" xmlns="http://www.w3.org/2000/svg"
 width="345.000000pt" height="1384.000000pt" viewBox="0 0 345.000000 1384.000000"
 preserveAspectRatio="xMidYMid meet">
<metadata>
Created by potrace 1.16, written by Peter Selinger 2001-2019
</metadata>
<g transform="translate(0.000000,1384.000000) scale(0.100000,-0.100000)"
fill="#000000" stroke="none">
<path d="M197 13826 c-98 -36 -166 -111 -188 -212 -31 -136 62 -286 201 -324
22 -6 521 -10 1352 -10 l1318 0 2 -6537 3 -6538 27 -50 c91 -173 308 -207 444
-70 39 39 56 66 68 105 15 49 16 670 16 6730 0 6060 -1 6681 -16 6730 -12 39
-29 66 -67 105 -93 93 52 85 -1636 85 -1224 -1 -1493 -3 -1524 -14z"/>
</g>
</svg>
