<?xml version="1.0" standalone="no"?>
<!DOCTYPE svg PUBLIC "-//W3C//DTD SVG 20010904//EN"
 "http://www.w3.org/TR/2001/REC-SVG-20010904/DTD/svg10.dtd">
<svg version="1.0" xmlns="http://www.w3.org/2000/svg"
 width="885.000000pt" height="310.000000pt" viewBox="0 0 885.000000 310.000000"
 preserveAspectRatio="xMidYMid meet">
<metadata>
Created by potrace 1.16, written by Peter Selinger 2001-2019
</metadata>
<g transform="translate(0.000000,310.000000) scale(0.100000,-0.100000)"
fill="#000000" stroke="none">
<path d="M2003 3090 c-403 -51 -763 -212 -1078 -482 -449 -384 -759 -973 -879
-1669 -28 -161 -48 -428 -43 -559 8 -190 60 -325 140 -363 45 -22 65 -21 104
3 79 48 133 202 133 381 0 409 154 863 407 1199 362 481 858 739 1421 740 487
0 938 -177 1475 -583 158 -119 307 -243 642 -537 555 -487 789 -670 1096 -855
688 -418 1420 -477 2054 -166 749 368 1253 1196 1350 2215 31 325 14 487 -62
609 -25 40 -76 77 -106 77 -39 0 -90 -34 -119 -79 -50 -80 -68 -159 -79 -351
-5 -96 -14 -204 -20 -240 -67 -421 -238 -782 -521 -1094 -544 -600 -1378 -744
-2155 -371 -358 172 -616 361 -1248 915 -336 295 -541 466 -701 587 -460 347
-846 530 -1269 604 -136 23 -424 34 -542 19z"/>
</g>
</svg>
