<?xml version="1.0" standalone="no"?>
<!DOCTYPE svg PUBLIC "-//W3C//DTD SVG 20010904//EN"
 "http://www.w3.org/TR/2001/REC-SVG-20010904/DTD/svg10.dtd">
<svg version="1.0" xmlns="http://www.w3.org/2000/svg"
 width="865.000000pt" height="1008.000000pt" viewBox="0 0 865.000000 1008.000000"
 preserveAspectRatio="xMidYMid meet">
<metadata>
Created by potrace 1.16, written by Peter Selinger 2001-2019
</metadata>
<g transform="translate(0.000000,1008.000000) scale(0.100000,-0.100000)"
fill="#000000" stroke="none">
<path d="M6145 10074 c-788 -65 -1618 -361 -2313 -826 -839 -562 -1332 -1239
-1428 -1962 -21 -154 -14 -390 15 -521 103 -475 414 -882 946 -1241 248 -167
446 -274 845 -459 669 -309 1109 -561 1430 -818 639 -513 874 -1082 724 -1756
-96 -432 -355 -847 -684 -1098 -272 -206 -658 -363 -1125 -458 -663 -133
-1255 -105 -1825 87 -363 122 -742 362 -997 632 -285 301 -405 524 -443 828
-28 225 10 487 107 735 l38 96 65 34 c370 194 634 459 606 608 -8 42 -53 82
-103 91 -56 11 -248 -4 -346 -26 -377 -84 -807 -327 -1092 -615 -206 -208
-344 -438 -454 -758 -158 -459 -146 -919 35 -1278 65 -130 207 -318 367 -485
413 -432 1046 -749 1685 -844 375 -55 816 -55 1262 1 1081 134 2153 584 2985
1250 728 583 1160 1285 1236 2008 14 137 7 369 -15 492 -99 538 -449 1001
-1081 1428 -312 211 -671 405 -1214 656 -385 178 -581 284 -811 439 -492 332
-780 709 -865 1129 -107 533 166 1194 615 1489 397 262 1060 357 1710 248 284
-48 572 -137 805 -249 232 -112 313 -172 395 -298 83 -127 125 -261 137 -448
8 -120 -9 -250 -59 -450 -41 -166 -43 -209 -10 -237 57 -50 131 -59 268 -33
273 52 601 232 820 450 122 121 149 171 198 370 97 392 87 695 -34 961 -92
204 -234 336 -505 472 -370 184 -705 285 -1125 338 -111 15 -653 27 -765 18z"/>
</g>
</svg>
