<?xml version="1.0" standalone="no"?>
<!DOCTYPE svg PUBLIC "-//W3C//DTD SVG 20010904//EN"
 "http://www.w3.org/TR/2001/REC-SVG-20010904/DTD/svg10.dtd">
<svg version="1.0" xmlns="http://www.w3.org/2000/svg"
 width="885.000000pt" height="886.000000pt" viewBox="0 0 885.000000 886.000000"
 preserveAspectRatio="xMidYMid meet">
<metadata>
Created by potrace 1.16, written by Peter Selinger 2001-2019
</metadata>
<g transform="translate(0.000000,886.000000) scale(0.100000,-0.100000)"
fill="#000000" stroke="none">
<path d="M4165 8854 c-22 -2 -96 -9 -165 -15 -493 -43 -1023 -192 -1495 -418
-1527 -734 -2505 -2292 -2505 -3991 0 -1489 753 -2886 1996 -3702 601 -395
1268 -631 2009 -710 157 -17 673 -17 830 0 741 79 1408 315 2009 710 1243 816
1996 2213 1996 3702 0 1489 -753 2886 -1996 3702 -589 387 -1236 620 -1954
704 -127 14 -631 27 -725 18z m700 -389 c815 -94 1571 -423 2189 -953 l98 -85
-1366 -1366 -1366 -1366 -1366 1366 -1366 1366 98 85 c279 239 550 416 889
579 471 227 938 348 1510 393 108 8 547 -4 680 -19z m-2065 -2670 l1365 -1365
-1368 -1368 -1368 -1367 -50 55 c-77 86 -222 274 -308 400 -503 738 -754 1664
-690 2548 57 810 337 1558 820 2192 97 128 217 270 227 270 4 0 621 -614 1372
-1365z m4685 1288 c573 -668 911 -1494 974 -2385 64 -884 -187 -1810 -690
-2548 -86 -126 -231 -314 -308 -400 l-50 -55 -1368 1367 -1368 1368 1365 1365
c751 751 1368 1365 1372 1365 3 0 36 -35 73 -77z m-1696 -4287 l1363 -1363
-98 -85 c-279 -239 -550 -416 -889 -579 -411 -198 -837 -320 -1310 -375 -209
-25 -661 -25 -870 0 -831 97 -1578 421 -2199 954 l-98 85 1363 1363 c750 750
1366 1364 1369 1364 3 0 619 -614 1369 -1364z"/>
</g>
</svg>
