<?xml version="1.0" standalone="no"?>
<!DOCTYPE svg PUBLIC "-//W3C//DTD SVG 20010904//EN"
 "http://www.w3.org/TR/2001/REC-SVG-20010904/DTD/svg10.dtd">
<svg version="1.0" xmlns="http://www.w3.org/2000/svg"
 width="664.000000pt" height="922.000000pt" viewBox="0 0 664.000000 922.000000"
 preserveAspectRatio="xMidYMid meet">
<metadata>
Created by potrace 1.16, written by Peter Selinger 2001-2019
</metadata>
<g transform="translate(0.000000,922.000000) scale(0.100000,-0.100000)"
fill="#000000" stroke="none">
<path d="M6290 9211 c-71 -23 -140 -82 -176 -151 -18 -34 -19 -109 -22 -2107
l-2 -2073 -2948 -2 c-2851 -3 -2948 -4 -2982 -22 -49 -26 -108 -84 -133 -131
-17 -31 -22 -57 -22 -115 0 -58 5 -84 22 -115 25 -47 84 -105 133 -131 34 -18
131 -19 2982 -22 l2948 -2 2 -2073 c3 -1998 4 -2073 22 -2107 26 -49 84 -108
131 -133 54 -29 172 -30 230 -2 50 25 105 80 130 130 20 40 20 85 20 4455 0
4370 0 4415 -20 4455 -25 51 -80 106 -130 129 -43 21 -146 30 -185 17z"/>
</g>
</svg>
