<?xml version="1.0" standalone="no"?>
<!DOCTYPE svg PUBLIC "-//W3C//DTD SVG 20010904//EN"
 "http://www.w3.org/TR/2001/REC-SVG-20010904/DTD/svg10.dtd">
<svg version="1.0" xmlns="http://www.w3.org/2000/svg"
 width="948.000000pt" height="946.000000pt" viewBox="0 0 948.000000 946.000000"
 preserveAspectRatio="xMidYMid meet">
<metadata>
Created by potrace 1.16, written by Peter Selinger 2001-2019
</metadata>
<g transform="translate(0.000000,946.000000) scale(0.100000,-0.100000)"
fill="#000000" stroke="none">
<path d="M79 9439 c-67 -40 -79 -76 -79 -239 0 -164 12 -201 80 -239 35 -20
52 -21 256 -21 406 0 774 -29 910 -71 79 -24 122 -72 150 -161 19 -62 19 -153
19 -3978 0 -3825 0 -3916 -19 -3978 -28 -89 -71 -137 -150 -161 -136 -42 -504
-71 -910 -71 -204 0 -221 -1 -256 -21 -68 -38 -80 -75 -80 -239 0 -164 12
-201 80 -239 l38 -21 4617 0 4617 0 38 21 c68 38 80 75 80 239 0 164 -12 201
-80 239 -35 20 -52 21 -256 21 -406 0 -774 29 -910 71 -79 24 -122 72 -150
161 -19 62 -19 153 -19 3978 0 3825 0 3916 19 3978 28 89 71 137 150 161 136
42 504 71 910 71 204 0 221 1 256 21 68 38 80 75 80 239 0 164 -12 201 -81
240 l-39 22 -298 -11 c-1041 -39 -2213 -39 -3254 0 l-298 11 -39 -22 c-69 -39
-81 -76 -81 -240 0 -164 12 -201 80 -239 35 -20 52 -21 256 -21 406 0 774 -29
910 -71 74 -23 119 -68 149 -151 20 -52 20 -108 23 -4125 l2 -4073 -2065 0
-2065 0 2 4073 c3 4017 3 4073 23 4125 30 83 75 128 149 151 136 42 504 71
910 71 204 0 221 1 256 21 68 38 80 75 80 239 0 164 -12 201 -81 240 -40 22
-40 22 -322 11 -1039 -39 -2291 -38 -3417 4 -147 6 -157 5 -191 -16z"/>
</g>
</svg>
