<?xml version="1.0" standalone="no"?>
<!DOCTYPE svg PUBLIC "-//W3C//DTD SVG 20010904//EN"
 "http://www.w3.org/TR/2001/REC-SVG-20010904/DTD/svg10.dtd">
<svg version="1.0" xmlns="http://www.w3.org/2000/svg"
 width="983.000000pt" height="953.000000pt" viewBox="0 0 983.000000 953.000000"
 preserveAspectRatio="xMidYMid meet">
<metadata>
Created by potrace 1.16, written by Peter Selinger 2001-2019
</metadata>
<g transform="translate(0.000000,953.000000) scale(0.100000,-0.100000)"
fill="#000000" stroke="none">
<path d="M43 9510 c-36 -21 -48 -54 -40 -103 3 -18 1038 -2113 2299 -4657
2513 -5066 2322 -4696 2433 -4733 68 -24 282 -24 350 0 111 37 -80 -333 2433
4733 1261 2544 2296 4639 2299 4657 8 49 -4 82 -40 103 -32 20 -78 20 -4867
20 -4789 0 -4835 0 -4867 -20z m8845 -979 c-21 -59 -3585 -7228 -3590 -7222
-6 5 -3567 7175 -3585 7219 -4 9 717 12 3587 12 2183 0 3590 -4 3588 -9z"/>
</g>
</svg>
