<?xml version="1.0" standalone="no"?>
<!DOCTYPE svg PUBLIC "-//W3C//DTD SVG 20010904//EN"
 "http://www.w3.org/TR/2001/REC-SVG-20010904/DTD/svg10.dtd">
<svg version="1.0" xmlns="http://www.w3.org/2000/svg"
 width="461.000000pt" height="1260.000000pt" viewBox="0 0 461.000000 1260.000000"
 preserveAspectRatio="xMidYMid meet">
<metadata>
Created by potrace 1.16, written by Peter Selinger 2001-2019
</metadata>
<g transform="translate(0.000000,1260.000000) scale(0.100000,-0.100000)"
fill="#000000" stroke="none">
<path d="M2152 12580 c-155 -41 -276 -135 -345 -266 -60 -117 -70 -179 -63
-399 8 -278 42 -558 115 -950 103 -556 124 -676 146 -820 13 -88 29 -212 35
-275 6 -63 12 -127 13 -141 l3 -25 -56 8 c-102 16 -279 59 -493 119 -486 137
-705 179 -927 179 -173 0 -316 -55 -420 -160 -257 -260 -191 -728 126 -893
131 -68 269 -82 504 -53 188 24 337 58 717 165 214 60 391 103 493 119 l56 8
-3 -25 c-1 -14 -7 -78 -13 -141 -6 -63 -22 -187 -35 -275 -22 -144 -43 -264
-146 -820 -73 -392 -107 -672 -115 -950 -5 -156 -3 -202 10 -259 36 -151 137
-287 263 -354 282 -150 638 -52 776 214 60 117 70 179 63 399 -8 278 -42 558
-115 950 -103 556 -124 676 -146 820 -13 88 -29 212 -35 275 -6 63 -12 127
-13 141 l-3 25 56 -8 c102 -16 279 -59 493 -119 486 -137 705 -179 927 -179
173 0 316 55 420 160 257 260 191 728 -126 893 -131 68 -269 82 -504 53 -188
-24 -337 -58 -717 -165 -214 -60 -391 -103 -493 -119 l-56 -8 3 25 c1 14 7 78
13 141 6 63 22 187 35 275 22 144 43 264 146 820 73 392 107 672 115 950 7
220 -3 282 -63 399 -114 219 -387 332 -641 266z"/>
<path d="M2152 6270 c-202 -53 -350 -202 -397 -401 -35 -150 -6 -564 71 -1022
13 -81 54 -303 89 -494 99 -525 156 -953 127 -953 -6 0 -68 12 -137 26 -115
23 -200 45 -607 158 -299 83 -500 116 -704 117 -150 1 -208 -11 -317 -68 -165
-87 -277 -283 -277 -488 0 -205 112 -401 277 -488 110 -57 169 -70 319 -69
203 2 404 36 702 118 407 113 492 135 607 158 69 14 131 26 137 26 29 0 -28
-428 -127 -953 -35 -191 -76 -413 -89 -494 -77 -458 -106 -872 -71 -1022 35
-146 137 -282 262 -349 282 -150 638 -52 776 214 50 96 67 176 67 315 0 305
-41 619 -175 1336 -99 525 -156 953 -127 953 6 0 68 -12 137 -26 115 -23 200
-45 607 -158 298 -82 499 -116 702 -118 150 -1 209 12 319 69 165 87 277 283
277 488 0 205 -112 401 -277 488 -110 57 -168 70 -319 68 -204 -1 -403 -35
-702 -117 -407 -113 -492 -135 -607 -158 -69 -14 -131 -26 -137 -26 -29 0 28
428 127 953 134 717 175 1031 175 1336 0 139 -17 219 -67 315 -114 219 -387
332 -641 266z"/>
</g>
</svg>
