<?xml version="1.0" standalone="no"?>
<!DOCTYPE svg PUBLIC "-//W3C//DTD SVG 20010904//EN"
 "http://www.w3.org/TR/2001/REC-SVG-20010904/DTD/svg10.dtd">
<svg version="1.0" xmlns="http://www.w3.org/2000/svg"
 width="406.000000pt" height="1210.000000pt" viewBox="0 0 406.000000 1210.000000"
 preserveAspectRatio="xMidYMid meet">
<metadata>
Created by potrace 1.16, written by Peter Selinger 2001-2019
</metadata>
<g transform="translate(0.000000,1210.000000) scale(0.100000,-0.100000)"
fill="#000000" stroke="none">
<path d="M1795 12089 c-948 -115 -1692 -884 -1786 -1844 -64 -655 216 -1249
816 -1732 147 -118 370 -271 523 -357 l103 -58 -79 -28 c-594 -208 -1065 -684
-1261 -1275 -278 -839 -30 -1605 714 -2202 313 -252 651 -448 1125 -653 253
-109 422 -213 605 -371 310 -267 538 -630 638 -1014 126 -482 65 -1061 -158
-1506 -144 -287 -334 -488 -570 -604 -183 -90 -372 -120 -600 -96 -482 52
-882 281 -1119 641 -57 85 -98 168 -91 180 4 6 23 10 44 10 48 0 134 28 196
65 133 78 215 228 215 395 0 266 -197 462 -465 462 -182 0 -338 -91 -414 -243
-44 -87 -55 -154 -48 -294 35 -710 567 -1306 1346 -1505 203 -52 491 -73 696
-51 964 103 1721 872 1816 1846 64 655 -216 1249 -816 1732 -147 118 -370 271
-523 357 l-103 58 79 28 c594 208 1065 684 1261 1275 278 839 30 1605 -714
2202 -313 252 -651 448 -1125 653 -253 109 -422 213 -605 371 -310 267 -538
630 -638 1014 -126 482 -65 1061 158 1506 144 287 334 488 570 604 183 90 372
120 600 96 482 -52 882 -281 1119 -641 57 -85 98 -168 91 -180 -4 -6 -23 -10
-44 -10 -48 0 -134 -28 -196 -65 -133 -78 -215 -228 -215 -395 0 -266 197
-462 465 -462 182 0 338 91 414 243 44 87 55 154 48 294 -35 710 -567 1306
-1346 1505 -147 37 -264 51 -456 55 -104 2 -226 -1 -270 -6z m316 -4302 c535
-268 937 -756 1082 -1312 126 -482 65 -1061 -158 -1506 -210 -419 -531 -666
-917 -704 -66 -7 -68 -6 -170 43 -534 263 -946 759 -1091 1317 -126 482 -65
1061 158 1506 199 398 506 646 863 698 108 16 122 14 233 -42z"/>
</g>
</svg>
