<?xml version="1.0" standalone="no"?>
<!DOCTYPE svg PUBLIC "-//W3C//DTD SVG 20010904//EN"
 "http://www.w3.org/TR/2001/REC-SVG-20010904/DTD/svg10.dtd">
<svg version="1.0" xmlns="http://www.w3.org/2000/svg"
 width="1215.000000pt" height="1214.000000pt" viewBox="0 0 1215.000000 1214.000000"
 preserveAspectRatio="xMidYMid meet">
<metadata>
Created by potrace 1.16, written by Peter Selinger 2001-2019
</metadata>
<g transform="translate(0.000000,1214.000000) scale(0.100000,-0.100000)"
fill="#000000" stroke="none">
<path d="M170 12119 c-130 -59 -196 -197 -158 -333 10 -36 636 -666 5265
-5297 l5255 -5256 -80 13 c-227 36 -400 48 -707 48 -340 0 -480 -12 -793 -64
-644 -109 -1266 -354 -1815 -717 -113 -75 -131 -90 -149 -130 -14 -33 -18 -55
-13 -86 6 -37 21 -57 128 -163 168 -166 177 -168 369 -41 836 550 1834 779
2833 651 401 -51 820 -173 1204 -349 86 -40 110 -47 146 -43 53 6 97 37 119
82 24 50 20 93 -15 166 -296 623 -439 1377 -389 2050 56 746 279 1413 677
2017 87 134 96 155 87 208 -6 34 -24 57 -128 162 -106 106 -126 122 -163 128
-31 5 -53 1 -86 -13 -40 -18 -55 -36 -130 -149 -628 -951 -891 -2086 -746
-3221 10 -84 19 -156 19 -160 0 -4 -2364 2356 -5252 5244 -4628 4626 -5258
5252 -5294 5262 -62 18 -133 14 -184 -9z"/>
</g>
</svg>
