<?xml version="1.0" standalone="no"?>
<!DOCTYPE svg PUBLIC "-//W3C//DTD SVG 20010904//EN"
 "http://www.w3.org/TR/2001/REC-SVG-20010904/DTD/svg10.dtd">
<svg version="1.0" xmlns="http://www.w3.org/2000/svg"
 width="885.000000pt" height="570.000000pt" viewBox="0 0 885.000000 570.000000"
 preserveAspectRatio="xMidYMid meet">
<metadata>
Created by potrace 1.16, written by Peter Selinger 2001-2019
</metadata>
<g transform="translate(0.000000,570.000000) scale(0.100000,-0.100000)"
fill="#000000" stroke="none">
<path d="M191 5688 c-107 -30 -191 -143 -191 -256 0 -96 63 -196 154 -245 l41
-22 4225 0 4225 0 55 31 c207 117 172 430 -55 493 -53 14 -8403 14 -8454 -1z"/>
<path d="M191 3108 c-51 -14 -114 -61 -145 -108 -101 -153 -20 -367 155 -410
31 -7 1262 -10 4244 -8 4153 3 4200 3 4240 23 50 25 105 80 130 130 27 55 27
175 0 230 -25 50 -80 105 -130 130 -40 20 -85 20 -4250 22 -2745 1 -4222 -2
-4244 -9z"/>
<path d="M200 531 c-51 -16 -89 -41 -133 -91 -117 -130 -73 -335 88 -415 40
-20 87 -20 4240 -23 2982 -2 4213 1 4244 8 96 24 173 105 194 206 24 115 -29
229 -133 288 l-55 31 -4210 2 c-2316 1 -4221 -2 -4235 -6z"/>
</g>
</svg>
