<?xml version="1.0" standalone="no"?>
<!DOCTYPE svg PUBLIC "-//W3C//DTD SVG 20010904//EN"
 "http://www.w3.org/TR/2001/REC-SVG-20010904/DTD/svg10.dtd">
<svg version="1.0" xmlns="http://www.w3.org/2000/svg"
 width="1393.000000pt" height="1014.000000pt" viewBox="0 0 1393.000000 1014.000000"
 preserveAspectRatio="xMidYMid meet">
<metadata>
Created by potrace 1.16, written by Peter Selinger 2001-2019
</metadata>
<g transform="translate(0.000000,1014.000000) scale(0.100000,-0.100000)"
fill="#000000" stroke="none">
<path d="M785 10124 c-206 -46 -443 -176 -607 -332 -96 -92 -153 -175 -169
-246 -10 -48 -10 -58 7 -92 30 -62 74 -80 212 -87 333 -18 635 -117 856 -281
113 -83 268 -241 362 -368 630 -853 852 -2520 649 -4873 -48 -554 -115 -1106
-210 -1725 -103 -670 -216 -1266 -278 -1465 -87 -277 -89 -543 -5 -632 17 -18
32 -23 72 -23 99 0 135 37 647 660 1484 1804 2851 3757 4009 5725 390 664 844
1483 1120 2023 29 57 56 100 60 95 4 -4 40 -116 79 -248 721 -2443 1108 -4950
1181 -7650 11 -410 17 -480 46 -541 23 -47 50 -64 104 -64 66 0 118 37 241
172 446 489 1138 1343 1701 2098 1806 2426 2849 4482 3035 5980 23 192 23 574
0 735 -34 232 -79 387 -162 560 -179 374 -514 595 -901 595 -85 0 -122 -17
-201 -92 -157 -152 -309 -466 -374 -778 -29 -139 -32 -322 -6 -397 23 -67 65
-103 117 -103 129 0 333 -54 433 -114 264 -159 417 -478 417 -868 0 -185 -30
-338 -117 -598 -387 -1162 -1520 -2977 -3034 -4861 -109 -135 -204 -251 -212
-257 -12 -10 -15 9 -21 126 -10 210 -44 666 -72 972 -183 2018 -549 3923
-1111 5790 -117 391 -347 1087 -368 1118 -9 12 -35 32 -58 43 -37 19 -52 21
-137 16 -52 -3 -129 -15 -170 -27 -103 -29 -317 -135 -423 -211 -108 -77 -222
-195 -265 -276 -43 -81 -42 -128 3 -264 l36 -107 -117 -223 c-1143 -2191
-2440 -4216 -3982 -6217 -90 -117 -166 -211 -168 -209 -3 2 7 78 20 168 67
441 139 1053 180 1529 242 2777 -93 4608 -983 5387 -239 209 -571 370 -877
424 -162 28 -459 35 -559 13z"/>
</g>
</svg>
