<?xml version="1.0" standalone="no"?>
<!DOCTYPE svg PUBLIC "-//W3C//DTD SVG 20010904//EN"
 "http://www.w3.org/TR/2001/REC-SVG-20010904/DTD/svg10.dtd">
<svg version="1.0" xmlns="http://www.w3.org/2000/svg"
 width="1215.000000pt" height="1214.000000pt" viewBox="0 0 1215.000000 1214.000000"
 preserveAspectRatio="xMidYMid meet">
<metadata>
Created by potrace 1.16, written by Peter Selinger 2001-2019
</metadata>
<g transform="translate(0.000000,1214.000000) scale(0.100000,-0.100000)"
fill="#000000" stroke="none">
<path d="M7250 12133 c-15 -3 -74 -54 -146 -127 -107 -106 -123 -126 -129
-163 -5 -31 -1 -53 13 -86 18 -40 36 -55 149 -130 549 -363 1171 -608 1815
-717 313 -52 453 -64 793 -64 307 0 480 12 707 48 l80 13 -5255 -5256 c-4629
-4631 -5255 -5261 -5265 -5297 -28 -99 -5 -194 66 -268 72 -75 174 -103 276
-74 36 10 666 636 5294 5262 2888 2888 5252 5248 5252 5244 0 -4 -9 -76 -19
-160 -145 -1135 118 -2270 746 -3221 75 -113 90 -131 130 -149 33 -14 55 -18
86 -13 37 6 57 22 163 128 169 169 169 174 41 370 -398 604 -621 1271 -677
2017 -50 673 93 1427 389 2050 35 73 39 116 15 166 -22 45 -66 76 -119 82 -36
4 -60 -3 -146 -43 -865 -397 -1821 -489 -2739 -264 -462 114 -901 305 -1298
566 -103 68 -159 95 -187 92 -5 -1 -21 -4 -35 -6z"/>
</g>
</svg>
