<?xml version="1.0" standalone="no"?>
<!DOCTYPE svg PUBLIC "-//W3C//DTD SVG 20010904//EN"
 "http://www.w3.org/TR/2001/REC-SVG-20010904/DTD/svg10.dtd">
<svg version="1.0" xmlns="http://www.w3.org/2000/svg"
 width="544.000000pt" height="1130.000000pt" viewBox="0 0 544.000000 1130.000000"
 preserveAspectRatio="xMidYMid meet">
<metadata>
Created by potrace 1.16, written by Peter Selinger 2001-2019
</metadata>
<g transform="translate(0.000000,1130.000000) scale(0.100000,-0.100000)"
fill="#000000" stroke="none">
<path d="M4207 11289 c-45 -13 -131 -89 -156 -138 -14 -27 -172 -550 -253
-838 l-9 -32 -122 59 c-199 96 -403 159 -632 197 -81 13 -165 18 -320 18 -369
0 -645 -65 -980 -229 -252 -124 -440 -262 -650 -478 -202 -206 -332 -395 -480
-693 -113 -228 -183 -399 -264 -647 -256 -787 -353 -1680 -338 -3113 10 -917
55 -1434 173 -2015 132 -648 398 -1299 687 -1685 78 -104 205 -248 270 -304
20 -18 37 -38 37 -45 0 -6 -65 -234 -145 -506 -80 -272 -148 -516 -152 -542
-17 -134 77 -262 212 -291 111 -23 229 28 283 122 16 29 74 211 146 457 65
225 122 412 126 417 3 4 58 -17 121 -47 611 -291 1321 -286 1934 13 341 166
639 414 872 726 289 386 555 1037 687 1685 118 581 163 1098 173 2015 13 1225
-53 2014 -228 2723 -94 384 -211 709 -374 1037 -143 290 -277 485 -465 680
l-107 110 150 505 c133 446 150 514 151 580 0 55 -4 85 -19 115 -25 51 -80
106 -130 129 -46 22 -145 29 -198 15z m-1232 -1094 c231 -48 493 -172 649
-307 l40 -34 -1150 -3927 -1149 -3926 -24 47 c-40 78 -99 234 -141 374 -121
398 -200 957 -240 1688 -41 741 -41 2604 0 3305 59 1015 205 1648 477 2060
272 412 664 674 1099 734 98 14 344 6 439 -14z m1136 -926 c188 -373 310
-1002 359 -1854 41 -701 41 -2564 0 -3305 -55 -1007 -182 -1671 -401 -2100
-218 -427 -566 -742 -959 -868 -314 -100 -663 -75 -968 70 -92 44 -264 156
-329 215 l-42 38 1151 3933 c634 2162 1153 3932 1155 3932 1 0 17 -28 34 -61z"/>
</g>
</svg>
