<?xml version="1.0" standalone="no"?>
<!DOCTYPE svg PUBLIC "-//W3C//DTD SVG 20010904//EN"
 "http://www.w3.org/TR/2001/REC-SVG-20010904/DTD/svg10.dtd">
<svg version="1.0" xmlns="http://www.w3.org/2000/svg"
 width="514.000000pt" height="596.000000pt" viewBox="0 0 514.000000 596.000000"
 preserveAspectRatio="xMidYMid meet">
<metadata>
Created by potrace 1.16, written by Peter Selinger 2001-2019
</metadata>
<g transform="translate(0.000000,596.000000) scale(0.100000,-0.100000)"
fill="#000000" stroke="none">
<path d="M2441 5944 c-171 -46 -300 -179 -331 -342 -8 -43 7 -241 80 -1060 49
-554 91 -1021 93 -1038 3 -33 80 -88 -1163 821 -239 175 -460 329 -490 344
-49 23 -67 26 -165 26 -103 0 -114 -2 -178 -32 -43 -21 -92 -56 -133 -95 -190
-183 -203 -478 -29 -653 47 -46 115 -81 968 -489 504 -242 917 -442 917 -446
0 -4 -413 -204 -917 -446 -853 -408 -921 -443 -968 -489 -215 -216 -136 -600
154 -743 73 -36 78 -37 185 -37 99 0 117 3 166 26 30 15 251 169 490 344 1243
909 1166 854 1163 821 -2 -17 -44 -484 -93 -1038 -73 -819 -88 -1017 -80
-1060 48 -249 317 -410 575 -343 174 46 303 178 335 343 8 43 -7 241 -80 1060
-49 554 -91 1021 -93 1038 -3 33 -80 88 1163 -821 239 -175 460 -329 490 -344
49 -23 67 -26 166 -26 107 0 112 1 185 37 290 143 369 527 154 743 -47 46
-115 81 -968 489 -504 242 -917 442 -917 446 0 4 413 204 917 446 853 408 921
443 968 489 215 216 136 600 -154 743 -73 36 -78 37 -185 37 -99 0 -117 -3
-166 -26 -30 -15 -251 -169 -490 -344 -1243 -909 -1166 -854 -1163 -821 2 17
44 484 93 1038 73 819 88 1017 80 1060 -48 250 -321 411 -579 342z"/>
</g>
</svg>
