<?xml version="1.0" standalone="no"?>
<!DOCTYPE svg PUBLIC "-//W3C//DTD SVG 20010904//EN"
 "http://www.w3.org/TR/2001/REC-SVG-20010904/DTD/svg10.dtd">
<svg version="1.0" xmlns="http://www.w3.org/2000/svg"
 width="877.000000pt" height="1009.000000pt" viewBox="0 0 877.000000 1009.000000"
 preserveAspectRatio="xMidYMid meet">
<metadata>
Created by potrace 1.16, written by Peter Selinger 2001-2019
</metadata>
<g transform="translate(0.000000,1009.000000) scale(0.100000,-0.100000)"
fill="#000000" stroke="none">
<path d="M6790 10083 c-25 -2 -114 -13 -198 -24 -882 -114 -1789 -541 -2557
-1200 -131 -113 -418 -395 -538 -529 -42 -47 -74 -76 -72 -65 29 132 237 1589
237 1666 1 51 -28 94 -83 123 -82 45 -252 32 -449 -34 -85 -28 -1174 -566
-1422 -702 -149 -81 -273 -173 -383 -283 -108 -108 -160 -186 -182 -268 -23
-89 0 -143 78 -183 88 -44 276 -28 469 41 41 15 178 78 304 141 125 64 230
114 232 112 3 -4 -86 -625 -141 -973 -256 -1629 -599 -3322 -991 -4890 -227
-906 -513 -1670 -948 -2525 -129 -255 -140 -279 -140 -332 -2 -105 68 -157
212 -158 292 -1 730 211 991 480 82 84 121 148 270 443 451 894 733 1651 991
2662 166 650 288 1071 475 1630 253 759 515 1394 795 1924 486 922 1037 1579
1534 1828 251 126 656 202 928 174 509 -53 864 -261 1057 -621 240 -447 108
-1081 -306 -1471 -235 -221 -625 -435 -1227 -674 -260 -103 -459 -174 -968
-349 -218 -74 -434 -153 -480 -175 -383 -182 -696 -503 -663 -678 10 -53 31
-79 88 -108 63 -31 113 -32 302 -5 244 34 471 45 657 31 506 -37 933 -163
1277 -376 597 -369 931 -965 931 -1659 0 -223 -47 -515 -115 -723 -121 -363
-356 -696 -650 -918 -383 -289 -994 -468 -1595 -469 -632 -1 -1162 223 -1525
643 -56 65 -96 101 -130 119 -46 23 -57 24 -145 19 -292 -18 -672 -203 -929
-451 -131 -127 -201 -244 -201 -337 0 -51 8 -66 86 -160 174 -209 409 -388
689 -524 414 -201 728 -263 1275 -252 421 9 725 51 1155 162 385 99 724 225
1100 410 561 276 1012 592 1406 985 266 265 440 490 598 772 181 324 279 618
337 1014 25 168 25 526 1 684 -117 744 -551 1323 -1257 1676 -193 97 -466 201
-599 229 -32 7 -27 10 140 97 1430 740 2204 1628 2246 2573 13 310 -78 610
-262 853 -142 189 -310 323 -557 442 -219 105 -387 154 -620 179 -89 10 -421
12 -528 4z"/>
</g>
</svg>
