<?xml version="1.0" standalone="no"?>
<!DOCTYPE svg PUBLIC "-//W3C//DTD SVG 20010904//EN"
 "http://www.w3.org/TR/2001/REC-SVG-20010904/DTD/svg10.dtd">
<svg version="1.0" xmlns="http://www.w3.org/2000/svg"
 width="442.000000pt" height="1210.000000pt" viewBox="0 0 442.000000 1210.000000"
 preserveAspectRatio="xMidYMid meet">
<metadata>
Created by potrace 1.16, written by Peter Selinger 2001-2019
</metadata>
<g transform="translate(0.000000,1210.000000) scale(0.100000,-0.100000)"
fill="#000000" stroke="none">
<path d="M2083 12085 c-131 -35 -232 -115 -287 -226 -52 -103 -60 -157 -53
-359 11 -307 40 -530 152 -1145 103 -569 134 -778 151 -1024 6 -98 6 -103 -12
-98 -11 3 -46 8 -79 12 -102 11 -320 60 -575 130 -435 118 -604 151 -825 162
-153 7 -216 -4 -314 -53 -320 -160 -320 -658 0 -818 98 -49 161 -60 314 -53
221 11 390 44 825 162 255 70 473 119 575 130 33 4 68 9 79 12 18 5 18 0 12
-98 -17 -246 -48 -455 -151 -1024 -112 -615 -141 -838 -152 -1145 -7 -202 1
-256 53 -359 160 -320 658 -320 818 0 52 103 60 157 53 359 -11 307 -40 530
-152 1145 -103 569 -134 778 -151 1024 -6 98 -6 103 12 98 11 -3 46 -8 79 -12
102 -11 320 -60 575 -130 435 -118 604 -151 825 -162 153 -7 216 4 314 53 320
160 320 658 0 818 -98 49 -161 60 -314 53 -221 -11 -390 -44 -825 -162 -255
-70 -473 -119 -575 -130 -33 -4 -68 -9 -79 -12 -18 -5 -18 0 -12 98 17 246 48
455 151 1024 112 615 141 838 152 1145 7 202 -1 256 -53 359 -92 184 -323 282
-531 226z"/>
<path d="M2081 6024 c-168 -45 -283 -163 -328 -337 -13 -51 -15 -95 -10 -247
11 -313 44 -555 171 -1250 36 -195 76 -436 90 -535 28 -203 52 -463 43 -472
-7 -7 -136 11 -272 38 -55 11 -233 55 -395 99 -474 127 -645 159 -868 161
-139 1 -186 -7 -274 -52 -315 -159 -315 -659 0 -818 88 -45 135 -53 274 -52
223 2 394 34 868 161 162 44 340 88 395 99 136 27 265 45 272 38 9 -9 -15
-269 -43 -472 -14 -99 -54 -340 -90 -535 -127 -695 -160 -937 -171 -1250 -7
-209 2 -266 58 -371 93 -174 319 -267 522 -214 173 45 288 161 333 336 14 53
16 95 11 249 -11 313 -44 555 -171 1250 -36 195 -76 436 -90 535 -28 203 -52
463 -43 472 7 7 136 -11 272 -38 55 -11 233 -55 395 -99 474 -127 645 -159
868 -161 139 -1 186 7 274 52 315 159 315 659 0 818 -88 45 -135 53 -274 52
-223 -2 -394 -34 -868 -161 -162 -44 -340 -88 -395 -99 -136 -27 -265 -45
-272 -38 -9 9 15 269 43 472 14 99 54 340 90 535 127 695 160 937 171 1250 6
204 -2 261 -53 361 -91 181 -325 279 -533 223z"/>
</g>
</svg>
