<?xml version="1.0" standalone="no"?>
<!DOCTYPE svg PUBLIC "-//W3C//DTD SVG 20010904//EN"
 "http://www.w3.org/TR/2001/REC-SVG-20010904/DTD/svg10.dtd">
<svg version="1.0" xmlns="http://www.w3.org/2000/svg"
 width="1215.000000pt" height="1214.000000pt" viewBox="0 0 1215.000000 1214.000000"
 preserveAspectRatio="xMidYMid meet">
<metadata>
Created by potrace 1.16, written by Peter Selinger 2001-2019
</metadata>
<g transform="translate(0.000000,1214.000000) scale(0.100000,-0.100000)"
fill="#000000" stroke="none">
<path d="M11780 12128 c-28 -9 -1144 -1119 -5287 -5262 -2889 -2888 -5253
-5248 -5253 -5244 0 4 9 76 19 160 145 1135 -118 2270 -746 3221 -75 113 -90
131 -130 149 -33 14 -55 18 -86 13 -37 -6 -57 -22 -163 -128 -169 -169 -169
-174 -41 -370 398 -604 621 -1271 677 -2017 50 -673 -93 -1427 -389 -2050 -17
-36 -31 -81 -31 -101 0 -70 79 -149 149 -149 20 0 65 14 101 31 854 406 1844
505 2770 278 462 -114 901 -305 1298 -566 192 -127 201 -125 369 41 107 106
122 126 128 163 5 31 1 53 -13 86 -18 40 -36 55 -149 130 -549 363 -1171 608
-1815 717 -313 52 -453 64 -793 64 -307 0 -480 -12 -707 -48 l-80 -13 5255
5256 c4629 4631 5255 5261 5265 5297 38 136 -28 274 -158 333 -49 23 -131 26
-190 9z"/>
</g>
</svg>
