<?xml version="1.0" standalone="no"?>
<!DOCTYPE svg PUBLIC "-//W3C//DTD SVG 20010904//EN"
 "http://www.w3.org/TR/2001/REC-SVG-20010904/DTD/svg10.dtd">
<svg version="1.0" xmlns="http://www.w3.org/2000/svg"
 width="1125.000000pt" height="992.000000pt" viewBox="0 0 1125.000000 992.000000"
 preserveAspectRatio="xMidYMid meet">
<metadata>
Created by potrace 1.16, written by Peter Selinger 2001-2019
</metadata>
<g transform="translate(0.000000,992.000000) scale(0.100000,-0.100000)"
fill="#000000" stroke="none">
<path d="M4442 9909 c-579 -31 -1029 -160 -1443 -412 -408 -248 -712 -605
-713 -839 -1 -60 2 -69 28 -97 49 -51 100 -65 224 -58 263 13 644 192 883 414
l46 43 174 10 c96 5 540 10 987 10 l812 0 -5 -22 c-3 -13 -25 -120 -50 -238
-458 -2167 -1197 -4336 -2226 -6528 -206 -438 -516 -1054 -579 -1150 -71 -107
-58 -103 -228 -72 -141 26 -303 78 -404 132 -227 121 -423 328 -523 554 -70
157 -77 167 -130 196 -39 21 -64 28 -111 28 -434 1 -1100 -427 -1174 -754 -13
-57 0 -98 80 -261 144 -292 368 -512 680 -669 272 -136 472 -185 795 -193 225
-6 346 7 540 58 516 134 1107 509 1477 936 219 253 290 369 572 938 437 879
825 1743 1127 2512 l44 113 1253 0 1252 0 0 -24 c0 -32 43 -82 91 -106 47 -25
162 -27 272 -6 349 67 798 353 952 606 41 67 85 211 92 300 5 61 3 68 -22 98
-15 18 -45 42 -66 52 -37 20 -71 20 -1753 20 l-1715 0 51 143 c364 1031 697
2178 938 3240 l22 97 1212 0 c1416 0 1579 -7 1797 -76 134 -42 164 -81 154
-202 -8 -99 9 -135 85 -174 62 -33 122 -36 256 -13 419 73 937 435 1022 715
10 35 17 90 17 156 0 96 -2 103 -38 176 -47 95 -109 154 -227 213 -163 82
-317 116 -605 135 -179 12 -5707 11 -5923 -1z"/>
</g>
</svg>
