<?xml version="1.0" standalone="no"?>
<!DOCTYPE svg PUBLIC "-//W3C//DTD SVG 20010904//EN"
 "http://www.w3.org/TR/2001/REC-SVG-20010904/DTD/svg10.dtd">
<svg version="1.0" xmlns="http://www.w3.org/2000/svg"
 width="923.000000pt" height="922.000000pt" viewBox="0 0 923.000000 922.000000"
 preserveAspectRatio="xMidYMid meet">
<metadata>
Created by potrace 1.16, written by Peter Selinger 2001-2019
</metadata>
<g transform="translate(0.000000,922.000000) scale(0.100000,-0.100000)"
fill="#000000" stroke="none">
<path d="M4540 9211 c-83 -26 -141 -74 -181 -151 l-24 -45 -3 -4227 -2 -4228
-2063 -2 -2062 -3 -45 -24 c-62 -32 -97 -67 -128 -126 -22 -41 -26 -63 -26
-125 0 -116 49 -196 154 -251 l45 -24 4390 -3 c4064 -2 4393 -1 4439 14 72 24
149 104 170 174 33 112 11 206 -67 285 -94 93 124 85 -2199 85 l-2048 0 0
4208 c0 3809 -2 4213 -16 4262 -21 70 -98 149 -168 173 -51 18 -123 21 -166 8z"/>
</g>
</svg>
