<?xml version="1.0" standalone="no"?>
<!DOCTYPE svg PUBLIC "-//W3C//DTD SVG 20010904//EN"
 "http://www.w3.org/TR/2001/REC-SVG-20010904/DTD/svg10.dtd">
<svg version="1.0" xmlns="http://www.w3.org/2000/svg"
 width="724.000000pt" height="795.000000pt" viewBox="0 0 724.000000 795.000000"
 preserveAspectRatio="xMidYMid meet">
<metadata>
Created by potrace 1.16, written by Peter Selinger 2001-2019
</metadata>
<g transform="translate(0.000000,795.000000) scale(0.100000,-0.100000)"
fill="#000000" stroke="none">
<path d="M191 7938 c-84 -24 -160 -104 -181 -190 -7 -30 -10 -1174 -8 -3798 3
-3639 4 -3756 22 -3790 26 -49 84 -108 131 -133 54 -29 172 -30 230 -2 50 25
105 80 130 130 20 40 20 83 23 3648 l2 3607 3075 0 3075 0 2 -3607 3 -3608 22
-40 c25 -48 84 -106 133 -131 50 -26 171 -26 225 1 50 25 105 80 130 130 20
40 20 81 20 3820 0 3739 0 3780 -20 3820 -25 50 -80 105 -130 130 -40 20 -81
20 -3445 22 -2217 1 -3417 -2 -3439 -9z"/>
</g>
</svg>
