<?xml version="1.0" standalone="no"?>
<!DOCTYPE svg PUBLIC "-//W3C//DTD SVG 20010904//EN"
 "http://www.w3.org/TR/2001/REC-SVG-20010904/DTD/svg10.dtd">
<svg version="1.0" xmlns="http://www.w3.org/2000/svg"
 width="724.000000pt" height="1011.000000pt" viewBox="0 0 724.000000 1011.000000"
 preserveAspectRatio="xMidYMid meet">
<metadata>
Created by potrace 1.16, written by Peter Selinger 2001-2019
</metadata>
<g transform="translate(0.000000,1011.000000) scale(0.100000,-0.100000)"
fill="#000000" stroke="none">
<path d="M5792 10099 c-1433 -103 -2914 -872 -3947 -2050 -509 -580 -918
-1255 -1242 -2054 -280 -688 -485 -1476 -562 -2160 -59 -523 -52 -1058 20
-1505 45 -282 138 -611 241 -850 354 -828 1018 -1330 1933 -1462 139 -20 646
-17 805 5 822 115 1648 471 2395 1034 455 342 822 724 1120 1162 129 189 165
259 165 320 0 39 -5 52 -27 72 -39 35 -76 49 -131 49 -263 0 -701 -211 -951
-458 -43 -42 -106 -125 -173 -227 -484 -735 -1034 -1081 -1784 -1120 -329 -18
-751 68 -1059 214 -982 466 -1458 1716 -1275 3342 113 1001 483 2126 975 2964
232 397 473 719 754 1008 449 461 884 698 1501 816 285 54 702 72 873 38 129
-26 250 -70 307 -112 205 -150 270 -465 175 -841 -70 -277 -340 -898 -590
-1358 -68 -126 -116 -227 -120 -251 -7 -49 9 -82 54 -112 29 -20 47 -23 121
-23 271 0 693 209 950 469 72 73 98 109 168 236 322 580 635 1313 709 1664 24
110 27 149 27 311 1 161 -2 196 -22 270 -31 118 -100 252 -166 326 -131 146
-367 251 -636 284 -97 11 -440 11 -608 -1z"/>
</g>
</svg>
