<?xml version="1.0" standalone="no"?>
<!DOCTYPE svg PUBLIC "-//W3C//DTD SVG 20010904//EN"
 "http://www.w3.org/TR/2001/REC-SVG-20010904/DTD/svg10.dtd">
<svg version="1.0" xmlns="http://www.w3.org/2000/svg"
 width="1230.000000pt" height="626.000000pt" viewBox="0 0 1230.000000 626.000000"
 preserveAspectRatio="xMidYMid meet">
<metadata>
Created by potrace 1.16, written by Peter Selinger 2001-2019
</metadata>
<g transform="translate(0.000000,626.000000) scale(0.100000,-0.100000)"
fill="#000000" stroke="none">
<path d="M2550 6253 c-198 -20 -354 -50 -520 -100 -1116 -337 -1918 -1436
-2021 -2768 -14 -176 -6 -516 15 -680 57 -437 169 -806 359 -1180 155 -303
349 -567 588 -800 213 -207 418 -352 674 -476 231 -113 463 -186 715 -225 176
-28 583 -25 780 5 624 96 1179 354 1727 805 59 49 205 186 323 305 293 294
506 551 741 899 55 81 104 147 108 147 5 0 96 -112 202 -250 231 -299 339
-430 490 -592 833 -891 1875 -1374 2889 -1340 251 9 453 43 683 117 1092 350
1877 1443 1978 2755 14 176 6 516 -15 680 -57 437 -169 806 -359 1180 -155
303 -349 567 -588 800 -213 207 -418 352 -674 476 -231 113 -463 186 -715 225
-176 28 -583 25 -780 -5 -624 -96 -1179 -354 -1727 -805 -59 -49 -205 -186
-323 -305 -293 -294 -506 -551 -741 -899 -55 -81 -104 -147 -108 -147 -5 0
-96 113 -202 250 -231 299 -339 430 -490 592 -814 871 -1823 1351 -2819 1341
-85 -1 -171 -3 -190 -5z m7391 -613 c325 -32 608 -141 867 -334 509 -380 846
-1015 949 -1791 26 -200 24 -585 -6 -774 -70 -454 -246 -863 -514 -1197 -89
-110 -275 -286 -383 -362 -319 -227 -647 -333 -1029 -334 -724 0 -1344 394
-2125 1352 -69 84 -313 395 -543 692 l-417 540 52 86 c154 258 399 603 598
842 123 147 427 455 555 561 368 306 727 506 1116 623 163 49 310 75 569 99
79 8 214 6 311 -3z m-7251 -241 c548 -64 1076 -399 1653 -1048 181 -204 326
-383 790 -983 l417 -540 -52 -86 c-154 -258 -399 -603 -598 -842 -123 -147
-427 -455 -555 -561 -488 -406 -977 -636 -1496 -703 -549 -72 -978 28 -1367
318 -509 380 -846 1015 -949 1791 -26 200 -24 585 6 774 148 962 773 1697
1580 1861 184 37 365 43 571 19z"/>
</g>
</svg>
