<?xml version="1.0" standalone="no"?>
<!DOCTYPE svg PUBLIC "-//W3C//DTD SVG 20010904//EN"
 "http://www.w3.org/TR/2001/REC-SVG-20010904/DTD/svg10.dtd">
<svg version="1.0" xmlns="http://www.w3.org/2000/svg"
 width="972.000000pt" height="908.000000pt" viewBox="0 0 972.000000 908.000000"
 preserveAspectRatio="xMidYMid meet">
<metadata>
Created by potrace 1.16, written by Peter Selinger 2001-2019
</metadata>
<g transform="translate(0.000000,908.000000) scale(0.100000,-0.100000)"
fill="#000000" stroke="none">
<path d="M5410 9073 c-279 -20 -635 -95 -944 -198 -798 -266 -1592 -785 -2021
-1320 -199 -248 -388 -631 -390 -789 0 -46 3 -52 34 -73 149 -101 785 174
1109 481 106 100 158 173 182 259 92 319 288 600 466 669 258 101 611 144 984
119 357 -24 577 -54 1260 -171 804 -137 1035 -163 1460 -164 218 0 303 3 363
15 l77 15 -18 -20 c-10 -12 -92 -106 -183 -211 -600 -694 -1182 -1326 -1947
-2112 l-304 -313 -772 0 c-884 0 -845 3 -1031 -90 -119 -59 -213 -133 -277
-218 -91 -120 -95 -217 -13 -274 l40 -27 715 -1 715 -1 -165 -161 c-1278
-1248 -2894 -2713 -4386 -3975 -274 -232 -364 -336 -364 -421 0 -44 9 -61 41
-77 93 -49 333 12 619 157 261 132 381 164 655 175 262 10 895 -27 1425 -83
129 -13 483 -53 785 -89 1127 -132 1474 -161 2055 -172 286 -5 352 -3 450 11
446 66 913 261 1385 580 707 477 1203 1139 1444 1924 67 218 65 244 -19 272
-165 54 -701 -174 -1010 -430 -173 -144 -221 -212 -272 -389 -111 -383 -322
-791 -539 -1040 l-73 -84 -260 6 c-541 14 -917 46 -1991 172 -714 84 -963 110
-1280 134 -600 47 -1144 52 -1383 13 -78 -12 -109 -14 -100 -6 7 6 177 155
378 330 1090 950 2255 2019 3263 2991 l168 163 107 -6 c186 -9 354 -24 452
-40 118 -20 271 -68 293 -92 11 -12 17 -36 17 -66 0 -63 21 -100 75 -132 42
-24 50 -26 125 -19 100 9 245 58 341 115 99 59 231 187 266 259 24 48 28 68
28 141 0 69 -4 93 -23 130 -69 132 -253 233 -502 274 -116 19 -302 36 -391 36
-36 0 -87 3 -113 6 l-46 7 312 316 c658 666 1240 1286 1854 1977 459 516 1088
1253 1141 1337 28 44 39 93 29 131 -18 74 -174 74 -392 1 -106 -35 -379 -171
-484 -241 l-85 -56 -170 6 c-354 14 -623 48 -1315 166 -667 114 -899 146
-1240 170 -133 9 -502 11 -610 3z"/>
</g>
</svg>
