<?xml version="1.0" standalone="no"?>
<!DOCTYPE svg PUBLIC "-//W3C//DTD SVG 20010904//EN"
 "http://www.w3.org/TR/2001/REC-SVG-20010904/DTD/svg10.dtd">
<svg version="1.0" xmlns="http://www.w3.org/2000/svg"
 width="949.000000pt" height="977.000000pt" viewBox="0 0 949.000000 977.000000"
 preserveAspectRatio="xMidYMid meet">
<metadata>
Created by potrace 1.16, written by Peter Selinger 2001-2019
</metadata>
<g transform="translate(0.000000,977.000000) scale(0.100000,-0.100000)"
fill="#000000" stroke="none">
<path d="M4125 9764 c-877 -58 -1611 -245 -2310 -589 -661 -325 -1210 -773
-1522 -1240 -118 -176 -228 -415 -275 -596 -25 -99 -21 -131 25 -160 28 -18
44 -20 132 -16 81 3 120 11 206 40 229 77 481 228 635 382 107 106 134 150
169 269 57 195 146 369 270 523 174 217 425 354 860 468 317 84 550 118 1008
149 l77 6 0 -28 c0 -50 -59 -609 -96 -902 -319 -2569 -1017 -5193 -2058 -7739
-41 -101 -78 -196 -81 -211 -9 -43 10 -77 57 -101 41 -21 48 -22 135 -11 124
16 233 52 388 127 287 140 503 322 578 485 39 85 264 648 366 916 825 2164
1403 4369 1716 6554 36 257 115 871 115 902 0 12 786 10 980 -2 1152 -71 2028
-411 2470 -961 305 -380 406 -836 294 -1338 -150 -670 -536 -1280 -1094 -1724
-284 -226 -678 -431 -1088 -566 -406 -133 -944 -220 -1359 -221 -51 0 -116 -5
-145 -11 -267 -54 -615 -250 -806 -453 -80 -86 -114 -152 -110 -214 3 -40 8
-49 37 -69 31 -21 45 -23 162 -23 731 0 1594 191 2394 531 646 274 1311 688
1821 1135 724 635 1195 1381 1358 2151 50 239 59 542 21 743 -66 351 -235 656
-508 916 -445 426 -1178 728 -2027 834 -338 43 -352 43 -1565 45 -649 1 -1202
1 -1230 -1z"/>
</g>
</svg>
