<?xml version="1.0" standalone="no"?>
<!DOCTYPE svg PUBLIC "-//W3C//DTD SVG 20010904//EN"
 "http://www.w3.org/TR/2001/REC-SVG-20010904/DTD/svg10.dtd">
<svg version="1.0" xmlns="http://www.w3.org/2000/svg"
 width="885.000000pt" height="886.000000pt" viewBox="0 0 885.000000 886.000000"
 preserveAspectRatio="xMidYMid meet">
<metadata>
Created by potrace 1.16, written by Peter Selinger 2001-2019
</metadata>
<g transform="translate(0.000000,886.000000) scale(0.100000,-0.100000)"
fill="#000000" stroke="none">
<path d="M191 8848 c-51 -14 -114 -61 -145 -108 -99 -150 -22 -361 149 -409
29 -8 599 -11 1998 -11 l1957 0 0 -1810 0 -1810 -1978 -2 c-1943 -3 -1978 -3
-2017 -23 -50 -25 -105 -80 -130 -130 -27 -55 -27 -175 0 -230 25 -50 80 -105
130 -130 39 -20 74 -20 2017 -23 l1978 -2 2 -1983 c3 -1910 4 -1983 22 -2017
26 -49 84 -108 131 -133 54 -29 172 -30 230 -2 50 25 105 80 130 130 20 39 20
74 23 2022 l2 1983 1978 2 c1943 3 1978 3 2017 23 50 25 105 80 130 130 27 55
27 175 0 230 -25 50 -80 105 -130 130 -39 20 -74 20 -2017 23 l-1978 2 0 1810
0 1810 1978 2 c1943 3 1978 3 2017 23 50 25 105 80 130 130 27 55 27 175 0
230 -25 50 -80 105 -130 130 -40 20 -85 20 -4250 22 -2745 1 -4222 -2 -4244
-9z"/>
</g>
</svg>
