<?xml version="1.0" standalone="no"?>
<!DOCTYPE svg PUBLIC "-//W3C//DTD SVG 20010904//EN"
 "http://www.w3.org/TR/2001/REC-SVG-20010904/DTD/svg10.dtd">
<svg version="1.0" xmlns="http://www.w3.org/2000/svg"
 width="922.000000pt" height="324.000000pt" viewBox="0 0 922.000000 324.000000"
 preserveAspectRatio="xMidYMid meet">
<metadata>
Created by potrace 1.16, written by Peter Selinger 2001-2019
</metadata>
<g transform="translate(0.000000,324.000000) scale(0.100000,-0.100000)"
fill="#000000" stroke="none">
<path d="M2065 3228 c-117 -13 -291 -54 -422 -99 -940 -324 -1602 -1380 -1639
-2614 -7 -220 4 -298 58 -405 88 -173 227 -140 299 72 16 49 23 104 30 243 11
213 30 348 70 502 123 479 422 925 800 1195 111 79 329 194 450 236 109 39
287 78 411 91 493 54 1013 -108 1548 -482 224 -157 391 -295 848 -700 450
-399 659 -571 899 -739 653 -458 1299 -620 1921 -482 834 185 1497 901 1757
1899 77 295 109 539 110 835 0 199 -2 220 -23 278 -30 84 -65 138 -105 162
-64 39 -130 18 -178 -58 -52 -82 -70 -159 -80 -347 -20 -379 -82 -629 -232
-934 -146 -297 -383 -581 -638 -763 -111 -79 -329 -194 -450 -236 -109 -39
-287 -78 -411 -91 -493 -54 -1013 108 -1548 482 -224 157 -391 295 -848 700
-568 504 -833 712 -1139 895 -332 199 -690 325 -1028 362 -108 12 -349 11
-460 -2z"/>
</g>
</svg>
