<?xml version="1.0" standalone="no"?>
<!DOCTYPE svg PUBLIC "-//W3C//DTD SVG 20010904//EN"
 "http://www.w3.org/TR/2001/REC-SVG-20010904/DTD/svg10.dtd">
<svg version="1.0" xmlns="http://www.w3.org/2000/svg"
 width="1107.000000pt" height="1088.000000pt" viewBox="0 0 1107.000000 1088.000000"
 preserveAspectRatio="xMidYMid meet">
<metadata>
Created by potrace 1.16, written by Peter Selinger 2001-2019
</metadata>
<g transform="translate(0.000000,1088.000000) scale(0.100000,-0.100000)"
fill="#000000" stroke="none">
<path d="M10650 10855 c-245 -61 -574 -229 -782 -398 l-58 -47 -3210 0 c-2813
0 -3229 -2 -3356 -15 -448 -47 -908 -191 -1379 -430 -958 -486 -1641 -1198
-1816 -1892 -31 -124 -57 -356 -45 -414 16 -88 73 -119 220 -119 168 0 348 54
593 179 409 208 723 510 723 697 0 96 22 258 47 343 47 165 146 339 261 463
67 71 113 96 236 128 148 37 250 40 1649 40 l1359 0 -74 -79 c-144 -155 -51
178 -917 -3289 -425 -1698 -796 -3177 -826 -3287 -203 -749 -490 -1555 -815
-2283 -61 -138 -114 -269 -117 -290 -12 -91 70 -162 188 -162 308 0 825 245
1130 537 146 140 163 168 336 563 283 646 531 1330 730 2010 36 124 406 1586
822 3250 l757 3025 1335 5 c1452 6 1405 5 1705 65 649 131 1349 567 1614 1006
85 140 123 302 84 358 -46 65 -214 81 -394 36z"/>
</g>
</svg>
