<?xml version="1.0" standalone="no"?>
<!DOCTYPE svg PUBLIC "-//W3C//DTD SVG 20010904//EN"
 "http://www.w3.org/TR/2001/REC-SVG-20010904/DTD/svg10.dtd">
<svg version="1.0" xmlns="http://www.w3.org/2000/svg"
 width="768.000000pt" height="859.000000pt" viewBox="0 0 768.000000 859.000000"
 preserveAspectRatio="xMidYMid meet">
<metadata>
Created by potrace 1.16, written by Peter Selinger 2001-2019
</metadata>
<g transform="translate(0.000000,859.000000) scale(0.100000,-0.100000)"
fill="#000000" stroke="none">
<path d="M3749 8577 c-56 -21 -104 -54 -132 -90 -13 -18 -831 -1854 -1817
-4080 -1415 -3197 -1793 -4059 -1797 -4101 -17 -161 115 -306 277 -306 65 0
130 25 181 68 33 29 55 63 99 157 31 66 781 1757 1666 3757 1493 3374 1610
3635 1621 3610 62 -147 3272 -7391 3294 -7433 89 -178 306 -213 446 -74 62 63
89 136 80 221 -4 42 -382 904 -1797 4101 -986 2226 -1805 4064 -1821 4084 -62
78 -208 120 -300 86z"/>
</g>
</svg>
