<?xml version="1.0" standalone="no"?>
<!DOCTYPE svg PUBLIC "-//W3C//DTD SVG 20010904//EN"
 "http://www.w3.org/TR/2001/REC-SVG-20010904/DTD/svg10.dtd">
<svg version="1.0" xmlns="http://www.w3.org/2000/svg"
 width="922.000000pt" height="626.000000pt" viewBox="0 0 922.000000 626.000000"
 preserveAspectRatio="xMidYMid meet">
<metadata>
Created by potrace 1.16, written by Peter Selinger 2001-2019
</metadata>
<g transform="translate(0.000000,626.000000) scale(0.100000,-0.100000)"
fill="#000000" stroke="none">
<path d="M2315 6254 c-983 -102 -1765 -811 -2128 -1929 -193 -595 -238 -1266
-126 -1895 80 -453 256 -922 481 -1280 143 -226 367 -486 559 -645 387 -324
884 -505 1386 -505 594 0 1175 199 1694 578 462 339 898 848 1245 1455 43 75
82 137 85 137 4 0 70 -98 147 -218 303 -469 519 -738 824 -1025 535 -505 1131
-808 1773 -903 146 -21 428 -29 570 -15 113 11 263 38 348 61 l37 11 0 351 0
351 -37 -7 c-275 -46 -557 -27 -807 55 -120 40 -349 152 -461 228 -362 242
-720 626 -1087 1166 -132 194 -750 1156 -755 1175 -9 36 244 509 404 755 570
873 1242 1376 2013 1506 216 36 542 33 708 -8 l22 -5 0 270 0 270 -76 17
c-152 34 -252 46 -414 52 -615 22 -1227 -177 -1771 -575 -462 -339 -898 -848
-1245 -1455 -43 -75 -82 -137 -85 -137 -4 0 -70 98 -147 218 -303 469 -519
738 -824 1025 -535 505 -1127 806 -1773 903 -96 15 -476 27 -560 18z m249
-774 c59 -11 149 -35 200 -51 120 -40 349 -152 461 -228 362 -242 720 -626
1087 -1166 132 -194 750 -1156 755 -1175 9 -36 -244 -509 -404 -755 -570 -873
-1241 -1375 -2013 -1506 -194 -33 -518 -33 -667 -1 -264 57 -493 180 -697 373
-404 382 -660 970 -752 1729 -27 220 -25 641 4 857 50 375 145 690 293 980
264 517 683 865 1139 947 130 23 143 24 320 21 118 -2 196 -9 274 -25z"/>
</g>
</svg>
