<?xml version="1.0" standalone="no"?>
<!DOCTYPE svg PUBLIC "-//W3C//DTD SVG 20010904//EN"
 "http://www.w3.org/TR/2001/REC-SVG-20010904/DTD/svg10.dtd">
<svg version="1.0" xmlns="http://www.w3.org/2000/svg"
 width="922.000000pt" height="648.000000pt" viewBox="0 0 922.000000 648.000000"
 preserveAspectRatio="xMidYMid meet">
<metadata>
Created by potrace 1.16, written by Peter Selinger 2001-2019
</metadata>
<g transform="translate(0.000000,648.000000) scale(0.100000,-0.100000)"
fill="#000000" stroke="none">
<path d="M180 6463 c-66 -24 -144 -107 -164 -173 -28 -94 -14 -187 39 -255 50
-66 483 -400 785 -606 1475 -1007 2953 -1425 4420 -1248 1247 149 2525 736
3747 1721 136 110 168 146 189 214 32 106 8 202 -70 279 -64 64 -131 90 -216
82 -76 -7 -123 -32 -265 -146 -1333 -1072 -2717 -1631 -4040 -1631 -1323 0
-2707 559 -4040 1631 -67 53 -141 107 -165 119 -59 30 -158 36 -220 13z"/>
<path d="M4250 2329 c-1355 -94 -2727 -688 -4047 -1751 -136 -110 -168 -146
-189 -214 -32 -106 -8 -202 70 -279 64 -64 131 -90 216 -82 76 7 123 32 265
146 1333 1072 2717 1631 4040 1631 1323 0 2707 -559 4040 -1631 142 -114 189
-139 265 -146 158 -15 300 117 300 277 0 53 -24 125 -55 165 -50 66 -483 400
-785 606 -1263 863 -2540 1296 -3793 1288 -117 -1 -264 -5 -327 -10z"/>
</g>
</svg>
