<?xml version="1.0" standalone="no"?>
<!DOCTYPE svg PUBLIC "-//W3C//DTD SVG 20010904//EN"
 "http://www.w3.org/TR/2001/REC-SVG-20010904/DTD/svg10.dtd">
<svg version="1.0" xmlns="http://www.w3.org/2000/svg"
 width="1335.000000pt" height="971.000000pt" viewBox="0 0 1335.000000 971.000000"
 preserveAspectRatio="xMidYMid meet">
<metadata>
Created by potrace 1.16, written by Peter Selinger 2001-2019
</metadata>
<g transform="translate(0.000000,971.000000) scale(0.100000,-0.100000)"
fill="#000000" stroke="none">
<path d="M745 9699 c-266 -65 -567 -255 -684 -430 -51 -77 -66 -128 -51 -175
18 -53 62 -70 200 -78 462 -25 811 -197 1099 -541 411 -493 656 -1289 741
-2410 80 -1067 -5 -2460 -245 -4020 -90 -585 -219 -1276 -269 -1441 -62 -205
-82 -395 -52 -498 23 -79 55 -110 106 -103 62 8 111 51 264 232 1981 2346
3761 4999 5205 7760 74 142 132 243 135 235 33 -88 213 -713 301 -1045 567
-2129 870 -4301 935 -6690 5 -198 14 -377 20 -397 26 -92 86 -120 164 -75 85
48 609 653 1118 1292 2098 2634 3366 4958 3584 6570 23 166 26 594 5 735 -44
307 -141 556 -290 742 -94 118 -194 197 -334 264 -138 65 -373 103 -460 75
-200 -66 -467 -645 -467 -1013 0 -118 10 -165 45 -206 22 -27 31 -29 112 -35
444 -32 730 -334 784 -826 23 -215 -3 -404 -97 -694 -364 -1119 -1423 -2822
-2918 -4691 -215 -268 -272 -334 -277 -320 -4 11 -12 114 -19 229 -23 445 -84
1138 -146 1655 -201 1703 -543 3330 -1030 4910 -125 404 -304 932 -322 954
-36 40 -71 49 -166 43 -307 -17 -767 -317 -826 -539 -10 -36 -7 -52 29 -161
l41 -121 -126 -245 c-697 -1357 -1640 -2922 -2569 -4261 -457 -658 -1037
-1449 -1418 -1930 -57 -71 -59 -73 -53 -40 15 87 58 387 90 625 244 1821 260
3382 45 4470 -219 1105 -665 1797 -1335 2069 -231 94 -388 126 -649 131 -100
3 -198 0 -220 -6z"/>
</g>
</svg>
