<?xml version="1.0" standalone="no"?>
<!DOCTYPE svg PUBLIC "-//W3C//DTD SVG 20010904//EN"
 "http://www.w3.org/TR/2001/REC-SVG-20010904/DTD/svg10.dtd">
<svg version="1.0" xmlns="http://www.w3.org/2000/svg"
 width="885.000000pt" height="602.000000pt" viewBox="0 0 885.000000 602.000000"
 preserveAspectRatio="xMidYMid meet">
<metadata>
Created by potrace 1.16, written by Peter Selinger 2001-2019
</metadata>
<g transform="translate(0.000000,602.000000) scale(0.100000,-0.100000)"
fill="#000000" stroke="none">
<path d="M2095 6008 c-341 -38 -705 -188 -983 -406 -599 -466 -986 -1240
-1093 -2182 -21 -178 -18 -680 4 -860 60 -481 176 -880 368 -1260 384 -761
981 -1213 1704 -1291 134 -14 428 -6 570 16 504 78 948 278 1380 621 149 118
477 449 603 610 213 269 370 505 542 817 l93 168 61 -96 c402 -633 601 -892
927 -1210 299 -292 568 -486 904 -650 329 -161 614 -243 960 -276 214 -20 504
-2 668 42 l37 10 0 280 0 281 -22 -5 c-73 -18 -228 -29 -348 -24 -702 30
-1302 485 -1987 1509 -147 220 -740 1140 -748 1161 -7 16 101 246 200 427 678
1249 1552 1902 2550 1903 130 0 251 -11 333 -30 l22 -5 0 205 0 205 -50 11
c-142 31 -207 36 -425 36 -167 -1 -260 -6 -340 -18 -432 -68 -790 -209 -1155
-452 -198 -133 -331 -244 -540 -454 -329 -330 -578 -669 -840 -1144 l-93 -168
-61 96 c-402 633 -601 892 -927 1210 -299 292 -568 486 -904 650 -257 126
-480 201 -730 245 -223 39 -486 50 -680 28z m358 -608 c597 -117 1139 -577
1744 -1482 147 -220 740 -1140 748 -1161 11 -26 -183 -410 -333 -662 -539
-903 -1232 -1474 -1972 -1624 -234 -47 -518 -58 -705 -27 -628 104 -1133 605
-1406 1396 -77 221 -131 467 -165 750 -13 106 -18 217 -18 415 0 295 12 416
64 675 168 834 656 1477 1276 1679 76 24 184 47 309 65 77 11 354 -3 458 -24z"/>
</g>
</svg>
