<?xml version="1.0" standalone="no"?>
<!DOCTYPE svg PUBLIC "-//W3C//DTD SVG 20010904//EN"
 "http://www.w3.org/TR/2001/REC-SVG-20010904/DTD/svg10.dtd">
<svg version="1.0" xmlns="http://www.w3.org/2000/svg"
 width="1065.000000pt" height="992.000000pt" viewBox="0 0 1065.000000 992.000000"
 preserveAspectRatio="xMidYMid meet">
<metadata>
Created by potrace 1.16, written by Peter Selinger 2001-2019
</metadata>
<g transform="translate(0.000000,992.000000) scale(0.100000,-0.100000)"
fill="#000000" stroke="none">
<path d="M5223 9903 c-106 -37 80 298 -2634 -4743 -1376 -2555 -2519 -4681
-2542 -4725 -38 -73 -41 -87 -41 -155 -1 -116 49 -196 154 -251 l45 -24 5100
-3 c4725 -2 5103 -1 5149 14 72 24 149 104 170 174 19 62 20 110 6 162 -6 21
-1151 2156 -2545 4745 -2762 5131 -2562 4770 -2672 4807 -57 20 -134 19 -190
-1z m2384 -5101 l2281 -4237 -2284 -3 c-1256 -1 -3312 -1 -4568 0 l-2284 3
2281 4237 c1255 2331 2284 4238 2287 4238 3 0 1032 -1907 2287 -4238z"/>
</g>
</svg>
