<?xml version="1.0" standalone="no"?>
<!DOCTYPE svg PUBLIC "-//W3C//DTD SVG 20010904//EN"
 "http://www.w3.org/TR/2001/REC-SVG-20010904/DTD/svg10.dtd">
<svg version="1.0" xmlns="http://www.w3.org/2000/svg"
 width="95.000000pt" height="518.000000pt" viewBox="0 0 95.000000 518.000000"
 preserveAspectRatio="xMidYMid meet">
<metadata>
Created by potrace 1.16, written by Peter Selinger 2001-2019
</metadata>
<g transform="translate(0.000000,518.000000) scale(0.100000,-0.100000)"
fill="#000000" stroke="none">
<path d="M208 5166 c-95 -26 -173 -104 -198 -197 -7 -24 -9 -874 -8 -2400 l3
-2364 22 -41 c56 -105 141 -158 253 -158 112 0 197 53 253 158 l22 41 3 1053
2 1052 75 0 c180 0 305 114 305 280 0 166 -125 280 -305 280 l-75 0 -2 1053
-3 1052 -22 41 c-35 65 -70 101 -126 128 -65 31 -138 40 -199 22z"/>
</g>
</svg>
