<?xml version="1.0" standalone="no"?>
<!DOCTYPE svg PUBLIC "-//W3C//DTD SVG 20010904//EN"
 "http://www.w3.org/TR/2001/REC-SVG-20010904/DTD/svg10.dtd">
<svg version="1.0" xmlns="http://www.w3.org/2000/svg"
 width="1240.000000pt" height="730.000000pt" viewBox="0 0 1240.000000 730.000000"
 preserveAspectRatio="xMidYMid meet">
<metadata>
Created by potrace 1.16, written by Peter Selinger 2001-2019
</metadata>
<g transform="translate(0.000000,730.000000) scale(0.100000,-0.100000)"
fill="#000000" stroke="none">
<path d="M3645 7282 c-46 -29 -61 -50 -94 -135 -53 -132 -176 -392 -260 -548
-556 -1029 -1357 -1846 -2376 -2424 -176 -100 -497 -255 -680 -328 -108 -44
-170 -75 -192 -96 -57 -54 -57 -148 0 -202 22 -21 84 -52 192 -96 183 -73 504
-228 680 -328 1019 -578 1820 -1395 2376 -2424 84 -156 208 -417 260 -548 32
-83 64 -124 109 -143 18 -7 85 -10 194 -8 l167 3 39 41 c60 65 60 91 5 231
-60 150 -250 542 -351 721 -193 342 -423 680 -661 970 -51 62 -93 114 -93 117
0 3 1456 5 3235 5 1779 0 3235 -2 3235 -5 0 -3 -42 -55 -93 -117 -238 -290
-468 -628 -661 -970 -101 -179 -291 -571 -351 -721 -55 -140 -55 -166 5 -231
l39 -41 167 -3 c109 -2 176 1 194 8 45 19 77 60 109 143 52 131 176 392 260
548 556 1029 1357 1846 2376 2424 176 100 497 255 680 328 108 44 170 75 192
96 57 54 57 148 0 202 -22 21 -84 52 -192 96 -183 73 -504 228 -680 328 -1019
578 -1820 1395 -2376 2424 -84 156 -208 417 -260 548 -32 83 -64 124 -109 143
-18 7 -85 10 -194 8 l-167 -3 -39 -41 c-60 -65 -60 -91 -5 -231 60 -150 250
-542 351 -721 193 -342 423 -680 661 -970 51 -62 93 -114 93 -117 0 -3 -1456
-5 -3235 -5 -1779 0 -3235 2 -3235 5 0 3 42 55 93 117 238 290 468 628 661
970 101 179 291 571 351 721 55 140 55 166 -5 231 l-39 41 -173 3 c-155 2
-176 1 -203 -16z m6400 -2694 c374 -338 836 -669 1262 -904 29 -16 53 -31 53
-34 0 -3 -24 -18 -53 -34 -426 -235 -888 -566 -1262 -904 l-90 -82 -3760 0
-3760 0 -90 82 c-374 338 -836 669 -1262 904 -29 16 -53 31 -53 34 0 3 24 18
53 34 426 235 888 566 1262 904 l90 82 3760 0 3760 0 90 -82z"/>
</g>
</svg>
