<?xml version="1.0" standalone="no"?>
<!DOCTYPE svg PUBLIC "-//W3C//DTD SVG 20010904//EN"
 "http://www.w3.org/TR/2001/REC-SVG-20010904/DTD/svg10.dtd">
<svg version="1.0" xmlns="http://www.w3.org/2000/svg"
 width="884.000000pt" height="991.000000pt" viewBox="0 0 884.000000 991.000000"
 preserveAspectRatio="xMidYMid meet">
<metadata>
Created by potrace 1.16, written by Peter Selinger 2001-2019
</metadata>
<g transform="translate(0.000000,991.000000) scale(0.100000,-0.100000)"
fill="#000000" stroke="none">
<path d="M2570 9899 c-149 -14 -371 -57 -535 -104 -658 -188 -1218 -594 -1592
-1153 -214 -319 -370 -736 -425 -1132 -19 -144 -17 -537 5 -680 41 -268 119
-515 237 -755 168 -341 396 -628 700 -882 533 -446 1239 -711 1970 -740 178
-7 215 2 250 59 18 29 20 50 20 193 0 237 -10 248 -244 259 -828 37 -1562 434
-1990 1075 -550 822 -433 1945 279 2680 186 192 380 333 620 451 218 108 437
175 690 211 138 20 441 18 545 -4 345 -72 616 -240 965 -598 146 -150 247
-266 581 -670 505 -610 809 -880 1231 -1096 273 -140 508 -218 813 -268 133
-22 443 -30 630 -16 594 45 1025 200 1271 459 119 124 188 256 223 425 31 149
16 239 -46 277 -30 18 -50 20 -248 20 -198 0 -218 -2 -248 -20 -41 -25 -57
-64 -66 -155 -29 -311 -431 -497 -1081 -499 l-170 -1 -65 35 c-83 45 -181 143
-305 305 -141 184 -281 358 -419 520 -159 185 -606 633 -776 775 -738 621
-1494 963 -2275 1030 -140 12 -409 11 -545 -1z"/>
<path d="M6763 6094 c-806 -97 -1461 -595 -1648 -1253 -39 -138 -55 -253 -55
-403 0 -209 35 -352 133 -540 112 -217 284 -407 682 -753 433 -375 590 -556
679 -779 44 -109 59 -197 58 -341 -4 -620 -384 -1172 -1027 -1493 -165 -82
-389 -163 -516 -187 -68 -12 -337 99 -550 227 -269 162 -535 379 -980 800
-283 268 -387 364 -510 474 -463 412 -890 668 -1289 773 -248 65 -223 64 -960
68 -664 4 -676 3 -708 -17 -63 -39 -72 -67 -72 -235 0 -127 3 -156 18 -184 26
-47 74 -71 145 -71 267 0 601 -88 892 -235 301 -152 580 -349 1080 -766 489
-407 659 -539 897 -697 378 -250 709 -389 1088 -458 83 -16 186 -18 800 -22
739 -4 882 1 1095 39 822 147 1477 602 1776 1234 168 355 220 773 133 1072
-95 328 -270 549 -799 1009 -354 308 -505 468 -601 640 -96 171 -119 283 -111
534 13 439 125 777 312 949 125 113 257 140 517 106 414 -55 753 -263 893
-548 42 -86 61 -161 73 -283 16 -165 33 -174 314 -174 229 0 255 6 291 71 16
29 18 48 13 139 -15 294 -147 576 -376 800 -387 380 -1057 581 -1687 504z"/>
</g>
</svg>
