<?xml version="1.0" standalone="no"?>
<!DOCTYPE svg PUBLIC "-//W3C//DTD SVG 20010904//EN"
 "http://www.w3.org/TR/2001/REC-SVG-20010904/DTD/svg10.dtd">
<svg version="1.0" xmlns="http://www.w3.org/2000/svg"
 width="476.000000pt" height="1328.000000pt" viewBox="0 0 476.000000 1328.000000"
 preserveAspectRatio="xMidYMid meet">
<metadata>
Created by potrace 1.16, written by Peter Selinger 2001-2019
</metadata>
<g transform="translate(0.000000,1328.000000) scale(0.100000,-0.100000)"
fill="#000000" stroke="none">
<path d="M4205 13269 c-616 -46 -1184 -221 -1585 -490 -376 -253 -586 -548
-686 -969 -17 -70 -18 -192 -24 -1885 -6 -1795 -6 -1811 -27 -1900 -65 -278
-192 -497 -412 -707 -183 -175 -408 -310 -666 -397 -190 -64 -461 -111 -642
-111 -119 0 -163 -45 -163 -170 0 -125 44 -170 163 -170 181 0 452 -47 642
-111 258 -87 483 -222 666 -397 220 -210 347 -429 412 -707 21 -89 21 -105 27
-1900 6 -1693 7 -1815 24 -1885 100 -421 310 -716 686 -969 469 -315 1172
-501 1890 -501 162 0 194 10 225 69 23 45 20 167 -5 208 -30 49 -61 60 -202
66 -444 22 -835 154 -1153 389 -213 158 -397 406 -474 638 -59 180 -55 40 -61
2010 l-6 1805 -22 97 c-96 420 -337 747 -744 1012 -176 115 -455 240 -686 308
-61 18 -112 35 -112 38 0 3 51 20 112 38 231 68 510 193 686 308 407 265 648
592 744 1012 l22 97 6 1805 c5 1652 7 1811 23 1875 62 253 167 444 346 624
321 324 781 512 1319 538 78 3 138 11 155 20 48 24 67 68 67 153 0 57 -5 83
-20 107 -34 57 -59 63 -247 62 -92 -1 -217 -5 -278 -10z"/>
</g>
</svg>
