<?xml version="1.0" standalone="no"?>
<!DOCTYPE svg PUBLIC "-//W3C//DTD SVG 20010904//EN"
 "http://www.w3.org/TR/2001/REC-SVG-20010904/DTD/svg10.dtd">
<svg version="1.0" xmlns="http://www.w3.org/2000/svg"
 width="958.000000pt" height="968.000000pt" viewBox="0 0 958.000000 968.000000"
 preserveAspectRatio="xMidYMid meet">
<metadata>
Created by potrace 1.16, written by Peter Selinger 2001-2019
</metadata>
<g transform="translate(0.000000,968.000000) scale(0.100000,-0.100000)"
fill="#000000" stroke="none">
<path d="M4290 9664 c-210 -45 -548 -223 -1025 -539 -482 -320 -862 -631
-1275 -1045 -413 -412 -726 -797 -1011 -1240 -344 -536 -630 -1178 -778 -1751
-191 -732 -247 -1499 -160 -2179 90 -712 340 -1338 730 -1831 114 -145 352
-378 494 -485 416 -312 887 -500 1425 -569 171 -22 567 -30 765 -16 865 63
1771 369 2655 899 962 576 1789 1363 2395 2277 261 394 489 838 656 1278 189
497 324 1100 386 1717 24 246 24 850 0 1068 -35 306 -89 575 -163 803 -297
921 -902 1469 -1774 1606 -178 27 -617 25 -798 -5 -372 -61 -693 -165 -1047
-338 -486 -237 -890 -528 -1296 -934 -345 -345 -618 -699 -889 -1155 -160
-269 -457 -877 -492 -1008 -16 -60 -2 -89 54 -118 41 -21 48 -22 134 -11 176
22 399 115 607 252 109 72 264 210 310 277 14 21 69 135 122 253 207 464 458
903 698 1219 255 337 537 607 732 704 287 143 731 153 1176 28 677 -191 1176
-803 1373 -1684 74 -328 101 -600 100 -1002 0 -530 -62 -1007 -200 -1550 -206
-808 -604 -1588 -1143 -2240 -583 -705 -1235 -1178 -1934 -1404 -361 -117
-675 -166 -1062 -165 -327 1 -569 34 -861 118 -770 222 -1385 801 -1724 1627
-354 861 -394 1964 -109 3058 201 776 604 1552 1139 2196 446 536 939 955
1508 1280 239 136 379 243 472 360 75 94 97 164 69 217 -25 47 -130 60 -259
32z"/>
</g>
</svg>
