<?xml version="1.0" standalone="no"?>
<!DOCTYPE svg PUBLIC "-//W3C//DTD SVG 20010904//EN"
 "http://www.w3.org/TR/2001/REC-SVG-20010904/DTD/svg10.dtd">
<svg version="1.0" xmlns="http://www.w3.org/2000/svg"
 width="896.000000pt" height="1105.000000pt" viewBox="0 0 896.000000 1105.000000"
 preserveAspectRatio="xMidYMid meet">
<metadata>
Created by potrace 1.16, written by Peter Selinger 2001-2019
</metadata>
<g transform="translate(0.000000,1105.000000) scale(0.100000,-0.100000)"
fill="#000000" stroke="none">
<path d="M5545 11039 c-1015 -83 -2128 -536 -3090 -1259 -627 -472 -1168
-1039 -1576 -1655 -291 -437 -545 -969 -689 -1440 -219 -713 -249 -1417 -86
-2006 115 -418 300 -745 580 -1025 358 -358 821 -568 1356 -615 180 -16 529
-6 730 21 581 77 1198 282 1761 585 278 150 390 228 518 360 101 105 131 154
131 219 0 37 -5 48 -30 70 -41 34 -82 40 -176 26 -148 -22 -313 -87 -523 -203
-257 -144 -583 -249 -911 -293 -174 -24 -496 -24 -649 -1 -357 56 -628 164
-884 354 -625 465 -932 1346 -807 2315 182 1418 1209 2904 2403 3478 719 346
1564 403 2288 155 316 -108 672 -340 906 -589 470 -502 743 -1194 803 -2041
52 -733 -105 -1597 -425 -2330 -434 -997 -1244 -1921 -2140 -2440 -151 -88
-402 -208 -570 -274 -717 -282 -1522 -391 -2897 -391 -254 0 -353 -4 -405 -14
-325 -69 -774 -361 -883 -576 -24 -47 -26 -107 -5 -137 23 -33 65 -41 255 -48
610 -22 1221 -147 2030 -415 129 -42 440 -150 690 -238 1192 -419 1681 -545
2385 -614 200 -19 695 -17 823 5 432 71 838 224 1252 470 268 160 472 318 686
532 270 269 434 521 530 814 34 104 32 152 -6 185 -41 34 -82 40 -176 26 -318
-48 -766 -317 -915 -549 -16 -24 -42 -86 -59 -138 -55 -171 -146 -328 -256
-440 -69 -71 -112 -93 -240 -125 -78 -20 -115 -22 -304 -22 -477 0 -985 81
-1605 256 -297 83 -1735 571 -1735 588 0 3 94 35 208 73 617 201 1264 519
1860 915 947 628 1741 1443 2277 2337 147 244 330 618 432 880 316 811 439
1747 337 2558 -54 427 -189 873 -368 1212 -450 852 -1226 1361 -2201 1445
-138 11 -483 11 -630 -1z"/>
</g>
</svg>
