<?xml version="1.0" standalone="no"?>
<!DOCTYPE svg PUBLIC "-//W3C//DTD SVG 20010904//EN"
 "http://www.w3.org/TR/2001/REC-SVG-20010904/DTD/svg10.dtd">
<svg version="1.0" xmlns="http://www.w3.org/2000/svg"
 width="846.000000pt" height="802.000000pt" viewBox="0 0 846.000000 802.000000"
 preserveAspectRatio="xMidYMid meet">
<metadata>
Created by potrace 1.16, written by Peter Selinger 2001-2019
</metadata>
<g transform="translate(0.000000,802.000000) scale(0.100000,-0.100000)"
fill="#000000" stroke="none">
<path d="M180 8003 c-66 -24 -144 -107 -164 -173 -21 -70 -20 -117 4 -278 98
-657 340 -1221 736 -1717 120 -150 400 -428 564 -558 621 -496 1418 -860 2445
-1116 210 -52 479 -112 603 -133 39 -6 72 -15 72 -18 0 -3 -33 -12 -72 -18
-124 -21 -393 -81 -603 -133 -1027 -256 -1824 -620 -2445 -1116 -164 -130
-444 -408 -564 -558 -190 -238 -368 -534 -484 -805 -108 -252 -207 -608 -252
-910 -34 -231 -23 -298 63 -385 109 -108 267 -114 381 -14 66 58 82 101 110
296 71 490 212 873 455 1240 324 491 829 908 1476 1219 1208 581 2891 869
5250 900 533 7 528 6 611 89 112 112 112 278 0 390 -83 83 -78 82 -611 89
-487 7 -787 17 -1210 42 -2884 168 -4709 855 -5516 2077 -243 367 -384 750
-454 1237 -33 228 -62 284 -175 340 -59 30 -158 36 -220 13z"/>
</g>
</svg>
