<?xml version="1.0" standalone="no"?>
<!DOCTYPE svg PUBLIC "-//W3C//DTD SVG 20010904//EN"
 "http://www.w3.org/TR/2001/REC-SVG-20010904/DTD/svg10.dtd">
<svg version="1.0" xmlns="http://www.w3.org/2000/svg"
 width="772.000000pt" height="1143.000000pt" viewBox="0 0 772.000000 1143.000000"
 preserveAspectRatio="xMidYMid meet">
<metadata>
Created by potrace 1.16, written by Peter Selinger 2001-2019
</metadata>
<g transform="translate(0.000000,1143.000000) scale(0.100000,-0.100000)"
fill="#000000" stroke="none">
<path d="M5580 11419 c-973 -69 -1946 -409 -2820 -984 -719 -473 -1287 -1036
-1743 -1730 -145 -221 -251 -410 -383 -680 -331 -680 -541 -1416 -616 -2160
-20 -199 -17 -742 6 -930 82 -703 317 -1263 697 -1669 319 -340 766 -568 1264
-643 96 -14 180 -18 420 -17 272 0 316 3 470 26 768 117 1566 470 2279 1006
82 62 151 111 153 109 2 -2 -26 -94 -62 -203 -390 -1174 -817 -1998 -1269
-2449 -143 -142 -192 -174 -308 -204 -327 -84 -979 -26 -1521 135 -258 77
-554 204 -749 322 -93 56 -112 62 -186 62 -129 -1 -271 -41 -462 -132 -281
-133 -534 -340 -615 -502 -26 -52 -33 -123 -15 -156 24 -45 394 -237 655 -339
464 -182 914 -267 1480 -278 224 -4 309 -2 425 11 724 83 1465 435 2089 991
579 517 1039 1232 1450 2252 235 585 458 1285 711 2233 120 449 300 1177 300
1212 0 44 -22 73 -73 99 -36 19 -52 21 -122 15 -279 -21 -682 -224 -919 -462
-109 -110 -141 -166 -187 -332 -161 -585 -451 -1144 -842 -1625 -119 -147
-375 -403 -507 -507 -300 -238 -575 -360 -936 -417 -149 -23 -429 -23 -589 1
-446 66 -777 226 -1070 520 -375 376 -599 904 -681 1601 -25 209 -25 665 0
900 71 680 270 1368 576 1990 409 831 972 1457 1585 1763 385 192 799 291
1348 324 398 24 816 -29 1219 -153 149 -45 241 -115 313 -234 57 -96 79 -181
80 -310 0 -147 -20 -220 -110 -402 -160 -326 -351 -622 -617 -956 -95 -119
-117 -164 -118 -233 0 -53 15 -76 67 -103 28 -14 166 -14 235 0 254 51 586
231 792 428 164 158 494 614 696 961 105 181 246 468 280 569 71 211 79 433
21 611 -69 214 -196 356 -407 456 -209 98 -603 186 -958 214 -148 12 -557 11
-726 -1z"/>
</g>
</svg>
