<?xml version="1.0" standalone="no"?>
<!DOCTYPE svg PUBLIC "-//W3C//DTD SVG 20010904//EN"
 "http://www.w3.org/TR/2001/REC-SVG-20010904/DTD/svg10.dtd">
<svg version="1.0" xmlns="http://www.w3.org/2000/svg"
 width="502.000000pt" height="1384.000000pt" viewBox="0 0 502.000000 1384.000000"
 preserveAspectRatio="xMidYMid meet">
<metadata>
Created by potrace 1.16, written by Peter Selinger 2001-2019
</metadata>
<g transform="translate(0.000000,1384.000000) scale(0.100000,-0.100000)"
fill="#000000" stroke="none">
<path d="M4395 13829 c-578 -43 -1129 -197 -1524 -426 -161 -93 -275 -178
-398 -297 -248 -238 -362 -442 -450 -802 -16 -63 -18 -236 -23 -1944 l-6
-1875 -22 -97 c-101 -440 -399 -802 -851 -1032 -267 -136 -552 -209 -878 -225
-166 -8 -188 -15 -223 -74 -29 -47 -29 -227 0 -274 35 -59 57 -66 223 -74 326
-16 611 -89 878 -225 452 -230 750 -592 851 -1032 l22 -97 6 -1875 c5 -1708 7
-1881 23 -1944 88 -360 202 -564 450 -802 123 -119 237 -204 398 -297 478
-277 1158 -437 1859 -437 151 0 180 3 209 18 56 30 71 71 71 187 0 175 -26
198 -237 208 -824 40 -1494 445 -1691 1022 -60 176 -55 33 -62 2080 -6 1864
-6 1870 -27 1963 -107 465 -366 812 -818 1097 -179 113 -499 253 -723 316 -45
13 -82 26 -82 29 0 3 37 16 82 29 224 63 544 203 723 316 452 285 711 632 818
1097 21 93 21 99 27 1963 7 2047 2 1904 62 2080 197 577 867 982 1691 1022
211 10 237 33 237 208 0 116 -15 157 -71 187 -30 16 -57 18 -234 17 -110 -1
-249 -6 -310 -10z"/>
</g>
</svg>
