<?xml version="1.0" standalone="no"?>
<!DOCTYPE svg PUBLIC "-//W3C//DTD SVG 20010904//EN"
 "http://www.w3.org/TR/2001/REC-SVG-20010904/DTD/svg10.dtd">
<svg version="1.0" xmlns="http://www.w3.org/2000/svg"
 width="512.000000pt" height="596.000000pt" viewBox="0 0 512.000000 596.000000"
 preserveAspectRatio="xMidYMid meet">
<metadata>
Created by potrace 1.16, written by Peter Selinger 2001-2019
</metadata>
<g transform="translate(0.000000,596.000000) scale(0.100000,-0.100000)"
fill="#000000" stroke="none">
<path d="M2443 5945 c-29 -8 -72 -24 -95 -36 -56 -28 -139 -113 -166 -170 -47
-98 -48 -72 57 -1259 53 -608 96 -1106 95 -1108 -1 -2 -392 281 -870 629 -478
347 -889 641 -914 652 -34 16 -67 21 -135 21 -81 1 -97 -2 -158 -31 -219 -104
-319 -363 -218 -568 59 -119 31 -104 1104 -620 538 -258 977 -472 977 -475 0
-3 -439 -217 -977 -475 -1073 -516 -1045 -501 -1104 -620 -101 -205 -1 -464
218 -568 61 -29 77 -32 158 -31 68 0 101 5 135 21 25 11 436 305 914 652 478
348 869 631 870 629 1 -2 -42 -500 -95 -1108 -105 -1187 -104 -1161 -57 -1259
27 -56 110 -142 166 -170 129 -66 285 -66 414 0 56 28 139 114 166 170 47 98
48 72 -57 1259 -53 608 -96 1106 -95 1108 1 2 392 -281 870 -629 478 -347 889
-641 914 -652 34 -16 67 -21 135 -21 81 -1 97 2 158 31 219 104 319 363 218
568 -59 119 -31 104 -1104 620 -538 258 -977 472 -977 475 0 3 439 217 977
475 1073 516 1045 501 1104 620 101 205 1 464 -218 568 -61 29 -77 32 -158 31
-68 0 -101 -5 -135 -21 -25 -11 -436 -305 -914 -652 -478 -348 -869 -631 -870
-629 -1 2 42 500 95 1108 105 1187 104 1161 57 1259 -27 56 -110 142 -166 170
-97 49 -218 63 -319 36z"/>
</g>
</svg>
