<?xml version="1.0" standalone="no"?>
<!DOCTYPE svg PUBLIC "-//W3C//DTD SVG 20010904//EN"
 "http://www.w3.org/TR/2001/REC-SVG-20010904/DTD/svg10.dtd">
<svg version="1.0" xmlns="http://www.w3.org/2000/svg"
 width="461.000000pt" height="1276.000000pt" viewBox="0 0 461.000000 1276.000000"
 preserveAspectRatio="xMidYMid meet">
<metadata>
Created by potrace 1.16, written by Peter Selinger 2001-2019
</metadata>
<g transform="translate(0.000000,1276.000000) scale(0.100000,-0.100000)"
fill="#000000" stroke="none">
<path d="M2170 12744 c-93 -24 -175 -72 -238 -138 -138 -143 -159 -261 -132
-719 22 -352 53 -621 155 -1317 94 -637 131 -957 151 -1294 l7 -119 -60 7
c-111 12 -342 64 -602 135 -458 125 -626 158 -856 168 -217 8 -322 -25 -441
-139 -205 -196 -205 -540 0 -736 119 -114 224 -147 441 -139 230 10 398 43
856 168 359 98 659 158 659 132 0 -6 -7 -79 -15 -164 -22 -218 -57 -441 -120
-775 -166 -868 -185 -1044 -185 -1669 1 -1760 99 -3919 264 -5788 25 -288 29
-301 89 -337 27 -17 51 -20 157 -20 106 0 130 3 157 20 60 36 64 49 89 337
165 1869 263 4028 264 5788 0 625 -19 801 -185 1669 -63 334 -98 557 -120 775
-8 85 -15 158 -15 164 0 26 300 -34 659 -132 458 -125 626 -158 856 -168 217
-8 322 25 441 139 205 196 205 540 0 736 -119 114 -224 147 -441 139 -230 -10
-398 -43 -856 -168 -260 -71 -491 -123 -602 -135 l-60 -7 7 119 c20 337 57
657 151 1294 102 696 133 965 155 1317 27 458 6 576 -132 719 -123 129 -323
184 -498 138z"/>
</g>
</svg>
