<?xml version="1.0" standalone="no"?>
<!DOCTYPE svg PUBLIC "-//W3C//DTD SVG 20010904//EN"
 "http://www.w3.org/TR/2001/REC-SVG-20010904/DTD/svg10.dtd">
<svg version="1.0" xmlns="http://www.w3.org/2000/svg"
 width="1134.000000pt" height="977.000000pt" viewBox="0 0 1134.000000 977.000000"
 preserveAspectRatio="xMidYMid meet">
<metadata>
Created by potrace 1.16, written by Peter Selinger 2001-2019
</metadata>
<g transform="translate(0.000000,977.000000) scale(0.100000,-0.100000)"
fill="#000000" stroke="none">
<path d="M4250 9759 c-1330 -87 -2577 -577 -3436 -1348 -365 -329 -629 -711
-757 -1097 -70 -212 -70 -242 3 -292 33 -22 42 -24 145 -20 96 4 126 10 234
47 308 103 630 317 767 508 42 59 60 98 99 218 95 296 253 534 453 685 299
226 967 407 1652 448 74 5 136 8 137 8 8 -4 -68 -736 -117 -1121 -317 -2513
-984 -4957 -2054 -7530 -63 -152 -60 -207 16 -246 179 -91 726 130 1026 416
119 113 149 159 233 360 1053 2519 1755 5116 2068 7655 22 179 43 358 47 398
l7 72 321 0 c1410 -1 2349 -145 2860 -439 131 -75 212 -136 307 -231 165 -165
267 -362 310 -600 20 -109 17 -380 -5 -513 -87 -531 -310 -979 -676 -1361
-193 -201 -395 -349 -659 -481 -424 -213 -923 -332 -1466 -351 -195 -6 -244
-14 -375 -56 -394 -126 -840 -486 -840 -678 0 -67 62 -120 142 -120 77 0 226
-37 302 -75 191 -94 399 -317 588 -630 159 -264 321 -607 608 -1290 319 -758
488 -1104 682 -1392 205 -307 414 -503 652 -613 144 -67 210 -81 393 -87 341
-11 692 48 1096 187 874 299 1701 903 2204 1609 93 131 112 172 113 238 0 45
-4 54 -31 77 -42 35 -64 39 -182 34 -120 -6 -242 -42 -404 -118 -275 -129
-484 -294 -620 -489 -187 -267 -392 -462 -589 -560 -224 -111 -557 -157 -751
-102 -203 57 -416 242 -612 531 -199 293 -375 653 -699 1425 -362 863 -550
1233 -773 1527 l-58 76 97 38 c860 331 1702 884 2235 1469 507 556 783 1091
899 1742 30 171 33 509 5 646 -98 483 -397 821 -937 1060 -504 222 -1143 332
-2150 367 -327 12 -2331 11 -2510 -1z"/>
</g>
</svg>
