<?xml version="1.0" standalone="no"?>
<!DOCTYPE svg PUBLIC "-//W3C//DTD SVG 20010904//EN"
 "http://www.w3.org/TR/2001/REC-SVG-20010904/DTD/svg10.dtd">
<svg version="1.0" xmlns="http://www.w3.org/2000/svg"
 width="998.000000pt" height="1008.000000pt" viewBox="0 0 998.000000 1008.000000"
 preserveAspectRatio="xMidYMid meet">
<metadata>
Created by potrace 1.16, written by Peter Selinger 2001-2019
</metadata>
<g transform="translate(0.000000,1008.000000) scale(0.100000,-0.100000)"
fill="#000000" stroke="none">
<path d="M4425 10063 c-230 -48 -526 -202 -1002 -519 -703 -468 -1318 -1020
-1855 -1664 -461 -553 -869 -1235 -1126 -1880 -370 -929 -519 -2023 -401
-2950 160 -1268 775 -2237 1719 -2709 492 -246 920 -341 1534 -341 551 0 1097
92 1666 280 1530 505 2955 1605 3873 2986 646 975 994 1978 1113 3209 22 227
25 814 6 1010 -80 790 -301 1395 -670 1836 -330 393 -800 650 -1342 734 -144
22 -532 31 -696 16 -607 -57 -1215 -287 -1814 -685 -292 -194 -513 -377 -780
-645 -455 -457 -826 -986 -1163 -1661 -180 -359 -287 -612 -287 -676 0 -62 27
-107 79 -134 81 -41 302 -22 471 41 308 115 617 332 747 527 21 31 72 136 113
232 289 677 669 1279 1050 1661 253 254 409 346 660 390 170 30 481 11 715
-43 605 -140 1042 -549 1309 -1224 281 -712 322 -1696 115 -2739 -203 -1018
-621 -1884 -1296 -2685 -133 -157 -462 -483 -613 -608 -692 -569 -1371 -840
-2198 -878 -457 -21 -1031 102 -1412 302 -747 394 -1272 1160 -1470 2149 -169
846 -93 1868 205 2760 263 789 692 1505 1280 2139 372 401 786 734 1260 1014
94 55 211 131 260 169 124 96 243 224 288 311 69 131 58 212 -38 264 -44 24
-60 27 -140 27 -49 0 -121 -7 -160 -16z"/>
</g>
</svg>
