<?xml version="1.0" standalone="no"?>
<!DOCTYPE svg PUBLIC "-//W3C//DTD SVG 20010904//EN"
 "http://www.w3.org/TR/2001/REC-SVG-20010904/DTD/svg10.dtd">
<svg version="1.0" xmlns="http://www.w3.org/2000/svg"
 width="838.000000pt" height="1028.000000pt" viewBox="0 0 838.000000 1028.000000"
 preserveAspectRatio="xMidYMid meet">
<metadata>
Created by potrace 1.16, written by Peter Selinger 2001-2019
</metadata>
<g transform="translate(0.000000,1028.000000) scale(0.100000,-0.100000)"
fill="#000000" stroke="none">
<path d="M191 10268 c-51 -14 -114 -61 -145 -108 -99 -150 -22 -361 149 -409
29 -8 1076 -11 3763 -11 l3722 0 0 -3310 0 -3310 -3742 -2 -3743 -3 -41 -22
c-64 -34 -130 -114 -144 -174 -31 -128 29 -256 145 -314 40 -20 82 -20 3955
-20 3873 0 3915 0 3955 20 50 25 105 80 130 130 20 40 20 81 20 3695 0 3614 0
3655 -20 3695 -25 50 -80 105 -130 130 -40 20 -84 20 -3940 22 -2542 1 -3912
-2 -3934 -9z"/>
<path d="M200 531 c-69 -21 -140 -82 -176 -151 -26 -50 -26 -171 1 -225 25
-50 80 -105 130 -130 40 -20 85 -20 4005 -23 2814 -2 3978 1 4009 8 96 24 173
105 194 206 24 115 -29 229 -133 288 l-55 31 -3975 2 c-2186 1 -3986 -2 -4000
-6z"/>
</g>
</svg>
