<?xml version="1.0" standalone="no"?>
<!DOCTYPE svg PUBLIC "-//W3C//DTD SVG 20010904//EN"
 "http://www.w3.org/TR/2001/REC-SVG-20010904/DTD/svg10.dtd">
<svg version="1.0" xmlns="http://www.w3.org/2000/svg"
 width="309.000000pt" height="1384.000000pt" viewBox="0 0 309.000000 1384.000000"
 preserveAspectRatio="xMidYMid meet">
<metadata>
Created by potrace 1.16, written by Peter Selinger 2001-2019
</metadata>
<g transform="translate(0.000000,1384.000000) scale(0.100000,-0.100000)"
fill="#000000" stroke="none">
<path d="M2704 13824 c-57 -20 -120 -77 -148 -133 -13 -25 -592 -1542 -1287
-3371 l-1263 -3325 0 -75 0 -75 1263 -3325 c695 -1829 1274 -3346 1287 -3371
45 -89 143 -149 244 -149 76 0 139 27 197 85 62 62 89 136 80 219 -3 34 -425
1156 -1251 3334 l-1246 3282 1246 3283 c826 2177 1248 3299 1251 3333 17 161
-117 306 -281 303 -28 0 -70 -7 -92 -15z"/>
</g>
</svg>
