<?xml version="1.0" standalone="no"?>
<!DOCTYPE svg PUBLIC "-//W3C//DTD SVG 20010904//EN"
 "http://www.w3.org/TR/2001/REC-SVG-20010904/DTD/svg10.dtd">
<svg version="1.0" xmlns="http://www.w3.org/2000/svg"
 width="157.000000pt" height="156.000000pt" viewBox="0 0 157.000000 156.000000"
 preserveAspectRatio="xMidYMid meet">
<metadata>
Created by potrace 1.16, written by Peter Selinger 2001-2019
</metadata>
<g transform="translate(0.000000,156.000000) scale(0.100000,-0.100000)"
fill="#000000" stroke="none">
<path d="M630 1546 c-192 -44 -359 -148 -465 -287 -57 -76 -118 -199 -142
-289 -25 -90 -25 -290 0 -380 61 -224 209 -405 412 -506 130 -64 196 -79 345
-79 149 0 215 15 345 79 203 101 351 282 412 506 24 89 25 290 0 380 -25 95
-98 235 -160 311 -95 114 -252 214 -402 255 -78 21 -273 27 -345 10z"/>
</g>
</svg>
