<?xml version="1.0" standalone="no"?>
<!DOCTYPE svg PUBLIC "-//W3C//DTD SVG 20010904//EN"
 "http://www.w3.org/TR/2001/REC-SVG-20010904/DTD/svg10.dtd">
<svg version="1.0" xmlns="http://www.w3.org/2000/svg"
 width="1035.000000pt" height="946.000000pt" viewBox="0 0 1035.000000 946.000000"
 preserveAspectRatio="xMidYMid meet">
<metadata>
Created by potrace 1.16, written by Peter Selinger 2001-2019
</metadata>
<g transform="translate(0.000000,946.000000) scale(0.100000,-0.100000)"
fill="#000000" stroke="none">
<path d="M4360 9453 c-839 -45 -1670 -255 -2386 -602 -1028 -500 -1728 -1213
-1945 -1980 -42 -151 -27 -210 65 -252 52 -24 187 -25 292 -3 358 73 811 372
948 624 14 27 40 95 57 152 37 127 111 283 186 397 72 108 206 245 301 306
238 153 624 282 1063 354 179 30 466 61 559 61 l46 0 -13 -157 c-157 -1952
-614 -4098 -1292 -6060 -153 -442 -365 -1016 -485 -1308 l-24 -60 -62 -17
c-294 -81 -645 -299 -810 -505 -78 -96 -111 -162 -117 -232 -4 -47 -1 -62 19
-91 13 -19 43 -45 68 -57 l44 -23 931 0 c511 0 1013 5 1115 10 1320 73 2702
483 3920 1163 993 554 1843 1271 2431 2049 297 394 545 826 708 1231 211 524
342 1146 358 1702 25 859 -237 1589 -767 2139 -556 577 -1452 971 -2520 1105
-408 52 -448 53 -1570 56 -580 1 -1084 0 -1120 -2z m1248 -958 c793 -65 1487
-246 1976 -515 942 -519 1407 -1354 1373 -2465 -10 -316 -49 -591 -132 -932
-120 -492 -310 -923 -595 -1348 -530 -791 -1317 -1408 -2309 -1812 -196 -79
-607 -214 -817 -267 -618 -157 -1134 -216 -1876 -216 l-336 0 55 133 c885
2132 1496 4324 1802 6462 33 229 84 638 117 934 l6 54 276 -6 c153 -4 359 -14
460 -22z"/>
</g>
</svg>
