<?xml version="1.0" standalone="no"?>
<!DOCTYPE svg PUBLIC "-//W3C//DTD SVG 20010904//EN"
 "http://www.w3.org/TR/2001/REC-SVG-20010904/DTD/svg10.dtd">
<svg version="1.0" xmlns="http://www.w3.org/2000/svg"
 width="647.000000pt" height="1230.000000pt" viewBox="0 0 647.000000 1230.000000"
 preserveAspectRatio="xMidYMid meet">
<metadata>
Created by potrace 1.16, written by Peter Selinger 2001-2019
</metadata>
<g transform="translate(0.000000,1230.000000) scale(0.100000,-0.100000)"
fill="#000000" stroke="none">
<path d="M3132 12281 c-70 -24 -136 -88 -162 -159 -20 -52 -20 -85 -20 -5119
l0 -5067 -76 115 c-322 482 -763 918 -1245 1232 -396 258 -838 454 -1294 573
-175 45 -228 44 -281 -6 -48 -47 -56 -89 -52 -259 5 -216 12 -225 250 -286
1293 -331 2330 -1339 2709 -2634 36 -123 99 -411 113 -521 9 -62 37 -105 85
-130 94 -47 196 -2 220 99 4 20 18 94 31 166 253 1450 1368 2654 2798 3020
163 42 195 57 225 104 20 32 22 52 25 182 4 170 -4 212 -52 259 -53 50 -106
51 -281 6 -1037 -271 -1945 -917 -2539 -1805 l-76 -115 0 5067 0 5066 -20 55
c-27 72 -98 139 -171 160 -68 21 -121 20 -187 -3z"/>
</g>
</svg>
