<?xml version="1.0" standalone="no"?>
<!DOCTYPE svg PUBLIC "-//W3C//DTD SVG 20010904//EN"
 "http://www.w3.org/TR/2001/REC-SVG-20010904/DTD/svg10.dtd">
<svg version="1.0" xmlns="http://www.w3.org/2000/svg"
 width="731.000000pt" height="1230.000000pt" viewBox="0 0 731.000000 1230.000000"
 preserveAspectRatio="xMidYMid meet">
<metadata>
Created by potrace 1.16, written by Peter Selinger 2001-2019
</metadata>
<g transform="translate(0.000000,1230.000000) scale(0.100000,-0.100000)"
fill="#000000" stroke="none">
<path d="M3210 12293 c-872 -66 -1651 -404 -2245 -974 -519 -499 -837 -1119
-942 -1834 -25 -175 -25 -613 1 -780 89 -580 347 -1095 764 -1527 286 -296
620 -536 1042 -746 531 -266 1091 -431 1730 -512 195 -24 368 -40 443 -40 l57
0 0 -2818 c0 -3188 -9 -2885 83 -2977 82 -81 184 -105 293 -68 70 24 147 103
168 173 15 49 16 588 16 5802 l0 5748 485 0 485 0 0 -5748 c0 -5214 1 -5753
16 -5802 31 -105 149 -190 264 -190 115 0 233 85 264 190 15 49 16 588 16
5802 l0 5748 458 0 c530 0 522 -1 609 85 111 112 111 278 0 390 -94 93 106 85
-2056 83 -1048 -1 -1926 -3 -1951 -5z"/>
</g>
</svg>
