<?xml version="1.0" standalone="no"?>
<!DOCTYPE svg PUBLIC "-//W3C//DTD SVG 20010904//EN"
 "http://www.w3.org/TR/2001/REC-SVG-20010904/DTD/svg10.dtd">
<svg version="1.0" xmlns="http://www.w3.org/2000/svg"
 width="948.000000pt" height="1143.000000pt" viewBox="0 0 948.000000 1143.000000"
 preserveAspectRatio="xMidYMid meet">
<metadata>
Created by potrace 1.16, written by Peter Selinger 2001-2019
</metadata>
<g transform="translate(0.000000,1143.000000) scale(0.100000,-0.100000)"
fill="#000000" stroke="none">
<path d="M2160 11423 c-198 -22 -472 -108 -695 -218 -272 -133 -484 -283 -690
-490 -191 -191 -263 -292 -287 -407 -11 -51 -10 -59 13 -104 18 -37 36 -56 74
-77 49 -27 53 -28 175 -24 112 4 137 8 235 41 230 78 467 233 592 389 l31 39
113 -12 c385 -38 695 -156 961 -368 868 -691 1376 -2238 1508 -4592 48 -859
33 -2089 -36 -3033 l-7 -88 -216 -173 c-801 -642 -1520 -1056 -1839 -1056
-274 0 -621 100 -852 248 -177 112 -341 312 -427 522 -40 97 -59 170 -78 305
-18 130 -48 200 -106 246 -38 30 -44 31 -100 26 -133 -12 -278 -152 -389 -376
-151 -304 -172 -567 -74 -953 120 -479 425 -867 851 -1086 331 -170 766 -227
1084 -144 937 247 2742 1684 4193 3337 1431 1631 2452 3308 2982 4900 143 430
226 754 271 1051 25 173 25 605 0 759 -85 506 -295 869 -642 1110 -219 152
-420 219 -701 232 -137 6 -142 5 -198 -20 -310 -142 -555 -837 -399 -1129 40
-74 80 -95 195 -102 334 -22 619 -152 793 -364 198 -238 282 -567 224 -872 -6
-30 -28 -118 -49 -196 -391 -1431 -1459 -3156 -2940 -4747 -102 -109 -218
-233 -258 -275 l-73 -77 6 140 c94 2210 -75 4045 -492 5330 -309 951 -747
1604 -1324 1970 -294 187 -618 301 -948 335 -97 9 -404 11 -481 3z"/>
</g>
</svg>
