<?xml version="1.0" standalone="no"?>
<!DOCTYPE svg PUBLIC "-//W3C//DTD SVG 20010904//EN"
 "http://www.w3.org/TR/2001/REC-SVG-20010904/DTD/svg10.dtd">
<svg version="1.0" xmlns="http://www.w3.org/2000/svg"
 width="1108.000000pt" height="1088.000000pt" viewBox="0 0 1108.000000 1088.000000"
 preserveAspectRatio="xMidYMid meet">
<metadata>
Created by potrace 1.16, written by Peter Selinger 2001-2019
</metadata>
<g transform="translate(0.000000,1088.000000) scale(0.100000,-0.100000)"
fill="#000000" stroke="none">
<path d="M10768 10864 c-234 -50 -573 -218 -812 -402 l-61 -47 -3305 -5
c-3035 -5 -3314 -7 -3415 -23 -442 -68 -831 -195 -1275 -417 -720 -360 -1324
-873 -1633 -1386 -99 -164 -197 -410 -231 -574 -27 -133 -40 -306 -27 -350 17
-59 59 -80 157 -80 300 1 811 256 1110 554 133 134 174 202 174 292 0 279 96
549 275 779 78 100 144 161 201 186 24 11 93 32 152 47 l107 26 1499 3 1498 4
-88 -89 c-160 -159 -57 207 -958 -3400 -439 -1753 -820 -3268 -847 -3367 -201
-728 -482 -1507 -797 -2215 -57 -129 -106 -252 -109 -273 -7 -49 9 -79 59
-107 39 -22 44 -22 145 -11 383 43 995 403 1186 696 33 51 206 442 330 745
240 589 458 1223 616 1795 27 99 386 1523 796 3165 410 1642 750 3002 756
3022 l9 37 1323 4 c1400 4 1398 4 1687 53 521 88 1120 394 1485 759 151 150
227 262 276 404 34 99 23 144 -48 180 -30 15 -153 13 -235 -5z"/>
</g>
</svg>
