<?xml version="1.0" standalone="no"?>
<!DOCTYPE svg PUBLIC "-//W3C//DTD SVG 20010904//EN"
 "http://www.w3.org/TR/2001/REC-SVG-20010904/DTD/svg10.dtd">
<svg version="1.0" xmlns="http://www.w3.org/2000/svg"
 width="879.000000pt" height="1009.000000pt" viewBox="0 0 879.000000 1009.000000"
 preserveAspectRatio="xMidYMid meet">
<metadata>
Created by potrace 1.16, written by Peter Selinger 2001-2019
</metadata>
<g transform="translate(0.000000,1009.000000) scale(0.100000,-0.100000)"
fill="#000000" stroke="none">
<path d="M6801 10079 c-1045 -100 -2108 -622 -2994 -1469 -118 -113 -333 -346
-437 -472 -30 -37 -56 -65 -57 -64 -2 2 15 113 36 247 92 563 231 1533 234
1630 2 44 -2 62 -18 79 -61 69 -218 67 -440 -6 -85 -28 -1270 -618 -1415 -704
-335 -200 -549 -470 -460 -582 33 -42 69 -51 188 -46 153 7 298 57 590 205
123 63 226 113 228 111 4 -4 -99 -712 -156 -1073 -263 -1663 -613 -3384 -1006
-4950 -231 -917 -518 -1685 -951 -2544 -99 -196 -143 -293 -143 -317 0 -83 55
-124 169 -124 265 0 690 208 941 459 105 105 107 108 207 301 323 620 587
1248 806 1915 92 281 158 512 276 970 560 2171 1230 3709 2045 4689 262 316
576 591 805 705 242 122 570 194 876 195 186 0 320 -19 499 -70 474 -136 793
-482 861 -931 53 -352 -62 -752 -302 -1053 -319 -398 -931 -704 -2393 -1198
-195 -66 -389 -135 -430 -153 -482 -214 -833 -616 -629 -720 50 -25 138 -25
305 1 502 77 1008 32 1494 -132 507 -171 935 -512 1180 -939 267 -466 328
-1003 179 -1594 -112 -447 -390 -860 -750 -1117 -316 -226 -809 -394 -1334
-454 -201 -23 -549 -24 -698 -1 -236 36 -473 103 -644 182 -239 110 -483 298
-665 512 -39 46 -84 91 -99 99 -17 8 -57 14 -103 14 -272 0 -704 -213 -956
-470 -99 -102 -143 -175 -148 -250 l-4 -57 75 -89 c355 -423 864 -696 1474
-791 160 -25 707 -25 928 0 673 77 1280 255 1911 562 967 470 1712 1135 2079
1856 143 280 228 558 277 904 17 122 17 523 -1 645 -112 787 -610 1405 -1411
1753 -141 61 -357 134 -502 168 l-96 22 196 97 c669 329 1207 696 1607 1095
173 172 280 300 394 470 253 378 374 766 358 1147 -11 279 -94 516 -252 727
-253 336 -686 561 -1174 611 -118 11 -425 11 -550 -1z"/>
</g>
</svg>
