<?xml version="1.0" standalone="no"?>
<!DOCTYPE svg PUBLIC "-//W3C//DTD SVG 20010904//EN"
 "http://www.w3.org/TR/2001/REC-SVG-20010904/DTD/svg10.dtd">
<svg version="1.0" xmlns="http://www.w3.org/2000/svg"
 width="1034.000000pt" height="946.000000pt" viewBox="0 0 1034.000000 946.000000"
 preserveAspectRatio="xMidYMid meet">
<metadata>
Created by potrace 1.16, written by Peter Selinger 2001-2019
</metadata>
<g transform="translate(0.000000,946.000000) scale(0.100000,-0.100000)"
fill="#000000" stroke="none">
<path d="M4250 9449 c-1342 -92 -2577 -576 -3436 -1348 -365 -329 -629 -711
-757 -1097 -70 -212 -70 -242 3 -292 33 -22 42 -24 145 -20 96 4 126 10 234
47 308 103 630 317 767 508 42 59 60 98 99 218 95 296 253 534 453 685 299
226 967 407 1652 448 74 5 136 8 137 7 4 -2 -47 -564 -72 -795 -244 -2207
-798 -4434 -1652 -6635 -58 -148 -112 -288 -120 -310 -15 -38 -19 -41 -92 -63
-42 -13 -135 -52 -206 -87 -355 -171 -635 -433 -635 -593 0 -57 12 -78 61
-103 41 -20 44 -20 1077 -16 1029 4 1086 6 1417 42 1296 143 2586 586 3775
1298 310 185 741 489 1025 722 914 749 1563 1618 1905 2550 97 263 180 582
234 895 74 434 85 893 30 1270 -71 487 -276 964 -570 1329 -553 686 -1503
1139 -2704 1290 -412 52 -467 54 -1590 56 -580 2 -1111 -1 -1180 -6z m1350
-864 c1357 -112 2315 -520 2890 -1231 219 -271 406 -665 483 -1014 111 -504
99 -1040 -39 -1658 -155 -702 -462 -1316 -945 -1897 -117 -140 -431 -452 -575
-572 -346 -286 -629 -469 -1044 -677 -615 -307 -1280 -511 -2005 -615 -360
-52 -684 -71 -1210 -71 l-402 0 113 275 c510 1237 954 2585 1273 3862 279
1113 500 2333 610 3363 12 107 24 210 27 229 l5 34 317 -6 c174 -4 400 -13
502 -22z"/>
</g>
</svg>
