<?xml version="1.0" standalone="no"?>
<!DOCTYPE svg PUBLIC "-//W3C//DTD SVG 20010904//EN"
 "http://www.w3.org/TR/2001/REC-SVG-20010904/DTD/svg10.dtd">
<svg version="1.0" xmlns="http://www.w3.org/2000/svg"
 width="936.000000pt" height="968.000000pt" viewBox="0 0 936.000000 968.000000"
 preserveAspectRatio="xMidYMid meet">
<metadata>
Created by potrace 1.16, written by Peter Selinger 2001-2019
</metadata>
<g transform="translate(0.000000,968.000000) scale(0.100000,-0.100000)"
fill="#000000" stroke="none">
<path d="M3125 9665 c-110 -24 -238 -77 -450 -185 -115 -59 -376 -191 -580
-293 -379 -190 -522 -275 -656 -390 -166 -142 -240 -286 -177 -344 37 -33 64
-43 117 -43 131 0 279 51 575 197 137 68 251 121 254 118 7 -7 -14 -319 -44
-625 -86 -899 -238 -1762 -474 -2701 -413 -1637 -926 -3261 -1551 -4912 -76
-202 -139 -380 -139 -395 0 -53 62 -92 144 -92 213 0 575 168 828 384 135 115
162 160 278 463 635 1660 1178 3370 1600 5042 282 1121 455 2188 524 3241 30
457 31 478 10 501 -46 51 -132 62 -259 34z"/>
<path d="M8430 9674 c-95 -11 -237 -38 -345 -65 -1163 -292 -3346 -1623 -4482
-2732 -398 -389 -646 -737 -713 -1002 -57 -221 -29 -528 90 -1010 267 -1079
911 -2512 1575 -3505 239 -358 424 -589 660 -826 214 -215 396 -349 610 -450
153 -72 191 -79 430 -79 226 1 348 12 573 50 1135 196 2132 923 2401 1749 22
68 43 141 47 163 8 51 -13 94 -63 128 -31 20 -50 25 -104 25 -170 0 -379 -94
-531 -238 -78 -74 -110 -129 -148 -252 -146 -476 -519 -793 -1114 -945 -269
-68 -577 -90 -716 -52 -361 101 -781 508 -1255 1217 -860 1286 -1683 3379
-1642 4177 4 95 8 111 45 186 234 485 1326 1374 2605 2121 777 454 1504 760
1737 731 92 -12 202 -51 246 -89 141 -121 203 -349 160 -594 -19 -111 -10
-145 50 -186 95 -65 339 -9 530 122 84 56 190 170 219 234 27 60 55 230 55
335 0 39 -7 110 -15 158 -42 237 -143 396 -330 517 -134 87 -214 110 -395 113
-80 2 -161 1 -180 -1z"/>
</g>
</svg>
