<?xml version="1.0" standalone="no"?>
<!DOCTYPE svg PUBLIC "-//W3C//DTD SVG 20010904//EN"
 "http://www.w3.org/TR/2001/REC-SVG-20010904/DTD/svg10.dtd">
<svg version="1.0" xmlns="http://www.w3.org/2000/svg"
 width="1455.000000pt" height="1005.000000pt" viewBox="0 0 1455.000000 1005.000000"
 preserveAspectRatio="xMidYMid meet">
<metadata>
Created by potrace 1.16, written by Peter Selinger 2001-2019
</metadata>
<g transform="translate(0.000000,1005.000000) scale(0.100000,-0.100000)"
fill="#000000" stroke="none">
<path d="M5255 10039 c-254 -59 -568 -256 -684 -430 -22 -33 -45 -77 -51 -97
-5 -20 -26 -149 -46 -287 -212 -1500 -593 -3054 -1114 -4550 -227 -651 -580
-1569 -800 -2080 -104 -241 -319 -678 -402 -816 -167 -277 -315 -437 -458
-496 -142 -58 -574 33 -830 174 -110 61 -182 114 -259 190 -41 40 -81 73 -90
73 -35 -1 -104 -42 -150 -89 -249 -256 -445 -910 -336 -1120 58 -113 312 -294
539 -386 244 -97 565 -147 717 -112 161 39 303 129 484 311 405 406 803 1115
1282 2281 212 517 563 1447 756 2000 360 1033 706 2261 918 3253 18 84 36 147
40 140 3 -7 16 -67 28 -133 62 -338 259 -1250 397 -1840 236 -1007 576 -2261
758 -2800 224 -664 485 -1247 821 -1829 133 -231 134 -233 183 -257 59 -29
156 -23 210 14 52 35 554 520 882 853 635 645 1042 1086 1846 2004 879 1004
1743 2012 2632 3074 189 224 340 397 337 385 -27 -120 -196 -1201 -279 -1794
-143 -1012 -295 -2382 -348 -3125 -17 -236 -17 -1062 0 -1295 26 -360 49 -546
76 -618 60 -159 181 -266 376 -333 46 -16 83 -19 220 -18 287 1 469 56 890
266 277 138 388 204 513 305 216 177 290 349 172 399 -100 41 -297 -5 -554
-131 -142 -70 -150 -73 -194 -64 -127 23 -213 95 -261 218 -18 48 -46 287 -68
596 -16 230 -16 982 0 1215 68 957 257 2563 458 3875 138 905 385 2291 449
2520 72 258 71 469 -2 542 -20 21 -31 25 -63 20 -22 -3 -57 -18 -80 -33 -23
-17 -176 -194 -353 -409 -1386 -1687 -2522 -3028 -3841 -4535 -883 -1008
-1276 -1431 -1998 -2152 -252 -252 -461 -458 -465 -458 -10 0 -166 328 -263
555 -184 430 -311 795 -475 1370 -486 1702 -883 3464 -1196 5305 -52 307 -55
317 -111 346 -30 16 -150 17 -213 3z"/>
</g>
</svg>
