<?xml version="1.0" standalone="no"?>
<!DOCTYPE svg PUBLIC "-//W3C//DTD SVG 20010904//EN"
 "http://www.w3.org/TR/2001/REC-SVG-20010904/DTD/svg10.dtd">
<svg version="1.0" xmlns="http://www.w3.org/2000/svg"
 width="848.000000pt" height="952.000000pt" viewBox="0 0 848.000000 952.000000"
 preserveAspectRatio="xMidYMid meet">
<metadata>
Created by potrace 1.16, written by Peter Selinger 2001-2019
</metadata>
<g transform="translate(0.000000,952.000000) scale(0.100000,-0.100000)"
fill="#000000" stroke="none">
<path d="M2620 9514 c-19 -2 -82 -9 -140 -15 -343 -36 -736 -154 -1050 -315
-865 -444 -1397 -1237 -1427 -2129 -13 -396 64 -754 237 -1104 125 -250 272
-454 470 -651 495 -493 1205 -807 1963 -869 264 -22 329 -14 376 45 18 22 21
41 21 114 0 73 -3 92 -21 114 -35 45 -65 53 -219 60 -516 23 -980 172 -1392
445 -754 501 -1110 1315 -947 2167 123 645 578 1221 1214 1537 289 144 581
226 920 257 441 40 763 -51 1122 -318 109 -82 394 -365 534 -532 58 -69 211
-255 339 -415 284 -353 377 -462 540 -629 430 -442 902 -704 1426 -793 150
-25 523 -25 709 1 232 32 483 104 646 186 172 87 346 239 422 370 84 145 131
381 92 463 -27 58 -78 77 -210 77 -89 0 -116 -4 -151 -20 -47 -23 -74 -67 -74
-123 0 -216 -161 -408 -431 -516 -182 -73 -405 -114 -624 -115 -128 -1 -144 1
-183 22 -103 55 -171 142 -335 429 -284 495 -596 889 -962 1212 -661 585
-1392 924 -2215 1027 -109 14 -575 27 -650 18z"/>
<path d="M6680 5859 c-697 -79 -1276 -515 -1469 -1107 -112 -341 -90 -676 65
-983 104 -208 228 -367 593 -760 322 -346 461 -552 523 -776 29 -106 32 -382
5 -518 -106 -523 -457 -949 -1001 -1216 -147 -72 -354 -145 -493 -175 l-82
-17 -103 32 c-199 63 -376 150 -588 288 -255 167 -436 319 -930 778 -524 486
-796 704 -1097 877 -283 162 -589 266 -875 297 -55 6 -318 11 -610 11 -468 0
-516 -2 -548 -18 -49 -24 -70 -71 -70 -155 0 -117 46 -167 153 -167 285 0 632
-99 927 -265 282 -158 535 -352 1010 -775 290 -258 464 -408 605 -521 526
-421 971 -630 1452 -679 73 -8 312 -10 733 -7 673 4 684 5 950 63 275 61 611
200 830 344 476 312 769 727 880 1245 31 143 39 417 16 540 -59 316 -209 564
-589 974 -393 425 -490 550 -583 745 -74 156 -89 237 -88 466 3 482 112 856
301 1032 100 93 203 125 371 114 320 -19 591 -134 793 -335 158 -157 239 -332
255 -547 12 -163 38 -184 229 -184 111 0 135 3 162 20 55 33 67 70 60 185 -12
201 -98 432 -224 600 -237 317 -668 543 -1135 594 -111 13 -318 12 -428 0z"/>
</g>
</svg>
