<?xml version="1.0" standalone="no"?>
<!DOCTYPE svg PUBLIC "-//W3C//DTD SVG 20010904//EN"
 "http://www.w3.org/TR/2001/REC-SVG-20010904/DTD/svg10.dtd">
<svg version="1.0" xmlns="http://www.w3.org/2000/svg"
 width="912.000000pt" height="1089.000000pt" viewBox="0 0 912.000000 1089.000000"
 preserveAspectRatio="xMidYMid meet">
<metadata>
Created by potrace 1.16, written by Peter Selinger 2001-2019
</metadata>
<g transform="translate(0.000000,1089.000000) scale(0.100000,-0.100000)"
fill="#000000" stroke="none">
<path d="M2020 10883 c-383 -62 -758 -229 -1085 -482 -186 -143 -376 -345
-434 -458 -22 -45 -28 -112 -11 -144 22 -40 66 -52 179 -46 86 4 123 11 196
37 200 71 391 194 523 335 80 86 72 84 250 65 403 -43 729 -184 1021 -442 726
-638 1181 -1930 1350 -3828 77 -858 91 -1859 41 -2880 -17 -339 -50 -814 -58
-820 -4 -3 -32 -26 -62 -51 -490 -406 -1113 -819 -1488 -988 -250 -113 -383
-141 -580 -123 -459 43 -820 228 -1055 540 -125 167 -189 313 -232 528 -35
173 -60 214 -133 214 -157 0 -373 -342 -428 -679 -19 -113 -15 -203 16 -351
163 -797 799 -1310 1624 -1310 179 0 331 39 586 152 819 362 2137 1414 3254
2597 1374 1455 2415 2980 3044 4456 247 579 460 1245 527 1645 102 606 24
1101 -236 1495 -112 169 -338 358 -527 440 -194 85 -517 132 -615 91 -76 -31
-188 -170 -258 -320 -134 -286 -158 -582 -56 -693 16 -18 32 -23 67 -23 136 0
344 -45 480 -104 330 -143 560 -460 611 -843 18 -138 6 -292 -36 -458 -47
-182 -185 -597 -268 -800 -466 -1152 -1326 -2453 -2427 -3675 -153 -170 -515
-551 -644 -680 -95 -94 -106 -102 -101 -75 17 105 45 1024 45 1495 0 2822
-493 4755 -1436 5629 -337 312 -754 502 -1206 551 -92 9 -385 12 -438 3z"/>
</g>
</svg>
