<?xml version="1.0" standalone="no"?>
<!DOCTYPE svg PUBLIC "-//W3C//DTD SVG 20010904//EN"
 "http://www.w3.org/TR/2001/REC-SVG-20010904/DTD/svg10.dtd">
<svg version="1.0" xmlns="http://www.w3.org/2000/svg"
 width="885.000000pt" height="884.000000pt" viewBox="0 0 885.000000 884.000000"
 preserveAspectRatio="xMidYMid meet">
<metadata>
Created by potrace 1.16, written by Peter Selinger 2001-2019
</metadata>
<g transform="translate(0.000000,884.000000) scale(0.100000,-0.100000)"
fill="#000000" stroke="none">
<path d="M4350 8831 c-71 -23 -140 -82 -176 -151 -18 -34 -19 -158 -22 -4087
l-2 -4053 -1978 -2 -1977 -3 -40 -22 c-48 -25 -106 -84 -131 -133 -26 -48 -26
-172 0 -220 25 -49 83 -108 131 -133 l40 -22 4225 0 c4181 0 4225 0 4265 20
50 25 105 80 130 130 27 55 27 175 0 230 -25 50 -80 105 -130 130 -39 20 -74
20 -2017 23 l-1978 2 -2 4053 c-3 4006 -3 4052 -23 4092 -25 51 -80 106 -130
129 -43 21 -146 30 -185 17z"/>
</g>
</svg>
