<?xml version="1.0" standalone="no"?>
<!DOCTYPE svg PUBLIC "-//W3C//DTD SVG 20010904//EN"
 "http://www.w3.org/TR/2001/REC-SVG-20010904/DTD/svg10.dtd">
<svg version="1.0" xmlns="http://www.w3.org/2000/svg"
 width="976.000000pt" height="985.000000pt" viewBox="0 0 976.000000 985.000000"
 preserveAspectRatio="xMidYMid meet">
<metadata>
Created by potrace 1.16, written by Peter Selinger 2001-2019
</metadata>
<g transform="translate(0.000000,985.000000) scale(0.100000,-0.100000)"
fill="#000000" stroke="none">
<path d="M2610 9839 c-502 -51 -1086 -260 -1604 -573 -367 -222 -546 -379
-632 -552 -60 -120 -45 -203 45 -251 81 -42 264 -29 449 33 113 37 302 132
422 212 166 110 257 148 414 177 202 36 352 24 426 -34 47 -36 98 -140 112
-226 31 -200 -25 -530 -164 -953 -154 -476 -289 -807 -818 -2017 -556 -1272
-771 -1805 -958 -2375 -208 -633 -285 -1003 -299 -1440 -19 -584 130 -1077
419 -1385 151 -162 394 -296 636 -351 94 -21 420 -30 562 -15 1082 113 2374
890 3646 2193 438 449 917 1005 1333 1548 95 124 142 181 128 155 -23 -43
-374 -1412 -436 -1703 -109 -511 -195 -1153 -217 -1627 -5 -111 -3 -154 10
-210 39 -169 141 -296 297 -373 132 -64 194 -75 384 -69 328 12 541 83 1082
364 313 163 406 225 554 373 96 95 122 128 154 192 65 133 52 204 -51 260 -59
33 -125 36 -260 13 -131 -23 -247 -66 -446 -162 -202 -98 -207 -98 -274 -28
-65 67 -78 120 -70 279 25 480 100 1040 207 1538 136 639 557 2184 907 3333
266 871 632 1975 739 2225 151 355 306 791 395 1110 62 226 56 276 -43 326
-192 97 -697 -87 -1037 -376 -79 -68 -180 -188 -214 -253 -25 -50 -244 -651
-402 -1107 -132 -380 -180 -494 -386 -915 -1113 -2281 -2916 -4683 -4285
-5708 -305 -229 -535 -355 -755 -414 -217 -58 -496 -22 -684 89 -82 48 -206
167 -263 253 -232 346 -309 882 -212 1484 53 332 187 788 396 1349 178 479
322 826 773 1857 533 1219 681 1585 840 2070 304 933 261 1426 -142 1619 -130
62 -209 76 -420 75 -95 -1 -211 -6 -258 -10z"/>
</g>
</svg>
