<?xml version="1.0" standalone="no"?>
<!DOCTYPE svg PUBLIC "-//W3C//DTD SVG 20010904//EN"
 "http://www.w3.org/TR/2001/REC-SVG-20010904/DTD/svg10.dtd">
<svg version="1.0" xmlns="http://www.w3.org/2000/svg"
 width="754.000000pt" height="828.000000pt" viewBox="0 0 754.000000 828.000000"
 preserveAspectRatio="xMidYMid meet">
<metadata>
Created by potrace 1.16, written by Peter Selinger 2001-2019
</metadata>
<g transform="translate(0.000000,828.000000) scale(0.100000,-0.100000)"
fill="#000000" stroke="none">
<path d="M180 8263 c-27 -10 -65 -37 -97 -68 -92 -93 -83 348 -81 -4075 l3
-3915 27 -50 c31 -59 67 -94 128 -126 l45 -24 3540 -3 c4003 -2 3607 -11 3700
82 94 94 85 -349 85 4056 0 4401 9 3962 -83 4055 -116 115 -278 115 -394 0
-92 -93 -83 326 -83 -3897 l0 -3738 -3205 0 -3205 0 0 3738 c0 4223 9 3804
-83 3897 -81 81 -189 106 -297 68z"/>
</g>
</svg>
