<?xml version="1.0" standalone="no"?>
<!DOCTYPE svg PUBLIC "-//W3C//DTD SVG 20010904//EN"
 "http://www.w3.org/TR/2001/REC-SVG-20010904/DTD/svg10.dtd">
<svg version="1.0" xmlns="http://www.w3.org/2000/svg"
 width="845.000000pt" height="969.000000pt" viewBox="0 0 845.000000 969.000000"
 preserveAspectRatio="xMidYMid meet">
<metadata>
Created by potrace 1.16, written by Peter Selinger 2001-2019
</metadata>
<g transform="translate(0.000000,969.000000) scale(0.100000,-0.100000)"
fill="#000000" stroke="none">
<path d="M6605 9684 c-16 -2 -73 -9 -125 -15 -860 -95 -1746 -498 -2535 -1155
-178 -148 -543 -516 -700 -706 -71 -86 -130 -156 -131 -155 -1 1 11 79 27 172
66 392 196 1266 245 1647 17 135 17 138 -2 159 -38 42 -72 52 -158 46 -95 -7
-169 -25 -287 -73 -150 -59 -1219 -605 -1325 -676 -233 -156 -374 -314 -374
-421 0 -56 58 -97 139 -97 130 0 279 51 565 192 131 65 240 117 241 116 4 -4
-80 -588 -135 -938 -249 -1610 -598 -3336 -990 -4901 -222 -884 -496 -1622
-911 -2453 -98 -197 -149 -310 -149 -331 0 -56 59 -95 144 -95 267 0 770 271
954 514 93 123 414 793 599 1250 221 545 356 960 519 1591 214 828 381 1384
596 1980 477 1320 1049 2335 1668 2955 260 261 468 407 703 494 478 177 1029
174 1416 -10 458 -216 711 -645 663 -1121 -34 -333 -178 -638 -412 -873 -153
-154 -319 -268 -593 -410 -371 -192 -748 -341 -1552 -617 -283 -96 -491 -174
-560 -207 -348 -170 -637 -460 -575 -576 19 -36 70 -60 126 -60 28 0 109 9
180 19 526 80 1044 33 1525 -139 351 -125 691 -356 908 -615 232 -278 363
-567 427 -940 25 -141 25 -469 1 -625 -69 -444 -230 -807 -490 -1101 -260
-293 -608 -487 -1099 -614 -333 -85 -583 -118 -918 -119 -238 -1 -329 8 -535
51 -447 93 -846 329 -1109 656 -38 47 -82 91 -98 98 -18 7 -61 10 -121 7 -235
-13 -616 -207 -838 -428 -106 -104 -149 -174 -149 -239 0 -35 9 -51 73 -128
195 -234 425 -411 712 -549 363 -175 688 -244 1140 -244 776 0 1597 198 2360
569 577 281 1048 610 1428 1000 475 487 717 958 814 1581 25 160 25 561 0 705
-68 388 -213 708 -449 990 -202 242 -446 429 -763 585 -199 98 -372 160 -585
212 -91 23 -171 43 -179 45 -8 2 107 64 255 138 674 335 1148 659 1540 1050
179 178 260 275 373 440 317 465 421 1008 276 1441 -59 176 -155 326 -304 474
-123 123 -228 196 -402 279 -197 95 -375 146 -601 170 -89 10 -392 13 -463 5z"/>
</g>
</svg>
