<?xml version="1.0" standalone="no"?>
<!DOCTYPE svg PUBLIC "-//W3C//DTD SVG 20010904//EN"
 "http://www.w3.org/TR/2001/REC-SVG-20010904/DTD/svg10.dtd">
<svg version="1.0" xmlns="http://www.w3.org/2000/svg"
 width="692.000000pt" height="802.000000pt" viewBox="0 0 692.000000 802.000000"
 preserveAspectRatio="xMidYMid meet">
<metadata>
Created by potrace 1.16, written by Peter Selinger 2001-2019
</metadata>
<g transform="translate(0.000000,802.000000) scale(0.100000,-0.100000)"
fill="#000000" stroke="none">
<path d="M3955 8013 c-599 -38 -1169 -191 -1696 -454 -215 -107 -311 -163
-499 -290 -248 -168 -449 -338 -660 -556 -522 -541 -877 -1213 -1024 -1938
-169 -835 -58 -1695 317 -2459 197 -403 432 -731 752 -1052 356 -357 680 -589
1135 -813 465 -229 892 -354 1470 -428 121 -15 278 -17 1529 -20 1587 -4 1454
-11 1547 82 56 55 84 122 84 195 0 101 -66 207 -158 252 l-47 23 -1395 5
c-1256 5 -1408 8 -1530 24 -468 61 -843 170 -1237 361 -384 185 -698 409 -998
709 -513 514 -842 1159 -944 1853 -11 70 -21 149 -24 176 l-5 47 3052 0 c3456
0 3108 -9 3203 85 111 112 111 278 0 390 -95 94 253 85 -3203 85 l-3052 0 5
48 c47 476 202 948 447 1360 527 886 1457 1515 2516 1702 313 55 259 53 1765
59 l1400 6 47 23 c92 45 158 151 158 252 0 73 -28 140 -83 195 -93 92 33 85
-1486 83 -735 -1 -1358 -3 -1386 -5z"/>
</g>
</svg>
