<?xml version="1.0" standalone="no"?>
<!DOCTYPE svg PUBLIC "-//W3C//DTD SVG 20010904//EN"
 "http://www.w3.org/TR/2001/REC-SVG-20010904/DTD/svg10.dtd">
<svg version="1.0" xmlns="http://www.w3.org/2000/svg"
 width="621.000000pt" height="1180.000000pt" viewBox="0 0 621.000000 1180.000000"
 preserveAspectRatio="xMidYMid meet">
<metadata>
Created by potrace 1.16, written by Peter Selinger 2001-2019
</metadata>
<g transform="translate(0.000000,1180.000000) scale(0.100000,-0.100000)"
fill="#000000" stroke="none">
<path d="M3010 11785 c-60 -19 -123 -74 -152 -133 l-23 -47 -5 -4867 -5 -4867
-82 122 c-563 837 -1450 1461 -2435 1712 -166 43 -198 42 -253 -6 -49 -43 -57
-81 -53 -251 4 -207 13 -217 243 -277 639 -168 1182 -480 1656 -951 421 -418
713 -889 899 -1449 59 -176 118 -423 141 -579 13 -91 34 -133 88 -169 40 -27
89 -29 137 -7 58 28 73 61 100 217 107 621 360 1185 756 1685 122 154 414 447
559 561 436 342 866 559 1374 692 230 60 239 70 243 277 4 170 -4 208 -53 251
-55 48 -87 49 -253 6 -985 -251 -1872 -875 -2435 -1712 l-82 -122 -5 4867 -5
4867 -23 47 c-58 118 -198 174 -332 133z"/>
</g>
</svg>
