<?xml version="1.0" standalone="no"?>
<!DOCTYPE svg PUBLIC "-//W3C//DTD SVG 20010904//EN"
 "http://www.w3.org/TR/2001/REC-SVG-20010904/DTD/svg10.dtd">
<svg version="1.0" xmlns="http://www.w3.org/2000/svg"
 width="713.000000pt" height="968.000000pt" viewBox="0 0 713.000000 968.000000"
 preserveAspectRatio="xMidYMid meet">
<metadata>
Created by potrace 1.16, written by Peter Selinger 2001-2019
</metadata>
<g transform="translate(0.000000,968.000000) scale(0.100000,-0.100000)"
fill="#000000" stroke="none">
<path d="M5317 9670 c-867 -78 -1775 -436 -2512 -992 -606 -457 -1004 -978
-1172 -1533 -73 -245 -101 -545 -70 -750 65 -417 302 -764 699 -1026 119 -78
331 -185 478 -241 22 -8 12 -15 -110 -80 -376 -196 -765 -458 -1111 -749 -174
-146 -515 -489 -650 -654 -451 -551 -728 -1109 -846 -1700 -25 -128 -25 -456
0 -574 65 -301 184 -520 401 -736 178 -177 360 -297 613 -407 364 -156 737
-228 1193 -228 599 0 1234 160 1875 475 845 414 1550 1007 2047 1720 81 117
100 158 96 213 -3 40 -8 49 -37 69 -111 75 -460 -33 -764 -237 -151 -100 -261
-209 -358 -351 -265 -387 -587 -693 -919 -872 -186 -100 -460 -187 -705 -223
-164 -25 -500 -24 -680 0 -266 36 -503 97 -697 180 -454 194 -767 526 -872
926 -62 233 -61 429 4 696 201 837 818 1641 1543 2010 361 184 756 283 1192
300 83 3 175 10 205 15 315 57 774 349 894 569 21 38 26 61 24 97 -3 41 -7 50
-37 70 -28 19 -47 23 -115 23 -121 0 -343 18 -501 41 -558 80 -1016 278 -1323
573 -87 83 -198 238 -257 359 -100 205 -138 417 -117 645 33 358 182 709 425
998 191 228 417 376 729 478 286 94 513 129 833 130 177 0 248 -5 363 -22 235
-37 500 -114 610 -178 118 -69 215 -213 246 -366 38 -186 2 -353 -125 -576
-71 -124 -87 -170 -75 -217 28 -111 305 -76 603 76 165 84 289 173 408 293 94
94 120 128 174 225 86 153 137 270 168 388 23 85 26 119 27 253 1 179 -10 234
-77 370 -56 116 -176 237 -295 299 -168 87 -425 164 -669 202 -156 23 -581 34
-756 19z"/>
</g>
</svg>
