<?xml version="1.0" standalone="no"?>
<!DOCTYPE svg PUBLIC "-//W3C//DTD SVG 20010904//EN"
 "http://www.w3.org/TR/2001/REC-SVG-20010904/DTD/svg10.dtd">
<svg version="1.0" xmlns="http://www.w3.org/2000/svg"
 width="754.000000pt" height="828.000000pt" viewBox="0 0 754.000000 828.000000"
 preserveAspectRatio="xMidYMid meet">
<metadata>
Created by potrace 1.16, written by Peter Selinger 2001-2019
</metadata>
<g transform="translate(0.000000,828.000000) scale(0.100000,-0.100000)"
fill="#000000" stroke="none">
<path d="M180 8263 c-27 -10 -65 -37 -97 -68 -92 -93 -83 348 -81 -4075 l3
-3915 27 -50 c91 -173 308 -207 444 -70 93 93 84 -327 84 3897 l0 3738 3205 0
3205 0 2 -3757 3 -3758 27 -50 c91 -173 308 -207 444 -70 93 93 84 -347 84
4055 0 4401 9 3962 -83 4055 -95 95 316 85 -3686 84 -3195 -1 -3540 -2 -3581
-16z"/>
</g>
</svg>
