<?xml version="1.0" standalone="no"?>
<!DOCTYPE svg PUBLIC "-//W3C//DTD SVG 20010904//EN"
 "http://www.w3.org/TR/2001/REC-SVG-20010904/DTD/svg10.dtd">
<svg version="1.0" xmlns="http://www.w3.org/2000/svg"
 width="922.000000pt" height="922.000000pt" viewBox="0 0 922.000000 922.000000"
 preserveAspectRatio="xMidYMid meet">
<metadata>
Created by potrace 1.16, written by Peter Selinger 2001-2019
</metadata>
<g transform="translate(0.000000,922.000000) scale(0.100000,-0.100000)"
fill="#000000" stroke="none">
<path d="M4280 9209 c-1118 -83 -2148 -555 -2935 -1343 -516 -516 -893 -1136
-1124 -1849 -94 -286 -156 -583 -198 -934 -24 -209 -24 -737 0 -946 71 -597
217 -1097 469 -1597 328 -654 789 -1202 1373 -1635 1068 -791 2428 -1083 3725
-799 1098 241 2083 885 2740 1792 412 570 704 1263 814 1939 51 310 60 427 60
773 0 346 -9 463 -60 773 -110 676 -402 1369 -814 1939 -432 596 -1007 1083
-1670 1413 -652 325 -1357 489 -2080 484 -107 -1 -242 -5 -300 -10z m600 -449
c327 -24 565 -66 881 -156 558 -158 1124 -464 1557 -842 l64 -55 -1389 -1389
-1388 -1388 -1387 1387 c-1338 1338 -1387 1388 -1370 1406 29 33 242 201 362
287 209 149 546 336 785 435 603 250 1263 361 1885 315z m-1980 -2765 l1385
-1385 -1385 -1385 c-762 -762 -1388 -1385 -1391 -1385 -11 0 -189 217 -272
332 -300 412 -544 943 -668 1453 -83 344 -113 607 -113 985 0 298 8 408 50
670 115 722 436 1428 903 1988 51 61 96 112 100 112 3 0 629 -623 1391 -1385z
m4901 1273 c398 -477 691 -1062 840 -1673 83 -344 113 -607 113 -985 0 -298
-8 -408 -50 -670 -115 -722 -436 -1428 -903 -1987 -51 -62 -96 -113 -100 -113
-3 0 -629 623 -1391 1385 l-1385 1385 1385 1385 c762 762 1388 1385 1391 1385
4 0 49 -51 100 -112z m-439 -5771 c-9 -11 -69 -61 -132 -112 -751 -607 -1672
-935 -2625 -935 -389 0 -759 53 -1156 166 -558 158 -1124 464 -1557 842 l-64
55 1389 1389 1388 1388 1387 -1387 c1338 -1338 1387 -1388 1370 -1406z"/>
</g>
</svg>
