<?xml version="1.0" standalone="no"?>
<!DOCTYPE svg PUBLIC "-//W3C//DTD SVG 20010904//EN"
 "http://www.w3.org/TR/2001/REC-SVG-20010904/DTD/svg10.dtd">
<svg version="1.0" xmlns="http://www.w3.org/2000/svg"
 width="1085.000000pt" height="1014.000000pt" viewBox="0 0 1085.000000 1014.000000"
 preserveAspectRatio="xMidYMid meet">
<metadata>
Created by potrace 1.16, written by Peter Selinger 2001-2019
</metadata>
<g transform="translate(0.000000,1014.000000) scale(0.100000,-0.100000)"
fill="#000000" stroke="none">
<path d="M3905 10129 c-934 -70 -1830 -407 -2585 -973 -455 -341 -801 -719
-1085 -1186 -86 -141 -222 -413 -230 -459 -8 -51 9 -87 55 -119 33 -23 41 -24
145 -19 88 4 130 11 210 37 237 77 426 182 629 349 114 94 175 174 257 335
183 364 405 659 630 839 249 200 645 315 1201 349 176 11 207 10 295 -5 251
-44 412 -200 460 -446 15 -77 15 -96 -1 -280 -83 -933 -246 -1876 -497 -2871
-43 -173 -79 -315 -79 -316 0 -2 -141 -4 -312 -6 -305 -4 -315 -5 -400 -31
-363 -112 -749 -382 -858 -601 -48 -95 -37 -162 32 -197 36 -18 66 -19 671
-19 l635 0 -40 -137 c-368 -1283 -798 -2568 -1277 -3817 -69 -181 -111 -303
-111 -326 0 -72 66 -120 165 -120 337 0 939 352 1081 632 49 96 330 843 541
1438 218 615 541 1603 708 2167 l48 163 1606 2 1606 3 85 27 c47 14 121 42
166 61 l81 34 -29 -106 c-315 -1161 -517 -2188 -627 -3176 -58 -527 -62 -651
-25 -790 37 -140 121 -277 226 -369 66 -58 220 -138 318 -166 224 -64 893 -12
1365 106 556 140 1104 439 1460 798 169 171 282 337 354 521 77 196 77 266 0
306 -44 22 -154 26 -241 8 -288 -58 -693 -294 -871 -506 -52 -62 -87 -124
-106 -188 -7 -22 -22 -63 -33 -92 -19 -50 -22 -52 -70 -63 -150 -32 -430 -62
-593 -63 -178 -1 -294 40 -396 142 -87 88 -141 208 -154 348 -7 72 8 263 51
633 90 790 238 1600 439 2409 430 1728 1009 3564 1671 5293 139 363 142 393
54 438 -151 77 -570 -64 -891 -301 -107 -78 -246 -220 -282 -286 -30 -57 -116
-275 -279 -713 -388 -1043 -771 -2196 -1083 -3262 l-58 -198 -1749 0 c-961 0
-1748 3 -1748 7 0 3 30 117 66 252 280 1044 441 1802 558 2631 59 411 116 958
116 1102 0 265 -143 525 -358 651 -94 55 -222 105 -311 121 -91 18 -405 20
-606 5z"/>
</g>
</svg>
