<?xml version="1.0" standalone="no"?>
<!DOCTYPE svg PUBLIC "-//W3C//DTD SVG 20010904//EN"
 "http://www.w3.org/TR/2001/REC-SVG-20010904/DTD/svg10.dtd">
<svg version="1.0" xmlns="http://www.w3.org/2000/svg"
 width="974.000000pt" height="1008.000000pt" viewBox="0 0 974.000000 1008.000000"
 preserveAspectRatio="xMidYMid meet">
<metadata>
Created by potrace 1.16, written by Peter Selinger 2001-2019
</metadata>
<g transform="translate(0.000000,1008.000000) scale(0.100000,-0.100000)"
fill="#000000" stroke="none">
<path d="M3271 10065 c-35 -8 -100 -26 -145 -41 -85 -28 -1270 -618 -1416
-704 -335 -200 -549 -470 -460 -582 33 -42 69 -51 188 -46 156 7 297 57 608
215 155 78 244 118 244 110 0 -8 -9 -131 -20 -273 -84 -1067 -241 -2019 -511
-3098 -427 -1706 -968 -3417 -1640 -5183 -66 -172 -119 -326 -119 -342 0 -213
446 -136 882 151 135 90 305 249 351 328 15 25 78 180 140 345 669 1754 1230
3527 1656 5231 313 1250 488 2403 551 3618 11 207 8 222 -43 260 -36 27 -171
32 -266 11z"/>
<path d="M8690 10069 c-109 -14 -304 -58 -443 -99 -1249 -375 -3442 -1767
-4517 -2866 -383 -391 -599 -707 -671 -981 -199 -751 703 -3235 1733 -4770
450 -672 826 -1050 1242 -1253 163 -80 210 -91 398 -97 468 -16 1048 99 1522
302 841 359 1445 944 1657 1604 57 177 49 236 -37 291 -43 27 -56 30 -129 30
-244 0 -551 -174 -672 -380 -11 -19 -35 -82 -53 -140 -56 -182 -129 -315 -253
-461 -268 -314 -788 -531 -1352 -564 -169 -10 -321 30 -482 127 -200 121 -506
430 -762 772 -644 858 -1359 2345 -1716 3566 -160 550 -233 996 -195 1201 97
525 1841 1900 3395 2677 393 196 732 328 930 361 60 10 83 9 150 -4 44 -9 103
-28 132 -41 103 -49 198 -186 228 -329 20 -96 19 -168 -6 -285 -20 -99 -20
-100 0 -144 14 -32 33 -54 68 -76 46 -30 51 -31 133 -26 114 7 197 29 307 82
160 76 307 204 364 316 11 21 29 77 41 125 32 126 31 362 0 478 -47 171 -149
325 -277 423 -95 72 -233 138 -327 156 -84 17 -295 20 -408 5z"/>
</g>
</svg>
