<?xml version="1.0" standalone="no"?>
<!DOCTYPE svg PUBLIC "-//W3C//DTD SVG 20010904//EN"
 "http://www.w3.org/TR/2001/REC-SVG-20010904/DTD/svg10.dtd">
<svg version="1.0" xmlns="http://www.w3.org/2000/svg"
 width="885.000000pt" height="997.000000pt" viewBox="0 0 885.000000 997.000000"
 preserveAspectRatio="xMidYMid meet">
<metadata>
Created by potrace 1.16, written by Peter Selinger 2001-2019
</metadata>
<g transform="translate(0.000000,997.000000) scale(0.100000,-0.100000)"
fill="#000000" stroke="none">
<path d="M1966 9959 c-972 -102 -1627 -787 -1861 -1943 -66 -331 -93 -577
-102 -956 -12 -526 44 -911 202 -1385 246 -739 691 -1439 1436 -2260 203 -224
768 -791 1159 -1163 446 -422 663 -687 915 -1112 139 -234 339 -658 431 -910
15 -41 40 -93 55 -116 78 -116 249 -147 369 -68 53 35 89 89 124 184 92 252
292 676 431 910 252 425 469 690 915 1112 391 372 956 939 1159 1163 1050
1157 1549 2143 1632 3225 14 188 6 616 -16 840 -105 1061 -460 1786 -1070
2182 -308 200 -697 308 -1114 308 -631 0 -1238 -266 -1702 -747 -175 -181
-347 -418 -454 -626 -27 -53 -52 -97 -55 -97 -3 0 -27 44 -55 97 -107 208
-279 445 -454 626 -470 487 -1081 752 -1721 746 -80 -1 -181 -5 -224 -10z
m454 -543 c468 -56 913 -314 1233 -715 144 -181 292 -443 368 -650 47 -131 95
-315 119 -457 24 -143 35 -171 89 -227 58 -62 104 -82 191 -82 87 0 134 19
190 75 51 51 66 89 90 233 41 248 109 459 219 683 137 280 329 530 545 712
426 356 953 506 1471 417 653 -112 1077 -604 1265 -1468 100 -460 127 -1089
64 -1510 -111 -751 -492 -1502 -1172 -2314 -372 -443 -625 -703 -1536 -1578
-121 -115 -271 -268 -334 -340 -270 -307 -508 -661 -723 -1072 -41 -79 -76
-143 -79 -143 -3 0 -38 64 -79 143 -215 411 -453 765 -723 1072 -63 72 -213
225 -334 340 -911 875 -1164 1135 -1536 1578 -680 812 -1061 1563 -1172 2314
-63 421 -36 1050 64 1510 170 780 530 1256 1077 1422 54 16 123 35 154 41 155
30 373 37 549 16z"/>
</g>
</svg>
