<?xml version="1.0" standalone="no"?>
<!DOCTYPE svg PUBLIC "-//W3C//DTD SVG 20010904//EN"
 "http://www.w3.org/TR/2001/REC-SVG-20010904/DTD/svg10.dtd">
<svg version="1.0" xmlns="http://www.w3.org/2000/svg"
 width="311.000000pt" height="684.000000pt" viewBox="0 0 311.000000 684.000000"
 preserveAspectRatio="xMidYMid meet">
<metadata>
Created by potrace 1.16, written by Peter Selinger 2001-2019
</metadata>
<g transform="translate(0.000000,684.000000) scale(0.100000,-0.100000)"
fill="#000000" stroke="none">
<path d="M2130 6816 c-200 -60 -345 -184 -436 -372 -51 -106 -1699 -6171
-1690 -6220 13 -65 37 -79 251 -154 228 -80 268 -85 315 -42 25 22 246 535
1255 2920 674 1592 1234 2924 1246 2960 30 93 38 283 15 372 -22 88 -76 198
-131 270 -92 120 -264 228 -431 270 -112 29 -292 27 -394 -4z"/>
</g>
</svg>
