<?xml version="1.0" standalone="no"?>
<!DOCTYPE svg PUBLIC "-//W3C//DTD SVG 20010904//EN"
 "http://www.w3.org/TR/2001/REC-SVG-20010904/DTD/svg10.dtd">
<svg version="1.0" xmlns="http://www.w3.org/2000/svg"
 width="692.000000pt" height="961.000000pt" viewBox="0 0 692.000000 961.000000"
 preserveAspectRatio="xMidYMid meet">
<metadata>
Created by potrace 1.16, written by Peter Selinger 2001-2019
</metadata>
<g transform="translate(0.000000,961.000000) scale(0.100000,-0.100000)"
fill="#000000" stroke="none">
<path d="M335 9598 c-36 -19 -106 -92 -147 -152 -80 -117 -133 -258 -164 -441
-21 -127 -30 -502 -14 -602 39 -245 203 -567 466 -914 146 -193 262 -328 734
-859 135 -152 251 -283 258 -292 11 -14 5 -29 -41 -105 -263 -426 -534 -941
-682 -1298 -139 -334 -256 -727 -309 -1035 -41 -236 -51 -352 -50 -600 0 -207
3 -248 23 -340 51 -237 140 -465 303 -780 314 -604 381 -754 432 -960 53 -218
59 -400 16 -492 -88 -188 -393 -295 -898 -315 -183 -7 -213 -16 -244 -74 -14
-26 -18 -56 -18 -134 0 -113 14 -150 72 -185 32 -19 52 -20 699 -20 381 0 711
4 770 10 474 47 845 232 1002 501 144 245 127 588 -47 944 -99 201 -211 354
-575 781 -316 373 -441 578 -497 819 -16 69 -19 120 -18 370 3 899 145 1701
416 2358 22 53 44 97 49 97 8 0 3790 -4238 3909 -4380 177 -211 330 -441 425
-635 104 -214 157 -406 176 -637 14 -155 27 -190 84 -214 70 -29 112 -15 186
63 120 126 195 294 235 528 21 127 30 502 14 602 -48 299 -261 675 -643 1137
-112 134 -117 140 -516 590 l-284 318 7 122 c23 402 96 912 271 1879 107 589
166 945 200 1212 14 116 29 224 33 240 l8 30 64 -80 c217 -273 323 -524 346
-827 7 -101 27 -142 79 -164 70 -29 112 -15 186 63 94 98 163 228 204 385 41
160 49 239 49 513 1 258 1 261 -27 350 -16 50 -46 125 -67 168 -89 178 -139
234 -667 747 -209 204 -214 210 -490 645 -331 522 -501 832 -519 945 -9 55
-39 99 -79 116 -70 29 -112 15 -186 -63 -94 -98 -163 -228 -204 -385 -41 -159
-49 -239 -49 -508 -1 -251 0 -256 27 -345 35 -114 109 -266 182 -375 104 -156
206 -273 435 -500 l226 -225 -8 -105 c-33 -455 -97 -892 -264 -1813 -105 -581
-176 -1011 -209 -1272 -14 -110 -27 -203 -28 -206 -2 -7 -3721 4160 -3841
4304 -388 464 -571 850 -607 1279 -9 101 -17 146 -31 169 -30 49 -114 74 -163
47z"/>
</g>
</svg>
