<?xml version="1.0" standalone="no"?>
<!DOCTYPE svg PUBLIC "-//W3C//DTD SVG 20010904//EN"
 "http://www.w3.org/TR/2001/REC-SVG-20010904/DTD/svg10.dtd">
<svg version="1.0" xmlns="http://www.w3.org/2000/svg"
 width="769.000000pt" height="992.000000pt" viewBox="0 0 769.000000 992.000000"
 preserveAspectRatio="xMidYMid meet">
<metadata>
Created by potrace 1.16, written by Peter Selinger 2001-2019
</metadata>
<g transform="translate(0.000000,992.000000) scale(0.100000,-0.100000)"
fill="#000000" stroke="none">
<path d="M210 9911 c-83 -26 -141 -74 -181 -151 -19 -36 -23 -60 -23 -120 l0
-75 1794 -4715 1795 -4715 50 -51 c112 -113 278 -113 390 0 l50 51 1794 4715
c1196 3146 1794 4732 1798 4766 9 83 -18 157 -80 219 -90 90 -211 109 -323 52
-60 -31 -94 -67 -126 -132 -14 -27 -294 -760 -624 -1627 l-599 -1578 -2085 0
-2085 0 -615 1618 -615 1617 -50 51 c-72 72 -176 102 -265 75z m5498 -3930
c-49 -138 -1865 -4901 -1868 -4901 -3 0 -1819 4763 -1868 4901 -2 5 710 9
1868 9 1158 0 1870 -4 1868 -9z"/>
</g>
</svg>
