<?xml version="1.0" standalone="no"?>
<!DOCTYPE svg PUBLIC "-//W3C//DTD SVG 20010904//EN"
 "http://www.w3.org/TR/2001/REC-SVG-20010904/DTD/svg10.dtd">
<svg version="1.0" xmlns="http://www.w3.org/2000/svg"
 width="664.000000pt" height="922.000000pt" viewBox="0 0 664.000000 922.000000"
 preserveAspectRatio="xMidYMid meet">
<metadata>
Created by potrace 1.16, written by Peter Selinger 2001-2019
</metadata>
<g transform="translate(0.000000,922.000000) scale(0.100000,-0.100000)"
fill="#000000" stroke="none">
<path d="M310 9209 c-56 -23 -143 -132 -200 -251 -77 -160 -110 -358 -110
-653 0 -221 33 -350 144 -570 154 -303 363 -576 986 -1284 165 -188 300 -346
300 -351 0 -5 -39 -73 -86 -152 -658 -1089 -945 -1883 -971 -2683 -7 -217 5
-338 53 -525 50 -196 125 -375 307 -730 268 -526 317 -634 371 -822 59 -203
71 -435 29 -530 -43 -96 -160 -181 -318 -233 -147 -48 -427 -85 -639 -85 -132
0 -176 -41 -176 -167 0 -84 21 -131 70 -156 33 -17 78 -17 720 -14 741 4 754
5 984 63 382 96 619 288 695 564 40 144 22 370 -46 570 -82 243 -222 456 -582
889 -240 289 -339 428 -419 586 -108 218 -126 324 -118 690 17 746 111 1367
292 1910 59 180 165 441 177 438 7 -2 3266 -3701 3680 -4178 457 -525 658
-918 684 -1339 7 -119 22 -154 74 -182 39 -20 101 -14 138 14 89 65 194 251
235 413 45 179 62 548 31 694 -52 243 -193 507 -458 855 -144 189 -245 309
-631 749 l-320 365 18 209 c38 475 83 770 300 1977 88 494 175 1073 176 1179
l1 36 50 -55 c28 -30 78 -94 112 -142 176 -248 258 -459 274 -705 7 -105 23
-142 74 -169 39 -20 101 -14 138 14 89 65 194 251 236 414 52 207 60 623 15
778 -70 243 -193 409 -554 748 -123 117 -260 254 -303 305 -79 96 -329 480
-547 842 -141 235 -272 488 -281 542 -16 98 -67 148 -144 140 -53 -6 -81 -26
-145 -103 -148 -180 -215 -460 -204 -857 4 -154 6 -167 41 -269 43 -128 85
-213 164 -333 115 -175 323 -412 565 -644 l97 -93 -5 -67 c-43 -527 -96 -899
-254 -1776 -127 -705 -191 -1103 -221 -1378 -7 -64 -16 -116 -20 -115 -6 3
-3265 3704 -3612 4103 -456 524 -657 916 -683 1336 -4 57 -13 117 -21 132 -28
55 -101 80 -163 56z"/>
</g>
</svg>
