<?xml version="1.0" standalone="no"?>
<!DOCTYPE svg PUBLIC "-//W3C//DTD SVG 20010904//EN"
 "http://www.w3.org/TR/2001/REC-SVG-20010904/DTD/svg10.dtd">
<svg version="1.0" xmlns="http://www.w3.org/2000/svg"
 width="885.000000pt" height="886.000000pt" viewBox="0 0 885.000000 886.000000"
 preserveAspectRatio="xMidYMid meet">
<metadata>
Created by potrace 1.16, written by Peter Selinger 2001-2019
</metadata>
<g transform="translate(0.000000,886.000000) scale(0.100000,-0.100000)"
fill="#000000" stroke="none">
<path d="M4165 8854 c-22 -2 -96 -9 -165 -15 -493 -43 -1023 -192 -1495 -418
-1527 -734 -2505 -2292 -2505 -3991 0 -1489 753 -2886 1996 -3702 601 -395
1268 -631 2009 -710 157 -17 673 -17 830 0 741 79 1408 315 2009 710 1243 816
1996 2213 1996 3702 0 1489 -753 2886 -1996 3702 -589 387 -1236 620 -1954
704 -127 14 -631 27 -725 18z m75 -2299 l0 -1935 -1931 0 -1932 0 7 115 c4 63
17 188 30 277 167 1144 807 2161 1761 2795 599 399 1288 630 2010 676 28 2 51
4 53 5 1 1 2 -869 2 -1933z m623 1909 c989 -108 1929 -594 2577 -1331 389
-443 658 -915 838 -1474 89 -274 162 -655 178 -924 l7 -115 -1927 0 -1926 0 0
1930 0 1930 55 0 c31 0 120 -7 198 -16z m-623 -6151 l0 -1938 -52 3 c-391 20
-824 113 -1208 259 -869 331 -1598 954 -2066 1764 -302 523 -498 1165 -530
1731 l-7 118 1931 0 1932 0 0 -1937z m4216 1819 c-20 -369 -127 -833 -277
-1209 -481 -1210 -1517 -2115 -2784 -2432 -232 -58 -580 -111 -730 -111 l-55
0 0 1935 0 1935 1927 0 1926 0 -7 -118z"/>
</g>
</svg>
