<?xml version="1.0" standalone="no"?>
<!DOCTYPE svg PUBLIC "-//W3C//DTD SVG 20010904//EN"
 "http://www.w3.org/TR/2001/REC-SVG-20010904/DTD/svg10.dtd">
<svg version="1.0" xmlns="http://www.w3.org/2000/svg"
 width="345.000000pt" height="1384.000000pt" viewBox="0 0 345.000000 1384.000000"
 preserveAspectRatio="xMidYMid meet">
<metadata>
Created by potrace 1.16, written by Peter Selinger 2001-2019
</metadata>
<g transform="translate(0.000000,1384.000000) scale(0.100000,-0.100000)"
fill="#000000" stroke="none">
<path d="M3090 13831 c-83 -26 -141 -74 -181 -151 l-24 -45 -3 -6537 -2 -6538
-1338 -2 -1337 -3 -55 -31 c-98 -56 -160 -171 -146 -273 13 -98 68 -175 160
-224 l41 -22 1500 -3 c1705 -3 1558 -10 1651 83 39 39 56 66 68 105 15 49 16
670 16 6730 0 6060 -1 6681 -16 6730 -21 70 -98 149 -168 173 -51 18 -123 21
-166 8z"/>
</g>
</svg>
