<?xml version="1.0" standalone="no"?>
<!DOCTYPE svg PUBLIC "-//W3C//DTD SVG 20010904//EN"
 "http://www.w3.org/TR/2001/REC-SVG-20010904/DTD/svg10.dtd">
<svg version="1.0" xmlns="http://www.w3.org/2000/svg"
 width="1065.000000pt" height="992.000000pt" viewBox="0 0 1065.000000 992.000000"
 preserveAspectRatio="xMidYMid meet">
<metadata>
Created by potrace 1.16, written by Peter Selinger 2001-2019
</metadata>
<g transform="translate(0.000000,992.000000) scale(0.100000,-0.100000)"
fill="#000000" stroke="none">
<path d="M210 9911 c-83 -26 -141 -74 -181 -151 -19 -36 -24 -61 -23 -120 0
-68 3 -82 41 -155 23 -44 1166 -2170 2542 -4725 2188 -4064 2506 -4650 2546
-4687 106 -97 264 -97 370 0 40 37 362 630 2580 4750 1394 2589 2539 4724
2545 4745 14 52 13 100 -6 162 -21 70 -98 149 -168 173 -46 16 -402 17 -5135
16 -2797 0 -5097 -4 -5111 -8z m9623 -659 c-563 -1052 -4509 -8372 -4513
-8372 -4 0 -3950 7320 -4513 8372 l-58 108 4571 0 4571 0 -58 -108z"/>
</g>
</svg>
