<?xml version="1.0" standalone="no"?>
<!DOCTYPE svg PUBLIC "-//W3C//DTD SVG 20010904//EN"
 "http://www.w3.org/TR/2001/REC-SVG-20010904/DTD/svg10.dtd">
<svg version="1.0" xmlns="http://www.w3.org/2000/svg"
 width="772.000000pt" height="1143.000000pt" viewBox="0 0 772.000000 1143.000000"
 preserveAspectRatio="xMidYMid meet">
<metadata>
Created by potrace 1.16, written by Peter Selinger 2001-2019
</metadata>
<g transform="translate(0.000000,1143.000000) scale(0.100000,-0.100000)"
fill="#000000" stroke="none">
<path d="M5640 11423 c-815 -56 -1518 -250 -2260 -624 -966 -486 -1772 -1200
-2355 -2083 -661 -1003 -1051 -2306 -1022 -3416 15 -568 119 -1031 327 -1455
195 -398 439 -680 775 -898 167 -107 429 -221 628 -272 237 -61 326 -70 667
-70 266 0 325 3 460 23 476 71 904 207 1375 437 274 134 638 356 860 523 44
33 81 59 82 58 4 -4 -82 -255 -164 -481 -336 -928 -712 -1613 -1098 -2001 -94
-94 -134 -127 -185 -152 -128 -61 -326 -82 -610 -63 -616 42 -1154 184 -1627
432 -171 90 -185 92 -349 64 -289 -51 -617 -227 -845 -454 -136 -137 -189
-224 -189 -316 0 -84 22 -107 185 -191 632 -330 1288 -484 2060 -484 506 0
938 102 1424 336 935 450 1637 1201 2174 2324 410 858 728 1833 1168 3585 84
335 110 450 106 483 -20 181 -344 176 -727 -11 -264 -128 -524 -348 -608 -514
-12 -23 -35 -93 -52 -155 -119 -440 -307 -850 -575 -1253 -265 -399 -608 -757
-923 -962 -437 -286 -951 -361 -1507 -218 -206 53 -350 115 -511 223 -270 181
-480 431 -644 767 -149 305 -228 587 -277 995 -25 205 -24 691 0 920 102 938
455 1898 958 2602 196 274 466 569 679 740 421 338 934 539 1542 602 329 35
595 30 889 -14 253 -38 549 -119 632 -172 176 -113 263 -355 211 -591 -46
-210 -367 -749 -659 -1107 -89 -109 -125 -165 -147 -228 -35 -100 -10 -165 83
-213 88 -45 325 -8 539 82 280 120 484 272 675 504 275 335 534 732 719 1103
100 203 119 249 152 377 93 369 -20 727 -293 921 -198 142 -626 258 -1077 294
-116 9 -551 11 -666 3z"/>
</g>
</svg>
