<?xml version="1.0" standalone="no"?>
<!DOCTYPE svg PUBLIC "-//W3C//DTD SVG 20010904//EN"
 "http://www.w3.org/TR/2001/REC-SVG-20010904/DTD/svg10.dtd">
<svg version="1.0" xmlns="http://www.w3.org/2000/svg"
 width="885.000000pt" height="1184.000000pt" viewBox="0 0 885.000000 1184.000000"
 preserveAspectRatio="xMidYMid meet">
<metadata>
Created by potrace 1.16, written by Peter Selinger 2001-2019
</metadata>
<g transform="translate(0.000000,1184.000000) scale(0.100000,-0.100000)"
fill="#000000" stroke="none">
<path d="M4341 11829 c-50 -15 -116 -64 -139 -101 -11 -18 -81 -154 -157 -303
-1032 -2026 -2243 -3680 -3723 -5088 -170 -162 -281 -275 -295 -301 -31 -58
-31 -174 0 -232 14 -26 125 -139 295 -301 1488 -1415 2706 -3083 3741 -5123
139 -274 170 -320 242 -355 55 -27 175 -27 230 0 72 35 103 81 242 355 853
1681 1800 3066 2973 4345 200 219 658 679 870 875 85 79 165 158 178 177 52
77 52 209 0 286 -13 19 -93 98 -178 177 -212 196 -670 656 -870 875 -1173
1279 -2120 2664 -2973 4345 -139 274 -170 320 -242 354 -46 22 -146 30 -194
15z m189 -1066 c712 -1337 1564 -2583 2495 -3648 261 -298 468 -519 806 -858
l337 -337 -337 -338 c-338 -338 -545 -559 -806 -857 -931 -1065 -1783 -2311
-2495 -3648 -58 -108 -107 -197 -110 -197 -3 0 -52 89 -110 197 -712 1337
-1564 2583 -2495 3648 -261 298 -468 519 -806 857 l-337 338 337 337 c338 339
545 560 806 858 931 1065 1783 2311 2495 3648 58 108 107 197 110 197 3 0 52
-89 110 -197z"/>
</g>
</svg>
