<?xml version="1.0" standalone="no"?>
<!DOCTYPE svg PUBLIC "-//W3C//DTD SVG 20010904//EN"
 "http://www.w3.org/TR/2001/REC-SVG-20010904/DTD/svg10.dtd">
<svg version="1.0" xmlns="http://www.w3.org/2000/svg"
 width="885.000000pt" height="568.000000pt" viewBox="0 0 885.000000 568.000000"
 preserveAspectRatio="xMidYMid meet">
<metadata>
Created by potrace 1.16, written by Peter Selinger 2001-2019
</metadata>
<g transform="translate(0.000000,568.000000) scale(0.100000,-0.100000)"
fill="#000000" stroke="none">
<path d="M1985 5669 c-536 -55 -1033 -292 -1396 -665 -318 -328 -519 -771
-574 -1265 -28 -248 -15 -409 41 -524 74 -151 193 -152 267 -2 37 76 46 121
57 282 12 185 43 306 119 460 78 158 156 263 310 416 561 558 1452 703 2291
372 340 -134 597 -279 1270 -718 686 -447 928 -583 1295 -728 701 -277 1378
-260 2000 50 656 327 1076 939 1160 1694 31 278 13 442 -62 562 -25 40 -76 77
-106 77 -39 0 -90 -34 -119 -79 -46 -74 -68 -161 -78 -316 -12 -186 -43 -305
-119 -460 -78 -158 -156 -263 -310 -416 -561 -558 -1452 -703 -2291 -372 -340
134 -597 279 -1270 718 -686 447 -928 583 -1295 728 -402 159 -819 224 -1190
186z"/>
<path d="M1985 2569 c-536 -55 -1033 -292 -1396 -665 -318 -328 -519 -771
-574 -1265 -28 -248 -15 -409 41 -524 74 -151 193 -152 267 -2 37 76 46 121
57 282 12 185 43 306 119 460 78 158 156 263 310 416 561 558 1452 703 2291
372 340 -134 597 -279 1270 -718 686 -447 928 -583 1295 -728 701 -277 1378
-260 2000 50 660 329 1075 938 1161 1704 29 256 8 436 -64 550 -27 41 -80 79
-112 79 -32 0 -85 -38 -112 -79 -46 -74 -68 -161 -78 -316 -12 -186 -43 -305
-119 -460 -78 -158 -156 -263 -310 -416 -561 -558 -1452 -703 -2291 -372 -340
134 -597 279 -1270 718 -686 447 -928 583 -1295 728 -402 159 -819 224 -1190
186z"/>
</g>
</svg>
