<?xml version="1.0" standalone="no"?>
<!DOCTYPE svg PUBLIC "-//W3C//DTD SVG 20010904//EN"
 "http://www.w3.org/TR/2001/REC-SVG-20010904/DTD/svg10.dtd">
<svg version="1.0" xmlns="http://www.w3.org/2000/svg"
 width="933.000000pt" height="1023.000000pt" viewBox="0 0 933.000000 1023.000000"
 preserveAspectRatio="xMidYMid meet">
<metadata>
Created by potrace 1.16, written by Peter Selinger 2001-2019
</metadata>
<g transform="translate(0.000000,1023.000000) scale(0.100000,-0.100000)"
fill="#000000" stroke="none">
<path d="M6895 10223 c-1015 -61 -1864 -317 -2515 -757 -257 -174 -504 -405
-664 -623 l-90 -122 -44 77 c-73 129 -207 325 -301 439 -357 436 -786 711
-1253 805 -152 30 -438 33 -568 4 -466 -101 -828 -384 -1059 -827 -130 -249
-211 -578 -211 -858 0 -261 82 -503 259 -767 95 -142 200 -269 416 -504 464
-503 610 -725 682 -1030 33 -143 26 -816 -13 -1150 -50 -437 -162 -693 -345
-785 -70 -36 -190 -52 -262 -36 -165 36 -264 262 -283 639 -11 213 -29 232
-229 232 -148 0 -179 -11 -208 -73 -51 -107 17 -523 121 -741 66 -137 114
-206 204 -292 141 -134 300 -191 502 -181 245 12 438 99 607 273 251 259 394
692 450 1359 7 77 13 284 13 460 1 299 -1 327 -22 428 -55 254 -155 484 -321
733 -133 200 -270 362 -556 654 -261 267 -352 378 -420 512 -62 124 -79 210
-72 372 21 508 273 941 649 1115 261 121 542 103 764 -50 114 -78 263 -247
356 -404 263 -442 383 -983 418 -1875 13 -335 13 -4022 0 -4470 -21 -712 -67
-1151 -155 -1488 -102 -388 -225 -651 -362 -772 -27 -24 -77 -57 -113 -74 -62
-30 -70 -31 -185 -30 -193 2 -347 47 -510 149 -298 187 -527 486 -698 912
l-44 109 124 49 c160 63 195 101 178 192 -5 27 -25 55 -73 106 -109 112 -134
118 -281 60 -52 -21 -96 -33 -98 -28 -2 6 -18 44 -36 85 -38 88 -76 120 -142
120 -50 0 -92 -28 -181 -121 -80 -84 -91 -118 -64 -195 11 -32 20 -59 20 -60
0 -1 -37 -16 -82 -34 -143 -57 -158 -67 -180 -117 -18 -40 -19 -51 -8 -86 13
-44 115 -158 162 -183 42 -22 99 -17 178 16 41 17 77 27 81 23 4 -5 30 -65 58
-136 274 -689 747 -1129 1346 -1252 128 -26 332 -31 455 -10 299 50 535 180
790 435 221 221 358 419 535 772 288 576 446 1170 521 1958 14 142 18 334 21
1022 l5 848 781 0 782 0 85 -1505 84 -1505 -19 -92 c-24 -118 -32 -407 -15
-531 85 -623 530 -1152 1128 -1341 180 -57 260 -68 527 -73 234 -4 252 -3 280
15 17 10 320 254 675 541 397 322 652 534 663 554 22 41 22 83 -1 126 -14 25
-49 52 -143 107 -157 93 -185 102 -242 75 -24 -12 -255 -209 -547 -469 l-505
-449 -77 60 c-274 210 -458 530 -509 885 -16 115 -6 372 19 481 l19 84 -88
1566 c-49 861 -89 1576 -89 1588 0 17 11 26 58 43 202 75 526 225 842 390 479
249 1411 764 1427 789 12 17 18 44 17 76 0 47 -61 160 -1005 1889 -910 1666
-1007 1840 -1039 1857 -30 16 -55 19 -180 17 -80 -1 -167 -3 -195 -5z m214
-2279 c502 -921 912 -1676 910 -1678 -2 -2 -98 -53 -214 -115 -471 -251 -844
-422 -1100 -504 -251 -80 -188 -77 -1436 -77 l-1107 0 -5 643 c-3 497 -8 675
-21 787 -42 381 -94 640 -192 964 l-46 149 18 46 c114 305 376 621 710 858
289 205 680 383 1094 498 136 38 420 103 455 104 16 1 181 -295 934 -1675z"/>
</g>
</svg>
