<?xml version="1.0" standalone="no"?>
<!DOCTYPE svg PUBLIC "-//W3C//DTD SVG 20010904//EN"
 "http://www.w3.org/TR/2001/REC-SVG-20010904/DTD/svg10.dtd">
<svg version="1.0" xmlns="http://www.w3.org/2000/svg"
 width="615.000000pt" height="961.000000pt" viewBox="0 0 615.000000 961.000000"
 preserveAspectRatio="xMidYMid meet">
<metadata>
Created by potrace 1.16, written by Peter Selinger 2001-2019
</metadata>
<g transform="translate(0.000000,961.000000) scale(0.100000,-0.100000)"
fill="#000000" stroke="none">
<path d="M180 9593 c-66 -24 -144 -106 -164 -173 -33 -112 -11 -206 67 -285
95 -94 -204 -85 2824 -85 l2673 0 0 -1980 0 -1980 -2582 -2 -2583 -3 -53 -24
c-97 -44 -172 -155 -172 -256 0 -98 72 -208 165 -251 l50 -24 2588 0 2587 0 0
-1985 0 -1985 -2673 0 c-3028 0 -2729 9 -2824 -85 -111 -112 -111 -278 0 -390
95 -94 -225 -85 2987 -85 3212 0 2892 -9 2987 85 38 39 55 66 67 105 15 49 16
484 16 4615 0 4131 -1 4566 -16 4615 -12 39 -29 66 -67 105 -95 94 226 85
-2991 84 -2561 -1 -2845 -2 -2886 -16z"/>
</g>
</svg>
