<?xml version="1.0" standalone="no"?>
<!DOCTYPE svg PUBLIC "-//W3C//DTD SVG 20010904//EN"
 "http://www.w3.org/TR/2001/REC-SVG-20010904/DTD/svg10.dtd">
<svg version="1.0" xmlns="http://www.w3.org/2000/svg"
 width="1025.000000pt" height="992.000000pt" viewBox="0 0 1025.000000 992.000000"
 preserveAspectRatio="xMidYMid meet">
<metadata>
Created by potrace 1.16, written by Peter Selinger 2001-2019
</metadata>
<g transform="translate(0.000000,992.000000) scale(0.100000,-0.100000)"
fill="#000000" stroke="none">
<path d="M63 9910 c-27 -11 -63 -66 -63 -97 0 -28 4753 -9665 4791 -9714 15
-19 51 -48 81 -65 l53 -29 195 0 195 0 53 29 c30 17 66 46 81 65 38 48 4791
9686 4791 9714 0 32 -36 86 -66 97 -33 13 -10080 12 -10111 0z m9033 -1262
c-187 -387 -3558 -7213 -3565 -7221 -6 -6 -3661 7386 -3661 7406 0 4 1647 7
3660 7 l3659 0 -93 -192z"/>
</g>
</svg>
