<?xml version="1.0" standalone="no"?>
<!DOCTYPE svg PUBLIC "-//W3C//DTD SVG 20010904//EN"
 "http://www.w3.org/TR/2001/REC-SVG-20010904/DTD/svg10.dtd">
<svg version="1.0" xmlns="http://www.w3.org/2000/svg"
 width="553.000000pt" height="1240.000000pt" viewBox="0 0 553.000000 1240.000000"
 preserveAspectRatio="xMidYMid meet">
<metadata>
Created by potrace 1.16, written by Peter Selinger 2001-2019
</metadata>
<g transform="translate(0.000000,1240.000000) scale(0.100000,-0.100000)"
fill="#000000" stroke="none">
<path d="M4297 12385 c-629 -119 -1019 -679 -1267 -1820 -17 -77 -66 -336
-110 -575 -474 -2600 -679 -3997 -865 -5905 -147 -1511 -202 -2010 -271 -2455
-117 -761 -296 -1149 -581 -1261 -84 -33 -259 -33 -352 0 -87 30 -184 95 -251
167 l-55 59 69 7 c293 33 496 259 496 553 0 86 -29 207 -67 278 -40 75 -145
176 -224 214 -226 111 -488 72 -660 -97 -120 -119 -166 -256 -156 -464 15
-297 129 -570 324 -776 124 -132 298 -236 468 -281 226 -59 525 -22 749 94
333 172 593 531 780 1075 110 322 167 563 285 1208 476 2607 680 4000 866
5909 129 1323 155 1571 221 2090 66 519 120 802 200 1043 145 437 351 633 640
609 145 -13 273 -76 380 -189 l59 -63 -69 -7 c-293 -34 -496 -259 -496 -553 0
-86 29 -207 67 -278 40 -75 145 -176 224 -214 226 -111 488 -72 660 97 120
119 166 256 156 464 -15 297 -129 570 -324 776 -124 132 -297 236 -468 281
-106 28 -317 35 -428 14z"/>
</g>
</svg>
