<?xml version="1.0" standalone="no"?>
<!DOCTYPE svg PUBLIC "-//W3C//DTD SVG 20010904//EN"
 "http://www.w3.org/TR/2001/REC-SVG-20010904/DTD/svg10.dtd">
<svg version="1.0" xmlns="http://www.w3.org/2000/svg"
 width="502.000000pt" height="1384.000000pt" viewBox="0 0 502.000000 1384.000000"
 preserveAspectRatio="xMidYMid meet">
<metadata>
Created by potrace 1.16, written by Peter Selinger 2001-2019
</metadata>
<g transform="translate(0.000000,1384.000000) scale(0.100000,-0.100000)"
fill="#000000" stroke="none">
<path d="M72 13821 c-58 -37 -72 -73 -72 -186 0 -158 39 -205 170 -205 106 0
285 -19 431 -45 584 -105 1066 -421 1274 -835 48 -96 75 -172 101 -280 17 -70
18 -193 24 -1945 6 -1864 6 -1870 27 -1963 65 -280 181 -511 364 -720 253
-291 683 -547 1148 -684 61 -18 111 -35 111 -38 0 -3 -50 -20 -111 -38 -465
-137 -895 -393 -1148 -684 -183 -209 -299 -440 -364 -720 -21 -93 -21 -99 -27
-1963 -7 -2047 -2 -1904 -62 -2080 -165 -482 -684 -863 -1337 -980 -146 -26
-325 -45 -431 -45 -131 0 -170 -47 -170 -205 0 -113 14 -149 72 -186 32 -20
42 -20 298 -15 650 13 1195 136 1671 377 368 186 643 438 804 734 72 132 103
219 157 444 8 33 13 586 18 1921 l6 1875 22 97 c94 410 352 745 759 984 276
163 601 255 960 273 166 8 188 15 223 74 29 47 29 227 0 274 -35 59 -57 66
-223 74 -160 8 -235 18 -381 49 -355 78 -681 248 -925 484 -215 209 -349 442
-413 724 l-22 97 -6 1875 c-5 1335 -10 1888 -18 1921 -54 225 -85 312 -157
444 -123 226 -318 431 -571 600 -105 71 -324 185 -449 235 -441 177 -907 265
-1455 276 -256 5 -266 5 -298 -15z"/>
</g>
</svg>
