<?xml version="1.0" standalone="no"?>
<!DOCTYPE svg PUBLIC "-//W3C//DTD SVG 20010904//EN"
 "http://www.w3.org/TR/2001/REC-SVG-20010904/DTD/svg10.dtd">
<svg version="1.0" xmlns="http://www.w3.org/2000/svg"
 width="1010.000000pt" height="946.000000pt" viewBox="0 0 1010.000000 946.000000"
 preserveAspectRatio="xMidYMid meet">
<metadata>
Created by potrace 1.16, written by Peter Selinger 2001-2019
</metadata>
<g transform="translate(0.000000,946.000000) scale(0.100000,-0.100000)"
fill="#000000" stroke="none">
<path d="M5615 9453 c-719 -62 -1461 -331 -2140 -777 -268 -176 -470 -340
-686 -555 -313 -314 -526 -640 -638 -977 -53 -157 -59 -208 -32 -251 33 -52
86 -73 186 -73 159 0 334 49 554 155 290 141 528 314 663 484 73 92 88 121
137 268 67 205 160 363 285 489 96 95 197 140 410 184 348 71 841 42 1874
-110 792 -116 1235 -156 1659 -149 188 4 210 3 200 -11 -62 -80 -598 -694
-861 -985 -389 -432 -674 -737 -1180 -1262 l-329 -343 -788 0 c-638 0 -801 -3
-861 -14 -217 -42 -441 -181 -558 -348 -62 -88 -84 -152 -78 -229 5 -69 23
-98 94 -149 l48 -35 675 -5 674 -5 -359 -346 c-1411 -1358 -2578 -2412 -4223
-3813 -98 -83 -187 -169 -223 -215 -303 -379 9 -506 602 -243 338 149 507 174
1068 154 522 -19 864 -45 1852 -142 1176 -116 1689 -150 2252 -150 391 0 641
46 1003 187 697 269 1356 780 1784 1381 232 327 441 755 557 1142 45 150 51
244 19 280 -31 35 -100 60 -165 60 -384 0 -1064 -378 -1280 -712 -44 -68 -50
-82 -90 -228 -100 -363 -296 -752 -513 -1018 l-60 -72 -106 0 c-425 0 -1043
44 -2121 150 -927 91 -1306 121 -1775 140 -283 11 -722 12 -837 2 -43 -4 -78
-7 -78 -6 0 1 84 75 187 165 1184 1034 2323 2082 3473 3195 l95 92 185 -9
c221 -10 351 -24 482 -49 127 -25 150 -36 159 -79 10 -46 36 -79 100 -125 l54
-38 105 6 c58 3 139 15 180 26 235 65 482 262 552 440 31 78 31 207 1 272 -41
90 -173 192 -316 244 -113 40 -445 84 -644 84 l-75 0 309 318 c459 471 752
781 1123 1187 749 818 1787 2033 1853 2169 119 243 -92 325 -498 194 -91 -30
-307 -131 -444 -208 -48 -27 -63 -30 -135 -30 -296 0 -831 55 -1497 154 -736
110 -1154 147 -1591 144 -128 -1 -251 -3 -273 -5z"/>
</g>
</svg>
