<?xml version="1.0" standalone="no"?>
<!DOCTYPE svg PUBLIC "-//W3C//DTD SVG 20010904//EN"
 "http://www.w3.org/TR/2001/REC-SVG-20010904/DTD/svg10.dtd">
<svg version="1.0" xmlns="http://www.w3.org/2000/svg"
 width="1266.000000pt" height="1265.000000pt" viewBox="0 0 1266.000000 1265.000000"
 preserveAspectRatio="xMidYMid meet">
<metadata>
Created by potrace 1.16, written by Peter Selinger 2001-2019
</metadata>
<g transform="translate(0.000000,1265.000000) scale(0.100000,-0.100000)"
fill="#000000" stroke="none">
<path d="M7530 12630 c-49 -26 -227 -210 -245 -253 -20 -47 -19 -73 4 -124 17
-35 40 -55 163 -136 862 -569 1906 -857 2928 -807 193 9 463 36 565 56 23 4
-1158 -1182 -5437 -5463 -3047 -3048 -5474 -5483 -5483 -5503 -27 -52 -31
-147 -10 -211 25 -73 101 -149 174 -174 64 -21 159 -17 211 10 20 9 2455 2436
5503 5483 4281 4279 5467 5460 5463 5437 -20 -102 -47 -372 -56 -565 -24 -491
31 -1001 161 -1490 130 -492 363 -1009 646 -1438 81 -123 101 -146 136 -163
85 -38 128 -20 259 109 107 104 138 151 138 207 0 43 -3 50 -95 190 -388 594
-612 1226 -691 1950 -21 194 -24 641 -5 820 55 528 181 998 386 1440 26 57 45
112 45 132 0 76 -76 153 -150 153 -18 0 -89 -25 -159 -56 -470 -209 -892 -321
-1416 -375 -179 -19 -626 -16 -820 5 -724 79 -1356 303 -1950 691 -60 40 -120
77 -132 84 -32 16 -93 13 -133 -9z"/>
</g>
</svg>
