<?xml version="1.0" standalone="no"?>
<!DOCTYPE svg PUBLIC "-//W3C//DTD SVG 20010904//EN"
 "http://www.w3.org/TR/2001/REC-SVG-20010904/DTD/svg10.dtd">
<svg version="1.0" xmlns="http://www.w3.org/2000/svg"
 width="894.000000pt" height="982.000000pt" viewBox="0 0 894.000000 982.000000"
 preserveAspectRatio="xMidYMid meet">
<metadata>
Created by potrace 1.16, written by Peter Selinger 2001-2019
</metadata>
<g transform="translate(0.000000,982.000000) scale(0.100000,-0.100000)"
fill="#000000" stroke="none">
<path d="M6500 9809 c-542 -36 -1088 -155 -1555 -340 -144 -57 -412 -189 -550
-271 -228 -136 -485 -343 -639 -513 -89 -99 -225 -275 -252 -327 l-15 -30 -73
125 c-383 657 -886 1062 -1477 1188 -142 31 -441 33 -568 5 -273 -59 -499
-179 -699 -370 -277 -265 -451 -629 -502 -1046 -30 -254 3 -463 110 -688 98
-205 222 -368 511 -672 439 -461 565 -624 665 -861 75 -178 79 -209 78 -629
-1 -647 -45 -969 -167 -1220 -51 -104 -144 -204 -228 -243 -111 -52 -264 -60
-346 -19 -82 42 -168 168 -207 303 -26 90 -45 214 -52 343 -7 129 -17 161 -60
195 -23 18 -40 21 -129 21 -114 0 -139 -11 -172 -73 -31 -60 -3 -341 53 -535
119 -411 390 -638 743 -619 534 28 863 454 980 1272 34 234 45 416 45 730 1
279 -1 307 -22 404 -70 312 -209 584 -458 896 -48 61 -220 242 -381 403 -358
358 -449 475 -509 652 -26 75 -26 323 -1 460 75 404 316 747 630 896 210 99
467 109 652 25 403 -183 727 -783 844 -1561 26 -176 48 -400 61 -630 13 -245
13 -4221 0 -4540 -27 -649 -80 -1043 -189 -1408 -94 -318 -191 -518 -309 -644
-112 -118 -207 -155 -373 -144 -171 11 -324 62 -473 159 -280 183 -493 468
-667 892 l-58 140 122 48 c135 53 174 84 184 139 8 54 -3 84 -49 134 -81 87
-121 93 -268 34 -55 -22 -104 -40 -108 -40 -4 0 -18 28 -31 62 -37 98 -57 125
-106 143 -62 24 -98 10 -177 -73 -79 -82 -87 -107 -58 -188 12 -33 22 -65 23
-72 1 -8 -45 -32 -113 -60 -127 -53 -160 -84 -160 -149 0 -47 20 -80 78 -135
78 -73 100 -72 318 18 7 3 33 -49 64 -128 143 -358 303 -611 522 -824 221
-215 425 -332 707 -407 109 -29 127 -30 301 -31 169 0 194 3 282 26 260 71
462 191 673 403 466 467 836 1328 964 2247 55 389 70 753 71 1631 l0 557 757
-2 758 -3 83 -1450 83 -1450 -23 -115 c-30 -152 -33 -445 -5 -585 78 -388 290
-727 597 -956 189 -141 379 -226 625 -280 123 -28 497 -39 542 -17 59 30 1339
1036 1351 1062 17 39 15 86 -7 122 -19 32 -201 145 -253 158 -58 14 -27 38
-910 -703 l-227 -190 -79 59 c-154 115 -316 316 -396 491 -113 250 -144 535
-86 814 l23 110 -82 1445 c-45 795 -82 1478 -84 1518 l-2 73 145 53 c394 145
652 275 1708 860 421 233 432 241 432 316 0 53 -1943 3565 -1990 3598 -31 20
-43 22 -174 21 -78 -1 -197 -6 -266 -10z m359 -2207 c491 -888 891 -1615 889
-1617 -14 -14 -370 -201 -569 -300 -283 -140 -553 -250 -734 -300 -242 -66
-219 -65 -1399 -65 l-1066 0 0 403 c-1 471 -14 867 -35 1057 -33 300 -104 636
-189 905 l-35 110 38 90 c92 214 216 391 403 577 372 369 940 648 1613 793
l150 32 21 -36 c12 -20 423 -762 913 -1649z"/>
</g>
</svg>
