<?xml version="1.0" standalone="no"?>
<!DOCTYPE svg PUBLIC "-//W3C//DTD SVG 20010904//EN"
 "http://www.w3.org/TR/2001/REC-SVG-20010904/DTD/svg10.dtd">
<svg version="1.0" xmlns="http://www.w3.org/2000/svg"
 width="664.000000pt" height="922.000000pt" viewBox="0 0 664.000000 922.000000"
 preserveAspectRatio="xMidYMid meet">
<metadata>
Created by potrace 1.16, written by Peter Selinger 2001-2019
</metadata>
<g transform="translate(0.000000,922.000000) scale(0.100000,-0.100000)"
fill="#000000" stroke="none">
<path d="M200 9211 c-71 -23 -140 -82 -176 -151 -18 -34 -19 -165 -19 -4450 0
-4285 1 -4416 19 -4450 26 -49 84 -108 131 -133 54 -29 172 -30 230 -2 50 25
105 80 130 130 20 39 20 74 23 2112 l2 2073 2948 2 c2908 3 2948 3 2987 23 50
25 105 80 130 130 27 55 27 175 0 230 -25 50 -80 105 -130 130 -39 20 -79 20
-2987 23 l-2948 2 -2 2073 c-3 2038 -3 2073 -23 2112 -25 51 -80 106 -130 129
-43 21 -146 30 -185 17z"/>
</g>
</svg>
