<?xml version="1.0" standalone="no"?>
<!DOCTYPE svg PUBLIC "-//W3C//DTD SVG 20010904//EN"
 "http://www.w3.org/TR/2001/REC-SVG-20010904/DTD/svg10.dtd">
<svg version="1.0" xmlns="http://www.w3.org/2000/svg"
 width="696.000000pt" height="971.000000pt" viewBox="0 0 696.000000 971.000000"
 preserveAspectRatio="xMidYMid meet">
<metadata>
Created by potrace 1.16, written by Peter Selinger 2001-2019
</metadata>
<g transform="translate(0.000000,971.000000) scale(0.100000,-0.100000)"
fill="#000000" stroke="none">
<path d="M5635 9704 c-720 -53 -1344 -225 -2010 -554 -1103 -545 -2014 -1417
-2633 -2522 -515 -918 -862 -2021 -969 -3078 -24 -244 -24 -829 0 -1048 89
-785 333 -1374 751 -1810 341 -356 802 -585 1346 -669 164 -25 600 -25 790 0
718 96 1455 394 2130 863 522 362 945 784 1268 1264 115 172 144 231 140 287
-3 41 -7 50 -37 70 -146 98 -670 -116 -961 -394 -69 -65 -108 -114 -167 -207
-202 -321 -440 -586 -692 -770 -399 -291 -954 -419 -1488 -341 -737 108 -1267
496 -1598 1170 -162 330 -260 694 -312 1157 -24 216 -24 727 0 968 64 630 205
1241 432 1867 483 1332 1281 2371 2095 2729 339 149 723 231 1170 250 245 10
461 -25 610 -98 243 -119 338 -460 239 -853 -70 -275 -359 -928 -600 -1355
-87 -155 -93 -169 -93 -224 -1 -53 2 -61 27 -80 24 -18 42 -21 115 -20 48 0
115 8 150 17 257 68 577 257 749 441 54 57 91 114 170 257 275 496 577 1186
647 1478 56 230 60 478 11 646 -39 134 -87 218 -175 305 -108 109 -243 175
-460 227 -95 23 -129 25 -350 28 -135 1 -267 1 -295 -1z"/>
</g>
</svg>
