<?xml version="1.0" standalone="no"?>
<!DOCTYPE svg PUBLIC "-//W3C//DTD SVG 20010904//EN"
 "http://www.w3.org/TR/2001/REC-SVG-20010904/DTD/svg10.dtd">
<svg version="1.0" xmlns="http://www.w3.org/2000/svg"
 width="692.000000pt" height="961.000000pt" viewBox="0 0 692.000000 961.000000"
 preserveAspectRatio="xMidYMid meet">
<metadata>
Created by potrace 1.16, written by Peter Selinger 2001-2019
</metadata>
<g transform="translate(0.000000,961.000000) scale(0.100000,-0.100000)"
fill="#000000" stroke="none">
<path d="M6560 9601 c-83 -26 -141 -74 -181 -151 l-24 -45 -3 -2157 -2 -2158
-3063 -2 -3062 -3 -50 -23 c-104 -48 -175 -153 -175 -257 0 -103 72 -210 170
-254 45 -21 51 -21 3112 -21 l3068 0 2 -2162 3 -2163 27 -50 c91 -173 308
-207 444 -70 39 39 56 66 68 105 15 49 16 484 16 4615 0 4131 -1 4566 -16
4615 -21 70 -98 149 -168 173 -51 18 -123 21 -166 8z"/>
</g>
</svg>
