<?xml version="1.0" standalone="no"?>
<!DOCTYPE svg PUBLIC "-//W3C//DTD SVG 20010904//EN"
 "http://www.w3.org/TR/2001/REC-SVG-20010904/DTD/svg10.dtd">
<svg version="1.0" xmlns="http://www.w3.org/2000/svg"
 width="576.000000pt" height="1292.000000pt" viewBox="0 0 576.000000 1292.000000"
 preserveAspectRatio="xMidYMid meet">
<metadata>
Created by potrace 1.16, written by Peter Selinger 2001-2019
</metadata>
<g transform="translate(0.000000,1292.000000) scale(0.100000,-0.100000)"
fill="#000000" stroke="none">
<path d="M4474 12905 c-444 -78 -788 -372 -1044 -890 -120 -244 -213 -506
-299 -847 -65 -254 -88 -372 -230 -1153 -266 -1461 -417 -2378 -565 -3430
-116 -824 -182 -1397 -306 -2640 -176 -1772 -254 -2353 -371 -2760 -81 -284
-199 -493 -330 -590 -84 -62 -144 -80 -259 -80 -81 0 -103 4 -151 27 -31 14
-76 43 -99 64 -44 40 -130 149 -130 165 0 5 11 9 23 9 13 0 59 9 103 20 303
77 494 322 494 635 0 113 -22 206 -74 311 -187 378 -727 461 -1043 161 -128
-122 -192 -285 -193 -490 0 -272 71 -579 187 -811 150 -298 361 -487 640 -573
81 -24 102 -27 258 -27 141 0 185 3 255 21 440 110 742 383 995 898 130 265
224 536 314 906 55 227 74 323 210 1074 266 1460 417 2377 565 3430 116 824
182 1397 306 2640 177 1784 258 2381 374 2774 99 335 228 536 394 618 72 36
80 38 176 38 88 0 108 -3 157 -26 31 -15 76 -44 99 -65 44 -40 130 -149 130
-165 0 -5 -11 -9 -23 -9 -13 0 -59 -9 -103 -20 -303 -77 -494 -322 -494 -635
0 -113 22 -206 74 -311 187 -378 727 -461 1043 -161 128 122 192 285 193 490
0 272 -71 579 -187 811 -150 299 -364 490 -640 572 -110 33 -321 42 -449 19z"/>
</g>
</svg>
