<?xml version="1.0" standalone="no"?>
<!DOCTYPE svg PUBLIC "-//W3C//DTD SVG 20010904//EN"
 "http://www.w3.org/TR/2001/REC-SVG-20010904/DTD/svg10.dtd">
<svg version="1.0" xmlns="http://www.w3.org/2000/svg"
 width="864.000000pt" height="1008.000000pt" viewBox="0 0 864.000000 1008.000000"
 preserveAspectRatio="xMidYMid meet">
<metadata>
Created by potrace 1.16, written by Peter Selinger 2001-2019
</metadata>
<g transform="translate(0.000000,1008.000000) scale(0.100000,-0.100000)"
fill="#000000" stroke="none">
<path d="M6125 10073 c-114 -8 -380 -45 -520 -74 -1100 -220 -2192 -881 -2767
-1674 -309 -425 -475 -918 -455 -1350 26 -567 343 -1059 961 -1489 223 -156
456 -285 862 -476 773 -364 1224 -643 1565 -967 278 -265 452 -558 520 -873
19 -88 23 -136 23 -295 0 -169 -3 -204 -27 -320 -105 -497 -374 -902 -771
-1161 -109 -71 -308 -170 -436 -217 -458 -170 -1044 -260 -1488 -229 -656 47
-1176 243 -1608 606 -183 154 -373 372 -467 539 -167 292 -180 708 -35 1092
30 78 34 84 77 105 25 12 84 45 131 73 303 181 514 415 514 572 0 64 -23 99
-85 131 -41 21 -62 24 -146 24 -514 0 -1187 -362 -1543 -830 -212 -278 -369
-670 -416 -1040 -39 -308 14 -626 144 -873 106 -201 374 -507 602 -688 477
-376 1061 -598 1710 -650 185 -15 674 -6 870 16 1186 130 2313 598 3170 1316
651 545 1041 1165 1161 1846 27 154 33 458 11 583 -64 356 -190 622 -430 911
-345 412 -886 771 -1842 1223 -146 68 -317 152 -380 186 -880 473 -1296 1013
-1266 1645 25 533 328 1011 769 1214 166 77 409 143 635 172 225 30 595 12
882 -42 338 -64 710 -198 900 -324 195 -130 300 -357 300 -650 0 -111 -14
-209 -56 -388 -37 -159 -38 -197 -1 -243 67 -86 275 -87 515 -3 330 116 678
374 790 588 36 68 95 308 118 481 37 280 -5 551 -116 757 -109 202 -233 309
-514 443 -407 195 -774 293 -1230 330 -118 9 -511 11 -631 3z"/>
</g>
</svg>
