<?xml version="1.0" standalone="no"?>
<!DOCTYPE svg PUBLIC "-//W3C//DTD SVG 20010904//EN"
 "http://www.w3.org/TR/2001/REC-SVG-20010904/DTD/svg10.dtd">
<svg version="1.0" xmlns="http://www.w3.org/2000/svg"
 width="1180.000000pt" height="1240.000000pt" viewBox="0 0 1180.000000 1240.000000"
 preserveAspectRatio="xMidYMid meet">
<metadata>
Created by potrace 1.16, written by Peter Selinger 2001-2019
</metadata>
<g transform="translate(0.000000,1240.000000) scale(0.100000,-0.100000)"
fill="#000000" stroke="none">
<path d="M5530 12389 c-1095 -73 -2173 -478 -3067 -1153 -771 -582 -1386
-1334 -1819 -2221 -344 -708 -548 -1459 -626 -2305 -16 -177 -16 -843 0 -1020
142 -1544 741 -2877 1766 -3927 1101 -1129 2579 -1763 4111 -1763 1226 0 2433
410 3432 1164 771 582 1386 1334 1819 2221 344 708 548 1459 626 2305 7 79 12
291 12 510 0 470 -23 741 -100 1165 -282 1557 -1125 2941 -2357 3871 -1008
761 -2223 1170 -3457 1162 -118 0 -271 -5 -340 -9z m665 -539 c333 -22 618
-66 932 -145 1069 -268 2047 -886 2772 -1750 556 -664 957 -1454 1171 -2307
126 -501 174 -905 174 -1448 0 -543 -48 -947 -174 -1448 -473 -1885 -1827
-3375 -3597 -3958 -910 -299 -1877 -333 -2810 -99 -1069 268 -2047 886 -2772
1750 -556 664 -957 1454 -1171 2307 -126 501 -174 905 -174 1448 0 543 48 947
174 1448 473 1886 1826 3374 3599 3958 598 197 1262 283 1876 244z"/>
</g>
</svg>
