<?xml version="1.0" standalone="no"?>
<!DOCTYPE svg PUBLIC "-//W3C//DTD SVG 20010904//EN"
 "http://www.w3.org/TR/2001/REC-SVG-20010904/DTD/svg10.dtd">
<svg version="1.0" xmlns="http://www.w3.org/2000/svg"
 width="883.000000pt" height="908.000000pt" viewBox="0 0 883.000000 908.000000"
 preserveAspectRatio="xMidYMid meet">
<metadata>
Created by potrace 1.16, written by Peter Selinger 2001-2019
</metadata>
<g transform="translate(0.000000,908.000000) scale(0.100000,-0.100000)"
fill="#000000" stroke="none">
<path d="M4660 9069 c-939 -32 -1654 -162 -2234 -406 -764 -322 -1329 -792
-1581 -1315 -81 -170 -119 -285 -120 -362 0 -57 2 -61 34 -83 145 -98 669 116
960 393 107 102 146 159 176 262 34 114 50 155 95 240 53 101 132 207 173 232
105 64 409 145 712 190 452 67 941 90 1934 90 l644 0 -80 -83 c-468 -488 -836
-1266 -1207 -2557 -92 -318 -168 -610 -380 -1445 -259 -1025 -347 -1339 -506
-1809 -248 -733 -518 -1262 -801 -1569 -52 -56 -57 -59 -119 -67 -36 -5 -362
-10 -725 -10 -700 0 -708 -1 -855 -50 -338 -112 -746 -428 -775 -600 -8 -47 5
-74 48 -100 31 -20 74 -20 2523 -20 1625 0 2528 4 2595 10 628 62 1252 315
1779 720 123 95 338 311 423 425 107 144 227 406 227 497 0 39 -46 84 -95 94
-21 4 -72 2 -114 -4 -248 -35 -590 -214 -802 -419 -104 -101 -133 -146 -174
-268 -28 -86 -73 -171 -103 -198 -27 -25 -188 -63 -316 -76 -74 -7 -553 -11
-1462 -11 l-1353 0 130 127 c468 457 808 1061 1129 2008 159 471 247 784 506
1810 271 1070 363 1408 506 1865 237 759 499 1342 756 1683 l36 47 802 0 c869
0 858 -1 1014 56 238 85 466 227 625 388 100 101 137 167 133 233 -3 41 -7 50
-37 70 l-34 23 -1931 -2 c-1062 0 -2032 -5 -2156 -9z"/>
</g>
</svg>
