<?xml version="1.0" standalone="no"?>
<!DOCTYPE svg PUBLIC "-//W3C//DTD SVG 20010904//EN"
 "http://www.w3.org/TR/2001/REC-SVG-20010904/DTD/svg10.dtd">
<svg version="1.0" xmlns="http://www.w3.org/2000/svg"
 width="731.000000pt" height="1180.000000pt" viewBox="0 0 731.000000 1180.000000"
 preserveAspectRatio="xMidYMid meet">
<metadata>
Created by potrace 1.16, written by Peter Selinger 2001-2019
</metadata>
<g transform="translate(0.000000,1180.000000) scale(0.100000,-0.100000)"
fill="#000000" stroke="none">
<path d="M2281 11788 c-81 -23 -157 -101 -180 -184 -8 -28 -11 -1202 -11
-4068 l0 -4029 -108 104 c-428 413 -967 799 -1550 1109 -214 114 -269 134
-320 120 -38 -10 -80 -46 -101 -87 -17 -33 -15 -327 3 -361 22 -43 45 -59 192
-134 811 -413 1525 -996 2091 -1705 551 -690 968 -1519 1183 -2347 29 -110 39
-134 67 -162 57 -58 149 -58 206 0 28 28 38 52 67 162 130 501 364 1071 632
1538 620 1079 1536 1951 2642 2514 147 75 170 91 192 134 18 34 20 328 3 361
-21 41 -63 77 -101 87 -51 14 -106 -6 -320 -120 -583 -310 -1122 -696 -1550
-1109 l-108 -104 0 4029 c0 2866 -3 4040 -11 4068 -63 228 -375 264 -493 56
l-31 -55 -3 -4343 -2 -4344 -83 -106 c-350 -447 -693 -1023 -903 -1514 -15
-38 -31 -68 -34 -68 -3 0 -19 30 -34 68 -210 491 -553 1067 -903 1514 l-83
106 -2 4344 -3 4343 -30 54 c-62 112 -191 165 -314 129z"/>
</g>
</svg>
