<?xml version="1.0" standalone="no"?>
<!DOCTYPE svg PUBLIC "-//W3C//DTD SVG 20010904//EN"
 "http://www.w3.org/TR/2001/REC-SVG-20010904/DTD/svg10.dtd">
<svg version="1.0" xmlns="http://www.w3.org/2000/svg"
 width="1001.000000pt" height="1186.000000pt" viewBox="0 0 1001.000000 1186.000000"
 preserveAspectRatio="xMidYMid meet">
<metadata>
Created by potrace 1.16, written by Peter Selinger 2001-2019
</metadata>
<g transform="translate(0.000000,1186.000000) scale(0.100000,-0.100000)"
fill="#000000" stroke="none">
<path d="M4730 11844 c-535 -64 -1033 -316 -1417 -718 -191 -200 -335 -408
-463 -671 -146 -299 -233 -585 -281 -935 -18 -127 -18 -593 0 -720 48 -350
135 -636 281 -935 186 -380 387 -631 743 -926 6 -5 -277 -610 -297 -636 -1 -2
-56 50 -122 115 -140 137 -258 221 -427 302 -210 101 -407 148 -667 157 -513
18 -966 -171 -1333 -556 -372 -391 -629 -982 -717 -1651 -27 -202 -37 -559
-21 -740 59 -680 335 -1312 766 -1759 543 -563 1283 -797 2043 -645 425 85
784 290 992 566 122 162 204 378 217 575 l6 93 344 0 343 0 0 -92 c0 -243 -34
-679 -76 -983 -59 -428 -134 -778 -264 -1230 -44 -155 -47 -187 -24 -265 12
-39 29 -66 67 -105 86 -86 83 -85 577 -85 494 0 491 -1 577 85 38 39 55 66 67
105 23 78 20 110 -24 265 -130 452 -205 802 -264 1230 -42 304 -76 740 -76
983 l0 92 343 0 344 0 6 -92 c37 -557 508 -1002 1209 -1142 760 -152 1500 82
2043 645 313 325 557 769 675 1233 81 316 106 548 97 886 -17 605 -168 1167
-436 1618 -287 484 -684 800 -1159 922 -143 36 -313 53 -482 47 -260 -9 -457
-56 -667 -157 -169 -81 -287 -165 -427 -302 -66 -65 -121 -117 -122 -115 -20
26 -303 631 -297 636 273 226 447 419 608 676 72 113 202 379 250 508 73 200
134 448 166 677 18 127 18 593 0 720 -48 350 -135 636 -281 935 -128 263 -272
471 -463 671 -325 341 -760 589 -1197 682 -232 50 -527 64 -760 36z"/>
</g>
</svg>
