<?xml version="1.0" standalone="no"?>
<!DOCTYPE svg PUBLIC "-//W3C//DTD SVG 20010904//EN"
 "http://www.w3.org/TR/2001/REC-SVG-20010904/DTD/svg10.dtd">
<svg version="1.0" xmlns="http://www.w3.org/2000/svg"
 width="762.000000pt" height="1446.000000pt" viewBox="0 0 762.000000 1446.000000"
 preserveAspectRatio="xMidYMid meet">
<metadata>
Created by potrace 1.16, written by Peter Selinger 2001-2019
</metadata>
<g transform="translate(0.000000,1446.000000) scale(0.100000,-0.100000)"
fill="#000000" stroke="none">
<path d="M3730 14439 c-47 -29 -53 -38 -101 -159 -415 -1036 -1081 -1933
-1953 -2629 -433 -346 -953 -655 -1461 -870 -82 -35 -158 -71 -169 -80 -41
-36 -46 -63 -46 -242 0 -158 2 -174 22 -207 23 -37 85 -71 131 -72 76 0 638
267 1002 477 301 174 808 534 983 697 l32 30 0 -4154 0 -4154 -33 30 c-173
163 -680 522 -982 697 -359 207 -926 477 -1002 477 -46 -1 -108 -35 -131 -72
-20 -33 -22 -49 -22 -207 0 -179 5 -206 46 -242 11 -9 87 -45 169 -80 960
-406 1822 -1064 2485 -1894 369 -463 695 -1022 912 -1565 62 -156 72 -173 118
-199 48 -27 102 -27 150 0 46 26 56 43 118 199 398 996 1076 1903 1936 2589
433 346 953 655 1461 870 83 35 158 71 169 80 41 36 46 63 46 242 0 158 -2
174 -22 207 -23 37 -85 71 -131 72 -76 0 -643 -270 -1002 -477 -302 -175 -809
-534 -982 -697 l-33 -30 0 4154 0 4154 33 -30 c174 -163 681 -523 982 -697
364 -210 926 -477 1002 -477 46 1 108 35 131 72 20 33 22 49 22 207 0 179 -5
206 -46 242 -11 9 -86 45 -169 80 -960 406 -1822 1063 -2485 1894 -369 463
-695 1022 -912 1565 -62 156 -72 173 -118 199 -48 27 -105 27 -150 0z m218
-1288 c228 -389 524 -788 849 -1147 l83 -92 0 -4682 0 -4682 -83 -92 c-369
-407 -714 -888 -957 -1333 l-34 -62 -30 52 c-292 517 -587 928 -963 1343 l-83
92 0 4682 0 4682 83 92 c369 407 714 888 957 1333 l34 62 30 -52 c16 -29 67
-117 114 -196z"/>
</g>
</svg>
