<?xml version="1.0" standalone="no"?>
<!DOCTYPE svg PUBLIC "-//W3C//DTD SVG 20010904//EN"
 "http://www.w3.org/TR/2001/REC-SVG-20010904/DTD/svg10.dtd">
<svg version="1.0" xmlns="http://www.w3.org/2000/svg"
 width="582.000000pt" height="1177.000000pt" viewBox="0 0 582.000000 1177.000000"
 preserveAspectRatio="xMidYMid meet">
<metadata>
Created by potrace 1.16, written by Peter Selinger 2001-2019
</metadata>
<g transform="translate(0.000000,1177.000000) scale(0.100000,-0.100000)"
fill="#000000" stroke="none">
<path d="M4444 11754 c-57 -20 -120 -77 -148 -133 -13 -25 -79 -235 -146 -466
-67 -231 -124 -422 -126 -424 -2 -2 -48 17 -103 43 -202 94 -443 167 -676 202
-165 25 -513 26 -675 1 -597 -91 -1147 -395 -1534 -848 -173 -202 -280 -369
-420 -654 -277 -563 -455 -1218 -540 -1987 -51 -458 -65 -732 -72 -1403 -10
-894 20 -1525 102 -2090 160 -1117 546 -2016 1083 -2527 56 -53 101 -101 101
-108 0 -6 -66 -237 -147 -513 -80 -276 -148 -523 -151 -548 -15 -154 119 -299
278 -299 101 0 200 60 244 149 13 25 79 236 147 469 75 257 127 421 133 418 6
-3 61 -27 121 -54 593 -267 1288 -281 1894 -37 567 227 1014 634 1319 1197
370 683 580 1517 651 2583 33 489 39 1608 11 2080 -68 1168 -243 1954 -596
2670 -177 361 -364 624 -596 840 l-86 80 149 510 c83 281 153 533 156 561 18
160 -117 306 -281 303 -28 0 -70 -7 -92 -15z m-1249 -1294 c55 -12 134 -32
175 -46 109 -36 302 -135 401 -206 l86 -61 -33 -111 c-18 -61 -537 -1841
-1154 -3956 -616 -2115 -1125 -3856 -1129 -3870 -8 -23 -12 -17 -50 62 -182
389 -290 1019 -341 1981 -23 448 -32 1151 -27 2097 7 1102 18 1417 68 1920 59
591 147 976 294 1275 252 515 680 843 1214 930 122 20 365 13 496 -15z m1145
-942 c184 -388 281 -970 331 -1983 16 -333 23 -2093 10 -2627 -27 -1103 -93
-1760 -228 -2258 -112 -415 -306 -745 -583 -988 -207 -182 -446 -303 -710
-359 -119 -25 -391 -25 -510 0 -117 25 -273 78 -367 125 -85 43 -238 143 -291
188 l-32 29 1162 3987 c640 2193 1164 3988 1166 3988 2 0 25 -46 52 -102z"/>
</g>
</svg>
