<?xml version="1.0" standalone="no"?>
<!DOCTYPE svg PUBLIC "-//W3C//DTD SVG 20010904//EN"
 "http://www.w3.org/TR/2001/REC-SVG-20010904/DTD/svg10.dtd">
<svg version="1.0" xmlns="http://www.w3.org/2000/svg"
 width="874.000000pt" height="1072.000000pt" viewBox="0 0 874.000000 1072.000000"
 preserveAspectRatio="xMidYMid meet">
<metadata>
Created by potrace 1.16, written by Peter Selinger 2001-2019
</metadata>
<g transform="translate(0.000000,1072.000000) scale(0.100000,-0.100000)"
fill="#000000" stroke="none">
<path d="M180 10703 c-66 -24 -144 -106 -164 -173 -33 -112 -11 -206 67 -285
35 -34 69 -57 101 -68 46 -16 326 -17 3943 -17 l3893 0 0 -3450 0 -3450 -3908
-2 -3907 -3 -51 -27 c-171 -90 -206 -308 -71 -443 35 -34 69 -57 101 -68 46
-16 337 -17 4106 -17 3769 0 4060 1 4106 17 32 11 66 34 101 68 92 93 83 -330
83 3925 0 4255 9 3832 -83 3925 -35 34 -69 57 -101 68 -46 16 -336 17 -4110
16 -3673 -1 -4065 -2 -4106 -16z"/>
<path d="M210 551 c-158 -49 -241 -200 -196 -356 22 -74 97 -153 170 -178 46
-16 342 -17 4181 -17 3839 0 4135 1 4181 17 70 24 147 103 168 173 20 67 20
112 1 176 -19 64 -73 127 -139 162 l-51 27 -4145 2 c-2280 1 -4156 -2 -4170
-6z"/>
</g>
</svg>
