<?xml version="1.0" standalone="no"?>
<!DOCTYPE svg PUBLIC "-//W3C//DTD SVG 20010904//EN"
 "http://www.w3.org/TR/2001/REC-SVG-20010904/DTD/svg10.dtd">
<svg version="1.0" xmlns="http://www.w3.org/2000/svg"
 width="230.000000pt" height="922.000000pt" viewBox="0 0 230.000000 922.000000"
 preserveAspectRatio="xMidYMid meet">
<metadata>
Created by potrace 1.16, written by Peter Selinger 2001-2019
</metadata>
<g transform="translate(0.000000,922.000000) scale(0.100000,-0.100000)"
fill="#000000" stroke="none">
<path d="M240 9205 c-139 -31 -240 -106 -240 -177 0 -107 140 -180 378 -198
192 -15 314 -67 472 -202 308 -263 535 -741 619 -1301 96 -638 17 -1151 -281
-1826 -73 -166 -251 -521 -428 -851 -415 -777 -570 -1136 -676 -1563 -117
-478 -111 -1019 17 -1530 246 -978 849 -1523 1719 -1554 225 -8 346 23 432
109 33 33 38 44 38 83 0 39 -5 50 -38 83 -68 68 -196 111 -332 112 -250 1
-498 162 -712 462 -329 459 -496 1264 -398 1918 71 481 239 901 720 1800 415
777 570 1136 676 1563 117 478 111 1019 -17 1530 -246 980 -856 1530 -1724
1553 -117 3 -177 0 -225 -11z"/>
</g>
</svg>
