<?xml version="1.0" standalone="no"?>
<!DOCTYPE svg PUBLIC "-//W3C//DTD SVG 20010904//EN"
 "http://www.w3.org/TR/2001/REC-SVG-20010904/DTD/svg10.dtd">
<svg version="1.0" xmlns="http://www.w3.org/2000/svg"
 width="1032.000000pt" height="1028.000000pt" viewBox="0 0 1032.000000 1028.000000"
 preserveAspectRatio="xMidYMid meet">
<metadata>
Created by potrace 1.16, written by Peter Selinger 2001-2019
</metadata>
<g transform="translate(0.000000,1028.000000) scale(0.100000,-0.100000)"
fill="#000000" stroke="none">
<path d="M8195 10269 c-272 -63 -650 -284 -808 -473 -70 -85 -97 -146 -97
-223 l0 -63 -53 0 -53 0 -94 -197 c-355 -749 -865 -1733 -1293 -2493 -743
-1322 -1690 -2811 -2549 -4009 -696 -969 -1185 -1458 -1538 -1537 -65 -15 -88
-16 -171 -5 -347 43 -646 220 -816 484 -61 94 -89 161 -108 258 -28 148 -73
186 -166 138 -155 -79 -353 -444 -426 -789 -27 -126 -24 -338 5 -447 55 -202
163 -386 321 -543 195 -194 423 -310 696 -355 130 -22 217 -19 331 10 252 64
512 242 859 590 415 414 819 933 1488 1910 l225 330 1791 -3 1790 -2 5 -33 c3
-17 19 -149 36 -292 69 -569 197 -1204 345 -1713 58 -197 90 -259 179 -347 79
-79 166 -129 286 -167 67 -20 94 -23 245 -22 137 0 191 5 275 23 223 48 413
121 732 283 299 151 487 284 597 421 58 74 81 121 81 169 0 74 -57 104 -179
95 -117 -9 -239 -50 -433 -144 l-178 -86 -80 16 c-103 20 -163 49 -222 108
-61 62 -89 118 -137 285 -137 473 -258 1066 -331 1609 -93 698 -212 2418 -260
3740 -29 807 -33 1093 -36 2210 -1 666 -3 1216 -3 1223 -2 30 -64 52 -141 51
-41 -1 -93 -5 -115 -10z m-896 -3419 c27 -1012 67 -1823 136 -2815 14 -192 27
-365 29 -382 l5 -33 -1309 0 c-1101 0 -1320 -2 -1377 -14 -98 -21 -230 -71
-350 -132 -56 -29 -103 -51 -103 -50 0 2 76 120 168 262 905 1390 1765 2897
2544 4457 l233 467 7 -672 c3 -370 11 -860 17 -1088z"/>
</g>
</svg>
