<?xml version="1.0" standalone="no"?>
<!DOCTYPE svg PUBLIC "-//W3C//DTD SVG 20010904//EN"
 "http://www.w3.org/TR/2001/REC-SVG-20010904/DTD/svg10.dtd">
<svg version="1.0" xmlns="http://www.w3.org/2000/svg"
 width="934.000000pt" height="1154.000000pt" viewBox="0 0 934.000000 1154.000000"
 preserveAspectRatio="xMidYMid meet">
<metadata>
Created by potrace 1.16, written by Peter Selinger 2001-2019
</metadata>
<g transform="translate(0.000000,1154.000000) scale(0.100000,-0.100000)"
fill="#000000" stroke="none">
<path d="M5765 11530 c-932 -82 -1910 -442 -2813 -1036 -804 -529 -1472 -1178
-1984 -1929 -515 -753 -848 -1596 -945 -2385 -24 -203 -25 -673 0 -850 86
-613 298 -1084 660 -1467 318 -336 793 -575 1293 -650 171 -25 680 -25 879 1
573 74 1112 233 1667 492 375 176 576 302 739 464 153 153 203 264 148 334
-33 42 -71 56 -149 56 -153 0 -305 -48 -568 -181 -457 -231 -860 -332 -1327
-333 -223 0 -352 15 -553 64 -550 134 -979 482 -1251 1013 -136 266 -217 546
-263 907 -19 154 -16 550 6 730 125 1036 682 2123 1488 2906 525 509 1057 808
1688 947 277 62 591 87 843 69 749 -55 1335 -334 1776 -847 649 -755 895
-1891 685 -3160 -142 -858 -485 -1647 -1027 -2365 -171 -226 -304 -378 -522
-596 -403 -403 -798 -695 -1260 -929 -600 -304 -1239 -468 -2105 -539 -319
-27 -569 -36 -1080 -42 -272 -3 -524 -10 -558 -15 -277 -43 -716 -295 -892
-512 -67 -82 -100 -150 -100 -205 0 -101 36 -117 278 -126 655 -23 1291 -157
2172 -455 129 -43 431 -149 670 -234 939 -334 1387 -466 1905 -562 522 -96
1141 -122 1486 -62 429 75 848 236 1274 490 333 198 694 502 898 757 197 246
340 520 396 757 17 70 -3 113 -65 142 -52 25 -93 26 -206 6 -264 -46 -605
-227 -823 -437 -110 -105 -147 -165 -197 -316 -63 -188 -158 -345 -274 -451
-118 -108 -333 -145 -709 -122 -746 47 -1330 191 -2612 647 -237 84 -475 168
-527 187 l-96 33 87 28 c1294 416 2591 1248 3511 2251 631 688 1090 1417 1379
2195 323 868 432 1880 292 2720 -92 554 -298 1070 -588 1470 -269 371 -588
644 -984 841 -314 155 -571 234 -927 284 -135 19 -658 28 -815 15z"/>
</g>
</svg>
