<?xml version="1.0" standalone="no"?>
<!DOCTYPE svg PUBLIC "-//W3C//DTD SVG 20010904//EN"
 "http://www.w3.org/TR/2001/REC-SVG-20010904/DTD/svg10.dtd">
<svg version="1.0" xmlns="http://www.w3.org/2000/svg"
 width="661.000000pt" height="660.000000pt" viewBox="0 0 661.000000 660.000000"
 preserveAspectRatio="xMidYMid meet">
<metadata>
Created by potrace 1.16, written by Peter Selinger 2001-2019
</metadata>
<g transform="translate(0.000000,660.000000) scale(0.100000,-0.100000)"
fill="#000000" stroke="none">
<path d="M3230 6591 c-14 -4 -43 -17 -65 -29 -59 -31 -3106 -3083 -3136 -3142
-35 -67 -33 -177 3 -245 37 -70 3082 -3113 3147 -3145 62 -31 145 -37 212 -15
52 16 117 80 1607 1569 1094 1093 1558 1563 1573 1593 29 61 35 138 15 209
l-17 59 -1552 1553 c-1154 1154 -1564 1558 -1597 1574 -48 24 -146 33 -190 19z
m1385 -1981 l1310 -1310 -1313 -1313 -1312 -1312 -1312 1312 -1313 1313 1310
1310 c720 720 1312 1310 1315 1310 3 0 595 -590 1315 -1310z"/>
</g>
</svg>
