<?xml version="1.0" standalone="no"?>
<!DOCTYPE svg PUBLIC "-//W3C//DTD SVG 20010904//EN"
 "http://www.w3.org/TR/2001/REC-SVG-20010904/DTD/svg10.dtd">
<svg version="1.0" xmlns="http://www.w3.org/2000/svg"
 width="1180.000000pt" height="694.000000pt" viewBox="0 0 1180.000000 694.000000"
 preserveAspectRatio="xMidYMid meet">
<metadata>
Created by potrace 1.16, written by Peter Selinger 2001-2019
</metadata>
<g transform="translate(0.000000,694.000000) scale(0.100000,-0.100000)"
fill="#000000" stroke="none">
<path d="M2909 6920 c-54 -28 -67 -58 -100 -213 -172 -826 -575 -1563 -1170
-2142 -400 -389 -854 -683 -1377 -891 -102 -41 -197 -85 -210 -97 -69 -64 -69
-150 0 -214 13 -12 108 -56 210 -97 1316 -524 2258 -1646 2547 -3033 16 -78
37 -154 47 -168 35 -53 78 -65 239 -65 100 0 156 4 178 14 42 17 85 68 92 110
18 93 -119 609 -250 946 -314 808 -858 1529 -1554 2059 l-93 71 4427 0 4427 0
-93 -71 c-696 -530 -1240 -1251 -1554 -2059 -131 -337 -268 -853 -250 -946 7
-42 50 -93 92 -110 22 -10 78 -14 178 -14 161 0 204 12 239 65 10 14 31 90 47
168 129 620 386 1187 760 1678 315 413 679 745 1128 1027 159 100 504 270 691
341 108 41 165 68 187 90 57 54 57 148 0 202 -22 22 -79 49 -187 90 -187 71
-532 241 -691 341 -449 282 -813 614 -1128 1027 -374 491 -631 1058 -760 1678
-16 78 -37 154 -47 168 -35 53 -78 65 -239 65 -100 0 -156 -4 -178 -14 -42
-17 -85 -68 -92 -110 -18 -93 119 -609 250 -946 314 -808 858 -1529 1554
-2059 l93 -71 -4427 0 -4427 0 93 71 c696 530 1240 1251 1554 2059 131 337
268 853 250 946 -7 42 -50 93 -92 110 -22 10 -77 14 -180 14 -126 -1 -153 -4
-184 -20z"/>
</g>
</svg>
