<?xml version="1.0" standalone="no"?>
<!DOCTYPE svg PUBLIC "-//W3C//DTD SVG 20010904//EN"
 "http://www.w3.org/TR/2001/REC-SVG-20010904/DTD/svg10.dtd">
<svg version="1.0" xmlns="http://www.w3.org/2000/svg"
 width="665.000000pt" height="1240.000000pt" viewBox="0 0 665.000000 1240.000000"
 preserveAspectRatio="xMidYMid meet">
<metadata>
Created by potrace 1.16, written by Peter Selinger 2001-2019
</metadata>
<g transform="translate(0.000000,1240.000000) scale(0.100000,-0.100000)"
fill="#000000" stroke="none">
<path d="M6288 12387 c-60 -19 -121 -70 -154 -128 -22 -38 -5725 -11125 -6090
-11839 -34 -67 -38 -83 -38 -150 -1 -92 20 -137 93 -203 105 -93 260 -88 361
13 26 26 836 1593 3094 5983 1682 3271 3065 5966 3073 5990 21 60 12 143 -23
208 -61 111 -195 164 -316 126z"/>
</g>
</svg>
