<?xml version="1.0" standalone="no"?>
<!DOCTYPE svg PUBLIC "-//W3C//DTD SVG 20010904//EN"
 "http://www.w3.org/TR/2001/REC-SVG-20010904/DTD/svg10.dtd">
<svg version="1.0" xmlns="http://www.w3.org/2000/svg"
 width="923.000000pt" height="1186.000000pt" viewBox="0 0 923.000000 1186.000000"
 preserveAspectRatio="xMidYMid meet">
<metadata>
Created by potrace 1.16, written by Peter Selinger 2001-2019
</metadata>
<g transform="translate(0.000000,1186.000000) scale(0.100000,-0.100000)"
fill="#000000" stroke="none">
<path d="M4510 11843 c-27 -10 -64 -36 -95 -67 -46 -47 -56 -66 -119 -231
-115 -303 -240 -586 -396 -900 -255 -514 -502 -909 -795 -1275 -218 -272 -391
-449 -815 -836 -607 -554 -1024 -988 -1331 -1384 -534 -690 -827 -1328 -930
-2028 -39 -263 -36 -811 7 -1237 131 -1312 598 -2121 1353 -2344 341 -101 864
-71 1300 75 256 85 462 206 622 364 197 194 309 430 326 688 l6 92 344 0 343
0 0 -92 c0 -243 -34 -679 -76 -983 -59 -428 -134 -778 -264 -1230 -44 -155
-47 -187 -24 -265 12 -39 29 -66 67 -105 86 -86 83 -85 577 -85 494 0 491 -1
577 85 38 39 55 66 67 105 23 78 20 110 -24 265 -130 452 -205 802 -264 1230
-42 304 -76 740 -76 983 l0 92 343 0 344 0 6 -93 c29 -405 285 -749 716 -958
126 -62 358 -139 502 -168 277 -56 598 -75 805 -47 884 117 1434 950 1578
2391 43 426 46 974 7 1237 -103 700 -396 1338 -930 2028 -307 396 -724 830
-1331 1384 -512 467 -721 693 -1001 1081 -364 506 -730 1209 -1005 1930 -63
165 -73 184 -119 231 -79 80 -188 104 -295 67z"/>
</g>
</svg>
