<?xml version="1.0" standalone="no"?>
<!DOCTYPE svg PUBLIC "-//W3C//DTD SVG 20010904//EN"
 "http://www.w3.org/TR/2001/REC-SVG-20010904/DTD/svg10.dtd">
<svg version="1.0" xmlns="http://www.w3.org/2000/svg"
 width="1082.000000pt" height="1074.000000pt" viewBox="0 0 1082.000000 1074.000000"
 preserveAspectRatio="xMidYMid meet">
<metadata>
Created by potrace 1.16, written by Peter Selinger 2001-2019
</metadata>
<g transform="translate(0.000000,1074.000000) scale(0.100000,-0.100000)"
fill="#000000" stroke="none">
<path d="M8551 10725 c-290 -63 -687 -298 -860 -508 -74 -89 -99 -146 -107
-244 l-7 -82 -69 -3 -70 -3 -105 -220 c-57 -121 -187 -386 -288 -590 -989
-1986 -2193 -3992 -3553 -5920 -804 -1140 -1333 -1685 -1718 -1770 -74 -17
-85 -17 -187 -2 -339 51 -604 215 -783 484 -67 99 -98 175 -113 269 -19 127
-59 184 -128 184 -57 0 -103 -27 -177 -103 -195 -201 -364 -618 -383 -949 -17
-302 106 -608 344 -859 255 -267 611 -422 938 -406 295 14 631 220 1060 651
423 424 854 974 1490 1901 98 143 204 296 234 340 l56 80 1847 -3 1846 -2 7
-68 c60 -608 188 -1303 350 -1907 74 -273 98 -339 151 -418 85 -124 194 -202
369 -264 77 -27 87 -28 270 -28 161 0 207 4 300 23 131 28 289 78 423 134 118
49 537 259 647 326 183 109 367 273 434 386 38 63 52 147 32 185 -20 37 -83
61 -158 61 -146 -1 -291 -47 -552 -175 l-190 -94 -63 14 c-122 25 -198 73
-260 162 -42 62 -59 108 -122 345 -181 675 -301 1354 -365 2073 -96 1059 -172
2348 -211 3540 -31 968 -34 1646 -16 3346 1 65 -16 91 -73 115 -42 18 -155 17
-240 -1z m-971 -3195 c15 -874 37 -1509 80 -2335 22 -415 76 -1252 86 -1327
l6 -48 -1340 0 c-1127 0 -1352 -2 -1409 -14 -97 -21 -232 -70 -345 -126 l-96
-49 112 172 c944 1442 1875 3068 2669 4657 l222 445 2 -380 c1 -209 7 -657 13
-995z"/>
</g>
</svg>
