<?xml version="1.0" standalone="no"?>
<!DOCTYPE svg PUBLIC "-//W3C//DTD SVG 20010904//EN"
 "http://www.w3.org/TR/2001/REC-SVG-20010904/DTD/svg10.dtd">
<svg version="1.0" xmlns="http://www.w3.org/2000/svg"
 width="865.000000pt" height="1008.000000pt" viewBox="0 0 865.000000 1008.000000"
 preserveAspectRatio="xMidYMid meet">
<metadata>
Created by potrace 1.16, written by Peter Selinger 2001-2019
</metadata>
<g transform="translate(0.000000,1008.000000) scale(0.100000,-0.100000)"
fill="#000000" stroke="none">
<path d="M6680 10069 c-780 -74 -1632 -457 -2340 -1050 -866 -726 -1492 -1789
-2043 -3474 -177 -540 -321 -1050 -556 -1970 -131 -513 -177 -677 -277 -975
-212 -635 -458 -1138 -762 -1564 -47 -65 -110 -141 -141 -169 -227 -206 -461
-478 -528 -615 -35 -72 -39 -158 -8 -192 35 -40 93 -60 177 -60 173 0 378 62
625 190 223 115 378 228 575 418 l107 104 163 -11 c490 -34 886 -109 1693
-322 888 -234 1227 -306 1675 -354 202 -22 647 -31 780 -16 329 38 669 141
1019 312 216 105 312 159 516 295 228 151 409 298 590 479 332 331 534 645
655 1020 53 163 43 222 -43 264 -34 17 -62 21 -133 21 -310 -1 -799 -236
-1116 -539 -123 -117 -177 -200 -223 -347 -20 -66 -59 -165 -87 -221 -57 -115
-156 -253 -190 -266 -29 -11 -298 -1 -488 19 -434 44 -784 118 -1675 353 -796
210 -1198 287 -1675 321 -182 12 -491 12 -589 0 -41 -6 -76 -8 -78 -6 -2 2 11
28 30 57 172 271 393 737 551 1162 138 373 220 644 377 1262 233 910 378 1426
551 1955 417 1276 883 2184 1378 2681 169 170 225 194 504 220 291 28 504 -49
661 -238 69 -82 156 -257 185 -368 64 -248 65 -492 4 -803 -28 -145 -27 -187
9 -219 45 -41 83 -53 172 -53 166 0 347 53 585 171 332 165 609 392 709 579
29 56 57 165 88 345 24 143 24 504 0 635 -39 209 -111 398 -208 541 -54 82
-176 203 -257 258 -116 78 -274 141 -418 166 -94 16 -392 19 -544 4z"/>
</g>
</svg>
