<?xml version="1.0" standalone="no"?>
<!DOCTYPE svg PUBLIC "-//W3C//DTD SVG 20010904//EN"
 "http://www.w3.org/TR/2001/REC-SVG-20010904/DTD/svg10.dtd">
<svg version="1.0" xmlns="http://www.w3.org/2000/svg"
 width="958.000000pt" height="946.000000pt" viewBox="0 0 958.000000 946.000000"
 preserveAspectRatio="xMidYMid meet">
<metadata>
Created by potrace 1.16, written by Peter Selinger 2001-2019
</metadata>
<g transform="translate(0.000000,946.000000) scale(0.100000,-0.100000)"
fill="#000000" stroke="none">
<path d="M79 9439 c-20 -12 -46 -39 -58 -59 -19 -35 -21 -53 -21 -230 0 -177
2 -195 21 -230 43 -76 48 -77 459 -84 485 -7 737 -30 828 -73 45 -22 88 -82
101 -144 15 -71 15 -7707 0 -7778 -13 -62 -56 -122 -101 -144 -91 -43 -343
-66 -828 -73 -411 -7 -416 -8 -459 -84 -19 -35 -21 -53 -21 -230 0 -219 8
-248 80 -289 l38 -21 4667 0 4667 0 38 21 c72 41 80 70 80 289 0 177 -2 195
-21 230 -43 76 -48 77 -459 84 -485 7 -737 30 -828 73 -45 22 -88 82 -101 144
-15 71 -15 7707 0 7778 13 62 56 122 101 144 91 43 343 66 828 73 411 7 416 8
459 84 19 35 21 53 21 230 0 220 -8 248 -81 290 -39 21 -40 21 -317 11 -673
-26 -1676 -35 -2405 -23 -392 7 -837 17 -989 23 -277 10 -278 10 -317 -11 -73
-42 -81 -70 -81 -290 0 -177 2 -195 21 -230 43 -76 48 -77 459 -84 485 -7 737
-30 828 -73 45 -22 88 -82 101 -144 8 -35 11 -1235 11 -4024 l0 -3975 -2015 0
-2015 0 0 3975 c0 2789 3 3989 11 4024 13 62 56 122 101 144 91 43 343 66 828
73 411 7 416 8 459 84 19 35 21 53 21 230 0 220 -8 248 -81 290 -39 21 -40 21
-327 11 -1062 -39 -2359 -38 -3507 4 -152 6 -162 5 -196 -16z"/>
</g>
</svg>
