<?xml version="1.0" standalone="no"?>
<!DOCTYPE svg PUBLIC "-//W3C//DTD SVG 20010904//EN"
 "http://www.w3.org/TR/2001/REC-SVG-20010904/DTD/svg10.dtd">
<svg version="1.0" xmlns="http://www.w3.org/2000/svg"
 width="885.000000pt" height="569.000000pt" viewBox="0 0 885.000000 569.000000"
 preserveAspectRatio="xMidYMid meet">
<metadata>
Created by potrace 1.16, written by Peter Selinger 2001-2019
</metadata>
<g transform="translate(0.000000,569.000000) scale(0.100000,-0.100000)"
fill="#000000" stroke="none">
<path d="M1996 5679 c-619 -65 -1205 -426 -1558 -959 -129 -196 -213 -367
-293 -600 -91 -267 -138 -545 -139 -830 -1 -154 2 -183 21 -245 29 -92 71
-157 116 -178 43 -21 60 -21 95 -3 36 19 56 42 86 101 36 73 45 121 56 298 16
257 59 424 165 642 219 450 650 811 1134 950 201 57 291 69 531 69 229 0 320
-11 510 -59 170 -43 300 -93 505 -195 327 -162 532 -299 1135 -759 594 -453
829 -609 1155 -771 276 -137 440 -195 690 -245 604 -121 1191 13 1688 385 567
427 908 1120 944 1922 11 242 -36 411 -130 468 -39 24 -59 25 -104 3 -83 -39
-130 -167 -144 -397 -15 -257 -57 -422 -164 -641 -219 -450 -650 -811 -1134
-950 -201 -57 -291 -69 -531 -69 -229 0 -320 11 -510 59 -170 43 -300 93 -505
195 -326 161 -545 308 -1145 767 -582 443 -820 602 -1145 763 -276 137 -440
195 -690 245 -214 43 -439 55 -639 34z"/>
<path d="M200 531 c-51 -16 -89 -41 -133 -91 -117 -130 -73 -335 88 -415 40
-20 87 -20 4240 -23 2982 -2 4213 1 4244 8 96 24 173 105 194 206 24 115 -29
229 -133 288 l-55 31 -4210 2 c-2316 1 -4221 -2 -4235 -6z"/>
</g>
</svg>
