<?xml version="1.0" standalone="no"?>
<!DOCTYPE svg PUBLIC "-//W3C//DTD SVG 20010904//EN"
 "http://www.w3.org/TR/2001/REC-SVG-20010904/DTD/svg10.dtd">
<svg version="1.0" xmlns="http://www.w3.org/2000/svg"
 width="768.000000pt" height="859.000000pt" viewBox="0 0 768.000000 859.000000"
 preserveAspectRatio="xMidYMid meet">
<metadata>
Created by potrace 1.16, written by Peter Selinger 2001-2019
</metadata>
<g transform="translate(0.000000,859.000000) scale(0.100000,-0.100000)"
fill="#000000" stroke="none">
<path d="M180 8573 c-27 -10 -65 -37 -97 -68 -92 -93 -84 213 -80 -2991 3
-3115 -2 -2856 62 -3132 84 -357 263 -723 501 -1022 147 -184 414 -431 634
-586 215 -151 558 -336 805 -433 432 -170 872 -273 1380 -323 170 -17 730 -17
900 0 508 50 948 153 1380 323 247 97 590 282 805 433 220 155 487 402 634
586 283 355 462 759 543 1225 16 93 18 293 20 2929 4 3203 12 2898 -80 2991
-81 80 -184 105 -290 69 -60 -20 -129 -82 -159 -142 l-23 -47 -5 -2820 c-6
-3102 -2 -2873 -65 -3112 -193 -729 -806 -1311 -1735 -1646 -303 -110 -686
-192 -1055 -229 -168 -16 -672 -16 -840 0 -885 87 -1640 394 -2184 889 -289
264 -510 622 -606 986 -63 239 -59 10 -65 3112 l-5 2820 -23 47 c-63 127 -216
189 -352 141z"/>
</g>
</svg>
