<?xml version="1.0" standalone="no"?>
<!DOCTYPE svg PUBLIC "-//W3C//DTD SVG 20010904//EN"
 "http://www.w3.org/TR/2001/REC-SVG-20010904/DTD/svg10.dtd">
<svg version="1.0" xmlns="http://www.w3.org/2000/svg"
 width="490.000000pt" height="572.000000pt" viewBox="0 0 490.000000 572.000000"
 preserveAspectRatio="xMidYMid meet">
<metadata>
Created by potrace 1.16, written by Peter Selinger 2001-2019
</metadata>
<g transform="translate(0.000000,572.000000) scale(0.100000,-0.100000)"
fill="#000000" stroke="none">
<path d="M2328 5701 c-31 -10 -72 -28 -91 -40 -47 -29 -115 -104 -133 -146
-37 -90 -38 -80 65 -1230 54 -605 97 -1101 95 -1103 -1 -2 -392 280 -869 627
-477 347 -883 638 -903 647 -139 58 -322 -3 -419 -138 -119 -165 -88 -412 62
-507 23 -15 473 -234 999 -487 526 -252 956 -461 956 -464 0 -3 -430 -212
-956 -464 -526 -253 -976 -472 -999 -487 -150 -95 -181 -342 -62 -507 97 -135
280 -196 419 -138 20 9 426 300 903 647 477 347 868 629 869 627 2 -2 -41
-498 -95 -1103 -105 -1178 -104 -1147 -58 -1242 28 -59 117 -137 187 -164 44
-18 77 -23 147 -23 111 0 181 25 254 90 63 56 87 95 106 170 14 57 11 102 -84
1164 -54 608 -97 1106 -95 1108 1 2 392 -280 869 -627 477 -347 883 -638 903
-647 139 -58 322 3 419 138 119 165 88 412 -62 507 -23 15 -473 234 -999 487
-526 252 -956 461 -956 464 0 3 430 212 956 464 526 253 976 472 999 487 150
95 181 342 62 507 -97 135 -280 196 -419 138 -20 -9 -426 -300 -903 -647 -477
-347 -868 -629 -869 -627 -2 2 41 500 95 1108 95 1062 98 1107 84 1164 -19 75
-43 114 -106 170 -94 84 -250 117 -371 77z"/>
</g>
</svg>
