<?xml version="1.0" standalone="no"?>
<!DOCTYPE svg PUBLIC "-//W3C//DTD SVG 20010904//EN"
 "http://www.w3.org/TR/2001/REC-SVG-20010904/DTD/svg10.dtd">
<svg version="1.0" xmlns="http://www.w3.org/2000/svg"
 width="452.000000pt" height="1090.000000pt" viewBox="0 0 452.000000 1090.000000"
 preserveAspectRatio="xMidYMid meet">
<metadata>
Created by potrace 1.16, written by Peter Selinger 2001-2019
</metadata>
<g transform="translate(0.000000,1090.000000) scale(0.100000,-0.100000)"
fill="#000000" stroke="none">
<path d="M1696 10738 c-16 -396 -81 -765 -192 -1089 -272 -799 -769 -1260
-1407 -1305 l-97 -7 0 -168 0 -169 555 0 554 0 4 -1982 c3 -2155 0 -2034 57
-2277 138 -588 482 -944 1053 -1090 61 -16 138 -32 170 -36 l57 -7 0 -413 0
-412 109 -7 c413 -25 748 -172 894 -394 66 -100 89 -169 95 -287 5 -117 -7
-187 -47 -267 -78 -155 -218 -258 -456 -337 -298 -100 -631 -137 -1302 -148
l-393 -6 0 -170 0 -170 498 6 c687 9 1062 33 1426 93 512 84 877 244 1064 466
67 79 135 219 157 322 24 110 17 322 -15 421 -96 301 -331 506 -739 645 -66
23 -167 51 -223 64 l-103 23 -3 346 -2 346 47 32 c355 240 586 654 679 1214
14 82 18 197 21 633 l5 532 -185 0 -185 0 -5 -523 c-4 -562 -8 -612 -63 -837
-78 -313 -225 -564 -409 -696 -156 -111 -328 -146 -540 -109 -426 75 -646 404
-694 1040 -7 91 -11 806 -11 2063 l0 1922 935 0 935 0 0 225 0 225 -935 0
-935 0 0 1225 0 1225 -183 0 -184 0 -7 -162z"/>
</g>
</svg>
