<?xml version="1.0" standalone="no"?>
<!DOCTYPE svg PUBLIC "-//W3C//DTD SVG 20010904//EN"
 "http://www.w3.org/TR/2001/REC-SVG-20010904/DTD/svg10.dtd">
<svg version="1.0" xmlns="http://www.w3.org/2000/svg"
 width="1096.000000pt" height="976.000000pt" viewBox="0 0 1096.000000 976.000000"
 preserveAspectRatio="xMidYMid meet">
<metadata>
Created by potrace 1.16, written by Peter Selinger 2001-2019
</metadata>
<g transform="translate(0.000000,976.000000) scale(0.100000,-0.100000)"
fill="#000000" stroke="none">
<path d="M0 9451 l0 -311 268 0 c531 0 920 -27 1039 -72 72 -27 156 -107 172
-164 15 -55 15 -7683 0 -7738 -16 -57 -100 -137 -172 -164 -119 -45 -508 -72
-1039 -72 l-268 0 0 -311 0 -312 133 7 c850 41 3294 41 4145 0 l132 -7 0 312
0 311 -267 0 c-532 0 -921 27 -1040 72 -72 27 -156 107 -172 164 -15 55 -15
7683 0 7738 16 57 100 137 172 164 119 45 508 72 1040 72 l267 0 0 311 0 312
-132 -7 c-412 -19 -1126 -30 -2073 -30 -947 0 -1661 11 -2072 30 l-133 7 0
-312z"/>
<path d="M6640 9451 l0 -311 343 0 c569 0 1059 -23 1220 -55 131 -27 233 -91
268 -170 18 -38 19 -171 19 -3390 0 -3603 2 -3473 -50 -3726 -107 -517 -408
-965 -784 -1165 -206 -109 -394 -141 -667 -113 -404 41 -754 184 -1037 422
-90 76 -90 79 -13 92 66 11 172 49 248 89 147 77 262 197 339 351 71 144 88
221 88 410 0 189 -17 266 -88 410 -78 158 -194 275 -346 354 -141 72 -269 103
-430 103 -346 0 -633 -169 -776 -457 -58 -117 -84 -222 -91 -365 -19 -392 125
-799 400 -1126 266 -317 668 -565 1135 -698 589 -169 1305 -131 1892 101 614
243 1093 666 1355 1198 84 170 144 341 173 495 11 58 24 119 28 135 4 17 10
1571 13 3455 l6 3425 31 55 c74 131 180 156 727 167 l307 6 0 310 0 310 -107
-7 c-704 -41 -3035 -41 -4045 0 l-158 7 0 -312z"/>
</g>
</svg>
