<?xml version="1.0" standalone="no"?>
<!DOCTYPE svg PUBLIC "-//W3C//DTD SVG 20010904//EN"
 "http://www.w3.org/TR/2001/REC-SVG-20010904/DTD/svg10.dtd">
<svg version="1.0" xmlns="http://www.w3.org/2000/svg"
 width="616.000000pt" height="889.000000pt" viewBox="0 0 616.000000 889.000000"
 preserveAspectRatio="xMidYMid meet">
<metadata>
Created by potrace 1.16, written by Peter Selinger 2001-2019
</metadata>
<g transform="translate(0.000000,889.000000) scale(0.100000,-0.100000)"
fill="#000000" stroke="none">
<path d="M4892 8105 l-454 -784 -77 39 c-257 129 -561 223 -881 272 -122 18
-186 22 -405 22 -219 0 -283 -4 -405 -22 -519 -80 -966 -268 -1389 -584 -160
-120 -435 -389 -562 -548 -387 -490 -623 -1070 -701 -1725 -19 -165 -16 -588
6 -750 88 -651 351 -1222 784 -1702 114 -125 274 -273 405 -370 l87 -66 -24
-41 c-352 -608 -916 -1589 -914 -1591 22 -16 428 -245 434 -245 5 0 218 362
474 805 256 443 469 805 473 805 4 0 59 -22 120 -49 1290 -561 2811 -156 3663
975 323 429 525 927 600 1479 22 162 25 585 6 750 -78 655 -316 1240 -702
1725 -134 169 -413 444 -538 532 -23 15 -22 16 438 813 254 439 460 798 458
800 -22 16 -428 245 -434 245 -5 0 -213 -353 -462 -785z m-1614 -966 c222 -24
429 -82 622 -175 88 -42 220 -116 248 -139 3 -3 -2496 -4335 -2509 -4349 -11
-12 -21 0 -101 119 -203 302 -310 658 -360 1190 -18 189 -18 1105 0 1305 39
440 117 767 247 1039 99 206 186 333 329 480 153 157 293 258 496 355 313 150
682 213 1028 175z m1312 -766 c79 -119 182 -334 233 -489 75 -228 120 -468
149 -794 18 -200 18 -1116 0 -1305 -57 -615 -198 -1014 -473 -1342 -462 -550
-1342 -761 -2094 -503 -121 42 -375 165 -375 182 0 13 2493 4328 2501 4328 4
0 30 -35 59 -77z"/>
</g>
</svg>
