<?xml version="1.0" standalone="no"?>
<!DOCTYPE svg PUBLIC "-//W3C//DTD SVG 20010904//EN"
 "http://www.w3.org/TR/2001/REC-SVG-20010904/DTD/svg10.dtd">
<svg version="1.0" xmlns="http://www.w3.org/2000/svg"
 width="590.000000pt" height="937.000000pt" viewBox="0 0 590.000000 937.000000"
 preserveAspectRatio="xMidYMid meet">
<metadata>
Created by potrace 1.16, written by Peter Selinger 2001-2019
</metadata>
<g transform="translate(0.000000,937.000000) scale(0.100000,-0.100000)"
fill="#000000" stroke="none">
<path d="M568 9341 c-25 -18 -63 -50 -82 -71 -30 -34 -36 -47 -36 -86 0 -48
20 -93 50 -111 9 -6 73 -28 141 -48 585 -175 1179 -478 1706 -872 l114 -85
-313 -181 c-1126 -650 -1133 -653 -1156 -688 -32 -45 -26 -97 20 -175 44 -76
89 -107 143 -101 31 3 228 112 814 451 425 245 778 446 783 446 17 0 454 -445
570 -580 503 -590 880 -1239 1124 -1940 36 -102 39 -120 21 -96 -231 303 -380
450 -622 611 -338 226 -696 314 -1124 276 -1116 -99 -2066 -829 -2494 -1916
-232 -589 -289 -1255 -157 -1845 97 -439 302 -868 581 -1222 105 -132 335
-362 467 -467 410 -324 887 -531 1417 -613 203 -32 617 -32 820 0 530 82 1007
289 1417 613 132 105 362 335 467 467 122 154 228 320 318 498 160 315 247
586 305 949 19 116 21 186 25 650 5 547 -3 757 -37 1030 -61 475 -187 952
-373 1410 -74 183 -280 597 -378 760 -393 656 -899 1237 -1494 1711 -144 114
-147 117 -124 130 13 7 334 192 713 412 437 252 697 408 710 426 34 45 28 108
-18 184 -46 78 -85 105 -142 99 -31 -3 -219 -107 -822 -456 -430 -248 -784
-451 -786 -451 -3 0 -44 25 -92 56 -427 275 -1007 538 -1499 678 -290 82 -655
156 -851 172 -77 6 -80 5 -126 -25z m2529 -3592 c228 -31 440 -120 645 -271
110 -80 295 -268 391 -396 271 -362 458 -826 546 -1357 44 -259 55 -416 55
-740 -2 -878 -153 -1472 -491 -1926 -26 -35 -95 -113 -153 -173 -489 -505
-1182 -645 -1788 -360 -194 91 -347 201 -502 360 -117 121 -173 192 -257 328
-203 326 -317 723 -370 1281 -21 229 -25 945 -5 1165 43 479 126 811 279 1112
304 599 873 978 1480 987 50 0 127 -4 170 -10z"/>
</g>
</svg>
