<?xml version="1.0" standalone="no"?>
<!DOCTYPE svg PUBLIC "-//W3C//DTD SVG 20010904//EN"
 "http://www.w3.org/TR/2001/REC-SVG-20010904/DTD/svg10.dtd">
<svg version="1.0" xmlns="http://www.w3.org/2000/svg"
 width="590.000000pt" height="877.000000pt" viewBox="0 0 590.000000 877.000000"
 preserveAspectRatio="xMidYMid meet">
<metadata>
Created by potrace 1.16, written by Peter Selinger 2001-2019
</metadata>
<g transform="translate(0.000000,877.000000) scale(0.100000,-0.100000)"
fill="#000000" stroke="none">
<path d="M2064 7793 c-482 -538 -883 -985 -891 -994 -12 -14 2 -31 120 -142
l134 -126 759 749 c417 412 761 750 764 750 3 0 347 -338 764 -750 l759 -749
134 126 c118 111 132 128 120 142 -111 130 -1771 1971 -1777 1971 -5 0 -404
-440 -886 -977z"/>
<path d="M2750 6094 c-19 -2 -78 -9 -130 -14 -659 -72 -1328 -421 -1793 -935
-738 -817 -1009 -1985 -701 -3030 103 -349 299 -724 531 -1014 102 -127 333
-358 461 -459 522 -414 1171 -642 1827 -642 656 0 1305 228 1827 642 128 101
359 332 461 459 174 218 348 518 450 779 281 714 274 1552 -20 2295 -280 711
-789 1280 -1439 1612 -295 151 -610 249 -939 293 -83 11 -473 21 -535 14z
m485 -358 c395 -71 755 -276 1003 -571 284 -338 429 -746 484 -1365 18 -197
18 -1198 0 -1405 -62 -729 -250 -1203 -614 -1550 -421 -402 -1014 -555 -1587
-411 -482 122 -881 453 -1102 914 -137 285 -213 604 -251 1047 -18 207 -18
1208 0 1405 71 793 304 1285 772 1632 242 179 482 270 845 322 65 9 364 -3
450 -18z"/>
</g>
</svg>
