<?xml version="1.0" standalone="no"?>
<!DOCTYPE svg PUBLIC "-//W3C//DTD SVG 20010904//EN"
 "http://www.w3.org/TR/2001/REC-SVG-20010904/DTD/svg10.dtd">
<svg version="1.0" xmlns="http://www.w3.org/2000/svg"
 width="584.000000pt" height="954.000000pt" viewBox="0 0 584.000000 954.000000"
 preserveAspectRatio="xMidYMid meet">
<metadata>
Created by potrace 1.16, written by Peter Selinger 2001-2019
</metadata>
<g transform="translate(0.000000,954.000000) scale(0.100000,-0.100000)"
fill="#000000" stroke="none">
<path d="M2635 9525 c-801 -88 -1507 -538 -1912 -1219 -399 -671 -618 -1472
-693 -2536 -42 -596 -39 -1544 6 -2120 69 -893 238 -1572 539 -2165 196 -387
398 -653 664 -877 380 -318 802 -505 1321 -585 162 -25 548 -25 710 0 519 80
941 267 1321 585 266 224 468 490 664 877 301 593 470 1272 539 2165 45 576
48 1524 6 2120 -75 1064 -294 1865 -693 2536 -505 849 -1477 1328 -2472 1219z
m532 -519 c507 -101 944 -504 1111 -1026 95 -298 148 -735 184 -1520 18 -383
18 -2737 0 -3165 -37 -888 -95 -1390 -198 -1705 -131 -399 -419 -754 -754
-929 -205 -107 -364 -146 -595 -146 -231 0 -390 39 -595 146 -335 175 -623
530 -754 929 -103 315 -161 817 -198 1705 -18 428 -18 2782 0 3165 52 1140
133 1550 376 1915 234 350 576 575 973 640 110 18 336 13 450 -9z"/>
</g>
</svg>
