<?xml version="1.0" standalone="no"?>
<!DOCTYPE svg PUBLIC "-//W3C//DTD SVG 20010904//EN"
 "http://www.w3.org/TR/2001/REC-SVG-20010904/DTD/svg10.dtd">
<svg version="1.0" xmlns="http://www.w3.org/2000/svg"
 width="616.000000pt" height="927.000000pt" viewBox="0 0 616.000000 927.000000"
 preserveAspectRatio="xMidYMid meet">
<metadata>
Created by potrace 1.16, written by Peter Selinger 2001-2019
</metadata>
<g transform="translate(0.000000,927.000000) scale(0.100000,-0.100000)"
fill="#000000" stroke="none">
<path d="M1580 9255 c-297 -63 -525 -279 -606 -575 -25 -90 -25 -290 0 -380
43 -157 142 -313 259 -410 73 -60 215 -133 307 -157 91 -24 292 -24 380 0 90
24 234 96 302 151 119 95 222 253 264 406 26 91 26 309 0 400 -42 153 -145
311 -264 406 -67 54 -212 127 -297 150 -82 22 -263 27 -345 9z"/>
<path d="M4270 9256 c-251 -58 -445 -207 -549 -420 -62 -127 -75 -190 -75
-346 0 -156 13 -219 75 -346 75 -154 194 -272 354 -350 132 -64 197 -79 345
-79 149 1 217 16 345 80 160 79 285 206 359 365 56 121 70 189 70 330 0 89 -5
144 -18 190 -43 157 -142 313 -259 410 -71 59 -214 133 -302 156 -80 21 -274
27 -345 10z"/>
<path d="M2816 6329 c-572 -59 -1072 -255 -1535 -601 -160 -120 -435 -389
-562 -548 -387 -490 -623 -1070 -701 -1725 -19 -165 -16 -588 6 -750 149
-1094 825 -2006 1811 -2441 1492 -658 3222 -44 3971 1411 165 320 269 656 320
1030 22 162 25 585 6 750 -78 655 -314 1235 -701 1725 -127 159 -402 428 -562
548 -422 315 -875 506 -1384 582 -161 24 -522 35 -669 19z m584 -429 c232 -43
466 -138 666 -272 122 -81 303 -250 389 -363 131 -171 249 -410 314 -635 99
-343 131 -690 131 -1405 0 -676 -28 -1023 -106 -1345 -103 -418 -307 -778
-571 -1004 -792 -679 -2012 -526 -2579 325 -193 290 -316 671 -364 1134 -30
291 -41 1090 -20 1480 31 568 126 952 315 1270 89 150 157 235 288 362 270
261 615 423 1010 473 118 15 396 4 527 -20z"/>
</g>
</svg>
