<?xml version="1.0" standalone="no"?>
<!DOCTYPE svg PUBLIC "-//W3C//DTD SVG 20010904//EN"
 "http://www.w3.org/TR/2001/REC-SVG-20010904/DTD/svg10.dtd">
<svg version="1.0" xmlns="http://www.w3.org/2000/svg"
 width="631.000000pt" height="930.000000pt" viewBox="0 0 631.000000 930.000000"
 preserveAspectRatio="xMidYMid meet">
<metadata>
Created by potrace 1.16, written by Peter Selinger 2001-2019
</metadata>
<g transform="translate(0.000000,930.000000) scale(0.100000,-0.100000)"
fill="#000000" stroke="none">
<path d="M2320 9285 c-557 -77 -997 -428 -1127 -900 -24 -88 -27 -117 -27
-250 0 -133 3 -162 27 -250 166 -606 840 -995 1559 -900 563 74 1005 425 1135
900 24 88 27 118 27 250 0 132 -3 162 -27 250 -166 607 -848 999 -1567 900z
m580 -418 c301 -58 469 -204 542 -472 18 -68 21 -107 21 -260 0 -153 -3 -192
-21 -260 -73 -268 -242 -415 -542 -472 -108 -20 -450 -28 -595 -14 -387 38
-584 181 -667 486 -18 68 -21 106 -21 260 0 200 15 282 73 401 96 197 289 310
581 343 120 14 537 5 629 -12z"/>
<path d="M2275 6334 c-587 -46 -1029 -173 -1357 -393 -347 -232 -534 -581
-515 -960 9 -191 74 -338 202 -460 131 -124 290 -185 480 -185 190 0 349 61
480 185 126 120 192 269 202 455 18 322 -151 583 -444 688 l-38 14 86 40 c183
86 451 154 739 188 208 25 556 25 670 1 253 -54 465 -167 657 -351 249 -237
397 -520 469 -896 12 -66 17 -172 21 -466 l5 -381 -169 -7 c-1022 -42 -1825
-214 -2498 -535 -277 -132 -490 -278 -689 -471 -249 -241 -407 -487 -499 -775
-59 -183 -71 -267 -71 -475 0 -169 2 -195 27 -295 46 -181 113 -326 220 -471
289 -393 854 -672 1537 -759 175 -22 490 -30 625 -16 410 44 792 193 1107 433
178 134 361 334 482 526 l60 94 17 -89 c44 -216 155 -435 303 -600 107 -119
292 -231 452 -275 107 -29 348 -32 474 -5 445 95 793 396 930 805 54 162 60
235 60 775 l0 487 -224 0 -225 0 -3 -533 c-4 -512 -5 -535 -26 -612 -52 -189
-142 -318 -260 -373 -48 -23 -71 -27 -142 -27 -71 0 -94 4 -142 27 -118 55
-207 183 -260 373 l-23 80 -5 1740 -6 1740 -22 99 c-178 777 -824 1371 -1727
1586 -225 54 -376 71 -655 75 -140 1 -277 1 -305 -1z m1653 -3721 c-4 -877 -4
-876 -63 -1072 -171 -572 -654 -1003 -1240 -1107 -139 -25 -399 -25 -515 -1
-301 64 -550 223 -727 463 -336 456 -267 1133 168 1651 377 448 1105 755 2009
847 203 21 223 22 303 24 l68 2 -3 -807z"/>
</g>
</svg>
