<?xml version="1.0" standalone="no"?>
<!DOCTYPE svg PUBLIC "-//W3C//DTD SVG 20010904//EN"
 "http://www.w3.org/TR/2001/REC-SVG-20010904/DTD/svg10.dtd">
<svg version="1.0" xmlns="http://www.w3.org/2000/svg"
 width="417.000000pt" height="832.000000pt" viewBox="0 0 417.000000 832.000000"
 preserveAspectRatio="xMidYMid meet">
<metadata>
Created by potrace 1.16, written by Peter Selinger 2001-2019
</metadata>
<g transform="translate(0.000000,832.000000) scale(0.100000,-0.100000)"
fill="#000000" stroke="none">
<path d="M1696 8158 c-16 -396 -81 -765 -192 -1089 -272 -799 -769 -1260
-1407 -1305 l-97 -7 0 -168 0 -169 555 0 555 0 0 -1899 c0 -1203 4 -1937 10
-2002 15 -155 47 -309 95 -456 167 -509 521 -843 1049 -988 200 -54 320 -69
556 -69 191 0 212 2 305 27 121 33 295 117 390 189 319 241 533 646 621 1173
14 82 18 197 21 633 l5 532 -185 0 -185 0 -5 -523 c-3 -426 -7 -541 -21 -627
-109 -679 -437 -1059 -886 -1026 -379 27 -647 305 -754 779 -52 226 -50 143
-53 2275 l-4 1982 936 0 935 0 0 225 0 225 -935 0 -935 0 0 1225 0 1225 -183
0 -184 0 -7 -162z"/>
</g>
</svg>
