<?xml version="1.0" standalone="no"?>
<!DOCTYPE svg PUBLIC "-//W3C//DTD SVG 20010904//EN"
 "http://www.w3.org/TR/2001/REC-SVG-20010904/DTD/svg10.dtd">
<svg version="1.0" xmlns="http://www.w3.org/2000/svg"
 width="733.000000pt" height="907.000000pt" viewBox="0 0 733.000000 907.000000"
 preserveAspectRatio="xMidYMid meet">
<metadata>
Created by potrace 1.16, written by Peter Selinger 2001-2019
</metadata>
<g transform="translate(0.000000,907.000000) scale(0.100000,-0.100000)"
fill="#000000" stroke="none">
<path d="M0 8848 l0 -225 343 -6 c619 -11 822 -45 915 -152 42 -47 77 -118 91
-183 8 -38 11 -574 11 -1915 l0 -1862 -615 -509 c-542 -449 -613 -511 -602
-525 8 -9 69 -83 137 -166 68 -82 126 -154 130 -158 4 -4 218 167 476 381
l469 389 3 -1531 c2 -1111 0 -1547 -9 -1591 -13 -70 -46 -140 -91 -190 -93
-107 -296 -141 -915 -152 l-343 -6 0 -224 0 -223 3474 0 3474 0 6 42 c3 24 84
783 181 1688 96 905 177 1664 180 1688 l6 42 -185 0 -185 0 -5 -42 c-3 -24
-17 -144 -31 -268 -97 -855 -247 -1371 -515 -1772 -307 -459 -806 -759 -1450
-872 -276 -49 -323 -51 -1200 -51 -759 0 -832 1 -909 18 -163 35 -224 92 -250
232 -8 41 -11 676 -11 2144 l1 2086 1104 914 c973 805 1103 916 1091 930 -7 9
-71 86 -141 171 -71 85 -132 154 -136 153 -6 -2 -1812 -1494 -1902 -1571 -17
-15 -17 46 -15 1364 l3 1379 27 57 c31 67 96 140 153 174 128 74 556 114 1248
114 l267 0 0 226 0 227 -147 -7 c-907 -39 -3248 -39 -4010 0 l-123 6 0 -224z"/>
</g>
</svg>
