<?xml version="1.0" standalone="no"?>
<!DOCTYPE svg PUBLIC "-//W3C//DTD SVG 20010904//EN"
 "http://www.w3.org/TR/2001/REC-SVG-20010904/DTD/svg10.dtd">
<svg version="1.0" xmlns="http://www.w3.org/2000/svg"
 width="317.000000pt" height="611.000000pt" viewBox="0 0 317.000000 611.000000"
 preserveAspectRatio="xMidYMid meet">
<metadata>
Created by potrace 1.16, written by Peter Selinger 2001-2019
</metadata>
<g transform="translate(0.000000,611.000000) scale(0.100000,-0.100000)"
fill="#000000" stroke="none">
<path d="M1105 6034 c-561 -40 -1028 -73 -1037 -73 -17 -1 -18 -23 -18 -309
l0 -309 213 -6 c566 -16 718 -93 784 -399 17 -78 18 -197 18 -2088 l0 -2005
-31 -55 c-74 -131 -179 -156 -726 -167 l-308 -6 0 -310 0 -309 103 6 c670 41
2325 41 2960 0 l97 -7 0 310 0 310 -282 6 c-441 10 -575 37 -634 127 -57 87
-54 -91 -54 2747 l0 2613 -32 -1 c-18 -1 -492 -34 -1053 -75z"/>
</g>
</svg>
