<?xml version="1.0" standalone="no"?>
<!DOCTYPE svg PUBLIC "-//W3C//DTD SVG 20010904//EN"
 "http://www.w3.org/TR/2001/REC-SVG-20010904/DTD/svg10.dtd">
<svg version="1.0" xmlns="http://www.w3.org/2000/svg"
 width="846.000000pt" height="796.000000pt" viewBox="0 0 846.000000 796.000000"
 preserveAspectRatio="xMidYMid meet">
<metadata>
Created by potrace 1.16, written by Peter Selinger 2001-2019
</metadata>
<g transform="translate(0.000000,796.000000) scale(0.100000,-0.100000)"
fill="#000000" stroke="none">
<path d="M8110 7946 c-19 -8 -1824 -854 -4010 -1879 -2424 -1138 -3990 -1878
-4013 -1897 -59 -50 -82 -102 -82 -190 0 -88 23 -140 82 -190 23 -19 1599
-764 4038 -1908 l4000 -1877 70 0 c79 0 129 19 180 70 110 110 93 305 -33 387
-20 13 -1710 809 -3754 1768 -2045 959 -3718 1746 -3718 1750 0 4 1673 791
3718 1750 2044 959 3734 1755 3754 1768 157 102 135 354 -38 437 -49 24 -148
29 -194 11z"/>
</g>
</svg>
