<?xml version="1.0" standalone="no"?>
<!DOCTYPE svg PUBLIC "-//W3C//DTD SVG 20010904//EN"
 "http://www.w3.org/TR/2001/REC-SVG-20010904/DTD/svg10.dtd">
<svg version="1.0" xmlns="http://www.w3.org/2000/svg"
 width="485.000000pt" height="976.000000pt" viewBox="0 0 485.000000 976.000000"
 preserveAspectRatio="xMidYMid meet">
<metadata>
Created by potrace 1.16, written by Peter Selinger 2001-2019
</metadata>
<g transform="translate(0.000000,976.000000) scale(0.100000,-0.100000)"
fill="#000000" stroke="none">
<path d="M3780 9745 c-223 -50 -390 -178 -481 -370 -59 -123 -74 -191 -74
-335 0 -144 15 -212 74 -335 114 -240 355 -385 641 -385 202 0 417 87 529 216
l33 37 -7 -69 c-3 -38 -15 -123 -25 -189 -85 -537 -406 -1034 -865 -1336 -169
-111 -166 -108 -181 -146 -22 -51 -9 -95 44 -155 49 -53 92 -78 139 -78 71 0
365 212 548 395 296 294 506 664 610 1070 56 219 69 326 70 555 0 179 -3 218
-23 309 -58 258 -163 455 -324 607 -98 91 -184 143 -308 185 -81 27 -112 32
-215 35 -80 3 -142 -1 -185 -11z"/>
<path d="M1696 8158 c-15 -370 -75 -728 -171 -1028 -271 -839 -774 -1320
-1428 -1366 l-97 -7 0 -168 0 -169 555 0 554 0 4 -1982 c3 -2155 0 -2034 57
-2277 138 -588 483 -944 1053 -1090 194 -50 327 -65 577 -65 214 0 230 1 325
27 121 33 295 117 390 189 319 241 533 646 621 1173 14 82 18 197 21 633 l5
532 -185 0 -185 0 -5 -523 c-4 -562 -8 -612 -63 -837 -78 -313 -225 -564 -409
-696 -156 -111 -328 -146 -540 -109 -426 75 -646 404 -694 1040 -7 91 -11 806
-11 2063 l0 1922 935 0 935 0 0 225 0 225 -935 0 -935 0 0 1225 0 1225 -183 0
-184 0 -7 -162z"/>
</g>
</svg>
