<?xml version="1.0" standalone="no"?>
<!DOCTYPE svg PUBLIC "-//W3C//DTD SVG 20010904//EN"
 "http://www.w3.org/TR/2001/REC-SVG-20010904/DTD/svg10.dtd">
<svg version="1.0" xmlns="http://www.w3.org/2000/svg"
 width="384.000000pt" height="558.000000pt" viewBox="0 0 384.000000 558.000000"
 preserveAspectRatio="xMidYMid meet">
<metadata>
Created by potrace 1.16, written by Peter Selinger 2001-2019
</metadata>
<g transform="translate(0.000000,558.000000) scale(0.100000,-0.100000)"
fill="#000000" stroke="none">
<path d="M1826 5564 c-787 -122 -1451 -837 -1711 -1842 -83 -319 -109 -543
-109 -932 0 -389 26 -613 109 -932 238 -919 824 -1611 1528 -1803 505 -137
948 -16 1345 369 449 436 731 1095 824 1926 17 153 17 727 0 880 -78 699 -286
1264 -628 1710 -96 126 -295 319 -409 396 -300 204 -616 280 -949 228z m346
-508 c345 -66 666 -415 881 -956 236 -594 292 -1400 147 -2120 -137 -682 -499
-1257 -891 -1416 -237 -97 -486 -59 -692 105 -267 213 -434 563 -506 1066 -41
283 -46 406 -46 1055 0 649 5 772 46 1055 72 503 239 853 506 1066 169 134
356 183 555 145z"/>
</g>
</svg>
