<?xml version="1.0" standalone="no"?>
<!DOCTYPE svg PUBLIC "-//W3C//DTD SVG 20010904//EN"
 "http://www.w3.org/TR/2001/REC-SVG-20010904/DTD/svg10.dtd">
<svg version="1.0" xmlns="http://www.w3.org/2000/svg"
 width="922.000000pt" height="991.000000pt" viewBox="0 0 922.000000 991.000000"
 preserveAspectRatio="xMidYMid meet">
<metadata>
Created by potrace 1.16, written by Peter Selinger 2001-2019
</metadata>
<g transform="translate(0.000000,991.000000) scale(0.100000,-0.100000)"
fill="#000000" stroke="none">
<path d="M4345 9904 c-605 -47 -1128 -188 -1650 -444 -813 -399 -1479 -1019
-1970 -1835 -86 -144 -248 -465 -319 -634 -192 -457 -328 -993 -383 -1516 -25
-240 -25 -800 0 -1040 112 -1061 517 -2032 1172 -2810 416 -494 927 -893 1500
-1175 459 -225 933 -365 1450 -427 122 -14 224 -18 545 -17 801 1 1507 85
2317 275 668 157 1408 414 1996 692 175 83 172 81 191 121 32 68 9 144 -55
178 -31 16 -64 18 -374 18 l-341 0 -74 -36 c-893 -430 -1937 -715 -2970 -809
-591 -53 -1062 -44 -1470 31 -1380 252 -2568 1273 -3123 2684 -447 1134 -447
2456 0 3590 555 1411 1743 2431 3123 2684 260 48 406 60 695 60 289 0 435 -12
695 -60 1256 -230 2363 -1100 2965 -2329 288 -586 441 -1176 486 -1865 14
-211 7 -1044 -11 -1300 -33 -490 -94 -825 -195 -1072 -136 -330 -337 -508
-619 -547 -179 -25 -255 -8 -346 76 -103 95 -171 264 -200 493 -6 56 -10 715
-10 1945 0 1783 -1 1862 -18 1894 -37 70 -45 71 -437 72 l-350 0 -65 101
c-243 376 -605 702 -985 888 -331 162 -635 229 -985 217 -270 -9 -483 -48
-731 -133 -418 -143 -756 -359 -1079 -690 -222 -228 -381 -450 -526 -737 -564
-1112 -448 -2468 294 -3457 105 -139 341 -383 475 -491 258 -208 530 -358 836
-463 435 -149 890 -176 1284 -76 438 110 859 373 1173 731 l88 100 22 -65
c133 -393 528 -696 1040 -796 150 -30 386 -37 519 -17 421 65 733 316 945 759
240 503 356 1311 337 2348 -9 509 -62 885 -187 1344 -284 1034 -893 1963
-1701 2592 -661 515 -1435 835 -2244 929 -133 15 -615 28 -730 19z m457 -2319
c474 -62 907 -338 1243 -790 85 -114 179 -264 234 -372 l31 -62 0 -1406 0
-1406 -31 -62 c-129 -256 -333 -524 -540 -711 -385 -348 -871 -516 -1302 -451
-686 103 -1284 874 -1471 1895 -47 259 -60 412 -60 735 0 323 13 476 60 735
139 758 507 1392 989 1706 267 173 527 231 847 189z"/>
</g>
</svg>
