<?xml version="1.0" standalone="no"?>
<!DOCTYPE svg PUBLIC "-//W3C//DTD SVG 20010904//EN"
 "http://www.w3.org/TR/2001/REC-SVG-20010904/DTD/svg10.dtd">
<svg version="1.0" xmlns="http://www.w3.org/2000/svg"
 width="948.000000pt" height="1264.000000pt" viewBox="0 0 948.000000 1264.000000"
 preserveAspectRatio="xMidYMid meet">
<metadata>
Created by potrace 1.16, written by Peter Selinger 2001-2019
</metadata>
<g transform="translate(0.000000,1264.000000) scale(0.100000,-0.100000)"
fill="#000000" stroke="none">
<path d="M4547 12624 c-101 -15 -267 -69 -359 -115 -643 -323 -968 -1123 -769
-1891 121 -467 429 -842 832 -1015 46 -20 85 -37 87 -38 5 -4 -2816 -8249
-2851 -8334 -87 -211 -284 -414 -512 -529 -202 -101 -492 -164 -816 -178
l-159 -7 0 -260 0 -259 83 6 c539 41 2209 41 2900 0 l107 -7 0 262 0 261 -55
0 c-30 0 -101 5 -157 11 -407 44 -725 239 -808 498 -18 56 -21 87 -18 158 4
85 13 116 301 955 163 476 300 873 303 882 6 15 157 16 1673 16 l1666 0 365
-1068 c383 -1121 383 -1120 348 -1187 -21 -39 -73 -92 -121 -122 -135 -85
-486 -143 -869 -143 l-148 0 0 -261 0 -262 128 7 c823 41 2971 41 3665 0 l107
-7 0 260 0 260 -332 6 c-621 13 -787 45 -920 181 -30 30 -71 86 -91 123 -31
60 -3004 8731 -2995 8738 2 1 41 18 87 38 677 290 1038 1122 832 1919 -100
385 -330 714 -636 910 -265 171 -571 239 -868 192z m429 -417 c378 -83 589
-323 660 -752 15 -88 19 -165 19 -385 0 -220 -4 -297 -19 -385 -72 -432 -281
-668 -666 -753 -103 -23 -367 -23 -470 0 -385 85 -594 321 -666 753 -15 88
-19 165 -19 385 0 301 13 419 62 575 99 315 324 513 643 565 41 6 82 13 90 15
37 9 302 -5 366 -18z m103 -6491 c402 -1176 731 -2142 731 -2147 0 -5 -622 -9
-1486 -9 -1185 0 -1485 3 -1481 13 2 6 337 985 743 2174 668 1955 740 2160
750 2135 7 -15 341 -989 743 -2166z"/>
</g>
</svg>
