<?xml version="1.0" standalone="no"?>
<!DOCTYPE svg PUBLIC "-//W3C//DTD SVG 20010904//EN"
 "http://www.w3.org/TR/2001/REC-SVG-20010904/DTD/svg10.dtd">
<svg version="1.0" xmlns="http://www.w3.org/2000/svg"
 width="612.000000pt" height="883.000000pt" viewBox="0 0 612.000000 883.000000"
 preserveAspectRatio="xMidYMid meet">
<metadata>
Created by potrace 1.16, written by Peter Selinger 2001-2019
</metadata>
<g transform="translate(0.000000,883.000000) scale(0.100000,-0.100000)"
fill="#000000" stroke="none">
<path d="M2130 8819 c-537 -54 -982 -219 -1300 -485 -279 -231 -440 -563 -440
-904 0 -114 22 -208 70 -309 175 -364 712 -445 1010 -152 284 280 221 805
-121 994 -71 39 -172 73 -251 83 l-52 7 39 34 c152 131 402 252 660 318 278
71 641 102 840 72 280 -43 517 -167 730 -381 223 -224 375 -519 436 -847 19
-99 22 -163 26 -496 l5 -383 -34 0 c-168 0 -690 -40 -923 -70 -839 -109 -1588
-370 -2041 -711 -410 -308 -662 -682 -754 -1116 -27 -125 -36 -340 -21 -456
90 -670 723 -1137 1712 -1262 176 -22 490 -30 624 -16 462 50 888 257 1201
583 132 137 258 316 324 457 l24 53 13 -84 c39 -272 168 -520 363 -701 46 -42
81 -79 79 -81 -2 -2 -55 -44 -117 -94 -630 -501 -967 -1021 -989 -1528 -15
-341 96 -629 341 -883 117 -120 231 -205 376 -280 504 -261 1092 -237 1540 62
107 71 302 271 379 387 112 170 231 451 231 546 0 92 -94 165 -186 144 -50
-11 -96 -59 -124 -128 -91 -227 -255 -412 -445 -504 -130 -62 -202 -79 -360
-85 -119 -4 -156 -2 -245 17 -402 83 -738 361 -856 707 -160 472 81 969 694
1432 l84 63 74 -11 c197 -29 418 4 611 90 168 75 367 243 472 397 93 138 167
330 190 496 7 46 11 267 11 547 l0 469 -184 0 -185 0 -4 -512 c-4 -556 -5
-569 -63 -714 -108 -274 -337 -388 -559 -279 -94 45 -177 146 -229 279 -64
159 -60 39 -66 1876 l-6 1675 -22 95 c-173 743 -761 1297 -1608 1515 -217 56
-377 76 -644 80 -129 2 -278 -1 -330 -6z m1650 -3511 c0 -872 -5 -932 -85
-1174 -164 -493 -584 -889 -1077 -1014 -483 -124 -925 -12 -1234 313 -150 158
-238 320 -281 517 -26 125 -24 358 5 507 92 465 384 863 820 1120 425 250 942
398 1602 458 80 7 169 13 198 14 l52 1 0 -742z"/>
</g>
</svg>
