<?xml version="1.0" standalone="no"?>
<!DOCTYPE svg PUBLIC "-//W3C//DTD SVG 20010904//EN"
 "http://www.w3.org/TR/2001/REC-SVG-20010904/DTD/svg10.dtd">
<svg version="1.0" xmlns="http://www.w3.org/2000/svg"
 width="899.000000pt" height="1229.000000pt" viewBox="0 0 899.000000 1229.000000"
 preserveAspectRatio="xMidYMid meet">
<metadata>
Created by potrace 1.16, written by Peter Selinger 2001-2019
</metadata>
<g transform="translate(0.000000,1229.000000) scale(0.100000,-0.100000)"
fill="#000000" stroke="none">
<path d="M266 12233 c-4 -32 -62 -751 -131 -1598 -69 -847 -127 -1566 -131
-1597 l-6 -58 276 0 c152 0 276 2 276 5 0 25 45 510 61 655 65 595 164 1030
296 1295 87 174 201 300 382 420 233 155 497 243 882 292 113 15 223 17 709
18 570 0 638 -3 753 -35 50 -15 101 -61 123 -113 18 -41 19 -168 22 -3877 l2
-3836 -22 -44 c-41 -81 -145 -138 -298 -165 -188 -33 -704 -55 -1322 -55
l-368 0 0 -311 0 -312 163 7 c155 6 864 19 1630 31 l357 5 0 -510 0 -510 49 0
c73 0 245 -18 336 -36 250 -48 443 -136 576 -261 127 -120 181 -242 182 -408
2 -277 -166 -456 -535 -574 -288 -91 -636 -130 -1243 -137 -220 -2 -428 -7
-462 -10 l-63 -6 0 -251 0 -252 412 2 c685 4 1123 27 1506 79 802 108 1270
342 1457 727 155 323 112 724 -109 1003 -175 221 -502 404 -903 504 l-43 11 0
314 0 315 353 -5 c756 -12 1469 -25 1625 -31 l162 -7 0 312 0 311 -367 0
c-619 0 -1135 22 -1323 55 -153 27 -257 84 -298 165 l-22 44 2 3836 c3 3709 4
3836 22 3877 33 78 82 108 220 135 79 15 1001 22 1190 9 455 -33 783 -128
1052 -307 113 -76 241 -197 299 -284 178 -268 297 -724 374 -1430 16 -145 61
-630 61 -655 0 -3 124 -5 276 -5 l276 0 -6 58 c-4 31 -62 750 -131 1597 -69
847 -127 1566 -131 1598 l-6 57 -4218 0 -4218 0 -6 -57z"/>
</g>
</svg>
