<?xml version="1.0" standalone="no"?>
<!DOCTYPE svg PUBLIC "-//W3C//DTD SVG 20010904//EN"
 "http://www.w3.org/TR/2001/REC-SVG-20010904/DTD/svg10.dtd">
<svg version="1.0" xmlns="http://www.w3.org/2000/svg"
 width="360.000000pt" height="891.000000pt" viewBox="0 0 360.000000 891.000000"
 preserveAspectRatio="xMidYMid meet">
<metadata>
Created by potrace 1.16, written by Peter Selinger 2001-2019
</metadata>
<g transform="translate(0.000000,891.000000) scale(0.100000,-0.100000)"
fill="#000000" stroke="none">
<path d="M473 8896 c-210 -53 -399 -248 -458 -471 -19 -73 -19 -203 -1 -270
29 -109 104 -220 197 -292 46 -35 2022 -1146 2056 -1155 10 -3 333 416 333
432 0 3 -375 377 -833 831 -584 578 -849 834 -888 857 -91 53 -164 75 -264 78
-52 2 -112 -2 -142 -10z"/>
<path d="M1535 6034 c-561 -40 -1028 -73 -1037 -73 -17 -1 -18 -23 -18 -309
l0 -309 213 -6 c566 -16 718 -93 784 -399 17 -78 18 -197 18 -2088 l0 -2005
-31 -55 c-74 -131 -179 -156 -726 -167 l-308 -6 0 -310 0 -309 103 6 c670 41
2325 41 2960 0 l97 -7 0 310 0 310 -282 6 c-441 10 -575 37 -634 127 -57 87
-54 -91 -54 2747 l0 2613 -32 -1 c-18 -1 -492 -34 -1053 -75z"/>
</g>
</svg>
