<?xml version="1.0" standalone="no"?>
<!DOCTYPE svg PUBLIC "-//W3C//DTD SVG 20010904//EN"
 "http://www.w3.org/TR/2001/REC-SVG-20010904/DTD/svg10.dtd">
<svg version="1.0" xmlns="http://www.w3.org/2000/svg"
 width="538.000000pt" height="669.000000pt" viewBox="0 0 538.000000 669.000000"
 preserveAspectRatio="xMidYMid meet">
<metadata>
Created by potrace 1.16, written by Peter Selinger 2001-2019
</metadata>
<g transform="translate(0.000000,669.000000) scale(0.100000,-0.100000)"
fill="#000000" stroke="none">
<path d="M72 6670 c-48 -29 -74 -77 -69 -125 5 -46 102 -321 192 -545 382
-948 913 -1805 1593 -2575 69 -78 71 -80 53 -100 -812 -916 -1375 -1858 -1771
-2965 -73 -204 -80 -242 -51 -288 35 -55 75 -72 166 -72 131 0 126 -5 274 285
182 358 326 603 529 900 501 736 1108 1369 1817 1896 110 82 212 161 227 174
49 46 49 135 0 180 -15 14 -117 92 -227 174 -709 527 -1316 1160 -1817 1896
-203 297 -347 542 -529 900 -148 290 -143 285 -274 285 -62 0 -87 -4 -113 -20z"/>
<path d="M2372 6670 c-48 -29 -74 -77 -69 -125 5 -46 102 -321 192 -545 382
-948 913 -1805 1593 -2575 69 -78 71 -80 53 -100 -812 -916 -1375 -1858 -1771
-2965 -73 -204 -80 -242 -51 -288 35 -55 75 -72 166 -72 131 0 126 -5 274 285
182 358 326 603 529 900 501 736 1108 1369 1817 1896 110 82 212 161 227 174
49 46 49 135 0 180 -15 14 -117 92 -227 174 -709 527 -1316 1160 -1817 1896
-203 297 -347 542 -529 900 -148 290 -143 285 -274 285 -62 0 -87 -4 -113 -20z"/>
</g>
</svg>
