<?xml version="1.0" standalone="no"?>
<!DOCTYPE svg PUBLIC "-//W3C//DTD SVG 20010904//EN"
 "http://www.w3.org/TR/2001/REC-SVG-20010904/DTD/svg10.dtd">
<svg version="1.0" xmlns="http://www.w3.org/2000/svg"
 width="672.000000pt" height="869.000000pt" viewBox="0 0 672.000000 869.000000"
 preserveAspectRatio="xMidYMid meet">
<metadata>
Created by potrace 1.16, written by Peter Selinger 2001-2019
</metadata>
<g transform="translate(0.000000,869.000000) scale(0.100000,-0.100000)"
fill="#000000" stroke="none">
<path d="M2278 8671 c-77 -25 -144 -69 -210 -139 -88 -92 -131 -179 -147 -297
-25 -179 59 -342 232 -449 40 -24 500 -286 1022 -581 523 -295 960 -543 972
-551 20 -13 25 -8 109 104 48 64 98 131 111 148 l24 32 -788 769 c-433 423
-822 800 -863 838 -49 44 -101 81 -150 104 -65 31 -85 36 -165 38 -68 2 -104
-2 -147 -16z"/>
<path d="M980 5944 c-520 -40 -953 -73 -962 -73 -17 -1 -18 -19 -18 -224 l0
-224 218 -6 c562 -15 720 -90 790 -375 14 -60 17 -247 22 -1812 6 -1740 6
-1745 28 -1865 55 -304 137 -514 278 -712 151 -212 389 -386 683 -498 112 -42
342 -100 481 -119 298 -43 726 -46 923 -7 542 109 1003 468 1286 1001 l51 95
0 -562 c0 -310 2 -563 4 -563 14 0 1834 141 1884 145 l62 7 0 222 0 223 -217
6 c-563 15 -720 90 -791 375 -15 61 -17 283 -19 2556 l-3 2488 -63 -6 c-34 -3
-453 -35 -932 -71 -478 -35 -898 -67 -932 -71 l-63 -6 0 -222 0 -223 218 -6
c565 -16 722 -91 790 -380 16 -66 17 -200 17 -1517 0 -1524 1 -1491 -46 -1725
-105 -521 -384 -975 -753 -1224 -144 -98 -324 -174 -486 -206 -252 -50 -680
-18 -912 69 -119 45 -188 88 -279 174 -150 142 -211 325 -238 710 -7 102 -11
917 -11 2428 l0 2274 -32 -1 c-18 -1 -458 -34 -978 -75z"/>
</g>
</svg>
