<?xml version="1.0" standalone="no"?>
<!DOCTYPE svg PUBLIC "-//W3C//DTD SVG 20010904//EN"
 "http://www.w3.org/TR/2001/REC-SVG-20010904/DTD/svg10.dtd">
<svg version="1.0" xmlns="http://www.w3.org/2000/svg"
 width="1045.000000pt" height="937.000000pt" viewBox="0 0 1045.000000 937.000000"
 preserveAspectRatio="xMidYMid meet">
<metadata>
Created by potrace 1.16, written by Peter Selinger 2001-2019
</metadata>
<g transform="translate(0.000000,937.000000) scale(0.100000,-0.100000)"
fill="#000000" stroke="none">
<path d="M0 9146 l0 -226 228 0 c535 -1 891 -34 1013 -96 61 -30 132 -111 161
-182 l23 -57 0 -3750 0 -3750 -23 -57 c-29 -71 -100 -152 -161 -182 -122 -62
-478 -95 -1013 -96 l-228 0 0 -226 0 -226 132 6 c821 39 2995 39 3816 0 l132
-6 0 226 0 226 -227 0 c-531 1 -894 35 -1013 95 -62 31 -133 112 -162 183
l-23 57 0 3750 0 3750 23 57 c29 71 100 152 162 183 119 60 482 94 1013 95
l227 0 0 226 0 226 -132 -6 c-395 -19 -1067 -29 -1908 -29 -841 0 -1513 10
-1907 29 l-133 6 0 -226z"/>
<path d="M6470 9146 l0 -226 283 0 c705 0 1146 -38 1288 -110 60 -31 131 -106
165 -175 l29 -60 0 -3305 0 -3305 -23 -143 c-120 -757 -533 -1314 -1076 -1453
-208 -53 -539 -26 -826 67 -325 107 -650 332 -818 568 l-33 46 68 0 c79 0 223
28 306 60 84 32 197 111 266 186 180 196 237 507 145 782 -58 174 -190 325
-356 406 -120 59 -187 76 -324 83 -379 19 -690 -207 -775 -564 -19 -78 -21
-108 -16 -258 8 -245 55 -432 164 -650 272 -544 854 -941 1548 -1059 405 -69
878 -34 1281 95 906 290 1546 1016 1644 1864 6 60 10 1179 10 3325 0 3468 -2
3309 48 3406 27 52 77 99 133 123 95 42 365 71 677 71 l162 0 0 226 0 226
-102 -6 c-646 -39 -2808 -39 -3720 0 l-148 7 0 -227z"/>
</g>
</svg>
