<?xml version="1.0" standalone="no"?>
<!DOCTYPE svg PUBLIC "-//W3C//DTD SVG 20010904//EN"
 "http://www.w3.org/TR/2001/REC-SVG-20010904/DTD/svg10.dtd">
<svg version="1.0" xmlns="http://www.w3.org/2000/svg"
 width="846.000000pt" height="56.000000pt" viewBox="0 0 846.000000 56.000000"
 preserveAspectRatio="xMidYMid meet">
<metadata>
Created by potrace 1.16, written by Peter Selinger 2001-2019
</metadata>
<g transform="translate(0.000000,56.000000) scale(0.100000,-0.100000)"
fill="#000000" stroke="none">
<path d="M180 543 c-66 -24 -144 -106 -164 -173 -33 -112 -11 -206 67 -285 35
-34 69 -57 101 -68 46 -16 333 -17 4041 -17 3708 0 3995 1 4041 17 70 24 147
103 168 173 20 68 20 112 0 180 -21 70 -98 149 -168 173 -46 16 -332 17 -4045
16 -3614 -1 -4000 -2 -4041 -16z"/>
</g>
</svg>
