<?xml version="1.0" standalone="no"?>
<!DOCTYPE svg PUBLIC "-//W3C//DTD SVG 20010904//EN"
 "http://www.w3.org/TR/2001/REC-SVG-20010904/DTD/svg10.dtd">
<svg version="1.0" xmlns="http://www.w3.org/2000/svg"
 width="1000.000000pt" height="634.000000pt" viewBox="0 0 1000.000000 634.000000"
 preserveAspectRatio="xMidYMid meet">
<metadata>
Created by potrace 1.16, written by Peter Selinger 2001-2019
</metadata>
<g transform="translate(0.000000,634.000000) scale(0.100000,-0.100000)"
fill="#000000" stroke="none">
<path d="M2685 6325 c-350 -40 -678 -139 -998 -303 -786 -400 -1361 -1136
-1587 -2031 -117 -465 -131 -982 -39 -1451 102 -520 329 -1016 650 -1422 98
-123 350 -377 469 -472 543 -433 1208 -662 1870 -643 281 9 495 45 756 128
326 104 655 282 934 505 188 150 442 427 585 637 l58 86 70 -97 c231 -320 510
-589 822 -794 134 -89 430 -238 576 -292 290 -106 577 -162 884 -173 277 -9
496 21 745 103 702 229 1265 828 1479 1575 37 126 38 159 10 209 -36 63 -79
80 -204 80 -169 0 -197 -24 -249 -217 -135 -494 -482 -938 -900 -1152 -411
-210 -945 -198 -1431 33 -575 274 -978 793 -1155 1491 -74 291 -108 564 -117
953 l-6 262 1983 0 1982 0 38 21 c21 12 48 39 60 62 23 39 23 45 17 246 -26
801 -218 1417 -589 1882 -188 237 -392 400 -680 543 -451 225 -1016 301 -1528
205 -680 -128 -1299 -537 -1727 -1142 -39 -56 -78 -110 -85 -120 -12 -18 -16
-14 -53 39 -134 196 -373 455 -570 617 -391 322 -881 542 -1380 619 -171 26
-521 33 -690 13z m498 -410 c379 -50 707 -215 993 -499 487 -486 694 -1199
671 -2316 -9 -405 -31 -644 -88 -937 -137 -704 -471 -1226 -980 -1531 -157
-95 -362 -169 -559 -204 -109 -19 -383 -16 -499 6 -542 100 -1020 499 -1270
1061 -187 418 -264 862 -278 1585 -13 706 48 1216 192 1616 230 636 734 1094
1325 1204 178 33 322 37 493 15z m4614 0 c222 -36 427 -146 603 -325 223 -226
395 -599 484 -1050 40 -198 62 -398 80 -722 l5 -88 -1519 0 -1520 0 0 23 c0
42 31 292 51 412 113 679 421 1214 873 1517 295 197 639 282 943 233z"/>
</g>
</svg>
