<?xml version="1.0" standalone="no"?>
<!DOCTYPE svg PUBLIC "-//W3C//DTD SVG 20010904//EN"
 "http://www.w3.org/TR/2001/REC-SVG-20010904/DTD/svg10.dtd">
<svg version="1.0" xmlns="http://www.w3.org/2000/svg"
 width="636.000000pt" height="906.000000pt" viewBox="0 0 636.000000 906.000000"
 preserveAspectRatio="xMidYMid meet">
<metadata>
Created by potrace 1.16, written by Peter Selinger 2001-2019
</metadata>
<g transform="translate(0.000000,906.000000) scale(0.100000,-0.100000)"
fill="#000000" stroke="none">
<path d="M2163 9046 c-210 -53 -399 -248 -458 -471 -19 -73 -19 -203 -1 -270
29 -109 104 -220 197 -292 46 -35 2022 -1146 2056 -1155 10 -3 333 416 333
432 0 3 -375 377 -833 831 -584 578 -849 834 -888 857 -91 53 -164 75 -264 78
-52 2 -112 -2 -142 -10z"/>
<path d="M2215 6329 c-1142 -75 -1779 -485 -1812 -1164 -18 -373 170 -648 517
-757 64 -19 96 -23 215 -23 119 0 151 4 215 23 343 108 535 384 517 746 -11
224 -112 425 -275 548 l-34 25 104 22 c255 53 487 74 823 75 281 1 339 -6 505
-61 380 -128 705 -458 848 -863 74 -212 92 -357 92 -748 l0 -289 -152 -7
c-809 -37 -1431 -139 -2003 -331 -414 -139 -734 -297 -998 -493 -111 -83 -308
-269 -392 -372 -175 -215 -298 -468 -357 -737 -29 -134 -32 -426 -5 -552 105
-485 412 -852 922 -1101 177 -87 299 -131 490 -180 260 -67 400 -83 700 -84
292 -1 388 10 629 71 190 47 313 93 496 184 164 82 304 170 423 267 96 79 293
283 347 360 46 65 60 75 60 43 0 -38 63 -207 113 -305 140 -275 345 -451 614
-528 110 -32 351 -32 500 0 273 59 492 173 682 356 158 153 260 328 319 545
l26 96 4 533 3 532 -275 0 -275 0 -3 -527 c-4 -512 -5 -530 -26 -601 -45 -149
-106 -239 -193 -287 -47 -26 -64 -30 -134 -30 -70 0 -87 4 -134 30 -87 48
-147 138 -193 287 l-23 73 -5 1735 -6 1735 -22 93 c-55 237 -141 435 -271 629
-209 311 -505 561 -886 748 -320 157 -672 252 -1050 285 -136 11 -461 11 -640
-1z m1712 -3741 c-4 -867 -3 -848 -72 -1055 -77 -230 -199 -419 -388 -599
-265 -254 -609 -400 -993 -421 -495 -27 -934 247 -1123 700 -133 322 -93 753
100 1081 176 297 426 517 784 691 399 194 866 315 1405 364 63 6 131 13 150
14 19 2 59 5 88 5 l53 2 -4 -782z"/>
</g>
</svg>
