<?xml version="1.0" standalone="no"?>
<!DOCTYPE svg PUBLIC "-//W3C//DTD SVG 20010904//EN"
 "http://www.w3.org/TR/2001/REC-SVG-20010904/DTD/svg10.dtd">
<svg version="1.0" xmlns="http://www.w3.org/2000/svg"
 width="352.000000pt" height="481.000000pt" viewBox="0 0 352.000000 481.000000"
 preserveAspectRatio="xMidYMid meet">
<metadata>
Created by potrace 1.16, written by Peter Selinger 2001-2019
</metadata>
<g transform="translate(0.000000,481.000000) scale(0.100000,-0.100000)"
fill="#000000" stroke="none">
<path d="M452 4790 c-103 -27 -204 -84 -276 -155 -117 -115 -170 -248 -170
-425 1 -69 78 -796 227 -2125 125 -1111 230 -2035 233 -2053 l5 -32 169 0
c105 0 170 4 170 10 0 5 104 933 230 2062 132 1182 230 2091 230 2143 0 173
-51 297 -169 416 -84 84 -173 134 -292 163 -92 22 -263 20 -357 -4z"/>
<path d="M2687 4790 c-117 -31 -194 -76 -278 -159 -118 -119 -169 -243 -169
-416 0 -52 98 -961 230 -2143 127 -1129 230 -2057 230 -2062 0 -6 65 -10 170
-10 l169 0 5 32 c3 18 108 942 233 2053 149 1329 226 2056 227 2125 0 177 -53
310 -170 425 -73 73 -173 128 -280 155 -102 26 -271 26 -367 0z"/>
</g>
</svg>
