<?xml version="1.0" standalone="no"?>
<!DOCTYPE svg PUBLIC "-//W3C//DTD SVG 20010904//EN"
 "http://www.w3.org/TR/2001/REC-SVG-20010904/DTD/svg10.dtd">
<svg version="1.0" xmlns="http://www.w3.org/2000/svg"
 width="479.000000pt" height="937.000000pt" viewBox="0 0 479.000000 937.000000"
 preserveAspectRatio="xMidYMid meet">
<metadata>
Created by potrace 1.16, written by Peter Selinger 2001-2019
</metadata>
<g transform="translate(0.000000,937.000000) scale(0.100000,-0.100000)"
fill="#000000" stroke="none">
<path d="M2065 9356 c-155 -37 -253 -92 -365 -205 -98 -99 -157 -202 -190
-335 -41 -162 -19 -333 62 -496 33 -66 61 -104 128 -171 94 -95 175 -146 298
-187 67 -23 94 -26 212 -26 118 0 145 3 212 26 123 41 204 92 298 187 98 99
157 202 190 335 41 162 19 333 -62 496 -33 66 -61 104 -128 171 -95 96 -177
147 -298 186 -96 31 -266 40 -357 19z"/>
<path d="M2084 6841 c-17 -10 -36 -32 -42 -47 -7 -19 -12 -193 -16 -484 -5
-453 -15 -609 -51 -823 -113 -673 -410 -1302 -867 -1834 -127 -148 -305 -322
-482 -473 -167 -142 -243 -224 -337 -364 -344 -511 -384 -1268 -97 -1839 88
-176 173 -292 316 -429 301 -288 717 -460 1287 -530 160 -20 689 -16 860 6
670 86 1188 291 1575 624 168 145 290 297 383 479 106 208 155 393 164 623 5
116 3 147 -15 218 -32 126 -76 206 -157 287 -247 248 -663 248 -910 0 -186
-185 -229 -492 -106 -740 52 -103 103 -162 197 -224 98 -66 207 -101 337 -108
54 -3 96 -9 95 -14 -2 -4 -32 -44 -67 -88 -318 -403 -937 -672 -1680 -730
-523 -41 -874 52 -1094 289 -136 146 -192 340 -218 741 -15 231 -6 671 16 829
42 306 124 517 288 743 528 726 840 1633 917 2662 6 77 13 361 16 630 7 546 6
551 -55 592 -30 20 -46 23 -130 23 -76 0 -102 -4 -127 -19z"/>
</g>
</svg>
