<?xml version="1.0" standalone="no"?>
<!DOCTYPE svg PUBLIC "-//W3C//DTD SVG 20010904//EN"
 "http://www.w3.org/TR/2001/REC-SVG-20010904/DTD/svg10.dtd">
<svg version="1.0" xmlns="http://www.w3.org/2000/svg"
 width="616.000000pt" height="976.000000pt" viewBox="0 0 616.000000 976.000000"
 preserveAspectRatio="xMidYMid meet">
<metadata>
Created by potrace 1.16, written by Peter Selinger 2001-2019
</metadata>
<g transform="translate(0.000000,976.000000) scale(0.100000,-0.100000)"
fill="#000000" stroke="none">
<path d="M818 9747 c-61 -34 -256 -208 -267 -239 -20 -58 -8 -111 36 -150 10
-10 100 -45 198 -79 311 -106 615 -244 920 -416 161 -92 436 -270 576 -374
l87 -64 -651 -375 c-497 -287 -654 -382 -668 -405 -37 -60 -27 -102 63 -257
75 -130 85 -142 126 -160 26 -12 55 -18 72 -15 19 4 1085 612 1462 835 26 15
26 15 131 -81 124 -116 345 -353 494 -532 314 -376 603 -821 813 -1250 75
-153 200 -435 200 -451 0 -3 -40 31 -88 76 -289 264 -593 426 -942 502 -92 19
-133 22 -335 22 -166 0 -263 -5 -350 -17 -464 -68 -881 -229 -1270 -489 -195
-131 -320 -234 -491 -409 -513 -525 -822 -1185 -916 -1959 -17 -139 -17 -584
0 -720 139 -1103 809 -2020 1806 -2472 235 -106 545 -195 836 -241 196 -30
634 -30 830 0 384 60 734 176 1051 348 795 432 1367 1209 1548 2106 50 247 54
297 58 849 6 670 -10 943 -77 1335 -222 1286 -918 2544 -1925 3479 -128 119
-389 341 -459 392 l-30 22 80 46 c43 25 331 191 639 369 439 254 565 330 583
357 39 58 31 90 -61 250 -88 151 -117 180 -180 180 -38 0 -37 1 -830 -458
l-709 -409 -126 77 c-589 357 -1240 612 -1902 744 -223 45 -296 52 -332 33z
m2441 -3933 c415 -61 811 -348 1084 -787 64 -104 184 -352 231 -479 161 -437
237 -985 222 -1598 -19 -806 -132 -1281 -400 -1684 -239 -359 -632 -618 -1051
-692 -137 -25 -403 -25 -540 0 -348 62 -684 253 -920 523 -259 296 -414 675
-484 1183 -38 282 -46 437 -46 950 0 495 7 646 41 895 91 664 346 1124 794
1431 311 213 714 311 1069 258z"/>
</g>
</svg>
