<?xml version="1.0" standalone="no"?>
<!DOCTYPE svg PUBLIC "-//W3C//DTD SVG 20010904//EN"
 "http://www.w3.org/TR/2001/REC-SVG-20010904/DTD/svg10.dtd">
<svg version="1.0" xmlns="http://www.w3.org/2000/svg"
 width="821.000000pt" height="945.000000pt" viewBox="0 0 821.000000 945.000000"
 preserveAspectRatio="xMidYMid meet">
<metadata>
Created by potrace 1.16, written by Peter Selinger 2001-2019
</metadata>
<g transform="translate(0.000000,945.000000) scale(0.100000,-0.100000)"
fill="#000000" stroke="none">
<path d="M0 9192 l0 -259 373 -6 c385 -7 544 -16 707 -43 150 -25 215 -60 274
-147 72 -107 66 262 66 -4012 0 -4274 6 -3905 -66 -4012 -59 -87 -124 -122
-274 -147 -163 -27 -322 -36 -707 -43 l-373 -6 0 -260 0 -260 128 7 c825 41
3089 41 3915 0 l127 -7 0 260 0 260 -373 6 c-385 7 -544 16 -707 43 -150 25
-215 60 -274 147 -71 105 -66 -25 -66 1859 l0 1698 1218 0 c1316 0 1362 2
1676 55 585 99 1116 324 1566 665 163 123 409 369 526 525 478 638 590 1373
318 2083 -345 899 -1256 1581 -2389 1787 -349 63 -133 59 -3027 62 l-2638 4 0
-259z m5020 -286 c516 -68 878 -213 1172 -469 252 -221 394 -517 453 -942 47
-341 47 -1003 -1 -1335 -67 -468 -232 -770 -552 -1010 -277 -208 -598 -328
-1045 -392 -147 -21 -189 -22 -1244 -25 l-1093 -4 0 1949 c0 1269 4 1968 10
2003 30 158 109 213 340 238 47 5 479 8 960 6 745 -2 894 -4 1000 -19z"/>
</g>
</svg>
