<?xml version="1.0" standalone="no"?>
<!DOCTYPE svg PUBLIC "-//W3C//DTD SVG 20010904//EN"
 "http://www.w3.org/TR/2001/REC-SVG-20010904/DTD/svg10.dtd">
<svg version="1.0" xmlns="http://www.w3.org/2000/svg"
 width="950.000000pt" height="1199.000000pt" viewBox="0 0 950.000000 1199.000000"
 preserveAspectRatio="xMidYMid meet">
<metadata>
Created by potrace 1.16, written by Peter Selinger 2001-2019
</metadata>
<g transform="translate(0.000000,1199.000000) scale(0.100000,-0.100000)"
fill="#000000" stroke="none">
<path d="M3280 11984 c-211 -41 -400 -149 -520 -297 -64 -79 -133 -211 -162
-313 -33 -113 -33 -315 0 -428 66 -230 215 -413 423 -521 135 -70 219 -90 379
-90 161 0 243 20 381 91 207 107 355 289 421 520 33 113 33 315 0 428 -82 286
-300 505 -582 586 -74 21 -279 36 -340 24z"/>
<path d="M5970 11984 c-341 -66 -589 -289 -682 -610 -33 -113 -33 -315 0 -428
66 -231 214 -413 421 -520 138 -71 220 -91 381 -91 160 0 244 20 379 90 161
83 273 195 356 356 70 135 90 219 90 379 0 160 -20 244 -90 379 -107 206 -290
356 -515 421 -74 21 -279 36 -340 24z"/>
<path d="M4479 9882 c-33 -17 -64 -43 -81 -67 -18 -27 -491 -1421 -1459 -4295
-787 -2340 -1443 -4277 -1457 -4305 -42 -85 -97 -157 -173 -231 -87 -83 -136
-117 -245 -172 -232 -117 -503 -174 -891 -189 l-173 -6 0 -310 0 -310 88 7
c573 41 2310 41 3005 0 l107 -7 0 310 0 310 -120 7 c-235 13 -390 50 -568 137
-100 49 -136 72 -197 131 -97 91 -145 183 -153 288 l-5 70 279 830 279 830
1624 -3 1624 -2 148 -440 c81 -242 233 -696 338 -1009 172 -511 190 -573 181
-601 -13 -38 -61 -86 -115 -113 -151 -75 -487 -121 -882 -122 l-163 0 0 -311
0 -312 138 7 c884 41 3010 41 3765 0 l117 -7 0 312 0 311 -237 0 c-265 0 -603
14 -733 31 -195 24 -301 76 -375 184 -29 41 -301 841 -1530 4495 -1010 2999
-1505 4458 -1523 4485 -17 24 -48 50 -81 67 l-53 28 -213 0 -213 0 -53 -28z
m566 -4252 c384 -1141 700 -2081 703 -2087 3 -10 -282 -13 -1407 -13 -776 0
-1411 3 -1411 8 -1 20 1406 4180 1411 4174 3 -4 320 -941 704 -2082z"/>
</g>
</svg>
