<?xml version="1.0" standalone="no"?>
<!DOCTYPE svg PUBLIC "-//W3C//DTD SVG 20010904//EN"
 "http://www.w3.org/TR/2001/REC-SVG-20010904/DTD/svg10.dtd">
<svg version="1.0" xmlns="http://www.w3.org/2000/svg"
 width="909.000000pt" height="634.000000pt" viewBox="0 0 909.000000 634.000000"
 preserveAspectRatio="xMidYMid meet">
<metadata>
Created by potrace 1.16, written by Peter Selinger 2001-2019
</metadata>
<g transform="translate(0.000000,634.000000) scale(0.100000,-0.100000)"
fill="#000000" stroke="none">
<path d="M2175 6329 c-1142 -75 -1779 -485 -1812 -1164 -18 -373 170 -648 517
-757 64 -19 96 -23 215 -23 119 0 151 4 215 23 343 108 535 384 517 746 -11
224 -112 425 -275 548 l-34 25 104 22 c255 53 487 74 823 75 217 1 274 -2 343
-17 594 -131 1022 -628 1091 -1269 6 -54 11 -261 11 -461 l0 -364 -189 -6
c-994 -35 -1875 -226 -2536 -550 -633 -310 -1022 -759 -1142 -1317 -25 -119
-25 -401 0 -518 40 -180 117 -361 220 -511 66 -97 268 -299 374 -374 531 -377
1241 -513 2058 -396 846 121 1526 473 1898 981 27 38 50 68 51 68 2 0 45 -48
97 -107 114 -129 274 -275 429 -392 400 -302 860 -493 1365 -567 149 -22 438
-29 578 -15 846 88 1564 649 1890 1476 45 116 97 294 97 335 0 46 -36 104 -80
129 -34 19 -53 21 -195 21 -223 0 -243 -13 -292 -192 -102 -373 -326 -733
-588 -944 -260 -210 -517 -296 -845 -281 -455 21 -873 178 -1215 457 -84 69
-243 232 -306 315 -340 444 -508 1057 -509 1848 l0 167 1956 0 1956 0 38 21
c21 12 48 39 60 62 23 39 23 45 17 246 -25 793 -221 1413 -597 1886 -321 404
-824 674 -1412 760 -150 22 -439 30 -588 16 -618 -59 -1204 -344 -1666 -810
l-127 -128 -51 61 c-351 426 -944 744 -1576 845 -248 40 -572 51 -885 30z
m4749 -528 c238 -63 461 -221 615 -437 116 -164 229 -421 296 -675 58 -221
115 -621 115 -806 l0 -53 -1438 0 -1438 0 8 83 c23 246 82 531 154 741 71 207
208 455 342 619 134 164 358 340 542 425 132 61 297 108 440 126 83 10 286 -3
364 -23z m-3031 -2753 c10 -257 59 -568 122 -778 36 -118 45 -328 21 -485 -72
-465 -385 -863 -858 -1090 -309 -149 -695 -215 -991 -170 -437 66 -804 407
-892 830 -94 455 103 928 525 1256 300 234 789 427 1310 518 227 40 550 77
691 80 l66 1 6 -162z"/>
</g>
</svg>
