<?xml version="1.0" standalone="no"?>
<!DOCTYPE svg PUBLIC "-//W3C//DTD SVG 20010904//EN"
 "http://www.w3.org/TR/2001/REC-SVG-20010904/DTD/svg10.dtd">
<svg version="1.0" xmlns="http://www.w3.org/2000/svg"
 width="262.000000pt" height="221.000000pt" viewBox="0 0 262.000000 221.000000"
 preserveAspectRatio="xMidYMid meet">
<metadata>
Created by potrace 1.16, written by Peter Selinger 2001-2019
</metadata>
<g transform="translate(0.000000,221.000000) scale(0.100000,-0.100000)"
fill="#000000" stroke="none">
<path d="M473 2196 c-210 -53 -399 -248 -458 -471 -19 -73 -19 -203 -1 -270
29 -109 104 -220 197 -292 46 -35 2022 -1146 2056 -1155 10 -3 333 416 333
432 0 3 -375 377 -833 831 -584 578 -849 834 -888 857 -91 53 -164 75 -264 78
-52 2 -112 -2 -142 -10z"/>
</g>
</svg>
