<?xml version="1.0" standalone="no"?>
<!DOCTYPE svg PUBLIC "-//W3C//DTD SVG 20010904//EN"
 "http://www.w3.org/TR/2001/REC-SVG-20010904/DTD/svg10.dtd">
<svg version="1.0" xmlns="http://www.w3.org/2000/svg"
 width="519.000000pt" height="596.000000pt" viewBox="0 0 519.000000 596.000000"
 preserveAspectRatio="xMidYMid meet">
<metadata>
Created by potrace 1.16, written by Peter Selinger 2001-2019
</metadata>
<g transform="translate(0.000000,596.000000) scale(0.100000,-0.100000)"
fill="#000000" stroke="none">
<path d="M346 5888 c-3 -40 -35 -532 -71 -1093 -36 -561 -68 -1053 -71 -1092
l-6 -73 226 0 c174 0 226 3 226 13 0 32 32 412 41 492 116 1003 474 1345 1469
1405 175 10 1680 14 1680 4 0 -3 -858 -1164 -1906 -2580 -1048 -1416 -1913
-2588 -1921 -2605 -11 -22 -14 -57 -11 -144 3 -123 11 -144 72 -189 l27 -21
2424 -3 2423 -2 6 57 c4 32 54 612 111 1288 57 677 107 1256 111 1288 l6 57
-225 0 -225 0 -6 -57 c-3 -32 -15 -152 -27 -268 -56 -573 -139 -938 -277
-1211 -186 -367 -538 -587 -1062 -664 -230 -33 -438 -40 -1257 -40 l-792 0
1901 2568 c1046 1412 1910 2582 1921 2599 16 28 18 48 15 137 -3 113 -13 136
-72 180 l-27 21 -2349 3 -2348 2 -6 -72z"/>
</g>
</svg>
