<?xml version="1.0" standalone="no"?>
<!DOCTYPE svg PUBLIC "-//W3C//DTD SVG 20010904//EN"
 "http://www.w3.org/TR/2001/REC-SVG-20010904/DTD/svg10.dtd">
<svg version="1.0" xmlns="http://www.w3.org/2000/svg"
 width="966.000000pt" height="1146.000000pt" viewBox="0 0 966.000000 1146.000000"
 preserveAspectRatio="xMidYMid meet">
<metadata>
Created by potrace 1.16, written by Peter Selinger 2001-2019
</metadata>
<g transform="translate(0.000000,1146.000000) scale(0.100000,-0.100000)"
fill="#000000" stroke="none">
<path d="M6293 11445 c-29 -8 -72 -24 -95 -36 -24 -12 -485 -298 -1024 -636
l-982 -615 78 -167 c42 -91 81 -165 86 -165 52 9 2225 692 2271 715 240 116
320 385 191 646 -101 205 -320 313 -525 258z"/>
<path d="M0 8848 l0 -225 308 -6 c612 -12 793 -53 969 -220 42 -40 95 -99 118
-132 24 -33 671 -1090 1439 -2348 l1396 -2289 0 -1393 c0 -994 -3 -1409 -11
-1447 -14 -65 -49 -136 -91 -183 -93 -107 -296 -141 -915 -152 l-343 -6 0
-225 0 -225 118 7 c731 39 2881 39 3665 0 l127 -7 0 225 0 225 -347 6 c-443 8
-670 28 -793 71 -94 32 -162 104 -204 214 l-21 57 -3 1414 -2 1413 1296 2122
c713 1166 1321 2155 1352 2196 116 158 304 324 478 424 272 157 673 255 1042
256 l72 0 0 226 0 226 -82 -6 c-519 -39 -2041 -39 -2685 0 l-103 6 0 -224 0
-225 99 -7 c224 -14 389 -73 510 -182 96 -86 141 -190 141 -323 0 -88 -16
-156 -57 -240 -15 -33 -521 -865 -1123 -1850 -830 -1357 -1098 -1787 -1106
-1778 -13 13 -2361 3862 -2406 3942 -49 89 -46 177 8 256 71 104 306 165 677
176 l207 6 0 225 0 225 -137 -7 c-845 -39 -2810 -39 -3485 0 l-108 7 0 -225z"/>
</g>
</svg>
