<?xml version="1.0" standalone="no"?>
<!DOCTYPE svg PUBLIC "-//W3C//DTD SVG 20010904//EN"
 "http://www.w3.org/TR/2001/REC-SVG-20010904/DTD/svg10.dtd">
<svg version="1.0" xmlns="http://www.w3.org/2000/svg"
 width="538.000000pt" height="1384.000000pt" viewBox="0 0 538.000000 1384.000000"
 preserveAspectRatio="xMidYMid meet">
<metadata>
Created by potrace 1.16, written by Peter Selinger 2001-2019
</metadata>
<g transform="translate(0.000000,1384.000000) scale(0.100000,-0.100000)"
fill="#000000" stroke="none">
<path d="M5104 13834 c-29 -7 -101 -69 -118 -103 -8 -14 -1133 -3055 -2500
-6758 -1841 -4984 -2486 -6742 -2486 -6773 0 -57 42 -132 94 -167 35 -24 51
-28 111 -28 60 0 76 4 111 28 22 15 50 44 61 65 12 20 1140 3066 2507 6769
1841 4984 2486 6742 2486 6773 0 57 -42 132 -93 166 -40 26 -122 39 -173 28z"/>
</g>
</svg>
