<?xml version="1.0" standalone="no"?>
<!DOCTYPE svg PUBLIC "-//W3C//DTD SVG 20010904//EN"
 "http://www.w3.org/TR/2001/REC-SVG-20010904/DTD/svg10.dtd">
<svg version="1.0" xmlns="http://www.w3.org/2000/svg"
 width="678.000000pt" height="880.000000pt" viewBox="0 0 678.000000 880.000000"
 preserveAspectRatio="xMidYMid meet">
<metadata>
Created by potrace 1.16, written by Peter Selinger 2001-2019
</metadata>
<g transform="translate(0.000000,880.000000) scale(0.100000,-0.100000)"
fill="#000000" stroke="none">
<path d="M0 8491 l0 -311 178 0 c213 0 475 -16 585 -35 150 -26 252 -98 314
-219 13 -27 472 -1182 1018 -2567 l994 -2519 -226 -573 c-252 -639 -290 -729
-370 -872 -309 -555 -705 -857 -1158 -882 -127 -7 -236 11 -335 54 l-60 26 83
40 c154 77 278 231 323 402 38 145 27 342 -27 478 -55 139 -170 260 -314 329
-100 48 -193 68 -315 68 -122 0 -215 -20 -315 -68 -250 -120 -377 -353 -362
-662 16 -324 142 -599 381 -828 250 -240 585 -364 941 -349 167 7 280 28 429
78 271 90 500 236 731 464 255 252 497 614 671 1005 25 58 572 1436 1214 3062
897 2273 1178 2976 1216 3039 57 94 168 218 257 285 93 70 266 150 399 184
139 35 235 49 396 57 l122 6 0 310 0 310 -67 -7 c-448 -41 -1793 -41 -2305 0
l-78 7 0 -312 0 -311 43 0 c171 -2 374 -84 475 -193 105 -115 147 -276 109
-422 -7 -28 -292 -757 -632 -1621 -532 -1349 -622 -1569 -631 -1550 -6 11
-321 806 -699 1765 -630 1597 -687 1747 -682 1788 16 149 254 233 660 233
l107 0 0 311 0 311 -102 -6 c-673 -41 -2309 -41 -2880 0 l-88 7 0 -312z"/>
</g>
</svg>
