<?xml version="1.0" standalone="no"?>
<!DOCTYPE svg PUBLIC "-//W3C//DTD SVG 20010904//EN"
 "http://www.w3.org/TR/2001/REC-SVG-20010904/DTD/svg10.dtd">
<svg version="1.0" xmlns="http://www.w3.org/2000/svg"
 width="930.000000pt" height="1245.000000pt" viewBox="0 0 930.000000 1245.000000"
 preserveAspectRatio="xMidYMid meet">
<metadata>
Created by potrace 1.16, written by Peter Selinger 2001-2019
</metadata>
<g transform="translate(0.000000,1245.000000) scale(0.100000,-0.100000)"
fill="#000000" stroke="none">
<path d="M4295 12439 c-1185 -90 -2316 -695 -3106 -1661 -528 -646 -893 -1413
-1068 -2243 -165 -781 -159 -1604 15 -2365 274 -1190 934 -2221 1869 -2915
633 -472 1357 -758 2153 -852 206 -24 688 -24 894 0 268 32 555 90 781 159 37
11 70 18 72 16 2 -2 32 -152 65 -333 134 -721 210 -1017 342 -1325 219 -512
551 -804 1019 -895 114 -22 352 -31 462 -16 506 68 885 371 1152 923 209 432
335 1033 339 1610 1 195 0 208 -20 235 -65 87 -192 88 -257 1 -15 -20 -22 -52
-29 -135 -16 -197 -62 -336 -160 -485 -162 -247 -424 -422 -758 -506 -97 -25
-120 -27 -315 -26 -199 0 -215 1 -296 27 -184 56 -315 135 -452 272 -159 159
-274 333 -432 650 -58 115 -105 214 -105 220 0 6 44 32 98 59 601 299 1184
791 1612 1361 438 584 737 1232 904 1955 174 761 180 1584 15 2365 -275 1307
-1024 2451 -2064 3154 -328 221 -609 366 -968 500 -548 204 -1183 294 -1762
250z m531 -550 c392 -38 791 -181 1136 -408 783 -514 1312 -1396 1537 -2561
92 -476 125 -885 126 -1530 0 -477 -8 -653 -46 -995 -109 -986 -405 -1782
-889 -2395 -93 -117 -371 -398 -468 -473 -61 -48 -62 -48 -71 -25 -24 60 -118
251 -177 361 -316 581 -683 882 -1165 953 -266 39 -531 -4 -762 -123 -502
-259 -761 -842 -617 -1385 11 -40 20 -76 20 -80 1 -22 -297 169 -443 284 -131
104 -380 354 -486 488 -159 200 -318 457 -435 702 -234 486 -383 1042 -455
1693 -38 342 -46 518 -46 995 1 453 7 611 41 940 119 1187 513 2131 1154 2770
575 574 1317 860 2046 789z m-51 -7580 c392 -48 671 -281 856 -714 40 -94 129
-347 129 -367 0 -14 -190 -100 -332 -152 -277 -100 -511 -140 -818 -141 l-215
0 -100 50 c-175 86 -300 232 -363 423 -22 67 -25 95 -25 207 0 112 3 140 25
207 39 116 92 204 177 289 173 173 377 233 666 198z"/>
</g>
</svg>
