<?xml version="1.0" standalone="no"?>
<!DOCTYPE svg PUBLIC "-//W3C//DTD SVG 20010904//EN"
 "http://www.w3.org/TR/2001/REC-SVG-20010904/DTD/svg10.dtd">
<svg version="1.0" xmlns="http://www.w3.org/2000/svg"
 width="576.000000pt" height="954.000000pt" viewBox="0 0 576.000000 954.000000"
 preserveAspectRatio="xMidYMid meet">
<metadata>
Created by potrace 1.16, written by Peter Selinger 2001-2019
</metadata>
<g transform="translate(0.000000,954.000000) scale(0.100000,-0.100000)"
fill="#000000" stroke="none">
<path d="M2550 9533 c-410 -39 -713 -123 -1035 -286 -222 -111 -383 -226 -559
-397 -238 -231 -392 -472 -486 -760 -64 -195 -84 -317 -85 -525 0 -159 3 -189
23 -259 79 -273 265 -457 547 -542 76 -22 110 -27 215 -27 138 -1 206 10 322
55 176 67 323 199 402 360 67 134 87 224 87 383 0 159 -20 248 -87 385 -40 81
-60 109 -138 186 -77 76 -107 99 -186 137 -93 46 -206 80 -303 92 l-47 6 52
61 c157 180 432 359 712 463 295 109 686 159 946 121 367 -54 661 -258 810
-560 112 -229 153 -457 153 -851 0 -524 -92 -965 -283 -1350 -94 -189 -182
-316 -305 -440 -177 -180 -375 -289 -597 -329 -46 -9 -263 -29 -483 -46 -439
-34 -452 -37 -487 -100 -15 -29 -18 -58 -18 -185 0 -171 10 -204 71 -237 31
-17 69 -18 534 -18 544 0 624 -6 773 -55 452 -152 795 -562 936 -1121 69 -273
91 -511 90 -984 0 -415 -11 -563 -59 -825 -103 -559 -384 -978 -792 -1179
-224 -112 -434 -143 -758 -115 -610 52 -1130 259 -1473 583 l-73 70 110 27
c265 65 457 213 567 434 72 146 88 221 88 415 0 150 -3 173 -27 253 -95 309
-309 511 -623 589 -124 30 -304 30 -428 0 -314 -77 -527 -279 -623 -589 -25
-82 -27 -100 -27 -278 0 -216 18 -333 81 -530 237 -738 959 -1291 1951 -1496
279 -57 685 -82 967 -60 632 51 1215 274 1705 651 125 96 407 380 496 500 282
377 452 774 519 1210 22 148 30 421 16 555 -76 697 -483 1326 -1135 1754 -284
185 -626 336 -946 416 -58 14 -112 28 -120 31 -9 4 15 18 60 35 121 48 387
183 500 254 284 180 525 390 719 629 159 195 320 477 406 710 97 264 139 506
139 801 0 231 -11 310 -74 498 -295 881 -1351 1497 -2544 1485 -89 0 -177 -3
-196 -5z"/>
</g>
</svg>
