<?xml version="1.0" standalone="no"?>
<!DOCTYPE svg PUBLIC "-//W3C//DTD SVG 20010904//EN"
 "http://www.w3.org/TR/2001/REC-SVG-20010904/DTD/svg10.dtd">
<svg version="1.0" xmlns="http://www.w3.org/2000/svg"
 width="608.000000pt" height="976.000000pt" viewBox="0 0 608.000000 976.000000"
 preserveAspectRatio="xMidYMid meet">
<metadata>
Created by potrace 1.16, written by Peter Selinger 2001-2019
</metadata>
<g transform="translate(0.000000,976.000000) scale(0.100000,-0.100000)"
fill="#000000" stroke="none">
<path d="M1760 9451 l0 -311 343 0 c569 0 1059 -23 1220 -55 131 -27 233 -91
268 -170 18 -38 19 -171 19 -3390 0 -3603 2 -3473 -50 -3726 -107 -517 -408
-965 -784 -1165 -206 -109 -394 -141 -667 -113 -405 41 -775 193 -1048 430
-78 68 -78 72 -2 84 66 11 172 49 248 89 147 77 262 197 339 351 71 144 88
221 88 410 0 189 -17 266 -88 410 -78 158 -194 275 -346 354 -141 72 -269 103
-430 103 -346 0 -633 -169 -776 -457 -58 -119 -85 -223 -91 -365 -24 -510 220
-1023 652 -1373 387 -313 875 -501 1425 -548 261 -23 622 2 895 61 813 177
1483 670 1810 1335 84 170 144 341 173 495 11 58 24 119 28 135 4 17 10 1571
13 3455 l6 3425 31 55 c74 131 180 156 727 167 l307 6 0 310 0 310 -107 -7
c-704 -41 -3035 -41 -4045 0 l-158 7 0 -312z"/>
</g>
</svg>
