<?xml version="1.0" standalone="no"?>
<!DOCTYPE svg PUBLIC "-//W3C//DTD SVG 20010904//EN"
 "http://www.w3.org/TR/2001/REC-SVG-20010904/DTD/svg10.dtd">
<svg version="1.0" xmlns="http://www.w3.org/2000/svg"
 width="516.000000pt" height="642.000000pt" viewBox="0 0 516.000000 642.000000"
 preserveAspectRatio="xMidYMid meet">
<metadata>
Created by potrace 1.16, written by Peter Selinger 2001-2019
</metadata>
<g transform="translate(0.000000,642.000000) scale(0.100000,-0.100000)"
fill="#000000" stroke="none">
<path d="M70 6402 c-44 -21 -73 -74 -67 -122 6 -45 89 -268 184 -490 384 -901
923 -1722 1600 -2437 l135 -143 -135 -142 c-587 -621 -1058 -1301 -1431 -2068
-155 -320 -343 -776 -353 -860 -10 -81 57 -140 157 -140 95 0 102 9 237 272
376 733 833 1360 1413 1938 320 319 659 604 1007 847 97 67 123 100 123 153 0
53 -26 86 -123 153 -348 243 -687 528 -1007 847 -580 578 -1037 1205 -1413
1938 -135 263 -142 272 -237 272 -32 0 -69 -7 -90 -18z"/>
<path d="M2280 6402 c-44 -21 -73 -74 -67 -122 6 -45 89 -268 184 -490 384
-901 923 -1722 1600 -2437 l135 -143 -135 -142 c-587 -621 -1058 -1301 -1431
-2068 -155 -320 -343 -776 -353 -860 -10 -81 57 -140 157 -140 95 0 102 9 237
272 376 733 833 1360 1413 1938 320 319 659 604 1007 847 97 67 123 100 123
153 0 53 -26 86 -123 153 -348 243 -687 528 -1007 847 -580 578 -1037 1205
-1413 1938 -135 263 -142 272 -237 272 -32 0 -69 -7 -90 -18z"/>
</g>
</svg>
