<?xml version="1.0" standalone="no"?>
<!DOCTYPE svg PUBLIC "-//W3C//DTD SVG 20010904//EN"
 "http://www.w3.org/TR/2001/REC-SVG-20010904/DTD/svg10.dtd">
<svg version="1.0" xmlns="http://www.w3.org/2000/svg"
 width="695.000000pt" height="1245.000000pt" viewBox="0 0 695.000000 1245.000000"
 preserveAspectRatio="xMidYMid meet">
<metadata>
Created by potrace 1.16, written by Peter Selinger 2001-2019
</metadata>
<g transform="translate(0.000000,1245.000000) scale(0.100000,-0.100000)"
fill="#000000" stroke="none">
<path d="M1085 12374 c-577 -40 -1058 -73 -1067 -73 -17 -1 -18 -23 -18 -311
l0 -310 143 0 c190 0 400 -17 522 -41 237 -48 342 -144 393 -361 16 -68 17
-398 17 -5253 l0 -5180 -31 -55 c-74 -131 -181 -156 -731 -167 l-313 -6 0
-310 0 -310 108 7 c697 41 2407 41 3105 0 l107 -7 0 310 0 310 -312 6 c-551
11 -658 36 -732 167 l-31 55 -3 1204 -2 1204 52 -49 c315 -297 763 -525 1208
-614 345 -69 714 -66 1065 10 1301 282 2258 1423 2366 2823 13 163 7 488 -11
642 -114 985 -604 1833 -1341 2321 -137 91 -394 220 -542 272 -248 88 -472
131 -727 139 -722 24 -1469 -217 -2020 -651 l-85 -67 -3 2185 -2 2186 -33 -1
c-17 -1 -504 -34 -1082 -75z m3001 -4135 c252 -35 485 -156 704 -366 180 -172
316 -357 444 -603 375 -724 462 -1755 220 -2610 -128 -452 -392 -910 -681
-1180 -394 -369 -821 -496 -1321 -394 -455 92 -883 414 -1155 869 l-57 95 0
1653 0 1653 58 80 c91 124 225 262 354 366 168 136 421 273 633 343 257 84
589 124 801 94z"/>
</g>
</svg>
