<?xml version="1.0" standalone="no"?>
<!DOCTYPE svg PUBLIC "-//W3C//DTD SVG 20010904//EN"
 "http://www.w3.org/TR/2001/REC-SVG-20010904/DTD/svg10.dtd">
<svg version="1.0" xmlns="http://www.w3.org/2000/svg"
 width="519.000000pt" height="596.000000pt" viewBox="0 0 519.000000 596.000000"
 preserveAspectRatio="xMidYMid meet">
<metadata>
Created by potrace 1.16, written by Peter Selinger 2001-2019
</metadata>
<g transform="translate(0.000000,596.000000) scale(0.100000,-0.100000)"
fill="#000000" stroke="none">
<path d="M346 5883 c-4 -43 -36 -555 -71 -1138 -35 -583 -67 -1095 -71 -1137
l-6 -78 276 0 c214 0 276 3 276 13 0 32 31 418 40 500 37 334 102 591 197 782
60 119 116 196 200 275 190 180 433 276 823 326 174 23 1700 34 1684 12 -6 -7
-838 -1138 -1850 -2513 l-1839 -2500 0 -162 c0 -177 3 -188 69 -237 l27 -21
2424 -3 2423 -2 6 57 c4 32 53 634 111 1338 58 704 107 1306 111 1338 l6 57
-275 0 -275 0 -6 -62 c-4 -35 -15 -157 -26 -273 -51 -526 -120 -861 -236
-1137 -176 -417 -531 -652 -1109 -733 -199 -28 -468 -36 -1132 -33 l-662 3
1836 2495 c1009 1372 1840 2507 1845 2522 5 15 8 85 6 157 -3 141 -10 159 -72
205 l-27 21 -2349 3 -2348 2 -6 -77z"/>
</g>
</svg>
