<?xml version="1.0" standalone="no"?>
<!DOCTYPE svg PUBLIC "-//W3C//DTD SVG 20010904//EN"
 "http://www.w3.org/TR/2001/REC-SVG-20010904/DTD/svg10.dtd">
<svg version="1.0" xmlns="http://www.w3.org/2000/svg"
 width="538.000000pt" height="669.000000pt" viewBox="0 0 538.000000 669.000000"
 preserveAspectRatio="xMidYMid meet">
<metadata>
Created by potrace 1.16, written by Peter Selinger 2001-2019
</metadata>
<g transform="translate(0.000000,669.000000) scale(0.100000,-0.100000)"
fill="#000000" stroke="none">
<path d="M72 6670 c-48 -29 -74 -77 -69 -125 3 -22 35 -121 72 -220 319 -847
777 -1658 1327 -2348 149 -186 327 -392 455 -527 l100 -105 -90 -94 c-131
-138 -291 -323 -446 -516 -564 -703 -1023 -1511 -1346 -2370 -78 -207 -85
-246 -56 -293 33 -51 76 -72 151 -72 112 0 117 5 239 245 280 550 562 986 942
1455 449 555 1033 1098 1611 1500 79 55 108 93 108 145 0 52 -29 90 -108 145
-578 402 -1162 945 -1611 1500 -380 469 -662 905 -942 1455 -122 240 -127 245
-239 245 -47 0 -74 -6 -98 -20z"/>
<path d="M2372 6670 c-48 -29 -74 -77 -69 -125 3 -22 35 -121 72 -220 319
-847 777 -1658 1327 -2348 149 -186 327 -392 455 -527 l100 -105 -90 -94
c-131 -138 -291 -323 -446 -516 -564 -703 -1023 -1511 -1346 -2370 -78 -207
-85 -246 -56 -293 33 -51 76 -72 151 -72 112 0 117 5 239 245 280 550 562 986
942 1455 449 555 1033 1098 1611 1500 79 55 108 93 108 145 0 52 -29 90 -108
145 -578 402 -1162 945 -1611 1500 -380 469 -662 905 -942 1455 -122 240 -127
245 -239 245 -47 0 -74 -6 -98 -20z"/>
</g>
</svg>
