<?xml version="1.0" standalone="no"?>
<!DOCTYPE svg PUBLIC "-//W3C//DTD SVG 20010904//EN"
 "http://www.w3.org/TR/2001/REC-SVG-20010904/DTD/svg10.dtd">
<svg version="1.0" xmlns="http://www.w3.org/2000/svg"
 width="307.000000pt" height="669.000000pt" viewBox="0 0 307.000000 669.000000"
 preserveAspectRatio="xMidYMid meet">
<metadata>
Created by potrace 1.16, written by Peter Selinger 2001-2019
</metadata>
<g transform="translate(0.000000,669.000000) scale(0.100000,-0.100000)"
fill="#000000" stroke="none">
<path d="M73 6675 c-42 -18 -73 -69 -73 -119 0 -62 161 -503 300 -821 359
-822 882 -1637 1483 -2315 64 -72 66 -75 49 -94 -9 -12 -49 -57 -88 -101 -724
-818 -1320 -1841 -1693 -2906 -56 -159 -61 -207 -31 -257 28 -45 73 -62 168
-62 122 0 123 1 266 285 237 468 439 794 747 1205 245 326 435 545 724 836
301 302 559 525 887 769 101 74 195 146 210 160 49 46 49 135 0 180 -15 14
-109 86 -210 160 -615 456 -1147 987 -1611 1605 -308 411 -510 737 -747 1205
-144 285 -144 285 -268 285 -47 -1 -95 -7 -113 -15z"/>
</g>
</svg>
