<?xml version="1.0" standalone="no"?>
<!DOCTYPE svg PUBLIC "-//W3C//DTD SVG 20010904//EN"
 "http://www.w3.org/TR/2001/REC-SVG-20010904/DTD/svg10.dtd">
<svg version="1.0" xmlns="http://www.w3.org/2000/svg"
 width="328.000000pt" height="1384.000000pt" viewBox="0 0 328.000000 1384.000000"
 preserveAspectRatio="xMidYMid meet">
<metadata>
Created by potrace 1.16, written by Peter Selinger 2001-2019
</metadata>
<g transform="translate(0.000000,1384.000000) scale(0.100000,-0.100000)"
fill="#000000" stroke="none">
<path d="M72 13820 c-60 -37 -88 -111 -61 -163 7 -12 66 -78 133 -148 67 -69
159 -168 207 -220 1334 -1474 2009 -3613 2009 -6369 0 -2756 -675 -4895 -2009
-6369 -48 -52 -140 -151 -207 -220 -67 -70 -126 -136 -133 -148 -27 -52 1
-126 61 -163 45 -27 217 -29 265 -2 100 54 531 445 750 680 814 875 1401 1935
1768 3192 215 738 336 1452 397 2340 17 245 17 1135 0 1380 -51 744 -141 1346
-293 1955 -432 1730 -1266 3132 -2457 4129 -175 146 -174 146 -297 146 -82 0
-106 -4 -133 -20z"/>
</g>
</svg>
