<?xml version="1.0" standalone="no"?>
<!DOCTYPE svg PUBLIC "-//W3C//DTD SVG 20010904//EN"
 "http://www.w3.org/TR/2001/REC-SVG-20010904/DTD/svg10.dtd">
<svg version="1.0" xmlns="http://www.w3.org/2000/svg"
 width="296.000000pt" height="642.000000pt" viewBox="0 0 296.000000 642.000000"
 preserveAspectRatio="xMidYMid meet">
<metadata>
Created by potrace 1.16, written by Peter Selinger 2001-2019
</metadata>
<g transform="translate(0.000000,642.000000) scale(0.100000,-0.100000)"
fill="#000000" stroke="none">
<path d="M2700 6398 c-25 -18 -54 -66 -124 -203 -572 -1123 -1382 -2068 -2384
-2782 -166 -119 -192 -146 -192 -203 0 -57 26 -84 192 -203 1002 -714 1812
-1659 2384 -2782 106 -207 122 -225 211 -225 77 0 121 23 145 77 23 53 22 61
-43 235 -125 330 -336 785 -509 1093 -341 609 -769 1188 -1240 1678 l-122 127
122 128 c471 489 899 1068 1240 1677 108 193 296 576 382 780 83 196 173 429
183 475 10 45 -25 113 -68 133 -52 25 -136 22 -177 -5z"/>
</g>
</svg>
