<?xml version="1.0" standalone="no"?>
<!DOCTYPE svg PUBLIC "-//W3C//DTD SVG 20010904//EN"
 "http://www.w3.org/TR/2001/REC-SVG-20010904/DTD/svg10.dtd">
<svg version="1.0" xmlns="http://www.w3.org/2000/svg"
 width="1037.000000pt" height="937.000000pt" viewBox="0 0 1037.000000 937.000000"
 preserveAspectRatio="xMidYMid meet">
<metadata>
Created by potrace 1.16, written by Peter Selinger 2001-2019
</metadata>
<g transform="translate(0.000000,937.000000) scale(0.100000,-0.100000)"
fill="#000000" stroke="none">
<path d="M3625 9359 c-484 -36 -941 -158 -1346 -361 -375 -187 -686 -433 -891
-706 -168 -223 -260 -415 -326 -682 l-26 -105 -3 -892 -4 -893 -509 0 -510 0
0 -225 0 -225 510 0 510 0 0 -2227 c0 -2384 1 -2303 -48 -2399 -27 -52 -77
-99 -133 -123 -96 -43 -365 -71 -681 -71 l-168 0 0 -226 0 -226 93 6 c584 39
2210 39 2795 0 l92 -6 0 226 0 226 -167 0 c-317 0 -586 28 -682 71 -56 24
-106 71 -133 123 -49 96 -48 15 -48 2399 l0 2227 1385 0 1385 0 0 -2227 c0
-2384 1 -2303 -48 -2399 -27 -52 -77 -99 -133 -123 -96 -43 -365 -71 -681 -71
l-168 0 0 -226 0 -226 93 6 c584 39 2210 39 2795 0 l92 -6 0 226 0 226 -167 0
c-317 0 -586 28 -682 71 -56 24 -106 71 -133 123 -49 96 -48 15 -48 2399 l0
2227 1173 -2 1172 -3 79 -23 c195 -57 277 -141 324 -330 15 -61 17 -252 20
-2072 2 -1435 0 -2023 -8 -2070 -22 -128 -77 -208 -171 -249 -96 -43 -365 -71
-681 -71 l-168 0 0 -226 0 -226 93 6 c584 39 2210 39 2795 0 l92 -6 0 226 0
226 -167 0 c-317 0 -586 28 -682 71 -56 24 -106 71 -133 123 -50 96 -48 -9
-48 2709 0 1395 -2 2537 -3 2537 -2 0 -440 -34 -973 -75 -591 -45 -970 -78
-972 -85 -3 -7 -291 -10 -893 -10 l-890 0 4 888 c3 855 4 890 24 983 47 215
127 403 250 589 110 165 321 375 493 490 334 223 697 339 1120 356 429 19 856
-112 1123 -344 46 -40 47 -42 22 -42 -55 0 -173 -33 -252 -71 -368 -176 -449
-717 -151 -1011 239 -236 657 -236 896 0 150 148 208 356 171 618 -87 624
-665 1100 -1440 1185 -114 13 -465 7 -634 -11 -344 -36 -706 -123 -1005 -242
-254 -101 -573 -281 -744 -420 -32 -27 -61 -48 -64 -48 -4 0 -27 30 -51 66
-231 343 -701 598 -1203 653 -110 12 -368 12 -533 0z m420 -339 c215 -24 416
-81 582 -166 103 -52 242 -145 284 -190 l22 -24 -30 0 c-49 0 -183 -38 -248
-70 -142 -70 -250 -197 -301 -353 -23 -71 -27 -99 -27 -207 0 -108 4 -136 27
-207 51 -157 158 -282 304 -355 l62 -31 0 -848 0 -849 -1405 0 -1406 0 3 883
c3 872 4 883 26 990 176 834 958 1425 1902 1436 63 0 156 -4 205 -9z"/>
</g>
</svg>
