<?xml version="1.0" standalone="no"?>
<!DOCTYPE svg PUBLIC "-//W3C//DTD SVG 20010904//EN"
 "http://www.w3.org/TR/2001/REC-SVG-20010904/DTD/svg10.dtd">
<svg version="1.0" xmlns="http://www.w3.org/2000/svg"
 width="454.000000pt" height="905.000000pt" viewBox="0 0 454.000000 905.000000"
 preserveAspectRatio="xMidYMid meet">
<metadata>
Created by potrace 1.16, written by Peter Selinger 2001-2019
</metadata>
<g transform="translate(0.000000,905.000000) scale(0.100000,-0.100000)"
fill="#000000" stroke="none">
<path d="M3260 9027 c-140 -48 -71 15 -1223 -1117 -367 -360 -667 -657 -667
-661 0 -15 263 -354 273 -351 25 7 2055 1157 2099 1189 141 102 218 263 205
428 -18 236 -192 453 -416 519 -79 23 -192 20 -271 -7z"/>
<path d="M1940 6334 c-479 -32 -783 -101 -1077 -244 -470 -229 -737 -601 -840
-1170 -25 -138 -25 -474 0 -590 110 -516 467 -936 1022 -1205 283 -137 427
-177 1140 -315 361 -69 557 -112 642 -139 232 -75 438 -197 599 -356 266 -263
360 -548 309 -937 -20 -157 -48 -256 -104 -373 -99 -207 -231 -335 -455 -441
-167 -79 -364 -123 -646 -145 -310 -24 -612 4 -827 76 -615 206 -1020 768
-1228 1706 -20 88 -42 171 -51 184 -28 43 -72 55 -201 55 -133 0 -166 -12
-203 -72 -20 -32 -20 -53 -20 -1148 0 -1061 1 -1117 18 -1149 27 -50 73 -71
155 -71 39 0 80 6 95 14 15 8 142 134 282 280 140 146 256 266 258 266 2 0 36
-30 76 -66 304 -275 699 -441 1156 -485 138 -13 535 -7 705 11 962 102 1530
546 1720 1345 47 196 59 314 59 565 0 217 -2 245 -27 361 -125 587 -514 1064
-1107 1359 -272 135 -389 168 -1095 306 -297 57 -580 116 -628 130 -446 126
-776 400 -863 715 -24 84 -24 313 -1 415 41 180 107 306 221 420 219 219 539
317 1081 331 236 6 381 -4 542 -37 546 -113 930 -506 1042 -1065 22 -111 41
-287 41 -379 0 -75 23 -122 71 -148 27 -15 57 -18 154 -18 138 0 176 13 207
71 17 32 18 81 18 939 0 858 -1 907 -18 939 -27 50 -73 71 -155 71 -38 0 -78
-5 -90 -11 -12 -7 -113 -88 -224 -180 -111 -93 -204 -169 -206 -169 -2 0 -35
21 -73 46 -230 155 -578 271 -908 303 -98 10 -447 12 -566 5z"/>
</g>
</svg>
