<?xml version="1.0" standalone="no"?>
<!DOCTYPE svg PUBLIC "-//W3C//DTD SVG 20010904//EN"
 "http://www.w3.org/TR/2001/REC-SVG-20010904/DTD/svg10.dtd">
<svg version="1.0" xmlns="http://www.w3.org/2000/svg"
 width="307.000000pt" height="611.000000pt" viewBox="0 0 307.000000 611.000000"
 preserveAspectRatio="xMidYMid meet">
<metadata>
Created by potrace 1.16, written by Peter Selinger 2001-2019
</metadata>
<g transform="translate(0.000000,611.000000) scale(0.100000,-0.100000)"
fill="#000000" stroke="none">
<path d="M1055 6034 c-533 -40 -978 -73 -987 -73 -17 -1 -18 -20 -18 -259 l0
-259 213 -6 c566 -16 718 -93 784 -399 17 -78 18 -199 18 -2153 0 -1970 -1
-2072 -18 -2122 -66 -188 -190 -227 -769 -240 l-278 -6 0 -260 0 -259 92 6
c604 41 2272 41 2876 0 l92 -6 0 261 0 261 -162 0 c-307 0 -562 28 -655 72
-54 25 -96 75 -126 148 l-22 55 -3 2658 -2 2657 -33 -1 c-17 -1 -468 -34
-1002 -75z"/>
</g>
</svg>
