<?xml version="1.0" standalone="no"?>
<!DOCTYPE svg PUBLIC "-//W3C//DTD SVG 20010904//EN"
 "http://www.w3.org/TR/2001/REC-SVG-20010904/DTD/svg10.dtd">
<svg version="1.0" xmlns="http://www.w3.org/2000/svg"
 width="509.000000pt" height="869.000000pt" viewBox="0 0 509.000000 869.000000"
 preserveAspectRatio="xMidYMid meet">
<metadata>
Created by potrace 1.16, written by Peter Selinger 2001-2019
</metadata>
<g transform="translate(0.000000,869.000000) scale(0.100000,-0.100000)"
fill="#000000" stroke="none">
<path d="M3705 8676 c-75 -24 -142 -65 -216 -133 -41 -37 -429 -413 -862 -836
l-788 -769 24 -32 c13 -17 63 -84 111 -148 84 -112 89 -117 109 -104 12 8 450
256 972 551 523 295 982 557 1022 581 206 128 283 330 208 553 -34 104 -143
234 -245 293 -94 55 -241 74 -335 44z"/>
<path d="M2620 6089 c-427 -41 -877 -202 -1247 -445 -343 -227 -671 -563 -888
-914 -427 -691 -583 -1549 -424 -2340 165 -820 660 -1542 1352 -1971 330 -205
721 -344 1127 -400 145 -21 546 -18 695 4 426 64 797 229 1117 496 297 249
535 614 673 1033 30 92 55 182 55 200 0 43 -31 93 -69 113 -47 24 -196 21
-239 -5 -38 -23 -45 -38 -106 -230 -202 -632 -658 -1076 -1237 -1203 -600
-133 -1144 31 -1581 476 -490 498 -717 1237 -695 2257 16 686 113 1164 321
1579 190 376 474 673 801 835 225 111 366 141 660 140 472 -1 905 -99 1196
-270 l81 -47 -74 -18 c-112 -28 -211 -83 -288 -159 -240 -236 -239 -666 0
-901 242 -238 658 -238 901 0 150 148 209 375 164 633 -42 240 -147 433 -335
612 -306 290 -812 478 -1419 525 -153 12 -415 12 -541 0z"/>
</g>
</svg>
