<?xml version="1.0" standalone="no"?>
<!DOCTYPE svg PUBLIC "-//W3C//DTD SVG 20010904//EN"
 "http://www.w3.org/TR/2001/REC-SVG-20010904/DTD/svg10.dtd">
<svg version="1.0" xmlns="http://www.w3.org/2000/svg"
 width="612.000000pt" height="991.000000pt" viewBox="0 0 612.000000 991.000000"
 preserveAspectRatio="xMidYMid meet">
<metadata>
Created by potrace 1.16, written by Peter Selinger 2001-2019
</metadata>
<g transform="translate(0.000000,991.000000) scale(0.100000,-0.100000)"
fill="#000000" stroke="none">
<path d="M2901 9900 c-145 -14 -330 -48 -466 -85 -690 -189 -1132 -640 -1299
-1326 -61 -253 -60 -220 -63 -1346 l-4 -1033 -534 0 -535 0 0 -260 0 -260 535
0 535 0 -2 -2317 -3 -2318 -24 -59 c-33 -84 -92 -139 -173 -164 -126 -39 -374
-61 -690 -62 l-178 0 0 -261 0 -261 92 6 c423 28 1640 41 1833 18 61 -7 122
-15 137 -18 l28 -6 3 4094 c3 3770 4 4102 20 4208 42 290 99 462 205 625 201
310 583 461 1046 416 511 -50 850 -267 1041 -666 126 -263 164 -470 172 -950
10 -588 -30 -1032 -122 -1350 -49 -167 -64 -181 -216 -188 -357 -18 -691 -159
-919 -388 -232 -231 -386 -581 -440 -999 -18 -140 -24 -444 -11 -570 47 -449
216 -843 481 -1123 117 -124 234 -212 380 -286 154 -79 257 -110 568 -170 305
-60 397 -90 520 -171 344 -227 530 -641 509 -1130 -18 -393 -121 -661 -330
-856 -268 -250 -787 -311 -1090 -127 -141 85 -255 237 -342 454 -98 243 -161
544 -230 1104 -17 133 -33 222 -44 244 -29 58 -68 71 -206 71 -135 0 -168 -12
-205 -72 -20 -32 -20 -53 -20 -1123 0 -1037 1 -1092 18 -1124 27 -50 73 -71
155 -71 40 0 79 6 95 14 15 8 96 84 181 170 l155 155 54 -50 c205 -188 490
-289 813 -289 504 0 960 170 1258 470 262 263 422 607 493 1065 29 189 32 605
5 760 -72 409 -237 767 -482 1047 -200 229 -485 417 -770 508 -55 17 -232 58
-394 90 -259 51 -304 63 -370 97 -86 43 -184 135 -246 228 -128 195 -194 486
-182 800 18 444 146 719 392 841 78 38 182 64 265 64 178 0 342 106 448 287
111 190 203 511 246 859 39 316 46 957 12 1194 -94 671 -402 1147 -906 1400
-158 79 -350 139 -560 175 -113 20 -497 28 -639 15z"/>
</g>
</svg>
