<?xml version="1.0" standalone="no"?>
<!DOCTYPE svg PUBLIC "-//W3C//DTD SVG 20010904//EN"
 "http://www.w3.org/TR/2001/REC-SVG-20010904/DTD/svg10.dtd">
<svg version="1.0" xmlns="http://www.w3.org/2000/svg"
 width="635.000000pt" height="1169.000000pt" viewBox="0 0 635.000000 1169.000000"
 preserveAspectRatio="xMidYMid meet">
<metadata>
Created by potrace 1.16, written by Peter Selinger 2001-2019
</metadata>
<g transform="translate(0.000000,1169.000000) scale(0.100000,-0.100000)"
fill="#000000" stroke="none">
<path d="M900 11638 c0 -137 41 -371 91 -519 94 -282 229 -504 439 -722 195
-203 357 -321 615 -447 341 -168 635 -235 1030 -235 395 0 689 67 1030 235
258 126 420 244 615 447 210 218 345 440 439 722 50 148 91 382 91 519 l0 52
-254 0 -253 0 -7 -86 c-47 -579 -560 -1018 -1331 -1141 -153 -24 -507 -24
-660 0 -362 58 -649 175 -890 362 -261 203 -416 478 -441 779 l-7 86 -253 0
-254 0 0 -52z"/>
<path d="M5390 9109 c-287 -32 -604 -143 -845 -294 -120 -75 -258 -181 -325
-249 -30 -31 -58 -56 -62 -56 -4 0 -49 27 -100 61 -278 180 -664 318 -1038
371 -57 8 -189 13 -330 13 -330 0 -527 -31 -826 -130 -1070 -352 -1700 -1362
-1465 -2346 78 -329 264 -669 498 -910 l54 -56 -56 -79 c-306 -427 -421 -961
-311 -1444 67 -293 212 -565 400 -749 l65 -64 -82 -37 c-201 -89 -391 -221
-552 -384 -451 -455 -541 -1072 -230 -1572 188 -302 490 -552 920 -764 223
-110 401 -179 629 -245 815 -234 1867 -234 2682 0 228 66 406 135 629 245 593
292 945 659 1072 1118 25 90 27 111 27 297 0 226 -14 339 -69 539 -127 464
-388 816 -776 1047 -399 238 -853 365 -1504 420 -86 7 -498 14 -1075 19 -1036
7 -979 3 -1125 75 -387 189 -543 730 -335 1160 64 132 51 127 166 62 271 -154
598 -262 934 -309 126 -17 534 -17 660 0 726 102 1337 467 1692 1012 375 573
419 1249 123 1855 -63 128 -166 288 -253 395 -34 41 -62 78 -62 82 0 10 117
100 205 158 107 69 238 132 365 174 108 35 239 66 285 66 l25 0 -19 -38 c-94
-184 -55 -437 90 -583 194 -197 534 -197 728 0 148 149 181 379 92 638 -88
255 -288 441 -538 497 -78 17 -234 20 -363 5z m-2426 -709 c208 -44 377 -133
516 -270 172 -170 252 -350 297 -670 26 -183 26 -947 0 -1130 -45 -320 -125
-500 -297 -670 -139 -138 -307 -225 -521 -271 -148 -32 -390 -32 -538 0 -349
75 -617 290 -733 587 -85 221 -103 374 -103 919 0 465 9 581 55 766 77 309
260 533 544 665 215 99 523 128 780 74z m791 -5569 c434 -44 717 -115 969
-244 293 -150 471 -409 492 -720 18 -266 -89 -505 -330 -734 -320 -304 -813
-509 -1396 -580 -201 -24 -629 -24 -830 0 -583 71 -1076 276 -1396 580 -285
271 -383 556 -310 903 88 418 419 742 821 803 86 13 1842 6 1980 -8z"/>
</g>
</svg>
