<?xml version="1.0" standalone="no"?>
<!DOCTYPE svg PUBLIC "-//W3C//DTD SVG 20010904//EN"
 "http://www.w3.org/TR/2001/REC-SVG-20010904/DTD/svg10.dtd">
<svg version="1.0" xmlns="http://www.w3.org/2000/svg"
 width="502.000000pt" height="1384.000000pt" viewBox="0 0 502.000000 1384.000000"
 preserveAspectRatio="xMidYMid meet">
<metadata>
Created by potrace 1.16, written by Peter Selinger 2001-2019
</metadata>
<g transform="translate(0.000000,1384.000000) scale(0.100000,-0.100000)"
fill="#000000" stroke="none">
<path d="M4385 13829 c-837 -60 -1570 -345 -1980 -770 -105 -108 -158 -178
-231 -302 -80 -136 -119 -240 -176 -476 -8 -33 -13 -586 -18 -1921 l-6 -1875
-22 -97 c-30 -132 -64 -223 -128 -348 -270 -521 -882 -874 -1576 -909 -171 -8
-193 -15 -228 -74 -29 -47 -29 -227 0 -274 35 -59 57 -66 228 -74 694 -35
1306 -388 1576 -909 64 -125 98 -216 128 -348 l22 -97 6 -1875 c5 -1335 10
-1888 18 -1921 57 -236 96 -340 176 -476 73 -124 126 -194 231 -302 161 -167
347 -298 600 -421 479 -235 1078 -360 1725 -360 151 0 180 3 209 18 56 30 71
71 71 187 0 158 -39 205 -170 205 -281 0 -650 79 -912 196 -405 179 -712 489
-828 834 -57 169 -53 47 -60 2075 -6 1864 -6 1870 -27 1963 -107 462 -368 812
-814 1093 -181 114 -513 258 -738 321 -45 13 -81 25 -81 28 0 3 36 15 81 28
225 63 557 207 738 321 446 281 707 631 814 1093 21 93 21 99 27 1963 7 2028
3 1906 60 2075 116 345 423 655 828 834 262 117 631 196 912 196 131 0 170 47
170 205 0 116 -15 157 -71 187 -30 16 -57 18 -234 17 -110 -1 -254 -6 -320
-10z"/>
</g>
</svg>
