<?xml version="1.0" standalone="no"?>
<!DOCTYPE svg PUBLIC "-//W3C//DTD SVG 20010904//EN"
 "http://www.w3.org/TR/2001/REC-SVG-20010904/DTD/svg10.dtd">
<svg version="1.0" xmlns="http://www.w3.org/2000/svg"
 width="933.000000pt" height="907.000000pt" viewBox="0 0 933.000000 907.000000"
 preserveAspectRatio="xMidYMid meet">
<metadata>
Created by potrace 1.16, written by Peter Selinger 2001-2019
</metadata>
<g transform="translate(0.000000,907.000000) scale(0.100000,-0.100000)"
fill="#000000" stroke="none">
<path d="M180 8846 l0 -226 193 0 c212 0 498 -14 622 -30 283 -36 441 -120
593 -313 71 -90 2486 -3759 2486 -3777 0 -14 -2015 -3025 -2188 -3268 -328
-464 -850 -717 -1591 -772 -77 -5 -175 -10 -217 -10 l-78 0 0 -226 0 -226 93
6 c580 39 2301 39 3005 0 l112 -6 0 226 0 226 -42 0 c-103 0 -275 39 -392 89
-112 49 -255 167 -316 261 -71 111 -93 269 -53 375 15 40 1896 2858 1937 2902
8 9 269 -379 1066 -1588 580 -880 1060 -1614 1066 -1631 61 -172 -317 -376
-749 -404 l-107 -7 0 -225 0 -225 128 7 c789 39 2790 39 3465 0 l107 -7 0 227
0 226 -192 0 c-349 0 -667 25 -824 65 -134 34 -277 130 -376 252 -48 58 -2862
4316 -2875 4350 -7 18 1833 2752 1919 2852 282 327 709 538 1248 615 125 18
355 36 463 36 l77 0 0 226 0 226 -92 -6 c-584 -39 -2283 -39 -3010 0 l-118 7
0 -225 0 -225 84 -7 c362 -27 650 -213 728 -469 27 -91 22 -199 -13 -274 -13
-29 -370 -567 -793 -1197 l-770 -1145 -46 72 c-26 40 -423 643 -883 1341 -625
948 -837 1276 -837 1298 0 48 24 91 82 144 136 123 402 213 686 231 l102 6 0
225 0 224 -132 -6 c-827 -39 -2792 -39 -3460 0 l-108 7 0 -227z"/>
</g>
</svg>
