<?xml version="1.0" standalone="no"?>
<!DOCTYPE svg PUBLIC "-//W3C//DTD SVG 20010904//EN"
 "http://www.w3.org/TR/2001/REC-SVG-20010904/DTD/svg10.dtd">
<svg version="1.0" xmlns="http://www.w3.org/2000/svg"
 width="846.000000pt" height="786.000000pt" viewBox="0 0 846.000000 786.000000"
 preserveAspectRatio="xMidYMid meet">
<metadata>
Created by potrace 1.16, written by Peter Selinger 2001-2019
</metadata>
<g transform="translate(0.000000,786.000000) scale(0.100000,-0.100000)"
fill="#000000" stroke="none">
<path d="M146 7853 c-43 -12 -95 -56 -120 -102 -36 -68 -35 -130 4 -197 26
-46 39 -56 117 -96 48 -25 1777 -827 3841 -1783 2063 -956 3752 -1741 3752
-1745 0 -4 -1689 -789 -3752 -1745 -2064 -956 -3793 -1758 -3841 -1783 -78
-40 -91 -50 -117 -96 -39 -67 -40 -129 -4 -197 40 -72 92 -103 174 -104 l65 0
4035 1869 c2219 1028 4051 1881 4070 1896 104 79 104 241 0 320 -19 15 -1850
868 -4069 1895 -4234 1961 -4077 1890 -4155 1868z"/>
</g>
</svg>
