<?xml version="1.0" standalone="no"?>
<!DOCTYPE svg PUBLIC "-//W3C//DTD SVG 20010904//EN"
 "http://www.w3.org/TR/2001/REC-SVG-20010904/DTD/svg10.dtd">
<svg version="1.0" xmlns="http://www.w3.org/2000/svg"
 width="616.000000pt" height="634.000000pt" viewBox="0 0 616.000000 634.000000"
 preserveAspectRatio="xMidYMid meet">
<metadata>
Created by potrace 1.16, written by Peter Selinger 2001-2019
</metadata>
<g transform="translate(0.000000,634.000000) scale(0.100000,-0.100000)"
fill="#000000" stroke="none">
<path d="M2816 6329 c-572 -59 -1072 -255 -1535 -601 -160 -120 -435 -389
-562 -548 -387 -490 -623 -1070 -701 -1725 -19 -165 -16 -588 6 -750 149
-1094 825 -2006 1811 -2441 1492 -658 3222 -44 3971 1411 165 320 269 656 320
1030 22 162 25 585 6 750 -78 655 -314 1235 -701 1725 -127 159 -402 428 -562
548 -422 315 -875 506 -1384 582 -161 24 -522 35 -669 19z m584 -429 c232 -43
466 -138 666 -272 122 -81 303 -250 389 -363 131 -171 249 -410 314 -635 99
-343 131 -690 131 -1405 0 -676 -28 -1023 -106 -1345 -103 -418 -307 -778
-571 -1004 -792 -679 -2012 -526 -2579 325 -193 290 -316 671 -364 1134 -30
291 -41 1090 -20 1480 31 568 126 952 315 1270 89 150 157 235 288 362 270
261 615 423 1010 473 118 15 396 4 527 -20z"/>
</g>
</svg>
