<?xml version="1.0" standalone="no"?>
<!DOCTYPE svg PUBLIC "-//W3C//DTD SVG 20010904//EN"
 "http://www.w3.org/TR/2001/REC-SVG-20010904/DTD/svg10.dtd">
<svg version="1.0" xmlns="http://www.w3.org/2000/svg"
 width="372.000000pt" height="499.000000pt" viewBox="0 0 372.000000 499.000000"
 preserveAspectRatio="xMidYMid meet">
<metadata>
Created by potrace 1.16, written by Peter Selinger 2001-2019
</metadata>
<g transform="translate(0.000000,499.000000) scale(0.100000,-0.100000)"
fill="#000000" stroke="none">
<path d="M575 4980 c-272 -43 -487 -226 -549 -468 -38 -144 -43 -81 213 -2342
133 -1169 244 -2135 246 -2147 5 -23 6 -23 210 -23 146 0 205 3 205 11 0 7
108 961 240 2122 143 1258 240 2147 240 2202 0 368 -264 630 -654 649 -50 3
-118 1 -151 -4z"/>
<path d="M2905 4979 c-348 -51 -575 -305 -575 -644 0 -55 97 -944 240 -2202
132 -1161 240 -2115 240 -2122 0 -8 59 -11 205 -11 204 0 205 0 210 22 2 13
113 979 246 2148 256 2261 251 2198 213 2342 -81 318 -418 519 -779 467z"/>
</g>
</svg>
