<?xml version="1.0" standalone="no"?>
<!DOCTYPE svg PUBLIC "-//W3C//DTD SVG 20010904//EN"
 "http://www.w3.org/TR/2001/REC-SVG-20010904/DTD/svg10.dtd">
<svg version="1.0" xmlns="http://www.w3.org/2000/svg"
 width="289.000000pt" height="292.000000pt" viewBox="0 0 289.000000 292.000000"
 preserveAspectRatio="xMidYMid meet">
<metadata>
Created by potrace 1.16, written by Peter Selinger 2001-2019
</metadata>
<g transform="translate(0.000000,292.000000) scale(0.100000,-0.100000)"
fill="#000000" stroke="none">
<path d="M2228 2865 c-183 -172 -404 -308 -923 -565 -453 -225 -627 -327 -813
-477 -315 -255 -512 -624 -488 -913 35 -429 424 -789 958 -887 128 -23 379
-23 513 1 451 81 868 355 1194 786 84 111 201 291 201 308 0 9 -256 192 -268
192 -4 0 -38 -49 -77 -107 -86 -132 -265 -317 -379 -393 -103 -68 -219 -123
-326 -152 -111 -30 -329 -33 -429 -5 -245 67 -402 234 -402 428 -1 131 -50 73
736 859 393 393 715 719 715 723 0 11 -143 257 -150 257 -3 -1 -31 -25 -62
-55z"/>
</g>
</svg>
