<?xml version="1.0" standalone="no"?>
<!DOCTYPE svg PUBLIC "-//W3C//DTD SVG 20010904//EN"
 "http://www.w3.org/TR/2001/REC-SVG-20010904/DTD/svg10.dtd">
<svg version="1.0" xmlns="http://www.w3.org/2000/svg"
 width="576.000000pt" height="954.000000pt" viewBox="0 0 576.000000 954.000000"
 preserveAspectRatio="xMidYMid meet">
<metadata>
Created by potrace 1.16, written by Peter Selinger 2001-2019
</metadata>
<g transform="translate(0.000000,954.000000) scale(0.100000,-0.100000)"
fill="#000000" stroke="none">
<path d="M2645 9529 c-536 -47 -995 -230 -1415 -565 -119 -95 -459 -437 -564
-569 -467 -584 -666 -1181 -666 -2000 0 -928 239 -1572 832 -2242 443 -501
903 -762 1493 -849 147 -21 449 -29 575 -15 615 70 1116 441 1449 1072 l61
114 0 -145 c0 -550 -45 -1171 -116 -1590 -137 -806 -466 -1453 -942 -1851
-358 -298 -718 -423 -1167 -405 -496 19 -895 154 -1108 374 l-38 39 73 6 c148
12 292 80 404 191 80 80 131 166 166 276 33 108 33 312 0 420 -66 213 -220
368 -437 441 -61 21 -89 24 -220 24 -131 0 -159 -3 -220 -24 -110 -37 -194
-88 -271 -165 -126 -126 -182 -261 -191 -456 -20 -421 141 -833 431 -1108 266
-251 648 -415 1111 -477 168 -23 482 -30 635 -16 884 84 1706 624 2306 1516
443 658 735 1441 858 2305 53 364 61 506 60 1050 0 709 -27 1096 -115 1630
-131 804 -419 1547 -793 2047 -95 126 -286 326 -416 435 -346 289 -784 481
-1220 533 -126 16 -398 17 -555 4z m451 -440 c285 -39 554 -196 762 -444 199
-237 342 -530 401 -821 79 -390 124 -947 124 -1554 0 -414 -9 -558 -54 -825
-101 -606 -323 -1086 -646 -1395 -193 -186 -406 -297 -653 -341 -110 -20 -401
-17 -515 5 -276 53 -446 144 -641 340 -233 235 -374 507 -444 856 -65 325 -80
551 -87 1290 -9 949 16 1330 112 1705 56 218 139 400 260 570 226 316 483 500
804 577 180 43 424 58 577 37z"/>
</g>
</svg>
