<?xml version="1.0" standalone="no"?>
<!DOCTYPE svg PUBLIC "-//W3C//DTD SVG 20010904//EN"
 "http://www.w3.org/TR/2001/REC-SVG-20010904/DTD/svg10.dtd">
<svg version="1.0" xmlns="http://www.w3.org/2000/svg"
 width="307.000000pt" height="669.000000pt" viewBox="0 0 307.000000 669.000000"
 preserveAspectRatio="xMidYMid meet">
<metadata>
Created by potrace 1.16, written by Peter Selinger 2001-2019
</metadata>
<g transform="translate(0.000000,669.000000) scale(0.100000,-0.100000)"
fill="#000000" stroke="none">
<path d="M2790 6668 c-26 -18 -56 -69 -144 -243 -224 -441 -452 -808 -746
-1200 -474 -630 -1066 -1212 -1690 -1660 -85 -60 -164 -121 -177 -134 -42 -44
-42 -128 1 -173 12 -13 91 -72 176 -133 624 -448 1216 -1030 1690 -1660 294
-392 522 -759 746 -1200 129 -256 138 -265 241 -265 79 0 127 19 153 62 28 47
25 92 -16 209 -128 369 -374 909 -586 1288 -342 611 -781 1212 -1235 1691
l-90 95 90 95 c708 746 1318 1707 1716 2703 96 240 141 373 141 415 0 49 -33
100 -75 118 -55 23 -156 18 -195 -8z"/>
</g>
</svg>
