<?xml version="1.0" standalone="no"?>
<!DOCTYPE svg PUBLIC "-//W3C//DTD SVG 20010904//EN"
 "http://www.w3.org/TR/2001/REC-SVG-20010904/DTD/svg10.dtd">
<svg version="1.0" xmlns="http://www.w3.org/2000/svg"
 width="554.000000pt" height="916.000000pt" viewBox="0 0 554.000000 916.000000"
 preserveAspectRatio="xMidYMid meet">
<metadata>
Created by potrace 1.16, written by Peter Selinger 2001-2019
</metadata>
<g transform="translate(0.000000,916.000000) scale(0.100000,-0.100000)"
fill="#000000" stroke="none">
<path d="M2427 9150 c-643 -62 -1223 -323 -1599 -719 -308 -325 -475 -748
-455 -1156 15 -320 198 -551 503 -636 110 -31 268 -31 378 0 243 68 403 223
478 461 20 64 23 95 22 215 0 124 -3 149 -27 220 -71 214 -219 361 -432 432
-65 21 -104 27 -207 31 -71 2 -128 6 -128 9 0 15 112 142 198 225 262 251 648
432 1082 507 596 104 992 6 1306 -321 219 -229 314 -485 345 -930 18 -266 -13
-637 -77 -927 -138 -619 -446 -1090 -843 -1291 -87 -44 -226 -89 -320 -105
-47 -8 -268 -28 -491 -46 -281 -21 -413 -35 -433 -45 -48 -25 -67 -69 -67
-154 0 -57 5 -83 20 -107 39 -64 27 -63 582 -63 555 0 627 -6 788 -60 230 -77
440 -224 612 -430 321 -384 467 -909 468 -1680 1 -844 -171 -1393 -554 -1776
-266 -267 -559 -394 -906 -394 -221 0 -544 44 -764 105 -512 140 -962 432
-1197 776 l-38 56 122 5 c99 5 139 11 215 36 318 104 512 375 512 716 0 360
-197 629 -535 732 -79 24 -107 27 -225 27 -118 0 -146 -3 -225 -27 -343 -104
-535 -372 -535 -745 0 -241 61 -515 165 -736 335 -719 1134 -1216 2150 -1337
145 -17 597 -17 735 0 343 43 671 139 975 286 450 219 803 519 1077 916 290
421 443 937 425 1435 -27 727 -429 1400 -1107 1853 -63 42 -196 118 -295 168
-244 122 -455 197 -723 257 l-103 23 138 53 c559 215 1027 581 1335 1041 155
232 286 548 341 820 52 252 60 535 22 715 -85 401 -318 753 -682 1027 -369
277 -813 452 -1333 523 -134 18 -563 28 -693 15z"/>
</g>
</svg>
