<?xml version="1.0" standalone="no"?>
<!DOCTYPE svg PUBLIC "-//W3C//DTD SVG 20010904//EN"
 "http://www.w3.org/TR/2001/REC-SVG-20010904/DTD/svg10.dtd">
<svg version="1.0" xmlns="http://www.w3.org/2000/svg"
 width="401.000000pt" height="246.000000pt" viewBox="0 0 401.000000 246.000000"
 preserveAspectRatio="xMidYMid meet">
<metadata>
Created by potrace 1.16, written by Peter Selinger 2001-2019
</metadata>
<g transform="translate(0.000000,246.000000) scale(0.100000,-0.100000)"
fill="#000000" stroke="none">
<path d="M157 2289 l-158 -170 129 -137 c71 -75 519 -551 996 -1057 477 -506
871 -920 876 -920 5 0 399 414 876 920 477 506 925 982 996 1057 l129 137
-158 170 c-87 93 -161 168 -165 167 -4 0 -380 -296 -835 -655 -455 -360 -835
-655 -843 -655 -8 0 -388 295 -843 655 -455 359 -831 655 -835 655 -4 1 -78
-74 -165 -167z"/>
</g>
</svg>
