<?xml version="1.0" standalone="no"?>
<!DOCTYPE svg PUBLIC "-//W3C//DTD SVG 20010904//EN"
 "http://www.w3.org/TR/2001/REC-SVG-20010904/DTD/svg10.dtd">
<svg version="1.0" xmlns="http://www.w3.org/2000/svg"
 width="635.000000pt" height="919.000000pt" viewBox="0 0 635.000000 919.000000"
 preserveAspectRatio="xMidYMid meet">
<metadata>
Created by potrace 1.16, written by Peter Selinger 2001-2019
</metadata>
<g transform="translate(0.000000,919.000000) scale(0.100000,-0.100000)"
fill="#000000" stroke="none">
<path d="M2275 9184 c-587 -46 -1029 -173 -1357 -393 -347 -232 -534 -581
-515 -960 9 -191 74 -338 202 -460 131 -124 290 -185 480 -185 190 0 349 61
480 185 126 120 192 269 202 455 18 322 -151 583 -444 688 l-38 14 86 40 c183
86 451 154 739 188 208 25 556 25 670 1 253 -54 465 -167 657 -351 249 -237
397 -520 469 -896 12 -66 17 -172 21 -466 l5 -381 -169 -7 c-1022 -42 -1825
-214 -2498 -535 -277 -132 -490 -278 -689 -471 -249 -241 -407 -487 -499 -775
-59 -183 -71 -267 -71 -475 0 -169 2 -195 27 -295 46 -181 113 -326 220 -471
289 -393 854 -672 1537 -759 175 -22 490 -30 625 -16 410 44 792 193 1107 433
178 134 361 334 482 526 l60 94 17 -89 c56 -273 219 -550 413 -701 l30 -23
-25 -17 c-13 -9 -78 -60 -144 -112 -545 -436 -871 -890 -977 -1361 -20 -89
-23 -130 -22 -279 1 -193 17 -280 83 -445 170 -423 582 -743 1100 -852 111
-24 149 -27 321 -27 166 -1 211 3 302 22 373 80 666 265 889 561 135 179 289
521 289 641 0 58 -28 103 -79 129 -57 30 -110 36 -153 18 -51 -21 -73 -50
-122 -158 -124 -276 -324 -469 -566 -547 -134 -43 -316 -56 -466 -32 -397 62
-778 361 -904 707 -121 337 -52 677 211 1034 83 112 304 330 463 458 l128 102
90 -12 c157 -21 357 1 528 58 360 120 651 408 770 761 54 162 60 235 60 775
l0 487 -224 0 -225 0 -3 -532 c-4 -513 -5 -536 -26 -613 -52 -189 -142 -318
-260 -373 -48 -23 -71 -27 -142 -27 -71 0 -94 4 -142 27 -118 55 -207 183
-260 373 l-23 80 -5 1740 -6 1740 -22 99 c-178 777 -824 1371 -1727 1586 -225
54 -376 71 -655 75 -140 1 -277 1 -305 -1z m1653 -3721 c-4 -877 -4 -876 -63
-1072 -171 -572 -654 -1003 -1240 -1107 -139 -25 -399 -25 -515 -1 -301 64
-550 223 -727 463 -336 456 -267 1133 168 1651 377 448 1105 755 2009 847 203
21 223 22 303 24 l68 2 -3 -807z"/>
</g>
</svg>
