<?xml version="1.0" standalone="no"?>
<!DOCTYPE svg PUBLIC "-//W3C//DTD SVG 20010904//EN"
 "http://www.w3.org/TR/2001/REC-SVG-20010904/DTD/svg10.dtd">
<svg version="1.0" xmlns="http://www.w3.org/2000/svg"
 width="950.000000pt" height="1291.000000pt" viewBox="0 0 950.000000 1291.000000"
 preserveAspectRatio="xMidYMid meet">
<metadata>
Created by potrace 1.16, written by Peter Selinger 2001-2019
</metadata>
<g transform="translate(0.000000,1291.000000) scale(0.100000,-0.100000)"
fill="#000000" stroke="none">
<path d="M4479 12882 c-33 -17 -64 -43 -81 -67 -18 -27 -491 -1421 -1459
-4295 -787 -2340 -1443 -4277 -1457 -4305 -42 -85 -97 -157 -173 -231 -87 -83
-136 -117 -245 -172 -232 -117 -503 -174 -891 -189 l-173 -6 0 -310 0 -310 88
7 c573 41 2310 41 3005 0 l107 -7 0 310 0 310 -120 7 c-235 13 -390 50 -568
137 -100 49 -136 72 -197 131 -97 91 -145 183 -153 288 l-5 70 279 830 279
830 1624 -3 1624 -2 148 -440 c81 -242 233 -696 338 -1009 172 -511 190 -573
181 -601 -13 -38 -61 -86 -115 -113 -151 -75 -487 -121 -882 -122 l-163 0 0
-311 0 -311 143 6 c219 10 874 25 1372 31 l450 6 -45 -38 c-255 -217 -399
-359 -543 -538 -214 -266 -360 -554 -419 -828 -27 -125 -31 -389 -9 -502 81
-409 359 -761 756 -959 216 -108 426 -162 665 -173 343 -14 669 83 936 280
100 74 259 238 334 345 115 164 214 370 270 563 19 63 20 81 11 116 -14 52
-57 93 -119 115 -64 23 -115 22 -163 -2 -36 -19 -45 -33 -103 -153 -77 -163
-147 -268 -240 -362 -206 -208 -478 -297 -771 -252 -441 68 -795 382 -911 807
-22 82 -25 325 -5 415 38 168 123 352 239 514 130 182 370 412 602 576 l106
74 464 -10 c256 -5 580 -13 720 -19 140 -5 261 -10 268 -10 9 0 12 69 12 310
l0 310 -237 0 c-265 0 -603 14 -733 31 -195 24 -301 76 -375 184 -29 41 -301
841 -1530 4495 -1010 2999 -1505 4458 -1523 4485 -17 24 -48 50 -81 67 l-53
28 -213 0 -213 0 -53 -28z m566 -4252 c384 -1141 700 -2081 703 -2087 3 -10
-282 -13 -1407 -13 -776 0 -1411 3 -1411 8 -1 20 1406 4180 1411 4174 3 -4
320 -941 704 -2082z"/>
</g>
</svg>
