<?xml version="1.0" standalone="no"?>
<!DOCTYPE svg PUBLIC "-//W3C//DTD SVG 20010904//EN"
 "http://www.w3.org/TR/2001/REC-SVG-20010904/DTD/svg10.dtd">
<svg version="1.0" xmlns="http://www.w3.org/2000/svg"
 width="576.000000pt" height="846.000000pt" viewBox="0 0 576.000000 846.000000"
 preserveAspectRatio="xMidYMid meet">
<metadata>
Created by potrace 1.16, written by Peter Selinger 2001-2019
</metadata>
<g transform="translate(0.000000,846.000000) scale(0.100000,-0.100000)"
fill="#000000" stroke="none">
<path d="M5076 8383 c-25 -43 -222 -384 -438 -758 l-393 -681 -140 72 c-878
451 -1893 395 -2718 -150 -765 -504 -1251 -1327 -1369 -2311 -19 -163 -16
-588 5 -745 77 -552 265 -1015 590 -1450 120 -161 383 -429 530 -540 54 -40
96 -79 93 -85 -4 -12 -846 -1474 -886 -1540 l-19 -30 146 -83 c80 -46 149 -80
154 -75 4 4 206 352 449 773 243 421 445 768 449 773 4 4 68 -21 142 -57 686
-328 1460 -364 2176 -101 148 55 423 194 558 283 192 126 299 214 471 386 473
474 755 1053 851 1746 21 157 24 582 5 745 -104 869 -494 1611 -1119 2129 -46
37 -83 69 -83 71 0 3 838 1457 870 1510 l19 30 -140 80 c-77 44 -144 81 -149
83 -5 2 -29 -32 -54 -75z m-1981 -1418 c208 -28 397 -86 581 -178 97 -49 246
-145 307 -199 l38 -33 -1263 -2188 -1263 -2188 -28 33 c-60 71 -172 249 -228
363 -140 285 -220 607 -261 1050 -17 184 -17 988 0 1175 48 520 133 860 297
1179 104 203 213 349 378 508 385 368 923 547 1442 478z m1220 -722 c270 -386
397 -786 457 -1443 17 -187 17 -991 0 -1175 -49 -528 -159 -904 -356 -1223
-397 -640 -1162 -958 -1926 -801 -162 33 -356 103 -490 176 -89 49 -250 156
-247 165 6 19 2513 4358 2517 4358 3 0 23 -26 45 -57z"/>
</g>
</svg>
