<?xml version="1.0" standalone="no"?>
<!DOCTYPE svg PUBLIC "-//W3C//DTD SVG 20010904//EN"
 "http://www.w3.org/TR/2001/REC-SVG-20010904/DTD/svg10.dtd">
<svg version="1.0" xmlns="http://www.w3.org/2000/svg"
 width="435.000000pt" height="866.000000pt" viewBox="0 0 435.000000 866.000000"
 preserveAspectRatio="xMidYMid meet">
<metadata>
Created by potrace 1.16, written by Peter Selinger 2001-2019
</metadata>
<g transform="translate(0.000000,866.000000) scale(0.100000,-0.100000)"
fill="#000000" stroke="none">
<path d="M1740 8578 c0 -46 -5 -146 -10 -223 -63 -857 -327 -1542 -756 -1955
-253 -244 -538 -372 -876 -396 l-98 -7 0 -203 0 -204 565 0 565 0 0 -1953 c0
-1304 4 -1990 11 -2063 40 -410 179 -764 403 -1026 258 -302 670 -493 1157
-538 478 -45 824 76 1125 393 245 256 407 605 486 1042 20 111 22 161 25 667
l4 548 -225 0 -226 0 0 -474 c0 -466 -6 -592 -35 -771 -32 -193 -74 -324 -155
-490 -162 -329 -404 -491 -705 -472 -399 26 -672 333 -765 862 -11 60 -24 168
-30 239 -6 82 -10 844 -10 2082 l0 1954 960 0 960 0 0 260 0 260 -960 0 -960
0 0 1275 0 1275 -225 0 -225 0 0 -82z"/>
</g>
</svg>
