<?xml version="1.0" standalone="no"?>
<!DOCTYPE svg PUBLIC "-//W3C//DTD SVG 20010904//EN"
 "http://www.w3.org/TR/2001/REC-SVG-20010904/DTD/svg10.dtd">
<svg version="1.0" xmlns="http://www.w3.org/2000/svg"
 width="538.000000pt" height="669.000000pt" viewBox="0 0 538.000000 669.000000"
 preserveAspectRatio="xMidYMid meet">
<metadata>
Created by potrace 1.16, written by Peter Selinger 2001-2019
</metadata>
<g transform="translate(0.000000,669.000000) scale(0.100000,-0.100000)"
fill="#000000" stroke="none">
<path d="M2771 6672 c-29 -15 -51 -52 -160 -267 -182 -358 -326 -603 -529
-900 -501 -736 -1108 -1369 -1817 -1896 -110 -82 -212 -161 -227 -174 -49 -46
-49 -135 0 -180 15 -14 117 -92 227 -174 709 -527 1316 -1160 1817 -1896 203
-297 347 -542 529 -900 148 -290 143 -285 274 -285 91 0 131 17 166 72 29 46
22 84 -51 288 -396 1107 -959 2049 -1771 2965 -18 20 -16 22 53 100 680 770
1211 1627 1593 2575 90 224 187 499 192 545 5 48 -21 96 -69 125 -45 27 -178
28 -227 2z"/>
<path d="M5071 6672 c-29 -15 -51 -52 -160 -267 -182 -358 -326 -603 -529
-900 -501 -736 -1108 -1369 -1817 -1896 -110 -82 -212 -161 -227 -174 -49 -46
-49 -135 0 -180 15 -14 117 -92 227 -174 709 -527 1316 -1160 1817 -1896 203
-297 347 -542 529 -900 148 -290 143 -285 274 -285 91 0 131 17 166 72 29 46
22 84 -51 288 -396 1107 -959 2049 -1771 2965 -18 20 -16 22 53 100 680 770
1211 1627 1593 2575 90 224 187 499 192 545 5 48 -21 96 -69 125 -45 27 -178
28 -227 2z"/>
</g>
</svg>
