<?xml version="1.0" standalone="no"?>
<!DOCTYPE svg PUBLIC "-//W3C//DTD SVG 20010904//EN"
 "http://www.w3.org/TR/2001/REC-SVG-20010904/DTD/svg10.dtd">
<svg version="1.0" xmlns="http://www.w3.org/2000/svg"
 width="986.000000pt" height="976.000000pt" viewBox="0 0 986.000000 976.000000"
 preserveAspectRatio="xMidYMid meet">
<metadata>
Created by potrace 1.16, written by Peter Selinger 2001-2019
</metadata>
<g transform="translate(0.000000,976.000000) scale(0.100000,-0.100000)"
fill="#000000" stroke="none">
<path d="M0 9503 l0 -260 313 -6 c442 -8 654 -34 776 -93 71 -35 166 -131 209
-211 18 -34 768 -2030 1668 -4435 1144 -3060 1643 -4384 1662 -4408 16 -19 52
-47 82 -62 52 -27 59 -28 215 -28 156 0 163 1 215 27 30 16 66 44 82 63 19 24
499 1296 1588 4210 859 2296 1574 4204 1591 4240 110 236 326 442 573 547 220
93 430 136 734 150 l142 6 0 260 0 260 -77 -7 c-512 -41 -2175 -41 -2840 0
l-103 6 0 -259 0 -260 110 -7 c310 -19 556 -109 722 -265 63 -59 86 -89 121
-159 l42 -85 0 -116 0 -116 -1229 -3285 c-675 -1807 -1236 -3302 -1245 -3323
l-16 -39 -1310 3503 c-720 1927 -1311 3515 -1313 3529 -12 81 63 186 170 237
149 72 387 111 736 120 l232 6 0 260 0 260 -127 -7 c-822 -41 -2921 -41 -3615
0 l-108 7 0 -260z"/>
</g>
</svg>
