<?xml version="1.0" standalone="no"?>
<!DOCTYPE svg PUBLIC "-//W3C//DTD SVG 20010904//EN"
 "http://www.w3.org/TR/2001/REC-SVG-20010904/DTD/svg10.dtd">
<svg version="1.0" xmlns="http://www.w3.org/2000/svg"
 width="899.000000pt" height="1282.000000pt" viewBox="0 0 899.000000 1282.000000"
 preserveAspectRatio="xMidYMid meet">
<metadata>
Created by potrace 1.16, written by Peter Selinger 2001-2019
</metadata>
<g transform="translate(0.000000,1282.000000) scale(0.100000,-0.100000)"
fill="#000000" stroke="none">
<path d="M2661 12633 c-94 -130 -131 -190 -125 -199 12 -17 1956 -1654 1964
-1654 8 0 1952 1637 1964 1654 7 9 -28 66 -119 192 -71 99 -132 183 -136 188
-4 4 -390 -213 -858 -483 l-851 -492 -849 491 c-467 269 -851 490 -853 490 -2
0 -63 -84 -137 -187z"/>
<path d="M266 9313 c-4 -32 -62 -751 -131 -1598 -69 -847 -127 -1566 -131
-1597 l-6 -58 276 0 c152 0 276 2 276 5 0 25 45 510 61 655 65 595 164 1030
296 1295 87 174 201 300 382 420 233 155 497 243 882 292 113 15 223 17 709
18 570 0 638 -3 753 -35 50 -15 101 -61 123 -113 18 -41 19 -168 22 -3877 l2
-3836 -22 -44 c-41 -81 -145 -138 -298 -165 -188 -33 -704 -55 -1322 -55
l-368 0 0 -311 0 -312 173 7 c1091 41 4013 41 5105 0 l172 -7 0 312 0 311
-367 0 c-619 0 -1135 22 -1323 55 -153 27 -257 84 -298 165 l-22 44 2 3836 c3
3709 4 3836 22 3877 33 78 82 108 220 135 79 15 1001 22 1190 9 455 -33 783
-128 1052 -307 113 -76 241 -197 299 -284 178 -268 297 -724 374 -1430 16
-145 61 -630 61 -655 0 -3 124 -5 276 -5 l276 0 -6 58 c-4 31 -62 750 -131
1597 -69 847 -127 1566 -131 1598 l-6 57 -4218 0 -4218 0 -6 -57z"/>
</g>
</svg>
