<?xml version="1.0" standalone="no"?>
<!DOCTYPE svg PUBLIC "-//W3C//DTD SVG 20010904//EN"
 "http://www.w3.org/TR/2001/REC-SVG-20010904/DTD/svg10.dtd">
<svg version="1.0" xmlns="http://www.w3.org/2000/svg"
 width="946.000000pt" height="937.000000pt" viewBox="0 0 946.000000 937.000000"
 preserveAspectRatio="xMidYMid meet">
<metadata>
Created by potrace 1.16, written by Peter Selinger 2001-2019
</metadata>
<g transform="translate(0.000000,937.000000) scale(0.100000,-0.100000)"
fill="#000000" stroke="none">
<path d="M0 9148 l0 -225 293 -6 c312 -7 504 -24 631 -59 143 -38 254 -137
330 -292 19 -39 744 -1958 1612 -4264 1397 -3712 1581 -4196 1611 -4227 63
-65 81 -70 248 -70 167 0 185 5 248 70 30 31 207 495 1542 4042 829 2205 1522
4041 1541 4080 135 298 390 520 718 628 170 55 422 95 609 95 l67 0 0 226 0
226 -82 -6 c-523 -39 -2019 -39 -2665 0 l-103 6 0 -226 0 -226 58 0 c84 0 261
-26 350 -51 100 -27 228 -87 306 -143 182 -130 278 -329 248 -512 -7 -44 -419
-1151 -1228 -3301 -1170 -3109 -1218 -3234 -1230 -3202 -6 19 -583 1553 -1282
3409 -698 1856 -1273 3390 -1277 3407 -18 86 58 209 162 265 146 79 448 128
791 128 l132 0 0 226 0 227 -127 -7 c-785 -39 -2724 -39 -3395 0 l-108 7 0
-225z"/>
</g>
</svg>
