<?xml version="1.0" standalone="no"?>
<!DOCTYPE svg PUBLIC "-//W3C//DTD SVG 20010904//EN"
 "http://www.w3.org/TR/2001/REC-SVG-20010904/DTD/svg10.dtd">
<svg version="1.0" xmlns="http://www.w3.org/2000/svg"
 width="186.000000pt" height="435.000000pt" viewBox="0 0 186.000000 435.000000"
 preserveAspectRatio="xMidYMid meet">
<metadata>
Created by potrace 1.16, written by Peter Selinger 2001-2019
</metadata>
<g transform="translate(0.000000,435.000000) scale(0.100000,-0.100000)"
fill="#000000" stroke="none">
<path d="M640 4331 c-301 -65 -514 -263 -606 -566 -25 -81 -28 -105 -28 -245
0 -140 3 -164 28 -245 70 -230 212 -403 412 -500 256 -125 624 -107 843 41
l54 37 -6 -159 c-34 -839 -361 -1589 -949 -2176 -75 -76 -142 -146 -147 -157
-15 -28 -14 -87 3 -119 21 -40 207 -219 239 -231 37 -14 77 -13 104 2 41 23
163 138 270 255 551 603 878 1324 975 2147 19 167 17 612 -5 756 -100 673
-406 1088 -861 1168 -88 16 -229 12 -326 -8z"/>
</g>
</svg>
