<?xml version="1.0" standalone="no"?>
<!DOCTYPE svg PUBLIC "-//W3C//DTD SVG 20010904//EN"
 "http://www.w3.org/TR/2001/REC-SVG-20010904/DTD/svg10.dtd">
<svg version="1.0" xmlns="http://www.w3.org/2000/svg"
 width="899.000000pt" height="1224.000000pt" viewBox="0 0 899.000000 1224.000000"
 preserveAspectRatio="xMidYMid meet">
<metadata>
Created by potrace 1.16, written by Peter Selinger 2001-2019
</metadata>
<g transform="translate(0.000000,1224.000000) scale(0.100000,-0.100000)"
fill="#000000" stroke="none">
<path d="M266 12183 c-4 -32 -62 -728 -131 -1548 -68 -819 -127 -1516 -131
-1547 l-6 -58 226 0 c124 0 226 4 226 8 0 4 11 131 25 282 108 1178 266 1708
589 1979 272 229 584 345 1081 403 155 18 1289 18 1395 0 164 -28 231 -71 266
-173 18 -52 19 -169 19 -3934 l0 -3880 -27 -50 c-59 -114 -178 -185 -356 -215
-220 -37 -702 -59 -1289 -60 l-333 0 0 -261 0 -262 163 7 c163 6 905 21 1610
31 l377 5 0 -508 0 -509 108 -7 c436 -26 780 -175 936 -403 129 -190 136 -436
18 -619 -132 -203 -445 -337 -932 -398 -239 -30 -377 -37 -770 -42 -217 -2
-423 -7 -457 -10 l-63 -6 0 -201 0 -202 407 2 c415 3 837 16 1063 33 1064 82
1646 328 1833 775 86 207 82 503 -12 708 -94 208 -282 384 -543 506 -116 55
-296 118 -435 152 l-93 22 0 354 0 353 373 -5 c700 -10 1442 -25 1605 -31
l162 -7 0 262 0 261 -332 0 c-588 1 -1070 23 -1290 60 -178 30 -297 101 -356
215 l-27 50 0 3880 c0 3765 1 3882 19 3934 23 68 78 124 142 145 117 38 183
41 804 41 658 0 745 -5 1020 -61 333 -68 619 -209 819 -403 285 -276 433 -807
536 -1931 14 -151 25 -278 25 -282 0 -4 102 -8 226 -8 l226 0 -6 58 c-4 31
-63 728 -131 1547 -69 820 -127 1516 -131 1548 l-6 57 -4218 0 -4218 0 -6 -57z"/>
</g>
</svg>
