<?xml version="1.0" standalone="no"?>
<!DOCTYPE svg PUBLIC "-//W3C//DTD SVG 20010904//EN"
 "http://www.w3.org/TR/2001/REC-SVG-20010904/DTD/svg10.dtd">
<svg version="1.0" xmlns="http://www.w3.org/2000/svg"
 width="182.000000pt" height="435.000000pt" viewBox="0 0 182.000000 435.000000"
 preserveAspectRatio="xMidYMid meet">
<metadata>
Created by potrace 1.16, written by Peter Selinger 2001-2019
</metadata>
<g transform="translate(0.000000,435.000000) scale(0.100000,-0.100000)"
fill="#000000" stroke="none">
<path d="M640 4331 c-304 -67 -514 -263 -606 -566 -25 -81 -28 -105 -28 -245
0 -140 3 -164 28 -245 86 -285 284 -480 562 -557 65 -18 106 -22 234 -22 179
0 261 18 392 83 l78 38 0 -71 c0 -93 -16 -283 -36 -421 -95 -676 -406 -1312
-885 -1809 -69 -72 -131 -141 -137 -153 -16 -30 -15 -88 2 -121 8 -15 61 -73
118 -129 154 -151 181 -151 331 -5 594 581 989 1400 1094 2262 21 180 25 636
5 780 -76 563 -281 947 -591 1109 -116 60 -205 82 -351 87 -97 3 -144 0 -210
-15z"/>
</g>
</svg>
