<?xml version="1.0" standalone="no"?>
<!DOCTYPE svg PUBLIC "-//W3C//DTD SVG 20010904//EN"
 "http://www.w3.org/TR/2001/REC-SVG-20010904/DTD/svg10.dtd">
<svg version="1.0" xmlns="http://www.w3.org/2000/svg"
 width="502.000000pt" height="1384.000000pt" viewBox="0 0 502.000000 1384.000000"
 preserveAspectRatio="xMidYMid meet">
<metadata>
Created by potrace 1.16, written by Peter Selinger 2001-2019
</metadata>
<g transform="translate(0.000000,1384.000000) scale(0.100000,-0.100000)"
fill="#000000" stroke="none">
<path d="M72 13821 c-58 -37 -72 -73 -72 -186 0 -175 26 -198 237 -209 832
-40 1505 -457 1690 -1046 49 -155 46 -54 53 -2055 6 -1864 6 -1870 27 -1963
129 -561 508 -983 1133 -1262 117 -53 451 -170 483 -170 9 0 17 -4 17 -10 0
-5 -8 -10 -17 -10 -10 0 -97 -27 -193 -59 -803 -272 -1274 -727 -1423 -1373
-21 -93 -21 -99 -27 -1963 -7 -2001 -4 -1900 -53 -2055 -185 -589 -858 -1006
-1690 -1046 -211 -11 -237 -34 -237 -209 0 -113 14 -149 72 -186 32 -20 42
-20 298 -15 449 9 796 60 1170 171 792 237 1306 686 1454 1272 14 54 30 136
35 183 7 56 11 672 11 1850 0 1164 4 1794 10 1850 49 392 251 731 590 986 318
240 697 372 1132 393 160 8 183 16 218 74 29 47 29 227 0 274 -35 58 -58 66
-218 74 -435 21 -814 153 -1132 393 -339 255 -541 594 -590 986 -6 56 -10 686
-10 1850 0 1178 -4 1794 -11 1850 -107 866 -945 1461 -2258 1606 -75 8 -255
17 -401 20 -256 5 -266 5 -298 -15z"/>
</g>
</svg>
