<?xml version="1.0" standalone="no"?>
<!DOCTYPE svg PUBLIC "-//W3C//DTD SVG 20010904//EN"
 "http://www.w3.org/TR/2001/REC-SVG-20010904/DTD/svg10.dtd">
<svg version="1.0" xmlns="http://www.w3.org/2000/svg"
 width="299.000000pt" height="922.000000pt" viewBox="0 0 299.000000 922.000000"
 preserveAspectRatio="xMidYMid meet">
<metadata>
Created by potrace 1.16, written by Peter Selinger 2001-2019
</metadata>
<g transform="translate(0.000000,922.000000) scale(0.100000,-0.100000)"
fill="#000000" stroke="none">
<path d="M955 9144 c-512 -40 -936 -73 -942 -73 -10 -1 -13 -53 -13 -224 l0
-224 218 -6 c562 -15 719 -90 790 -375 15 -62 17 -362 20 -3737 2 -2643 0
-3688 -8 -3735 -22 -128 -77 -208 -171 -249 -96 -43 -365 -71 -681 -71 l-168
0 0 -226 0 -226 92 6 c585 39 2211 39 2796 0 l92 -6 0 226 0 226 -167 0 c-317
0 -586 28 -682 71 -56 24 -106 71 -133 123 -50 98 -48 -136 -48 4374 l0 4202
-32 -1 c-18 -1 -451 -34 -963 -75z"/>
</g>
</svg>
