<?xml version="1.0" standalone="no"?>
<!DOCTYPE svg PUBLIC "-//W3C//DTD SVG 20010904//EN"
 "http://www.w3.org/TR/2001/REC-SVG-20010904/DTD/svg10.dtd">
<svg version="1.0" xmlns="http://www.w3.org/2000/svg"
 width="616.000000pt" height="949.000000pt" viewBox="0 0 616.000000 949.000000"
 preserveAspectRatio="xMidYMid meet">
<metadata>
Created by potrace 1.16, written by Peter Selinger 2001-2019
</metadata>
<g transform="translate(0.000000,949.000000) scale(0.100000,-0.100000)"
fill="#000000" stroke="none">
<path d="M1990 9475 c-212 -47 -410 -163 -590 -344 -47 -47 -153 -169 -235
-271 -82 -102 -204 -253 -272 -337 l-123 -152 197 -160 198 -160 60 67 c217
244 427 380 666 433 81 18 117 20 254 16 93 -3 192 -12 235 -22 127 -27 383
-119 635 -225 412 -175 567 -226 768 -256 222 -33 420 -4 612 90 134 66 240
145 362 268 106 108 627 749 615 759 -4 3 -92 74 -195 157 l-188 152 -137
-138 c-281 -283 -537 -396 -866 -379 -212 10 -411 68 -802 232 -334 141 -502
203 -654 243 -123 31 -150 35 -305 38 -124 3 -188 0 -235 -11z"/>
<path d="M2816 6329 c-572 -59 -1072 -255 -1535 -601 -160 -120 -435 -389
-562 -548 -387 -490 -623 -1070 -701 -1725 -19 -165 -16 -588 6 -750 149
-1094 825 -2006 1811 -2441 1492 -658 3222 -44 3971 1411 165 320 269 656 320
1030 22 162 25 585 6 750 -78 655 -314 1235 -701 1725 -127 159 -402 428 -562
548 -422 315 -875 506 -1384 582 -161 24 -522 35 -669 19z m582 -528 c364 -68
709 -258 934 -516 253 -291 386 -654 444 -1215 21 -207 31 -1106 15 -1423 -37
-767 -171 -1208 -469 -1553 -625 -723 -1869 -723 -2494 0 -298 345 -432 786
-469 1553 -16 317 -6 1216 15 1423 58 564 191 926 447 1218 258 293 654 489
1084 536 98 10 383 -3 493 -23z"/>
</g>
</svg>
