<?xml version="1.0" standalone="no"?>
<!DOCTYPE svg PUBLIC "-//W3C//DTD SVG 20010904//EN"
 "http://www.w3.org/TR/2001/REC-SVG-20010904/DTD/svg10.dtd">
<svg version="1.0" xmlns="http://www.w3.org/2000/svg"
 width="539.000000pt" height="905.000000pt" viewBox="0 0 539.000000 905.000000"
 preserveAspectRatio="xMidYMid meet">
<metadata>
Created by potrace 1.16, written by Peter Selinger 2001-2019
</metadata>
<g transform="translate(0.000000,905.000000) scale(0.100000,-0.100000)"
fill="#000000" stroke="none">
<path d="M3310 9027 c-106 -36 -163 -80 -396 -307 -1216 -1184 -1504 -1465
-1504 -1471 0 -15 263 -354 273 -351 7 2 479 265 1050 585 1109 622 1121 629
1197 747 125 195 82 469 -105 655 -148 148 -341 202 -515 142z"/>
<path d="M2685 6334 c-16 -2 -73 -9 -125 -15 -663 -75 -1334 -446 -1789 -989
-413 -492 -658 -1061 -748 -1735 -24 -185 -24 -639 1 -820 37 -274 110 -558
202 -793 107 -272 292 -593 474 -822 107 -135 365 -394 500 -500 535 -424
1203 -660 1866 -660 249 0 521 43 754 120 147 49 427 183 555 267 459 301 802
755 970 1285 41 129 43 166 14 218 -36 63 -79 80 -204 80 -168 0 -194 -22
-250 -214 -30 -100 -101 -270 -147 -354 -283 -507 -720 -834 -1238 -929 -133
-24 -416 -24 -564 1 -620 103 -1140 492 -1416 1060 -191 393 -272 820 -287
1504 l-6 302 2008 0 2007 0 38 21 c21 12 48 39 60 62 22 39 23 45 17 236 -24
779 -223 1395 -603 1867 -367 456 -948 742 -1634 804 -107 9 -386 12 -455 4z
m440 -429 c392 -85 698 -326 908 -715 121 -224 217 -522 266 -828 20 -119 44
-366 55 -544 l5 -88 -1550 0 -1550 0 5 33 c3 17 8 75 11 127 15 229 65 519
125 725 209 717 718 1222 1315 1304 93 13 322 5 410 -14z"/>
</g>
</svg>
