<?xml version="1.0" standalone="no"?>
<!DOCTYPE svg PUBLIC "-//W3C//DTD SVG 20010904//EN"
 "http://www.w3.org/TR/2001/REC-SVG-20010904/DTD/svg10.dtd">
<svg version="1.0" xmlns="http://www.w3.org/2000/svg"
 width="525.000000pt" height="233.000000pt" viewBox="0 0 525.000000 233.000000"
 preserveAspectRatio="xMidYMid meet">
<metadata>
Created by potrace 1.16, written by Peter Selinger 2001-2019
</metadata>
<g transform="translate(0.000000,233.000000) scale(0.100000,-0.100000)"
fill="#000000" stroke="none">
<path d="M1305 1348 c-715 -539 -1299 -983 -1298 -987 1 -3 57 -86 125 -184
73 -104 128 -175 135 -172 7 2 537 340 1177 750 640 410 1169 745 1176 745 7
0 536 -335 1176 -745 640 -410 1170 -748 1177 -750 11 -5 259 339 258 358 0
12 -2599 1967 -2613 1966 -7 0 -598 -442 -1313 -981z"/>
</g>
</svg>
