<?xml version="1.0" standalone="no"?>
<!DOCTYPE svg PUBLIC "-//W3C//DTD SVG 20010904//EN"
 "http://www.w3.org/TR/2001/REC-SVG-20010904/DTD/svg10.dtd">
<svg version="1.0" xmlns="http://www.w3.org/2000/svg"
 width="811.000000pt" height="750.000000pt" viewBox="0 0 811.000000 750.000000"
 preserveAspectRatio="xMidYMid meet">
<metadata>
Created by potrace 1.16, written by Peter Selinger 2001-2019
</metadata>
<g transform="translate(0.000000,750.000000) scale(0.100000,-0.100000)"
fill="#000000" stroke="none">
<path d="M7880 7486 c-19 -7 -1787 -819 -3929 -1806 -3801 -1752 -3894 -1795
-3920 -1834 -37 -56 -37 -136 0 -192 26 -39 119 -82 3920 -1834 2142 -987
3913 -1800 3935 -1808 32 -10 50 -11 82 -2 129 34 176 187 86 281 -16 17
-1296 612 -3744 1740 -2046 942 -3720 1716 -3720 1719 0 3 1674 777 3720 1719
2448 1128 3728 1723 3744 1740 88 93 44 246 -82 281 -46 12 -49 12 -92 -4z"/>
</g>
</svg>
