<?xml version="1.0" standalone="no"?>
<!DOCTYPE svg PUBLIC "-//W3C//DTD SVG 20010904//EN"
 "http://www.w3.org/TR/2001/REC-SVG-20010904/DTD/svg10.dtd">
<svg version="1.0" xmlns="http://www.w3.org/2000/svg"
 width="432.000000pt" height="1199.000000pt" viewBox="0 0 432.000000 1199.000000"
 preserveAspectRatio="xMidYMid meet">
<metadata>
Created by potrace 1.16, written by Peter Selinger 2001-2019
</metadata>
<g transform="translate(0.000000,1199.000000) scale(0.100000,-0.100000)"
fill="#000000" stroke="none">
<path d="M660 11975 c-298 -63 -528 -282 -607 -575 -24 -89 -24 -291 0 -380
60 -223 209 -405 412 -506 129 -63 196 -79 345 -79 149 0 216 16 345 79 203
101 351 282 412 506 24 89 25 290 0 380 -25 95 -98 235 -160 311 -95 114 -254
215 -402 255 -83 22 -264 27 -345 9z"/>
<path d="M3350 11975 c-248 -53 -443 -205 -551 -430 -59 -123 -74 -190 -74
-335 0 -145 15 -212 74 -335 78 -164 194 -281 356 -361 129 -63 196 -79 345
-79 149 0 216 16 345 79 203 101 352 283 412 506 24 89 24 290 0 380 -25 94
-97 235 -160 311 -95 114 -254 215 -402 255 -83 22 -264 27 -345 9z"/>
<path d="M0 9191 l0 -261 248 0 c415 -1 772 -22 942 -56 133 -28 215 -89 269
-203 l26 -56 0 -3890 0 -3890 -26 -56 c-54 -114 -136 -175 -269 -203 -170 -34
-527 -55 -942 -56 l-248 0 0 -261 0 -262 128 7 c821 41 3233 41 4055 0 l127
-7 0 262 0 261 -247 0 c-416 1 -773 22 -943 56 -133 28 -215 89 -269 203 l-26
56 0 3890 0 3890 26 56 c54 114 136 175 269 203 170 34 527 55 943 56 l247 0
0 261 0 262 -127 -7 c-395 -19 -1108 -30 -2028 -30 -920 0 -1633 11 -2027 30
l-128 7 0 -262z"/>
</g>
</svg>
