<?xml version="1.0" standalone="no"?>
<!DOCTYPE svg PUBLIC "-//W3C//DTD SVG 20010904//EN"
 "http://www.w3.org/TR/2001/REC-SVG-20010904/DTD/svg10.dtd">
<svg version="1.0" xmlns="http://www.w3.org/2000/svg"
 width="551.000000pt" height="919.000000pt" viewBox="0 0 551.000000 919.000000"
 preserveAspectRatio="xMidYMid meet">
<metadata>
Created by potrace 1.16, written by Peter Selinger 2001-2019
</metadata>
<g transform="translate(0.000000,919.000000) scale(0.100000,-0.100000)"
fill="#000000" stroke="none">
<path d="M2685 9184 c-16 -2 -73 -9 -125 -15 -663 -75 -1334 -446 -1789 -989
-413 -492 -658 -1061 -748 -1735 -24 -185 -24 -639 1 -820 37 -274 110 -558
202 -793 107 -272 292 -593 474 -822 107 -135 365 -394 500 -500 560 -444
1259 -679 1950 -657 l175 6 -150 -152 c-289 -294 -482 -583 -584 -880 -59
-169 -75 -272 -75 -472 1 -169 3 -187 32 -300 135 -514 572 -901 1162 -1026
142 -31 438 -33 575 -6 402 82 732 304 960 647 120 179 255 499 255 601 0 82
-51 134 -154 159 -112 27 -165 -6 -221 -137 -143 -334 -366 -548 -651 -623
-373 -97 -822 67 -1085 398 -137 171 -205 348 -216 562 -11 236 55 458 208
691 158 241 382 457 717 692 182 129 523 405 640 521 280 274 474 587 598 964
50 149 53 188 23 242 -39 69 -74 80 -254 80 -225 0 -240 -11 -300 -214 -54
-182 -160 -396 -284 -571 -79 -113 -287 -318 -396 -392 -288 -194 -586 -269
-937 -234 -490 48 -892 229 -1214 546 -440 435 -624 1037 -624 2048 l0 187
1956 0 1956 0 38 21 c21 12 48 39 60 62 22 39 23 45 17 236 -24 779 -223 1395
-603 1867 -367 456 -948 742 -1634 804 -107 9 -386 12 -455 4z m365 -519 c672
-102 1094 -737 1190 -1790 5 -60 10 -129 10 -152 l0 -43 -1440 0 -1440 0 0 53
c0 74 26 302 51 437 83 472 252 824 523 1095 169 169 329 273 526 343 190 67
389 86 580 57z"/>
</g>
</svg>
