<?xml version="1.0" standalone="no"?>
<!DOCTYPE svg PUBLIC "-//W3C//DTD SVG 20010904//EN"
 "http://www.w3.org/TR/2001/REC-SVG-20010904/DTD/svg10.dtd">
<svg version="1.0" xmlns="http://www.w3.org/2000/svg"
 width="616.000000pt" height="938.000000pt" viewBox="0 0 616.000000 938.000000"
 preserveAspectRatio="xMidYMid meet">
<metadata>
Created by potrace 1.16, written by Peter Selinger 2001-2019
</metadata>
<g transform="translate(0.000000,938.000000) scale(0.100000,-0.100000)"
fill="#000000" stroke="none">
<path d="M4325 9366 c-16 -7 -40 -24 -52 -37 -12 -13 -978 -1488 -2147 -3277
l-2126 -3252 0 -260 0 -260 1820 0 1821 0 -3 -727 -3 -728 -27 -57 c-35 -75
-97 -141 -157 -167 -112 -48 -334 -69 -803 -78 l-348 -6 0 -260 0 -260 118 7
c758 41 2859 41 3615 0 l117 -7 0 260 0 260 -347 6 c-474 9 -693 30 -803 78
-63 28 -123 91 -157 163 l-28 61 -3 727 -3 728 671 0 670 0 0 260 0 260 -670
0 -670 0 -2 3239 -3 3240 -21 27 c-49 66 -59 69 -252 71 -133 2 -185 -1 -207
-11z m-608 -6563 c-2 -2 -724 -2 -1604 -1 l-1601 3 1602 2450 1601 2450 3
-2449 c1 -1347 1 -2451 -1 -2453z"/>
</g>
</svg>
