<?xml version="1.0" standalone="no"?>
<!DOCTYPE svg PUBLIC "-//W3C//DTD SVG 20010904//EN"
 "http://www.w3.org/TR/2001/REC-SVG-20010904/DTD/svg10.dtd">
<svg version="1.0" xmlns="http://www.w3.org/2000/svg"
 width="966.000000pt" height="976.000000pt" viewBox="0 0 966.000000 976.000000"
 preserveAspectRatio="xMidYMid meet">
<metadata>
Created by potrace 1.16, written by Peter Selinger 2001-2019
</metadata>
<g transform="translate(0.000000,976.000000) scale(0.100000,-0.100000)"
fill="#000000" stroke="none">
<path d="M0 9453 l0 -310 403 -6 c545 -8 760 -27 862 -77 50 -24 108 -78 132
-123 17 -30 18 -192 23 -2902 5 -2650 7 -2879 23 -2985 66 -440 163 -748 355
-1125 383 -752 1045 -1344 1867 -1668 598 -236 1301 -315 1875 -211 814 148
1522 604 2027 1305 291 404 511 930 603 1439 57 319 53 119 59 3060 6 2696 6
2705 27 2761 101 280 385 443 874 505 63 8 206 17 318 21 l202 6 0 310 0 309
-103 -6 c-667 -41 -2587 -41 -3254 0 l-103 6 0 -309 0 -310 203 -6 c399 -13
663 -67 881 -179 101 -53 227 -173 274 -264 67 -129 63 86 59 -2867 -3 -2873
0 -2699 -52 -2997 -132 -768 -528 -1408 -1106 -1790 -317 -210 -661 -338
-1064 -396 -169 -25 -527 -25 -685 0 -463 72 -858 267 -1168 575 -366 365
-568 840 -646 1521 -35 304 -37 515 -34 3360 3 2650 4 2807 21 2837 24 45 82
99 132 123 102 50 317 69 863 77 l402 6 0 310 0 310 -127 -7 c-827 -41 -3189
-41 -4015 0 l-128 7 0 -310z"/>
</g>
</svg>
