<?xml version="1.0" standalone="no"?>
<!DOCTYPE svg PUBLIC "-//W3C//DTD SVG 20010904//EN"
 "http://www.w3.org/TR/2001/REC-SVG-20010904/DTD/svg10.dtd">
<svg version="1.0" xmlns="http://www.w3.org/2000/svg"
 width="950.000000pt" height="1264.000000pt" viewBox="0 0 950.000000 1264.000000"
 preserveAspectRatio="xMidYMid meet">
<metadata>
Created by potrace 1.16, written by Peter Selinger 2001-2019
</metadata>
<g transform="translate(0.000000,1264.000000) scale(0.100000,-0.100000)"
fill="#000000" stroke="none">
<path d="M4605 12634 c-164 -25 -306 -69 -440 -137 -417 -209 -719 -635 -817
-1154 -32 -170 -32 -476 0 -646 100 -529 423 -975 844 -1167 43 -19 77 -40 78
-47 0 -21 -2751 -8186 -2780 -8250 -42 -92 -99 -170 -181 -249 -87 -83 -136
-117 -245 -172 -232 -117 -503 -174 -892 -189 l-172 -6 0 -310 0 -310 88 7
c573 41 2310 41 3005 0 l107 -7 0 310 0 310 -120 7 c-235 13 -390 50 -568 137
-100 49 -136 72 -197 131 -97 91 -145 183 -153 288 l-5 70 279 830 279 830
1624 -3 1624 -2 148 -440 c81 -242 233 -696 338 -1009 172 -511 190 -573 181
-601 -13 -38 -61 -86 -115 -113 -151 -75 -487 -121 -882 -122 l-163 0 0 -311
0 -312 138 7 c884 41 3010 41 3765 0 l117 -7 0 312 0 311 -237 0 c-265 0 -603
14 -733 31 -195 24 -300 76 -375 184 -29 41 -292 814 -1480 4343 -795 2361
-1445 4298 -1445 4305 1 7 35 28 78 47 421 192 744 638 844 1167 32 170 32
476 0 646 -123 651 -556 1136 -1132 1268 -83 19 -335 33 -405 23z m335 -519
c52 -8 120 -22 150 -31 222 -66 384 -225 459 -449 58 -173 65 -244 65 -615 0
-371 -7 -442 -65 -615 -109 -326 -383 -495 -804 -495 -265 0 -475 68 -615 197
-122 113 -196 264 -237 483 -26 139 -26 721 0 860 75 401 276 607 652 666 110
17 282 17 395 -1z m105 -6485 c384 -1141 700 -2081 703 -2087 3 -10 -282 -13
-1407 -13 -776 0 -1411 3 -1411 8 -1 20 1406 4180 1411 4174 3 -4 320 -941
704 -2082z"/>
</g>
</svg>
