<?xml version="1.0" standalone="no"?>
<!DOCTYPE svg PUBLIC "-//W3C//DTD SVG 20010904//EN"
 "http://www.w3.org/TR/2001/REC-SVG-20010904/DTD/svg10.dtd">
<svg version="1.0" xmlns="http://www.w3.org/2000/svg"
 width="576.000000pt" height="248.000000pt" viewBox="0 0 576.000000 248.000000"
 preserveAspectRatio="xMidYMid meet">
<metadata>
Created by potrace 1.16, written by Peter Selinger 2001-2019
</metadata>
<g transform="translate(0.000000,248.000000) scale(0.100000,-0.100000)"
fill="#000000" stroke="none">
<path d="M4 2465 c3 -9 166 -532 361 -1163 196 -631 367 -1182 381 -1225 l26
-77 2103 0 2103 0 26 78 c14 42 185 593 381 1224 195 631 358 1154 361 1163 5
13 -25 15 -270 15 l-275 0 -52 -162 c-109 -344 -220 -609 -325 -770 -144 -224
-412 -362 -773 -398 -140 -14 -2212 -14 -2352 0 -361 36 -629 174 -773 398
-105 161 -216 426 -325 770 l-52 162 -275 0 c-245 0 -275 -2 -270 -15z"/>
</g>
</svg>
