<?xml version="1.0" standalone="no"?>
<!DOCTYPE svg PUBLIC "-//W3C//DTD SVG 20010904//EN"
 "http://www.w3.org/TR/2001/REC-SVG-20010904/DTD/svg10.dtd">
<svg version="1.0" xmlns="http://www.w3.org/2000/svg"
 width="598.000000pt" height="976.000000pt" viewBox="0 0 598.000000 976.000000"
 preserveAspectRatio="xMidYMid meet">
<metadata>
Created by potrace 1.16, written by Peter Selinger 2001-2019
</metadata>
<g transform="translate(0.000000,976.000000) scale(0.100000,-0.100000)"
fill="#000000" stroke="none">
<path d="M1760 9503 l0 -260 488 -6 c961 -13 1164 -46 1293 -209 75 -96 69
223 69 -3497 0 -2226 -4 -3384 -10 -3461 -48 -525 -232 -965 -537 -1280 -173
-179 -358 -294 -559 -346 -307 -79 -780 -6 -1144 176 -171 86 -382 246 -498
379 l-52 60 32 5 c18 3 60 7 94 10 196 17 416 139 537 299 68 89 99 151 134
264 24 80 27 103 27 248 0 145 -3 168 -27 248 -35 113 -66 175 -134 264 -309
407 -997 407 -1306 0 -68 -89 -99 -150 -134 -264 -25 -82 -27 -100 -27 -273 0
-153 4 -203 23 -289 99 -461 345 -829 749 -1118 304 -218 681 -363 1112 -430
144 -22 561 -25 720 -5 714 90 1357 420 1766 906 262 310 426 658 501 1056 17
90 18 294 23 3535 l5 3440 22 55 c63 155 162 197 528 220 88 5 240 10 338 10
l177 0 0 261 0 262 -107 -7 c-702 -41 -2936 -41 -3945 0 l-158 7 0 -260z"/>
</g>
</svg>
