<?xml version="1.0" standalone="no"?>
<!DOCTYPE svg PUBLIC "-//W3C//DTD SVG 20010904//EN"
 "http://www.w3.org/TR/2001/REC-SVG-20010904/DTD/svg10.dtd">
<svg version="1.0" xmlns="http://www.w3.org/2000/svg"
 width="950.000000pt" height="1197.000000pt" viewBox="0 0 950.000000 1197.000000"
 preserveAspectRatio="xMidYMid meet">
<metadata>
Created by potrace 1.16, written by Peter Selinger 2001-2019
</metadata>
<g transform="translate(0.000000,1197.000000) scale(0.100000,-0.100000)"
fill="#000000" stroke="none">
<path d="M3253 11955 c-193 -52 -361 -235 -419 -455 -21 -79 -23 -215 -5 -290
36 -149 147 -280 295 -351 53 -25 454 -151 1175 -368 602 -182 1096 -330 1097
-328 6 6 224 489 224 495 -1 11 -1930 1229 -1994 1258 -32 14 -81 32 -109 40
-66 18 -197 17 -264 -1z"/>
<path d="M4479 9882 c-33 -17 -64 -43 -81 -67 -18 -27 -491 -1421 -1459 -4295
-787 -2340 -1443 -4277 -1457 -4305 -42 -85 -97 -157 -173 -231 -87 -83 -136
-117 -245 -172 -232 -117 -503 -174 -891 -189 l-173 -6 0 -310 0 -310 88 7
c573 41 2310 41 3005 0 l107 -7 0 310 0 310 -120 7 c-235 13 -390 50 -568 137
-100 49 -136 72 -197 131 -97 91 -145 183 -153 288 l-5 70 279 830 279 830
1624 -3 1624 -2 148 -440 c81 -242 233 -696 338 -1009 172 -511 190 -573 181
-601 -13 -38 -61 -86 -115 -113 -151 -75 -487 -121 -882 -122 l-163 0 0 -311
0 -312 138 7 c884 41 3010 41 3765 0 l117 -7 0 312 0 311 -237 0 c-265 0 -603
14 -733 31 -195 24 -301 76 -375 184 -29 41 -301 841 -1530 4495 -1010 2999
-1505 4458 -1523 4485 -17 24 -48 50 -81 67 l-53 28 -213 0 -213 0 -53 -28z
m566 -4252 c384 -1141 700 -2081 703 -2087 3 -10 -282 -13 -1407 -13 -776 0
-1411 3 -1411 8 -1 20 1406 4180 1411 4174 3 -4 320 -941 704 -2082z"/>
</g>
</svg>
