<?xml version="1.0" standalone="no"?>
<!DOCTYPE svg PUBLIC "-//W3C//DTD SVG 20010904//EN"
 "http://www.w3.org/TR/2001/REC-SVG-20010904/DTD/svg10.dtd">
<svg version="1.0" xmlns="http://www.w3.org/2000/svg"
 width="426.000000pt" height="193.000000pt" viewBox="0 0 426.000000 193.000000"
 preserveAspectRatio="xMidYMid meet">
<metadata>
Created by potrace 1.16, written by Peter Selinger 2001-2019
</metadata>
<g transform="translate(0.000000,193.000000) scale(0.100000,-0.100000)"
fill="#000000" stroke="none">
<path d="M0 1876 c0 -85 28 -280 56 -391 33 -131 81 -252 155 -394 80 -155
172 -281 303 -419 188 -195 355 -317 601 -437 222 -109 456 -181 710 -217 117
-17 483 -17 600 0 421 60 811 226 1121 475 111 90 286 275 366 388 123 172
231 405 282 604 28 111 56 306 56 391 l0 54 -205 0 -205 0 0 -42 c0 -63 -26
-214 -50 -288 -224 -697 -1175 -1112 -2120 -924 -603 120 -1064 472 -1210 924
-24 74 -50 225 -50 288 l0 42 -205 0 -205 0 0 -54z"/>
</g>
</svg>
