<?xml version="1.0" standalone="no"?>
<!DOCTYPE svg PUBLIC "-//W3C//DTD SVG 20010904//EN"
 "http://www.w3.org/TR/2001/REC-SVG-20010904/DTD/svg10.dtd">
<svg version="1.0" xmlns="http://www.w3.org/2000/svg"
 width="1329.000000pt" height="967.000000pt" viewBox="0 0 1329.000000 967.000000"
 preserveAspectRatio="xMidYMid meet">
<metadata>
Created by potrace 1.16, written by Peter Selinger 2001-2019
</metadata>
<g transform="translate(0.000000,967.000000) scale(0.100000,-0.100000)"
fill="#000000" stroke="none">
<path d="M2380 9664 c-650 -61 -1213 -328 -1655 -785 -384 -398 -624 -897
-707 -1474 -17 -119 -17 -521 0 -645 76 -542 297 -1020 660 -1425 128 -143
310 -298 492 -418 148 -97 409 -224 575 -280 78 -25 563 -150 1080 -277 921
-227 1052 -263 1200 -337 882 -441 1245 -1644 781 -2588 -205 -416 -534 -725
-936 -880 -295 -114 -629 -133 -1134 -64 -1053 143 -1816 691 -2162 1551 -124
310 -204 735 -204 1092 0 137 -40 176 -182 176 -100 0 -145 -19 -170 -70 -17
-33 -18 -130 -18 -1588 0 -1715 -5 -1591 63 -1632 40 -25 135 -27 183 -4 28
13 76 85 305 447 149 238 275 436 279 441 5 4 54 -33 110 -83 429 -385 944
-631 1570 -750 368 -70 874 -90 1155 -47 1075 168 1927 1003 2169 2127 50 231
60 336 60 619 0 202 -4 293 -18 384 -52 351 -132 615 -276 911 -303 622 -803
1084 -1425 1317 -151 57 -183 65 -1213 318 -469 115 -887 221 -930 236 -336
114 -651 359 -852 662 -573 861 -263 2030 658 2487 264 131 524 184 847 172
889 -33 1541 -405 1985 -1132 106 -173 242 -481 309 -700 74 -243 143 -588
171 -855 20 -183 45 -210 195 -210 72 0 97 4 122 20 68 41 63 -84 63 1635 0
1719 5 1594 -63 1635 -40 25 -135 27 -183 4 -28 -13 -77 -85 -310 -455 l-277
-440 -121 123 c-458 464 -1024 720 -1719 777 -117 10 -392 12 -477 5z"/>
<path d="M9760 9664 c-650 -61 -1213 -328 -1655 -785 -384 -398 -624 -897
-707 -1474 -17 -119 -17 -521 0 -645 76 -542 297 -1020 660 -1425 128 -143
310 -298 492 -418 148 -97 409 -224 575 -280 78 -25 563 -150 1080 -277 921
-227 1052 -263 1200 -337 882 -441 1245 -1644 781 -2588 -205 -416 -534 -725
-936 -880 -295 -114 -629 -133 -1134 -64 -1053 143 -1816 691 -2162 1551 -124
310 -204 735 -204 1092 0 137 -40 176 -182 176 -100 0 -145 -19 -170 -70 -17
-33 -18 -130 -18 -1588 0 -1715 -5 -1591 63 -1632 40 -25 135 -27 183 -4 28
13 76 85 305 447 149 238 275 436 279 441 5 4 54 -33 110 -83 429 -385 944
-631 1570 -750 368 -70 874 -90 1155 -47 1075 168 1927 1003 2169 2127 50 231
60 336 60 619 0 202 -4 293 -18 384 -52 351 -132 615 -276 911 -303 622 -803
1084 -1425 1317 -151 57 -183 65 -1213 318 -469 115 -887 221 -930 236 -336
114 -651 359 -852 662 -573 861 -263 2030 658 2487 264 131 524 184 847 172
889 -33 1541 -405 1985 -1132 106 -173 242 -481 309 -700 74 -243 143 -588
171 -855 20 -183 45 -210 195 -210 72 0 97 4 122 20 68 41 63 -84 63 1635 0
1719 5 1594 -63 1635 -40 25 -135 27 -183 4 -28 -13 -77 -85 -310 -455 l-277
-440 -121 123 c-458 464 -1024 720 -1719 777 -117 10 -392 12 -477 5z"/>
</g>
</svg>
