<?xml version="1.0" standalone="no"?>
<!DOCTYPE svg PUBLIC "-//W3C//DTD SVG 20010904//EN"
 "http://www.w3.org/TR/2001/REC-SVG-20010904/DTD/svg10.dtd">
<svg version="1.0" xmlns="http://www.w3.org/2000/svg"
 width="606.000000pt" height="869.000000pt" viewBox="0 0 606.000000 869.000000"
 preserveAspectRatio="xMidYMid meet">
<metadata>
Created by potrace 1.16, written by Peter Selinger 2001-2019
</metadata>
<g transform="translate(0.000000,869.000000) scale(0.100000,-0.100000)"
fill="#000000" stroke="none">
<path d="M3225 8676 c-75 -24 -142 -65 -216 -133 -41 -37 -429 -413 -862 -836
l-788 -769 24 -32 c13 -17 63 -84 111 -148 84 -112 89 -117 109 -104 12 8 450
256 972 551 523 295 982 557 1022 581 206 128 283 330 208 553 -34 104 -143
234 -245 293 -94 55 -241 74 -335 44z"/>
<path d="M5435 8676 c-75 -24 -142 -65 -216 -133 -41 -37 -429 -413 -862 -836
l-788 -769 24 -32 c13 -17 63 -84 111 -148 84 -112 89 -117 109 -104 12 8 450
256 972 551 523 295 982 557 1022 581 206 128 283 330 208 553 -34 104 -143
234 -245 293 -94 55 -241 74 -335 44z"/>
<path d="M2750 6094 c-19 -2 -78 -9 -130 -14 -659 -72 -1328 -421 -1793 -935
-738 -817 -1009 -1985 -701 -3030 103 -349 299 -724 531 -1014 102 -127 333
-358 461 -459 522 -414 1171 -642 1827 -642 656 0 1305 228 1827 642 128 101
359 332 461 459 174 218 348 518 450 779 281 714 274 1552 -20 2295 -280 711
-789 1280 -1439 1612 -295 151 -610 249 -939 293 -83 11 -473 21 -535 14z
m485 -358 c395 -71 755 -276 1003 -571 284 -338 429 -746 484 -1365 18 -197
18 -1198 0 -1405 -62 -729 -250 -1203 -614 -1550 -421 -402 -1014 -555 -1587
-411 -482 122 -881 453 -1102 914 -137 285 -213 604 -251 1047 -18 207 -18
1208 0 1405 71 793 304 1285 772 1632 242 179 482 270 845 322 65 9 364 -3
450 -18z"/>
</g>
</svg>
