<?xml version="1.0" standalone="no"?>
<!DOCTYPE svg PUBLIC "-//W3C//DTD SVG 20010904//EN"
 "http://www.w3.org/TR/2001/REC-SVG-20010904/DTD/svg10.dtd">
<svg version="1.0" xmlns="http://www.w3.org/2000/svg"
 width="863.000000pt" height="1173.000000pt" viewBox="0 0 863.000000 1173.000000"
 preserveAspectRatio="xMidYMid meet">
<metadata>
Created by potrace 1.16, written by Peter Selinger 2001-2019
</metadata>
<g transform="translate(0.000000,1173.000000) scale(0.100000,-0.100000)"
fill="#000000" stroke="none">
<path d="M256 11678 c-3 -29 -60 -687 -126 -1463 -66 -775 -123 -1434 -126
-1462 l-6 -53 186 0 c102 0 186 3 186 8 0 32 54 571 70 701 77 621 192 1033
360 1284 162 242 508 442 906 522 272 55 338 59 1019 60 572 0 638 -2 714 -18
166 -36 226 -93 251 -238 8 -46 10 -1132 8 -3774 l-3 -3710 -33 -67 c-62 -126
-174 -197 -360 -228 -218 -37 -680 -60 -1224 -60 l-308 0 0 -226 0 -227 153 6
c178 8 1158 26 1600 30 l307 2 0 -491 0 -491 109 -7 c366 -22 678 -143 845
-327 60 -66 119 -176 136 -254 19 -81 14 -220 -9 -296 -124 -396 -687 -558
-1938 -559 l-253 0 0 -172 0 -171 503 6 c546 7 763 17 1076 48 961 96 1452
347 1572 805 42 161 23 394 -45 547 -124 280 -434 490 -892 602 -60 14 -117
29 -126 31 -17 5 -18 31 -18 367 l0 362 308 -2 c441 -4 1421 -22 1600 -30
l152 -6 0 227 0 226 -307 0 c-545 0 -1007 23 -1225 60 -186 31 -298 102 -360
228 l-33 67 -3 3710 c-2 2642 0 3728 8 3774 25 145 85 202 251 238 76 16 142
18 714 18 681 -1 747 -5 1019 -60 398 -80 744 -280 906 -522 168 -251 283
-663 360 -1284 16 -130 70 -669 70 -701 0 -5 84 -8 186 -8 l186 0 -6 53 c-3
28 -60 687 -126 1462 -66 776 -123 1434 -126 1463 l-6 52 -4048 0 -4048 0 -6
-52z"/>
</g>
</svg>
