<?xml version="1.0" standalone="no"?>
<!DOCTYPE svg PUBLIC "-//W3C//DTD SVG 20010904//EN"
 "http://www.w3.org/TR/2001/REC-SVG-20010904/DTD/svg10.dtd">
<svg version="1.0" xmlns="http://www.w3.org/2000/svg"
 width="490.000000pt" height="216.000000pt" viewBox="0 0 490.000000 216.000000"
 preserveAspectRatio="xMidYMid meet">
<metadata>
Created by potrace 1.16, written by Peter Selinger 2001-2019
</metadata>
<g transform="translate(0.000000,216.000000) scale(0.100000,-0.100000)"
fill="#000000" stroke="none">
<path d="M1900 2137 c-140 -48 -71 15 -1223 -1117 -367 -360 -667 -657 -667
-661 0 -15 263 -354 273 -351 25 7 2055 1157 2099 1189 141 102 218 263 205
428 -18 236 -192 453 -416 519 -79 23 -192 20 -271 -7z"/>
<path d="M4200 2137 c-140 -48 -71 15 -1223 -1117 -367 -360 -667 -657 -667
-661 0 -15 263 -354 273 -351 25 7 2055 1157 2099 1189 141 102 218 263 205
428 -18 236 -192 453 -416 519 -79 23 -192 20 -271 -7z"/>
</g>
</svg>
