<?xml version="1.0" standalone="no"?>
<!DOCTYPE svg PUBLIC "-//W3C//DTD SVG 20010904//EN"
 "http://www.w3.org/TR/2001/REC-SVG-20010904/DTD/svg10.dtd">
<svg version="1.0" xmlns="http://www.w3.org/2000/svg"
 width="436.000000pt" height="868.000000pt" viewBox="0 0 436.000000 868.000000"
 preserveAspectRatio="xMidYMid meet">
<metadata>
Created by potrace 1.16, written by Peter Selinger 2001-2019
</metadata>
<g transform="translate(0.000000,868.000000) scale(0.100000,-0.100000)"
fill="#000000" stroke="none">
<path d="M1775 8669 c-555 -39 -985 -189 -1294 -452 -311 -265 -498 -751 -478
-1246 14 -352 147 -654 407 -924 208 -216 458 -379 774 -502 181 -71 333 -108
886 -215 561 -110 588 -116 717 -161 365 -129 677 -404 800 -705 55 -135 67
-208 67 -389 -2 -668 -345 -1039 -1049 -1130 -172 -23 -466 -30 -610 -16 -608
59 -1028 369 -1325 976 -121 246 -206 501 -274 818 -38 174 -45 190 -89 217
-44 27 -186 28 -237 2 -75 -37 -70 42 -70 -1177 0 -1063 1 -1091 20 -1122 10
-18 33 -39 49 -48 41 -21 138 -20 178 3 17 9 127 123 243 252 117 129 225 248
241 264 l28 29 65 -60 c221 -207 502 -362 789 -434 l87 -21 0 -422 0 -422 143
-12 c282 -23 499 -91 677 -212 72 -49 178 -162 213 -227 61 -113 82 -274 52
-401 -23 -97 -60 -160 -144 -242 -188 -186 -520 -284 -1116 -330 -71 -6 -311
-13 -532 -17 l-403 -6 0 -170 0 -170 503 6 c890 11 1327 52 1756 163 606 157
911 456 911 892 -1 464 -319 782 -945 942 l-150 39 -3 280 -2 280 32 5 c466
71 708 155 983 340 122 82 295 256 374 375 208 314 315 743 298 1191 -7 174
-29 298 -83 460 -191 578 -702 1040 -1377 1244 -67 21 -365 84 -685 147 -403
79 -600 122 -685 150 -393 129 -679 360 -782 632 -72 192 -51 484 51 691 84
173 196 281 389 376 134 66 246 102 410 130 273 46 688 51 919 11 583 -103
987 -503 1105 -1096 22 -113 41 -287 41 -382 0 -124 44 -163 185 -163 72 0 97
4 122 20 66 40 63 -13 63 967 0 863 -1 889 -20 920 -10 18 -33 39 -49 48 -33
17 -126 20 -165 5 -14 -5 -113 -88 -221 -184 l-196 -174 -75 54 c-96 68 -289
163 -426 208 -128 42 -313 81 -457 96 -118 12 -459 11 -636 -1z"/>
</g>
</svg>
