<?xml version="1.0" standalone="no"?>
<!DOCTYPE svg PUBLIC "-//W3C//DTD SVG 20010904//EN"
 "http://www.w3.org/TR/2001/REC-SVG-20010904/DTD/svg10.dtd">
<svg version="1.0" xmlns="http://www.w3.org/2000/svg"
 width="956.000000pt" height="1226.000000pt" viewBox="0 0 956.000000 1226.000000"
 preserveAspectRatio="xMidYMid meet">
<metadata>
Created by potrace 1.16, written by Peter Selinger 2001-2019
</metadata>
<g transform="translate(0.000000,1226.000000) scale(0.100000,-0.100000)"
fill="#000000" stroke="none">
<path d="M3600 12237 c-235 -80 -392 -322 -377 -582 10 -188 105 -328 282
-414 60 -29 2268 -711 2312 -714 21 -2 33 19 114 196 50 109 87 202 83 207
-20 17 -1993 1249 -2040 1273 -119 60 -261 73 -374 34z"/>
<path d="M0 9503 l0 -260 373 -6 c585 -10 798 -36 906 -111 45 -31 94 -97 119
-158 16 -40 17 -228 23 -2923 5 -2660 6 -2889 22 -3000 38 -260 99 -508 182
-740 56 -159 218 -490 313 -642 532 -851 1428 -1444 2434 -1612 366 -61 759
-67 1057 -15 517 89 963 286 1381 610 142 110 420 384 528 521 426 540 660
1097 764 1818 l22 150 6 2720 5 2720 30 85 c60 173 183 312 353 398 228 116
463 166 845 179 l187 6 0 260 0 259 -102 -6 c-665 -41 -2491 -41 -3155 0
l-103 6 0 -259 0 -260 188 -6 c686 -23 1068 -208 1197 -577 l30 -85 3 -2600
c2 -1835 0 -2648 -8 -2764 -27 -401 -119 -785 -266 -1118 -261 -590 -688
-1044 -1229 -1309 -251 -122 -484 -195 -747 -235 -752 -111 -1436 116 -1935
644 -406 430 -615 1024 -663 1887 -6 106 -10 1278 -10 2991 0 3124 -6 2869 66
2976 99 146 264 178 982 190 l372 6 0 260 0 260 -127 -7 c-826 -41 -3090 -41
-3915 0 l-128 7 0 -260z"/>
</g>
</svg>
