<?xml version="1.0" standalone="no"?>
<!DOCTYPE svg PUBLIC "-//W3C//DTD SVG 20010904//EN"
 "http://www.w3.org/TR/2001/REC-SVG-20010904/DTD/svg10.dtd">
<svg version="1.0" xmlns="http://www.w3.org/2000/svg"
 width="604.000000pt" height="893.000000pt" viewBox="0 0 604.000000 893.000000"
 preserveAspectRatio="xMidYMid meet">
<metadata>
Created by potrace 1.16, written by Peter Selinger 2001-2019
</metadata>
<g transform="translate(0.000000,893.000000) scale(0.100000,-0.100000)"
fill="#000000" stroke="none">
<path d="M2225 8919 c-236 -30 -471 -123 -654 -259 -205 -153 -347 -358 -413
-598 -31 -110 -31 -334 0 -444 51 -186 126 -319 259 -458 190 -199 411 -318
707 -382 148 -32 425 -32 584 0 281 57 506 174 693 361 146 146 228 287 281
479 31 110 31 334 0 444 -53 192 -135 333 -281 479 -214 214 -481 339 -811
379 -99 12 -265 11 -365 -1z m420 -339 c375 -43 585 -200 667 -499 31 -110 31
-372 0 -482 -34 -124 -85 -214 -166 -294 -151 -149 -371 -215 -724 -215 -365
0 -578 63 -732 219 -85 85 -127 160 -162 288 -18 65 -21 105 -21 243 0 138 3
178 21 243 35 128 77 203 162 288 117 118 271 184 485 208 113 12 364 13 470
1z"/>
<path d="M2130 6089 c-537 -54 -982 -219 -1300 -485 -279 -231 -440 -563 -440
-904 0 -114 22 -208 70 -309 175 -364 712 -445 1010 -152 284 280 221 805
-121 994 -71 39 -172 73 -251 83 l-52 7 39 34 c152 131 402 252 660 318 278
71 641 102 840 72 280 -43 517 -167 730 -381 223 -224 375 -519 436 -847 19
-99 22 -163 26 -496 l5 -383 -34 0 c-168 0 -690 -40 -923 -70 -839 -109 -1588
-370 -2041 -711 -410 -308 -662 -682 -754 -1116 -27 -125 -36 -340 -21 -456
90 -670 723 -1137 1712 -1262 176 -22 490 -30 624 -16 462 50 888 257 1201
583 132 137 258 316 324 457 l24 53 13 -84 c54 -371 276 -699 575 -849 259
-130 582 -130 873 1 170 76 368 243 474 398 93 138 167 330 190 496 7 46 11
267 11 547 l0 469 -184 0 -185 0 -4 -513 c-4 -555 -5 -568 -63 -713 -108 -274
-337 -388 -559 -279 -94 45 -177 146 -229 279 -64 159 -60 39 -66 1876 l-6
1675 -22 95 c-173 743 -761 1297 -1608 1515 -217 56 -377 76 -644 80 -129 2
-278 -1 -330 -6z m1650 -3511 c0 -872 -5 -932 -85 -1174 -164 -493 -584 -889
-1077 -1014 -483 -124 -925 -12 -1234 313 -150 158 -238 320 -281 517 -26 125
-24 358 5 507 92 465 384 863 820 1120 425 250 942 398 1602 458 80 7 169 13
198 14 l52 1 0 -742z"/>
</g>
</svg>
