<?xml version="1.0" standalone="no"?>
<!DOCTYPE svg PUBLIC "-//W3C//DTD SVG 20010904//EN"
 "http://www.w3.org/TR/2001/REC-SVG-20010904/DTD/svg10.dtd">
<svg version="1.0" xmlns="http://www.w3.org/2000/svg"
 width="632.000000pt" height="1209.000000pt" viewBox="0 0 632.000000 1209.000000"
 preserveAspectRatio="xMidYMid meet">
<metadata>
Created by potrace 1.16, written by Peter Selinger 2001-2019
</metadata>
<g transform="translate(0.000000,1209.000000) scale(0.100000,-0.100000)"
fill="#000000" stroke="none">
<path d="M1205 12073 c-284 -60 -524 -290 -595 -569 -27 -106 -27 -282 0 -388
72 -283 313 -511 602 -570 399 -82 804 172 909 571 28 108 28 278 0 386 -105
400 -516 656 -916 570z"/>
<path d="M5380 12075 c-248 -53 -443 -205 -551 -430 -59 -122 -74 -190 -74
-335 0 -145 15 -213 74 -335 78 -164 194 -281 356 -361 129 -63 196 -79 345
-79 149 0 216 16 345 79 203 101 352 283 412 506 24 89 24 290 0 380 -25 94
-97 235 -160 311 -95 114 -254 215 -402 255 -83 22 -264 27 -345 9z"/>
<path d="M1055 8874 c-533 -40 -978 -73 -987 -73 -17 -1 -18 -20 -18 -259 l0
-259 217 -6 c559 -16 715 -96 780 -399 17 -78 18 -199 18 -2158 l0 -2075 -24
-59 c-33 -84 -92 -139 -173 -164 -126 -39 -374 -61 -690 -62 l-178 0 0 -261 0
-261 92 6 c604 41 2272 41 2876 0 l92 -6 0 261 0 261 -162 0 c-278 0 -497 21
-618 58 -71 22 -129 79 -161 158 l-24 59 -3 2658 -2 2657 -33 -1 c-17 -1 -468
-34 -1002 -75z"/>
<path d="M5195 8874 c-577 -40 -1058 -73 -1067 -73 -17 -1 -18 -20 -18 -259
l0 -259 248 -6 c652 -16 834 -97 910 -404 15 -63 17 -294 20 -2968 3 -2950 2
-3079 -34 -3325 -36 -249 -99 -475 -180 -649 -123 -264 -306 -440 -514 -496
-169 -46 -465 -22 -714 56 l-98 32 64 34 c206 108 330 307 345 550 26 418
-267 733 -682 733 -350 0 -621 -226 -675 -563 -16 -99 -8 -255 20 -362 42
-165 170 -380 293 -491 296 -268 734 -424 1195 -424 693 0 1338 374 1698 986
135 229 216 451 277 754 l21 105 3 3553 3 3552 -32 -1 c-18 -1 -505 -34 -1083
-75z"/>
</g>
</svg>
