<?xml version="1.0" standalone="no"?>
<!DOCTYPE svg PUBLIC "-//W3C//DTD SVG 20010904//EN"
 "http://www.w3.org/TR/2001/REC-SVG-20010904/DTD/svg10.dtd">
<svg version="1.0" xmlns="http://www.w3.org/2000/svg"
 width="479.000000pt" height="937.000000pt" viewBox="0 0 479.000000 937.000000"
 preserveAspectRatio="xMidYMid meet">
<metadata>
Created by potrace 1.16, written by Peter Selinger 2001-2019
</metadata>
<g transform="translate(0.000000,937.000000) scale(0.100000,-0.100000)"
fill="#000000" stroke="none">
<path d="M1915 9355 c-710 -82 -1331 -428 -1651 -920 -162 -250 -250 -522
-261 -810 -5 -121 -3 -151 15 -223 32 -126 76 -206 157 -287 247 -248 663
-248 910 0 186 185 229 492 106 740 -52 103 -103 162 -197 224 -108 73 -210
103 -347 105 -85 1 -106 4 -102 14 18 47 127 184 225 283 395 397 1016 595
1685 539 405 -35 682 -139 884 -334 218 -210 291 -473 291 -1052 0 -295 -28
-498 -95 -701 -65 -195 -147 -327 -315 -508 -214 -229 -450 -549 -592 -800
-326 -576 -530 -1247 -588 -1930 -5 -66 -10 -340 -10 -608 0 -535 -1 -531 60
-562 20 -10 59 -15 123 -15 81 0 99 3 128 23 19 13 39 38 46 57 8 25 12 160
12 470 1 530 14 672 91 980 125 497 391 995 760 1425 194 225 459 471 697 646
54 40 141 104 193 143 318 238 528 579 612 998 33 164 33 453 0 617 -46 226
-139 448 -265 636 -78 115 -272 309 -397 398 -108 76 -388 219 -531 271 -207
76 -511 142 -789 171 -206 22 -702 28 -855 10z"/>
<path d="M2065 1426 c-155 -37 -253 -92 -365 -205 -98 -99 -157 -202 -190
-335 -41 -162 -19 -333 62 -496 33 -66 61 -104 128 -171 94 -95 175 -146 298
-187 67 -23 94 -26 212 -26 118 0 145 3 212 26 123 41 204 92 298 187 98 99
157 202 190 335 41 162 19 333 -62 496 -33 66 -61 104 -128 171 -95 96 -177
147 -298 186 -96 31 -266 40 -357 19z"/>
</g>
</svg>
