<?xml version="1.0" standalone="no"?>
<!DOCTYPE svg PUBLIC "-//W3C//DTD SVG 20010904//EN"
 "http://www.w3.org/TR/2001/REC-SVG-20010904/DTD/svg10.dtd">
<svg version="1.0" xmlns="http://www.w3.org/2000/svg"
 width="1121.000000pt" height="907.000000pt" viewBox="0 0 1121.000000 907.000000"
 preserveAspectRatio="xMidYMid meet">
<metadata>
Created by potrace 1.16, written by Peter Selinger 2001-2019
</metadata>
<g transform="translate(0.000000,907.000000) scale(0.100000,-0.100000)"
fill="#000000" stroke="none">
<path d="M0 8847 l0 -224 343 -6 c619 -11 822 -45 915 -152 45 -50 78 -120 92
-190 8 -44 10 -988 8 -3605 l-3 -3545 -23 -70 c-43 -128 -90 -204 -182 -295
-66 -66 -105 -95 -175 -131 -220 -114 -437 -162 -797 -175 l-178 -7 0 -225 0
-224 102 6 c645 39 2281 39 2926 0 l102 -6 0 224 0 225 -177 7 c-361 13 -578
61 -798 175 -70 36 -109 65 -175 131 -92 91 -139 167 -182 295 l-23 70 -2
3705 -2 3705 23 -60 c13 -33 742 -1923 1621 -4200 878 -2277 1609 -4157 1623
-4178 14 -21 46 -50 71 -65 39 -23 58 -27 121 -27 63 0 82 4 121 27 25 15 57
44 71 65 14 21 763 1949 1665 4285 l1638 4247 3 -3887 c2 -2865 0 -3903 -9
-3947 -13 -70 -46 -140 -91 -190 -93 -107 -296 -141 -915 -152 l-343 -6 0
-225 0 -224 123 6 c759 39 2825 39 3585 0 l122 -6 0 224 0 225 -342 6 c-620
11 -823 45 -916 152 -42 47 -77 118 -91 183 -16 76 -16 7418 0 7494 14 65 49
136 91 183 93 107 296 141 916 152 l342 6 0 224 0 223 -1273 -2 -1272 -3 -46
-27 c-25 -15 -57 -44 -71 -65 -14 -21 -680 -1733 -1479 -3805 -800 -2073
-1456 -3768 -1459 -3768 -3 0 -659 1695 -1459 3768 -799 2072 -1465 3784
-1479 3805 -14 21 -46 50 -71 65 l-46 27 -1272 3 -1273 2 0 -223z"/>
</g>
</svg>
