<?xml version="1.0" standalone="no"?>
<!DOCTYPE svg PUBLIC "-//W3C//DTD SVG 20010904//EN"
 "http://www.w3.org/TR/2001/REC-SVG-20010904/DTD/svg10.dtd">
<svg version="1.0" xmlns="http://www.w3.org/2000/svg"
 width="1006.000000pt" height="1195.000000pt" viewBox="0 0 1006.000000 1195.000000"
 preserveAspectRatio="xMidYMid meet">
<metadata>
Created by potrace 1.16, written by Peter Selinger 2001-2019
</metadata>
<g transform="translate(0.000000,1195.000000) scale(0.100000,-0.100000)"
fill="#000000" stroke="none">
<path d="M6505 11931 c-33 -10 -80 -28 -105 -41 -44 -23 -2017 -1255 -2034
-1270 -4 -5 33 -98 83 -207 81 -177 93 -198 114 -196 44 3 2252 685 2312 714
177 86 272 226 282 414 22 381 -316 684 -652 586z"/>
<path d="M0 9191 l0 -261 208 0 c224 0 536 -14 672 -30 142 -17 231 -40 320
-82 70 -34 100 -56 175 -132 l90 -91 1458 -2408 1457 -2407 0 -1453 c0 -1612
4 -1509 -66 -1614 -99 -146 -264 -178 -981 -190 l-373 -6 0 -260 0 -260 128 7
c817 41 3057 41 3875 0 l127 -7 0 262 0 261 -232 0 c-513 1 -898 34 -1002 87
-55 28 -123 102 -152 166 l-29 62 -3 1471 -2 1471 1340 2214 c738 1218 1366
2246 1396 2286 80 104 237 251 351 326 296 198 668 303 1137 323 l156 7 0 260
0 260 -77 -7 c-513 -41 -2194 -41 -2860 0 l-103 6 0 -261 0 -261 48 0 c132 0
341 -44 435 -91 132 -67 230 -167 269 -275 38 -109 24 -264 -34 -378 -29 -57
-2228 -3688 -2243 -3704 -10 -11 -247 375 -1250 2030 -1238 2041 -1239 2043
-1243 2104 -14 203 205 295 736 311 l212 6 0 260 0 260 -127 -7 c-824 -41
-3009 -41 -3705 0 l-108 7 0 -262z"/>
</g>
</svg>
