<?xml version="1.0" standalone="no"?>
<!DOCTYPE svg PUBLIC "-//W3C//DTD SVG 20010904//EN"
 "http://www.w3.org/TR/2001/REC-SVG-20010904/DTD/svg10.dtd">
<svg version="1.0" xmlns="http://www.w3.org/2000/svg"
 width="615.000000pt" height="142.000000pt" viewBox="0 0 615.000000 142.000000"
 preserveAspectRatio="xMidYMid meet">
<metadata>
Created by potrace 1.16, written by Peter Selinger 2001-2019
</metadata>
<g transform="translate(0.000000,142.000000) scale(0.100000,-0.100000)"
fill="#000000" stroke="none">
<path d="M1485 1414 c-16 -2 -66 -9 -110 -15 -299 -39 -562 -163 -768 -360
-64 -62 -611 -709 -604 -715 1 -1 88 -74 194 -161 l191 -160 104 102 c204 200
432 315 735 370 121 22 421 31 579 16 303 -28 525 -72 1154 -226 673 -165 862
-205 1145 -241 172 -22 539 -25 660 -6 322 53 563 167 768 363 64 62 611 709
604 715 -1 1 -88 74 -194 161 l-191 160 -104 -102 c-204 -200 -432 -315 -735
-370 -121 -22 -421 -31 -579 -16 -303 28 -525 72 -1154 226 -667 164 -867 206
-1140 241 -119 15 -491 27 -555 18z"/>
</g>
</svg>
