<?xml version="1.0" standalone="no"?>
<!DOCTYPE svg PUBLIC "-//W3C//DTD SVG 20010904//EN"
 "http://www.w3.org/TR/2001/REC-SVG-20010904/DTD/svg10.dtd">
<svg version="1.0" xmlns="http://www.w3.org/2000/svg"
 width="910.000000pt" height="1214.000000pt" viewBox="0 0 910.000000 1214.000000"
 preserveAspectRatio="xMidYMid meet">
<metadata>
Created by potrace 1.16, written by Peter Selinger 2001-2019
</metadata>
<g transform="translate(0.000000,1214.000000) scale(0.100000,-0.100000)"
fill="#000000" stroke="none">
<path d="M4385 12129 c-174 -25 -395 -118 -546 -231 -279 -206 -476 -527 -556
-907 -24 -113 -27 -147 -27 -331 0 -184 3 -218 27 -331 97 -457 359 -823 726
-1013 51 -26 116 -56 144 -66 33 -11 51 -23 49 -31 -2 -8 -622 -1812 -1378
-4009 -897 -2609 -1390 -4027 -1419 -4087 -205 -417 -625 -641 -1258 -669
l-147 -7 0 -225 0 -224 83 6 c521 39 2117 39 2730 0 l97 -7 0 225 0 225 -104
7 c-273 17 -482 86 -653 215 -156 117 -237 271 -236 446 1 78 8 101 273 870
150 435 288 836 307 893 l35 102 1626 -2 1626 -3 362 -1050 c384 -1113 383
-1109 350 -1190 -19 -45 -90 -121 -140 -150 -142 -81 -460 -134 -813 -135
l-143 0 0 -226 0 -227 128 7 c793 39 2784 39 3455 0 l107 -7 0 225 0 225 -302
6 c-574 12 -748 47 -878 177 -78 78 -122 161 -192 364 -236 681 -2827 8214
-2830 8225 -2 8 16 20 49 31 154 54 344 179 473 310 195 199 333 467 397 769
24 113 27 147 27 331 0 184 -3 218 -27 331 -48 226 -135 430 -260 605 -274
386 -731 595 -1162 533z m429 -363 c354 -91 556 -332 632 -751 26 -144 26
-566 0 -710 -76 -419 -275 -657 -632 -752 -89 -24 -117 -26 -269 -26 -152 0
-180 2 -269 26 -357 95 -556 333 -632 752 -26 144 -26 566 0 710 83 459 322
708 742 775 106 16 317 5 428 -24z m84 -6216 l728 -2115 -1465 -3 c-805 -1
-1466 0 -1468 2 -2 2 326 962 729 2134 493 1432 736 2125 741 2114 4 -9 335
-969 735 -2132z"/>
</g>
</svg>
