<?xml version="1.0" standalone="no"?>
<!DOCTYPE svg PUBLIC "-//W3C//DTD SVG 20010904//EN"
 "http://www.w3.org/TR/2001/REC-SVG-20010904/DTD/svg10.dtd">
<svg version="1.0" xmlns="http://www.w3.org/2000/svg"
 width="307.000000pt" height="669.000000pt" viewBox="0 0 307.000000 669.000000"
 preserveAspectRatio="xMidYMid meet">
<metadata>
Created by potrace 1.16, written by Peter Selinger 2001-2019
</metadata>
<g transform="translate(0.000000,669.000000) scale(0.100000,-0.100000)"
fill="#000000" stroke="none">
<path d="M73 6675 c-41 -17 -73 -69 -73 -117 0 -42 45 -175 141 -415 398 -997
1005 -1953 1716 -2703 l90 -95 -90 -95 c-452 -476 -893 -1080 -1235 -1691
-212 -379 -458 -919 -586 -1288 -41 -117 -44 -162 -16 -209 26 -43 74 -62 153
-62 103 0 112 9 241 265 224 441 452 808 746 1200 474 630 1066 1212 1690
1660 85 61 164 121 177 134 42 44 42 128 -1 173 -12 13 -91 73 -176 133 -624
448 -1216 1030 -1690 1660 -294 392 -522 759 -746 1200 -130 257 -137 265
-243 265 -36 -1 -81 -7 -98 -15z"/>
</g>
</svg>
