<?xml version="1.0" standalone="no"?>
<!DOCTYPE svg PUBLIC "-//W3C//DTD SVG 20010904//EN"
 "http://www.w3.org/TR/2001/REC-SVG-20010904/DTD/svg10.dtd">
<svg version="1.0" xmlns="http://www.w3.org/2000/svg"
 width="947.000000pt" height="611.000000pt" viewBox="0 0 947.000000 611.000000"
 preserveAspectRatio="xMidYMid meet">
<metadata>
Created by potrace 1.16, written by Peter Selinger 2001-2019
</metadata>
<g transform="translate(0.000000,611.000000) scale(0.100000,-0.100000)"
fill="#000000" stroke="none">
<path d="M0 5851 l0 -261 143 0 c288 0 509 -27 618 -76 75 -34 152 -114 197
-207 18 -36 438 -1215 933 -2619 495 -1404 911 -2570 924 -2590 14 -20 46 -50
72 -65 44 -26 58 -28 166 -32 143 -4 191 8 251 61 35 30 51 56 74 116 16 42
326 917 688 1945 362 1027 661 1867 664 1867 3 0 302 -840 664 -1867 362
-1028 672 -1903 688 -1945 23 -60 39 -86 74 -116 60 -53 108 -65 251 -61 108
4 122 6 166 32 26 15 58 45 72 65 13 20 400 1103 860 2407 459 1304 851 2403
870 2443 188 397 514 608 987 639 l98 6 0 260 0 259 -53 -6 c-360 -41 -1679
-41 -2249 0 l-88 7 0 -262 0 -261 43 0 c67 0 226 -27 297 -50 212 -70 371
-214 431 -390 18 -51 23 -87 23 -170 l0 -105 -91 -255 c-49 -140 -328 -930
-619 -1754 -490 -1390 -529 -1497 -540 -1470 -36 89 -1344 3808 -1349 3838
-10 49 11 128 46 176 78 107 273 166 592 177 l167 6 0 260 0 259 -92 -6 c-610
-41 -2120 -41 -2605 0 l-73 6 0 -261 0 -261 143 0 c179 0 388 -15 492 -36 158
-32 247 -97 319 -234 21 -40 83 -199 138 -354 l99 -281 -552 -1567 c-304 -863
-555 -1568 -558 -1568 -4 0 -296 823 -651 1828 -605 1713 -645 1831 -645 1892
2 201 205 303 633 317 l172 6 0 260 0 260 -97 -7 c-632 -41 -2233 -41 -2720 0
l-73 6 0 -261z"/>
</g>
</svg>
