<?xml version="1.0" standalone="no"?>
<!DOCTYPE svg PUBLIC "-//W3C//DTD SVG 20010904//EN"
 "http://www.w3.org/TR/2001/REC-SVG-20010904/DTD/svg10.dtd">
<svg version="1.0" xmlns="http://www.w3.org/2000/svg"
 width="468.000000pt" height="425.000000pt" viewBox="0 0 468.000000 425.000000"
 preserveAspectRatio="xMidYMid meet">
<metadata>
Created by potrace 1.16, written by Peter Selinger 2001-2019
</metadata>
<g transform="translate(0.000000,425.000000) scale(0.100000,-0.100000)"
fill="#000000" stroke="none">
<path d="M1243 4234 c-42 -21 -327 -312 -427 -437 -182 -228 -316 -442 -450
-718 -258 -531 -381 -1101 -363 -1674 17 -507 150 -902 391 -1154 170 -178
377 -260 620 -248 196 10 361 76 490 197 327 307 327 853 0 1160 -81 76 -193
138 -310 172 -114 33 -334 33 -448 0 -103 -30 -223 -93 -288 -151 l-51 -46 6
215 c18 665 195 1223 558 1766 108 161 221 297 395 474 212 216 215 231 86
363 -98 100 -139 115 -209 81z"/>
<path d="M4163 4234 c-42 -21 -327 -312 -427 -437 -182 -228 -316 -442 -450
-718 -258 -531 -381 -1101 -363 -1674 17 -507 150 -902 391 -1154 170 -178
377 -260 620 -248 196 10 361 76 490 197 327 307 327 853 0 1160 -81 76 -193
138 -310 172 -114 33 -334 33 -448 0 -103 -30 -223 -93 -288 -151 l-51 -46 6
215 c18 665 195 1223 558 1766 108 161 221 297 395 474 212 216 215 231 86
363 -98 100 -139 115 -209 81z"/>
</g>
</svg>
