<?xml version="1.0" standalone="no"?>
<!DOCTYPE svg PUBLIC "-//W3C//DTD SVG 20010904//EN"
 "http://www.w3.org/TR/2001/REC-SVG-20010904/DTD/svg10.dtd">
<svg version="1.0" xmlns="http://www.w3.org/2000/svg"
 width="478.000000pt" height="976.000000pt" viewBox="0 0 478.000000 976.000000"
 preserveAspectRatio="xMidYMid meet">
<metadata>
Created by potrace 1.16, written by Peter Selinger 2001-2019
</metadata>
<g transform="translate(0.000000,976.000000) scale(0.100000,-0.100000)"
fill="#000000" stroke="none">
<path d="M3380 9753 c-547 -43 -1113 -266 -1505 -595 -117 -97 -294 -281 -374
-386 -228 -301 -379 -673 -421 -1037 -6 -55 -10 -421 -10 -932 l0 -843 -495 0
-495 0 0 -310 0 -310 495 0 495 0 -2 -2247 -3 -2248 -31 -55 c-74 -131 -181
-156 -726 -167 l-308 -6 0 -310 0 -310 98 7 c631 41 2594 41 3320 0 l112 -7 0
310 0 310 -382 6 c-712 12 -838 37 -926 187 l-27 45 -3 2242 -2 2243 740 0
740 0 0 310 0 310 -760 0 -761 0 4 903 c3 982 3 970 63 1217 145 589 530 1030
1002 1147 71 18 340 25 375 11 16 -7 12 -14 -32 -57 -139 -136 -210 -330 -198
-546 3 -55 13 -127 22 -160 62 -233 227 -399 475 -477 108 -33 302 -33 410 0
248 78 412 243 475 477 28 103 30 273 6 393 -95 457 -466 798 -954 877 -84 14
-293 18 -417 8z"/>
</g>
</svg>
