<?xml version="1.0" standalone="no"?>
<!DOCTYPE svg PUBLIC "-//W3C//DTD SVG 20010904//EN"
 "http://www.w3.org/TR/2001/REC-SVG-20010904/DTD/svg10.dtd">
<svg version="1.0" xmlns="http://www.w3.org/2000/svg"
 width="585.000000pt" height="952.000000pt" viewBox="0 0 585.000000 952.000000"
 preserveAspectRatio="xMidYMid meet">
<metadata>
Created by potrace 1.16, written by Peter Selinger 2001-2019
</metadata>
<g transform="translate(0.000000,952.000000) scale(0.100000,-0.100000)"
fill="#000000" stroke="none">
<path d="M2830 9513 c-269 -26 -416 -55 -610 -119 -517 -171 -868 -501 -1055
-993 -40 -105 -81 -260 -108 -406 -19 -105 -20 -156 -24 -1117 l-4 -1008 -515
0 -514 0 0 -225 0 -225 515 0 515 0 0 -2227 c0 -2384 1 -2303 -48 -2399 -27
-52 -77 -99 -133 -123 -96 -43 -365 -71 -681 -71 l-168 0 0 -226 0 -226 92 6
c212 14 732 27 1153 29 422 2 548 -4 677 -29 l28 -6 0 3834 c0 2473 4 3884 10
3978 30 433 130 716 324 918 259 272 683 365 1167 257 320 -71 574 -242 740
-497 137 -213 209 -455 240 -803 13 -156 7 -705 -11 -885 -43 -445 -143 -781
-248 -834 -15 -7 -77 -16 -143 -19 -410 -21 -774 -198 -993 -481 -82 -107
-117 -163 -170 -276 -115 -248 -176 -559 -176 -900 0 -317 66 -606 201 -875
152 -306 379 -536 662 -675 151 -73 227 -95 537 -155 279 -54 345 -72 450
-125 396 -199 631 -655 607 -1176 -19 -386 -121 -654 -324 -845 -119 -112
-259 -182 -443 -222 -131 -28 -371 -30 -485 -3 -372 86 -584 392 -710 1021
-35 173 -80 466 -111 720 -18 155 -30 187 -77 215 -44 27 -186 28 -237 2 -75
-37 -70 39 -70 -1155 0 -1179 -4 -1107 63 -1147 40 -25 135 -27 180 -5 18 9
97 86 177 173 l145 158 82 -71 c236 -203 495 -285 863 -272 476 17 869 174
1155 463 240 242 395 585 462 1024 24 163 25 564 0 705 -60 341 -181 631 -372
884 -213 283 -509 495 -836 599 -52 17 -221 56 -375 86 -153 30 -299 62 -323
70 -115 41 -256 155 -333 270 -141 206 -209 486 -195 790 29 572 260 877 686
902 112 7 174 21 241 54 194 98 336 356 423 775 52 246 77 545 77 915 0 483
-59 784 -215 1105 -80 166 -164 284 -290 410 -253 253 -611 412 -1025 455 -88
9 -370 11 -450 3z"/>
</g>
</svg>
