<?xml version="1.0" standalone="no"?>
<!DOCTYPE svg PUBLIC "-//W3C//DTD SVG 20010904//EN"
 "http://www.w3.org/TR/2001/REC-SVG-20010904/DTD/svg10.dtd">
<svg version="1.0" xmlns="http://www.w3.org/2000/svg"
 width="466.000000pt" height="1029.000000pt" viewBox="0 0 466.000000 1029.000000"
 preserveAspectRatio="xMidYMid meet">
<metadata>
Created by potrace 1.16, written by Peter Selinger 2001-2019
</metadata>
<g transform="translate(0.000000,1029.000000) scale(0.100000,-0.100000)"
fill="#000000" stroke="none">
<path d="M3440 10271 c-304 -67 -514 -263 -606 -566 -25 -81 -28 -105 -28
-245 0 -140 3 -164 28 -245 86 -285 287 -483 562 -556 113 -30 284 -36 399
-14 102 19 222 62 278 101 21 14 41 23 44 21 11 -11 -40 -239 -82 -363 -154
-465 -459 -849 -877 -1106 -105 -64 -128 -92 -128 -153 0 -53 18 -80 127 -187
136 -135 166 -143 276 -78 240 140 506 379 689 617 352 459 547 1055 525 1602
-23 571 -327 1025 -774 1157 -121 36 -310 42 -433 15z"/>
<path d="M1080 9535 c-575 -41 -1053 -74 -1062 -74 -17 -1 -18 -23 -18 -311
l0 -310 138 0 c186 0 396 -17 517 -41 237 -48 342 -144 393 -361 16 -68 17
-319 17 -3833 l0 -3760 -31 -55 c-74 -131 -179 -156 -727 -167 l-307 -6 0
-310 0 -309 103 6 c670 41 2384 41 3055 0 l102 -6 0 309 0 310 -307 6 c-548
11 -653 36 -727 167 l-31 55 -3 4383 -2 4382 -33 -1 c-17 -1 -502 -34 -1077
-74z"/>
</g>
</svg>
