<?xml version="1.0" standalone="no"?>
<!DOCTYPE svg PUBLIC "-//W3C//DTD SVG 20010904//EN"
 "http://www.w3.org/TR/2001/REC-SVG-20010904/DTD/svg10.dtd">
<svg version="1.0" xmlns="http://www.w3.org/2000/svg"
 width="462.000000pt" height="137.000000pt" viewBox="0 0 462.000000 137.000000"
 preserveAspectRatio="xMidYMid meet">
<metadata>
Created by potrace 1.16, written by Peter Selinger 2001-2019
</metadata>
<g transform="translate(0.000000,137.000000) scale(0.100000,-0.100000)"
fill="#000000" stroke="none">
<path d="M1260 1355 c-194 -43 -379 -145 -575 -315 -106 -92 -174 -167 -444
-490 -118 -140 -220 -262 -227 -271 -12 -14 5 -31 143 -147 l157 -131 54 62
c330 374 695 561 1037 532 225 -19 384 -74 805 -279 184 -90 380 -182 435
-204 373 -150 666 -148 970 6 214 108 408 290 762 714 l231 276 -32 29 c-17
17 -86 76 -154 132 l-123 103 -110 -115 c-230 -242 -425 -374 -659 -444 -66
-20 -115 -26 -220 -30 -281 -10 -461 47 -1025 330 -240 120 -402 187 -542 224
-123 32 -376 42 -483 18z"/>
</g>
</svg>
