<?xml version="1.0" standalone="no"?>
<!DOCTYPE svg PUBLIC "-//W3C//DTD SVG 20010904//EN"
 "http://www.w3.org/TR/2001/REC-SVG-20010904/DTD/svg10.dtd">
<svg version="1.0" xmlns="http://www.w3.org/2000/svg"
 width="922.000000pt" height="1230.000000pt" viewBox="0 0 922.000000 1230.000000"
 preserveAspectRatio="xMidYMid meet">
<metadata>
Created by potrace 1.16, written by Peter Selinger 2001-2019
</metadata>
<g transform="translate(0.000000,1230.000000) scale(0.100000,-0.100000)"
fill="#000000" stroke="none">
<path d="M3110 12285 c-293 -62 -520 -273 -602 -561 -32 -112 -32 -296 0 -408
44 -155 136 -297 258 -398 70 -58 213 -131 304 -155 91 -24 292 -24 380 0 90
24 234 96 302 151 119 95 222 253 264 406 26 91 26 309 0 400 -42 153 -145
311 -264 406 -67 54 -212 127 -297 150 -82 22 -263 27 -345 9z"/>
<path d="M5800 12286 c-251 -58 -445 -207 -549 -420 -62 -127 -75 -190 -75
-346 0 -156 13 -219 75 -346 75 -154 194 -272 354 -350 132 -64 197 -79 345
-79 149 1 217 16 345 79 201 100 344 273 407 492 32 112 32 296 0 408 -44 155
-136 297 -258 398 -68 57 -212 131 -299 154 -80 21 -274 27 -345 10z"/>
<path d="M4295 10059 c-1185 -90 -2316 -695 -3106 -1661 -528 -646 -893 -1413
-1068 -2243 -165 -781 -159 -1604 15 -2365 274 -1190 934 -2221 1869 -2915
633 -472 1357 -758 2153 -852 206 -24 688 -24 894 0 1024 121 1933 563 2668
1297 672 671 1134 1513 1354 2470 174 761 180 1584 15 2365 -275 1307 -1024
2451 -2064 3154 -328 221 -609 366 -968 500 -548 204 -1183 294 -1762 250z
m658 -464 c167 -26 286 -55 438 -105 658 -219 1229 -696 1629 -1360 311 -517
519 -1157 609 -1880 72 -573 80 -1309 20 -1955 -93 -1016 -352 -1827 -797
-2499 -418 -632 -1024 -1087 -1667 -1251 -217 -56 -332 -69 -580 -69 -248 0
-363 13 -580 69 -173 44 -299 92 -480 180 -276 135 -527 317 -765 555 -611
609 -1016 1513 -1174 2620 -103 719 -113 1649 -25 2350 120 958 445 1767 945
2349 364 424 806 729 1293 891 193 64 340 94 601 124 76 9 440 -4 533 -19z"/>
</g>
</svg>
