<?xml version="1.0" standalone="no"?>
<!DOCTYPE svg PUBLIC "-//W3C//DTD SVG 20010904//EN"
 "http://www.w3.org/TR/2001/REC-SVG-20010904/DTD/svg10.dtd">
<svg version="1.0" xmlns="http://www.w3.org/2000/svg"
 width="172.000000pt" height="865.000000pt" viewBox="0 0 172.000000 865.000000"
 preserveAspectRatio="xMidYMid meet">
<metadata>
Created by potrace 1.16, written by Peter Selinger 2001-2019
</metadata>
<g transform="translate(0.000000,865.000000) scale(0.100000,-0.100000)"
fill="#000000" stroke="none">
<path d="M594 8626 c-295 -78 -506 -295 -574 -591 -19 -78 -22 -114 -17 -198
6 -122 24 -195 76 -302 78 -164 194 -281 356 -361 130 -64 196 -79 345 -79
149 0 215 15 345 79 162 80 278 197 356 361 59 123 74 190 74 335 0 149 -15
215 -79 345 -80 162 -197 278 -361 356 -112 54 -182 71 -315 75 -98 4 -128 1
-206 -20z"/>
<path d="M650 4243 c-385 -65 -650 -380 -650 -773 0 -357 220 -655 556 -752
114 -33 334 -33 447 0 89 25 180 69 250 118 l47 34 0 -114 c0 -499 -119 -1009
-340 -1461 -164 -336 -354 -604 -626 -885 -119 -124 -135 -152 -114 -214 13
-41 156 -182 193 -191 66 -17 96 0 217 123 584 593 949 1352 1055 2192 23 178
30 516 16 680 -34 379 -129 684 -282 906 -118 170 -292 288 -487 329 -62 14
-223 18 -282 8z"/>
</g>
</svg>
