<?xml version="1.0" standalone="no"?>
<!DOCTYPE svg PUBLIC "-//W3C//DTD SVG 20010904//EN"
 "http://www.w3.org/TR/2001/REC-SVG-20010904/DTD/svg10.dtd">
<svg version="1.0" xmlns="http://www.w3.org/2000/svg"
 width="977.000000pt" height="1018.000000pt" viewBox="0 0 977.000000 1018.000000"
 preserveAspectRatio="xMidYMid meet">
<metadata>
Created by potrace 1.16, written by Peter Selinger 2001-2019
</metadata>
<g transform="translate(0.000000,1018.000000) scale(0.100000,-0.100000)"
fill="#000000" stroke="none">
<path d="M5470 10169 c-985 -75 -1924 -487 -2587 -1133 l-133 -129 0 427 0
428 -37 -6 c-21 -3 -99 -11 -173 -18 -240 -23 -1829 -11 -2412 18 l-128 7 0
-260 0 -260 373 -6 c385 -7 544 -16 707 -43 150 -25 215 -60 274 -147 72 -107
66 262 66 -4012 0 -4274 6 -3905 -66 -4012 -59 -87 -124 -122 -274 -147 -163
-27 -322 -36 -707 -43 l-373 -6 0 -260 0 -260 128 7 c825 41 3130 41 3980 0
l132 -7 0 262 0 261 -247 0 c-443 0 -835 26 -981 65 -107 28 -183 92 -231 195
l-26 55 -3 3496 -2 3497 99 148 c140 210 211 295 405 489 251 250 505 431 811
580 803 390 1746 406 2565 43 353 -156 657 -372 945 -669 146 -151 230 -255
339 -419 268 -403 414 -793 493 -1310 16 -106 17 -291 21 -2450 3 -2430 2
-2477 -39 -2723 -90 -526 -368 -1000 -727 -1237 -238 -158 -453 -204 -777
-166 -380 44 -706 178 -987 405 -77 61 -231 221 -223 229 2 3 44 8 92 13 227
21 439 134 566 302 68 89 99 151 134 264 24 80 27 103 27 248 0 145 -3 168
-27 248 -35 113 -66 175 -134 264 -309 407 -997 407 -1306 0 -68 -89 -99 -150
-134 -264 -25 -82 -27 -100 -27 -273 0 -153 4 -203 23 -289 95 -446 326 -801
703 -1087 312 -235 714 -396 1153 -461 149 -22 556 -25 715 -5 944 117 1722
634 2091 1388 102 210 173 455 198 686 15 132 15 4624 1 4793 -58 668 -313
1296 -744 1832 -670 833 -1740 1369 -2901 1453 -160 11 -480 11 -635 -1z"/>
</g>
</svg>
