<?xml version="1.0" standalone="no"?>
<!DOCTYPE svg PUBLIC "-//W3C//DTD SVG 20010904//EN"
 "http://www.w3.org/TR/2001/REC-SVG-20010904/DTD/svg10.dtd">
<svg version="1.0" xmlns="http://www.w3.org/2000/svg"
 width="846.000000pt" height="796.000000pt" viewBox="0 0 846.000000 796.000000"
 preserveAspectRatio="xMidYMid meet">
<metadata>
Created by potrace 1.16, written by Peter Selinger 2001-2019
</metadata>
<g transform="translate(0.000000,796.000000) scale(0.100000,-0.100000)"
fill="#000000" stroke="none">
<path d="M175 7947 c-136 -54 -207 -191 -163 -318 27 -80 62 -114 175 -172 60
-29 1747 -823 3750 -1762 2004 -940 3643 -1711 3643 -1715 0 -4 -1639 -775
-3643 -1715 -2003 -939 -3690 -1733 -3750 -1762 -115 -59 -150 -93 -177 -177
-26 -80 2 -187 65 -251 51 -51 101 -70 180 -70 l70 0 4000 1877 c2439 1144
4015 1889 4038 1908 59 50 82 102 82 190 0 88 -23 140 -82 190 -23 19 -1598
763 -4038 1908 -3780 1773 -4003 1876 -4060 1879 -33 1 -74 -3 -90 -10z"/>
</g>
</svg>
