<?xml version="1.0" standalone="no"?>
<!DOCTYPE svg PUBLIC "-//W3C//DTD SVG 20010904//EN"
 "http://www.w3.org/TR/2001/REC-SVG-20010904/DTD/svg10.dtd">
<svg version="1.0" xmlns="http://www.w3.org/2000/svg"
 width="590.000000pt" height="1270.000000pt" viewBox="0 0 590.000000 1270.000000"
 preserveAspectRatio="xMidYMid meet">
<metadata>
Created by potrace 1.16, written by Peter Selinger 2001-2019
</metadata>
<g transform="translate(0.000000,1270.000000) scale(0.100000,-0.100000)"
fill="#000000" stroke="none">
<path d="M1043 12585 c-46 -63 -83 -119 -83 -124 0 -11 1977 -1696 1990 -1696
13 0 1990 1685 1990 1696 0 7 -127 189 -166 237 -1 2 -409 -236 -906 -529
-496 -293 -910 -533 -918 -533 -8 0 -421 239 -917 532 -496 293 -904 532 -905
532 -2 -1 -40 -52 -85 -115z"/>
<path d="M2325 9659 c-49 -5 -150 -20 -224 -34 -744 -144 -1381 -598 -1759
-1255 -155 -271 -269 -602 -318 -925 -23 -150 -26 -540 -6 -685 140 -998 789
-1798 1720 -2121 64 -22 551 -148 1082 -279 531 -131 1001 -252 1045 -269 334
-129 636 -381 832 -696 369 -591 402 -1358 87 -1984 -100 -197 -181 -309 -349
-476 -160 -160 -272 -241 -455 -329 -294 -139 -536 -176 -955 -146 -912 67
-1602 381 -2073 945 -161 192 -320 471 -410 720 -101 278 -172 695 -172 1009
0 137 -40 176 -182 176 -100 0 -145 -19 -170 -70 -17 -33 -18 -130 -18 -1588
0 -1715 -5 -1591 63 -1632 40 -25 135 -27 183 -4 28 13 76 85 305 447 149 238
275 436 280 442 6 5 29 -10 62 -42 349 -339 841 -603 1377 -738 344 -87 603
-118 990 -119 292 -1 376 7 570 50 920 209 1661 927 1939 1878 88 299 116 505
115 846 0 291 -16 432 -74 675 -100 419 -293 817 -556 1145 -253 315 -617 590
-984 743 -184 77 -276 102 -1246 341 -572 141 -986 248 -1040 269 -230 89
-415 209 -589 383 -415 415 -586 997 -465 1582 87 421 355 816 717 1057 308
206 642 296 1038 282 728 -27 1298 -285 1725 -782 387 -450 623 -1056 724
-1850 12 -99 28 -190 35 -203 25 -46 68 -62 166 -62 72 0 97 4 122 20 68 41
63 -84 63 1635 0 1719 5 1594 -63 1635 -40 25 -135 27 -183 4 -28 -13 -77 -85
-310 -455 l-276 -438 -127 128 c-218 221 -412 361 -686 496 -392 194 -822 287
-1300 284 -88 -1 -200 -6 -250 -10z"/>
</g>
</svg>
