<?xml version="1.0" standalone="no"?>
<!DOCTYPE svg PUBLIC "-//W3C//DTD SVG 20010904//EN"
 "http://www.w3.org/TR/2001/REC-SVG-20010904/DTD/svg10.dtd">
<svg version="1.0" xmlns="http://www.w3.org/2000/svg"
 width="631.000000pt" height="927.000000pt" viewBox="0 0 631.000000 927.000000"
 preserveAspectRatio="xMidYMid meet">
<metadata>
Created by potrace 1.16, written by Peter Selinger 2001-2019
</metadata>
<g transform="translate(0.000000,927.000000) scale(0.100000,-0.100000)"
fill="#000000" stroke="none">
<path d="M1430 9255 c-297 -63 -525 -279 -606 -575 -25 -90 -25 -290 0 -380
43 -157 142 -313 259 -410 73 -60 215 -133 307 -157 91 -24 292 -24 380 0 90
24 234 96 302 151 119 95 222 253 264 406 26 91 26 309 0 400 -42 153 -145
311 -264 406 -67 54 -212 127 -297 150 -82 22 -263 27 -345 9z"/>
<path d="M4120 9256 c-251 -58 -445 -207 -549 -420 -62 -127 -75 -190 -75
-346 0 -99 4 -152 18 -200 42 -153 145 -311 264 -406 68 -55 212 -127 302
-151 88 -24 289 -24 380 0 92 24 234 97 307 157 117 97 216 253 259 410 25 90
25 290 0 380 -43 157 -142 313 -259 410 -71 59 -214 133 -302 156 -80 21 -274
27 -345 10z"/>
<path d="M2275 6334 c-587 -46 -1029 -173 -1357 -393 -347 -232 -534 -581
-515 -960 9 -191 74 -338 202 -460 131 -124 290 -185 480 -185 190 0 349 61
480 185 126 120 192 269 202 455 18 322 -151 583 -444 688 l-38 14 86 40 c183
86 451 154 739 188 208 25 556 25 670 1 253 -54 465 -167 657 -351 249 -237
397 -520 469 -896 12 -66 17 -172 21 -466 l5 -381 -169 -7 c-1022 -42 -1825
-214 -2498 -535 -277 -132 -490 -278 -689 -471 -249 -241 -407 -487 -499 -775
-59 -183 -71 -267 -71 -475 0 -169 2 -195 27 -295 46 -181 113 -326 220 -471
289 -393 854 -672 1537 -759 175 -22 490 -30 625 -16 410 44 792 193 1107 433
178 134 361 334 482 526 l60 94 17 -89 c44 -216 155 -435 303 -600 107 -119
292 -231 452 -275 107 -29 348 -32 474 -5 445 95 793 396 930 805 54 162 60
235 60 775 l0 487 -224 0 -225 0 -3 -533 c-4 -512 -5 -535 -26 -612 -52 -189
-142 -318 -260 -373 -48 -23 -71 -27 -142 -27 -71 0 -94 4 -142 27 -118 55
-207 183 -260 373 l-23 80 -5 1740 -6 1740 -22 99 c-178 777 -824 1371 -1727
1586 -225 54 -376 71 -655 75 -140 1 -277 1 -305 -1z m1653 -3721 c-4 -877 -4
-876 -63 -1072 -171 -572 -654 -1003 -1240 -1107 -139 -25 -399 -25 -515 -1
-301 64 -550 223 -727 463 -336 456 -267 1133 168 1651 377 448 1105 755 2009
847 203 21 223 22 303 24 l68 2 -3 -807z"/>
</g>
</svg>
