<?xml version="1.0" standalone="no"?>
<!DOCTYPE svg PUBLIC "-//W3C//DTD SVG 20010904//EN"
 "http://www.w3.org/TR/2001/REC-SVG-20010904/DTD/svg10.dtd">
<svg version="1.0" xmlns="http://www.w3.org/2000/svg"
 width="956.000000pt" height="945.000000pt" viewBox="0 0 956.000000 945.000000"
 preserveAspectRatio="xMidYMid meet">
<metadata>
Created by potrace 1.16, written by Peter Selinger 2001-2019
</metadata>
<g transform="translate(0.000000,945.000000) scale(0.100000,-0.100000)"
fill="#000000" stroke="none">
<path d="M0 9193 l0 -260 373 -6 c717 -12 882 -44 981 -190 72 -107 66 262 66
-4012 0 -4274 6 -3905 -66 -4012 -99 -146 -264 -178 -981 -190 l-373 -6 0
-260 0 -260 128 7 c825 41 3089 41 3915 0 l127 -7 0 260 0 260 -373 6 c-717
12 -882 44 -981 190 -71 106 -66 -46 -66 2049 l0 1888 2025 0 2025 0 0 -1888
c0 -2095 5 -1943 -66 -2049 -99 -146 -264 -178 -981 -190 l-373 -6 0 -260 0
-260 128 7 c825 41 3089 41 3915 0 l127 -7 0 260 0 260 -372 6 c-718 12 -883
44 -982 190 -72 107 -66 -262 -66 4012 0 4274 -6 3905 66 4012 99 146 264 178
981 190 l373 6 0 260 0 260 -127 -7 c-826 -41 -3090 -41 -3915 0 l-128 7 0
-260 0 -260 373 -6 c717 -12 882 -44 981 -190 71 -105 66 26 66 -1864 l0
-1703 -2025 0 -2025 0 0 1703 c0 1890 -5 1759 66 1864 99 146 264 178 982 190
l372 6 0 260 0 260 -127 -7 c-826 -41 -3090 -41 -3915 0 l-128 7 0 -260z"/>
</g>
</svg>
