<?xml version="1.0" standalone="no"?>
<!DOCTYPE svg PUBLIC "-//W3C//DTD SVG 20010904//EN"
 "http://www.w3.org/TR/2001/REC-SVG-20010904/DTD/svg10.dtd">
<svg version="1.0" xmlns="http://www.w3.org/2000/svg"
 width="1372.000000pt" height="976.000000pt" viewBox="0 0 1372.000000 976.000000"
 preserveAspectRatio="xMidYMid meet">
<metadata>
Created by potrace 1.16, written by Peter Selinger 2001-2019
</metadata>
<g transform="translate(0.000000,976.000000) scale(0.100000,-0.100000)"
fill="#000000" stroke="none">
<path d="M0 9451 l0 -311 208 0 c411 0 717 -28 819 -75 66 -30 142 -100 175
-162 14 -27 655 -2014 1424 -4418 l1399 -4370 45 -47 c29 -29 59 -50 85 -57
51 -14 338 -14 389 0 51 14 121 80 140 132 9 23 495 1541 1081 3372 586 1832
1071 3347 1078 3367 12 37 44 -63 1096 -3350 596 -1863 1090 -3399 1097 -3413
20 -40 88 -97 131 -108 50 -14 337 -14 388 0 26 7 56 28 85 57 l45 47 1074
3355 c591 1845 1195 3733 1343 4195 157 489 284 869 304 910 177 351 554 535
1152 561 l152 7 0 310 0 310 -77 -7 c-515 -41 -2233 -41 -2935 0 l-108 7 0
-312 0 -311 63 0 c105 0 286 -20 413 -45 266 -54 479 -157 606 -294 72 -78
109 -152 115 -235 6 -63 -9 -109 -988 -3169 -547 -1708 -997 -3102 -1000
-3099 -4 4 -477 1479 -1053 3277 -661 2067 -1046 3284 -1046 3309 0 33 7 46
43 81 56 53 143 88 299 119 180 36 284 46 570 53 l258 6 0 310 0 310 -127 -7
c-823 -41 -2999 -41 -3635 0 l-98 7 0 -312 0 -311 208 0 c411 -1 718 -28 818
-74 63 -29 136 -94 169 -150 24 -42 355 -1059 355 -1093 1 -32 -1764 -5533
-1771 -5520 -19 33 -2099 6549 -2099 6574 0 156 318 246 918 260 l252 6 0 310
0 310 -128 -7 c-826 -41 -2926 -41 -3624 0 l-108 7 0 -312z"/>
</g>
</svg>
