<?xml version="1.0" standalone="no"?>
<!DOCTYPE svg PUBLIC "-//W3C//DTD SVG 20010904//EN"
 "http://www.w3.org/TR/2001/REC-SVG-20010904/DTD/svg10.dtd">
<svg version="1.0" xmlns="http://www.w3.org/2000/svg"
 width="922.000000pt" height="1230.000000pt" viewBox="0 0 922.000000 1230.000000"
 preserveAspectRatio="xMidYMid meet">
<metadata>
Created by potrace 1.16, written by Peter Selinger 2001-2019
</metadata>
<g transform="translate(0.000000,1230.000000) scale(0.100000,-0.100000)"
fill="#000000" stroke="none">
<path d="M3140 12293 c-274 -46 -501 -214 -621 -459 -117 -239 -117 -489 0
-728 191 -391 639 -565 1046 -407 108 42 195 100 286 191 319 321 319 839 0
1160 -126 127 -269 203 -439 236 -68 13 -214 17 -272 7z"/>
<path d="M5790 12286 c-166 -35 -308 -113 -431 -236 -319 -321 -319 -839 0
-1160 175 -176 389 -260 631 -247 307 16 566 188 701 463 117 239 117 489 0
728 -106 216 -290 369 -523 437 -94 27 -285 34 -378 15z"/>
<path d="M4295 10059 c-1185 -90 -2316 -695 -3106 -1661 -528 -646 -893 -1413
-1068 -2243 -165 -781 -159 -1604 15 -2365 274 -1190 934 -2221 1869 -2915
633 -472 1357 -758 2153 -852 206 -24 688 -24 894 0 1024 121 1933 563 2668
1297 672 671 1134 1513 1354 2470 174 761 180 1584 15 2365 -275 1307 -1024
2451 -2064 3154 -328 221 -609 366 -968 500 -548 204 -1183 294 -1762 250z
m655 -564 c642 -98 1237 -444 1687 -980 277 -330 515 -768 668 -1229 191 -579
285 -1260 285 -2076 0 -1461 -260 -2537 -816 -3370 -226 -339 -518 -635 -838
-849 -1005 -672 -2213 -529 -3106 368 -155 156 -275 302 -394 481 -556 833
-816 1909 -816 3370 0 1351 256 2339 807 3117 306 433 760 802 1223 996 247
103 478 161 765 191 85 9 434 -3 535 -19z"/>
</g>
</svg>
