<?xml version="1.0" standalone="no"?>
<!DOCTYPE svg PUBLIC "-//W3C//DTD SVG 20010904//EN"
 "http://www.w3.org/TR/2001/REC-SVG-20010904/DTD/svg10.dtd">
<svg version="1.0" xmlns="http://www.w3.org/2000/svg"
 width="805.000000pt" height="937.000000pt" viewBox="0 0 805.000000 937.000000"
 preserveAspectRatio="xMidYMid meet">
<metadata>
Created by potrace 1.16, written by Peter Selinger 2001-2019
</metadata>
<g transform="translate(0.000000,937.000000) scale(0.100000,-0.100000)"
fill="#000000" stroke="none">
<path d="M3690 9364 c-19 -2 -91 -9 -160 -15 -872 -74 -1716 -491 -2142 -1057
-168 -223 -260 -415 -326 -682 l-26 -105 -3 -892 -4 -893 -509 0 -510 0 0
-225 0 -225 510 0 510 0 0 -2227 c0 -2384 1 -2303 -48 -2399 -27 -52 -77 -99
-133 -123 -96 -43 -365 -71 -681 -71 l-168 0 0 -226 0 -226 93 6 c584 39 2210
39 2795 0 l92 -6 0 226 0 226 -167 0 c-317 0 -586 28 -682 71 -56 24 -106 71
-133 123 -49 96 -48 15 -48 2399 l0 2227 1385 0 1385 0 0 -2227 c0 -2384 1
-2303 -48 -2399 -27 -52 -77 -99 -133 -123 -96 -43 -365 -71 -681 -71 l-168 0
0 -226 0 -226 93 6 c583 39 2367 39 3040 0 l107 -7 0 225 0 225 -332 6 c-706
14 -845 54 -930 265 l-23 57 -3 2248 -2 2247 750 0 750 0 0 225 0 225 -771 0
-770 0 4 913 c4 974 3 963 56 1205 68 311 231 633 427 841 152 161 331 275
509 323 148 39 419 27 573 -26 l36 -13 -64 -34 c-83 -44 -186 -146 -228 -226
-71 -135 -90 -308 -52 -457 28 -109 73 -190 150 -266 116 -116 256 -171 430
-171 174 0 313 55 431 171 121 120 176 275 166 469 -23 437 -358 775 -885 894
-142 31 -461 31 -645 -2 -393 -69 -739 -226 -1036 -469 l-84 -69 -76 80 c-227
237 -565 393 -1001 462 -100 16 -531 29 -620 19z m515 -358 c223 -33 402 -84
549 -158 l79 -40 -64 -22 c-92 -32 -155 -72 -225 -142 -175 -175 -214 -475
-93 -715 43 -87 154 -196 237 -235 l62 -29 -5 -40 c-22 -163 -25 -296 -25
-1057 l0 -848 -1405 0 -1406 0 3 883 c3 872 4 883 26 990 113 538 471 977
1005 1232 209 100 451 168 692 194 119 13 444 5 570 -13z"/>
</g>
</svg>
