<?xml version="1.0" standalone="no"?>
<!DOCTYPE svg PUBLIC "-//W3C//DTD SVG 20010904//EN"
 "http://www.w3.org/TR/2001/REC-SVG-20010904/DTD/svg10.dtd">
<svg version="1.0" xmlns="http://www.w3.org/2000/svg"
 width="959.000000pt" height="1180.000000pt" viewBox="0 0 959.000000 1180.000000"
 preserveAspectRatio="xMidYMid meet">
<metadata>
Created by potrace 1.16, written by Peter Selinger 2001-2019
</metadata>
<g transform="translate(0.000000,1180.000000) scale(0.100000,-0.100000)"
fill="#000000" stroke="none">
<path d="M4710 11778 c-33 -17 -50 -35 -67 -68 -16 -32 -990 -3549 -1192
-4307 l-12 -43 -1652 0 -1653 0 -44 -22 c-52 -27 -90 -90 -90 -148 0 -50 39
-120 81 -145 34 -20 53 -20 1644 -25 l1610 -5 -242 -905 c-133 -498 -267
-1001 -299 -1117 l-57 -213 -1301 0 -1302 0 -44 -22 c-52 -27 -90 -90 -90
-148 0 -58 38 -121 90 -147 l44 -23 1248 0 c751 0 1248 -4 1248 -9 0 -5 -261
-960 -581 -2123 -461 -1679 -580 -2122 -576 -2155 13 -122 136 -187 247 -130
33 16 50 34 67 67 16 32 990 3549 1192 4308 l12 42 1394 0 c841 0 1395 -4
1395 -9 0 -5 -261 -960 -581 -2123 -461 -1679 -580 -2122 -576 -2155 13 -122
136 -187 247 -130 33 16 50 34 67 67 16 32 990 3549 1192 4308 l12 42 1652 0
1653 0 44 23 c52 26 90 89 90 147 0 50 -39 120 -81 145 -34 20 -53 20 -1644
25 l-1610 5 242 905 c133 498 267 1001 299 1118 l57 212 1301 0 1302 0 44 22
c52 27 90 90 90 148 0 58 -38 121 -90 148 l-44 22 -1248 0 c-751 0 -1248 4
-1248 9 0 5 261 960 581 2123 461 1679 580 2122 576 2155 -13 122 -136 187
-247 131 -33 -17 -50 -35 -67 -68 -16 -32 -990 -3549 -1192 -4307 l-12 -43
-1394 0 c-841 0 -1395 4 -1395 9 0 5 261 960 581 2123 461 1679 580 2122 576
2155 -13 122 -136 187 -247 131z m1770 -4785 c-5 -16 -140 -518 -300 -1118
-160 -599 -292 -1091 -294 -1092 -1 -2 -630 -2 -1397 -1 l-1394 3 242 905
c133 498 267 1001 299 1118 l57 212 1398 0 1398 0 -9 -27z"/>
</g>
</svg>
