<?xml version="1.0" standalone="no"?>
<!DOCTYPE svg PUBLIC "-//W3C//DTD SVG 20010904//EN"
 "http://www.w3.org/TR/2001/REC-SVG-20010904/DTD/svg10.dtd">
<svg version="1.0" xmlns="http://www.w3.org/2000/svg"
 width="771.000000pt" height="1197.000000pt" viewBox="0 0 771.000000 1197.000000"
 preserveAspectRatio="xMidYMid meet">
<metadata>
Created by potrace 1.16, written by Peter Selinger 2001-2019
</metadata>
<g transform="translate(0.000000,1197.000000) scale(0.100000,-0.100000)"
fill="#000000" stroke="none">
<path d="M2820 11954 c-30 -8 -81 -27 -112 -42 -66 -31 -1977 -1243 -1978
-1254 0 -6 218 -489 224 -495 4 -4 2179 657 2234 678 29 12 84 43 122 70 152
107 227 268 217 464 -13 270 -202 517 -442 581 -65 18 -195 17 -265 -2z"/>
<path d="M0 9143 l0 -310 403 -6 c545 -8 760 -27 862 -77 50 -24 108 -78 132
-123 17 -30 18 -234 18 -3902 0 -3668 -1 -3872 -18 -3902 -24 -45 -82 -99
-132 -123 -102 -50 -317 -69 -862 -77 l-403 -6 0 -309 0 -308 3659 0 3659 0 6
48 c4 26 87 850 186 1832 99 982 182 1806 186 1833 l6 47 -275 0 -276 0 -5
-52 c-4 -29 -18 -156 -31 -283 -91 -833 -224 -1340 -455 -1744 -360 -627
-1013 -986 -1915 -1052 -188 -13 -1576 -6 -1651 9 -139 28 -187 57 -220 135
-18 41 -19 169 -22 3912 -2 3522 -1 3874 13 3912 22 56 98 124 172 152 132 51
396 70 1086 78 l507 6 0 310 0 310 -157 -7 c-1005 -41 -3517 -41 -4345 0
l-128 7 0 -310z"/>
</g>
</svg>
