<?xml version="1.0" standalone="no"?>
<!DOCTYPE svg PUBLIC "-//W3C//DTD SVG 20010904//EN"
 "http://www.w3.org/TR/2001/REC-SVG-20010904/DTD/svg10.dtd">
<svg version="1.0" xmlns="http://www.w3.org/2000/svg"
 width="1091.000000pt" height="611.000000pt" viewBox="0 0 1091.000000 611.000000"
 preserveAspectRatio="xMidYMid meet">
<metadata>
Created by potrace 1.16, written by Peter Selinger 2001-2019
</metadata>
<g transform="translate(0.000000,611.000000) scale(0.100000,-0.100000)"
fill="#000000" stroke="none">
<path d="M1015 6034 c-539 -40 -988 -73 -997 -73 -17 -1 -18 -20 -18 -261 l0
-260 143 0 c190 0 400 -17 522 -41 237 -48 342 -144 393 -361 16 -68 17 -225
17 -2153 l0 -2080 -24 -59 c-33 -84 -92 -139 -173 -164 -127 -40 -374 -61
-695 -62 l-183 0 0 -261 0 -261 103 6 c669 41 2345 41 3015 0 l102 -6 0 261 0
261 -182 0 c-322 1 -569 22 -696 62 -79 24 -140 82 -174 166 l-23 57 0 1540
c0 1718 -4 1611 70 1901 164 639 599 1146 1165 1357 225 84 511 116 730 82
122 -18 186 -38 286 -86 311 -151 475 -490 514 -1059 8 -115 10 -706 8 -1950
l-3 -1785 -24 -59 c-33 -84 -92 -139 -173 -164 -127 -40 -374 -61 -695 -62
l-183 0 0 -261 0 -261 103 6 c669 41 2345 41 3015 0 l102 -6 0 261 0 261 -182
0 c-322 1 -569 22 -696 62 -79 24 -140 82 -174 166 l-23 57 0 1540 c0 1718 -4
1611 70 1901 164 639 599 1146 1165 1357 225 84 511 116 730 82 122 -18 186
-38 286 -86 311 -151 475 -490 514 -1059 8 -115 10 -706 8 -1950 l-3 -1785
-24 -59 c-33 -84 -92 -139 -173 -164 -127 -40 -374 -61 -695 -62 l-183 0 0
-261 0 -261 103 6 c669 41 2345 41 3015 0 l102 -6 0 261 0 261 -182 0 c-322 1
-569 22 -696 62 -79 24 -140 82 -174 166 l-23 57 -6 1865 c-6 2037 -2 1918
-64 2195 -145 646 -549 1042 -1205 1184 -243 52 -625 75 -855 52 -414 -42
-797 -195 -1140 -454 -222 -169 -503 -496 -615 -717 -27 -52 -20 -62 -74 110
-192 604 -639 945 -1366 1045 -165 22 -499 31 -645 16 -433 -44 -843 -214
-1190 -494 -108 -87 -294 -281 -381 -397 -65 -86 -141 -203 -201 -307 l-22
-38 -1 623 0 622 -32 -1 c-18 -1 -474 -34 -1013 -75z"/>
</g>
</svg>
