<?xml version="1.0" standalone="no"?>
<!DOCTYPE svg PUBLIC "-//W3C//DTD SVG 20010904//EN"
 "http://www.w3.org/TR/2001/REC-SVG-20010904/DTD/svg10.dtd">
<svg version="1.0" xmlns="http://www.w3.org/2000/svg"
 width="904.000000pt" height="967.000000pt" viewBox="0 0 904.000000 967.000000"
 preserveAspectRatio="xMidYMid meet">
<metadata>
Created by potrace 1.16, written by Peter Selinger 2001-2019
</metadata>
<g transform="translate(0.000000,967.000000) scale(0.100000,-0.100000)"
fill="#000000" stroke="none">
<path d="M4325 9660 c-1340 -109 -2541 -779 -3356 -1872 -376 -504 -656 -1095
-813 -1715 -71 -283 -109 -502 -138 -788 -17 -171 -17 -729 0 -900 140 -1413
816 -2640 1909 -3468 619 -468 1389 -783 2158 -881 317 -41 731 -45 1020 -12
736 86 1362 353 1759 750 79 79 201 231 238 297 12 21 24 39 27 39 3 0 22 -24
41 -53 70 -104 198 -254 312 -368 106 -105 324 -294 411 -356 68 -49 154 -38
194 24 17 25 18 113 23 1428 5 1345 6 1402 24 1450 47 122 110 171 259 200
106 20 312 35 490 35 l147 0 0 226 0 227 -97 -7 c-613 -39 -2648 -39 -3555 0
l-148 7 0 -227 0 -226 268 0 c293 0 678 -14 842 -30 320 -32 437 -88 514 -250
l31 -65 3 -647 c3 -692 -1 -759 -49 -920 -141 -475 -621 -865 -1259 -1024
-745 -185 -1627 -51 -2335 356 -267 153 -481 316 -701 535 -220 219 -364 401
-516 655 -342 568 -529 1221 -605 2110 -21 256 -25 989 -5 1235 61 761 181
1290 412 1810 453 1023 1364 1748 2430 1934 205 36 321 46 545 46 305 0 494
-29 760 -116 259 -85 545 -242 775 -425 113 -90 346 -325 446 -449 461 -572
765 -1326 859 -2130 27 -232 40 -245 240 -245 111 0 135 3 162 20 68 41 63
-111 63 1890 0 2001 5 1849 -63 1890 -42 26 -139 27 -185 3 -23 -13 -130 -159
-408 -558 -207 -297 -380 -544 -385 -549 -5 -5 -70 54 -156 140 -531 538
-1126 847 -1838 955 -150 23 -566 34 -750 19z"/>
</g>
</svg>
