<?xml version="1.0" standalone="no"?>
<!DOCTYPE svg PUBLIC "-//W3C//DTD SVG 20010904//EN"
 "http://www.w3.org/TR/2001/REC-SVG-20010904/DTD/svg10.dtd">
<svg version="1.0" xmlns="http://www.w3.org/2000/svg"
 width="356.000000pt" height="890.000000pt" viewBox="0 0 356.000000 890.000000"
 preserveAspectRatio="xMidYMid meet">
<metadata>
Created by potrace 1.16, written by Peter Selinger 2001-2019
</metadata>
<g transform="translate(0.000000,890.000000) scale(0.100000,-0.100000)"
fill="#000000" stroke="none">
<path d="M400 8878 c-91 -32 -153 -71 -219 -137 -104 -104 -168 -239 -178
-376 -13 -165 64 -326 205 -428 44 -32 2074 -1182 2099 -1189 10 -3 273 336
273 352 0 14 -1706 1679 -1755 1712 -87 58 -156 81 -265 85 -80 3 -106 0 -160
-19z"/>
<path d="M1545 6034 c-533 -40 -978 -73 -987 -73 -17 -1 -18 -20 -18 -259 l0
-259 213 -6 c566 -16 718 -93 784 -399 17 -78 18 -199 18 -2153 0 -1970 -1
-2072 -18 -2122 -66 -188 -190 -227 -769 -240 l-278 -6 0 -260 0 -259 92 6
c604 41 2272 41 2876 0 l92 -6 0 261 0 261 -162 0 c-307 0 -562 28 -655 72
-54 25 -96 75 -126 148 l-22 55 -3 2658 -2 2657 -33 -1 c-17 -1 -468 -34
-1002 -75z"/>
</g>
</svg>
