<?xml version="1.0" standalone="no"?>
<!DOCTYPE svg PUBLIC "-//W3C//DTD SVG 20010904//EN"
 "http://www.w3.org/TR/2001/REC-SVG-20010904/DTD/svg10.dtd">
<svg version="1.0" xmlns="http://www.w3.org/2000/svg"
 width="454.000000pt" height="916.000000pt" viewBox="0 0 454.000000 916.000000"
 preserveAspectRatio="xMidYMid meet">
<metadata>
Created by potrace 1.16, written by Peter Selinger 2001-2019
</metadata>
<g transform="translate(0.000000,916.000000) scale(0.100000,-0.100000)"
fill="#000000" stroke="none">
<path d="M247 8989 l-158 -170 129 -137 c71 -75 519 -551 996 -1057 477 -506
871 -920 876 -920 5 0 399 414 876 920 477 506 925 982 996 1057 l129 137
-158 170 c-87 93 -161 168 -165 167 -4 0 -380 -296 -835 -655 -455 -360 -835
-655 -843 -655 -8 0 -388 295 -843 655 -455 359 -831 655 -835 655 -4 1 -78
-74 -165 -167z"/>
<path d="M1935 6334 c-1057 -66 -1662 -464 -1865 -1226 -52 -199 -64 -293 -64
-523 0 -180 3 -224 22 -312 43 -197 123 -383 243 -563 81 -122 316 -358 449
-452 254 -179 566 -320 874 -393 56 -14 324 -68 596 -120 356 -69 528 -107
613 -135 420 -140 724 -430 819 -781 32 -118 32 -365 -1 -518 -41 -195 -110
-335 -221 -454 -160 -171 -374 -270 -695 -319 -204 -31 -599 -31 -765 -1 -508
95 -876 396 -1129 925 -109 227 -175 424 -240 711 -17 75 -38 148 -46 161 -32
48 -69 56 -252 56 -188 0 -213 -7 -253 -72 -20 -32 -20 -53 -20 -1123 0 -1037
1 -1092 18 -1124 28 -53 72 -71 170 -71 46 0 93 5 105 12 24 12 106 88 371
342 l176 168 77 -65 c299 -249 688 -406 1107 -446 138 -14 398 -14 586 -1 635
45 1094 223 1421 549 131 132 214 248 294 416 124 257 189 547 202 896 7 214
-6 354 -52 534 -88 344 -255 627 -526 890 -173 168 -326 276 -546 388 -283
143 -403 177 -1070 307 -285 55 -547 108 -583 117 -169 41 -391 141 -513 231
-288 212 -395 459 -342 788 67 417 339 641 872 721 174 26 648 25 788 -1 298
-55 522 -168 710 -360 229 -234 337 -508 363 -921 13 -206 25 -215 279 -215
190 0 221 9 255 71 17 32 18 81 18 924 0 843 -1 892 -18 924 -29 53 -72 71
-172 71 -102 0 -83 10 -339 -188 l-194 -150 -66 43 c-197 127 -469 225 -756
270 -97 16 -552 28 -700 19z"/>
</g>
</svg>
