<?xml version="1.0" standalone="no"?>
<!DOCTYPE svg PUBLIC "-//W3C//DTD SVG 20010904//EN"
 "http://www.w3.org/TR/2001/REC-SVG-20010904/DTD/svg10.dtd">
<svg version="1.0" xmlns="http://www.w3.org/2000/svg"
 width="318.000000pt" height="922.000000pt" viewBox="0 0 318.000000 922.000000"
 preserveAspectRatio="xMidYMid meet">
<metadata>
Created by potrace 1.16, written by Peter Selinger 2001-2019
</metadata>
<g transform="translate(0.000000,922.000000) scale(0.100000,-0.100000)"
fill="#000000" stroke="none">
<path d="M975 9144 c-512 -40 -936 -73 -942 -73 -10 -1 -13 -53 -13 -224 l0
-224 218 -6 c562 -15 720 -90 790 -375 15 -61 16 -235 19 -1842 l2 -1775 -524
-434 c-464 -384 -524 -436 -512 -450 8 -9 69 -83 137 -166 68 -82 126 -154
130 -158 4 -4 177 134 386 307 l379 315 3 -1602 c2 -1130 -1 -1621 -8 -1667
-22 -128 -77 -208 -171 -249 -96 -43 -365 -71 -681 -71 l-168 0 0 -226 0 -226
92 6 c585 39 2211 39 2796 0 l92 -6 0 226 0 226 -167 0 c-317 0 -586 28 -682
71 -56 24 -106 71 -133 123 -49 95 -48 32 -48 2167 l0 1996 600 498 c530 440
599 500 586 514 -7 9 -71 86 -141 171 -71 85 -132 154 -136 153 -5 -2 -209
-169 -454 -373 -245 -203 -447 -370 -450 -370 -3 0 -5 860 -5 1910 l0 1910
-32 -1 c-18 -1 -451 -34 -963 -75z"/>
</g>
</svg>
