<?xml version="1.0" standalone="no"?>
<!DOCTYPE svg PUBLIC "-//W3C//DTD SVG 20010904//EN"
 "http://www.w3.org/TR/2001/REC-SVG-20010904/DTD/svg10.dtd">
<svg version="1.0" xmlns="http://www.w3.org/2000/svg"
 width="690.000000pt" height="976.000000pt" viewBox="0 0 690.000000 976.000000"
 preserveAspectRatio="xMidYMid meet">
<metadata>
Created by potrace 1.16, written by Peter Selinger 2001-2019
</metadata>
<g transform="translate(0.000000,976.000000) scale(0.100000,-0.100000)"
fill="#000000" stroke="none">
<path d="M4745 9684 c-550 -40 -1008 -73 -1017 -73 -17 -1 -18 -20 -18 -261
l0 -260 143 0 c190 0 400 -17 522 -41 235 -47 340 -142 392 -356 16 -62 17
-211 20 -1626 l4 -1559 -103 94 c-198 180 -367 296 -582 402 -499 245 -1016
313 -1596 210 -458 -82 -884 -270 -1278 -563 -141 -106 -423 -380 -536 -521
-249 -312 -467 -738 -575 -1125 -74 -260 -109 -498 -118 -785 -8 -297 16 -552
79 -830 139 -614 417 -1127 843 -1556 170 -171 264 -249 450 -372 382 -255
831 -414 1275 -453 160 -14 440 -6 585 16 531 82 1010 319 1392 688 l123 119
0 -417 0 -417 73 7 c59 5 2049 145 2063 145 2 0 4 117 4 260 l0 260 -142 0
c-191 0 -401 17 -523 41 -235 47 -340 142 -393 356 -15 63 -17 369 -19 4381
l-3 4312 -33 -1 c-17 -1 -482 -34 -1032 -75z m-1285 -3863 c366 -65 698 -245
970 -527 108 -112 184 -209 264 -338 l56 -89 0 -1655 0 -1655 -41 -76 c-294
-537 -789 -920 -1332 -1031 -582 -119 -1110 43 -1514 463 -460 479 -630 1134
-610 2342 10 583 56 929 168 1269 242 736 816 1227 1539 1316 115 14 368 4
500 -19z"/>
</g>
</svg>
