<?xml version="1.0" standalone="no"?>
<!DOCTYPE svg PUBLIC "-//W3C//DTD SVG 20010904//EN"
 "http://www.w3.org/TR/2001/REC-SVG-20010904/DTD/svg10.dtd">
<svg version="1.0" xmlns="http://www.w3.org/2000/svg"
 width="922.000000pt" height="922.000000pt" viewBox="0 0 922.000000 922.000000"
 preserveAspectRatio="xMidYMid meet">
<metadata>
Created by potrace 1.16, written by Peter Selinger 2001-2019
</metadata>
<g transform="translate(0.000000,922.000000) scale(0.100000,-0.100000)"
fill="#000000" stroke="none">
<path d="M4546 9213 c-43 -12 -95 -56 -120 -102 l-26 -49 0 -2121 0 -2121
-2095 0 c-1419 0 -2110 -3 -2143 -10 -171 -37 -218 -254 -79 -364 l39 -31
2139 -3 2139 -2 0 -2126 0 -2126 26 -49 c15 -27 44 -60 68 -76 35 -24 51 -28
111 -28 60 0 76 4 111 28 24 16 53 49 68 76 l26 49 0 2126 0 2126 2139 2 2139
3 39 31 c139 110 92 327 -79 364 -33 7 -724 10 -2143 10 l-2095 0 0 2121 0
2121 -26 49 c-36 65 -90 100 -163 105 -31 1 -65 0 -75 -3z"/>
</g>
</svg>
