<?xml version="1.0" standalone="no"?>
<!DOCTYPE svg PUBLIC "-//W3C//DTD SVG 20010904//EN"
 "http://www.w3.org/TR/2001/REC-SVG-20010904/DTD/svg10.dtd">
<svg version="1.0" xmlns="http://www.w3.org/2000/svg"
 width="912.000000pt" height="1184.000000pt" viewBox="0 0 912.000000 1184.000000"
 preserveAspectRatio="xMidYMid meet">
<metadata>
Created by potrace 1.16, written by Peter Selinger 2001-2019
</metadata>
<g transform="translate(0.000000,1184.000000) scale(0.100000,-0.100000)"
fill="#000000" stroke="none">
<path d="M3226 11830 c-287 -36 -536 -152 -743 -344 -76 -72 -500 -550 -504
-570 -1 -5 54 -58 122 -117 l123 -107 107 102 c373 361 823 456 1494 315 164
-34 328 -78 705 -189 398 -117 628 -173 875 -212 46 -7 166 -12 285 -12 173 0
221 4 307 22 244 53 451 160 630 326 76 72 500 550 504 570 1 5 -54 58 -122
117 l-123 107 -107 -102 c-373 -361 -823 -456 -1494 -315 -164 34 -328 78
-705 189 -398 117 -615 170 -840 206 -114 18 -418 26 -514 14z"/>
<path d="M0 8845 l0 -225 243 0 c448 0 875 -27 1050 -66 l67 -16 -2 -3706 -3
-3707 -23 -70 c-43 -128 -90 -204 -182 -295 -66 -66 -105 -95 -175 -131 -220
-114 -437 -162 -797 -175 l-178 -7 0 -225 0 -224 102 6 c645 39 2281 39 2926
0 l102 -6 0 224 0 225 -177 7 c-361 13 -578 61 -798 175 -70 36 -109 65 -175
131 -92 91 -139 167 -182 295 l-23 70 -2 3570 -2 3570 22 -30 c12 -16 1274
-1865 2805 -4110 1530 -2244 2794 -4089 2809 -4100 22 -16 47 -21 124 -23 111
-4 155 10 192 62 l22 31 5 3925 5 3925 23 70 c43 128 90 204 182 295 66 66
105 95 175 131 220 114 437 162 798 175 l177 7 0 225 0 224 -102 -6 c-645 -39
-2281 -39 -2925 0 l-103 6 0 -224 0 -225 178 -7 c360 -13 577 -61 797 -175 70
-36 109 -65 175 -131 92 -91 139 -167 182 -295 l23 -70 3 -2935 c1 -1614 -2
-2930 -6 -2925 -5 6 -1065 1560 -2357 3455 -1291 1895 -2359 3458 -2374 3473
-56 61 33 57 -1341 57 l-1260 0 0 -225z"/>
</g>
</svg>
