<?xml version="1.0" standalone="no"?>
<!DOCTYPE svg PUBLIC "-//W3C//DTD SVG 20010904//EN"
 "http://www.w3.org/TR/2001/REC-SVG-20010904/DTD/svg10.dtd">
<svg version="1.0" xmlns="http://www.w3.org/2000/svg"
 width="432.000000pt" height="1208.000000pt" viewBox="0 0 432.000000 1208.000000"
 preserveAspectRatio="xMidYMid meet">
<metadata>
Created by potrace 1.16, written by Peter Selinger 2001-2019
</metadata>
<g transform="translate(0.000000,1208.000000) scale(0.100000,-0.100000)"
fill="#000000" stroke="none">
<path d="M1995 12063 c-285 -60 -523 -288 -596 -570 -28 -107 -28 -279 0 -386
74 -285 313 -512 603 -571 335 -69 685 99 842 404 65 125 87 217 87 360 0 143
-22 235 -87 360 -158 306 -513 475 -849 403z"/>
<path d="M0 9191 l0 -261 248 0 c415 -1 772 -22 942 -56 133 -28 215 -89 269
-203 l26 -56 0 -3890 0 -3890 -26 -56 c-54 -114 -136 -175 -269 -203 -170 -34
-527 -55 -942 -56 l-248 0 0 -261 0 -262 128 7 c821 41 3233 41 4055 0 l127
-7 0 262 0 261 -247 0 c-416 1 -773 22 -943 56 -133 28 -215 89 -269 203 l-26
56 0 3890 0 3890 26 56 c54 114 136 175 269 203 170 34 527 55 943 56 l247 0
0 261 0 262 -127 -7 c-395 -19 -1108 -30 -2028 -30 -920 0 -1633 11 -2027 30
l-128 7 0 -262z"/>
</g>
</svg>
