<?xml version="1.0" standalone="no"?>
<!DOCTYPE svg PUBLIC "-//W3C//DTD SVG 20010904//EN"
 "http://www.w3.org/TR/2001/REC-SVG-20010904/DTD/svg10.dtd">
<svg version="1.0" xmlns="http://www.w3.org/2000/svg"
 width="904.000000pt" height="1214.000000pt" viewBox="0 0 904.000000 1214.000000"
 preserveAspectRatio="xMidYMid meet">
<metadata>
Created by potrace 1.16, written by Peter Selinger 2001-2019
</metadata>
<g transform="translate(0.000000,1214.000000) scale(0.100000,-0.100000)"
fill="#000000" stroke="none">
<path d="M2640 12095 c0 -172 59 -443 135 -624 258 -612 847 -1046 1570 -1157
150 -23 460 -23 610 0 723 111 1312 545 1570 1157 76 181 135 452 135 624 l0
45 -170 0 -170 0 0 -42 c0 -73 -28 -221 -59 -312 -61 -178 -154 -319 -310
-469 -247 -237 -581 -389 -996 -453 -150 -23 -460 -23 -610 0 -415 64 -749
216 -996 453 -156 150 -249 291 -310 469 -31 91 -59 239 -59 312 l0 42 -170 0
-170 0 0 -45z"/>
<path d="M4325 9660 c-1341 -110 -2541 -779 -3356 -1872 -376 -504 -656 -1095
-813 -1715 -71 -283 -109 -502 -138 -788 -17 -171 -17 -729 0 -900 140 -1413
816 -2640 1909 -3468 619 -468 1389 -783 2158 -881 317 -41 731 -45 1020 -12
736 86 1362 353 1759 750 79 79 201 231 238 297 12 21 24 39 27 39 3 0 22 -24
41 -53 70 -104 198 -254 312 -368 106 -105 324 -294 411 -356 68 -49 154 -38
194 24 17 25 18 113 23 1428 5 1345 6 1402 24 1450 47 122 110 171 259 200
106 20 312 35 490 35 l147 0 0 226 0 227 -97 -7 c-613 -39 -2648 -39 -3555 0
l-148 7 0 -227 0 -226 268 0 c293 0 678 -14 842 -30 320 -32 437 -88 514 -250
l31 -65 3 -647 c3 -692 -1 -759 -49 -920 -141 -475 -621 -865 -1259 -1024
-745 -185 -1627 -51 -2335 356 -267 153 -481 316 -701 535 -220 219 -364 401
-516 655 -405 673 -602 1493 -625 2595 -17 876 92 1649 323 2274 350 948 1036
1660 1952 2027 638 256 1351 310 2097 159 831 -169 1461 -592 1740 -1170 62
-129 107 -261 131 -383 33 -167 52 -182 239 -182 111 0 135 3 162 20 67 40 63
-29 63 1115 0 1144 4 1075 -63 1115 -38 24 -138 27 -178 6 -14 -7 -193 -149
-398 -315 l-373 -302 -91 54 c-505 299 -1100 481 -1808 552 -182 19 -716 28
-874 15z"/>
</g>
</svg>
