<?xml version="1.0" standalone="no"?>
<!DOCTYPE svg PUBLIC "-//W3C//DTD SVG 20010904//EN"
 "http://www.w3.org/TR/2001/REC-SVG-20010904/DTD/svg10.dtd">
<svg version="1.0" xmlns="http://www.w3.org/2000/svg"
 width="982.000000pt" height="945.000000pt" viewBox="0 0 982.000000 945.000000"
 preserveAspectRatio="xMidYMid meet">
<metadata>
Created by potrace 1.16, written by Peter Selinger 2001-2019
</metadata>
<g transform="translate(0.000000,945.000000) scale(0.100000,-0.100000)"
fill="#000000" stroke="none">
<path d="M0 9143 l0 -310 403 -6 c545 -8 760 -27 862 -77 50 -24 108 -78 132
-123 17 -30 18 -234 18 -3902 0 -3668 -1 -3872 -18 -3902 -24 -45 -82 -99
-132 -123 -102 -50 -317 -69 -862 -77 l-403 -6 0 -310 0 -310 128 7 c826 41
3188 41 4015 0 l127 -7 0 310 0 310 -402 6 c-679 10 -839 33 -942 133 -78 75
-71 -55 -73 1404 l-2 1305 717 697 c548 533 720 694 728 685 31 -33 2373
-3573 2410 -3642 102 -193 101 -319 -4 -425 -112 -112 -285 -159 -579 -160
l-103 0 0 -311 0 -312 138 7 c882 41 2921 41 3555 0 l97 -7 0 310 0 310 -252
6 c-283 7 -465 25 -611 62 -256 65 -427 201 -643 510 -92 132 -3054 4594
-3054 4600 0 12 2476 2416 2545 2472 431 349 973 531 1663 559 l162 7 0 310 0
309 -72 -6 c-486 -41 -2184 -41 -3010 0 l-128 7 0 -310 0 -310 83 -6 c417 -33
627 -334 428 -616 -20 -28 -943 -934 -2051 -2013 l-2015 -1962 -3 2144 c-1
1180 0 2164 3 2186 13 92 106 180 220 208 137 35 492 56 938 56 l257 0 0 311
0 312 -127 -7 c-827 -41 -3189 -41 -4015 0 l-128 7 0 -310z"/>
</g>
</svg>
