<?xml version="1.0" standalone="no"?>
<!DOCTYPE svg PUBLIC "-//W3C//DTD SVG 20010904//EN"
 "http://www.w3.org/TR/2001/REC-SVG-20010904/DTD/svg10.dtd">
<svg version="1.0" xmlns="http://www.w3.org/2000/svg"
 width="312.000000pt" height="854.000000pt" viewBox="0 0 312.000000 854.000000"
 preserveAspectRatio="xMidYMid meet">
<metadata>
Created by potrace 1.16, written by Peter Selinger 2001-2019
</metadata>
<g transform="translate(0.000000,854.000000) scale(0.100000,-0.100000)"
fill="#000000" stroke="none">
<path d="M2485 8523 c-28 -10 -73 -31 -100 -47 -56 -33 -64 -41 -1043 -1000
l-702 -689 23 -31 c13 -17 63 -84 111 -148 84 -112 89 -117 109 -104 12 8 467
267 1012 576 545 309 1011 578 1036 597 85 64 148 164 169 268 45 217 -108
481 -328 566 -79 31 -218 36 -287 12z"/>
<path d="M985 5794 c-501 -40 -916 -73 -922 -73 -10 -1 -13 -53 -13 -224 l0
-224 213 -6 c520 -16 663 -84 740 -355 l22 -77 3 -2000 c2 -1432 0 -2018 -8
-2065 -22 -127 -78 -210 -170 -249 -100 -43 -366 -71 -682 -71 l-168 0 0 -226
0 -226 92 6 c586 39 2146 39 2701 0 l87 -7 0 225 0 225 -237 6 c-492 14 -600
51 -669 232 -18 49 -19 118 -22 2618 l-2 2567 -28 -1 c-15 -1 -436 -34 -937
-75z"/>
</g>
</svg>
