<?xml version="1.0" standalone="no"?>
<!DOCTYPE svg PUBLIC "-//W3C//DTD SVG 20010904//EN"
 "http://www.w3.org/TR/2001/REC-SVG-20010904/DTD/svg10.dtd">
<svg version="1.0" xmlns="http://www.w3.org/2000/svg"
 width="145.000000pt" height="952.000000pt" viewBox="0 0 145.000000 952.000000"
 preserveAspectRatio="xMidYMid meet">
<metadata>
Created by potrace 1.16, written by Peter Selinger 2001-2019
</metadata>
<g transform="translate(0.000000,952.000000) scale(0.100000,-0.100000)"
fill="#000000" stroke="none">
<path d="M575 9506 c-155 -37 -253 -92 -365 -205 -67 -67 -95 -105 -128 -171
-110 -220 -110 -440 0 -660 33 -66 61 -104 128 -171 94 -95 175 -146 298 -187
67 -23 94 -26 212 -26 118 0 145 3 212 26 123 41 204 92 298 187 67 67 95 105
128 171 110 220 110 440 0 660 -33 66 -61 104 -128 171 -95 96 -177 147 -298
186 -96 31 -266 40 -357 19z"/>
<path d="M598 6994 c-15 -8 -35 -29 -45 -47 -13 -26 -68 -621 -284 -3117 -148
-1697 -269 -3119 -269 -3160 0 -437 452 -760 904 -646 318 81 536 343 536 646
0 127 -536 6254 -549 6279 -25 46 -68 61 -171 61 -64 -1 -104 -6 -122 -16z"/>
</g>
</svg>
