<?xml version="1.0" standalone="no"?>
<!DOCTYPE svg PUBLIC "-//W3C//DTD SVG 20010904//EN"
 "http://www.w3.org/TR/2001/REC-SVG-20010904/DTD/svg10.dtd">
<svg version="1.0" xmlns="http://www.w3.org/2000/svg"
 width="436.000000pt" height="874.000000pt" viewBox="0 0 436.000000 874.000000"
 preserveAspectRatio="xMidYMid meet">
<metadata>
Created by potrace 1.16, written by Peter Selinger 2001-2019
</metadata>
<g transform="translate(0.000000,874.000000) scale(0.100000,-0.100000)"
fill="#000000" stroke="none">
<path d="M99 8629 c-52 -61 -93 -113 -92 -115 7 -12 1998 -1969 2003 -1969 5
0 2005 1966 2005 1971 0 12 -192 224 -199 220 -6 -2 -411 -282 -901 -622 -489
-340 -897 -618 -905 -618 -8 0 -415 278 -905 618 -490 340 -895 620 -901 622
-5 3 -53 -45 -105 -107z"/>
<path d="M1840 6093 c-218 -12 -454 -46 -633 -93 -400 -103 -727 -308 -919
-577 -120 -166 -215 -401 -260 -640 -19 -99 -22 -151 -22 -328 1 -201 2 -215
31 -325 38 -145 80 -251 144 -362 206 -359 602 -665 1073 -827 188 -65 271
-84 821 -191 563 -109 645 -129 793 -192 192 -82 320 -166 455 -297 246 -239
351 -497 334 -821 -35 -645 -365 -983 -1052 -1076 -162 -22 -590 -26 -705 -6
-523 88 -880 344 -1159 832 -149 259 -296 681 -362 1040 -24 131 -58 160 -189
160 -102 0 -147 -18 -172 -70 -17 -33 -18 -107 -18 -1130 0 -1068 1 -1096 20
-1127 10 -18 33 -39 49 -48 41 -21 138 -20 178 3 17 9 138 135 268 280 130
144 240 262 244 262 4 0 16 -10 27 -22 38 -42 201 -173 289 -231 224 -147 494
-246 785 -288 123 -18 600 -18 770 -1 342 36 668 127 889 249 284 157 515 396
641 665 122 260 190 592 190 923 0 678 -401 1285 -1070 1620 -280 140 -392
172 -1057 300 -274 53 -543 108 -598 122 -273 71 -524 203 -686 363 -181 179
-261 380 -246 614 19 289 128 515 316 658 85 64 261 150 376 183 292 84 811
110 1119 56 583 -103 987 -503 1105 -1096 22 -113 41 -287 41 -382 0 -124 44
-163 185 -163 72 0 97 4 122 20 66 40 63 -13 63 967 0 863 -1 889 -20 920 -10
18 -33 39 -49 48 -33 17 -126 20 -165 5 -14 -5 -113 -88 -221 -184 l-196 -174
-75 54 c-96 68 -289 163 -426 208 -128 42 -313 81 -457 96 -92 9 -428 11 -571
3z"/>
</g>
</svg>
