<?xml version="1.0" standalone="no"?>
<!DOCTYPE svg PUBLIC "-//W3C//DTD SVG 20010904//EN"
 "http://www.w3.org/TR/2001/REC-SVG-20010904/DTD/svg10.dtd">
<svg version="1.0" xmlns="http://www.w3.org/2000/svg"
 width="368.000000pt" height="535.000000pt" viewBox="0 0 368.000000 535.000000"
 preserveAspectRatio="xMidYMid meet">
<metadata>
Created by potrace 1.16, written by Peter Selinger 2001-2019
</metadata>
<g transform="translate(0.000000,535.000000) scale(0.100000,-0.100000)"
fill="#000000" stroke="none">
<path d="M1745 5335 c-347 -56 -667 -227 -946 -505 -425 -423 -696 -1036 -781
-1765 -17 -144 -17 -636 0 -780 85 -729 356 -1342 781 -1765 354 -353 780
-535 1206 -517 513 22 978 384 1295 1008 191 375 302 769 352 1239 17 165 17
685 0 850 -50 470 -161 864 -352 1239 -268 526 -635 862 -1070 977 -121 33
-347 41 -485 19z m423 -355 c166 -47 316 -144 472 -307 274 -285 488 -730 584
-1219 135 -682 87 -1435 -129 -2021 -57 -153 -175 -386 -264 -520 -95 -143
-265 -326 -373 -400 -316 -218 -643 -228 -921 -29 -89 63 -222 206 -296 316
-163 244 -276 567 -330 945 -39 270 -46 413 -46 930 0 517 7 660 46 930 70
488 233 874 479 1129 138 143 273 226 425 260 92 21 254 14 353 -14z"/>
</g>
</svg>
