<?xml version="1.0" standalone="no"?>
<!DOCTYPE svg PUBLIC "-//W3C//DTD SVG 20010904//EN"
 "http://www.w3.org/TR/2001/REC-SVG-20010904/DTD/svg10.dtd">
<svg version="1.0" xmlns="http://www.w3.org/2000/svg"
 width="885.000000pt" height="1058.000000pt" viewBox="0 0 885.000000 1058.000000"
 preserveAspectRatio="xMidYMid meet">
<metadata>
Created by potrace 1.16, written by Peter Selinger 2001-2019
</metadata>
<g transform="translate(0.000000,1058.000000) scale(0.100000,-0.100000)"
fill="#000000" stroke="none">
<path d="M7305 9949 c-230 -347 -422 -632 -425 -634 -4 -2 -55 30 -116 71
-487 336 -1058 574 -1624 678 -265 49 -404 60 -720 60 -316 0 -455 -11 -720
-60 -1381 -253 -2586 -1224 -3218 -2590 -253 -547 -396 -1091 -464 -1759 -16
-163 -16 -745 0 -910 68 -670 222 -1228 491 -1781 112 -230 184 -356 326 -569
215 -325 459 -612 726 -856 l97 -87 -433 -649 -432 -649 150 -99 c82 -55 155
-101 161 -102 6 -2 200 281 430 627 231 347 421 630 423 630 2 0 64 -41 139
-90 582 -390 1216 -621 1924 -701 152 -18 648 -18 800 0 1308 148 2437 848
3185 1976 142 213 214 339 326 569 269 553 423 1111 491 1781 16 165 16 747 0
910 -95 942 -363 1714 -844 2433 -181 271 -352 477 -606 731 l-194 193 435
652 434 652 -150 99 c-82 55 -155 101 -161 102 -6 2 -200 -281 -431 -628z
m-2481 -189 c303 -46 586 -136 868 -277 276 -138 522 -313 753 -535 l116 -113
-2265 -3385 c-1247 -1862 -2270 -3386 -2274 -3387 -18 -6 -192 278 -292 478
-282 562 -429 1175 -492 2044 -17 234 -17 1128 0 1360 74 1012 263 1715 626
2327 429 721 1096 1233 1863 1429 133 34 347 71 483 83 118 10 480 -4 614 -24z
m2063 -1347 c376 -570 601 -1273 687 -2143 33 -336 40 -504 41 -1000 0 -598
-16 -862 -76 -1290 -118 -837 -393 -1524 -828 -2065 -81 -102 -301 -325 -411
-417 -658 -553 -1500 -793 -2325 -662 -603 96 -1188 396 -1615 828 l-84 85
714 1068 c393 588 1413 2111 2265 3385 853 1275 1553 2317 1556 2318 3 0 37
-48 76 -107z"/>
</g>
</svg>
