<?xml version="1.0" standalone="no"?>
<!DOCTYPE svg PUBLIC "-//W3C//DTD SVG 20010904//EN"
 "http://www.w3.org/TR/2001/REC-SVG-20010904/DTD/svg10.dtd">
<svg version="1.0" xmlns="http://www.w3.org/2000/svg"
 width="1097.000000pt" height="976.000000pt" viewBox="0 0 1097.000000 976.000000"
 preserveAspectRatio="xMidYMid meet">
<metadata>
Created by potrace 1.16, written by Peter Selinger 2001-2019
</metadata>
<g transform="translate(0.000000,976.000000) scale(0.100000,-0.100000)"
fill="#000000" stroke="none">
<path d="M4065 9749 c-830 -58 -1579 -318 -2155 -747 -133 -99 -369 -331 -457
-447 -176 -235 -281 -456 -346 -730 -20 -87 -21 -115 -24 -977 l-4 -888 -494
0 -495 0 0 -310 0 -310 495 0 495 0 -2 -2247 -3 -2248 -31 -55 c-74 -131 -181
-156 -731 -167 l-313 -6 0 -310 0 -310 98 7 c638 41 2446 41 3085 0 l97 -7 0
310 0 310 -312 6 c-551 11 -658 36 -732 167 l-31 55 -3 2248 -2 2247 1360 0
1360 0 -2 -2247 -3 -2248 -31 -55 c-74 -131 -181 -156 -731 -167 l-313 -6 0
-310 0 -310 98 7 c638 41 2446 41 3085 0 l97 -7 0 310 0 310 -312 6 c-551 11
-658 36 -732 167 l-31 55 -3 2248 -2 2247 1360 0 1360 0 -2 -2247 -3 -2248
-31 -55 c-74 -131 -181 -156 -731 -167 l-313 -6 0 -310 0 -310 98 7 c638 41
2446 41 3085 0 l97 -7 0 310 0 310 -312 6 c-551 11 -658 36 -732 167 l-31 55
-3 4384 -2 4383 -33 -5 c-17 -4 -153 -22 -301 -42 l-269 -36 -112 50 c-279
124 -572 181 -929 181 -867 -1 -1689 -228 -2321 -642 l-90 -59 -15 23 c-53 81
-142 187 -208 248 -241 223 -596 377 -967 420 -104 11 -395 11 -570 -1z m300
-509 c190 -18 409 -65 529 -115 l38 -16 -59 -38 c-126 -82 -223 -216 -274
-381 -20 -62 -24 -97 -24 -205 0 -146 18 -221 81 -347 44 -87 152 -202 234
-248 l61 -35 -6 -40 c-3 -22 -10 -71 -15 -110 -5 -38 -10 -447 -10 -907 l0
-838 -1380 0 -1380 0 0 828 c0 893 3 947 54 1135 162 593 693 1082 1360 1252
112 28 275 56 406 68 80 8 282 6 385 -3z m4040 -10 c50 -5 120 -15 158 -21
l67 -11 -50 -55 c-59 -64 -108 -156 -141 -263 -20 -62 -24 -97 -24 -205 0
-146 18 -221 81 -347 39 -78 141 -191 215 -238 l49 -32 0 -1049 0 -1049 -1380
0 -1380 0 0 828 c0 893 3 947 54 1135 124 455 470 858 936 1092 259 129 465
186 830 229 61 7 491 -3 585 -14z"/>
</g>
</svg>
