<?xml version="1.0" standalone="no"?>
<!DOCTYPE svg PUBLIC "-//W3C//DTD SVG 20010904//EN"
 "http://www.w3.org/TR/2001/REC-SVG-20010904/DTD/svg10.dtd">
<svg version="1.0" xmlns="http://www.w3.org/2000/svg"
 width="384.000000pt" height="558.000000pt" viewBox="0 0 384.000000 558.000000"
 preserveAspectRatio="xMidYMid meet">
<metadata>
Created by potrace 1.16, written by Peter Selinger 2001-2019
</metadata>
<g transform="translate(0.000000,558.000000) scale(0.100000,-0.100000)"
fill="#000000" stroke="none">
<path d="M1826 5564 c-787 -122 -1451 -837 -1711 -1842 -83 -319 -109 -543
-109 -932 0 -389 26 -613 109 -932 238 -919 824 -1611 1528 -1803 505 -137
948 -16 1345 369 449 436 731 1095 824 1926 17 153 17 727 0 880 -78 699 -286
1264 -628 1710 -96 126 -295 319 -409 396 -300 204 -616 280 -949 228z m354
-408 c177 -32 341 -126 506 -291 211 -211 372 -481 500 -843 203 -572 249
-1325 123 -2006 -61 -330 -180 -656 -333 -918 -96 -166 -170 -264 -290 -384
-512 -510 -1124 -365 -1466 349 -197 410 -260 830 -260 1727 0 640 29 988 110
1310 146 585 479 996 858 1060 73 12 170 11 252 -4z"/>
</g>
</svg>
