<?xml version="1.0" standalone="no"?>
<!DOCTYPE svg PUBLIC "-//W3C//DTD SVG 20010904//EN"
 "http://www.w3.org/TR/2001/REC-SVG-20010904/DTD/svg10.dtd">
<svg version="1.0" xmlns="http://www.w3.org/2000/svg"
 width="858.000000pt" height="945.000000pt" viewBox="0 0 858.000000 945.000000"
 preserveAspectRatio="xMidYMid meet">
<metadata>
Created by potrace 1.16, written by Peter Selinger 2001-2019
</metadata>
<g transform="translate(0.000000,945.000000) scale(0.100000,-0.100000)"
fill="#000000" stroke="none">
<path d="M0 9192 l0 -259 373 -6 c385 -7 544 -16 707 -43 150 -25 215 -60 274
-147 72 -107 66 262 66 -4012 0 -4274 6 -3905 -66 -4012 -59 -87 -124 -122
-274 -147 -163 -27 -322 -36 -707 -43 l-373 -6 0 -259 0 -258 2824 0 c1797 0
2870 4 2952 10 1202 94 2211 744 2614 1685 355 825 176 1687 -486 2350 -452
452 -1116 771 -1814 870 -178 25 -177 25 -60 51 293 66 537 152 795 279 308
152 528 303 742 509 528 507 726 1126 568 1774 -220 904 -1137 1647 -2292
1856 -355 65 -135 60 -3125 63 l-2718 3 0 -258z m5401 -290 c702 -160 1202
-730 1325 -1512 22 -143 23 -439 0 -580 -67 -428 -260 -805 -562 -1102 -54
-54 -128 -121 -164 -150 -288 -230 -672 -386 -1052 -427 -62 -7 -489 -11
-1188 -11 l-1090 0 0 1754 c0 1137 4 1772 10 1807 30 159 111 215 345 238 50
5 583 8 1185 7 1089 -2 1096 -2 1191 -24z m74 -4203 c800 -97 1440 -813 1586
-1771 29 -187 31 -528 5 -687 -152 -934 -862 -1620 -1768 -1712 -67 -6 -489
-9 -1198 -6 -950 3 -1105 6 -1173 20 -139 28 -194 68 -234 168 -17 41 -18 157
-21 2022 l-2 1977 1357 0 c923 0 1387 -4 1448 -11z"/>
</g>
</svg>
