<?xml version="1.0" standalone="no"?>
<!DOCTYPE svg PUBLIC "-//W3C//DTD SVG 20010904//EN"
 "http://www.w3.org/TR/2001/REC-SVG-20010904/DTD/svg10.dtd">
<svg version="1.0" xmlns="http://www.w3.org/2000/svg"
 width="276.000000pt" height="233.000000pt" viewBox="0 0 276.000000 233.000000"
 preserveAspectRatio="xMidYMid meet">
<metadata>
Created by potrace 1.16, written by Peter Selinger 2001-2019
</metadata>
<g transform="translate(0.000000,233.000000) scale(0.100000,-0.100000)"
fill="#000000" stroke="none">
<path d="M1215 2324 c-583 -62 -1047 -420 -1182 -911 -24 -86 -27 -116 -27
-248 0 -132 3 -162 27 -248 124 -450 515 -784 1040 -889 161 -32 443 -32 604
0 525 105 916 439 1040 889 24 86 27 116 27 248 0 132 -3 162 -27 248 -123
448 -517 786 -1034 887 -105 21 -370 34 -468 24z m413 -414 c297 -32 493 -143
586 -331 65 -132 79 -209 79 -414 0 -153 -3 -192 -21 -260 -81 -298 -276 -445
-644 -485 -125 -13 -381 -13 -506 0 -297 32 -493 143 -586 331 -65 132 -79
209 -79 414 0 205 14 282 79 414 90 183 289 298 569 330 114 12 409 13 523 1z"/>
</g>
</svg>
