<?xml version="1.0" standalone="no"?>
<!DOCTYPE svg PUBLIC "-//W3C//DTD SVG 20010904//EN"
 "http://www.w3.org/TR/2001/REC-SVG-20010904/DTD/svg10.dtd">
<svg version="1.0" xmlns="http://www.w3.org/2000/svg"
 width="538.000000pt" height="1384.000000pt" viewBox="0 0 538.000000 1384.000000"
 preserveAspectRatio="xMidYMid meet">
<metadata>
Created by potrace 1.16, written by Peter Selinger 2001-2019
</metadata>
<g transform="translate(0.000000,1384.000000) scale(0.100000,-0.100000)"
fill="#000000" stroke="none">
<path d="M146 13833 c-43 -12 -95 -57 -121 -104 -22 -41 -26 -59 -23 -102 3
-38 683 -1889 2491 -6782 1368 -3701 2495 -6741 2505 -6754 10 -14 35 -39 56
-55 34 -28 44 -31 109 -31 62 0 78 4 113 28 52 35 94 110 94 167 0 31 -645
1789 -2486 6773 -1367 3703 -2495 6749 -2507 6769 -30 55 -88 89 -156 94 -31
1 -65 0 -75 -3z"/>
</g>
</svg>
