<?xml version="1.0" standalone="no"?>
<!DOCTYPE svg PUBLIC "-//W3C//DTD SVG 20010904//EN"
 "http://www.w3.org/TR/2001/REC-SVG-20010904/DTD/svg10.dtd">
<svg version="1.0" xmlns="http://www.w3.org/2000/svg"
 width="672.000000pt" height="907.000000pt" viewBox="0 0 672.000000 907.000000"
 preserveAspectRatio="xMidYMid meet">
<metadata>
Created by potrace 1.16, written by Peter Selinger 2001-2019
</metadata>
<g transform="translate(0.000000,907.000000) scale(0.100000,-0.100000)"
fill="#000000" stroke="none">
<path d="M326 8973 c-4 -54 -36 -692 -71 -1418 -35 -726 -67 -1364 -71 -1417
l-6 -98 185 0 185 0 7 98 c51 763 180 1223 459 1637 89 132 302 342 440 434
305 203 664 322 1126 375 275 31 543 37 1597 34 l1043 -3 -2596 -4100 c-1428
-2255 -2603 -4113 -2611 -4128 -11 -22 -14 -59 -11 -160 3 -149 15 -179 82
-211 31 -15 301 -16 3219 -16 l3185 0 6 78 c4 42 51 815 106 1717 55 902 102
1675 106 1718 l6 77 -186 0 c-114 0 -186 -4 -186 -10 0 -45 -35 -496 -50 -660
-69 -701 -209 -1186 -446 -1541 -289 -433 -763 -708 -1409 -818 -372 -64 -615
-73 -1923 -69 l-1093 3 2603 4110 2603 4110 0 130 c0 118 -2 133 -22 161 -13
17 -38 39 -57 48 -31 15 -294 16 -3124 16 l-3090 0 -6 -97z"/>
</g>
</svg>
