<?xml version="1.0" standalone="no"?>
<!DOCTYPE svg PUBLIC "-//W3C//DTD SVG 20010904//EN"
 "http://www.w3.org/TR/2001/REC-SVG-20010904/DTD/svg10.dtd">
<svg version="1.0" xmlns="http://www.w3.org/2000/svg"
 width="449.000000pt" height="859.000000pt" viewBox="0 0 449.000000 859.000000"
 preserveAspectRatio="xMidYMid meet">
<metadata>
Created by potrace 1.16, written by Peter Selinger 2001-2019
</metadata>
<g transform="translate(0.000000,859.000000) scale(0.100000,-0.100000)"
fill="#000000" stroke="none">
<path d="M559 8479 c-52 -61 -93 -113 -92 -115 7 -12 1998 -1969 2003 -1969 5
0 2005 1966 2005 1971 0 12 -192 224 -199 220 -6 -2 -411 -282 -901 -622 -490
-340 -897 -618 -905 -618 -8 0 -415 278 -905 618 -490 340 -895 620 -901 622
-5 3 -53 -45 -105 -107z"/>
<path d="M925 5794 c-495 -40 -906 -73 -912 -73 -10 -1 -13 -53 -13 -224 l0
-224 218 -6 c562 -15 719 -90 790 -375 15 -61 17 -251 20 -2062 2 -1428 0
-2013 -8 -2060 -22 -127 -78 -210 -170 -249 -100 -43 -366 -71 -682 -71 l-168
0 0 -226 0 -226 93 6 c583 39 2367 39 3040 0 l107 -7 0 225 0 225 -332 6
c-706 14 -845 54 -930 265 l-23 57 0 1300 c0 1340 0 1354 41 1635 120 837 470
1457 962 1704 135 68 350 116 522 116 l82 0 -50 -39 c-213 -169 -274 -490
-141 -752 42 -83 145 -186 228 -228 241 -122 532 -82 712 98 141 141 198 350
154 565 -108 520 -718 812 -1357 650 -257 -65 -459 -179 -663 -376 -220 -211
-379 -458 -519 -803 l-45 -110 -1 668 0 667 -27 -1 c-16 -1 -433 -34 -928 -75z"/>
</g>
</svg>
