<?xml version="1.0" standalone="no"?>
<!DOCTYPE svg PUBLIC "-//W3C//DTD SVG 20010904//EN"
 "http://www.w3.org/TR/2001/REC-SVG-20010904/DTD/svg10.dtd">
<svg version="1.0" xmlns="http://www.w3.org/2000/svg"
 width="617.000000pt" height="991.000000pt" viewBox="0 0 617.000000 991.000000"
 preserveAspectRatio="xMidYMid meet">
<metadata>
Created by potrace 1.16, written by Peter Selinger 2001-2019
</metadata>
<g transform="translate(0.000000,991.000000) scale(0.100000,-0.100000)"
fill="#000000" stroke="none">
<path d="M2930 9900 c-428 -41 -790 -161 -1090 -363 -146 -99 -333 -286 -429
-431 -127 -192 -206 -372 -267 -612 -70 -278 -68 -230 -71 -1361 l-4 -1023
-534 0 -535 0 0 -310 0 -310 535 0 535 0 -2 -2247 -3 -2248 -31 -55 c-74 -131
-181 -156 -726 -167 l-308 -6 0 -310 0 -310 98 7 c446 29 1708 41 1912 18 63
-7 130 -15 148 -18 l32 -6 0 3998 c0 2589 4 4050 10 4144 22 309 75 514 179
690 86 144 241 275 406 341 309 124 787 97 1110 -63 381 -189 579 -548 626
-1141 13 -165 6 -972 -11 -1187 -19 -244 -60 -491 -93 -559 -11 -24 -18 -26
-107 -33 -352 -27 -661 -161 -882 -382 -236 -236 -393 -595 -448 -1026 -18
-139 -24 -462 -11 -595 47 -478 230 -896 520 -1185 125 -124 223 -195 366
-265 135 -66 217 -90 514 -149 223 -44 284 -60 347 -90 273 -130 458 -389 536
-749 29 -138 32 -437 4 -602 -57 -343 -204 -574 -441 -691 -115 -57 -222 -83
-360 -90 -414 -21 -652 203 -791 744 -42 166 -93 462 -129 752 -40 322 -38
320 -300 320 -190 0 -215 -7 -255 -72 -20 -32 -20 -53 -20 -1093 0 -1008 1
-1062 18 -1094 29 -53 72 -71 172 -71 66 0 92 4 115 19 17 11 95 80 175 154
l145 135 42 -39 c95 -87 237 -164 393 -213 342 -108 840 -57 1215 124 158 76
277 161 400 284 271 271 438 642 500 1111 23 168 30 473 16 620 -69 710 -454
1320 -1007 1598 -193 97 -278 123 -644 195 -147 29 -265 58 -295 72 -28 14
-80 54 -120 94 -111 111 -180 264 -221 491 -25 138 -25 496 -1 640 49 280 162
467 330 546 51 23 86 31 169 39 124 11 196 35 275 94 237 175 396 699 434
1436 24 463 2 870 -61 1137 -56 241 -173 508 -297 683 -86 120 -242 277 -356
357 -217 152 -498 262 -795 309 -116 18 -494 27 -632 14z"/>
</g>
</svg>
