<?xml version="1.0" standalone="no"?>
<!DOCTYPE svg PUBLIC "-//W3C//DTD SVG 20010904//EN"
 "http://www.w3.org/TR/2001/REC-SVG-20010904/DTD/svg10.dtd">
<svg version="1.0" xmlns="http://www.w3.org/2000/svg"
 width="442.000000pt" height="1197.000000pt" viewBox="0 0 442.000000 1197.000000"
 preserveAspectRatio="xMidYMid meet">
<metadata>
Created by potrace 1.16, written by Peter Selinger 2001-2019
</metadata>
<g transform="translate(0.000000,1197.000000) scale(0.100000,-0.100000)"
fill="#000000" stroke="none">
<path d="M2909 11956 c-25 -7 -72 -25 -105 -40 -64 -29 -1993 -1247 -1994
-1258 0 -6 218 -489 224 -495 1 -2 495 146 1097 328 721 217 1122 343 1175
368 148 71 259 202 295 351 18 75 16 211 -5 290 -59 223 -227 404 -423 455
-68 18 -200 18 -264 1z"/>
<path d="M0 9141 l0 -311 268 0 c531 0 920 -27 1039 -72 72 -27 156 -107 172
-164 15 -55 15 -7683 0 -7738 -16 -57 -100 -137 -172 -164 -119 -45 -508 -72
-1039 -72 l-268 0 0 -311 0 -312 133 7 c850 41 3294 41 4145 0 l132 -7 0 312
0 311 -267 0 c-532 0 -921 27 -1040 72 -72 27 -156 107 -172 164 -15 55 -15
7683 0 7738 16 57 100 137 172 164 119 45 508 72 1040 72 l267 0 0 311 0 312
-132 -7 c-412 -19 -1126 -30 -2073 -30 -947 0 -1661 11 -2072 30 l-133 7 0
-312z"/>
</g>
</svg>
