<?xml version="1.0" standalone="no"?>
<!DOCTYPE svg PUBLIC "-//W3C//DTD SVG 20010904//EN"
 "http://www.w3.org/TR/2001/REC-SVG-20010904/DTD/svg10.dtd">
<svg version="1.0" xmlns="http://www.w3.org/2000/svg"
 width="941.000000pt" height="1007.000000pt" viewBox="0 0 941.000000 1007.000000"
 preserveAspectRatio="xMidYMid meet">
<metadata>
Created by potrace 1.16, written by Peter Selinger 2001-2019
</metadata>
<g transform="translate(0.000000,1007.000000) scale(0.100000,-0.100000)"
fill="#000000" stroke="none">
<path d="M4500 10059 c-979 -74 -1927 -463 -2705 -1111 -138 -115 -414 -387
-540 -532 -452 -522 -775 -1092 -995 -1756 -503 -1521 -268 -3211 631 -4535
298 -438 695 -855 1114 -1169 572 -429 1228 -724 1927 -866 626 -127 1298
-118 1883 25 448 110 857 302 1155 542 109 88 285 274 359 380 l65 91 64 -86
c76 -101 348 -377 472 -478 121 -99 279 -218 317 -237 18 -10 44 -17 58 -17
39 0 91 27 112 58 17 26 18 99 23 1472 l5 1445 24 58 c44 112 103 154 252 181
112 21 328 36 522 36 l157 0 0 261 0 261 -102 -6 c-671 -41 -2818 -41 -3770 0
l-148 7 0 -262 0 -261 288 0 c513 0 972 -26 1136 -65 37 -8 88 -26 114 -39 62
-32 135 -108 164 -171 l23 -50 3 -650 c2 -428 -1 -683 -8 -747 -22 -192 -82
-358 -190 -521 -270 -409 -759 -680 -1395 -774 -165 -24 -553 -24 -755 0 -801
97 -1496 424 -2054 967 -284 277 -491 557 -670 910 -280 550 -432 1166 -498
2020 -17 217 -17 991 0 1210 65 852 216 1468 493 2023 498 993 1427 1672 2516
1837 925 140 1665 -104 2290 -754 571 -594 940 -1431 1067 -2422 15 -120 29
-189 40 -206 32 -49 69 -58 238 -58 174 0 207 10 240 71 17 32 18 113 18 1929
0 1816 -1 1897 -18 1929 -27 50 -73 71 -157 71 -50 0 -78 -5 -100 -19 -19 -11
-182 -228 -430 -571 -220 -304 -403 -557 -406 -561 -3 -5 -81 66 -175 159
-256 254 -503 442 -789 600 -378 209 -827 345 -1260 382 -140 11 -440 11 -605
-1z"/>
</g>
</svg>
