<?xml version="1.0" standalone="no"?>
<!DOCTYPE svg PUBLIC "-//W3C//DTD SVG 20010904//EN"
 "http://www.w3.org/TR/2001/REC-SVG-20010904/DTD/svg10.dtd">
<svg version="1.0" xmlns="http://www.w3.org/2000/svg"
 width="941.000000pt" height="1264.000000pt" viewBox="0 0 941.000000 1264.000000"
 preserveAspectRatio="xMidYMid meet">
<metadata>
Created by potrace 1.16, written by Peter Selinger 2001-2019
</metadata>
<g transform="translate(0.000000,1264.000000) scale(0.100000,-0.100000)"
fill="#000000" stroke="none">
<path d="M2670 12595 c0 -222 73 -511 185 -735 298 -595 897 -1002 1645 -1117
85 -13 175 -18 340 -18 307 0 518 34 790 127 531 181 963 545 1195 1008 112
224 185 513 185 735 l0 45 -254 0 -253 0 -7 -77 c-15 -180 -88 -373 -195 -514
-504 -662 -1835 -804 -2622 -278 -294 197 -469 476 -495 792 l-7 77 -253 0
-254 0 0 -45z"/>
<path d="M4560 10063 c-461 -26 -995 -146 -1455 -328 -160 -63 -511 -236 -658
-324 -385 -230 -672 -457 -992 -783 -189 -192 -291 -309 -429 -493 -1005
-1340 -1294 -3121 -767 -4722 206 -628 512 -1182 932 -1688 115 -138 420 -446
563 -568 220 -189 439 -346 693 -498 147 -88 498 -261 658 -324 396 -157 812
-260 1250 -311 186 -22 719 -26 895 -6 694 76 1303 302 1720 639 96 78 271
259 334 344 l48 66 166 -167 c173 -173 300 -279 510 -428 171 -121 240 -162
276 -162 45 0 97 31 118 71 17 32 18 97 18 1425 0 1507 -2 1439 54 1524 59 90
193 117 629 127 l277 6 0 310 0 309 -102 -6 c-676 -41 -2886 -41 -3865 0
l-153 7 0 -312 0 -311 318 0 c360 0 789 -14 967 -31 251 -24 374 -80 426 -194
17 -37 19 -81 19 -685 0 -711 -3 -763 -60 -932 -167 -499 -704 -874 -1395
-974 -236 -34 -575 -28 -870 16 -395 58 -720 158 -1070 330 -610 299 -1090
747 -1425 1334 -379 662 -570 1570 -570 2711 0 1813 461 2976 1477 3732 311
232 709 427 1090 537 639 184 1368 192 2018 21 877 -229 1455 -748 1604 -1439
38 -173 44 -176 323 -176 229 0 255 6 290 71 17 32 18 87 18 1109 0 1022 -1
1077 -18 1109 -29 53 -72 71 -173 71 -104 0 -44 36 -559 -339 l-374 -274 -41
23 c-107 61 -350 182 -430 216 -610 251 -1299 378 -2020 372 -115 -1 -235 -3
-265 -5z"/>
</g>
</svg>
