<?xml version="1.0" standalone="no"?>
<!DOCTYPE svg PUBLIC "-//W3C//DTD SVG 20010904//EN"
 "http://www.w3.org/TR/2001/REC-SVG-20010904/DTD/svg10.dtd">
<svg version="1.0" xmlns="http://www.w3.org/2000/svg"
 width="417.000000pt" height="979.000000pt" viewBox="0 0 417.000000 979.000000"
 preserveAspectRatio="xMidYMid meet">
<metadata>
Created by potrace 1.16, written by Peter Selinger 2001-2019
</metadata>
<g transform="translate(0.000000,979.000000) scale(0.100000,-0.100000)"
fill="#000000" stroke="none">
<path d="M3100 9775 c-223 -50 -390 -178 -481 -370 -59 -123 -74 -191 -74
-335 0 -144 15 -212 74 -335 114 -240 355 -385 641 -385 202 0 417 87 529 216
l33 37 -7 -69 c-3 -38 -15 -123 -25 -189 -85 -538 -406 -1033 -865 -1335 -169
-112 -166 -109 -181 -147 -22 -52 -9 -99 45 -156 49 -53 92 -77 138 -77 71 0
366 213 548 395 297 296 506 664 610 1070 56 219 69 326 70 555 0 179 -3 218
-23 309 -58 258 -163 455 -324 607 -98 91 -184 143 -308 185 -81 27 -112 32
-215 35 -80 3 -142 -1 -185 -11z"/>
<path d="M955 9144 c-512 -40 -936 -73 -942 -73 -10 -1 -13 -53 -13 -224 l0
-224 218 -6 c562 -15 719 -90 790 -375 15 -62 17 -362 20 -3737 2 -2643 0
-3688 -8 -3735 -22 -128 -77 -208 -171 -249 -96 -43 -365 -71 -681 -71 l-168
0 0 -226 0 -226 92 6 c585 39 2211 39 2796 0 l92 -6 0 226 0 226 -167 0 c-317
0 -586 28 -682 71 -56 24 -106 71 -133 123 -50 98 -48 -136 -48 4374 l0 4202
-32 -1 c-18 -1 -451 -34 -963 -75z"/>
</g>
</svg>
