<?xml version="1.0" standalone="no"?>
<!DOCTYPE svg PUBLIC "-//W3C//DTD SVG 20010904//EN"
 "http://www.w3.org/TR/2001/REC-SVG-20010904/DTD/svg10.dtd">
<svg version="1.0" xmlns="http://www.w3.org/2000/svg"
 width="538.000000pt" height="1384.000000pt" viewBox="0 0 538.000000 1384.000000"
 preserveAspectRatio="xMidYMid meet">
<metadata>
Created by potrace 1.16, written by Peter Selinger 2001-2019
</metadata>
<g transform="translate(0.000000,1384.000000) scale(0.100000,-0.100000)"
fill="#000000" stroke="none">
<path d="M175 13827 c-109 -42 -175 -134 -175 -243 0 -33 590 -1663 2431
-6712 1337 -3667 2440 -6689 2451 -6715 27 -61 102 -130 162 -147 157 -44 312
66 324 230 4 53 -107 358 -2427 6725 -1338 3669 -2445 6698 -2462 6732 -32 66
-79 108 -148 131 -43 15 -117 14 -156 -1z"/>
</g>
</svg>
