<?xml version="1.0" standalone="no"?>
<!DOCTYPE svg PUBLIC "-//W3C//DTD SVG 20010904//EN"
 "http://www.w3.org/TR/2001/REC-SVG-20010904/DTD/svg10.dtd">
<svg version="1.0" xmlns="http://www.w3.org/2000/svg"
 width="922.000000pt" height="1109.000000pt" viewBox="0 0 922.000000 1109.000000"
 preserveAspectRatio="xMidYMid meet">
<metadata>
Created by potrace 1.16, written by Peter Selinger 2001-2019
</metadata>
<g transform="translate(0.000000,1109.000000) scale(0.100000,-0.100000)"
fill="#000000" stroke="none">
<path d="M7743 11078 c-6 -7 -182 -286 -390 -619 l-379 -606 -34 24 c-128 89
-416 245 -610 331 -1123 496 -2327 496 -3450 0 -241 -106 -446 -221 -695 -389
-874 -591 -1545 -1493 -1900 -2554 -179 -534 -267 -1049 -282 -1635 -32 -1307
407 -2564 1233 -3530 108 -127 399 -419 487 -490 31 -25 56 -47 56 -50 1 -3
-176 -288 -393 -634 l-393 -630 228 -144 c126 -79 233 -141 238 -137 6 3 175
270 377 593 202 323 372 594 378 603 10 14 28 6 151 -68 165 -100 491 -262
660 -328 364 -143 730 -234 1133 -282 109 -13 225 -17 447 -17 321 0 460 11
737 60 883 154 1718 595 2378 1254 672 671 1134 1513 1354 2470 174 761 180
1584 15 2365 -206 978 -682 1877 -1355 2561 -76 78 -179 177 -227 220 l-89 80
400 639 399 639 -221 139 c-121 77 -226 141 -232 144 -6 2 -16 -2 -21 -9z
m-2728 -1038 c503 -76 942 -260 1348 -567 67 -50 150 -118 184 -150 l61 -58
-2196 -3507 c-1208 -1930 -2199 -3508 -2202 -3508 -3 0 -40 54 -82 119 -493
755 -699 1683 -698 3146 1 1427 192 2349 643 3094 251 414 603 774 999 1020
391 245 852 396 1323 435 126 10 483 -4 620 -24z m2041 -1303 c364 -551 574
-1192 668 -2037 66 -589 75 -1503 21 -2145 -78 -926 -289 -1618 -669 -2195
-486 -737 -1254 -1212 -2136 -1322 -136 -17 -534 -17 -670 0 -590 73 -1126
307 -1574 686 -99 84 -105 91 -92 110 7 12 995 1590 2196 3509 1200 1918 2185
3487 2189 3487 3 0 33 -42 67 -93z"/>
</g>
</svg>
