<?xml version="1.0" standalone="no"?>
<!DOCTYPE svg PUBLIC "-//W3C//DTD SVG 20010904//EN"
 "http://www.w3.org/TR/2001/REC-SVG-20010904/DTD/svg10.dtd">
<svg version="1.0" xmlns="http://www.w3.org/2000/svg"
 width="676.000000pt" height="1196.000000pt" viewBox="0 0 676.000000 1196.000000"
 preserveAspectRatio="xMidYMid meet">
<metadata>
Created by potrace 1.16, written by Peter Selinger 2001-2019
</metadata>
<g transform="translate(0.000000,1196.000000) scale(0.100000,-0.100000)"
fill="#000000" stroke="none">
<path d="M1880 11945 c-309 -66 -548 -303 -611 -607 -24 -117 -24 -199 0 -316
49 -237 212 -443 431 -546 117 -55 187 -70 330 -71 152 0 214 15 358 86 86 42
117 64 186 132 159 159 236 340 236 557 0 217 -77 398 -236 557 -69 68 -100
90 -186 132 -57 28 -130 58 -163 67 -82 22 -263 27 -345 9z"/>
<path d="M4570 11946 c-89 -20 -130 -36 -225 -84 -68 -35 -108 -65 -170 -127
-158 -157 -235 -338 -235 -555 0 -217 77 -398 236 -557 69 -68 100 -90 186
-132 144 -71 206 -86 358 -86 190 1 328 47 478 162 180 138 302 385 302 613 0
163 -67 350 -174 487 -94 121 -257 227 -411 269 -80 21 -274 27 -345 10z"/>
<path d="M0 8541 l0 -261 158 0 c324 0 579 -32 687 -85 73 -35 166 -137 214
-233 21 -42 496 -1212 1056 -2600 l1017 -2522 -242 -603 c-369 -918 -488
-1140 -765 -1426 -195 -201 -375 -311 -612 -372 -72 -19 -115 -23 -238 -23
-174 -1 -252 16 -392 85 -116 57 -118 62 -32 89 73 24 157 73 222 129 55 49
122 156 153 246 25 72 28 93 28 215 1 102 -4 150 -18 195 -59 198 -205 346
-401 408 -101 32 -309 32 -410 0 -196 -62 -341 -210 -401 -408 -23 -73 -26
-306 -6 -400 90 -417 387 -752 798 -898 151 -54 264 -72 454 -72 197 1 285 14
454 69 534 175 1017 689 1354 1441 27 61 586 1439 1241 3064 656 1625 1208
2986 1228 3025 127 256 330 452 574 558 156 67 315 102 522 114 l107 7 0 260
0 260 -57 -6 c-390 -42 -1660 -42 -2200 -1 l-83 6 0 -259 0 -260 76 -6 c177
-15 313 -74 420 -181 81 -81 117 -147 140 -256 16 -77 14 -173 -7 -255 -5 -22
-312 -790 -682 -1707 -461 -1146 -674 -1663 -680 -1653 -23 42 -1479 3664
-1487 3701 -14 60 4 134 44 187 78 103 316 167 617 167 l99 0 0 261 0 261 -92
-6 c-605 -41 -2271 -40 -2780 0 l-78 7 0 -262z"/>
</g>
</svg>
