<?xml version="1.0" standalone="no"?>
<!DOCTYPE svg PUBLIC "-//W3C//DTD SVG 20010904//EN"
 "http://www.w3.org/TR/2001/REC-SVG-20010904/DTD/svg10.dtd">
<svg version="1.0" xmlns="http://www.w3.org/2000/svg"
 width="312.000000pt" height="1328.000000pt" viewBox="0 0 312.000000 1328.000000"
 preserveAspectRatio="xMidYMid meet">
<metadata>
Created by potrace 1.16, written by Peter Selinger 2001-2019
</metadata>
<g transform="translate(0.000000,1328.000000) scale(0.100000,-0.100000)"
fill="#000000" stroke="none">
<path d="M80 13269 c-37 -15 -58 -38 -71 -76 -24 -73 -12 -92 189 -297 326
-332 570 -639 812 -1021 483 -760 835 -1664 1045 -2685 323 -1569 323 -3531 0
-5100 -210 -1021 -562 -1925 -1045 -2685 -242 -382 -486 -689 -812 -1021 -204
-208 -215 -226 -187 -301 21 -55 58 -77 139 -81 38 -2 81 -1 94 2 54 13 408
319 646 558 1165 1168 1911 2831 2144 4778 133 1111 91 2292 -120 3363 -348
1767 -1144 3247 -2299 4276 -142 127 -317 271 -352 289 -26 14 -148 15 -183 1z"/>
</g>
</svg>
