<?xml version="1.0" standalone="no"?>
<!DOCTYPE svg PUBLIC "-//W3C//DTD SVG 20010904//EN"
 "http://www.w3.org/TR/2001/REC-SVG-20010904/DTD/svg10.dtd">
<svg version="1.0" xmlns="http://www.w3.org/2000/svg"
 width="554.000000pt" height="954.000000pt" viewBox="0 0 554.000000 954.000000"
 preserveAspectRatio="xMidYMid meet">
<metadata>
Created by potrace 1.16, written by Peter Selinger 2001-2019
</metadata>
<g transform="translate(0.000000,954.000000) scale(0.100000,-0.100000)"
fill="#000000" stroke="none">
<path d="M729 9517 c-19 -12 -42 -38 -52 -57 -16 -33 -17 -162 -15 -2382 l3
-2347 21 -27 c45 -61 66 -69 193 -72 175 -5 174 -6 300 188 94 145 169 236
303 365 238 230 506 379 833 463 190 49 326 66 535 66 143 0 201 -4 254 -17
370 -93 687 -393 872 -826 109 -253 170 -543 206 -976 17 -209 17 -1240 0
-1435 -41 -463 -116 -767 -259 -1050 -93 -184 -179 -306 -318 -446 -162 -163
-320 -272 -518 -357 -441 -190 -999 -162 -1482 73 -386 187 -707 499 -910 882
-48 92 -115 241 -115 257 0 3 66 6 148 6 126 0 158 3 222 23 128 40 206 87
301 182 135 134 195 274 206 480 21 402 -235 708 -637 762 -70 9 -110 9 -180
0 -332 -45 -562 -254 -626 -572 -29 -147 -9 -462 46 -710 81 -364 241 -713
462 -1009 87 -115 311 -348 423 -438 336 -272 731 -446 1180 -520 152 -25 555
-25 735 0 677 95 1285 395 1762 871 522 520 839 1208 899 1951 14 178 7 484
-16 664 -90 708 -386 1353 -840 1830 -317 333 -742 591 -1161 706 -354 97
-738 111 -1107 39 -445 -87 -791 -258 -1134 -562 l-83 -73 0 1281 c0 704 3
1280 8 1280 4 0 39 -9 77 -20 105 -30 392 -87 545 -107 189 -25 710 -25 887 0
637 90 1211 334 1695 719 191 152 522 494 581 601 25 46 24 218 -1 266 -21 39
-73 71 -115 71 -15 0 -83 -24 -150 -54 -1187 -524 -2546 -527 -3747 -6 -77 33
-152 60 -168 60 -16 0 -44 -10 -63 -23z"/>
</g>
</svg>
