<?xml version="1.0" standalone="no"?>
<!DOCTYPE svg PUBLIC "-//W3C//DTD SVG 20010904//EN"
 "http://www.w3.org/TR/2001/REC-SVG-20010904/DTD/svg10.dtd">
<svg version="1.0" xmlns="http://www.w3.org/2000/svg"
 width="699.000000pt" height="1208.000000pt" viewBox="0 0 699.000000 1208.000000"
 preserveAspectRatio="xMidYMid meet">
<metadata>
Created by potrace 1.16, written by Peter Selinger 2001-2019
</metadata>
<g transform="translate(0.000000,1208.000000) scale(0.100000,-0.100000)"
fill="#000000" stroke="none">
<path d="M3675 12063 c-285 -60 -523 -288 -596 -570 -28 -107 -28 -279 0 -386
74 -285 313 -512 603 -571 335 -69 685 99 842 404 65 125 87 217 87 360 0 143
-22 235 -87 360 -158 306 -513 475 -849 403z"/>
<path d="M340 9447 c0 -1 -34 -722 -75 -1602 -41 -880 -75 -1601 -75 -1602 0
-2 101 -3 224 -3 l224 0 6 98 c55 809 180 1280 445 1678 189 284 410 476 725
630 281 137 607 218 1076 265 117 12 2460 26 2460 15 0 -3 -1200 -1912 -2666
-4242 -1466 -2330 -2670 -4249 -2676 -4265 -5 -15 -8 -93 -6 -173 3 -157 8
-173 72 -220 l27 -21 3324 -3 3323 -2 7 82 c3 46 53 861 110 1813 57 952 107
1767 110 1813 l7 82 -225 0 -225 0 -6 -82 c-4 -46 -13 -180 -21 -298 -54 -778
-158 -1281 -346 -1678 -298 -630 -847 -990 -1702 -1117 -315 -46 -370 -48
-1664 -52 -678 -2 -1233 -1 -1233 2 0 4 1191 1900 2647 4214 1456 2313 2658
4225 2671 4248 22 40 23 51 20 182 -3 152 -9 168 -72 215 l-27 21 -3230 3
c-1776 1 -3229 1 -3229 -1z"/>
</g>
</svg>
