<?xml version="1.0" standalone="no"?>
<!DOCTYPE svg PUBLIC "-//W3C//DTD SVG 20010904//EN"
 "http://www.w3.org/TR/2001/REC-SVG-20010904/DTD/svg10.dtd">
<svg version="1.0" xmlns="http://www.w3.org/2000/svg"
 width="454.000000pt" height="913.000000pt" viewBox="0 0 454.000000 913.000000"
 preserveAspectRatio="xMidYMid meet">
<metadata>
Created by potrace 1.16, written by Peter Selinger 2001-2019
</metadata>
<g transform="translate(0.000000,913.000000) scale(0.100000,-0.100000)"
fill="#000000" stroke="none">
<path d="M154 8994 c-66 -75 -120 -139 -121 -142 -1 -4 461 -473 1027 -1042
l1028 -1035 62 60 c34 33 498 500 1032 1037 l970 978 -85 97 c-47 54 -102 117
-123 140 l-39 42 -907 -659 -908 -660 -877 637 c-483 350 -892 647 -909 660
l-32 24 -118 -137z"/>
<path d="M1925 6333 c-657 -34 -1158 -216 -1480 -538 -116 -116 -185 -212
-260 -363 -202 -406 -242 -930 -100 -1322 91 -249 289 -521 514 -702 211 -170
492 -320 772 -412 173 -57 238 -72 1019 -225 377 -74 485 -104 646 -181 293
-141 538 -383 640 -635 56 -135 68 -208 68 -390 -1 -638 -313 -1006 -949
-1115 -270 -46 -637 -51 -869 -10 -735 127 -1219 715 -1451 1761 -20 88 -42
171 -51 184 -28 43 -72 55 -201 55 -133 0 -166 -12 -203 -72 -20 -32 -20 -53
-20 -1148 0 -1061 1 -1117 18 -1149 27 -50 73 -71 155 -71 39 0 80 6 95 14 15
8 142 134 282 280 140 146 256 266 258 266 2 0 36 -30 76 -66 304 -275 699
-441 1156 -485 138 -13 533 -7 705 11 332 35 629 115 866 234 445 223 716 567
844 1070 55 216 69 341 70 601 0 259 -14 360 -81 563 -192 589 -706 1073
-1371 1292 -155 51 -234 68 -981 214 -504 99 -668 154 -887 298 -88 57 -227
186 -280 257 -47 65 -100 175 -121 251 -24 85 -24 313 -1 416 70 310 244 508
554 631 212 84 436 116 818 117 289 1 359 -5 520 -46 386 -97 678 -321 854
-657 109 -209 181 -519 181 -780 0 -80 21 -126 71 -153 27 -15 57 -18 154 -18
138 0 176 13 207 71 17 32 18 81 18 944 0 863 -1 912 -18 944 -27 50 -73 71
-157 71 -51 0 -78 -5 -100 -19 -16 -10 -113 -89 -215 -176 -102 -86 -190 -159
-196 -161 -6 -3 -50 20 -98 51 -238 156 -562 262 -890 294 -99 10 -426 12
-581 4z"/>
</g>
</svg>
