<?xml version="1.0" standalone="no"?>
<!DOCTYPE svg PUBLIC "-//W3C//DTD SVG 20010904//EN"
 "http://www.w3.org/TR/2001/REC-SVG-20010904/DTD/svg10.dtd">
<svg version="1.0" xmlns="http://www.w3.org/2000/svg"
 width="470.000000pt" height="205.000000pt" viewBox="0 0 470.000000 205.000000"
 preserveAspectRatio="xMidYMid meet">
<metadata>
Created by potrace 1.16, written by Peter Selinger 2001-2019
</metadata>
<g transform="translate(0.000000,205.000000) scale(0.100000,-0.100000)"
fill="#000000" stroke="none">
<path d="M1865 2036 c-75 -24 -142 -65 -216 -133 -41 -37 -429 -413 -862 -836
l-788 -769 24 -32 c13 -17 63 -84 111 -148 84 -112 89 -117 109 -104 12 8 450
256 972 551 523 295 982 557 1022 581 206 128 283 330 208 553 -34 104 -143
234 -245 293 -94 55 -241 74 -335 44z"/>
<path d="M4075 2036 c-75 -24 -142 -65 -216 -133 -41 -37 -429 -413 -862 -836
l-788 -769 24 -32 c13 -17 63 -84 111 -148 84 -112 89 -117 109 -104 12 8 450
256 972 551 523 295 982 557 1022 581 206 128 283 330 208 553 -34 104 -143
234 -245 293 -94 55 -241 74 -335 44z"/>
</g>
</svg>
