<?xml version="1.0" standalone="no"?>
<!DOCTYPE svg PUBLIC "-//W3C//DTD SVG 20010904//EN"
 "http://www.w3.org/TR/2001/REC-SVG-20010904/DTD/svg10.dtd">
<svg version="1.0" xmlns="http://www.w3.org/2000/svg"
 width="317.000000pt" height="961.000000pt" viewBox="0 0 317.000000 961.000000"
 preserveAspectRatio="xMidYMid meet">
<metadata>
Created by potrace 1.16, written by Peter Selinger 2001-2019
</metadata>
<g transform="translate(0.000000,961.000000) scale(0.100000,-0.100000)"
fill="#000000" stroke="none">
<path d="M1030 9535 c-547 -41 -1003 -74 -1012 -74 -17 -1 -18 -20 -18 -261
l0 -260 138 0 c186 0 396 -17 517 -41 237 -48 342 -144 393 -361 16 -68 17
-322 17 -3898 0 -3663 -1 -3827 -18 -3877 -66 -188 -190 -227 -770 -240 l-277
-6 0 -260 0 -259 92 6 c602 41 2374 41 2976 0 l92 -6 0 259 0 260 -277 6
c-573 13 -692 49 -766 229 l-22 53 -3 4403 -2 4402 -33 -1 c-17 -1 -480 -34
-1027 -74z"/>
</g>
</svg>
