<?xml version="1.0" standalone="no"?>
<!DOCTYPE svg PUBLIC "-//W3C//DTD SVG 20010904//EN"
 "http://www.w3.org/TR/2001/REC-SVG-20010904/DTD/svg10.dtd">
<svg version="1.0" xmlns="http://www.w3.org/2000/svg"
 width="845.000000pt" height="1313.000000pt" viewBox="0 0 845.000000 1313.000000"
 preserveAspectRatio="xMidYMid meet">
<metadata>
Created by potrace 1.16, written by Peter Selinger 2001-2019
</metadata>
<g transform="translate(0.000000,1313.000000) scale(0.100000,-0.100000)"
fill="#000000" stroke="none">
<path d="M3281 12943 c-94 -130 -131 -190 -125 -199 12 -17 1956 -1654 1964
-1654 8 0 1952 1637 1964 1654 7 9 -28 66 -119 192 -71 99 -132 183 -136 188
-4 4 -390 -213 -858 -483 l-851 -492 -849 491 c-467 269 -851 490 -853 490 -2
0 -63 -84 -137 -187z"/>
<path d="M4560 10063 c-461 -26 -995 -146 -1455 -328 -160 -63 -511 -236 -658
-324 -385 -230 -672 -457 -992 -783 -189 -192 -291 -309 -429 -493 -1005
-1340 -1294 -3121 -767 -4722 206 -628 512 -1182 932 -1688 115 -138 420 -446
563 -568 325 -279 634 -482 1021 -672 327 -160 603 -262 950 -348 382 -96 667
-130 1080 -131 317 -1 413 6 655 50 895 163 1699 672 2247 1421 222 304 421
693 540 1053 113 343 177 705 189 1059 5 161 4 179 -13 210 -35 63 -66 71
-258 71 -259 0 -268 -8 -278 -257 -43 -1023 -489 -1926 -1229 -2484 -467 -352
-1011 -524 -1603 -505 -518 15 -981 125 -1421 336 -356 170 -626 362 -909 645
-385 385 -630 787 -820 1346 -188 554 -285 1267 -285 2089 1 1597 345 2672
1095 3426 545 547 1237 873 2050 966 171 19 546 16 685 -6 658 -103 1219 -488
1650 -1131 369 -551 604 -1220 704 -2006 34 -274 28 -269 328 -269 229 0 255
6 290 71 17 32 18 113 18 1954 0 1841 -1 1922 -18 1954 -29 53 -72 71 -172 71
-65 0 -92 -4 -115 -18 -17 -11 -208 -253 -444 -565 l-413 -545 -92 95 c-504
528 -1168 885 -1846 992 -232 37 -513 49 -780 34z"/>
</g>
</svg>
