<?xml version="1.0" standalone="no"?>
<!DOCTYPE svg PUBLIC "-//W3C//DTD SVG 20010904//EN"
 "http://www.w3.org/TR/2001/REC-SVG-20010904/DTD/svg10.dtd">
<svg version="1.0" xmlns="http://www.w3.org/2000/svg"
 width="454.000000pt" height="911.000000pt" viewBox="0 0 454.000000 911.000000"
 preserveAspectRatio="xMidYMid meet">
<metadata>
Created by potrace 1.16, written by Peter Selinger 2001-2019
</metadata>
<g transform="translate(0.000000,911.000000) scale(0.100000,-0.100000)"
fill="#000000" stroke="none">
<path d="M1950 9104 c-261 -21 -331 -28 -430 -45 -798 -135 -1280 -531 -1453
-1194 -49 -185 -61 -284 -61 -510 -1 -185 2 -222 22 -314 75 -335 240 -615
507 -862 224 -206 521 -376 847 -484 170 -56 252 -74 995 -219 183 -36 374
-79 425 -96 426 -143 742 -451 823 -801 73 -320 -23 -736 -217 -944 -167 -179
-378 -277 -703 -327 -204 -31 -599 -31 -765 -1 -213 40 -386 108 -549 217
-393 262 -668 736 -820 1410 -17 75 -38 147 -46 160 -32 48 -69 56 -252 56
-188 0 -213 -7 -253 -72 -20 -32 -20 -53 -20 -1118 0 -1032 1 -1087 18 -1119
29 -53 72 -71 172 -71 49 1 95 6 108 13 12 7 139 124 282 260 l260 248 72 -61
c176 -149 425 -285 651 -355 l127 -40 0 -447 0 -448 49 0 c213 0 515 -64 687
-146 321 -152 468 -423 388 -714 -75 -271 -404 -442 -984 -514 -240 -30 -378
-37 -775 -42 -220 -2 -428 -7 -462 -10 l-63 -6 0 -251 0 -252 412 2 c685 4
1123 27 1506 79 802 108 1270 342 1457 727 155 323 112 724 -109 1003 -176
223 -492 399 -904 504 l-42 11 2 236 3 236 106 18 c654 110 1120 423 1359 914
126 257 194 555 207 906 13 358 -47 629 -208 938 -83 161 -173 284 -314 430
-200 206 -377 336 -630 461 -223 111 -417 170 -810 246 -917 180 -927 182
-1112 269 -392 184 -590 464 -569 805 29 480 307 741 883 827 174 26 648 25
788 -1 298 -55 522 -168 710 -360 229 -234 337 -508 363 -921 13 -206 25 -215
279 -215 190 0 221 9 255 71 17 32 18 81 18 924 0 843 -1 892 -18 924 -29 53
-72 71 -172 71 -102 0 -83 10 -339 -188 l-194 -150 -66 43 c-197 127 -469 225
-756 270 -95 16 -568 29 -685 19z"/>
</g>
</svg>
