<?xml version="1.0" standalone="no"?>
<!DOCTYPE svg PUBLIC "-//W3C//DTD SVG 20010904//EN"
 "http://www.w3.org/TR/2001/REC-SVG-20010904/DTD/svg10.dtd">
<svg version="1.0" xmlns="http://www.w3.org/2000/svg"
 width="1006.000000pt" height="1197.000000pt" viewBox="0 0 1006.000000 1197.000000"
 preserveAspectRatio="xMidYMid meet">
<metadata>
Created by potrace 1.16, written by Peter Selinger 2001-2019
</metadata>
<g transform="translate(0.000000,1197.000000) scale(0.100000,-0.100000)"
fill="#000000" stroke="none">
<path d="M6439 11956 c-25 -7 -72 -25 -105 -40 -64 -29 -1993 -1247 -1994
-1258 0 -6 218 -489 224 -495 1 -2 495 146 1097 328 721 217 1122 343 1175
368 148 71 259 202 295 351 18 75 16 211 -5 290 -59 223 -227 404 -423 455
-68 18 -200 18 -264 1z"/>
<path d="M0 9141 l0 -311 238 0 c294 0 637 -16 788 -35 122 -16 211 -44 290
-90 120 -70 63 21 1587 -2533 l1427 -2392 -2 -1463 c-3 -1635 4 -1485 -74
-1561 -103 -100 -263 -123 -941 -133 l-403 -6 0 -310 0 -310 128 7 c819 41
3155 41 3975 0 l127 -7 0 310 0 310 -402 6 c-548 8 -760 27 -864 78 -55 26
-127 105 -142 157 -9 29 -12 396 -12 1479 l0 1440 1306 2188 c718 1204 1324
2216 1347 2249 59 89 199 223 306 294 295 197 676 299 1199 319 l172 6 0 310
0 309 -82 -6 c-540 -41 -2271 -41 -2970 0 l-108 7 0 -312 0 -311 53 0 c76 0
221 -19 304 -40 166 -43 325 -155 379 -268 39 -80 45 -201 15 -289 -13 -39
-400 -697 -1087 -1850 -587 -983 -1070 -1792 -1074 -1796 -6 -7 -2358 3921
-2376 3967 -20 51 34 139 109 178 118 60 389 98 698 98 l139 0 0 311 0 312
-127 -7 c-826 -41 -3117 -41 -3815 0 l-108 7 0 -312z"/>
</g>
</svg>
