<?xml version="1.0" standalone="no"?>
<!DOCTYPE svg PUBLIC "-//W3C//DTD SVG 20010904//EN"
 "http://www.w3.org/TR/2001/REC-SVG-20010904/DTD/svg10.dtd">
<svg version="1.0" xmlns="http://www.w3.org/2000/svg"
 width="569.000000pt" height="860.000000pt" viewBox="0 0 569.000000 860.000000"
 preserveAspectRatio="xMidYMid meet">
<metadata>
Created by potrace 1.16, written by Peter Selinger 2001-2019
</metadata>
<g transform="translate(0.000000,860.000000) scale(0.100000,-0.100000)"
fill="#000000" stroke="none">
<path d="M945 8524 c-506 -40 -926 -73 -932 -73 -10 -1 -13 -53 -13 -224 l0
-224 218 -6 c562 -15 719 -90 790 -375 15 -61 17 -251 20 -2062 2 -1428 0
-2013 -8 -2060 -22 -127 -78 -210 -170 -249 -100 -43 -366 -71 -682 -71 l-168
0 0 -226 0 -226 98 6 c617 39 2207 39 2825 0 l97 -6 0 226 0 226 -167 0 c-317
0 -586 28 -682 71 -94 41 -149 121 -171 249 -8 47 -10 482 -7 1525 3 1622 -1
1515 72 1801 137 535 485 997 935 1242 281 153 640 221 930 178 444 -67 681
-365 767 -961 15 -110 17 -316 21 -2495 3 -2400 0 -2763 -33 -3134 -46 -527
-138 -866 -291 -1082 -81 -115 -188 -189 -316 -219 -158 -37 -438 -1 -657 86
-75 30 -81 34 -60 42 13 5 61 27 107 49 345 164 442 652 192 966 -137 171
-391 255 -627 206 -247 -51 -424 -226 -479 -472 -24 -106 -15 -275 20 -395 31
-103 81 -208 141 -292 60 -83 205 -221 299 -285 376 -251 946 -330 1368 -189
555 186 952 719 1158 1554 70 285 110 563 130 910 16 277 9 4519 -8 4630 -40
259 -93 446 -177 620 -70 146 -157 265 -274 378 -189 181 -389 286 -685 362
-211 54 -353 69 -651 69 -288 1 -355 -7 -580 -69 -550 -152 -1031 -552 -1312
-1090 l-62 -120 -1 643 0 642 -27 -1 c-16 -1 -442 -34 -948 -75z"/>
</g>
</svg>
