<?xml version="1.0" standalone="no"?>
<!DOCTYPE svg PUBLIC "-//W3C//DTD SVG 20010904//EN"
 "http://www.w3.org/TR/2001/REC-SVG-20010904/DTD/svg10.dtd">
<svg version="1.0" xmlns="http://www.w3.org/2000/svg"
 width="512.000000pt" height="1384.000000pt" viewBox="0 0 512.000000 1384.000000"
 preserveAspectRatio="xMidYMid meet">
<metadata>
Created by potrace 1.16, written by Peter Selinger 2001-2019
</metadata>
<g transform="translate(0.000000,1384.000000) scale(0.100000,-0.100000)"
fill="#000000" stroke="none">
<path d="M72 13821 c-63 -41 -72 -68 -72 -236 0 -234 13 -248 247 -259 706
-32 1296 -306 1570 -728 58 -90 100 -183 131 -298 l27 -95 5 -1855 6 -1855 23
-100 c78 -346 216 -591 477 -846 262 -256 607 -449 1041 -586 68 -21 123 -40
123 -43 0 -3 -55 -22 -123 -43 -434 -137 -779 -330 -1041 -586 -261 -255 -399
-500 -477 -846 l-23 -100 -6 -1855 -5 -1855 -27 -95 c-65 -236 -192 -424 -399
-590 -323 -260 -779 -413 -1302 -436 -234 -11 -247 -25 -247 -259 0 -168 9
-195 72 -236 32 -20 42 -20 348 -15 463 7 742 42 1115 141 828 218 1371 652
1545 1235 57 192 53 56 60 2075 l6 1860 22 97 c12 54 34 131 48 170 219 609
875 1038 1646 1077 171 8 193 15 228 74 30 48 30 326 0 374 -35 59 -57 66
-228 74 -771 39 -1427 468 -1646 1077 -14 39 -36 116 -48 170 l-22 97 -6 1860
c-7 2019 -3 1883 -60 2075 -174 583 -717 1017 -1545 1235 -373 99 -652 134
-1115 141 -306 5 -316 5 -348 -15z"/>
</g>
</svg>
