<?xml version="1.0" standalone="no"?>
<!DOCTYPE svg PUBLIC "-//W3C//DTD SVG 20010904//EN"
 "http://www.w3.org/TR/2001/REC-SVG-20010904/DTD/svg10.dtd">
<svg version="1.0" xmlns="http://www.w3.org/2000/svg"
 width="986.000000pt" height="976.000000pt" viewBox="0 0 986.000000 976.000000"
 preserveAspectRatio="xMidYMid meet">
<metadata>
Created by potrace 1.16, written by Peter Selinger 2001-2019
</metadata>
<g transform="translate(0.000000,976.000000) scale(0.100000,-0.100000)"
fill="#000000" stroke="none">
<path d="M0 9453 l0 -310 353 -6 c486 -9 674 -29 787 -84 60 -29 148 -111 174
-160 8 -17 731 -1972 1605 -4345 874 -2372 1599 -4340 1611 -4373 28 -73 96
-145 156 -163 56 -16 422 -16 478 0 60 18 128 90 156 163 12 33 705 1915 1541
4182 835 2268 1534 4154 1553 4192 106 209 318 380 591 474 201 69 401 103
681 114 l164 6 0 310 0 309 -82 -6 c-540 -41 -2247 -41 -2940 0 l-108 7 0
-312 0 -311 53 0 c207 0 446 -52 612 -134 166 -82 248 -158 309 -286 27 -57
31 -75 30 -150 l0 -85 -1188 -3220 c-653 -1770 -1191 -3225 -1195 -3232 -4 -8
-512 1357 -1254 3369 -686 1861 -1254 3404 -1263 3430 -15 46 -15 50 6 92 40
84 157 136 390 175 155 26 366 41 573 41 l157 0 0 311 0 312 -127 -7 c-824
-41 -3019 -41 -3715 0 l-108 7 0 -310z"/>
</g>
</svg>
