<?xml version="1.0" standalone="no"?>
<!DOCTYPE svg PUBLIC "-//W3C//DTD SVG 20010904//EN"
 "http://www.w3.org/TR/2001/REC-SVG-20010904/DTD/svg10.dtd">
<svg version="1.0" xmlns="http://www.w3.org/2000/svg"
 width="499.000000pt" height="976.000000pt" viewBox="0 0 499.000000 976.000000"
 preserveAspectRatio="xMidYMid meet">
<metadata>
Created by potrace 1.16, written by Peter Selinger 2001-2019
</metadata>
<g transform="translate(0.000000,976.000000) scale(0.100000,-0.100000)"
fill="#000000" stroke="none">
<path d="M2080 9753 c-25 -2 -108 -12 -185 -23 -432 -61 -859 -237 -1190 -489
-100 -75 -283 -260 -360 -362 -222 -294 -345 -653 -345 -1004 0 -124 23 -225
76 -334 77 -157 207 -267 389 -328 72 -24 95 -27 220 -27 125 0 148 3 220 27
304 102 480 365 462 692 -14 272 -161 486 -403 588 -72 31 -195 57 -264 57
l-51 0 43 62 c63 90 210 241 313 321 291 225 674 368 1085 406 295 28 652 -2
905 -74 196 -56 416 -192 519 -323 164 -206 226 -522 213 -1082 -9 -377 -54
-589 -175 -825 -57 -109 -112 -183 -245 -329 -533 -580 -891 -1247 -1082
-2021 -120 -484 -145 -729 -145 -1439 l0 -508 39 -39 39 -39 137 0 c120 0 142
3 170 20 61 37 59 27 66 590 6 556 12 617 73 885 198 871 766 1668 1626 2280
359 256 592 590 695 995 102 403 60 822 -120 1195 -170 352 -429 608 -812 803
-364 186 -783 288 -1313 322 -152 9 -493 11 -600 3z"/>
<path d="M2150 1545 c-298 -63 -528 -282 -607 -575 -24 -89 -24 -291 0 -380
60 -223 209 -405 412 -506 129 -63 196 -79 345 -79 149 0 216 16 345 79 203
101 352 283 412 506 24 89 24 290 0 380 -25 94 -97 235 -160 311 -95 114 -254
215 -402 255 -83 22 -264 27 -345 9z"/>
</g>
</svg>
