<?xml version="1.0" standalone="no"?>
<!DOCTYPE svg PUBLIC "-//W3C//DTD SVG 20010904//EN"
 "http://www.w3.org/TR/2001/REC-SVG-20010904/DTD/svg10.dtd">
<svg version="1.0" xmlns="http://www.w3.org/2000/svg"
 width="590.000000pt" height="127.000000pt" viewBox="0 0 590.000000 127.000000"
 preserveAspectRatio="xMidYMid meet">
<metadata>
Created by potrace 1.16, written by Peter Selinger 2001-2019
</metadata>
<g transform="translate(0.000000,127.000000) scale(0.100000,-0.100000)"
fill="#000000" stroke="none">
<path d="M1447 1259 c-185 -21 -355 -72 -517 -155 -218 -111 -370 -237 -588
-488 -83 -94 -193 -220 -246 -281 l-96 -110 39 -35 c21 -19 79 -70 129 -113
l91 -77 51 59 c122 141 340 305 515 390 206 100 373 140 627 148 372 12 677
-50 1418 -292 487 -158 755 -232 980 -269 445 -74 791 -33 1110 130 218 111
370 237 588 488 83 94 193 221 246 281 l96 110 -39 35 c-21 19 -79 70 -129
113 l-91 77 -51 -59 c-122 -141 -340 -305 -515 -390 -206 -100 -373 -140 -627
-148 -372 -12 -677 50 -1418 292 -603 196 -871 264 -1170 295 -109 11 -304 11
-403 -1z"/>
</g>
</svg>
