<?xml version="1.0" standalone="no"?>
<!DOCTYPE svg PUBLIC "-//W3C//DTD SVG 20010904//EN"
 "http://www.w3.org/TR/2001/REC-SVG-20010904/DTD/svg10.dtd">
<svg version="1.0" xmlns="http://www.w3.org/2000/svg"
 width="560.000000pt" height="916.000000pt" viewBox="0 0 560.000000 916.000000"
 preserveAspectRatio="xMidYMid meet">
<metadata>
Created by potrace 1.16, written by Peter Selinger 2001-2019
</metadata>
<g transform="translate(0.000000,916.000000) scale(0.100000,-0.100000)"
fill="#000000" stroke="none">
<path d="M2560 9150 c-652 -68 -1240 -376 -1648 -865 -231 -275 -476 -756
-616 -1207 -209 -672 -296 -1422 -296 -2533 1 -1418 155 -2316 530 -3080 234
-477 500 -793 882 -1048 320 -214 664 -342 1073 -399 117 -16 503 -16 620 0
541 76 1003 290 1375 636 342 319 606 767 801 1359 216 652 309 1413 309 2532
0 1111 -87 1861 -296 2533 -140 451 -385 932 -616 1207 -382 457 -924 758
-1528 850 -124 19 -469 27 -590 15z m530 -364 c329 -76 623 -268 842 -551 200
-257 306 -525 383 -965 101 -581 131 -1301 122 -2870 -4 -531 -11 -1064 -16
-1185 -51 -1093 -147 -1647 -353 -2035 -231 -435 -596 -725 -1028 -817 -118
-25 -372 -25 -490 0 -432 92 -797 382 -1028 817 -206 388 -302 942 -353 2035
-16 356 -23 2092 -10 2568 35 1269 132 1858 376 2272 153 261 381 480 632 608
134 68 221 99 349 126 138 29 150 30 319 25 113 -2 176 -9 255 -28z"/>
</g>
</svg>
