<?xml version="1.0" standalone="no"?>
<!DOCTYPE svg PUBLIC "-//W3C//DTD SVG 20010904//EN"
 "http://www.w3.org/TR/2001/REC-SVG-20010904/DTD/svg10.dtd">
<svg version="1.0" xmlns="http://www.w3.org/2000/svg"
 width="616.000000pt" height="938.000000pt" viewBox="0 0 616.000000 938.000000"
 preserveAspectRatio="xMidYMid meet">
<metadata>
Created by potrace 1.16, written by Peter Selinger 2001-2019
</metadata>
<g transform="translate(0.000000,938.000000) scale(0.100000,-0.100000)"
fill="#000000" stroke="none">
<path d="M4254 9364 c-18 -8 -41 -25 -52 -37 -11 -12 -961 -1465 -2111 -3229
l-2091 -3208 0 -310 0 -310 1795 0 1796 0 -3 -707 -3 -708 -27 -45 c-88 -150
-214 -175 -925 -187 l-383 -6 0 -310 0 -310 118 7 c756 41 2911 41 3665 0
l117 -7 0 312 0 311 -232 0 c-285 0 -620 16 -751 35 -160 24 -235 69 -283 170
l-24 50 0 698 0 697 645 0 645 0 0 310 0 310 -645 0 -645 0 -2 3194 -3 3195
-21 27 c-51 68 -52 69 -312 72 -200 2 -242 0 -268 -14z m-587 -6471 c-2 -2
-686 -2 -1520 -1 l-1516 3 1517 2326 1517 2327 3 -2326 c1 -1279 1 -2327 -1
-2329z"/>
</g>
</svg>
