<?xml version="1.0" standalone="no"?>
<!DOCTYPE svg PUBLIC "-//W3C//DTD SVG 20010904//EN"
 "http://www.w3.org/TR/2001/REC-SVG-20010904/DTD/svg10.dtd">
<svg version="1.0" xmlns="http://www.w3.org/2000/svg"
 width="475.000000pt" height="611.000000pt" viewBox="0 0 475.000000 611.000000"
 preserveAspectRatio="xMidYMid meet">
<metadata>
Created by potrace 1.16, written by Peter Selinger 2001-2019
</metadata>
<g transform="translate(0.000000,611.000000) scale(0.100000,-0.100000)"
fill="#000000" stroke="none">
<path d="M1035 6034 c-556 -40 -1016 -73 -1022 -73 -10 -1 -13 -70 -13 -311
l0 -310 138 0 c186 0 396 -17 517 -41 237 -48 342 -144 393 -361 16 -68 17
-221 17 -2083 l0 -2010 -31 -55 c-74 -131 -181 -156 -727 -167 l-307 -6 0
-310 0 -310 98 7 c631 41 2594 41 3320 0 l112 -7 0 310 0 310 -382 6 c-712 12
-838 37 -926 187 l-27 45 0 1335 c0 1400 0 1417 46 1735 126 881 469 1457 967
1624 57 19 227 51 275 51 16 0 15 -4 -7 -33 -83 -108 -132 -287 -123 -451 10
-194 66 -326 191 -452 376 -375 1035 -211 1171 291 23 82 30 237 16 321 -30
178 -106 327 -233 459 -163 171 -386 288 -661 347 -149 32 -447 32 -594 0
-283 -62 -509 -182 -717 -382 -155 -150 -267 -297 -372 -493 l-44 -82 0 493 0
492 -32 -1 c-18 -1 -487 -34 -1043 -75z"/>
</g>
</svg>
