<?xml version="1.0" standalone="no"?>
<!DOCTYPE svg PUBLIC "-//W3C//DTD SVG 20010904//EN"
 "http://www.w3.org/TR/2001/REC-SVG-20010904/DTD/svg10.dtd">
<svg version="1.0" xmlns="http://www.w3.org/2000/svg"
 width="845.000000pt" height="1268.000000pt" viewBox="0 0 845.000000 1268.000000"
 preserveAspectRatio="xMidYMid meet">
<metadata>
Created by potrace 1.16, written by Peter Selinger 2001-2019
</metadata>
<g transform="translate(0.000000,1268.000000) scale(0.100000,-0.100000)"
fill="#000000" stroke="none">
<path d="M4560 12673 c-461 -26 -995 -146 -1455 -328 -160 -63 -511 -236 -658
-324 -385 -230 -672 -457 -992 -783 -189 -192 -291 -309 -429 -493 -1005
-1340 -1294 -3121 -767 -4722 206 -628 512 -1182 932 -1688 115 -138 420 -446
563 -568 325 -279 634 -482 1021 -672 327 -160 603 -262 950 -348 169 -42 457
-97 511 -97 l24 0 0 -355 0 -355 55 0 c242 0 575 -80 752 -182 94 -53 204
-154 255 -232 98 -152 112 -370 34 -523 -33 -66 -115 -155 -189 -205 -279
-189 -810 -278 -1667 -278 -169 0 -328 -3 -354 -6 l-46 -7 0 -251 0 -251 412
2 c685 4 1123 27 1506 79 1011 136 1501 475 1547 1069 13 162 -25 367 -93 500
-69 139 -202 285 -347 385 -154 106 -437 225 -662 280 l-43 11 0 163 0 163 88
17 c317 62 620 168 921 321 584 298 1071 747 1433 1322 92 147 244 448 307
608 163 414 253 844 267 1274 5 161 4 179 -13 210 -35 63 -66 71 -258 71 -259
0 -268 -8 -278 -257 -43 -1023 -489 -1926 -1229 -2484 -467 -352 -1011 -524
-1603 -505 -518 15 -981 125 -1421 336 -356 170 -626 362 -909 645 -385 385
-630 787 -820 1346 -188 554 -285 1267 -285 2089 1 1597 345 2672 1095 3426
545 547 1237 873 2050 966 171 19 546 16 685 -6 658 -103 1219 -488 1650
-1131 369 -551 604 -1220 704 -2006 34 -274 28 -269 328 -269 229 0 255 6 290
71 17 32 18 113 18 1954 0 1841 -1 1922 -18 1954 -29 53 -72 71 -172 71 -65 0
-92 -4 -115 -18 -17 -11 -208 -253 -444 -565 l-413 -545 -92 95 c-504 528
-1168 885 -1846 992 -232 37 -513 49 -780 34z"/>
</g>
</svg>
