<?xml version="1.0" standalone="no"?>
<!DOCTYPE svg PUBLIC "-//W3C//DTD SVG 20010904//EN"
 "http://www.w3.org/TR/2001/REC-SVG-20010904/DTD/svg10.dtd">
<svg version="1.0" xmlns="http://www.w3.org/2000/svg"
 width="771.000000pt" height="1096.000000pt" viewBox="0 0 771.000000 1096.000000"
 preserveAspectRatio="xMidYMid meet">
<metadata>
Created by potrace 1.16, written by Peter Selinger 2001-2019
</metadata>
<g transform="translate(0.000000,1096.000000) scale(0.100000,-0.100000)"
fill="#000000" stroke="none">
<path d="M5580 10941 c-304 -67 -514 -263 -606 -566 -25 -81 -28 -105 -28
-245 0 -140 3 -164 28 -245 86 -285 287 -483 562 -556 113 -30 284 -36 399
-14 102 19 222 62 278 101 21 14 41 23 44 21 11 -11 -40 -239 -82 -363 -156
-470 -473 -866 -889 -1112 -88 -52 -116 -87 -116 -145 0 -55 17 -81 127 -189
141 -139 166 -145 294 -67 313 190 628 507 825 829 252 414 389 924 371 1379
-23 571 -327 1025 -774 1157 -121 36 -310 42 -433 15z"/>
<path d="M0 9143 l0 -310 403 -6 c545 -8 760 -27 862 -77 50 -24 108 -78 132
-123 17 -30 18 -234 18 -3902 0 -3668 -1 -3872 -18 -3902 -24 -45 -82 -99
-132 -123 -102 -50 -317 -69 -862 -77 l-403 -6 0 -309 0 -308 3659 0 3659 0 6
48 c4 26 87 850 186 1832 99 982 182 1806 186 1833 l6 47 -275 0 -276 0 -5
-52 c-4 -29 -18 -156 -31 -283 -91 -833 -224 -1340 -455 -1744 -360 -627
-1013 -986 -1915 -1052 -188 -13 -1576 -6 -1651 9 -139 28 -187 57 -220 135
-18 41 -19 169 -22 3912 -2 3522 -1 3874 13 3912 22 56 98 124 172 152 132 51
396 70 1086 78 l507 6 0 310 0 310 -157 -7 c-1005 -41 -3517 -41 -4345 0
l-128 7 0 -310z"/>
</g>
</svg>
