<?xml version="1.0" standalone="no"?>
<!DOCTYPE svg PUBLIC "-//W3C//DTD SVG 20010904//EN"
 "http://www.w3.org/TR/2001/REC-SVG-20010904/DTD/svg10.dtd">
<svg version="1.0" xmlns="http://www.w3.org/2000/svg"
 width="609.000000pt" height="895.000000pt" viewBox="0 0 609.000000 895.000000"
 preserveAspectRatio="xMidYMid meet">
<metadata>
Created by potrace 1.16, written by Peter Selinger 2001-2019
</metadata>
<g transform="translate(0.000000,895.000000) scale(0.100000,-0.100000)"
fill="#000000" stroke="none">
<path d="M1065 8874 c-567 -40 -1038 -73 -1047 -73 -17 -1 -18 -23 -18 -311
l0 -310 143 0 c190 0 400 -17 522 -41 237 -48 342 -144 393 -361 16 -68 17
-221 17 -2083 l0 -2010 -31 -55 c-74 -131 -181 -156 -732 -167 l-312 -6 0
-310 0 -310 108 7 c697 41 2407 41 3105 0 l107 -7 0 310 0 310 -312 6 c-551
11 -658 36 -732 167 l-31 55 -3 1445 c-2 999 0 1484 8 1570 44 498 246 940
580 1270 290 288 648 447 1045 467 343 16 622 -87 787 -292 144 -178 223 -433
248 -802 16 -220 8 -5189 -8 -5388 -61 -753 -161 -1106 -372 -1312 -140 -137
-327 -166 -628 -96 l-73 17 28 14 c141 74 270 247 320 432 27 101 25 311 -5
415 -91 315 -365 515 -707 515 -224 0 -415 -82 -558 -241 -110 -120 -165 -267
-174 -459 -23 -506 332 -972 880 -1155 195 -65 288 -79 517 -79 175 0 220 3
310 23 369 79 681 270 931 570 399 477 646 1213 699 2076 8 125 10 870 8 2440
-4 2477 0 2309 -63 2590 -131 582 -468 958 -1017 1133 -215 69 -428 100 -733
109 -434 11 -762 -57 -1130 -236 -375 -182 -693 -454 -924 -790 l-51 -75 0
552 0 552 -32 -1 c-18 -1 -496 -34 -1063 -75z"/>
</g>
</svg>
