<?xml version="1.0" standalone="no"?>
<!DOCTYPE svg PUBLIC "-//W3C//DTD SVG 20010904//EN"
 "http://www.w3.org/TR/2001/REC-SVG-20010904/DTD/svg10.dtd">
<svg version="1.0" xmlns="http://www.w3.org/2000/svg"
 width="554.000000pt" height="916.000000pt" viewBox="0 0 554.000000 916.000000"
 preserveAspectRatio="xMidYMid meet">
<metadata>
Created by potrace 1.16, written by Peter Selinger 2001-2019
</metadata>
<g transform="translate(0.000000,916.000000) scale(0.100000,-0.100000)"
fill="#000000" stroke="none">
<path d="M2555 9154 c-328 -34 -623 -117 -893 -249 -176 -86 -249 -130 -402
-244 -463 -345 -771 -847 -865 -1411 -23 -135 -30 -392 -16 -530 51 -488 268
-949 615 -1309 158 -163 282 -255 762 -564 l137 -89 -154 -82 c-450 -240 -719
-434 -1014 -730 -396 -397 -612 -801 -702 -1311 -26 -152 -24 -519 5 -675 79
-434 282 -813 606 -1135 435 -432 1023 -706 1721 -801 183 -25 619 -26 795 -1
585 82 1096 310 1527 681 377 325 659 777 778 1248 69 271 92 581 61 842 -80
683 -435 1288 -1011 1723 -44 33 -267 181 -495 328 -228 147 -416 268 -417
269 -1 1 64 39 145 85 973 551 1452 1242 1419 2045 -40 954 -835 1713 -1977
1887 -130 20 -519 34 -625 23z m396 -384 c664 -68 1222 -457 1461 -1020 83
-195 112 -346 112 -585 0 -193 -13 -296 -59 -458 -128 -446 -480 -887 -973
-1215 -174 -116 -240 -154 -254 -146 -92 52 -1665 1074 -1723 1120 -256 199
-433 465 -491 738 -50 233 -13 511 96 726 122 242 373 481 654 622 345 173
794 256 1177 218z m235 -4846 c516 -333 975 -634 1019 -669 110 -86 288 -273
362 -381 210 -308 295 -644 249 -990 -45 -345 -198 -633 -470 -891 -311 -294
-727 -483 -1233 -560 -138 -21 -510 -24 -638 -5 -629 93 -1149 407 -1470 887
-271 404 -360 862 -269 1375 109 618 528 1209 1154 1628 79 52 347 212 356
212 1 0 424 -273 940 -606z"/>
</g>
</svg>
