<?xml version="1.0" standalone="no"?>
<!DOCTYPE svg PUBLIC "-//W3C//DTD SVG 20010904//EN"
 "http://www.w3.org/TR/2001/REC-SVG-20010904/DTD/svg10.dtd">
<svg version="1.0" xmlns="http://www.w3.org/2000/svg"
 width="576.000000pt" height="240.000000pt" viewBox="0 0 576.000000 240.000000"
 preserveAspectRatio="xMidYMid meet">
<metadata>
Created by potrace 1.16, written by Peter Selinger 2001-2019
</metadata>
<g transform="translate(0.000000,240.000000) scale(0.100000,-0.100000)"
fill="#000000" stroke="none">
<path d="M4 2383 c4 -9 157 -487 342 -1062 184 -575 355 -1108 380 -1183 l46
-138 2103 0 2103 0 46 138 c25 75 196 608 380 1183 185 575 338 1053 342 1062
6 16 -13 17 -219 17 l-225 0 -72 -212 c-144 -425 -261 -667 -397 -818 -124
-138 -338 -238 -613 -288 -86 -15 -208 -17 -1345 -17 -1137 0 -1259 2 -1345
17 -275 50 -489 150 -613 288 -136 151 -253 393 -397 818 l-72 212 -225 0
c-206 0 -225 -1 -219 -17z"/>
</g>
</svg>
