<?xml version="1.0" standalone="no"?>
<!DOCTYPE svg PUBLIC "-//W3C//DTD SVG 20010904//EN"
 "http://www.w3.org/TR/2001/REC-SVG-20010904/DTD/svg10.dtd">
<svg version="1.0" xmlns="http://www.w3.org/2000/svg"
 width="1006.000000pt" height="1199.000000pt" viewBox="0 0 1006.000000 1199.000000"
 preserveAspectRatio="xMidYMid meet">
<metadata>
Created by potrace 1.16, written by Peter Selinger 2001-2019
</metadata>
<g transform="translate(0.000000,1199.000000) scale(0.100000,-0.100000)"
fill="#000000" stroke="none">
<path d="M3560 11984 c-211 -41 -400 -149 -520 -297 -64 -79 -133 -211 -162
-313 -33 -113 -33 -315 0 -428 66 -230 215 -413 423 -521 135 -70 219 -90 379
-90 161 0 243 20 381 91 207 107 355 289 421 520 33 113 33 315 0 428 -82 286
-300 505 -582 586 -74 21 -279 36 -340 24z"/>
<path d="M6250 11984 c-341 -66 -589 -289 -682 -610 -33 -113 -33 -315 0 -428
66 -231 214 -413 421 -520 138 -71 220 -91 381 -91 160 0 244 20 379 90 161
83 273 195 356 356 70 135 90 219 90 379 0 160 -20 244 -90 379 -107 206 -290
356 -515 421 -74 21 -279 36 -340 24z"/>
<path d="M0 9141 l0 -311 238 0 c294 0 637 -16 788 -35 122 -16 211 -44 290
-90 120 -70 63 21 1587 -2533 l1427 -2392 -2 -1463 c-3 -1635 4 -1485 -74
-1561 -103 -100 -263 -123 -941 -133 l-403 -6 0 -310 0 -310 128 7 c819 41
3155 41 3975 0 l127 -7 0 310 0 310 -402 6 c-548 8 -760 27 -864 78 -55 26
-127 105 -142 157 -9 29 -12 396 -12 1479 l0 1440 1306 2188 c718 1204 1324
2216 1347 2249 59 89 199 223 306 294 295 197 676 299 1199 319 l172 6 0 310
0 309 -82 -6 c-540 -41 -2271 -41 -2970 0 l-108 7 0 -312 0 -311 53 0 c76 0
221 -19 304 -40 166 -43 325 -155 379 -268 39 -80 45 -201 15 -289 -13 -39
-400 -697 -1087 -1850 -587 -983 -1070 -1792 -1074 -1796 -6 -7 -2358 3921
-2376 3967 -20 51 34 139 109 178 118 60 389 98 698 98 l139 0 0 311 0 312
-127 -7 c-826 -41 -3117 -41 -3815 0 l-108 7 0 -312z"/>
</g>
</svg>
