<?xml version="1.0" standalone="no"?>
<!DOCTYPE svg PUBLIC "-//W3C//DTD SVG 20010904//EN"
 "http://www.w3.org/TR/2001/REC-SVG-20010904/DTD/svg10.dtd">
<svg version="1.0" xmlns="http://www.w3.org/2000/svg"
 width="748.000000pt" height="945.000000pt" viewBox="0 0 748.000000 945.000000"
 preserveAspectRatio="xMidYMid meet">
<metadata>
Created by potrace 1.16, written by Peter Selinger 2001-2019
</metadata>
<g transform="translate(0.000000,945.000000) scale(0.100000,-0.100000)"
fill="#000000" stroke="none">
<path d="M0 9143 l0 -310 403 -6 c545 -8 760 -27 862 -77 50 -24 108 -78 132
-123 17 -30 18 -234 18 -3902 0 -3668 -1 -3872 -18 -3902 -24 -45 -82 -99
-132 -123 -102 -50 -317 -69 -862 -77 l-403 -6 0 -310 0 -310 128 7 c818 41
3116 41 3935 0 l127 -7 0 310 0 310 -402 6 c-679 10 -839 33 -942 133 -76 74
-71 6 -74 901 l-2 802 1067 4 c1034 3 1072 4 1198 24 367 60 644 147 934 293
809 405 1348 1128 1478 1980 24 158 24 509 0 671 -160 1073 -982 1936 -2110
2214 -181 45 -368 73 -569 85 -89 5 -576 10 -1081 10 l-918 0 3 428 c3 475 0
455 74 526 103 100 263 123 942 133 l402 6 0 310 0 310 -127 -7 c-819 -41
-3117 -41 -3935 0 l-128 7 0 -310z m4625 -2050 c246 -57 464 -181 660 -378
317 -318 519 -764 586 -1300 17 -131 17 -494 0 -615 -36 -264 -102 -490 -206
-708 -109 -227 -238 -405 -412 -573 -215 -205 -454 -338 -731 -407 l-107 -26
-822 -3 -823 -4 0 2021 0 2021 883 -4 c851 -3 885 -4 972 -24z"/>
</g>
</svg>
