<?xml version="1.0" standalone="no"?>
<!DOCTYPE svg PUBLIC "-//W3C//DTD SVG 20010904//EN"
 "http://www.w3.org/TR/2001/REC-SVG-20010904/DTD/svg10.dtd">
<svg version="1.0" xmlns="http://www.w3.org/2000/svg"
 width="949.000000pt" height="1023.000000pt" viewBox="0 0 949.000000 1023.000000"
 preserveAspectRatio="xMidYMid meet">
<metadata>
Created by potrace 1.16, written by Peter Selinger 2001-2019
</metadata>
<g transform="translate(0.000000,1023.000000) scale(0.100000,-0.100000)"
fill="#000000" stroke="none">
<path d="M3413 10220 c-659 -83 -1210 -494 -1542 -1150 -196 -386 -291 -799
-291 -1265 0 -794 161 -1666 462 -2493 38 -106 68 -196 66 -201 -2 -4 -351
-352 -776 -772 -426 -420 -809 -807 -852 -860 -461 -563 -597 -1256 -378
-1918 306 -923 1287 -1562 2398 -1561 527 0 1053 126 1535 367 288 145 513
293 817 540 70 57 129 103 132 103 2 0 67 -50 143 -111 714 -571 1465 -871
2248 -896 357 -11 650 49 939 194 206 103 356 214 522 384 336 347 531 792
560 1285 l7 114 -277 0 -276 0 0 -46 c0 -158 -71 -424 -156 -583 -182 -343
-499 -592 -872 -687 -383 -97 -745 -28 -1147 218 -269 166 -471 332 -787 650
l-206 208 143 180 c462 578 819 1132 1640 2540 174 300 342 578 372 618 72 94
164 178 284 258 286 191 668 291 1186 311 l173 6 0 310 0 309 -82 -6 c-551
-41 -2274 -41 -3040 0 l-118 7 0 -310 0 -310 128 -6 c230 -12 409 -53 552
-128 147 -77 218 -147 260 -257 24 -63 27 -180 6 -238 -14 -41 -606 -1058
-836 -1439 -172 -283 -371 -595 -519 -810 -114 -167 -373 -519 -444 -603 l-36
-43 -114 143 c-427 535 -1155 1568 -1434 2033 -196 328 -413 746 -537 1037
l-59 137 180 188 c803 838 1253 1458 1457 2007 90 243 121 433 113 696 -25
734 -272 1335 -677 1642 -93 71 -266 154 -385 184 -82 21 -128 27 -255 29 -85
2 -187 0 -227 -5z m397 -530 c349 -117 568 -598 597 -1310 7 -176 -4 -285 -43
-429 -112 -417 -454 -948 -1008 -1566 -145 -162 -338 -365 -345 -365 -9 0 -12
9 -82 240 -192 630 -299 1320 -299 1938 0 312 24 491 97 717 142 441 411 725
748 791 99 19 253 12 335 -16z m-1426 -5192 c26 -57 95 -193 153 -303 250
-474 477 -838 835 -1338 392 -548 693 -921 1051 -1306 95 -101 173 -186 174
-190 4 -10 -178 -147 -325 -245 -471 -313 -945 -471 -1482 -493 -371 -15 -627
82 -876 331 -450 452 -660 1320 -519 2151 65 382 213 724 428 989 48 60 496
505 508 506 3 0 27 -46 53 -102z"/>
</g>
</svg>
