<?xml version="1.0" standalone="no"?>
<!DOCTYPE svg PUBLIC "-//W3C//DTD SVG 20010904//EN"
 "http://www.w3.org/TR/2001/REC-SVG-20010904/DTD/svg10.dtd">
<svg version="1.0" xmlns="http://www.w3.org/2000/svg"
 width="733.000000pt" height="1036.000000pt" viewBox="0 0 733.000000 1036.000000"
 preserveAspectRatio="xMidYMid meet">
<metadata>
Created by potrace 1.16, written by Peter Selinger 2001-2019
</metadata>
<g transform="translate(0.000000,1036.000000) scale(0.100000,-0.100000)"
fill="#000000" stroke="none">
<path d="M5540 10345 c-223 -50 -390 -178 -481 -370 -59 -123 -74 -191 -74
-335 0 -144 15 -212 74 -335 114 -240 355 -385 641 -385 202 0 417 87 529 216
l33 37 -7 -69 c-12 -128 -44 -309 -71 -404 -134 -472 -449 -891 -865 -1151
-107 -67 -126 -84 -140 -127 -18 -53 1 -100 65 -160 87 -82 125 -82 261 4 291
183 562 455 745 749 116 187 218 428 275 650 56 219 69 326 70 555 0 179 -3
218 -23 309 -58 258 -163 455 -324 607 -98 91 -184 143 -308 185 -81 27 -112
32 -215 35 -80 3 -142 -1 -185 -11z"/>
<path d="M0 8848 l0 -225 343 -6 c619 -11 822 -45 915 -152 42 -47 77 -118 91
-183 16 -76 16 -7418 0 -7494 -14 -65 -49 -136 -91 -183 -93 -107 -296 -141
-915 -152 l-343 -6 0 -224 0 -223 3474 0 3474 0 6 42 c3 24 84 783 181 1688
96 905 177 1664 180 1688 l6 42 -185 0 -185 0 -5 -42 c-3 -24 -17 -144 -31
-268 -97 -855 -247 -1371 -515 -1772 -307 -459 -806 -759 -1450 -872 -276 -49
-323 -51 -1200 -51 -759 0 -832 1 -909 18 -166 36 -226 93 -251 238 -8 46 -10
1142 -8 3814 l3 3750 27 57 c31 67 96 140 153 174 128 74 556 114 1248 114
l267 0 0 226 0 227 -147 -7 c-907 -39 -3248 -39 -4010 0 l-123 6 0 -224z"/>
</g>
</svg>
