<?xml version="1.0" standalone="no"?>
<!DOCTYPE svg PUBLIC "-//W3C//DTD SVG 20010904//EN"
 "http://www.w3.org/TR/2001/REC-SVG-20010904/DTD/svg10.dtd">
<svg version="1.0" xmlns="http://www.w3.org/2000/svg"
 width="977.000000pt" height="945.000000pt" viewBox="0 0 977.000000 945.000000"
 preserveAspectRatio="xMidYMid meet">
<metadata>
Created by potrace 1.16, written by Peter Selinger 2001-2019
</metadata>
<g transform="translate(0.000000,945.000000) scale(0.100000,-0.100000)"
fill="#000000" stroke="none">
<path d="M0 9193 l0 -260 373 -6 c385 -7 544 -16 707 -43 150 -25 215 -60 274
-147 72 -107 66 262 66 -4012 0 -4274 6 -3905 -66 -4012 -59 -87 -124 -122
-274 -147 -163 -27 -322 -36 -707 -43 l-373 -6 0 -260 0 -260 128 7 c825 41
3089 41 3915 0 l127 -7 0 260 0 260 -373 6 c-385 7 -544 16 -707 43 -150 25
-215 60 -274 147 -70 104 -66 18 -66 1463 l0 1302 756 728 c416 401 759 730
763 731 13 4 2497 -3718 2539 -3804 54 -112 76 -215 63 -289 -13 -66 -28 -98
-78 -151 -105 -116 -301 -172 -600 -173 l-103 0 0 -261 0 -262 128 7 c816 41
2841 41 3450 0 l92 -6 0 261 0 261 -142 0 c-685 1 -950 112 -1270 532 -55 73
-599 882 -2681 3990 l-507 757 1247 1202 c687 661 1293 1240 1348 1286 221
185 543 374 799 468 279 103 672 175 952 175 l64 0 0 261 0 261 -62 -6 c-424
-41 -2127 -41 -2890 0 l-118 7 0 -262 0 -261 41 0 c118 0 282 -46 374 -105 63
-40 136 -120 165 -182 52 -109 32 -265 -48 -388 -49 -76 38 9 -2297 -2240
l-1980 -1906 -3 2233 c-2 2478 -7 2289 64 2395 59 87 124 122 274 147 163 27
322 36 708 43 l372 6 0 260 0 260 -127 -7 c-826 -41 -3090 -41 -3915 0 l-128
7 0 -260z"/>
</g>
</svg>
