<?xml version="1.0" standalone="no"?>
<!DOCTYPE svg PUBLIC "-//W3C//DTD SVG 20010904//EN"
 "http://www.w3.org/TR/2001/REC-SVG-20010904/DTD/svg10.dtd">
<svg version="1.0" xmlns="http://www.w3.org/2000/svg"
 width="942.000000pt" height="945.000000pt" viewBox="0 0 942.000000 945.000000"
 preserveAspectRatio="xMidYMid meet">
<metadata>
Created by potrace 1.16, written by Peter Selinger 2001-2019
</metadata>
<g transform="translate(0.000000,945.000000) scale(0.100000,-0.100000)"
fill="#000000" stroke="none">
<path d="M0 9142 l0 -309 403 -6 c545 -8 760 -27 862 -77 50 -24 108 -78 132
-123 17 -30 18 -140 21 -1854 l2 -1823 -643 0 -643 0 -44 -22 c-82 -42 -85
-51 -88 -281 -3 -226 2 -250 68 -294 l33 -23 659 0 658 0 -2 -1737 c-3 -1634
-4 -1740 -21 -1770 -24 -45 -82 -99 -132 -123 -102 -50 -317 -69 -862 -77
l-403 -6 0 -309 0 -308 2663 0 c1762 0 2709 4 2798 10 329 26 630 87 939 190
381 126 652 259 990 485 741 495 1319 1222 1670 2100 601 1504 415 3346 -475
4712 -308 471 -720 906 -1146 1209 -606 430 -1272 677 -1983 734 -84 6 -1054
10 -2792 10 l-2664 0 0 -308z m5180 -336 c372 -55 644 -138 955 -291 838 -412
1361 -1145 1569 -2200 80 -402 112 -792 122 -1455 20 -1294 -99 -2065 -416
-2701 -445 -892 -1305 -1444 -2384 -1529 -181 -15 -1896 -8 -1972 8 -140 29
-187 57 -220 135 -18 40 -19 113 -22 1800 l-2 1757 1213 0 1214 0 34 23 c63
42 69 68 69 288 0 187 -1 198 -22 229 -13 18 -36 43 -51 54 l-28 21 -1215 3
-1214 2 0 1815 c0 1256 3 1829 11 1864 20 95 74 148 173 170 115 26 248 29
1151 27 808 -2 934 -5 1035 -20z"/>
</g>
</svg>
