<?xml version="1.0" standalone="no"?>
<!DOCTYPE svg PUBLIC "-//W3C//DTD SVG 20010904//EN"
 "http://www.w3.org/TR/2001/REC-SVG-20010904/DTD/svg10.dtd">
<svg version="1.0" xmlns="http://www.w3.org/2000/svg"
 width="786.000000pt" height="907.000000pt" viewBox="0 0 786.000000 907.000000"
 preserveAspectRatio="xMidYMid meet">
<metadata>
Created by potrace 1.16, written by Peter Selinger 2001-2019
</metadata>
<g transform="translate(0.000000,907.000000) scale(0.100000,-0.100000)"
fill="#000000" stroke="none">
<path d="M0 8847 l0 -224 343 -6 c619 -11 822 -45 915 -152 42 -47 77 -118 91
-183 16 -76 16 -7418 0 -7494 -14 -65 -49 -136 -91 -183 -93 -107 -296 -141
-915 -152 l-343 -6 0 -225 0 -224 122 6 c763 39 2933 39 3696 0 l122 -6 0 224
0 225 -342 6 c-620 11 -823 45 -916 152 -42 47 -77 118 -91 183 -8 38 -11 520
-11 1707 l0 1654 1263 4 c1362 3 1288 1 1603 57 679 122 1299 433 1734 869
204 204 344 398 461 636 153 314 219 612 206 935 -12 294 -72 535 -201 805
-117 245 -255 442 -451 644 -449 463 -1065 780 -1760 906 -349 63 -145 59
-2912 62 l-2523 4 0 -224z m4815 -251 c526 -72 891 -226 1176 -494 118 -111
197 -217 264 -356 89 -182 139 -368 172 -636 25 -203 25 -861 0 -1058 -32
-252 -85 -454 -161 -615 -206 -433 -691 -747 -1316 -851 -231 -38 -252 -39
-1337 -43 l-1073 -4 0 1884 c0 1317 3 1901 11 1942 30 161 112 220 342 245 39
4 461 7 937 5 742 -2 882 -4 985 -19z"/>
</g>
</svg>
