<?xml version="1.0" standalone="no"?>
<!DOCTYPE svg PUBLIC "-//W3C//DTD SVG 20010904//EN"
 "http://www.w3.org/TR/2001/REC-SVG-20010904/DTD/svg10.dtd">
<svg version="1.0" xmlns="http://www.w3.org/2000/svg"
 width="1317.000000pt" height="937.000000pt" viewBox="0 0 1317.000000 937.000000"
 preserveAspectRatio="xMidYMid meet">
<metadata>
Created by potrace 1.16, written by Peter Selinger 2001-2019
</metadata>
<g transform="translate(0.000000,937.000000) scale(0.100000,-0.100000)"
fill="#000000" stroke="none">
<path d="M0 9148 l0 -225 268 -6 c593 -14 741 -65 861 -296 28 -55 425 -1267
1401 -4276 834 -2572 1372 -4217 1388 -4245 42 -68 111 -100 217 -100 107 0
175 32 216 100 16 27 479 1440 1125 3433 604 1863 1101 3387 1104 3387 3 0
500 -1524 1104 -3387 647 -1997 1109 -3406 1125 -3433 41 -68 109 -100 216
-100 107 0 175 32 217 100 16 28 533 1606 1328 4060 716 2208 1319 4051 1340
4096 155 333 431 542 823 624 99 21 277 40 370 40 l57 0 0 226 0 226 -72 -6
c-464 -39 -1974 -39 -2650 0 l-108 7 0 -227 0 -226 60 0 c34 0 104 -5 158 -10
566 -61 947 -342 930 -688 -3 -70 -95 -360 -1013 -3189 -666 -2052 -1013
-3106 -1018 -3095 -4 9 -485 1489 -1068 3287 -1149 3539 -1086 3332 -1041
3420 26 52 96 116 161 149 154 78 457 126 804 126 l137 0 0 226 0 227 -127 -7
c-787 -39 -2711 -39 -3325 0 l-98 7 0 -227 0 -226 173 0 c185 0 416 -13 537
-30 229 -33 338 -106 428 -286 30 -59 352 -1032 352 -1064 1 -27 -1814 -5610
-1821 -5603 -4 5 -485 1482 -1070 3283 -1153 3553 -1088 3337 -1042 3425 29
54 97 117 160 149 158 79 459 126 806 126 l137 0 0 226 0 227 -127 -7 c-782
-39 -2713 -39 -3325 0 l-98 7 0 -225z"/>
</g>
</svg>
