<?xml version="1.0" standalone="no"?>
<!DOCTYPE svg PUBLIC "-//W3C//DTD SVG 20010904//EN"
 "http://www.w3.org/TR/2001/REC-SVG-20010904/DTD/svg10.dtd">
<svg version="1.0" xmlns="http://www.w3.org/2000/svg"
 width="509.000000pt" height="868.000000pt" viewBox="0 0 509.000000 868.000000"
 preserveAspectRatio="xMidYMid meet">
<metadata>
Created by potrace 1.16, written by Peter Selinger 2001-2019
</metadata>
<g transform="translate(0.000000,868.000000) scale(0.100000,-0.100000)"
fill="#000000" stroke="none">
<path d="M2620 8669 c-427 -41 -877 -202 -1247 -445 -343 -227 -671 -563 -888
-914 -335 -541 -502 -1170 -482 -1815 12 -375 80 -713 214 -1049 366 -925
1128 -1590 2063 -1800 l105 -23 3 -420 2 -420 108 -7 c360 -22 645 -127 823
-305 145 -146 205 -333 165 -523 -92 -432 -653 -607 -1943 -608 l-253 0 0
-172 0 -171 503 6 c619 8 903 23 1247 68 845 108 1290 362 1397 797 25 101 22
303 -6 407 -103 384 -423 615 -1054 759 l-27 6 2 291 3 291 131 33 c165 42
296 91 445 166 518 259 897 713 1094 1311 30 92 55 182 55 200 0 43 -31 93
-69 113 -47 24 -196 21 -239 -5 -38 -23 -45 -38 -106 -230 -202 -632 -658
-1076 -1237 -1203 -600 -133 -1144 31 -1581 476 -490 498 -717 1237 -695 2257
16 686 113 1164 321 1579 190 376 474 673 801 835 225 111 366 141 660 140
472 -1 905 -99 1196 -270 l81 -47 -74 -18 c-112 -28 -211 -83 -288 -159 -240
-236 -239 -666 0 -901 242 -238 658 -238 901 0 150 148 209 375 164 633 -42
240 -147 433 -335 612 -306 290 -812 478 -1419 525 -153 12 -415 12 -541 0z"/>
</g>
</svg>
