<?xml version="1.0" standalone="no"?>
<!DOCTYPE svg PUBLIC "-//W3C//DTD SVG 20010904//EN"
 "http://www.w3.org/TR/2001/REC-SVG-20010904/DTD/svg10.dtd">
<svg version="1.0" xmlns="http://www.w3.org/2000/svg"
 width="699.000000pt" height="596.000000pt" viewBox="0 0 699.000000 596.000000"
 preserveAspectRatio="xMidYMid meet">
<metadata>
Created by potrace 1.16, written by Peter Selinger 2001-2019
</metadata>
<g transform="translate(0.000000,596.000000) scale(0.100000,-0.100000)"
fill="#000000" stroke="none">
<path d="M70 5703 l0 -260 278 -6 c473 -11 632 -38 799 -138 123 -75 179 -144
1036 -1286 455 -607 828 -1107 829 -1112 2 -5 -287 -382 -642 -837 -697 -895
-766 -976 -972 -1129 -312 -233 -688 -366 -1143 -405 -66 -5 -150 -10 -187
-10 l-68 0 0 -261 0 -261 73 6 c483 41 1861 41 2440 0 l87 -7 0 260 0 260 -48
6 c-131 15 -246 96 -303 213 -28 56 -33 78 -37 164 -4 87 -1 109 22 182 14 46
39 106 55 133 28 49 997 1298 1010 1302 8 3 1196 -1584 1217 -1626 41 -81 -8
-197 -113 -268 -84 -56 -160 -83 -270 -96 l-93 -11 0 -259 0 -260 98 7 c637
41 2210 41 2760 0 l82 -6 0 261 0 261 -177 0 c-214 0 -464 15 -593 35 -125 20
-211 48 -290 95 -145 85 -159 102 -1127 1393 -564 751 -911 1222 -906 1230 31
52 1143 1466 1206 1532 44 47 127 124 186 171 359 289 777 434 1320 460 l141
7 0 260 0 259 -72 -6 c-484 -41 -1862 -41 -2440 0 l-88 7 0 -262 0 -261 28 0
c41 0 130 -28 179 -57 58 -33 120 -104 150 -170 34 -75 43 -209 19 -303 -33
-130 -70 -186 -491 -725 -223 -286 -411 -526 -418 -532 -10 -10 -123 136 -538
690 -290 386 -532 712 -538 724 -15 30 -14 107 3 147 47 113 212 205 400 222
l76 7 0 260 0 260 -97 -7 c-631 -41 -2254 -40 -2765 0 l-78 7 0 -260z"/>
</g>
</svg>
