<?xml version="1.0" standalone="no"?>
<!DOCTYPE svg PUBLIC "-//W3C//DTD SVG 20010904//EN"
 "http://www.w3.org/TR/2001/REC-SVG-20010904/DTD/svg10.dtd">
<svg version="1.0" xmlns="http://www.w3.org/2000/svg"
 width="436.000000pt" height="166.000000pt" viewBox="0 0 436.000000 166.000000"
 preserveAspectRatio="xMidYMid meet">
<metadata>
Created by potrace 1.16, written by Peter Selinger 2001-2019
</metadata>
<g transform="translate(0.000000,166.000000) scale(0.100000,-0.100000)"
fill="#000000" stroke="none">
<path d="M710 1653 c-140 -23 -304 -98 -411 -187 -180 -150 -299 -402 -299
-636 0 -108 31 -243 80 -346 188 -402 642 -585 1055 -425 108 42 195 100 286
191 319 321 319 839 0 1160 -126 127 -269 203 -439 236 -68 13 -214 17 -272 7z"/>
<path d="M3360 1646 c-166 -35 -308 -113 -431 -236 -319 -321 -319 -839 0
-1160 175 -176 389 -260 631 -247 311 16 577 197 710 481 104 221 104 471 0
692 -103 222 -296 387 -530 454 -96 28 -286 35 -380 16z"/>
</g>
</svg>
