<?xml version="1.0" standalone="no"?>
<!DOCTYPE svg PUBLIC "-//W3C//DTD SVG 20010904//EN"
 "http://www.w3.org/TR/2001/REC-SVG-20010904/DTD/svg10.dtd">
<svg version="1.0" xmlns="http://www.w3.org/2000/svg"
 width="376.000000pt" height="1197.000000pt" viewBox="0 0 376.000000 1197.000000"
 preserveAspectRatio="xMidYMid meet">
<metadata>
Created by potrace 1.16, written by Peter Selinger 2001-2019
</metadata>
<g transform="translate(0.000000,1197.000000) scale(0.100000,-0.100000)"
fill="#000000" stroke="none">
<path d="M3040 11954 c-30 -8 -81 -27 -112 -42 -66 -31 -1977 -1243 -1978
-1254 0 -6 218 -489 224 -495 4 -4 2179 657 2234 678 29 12 84 43 122 70 152
107 227 268 217 464 -13 270 -202 517 -442 581 -65 18 -195 17 -265 -2z"/>
<path d="M1080 9535 c-575 -41 -1053 -74 -1062 -74 -17 -1 -18 -23 -18 -311
l0 -310 138 0 c186 0 396 -17 517 -41 237 -48 342 -144 393 -361 16 -68 17
-319 17 -3833 l0 -3760 -31 -55 c-74 -131 -179 -156 -727 -167 l-307 -6 0
-310 0 -309 103 6 c670 41 2384 41 3055 0 l102 -6 0 309 0 310 -307 6 c-548
11 -653 36 -727 167 l-31 55 -3 4383 -2 4382 -33 -1 c-17 -1 -502 -34 -1077
-74z"/>
</g>
</svg>
