<?xml version="1.0" standalone="no"?>
<!DOCTYPE svg PUBLIC "-//W3C//DTD SVG 20010904//EN"
 "http://www.w3.org/TR/2001/REC-SVG-20010904/DTD/svg10.dtd">
<svg version="1.0" xmlns="http://www.w3.org/2000/svg"
 width="845.000000pt" height="1007.000000pt" viewBox="0 0 845.000000 1007.000000"
 preserveAspectRatio="xMidYMid meet">
<metadata>
Created by potrace 1.16, written by Peter Selinger 2001-2019
</metadata>
<g transform="translate(0.000000,1007.000000) scale(0.100000,-0.100000)"
fill="#000000" stroke="none">
<path d="M4500 10059 c-979 -74 -1927 -463 -2705 -1111 -138 -115 -414 -387
-540 -532 -452 -522 -775 -1092 -995 -1756 -503 -1521 -268 -3211 631 -4535
298 -438 695 -855 1114 -1169 737 -553 1607 -879 2520 -946 947 -69 1813 198
2552 786 131 105 428 403 537 539 345 433 594 941 721 1468 63 264 92 473 101
742 7 193 -1 222 -67 257 -49 26 -259 26 -308 0 -58 -31 -67 -61 -74 -241 -43
-1022 -507 -1928 -1284 -2503 -380 -282 -829 -460 -1313 -520 -154 -19 -542
-16 -715 6 -646 81 -1199 310 -1715 710 -140 108 -444 413 -554 556 -550 710
-817 1568 -877 2815 -13 259 -7 802 11 1040 62 828 215 1457 491 2008 498 993
1427 1672 2516 1837 925 140 1665 -104 2290 -754 571 -594 940 -1431 1067
-2422 15 -120 29 -189 40 -206 32 -49 69 -58 238 -58 174 0 207 10 240 71 17
32 18 113 18 1929 0 1816 -1 1897 -18 1929 -27 50 -73 71 -157 71 -50 0 -78
-5 -100 -19 -19 -11 -182 -228 -430 -571 -220 -304 -403 -557 -406 -561 -3 -5
-81 66 -175 159 -256 254 -503 442 -789 600 -378 209 -827 345 -1260 382 -140
11 -440 11 -605 -1z"/>
</g>
</svg>
