<?xml version="1.0" standalone="no"?>
<!DOCTYPE svg PUBLIC "-//W3C//DTD SVG 20010904//EN"
 "http://www.w3.org/TR/2001/REC-SVG-20010904/DTD/svg10.dtd">
<svg version="1.0" xmlns="http://www.w3.org/2000/svg"
 width="436.000000pt" height="869.000000pt" viewBox="0 0 436.000000 869.000000"
 preserveAspectRatio="xMidYMid meet">
<metadata>
Created by potrace 1.16, written by Peter Selinger 2001-2019
</metadata>
<g transform="translate(0.000000,869.000000) scale(0.100000,-0.100000)"
fill="#000000" stroke="none">
<path d="M3195 8676 c-75 -24 -142 -65 -216 -133 -41 -37 -429 -413 -862 -836
l-788 -769 24 -32 c13 -17 63 -84 111 -148 84 -112 89 -117 109 -104 12 8 450
256 972 551 523 295 982 557 1022 581 206 128 283 330 208 553 -34 104 -143
234 -245 293 -94 55 -241 74 -335 44z"/>
<path d="M1775 6089 c-555 -39 -985 -189 -1294 -452 -311 -265 -498 -751 -478
-1246 14 -352 147 -654 407 -924 208 -216 458 -379 774 -502 181 -71 333 -108
886 -215 561 -110 588 -116 717 -161 365 -129 677 -404 800 -705 55 -135 67
-208 67 -389 -2 -668 -345 -1039 -1049 -1130 -172 -23 -466 -30 -610 -16 -608
59 -1028 369 -1325 976 -121 246 -206 501 -274 818 -38 174 -45 190 -89 217
-44 27 -186 28 -237 2 -75 -37 -70 42 -70 -1177 0 -1063 1 -1091 20 -1122 10
-18 33 -39 49 -48 41 -21 138 -20 178 3 17 9 127 123 243 252 117 129 225 248
241 264 l28 29 65 -60 c279 -261 632 -426 1036 -484 123 -18 600 -18 770 -1
552 58 950 223 1246 517 219 217 357 490 428 845 53 263 59 597 16 805 -143
681 -675 1220 -1433 1449 -67 21 -365 84 -685 147 -403 79 -600 122 -685 150
-393 129 -679 360 -782 632 -72 192 -51 484 51 691 84 173 196 281 389 376
134 66 246 102 410 130 273 46 688 51 919 11 583 -103 987 -503 1105 -1096 22
-113 41 -287 41 -382 0 -124 44 -163 185 -163 72 0 97 4 122 20 66 40 63 -13
63 967 0 863 -1 889 -20 920 -10 18 -33 39 -49 48 -33 17 -126 20 -165 5 -14
-5 -113 -88 -221 -184 l-196 -174 -75 54 c-96 68 -289 163 -426 208 -128 42
-313 81 -457 96 -118 12 -459 11 -636 -1z"/>
</g>
</svg>
