<?xml version="1.0" standalone="no"?>
<!DOCTYPE svg PUBLIC "-//W3C//DTD SVG 20010904//EN"
 "http://www.w3.org/TR/2001/REC-SVG-20010904/DTD/svg10.dtd">
<svg version="1.0" xmlns="http://www.w3.org/2000/svg"
 width="966.000000pt" height="945.000000pt" viewBox="0 0 966.000000 945.000000"
 preserveAspectRatio="xMidYMid meet">
<metadata>
Created by potrace 1.16, written by Peter Selinger 2001-2019
</metadata>
<g transform="translate(0.000000,945.000000) scale(0.100000,-0.100000)"
fill="#000000" stroke="none">
<path d="M0 9142 l0 -309 498 -6 c450 -6 607 -12 845 -33 l77 -7 0 -3766 c0
-4152 5 -3826 -62 -3955 -47 -90 -173 -211 -274 -264 -218 -112 -482 -166
-881 -179 l-203 -6 0 -310 0 -310 98 7 c634 40 2600 40 3235 0 l97 -7 0 310 0
310 -202 6 c-400 13 -664 67 -882 179 -101 53 -227 173 -274 264 -67 129 -62
-176 -60 3749 l3 3557 2835 -4165 c2360 -3469 2841 -4169 2871 -4186 33 -19
54 -21 214 -21 202 0 234 9 274 80 l21 38 0 4038 c0 4453 -5 4099 62 4228 47
90 173 211 274 264 218 112 482 166 882 179 l202 6 0 310 0 310 -97 -7 c-635
-40 -2601 -40 -3235 0 l-98 7 0 -310 0 -310 203 -6 c399 -13 663 -67 881 -179
101 -53 227 -173 274 -264 67 -129 62 104 60 -3062 l-3 -2870 -2365 3476
c-1301 1911 -2378 3485 -2394 3496 l-27 21 -1425 3 -1424 2 0 -308z"/>
</g>
</svg>
