<?xml version="1.0" standalone="no"?>
<!DOCTYPE svg PUBLIC "-//W3C//DTD SVG 20010904//EN"
 "http://www.w3.org/TR/2001/REC-SVG-20010904/DTD/svg10.dtd">
<svg version="1.0" xmlns="http://www.w3.org/2000/svg"
 width="1037.000000pt" height="937.000000pt" viewBox="0 0 1037.000000 937.000000"
 preserveAspectRatio="xMidYMid meet">
<metadata>
Created by potrace 1.16, written by Peter Selinger 2001-2019
</metadata>
<g transform="translate(0.000000,937.000000) scale(0.100000,-0.100000)"
fill="#000000" stroke="none">
<path d="M3625 9360 c-496 -40 -942 -160 -1346 -362 -375 -187 -686 -433 -891
-706 -168 -223 -260 -415 -326 -682 l-26 -105 -3 -892 -4 -893 -509 0 -510 0
0 -225 0 -225 510 0 510 0 0 -2227 c0 -2384 1 -2303 -48 -2399 -27 -52 -77
-99 -133 -123 -96 -43 -365 -71 -681 -71 l-168 0 0 -226 0 -226 93 6 c584 39
2210 39 2795 0 l92 -6 0 226 0 226 -167 0 c-317 0 -586 28 -682 71 -56 24
-106 71 -133 123 -49 96 -48 15 -48 2399 l0 2227 1385 0 1385 0 0 -2227 c0
-2384 1 -2303 -48 -2399 -27 -52 -77 -99 -133 -123 -96 -43 -365 -71 -681 -71
l-168 0 0 -226 0 -226 93 6 c584 39 2210 39 2795 0 l92 -6 0 226 0 226 -167 0
c-317 0 -586 28 -682 71 -56 24 -106 71 -133 123 -49 96 -48 15 -48 2399 l0
2227 1385 0 1385 0 0 -2227 c0 -2384 1 -2303 -48 -2399 -27 -52 -77 -99 -133
-123 -96 -43 -365 -71 -681 -71 l-168 0 0 -226 0 -226 93 6 c584 39 2210 39
2795 0 l92 -6 0 226 0 226 -167 0 c-317 0 -586 28 -682 71 -56 24 -106 71
-133 123 -50 98 -48 -136 -48 4374 l0 4203 -32 -6 c-18 -3 -136 -23 -263 -43
l-230 -37 -65 32 c-87 43 -279 105 -420 137 -172 38 -341 56 -580 63 -524 14
-999 -61 -1469 -234 -237 -87 -568 -267 -751 -408 -57 -44 -57 -44 -67 -22
-26 56 -142 194 -217 256 -238 200 -540 327 -921 387 -120 18 -528 27 -690 14z
m610 -359 c213 -32 459 -108 566 -173 l34 -21 -52 -18 c-155 -52 -267 -148
-333 -282 -76 -153 -87 -319 -35 -486 46 -143 140 -254 277 -327 38 -19 68
-40 68 -47 -1 -7 -8 -41 -17 -77 -14 -57 -17 -172 -20 -957 l-4 -893 -1405 0
-1405 0 3 883 c3 872 4 883 26 990 161 765 836 1332 1697 1426 135 15 447 5
600 -18z m3735 9 c113 -13 249 -35 343 -57 l68 -15 -47 -30 c-108 -68 -199
-194 -240 -333 -25 -82 -25 -258 0 -340 44 -147 144 -280 261 -346 l55 -31 0
-1069 0 -1069 -1405 0 -1406 0 3 883 c3 872 4 883 26 990 161 765 836 1332
1697 1426 108 12 512 6 645 -9z"/>
</g>
</svg>
