<?xml version="1.0" standalone="no"?>
<!DOCTYPE svg PUBLIC "-//W3C//DTD SVG 20010904//EN"
 "http://www.w3.org/TR/2001/REC-SVG-20010904/DTD/svg10.dtd">
<svg version="1.0" xmlns="http://www.w3.org/2000/svg"
 width="922.000000pt" height="991.000000pt" viewBox="0 0 922.000000 991.000000"
 preserveAspectRatio="xMidYMid meet">
<metadata>
Created by potrace 1.16, written by Peter Selinger 2001-2019
</metadata>
<g transform="translate(0.000000,991.000000) scale(0.100000,-0.100000)"
fill="#000000" stroke="none">
<path d="M4345 9904 c-605 -47 -1128 -188 -1650 -444 -813 -399 -1479 -1019
-1970 -1835 -86 -144 -248 -465 -319 -634 -192 -457 -328 -993 -383 -1516 -25
-240 -25 -800 0 -1040 112 -1061 517 -2032 1172 -2810 627 -743 1474 -1275
2388 -1499 335 -83 584 -115 952 -123 1084 -24 2316 182 3430 574 468 164
1181 480 1221 540 43 66 21 159 -47 195 -31 17 -65 18 -422 18 l-388 0 -127
-56 c-898 -398 -1827 -638 -2817 -728 -409 -38 -915 -44 -1160 -16 -161 18
-397 61 -535 96 -1532 392 -2727 1721 -3049 3394 -199 1035 -64 2102 384 3025
595 1224 1705 2089 2950 2299 252 42 358 50 630 50 272 0 378 -8 630 -50 1245
-210 2355 -1075 2950 -2299 267 -551 420 -1136 465 -1785 20 -290 9 -1095 -20
-1450 -54 -653 -189 -1059 -422 -1264 -149 -132 -441 -196 -576 -127 -130 66
-220 245 -251 496 -8 63 -11 648 -11 1923 0 1692 -1 1837 -17 1869 -34 72 -36
73 -423 74 l-345 0 -75 117 c-146 227 -379 488 -576 644 -177 140 -431 285
-634 361 -106 40 -293 89 -415 109 -121 19 -482 17 -625 -5 -278 -43 -511
-117 -775 -247 -291 -143 -498 -292 -731 -524 -223 -223 -402 -469 -547 -753
-182 -356 -286 -694 -344 -1113 -24 -176 -24 -654 0 -830 58 -419 162 -757
344 -1113 145 -284 324 -530 547 -753 233 -232 440 -381 731 -524 264 -130
497 -204 775 -247 143 -22 504 -24 625 -5 223 37 430 104 635 207 238 120 413
247 622 454 l137 136 36 -75 c147 -298 431 -531 796 -651 205 -67 314 -84 549
-83 197 1 210 2 323 32 565 149 921 633 1101 1498 87 417 134 1033 123 1614
-9 500 -63 879 -187 1334 -284 1034 -893 1963 -1701 2592 -661 515 -1435 835
-2244 929 -133 15 -615 28 -730 19z m448 -2399 c535 -70 1026 -447 1357 -1041
l60 -109 0 -1400 0 -1400 -60 -109 c-331 -594 -822 -971 -1357 -1041 -144 -19
-233 -19 -350 0 -419 68 -806 403 -1083 937 -179 345 -283 705 -336 1163 -25
210 -25 690 0 900 53 458 157 818 336 1163 312 601 759 945 1237 951 45 1 133
-6 196 -14z"/>
</g>
</svg>
