<?xml version="1.0" standalone="no"?>
<!DOCTYPE svg PUBLIC "-//W3C//DTD SVG 20010904//EN"
 "http://www.w3.org/TR/2001/REC-SVG-20010904/DTD/svg10.dtd">
<svg version="1.0" xmlns="http://www.w3.org/2000/svg"
 width="811.000000pt" height="750.000000pt" viewBox="0 0 811.000000 750.000000"
 preserveAspectRatio="xMidYMid meet">
<metadata>
Created by potrace 1.16, written by Peter Selinger 2001-2019
</metadata>
<g transform="translate(0.000000,750.000000) scale(0.100000,-0.100000)"
fill="#000000" stroke="none">
<path d="M117 7486 c-120 -44 -156 -187 -71 -277 16 -17 1296 -612 3744 -1740
2046 -942 3720 -1716 3720 -1719 0 -3 -1674 -777 -3720 -1719 -2448 -1128
-3728 -1723 -3744 -1740 -90 -94 -43 -247 86 -281 32 -9 50 -8 82 2 22 8 1793
821 3935 1808 3801 1752 3894 1795 3920 1834 37 56 37 136 0 192 -26 39 -119
82 -3937 1841 -2150 991 -3925 1804 -3944 1807 -18 3 -50 -1 -71 -8z"/>
</g>
</svg>
