<?xml version="1.0" standalone="no"?>
<!DOCTYPE svg PUBLIC "-//W3C//DTD SVG 20010904//EN"
 "http://www.w3.org/TR/2001/REC-SVG-20010904/DTD/svg10.dtd">
<svg version="1.0" xmlns="http://www.w3.org/2000/svg"
 width="771.000000pt" height="945.000000pt" viewBox="0 0 771.000000 945.000000"
 preserveAspectRatio="xMidYMid meet">
<metadata>
Created by potrace 1.16, written by Peter Selinger 2001-2019
</metadata>
<g transform="translate(0.000000,945.000000) scale(0.100000,-0.100000)"
fill="#000000" stroke="none">
<path d="M0 9143 l0 -310 403 -6 c545 -8 760 -27 862 -77 50 -24 108 -78 132
-123 17 -30 18 -145 20 -1967 l2 -1935 -639 -529 -640 -528 38 -47 c209 -252
346 -417 351 -423 4 -4 205 156 446 356 l440 365 3 -1497 c1 -823 0 -1516 -3
-1538 -13 -92 -106 -180 -220 -208 -137 -35 -492 -56 -937 -56 l-258 0 0 -310
0 -310 3659 0 3659 0 6 48 c4 26 87 850 186 1832 99 982 182 1806 186 1833 l6
47 -275 0 -276 0 -5 -52 c-4 -29 -18 -156 -31 -283 -91 -833 -224 -1340 -455
-1744 -360 -627 -1013 -986 -1915 -1052 -188 -13 -1576 -6 -1651 9 -139 28
-187 57 -220 135 -18 40 -19 124 -22 2188 l-2 2146 1150 953 1150 952 -68 82
c-271 330 -327 394 -337 387 -5 -5 -432 -358 -948 -785 -516 -427 -940 -776
-942 -776 -3 0 -5 595 -5 1323 0 1497 -7 1364 83 1443 121 107 321 131 1190
141 l507 6 0 310 0 310 -157 -7 c-1005 -41 -3517 -41 -4345 0 l-128 7 0 -310z"/>
</g>
</svg>
