<?xml version="1.0" standalone="no"?>
<!DOCTYPE svg PUBLIC "-//W3C//DTD SVG 20010904//EN"
 "http://www.w3.org/TR/2001/REC-SVG-20010904/DTD/svg10.dtd">
<svg version="1.0" xmlns="http://www.w3.org/2000/svg"
 width="885.000000pt" height="952.000000pt" viewBox="0 0 885.000000 952.000000"
 preserveAspectRatio="xMidYMid meet">
<metadata>
Created by potrace 1.16, written by Peter Selinger 2001-2019
</metadata>
<g transform="translate(0.000000,952.000000) scale(0.100000,-0.100000)"
fill="#000000" stroke="none">
<path d="M4160 9514 c-626 -45 -1255 -235 -1803 -545 -513 -290 -999 -720
-1369 -1209 -176 -234 -309 -447 -447 -720 -860 -1691 -682 -3783 447 -5280
370 -489 856 -919 1369 -1209 406 -229 877 -401 1333 -485 289 -53 395 -61
815 -60 396 0 569 9 935 45 1028 101 2068 369 3036 782 263 113 322 143 344
179 38 62 19 141 -43 178 -30 19 -52 20 -333 20 l-301 0 -129 -61 c-1011 -479
-2069 -741 -3224 -800 -605 -30 -1083 27 -1557 187 -904 305 -1678 938 -2196
1796 -364 602 -572 1245 -649 2003 -16 155 -16 695 0 850 77 758 285 1401 649
2003 627 1039 1638 1749 2756 1937 241 40 361 49 627 49 266 0 386 -9 627 -49
1118 -188 2129 -898 2756 -1937 358 -591 562 -1213 643 -1953 34 -308 28
-1201 -11 -1627 -59 -638 -191 -1025 -426 -1242 -132 -122 -292 -181 -494
-181 -103 0 -113 2 -164 30 -122 68 -205 210 -258 445 -15 68 -17 239 -22
1935 -5 1510 -8 1864 -19 1883 -7 13 -28 32 -45 42 -30 19 -53 20 -374 20
l-342 0 -60 89 c-444 660 -1118 1050 -1816 1051 -699 1 -1422 -337 -1897 -888
-401 -463 -636 -992 -725 -1632 -24 -176 -24 -624 0 -800 89 -640 324 -1169
725 -1632 475 -551 1198 -889 1897 -888 456 1 906 167 1295 478 114 92 274
250 355 350 l58 73 37 -110 c52 -157 114 -255 240 -382 148 -148 302 -244 510
-317 421 -147 863 -117 1166 80 98 64 252 217 323 321 301 442 441 1187 441
2344 0 512 -41 867 -151 1313 -291 1179 -991 2188 -1959 2825 -195 128 -294
184 -512 289 -424 205 -866 334 -1338 391 -130 16 -594 28 -720 19z m552
-2203 c545 -109 1024 -500 1351 -1102 l47 -86 0 -1363 0 -1363 -47 -86 c-332
-611 -821 -1005 -1378 -1107 -120 -22 -378 -25 -470 -6 -252 54 -480 180 -688
381 -192 186 -333 383 -467 656 -217 441 -330 962 -330 1525 0 563 113 1084
330 1525 132 269 274 468 461 651 230 223 471 350 746 394 86 14 333 3 445
-19z"/>
</g>
</svg>
