<?xml version="1.0" standalone="no"?>
<!DOCTYPE svg PUBLIC "-//W3C//DTD SVG 20010904//EN"
 "http://www.w3.org/TR/2001/REC-SVG-20010904/DTD/svg10.dtd">
<svg version="1.0" xmlns="http://www.w3.org/2000/svg"
 width="826.000000pt" height="945.000000pt" viewBox="0 0 826.000000 945.000000"
 preserveAspectRatio="xMidYMid meet">
<metadata>
Created by potrace 1.16, written by Peter Selinger 2001-2019
</metadata>
<g transform="translate(0.000000,945.000000) scale(0.100000,-0.100000)"
fill="#000000" stroke="none">
<path d="M0 9142 l0 -309 403 -6 c545 -8 760 -27 862 -77 50 -24 108 -78 132
-123 17 -30 18 -234 18 -3902 0 -3668 -1 -3872 -18 -3902 -24 -45 -82 -99
-132 -123 -102 -50 -317 -69 -862 -77 l-403 -6 0 -310 0 -310 128 7 c826 41
3188 41 4015 0 l127 -7 0 310 0 310 -402 6 c-546 8 -761 27 -863 77 -50 24
-108 78 -132 123 -17 30 -18 132 -21 1689 l-2 1657 1262 4 c1359 4 1293 1
1606 57 491 87 944 267 1342 532 184 122 285 203 434 348 153 148 256 272 368
440 362 543 474 1170 317 1777 -119 464 -414 933 -796 1266 -474 412 -1060
687 -1698 796 -340 59 -132 55 -3027 58 l-2658 3 0 -308z m5060 -336 c685 -87
1154 -349 1375 -769 109 -207 163 -438 186 -807 16 -247 6 -927 -16 -1099 -52
-416 -166 -675 -395 -894 -272 -262 -645 -417 -1160 -483 -119 -16 -260 -18
-1187 -21 l-1053 -4 0 1925 c0 1335 3 1940 11 1975 20 95 74 148 173 170 115
26 246 29 1081 27 738 -2 868 -5 985 -20z"/>
</g>
</svg>
