<?xml version="1.0" standalone="no"?>
<!DOCTYPE svg PUBLIC "-//W3C//DTD SVG 20010904//EN"
 "http://www.w3.org/TR/2001/REC-SVG-20010904/DTD/svg10.dtd">
<svg version="1.0" xmlns="http://www.w3.org/2000/svg"
 width="606.000000pt" height="884.000000pt" viewBox="0 0 606.000000 884.000000"
 preserveAspectRatio="xMidYMid meet">
<metadata>
Created by potrace 1.16, written by Peter Selinger 2001-2019
</metadata>
<g transform="translate(0.000000,884.000000) scale(0.100000,-0.100000)"
fill="#000000" stroke="none">
<path d="M5337 8833 c-3 -6 -824 -1428 -903 -1565 -3 -4 -72 26 -154 66 -288
142 -573 228 -890 273 -90 12 -191 17 -365 17 -313 0 -527 -29 -797 -109 -353
-105 -728 -302 -1014 -533 -668 -538 -1085 -1315 -1195 -2227 -20 -164 -18
-607 4 -765 82 -589 309 -1127 663 -1570 133 -166 495 -509 599 -567 16 -9 -9
-52 -825 -1464 l-108 -186 176 -102 c97 -56 179 -98 183 -94 4 5 199 341 434
748 235 407 445 770 467 807 l39 68 87 -44 c269 -135 618 -237 952 -278 136
-17 534 -17 670 0 367 46 688 144 1023 314 293 149 511 309 757 557 181 181
255 272 388 471 264 395 429 841 499 1340 22 158 24 601 4 765 -108 897 -510
1658 -1161 2200 -52 43 -94 82 -93 85 2 6 761 1324 888 1541 l33 57 -171 98
c-198 115 -184 107 -190 97z m-2119 -1624 c320 -35 602 -138 862 -316 47 -32
85 -65 85 -74 0 -8 -580 -1020 -1289 -2248 l-1290 -2232 -23 28 c-62 74 -172
250 -229 368 -137 283 -214 597 -256 1050 -18 190 -17 1025 0 1235 54 637 190
1071 452 1442 370 524 1037 819 1688 747z m1330 -786 c240 -352 372 -789 424
-1403 17 -210 18 -1045 0 -1235 -42 -453 -119 -767 -256 -1050 -270 -554 -750
-906 -1382 -1012 -152 -25 -466 -25 -618 0 -217 37 -462 119 -624 209 -83 47
-192 117 -192 124 0 15 2575 4462 2581 4459 4 -3 34 -44 67 -92z"/>
</g>
</svg>
