<?xml version="1.0" standalone="no"?>
<!DOCTYPE svg PUBLIC "-//W3C//DTD SVG 20010904//EN"
 "http://www.w3.org/TR/2001/REC-SVG-20010904/DTD/svg10.dtd">
<svg version="1.0" xmlns="http://www.w3.org/2000/svg"
 width="974.000000pt" height="945.000000pt" viewBox="0 0 974.000000 945.000000"
 preserveAspectRatio="xMidYMid meet">
<metadata>
Created by potrace 1.16, written by Peter Selinger 2001-2019
</metadata>
<g transform="translate(0.000000,945.000000) scale(0.100000,-0.100000)"
fill="#000000" stroke="none">
<path d="M190 9141 l0 -311 248 0 c301 0 636 -15 796 -35 196 -25 306 -73 411
-179 48 -49 308 -448 1298 -1994 1159 -1811 1237 -1935 1224 -1955 -7 -12
-512 -787 -1122 -1722 l-1109 -1700 -105 -106 c-59 -58 -137 -126 -176 -151
-349 -229 -805 -344 -1450 -365 l-205 -6 0 -310 0 -310 98 7 c636 41 2561 41
3325 0 l117 -7 0 312 0 311 -44 0 c-144 0 -328 45 -471 115 -173 84 -285 191
-332 317 -22 61 -21 163 3 215 10 22 431 671 934 1442 705 1079 918 1398 927
1388 29 -30 2053 -3202 2053 -3217 0 -10 -9 -29 -21 -44 -76 -97 -540 -216
-840 -216 l-59 0 0 -311 0 -312 133 7 c852 41 3099 41 3800 0 l107 -7 0 310 0
310 -387 6 c-525 9 -696 24 -844 74 -90 30 -197 100 -250 163 -26 31 -2771
4305 -2882 4486 -7 13 1790 2773 1875 2881 292 369 871 573 1702 600 l206 6 0
310 0 310 -97 -7 c-637 -41 -2557 -41 -3315 0 l-118 7 0 -310 0 -310 93 -7
c252 -19 471 -106 622 -248 115 -107 170 -261 133 -369 -9 -24 -343 -546 -743
-1159 -400 -613 -729 -1116 -730 -1118 -4 -5 -1673 2606 -1677 2624 -16 70 97
135 357 204 137 37 274 58 433 66 l122 7 0 310 0 310 -132 -7 c-854 -41 -3033
-41 -3790 0 l-118 7 0 -312z"/>
</g>
</svg>
