<?xml version="1.0" standalone="no"?>
<!DOCTYPE svg PUBLIC "-//W3C//DTD SVG 20010904//EN"
 "http://www.w3.org/TR/2001/REC-SVG-20010904/DTD/svg10.dtd">
<svg version="1.0" xmlns="http://www.w3.org/2000/svg"
 width="937.000000pt" height="945.000000pt" viewBox="0 0 937.000000 945.000000"
 preserveAspectRatio="xMidYMid meet">
<metadata>
Created by potrace 1.16, written by Peter Selinger 2001-2019
</metadata>
<g transform="translate(0.000000,945.000000) scale(0.100000,-0.100000)"
fill="#000000" stroke="none">
<path d="M0 9192 l0 -259 373 -6 c385 -7 544 -16 707 -43 150 -25 215 -60 274
-147 72 -107 66 262 66 -4012 0 -4274 6 -3905 -66 -4012 -59 -87 -124 -122
-274 -147 -163 -27 -322 -36 -707 -43 l-373 -6 0 -259 0 -258 2723 3 c2966 3
2759 -1 3087 57 1286 227 2416 1106 3039 2365 486 983 629 2109 411 3255 -257
1350 -1038 2528 -2115 3187 -544 333 -1121 523 -1739 573 -84 6 -1046 10
-2767 10 l-2639 0 0 -258z m5150 -286 c550 -81 1006 -266 1413 -571 744 -559
1155 -1407 1272 -2625 54 -565 58 -1430 9 -1989 -93 -1071 -392 -1807 -960
-2362 -155 -150 -246 -224 -420 -339 -314 -206 -685 -358 -1059 -434 -301 -61
-302 -61 -1360 -61 -1004 0 -1047 2 -1169 41 -61 20 -117 76 -142 140 -19 48
-19 151 -22 3984 -1 2621 1 3953 8 3990 29 159 110 216 345 239 50 5 513 8
1030 7 827 -2 954 -5 1055 -20z"/>
</g>
</svg>
