<?xml version="1.0" standalone="no"?>
<!DOCTYPE svg PUBLIC "-//W3C//DTD SVG 20010904//EN"
 "http://www.w3.org/TR/2001/REC-SVG-20010904/DTD/svg10.dtd">
<svg version="1.0" xmlns="http://www.w3.org/2000/svg"
 width="1372.000000pt" height="976.000000pt" viewBox="0 0 1372.000000 976.000000"
 preserveAspectRatio="xMidYMid meet">
<metadata>
Created by potrace 1.16, written by Peter Selinger 2001-2019
</metadata>
<g transform="translate(0.000000,976.000000) scale(0.100000,-0.100000)"
fill="#000000" stroke="none">
<path d="M0 9501 l0 -261 183 0 c348 0 642 -27 763 -69 104 -37 188 -117 249
-239 14 -29 662 -2024 1440 -4433 1024 -3173 1421 -4390 1439 -4414 14 -18 49
-45 78 -59 47 -23 63 -26 162 -26 61 0 128 5 150 11 55 15 121 80 144 142 11
29 520 1606 1133 3505 l1114 3453 27 -83 c15 -46 509 -1577 1098 -3403 589
-1826 1085 -3363 1102 -3415 26 -80 38 -103 77 -141 57 -58 94 -69 237 -69 99
0 115 3 162 26 29 14 64 41 78 59 18 24 179 512 559 1687 293 909 901 2792
1350 4183 449 1392 830 2563 847 2603 94 226 269 408 503 522 194 95 403 143
677 157 l138 6 0 260 0 259 -72 -6 c-487 -41 -2104 -41 -2835 0 l-113 6 0
-261 0 -261 63 0 c172 0 412 -38 569 -91 388 -130 619 -396 565 -649 -14 -65
-2045 -6369 -2056 -6382 -3 -4 -496 1512 -1095 3368 -982 3044 -1088 3380
-1084 3424 20 204 326 312 931 327 l237 6 0 260 0 260 -127 -7 c-829 -41
-2828 -41 -3525 0 l-108 7 0 -260 0 -260 293 -6 c401 -9 579 -30 695 -82 75
-35 160 -123 205 -215 20 -41 111 -305 201 -586 l165 -510 -925 -2865 c-508
-1575 -925 -2867 -927 -2870 -1 -4 -492 1513 -1092 3370 -736 2282 -1089 3389
-1089 3416 1 76 70 167 161 213 159 81 492 132 866 132 l147 0 0 261 0 262
-127 -7 c-821 -41 -2901 -41 -3535 0 l-98 7 0 -262z"/>
</g>
</svg>
