<?xml version="1.0" standalone="no"?>
<!DOCTYPE svg PUBLIC "-//W3C//DTD SVG 20010904//EN"
 "http://www.w3.org/TR/2001/REC-SVG-20010904/DTD/svg10.dtd">
<svg version="1.0" xmlns="http://www.w3.org/2000/svg"
 width="642.000000pt" height="1209.000000pt" viewBox="0 0 642.000000 1209.000000"
 preserveAspectRatio="xMidYMid meet">
<metadata>
Created by potrace 1.16, written by Peter Selinger 2001-2019
</metadata>
<g transform="translate(0.000000,1209.000000) scale(0.100000,-0.100000)"
fill="#000000" stroke="none">
<path d="M1260 12076 c-188 -40 -325 -118 -459 -262 -84 -90 -159 -231 -191
-358 -27 -109 -27 -283 0 -392 74 -296 308 -532 605 -610 97 -26 303 -26 400
0 160 42 294 124 414 252 57 61 84 101 126 188 65 136 87 227 87 366 0 139
-22 230 -87 366 -42 87 -69 127 -126 188 -118 127 -255 210 -409 251 -88 22
-277 28 -360 11z"/>
<path d="M5460 12084 c-211 -41 -400 -149 -520 -297 -64 -79 -133 -211 -162
-313 -33 -113 -33 -315 0 -428 66 -230 215 -413 423 -521 135 -70 219 -90 379
-90 160 0 244 20 379 90 161 83 273 195 356 356 70 135 90 219 90 379 0 160
-20 244 -90 379 -107 206 -290 356 -515 421 -74 21 -279 36 -340 24z"/>
<path d="M1105 8874 c-561 -40 -1028 -73 -1037 -73 -17 -1 -18 -23 -18 -309
l0 -309 217 -6 c559 -16 715 -96 780 -399 17 -78 18 -197 18 -2088 l0 -2005
-31 -55 c-74 -131 -181 -156 -726 -167 l-308 -6 0 -310 0 -310 98 7 c633 41
2331 41 2965 0 l97 -7 0 312 0 311 -172 0 c-215 0 -462 15 -565 35 -108 21
-159 55 -198 130 l-30 59 -3 2633 -2 2633 -33 -1 c-17 -1 -491 -34 -1052 -75z"/>
<path d="M5240 8874 c-602 -40 -1103 -73 -1112 -73 -17 -1 -18 -23 -18 -309
l0 -309 248 -6 c566 -14 765 -77 861 -272 71 -143 65 113 69 -3045 3 -2955 3
-3008 -39 -3262 -93 -576 -349 -971 -689 -1063 -146 -40 -417 -25 -638 34
l-43 12 64 50 c114 88 202 225 244 379 27 101 25 311 -5 415 -91 315 -365 515
-707 515 -342 0 -616 -200 -707 -515 -20 -69 -23 -101 -22 -230 1 -128 5 -164
27 -247 88 -330 313 -588 666 -764 680 -338 1591 -202 2231 334 403 337 671
838 730 1367 6 59 10 1306 10 3578 l0 3487 -37 -1 c-21 -1 -531 -34 -1133 -75z"/>
</g>
</svg>
