<?xml version="1.0" standalone="no"?>
<!DOCTYPE svg PUBLIC "-//W3C//DTD SVG 20010904//EN"
 "http://www.w3.org/TR/2001/REC-SVG-20010904/DTD/svg10.dtd">
<svg version="1.0" xmlns="http://www.w3.org/2000/svg"
 width="847.000000pt" height="976.000000pt" viewBox="0 0 847.000000 976.000000"
 preserveAspectRatio="xMidYMid meet">
<metadata>
Created by potrace 1.16, written by Peter Selinger 2001-2019
</metadata>
<g transform="translate(0.000000,976.000000) scale(0.100000,-0.100000)"
fill="#000000" stroke="none">
<path d="M3885 9749 c-637 -45 -1239 -226 -1730 -522 -571 -343 -934 -806
-1057 -1345 -22 -95 -22 -112 -25 -1009 l-4 -913 -519 0 -520 0 0 -260 0 -260
520 0 520 0 -2 -2317 -3 -2318 -24 -59 c-33 -84 -92 -139 -173 -164 -126 -39
-374 -61 -690 -62 l-178 0 0 -261 0 -261 93 6 c601 41 2373 41 2975 0 l92 -6
0 261 0 261 -177 0 c-317 1 -565 23 -691 62 -81 25 -140 80 -173 164 l-24 59
-3 2318 -2 2317 1410 0 1410 0 -2 -2317 -3 -2318 -24 -59 c-33 -84 -92 -139
-173 -164 -126 -39 -374 -61 -690 -62 l-178 0 0 -261 0 -261 93 6 c603 41
2532 41 3230 0 l107 -7 0 260 0 260 -347 6 c-470 9 -692 30 -804 78 -60 26
-122 92 -157 167 l-27 57 -3 2308 -2 2307 765 0 765 0 0 260 0 260 -786 0
-785 0 4 933 c3 799 6 946 20 1032 75 468 236 813 501 1081 216 217 430 323
692 341 93 6 238 -7 328 -30 l49 -13 -50 -32 c-84 -54 -168 -151 -213 -244
-96 -199 -94 -414 4 -614 187 -378 727 -461 1043 -161 60 57 82 87 119 161 60
123 77 210 71 356 -22 466 -380 841 -918 962 -92 20 -129 23 -314 22 -242 0
-359 -15 -590 -74 -329 -84 -677 -256 -916 -453 l-63 -52 -100 100 c-257 258
-657 429 -1105 475 -115 11 -399 11 -566 -1z m535 -424 c195 -30 329 -66 493
-135 l78 -32 -81 -40 c-216 -105 -350 -328 -350 -583 0 -113 22 -206 74 -311
37 -73 59 -104 118 -160 40 -38 99 -83 131 -99 54 -28 58 -32 53 -60 -22 -122
-26 -292 -26 -1077 l0 -868 -1430 0 -1431 0 4 903 c3 982 2 953 62 1161 130
449 481 854 945 1090 233 119 490 193 780 225 118 13 454 5 580 -14z"/>
</g>
</svg>
