<?xml version="1.0" standalone="no"?>
<!DOCTYPE svg PUBLIC "-//W3C//DTD SVG 20010904//EN"
 "http://www.w3.org/TR/2001/REC-SVG-20010904/DTD/svg10.dtd">
<svg version="1.0" xmlns="http://www.w3.org/2000/svg"
 width="659.000000pt" height="845.000000pt" viewBox="0 0 659.000000 845.000000"
 preserveAspectRatio="xMidYMid meet">
<metadata>
Created by potrace 1.16, written by Peter Selinger 2001-2019
</metadata>
<g transform="translate(0.000000,845.000000) scale(0.100000,-0.100000)"
fill="#000000" stroke="none">
<path d="M955 8374 c-512 -40 -936 -73 -942 -73 -10 -1 -13 -53 -13 -226 l0
-225 153 0 c179 0 387 -14 509 -35 227 -39 318 -121 354 -325 20 -115 20
-6645 0 -6741 -35 -164 -111 -231 -299 -263 -118 -21 -346 -36 -549 -36 l-168
0 0 -226 0 -226 98 6 c617 39 2207 39 2825 0 l97 -6 0 226 0 226 -167 0 c-317
0 -586 28 -682 71 -56 24 -106 71 -133 123 -48 93 -48 92 -48 1375 l0 1203 47
-53 c324 -373 759 -621 1243 -711 155 -29 541 -31 725 -4 1401 205 2442 1317
2566 2741 14 168 7 476 -16 654 -76 593 -310 1146 -678 1601 -92 113 -299 317
-417 410 -396 315 -826 500 -1325 572 -137 20 -522 17 -665 -5 -544 -84 -1019
-320 -1397 -693 l-123 -121 0 419 0 418 -32 -1 c-18 -1 -451 -34 -963 -75z
m2915 -318 c701 -106 1309 -876 1495 -1891 46 -254 59 -411 59 -715 1 -298 -8
-409 -49 -656 -143 -852 -606 -1573 -1205 -1874 -101 -51 -259 -105 -368 -127
-107 -21 -381 -24 -492 -4 -354 61 -651 220 -910 487 -153 158 -252 294 -359
495 l-51 96 0 1587 0 1587 56 91 c239 394 621 698 1055 842 247 82 553 114
769 82z"/>
</g>
</svg>
