<?xml version="1.0" standalone="no"?>
<!DOCTYPE svg PUBLIC "-//W3C//DTD SVG 20010904//EN"
 "http://www.w3.org/TR/2001/REC-SVG-20010904/DTD/svg10.dtd">
<svg version="1.0" xmlns="http://www.w3.org/2000/svg"
 width="846.000000pt" height="786.000000pt" viewBox="0 0 846.000000 786.000000"
 preserveAspectRatio="xMidYMid meet">
<metadata>
Created by potrace 1.16, written by Peter Selinger 2001-2019
</metadata>
<g transform="translate(0.000000,786.000000) scale(0.100000,-0.100000)"
fill="#000000" stroke="none">
<path d="M8190 7854 c-95 -37 -8084 -3744 -8110 -3764 -104 -79 -104 -241 0
-320 19 -15 1851 -868 4070 -1896 l4035 -1869 65 0 c82 1 134 32 174 104 36
68 35 130 -4 197 -26 46 -39 56 -117 96 -48 25 -1777 827 -3840 1783 -2064
956 -3753 1741 -3753 1745 0 4 1689 789 3752 1745 2064 956 3793 1758 3841
1783 78 40 91 50 117 96 76 132 -8 292 -159 302 -31 2 -63 1 -71 -2z"/>
</g>
</svg>
