<?xml version="1.0" standalone="no"?>
<!DOCTYPE svg PUBLIC "-//W3C//DTD SVG 20010904//EN"
 "http://www.w3.org/TR/2001/REC-SVG-20010904/DTD/svg10.dtd">
<svg version="1.0" xmlns="http://www.w3.org/2000/svg"
 width="649.000000pt" height="1148.000000pt" viewBox="0 0 649.000000 1148.000000"
 preserveAspectRatio="xMidYMid meet">
<metadata>
Created by potrace 1.16, written by Peter Selinger 2001-2019
</metadata>
<g transform="translate(0.000000,1148.000000) scale(0.100000,-0.100000)"
fill="#000000" stroke="none">
<path d="M1805 11466 c-258 -60 -459 -242 -542 -491 -24 -71 -27 -95 -27 -215
0 -120 3 -144 27 -215 38 -115 91 -199 182 -290 91 -91 175 -144 290 -182 69
-23 97 -27 210 -27 148 -1 224 17 350 82 107 55 239 192 293 302 109 222 109
438 0 660 -34 69 -58 102 -132 175 -99 98 -176 146 -301 185 -90 28 -263 36
-350 16z"/>
<path d="M4401 11470 c-156 -33 -262 -91 -377 -205 -74 -73 -98 -106 -132
-175 -55 -112 -82 -220 -82 -330 0 -110 27 -218 82 -330 54 -110 186 -247 293
-302 126 -65 202 -83 350 -82 113 0 141 4 210 27 115 38 199 91 290 182 91 91
144 175 182 290 24 71 27 95 27 215 0 120 -3 144 -27 215 -38 115 -91 199
-182 290 -141 141 -285 204 -480 211 -60 2 -130 -1 -154 -6z"/>
<path d="M0 8228 l0 -225 223 -6 c312 -8 447 -28 566 -82 75 -35 159 -126 214
-233 25 -48 493 -1182 1041 -2520 l996 -2432 -250 -613 c-138 -336 -282 -675
-320 -752 -340 -694 -788 -1047 -1295 -1022 -176 9 -318 55 -463 149 -34 22
-61 42 -60 43 2 2 32 10 68 19 266 66 430 280 430 561 0 260 -144 463 -383
541 -117 39 -267 39 -384 0 -239 -78 -382 -281 -383 -543 -1 -468 318 -883
802 -1046 144 -48 231 -61 413 -62 141 0 187 4 274 23 304 68 561 220 812 479
213 220 383 474 554 826 49 99 576 1374 1250 3022 641 1568 1189 2896 1216
2952 209 425 565 658 1052 689 l107 7 0 225 0 224 -62 -6 c-404 -39 -1546 -39
-2040 0 l-78 7 0 -225 0 -225 72 -7 c285 -26 492 -193 539 -434 14 -75 7 -214
-15 -287 -21 -67 -1349 -3315 -1357 -3315 -3 0 -340 818 -749 1817 -784 1915
-765 1865 -746 1967 16 86 98 158 226 200 110 36 177 46 353 53 l157 6 0 225
0 225 -97 -7 c-613 -39 -2077 -39 -2600 0 l-83 6 0 -224z"/>
</g>
</svg>
