<?xml version="1.0" standalone="no"?>
<!DOCTYPE svg PUBLIC "-//W3C//DTD SVG 20010904//EN"
 "http://www.w3.org/TR/2001/REC-SVG-20010904/DTD/svg10.dtd">
<svg version="1.0" xmlns="http://www.w3.org/2000/svg"
 width="327.000000pt" height="890.000000pt" viewBox="0 0 327.000000 890.000000"
 preserveAspectRatio="xMidYMid meet">
<metadata>
Created by potrace 1.16, written by Peter Selinger 2001-2019
</metadata>
<g transform="translate(0.000000,890.000000) scale(0.100000,-0.100000)"
fill="#000000" stroke="none">
<path d="M2570 8877 c-140 -48 -71 15 -1223 -1117 -367 -360 -667 -657 -667
-661 0 -15 263 -354 273 -351 25 7 2055 1157 2099 1189 141 102 218 263 205
428 -18 236 -192 453 -416 519 -79 23 -192 20 -271 -7z"/>
<path d="M1055 6034 c-533 -40 -978 -73 -987 -73 -17 -1 -18 -20 -18 -259 l0
-259 213 -6 c566 -16 718 -93 784 -399 17 -78 18 -199 18 -2153 0 -1970 -1
-2072 -18 -2122 -66 -188 -190 -227 -769 -240 l-278 -6 0 -260 0 -259 92 6
c604 41 2272 41 2876 0 l92 -6 0 261 0 261 -162 0 c-307 0 -562 28 -655 72
-54 25 -96 75 -126 148 l-22 55 -3 2658 -2 2657 -33 -1 c-17 -1 -468 -34
-1002 -75z"/>
</g>
</svg>
