<?xml version="1.0" standalone="no"?>
<!DOCTYPE svg PUBLIC "-//W3C//DTD SVG 20010904//EN"
 "http://www.w3.org/TR/2001/REC-SVG-20010904/DTD/svg10.dtd">
<svg version="1.0" xmlns="http://www.w3.org/2000/svg"
 width="885.000000pt" height="886.000000pt" viewBox="0 0 885.000000 886.000000"
 preserveAspectRatio="xMidYMid meet">
<metadata>
Created by potrace 1.16, written by Peter Selinger 2001-2019
</metadata>
<g transform="translate(0.000000,886.000000) scale(0.100000,-0.100000)"
fill="#000000" stroke="none">
<path d="M4340 8838 c-31 -16 -51 -36 -67 -67 l-23 -44 0 -2064 0 -2063 -2058
0 -2058 0 -44 -22 c-52 -27 -90 -90 -90 -148 0 -58 38 -121 90 -147 l44 -23
2058 0 2058 0 0 -2063 0 -2064 23 -44 c26 -51 89 -89 147 -89 58 0 121 38 147
89 l23 44 0 2064 0 2063 2058 0 2058 0 44 22 c52 27 90 90 90 148 0 58 -38
121 -90 148 l-44 22 -2058 0 -2058 0 0 2063 0 2064 -23 44 c-26 51 -89 89
-147 89 -20 0 -56 -10 -80 -22z"/>
</g>
</svg>
