<?xml version="1.0" standalone="no"?>
<!DOCTYPE svg PUBLIC "-//W3C//DTD SVG 20010904//EN"
 "http://www.w3.org/TR/2001/REC-SVG-20010904/DTD/svg10.dtd">
<svg version="1.0" xmlns="http://www.w3.org/2000/svg"
 width="590.000000pt" height="904.000000pt" viewBox="0 0 590.000000 904.000000"
 preserveAspectRatio="xMidYMid meet">
<metadata>
Created by potrace 1.16, written by Peter Selinger 2001-2019
</metadata>
<g transform="translate(0.000000,904.000000) scale(0.100000,-0.100000)"
fill="#000000" stroke="none">
<path d="M1970 9021 c-149 -32 -318 -114 -469 -228 -123 -92 -279 -251 -504
-513 -116 -135 -221 -257 -234 -271 l-24 -26 127 -110 128 -110 146 147 c225
229 426 363 636 426 120 36 312 44 435 20 181 -37 332 -101 639 -271 258 -143
434 -229 548 -265 282 -91 513 -76 767 50 227 113 397 266 746 672 l239 277
-127 110 -127 109 -131 -133 c-146 -149 -222 -214 -343 -292 -182 -120 -335
-172 -527 -180 -260 -11 -424 46 -939 330 -375 206 -543 266 -771 273 -101 3
-149 0 -215 -15z"/>
<path d="M2750 6094 c-19 -2 -78 -9 -130 -14 -659 -72 -1328 -421 -1793 -935
-738 -817 -1009 -1985 -701 -3030 103 -349 299 -724 531 -1014 102 -127 333
-358 461 -459 522 -414 1171 -642 1827 -642 656 0 1305 228 1827 642 128 101
359 332 461 459 174 218 348 518 450 779 281 714 274 1552 -20 2295 -280 711
-789 1280 -1439 1612 -295 151 -610 249 -939 293 -83 11 -473 21 -535 14z
m485 -358 c395 -71 755 -276 1003 -571 284 -338 429 -746 484 -1365 18 -197
18 -1198 0 -1405 -62 -729 -250 -1203 -614 -1550 -421 -402 -1014 -555 -1587
-411 -482 122 -881 453 -1102 914 -137 285 -213 604 -251 1047 -18 207 -18
1208 0 1405 71 793 304 1285 772 1632 242 179 482 270 845 322 65 9 364 -3
450 -18z"/>
</g>
</svg>
