<?xml version="1.0" standalone="no"?>
<!DOCTYPE svg PUBLIC "-//W3C//DTD SVG 20010904//EN"
 "http://www.w3.org/TR/2001/REC-SVG-20010904/DTD/svg10.dtd">
<svg version="1.0" xmlns="http://www.w3.org/2000/svg"
 width="499.000000pt" height="976.000000pt" viewBox="0 0 499.000000 976.000000"
 preserveAspectRatio="xMidYMid meet">
<metadata>
Created by potrace 1.16, written by Peter Selinger 2001-2019
</metadata>
<g transform="translate(0.000000,976.000000) scale(0.100000,-0.100000)"
fill="#000000" stroke="none">
<path d="M2150 9745 c-298 -63 -528 -282 -607 -575 -24 -89 -24 -291 0 -380
60 -223 209 -405 412 -506 129 -63 196 -79 345 -79 149 0 216 16 345 79 203
101 352 283 412 506 24 89 24 290 0 380 -25 94 -97 235 -160 311 -95 114 -254
215 -402 255 -83 22 -264 27 -345 9z"/>
<path d="M2120 7063 l-37 -38 -6 -480 c-8 -592 -27 -796 -108 -1128 -194 -799
-634 -1500 -1300 -2073 -252 -216 -353 -340 -470 -579 -76 -156 -115 -265
-153 -435 -150 -676 71 -1415 541 -1812 354 -298 819 -465 1418 -509 197 -14
569 -6 755 16 869 105 1564 452 1930 964 73 102 171 291 209 407 71 212 99
482 67 644 -47 244 -210 427 -451 507 -72 24 -95 27 -220 27 -125 0 -148 -3
-220 -27 -304 -102 -480 -365 -462 -692 19 -357 261 -605 627 -643 l70 -7 -70
-83 c-211 -246 -543 -445 -965 -575 -377 -117 -954 -168 -1267 -113 -236 42
-425 136 -548 273 -124 139 -176 328 -201 739 -15 239 -6 696 16 854 42 305
125 527 273 733 421 584 723 1301 867 2062 85 446 114 852 115 1582 0 339 -4
365 -65 403 -28 18 -49 20 -170 20 l-137 0 -38 -37z"/>
</g>
</svg>
