<?xml version="1.0" standalone="no"?>
<!DOCTYPE svg PUBLIC "-//W3C//DTD SVG 20010904//EN"
 "http://www.w3.org/TR/2001/REC-SVG-20010904/DTD/svg10.dtd">
<svg version="1.0" xmlns="http://www.w3.org/2000/svg"
 width="707.000000pt" height="930.000000pt" viewBox="0 0 707.000000 930.000000"
 preserveAspectRatio="xMidYMid meet">
<metadata>
Created by potrace 1.16, written by Peter Selinger 2001-2019
</metadata>
<g transform="translate(0.000000,930.000000) scale(0.100000,-0.100000)"
fill="#000000" stroke="none">
<path d="M3309 9285 c-469 -64 -864 -328 -1049 -700 -27 -55 -62 -145 -77
-200 -24 -88 -27 -118 -27 -250 0 -132 3 -162 27 -250 52 -189 156 -365 304
-510 547 -539 1539 -539 2086 0 148 145 252 321 304 510 24 88 27 118 27 250
0 132 -3 162 -27 250 -166 607 -847 998 -1568 900z m472 -406 c312 -31 510
-147 604 -350 55 -121 68 -199 68 -394 0 -154 -3 -192 -21 -259 -99 -361 -345
-496 -902 -496 -557 0 -803 135 -902 496 -18 67 -21 105 -21 259 0 195 13 273
68 394 91 198 294 319 586 350 121 12 400 13 520 0z"/>
<path d="M1055 6184 c-561 -40 -1028 -73 -1037 -73 -17 -1 -18 -20 -18 -261
l0 -260 143 0 c190 0 400 -17 522 -41 235 -47 341 -143 392 -356 15 -62 18
-238 23 -1863 7 -1963 3 -1838 66 -2090 83 -334 247 -616 466 -796 313 -260
709 -396 1258 -434 189 -13 436 -13 558 1 268 29 578 139 807 286 259 168 501
417 667 689 l53 87 3 -537 2 -538 68 6 c37 4 479 36 982 71 503 35 945 67 983
71 l67 6 0 259 0 259 -142 0 c-191 0 -401 17 -523 41 -235 47 -340 142 -393
356 -15 63 -17 268 -19 2631 l-3 2564 -73 -7 c-59 -5 -2049 -145 -2063 -145
-2 0 -4 -117 -4 -260 l0 -260 143 0 c190 0 400 -17 522 -41 235 -47 340 -143
392 -356 15 -61 17 -203 21 -1478 2 -974 0 -1450 -8 -1538 -18 -210 -57 -400
-121 -592 -41 -120 -164 -370 -234 -474 -242 -360 -568 -594 -931 -671 -276
-58 -748 -25 -992 70 -148 57 -290 169 -355 281 -52 88 -85 211 -115 419 -14
103 -16 373 -19 2583 l-4 2467 -32 -1 c-18 -1 -491 -34 -1052 -75z"/>
</g>
</svg>
