<?xml version="1.0" standalone="no"?>
<!DOCTYPE svg PUBLIC "-//W3C//DTD SVG 20010904//EN"
 "http://www.w3.org/TR/2001/REC-SVG-20010904/DTD/svg10.dtd">
<svg version="1.0" xmlns="http://www.w3.org/2000/svg"
 width="373.000000pt" height="1195.000000pt" viewBox="0 0 373.000000 1195.000000"
 preserveAspectRatio="xMidYMid meet">
<metadata>
Created by potrace 1.16, written by Peter Selinger 2001-2019
</metadata>
<g transform="translate(0.000000,1195.000000) scale(0.100000,-0.100000)"
fill="#000000" stroke="none">
<path d="M3071 11936 c-30 -8 -84 -29 -120 -48 -58 -30 -2003 -1248 -2025
-1268 -9 -9 167 -403 182 -408 18 -6 2289 701 2343 729 173 92 262 241 261
439 0 238 -143 456 -353 541 -68 27 -210 35 -288 15z"/>
<path d="M1030 9535 c-547 -41 -1003 -74 -1012 -74 -17 -1 -18 -20 -18 -261
l0 -260 138 0 c186 0 396 -17 517 -41 237 -48 342 -144 393 -361 16 -68 17
-322 17 -3898 0 -3663 -1 -3827 -18 -3877 -66 -188 -190 -227 -770 -240 l-277
-6 0 -260 0 -259 92 6 c602 41 2374 41 2976 0 l92 -6 0 259 0 260 -277 6
c-573 13 -692 49 -766 229 l-22 53 -3 4403 -2 4402 -33 -1 c-17 -1 -480 -34
-1027 -74z"/>
</g>
</svg>
