<?xml version="1.0" standalone="no"?>
<!DOCTYPE svg PUBLIC "-//W3C//DTD SVG 20010904//EN"
 "http://www.w3.org/TR/2001/REC-SVG-20010904/DTD/svg10.dtd">
<svg version="1.0" xmlns="http://www.w3.org/2000/svg"
 width="825.000000pt" height="1198.000000pt" viewBox="0 0 825.000000 1198.000000"
 preserveAspectRatio="xMidYMid meet">
<metadata>
Created by potrace 1.16, written by Peter Selinger 2001-2019
</metadata>
<g transform="translate(0.000000,1198.000000) scale(0.100000,-0.100000)"
fill="#000000" stroke="none">
<path d="M3291 11053 l-890 -928 127 -127 c70 -71 130 -128 134 -128 4 0 349
308 765 685 417 377 760 685 763 685 3 0 346 -308 763 -685 416 -377 761 -685
765 -685 4 0 64 57 134 128 l127 127 -890 928 c-489 510 -894 927 -899 927 -5
0 -410 -417 -899 -927z"/>
<path d="M0 8807 l0 -224 343 -6 c619 -11 822 -45 915 -152 42 -47 77 -118 91
-183 16 -76 16 -7378 0 -7454 -14 -65 -49 -136 -91 -183 -93 -107 -296 -141
-915 -152 l-343 -6 0 -224 0 -223 3844 0 3844 0 6 27 c3 16 125 782 271 1703
146 921 268 1687 271 1702 l6 28 -186 0 -185 0 -6 -33 c-3 -17 -24 -142 -46
-277 -173 -1050 -376 -1631 -704 -2013 -289 -337 -781 -565 -1390 -641 -307
-39 -392 -41 -1610 -41 -1112 0 -1196 1 -1274 18 -163 35 -224 92 -250 232 -8
41 -11 612 -11 1907 l0 1848 658 0 c656 0 868 -7 1057 -36 293 -43 518 -150
640 -302 168 -211 245 -543 245 -1059 l0 -153 185 0 185 0 0 1775 0 1775 -185
0 -185 0 0 -152 c0 -517 -77 -849 -245 -1060 -122 -152 -347 -259 -640 -302
-189 -29 -401 -36 -1057 -36 l-658 0 0 1678 c0 1172 3 1696 11 1737 25 137 85
194 239 231 69 16 163 18 1105 22 1048 3 1357 -3 1640 -34 595 -65 1006 -233
1274 -519 324 -347 500 -848 616 -1750 14 -110 28 -217 31 -237 l6 -38 185 0
185 0 -6 38 c-3 20 -85 685 -181 1477 -96 792 -178 1457 -181 1478 l-6 37
-3749 0 -3749 0 0 -223z"/>
</g>
</svg>
