<?xml version="1.0" standalone="no"?>
<!DOCTYPE svg PUBLIC "-//W3C//DTD SVG 20010904//EN"
 "http://www.w3.org/TR/2001/REC-SVG-20010904/DTD/svg10.dtd">
<svg version="1.0" xmlns="http://www.w3.org/2000/svg"
 width="403.000000pt" height="875.000000pt" viewBox="0 0 403.000000 875.000000"
 preserveAspectRatio="xMidYMid meet">
<metadata>
Created by potrace 1.16, written by Peter Selinger 2001-2019
</metadata>
<g transform="translate(0.000000,875.000000) scale(0.100000,-0.100000)"
fill="#000000" stroke="none">
<path d="M580 8736 c-189 -40 -351 -149 -456 -308 -226 -339 -130 -783 216
-1007 212 -137 486 -146 725 -23 102 52 237 190 292 297 112 217 112 453 0
670 -31 61 -62 102 -131 171 -99 98 -175 144 -301 184 -89 28 -253 35 -345 16z"/>
<path d="M3154 8735 c-148 -32 -265 -98 -373 -210 -218 -227 -263 -548 -118
-830 55 -107 190 -245 292 -297 194 -100 407 -113 606 -39 124 47 257 155 335
273 226 339 130 783 -216 1007 -148 96 -355 133 -526 96z"/>
<path d="M1505 5794 c-501 -40 -916 -73 -922 -73 -10 -1 -13 -53 -13 -224 l0
-224 213 -6 c520 -16 663 -84 740 -355 l22 -77 3 -2000 c2 -1432 0 -2018 -8
-2065 -22 -127 -78 -210 -170 -249 -100 -43 -366 -71 -682 -71 l-168 0 0 -226
0 -226 92 6 c586 39 2146 39 2701 0 l87 -7 0 225 0 225 -237 6 c-492 14 -600
51 -669 232 -18 49 -19 118 -22 2618 l-2 2567 -28 -1 c-15 -1 -436 -34 -937
-75z"/>
</g>
</svg>
