<?xml version="1.0" standalone="no"?>
<!DOCTYPE svg PUBLIC "-//W3C//DTD SVG 20010904//EN"
 "http://www.w3.org/TR/2001/REC-SVG-20010904/DTD/svg10.dtd">
<svg version="1.0" xmlns="http://www.w3.org/2000/svg"
 width="462.000000pt" height="144.000000pt" viewBox="0 0 462.000000 144.000000"
 preserveAspectRatio="xMidYMid meet">
<metadata>
Created by potrace 1.16, written by Peter Selinger 2001-2019
</metadata>
<g transform="translate(0.000000,144.000000) scale(0.100000,-0.100000)"
fill="#000000" stroke="none">
<path d="M1220 1425 c-212 -47 -410 -163 -590 -344 -47 -47 -153 -169 -235
-271 -82 -102 -204 -253 -272 -337 l-123 -152 197 -160 198 -160 60 67 c217
244 427 380 666 433 81 18 117 20 254 16 93 -3 192 -12 235 -22 127 -27 383
-119 635 -225 412 -175 567 -226 768 -256 222 -33 420 -4 612 90 134 66 240
145 362 268 106 108 627 749 615 759 -4 3 -92 74 -195 157 l-188 152 -137
-138 c-281 -283 -537 -396 -866 -379 -212 10 -411 68 -802 232 -334 141 -502
203 -654 243 -123 31 -150 35 -305 38 -124 3 -188 0 -235 -11z"/>
</g>
</svg>
