<?xml version="1.0" standalone="no"?>
<!DOCTYPE svg PUBLIC "-//W3C//DTD SVG 20010904//EN"
 "http://www.w3.org/TR/2001/REC-SVG-20010904/DTD/svg10.dtd">
<svg version="1.0" xmlns="http://www.w3.org/2000/svg"
 width="531.000000pt" height="911.000000pt" viewBox="0 0 531.000000 911.000000"
 preserveAspectRatio="xMidYMid meet">
<metadata>
Created by potrace 1.16, written by Peter Selinger 2001-2019
</metadata>
<g transform="translate(0.000000,911.000000) scale(0.100000,-0.100000)"
fill="#000000" stroke="none">
<path d="M2780 9104 c-587 -56 -1126 -272 -1584 -637 -138 -111 -382 -358
-490 -497 -384 -495 -608 -1049 -688 -1700 -19 -157 -16 -613 5 -770 135 -983
652 -1801 1453 -2296 266 -164 601 -300 907 -368 l27 -6 0 -444 0 -443 118 -7
c536 -30 903 -225 1009 -535 31 -91 32 -245 2 -333 -102 -305 -470 -463 -1229
-528 -69 -6 -305 -13 -525 -16 -220 -2 -428 -7 -462 -10 l-63 -6 0 -251 0
-252 407 2 c865 5 1367 41 1808 128 744 147 1137 433 1230 893 22 107 16 354
-10 452 -63 234 -219 436 -454 587 -137 88 -382 190 -583 243 l-88 23 0 248 0
248 43 11 c124 31 338 109 462 169 246 120 424 249 625 458 244 252 424 555
545 918 56 168 63 217 37 264 -34 63 -65 71 -255 71 -237 0 -244 -4 -291 -170
-41 -142 -121 -337 -188 -457 -198 -356 -481 -605 -804 -706 -156 -49 -244
-61 -444 -61 -220 1 -358 22 -544 84 -714 238 -1200 866 -1345 1740 -100 599
-76 1430 58 1975 187 758 660 1281 1276 1410 207 44 769 23 1115 -40 l89 -17
-73 -72 c-125 -125 -194 -288 -203 -482 -18 -362 174 -638 517 -746 64 -19 96
-23 215 -23 119 0 151 4 215 23 345 108 534 382 517 751 -6 146 -34 256 -97
386 -85 176 -198 301 -382 422 -271 179 -652 295 -1143 348 -134 15 -640 28
-735 19z"/>
</g>
</svg>
