<?xml version="1.0" standalone="no"?>
<!DOCTYPE svg PUBLIC "-//W3C//DTD SVG 20010904//EN"
 "http://www.w3.org/TR/2001/REC-SVG-20010904/DTD/svg10.dtd">
<svg version="1.0" xmlns="http://www.w3.org/2000/svg"
 width="668.000000pt" height="937.000000pt" viewBox="0 0 668.000000 937.000000"
 preserveAspectRatio="xMidYMid meet">
<metadata>
Created by potrace 1.16, written by Peter Selinger 2001-2019
</metadata>
<g transform="translate(0.000000,937.000000) scale(0.100000,-0.100000)"
fill="#000000" stroke="none">
<path d="M3715 9363 c-606 -48 -1018 -156 -1468 -385 -643 -328 -1058 -812
-1189 -1386 -22 -95 -22 -112 -25 -984 l-4 -888 -509 0 -510 0 0 -225 0 -225
510 0 510 0 0 -2227 c0 -2384 1 -2303 -48 -2399 -27 -52 -77 -99 -133 -123
-96 -43 -365 -71 -681 -71 l-168 0 0 -226 0 -226 93 6 c584 39 2210 39 2795 0
l92 -6 0 226 0 226 -167 0 c-317 0 -586 28 -682 71 -56 24 -106 71 -133 123
-49 96 -48 15 -48 2399 l0 2227 1173 -2 1172 -3 79 -23 c195 -57 277 -141 324
-330 15 -61 17 -252 20 -2072 2 -1435 0 -2023 -8 -2070 -22 -128 -77 -208
-171 -249 -96 -43 -365 -71 -681 -71 l-168 0 0 -226 0 -226 93 6 c584 39 2210
39 2795 0 l92 -6 0 226 0 226 -167 0 c-317 0 -586 28 -682 71 -56 24 -106 71
-133 123 -50 96 -48 -9 -48 2709 0 1395 -2 2537 -3 2537 -2 0 -440 -34 -973
-75 -591 -45 -970 -78 -972 -85 -3 -7 -291 -10 -893 -10 l-890 0 4 888 c3 855
4 890 24 983 47 215 127 403 250 589 110 165 321 375 493 490 334 223 697 339
1120 356 429 19 856 -112 1123 -344 46 -40 47 -42 22 -42 -55 0 -173 -33 -252
-71 -368 -176 -449 -717 -151 -1011 148 -146 378 -209 591 -162 296 65 486
308 487 621 1 685 -600 1247 -1435 1343 -82 9 -371 11 -470 3z"/>
</g>
</svg>
