<?xml version="1.0" standalone="no"?>
<!DOCTYPE svg PUBLIC "-//W3C//DTD SVG 20010904//EN"
 "http://www.w3.org/TR/2001/REC-SVG-20010904/DTD/svg10.dtd">
<svg version="1.0" xmlns="http://www.w3.org/2000/svg"
 width="699.000000pt" height="1197.000000pt" viewBox="0 0 699.000000 1197.000000"
 preserveAspectRatio="xMidYMid meet">
<metadata>
Created by potrace 1.16, written by Peter Selinger 2001-2019
</metadata>
<g transform="translate(0.000000,1197.000000) scale(0.100000,-0.100000)"
fill="#000000" stroke="none">
<path d="M4475 11951 c-33 -10 -79 -26 -102 -37 -54 -24 -1992 -1246 -1993
-1256 0 -6 218 -489 224 -495 1 -2 504 148 1116 333 821 247 1133 345 1185
372 135 71 233 195 271 344 23 90 15 239 -19 336 -70 201 -220 350 -406 406
-71 21 -199 20 -276 -3z"/>
<path d="M336 9343 c-4 -60 -36 -756 -71 -1548 -35 -792 -67 -1488 -71 -1547
l-6 -108 275 0 275 0 7 108 c20 332 55 617 101 836 213 1006 799 1547 1839
1695 299 43 329 44 1448 48 l1088 4 -24 -38 c-13 -21 -1187 -1896 -2608 -4168
l-2584 -4130 0 -197 c0 -216 2 -222 69 -272 l27 -21 3324 -3 3323 -2 7 82 c3
46 53 884 110 1863 57 979 107 1817 110 1863 l7 82 -276 0 c-152 0 -276 -4
-276 -8 0 -5 -7 -111 -15 -238 -61 -938 -165 -1458 -379 -1884 -100 -198 -200
-335 -353 -481 -141 -134 -262 -217 -458 -314 -294 -146 -573 -222 -985 -269
-270 -31 -544 -37 -1552 -34 l-997 3 2591 4140 c1424 2277 2597 4155 2605
4174 11 26 14 71 11 202 -3 183 -7 195 -72 243 l-27 21 -3229 3 -3228 2 -6
-107z"/>
</g>
</svg>
