<?xml version="1.0" standalone="no"?>
<!DOCTYPE svg PUBLIC "-//W3C//DTD SVG 20010904//EN"
 "http://www.w3.org/TR/2001/REC-SVG-20010904/DTD/svg10.dtd">
<svg version="1.0" xmlns="http://www.w3.org/2000/svg"
 width="1184.000000pt" height="945.000000pt" viewBox="0 0 1184.000000 945.000000"
 preserveAspectRatio="xMidYMid meet">
<metadata>
Created by potrace 1.16, written by Peter Selinger 2001-2019
</metadata>
<g transform="translate(0.000000,945.000000) scale(0.100000,-0.100000)"
fill="#000000" stroke="none">
<path d="M0 9142 l0 -309 403 -6 c545 -8 760 -27 862 -77 50 -24 108 -78 132
-123 17 -30 18 -227 21 -3700 2 -4049 7 -3732 -60 -3861 -47 -90 -173 -211
-273 -263 -223 -115 -481 -167 -882 -180 l-203 -6 0 -310 0 -309 103 6 c672
41 2594 41 3230 0 l97 -7 0 310 0 310 -202 6 c-402 13 -660 65 -883 180 -100
52 -226 173 -273 263 -67 129 -62 -191 -60 3891 l3 3698 1599 -4240 c880
-2332 1610 -4261 1622 -4287 26 -52 74 -93 131 -114 51 -18 285 -18 336 0 54
20 104 62 127 107 11 21 748 1966 1636 4322 889 2355 1620 4291 1624 4302 5
11 8 -1760 7 -3935 -2 -3747 -3 -3957 -20 -3987 -24 -45 -82 -99 -132 -123
-102 -50 -317 -69 -862 -77 l-403 -6 0 -310 0 -310 123 7 c788 41 3116 41
3905 0 l122 -7 0 310 0 310 -402 6 c-546 8 -761 27 -863 77 -50 24 -108 78
-132 123 -17 30 -18 234 -18 3902 0 3668 1 3872 18 3902 24 45 82 99 132 123
102 50 317 69 863 77 l402 6 0 309 0 308 -1426 0 c-1054 0 -1437 -3 -1465 -12
-60 -17 -118 -74 -149 -143 -15 -33 -666 -1753 -1446 -3822 -780 -2070 -1421
-3763 -1424 -3763 -3 0 -644 1693 -1424 3763 -780 2069 -1431 3789 -1446 3822
-31 69 -89 126 -149 143 -28 9 -412 12 -1470 12 l-1431 0 0 -308z"/>
</g>
</svg>
