<?xml version="1.0" standalone="no"?>
<!DOCTYPE svg PUBLIC "-//W3C//DTD SVG 20010904//EN"
 "http://www.w3.org/TR/2001/REC-SVG-20010904/DTD/svg10.dtd">
<svg version="1.0" xmlns="http://www.w3.org/2000/svg"
 width="531.000000pt" height="906.000000pt" viewBox="0 0 531.000000 906.000000"
 preserveAspectRatio="xMidYMid meet">
<metadata>
Created by potrace 1.16, written by Peter Selinger 2001-2019
</metadata>
<g transform="translate(0.000000,906.000000) scale(0.100000,-0.100000)"
fill="#000000" stroke="none">
<path d="M3761 9044 c-104 -28 -188 -82 -317 -204 -174 -165 -1574 -1544
-1574 -1551 0 -16 323 -434 333 -431 24 7 1984 1096 2037 1132 185 126 273
326 236 538 -61 349 -407 599 -715 516z"/>
<path d="M2780 6334 c-587 -56 -1126 -272 -1584 -637 -138 -111 -382 -358
-490 -497 -384 -495 -608 -1049 -688 -1700 -19 -157 -16 -613 5 -770 103 -752
422 -1395 938 -1895 242 -234 475 -397 774 -541 297 -143 582 -229 915 -275
126 -18 554 -18 680 0 450 62 848 228 1170 488 110 89 315 304 390 411 158
223 271 444 355 697 56 168 63 217 37 264 -34 63 -65 71 -255 71 -237 0 -244
-4 -291 -170 -41 -142 -121 -337 -188 -457 -198 -356 -481 -605 -804 -706
-156 -49 -244 -61 -444 -61 -220 1 -358 22 -544 84 -714 238 -1200 866 -1345
1740 -100 599 -76 1430 58 1975 187 758 660 1281 1276 1410 207 44 769 23
1115 -40 l89 -17 -73 -72 c-125 -125 -194 -288 -203 -482 -18 -362 174 -638
517 -746 64 -19 96 -23 215 -23 119 0 151 4 215 23 345 108 534 382 517 751
-6 146 -34 256 -97 386 -85 176 -198 301 -382 422 -271 179 -652 295 -1143
348 -134 15 -640 28 -735 19z"/>
</g>
</svg>
