<?xml version="1.0" standalone="no"?>
<!DOCTYPE svg PUBLIC "-//W3C//DTD SVG 20010904//EN"
 "http://www.w3.org/TR/2001/REC-SVG-20010904/DTD/svg10.dtd">
<svg version="1.0" xmlns="http://www.w3.org/2000/svg"
 width="442.000000pt" height="945.000000pt" viewBox="0 0 442.000000 945.000000"
 preserveAspectRatio="xMidYMid meet">
<metadata>
Created by potrace 1.16, written by Peter Selinger 2001-2019
</metadata>
<g transform="translate(0.000000,945.000000) scale(0.100000,-0.100000)"
fill="#000000" stroke="none">
<path d="M0 9141 l0 -311 268 0 c531 0 920 -27 1039 -72 72 -27 156 -107 172
-164 15 -55 15 -7683 0 -7738 -16 -57 -100 -137 -172 -164 -119 -45 -508 -72
-1039 -72 l-268 0 0 -311 0 -312 133 7 c850 41 3294 41 4145 0 l132 -7 0 312
0 311 -267 0 c-532 0 -921 27 -1040 72 -72 27 -156 107 -172 164 -15 55 -15
7683 0 7738 16 57 100 137 172 164 119 45 508 72 1040 72 l267 0 0 311 0 312
-132 -7 c-412 -19 -1126 -30 -2073 -30 -947 0 -1661 11 -2072 30 l-133 7 0
-312z"/>
</g>
</svg>
