<?xml version="1.0" standalone="no"?>
<!DOCTYPE svg PUBLIC "-//W3C//DTD SVG 20010904//EN"
 "http://www.w3.org/TR/2001/REC-SVG-20010904/DTD/svg10.dtd">
<svg version="1.0" xmlns="http://www.w3.org/2000/svg"
 width="999.000000pt" height="1230.000000pt" viewBox="0 0 999.000000 1230.000000"
 preserveAspectRatio="xMidYMid meet">
<metadata>
Created by potrace 1.16, written by Peter Selinger 2001-2019
</metadata>
<g transform="translate(0.000000,1230.000000) scale(0.100000,-0.100000)"
fill="#000000" stroke="none">
<path d="M4905 12287 c-57 -22 -102 -57 -129 -97 -21 -32 -155 -516 -616
-2223 -325 -1200 -593 -2190 -596 -2199 -5 -17 -99 -18 -1692 -20 -1646 -3
-1688 -3 -1726 -22 -186 -93 -194 -352 -14 -451 l53 -30 1613 -3 c886 -1 1612
-5 1612 -8 0 -5 -564 -2118 -576 -2156 -5 -17 -82 -18 -1327 -20 l-1322 -3
-53 -30 c-88 -48 -138 -141 -130 -239 8 -92 62 -171 144 -212 38 -18 75 -19
1287 -22 686 -1 1247 -4 1247 -6 0 -2 -257 -953 -571 -2113 -620 -2284 -599
-2198 -555 -2287 87 -175 335 -195 440 -35 21 30 162 539 616 2222 325 1200
593 2190 596 2200 5 16 78 17 1345 17 736 0 1339 -2 1339 -4 0 -2 -257 -953
-571 -2113 -620 -2284 -599 -2198 -555 -2287 87 -175 335 -195 440 -35 21 30
162 539 616 2222 325 1200 593 2190 596 2199 5 17 99 18 1692 20 1646 3 1688
3 1726 22 93 46 141 125 141 231 0 106 -48 185 -141 231 -38 19 -79 19 -1651
22 -887 1 -1613 5 -1613 8 0 5 564 2118 576 2156 5 17 82 18 1327 20 1285 3
1323 4 1361 22 93 46 141 125 141 231 0 106 -48 185 -141 231 -38 18 -75 19
-1286 22 -687 1 -1248 4 -1248 6 0 2 257 953 571 2113 620 2284 599 2198 555
2287 -87 175 -335 195 -440 35 -21 -30 -162 -539 -616 -2222 -325 -1200 -593
-2190 -596 -2199 -5 -17 -78 -18 -1345 -18 -736 0 -1339 2 -1339 4 0 2 257
953 571 2113 620 2284 599 2198 555 2287 -25 50 -73 97 -122 121 -47 23 -147
29 -189 12z m1715 -5053 c0 -5 -564 -2118 -576 -2156 -5 -17 -78 -18 -1345
-18 -736 0 -1339 3 -1339 6 0 5 564 2118 576 2157 5 16 78 17 1345 17 736 0
1339 -3 1339 -6z"/>
</g>
</svg>
