<?xml version="1.0" standalone="no"?>
<!DOCTYPE svg PUBLIC "-//W3C//DTD SVG 20010904//EN"
 "http://www.w3.org/TR/2001/REC-SVG-20010904/DTD/svg10.dtd">
<svg version="1.0" xmlns="http://www.w3.org/2000/svg"
 width="615.000000pt" height="136.000000pt" viewBox="0 0 615.000000 136.000000"
 preserveAspectRatio="xMidYMid meet">
<metadata>
Created by potrace 1.16, written by Peter Selinger 2001-2019
</metadata>
<g transform="translate(0.000000,136.000000) scale(0.100000,-0.100000)"
fill="#000000" stroke="none">
<path d="M1487 1349 c-362 -42 -669 -188 -930 -443 -96 -94 -559 -638 -550
-647 5 -4 74 -63 154 -131 l147 -125 124 122 c236 230 470 357 788 427 94 20
132 22 360 23 280 0 353 -8 646 -71 181 -38 411 -101 839 -229 532 -158 841
-230 1125 -260 576 -62 1025 80 1393 439 96 94 559 638 550 647 -5 4 -74 63
-154 131 l-147 125 -124 -122 c-236 -230 -470 -357 -788 -427 -94 -20 -132
-22 -360 -23 -280 0 -353 8 -646 71 -181 38 -411 101 -839 229 -532 158 -841
230 -1125 260 -144 16 -351 18 -463 4z"/>
</g>
</svg>
