<?xml version="1.0" standalone="no"?>
<!DOCTYPE svg PUBLIC "-//W3C//DTD SVG 20010904//EN"
 "http://www.w3.org/TR/2001/REC-SVG-20010904/DTD/svg10.dtd">
<svg version="1.0" xmlns="http://www.w3.org/2000/svg"
 width="348.000000pt" height="961.000000pt" viewBox="0 0 348.000000 961.000000"
 preserveAspectRatio="xMidYMid meet">
<metadata>
Created by potrace 1.16, written by Peter Selinger 2001-2019
</metadata>
<g transform="translate(0.000000,961.000000) scale(0.100000,-0.100000)"
fill="#000000" stroke="none">
<path d="M1100 9535 c-575 -41 -1053 -74 -1062 -74 -17 -1 -18 -23 -18 -311
l0 -310 138 0 c186 0 396 -17 517 -41 235 -47 340 -142 392 -356 16 -62 17
-222 20 -1829 l4 -1761 -546 -453 -545 -453 38 -46 c207 -249 346 -417 351
-423 4 -4 162 121 351 278 l345 286 3 -1577 c1 -1006 -1 -1591 -8 -1614 -16
-59 -65 -127 -112 -155 -82 -48 -357 -76 -755 -76 l-193 0 0 -311 0 -311 103
6 c670 41 2384 41 3055 0 l102 -6 0 309 0 310 -307 6 c-548 11 -653 36 -727
167 l-31 55 -3 2066 -2 2065 630 523 630 523 -68 82 c-312 380 -326 395 -341
383 -9 -7 -201 -166 -428 -354 -227 -189 -415 -343 -418 -343 -3 0 -5 860 -5
1910 l0 1910 -32 -1 c-18 -1 -503 -34 -1078 -74z"/>
</g>
</svg>
