<?xml version="1.0" standalone="no"?>
<!DOCTYPE svg PUBLIC "-//W3C//DTD SVG 20010904//EN"
 "http://www.w3.org/TR/2001/REC-SVG-20010904/DTD/svg10.dtd">
<svg version="1.0" xmlns="http://www.w3.org/2000/svg"
 width="644.000000pt" height="922.000000pt" viewBox="0 0 644.000000 922.000000"
 preserveAspectRatio="xMidYMid meet">
<metadata>
Created by potrace 1.16, written by Peter Selinger 2001-2019
</metadata>
<g transform="translate(0.000000,922.000000) scale(0.100000,-0.100000)"
fill="#000000" stroke="none">
<path d="M955 9144 c-512 -40 -936 -73 -942 -73 -10 -1 -13 -53 -13 -224 l0
-224 218 -6 c562 -15 719 -90 790 -375 15 -62 17 -362 20 -3737 2 -2643 0
-3688 -8 -3735 -22 -128 -77 -208 -171 -249 -96 -43 -365 -71 -681 -71 l-168
0 0 -226 0 -226 92 6 c584 39 2182 39 2766 0 l92 -6 0 226 0 226 -167 0 c-317
0 -586 28 -682 71 -56 24 -106 71 -133 123 -46 89 -48 123 -48 951 l0 780 400
348 c220 191 403 347 409 347 10 0 1325 -1856 1406 -1986 29 -46 68 -119 86
-162 30 -70 33 -87 34 -177 0 -91 -2 -104 -27 -146 -54 -92 -197 -149 -375
-149 l-53 0 0 -226 0 -227 98 7 c611 39 2032 39 2465 0 l67 -7 0 227 0 226
-107 0 c-335 0 -558 58 -735 190 -89 67 -236 224 -345 367 -128 168 -1856
2614 -1857 2628 -1 13 950 844 1108 969 224 177 418 301 637 410 303 151 600
234 899 252 l110 7 0 225 0 224 -52 -6 c-29 -3 -132 -11 -228 -18 -307 -22
-1621 -10 -2087 18 l-103 6 0 -224 0 -224 68 -10 c138 -22 252 -102 286 -201
48 -140 -3 -311 -142 -481 -20 -24 -463 -415 -984 -868 l-948 -824 0 3165 0
3165 -32 -1 c-18 -1 -451 -34 -963 -75z"/>
</g>
</svg>
