<?xml version="1.0" standalone="no"?>
<!DOCTYPE svg PUBLIC "-//W3C//DTD SVG 20010904//EN"
 "http://www.w3.org/TR/2001/REC-SVG-20010904/DTD/svg10.dtd">
<svg version="1.0" xmlns="http://www.w3.org/2000/svg"
 width="863.000000pt" height="945.000000pt" viewBox="0 0 863.000000 945.000000"
 preserveAspectRatio="xMidYMid meet">
<metadata>
Created by potrace 1.16, written by Peter Selinger 2001-2019
</metadata>
<g transform="translate(0.000000,945.000000) scale(0.100000,-0.100000)"
fill="#000000" stroke="none">
<path d="M0 9142 l0 -309 403 -6 c545 -8 760 -27 862 -77 50 -24 108 -78 132
-123 17 -30 18 -234 18 -3902 0 -3668 -1 -3872 -18 -3902 -24 -45 -82 -99
-132 -123 -102 -50 -317 -69 -862 -77 l-403 -6 0 -309 0 -308 2933 3 2932 3
150 22 c433 62 741 155 1090 327 197 97 417 235 575 361 122 97 352 332 443
451 312 411 475 846 494 1318 13 330 -52 624 -207 942 -115 234 -256 430 -455
628 -461 461 -1103 766 -1845 876 -47 7 -76 15 -65 17 143 27 429 112 584 174
566 224 1032 581 1314 1008 231 351 330 742 286 1138 -118 1080 -1162 1966
-2529 2147 -255 33 -386 35 -3042 35 l-2658 0 0 -308z m5460 -344 c241 -60
457 -172 637 -331 638 -563 787 -1575 345 -2341 -110 -190 -283 -393 -451
-528 -284 -230 -641 -378 -1003 -417 -62 -7 -482 -11 -1158 -11 l-1060 0 0
1705 c0 1177 3 1720 11 1754 27 128 99 171 317 191 48 4 575 7 1172 6 l1085
-2 105 -26z m175 -4167 c545 -124 1000 -550 1239 -1159 112 -285 177 -681 162
-988 -45 -978 -758 -1758 -1691 -1854 -144 -15 -2256 -8 -2331 8 -141 29 -182
54 -218 132 l-21 45 -3 1923 -2 1923 1382 -4 1383 -3 100 -23z"/>
</g>
</svg>
