<?xml version="1.0" standalone="no"?>
<!DOCTYPE svg PUBLIC "-//W3C//DTD SVG 20010904//EN"
 "http://www.w3.org/TR/2001/REC-SVG-20010904/DTD/svg10.dtd">
<svg version="1.0" xmlns="http://www.w3.org/2000/svg"
 width="690.000000pt" height="880.000000pt" viewBox="0 0 690.000000 880.000000"
 preserveAspectRatio="xMidYMid meet">
<metadata>
Created by potrace 1.16, written by Peter Selinger 2001-2019
</metadata>
<g transform="translate(0.000000,880.000000) scale(0.100000,-0.100000)"
fill="#000000" stroke="none">
<path d="M1035 8724 c-550 -40 -1008 -73 -1017 -73 -17 -1 -18 -20 -18 -261
l0 -260 163 0 c303 0 579 -29 693 -71 103 -39 159 -102 197 -223 l22 -71 0
-3480 0 -3480 -24 -59 c-33 -84 -92 -139 -173 -164 -127 -40 -374 -61 -695
-62 l-183 0 0 -261 0 -261 102 6 c331 20 824 30 1508 30 684 0 1177 -10 1508
-30 l102 -6 0 261 0 261 -182 0 c-322 1 -569 22 -696 62 -79 24 -140 82 -174
166 l-23 57 -3 1254 -2 1255 112 -110 c307 -299 647 -490 1053 -594 773 -198
1718 34 2418 593 134 106 362 335 467 467 366 460 593 998 677 1600 21 158 24
610 5 775 -51 427 -163 802 -347 1164 -439 862 -1193 1425 -2099 1568 -138 22
-550 24 -696 4 -600 -82 -1142 -331 -1535 -703 l-95 -90 0 406 0 406 -32 -1
c-18 -1 -483 -34 -1033 -75z m3025 -388 c297 -45 564 -195 816 -458 372 -390
624 -952 719 -1603 119 -816 -9 -1645 -347 -2260 -386 -701 -963 -1090 -1573
-1062 -403 19 -730 155 -1056 439 -135 117 -309 342 -423 543 l-56 100 0 1656
0 1657 58 88 c302 459 769 772 1302 874 210 41 403 49 560 26z"/>
</g>
</svg>
