<?xml version="1.0" standalone="no"?>
<!DOCTYPE svg PUBLIC "-//W3C//DTD SVG 20010904//EN"
 "http://www.w3.org/TR/2001/REC-SVG-20010904/DTD/svg10.dtd">
<svg version="1.0" xmlns="http://www.w3.org/2000/svg"
 width="590.000000pt" height="1210.000000pt" viewBox="0 0 590.000000 1210.000000"
 preserveAspectRatio="xMidYMid meet">
<metadata>
Created by potrace 1.16, written by Peter Selinger 2001-2019
</metadata>
<g transform="translate(0.000000,1210.000000) scale(0.100000,-0.100000)"
fill="#000000" stroke="none">
<path d="M2325 12089 c-49 -5 -150 -20 -224 -34 -744 -144 -1381 -598 -1759
-1255 -155 -271 -269 -602 -318 -925 -23 -150 -26 -540 -6 -685 140 -998 789
-1798 1720 -2121 64 -22 551 -148 1082 -279 531 -131 1001 -252 1045 -269 334
-129 636 -381 832 -696 369 -591 402 -1358 87 -1984 -100 -197 -181 -309 -349
-476 -160 -160 -272 -241 -455 -329 -294 -139 -536 -176 -955 -146 -912 67
-1602 381 -2073 945 -161 192 -320 471 -410 720 -101 278 -172 695 -172 1009
0 137 -40 176 -182 176 -100 0 -145 -19 -170 -70 -17 -33 -18 -130 -18 -1588
0 -1715 -5 -1591 63 -1632 40 -25 135 -27 183 -4 28 13 76 85 305 447 149 238
275 436 280 442 6 5 29 -10 62 -42 229 -222 568 -442 890 -577 277 -116 633
-210 942 -249 l100 -13 3 -335 2 -336 105 -6 c546 -34 919 -259 991 -599 20
-91 13 -209 -16 -292 -84 -243 -347 -397 -808 -476 -264 -44 -675 -70 -1129
-70 l-243 0 0 -172 0 -171 503 6 c640 8 920 24 1285 73 806 108 1234 351 1354
770 19 66 22 102 22 219 -1 158 -19 247 -74 356 -153 305 -451 487 -1002 613
l-28 6 0 219 0 219 33 7 c85 17 263 72 367 112 839 329 1465 1102 1644 2031
44 231 51 305 50 582 0 291 -16 432 -74 675 -100 419 -293 817 -556 1145 -253
315 -617 590 -984 743 -184 77 -276 102 -1246 341 -572 141 -986 248 -1040
269 -230 89 -415 209 -589 383 -415 415 -586 997 -465 1582 87 421 355 816
717 1057 308 206 642 296 1038 282 728 -27 1298 -285 1725 -782 387 -450 623
-1056 724 -1850 12 -99 28 -190 35 -203 25 -46 68 -62 166 -62 72 0 97 4 122
20 68 41 63 -84 63 1635 0 1719 5 1594 -63 1635 -40 25 -135 27 -183 4 -28
-13 -77 -85 -310 -455 l-276 -438 -127 128 c-218 221 -412 361 -686 496 -392
194 -822 287 -1300 284 -88 -1 -200 -6 -250 -10z"/>
</g>
</svg>
