<?xml version="1.0" standalone="no"?>
<!DOCTYPE svg PUBLIC "-//W3C//DTD SVG 20010904//EN"
 "http://www.w3.org/TR/2001/REC-SVG-20010904/DTD/svg10.dtd">
<svg version="1.0" xmlns="http://www.w3.org/2000/svg"
 width="296.000000pt" height="642.000000pt" viewBox="0 0 296.000000 642.000000"
 preserveAspectRatio="xMidYMid meet">
<metadata>
Created by potrace 1.16, written by Peter Selinger 2001-2019
</metadata>
<g transform="translate(0.000000,642.000000) scale(0.100000,-0.100000)"
fill="#000000" stroke="none">
<path d="M71 6403 c-42 -21 -76 -89 -66 -133 10 -46 100 -279 183 -475 86
-204 274 -587 382 -780 341 -609 769 -1188 1240 -1677 l122 -128 -122 -127
c-471 -490 -899 -1069 -1240 -1678 -173 -308 -384 -763 -509 -1093 -65 -174
-66 -182 -43 -235 24 -54 68 -77 145 -77 89 0 105 18 211 225 572 1123 1382
2068 2384 2782 166 119 192 146 192 203 0 57 -26 84 -192 203 -1002 714 -1812
1659 -2384 2782 -106 208 -122 225 -213 225 -32 0 -71 -8 -90 -17z"/>
</g>
</svg>
