<?xml version="1.0" standalone="no"?>
<!DOCTYPE svg PUBLIC "-//W3C//DTD SVG 20010904//EN"
 "http://www.w3.org/TR/2001/REC-SVG-20010904/DTD/svg10.dtd">
<svg version="1.0" xmlns="http://www.w3.org/2000/svg"
 width="406.000000pt" height="1210.000000pt" viewBox="0 0 406.000000 1210.000000"
 preserveAspectRatio="xMidYMid meet">
<metadata>
Created by potrace 1.16, written by Peter Selinger 2001-2019
</metadata>
<g transform="translate(0.000000,1210.000000) scale(0.100000,-0.100000)"
fill="#000000" stroke="none">
<path d="M1795 12089 c-948 -115 -1692 -883 -1786 -1844 -14 -144 -6 -414 16
-565 93 -620 395 -1187 877 -1644 l126 -120 -57 -35 c-536 -330 -900 -918
-962 -1556 -14 -144 -6 -414 16 -565 120 -801 586 -1506 1320 -1995 227 -152
408 -243 770 -390 431 -175 853 -443 1037 -657 219 -256 292 -496 259 -848
-46 -482 -224 -876 -529 -1172 -286 -277 -626 -392 -1030 -347 -521 57 -966
343 -1176 757 l-26 52 36 0 c104 0 246 63 323 145 179 190 173 507 -14 684
-229 217 -622 155 -759 -120 -49 -97 -60 -161 -53 -304 35 -710 567 -1306
1346 -1505 203 -52 491 -73 696 -51 964 103 1721 872 1816 1846 14 144 6 414
-16 565 -93 620 -395 1187 -877 1644 l-126 120 57 35 c536 330 900 918 962
1556 14 144 6 414 -16 565 -120 801 -586 1506 -1320 1995 -227 152 -408 243
-770 390 -431 175 -853 443 -1037 657 -219 256 -292 496 -259 848 46 482 224
876 529 1172 286 277 626 392 1030 347 521 -57 966 -343 1176 -756 l26 -53
-36 0 c-50 0 -148 -27 -207 -57 -271 -137 -331 -531 -116 -758 219 -232 633
-175 773 106 49 97 60 161 53 304 -35 710 -567 1306 -1346 1505 -147 37 -264
51 -456 55 -104 2 -226 -1 -270 -6z m-70 -4624 c72 -35 209 -96 305 -135 509
-206 926 -464 1122 -692 219 -256 292 -496 259 -848 -37 -386 -158 -715 -367
-993 -73 -97 -235 -257 -318 -313 l-59 -40 -106 64 c-142 85 -329 176 -541
262 -509 206 -926 464 -1122 692 -219 256 -292 496 -259 848 37 386 158 715
367 993 73 97 235 257 318 313 l59 40 106 -64 c58 -35 165 -92 236 -127z"/>
</g>
</svg>
