<?xml version="1.0" standalone="no"?>
<!DOCTYPE svg PUBLIC "-//W3C//DTD SVG 20010904//EN"
 "http://www.w3.org/TR/2001/REC-SVG-20010904/DTD/svg10.dtd">
<svg version="1.0" xmlns="http://www.w3.org/2000/svg"
 width="999.000000pt" height="1230.000000pt" viewBox="0 0 999.000000 1230.000000"
 preserveAspectRatio="xMidYMid meet">
<metadata>
Created by potrace 1.16, written by Peter Selinger 2001-2019
</metadata>
<g transform="translate(0.000000,1230.000000) scale(0.100000,-0.100000)"
fill="#000000" stroke="none">
<path d="M4926 12293 c-40 -11 -93 -54 -115 -93 -15 -27 -1135 -4110 -1227
-4477 l-6 -23 -1722 -2 -1721 -3 -41 -28 c-131 -89 -121 -282 18 -351 l52 -26
1643 0 c1168 0 1643 -3 1643 -11 0 -6 -137 -516 -305 -1134 -168 -618 -305
-1126 -305 -1129 0 -4 -602 -6 -1338 -6 l-1338 0 -52 -26 c-139 -69 -149 -262
-18 -351 l41 -28 1289 -3 1288 -2 -5 -28 c-3 -15 -269 -996 -591 -2181 -322
-1185 -586 -2172 -586 -2194 0 -54 43 -130 94 -164 35 -24 51 -28 111 -28 60
0 76 4 111 28 22 15 50 45 63 67 15 27 1135 4110 1227 4477 l6 23 1415 0 1416
0 -6 -27 c-3 -16 -269 -997 -591 -2182 -322 -1185 -586 -2172 -586 -2194 0
-54 43 -130 94 -164 35 -24 51 -28 111 -28 60 0 76 4 111 28 22 15 50 45 63
67 15 27 1135 4110 1227 4477 l6 23 1722 2 1721 3 41 28 c131 89 121 282 -18
351 l-52 26 -1643 0 c-1168 0 -1643 3 -1643 11 0 6 137 516 305 1134 168 618
305 1126 305 1129 0 4 602 6 1338 6 l1338 0 52 26 c139 69 149 262 18 351
l-41 28 -1289 3 -1288 2 5 28 c3 15 269 996 591 2181 322 1185 586 2172 586
2194 0 54 -43 130 -94 164 -35 24 -51 28 -111 28 -60 0 -76 -4 -111 -28 -22
-15 -50 -45 -63 -67 -15 -27 -1135 -4110 -1227 -4477 l-6 -23 -1415 0 -1415 0
5 28 c3 15 269 996 591 2181 322 1185 586 2172 586 2194 0 54 -43 130 -93 163
-40 26 -126 40 -171 27z m1784 -5014 c0 -6 -137 -516 -305 -1134 -168 -618
-305 -1126 -305 -1129 0 -4 -637 -6 -1415 -6 -1005 0 -1415 3 -1415 11 0 6
137 516 305 1134 168 618 305 1126 305 1129 0 4 637 6 1415 6 1005 0 1415 -3
1415 -11z"/>
</g>
</svg>
