<?xml version="1.0" standalone="no"?>
<!DOCTYPE svg PUBLIC "-//W3C//DTD SVG 20010904//EN"
 "http://www.w3.org/TR/2001/REC-SVG-20010904/DTD/svg10.dtd">
<svg version="1.0" xmlns="http://www.w3.org/2000/svg"
 width="601.000000pt" height="1161.000000pt" viewBox="0 0 601.000000 1161.000000"
 preserveAspectRatio="xMidYMid meet">
<metadata>
Created by potrace 1.16, written by Peter Selinger 2001-2019
</metadata>
<g transform="translate(0.000000,1161.000000) scale(0.100000,-0.100000)"
fill="#000000" stroke="none">
<path d="M1140 11595 c-459 -92 -711 -608 -501 -1023 93 -184 265 -326 456
-377 362 -97 741 105 872 465 25 70 27 86 27 230 0 144 -2 160 -27 230 -42
115 -96 197 -190 287 -173 166 -405 235 -637 188z"/>
<path d="M5135 11596 c-155 -37 -253 -92 -365 -205 -98 -99 -157 -202 -190
-335 -41 -162 -19 -333 62 -496 33 -66 61 -104 128 -171 94 -95 175 -146 298
-187 67 -23 94 -26 212 -26 118 0 145 3 212 26 123 41 204 92 298 187 98 99
157 202 190 335 41 162 19 333 -62 496 -33 66 -61 104 -128 171 -95 96 -177
147 -298 186 -96 31 -266 40 -357 19z"/>
<path d="M985 8524 c-501 -40 -916 -73 -922 -73 -10 -1 -13 -53 -13 -224 l0
-224 213 -6 c520 -16 663 -84 740 -355 l22 -77 3 -2000 c2 -1432 0 -2018 -8
-2065 -22 -127 -78 -210 -170 -249 -100 -43 -366 -71 -682 -71 l-168 0 0 -226
0 -226 92 6 c586 39 2146 39 2701 0 l87 -7 0 225 0 225 -237 6 c-492 14 -600
51 -669 232 -18 49 -19 118 -22 2618 l-2 2567 -28 -1 c-15 -1 -436 -34 -937
-75z"/>
<path d="M4955 8524 c-539 -40 -988 -73 -997 -73 -17 -1 -18 -19 -18 -224 l0
-224 243 -6 c349 -9 529 -34 654 -92 109 -49 186 -152 221 -294 15 -60 17
-310 20 -2876 3 -2863 2 -2987 -34 -3250 -47 -339 -144 -632 -274 -826 -140
-208 -341 -318 -578 -319 -116 0 -260 17 -377 45 -155 37 -332 105 -272 105 8
0 51 18 96 41 346 173 441 654 191 967 -137 171 -391 255 -627 206 -247 -51
-424 -226 -479 -472 -21 -96 -15 -264 16 -377 61 -229 219 -437 450 -588 314
-205 793 -306 1203 -252 385 50 716 216 1001 501 301 301 488 669 578 1134
l22 115 3 3418 3 3417 -32 -1 c-18 -1 -474 -34 -1013 -75z"/>
</g>
</svg>
