<?xml version="1.0" standalone="no"?>
<!DOCTYPE svg PUBLIC "-//W3C//DTD SVG 20010904//EN"
 "http://www.w3.org/TR/2001/REC-SVG-20010904/DTD/svg10.dtd">
<svg version="1.0" xmlns="http://www.w3.org/2000/svg"
 width="554.000000pt" height="919.000000pt" viewBox="0 0 554.000000 919.000000"
 preserveAspectRatio="xMidYMid meet">
<metadata>
Created by potrace 1.16, written by Peter Selinger 2001-2019
</metadata>
<g transform="translate(0.000000,919.000000) scale(0.100000,-0.100000)"
fill="#000000" stroke="none">
<path d="M2685 9184 c-16 -2 -73 -9 -125 -15 -663 -75 -1334 -446 -1789 -989
-413 -492 -658 -1061 -748 -1735 -24 -185 -24 -639 1 -820 37 -274 110 -558
202 -793 107 -272 292 -593 474 -822 107 -135 365 -394 500 -500 562 -445
1258 -679 1955 -657 99 3 187 8 196 12 9 3 -54 -65 -140 -152 -295 -299 -487
-587 -590 -886 -59 -169 -75 -272 -75 -472 1 -169 3 -187 32 -300 135 -514
572 -901 1162 -1026 142 -31 438 -33 575 -6 402 82 732 304 960 647 120 180
255 499 255 602 0 91 -71 153 -177 153 -96 0 -108 -12 -198 -207 -86 -186
-246 -371 -401 -462 -377 -221 -909 -127 -1262 224 -289 287 -381 662 -256
1040 68 204 189 392 379 589 147 152 277 262 459 389 196 137 574 442 685 553
270 271 468 599 586 971 41 129 43 166 14 218 -36 63 -79 80 -204 80 -168 0
-194 -22 -250 -214 -30 -100 -101 -270 -147 -354 -283 -507 -720 -834 -1238
-929 -133 -24 -416 -24 -564 1 -620 103 -1140 492 -1416 1060 -191 393 -272
820 -287 1504 l-6 302 2008 0 2007 0 38 21 c21 12 48 39 60 62 22 39 23 45 17
236 -24 779 -223 1395 -603 1867 -367 456 -948 742 -1634 804 -107 9 -386 12
-455 4z m440 -429 c392 -85 698 -326 908 -715 121 -224 217 -522 266 -828 20
-119 44 -366 55 -544 l5 -88 -1550 0 -1550 0 5 33 c3 17 8 75 11 127 15 229
65 519 125 725 209 717 718 1222 1315 1304 93 13 322 5 410 -14z"/>
</g>
</svg>
