<?xml version="1.0" standalone="no"?>
<!DOCTYPE svg PUBLIC "-//W3C//DTD SVG 20010904//EN"
 "http://www.w3.org/TR/2001/REC-SVG-20010904/DTD/svg10.dtd">
<svg version="1.0" xmlns="http://www.w3.org/2000/svg"
 width="312.000000pt" height="1328.000000pt" viewBox="0 0 312.000000 1328.000000"
 preserveAspectRatio="xMidYMid meet">
<metadata>
Created by potrace 1.16, written by Peter Selinger 2001-2019
</metadata>
<g transform="translate(0.000000,1328.000000) scale(0.100000,-0.100000)"
fill="#000000" stroke="none">
<path d="M2845 13268 c-35 -20 -216 -169 -350 -289 -1322 -1178 -2168 -2941
-2419 -5039 -133 -1111 -91 -2292 120 -3363 348 -1767 1144 -3247 2299 -4276
142 -127 317 -271 352 -289 37 -20 163 -15 200 8 55 33 79 110 52 163 -7 12
-93 105 -193 207 -319 326 -566 636 -806 1015 -483 760 -835 1664 -1045 2685
-323 1569 -323 3531 0 5100 210 1021 562 1925 1045 2685 240 379 487 689 806
1015 100 102 186 195 193 207 27 53 3 130 -52 163 -37 23 -167 28 -202 8z"/>
</g>
</svg>
