<?xml version="1.0" standalone="no"?>
<!DOCTYPE svg PUBLIC "-//W3C//DTD SVG 20010904//EN"
 "http://www.w3.org/TR/2001/REC-SVG-20010904/DTD/svg10.dtd">
<svg version="1.0" xmlns="http://www.w3.org/2000/svg"
 width="922.000000pt" height="310.000000pt" viewBox="0 0 922.000000 310.000000"
 preserveAspectRatio="xMidYMid meet">
<metadata>
Created by potrace 1.16, written by Peter Selinger 2001-2019
</metadata>
<g transform="translate(0.000000,310.000000) scale(0.100000,-0.100000)"
fill="#000000" stroke="none">
<path d="M146 3093 c-42 -11 -94 -56 -120 -102 -55 -102 -18 -223 86 -275 l52
-26 4441 0 4441 0 52 26 c139 69 149 262 18 351 l-41 28 -4455 1 c-2450 1
-4464 -1 -4474 -3z"/>
<path d="M112 384 c-139 -69 -149 -262 -18 -351 l41 -28 4470 0 4470 0 41 28
c131 89 121 282 -18 351 l-52 26 -4441 0 -4441 0 -52 -26z"/>
</g>
</svg>
