<?xml version="1.0" standalone="no"?>
<!DOCTYPE svg PUBLIC "-//W3C//DTD SVG 20010904//EN"
 "http://www.w3.org/TR/2001/REC-SVG-20010904/DTD/svg10.dtd">
<svg version="1.0" xmlns="http://www.w3.org/2000/svg"
 width="435.000000pt" height="866.000000pt" viewBox="0 0 435.000000 866.000000"
 preserveAspectRatio="xMidYMid meet">
<metadata>
Created by potrace 1.16, written by Peter Selinger 2001-2019
</metadata>
<g transform="translate(0.000000,866.000000) scale(0.100000,-0.100000)"
fill="#000000" stroke="none">
<path d="M1686 8488 c-49 -1256 -526 -2176 -1254 -2418 -114 -38 -216 -58
-335 -66 l-97 -7 0 -253 0 -254 540 0 540 0 0 -1902 c0 -1249 4 -1943 11
-2018 27 -305 123 -614 259 -835 240 -393 650 -643 1170 -716 146 -21 466 -18
568 4 284 63 496 180 708 391 235 235 400 544 487 911 49 204 57 325 57 852
l0 483 -274 0 -274 0 -5 -537 c-4 -565 -8 -611 -57 -818 -62 -264 -187 -492
-338 -618 -184 -154 -437 -179 -670 -66 -197 95 -353 322 -422 611 -57 240
-54 120 -57 2276 l-4 1982 936 0 935 0 0 310 0 310 -935 0 -935 0 0 1275 0
1275 -273 0 -274 0 -7 -172z"/>
</g>
</svg>
