<?xml version="1.0" standalone="no"?>
<!DOCTYPE svg PUBLIC "-//W3C//DTD SVG 20010904//EN"
 "http://www.w3.org/TR/2001/REC-SVG-20010904/DTD/svg10.dtd">
<svg version="1.0" xmlns="http://www.w3.org/2000/svg"
 width="478.000000pt" height="1328.000000pt" viewBox="0 0 478.000000 1328.000000"
 preserveAspectRatio="xMidYMid meet">
<metadata>
Created by potrace 1.16, written by Peter Selinger 2001-2019
</metadata>
<g transform="translate(0.000000,1328.000000) scale(0.100000,-0.100000)"
fill="#000000" stroke="none">
<path d="M70 13262 c-49 -24 -70 -71 -70 -157 0 -80 20 -125 67 -148 17 -9 77
-17 155 -20 444 -22 835 -154 1153 -389 213 -158 397 -406 474 -638 59 -180
55 -40 61 -2010 l6 -1805 22 -97 c65 -283 188 -511 390 -720 260 -269 616
-472 1051 -600 61 -18 111 -35 111 -38 0 -3 -50 -20 -111 -38 -704 -207 -1205
-617 -1388 -1135 -17 -48 -41 -132 -53 -185 l-22 -97 -6 -1805 c-5 -1652 -7
-1811 -23 -1875 -62 -253 -167 -444 -346 -624 -321 -324 -781 -512 -1319 -538
-141 -6 -172 -17 -202 -66 -26 -43 -28 -157 -2 -207 29 -59 66 -70 227 -70
775 1 1517 209 1998 561 317 232 513 528 603 909 17 70 18 201 24 1885 6 1795
6 1811 27 1900 120 512 520 920 1085 1109 179 60 455 106 630 106 114 0 158
48 158 170 0 122 -44 170 -158 170 -175 0 -451 46 -630 106 -565 189 -965 597
-1085 1109 -21 89 -21 105 -27 1900 -7 2017 0 1835 -76 2065 -159 477 -586
852 -1225 1075 -395 137 -872 215 -1324 215 -113 0 -147 -3 -175 -18z"/>
</g>
</svg>
