<?xml version="1.0" standalone="no"?>
<!DOCTYPE svg PUBLIC "-//W3C//DTD SVG 20010904//EN"
 "http://www.w3.org/TR/2001/REC-SVG-20010904/DTD/svg10.dtd">
<svg version="1.0" xmlns="http://www.w3.org/2000/svg"
 width="531.000000pt" height="906.000000pt" viewBox="0 0 531.000000 906.000000"
 preserveAspectRatio="xMidYMid meet">
<metadata>
Created by potrace 1.16, written by Peter Selinger 2001-2019
</metadata>
<g transform="translate(0.000000,906.000000) scale(0.100000,-0.100000)"
fill="#000000" stroke="none">
<path d="M2780 9054 c-586 -55 -1126 -272 -1584 -637 -138 -111 -382 -358
-490 -497 -384 -495 -608 -1049 -688 -1700 -19 -157 -16 -613 5 -770 135 -983
652 -1801 1453 -2296 258 -159 595 -297 887 -364 l97 -22 0 -437 0 -438 113
-6 c477 -28 844 -203 975 -466 52 -104 65 -169 60 -300 -5 -125 -27 -190 -93
-280 -60 -82 -139 -142 -270 -206 -203 -100 -472 -159 -895 -196 -69 -6 -303
-12 -520 -15 -217 -2 -423 -7 -457 -10 l-63 -6 0 -201 0 -202 407 2 c938 6
1482 51 1920 158 573 141 889 371 1003 730 31 97 40 335 16 449 -61 294 -254
517 -591 681 -121 59 -297 120 -447 156 l-98 23 0 283 0 283 28 6 c764 166
1352 672 1645 1414 53 133 107 311 107 349 0 40 -33 92 -71 113 -46 25 -254
26 -304 2 -45 -21 -57 -42 -89 -154 -196 -682 -662 -1163 -1247 -1289 -734
-158 -1454 159 -1896 836 -340 518 -485 1254 -433 2193 36 647 152 1107 376
1496 257 447 649 753 1082 844 306 65 990 14 1357 -101 l99 -31 -66 -35 c-224
-118 -350 -359 -335 -637 10 -186 76 -335 202 -455 215 -204 548 -246 820
-103 88 46 198 150 248 233 107 182 126 432 50 674 -50 159 -124 279 -252 405
-268 266 -721 438 -1333 505 -136 15 -631 28 -728 19z"/>
</g>
</svg>
