<?xml version="1.0" standalone="no"?>
<!DOCTYPE svg PUBLIC "-//W3C//DTD SVG 20010904//EN"
 "http://www.w3.org/TR/2001/REC-SVG-20010904/DTD/svg10.dtd">
<svg version="1.0" xmlns="http://www.w3.org/2000/svg"
 width="973.000000pt" height="945.000000pt" viewBox="0 0 973.000000 945.000000"
 preserveAspectRatio="xMidYMid meet">
<metadata>
Created by potrace 1.16, written by Peter Selinger 2001-2019
</metadata>
<g transform="translate(0.000000,945.000000) scale(0.100000,-0.100000)"
fill="#000000" stroke="none">
<path d="M190 9193 l0 -260 338 -6 c579 -11 773 -40 939 -143 153 -95 116 -42
1493 -2153 l1268 -1944 -173 -261 c-765 -1160 -2135 -3206 -2188 -3267 -224
-259 -590 -459 -1012 -554 -222 -49 -543 -85 -771 -85 l-84 0 0 -261 0 -261
92 6 c600 41 2478 41 3206 0 l112 -6 0 261 0 261 -42 0 c-67 0 -226 27 -303
51 -197 61 -392 204 -460 338 -59 118 -70 247 -28 341 11 25 457 701 991 1504
l970 1459 25 -39 c13 -22 500 -767 1081 -1658 847 -1298 1056 -1625 1056
-1651 0 -151 -390 -318 -797 -342 l-113 -6 0 -260 0 -260 133 7 c850 41 2991
41 3690 0 l107 -7 0 262 0 261 -212 0 c-117 0 -301 5 -408 10 -345 18 -474 40
-606 105 -132 64 -218 148 -342 333 -200 298 -2857 4377 -2855 4383 1 3 432
652 958 1442 866 1302 964 1446 1048 1533 205 215 424 348 746 454 264 87 552
134 911 147 l180 6 0 260 0 260 -97 -7 c-634 -41 -2450 -41 -3205 0 l-118 7 0
-260 0 -260 97 -7 c323 -24 611 -186 719 -404 34 -68 39 -87 42 -167 3 -72 0
-100 -15 -140 -11 -27 -371 -577 -799 -1222 l-780 -1172 -884 1356 c-487 745
-889 1365 -893 1377 -54 140 300 324 703 366 52 5 119 10 148 10 l52 0 0 261
0 262 -127 -7 c-825 -41 -2985 -41 -3685 0 l-108 7 0 -260z"/>
</g>
</svg>
