<?xml version="1.0" standalone="no"?>
<!DOCTYPE svg PUBLIC "-//W3C//DTD SVG 20010904//EN"
 "http://www.w3.org/TR/2001/REC-SVG-20010904/DTD/svg10.dtd">
<svg version="1.0" xmlns="http://www.w3.org/2000/svg"
 width="538.000000pt" height="1115.000000pt" viewBox="0 0 538.000000 1115.000000"
 preserveAspectRatio="xMidYMid meet">
<metadata>
Created by potrace 1.16, written by Peter Selinger 2001-2019
</metadata>
<g transform="translate(0.000000,1115.000000) scale(0.100000,-0.100000)"
fill="#000000" stroke="none">
<path d="M2380 10831 l0 -319 -57 -7 c-95 -11 -290 -54 -410 -91 -308 -93
-615 -252 -873 -452 -116 -90 -335 -306 -433 -427 -262 -325 -455 -727 -546
-1140 -45 -203 -55 -311 -56 -565 0 -287 15 -416 77 -665 99 -395 286 -768
541 -1077 182 -222 447 -450 686 -592 270 -160 473 -239 859 -336 l212 -52 0
-1926 0 -1925 -67 7 c-121 12 -315 56 -457 103 -545 181 -942 553 -1145 1073
-27 69 -51 136 -54 150 l-6 25 102 2 c220 3 424 98 557 258 51 62 114 188 137
275 27 101 25 311 -5 415 -36 125 -86 209 -177 300 -92 92 -159 135 -282 179
-85 30 -94 31 -248 31 -154 0 -163 -1 -248 -31 -123 -44 -190 -87 -282 -179
-91 -91 -141 -175 -177 -300 -21 -73 -23 -98 -22 -300 4 -764 265 -1445 733
-1915 377 -378 909 -629 1486 -700 50 -6 105 -13 123 -16 l32 -5 0 -314 0
-315 310 0 310 0 0 319 0 319 73 12 c117 19 311 69 436 112 138 47 400 173
526 253 603 379 1046 999 1235 1728 157 606 128 1249 -85 1842 -96 269 -291
620 -465 840 -92 116 -299 325 -415 418 -138 112 -309 222 -463 301 -218 110
-386 169 -704 247 l-138 33 0 1733 0 1733 33 0 c50 0 270 -38 377 -65 399
-101 739 -298 975 -565 115 -130 232 -321 295 -480 l20 -50 -64 0 c-127 0
-291 -45 -403 -111 -89 -52 -192 -162 -240 -255 -61 -118 -84 -201 -90 -330
-18 -362 174 -638 517 -746 64 -19 96 -23 215 -23 119 0 151 4 215 23 277 87
450 276 506 553 31 155 7 531 -52 799 -157 713 -584 1270 -1214 1585 -305 153
-595 233 -1047 291 l-43 5 0 315 0 314 -310 0 -310 0 0 -319z m0 -2602 c0
-1567 -1 -1650 -17 -1645 -10 2 -70 18 -134 35 -282 74 -503 184 -716 358
-307 248 -508 581 -585 965 -32 161 -32 424 0 586 114 573 515 1038 1083 1258
101 39 297 93 342 94 l27 0 0 -1651z m759 -3314 c229 -65 411 -155 590 -290
609 -460 875 -1263 671 -2030 -148 -557 -551 -1017 -1077 -1231 -88 -35 -283
-94 -315 -94 -5 0 -8 828 -8 1840 0 1113 4 1840 9 1840 5 0 64 -16 130 -35z"/>
</g>
</svg>
