<?xml version="1.0" standalone="no"?>
<!DOCTYPE svg PUBLIC "-//W3C//DTD SVG 20010904//EN"
 "http://www.w3.org/TR/2001/REC-SVG-20010904/DTD/svg10.dtd">
<svg version="1.0" xmlns="http://www.w3.org/2000/svg"
 width="539.000000pt" height="913.000000pt" viewBox="0 0 539.000000 913.000000"
 preserveAspectRatio="xMidYMid meet">
<metadata>
Created by potrace 1.16, written by Peter Selinger 2001-2019
</metadata>
<g transform="translate(0.000000,913.000000) scale(0.100000,-0.100000)"
fill="#000000" stroke="none">
<path d="M1726 8088 c-526 -573 -956 -1045 -956 -1049 0 -3 88 -90 196 -192
l197 -185 410 417 c226 229 570 576 764 771 l353 355 353 -355 c194 -195 538
-542 764 -771 l410 -417 197 185 c108 102 196 189 196 192 0 11 -1910 2091
-1920 2091 -5 0 -439 -469 -964 -1042z"/>
<path d="M2685 6334 c-16 -2 -73 -9 -125 -15 -663 -75 -1334 -446 -1789 -989
-413 -492 -658 -1061 -748 -1735 -24 -185 -24 -639 1 -820 37 -274 110 -558
202 -793 107 -272 292 -593 474 -822 107 -135 365 -394 500 -500 535 -424
1203 -660 1866 -660 361 0 714 81 1039 239 250 121 424 242 619 431 290 281
485 593 612 978 50 149 53 188 23 242 -39 69 -74 80 -254 80 -225 0 -240 -11
-300 -214 -54 -182 -160 -396 -284 -571 -79 -113 -287 -318 -396 -392 -288
-194 -586 -269 -937 -234 -490 48 -892 229 -1214 546 -440 435 -624 1037 -624
2048 l0 187 1956 0 1956 0 38 21 c21 12 48 39 60 62 22 39 23 45 17 236 -24
779 -223 1395 -603 1867 -367 456 -948 742 -1634 804 -107 9 -386 12 -455 4z
m365 -519 c672 -102 1094 -737 1190 -1790 5 -60 10 -129 10 -152 l0 -43 -1440
0 -1440 0 0 53 c0 74 26 302 51 437 83 472 252 824 523 1095 169 169 329 273
526 343 190 67 389 86 580 57z"/>
</g>
</svg>
