<?xml version="1.0" standalone="no"?>
<!DOCTYPE svg PUBLIC "-//W3C//DTD SVG 20010904//EN"
 "http://www.w3.org/TR/2001/REC-SVG-20010904/DTD/svg10.dtd">
<svg version="1.0" xmlns="http://www.w3.org/2000/svg"
 width="509.000000pt" height="1022.000000pt" viewBox="0 0 509.000000 1022.000000"
 preserveAspectRatio="xMidYMid meet">
<metadata>
Created by potrace 1.16, written by Peter Selinger 2001-2019
</metadata>
<g transform="translate(0.000000,1022.000000) scale(0.100000,-0.100000)"
fill="#000000" stroke="none">
<path d="M3980 10214 c-343 -66 -565 -283 -635 -619 -41 -194 5 -430 115 -598
96 -148 248 -258 426 -309 66 -19 103 -23 224 -23 121 0 158 4 224 23 100 29
221 91 282 145 l47 41 -7 -74 c-34 -362 -204 -773 -441 -1067 -129 -161 -329
-339 -505 -451 -135 -87 -140 -91 -157 -130 -25 -60 -11 -96 70 -180 134 -138
146 -137 372 13 489 324 856 846 1005 1430 60 233 74 348 75 590 0 184 -3 223
-23 314 -76 337 -236 598 -461 750 -146 99 -280 142 -461 146 -69 2 -136 1
-150 -1z"/>
<path d="M1740 8583 c0 -206 -39 -567 -85 -794 -116 -572 -332 -1027 -635
-1342 -126 -131 -239 -218 -380 -291 -180 -93 -341 -138 -542 -152 l-98 -7 0
-203 0 -204 565 0 565 0 0 -1962 c0 -1259 4 -2006 10 -2083 70 -810 450 -1298
1147 -1473 200 -51 331 -66 583 -66 215 -1 230 0 332 27 255 67 439 175 624
370 245 256 407 605 486 1042 20 111 22 161 25 667 l4 548 -225 0 -226 0 0
-474 c0 -466 -6 -592 -35 -771 -32 -193 -74 -324 -155 -490 -181 -368 -455
-523 -815 -460 -365 64 -579 327 -660 810 -32 197 -35 371 -35 2343 l0 1972
960 0 960 0 0 260 0 260 -960 0 -960 0 0 1275 0 1275 -225 0 -225 0 0 -77z"/>
</g>
</svg>
