<?xml version="1.0" standalone="no"?>
<!DOCTYPE svg PUBLIC "-//W3C//DTD SVG 20010904//EN"
 "http://www.w3.org/TR/2001/REC-SVG-20010904/DTD/svg10.dtd">
<svg version="1.0" xmlns="http://www.w3.org/2000/svg"
 width="717.000000pt" height="927.000000pt" viewBox="0 0 717.000000 927.000000"
 preserveAspectRatio="xMidYMid meet">
<metadata>
Created by potrace 1.16, written by Peter Selinger 2001-2019
</metadata>
<g transform="translate(0.000000,927.000000) scale(0.100000,-0.100000)"
fill="#000000" stroke="none">
<path d="M2095 9259 c-326 -61 -583 -302 -665 -623 -28 -109 -28 -283 0 -392
111 -436 538 -706 974 -615 307 63 555 300 637 607 30 111 30 297 0 409 -43
162 -144 321 -273 432 -173 147 -451 222 -673 182z"/>
<path d="M4746 9250 c-113 -24 -268 -101 -354 -173 -129 -111 -230 -270 -273
-432 -30 -112 -30 -298 0 -409 63 -236 219 -427 437 -536 415 -208 914 -37
1114 382 59 122 80 218 80 358 0 140 -21 236 -80 358 -107 223 -297 380 -546
447 -94 26 -272 29 -378 5z"/>
<path d="M1105 6184 c-588 -40 -1078 -73 -1087 -73 -17 -1 -18 -23 -18 -311
l0 -310 143 0 c190 0 400 -17 522 -41 235 -47 341 -143 392 -356 15 -61 17
-234 23 -1808 5 -1595 7 -1749 24 -1845 100 -600 355 -974 826 -1210 196 -98
460 -171 746 -205 182 -22 561 -31 709 -16 600 59 1166 389 1528 891 l47 64 0
-483 0 -483 73 7 c56 4 2109 145 2123 145 2 0 4 139 4 310 l0 310 -142 0
c-191 0 -401 17 -523 41 -235 47 -340 142 -393 356 -15 63 -17 265 -19 2581
l-3 2514 -73 -7 c-57 -4 -2147 -145 -2163 -145 -2 0 -4 -139 -4 -310 l0 -310
143 0 c190 0 400 -17 522 -41 237 -48 342 -144 393 -361 16 -67 17 -188 17
-1498 0 -1334 -1 -1432 -18 -1540 -129 -803 -605 -1380 -1252 -1516 -122 -26
-522 -26 -695 -1 -217 32 -371 90 -482 184 -104 87 -147 170 -182 348 -40 201
-39 180 -43 2723 l-4 2472 -32 -1 c-18 -1 -513 -34 -1102 -75z"/>
</g>
</svg>
