<?xml version="1.0" standalone="no"?>
<!DOCTYPE svg PUBLIC "-//W3C//DTD SVG 20010904//EN"
 "http://www.w3.org/TR/2001/REC-SVG-20010904/DTD/svg10.dtd">
<svg version="1.0" xmlns="http://www.w3.org/2000/svg"
 width="910.000000pt" height="1198.000000pt" viewBox="0 0 910.000000 1198.000000"
 preserveAspectRatio="xMidYMid meet">
<metadata>
Created by potrace 1.16, written by Peter Selinger 2001-2019
</metadata>
<g transform="translate(0.000000,1198.000000) scale(0.100000,-0.100000)"
fill="#000000" stroke="none">
<path d="M3650 11053 l-890 -928 128 -127 c69 -71 130 -128 134 -128 4 0 348
308 765 685 417 377 760 685 763 685 3 0 346 -308 763 -685 417 -377 761 -685
765 -685 4 0 65 57 134 128 l128 127 -890 928 c-490 510 -895 927 -900 927 -5
0 -410 -417 -900 -927z"/>
<path d="M4392 9507 c-45 -17 -99 -62 -118 -99 -9 -17 -648 -1868 -1420 -4112
-917 -2665 -1420 -4113 -1449 -4173 -205 -417 -625 -641 -1258 -669 l-147 -7
0 -225 0 -224 83 6 c521 39 2117 39 2730 0 l97 -7 0 225 0 225 -104 7 c-273
17 -482 86 -653 215 -156 117 -237 271 -236 446 1 78 8 101 273 870 150 435
288 836 307 893 l35 102 1626 -2 1626 -3 362 -1050 c384 -1113 383 -1109 350
-1190 -19 -45 -90 -121 -140 -150 -142 -81 -460 -134 -813 -135 l-143 0 0
-226 0 -227 128 7 c793 39 2784 39 3455 0 l107 -7 0 225 0 225 -302 6 c-434 9
-638 33 -762 92 -104 49 -213 180 -261 315 -9 25 -673 1951 -1475 4281 -802
2329 -1465 4249 -1474 4266 -21 41 -78 87 -125 102 -49 14 -256 13 -299 -2z
m506 -3957 l728 -2115 -1465 -3 c-805 -1 -1466 0 -1468 2 -2 2 326 962 729
2134 493 1432 736 2125 741 2114 4 -9 335 -969 735 -2132z"/>
</g>
</svg>
