<?xml version="1.0" standalone="no"?>
<!DOCTYPE svg PUBLIC "-//W3C//DTD SVG 20010904//EN"
 "http://www.w3.org/TR/2001/REC-SVG-20010904/DTD/svg10.dtd">
<svg version="1.0" xmlns="http://www.w3.org/2000/svg"
 width="473.000000pt" height="1138.000000pt" viewBox="0 0 473.000000 1138.000000"
 preserveAspectRatio="xMidYMid meet">
<metadata>
Created by potrace 1.16, written by Peter Selinger 2001-2019
</metadata>
<g transform="translate(0.000000,1138.000000) scale(0.100000,-0.100000)"
fill="#000000" stroke="none">
<path d="M1740 11298 c0 -46 -5 -146 -10 -223 -63 -857 -327 -1542 -756 -1955
-253 -244 -538 -372 -876 -396 l-98 -7 0 -203 0 -204 565 0 565 0 0 -1962 c0
-1259 4 -2006 10 -2083 70 -810 450 -1298 1147 -1474 67 -16 145 -33 173 -37
l50 -7 0 -428 0 -429 49 0 c79 0 249 -20 349 -40 470 -98 752 -358 752 -695 0
-144 -45 -260 -139 -358 -95 -100 -196 -160 -368 -220 -294 -103 -646 -145
-1268 -153 -220 -2 -428 -7 -462 -10 l-63 -6 0 -201 0 -202 397 2 c1025 6
1599 60 2063 194 295 85 496 194 661 359 84 84 102 109 148 200 85 173 111
363 76 564 -39 226 -161 413 -368 568 -153 114 -437 235 -689 294 l-78 18 0
332 0 333 -25 3 c-22 3 -15 10 57 57 50 33 129 100 199 170 264 266 429 608
511 1066 20 111 22 161 25 667 l4 548 -225 0 -226 0 0 -474 c0 -466 -6 -592
-35 -771 -32 -193 -74 -324 -155 -490 -181 -368 -455 -523 -815 -460 -365 64
-579 327 -660 810 -32 197 -35 371 -35 2343 l0 1972 960 0 960 0 0 260 0 260
-960 0 -960 0 0 1275 0 1275 -225 0 -225 0 0 -82z"/>
</g>
</svg>
