<?xml version="1.0" standalone="no"?>
<!DOCTYPE svg PUBLIC "-//W3C//DTD SVG 20010904//EN"
 "http://www.w3.org/TR/2001/REC-SVG-20010904/DTD/svg10.dtd">
<svg version="1.0" xmlns="http://www.w3.org/2000/svg"
 width="436.000000pt" height="198.000000pt" viewBox="0 0 436.000000 198.000000"
 preserveAspectRatio="xMidYMid meet">
<metadata>
Created by potrace 1.16, written by Peter Selinger 2001-2019
</metadata>
<g transform="translate(0.000000,198.000000) scale(0.100000,-0.100000)"
fill="#000000" stroke="none">
<path d="M0 1928 c0 -137 41 -371 91 -519 94 -282 229 -504 439 -722 195 -203
357 -321 615 -447 341 -168 635 -235 1030 -235 395 0 689 67 1030 235 258 126
420 244 615 447 210 218 345 440 439 722 50 148 91 382 91 519 l0 52 -254 0
-253 0 -7 -86 c-47 -579 -560 -1018 -1331 -1141 -153 -24 -507 -24 -660 0
-362 58 -649 175 -890 362 -261 203 -416 478 -441 779 l-7 86 -253 0 -254 0 0
-52z"/>
</g>
</svg>
