<?xml version="1.0" standalone="no"?>
<!DOCTYPE svg PUBLIC "-//W3C//DTD SVG 20010904//EN"
 "http://www.w3.org/TR/2001/REC-SVG-20010904/DTD/svg10.dtd">
<svg version="1.0" xmlns="http://www.w3.org/2000/svg"
 width="670.000000pt" height="572.000000pt" viewBox="0 0 670.000000 572.000000"
 preserveAspectRatio="xMidYMid meet">
<metadata>
Created by potrace 1.16, written by Peter Selinger 2001-2019
</metadata>
<g transform="translate(0.000000,572.000000) scale(0.100000,-0.100000)"
fill="#000000" stroke="none">
<path d="M70 5498 l0 -225 248 -6 c481 -12 644 -51 822 -195 41 -33 103 -93
137 -134 63 -75 1641 -2143 1646 -2156 4 -13 -1253 -1591 -1343 -1686 -288
-303 -650 -506 -1059 -592 -128 -28 -349 -54 -453 -54 l-68 0 0 -226 0 -226
72 6 c460 39 1708 39 2261 0 l87 -7 0 225 0 225 -51 6 c-60 7 -146 45 -199 87
-156 123 -174 403 -40 624 32 52 1015 1299 1028 1303 10 3 1214 -1581 1235
-1624 12 -27 16 -53 13 -89 -13 -155 -175 -278 -394 -299 l-72 -8 0 -224 0
-225 93 6 c580 39 2054 39 2575 0 l82 -6 0 226 0 226 -162 0 c-417 0 -672 41
-826 132 -137 80 -210 169 -1135 1385 -482 634 -878 1156 -879 1161 -5 16
1096 1395 1202 1505 380 396 853 604 1438 633 l132 7 0 225 0 224 -72 -6
c-460 -39 -1708 -39 -2260 0 l-88 7 0 -226 0 -225 54 -6 c72 -9 165 -55 216
-106 23 -23 56 -72 73 -108 30 -63 32 -73 32 -182 -1 -132 -19 -200 -85 -310
-41 -69 -867 -1115 -880 -1115 -11 0 -1080 1405 -1092 1435 -17 43 -11 127 12
174 55 115 247 215 413 216 l37 0 0 226 0 227 -97 -7 c-615 -39 -2112 -39
-2580 0 l-73 6 0 -224z"/>
</g>
</svg>
