<?xml version="1.0" standalone="no"?>
<!DOCTYPE svg PUBLIC "-//W3C//DTD SVG 20010904//EN"
 "http://www.w3.org/TR/2001/REC-SVG-20010904/DTD/svg10.dtd">
<svg version="1.0" xmlns="http://www.w3.org/2000/svg"
 width="1006.000000pt" height="1199.000000pt" viewBox="0 0 1006.000000 1199.000000"
 preserveAspectRatio="xMidYMid meet">
<metadata>
Created by potrace 1.16, written by Peter Selinger 2001-2019
</metadata>
<g transform="translate(0.000000,1199.000000) scale(0.100000,-0.100000)"
fill="#000000" stroke="none">
<path d="M3530 11975 c-248 -53 -443 -205 -551 -430 -59 -122 -74 -190 -74
-335 0 -145 15 -213 74 -335 78 -164 194 -281 356 -361 129 -63 196 -79 345
-79 149 0 216 16 345 79 203 101 351 282 412 506 24 89 25 290 0 380 -25 95
-98 235 -160 311 -95 114 -254 215 -402 255 -83 22 -264 27 -345 9z"/>
<path d="M6220 11975 c-298 -63 -527 -281 -607 -575 -25 -90 -25 -290 0 -380
61 -224 209 -405 412 -506 129 -63 196 -79 345 -79 149 0 216 16 345 79 203
101 352 283 412 506 24 89 24 290 0 380 -25 94 -97 235 -160 311 -95 114 -254
215 -402 255 -83 22 -264 27 -345 9z"/>
<path d="M0 9191 l0 -261 208 0 c224 0 536 -14 672 -30 142 -17 231 -40 320
-82 70 -34 100 -56 175 -132 l90 -91 1458 -2408 1457 -2407 0 -1453 c0 -1612
4 -1509 -66 -1614 -99 -146 -264 -178 -981 -190 l-373 -6 0 -260 0 -260 128 7
c817 41 3057 41 3875 0 l127 -7 0 262 0 261 -232 0 c-513 1 -898 34 -1002 87
-55 28 -123 102 -152 166 l-29 62 -3 1471 -2 1471 1340 2214 c738 1218 1366
2246 1396 2286 80 104 237 251 351 326 296 198 668 303 1137 323 l156 7 0 260
0 260 -77 -7 c-513 -41 -2194 -41 -2860 0 l-103 6 0 -261 0 -261 48 0 c132 0
341 -44 435 -91 132 -67 230 -167 269 -275 38 -109 24 -264 -34 -378 -29 -57
-2228 -3688 -2243 -3704 -10 -11 -247 375 -1250 2030 -1238 2041 -1239 2043
-1243 2104 -14 203 205 295 736 311 l212 6 0 260 0 260 -127 -7 c-824 -41
-3009 -41 -3705 0 l-108 7 0 -262z"/>
</g>
</svg>
