<?xml version="1.0" standalone="no"?>
<!DOCTYPE svg PUBLIC "-//W3C//DTD SVG 20010904//EN"
 "http://www.w3.org/TR/2001/REC-SVG-20010904/DTD/svg10.dtd">
<svg version="1.0" xmlns="http://www.w3.org/2000/svg"
 width="717.000000pt" height="891.000000pt" viewBox="0 0 717.000000 891.000000"
 preserveAspectRatio="xMidYMid meet">
<metadata>
Created by potrace 1.16, written by Peter Selinger 2001-2019
</metadata>
<g transform="translate(0.000000,891.000000) scale(0.100000,-0.100000)"
fill="#000000" stroke="none">
<path d="M4530 8896 c-66 -19 -133 -50 -187 -87 -45 -31 -1693 -1656 -1693
-1669 0 -16 323 -435 333 -432 34 9 2010 1120 2056 1155 96 74 174 193 201
306 21 88 9 231 -27 322 -72 183 -217 329 -389 390 -73 27 -228 35 -294 15z"/>
<path d="M1065 6034 c-567 -40 -1038 -73 -1047 -73 -17 -1 -18 -23 -18 -311
l0 -310 143 0 c190 0 400 -17 522 -41 237 -48 342 -144 393 -361 16 -68 17
-221 17 -2083 l0 -2010 -31 -55 c-74 -131 -181 -156 -732 -167 l-312 -6 0
-310 0 -310 108 7 c697 41 2407 41 3105 0 l107 -7 0 310 0 310 -312 6 c-551
11 -658 36 -732 167 l-31 55 -3 1445 c-2 999 0 1484 8 1570 44 498 246 940
580 1270 290 288 648 447 1045 467 343 16 622 -87 787 -292 101 -125 183 -323
218 -528 39 -229 41 -365 38 -2182 l-3 -1750 -31 -55 c-74 -131 -181 -156
-731 -167 l-313 -6 0 -310 0 -310 108 7 c697 41 2407 41 3105 0 l107 -7 0 310
0 310 -312 6 c-551 11 -658 36 -732 167 l-31 55 -6 1845 c-6 2016 -2 1898 -64
2175 -131 582 -468 958 -1017 1133 -215 69 -428 100 -733 109 -434 11 -762
-57 -1130 -236 -375 -182 -693 -454 -924 -790 l-51 -75 0 552 0 552 -32 -1
c-18 -1 -496 -34 -1063 -75z"/>
</g>
</svg>
