<?xml version="1.0" standalone="no"?>
<!DOCTYPE svg PUBLIC "-//W3C//DTD SVG 20010904//EN"
 "http://www.w3.org/TR/2001/REC-SVG-20010904/DTD/svg10.dtd">
<svg version="1.0" xmlns="http://www.w3.org/2000/svg"
 width="476.000000pt" height="1143.000000pt" viewBox="0 0 476.000000 1143.000000"
 preserveAspectRatio="xMidYMid meet">
<metadata>
Created by potrace 1.16, written by Peter Selinger 2001-2019
</metadata>
<g transform="translate(0.000000,1143.000000) scale(0.100000,-0.100000)"
fill="#000000" stroke="none">
<path d="M1686 11258 c-49 -1256 -526 -2176 -1254 -2418 -114 -38 -216 -58
-335 -66 l-97 -7 0 -253 0 -254 540 0 539 0 4 -1992 3 -1993 21 -133 c41 -247
96 -422 190 -603 187 -362 495 -592 939 -703 54 -14 123 -28 152 -32 l52 -7 0
-428 0 -429 48 0 c27 0 98 -5 158 -11 508 -50 850 -261 924 -569 20 -80 16
-212 -8 -287 -85 -269 -411 -437 -982 -507 -240 -30 -378 -37 -775 -42 -220
-2 -428 -7 -462 -10 l-63 -6 0 -251 0 -252 412 2 c868 6 1407 45 1833 133 700
146 1078 412 1191 840 25 93 35 242 24 348 -38 366 -239 628 -632 822 -121 60
-330 136 -465 170 l-43 11 0 294 0 295 -72 1 c-61 0 -70 2 -54 12 147 91 215
145 322 251 235 235 400 544 487 911 49 204 57 325 57 852 l0 483 -274 0 -274
0 -5 -537 c-4 -565 -8 -611 -57 -818 -62 -264 -187 -492 -338 -618 -169 -141
-398 -174 -635 -92 -273 95 -428 336 -494 771 -15 99 -17 303 -20 2117 l-4
2007 936 0 935 0 0 310 0 310 -935 0 -935 0 0 1275 0 1275 -273 0 -274 0 -7
-172z"/>
</g>
</svg>
