<?xml version="1.0" standalone="no"?>
<!DOCTYPE svg PUBLIC "-//W3C//DTD SVG 20010904//EN"
 "http://www.w3.org/TR/2001/REC-SVG-20010904/DTD/svg10.dtd">
<svg version="1.0" xmlns="http://www.w3.org/2000/svg"
 width="615.000000pt" height="1007.000000pt" viewBox="0 0 615.000000 1007.000000"
 preserveAspectRatio="xMidYMid meet">
<metadata>
Created by potrace 1.16, written by Peter Selinger 2001-2019
</metadata>
<g transform="translate(0.000000,1007.000000) scale(0.100000,-0.100000)"
fill="#000000" stroke="none">
<path d="M2485 10064 c-16 -2 -73 -9 -125 -15 -456 -52 -941 -253 -1320 -548
-111 -86 -312 -282 -412 -401 -178 -212 -360 -529 -460 -801 -58 -156 -121
-405 -144 -574 -26 -179 -26 -570 -1 -735 51 -328 134 -587 279 -873 318 -627
880 -1112 1538 -1327 87 -29 564 -152 1090 -281 514 -126 971 -241 1015 -256
613 -201 1064 -774 1180 -1503 37 -231 29 -508 -21 -758 -130 -650 -575 -1185
-1153 -1386 -191 -67 -294 -81 -566 -80 -930 4 -1716 303 -2235 851 -437 462
-667 1059 -697 1811 -7 183 -16 213 -74 244 -27 15 -57 18 -154 18 -135 0
-168 -12 -205 -72 -20 -33 -20 -54 -20 -1653 0 -1550 1 -1622 18 -1654 27 -51
73 -71 158 -71 57 0 77 4 104 23 22 15 126 165 319 459 157 240 289 440 293
444 4 3 47 -31 95 -76 454 -425 1134 -721 1873 -814 317 -40 729 -45 950 -11
558 86 1053 339 1461 745 164 163 242 258 365 442 280 419 448 908 495 1443
14 166 7 488 -16 649 -147 1081 -807 1961 -1741 2324 -172 66 -143 59 -1230
327 -599 147 -986 247 -1045 270 -222 85 -396 196 -567 360 -451 431 -633
1043 -496 1665 48 214 151 445 282 630 80 112 256 293 364 374 352 261 748
366 1232 327 560 -46 1002 -215 1377 -529 387 -325 690 -826 858 -1422 69
-243 129 -570 157 -842 14 -140 52 -168 229 -168 138 0 176 13 207 71 17 32
18 104 18 1654 0 1550 -1 1622 -18 1654 -27 51 -73 71 -158 71 -57 0 -77 -4
-104 -22 -22 -16 -127 -167 -321 -463 l-289 -441 -142 141 c-223 220 -420 359
-703 496 -285 138 -568 221 -909 265 -114 14 -564 28 -631 18z"/>
</g>
</svg>
