<?xml version="1.0" standalone="no"?>
<!DOCTYPE svg PUBLIC "-//W3C//DTD SVG 20010904//EN"
 "http://www.w3.org/TR/2001/REC-SVG-20010904/DTD/svg10.dtd">
<svg version="1.0" xmlns="http://www.w3.org/2000/svg"
 width="956.000000pt" height="1233.000000pt" viewBox="0 0 956.000000 1233.000000"
 preserveAspectRatio="xMidYMid meet">
<metadata>
Created by potrace 1.16, written by Peter Selinger 2001-2019
</metadata>
<g transform="translate(0.000000,1233.000000) scale(0.100000,-0.100000)"
fill="#000000" stroke="none">
<path d="M3368 12319 c-263 -32 -505 -137 -701 -304 -55 -46 -562 -619 -570
-643 -1 -4 66 -67 149 -139 l152 -131 63 65 c175 177 380 291 629 350 145 35
462 43 661 19 189 -24 443 -76 739 -152 571 -147 722 -184 866 -213 704 -142
1159 -69 1527 244 55 46 562 619 570 643 1 4 -66 67 -149 139 l-152 131 -63
-65 c-175 -177 -380 -291 -629 -350 -145 -35 -462 -43 -661 -19 -189 24 -443
76 -739 152 -751 193 -900 227 -1131 259 -139 19 -456 27 -561 14z"/>
<path d="M0 9190 l0 -260 278 0 c504 -1 941 -26 1120 -65 l22 -5 -2 -3838 -3
-3837 -30 -85 c-60 -173 -183 -312 -353 -398 -228 -116 -463 -166 -844 -179
l-188 -6 0 -260 0 -260 98 7 c632 40 2502 40 3135 0 l97 -7 0 260 0 260 -187
6 c-687 23 -1069 208 -1198 577 l-30 85 -2 3670 c-2 2019 1 3665 5 3659 4 -6
1303 -1915 2887 -4242 2398 -3524 2886 -4234 2916 -4251 32 -18 54 -21 164
-21 144 0 185 14 221 73 19 31 19 118 24 4112 l5 4080 30 85 c60 173 183 312
353 398 228 116 463 166 845 179 l187 6 0 260 0 260 -97 -7 c-633 -40 -2503
-40 -3135 0 l-98 7 0 -260 0 -260 188 -6 c686 -23 1068 -208 1197 -577 l30
-85 3 -2999 2 -3000 -254 375 c-4499 6612 -4603 6764 -4642 6786 l-39 23
-1352 0 -1353 0 0 -260z"/>
</g>
</svg>
