<?xml version="1.0" standalone="no"?>
<!DOCTYPE svg PUBLIC "-//W3C//DTD SVG 20010904//EN"
 "http://www.w3.org/TR/2001/REC-SVG-20010904/DTD/svg10.dtd">
<svg version="1.0" xmlns="http://www.w3.org/2000/svg"
 width="673.000000pt" height="961.000000pt" viewBox="0 0 673.000000 961.000000"
 preserveAspectRatio="xMidYMid meet">
<metadata>
Created by potrace 1.16, written by Peter Selinger 2001-2019
</metadata>
<g transform="translate(0.000000,961.000000) scale(0.100000,-0.100000)"
fill="#000000" stroke="none">
<path d="M1025 9534 c-550 -40 -1006 -73 -1012 -73 -10 -1 -13 -60 -13 -261
l0 -260 138 0 c186 0 396 -17 517 -41 237 -48 342 -144 393 -361 16 -68 17
-323 17 -3903 l0 -3830 -24 -59 c-33 -84 -92 -139 -173 -164 -126 -39 -374
-61 -690 -62 l-178 0 0 -261 0 -261 92 6 c602 41 2334 41 2936 0 l92 -6 0 261
0 261 -177 0 c-317 1 -565 23 -691 62 -81 25 -140 80 -173 164 l-24 59 -3 825
-2 825 401 353 c332 293 404 352 414 340 19 -19 1350 -1921 1396 -1994 92
-145 137 -282 125 -382 -18 -156 -129 -232 -363 -248 l-93 -7 0 -260 0 -259
93 6 c605 41 2184 40 2630 0 l67 -7 0 262 0 261 -117 0 c-336 0 -571 52 -741
162 -94 62 -270 237 -373 373 -112 147 -1912 2718 -1913 2732 -1 13 938 846
1121 993 499 403 1037 624 1596 656 l117 7 0 260 0 260 -47 -6 c-27 -4 -133
-12 -238 -19 -341 -23 -1769 -12 -2277 18 l-108 7 0 -262 0 -261 33 0 c54 0
149 -29 205 -63 108 -64 147 -145 140 -287 -4 -79 -8 -97 -45 -172 -23 -46
-68 -114 -100 -151 -32 -38 -467 -429 -968 -870 l-910 -802 -3 3257 -2 3258
-33 -1 c-17 -1 -482 -34 -1032 -75z"/>
</g>
</svg>
