<?xml version="1.0" standalone="no"?>
<!DOCTYPE svg PUBLIC "-//W3C//DTD SVG 20010904//EN"
 "http://www.w3.org/TR/2001/REC-SVG-20010904/DTD/svg10.dtd">
<svg version="1.0" xmlns="http://www.w3.org/2000/svg"
 width="446.000000pt" height="1024.000000pt" viewBox="0 0 446.000000 1024.000000"
 preserveAspectRatio="xMidYMid meet">
<metadata>
Created by potrace 1.16, written by Peter Selinger 2001-2019
</metadata>
<g transform="translate(0.000000,1024.000000) scale(0.100000,-0.100000)"
fill="#000000" stroke="none">
<path d="M3350 10234 c-343 -66 -565 -283 -635 -619 -41 -194 5 -430 115 -598
96 -148 248 -258 426 -309 66 -19 103 -23 224 -23 121 0 158 4 224 23 100 29
221 91 282 145 l47 41 -7 -74 c-35 -371 -207 -781 -454 -1083 -133 -162 -315
-323 -492 -435 -130 -83 -147 -97 -160 -138 -20 -60 -1 -99 88 -186 82 -80
110 -94 166 -84 38 7 235 134 347 223 413 330 717 802 849 1318 60 233 74 348
75 590 0 184 -3 223 -23 314 -76 337 -236 598 -461 750 -146 99 -280 142 -461
146 -69 2 -136 1 -150 -1z"/>
<path d="M1030 9535 c-547 -41 -1003 -74 -1012 -74 -17 -1 -18 -20 -18 -261
l0 -260 138 0 c186 0 396 -17 517 -41 237 -48 342 -144 393 -361 16 -68 17
-322 17 -3898 0 -3663 -1 -3827 -18 -3877 -66 -188 -190 -227 -770 -240 l-277
-6 0 -260 0 -259 92 6 c602 41 2374 41 2976 0 l92 -6 0 259 0 260 -277 6
c-573 13 -692 49 -766 229 l-22 53 -3 4403 -2 4402 -33 -1 c-17 -1 -480 -34
-1027 -74z"/>
</g>
</svg>
