<?xml version="1.0" standalone="no"?>
<!DOCTYPE svg PUBLIC "-//W3C//DTD SVG 20010904//EN"
 "http://www.w3.org/TR/2001/REC-SVG-20010904/DTD/svg10.dtd">
<svg version="1.0" xmlns="http://www.w3.org/2000/svg"
 width="896.000000pt" height="1240.000000pt" viewBox="0 0 896.000000 1240.000000"
 preserveAspectRatio="xMidYMid meet">
<metadata>
Created by potrace 1.16, written by Peter Selinger 2001-2019
</metadata>
<g transform="translate(0.000000,1240.000000) scale(0.100000,-0.100000)"
fill="#000000" stroke="none">
<path d="M2083 12285 c-46 -63 -83 -119 -83 -124 0 -11 1977 -1696 1990 -1696
13 0 1990 1685 1990 1696 0 7 -127 189 -166 237 -1 2 -409 -236 -906 -529
-496 -293 -910 -533 -918 -533 -8 0 -421 239 -917 532 -496 293 -904 532 -905
532 -2 -1 -40 -52 -85 -115z"/>
<path d="M0 8847 l0 -224 343 -6 c619 -11 822 -45 915 -152 42 -47 77 -118 91
-183 16 -76 16 -7418 0 -7494 -14 -65 -49 -136 -91 -183 -93 -107 -296 -141
-915 -152 l-343 -6 0 -224 0 -223 2518 0 c1657 0 2564 4 2653 10 892 70 1739
458 2408 1105 950 918 1450 2264 1361 3660 -90 1401 -712 2655 -1715 3454
-607 485 -1311 769 -2058 830 -86 7 -961 11 -2648 11 l-2519 0 0 -223z m4965
-256 c1157 -185 2002 -921 2370 -2063 149 -464 221 -950 246 -1678 30 -863
-30 -1604 -176 -2155 -284 -1079 -970 -1811 -1985 -2118 -145 -44 -315 -80
-490 -104 -123 -16 -222 -18 -1090 -18 -885 0 -961 1 -1039 18 -163 35 -224
92 -250 232 -16 83 -16 7577 0 7660 30 161 112 220 342 245 39 4 491 7 1002 6
910 -2 933 -3 1070 -25z"/>
</g>
</svg>
