<?xml version="1.0" standalone="no"?>
<!DOCTYPE svg PUBLIC "-//W3C//DTD SVG 20010904//EN"
 "http://www.w3.org/TR/2001/REC-SVG-20010904/DTD/svg10.dtd">
<svg version="1.0" xmlns="http://www.w3.org/2000/svg"
 width="1174.000000pt" height="945.000000pt" viewBox="0 0 1174.000000 945.000000"
 preserveAspectRatio="xMidYMid meet">
<metadata>
Created by potrace 1.16, written by Peter Selinger 2001-2019
</metadata>
<g transform="translate(0.000000,945.000000) scale(0.100000,-0.100000)"
fill="#000000" stroke="none">
<path d="M0 9192 l0 -259 373 -6 c385 -7 544 -16 707 -43 150 -25 215 -60 274
-147 72 -107 66 245 64 -3857 l-3 -3695 -30 -85 c-37 -106 -106 -211 -193
-290 -123 -114 -368 -214 -618 -254 -125 -20 -338 -36 -471 -36 l-103 0 0
-261 0 -262 98 7 c632 40 2502 40 3135 0 l97 -7 0 262 0 261 -102 0 c-134 0
-347 16 -472 36 -250 40 -495 140 -618 254 -87 79 -156 184 -193 290 l-30 85
-2 3810 -2 3810 23 -60 c13 -33 760 -1986 1661 -4340 921 -2407 1648 -4294
1661 -4312 14 -18 46 -45 72 -60 44 -26 55 -28 158 -28 106 0 113 1 159 30 27
17 61 48 76 70 15 22 780 2010 1700 4418 l1674 4378 3 -4013 c2 -4454 8 -4068
-64 -4175 -59 -87 -124 -122 -274 -147 -163 -27 -322 -36 -707 -43 l-373 -6 0
-260 0 -260 123 7 c786 41 3018 41 3805 0 l122 -7 0 260 0 260 -372 6 c-386 7
-545 16 -708 43 -150 25 -215 60 -274 147 -72 107 -66 -262 -66 4012 0 4274
-6 3905 66 4012 59 87 124 122 274 147 163 27 322 36 708 43 l372 6 0 259 0
258 -1351 0 c-1032 0 -1361 -3 -1393 -12 -26 -8 -59 -31 -91 -63 l-50 -50
-1484 -3883 c-816 -2135 -1487 -3882 -1491 -3882 -4 0 -675 1747 -1491 3882
l-1484 3883 -50 50 c-32 32 -65 55 -91 63 -32 9 -362 12 -1398 12 l-1356 0 0
-258z"/>
</g>
</svg>
