<?xml version="1.0" standalone="no"?>
<!DOCTYPE svg PUBLIC "-//W3C//DTD SVG 20010904//EN"
 "http://www.w3.org/TR/2001/REC-SVG-20010904/DTD/svg10.dtd">
<svg version="1.0" xmlns="http://www.w3.org/2000/svg"
 width="862.000000pt" height="1241.000000pt" viewBox="0 0 862.000000 1241.000000"
 preserveAspectRatio="xMidYMid meet">
<metadata>
Created by potrace 1.16, written by Peter Selinger 2001-2019
</metadata>
<g transform="translate(0.000000,1241.000000) scale(0.100000,-0.100000)"
fill="#000000" stroke="none">
<path d="M0 12152 l0 -259 373 -6 c385 -7 544 -16 707 -43 150 -25 215 -60
274 -147 72 -107 66 260 66 -3992 0 -4252 6 -3885 -66 -3992 -59 -87 -124
-122 -274 -147 -163 -27 -322 -36 -707 -43 l-373 -6 0 -259 0 -258 3095 -2
3095 -3 -111 -95 c-211 -180 -427 -421 -573 -640 -70 -103 -174 -314 -215
-433 -59 -169 -75 -272 -75 -472 1 -169 3 -187 32 -300 135 -514 572 -901
1162 -1026 142 -31 438 -33 575 -6 402 82 732 304 960 647 120 180 255 499
255 602 0 91 -71 153 -177 153 -96 0 -108 -12 -198 -207 -86 -186 -246 -371
-401 -462 -377 -221 -909 -127 -1262 224 -391 389 -414 912 -62 1412 113 161
354 396 559 546 l85 62 642 0 642 0 6 27 c3 16 132 827 286 1803 154 976 283
1787 286 1803 l6 27 -226 0 -225 0 -6 -32 c-3 -18 -26 -157 -51 -308 -90 -543
-172 -904 -279 -1226 -199 -598 -438 -939 -832 -1183 -343 -213 -734 -321
-1348 -373 -216 -19 -2497 -19 -2605 0 -161 27 -228 70 -266 168 -18 47 -19
113 -22 1987 l-2 1939 757 -5 c799 -5 873 -9 1090 -56 314 -68 511 -203 633
-432 103 -193 160 -535 160 -961 l0 -158 225 0 225 0 0 1870 0 1870 -225 0
-225 0 0 -157 c0 -87 -5 -223 -10 -303 -48 -682 -259 -977 -783 -1091 -217
-47 -291 -51 -1090 -56 l-757 -5 2 1754 c3 1650 4 1756 21 1797 40 100 95 140
234 168 68 14 218 17 1118 20 1053 4 1358 -2 1652 -32 461 -49 811 -158 1089
-341 115 -76 300 -260 381 -380 207 -304 338 -687 432 -1260 23 -138 91 -640
91 -669 0 -3 102 -5 226 -5 l226 0 -6 38 c-3 20 -87 726 -186 1567 -99 842
-183 1547 -186 1568 l-6 37 -3919 0 -3919 0 0 -258z"/>
</g>
</svg>
