<?xml version="1.0" standalone="no"?>
<!DOCTYPE svg PUBLIC "-//W3C//DTD SVG 20010904//EN"
 "http://www.w3.org/TR/2001/REC-SVG-20010904/DTD/svg10.dtd">
<svg version="1.0" xmlns="http://www.w3.org/2000/svg"
 width="538.000000pt" height="669.000000pt" viewBox="0 0 538.000000 669.000000"
 preserveAspectRatio="xMidYMid meet">
<metadata>
Created by potrace 1.16, written by Peter Selinger 2001-2019
</metadata>
<g transform="translate(0.000000,669.000000) scale(0.100000,-0.100000)"
fill="#000000" stroke="none">
<path d="M2801 6672 c-28 -15 -49 -49 -140 -227 -280 -550 -562 -986 -942
-1455 -449 -555 -1033 -1098 -1611 -1500 -79 -55 -108 -93 -108 -145 0 -52 29
-90 108 -145 578 -402 1162 -945 1611 -1500 380 -469 662 -905 942 -1455 122
-240 127 -245 239 -245 75 0 118 21 151 72 29 47 22 86 -56 293 -323 859 -782
1667 -1346 2370 -155 193 -315 378 -446 516 l-90 94 100 105 c128 135 306 341
455 527 550 690 1008 1501 1327 2348 37 99 69 198 72 220 5 48 -21 96 -69 125
-44 27 -149 28 -197 2z"/>
<path d="M5101 6672 c-28 -15 -49 -49 -140 -227 -280 -550 -562 -986 -942
-1455 -449 -555 -1033 -1098 -1611 -1500 -79 -55 -108 -93 -108 -145 0 -52 29
-90 108 -145 578 -402 1162 -945 1611 -1500 380 -469 662 -905 942 -1455 122
-240 127 -245 239 -245 75 0 118 21 151 72 29 47 22 86 -56 293 -323 859 -782
1667 -1346 2370 -155 193 -315 378 -446 516 l-90 94 100 105 c128 135 306 341
455 527 550 690 1008 1501 1327 2348 37 99 69 198 72 220 5 48 -21 96 -69 125
-44 27 -149 28 -197 2z"/>
</g>
</svg>
