<?xml version="1.0" standalone="no"?>
<!DOCTYPE svg PUBLIC "-//W3C//DTD SVG 20010904//EN"
 "http://www.w3.org/TR/2001/REC-SVG-20010904/DTD/svg10.dtd">
<svg version="1.0" xmlns="http://www.w3.org/2000/svg"
 width="286.000000pt" height="241.000000pt" viewBox="0 0 286.000000 241.000000"
 preserveAspectRatio="xMidYMid meet">
<metadata>
Created by potrace 1.16, written by Peter Selinger 2001-2019
</metadata>
<g transform="translate(0.000000,241.000000) scale(0.100000,-0.100000)"
fill="#000000" stroke="none">
<path d="M1200 2395 c-464 -64 -863 -318 -1065 -680 -50 -88 -102 -237 -120
-342 -30 -171 -14 -342 49 -517 264 -738 1265 -1078 2063 -700 312 148 553
404 659 700 85 236 85 462 0 698 -206 576 -887 937 -1586 841z m515 -485 c303
-34 485 -164 548 -390 49 -174 49 -456 0 -630 -39 -140 -135 -254 -265 -315
-139 -66 -269 -85 -573 -85 -304 0 -434 19 -573 85 -130 61 -226 175 -265 315
-49 174 -49 456 0 630 62 221 246 355 534 389 106 12 488 13 594 1z"/>
</g>
</svg>
