<?xml version="1.0" standalone="no"?>
<!DOCTYPE svg PUBLIC "-//W3C//DTD SVG 20010904//EN"
 "http://www.w3.org/TR/2001/REC-SVG-20010904/DTD/svg10.dtd">
<svg version="1.0" xmlns="http://www.w3.org/2000/svg"
 width="572.000000pt" height="929.000000pt" viewBox="0 0 572.000000 929.000000"
 preserveAspectRatio="xMidYMid meet">
<metadata>
Created by potrace 1.16, written by Peter Selinger 2001-2019
</metadata>
<g transform="translate(0.000000,929.000000) scale(0.100000,-0.100000)"
fill="#000000" stroke="none">
<path d="M435 9268 c-3 -13 -100 -626 -215 -1363 -116 -737 -213 -1352 -216
-1367 l-6 -28 186 0 185 0 6 33 c3 17 21 127 40 242 80 476 168 779 264 913
27 37 35 41 98 51 230 37 1082 53 2665 49 l1236 -3 -654 -915 c-810 -1133
-914 -1286 -1186 -1760 -155 -270 -414 -789 -531 -1065 -458 -1080 -698 -2148
-724 -3230 -5 -226 -4 -270 11 -338 26 -118 86 -228 167 -308 295 -291 826
-212 1007 148 70 141 70 145 76 913 7 822 21 1177 67 1685 105 1153 354 2036
771 2729 45 76 520 748 1053 1495 l970 1356 3 178 3 177 -1618 0 c-2139 0
-2612 15 -2933 91 -216 51 -351 163 -352 294 l-1 45 -183 0 c-182 0 -184 0
-189 -22z"/>
</g>
</svg>
