<?xml version="1.0" standalone="no"?>
<!DOCTYPE svg PUBLIC "-//W3C//DTD SVG 20010904//EN"
 "http://www.w3.org/TR/2001/REC-SVG-20010904/DTD/svg10.dtd">
<svg version="1.0" xmlns="http://www.w3.org/2000/svg"
 width="966.000000pt" height="945.000000pt" viewBox="0 0 966.000000 945.000000"
 preserveAspectRatio="xMidYMid meet">
<metadata>
Created by potrace 1.16, written by Peter Selinger 2001-2019
</metadata>
<g transform="translate(0.000000,945.000000) scale(0.100000,-0.100000)"
fill="#000000" stroke="none">
<path d="M0 9143 l0 -310 403 -6 c545 -8 760 -27 862 -77 50 -24 108 -78 132
-123 17 -30 18 -234 18 -3902 0 -3668 -1 -3872 -18 -3902 -24 -45 -82 -99
-132 -123 -102 -50 -317 -69 -862 -77 l-403 -6 0 -310 0 -310 128 7 c826 41
3188 41 4015 0 l127 -7 0 310 0 310 -402 6 c-546 8 -761 27 -863 77 -50 24
-108 78 -132 123 -17 30 -18 142 -21 1905 l-2 1872 1975 0 1975 0 -2 -1872
c-3 -1763 -4 -1875 -21 -1905 -24 -45 -82 -99 -132 -123 -102 -50 -317 -69
-862 -77 l-403 -6 0 -310 0 -310 128 7 c826 41 3188 41 4015 0 l127 -7 0 310
0 310 -402 6 c-546 8 -761 27 -863 77 -50 24 -108 78 -132 123 -17 30 -18 234
-18 3902 0 3668 1 3872 18 3902 24 45 82 99 132 123 102 50 317 69 863 77
l402 6 0 310 0 310 -127 -7 c-827 -41 -3189 -41 -4015 0 l-128 7 0 -310 0
-310 403 -6 c545 -8 760 -27 862 -77 50 -24 108 -78 132 -123 17 -30 18 -134
21 -1719 l2 -1688 -1975 0 -1975 0 2 1688 c3 1585 4 1689 21 1719 24 45 82 99
132 123 102 50 317 69 863 77 l402 6 0 310 0 310 -127 -7 c-827 -41 -3189 -41
-4015 0 l-128 7 0 -310z"/>
</g>
</svg>
