<?xml version="1.0" standalone="no"?>
<!DOCTYPE svg PUBLIC "-//W3C//DTD SVG 20010904//EN"
 "http://www.w3.org/TR/2001/REC-SVG-20010904/DTD/svg10.dtd">
<svg version="1.0" xmlns="http://www.w3.org/2000/svg"
 width="922.000000pt" height="320.000000pt" viewBox="0 0 922.000000 320.000000"
 preserveAspectRatio="xMidYMid meet">
<metadata>
Created by potrace 1.16, written by Peter Selinger 2001-2019
</metadata>
<g transform="translate(0.000000,320.000000) scale(0.100000,-0.100000)"
fill="#000000" stroke="none">
<path d="M175 3187 c-108 -42 -175 -134 -175 -242 0 -90 51 -176 132 -220 l53
-30 4420 0 c4352 0 4421 0 4459 19 93 46 141 125 141 231 0 106 -48 185 -141
231 -38 19 -109 19 -4449 21 -3359 1 -4417 -1 -4440 -10z"/>
<path d="M179 496 c-119 -42 -187 -142 -177 -260 8 -92 62 -171 144 -212 38
-19 107 -19 4459 -19 4352 0 4421 0 4459 19 93 46 141 125 141 231 0 106 -48
185 -141 231 -38 19 -109 19 -4444 21 -3585 2 -4412 0 -4441 -11z"/>
</g>
</svg>
