<?xml version="1.0" standalone="no"?>
<!DOCTYPE svg PUBLIC "-//W3C//DTD SVG 20010904//EN"
 "http://www.w3.org/TR/2001/REC-SVG-20010904/DTD/svg10.dtd">
<svg version="1.0" xmlns="http://www.w3.org/2000/svg"
 width="930.000000pt" height="1245.000000pt" viewBox="0 0 930.000000 1245.000000"
 preserveAspectRatio="xMidYMid meet">
<metadata>
Created by potrace 1.16, written by Peter Selinger 2001-2019
</metadata>
<g transform="translate(0.000000,1245.000000) scale(0.100000,-0.100000)"
fill="#000000" stroke="none">
<path d="M4295 12439 c-1185 -90 -2316 -695 -3106 -1661 -528 -646 -893 -1413
-1068 -2243 -165 -781 -159 -1604 15 -2365 274 -1190 934 -2221 1869 -2915
550 -410 1205 -694 1863 -809 277 -49 416 -60 737 -60 453 0 747 41 1193 166
61 17 114 29 115 27 2 -2 23 -114 46 -249 95 -547 165 -870 242 -1115 221
-702 565 -1071 1107 -1185 125 -27 366 -37 485 -21 506 68 885 371 1152 923
209 432 335 1033 339 1610 1 195 0 208 -20 235 -65 87 -192 88 -257 1 -15 -21
-22 -51 -28 -134 -11 -136 -23 -204 -55 -301 -127 -388 -450 -677 -884 -790
-130 -34 -383 -43 -513 -19 -441 83 -738 408 -1071 1171 l-34 79 156 81 c431
222 796 489 1142 835 672 671 1134 1513 1354 2470 174 761 180 1584 15 2365
-275 1307 -1024 2451 -2064 3154 -328 221 -609 366 -968 500 -548 204 -1183
294 -1762 250z m655 -464 c266 -41 503 -116 755 -240 793 -390 1386 -1132
1722 -2154 61 -187 141 -502 177 -701 79 -433 113 -801 123 -1340 28 -1570
-294 -2752 -986 -3620 -97 -121 -350 -376 -466 -468 -49 -40 -92 -72 -95 -72
-4 0 -25 44 -49 98 -73 164 -226 457 -297 565 -187 286 -387 477 -624 597
-292 147 -638 180 -943 89 -94 -28 -269 -117 -352 -180 -348 -264 -530 -716
-460 -1146 16 -99 56 -236 86 -295 11 -21 19 -40 19 -43 0 -10 -201 96 -309
162 -835 515 -1415 1458 -1645 2673 -131 695 -162 1610 -81 2415 57 559 182
1098 360 1550 54 139 182 407 257 539 340 602 806 1057 1363 1331 298 147 566
223 910 259 85 9 434 -3 535 -19z m-86 -7630 c260 -54 473 -201 625 -430 118
-179 239 -478 304 -756 6 -25 1 -29 -101 -77 -259 -123 -467 -185 -777 -234
-45 -7 -176 -12 -300 -13 -218 0 -221 0 -284 27 -178 77 -333 228 -411 402
-48 107 -64 188 -64 326 0 236 74 412 240 570 113 108 228 169 369 196 88 17
291 12 399 -11z"/>
</g>
</svg>
