<?xml version="1.0" standalone="no"?>
<!DOCTYPE svg PUBLIC "-//W3C//DTD SVG 20010904//EN"
 "http://www.w3.org/TR/2001/REC-SVG-20010904/DTD/svg10.dtd">
<svg version="1.0" xmlns="http://www.w3.org/2000/svg"
 width="936.000000pt" height="907.000000pt" viewBox="0 0 936.000000 907.000000"
 preserveAspectRatio="xMidYMid meet">
<metadata>
Created by potrace 1.16, written by Peter Selinger 2001-2019
</metadata>
<g transform="translate(0.000000,907.000000) scale(0.100000,-0.100000)"
fill="#000000" stroke="none">
<path d="M0 8848 l0 -225 343 -6 c619 -11 822 -45 915 -152 42 -47 77 -118 91
-183 16 -76 16 -7418 0 -7494 -14 -65 -49 -136 -91 -183 -93 -107 -296 -141
-915 -152 l-343 -6 0 -225 0 -224 122 6 c763 39 2933 39 3696 0 l122 -6 0 224
0 225 -342 6 c-620 11 -823 45 -916 152 -42 47 -77 118 -91 183 -8 38 -11 416
-10 1310 l0 1257 752 717 c584 558 754 715 763 705 35 -37 2435 -3605 2471
-3673 64 -120 85 -187 87 -274 1 -63 -3 -84 -27 -132 -82 -167 -289 -247 -639
-248 l-98 0 0 -226 0 -227 128 7 c795 39 2650 39 3240 0 l92 -6 0 226 0 226
-134 0 c-73 0 -191 5 -262 10 -466 37 -682 161 -977 561 -31 42 -689 1014
-1463 2160 -774 1146 -1453 2153 -1510 2236 l-103 153 1117 1067 c614 588
1167 1116 1228 1174 427 406 899 662 1401 759 128 25 351 50 446 50 l67 0 0
226 0 226 -67 -6 c-38 -3 -162 -12 -278 -18 -375 -22 -1872 -10 -2397 18
l-118 7 0 -225 0 -225 78 -7 c284 -24 471 -158 513 -368 24 -121 -38 -288
-153 -410 -35 -36 -983 -945 -2108 -2020 l-2045 -1953 -3 2175 c-2 1590 0
2191 9 2235 13 70 46 140 91 190 93 107 296 141 916 152 l342 6 0 225 0 224
-122 -6 c-359 -18 -1042 -29 -1848 -29 -806 0 -1489 11 -1847 29 l-123 6 0
-224z"/>
</g>
</svg>
