<?xml version="1.0" standalone="no"?>
<!DOCTYPE svg PUBLIC "-//W3C//DTD SVG 20010904//EN"
 "http://www.w3.org/TR/2001/REC-SVG-20010904/DTD/svg10.dtd">
<svg version="1.0" xmlns="http://www.w3.org/2000/svg"
 width="1269.000000pt" height="1007.000000pt" viewBox="0 0 1269.000000 1007.000000"
 preserveAspectRatio="xMidYMid meet">
<metadata>
Created by potrace 1.16, written by Peter Selinger 2001-2019
</metadata>
<g transform="translate(0.000000,1007.000000) scale(0.100000,-0.100000)"
fill="#000000" stroke="none">
<path d="M4300 10060 c-364 -31 -708 -102 -1044 -217 -1669 -566 -2900 -2107
-3190 -3993 -139 -899 -53 -1831 245 -2662 321 -894 886 -1685 1604 -2244 575
-449 1261 -756 1957 -878 270 -48 414 -60 703 -60 361 0 485 17 1112 153 327
72 464 98 663 128 107 16 318 17 2932 20 l2816 3 6 28 c3 15 132 826 286 1802
154 976 283 1787 286 1802 l6 28 -226 0 -225 0 -6 -32 c-3 -18 -26 -157 -51
-308 -186 -1134 -398 -1765 -716 -2128 -264 -301 -708 -518 -1238 -606 -354
-59 -616 -68 -1690 -63 -763 3 -906 6 -973 20 -138 28 -194 68 -234 168 -17
41 -18 155 -21 1992 l-2 1947 757 0 c760 0 980 -7 1192 -36 326 -44 564 -151
699 -313 191 -229 272 -559 272 -1108 l0 -153 225 0 225 0 0 1870 0 1870 -225
0 -225 0 0 -152 c0 -376 -41 -662 -123 -858 -163 -394 -457 -548 -1122 -590
-88 -5 -501 -10 -918 -10 l-757 0 2 1763 c3 1701 4 1764 22 1811 38 98 105
141 266 168 108 19 2045 19 2245 0 543 -49 893 -161 1187 -379 395 -292 609
-791 748 -1747 16 -111 70 -528 70 -543 0 -2 102 -3 226 -3 l226 0 -6 38 c-3
20 -87 726 -186 1567 -99 842 -183 1547 -186 1567 l-6 38 -2721 3 c-2524 3
-2730 4 -2837 20 -199 30 -335 56 -685 132 -572 124 -711 145 -1030 150 -126
2 -277 0 -335 -5z m688 -425 c217 -31 390 -86 548 -175 102 -58 245 -198 302
-295 165 -283 253 -745 294 -1545 18 -349 18 -4821 0 -5170 -41 -800 -129
-1262 -294 -1545 -57 -97 -200 -237 -302 -295 -246 -138 -503 -194 -901 -194
-252 -1 -348 10 -552 64 -976 256 -1824 1219 -2277 2585 -321 966 -412 2182
-240 3210 89 536 234 992 464 1460 334 679 744 1168 1275 1517 341 224 720
360 1120 402 88 9 455 -3 563 -19z"/>
</g>
</svg>
