<?xml version="1.0" standalone="no"?>
<!DOCTYPE svg PUBLIC "-//W3C//DTD SVG 20010904//EN"
 "http://www.w3.org/TR/2001/REC-SVG-20010904/DTD/svg10.dtd">
<svg version="1.0" xmlns="http://www.w3.org/2000/svg"
 width="912.000000pt" height="1176.000000pt" viewBox="0 0 912.000000 1176.000000"
 preserveAspectRatio="xMidYMid meet">
<metadata>
Created by potrace 1.16, written by Peter Selinger 2001-2019
</metadata>
<g transform="translate(0.000000,1176.000000) scale(0.100000,-0.100000)"
fill="#000000" stroke="none">
<path d="M4923 11745 c-29 -8 -72 -24 -95 -36 -24 -12 -485 -298 -1024 -636
l-982 -615 78 -167 c42 -91 81 -165 86 -165 52 9 2225 692 2271 715 240 116
320 385 191 646 -101 205 -320 313 -525 258z"/>
<path d="M7133 11745 c-29 -8 -72 -24 -95 -36 -24 -12 -485 -298 -1024 -636
l-982 -615 78 -167 c42 -91 81 -165 86 -165 52 9 2225 692 2271 715 240 116
320 385 191 646 -101 205 -320 313 -525 258z"/>
<path d="M0 9148 l0 -225 343 -6 c619 -11 822 -45 915 -152 32 -36 66 -94 86
-150 8 -21 12 -814 16 -2810 5 -2567 7 -2789 23 -2893 68 -442 187 -807 379
-1157 80 -146 226 -364 334 -500 118 -147 350 -377 506 -502 500 -401 1069
-640 1733 -729 186 -25 605 -25 770 -1 686 102 1296 431 1762 948 475 528 755
1153 860 1914 15 108 17 378 22 2740 l6 2620 23 70 c43 128 90 204 182 295 66
66 105 95 175 131 220 114 437 162 798 175 l177 7 0 225 0 225 -97 -7 c-614
-39 -2362 -39 -2975 0 l-98 7 0 -225 0 -225 178 -7 c360 -13 577 -61 797 -175
70 -36 109 -65 175 -131 92 -91 139 -167 182 -295 l23 -70 3 -2505 c2 -1742 0
-2551 -8 -2655 -47 -642 -249 -1204 -599 -1663 -392 -516 -964 -852 -1610
-949 -173 -26 -516 -23 -671 5 -758 139 -1347 644 -1619 1389 -109 299 -175
661 -201 1103 -15 245 -13 5543 1 5612 14 65 49 136 91 183 93 107 296 141
916 152 l342 6 0 225 0 224 -122 -6 c-359 -18 -1042 -29 -1848 -29 -806 0
-1489 11 -1847 29 l-123 6 0 -224z"/>
</g>
</svg>
