<?xml version="1.0" standalone="no"?>
<!DOCTYPE svg PUBLIC "-//W3C//DTD SVG 20010904//EN"
 "http://www.w3.org/TR/2001/REC-SVG-20010904/DTD/svg10.dtd">
<svg version="1.0" xmlns="http://www.w3.org/2000/svg"
 width="532.000000pt" height="886.000000pt" viewBox="0 0 532.000000 886.000000"
 preserveAspectRatio="xMidYMid meet">
<metadata>
Created by potrace 1.16, written by Peter Selinger 2001-2019
</metadata>
<g transform="translate(0.000000,886.000000) scale(0.100000,-0.100000)"
fill="#000000" stroke="none">
<path d="M2270 8853 c-449 -45 -828 -177 -1175 -408 -370 -247 -638 -549 -836
-940 -118 -234 -196 -478 -235 -735 -25 -164 -26 -461 -1 -549 58 -204 176
-346 362 -436 111 -54 205 -75 330 -75 125 0 219 21 330 75 186 90 305 234
362 436 27 99 25 309 -5 414 -57 198 -182 345 -367 430 -127 59 -293 86 -408
67 -66 -10 -65 -16 -20 93 73 175 191 373 303 510 81 98 251 262 340 327 358
262 785 381 1214 339 405 -40 704 -179 982 -456 215 -214 368 -470 474 -793
96 -292 134 -544 134 -892 0 -254 -11 -380 -54 -590 -128 -630 -482 -1288
-1097 -2042 -248 -304 -301 -364 -2322 -2611 -306 -340 -561 -630 -568 -645
-8 -17 -12 -88 -13 -199 l0 -173 2469 0 2469 0 6 27 c3 16 84 532 181 1148 97
616 178 1132 181 1148 l6 27 -186 0 -185 0 -6 -32 c-3 -18 -21 -125 -40 -238
-45 -269 -88 -472 -131 -623 -36 -127 -108 -290 -141 -320 -11 -9 -44 -21 -74
-27 -200 -35 -1010 -52 -2393 -48 l-1079 3 794 764 c916 882 935 900 1414
1320 830 728 1112 1010 1419 1420 355 476 546 944 597 1461 14 148 7 447 -15
595 -80 546 -306 1016 -671 1394 -468 485 -1100 767 -1860 831 -112 9 -406 11
-485 3z"/>
</g>
</svg>
