<?xml version="1.0" standalone="no"?>
<!DOCTYPE svg PUBLIC "-//W3C//DTD SVG 20010904//EN"
 "http://www.w3.org/TR/2001/REC-SVG-20010904/DTD/svg10.dtd">
<svg version="1.0" xmlns="http://www.w3.org/2000/svg"
 width="55.000000pt" height="1328.000000pt" viewBox="0 0 55.000000 1328.000000"
 preserveAspectRatio="xMidYMid meet">
<metadata>
Created by potrace 1.16, written by Peter Selinger 2001-2019
</metadata>
<g transform="translate(0.000000,1328.000000) scale(0.100000,-0.100000)"
fill="#000000" stroke="none">
<path d="M191 13269 c-85 -26 -160 -105 -181 -191 -7 -30 -10 -1963 -8 -6463
3 -6361 3 -6420 23 -6460 25 -50 80 -105 130 -130 55 -27 175 -27 230 0 50 25
105 80 130 130 20 40 20 96 20 6485 0 6389 0 6445 -20 6485 -25 51 -80 106
-130 129 -46 22 -146 30 -194 15z"/>
</g>
</svg>
