<?xml version="1.0" standalone="no"?>
<!DOCTYPE svg PUBLIC "-//W3C//DTD SVG 20010904//EN"
 "http://www.w3.org/TR/2001/REC-SVG-20010904/DTD/svg10.dtd">
<svg version="1.0" xmlns="http://www.w3.org/2000/svg"
 width="892.000000pt" height="1195.000000pt" viewBox="0 0 892.000000 1195.000000"
 preserveAspectRatio="xMidYMid meet">
<metadata>
Created by potrace 1.16, written by Peter Selinger 2001-2019
</metadata>
<g transform="translate(0.000000,1195.000000) scale(0.100000,-0.100000)"
fill="#000000" stroke="none">
<path d="M4170 11944 c-1406 -101 -2660 -895 -3436 -2176 -249 -410 -449 -893
-569 -1371 -72 -288 -113 -526 -147 -862 -16 -163 -16 -745 0 -910 43 -427
116 -784 234 -1145 210 -645 541 -1225 985 -1730 655 -743 1557 -1252 2498
-1410 277 -46 380 -54 685 -54 305 0 408 8 685 54 162 27 429 91 524 125 24 8
45 14 46 13 1 -2 24 -129 50 -283 93 -552 153 -822 250 -1112 203 -612 540
-955 1035 -1054 129 -26 342 -35 463 -20 409 52 752 286 998 681 257 414 414
1034 436 1720 5 175 4 200 -12 233 -48 102 -192 116 -257 24 -17 -23 -23 -52
-29 -136 -15 -194 -48 -318 -126 -477 -132 -270 -398 -501 -683 -592 -165 -53
-187 -56 -385 -57 -168 0 -199 3 -268 23 -349 101 -585 340 -827 837 -68 139
-170 375 -170 391 0 5 49 32 108 61 678 328 1298 881 1747 1558 142 213 214
339 326 569 269 553 423 1111 491 1781 16 165 16 747 0 910 -34 336 -75 574
-147 862 -343 1368 -1240 2520 -2424 3113 -436 217 -899 357 -1381 415 -129
16 -577 28 -700 19z m590 -399 c252 -37 474 -108 726 -230 609 -294 1098 -803
1449 -1507 294 -589 463 -1267 525 -2098 18 -245 24 -775 11 -1035 -46 -945
-220 -1673 -555 -2320 -187 -363 -405 -659 -682 -925 -100 -96 -291 -256 -298
-249 -3 2 -28 58 -56 124 -125 289 -273 551 -404 719 -86 110 -246 261 -348
329 -219 146 -475 216 -748 204 -285 -12 -521 -118 -721 -324 -95 -98 -153
-178 -209 -292 -157 -314 -159 -701 -4 -1015 19 -38 32 -71 31 -73 -2 -2 -75
33 -163 76 -916 456 -1566 1411 -1818 2671 -101 501 -144 1036 -133 1640 9
476 36 787 103 1180 172 1018 604 1888 1207 2431 460 414 958 646 1517 708
122 14 435 6 570 -14z m-147 -7340 c428 -64 690 -335 875 -905 37 -115 92
-316 92 -338 0 -15 -228 -118 -366 -165 -253 -87 -457 -124 -724 -133 -213 -8
-288 2 -388 51 -193 96 -344 284 -404 503 -30 109 -30 315 0 424 69 252 255
458 488 538 119 42 263 50 427 25z"/>
</g>
</svg>
