<?xml version="1.0" standalone="no"?>
<!DOCTYPE svg PUBLIC "-//W3C//DTD SVG 20010904//EN"
 "http://www.w3.org/TR/2001/REC-SVG-20010904/DTD/svg10.dtd">
<svg version="1.0" xmlns="http://www.w3.org/2000/svg"
 width="885.000000pt" height="1176.000000pt" viewBox="0 0 885.000000 1176.000000"
 preserveAspectRatio="xMidYMid meet">
<metadata>
Created by potrace 1.16, written by Peter Selinger 2001-2019
</metadata>
<g transform="translate(0.000000,1176.000000) scale(0.100000,-0.100000)"
fill="#000000" stroke="none">
<path d="M3280 11746 c-184 -52 -328 -225 -361 -436 -30 -193 68 -382 242
-467 47 -23 2229 -708 2283 -717 5 0 44 74 86 165 l78 167 -980 612 c-539 337
-1002 623 -1028 636 -101 51 -225 66 -320 40z"/>
<path d="M4170 9664 c-1406 -101 -2660 -895 -3436 -2176 -249 -410 -449 -893
-569 -1371 -72 -288 -113 -526 -147 -862 -16 -163 -16 -745 0 -910 43 -427
116 -784 234 -1145 210 -645 541 -1225 985 -1730 655 -743 1557 -1252 2498
-1410 277 -46 380 -54 685 -54 382 0 670 35 1010 123 1048 271 1951 926 2575
1866 142 213 214 339 326 569 269 553 423 1111 491 1781 16 165 16 747 0 910
-34 336 -75 574 -147 862 -343 1368 -1240 2520 -2424 3113 -436 217 -899 357
-1381 415 -129 16 -577 28 -700 19z m465 -384 c894 -82 1708 -657 2214 -1563
395 -707 591 -1605 591 -2712 0 -864 -105 -1621 -311 -2249 -142 -429 -375
-889 -609 -1202 -417 -556 -952 -930 -1545 -1084 -194 -50 -318 -64 -555 -64
-158 0 -245 4 -330 18 -515 80 -1005 333 -1416 728 -523 504 -909 1245 -1104
2123 -111 494 -170 1100 -170 1730 0 1352 286 2373 884 3160 105 139 329 372
466 487 555 466 1224 689 1885 628z"/>
</g>
</svg>
