<?xml version="1.0" standalone="no"?>
<!DOCTYPE svg PUBLIC "-//W3C//DTD SVG 20010904//EN"
 "http://www.w3.org/TR/2001/REC-SVG-20010904/DTD/svg10.dtd">
<svg version="1.0" xmlns="http://www.w3.org/2000/svg"
 width="534.000000pt" height="883.000000pt" viewBox="0 0 534.000000 883.000000"
 preserveAspectRatio="xMidYMid meet">
<metadata>
Created by potrace 1.16, written by Peter Selinger 2001-2019
</metadata>
<g transform="translate(0.000000,883.000000) scale(0.100000,-0.100000)"
fill="#000000" stroke="none">
<path d="M2525 8820 c-635 -67 -1219 -358 -1669 -831 -325 -342 -575 -774
-716 -1240 -169 -560 -185 -1182 -43 -1734 143 -559 414 -1036 814 -1435 463
-461 1039 -743 1699 -831 103 -14 491 -18 580 -7 l56 8 -141 -143 c-221 -222
-364 -413 -476 -634 -102 -203 -158 -406 -166 -608 -9 -210 27 -385 117 -573
68 -142 138 -239 251 -352 212 -211 475 -350 782 -412 158 -32 425 -32 574 0
449 97 787 368 1007 808 76 152 140 344 133 402 -9 81 -98 143 -182 128 -55
-11 -98 -59 -139 -155 -100 -238 -272 -429 -468 -521 -113 -53 -192 -71 -331
-77 -143 -6 -238 5 -362 44 -373 117 -672 421 -756 768 -28 114 -30 292 -5
410 78 364 352 708 836 1050 330 233 690 556 834 748 167 224 297 483 371 740
30 103 29 149 -4 195 -30 43 -78 62 -156 62 -119 0 -158 -32 -195 -164 -109
-390 -363 -763 -684 -1002 -880 -657 -2080 -365 -2615 637 -206 388 -302 854
-318 1552 l-6 287 1942 0 c2152 0 1984 -5 2034 64 29 40 34 152 18 396 -91
1375 -784 2221 -1967 2400 -156 24 -512 35 -649 20z m473 -354 c463 -101 797
-409 1001 -925 128 -324 190 -654 217 -1158 l6 -123 -1532 0 -1531 0 6 83 c30
399 92 735 181 974 240 651 697 1076 1249 1163 84 13 316 5 403 -14z"/>
</g>
</svg>
