<?xml version="1.0" standalone="no"?>
<!DOCTYPE svg PUBLIC "-//W3C//DTD SVG 20010904//EN"
 "http://www.w3.org/TR/2001/REC-SVG-20010904/DTD/svg10.dtd">
<svg version="1.0" xmlns="http://www.w3.org/2000/svg"
 width="307.000000pt" height="669.000000pt" viewBox="0 0 307.000000 669.000000"
 preserveAspectRatio="xMidYMid meet">
<metadata>
Created by potrace 1.16, written by Peter Selinger 2001-2019
</metadata>
<g transform="translate(0.000000,669.000000) scale(0.100000,-0.100000)"
fill="#000000" stroke="none">
<path d="M2760 6668 c-26 -18 -58 -72 -154 -263 -237 -468 -439 -794 -747
-1205 -245 -326 -435 -545 -724 -836 -301 -302 -559 -525 -887 -769 -101 -74
-195 -146 -210 -160 -49 -46 -49 -135 0 -180 15 -14 109 -86 210 -160 615
-456 1147 -987 1611 -1605 308 -411 510 -737 747 -1205 143 -284 144 -285 266
-285 95 0 140 17 168 62 30 50 25 98 -31 257 -373 1065 -969 2088 -1693 2906
-39 44 -79 89 -88 101 -17 19 -15 22 49 94 759 855 1352 1865 1732 2951 56
159 61 207 31 257 -28 45 -73 62 -168 62 -66 0 -85 -4 -112 -22z"/>
</g>
</svg>
