<?xml version="1.0" standalone="no"?>
<!DOCTYPE svg PUBLIC "-//W3C//DTD SVG 20010904//EN"
 "http://www.w3.org/TR/2001/REC-SVG-20010904/DTD/svg10.dtd">
<svg version="1.0" xmlns="http://www.w3.org/2000/svg"
 width="359.000000pt" height="862.000000pt" viewBox="0 0 359.000000 862.000000"
 preserveAspectRatio="xMidYMid meet">
<metadata>
Created by potrace 1.16, written by Peter Selinger 2001-2019
</metadata>
<g transform="translate(0.000000,862.000000) scale(0.100000,-0.100000)"
fill="#000000" stroke="none">
<path d="M913 7653 c-477 -532 -878 -979 -890 -994 l-22 -26 133 -126 134
-127 758 750 c418 412 761 750 764 750 3 0 346 -338 764 -750 l758 -750 134
127 133 126 -22 26 c-97 116 -1760 1961 -1767 1961 -5 0 -399 -435 -877 -967z"/>
<path d="M1285 5794 c-501 -40 -916 -73 -922 -73 -10 -1 -13 -53 -13 -224 l0
-224 213 -6 c520 -16 663 -84 740 -355 l22 -77 3 -2000 c2 -1432 0 -2018 -8
-2065 -22 -127 -78 -210 -170 -249 -100 -43 -366 -71 -682 -71 l-168 0 0 -226
0 -226 92 6 c586 39 2146 39 2701 0 l87 -7 0 225 0 225 -237 6 c-492 14 -600
51 -669 232 -18 49 -19 118 -22 2618 l-2 2567 -28 -1 c-15 -1 -436 -34 -937
-75z"/>
</g>
</svg>
