<?xml version="1.0" standalone="no"?>
<!DOCTYPE svg PUBLIC "-//W3C//DTD SVG 20010904//EN"
 "http://www.w3.org/TR/2001/REC-SVG-20010904/DTD/svg10.dtd">
<svg version="1.0" xmlns="http://www.w3.org/2000/svg"
 width="435.000000pt" height="912.000000pt" viewBox="0 0 435.000000 912.000000"
 preserveAspectRatio="xMidYMid meet">
<metadata>
Created by potrace 1.16, written by Peter Selinger 2001-2019
</metadata>
<g transform="translate(0.000000,912.000000) scale(0.100000,-0.100000)"
fill="#000000" stroke="none">
<path d="M665 9104 c-391 -87 -665 -422 -665 -814 0 -373 248 -696 616 -802
113 -33 315 -33 428 0 230 66 413 215 521 423 70 135 89 219 89 379 0 160 -19
244 -89 379 -107 206 -290 356 -515 421 -101 29 -287 36 -385 14z"/>
<path d="M3390 9114 c-211 -41 -400 -149 -520 -297 -65 -79 -133 -211 -162
-313 -32 -113 -32 -315 0 -428 47 -164 152 -326 275 -426 79 -64 211 -133 313
-162 113 -33 315 -33 428 0 368 106 616 429 616 802 0 371 -248 696 -611 800
-73 21 -278 35 -339 24z"/>
<path d="M1645 6034 c-561 -40 -1028 -73 -1037 -73 -17 -1 -18 -23 -18 -309
l0 -309 213 -6 c566 -16 718 -93 784 -399 17 -78 18 -197 18 -2088 l0 -2005
-31 -55 c-74 -131 -179 -156 -726 -167 l-308 -6 0 -310 0 -309 103 6 c670 41
2325 41 2960 0 l97 -7 0 310 0 310 -282 6 c-441 10 -575 37 -634 127 -57 87
-54 -91 -54 2747 l0 2613 -32 -1 c-18 -1 -492 -34 -1053 -75z"/>
</g>
</svg>
