<?xml version="1.0" standalone="no"?>
<!DOCTYPE svg PUBLIC "-//W3C//DTD SVG 20010904//EN"
 "http://www.w3.org/TR/2001/REC-SVG-20010904/DTD/svg10.dtd">
<svg version="1.0" xmlns="http://www.w3.org/2000/svg"
 width="821.000000pt" height="907.000000pt" viewBox="0 0 821.000000 907.000000"
 preserveAspectRatio="xMidYMid meet">
<metadata>
Created by potrace 1.16, written by Peter Selinger 2001-2019
</metadata>
<g transform="translate(0.000000,907.000000) scale(0.100000,-0.100000)"
fill="#000000" stroke="none">
<path d="M0 8847 l0 -224 343 -6 c619 -11 822 -45 915 -152 42 -47 77 -118 91
-183 16 -76 16 -7418 0 -7494 -14 -65 -49 -136 -91 -183 -93 -107 -296 -141
-915 -152 l-343 -6 0 -224 0 -223 2778 3 c2988 3 2803 0 3102 52 642 110 1236
415 1660 851 197 202 324 382 441 619 362 740 271 1520 -254 2170 -94 117
-305 318 -437 417 -407 305 -876 501 -1418 592 -85 14 -168 26 -185 26 -18 0
-39 5 -47 10 -12 8 -10 10 10 10 43 0 342 78 480 125 899 308 1532 930 1670
1642 71 362 8 760 -176 1119 -353 689 -1131 1209 -2054 1373 -326 58 -133 55
-2967 58 l-2603 3 0 -223z m5168 -254 c144 -33 247 -70 377 -134 396 -196 708
-566 859 -1020 74 -223 101 -422 93 -688 -6 -206 -30 -350 -88 -521 -239 -715
-865 -1224 -1627 -1325 -94 -13 -293 -15 -1193 -15 l-1079 0 0 1708 c0 1191 3
1726 11 1767 30 161 112 220 342 245 39 4 554 7 1142 6 1053 -2 1071 -2 1163
-23z m152 -4066 c545 -109 999 -471 1268 -1013 143 -287 218 -571 243 -922 52
-726 -282 -1419 -875 -1813 -275 -183 -563 -286 -891 -319 -76 -8 -436 -10
-1170 -8 -972 4 -1066 6 -1135 22 -154 37 -214 94 -239 231 -8 41 -11 627 -11
1952 l0 1894 1363 -4 c1230 -3 1370 -5 1447 -20z"/>
</g>
</svg>
