<?xml version="1.0" standalone="no"?>
<!DOCTYPE svg PUBLIC "-//W3C//DTD SVG 20010904//EN"
 "http://www.w3.org/TR/2001/REC-SVG-20010904/DTD/svg10.dtd">
<svg version="1.0" xmlns="http://www.w3.org/2000/svg"
 width="941.000000pt" height="1264.000000pt" viewBox="0 0 941.000000 1264.000000"
 preserveAspectRatio="xMidYMid meet">
<metadata>
Created by potrace 1.16, written by Peter Selinger 2001-2019
</metadata>
<g transform="translate(0.000000,1264.000000) scale(0.100000,-0.100000)"
fill="#000000" stroke="none">
<path d="M2720 12583 c1 -150 53 -410 115 -573 254 -666 875 -1137 1670 -1267
154 -25 516 -25 670 0 795 130 1416 601 1670 1267 62 163 114 423 115 573 l0
57 -205 0 -205 0 0 -43 c0 -75 -31 -228 -66 -326 -140 -393 -537 -710 -1060
-846 -210 -55 -330 -69 -584 -69 -195 0 -256 4 -360 22 -651 112 -1123 440
-1284 893 -35 98 -66 251 -66 326 l0 43 -205 0 -205 0 0 -57z"/>
<path d="M4500 10059 c-997 -81 -1926 -462 -2705 -1111 -138 -115 -414 -387
-540 -532 -452 -522 -775 -1092 -995 -1756 -503 -1521 -268 -3211 631 -4535
298 -438 695 -855 1114 -1169 572 -429 1228 -724 1927 -866 626 -127 1298
-118 1883 25 448 110 857 302 1155 542 109 88 285 274 359 380 l65 91 64 -86
c76 -101 348 -377 472 -478 121 -99 279 -218 317 -237 18 -10 44 -17 58 -17
39 0 91 27 112 58 17 26 18 99 23 1472 l5 1445 24 58 c44 112 103 154 252 181
112 21 328 36 522 36 l157 0 0 261 0 261 -102 -6 c-671 -41 -2818 -41 -3770 0
l-148 7 0 -262 0 -261 288 0 c513 0 972 -26 1136 -65 37 -8 88 -26 114 -39 62
-32 135 -108 164 -171 l23 -50 3 -650 c2 -428 -1 -683 -8 -747 -22 -192 -82
-358 -190 -521 -270 -409 -759 -680 -1395 -774 -165 -24 -553 -24 -755 0 -801
97 -1496 424 -2054 967 -649 632 -1011 1456 -1135 2585 -63 568 -67 1222 -10
1775 143 1411 636 2361 1569 3027 734 523 1699 747 2652 613 1039 -146 1809
-667 2066 -1401 17 -47 42 -139 57 -203 42 -190 50 -196 277 -196 174 0 207
10 240 71 17 32 18 87 18 1109 0 1022 -1 1077 -18 1109 -27 51 -73 71 -158 71
-60 0 -77 -4 -108 -25 -21 -14 -207 -157 -413 -317 -207 -160 -381 -291 -387
-291 -6 0 -42 19 -81 43 -38 24 -140 78 -225 120 -471 236 -1010 381 -1650
445 -186 19 -737 28 -900 14z"/>
</g>
</svg>
