<?xml version="1.0" standalone="no"?>
<!DOCTYPE svg PUBLIC "-//W3C//DTD SVG 20010904//EN"
 "http://www.w3.org/TR/2001/REC-SVG-20010904/DTD/svg10.dtd">
<svg version="1.0" xmlns="http://www.w3.org/2000/svg"
 width="922.000000pt" height="1228.000000pt" viewBox="0 0 922.000000 1228.000000"
 preserveAspectRatio="xMidYMid meet">
<metadata>
Created by potrace 1.16, written by Peter Selinger 2001-2019
</metadata>
<g transform="translate(0.000000,1228.000000) scale(0.100000,-0.100000)"
fill="#000000" stroke="none">
<path d="M4860 12264 c-30 -8 -81 -27 -112 -42 -66 -31 -1977 -1243 -1978
-1254 0 -6 218 -489 224 -495 4 -4 2179 657 2234 678 29 12 84 43 122 70 152
107 227 268 217 464 -13 270 -202 517 -442 581 -65 18 -195 17 -265 -2z"/>
<path d="M7160 12264 c-30 -8 -81 -27 -112 -42 -66 -31 -1977 -1243 -1978
-1254 0 -6 218 -489 224 -495 4 -4 2179 657 2234 678 29 12 84 43 122 70 152
107 227 268 217 464 -13 270 -202 517 -442 581 -65 18 -195 17 -265 -2z"/>
<path d="M4295 10059 c-1185 -90 -2316 -695 -3106 -1661 -528 -646 -893 -1413
-1068 -2243 -165 -781 -159 -1604 15 -2365 274 -1190 934 -2221 1869 -2915
633 -472 1357 -758 2153 -852 206 -24 688 -24 894 0 1024 121 1933 563 2668
1297 672 671 1134 1513 1354 2470 174 761 180 1584 15 2365 -275 1307 -1024
2451 -2064 3154 -328 221 -609 366 -968 500 -548 204 -1183 294 -1762 250z
m655 -564 c642 -98 1237 -444 1687 -980 277 -330 515 -768 668 -1229 191 -579
285 -1260 285 -2076 0 -1461 -260 -2537 -816 -3370 -226 -339 -518 -635 -838
-849 -1005 -672 -2213 -529 -3106 368 -155 156 -275 302 -394 481 -556 833
-816 1909 -816 3370 0 1351 256 2339 807 3117 306 433 760 802 1223 996 247
103 478 161 765 191 85 9 434 -3 535 -19z"/>
</g>
</svg>
