<?xml version="1.0" standalone="no"?>
<!DOCTYPE svg PUBLIC "-//W3C//DTD SVG 20010904//EN"
 "http://www.w3.org/TR/2001/REC-SVG-20010904/DTD/svg10.dtd">
<svg version="1.0" xmlns="http://www.w3.org/2000/svg"
 width="409.000000pt" height="1150.000000pt" viewBox="0 0 409.000000 1150.000000"
 preserveAspectRatio="xMidYMid meet">
<metadata>
Created by potrace 1.16, written by Peter Selinger 2001-2019
</metadata>
<g transform="translate(0.000000,1150.000000) scale(0.100000,-0.100000)"
fill="#000000" stroke="none">
<path d="M600 11485 c-261 -52 -468 -246 -551 -515 -33 -106 -33 -274 0 -380
99 -321 374 -530 697 -530 300 0 586 209 680 496 26 80 29 102 29 224 0 122
-3 144 -29 224 -112 342 -472 552 -826 481z"/>
<path d="M3175 11484 c-234 -48 -455 -248 -531 -480 -26 -80 -29 -102 -29
-224 0 -122 3 -144 29 -224 94 -287 380 -496 680 -496 323 0 598 209 697 530
33 106 33 274 0 380 -116 376 -471 591 -846 514z"/>
<path d="M0 8846 l0 -226 228 0 c530 -1 893 -35 1012 -95 62 -31 133 -112 162
-183 l23 -57 0 -3750 0 -3750 -23 -57 c-29 -71 -100 -152 -162 -183 -119 -60
-482 -94 -1012 -95 l-228 0 0 -226 0 -226 132 6 c821 39 2995 39 3816 0 l132
-6 0 226 0 226 -227 0 c-531 1 -894 35 -1013 95 -62 31 -133 112 -162 183
l-23 57 0 3750 0 3750 23 57 c29 71 100 152 162 183 119 60 482 94 1013 95
l227 0 0 226 0 226 -132 -6 c-395 -19 -1067 -29 -1908 -29 -841 0 -1513 10
-1907 29 l-133 6 0 -226z"/>
</g>
</svg>
