<?xml version="1.0" standalone="no"?>
<!DOCTYPE svg PUBLIC "-//W3C//DTD SVG 20010904//EN"
 "http://www.w3.org/TR/2001/REC-SVG-20010904/DTD/svg10.dtd">
<svg version="1.0" xmlns="http://www.w3.org/2000/svg"
 width="733.000000pt" height="907.000000pt" viewBox="0 0 733.000000 907.000000"
 preserveAspectRatio="xMidYMid meet">
<metadata>
Created by potrace 1.16, written by Peter Selinger 2001-2019
</metadata>
<g transform="translate(0.000000,907.000000) scale(0.100000,-0.100000)"
fill="#000000" stroke="none">
<path d="M0 8848 l0 -225 343 -6 c619 -11 822 -45 915 -152 42 -47 77 -118 91
-183 16 -76 16 -7418 0 -7494 -14 -65 -49 -136 -91 -183 -93 -107 -296 -141
-915 -152 l-343 -6 0 -224 0 -223 3474 0 3474 0 6 42 c3 24 84 783 181 1688
96 905 177 1664 180 1688 l6 42 -185 0 -185 0 -5 -42 c-3 -24 -17 -144 -31
-268 -97 -855 -247 -1371 -515 -1772 -307 -459 -806 -759 -1450 -872 -276 -49
-323 -51 -1200 -51 -759 0 -832 1 -909 18 -166 36 -226 93 -251 238 -8 46 -10
1142 -8 3814 l3 3750 27 57 c31 67 96 140 153 174 128 74 556 114 1248 114
l267 0 0 226 0 227 -147 -7 c-907 -39 -3248 -39 -4010 0 l-123 6 0 -224z"/>
</g>
</svg>
