<?xml version="1.0" standalone="no"?>
<!DOCTYPE svg PUBLIC "-//W3C//DTD SVG 20010904//EN"
 "http://www.w3.org/TR/2001/REC-SVG-20010904/DTD/svg10.dtd">
<svg version="1.0" xmlns="http://www.w3.org/2000/svg"
 width="942.000000pt" height="1282.000000pt" viewBox="0 0 942.000000 1282.000000"
 preserveAspectRatio="xMidYMid meet">
<metadata>
Created by potrace 1.16, written by Peter Selinger 2001-2019
</metadata>
<g transform="translate(0.000000,1282.000000) scale(0.100000,-0.100000)"
fill="#000000" stroke="none">
<path d="M2351 12633 c-94 -130 -131 -190 -125 -199 12 -17 1956 -1654 1964
-1654 8 0 1952 1637 1964 1654 7 9 -28 66 -119 192 -71 99 -132 183 -136 188
-4 4 -390 -213 -858 -483 l-851 -492 -849 491 c-467 269 -851 490 -853 490 -2
0 -63 -84 -137 -187z"/>
<path d="M0 9142 l0 -309 403 -6 c545 -8 760 -27 862 -77 50 -24 108 -78 132
-123 17 -30 18 -234 18 -3902 0 -3668 -1 -3872 -18 -3902 -24 -45 -82 -99
-132 -123 -102 -50 -317 -69 -862 -77 l-403 -6 0 -309 0 -308 2663 0 c1762 0
2709 4 2798 10 329 26 630 87 939 190 381 126 652 259 990 485 741 495 1319
1222 1670 2100 601 1504 415 3346 -475 4712 -308 471 -720 906 -1146 1209
-606 430 -1272 677 -1983 734 -84 6 -1054 10 -2792 10 l-2664 0 0 -308z m5180
-336 c372 -55 644 -138 955 -291 838 -412 1361 -1145 1569 -2200 80 -402 112
-792 122 -1455 20 -1294 -99 -2065 -416 -2701 -445 -892 -1305 -1444 -2384
-1529 -181 -15 -1896 -8 -1972 8 -140 29 -187 57 -220 135 -18 41 -19 169 -22
3922 -1 2728 1 3895 8 3932 20 96 74 150 174 172 115 26 248 29 1151 27 808
-2 934 -5 1035 -20z"/>
</g>
</svg>
