<?xml version="1.0" standalone="no"?>
<!DOCTYPE svg PUBLIC "-//W3C//DTD SVG 20010904//EN"
 "http://www.w3.org/TR/2001/REC-SVG-20010904/DTD/svg10.dtd">
<svg version="1.0" xmlns="http://www.w3.org/2000/svg"
 width="157.000000pt" height="992.000000pt" viewBox="0 0 157.000000 992.000000"
 preserveAspectRatio="xMidYMid meet">
<metadata>
Created by potrace 1.16, written by Peter Selinger 2001-2019
</metadata>
<g transform="translate(0.000000,992.000000) scale(0.100000,-0.100000)"
fill="#000000" stroke="none">
<path d="M630 9905 c-298 -63 -528 -282 -607 -575 -24 -89 -24 -291 0 -380 60
-223 209 -405 412 -506 129 -63 196 -79 345 -79 149 0 216 16 345 79 203 101
352 283 412 506 24 89 24 290 0 380 -25 94 -97 235 -160 311 -95 114 -254 215
-402 255 -83 22 -264 27 -345 9z"/>
<path d="M600 7222 c-29 -28 -40 -49 -44 -82 -16 -114 -556 -6354 -556 -6421
0 -99 29 -209 81 -312 61 -118 190 -245 315 -309 141 -73 223 -93 384 -93 161
0 243 20 384 93 125 64 254 191 315 309 53 105 81 213 81 317 -1 138 -556
6438 -570 6469 -27 56 -62 67 -215 67 l-137 0 -38 -38z"/>
</g>
</svg>
