<?xml version="1.0" standalone="no"?>
<!DOCTYPE svg PUBLIC "-//W3C//DTD SVG 20010904//EN"
 "http://www.w3.org/TR/2001/REC-SVG-20010904/DTD/svg10.dtd">
<svg version="1.0" xmlns="http://www.w3.org/2000/svg"
 width="766.000000pt" height="945.000000pt" viewBox="0 0 766.000000 945.000000"
 preserveAspectRatio="xMidYMid meet">
<metadata>
Created by potrace 1.16, written by Peter Selinger 2001-2019
</metadata>
<g transform="translate(0.000000,945.000000) scale(0.100000,-0.100000)"
fill="#000000" stroke="none">
<path d="M0 9193 l0 -260 373 -6 c717 -12 882 -44 981 -190 71 -105 66 51 64
-2102 l-3 -1939 -385 -319 c-212 -175 -499 -413 -637 -528 l-253 -209 166
-200 166 -200 47 39 c25 21 237 197 471 390 l425 352 3 -1573 c2 -1746 7
-1630 -64 -1735 -99 -146 -264 -178 -981 -190 l-373 -6 0 -259 0 -258 3634 0
3634 0 6 48 c4 26 87 828 186 1782 99 954 182 1756 186 1783 l6 47 -226 0
c-124 0 -226 -3 -226 -7 0 -33 -66 -583 -86 -718 -158 -1066 -466 -1645 -1079
-2030 -294 -185 -669 -307 -1115 -362 -129 -16 -237 -18 -975 -18 -857 0 -908
2 -1029 41 -61 20 -117 76 -142 140 -18 47 -19 118 -22 2234 l-2 2186 912 754
c501 415 1019 844 1150 953 l238 197 -166 200 -167 201 -21 -19 c-11 -11 -454
-377 -984 -815 l-962 -797 2 1403 3 1402 22 47 c30 65 102 139 166 172 140 70
567 105 1290 106 l297 0 0 261 0 262 -152 -7 c-979 -41 -3424 -41 -4250 0
l-128 7 0 -260z"/>
</g>
</svg>
