<?xml version="1.0" standalone="no"?>
<!DOCTYPE svg PUBLIC "-//W3C//DTD SVG 20010904//EN"
 "http://www.w3.org/TR/2001/REC-SVG-20010904/DTD/svg10.dtd">
<svg version="1.0" xmlns="http://www.w3.org/2000/svg"
 width="382.000000pt" height="495.000000pt" viewBox="0 0 382.000000 495.000000"
 preserveAspectRatio="xMidYMid meet">
<metadata>
Created by potrace 1.16, written by Peter Selinger 2001-2019
</metadata>
<g transform="translate(0.000000,495.000000) scale(0.100000,-0.100000)"
fill="#000000" stroke="none">
<path d="M650 4940 c-102 -12 -188 -38 -280 -83 -68 -33 -102 -58 -170 -127
-94 -93 -145 -180 -175 -299 -38 -151 -44 -88 214 -2311 133 -1141 244 -2085
246 -2097 l5 -23 255 0 c168 0 255 4 255 10 0 6 108 938 240 2072 162 1392
240 2095 240 2163 0 283 -140 507 -391 625 -126 58 -300 86 -439 70z"/>
<path d="M2973 4940 c-384 -41 -643 -322 -643 -695 0 -68 78 -771 240 -2163
132 -1134 240 -2066 240 -2072 0 -6 87 -10 255 -10 l255 0 5 23 c2 12 113 956
246 2097 258 2223 252 2160 214 2311 -30 119 -81 206 -175 299 -68 69 -102 94
-170 128 -138 68 -313 98 -467 82z"/>
</g>
</svg>
