<?xml version="1.0" standalone="no"?>
<!DOCTYPE svg PUBLIC "-//W3C//DTD SVG 20010904//EN"
 "http://www.w3.org/TR/2001/REC-SVG-20010904/DTD/svg10.dtd">
<svg version="1.0" xmlns="http://www.w3.org/2000/svg"
 width="776.000000pt" height="994.000000pt" viewBox="0 0 776.000000 994.000000"
 preserveAspectRatio="xMidYMid meet">
<metadata>
Created by potrace 1.16, written by Peter Selinger 2001-2019
</metadata>
<g transform="translate(0.000000,994.000000) scale(0.100000,-0.100000)"
fill="#000000" stroke="none">
<path d="M6690 9925 c-223 -50 -390 -178 -481 -370 -59 -123 -74 -191 -74
-335 0 -144 15 -212 74 -335 114 -240 355 -385 641 -385 202 0 417 87 529 216
l33 37 -7 -69 c-3 -38 -15 -123 -25 -189 -85 -538 -406 -1033 -865 -1335 -169
-112 -166 -109 -181 -147 -22 -52 -9 -99 45 -156 49 -53 92 -77 138 -77 71 0
366 213 548 395 297 296 506 664 610 1070 56 219 69 326 70 555 0 179 -3 218
-23 309 -58 258 -163 455 -324 607 -98 91 -184 143 -308 185 -81 27 -112 32
-215 35 -80 3 -142 -1 -185 -11z"/>
<path d="M4545 9294 c-511 -40 -936 -73 -942 -73 -10 -1 -13 -53 -13 -224 l0
-224 218 -6 c562 -15 720 -90 790 -375 15 -60 17 -221 19 -1610 l4 -1543 -113
114 c-344 349 -752 562 -1228 642 -214 36 -555 29 -818 -16 -475 -82 -960
-301 -1337 -604 -599 -481 -993 -1186 -1100 -1966 -9 -63 -18 -199 -22 -304
-44 -1381 797 -2613 2042 -2991 230 -70 421 -102 665 -111 390 -13 741 61
1085 230 276 136 529 327 716 539 l69 78 0 -426 0 -426 63 6 c34 3 454 35 932
71 479 36 898 68 933 71 l62 6 0 223 0 222 -217 6 c-563 15 -720 90 -791 375
-15 62 -17 394 -19 4230 l-3 4162 -33 -1 c-17 -1 -450 -34 -962 -75z m-1350
-3624 c371 -43 697 -194 969 -450 148 -139 310 -348 387 -501 l29 -58 0 -1582
0 -1582 -55 -103 c-258 -489 -699 -859 -1178 -988 -176 -48 -270 -60 -467 -60
-153 0 -203 4 -287 22 -376 81 -718 306 -964 633 -169 224 -305 527 -373 830
-77 347 -100 602 -100 1149 -1 522 19 766 90 1105 137 650 511 1161 1039 1420
288 142 607 199 910 165z"/>
</g>
</svg>
