<?xml version="1.0" standalone="no"?>
<!DOCTYPE svg PUBLIC "-//W3C//DTD SVG 20010904//EN"
 "http://www.w3.org/TR/2001/REC-SVG-20010904/DTD/svg10.dtd">
<svg version="1.0" xmlns="http://www.w3.org/2000/svg"
 width="516.000000pt" height="610.000000pt" viewBox="0 0 516.000000 610.000000"
 preserveAspectRatio="xMidYMid meet">
<metadata>
Created by potrace 1.16, written by Peter Selinger 2001-2019
</metadata>
<g transform="translate(0.000000,610.000000) scale(0.100000,-0.100000)"
fill="#000000" stroke="none">
<path d="M2525 6090 c-635 -67 -1219 -358 -1669 -831 -325 -342 -575 -774
-716 -1240 -169 -560 -185 -1182 -43 -1734 143 -559 414 -1036 814 -1435 463
-461 1035 -741 1699 -832 148 -20 530 -17 665 6 491 81 899 284 1239 615 200
196 336 377 450 599 103 202 192 463 183 534 -11 84 -74 128 -182 128 -119 0
-158 -32 -195 -164 -109 -390 -363 -763 -684 -1002 -880 -657 -2080 -365
-2615 637 -206 388 -302 854 -318 1552 l-6 287 1942 0 c2152 0 1984 -5 2034
64 29 40 34 152 18 396 -91 1375 -784 2221 -1967 2400 -156 24 -512 35 -649
20z m473 -354 c463 -101 797 -409 1001 -925 128 -324 190 -654 217 -1158 l6
-123 -1532 0 -1531 0 6 83 c30 399 92 735 181 974 240 651 697 1076 1249 1163
84 13 316 5 403 -14z"/>
</g>
</svg>
