<?xml version="1.0" standalone="no"?>
<!DOCTYPE svg PUBLIC "-//W3C//DTD SVG 20010904//EN"
 "http://www.w3.org/TR/2001/REC-SVG-20010904/DTD/svg10.dtd">
<svg version="1.0" xmlns="http://www.w3.org/2000/svg"
 width="604.000000pt" height="904.000000pt" viewBox="0 0 604.000000 904.000000"
 preserveAspectRatio="xMidYMid meet">
<metadata>
Created by potrace 1.16, written by Peter Selinger 2001-2019
</metadata>
<g transform="translate(0.000000,904.000000) scale(0.100000,-0.100000)"
fill="#000000" stroke="none">
<path d="M1810 9021 c-149 -32 -318 -114 -469 -228 -123 -92 -279 -251 -504
-513 -116 -135 -221 -257 -234 -271 l-24 -26 127 -110 128 -110 146 147 c225
229 426 363 636 426 120 36 312 44 435 20 181 -37 332 -101 639 -271 258 -143
434 -229 548 -265 282 -91 513 -76 767 50 227 113 397 266 746 672 l239 277
-127 110 -127 109 -131 -133 c-146 -149 -222 -214 -343 -292 -182 -120 -335
-172 -527 -180 -260 -11 -424 46 -939 330 -375 206 -543 266 -771 273 -101 3
-149 0 -215 -15z"/>
<path d="M2130 6089 c-537 -54 -982 -219 -1300 -485 -279 -231 -440 -563 -440
-904 0 -114 22 -208 70 -309 175 -364 712 -445 1010 -152 284 280 221 805
-121 994 -71 39 -172 73 -251 83 l-52 7 39 34 c152 131 402 252 660 318 278
71 641 102 840 72 280 -43 517 -167 730 -381 223 -224 375 -519 436 -847 19
-99 22 -163 26 -496 l5 -383 -34 0 c-168 0 -690 -40 -923 -70 -839 -109 -1588
-370 -2041 -711 -410 -308 -662 -682 -754 -1116 -27 -125 -36 -340 -21 -456
90 -670 723 -1137 1712 -1262 176 -22 490 -30 624 -16 462 50 888 257 1201
583 132 137 258 316 324 457 l24 53 13 -84 c54 -371 276 -699 575 -849 259
-130 582 -130 873 1 170 76 368 243 474 398 93 138 167 330 190 496 7 46 11
267 11 547 l0 469 -184 0 -185 0 -4 -513 c-4 -555 -5 -568 -63 -713 -108 -274
-337 -388 -559 -279 -94 45 -177 146 -229 279 -64 159 -60 39 -66 1876 l-6
1675 -22 95 c-173 743 -761 1297 -1608 1515 -217 56 -377 76 -644 80 -129 2
-278 -1 -330 -6z m1650 -3511 c0 -872 -5 -932 -85 -1174 -164 -493 -584 -889
-1077 -1014 -483 -124 -925 -12 -1234 313 -150 158 -238 320 -281 517 -26 125
-24 358 5 507 92 465 384 863 820 1120 425 250 942 398 1602 458 80 7 169 13
198 14 l52 1 0 -742z"/>
</g>
</svg>
