<?xml version="1.0" standalone="no"?>
<!DOCTYPE svg PUBLIC "-//W3C//DTD SVG 20010904//EN"
 "http://www.w3.org/TR/2001/REC-SVG-20010904/DTD/svg10.dtd">
<svg version="1.0" xmlns="http://www.w3.org/2000/svg"
 width="948.000000pt" height="1291.000000pt" viewBox="0 0 948.000000 1291.000000"
 preserveAspectRatio="xMidYMid meet">
<metadata>
Created by potrace 1.16, written by Peter Selinger 2001-2019
</metadata>
<g transform="translate(0.000000,1291.000000) scale(0.100000,-0.100000)"
fill="#000000" stroke="none">
<path d="M4556 12900 c-47 -14 -101 -58 -125 -100 -12 -21 -672 -1942 -1467
-4267 -795 -2325 -1460 -4262 -1477 -4302 -87 -211 -284 -414 -512 -529 -202
-101 -492 -164 -816 -178 l-159 -7 0 -260 0 -259 83 6 c539 41 2209 41 2900 0
l107 -7 0 262 0 261 -55 0 c-30 0 -101 5 -157 11 -407 44 -725 239 -808 498
-18 56 -21 87 -18 158 4 85 13 116 301 955 163 476 300 873 303 882 6 15 157
16 1673 16 l1666 0 365 -1068 c383 -1121 383 -1120 348 -1187 -21 -39 -73 -92
-121 -122 -135 -85 -486 -143 -869 -143 l-148 0 0 -261 0 -261 133 6 c197 9
844 24 1332 31 l430 6 -45 -38 c-254 -216 -399 -359 -543 -538 -214 -266 -360
-554 -419 -828 -27 -125 -31 -389 -9 -502 81 -409 359 -761 756 -959 216 -108
426 -162 665 -173 343 -14 669 83 936 280 100 74 259 238 334 345 115 164 214
370 270 563 18 63 20 81 11 116 -21 78 -111 132 -200 120 -68 -9 -89 -31 -152
-165 -131 -278 -290 -450 -503 -547 -557 -252 -1301 126 -1467 745 -33 120
-33 336 -2 462 62 246 190 460 410 688 133 138 232 224 397 344 l118 86 252
-5 c508 -11 994 -25 1094 -31 l102 -7 0 260 0 260 -332 6 c-342 7 -476 16
-633 42 -185 31 -308 121 -385 279 -22 45 -712 2049 -1549 4499 -831 2430
-1520 4436 -1532 4458 -25 43 -78 85 -130 99 -41 12 -313 12 -353 0z m523
-4184 c402 -1176 731 -2142 731 -2147 0 -5 -622 -9 -1486 -9 -1185 0 -1485 3
-1481 13 2 6 337 985 743 2174 668 1955 740 2160 750 2135 7 -15 341 -989 743
-2166z"/>
</g>
</svg>
