<?xml version="1.0" standalone="no"?>
<!DOCTYPE svg PUBLIC "-//W3C//DTD SVG 20010904//EN"
 "http://www.w3.org/TR/2001/REC-SVG-20010904/DTD/svg10.dtd">
<svg version="1.0" xmlns="http://www.w3.org/2000/svg"
 width="470.000000pt" height="898.000000pt" viewBox="0 0 470.000000 898.000000"
 preserveAspectRatio="xMidYMid meet">
<metadata>
Created by potrace 1.16, written by Peter Selinger 2001-2019
</metadata>
<g transform="translate(0.000000,898.000000) scale(0.100000,-0.100000)"
fill="#000000" stroke="none">
<path d="M624 8844 c-66 -75 -120 -139 -121 -142 -1 -4 461 -473 1027 -1042
l1028 -1035 62 60 c34 33 498 500 1032 1037 l970 978 -85 97 c-47 54 -102 117
-123 140 l-39 42 -907 -659 -908 -660 -877 637 c-483 350 -892 647 -909 660
l-32 24 -118 -137z"/>
<path d="M985 6034 c-528 -40 -966 -73 -972 -73 -10 -1 -13 -60 -13 -261 l0
-260 138 0 c186 0 396 -17 517 -41 237 -48 342 -144 393 -361 16 -68 17 -225
17 -2153 l0 -2080 -24 -59 c-33 -84 -92 -139 -173 -164 -126 -39 -374 -61
-690 -62 l-178 0 0 -261 0 -261 93 6 c603 41 2532 41 3230 0 l107 -7 0 260 0
260 -347 6 c-470 9 -692 30 -804 78 -60 26 -122 92 -157 167 l-27 57 0 1350
c0 1476 -1 1441 61 1812 132 795 460 1365 919 1595 136 69 337 118 483 118
l54 0 -52 -57 c-98 -109 -160 -282 -160 -440 1 -369 276 -643 645 -643 428 0
718 367 629 798 -73 354 -354 610 -794 720 -96 24 -122 26 -300 26 -163 0
-211 -4 -293 -22 -296 -65 -531 -191 -745 -397 -121 -116 -201 -212 -290 -349
-65 -99 -165 -287 -215 -401 l-26 -60 0 618 -1 617 -32 -1 c-18 -1 -465 -34
-993 -75z"/>
</g>
</svg>
