<?xml version="1.0" standalone="no"?>
<!DOCTYPE svg PUBLIC "-//W3C//DTD SVG 20010904//EN"
 "http://www.w3.org/TR/2001/REC-SVG-20010904/DTD/svg10.dtd">
<svg version="1.0" xmlns="http://www.w3.org/2000/svg"
 width="478.000000pt" height="1328.000000pt" viewBox="0 0 478.000000 1328.000000"
 preserveAspectRatio="xMidYMid meet">
<metadata>
Created by potrace 1.16, written by Peter Selinger 2001-2019
</metadata>
<g transform="translate(0.000000,1328.000000) scale(0.100000,-0.100000)"
fill="#000000" stroke="none">
<path d="M4280 13273 c-248 -15 -505 -54 -745 -113 -820 -200 -1363 -611
-1549 -1171 -76 -229 -69 -48 -76 -2064 -6 -1795 -6 -1811 -27 -1900 -65 -278
-192 -497 -412 -707 -183 -175 -408 -310 -666 -397 -190 -64 -461 -111 -642
-111 -119 0 -163 -45 -163 -170 0 -125 44 -170 163 -170 181 0 452 -47 642
-111 258 -87 483 -222 666 -397 220 -210 347 -429 412 -707 21 -89 21 -105 27
-1900 7 -2016 0 -1835 76 -2064 163 -490 600 -868 1264 -1090 362 -122 748
-186 1190 -198 252 -7 272 -3 310 60 28 45 28 169 0 214 -30 49 -61 60 -202
66 -642 31 -1183 303 -1475 740 -93 138 -136 243 -185 445 -8 34 -13 553 -18
1852 l-6 1805 -22 97 c-109 476 -413 843 -922 1112 -133 70 -368 164 -516 207
-62 18 -114 36 -114 39 0 3 52 21 114 39 148 43 383 137 516 207 219 116 386
240 541 402 194 201 317 432 381 710 l22 97 6 1805 c5 1299 10 1818 18 1852
49 202 92 307 185 445 292 437 833 709 1475 740 78 3 138 11 155 20 48 24 67
68 67 153 0 57 -5 83 -20 107 -34 57 -59 63 -247 61 -92 -1 -193 -3 -223 -5z"/>
</g>
</svg>
