<?xml version="1.0" standalone="no"?>
<!DOCTYPE svg PUBLIC "-//W3C//DTD SVG 20010904//EN"
 "http://www.w3.org/TR/2001/REC-SVG-20010904/DTD/svg10.dtd">
<svg version="1.0" xmlns="http://www.w3.org/2000/svg"
 width="512.000000pt" height="1384.000000pt" viewBox="0 0 512.000000 1384.000000"
 preserveAspectRatio="xMidYMid meet">
<metadata>
Created by potrace 1.16, written by Peter Selinger 2001-2019
</metadata>
<g transform="translate(0.000000,1384.000000) scale(0.100000,-0.100000)"
fill="#000000" stroke="none">
<path d="M4460 13833 c-493 -33 -891 -116 -1254 -259 -622 -246 -1021 -627
-1166 -1114 -57 -192 -53 -56 -60 -2075 l-6 -1860 -22 -97 c-85 -372 -307
-683 -652 -913 -302 -201 -661 -315 -1057 -334 -166 -8 -188 -15 -223 -74 -18
-28 -20 -51 -20 -187 0 -136 2 -159 20 -187 35 -59 57 -66 223 -74 396 -19
755 -133 1057 -334 345 -230 567 -541 652 -913 l22 -97 6 -1860 c7 -2019 3
-1883 60 -2075 218 -731 1016 -1224 2199 -1356 77 -9 273 -18 451 -20 297 -5
317 -4 349 13 61 34 71 67 71 238 0 126 -3 156 -18 184 -27 50 -73 71 -157 71
-38 0 -122 5 -185 10 -544 49 -990 231 -1285 525 -148 147 -240 302 -293 495
l-27 95 -5 1855 -6 1855 -23 100 c-50 221 -119 386 -238 564 -83 125 -246 302
-373 404 -238 192 -626 386 -959 479 -45 13 -81 25 -81 28 0 3 36 15 81 28
333 93 721 287 959 479 127 102 290 279 373 404 119 178 188 343 238 564 l23
100 6 1855 5 1855 27 95 c53 193 145 348 293 495 295 294 741 476 1285 525 63
5 147 10 185 10 84 0 130 21 157 71 27 50 27 318 0 368 -36 67 -56 71 -337 69
-137 -1 -270 -3 -295 -5z"/>
</g>
</svg>
