<?xml version="1.0" standalone="no"?>
<!DOCTYPE svg PUBLIC "-//W3C//DTD SVG 20010904//EN"
 "http://www.w3.org/TR/2001/REC-SVG-20010904/DTD/svg10.dtd">
<svg version="1.0" xmlns="http://www.w3.org/2000/svg"
 width="499.000000pt" height="976.000000pt" viewBox="0 0 499.000000 976.000000"
 preserveAspectRatio="xMidYMid meet">
<metadata>
Created by potrace 1.16, written by Peter Selinger 2001-2019
</metadata>
<g transform="translate(0.000000,976.000000) scale(0.100000,-0.100000)"
fill="#000000" stroke="none">
<path d="M2180 9754 c-211 -41 -400 -149 -520 -297 -64 -79 -133 -211 -162
-313 -33 -113 -33 -315 0 -428 66 -230 215 -413 423 -521 135 -70 219 -90 379
-90 160 0 244 20 379 90 161 83 273 195 356 356 70 135 90 219 90 379 0 160
-20 244 -90 379 -107 206 -290 356 -515 421 -74 21 -279 36 -340 24z"/>
<path d="M2103 7015 c-18 -8 -41 -28 -51 -44 -17 -29 -19 -67 -25 -499 -8
-555 -21 -705 -88 -1012 -119 -547 -376 -1081 -739 -1535 -169 -212 -332 -378
-575 -587 -206 -176 -316 -318 -431 -552 -356 -724 -210 -1689 334 -2208 316
-301 752 -486 1312 -555 182 -22 682 -25 865 -5 691 77 1294 313 1699 668 292
255 485 586 552 949 26 141 26 394 0 485 -73 253 -249 429 -501 502 -114 33
-306 33 -420 0 -312 -90 -504 -334 -522 -663 -6 -114 4 -196 38 -300 74 -230
287 -414 532 -461 37 -7 67 -15 67 -19 0 -13 -159 -159 -230 -211 -306 -224
-692 -364 -1183 -430 -217 -29 -584 -31 -727 -5 -224 41 -367 112 -484 238
-83 89 -112 167 -141 371 -39 278 -45 932 -11 1168 42 296 111 483 251 685
508 734 816 1602 920 2595 20 192 37 749 33 1082 -3 251 -4 268 -24 295 -40
55 -72 63 -254 63 -119 -1 -174 -5 -197 -15z"/>
</g>
</svg>
