<?xml version="1.0" standalone="no"?>
<!DOCTYPE svg PUBLIC "-//W3C//DTD SVG 20010904//EN"
 "http://www.w3.org/TR/2001/REC-SVG-20010904/DTD/svg10.dtd">
<svg version="1.0" xmlns="http://www.w3.org/2000/svg"
 width="615.000000pt" height="1007.000000pt" viewBox="0 0 615.000000 1007.000000"
 preserveAspectRatio="xMidYMid meet">
<metadata>
Created by potrace 1.16, written by Peter Selinger 2001-2019
</metadata>
<g transform="translate(0.000000,1007.000000) scale(0.100000,-0.100000)"
fill="#000000" stroke="none">
<path d="M2485 10064 c-16 -2 -73 -9 -125 -15 -363 -41 -819 -210 -1136 -421
-633 -423 -1058 -1084 -1188 -1849 -40 -235 -45 -595 -12 -824 73 -494 264
-947 564 -1335 90 -116 306 -335 427 -433 258 -209 578 -379 890 -476 55 -17
514 -132 1020 -256 506 -125 953 -238 994 -252 519 -178 917 -638 1065 -1232
78 -310 85 -627 21 -947 -142 -708 -659 -1258 -1295 -1379 -236 -45 -703 -21
-1070 55 -962 200 -1645 769 -1933 1610 -90 264 -141 552 -154 878 -10 255
-18 262 -278 262 -190 0 -215 -7 -255 -72 -20 -33 -20 -54 -20 -1653 0 -1550
1 -1622 18 -1654 29 -53 72 -71 172 -71 66 0 92 4 116 19 20 12 135 168 330
448 l299 430 70 -64 c396 -365 980 -640 1605 -757 395 -75 904 -97 1195 -52
431 67 821 233 1185 504 130 98 392 353 494 482 559 710 777 1657 590 2568
-93 456 -299 903 -584 1272 -89 115 -325 353 -435 440 -241 190 -502 333 -782
431 -65 22 -536 144 -1048 270 -511 126 -968 240 -1015 254 -133 41 -330 143
-451 234 -352 265 -577 645 -650 1096 -20 118 -17 418 4 535 69 379 211 653
472 915 330 330 725 481 1210 461 519 -21 940 -154 1298 -410 357 -255 636
-622 827 -1086 135 -329 217 -660 273 -1101 16 -125 30 -194 41 -211 33 -50
68 -58 253 -58 190 0 221 9 255 71 17 32 18 104 18 1654 0 1550 -1 1622 -18
1654 -29 53 -72 71 -172 71 -65 0 -92 -4 -116 -19 -20 -12 -132 -164 -318
-432 -159 -228 -292 -418 -297 -423 -5 -5 -61 42 -133 111 -210 204 -410 342
-681 474 -285 138 -568 221 -909 265 -114 14 -564 28 -631 18z"/>
</g>
</svg>
