<?xml version="1.0" standalone="no"?>
<!DOCTYPE svg PUBLIC "-//W3C//DTD SVG 20010904//EN"
 "http://www.w3.org/TR/2001/REC-SVG-20010904/DTD/svg10.dtd">
<svg version="1.0" xmlns="http://www.w3.org/2000/svg"
 width="659.000000pt" height="937.000000pt" viewBox="0 0 659.000000 937.000000"
 preserveAspectRatio="xMidYMid meet">
<metadata>
Created by potrace 1.16, written by Peter Selinger 2001-2019
</metadata>
<g transform="translate(0.000000,937.000000) scale(0.100000,-0.100000)"
fill="#000000" stroke="none">
<path d="M4555 9294 c-511 -40 -936 -73 -942 -73 -10 -1 -13 -53 -13 -224 l0
-224 218 -6 c487 -13 662 -73 747 -254 51 -107 57 -160 62 -540 l5 -353 -1416
0 -1416 0 0 -225 0 -225 1415 0 1415 0 0 -966 0 -966 -107 109 c-192 195 -379
331 -618 448 -340 167 -660 235 -1050 222 -1082 -37 -2053 -669 -2535 -1652
-131 -267 -206 -484 -260 -755 -46 -231 -55 -332 -54 -615 0 -279 12 -398 60
-635 163 -794 616 -1476 1269 -1912 151 -101 441 -244 610 -301 269 -91 503
-135 775 -144 380 -13 730 60 1063 220 285 137 561 346 760 576 l47 53 0 -427
0 -427 63 6 c34 3 454 35 932 71 479 35 898 67 933 71 l62 6 0 222 0 223 -217
6 c-563 15 -720 90 -791 375 -15 61 -17 321 -19 3130 l-3 3062 440 0 440 0 0
225 0 225 -440 0 -440 0 0 875 0 875 -32 -1 c-18 -1 -451 -34 -963 -75z
m-1357 -3625 c205 -22 378 -72 555 -159 321 -159 596 -423 786 -755 l51 -89 0
-1583 0 -1583 -36 -72 c-122 -242 -319 -491 -525 -663 -243 -203 -537 -342
-838 -397 -159 -29 -434 -31 -571 -4 -420 82 -793 339 -1053 726 -225 336
-345 739 -399 1340 -20 226 -17 949 6 1170 41 413 110 700 235 980 325 730
1049 1171 1789 1089z"/>
</g>
</svg>
