<?xml version="1.0" standalone="no"?>
<!DOCTYPE svg PUBLIC "-//W3C//DTD SVG 20010904//EN"
 "http://www.w3.org/TR/2001/REC-SVG-20010904/DTD/svg10.dtd">
<svg version="1.0" xmlns="http://www.w3.org/2000/svg"
 width="695.000000pt" height="976.000000pt" viewBox="0 0 695.000000 976.000000"
 preserveAspectRatio="xMidYMid meet">
<metadata>
Created by potrace 1.16, written by Peter Selinger 2001-2019
</metadata>
<g transform="translate(0.000000,976.000000) scale(0.100000,-0.100000)"
fill="#000000" stroke="none">
<path d="M4745 9684 c-577 -40 -1058 -73 -1067 -73 -17 -1 -18 -23 -18 -311
l0 -310 143 0 c190 0 400 -17 522 -41 235 -47 340 -143 392 -356 16 -62 17
-206 20 -1535 2 -808 1 -1468 -2 -1468 -3 0 -38 27 -78 61 -154 130 -426 294
-637 384 -210 90 -459 160 -695 197 -193 30 -578 32 -770 4 -488 -70 -958
-271 -1365 -584 -106 -82 -404 -379 -494 -492 -589 -745 -820 -1736 -630
-2710 102 -521 325 -1007 652 -1420 93 -117 328 -353 442 -444 375 -297 810
-490 1265 -561 144 -22 424 -30 584 -16 355 32 687 125 1007 282 210 103 462
273 608 410 35 32 66 59 70 59 3 0 6 -171 6 -381 l0 -381 73 7 c57 4 2147 145
2163 145 2 0 4 139 4 310 l0 310 -142 0 c-191 0 -401 17 -523 41 -235 47 -340
142 -393 356 -15 63 -17 366 -19 4331 l-3 4262 -33 -1 c-17 -1 -504 -34 -1082
-75z m-1414 -3945 c534 -54 1021 -350 1327 -806 l42 -62 0 -1652 0 -1651 -50
-82 c-160 -266 -396 -512 -650 -679 -105 -69 -316 -169 -435 -207 -353 -112
-726 -117 -1030 -15 -553 184 -944 652 -1090 1300 -30 137 -59 334 -77 535
-18 198 -18 1151 0 1350 49 549 157 914 362 1221 352 529 962 814 1601 748z"/>
</g>
</svg>
