<?xml version="1.0" standalone="no"?>
<!DOCTYPE svg PUBLIC "-//W3C//DTD SVG 20010904//EN"
 "http://www.w3.org/TR/2001/REC-SVG-20010904/DTD/svg10.dtd">
<svg version="1.0" xmlns="http://www.w3.org/2000/svg"
 width="339.000000pt" height="854.000000pt" viewBox="0 0 339.000000 854.000000"
 preserveAspectRatio="xMidYMid meet">
<metadata>
Created by potrace 1.16, written by Peter Selinger 2001-2019
</metadata>
<g transform="translate(0.000000,854.000000) scale(0.100000,-0.100000)"
fill="#000000" stroke="none">
<path d="M370 8522 c-112 -38 -195 -99 -264 -195 -160 -224 -130 -496 73 -650
25 -19 491 -288 1036 -597 545 -309 1000 -568 1012 -576 20 -13 25 -8 109 104
48 64 98 131 111 148 l23 31 -702 689 c-1060 1039 -993 975 -1082 1020 -71 35
-87 38 -170 41 -68 2 -105 -2 -146 -15z"/>
<path d="M1485 5794 c-501 -40 -916 -73 -922 -73 -10 -1 -13 -53 -13 -224 l0
-224 213 -6 c520 -16 663 -84 740 -355 l22 -77 3 -2000 c2 -1432 0 -2018 -8
-2065 -22 -127 -78 -210 -170 -249 -100 -43 -366 -71 -682 -71 l-168 0 0 -226
0 -226 92 6 c586 39 2146 39 2701 0 l87 -7 0 225 0 225 -237 6 c-492 14 -600
51 -669 232 -18 49 -19 118 -22 2618 l-2 2567 -28 -1 c-15 -1 -436 -34 -937
-75z"/>
</g>
</svg>
