<?xml version="1.0" standalone="no"?>
<!DOCTYPE svg PUBLIC "-//W3C//DTD SVG 20010904//EN"
 "http://www.w3.org/TR/2001/REC-SVG-20010904/DTD/svg10.dtd">
<svg version="1.0" xmlns="http://www.w3.org/2000/svg"
 width="176.000000pt" height="425.000000pt" viewBox="0 0 176.000000 425.000000"
 preserveAspectRatio="xMidYMid meet">
<metadata>
Created by potrace 1.16, written by Peter Selinger 2001-2019
</metadata>
<g transform="translate(0.000000,425.000000) scale(0.100000,-0.100000)"
fill="#000000" stroke="none">
<path d="M1243 4234 c-41 -20 -326 -312 -425 -434 -179 -223 -315 -439 -448
-712 -262 -539 -385 -1106 -367 -1683 17 -507 150 -902 391 -1154 170 -178
377 -260 620 -248 196 10 361 76 490 197 327 307 327 853 0 1160 -81 76 -193
138 -310 172 -114 33 -334 33 -448 0 -103 -30 -223 -93 -286 -149 l-50 -45 0
135 c0 895 342 1713 980 2344 71 71 134 141 140 158 21 54 4 93 -73 173 -102
105 -142 121 -214 86z"/>
</g>
</svg>
