<?xml version="1.0" standalone="no"?>
<!DOCTYPE svg PUBLIC "-//W3C//DTD SVG 20010904//EN"
 "http://www.w3.org/TR/2001/REC-SVG-20010904/DTD/svg10.dtd">
<svg version="1.0" xmlns="http://www.w3.org/2000/svg"
 width="976.000000pt" height="976.000000pt" viewBox="0 0 976.000000 976.000000"
 preserveAspectRatio="xMidYMid meet">
<metadata>
Created by potrace 1.16, written by Peter Selinger 2001-2019
</metadata>
<g transform="translate(0.000000,976.000000) scale(0.100000,-0.100000)"
fill="#000000" stroke="none">
<path d="M0 9452 l0 -309 403 -6 c545 -8 760 -27 862 -77 50 -24 108 -78 132
-123 17 -30 18 -234 18 -3902 0 -3668 -1 -3872 -18 -3902 -24 -45 -82 -99
-132 -123 -102 -50 -317 -69 -862 -77 l-403 -6 0 -310 0 -310 128 7 c819 41
3155 41 3975 0 l127 -7 0 310 0 310 -402 6 c-546 8 -761 27 -863 77 -50 24
-108 78 -132 123 -17 30 -18 139 -21 1840 l-2 1807 844 0 c931 0 980 -3 1177
-61 488 -144 891 -556 1033 -1056 59 -207 58 -190 66 -1088 6 -719 9 -843 24
-925 63 -354 170 -597 373 -847 409 -505 1166 -795 2083 -797 247 -1 258 0
355 27 342 93 619 341 796 711 114 238 189 566 189 821 0 64 -5 88 -23 119
-38 67 -68 76 -252 76 -137 0 -165 -3 -195 -19 -52 -27 -80 -83 -80 -159 0
-34 -5 -106 -11 -160 -50 -458 -245 -789 -520 -883 -126 -42 -342 -32 -473 23
-253 107 -415 360 -530 831 -50 201 -70 320 -201 1157 -64 410 -125 783 -136
830 -125 544 -466 1020 -974 1360 -110 74 -284 172 -385 217 l-65 29 115 38
c981 322 1715 949 1954 1667 61 186 80 307 81 524 0 316 -58 555 -208 850
-114 225 -254 413 -456 615 -521 519 -1267 872 -2142 1015 -382 62 -236 59
-2856 62 l-2393 4 0 -309z m4760 -336 c386 -46 650 -118 900 -247 595 -307
800 -772 777 -1764 -7 -278 -16 -381 -53 -565 -81 -403 -247 -660 -562 -871
-262 -176 -606 -294 -997 -344 -232 -29 -427 -35 -1217 -35 l-798 0 0 1800 c0
1245 3 1814 11 1849 20 95 74 148 173 170 114 25 243 29 931 26 564 -2 726 -6
835 -19z"/>
</g>
</svg>
