<?xml version="1.0" standalone="no"?>
<!DOCTYPE svg PUBLIC "-//W3C//DTD SVG 20010904//EN"
 "http://www.w3.org/TR/2001/REC-SVG-20010904/DTD/svg10.dtd">
<svg version="1.0" xmlns="http://www.w3.org/2000/svg"
 width="825.000000pt" height="1191.000000pt" viewBox="0 0 825.000000 1191.000000"
 preserveAspectRatio="xMidYMid meet">
<metadata>
Created by potrace 1.16, written by Peter Selinger 2001-2019
</metadata>
<g transform="translate(0.000000,1191.000000) scale(0.100000,-0.100000)"
fill="#000000" stroke="none">
<path d="M0 11687 l0 -224 343 -6 c619 -11 822 -45 915 -152 42 -47 77 -118
91 -183 16 -76 16 -7378 0 -7454 -14 -65 -49 -136 -91 -183 -93 -107 -296
-141 -915 -152 l-343 -6 0 -224 0 -223 2955 -2 2956 -3 -78 -65 c-109 -91
-345 -329 -426 -430 -491 -611 -570 -1234 -224 -1753 197 -295 552 -521 940
-599 149 -30 416 -32 552 -5 208 42 403 126 566 244 109 78 272 249 352 369
130 196 265 524 251 609 -9 52 -66 111 -117 120 -95 18 -154 -24 -201 -143
-15 -39 -49 -108 -76 -152 -107 -178 -231 -296 -393 -375 -145 -69 -196 -80
-387 -80 -149 0 -175 3 -265 28 -325 90 -599 310 -735 592 -103 211 -122 417
-60 660 27 107 134 318 217 430 123 165 330 362 533 508 l64 47 632 0 632 0 6
27 c3 16 125 782 271 1703 146 921 268 1687 271 1703 l6 27 -186 0 -185 0 -6
-32 c-3 -18 -24 -143 -46 -278 -173 -1050 -376 -1631 -704 -2013 -289 -337
-781 -565 -1390 -641 -307 -39 -392 -41 -1610 -41 -1112 0 -1196 1 -1274 18
-163 35 -224 92 -250 232 -8 41 -11 612 -11 1907 l0 1848 658 0 c656 0 868 -7
1057 -36 293 -43 518 -150 640 -302 168 -211 245 -543 245 -1059 l0 -153 185
0 185 0 0 1775 0 1775 -185 0 -185 0 0 -152 c0 -517 -77 -849 -245 -1060 -122
-152 -347 -259 -640 -302 -189 -29 -401 -36 -1057 -36 l-658 0 0 1678 c0 1172
3 1696 11 1737 25 137 85 194 239 231 69 16 163 18 1105 22 1048 3 1357 -3
1640 -34 595 -65 1006 -233 1274 -519 324 -347 500 -848 616 -1750 14 -110 28
-217 31 -237 l6 -38 185 0 185 0 -6 38 c-3 20 -85 685 -181 1477 -96 792 -178
1457 -181 1478 l-6 37 -3749 0 -3749 0 0 -223z"/>
</g>
</svg>
