<?xml version="1.0" standalone="no"?>
<!DOCTYPE svg PUBLIC "-//W3C//DTD SVG 20010904//EN"
 "http://www.w3.org/TR/2001/REC-SVG-20010904/DTD/svg10.dtd">
<svg version="1.0" xmlns="http://www.w3.org/2000/svg"
 width="743.000000pt" height="945.000000pt" viewBox="0 0 743.000000 945.000000"
 preserveAspectRatio="xMidYMid meet">
<metadata>
Created by potrace 1.16, written by Peter Selinger 2001-2019
</metadata>
<g transform="translate(0.000000,945.000000) scale(0.100000,-0.100000)"
fill="#000000" stroke="none">
<path d="M0 9193 l0 -260 373 -6 c717 -12 882 -44 981 -190 72 -107 66 262 66
-4012 0 -4274 6 -3905 -66 -4012 -99 -146 -264 -178 -981 -190 l-373 -6 0
-260 0 -260 128 7 c817 41 3017 41 3835 0 l127 -7 0 260 0 260 -372 6 c-718
12 -883 44 -982 190 -68 101 -66 74 -66 953 l0 793 1093 4 c1077 3 1094 3
1232 25 658 107 1198 366 1632 786 233 225 405 458 538 731 121 247 191 469
231 730 25 164 25 513 0 672 -105 674 -454 1247 -1022 1680 -341 259 -778 453
-1216 538 -297 58 -287 58 -1430 62 l-1058 4 0 443 c0 493 2 507 66 603 99
146 264 178 982 190 l372 6 0 260 0 260 -127 -7 c-401 -20 -1042 -30 -1918
-30 -876 0 -1517 10 -1917 30 l-128 7 0 -260z m4594 -2052 c262 -59 485 -183
695 -386 344 -333 563 -803 632 -1360 17 -133 17 -504 0 -625 -57 -418 -196
-771 -424 -1076 -291 -391 -700 -643 -1140 -703 -50 -7 -368 -11 -883 -11
l-804 0 0 2096 0 2095 913 -4 c902 -3 913 -4 1011 -26z"/>
</g>
</svg>
