<?xml version="1.0" standalone="no"?>
<!DOCTYPE svg PUBLIC "-//W3C//DTD SVG 20010904//EN"
 "http://www.w3.org/TR/2001/REC-SVG-20010904/DTD/svg10.dtd">
<svg version="1.0" xmlns="http://www.w3.org/2000/svg"
 width="1091.000000pt" height="976.000000pt" viewBox="0 0 1091.000000 976.000000"
 preserveAspectRatio="xMidYMid meet">
<metadata>
Created by potrace 1.16, written by Peter Selinger 2001-2019
</metadata>
<g transform="translate(0.000000,976.000000) scale(0.100000,-0.100000)"
fill="#000000" stroke="none">
<path d="M0 9501 l0 -261 248 0 c415 -1 772 -22 942 -56 133 -28 215 -89 269
-203 l26 -56 0 -3890 0 -3890 -26 -56 c-54 -114 -136 -175 -269 -203 -170 -34
-527 -55 -942 -56 l-248 0 0 -261 0 -262 128 7 c821 41 3233 41 4055 0 l127
-7 0 262 0 261 -247 0 c-416 1 -773 22 -943 56 -133 28 -215 89 -269 203 l-26
56 0 3890 0 3890 26 56 c54 114 136 175 269 203 170 34 527 55 943 56 l247 0
0 261 0 262 -127 -7 c-395 -19 -1108 -30 -2028 -30 -920 0 -1633 11 -2027 30
l-128 7 0 -262z"/>
<path d="M6690 9503 l0 -260 488 -6 c961 -13 1164 -46 1293 -209 75 -96 69
223 69 -3497 0 -2226 -4 -3384 -10 -3461 -48 -525 -232 -965 -537 -1280 -233
-242 -482 -363 -773 -377 -285 -13 -653 68 -930 207 -171 86 -382 246 -498
379 l-52 60 32 5 c18 3 60 7 94 10 80 7 213 49 294 93 189 103 311 255 376
468 25 82 28 104 28 250 0 146 -3 168 -28 250 -15 49 -43 119 -62 155 -229
437 -856 551 -1260 229 -68 -54 -158 -165 -198 -246 -138 -276 -106 -723 79
-1108 289 -602 916 -1017 1725 -1142 144 -22 561 -25 720 -5 626 79 1170 328
1604 733 297 277 543 701 634 1094 55 233 52 49 52 3684 0 2192 3 3377 10
3412 23 125 96 213 202 242 128 36 377 57 681 57 l177 0 0 261 0 262 -107 -7
c-702 -41 -2936 -41 -3945 0 l-158 7 0 -260z"/>
</g>
</svg>
