<?xml version="1.0" standalone="no"?>
<!DOCTYPE svg PUBLIC "-//W3C//DTD SVG 20010904//EN"
 "http://www.w3.org/TR/2001/REC-SVG-20010904/DTD/svg10.dtd">
<svg version="1.0" xmlns="http://www.w3.org/2000/svg"
 width="971.000000pt" height="1319.000000pt" viewBox="0 0 971.000000 1319.000000"
 preserveAspectRatio="xMidYMid meet">
<metadata>
Created by potrace 1.16, written by Peter Selinger 2001-2019
</metadata>
<g transform="translate(0.000000,1319.000000) scale(0.100000,-0.100000)"
fill="#000000" stroke="none">
<path d="M2028 13041 l-106 -149 1024 -866 1024 -866 1024 866 1025 866 -106
146 c-58 81 -107 149 -109 150 -1 2 -412 -235 -913 -527 -501 -292 -916 -531
-921 -531 -5 0 -419 239 -919 530 -500 292 -911 530 -913 530 -2 -1 -51 -68
-110 -149z"/>
<path d="M0 9502 l0 -259 373 -6 c385 -7 544 -16 707 -43 150 -25 215 -60 274
-147 72 -107 66 262 66 -4012 0 -4274 6 -3905 -66 -4012 -59 -87 -124 -122
-274 -147 -163 -27 -322 -36 -707 -43 l-373 -6 0 -260 0 -260 128 7 c817 41
3057 41 3875 0 l127 -7 0 260 0 260 -372 6 c-386 7 -545 16 -708 43 -150 25
-215 60 -274 147 -71 105 -66 -39 -66 1984 l0 1823 865 0 c562 0 900 -4 967
-11 658 -71 1216 -553 1383 -1196 51 -197 55 -266 55 -1044 0 -738 4 -827 41
-1019 162 -825 825 -1371 1844 -1519 344 -50 673 -53 850 -7 337 88 619 339
796 710 114 238 189 566 189 821 0 95 -24 147 -80 176 -50 27 -240 27 -290 0
-53 -27 -80 -82 -80 -161 0 -168 -41 -397 -100 -565 -105 -296 -295 -507 -520
-577 -62 -19 -96 -23 -200 -23 -217 1 -351 54 -485 189 -133 135 -222 321
-300 631 -60 235 -77 331 -220 1251 -69 445 -135 847 -146 894 -48 208 -159
470 -272 643 -259 396 -661 716 -1172 934 -55 23 -93 44 -85 46 371 115 506
166 740 278 426 206 779 466 1033 759 525 606 628 1317 293 2005 -429 879
-1525 1530 -2826 1679 -293 34 -457 36 -2722 36 l-2268 0 0 -258z m4515 -272
c457 -31 800 -113 1105 -265 371 -185 596 -420 725 -754 97 -251 145 -574 145
-972 0 -682 -143 -1132 -454 -1426 -299 -283 -740 -469 -1271 -537 -236 -30
-421 -36 -1232 -36 l-823 0 0 1849 c0 1201 4 1867 10 1902 30 158 110 214 340
238 119 12 1273 13 1455 1z"/>
</g>
</svg>
