<?xml version="1.0" standalone="no"?>
<!DOCTYPE svg PUBLIC "-//W3C//DTD SVG 20010904//EN"
 "http://www.w3.org/TR/2001/REC-SVG-20010904/DTD/svg10.dtd">
<svg version="1.0" xmlns="http://www.w3.org/2000/svg"
 width="672.000000pt" height="889.000000pt" viewBox="0 0 672.000000 889.000000"
 preserveAspectRatio="xMidYMid meet">
<metadata>
Created by potrace 1.16, written by Peter Selinger 2001-2019
</metadata>
<g transform="translate(0.000000,889.000000) scale(0.100000,-0.100000)"
fill="#000000" stroke="none">
<path d="M2370 8871 c-101 -22 -205 -64 -315 -126 -190 -108 -359 -267 -658
-615 -116 -135 -221 -257 -234 -271 l-24 -26 128 -111 128 -110 112 118 c228
240 461 396 683 460 106 31 304 38 422 16 177 -33 368 -115 698 -299 304 -169
501 -251 678 -282 279 -49 548 29 829 240 126 95 268 240 515 527 l238 277
-127 110 -127 109 -135 -138 c-202 -204 -349 -313 -529 -390 -148 -63 -207
-75 -382 -74 -129 0 -169 4 -240 23 -167 45 -320 113 -599 268 -426 237 -602
301 -841 309 -107 3 -153 0 -220 -15z"/>
<path d="M945 5794 c-506 -40 -926 -73 -932 -73 -10 -1 -13 -53 -13 -224 l0
-224 218 -6 c562 -15 719 -90 790 -375 15 -61 17 -251 20 -2062 2 -1428 0
-2013 -8 -2060 -22 -127 -78 -210 -170 -249 -100 -43 -366 -71 -682 -71 l-168
0 0 -226 0 -226 98 6 c617 39 2207 39 2825 0 l97 -6 0 226 0 226 -167 0 c-317
0 -586 28 -682 71 -94 41 -149 121 -171 249 -8 47 -10 482 -7 1525 3 1622 -1
1515 72 1801 137 535 485 997 935 1242 281 153 640 221 930 178 444 -67 682
-366 767 -961 15 -109 17 -289 20 -1920 3 -1296 1 -1818 -7 -1865 -22 -127
-78 -210 -170 -249 -100 -43 -366 -71 -682 -71 l-168 0 0 -226 0 -226 98 6
c617 39 2207 39 2825 0 l97 -6 0 226 0 226 -167 0 c-317 0 -586 28 -682 71
-79 35 -129 94 -162 194 -11 32 -15 379 -19 1840 -7 1880 -6 1834 -51 2065
-46 233 -143 469 -260 633 -73 103 -226 253 -326 320 -153 101 -309 169 -517
222 -211 54 -353 69 -651 69 -288 1 -355 -7 -580 -69 -550 -152 -1031 -552
-1312 -1090 l-62 -120 -1 643 0 642 -27 -1 c-16 -1 -442 -34 -948 -75z"/>
</g>
</svg>
