<?xml version="1.0" standalone="no"?>
<!DOCTYPE svg PUBLIC "-//W3C//DTD SVG 20010904//EN"
 "http://www.w3.org/TR/2001/REC-SVG-20010904/DTD/svg10.dtd">
<svg version="1.0" xmlns="http://www.w3.org/2000/svg"
 width="616.000000pt" height="976.000000pt" viewBox="0 0 616.000000 976.000000"
 preserveAspectRatio="xMidYMid meet">
<metadata>
Created by potrace 1.16, written by Peter Selinger 2001-2019
</metadata>
<g transform="translate(0.000000,976.000000) scale(0.100000,-0.100000)"
fill="#000000" stroke="none">
<path d="M669 9731 c-67 -43 -167 -142 -174 -174 -19 -74 28 -146 106 -167 24
-6 123 -38 219 -70 550 -184 1078 -463 1583 -837 48 -36 87 -68 87 -72 0 -3
-316 -188 -703 -411 -386 -223 -712 -415 -724 -426 -12 -12 -27 -40 -34 -63
-12 -40 -11 -44 32 -128 24 -48 62 -106 85 -130 35 -37 46 -43 83 -43 23 0 56
7 74 16 18 9 367 210 777 447 410 237 752 432 761 434 25 7 345 -307 543 -532
477 -541 860 -1165 1120 -1823 98 -249 98 -248 36 -172 -82 100 -265 278 -368
358 -245 189 -505 312 -792 374 -92 19 -133 22 -335 22 -166 0 -263 -5 -350
-17 -464 -68 -881 -229 -1270 -489 -195 -131 -320 -234 -491 -409 -513 -525
-822 -1185 -916 -1959 -17 -139 -17 -584 0 -720 139 -1103 809 -2020 1806
-2472 235 -106 545 -195 836 -241 196 -30 634 -30 830 0 384 60 734 176 1051
348 795 432 1367 1209 1548 2106 50 247 54 297 58 854 6 651 -7 902 -67 1271
-110 681 -379 1422 -740 2039 -406 693 -955 1325 -1586 1825 l-124 98 698 402
c383 221 709 414 724 430 45 49 46 91 5 170 -82 158 -120 194 -192 187 -32 -3
-224 -110 -831 -461 l-791 -456 -164 99 c-689 416 -1434 691 -2169 801 -175
26 -188 25 -241 -9z m2648 -3825 c264 -52 517 -189 741 -401 425 -401 706
-1024 801 -1775 79 -618 35 -1383 -108 -1880 -213 -738 -718 -1239 -1383
-1372 -162 -32 -424 -32 -586 0 -599 120 -1067 535 -1312 1164 -103 263 -165
568 -202 993 -17 190 -16 1007 0 1185 63 671 200 1077 487 1445 84 108 259
275 375 358 114 81 321 186 447 227 88 28 260 64 348 74 80 8 312 -3 392 -18z"/>
</g>
</svg>
