<?xml version="1.0" standalone="no"?>
<!DOCTYPE svg PUBLIC "-//W3C//DTD SVG 20010904//EN"
 "http://www.w3.org/TR/2001/REC-SVG-20010904/DTD/svg10.dtd">
<svg version="1.0" xmlns="http://www.w3.org/2000/svg"
 width="402.000000pt" height="144.000000pt" viewBox="0 0 402.000000 144.000000"
 preserveAspectRatio="xMidYMid meet">
<metadata>
Created by potrace 1.16, written by Peter Selinger 2001-2019
</metadata>
<g transform="translate(0.000000,144.000000) scale(0.100000,-0.100000)"
fill="#000000" stroke="none">
<path d="M565 1425 c-90 -20 -234 -91 -308 -152 -116 -97 -207 -241 -241 -384
-21 -85 -21 -253 0 -338 80 -332 401 -570 739 -548 164 11 297 63 419 163 255
211 334 580 187 872 -93 183 -265 326 -456 377 -86 24 -254 28 -340 10z"/>
<path d="M3150 1425 c-334 -67 -574 -361 -574 -705 0 -531 554 -879 1029 -645
154 76 262 182 334 330 53 107 71 189 71 315 0 126 -18 208 -71 315 -72 148
-180 254 -334 330 -144 71 -300 91 -455 60z"/>
</g>
</svg>
