<?xml version="1.0" standalone="no"?>
<!DOCTYPE svg PUBLIC "-//W3C//DTD SVG 20010904//EN"
 "http://www.w3.org/TR/2001/REC-SVG-20010904/DTD/svg10.dtd">
<svg version="1.0" xmlns="http://www.w3.org/2000/svg"
 width="568.000000pt" height="937.000000pt" viewBox="0 0 568.000000 937.000000"
 preserveAspectRatio="xMidYMid meet">
<metadata>
Created by potrace 1.16, written by Peter Selinger 2001-2019
</metadata>
<g transform="translate(0.000000,937.000000) scale(0.100000,-0.100000)"
fill="#000000" stroke="none">
<path d="M1700 9146 l0 -226 283 0 c705 0 1146 -38 1288 -110 60 -31 131 -106
165 -175 l29 -60 0 -3305 0 -3305 -23 -143 c-44 -279 -106 -474 -223 -702
-203 -395 -498 -655 -853 -753 -69 -19 -105 -22 -251 -21 -93 0 -206 6 -250
13 -446 70 -843 283 -1097 590 l-79 96 99 7 c134 9 219 31 332 86 79 39 109
60 180 132 95 95 140 164 175 269 37 110 48 192 42 315 -11 213 -69 349 -211
492 -102 102 -174 147 -306 190 -78 26 -97 28 -240 28 -143 0 -162 -2 -240
-28 -132 -43 -204 -88 -306 -190 -101 -102 -148 -180 -186 -311 -20 -71 -23
-100 -22 -255 1 -193 17 -295 74 -471 210 -640 840 -1134 1623 -1270 416 -72
882 -39 1291 92 909 290 1548 1015 1646 1864 6 60 10 1179 10 3325 0 3468 -2
3309 48 3406 27 52 77 99 133 123 95 42 365 71 677 71 l162 0 0 226 0 226
-102 -6 c-645 -39 -2809 -39 -3720 0 l-148 7 0 -227z"/>
</g>
</svg>
