<?xml version="1.0" standalone="no"?>
<!DOCTYPE svg PUBLIC "-//W3C//DTD SVG 20010904//EN"
 "http://www.w3.org/TR/2001/REC-SVG-20010904/DTD/svg10.dtd">
<svg version="1.0" xmlns="http://www.w3.org/2000/svg"
 width="910.000000pt" height="1240.000000pt" viewBox="0 0 910.000000 1240.000000"
 preserveAspectRatio="xMidYMid meet">
<metadata>
Created by potrace 1.16, written by Peter Selinger 2001-2019
</metadata>
<g transform="translate(0.000000,1240.000000) scale(0.100000,-0.100000)"
fill="#000000" stroke="none">
<path d="M4392 12387 c-45 -17 -99 -62 -118 -99 -9 -17 -648 -1868 -1420
-4112 -917 -2665 -1420 -4113 -1449 -4173 -205 -417 -625 -641 -1258 -669
l-147 -7 0 -225 0 -224 83 6 c521 39 2117 39 2730 0 l97 -7 0 225 0 225 -104
7 c-273 17 -482 86 -653 215 -156 117 -237 271 -236 446 1 78 8 101 273 870
150 435 288 836 307 893 l35 102 1626 -2 1626 -3 362 -1050 c384 -1113 383
-1109 350 -1190 -19 -45 -90 -121 -140 -150 -142 -81 -460 -134 -813 -135
l-143 0 0 -226 0 -227 123 7 c234 12 1665 40 1656 33 -2 -2 -53 -46 -114 -97
-136 -116 -348 -328 -438 -440 -285 -354 -437 -727 -437 -1076 0 -611 479
-1142 1153 -1276 150 -30 405 -32 552 -4 200 37 393 119 558 236 110 79 273
248 355 367 127 186 273 536 258 618 -8 42 -54 98 -96 115 -63 26 -161 -6
-187 -62 -167 -356 -277 -488 -498 -598 -151 -74 -200 -85 -395 -85 -149 0
-175 3 -265 28 -263 73 -511 245 -656 455 -243 351 -231 766 34 1162 135 203
352 415 608 596 l84 59 255 -3 c299 -3 867 -19 1028 -28 l112 -6 0 224 0 225
-302 6 c-434 9 -638 33 -762 92 -104 49 -213 180 -261 315 -9 25 -673 1951
-1475 4281 -802 2329 -1465 4249 -1474 4266 -21 41 -78 87 -125 102 -49 14
-256 13 -299 -2z m506 -3957 l728 -2115 -1465 -3 c-805 -1 -1466 0 -1468 2 -2
2 326 962 729 2134 493 1432 736 2125 741 2114 4 -9 335 -969 735 -2132z"/>
</g>
</svg>
