<?xml version="1.0" standalone="no"?>
<!DOCTYPE svg PUBLIC "-//W3C//DTD SVG 20010904//EN"
 "http://www.w3.org/TR/2001/REC-SVG-20010904/DTD/svg10.dtd">
<svg version="1.0" xmlns="http://www.w3.org/2000/svg"
 width="333.000000pt" height="1384.000000pt" viewBox="0 0 333.000000 1384.000000"
 preserveAspectRatio="xMidYMid meet">
<metadata>
Created by potrace 1.16, written by Peter Selinger 2001-2019
</metadata>
<g transform="translate(0.000000,1384.000000) scale(0.100000,-0.100000)"
fill="#000000" stroke="none">
<path d="M72 13820 c-61 -38 -89 -114 -59 -166 7 -12 89 -104 183 -205 203
-217 224 -241 369 -424 1167 -1470 1745 -3493 1745 -6105 0 -2612 -578 -4635
-1745 -6105 -145 -183 -166 -207 -369 -424 -94 -101 -176 -193 -183 -205 -30
-52 -2 -128 59 -166 30 -19 47 -20 194 -18 l161 3 54 42 c260 201 667 603 929
918 638 763 1145 1729 1464 2788 226 750 360 1507 423 2387 24 346 24 1214 0
1560 -63 880 -197 1637 -423 2387 -403 1337 -1095 2503 -1987 3347 -153 145
-320 292 -406 359 l-54 42 -161 3 c-147 2 -164 1 -194 -18z"/>
</g>
</svg>
