<?xml version="1.0" standalone="no"?>
<!DOCTYPE svg PUBLIC "-//W3C//DTD SVG 20010904//EN"
 "http://www.w3.org/TR/2001/REC-SVG-20010904/DTD/svg10.dtd">
<svg version="1.0" xmlns="http://www.w3.org/2000/svg"
 width="885.000000pt" height="292.000000pt" viewBox="0 0 885.000000 292.000000"
 preserveAspectRatio="xMidYMid meet">
<metadata>
Created by potrace 1.16, written by Peter Selinger 2001-2019
</metadata>
<g transform="translate(0.000000,292.000000) scale(0.100000,-0.100000)"
fill="#000000" stroke="none">
<path d="M90 2898 c-52 -27 -90 -90 -90 -148 0 -58 38 -121 90 -147 l44 -23
4286 0 4286 0 44 23 c52 26 90 89 90 147 0 58 -38 121 -90 148 l-44 22 -4286
0 -4286 0 -44 -22z"/>
<path d="M90 318 c-52 -27 -90 -90 -90 -148 0 -58 38 -121 90 -148 l44 -22
4286 0 4286 0 44 23 c52 26 90 89 90 147 0 58 -38 121 -90 148 l-44 22 -4286
0 -4286 0 -44 -22z"/>
</g>
</svg>
