<?xml version="1.0" standalone="no"?>
<!DOCTYPE svg PUBLIC "-//W3C//DTD SVG 20010904//EN"
 "http://www.w3.org/TR/2001/REC-SVG-20010904/DTD/svg10.dtd">
<svg version="1.0" xmlns="http://www.w3.org/2000/svg"
 width="649.000000pt" height="587.000000pt" viewBox="0 0 649.000000 587.000000"
 preserveAspectRatio="xMidYMid meet">
<metadata>
Created by potrace 1.16, written by Peter Selinger 2001-2019
</metadata>
<g transform="translate(0.000000,587.000000) scale(0.100000,-0.100000)"
fill="#000000" stroke="none">
<path d="M0 5648 l0 -225 223 -6 c307 -8 445 -28 556 -80 73 -33 169 -138 219
-237 31 -64 1790 -4454 1964 -4903 56 -145 129 -197 278 -197 157 0 221 50
290 227 247 632 1779 4451 1811 4514 129 259 297 433 524 544 61 30 150 66
199 80 93 26 283 55 367 55 l49 0 0 226 0 226 -57 -6 c-382 -39 -1555 -39
-2045 0 l-78 7 0 -225 0 -225 73 -6 c278 -24 482 -179 542 -412 19 -75 19
-201 0 -284 -9 -36 -317 -821 -686 -1745 -369 -925 -676 -1692 -681 -1706 -8
-22 -105 213 -709 1725 -880 2201 -810 2022 -810 2100 0 35 7 80 16 101 59
142 287 223 628 224 l97 0 0 226 0 226 -97 -6 c-617 -39 -2138 -39 -2600 0
l-73 6 0 -224z"/>
</g>
</svg>
