<?xml version="1.0" standalone="no"?>
<!DOCTYPE svg PUBLIC "-//W3C//DTD SVG 20010904//EN"
 "http://www.w3.org/TR/2001/REC-SVG-20010904/DTD/svg10.dtd">
<svg version="1.0" xmlns="http://www.w3.org/2000/svg"
 width="425.000000pt" height="912.000000pt" viewBox="0 0 425.000000 912.000000"
 preserveAspectRatio="xMidYMid meet">
<metadata>
Created by potrace 1.16, written by Peter Selinger 2001-2019
</metadata>
<g transform="translate(0.000000,912.000000) scale(0.100000,-0.100000)"
fill="#000000" stroke="none">
<path d="M630 9105 c-293 -62 -510 -262 -602 -555 -19 -63 -23 -96 -23 -210 0
-114 4 -147 23 -210 72 -228 212 -393 417 -491 122 -59 190 -74 335 -74 149 0
216 16 345 79 203 101 352 283 412 506 24 89 24 290 0 380 -25 94 -97 235
-160 311 -95 114 -254 215 -402 255 -83 22 -264 27 -345 9z"/>
<path d="M3310 9105 c-248 -53 -443 -205 -551 -430 -59 -122 -74 -190 -74
-335 0 -145 15 -213 74 -335 78 -164 194 -281 356 -361 129 -63 196 -79 345
-79 145 0 213 15 335 74 205 98 345 263 417 491 19 63 23 96 23 210 0 154 -17
225 -85 360 -96 188 -285 339 -495 396 -83 22 -264 27 -345 9z"/>
<path d="M1595 6034 c-533 -40 -978 -73 -987 -73 -17 -1 -18 -20 -18 -259 l0
-259 213 -6 c566 -16 718 -93 784 -399 17 -78 18 -199 18 -2153 0 -1970 -1
-2072 -18 -2122 -66 -188 -190 -227 -769 -240 l-278 -6 0 -260 0 -259 92 6
c604 41 2272 41 2876 0 l92 -6 0 261 0 261 -162 0 c-307 0 -562 28 -655 72
-54 25 -96 75 -126 148 l-22 55 -3 2658 -2 2657 -33 -1 c-17 -1 -468 -34
-1002 -75z"/>
</g>
</svg>
