<?xml version="1.0" standalone="no"?>
<!DOCTYPE svg PUBLIC "-//W3C//DTD SVG 20010904//EN"
 "http://www.w3.org/TR/2001/REC-SVG-20010904/DTD/svg10.dtd">
<svg version="1.0" xmlns="http://www.w3.org/2000/svg"
 width="337.000000pt" height="961.000000pt" viewBox="0 0 337.000000 961.000000"
 preserveAspectRatio="xMidYMid meet">
<metadata>
Created by potrace 1.16, written by Peter Selinger 2001-2019
</metadata>
<g transform="translate(0.000000,961.000000) scale(0.100000,-0.100000)"
fill="#000000" stroke="none">
<path d="M1050 9535 c-547 -41 -1003 -74 -1012 -74 -17 -1 -18 -20 -18 -261
l0 -260 138 0 c186 0 396 -17 517 -41 235 -47 340 -142 392 -356 16 -62 17
-226 20 -1889 l4 -1820 -253 -209 c-139 -116 -385 -319 -545 -452 l-293 -243
166 -200 167 -201 21 19 c53 48 726 602 731 602 3 0 4 -753 3 -1672 l-3 -1673
-22 -53 c-74 -180 -193 -216 -766 -229 l-277 -6 0 -260 0 -259 92 6 c602 41
2374 41 2976 0 l92 -6 0 259 0 260 -277 6 c-573 13 -692 49 -766 229 l-22 53
-2 2100 -3 2100 327 270 c179 149 461 381 625 517 l298 248 -166 200 -166 200
-75 -63 c-42 -34 -247 -204 -457 -378 l-381 -316 -3 1963 -2 1964 -33 -1 c-17
-1 -480 -34 -1027 -74z"/>
</g>
</svg>
