<?xml version="1.0" standalone="no"?>
<!DOCTYPE svg PUBLIC "-//W3C//DTD SVG 20010904//EN"
 "http://www.w3.org/TR/2001/REC-SVG-20010904/DTD/svg10.dtd">
<svg version="1.0" xmlns="http://www.w3.org/2000/svg"
 width="1269.000000pt" height="1007.000000pt" viewBox="0 0 1269.000000 1007.000000"
 preserveAspectRatio="xMidYMid meet">
<metadata>
Created by potrace 1.16, written by Peter Selinger 2001-2019
</metadata>
<g transform="translate(0.000000,1007.000000) scale(0.100000,-0.100000)"
fill="#000000" stroke="none">
<path d="M4300 10059 c-1561 -123 -2961 -1098 -3715 -2589 -51 -102 -120 -248
-153 -325 -528 -1242 -573 -2697 -121 -3957 321 -894 886 -1685 1604 -2244
750 -584 1646 -912 2570 -941 308 -9 571 19 995 108 716 149 826 169 1055 188
79 7 1052 11 2842 11 l2722 0 6 33 c3 17 131 849 285 1847 154 998 282 1830
285 1848 l6 32 -275 0 -275 0 -6 -32 c-2 -18 -25 -159 -50 -313 -210 -1301
-446 -1937 -842 -2267 -386 -322 -877 -479 -1623 -518 -269 -14 -1890 -8
-1966 8 -140 29 -187 57 -220 135 -18 40 -19 117 -22 1935 l-2 1894 807 -5
c505 -3 844 -9 903 -16 138 -16 300 -48 394 -78 480 -150 665 -527 666 -1360
l0 -153 275 0 275 0 0 1920 0 1920 -275 0 -275 0 0 -152 c-1 -834 -186 -1211
-666 -1361 -94 -30 -256 -62 -394 -78 -59 -7 -398 -13 -903 -16 l-807 -5 2
1709 c3 1638 4 1710 22 1750 33 78 80 106 220 135 76 16 1687 22 1956 8 587
-30 961 -129 1274 -337 121 -80 292 -246 359 -349 230 -351 363 -826 466
-1659 17 -137 34 -269 37 -292 l5 -43 275 0 275 0 -6 43 c-3 23 -86 749 -185
1612 -99 864 -182 1589 -185 1613 l-6 42 -2627 0 c-1725 0 -2668 4 -2747 11
-229 19 -339 39 -1055 188 -482 101 -814 129 -1180 100z m573 -510 c547 -48
878 -240 1032 -598 126 -296 192 -689 227 -1366 18 -343 18 -4757 0 -5100 -35
-677 -101 -1070 -227 -1366 -156 -363 -486 -552 -1050 -600 -166 -14 -420 -7
-555 16 -622 104 -1197 490 -1669 1122 -522 699 -872 1627 -996 2643 -79 652
-70 1352 25 1939 229 1407 972 2580 1945 3072 407 205 801 279 1268 238z"/>
</g>
</svg>
