<?xml version="1.0" standalone="no"?>
<!DOCTYPE svg PUBLIC "-//W3C//DTD SVG 20010904//EN"
 "http://www.w3.org/TR/2001/REC-SVG-20010904/DTD/svg10.dtd">
<svg version="1.0" xmlns="http://www.w3.org/2000/svg"
 width="922.000000pt" height="1104.000000pt" viewBox="0 0 922.000000 1104.000000"
 preserveAspectRatio="xMidYMid meet">
<metadata>
Created by potrace 1.16, written by Peter Selinger 2001-2019
</metadata>
<g transform="translate(0.000000,1104.000000) scale(0.100000,-0.100000)"
fill="#000000" stroke="none">
<path d="M7520 10391 l-424 -649 -115 77 c-708 474 -1546 731 -2376 731 -1293
0 -2553 -617 -3416 -1672 -250 -306 -446 -609 -625 -968 -647 -1295 -742
-2879 -254 -4239 274 -763 736 -1471 1294 -1983 72 -66 132 -124 134 -129 2
-5 -188 -302 -423 -660 -343 -525 -424 -655 -413 -664 38 -35 361 -236 367
-228 4 4 193 293 420 640 264 404 417 630 425 626 6 -4 61 -39 121 -79 586
-380 1220 -608 1923 -691 206 -24 688 -24 894 0 1024 121 1933 563 2668 1297
672 671 1134 1513 1354 2470 174 761 180 1584 15 2365 -206 978 -681 1876
-1355 2561 -76 78 -171 170 -211 205 l-71 64 435 664 c349 535 432 667 421
676 -14 13 -355 235 -360 235 -2 0 -194 -292 -428 -649z m-2505 -281 c317 -47
596 -135 890 -280 279 -137 538 -318 752 -524 l95 -91 -2297 -3515 c-1264
-1933 -2301 -3519 -2305 -3523 -4 -5 -42 42 -83 105 -378 569 -603 1272 -691
2158 -56 557 -60 1400 -11 1980 95 1105 379 1921 894 2570 97 123 359 385 483
484 246 196 592 391 873 491 224 81 483 139 731 164 152 16 499 6 669 -19z
m2097 -1337 c370 -549 597 -1213 703 -2058 77 -625 86 -1605 19 -2275 -109
-1100 -429 -1920 -994 -2548 -427 -476 -1044 -825 -1668 -946 -210 -41 -324
-51 -567 -51 -130 0 -275 6 -335 13 -663 83 -1254 363 -1749 829 l-75 69 2219
3395 c1220 1867 2257 3451 2302 3522 46 70 86 127 88 127 2 0 28 -35 57 -77z"/>
</g>
</svg>
