<?xml version="1.0" standalone="no"?>
<!DOCTYPE svg PUBLIC "-//W3C//DTD SVG 20010904//EN"
 "http://www.w3.org/TR/2001/REC-SVG-20010904/DTD/svg10.dtd">
<svg version="1.0" xmlns="http://www.w3.org/2000/svg"
 width="922.000000pt" height="922.000000pt" viewBox="0 0 922.000000 922.000000"
 preserveAspectRatio="xMidYMid meet">
<metadata>
Created by potrace 1.16, written by Peter Selinger 2001-2019
</metadata>
<g transform="translate(0.000000,922.000000) scale(0.100000,-0.100000)"
fill="#000000" stroke="none">
<path d="M4525 9207 c-83 -33 -136 -87 -163 -166 -9 -26 -12 -549 -12 -2102
l0 -2069 -2077 -2 c-2304 -3 -2106 3 -2187 -68 -59 -53 -81 -102 -81 -190 0
-88 22 -137 81 -190 74 -65 -95 -60 2184 -60 l2080 0 2 -2087 c3 -2042 3
-2089 22 -2127 46 -93 125 -141 231 -141 106 0 185 48 231 141 19 38 19 85 22
2127 l2 2087 2080 0 c2279 0 2110 -5 2184 60 59 53 81 102 81 190 0 88 -22
137 -81 190 -81 71 117 65 -2186 68 l-2078 2 -2 2083 c-3 2036 -3 2083 -22
2121 -25 50 -73 97 -122 121 -47 23 -147 29 -189 12z"/>
</g>
</svg>
