<?xml version="1.0" standalone="no"?>
<!DOCTYPE svg PUBLIC "-//W3C//DTD SVG 20010904//EN"
 "http://www.w3.org/TR/2001/REC-SVG-20010904/DTD/svg10.dtd">
<svg version="1.0" xmlns="http://www.w3.org/2000/svg"
 width="1087.000000pt" height="976.000000pt" viewBox="0 0 1087.000000 976.000000"
 preserveAspectRatio="xMidYMid meet">
<metadata>
Created by potrace 1.16, written by Peter Selinger 2001-2019
</metadata>
<g transform="translate(0.000000,976.000000) scale(0.100000,-0.100000)"
fill="#000000" stroke="none">
<path d="M3895 9750 c-700 -53 -1323 -253 -1833 -590 -517 -340 -839 -771
-954 -1278 -22 -95 -22 -112 -25 -1009 l-4 -913 -519 0 -520 0 0 -260 0 -260
520 0 520 0 -2 -2317 -3 -2318 -24 -59 c-33 -84 -92 -139 -173 -164 -127 -40
-374 -61 -695 -62 l-183 0 0 -261 0 -262 98 7 c635 41 2349 41 2985 0 l97 -7
0 262 0 261 -182 0 c-322 1 -569 22 -696 62 -79 24 -140 82 -174 166 l-23 57
-3 2318 -2 2317 1410 0 1410 0 -2 -2317 -3 -2318 -24 -59 c-33 -84 -92 -139
-173 -164 -127 -40 -374 -61 -695 -62 l-183 0 0 -261 0 -262 98 7 c635 41
2349 41 2985 0 l97 -7 0 262 0 261 -182 0 c-322 1 -569 22 -696 62 -79 24
-140 82 -174 166 l-23 57 -3 2318 -2 2317 1151 0 c1121 0 1153 -1 1252 -21
240 -48 344 -144 395 -361 16 -68 17 -225 17 -2163 l0 -2090 -23 -57 c-34 -84
-95 -142 -174 -166 -127 -40 -374 -61 -695 -62 l-183 0 0 -261 0 -262 98 7
c635 41 2349 41 2985 0 l97 -7 0 262 0 261 -182 0 c-322 1 -569 22 -696 62
-81 25 -140 80 -173 164 l-24 59 -3 2663 c-1 1464 -3 2662 -5 2662 -1 0 -472
-34 -1047 -75 -627 -45 -1046 -79 -1048 -85 -3 -7 -303 -10 -893 -10 l-890 0
4 908 c3 884 4 909 25 1006 99 457 367 843 772 1111 535 355 1265 463 1823
268 163 -56 382 -177 441 -242 16 -17 14 -19 -28 -24 -73 -10 -198 -64 -274
-117 -358 -252 -362 -852 -6 -1106 248 -177 590 -177 838 0 126 89 218 239
252 406 21 105 14 292 -15 420 -134 589 -630 1018 -1326 1147 -114 21 -410 28
-615 14 -776 -53 -1432 -271 -1989 -663 -62 -44 -116 -76 -120 -71 -4 4 -28
37 -53 73 -62 89 -174 207 -266 282 -231 185 -496 302 -827 365 -95 18 -474
26 -640 13z m499 -429 c137 -24 320 -83 427 -136 106 -53 291 -178 279 -187
-3 -2 -39 -12 -80 -21 -241 -56 -421 -233 -487 -477 -24 -89 -24 -281 0 -370
51 -187 171 -340 328 -416 l58 -29 0 -862 1 -863 -1430 0 -1431 0 4 908 c4
983 2 946 61 1152 134 463 493 872 971 1105 249 122 483 186 800 219 98 10
384 -3 499 -23z"/>
</g>
</svg>
