<?xml version="1.0" standalone="no"?>
<!DOCTYPE svg PUBLIC "-//W3C//DTD SVG 20010904//EN"
 "http://www.w3.org/TR/2001/REC-SVG-20010904/DTD/svg10.dtd">
<svg version="1.0" xmlns="http://www.w3.org/2000/svg"
 width="498.000000pt" height="854.000000pt" viewBox="0 0 498.000000 854.000000"
 preserveAspectRatio="xMidYMid meet">
<metadata>
Created by potrace 1.16, written by Peter Selinger 2001-2019
</metadata>
<g transform="translate(0.000000,854.000000) scale(0.100000,-0.100000)"
fill="#000000" stroke="none">
<path d="M3595 8526 c-75 -24 -142 -65 -216 -133 -41 -37 -429 -413 -862 -836
l-788 -769 24 -32 c13 -17 63 -84 111 -148 84 -112 89 -117 109 -104 12 8 450
256 972 551 523 295 982 557 1022 581 206 128 283 330 208 553 -34 104 -143
234 -245 293 -94 55 -241 74 -335 44z"/>
<path d="M326 5653 c-4 -38 -35 -498 -71 -1023 -36 -525 -67 -985 -71 -1022
l-6 -68 186 0 c107 0 186 4 186 9 0 53 35 419 51 536 92 673 309 1008 757
1169 305 109 556 128 1645 124 l758 -3 -1872 -2524 c-1029 -1388 -1876 -2537
-1881 -2553 -6 -15 -8 -67 -6 -116 3 -99 22 -138 82 -166 31 -15 234 -16 2349
-16 l2315 0 6 53 c3 28 51 574 106 1212 55 638 103 1184 106 1213 l6 52 -186
0 c-102 0 -186 -3 -186 -7 0 -27 -34 -357 -51 -498 -72 -600 -204 -978 -419
-1209 -161 -171 -388 -294 -665 -359 -292 -69 -488 -79 -1488 -75 l-798 3
1862 2510 c1024 1381 1868 2526 1876 2544 23 53 15 177 -14 217 -50 69 151 64
-2331 64 l-2240 0 -6 -67z"/>
</g>
</svg>
