<?xml version="1.0" standalone="no"?>
<!DOCTYPE svg PUBLIC "-//W3C//DTD SVG 20010904//EN"
 "http://www.w3.org/TR/2001/REC-SVG-20010904/DTD/svg10.dtd">
<svg version="1.0" xmlns="http://www.w3.org/2000/svg"
 width="867.000000pt" height="1197.000000pt" viewBox="0 0 867.000000 1197.000000"
 preserveAspectRatio="xMidYMid meet">
<metadata>
Created by potrace 1.16, written by Peter Selinger 2001-2019
</metadata>
<g transform="translate(0.000000,1197.000000) scale(0.100000,-0.100000)"
fill="#000000" stroke="none">
<path d="M3320 11951 c-98 -32 -163 -72 -235 -145 -125 -126 -184 -259 -192
-431 -6 -113 8 -188 54 -283 38 -78 140 -178 228 -224 52 -27 364 -125 1185
-372 612 -185 1115 -335 1116 -333 6 6 224 489 224 495 -1 11 -1943 1234
-2000 1259 -122 55 -274 68 -380 34z"/>
<path d="M0 9102 l0 -309 403 -6 c545 -8 760 -27 862 -77 50 -24 108 -78 132
-123 17 -30 18 -233 18 -3882 0 -3649 -1 -3852 -18 -3882 -24 -45 -82 -99
-132 -123 -102 -50 -317 -69 -862 -77 l-403 -6 0 -309 0 -308 4040 0 4039 0 6
33 c3 17 131 849 285 1847 154 998 282 1830 285 1847 l6 33 -275 0 -275 0 -5
-33 c-3 -17 -28 -170 -56 -339 -220 -1344 -480 -1947 -1001 -2321 -52 -37
-166 -103 -254 -147 -325 -161 -647 -238 -1170 -282 -223 -18 -2416 -19 -2520
-1 -147 27 -196 55 -231 136 -18 40 -19 117 -22 1925 l-2 1884 717 -5 c729 -5
784 -7 995 -47 284 -54 494 -172 610 -343 144 -212 203 -475 215 -964 l6 -253
274 0 273 0 0 1920 0 1920 -273 0 -274 0 -6 -252 c-12 -490 -71 -753 -215
-965 -116 -171 -326 -289 -610 -343 -211 -40 -266 -42 -995 -47 l-717 -5 2
1699 c3 1628 4 1700 22 1740 35 81 84 109 231 136 103 18 2256 17 2480 -1 471
-39 787 -113 1060 -250 617 -308 891 -878 1044 -2167 12 -93 23 -189 26 -212
l6 -43 275 0 275 0 -6 43 c-3 23 -86 749 -185 1612 -99 864 -182 1589 -185
1613 l-6 42 -3945 0 -3944 0 0 -308z"/>
</g>
</svg>
