<?xml version="1.0" standalone="no"?>
<!DOCTYPE svg PUBLIC "-//W3C//DTD SVG 20010904//EN"
 "http://www.w3.org/TR/2001/REC-SVG-20010904/DTD/svg10.dtd">
<svg version="1.0" xmlns="http://www.w3.org/2000/svg"
 width="554.000000pt" height="916.000000pt" viewBox="0 0 554.000000 916.000000"
 preserveAspectRatio="xMidYMid meet">
<metadata>
Created by potrace 1.16, written by Peter Selinger 2001-2019
</metadata>
<g transform="translate(0.000000,916.000000) scale(0.100000,-0.100000)"
fill="#000000" stroke="none">
<path d="M2535 9149 c-417 -36 -809 -169 -1135 -384 -448 -295 -887 -787
-1114 -1250 -144 -291 -224 -575 -268 -940 -20 -170 -17 -713 5 -895 79 -646
304 -1132 771 -1659 319 -361 671 -605 1054 -731 267 -88 452 -115 772 -114
203 0 249 3 337 22 349 76 625 230 875 489 157 164 281 347 402 592 l66 134 0
-199 c0 -614 -47 -1220 -126 -1628 -166 -862 -553 -1531 -1098 -1897 -336
-226 -655 -305 -1090 -270 -471 38 -812 166 -1026 385 l-54 56 62 0 c90 0 194
26 289 71 368 176 449 717 151 1011 -296 292 -827 211 -1007 -153 -59 -119
-74 -203 -68 -369 18 -479 233 -862 623 -1112 201 -129 498 -230 815 -279 197
-31 617 -34 784 -6 601 100 1102 363 1579 827 657 640 1123 1589 1306 2655 62
363 90 719 90 1142 0 1310 -174 2253 -560 3038 -217 440 -437 724 -765 985
-331 263 -752 438 -1155 480 -112 11 -374 11 -515 -1z m465 -384 c404 -61 765
-364 991 -830 103 -212 153 -398 203 -746 54 -373 77 -734 78 -1179 0 -353 -8
-498 -42 -723 -121 -796 -477 -1400 -975 -1650 -77 -38 -215 -84 -312 -104
-121 -24 -402 -24 -528 0 -350 67 -603 244 -826 576 -205 305 -292 600 -339
1156 -6 72 -14 387 -17 700 -8 794 10 1132 77 1465 79 393 233 686 504 956
116 116 210 185 334 248 234 118 586 172 852 131z"/>
</g>
</svg>
