<?xml version="1.0" standalone="no"?>
<!DOCTYPE svg PUBLIC "-//W3C//DTD SVG 20010904//EN"
 "http://www.w3.org/TR/2001/REC-SVG-20010904/DTD/svg10.dtd">
<svg version="1.0" xmlns="http://www.w3.org/2000/svg"
 width="935.000000pt" height="975.000000pt" viewBox="0 0 935.000000 975.000000"
 preserveAspectRatio="xMidYMid meet">
<metadata>
Created by potrace 1.16, written by Peter Selinger 2001-2019
</metadata>
<g transform="translate(0.000000,975.000000) scale(0.100000,-0.100000)"
fill="#000000" stroke="none">
<path d="M5290 9743 c-537 -32 -1118 -187 -1594 -425 -387 -193 -673 -398
-983 -702 l-133 -129 0 442 0 443 -37 -6 c-170 -26 -323 -31 -888 -29 -564 2
-1256 15 -1532 29 l-123 6 0 -224 0 -225 343 -6 c619 -11 822 -45 915 -152 42
-47 77 -118 91 -183 16 -76 16 -7418 0 -7494 -14 -65 -49 -136 -91 -183 -93
-107 -296 -141 -915 -152 l-343 -6 0 -225 0 -224 123 6 c763 39 2988 39 3830
0 l137 -7 0 225 0 225 -377 6 c-543 9 -805 34 -926 90 -96 44 -163 128 -193
242 -11 41 -14 635 -14 3386 l0 3336 74 117 c435 679 1109 1145 1906 1315 410
87 891 79 1307 -24 729 -179 1346 -612 1757 -1233 287 -434 439 -874 485
-1407 15 -165 15 -4437 1 -4595 -30 -327 -101 -592 -227 -845 -200 -400 -482
-662 -818 -760 -113 -33 -259 -42 -419 -26 -490 48 -927 272 -1202 616 l-65
80 99 7 c134 9 219 31 332 86 79 39 109 60 180 132 95 95 140 164 175 269 37
110 48 192 42 315 -11 213 -69 349 -211 492 -102 102 -174 147 -306 190 -78
26 -97 28 -240 28 -143 0 -162 -2 -240 -28 -132 -43 -204 -88 -306 -190 -101
-102 -148 -180 -186 -311 -20 -71 -23 -100 -22 -255 1 -193 17 -295 74 -472
261 -799 1146 -1338 2145 -1305 697 24 1325 282 1784 735 295 292 488 624 586
1011 58 229 56 131 52 2617 -3 2504 1 2323 -62 2624 -102 481 -320 942 -634
1340 -111 140 -438 463 -581 574 -637 492 -1385 774 -2220 836 -124 9 -418 11
-550 3z"/>
</g>
</svg>
