<?xml version="1.0" standalone="no"?>
<!DOCTYPE svg PUBLIC "-//W3C//DTD SVG 20010904//EN"
 "http://www.w3.org/TR/2001/REC-SVG-20010904/DTD/svg10.dtd">
<svg version="1.0" xmlns="http://www.w3.org/2000/svg"
 width="145.000000pt" height="144.000000pt" viewBox="0 0 145.000000 144.000000"
 preserveAspectRatio="xMidYMid meet">
<metadata>
Created by potrace 1.16, written by Peter Selinger 2001-2019
</metadata>
<g transform="translate(0.000000,144.000000) scale(0.100000,-0.100000)"
fill="#000000" stroke="none">
<path d="M591 1430 c-157 -33 -262 -91 -376 -205 -100 -99 -146 -175 -187
-305 -33 -108 -33 -292 0 -400 41 -130 87 -206 187 -305 99 -100 175 -146 305
-187 108 -33 292 -33 400 0 130 41 206 87 305 187 100 99 146 175 187 305 33
108 33 292 0 400 -41 130 -87 206 -187 305 -98 99 -175 146 -300 185 -79 25
-260 35 -334 20z"/>
</g>
</svg>
