<?xml version="1.0" standalone="no"?>
<!DOCTYPE svg PUBLIC "-//W3C//DTD SVG 20010904//EN"
 "http://www.w3.org/TR/2001/REC-SVG-20010904/DTD/svg10.dtd">
<svg version="1.0" xmlns="http://www.w3.org/2000/svg"
 width="717.000000pt" height="906.000000pt" viewBox="0 0 717.000000 906.000000"
 preserveAspectRatio="xMidYMid meet">
<metadata>
Created by potrace 1.16, written by Peter Selinger 2001-2019
</metadata>
<g transform="translate(0.000000,906.000000) scale(0.100000,-0.100000)"
fill="#000000" stroke="none">
<path d="M2573 9046 c-210 -53 -399 -248 -458 -471 -19 -73 -19 -203 -1 -270
29 -109 104 -220 197 -292 46 -35 2022 -1146 2056 -1155 10 -3 333 416 333
432 0 3 -375 377 -833 831 -584 578 -849 834 -888 857 -91 53 -164 75 -264 78
-52 2 -112 -2 -142 -10z"/>
<path d="M1105 6184 c-588 -40 -1078 -73 -1087 -73 -17 -1 -18 -23 -18 -311
l0 -310 143 0 c190 0 400 -17 522 -41 235 -47 341 -143 392 -356 15 -61 17
-234 23 -1808 5 -1595 7 -1749 24 -1845 100 -600 355 -974 826 -1210 196 -98
460 -171 746 -205 182 -22 561 -31 709 -16 600 59 1166 389 1528 891 l47 64 0
-483 0 -483 73 7 c56 4 2109 145 2123 145 2 0 4 139 4 310 l0 310 -142 0
c-191 0 -401 17 -523 41 -235 47 -340 142 -393 356 -15 63 -17 265 -19 2581
l-3 2514 -73 -7 c-57 -4 -2147 -145 -2163 -145 -2 0 -4 -139 -4 -310 l0 -310
143 0 c190 0 400 -17 522 -41 237 -48 342 -144 393 -361 16 -67 17 -188 17
-1498 0 -1334 -1 -1432 -18 -1540 -129 -803 -605 -1380 -1252 -1516 -122 -26
-522 -26 -695 -1 -217 32 -371 90 -482 184 -104 87 -147 170 -182 348 -40 201
-39 180 -43 2723 l-4 2472 -32 -1 c-18 -1 -513 -34 -1102 -75z"/>
</g>
</svg>
