<?xml version="1.0" standalone="no"?>
<!DOCTYPE svg PUBLIC "-//W3C//DTD SVG 20010904//EN"
 "http://www.w3.org/TR/2001/REC-SVG-20010904/DTD/svg10.dtd">
<svg version="1.0" xmlns="http://www.w3.org/2000/svg"
 width="982.000000pt" height="1023.000000pt" viewBox="0 0 982.000000 1023.000000"
 preserveAspectRatio="xMidYMid meet">
<metadata>
Created by potrace 1.16, written by Peter Selinger 2001-2019
</metadata>
<g transform="translate(0.000000,1023.000000) scale(0.100000,-0.100000)"
fill="#000000" stroke="none">
<path d="M5565 10224 c-22 -2 -96 -9 -165 -15 -903 -80 -1797 -474 -2451
-1079 l-99 -92 0 362 0 362 -42 -6 c-24 -3 -108 -11 -188 -18 -257 -23 -1910
-11 -2492 18 l-128 7 0 -310 0 -310 403 -6 c545 -8 760 -27 862 -77 50 -24
108 -78 132 -123 17 -30 18 -234 18 -3902 0 -3668 -1 -3872 -18 -3902 -24 -45
-82 -99 -132 -123 -102 -50 -317 -69 -862 -77 l-403 -6 0 -310 0 -310 128 7
c826 41 3117 41 3935 0 l127 -7 0 312 0 311 -247 0 c-273 0 -609 14 -748 31
-175 21 -257 62 -313 157 l-27 47 -3 3481 -2 3481 88 134 c351 534 857 941
1447 1162 553 207 1160 243 1742 101 405 -98 796 -292 1133 -560 109 -87 367
-345 454 -454 383 -481 610 -1062 656 -1678 8 -102 10 -850 8 -2467 -4 -2553
0 -2367 -64 -2639 -144 -605 -523 -1062 -984 -1188 -74 -20 -107 -23 -260 -22
-454 2 -868 151 -1196 431 -83 71 -83 75 -5 88 66 11 172 49 248 89 147 77
262 197 339 351 71 144 88 221 88 410 0 189 -17 266 -88 410 -118 237 -327
389 -610 445 -76 15 -256 15 -332 0 -212 -42 -394 -145 -514 -293 -64 -78
-134 -218 -161 -322 -41 -156 -35 -400 13 -610 198 -859 1083 -1476 2168
-1512 838 -27 1631 277 2170 833 321 331 519 714 597 1155 17 99 18 220 18
2499 0 2660 5 2467 -66 2807 -215 1041 -919 1933 -1934 2454 -483 248 -945
388 -1505 454 -127 15 -637 29 -735 19z"/>
</g>
</svg>
