<?xml version="1.0" standalone="no"?>
<!DOCTYPE svg PUBLIC "-//W3C//DTD SVG 20010904//EN"
 "http://www.w3.org/TR/2001/REC-SVG-20010904/DTD/svg10.dtd">
<svg version="1.0" xmlns="http://www.w3.org/2000/svg"
 width="404.000000pt" height="182.000000pt" viewBox="0 0 404.000000 182.000000"
 preserveAspectRatio="xMidYMid meet">
<metadata>
Created by potrace 1.16, written by Peter Selinger 2001-2019
</metadata>
<g transform="translate(0.000000,182.000000) scale(0.100000,-0.100000)"
fill="#000000" stroke="none">
<path d="M4 1713 c57 -892 813 -1605 1805 -1703 684 -67 1392 208 1808 703
246 294 386 635 409 1000 l7 107 -170 0 -170 0 -6 -83 c-21 -267 -151 -528
-359 -722 -246 -228 -572 -375 -983 -442 -154 -25 -506 -25 -660 0 -411 67
-737 214 -983 442 -208 194 -338 455 -359 722 l-6 83 -170 0 -170 0 7 -107z"/>
</g>
</svg>
