<?xml version="1.0" standalone="no"?>
<!DOCTYPE svg PUBLIC "-//W3C//DTD SVG 20010904//EN"
 "http://www.w3.org/TR/2001/REC-SVG-20010904/DTD/svg10.dtd">
<svg version="1.0" xmlns="http://www.w3.org/2000/svg"
 width="339.000000pt" height="1161.000000pt" viewBox="0 0 339.000000 1161.000000"
 preserveAspectRatio="xMidYMid meet">
<metadata>
Created by potrace 1.16, written by Peter Selinger 2001-2019
</metadata>
<g transform="translate(0.000000,1161.000000) scale(0.100000,-0.100000)"
fill="#000000" stroke="none">
<path d="M2515 11596 c-155 -37 -253 -92 -365 -205 -98 -99 -157 -202 -190
-335 -41 -162 -19 -333 62 -496 33 -66 61 -104 128 -171 94 -95 175 -146 298
-187 67 -23 94 -26 212 -26 118 0 145 3 212 26 123 41 204 92 298 187 98 99
157 202 190 335 41 162 19 333 -62 496 -33 66 -61 104 -128 171 -95 96 -177
147 -298 186 -96 31 -266 40 -357 19z"/>
<path d="M2335 8524 c-539 -40 -986 -73 -992 -73 -10 -1 -13 -53 -13 -224 l0
-224 248 -6 c540 -15 724 -75 818 -270 63 -131 59 58 59 -3102 l0 -2890 -23
-165 c-95 -691 -329 -1091 -707 -1207 -49 -15 -92 -18 -230 -17 -227 1 -375
27 -588 105 l-89 31 55 23 c88 36 146 73 211 139 261 261 226 741 -69 951
-153 110 -335 148 -522 109 -247 -51 -424 -226 -479 -472 -32 -146 -5 -362 66
-518 66 -147 225 -326 377 -427 150 -100 380 -193 581 -237 606 -132 1173 -1
1618 373 361 303 596 720 697 1232 l21 110 3 3418 3 3417 -32 -1 c-18 -1 -474
-34 -1013 -75z"/>
</g>
</svg>
