<?xml version="1.0" standalone="no"?>
<!DOCTYPE svg PUBLIC "-//W3C//DTD SVG 20010904//EN"
 "http://www.w3.org/TR/2001/REC-SVG-20010904/DTD/svg10.dtd">
<svg version="1.0" xmlns="http://www.w3.org/2000/svg"
 width="333.000000pt" height="1384.000000pt" viewBox="0 0 333.000000 1384.000000"
 preserveAspectRatio="xMidYMid meet">
<metadata>
Created by potrace 1.16, written by Peter Selinger 2001-2019
</metadata>
<g transform="translate(0.000000,1384.000000) scale(0.100000,-0.100000)"
fill="#000000" stroke="none">
<path d="M2886 13825 c-33 -18 -157 -120 -301 -250 -984 -886 -1712 -2073
-2139 -3488 -226 -750 -360 -1507 -423 -2387 -13 -186 -17 -373 -17 -780 0
-653 17 -942 89 -1515 105 -827 316 -1656 606 -2383 409 -1024 1012 -1934
1732 -2616 153 -145 320 -292 406 -359 l54 -42 145 -3 c80 -2 160 -1 178 3 67
12 115 91 100 162 -4 18 -43 66 -98 123 -326 340 -561 629 -794 980 -941 1413
-1414 3302 -1414 5650 0 2348 473 4237 1414 5650 233 350 477 651 791 975 112
116 126 152 87 224 -33 61 -66 71 -237 71 -114 0 -157 -4 -179 -15z"/>
</g>
</svg>
