<?xml version="1.0" standalone="no"?>
<!DOCTYPE svg PUBLIC "-//W3C//DTD SVG 20010904//EN"
 "http://www.w3.org/TR/2001/REC-SVG-20010904/DTD/svg10.dtd">
<svg version="1.0" xmlns="http://www.w3.org/2000/svg"
 width="492.000000pt" height="572.000000pt" viewBox="0 0 492.000000 572.000000"
 preserveAspectRatio="xMidYMid meet">
<metadata>
Created by potrace 1.16, written by Peter Selinger 2001-2019
</metadata>
<g transform="translate(0.000000,572.000000) scale(0.100000,-0.100000)"
fill="#000000" stroke="none">
<path d="M2357 5710 c-99 -25 -204 -106 -247 -189 -44 -88 -45 -66 62 -1228
56 -601 99 -1096 95 -1099 -3 -3 -387 274 -854 617 -466 343 -865 633 -888
644 -32 16 -60 20 -135 20 -88 0 -101 -3 -162 -33 -233 -115 -297 -436 -121
-609 44 -44 137 -90 1021 -508 534 -253 971 -462 971 -465 0 -3 -437 -212
-971 -465 -884 -418 -977 -464 -1021 -508 -176 -173 -112 -494 121 -609 61
-30 74 -33 162 -33 75 0 103 4 135 20 23 11 422 301 888 644 467 343 851 620
854 617 4 -3 -39 -498 -95 -1099 -78 -844 -99 -1103 -92 -1139 21 -107 97
-198 208 -251 61 -29 75 -32 167 -32 92 0 106 3 167 32 111 53 187 144 208
251 7 36 -14 295 -92 1139 -56 601 -99 1096 -95 1099 3 3 387 -274 854 -617
466 -343 865 -633 888 -644 32 -16 60 -20 135 -20 88 0 101 3 162 33 233 115
297 436 121 609 -44 44 -137 90 -1021 508 -534 253 -971 462 -971 465 0 3 437
212 971 465 884 418 977 464 1021 508 176 173 112 494 -121 609 -61 30 -74 33
-162 33 -75 0 -103 -4 -135 -20 -23 -11 -422 -301 -888 -644 -467 -343 -851
-620 -854 -617 -4 3 39 498 95 1099 78 844 99 1103 92 1139 -21 106 -97 199
-206 250 -52 24 -81 31 -147 34 -45 2 -99 -1 -120 -6z"/>
</g>
</svg>
