<?xml version="1.0" standalone="no"?>
<!DOCTYPE svg PUBLIC "-//W3C//DTD SVG 20010904//EN"
 "http://www.w3.org/TR/2001/REC-SVG-20010904/DTD/svg10.dtd">
<svg version="1.0" xmlns="http://www.w3.org/2000/svg"
 width="454.000000pt" height="906.000000pt" viewBox="0 0 454.000000 906.000000"
 preserveAspectRatio="xMidYMid meet">
<metadata>
Created by potrace 1.16, written by Peter Selinger 2001-2019
</metadata>
<g transform="translate(0.000000,906.000000) scale(0.100000,-0.100000)"
fill="#000000" stroke="none">
<path d="M3220 9046 c-66 -19 -133 -50 -187 -87 -45 -31 -1693 -1656 -1693
-1669 0 -16 323 -435 333 -432 34 9 2010 1120 2056 1155 96 74 174 193 201
306 21 88 9 231 -27 322 -72 183 -217 329 -389 390 -73 27 -228 35 -294 15z"/>
<path d="M1950 6334 c-261 -21 -331 -28 -430 -45 -798 -135 -1280 -531 -1453
-1194 -49 -185 -61 -284 -61 -510 -1 -185 2 -222 22 -314 75 -335 240 -615
507 -862 224 -206 521 -376 847 -484 170 -56 252 -74 995 -219 183 -36 374
-79 425 -96 426 -143 742 -451 823 -801 73 -320 -23 -736 -217 -944 -167 -179
-378 -277 -703 -327 -204 -31 -599 -31 -765 -1 -213 40 -386 108 -549 217
-393 262 -668 736 -820 1410 -17 75 -38 147 -46 160 -32 48 -69 56 -252 56
-188 0 -213 -7 -253 -72 -20 -32 -20 -53 -20 -1118 0 -1032 1 -1087 18 -1119
29 -53 72 -71 172 -71 49 1 95 6 108 13 12 7 139 124 282 260 l260 248 72 -61
c293 -248 691 -408 1112 -449 226 -22 599 -10 866 29 694 101 1182 416 1430
925 126 257 194 555 207 906 13 358 -47 629 -208 938 -83 161 -173 284 -314
430 -200 206 -377 336 -630 461 -223 111 -417 170 -810 246 -917 180 -927 182
-1112 269 -392 184 -590 464 -569 805 29 480 307 741 883 827 174 26 648 25
788 -1 298 -55 522 -168 710 -360 229 -234 337 -508 363 -921 13 -206 25 -215
279 -215 190 0 221 9 255 71 17 32 18 81 18 924 0 843 -1 892 -18 924 -29 53
-72 71 -172 71 -102 0 -83 10 -339 -188 l-194 -150 -66 43 c-197 127 -469 225
-756 270 -95 16 -568 29 -685 19z"/>
</g>
</svg>
