<?xml version="1.0" standalone="no"?>
<!DOCTYPE svg PUBLIC "-//W3C//DTD SVG 20010904//EN"
 "http://www.w3.org/TR/2001/REC-SVG-20010904/DTD/svg10.dtd">
<svg version="1.0" xmlns="http://www.w3.org/2000/svg"
 width="688.000000pt" height="880.000000pt" viewBox="0 0 688.000000 880.000000"
 preserveAspectRatio="xMidYMid meet">
<metadata>
Created by potrace 1.16, written by Peter Selinger 2001-2019
</metadata>
<g transform="translate(0.000000,880.000000) scale(0.100000,-0.100000)"
fill="#000000" stroke="none">
<path d="M2740 8788 c-339 -31 -686 -131 -1015 -293 -314 -154 -557 -327 -800
-570 -462 -461 -769 -1062 -880 -1719 -121 -720 9 -1495 357 -2131 453 -825
1224 -1377 2108 -1510 151 -22 440 -30 585 -16 604 61 1142 340 1567 814 l78
87 -2 -1322 -3 -1323 -24 -59 c-33 -84 -92 -139 -173 -164 -126 -39 -374 -61
-690 -62 l-178 0 0 -261 0 -261 93 6 c609 41 2405 41 3015 0 l92 -6 0 261 0
261 -177 0 c-317 1 -565 23 -691 62 -81 25 -140 80 -173 164 l-24 59 -3 3998
-2 3997 -206 -2 -206 -3 -240 -582 -241 -582 -79 122 c-347 531 -824 875
-1388 1001 -202 44 -456 57 -700 34z m690 -467 c245 -49 449 -150 657 -325
289 -242 541 -658 663 -1093 l30 -106 0 -1233 0 -1232 -34 -79 c-229 -536
-622 -963 -1063 -1157 -227 -100 -420 -140 -673 -140 -227 1 -341 25 -527 115
-529 254 -974 925 -1142 1724 -136 645 -117 1331 54 1910 52 176 100 298 190
480 134 273 282 484 469 670 276 274 588 438 921 484 102 14 343 5 455 -18z"/>
</g>
</svg>
