<?xml version="1.0" standalone="no"?>
<!DOCTYPE svg PUBLIC "-//W3C//DTD SVG 20010904//EN"
 "http://www.w3.org/TR/2001/REC-SVG-20010904/DTD/svg10.dtd">
<svg version="1.0" xmlns="http://www.w3.org/2000/svg"
 width="514.000000pt" height="1032.000000pt" viewBox="0 0 514.000000 1032.000000"
 preserveAspectRatio="xMidYMid meet">
<metadata>
Created by potrace 1.16, written by Peter Selinger 2001-2019
</metadata>
<g transform="translate(0.000000,1032.000000) scale(0.100000,-0.100000)"
fill="#000000" stroke="none">
<path d="M3920 10301 c-304 -67 -514 -263 -606 -566 -25 -81 -28 -105 -28
-245 0 -140 3 -164 28 -245 86 -285 287 -483 562 -556 113 -30 284 -36 399
-14 102 19 222 62 278 101 21 14 41 23 44 21 11 -11 -40 -239 -82 -363 -157
-473 -471 -865 -894 -1115 -83 -49 -111 -85 -111 -142 0 -55 17 -81 127 -189
141 -139 165 -145 294 -67 305 184 618 498 819 819 251 401 395 934 377 1389
-23 571 -327 1025 -774 1157 -121 36 -310 42 -433 15z"/>
<path d="M1686 8488 c-35 -889 -285 -1624 -701 -2056 -253 -264 -544 -404
-888 -428 l-97 -7 0 -253 0 -254 540 0 539 0 4 -1992 3 -1993 21 -133 c41
-247 96 -422 190 -603 216 -417 592 -660 1153 -746 166 -25 523 -25 638 0 284
63 496 180 708 391 235 235 400 544 487 911 49 204 57 325 57 852 l0 483 -274
0 -274 0 -5 -537 c-4 -565 -8 -611 -57 -818 -62 -264 -187 -492 -338 -618
-169 -141 -398 -174 -635 -92 -273 95 -428 336 -494 771 -15 99 -17 303 -20
2117 l-4 2007 936 0 935 0 0 310 0 310 -935 0 -935 0 0 1275 0 1275 -273 0
-274 0 -7 -172z"/>
</g>
</svg>
