<?xml version="1.0" standalone="no"?>
<!DOCTYPE svg PUBLIC "-//W3C//DTD SVG 20010904//EN"
 "http://www.w3.org/TR/2001/REC-SVG-20010904/DTD/svg10.dtd">
<svg version="1.0" xmlns="http://www.w3.org/2000/svg"
 width="710.000000pt" height="907.000000pt" viewBox="0 0 710.000000 907.000000"
 preserveAspectRatio="xMidYMid meet">
<metadata>
Created by potrace 1.16, written by Peter Selinger 2001-2019
</metadata>
<g transform="translate(0.000000,907.000000) scale(0.100000,-0.100000)"
fill="#000000" stroke="none">
<path d="M0 8848 l0 -225 343 -6 c619 -11 822 -45 915 -152 42 -47 77 -118 91
-183 16 -76 16 -7418 0 -7494 -14 -65 -49 -136 -91 -183 -93 -107 -296 -141
-915 -152 l-343 -6 0 -225 0 -224 122 6 c363 19 1011 29 1813 29 802 0 1450
-10 1813 -29 l122 -6 0 224 0 225 -342 6 c-620 11 -823 45 -916 152 -42 47
-77 118 -91 183 -8 37 -11 288 -11 812 l0 760 993 0 c624 0 1034 4 1103 11
670 65 1265 329 1722 764 781 744 979 1839 503 2773 -241 472 -649 872 -1151
1127 -322 163 -683 268 -1049 305 -63 6 -494 10 -1112 10 l-1009 0 0 440 c0
287 4 457 11 492 14 65 49 136 91 183 93 107 296 141 916 152 l342 6 0 225 0
224 -122 -6 c-760 -39 -2866 -39 -3625 0 l-123 6 0 -224z m4441 -1980 c397
-109 732 -378 965 -775 316 -536 406 -1260 234 -1874 -214 -759 -804 -1312
-1492 -1399 -50 -6 -384 -10 -860 -10 l-778 0 0 2045 0 2046 918 -3 917 -3 96
-27z"/>
</g>
</svg>
