<?xml version="1.0" standalone="no"?>
<!DOCTYPE svg PUBLIC "-//W3C//DTD SVG 20010904//EN"
 "http://www.w3.org/TR/2001/REC-SVG-20010904/DTD/svg10.dtd">
<svg version="1.0" xmlns="http://www.w3.org/2000/svg"
 width="1217.000000pt" height="967.000000pt" viewBox="0 0 1217.000000 967.000000"
 preserveAspectRatio="xMidYMid meet">
<metadata>
Created by potrace 1.16, written by Peter Selinger 2001-2019
</metadata>
<g transform="translate(0.000000,967.000000) scale(0.100000,-0.100000)"
fill="#000000" stroke="none">
<path d="M4190 9664 c-19 -2 -91 -9 -160 -15 -376 -33 -819 -146 -1194 -305
-1303 -552 -2302 -1759 -2671 -3227 -72 -287 -113 -526 -147 -862 -16 -163
-16 -745 0 -910 43 -427 116 -784 234 -1145 202 -620 522 -1193 937 -1675 635
-739 1491 -1251 2406 -1439 376 -78 778 -104 1087 -71 196 21 342 47 693 125
377 83 479 104 660 132 l140 22 2717 3 2716 3 6 28 c3 15 125 781 271 1702
146 921 268 1687 271 1702 l6 28 -186 0 -185 0 -6 -32 c-3 -18 -26 -157 -51
-308 -128 -777 -254 -1244 -435 -1619 -151 -314 -294 -483 -554 -657 -260
-173 -582 -286 -980 -343 -303 -43 -383 -46 -1450 -46 -948 0 -1026 1 -1104
18 -163 35 -224 92 -250 232 -8 41 -11 617 -11 1923 l0 1864 873 -5 c725 -4
893 -7 997 -21 481 -62 707 -185 859 -466 108 -201 161 -501 161 -912 l0 -148
185 0 185 0 0 1775 0 1775 -185 0 -185 0 0 -147 c0 -412 -53 -712 -161 -913
-152 -281 -378 -404 -859 -466 -104 -14 -272 -17 -997 -21 l-873 -5 0 1684 c0
1176 3 1702 11 1743 25 137 85 194 239 231 68 16 160 18 990 22 1134 4 1372
-6 1707 -73 256 -52 519 -160 697 -286 434 -308 653 -846 790 -1939 15 -113
29 -222 32 -242 l6 -38 185 0 185 0 -6 38 c-3 20 -85 685 -181 1477 -96 792
-178 1457 -181 1477 l-6 38 -2621 3 -2622 3 -140 22 c-181 28 -283 49 -660
132 -351 78 -497 104 -693 125 -121 13 -394 18 -492 9z m465 -344 c434 -40
751 -187 914 -424 174 -252 271 -733 313 -1546 18 -350 18 -4680 0 -5030 -42
-813 -139 -1294 -313 -1546 -190 -277 -603 -435 -1139 -434 -812 1 -1579 480
-2154 1345 -509 765 -795 1638 -892 2725 -23 246 -26 891 -6 1110 60 651 190
1191 413 1713 242 565 598 1076 991 1423 571 503 1198 726 1873 664z"/>
</g>
</svg>
