<?xml version="1.0" standalone="no"?>
<!DOCTYPE svg PUBLIC "-//W3C//DTD SVG 20010904//EN"
 "http://www.w3.org/TR/2001/REC-SVG-20010904/DTD/svg10.dtd">
<svg version="1.0" xmlns="http://www.w3.org/2000/svg"
 width="260.000000pt" height="218.000000pt" viewBox="0 0 260.000000 218.000000"
 preserveAspectRatio="xMidYMid meet">
<metadata>
Created by potrace 1.16, written by Peter Selinger 2001-2019
</metadata>
<g transform="translate(0.000000,218.000000) scale(0.100000,-0.100000)"
fill="#000000" stroke="none">
<path d="M1145 2174 c-375 -54 -618 -165 -836 -383 -146 -146 -228 -287 -281
-479 -31 -110 -31 -334 0 -444 53 -192 135 -333 281 -479 191 -191 427 -311
716 -365 139 -26 401 -26 540 0 289 54 525 174 716 365 146 146 228 287 281
479 31 110 31 334 0 444 -53 192 -135 333 -281 479 -186 186 -411 304 -690
360 -92 19 -374 33 -446 23z m380 -344 c381 -44 600 -213 672 -517 25 -108 25
-338 0 -446 -59 -251 -238 -425 -497 -486 -234 -55 -576 -55 -810 0 -259 61
-438 235 -497 486 -25 108 -25 338 0 446 71 299 293 473 659 516 105 12 368
13 473 1z"/>
</g>
</svg>
