<?xml version="1.0" standalone="no"?>
<!DOCTYPE svg PUBLIC "-//W3C//DTD SVG 20010904//EN"
 "http://www.w3.org/TR/2001/REC-SVG-20010904/DTD/svg10.dtd">
<svg version="1.0" xmlns="http://www.w3.org/2000/svg"
 width="659.000000pt" height="845.000000pt" viewBox="0 0 659.000000 845.000000"
 preserveAspectRatio="xMidYMid meet">
<metadata>
Created by potrace 1.16, written by Peter Selinger 2001-2019
</metadata>
<g transform="translate(0.000000,845.000000) scale(0.100000,-0.100000)"
fill="#000000" stroke="none">
<path d="M2670 8439 c-539 -51 -1084 -269 -1515 -606 -555 -435 -941 -1059
-1090 -1763 -94 -446 -85 -936 26 -1390 289 -1184 1216 -2057 2361 -2225 149
-22 421 -30 562 -16 407 40 787 195 1128 461 104 82 304 281 383 382 l60 77 3
-1262 c2 -883 -1 -1281 -8 -1327 -22 -128 -77 -208 -171 -249 -96 -43 -365
-71 -681 -71 l-168 0 0 -226 0 -226 98 6 c617 39 2207 39 2825 0 l97 -6 0 226
0 226 -167 0 c-317 0 -586 28 -682 71 -56 24 -106 71 -133 123 -50 98 -48
-106 -48 3989 l0 3817 -166 -2 -166 -3 -239 -575 c-131 -316 -241 -581 -244
-589 -3 -9 -37 38 -83 115 -198 331 -439 586 -725 767 -223 142 -524 247 -789
276 -110 12 -340 12 -468 0z m643 -399 c440 -92 816 -405 1078 -894 68 -127
153 -346 200 -510 l39 -139 0 -1163 0 -1163 -31 -78 c-123 -312 -348 -651
-566 -853 -320 -296 -675 -448 -1088 -466 -377 -17 -717 133 -1023 451 -386
400 -640 970 -731 1641 -134 979 76 1890 580 2525 310 389 691 618 1119 673
80 10 327 -4 423 -24z"/>
</g>
</svg>
