<?xml version="1.0" standalone="no"?>
<!DOCTYPE svg PUBLIC "-//W3C//DTD SVG 20010904//EN"
 "http://www.w3.org/TR/2001/REC-SVG-20010904/DTD/svg10.dtd">
<svg version="1.0" xmlns="http://www.w3.org/2000/svg"
 width="609.000000pt" height="1122.000000pt" viewBox="0 0 609.000000 1122.000000"
 preserveAspectRatio="xMidYMid meet">
<metadata>
Created by potrace 1.16, written by Peter Selinger 2001-2019
</metadata>
<g transform="translate(0.000000,1122.000000) scale(0.100000,-0.100000)"
fill="#000000" stroke="none">
<path d="M934 11113 c57 -892 813 -1605 1805 -1703 684 -67 1392 208 1808 703
246 294 386 635 409 1000 l7 107 -170 0 -170 0 -6 -83 c-21 -267 -151 -528
-359 -722 -246 -228 -572 -375 -983 -442 -154 -25 -506 -25 -660 0 -411 67
-737 214 -983 442 -208 194 -338 455 -359 722 l-6 83 -170 0 -170 0 7 -107z"/>
<path d="M5250 8753 c-445 -45 -863 -235 -1172 -531 l-86 -83 -62 45 c-213
157 -497 286 -785 357 -212 52 -318 64 -570 64 -252 0 -358 -12 -570 -64 -721
-177 -1284 -666 -1505 -1308 -22 -64 -53 -174 -67 -243 -24 -113 -27 -146 -27
-335 0 -189 3 -222 27 -335 78 -367 247 -685 508 -955 l67 -70 -69 -95 c-135
-186 -246 -441 -301 -690 -19 -91 -22 -134 -22 -320 0 -201 1 -223 28 -335 36
-154 66 -235 133 -368 83 -163 182 -290 304 -392 38 -32 69 -61 69 -64 0 -4
-26 -15 -57 -25 -99 -31 -261 -107 -368 -171 -438 -263 -700 -655 -722 -1081
-27 -521 324 -991 996 -1332 434 -221 883 -344 1471 -404 166 -17 784 -17 950
0 588 60 1037 183 1471 404 654 332 1000 780 999 1292 -1 610 -278 1155 -740
1459 -279 183 -708 333 -1130 396 -341 50 -594 61 -1490 61 -801 1 -834 3
-958 53 -201 81 -364 251 -451 467 -83 209 -83 496 0 710 23 61 106 220 123
238 3 2 49 -23 103 -57 197 -121 422 -214 658 -272 212 -52 318 -64 570 -64
252 0 358 12 570 64 721 177 1284 666 1505 1308 22 64 53 174 67 243 24 113
27 146 27 335 0 189 -3 222 -27 335 -68 321 -206 604 -416 853 l-80 96 72 62
c293 247 654 392 1039 415 l111 7 -52 -48 c-150 -141 -167 -401 -36 -561 107
-131 311 -179 480 -113 84 32 183 131 215 214 51 134 32 327 -50 484 -124 238
-337 364 -609 359 -58 0 -122 -3 -141 -5z m-2445 -528 c235 -49 462 -184 607
-361 154 -189 234 -394 274 -709 26 -202 26 -798 0 -1000 -59 -458 -226 -747
-545 -939 -172 -103 -349 -151 -566 -151 -217 0 -394 48 -566 151 -256 154
-419 380 -499 689 -52 201 -64 348 -64 750 0 289 3 388 18 500 21 163 62 329
106 434 149 349 453 585 834 647 102 17 294 11 401 -11z m650 -5425 c514 -28
846 -101 1149 -252 130 -65 176 -97 267 -187 128 -129 209 -269 251 -438 31
-122 30 -323 0 -436 -47 -171 -138 -315 -306 -483 -331 -330 -825 -542 -1451
-621 -196 -24 -644 -24 -840 0 -626 79 -1120 291 -1451 621 -128 128 -182 199
-245 326 -63 125 -82 212 -83 375 -1 147 8 208 51 340 125 394 493 701 906
754 90 12 1538 12 1752 1z"/>
</g>
</svg>
