<?xml version="1.0" standalone="no"?>
<!DOCTYPE svg PUBLIC "-//W3C//DTD SVG 20010904//EN"
 "http://www.w3.org/TR/2001/REC-SVG-20010904/DTD/svg10.dtd">
<svg version="1.0" xmlns="http://www.w3.org/2000/svg"
 width="766.000000pt" height="1086.000000pt" viewBox="0 0 766.000000 1086.000000"
 preserveAspectRatio="xMidYMid meet">
<metadata>
Created by potrace 1.16, written by Peter Selinger 2001-2019
</metadata>
<g transform="translate(0.000000,1086.000000) scale(0.100000,-0.100000)"
fill="#000000" stroke="none">
<path d="M5740 10854 c-343 -66 -565 -283 -635 -619 -41 -194 5 -430 115 -598
96 -148 248 -258 426 -309 66 -19 103 -23 224 -23 121 0 158 4 224 23 100 29
221 91 282 145 l47 41 -7 -74 c-36 -378 -215 -798 -466 -1095 -139 -164 -299
-307 -458 -407 -141 -90 -166 -111 -181 -154 -9 -24 -11 -52 -7 -69 8 -33 136
-169 180 -192 45 -23 93 -11 192 50 536 332 927 866 1084 1482 60 233 74 348
75 590 0 184 -3 223 -23 314 -76 337 -236 598 -461 750 -146 99 -280 142 -461
146 -69 2 -136 1 -150 -1z"/>
<path d="M0 9193 l0 -260 373 -6 c717 -12 882 -44 981 -190 72 -107 66 262 66
-4012 0 -4274 6 -3905 -66 -4012 -99 -146 -264 -178 -981 -190 l-373 -6 0
-259 0 -258 3634 0 3634 0 6 48 c4 26 87 828 186 1782 99 954 182 1756 186
1783 l6 47 -226 0 c-124 0 -226 -3 -226 -7 0 -33 -66 -583 -86 -718 -158
-1066 -466 -1645 -1079 -2030 -294 -185 -669 -307 -1115 -362 -129 -16 -237
-18 -975 -18 -857 0 -908 2 -1029 41 -64 21 -119 77 -142 145 -18 52 -19 170
-19 3974 l0 3920 22 47 c30 65 102 139 166 172 140 70 567 105 1290 106 l297
0 0 261 0 262 -152 -7 c-979 -41 -3424 -41 -4250 0 l-128 7 0 -260z"/>
</g>
</svg>
