<?xml version="1.0" standalone="no"?>
<!DOCTYPE svg PUBLIC "-//W3C//DTD SVG 20010904//EN"
 "http://www.w3.org/TR/2001/REC-SVG-20010904/DTD/svg10.dtd">
<svg version="1.0" xmlns="http://www.w3.org/2000/svg"
 width="798.000000pt" height="900.000000pt" viewBox="0 0 798.000000 900.000000"
 preserveAspectRatio="xMidYMid meet">
<metadata>
Created by potrace 1.16, written by Peter Selinger 2001-2019
</metadata>
<g transform="translate(0.000000,900.000000) scale(0.100000,-0.100000)"
fill="#000000" stroke="none">
<path d="M4895 8994 c-951 -76 -1811 -486 -2490 -1186 -569 -585 -944 -1274
-1165 -2135 l-11 -43 -478 0 -478 0 -137 -369 c-75 -203 -136 -372 -136 -375
0 -3 249 -6 553 -6 l552 0 0 -380 0 -380 -416 0 -416 0 -137 -369 c-75 -203
-136 -372 -136 -375 0 -3 277 -6 615 -6 l614 0 11 -42 c173 -676 430 -1223
813 -1727 483 -637 1105 -1107 1817 -1373 245 -91 567 -170 845 -205 196 -25
644 -25 840 0 479 61 956 216 1365 444 245 136 536 341 703 494 l48 44 -3 553
-3 553 -105 -133 c-127 -161 -375 -412 -525 -532 -223 -178 -480 -336 -726
-445 -756 -333 -1592 -333 -2348 0 -174 77 -303 149 -476 264 -197 131 -336
246 -510 420 -361 360 -642 794 -839 1293 -54 136 -126 353 -126 379 0 11 373
13 2186 15 l2186 3 134 364 c74 201 134 368 134 373 0 4 -1075 8 -2390 8
l-2389 0 -8 38 c-10 48 -10 636 0 685 l8 37 2532 0 2533 0 133 363 c74 199
136 368 138 375 4 9 -519 12 -2596 12 -2162 0 -2601 2 -2601 13 0 26 72 243
126 379 197 499 478 933 839 1293 481 482 1056 787 1687 895 632 107 1305 -9
1882 -326 139 -76 359 -224 491 -330 150 -120 398 -371 525 -532 57 -72 107
-132 111 -132 3 0 72 180 152 400 108 294 145 405 138 418 -16 30 -293 295
-411 393 -157 130 -215 173 -366 272 -493 323 -1023 522 -1585 597 -149 20
-573 34 -704 24z m704 -34 c562 -75 1092 -274 1585 -597 152 -99 209 -142 366
-272 119 -99 385 -353 401 -383 7 -13 -28 -119 -133 -406 -79 -214 -146 -391
-149 -393 -3 -2 -52 55 -109 126 -127 159 -376 410 -525 529 -223 178 -480
336 -726 445 -756 333 -1592 333 -2348 0 -174 -77 -303 -149 -476 -264 -198
-132 -337 -246 -515 -425 -366 -365 -646 -796 -844 -1298 -68 -172 -130 -368
-122 -387 5 -13 322 -15 2599 -17 l2594 -3 -118 -320 c-65 -176 -126 -339
-135 -362 l-16 -43 -2529 0 -2529 0 -12 -27 c-16 -39 -16 -687 0 -726 l12 -27
2386 0 c1905 0 2385 -3 2381 -12 -2 -7 -62 -172 -133 -365 l-129 -353 -2183 0
c-1917 0 -2183 -2 -2188 -15 -8 -19 54 -215 122 -387 198 -502 478 -933 844
-1298 301 -302 625 -527 991 -689 756 -333 1592 -333 2348 0 246 109 503 267
726 445 148 118 398 370 523 527 l102 127 0 -544 0 -545 -112 -94 c-154 -128
-212 -171 -364 -270 -503 -329 -1043 -530 -1629 -604 -196 -25 -644 -25 -840
0 -1234 157 -2306 896 -2971 2049 -188 325 -356 733 -455 1102 -22 83 -44 161
-49 174 l-10 22 -610 0 c-335 0 -610 1 -610 3 0 1 61 164 134 362 l134 360
418 5 418 5 0 385 0 385 -552 3 c-304 1 -552 3 -552 5 0 1 61 164 134 362
l134 360 476 3 477 2 9 23 c5 12 27 90 49 173 279 1043 926 1967 1771 2529
568 378 1163 585 1835 639 131 10 555 -4 704 -24z"/>
</g>
</svg>
