<?xml version="1.0" standalone="no"?>
<!DOCTYPE svg PUBLIC "-//W3C//DTD SVG 20010904//EN"
 "http://www.w3.org/TR/2001/REC-SVG-20010904/DTD/svg10.dtd">
<svg version="1.0" xmlns="http://www.w3.org/2000/svg"
 width="899.000000pt" height="938.000000pt" viewBox="0 0 899.000000 938.000000"
 preserveAspectRatio="xMidYMid meet">
<metadata>
Created by potrace 1.16, written by Peter Selinger 2001-2019
</metadata>
<g transform="translate(0.000000,938.000000) scale(0.100000,-0.100000)"
fill="#000000" stroke="none">
<path d="M4980 9374 c-19 -2 -80 -9 -135 -15 -384 -40 -825 -184 -1193 -390
-779 -436 -1397 -1161 -1797 -2109 -84 -198 -204 -566 -260 -797 l-50 -203
-440 0 -440 0 -127 -387 -126 -388 511 -3 512 -2 0 -390 0 -390 -385 0 -385 0
-127 -387 -126 -388 566 -3 567 -2 50 -203 c56 -231 176 -599 260 -797 400
-948 1018 -1673 1797 -2109 367 -205 781 -341 1198 -393 137 -17 563 -17 700
0 579 72 1126 297 1615 665 86 65 164 130 288 241 l77 70 0 624 0 624 -75
-112 c-372 -557 -862 -972 -1395 -1182 -562 -221 -1158 -221 -1720 0 -351 139
-695 373 -975 663 -399 414 -690 899 -889 1477 -46 135 -126 404 -126 425 0 4
900 7 2000 7 l1999 0 126 383 c69 211 125 386 125 390 0 4 -983 7 -2185 7
l-2185 0 -7 28 c-10 35 -10 689 0 725 l7 27 2315 0 2314 0 126 383 c69 211
125 386 125 390 0 4 -1071 7 -2380 7 -1309 0 -2380 3 -2380 7 0 21 80 290 126
425 131 381 318 750 529 1045 478 667 1084 1087 1758 1218 726 142 1465 -73
2082 -606 212 -182 439 -443 610 -699 68 -103 76 -110 84 -88 5 12 73 219 151
460 l143 436 -95 109 c-108 122 -247 258 -393 384 -516 442 -1108 715 -1746
804 -108 15 -539 28 -619 19z"/>
</g>
</svg>
