<?xml version="1.0" standalone="no"?>
<!DOCTYPE svg PUBLIC "-//W3C//DTD SVG 20010904//EN"
 "http://www.w3.org/TR/2001/REC-SVG-20010904/DTD/svg10.dtd">
<svg version="1.0" xmlns="http://www.w3.org/2000/svg"
 width="785.000000pt" height="992.000000pt" viewBox="0 0 785.000000 992.000000"
 preserveAspectRatio="xMidYMid meet">
<metadata>
Created by potrace 1.16, written by Peter Selinger 2001-2019
</metadata>
<g transform="translate(0.000000,992.000000) scale(0.100000,-0.100000)"
fill="#000000" stroke="none">
<path d="M4870 9914 c-19 -2 -84 -9 -145 -15 -852 -85 -1699 -545 -2332 -1264
-441 -501 -782 -1104 -1007 -1776 -55 -167 -131 -438 -161 -581 l-17 -78 -468
0 -469 0 -85 -262 c-47 -145 -107 -332 -134 -415 l-50 -153 542 0 541 0 0
-410 0 -410 -407 0 -407 0 -85 -262 c-47 -145 -107 -332 -134 -416 l-50 -152
603 0 603 0 17 -77 c86 -405 243 -854 434 -1248 156 -321 312 -576 516 -844
674 -885 1549 -1410 2555 -1533 135 -16 535 -16 670 0 757 92 1412 398 2018
941 l102 92 0 661 0 660 -71 -108 c-465 -705 -1113 -1193 -1814 -1365 -212
-52 -318 -64 -570 -64 -252 0 -358 12 -570 64 -187 46 -345 105 -531 196 -521
256 -971 677 -1334 1247 -155 244 -353 661 -455 962 -33 97 -115 385 -115 403
0 11 376 13 2109 13 l2109 0 61 188 c34 103 94 289 135 414 l74 228 -2313 0
-2312 0 -6 128 c-9 162 -9 402 0 565 l6 127 2447 0 2446 0 136 415 135 415
-2513 0 c-2067 0 -2514 2 -2514 13 0 18 82 306 115 403 102 301 300 718 455
962 363 570 813 991 1334 1247 251 123 491 200 761 242 154 24 526 24 680 0
553 -86 1065 -347 1508 -767 194 -184 406 -441 551 -667 33 -51 60 -92 61 -90
1 1 73 219 159 485 134 411 155 486 144 500 -51 67 -224 255 -315 342 -601
580 -1295 925 -2064 1025 -109 15 -506 28 -579 19z m579 -29 c766 -100 1460
-443 2059 -1019 86 -83 260 -272 310 -338 11 -14 -10 -87 -140 -487 -84 -259
-155 -471 -158 -471 -3 0 -27 35 -55 78 -193 298 -486 624 -755 841 -319 256
-704 451 -1075 542 -212 52 -318 64 -570 64 -252 0 -358 -12 -570 -64 -187
-46 -345 -105 -531 -196 -522 -257 -980 -685 -1344 -1257 -163 -256 -362 -680
-464 -991 -54 -165 -108 -367 -102 -383 5 -12 371 -14 2511 -14 1378 0 2505
-3 2505 -6 0 -4 -59 -186 -130 -405 l-131 -399 -2445 0 c-2319 0 -2445 -1
-2452 -17 -9 -23 -9 -783 0 -805 7 -17 127 -18 2313 -18 1268 0 2305 -3 2305
-8 0 -4 -58 -185 -129 -402 l-128 -395 -2107 -3 c-1794 -2 -2107 -4 -2112 -16
-6 -16 48 -218 102 -383 102 -311 301 -735 464 -991 486 -762 1146 -1274 1875
-1453 212 -52 318 -64 570 -64 252 0 358 12 570 64 371 91 756 286 1075 542
260 210 538 516 730 804 29 44 57 84 61 89 5 6 9 -271 9 -631 l0 -642 -107
-95 c-609 -539 -1251 -836 -2003 -928 -135 -16 -535 -16 -670 0 -1004 122
-1876 644 -2545 1523 -333 438 -604 955 -789 1510 -53 159 -124 414 -163 584
l-18 80 -597 3 c-329 1 -598 5 -598 10 0 4 58 185 128 402 l128 395 409 5 409
5 0 415 0 415 -537 3 c-295 1 -537 6 -537 10 0 4 58 185 128 402 l128 395 470
5 469 5 18 80 c103 451 244 855 436 1250 205 422 437 773 734 1110 625 711
1473 1169 2322 1254 61 6 126 13 145 15 73 9 470 -4 579 -19z"/>
</g>
</svg>
