<?xml version="1.0" standalone="no"?>
<!DOCTYPE svg PUBLIC "-//W3C//DTD SVG 20010904//EN"
 "http://www.w3.org/TR/2001/REC-SVG-20010904/DTD/svg10.dtd">
<svg version="1.0" xmlns="http://www.w3.org/2000/svg"
 width="863.000000pt" height="900.000000pt" viewBox="0 0 863.000000 900.000000"
 preserveAspectRatio="xMidYMid meet">
<metadata>
Created by potrace 1.16, written by Peter Selinger 2001-2019
</metadata>
<g transform="translate(0.000000,900.000000) scale(0.100000,-0.100000)"
fill="#000000" stroke="none">
<path d="M4690 8984 c-911 -99 -1733 -596 -2349 -1421 -364 -488 -626 -1051
-792 -1702 -27 -107 -49 -202 -49 -212 0 -18 -17 -19 -428 -19 l-428 0 -119
-362 c-65 -200 -120 -369 -123 -375 -3 -10 99 -13 489 -13 l494 0 0 -380 0
-380 -371 0 -370 0 -119 -362 c-65 -200 -120 -369 -123 -375 -3 -10 110 -13
547 -13 531 0 551 -1 551 -19 0 -10 22 -105 49 -212 166 -651 428 -1214 792
-1702 1248 -1671 3305 -1916 4795 -570 l94 85 0 601 0 601 -70 -108 c-304
-467 -707 -833 -1165 -1057 -650 -318 -1350 -318 -2000 0 -806 395 -1419 1216
-1709 2288 l-25 93 1918 0 1917 0 117 360 c65 197 120 366 123 375 6 13 -211
15 -2093 15 l-2100 0 -6 128 c-9 162 -9 342 0 505 l6 127 2223 0 2222 0 35
108 c20 59 74 225 121 369 47 144 86 265 86 268 0 3 -1028 5 -2284 5 l-2285 0
25 93 c171 634 452 1176 837 1614 394 449 919 767 1432 867 317 61 563 61 880
0 654 -127 1297 -593 1725 -1250 41 -64 71 -101 75 -93 2 8 67 207 144 443
l140 429 -94 108 c-725 823 -1747 1251 -2735 1143z"/>
</g>
</svg>
