<?xml version="1.0" standalone="no"?>
<!DOCTYPE svg PUBLIC "-//W3C//DTD SVG 20010904//EN"
 "http://www.w3.org/TR/2001/REC-SVG-20010904/DTD/svg10.dtd">
<svg version="1.0" xmlns="http://www.w3.org/2000/svg"
 width="595.000000pt" height="938.000000pt" viewBox="0 0 595.000000 938.000000"
 preserveAspectRatio="xMidYMid meet">
<metadata>
Created by potrace 1.16, written by Peter Selinger 2001-2019
</metadata>
<g transform="translate(0.000000,938.000000) scale(0.100000,-0.100000)"
fill="#000000" stroke="none">
<path d="M3591 9364 c-232 -29 -470 -103 -697 -214 -431 -212 -824 -569 -1152
-1048 -385 -562 -682 -1322 -825 -2107 l-24 -130 -348 -5 -349 -5 -93 -360
c-51 -198 -95 -372 -98 -387 l-7 -28 404 0 403 0 0 -390 0 -390 -305 -2 -304
-3 -93 -360 c-51 -198 -95 -372 -98 -387 l-7 -28 448 -2 447 -3 24 -130 c193
-1060 648 -2020 1238 -2610 82 -83 193 -185 245 -227 740 -596 1606 -711 2406
-318 248 122 474 285 715 518 l129 124 0 727 0 726 -55 -113 c-337 -697 -815
-1190 -1319 -1357 -166 -55 -252 -69 -426 -69 -174 0 -260 14 -426 69 -686
228 -1293 1029 -1609 2125 -45 157 -125 494 -125 529 0 8 448 12 1532 13
l1533 3 97 375 c53 206 97 381 97 388 1 9 -341 12 -1677 12 l-1679 0 -6 122
c-9 155 -9 381 0 536 l6 122 1781 0 1781 0 98 383 c54 210 98 385 97 390 0 4
-823 7 -1830 7 -1302 0 -1830 3 -1830 11 0 35 80 372 125 529 196 681 491
1229 881 1639 219 231 475 402 728 486 166 55 252 69 426 69 174 0 260 -14
426 -69 507 -168 988 -665 1324 -1368 l58 -121 10 40 c6 21 70 268 142 547
l131 509 -99 131 c-416 554 -950 927 -1518 1062 -221 53 -508 68 -733 39z
m508 -9 c488 -61 941 -286 1365 -677 127 -118 244 -249 368 -415 l98 -131
-137 -534 -138 -534 -52 108 c-334 693 -823 1196 -1327 1363 -166 55 -252 69
-426 69 -174 0 -260 -14 -426 -69 -616 -205 -1178 -879 -1519 -1820 -92 -255
-236 -811 -221 -852 5 -11 308 -13 1831 -13 1004 0 1825 -3 1825 -6 0 -4 -43
-173 -95 -375 -52 -203 -95 -371 -95 -374 0 -3 -801 -5 -1780 -5 -1686 0
-1781 -1 -1788 -17 -9 -23 -9 -743 0 -765 7 -17 97 -18 1684 -18 l1676 0 -6
-22 c-3 -13 -47 -184 -98 -380 l-92 -358 -1528 0 c-1274 0 -1529 -2 -1534 -13
-8 -22 62 -333 121 -537 197 -684 493 -1232 886 -1644 278 -292 583 -472 919
-543 117 -24 363 -24 480 0 407 86 766 330 1097 747 149 187 246 338 374 585
l79 150 0 -701 0 -702 -125 -120 c-237 -228 -463 -391 -709 -512 -626 -307
-1286 -307 -1912 0 -430 211 -815 562 -1142 1038 -384 560 -687 1335 -824
2102 -12 69 -26 131 -31 138 -7 9 -109 12 -449 12 -348 0 -439 3 -436 13 3 6
47 177 98 379 l94 368 304 2 305 3 0 395 0 395 -403 3 c-314 2 -401 5 -398 15
3 6 47 177 98 380 l94 367 342 0 c262 0 344 3 351 13 5 6 19 68 31 137 185
1038 649 2017 1232 2600 241 241 472 411 734 540 390 191 801 265 1205 215z"/>
</g>
</svg>
