<?xml version="1.0" standalone="no"?>
<!DOCTYPE svg PUBLIC "-//W3C//DTD SVG 20010904//EN"
 "http://www.w3.org/TR/2001/REC-SVG-20010904/DTD/svg10.dtd">
<svg version="1.0" xmlns="http://www.w3.org/2000/svg"
 width="1014.000000pt" height="952.000000pt" viewBox="0 0 1014.000000 952.000000"
 preserveAspectRatio="xMidYMid meet">
<metadata>
Created by potrace 1.16, written by Peter Selinger 2001-2019
</metadata>
<g transform="translate(0.000000,952.000000) scale(0.100000,-0.100000)"
fill="#000000" stroke="none">
<path d="M5535 9509 c-267 -23 -617 -94 -870 -177 -901 -296 -1670 -894 -2230
-1732 -299 -448 -512 -916 -661 -1454 -24 -88 -44 -168 -44 -178 0 -17 -26
-18 -512 -20 l-512 -3 -143 -385 c-78 -212 -143 -388 -143 -392 0 -5 264 -8
588 -8 l587 0 0 -400 0 -400 -445 -2 -444 -3 -143 -385 c-78 -212 -143 -388
-143 -392 0 -5 295 -8 655 -8 626 0 655 -1 655 -18 0 -10 20 -90 44 -178 207
-749 562 -1409 1056 -1969 645 -729 1523 -1220 2433 -1359 996 -153 1966 74
2829 663 140 95 312 229 398 309 l51 47 -3 587 -3 587 -87 -112 c-552 -712
-1321 -1178 -2148 -1301 -308 -46 -582 -46 -890 0 -1021 152 -1933 818 -2490
1818 -144 258 -259 534 -353 843 l-25 83 2316 2 2316 3 138 375 c76 206 141
383 144 393 5 16 -120 17 -2524 17 l-2530 0 -9 78 c-10 100 -10 544 0 645 l9
77 2677 0 2678 0 145 393 144 392 -2752 3 -2752 2 25 83 c94 309 209 585 353
843 557 1000 1469 1666 2490 1818 308 46 582 46 890 0 827 -123 1596 -589
2148 -1301 51 -66 89 -107 93 -100 30 56 309 842 304 856 -7 24 -293 304 -410
402 -667 561 -1451 891 -2278 958 -147 13 -475 12 -622 0z"/>
</g>
</svg>
