<?xml version="1.0" standalone="no"?>
<!DOCTYPE svg PUBLIC "-//W3C//DTD SVG 20010904//EN"
 "http://www.w3.org/TR/2001/REC-SVG-20010904/DTD/svg10.dtd">
<svg version="1.0" xmlns="http://www.w3.org/2000/svg"
 width="844.000000pt" height="952.000000pt" viewBox="0 0 844.000000 952.000000"
 preserveAspectRatio="xMidYMid meet">
<metadata>
Created by potrace 1.16, written by Peter Selinger 2001-2019
</metadata>
<g transform="translate(0.000000,952.000000) scale(0.100000,-0.100000)"
fill="#000000" stroke="none">
<path d="M5115 9509 c-267 -23 -617 -94 -870 -177 -901 -296 -1670 -894 -2230
-1732 -299 -448 -512 -916 -661 -1454 -24 -88 -44 -168 -44 -178 0 -17 -26
-18 -512 -20 l-512 -3 -143 -385 c-78 -212 -143 -388 -143 -392 0 -5 264 -8
588 -8 l587 0 0 -400 0 -400 -445 -2 -444 -3 -143 -385 c-78 -212 -143 -388
-143 -392 0 -5 295 -8 655 -8 626 0 655 -1 655 -18 0 -10 20 -90 44 -178 207
-749 562 -1409 1056 -1969 645 -729 1523 -1220 2433 -1359 996 -153 1966 74
2829 663 140 95 312 229 398 309 l51 47 -3 587 -3 587 -87 -112 c-552 -712
-1321 -1178 -2148 -1301 -308 -46 -582 -46 -890 0 -1021 152 -1933 818 -2490
1818 -144 258 -259 534 -353 843 l-25 83 2316 2 2316 3 138 375 c76 206 141
383 144 393 5 16 -120 17 -2524 17 l-2530 0 -9 78 c-10 100 -10 544 0 645 l9
77 2677 0 2678 0 145 393 144 392 -2752 3 -2752 2 25 83 c94 309 209 585 353
843 557 1000 1469 1666 2490 1818 308 46 582 46 890 0 827 -123 1596 -589
2148 -1301 51 -66 89 -107 93 -100 30 56 309 842 304 856 -7 24 -293 304 -410
402 -667 561 -1451 891 -2278 958 -147 13 -475 12 -622 0z m622 -10 c827 -67
1611 -398 2278 -958 117 -98 393 -368 400 -392 5 -14 -118 -361 -292 -828 -9
-22 -13 -18 -79 65 -408 524 -922 916 -1492 1139 -730 284 -1504 284 -2234 0
-659 -258 -1236 -735 -1662 -1379 -154 -231 -267 -443 -373 -701 -75 -181
-177 -488 -165 -499 3 -3 1240 -6 2749 -6 1509 0 2743 -3 2743 -7 0 -5 -63
-177 -139 -383 l-139 -375 -2678 -5 -2679 -5 -9 -50 c-11 -65 -11 -645 0 -710
l9 -50 2526 -5 2526 -5 -141 -382 -140 -383 -2311 0 c-1272 0 -2314 -3 -2317
-6 -12 -11 90 -318 165 -499 106 -258 219 -470 373 -701 426 -644 1003 -1121
1662 -1379 730 -284 1504 -284 2234 0 567 222 1090 620 1488 1134 l65 83 3
-573 3 -574 -48 -44 c-221 -203 -592 -450 -908 -606 -1100 -541 -2340 -541
-3440 0 -680 335 -1244 838 -1690 1505 -305 457 -533 964 -670 1490 -20 80
-39 151 -41 157 -3 10 -142 13 -655 13 -358 0 -649 4 -647 8 1 5 66 178 142
385 l140 377 444 2 445 3 0 405 0 405 -587 3 c-323 1 -586 6 -584 11 2 4 66
177 142 384 l140 377 508 0 c398 0 509 3 512 13 2 6 21 77 41 157 192 737 564
1437 1065 2005 491 555 1132 979 1825 1207 253 83 603 154 870 177 147 12 475
13 622 0z"/>
</g>
</svg>
