<?xml version="1.0" standalone="no"?>
<!DOCTYPE svg PUBLIC "-//W3C//DTD SVG 20010904//EN"
 "http://www.w3.org/TR/2001/REC-SVG-20010904/DTD/svg10.dtd">
<svg version="1.0" xmlns="http://www.w3.org/2000/svg"
 width="571.000000pt" height="900.000000pt" viewBox="0 0 571.000000 900.000000"
 preserveAspectRatio="xMidYMid meet">
<metadata>
Created by potrace 1.16, written by Peter Selinger 2001-2019
</metadata>
<g transform="translate(0.000000,900.000000) scale(0.100000,-0.100000)"
fill="#000000" stroke="none">
<path d="M3480 8989 c-1175 -133 -2165 -1300 -2549 -3004 -16 -71 -36 -170
-45 -220 -9 -49 -19 -100 -21 -112 l-5 -23 -337 -2 -336 -3 -93 -360 c-51
-198 -93 -366 -94 -372 0 -10 84 -13 388 -13 l387 0 0 -380 0 -380 -294 -2
-294 -3 -93 -360 c-51 -198 -93 -366 -94 -372 0 -10 92 -13 430 -13 l430 0 5
-22 c2 -13 12 -63 21 -113 9 -49 29 -148 45 -220 280 -1245 889 -2224 1679
-2700 900 -542 1924 -376 2723 443 l87 89 0 694 0 694 -59 -120 c-286 -588
-660 -1007 -1086 -1220 -387 -193 -773 -193 -1160 0 -668 333 -1209 1187
-1455 2297 -16 76 -30 147 -30 158 0 20 5 20 1465 20 806 0 1465 2 1465 5 0 4
176 694 186 728 5 16 -76 17 -1604 17 l-1609 0 -6 107 c-9 136 -9 410 0 546
l6 107 1707 0 1707 0 92 360 c50 198 94 367 97 375 5 13 -196 15 -1750 15
-1751 0 -1756 0 -1756 20 0 11 14 82 30 158 216 974 660 1756 1231 2165 118
84 326 189 444 222 328 94 629 65 940 -90 429 -214 804 -636 1090 -1228 l62
-128 71 278 c39 153 100 388 135 523 l64 245 -40 57 c-171 247 -443 528 -685
706 -449 332 -990 488 -1492 431z m418 -10 c525 -57 1031 -323 1448 -762 100
-105 233 -266 301 -365 l40 -57 -128 -495 c-71 -272 -130 -502 -131 -510 -2
-8 -27 34 -56 94 -285 587 -669 1018 -1097 1231 -142 71 -259 108 -405 130
-393 60 -794 -82 -1167 -413 -373 -332 -702 -875 -908 -1499 -84 -251 -185
-663 -172 -697 6 -15 146 -16 1755 -16 l1748 0 -86 -337 c-48 -186 -90 -350
-94 -365 l-6 -28 -1705 0 c-1223 0 -1706 -3 -1711 -11 -10 -17 -16 -552 -7
-664 l8 -100 1606 -5 1606 -5 -93 -360 c-51 -198 -93 -361 -94 -362 0 -2 -657
-3 -1460 -3 -1343 0 -1461 -1 -1467 -16 -7 -20 34 -215 88 -417 268 -995 784
-1753 1404 -2062 311 -155 612 -184 940 -90 118 33 326 138 444 222 330 237
594 562 841 1035 l70 133 0 -669 0 -668 -82 -85 c-530 -544 -1194 -813 -1836
-742 -1182 129 -2165 1282 -2551 2994 -16 72 -37 173 -46 225 -9 52 -20 105
-25 117 l-10 23 -426 0 -426 0 6 23 c3 12 45 176 93 364 l88 343 294 2 294 3
0 385 0 385 -388 3 -387 2 6 23 c3 12 45 176 93 364 l88 343 333 0 332 0 10
23 c5 12 16 65 25 117 9 52 30 154 46 225 336 1488 1131 2574 2124 2900 279
92 562 124 833 94z"/>
</g>
</svg>
