<?xml version="1.0" standalone="no"?>
<!DOCTYPE svg PUBLIC "-//W3C//DTD SVG 20010904//EN"
 "http://www.w3.org/TR/2001/REC-SVG-20010904/DTD/svg10.dtd">
<svg version="1.0" xmlns="http://www.w3.org/2000/svg"
 width="1065.000000pt" height="900.000000pt" viewBox="0 0 1065.000000 900.000000"
 preserveAspectRatio="xMidYMid meet">
<metadata>
Created by potrace 1.16, written by Peter Selinger 2001-2019
</metadata>
<g transform="translate(0.000000,900.000000) scale(0.100000,-0.100000)"
fill="#000000" stroke="none">
<path d="M5860 8994 c-976 -70 -1850 -414 -2594 -1022 -168 -137 -454 -421
-587 -583 -323 -393 -556 -783 -732 -1230 -53 -133 -126 -351 -153 -456 l-18
-73 -537 0 -537 0 -26 -62 c-14 -35 -84 -202 -154 -373 l-128 -310 625 -3 626
-2 -7 -93 c-3 -50 -6 -180 -6 -287 0 -107 3 -237 6 -288 l7 -92 -471 0 -472 0
-26 -62 c-14 -35 -84 -202 -154 -373 l-128 -310 691 -3 691 -2 18 -73 c71
-276 223 -653 382 -949 307 -570 795 -1122 1333 -1507 617 -442 1335 -718
2111 -812 157 -19 235 -23 510 -23 275 0 353 4 510 23 582 70 1126 241 1625
509 230 124 493 298 670 442 l75 61 0 527 0 527 -56 -65 c-105 -121 -330 -335
-465 -444 -565 -453 -1210 -724 -1939 -812 -106 -13 -219 -18 -420 -18 -201 0
-314 5 -420 18 -611 74 -1156 272 -1650 601 -594 395 -1038 915 -1344 1575
-50 107 -135 329 -151 393 l-7 27 2488 0 2489 0 153 368 c83 202 152 371 152
375 0 4 -1224 7 -2719 7 l-2720 0 -8 58 c-10 74 -10 570 0 644 l8 58 2881 2
2881 3 154 370 c84 203 153 371 153 372 0 2 -1330 3 -2956 3 l-2956 0 7 27
c16 64 101 286 151 393 203 437 441 779 773 1110 470 469 1078 814 1716 974
326 81 567 110 925 110 201 0 314 -5 420 -18 611 -74 1156 -272 1650 -601 271
-180 541 -413 724 -623 l79 -91 159 382 159 382 -102 97 c-688 658 -1603 1084
-2574 1198 -173 21 -635 34 -785 24z"/>
</g>
</svg>
