<?xml version="1.0" standalone="no"?>
<!DOCTYPE svg PUBLIC "-//W3C//DTD SVG 20010904//EN"
 "http://www.w3.org/TR/2001/REC-SVG-20010904/DTD/svg10.dtd">
<svg version="1.0" xmlns="http://www.w3.org/2000/svg"
 width="603.000000pt" height="952.000000pt" viewBox="0 0 603.000000 952.000000"
 preserveAspectRatio="xMidYMid meet">
<metadata>
Created by potrace 1.16, written by Peter Selinger 2001-2019
</metadata>
<g transform="translate(0.000000,952.000000) scale(0.100000,-0.100000)"
fill="#000000" stroke="none">
<path d="M3670 9509 c-344 -40 -722 -185 -1030 -397 -161 -110 -279 -209 -436
-366 -226 -227 -402 -455 -581 -755 -308 -515 -539 -1136 -678 -1826 l-42
-210 -353 -5 -353 -5 -98 -380 c-54 -209 -98 -386 -99 -392 0 -10 88 -13 408
-13 l407 0 0 -400 0 -400 -309 -2 -309 -3 -98 -380 c-54 -209 -98 -386 -99
-392 0 -10 100 -13 451 -15 l452 -3 42 -210 c60 -297 115 -504 205 -775 325
-977 838 -1725 1490 -2172 580 -399 1263 -511 1893 -311 388 123 727 334 1060
662 l137 136 0 730 -1 730 -70 -140 c-181 -361 -380 -647 -609 -876 -282 -283
-560 -446 -886 -520 -142 -32 -376 -32 -518 0 -326 74 -604 237 -886 520 -282
283 -531 670 -725 1131 -111 263 -248 711 -300 980 -9 47 -19 93 -21 103 -5
16 74 17 1553 17 l1558 0 100 393 100 392 -1706 3 -1706 2 -6 137 c-9 173 -9
353 0 526 l6 137 1810 2 1810 3 98 380 c54 209 99 386 99 393 0 9 -379 12
-1861 12 -1767 0 -1860 1 -1855 18 2 9 12 55 21 102 52 269 189 717 300 980
194 461 443 848 725 1131 282 283 560 446 886 520 80 18 129 22 259 22 177 0
281 -18 444 -75 431 -152 845 -536 1166 -1078 61 -103 205 -382 217 -420 3 -8
12 10 21 40 28 98 267 1037 267 1050 0 39 -238 329 -414 506 -157 157 -275
256 -436 366 -314 216 -687 358 -1045 398 -106 12 -348 11 -455 -1z m455 -9
c358 -40 731 -182 1045 -398 160 -109 279 -209 431 -361 172 -173 409 -463
409 -502 0 -10 -187 -748 -252 -993 l-21 -79 -69 139 c-179 358 -379 646 -613
880 -287 288 -563 450 -891 525 -142 32 -376 32 -518 0 -328 -75 -604 -237
-891 -525 -287 -288 -535 -673 -730 -1136 -70 -168 -182 -499 -231 -685 -45
-173 -94 -406 -88 -417 3 -4 840 -8 1861 -8 1762 0 1855 -1 1851 -17 -3 -10
-47 -183 -99 -385 l-94 -368 -1808 0 c-1712 0 -1808 -1 -1815 -17 -9 -23 -9
-763 0 -786 7 -16 98 -17 1708 -17 935 0 1700 -3 1700 -7 0 -4 -43 -178 -97
-385 l-96 -378 -1553 0 c-854 0 -1555 -4 -1558 -8 -6 -11 43 -244 88 -417 49
-186 161 -517 231 -685 195 -463 443 -848 730 -1136 287 -288 563 -450 891
-525 142 -32 376 -32 518 0 328 75 604 237 891 525 228 229 430 516 604 861
l60 120 1 -710 0 -710 -132 -130 c-684 -674 -1515 -910 -2311 -658 -394 125
-736 340 -1068 672 -450 451 -798 1049 -1049 1801 -84 250 -169 579 -215 825
-16 83 -32 156 -38 163 -7 9 -110 12 -454 12 l-445 0 6 23 c3 12 47 185 98
384 l93 363 309 2 308 3 0 405 0 405 -407 3 -407 2 6 23 c3 12 47 185 98 384
l93 363 346 0 c265 0 349 3 356 13 6 6 22 80 38 162 71 383 217 877 360 1220
328 786 783 1388 1335 1767 308 212 686 357 1030 397 107 12 349 13 455 1z"/>
</g>
</svg>
