<?xml version="1.0" standalone="no"?>
<!DOCTYPE svg PUBLIC "-//W3C//DTD SVG 20010904//EN"
 "http://www.w3.org/TR/2001/REC-SVG-20010904/DTD/svg10.dtd">
<svg version="1.0" xmlns="http://www.w3.org/2000/svg"
 width="1174.000000pt" height="992.000000pt" viewBox="0 0 1174.000000 992.000000"
 preserveAspectRatio="xMidYMid meet">
<metadata>
Created by potrace 1.16, written by Peter Selinger 2001-2019
</metadata>
<g transform="translate(0.000000,992.000000) scale(0.100000,-0.100000)"
fill="#000000" stroke="none">
<path d="M6500 9914 c-490 -35 -866 -107 -1290 -246 -962 -315 -1792 -909
-2410 -1723 -250 -329 -480 -737 -638 -1130 -55 -137 -166 -469 -192 -572
l-11 -43 -592 0 -592 0 -170 -412 -171 -413 693 -3 694 -2 -8 -53 c-10 -68
-10 -646 0 -714 l8 -53 -523 0 -523 0 -170 -412 -171 -413 763 -3 762 -2 11
-43 c26 -103 137 -435 192 -572 334 -831 888 -1555 1613 -2105 330 -251 739
-481 1130 -638 449 -179 886 -286 1380 -338 236 -25 714 -25 950 0 826 87
1575 351 2250 793 112 74 342 242 413 302 l22 19 0 578 0 577 -57 -64 c-373
-418 -813 -752 -1307 -990 -418 -201 -852 -326 -1336 -385 -205 -26 -715 -26
-920 0 -879 107 -1646 451 -2298 1029 -513 454 -926 1078 -1148 1731 -19 55
-34 101 -34 103 0 2 1234 3 2743 3 l2742 0 171 413 171 412 -2998 3 -2998 2
-8 48 c-10 61 -10 663 0 724 l8 48 3171 2 3170 3 164 394 c90 216 166 402 169
412 6 19 -59 19 -3249 19 -1791 0 -3256 1 -3256 3 0 2 15 48 34 103 51 150
110 294 185 450 573 1190 1677 2030 2981 2268 270 49 403 60 740 60 337 0 470
-11 740 -60 919 -168 1739 -631 2366 -1336 l59 -68 169 407 c93 223 171 414
173 423 3 12 -31 51 -109 123 -453 423 -981 760 -1543 985 -447 178 -894 288
-1375 338 -147 15 -621 26 -740 18z"/>
</g>
</svg>
