<?xml version="1.0" standalone="no"?>
<!DOCTYPE svg PUBLIC "-//W3C//DTD SVG 20010904//EN"
 "http://www.w3.org/TR/2001/REC-SVG-20010904/DTD/svg10.dtd">
<svg version="1.0" xmlns="http://www.w3.org/2000/svg"
 width="1056.000000pt" height="992.000000pt" viewBox="0 0 1056.000000 992.000000"
 preserveAspectRatio="xMidYMid meet">
<metadata>
Created by potrace 1.16, written by Peter Selinger 2001-2019
</metadata>
<g transform="translate(0.000000,992.000000) scale(0.100000,-0.100000)"
fill="#000000" stroke="none">
<path d="M5860 9914 c-411 -36 -685 -88 -1004 -191 -951 -306 -1773 -946
-2359 -1838 -298 -455 -540 -1003 -675 -1530 l-39 -150 -523 -5 -524 -5 -152
-412 -151 -413 614 0 613 0 -7 -27 c-10 -36 -10 -730 0 -765 l7 -28 -462 -2
-462 -3 -151 -412 -152 -413 675 -2 675 -3 39 -150 c48 -188 159 -519 233
-695 469 -1112 1261 -1973 2260 -2456 429 -208 863 -333 1350 -390 208 -25
642 -25 850 0 844 99 1596 425 2258 979 l107 90 0 614 0 614 -76 -98 c-609
-781 -1426 -1258 -2354 -1375 -138 -17 -582 -17 -720 0 -594 75 -1138 294
-1623 655 -650 483 -1156 1212 -1421 2047 -25 79 -46 150 -46 157 0 11 464 13
2412 15 l2411 3 151 410 152 410 -2638 3 -2638 2 -7 28 c-10 35 -10 729 0 764
l7 28 2791 2 2791 3 149 404 c82 222 149 408 149 413 0 4 -1289 8 -2865 8
-2319 0 -2865 2 -2865 13 0 25 93 305 147 442 454 1150 1346 2003 2417 2310
312 89 537 120 886 120 349 0 574 -31 886 -120 709 -203 1369 -664 1840 -1284
43 -57 71 -86 75 -78 6 10 188 502 295 795 l34 92 -113 117 c-210 217 -522
474 -772 635 -558 360 -1164 579 -1815 654 -128 14 -564 26 -660 18z"/>
</g>
</svg>
