<?xml version="1.0" standalone="no"?>
<!DOCTYPE svg PUBLIC "-//W3C//DTD SVG 20010904//EN"
 "http://www.w3.org/TR/2001/REC-SVG-20010904/DTD/svg10.dtd">
<svg version="1.0" xmlns="http://www.w3.org/2000/svg"
 width="946.000000pt" height="952.000000pt" viewBox="0 0 946.000000 952.000000"
 preserveAspectRatio="xMidYMid meet">
<metadata>
Created by potrace 1.16, written by Peter Selinger 2001-2019
</metadata>
<g transform="translate(0.000000,952.000000) scale(0.100000,-0.100000)"
fill="#000000" stroke="none">
<path d="M5730 9509 c-909 -68 -1792 -401 -2525 -952 -591 -444 -1095 -1060
-1415 -1732 -117 -245 -257 -620 -310 -832 l-11 -43 -571 -2 -571 -3 -162
-390 -161 -390 661 -3 660 -2 0 -400 0 -400 -499 -2 -499 -3 -162 -390 -161
-390 733 -3 732 -2 11 -43 c6 -23 36 -121 66 -217 239 -751 657 -1425 1222
-1972 1181 -1141 2875 -1596 4465 -1197 406 102 820 266 1182 468 203 114 541
344 673 458 l33 28 -3 553 -3 552 -106 -118 c-263 -293 -632 -585 -1004 -793
-461 -257 -996 -423 -1555 -481 -161 -16 -579 -16 -740 0 -559 58 -1094 224
-1555 481 -790 442 -1399 1126 -1742 1956 -44 105 -113 300 -113 317 0 4 1184
9 2632 10 l2632 3 162 390 162 390 -2878 3 -2878 2 -9 98 c-10 125 -10 479 0
604 l9 98 3046 2 3047 3 162 390 162 390 -3125 3 c-1718 1 -3124 6 -3124 10 0
17 69 212 113 317 107 259 210 452 372 695 349 522 813 949 1370 1261 461 257
996 423 1555 481 161 16 579 16 740 0 559 -58 1094 -224 1555 -481 371 -208
741 -500 1004 -793 58 -65 108 -114 112 -110 4 4 80 184 170 401 l163 394
-104 100 c-785 746 -1836 1207 -2935 1287 -159 11 -528 11 -685 -1z m685 -9
c818 -60 1612 -329 2285 -775 257 -171 446 -319 645 -507 l99 -94 -164 -398
-165 -397 -24 28 c-281 332 -680 656 -1086 884 -461 257 -996 423 -1555 481
-161 16 -579 16 -740 0 -895 -93 -1676 -443 -2335 -1048 -469 -430 -858 -1027
-1054 -1616 -18 -54 -30 -102 -26 -108 4 -7 1005 -10 3121 -10 1713 0 3114 -3
3114 -7 0 -5 -70 -178 -156 -385 l-157 -378 -3046 -2 -3046 -3 -9 -65 c-5 -36
-8 -189 -8 -340 0 -151 3 -304 8 -340 l9 -65 2873 -3 c1579 -1 2872 -5 2872
-9 0 -4 -71 -177 -157 -385 l-157 -378 -2627 0 c-1783 0 -2630 -3 -2634 -10
-13 -20 93 -305 192 -520 102 -219 314 -558 476 -760 333 -415 734 -755 1192
-1011 461 -257 996 -423 1555 -481 161 -16 579 -16 740 0 559 58 1094 224
1555 481 368 206 736 496 1000 788 l100 110 3 -541 2 -541 -27 -23 c-77 -64
-244 -185 -383 -277 -1101 -730 -2487 -967 -3773 -644 -1158 290 -2149 989
-2802 1974 -286 431 -475 847 -637 1405 l-13 45 -729 3 c-688 2 -728 3 -722
20 4 9 75 182 159 384 l151 368 500 2 500 3 0 405 0 405 -658 3 c-621 2 -658
3 -652 20 4 9 75 182 159 384 l151 368 571 2 570 3 13 45 c162 558 351 974
637 1405 769 1161 2001 1915 3405 2085 243 29 633 38 885 20z"/>
</g>
</svg>
