<?xml version="1.0" standalone="no"?>
<!DOCTYPE svg PUBLIC "-//W3C//DTD SVG 20010904//EN"
 "http://www.w3.org/TR/2001/REC-SVG-20010904/DTD/svg10.dtd">
<svg version="1.0" xmlns="http://www.w3.org/2000/svg"
 width="754.000000pt" height="952.000000pt" viewBox="0 0 754.000000 952.000000"
 preserveAspectRatio="xMidYMid meet">
<metadata>
Created by potrace 1.16, written by Peter Selinger 2001-2019
</metadata>
<g transform="translate(0.000000,952.000000) scale(0.100000,-0.100000)"
fill="#000000" stroke="none">
<path d="M4570 9509 c-904 -84 -1779 -581 -2413 -1372 -232 -289 -379 -520
-553 -870 -183 -369 -307 -707 -406 -1109 l-51 -208 -446 -2 -445 -3 -128
-385 c-70 -212 -127 -388 -127 -392 -1 -5 232 -8 517 -8 l517 0 0 -400 0 -400
-390 -2 -389 -3 -128 -385 c-70 -212 -127 -388 -127 -392 -1 -5 257 -8 572 -8
l574 0 51 -208 c154 -625 429 -1244 764 -1722 851 -1214 2122 -1810 3408
-1599 618 102 1232 405 1735 856 l110 99 3 633 2 634 -63 -94 c-366 -548 -827
-951 -1340 -1173 -761 -331 -1580 -255 -2306 212 -701 450 -1260 1278 -1520
2250 l-30 112 2034 0 2033 0 30 93 c17 50 74 223 126 384 53 160 96 297 96
302 0 8 -658 11 -2219 11 l-2220 0 -8 48 c-4 26 -8 184 -8 352 0 168 4 326 8
353 l8 47 2354 0 2353 0 21 63 c11 34 67 207 125 385 58 178 106 328 106 333
0 5 -927 9 -2419 9 l-2420 0 30 113 c309 1155 1026 2078 1912 2461 356 155
755 225 1115 198 809 -63 1537 -513 2079 -1284 44 -62 90 -130 103 -151 12
-21 26 -35 30 -30 7 8 300 904 300 918 0 12 -101 125 -225 254 -607 628 -1373
1009 -2175 1081 -134 12 -424 11 -560 -1z m560 -9 c873 -79 1699 -522 2334
-1253 l59 -68 -72 -222 c-39 -122 -106 -329 -149 -459 l-78 -238 -18 33 c-11
17 -55 83 -99 145 -476 676 -1102 1115 -1786 1252 -621 125 -1239 -1 -1810
-368 -645 -414 -1179 -1155 -1459 -2022 -53 -163 -102 -347 -94 -354 3 -3
1091 -6 2419 -6 1327 0 2413 -2 2413 -4 0 -2 -56 -174 -124 -382 l-123 -379
-2353 -5 -2354 -5 -9 -30 c-12 -39 -12 -711 0 -750 l9 -30 2217 -3 c1219 -1
2217 -5 2217 -10 -1 -4 -56 -176 -124 -382 l-123 -375 -2024 -2 c-1113 -2
-2029 -5 -2036 -7 -9 -4 -4 -36 18 -118 370 -1385 1309 -2405 2418 -2628 312
-63 610 -63 922 0 708 142 1343 599 1833 1318 l56 83 0 -615 0 -615 -116 -103
c-1031 -913 -2353 -1138 -3545 -603 -519 233 -1000 612 -1383 1089 -231 288
-378 520 -552 869 -183 369 -300 687 -403 1097 l-57 225 -571 5 -571 5 126
382 126 383 389 2 390 3 0 405 0 405 -515 5 -516 5 126 382 126 383 445 2 445
3 57 225 c103 410 220 728 403 1097 174 349 321 581 552 869 629 785 1502
1279 2404 1363 136 12 426 13 560 1z"/>
</g>
</svg>
