<?xml version="1.0" standalone="no"?>
<!DOCTYPE svg PUBLIC "-//W3C//DTD SVG 20010904//EN"
 "http://www.w3.org/TR/2001/REC-SVG-20010904/DTD/svg10.dtd">
<svg version="1.0" xmlns="http://www.w3.org/2000/svg"
 width="999.000000pt" height="938.000000pt" viewBox="0 0 999.000000 938.000000"
 preserveAspectRatio="xMidYMid meet">
<metadata>
Created by potrace 1.16, written by Peter Selinger 2001-2019
</metadata>
<g transform="translate(0.000000,938.000000) scale(0.100000,-0.100000)"
fill="#000000" stroke="none">
<path d="M5520 9374 c-19 -2 -84 -9 -145 -15 -777 -77 -1559 -421 -2179 -958
-319 -276 -570 -561 -803 -911 -304 -457 -529 -961 -667 -1497 l-33 -128 -498
-5 -497 -5 -143 -385 -142 -385 576 -3 576 -2 0 -390 0 -390 -434 -2 -433 -3
-143 -385 -142 -385 640 -5 640 -5 33 -128 c219 -847 683 -1665 1261 -2217
563 -539 1172 -884 1868 -1059 314 -79 546 -106 910 -106 301 0 424 11 680 56
663 119 1345 448 1878 908 l87 75 0 584 0 583 -76 -98 c-347 -445 -736 -768
-1204 -1001 -463 -231 -862 -326 -1365 -326 -503 0 -902 95 -1365 326 -307
152 -576 341 -819 574 -467 448 -819 1013 -1026 1649 -23 72 -45 142 -49 157
l-6 28 2282 2 2283 3 142 385 c78 212 143 386 143 388 0 1 -1122 2 -2494 2
l-2495 0 -8 48 c-10 61 -10 623 0 685 l8 47 2639 0 2638 0 10 28 c5 15 69 186
141 381 72 195 131 358 131 363 0 4 -1220 8 -2710 8 l-2710 0 6 28 c4 15 26
86 49 157 207 636 559 1201 1026 1649 243 233 512 422 819 574 463 231 862
326 1365 326 503 0 902 -95 1365 -326 467 -232 857 -556 1203 -1000 58 -75 77
-93 82 -80 86 217 304 829 300 842 -7 22 -245 254 -380 371 -410 354 -883 623
-1387 788 -398 130 -708 181 -1133 186 -143 2 -276 1 -295 -1z"/>
</g>
</svg>
