<?xml version="1.0" standalone="no"?>
<!DOCTYPE svg PUBLIC "-//W3C//DTD SVG 20010904//EN"
 "http://www.w3.org/TR/2001/REC-SVG-20010904/DTD/svg10.dtd">
<svg version="1.0" xmlns="http://www.w3.org/2000/svg"
 width="894.000000pt" height="900.000000pt" viewBox="0 0 894.000000 900.000000"
 preserveAspectRatio="xMidYMid meet">
<metadata>
Created by potrace 1.16, written by Peter Selinger 2001-2019
</metadata>
<g transform="translate(0.000000,900.000000) scale(0.100000,-0.100000)"
fill="#000000" stroke="none">
<path d="M5470 8994 c-976 -70 -1850 -414 -2594 -1022 -168 -137 -454 -421
-587 -583 -323 -393 -556 -783 -732 -1230 -53 -133 -126 -351 -153 -456 l-18
-73 -537 0 -537 0 -26 -62 c-14 -35 -84 -202 -154 -373 l-128 -310 625 -3 626
-2 -7 -93 c-3 -50 -6 -180 -6 -287 0 -107 3 -237 6 -288 l7 -92 -471 0 -472 0
-26 -62 c-14 -35 -84 -202 -154 -373 l-128 -310 691 -3 691 -2 18 -73 c71
-276 223 -653 382 -949 307 -570 795 -1122 1333 -1507 617 -442 1335 -718
2111 -812 157 -19 235 -23 510 -23 275 0 353 4 510 23 582 70 1126 241 1625
509 230 124 493 298 670 442 l75 61 0 527 0 527 -56 -65 c-105 -121 -330 -335
-465 -444 -565 -453 -1210 -724 -1939 -812 -106 -13 -219 -18 -420 -18 -201 0
-314 5 -420 18 -611 74 -1156 272 -1650 601 -594 395 -1038 915 -1344 1575
-50 107 -135 329 -151 393 l-7 27 2488 0 2489 0 153 368 c83 202 152 371 152
375 0 4 -1224 7 -2719 7 l-2720 0 -8 58 c-10 74 -10 570 0 644 l8 58 2881 2
2881 3 154 370 c84 203 153 371 153 372 0 2 -1330 3 -2956 3 l-2956 0 7 27
c16 64 101 286 151 393 203 437 441 779 773 1110 470 469 1078 814 1716 974
326 81 567 110 925 110 201 0 314 -5 420 -18 611 -74 1156 -272 1650 -601 271
-180 541 -413 724 -623 l79 -91 159 382 159 382 -102 97 c-688 658 -1603 1084
-2574 1198 -173 21 -635 34 -785 24z m785 -34 c967 -114 1880 -538 2568 -1192
l98 -93 -151 -365 c-84 -201 -155 -368 -159 -372 -3 -4 -35 27 -71 69 -97 113
-299 303 -445 420 -560 450 -1208 721 -1935 809 -106 13 -219 18 -420 18 -201
0 -314 -5 -420 -18 -862 -104 -1625 -472 -2226 -1071 -337 -336 -574 -676
-778 -1115 -61 -130 -147 -362 -149 -400 l-2 -25 2950 -5 2951 -5 -150 -362
-151 -363 -2879 -2 -2880 -3 -9 -35 c-12 -46 -12 -654 0 -700 l9 -35 2717 -3
c1494 -1 2717 -3 2717 -5 0 -1 -67 -164 -150 -362 l-149 -360 -2488 -5 -2488
-5 2 -25 c2 -38 88 -270 149 -400 204 -439 441 -779 778 -1115 601 -599 1364
-967 2226 -1071 106 -13 219 -18 420 -18 201 0 314 5 420 18 729 88 1374 359
1940 812 129 104 366 330 464 443 l46 53 0 -515 0 -515 -87 -70 c-635 -505
-1429 -831 -2273 -933 -268 -33 -752 -33 -1020 0 -1271 154 -2379 799 -3122
1817 -308 423 -535 889 -682 1399 l-34 120 -687 3 c-647 2 -686 3 -681 20 4 9
70 172 149 362 l143 345 473 5 474 5 -4 80 c-5 103 -5 507 0 610 l4 80 -622 3
c-587 2 -622 3 -617 20 4 9 70 172 149 362 l143 345 538 5 538 5 34 120 c214
743 600 1395 1148 1940 776 772 1774 1219 2896 1299 150 10 612 -3 785 -24z"/>
</g>
</svg>
