<?xml version="1.0" standalone="no"?>
<!DOCTYPE svg PUBLIC "-//W3C//DTD SVG 20010904//EN"
 "http://www.w3.org/TR/2001/REC-SVG-20010904/DTD/svg10.dtd">
<svg version="1.0" xmlns="http://www.w3.org/2000/svg"
 width="959.000000pt" height="900.000000pt" viewBox="0 0 959.000000 900.000000"
 preserveAspectRatio="xMidYMid meet">
<metadata>
Created by potrace 1.16, written by Peter Selinger 2001-2019
</metadata>
<g transform="translate(0.000000,900.000000) scale(0.100000,-0.100000)"
fill="#000000" stroke="none">
<path d="M5295 8994 c-951 -76 -1811 -486 -2490 -1186 -569 -585 -944 -1274
-1165 -2135 l-11 -43 -478 0 -478 0 -137 -369 c-75 -203 -136 -372 -136 -375
0 -3 249 -6 553 -6 l552 0 0 -380 0 -380 -416 0 -416 0 -137 -369 c-75 -203
-136 -372 -136 -375 0 -3 277 -6 615 -6 l614 0 11 -42 c173 -676 430 -1223
813 -1727 483 -637 1105 -1107 1817 -1373 245 -91 567 -170 845 -205 196 -25
644 -25 840 0 479 61 956 216 1365 444 245 136 536 341 703 494 l48 44 -3 553
-3 553 -105 -133 c-127 -161 -375 -412 -525 -532 -223 -178 -480 -336 -726
-445 -756 -333 -1592 -333 -2348 0 -174 77 -303 149 -476 264 -197 131 -336
246 -510 420 -361 360 -642 794 -839 1293 -54 136 -126 353 -126 379 0 11 373
13 2186 15 l2186 3 134 364 c74 201 134 368 134 373 0 4 -1075 8 -2390 8
l-2389 0 -8 38 c-10 48 -10 636 0 685 l8 37 2532 0 2533 0 133 363 c74 199
136 368 138 375 4 9 -519 12 -2596 12 -2162 0 -2601 2 -2601 13 0 26 72 243
126 379 197 499 478 933 839 1293 481 482 1056 787 1687 895 632 107 1305 -9
1882 -326 139 -76 359 -224 491 -330 150 -120 398 -371 525 -532 57 -72 107
-132 111 -132 3 0 72 180 152 400 108 294 145 405 138 418 -16 30 -293 295
-411 393 -157 130 -215 173 -366 272 -493 323 -1023 522 -1585 597 -149 20
-573 34 -704 24z"/>
</g>
</svg>
