<?xml version="1.0" standalone="no"?>
<!DOCTYPE svg PUBLIC "-//W3C//DTD SVG 20010904//EN"
 "http://www.w3.org/TR/2001/REC-SVG-20010904/DTD/svg10.dtd">
<svg version="1.0" xmlns="http://www.w3.org/2000/svg"
 width="832.000000pt" height="938.000000pt" viewBox="0 0 832.000000 938.000000"
 preserveAspectRatio="xMidYMid meet">
<metadata>
Created by potrace 1.16, written by Peter Selinger 2001-2019
</metadata>
<g transform="translate(0.000000,938.000000) scale(0.100000,-0.100000)"
fill="#000000" stroke="none">
<path d="M5110 9374 c-19 -2 -84 -9 -145 -15 -777 -77 -1559 -421 -2179 -958
-319 -276 -570 -561 -803 -911 -304 -457 -529 -961 -667 -1497 l-33 -128 -498
-5 -497 -5 -143 -385 -142 -385 576 -3 576 -2 0 -390 0 -390 -434 -2 -433 -3
-143 -385 -142 -385 640 -5 640 -5 33 -128 c219 -847 683 -1665 1261 -2217
563 -539 1172 -884 1868 -1059 314 -79 546 -106 910 -106 301 0 424 11 680 56
663 119 1345 448 1878 908 l87 75 0 584 0 583 -76 -98 c-347 -445 -736 -768
-1204 -1001 -463 -231 -862 -326 -1365 -326 -503 0 -902 95 -1365 326 -307
152 -576 341 -819 574 -467 448 -819 1013 -1026 1649 -23 72 -45 142 -49 157
l-6 28 2282 2 2283 3 142 385 c78 212 143 386 143 388 0 1 -1122 2 -2494 2
l-2495 0 -8 48 c-10 61 -10 623 0 685 l8 47 2639 0 2638 0 10 28 c5 15 69 186
141 381 72 195 131 358 131 363 0 4 -1220 8 -2710 8 l-2710 0 6 28 c4 15 26
86 49 157 207 636 559 1201 1026 1649 243 233 512 422 819 574 463 231 862
326 1365 326 503 0 902 -95 1365 -326 467 -232 857 -556 1203 -1000 58 -75 77
-93 82 -80 86 217 304 829 300 842 -7 22 -245 254 -380 371 -410 354 -883 623
-1387 788 -398 130 -708 181 -1133 186 -143 2 -276 1 -295 -1z m680 -28 c283
-37 490 -83 748 -167 504 -165 977 -434 1387 -788 136 -118 363 -339 370 -361
4 -13 -285 -823 -299 -837 -2 -2 -31 34 -67 79 -338 437 -744 775 -1209 1006
-463 231 -862 326 -1365 326 -392 0 -688 -53 -1068 -192 -164 -59 -476 -220
-642 -331 -647 -430 -1153 -1079 -1447 -1856 -60 -158 -120 -354 -112 -366 3
-5 1131 -9 2710 -9 2572 0 2705 -1 2700 -17 -3 -10 -66 -180 -139 -378 l-134
-360 -2638 -5 -2639 -5 -9 -30 c-13 -39 -13 -691 0 -730 l9 -30 2491 -3 2490
-2 -140 -380 -140 -380 -2278 0 c-1328 0 -2280 -4 -2283 -9 -8 -12 52 -208
112 -366 216 -569 539 -1062 967 -1473 246 -237 515 -426 825 -580 463 -231
862 -326 1365 -326 255 0 376 12 611 59 460 93 964 334 1357 650 198 159 440
407 602 617 l60 78 3 -567 2 -567 -52 -45 c-396 -349 -895 -634 -1400 -800
-261 -85 -462 -130 -753 -167 -198 -26 -662 -26 -860 0 -291 37 -492 82 -753
167 -1221 400 -2192 1371 -2689 2689 -56 149 -137 409 -168 540 -10 41 -22 81
-28 88 -7 9 -147 12 -638 12 -346 0 -629 3 -629 7 0 4 62 175 138 380 l137
373 434 2 435 3 0 395 0 395 -572 3 c-315 1 -572 5 -572 9 0 4 62 175 137 380
l138 373 491 0 c381 0 494 3 501 13 6 6 18 46 28 87 77 328 242 764 409 1085
326 623 746 1127 1271 1525 580 440 1281 721 1970 789 61 6 126 13 145 15 85
10 562 -3 680 -18z"/>
</g>
</svg>
