<?xml version="1.0" standalone="no"?>
<!DOCTYPE svg PUBLIC "-//W3C//DTD SVG 20010904//EN"
 "http://www.w3.org/TR/2001/REC-SVG-20010904/DTD/svg10.dtd">
<svg version="1.0" xmlns="http://www.w3.org/2000/svg"
 width="913.000000pt" height="952.000000pt" viewBox="0 0 913.000000 952.000000"
 preserveAspectRatio="xMidYMid meet">
<metadata>
Created by potrace 1.16, written by Peter Selinger 2001-2019
</metadata>
<g transform="translate(0.000000,952.000000) scale(0.100000,-0.100000)"
fill="#000000" stroke="none">
<path d="M4990 9509 c-904 -84 -1779 -581 -2413 -1372 -232 -289 -379 -520
-553 -870 -183 -369 -307 -707 -406 -1109 l-51 -208 -446 -2 -445 -3 -128
-385 c-70 -212 -127 -388 -127 -392 -1 -5 232 -8 517 -8 l517 0 0 -400 0 -400
-390 -2 -389 -3 -128 -385 c-70 -212 -127 -388 -127 -392 -1 -5 257 -8 572 -8
l574 0 51 -208 c154 -625 429 -1244 764 -1722 851 -1214 2122 -1810 3408
-1599 618 102 1232 405 1735 856 l110 99 3 633 2 634 -63 -94 c-366 -548 -827
-951 -1340 -1173 -761 -331 -1580 -255 -2306 212 -701 450 -1260 1278 -1520
2250 l-30 112 2034 0 2033 0 30 93 c17 50 74 223 126 384 53 160 96 297 96
302 0 8 -658 11 -2219 11 l-2220 0 -8 48 c-4 26 -8 184 -8 352 0 168 4 326 8
353 l8 47 2354 0 2353 0 21 63 c11 34 67 207 125 385 58 178 106 328 106 333
0 5 -927 9 -2419 9 l-2420 0 30 113 c309 1155 1026 2078 1912 2461 356 155
755 225 1115 198 809 -63 1537 -513 2079 -1284 44 -62 90 -130 103 -151 12
-21 26 -35 30 -30 7 8 300 904 300 918 0 12 -101 125 -225 254 -607 628 -1373
1009 -2175 1081 -134 12 -424 11 -560 -1z"/>
</g>
</svg>
