<?xml version="1.0" standalone="no"?>
<!DOCTYPE svg PUBLIC "-//W3C//DTD SVG 20010904//EN"
 "http://www.w3.org/TR/2001/REC-SVG-20010904/DTD/svg10.dtd">
<svg version="1.0" xmlns="http://www.w3.org/2000/svg"
 width="880.000000pt" height="992.000000pt" viewBox="0 0 880.000000 992.000000"
 preserveAspectRatio="xMidYMid meet">
<metadata>
Created by potrace 1.16, written by Peter Selinger 2001-2019
</metadata>
<g transform="translate(0.000000,992.000000) scale(0.100000,-0.100000)"
fill="#000000" stroke="none">
<path d="M5430 9914 c-411 -36 -685 -88 -1004 -191 -951 -306 -1773 -946
-2359 -1838 -298 -455 -540 -1003 -675 -1530 l-39 -150 -523 -5 -524 -5 -152
-412 -151 -413 614 0 613 0 -7 -27 c-10 -36 -10 -730 0 -765 l7 -28 -462 -2
-462 -3 -151 -412 -152 -413 675 -2 675 -3 39 -150 c48 -188 159 -519 233
-695 469 -1112 1261 -1973 2260 -2456 429 -208 863 -333 1350 -390 208 -25
642 -25 850 0 844 99 1596 425 2258 979 l107 90 0 614 0 614 -76 -98 c-609
-781 -1426 -1258 -2354 -1375 -138 -17 -582 -17 -720 0 -594 75 -1138 294
-1623 655 -650 483 -1156 1212 -1421 2047 -25 79 -46 150 -46 157 0 11 464 13
2412 15 l2411 3 151 410 152 410 -2638 3 -2638 2 -7 28 c-10 35 -10 729 0 764
l7 28 2791 2 2791 3 149 404 c82 222 149 408 149 413 0 4 -1289 8 -2865 8
-2319 0 -2865 2 -2865 13 0 25 93 305 147 442 454 1150 1346 2003 2417 2310
312 89 537 120 886 120 349 0 574 -31 886 -120 709 -203 1369 -664 1840 -1284
43 -57 71 -86 75 -78 6 10 188 502 295 795 l34 92 -113 117 c-210 217 -522
474 -772 635 -558 360 -1164 579 -1815 654 -128 14 -564 26 -660 18z m660 -28
c651 -75 1257 -294 1815 -654 249 -160 564 -419 767 -630 l108 -112 -34 -92
c-95 -262 -288 -783 -291 -786 -1 -2 -33 37 -71 85 -614 787 -1435 1268 -2364
1385 -62 8 -209 13 -360 13 -349 0 -574 -31 -886 -120 -1165 -334 -2121 -1320
-2529 -2608 -26 -81 -44 -154 -41 -162 5 -13 366 -15 2867 -15 2285 0 2860 -3
2857 -12 -3 -7 -70 -190 -149 -405 l-144 -393 -2787 0 -2787 0 -13 -22 c-19
-33 -19 -763 0 -796 l13 -22 2630 0 c2101 0 2630 -3 2627 -12 -3 -7 -69 -190
-149 -405 l-144 -393 -2408 0 c-2102 0 -2408 -2 -2413 -15 -3 -8 15 -81 41
-162 334 -1056 1042 -1922 1944 -2377 353 -178 713 -288 1111 -338 138 -17
582 -17 720 0 862 108 1623 525 2227 1218 43 50 103 123 133 163 l55 71 3
-597 2 -597 -47 -41 c-666 -575 -1447 -920 -2308 -1021 -208 -25 -642 -25
-850 0 -883 104 -1667 457 -2350 1058 -519 458 -953 1074 -1250 1778 -69 164
-202 563 -240 720 -15 63 -32 121 -38 128 -7 9 -154 12 -674 12 -528 0 -664 3
-661 13 3 6 69 189 148 404 l144 393 460 2 460 3 -4 90 c-6 116 -6 534 0 650
l4 90 -608 3 c-479 2 -607 5 -604 15 3 6 69 189 148 405 l144 392 517 0 c401
0 519 3 526 13 6 6 23 64 38 127 38 157 171 556 240 720 470 1113 1253 1964
2250 2446 490 237 933 354 1545 408 96 8 532 -4 660 -18z"/>
</g>
</svg>
