<?xml version="1.0" standalone="no"?>
<!DOCTYPE svg PUBLIC "-//W3C//DTD SVG 20010904//EN"
 "http://www.w3.org/TR/2001/REC-SVG-20010904/DTD/svg10.dtd">
<svg version="1.0" xmlns="http://www.w3.org/2000/svg"
 width="713.000000pt" height="900.000000pt" viewBox="0 0 713.000000 900.000000"
 preserveAspectRatio="xMidYMid meet">
<metadata>
Created by potrace 1.16, written by Peter Selinger 2001-2019
</metadata>
<g transform="translate(0.000000,900.000000) scale(0.100000,-0.100000)"
fill="#000000" stroke="none">
<path d="M4290 8984 c-911 -99 -1733 -596 -2349 -1421 -364 -488 -626 -1051
-792 -1702 -27 -107 -49 -202 -49 -212 0 -18 -17 -19 -428 -19 l-428 0 -119
-362 c-65 -200 -120 -369 -123 -375 -3 -10 99 -13 489 -13 l494 0 0 -380 0
-380 -371 0 -370 0 -119 -362 c-65 -200 -120 -369 -123 -375 -3 -10 110 -13
547 -13 531 0 551 -1 551 -19 0 -10 22 -105 49 -212 166 -651 428 -1214 792
-1702 1248 -1671 3305 -1916 4795 -570 l94 85 0 601 0 601 -70 -108 c-304
-467 -707 -833 -1165 -1057 -650 -318 -1350 -318 -2000 0 -806 395 -1419 1216
-1709 2288 l-25 93 1918 0 1917 0 117 360 c65 197 120 366 123 375 6 13 -211
15 -2093 15 l-2100 0 -6 128 c-9 162 -9 342 0 505 l6 127 2223 0 2222 0 35
108 c20 59 74 225 121 369 47 144 86 265 86 268 0 3 -1028 5 -2284 5 l-2285 0
25 93 c119 439 284 821 512 1181 314 497 723 875 1197 1107 650 318 1350 318
2000 0 457 -224 861 -590 1165 -1057 41 -64 71 -101 75 -93 2 8 67 207 144
443 l140 429 -94 108 c-725 823 -1747 1251 -2735 1143z m596 -9 c804 -85 1559
-487 2128 -1134 l95 -108 -140 -428 c-77 -236 -141 -430 -143 -432 -1 -2 -25
32 -51 74 -170 269 -442 569 -695 769 -144 114 -318 223 -485 305 -650 318
-1350 318 -2000 0 -703 -345 -1259 -1008 -1593 -1901 -47 -126 -136 -418 -144
-471 l-3 -24 2281 -5 2282 -5 -117 -360 -118 -360 -2224 -5 -2224 -5 -6 -100
c-4 -55 -7 -183 -7 -285 0 -102 3 -230 7 -285 l6 -100 2095 -5 2096 -5 -119
-362 -118 -363 -1917 -2 -1917 -3 3 -24 c8 -53 97 -345 144 -471 334 -893 890
-1556 1593 -1901 650 -318 1350 -318 2000 0 452 221 864 593 1164 1050 l61 93
0 -585 0 -585 -82 -74 c-1016 -921 -2340 -1123 -3509 -537 -656 328 -1227 904
-1622 1634 -138 255 -281 598 -370 885 -39 123 -118 430 -129 495 -3 20 -13
20 -550 25 l-546 5 119 362 120 363 371 2 371 3 0 385 0 385 -490 5 -491 5
120 363 119 362 425 0 c331 0 425 3 428 13 2 6 22 90 45 186 241 1005 769
1881 1478 2452 663 533 1474 786 2259 704z"/>
</g>
</svg>
