<?xml version="1.0" standalone="no"?>
<!DOCTYPE svg PUBLIC "-//W3C//DTD SVG 20010904//EN"
 "http://www.w3.org/TR/2001/REC-SVG-20010904/DTD/svg10.dtd">
<svg version="1.0" xmlns="http://www.w3.org/2000/svg"
 width="775.000000pt" height="992.000000pt" viewBox="0 0 775.000000 992.000000"
 preserveAspectRatio="xMidYMid meet">
<metadata>
Created by potrace 1.16, written by Peter Selinger 2001-2019
</metadata>
<g transform="translate(0.000000,992.000000) scale(0.100000,-0.100000)"
fill="#000000" stroke="none">
<path d="M4295 9909 c-834 -87 -1598 -640 -2152 -1557 -329 -544 -579 -1216
-717 -1922 -20 -102 -39 -195 -42 -207 l-4 -23 -365 0 c-338 0 -364 -1 -369
-17 -11 -37 -206 -797 -206 -805 0 -4 190 -8 423 -8 l422 0 0 -410 0 -410
-317 0 c-293 0 -317 -1 -322 -17 -11 -37 -206 -797 -206 -805 0 -4 211 -8 470
-8 l470 0 4 -23 c3 -12 22 -105 42 -207 138 -706 388 -1378 717 -1922 386
-639 889 -1117 1432 -1360 365 -164 766 -234 1126 -197 577 58 1097 320 1572
789 l137 136 0 765 -1 764 -102 -200 c-111 -215 -198 -362 -304 -508 -671
-932 -1548 -1179 -2334 -658 -390 259 -717 660 -993 1220 -183 371 -329 799
-421 1236 -14 66 -27 130 -30 143 l-5 22 1622 0 1623 0 105 413 105 412 -1776
3 -1776 2 -6 107 c-9 137 -9 469 0 606 l6 107 1884 0 c1035 0 1883 3 1883 6 0
7 196 774 206 807 5 16 -92 17 -1936 17 l-1940 0 5 23 c3 12 16 76 30 142 92
437 238 865 421 1236 276 560 603 961 993 1220 796 527 1683 268 2358 -691 96
-135 206 -325 301 -517 l88 -178 149 578 148 578 -37 53 c-207 300 -549 642
-846 845 -470 321 -1025 473 -1535 420z"/>
</g>
</svg>
