<?xml version="1.0" standalone="no"?>
<!DOCTYPE svg PUBLIC "-//W3C//DTD SVG 20010904//EN"
 "http://www.w3.org/TR/2001/REC-SVG-20010904/DTD/svg10.dtd">
<svg version="1.0" xmlns="http://www.w3.org/2000/svg"
 width="1111.000000pt" height="938.000000pt" viewBox="0 0 1111.000000 938.000000"
 preserveAspectRatio="xMidYMid meet">
<metadata>
Created by potrace 1.16, written by Peter Selinger 2001-2019
</metadata>
<g transform="translate(0.000000,938.000000) scale(0.100000,-0.100000)"
fill="#000000" stroke="none">
<path d="M6060 9369 c-697 -53 -1381 -262 -1982 -605 -544 -310 -1046 -749
-1408 -1229 -355 -472 -625 -1011 -781 -1557 l-33 -118 -561 0 -561 0 -161
-387 -161 -388 652 -3 651 -2 0 -390 0 -390 -491 0 -490 0 -161 -387 -161
-388 722 -3 722 -2 33 -118 c156 -546 426 -1085 781 -1557 362 -480 864 -919
1408 -1229 705 -403 1509 -616 2322 -616 1040 0 2044 344 2874 984 l116 90 0
550 0 551 -57 -65 c-108 -125 -349 -356 -483 -464 -514 -412 -1108 -683 -1750
-800 -262 -48 -406 -60 -700 -60 -294 0 -438 12 -700 60 -1282 233 -2367 1094
-2887 2294 -43 98 -143 361 -143 375 0 3 1168 6 2597 7 l2596 3 158 380 c87
209 159 383 159 388 0 4 -1275 7 -2834 7 l-2834 0 -9 68 c-10 87 -10 557 0
644 l9 68 3000 2 3000 3 154 370 c85 204 157 378 160 388 5 16 -146 17 -3075
17 -1695 0 -3081 2 -3081 5 0 14 100 277 143 375 442 1019 1302 1808 2353
2158 253 85 515 142 814 178 106 13 218 18 420 18 294 0 438 -12 700 -60 642
-116 1238 -389 1748 -799 154 -124 342 -303 457 -434 43 -50 82 -91 85 -91 7
0 330 773 330 789 0 14 -254 244 -397 358 -740 591 -1639 941 -2603 1013 -154
11 -504 11 -660 -1z"/>
</g>
</svg>
