<?xml version="1.0" standalone="no"?>
<!DOCTYPE svg PUBLIC "-//W3C//DTD SVG 20010904//EN"
 "http://www.w3.org/TR/2001/REC-SVG-20010904/DTD/svg10.dtd">
<svg version="1.0" xmlns="http://www.w3.org/2000/svg"
 width="950.000000pt" height="992.000000pt" viewBox="0 0 950.000000 992.000000"
 preserveAspectRatio="xMidYMid meet">
<metadata>
Created by potrace 1.16, written by Peter Selinger 2001-2019
</metadata>
<g transform="translate(0.000000,992.000000) scale(0.100000,-0.100000)"
fill="#000000" stroke="none">
<path d="M5300 9914 c-19 -2 -84 -9 -145 -15 -852 -85 -1699 -545 -2332 -1264
-441 -501 -782 -1104 -1007 -1776 -55 -167 -131 -438 -161 -581 l-17 -78 -468
0 -469 0 -85 -262 c-47 -145 -107 -332 -134 -415 l-50 -153 542 0 541 0 0
-410 0 -410 -407 0 -407 0 -85 -262 c-47 -145 -107 -332 -134 -416 l-50 -152
603 0 603 0 17 -77 c86 -405 243 -854 434 -1248 156 -321 312 -576 516 -844
674 -885 1549 -1410 2555 -1533 135 -16 535 -16 670 0 757 92 1412 398 2018
941 l102 92 0 661 0 660 -71 -108 c-465 -705 -1113 -1193 -1814 -1365 -212
-52 -318 -64 -570 -64 -252 0 -358 12 -570 64 -187 46 -345 105 -531 196 -521
256 -971 677 -1334 1247 -155 244 -353 661 -455 962 -33 97 -115 385 -115 403
0 11 376 13 2109 13 l2109 0 61 188 c34 103 94 289 135 414 l74 228 -2313 0
-2312 0 -6 128 c-9 162 -9 402 0 565 l6 127 2447 0 2446 0 136 415 135 415
-2513 0 c-2067 0 -2514 2 -2514 13 0 18 82 306 115 403 102 301 300 718 455
962 363 570 813 991 1334 1247 251 123 491 200 761 242 154 24 526 24 680 0
553 -86 1065 -347 1508 -767 194 -184 406 -441 551 -667 33 -51 60 -92 61 -90
1 1 73 219 159 485 134 411 155 486 144 500 -51 67 -224 255 -315 342 -601
580 -1295 925 -2064 1025 -109 15 -506 28 -579 19z"/>
</g>
</svg>
