<?xml version="1.0" standalone="no"?>
<!DOCTYPE svg PUBLIC "-//W3C//DTD SVG 20010904//EN"
 "http://www.w3.org/TR/2001/REC-SVG-20010904/DTD/svg10.dtd">
<svg version="1.0" xmlns="http://www.w3.org/2000/svg"
 width="744.000000pt" height="952.000000pt" viewBox="0 0 744.000000 952.000000"
 preserveAspectRatio="xMidYMid meet">
<metadata>
Created by potrace 1.16, written by Peter Selinger 2001-2019
</metadata>
<g transform="translate(0.000000,952.000000) scale(0.100000,-0.100000)"
fill="#000000" stroke="none">
<path d="M4090 9509 c-344 -40 -722 -185 -1030 -397 -161 -110 -279 -209 -436
-366 -226 -227 -402 -455 -581 -755 -308 -515 -539 -1136 -678 -1826 l-42
-210 -353 -5 -353 -5 -98 -380 c-54 -209 -98 -386 -99 -392 0 -10 88 -13 408
-13 l407 0 0 -400 0 -400 -309 -2 -309 -3 -98 -380 c-54 -209 -98 -386 -99
-392 0 -10 100 -13 451 -15 l452 -3 42 -210 c60 -297 115 -504 205 -775 325
-977 838 -1725 1490 -2172 580 -399 1263 -511 1893 -311 388 123 727 334 1060
662 l137 136 0 730 -1 730 -70 -140 c-181 -361 -380 -647 -609 -876 -282 -283
-560 -446 -886 -520 -142 -32 -376 -32 -518 0 -326 74 -604 237 -886 520 -282
283 -531 670 -725 1131 -111 263 -248 711 -300 980 -9 47 -19 93 -21 103 -5
16 74 17 1553 17 l1558 0 100 393 100 392 -1706 3 -1706 2 -6 137 c-9 173 -9
353 0 526 l6 137 1810 2 1810 3 98 380 c54 209 99 386 99 393 0 9 -379 12
-1861 12 -1767 0 -1860 1 -1855 18 2 9 12 55 21 102 52 269 189 717 300 980
194 461 443 848 725 1131 282 283 560 446 886 520 80 18 129 22 259 22 177 0
281 -18 444 -75 431 -152 845 -536 1166 -1078 61 -103 205 -382 217 -420 3 -8
12 10 21 40 28 98 267 1037 267 1050 0 39 -238 329 -414 506 -157 157 -275
256 -436 366 -314 216 -687 358 -1045 398 -106 12 -348 11 -455 -1z"/>
</g>
</svg>
