<?xml version="1.0" standalone="no"?>
<!DOCTYPE svg PUBLIC "-//W3C//DTD SVG 20010904//EN"
 "http://www.w3.org/TR/2001/REC-SVG-20010904/DTD/svg10.dtd">
<svg version="1.0" xmlns="http://www.w3.org/2000/svg"
 width="738.000000pt" height="882.000000pt" viewBox="0 0 738.000000 882.000000"
 preserveAspectRatio="xMidYMid meet">
<metadata>
Created by potrace 1.16, written by Peter Selinger 2001-2019
</metadata>
<g transform="translate(0.000000,882.000000) scale(0.100000,-0.100000)"
fill="#000000" stroke="none">
<path d="M4855 8805 c-75 -17 -127 -39 -185 -78 -88 -61 -1988 -1627 -2006
-1654 -33 -51 -25 -108 29 -200 27 -46 62 -94 78 -107 37 -32 97 -42 140 -23
45 19 2154 1252 2199 1285 153 115 240 302 210 455 -33 174 -151 296 -314 326
-71 13 -75 13 -151 -4z"/>
<path d="M6895 8805 c-75 -17 -127 -39 -185 -78 -88 -61 -1988 -1627 -2006
-1654 -33 -51 -25 -108 29 -200 27 -46 62 -94 78 -107 37 -32 97 -42 140 -23
45 19 2154 1252 2199 1285 153 115 240 302 210 455 -33 174 -151 296 -314 326
-71 13 -75 13 -151 -4z"/>
<path d="M1590 6014 c-309 -53 -541 -176 -775 -410 -171 -172 -319 -385 -464
-674 -131 -259 -260 -604 -331 -886 -23 -90 -23 -91 -4 -129 34 -69 59 -80
198 -83 197 -6 212 7 266 216 78 305 205 654 323 887 184 363 413 612 642 697
145 53 316 61 393 18 127 -71 155 -302 81 -660 -58 -282 -136 -495 -319 -870
-82 -168 -163 -345 -180 -395 -98 -282 -264 -1069 -317 -1500 -25 -214 -26
-750 0 -915 26 -168 64 -329 104 -444 152 -439 496 -734 976 -838 147 -32 457
-32 600 0 409 91 767 325 1066 700 40 51 75 92 76 92 1 0 15 -35 30 -77 104
-293 302 -515 571 -640 43 -19 130 -49 193 -66 108 -28 128 -30 291 -31 163 0
181 2 265 28 385 118 654 454 874 1091 58 166 142 459 216 750 l49 190 -20 40
c-34 69 -58 80 -198 83 -136 4 -182 -7 -211 -51 -9 -14 -48 -146 -86 -294
-205 -789 -351 -1144 -559 -1354 -117 -118 -171 -144 -300 -144 -79 0 -103 4
-142 23 -83 41 -139 126 -169 257 -20 88 -17 380 5 525 31 201 47 269 557
2310 481 1924 501 2008 497 2078 -22 346 -468 449 -748 173 -120 -119 -84 9
-619 -2141 l-480 -1925 -61 -120 c-271 -530 -599 -914 -915 -1072 -205 -103
-456 -139 -621 -88 -119 36 -239 149 -308 290 -92 188 -126 399 -126 785 0
391 49 776 172 1345 57 268 181 766 213 855 15 41 94 212 176 380 221 453 272
625 273 920 0 123 -4 187 -18 250 -92 428 -341 695 -746 802 -72 19 -326 33
-390 22z"/>
</g>
</svg>
