<?xml version="1.0" standalone="no"?>
<!DOCTYPE svg PUBLIC "-//W3C//DTD SVG 20010904//EN"
 "http://www.w3.org/TR/2001/REC-SVG-20010904/DTD/svg10.dtd">
<svg version="1.0" xmlns="http://www.w3.org/2000/svg"
 width="583.000000pt" height="905.000000pt" viewBox="0 0 583.000000 905.000000"
 preserveAspectRatio="xMidYMid meet">
<metadata>
Created by potrace 1.16, written by Peter Selinger 2001-2019
</metadata>
<g transform="translate(0.000000,905.000000) scale(0.100000,-0.100000)"
fill="#000000" stroke="none">
<path d="M2319 9032 c-51 -26 -199 -152 -215 -184 -19 -36 -18 -102 2 -141 34
-65 1237 -1893 1267 -1925 39 -40 93 -57 145 -43 28 8 295 233 1137 961 605
523 1110 962 1122 976 12 13 28 42 34 64 16 51 -2 98 -74 200 -61 86 -115 118
-180 106 -23 -4 -364 -218 -950 -595 l-914 -587 -604 573 c-369 351 -620 582
-644 593 -50 24 -81 25 -126 2z"/>
<path d="M3050 6253 c-269 -26 -416 -55 -607 -118 -494 -164 -860 -493 -1103
-990 -134 -275 -233 -601 -261 -860 -64 -592 227 -1138 733 -1375 47 -22 312
-117 589 -211 317 -107 533 -186 583 -212 207 -110 358 -301 402 -507 23 -111
14 -305 -21 -430 -141 -510 -441 -833 -897 -964 -269 -78 -663 -97 -952 -47
-322 56 -598 206 -741 401 -38 52 -43 70 -20 70 9 0 51 14 95 31 243 93 430
307 496 566 65 257 -5 475 -190 595 -142 92 -348 116 -529 64 -382 -112 -594
-407 -623 -866 -21 -333 96 -638 341 -885 255 -258 609 -420 1075 -492 161
-25 633 -25 840 1 1117 136 1803 751 2090 1875 85 330 78 650 -19 941 -126
374 -412 691 -785 869 -55 27 -328 126 -605 220 -277 94 -531 186 -565 204
-78 41 -182 145 -224 224 -94 177 -96 382 -7 650 64 193 150 340 269 459 141
140 293 216 521 261 128 24 419 25 534 0 113 -24 230 -69 315 -119 76 -45 209
-170 243 -230 l22 -37 -92 -45 c-195 -95 -313 -236 -373 -444 -23 -80 -26
-107 -22 -195 3 -89 8 -111 35 -169 151 -322 623 -349 918 -53 89 89 135 160
170 262 46 132 60 227 59 393 -1 193 -26 299 -109 465 -113 228 -285 394 -540
522 -178 90 -385 149 -597 172 -89 10 -365 13 -448 4z"/>
</g>
</svg>
