<?xml version="1.0" standalone="no"?>
<!DOCTYPE svg PUBLIC "-//W3C//DTD SVG 20010904//EN"
 "http://www.w3.org/TR/2001/REC-SVG-20010904/DTD/svg10.dtd">
<svg version="1.0" xmlns="http://www.w3.org/2000/svg"
 width="565.000000pt" height="918.000000pt" viewBox="0 0 565.000000 918.000000"
 preserveAspectRatio="xMidYMid meet">
<metadata>
Created by potrace 1.16, written by Peter Selinger 2001-2019
</metadata>
<g transform="translate(0.000000,918.000000) scale(0.100000,-0.100000)"
fill="#000000" stroke="none">
<path d="M4960 9169 c-25 -4 -87 -30 -138 -56 -82 -42 -211 -145 -1101 -880
-565 -467 -1013 -844 -1019 -858 -27 -60 -16 -112 48 -220 33 -56 70 -111 83
-123 46 -43 115 -54 170 -26 44 23 2095 1216 2184 1270 219 136 332 369 278
577 -21 82 -50 132 -109 195 -101 107 -242 150 -396 121z"/>
<path d="M1335 6253 c-372 -59 -653 -298 -883 -751 -140 -274 -249 -591 -392
-1142 -68 -262 -69 -279 -10 -335 l31 -30 172 -3 c254 -5 236 -25 341 388 221
872 432 1308 693 1436 51 26 69 29 153 29 87 0 100 -3 149 -30 59 -33 90 -68
121 -138 68 -154 67 -476 -4 -823 -14 -65 -264 -1075 -557 -2244 -512 -2041
-533 -2129 -533 -2220 -1 -84 3 -102 27 -155 38 -82 70 -120 133 -162 269
-179 689 -10 805 324 11 32 234 913 495 1958 l475 1900 87 175 c103 207 254
462 364 616 476 669 988 912 1595 759 100 -26 239 -89 292 -133 l33 -27 -58
-24 c-164 -66 -315 -201 -392 -349 -51 -97 -92 -248 -92 -336 0 -288 231 -490
540 -473 186 11 346 83 480 217 165 165 233 342 233 605 -1 111 -4 143 -27
218 -108 362 -411 605 -887 711 -741 164 -1433 -102 -1984 -764 -43 -52 -81
-94 -83 -93 -3 1 -17 39 -32 85 -137 422 -447 698 -890 794 -74 16 -334 27
-395 17z"/>
</g>
</svg>
