<?xml version="1.0" standalone="no"?>
<!DOCTYPE svg PUBLIC "-//W3C//DTD SVG 20010904//EN"
 "http://www.w3.org/TR/2001/REC-SVG-20010904/DTD/svg10.dtd">
<svg version="1.0" xmlns="http://www.w3.org/2000/svg"
 width="590.000000pt" height="901.000000pt" viewBox="0 0 590.000000 901.000000"
 preserveAspectRatio="xMidYMid meet">
<metadata>
Created by potrace 1.16, written by Peter Selinger 2001-2019
</metadata>
<g transform="translate(0.000000,901.000000) scale(0.100000,-0.100000)"
fill="#000000" stroke="none">
<path d="M2149 8982 c-94 -60 -134 -135 -110 -210 13 -44 1335 -1907 1372
-1934 35 -26 101 -34 141 -17 52 21 2289 1873 2316 1917 17 28 22 48 19 83 -4
53 -48 131 -89 162 -40 30 -116 34 -164 9 -21 -11 -466 -275 -989 -587 -522
-312 -953 -567 -957 -568 -4 -1 -309 255 -678 568 -369 314 -685 578 -703 588
-48 26 -105 22 -158 -11z"/>
<path d="M3045 6253 c-518 -42 -924 -197 -1241 -471 -283 -246 -509 -630 -638
-1085 -49 -176 -64 -248 -77 -383 -53 -568 237 -1091 734 -1324 46 -22 290
-109 542 -195 253 -85 504 -171 557 -191 311 -115 516 -339 574 -627 66 -325
-108 -826 -388 -1122 -271 -286 -632 -422 -1173 -442 -621 -22 -1102 183
-1314 558 -17 31 -31 58 -31 61 0 3 20 8 45 11 73 10 194 55 267 98 124 73
223 181 293 318 37 75 75 230 75 310 0 279 -207 473 -503 473 -119 0 -210 -22
-322 -77 -274 -134 -416 -381 -441 -765 -21 -333 96 -638 341 -885 129 -131
252 -217 436 -304 283 -134 566 -197 934 -208 552 -16 1032 74 1430 268 421
205 745 532 968 976 129 257 243 610 277 860 18 132 8 411 -19 528 -107 458
-396 819 -825 1025 -58 28 -314 121 -606 220 -278 94 -529 180 -558 192 -188
75 -342 251 -388 444 -48 202 6 482 144 748 167 325 430 505 827 567 110 18
421 18 515 0 308 -56 560 -222 672 -446 35 -69 34 -72 -29 -90 -103 -30 -192
-84 -273 -165 -168 -167 -233 -414 -160 -605 28 -71 110 -159 183 -194 269
-130 627 1 774 284 72 138 110 341 100 525 -30 528 -427 938 -1038 1074 -63
13 -158 30 -211 35 -89 10 -355 12 -453 4z"/>
</g>
</svg>
