<?xml version="1.0" standalone="no"?>
<!DOCTYPE svg PUBLIC "-//W3C//DTD SVG 20010904//EN"
 "http://www.w3.org/TR/2001/REC-SVG-20010904/DTD/svg10.dtd">
<svg version="1.0" xmlns="http://www.w3.org/2000/svg"
 width="741.000000pt" height="976.000000pt" viewBox="0 0 741.000000 976.000000"
 preserveAspectRatio="xMidYMid meet">
<metadata>
Created by potrace 1.16, written by Peter Selinger 2001-2019
</metadata>
<g transform="translate(0.000000,976.000000) scale(0.100000,-0.100000)"
fill="#000000" stroke="none">
<path d="M3639 9739 c-20 -11 -44 -35 -54 -52 -24 -40 -75 -241 -75 -296 0
-56 30 -106 81 -131 35 -18 59 -20 291 -20 462 0 873 -26 1048 -66 114 -26
150 -71 150 -191 0 -37 -257 -1081 -834 -3390 -459 -1836 -850 -3390 -870
-3453 -251 -829 -860 -1539 -1459 -1702 -115 -31 -354 -31 -504 1 -403 85
-705 334 -823 677 l-18 51 84 1 c301 4 612 199 752 470 67 129 94 229 100 366
3 75 0 139 -8 175 -50 229 -250 395 -508 420 -274 27 -562 -93 -750 -312 -234
-275 -307 -831 -166 -1257 158 -472 547 -822 1069 -960 162 -43 280 -60 461
-67 767 -28 1596 320 2205 927 333 332 586 727 723 1133 20 60 414 1620 876
3467 462 1846 850 3386 863 3422 50 138 108 202 211 234 92 27 257 44 496 50
129 3 249 10 267 15 60 19 87 64 121 202 18 70 32 141 32 158 0 45 -36 103
-80 128 -38 21 -43 21 -232 12 -763 -40 -1850 -38 -3223 4 -182 6 -191 5 -226
-16z"/>
</g>
</svg>
