<?xml version="1.0" standalone="no"?>
<!DOCTYPE svg PUBLIC "-//W3C//DTD SVG 20010904//EN"
 "http://www.w3.org/TR/2001/REC-SVG-20010904/DTD/svg10.dtd">
<svg version="1.0" xmlns="http://www.w3.org/2000/svg"
 width="859.000000pt" height="1039.000000pt" viewBox="0 0 859.000000 1039.000000"
 preserveAspectRatio="xMidYMid meet">
<metadata>
Created by potrace 1.16, written by Peter Selinger 2001-2019
</metadata>
<g transform="translate(0.000000,1039.000000) scale(0.100000,-0.100000)"
fill="#000000" stroke="none">
<path d="M7691 10379 c-29 -5 -95 -23 -145 -40 -309 -103 -549 -367 -637 -699
-34 -127 -32 -295 4 -406 51 -155 148 -267 292 -335 226 -107 539 -86 779 52
38 22 71 38 73 35 8 -7 -67 -178 -138 -315 -258 -499 -698 -951 -1199 -1231
-118 -66 -138 -84 -151 -133 -14 -51 -3 -81 61 -167 52 -70 96 -100 147 -100
36 0 206 94 366 203 502 340 904 794 1166 1317 103 207 168 378 223 590 39
147 41 165 45 335 4 152 2 195 -15 275 -39 191 -115 334 -237 448 -159 148
-392 211 -634 171z"/>
<path d="M5220 9684 c-987 -80 -968 -78 -1008 -143 -10 -16 -33 -92 -51 -169
l-34 -139 24 -49 c44 -88 45 -88 332 -96 282 -7 415 -19 530 -50 135 -35 160
-83 139 -256 -6 -48 -188 -794 -404 -1658 l-392 -1571 -80 121 c-140 212 -327
377 -541 477 -269 126 -609 142 -987 45 -374 -96 -735 -286 -1103 -580 -131
-106 -391 -361 -518 -509 -474 -555 -814 -1220 -996 -1945 -85 -340 -119 -581
-128 -903 -7 -248 6 -436 43 -639 159 -868 649 -1436 1374 -1591 151 -33 450
-33 592 -1 316 70 639 233 938 472 58 47 177 155 264 242 88 87 160 156 161
155 0 -1 11 -36 24 -77 131 -416 448 -700 893 -797 129 -28 385 -25 498 5 316
85 571 322 775 723 144 283 251 594 395 1149 68 262 69 279 10 335 l-31 30
-172 3 c-158 2 -175 1 -205 -18 -18 -11 -39 -35 -47 -52 -8 -18 -46 -155 -85
-305 -127 -494 -219 -770 -335 -1008 -83 -169 -132 -243 -226 -337 -106 -108
-161 -133 -289 -133 -86 1 -100 4 -148 29 -57 32 -93 73 -124 143 -65 147 -64
465 3 803 11 58 475 1922 1030 4142 555 2221 1009 4057 1009 4079 0 88 -73
150 -172 148 -29 -1 -460 -35 -958 -75z m-1830 -3858 c262 -72 484 -316 610
-671 41 -118 85 -297 105 -433 l16 -109 -364 -1455 -364 -1456 -68 -103 c-455
-697 -989 -1129 -1459 -1181 -314 -35 -545 97 -691 397 -54 111 -78 181 -104
310 -67 320 -47 705 64 1260 47 233 253 1071 330 1340 225 785 494 1306 875
1685 141 142 260 235 394 309 95 52 235 104 327 120 72 13 261 5 329 -13z"/>
</g>
</svg>
