<?xml version="1.0" standalone="no"?>
<!DOCTYPE svg PUBLIC "-//W3C//DTD SVG 20010904//EN"
 "http://www.w3.org/TR/2001/REC-SVG-20010904/DTD/svg10.dtd">
<svg version="1.0" xmlns="http://www.w3.org/2000/svg"
 width="827.000000pt" height="1260.000000pt" viewBox="0 0 827.000000 1260.000000"
 preserveAspectRatio="xMidYMid meet">
<metadata>
Created by potrace 1.16, written by Peter Selinger 2001-2019
</metadata>
<g transform="translate(0.000000,1260.000000) scale(0.100000,-0.100000)"
fill="#000000" stroke="none">
<path d="M6025 12590 c-634 -49 -1153 -230 -1569 -548 -108 -82 -315 -293
-405 -412 -112 -148 -174 -251 -271 -452 -180 -372 -269 -693 -445 -1608 -47
-245 -100 -518 -118 -607 l-31 -163 -616 0 c-683 0 -660 2 -706 -67 -24 -36
-104 -343 -104 -400 0 -51 29 -103 71 -128 33 -19 57 -20 634 -25 l601 -5
-382 -1985 c-520 -2697 -657 -3375 -824 -4085 -214 -912 -340 -1231 -576
-1454 -128 -122 -253 -163 -392 -127 -59 15 -112 41 -112 55 0 3 30 17 66 30
83 29 225 123 285 188 103 110 166 227 205 382 68 266 -20 499 -233 614 -275
148 -692 38 -914 -242 -133 -169 -195 -385 -186 -651 5 -169 26 -261 87 -388
50 -104 88 -161 164 -241 156 -163 378 -257 631 -268 517 -22 1047 335 1488
1002 379 574 673 1506 1016 3220 44 220 317 1628 606 3130 289 1502 548 2836
576 2965 133 623 273 1065 403 1274 117 188 393 355 709 431 234 56 603 80
779 51 268 -44 465 -186 592 -427 86 -163 126 -344 126 -569 0 -183 -17 -291
-95 -599 -200 -798 -378 -1279 -571 -1542 -26 -35 -111 -129 -188 -209 -427
-440 -631 -719 -718 -985 -29 -88 -69 -278 -89 -425 -20 -137 -17 -509 4 -630
56 -324 149 -540 344 -798 217 -286 306 -482 333 -735 15 -141 2 -254 -59
-492 -131 -510 -269 -870 -423 -1100 -64 -96 -205 -241 -272 -280 -125 -73
-267 -97 -431 -76 -173 23 -317 88 -422 190 -50 49 -113 134 -113 152 0 5 32
25 72 46 131 68 236 196 289 350 99 288 -26 531 -303 589 -240 51 -525 -91
-645 -322 -76 -145 -114 -363 -94 -542 39 -362 247 -654 588 -825 535 -270
1256 -185 1868 220 172 114 300 221 461 384 225 230 384 452 523 729 260 520
321 967 195 1428 -85 313 -235 580 -540 957 -305 378 -435 588 -485 782 -72
281 28 494 501 1068 545 661 820 1059 1035 1500 158 322 254 607 296 870 21
131 16 401 -9 521 -65 305 -187 531 -406 749 -275 275 -641 448 -1097 520
-122 19 -534 28 -704 15z"/>
</g>
</svg>
