<?xml version="1.0" standalone="no"?>
<!DOCTYPE svg PUBLIC "-//W3C//DTD SVG 20010904//EN"
 "http://www.w3.org/TR/2001/REC-SVG-20010904/DTD/svg10.dtd">
<svg version="1.0" xmlns="http://www.w3.org/2000/svg"
 width="1305.000000pt" height="1260.000000pt" viewBox="0 0 1305.000000 1260.000000"
 preserveAspectRatio="xMidYMid meet">
<metadata>
Created by potrace 1.16, written by Peter Selinger 2001-2019
</metadata>
<g transform="translate(0.000000,1260.000000) scale(0.100000,-0.100000)"
fill="#000000" stroke="none">
<path d="M6010 12589 c-854 -74 -1505 -421 -1892 -1007 -137 -209 -238 -422
-338 -717 -112 -331 -175 -607 -351 -1527 l-103 -538 -588 0 c-642 0 -630 1
-679 -58 -27 -31 -89 -250 -89 -313 0 -45 36 -103 80 -128 37 -21 46 -21 604
-21 484 0 566 -2 566 -14 0 -24 -731 -3814 -855 -4431 -253 -1265 -555 -2591
-646 -2838 -130 -352 -319 -566 -516 -584 -83 -8 -222 13 -314 47 -74 27 -189
93 -189 109 0 4 19 13 43 20 98 30 200 93 287 181 95 95 141 165 181 279 70
198 58 366 -36 507 -109 165 -347 241 -580 185 -153 -37 -266 -103 -376 -219
-130 -135 -204 -318 -216 -532 -14 -248 66 -465 236 -643 95 -100 168 -152
301 -216 265 -127 599 -165 850 -96 516 142 998 690 1330 1515 177 440 367
1098 539 1865 105 473 181 856 571 2880 210 1089 383 1981 384 1982 2 2 732 2
1623 1 l1620 -3 -313 -1625 c-521 -2708 -585 -3029 -730 -3685 -178 -803 -338
-1364 -463 -1630 -52 -108 -178 -285 -300 -420 -216 -238 -453 -400 -690 -472
-77 -24 -102 -27 -246 -27 -172 0 -266 11 -415 50 -91 24 -281 106 -279 122 0
4 41 27 92 51 76 37 105 58 177 130 95 96 141 166 181 280 70 198 58 366 -36
507 -109 165 -347 241 -580 185 -153 -37 -266 -103 -376 -219 -239 -249 -285
-669 -108 -968 46 -79 179 -216 264 -274 285 -192 699 -294 1130 -277 618 25
1264 395 1797 1029 315 374 596 1063 853 2090 146 584 212 904 701 3451 l329
1707 1412 0 c930 0 1413 -3 1413 -10 0 -5 -222 -900 -494 -1987 -272 -1088
-502 -2021 -512 -2073 -23 -128 -24 -392 -1 -516 94 -516 432 -870 937 -980
128 -28 396 -26 505 4 177 49 323 138 471 286 290 294 496 766 724 1664 46
182 46 204 -11 258 l-30 29 -172 3 c-248 4 -239 11 -312 -279 -239 -954 -455
-1415 -724 -1543 -59 -28 -75 -31 -156 -31 -167 1 -252 70 -300 240 -40 143
-29 464 26 735 10 52 272 1108 581 2345 l562 2250 -20 40 c-10 22 -34 50 -53
62 l-34 23 -1853 0 c-1546 0 -1854 2 -1854 13 0 21 225 1185 276 1427 125 595
266 1036 415 1296 167 291 508 503 958 594 208 42 370 54 721 54 357 1 480 -7
737 -50 266 -44 464 -111 611 -207 l77 -50 -52 -18 c-188 -64 -339 -199 -428
-384 -60 -124 -78 -208 -73 -337 3 -94 7 -110 40 -181 102 -213 348 -311 618
-247 279 67 483 269 560 555 27 101 38 335 20 428 -115 591 -836 906 -2070
907 -756 0 -1277 -98 -1729 -324 -607 -305 -1015 -813 -1260 -1571 -97 -298
-151 -542 -362 -1637 l-51 -268 -1623 0 c-1541 0 -1623 1 -1619 18 2 9 56 287
119 617 63 330 136 699 161 820 179 864 341 1341 510 1509 206 204 505 342
869 403 163 27 537 24 732 -6 212 -32 375 -79 497 -143 l29 -15 -84 -44 c-99
-51 -233 -178 -288 -272 -72 -123 -120 -314 -106 -425 21 -168 114 -302 256
-366 201 -92 432 -69 645 66 91 57 201 177 251 274 86 165 121 383 89 544 -88
438 -492 702 -1216 795 -148 20 -613 28 -770 14z"/>
</g>
</svg>
