<?xml version="1.0" standalone="no"?>
<!DOCTYPE svg PUBLIC "-//W3C//DTD SVG 20010904//EN"
 "http://www.w3.org/TR/2001/REC-SVG-20010904/DTD/svg10.dtd">
<svg version="1.0" xmlns="http://www.w3.org/2000/svg"
 width="633.000000pt" height="1187.000000pt" viewBox="0 0 633.000000 1187.000000"
 preserveAspectRatio="xMidYMid meet">
<metadata>
Created by potrace 1.16, written by Peter Selinger 2001-2019
</metadata>
<g transform="translate(0.000000,1187.000000) scale(0.100000,-0.100000)"
fill="#000000" stroke="none">
<path d="M5695 11850 c-33 -11 -91 -37 -128 -57 -44 -25 -409 -321 -1047 -851
-903 -750 -980 -816 -996 -858 -23 -60 -14 -86 87 -258 85 -143 111 -170 177
-182 20 -4 48 -1 70 8 62 25 2153 1238 2214 1284 77 60 130 124 179 217 71
136 82 280 34 417 -38 108 -133 211 -243 263 -61 29 -77 32 -177 34 -88 2
-122 -1 -170 -17z"/>
<path d="M1725 8944 c-156 -23 -296 -69 -446 -146 -486 -249 -914 -840 -1173
-1620 -30 -89 -66 -209 -81 -265 -31 -117 -27 -149 26 -199 l30 -29 222 -3
c300 -3 287 -12 351 233 52 195 143 463 216 635 220 516 496 816 803 875 183
35 267 11 320 -90 29 -56 36 -242 13 -386 -36 -226 -63 -313 -303 -974 -185
-506 -415 -1185 -482 -1420 -279 -975 -304 -1610 -81 -2091 191 -414 569 -662
1140 -749 149 -22 441 -31 570 -16 283 32 567 137 810 299 58 38 106 69 108
67 2 -1 -17 -83 -42 -182 -269 -1072 -817 -1916 -1449 -2235 -362 -182 -815
-181 -1096 3 -67 45 -152 123 -189 176 l-23 32 43 11 c68 19 184 76 251 124
205 145 337 398 337 641 0 158 -44 267 -146 365 -244 234 -694 187 -970 -102
-178 -185 -252 -414 -241 -745 6 -189 30 -292 107 -449 157 -323 449 -545 855
-649 177 -45 320 -59 524 -52 542 20 1093 227 1594 600 638 474 1143 1179
1399 1952 22 66 357 1388 744 2937 567 2268 704 2830 704 2882 0 73 -25 164
-63 229 -93 158 -322 233 -539 178 -200 -51 -358 -182 -444 -367 -25 -54 -156
-563 -562 -2187 l-530 -2117 -95 -143 c-292 -435 -591 -664 -971 -744 -114
-24 -348 -24 -436 1 -209 58 -367 207 -428 402 -48 155 -57 235 -56 489 0 260
13 373 75 680 109 534 272 1064 644 2086 97 266 187 529 201 584 147 603 -106
1175 -614 1390 -146 61 -268 86 -442 90 -85 2 -168 1 -185 -1z"/>
</g>
</svg>
