<?xml version="1.0" standalone="no"?>
<!DOCTYPE svg PUBLIC "-//W3C//DTD SVG 20010904//EN"
 "http://www.w3.org/TR/2001/REC-SVG-20010904/DTD/svg10.dtd">
<svg version="1.0" xmlns="http://www.w3.org/2000/svg"
 width="326.000000pt" height="865.000000pt" viewBox="0 0 326.000000 865.000000"
 preserveAspectRatio="xMidYMid meet">
<metadata>
Created by potrace 1.16, written by Peter Selinger 2001-2019
</metadata>
<g transform="translate(0.000000,865.000000) scale(0.100000,-0.100000)"
fill="#000000" stroke="none">
<path d="M2451 8635 c-312 -68 -573 -270 -711 -550 -66 -134 -91 -232 -92
-365 -1 -186 53 -321 178 -447 128 -129 293 -190 494 -180 407 20 795 340 900
742 27 103 29 263 5 355 -72 277 -323 461 -625 459 -47 0 -114 -7 -149 -14z"/>
<path d="M1351 4239 c-29 -5 -95 -23 -145 -40 -309 -103 -549 -367 -637 -699
-34 -127 -32 -295 4 -406 51 -155 148 -267 292 -335 213 -102 499 -89 739 32
43 21 81 38 83 36 5 -6 -63 -245 -107 -372 -257 -742 -763 -1466 -1413 -2019
-75 -64 -144 -131 -153 -148 -26 -51 -13 -99 50 -183 76 -100 126 -124 198
-92 36 16 205 158 361 304 679 634 1188 1447 1420 2269 103 362 122 491 121
799 0 227 -2 245 -27 339 -93 347 -315 528 -642 525 -49 -1 -114 -5 -144 -10z"/>
</g>
</svg>
