<?xml version="1.0" standalone="no"?>
<!DOCTYPE svg PUBLIC "-//W3C//DTD SVG 20010904//EN"
 "http://www.w3.org/TR/2001/REC-SVG-20010904/DTD/svg10.dtd">
<svg version="1.0" xmlns="http://www.w3.org/2000/svg"
 width="1117.000000pt" height="945.000000pt" viewBox="0 0 1117.000000 945.000000"
 preserveAspectRatio="xMidYMid meet">
<metadata>
Created by potrace 1.16, written by Peter Selinger 2001-2019
</metadata>
<g transform="translate(0.000000,945.000000) scale(0.100000,-0.100000)"
fill="#000000" stroke="none">
<path d="M2369 9429 c-20 -12 -46 -38 -57 -58 -31 -57 -106 -374 -98 -416 9
-45 57 -101 99 -114 18 -5 181 -12 362 -15 446 -8 674 -32 719 -76 49 -48 98
158 -934 -3972 -668 -2675 -971 -3872 -991 -3914 -34 -73 -95 -139 -152 -164
-105 -47 -332 -69 -772 -76 -181 -3 -344 -10 -362 -15 -66 -21 -86 -59 -138
-271 l-49 -195 25 -48 c13 -27 37 -58 52 -69 33 -24 52 -24 602 -6 825 27
1966 22 2830 -11 286 -11 292 -11 331 9 23 12 49 33 59 49 21 32 104 351 105
402 0 47 -35 105 -80 130 -35 20 -52 21 -251 21 -384 0 -736 27 -823 64 -28
12 -37 23 -46 57 -6 23 -9 58 -6 78 4 20 217 879 474 1909 l467 1872 1812 0
c1444 0 1813 -3 1813 -12 0 -7 -207 -838 -459 -1845 -307 -1227 -467 -1850
-485 -1887 -33 -68 -95 -132 -149 -156 -105 -47 -332 -69 -772 -76 -181 -3
-344 -10 -362 -15 -66 -21 -86 -59 -138 -271 l-49 -195 25 -48 c13 -27 37 -58
52 -69 33 -24 52 -24 602 -6 825 27 1966 22 2830 -11 286 -11 292 -11 331 9
23 12 49 33 59 49 21 32 104 351 105 402 0 47 -35 105 -80 130 -35 20 -52 21
-251 21 -384 0 -736 27 -823 64 -28 12 -37 23 -46 56 -6 23 -8 61 -5 84 4 22
439 1768 966 3879 650 2599 968 3855 985 3889 34 67 100 137 149 159 103 46
332 68 780 76 315 5 343 7 376 25 52 29 71 71 119 265 47 194 47 222 -1 278
-47 53 -67 56 -324 45 -127 -5 -530 -15 -897 -22 -691 -12 -1613 -3 -2258 23
-274 12 -275 12 -316 -10 -24 -13 -49 -37 -61 -59 -32 -58 -107 -375 -99 -417
9 -45 57 -101 99 -114 18 -5 181 -12 362 -15 447 -8 674 -32 719 -76 48 -47
57 -8 -389 -1790 -229 -916 -420 -1682 -426 -1702 l-10 -38 -1815 0 c-1724 0
-1815 1 -1810 18 3 9 190 756 416 1660 272 1090 419 1660 436 1694 34 67 100
137 149 159 103 46 332 68 780 76 315 5 343 7 376 25 52 29 71 71 119 265 47
191 47 221 3 274 -49 58 -66 60 -335 49 -533 -21 -1340 -32 -1918 -26 -532 6
-745 11 -1345 31 -163 6 -172 5 -206 -16z"/>
</g>
</svg>
