<?xml version="1.0" standalone="no"?>
<!DOCTYPE svg PUBLIC "-//W3C//DTD SVG 20010904//EN"
 "http://www.w3.org/TR/2001/REC-SVG-20010904/DTD/svg10.dtd">
<svg version="1.0" xmlns="http://www.w3.org/2000/svg"
 width="599.000000pt" height="1192.000000pt" viewBox="0 0 599.000000 1192.000000"
 preserveAspectRatio="xMidYMid meet">
<metadata>
Created by potrace 1.16, written by Peter Selinger 2001-2019
</metadata>
<g transform="translate(0.000000,1192.000000) scale(0.100000,-0.100000)"
fill="#000000" stroke="none">
<path d="M5372 11900 c-159 -43 -302 -142 -386 -268 -62 -93 -79 -141 -153
-427 -588 -2280 -1386 -4114 -2431 -5595 -474 -670 -1023 -1294 -1592 -1806
-243 -218 -286 -252 -389 -303 -170 -86 -306 -202 -390 -335 -23 -38 -31 -61
-31 -98 0 -45 6 -55 107 -190 124 -164 157 -192 221 -185 36 4 69 25 218 138
97 74 184 140 195 148 11 8 60 24 109 37 185 48 469 73 826 74 491 0 749 -58
1418 -321 158 -62 290 -118 293 -125 2 -6 -116 -488 -262 -1073 -233 -934
-265 -1071 -265 -1139 0 -131 41 -234 125 -311 157 -144 409 -159 640 -38 113
60 243 205 291 328 10 22 125 475 258 1005 l241 964 220 4 c166 3 251 9 344
25 241 42 545 129 791 228 109 44 140 76 140 148 0 47 -13 69 -147 245 -122
159 -120 159 -318 92 -240 -81 -495 -122 -758 -122 -108 0 -118 2 -113 18 3 9
145 577 317 1262 346 1381 337 1336 291 1470 -58 171 -201 269 -408 278 -185
8 -341 -54 -480 -193 -142 -141 -122 -78 -456 -1412 l-290 -1161 -146 60
c-416 168 -663 252 -912 312 -233 56 -327 67 -626 73 l-272 5 206 202 c1109
1087 2024 2331 2779 3781 571 1094 1040 2320 1344 3512 54 211 60 246 56 308
-10 142 -70 251 -175 322 -81 55 -145 74 -262 79 -73 3 -112 0 -168 -16z"/>
</g>
</svg>
