<?xml version="1.0" standalone="no"?>
<!DOCTYPE svg PUBLIC "-//W3C//DTD SVG 20010904//EN"
 "http://www.w3.org/TR/2001/REC-SVG-20010904/DTD/svg10.dtd">
<svg version="1.0" xmlns="http://www.w3.org/2000/svg"
 width="1271.000000pt" height="976.000000pt" viewBox="0 0 1271.000000 976.000000"
 preserveAspectRatio="xMidYMid meet">
<metadata>
Created by potrace 1.16, written by Peter Selinger 2001-2019
</metadata>
<g transform="translate(0.000000,976.000000) scale(0.100000,-0.100000)"
fill="#000000" stroke="none">
<path d="M145 9747 c-57 -26 -80 -66 -114 -201 -37 -148 -38 -176 -10 -226 40
-71 63 -77 334 -83 356 -9 510 -34 567 -94 34 -36 58 -101 64 -178 3 -33 88
-2022 189 -4420 101 -2398 187 -4380 190 -4404 6 -53 41 -102 88 -125 50 -23
313 -23 382 1 113 38 -26 -207 2025 3576 l1875 3458 3 -58 c1 -32 68 -1592
147 -3466 118 -2768 148 -3413 160 -3436 20 -40 70 -79 109 -87 19 -3 101 -4
183 -2 142 3 150 4 202 33 29 16 68 48 85 70 18 22 1031 1880 2251 4130 1220
2250 2229 4104 2242 4120 14 17 48 69 76 117 83 140 165 245 277 358 256 257
552 385 939 406 128 7 175 23 206 70 9 15 32 87 51 162 38 150 36 184 -12 241
-38 46 -71 52 -219 41 -71 -5 -302 -15 -512 -22 -399 -13 -1187 -2 -1733 23
-244 12 -246 11 -288 -10 -24 -12 -51 -35 -60 -50 -10 -16 -33 -92 -51 -169
l-34 -139 24 -49 c39 -77 58 -86 211 -96 361 -24 591 -134 682 -327 27 -59 30
-76 30 -156 -1 -92 -1 -93 -72 -272 -9 -23 -791 -1469 -1737 -3212 -1649
-3040 -1720 -3169 -1727 -3133 -4 20 -71 1550 -149 3399 l-142 3361 24 48 c50
104 157 175 341 228 136 39 275 56 513 63 310 8 308 7 364 241 l34 139 -24 49
c-13 26 -37 57 -52 68 -33 24 -53 24 -582 6 -816 -27 -1728 -23 -2421 11 -231
12 -231 12 -271 -11 -53 -29 -71 -62 -104 -194 -35 -135 -36 -187 -8 -233 40
-64 65 -70 339 -76 350 -9 513 -37 564 -98 49 -58 56 -106 76 -564 10 -236 20
-469 21 -517 l2 -87 -1593 -2936 c-876 -1614 -1594 -2934 -1597 -2932 -2 2
-69 1531 -148 3398 l-145 3394 26 52 c35 74 116 144 210 183 172 71 340 99
669 109 281 8 279 7 335 232 37 147 35 181 -11 234 -47 54 -68 56 -320 46
-725 -32 -1871 -37 -2454 -11 -481 21 -488 21 -520 7z"/>
</g>
</svg>
