<?xml version="1.0" standalone="no"?>
<!DOCTYPE svg PUBLIC "-//W3C//DTD SVG 20010904//EN"
 "http://www.w3.org/TR/2001/REC-SVG-20010904/DTD/svg10.dtd">
<svg version="1.0" xmlns="http://www.w3.org/2000/svg"
 width="865.000000pt" height="650.000000pt" viewBox="0 0 865.000000 650.000000"
 preserveAspectRatio="xMidYMid meet">
<metadata>
Created by potrace 1.16, written by Peter Selinger 2001-2019
</metadata>
<g transform="translate(0.000000,650.000000) scale(0.100000,-0.100000)"
fill="#000000" stroke="none">
<path d="M3074 6485 c-128 -18 -342 -73 -470 -120 -266 -98 -623 -305 -879
-511 -208 -168 -477 -444 -671 -689 -586 -741 -977 -1744 -1043 -2675 -40
-560 45 -1066 253 -1496 185 -381 429 -644 757 -814 215 -111 424 -166 669
-177 505 -21 1033 185 1565 611 185 149 470 440 635 651 l52 65 71 -142 c155
-309 365 -560 617 -741 178 -126 435 -239 655 -286 289 -63 667 -50 1017 33
431 102 888 322 1249 602 211 163 436 388 596 597 113 148 132 196 100 254
-19 35 -238 264 -272 284 -16 11 -43 19 -58 19 -58 0 -91 -28 -189 -158 -534
-711 -1305 -1162 -1987 -1162 -385 0 -697 204 -876 574 -108 222 -158 451
-172 781 -12 315 48 787 170 1315 l12 55 415 6 c949 15 1520 85 2029 251 373
121 637 274 862 498 227 226 363 477 429 792 85 404 -27 787 -312 1064 -213
208 -473 330 -838 396 -114 20 -504 17 -650 -5 -683 -105 -1314 -418 -1870
-928 l-117 -107 -49 121 c-97 240 -228 440 -404 617 -214 215 -456 348 -752
411 -125 27 -402 34 -544 14z m322 -510 c431 -82 674 -604 626 -1339 -23 -348
-83 -668 -251 -1343 -190 -760 -299 -1101 -474 -1475 -149 -320 -371 -643
-594 -864 -179 -179 -408 -331 -591 -393 -162 -55 -348 -63 -483 -22 -152 48
-286 174 -377 356 -167 336 -174 789 -22 1545 55 274 267 1133 359 1455 241
847 500 1346 888 1716 311 295 626 420 919 364z m3964 -135 c281 -69 490 -276
546 -540 22 -102 15 -294 -15 -408 -97 -373 -356 -636 -782 -795 -334 -125
-738 -190 -1354 -217 -220 -10 -745 -14 -745 -6 0 17 112 345 152 446 259 651
661 1112 1188 1363 201 96 385 152 586 177 111 14 327 4 424 -20z"/>
</g>
</svg>
