<?xml version="1.0" standalone="no"?>
<!DOCTYPE svg PUBLIC "-//W3C//DTD SVG 20010904//EN"
 "http://www.w3.org/TR/2001/REC-SVG-20010904/DTD/svg10.dtd">
<svg version="1.0" xmlns="http://www.w3.org/2000/svg"
 width="933.000000pt" height="945.000000pt" viewBox="0 0 933.000000 945.000000"
 preserveAspectRatio="xMidYMid meet">
<metadata>
Created by potrace 1.16, written by Peter Selinger 2001-2019
</metadata>
<g transform="translate(0.000000,945.000000) scale(0.100000,-0.100000)"
fill="#000000" stroke="none">
<path d="M2369 9429 c-20 -12 -46 -38 -57 -58 -32 -58 -104 -373 -96 -417 8
-46 55 -100 97 -113 18 -5 181 -12 362 -15 446 -8 674 -32 719 -76 49 -48 98
158 -934 -3972 -668 -2675 -971 -3872 -991 -3914 -34 -73 -95 -139 -152 -164
-105 -47 -332 -69 -772 -76 -181 -3 -344 -10 -362 -15 -66 -21 -86 -60 -137
-265 -51 -208 -51 -233 0 -293 41 -49 66 -52 319 -41 127 5 530 15 897 22 690
12 1613 3 2256 -23 256 -11 276 -10 313 7 22 9 49 30 60 46 22 31 109 354 109
407 0 47 -36 105 -80 130 -35 20 -52 21 -251 21 -384 0 -736 27 -823 64 -47
20 -62 72 -47 160 7 34 195 795 419 1691 l408 1630 1160 6 c1269 6 1206 3
1540 69 978 194 1897 780 2461 1570 560 785 685 1699 332 2430 -284 588 -853
1003 -1580 1149 -287 58 -121 55 -2734 58 l-2400 3 -36 -21z m4426 -622 c396
-60 641 -160 837 -345 271 -256 332 -618 207 -1234 -38 -187 -153 -652 -214
-863 -208 -716 -495 -1101 -1024 -1369 -286 -145 -591 -225 -976 -256 -121
-10 -1895 -14 -1895 -5 0 26 974 3894 990 3931 43 100 100 134 260 153 41 5
442 8 890 7 697 -2 831 -5 925 -19z"/>
</g>
</svg>
