<?xml version="1.0" standalone="no"?>
<!DOCTYPE svg PUBLIC "-//W3C//DTD SVG 20010904//EN"
 "http://www.w3.org/TR/2001/REC-SVG-20010904/DTD/svg10.dtd">
<svg version="1.0" xmlns="http://www.w3.org/2000/svg"
 width="720.000000pt" height="905.000000pt" viewBox="0 0 720.000000 905.000000"
 preserveAspectRatio="xMidYMid meet">
<metadata>
Created by potrace 1.16, written by Peter Selinger 2001-2019
</metadata>
<g transform="translate(0.000000,905.000000) scale(0.100000,-0.100000)"
fill="#000000" stroke="none">
<path d="M2869 9032 c-51 -26 -199 -152 -215 -184 -19 -36 -18 -102 2 -141 34
-65 1237 -1893 1267 -1925 39 -40 93 -57 145 -43 28 8 295 233 1137 961 605
523 1110 962 1122 976 12 13 28 42 34 64 16 51 -2 98 -74 200 -61 86 -115 118
-180 106 -23 -4 -364 -218 -950 -595 l-914 -587 -604 573 c-369 351 -620 582
-644 593 -50 24 -81 25 -126 2z"/>
<path d="M1320 6241 c-463 -102 -799 -496 -1071 -1254 -56 -155 -127 -393
-194 -647 -63 -241 -64 -259 -5 -315 l31 -30 222 -3 c208 -2 224 -1 255 18 18
11 39 35 47 52 8 18 46 156 85 306 181 702 337 1078 524 1266 71 70 138 105
220 113 131 12 232 -47 275 -161 59 -159 57 -426 -5 -741 -8 -44 -256 -1045
-551 -2225 -508 -2037 -534 -2149 -530 -2215 10 -141 69 -251 175 -322 159
-107 367 -110 570 -8 48 24 113 67 144 95 65 57 136 159 169 240 12 30 223
860 470 1845 l448 1789 72 141 c308 601 647 1023 1030 1280 108 73 299 166
418 205 189 61 487 95 616 71 131 -25 249 -106 327 -225 139 -214 160 -648 57
-1161 -111 -558 -351 -1337 -744 -2420 -141 -390 -170 -494 -187 -673 -50
-521 224 -1002 667 -1173 174 -68 253 -82 450 -83 143 -1 196 3 260 18 130 30
223 65 346 128 484 248 910 835 1169 1607 32 97 70 222 85 278 31 117 27 149
-26 199 l-30 29 -222 3 c-300 3 -287 12 -351 -233 -52 -195 -143 -463 -216
-635 -220 -516 -496 -816 -803 -875 -183 -35 -267 -11 -320 90 -29 56 -36 242
-13 386 34 213 78 358 271 889 439 1208 699 2090 760 2582 17 141 20 459 5
575 -46 342 -182 631 -388 825 -194 182 -475 311 -797 364 -85 15 -164 19
-345 19 -265 0 -374 -13 -596 -70 -466 -119 -900 -389 -1255 -777 l-88 -98
-11 43 c-86 339 -331 638 -641 781 -179 83 -325 115 -539 122 -127 3 -171 1
-240 -15z"/>
</g>
</svg>
