<?xml version="1.0" standalone="no"?>
<!DOCTYPE svg PUBLIC "-//W3C//DTD SVG 20010904//EN"
 "http://www.w3.org/TR/2001/REC-SVG-20010904/DTD/svg10.dtd">
<svg version="1.0" xmlns="http://www.w3.org/2000/svg"
 width="556.000000pt" height="918.000000pt" viewBox="0 0 556.000000 918.000000"
 preserveAspectRatio="xMidYMid meet">
<metadata>
Created by potrace 1.16, written by Peter Selinger 2001-2019
</metadata>
<g transform="translate(0.000000,918.000000) scale(0.100000,-0.100000)"
fill="#000000" stroke="none">
<path d="M5010 9164 c-132 -34 -155 -52 -1205 -914 -555 -456 -1020 -844
-1032 -861 -17 -23 -23 -46 -23 -82 0 -44 8 -64 60 -152 33 -56 70 -111 83
-123 46 -43 115 -54 170 -26 80 41 2160 1250 2220 1291 183 123 285 324 257
507 -39 263 -280 426 -530 360z"/>
<path d="M3317 6250 c-824 -94 -1642 -564 -2283 -1311 -574 -668 -950 -1533
-1024 -2356 -16 -178 -8 -572 15 -723 22 -148 83 -389 130 -516 273 -731 820
-1191 1570 -1321 122 -21 554 -24 710 -5 723 88 1361 346 1905 768 207 160
505 468 623 641 40 59 49 117 24 159 -24 42 -182 204 -213 219 -80 38 -119 15
-238 -134 -236 -297 -467 -511 -776 -721 -480 -325 -1028 -512 -1570 -537
-211 -9 -359 16 -509 88 -299 142 -502 429 -581 818 -87 436 -38 902 191 1811
192 765 338 1159 579 1564 357 599 892 1027 1417 1133 118 24 364 24 484 0
219 -43 372 -119 507 -251 57 -55 139 -163 130 -170 -1 -2 -37 -11 -78 -21
-41 -10 -113 -38 -160 -61 -187 -95 -304 -230 -378 -439 -33 -96 -42 -266 -17
-351 46 -159 145 -258 310 -310 261 -83 599 40 770 281 61 86 100 175 132 303
24 94 27 126 27 272 0 147 -3 176 -27 265 -30 111 -94 251 -158 347 -23 35
-82 102 -130 150 -201 200 -479 333 -824 394 -98 18 -451 26 -558 14z"/>
</g>
</svg>
