<?xml version="1.0" standalone="no"?>
<!DOCTYPE svg PUBLIC "-//W3C//DTD SVG 20010904//EN"
 "http://www.w3.org/TR/2001/REC-SVG-20010904/DTD/svg10.dtd">
<svg version="1.0" xmlns="http://www.w3.org/2000/svg"
 width="950.000000pt" height="907.000000pt" viewBox="0 0 950.000000 907.000000"
 preserveAspectRatio="xMidYMid meet">
<metadata>
Created by potrace 1.16, written by Peter Selinger 2001-2019
</metadata>
<g transform="translate(0.000000,907.000000) scale(0.100000,-0.100000)"
fill="#000000" stroke="none">
<path d="M2280 9052 c-49 -24 -74 -68 -100 -172 -25 -102 -23 -154 9 -198 39
-55 69 -62 278 -62 350 0 650 -27 760 -68 63 -23 78 -61 69 -176 -5 -54 -148
-642 -459 -1890 l-453 -1811 -601 -5 -601 -5 -28 -25 c-14 -14 -35 -43 -44
-65 -29 -66 -54 -188 -46 -229 9 -48 58 -103 104 -116 23 -6 239 -10 570 -10
503 0 533 -1 528 -17 -3 -10 -192 -767 -421 -1682 -228 -914 -429 -1697 -445
-1740 -58 -150 -128 -224 -246 -261 -140 -43 -449 -70 -805 -70 -187 0 -198
-1 -229 -22 -18 -13 -41 -34 -51 -48 -29 -39 -71 -213 -63 -256 8 -42 52 -97
92 -113 20 -9 617 -11 2342 -8 2527 3 2339 -1 2655 58 626 117 1298 428 1900
879 429 322 888 784 1227 1235 120 160 337 488 433 655 687 1194 972 2592 769
3774 -44 257 -135 563 -241 811 -271 636 -709 1111 -1277 1389 -290 142 -592
226 -926 256 -75 6 -904 10 -2390 10 -2146 0 -2277 -1 -2310 -18z m4246 -443
c776 -75 1383 -525 1652 -1222 70 -181 119 -381 154 -627 20 -147 17 -733 -5
-925 -92 -782 -380 -1945 -660 -2660 -279 -714 -642 -1281 -1105 -1726 -592
-569 -1330 -921 -2072 -988 -147 -14 -1796 -14 -1900 -1 -138 18 -148 31 -129
168 8 55 787 3206 880 3555 l10 37 1107 0 c696 0 1120 4 1142 10 62 17 96 63
125 170 13 52 25 109 25 125 0 43 -30 96 -69 122 l-34 23 -1092 0 -1093 0 458
1828 c252 1005 465 1846 474 1870 31 86 80 164 116 187 41 27 101 45 185 55
99 12 1708 11 1831 -1z"/>
</g>
</svg>
