<?xml version="1.0" standalone="no"?>
<!DOCTYPE svg PUBLIC "-//W3C//DTD SVG 20010904//EN"
 "http://www.w3.org/TR/2001/REC-SVG-20010904/DTD/svg10.dtd">
<svg version="1.0" xmlns="http://www.w3.org/2000/svg"
 width="997.000000pt" height="945.000000pt" viewBox="0 0 997.000000 945.000000"
 preserveAspectRatio="xMidYMid meet">
<metadata>
Created by potrace 1.16, written by Peter Selinger 2001-2019
</metadata>
<g transform="translate(0.000000,945.000000) scale(0.100000,-0.100000)"
fill="#000000" stroke="none">
<path d="M2369 9428 c-20 -11 -46 -37 -57 -57 -31 -57 -106 -374 -98 -416 9
-45 57 -101 99 -114 18 -5 181 -12 362 -15 446 -8 674 -32 719 -76 49 -48 98
158 -934 -3972 -668 -2675 -971 -3872 -991 -3914 -34 -73 -95 -139 -152 -164
-105 -47 -332 -69 -772 -76 -181 -3 -344 -10 -362 -15 -66 -21 -86 -60 -137
-265 -50 -205 -50 -230 -4 -289 46 -59 -118 -55 2455 -55 1508 0 2412 4 2488
10 1216 103 2460 821 3429 1980 927 1108 1478 2500 1535 3875 57 1387 -442
2543 -1360 3151 -356 236 -787 382 -1254 424 -70 6 -994 10 -2520 10 l-2410 0
-36 -22z m4551 -622 c252 -43 450 -106 645 -204 695 -348 1055 -1021 1055
-1977 0 -506 -87 -1040 -320 -1975 -216 -861 -378 -1348 -604 -1815 -116 -239
-188 -366 -331 -580 -233 -349 -482 -624 -780 -864 -516 -414 -1119 -674
-1745 -753 -163 -20 -1985 -18 -2055 3 l-50 14 2 60 c2 68 1947 7866 1983
7951 43 100 100 134 260 153 41 5 473 8 960 6 769 -2 897 -4 980 -19z"/>
</g>
</svg>
