<?xml version="1.0" standalone="no"?>
<!DOCTYPE svg PUBLIC "-//W3C//DTD SVG 20010904//EN"
 "http://www.w3.org/TR/2001/REC-SVG-20010904/DTD/svg10.dtd">
<svg version="1.0" xmlns="http://www.w3.org/2000/svg"
 width="593.000000pt" height="976.000000pt" viewBox="0 0 593.000000 976.000000"
 preserveAspectRatio="xMidYMid meet">
<metadata>
Created by potrace 1.16, written by Peter Selinger 2001-2019
</metadata>
<g transform="translate(0.000000,976.000000) scale(0.100000,-0.100000)"
fill="#000000" stroke="none">
<path d="M2140 9684 c-968 -79 -960 -78 -1001 -136 -12 -16 -36 -90 -55 -164
-29 -116 -33 -142 -24 -175 14 -50 53 -95 93 -107 18 -6 142 -13 277 -16 270
-6 386 -17 503 -48 135 -36 161 -83 138 -260 -7 -52 -454 -1860 -1038 -4192
-980 -3915 -1026 -4105 -1027 -4191 0 -115 25 -183 96 -261 226 -247 686 -136
847 205 19 42 141 510 386 1489 l357 1429 106 -19 c399 -70 741 -230 958 -447
171 -171 257 -363 270 -601 7 -117 -4 -203 -57 -445 -32 -146 -33 -156 -33
-390 0 -211 2 -252 22 -341 62 -283 177 -508 346 -679 204 -205 469 -318 782
-332 649 -30 1138 462 1490 1499 54 160 111 350 159 535 31 117 27 149 -26
199 l-30 29 -172 3 c-248 4 -239 11 -312 -279 -194 -773 -360 -1166 -591
-1395 -136 -136 -288 -195 -461 -180 -92 7 -137 26 -190 78 -160 157 -161 592
-2 1243 45 182 59 287 59 430 0 147 -9 215 -46 342 -107 373 -416 680 -886
882 -209 90 -593 200 -791 227 -26 4 -47 10 -47 14 0 3 55 49 123 100 165 128
557 520 878 880 325 364 471 519 617 654 438 405 785 579 1162 580 110 1 130
-2 171 -22 50 -24 113 -82 134 -123 l14 -26 -82 -17 c-223 -48 -415 -191 -515
-384 -51 -97 -92 -248 -92 -336 0 -288 231 -490 540 -473 186 11 346 83 480
217 126 126 178 227 222 430 29 135 29 361 0 481 -85 347 -283 562 -597 645
-104 28 -362 26 -501 -4 -256 -55 -503 -171 -749 -350 -272 -198 -505 -429
-1060 -1052 -381 -427 -687 -716 -925 -871 -116 -76 -220 -132 -220 -119 0 5
322 1297 715 2870 393 1573 715 2879 715 2901 0 88 -73 150 -172 148 -29 -1
-460 -35 -958 -75z"/>
</g>
</svg>
