<?xml version="1.0" standalone="no"?>
<!DOCTYPE svg PUBLIC "-//W3C//DTD SVG 20010904//EN"
 "http://www.w3.org/TR/2001/REC-SVG-20010904/DTD/svg10.dtd">
<svg version="1.0" xmlns="http://www.w3.org/2000/svg"
 width="770.000000pt" height="1264.000000pt" viewBox="0 0 770.000000 1264.000000"
 preserveAspectRatio="xMidYMid meet">
<metadata>
Created by potrace 1.16, written by Peter Selinger 2001-2019
</metadata>
<g transform="translate(0.000000,1264.000000) scale(0.100000,-0.100000)"
fill="#000000" stroke="none">
<path d="M4020 12630 c-21 -5 -49 -24 -72 -49 -34 -36 -38 -46 -38 -94 0 -44
5 -61 28 -89 15 -19 339 -366 721 -771 752 -799 722 -771 805 -749 19 6 519
346 1111 757 1028 714 1078 750 1097 793 44 99 -28 206 -137 204 -31 0 -248
-100 -1003 -461 l-962 -461 -702 442 c-386 242 -716 449 -733 458 -41 24 -73
29 -115 20z"/>
<path d="M4481 9659 c-207 -23 -484 -94 -691 -176 -1166 -463 -2040 -1634
-2120 -2842 -12 -174 -2 -387 25 -544 118 -676 536 -1196 1130 -1407 50 -17
449 -134 887 -260 492 -141 826 -243 873 -264 330 -152 541 -452 622 -879 25
-132 25 -498 0 -655 -25 -160 -81 -375 -135 -522 -98 -266 -280 -587 -460
-809 -96 -119 -291 -315 -397 -400 -269 -216 -594 -375 -875 -428 -127 -24
-459 -23 -645 1 -700 92 -1170 394 -1420 911 -129 268 -180 520 -180 895 0
278 27 508 91 778 29 125 30 148 4 189 -32 53 -64 63 -200 63 -133 0 -177 -12
-205 -53 -19 -29 -785 -3086 -785 -3131 0 -43 20 -77 59 -103 45 -30 141 -32
188 -4 17 11 190 212 383 448 194 235 356 429 360 431 4 1 33 -32 65 -75 289
-386 768 -659 1344 -767 342 -64 765 -73 1039 -20 1110 212 2143 1184 2547
2396 131 394 182 723 172 1121 -5 241 -22 368 -77 573 -153 576 -524 1007
-1041 1213 -42 16 -441 134 -885 262 -445 127 -848 248 -895 269 -236 101
-440 306 -544 548 -129 296 -149 664 -58 1047 142 602 559 1173 1101 1508 434
268 866 344 1378 242 511 -103 858 -411 1033 -918 143 -416 168 -988 71 -1645
-30 -200 -26 -225 39 -269 31 -21 45 -23 158 -23 135 0 179 11 207 54 14 23
786 3101 786 3138 0 32 -29 78 -63 98 -42 26 -139 27 -184 3 -19 -11 -175
-193 -379 -440 -191 -233 -350 -423 -353 -423 -3 0 -29 37 -58 83 -267 425
-701 686 -1288 773 -122 18 -508 26 -624 13z"/>
</g>
</svg>
