<?xml version="1.0" standalone="no"?>
<!DOCTYPE svg PUBLIC "-//W3C//DTD SVG 20010904//EN"
 "http://www.w3.org/TR/2001/REC-SVG-20010904/DTD/svg10.dtd">
<svg version="1.0" xmlns="http://www.w3.org/2000/svg"
 width="1083.000000pt" height="1260.000000pt" viewBox="0 0 1083.000000 1260.000000"
 preserveAspectRatio="xMidYMid meet">
<metadata>
Created by potrace 1.16, written by Peter Selinger 2001-2019
</metadata>
<g transform="translate(0.000000,1260.000000) scale(0.100000,-0.100000)"
fill="#000000" stroke="none">
<path d="M5865 12590 c-774 -79 -1403 -431 -1761 -985 -131 -204 -266 -510
-358 -810 -96 -318 -153 -571 -306 -1370 -61 -319 -114 -590 -117 -602 l-5
-23 -589 0 c-564 0 -591 -1 -628 -19 -54 -28 -69 -57 -107 -209 -37 -147 -36
-181 8 -237 43 -55 39 -55 653 -55 l565 0 -5 -22 c-3 -13 -172 -889 -376
-1948 -580 -3015 -705 -3620 -995 -4825 -109 -455 -153 -585 -261 -766 -62
-107 -188 -236 -265 -273 -139 -67 -396 -31 -562 79 -31 20 -56 40 -56 44 0 4
19 13 43 20 98 30 200 93 287 181 95 95 141 165 181 279 70 198 58 366 -36
507 -109 165 -347 241 -580 185 -153 -37 -266 -103 -376 -219 -130 -135 -204
-318 -216 -532 -28 -511 364 -911 960 -981 380 -44 701 80 1026 395 604 588
961 1515 1395 3626 65 318 101 504 564 2910 l257 1335 1548 3 c1348 2 1547 0
1547 -12 0 -15 -622 -3252 -771 -4011 -340 -1737 -591 -2721 -770 -3021 -109
-181 -327 -435 -484 -564 -139 -113 -281 -192 -417 -230 -214 -60 -536 -22
-766 91 l-104 50 103 51 c87 43 114 62 188 137 96 96 142 166 182 280 70 198
58 366 -36 507 -109 165 -347 241 -580 185 -153 -37 -266 -103 -376 -219 -90
-93 -148 -199 -186 -338 -37 -135 -39 -319 -5 -438 102 -358 427 -606 921
-706 198 -39 427 -51 601 -30 459 56 957 326 1376 746 244 245 390 447 539
745 287 577 537 1440 804 2774 62 310 771 3987 771 3999 0 3 315 6 700 6 674
0 702 1 739 19 54 28 69 57 107 209 37 147 36 181 -7 236 -41 52 -17 51 -750
56 l-685 5 88 460 c297 1544 431 2173 518 2434 37 109 101 203 219 321 71 71
114 104 166 130 68 34 73 35 185 35 134 -1 252 -23 356 -66 116 -48 199 -109
150 -109 -8 0 -56 -21 -107 -47 -76 -38 -109 -62 -179 -132 -95 -96 -141 -166
-181 -280 -70 -198 -58 -366 36 -507 131 -198 444 -261 710 -143 149 66 291
197 362 335 81 155 119 373 94 534 -64 410 -391 698 -913 802 -93 18 -147 22
-303 22 -174 1 -199 -2 -298 -27 -301 -75 -560 -224 -806 -462 -185 -180 -272
-297 -385 -524 -80 -158 -127 -276 -200 -499 -119 -364 -203 -734 -392 -1719
l-108 -563 -1548 0 c-1002 0 -1548 3 -1548 10 0 18 270 1404 309 1590 158 735
299 1186 421 1340 105 132 372 301 593 374 164 54 284 71 497 70 284 -2 488
-43 673 -135 l78 -40 -93 -46 c-75 -38 -108 -62 -178 -132 -95 -96 -141 -166
-181 -280 -70 -198 -58 -366 36 -507 109 -165 347 -241 580 -185 153 37 266
103 376 219 200 209 271 551 172 827 -126 351 -492 582 -1063 670 -124 19
-530 28 -665 15z"/>
</g>
</svg>
