<?xml version="1.0" standalone="no"?>
<!DOCTYPE svg PUBLIC "-//W3C//DTD SVG 20010904//EN"
 "http://www.w3.org/TR/2001/REC-SVG-20010904/DTD/svg10.dtd">
<svg version="1.0" xmlns="http://www.w3.org/2000/svg"
 width="476.000000pt" height="952.000000pt" viewBox="0 0 476.000000 952.000000"
 preserveAspectRatio="xMidYMid meet">
<metadata>
Created by potrace 1.16, written by Peter Selinger 2001-2019
</metadata>
<g transform="translate(0.000000,952.000000) scale(0.100000,-0.100000)"
fill="#000000" stroke="none">
<path d="M3768 9510 c-281 -48 -555 -259 -679 -524 -128 -273 -93 -552 91
-736 121 -122 276 -177 465 -166 215 12 415 105 581 270 308 309 349 741 94
996 -136 136 -340 195 -552 160z"/>
<path d="M3090 7003 c-515 -83 -1004 -458 -1236 -947 -44 -94 -114 -293 -114
-324 0 -9 9 -35 19 -58 28 -62 63 -74 211 -74 176 0 191 11 238 165 67 216
187 413 356 581 212 213 440 324 663 324 98 0 141 -15 196 -68 214 -206 123
-759 -177 -1080 -34 -36 -514 -422 -1105 -889 -575 -455 -1089 -864 -1142
-910 -734 -634 -1131 -1656 -960 -2468 157 -744 727 -1226 1481 -1252 366 -13
706 65 1075 246 312 154 563 338 850 626 447 446 811 1018 1070 1680 113 288
219 644 231 775 12 126 -38 262 -126 344 -182 170 -490 166 -735 -9 -88 -63
-149 -135 -201 -240 -61 -124 -77 -195 -72 -320 3 -94 6 -108 41 -178 72 -145
226 -236 400 -237 26 0 47 -2 47 -5 0 -2 -22 -60 -49 -128 -247 -619 -598
-1161 -1010 -1559 -397 -384 -814 -598 -1263 -647 -315 -35 -591 26 -819 179
-178 120 -337 345 -402 570 -68 234 -64 543 9 824 105 400 361 802 690 1087
54 47 560 449 1124 894 564 445 1063 845 1108 889 311 301 513 727 554 1171
39 428 -132 811 -432 966 -116 60 -204 79 -361 78 -74 -1 -145 -4 -159 -6z"/>
</g>
</svg>
