<?xml version="1.0" standalone="no"?>
<!DOCTYPE svg PUBLIC "-//W3C//DTD SVG 20010904//EN"
 "http://www.w3.org/TR/2001/REC-SVG-20010904/DTD/svg10.dtd">
<svg version="1.0" xmlns="http://www.w3.org/2000/svg"
 width="556.000000pt" height="993.000000pt" viewBox="0 0 556.000000 993.000000"
 preserveAspectRatio="xMidYMid meet">
<metadata>
Created by potrace 1.16, written by Peter Selinger 2001-2019
</metadata>
<g transform="translate(0.000000,993.000000) scale(0.100000,-0.100000)"
fill="#000000" stroke="none">
<path d="M4619 9921 c-285 -53 -533 -211 -689 -441 -62 -92 -127 -234 -156
-345 -34 -125 -38 -292 -11 -395 59 -224 219 -385 442 -445 86 -23 255 -30
356 -16 90 14 221 52 282 82 21 11 37 15 37 9 0 -22 -101 -224 -170 -341 -120
-202 -264 -384 -454 -574 -226 -225 -417 -372 -665 -511 -115 -64 -141 -94
-141 -159 0 -45 16 -75 102 -188 66 -86 106 -117 155 -117 81 0 458 246 714
467 135 117 332 320 443 459 429 532 711 1233 682 1696 -10 149 -46 291 -107
417 -44 91 -63 116 -142 196 -149 149 -283 204 -507 210 -69 2 -146 0 -171 -4z"/>
<path d="M2525 8787 c-119 -40 -194 -85 -281 -172 -142 -140 -123 -82 -447
-1378 l-282 -1127 -653 0 c-529 0 -659 -3 -685 -14 -64 -26 -81 -59 -133 -269
l-48 -194 25 -48 c13 -27 37 -58 52 -69 28 -21 41 -21 658 -24 592 -2 630 -3
625 -20 -16 -54 -957 -3830 -970 -3895 -62 -300 -27 -632 93 -883 69 -145 131
-234 231 -334 249 -249 583 -372 970 -357 231 10 434 63 656 175 228 114 388
234 599 446 210 211 375 426 548 716 92 154 242 462 312 639 65 165 66 189 10
249 l-33 37 -221 3 c-237 3 -263 -1 -295 -51 -8 -12 -43 -92 -77 -177 -286
-717 -676 -1232 -1082 -1430 -135 -66 -250 -93 -392 -94 -99 -1 -115 2 -160
24 -59 30 -107 96 -130 175 -39 131 -36 364 6 615 15 89 912 3716 1020 4123
l10 37 655 0 c629 0 656 1 693 19 21 11 46 32 56 48 21 32 104 351 105 402 0
47 -35 105 -80 130 -37 21 -45 21 -654 21 -399 0 -616 3 -616 10 0 5 122 497
271 1092 245 977 272 1091 272 1168 1 53 -5 106 -16 140 -33 112 -130 214
-246 261 -45 18 -80 23 -176 26 -104 3 -129 0 -190 -20z"/>
</g>
</svg>
