<?xml version="1.0" standalone="no"?>
<!DOCTYPE svg PUBLIC "-//W3C//DTD SVG 20010904//EN"
 "http://www.w3.org/TR/2001/REC-SVG-20010904/DTD/svg10.dtd">
<svg version="1.0" xmlns="http://www.w3.org/2000/svg"
 width="508.000000pt" height="918.000000pt" viewBox="0 0 508.000000 918.000000"
 preserveAspectRatio="xMidYMid meet">
<metadata>
Created by potrace 1.16, written by Peter Selinger 2001-2019
</metadata>
<g transform="translate(0.000000,918.000000) scale(0.100000,-0.100000)"
fill="#000000" stroke="none">
<path d="M4463 9165 c-68 -19 -157 -64 -219 -111 -27 -20 -475 -392 -995 -825
-1029 -858 -990 -821 -974 -908 10 -54 173 -320 210 -342 45 -28 91 -34 133
-17 51 20 2103 1211 2178 1264 137 97 241 254 266 401 35 212 -72 422 -261
512 -70 33 -84 36 -181 38 -69 2 -123 -2 -157 -12z"/>
<path d="M1730 6254 c-14 -2 -52 -9 -85 -15 -169 -30 -390 -127 -552 -242
-113 -80 -293 -254 -396 -381 -292 -363 -533 -866 -677 -1413 -25 -95 -19
-131 31 -179 l30 -29 222 -3 c299 -3 287 -11 350 228 134 507 322 926 533
1189 182 226 426 354 646 339 135 -10 179 -70 186 -256 7 -175 -27 -373 -108
-627 -18 -55 -294 -813 -615 -1685 -321 -872 -594 -1631 -608 -1687 -79 -313
-52 -624 77 -888 146 -298 386 -487 726 -573 93 -23 125 -26 280 -27 187 0
229 6 390 57 349 111 682 392 956 808 218 332 398 746 514 1187 25 95 19 131
-31 179 l-30 29 -222 3 c-299 3 -287 11 -350 -228 -134 -507 -322 -926 -533
-1189 -182 -226 -426 -354 -646 -339 -135 10 -179 70 -186 256 -7 175 27 373
108 627 18 55 294 813 615 1685 321 872 594 1631 608 1687 79 313 52 624 -77
888 -145 296 -386 488 -721 571 -80 20 -132 26 -255 29 -85 2 -166 2 -180 -1z"/>
</g>
</svg>
