<?xml version="1.0" standalone="no"?>
<!DOCTYPE svg PUBLIC "-//W3C//DTD SVG 20010904//EN"
 "http://www.w3.org/TR/2001/REC-SVG-20010904/DTD/svg10.dtd">
<svg version="1.0" xmlns="http://www.w3.org/2000/svg"
 width="1111.000000pt" height="945.000000pt" viewBox="0 0 1111.000000 945.000000"
 preserveAspectRatio="xMidYMid meet">
<metadata>
Created by potrace 1.16, written by Peter Selinger 2001-2019
</metadata>
<g transform="translate(0.000000,945.000000) scale(0.100000,-0.100000)"
fill="#000000" stroke="none">
<path d="M2364 9426 c-48 -30 -64 -62 -99 -203 -41 -168 -29 -230 54 -273 37
-18 59 -20 239 -20 332 0 663 -25 784 -60 20 -6 47 -19 60 -29 21 -18 23 -26
22 -118 -1 -96 -24 -190 -971 -3973 -1061 -4240 -991 -3979 -1092 -4080 -103
-103 -295 -135 -866 -147 -425 -8 -405 3 -464 -241 l-34 -139 24 -49 c13 -26
37 -57 52 -68 33 -24 54 -24 586 -6 803 27 1906 22 2751 -11 284 -12 286 -11
328 10 24 12 51 35 60 50 10 16 33 92 51 169 l34 139 -24 49 c-45 90 -37 88
-392 96 -496 10 -736 42 -769 101 -8 13 -12 57 -11 107 1 76 34 220 322 1370
176 707 326 1295 333 1308 18 31 1820 1534 1828 1525 4 -4 334 -890 734 -1967
703 -1894 727 -1961 728 -2030 0 -88 -13 -139 -53 -199 -40 -61 -88 -100 -174
-142 -94 -46 -199 -65 -390 -72 -88 -2 -174 -9 -192 -14 -60 -19 -87 -64 -121
-202 -18 -70 -32 -141 -32 -158 0 -45 36 -103 81 -128 37 -21 42 -22 271 -12
128 6 526 16 884 23 670 12 1255 5 1756 -23 l206 -12 44 26 c52 30 67 59 103
204 41 168 29 230 -54 273 -34 17 -59 20 -168 20 -371 0 -568 52 -689 183
-123 132 -85 38 -1048 2632 -492 1326 -896 2415 -898 2422 -3 13 2633 2221
2676 2241 15 7 71 47 124 90 403 326 787 556 1166 697 215 80 545 145 734 145
71 0 132 25 158 65 9 14 32 87 51 162 38 151 37 180 -9 238 -41 52 -62 55
-294 40 -457 -31 -1367 -29 -2216 6 l-276 12 -44 -26 c-52 -30 -67 -59 -103
-204 -30 -123 -32 -177 -5 -220 28 -47 81 -69 181 -77 164 -12 280 -69 323
-160 52 -110 -14 -283 -168 -440 -44 -45 -91 -95 -105 -113 -25 -31 -4812
-4036 -4817 -4030 -2 1 244 990 546 2196 603 2414 572 2301 675 2405 100 99
301 132 885 144 281 6 319 9 343 25 44 28 63 70 97 208 36 145 35 180 -7 230
-49 58 -66 61 -331 49 -515 -21 -1302 -32 -1867 -26 -521 6 -712 10 -1300 31
-169 6 -170 6 -211 -19z"/>
</g>
</svg>
