<?xml version="1.0" standalone="no"?>
<!DOCTYPE svg PUBLIC "-//W3C//DTD SVG 20010904//EN"
 "http://www.w3.org/TR/2001/REC-SVG-20010904/DTD/svg10.dtd">
<svg version="1.0" xmlns="http://www.w3.org/2000/svg"
 width="934.000000pt" height="1122.000000pt" viewBox="0 0 934.000000 1122.000000"
 preserveAspectRatio="xMidYMid meet">
<metadata>
Created by potrace 1.16, written by Peter Selinger 2001-2019
</metadata>
<g transform="translate(0.000000,1122.000000) scale(0.100000,-0.100000)"
fill="#000000" stroke="none">
<path d="M8940 11212 c-9 -4 -25 -14 -36 -22 -14 -10 -866 -1045 -1020 -1238
-1 -2 -26 16 -56 40 -696 566 -1641 771 -2638 572 -1649 -329 -3263 -1662
-4186 -3459 -402 -783 -650 -1600 -741 -2440 -24 -229 -25 -809 0 -1023 61
-535 184 -966 397 -1387 103 -205 183 -335 311 -504 l95 -127 -523 -640 c-497
-607 -543 -668 -543 -723 0 -8 9 -34 21 -58 18 -37 40 -56 143 -123 109 -72
126 -80 169 -80 26 0 61 7 77 15 16 8 241 275 526 622 273 335 502 607 508
607 6 -1 60 -38 120 -83 830 -622 1947 -758 3106 -379 322 105 689 269 1001
448 942 539 1816 1412 2421 2420 875 1458 1195 3159 852 4525 -122 484 -348
962 -620 1311 l-71 91 519 634 c286 349 529 648 539 664 23 36 25 105 5 143
-20 39 -48 62 -165 136 -91 57 -111 66 -150 65 -25 0 -53 -3 -61 -7z m-2924
-1093 c431 -42 817 -203 1135 -474 101 -86 261 -265 250 -280 -22 -29 -5737
-7013 -5751 -7029 -17 -17 -19 -15 -49 64 -40 103 -94 300 -121 436 -70 363
-79 836 -24 1309 64 562 260 1441 488 2195 301 995 672 1736 1183 2363 142
175 465 497 633 631 230 185 546 385 778 493 504 235 1018 337 1478 292z
m1719 -1359 c68 -196 115 -405 147 -660 21 -166 18 -783 -5 -985 -54 -477
-139 -920 -298 -1557 -219 -877 -432 -1489 -714 -2047 -267 -530 -565 -950
-940 -1327 -1189 -1193 -2805 -1453 -3771 -605 -88 76 -234 235 -234 253 0 17
5763 7049 5771 7041 4 -4 24 -55 44 -113z"/>
</g>
</svg>
