<?xml version="1.0" standalone="no"?>
<!DOCTYPE svg PUBLIC "-//W3C//DTD SVG 20010904//EN"
 "http://www.w3.org/TR/2001/REC-SVG-20010904/DTD/svg10.dtd">
<svg version="1.0" xmlns="http://www.w3.org/2000/svg"
 width="736.000000pt" height="1230.000000pt" viewBox="0 0 736.000000 1230.000000"
 preserveAspectRatio="xMidYMid meet">
<metadata>
Created by potrace 1.16, written by Peter Selinger 2001-2019
</metadata>
<g transform="translate(0.000000,1230.000000) scale(0.100000,-0.100000)"
fill="#000000" stroke="none">
<path d="M4020 12224 c-1011 -80 -996 -78 -1036 -139 -19 -30 -103 -356 -104
-404 0 -47 35 -105 80 -130 34 -19 53 -21 201 -21 295 0 562 -28 654 -69 74
-33 80 -47 79 -185 l-1 -121 -1282 -5125 c-924 -3693 -1290 -5141 -1311 -5185
-31 -65 -83 -126 -128 -149 -81 -42 -308 -66 -702 -74 -326 -8 -330 -8 -369
-74 -24 -39 -101 -344 -101 -400 0 -56 29 -102 80 -128 39 -20 47 -20 238 -11
108 6 454 16 769 23 590 12 1350 3 1919 -23 229 -11 244 -11 280 7 21 11 48
33 60 51 25 38 104 345 104 405 0 56 -29 102 -79 128 -36 18 -59 20 -228 20
-347 0 -665 29 -720 66 -50 32 -43 62 242 1207 146 584 270 1078 275 1097 l9
35 94 -90 c194 -188 419 -304 710 -367 149 -32 480 -32 648 0 399 75 800 258
1171 534 374 278 733 667 1011 1093 629 967 905 2216 697 3162 -152 696 -540
1190 -1071 1367 -184 61 -250 71 -479 71 -315 -1 -573 -51 -880 -172 -192 -76
-527 -254 -602 -321 -12 -9 -18 -11 -18 -4 0 7 214 867 475 1912 261 1045 475
1919 475 1941 0 88 -73 150 -172 148 -29 -1 -474 -34 -988 -75z m1680 -3963
c175 -56 315 -190 411 -396 151 -321 143 -782 -26 -1550 -53 -243 -229 -950
-291 -1170 -264 -937 -577 -1467 -1082 -1833 -110 -79 -321 -184 -434 -216
-362 -103 -711 -21 -902 211 -95 114 -172 275 -211 440 l-18 73 453 1812 c249
997 459 1824 468 1838 8 14 50 66 93 116 307 358 720 615 1089 678 146 24 148
25 270 21 81 -2 134 -10 180 -24z"/>
</g>
</svg>
