<?xml version="1.0" standalone="no"?>
<!DOCTYPE svg PUBLIC "-//W3C//DTD SVG 20010904//EN"
 "http://www.w3.org/TR/2001/REC-SVG-20010904/DTD/svg10.dtd">
<svg version="1.0" xmlns="http://www.w3.org/2000/svg"
 width="591.000000pt" height="146.000000pt" viewBox="0 0 591.000000 146.000000"
 preserveAspectRatio="xMidYMid meet">
<metadata>
Created by potrace 1.16, written by Peter Selinger 2001-2019
</metadata>
<g transform="translate(0.000000,146.000000) scale(0.100000,-0.100000)"
fill="#000000" stroke="none">
<path d="M1805 1454 c-411 -62 -772 -244 -1205 -606 -160 -134 -548 -508 -577
-556 -26 -42 -30 -100 -9 -140 20 -38 116 -129 149 -141 74 -28 120 -9 232 98
568 541 1074 776 1521 708 231 -36 420 -120 844 -377 424 -256 646 -358 894
-412 146 -32 417 -32 563 0 156 34 273 76 438 157 331 162 603 370 1027 784
209 204 229 233 208 310 -21 80 -139 181 -209 181 -57 -1 -81 -17 -223 -147
-412 -378 -761 -587 -1101 -660 -108 -23 -341 -23 -447 1 -213 48 -368 121
-781 369 -569 341 -793 426 -1139 432 -85 2 -168 1 -185 -1z"/>
</g>
</svg>
