<?xml version="1.0" standalone="no"?>
<!DOCTYPE svg PUBLIC "-//W3C//DTD SVG 20010904//EN"
 "http://www.w3.org/TR/2001/REC-SVG-20010904/DTD/svg10.dtd">
<svg version="1.0" xmlns="http://www.w3.org/2000/svg"
 width="917.000000pt" height="1247.000000pt" viewBox="0 0 917.000000 1247.000000"
 preserveAspectRatio="xMidYMid meet">
<metadata>
Created by potrace 1.16, written by Peter Selinger 2001-2019
</metadata>
<g transform="translate(0.000000,1247.000000) scale(0.100000,-0.100000)"
fill="#000000" stroke="none">
<path d="M5535 12459 c-619 -47 -1291 -250 -1915 -576 -1773 -928 -3136 -2769
-3519 -4753 -66 -341 -91 -582 -98 -935 -8 -400 14 -667 83 -1013 71 -355 168
-641 329 -967 177 -359 356 -609 634 -885 347 -345 722 -579 1190 -741 157
-54 414 -120 549 -140 67 -10 81 -15 78 -28 -33 -109 -126 -511 -126 -542 0
-25 8 -55 21 -76 32 -52 78 -69 201 -77 292 -18 523 -137 610 -314 32 -64 33
-71 32 -182 0 -101 -4 -124 -28 -190 -106 -281 -356 -452 -792 -544 -259 -54
-514 -75 -1014 -82 -359 -6 -387 -8 -421 -26 -45 -25 -72 -72 -93 -164 -17
-79 -11 -122 26 -169 41 -52 61 -55 400 -55 1285 0 1987 120 2434 416 298 197
476 508 477 834 1 125 -15 195 -69 308 -102 212 -320 369 -641 464 -67 20
-113 38 -113 46 0 28 83 348 94 358 6 6 47 17 91 24 192 30 499 118 733 211
760 302 1492 879 2037 1604 380 506 673 1092 831 1664 39 143 42 183 14 229
-32 53 -69 62 -242 62 -210 0 -228 -11 -268 -170 -58 -229 -179 -553 -304
-815 -418 -871 -1115 -1618 -1868 -2001 -535 -272 -1070 -365 -1621 -284 -811
120 -1449 619 -1745 1365 -301 759 -283 1731 58 3094 342 1367 803 2323 1492
3096 491 551 1110 984 1750 1224 542 203 1117 270 1548 181 581 -121 1009
-538 1233 -1202 184 -544 225 -1247 116 -1981 -19 -134 -19 -139 -2 -175 10
-20 33 -47 52 -59 32 -21 45 -23 188 -23 174 0 211 9 242 60 11 19 217 822
492 1924 l473 1891 -20 40 c-30 62 -73 85 -158 85 -52 0 -79 -5 -102 -19 -17
-11 -246 -255 -509 -543 -584 -640 -524 -578 -538 -555 -134 213 -244 353
-393 497 -181 176 -336 284 -569 396 -230 111 -516 189 -785 213 -129 12 -403
12 -555 0z"/>
</g>
</svg>
