<?xml version="1.0" standalone="no"?>
<!DOCTYPE svg PUBLIC "-//W3C//DTD SVG 20010904//EN"
 "http://www.w3.org/TR/2001/REC-SVG-20010904/DTD/svg10.dtd">
<svg version="1.0" xmlns="http://www.w3.org/2000/svg"
 width="912.000000pt" height="1239.000000pt" viewBox="0 0 912.000000 1239.000000"
 preserveAspectRatio="xMidYMid meet">
<metadata>
Created by potrace 1.16, written by Peter Selinger 2001-2019
</metadata>
<g transform="translate(0.000000,1239.000000) scale(0.100000,-0.100000)"
fill="#000000" stroke="none">
<path d="M6785 12380 c-22 -6 -60 -17 -85 -26 -69 -25 -2296 -1253 -2325
-1282 -47 -47 -51 -87 -20 -214 15 -62 36 -129 46 -149 24 -48 75 -79 129 -79
52 0 2336 788 2450 845 150 76 269 232 301 393 41 215 -72 430 -261 498 -55
19 -181 27 -235 14z"/>
<path d="M419 9739 c-49 -29 -67 -64 -100 -193 -35 -135 -36 -187 -8 -233 40
-65 73 -73 297 -73 332 0 663 -25 784 -60 20 -6 47 -19 60 -29 21 -18 23 -26
22 -118 -1 -95 -19 -172 -692 -2858 -380 -1518 -702 -2819 -716 -2891 -51
-265 -60 -360 -61 -669 0 -312 6 -377 56 -630 160 -795 663 -1441 1365 -1755
481 -214 1040 -282 1559 -189 1053 189 2102 990 2754 2104 100 171 240 455
311 630 129 317 150 398 825 3095 385 1539 666 2646 684 2689 92 226 263 411
481 521 194 98 506 160 805 160 156 0 185 28 235 229 37 149 35 183 -11 236
-46 52 -71 56 -269 45 -96 -5 -414 -15 -707 -22 -551 -12 -1225 -4 -1757 23
-228 12 -230 12 -271 -10 -54 -29 -72 -62 -106 -195 -35 -135 -36 -187 -8
-233 36 -59 73 -69 260 -76 470 -18 726 -138 796 -372 13 -44 17 -91 16 -175
l0 -115 -656 -2621 c-439 -1753 -675 -2677 -711 -2787 -183 -553 -447 -1032
-805 -1462 -108 -130 -388 -406 -516 -509 -520 -415 -1098 -648 -1675 -673
-586 -25 -1069 234 -1337 717 -232 417 -257 1087 -73 1915 56 250 1419 5692
1441 5751 30 81 101 185 148 218 22 15 67 36 100 46 133 42 469 70 841 70 287
0 294 5 350 229 36 147 35 182 -7 232 -49 58 -66 61 -331 49 -765 -32 -1957
-36 -2722 -10 -151 5 -351 12 -445 15 -162 6 -172 5 -206 -16z"/>
</g>
</svg>
