<?xml version="1.0" standalone="no"?>
<!DOCTYPE svg PUBLIC "-//W3C//DTD SVG 20010904//EN"
 "http://www.w3.org/TR/2001/REC-SVG-20010904/DTD/svg10.dtd">
<svg version="1.0" xmlns="http://www.w3.org/2000/svg"
 width="495.000000pt" height="911.000000pt" viewBox="0 0 495.000000 911.000000"
 preserveAspectRatio="xMidYMid meet">
<metadata>
Created by potrace 1.16, written by Peter Selinger 2001-2019
</metadata>
<g transform="translate(0.000000,911.000000) scale(0.100000,-0.100000)"
fill="#000000" stroke="none">
<path d="M3235 9099 c-139 -13 -365 -57 -520 -101 -592 -167 -1143 -495 -1605
-958 -480 -479 -808 -1042 -965 -1654 -94 -366 -134 -646 -142 -1001 -10 -431
33 -742 154 -1107 164 -498 451 -889 833 -1136 200 -130 450 -226 700 -269
179 -30 570 -26 779 8 30 5 56 7 58 6 1 -2 -28 -26 -65 -53 -308 -225 -621
-546 -805 -824 -199 -302 -297 -594 -297 -889 0 -318 94 -553 309 -774 175
-180 400 -293 666 -334 121 -18 322 -13 440 12 243 50 490 169 700 335 84 67
279 270 352 366 125 165 253 382 253 430 0 34 -33 96 -60 112 -32 19 -110 42
-145 42 -38 0 -89 -31 -112 -67 -52 -84 -166 -227 -242 -306 -300 -311 -658
-426 -980 -314 -100 35 -172 80 -258 161 -171 161 -253 360 -253 616 0 189 41
353 137 545 186 370 570 739 1088 1045 334 198 747 448 825 500 295 198 659
546 823 787 40 59 49 117 24 159 -24 42 -182 204 -213 219 -80 38 -119 15
-238 -134 -132 -166 -256 -299 -383 -413 -586 -524 -1270 -816 -1973 -845
-351 -14 -589 94 -784 355 -274 364 -355 959 -236 1712 33 204 116 607 161
773 l10 37 262 0 c1424 1 2310 204 2845 654 269 226 451 546 518 911 25 137
15 378 -20 505 -116 417 -449 720 -930 845 -197 51 -463 67 -711 44z m475
-429 c280 -69 491 -270 567 -540 14 -51 18 -99 17 -225 -1 -139 -4 -173 -27
-257 -92 -347 -309 -597 -672 -773 -427 -208 -992 -304 -1897 -322 l-327 -6
45 151 c200 678 464 1147 834 1479 315 282 666 458 1018 508 131 19 331 12
442 -15z"/>
</g>
</svg>
