<?xml version="1.0" standalone="no"?>
<!DOCTYPE svg PUBLIC "-//W3C//DTD SVG 20010904//EN"
 "http://www.w3.org/TR/2001/REC-SVG-20010904/DTD/svg10.dtd">
<svg version="1.0" xmlns="http://www.w3.org/2000/svg"
 width="222.000000pt" height="425.000000pt" viewBox="0 0 222.000000 425.000000"
 preserveAspectRatio="xMidYMid meet">
<metadata>
Created by potrace 1.16, written by Peter Selinger 2001-2019
</metadata>
<g transform="translate(0.000000,425.000000) scale(0.100000,-0.100000)"
fill="#000000" stroke="none">
<path d="M1336 4234 c-368 -73 -662 -353 -761 -724 -30 -116 -35 -285 -9 -384
51 -196 184 -335 389 -403 73 -25 93 -27 235 -27 139 1 164 3 245 28 105 32
196 72 260 116 25 17 45 27 45 23 0 -23 -74 -283 -110 -388 -266 -771 -779
-1487 -1473 -2053 -184 -150 -192 -180 -88 -320 77 -104 136 -127 211 -81 120
73 443 364 659 593 579 614 997 1358 1185 2112 204 816 35 1389 -445 1504 -98
23 -238 25 -343 4z"/>
</g>
</svg>
