<?xml version="1.0" standalone="no"?>
<!DOCTYPE svg PUBLIC "-//W3C//DTD SVG 20010904//EN"
 "http://www.w3.org/TR/2001/REC-SVG-20010904/DTD/svg10.dtd">
<svg version="1.0" xmlns="http://www.w3.org/2000/svg"
 width="510.000000pt" height="245.000000pt" viewBox="0 0 510.000000 245.000000"
 preserveAspectRatio="xMidYMid meet">
<metadata>
Created by potrace 1.16, written by Peter Selinger 2001-2019
</metadata>
<g transform="translate(0.000000,245.000000) scale(0.100000,-0.100000)"
fill="#000000" stroke="none">
<path d="M2955 2432 c-22 -11 -638 -414 -1370 -897 -731 -482 -1378 -909
-1437 -948 -115 -75 -148 -116 -148 -185 0 -19 31 -93 80 -191 64 -127 86
-163 112 -179 44 -26 86 -34 124 -23 17 5 593 345 1280 756 686 410 1251 747
1254 748 3 1 396 -331 872 -738 578 -493 882 -746 912 -759 79 -34 106 -19
283 157 168 169 185 196 164 274 -10 37 -120 149 -988 1003 -537 529 -986 968
-997 975 -37 25 -97 27 -141 7z"/>
</g>
</svg>
