<?xml version="1.0" standalone="no"?>
<!DOCTYPE svg PUBLIC "-//W3C//DTD SVG 20010904//EN"
 "http://www.w3.org/TR/2001/REC-SVG-20010904/DTD/svg10.dtd">
<svg version="1.0" xmlns="http://www.w3.org/2000/svg"
 width="282.000000pt" height="223.000000pt" viewBox="0 0 282.000000 223.000000"
 preserveAspectRatio="xMidYMid meet">
<metadata>
Created by potrace 1.16, written by Peter Selinger 2001-2019
</metadata>
<g transform="translate(0.000000,223.000000) scale(0.100000,-0.100000)"
fill="#000000" stroke="none">
<path d="M2185 2210 c-33 -11 -91 -37 -128 -57 -44 -25 -409 -321 -1047 -851
-903 -750 -980 -816 -996 -858 -23 -60 -14 -86 87 -258 85 -143 111 -170 177
-182 20 -4 48 -1 70 8 62 25 2153 1238 2214 1284 77 60 130 124 179 217 71
136 82 280 34 417 -38 108 -133 211 -243 263 -61 29 -77 32 -177 34 -88 2
-122 -1 -170 -17z"/>
</g>
</svg>
