<?xml version="1.0" standalone="no"?>
<!DOCTYPE svg PUBLIC "-//W3C//DTD SVG 20010904//EN"
 "http://www.w3.org/TR/2001/REC-SVG-20010904/DTD/svg10.dtd">
<svg version="1.0" xmlns="http://www.w3.org/2000/svg"
 width="1290.000000pt" height="1210.000000pt" viewBox="0 0 1290.000000 1210.000000"
 preserveAspectRatio="xMidYMid meet">
<metadata>
Created by potrace 1.16, written by Peter Selinger 2001-2019
</metadata>
<g transform="translate(0.000000,1210.000000) scale(0.100000,-0.100000)"
fill="#000000" stroke="none">
<path d="M5640 12089 c-459 -46 -892 -203 -1205 -437 -189 -142 -310 -268
-436 -456 -221 -328 -380 -759 -523 -1421 -32 -147 -256 -1301 -256 -1318 0
-4 -251 -7 -559 -7 l-558 0 -33 -22 c-52 -36 -69 -67 -96 -173 -29 -112 -26
-149 13 -195 52 -62 32 -60 613 -60 l532 0 -6 -27 c-4 -16 -175 -905 -381
-1978 -501 -2603 -625 -3219 -801 -3980 -95 -411 -232 -948 -266 -1045 -103
-292 -261 -513 -423 -595 -57 -28 -66 -30 -175 -29 -186 2 -330 52 -442 153
l-51 45 69 21 c176 54 340 184 416 330 125 241 109 488 -42 629 -182 170 -490
166 -735 -9 -182 -130 -286 -353 -287 -620 -1 -144 22 -248 83 -371 159 -324
574 -537 1014 -521 156 5 257 32 410 106 440 216 827 726 1103 1456 212 563
405 1293 618 2340 31 154 222 1137 424 2185 l366 1905 1588 3 1588 2 -6 -27
c-3 -16 -168 -872 -366 -1903 -199 -1031 -395 -2044 -436 -2250 -279 -1397
-495 -2231 -666 -2574 -106 -213 -383 -527 -604 -684 -110 -79 -283 -165 -389
-194 -67 -18 -107 -21 -240 -22 -175 0 -301 18 -440 61 -80 25 -228 96 -274
132 l-24 18 39 13 c21 7 75 31 119 53 105 54 225 172 277 272 125 241 109 488
-42 629 -182 170 -490 166 -735 -9 -180 -128 -285 -352 -285 -608 0 -137 17
-213 77 -334 102 -210 317 -373 623 -473 263 -86 603 -121 865 -89 455 55 958
325 1370 734 269 267 424 494 586 860 242 547 454 1305 684 2445 36 179 221
1133 411 2120 190 987 347 1803 350 1813 5 16 84 17 1475 17 808 0 1469 -2
1469 -5 0 -3 -218 -877 -484 -1942 -267 -1066 -492 -1986 -500 -2044 -76 -513
111 -996 482 -1243 101 -67 208 -114 341 -149 108 -28 128 -30 291 -31 163 0
181 2 265 28 385 118 654 453 874 1091 58 166 143 460 217 750 l48 190 -20 39
c-34 70 -58 81 -198 84 -136 4 -182 -7 -211 -51 -9 -14 -48 -146 -86 -294
-121 -466 -205 -728 -309 -963 -107 -242 -258 -438 -388 -502 -61 -30 -74 -33
-162 -33 -110 0 -167 21 -221 83 -78 88 -104 198 -103 432 0 176 13 295 55
500 10 52 456 1839 989 3971 534 2132 970 3892 970 3910 0 46 -19 79 -59 106
-34 23 -36 23 -377 23 -202 0 -353 -4 -369 -10 -61 -23 -68 -40 -166 -436
l-94 -376 -6 108 c-24 458 -424 744 -1173 840 -170 21 -547 29 -741 15 -463
-34 -850 -141 -1173 -325 -543 -308 -864 -778 -1086 -1591 -79 -285 -93 -356
-302 -1432 l-56 -293 -1584 0 c-1439 0 -1584 1 -1584 16 0 24 245 1291 296
1529 125 582 230 946 338 1170 49 100 63 118 145 198 195 188 456 320 742 374
71 13 141 17 284 17 209 -1 352 -21 500 -69 87 -28 225 -93 265 -125 l25 -20
-25 -7 c-14 -3 -65 -27 -115 -52 -209 -104 -349 -316 -371 -561 -12 -126 38
-262 126 -344 182 -170 490 -166 735 9 88 63 149 135 200 240 61 123 77 187
82 342 5 121 3 139 -21 224 -48 165 -128 283 -268 394 -181 143 -435 240 -758
290 -126 20 -521 28 -660 14z m4920 -354 c218 -29 417 -88 548 -161 l66 -37
-37 -13 c-150 -52 -310 -187 -379 -319 -125 -241 -109 -488 42 -629 251 -235
728 -123 921 215 17 30 29 45 27 34 -3 -11 -137 -550 -299 -1197 l-294 -1178
-1482 0 c-1253 0 -1483 2 -1483 14 0 20 234 1230 281 1451 142 668 277 1096
412 1302 168 256 585 474 998 522 52 6 108 13 124 15 63 9 445 -4 555 -19z"/>
</g>
</svg>
