<?xml version="1.0" standalone="no"?>
<!DOCTYPE svg PUBLIC "-//W3C//DTD SVG 20010904//EN"
 "http://www.w3.org/TR/2001/REC-SVG-20010904/DTD/svg10.dtd">
<svg version="1.0" xmlns="http://www.w3.org/2000/svg"
 width="577.000000pt" height="627.000000pt" viewBox="0 0 577.000000 627.000000"
 preserveAspectRatio="xMidYMid meet">
<metadata>
Created by potrace 1.16, written by Peter Selinger 2001-2019
</metadata>
<g transform="translate(0.000000,627.000000) scale(0.100000,-0.100000)"
fill="#000000" stroke="none">
<path d="M4964 6251 c-80 -20 -200 -74 -271 -122 -71 -48 -190 -166 -235 -232
-90 -132 -138 -270 -138 -397 0 -159 41 -248 187 -402 249 -264 362 -524 392
-900 12 -140 2 -320 -25 -468 -45 -247 -255 -1011 -379 -1379 -367 -1088 -792
-1664 -1334 -1808 -83 -23 -117 -26 -251 -26 -128 0 -169 3 -235 21 -403 110
-595 444 -595 1035 0 562 161 1176 683 2613 96 263 186 525 200 581 115 454 3
903 -296 1190 -138 133 -300 219 -507 271 -93 23 -125 26 -280 27 -187 0 -229
-6 -390 -57 -573 -181 -1087 -816 -1384 -1711 -30 -89 -66 -208 -81 -264 -31
-117 -27 -149 26 -199 l30 -29 222 -3 c300 -3 287 -12 351 233 113 430 292
852 464 1094 209 295 466 448 714 428 144 -12 187 -81 188 -297 0 -160 -37
-354 -112 -590 -17 -52 -109 -311 -205 -575 -434 -1193 -596 -1743 -659 -2240
-23 -178 -22 -522 0 -670 97 -639 433 -1053 1016 -1253 250 -86 443 -116 745
-116 246 -1 317 9 503 70 770 251 1411 1123 1897 2579 99 297 170 545 271 947
220 880 278 1226 279 1653 0 270 -9 341 -62 509 -118 375 -405 567 -729 487z"/>
</g>
</svg>
