<?xml version="1.0" standalone="no"?>
<!DOCTYPE svg PUBLIC "-//W3C//DTD SVG 20010904//EN"
 "http://www.w3.org/TR/2001/REC-SVG-20010904/DTD/svg10.dtd">
<svg version="1.0" xmlns="http://www.w3.org/2000/svg"
 width="493.000000pt" height="219.000000pt" viewBox="0 0 493.000000 219.000000"
 preserveAspectRatio="xMidYMid meet">
<metadata>
Created by potrace 1.16, written by Peter Selinger 2001-2019
</metadata>
<g transform="translate(0.000000,219.000000) scale(0.100000,-0.100000)"
fill="#000000" stroke="none">
<path d="M2260 2174 c-132 -34 -155 -52 -1205 -914 -556 -456 -1020 -844
-1032 -861 -17 -23 -23 -46 -23 -82 0 -44 8 -64 60 -152 33 -56 70 -111 83
-123 46 -43 115 -54 170 -26 80 41 2160 1250 2220 1291 183 123 285 324 257
507 -39 263 -280 426 -530 360z"/>
<path d="M4380 2174 c-132 -34 -155 -52 -1205 -914 -555 -456 -1020 -844
-1032 -861 -17 -23 -23 -46 -23 -82 0 -44 8 -64 60 -152 33 -56 70 -111 83
-123 46 -43 115 -54 170 -26 80 41 2160 1250 2220 1291 183 123 285 324 257
507 -39 263 -280 426 -530 360z"/>
</g>
</svg>
