<?xml version="1.0" standalone="no"?>
<!DOCTYPE svg PUBLIC "-//W3C//DTD SVG 20010904//EN"
 "http://www.w3.org/TR/2001/REC-SVG-20010904/DTD/svg10.dtd">
<svg version="1.0" xmlns="http://www.w3.org/2000/svg"
 width="621.000000pt" height="901.000000pt" viewBox="0 0 621.000000 901.000000"
 preserveAspectRatio="xMidYMid meet">
<metadata>
Created by potrace 1.16, written by Peter Selinger 2001-2019
</metadata>
<g transform="translate(0.000000,901.000000) scale(0.100000,-0.100000)"
fill="#000000" stroke="none">
<path d="M2459 8982 c-94 -60 -134 -135 -110 -210 13 -44 1335 -1907 1372
-1934 35 -26 101 -34 141 -17 52 21 2289 1873 2316 1917 17 28 22 48 19 83 -4
53 -48 131 -89 162 -40 30 -116 34 -164 9 -21 -11 -466 -275 -989 -587 -522
-312 -953 -567 -957 -568 -4 -1 -309 255 -678 568 -369 314 -685 578 -703 588
-48 26 -105 22 -158 -11z"/>
<path d="M3235 6249 c-139 -13 -365 -57 -520 -101 -592 -167 -1143 -495 -1605
-958 -480 -479 -808 -1042 -965 -1654 -94 -366 -134 -646 -142 -1001 -10 -431
33 -742 154 -1107 164 -498 451 -889 833 -1136 205 -133 463 -230 725 -274
101 -16 522 -17 660 0 719 87 1361 346 1905 768 207 160 505 468 623 641 40
59 49 117 24 159 -24 42 -182 204 -213 219 -80 38 -119 15 -238 -134 -132
-166 -256 -299 -383 -413 -586 -524 -1270 -816 -1973 -845 -351 -14 -589 94
-784 355 -274 364 -355 959 -236 1712 33 204 116 607 161 773 l10 37 262 0
c1424 1 2310 204 2845 654 269 226 451 546 518 911 25 137 15 378 -20 505
-116 417 -449 720 -930 845 -197 51 -463 67 -711 44z m475 -429 c280 -69 491
-270 567 -540 14 -51 18 -99 17 -225 -1 -139 -4 -173 -27 -257 -92 -347 -309
-597 -672 -773 -427 -208 -992 -304 -1897 -322 l-327 -6 45 151 c200 678 464
1147 834 1479 315 282 666 458 1018 508 131 19 331 12 442 -15z"/>
</g>
</svg>
