<?xml version="1.0" standalone="no"?>
<!DOCTYPE svg PUBLIC "-//W3C//DTD SVG 20010904//EN"
 "http://www.w3.org/TR/2001/REC-SVG-20010904/DTD/svg10.dtd">
<svg version="1.0" xmlns="http://www.w3.org/2000/svg"
 width="574.000000pt" height="1144.000000pt" viewBox="0 0 574.000000 1144.000000"
 preserveAspectRatio="xMidYMid meet">
<metadata>
Created by potrace 1.16, written by Peter Selinger 2001-2019
</metadata>
<g transform="translate(0.000000,1144.000000) scale(0.100000,-0.100000)"
fill="#000000" stroke="none">
<path d="M5195 11421 c-150 -43 -276 -144 -339 -272 -24 -50 -57 -156 -101
-328 -572 -2224 -1372 -4053 -2408 -5508 -496 -696 -1061 -1325 -1666 -1853
-111 -98 -154 -128 -236 -168 -170 -83 -318 -209 -407 -346 -28 -43 -38 -70
-38 -98 0 -48 7 -62 82 -160 67 -89 103 -113 160 -105 42 6 76 29 346 239 150
117 153 120 245 143 218 55 539 80 917 72 435 -9 646 -61 1303 -317 155 -61
292 -115 303 -120 22 -8 18 -24 -242 -1062 -144 -579 -268 -1083 -274 -1120
-20 -114 19 -237 97 -313 162 -158 462 -132 653 55 105 104 102 96 370 1170
133 531 245 982 251 1002 l9 37 173 -6 c337 -11 650 42 1042 178 211 72 251
92 275 131 22 37 26 88 8 121 -21 40 -128 176 -150 191 -34 24 -95 19 -182
-14 -300 -116 -747 -184 -1002 -154 l-51 6 319 1277 c311 1243 320 1278 316
1357 -3 63 -11 94 -32 137 -119 243 -488 262 -715 37 -114 -112 -100 -67 -432
-1393 -163 -653 -299 -1191 -302 -1193 -3 -3 -130 44 -284 104 -360 142 -567
213 -766 262 -276 67 -348 75 -728 75 l-337 0 140 135 c78 74 147 138 154 143
23 14 465 479 629 662 1417 1587 2506 3556 3170 5730 103 337 222 780 240 892
14 89 -33 221 -102 288 -97 95 -260 129 -408 86z"/>
</g>
</svg>
