<?xml version="1.0" standalone="no"?>
<!DOCTYPE svg PUBLIC "-//W3C//DTD SVG 20010904//EN"
 "http://www.w3.org/TR/2001/REC-SVG-20010904/DTD/svg10.dtd">
<svg version="1.0" xmlns="http://www.w3.org/2000/svg"
 width="839.000000pt" height="900.000000pt" viewBox="0 0 839.000000 900.000000"
 preserveAspectRatio="xMidYMid meet">
<metadata>
Created by potrace 1.16, written by Peter Selinger 2001-2019
</metadata>
<g transform="translate(0.000000,900.000000) scale(0.100000,-0.100000)"
fill="#000000" stroke="none">
<path d="M995 8981 c-16 -10 -38 -27 -48 -38 -10 -11 -227 -645 -483 -1409
-502 -1499 -484 -1434 -436 -1502 35 -49 76 -62 197 -62 119 0 162 13 194 59
10 14 53 130 95 256 353 1049 628 1605 904 1828 311 251 696 388 1196 427 164
13 1116 13 1216 0 138 -18 148 -31 129 -168 -15 -111 -1854 -7465 -1885 -7539
-47 -114 -124 -209 -209 -259 -130 -76 -463 -111 -1145 -121 -451 -6 -452 -6
-498 -56 -27 -28 -71 -187 -72 -253 0 -52 33 -103 81 -127 34 -16 58 -17 340
-7 167 5 660 15 1094 21 811 12 1865 3 2658 -22 383 -12 385 -12 435 46 41 46
87 229 72 285 -11 41 -66 97 -103 104 -12 3 -206 7 -432 10 -692 9 -1008 46
-1064 125 -29 40 -45 123 -37 190 11 93 1860 7468 1895 7557 58 149 115 191
291 214 103 13 1069 13 1227 -1 331 -28 556 -93 740 -215 151 -101 235 -219
268 -378 63 -310 35 -759 -101 -1601 -20 -120 -34 -234 -31 -252 8 -45 40 -87
81 -107 48 -23 234 -23 282 0 74 35 58 -44 306 1448 125 754 228 1392 228
1417 0 56 -30 106 -80 131 -33 17 -229 18 -3655 18 -3507 0 -3621 -1 -3650
-19z"/>
</g>
</svg>
