<?xml version="1.0" standalone="no"?>
<!DOCTYPE svg PUBLIC "-//W3C//DTD SVG 20010904//EN"
 "http://www.w3.org/TR/2001/REC-SVG-20010904/DTD/svg10.dtd">
<svg version="1.0" xmlns="http://www.w3.org/2000/svg"
 width="1018.000000pt" height="975.000000pt" viewBox="0 0 1018.000000 975.000000"
 preserveAspectRatio="xMidYMid meet">
<metadata>
Created by potrace 1.16, written by Peter Selinger 2001-2019
</metadata>
<g transform="translate(0.000000,975.000000) scale(0.100000,-0.100000)"
fill="#000000" stroke="none">
<path d="M7160 9743 c-755 -52 -1481 -302 -2148 -739 -167 -109 -327 -229
-465 -346 -54 -46 -111 -93 -127 -106 l-28 -23 85 338 c90 358 93 386 54 441
-38 54 -72 63 -186 47 -55 -8 -167 -17 -250 -21 -165 -7 -1061 9 -1497 27
-263 11 -278 11 -314 -7 -53 -26 -78 -68 -104 -174 -25 -102 -23 -154 9 -198
39 -55 69 -62 278 -62 350 0 650 -27 760 -68 63 -23 78 -61 69 -176 -8 -96
-1850 -7475 -1896 -7594 -58 -151 -128 -225 -246 -262 -140 -43 -449 -70 -805
-70 -187 0 -198 -1 -229 -23 -51 -34 -67 -64 -95 -169 -29 -111 -27 -152 12
-199 50 -59 58 -60 315 -49 128 5 505 15 838 21 622 12 1419 3 2036 -22 251
-11 274 -10 308 6 52 25 73 60 102 173 30 114 28 154 -13 202 -47 56 -64 60
-275 60 -343 0 -620 24 -738 63 -84 29 -92 44 -87 164 4 80 104 490 836 3420
l832 3328 80 100 c369 463 848 859 1349 1114 734 375 1506 460 2150 239 987
-340 1479 -1399 1229 -2643 -29 -141 -1083 -4359 -1121 -4480 -199 -650 -605
-1233 -1063 -1527 -247 -159 -457 -210 -725 -178 -439 54 -774 315 -904 704
-14 43 -26 82 -26 86 0 4 57 10 128 12 108 4 141 10 221 37 137 46 222 99 326
205 137 138 212 290 237 482 37 275 -117 508 -382 580 -84 23 -250 23 -344 0
-257 -62 -477 -248 -573 -487 -116 -287 -123 -691 -19 -1003 129 -383 439
-695 846 -851 183 -71 434 -115 649 -115 944 0 1921 565 2461 1424 93 148 211
396 263 553 60 181 1121 4425 1152 4608 68 402 57 838 -29 1185 -92 369 -264
722 -487 997 -84 104 -275 295 -374 373 -265 210 -602 383 -945 484 -321 96
-779 144 -1130 119z"/>
</g>
</svg>
