<?xml version="1.0" standalone="no"?>
<!DOCTYPE svg PUBLIC "-//W3C//DTD SVG 20010904//EN"
 "http://www.w3.org/TR/2001/REC-SVG-20010904/DTD/svg10.dtd">
<svg version="1.0" xmlns="http://www.w3.org/2000/svg"
 width="1107.000000pt" height="945.000000pt" viewBox="0 0 1107.000000 945.000000"
 preserveAspectRatio="xMidYMid meet">
<metadata>
Created by potrace 1.16, written by Peter Selinger 2001-2019
</metadata>
<g transform="translate(0.000000,945.000000) scale(0.100000,-0.100000)"
fill="#000000" stroke="none">
<path d="M2369 9429 c-49 -29 -67 -64 -100 -193 -35 -135 -36 -187 -8 -233 40
-65 73 -73 297 -73 332 0 663 -25 784 -60 20 -6 47 -19 60 -29 21 -18 23 -26
22 -118 -1 -96 -24 -190 -971 -3973 -1061 -4240 -991 -3979 -1092 -4080 -103
-103 -295 -135 -866 -147 -356 -6 -373 -10 -413 -75 -11 -18 -34 -94 -53 -169
l-33 -136 25 -49 c13 -26 37 -57 52 -68 33 -24 54 -24 586 -6 803 27 1906 22
2751 -11 282 -11 286 -11 327 9 57 29 75 66 114 223 l33 136 -25 49 c-45 90
-37 88 -392 96 -496 10 -736 42 -769 101 -8 13 -12 57 -11 107 1 77 47 270
480 2000 l479 1915 1866 3 1866 2 -472 -1888 c-517 -2065 -497 -1994 -595
-2092 -103 -103 -295 -135 -866 -147 -356 -6 -373 -10 -413 -75 -11 -18 -34
-94 -53 -169 l-33 -136 25 -49 c13 -26 37 -57 52 -68 33 -24 54 -24 586 -6
803 27 1906 22 2751 -11 282 -11 286 -11 327 9 57 29 75 66 114 223 l33 136
-25 49 c-45 90 -37 88 -392 96 -496 10 -736 42 -769 101 -8 13 -12 57 -11 107
1 77 87 428 967 3946 531 2124 975 3888 987 3920 30 81 101 185 148 218 22 15
67 36 100 46 133 42 469 70 841 70 287 0 294 5 350 229 37 149 35 183 -11 236
-47 53 -68 56 -314 45 -121 -5 -516 -15 -877 -22 -681 -12 -1559 -3 -2193 23
-268 12 -269 12 -310 -10 -54 -29 -72 -62 -106 -195 -35 -135 -36 -187 -8
-233 40 -65 73 -73 297 -73 332 0 663 -25 784 -60 20 -6 47 -19 60 -29 21 -18
23 -27 23 -113 0 -89 -17 -160 -434 -1825 l-433 -1733 -1864 0 c-1025 0 -1864
2 -1864 5 0 21 844 3376 861 3421 30 81 101 185 148 218 22 15 67 36 100 46
133 42 469 70 841 70 287 0 294 5 350 229 36 147 35 182 -7 232 -49 58 -66 61
-331 49 -765 -32 -1957 -36 -2722 -10 -151 5 -351 12 -445 15 -162 6 -172 5
-206 -16z"/>
</g>
</svg>
