<?xml version="1.0" standalone="no"?>
<!DOCTYPE svg PUBLIC "-//W3C//DTD SVG 20010904//EN"
 "http://www.w3.org/TR/2001/REC-SVG-20010904/DTD/svg10.dtd">
<svg version="1.0" xmlns="http://www.w3.org/2000/svg"
 width="915.000000pt" height="320.000000pt" viewBox="0 0 915.000000 320.000000"
 preserveAspectRatio="xMidYMid meet">
<metadata>
Created by potrace 1.16, written by Peter Selinger 2001-2019
</metadata>
<g transform="translate(0.000000,320.000000) scale(0.100000,-0.100000)"
fill="#000000" stroke="none">
<path d="M860 3191 c-45 -14 -84 -39 -116 -73 -53 -55 -68 -95 -68 -173 0
-101 47 -179 139 -228 l40 -22 4030 -3 c2891 -2 4041 0 4070 8 111 31 180 124
180 245 0 117 -59 201 -168 242 -24 9 -1001 11 -4057 11 -2214 0 -4036 -3
-4050 -7z"/>
<path d="M173 497 c-109 -41 -168 -125 -168 -242 0 -121 69 -214 180 -245 29
-8 1179 -10 4070 -8 3908 3 4031 4 4065 22 96 51 144 128 144 231 0 103 -48
180 -144 231 -34 18 -156 19 -4075 21 -3076 1 -4048 -1 -4072 -10z"/>
</g>
</svg>
