<?xml version="1.0" standalone="no"?>
<!DOCTYPE svg PUBLIC "-//W3C//DTD SVG 20010904//EN"
 "http://www.w3.org/TR/2001/REC-SVG-20010904/DTD/svg10.dtd">
<svg version="1.0" xmlns="http://www.w3.org/2000/svg"
 width="569.000000pt" height="937.000000pt" viewBox="0 0 569.000000 937.000000"
 preserveAspectRatio="xMidYMid meet">
<metadata>
Created by potrace 1.16, written by Peter Selinger 2001-2019
</metadata>
<g transform="translate(0.000000,937.000000) scale(0.100000,-0.100000)"
fill="#000000" stroke="none">
<path d="M2035 9293 c-661 -58 -858 -78 -885 -91 -49 -24 -74 -67 -100 -172
-34 -137 -18 -199 60 -241 30 -16 58 -19 195 -19 293 0 534 -27 633 -70 73
-32 89 -117 56 -291 -8 -46 -461 -1866 -1006 -4044 -944 -3775 -990 -3963
-985 -4027 11 -139 99 -260 225 -309 47 -19 75 -23 162 -22 117 0 186 19 270
73 71 46 166 150 199 219 19 42 137 497 376 1453 191 766 352 1397 356 1402
13 15 305 -46 449 -93 260 -86 465 -206 615 -362 146 -151 216 -282 251 -465
22 -120 14 -298 -21 -449 -109 -468 -77 -858 96 -1195 200 -389 586 -608 1034
-587 496 23 891 395 1183 1117 92 227 198 561 272 856 23 90 23 91 4 129 -34
69 -59 80 -198 83 -141 4 -184 -8 -215 -58 -10 -18 -40 -116 -66 -219 -139
-557 -268 -919 -417 -1170 -83 -140 -231 -291 -330 -339 -187 -91 -413 -77
-504 31 -75 88 -107 220 -107 437 0 223 28 411 116 785 l51 220 1 200 c0 188
-2 206 -27 298 -100 356 -338 615 -753 818 -217 105 -470 186 -766 243 -217
43 -206 30 -92 112 242 176 508 438 929 914 519 587 720 782 994 965 202 135
388 211 592 241 218 32 338 5 434 -98 l49 -52 -90 -21 c-222 -52 -377 -170
-471 -360 -61 -124 -77 -195 -72 -320 3 -94 6 -108 41 -178 149 -302 606 -319
892 -32 96 95 142 178 182 321 25 89 28 115 28 264 0 143 -3 176 -23 245 -124
428 -492 643 -979 571 -410 -60 -787 -281 -1225 -719 -149 -149 -283 -295
-602 -657 -217 -247 -581 -615 -706 -714 -112 -88 -257 -185 -349 -230 -40
-21 -75 -36 -76 -34 -2 2 309 1254 691 2783 513 2050 694 2788 689 2812 -7 38
-46 88 -86 108 -15 8 -50 14 -76 14 -26 -1 -430 -35 -898 -76z"/>
</g>
</svg>
