<?xml version="1.0" standalone="no"?>
<!DOCTYPE svg PUBLIC "-//W3C//DTD SVG 20010904//EN"
 "http://www.w3.org/TR/2001/REC-SVG-20010904/DTD/svg10.dtd">
<svg version="1.0" xmlns="http://www.w3.org/2000/svg"
 width="992.000000pt" height="1281.000000pt" viewBox="0 0 992.000000 1281.000000"
 preserveAspectRatio="xMidYMid meet">
<metadata>
Created by potrace 1.16, written by Peter Selinger 2001-2019
</metadata>
<g transform="translate(0.000000,1281.000000) scale(0.100000,-0.100000)"
fill="#000000" stroke="none">
<path d="M5165 12796 c-34 -15 -96 -80 -119 -125 -20 -37 -20 -81 -2 -124 16
-39 1415 -1523 1465 -1554 43 -27 99 -30 144 -6 18 9 519 353 1114 765 887
614 1084 755 1097 782 53 113 -39 275 -156 276 -29 0 -261 -106 -999 -455
-528 -250 -966 -452 -973 -448 -6 3 -328 203 -716 443 -388 240 -715 442 -727
448 -29 16 -90 15 -128 -2z"/>
<path d="M2369 9429 c-20 -12 -44 -35 -54 -52 -23 -39 -74 -240 -75 -292 0
-55 29 -105 76 -132 37 -21 50 -23 244 -23 341 0 659 -25 782 -60 20 -6 47
-19 60 -29 21 -18 23 -26 22 -118 -1 -96 -24 -190 -971 -3973 -1061 -4240
-991 -3979 -1092 -4080 -103 -103 -295 -135 -866 -147 -422 -8 -403 2 -461
-231 -29 -114 -33 -140 -24 -173 14 -52 54 -96 98 -109 55 -16 4826 -8 4942 8
391 55 705 136 1034 267 834 331 1626 922 2276 1700 802 958 1316 2106 1489
3320 62 433 70 972 20 1360 -84 659 -312 1255 -652 1708 -474 631 -1132 994
-1932 1067 -70 6 -985 10 -2495 10 l-2385 0 -36 -21z m4546 -523 c608 -104
1063 -383 1367 -838 332 -495 444 -1163 342 -2038 -78 -680 -388 -1938 -649
-2640 -280 -752 -634 -1330 -1105 -1800 -564 -565 -1255 -924 -2005 -1042
-135 -21 -171 -22 -1065 -25 -910 -4 -1068 0 -1149 28 l-34 12 6 86 c4 70 192
833 990 4026 543 2168 998 3974 1013 4015 59 165 113 207 294 229 41 5 485 8
985 7 807 -2 921 -4 1010 -20z"/>
</g>
</svg>
