<?xml version="1.0" standalone="no"?>
<!DOCTYPE svg PUBLIC "-//W3C//DTD SVG 20010904//EN"
 "http://www.w3.org/TR/2001/REC-SVG-20010904/DTD/svg10.dtd">
<svg version="1.0" xmlns="http://www.w3.org/2000/svg"
 width="917.000000pt" height="1007.000000pt" viewBox="0 0 917.000000 1007.000000"
 preserveAspectRatio="xMidYMid meet">
<metadata>
Created by potrace 1.16, written by Peter Selinger 2001-2019
</metadata>
<g transform="translate(0.000000,1007.000000) scale(0.100000,-0.100000)"
fill="#000000" stroke="none">
<path d="M5585 10064 c-22 -2 -92 -9 -155 -15 -395 -37 -877 -160 -1305 -331
-333 -133 -788 -377 -1106 -593 -720 -488 -1358 -1133 -1858 -1875 -639 -950
-1018 -1960 -1137 -3035 -22 -196 -30 -662 -15 -866 63 -864 355 -1633 839
-2209 106 -127 344 -358 462 -449 612 -475 1358 -711 2175 -688 231 7 328 16
545 53 384 64 745 182 1085 354 300 151 535 314 745 517 66 64 122 114 124
112 1 -2 26 -42 54 -89 99 -167 267 -370 438 -529 122 -114 154 -128 229 -97
47 20 63 50 95 178 428 1708 686 2721 704 2762 31 69 72 115 122 138 69 30
225 48 469 54 127 3 244 10 262 15 66 21 86 60 137 265 51 208 51 233 0 293
-39 47 -69 52 -264 41 -96 -5 -408 -15 -692 -22 -539 -13 -1628 -2 -2339 23
-313 11 -315 11 -357 -10 -23 -12 -49 -32 -58 -46 -20 -30 -103 -356 -104
-404 0 -47 35 -105 80 -130 36 -20 52 -21 291 -21 435 0 844 -24 1006 -60 84
-18 110 -60 103 -165 -4 -64 -322 -1313 -357 -1400 -237 -599 -895 -1070
-1663 -1191 -155 -25 -512 -25 -690 0 -893 123 -1547 618 -1855 1406 -172 441
-226 1057 -149 1725 54 474 186 1100 357 1695 299 1037 677 1799 1217 2450
118 143 422 450 555 561 676 566 1424 892 2200 958 302 27 566 0 790 -79 527
-187 883 -673 1030 -1405 61 -303 70 -414 70 -840 -1 -396 -6 -483 -56 -832
-22 -150 -22 -151 -2 -185 10 -18 34 -43 53 -55 32 -22 42 -23 239 -23 231 0
258 6 292 69 10 19 232 894 495 1946 l477 1913 -19 38 c-32 64 -72 84 -173 84
-67 0 -93 -4 -117 -19 -17 -10 -257 -257 -534 -549 l-504 -530 -77 113 c-180
267 -407 489 -663 649 -245 153 -554 264 -866 311 -109 16 -523 29 -625 19z"/>
</g>
</svg>
