<?xml version="1.0" standalone="no"?>
<!DOCTYPE svg PUBLIC "-//W3C//DTD SVG 20010904//EN"
 "http://www.w3.org/TR/2001/REC-SVG-20010904/DTD/svg10.dtd">
<svg version="1.0" xmlns="http://www.w3.org/2000/svg"
 width="418.000000pt" height="166.000000pt" viewBox="0 0 418.000000 166.000000"
 preserveAspectRatio="xMidYMid meet">
<metadata>
Created by potrace 1.16, written by Peter Selinger 2001-2019
</metadata>
<g transform="translate(0.000000,166.000000) scale(0.100000,-0.100000)"
fill="#000000" stroke="none">
<path d="M840 1641 c-318 -70 -596 -291 -741 -586 -69 -142 -91 -233 -93 -380
-1 -204 52 -343 183 -476 138 -140 325 -208 541 -196 434 24 849 374 951 803
30 126 24 306 -14 412 -73 206 -218 345 -432 412 -100 32 -280 37 -395 11z"/>
<path d="M3310 1641 c-314 -70 -591 -286 -735 -576 -76 -152 -98 -238 -99
-395 -1 -105 3 -137 22 -200 37 -119 79 -187 167 -275 125 -126 255 -181 450
-192 435 -24 871 296 1021 747 26 78 28 98 28 240 1 144 -1 160 -26 228 -74
203 -218 342 -423 408 -110 36 -283 42 -405 15z"/>
</g>
</svg>
