<?xml version="1.0" standalone="no"?>
<!DOCTYPE svg PUBLIC "-//W3C//DTD SVG 20010904//EN"
 "http://www.w3.org/TR/2001/REC-SVG-20010904/DTD/svg10.dtd">
<svg version="1.0" xmlns="http://www.w3.org/2000/svg"
 width="418.000000pt" height="976.000000pt" viewBox="0 0 418.000000 976.000000"
 preserveAspectRatio="xMidYMid meet">
<metadata>
Created by potrace 1.16, written by Peter Selinger 2001-2019
</metadata>
<g transform="translate(0.000000,976.000000) scale(0.100000,-0.100000)"
fill="#000000" stroke="none">
<path d="M2430 9684 c-968 -79 -960 -78 -1001 -136 -12 -16 -36 -90 -55 -164
-29 -116 -33 -142 -24 -175 14 -50 53 -95 93 -107 18 -6 142 -13 277 -16 270
-6 386 -17 503 -48 135 -36 161 -83 138 -260 -7 -50 -220 -921 -474 -1936
l-462 -1846 -690 -506 c-379 -279 -698 -519 -709 -533 -10 -14 -21 -47 -23
-74 -4 -44 0 -56 48 -135 28 -48 66 -104 82 -124 50 -60 126 -80 187 -49 16 8
224 158 462 333 238 175 438 321 444 325 6 4 -136 -584 -317 -1306 -180 -721
-334 -1352 -343 -1402 -72 -427 28 -837 274 -1124 163 -189 389 -318 662 -378
128 -27 385 -25 498 5 254 68 472 238 650 508 199 301 341 675 520 1364 68
262 69 279 10 335 l-31 30 -172 3 c-158 2 -175 1 -205 -18 -18 -11 -39 -35
-47 -52 -8 -18 -46 -154 -84 -303 -198 -771 -365 -1167 -577 -1365 -98 -91
-155 -115 -274 -115 -86 1 -100 4 -148 29 -85 47 -131 124 -157 262 -28 144
-15 426 30 659 9 44 223 910 476 1925 l460 1846 837 614 c527 388 845 628 859
649 16 23 23 49 23 81 0 40 -8 60 -57 136 -82 126 -84 129 -123 153 -40 24
-87 27 -133 7 -18 -8 -297 -209 -622 -449 -324 -239 -591 -434 -592 -433 -1 1
205 827 457 1836 253 1009 460 1855 460 1879 0 90 -71 152 -172 150 -29 -1
-460 -35 -958 -75z"/>
</g>
</svg>
