<?xml version="1.0" standalone="no"?>
<!DOCTYPE svg PUBLIC "-//W3C//DTD SVG 20010904//EN"
 "http://www.w3.org/TR/2001/REC-SVG-20010904/DTD/svg10.dtd">
<svg version="1.0" xmlns="http://www.w3.org/2000/svg"
 width="502.000000pt" height="911.000000pt" viewBox="0 0 502.000000 911.000000"
 preserveAspectRatio="xMidYMid meet">
<metadata>
Created by potrace 1.16, written by Peter Selinger 2001-2019
</metadata>
<g transform="translate(0.000000,911.000000) scale(0.100000,-0.100000)"
fill="#000000" stroke="none">
<path d="M3340 9103 c-407 -39 -754 -131 -1122 -299 -875 -400 -1601 -1156
-1948 -2028 -219 -551 -317 -1305 -245 -1886 81 -649 356 -1219 758 -1570 290
-254 663 -417 1049 -459 163 -18 459 -11 663 15 l50 6 -95 -72 c-583 -445
-955 -960 -1051 -1451 -23 -122 -26 -342 -5 -451 42 -221 134 -395 295 -561
228 -236 546 -357 896 -344 207 8 401 59 597 157 188 94 319 192 488 366 162
166 292 343 391 531 44 84 47 108 20 161 -23 44 -42 57 -124 82 -119 37 -158
22 -236 -93 -79 -117 -162 -216 -263 -313 -108 -102 -203 -169 -321 -224 -131
-61 -192 -74 -352 -74 -131 -1 -145 1 -226 30 -229 82 -404 278 -471 529 -28
106 -30 322 -4 440 105 476 503 947 1127 1335 70 44 279 165 465 270 471 266
641 382 887 604 170 154 384 401 407 470 20 63 7 88 -127 232 -126 136 -162
164 -206 164 -57 0 -88 -22 -165 -119 -94 -117 -295 -326 -409 -424 -339 -291
-743 -517 -1153 -642 -362 -111 -794 -154 -1018 -100 -356 85 -623 411 -711
868 -55 285 -55 601 0 982 23 162 94 519 142 715 l32 135 365 6 c507 9 844 32
1190 80 1228 171 1909 658 2075 1482 60 302 -1 623 -165 868 -58 86 -188 219
-282 289 -198 149 -493 258 -780 289 -89 10 -334 13 -418 4z m368 -527 c265
-57 463 -228 549 -471 26 -75 28 -90 27 -240 0 -134 -3 -173 -22 -242 -160
-589 -698 -893 -1752 -987 -348 -32 -1020 -49 -1020 -26 0 5 23 85 51 177 131
435 277 743 483 1016 321 428 782 713 1266 783 116 16 317 12 418 -10z"/>
</g>
</svg>
