<?xml version="1.0" standalone="no"?>
<!DOCTYPE svg PUBLIC "-//W3C//DTD SVG 20010904//EN"
 "http://www.w3.org/TR/2001/REC-SVG-20010904/DTD/svg10.dtd">
<svg version="1.0" xmlns="http://www.w3.org/2000/svg"
 width="985.000000pt" height="1230.000000pt" viewBox="0 0 985.000000 1230.000000"
 preserveAspectRatio="xMidYMid meet">
<metadata>
Created by potrace 1.16, written by Peter Selinger 2001-2019
</metadata>
<g transform="translate(0.000000,1230.000000) scale(0.100000,-0.100000)"
fill="#000000" stroke="none">
<path d="M6325 12282 c-22 -11 -52 -32 -67 -48 -15 -16 -531 -1041 -1147
-2279 l-1120 -2250 -1588 -5 c-1455 -5 -1591 -6 -1618 -22 -127 -70 -152 -234
-49 -330 66 -62 -37 -58 1569 -58 806 0 1465 -2 1465 -5 0 -3 -255 -516 -567
-1140 l-568 -1135 -1250 -2 -1250 -3 -47 -32 c-118 -83 -118 -253 0 -336 l47
-32 1142 -5 1142 -5 -303 -610 c-167 -335 -653 -1312 -1080 -2169 -717 -1441
-776 -1563 -776 -1610 0 -182 222 -274 348 -143 20 21 407 788 1151 2282
l1120 2250 1255 3 1255 2 -118 -242 c-65 -134 -209 -425 -321 -648 -112 -223
-544 -1091 -961 -1929 -701 -1408 -759 -1528 -759 -1575 0 -182 222 -274 348
-143 20 21 407 788 1151 2282 l1120 2250 1588 5 c1753 6 1612 0 1675 67 98
102 64 263 -67 324 -38 18 -100 19 -1507 19 -808 0 -1468 2 -1468 5 0 3 255
516 567 1140 l568 1135 1250 2 1250 3 47 32 c118 83 118 253 0 336 l-47 32
-1142 5 -1142 5 303 610 c167 336 653 1312 1080 2169 717 1441 776 1563 776
1610 0 182 -222 274 -348 143 -20 -21 -407 -788 -1151 -2282 l-1120 -2250
-1255 -3 -1255 -2 118 242 c65 134 209 425 321 648 112 223 544 1091 961 1929
701 1408 759 1528 759 1575 0 109 -79 194 -188 202 -43 4 -67 0 -97 -14z m415
-4997 c0 -3 -255 -516 -567 -1140 l-568 -1135 -1252 0 c-689 0 -1253 2 -1253
5 0 3 255 516 567 1140 l568 1135 1252 0 c689 0 1253 -2 1253 -5z"/>
</g>
</svg>
