<?xml version="1.0" standalone="no"?>
<!DOCTYPE svg PUBLIC "-//W3C//DTD SVG 20010904//EN"
 "http://www.w3.org/TR/2001/REC-SVG-20010904/DTD/svg10.dtd">
<svg version="1.0" xmlns="http://www.w3.org/2000/svg"
 width="536.000000pt" height="602.000000pt" viewBox="0 0 536.000000 602.000000"
 preserveAspectRatio="xMidYMid meet">
<metadata>
Created by potrace 1.16, written by Peter Selinger 2001-2019
</metadata>
<g transform="translate(0.000000,602.000000) scale(0.100000,-0.100000)"
fill="#000000" stroke="none">
<path d="M3155 6009 c-277 -30 -606 -128 -893 -265 -401 -191 -733 -433 -1072
-780 -527 -540 -900 -1204 -1079 -1922 -74 -294 -100 -480 -108 -767 -8 -297
13 -500 77 -756 160 -636 541 -1113 1083 -1355 807 -361 1860 -111 2744 651
137 118 373 359 484 495 511 623 829 1344 934 2110 22 159 30 506 16 660 -45
492 -212 930 -479 1261 -127 157 -329 329 -510 433 -171 98 -401 180 -612 218
-134 23 -442 32 -585 17z m457 -358 c163 -42 300 -124 424 -252 308 -321 411
-824 313 -1529 -44 -315 -184 -925 -310 -1342 -222 -736 -508 -1246 -923
-1645 -564 -543 -1230 -694 -1669 -379 -78 55 -191 172 -246 255 -178 263
-260 647 -231 1081 22 326 78 641 206 1151 177 710 336 1137 568 1527 368 619
929 1063 1446 1146 125 20 317 14 422 -13z"/>
</g>
</svg>
