<?xml version="1.0" standalone="no"?>
<!DOCTYPE svg PUBLIC "-//W3C//DTD SVG 20010904//EN"
 "http://www.w3.org/TR/2001/REC-SVG-20010904/DTD/svg10.dtd">
<svg version="1.0" xmlns="http://www.w3.org/2000/svg"
 width="449.000000pt" height="155.000000pt" viewBox="0 0 449.000000 155.000000"
 preserveAspectRatio="xMidYMid meet">
<metadata>
Created by potrace 1.16, written by Peter Selinger 2001-2019
</metadata>
<g transform="translate(0.000000,155.000000) scale(0.100000,-0.100000)"
fill="#000000" stroke="none">
<path d="M1525 1530 c-239 -63 -443 -181 -750 -434 -125 -103 -696 -662 -746
-730 -33 -45 -39 -117 -15 -165 16 -31 143 -147 196 -180 38 -23 83 -27 126
-11 15 6 78 59 138 118 483 466 814 668 1065 649 152 -12 250 -83 518 -379
190 -210 329 -314 491 -365 341 -108 744 59 1264 524 62 56 233 222 379 370
296 297 305 310 280 395 -14 47 -108 145 -190 199 -49 32 -114 39 -154 17 -12
-6 -87 -73 -167 -149 -568 -538 -907 -702 -1175 -570 -83 41 -171 120 -336
301 -246 270 -373 364 -557 411 -100 25 -269 25 -367 -1z"/>
</g>
</svg>
