<?xml version="1.0" standalone="no"?>
<!DOCTYPE svg PUBLIC "-//W3C//DTD SVG 20010904//EN"
 "http://www.w3.org/TR/2001/REC-SVG-20010904/DTD/svg10.dtd">
<svg version="1.0" xmlns="http://www.w3.org/2000/svg"
 width="445.000000pt" height="45.000000pt" viewBox="0 0 445.000000 45.000000"
 preserveAspectRatio="xMidYMid meet">
<metadata>
Created by potrace 1.16, written by Peter Selinger 2001-2019
</metadata>
<g transform="translate(0.000000,45.000000) scale(0.100000,-0.100000)"
fill="#000000" stroke="none">
<path d="M115 431 c-16 -10 -38 -27 -48 -39 -22 -24 -67 -190 -67 -248 0 -50
31 -100 80 -125 33 -18 110 -19 2118 -19 2282 0 2111 -5 2164 59 37 43 82 229
68 280 -10 37 -46 79 -87 100 -16 8 -586 11 -2110 11 -2015 0 -2089 -1 -2118
-19z"/>
</g>
</svg>
