<?xml version="1.0" standalone="no"?>
<!DOCTYPE svg PUBLIC "-//W3C//DTD SVG 20010904//EN"
 "http://www.w3.org/TR/2001/REC-SVG-20010904/DTD/svg10.dtd">
<svg version="1.0" xmlns="http://www.w3.org/2000/svg"
 width="546.000000pt" height="918.000000pt" viewBox="0 0 546.000000 918.000000"
 preserveAspectRatio="xMidYMid meet">
<metadata>
Created by potrace 1.16, written by Peter Selinger 2001-2019
</metadata>
<g transform="translate(0.000000,918.000000) scale(0.100000,-0.100000)"
fill="#000000" stroke="none">
<path d="M4910 9164 c-132 -34 -155 -52 -1205 -914 -555 -456 -1020 -844
-1032 -861 -17 -23 -23 -46 -23 -82 0 -44 8 -64 60 -152 33 -56 70 -111 83
-123 46 -43 115 -54 170 -26 80 41 2160 1250 2220 1291 183 123 285 324 257
507 -39 263 -280 426 -530 360z"/>
<path d="M2997 6249 c-398 -35 -729 -145 -1023 -340 -157 -104 -361 -310 -474
-479 -154 -232 -290 -547 -365 -848 -94 -377 -69 -718 74 -1018 69 -143 140
-245 250 -355 106 -106 199 -173 340 -243 136 -69 224 -94 636 -186 204 -45
406 -93 450 -107 207 -65 376 -186 496 -356 167 -237 182 -542 45 -920 -242
-668 -752 -986 -1582 -987 -571 0 -1023 207 -1223 561 -17 31 -31 58 -31 61 0
3 20 8 45 11 73 10 194 55 267 98 124 73 223 181 293 318 37 75 75 230 75 310
0 279 -207 473 -503 473 -119 0 -210 -22 -322 -77 -274 -134 -416 -381 -441
-765 -21 -333 96 -638 341 -885 255 -258 609 -420 1075 -492 161 -25 633 -25
840 1 803 98 1373 436 1745 1036 125 202 248 487 319 742 70 249 80 313 80
538 1 226 -10 303 -66 480 -72 227 -184 407 -362 585 -136 136 -249 217 -422
301 -161 78 -274 111 -709 209 -214 48 -419 98 -454 111 -207 78 -367 268
-407 484 -50 263 64 662 262 920 164 214 386 342 689 396 127 22 435 25 545 5
308 -56 560 -222 672 -446 35 -69 34 -72 -29 -90 -103 -30 -192 -84 -273 -165
-168 -167 -233 -414 -160 -605 28 -71 110 -159 183 -194 269 -130 627 1 774
284 72 138 110 341 100 525 -30 528 -427 938 -1038 1074 -63 13 -158 30 -211
35 -109 12 -367 12 -501 0z"/>
</g>
</svg>
