<?xml version="1.0" standalone="no"?>
<!DOCTYPE svg PUBLIC "-//W3C//DTD SVG 20010904//EN"
 "http://www.w3.org/TR/2001/REC-SVG-20010904/DTD/svg10.dtd">
<svg version="1.0" xmlns="http://www.w3.org/2000/svg"
 width="744.000000pt" height="1192.000000pt" viewBox="0 0 744.000000 1192.000000"
 preserveAspectRatio="xMidYMid meet">
<metadata>
Created by potrace 1.16, written by Peter Selinger 2001-2019
</metadata>
<g transform="translate(0.000000,1192.000000) scale(0.100000,-0.100000)"
fill="#000000" stroke="none">
<path d="M2820 11905 c-36 -8 -112 -37 -169 -66 -277 -137 -461 -442 -423
-703 23 -160 112 -292 240 -359 169 -89 356 -88 549 3 421 197 582 719 306
994 -123 124 -309 172 -503 131z"/>
<path d="M6770 11899 c-440 -115 -702 -583 -523 -936 56 -112 181 -206 314
-238 141 -33 280 -12 438 66 277 137 461 442 423 703 -23 160 -112 292 -240
359 -131 69 -268 84 -412 46z"/>
<path d="M1626 8934 c-423 -76 -809 -377 -1121 -874 -184 -294 -378 -756 -480
-1147 -31 -117 -27 -149 26 -199 l30 -29 172 -3 c241 -4 239 -5 300 228 241
916 618 1494 1046 1605 164 42 297 29 362 -36 112 -112 101 -442 -30 -875 -22
-72 -296 -825 -609 -1675 -313 -849 -583 -1587 -600 -1639 -60 -187 -87 -386
-76 -550 41 -629 478 -1050 1090 -1050 492 0 956 313 1319 890 184 294 378
756 480 1147 31 117 27 149 -26 199 l-30 29 -172 3 c-241 4 -239 5 -300 -228
-241 -916 -618 -1494 -1046 -1605 -164 -42 -297 -29 -362 36 -112 112 -101
442 31 875 21 72 298 833 614 1690 316 858 585 1595 599 1639 179 571 16 1139
-403 1411 -226 146 -541 207 -814 158z"/>
<path d="M5550 8944 c-594 -75 -1144 -499 -1596 -1231 -109 -176 -282 -522
-363 -727 -71 -181 -73 -203 -16 -264 l33 -37 170 -3 c184 -4 215 3 246 51 8
12 43 91 76 176 278 695 619 1190 992 1441 157 105 289 158 456 180 329 45
451 -88 452 -497 0 -140 -17 -300 -51 -473 -41 -211 -1381 -5556 -1430 -5702
-205 -620 -571 -1123 -967 -1331 -217 -113 -455 -144 -675 -88 -118 31 -120
33 -49 71 139 74 245 186 317 335 60 124 78 208 73 337 -3 94 -7 110 -40 181
-63 131 -160 208 -314 247 -243 62 -539 -41 -710 -248 -189 -230 -235 -591
-108 -845 59 -117 159 -232 269 -307 67 -46 213 -116 301 -143 299 -94 670
-88 1040 18 323 93 660 269 944 495 124 98 347 320 444 440 219 274 411 637
499 945 51 177 1346 5372 1363 5465 21 117 24 381 5 495 -19 118 -67 268 -117
371 -162 332 -439 544 -819 629 -69 16 -352 28 -425 19z"/>
</g>
</svg>
