<?xml version="1.0" standalone="no"?>
<!DOCTYPE svg PUBLIC "-//W3C//DTD SVG 20010904//EN"
 "http://www.w3.org/TR/2001/REC-SVG-20010904/DTD/svg10.dtd">
<svg version="1.0" xmlns="http://www.w3.org/2000/svg"
 width="622.000000pt" height="905.000000pt" viewBox="0 0 622.000000 905.000000"
 preserveAspectRatio="xMidYMid meet">
<metadata>
Created by potrace 1.16, written by Peter Selinger 2001-2019
</metadata>
<g transform="translate(0.000000,905.000000) scale(0.100000,-0.100000)"
fill="#000000" stroke="none">
<path d="M2709 9032 c-51 -26 -199 -152 -215 -184 -19 -36 -18 -102 2 -141 34
-65 1237 -1893 1267 -1925 39 -40 93 -57 145 -43 28 8 295 233 1137 961 605
523 1110 962 1122 976 12 13 28 42 34 64 16 51 -2 98 -74 200 -61 86 -115 118
-180 106 -23 -4 -364 -218 -950 -595 l-914 -587 -604 573 c-369 351 -620 582
-644 593 -50 24 -81 25 -126 2z"/>
<path d="M3340 6253 c-407 -39 -754 -131 -1122 -299 -875 -400 -1601 -1156
-1948 -2028 -219 -551 -317 -1305 -245 -1886 81 -649 356 -1219 758 -1570 294
-258 664 -418 1062 -461 133 -14 455 -6 635 15 735 89 1426 378 1961 823 203
169 486 474 525 568 28 68 16 91 -123 240 -126 137 -162 165 -206 165 -57 0
-88 -22 -165 -119 -94 -117 -295 -326 -409 -424 -339 -291 -743 -517 -1153
-642 -362 -111 -794 -154 -1018 -100 -356 85 -623 411 -711 868 -55 285 -55
601 0 982 23 162 94 519 142 715 l32 135 365 6 c507 9 844 32 1190 80 1228
171 1909 658 2075 1482 60 302 -1 623 -165 868 -58 86 -188 219 -282 289 -198
149 -493 258 -780 289 -89 10 -334 13 -418 4z m368 -527 c265 -57 463 -228
549 -471 26 -75 28 -90 27 -240 0 -134 -3 -173 -22 -242 -160 -589 -698 -893
-1752 -987 -348 -32 -1020 -49 -1020 -26 0 5 23 85 51 177 131 435 277 743
483 1016 321 428 782 713 1266 783 116 16 317 12 418 -10z"/>
</g>
</svg>
