<?xml version="1.0" standalone="no"?>
<!DOCTYPE svg PUBLIC "-//W3C//DTD SVG 20010904//EN"
 "http://www.w3.org/TR/2001/REC-SVG-20010904/DTD/svg10.dtd">
<svg version="1.0" xmlns="http://www.w3.org/2000/svg"
 width="1057.000000pt" height="907.000000pt" viewBox="0 0 1057.000000 907.000000"
 preserveAspectRatio="xMidYMid meet">
<metadata>
Created by potrace 1.16, written by Peter Selinger 2001-2019
</metadata>
<g transform="translate(0.000000,907.000000) scale(0.100000,-0.100000)"
fill="#000000" stroke="none">
<path d="M2281 9052 c-51 -25 -69 -57 -98 -168 -28 -110 -26 -157 6 -202 40
-57 56 -59 416 -66 182 -3 377 -10 435 -16 124 -12 292 -39 303 -49 13 -12
-1817 -7316 -1858 -7418 -66 -163 -175 -313 -299 -412 -219 -173 -557 -271
-944 -271 -139 0 -175 -33 -216 -195 -30 -122 -26 -162 21 -207 52 -48 58 -49
265 -38 106 5 412 15 679 21 501 12 1170 3 1647 -22 117 -6 228 -8 247 -5 20
4 50 21 69 40 28 29 38 51 61 144 30 123 28 155 -12 203 -40 47 -73 59 -163
59 -380 0 -667 94 -774 255 -56 83 -71 142 -71 290 l0 130 870 3478 c478 1912
872 3477 875 3477 3 0 655 -1794 1449 -3988 794 -2193 1451 -4000 1460 -4016
35 -63 58 -71 214 -74 135 -3 144 -2 176 20 19 13 42 34 52 48 12 16 384 1489
989 3907 1003 4015 989 3963 1073 4105 79 136 205 264 333 339 212 125 437
183 769 196 221 8 241 21 281 174 30 119 31 166 1 210 -43 65 -68 70 -283 59
-104 -5 -409 -15 -679 -21 -505 -12 -1137 -3 -1651 22 -220 11 -234 11 -270
-7 -53 -27 -72 -57 -99 -165 -29 -111 -30 -140 -9 -185 32 -68 59 -78 239 -86
259 -12 397 -39 532 -104 200 -96 286 -274 254 -525 -18 -137 -1482 -5988
-1493 -5963 -4 10 -573 1578 -1263 3484 -690 1906 -1263 3476 -1273 3490 -11
14 -34 35 -52 48 l-33 22 -1071 0 c-1000 0 -1073 -1 -1105 -18z"/>
</g>
</svg>
