<?xml version="1.0" standalone="no"?>
<!DOCTYPE svg PUBLIC "-//W3C//DTD SVG 20010904//EN"
 "http://www.w3.org/TR/2001/REC-SVG-20010904/DTD/svg10.dtd">
<svg version="1.0" xmlns="http://www.w3.org/2000/svg"
 width="544.000000pt" height="918.000000pt" viewBox="0 0 544.000000 918.000000"
 preserveAspectRatio="xMidYMid meet">
<metadata>
Created by potrace 1.16, written by Peter Selinger 2001-2019
</metadata>
<g transform="translate(0.000000,918.000000) scale(0.100000,-0.100000)"
fill="#000000" stroke="none">
<path d="M4805 9160 c-33 -11 -91 -37 -128 -57 -44 -25 -409 -321 -1047 -851
-903 -750 -980 -816 -996 -858 -23 -60 -14 -86 87 -258 85 -143 111 -170 177
-182 20 -4 48 -1 70 8 62 25 2153 1238 2214 1284 77 60 130 124 179 217 71
136 82 280 34 417 -38 108 -133 211 -243 263 -61 29 -77 32 -177 34 -88 2
-122 -1 -170 -17z"/>
<path d="M2995 6249 c-662 -58 -1181 -352 -1515 -859 -151 -229 -275 -528
-355 -854 -49 -198 -58 -283 -52 -491 4 -157 9 -195 35 -296 90 -347 269 -604
547 -784 186 -122 272 -151 755 -260 414 -93 471 -109 570 -161 219 -115 371
-311 416 -534 24 -123 15 -290 -25 -435 -119 -431 -337 -724 -667 -892 -239
-122 -470 -168 -844 -167 -186 1 -246 4 -344 22 -327 60 -598 207 -741 402
-38 52 -43 70 -20 70 9 0 51 14 95 31 243 93 430 307 496 566 65 257 -5 475
-190 595 -142 92 -348 116 -529 64 -382 -112 -594 -407 -623 -866 -21 -333 96
-638 341 -885 255 -258 608 -419 1075 -492 157 -25 642 -24 839 0 929 117
1552 558 1909 1352 96 215 201 555 233 760 8 45 13 159 13 260 -1 145 -5 200
-23 283 -68 321 -192 555 -410 772 -134 134 -246 214 -422 300 -165 81 -278
115 -709 210 -438 97 -489 117 -606 235 -120 121 -168 249 -168 445 0 90 6
138 27 223 72 290 203 518 382 663 150 123 329 190 570 214 278 29 536 -18
729 -132 76 -45 209 -170 243 -230 l22 -37 -92 -45 c-195 -95 -313 -236 -373
-444 -23 -80 -26 -107 -22 -195 3 -89 8 -111 35 -169 151 -322 623 -349 918
-53 89 89 135 160 170 262 46 132 60 227 59 393 -1 193 -26 299 -109 465 -113
228 -285 394 -540 522 -178 90 -385 149 -597 172 -112 13 -358 12 -503 0z"/>
</g>
</svg>
