<?xml version="1.0" standalone="no"?>
<!DOCTYPE svg PUBLIC "-//W3C//DTD SVG 20010904//EN"
 "http://www.w3.org/TR/2001/REC-SVG-20010904/DTD/svg10.dtd">
<svg version="1.0" xmlns="http://www.w3.org/2000/svg"
 width="474.000000pt" height="209.000000pt" viewBox="0 0 474.000000 209.000000"
 preserveAspectRatio="xMidYMid meet">
<metadata>
Created by potrace 1.16, written by Peter Selinger 2001-2019
</metadata>
<g transform="translate(0.000000,209.000000) scale(0.100000,-0.100000)"
fill="#000000" stroke="none">
<path d="M2215 2075 c-75 -17 -127 -39 -185 -78 -88 -61 -1988 -1627 -2006
-1654 -33 -51 -25 -108 29 -200 27 -46 62 -94 78 -107 37 -32 97 -42 140 -23
45 19 2154 1252 2199 1285 153 115 240 302 210 455 -33 174 -151 296 -314 326
-71 13 -75 13 -151 -4z"/>
<path d="M4255 2075 c-75 -17 -127 -39 -185 -78 -88 -61 -1988 -1627 -2006
-1654 -33 -51 -25 -108 29 -200 27 -46 62 -94 78 -107 37 -32 97 -42 140 -23
45 19 2154 1252 2199 1285 153 115 240 302 210 455 -33 174 -151 296 -314 326
-71 13 -75 13 -151 -4z"/>
</g>
</svg>
