<?xml version="1.0" standalone="no"?>
<!DOCTYPE svg PUBLIC "-//W3C//DTD SVG 20010904//EN"
 "http://www.w3.org/TR/2001/REC-SVG-20010904/DTD/svg10.dtd">
<svg version="1.0" xmlns="http://www.w3.org/2000/svg"
 width="1231.000000pt" height="945.000000pt" viewBox="0 0 1231.000000 945.000000"
 preserveAspectRatio="xMidYMid meet">
<metadata>
Created by potrace 1.16, written by Peter Selinger 2001-2019
</metadata>
<g transform="translate(0.000000,945.000000) scale(0.100000,-0.100000)"
fill="#000000" stroke="none">
<path d="M5265 9436 c-63 -27 -80 -62 -129 -263 -50 -204 -50 -229 -4 -288 42
-53 56 -55 462 -55 221 0 377 -4 381 -9 6 -10 -4197 -7378 -4219 -7396 -7 -5
-42 -55 -78 -110 -192 -292 -430 -479 -748 -590 -179 -62 -446 -105 -658 -105
-83 0 -138 -22 -166 -65 -21 -32 -106 -355 -106 -404 0 -47 36 -105 81 -130
37 -21 43 -21 196 -12 87 6 359 16 605 23 466 12 1203 3 1738 -23 232 -12 236
-11 278 10 23 12 49 32 58 46 20 30 103 356 104 404 0 87 -76 151 -181 151
-87 0 -244 25 -321 50 -118 40 -215 112 -266 199 -21 37 -27 60 -30 130 -4 90
2 114 60 251 13 31 399 713 858 1518 l834 1462 948 0 c521 0 948 -2 948 -5 0
-23 -826 -3307 -846 -3363 -34 -94 -95 -164 -163 -187 -85 -28 -260 -45 -526
-52 -284 -6 -312 -12 -349 -68 -21 -32 -106 -355 -106 -404 0 -47 36 -105 80
-130 l38 -21 3021 0 c3262 0 3058 -3 3108 51 32 35 1423 3512 1423 3556 0 49
-35 107 -80 132 -35 19 -53 21 -224 21 -200 0 -232 -6 -272 -51 -12 -13 -85
-180 -163 -371 -340 -834 -570 -1306 -825 -1693 -184 -278 -326 -429 -541
-572 -360 -241 -738 -368 -1278 -430 -134 -16 -253 -18 -982 -18 -703 1 -838
3 -880 15 l-50 15 1 57 c1 39 140 612 434 1788 l433 1732 626 -5 c518 -3 643
-7 724 -20 187 -32 294 -75 379 -155 87 -81 112 -161 112 -347 -1 -190 -32
-381 -121 -751 l-46 -192 24 -48 c43 -86 51 -89 279 -92 183 -3 202 -2 238 17
22 11 49 35 60 53 11 19 204 772 468 1829 l448 1795 -25 49 c-43 87 -51 90
-279 93 -182 3 -202 2 -238 -17 -21 -11 -47 -32 -57 -47 -9 -15 -37 -104 -62
-198 -204 -792 -372 -1073 -732 -1226 -145 -62 -283 -92 -506 -110 -123 -10
-1135 -14 -1135 -5 0 26 944 3774 960 3811 44 103 99 134 275 154 119 13 1354
13 1560 0 392 -26 657 -90 873 -211 107 -61 258 -210 301 -300 85 -175 116
-400 108 -794 -6 -301 -20 -465 -77 -925 l-40 -315 23 -44 c41 -82 51 -86 277
-89 183 -3 202 -2 238 17 80 41 62 -62 282 1589 110 826 200 1522 200 1548 0
59 -29 108 -81 134 -38 20 -76 20 -3481 20 -2840 -1 -3448 -3 -3473 -14z
m1509 -661 c161 -24 226 -70 226 -158 0 -20 -210 -876 -466 -1902 l-466 -1865
-850 0 c-467 0 -847 3 -845 8 3 4 492 860 1087 1902 595 1042 1100 1925 1122
1963 45 77 37 75 192 52z"/>
</g>
</svg>
