<?xml version="1.0" standalone="no"?>
<!DOCTYPE svg PUBLIC "-//W3C//DTD SVG 20010904//EN"
 "http://www.w3.org/TR/2001/REC-SVG-20010904/DTD/svg10.dtd">
<svg version="1.0" xmlns="http://www.w3.org/2000/svg"
 width="775.000000pt" height="1252.000000pt" viewBox="0 0 775.000000 1252.000000"
 preserveAspectRatio="xMidYMid meet">
<metadata>
Created by potrace 1.16, written by Peter Selinger 2001-2019
</metadata>
<g transform="translate(0.000000,1252.000000) scale(0.100000,-0.100000)"
fill="#000000" stroke="none">
<path d="M4715 12513 c-279 -24 -616 -116 -900 -246 -1052 -481 -1855 -1516
-2054 -2647 -41 -234 -54 -535 -30 -748 78 -720 459 -1290 1045 -1563 133 -61
221 -89 1040 -324 433 -124 817 -239 855 -255 219 -93 411 -292 508 -525 137
-329 152 -768 42 -1220 -208 -849 -833 -1597 -1536 -1838 -178 -61 -255 -72
-485 -71 -841 4 -1439 319 -1725 909 -126 260 -180 527 -179 890 0 261 29 503
90 763 29 124 30 147 6 191 -35 65 -61 71 -292 71 -186 0 -208 -2 -237 -20
-18 -10 -39 -29 -47 -42 -18 -28 -816 -3215 -816 -3260 0 -45 34 -96 75 -114
50 -21 182 -19 222 3 17 10 188 194 378 408 191 215 360 404 377 420 l29 30
32 -40 c67 -85 256 -270 347 -339 269 -203 606 -350 980 -426 85 -17 156 -33
157 -34 1 -1 -27 -116 -62 -256 -36 -140 -65 -273 -65 -295 0 -54 29 -105 74
-131 28 -16 62 -22 139 -27 425 -24 689 -228 663 -511 -23 -249 -197 -457
-478 -571 -305 -124 -648 -170 -1351 -182 -428 -7 -431 -7 -473 -70 -12 -18
-37 -93 -55 -166 l-33 -134 25 -49 c45 -90 39 -89 372 -92 776 -9 1435 44
1867 148 293 72 580 195 751 325 295 221 458 531 459 866 0 188 -47 327 -158
465 -112 139 -312 264 -543 342 l-115 38 41 163 40 163 117 34 c560 161 1110
515 1553 1000 583 638 941 1413 1046 2259 19 152 16 543 -5 700 -48 353 -167
680 -347 951 -101 153 -313 364 -463 462 -117 77 -269 155 -383 195 -39 14
-426 128 -860 252 -433 125 -817 238 -853 252 -327 129 -551 426 -622 823 -26
149 -28 397 -3 555 115 747 614 1441 1273 1770 287 143 574 196 892 166 532
-51 876 -250 1105 -636 114 -194 185 -416 232 -730 14 -97 18 -184 18 -455 0
-347 -4 -406 -52 -742 -26 -186 -26 -186 -6 -220 10 -18 34 -43 53 -55 32 -22
42 -23 237 -23 221 0 255 7 287 55 9 13 198 755 422 1649 l406 1625 -18 38
c-32 63 -72 83 -173 83 -67 0 -93 -4 -118 -19 -17 -11 -195 -203 -394 -427
l-364 -406 -20 27 c-103 143 -153 204 -240 290 -304 301 -720 478 -1235 524
-106 10 -372 12 -465 4z"/>
</g>
</svg>
