<?xml version="1.0" standalone="no"?>
<!DOCTYPE svg PUBLIC "-//W3C//DTD SVG 20010904//EN"
 "http://www.w3.org/TR/2001/REC-SVG-20010904/DTD/svg10.dtd">
<svg version="1.0" xmlns="http://www.w3.org/2000/svg"
 width="751.000000pt" height="976.000000pt" viewBox="0 0 751.000000 976.000000"
 preserveAspectRatio="xMidYMid meet">
<metadata>
Created by potrace 1.16, written by Peter Selinger 2001-2019
</metadata>
<g transform="translate(0.000000,976.000000) scale(0.100000,-0.100000)"
fill="#000000" stroke="none">
<path d="M3639 9739 c-20 -12 -46 -38 -57 -58 -31 -57 -106 -374 -98 -416 9
-45 57 -101 99 -114 18 -5 223 -12 457 -15 439 -5 626 -15 814 -42 176 -25
216 -52 216 -150 0 -66 -1646 -6661 -1711 -6854 -269 -807 -873 -1464 -1439
-1566 -188 -34 -466 2 -668 85 -207 86 -380 233 -490 417 l-53 89 63 7 c161
18 358 102 491 210 184 149 313 382 347 629 45 326 -137 596 -454 674 -107 26
-277 22 -399 -9 -258 -66 -491 -248 -611 -476 -152 -288 -183 -747 -75 -1087
124 -389 396 -690 792 -878 463 -219 1047 -244 1652 -70 969 280 1794 1032
2111 1927 20 57 415 1617 878 3468 507 2026 853 3388 868 3421 38 83 90 136
152 154 94 29 259 45 521 52 283 6 315 13 351 68 20 30 103 356 104 404 0 47
-36 105 -80 130 -37 21 -43 21 -237 12 -795 -40 -1861 -38 -3308 4 -193 6
-201 5 -236 -16z"/>
</g>
</svg>
