<?xml version="1.0" standalone="no"?>
<!DOCTYPE svg PUBLIC "-//W3C//DTD SVG 20010904//EN"
 "http://www.w3.org/TR/2001/REC-SVG-20010904/DTD/svg10.dtd">
<svg version="1.0" xmlns="http://www.w3.org/2000/svg"
 width="850.000000pt" height="1189.000000pt" viewBox="0 0 850.000000 1189.000000"
 preserveAspectRatio="xMidYMid meet">
<metadata>
Created by potrace 1.16, written by Peter Selinger 2001-2019
</metadata>
<g transform="translate(0.000000,1189.000000) scale(0.100000,-0.100000)"
fill="#000000" stroke="none">
<path d="M6843 11875 c-34 -7 -81 -22 -105 -33 -118 -53 -2197 -1207 -2226
-1236 -46 -45 -51 -90 -22 -207 17 -66 31 -101 52 -125 33 -38 92 -58 135 -48
74 18 2312 808 2356 832 109 59 206 171 248 288 31 83 31 218 0 296 -70 181
-248 276 -438 233z"/>
<path d="M5175 9660 c-968 -89 -1964 -551 -2837 -1317 -897 -787 -1610 -1853
-1998 -2988 -569 -1664 -418 -3240 411 -4286 98 -124 311 -338 429 -433 285
-228 649 -416 995 -516 289 -84 511 -113 855 -114 279 -1 383 7 630 50 1448
248 2909 1330 3842 2844 800 1299 1145 2863 912 4130 -174 946 -631 1692
-1319 2155 -369 248 -765 396 -1235 460 -138 19 -543 28 -685 15z m384 -380
c860 -91 1485 -738 1685 -1746 136 -683 82 -1468 -169 -2489 -384 -1557 -966
-2719 -1785 -3559 -842 -864 -1806 -1243 -2609 -1026 -584 158 -1037 630
-1266 1316 -263 792 -243 1773 65 3079 305 1290 752 2261 1410 3055 127 154
457 485 603 606 546 450 1124 711 1697 767 78 8 281 6 369 -3z"/>
</g>
</svg>
