<?xml version="1.0" standalone="no"?>
<!DOCTYPE svg PUBLIC "-//W3C//DTD SVG 20010904//EN"
 "http://www.w3.org/TR/2001/REC-SVG-20010904/DTD/svg10.dtd">
<svg version="1.0" xmlns="http://www.w3.org/2000/svg"
 width="922.000000pt" height="1260.000000pt" viewBox="0 0 922.000000 1260.000000"
 preserveAspectRatio="xMidYMid meet">
<metadata>
Created by potrace 1.16, written by Peter Selinger 2001-2019
</metadata>
<g transform="translate(0.000000,1260.000000) scale(0.100000,-0.100000)"
fill="#000000" stroke="none">
<path d="M6020 12590 c-575 -50 -1040 -212 -1420 -495 -468 -349 -761 -871
-965 -1720 -46 -192 -87 -393 -205 -1006 -55 -288 -102 -534 -105 -546 l-5
-23 -591 0 c-564 0 -591 -1 -628 -19 -54 -28 -69 -57 -107 -209 -37 -147 -36
-181 8 -237 43 -55 39 -55 654 -55 l566 0 -5 -22 c-3 -13 -168 -867 -367
-1898 -565 -2937 -697 -3578 -951 -4650 -140 -591 -183 -738 -261 -895 -84
-168 -213 -317 -321 -370 -137 -67 -396 -30 -561 80 -31 20 -56 40 -56 44 0 4
19 13 43 20 98 30 200 93 287 181 95 95 141 165 181 279 70 198 58 366 -36
507 -109 165 -347 241 -580 185 -153 -37 -266 -103 -376 -219 -130 -135 -204
-318 -216 -532 -30 -545 416 -960 1062 -987 157 -7 241 5 387 54 191 63 356
171 546 357 490 479 809 1178 1137 2498 156 628 228 983 719 3533 l352 1830
1502 3 c994 1 1502 -1 1502 -8 0 -5 -222 -900 -494 -1987 -272 -1088 -502
-2021 -512 -2073 -21 -117 -24 -381 -5 -495 86 -526 428 -890 943 -1002 129
-28 385 -25 498 5 317 85 571 321 775 723 145 285 247 581 395 1149 69 262 69
278 10 335 l-31 30 -172 3 c-158 2 -175 1 -205 -18 -18 -11 -39 -35 -47 -52
-8 -18 -46 -155 -85 -305 -127 -494 -219 -770 -335 -1008 -83 -169 -132 -243
-226 -337 -106 -108 -161 -133 -289 -133 -86 1 -100 4 -148 29 -57 32 -93 73
-124 143 -65 147 -64 465 3 803 11 58 477 1931 1035 4164 558 2232 1014 4068
1014 4080 0 32 -36 84 -72 106 -31 19 -51 20 -416 20 -419 0 -431 -2 -468 -58
-9 -14 -61 -199 -115 -411 -82 -327 -97 -377 -98 -329 -1 31 -7 90 -15 132
-82 424 -489 692 -1196 787 -168 23 -637 34 -810 19z m680 -425 c213 -29 401
-80 519 -140 l45 -22 -85 -44 c-99 -51 -233 -178 -288 -272 -72 -123 -120
-314 -106 -425 21 -168 114 -302 256 -366 201 -92 432 -69 645 66 78 49 199
175 242 253 18 33 32 51 29 40 -2 -11 -140 -568 -308 -1237 l-304 -1218 -1517
0 c-835 0 -1518 3 -1518 7 0 12 219 1146 266 1376 159 785 309 1273 457 1494
106 159 355 323 626 413 121 41 277 74 421 89 117 13 481 5 620 -14z"/>
</g>
</svg>
