<?xml version="1.0" standalone="no"?>
<!DOCTYPE svg PUBLIC "-//W3C//DTD SVG 20010904//EN"
 "http://www.w3.org/TR/2001/REC-SVG-20010904/DTD/svg10.dtd">
<svg version="1.0" xmlns="http://www.w3.org/2000/svg"
 width="494.000000pt" height="992.000000pt" viewBox="0 0 494.000000 992.000000"
 preserveAspectRatio="xMidYMid meet">
<metadata>
Created by potrace 1.16, written by Peter Selinger 2001-2019
</metadata>
<g transform="translate(0.000000,992.000000) scale(0.100000,-0.100000)"
fill="#000000" stroke="none">
<path d="M3010 9904 c-467 -56 -975 -289 -1404 -642 -209 -173 -500 -480 -678
-717 -393 -524 -712 -1185 -880 -1825 -65 -248 -55 -389 40 -536 139 -215 465
-285 759 -162 240 99 410 295 478 551 60 221 17 415 -119 546 -75 71 -142 106
-257 135 l-86 21 52 122 c369 856 938 1531 1538 1826 438 215 911 245 1242 80
440 -220 632 -738 499 -1342 -102 -460 -376 -887 -774 -1205 -63 -51 -527
-407 -1030 -792 -502 -384 -954 -737 -1002 -783 -480 -455 -734 -1246 -582
-1811 49 -184 134 -331 257 -447 84 -77 174 -129 287 -165 65 -20 95 -23 225
-23 171 1 268 17 440 72 544 175 1009 633 1174 1156 36 114 39 160 11 205 -34
55 -65 62 -290 62 -268 0 -267 0 -325 -175 -147 -449 -559 -805 -939 -809
l-88 -1 -33 38 c-54 62 -70 130 -70 297 1 117 5 163 24 240 52 210 139 383
256 506 49 51 360 295 1035 811 531 405 1003 769 1050 809 111 94 347 336 434
444 86 108 238 336 307 460 314 570 433 1209 324 1744 -47 233 -144 467 -267
648 -78 115 -235 279 -348 364 -97 72 -299 180 -410 217 -266 90 -549 117
-850 81z"/>
<path d="M1040 1640 c-377 -80 -686 -360 -805 -730 -36 -111 -46 -299 -21
-402 56 -238 214 -403 456 -480 104 -32 315 -32 435 0 165 45 360 159 488 284
123 122 236 313 279 473 28 106 31 290 5 385 -50 186 -170 334 -337 415 -156
75 -323 93 -500 55z"/>
</g>
</svg>
