<?xml version="1.0" standalone="no"?>
<!DOCTYPE svg PUBLIC "-//W3C//DTD SVG 20010904//EN"
 "http://www.w3.org/TR/2001/REC-SVG-20010904/DTD/svg10.dtd">
<svg version="1.0" xmlns="http://www.w3.org/2000/svg"
 width="885.000000pt" height="1239.000000pt" viewBox="0 0 885.000000 1239.000000"
 preserveAspectRatio="xMidYMid meet">
<metadata>
Created by potrace 1.16, written by Peter Selinger 2001-2019
</metadata>
<g transform="translate(0.000000,1239.000000) scale(0.100000,-0.100000)"
fill="#000000" stroke="none">
<path d="M5136 12374 c-161 -39 -326 -176 -408 -340 -58 -116 -76 -209 -59
-303 23 -123 96 -223 203 -277 29 -15 482 -206 1006 -425 1016 -425 1002 -420
1068 -380 37 23 188 215 210 267 20 47 11 105 -23 145 -29 34 -1615 1240
-1677 1275 -92 51 -208 65 -320 38z"/>
<path d="M5455 10063 c-236 -16 -566 -72 -809 -139 -1546 -426 -3021 -1713
-3882 -3389 -402 -783 -650 -1600 -741 -2440 -24 -229 -25 -809 0 -1023 61
-535 184 -966 397 -1387 102 -203 183 -334 307 -498 823 -1093 2218 -1460
3703 -975 322 105 689 269 1001 448 942 539 1816 1412 2421 2420 875 1458
1195 3159 852 4525 -333 1325 -1266 2229 -2499 2423 -231 37 -521 50 -750 35z
m430 -467 c387 -70 694 -227 966 -496 389 -384 611 -909 691 -1630 19 -175 16
-704 -5 -920 -96 -952 -420 -2162 -832 -3105 -74 -168 -271 -552 -370 -720
-450 -765 -982 -1356 -1575 -1749 -402 -267 -761 -416 -1165 -482 -134 -23
-457 -25 -580 -6 -931 150 -1531 953 -1650 2207 -30 322 -18 823 30 1215 88
712 311 1640 560 2329 348 963 828 1741 1446 2346 333 326 650 555 1024 740
341 168 599 245 975 289 78 9 399 -3 485 -18z"/>
</g>
</svg>
