<?xml version="1.0" standalone="no"?>
<!DOCTYPE svg PUBLIC "-//W3C//DTD SVG 20010904//EN"
 "http://www.w3.org/TR/2001/REC-SVG-20010904/DTD/svg10.dtd">
<svg version="1.0" xmlns="http://www.w3.org/2000/svg"
 width="517.000000pt" height="1174.000000pt" viewBox="0 0 517.000000 1174.000000"
 preserveAspectRatio="xMidYMid meet">
<metadata>
Created by potrace 1.16, written by Peter Selinger 2001-2019
</metadata>
<g transform="translate(0.000000,1174.000000) scale(0.100000,-0.100000)"
fill="#000000" stroke="none">
<path d="M4710 11729 c-25 -5 -65 -16 -90 -25 -83 -31 -2214 -1214 -2248
-1248 -46 -45 -51 -90 -22 -207 17 -66 31 -101 52 -125 33 -38 92 -58 135 -48
81 20 2260 791 2328 824 124 60 222 165 268 288 31 83 30 235 -1 314 -44 108
-147 198 -261 224 -63 15 -95 16 -161 3z"/>
<path d="M1800 9294 c-459 -40 -850 -76 -868 -79 -18 -3 -47 -21 -66 -39 -28
-29 -38 -51 -61 -144 -30 -123 -28 -155 12 -203 46 -54 67 -59 240 -59 291 0
532 -27 631 -70 73 -32 89 -117 56 -291 -8 -46 -397 -1612 -864 -3479 -514
-2056 -855 -3440 -866 -3510 -20 -136 -14 -392 11 -505 35 -159 103 -322 184
-445 46 -70 159 -190 234 -247 261 -201 668 -277 967 -181 257 82 457 267 634
583 151 270 270 618 442 1290 l38 150 -20 39 c-34 70 -58 81 -198 84 -136 4
-182 -7 -211 -51 -9 -14 -49 -153 -90 -310 -133 -509 -223 -779 -335 -1012
-112 -231 -228 -373 -356 -436 -62 -31 -77 -34 -154 -34 -112 0 -165 21 -224
86 -118 131 -138 445 -56 874 12 61 460 1865 996 4010 720 2880 974 3908 969
3932 -7 38 -46 88 -86 108 -15 8 -50 15 -76 14 -26 -1 -424 -34 -883 -75z"/>
</g>
</svg>
