<?xml version="1.0" standalone="no"?>
<!DOCTYPE svg PUBLIC "-//W3C//DTD SVG 20010904//EN"
 "http://www.w3.org/TR/2001/REC-SVG-20010904/DTD/svg10.dtd">
<svg version="1.0" xmlns="http://www.w3.org/2000/svg"
 width="730.000000pt" height="1230.000000pt" viewBox="0 0 730.000000 1230.000000"
 preserveAspectRatio="xMidYMid meet">
<metadata>
Created by potrace 1.16, written by Peter Selinger 2001-2019
</metadata>
<g transform="translate(0.000000,1230.000000) scale(0.100000,-0.100000)"
fill="#000000" stroke="none">
<path d="M3970 12224 c-964 -80 -949 -78 -988 -143 -10 -16 -33 -92 -51 -169
l-34 -139 24 -49 c44 -88 45 -88 332 -96 282 -7 415 -19 530 -50 135 -36 161
-83 138 -260 -11 -85 -2539 -10224 -2597 -10418 -47 -154 -109 -252 -185 -291
-104 -52 -307 -78 -689 -86 -374 -7 -367 -3 -421 -217 -46 -179 -35 -242 50
-286 39 -19 48 -20 253 -10 802 38 1709 38 2559 -1 245 -11 259 -11 295 7 21
11 48 33 60 51 31 46 88 283 80 328 -9 45 -57 101 -99 114 -18 5 -153 12 -302
15 -362 7 -563 32 -617 76 -20 16 -23 27 -22 97 0 68 38 229 288 1230 l288
1152 60 -75 c176 -219 429 -369 731 -435 121 -26 358 -35 502 -20 534 58 1089
320 1586 748 132 114 378 366 494 506 430 519 761 1175 924 1832 103 413 126
601 126 1015 0 389 -17 529 -97 815 -102 366 -259 647 -492 881 -290 291 -614
435 -1016 451 -492 19 -1014 -158 -1486 -505 -54 -40 -84 -56 -80 -45 40 134
966 3874 966 3904 0 88 -73 150 -172 148 -29 -1 -451 -35 -938 -75z m1647
-3849 c226 -43 420 -221 528 -487 150 -369 143 -877 -21 -1621 -52 -235 -216
-891 -279 -1112 -224 -791 -491 -1293 -907 -1701 -246 -243 -503 -399 -777
-471 -83 -22 -117 -26 -251 -26 -210 -1 -332 30 -467 120 -192 127 -335 382
-384 682 l-11 66 451 1805 c248 993 455 1814 460 1825 20 45 193 248 310 365
239 237 481 397 741 488 210 73 439 99 607 67z"/>
</g>
</svg>
