<?xml version="1.0" standalone="no"?>
<!DOCTYPE svg PUBLIC "-//W3C//DTD SVG 20010904//EN"
 "http://www.w3.org/TR/2001/REC-SVG-20010904/DTD/svg10.dtd">
<svg version="1.0" xmlns="http://www.w3.org/2000/svg"
 width="715.000000pt" height="918.000000pt" viewBox="0 0 715.000000 918.000000"
 preserveAspectRatio="xMidYMid meet">
<metadata>
Created by potrace 1.16, written by Peter Selinger 2001-2019
</metadata>
<g transform="translate(0.000000,918.000000) scale(0.100000,-0.100000)"
fill="#000000" stroke="none">
<path d="M4480 9164 c-132 -34 -155 -52 -1205 -914 -555 -456 -1020 -844
-1032 -861 -17 -23 -23 -46 -23 -82 0 -44 8 -64 60 -152 33 -56 70 -111 83
-123 46 -43 115 -54 170 -26 80 41 2160 1250 2220 1291 183 123 285 324 257
507 -39 263 -280 426 -530 360z"/>
<path d="M6600 9164 c-132 -34 -155 -52 -1205 -914 -555 -456 -1020 -844
-1032 -861 -17 -23 -23 -46 -23 -82 0 -44 8 -64 60 -152 33 -56 70 -111 83
-123 46 -43 115 -54 170 -26 80 41 2160 1250 2220 1291 183 123 285 324 257
507 -39 263 -280 426 -530 360z"/>
<path d="M3350 6253 c-235 -19 -581 -108 -845 -217 -274 -114 -649 -338 -889
-532 -273 -220 -535 -490 -746 -769 -472 -623 -778 -1374 -855 -2100 -17 -160
-19 -504 -5 -645 49 -472 205 -885 460 -1225 104 -138 302 -326 448 -423 563
-376 1255 -443 1992 -194 165 56 272 102 463 199 506 258 1001 680 1377 1178
473 623 778 1374 855 2100 17 160 19 504 5 645 -49 472 -205 885 -460 1225
-104 138 -302 326 -448 423 -276 184 -591 298 -921 331 -96 10 -328 12 -431 4z
m419 -433 c168 -41 329 -136 452 -267 300 -321 399 -827 298 -1528 -62 -433
-286 -1328 -435 -1742 -54 -149 -148 -371 -204 -482 -365 -727 -950 -1244
-1545 -1367 -133 -27 -360 -25 -479 4 -174 44 -333 137 -457 269 -300 321
-399 827 -298 1528 62 433 286 1328 435 1742 54 149 148 371 204 482 383 763
1010 1295 1626 1380 104 15 305 5 403 -19z"/>
</g>
</svg>
