<?xml version="1.0" standalone="no"?>
<!DOCTYPE svg PUBLIC "-//W3C//DTD SVG 20010904//EN"
 "http://www.w3.org/TR/2001/REC-SVG-20010904/DTD/svg10.dtd">
<svg version="1.0" xmlns="http://www.w3.org/2000/svg"
 width="612.000000pt" height="918.000000pt" viewBox="0 0 612.000000 918.000000"
 preserveAspectRatio="xMidYMid meet">
<metadata>
Created by potrace 1.16, written by Peter Selinger 2001-2019
</metadata>
<g transform="translate(0.000000,918.000000) scale(0.100000,-0.100000)"
fill="#000000" stroke="none">
<path d="M5485 9160 c-33 -11 -91 -37 -128 -57 -44 -25 -409 -321 -1047 -851
-903 -750 -980 -816 -996 -858 -23 -60 -14 -86 87 -258 85 -143 111 -170 177
-182 20 -4 48 -1 70 8 62 25 2153 1238 2214 1284 77 60 130 124 179 217 71
136 82 280 34 417 -38 108 -133 211 -243 263 -61 29 -77 32 -177 34 -88 2
-122 -1 -170 -17z"/>
<path d="M3410 6254 c-664 -77 -1243 -324 -1800 -769 -870 -695 -1454 -1728
-1592 -2815 -20 -157 -17 -614 4 -757 44 -290 122 -547 234 -772 123 -247 233
-399 415 -577 292 -283 645 -459 1074 -535 174 -31 535 -34 720 -5 1432 219
2752 1509 3144 3074 83 328 106 519 106 867 -1 290 -10 384 -60 612 -59 266
-183 565 -323 778 -212 325 -515 579 -871 733 -264 114 -498 162 -811 167
-113 2 -221 1 -240 -1z m389 -534 c331 -81 588 -338 695 -693 99 -328 91 -737
-24 -1302 -49 -236 -200 -846 -274 -1100 -188 -653 -408 -1085 -739 -1456
-243 -272 -565 -490 -867 -587 -167 -53 -250 -66 -420 -66 -182 0 -280 20
-417 84 -487 228 -678 771 -562 1597 55 398 289 1347 435 1763 224 644 531
1099 964 1430 254 194 548 319 830 354 81 10 297 -4 379 -24z"/>
</g>
</svg>
