<?xml version="1.0" standalone="no"?>
<!DOCTYPE svg PUBLIC "-//W3C//DTD SVG 20010904//EN"
 "http://www.w3.org/TR/2001/REC-SVG-20010904/DTD/svg10.dtd">
<svg version="1.0" xmlns="http://www.w3.org/2000/svg"
 width="774.000000pt" height="918.000000pt" viewBox="0 0 774.000000 918.000000"
 preserveAspectRatio="xMidYMid meet">
<metadata>
Created by potrace 1.16, written by Peter Selinger 2001-2019
</metadata>
<g transform="translate(0.000000,918.000000) scale(0.100000,-0.100000)"
fill="#000000" stroke="none">
<path d="M4985 9160 c-33 -11 -91 -37 -128 -57 -44 -25 -409 -321 -1047 -851
-903 -750 -980 -816 -996 -858 -23 -60 -14 -86 87 -258 85 -143 111 -170 177
-182 20 -4 48 -1 70 8 62 25 2153 1238 2214 1284 77 60 130 124 179 217 71
136 82 280 34 417 -38 108 -133 211 -243 263 -61 29 -77 32 -177 34 -88 2
-122 -1 -170 -17z"/>
<path d="M7105 9160 c-33 -11 -91 -37 -128 -57 -44 -25 -409 -321 -1047 -851
-903 -750 -980 -816 -996 -858 -23 -60 -14 -86 87 -258 85 -143 111 -170 177
-182 20 -4 48 -1 70 8 62 25 2153 1238 2214 1284 77 60 130 124 179 217 71
136 82 280 34 417 -38 108 -133 211 -243 263 -61 29 -77 32 -177 34 -88 2
-122 -1 -170 -17z"/>
<path d="M1730 6254 c-14 -2 -52 -9 -85 -15 -106 -19 -247 -69 -366 -131 -488
-250 -914 -839 -1173 -1621 -30 -89 -66 -208 -81 -264 -31 -117 -27 -149 26
-199 l30 -29 222 -3 c300 -3 287 -12 351 233 52 195 143 463 216 635 220 516
496 816 803 875 139 26 229 16 279 -32 48 -46 60 -86 66 -219 7 -191 -29 -380
-132 -689 -63 -187 -103 -278 -236 -539 -148 -286 -181 -375 -260 -699 -161
-657 -227 -1052 -252 -1493 -13 -241 -3 -502 28 -704 22 -148 85 -390 128
-496 219 -538 736 -864 1371 -864 283 0 535 62 795 196 205 106 368 231 560
432 l119 123 52 -103 c171 -331 452 -538 849 -624 127 -27 406 -26 511 4 559
154 911 699 1225 1895 62 237 62 256 4 312 l-31 30 -219 3 c-238 3 -262 -1
-296 -53 -9 -14 -44 -134 -79 -267 -84 -325 -127 -472 -192 -663 -145 -422
-293 -657 -473 -751 -26 -13 -58 -18 -120 -19 -72 0 -93 4 -135 25 -58 30
-107 96 -130 174 -39 134 -37 361 6 616 11 69 254 1060 540 2203 434 1737 519
2089 519 2146 0 78 -24 168 -63 234 -93 158 -322 233 -539 178 -200 -51 -358
-182 -444 -367 -25 -54 -147 -526 -519 -2013 -462 -1849 -488 -1946 -531
-2034 -157 -313 -355 -598 -549 -792 -213 -212 -403 -319 -639 -360 -246 -42
-414 11 -533 170 -122 162 -173 348 -193 698 -29 520 60 1139 305 2118 74 294
101 364 267 690 182 357 244 541 269 793 52 517 -208 985 -649 1171 -146 61
-268 86 -442 90 -85 2 -166 2 -180 -1z"/>
</g>
</svg>
