<?xml version="1.0" standalone="no"?>
<!DOCTYPE svg PUBLIC "-//W3C//DTD SVG 20010904//EN"
 "http://www.w3.org/TR/2001/REC-SVG-20010904/DTD/svg10.dtd">
<svg version="1.0" xmlns="http://www.w3.org/2000/svg"
 width="525.000000pt" height="927.000000pt" viewBox="0 0 525.000000 927.000000"
 preserveAspectRatio="xMidYMid meet">
<metadata>
Created by potrace 1.16, written by Peter Selinger 2001-2019
</metadata>
<g transform="translate(0.000000,927.000000) scale(0.100000,-0.100000)"
fill="#000000" stroke="none">
<path d="M1910 9251 c-600 -127 -1003 -788 -774 -1270 81 -172 230 -295 419
-346 210 -57 486 -8 700 124 235 144 417 378 485 621 31 108 38 275 16 374
-83 372 -441 582 -846 497z"/>
<path d="M4390 9255 c-197 -40 -377 -135 -531 -282 -137 -131 -224 -264 -278
-427 -71 -214 -63 -396 25 -575 159 -323 542 -444 939 -298 79 29 182 86 260
145 239 178 395 435 425 701 48 422 -257 755 -687 750 -48 0 -117 -7 -153 -14z"/>
<path d="M1730 6254 c-14 -2 -52 -9 -85 -15 -169 -30 -390 -127 -552 -242
-113 -80 -293 -254 -396 -381 -292 -363 -533 -866 -677 -1413 -25 -95 -19
-131 31 -179 l30 -29 222 -3 c299 -3 287 -11 350 228 134 507 322 926 533
1189 182 226 426 354 646 339 135 -10 179 -70 186 -256 7 -175 -27 -373 -108
-627 -18 -55 -294 -813 -615 -1685 -321 -872 -594 -1631 -608 -1687 -79 -313
-52 -624 77 -888 146 -298 386 -487 726 -573 93 -23 125 -26 280 -27 187 0
229 6 390 57 349 111 682 392 956 808 218 332 398 746 514 1187 25 95 19 131
-31 179 l-30 29 -222 3 c-299 3 -287 11 -350 -228 -134 -507 -322 -926 -533
-1189 -182 -226 -426 -354 -646 -339 -135 10 -179 70 -186 256 -7 175 27 373
108 627 18 55 294 813 615 1685 321 872 594 1631 608 1687 79 313 52 624 -77
888 -145 296 -386 488 -721 571 -80 20 -132 26 -255 29 -85 2 -166 2 -180 -1z"/>
</g>
</svg>
