<?xml version="1.0" standalone="no"?>
<!DOCTYPE svg PUBLIC "-//W3C//DTD SVG 20010904//EN"
 "http://www.w3.org/TR/2001/REC-SVG-20010904/DTD/svg10.dtd">
<svg version="1.0" xmlns="http://www.w3.org/2000/svg"
 width="1483.000000pt" height="1007.000000pt" viewBox="0 0 1483.000000 1007.000000"
 preserveAspectRatio="xMidYMid meet">
<metadata>
Created by potrace 1.16, written by Peter Selinger 2001-2019
</metadata>
<g transform="translate(0.000000,1007.000000) scale(0.100000,-0.100000)"
fill="#000000" stroke="none">
<path d="M4648 10056 c-771 -99 -1536 -543 -2098 -1217 -459 -551 -754 -1231
-820 -1888 -13 -134 -13 -405 1 -529 76 -708 453 -1278 1024 -1552 148 -71
184 -82 999 -316 413 -118 787 -227 831 -241 256 -83 451 -252 574 -499 167
-334 191 -811 66 -1306 -209 -821 -812 -1543 -1505 -1801 -262 -98 -579 -111
-985 -42 -734 125 -1211 538 -1376 1192 -47 188 -63 324 -63 563 0 266 28 506
90 768 29 124 30 147 6 191 -35 65 -61 71 -292 71 -186 0 -208 -2 -237 -20
-18 -10 -39 -29 -47 -42 -18 -28 -816 -3215 -816 -3260 0 -45 34 -96 75 -114
50 -21 182 -19 222 3 17 10 199 206 404 435 204 230 375 418 379 418 3 0 29
-28 57 -63 74 -91 246 -254 343 -326 419 -311 1009 -481 1669 -481 519 0 1022
165 1536 506 702 464 1269 1209 1551 2038 138 406 198 750 198 1141 -1 334
-36 561 -130 838 -166 487 -470 844 -899 1056 -173 86 -164 83 -1100 351 -796
228 -864 251 -992 338 -228 155 -378 404 -435 722 -26 149 -28 397 -3 555 115
752 617 1446 1280 1771 356 174 690 214 1114 133 552 -106 922 -474 1064
-1059 51 -206 68 -364 74 -655 6 -300 -7 -489 -53 -817 -27 -186 -27 -186 -7
-220 10 -18 34 -43 53 -55 32 -22 42 -23 237 -23 221 0 255 7 287 55 9 13 198
755 422 1649 l406 1625 -18 38 c-32 63 -72 83 -173 83 -67 0 -93 -4 -118 -19
-17 -11 -194 -202 -393 -425 -200 -223 -365 -406 -369 -406 -3 1 -31 38 -61
83 -83 124 -300 337 -434 426 -253 168 -549 273 -901 321 -132 18 -515 21
-637 6z"/>
<path d="M11718 10056 c-771 -99 -1536 -543 -2098 -1217 -459 -551 -754 -1231
-820 -1888 -13 -134 -13 -405 1 -529 76 -708 453 -1278 1024 -1552 148 -71
184 -82 999 -316 413 -118 787 -227 831 -241 256 -83 451 -252 574 -499 167
-334 191 -811 66 -1306 -209 -821 -812 -1543 -1505 -1801 -262 -98 -579 -111
-985 -42 -734 125 -1211 538 -1376 1192 -47 188 -63 324 -63 563 0 266 28 506
90 768 29 124 30 147 6 191 -35 65 -61 71 -292 71 -186 0 -208 -2 -237 -20
-18 -10 -39 -29 -47 -42 -18 -28 -816 -3215 -816 -3260 0 -45 34 -96 75 -114
50 -21 182 -19 222 3 17 10 199 206 404 435 204 230 375 418 379 418 3 0 29
-28 57 -63 74 -91 246 -254 343 -326 419 -311 1009 -481 1669 -481 519 0 1022
165 1536 506 702 464 1269 1209 1551 2038 138 406 198 750 198 1141 -1 334
-36 561 -130 838 -166 487 -470 844 -899 1056 -173 86 -164 83 -1100 351 -796
228 -864 251 -992 338 -228 155 -378 404 -435 722 -26 149 -28 397 -3 555 115
752 617 1446 1280 1771 356 174 690 214 1114 133 552 -106 922 -474 1064
-1059 51 -206 68 -364 74 -655 6 -300 -7 -489 -53 -817 -27 -186 -27 -186 -7
-220 10 -18 34 -43 53 -55 32 -22 42 -23 237 -23 221 0 255 7 287 55 9 13 198
755 422 1649 l406 1625 -18 38 c-32 63 -72 83 -173 83 -67 0 -93 -4 -118 -19
-17 -11 -194 -202 -393 -425 -200 -223 -365 -406 -369 -406 -3 1 -31 38 -61
83 -83 124 -300 337 -434 426 -253 168 -549 273 -901 321 -132 18 -515 21
-637 6z"/>
</g>
</svg>
