<?xml version="1.0" standalone="no"?>
<!DOCTYPE svg PUBLIC "-//W3C//DTD SVG 20010904//EN"
 "http://www.w3.org/TR/2001/REC-SVG-20010904/DTD/svg10.dtd">
<svg version="1.0" xmlns="http://www.w3.org/2000/svg"
 width="878.000000pt" height="292.000000pt" viewBox="0 0 878.000000 292.000000"
 preserveAspectRatio="xMidYMid meet">
<metadata>
Created by potrace 1.16, written by Peter Selinger 2001-2019
</metadata>
<g transform="translate(0.000000,292.000000) scale(0.100000,-0.100000)"
fill="#000000" stroke="none">
<path d="M750 2909 c-58 -23 -110 -99 -110 -159 0 -62 53 -137 113 -159 20 -8
1204 -11 3955 -11 3808 0 3928 1 3968 19 63 29 89 72 89 151 0 79 -26 122 -89
151 -40 18 -159 19 -3971 18 -2580 0 -3939 -4 -3955 -10z"/>
<path d="M94 321 c-63 -29 -89 -72 -89 -151 0 -79 26 -122 89 -151 40 -18 160
-19 3968 -19 2751 0 3935 3 3955 11 60 22 113 97 113 159 0 62 -53 137 -113
159 -20 8 -1204 11 -3955 11 -3808 0 -3928 -1 -3968 -19z"/>
</g>
</svg>
