<?xml version="1.0" standalone="no"?>
<!DOCTYPE svg PUBLIC "-//W3C//DTD SVG 20010904//EN"
 "http://www.w3.org/TR/2001/REC-SVG-20010904/DTD/svg10.dtd">
<svg version="1.0" xmlns="http://www.w3.org/2000/svg"
 width="483.000000pt" height="882.000000pt" viewBox="0 0 483.000000 882.000000"
 preserveAspectRatio="xMidYMid meet">
<metadata>
Created by potrace 1.16, written by Peter Selinger 2001-2019
</metadata>
<g transform="translate(0.000000,882.000000) scale(0.100000,-0.100000)"
fill="#000000" stroke="none">
<path d="M4345 8805 c-75 -17 -127 -39 -185 -78 -88 -61 -1988 -1627 -2006
-1654 -33 -51 -25 -108 29 -200 27 -46 62 -94 78 -107 37 -32 97 -42 140 -23
45 19 2154 1252 2199 1285 153 115 240 302 210 455 -33 174 -151 296 -314 326
-71 13 -75 13 -151 -4z"/>
<path d="M1535 6006 c-483 -93 -874 -451 -1191 -1086 -125 -251 -255 -602
-324 -876 -23 -90 -23 -91 -4 -129 34 -69 59 -80 198 -83 197 -6 212 7 266
216 18 70 57 204 87 297 242 750 545 1179 918 1302 103 33 289 39 342 11 102
-57 147 -216 123 -438 -15 -146 -52 -321 -100 -480 -23 -74 -295 -823 -605
-1665 -317 -862 -574 -1576 -589 -1635 -36 -145 -46 -224 -46 -371 -1 -521
280 -911 745 -1036 90 -24 117 -27 275 -27 159 0 184 3 272 27 447 123 807
471 1104 1067 125 251 255 602 324 876 23 90 23 91 4 129 -34 69 -59 80 -198
83 -197 6 -212 -7 -266 -216 -18 -70 -57 -203 -87 -297 -242 -750 -545 -1179
-918 -1302 -103 -33 -289 -39 -342 -11 -102 57 -147 216 -123 438 15 146 52
321 100 480 23 74 295 824 605 1665 317 862 574 1576 589 1635 36 145 46 224
46 371 1 521 -283 915 -745 1035 -123 32 -347 42 -460 20z"/>
</g>
</svg>
