<?xml version="1.0" standalone="no"?>
<!DOCTYPE svg PUBLIC "-//W3C//DTD SVG 20010904//EN"
 "http://www.w3.org/TR/2001/REC-SVG-20010904/DTD/svg10.dtd">
<svg version="1.0" xmlns="http://www.w3.org/2000/svg"
 width="932.000000pt" height="941.000000pt" viewBox="0 0 932.000000 941.000000"
 preserveAspectRatio="xMidYMid meet">
<metadata>
Created by potrace 1.16, written by Peter Selinger 2001-2019
</metadata>
<g transform="translate(0.000000,941.000000) scale(0.100000,-0.100000)"
fill="#000000" stroke="none">
<path d="M2359 9389 c-49 -29 -67 -64 -100 -193 -35 -135 -36 -187 -8 -233 40
-65 73 -73 297 -73 332 0 663 -25 784 -60 20 -6 47 -19 60 -29 21 -18 23 -26
22 -118 -1 -96 -24 -190 -966 -3953 -1055 -4218 -986 -3959 -1087 -4060 -103
-103 -295 -135 -866 -147 -356 -6 -373 -10 -413 -75 -11 -18 -34 -91 -51 -163
-34 -142 -32 -175 11 -230 42 -53 63 -56 336 -45 923 38 2140 38 3294 -1 373
-12 387 -11 436 45 22 26 36 62 60 159 18 70 32 140 32 157 0 48 -33 103 -76
126 -37 21 -56 22 -429 27 -394 6 -581 16 -756 42 -214 31 -245 58 -242 210 1
82 39 240 450 1880 l449 1790 710 0 c613 -1 725 -3 830 -18 361 -51 516 -157
555 -382 16 -94 6 -339 -21 -492 -12 -68 -42 -207 -67 -310 -59 -246 -61 -270
-33 -321 39 -69 76 -82 234 -82 93 0 147 4 169 14 77 32 48 -71 523 1828 l438
1754 -25 49 c-41 83 -57 89 -229 93 -132 3 -152 1 -187 -17 -22 -11 -48 -32
-58 -47 -9 -15 -39 -110 -66 -213 -26 -102 -63 -235 -82 -296 -229 -738 -514
-974 -1235 -1024 -151 -11 -1322 -16 -1322 -6 0 24 906 3619 926 3675 61 169
112 208 309 230 119 13 1863 13 2105 0 520 -29 815 -105 1058 -273 208 -143
317 -342 369 -669 15 -91 18 -173 18 -423 -1 -329 -9 -441 -66 -897 -35 -284
-35 -290 -8 -338 38 -67 76 -80 233 -80 93 0 147 4 169 14 40 16 83 66 91 103
14 66 376 2898 376 2940 0 58 -30 107 -81 133 -38 20 -76 20 -3436 20 l-3398
0 -36 -21z"/>
</g>
</svg>
