<?xml version="1.0" standalone="no"?>
<!DOCTYPE svg PUBLIC "-//W3C//DTD SVG 20010904//EN"
 "http://www.w3.org/TR/2001/REC-SVG-20010904/DTD/svg10.dtd">
<svg version="1.0" xmlns="http://www.w3.org/2000/svg"
 width="687.000000pt" height="1233.000000pt" viewBox="0 0 687.000000 1233.000000"
 preserveAspectRatio="xMidYMid meet">
<metadata>
Created by potrace 1.16, written by Peter Selinger 2001-2019
</metadata>
<g transform="translate(0.000000,1233.000000) scale(0.100000,-0.100000)"
fill="#000000" stroke="none">
<path d="M3635 12324 c-282 -58 -486 -179 -644 -385 -294 -379 -260 -849 77
-1067 33 -21 101 -52 149 -68 80 -26 100 -29 223 -28 116 0 147 4 223 27 336
103 595 358 693 684 23 74 27 108 28 213 0 115 -2 132 -30 210 -17 47 -47 111
-68 142 -116 175 -324 280 -549 277 -45 -1 -91 -3 -102 -5z"/>
<path d="M6040 12311 c-301 -64 -566 -278 -701 -565 -60 -128 -82 -237 -77
-376 6 -139 32 -223 103 -330 79 -118 183 -194 335 -242 64 -20 95 -23 210
-22 117 0 147 4 224 28 635 193 939 945 542 1341 -160 159 -388 218 -636 166z"/>
<path d="M2367 9430 c-53 -29 -68 -59 -106 -218 l-34 -139 24 -49 c45 -90 37
-88 392 -95 422 -9 628 -26 755 -64 74 -22 87 -47 86 -155 -1 -78 -86 -423
-971 -3960 -799 -3195 -975 -3887 -1004 -3945 -46 -94 -126 -176 -199 -203
-132 -48 -367 -71 -808 -79 -367 -7 -377 -8 -418 -70 -12 -18 -36 -91 -54
-162 -36 -147 -35 -182 7 -232 49 -58 64 -60 350 -49 967 38 2110 38 3125 -1
292 -11 308 -11 345 7 55 28 77 68 113 213 36 147 35 182 -7 232 -46 54 -71
59 -295 59 -369 0 -707 26 -836 65 -72 22 -85 45 -84 148 0 74 89 438 966
3943 531 2124 975 3887 987 3918 29 78 95 174 147 213 103 78 336 110 872 119
179 3 339 10 357 15 60 19 87 64 121 202 18 70 32 141 32 158 0 45 -36 103
-81 128 -37 21 -41 22 -286 12 -535 -22 -1352 -33 -1933 -27 -531 6 -733 10
-1355 31 -159 5 -172 4 -208 -15z"/>
</g>
</svg>
