<?xml version="1.0" standalone="no"?>
<!DOCTYPE svg PUBLIC "-//W3C//DTD SVG 20010904//EN"
 "http://www.w3.org/TR/2001/REC-SVG-20010904/DTD/svg10.dtd">
<svg version="1.0" xmlns="http://www.w3.org/2000/svg"
 width="547.000000pt" height="1044.000000pt" viewBox="0 0 547.000000 1044.000000"
 preserveAspectRatio="xMidYMid meet">
<metadata>
Created by potrace 1.16, written by Peter Selinger 2001-2019
</metadata>
<g transform="translate(0.000000,1044.000000) scale(0.100000,-0.100000)"
fill="#000000" stroke="none">
<path d="M4497 10425 c-415 -79 -756 -429 -833 -855 -30 -166 -10 -313 60
-456 77 -155 210 -259 396 -311 48 -13 102 -18 210 -18 164 0 243 14 378 69
100 40 100 51 -7 -159 -248 -489 -657 -920 -1141 -1204 -172 -101 -187 -113
-200 -162 -16 -57 -3 -87 83 -199 130 -170 156 -174 354 -56 605 362 1089 880
1383 1481 249 508 329 941 236 1288 -47 176 -119 302 -237 410 -75 71 -191
134 -294 162 -85 23 -290 28 -388 10z"/>
<path d="M1940 9684 c-1024 -79 -1010 -77 -1051 -136 -22 -31 -109 -354 -109
-407 0 -47 36 -105 80 -130 34 -19 53 -21 201 -21 299 0 561 -28 654 -69 74
-33 80 -47 79 -185 l-1 -121 -871 -3480 c-479 -1914 -878 -3515 -886 -3558
-111 -542 84 -1082 489 -1357 196 -133 417 -204 670 -217 315 -15 558 77 788
296 305 291 535 791 757 1641 57 219 57 240 0 295 l-31 30 -222 3 c-207 2
-224 1 -254 -17 -18 -11 -38 -33 -46 -48 -8 -15 -38 -120 -66 -233 -225 -884
-412 -1292 -652 -1425 -49 -27 -63 -30 -144 -30 -81 0 -95 3 -138 28 -55 33
-100 96 -122 172 -39 133 -37 361 6 615 11 69 477 1951 1035 4183 558 2231
1014 4076 1014 4098 0 88 -73 150 -172 148 -29 -1 -483 -35 -1008 -75z"/>
</g>
</svg>
