<?xml version="1.0" standalone="no"?>
<!DOCTYPE svg PUBLIC "-//W3C//DTD SVG 20010904//EN"
 "http://www.w3.org/TR/2001/REC-SVG-20010904/DTD/svg10.dtd">
<svg version="1.0" xmlns="http://www.w3.org/2000/svg"
 width="1041.000000pt" height="1210.000000pt" viewBox="0 0 1041.000000 1210.000000"
 preserveAspectRatio="xMidYMid meet">
<metadata>
Created by potrace 1.16, written by Peter Selinger 2001-2019
</metadata>
<g transform="translate(0.000000,1210.000000) scale(0.100000,-0.100000)"
fill="#000000" stroke="none">
<path d="M5640 12089 c-468 -46 -900 -206 -1223 -451 -422 -321 -676 -780
-876 -1589 -47 -187 -118 -534 -267 -1306 l-56 -293 -558 0 -557 0 -33 -22
c-51 -35 -67 -65 -95 -170 -29 -111 -27 -152 12 -199 52 -61 33 -59 613 -59
l532 0 -6 -27 c-3 -16 -168 -872 -366 -1903 -469 -2438 -550 -2848 -691 -3500
-138 -639 -321 -1387 -385 -1580 -100 -299 -262 -531 -429 -615 -57 -28 -66
-30 -175 -29 -186 2 -330 52 -442 153 l-51 45 69 21 c176 54 340 184 416 330
125 241 109 488 -42 629 -182 170 -490 166 -735 -9 -182 -130 -286 -353 -287
-620 -1 -144 22 -248 83 -371 131 -266 421 -453 794 -510 131 -21 321 -14 426
15 226 61 435 195 641 409 530 552 863 1435 1257 3332 68 330 108 531 515
2647 166 865 305 1575 308 1578 2 3 686 4 1519 3 l1515 -3 -347 -1805 c-379
-1967 -496 -2564 -595 -3030 -204 -957 -365 -1559 -503 -1880 -68 -158 -229
-378 -406 -555 -258 -257 -512 -383 -772 -385 -106 0 -291 27 -384 56 -113 36
-159 57 -242 110 l-72 47 52 18 c165 56 323 186 395 324 125 241 109 488 -42
629 -182 170 -490 166 -735 -9 -181 -129 -285 -352 -285 -610 0 -377 241 -662
683 -810 284 -95 657 -121 922 -65 479 101 967 414 1363 875 225 263 403 597
576 1088 163 460 342 1154 511 1977 51 252 775 4005 775 4020 0 7 234 10 663
10 610 0 665 1 696 18 51 25 69 57 98 168 28 110 26 157 -6 202 -45 64 -25 62
-725 62 l-636 0 5 23 c2 12 63 326 135 697 256 1335 379 1896 460 2113 57 151
244 362 384 432 l79 40 121 -1 c174 -2 330 -42 450 -116 70 -42 120 -87 104
-92 -7 -3 -31 -10 -53 -16 -22 -7 -76 -31 -120 -53 -105 -54 -225 -172 -277
-272 -125 -241 -109 -488 42 -629 182 -170 490 -166 735 9 88 63 149 135 200
240 62 125 77 187 82 346 4 116 2 148 -16 220 -88 353 -389 591 -869 686 -64
13 -136 17 -277 17 -181 0 -196 -2 -305 -31 -280 -75 -518 -215 -753 -442
-216 -209 -355 -439 -490 -813 -134 -368 -212 -695 -406 -1698 l-127 -655
-1517 -3 c-1284 -2 -1517 0 -1517 12 0 14 218 1147 269 1396 138 680 274 1147
395 1364 21 38 68 94 119 142 185 178 423 302 697 362 101 22 139 25 315 25
220 0 357 -18 510 -68 87 -28 225 -93 265 -125 l25 -20 -25 -7 c-14 -3 -65
-27 -115 -52 -209 -104 -349 -316 -371 -561 -12 -126 38 -262 126 -344 182
-170 490 -166 735 9 88 63 149 135 200 240 61 123 77 187 82 342 5 121 3 139
-21 224 -48 165 -128 283 -268 394 -181 143 -435 240 -758 290 -126 20 -521
28 -660 14z"/>
</g>
</svg>
