<?xml version="1.0" standalone="no"?>
<!DOCTYPE svg PUBLIC "-//W3C//DTD SVG 20010904//EN"
 "http://www.w3.org/TR/2001/REC-SVG-20010904/DTD/svg10.dtd">
<svg version="1.0" xmlns="http://www.w3.org/2000/svg"
 width="1183.000000pt" height="907.000000pt" viewBox="0 0 1183.000000 907.000000"
 preserveAspectRatio="xMidYMid meet">
<metadata>
Created by potrace 1.16, written by Peter Selinger 2001-2019
</metadata>
<g transform="translate(0.000000,907.000000) scale(0.100000,-0.100000)"
fill="#000000" stroke="none">
<path d="M5052 9053 c-18 -9 -41 -28 -52 -43 -27 -38 -73 -226 -65 -267 7 -40
54 -97 92 -111 17 -7 187 -12 446 -15 229 -2 420 -6 423 -9 7 -7 -4174 -7216
-4211 -7261 -14 -17 -57 -79 -95 -137 -291 -445 -695 -698 -1199 -749 -57 -6
-132 -11 -168 -11 -118 0 -158 -39 -197 -195 -30 -122 -26 -162 21 -207 51
-47 60 -49 225 -38 84 5 331 15 548 21 409 12 1050 3 1545 -22 250 -13 264
-11 313 46 20 22 36 59 50 118 27 107 28 162 2 204 -32 53 -61 65 -178 74
-206 16 -338 62 -439 153 -72 65 -105 136 -111 237 -6 101 11 184 55 279 19
41 41 91 48 110 7 19 387 679 843 1465 l830 1430 960 3 960 2 -423 -1687
c-292 -1168 -431 -1708 -452 -1753 -36 -79 -82 -134 -134 -161 -96 -48 -334
-79 -618 -79 -164 0 -199 -10 -237 -67 -25 -37 -64 -185 -64 -241 0 -48 32
-98 80 -123 34 -18 131 -19 2933 -19 3137 0 2922 -4 2974 52 13 14 302 708
675 1619 700 1713 678 1653 632 1716 -46 61 -77 73 -196 73 -114 0 -158 -11
-191 -47 -9 -11 -67 -141 -128 -289 -331 -801 -554 -1257 -794 -1624 -156
-238 -298 -405 -440 -515 -407 -317 -903 -483 -1570 -525 -204 -13 -1635 -13
-1735 0 -138 18 -148 31 -129 168 6 42 203 847 438 1787 l427 1710 685 0 c605
0 697 -2 797 -18 196 -31 308 -75 393 -153 82 -78 110 -166 110 -354 0 -176
-30 -363 -112 -700 -44 -181 -44 -211 -2 -260 43 -51 71 -60 190 -60 119 0
160 13 196 61 12 17 161 596 433 1683 455 1822 430 1699 367 1758 -46 43 -67
48 -183 48 -181 0 -194 -13 -256 -251 -89 -346 -148 -520 -238 -705 -143 -293
-329 -447 -638 -529 -202 -54 -260 -57 -971 -62 -636 -5 -659 -4 -653 14 3 10
210 839 461 1843 251 1004 465 1854 477 1890 11 36 36 96 56 134 41 78 75 105
167 132 54 16 133 18 835 22 491 2 843 -1 960 -8 519 -30 834 -129 1052 -329
115 -105 181 -243 221 -466 20 -107 22 -154 22 -440 -1 -340 -8 -445 -66 -907
-16 -131 -29 -257 -29 -281 0 -54 32 -105 80 -129 46 -24 236 -26 279 -3 38
19 78 68 85 102 20 94 357 2755 353 2785 -6 48 -38 91 -81 112 -31 15 -310 16
-3343 16 -3027 0 -3311 -2 -3341 -17z m1463 -499 c164 -31 206 -72 213 -208 4
-79 -7 -122 -448 -1886 -248 -993 -455 -1822 -461 -1842 l-10 -38 -883 0 -884
0 1160 2000 1160 2000 37 -5 c20 -4 72 -13 116 -21z"/>
</g>
</svg>
