<?xml version="1.0" standalone="no"?>
<!DOCTYPE svg PUBLIC "-//W3C//DTD SVG 20010904//EN"
 "http://www.w3.org/TR/2001/REC-SVG-20010904/DTD/svg10.dtd">
<svg version="1.0" xmlns="http://www.w3.org/2000/svg"
 width="1229.000000pt" height="1007.000000pt" viewBox="0 0 1229.000000 1007.000000"
 preserveAspectRatio="xMidYMid meet">
<metadata>
Created by potrace 1.16, written by Peter Selinger 2001-2019
</metadata>
<g transform="translate(0.000000,1007.000000) scale(0.100000,-0.100000)"
fill="#000000" stroke="none">
<path d="M5400 10059 c-1533 -123 -3161 -1211 -4226 -2824 -642 -973 -1032
-2038 -1151 -3140 -24 -228 -24 -808 0 -1022 105 -927 440 -1671 999 -2219
205 -201 392 -342 635 -478 458 -255 1043 -392 1588 -373 253 9 400 33 960
157 343 76 418 91 615 123 l135 21 2565 6 c1917 4 2570 8 2585 17 11 6 30 22
42 35 23 25 1392 3391 1400 3442 5 39 -31 112 -70 140 -25 19 -45 21 -180 24
-143 2 -154 1 -191 -20 -21 -13 -47 -39 -58 -58 -10 -19 -72 -165 -137 -325
-365 -894 -644 -1438 -938 -1828 -338 -449 -855 -735 -1533 -846 -306 -51
-378 -54 -1354 -58 -907 -4 -1063 -1 -1145 28 l-34 12 6 86 c4 69 103 476 494
2041 l489 1955 820 0 c717 0 836 -3 959 -18 330 -41 504 -123 574 -270 42 -89
55 -165 54 -312 0 -178 -26 -343 -104 -664 -45 -188 -47 -210 -18 -261 38 -67
76 -80 233 -80 93 0 147 4 169 14 77 32 48 -71 523 1828 l438 1754 -25 49
c-41 83 -57 89 -229 93 -132 3 -152 1 -187 -17 -22 -11 -48 -32 -58 -47 -9
-15 -37 -104 -61 -198 -143 -553 -274 -830 -489 -1035 -194 -184 -459 -271
-920 -301 -158 -10 -1545 -15 -1545 -5 0 24 866 3459 886 3516 61 170 115 208
321 229 144 15 1882 8 2033 -9 487 -52 769 -154 967 -349 105 -104 154 -191
199 -356 43 -163 58 -307 57 -586 0 -266 -14 -461 -59 -835 -53 -448 -51 -411
-26 -459 39 -73 75 -86 236 -86 93 0 147 4 169 14 40 16 83 66 91 103 14 66
376 2898 376 2940 0 58 -30 107 -81 133 -38 20 -70 20 -2392 20 -1610 0 -2388
3 -2463 11 -172 17 -351 53 -744 149 -383 94 -529 123 -707 140 -124 11 -340
11 -493 -1z m515 -424 c232 -41 400 -113 515 -221 167 -158 208 -304 197 -707
-8 -301 -49 -594 -152 -1082 -61 -291 -1204 -4860 -1294 -5176 -215 -750 -447
-1294 -663 -1553 -225 -269 -574 -432 -1022 -475 -526 -52 -950 86 -1302 422
-331 316 -560 755 -704 1351 -82 338 -119 644 -127 1051 -12 608 61 1217 228
1905 341 1410 1033 2658 1960 3536 564 534 1209 885 1754 953 50 6 104 13 120
15 68 10 404 -3 490 -19z"/>
</g>
</svg>
