<?xml version="1.0" standalone="no"?>
<!DOCTYPE svg PUBLIC "-//W3C//DTD SVG 20010904//EN"
 "http://www.w3.org/TR/2001/REC-SVG-20010904/DTD/svg10.dtd">
<svg version="1.0" xmlns="http://www.w3.org/2000/svg"
 width="516.000000pt" height="882.000000pt" viewBox="0 0 516.000000 882.000000"
 preserveAspectRatio="xMidYMid meet">
<metadata>
Created by potrace 1.16, written by Peter Selinger 2001-2019
</metadata>
<g transform="translate(0.000000,882.000000) scale(0.100000,-0.100000)"
fill="#000000" stroke="none">
<path d="M3397 8809 c-398 -35 -729 -145 -1023 -340 -157 -104 -361 -310 -474
-479 -154 -232 -290 -547 -365 -848 -94 -377 -69 -718 74 -1018 69 -143 140
-245 250 -355 106 -106 199 -173 340 -243 136 -69 224 -94 636 -186 204 -45
406 -93 450 -107 207 -65 376 -186 496 -356 167 -237 182 -542 45 -920 -150
-414 -405 -695 -770 -847 -118 -50 -315 -101 -381 -100 -27 1 -240 3 -472 5
-392 3 -426 5 -498 24 -254 70 -476 209 -610 381 -38 50 -105 159 -105 172 0
3 20 8 45 11 73 10 194 55 267 98 124 73 223 181 293 318 37 75 75 230 75 310
0 279 -207 473 -503 473 -119 0 -210 -22 -322 -77 -274 -134 -416 -381 -441
-765 -21 -333 96 -638 341 -885 210 -213 500 -366 853 -450 44 -11 72 -22 69
-29 -2 -6 -44 -171 -92 -367 l-89 -355 25 -49 c37 -76 59 -87 191 -96 298 -23
504 -117 608 -279 118 -184 46 -493 -159 -682 -272 -252 -795 -358 -1765 -358
-228 0 -240 -1 -278 -22 -48 -27 -69 -66 -93 -169 l-18 -77 24 -48 c47 -94 14
-89 552 -88 591 1 960 22 1297 74 840 128 1296 420 1446 925 35 119 44 306 20
410 -35 146 -120 277 -250 387 -110 92 -342 201 -509 238 -44 10 -56 17 -53
29 3 9 33 127 67 264 55 219 64 248 83 251 11 3 71 12 131 21 413 61 802 222
1103 455 371 286 661 749 816 1302 70 249 80 313 80 538 1 226 -10 303 -66
480 -72 227 -184 407 -362 585 -136 136 -249 217 -422 301 -161 78 -274 111
-709 209 -214 48 -419 98 -454 111 -207 78 -367 268 -407 484 -50 263 64 662
262 920 164 214 386 342 689 396 127 22 435 25 545 5 308 -56 560 -222 672
-446 35 -69 34 -72 -29 -90 -103 -30 -192 -84 -273 -165 -168 -167 -233 -414
-160 -605 28 -71 110 -159 183 -194 269 -130 627 1 774 284 72 138 110 341
100 525 -30 528 -427 938 -1038 1074 -63 13 -158 30 -211 35 -109 12 -367 12
-501 0z"/>
</g>
</svg>
