<?xml version="1.0" standalone="no"?>
<!DOCTYPE svg PUBLIC "-//W3C//DTD SVG 20010904//EN"
 "http://www.w3.org/TR/2001/REC-SVG-20010904/DTD/svg10.dtd">
<svg version="1.0" xmlns="http://www.w3.org/2000/svg"
 width="880.000000pt" height="1195.000000pt" viewBox="0 0 880.000000 1195.000000"
 preserveAspectRatio="xMidYMid meet">
<metadata>
Created by potrace 1.16, written by Peter Selinger 2001-2019
</metadata>
<g transform="translate(0.000000,1195.000000) scale(0.100000,-0.100000)"
fill="#000000" stroke="none">
<path d="M5355 11944 c-136 -11 -344 -38 -465 -60 -1334 -246 -2659 -1126
-3597 -2388 -749 -1008 -1200 -2178 -1284 -3335 -15 -210 -7 -678 16 -861 141
-1152 689 -2061 1557 -2579 115 -68 368 -190 490 -235 181 -66 443 -135 634
-166 l71 -11 -63 -252 c-35 -139 -64 -265 -64 -280 0 -41 28 -94 63 -119 24
-17 52 -23 141 -30 226 -17 397 -80 505 -186 128 -126 158 -271 95 -472 -86
-274 -327 -448 -754 -544 -244 -54 -487 -75 -980 -83 -397 -6 -402 -7 -448
-56 -34 -36 -55 -127 -42 -176 11 -44 65 -97 107 -107 37 -10 912 3 1108 16
717 46 1173 157 1488 363 208 135 343 314 414 544 23 77 27 105 27 223 0 120
-3 143 -26 207 -35 99 -71 157 -142 232 -129 134 -292 223 -530 286 -49 14
-91 26 -94 29 -5 6 87 387 97 398 3 3 69 18 146 32 767 140 1532 563 2170
1201 393 393 703 827 950 1330 144 293 238 540 315 824 35 129 32 156 -21 207
l-30 29 -150 0 -151 0 -32 -36 c-24 -26 -38 -55 -51 -110 -10 -41 -44 -153
-75 -249 -420 -1271 -1443 -2351 -2543 -2684 -263 -80 -472 -110 -752 -110
-221 0 -322 9 -517 50 -673 140 -1230 601 -1507 1245 -321 749 -313 1719 25
3072 329 1318 794 2261 1496 3035 624 689 1480 1185 2271 1317 352 58 604 59
882 4 712 -143 1204 -747 1359 -1669 43 -254 51 -368 51 -695 -1 -313 -7 -406
-47 -698 -21 -148 -21 -159 -5 -192 30 -63 64 -75 212 -75 147 0 183 12 210
72 18 40 905 3594 905 3626 0 36 -28 81 -63 102 -42 26 -139 27 -184 3 -17
-10 -123 -121 -235 -248 -111 -126 -327 -370 -479 -541 l-276 -311 -49 80
c-160 263 -402 517 -654 685 -241 160 -556 278 -875 327 -106 16 -499 28 -620
19z"/>
</g>
</svg>
