<?xml version="1.0" standalone="no"?>
<!DOCTYPE svg PUBLIC "-//W3C//DTD SVG 20010904//EN"
 "http://www.w3.org/TR/2001/REC-SVG-20010904/DTD/svg10.dtd">
<svg version="1.0" xmlns="http://www.w3.org/2000/svg"
 width="601.000000pt" height="863.000000pt" viewBox="0 0 601.000000 863.000000"
 preserveAspectRatio="xMidYMid meet">
<metadata>
Created by potrace 1.16, written by Peter Selinger 2001-2019
</metadata>
<g transform="translate(0.000000,863.000000) scale(0.100000,-0.100000)"
fill="#000000" stroke="none">
<path d="M2300 8608 c-72 -50 -97 -123 -63 -188 25 -47 1285 -1735 1331 -1783
46 -48 96 -62 149 -44 51 17 2248 1779 2269 1818 36 70 5 166 -66 201 -76 38
-37 58 -1056 -523 -522 -298 -966 -551 -988 -564 l-38 -23 -695 555 c-382 305
-706 558 -720 564 -41 15 -88 10 -123 -13z"/>
<path d="M3123 6005 c-456 -58 -955 -262 -1381 -564 -237 -168 -523 -429 -720
-656 -552 -639 -900 -1415 -1004 -2235 -17 -138 -17 -594 0 -715 54 -377 178
-728 349 -990 209 -319 512 -570 848 -704 297 -118 626 -162 990 -132 1009 84
1945 582 2512 1338 79 106 92 143 69 198 -18 41 -137 170 -178 191 -71 37
-124 9 -219 -116 -549 -724 -1373 -1196 -2219 -1271 -389 -34 -637 44 -856
272 -309 322 -411 824 -313 1529 53 382 228 1108 370 1534 103 309 266 665
405 886 383 609 917 1019 1426 1094 274 41 551 -8 773 -138 84 -49 227 -189
272 -266 51 -88 51 -86 -9 -94 -146 -20 -304 -101 -409 -214 -144 -152 -220
-399 -175 -567 56 -212 241 -336 481 -322 283 16 521 199 610 467 73 221 73
475 1 686 -54 158 -133 283 -256 405 -198 195 -442 312 -785 376 -115 21 -442
26 -582 8z"/>
</g>
</svg>
