<?xml version="1.0" standalone="no"?>
<!DOCTYPE svg PUBLIC "-//W3C//DTD SVG 20010904//EN"
 "http://www.w3.org/TR/2001/REC-SVG-20010904/DTD/svg10.dtd">
<svg version="1.0" xmlns="http://www.w3.org/2000/svg"
 width="678.000000pt" height="954.000000pt" viewBox="0 0 678.000000 954.000000"
 preserveAspectRatio="xMidYMid meet">
<metadata>
Created by potrace 1.16, written by Peter Selinger 2001-2019
</metadata>
<g transform="translate(0.000000,954.000000) scale(0.100000,-0.100000)"
fill="#000000" stroke="none">
<path d="M1553 9525 c-17 -7 -38 -24 -47 -37 -32 -49 -1498 -3174 -1503 -3203
-7 -44 20 -101 59 -125 30 -18 50 -20 204 -20 158 0 173 2 198 21 15 12 60 87
106 177 171 338 373 647 621 947 118 143 433 454 575 568 443 355 913 563
1377 608 338 32 417 -16 661 -405 148 -236 242 -343 365 -416 118 -69 184 -85
356 -85 165 0 274 19 439 75 47 16 86 27 86 24 0 -2 -41 -67 -90 -145 -1222
-1901 -2119 -3635 -2699 -5214 -239 -651 -515 -1578 -528 -1775 -10 -144 45
-290 142 -378 181 -166 457 -187 723 -56 164 82 313 245 376 414 14 40 51 170
81 290 179 714 432 1588 667 2300 758 2302 1695 4260 2884 6028 147 218 164
248 164 285 0 24 -9 56 -20 75 -32 53 -69 62 -242 62 -132 0 -157 -3 -184 -19
-18 -11 -80 -89 -149 -187 -468 -668 -746 -978 -1060 -1183 -199 -131 -424
-200 -605 -188 -98 6 -151 29 -199 84 -76 85 -113 227 -151 573 -49 446 -107
628 -245 765 -138 138 -302 176 -616 145 -521 -53 -1040 -297 -1553 -731 -25
-21 -35 -26 -28 -13 51 96 275 586 278 609 6 40 -22 94 -65 122 -32 22 -44 23
-190 23 -110 -1 -165 -5 -188 -15z"/>
</g>
</svg>
