<?xml version="1.0" standalone="no"?>
<!DOCTYPE svg PUBLIC "-//W3C//DTD SVG 20010904//EN"
 "http://www.w3.org/TR/2001/REC-SVG-20010904/DTD/svg10.dtd">
<svg version="1.0" xmlns="http://www.w3.org/2000/svg"
 width="548.000000pt" height="988.000000pt" viewBox="0 0 548.000000 988.000000"
 preserveAspectRatio="xMidYMid meet">
<metadata>
Created by potrace 1.16, written by Peter Selinger 2001-2019
</metadata>
<g transform="translate(0.000000,988.000000) scale(0.100000,-0.100000)"
fill="#000000" stroke="none">
<path d="M4556 9865 c-372 -77 -662 -354 -761 -725 -30 -116 -35 -285 -9 -384
51 -196 184 -335 389 -403 73 -25 93 -27 235 -27 139 1 164 3 245 28 92 27
204 77 263 116 l33 22 -21 -53 c-147 -374 -369 -709 -670 -1009 -195 -194
-437 -378 -674 -510 -109 -61 -136 -91 -136 -156 0 -60 86 -186 151 -220 59
-30 86 -20 291 103 713 427 1286 1158 1503 1918 55 194 69 283 69 450 1 287
-77 506 -235 664 -79 79 -166 132 -274 167 -100 33 -290 42 -399 19z"/>
<path d="M2504 8787 c-102 -34 -180 -82 -250 -153 -117 -118 -106 -81 -428
-1371 l-288 -1153 -680 0 c-740 0 -720 2 -769 -58 -27 -31 -89 -250 -89 -313
0 -45 36 -103 80 -128 37 -21 44 -21 683 -21 l645 0 -499 -1992 c-274 -1096
-506 -2033 -515 -2083 -23 -124 -24 -389 -1 -511 95 -520 430 -869 939 -981
117 -25 408 -25 528 1 571 122 1078 540 1501 1238 107 176 270 505 348 702 71
181 73 203 16 264 l-33 37 -170 3 c-184 4 -215 -3 -246 -51 -8 -12 -43 -92
-77 -177 -289 -726 -664 -1251 -1056 -1481 -171 -101 -323 -144 -503 -144
-108 0 -118 2 -168 29 -58 32 -93 73 -124 143 -62 141 -64 456 -3 778 9 44
248 1013 533 2153 l517 2072 678 0 c739 0 719 -2 768 58 27 31 89 250 89 313
0 45 -36 103 -80 128 -37 21 -44 21 -679 21 -416 0 -641 3 -641 10 0 5 124
505 275 1110 151 605 278 1124 281 1153 13 109 -39 251 -116 321 -24 21 -72
52 -109 69 -60 29 -77 32 -176 34 -94 3 -121 0 -181 -20z"/>
</g>
</svg>
