<?xml version="1.0" standalone="no"?>
<!DOCTYPE svg PUBLIC "-//W3C//DTD SVG 20010904//EN"
 "http://www.w3.org/TR/2001/REC-SVG-20010904/DTD/svg10.dtd">
<svg version="1.0" xmlns="http://www.w3.org/2000/svg"
 width="893.000000pt" height="907.000000pt" viewBox="0 0 893.000000 907.000000"
 preserveAspectRatio="xMidYMid meet">
<metadata>
Created by potrace 1.16, written by Peter Selinger 2001-2019
</metadata>
<g transform="translate(0.000000,907.000000) scale(0.100000,-0.100000)"
fill="#000000" stroke="none">
<path d="M2281 9052 c-51 -25 -69 -57 -98 -168 -28 -110 -26 -157 6 -202 39
-55 69 -62 278 -62 350 0 650 -27 760 -68 63 -23 78 -61 69 -176 -8 -96 -1850
-7475 -1896 -7594 -58 -151 -128 -225 -246 -262 -139 -43 -449 -70 -802 -70
-211 0 -228 -4 -274 -59 -37 -43 -82 -229 -68 -280 10 -37 46 -79 87 -100 30
-15 4765 -16 4950 0 717 60 1441 363 2015 843 145 122 382 362 489 496 253
317 436 661 535 1005 260 899 -108 1741 -939 2148 -205 101 -443 175 -677 212
-158 24 -164 26 -110 37 1195 245 2218 1067 2485 1998 46 159 65 281 72 450
19 465 -139 884 -457 1214 -363 377 -860 592 -1490 646 -71 6 -985 10 -2385
10 -2141 0 -2272 -1 -2304 -18z m4505 -447 c438 -71 759 -383 879 -855 35
-140 47 -247 47 -420 -2 -514 -198 -1037 -558 -1490 -87 -109 -305 -327 -414
-414 -354 -282 -752 -462 -1151 -520 -91 -14 -255 -16 -1103 -16 -548 0 -996
2 -996 5 0 15 844 3381 862 3435 33 104 87 199 127 225 42 27 102 45 186 55
33 4 503 8 1045 9 827 1 1000 -1 1076 -14z m-910 -4066 c189 -21 337 -73 486
-171 222 -146 388 -375 488 -677 66 -197 85 -327 85 -596 0 -241 -8 -321 -51
-535 -85 -413 -274 -813 -550 -1160 -105 -132 -355 -375 -491 -477 -346 -260
-726 -420 -1098 -463 -117 -13 -2081 -13 -2185 0 -137 18 -148 32 -130 163 5
40 226 939 491 2000 l481 1927 1190 0 c775 0 1222 -4 1284 -11z"/>
</g>
</svg>
