<?xml version="1.0" standalone="no"?>
<!DOCTYPE svg PUBLIC "-//W3C//DTD SVG 20010904//EN"
 "http://www.w3.org/TR/2001/REC-SVG-20010904/DTD/svg10.dtd">
<svg version="1.0" xmlns="http://www.w3.org/2000/svg"
 width="933.000000pt" height="1208.000000pt" viewBox="0 0 933.000000 1208.000000"
 preserveAspectRatio="xMidYMid meet">
<metadata>
Created by potrace 1.16, written by Peter Selinger 2001-2019
</metadata>
<g transform="translate(0.000000,1208.000000) scale(0.100000,-0.100000)"
fill="#000000" stroke="none">
<path d="M6745 12070 c-22 -6 -60 -17 -85 -26 -69 -25 -2296 -1253 -2325
-1282 -47 -47 -51 -87 -20 -214 15 -62 36 -129 46 -149 24 -48 75 -79 129 -79
52 0 2336 788 2450 845 150 76 269 232 301 393 41 215 -72 430 -261 498 -55
19 -181 27 -235 14z"/>
<path d="M129 9429 c-49 -29 -67 -64 -100 -193 -35 -135 -36 -187 -8 -233 39
-63 75 -73 271 -73 321 0 597 -28 715 -71 63 -23 144 -96 176 -159 21 -41
1527 -4896 1527 -4922 0 -23 -672 -2713 -707 -2828 -59 -197 -137 -307 -247
-349 -129 -48 -336 -69 -761 -78 -356 -6 -373 -10 -413 -75 -11 -18 -34 -94
-53 -169 l-33 -136 25 -49 c13 -26 37 -57 52 -68 33 -24 43 -24 577 -7 819 28
1875 24 2727 -10 267 -11 283 -10 320 7 56 28 78 70 113 214 35 145 33 182 -8
232 -44 53 -71 58 -289 58 -353 0 -679 27 -794 65 -30 10 -51 25 -60 41 -18
34 -16 147 6 249 23 112 713 2876 724 2900 17 38 3352 4140 3459 4254 316 338
415 429 607 556 326 216 647 319 1076 343 196 11 207 21 259 233 37 147 35
181 -11 234 -44 50 -74 56 -224 45 -71 -5 -319 -14 -551 -21 -438 -13 -1127
-4 -1660 22 -220 11 -234 11 -270 -7 -57 -28 -79 -69 -114 -214 -35 -145 -33
-182 8 -232 34 -40 79 -58 145 -58 80 0 225 -28 282 -54 114 -52 168 -128 167
-238 0 -108 -41 -211 -139 -351 -29 -43 -57 -86 -61 -97 -7 -18 -2995 -3704
-3011 -3714 -4 -3 -299 936 -656 2085 -627 2024 -647 2091 -636 2130 45 149
263 223 706 237 281 9 279 8 335 233 36 145 35 180 -7 230 -49 58 -66 61 -331
49 -762 -31 -1930 -36 -2567 -10 -575 23 -526 23 -566 -1z"/>
</g>
</svg>
