<?xml version="1.0" standalone="no"?>
<!DOCTYPE svg PUBLIC "-//W3C//DTD SVG 20010904//EN"
 "http://www.w3.org/TR/2001/REC-SVG-20010904/DTD/svg10.dtd">
<svg version="1.0" xmlns="http://www.w3.org/2000/svg"
 width="389.000000pt" height="863.000000pt" viewBox="0 0 389.000000 863.000000"
 preserveAspectRatio="xMidYMid meet">
<metadata>
Created by potrace 1.16, written by Peter Selinger 2001-2019
</metadata>
<g transform="translate(0.000000,863.000000) scale(0.100000,-0.100000)"
fill="#000000" stroke="none">
<path d="M2565 8612 c-53 -33 -2104 -1941 -2120 -1972 -17 -34 -19 -77 -5
-116 14 -36 126 -161 161 -180 35 -18 96 -18 130 0 21 11 1644 1394 1740 1483
l27 25 497 -742 c354 -528 506 -747 528 -761 39 -23 97 -24 140 -2 50 25 171
118 195 148 16 20 22 42 22 79 0 49 -19 84 -567 1030 -357 615 -578 987 -595
999 -38 28 -115 33 -153 9z"/>
<path d="M1535 6006 c-483 -93 -874 -451 -1191 -1086 -125 -251 -255 -602
-324 -876 -23 -90 -23 -91 -4 -129 34 -69 59 -80 198 -83 197 -6 212 7 266
216 18 70 57 204 87 297 242 750 545 1179 918 1302 103 33 289 39 342 11 102
-57 147 -216 123 -438 -15 -146 -52 -321 -100 -480 -23 -74 -295 -823 -605
-1665 -317 -862 -574 -1576 -589 -1635 -36 -145 -46 -224 -46 -371 -1 -521
280 -911 745 -1036 90 -24 117 -27 275 -27 159 0 184 3 272 27 447 123 807
471 1104 1067 125 251 255 602 324 876 23 90 23 91 4 129 -34 69 -59 80 -198
83 -197 6 -212 -7 -266 -216 -18 -70 -57 -203 -87 -297 -242 -750 -545 -1179
-918 -1302 -103 -33 -289 -39 -342 -11 -102 57 -147 216 -123 438 15 146 52
321 100 480 23 74 295 824 605 1665 317 862 574 1576 589 1635 36 145 46 224
46 371 1 521 -283 915 -745 1035 -123 32 -347 42 -460 20z"/>
</g>
</svg>
