<?xml version="1.0" standalone="no"?>
<!DOCTYPE svg PUBLIC "-//W3C//DTD SVG 20010904//EN"
 "http://www.w3.org/TR/2001/REC-SVG-20010904/DTD/svg10.dtd">
<svg version="1.0" xmlns="http://www.w3.org/2000/svg"
 width="541.000000pt" height="886.000000pt" viewBox="0 0 541.000000 886.000000"
 preserveAspectRatio="xMidYMid meet">
<metadata>
Created by potrace 1.16, written by Peter Selinger 2001-2019
</metadata>
<g transform="translate(0.000000,886.000000) scale(0.100000,-0.100000)"
fill="#000000" stroke="none">
<path d="M4097 8840 c-346 -93 -590 -453 -512 -755 56 -215 243 -345 475 -332
412 22 748 465 618 815 -84 226 -328 341 -581 272z"/>
<path d="M2505 6006 c-291 -56 -524 -177 -775 -404 -271 -247 -522 -669 -620
-1044 -22 -85 -22 -87 -4 -124 11 -22 34 -49 53 -61 31 -21 46 -23 153 -23
177 0 196 12 243 150 98 287 402 530 758 606 242 51 471 19 789 -111 90 -37
244 -100 343 -141 201 -82 368 -129 523 -147 l103 -12 -132 -149 c-332 -375
-679 -726 -1429 -1446 -1086 -1044 -1511 -1497 -1959 -2095 -214 -284 -518
-761 -542 -847 -12 -45 4 -90 46 -128 26 -24 31 -25 175 -25 178 0 166 -8 269
164 352 587 739 868 1102 801 30 -5 88 -27 129 -47 98 -48 224 -173 382 -378
155 -202 220 -275 304 -345 97 -81 172 -123 284 -162 93 -32 99 -33 260 -32
131 0 186 5 266 22 459 99 873 387 1223 852 222 295 408 670 512 1032 l41 141
-17 44 c-28 72 -55 83 -214 83 -191 0 -190 0 -252 -195 -102 -324 -382 -674
-700 -873 -239 -151 -518 -230 -764 -219 -204 10 -334 48 -705 205 -395 167
-547 209 -780 218 -80 3 -171 2 -202 -3 l-57 -10 52 60 c355 412 625 686 1528
1557 1098 1057 1508 1496 1959 2095 202 269 505 742 541 844 14 40 -2 88 -42
127 l-30 29 -149 0 c-180 0 -165 10 -282 -189 -127 -218 -335 -524 -402 -594
-153 -160 -285 -214 -451 -183 -161 30 -290 135 -506 412 -147 189 -213 265
-291 336 -101 92 -206 153 -333 193 -88 28 -294 36 -400 16z"/>
</g>
</svg>
