<?xml version="1.0" standalone="no"?>
<!DOCTYPE svg PUBLIC "-//W3C//DTD SVG 20010904//EN"
 "http://www.w3.org/TR/2001/REC-SVG-20010904/DTD/svg10.dtd">
<svg version="1.0" xmlns="http://www.w3.org/2000/svg"
 width="348.000000pt" height="307.000000pt" viewBox="0 0 348.000000 307.000000"
 preserveAspectRatio="xMidYMid meet">
<metadata>
Created by potrace 1.16, written by Peter Selinger 2001-2019
</metadata>
<g transform="translate(0.000000,307.000000) scale(0.100000,-0.100000)"
fill="#000000" stroke="none">
<path d="M1828 3048 c-22 -12 -46 -38 -58 -62 -11 -23 -77 -268 -146 -546
-117 -470 -125 -508 -114 -545 16 -52 67 -102 111 -108 19 -3 88 -10 154 -16
220 -20 374 -80 486 -191 88 -88 112 -140 117 -257 4 -79 1 -105 -21 -175
-117 -373 -494 -554 -1287 -618 -69 -6 -296 -13 -505 -16 -209 -3 -394 -10
-412 -15 -60 -19 -87 -64 -123 -208 -36 -147 -35 -181 7 -232 48 -57 62 -59
405 -59 1329 1 2046 126 2514 438 222 149 375 344 455 578 127 374 43 699
-241 925 -93 74 -275 166 -415 210 -80 26 -104 37 -100 49 2 8 43 171 91 362
94 377 95 391 47 449 -50 59 -53 59 -510 59 -409 0 -419 -1 -455 -22z"/>
</g>
</svg>
