<?xml version="1.0" standalone="no"?>
<!DOCTYPE svg PUBLIC "-//W3C//DTD SVG 20010904//EN"
 "http://www.w3.org/TR/2001/REC-SVG-20010904/DTD/svg10.dtd">
<svg version="1.0" xmlns="http://www.w3.org/2000/svg"
 width="623.000000pt" height="899.000000pt" viewBox="0 0 623.000000 899.000000"
 preserveAspectRatio="xMidYMid meet">
<metadata>
Created by potrace 1.16, written by Peter Selinger 2001-2019
</metadata>
<g transform="translate(0.000000,899.000000) scale(0.100000,-0.100000)"
fill="#000000" stroke="none">
<path d="M2390 8979 c-43 -17 -80 -62 -95 -114 -45 -158 -59 -451 -30 -621 41
-232 149 -460 302 -633 259 -296 633 -474 1093 -522 136 -14 392 -7 535 16
534 83 1047 336 1429 705 257 248 447 542 551 853 50 148 54 193 24 247 -33
58 -81 80 -178 80 -142 0 -174 -26 -224 -181 -65 -198 -156 -345 -311 -507
-302 -313 -729 -520 -1236 -599 -171 -26 -503 -24 -664 6 -489 88 -822 344
-900 688 -18 79 -20 238 -6 318 24 125 24 151 0 193 -35 61 -81 82 -181 81
-46 0 -95 -5 -109 -10z"/>
<path d="M2986 6245 c-446 -64 -900 -277 -1341 -629 -131 -106 -391 -361 -518
-509 -474 -555 -814 -1220 -996 -1945 -85 -340 -119 -581 -128 -903 -7 -248 6
-436 43 -639 159 -868 649 -1436 1374 -1591 151 -33 450 -33 592 -1 316 70
639 233 938 472 58 47 177 155 264 242 88 87 160 156 161 155 0 -1 11 -36 24
-77 131 -416 448 -700 893 -797 129 -28 385 -25 498 5 316 85 571 322 775 723
144 283 251 594 395 1149 68 262 69 279 10 335 l-31 30 -172 3 c-158 2 -175 1
-205 -18 -18 -11 -39 -35 -47 -52 -8 -18 -46 -155 -85 -305 -127 -494 -219
-770 -335 -1008 -83 -169 -132 -243 -226 -337 -106 -108 -161 -133 -289 -133
-86 1 -100 4 -148 29 -57 32 -93 73 -124 143 -65 147 -64 467 3 803 12 58 248
1014 525 2126 383 1537 504 2035 504 2080 0 115 -43 218 -119 287 -233 211
-661 95 -819 -222 -23 -46 -42 -90 -42 -99 0 -8 -37 41 -82 109 -188 285 -443
473 -746 551 -102 26 -139 30 -282 34 -108 2 -199 -2 -264 -11z m404 -419
c262 -72 484 -316 610 -671 41 -118 85 -297 105 -433 l16 -109 -364 -1455
-364 -1456 -68 -103 c-455 -697 -989 -1129 -1459 -1181 -314 -35 -545 97 -691
397 -54 111 -78 181 -104 310 -67 320 -47 705 64 1260 47 233 253 1071 330
1340 225 785 494 1306 875 1685 141 142 260 235 394 309 95 52 235 104 327
120 72 13 261 5 329 -13z"/>
</g>
</svg>
