<?xml version="1.0" standalone="no"?>
<!DOCTYPE svg PUBLIC "-//W3C//DTD SVG 20010904//EN"
 "http://www.w3.org/TR/2001/REC-SVG-20010904/DTD/svg10.dtd">
<svg version="1.0" xmlns="http://www.w3.org/2000/svg"
 width="1057.000000pt" height="907.000000pt" viewBox="0 0 1057.000000 907.000000"
 preserveAspectRatio="xMidYMid meet">
<metadata>
Created by potrace 1.16, written by Peter Selinger 2001-2019
</metadata>
<g transform="translate(0.000000,907.000000) scale(0.100000,-0.100000)"
fill="#000000" stroke="none">
<path d="M2281 9053 c-51 -27 -70 -59 -98 -169 -28 -110 -26 -157 6 -202 39
-55 69 -62 278 -62 350 0 650 -27 760 -68 63 -23 78 -61 69 -176 -8 -96 -1850
-7475 -1896 -7594 -58 -151 -128 -225 -246 -262 -139 -43 -449 -70 -802 -70
-211 0 -228 -4 -274 -59 -17 -19 -34 -65 -52 -136 -30 -122 -26 -162 21 -207
53 -49 56 -49 305 -38 128 5 505 15 838 21 622 12 1419 3 2036 -22 359 -15
359 -15 409 181 30 117 28 153 -12 200 -47 56 -64 60 -275 60 -343 0 -620 24
-738 63 -85 29 -93 43 -86 167 4 83 62 325 468 1950 l464 1855 1816 3 1816 2
-458 -1827 c-251 -1006 -469 -1857 -484 -1893 -59 -143 -128 -214 -242 -250
-139 -43 -449 -70 -802 -70 -211 0 -228 -4 -274 -59 -17 -19 -34 -65 -52 -136
-30 -122 -26 -162 21 -207 53 -49 56 -49 305 -38 128 5 505 15 838 21 622 12
1419 3 2036 -22 359 -15 359 -15 409 181 30 117 28 153 -12 200 -47 56 -64 60
-275 60 -343 0 -620 24 -738 63 -85 29 -93 43 -86 167 4 84 111 520 936 3820
512 2048 943 3754 957 3790 107 268 233 312 943 327 322 6 333 8 378 56 27 28
71 187 72 253 0 52 -33 103 -82 127 -33 16 -53 17 -264 8 -126 -6 -501 -16
-834 -22 -624 -12 -1417 -3 -2032 22 -263 11 -278 11 -314 -7 -54 -27 -72 -57
-101 -170 -28 -110 -26 -157 6 -202 39 -55 69 -62 278 -62 350 0 650 -27 760
-68 63 -23 78 -61 69 -176 -5 -54 -135 -594 -417 -1720 -225 -902 -414 -1658
-420 -1678 l-10 -38 -1815 0 c-1724 0 -1815 1 -1810 18 3 9 188 748 411 1642
223 893 418 1654 432 1690 107 268 233 312 943 327 322 6 333 8 378 56 27 28
71 187 72 253 0 52 -33 103 -82 127 -33 16 -53 17 -269 7 -861 -37 -1914 -35
-2989 6 -138 5 -159 3 -189 -13z"/>
</g>
</svg>
