<?xml version="1.0" standalone="no"?>
<!DOCTYPE svg PUBLIC "-//W3C//DTD SVG 20010904//EN"
 "http://www.w3.org/TR/2001/REC-SVG-20010904/DTD/svg10.dtd">
<svg version="1.0" xmlns="http://www.w3.org/2000/svg"
 width="850.000000pt" height="1195.000000pt" viewBox="0 0 850.000000 1195.000000"
 preserveAspectRatio="xMidYMid meet">
<metadata>
Created by potrace 1.16, written by Peter Selinger 2001-2019
</metadata>
<g transform="translate(0.000000,1195.000000) scale(0.100000,-0.100000)"
fill="#000000" stroke="none">
<path d="M5175 11940 c-968 -89 -1964 -551 -2837 -1317 -897 -787 -1610 -1853
-1998 -2988 -569 -1664 -418 -3240 411 -4286 98 -124 311 -338 429 -433 217
-173 546 -361 791 -450 642 -235 1375 -246 2122 -32 l149 43 -6 -31 c-10 -55
-75 -566 -93 -726 -22 -198 -25 -735 -5 -850 69 -388 233 -636 507 -766 248
-118 595 -136 903 -48 115 33 325 136 436 215 115 81 315 275 419 404 328 407
602 993 798 1703 37 132 50 196 46 223 -13 101 -120 157 -213 113 -48 -23 -67
-55 -97 -159 -37 -130 -118 -315 -191 -437 -264 -439 -653 -737 -1065 -814
-130 -25 -339 -15 -447 20 -323 104 -471 417 -524 1101 -5 77 -12 159 -15 182
l-4 42 72 32 c137 62 382 192 532 281 1210 727 2214 1935 2752 3312 403 1032
535 2124 367 3036 -174 946 -631 1692 -1319 2155 -369 248 -765 396 -1235 460
-138 19 -543 28 -685 15z m383 -381 c330 -36 604 -143 867 -340 107 -79 288
-262 369 -372 297 -402 468 -921 517 -1567 14 -192 6 -653 -16 -870 -93 -924
-394 -2055 -771 -2898 -427 -954 -1047 -1750 -1760 -2262 l-99 -71 -7 38 c-4
21 -14 99 -23 173 -75 623 -297 980 -697 1116 -180 61 -431 69 -622 20 -123
-32 -293 -114 -408 -196 -105 -75 -293 -266 -364 -370 -121 -176 -215 -401
-249 -594 -21 -124 -19 -299 5 -416 10 -52 18 -95 16 -97 -1 -1 -44 22 -94 51
-237 140 -432 329 -597 576 -251 376 -399 846 -446 1415 -15 185 -6 731 15
925 98 885 366 1906 717 2735 82 196 286 603 390 780 171 293 384 597 600 856
134 161 441 469 594 595 688 569 1421 844 2063 773z m-1735 -7368 c223 -58
351 -181 425 -408 44 -132 57 -261 56 -533 0 -170 -4 -262 -12 -276 -21 -39
-337 -169 -557 -229 -229 -63 -353 -79 -600 -80 l-220 0 -54 30 c-301 167
-321 649 -44 1069 64 96 221 252 315 314 88 57 204 108 292 128 86 20 296 12
399 -15z"/>
</g>
</svg>
