<?xml version="1.0" standalone="no"?>
<!DOCTYPE svg PUBLIC "-//W3C//DTD SVG 20010904//EN"
 "http://www.w3.org/TR/2001/REC-SVG-20010904/DTD/svg10.dtd">
<svg version="1.0" xmlns="http://www.w3.org/2000/svg"
 width="656.000000pt" height="954.000000pt" viewBox="0 0 656.000000 954.000000"
 preserveAspectRatio="xMidYMid meet">
<metadata>
Created by potrace 1.16, written by Peter Selinger 2001-2019
</metadata>
<g transform="translate(0.000000,954.000000) scale(0.100000,-0.100000)"
fill="#000000" stroke="none">
<path d="M4205 9534 c-395 -45 -716 -153 -1053 -352 -381 -226 -752 -568
-1060 -973 -412 -545 -739 -1229 -902 -1889 -61 -251 -75 -443 -45 -640 71
-475 369 -738 810 -717 335 16 655 175 940 468 204 210 341 409 490 714 136
276 246 588 289 824 20 107 21 312 1 427 -33 188 -161 498 -226 547 -44 32
-101 33 -151 4 -67 -41 -230 -179 -255 -216 -33 -48 -29 -80 22 -181 122 -244
139 -420 65 -695 -149 -560 -438 -1040 -751 -1247 -143 -95 -255 -132 -404
-133 -109 0 -142 15 -182 82 -93 159 -63 503 85 973 346 1098 989 1971 1707
2320 254 124 455 173 720 174 107 1 192 -4 230 -12 220 -48 384 -139 530 -293
154 -164 247 -363 297 -639 30 -165 30 -518 -1 -744 -45 -332 -187 -960 -272
-1201 -316 -901 -1111 -1743 -2326 -2463 -668 -397 -1168 -811 -1620 -1341
-519 -609 -915 -1338 -1109 -2040 -39 -144 -42 -183 -14 -229 34 -56 65 -62
292 -62 184 0 206 2 235 20 42 25 58 52 78 130 47 189 140 432 216 561 81 139
196 257 288 296 137 58 451 17 709 -92 156 -65 313 -158 647 -380 422 -280
574 -364 813 -445 205 -69 298 -84 527 -84 171 0 215 3 305 22 581 126 1089
540 1503 1225 202 334 393 787 502 1189 30 111 34 135 25 168 -11 40 -56 86
-94 96 -12 3 -115 4 -228 2 -269 -4 -256 5 -323 -222 -61 -205 -189 -455 -333
-650 -94 -127 -309 -341 -427 -424 -112 -79 -282 -163 -397 -196 -136 -39
-242 -50 -427 -42 -315 12 -619 57 -1186 176 -687 145 -856 170 -1342 198
l-121 7 103 138 c320 425 695 801 1110 1110 239 179 338 241 950 597 1079 628
1679 1060 2170 1561 206 210 317 344 450 544 290 433 432 875 476 1476 49 680
-140 1341 -518 1809 -78 97 -247 260 -344 332 -306 229 -671 368 -1068 408
-95 9 -336 12 -406 4z"/>
</g>
</svg>
