<?xml version="1.0" standalone="no"?>
<!DOCTYPE svg PUBLIC "-//W3C//DTD SVG 20010904//EN"
 "http://www.w3.org/TR/2001/REC-SVG-20010904/DTD/svg10.dtd">
<svg version="1.0" xmlns="http://www.w3.org/2000/svg"
 width="646.000000pt" height="954.000000pt" viewBox="0 0 646.000000 954.000000"
 preserveAspectRatio="xMidYMid meet">
<metadata>
Created by potrace 1.16, written by Peter Selinger 2001-2019
</metadata>
<g transform="translate(0.000000,954.000000) scale(0.100000,-0.100000)"
fill="#000000" stroke="none">
<path d="M4270 9533 c-108 -8 -285 -36 -410 -65 -486 -110 -956 -336 -1355
-652 -120 -95 -339 -307 -442 -428 -273 -321 -472 -700 -567 -1083 -38 -152
-49 -262 -43 -425 14 -394 192 -684 494 -805 222 -89 505 -67 771 60 200 96
369 233 498 404 270 360 318 776 134 1166 -61 128 -135 234 -175 251 -74 31
-108 16 -270 -117 -147 -121 -162 -161 -99 -265 20 -32 45 -72 55 -89 33 -54
70 -166 79 -239 23 -186 -45 -363 -200 -516 -133 -132 -263 -192 -421 -194
-89 -1 -98 1 -138 27 -92 61 -134 230 -111 451 53 529 371 1066 865 1461 351
281 763 466 1180 530 619 95 1074 -102 1250 -540 90 -226 96 -544 20 -961 -36
-193 -139 -594 -200 -779 -230 -694 -599 -1130 -1142 -1344 -261 -104 -396
-121 -939 -121 -389 0 -417 -1 -452 -19 -21 -11 -45 -34 -55 -53 -18 -35 -107
-383 -107 -419 0 -33 29 -86 58 -106 25 -16 65 -18 477 -24 419 -5 455 -7 530
-27 287 -78 495 -293 565 -584 76 -315 39 -664 -151 -1422 -171 -681 -326
-1044 -579 -1360 -281 -349 -706 -609 -1135 -695 -431 -86 -809 -30 -1100 164
-284 189 -465 498 -518 887 l-5 36 66 11 c384 65 655 356 697 746 15 146 -48
320 -150 414 -111 101 -252 146 -430 138 -296 -14 -546 -180 -685 -457 -43
-86 -95 -294 -114 -461 -126 -1077 539 -1916 1599 -2020 146 -14 442 -7 610
16 570 76 1119 284 1605 608 708 472 1221 1157 1400 1866 151 599 109 1153
-124 1626 -142 288 -349 530 -590 690 -41 28 -76 52 -76 55 0 4 48 28 107 55
214 99 489 271 693 434 117 94 356 325 460 446 180 210 318 419 451 680 134
265 222 531 270 810 26 155 36 424 20 576 -41 393 -195 756 -444 1040 -297
340 -766 567 -1276 619 -96 9 -346 11 -451 3z"/>
</g>
</svg>
