<?xml version="1.0" standalone="no"?>
<!DOCTYPE svg PUBLIC "-//W3C//DTD SVG 20010904//EN"
 "http://www.w3.org/TR/2001/REC-SVG-20010904/DTD/svg10.dtd">
<svg version="1.0" xmlns="http://www.w3.org/2000/svg"
 width="1107.000000pt" height="1233.000000pt" viewBox="0 0 1107.000000 1233.000000"
 preserveAspectRatio="xMidYMid meet">
<metadata>
Created by potrace 1.16, written by Peter Selinger 2001-2019
</metadata>
<g transform="translate(0.000000,1233.000000) scale(0.100000,-0.100000)"
fill="#000000" stroke="none">
<path d="M6285 12324 c-305 -45 -585 -170 -890 -399 -156 -117 -262 -210 -487
-426 -221 -212 -239 -240 -218 -319 21 -79 138 -180 209 -180 51 0 82 18 175
103 212 193 344 294 521 400 199 119 392 184 580 194 261 13 472 -63 930 -337
455 -272 688 -354 1000 -355 247 0 422 46 684 180 259 134 504 324 843 654
219 214 232 233 209 312 -15 50 -101 145 -148 165 -43 18 -87 18 -125 -2 -17
-9 -85 -65 -152 -126 -462 -419 -862 -598 -1231 -549 -195 26 -383 108 -740
321 -461 274 -686 358 -985 365 -80 2 -158 1 -175 -1z"/>
<path d="M2369 9429 c-49 -29 -67 -64 -100 -193 -35 -135 -36 -187 -8 -233 41
-66 70 -73 321 -73 414 0 899 -37 898 -68 -2 -37 -1904 -7605 -1925 -7657 -91
-228 -264 -414 -490 -528 -195 -97 -496 -157 -798 -157 -103 0 -153 -20 -185
-72 -11 -18 -34 -94 -53 -169 l-33 -136 25 -49 c13 -26 37 -57 52 -68 33 -24
62 -24 492 -6 647 27 1533 22 2240 -11 236 -12 241 -12 282 9 57 29 75 66 114
223 l33 136 -25 49 c-41 82 -55 87 -247 96 -385 17 -577 73 -713 208 -50 49
-71 79 -88 125 -29 78 -40 179 -30 282 6 51 333 1378 900 3647 490 1962 893
3565 895 3564 1 -2 671 -1848 1489 -4103 817 -2255 1497 -4123 1510 -4151 18
-36 36 -56 65 -73 38 -21 49 -22 209 -19 184 3 198 7 243 69 10 15 407 1584
1027 4064 607 2426 1022 4070 1040 4114 92 226 263 411 481 521 194 98 506
160 805 160 156 0 185 28 235 229 37 149 35 183 -11 236 -46 52 -71 57 -269
46 -96 -6 -417 -16 -712 -23 -557 -12 -1263 -3 -1792 23 -228 12 -230 12 -271
-10 -54 -29 -72 -62 -106 -195 -35 -135 -36 -187 -8 -233 36 -59 73 -69 260
-76 299 -12 502 -62 639 -158 127 -89 174 -194 174 -384 l0 -110 -759 -3037
c-418 -1671 -763 -3034 -767 -3030 -3 4 -590 1616 -1303 3582 -713 1966 -1303
3585 -1311 3597 -8 13 -32 32 -54 43 -39 20 -56 20 -1187 20 -1146 0 -1148 -1
-1184 -21z"/>
</g>
</svg>
