<?xml version="1.0" standalone="no"?>
<!DOCTYPE svg PUBLIC "-//W3C//DTD SVG 20010904//EN"
 "http://www.w3.org/TR/2001/REC-SVG-20010904/DTD/svg10.dtd">
<svg version="1.0" xmlns="http://www.w3.org/2000/svg"
 width="954.000000pt" height="1233.000000pt" viewBox="0 0 954.000000 1233.000000"
 preserveAspectRatio="xMidYMid meet">
<metadata>
Created by potrace 1.16, written by Peter Selinger 2001-2019
</metadata>
<g transform="translate(0.000000,1233.000000) scale(0.100000,-0.100000)"
fill="#000000" stroke="none">
<path d="M5690 12315 c-197 -40 -377 -135 -531 -282 -137 -131 -224 -264 -278
-427 -70 -213 -62 -394 25 -575 141 -290 475 -423 834 -331 303 77 602 333
720 617 73 174 94 369 57 513 -80 308 -343 503 -674 499 -48 0 -117 -7 -153
-14z"/>
<path d="M8205 12323 c-147 -21 -340 -103 -470 -200 -267 -200 -425 -487 -428
-778 -1 -132 16 -205 74 -324 32 -64 60 -103 114 -157 215 -215 565 -254 891
-100 119 56 199 112 295 203 137 131 224 264 278 427 70 213 62 394 -25 575
-110 226 -346 364 -616 360 -46 -1 -96 -4 -113 -6z"/>
<path d="M2359 9388 c-20 -11 -46 -37 -57 -57 -32 -58 -104 -373 -96 -417 8
-46 55 -100 97 -113 18 -5 181 -12 362 -15 446 -8 674 -32 719 -76 49 -48 97
156 -929 -3952 -665 -2660 -966 -3852 -986 -3894 -34 -73 -95 -139 -152 -164
-105 -47 -332 -69 -772 -76 -181 -3 -344 -10 -362 -15 -66 -21 -86 -60 -137
-265 -50 -205 -50 -230 -4 -289 46 -59 -226 -55 3683 -55 3882 0 3632 -3 3682
51 32 35 1423 3512 1423 3556 0 49 -35 107 -80 132 -35 19 -53 21 -224 21
-200 0 -232 -6 -272 -51 -12 -13 -76 -157 -142 -319 -66 -162 -156 -378 -200
-480 -432 -999 -802 -1539 -1257 -1833 -343 -221 -743 -355 -1245 -416 -276
-33 -379 -36 -1455 -36 -929 0 -1087 3 -1130 15 l-50 15 2 60 c1 41 147 642
468 1925 256 1026 470 1882 476 1903 l10 39 697 -5 c755 -5 823 -9 1008 -63
117 -33 193 -75 252 -138 144 -152 143 -449 -4 -1059 -51 -207 -51 -235 -7
-288 45 -53 72 -59 279 -59 172 0 189 2 225 22 23 13 46 37 59 62 26 53 900
3553 900 3607 0 54 -31 104 -81 129 -34 18 -59 20 -226 20 -263 0 -278 -10
-327 -207 -146 -586 -280 -890 -481 -1088 -190 -187 -438 -274 -865 -305 -194
-13 -1270 -13 -1270 0 0 29 842 3374 860 3416 29 68 75 112 133 129 113 33
247 37 1302 32 1087 -4 1171 -7 1430 -52 534 -92 836 -319 940 -706 50 -186
60 -290 59 -604 0 -314 -9 -437 -69 -915 l-35 -274 23 -45 c41 -82 50 -86 277
-89 183 -3 202 -2 238 17 80 41 62 -62 282 1589 110 826 200 1522 200 1548 0
59 -29 108 -81 134 -38 20 -76 20 -3546 20 l-3508 0 -36 -22z"/>
</g>
</svg>
