<?xml version="1.0" standalone="no"?>
<!DOCTYPE svg PUBLIC "-//W3C//DTD SVG 20010904//EN"
 "http://www.w3.org/TR/2001/REC-SVG-20010904/DTD/svg10.dtd">
<svg version="1.0" xmlns="http://www.w3.org/2000/svg"
 width="617.000000pt" height="954.000000pt" viewBox="0 0 617.000000 954.000000"
 preserveAspectRatio="xMidYMid meet">
<metadata>
Created by potrace 1.16, written by Peter Selinger 2001-2019
</metadata>
<g transform="translate(0.000000,954.000000) scale(0.100000,-0.100000)"
fill="#000000" stroke="none">
<path d="M4040 9529 c-318 -34 -658 -137 -966 -292 -339 -171 -601 -362 -884
-646 -521 -522 -996 -1316 -1340 -2241 -167 -450 -307 -916 -474 -1575 -197
-783 -305 -1356 -358 -1895 -21 -213 -18 -858 5 -1035 99 -766 337 -1224 801
-1538 602 -406 1468 -407 2277 -2 582 292 1034 719 1482 1400 480 730 825
1589 1151 2866 327 1276 446 2079 416 2785 -23 523 -117 944 -281 1264 -247
478 -687 792 -1249 891 -133 24 -443 33 -580 18z m305 -414 c428 -69 730 -382
840 -870 22 -97 31 -436 16 -607 -48 -541 -187 -1222 -521 -2567 -458 -1842
-717 -2706 -991 -3301 -287 -626 -763 -1105 -1275 -1283 -167 -58 -249 -72
-429 -71 -171 1 -242 14 -375 68 -305 123 -529 430 -612 838 -33 161 -32 528
1 798 76 624 235 1368 616 2890 531 2117 796 2862 1193 3360 427 535 1031 828
1537 745z"/>
</g>
</svg>
