<?xml version="1.0" standalone="no"?>
<!DOCTYPE svg PUBLIC "-//W3C//DTD SVG 20010904//EN"
 "http://www.w3.org/TR/2001/REC-SVG-20010904/DTD/svg10.dtd">
<svg version="1.0" xmlns="http://www.w3.org/2000/svg"
 width="494.000000pt" height="992.000000pt" viewBox="0 0 494.000000 992.000000"
 preserveAspectRatio="xMidYMid meet">
<metadata>
Created by potrace 1.16, written by Peter Selinger 2001-2019
</metadata>
<g transform="translate(0.000000,992.000000) scale(0.100000,-0.100000)"
fill="#000000" stroke="none">
<path d="M3880 9901 c-194 -43 -385 -148 -534 -295 -122 -120 -235 -311 -278
-471 -28 -106 -31 -290 -5 -385 50 -186 170 -334 337 -415 153 -73 307 -92
480 -59 383 72 704 358 825 734 36 111 46 299 21 402 -55 235 -213 402 -451
478 -100 32 -279 37 -395 11z"/>
<path d="M3225 7184 c-381 -57 -687 -201 -981 -462 -223 -197 -418 -493 -503
-765 -36 -114 -39 -160 -11 -205 34 -55 65 -62 290 -62 268 0 267 0 325 175
147 449 559 805 939 809 l88 1 33 -38 c54 -62 70 -130 70 -297 -1 -117 -5
-163 -24 -240 -52 -210 -139 -383 -256 -506 -49 -51 -360 -295 -1035 -811
-531 -405 -1003 -769 -1050 -809 -111 -94 -347 -336 -434 -444 -86 -108 -238
-336 -307 -460 -314 -570 -433 -1209 -324 -1744 47 -233 144 -467 267 -648 78
-115 235 -279 348 -364 152 -113 364 -212 570 -264 437 -111 978 -36 1467 204
336 165 572 336 872 630 383 377 671 782 935 1316 194 392 381 920 417 1177
17 125 -12 256 -81 364 -109 169 -362 254 -608 203 -308 -63 -545 -288 -627
-597 -60 -221 -17 -415 119 -546 75 -71 142 -106 257 -135 l86 -21 -52 -122
c-369 -856 -938 -1531 -1538 -1826 -438 -215 -911 -245 -1242 -80 -440 220
-632 738 -499 1342 102 460 376 887 774 1205 63 51 527 407 1030 792 502 384
954 737 1002 783 358 340 601 879 625 1386 24 516 -200 914 -582 1035 -54 17
-100 23 -200 25 -71 2 -143 1 -160 -1z"/>
</g>
</svg>
