<?xml version="1.0" standalone="no"?>
<!DOCTYPE svg PUBLIC "-//W3C//DTD SVG 20010904//EN"
 "http://www.w3.org/TR/2001/REC-SVG-20010904/DTD/svg10.dtd">
<svg version="1.0" xmlns="http://www.w3.org/2000/svg"
 width="634.000000pt" height="937.000000pt" viewBox="0 0 634.000000 937.000000"
 preserveAspectRatio="xMidYMid meet">
<metadata>
Created by potrace 1.16, written by Peter Selinger 2001-2019
</metadata>
<g transform="translate(0.000000,937.000000) scale(0.100000,-0.100000)"
fill="#000000" stroke="none">
<path d="M4990 9294 c-465 -41 -855 -76 -868 -79 -13 -3 -39 -20 -58 -38 -30
-27 -39 -47 -59 -127 -31 -121 -32 -167 -2 -211 40 -60 71 -69 252 -69 293 0
534 -27 633 -70 31 -14 47 -29 57 -54 34 -82 16 -199 -113 -711 l-78 -310
-670 -5 c-637 -5 -670 -6 -697 -24 -37 -25 -60 -72 -87 -183 -25 -103 -22
-138 17 -184 52 -61 24 -59 703 -59 587 0 621 -1 616 -17 -3 -10 -105 -416
-226 -903 -122 -487 -226 -902 -231 -924 l-10 -38 -44 76 c-211 370 -517 591
-896 647 -120 17 -343 6 -499 -26 -642 -132 -1292 -589 -1808 -1273 -481 -637
-800 -1432 -898 -2242 -24 -198 -25 -603 0 -785 118 -896 599 -1504 1309
-1657 152 -32 430 -32 575 0 399 89 766 313 1154 704 l167 168 11 -43 c106
-419 390 -712 796 -819 111 -29 130 -31 294 -32 163 0 181 2 265 28 233 71
417 219 582 466 186 280 326 658 508 1375 l49 190 -20 40 c-34 69 -58 80 -198
83 -137 4 -182 -7 -211 -52 -9 -14 -48 -146 -86 -293 -203 -784 -352 -1144
-559 -1354 -99 -100 -164 -136 -261 -145 -326 -31 -435 271 -328 908 15 87
1349 5464 1460 5881 l10 37 317 0 c282 0 321 2 352 18 49 24 74 68 100 172 34
137 18 199 -60 241 -31 17 -61 19 -316 19 l-282 0 200 797 c145 580 198 807
193 830 -7 38 -46 88 -86 108 -15 8 -50 14 -76 14 -26 -1 -428 -35 -893 -75z
m-1796 -3628 c283 -55 501 -275 639 -646 44 -118 91 -310 112 -456 l16 -110
-354 -1417 -355 -1417 -106 -160 c-457 -685 -980 -1089 -1446 -1116 -375 -22
-636 246 -731 750 -16 83 -23 166 -26 328 -10 409 38 711 247 1548 116 466
192 736 264 945 202 590 443 1003 781 1340 334 334 651 469 959 411z"/>
</g>
</svg>
