<?xml version="1.0" standalone="no"?>
<!DOCTYPE svg PUBLIC "-//W3C//DTD SVG 20010904//EN"
 "http://www.w3.org/TR/2001/REC-SVG-20010904/DTD/svg10.dtd">
<svg version="1.0" xmlns="http://www.w3.org/2000/svg"
 width="488.000000pt" height="1328.000000pt" viewBox="0 0 488.000000 1328.000000"
 preserveAspectRatio="xMidYMid meet">
<metadata>
Created by potrace 1.16, written by Peter Selinger 2001-2019
</metadata>
<g transform="translate(0.000000,1328.000000) scale(0.100000,-0.100000)"
fill="#000000" stroke="none">
<path d="M4578 13251 c-147 -93 -522 -389 -783 -617 -219 -190 -649 -621 -839
-839 -1230 -1409 -2095 -3125 -2601 -5165 -171 -688 -273 -1300 -332 -1980
-22 -260 -26 -1162 -5 -1385 101 -1091 371 -1933 857 -2670 161 -244 410 -551
471 -580 19 -9 60 -15 102 -15 110 0 167 50 159 140 -3 36 -18 66 -72 144
-336 488 -578 1081 -710 1733 -250 1243 -149 2739 311 4583 525 2108 1302
3786 2371 5118 345 429 776 874 1186 1224 181 154 201 188 159 267 -27 50 -73
71 -157 71 -61 0 -77 -4 -117 -29z"/>
</g>
</svg>
