<?xml version="1.0" standalone="no"?>
<!DOCTYPE svg PUBLIC "-//W3C//DTD SVG 20010904//EN"
 "http://www.w3.org/TR/2001/REC-SVG-20010904/DTD/svg10.dtd">
<svg version="1.0" xmlns="http://www.w3.org/2000/svg"
 width="552.000000pt" height="642.000000pt" viewBox="0 0 552.000000 642.000000"
 preserveAspectRatio="xMidYMid meet">
<metadata>
Created by potrace 1.16, written by Peter Selinger 2001-2019
</metadata>
<g transform="translate(0.000000,642.000000) scale(0.100000,-0.100000)"
fill="#000000" stroke="none">
<path d="M3243 6403 c-21 -12 -72 -75 -145 -178 -376 -530 -741 -961 -1227
-1445 -525 -523 -1020 -929 -1646 -1352 -223 -151 -247 -180 -215 -264 6 -15
84 -102 173 -193 623 -636 1062 -1402 1322 -2307 43 -152 125 -504 125 -541 0
-33 36 -86 71 -105 46 -25 134 -24 176 2 56 34 67 69 59 190 -36 558 -216
1325 -448 1909 -94 239 -302 656 -437 880 -61 101 -111 185 -111 187 0 1 82
75 183 165 217 194 701 675 883 879 500 557 904 1092 1276 1690 153 247 198
330 198 369 0 44 -25 88 -63 111 -41 26 -130 27 -174 3z"/>
<path d="M5273 6403 c-21 -12 -72 -75 -145 -178 -376 -530 -741 -961 -1227
-1445 -525 -523 -1020 -929 -1646 -1352 -223 -151 -247 -180 -215 -264 6 -15
84 -102 173 -193 623 -636 1062 -1402 1322 -2307 43 -152 125 -504 125 -541 0
-33 36 -86 71 -105 46 -25 134 -24 176 2 56 34 67 69 59 190 -36 558 -216
1325 -448 1909 -94 239 -302 656 -437 880 -61 101 -111 185 -111 187 0 1 82
75 183 165 217 194 701 675 883 879 500 557 904 1092 1276 1690 153 247 198
330 198 369 0 44 -25 88 -63 111 -41 26 -130 27 -174 3z"/>
</g>
</svg>
