<?xml version="1.0" standalone="no"?>
<!DOCTYPE svg PUBLIC "-//W3C//DTD SVG 20010904//EN"
 "http://www.w3.org/TR/2001/REC-SVG-20010904/DTD/svg10.dtd">
<svg version="1.0" xmlns="http://www.w3.org/2000/svg"
 width="829.000000pt" height="1384.000000pt" viewBox="0 0 829.000000 1384.000000"
 preserveAspectRatio="xMidYMid meet">
<metadata>
Created by potrace 1.16, written by Peter Selinger 2001-2019
</metadata>
<g transform="translate(0.000000,1384.000000) scale(0.100000,-0.100000)"
fill="#000000" stroke="none">
<path d="M7991 13818 c-25 -13 -57 -39 -72 -58 -20 -26 -7662 -13047 -7876
-13420 -37 -66 -43 -82 -43 -135 0 -112 74 -192 186 -202 71 -5 132 21 175 77
20 26 7662 13047 7876 13420 37 66 43 82 43 135 0 112 -74 192 -186 202 -49 4
-67 0 -103 -19z"/>
</g>
</svg>
