<?xml version="1.0" standalone="no"?>
<!DOCTYPE svg PUBLIC "-//W3C//DTD SVG 20010904//EN"
 "http://www.w3.org/TR/2001/REC-SVG-20010904/DTD/svg10.dtd">
<svg version="1.0" xmlns="http://www.w3.org/2000/svg"
 width="844.000000pt" height="952.000000pt" viewBox="0 0 844.000000 952.000000"
 preserveAspectRatio="xMidYMid meet">
<metadata>
Created by potrace 1.16, written by Peter Selinger 2001-2019
</metadata>
<g transform="translate(0.000000,952.000000) scale(0.100000,-0.100000)"
fill="#000000" stroke="none">
<path d="M6385 9507 c-53 -21 -89 -44 -121 -79 -18 -18 -1052 -1835 -2299
-4038 -1247 -2203 -2277 -4016 -2290 -4030 -12 -14 -44 -61 -71 -105 -311
-509 -748 -773 -1324 -801 -192 -10 -212 -25 -255 -194 -30 -117 -28 -153 12
-200 48 -58 65 -61 235 -50 84 5 331 15 548 21 409 12 1050 3 1545 -22 246
-13 260 -11 310 41 19 20 33 55 51 121 29 114 30 164 4 206 -33 54 -61 65
-183 75 -208 16 -359 70 -452 164 -88 88 -124 202 -105 335 10 68 49 185 75
225 8 12 17 35 22 51 4 16 230 421 502 901 l494 872 1499 0 c824 0 1498 -1
1499 -2 0 -2 34 -493 74 -1093 l73 -1089 -21 -56 c-30 -82 -110 -157 -212
-200 -181 -75 -315 -98 -610 -107 -221 -6 -240 -10 -284 -57 -28 -30 -71 -178
-71 -247 0 -57 31 -107 82 -132 33 -16 53 -17 264 -8 126 6 502 16 835 22 620
12 1275 4 1820 -22 225 -11 239 -11 275 7 21 11 46 31 56 45 21 27 67 196 68
242 0 42 -28 94 -64 120 -29 21 -44 22 -291 29 -354 9 -536 33 -607 81 -42 29
-75 78 -93 142 -11 36 -100 1328 -303 4392 -264 3968 -290 4343 -308 4374 -11
20 -38 43 -64 57 -39 19 -59 22 -165 21 -66 0 -133 -6 -150 -12z m-469 -3980
c75 -1137 135 -2070 132 -2072 -3 -3 -613 -4 -1356 -3 l-1351 3 1212 2140
1212 2140 7 -70 c4 -39 69 -1000 144 -2138z"/>
</g>
</svg>
