<?xml version="1.0" standalone="no"?>
<!DOCTYPE svg PUBLIC "-//W3C//DTD SVG 20010904//EN"
 "http://www.w3.org/TR/2001/REC-SVG-20010904/DTD/svg10.dtd">
<svg version="1.0" xmlns="http://www.w3.org/2000/svg"
 width="509.000000pt" height="217.000000pt" viewBox="0 0 509.000000 217.000000"
 preserveAspectRatio="xMidYMid meet">
<metadata>
Created by potrace 1.16, written by Peter Selinger 2001-2019
</metadata>
<g transform="translate(0.000000,217.000000) scale(0.100000,-0.100000)"
fill="#000000" stroke="none">
<path d="M84 2152 c-42 -27 -72 -67 -79 -106 -3 -17 39 -459 93 -982 107
-1027 101 -990 165 -1038 l28 -21 1772 -3 c1265 -2 1780 1 1799 9 14 6 35 21
47 33 12 12 280 452 596 976 540 896 575 957 575 1001 0 56 -31 107 -80 131
-45 23 -236 26 -278 4 -42 -22 -63 -49 -167 -221 -284 -467 -494 -735 -667
-851 -121 -81 -282 -143 -468 -180 -76 -16 -195 -18 -1125 -21 -712 -3 -1074
-1 -1147 7 -237 24 -428 111 -502 229 -77 122 -130 351 -176 761 -22 196 -32
225 -83 264 -25 18 -45 21 -150 24 -106 2 -126 0 -153 -16z"/>
</g>
</svg>
