<?xml version="1.0" standalone="no"?>
<!DOCTYPE svg PUBLIC "-//W3C//DTD SVG 20010904//EN"
 "http://www.w3.org/TR/2001/REC-SVG-20010904/DTD/svg10.dtd">
<svg version="1.0" xmlns="http://www.w3.org/2000/svg"
 width="633.000000pt" height="1115.000000pt" viewBox="0 0 633.000000 1115.000000"
 preserveAspectRatio="xMidYMid meet">
<metadata>
Created by potrace 1.16, written by Peter Selinger 2001-2019
</metadata>
<g transform="translate(0.000000,1115.000000) scale(0.100000,-0.100000)"
fill="#000000" stroke="none">
<path d="M4329 11130 c-20 -10 -44 -32 -54 -47 -10 -15 -48 -147 -85 -293
l-66 -265 -40 -7 c-21 -4 -82 -14 -134 -23 -493 -82 -1000 -319 -1448 -677
-162 -131 -429 -397 -558 -558 -333 -419 -560 -868 -683 -1358 -271 -1071 96
-2055 918 -2467 126 -63 216 -97 401 -151 85 -25 169 -49 186 -55 l31 -10
-499 -1997 c-274 -1098 -503 -2014 -509 -2035 l-10 -38 -47 6 c-589 77 -958
355 -1116 839 -55 166 -87 432 -78 642 l3 81 102 6 c197 11 361 89 497 234
112 120 177 258 201 426 21 152 -26 301 -126 402 -133 133 -362 179 -570 115
-131 -41 -221 -96 -320 -195 -135 -134 -177 -225 -244 -530 -56 -256 -84 -588
-70 -850 41 -796 452 -1365 1149 -1590 129 -41 301 -80 401 -91 37 -3 72 -9
77 -13 7 -4 -8 -81 -43 -221 -61 -239 -65 -286 -34 -337 37 -60 79 -73 236
-73 152 0 188 10 227 63 13 17 46 128 88 294 36 146 73 270 80 274 7 5 26 9
42 9 47 0 273 50 394 86 423 128 852 374 1219 697 730 643 1211 1550 1318
2487 24 203 17 594 -14 763 -125 700 -458 1178 -1006 1449 -104 51 -294 119
-488 173 -45 13 -57 20 -53 33 3 9 211 840 462 1845 l457 1828 46 -6 c245 -33
420 -83 583 -167 276 -141 466 -361 562 -648 44 -134 76 -338 76 -490 l0 -70
-79 0 c-96 0 -224 -35 -326 -88 -92 -49 -238 -192 -289 -283 -200 -363 -93
-713 249 -815 79 -24 236 -23 324 0 207 56 383 193 479 375 49 91 96 262 131
471 100 601 19 1099 -245 1503 -86 132 -270 317 -404 406 -234 156 -517 262
-820 306 -63 9 -125 19 -136 21 -21 4 -20 9 39 247 l61 244 -25 48 c-41 84
-57 90 -232 92 -134 3 -156 1 -188 -17z m-781 -2907 c-241 -967 -441 -1759
-443 -1761 -8 -8 -259 70 -345 108 -302 130 -537 392 -645 715 -87 262 -90
603 -9 926 74 296 226 597 445 879 85 111 280 309 393 400 238 192 551 361
812 439 75 22 187 48 215 50 14 1 -64 -321 -423 -1756z m-120 -3188 c147 -47
229 -84 332 -153 156 -103 309 -279 398 -457 128 -257 178 -614 137 -969 -106
-908 -736 -1773 -1563 -2149 -145 -66 -412 -148 -412 -126 0 7 928 3728 961
3852 5 20 16 37 23 37 7 0 63 -16 124 -35z"/>
</g>
</svg>
