<?xml version="1.0" standalone="no"?>
<!DOCTYPE svg PUBLIC "-//W3C//DTD SVG 20010904//EN"
 "http://www.w3.org/TR/2001/REC-SVG-20010904/DTD/svg10.dtd">
<svg version="1.0" xmlns="http://www.w3.org/2000/svg"
 width="846.000000pt" height="1003.000000pt" viewBox="0 0 846.000000 1003.000000"
 preserveAspectRatio="xMidYMid meet">
<metadata>
Created by potrace 1.16, written by Peter Selinger 2001-2019
</metadata>
<g transform="translate(0.000000,1003.000000) scale(0.100000,-0.100000)"
fill="#000000" stroke="none">
<path d="M6645 10019 c-312 -38 -654 -152 -960 -320 -414 -228 -817 -586
-1124 -998 -262 -353 -478 -789 -595 -1204 -24 -84 -159 -619 -302 -1189
l-259 -1038 -463 0 c-505 0 -510 -1 -547 -57 -18 -27 -115 -392 -115 -433 0
-35 34 -87 72 -110 32 -19 52 -20 466 -20 408 0 433 -1 428 -17 -3 -10 -134
-533 -291 -1163 -254 -1018 -371 -1460 -394 -1499 -6 -9 -29 -6 -95 13 -390
113 -832 113 -1216 0 -661 -195 -1127 -638 -1236 -1174 -69 -344 149 -649 548
-764 301 -87 745 -45 1164 109 134 49 436 199 562 279 141 89 347 246 461 350
51 47 95 86 97 86 2 0 133 -79 290 -176 363 -223 492 -297 678 -390 558 -277
1089 -366 1576 -262 351 74 736 267 1048 526 426 352 777 888 917 1397 30 108
31 130 7 174 -35 65 -61 71 -293 71 -198 0 -207 -1 -240 -23 -42 -28 -59 -62
-99 -197 -97 -319 -279 -622 -514 -855 -302 -299 -593 -415 -965 -385 -213 17
-366 48 -558 114 -281 95 -497 208 -1061 555 l-233 143 22 37 c121 203 234
445 309 668 31 90 154 563 321 1227 148 595 274 1098 280 1119 l10 37 642 0
c619 0 643 1 674 20 18 10 39 29 47 42 8 13 37 113 65 224 54 214 55 241 14
286 -44 49 -34 48 -678 48 -496 0 -605 2 -605 13 0 23 568 2283 617 2452 173
609 396 1023 714 1330 228 220 484 368 740 427 120 28 364 30 475 5 409 -93
667 -411 759 -935 22 -125 38 -390 30 -477 l-7 -75 -46 0 c-72 0 -208 -37
-297 -80 -250 -121 -416 -351 -457 -636 -57 -397 291 -673 718 -569 80 20 212
79 280 126 112 76 223 215 278 347 50 119 113 419 136 651 15 152 12 486 -5
634 -39 337 -151 657 -316 906 -76 115 -240 287 -347 364 -163 117 -367 205
-580 248 -114 23 -420 33 -547 18z m-4940 -8710 c143 -17 346 -64 437 -100
l28 -11 -48 -61 c-135 -174 -364 -364 -561 -465 -212 -110 -380 -155 -571
-156 -108 -1 -118 1 -162 27 -30 17 -57 44 -74 73 -24 41 -26 52 -22 127 3 69
10 94 41 157 107 220 329 380 582 419 65 10 223 6 350 -10z"/>
</g>
</svg>
