<?xml version="1.0" standalone="no"?>
<!DOCTYPE svg PUBLIC "-//W3C//DTD SVG 20010904//EN"
 "http://www.w3.org/TR/2001/REC-SVG-20010904/DTD/svg10.dtd">
<svg version="1.0" xmlns="http://www.w3.org/2000/svg"
 width="630.000000pt" height="1187.000000pt" viewBox="0 0 630.000000 1187.000000"
 preserveAspectRatio="xMidYMid meet">
<metadata>
Created by potrace 1.16, written by Peter Selinger 2001-2019
</metadata>
<g transform="translate(0.000000,1187.000000) scale(0.100000,-0.100000)"
fill="#000000" stroke="none">
<path d="M5750 11854 c-132 -34 -155 -52 -1205 -914 -555 -456 -1020 -844
-1032 -861 -17 -23 -23 -46 -23 -82 0 -44 8 -64 60 -152 33 -56 70 -111 83
-123 46 -43 115 -54 170 -26 80 41 2160 1250 2220 1291 183 123 285 324 257
507 -39 263 -280 426 -530 360z"/>
<path d="M1630 8935 c-257 -43 -523 -184 -741 -392 -304 -290 -579 -760 -764
-1303 -31 -91 -72 -223 -91 -295 -40 -148 -38 -178 16 -230 l31 -30 172 -3
c242 -4 239 -6 302 233 132 506 330 959 533 1220 159 206 328 332 512 382 88
23 263 24 305 1 86 -47 116 -115 122 -284 6 -138 -6 -246 -47 -424 -38 -169
-74 -276 -277 -835 -502 -1379 -677 -2022 -713 -2614 -33 -555 108 -1004 402
-1276 235 -217 576 -349 998 -386 275 -24 528 2 759 77 192 62 444 201 594
327 36 30 48 36 44 22 -3 -11 -31 -121 -62 -243 -203 -808 -550 -1487 -989
-1941 -390 -402 -838 -583 -1278 -516 -118 18 -198 44 -303 98 -102 53 -233
180 -295 285 -23 40 -41 74 -39 76 2 2 44 14 94 25 287 68 497 277 565 561 46
197 12 355 -103 477 -232 245 -701 185 -950 -122 -187 -231 -245 -657 -135
-995 102 -316 353 -575 690 -714 583 -241 1385 -101 2088 363 709 469 1304
1271 1564 2111 19 63 353 1385 741 2937 530 2123 705 2837 705 2880 0 114 -44
218 -119 286 -183 165 -504 134 -707 -68 -134 -134 -85 36 -689 -2385 -315
-1261 -544 -2161 -557 -2185 -12 -22 -54 -89 -93 -150 -317 -482 -687 -746
-1118 -796 -357 -41 -633 83 -764 346 -35 69 -54 132 -80 260 -28 141 -25 528
5 735 91 613 273 1238 707 2431 97 266 187 528 200 581 101 415 27 822 -200
1105 -230 287 -644 434 -1035 368z"/>
</g>
</svg>
