<?xml version="1.0" standalone="no"?>
<!DOCTYPE svg PUBLIC "-//W3C//DTD SVG 20010904//EN"
 "http://www.w3.org/TR/2001/REC-SVG-20010904/DTD/svg10.dtd">
<svg version="1.0" xmlns="http://www.w3.org/2000/svg"
 width="878.000000pt" height="1213.000000pt" viewBox="0 0 878.000000 1213.000000"
 preserveAspectRatio="xMidYMid meet">
<metadata>
Created by potrace 1.16, written by Peter Selinger 2001-2019
</metadata>
<g transform="translate(0.000000,1213.000000) scale(0.100000,-0.100000)"
fill="#000000" stroke="none">
<path d="M1081 12112 c-19 -9 -43 -29 -54 -43 -10 -15 -246 -714 -524 -1555
-394 -1195 -503 -1536 -498 -1560 8 -46 45 -96 85 -116 30 -15 64 -18 223 -18
166 0 192 2 226 19 21 11 46 32 55 46 10 14 51 128 93 253 276 832 484 1324
698 1648 253 383 688 618 1300 701 112 15 209 18 710 17 682 0 678 0 683 -75
2 -34 -240 -1015 -958 -3890 -532 -2126 -971 -3863 -983 -3888 -27 -54 -119
-141 -183 -171 -133 -62 -623 -99 -1327 -100 -228 0 -305 -3 -330 -14 -64 -26
-80 -59 -132 -265 -47 -190 -47 -192 -31 -235 19 -49 48 -80 90 -95 20 -8 125
-8 370 -1 319 10 1449 30 1453 26 1 -1 -45 -188 -102 -416 -58 -228 -105 -430
-105 -449 0 -46 35 -105 79 -129 27 -14 64 -21 148 -26 296 -17 533 -136 619
-311 27 -55 29 -69 28 -165 0 -89 -4 -116 -28 -180 -164 -439 -705 -610 -1936
-610 -333 0 -334 -1 -389 -228 -25 -104 -29 -134 -21 -163 14 -49 46 -88 86
-105 60 -25 931 -15 1339 16 1074 81 1678 349 1925 855 121 245 149 490 80
689 -41 121 -90 197 -190 296 -132 131 -272 210 -503 286 -48 15 -87 33 -87
39 1 14 147 596 151 600 6 5 1033 -13 1465 -26 386 -11 391 -11 431 9 22 12
48 33 58 49 21 32 104 351 105 402 0 47 -35 105 -80 130 -36 20 -51 21 -341
21 -659 1 -1145 35 -1247 88 -41 21 -72 73 -72 119 0 45 1914 7696 1940 7759
67 156 138 168 905 161 557 -5 632 -11 848 -67 218 -56 377 -141 498 -267 82
-85 114 -139 139 -236 75 -296 42 -821 -111 -1735 l-41 -243 24 -47 c42 -84
51 -87 278 -90 183 -3 202 -2 238 17 22 11 49 35 60 53 16 26 77 368 276 1539
141 829 256 1526 256 1549 0 55 -31 105 -81 130 -38 20 -78 20 -3806 20 -3568
0 -3770 -1 -3802 -18z"/>
</g>
</svg>
