<?xml version="1.0" standalone="no"?>
<!DOCTYPE svg PUBLIC "-//W3C//DTD SVG 20010904//EN"
 "http://www.w3.org/TR/2001/REC-SVG-20010904/DTD/svg10.dtd">
<svg version="1.0" xmlns="http://www.w3.org/2000/svg"
 width="753.000000pt" height="907.000000pt" viewBox="0 0 753.000000 907.000000"
 preserveAspectRatio="xMidYMid meet">
<metadata>
Created by potrace 1.16, written by Peter Selinger 2001-2019
</metadata>
<g transform="translate(0.000000,907.000000) scale(0.100000,-0.100000)"
fill="#000000" stroke="none">
<path d="M2281 9053 c-51 -27 -70 -59 -98 -169 -28 -110 -26 -157 6 -202 39
-55 69 -62 278 -62 350 0 650 -27 760 -68 63 -23 78 -61 69 -176 -5 -54 -151
-658 -471 -1940 -256 -1023 -469 -1870 -474 -1882 -5 -12 -314 -245 -686 -519
-421 -310 -685 -510 -696 -529 -38 -62 -19 -138 60 -242 65 -87 136 -115 202
-80 14 7 232 165 483 350 252 185 460 335 462 333 9 -8 -747 -3010 -776 -3086
-58 -150 -128 -224 -246 -261 -139 -43 -449 -70 -802 -70 -211 0 -228 -4 -274
-59 -37 -43 -82 -229 -68 -280 10 -37 46 -79 87 -100 16 -8 846 -11 3106 -11
l3084 0 33 22 c18 13 41 34 51 48 22 31 1149 3213 1149 3243 -1 41 -37 103
-72 125 -31 19 -50 22 -154 22 -128 0 -165 -12 -198 -62 -8 -13 -56 -138 -107
-278 -303 -844 -525 -1292 -834 -1688 -439 -562 -1119 -909 -1909 -972 -163
-13 -1515 -13 -1616 0 -138 18 -148 31 -129 168 9 68 1051 4259 1060 4266 2 1
557 409 1233 906 779 573 1235 915 1247 934 38 62 19 138 -60 242 -65 87 -136
115 -202 81 -14 -8 -461 -335 -995 -727 -533 -393 -990 -729 -1015 -747 l-47
-33 333 1327 c183 731 342 1352 354 1381 48 119 139 225 227 262 144 62 556
99 1100 100 233 0 242 1 274 23 51 34 67 64 96 171 29 112 27 149 -13 196 -51
62 -54 62 -366 51 -1028 -38 -2167 -36 -3252 4 -143 6 -164 4 -194 -12z"/>
</g>
</svg>
