<?xml version="1.0" standalone="no"?>
<!DOCTYPE svg PUBLIC "-//W3C//DTD SVG 20010904//EN"
 "http://www.w3.org/TR/2001/REC-SVG-20010904/DTD/svg10.dtd">
<svg version="1.0" xmlns="http://www.w3.org/2000/svg"
 width="625.000000pt" height="976.000000pt" viewBox="0 0 625.000000 976.000000"
 preserveAspectRatio="xMidYMid meet">
<metadata>
Created by potrace 1.16, written by Peter Selinger 2001-2019
</metadata>
<g transform="translate(0.000000,976.000000) scale(0.100000,-0.100000)"
fill="#000000" stroke="none">
<path d="M2588 9582 c-141 -97 -257 -180 -258 -183 0 -4 39 -29 88 -57 230
-133 452 -289 667 -467 118 -97 425 -391 425 -406 0 -4 -332 -174 -737 -379
-406 -204 -741 -374 -744 -378 -3 -4 30 -116 73 -249 l79 -243 352 179 c1022
518 1309 661 1317 656 15 -9 129 -177 203 -296 303 -492 527 -1082 631 -1664
14 -77 28 -151 30 -165 4 -21 -5 -15 -61 38 -343 330 -750 433 -1333 336 -815
-135 -1650 -647 -2276 -1394 -556 -664 -914 -1456 -1021 -2256 -26 -200 -24
-594 6 -783 64 -418 201 -758 424 -1057 326 -437 800 -708 1392 -796 134 -19
519 -17 670 5 616 90 1213 359 1749 787 657 524 1158 1238 1415 2020 50 149
186 690 235 926 229 1122 183 2155 -139 3093 -143 416 -358 835 -606 1183
-100 140 -248 324 -338 420 l-68 73 731 368 c402 203 734 372 738 376 6 5
-110 383 -145 475 -6 15 -48 -3 -329 -147 -178 -90 -562 -285 -854 -432 l-532
-267 -123 96 c-266 208 -532 373 -854 531 -161 80 -524 235 -547 235 -2 0
-119 -80 -260 -178z m1277 -3781 c286 -71 520 -262 657 -536 110 -219 162
-487 161 -840 -1 -380 -60 -749 -223 -1390 -258 -1015 -493 -1527 -875 -1910
-583 -585 -1432 -746 -1970 -374 -102 70 -228 206 -291 312 -65 108 -118 268
-140 417 -13 93 -15 160 -11 345 9 376 60 662 262 1465 205 815 343 1198 559
1553 333 548 867 905 1466 981 84 10 326 -3 405 -23z"/>
</g>
</svg>
