<?xml version="1.0" standalone="no"?>
<!DOCTYPE svg PUBLIC "-//W3C//DTD SVG 20010904//EN"
 "http://www.w3.org/TR/2001/REC-SVG-20010904/DTD/svg10.dtd">
<svg version="1.0" xmlns="http://www.w3.org/2000/svg"
 width="814.000000pt" height="994.000000pt" viewBox="0 0 814.000000 994.000000"
 preserveAspectRatio="xMidYMid meet">
<metadata>
Created by potrace 1.16, written by Peter Selinger 2001-2019
</metadata>
<g transform="translate(0.000000,994.000000) scale(0.100000,-0.100000)"
fill="#000000" stroke="none">
<path d="M7281 9925 c-354 -77 -616 -334 -701 -687 -85 -356 87 -653 420 -724
55 -12 105 -15 190 -11 173 9 313 55 452 150 l67 46 -14 -37 c-178 -497 -519
-962 -951 -1298 -88 -69 -280 -195 -379 -250 -98 -55 -125 -87 -125 -150 0
-32 9 -53 41 -97 44 -62 81 -87 128 -87 92 0 509 283 768 521 434 399 769 947
902 1476 69 272 68 486 -3 695 -43 128 -86 198 -172 284 -83 84 -196 145 -309
169 -87 18 -229 18 -314 0z"/>
<path d="M4990 9294 c-465 -41 -855 -76 -868 -79 -13 -3 -39 -20 -58 -38 -30
-27 -39 -47 -59 -127 -31 -121 -32 -167 -2 -211 40 -60 71 -69 252 -69 293 0
534 -27 633 -70 73 -32 89 -117 56 -291 -11 -63 -705 -2854 -765 -3083 l-10
-38 -44 76 c-211 370 -517 591 -896 647 -120 17 -343 6 -499 -26 -642 -132
-1292 -589 -1808 -1273 -481 -637 -800 -1432 -898 -2242 -24 -198 -25 -603 0
-785 118 -896 599 -1504 1309 -1657 152 -32 430 -32 575 0 399 89 766 313
1154 704 l167 168 11 -43 c106 -419 390 -712 796 -819 111 -29 130 -31 294
-32 163 0 181 2 265 28 233 71 417 219 582 466 186 280 326 658 508 1375 l49
190 -20 40 c-34 69 -58 80 -198 83 -137 4 -182 -7 -211 -52 -9 -14 -48 -146
-86 -293 -203 -784 -352 -1144 -559 -1354 -99 -100 -164 -136 -261 -145 -326
-31 -435 271 -328 908 11 68 462 1887 1000 4043 724 2894 979 3928 974 3952
-7 38 -46 88 -86 108 -15 8 -50 14 -76 14 -26 -1 -428 -35 -893 -75z m-1796
-3628 c283 -55 501 -275 639 -646 44 -118 91 -310 112 -456 l16 -110 -354
-1417 -355 -1417 -106 -160 c-457 -685 -980 -1089 -1446 -1116 -375 -22 -636
246 -731 750 -16 83 -23 166 -26 328 -10 409 38 711 247 1548 116 466 192 736
264 945 202 590 443 1003 781 1340 334 334 651 469 959 411z"/>
</g>
</svg>
