<?xml version="1.0" standalone="no"?>
<!DOCTYPE svg PUBLIC "-//W3C//DTD SVG 20010904//EN"
 "http://www.w3.org/TR/2001/REC-SVG-20010904/DTD/svg10.dtd">
<svg version="1.0" xmlns="http://www.w3.org/2000/svg"
 width="642.000000pt" height="863.000000pt" viewBox="0 0 642.000000 863.000000"
 preserveAspectRatio="xMidYMid meet">
<metadata>
Created by potrace 1.16, written by Peter Selinger 2001-2019
</metadata>
<g transform="translate(0.000000,863.000000) scale(0.100000,-0.100000)"
fill="#000000" stroke="none">
<path d="M4505 8612 c-16 -10 -498 -451 -1070 -980 -1133 -1048 -1089 -1003
-1066 -1090 9 -30 33 -64 89 -123 74 -78 80 -82 128 -86 33 -4 60 0 78 9 14 7
418 349 897 758 479 410 874 746 878 747 3 1 228 -331 500 -737 273 -409 505
-747 520 -757 14 -9 49 -19 76 -21 45 -4 56 0 105 34 168 115 197 150 187 225
-7 50 -1130 1983 -1169 2012 -38 28 -115 33 -153 9z"/>
<path d="M1590 6014 c-309 -53 -541 -176 -775 -410 -171 -172 -319 -385 -464
-674 -131 -259 -260 -604 -331 -886 -23 -90 -23 -91 -4 -129 34 -69 59 -80
198 -83 197 -6 212 7 266 216 150 585 384 1083 635 1349 185 197 412 299 621
280 107 -10 165 -56 201 -159 24 -68 28 -245 9 -378 -37 -247 -77 -382 -273
-920 -342 -937 -481 -1365 -593 -1822 -101 -415 -133 -645 -133 -953 0 -239
15 -356 68 -540 33 -114 129 -311 193 -395 192 -253 513 -423 918 -485 142
-22 407 -30 534 -16 467 52 865 286 1248 734 28 33 33 35 39 20 48 -135 98
-231 170 -328 149 -200 346 -330 602 -398 108 -28 128 -30 291 -31 163 0 181
2 265 28 385 118 654 454 874 1091 58 166 142 459 216 750 l49 190 -20 40
c-34 69 -58 80 -198 83 -136 4 -182 -7 -211 -51 -9 -14 -48 -146 -86 -294
-205 -789 -351 -1144 -559 -1354 -117 -118 -171 -144 -300 -144 -79 0 -103 4
-142 23 -83 41 -139 126 -169 257 -20 88 -17 380 5 525 31 201 47 269 557
2310 481 1924 501 2008 497 2078 -22 346 -468 449 -748 173 -120 -119 -83 12
-629 -2177 -270 -1079 -499 -2010 -510 -2068 -18 -102 -22 -113 -97 -237 -219
-364 -504 -648 -775 -773 -176 -81 -309 -110 -509 -110 -166 -1 -230 12 -350
71 -105 51 -223 169 -273 273 -126 263 -134 710 -22 1262 116 579 266 1066
655 2133 78 215 155 440 171 501 71 281 61 545 -30 793 -116 317 -348 523
-691 613 -72 19 -326 33 -390 22z"/>
</g>
</svg>
