<?xml version="1.0" standalone="no"?>
<!DOCTYPE svg PUBLIC "-//W3C//DTD SVG 20010904//EN"
 "http://www.w3.org/TR/2001/REC-SVG-20010904/DTD/svg10.dtd">
<svg version="1.0" xmlns="http://www.w3.org/2000/svg"
 width="846.000000pt" height="998.000000pt" viewBox="0 0 846.000000 998.000000"
 preserveAspectRatio="xMidYMid meet">
<metadata>
Created by potrace 1.16, written by Peter Selinger 2001-2019
</metadata>
<g transform="translate(0.000000,998.000000) scale(0.100000,-0.100000)"
fill="#000000" stroke="none">
<path d="M6640 9970 c-1054 -129 -2073 -1007 -2526 -2176 -73 -190 -100 -289
-389 -1444 l-281 -1125 -500 -5 c-463 -5 -502 -6 -528 -23 -37 -24 -57 -74
-97 -238 l-32 -135 19 -40 c10 -21 34 -49 53 -61 l34 -23 458 0 c253 0 459 -2
459 -5 0 -3 -133 -535 -295 -1183 -264 -1060 -366 -1443 -409 -1546 l-14 -34
-109 34 c-542 173 -1099 129 -1602 -127 -86 -43 -199 -109 -251 -146 -118 -84
-338 -302 -408 -405 -133 -196 -222 -438 -222 -608 0 -162 61 -303 185 -427
71 -70 98 -89 196 -137 74 -36 153 -65 224 -83 102 -26 124 -28 310 -27 227 0
369 20 577 80 463 133 870 371 1265 740 61 57 115 104 119 104 4 0 156 -98
338 -219 182 -120 376 -245 431 -278 735 -441 1378 -542 2025 -318 229 79 520
245 740 421 116 94 318 297 420 424 233 291 429 663 520 986 35 125 36 147 12
193 -33 61 -66 71 -243 71 -146 0 -158 -1 -190 -23 -41 -28 -59 -62 -99 -196
-133 -441 -437 -862 -794 -1103 -237 -158 -453 -228 -710 -228 -306 0 -599 73
-921 229 -207 101 -359 192 -746 449 l-317 209 30 48 c53 85 156 288 208 410
103 240 148 398 437 1552 l286 1143 664 0 c722 0 710 -1 747 55 19 29 86 292
86 337 0 39 -30 91 -62 110 -18 10 -160 14 -664 18 l-642 5 292 1165 c161 641
307 1216 325 1279 142 497 313 864 544 1171 94 125 308 340 427 428 353 261
711 352 1072 272 350 -77 616 -339 743 -730 68 -211 95 -403 95 -673 l0 -174
-102 -5 c-188 -9 -335 -76 -479 -218 -126 -125 -195 -262 -219 -440 -52 -378
286 -633 690 -520 128 36 223 93 325 195 146 145 200 277 259 626 94 557 38
1089 -159 1506 -217 459 -570 740 -1060 843 -115 24 -418 35 -545 20z m-4920
-8570 c139 -18 277 -49 408 -92 67 -22 124 -44 127 -48 11 -18 -158 -233 -275
-350 -242 -241 -527 -409 -804 -472 -132 -30 -323 -31 -387 -2 -60 28 -115 78
-142 128 -17 33 -21 58 -21 131 1 155 62 281 209 430 137 139 297 228 475 266
98 20 282 24 410 9z"/>
</g>
</svg>
