<?xml version="1.0" standalone="no"?>
<!DOCTYPE svg PUBLIC "-//W3C//DTD SVG 20010904//EN"
 "http://www.w3.org/TR/2001/REC-SVG-20010904/DTD/svg10.dtd">
<svg version="1.0" xmlns="http://www.w3.org/2000/svg"
 width="938.000000pt" height="945.000000pt" viewBox="0 0 938.000000 945.000000"
 preserveAspectRatio="xMidYMid meet">
<metadata>
Created by potrace 1.16, written by Peter Selinger 2001-2019
</metadata>
<g transform="translate(0.000000,945.000000) scale(0.100000,-0.100000)"
fill="#000000" stroke="none">
<path d="M2369 9429 c-20 -12 -46 -38 -57 -58 -31 -57 -106 -374 -98 -416 9
-45 57 -101 99 -114 18 -5 181 -12 362 -15 446 -8 674 -32 719 -76 49 -48 98
158 -934 -3972 -668 -2675 -971 -3872 -991 -3914 -34 -73 -95 -139 -152 -164
-105 -47 -332 -69 -772 -76 -181 -3 -344 -10 -362 -15 -66 -21 -86 -59 -138
-271 l-49 -195 25 -48 c13 -27 37 -58 52 -69 l28 -21 2612 0 c2884 0 2675 -4
3007 61 589 116 1166 389 1664 788 132 106 384 353 501 491 352 417 588 892
676 1359 30 160 37 451 15 606 -68 461 -283 841 -646 1142 -282 234 -736 426
-1145 483 l-49 7 149 38 c432 108 853 295 1225 543 971 648 1434 1610 1200
2493 -184 695 -784 1207 -1611 1373 -288 58 -113 55 -2814 58 l-2480 3 -36
-21z m4698 -610 c108 -14 258 -67 355 -125 96 -57 236 -190 298 -283 60 -89
134 -250 164 -355 45 -157 59 -287 53 -506 -9 -353 -76 -618 -247 -965 -257
-524 -683 -956 -1185 -1200 -158 -77 -273 -121 -408 -156 -214 -55 -155 -52
-1264 -56 -568 -2 -1033 -1 -1033 2 0 26 864 3453 880 3491 43 100 101 134
260 153 112 13 2031 13 2127 0z m-871 -4170 c402 -56 718 -349 862 -800 101
-314 117 -649 51 -1044 -47 -278 -120 -508 -244 -760 -334 -683 -939 -1204
-1590 -1370 -219 -56 -247 -57 -1415 -53 -898 3 -1073 6 -1115 19 l-50 14 2
60 c1 41 150 654 478 1965 262 1048 480 1922 486 1943 l10 37 1224 0 c823 0
1249 -4 1301 -11z"/>
</g>
</svg>
