<?xml version="1.0" standalone="no"?>
<!DOCTYPE svg PUBLIC "-//W3C//DTD SVG 20010904//EN"
 "http://www.w3.org/TR/2001/REC-SVG-20010904/DTD/svg10.dtd">
<svg version="1.0" xmlns="http://www.w3.org/2000/svg"
 width="613.000000pt" height="911.000000pt" viewBox="0 0 613.000000 911.000000"
 preserveAspectRatio="xMidYMid meet">
<metadata>
Created by potrace 1.16, written by Peter Selinger 2001-2019
</metadata>
<g transform="translate(0.000000,911.000000) scale(0.100000,-0.100000)"
fill="#000000" stroke="none">
<path d="M3100 9104 c-617 -74 -1215 -388 -1746 -919 -371 -370 -650 -762
-883 -1240 -485 -992 -601 -2078 -309 -2880 236 -647 682 -1054 1299 -1186 87
-19 136 -23 304 -23 172 0 215 3 305 22 420 91 827 325 1205 694 l122 118 18
-47 c36 -98 129 -264 191 -341 100 -126 224 -228 366 -303 l69 -35 -118 -79
c-373 -248 -728 -556 -927 -805 -207 -259 -339 -524 -398 -795 -21 -99 -16
-334 10 -438 75 -303 286 -559 581 -707 195 -97 435 -146 671 -137 381 16 738
172 1028 451 143 138 279 315 366 479 40 77 44 103 20 154 -21 43 -45 59 -126
84 -118 36 -157 21 -233 -87 -189 -272 -409 -438 -662 -501 -106 -26 -306 -24
-408 5 -278 79 -479 283 -551 557 -28 108 -24 301 9 427 67 253 212 485 461
733 162 161 300 272 526 423 l174 117 151 7 c304 13 505 104 726 328 294 296
506 763 724 1590 63 241 64 259 5 315 l-31 30 -222 3 c-208 2 -224 1 -255 -18
-18 -11 -39 -35 -47 -52 -8 -18 -46 -156 -85 -306 -211 -821 -398 -1220 -630
-1347 -49 -26 -65 -30 -140 -30 -72 0 -93 4 -135 25 -59 30 -107 96 -130 175
-39 131 -36 365 6 615 11 69 248 1033 525 2143 548 2193 525 2088 485 2216
-36 117 -100 195 -199 245 -194 98 -435 65 -639 -88 -58 -44 -142 -142 -166
-193 -6 -13 -13 -23 -16 -22 -3 0 -35 41 -71 90 -191 263 -465 443 -785 515
-68 15 -358 27 -435 18z m315 -530 c312 -84 555 -423 658 -919 48 -230 81 -58
-316 -1647 l-354 -1418 -44 -67 c-305 -474 -698 -866 -1038 -1037 -151 -76
-342 -126 -480 -126 -338 1 -593 250 -681 665 -43 201 -39 526 11 857 62 423
345 1578 499 2038 127 377 261 668 415 900 243 365 572 642 879 740 130 42
327 48 451 14z"/>
</g>
</svg>
