<?xml version="1.0" standalone="no"?>
<!DOCTYPE svg PUBLIC "-//W3C//DTD SVG 20010904//EN"
 "http://www.w3.org/TR/2001/REC-SVG-20010904/DTD/svg10.dtd">
<svg version="1.0" xmlns="http://www.w3.org/2000/svg"
 width="536.000000pt" height="1384.000000pt" viewBox="0 0 536.000000 1384.000000"
 preserveAspectRatio="xMidYMid meet">
<metadata>
Created by potrace 1.16, written by Peter Selinger 2001-2019
</metadata>
<g transform="translate(0.000000,1384.000000) scale(0.100000,-0.100000)"
fill="#000000" stroke="none">
<path d="M3468 13820 c-20 -11 -45 -34 -56 -52 -11 -20 -701 -2759 -1718
-6829 l-1698 -6795 24 -49 c14 -27 38 -58 53 -69 28 -21 39 -21 898 -24 850
-2 870 -2 908 18 49 24 74 65 96 158 20 85 15 129 -22 173 -50 59 -52 59 -513
59 -274 0 -420 3 -420 10 0 8 3205 12838 3241 12973 l10 37 466 0 c455 0 466
0 503 21 47 27 73 72 95 170 l18 77 -24 48 c-13 26 -37 57 -52 68 -28 21 -39
21 -900 23 -846 2 -873 2 -909 -17z"/>
</g>
</svg>
