<?xml version="1.0" standalone="no"?>
<!DOCTYPE svg PUBLIC "-//W3C//DTD SVG 20010904//EN"
 "http://www.w3.org/TR/2001/REC-SVG-20010904/DTD/svg10.dtd">
<svg version="1.0" xmlns="http://www.w3.org/2000/svg"
 width="880.000000pt" height="1264.000000pt" viewBox="0 0 880.000000 1264.000000"
 preserveAspectRatio="xMidYMid meet">
<metadata>
Created by potrace 1.16, written by Peter Selinger 2001-2019
</metadata>
<g transform="translate(0.000000,1264.000000) scale(0.100000,-0.100000)"
fill="#000000" stroke="none">
<path d="M7310 12625 c-220 -38 -430 -123 -626 -255 -522 -353 -877 -937 -955
-1570 -14 -114 -6 -353 16 -460 68 -337 249 -596 516 -735 l79 -41 -2291
-4064 c-1260 -2236 -2297 -4069 -2304 -4075 -6 -5 -36 -48 -65 -95 -184 -296
-431 -527 -692 -650 -209 -98 -499 -160 -745 -160 -131 0 -167 -36 -212 -214
-17 -69 -31 -139 -31 -156 0 -48 33 -103 78 -128 39 -22 44 -22 189 -12 81 5
343 15 580 22 451 13 1158 3 1674 -23 215 -11 229 -11 265 7 56 28 78 68 114
213 37 149 35 183 -11 236 -37 42 -68 52 -194 59 -135 9 -224 30 -325 78 -109
53 -187 128 -220 213 -41 109 -27 262 36 386 13 26 30 65 37 86 8 21 233 425
500 898 l486 860 1540 3 1539 2 6 -72 c4 -40 36 -534 72 -1097 l65 -1025 -26
-52 c-49 -101 -147 -166 -329 -218 -132 -39 -273 -56 -501 -62 -115 -3 -224
-10 -242 -15 -60 -19 -87 -64 -121 -202 -18 -70 -32 -140 -32 -157 0 -48 33
-103 78 -128 l40 -22 254 10 c940 38 1944 38 2795 -1 281 -12 303 -10 351 45
22 26 36 62 60 159 18 70 32 140 32 157 0 48 -33 103 -76 126 -36 20 -59 22
-314 27 -359 8 -573 36 -640 85 -37 27 -69 79 -85 136 -9 35 -103 1457 -289
4386 -152 2384 -278 4358 -281 4385 l-6 50 63 24 c440 168 848 554 1087 1028
225 448 285 953 160 1336 -142 433 -494 691 -937 686 -48 -1 -121 -7 -162 -14z
m285 -419 c207 -56 335 -181 381 -373 23 -95 21 -287 -5 -433 -29 -166 -123
-536 -176 -689 -150 -437 -388 -681 -755 -774 -114 -28 -342 -30 -440 -3 -218
60 -342 187 -386 396 -22 105 -13 304 21 470 100 482 207 795 340 995 154 231
390 383 660 425 85 13 289 5 360 -14z m-1480 -6411 c74 -1166 136 -2144 139
-2172 l5 -53 -1376 0 c-833 0 -1373 4 -1371 9 17 47 2464 4367 2466 4354 1
-10 63 -972 137 -2138z"/>
</g>
</svg>
