<?xml version="1.0" standalone="no"?>
<!DOCTYPE svg PUBLIC "-//W3C//DTD SVG 20010904//EN"
 "http://www.w3.org/TR/2001/REC-SVG-20010904/DTD/svg10.dtd">
<svg version="1.0" xmlns="http://www.w3.org/2000/svg"
 width="573.000000pt" height="899.000000pt" viewBox="0 0 573.000000 899.000000"
 preserveAspectRatio="xMidYMid meet">
<metadata>
Created by potrace 1.16, written by Peter Selinger 2001-2019
</metadata>
<g transform="translate(0.000000,899.000000) scale(0.100000,-0.100000)"
fill="#000000" stroke="none">
<path d="M4225 8976 c-34 -15 -2250 -2034 -2277 -2074 -25 -39 -32 -94 -15
-134 21 -50 221 -271 263 -291 44 -21 90 -21 131 1 17 9 424 358 903 775 718
625 875 756 885 745 7 -7 230 -347 495 -755 451 -695 484 -743 524 -762 83
-41 106 -32 311 116 174 127 199 155 193 228 -4 46 -58 141 -602 1055 -329
553 -608 1019 -619 1037 -43 64 -125 89 -192 59z"/>
<path d="M3410 6254 c-664 -77 -1243 -324 -1800 -769 -870 -695 -1454 -1728
-1592 -2815 -20 -157 -17 -614 4 -757 44 -290 122 -547 234 -772 123 -247 233
-399 415 -577 292 -283 645 -459 1074 -535 174 -31 535 -34 720 -5 1432 219
2752 1509 3144 3074 83 328 106 519 106 867 -1 290 -10 384 -60 612 -59 266
-183 565 -323 778 -212 325 -515 579 -871 733 -264 114 -498 162 -811 167
-113 2 -221 1 -240 -1z m389 -534 c331 -81 588 -338 695 -693 99 -328 91 -737
-24 -1302 -49 -236 -200 -846 -274 -1100 -188 -653 -408 -1085 -739 -1456
-243 -272 -565 -490 -867 -587 -167 -53 -250 -66 -420 -66 -182 0 -280 20
-417 84 -487 228 -678 771 -562 1597 55 398 289 1347 435 1763 224 644 531
1099 964 1430 254 194 548 319 830 354 81 10 297 -4 379 -24z"/>
</g>
</svg>
