<?xml version="1.0" standalone="no"?>
<!DOCTYPE svg PUBLIC "-//W3C//DTD SVG 20010904//EN"
 "http://www.w3.org/TR/2001/REC-SVG-20010904/DTD/svg10.dtd">
<svg version="1.0" xmlns="http://www.w3.org/2000/svg"
 width="589.000000pt" height="152.000000pt" viewBox="0 0 589.000000 152.000000"
 preserveAspectRatio="xMidYMid meet">
<metadata>
Created by potrace 1.16, written by Peter Selinger 2001-2019
</metadata>
<g transform="translate(0.000000,152.000000) scale(0.100000,-0.100000)"
fill="#000000" stroke="none">
<path d="M1719 1505 c-345 -56 -653 -205 -1002 -484 -153 -122 -649 -598 -689
-660 -33 -53 -37 -111 -10 -156 25 -40 143 -154 190 -182 40 -25 85 -29 127
-13 15 6 91 68 168 139 179 163 241 213 397 316 397 264 748 339 1134 240 171
-43 301 -99 701 -301 520 -263 663 -321 915 -375 153 -33 439 -33 590 -1 314
68 604 216 923 471 153 122 649 598 689 660 33 53 37 111 10 156 -25 40 -143
154 -190 182 -40 25 -85 29 -127 13 -15 -6 -91 -68 -168 -139 -179 -163 -241
-213 -397 -316 -397 -264 -748 -339 -1134 -240 -171 43 -301 99 -701 301 -519
262 -665 322 -910 374 -131 28 -393 36 -516 15z"/>
</g>
</svg>
