<?xml version="1.0" standalone="no"?>
<!DOCTYPE svg PUBLIC "-//W3C//DTD SVG 20010904//EN"
 "http://www.w3.org/TR/2001/REC-SVG-20010904/DTD/svg10.dtd">
<svg version="1.0" xmlns="http://www.w3.org/2000/svg"
 width="880.000000pt" height="1044.000000pt" viewBox="0 0 880.000000 1044.000000"
 preserveAspectRatio="xMidYMid meet">
<metadata>
Created by potrace 1.16, written by Peter Selinger 2001-2019
</metadata>
<g transform="translate(0.000000,1044.000000) scale(0.100000,-0.100000)"
fill="#000000" stroke="none">
<path d="M7827 10425 c-415 -79 -756 -429 -833 -855 -30 -166 -10 -313 60
-456 77 -155 210 -259 396 -311 48 -13 102 -18 210 -18 164 0 243 14 378 69
99 40 99 50 1 -144 -258 -512 -675 -948 -1184 -1240 -132 -76 -152 -93 -166
-141 -16 -52 -1 -88 84 -199 125 -164 156 -171 322 -75 831 479 1464 1308
1656 2169 58 259 36 564 -55 770 -91 206 -272 364 -481 421 -85 23 -290 28
-388 10z"/>
<path d="M5270 9684 c-1034 -80 -1015 -77 -1056 -139 -19 -30 -103 -356 -104
-404 0 -47 35 -105 80 -130 34 -19 53 -21 201 -21 295 0 562 -28 654 -69 74
-33 80 -47 79 -185 l-1 -121 -367 -1465 c-201 -806 -370 -1473 -374 -1483 -6
-14 -20 -1 -72 69 -197 261 -465 433 -783 501 -123 27 -422 24 -577 -5 -567
-106 -1109 -411 -1596 -897 -371 -370 -650 -762 -883 -1240 -485 -992 -601
-2078 -309 -2880 236 -647 682 -1054 1299 -1186 87 -19 136 -23 304 -23 172 0
215 3 305 22 420 91 827 325 1205 694 l122 118 18 -47 c36 -98 129 -264 191
-341 239 -299 626 -467 1034 -449 277 12 487 110 701 327 294 296 506 763 724
1590 63 241 64 259 5 315 l-31 30 -222 3 c-208 2 -224 1 -255 -18 -18 -11 -39
-35 -47 -52 -8 -18 -46 -156 -85 -306 -211 -821 -398 -1220 -630 -1347 -49
-26 -65 -30 -140 -30 -72 0 -93 4 -135 25 -59 30 -107 96 -130 175 -39 131
-36 364 6 615 11 69 477 1951 1035 4183 558 2231 1014 4076 1014 4098 0 88
-73 150 -172 148 -29 -1 -483 -35 -1008 -75z m-1855 -3960 c312 -84 555 -423
658 -919 48 -230 81 -58 -316 -1647 l-354 -1418 -44 -67 c-305 -474 -698 -866
-1038 -1037 -151 -76 -342 -126 -480 -126 -338 1 -593 250 -681 665 -43 201
-39 526 11 857 62 423 345 1578 499 2038 127 377 261 668 415 900 243 365 572
642 879 740 130 42 327 48 451 14z"/>
</g>
</svg>
