<?xml version="1.0" standalone="no"?>
<!DOCTYPE svg PUBLIC "-//W3C//DTD SVG 20010904//EN"
 "http://www.w3.org/TR/2001/REC-SVG-20010904/DTD/svg10.dtd">
<svg version="1.0" xmlns="http://www.w3.org/2000/svg"
 width="698.000000pt" height="1180.000000pt" viewBox="0 0 698.000000 1180.000000"
 preserveAspectRatio="xMidYMid meet">
<metadata>
Created by potrace 1.16, written by Peter Selinger 2001-2019
</metadata>
<g transform="translate(0.000000,1180.000000) scale(0.100000,-0.100000)"
fill="#000000" stroke="none">
<path d="M3790 11724 c-454 -41 -835 -76 -848 -79 -13 -3 -39 -20 -58 -38 -30
-27 -39 -47 -59 -127 -31 -121 -32 -167 -2 -211 40 -60 71 -69 252 -69 293 0
534 -27 633 -70 76 -34 90 -118 52 -312 -11 -57 -578 -2330 -1259 -5053 -857
-3426 -1248 -4974 -1271 -5028 -63 -151 -130 -207 -290 -241 -126 -27 -243
-36 -525 -43 -285 -6 -299 -8 -343 -56 -27 -28 -71 -187 -72 -253 0 -52 33
-103 81 -127 33 -16 53 -16 235 -7 110 5 427 15 705 21 521 12 1180 3 1711
-22 264 -13 276 -11 326 46 41 46 87 229 72 285 -11 41 -66 97 -103 104 -12 3
-139 7 -282 10 -342 7 -513 29 -575 75 -24 18 -25 23 -24 122 1 101 9 133 278
1209 153 607 278 1105 279 1107 2 1 29 -34 62 -78 163 -221 402 -370 695 -434
120 -26 351 -31 508 -11 575 74 1159 378 1670 870 718 692 1185 1644 1308
2666 24 197 24 594 0 775 -33 253 -103 508 -197 718 -344 772 -1072 1126
-1885 918 -303 -78 -642 -251 -898 -460 -42 -34 -76 -60 -76 -57 0 4 212 853
471 1889 346 1384 469 1891 464 1914 -7 38 -46 88 -86 108 -15 8 -50 14 -76
14 -26 -1 -419 -35 -873 -75z m1665 -3649 c266 -88 453 -346 530 -728 87 -433
41 -876 -185 -1786 -185 -744 -308 -1119 -485 -1472 -358 -713 -918 -1218
-1446 -1304 -214 -34 -424 -3 -578 87 -81 48 -208 180 -259 270 -75 132 -153
390 -152 505 0 21 196 817 434 1770 l433 1732 59 82 c183 254 434 497 660 637
273 170 526 245 794 237 92 -2 131 -8 195 -30z"/>
</g>
</svg>
