<?xml version="1.0" standalone="no"?>
<!DOCTYPE svg PUBLIC "-//W3C//DTD SVG 20010904//EN"
 "http://www.w3.org/TR/2001/REC-SVG-20010904/DTD/svg10.dtd">
<svg version="1.0" xmlns="http://www.w3.org/2000/svg"
 width="453.000000pt" height="1137.000000pt" viewBox="0 0 453.000000 1137.000000"
 preserveAspectRatio="xMidYMid meet">
<metadata>
Created by potrace 1.16, written by Peter Selinger 2001-2019
</metadata>
<g transform="translate(0.000000,1137.000000) scale(0.100000,-0.100000)"
fill="#000000" stroke="none">
<path d="M3130 11354 c-168 -45 -325 -169 -393 -312 -27 -55 -97 -321 -322
-1221 l-287 -1151 -680 0 c-740 0 -720 2 -769 -58 -27 -31 -89 -250 -89 -313
0 -45 36 -103 80 -128 37 -21 44 -21 681 -21 l644 0 -497 -1992 c-274 -1096
-505 -2033 -514 -2083 -23 -124 -24 -389 -1 -511 72 -393 289 -701 610 -865
61 -31 85 -48 82 -59 -2 -8 -45 -180 -96 -382 -99 -399 -101 -411 -52 -469 35
-41 79 -59 145 -59 78 0 237 -26 310 -51 157 -52 288 -151 342 -257 64 -127
55 -287 -28 -457 -98 -199 -272 -327 -569 -420 -287 -89 -589 -122 -1207 -132
-417 -6 -427 -8 -468 -75 -28 -47 -56 -171 -48 -213 9 -46 58 -101 104 -116
43 -14 888 -6 1157 11 990 63 1564 255 1862 625 78 97 163 266 194 385 29 114
36 272 15 370 -47 228 -210 413 -470 536 -92 44 -243 97 -310 109 -20 4 -36
10 -36 14 0 3 33 136 73 294 l72 288 83 34 c442 181 858 577 1203 1147 107
176 270 505 348 702 71 181 73 203 16 264 l-33 37 -170 3 c-184 4 -215 -3
-246 -51 -8 -12 -43 -92 -77 -177 -323 -810 -746 -1361 -1189 -1549 l-72 -31
-250 0 -250 0 -31 32 c-42 46 -76 125 -93 216 -27 151 -14 417 31 657 9 44
248 1013 533 2153 l517 2072 678 0 c739 0 719 -2 768 58 27 31 89 250 89 313
0 45 -36 103 -80 128 -37 21 -44 21 -679 21 -416 0 -641 3 -641 10 0 5 123
504 274 1107 151 604 277 1121 281 1149 14 105 -30 236 -105 313 -100 102
-284 147 -440 105z"/>
</g>
</svg>
