<?xml version="1.0" standalone="no"?>
<!DOCTYPE svg PUBLIC "-//W3C//DTD SVG 20010904//EN"
 "http://www.w3.org/TR/2001/REC-SVG-20010904/DTD/svg10.dtd">
<svg version="1.0" xmlns="http://www.w3.org/2000/svg"
 width="633.000000pt" height="954.000000pt" viewBox="0 0 633.000000 954.000000"
 preserveAspectRatio="xMidYMid meet">
<metadata>
Created by potrace 1.16, written by Peter Selinger 2001-2019
</metadata>
<g transform="translate(0.000000,954.000000) scale(0.100000,-0.100000)"
fill="#000000" stroke="none">
<path d="M4265 9533 c-966 -84 -1923 -748 -2406 -1668 -136 -258 -237 -555
-284 -835 -22 -131 -31 -438 -16 -570 47 -406 205 -758 461 -1024 54 -55 188
-177 298 -271 l200 -170 -197 -100 c-415 -213 -754 -432 -1059 -683 -241 -199
-554 -529 -718 -757 -383 -534 -585 -1180 -535 -1710 79 -828 633 -1449 1485
-1665 201 -51 345 -70 561 -77 861 -27 1756 356 2445 1046 528 530 863 1169
966 1846 26 169 26 526 1 680 -40 241 -100 430 -203 634 -146 289 -258 415
-721 809 -172 146 -313 269 -313 272 0 3 48 30 107 60 140 72 398 226 552 329
732 492 1196 1074 1362 1708 45 172 59 264 66 428 16 422 -107 790 -369 1103
-280 334 -745 560 -1257 612 -96 9 -333 11 -426 3z m435 -462 c455 -92 783
-420 881 -881 30 -138 33 -435 6 -575 -96 -510 -366 -975 -811 -1401 -216
-208 -517 -432 -786 -587 -79 -46 -98 -53 -110 -43 -248 208 -1123 956 -1168
1000 -222 214 -323 477 -309 800 9 205 50 361 147 561 293 608 946 1055 1670
1145 113 14 369 4 480 -19z m-1179 -4930 c358 -305 685 -592 727 -637 143
-153 246 -355 293 -574 18 -85 23 -139 23 -280 1 -189 -7 -256 -56 -440 -210
-805 -1019 -1521 -1908 -1689 -509 -96 -953 -15 -1281 233 -368 278 -564 762
-520 1283 84 985 816 1980 1896 2580 83 46 156 82 163 81 7 -2 305 -253 663
-557z"/>
</g>
</svg>
