<?xml version="1.0" standalone="no"?>
<!DOCTYPE svg PUBLIC "-//W3C//DTD SVG 20010904//EN"
 "http://www.w3.org/TR/2001/REC-SVG-20010904/DTD/svg10.dtd">
<svg version="1.0" xmlns="http://www.w3.org/2000/svg"
 width="865.000000pt" height="1198.000000pt" viewBox="0 0 865.000000 1198.000000"
 preserveAspectRatio="xMidYMid meet">
<metadata>
Created by potrace 1.16, written by Peter Selinger 2001-2019
</metadata>
<g transform="translate(0.000000,1198.000000) scale(0.100000,-0.100000)"
fill="#000000" stroke="none">
<path d="M6270 11961 c-194 -43 -385 -148 -534 -295 -122 -120 -235 -311 -278
-471 -28 -106 -31 -290 -5 -385 50 -186 170 -334 337 -415 153 -73 307 -92
480 -59 383 72 704 358 825 734 36 111 46 299 21 402 -55 235 -213 402 -451
478 -100 32 -279 37 -395 11z"/>
<path d="M2694 9436 c-43 -19 -71 -58 -94 -135 -12 -36 -217 -727 -457 -1535
-409 -1381 -435 -1471 -424 -1506 6 -20 21 -50 33 -65 38 -49 70 -55 273 -55
164 0 190 2 224 19 21 11 45 31 54 45 9 14 46 121 83 238 252 816 513 1303
898 1675 410 398 897 605 1616 689 124 15 285 18 1125 21 l980 4 -21 -23 c-34
-37 -6849 -8272 -6874 -8306 -14 -19 -38 -93 -66 -208 -49 -196 -48 -218 2
-265 l26 -24 3001 -3 c2020 -2 3014 0 3037 7 83 24 44 -88 651 1878 370 1199
559 1823 559 1852 0 56 -30 106 -81 131 -34 18 -59 20 -226 20 -205 0 -236 -7
-275 -61 -11 -14 -64 -167 -119 -340 -268 -850 -482 -1346 -747 -1734 -186
-273 -356 -443 -612 -614 -363 -242 -769 -381 -1295 -445 -253 -31 -504 -37
-1406 -34 l-896 3 3443 4159 c1894 2287 3447 4171 3453 4185 6 14 27 93 47
174 33 133 36 152 25 188 -8 27 -23 46 -44 59 -32 20 -75 20 -2947 20 -2417
-1 -2920 -3 -2946 -14z"/>
</g>
</svg>
