<?xml version="1.0" standalone="no"?>
<!DOCTYPE svg PUBLIC "-//W3C//DTD SVG 20010904//EN"
 "http://www.w3.org/TR/2001/REC-SVG-20010904/DTD/svg10.dtd">
<svg version="1.0" xmlns="http://www.w3.org/2000/svg"
 width="1229.000000pt" height="1007.000000pt" viewBox="0 0 1229.000000 1007.000000"
 preserveAspectRatio="xMidYMid meet">
<metadata>
Created by potrace 1.16, written by Peter Selinger 2001-2019
</metadata>
<g transform="translate(0.000000,1007.000000) scale(0.100000,-0.100000)"
fill="#000000" stroke="none">
<path d="M5400 10059 c-1551 -134 -3161 -1210 -4226 -2824 -642 -973 -1032
-2038 -1151 -3140 -24 -228 -24 -808 0 -1022 90 -789 345 -1444 767 -1967 117
-144 326 -352 467 -464 461 -365 1023 -580 1646 -631 371 -31 631 -2 1297 142
352 77 489 104 685 134 101 16 326 17 2655 22 1901 5 2550 9 2565 18 11 6 30
22 42 35 31 33 1423 3510 1423 3555 0 49 -35 107 -80 132 -35 19 -53 21 -224
21 -200 0 -232 -6 -272 -51 -12 -13 -77 -159 -144 -324 -317 -781 -520 -1208
-751 -1583 -226 -367 -398 -557 -661 -732 -402 -267 -866 -402 -1513 -440
-289 -18 -1783 -9 -1850 11 l-50 14 1 57 c1 39 154 669 480 1972 l479 1916
680 0 c804 0 981 -9 1190 -61 161 -40 285 -122 334 -218 41 -80 55 -157 55
-306 -1 -187 -26 -347 -105 -674 -45 -187 -48 -230 -18 -278 40 -64 74 -73
286 -73 210 0 239 7 279 67 33 49 919 3600 910 3647 -8 44 -50 95 -93 112 -23
10 -84 14 -219 14 -171 0 -189 -2 -224 -21 -20 -11 -45 -34 -54 -51 -10 -16
-37 -104 -61 -196 -139 -536 -260 -805 -449 -1001 -173 -178 -388 -270 -746
-317 -103 -14 -257 -17 -868 -21 -719 -5 -744 -4 -738 14 3 10 194 774 425
1699 231 924 430 1703 441 1730 29 68 75 112 133 129 110 33 250 37 1102 32
703 -3 864 -7 985 -21 350 -40 601 -117 777 -237 74 -51 191 -168 228 -229
119 -198 166 -568 135 -1055 -14 -213 -33 -403 -75 -734 l-35 -275 22 -45 c42
-83 51 -86 278 -89 183 -3 202 -2 238 17 80 41 62 -62 282 1589 110 826 200
1522 200 1548 0 56 -28 107 -73 132 -30 16 -184 17 -2437 22 -2182 5 -2414 7
-2505 22 -191 32 -272 50 -595 128 -352 85 -478 112 -640 136 -126 18 -483 26
-630 13z m520 -528 c235 -41 390 -111 511 -231 120 -118 160 -221 179 -463 22
-264 -23 -659 -136 -1212 -53 -257 -1187 -4800 -1275 -5110 -194 -678 -397
-1173 -596 -1453 -204 -288 -509 -456 -958 -528 -155 -25 -492 -26 -625 -1
-502 94 -902 429 -1183 992 -109 220 -203 496 -266 780 -184 844 -136 1846
143 2938 289 1131 767 2087 1459 2917 150 180 492 524 652 656 518 428 1024
671 1525 733 122 16 438 6 570 -18z"/>
</g>
</svg>
