<?xml version="1.0" standalone="no"?>
<!DOCTYPE svg PUBLIC "-//W3C//DTD SVG 20010904//EN"
 "http://www.w3.org/TR/2001/REC-SVG-20010904/DTD/svg10.dtd">
<svg version="1.0" xmlns="http://www.w3.org/2000/svg"
 width="855.000000pt" height="640.000000pt" viewBox="0 0 855.000000 640.000000"
 preserveAspectRatio="xMidYMid meet">
<metadata>
Created by potrace 1.16, written by Peter Selinger 2001-2019
</metadata>
<g transform="translate(0.000000,640.000000) scale(0.100000,-0.100000)"
fill="#000000" stroke="none">
<path d="M3020 6386 c-575 -83 -1173 -423 -1684 -957 -628 -655 -1070 -1521
-1255 -2459 -104 -523 -103 -1047 1 -1485 190 -798 660 -1312 1332 -1457 83
-18 135 -22 296 -22 208 -1 270 6 456 54 278 71 582 220 864 424 261 188 542
464 788 774 77 96 83 102 92 80 65 -154 108 -245 154 -326 309 -545 787 -868
1378 -933 128 -14 392 -6 548 16 262 38 596 142 855 264 508 241 973 629 1296
1081 116 163 114 183 -23 332 -158 171 -217 172 -333 7 -433 -621 -1055 -1083
-1665 -1239 -223 -57 -518 -73 -673 -37 -173 41 -314 121 -442 251 -218 221
-341 520 -391 953 -22 185 -14 581 16 803 32 246 106 640 151 813 l10 37 302
0 c1029 0 1746 91 2275 286 136 50 362 162 462 229 382 256 615 608 696 1050
25 137 15 378 -20 504 -118 422 -454 724 -940 846 -381 96 -832 65 -1301 -90
-526 -173 -974 -452 -1412 -879 -95 -92 -114 -106 -119 -90 -104 295 -244 537
-415 718 -216 228 -447 361 -749 432 -133 32 -401 41 -550 20z m390 -421 c276
-83 477 -354 559 -755 31 -151 43 -291 43 -490 -1 -388 -64 -766 -248 -1502
-170 -682 -294 -1058 -473 -1433 -395 -827 -1008 -1376 -1535 -1375 -481 2
-768 523 -718 1303 24 371 87 706 273 1449 205 820 318 1175 498 1561 313 669
831 1177 1281 1256 76 14 254 5 320 -14z m3840 -59 c111 -17 235 -59 317 -107
74 -43 218 -187 261 -261 119 -203 134 -483 41 -763 -157 -468 -594 -763
-1333 -900 -361 -66 -872 -105 -1404 -105 l-234 0 7 33 c13 58 101 319 150
442 276 702 711 1207 1278 1486 317 155 639 216 917 175z"/>
</g>
</svg>
