<?xml version="1.0" standalone="no"?>
<!DOCTYPE svg PUBLIC "-//W3C//DTD SVG 20010904//EN"
 "http://www.w3.org/TR/2001/REC-SVG-20010904/DTD/svg10.dtd">
<svg version="1.0" xmlns="http://www.w3.org/2000/svg"
 width="926.000000pt" height="1306.000000pt" viewBox="0 0 926.000000 1306.000000"
 preserveAspectRatio="xMidYMid meet">
<metadata>
Created by potrace 1.16, written by Peter Selinger 2001-2019
</metadata>
<g transform="translate(0.000000,1306.000000) scale(0.100000,-0.100000)"
fill="#000000" stroke="none">
<path d="M5114 13045 c-32 -16 -172 -163 -192 -202 -18 -33 -15 -114 6 -144 9
-15 325 -351 701 -747 730 -770 721 -761 801 -747 28 5 316 198 1091 733 1021
704 1055 729 1078 776 22 44 23 53 12 94 -6 24 -30 82 -52 128 -34 72 -45 87
-81 105 -31 16 -53 20 -87 16 -33 -3 -297 -122 -922 -414 l-876 -409 -674 409
c-615 375 -678 411 -724 414 -32 2 -61 -2 -81 -12z"/>
<path d="M2369 9739 c-20 -12 -46 -38 -57 -58 -31 -57 -106 -374 -98 -416 9
-45 57 -101 99 -114 18 -5 181 -12 362 -15 446 -8 674 -32 719 -76 49 -48 98
158 -934 -3972 -668 -2675 -971 -3872 -991 -3914 -34 -73 -95 -139 -152 -164
-105 -47 -332 -69 -772 -76 -181 -3 -344 -10 -362 -15 -66 -21 -86 -59 -138
-271 l-49 -195 25 -48 c13 -27 37 -58 52 -69 33 -24 52 -24 602 -6 823 27
1927 22 2790 -11 286 -11 292 -11 331 9 23 12 49 33 59 49 21 32 104 351 105
402 0 47 -35 105 -80 130 -35 20 -52 21 -251 21 -384 0 -736 27 -823 64 -28
12 -37 23 -46 56 -6 23 -8 61 -5 84 4 22 210 852 457 1844 l450 1802 802 0
c863 0 914 -3 1061 -53 150 -52 257 -119 365 -233 153 -161 245 -360 279 -609
16 -111 13 -331 -5 -454 -8 -58 -91 -410 -184 -781 -186 -747 -204 -827 -220
-1015 -14 -158 -6 -291 26 -454 127 -639 660 -1050 1505 -1156 181 -23 476
-31 579 -16 451 66 879 428 1159 979 118 233 221 522 221 620 0 56 -26 104
-72 132 -30 18 -51 20 -233 20 -275 0 -269 4 -340 -237 -110 -373 -249 -639
-429 -819 -148 -148 -273 -202 -446 -191 -244 16 -358 128 -416 407 -21 105
-29 456 -15 665 7 94 41 508 77 920 65 757 73 933 54 1095 -27 219 -88 425
-183 613 -141 277 -343 503 -615 684 l-112 75 172 58 c810 268 1503 727 1954
1291 481 603 634 1286 429 1919 -72 222 -216 469 -378 647 -377 415 -900 686
-1557 807 -345 63 -203 60 -2575 63 l-2160 3 -36 -21z m3991 -609 c480 -35
806 -142 1047 -341 331 -272 397 -659 237 -1373 -217 -966 -457 -1397 -959
-1726 -197 -129 -511 -257 -770 -315 -333 -74 -508 -85 -1398 -85 -689 0 -728
1 -723 18 3 9 208 827 455 1818 248 990 460 1823 471 1850 43 100 101 134 260
153 106 12 1217 13 1380 1z"/>
</g>
</svg>
