<?xml version="1.0" standalone="no"?>
<!DOCTYPE svg PUBLIC "-//W3C//DTD SVG 20010904//EN"
 "http://www.w3.org/TR/2001/REC-SVG-20010904/DTD/svg10.dtd">
<svg version="1.0" xmlns="http://www.w3.org/2000/svg"
 width="921.000000pt" height="1239.000000pt" viewBox="0 0 921.000000 1239.000000"
 preserveAspectRatio="xMidYMid meet">
<metadata>
Created by potrace 1.16, written by Peter Selinger 2001-2019
</metadata>
<g transform="translate(0.000000,1239.000000) scale(0.100000,-0.100000)"
fill="#000000" stroke="none">
<path d="M8185 12380 c-22 -6 -60 -17 -85 -26 -69 -25 -2296 -1253 -2325
-1282 -47 -47 -51 -87 -20 -214 15 -62 36 -129 46 -149 24 -48 75 -79 129 -79
52 0 2336 788 2450 845 150 76 269 232 301 393 41 215 -72 430 -261 498 -55
19 -181 27 -235 14z"/>
<path d="M2369 9739 c-49 -29 -67 -64 -100 -193 -35 -135 -36 -187 -8 -233 40
-65 73 -73 297 -73 332 0 663 -25 784 -60 20 -6 47 -19 60 -29 21 -18 23 -26
22 -118 -1 -96 -24 -190 -971 -3973 -1061 -4240 -991 -3979 -1092 -4080 -103
-103 -295 -135 -866 -147 -356 -6 -373 -10 -413 -75 -11 -18 -34 -94 -53 -169
l-33 -136 25 -49 c13 -26 37 -57 52 -68 33 -24 43 -24 577 -7 820 28 1885 23
2725 -10 277 -11 281 -11 322 9 57 29 75 66 114 223 l33 136 -25 49 c-45 90
-37 88 -392 96 -496 10 -736 42 -769 101 -7 12 -12 57 -12 102 0 72 49 274
465 1938 l464 1857 820 0 c514 0 852 -4 905 -11 473 -58 798 -363 905 -849 26
-117 31 -389 10 -530 -9 -63 -95 -430 -191 -814 -96 -385 -184 -756 -196 -825
-28 -165 -30 -451 -6 -586 85 -457 328 -779 743 -985 289 -144 594 -213 995
-227 203 -7 298 4 440 49 384 123 737 460 979 936 118 233 221 522 221 620 0
56 -26 104 -72 132 -29 18 -51 20 -183 20 -217 0 -221 -4 -289 -232 -172 -577
-457 -978 -776 -1089 -92 -32 -279 -33 -360 -1 -176 69 -254 236 -280 600 -16
214 -3 439 81 1412 64 742 70 831 65 990 -8 280 -63 498 -187 742 -160 313
-432 584 -762 759 l-89 47 54 12 c29 7 123 35 208 62 965 311 1741 863 2184
1558 73 115 181 342 225 475 164 493 128 978 -105 1424 -188 362 -536 683
-974 900 -380 189 -793 294 -1295 331 -89 6 -892 10 -2190 10 l-2050 0 -36
-21z m3966 -510 c340 -25 588 -83 813 -190 140 -66 230 -127 335 -228 139
-134 207 -250 253 -430 66 -260 49 -567 -58 -1031 -141 -613 -312 -1006 -572
-1317 -369 -444 -1011 -726 -1781 -783 -139 -10 -1645 -15 -1645 -5 0 24 926
3699 946 3755 59 165 114 208 294 229 109 12 1249 13 1415 0z"/>
</g>
</svg>
