<?xml version="1.0" standalone="no"?>
<!DOCTYPE svg PUBLIC "-//W3C//DTD SVG 20010904//EN"
 "http://www.w3.org/TR/2001/REC-SVG-20010904/DTD/svg10.dtd">
<svg version="1.0" xmlns="http://www.w3.org/2000/svg"
 width="398.000000pt" height="191.000000pt" viewBox="0 0 398.000000 191.000000"
 preserveAspectRatio="xMidYMid meet">
<metadata>
Created by potrace 1.16, written by Peter Selinger 2001-2019
</metadata>
<g transform="translate(0.000000,191.000000) scale(0.100000,-0.100000)"
fill="#000000" stroke="none">
<path d="M140 1899 c-43 -17 -80 -62 -95 -114 -45 -158 -59 -451 -30 -621 41
-232 149 -460 302 -633 259 -296 633 -474 1093 -522 136 -14 392 -7 535 16
534 83 1047 336 1429 705 257 248 447 542 551 853 50 148 54 193 24 247 -33
58 -81 80 -178 80 -142 0 -174 -26 -224 -181 -65 -198 -156 -345 -311 -507
-302 -313 -729 -520 -1236 -599 -171 -26 -503 -24 -664 6 -489 88 -822 344
-900 688 -18 79 -20 238 -6 318 24 125 24 151 0 193 -35 61 -81 82 -181 81
-46 0 -95 -5 -109 -10z"/>
</g>
</svg>
