<?xml version="1.0" standalone="no"?>
<!DOCTYPE svg PUBLIC "-//W3C//DTD SVG 20010904//EN"
 "http://www.w3.org/TR/2001/REC-SVG-20010904/DTD/svg10.dtd">
<svg version="1.0" xmlns="http://www.w3.org/2000/svg"
 width="605.000000pt" height="1328.000000pt" viewBox="0 0 605.000000 1328.000000"
 preserveAspectRatio="xMidYMid meet">
<metadata>
Created by potrace 1.16, written by Peter Selinger 2001-2019
</metadata>
<g transform="translate(0.000000,1328.000000) scale(0.100000,-0.100000)"
fill="#000000" stroke="none">
<path d="M3323 13260 c-38 -23 -56 -56 -73 -131 -17 -75 -7 -121 31 -153 37
-31 45 -33 183 -41 372 -20 683 -145 901 -361 215 -212 316 -502 285 -810 -9
-84 -103 -477 -435 -1803 -233 -933 -431 -1744 -439 -1802 -58 -390 57 -759
324 -1042 168 -179 433 -346 688 -434 77 -26 103 -43 67 -43 -28 0 -367 -116
-480 -164 -342 -146 -650 -350 -885 -586 -217 -217 -383 -478 -469 -739 -18
-52 -220 -849 -451 -1772 -231 -923 -433 -1714 -449 -1759 -251 -688 -1050
-1232 -1873 -1276 -181 -10 -202 -23 -233 -151 -17 -68 -16 -72 3 -115 33 -76
58 -82 302 -75 395 12 726 70 1095 191 640 212 1124 557 1420 1015 59 91 144
270 179 376 14 44 215 838 446 1764 261 1045 434 1719 456 1775 102 264 244
477 464 696 384 384 900 618 1424 646 168 9 191 24 221 138 20 75 19 105 -5
143 -26 43 -68 63 -135 63 -92 0 -244 19 -352 45 -406 97 -715 365 -832 725
-50 152 -64 368 -36 550 7 52 203 851 434 1775 231 924 425 1712 431 1750 19
110 14 334 -8 440 -85 395 -338 697 -767 910 -361 179 -802 275 -1269 275
-112 0 -136 -3 -163 -20z"/>
</g>
</svg>
