<?xml version="1.0" standalone="no"?>
<!DOCTYPE svg PUBLIC "-//W3C//DTD SVG 20010904//EN"
 "http://www.w3.org/TR/2001/REC-SVG-20010904/DTD/svg10.dtd">
<svg version="1.0" xmlns="http://www.w3.org/2000/svg"
 width="568.000000pt" height="137.000000pt" viewBox="0 0 568.000000 137.000000"
 preserveAspectRatio="xMidYMid meet">
<metadata>
Created by potrace 1.16, written by Peter Selinger 2001-2019
</metadata>
<g transform="translate(0.000000,137.000000) scale(0.100000,-0.100000)"
fill="#000000" stroke="none">
<path d="M1755 1364 c-16 -3 -74 -13 -128 -24 -341 -68 -737 -291 -1141 -644
-154 -134 -456 -428 -472 -457 -17 -33 -18 -92 -3 -122 17 -32 70 -87 101
-103 32 -16 76 -18 112 -4 15 5 84 62 154 126 659 603 1178 809 1652 653 170
-55 305 -129 655 -359 350 -229 469 -294 662 -358 152 -51 249 -66 428 -66
253 0 435 46 705 180 318 158 629 397 1033 794 l157 155 0 58 c0 54 -3 61 -42
103 -49 53 -85 74 -127 74 -50 0 -77 -16 -162 -95 -533 -499 -989 -745 -1379
-745 -269 0 -477 86 -937 388 -352 230 -457 289 -638 359 -151 59 -279 84
-450 88 -82 2 -163 1 -180 -1z"/>
</g>
</svg>
