<?xml version="1.0" standalone="no"?>
<!DOCTYPE svg PUBLIC "-//W3C//DTD SVG 20010904//EN"
 "http://www.w3.org/TR/2001/REC-SVG-20010904/DTD/svg10.dtd">
<svg version="1.0" xmlns="http://www.w3.org/2000/svg"
 width="626.000000pt" height="954.000000pt" viewBox="0 0 626.000000 954.000000"
 preserveAspectRatio="xMidYMid meet">
<metadata>
Created by potrace 1.16, written by Peter Selinger 2001-2019
</metadata>
<g transform="translate(0.000000,954.000000) scale(0.100000,-0.100000)"
fill="#000000" stroke="none">
<path d="M4145 9534 c-16 -2 -73 -9 -125 -15 -726 -82 -1511 -533 -2044 -1172
-430 -518 -774 -1113 -1068 -1852 -333 -837 -720 -2331 -848 -3270 -109 -806
-67 -1499 125 -2055 202 -583 681 -994 1309 -1125 739 -153 1599 95 2314 668
443 355 896 954 1246 1647 320 633 568 1352 831 2410 271 1091 377 1816 362
2475 -8 359 -40 606 -117 903 -68 261 -146 443 -266 622 -331 495 -903 776
-1563 769 -69 -1 -139 -4 -156 -5z m315 -537 c183 -47 319 -126 447 -261 253
-264 347 -600 303 -1086 -48 -523 -190 -1215 -540 -2620 -491 -1970 -757
-2844 -1026 -3370 -256 -502 -721 -930 -1174 -1080 -646 -215 -1200 83 -1365
735 -62 243 -59 511 11 978 85 575 234 1255 570 2597 300 1200 434 1689 608
2215 253 761 425 1080 758 1401 306 294 633 463 1003 518 17 2 93 3 170 1 108
-3 162 -9 235 -28z"/>
</g>
</svg>
