<?xml version="1.0" standalone="no"?>
<!DOCTYPE svg PUBLIC "-//W3C//DTD SVG 20010904//EN"
 "http://www.w3.org/TR/2001/REC-SVG-20010904/DTD/svg10.dtd">
<svg version="1.0" xmlns="http://www.w3.org/2000/svg"
 width="496.000000pt" height="976.000000pt" viewBox="0 0 496.000000 976.000000"
 preserveAspectRatio="xMidYMid meet">
<metadata>
Created by potrace 1.16, written by Peter Selinger 2001-2019
</metadata>
<g transform="translate(0.000000,976.000000) scale(0.100000,-0.100000)"
fill="#000000" stroke="none">
<path d="M1640 9684 c-1024 -79 -1010 -77 -1051 -136 -22 -31 -109 -354 -109
-407 0 -47 36 -105 80 -130 34 -19 53 -21 201 -21 299 0 561 -28 654 -69 74
-33 80 -47 79 -185 l-1 -121 -691 -2760 c-380 -1518 -704 -2826 -721 -2907
-63 -303 -75 -430 -76 -788 0 -365 11 -478 71 -720 108 -440 282 -763 551
-1021 381 -365 898 -497 1463 -373 1121 246 2188 1352 2638 2734 303 929 293
1802 -28 2475 -108 227 -221 386 -393 551 -233 224 -496 361 -819 426 -161 32
-455 32 -607 -1 -303 -65 -656 -238 -931 -457 -41 -33 -80 -63 -86 -67 -6 -4
206 863 472 1926 266 1062 484 1952 484 1976 0 90 -71 152 -172 150 -29 -1
-483 -35 -1008 -75z m1681 -3968 c250 -87 431 -352 483 -707 29 -198 18 -519
-29 -820 -53 -333 -300 -1361 -434 -1804 -193 -633 -380 -1012 -660 -1338
-279 -324 -605 -517 -901 -533 -414 -23 -699 260 -796 791 -23 124 -26 564 -6
715 23 166 71 432 107 592 80 361 466 1886 487 1928 13 24 61 99 107 165 357
511 763 868 1125 990 183 61 378 69 517 21z"/>
</g>
</svg>
