<?xml version="1.0" standalone="no"?>
<!DOCTYPE svg PUBLIC "-//W3C//DTD SVG 20010904//EN"
 "http://www.w3.org/TR/2001/REC-SVG-20010904/DTD/svg10.dtd">
<svg version="1.0" xmlns="http://www.w3.org/2000/svg"
 width="552.000000pt" height="642.000000pt" viewBox="0 0 552.000000 642.000000"
 preserveAspectRatio="xMidYMid meet">
<metadata>
Created by potrace 1.16, written by Peter Selinger 2001-2019
</metadata>
<g transform="translate(0.000000,642.000000) scale(0.100000,-0.100000)"
fill="#000000" stroke="none">
<path d="M1611 6403 c-23 -12 -40 -31 -53 -61 -19 -42 -19 -48 -3 -205 71
-702 240 -1370 505 -1987 113 -264 338 -689 473 -891 l17 -25 -118 -103 c-629
-551 -1244 -1227 -1760 -1934 -248 -341 -636 -947 -663 -1036 -16 -53 14 -121
64 -144 48 -23 134 -22 173 2 17 11 75 82 131 162 354 506 722 939 1217 1435
561 560 1016 937 1657 1370 108 73 202 141 210 150 8 10 14 40 14 74 l0 57
-152 157 c-740 760 -1216 1665 -1443 2740 -40 194 -49 215 -102 242 -37 19
-125 17 -167 -3z"/>
<path d="M3641 6403 c-23 -12 -40 -31 -53 -61 -19 -42 -19 -48 -3 -205 71
-702 240 -1370 505 -1987 113 -264 338 -689 473 -891 l17 -25 -118 -103 c-629
-551 -1244 -1227 -1760 -1934 -248 -341 -636 -947 -663 -1036 -16 -53 14 -121
64 -144 48 -23 134 -22 173 2 17 11 75 82 131 162 354 506 722 939 1217 1435
561 560 1016 937 1657 1370 108 73 202 141 210 150 8 10 14 40 14 74 l0 57
-152 157 c-740 760 -1216 1665 -1443 2740 -40 194 -49 215 -102 242 -37 19
-125 17 -167 -3z"/>
</g>
</svg>
