<?xml version="1.0" standalone="no"?>
<!DOCTYPE svg PUBLIC "-//W3C//DTD SVG 20010904//EN"
 "http://www.w3.org/TR/2001/REC-SVG-20010904/DTD/svg10.dtd">
<svg version="1.0" xmlns="http://www.w3.org/2000/svg"
 width="796.000000pt" height="945.000000pt" viewBox="0 0 796.000000 945.000000"
 preserveAspectRatio="xMidYMid meet">
<metadata>
Created by potrace 1.16, written by Peter Selinger 2001-2019
</metadata>
<g transform="translate(0.000000,945.000000) scale(0.100000,-0.100000)"
fill="#000000" stroke="none">
<path d="M2369 9429 c-20 -12 -46 -38 -57 -58 -31 -57 -106 -374 -98 -416 9
-45 57 -101 99 -114 18 -5 181 -12 362 -15 448 -8 674 -32 719 -76 50 -49 62
8 -456 -2062 l-483 -1927 -655 -481 c-829 -609 -764 -558 -785 -614 -15 -39
-16 -53 -7 -84 16 -52 184 -306 216 -327 42 -28 106 -31 152 -7 21 12 221 156
444 320 223 165 406 298 408 297 1 -1 -162 -663 -364 -1471 -248 -992 -376
-1489 -395 -1530 -34 -73 -95 -139 -152 -164 -105 -47 -332 -69 -772 -76 -181
-3 -344 -10 -362 -15 -66 -21 -86 -59 -138 -271 l-49 -195 25 -48 c13 -27 37
-58 52 -69 l28 -21 3247 -3 c2186 -2 3259 0 3282 7 20 6 48 23 63 39 22 23
151 379 642 1777 382 1085 615 1763 615 1786 0 41 -30 91 -73 123 -26 19 -44
21 -215 24 -112 2 -201 -1 -222 -7 -66 -20 -83 -49 -184 -332 -192 -537 -317
-839 -466 -1134 -351 -694 -729 -1094 -1295 -1370 -336 -165 -669 -254 -1056
-285 -219 -18 -1547 -9 -1614 11 l-50 14 1 57 c1 39 171 737 539 2205 l537
2148 1246 915 c685 503 1267 932 1293 952 61 48 87 110 71 166 -16 52 -184
306 -216 327 -40 26 -106 30 -147 10 -25 -13 -1806 -1318 -1995 -1462 l-32
-24 322 1288 c187 747 332 1306 345 1331 29 57 94 127 146 157 22 13 70 31
107 40 166 38 607 65 1076 65 288 0 308 3 354 58 20 24 36 74 72 219 51 207
51 232 0 292 -42 50 -63 52 -375 42 -598 -22 -1577 -33 -2184 -27 -555 6 -751
10 -1360 31 -163 6 -172 5 -206 -16z"/>
</g>
</svg>
