<?xml version="1.0" standalone="no"?>
<!DOCTYPE svg PUBLIC "-//W3C//DTD SVG 20010904//EN"
 "http://www.w3.org/TR/2001/REC-SVG-20010904/DTD/svg10.dtd">
<svg version="1.0" xmlns="http://www.w3.org/2000/svg"
 width="217.000000pt" height="223.000000pt" viewBox="0 0 217.000000 223.000000"
 preserveAspectRatio="xMidYMid meet">
<metadata>
Created by potrace 1.16, written by Peter Selinger 2001-2019
</metadata>
<g transform="translate(0.000000,223.000000) scale(0.100000,-0.100000)"
fill="#000000" stroke="none">
<path d="M523 2215 c-209 -58 -407 -241 -490 -450 -23 -60 -27 -85 -27 -175
-1 -101 1 -108 35 -180 20 -41 54 -94 75 -117 21 -23 380 -319 797 -657 538
-437 770 -619 798 -627 69 -21 101 -3 272 151 87 79 160 153 167 170 7 17 10
52 8 79 -5 45 -42 101 -564 842 -307 437 -581 818 -608 847 -33 35 -75 65
-125 90 -70 35 -81 37 -180 39 -69 2 -124 -2 -158 -12z"/>
</g>
</svg>
