<?xml version="1.0" standalone="no"?>
<!DOCTYPE svg PUBLIC "-//W3C//DTD SVG 20010904//EN"
 "http://www.w3.org/TR/2001/REC-SVG-20010904/DTD/svg10.dtd">
<svg version="1.0" xmlns="http://www.w3.org/2000/svg"
 width="508.000000pt" height="626.000000pt" viewBox="0 0 508.000000 626.000000"
 preserveAspectRatio="xMidYMid meet">
<metadata>
Created by potrace 1.16, written by Peter Selinger 2001-2019
</metadata>
<g transform="translate(0.000000,626.000000) scale(0.100000,-0.100000)"
fill="#000000" stroke="none">
<path d="M3405 6254 c-542 -57 -1041 -244 -1535 -578 -1005 -678 -1700 -1806
-1852 -3006 -21 -165 -17 -604 6 -765 62 -437 227 -838 471 -1150 72 -92 252
-270 340 -337 304 -230 662 -368 1060 -409 143 -14 461 -7 645 15 735 89 1426
378 1961 823 203 169 486 474 525 568 28 68 16 91 -123 240 -126 137 -162 165
-206 165 -57 0 -88 -22 -165 -119 -94 -117 -295 -326 -409 -424 -511 -439
-1118 -701 -1754 -758 -468 -41 -786 90 -1006 416 -193 285 -250 707 -172
1264 55 396 290 1346 435 1761 204 586 480 1021 849 1338 385 330 826 491
1215 443 242 -30 405 -100 548 -237 l75 -70 -74 -27 c-290 -107 -491 -366
-531 -682 -34 -272 120 -493 392 -561 105 -26 270 -16 390 25 136 46 220 99
325 205 113 114 172 220 217 394 28 108 31 130 31 287 1 154 -2 180 -26 270
-30 111 -94 252 -158 347 -23 35 -82 102 -130 150 -201 200 -479 333 -824 394
-78 14 -440 26 -520 18z"/>
</g>
</svg>
