<?xml version="1.0" standalone="no"?>
<!DOCTYPE svg PUBLIC "-//W3C//DTD SVG 20010904//EN"
 "http://www.w3.org/TR/2001/REC-SVG-20010904/DTD/svg10.dtd">
<svg version="1.0" xmlns="http://www.w3.org/2000/svg"
 width="820.000000pt" height="945.000000pt" viewBox="0 0 820.000000 945.000000"
 preserveAspectRatio="xMidYMid meet">
<metadata>
Created by potrace 1.16, written by Peter Selinger 2001-2019
</metadata>
<g transform="translate(0.000000,945.000000) scale(0.100000,-0.100000)"
fill="#000000" stroke="none">
<path d="M2369 9429 c-20 -12 -46 -38 -57 -58 -31 -57 -106 -374 -98 -416 9
-45 57 -101 99 -114 18 -5 181 -12 362 -15 446 -8 674 -32 719 -76 49 -48 98
158 -934 -3972 -668 -2675 -971 -3872 -991 -3914 -34 -73 -95 -139 -152 -164
-105 -47 -332 -69 -772 -76 -181 -3 -344 -10 -362 -15 -66 -21 -86 -59 -138
-271 l-49 -195 25 -48 c13 -27 37 -58 52 -69 33 -24 48 -24 592 -6 822 27
1915 22 2765 -11 281 -11 286 -11 326 9 23 12 49 33 59 49 21 32 104 351 105
402 0 47 -35 105 -80 130 -35 20 -52 21 -251 21 -384 0 -736 27 -823 64 -28
12 -37 23 -46 56 -6 23 -8 61 -5 84 5 32 352 1434 396 1599 l10 37 927 0 c984
0 1032 2 1287 50 1329 251 2528 1408 2794 2695 50 246 68 575 41 790 -72 596
-358 1077 -825 1390 -248 166 -530 272 -872 326 -134 22 -168 23 -1086 26
-882 4 -948 6 -943 21 3 9 48 190 101 400 56 224 106 405 121 434 34 67 100
137 149 159 103 46 332 68 780 76 315 5 343 7 376 25 52 29 71 71 119 265 47
191 47 221 3 274 -49 58 -66 61 -331 49 -772 -32 -1962 -36 -2732 -10 -696 23
-621 24 -661 -1z m3606 -2333 c39 -10 116 -40 173 -68 270 -132 459 -420 541
-824 103 -502 -12 -1182 -295 -1746 -160 -320 -336 -561 -590 -808 -278 -270
-575 -448 -892 -533 l-117 -32 -757 -3 c-417 -1 -758 1 -758 5 0 4 226 914
502 2021 l503 2013 810 -4 c731 -3 817 -5 880 -21z"/>
</g>
</svg>
