<?xml version="1.0" standalone="no"?>
<!DOCTYPE svg PUBLIC "-//W3C//DTD SVG 20010904//EN"
 "http://www.w3.org/TR/2001/REC-SVG-20010904/DTD/svg10.dtd">
<svg version="1.0" xmlns="http://www.w3.org/2000/svg"
 width="596.000000pt" height="916.000000pt" viewBox="0 0 596.000000 916.000000"
 preserveAspectRatio="xMidYMid meet">
<metadata>
Created by potrace 1.16, written by Peter Selinger 2001-2019
</metadata>
<g transform="translate(0.000000,916.000000) scale(0.100000,-0.100000)"
fill="#000000" stroke="none">
<path d="M4420 9149 c-892 -91 -1869 -704 -2661 -1669 -529 -645 -937 -1377
-1224 -2195 -78 -224 -146 -457 -224 -773 -155 -627 -246 -1133 -293 -1627
-17 -185 -17 -789 0 -950 43 -397 129 -736 252 -991 290 -600 836 -944 1498
-944 782 0 1436 315 2166 1046 501 501 807 1008 1005 1664 312 1040 274 1722
-136 2429 -304 524 -701 785 -1278 842 -162 16 -410 6 -540 -21 -511 -107
-974 -437 -1363 -969 -34 -47 -62 -81 -62 -76 0 14 88 338 146 540 199 684
422 1223 699 1683 607 1012 1463 1642 2230 1642 111 0 296 -25 381 -51 192
-59 340 -177 414 -330 45 -94 44 -97 -35 -98 -61 -1 -181 -38 -260 -79 -91
-48 -219 -173 -267 -262 -65 -119 -83 -190 -83 -325 1 -147 20 -206 97 -290
95 -104 198 -145 363 -145 121 0 197 20 319 83 92 48 201 150 254 239 70 118
119 317 129 523 10 218 -24 382 -113 555 -159 308 -498 503 -953 549 -119 13
-337 12 -461 0z m-998 -3514 c190 -28 311 -86 429 -204 87 -88 145 -180 199
-318 134 -342 135 -680 5 -1328 -54 -268 -259 -1096 -348 -1405 -190 -658
-378 -1025 -710 -1390 -338 -372 -691 -553 -1122 -577 -426 -23 -726 186 -885
616 -92 250 -110 538 -60 973 34 292 135 877 165 948 8 19 26 91 40 160 78
386 215 787 390 1145 297 609 691 1050 1120 1255 255 122 519 164 777 125z"/>
</g>
</svg>
