<?xml version="1.0" standalone="no"?>
<!DOCTYPE svg PUBLIC "-//W3C//DTD SVG 20010904//EN"
 "http://www.w3.org/TR/2001/REC-SVG-20010904/DTD/svg10.dtd">
<svg version="1.0" xmlns="http://www.w3.org/2000/svg"
 width="883.000000pt" height="991.000000pt" viewBox="0 0 883.000000 991.000000"
 preserveAspectRatio="xMidYMid meet">
<metadata>
Created by potrace 1.16, written by Peter Selinger 2001-2019
</metadata>
<g transform="translate(0.000000,991.000000) scale(0.100000,-0.100000)"
fill="#000000" stroke="none">
<path d="M5365 9904 c-1240 -99 -2503 -765 -3517 -1858 -941 -1014 -1570
-2284 -1782 -3597 -54 -332 -61 -426 -61 -859 0 -425 6 -505 56 -800 159 -924
616 -1708 1279 -2197 411 -303 899 -495 1446 -570 158 -21 752 -24 1014 -5
1186 89 2304 365 3435 847 427 183 443 193 452 279 5 52 -22 103 -68 128 -30
16 -62 18 -331 18 l-297 0 -178 -79 c-1010 -448 -1988 -700 -3043 -783 -246
-19 -749 -16 -900 5 -457 65 -848 222 -1195 481 -157 117 -394 354 -512 513
-644 861 -816 2119 -477 3488 314 1266 1027 2452 2000 3325 777 697 1634 1119
2509 1236 162 22 551 25 705 6 319 -40 592 -120 859 -253 773 -384 1305 -1161
1475 -2154 45 -266 59 -437 60 -740 1 -522 -48 -864 -224 -1565 -207 -821
-350 -1265 -534 -1645 -188 -390 -397 -637 -629 -746 -91 -42 -156 -58 -262
-65 -104 -6 -144 8 -182 64 -47 71 -59 264 -28 457 8 55 225 938 480 1963 256
1025 465 1871 465 1880 0 28 -38 81 -72 102 -31 19 -51 20 -319 20 l-286 0
-48 120 c-226 568 -652 944 -1202 1060 -142 30 -379 37 -557 16 -1235 -144
-2447 -1251 -2930 -2675 -232 -681 -276 -1338 -131 -1911 157 -615 516 -1082
1019 -1325 612 -295 1307 -235 1985 170 196 117 381 255 546 406 l80 73 7 -30
c33 -139 45 -180 79 -252 128 -277 386 -464 734 -533 106 -21 388 -18 494 5
693 150 1173 752 1570 1968 109 335 295 1030 355 1328 204 1015 130 1983 -214
2785 -178 416 -415 764 -721 1060 -216 209 -443 370 -708 504 -334 169 -659
268 -1031 316 -120 16 -551 28 -665 19z m-92 -2319 c183 -27 332 -92 483 -210
254 -199 439 -536 519 -946 l26 -135 -326 -1303 c-179 -717 -331 -1313 -337
-1325 -19 -37 -164 -238 -238 -331 -122 -153 -278 -321 -397 -428 -415 -371
-824 -569 -1226 -593 -185 -12 -367 32 -502 121 -82 53 -211 184 -272 275
-261 390 -359 1005 -267 1685 97 715 369 1453 746 2018 362 545 801 946 1203
1101 213 82 382 102 588 71z"/>
</g>
</svg>
