<?xml version="1.0" standalone="no"?>
<!DOCTYPE svg PUBLIC "-//W3C//DTD SVG 20010904//EN"
 "http://www.w3.org/TR/2001/REC-SVG-20010904/DTD/svg10.dtd">
<svg version="1.0" xmlns="http://www.w3.org/2000/svg"
 width="885.000000pt" height="1264.000000pt" viewBox="0 0 885.000000 1264.000000"
 preserveAspectRatio="xMidYMid meet">
<metadata>
Created by potrace 1.16, written by Peter Selinger 2001-2019
</metadata>
<g transform="translate(0.000000,1264.000000) scale(0.100000,-0.100000)"
fill="#000000" stroke="none">
<path d="M4880 12621 c-434 -93 -780 -497 -780 -911 0 -112 19 -198 60 -282
82 -166 197 -262 380 -320 64 -20 95 -23 210 -22 117 0 147 4 224 28 636 193
939 945 542 1341 -160 159 -388 218 -636 166z"/>
<path d="M7415 12634 c-100 -21 -170 -41 -235 -68 -249 -105 -463 -326 -556
-572 -146 -388 13 -762 373 -880 80 -26 100 -29 223 -28 116 0 147 4 223 27
336 103 595 358 693 684 23 74 27 108 28 213 0 115 -2 132 -30 210 -17 47 -47
111 -68 142 -116 175 -324 280 -549 277 -45 -1 -91 -3 -102 -5z"/>
<path d="M5455 10063 c-236 -16 -566 -72 -809 -139 -1546 -426 -3021 -1713
-3882 -3389 -402 -783 -650 -1600 -741 -2440 -24 -229 -25 -809 0 -1023 61
-535 184 -966 397 -1387 102 -203 183 -334 307 -498 823 -1093 2218 -1460
3703 -975 322 105 689 269 1001 448 942 539 1816 1412 2421 2420 875 1458
1195 3159 852 4525 -333 1325 -1266 2229 -2499 2423 -231 37 -521 50 -750 35z
m430 -467 c387 -70 694 -227 966 -496 389 -384 611 -909 691 -1630 19 -175 16
-704 -5 -920 -96 -952 -420 -2162 -832 -3105 -74 -168 -271 -552 -370 -720
-450 -765 -982 -1356 -1575 -1749 -402 -267 -761 -416 -1165 -482 -134 -23
-457 -25 -580 -6 -931 150 -1531 953 -1650 2207 -30 322 -18 823 30 1215 88
712 311 1640 560 2329 348 963 828 1741 1446 2346 333 326 650 555 1024 740
341 168 599 245 975 289 78 9 399 -3 485 -18z"/>
</g>
</svg>
