<?xml version="1.0" standalone="no"?>
<!DOCTYPE svg PUBLIC "-//W3C//DTD SVG 20010904//EN"
 "http://www.w3.org/TR/2001/REC-SVG-20010904/DTD/svg10.dtd">
<svg version="1.0" xmlns="http://www.w3.org/2000/svg"
 width="878.000000pt" height="1275.000000pt" viewBox="0 0 878.000000 1275.000000"
 preserveAspectRatio="xMidYMid meet">
<metadata>
Created by potrace 1.16, written by Peter Selinger 2001-2019
</metadata>
<g transform="translate(0.000000,1275.000000) scale(0.100000,-0.100000)"
fill="#000000" stroke="none">
<path d="M4054 12735 c-32 -16 -172 -163 -192 -202 -18 -33 -15 -114 6 -144 9
-15 325 -351 701 -747 730 -770 721 -761 801 -747 28 5 316 198 1091 733 1021
704 1055 729 1078 776 22 44 23 53 12 94 -6 24 -30 82 -52 128 -34 72 -45 87
-81 105 -31 16 -53 20 -87 16 -33 -3 -297 -122 -922 -414 l-876 -409 -674 409
c-615 375 -678 411 -724 414 -32 2 -61 -2 -81 -12z"/>
<path d="M1081 9352 c-19 -9 -43 -29 -54 -43 -10 -15 -246 -714 -524 -1555
-394 -1195 -503 -1536 -498 -1560 8 -46 45 -96 85 -116 30 -15 64 -18 223 -18
166 0 192 2 226 19 21 11 46 32 55 46 10 14 51 128 93 253 276 832 484 1324
698 1648 253 383 688 618 1300 701 112 15 209 18 710 17 682 0 678 0 683 -75
2 -34 -240 -1015 -958 -3890 -532 -2126 -971 -3863 -983 -3888 -27 -54 -119
-141 -183 -171 -133 -62 -623 -99 -1327 -100 -326 0 -342 -2 -389 -58 -19 -23
-37 -75 -74 -225 l-48 -194 25 -48 c13 -27 37 -58 52 -69 33 -24 47 -24 764
-6 1075 27 2578 22 3674 -11 360 -11 366 -11 406 9 22 12 48 33 58 49 21 32
104 351 105 402 0 47 -35 105 -80 130 -36 20 -51 21 -341 21 -659 1 -1145 35
-1247 88 -41 21 -72 73 -72 119 0 45 1914 7696 1940 7759 67 156 138 168 905
161 557 -5 632 -11 848 -67 218 -56 377 -141 498 -267 82 -85 114 -139 139
-236 75 -296 42 -821 -111 -1735 l-41 -243 24 -47 c42 -84 51 -87 278 -90 183
-3 202 -2 238 17 22 11 49 35 60 53 16 26 77 368 276 1539 141 829 256 1526
256 1549 0 55 -31 105 -81 130 -38 20 -78 20 -3806 20 -3568 0 -3770 -1 -3802
-18z"/>
</g>
</svg>
