<?xml version="1.0" standalone="no"?>
<!DOCTYPE svg PUBLIC "-//W3C//DTD SVG 20010904//EN"
 "http://www.w3.org/TR/2001/REC-SVG-20010904/DTD/svg10.dtd">
<svg version="1.0" xmlns="http://www.w3.org/2000/svg"
 width="812.000000pt" height="956.000000pt" viewBox="0 0 812.000000 956.000000"
 preserveAspectRatio="xMidYMid meet">
<metadata>
Created by potrace 1.16, written by Peter Selinger 2001-2019
</metadata>
<g transform="translate(0.000000,956.000000) scale(0.100000,-0.100000)"
fill="#000000" stroke="none">
<path d="M6370 9550 c-242 -30 -530 -119 -774 -239 -682 -337 -1275 -986
-1583 -1735 -91 -220 -145 -413 -414 -1491 l-274 -1095 -485 0 c-599 0 -547
17 -601 -195 -34 -131 -34 -140 -11 -184 38 -72 34 -71 534 -71 247 0 448 -2
448 -5 0 -3 -130 -526 -290 -1163 -264 -1055 -331 -1307 -391 -1474 l-21 -56
-64 24 c-88 33 -270 80 -389 101 -127 21 -483 24 -595 5 -424 -75 -795 -258
-1066 -527 -119 -117 -202 -232 -275 -380 -137 -279 -153 -485 -52 -678 153
-290 551 -434 1033 -372 270 34 507 109 785 249 290 146 513 307 760 547 l130
127 200 -140 c477 -334 654 -445 899 -564 457 -221 935 -288 1358 -190 225 52
516 180 718 314 526 351 935 906 1110 1506 34 118 36 145 15 187 -30 58 -65
69 -210 69 -192 0 -188 4 -265 -239 -125 -391 -398 -777 -718 -1014 -385 -287
-770 -351 -1277 -212 -294 80 -562 226 -1095 598 -152 106 -287 199 -300 209
l-25 16 28 49 c73 127 200 393 250 523 76 199 94 266 378 1410 137 553 254
1022 260 1043 l10 37 657 0 c634 0 658 1 689 20 42 25 55 53 88 191 26 108 27
120 14 154 -8 21 -27 47 -42 59 -28 21 -37 21 -661 26 l-633 5 293 1165 c162
641 317 1237 345 1325 132 413 282 721 486 998 93 126 339 372 453 454 360
257 698 335 1059 246 278 -68 517 -276 651 -566 111 -240 171 -591 153 -896
l-6 -106 -74 3 c-292 13 -581 -204 -662 -498 -57 -203 -22 -371 99 -484 182
-170 490 -166 735 9 173 123 254 290 314 650 46 276 53 628 16 860 -119 754
-535 1237 -1184 1376 -111 23 -406 34 -531 19z m-4600 -8171 c63 -11 154 -30
201 -44 96 -27 249 -84 249 -92 0 -10 -113 -168 -174 -243 -341 -420 -812
-681 -1184 -656 -306 20 -408 288 -227 594 141 239 428 422 720 461 93 12 273
4 415 -20z"/>
</g>
</svg>
