<?xml version="1.0" standalone="no"?>
<!DOCTYPE svg PUBLIC "-//W3C//DTD SVG 20010904//EN"
 "http://www.w3.org/TR/2001/REC-SVG-20010904/DTD/svg10.dtd">
<svg version="1.0" xmlns="http://www.w3.org/2000/svg"
 width="917.000000pt" height="1252.000000pt" viewBox="0 0 917.000000 1252.000000"
 preserveAspectRatio="xMidYMid meet">
<metadata>
Created by potrace 1.16, written by Peter Selinger 2001-2019
</metadata>
<g transform="translate(0.000000,1252.000000) scale(0.100000,-0.100000)"
fill="#000000" stroke="none">
<path d="M5585 12514 c-22 -2 -92 -9 -155 -15 -395 -37 -877 -160 -1305 -331
-333 -133 -788 -377 -1106 -593 -720 -488 -1358 -1133 -1858 -1875 -639 -950
-1018 -1960 -1137 -3035 -22 -196 -30 -662 -15 -866 63 -864 355 -1633 839
-2209 106 -127 344 -358 462 -449 394 -306 857 -518 1352 -619 76 -16 141 -31
144 -35 4 -3 -24 -128 -61 -276 -76 -307 -77 -321 -16 -382 41 -41 43 -42 221
-58 148 -13 224 -33 336 -87 112 -53 189 -120 234 -206 62 -116 53 -278 -26
-435 -131 -261 -452 -419 -989 -487 -212 -27 -392 -37 -780 -43 -486 -7 -461
3 -515 -206 -17 -62 -30 -130 -30 -152 0 -54 29 -105 76 -133 l39 -23 495 5
c497 5 702 14 990 42 834 80 1370 296 1645 663 226 300 285 669 154 951 -100
215 -327 388 -644 491 -55 18 -101 33 -103 34 -3 2 69 297 74 303 1 2 44 12
96 22 1410 275 2731 1434 3373 2960 63 149 179 494 215 636 23 90 23 91 4 130
-10 21 -34 49 -53 61 -32 22 -43 23 -238 23 -227 0 -259 -7 -291 -60 -11 -17
-32 -79 -47 -138 -15 -59 -54 -184 -86 -278 -462 -1353 -1498 -2438 -2581
-2704 -212 -52 -321 -64 -568 -64 -417 0 -746 73 -1085 238 -865 424 -1292
1286 -1235 2494 24 497 107 1002 275 1673 320 1274 726 2153 1335 2889 118
143 422 450 555 561 676 566 1424 892 2200 958 302 27 566 0 790 -79 527 -187
883 -673 1030 -1405 61 -303 70 -414 70 -840 -1 -396 -6 -483 -56 -832 -22
-150 -22 -151 -2 -185 10 -18 34 -43 53 -55 32 -22 42 -23 239 -23 231 0 258
6 292 69 10 19 232 894 495 1946 l477 1913 -19 38 c-32 64 -72 84 -173 84 -67
0 -93 -4 -117 -19 -17 -10 -257 -257 -534 -549 l-504 -530 -77 113 c-180 267
-407 489 -663 649 -245 153 -554 264 -866 311 -109 16 -523 29 -625 19z"/>
</g>
</svg>
