<?xml version="1.0" standalone="no"?>
<!DOCTYPE svg PUBLIC "-//W3C//DTD SVG 20010904//EN"
 "http://www.w3.org/TR/2001/REC-SVG-20010904/DTD/svg10.dtd">
<svg version="1.0" xmlns="http://www.w3.org/2000/svg"
 width="373.000000pt" height="253.000000pt" viewBox="0 0 373.000000 253.000000"
 preserveAspectRatio="xMidYMid meet">
<metadata>
Created by potrace 1.16, written by Peter Selinger 2001-2019
</metadata>
<g transform="translate(0.000000,253.000000) scale(0.100000,-0.100000)"
fill="#000000" stroke="none">
<path d="M2289 2507 c-69 -42 -2256 -2048 -2273 -2084 -38 -80 -23 -116 119
-274 142 -157 183 -176 273 -126 22 12 429 360 903 772 473 413 865 750 871
750 5 0 229 -337 497 -750 524 -807 515 -794 599 -795 45 0 74 16 250 142 117
84 157 118 172 148 24 48 25 90 4 133 -38 74 -1208 2034 -1228 2056 -47 53
-128 65 -187 28z"/>
</g>
</svg>
