<?xml version="1.0" standalone="no"?>
<!DOCTYPE svg PUBLIC "-//W3C//DTD SVG 20010904//EN"
 "http://www.w3.org/TR/2001/REC-SVG-20010904/DTD/svg10.dtd">
<svg version="1.0" xmlns="http://www.w3.org/2000/svg"
 width="771.000000pt" height="918.000000pt" viewBox="0 0 771.000000 918.000000"
 preserveAspectRatio="xMidYMid meet">
<metadata>
Created by potrace 1.16, written by Peter Selinger 2001-2019
</metadata>
<g transform="translate(0.000000,918.000000) scale(0.100000,-0.100000)"
fill="#000000" stroke="none">
<path d="M5040 9164 c-132 -34 -155 -52 -1205 -914 -555 -456 -1020 -844
-1032 -861 -17 -23 -23 -46 -23 -82 0 -44 8 -64 60 -152 33 -56 70 -111 83
-123 46 -43 115 -54 170 -26 80 41 2160 1250 2220 1291 183 123 285 324 257
507 -39 263 -280 426 -530 360z"/>
<path d="M7160 9164 c-132 -34 -155 -52 -1205 -914 -555 -456 -1020 -844
-1032 -861 -17 -23 -23 -46 -23 -82 0 -44 8 -64 60 -152 33 -56 70 -111 83
-123 46 -43 115 -54 170 -26 80 41 2160 1250 2220 1291 183 123 285 324 257
507 -39 263 -280 426 -530 360z"/>
<path d="M1625 6244 c-263 -47 -518 -183 -736 -391 -358 -342 -673 -930 -855
-1598 -40 -148 -38 -178 16 -230 l31 -30 172 -3 c242 -4 239 -6 302 233 79
302 203 642 317 869 184 367 411 614 648 705 136 53 315 65 387 27 83 -43 114
-114 120 -282 8 -198 -28 -401 -124 -699 -69 -213 -111 -310 -261 -610 -144
-288 -175 -368 -242 -635 -195 -778 -270 -1268 -270 -1769 0 -465 67 -820 207
-1094 71 -139 146 -239 264 -352 188 -181 410 -294 702 -357 87 -19 133 -22
312 -22 180 0 225 3 315 23 290 62 559 195 796 394 98 82 269 256 337 343 35
45 43 51 49 37 168 -437 451 -684 890 -780 128 -27 385 -25 498 5 422 112 732
495 975 1202 61 180 121 386 195 670 68 262 69 279 10 335 l-31 30 -172 3
c-158 2 -175 1 -205 -18 -18 -11 -39 -35 -47 -52 -8 -18 -46 -155 -85 -305
-127 -494 -219 -770 -335 -1008 -83 -169 -132 -243 -226 -337 -106 -108 -161
-133 -289 -133 -86 1 -100 4 -148 29 -121 67 -172 207 -172 471 0 155 19 321
62 525 16 80 259 1062 539 2182 380 1522 509 2052 509 2095 0 114 -44 218
-119 286 -183 165 -504 134 -707 -68 -133 -133 -90 16 -649 -2223 -489 -1959
-496 -1984 -546 -2085 -164 -326 -369 -624 -566 -822 -231 -233 -468 -357
-733 -387 -213 -23 -332 13 -461 141 -62 62 -85 94 -122 171 -79 163 -109 309
-127 615 -29 520 63 1157 311 2149 74 294 97 354 258 677 145 290 201 426 241
584 107 424 36 834 -195 1122 -231 289 -651 437 -1040 367z"/>
</g>
</svg>
