<?xml version="1.0" standalone="no"?>
<!DOCTYPE svg PUBLIC "-//W3C//DTD SVG 20010904//EN"
 "http://www.w3.org/TR/2001/REC-SVG-20010904/DTD/svg10.dtd">
<svg version="1.0" xmlns="http://www.w3.org/2000/svg"
 width="1349.000000pt" height="1260.000000pt" viewBox="0 0 1349.000000 1260.000000"
 preserveAspectRatio="xMidYMid meet">
<metadata>
Created by potrace 1.16, written by Peter Selinger 2001-2019
</metadata>
<g transform="translate(0.000000,1260.000000) scale(0.100000,-0.100000)"
fill="#000000" stroke="none">
<path d="M5840 12589 c-711 -70 -1345 -402 -1713 -897 -228 -308 -390 -689
-531 -1250 -51 -204 -148 -676 -277 -1359 l-54 -283 -613 0 c-495 0 -619 -3
-645 -14 -64 -26 -81 -59 -133 -269 l-48 -194 25 -48 c48 -97 -4 -90 685 -93
464 -2 604 -5 604 -15 0 -12 -553 -2887 -646 -3362 -119 -603 -717 -3389 -785
-3657 -45 -179 -125 -352 -215 -467 -114 -146 -218 -189 -394 -162 -88 13
-183 43 -224 70 l-28 19 46 20 c67 30 188 116 238 170 102 109 165 227 204
381 68 266 -20 499 -233 614 -275 148 -692 38 -913 -242 -237 -298 -250 -776
-31 -1095 147 -213 407 -370 718 -433 132 -27 400 -24 506 5 256 70 447 189
682 426 146 147 265 298 387 491 87 138 248 465 322 652 222 561 442 1386 666
2488 53 264 790 4077 790 4090 0 3 707 5 1570 5 1295 0 1570 -2 1570 -13 0
-22 -741 -3863 -834 -4322 -234 -1157 -408 -1868 -563 -2294 -61 -170 -107
-259 -196 -377 -275 -369 -577 -594 -874 -650 -185 -35 -512 7 -687 89 l-49
22 74 49 c98 65 157 123 219 211 64 94 96 165 126 284 68 266 -20 499 -233
614 -275 148 -692 38 -913 -242 -178 -224 -234 -555 -141 -828 156 -456 751
-747 1471 -720 456 18 938 224 1375 590 129 109 389 376 484 499 409 527 726
1451 1061 3093 47 230 770 3977 770 3989 0 3 653 6 1451 6 1377 0 1450 -1
1445 -17 -16 -54 -957 -3831 -970 -3896 -77 -374 -7 -763 191 -1059 102 -154
289 -311 465 -393 172 -79 326 -114 533 -122 115 -4 157 -2 235 15 221 46 367
128 546 306 90 90 142 153 203 245 211 318 390 778 556 1429 41 160 39 185
-16 238 l-30 29 -222 3 c-207 2 -224 1 -254 -17 -18 -11 -39 -33 -47 -49 -8
-16 -38 -120 -66 -231 -185 -738 -345 -1132 -540 -1331 -86 -88 -146 -120
-236 -128 -130 -10 -231 49 -273 162 -60 162 -57 441 9 761 10 49 473 1910
1029 4134 556 2224 1011 4053 1011 4065 0 32 -36 84 -72 106 -32 19 -52 20
-466 20 -473 0 -481 -1 -518 -58 -9 -14 -63 -208 -120 -431 -74 -292 -103
-393 -103 -361 -10 404 -276 704 -769 869 -444 148 -1104 173 -1630 60 -693
-148 -1220 -498 -1557 -1034 -79 -124 -204 -383 -264 -546 -134 -361 -204
-666 -453 -1976 l-33 -173 -1573 0 c-1494 0 -1573 1 -1568 18 3 9 55 276 115
592 144 747 188 965 256 1266 118 518 243 892 341 1022 33 42 188 162 271 208
313 176 698 226 1098 144 91 -18 265 -77 265 -88 0 -4 -28 -25 -61 -46 -89
-58 -159 -125 -218 -210 -65 -95 -97 -165 -127 -285 -55 -216 -10 -409 126
-534 146 -136 351 -179 573 -123 387 98 631 426 631 846 0 138 -18 217 -78
345 -151 321 -527 542 -1057 621 -126 18 -515 26 -649 13z m4850 -509 c202
-18 378 -53 509 -102 l64 -24 -79 -56 c-166 -116 -266 -266 -320 -477 -55
-216 -10 -409 126 -534 146 -136 351 -179 573 -123 225 57 414 201 524 398 19
35 33 56 30 48 -2 -8 -138 -554 -303 -1212 l-299 -1198 -1468 0 c-1394 0
-1468 1 -1463 18 3 9 59 301 126 647 224 1164 324 1587 457 1924 91 233 149
315 301 424 298 214 734 309 1222 267z m1507 -552 c-3 -8 -6 -5 -6 6 -1 11 2
17 5 13 3 -3 4 -12 1 -19z"/>
</g>
</svg>
