<?xml version="1.0" standalone="no"?>
<!DOCTYPE svg PUBLIC "-//W3C//DTD SVG 20010904//EN"
 "http://www.w3.org/TR/2001/REC-SVG-20010904/DTD/svg10.dtd">
<svg version="1.0" xmlns="http://www.w3.org/2000/svg"
 width="276.000000pt" height="271.000000pt" viewBox="0 0 276.000000 271.000000"
 preserveAspectRatio="xMidYMid meet">
<metadata>
Created by potrace 1.16, written by Peter Selinger 2001-2019
</metadata>
<g transform="translate(0.000000,271.000000) scale(0.100000,-0.100000)"
fill="#000000" stroke="none">
<path d="M2560 2696 c-19 -7 -70 -38 -112 -69 -192 -142 -436 -267 -906 -462
-686 -285 -924 -422 -1182 -685 -291 -296 -411 -607 -341 -882 78 -303 345
-521 719 -584 129 -22 386 -15 527 16 294 63 583 202 880 424 133 99 507 465
563 550 59 90 38 177 -55 236 -53 34 -106 39 -152 16 -15 -8 -69 -61 -119
-119 -231 -262 -508 -452 -777 -533 -119 -36 -316 -45 -414 -19 -84 22 -152
56 -195 100 -57 57 -71 90 -70 175 0 114 20 147 167 273 179 151 557 459 1125
916 280 225 510 417 518 432 59 115 -57 257 -176 215z"/>
</g>
</svg>
