<?xml version="1.0" standalone="no"?>
<!DOCTYPE svg PUBLIC "-//W3C//DTD SVG 20010904//EN"
 "http://www.w3.org/TR/2001/REC-SVG-20010904/DTD/svg10.dtd">
<svg version="1.0" xmlns="http://www.w3.org/2000/svg"
 width="872.000000pt" height="796.000000pt" viewBox="0 0 872.000000 796.000000"
 preserveAspectRatio="xMidYMid meet">
<metadata>
Created by potrace 1.16, written by Peter Selinger 2001-2019
</metadata>
<g transform="translate(0.000000,796.000000) scale(0.100000,-0.100000)"
fill="#000000" stroke="none">
<path d="M8325 7927 c-269 -115 -8205 -3732 -8231 -3752 -48 -37 -87 -124 -87
-195 0 -71 39 -158 86 -194 55 -40 6380 -3759 6417 -3773 114 -41 254 19 306
131 46 98 22 234 -52 296 -16 14 -1360 808 -2987 1765 -1626 957 -2957 1742
-2957 1745 0 3 1747 799 3883 1770 2845 1294 3892 1774 3919 1798 54 48 82
113 81 187 0 139 -98 242 -238 252 -51 3 -71 -1 -140 -30z"/>
</g>
</svg>
