<?xml version="1.0" standalone="no"?>
<!DOCTYPE svg PUBLIC "-//W3C//DTD SVG 20010904//EN"
 "http://www.w3.org/TR/2001/REC-SVG-20010904/DTD/svg10.dtd">
<svg version="1.0" xmlns="http://www.w3.org/2000/svg"
 width="885.000000pt" height="1241.000000pt" viewBox="0 0 885.000000 1241.000000"
 preserveAspectRatio="xMidYMid meet">
<metadata>
Created by potrace 1.16, written by Peter Selinger 2001-2019
</metadata>
<g transform="translate(0.000000,1241.000000) scale(0.100000,-0.100000)"
fill="#000000" stroke="none">
<path d="M7004 12390 c-40 -10 -96 -31 -125 -45 -30 -15 -529 -291 -1109 -612
-662 -368 -1067 -598 -1087 -618 -51 -53 -51 -82 -3 -276 32 -128 49 -178 68
-201 28 -33 77 -58 116 -58 42 0 2294 778 2381 823 150 78 279 235 320 393 22
84 20 217 -5 297 -74 240 -305 363 -556 297z"/>
<path d="M5455 10063 c-236 -16 -566 -72 -809 -139 -1546 -426 -3021 -1713
-3882 -3389 -402 -783 -650 -1600 -741 -2440 -24 -229 -25 -809 0 -1023 61
-535 184 -966 397 -1387 102 -203 183 -334 307 -498 823 -1093 2218 -1460
3703 -975 322 105 689 269 1001 448 942 539 1816 1412 2421 2420 875 1458
1195 3159 852 4525 -333 1325 -1266 2229 -2499 2423 -231 37 -521 50 -750 35z
m293 -554 c219 -24 404 -78 597 -174 157 -78 285 -169 416 -293 175 -167 296
-334 415 -577 135 -277 220 -586 266 -970 20 -169 17 -777 -5 -975 -68 -609
-211 -1266 -434 -2000 -373 -1229 -904 -2193 -1597 -2899 -455 -463 -913 -766
-1406 -931 -741 -248 -1422 -106 -1900 397 -243 255 -406 555 -520 958 -212
752 -182 1652 96 2875 328 1439 777 2445 1458 3265 123 148 425 451 566 568
437 363 924 614 1390 717 206 46 462 61 658 39z"/>
</g>
</svg>
