<?xml version="1.0" standalone="no"?>
<!DOCTYPE svg PUBLIC "-//W3C//DTD SVG 20010904//EN"
 "http://www.w3.org/TR/2001/REC-SVG-20010904/DTD/svg10.dtd">
<svg version="1.0" xmlns="http://www.w3.org/2000/svg"
 width="496.000000pt" height="425.000000pt" viewBox="0 0 496.000000 425.000000"
 preserveAspectRatio="xMidYMid meet">
<metadata>
Created by potrace 1.16, written by Peter Selinger 2001-2019
</metadata>
<g transform="translate(0.000000,425.000000) scale(0.100000,-0.100000)"
fill="#000000" stroke="none">
<path d="M1945 4235 c-85 -43 -387 -308 -605 -531 -585 -599 -1004 -1305
-1215 -2044 -88 -309 -119 -506 -118 -755 0 -194 16 -304 64 -441 79 -225 211
-364 412 -431 75 -25 95 -27 232 -27 134 1 160 4 240 28 285 86 491 265 621
540 65 139 88 237 88 381 -1 102 -5 132 -27 201 -51 155 -148 267 -292 335
-232 110 -547 86 -795 -61 -57 -34 -80 -44 -76 -32 2 9 18 69 35 132 224 855
807 1711 1581 2324 92 73 120 112 120 164 0 40 -10 60 -68 135 -71 93 -128
116 -197 82z"/>
<path d="M4685 4235 c-85 -43 -387 -308 -605 -531 -585 -599 -1004 -1305
-1215 -2044 -88 -309 -119 -506 -118 -755 0 -194 16 -304 64 -441 79 -225 211
-364 412 -431 75 -25 95 -27 232 -27 134 1 160 4 240 28 285 86 491 265 621
540 65 139 88 237 88 381 -1 102 -5 132 -27 201 -51 155 -148 267 -292 335
-232 110 -547 86 -795 -61 -57 -34 -80 -44 -76 -32 2 9 18 69 35 132 224 855
807 1711 1581 2324 92 73 120 112 120 164 0 40 -10 60 -68 135 -71 93 -128
116 -197 82z"/>
</g>
</svg>
