<?xml version="1.0" standalone="no"?>
<!DOCTYPE svg PUBLIC "-//W3C//DTD SVG 20010904//EN"
 "http://www.w3.org/TR/2001/REC-SVG-20010904/DTD/svg10.dtd">
<svg version="1.0" xmlns="http://www.w3.org/2000/svg"
 width="918.000000pt" height="976.000000pt" viewBox="0 0 918.000000 976.000000"
 preserveAspectRatio="xMidYMid meet">
<metadata>
Created by potrace 1.16, written by Peter Selinger 2001-2019
</metadata>
<g transform="translate(0.000000,976.000000) scale(0.100000,-0.100000)"
fill="#000000" stroke="none">
<path d="M175 9747 c-63 -29 -79 -62 -131 -270 l-48 -194 25 -48 c45 -90 41
-89 362 -97 411 -9 596 -33 659 -86 67 -56 35 256 454 -4513 356 -4068 387
-4407 408 -4448 15 -32 34 -51 65 -68 42 -22 54 -23 246 -23 252 0 283 7 364
88 51 50 344 545 2461 4147 1322 2250 2407 4091 2412 4093 4 2 42 56 85 120
143 217 373 424 587 527 204 98 517 165 768 165 148 0 170 27 234 283 l48 194
-25 48 c-13 27 -37 58 -52 69 -33 24 -55 24 -397 6 -519 -27 -1361 -22 -2080
11 -243 12 -246 11 -288 -10 -23 -12 -49 -32 -58 -46 -20 -30 -103 -356 -104
-404 0 -83 76 -151 172 -151 84 0 217 -19 293 -41 102 -30 177 -74 239 -139
67 -70 92 -140 83 -235 -6 -59 -16 -90 -69 -217 -21 -49 -3819 -6520 -3824
-6515 -1 1 -138 1552 -304 3446 -303 3443 -303 3444 -284 3479 39 72 130 121
309 167 131 33 243 45 490 52 313 8 303 0 375 290 47 191 47 221 3 274 -49 58
-66 60 -335 49 -780 -31 -1943 -36 -2583 -10 -534 21 -528 21 -560 7z"/>
</g>
</svg>
