<?xml version="1.0" standalone="no"?>
<!DOCTYPE svg PUBLIC "-//W3C//DTD SVG 20010904//EN"
 "http://www.w3.org/TR/2001/REC-SVG-20010904/DTD/svg10.dtd">
<svg version="1.0" xmlns="http://www.w3.org/2000/svg"
 width="819.000000pt" height="603.000000pt" viewBox="0 0 819.000000 603.000000"
 preserveAspectRatio="xMidYMid meet">
<metadata>
Created by potrace 1.16, written by Peter Selinger 2001-2019
</metadata>
<g transform="translate(0.000000,603.000000) scale(0.100000,-0.100000)"
fill="#000000" stroke="none">
<path d="M7511 6014 c-129 -27 -282 -120 -376 -227 -65 -74 -109 -150 -140
-242 -24 -70 -27 -92 -23 -175 5 -125 36 -193 142 -310 201 -221 316 -468 368
-785 19 -120 16 -454 -6 -595 -21 -140 -188 -807 -291 -1168 -214 -752 -429
-1260 -683 -1617 -71 -98 -244 -280 -331 -346 -91 -69 -268 -154 -371 -179
-236 -57 -495 -26 -677 81 -93 54 -221 190 -270 284 -99 191 -136 376 -136
685 -1 229 11 348 59 611 15 79 211 884 436 1789 390 1567 410 1648 405 1718
-21 346 -467 449 -747 173 -119 -118 -93 -30 -529 -1776 -214 -858 -399 -1607
-411 -1665 -45 -217 -62 -363 -67 -575 l-6 -210 -44 -105 c-97 -227 -260 -515
-372 -655 -122 -152 -288 -285 -425 -339 -134 -54 -338 -58 -521 -10 -85 22
-250 105 -315 158 -310 258 -408 748 -290 1454 82 489 250 1034 685 2222 111
303 150 443 166 602 38 375 -90 747 -330 959 -222 197 -558 287 -864 234 -537
-94 -975 -535 -1312 -1321 -54 -125 -182 -506 -215 -640 -23 -90 -23 -91 -4
-129 34 -69 59 -80 198 -83 197 -6 212 7 266 216 18 70 57 204 87 297 263 814
607 1259 1026 1325 103 17 197 8 251 -24 149 -87 155 -414 15 -896 -17 -58
-89 -262 -159 -455 -524 -1431 -678 -1971 -712 -2498 -41 -621 140 -1119 517
-1420 182 -144 379 -239 628 -302 190 -48 316 -65 527 -71 146 -5 206 -3 285
10 385 64 707 296 991 716 l68 100 41 -77 c224 -428 666 -688 1265 -743 339
-32 620 15 885 146 160 79 280 169 440 329 214 213 354 416 528 765 261 521
438 1055 713 2152 167 669 229 963 275 1313 32 244 33 594 1 742 -45 209 -99
321 -206 429 -76 75 -125 104 -221 129 -71 18 -128 18 -214 -1z"/>
</g>
</svg>
