<?xml version="1.0" standalone="no"?>
<!DOCTYPE svg PUBLIC "-//W3C//DTD SVG 20010904//EN"
 "http://www.w3.org/TR/2001/REC-SVG-20010904/DTD/svg10.dtd">
<svg version="1.0" xmlns="http://www.w3.org/2000/svg"
 width="521.000000pt" height="947.000000pt" viewBox="0 0 521.000000 947.000000"
 preserveAspectRatio="xMidYMid meet">
<metadata>
Created by potrace 1.16, written by Peter Selinger 2001-2019
</metadata>
<g transform="translate(0.000000,947.000000) scale(0.100000,-0.100000)"
fill="#000000" stroke="none">
<path d="M4345 9454 c-170 -38 -327 -124 -446 -243 -214 -215 -313 -525 -249
-775 26 -104 63 -169 137 -244 207 -210 615 -217 914 -17 43 29 79 51 79 49 0
-3 -21 -57 -46 -122 -199 -503 -577 -976 -1035 -1294 -86 -60 -125 -84 -301
-188 -98 -58 -112 -122 -48 -218 42 -62 85 -92 136 -92 32 0 158 66 298 157
648 421 1149 1074 1344 1754 62 213 67 250 66 449 -1 217 -15 286 -89 438 -80
160 -200 269 -365 325 -72 25 -103 31 -205 33 -83 3 -141 -1 -190 -12z"/>
<path d="M2425 8452 c-33 -10 -85 -31 -115 -47 -74 -38 -180 -145 -218 -222
-24 -48 -97 -322 -313 -1187 l-281 -1126 -670 0 c-731 0 -699 3 -750 -59 -37
-43 -82 -229 -68 -280 10 -37 46 -79 87 -100 15 -8 206 -11 652 -11 412 0 631
-3 631 -10 0 -5 -220 -891 -489 -1967 -308 -1232 -494 -1994 -501 -2056 -16
-122 -8 -364 14 -467 92 -423 351 -731 720 -855 117 -39 211 -56 346 -62 519
-23 1029 264 1459 821 231 299 439 674 598 1080 59 152 62 180 21 231 -34 44
-75 55 -198 55 -121 0 -168 -13 -194 -52 -8 -12 -47 -104 -86 -203 -166 -416
-372 -787 -583 -1050 -94 -116 -279 -292 -378 -358 -108 -71 -235 -131 -336
-158 -104 -28 -310 -32 -364 -7 -192 86 -244 376 -158 888 10 63 247 1027 525
2143 l506 2027 665 0 c716 0 690 -2 741 53 27 28 71 187 72 253 0 51 -32 103
-80 126 -32 17 -85 18 -657 18 -404 0 -623 3 -623 10 0 5 122 497 271 1092
262 1049 271 1086 267 1163 -8 143 -87 256 -216 306 -79 30 -215 35 -297 11z"/>
</g>
</svg>
