<?xml version="1.0" standalone="no"?>
<!DOCTYPE svg PUBLIC "-//W3C//DTD SVG 20010904//EN"
 "http://www.w3.org/TR/2001/REC-SVG-20010904/DTD/svg10.dtd">
<svg version="1.0" xmlns="http://www.w3.org/2000/svg"
 width="470.000000pt" height="402.000000pt" viewBox="0 0 470.000000 402.000000"
 preserveAspectRatio="xMidYMid meet">
<metadata>
Created by potrace 1.16, written by Peter Selinger 2001-2019
</metadata>
<g transform="translate(0.000000,402.000000) scale(0.100000,-0.100000)"
fill="#000000" stroke="none">
<path d="M1255 4003 c-267 -57 -494 -234 -620 -483 -89 -177 -117 -371 -75
-534 26 -104 63 -169 137 -244 207 -210 615 -217 914 -17 43 29 79 49 79 43 0
-5 -14 -64 -31 -130 -213 -845 -750 -1654 -1508 -2273 -111 -90 -132 -112
-141 -145 -13 -47 2 -89 51 -151 65 -83 133 -89 224 -20 215 163 541 472 729
691 480 561 818 1198 981 1848 173 693 64 1206 -291 1374 -120 56 -300 73
-449 41z"/>
<path d="M3865 4003 c-267 -57 -494 -234 -620 -483 -89 -177 -117 -371 -75
-534 26 -104 63 -169 137 -244 207 -210 615 -217 914 -17 43 29 79 49 79 43 0
-5 -14 -64 -31 -130 -213 -845 -750 -1654 -1508 -2273 -111 -90 -132 -112
-141 -145 -13 -47 2 -89 51 -151 65 -83 133 -89 224 -20 215 163 541 472 729
691 480 561 818 1198 981 1848 173 693 64 1206 -291 1374 -120 56 -300 73
-449 41z"/>
</g>
</svg>
