<?xml version="1.0" standalone="no"?>
<!DOCTYPE svg PUBLIC "-//W3C//DTD SVG 20010904//EN"
 "http://www.w3.org/TR/2001/REC-SVG-20010904/DTD/svg10.dtd">
<svg version="1.0" xmlns="http://www.w3.org/2000/svg"
 width="594.000000pt" height="976.000000pt" viewBox="0 0 594.000000 976.000000"
 preserveAspectRatio="xMidYMid meet">
<metadata>
Created by potrace 1.16, written by Peter Selinger 2001-2019
</metadata>
<g transform="translate(0.000000,976.000000) scale(0.100000,-0.100000)"
fill="#000000" stroke="none">
<path d="M2180 9684 c-1024 -79 -1010 -77 -1051 -136 -22 -31 -109 -354 -109
-407 0 -47 36 -105 80 -130 34 -19 53 -21 201 -21 299 0 561 -28 654 -69 74
-33 80 -47 79 -185 l-1 -121 -1011 -4040 c-556 -2222 -1014 -4067 -1017 -4100
-19 -167 68 -336 213 -413 160 -85 342 -82 530 9 68 33 102 58 167 123 141
141 112 46 506 1620 l346 1381 29 -3 c63 -7 264 -56 364 -89 421 -140 712
-389 814 -695 57 -171 56 -335 -3 -608 -43 -196 -55 -319 -48 -505 9 -245 58
-440 160 -639 144 -283 379 -487 674 -587 154 -52 232 -63 423 -63 157 0 185
3 273 27 198 53 377 158 540 316 181 175 303 348 445 630 146 287 272 626 372
1002 47 174 46 201 -10 254 l-31 30 -222 3 c-207 2 -224 1 -254 -17 -18 -11
-39 -33 -47 -49 -8 -16 -38 -119 -65 -228 -105 -420 -217 -755 -319 -959 -177
-356 -393 -522 -650 -501 -209 17 -292 174 -279 531 8 219 29 343 140 825 18
82 21 124 21 305 0 196 -2 217 -26 308 -154 567 -679 956 -1546 1146 -74 16
-136 31 -138 34 -2 2 44 44 104 93 146 120 473 449 738 739 329 362 486 526
624 653 312 288 557 448 820 536 165 55 383 80 473 55 62 -17 120 -77 141
-145 6 -20 0 -23 -90 -44 -289 -66 -512 -271 -602 -550 -46 -144 -53 -246 -22
-365 44 -173 154 -286 335 -347 59 -19 90 -23 200 -23 123 1 136 3 232 36 382
134 571 435 590 939 9 245 -23 414 -112 595 -100 202 -258 335 -472 397 -110
32 -360 32 -509 0 -367 -79 -706 -275 -1094 -634 -158 -146 -268 -260 -609
-633 -425 -465 -665 -699 -890 -868 -109 -82 -285 -190 -289 -178 -1 4 315
1278 703 2830 388 1551 705 2840 705 2862 0 88 -73 150 -172 148 -29 -1 -483
-35 -1008 -75z"/>
</g>
</svg>
