<?xml version="1.0" standalone="no"?>
<!DOCTYPE svg PUBLIC "-//W3C//DTD SVG 20010904//EN"
 "http://www.w3.org/TR/2001/REC-SVG-20010904/DTD/svg10.dtd">
<svg version="1.0" xmlns="http://www.w3.org/2000/svg"
 width="492.000000pt" height="845.000000pt" viewBox="0 0 492.000000 845.000000"
 preserveAspectRatio="xMidYMid meet">
<metadata>
Created by potrace 1.16, written by Peter Selinger 2001-2019
</metadata>
<g transform="translate(0.000000,845.000000) scale(0.100000,-0.100000)"
fill="#000000" stroke="none">
<path d="M3233 8435 c-456 -58 -955 -262 -1381 -564 -237 -168 -523 -429 -720
-656 -552 -639 -900 -1415 -1004 -2235 -17 -138 -17 -594 0 -715 54 -377 178
-728 349 -990 246 -375 618 -652 1030 -767 46 -13 83 -26 83 -31 0 -4 -38
-161 -85 -348 -92 -368 -94 -385 -48 -440 39 -45 69 -56 183 -62 135 -8 243
-36 355 -91 110 -54 183 -123 228 -216 30 -61 32 -71 32 -175 -1 -93 -5 -121
-27 -183 -131 -363 -502 -544 -1233 -602 -77 -6 -302 -13 -500 -16 -213 -3
-371 -10 -388 -16 -39 -15 -84 -71 -98 -120 -23 -85 7 -160 78 -193 35 -17 70
-18 503 -12 498 7 689 16 977 47 442 49 743 125 998 253 134 67 205 116 299
206 138 133 222 277 266 455 31 126 26 298 -13 406 -45 127 -140 246 -263 331
-101 69 -325 160 -477 193 -15 4 -27 10 -27 14 0 4 31 128 68 277 l68 269 135
22 c881 145 1701 629 2206 1301 79 106 92 143 69 198 -18 41 -137 170 -178
191 -71 37 -124 9 -219 -116 -469 -619 -1152 -1063 -1874 -1220 -96 -20 -98
-20 -111 -2 -34 49 -60 52 -411 52 -302 0 -330 -2 -358 -19 -30 -18 -31 -18
-80 7 -120 59 -268 193 -352 317 -221 329 -287 783 -202 1395 53 382 228 1108
370 1534 103 309 266 665 405 886 383 609 917 1019 1426 1094 274 41 551 -8
773 -138 84 -49 227 -189 272 -266 51 -88 51 -86 -9 -94 -146 -20 -304 -101
-409 -214 -144 -152 -220 -399 -175 -567 56 -212 241 -336 481 -322 283 16
521 199 610 467 73 221 73 475 1 686 -54 158 -133 283 -256 405 -198 195 -442
312 -785 376 -115 21 -442 26 -582 8z"/>
</g>
</svg>
