<?xml version="1.0" standalone="no"?>
<!DOCTYPE svg PUBLIC "-//W3C//DTD SVG 20010904//EN"
 "http://www.w3.org/TR/2001/REC-SVG-20010904/DTD/svg10.dtd">
<svg version="1.0" xmlns="http://www.w3.org/2000/svg"
 width="679.000000pt" height="900.000000pt" viewBox="0 0 679.000000 900.000000"
 preserveAspectRatio="xMidYMid meet">
<metadata>
Created by potrace 1.16, written by Peter Selinger 2001-2019
</metadata>
<g transform="translate(0.000000,900.000000) scale(0.100000,-0.100000)"
fill="#000000" stroke="none">
<path d="M6480 8978 c-40 -21 -106 -106 -630 -815 -322 -435 -588 -795 -592
-798 -4 -4 -44 16 -89 45 -45 29 -132 76 -193 106 -286 136 -564 193 -891 181
-369 -14 -696 -102 -1080 -292 -274 -135 -501 -285 -750 -494 -120 -101 -380
-361 -491 -492 -600 -704 -985 -1590 -1080 -2482 -20 -189 -14 -625 10 -785
69 -456 241 -873 484 -1173 l51 -63 -33 -45 c-18 -25 -290 -394 -605 -820
-315 -425 -577 -784 -582 -798 -15 -41 -10 -84 16 -129 21 -36 40 -50 109 -85
92 -45 121 -47 181 -11 18 11 258 328 609 803 319 431 585 790 592 798 11 12
26 6 95 -39 45 -29 132 -76 193 -106 286 -136 564 -193 891 -181 369 14 696
102 1080 292 274 135 501 285 750 494 120 101 380 361 491 492 577 677 953
1516 1071 2389 25 188 26 702 1 867 -71 466 -241 881 -486 1184 l-51 63 33 45
c18 25 290 394 605 820 315 425 577 784 582 798 15 41 10 84 -16 129 -21 35
-40 50 -106 83 -45 23 -91 41 -103 41 -12 0 -42 -10 -66 -22z m-2215 -1698
c158 -23 285 -70 410 -152 82 -54 235 -199 235 -223 0 -9 -3190 -4336 -3247
-4404 -7 -9 -14 10 -38 102 -45 180 -59 312 -59 567 0 383 53 729 203 1327
131 521 262 901 431 1248 312 642 765 1132 1275 1380 275 134 554 188 790 155z
m884 -857 c107 -400 89 -906 -54 -1564 -108 -497 -249 -976 -386 -1317 -315
-784 -821 -1384 -1404 -1667 -447 -217 -872 -218 -1200 -3 -92 60 -238 202
-233 227 3 18 3239 4400 3249 4401 4 0 16 -35 28 -77z"/>
</g>
</svg>
