<?xml version="1.0" standalone="no"?>
<!DOCTYPE svg PUBLIC "-//W3C//DTD SVG 20010904//EN"
 "http://www.w3.org/TR/2001/REC-SVG-20010904/DTD/svg10.dtd">
<svg version="1.0" xmlns="http://www.w3.org/2000/svg"
 width="867.000000pt" height="1260.000000pt" viewBox="0 0 867.000000 1260.000000"
 preserveAspectRatio="xMidYMid meet">
<metadata>
Created by potrace 1.16, written by Peter Selinger 2001-2019
</metadata>
<g transform="translate(0.000000,1260.000000) scale(0.100000,-0.100000)"
fill="#000000" stroke="none">
<path d="M6250 12589 c-499 -31 -914 -131 -1275 -308 -721 -353 -1154 -949
-1399 -1927 -60 -239 -87 -365 -206 -989 -56 -291 -103 -538 -106 -547 -5 -17
-43 -18 -621 -18 -608 0 -616 0 -653 -21 -53 -30 -72 -71 -120 -266 -47 -191
-47 -221 -3 -274 51 -60 37 -59 683 -59 324 0 590 -2 590 -4 0 -14 -650 -3379
-696 -3601 -58 -282 -186 -889 -280 -1325 -320 -1486 -461 -2121 -490 -2210
-83 -251 -204 -426 -349 -503 -58 -32 -220 -31 -325 2 -71 22 -150 56 -150 66
0 2 20 13 44 24 116 51 238 154 316 266 64 94 96 165 126 284 68 266 -20 499
-233 614 -275 148 -692 38 -913 -242 -128 -161 -200 -402 -187 -625 29 -482
387 -830 939 -912 154 -23 328 -15 458 20 124 34 331 137 445 223 181 135 382
356 546 600 408 607 716 1576 1078 3388 33 165 215 1110 406 2100 190 990 348
1808 351 1818 5 16 75 17 1280 17 1210 0 1275 -1 1270 -17 -16 -54 -957 -3831
-970 -3896 -77 -374 -7 -763 191 -1059 102 -154 289 -311 465 -393 172 -79
326 -114 533 -122 161 -6 271 12 410 66 200 77 413 262 563 490 212 321 365
707 537 1361 63 241 64 259 5 315 l-31 30 -222 3 c-208 2 -224 1 -255 -18 -18
-11 -39 -35 -47 -52 -8 -18 -46 -156 -85 -306 -181 -702 -337 -1078 -524
-1266 -85 -84 -142 -110 -246 -111 -104 0 -163 25 -210 88 -88 119 -106 388
-50 722 11 66 275 1142 587 2390 l567 2271 -20 39 c-10 22 -34 50 -53 62 l-34
23 -1768 0 c-973 0 -1769 3 -1769 6 0 14 254 1318 285 1464 180 839 357 1289
579 1468 227 184 482 280 868 329 194 24 757 24 958 0 186 -23 361 -58 481
-97 97 -32 279 -115 279 -128 0 -4 -33 -24 -73 -44 -214 -110 -370 -332 -416
-592 -16 -88 -13 -153 9 -241 56 -221 233 -356 486 -372 165 -10 334 38 484
138 173 116 275 262 337 483 37 134 44 346 14 469 -41 171 -117 301 -252 433
-275 267 -755 428 -1409 474 -164 11 -543 11 -730 -1z"/>
</g>
</svg>
