<?xml version="1.0" standalone="no"?>
<!DOCTYPE svg PUBLIC "-//W3C//DTD SVG 20010904//EN"
 "http://www.w3.org/TR/2001/REC-SVG-20010904/DTD/svg10.dtd">
<svg version="1.0" xmlns="http://www.w3.org/2000/svg"
 width="839.000000pt" height="1158.000000pt" viewBox="0 0 839.000000 1158.000000"
 preserveAspectRatio="xMidYMid meet">
<metadata>
Created by potrace 1.16, written by Peter Selinger 2001-2019
</metadata>
<g transform="translate(0.000000,1158.000000) scale(0.100000,-0.100000)"
fill="#000000" stroke="none">
<path d="M995 11561 c-16 -10 -38 -27 -48 -38 -10 -11 -227 -645 -483 -1409
-502 -1499 -484 -1434 -436 -1502 35 -49 76 -62 197 -62 119 0 162 13 194 59
10 14 53 130 95 256 353 1049 628 1605 904 1828 311 251 696 388 1196 427 164
13 1116 13 1216 0 138 -18 148 -31 129 -168 -15 -111 -1854 -7465 -1885 -7539
-47 -114 -124 -209 -209 -259 -130 -76 -463 -111 -1145 -121 -451 -6 -452 -6
-498 -56 -27 -28 -71 -187 -72 -253 0 -52 33 -103 81 -127 34 -16 59 -17 375
-6 333 10 1375 27 1383 22 2 -1 -42 -185 -98 -408 -55 -222 -101 -417 -101
-431 0 -39 29 -92 63 -116 24 -17 52 -23 141 -30 297 -23 505 -128 590 -298
44 -89 54 -167 33 -277 -61 -321 -311 -523 -777 -627 -242 -54 -499 -75 -1002
-84 -415 -8 -401 -5 -445 -92 -47 -91 -22 -192 57 -233 33 -18 62 -18 505 -13
863 10 1306 60 1716 192 522 167 822 494 846 920 11 189 -43 337 -171 472
-130 137 -289 223 -530 287 -49 14 -91 26 -94 29 -2 3 35 165 84 360 l88 355
81 -4 c44 -3 285 -7 535 -10 250 -2 614 -10 808 -16 388 -12 390 -12 440 46
41 46 87 229 72 285 -11 41 -66 97 -103 104 -12 3 -206 7 -432 10 -692 9
-1008 46 -1064 125 -29 40 -45 123 -37 190 11 93 1860 7468 1895 7557 58 149
115 191 291 214 103 13 1069 13 1227 -1 331 -28 556 -93 740 -215 151 -101
235 -219 268 -378 63 -310 35 -759 -101 -1601 -20 -120 -34 -234 -31 -252 8
-45 40 -87 81 -107 48 -23 234 -23 282 0 74 35 58 -44 306 1448 125 754 228
1392 228 1417 0 56 -30 106 -80 131 -33 17 -229 18 -3655 18 -3507 0 -3621 -1
-3650 -19z"/>
</g>
</svg>
