<?xml version="1.0" standalone="no"?>
<!DOCTYPE svg PUBLIC "-//W3C//DTD SVG 20010904//EN"
 "http://www.w3.org/TR/2001/REC-SVG-20010904/DTD/svg10.dtd">
<svg version="1.0" xmlns="http://www.w3.org/2000/svg"
 width="624.000000pt" height="916.000000pt" viewBox="0 0 624.000000 916.000000"
 preserveAspectRatio="xMidYMid meet">
<metadata>
Created by potrace 1.16, written by Peter Selinger 2001-2019
</metadata>
<g transform="translate(0.000000,916.000000) scale(0.100000,-0.100000)"
fill="#000000" stroke="none">
<path d="M3920 9150 c-430 -53 -866 -246 -1255 -556 -128 -101 -350 -316 -472
-457 -470 -538 -869 -1322 -1053 -2067 -54 -220 -63 -306 -57 -516 4 -151 9
-193 31 -270 64 -232 174 -376 351 -461 272 -129 664 -56 986 186 353 266 650
731 837 1311 108 334 131 501 97 720 -21 140 -59 260 -124 397 -67 137 -88
158 -161 158 -40 0 -55 -7 -104 -45 -109 -83 -117 -119 -53 -251 81 -171 110
-290 110 -454 0 -124 -23 -233 -94 -452 -207 -642 -565 -1119 -935 -1248 -137
-48 -303 -57 -373 -21 -159 83 -184 423 -65 898 209 833 635 1628 1148 2142
215 215 405 355 641 472 210 104 386 154 617 176 362 34 658 -69 891 -311 363
-377 455 -954 291 -1831 -39 -210 -122 -556 -161 -675 -164 -502 -470 -973
-933 -1435 -361 -360 -818 -709 -1320 -1005 -397 -235 -472 -281 -595 -367
-603 -422 -1089 -916 -1483 -1508 -287 -433 -520 -934 -648 -1399 -48 -174
-44 -212 25 -258 31 -21 45 -23 158 -23 179 0 206 16 238 141 106 412 330 750
559 843 72 29 259 27 406 -3 255 -54 448 -152 885 -451 574 -393 852 -510
1245 -527 263 -10 471 36 725 162 294 146 538 362 788 697 288 387 534 912
682 1452 39 144 43 185 19 226 -31 52 -59 60 -206 60 -114 0 -138 -3 -165 -20
-39 -24 -44 -33 -77 -148 -161 -570 -553 -1095 -988 -1327 -236 -125 -442
-162 -768 -136 -292 23 -551 68 -1049 182 -459 105 -722 154 -971 180 -152 16
-483 18 -532 2 -37 -11 -38 -11 -27 10 18 33 175 263 238 347 170 226 430 513
632 697 366 332 610 503 1164 818 830 472 1245 732 1655 1039 266 199 457 362
655 560 200 200 329 354 460 551 97 144 236 420 284 561 61 181 114 427 143
664 17 137 16 556 -1 680 -107 783 -492 1366 -1102 1674 -198 99 -394 163
-619 201 -112 19 -460 28 -570 15z"/>
</g>
</svg>
