<?xml version="1.0" standalone="no"?>
<!DOCTYPE svg PUBLIC "-//W3C//DTD SVG 20010904//EN"
 "http://www.w3.org/TR/2001/REC-SVG-20010904/DTD/svg10.dtd">
<svg version="1.0" xmlns="http://www.w3.org/2000/svg"
 width="516.000000pt" height="927.000000pt" viewBox="0 0 516.000000 927.000000"
 preserveAspectRatio="xMidYMid meet">
<metadata>
Created by potrace 1.16, written by Peter Selinger 2001-2019
</metadata>
<g transform="translate(0.000000,927.000000) scale(0.100000,-0.100000)"
fill="#000000" stroke="none">
<path d="M1881 9255 c-209 -47 -388 -149 -535 -306 -171 -181 -259 -387 -259
-609 -1 -184 54 -321 178 -446 223 -224 595 -245 925 -50 228 134 413 376 470
616 84 355 -87 678 -415 780 -91 29 -272 36 -364 15z"/>
<path d="M4330 9251 c-357 -76 -677 -383 -760 -731 -24 -103 -26 -250 -5 -335
56 -220 207 -379 425 -447 64 -19 95 -23 210 -22 117 0 147 4 224 28 344 104
622 391 702 723 23 93 23 259 0 343 -28 105 -82 197 -161 276 -156 157 -387
217 -635 165z"/>
<path d="M1625 6244 c-187 -34 -381 -117 -550 -236 -115 -81 -329 -295 -424
-423 -266 -363 -495 -859 -626 -1362 -31 -117 -27 -149 26 -199 l30 -29 172
-3 c242 -4 239 -6 302 233 155 594 385 1077 637 1341 155 162 309 248 488 275
150 22 249 -4 299 -77 70 -102 68 -374 -4 -669 -47 -189 -91 -313 -680 -1915
-341 -928 -594 -1629 -609 -1690 -59 -241 -61 -473 -7 -685 98 -383 356 -654
722 -759 361 -103 738 -31 1074 206 115 81 329 295 424 423 266 363 495 859
626 1362 31 117 27 149 -26 199 l-30 29 -172 3 c-242 4 -239 6 -302 -233 -155
-594 -385 -1077 -637 -1341 -155 -162 -309 -248 -488 -275 -150 -22 -249 4
-299 77 -70 102 -68 374 4 669 47 189 91 313 680 1915 341 928 594 1629 609
1690 38 157 49 267 43 425 -25 635 -474 1070 -1100 1064 -56 0 -138 -7 -182
-15z"/>
</g>
</svg>
