<?xml version="1.0" standalone="no"?>
<!DOCTYPE svg PUBLIC "-//W3C//DTD SVG 20010904//EN"
 "http://www.w3.org/TR/2001/REC-SVG-20010904/DTD/svg10.dtd">
<svg version="1.0" xmlns="http://www.w3.org/2000/svg"
 width="578.000000pt" height="927.000000pt" viewBox="0 0 578.000000 927.000000"
 preserveAspectRatio="xMidYMid meet">
<metadata>
Created by potrace 1.16, written by Peter Selinger 2001-2019
</metadata>
<g transform="translate(0.000000,927.000000) scale(0.100000,-0.100000)"
fill="#000000" stroke="none">
<path d="M2501 9255 c-306 -69 -567 -269 -702 -537 -67 -134 -92 -234 -93
-378 0 -115 2 -132 30 -210 132 -374 538 -520 955 -345 273 115 502 370 579
645 31 108 37 257 16 354 -49 217 -196 380 -407 451 -104 34 -275 44 -378 20z"/>
<path d="M5015 9264 c-282 -58 -486 -179 -644 -385 -294 -379 -260 -849 77
-1067 33 -21 101 -52 149 -68 80 -26 100 -29 223 -28 116 0 147 4 223 27 336
103 595 358 693 684 23 74 27 108 28 213 0 115 -2 132 -30 210 -17 47 -47 111
-68 142 -116 175 -324 280 -549 277 -45 -1 -91 -3 -102 -5z"/>
<path d="M3235 6249 c-139 -13 -365 -57 -520 -101 -592 -167 -1143 -495 -1605
-958 -480 -479 -808 -1042 -965 -1654 -94 -366 -134 -646 -142 -1001 -10 -431
33 -742 154 -1107 164 -498 451 -889 833 -1136 205 -133 463 -230 725 -274
101 -16 522 -17 660 0 719 87 1361 346 1905 768 207 160 505 468 623 641 40
59 49 117 24 159 -24 42 -182 204 -213 219 -80 38 -119 15 -238 -134 -132
-166 -256 -299 -383 -413 -586 -524 -1270 -816 -1973 -845 -351 -14 -589 94
-784 355 -274 364 -355 959 -236 1712 33 204 116 607 161 773 l10 37 262 0
c1424 1 2310 204 2845 654 269 226 451 546 518 911 25 137 15 378 -20 505
-116 417 -449 720 -930 845 -197 51 -463 67 -711 44z m475 -429 c280 -69 491
-270 567 -540 14 -51 18 -99 17 -225 -1 -139 -4 -173 -27 -257 -92 -347 -309
-597 -672 -773 -427 -208 -992 -304 -1897 -322 l-327 -6 45 151 c200 678 464
1147 834 1479 315 282 666 458 1018 508 131 19 331 12 442 -15z"/>
</g>
</svg>
