<?xml version="1.0" standalone="no"?>
<!DOCTYPE svg PUBLIC "-//W3C//DTD SVG 20010904//EN"
 "http://www.w3.org/TR/2001/REC-SVG-20010904/DTD/svg10.dtd">
<svg version="1.0" xmlns="http://www.w3.org/2000/svg"
 width="593.000000pt" height="863.000000pt" viewBox="0 0 593.000000 863.000000"
 preserveAspectRatio="xMidYMid meet">
<metadata>
Created by potrace 1.16, written by Peter Selinger 2001-2019
</metadata>
<g transform="translate(0.000000,863.000000) scale(0.100000,-0.100000)"
fill="#000000" stroke="none">
<path d="M2280 8608 c-53 -36 -69 -67 -92 -173 -19 -84 -22 -131 -22 -290 1
-181 2 -196 32 -310 37 -140 124 -325 200 -425 72 -94 234 -247 327 -309 660
-436 1663 -337 2433 241 185 139 399 369 525 563 111 173 237 480 237 579 0
86 -69 146 -168 146 -100 0 -139 -37 -183 -172 -61 -191 -166 -362 -314 -513
-524 -532 -1485 -745 -2160 -478 -432 170 -641 500 -571 901 21 122 20 153 -7
193 -30 46 -80 69 -148 69 -42 0 -65 -6 -89 -22z"/>
<path d="M2872 6009 c-405 -47 -866 -261 -1280 -594 -831 -668 -1428 -1788
-1568 -2945 -24 -198 -25 -603 0 -785 118 -896 599 -1504 1309 -1657 152 -32
430 -32 575 0 399 89 766 313 1154 704 l167 168 11 -43 c106 -419 390 -712
796 -819 111 -29 130 -31 294 -32 163 0 181 2 265 28 233 71 417 219 582 466
186 280 326 658 508 1375 l49 190 -20 40 c-34 69 -58 80 -198 83 -137 4 -182
-7 -211 -52 -9 -14 -48 -146 -86 -293 -203 -784 -352 -1144 -559 -1354 -99
-100 -164 -136 -261 -145 -326 -31 -435 271 -328 908 11 68 243 1014 516 2103
491 1966 495 1981 491 2066 -3 68 -10 97 -32 142 -112 230 -449 263 -686 66
-74 -61 -131 -150 -166 -255 l-27 -84 -43 75 c-243 428 -619 659 -1063 654
-64 -1 -149 -5 -189 -10z m322 -343 c283 -55 501 -275 639 -646 44 -118 91
-310 112 -456 l16 -110 -354 -1417 -355 -1417 -106 -160 c-457 -685 -980
-1089 -1446 -1116 -375 -22 -636 246 -731 750 -16 83 -23 166 -26 328 -10 409
38 711 247 1548 116 466 192 736 264 945 202 590 443 1003 781 1340 334 334
651 469 959 411z"/>
</g>
</svg>
