<?xml version="1.0" standalone="no"?>
<!DOCTYPE svg PUBLIC "-//W3C//DTD SVG 20010904//EN"
 "http://www.w3.org/TR/2001/REC-SVG-20010904/DTD/svg10.dtd">
<svg version="1.0" xmlns="http://www.w3.org/2000/svg"
 width="933.000000pt" height="945.000000pt" viewBox="0 0 933.000000 945.000000"
 preserveAspectRatio="xMidYMid meet">
<metadata>
Created by potrace 1.16, written by Peter Selinger 2001-2019
</metadata>
<g transform="translate(0.000000,945.000000) scale(0.100000,-0.100000)"
fill="#000000" stroke="none">
<path d="M2369 9429 c-49 -29 -67 -64 -100 -193 -46 -179 -35 -242 50 -286 37
-18 59 -20 239 -20 332 0 663 -25 784 -60 20 -6 47 -19 60 -29 21 -18 23 -26
22 -118 -1 -96 -24 -190 -971 -3973 -1061 -4240 -991 -3979 -1092 -4080 -103
-103 -295 -135 -866 -147 -425 -8 -405 3 -464 -241 l-34 -139 24 -49 c13 -26
37 -57 52 -68 l28 -21 2587 0 c2854 0 2654 -4 2982 61 627 124 1219 412 1735
842 134 112 366 350 480 492 473 589 708 1258 644 1838 -78 719 -543 1283
-1283 1557 -120 44 -369 108 -486 125 -47 6 -92 14 -100 17 -8 2 71 26 175 53
674 171 1281 507 1741 965 234 233 407 470 534 730 107 220 166 410 195 631
148 1131 -692 2015 -2018 2123 -85 7 -931 11 -2505 11 l-2377 0 -36 -21z
m4796 -532 c370 -101 632 -362 759 -755 56 -174 70 -279 71 -507 0 -146 -5
-230 -18 -310 -94 -573 -359 -1073 -793 -1494 -405 -394 -906 -644 -1399 -701
-122 -13 -2095 -14 -2095 0 0 28 873 3497 896 3560 59 165 114 208 294 229 41
5 550 8 1130 7 l1055 -1 100 -28z m-884 -4219 c214 -59 350 -137 499 -287 143
-143 235 -294 310 -506 72 -205 100 -385 100 -652 0 -451 -99 -859 -309 -1269
-351 -684 -985 -1217 -1650 -1385 -229 -58 -245 -59 -1379 -59 -998 0 -1159 4
-1240 31 l-34 11 4 82 c3 64 106 490 502 2074 l499 1993 1301 -3 1301 -3 96
-27z"/>
</g>
</svg>
