<?xml version="1.0" standalone="no"?>
<!DOCTYPE svg PUBLIC "-//W3C//DTD SVG 20010904//EN"
 "http://www.w3.org/TR/2001/REC-SVG-20010904/DTD/svg10.dtd">
<svg version="1.0" xmlns="http://www.w3.org/2000/svg"
 width="541.000000pt" height="1384.000000pt" viewBox="0 0 541.000000 1384.000000"
 preserveAspectRatio="xMidYMid meet">
<metadata>
Created by potrace 1.16, written by Peter Selinger 2001-2019
</metadata>
<g transform="translate(0.000000,1384.000000) scale(0.100000,-0.100000)"
fill="#000000" stroke="none">
<path d="M3468 13820 c-20 -11 -45 -34 -56 -52 -11 -20 -701 -2759 -1718
-6829 l-1698 -6795 24 -49 c14 -27 38 -58 53 -69 28 -21 39 -21 923 -24 871
-2 895 -2 933 17 21 11 46 32 56 48 23 35 74 235 75 292 0 56 -30 106 -81 131
-36 19 -60 20 -440 20 -317 0 -400 3 -397 13 3 6 724 2891 1604 6410 l1599
6397 440 0 c399 0 443 2 475 18 53 26 75 69 111 215 l33 134 -25 49 c-13 26
-37 57 -52 68 -28 21 -38 21 -925 23 -870 2 -898 2 -934 -17z"/>
</g>
</svg>
