<?xml version="1.0" standalone="no"?>
<!DOCTYPE svg PUBLIC "-//W3C//DTD SVG 20010904//EN"
 "http://www.w3.org/TR/2001/REC-SVG-20010904/DTD/svg10.dtd">
<svg version="1.0" xmlns="http://www.w3.org/2000/svg"
 width="937.000000pt" height="941.000000pt" viewBox="0 0 937.000000 941.000000"
 preserveAspectRatio="xMidYMid meet">
<metadata>
Created by potrace 1.16, written by Peter Selinger 2001-2019
</metadata>
<g transform="translate(0.000000,941.000000) scale(0.100000,-0.100000)"
fill="#000000" stroke="none">
<path d="M2359 9388 c-20 -11 -46 -37 -57 -57 -31 -57 -106 -374 -98 -416 9
-45 57 -101 99 -114 18 -5 181 -12 362 -15 446 -8 674 -32 719 -76 49 -48 97
156 -929 -3952 -665 -2660 -966 -3852 -986 -3894 -34 -73 -95 -139 -152 -164
-105 -47 -332 -69 -772 -76 -181 -3 -344 -10 -362 -15 -66 -21 -86 -60 -137
-265 -50 -205 -50 -230 -4 -289 42 -53 63 -56 340 -45 954 38 2220 38 3385 -1
379 -12 392 -11 441 45 24 28 37 66 77 228 l49 195 -25 48 c-46 94 -23 89
-492 97 -552 8 -865 33 -955 75 -41 19 -62 59 -62 115 0 24 193 817 442 1816
l443 1774 675 -5 c718 -4 792 -9 968 -57 151 -42 266 -120 314 -214 84 -164
58 -512 -78 -1048 -30 -119 -31 -170 -3 -215 40 -64 74 -73 286 -73 210 0 239
7 279 67 33 49 919 3600 910 3647 -8 44 -50 95 -93 112 -23 10 -84 14 -219 14
-171 0 -189 -2 -224 -21 -20 -11 -45 -34 -54 -51 -10 -16 -40 -116 -67 -221
-63 -242 -155 -518 -218 -653 -190 -401 -434 -571 -921 -640 -106 -15 -224
-18 -763 -22 -617 -4 -639 -3 -633 15 3 10 203 810 445 1779 242 968 450 1783
461 1810 45 106 100 135 289 155 142 14 1990 6 2146 -10 521 -53 805 -159
1013 -375 122 -128 185 -270 229 -521 14 -82 17 -160 17 -425 0 -352 -6 -435
-70 -939 l-34 -275 22 -45 c42 -83 51 -86 278 -89 183 -3 202 -2 238 17 80 41
62 -62 282 1589 110 826 200 1522 200 1548 0 59 -29 108 -81 134 -38 20 -76
20 -3461 20 l-3423 0 -36 -22z"/>
</g>
</svg>
