<?xml version="1.0" standalone="no"?>
<!DOCTYPE svg PUBLIC "-//W3C//DTD SVG 20010904//EN"
 "http://www.w3.org/TR/2001/REC-SVG-20010904/DTD/svg10.dtd">
<svg version="1.0" xmlns="http://www.w3.org/2000/svg"
 width="1180.000000pt" height="937.000000pt" viewBox="0 0 1180.000000 937.000000"
 preserveAspectRatio="xMidYMid meet">
<metadata>
Created by potrace 1.16, written by Peter Selinger 2001-2019
</metadata>
<g transform="translate(0.000000,937.000000) scale(0.100000,-0.100000)"
fill="#000000" stroke="none">
<path d="M2275 9352 c-51 -33 -67 -59 -92 -150 -30 -112 -30 -169 0 -213 42
-63 68 -69 292 -69 362 0 670 -26 793 -66 76 -25 87 -46 85 -159 -1 -84 -67
-353 -933 -3815 -512 -2048 -943 -3754 -957 -3790 -31 -79 -79 -154 -124 -197
-99 -94 -325 -130 -890 -141 l-316 -7 -36 -28 c-28 -21 -41 -41 -55 -90 -50
-164 -51 -213 -5 -267 51 -61 57 -62 326 -50 133 5 521 15 862 21 638 12 1488
3 2114 -22 265 -11 281 -10 318 7 52 26 77 68 103 174 34 137 18 199 -60 241
-30 17 -59 19 -235 19 -355 0 -661 25 -793 65 -75 23 -87 46 -86 165 1 91 39
245 933 3817 512 2047 943 3752 957 3789 60 148 136 225 261 264 136 42 469
70 844 70 197 0 207 1 239 23 51 34 67 64 96 171 29 112 27 149 -13 196 -51
61 -57 62 -331 50 -901 -37 -1977 -35 -3102 6 -152 5 -167 4 -195 -14z"/>
<path d="M8232 9354 c-49 -25 -68 -60 -97 -174 -30 -117 -28 -153 12 -200 47
-57 46 -57 468 -63 654 -11 917 -44 972 -125 26 -39 37 -114 28 -184 -12 -95
-1615 -6488 -1660 -6622 -181 -545 -503 -1029 -886 -1336 -168 -135 -329 -223
-504 -276 -82 -25 -105 -28 -250 -28 -177 -1 -262 13 -420 65 -241 80 -436
236 -561 449 -43 74 -95 196 -108 256 l-7 31 128 6 c139 5 218 24 328 79 277
139 456 420 457 718 1 127 -22 207 -84 300 -167 250 -560 300 -878 111 -285
-170 -430 -482 -430 -926 0 -238 40 -418 139 -620 260 -533 830 -837 1521
-812 248 9 467 47 700 122 894 287 1639 998 1930 1842 23 66 394 1532 846
3338 443 1771 814 3249 826 3285 62 192 130 258 304 294 95 20 310 36 483 36
212 0 234 15 278 186 28 110 26 157 -6 202 -41 59 -68 64 -278 52 -693 -37
-1719 -35 -3033 5 -162 5 -189 4 -218 -11z"/>
</g>
</svg>
