<?xml version="1.0" standalone="no"?>
<!DOCTYPE svg PUBLIC "-//W3C//DTD SVG 20010904//EN"
 "http://www.w3.org/TR/2001/REC-SVG-20010904/DTD/svg10.dtd">
<svg version="1.0" xmlns="http://www.w3.org/2000/svg"
 width="282.000000pt" height="241.000000pt" viewBox="0 0 282.000000 241.000000"
 preserveAspectRatio="xMidYMid meet">
<metadata>
Created by potrace 1.16, written by Peter Selinger 2001-2019
</metadata>
<g transform="translate(0.000000,241.000000) scale(0.100000,-0.100000)"
fill="#000000" stroke="none">
<path d="M1488 2395 c-535 -76 -1037 -400 -1303 -838 -304 -501 -215 -1065
214 -1356 123 -84 298 -153 461 -182 125 -23 411 -18 550 10 400 79 786 295
1036 579 194 221 313 460 349 699 19 125 19 198 0 309 -36 202 -104 333 -250
479 -150 149 -319 238 -540 285 -131 27 -381 35 -517 15z m440 -499 c221 -56
310 -192 281 -431 -13 -109 -76 -366 -119 -490 -67 -192 -173 -321 -322 -394
-155 -76 -297 -96 -608 -88 -217 6 -259 12 -355 48 -86 32 -168 115 -191 195
-34 119 7 401 101 679 101 301 283 451 601 494 110 15 537 6 612 -13z"/>
</g>
</svg>
