<?xml version="1.0" standalone="no"?>
<!DOCTYPE svg PUBLIC "-//W3C//DTD SVG 20010904//EN"
 "http://www.w3.org/TR/2001/REC-SVG-20010904/DTD/svg10.dtd">
<svg version="1.0" xmlns="http://www.w3.org/2000/svg"
 width="586.000000pt" height="904.000000pt" viewBox="0 0 586.000000 904.000000"
 preserveAspectRatio="xMidYMid meet">
<metadata>
Created by potrace 1.16, written by Peter Selinger 2001-2019
</metadata>
<g transform="translate(0.000000,904.000000) scale(0.100000,-0.100000)"
fill="#000000" stroke="none">
<path d="M3065 9023 c-236 -50 -520 -216 -870 -509 -135 -113 -231 -200 -464
-424 -194 -186 -211 -210 -197 -285 8 -43 68 -112 113 -132 40 -16 91 -16 119
0 12 7 89 73 170 149 343 315 596 503 816 608 175 83 293 100 405 59 83 -32
174 -128 311 -331 219 -322 338 -427 540 -479 305 -78 698 97 1222 546 188
161 587 544 605 581 28 59 15 116 -38 172 -42 44 -78 62 -124 62 -50 0 -77
-18 -206 -139 -578 -539 -983 -771 -1219 -696 -109 34 -185 113 -366 380 -44
66 -106 150 -136 187 -107 130 -245 221 -378 253 -79 19 -212 18 -303 -2z"/>
<path d="M2872 6009 c-405 -47 -866 -261 -1280 -594 -831 -668 -1428 -1788
-1568 -2945 -24 -198 -25 -603 0 -785 118 -896 599 -1504 1309 -1657 152 -32
430 -32 575 0 399 89 766 313 1154 704 l167 168 11 -43 c106 -419 390 -712
796 -819 111 -29 130 -31 294 -32 163 0 181 2 265 28 233 71 417 219 582 466
186 280 326 658 508 1375 l49 190 -20 40 c-34 69 -58 80 -198 83 -137 4 -182
-7 -211 -52 -9 -14 -48 -146 -86 -293 -203 -784 -352 -1144 -559 -1354 -99
-100 -164 -136 -261 -145 -326 -31 -435 271 -328 908 11 68 243 1014 516 2103
491 1966 495 1981 491 2066 -3 68 -10 97 -32 142 -112 230 -449 263 -686 66
-74 -61 -131 -150 -166 -255 l-27 -84 -43 75 c-243 428 -619 659 -1063 654
-64 -1 -149 -5 -189 -10z m322 -343 c283 -55 501 -275 639 -646 44 -118 91
-310 112 -456 l16 -110 -354 -1417 -355 -1417 -106 -160 c-457 -685 -980
-1089 -1446 -1116 -375 -22 -636 246 -731 750 -16 83 -23 166 -26 328 -10 409
38 711 247 1548 116 466 192 736 264 945 202 590 443 1003 781 1340 334 334
651 469 959 411z"/>
</g>
</svg>
