<?xml version="1.0" standalone="no"?>
<!DOCTYPE svg PUBLIC "-//W3C//DTD SVG 20010904//EN"
 "http://www.w3.org/TR/2001/REC-SVG-20010904/DTD/svg10.dtd">
<svg version="1.0" xmlns="http://www.w3.org/2000/svg"
 width="850.000000pt" height="1214.000000pt" viewBox="0 0 850.000000 1214.000000"
 preserveAspectRatio="xMidYMid meet">
<metadata>
Created by potrace 1.16, written by Peter Selinger 2001-2019
</metadata>
<g transform="translate(0.000000,1214.000000) scale(0.100000,-0.100000)"
fill="#000000" stroke="none">
<path d="M4695 12123 c-334 -71 -618 -342 -701 -671 -29 -116 -31 -212 -4
-316 56 -219 219 -375 440 -422 89 -19 241 -14 335 12 73 19 207 81 272 125
290 196 455 537 399 820 -68 337 -382 529 -741 452z"/>
<path d="M7115 12133 c-106 -15 -264 -77 -362 -144 -290 -196 -455 -537 -399
-820 60 -299 305 -482 621 -466 379 21 726 310 821 685 29 116 31 212 4 316
-77 301 -354 475 -685 429z"/>
<path d="M5175 9660 c-968 -89 -1964 -551 -2837 -1317 -897 -787 -1610 -1853
-1998 -2988 -569 -1664 -418 -3240 411 -4286 98 -124 311 -338 429 -433 285
-228 649 -416 995 -516 289 -84 511 -113 855 -114 279 -1 383 7 630 50 1448
248 2909 1330 3842 2844 800 1299 1145 2863 912 4130 -174 946 -631 1692
-1319 2155 -369 248 -765 396 -1235 460 -138 19 -543 28 -685 15z m384 -380
c860 -91 1485 -738 1685 -1746 136 -683 82 -1468 -169 -2489 -384 -1557 -966
-2719 -1785 -3559 -842 -864 -1806 -1243 -2609 -1026 -584 158 -1037 630
-1266 1316 -263 792 -243 1773 65 3079 305 1290 752 2261 1410 3055 127 154
457 485 603 606 546 450 1124 711 1697 767 78 8 281 6 369 -3z"/>
</g>
</svg>
