<?xml version="1.0" standalone="no"?>
<!DOCTYPE svg PUBLIC "-//W3C//DTD SVG 20010904//EN"
 "http://www.w3.org/TR/2001/REC-SVG-20010904/DTD/svg10.dtd">
<svg version="1.0" xmlns="http://www.w3.org/2000/svg"
 width="379.000000pt" height="205.000000pt" viewBox="0 0 379.000000 205.000000"
 preserveAspectRatio="xMidYMid meet">
<metadata>
Created by potrace 1.16, written by Peter Selinger 2001-2019
</metadata>
<g transform="translate(0.000000,205.000000) scale(0.100000,-0.100000)"
fill="#000000" stroke="none">
<path d="M80 2028 c-72 -50 -97 -123 -63 -188 25 -47 1285 -1735 1331 -1783
46 -48 96 -62 149 -44 51 17 2248 1779 2269 1818 36 70 5 166 -66 201 -76 38
-37 58 -1056 -523 -522 -298 -966 -551 -988 -564 l-38 -23 -695 555 c-382 305
-706 558 -720 564 -41 15 -88 10 -123 -13z"/>
</g>
</svg>
