<?xml version="1.0" standalone="no"?>
<!DOCTYPE svg PUBLIC "-//W3C//DTD SVG 20010904//EN"
 "http://www.w3.org/TR/2001/REC-SVG-20010904/DTD/svg10.dtd">
<svg version="1.0" xmlns="http://www.w3.org/2000/svg"
 width="796.000000pt" height="1210.000000pt" viewBox="0 0 796.000000 1210.000000"
 preserveAspectRatio="xMidYMid meet">
<metadata>
Created by potrace 1.16, written by Peter Selinger 2001-2019
</metadata>
<g transform="translate(0.000000,1210.000000) scale(0.100000,-0.100000)"
fill="#000000" stroke="none">
<path d="M5554 12080 c-40 -10 -96 -31 -125 -45 -30 -15 -529 -291 -1109 -612
-662 -368 -1067 -598 -1087 -618 -51 -53 -51 -82 -3 -276 32 -128 49 -178 68
-201 28 -33 77 -58 116 -58 42 0 2294 778 2381 823 150 78 279 235 320 393 22
84 20 217 -5 297 -74 240 -305 363 -556 297z"/>
<path d="M2369 9429 c-20 -12 -46 -38 -57 -58 -31 -57 -106 -374 -98 -416 9
-45 57 -101 99 -114 18 -5 181 -12 362 -15 446 -8 674 -32 719 -76 49 -48 98
158 -934 -3972 -668 -2675 -971 -3872 -991 -3914 -34 -73 -95 -139 -152 -164
-105 -47 -332 -69 -772 -76 -181 -3 -344 -10 -362 -15 -66 -21 -86 -59 -138
-271 l-49 -195 25 -48 c13 -27 37 -58 52 -69 l28 -21 3247 -3 c2186 -2 3259 0
3282 7 20 6 48 23 63 39 22 23 151 379 642 1777 382 1085 615 1763 615 1786 0
41 -30 91 -73 123 -26 19 -44 21 -215 24 -112 2 -201 -1 -222 -7 -66 -20 -83
-49 -184 -332 -192 -537 -317 -839 -466 -1134 -351 -694 -729 -1094 -1295
-1370 -336 -165 -669 -254 -1056 -285 -219 -18 -1547 -9 -1614 11 l-50 14 2
60 c2 79 1921 7766 1958 7843 30 63 94 135 150 167 22 13 70 31 107 40 166 38
607 65 1076 65 288 0 308 3 354 58 20 24 36 74 72 219 51 207 51 232 0 292
-42 50 -63 52 -375 42 -598 -22 -1577 -33 -2184 -27 -555 6 -751 10 -1360 31
-163 6 -172 5 -206 -16z"/>
</g>
</svg>
