<?xml version="1.0" standalone="no"?>
<!DOCTYPE svg PUBLIC "-//W3C//DTD SVG 20010904//EN"
 "http://www.w3.org/TR/2001/REC-SVG-20010904/DTD/svg10.dtd">
<svg version="1.0" xmlns="http://www.w3.org/2000/svg"
 width="934.000000pt" height="1070.000000pt" viewBox="0 0 934.000000 1070.000000"
 preserveAspectRatio="xMidYMid meet">
<metadata>
Created by potrace 1.16, written by Peter Selinger 2001-2019
</metadata>
<g transform="translate(0.000000,1070.000000) scale(0.100000,-0.100000)"
fill="#000000" stroke="none">
<path d="M3160 10686 c-383 -69 -748 -271 -1094 -606 -666 -643 -1109 -1574
-1238 -2600 -20 -164 -17 -615 6 -765 96 -621 367 -1063 773 -1257 321 -154
678 -141 1034 38 416 209 859 676 1184 1249 456 804 705 1869 614 2628 -6 49
-9 91 -6 93 2 2 40 -20 84 -50 331 -221 723 -370 1156 -438 125 -20 181 -22
462 -23 258 0 345 4 450 18 358 51 724 154 1043 295 61 28 110 47 108 43 -3
-4 -1733 -2005 -3846 -4446 -2495 -2883 -3849 -4456 -3863 -4485 -24 -53 -28
-146 -8 -204 17 -49 82 -121 136 -149 59 -31 173 -31 238 2 43 21 577 634
4465 5128 2429 2808 4428 5124 4442 5146 21 36 25 54 25 127 0 75 -3 91 -27
132 -56 94 -157 146 -263 135 -98 -10 -134 -39 -322 -257 -411 -475 -1092
-884 -1758 -1055 -761 -195 -1533 -110 -2114 234 -284 168 -491 359 -700 646
-161 220 -315 335 -538 401 -109 32 -322 42 -443 20z m276 -337 c224 -41 403
-260 498 -609 105 -388 106 -864 5 -1390 -148 -764 -426 -1420 -825 -1950
-281 -373 -553 -598 -824 -681 -105 -33 -270 -33 -350 -1 -193 77 -323 290
-379 621 -68 398 -22 815 180 1624 171 689 274 995 449 1342 146 289 288 497
470 688 268 281 530 401 776 356z"/>
<path d="M7245 5336 c-527 -88 -1050 -461 -1503 -1071 -442 -596 -745 -1381
-834 -2160 -16 -143 -16 -552 1 -680 80 -624 346 -1090 743 -1299 414 -219
892 -150 1351 195 319 240 627 599 876 1023 74 126 210 400 276 557 161 379
298 891 357 1333 32 233 32 668 0 871 -69 440 -219 776 -442 988 -124 119
-239 185 -396 228 -100 27 -312 34 -429 15z m276 -336 c188 -35 349 -202 447
-464 88 -234 125 -469 125 -796 1 -339 -35 -614 -128 -999 -189 -774 -512
-1424 -954 -1918 -291 -325 -605 -500 -861 -480 -91 7 -143 25 -215 73 -222
147 -348 576 -315 1072 22 321 72 596 210 1152 210 841 361 1234 631 1645 340
517 726 777 1060 715z"/>
</g>
</svg>
