<?xml version="1.0" standalone="no"?>
<!DOCTYPE svg PUBLIC "-//W3C//DTD SVG 20010904//EN"
 "http://www.w3.org/TR/2001/REC-SVG-20010904/DTD/svg10.dtd">
<svg version="1.0" xmlns="http://www.w3.org/2000/svg"
 width="856.000000pt" height="627.000000pt" viewBox="0 0 856.000000 627.000000"
 preserveAspectRatio="xMidYMid meet">
<metadata>
Created by potrace 1.16, written by Peter Selinger 2001-2019
</metadata>
<g transform="translate(0.000000,627.000000) scale(0.100000,-0.100000)"
fill="#000000" stroke="none">
<path d="M7802 6251 c-214 -53 -421 -221 -521 -425 -118 -238 -89 -432 93
-624 151 -161 237 -292 307 -471 107 -273 137 -636 80 -962 -34 -197 -226
-946 -341 -1330 -353 -1181 -756 -1806 -1275 -1978 -296 -98 -621 -50 -842
123 -184 144 -284 360 -324 701 -17 140 -6 484 20 655 38 250 71 390 487 2059
301 1208 414 1679 414 1720 0 112 -44 216 -119 284 -183 165 -504 134 -707
-68 -132 -132 -101 -28 -554 -1845 -221 -882 -414 -1670 -430 -1750 -45 -222
-61 -366 -66 -585 l-6 -200 -35 -85 c-163 -391 -404 -746 -617 -907 -146 -110
-309 -160 -491 -150 -375 21 -654 201 -785 505 -78 180 -113 382 -112 642 0
568 163 1192 687 2630 229 629 254 733 242 1009 -26 626 -474 1061 -1090 1061
-560 0 -1079 -407 -1449 -1135 -142 -279 -250 -562 -334 -870 -40 -148 -38
-178 16 -230 l31 -30 172 -3 c242 -4 239 -6 302 233 20 77 65 226 99 330 245
739 564 1169 946 1272 88 23 263 24 305 1 86 -47 116 -115 122 -284 6 -138 -6
-246 -47 -424 -38 -169 -74 -276 -277 -835 -443 -1217 -611 -1795 -664 -2275
-16 -152 -14 -483 5 -612 29 -202 84 -383 164 -543 248 -496 742 -784 1452
-846 403 -35 689 30 978 221 160 106 362 314 496 512 l60 88 53 -91 c192 -329
510 -554 938 -664 217 -56 331 -69 585 -69 196 0 238 3 330 22 546 118 964
477 1334 1148 253 459 491 1131 730 2061 302 1180 380 1600 380 2058 0 245
-13 350 -66 510 -77 238 -235 404 -429 450 -83 19 -156 18 -247 -4z"/>
</g>
</svg>
