<?xml version="1.0" standalone="no"?>
<!DOCTYPE svg PUBLIC "-//W3C//DTD SVG 20010904//EN"
 "http://www.w3.org/TR/2001/REC-SVG-20010904/DTD/svg10.dtd">
<svg version="1.0" xmlns="http://www.w3.org/2000/svg"
 width="380.000000pt" height="558.000000pt" viewBox="0 0 380.000000 558.000000"
 preserveAspectRatio="xMidYMid meet">
<metadata>
Created by potrace 1.16, written by Peter Selinger 2001-2019
</metadata>
<g transform="translate(0.000000,558.000000) scale(0.100000,-0.100000)"
fill="#000000" stroke="none">
<path d="M2495 5574 c-588 -87 -1167 -500 -1655 -1184 -421 -590 -712 -1346
-817 -2120 -26 -192 -26 -684 0 -850 104 -665 402 -1138 838 -1327 190 -82
434 -113 626 -79 441 77 881 389 1291 914 301 387 561 879 734 1392 267 793
343 1560 212 2150 -132 592 -424 968 -839 1080 -60 16 -116 23 -220 25 -77 2
-153 1 -170 -1z m215 -414 c456 -87 675 -922 505 -1928 -70 -409 -201 -859
-361 -1235 -285 -672 -758 -1284 -1149 -1489 -264 -138 -507 -127 -664 29
-234 235 -307 720 -206 1368 34 216 82 433 201 905 171 684 262 955 434 1305
352 715 835 1122 1240 1045z"/>
</g>
</svg>
