<?xml version="1.0" standalone="no"?>
<!DOCTYPE svg PUBLIC "-//W3C//DTD SVG 20010904//EN"
 "http://www.w3.org/TR/2001/REC-SVG-20010904/DTD/svg10.dtd">
<svg version="1.0" xmlns="http://www.w3.org/2000/svg"
 width="848.000000pt" height="952.000000pt" viewBox="0 0 848.000000 952.000000"
 preserveAspectRatio="xMidYMid meet">
<metadata>
Created by potrace 1.16, written by Peter Selinger 2001-2019
</metadata>
<g transform="translate(0.000000,952.000000) scale(0.100000,-0.100000)"
fill="#000000" stroke="none">
<path d="M5155 9514 c-908 -73 -1825 -459 -2655 -1118 -991 -787 -1773 -1904
-2178 -3111 -156 -465 -251 -904 -298 -1375 -20 -201 -23 -686 -5 -870 60
-617 227 -1151 507 -1620 420 -705 1093 -1184 1902 -1354 284 -60 621 -78
1052 -57 1031 51 2028 258 3055 636 365 134 780 312 815 350 28 30 37 108 18
145 -7 13 -29 35 -47 47 -33 22 -40 23 -296 23 l-263 0 -168 -76 c-906 -409
-1818 -660 -2735 -753 -439 -45 -870 -51 -1129 -16 -550 75 -1026 309 -1411
694 -473 475 -750 1101 -845 1916 -22 186 -25 675 -5 870 129 1298 653 2509
1529 3533 155 181 483 510 655 657 1165 997 2512 1373 3587 1003 247 -85 548
-255 745 -420 584 -489 934 -1219 1020 -2128 13 -137 16 -241 12 -480 -8 -498
-48 -763 -212 -1420 -249 -994 -442 -1528 -683 -1895 -220 -335 -439 -490
-720 -512 -132 -10 -185 23 -219 135 -23 74 -22 271 1 401 9 51 219 905 466
1897 426 1709 449 1806 436 1837 -7 18 -26 43 -41 57 l-27 25 -291 3 -292 3
-45 112 c-183 454 -538 805 -958 946 -182 61 -275 75 -502 75 -229 1 -332 -12
-555 -69 -389 -99 -809 -317 -1173 -607 -252 -202 -571 -543 -768 -823 -159
-226 -322 -517 -433 -776 -154 -361 -267 -801 -301 -1177 -16 -172 -8 -529 15
-677 95 -620 391 -1122 835 -1417 164 -108 417 -212 616 -252 675 -135 1389
118 2062 731 l79 73 7 -69 c25 -273 212 -528 481 -657 179 -86 356 -121 570
-111 560 27 987 369 1335 1072 210 423 364 883 565 1687 165 660 213 1037 202
1583 -7 357 -39 610 -113 912 -156 638 -436 1156 -848 1569 -246 245 -464 403
-761 549 -290 142 -591 233 -935 280 -111 15 -543 28 -655 19z m30 -2209 c307
-78 567 -300 730 -623 83 -164 145 -358 179 -552 l15 -85 -309 -1240 c-204
-817 -318 -1256 -334 -1286 -110 -206 -464 -617 -711 -826 -288 -243 -630
-421 -929 -485 -137 -29 -369 -31 -471 -4 -430 114 -712 555 -791 1236 -21
188 -15 545 15 765 94 697 344 1381 707 1938 430 658 980 1103 1462 1182 126
21 310 13 437 -20z"/>
</g>
</svg>
