<?xml version="1.0" standalone="no"?>
<!DOCTYPE svg PUBLIC "-//W3C//DTD SVG 20010904//EN"
 "http://www.w3.org/TR/2001/REC-SVG-20010904/DTD/svg10.dtd">
<svg version="1.0" xmlns="http://www.w3.org/2000/svg"
 width="936.000000pt" height="1023.000000pt" viewBox="0 0 936.000000 1023.000000"
 preserveAspectRatio="xMidYMid meet">
<metadata>
Created by potrace 1.16, written by Peter Selinger 2001-2019
</metadata>
<g transform="translate(0.000000,1023.000000) scale(0.100000,-0.100000)"
fill="#000000" stroke="none">
<path d="M3874 10215 c-467 -67 -961 -321 -1398 -720 -578 -528 -1021 -1284
-1225 -2090 -68 -268 -96 -453 -110 -708 -19 -349 22 -694 117 -978 l18 -56
-94 -109 c-509 -591 -893 -1333 -1091 -2109 -74 -291 -85 -383 -85 -690 0
-238 2 -285 22 -398 97 -542 343 -1004 738 -1387 551 -535 1321 -859 2254
-950 279 -28 803 -22 1120 11 1480 154 2658 830 3405 1954 145 219 216 344
336 590 113 233 176 386 253 615 96 285 166 561 210 830 46 279 51 350 50 680
0 270 -3 336 -22 457 -40 264 -102 500 -189 723 -98 251 -284 577 -455 802
l-61 80 34 27 c187 145 478 428 650 631 470 557 806 1197 975 1859 61 241 4
435 -164 552 -110 77 -287 107 -438 75 -45 -10 -123 -39 -182 -67 -87 -42
-115 -62 -185 -132 -65 -64 -93 -102 -129 -172 -191 -371 -66 -707 290 -782
42 -9 79 -18 81 -19 2 -2 -24 -59 -57 -128 -188 -388 -451 -762 -762 -1080
-271 -277 -464 -430 -892 -707 -446 -289 -719 -473 -863 -581 -583 -439 -872
-833 -976 -1328 -30 -144 -31 -366 -1 -496 71 -314 242 -538 507 -665 128 -61
238 -89 390 -96 102 -5 133 -3 205 16 226 56 405 205 500 415 48 106 62 178
58 301 -3 102 -6 115 -40 187 -44 92 -104 155 -187 198 -171 86 -390 78 -585
-22 -100 -52 -245 -191 -293 -282 l-31 -59 -10 69 c-22 137 -23 172 -12 273
38 347 203 638 515 912 206 179 410 322 894 624 l254 159 29 -34 c101 -122
248 -351 333 -520 148 -295 227 -554 277 -910 20 -146 17 -599 -5 -775 -70
-544 -262 -1161 -518 -1661 -476 -932 -1195 -1560 -2159 -1885 -348 -117 -672
-183 -1100 -225 -219 -22 -741 -25 -905 -6 -573 67 -1012 234 -1366 520 -104
84 -261 250 -336 356 -120 169 -226 414 -271 627 -41 191 -47 267 -47 549 1
381 20 512 155 1048 87 351 181 675 256 892 56 163 178 468 193 483 5 4 32
-13 62 -38 193 -166 444 -285 730 -346 139 -30 426 -33 535 -7 273 67 481 186
689 393 178 177 297 367 370 589 131 399 57 791 -191 1027 -107 100 -209 157
-361 201 -110 32 -383 32 -554 0 -323 -60 -685 -208 -972 -397 l-28 -18 6 64
c42 401 211 1140 377 1649 233 716 556 1220 987 1541 226 168 465 259 680 259
156 0 343 -45 460 -111 298 -168 468 -484 505 -936 l6 -73 -57 0 c-140 0 -334
-74 -455 -174 -235 -195 -335 -556 -217 -788 12 -23 44 -66 72 -95 232 -245
701 -185 950 122 63 78 130 218 156 325 164 687 23 1337 -379 1740 -189 189
-418 310 -702 371 -125 27 -403 34 -544 14z m-386 -3903 c204 -78 254 -284
162 -659 -95 -389 -275 -622 -555 -719 -71 -25 -94 -28 -210 -28 -105 0 -145
4 -210 23 -217 61 -396 219 -510 447 -71 144 -72 139 36 272 322 399 665 631
1014 686 67 10 220 -2 273 -22z"/>
</g>
</svg>
