<?xml version="1.0" standalone="no"?>
<!DOCTYPE svg PUBLIC "-//W3C//DTD SVG 20010904//EN"
 "http://www.w3.org/TR/2001/REC-SVG-20010904/DTD/svg10.dtd">
<svg version="1.0" xmlns="http://www.w3.org/2000/svg"
 width="1029.000000pt" height="907.000000pt" viewBox="0 0 1029.000000 907.000000"
 preserveAspectRatio="xMidYMid meet">
<metadata>
Created by potrace 1.16, written by Peter Selinger 2001-2019
</metadata>
<g transform="translate(0.000000,907.000000) scale(0.100000,-0.100000)"
fill="#000000" stroke="none">
<path d="M2441 9053 c-19 -10 -43 -30 -53 -44 -21 -27 -67 -196 -68 -242 0
-42 28 -94 64 -120 29 -21 44 -22 286 -28 521 -14 677 -57 778 -217 18 -28
309 -812 727 -1959 l697 -1912 -1344 -1543 c-1313 -1507 -1536 -1755 -1749
-1938 -441 -380 -921 -572 -1494 -597 -198 -8 -222 -24 -261 -174 -30 -119
-31 -166 -1 -210 42 -64 71 -71 258 -59 90 5 358 15 594 21 444 12 1175 2
1698 -22 131 -6 254 -8 273 -4 19 3 49 21 68 39 28 29 38 51 61 144 30 123 28
155 -12 203 -36 42 -74 59 -135 59 -134 1 -287 58 -366 137 -71 71 -96 130
-100 234 -5 108 24 198 94 296 27 37 54 78 59 90 19 42 2509 2893 2516 2880 4
-7 276 -749 604 -1650 l597 -1638 -28 -41 c-111 -159 -470 -308 -747 -308 -68
0 -119 -21 -147 -59 -27 -38 -73 -227 -65 -268 7 -39 46 -88 86 -109 25 -12
62 -13 266 -4 893 37 1830 35 2748 -6 136 -6 141 -5 174 17 53 37 70 68 97
174 29 112 26 149 -13 195 -45 55 -58 57 -333 63 -357 8 -547 37 -647 98 -41
26 -116 109 -136 151 -31 67 -1591 4354 -1591 4375 -1 34 2126 2474 2374 2722
313 314 543 482 838 615 278 125 651 206 949 206 124 0 166 39 203 190 34 138
18 201 -61 242 -33 17 -49 17 -200 8 -90 -5 -357 -15 -594 -21 -447 -12 -1175
-2 -1713 22 -241 11 -252 11 -288 -8 -54 -28 -70 -55 -100 -169 -30 -116 -28
-156 13 -204 36 -43 74 -60 135 -60 132 -1 287 -58 364 -136 24 -23 55 -66 71
-96 26 -48 28 -62 28 -158 0 -95 -3 -111 -30 -169 -16 -35 -51 -94 -77 -130
-26 -36 -48 -69 -48 -74 0 -10 -2022 -2332 -2029 -2330 -14 3 -1001 2729 -996
2749 8 37 93 122 170 169 158 99 355 160 550 171 170 10 197 33 239 199 30
122 26 162 -21 207 -53 49 -55 49 -321 38 -461 -19 -1335 -32 -1727 -25 -351
5 -577 12 -1010 31 -123 5 -144 3 -174 -13z"/>
</g>
</svg>
