<?xml version="1.0" standalone="no"?>
<!DOCTYPE svg PUBLIC "-//W3C//DTD SVG 20010904//EN"
 "http://www.w3.org/TR/2001/REC-SVG-20010904/DTD/svg10.dtd">
<svg version="1.0" xmlns="http://www.w3.org/2000/svg"
 width="1116.000000pt" height="945.000000pt" viewBox="0 0 1116.000000 945.000000"
 preserveAspectRatio="xMidYMid meet">
<metadata>
Created by potrace 1.16, written by Peter Selinger 2001-2019
</metadata>
<g transform="translate(0.000000,945.000000) scale(0.100000,-0.100000)"
fill="#000000" stroke="none">
<path d="M2364 9426 c-52 -32 -63 -59 -115 -268 -30 -121 -39 -177 -35 -203 9
-45 57 -101 99 -114 18 -5 181 -12 362 -15 446 -8 674 -32 719 -76 49 -48 98
158 -934 -3972 -668 -2675 -971 -3872 -991 -3914 -34 -73 -95 -139 -152 -164
-105 -47 -332 -69 -772 -76 -181 -3 -344 -10 -362 -15 -66 -21 -86 -59 -138
-271 l-49 -195 25 -48 c13 -27 37 -58 52 -69 33 -24 52 -24 602 -6 825 27
1966 22 2830 -11 288 -11 291 -11 333 10 23 12 49 32 58 46 19 30 103 356 104
403 0 50 -32 104 -78 130 -38 21 -51 22 -253 22 -384 0 -736 27 -823 64 -47
19 -61 69 -46 158 6 35 151 625 323 1311 l312 1248 865 730 c799 674 865 727
873 707 5 -13 319 -873 699 -1913 l690 -1890 -4 -70 c-5 -82 -26 -130 -79
-185 -108 -111 -282 -160 -570 -160 -183 0 -199 -18 -263 -277 -51 -207 -51
-232 0 -292 41 -49 66 -52 319 -41 127 5 537 15 912 22 701 12 1320 4 1827
-24 l209 -11 44 23 c28 15 51 37 62 59 31 63 104 376 97 416 -9 45 -57 101
-99 114 -18 5 -126 12 -242 15 -279 7 -441 33 -549 88 -22 11 -64 43 -94 72
-120 112 -67 -22 -1018 2584 -837 2293 -874 2396 -857 2413 73 70 2615 2204
2647 2222 23 13 86 59 141 103 459 367 954 604 1426 683 141 24 314 41 407 41
34 0 77 6 95 14 64 26 81 59 133 269 l48 194 -25 48 c-13 27 -37 58 -52 69
-33 24 -62 24 -352 6 -433 -26 -1421 -22 -2247 11 -308 12 -327 10 -376 -46
-25 -27 -37 -64 -76 -221 -52 -214 -51 -241 8 -300 34 -34 39 -35 194 -53 97
-10 186 -43 231 -84 31 -28 60 -94 61 -133 0 -87 -62 -202 -171 -315 -35 -37
-71 -75 -79 -87 -8 -11 -1039 -883 -2290 -1937 -1251 -1055 -2285 -1926 -2296
-1937 -18 -16 63 321 507 2097 354 1415 538 2133 555 2167 34 67 100 137 149
159 103 46 332 68 780 76 452 7 420 -12 495 290 47 191 47 221 3 274 -49 58
-66 60 -335 49 -533 -21 -1340 -32 -1918 -26 -533 6 -776 11 -1345 31 -169 6
-170 6 -211 -19z"/>
</g>
</svg>
