<?xml version="1.0" standalone="no"?>
<!DOCTYPE svg PUBLIC "-//W3C//DTD SVG 20010904//EN"
 "http://www.w3.org/TR/2001/REC-SVG-20010904/DTD/svg10.dtd">
<svg version="1.0" xmlns="http://www.w3.org/2000/svg"
 width="668.000000pt" height="976.000000pt" viewBox="0 0 668.000000 976.000000"
 preserveAspectRatio="xMidYMid meet">
<metadata>
Created by potrace 1.16, written by Peter Selinger 2001-2019
</metadata>
<g transform="translate(0.000000,976.000000) scale(0.100000,-0.100000)"
fill="#000000" stroke="none">
<path d="M5270 9684 c-1034 -80 -1015 -77 -1056 -139 -19 -30 -103 -356 -104
-404 0 -47 35 -105 80 -130 34 -19 53 -21 201 -21 295 0 562 -28 654 -69 74
-33 80 -47 79 -185 -1 -117 -4 -133 -86 -456 l-84 -335 -649 -5 c-633 -5 -651
-6 -685 -26 -56 -32 -72 -69 -119 -260 -50 -205 -50 -237 3 -290 17 -17 50
-37 71 -43 27 -7 232 -11 628 -11 388 0 587 -3 587 -10 0 -14 -399 -1611 -408
-1633 -6 -14 -20 -1 -72 69 -197 261 -465 433 -783 501 -123 27 -422 24 -577
-5 -567 -106 -1109 -411 -1596 -897 -371 -370 -650 -762 -883 -1240 -485 -992
-601 -2078 -309 -2880 236 -647 682 -1054 1299 -1186 87 -19 136 -23 304 -23
172 0 215 3 305 22 420 91 827 325 1205 694 l122 118 18 -47 c36 -98 129 -264
191 -341 239 -299 626 -467 1034 -449 277 12 487 110 701 327 294 296 506 763
724 1590 63 241 64 259 5 315 l-31 30 -222 3 c-208 2 -224 1 -255 -18 -18 -11
-39 -35 -47 -52 -8 -18 -46 -156 -85 -306 -211 -821 -398 -1220 -630 -1347
-49 -26 -65 -30 -140 -30 -72 0 -93 4 -135 25 -59 30 -107 96 -131 175 -37
130 -35 367 6 612 11 65 349 1437 752 3050 l733 2932 295 3 c396 4 378 -8 449
284 50 205 50 237 -3 290 -17 17 -50 37 -71 43 -24 6 -136 11 -276 11 l-237 0
204 813 c112 446 204 832 204 856 0 90 -71 152 -172 150 -29 -1 -483 -35
-1008 -75z m-1855 -3960 c312 -84 555 -423 658 -919 48 -230 81 -58 -316
-1647 l-354 -1418 -44 -67 c-305 -474 -698 -866 -1038 -1037 -151 -76 -342
-126 -480 -126 -338 1 -593 250 -681 665 -43 201 -39 526 11 857 62 423 345
1578 499 2038 127 377 261 668 415 900 243 365 572 642 879 740 130 42 327 48
451 14z"/>
</g>
</svg>
