<?xml version="1.0" standalone="no"?>
<!DOCTYPE svg PUBLIC "-//W3C//DTD SVG 20010904//EN"
 "http://www.w3.org/TR/2001/REC-SVG-20010904/DTD/svg10.dtd">
<svg version="1.0" xmlns="http://www.w3.org/2000/svg"
 width="1249.000000pt" height="907.000000pt" viewBox="0 0 1249.000000 907.000000"
 preserveAspectRatio="xMidYMid meet">
<metadata>
Created by potrace 1.16, written by Peter Selinger 2001-2019
</metadata>
<g transform="translate(0.000000,907.000000) scale(0.100000,-0.100000)"
fill="#000000" stroke="none">
<path d="M2280 9052 c-49 -24 -74 -68 -100 -172 -34 -137 -18 -199 60 -241 30
-17 59 -19 225 -19 352 0 652 -27 762 -68 63 -23 78 -61 69 -176 -9 -109
-1762 -7121 -1811 -7242 -116 -290 -324 -483 -638 -593 -159 -56 -392 -91
-608 -91 -73 0 -91 -3 -119 -22 -51 -35 -67 -65 -96 -172 -29 -112 -27 -149
13 -196 49 -59 62 -61 275 -50 106 5 414 15 683 21 505 12 1137 3 1652 -22
222 -11 233 -11 269 8 54 28 70 55 100 169 30 116 28 156 -13 204 -40 48 -73
60 -163 60 -372 0 -659 92 -770 246 -58 82 -73 142 -73 299 l0 140 896 3585
c494 1972 901 3593 905 3603 4 9 188 -1820 410 -4065 222 -2246 408 -4104 413
-4130 8 -35 21 -57 49 -82 46 -42 83 -50 198 -44 94 5 143 23 204 77 21 18
939 1543 2533 4204 1375 2296 2501 4174 2502 4173 7 -6 -1910 -7634 -1931
-7686 -59 -143 -128 -214 -242 -250 -140 -43 -449 -70 -805 -70 -187 0 -198
-1 -229 -22 -51 -35 -67 -65 -96 -172 -29 -112 -27 -149 13 -196 50 -60 59
-62 311 -50 125 5 488 15 807 21 599 12 1365 3 1963 -22 261 -11 272 -11 308
8 54 28 70 55 100 169 30 116 28 156 -13 204 -47 56 -64 60 -275 60 -343 0
-620 24 -738 63 -85 29 -93 43 -86 167 4 84 111 520 936 3820 512 2048 943
3754 957 3790 107 268 233 312 943 327 323 6 333 8 379 57 28 30 71 178 71
247 0 56 -31 107 -80 132 -33 16 -103 17 -1140 15 l-1105 -3 -47 -23 c-26 -13
-64 -41 -85 -62 -23 -23 -905 -1486 -2303 -3821 -1635 -2731 -2266 -3776
-2268 -3758 -2 13 -171 1719 -376 3790 -326 3295 -375 3770 -392 3800 -11 20
-38 43 -64 57 l-44 22 -1131 0 c-1056 0 -1132 -1 -1165 -18z"/>
</g>
</svg>
