<?xml version="1.0" standalone="no"?>
<!DOCTYPE svg PUBLIC "-//W3C//DTD SVG 20010904//EN"
 "http://www.w3.org/TR/2001/REC-SVG-20010904/DTD/svg10.dtd">
<svg version="1.0" xmlns="http://www.w3.org/2000/svg"
 width="504.000000pt" height="435.000000pt" viewBox="0 0 504.000000 435.000000"
 preserveAspectRatio="xMidYMid meet">
<metadata>
Created by potrace 1.16, written by Peter Selinger 2001-2019
</metadata>
<g transform="translate(0.000000,435.000000) scale(0.100000,-0.100000)"
fill="#000000" stroke="none">
<path d="M1399 4340 c-278 -47 -533 -210 -689 -440 -62 -92 -127 -234 -156
-345 -34 -125 -38 -292 -11 -395 59 -224 219 -385 442 -445 86 -23 255 -30
356 -16 99 15 222 52 301 92 l56 29 -24 -90 c-85 -311 -248 -685 -430 -987
-293 -488 -661 -906 -1128 -1283 -114 -92 -137 -141 -100 -212 36 -69 156
-217 189 -232 72 -34 109 -18 280 123 246 204 529 485 730 726 811 972 1248
2276 1005 2992 -109 320 -353 496 -682 492 -51 -1 -114 -5 -139 -9z"/>
<path d="M4139 4340 c-278 -47 -533 -210 -689 -440 -62 -92 -127 -234 -156
-345 -34 -125 -38 -292 -11 -395 59 -224 219 -385 442 -445 86 -23 255 -30
356 -16 99 15 222 52 301 92 l56 29 -24 -90 c-85 -311 -248 -685 -430 -987
-293 -488 -661 -906 -1128 -1283 -114 -92 -137 -141 -100 -212 36 -69 156
-217 189 -232 72 -34 109 -18 280 123 246 204 529 485 730 726 811 972 1248
2276 1005 2992 -109 320 -353 496 -682 492 -51 -1 -114 -5 -139 -9z"/>
</g>
</svg>
