<?xml version="1.0" standalone="no"?>
<!DOCTYPE svg PUBLIC "-//W3C//DTD SVG 20010904//EN"
 "http://www.w3.org/TR/2001/REC-SVG-20010904/DTD/svg10.dtd">
<svg version="1.0" xmlns="http://www.w3.org/2000/svg"
 width="936.000000pt" height="945.000000pt" viewBox="0 0 936.000000 945.000000"
 preserveAspectRatio="xMidYMid meet">
<metadata>
Created by potrace 1.16, written by Peter Selinger 2001-2019
</metadata>
<g transform="translate(0.000000,945.000000) scale(0.100000,-0.100000)"
fill="#000000" stroke="none">
<path d="M159 9431 c-20 -11 -44 -32 -54 -48 -21 -32 -104 -352 -105 -402 0
-46 35 -105 79 -129 33 -18 62 -20 341 -26 314 -6 450 -16 580 -42 154 -32
212 -89 265 -258 121 -393 1418 -4707 1422 -4731 5 -31 -663 -2722 -711 -2864
-50 -147 -129 -227 -254 -255 -152 -34 -470 -56 -825 -56 -307 0 -301 4 -373
-283 l-48 -194 25 -48 c13 -27 37 -58 52 -69 33 -24 52 -24 602 -6 823 27
1927 22 2792 -11 277 -11 293 -11 329 7 22 11 48 33 60 51 24 36 104 343 104
400 0 53 -30 104 -76 130 -37 22 -50 23 -254 23 -387 0 -737 27 -824 64 -85
35 -88 18 318 1646 196 784 362 1436 369 1450 25 47 3360 4195 3421 4255 34
33 102 103 151 156 381 404 853 609 1463 635 161 7 204 20 236 69 21 32 106
355 106 404 0 47 -36 105 -80 130 -37 20 -44 21 -187 11 -81 -5 -343 -15 -580
-22 -451 -13 -1195 -3 -1734 23 -225 11 -238 11 -275 -7 -21 -10 -48 -33 -60
-51 -25 -38 -104 -345 -104 -405 0 -98 62 -142 215 -152 207 -13 324 -63 386
-162 17 -28 22 -51 21 -102 0 -86 -29 -163 -98 -268 -30 -45 -57 -90 -61 -100
-8 -22 -2883 -3607 -2888 -3602 -5 4 -1205 3987 -1212 4019 -4 20 3 35 28 63
83 96 281 143 644 153 300 8 294 4 365 290 47 191 47 221 3 274 -49 58 -65 60
-340 49 -807 -31 -1996 -36 -2653 -10 -577 23 -541 22 -581 1z"/>
</g>
</svg>
