<?xml version="1.0" standalone="no"?>
<!DOCTYPE svg PUBLIC "-//W3C//DTD SVG 20010904//EN"
 "http://www.w3.org/TR/2001/REC-SVG-20010904/DTD/svg10.dtd">
<svg version="1.0" xmlns="http://www.w3.org/2000/svg"
 width="569.000000pt" height="923.000000pt" viewBox="0 0 569.000000 923.000000"
 preserveAspectRatio="xMidYMid meet">
<metadata>
Created by potrace 1.16, written by Peter Selinger 2001-2019
</metadata>
<g transform="translate(0.000000,923.000000) scale(0.100000,-0.100000)"
fill="#000000" stroke="none">
<path d="M4318 9210 c-410 -101 -708 -526 -623 -889 69 -293 364 -458 682
-381 164 39 307 123 425 249 144 154 218 328 218 511 0 149 -44 260 -142 366
-132 141 -346 196 -560 144z"/>
<path d="M2665 6246 c-423 -71 -815 -321 -1122 -716 -146 -188 -289 -454 -363
-676 -52 -157 -59 -217 -31 -261 38 -61 57 -64 302 -61 l221 3 33 37 c19 20
39 56 45 80 46 171 236 353 463 442 175 69 373 97 564 79 179 -17 327 -54 668
-169 305 -101 508 -158 613 -171 28 -3 52 -8 52 -11 0 -7 -163 -194 -344 -392
-93 -102 -442 -455 -775 -785 -1346 -1332 -1632 -1626 -1966 -2015 -369 -429
-709 -900 -934 -1294 -100 -176 -109 -211 -71 -274 34 -56 64 -62 293 -62 254
0 238 -8 353 184 314 524 671 791 999 748 207 -27 310 -102 620 -447 170 -190
250 -265 368 -342 260 -171 592 -188 1002 -52 742 246 1409 1020 1665 1931
l33 117 -24 47 c-39 78 -59 84 -289 84 -170 0 -200 -3 -237 -19 -49 -23 -53
-29 -98 -167 -164 -500 -659 -908 -1198 -988 -131 -20 -225 -20 -371 -1 -156
21 -292 57 -611 164 -405 137 -577 176 -821 189 l-124 7 96 110 c238 273 477
520 1028 1065 1512 1496 1774 1770 2191 2290 285 356 490 647 645 915 154 266
162 293 120 363 -34 56 -64 62 -293 62 -258 0 -239 11 -360 -200 -135 -236
-345 -547 -417 -618 -108 -109 -168 -132 -291 -113 -190 30 -304 113 -578 419
-277 311 -411 414 -626 478 -110 32 -302 41 -430 20z"/>
</g>
</svg>
