<?xml version="1.0" standalone="no"?>
<!DOCTYPE svg PUBLIC "-//W3C//DTD SVG 20010904//EN"
 "http://www.w3.org/TR/2001/REC-SVG-20010904/DTD/svg10.dtd">
<svg version="1.0" xmlns="http://www.w3.org/2000/svg"
 width="789.000000pt" height="945.000000pt" viewBox="0 0 789.000000 945.000000"
 preserveAspectRatio="xMidYMid meet">
<metadata>
Created by potrace 1.16, written by Peter Selinger 2001-2019
</metadata>
<g transform="translate(0.000000,945.000000) scale(0.100000,-0.100000)"
fill="#000000" stroke="none">
<path d="M2369 9429 c-49 -29 -67 -64 -100 -193 -35 -135 -36 -187 -8 -233 40
-65 73 -73 297 -73 332 0 663 -25 784 -60 20 -6 47 -19 60 -29 21 -18 23 -26
22 -118 -1 -95 -16 -158 -482 -2023 -265 -1059 -486 -1933 -490 -1942 -4 -10
-323 -250 -710 -534 -386 -283 -710 -527 -719 -540 -9 -14 -18 -46 -20 -72 -4
-42 1 -55 48 -134 28 -48 66 -104 82 -124 48 -58 122 -79 181 -53 14 7 231
164 483 349 252 185 459 336 461 335 1 -1 -172 -702 -386 -1557 -425 -1700
-414 -1661 -511 -1758 -103 -103 -295 -135 -866 -147 -356 -6 -373 -10 -413
-75 -11 -18 -34 -94 -53 -169 l-33 -136 25 -49 c13 -26 37 -57 52 -68 l28 -21
3222 -3 c2169 -2 3234 0 3257 7 20 6 48 23 63 39 37 38 1231 3394 1230 3458 0
58 -30 105 -83 132 -39 19 -59 22 -174 22 -142 0 -198 -16 -230 -64 -8 -13
-58 -145 -112 -292 -275 -766 -470 -1186 -728 -1569 -279 -415 -597 -697
-1026 -911 -287 -142 -600 -234 -980 -285 -55 -8 -353 -13 -855 -16 -757 -4
-914 0 -994 28 l-34 12 6 86 c4 69 113 516 550 2265 325 1299 551 2182 559
2187 7 4 584 428 1283 941 812 597 1278 945 1292 967 16 23 23 49 23 81 0 40
-8 60 -57 136 -82 126 -84 129 -123 153 -40 24 -87 27 -133 7 -18 -8 -498
-356 -1067 -775 -569 -418 -1036 -759 -1037 -757 -2 2 147 608 332 1347 371
1485 358 1441 465 1549 64 65 117 92 221 114 196 40 412 55 894 63 358 5 404
8 436 24 52 26 67 56 105 207 37 147 36 181 -8 237 -42 54 -60 56 -371 45
-906 -32 -2250 -36 -3007 -10 -151 5 -351 12 -445 15 -162 6 -172 5 -206 -16z"/>
</g>
</svg>
