<?xml version="1.0" standalone="no"?>
<!DOCTYPE svg PUBLIC "-//W3C//DTD SVG 20010904//EN"
 "http://www.w3.org/TR/2001/REC-SVG-20010904/DTD/svg10.dtd">
<svg version="1.0" xmlns="http://www.w3.org/2000/svg"
 width="1274.000000pt" height="976.000000pt" viewBox="0 0 1274.000000 976.000000"
 preserveAspectRatio="xMidYMid meet">
<metadata>
Created by potrace 1.16, written by Peter Selinger 2001-2019
</metadata>
<g transform="translate(0.000000,976.000000) scale(0.100000,-0.100000)"
fill="#000000" stroke="none">
<path d="M175 9747 c-63 -29 -80 -63 -129 -264 -39 -161 -45 -193 -36 -225 14
-50 53 -94 93 -106 18 -6 149 -13 292 -16 246 -5 422 -21 509 -46 51 -15 83
-52 100 -114 10 -38 60 -1201 189 -4454 164 -4104 177 -4406 195 -4440 12 -23
35 -45 63 -60 43 -23 50 -23 259 -20 l215 3 54 30 c29 16 67 46 85 67 17 20
843 1542 1836 3381 1716 3181 1805 3343 1812 3309 4 -21 66 -1528 138 -3351
98 -2474 134 -3322 144 -3345 16 -37 51 -71 89 -85 17 -7 110 -11 226 -11 232
0 266 8 342 79 45 42 250 418 2258 4136 1214 2250 2226 4117 2248 4150 22 33
65 98 96 145 262 399 629 600 1141 626 219 11 225 16 290 280 51 208 51 233 0
293 -38 46 -71 52 -224 41 -74 -5 -314 -15 -532 -22 -416 -13 -1266 -2 -1802
23 -270 13 -296 9 -344 -45 -25 -28 -37 -64 -76 -222 -39 -161 -44 -194 -36
-225 23 -82 79 -119 180 -119 175 0 392 -44 517 -106 90 -45 186 -131 220
-198 48 -96 42 -183 -25 -353 -10 -23 -764 -1425 -1677 -3116 l-1660 -3073 -7
80 c-14 153 -261 6481 -254 6509 9 37 74 101 133 130 160 81 444 127 785 127
227 0 236 8 302 277 51 207 51 232 0 292 -41 49 -66 52 -319 41 -127 -5 -533
-15 -902 -22 -693 -12 -1370 -4 -1914 23 -215 11 -229 11 -265 -7 -21 -10 -48
-33 -60 -51 -24 -36 -104 -343 -104 -400 0 -53 30 -104 76 -130 36 -21 52 -23
206 -23 303 0 576 -28 649 -65 33 -18 56 -52 69 -107 5 -23 19 -261 29 -528
l20 -484 -1527 -2828 c-839 -1555 -1529 -2825 -1532 -2822 -3 3 -64 1482 -137
3287 l-131 3282 24 38 c91 140 358 211 844 225 248 8 261 11 299 74 23 37 101
343 101 395 0 54 -30 104 -78 131 l-41 23 -243 -10 c-769 -32 -1923 -37 -2538
-11 -510 21 -503 21 -535 7z"/>
</g>
</svg>
