<?xml version="1.0" standalone="no"?>
<!DOCTYPE svg PUBLIC "-//W3C//DTD SVG 20010904//EN"
 "http://www.w3.org/TR/2001/REC-SVG-20010904/DTD/svg10.dtd">
<svg version="1.0" xmlns="http://www.w3.org/2000/svg"
 width="624.000000pt" height="895.000000pt" viewBox="0 0 624.000000 895.000000"
 preserveAspectRatio="xMidYMid meet">
<metadata>
Created by potrace 1.16, written by Peter Selinger 2001-2019
</metadata>
<g transform="translate(0.000000,895.000000) scale(0.100000,-0.100000)"
fill="#000000" stroke="none">
<path d="M1320 8931 c-463 -102 -799 -496 -1071 -1254 -56 -155 -127 -393
-194 -647 -63 -241 -64 -259 -5 -315 l31 -30 222 -3 c208 -2 224 -1 255 18 18
11 39 35 47 52 8 18 46 156 85 306 181 702 337 1078 524 1266 71 70 138 105
220 113 131 12 232 -47 275 -161 59 -159 57 -426 -5 -741 -8 -44 -256 -1045
-551 -2225 -508 -2037 -534 -2149 -530 -2215 10 -141 69 -251 175 -322 159
-107 367 -110 570 -8 48 24 113 67 144 95 65 57 136 159 169 240 12 30 223
860 470 1845 l448 1789 72 141 c308 601 647 1023 1030 1280 108 73 299 166
418 205 189 61 487 95 616 71 131 -25 249 -106 327 -225 139 -214 160 -648 57
-1161 -61 -306 -188 -773 -345 -1268 -154 -483 -442 -1290 -484 -1354 -21 -33
-47 -123 -114 -390 -388 -1555 -677 -2460 -955 -2999 -173 -334 -347 -524
-479 -524 -40 0 -151 18 -165 27 -5 3 16 19 46 37 243 138 399 386 414 656 15
269 -130 467 -392 535 -85 22 -234 20 -331 -5 -103 -26 -244 -95 -319 -157
-358 -292 -417 -869 -128 -1245 134 -175 354 -298 614 -344 121 -21 351 -14
490 16 502 105 918 437 1274 1016 263 427 509 1023 739 1791 122 407 397 1460
394 1508 -1 11 41 135 92 275 422 1162 685 2057 745 2542 17 141 20 459 5 575
-46 342 -182 631 -388 825 -194 182 -475 311 -797 364 -85 15 -164 19 -345 19
-265 0 -374 -13 -596 -70 -466 -119 -900 -389 -1255 -777 l-88 -98 -11 43
c-86 339 -331 638 -641 781 -179 83 -325 115 -539 122 -127 3 -171 1 -240 -15z"/>
</g>
</svg>
