<?xml version="1.0" standalone="no"?>
<!DOCTYPE svg PUBLIC "-//W3C//DTD SVG 20010904//EN"
 "http://www.w3.org/TR/2001/REC-SVG-20010904/DTD/svg10.dtd">
<svg version="1.0" xmlns="http://www.w3.org/2000/svg"
 width="613.000000pt" height="944.000000pt" viewBox="0 0 613.000000 944.000000"
 preserveAspectRatio="xMidYMid meet">
<metadata>
Created by potrace 1.16, written by Peter Selinger 2001-2019
</metadata>
<g transform="translate(0.000000,944.000000) scale(0.100000,-0.100000)"
fill="#000000" stroke="none">
<path d="M3173 9415 c-234 -60 -491 -213 -816 -485 -226 -190 -683 -627 -713
-682 -19 -36 -18 -102 2 -144 19 -39 105 -117 148 -133 77 -30 119 -10 256
124 315 305 598 522 825 631 123 59 210 84 301 84 163 0 248 -65 480 -371 73
-97 164 -207 202 -246 93 -93 203 -166 305 -200 73 -24 96 -27 212 -27 161 1
248 24 440 118 210 102 435 263 714 510 188 166 563 538 577 573 37 86 -4 169
-120 247 -48 32 -116 35 -161 7 -16 -10 -93 -78 -170 -151 -498 -470 -879
-700 -1119 -676 -133 13 -244 102 -415 331 -254 339 -380 447 -586 500 -92 23
-250 19 -362 -10z"/>
<path d="M2986 6245 c-446 -64 -900 -277 -1341 -629 -131 -106 -391 -361 -518
-509 -474 -555 -814 -1220 -996 -1945 -85 -340 -119 -581 -128 -903 -7 -248 6
-436 43 -639 159 -868 649 -1436 1374 -1591 151 -33 450 -33 592 -1 316 70
639 233 938 472 58 47 177 155 264 242 88 87 160 156 161 155 0 -1 11 -36 24
-77 131 -416 448 -700 893 -797 129 -28 385 -25 498 5 316 85 571 322 775 723
144 283 251 594 395 1149 68 262 69 279 10 335 l-31 30 -172 3 c-158 2 -175 1
-205 -18 -18 -11 -39 -35 -47 -52 -8 -18 -46 -155 -85 -305 -127 -494 -219
-770 -335 -1008 -83 -169 -132 -243 -226 -337 -106 -108 -161 -133 -289 -133
-86 1 -100 4 -148 29 -57 32 -93 73 -124 143 -65 147 -64 467 3 803 12 58 248
1014 525 2126 383 1537 504 2035 504 2080 0 115 -43 218 -119 287 -233 211
-661 95 -819 -222 -23 -46 -42 -90 -42 -99 0 -8 -37 41 -82 109 -188 285 -443
473 -746 551 -102 26 -139 30 -282 34 -108 2 -199 -2 -264 -11z m404 -419
c262 -72 484 -316 610 -671 41 -118 85 -297 105 -433 l16 -109 -364 -1455
-364 -1456 -68 -103 c-455 -697 -989 -1129 -1459 -1181 -314 -35 -545 97 -691
397 -54 111 -78 181 -104 310 -67 320 -47 705 64 1260 47 233 253 1071 330
1340 225 785 494 1306 875 1685 141 142 260 235 394 309 95 52 235 104 327
120 72 13 261 5 329 -13z"/>
</g>
</svg>
