<?xml version="1.0" standalone="no"?>
<!DOCTYPE svg PUBLIC "-//W3C//DTD SVG 20010904//EN"
 "http://www.w3.org/TR/2001/REC-SVG-20010904/DTD/svg10.dtd">
<svg version="1.0" xmlns="http://www.w3.org/2000/svg"
 width="596.000000pt" height="863.000000pt" viewBox="0 0 596.000000 863.000000"
 preserveAspectRatio="xMidYMid meet">
<metadata>
Created by potrace 1.16, written by Peter Selinger 2001-2019
</metadata>
<g transform="translate(0.000000,863.000000) scale(0.100000,-0.100000)"
fill="#000000" stroke="none">
<path d="M2250 8608 c-72 -50 -97 -123 -63 -188 25 -47 1285 -1735 1331 -1783
46 -48 96 -62 149 -44 51 17 2248 1779 2269 1818 36 70 5 166 -66 201 -76 38
-37 58 -1056 -523 -522 -298 -966 -551 -988 -564 l-38 -23 -695 555 c-382 305
-706 558 -720 564 -41 15 -88 10 -123 -13z"/>
<path d="M3080 6009 c-1106 -120 -2182 -906 -2705 -1974 -229 -469 -357 -1021
-372 -1606 -13 -525 72 -962 267 -1367 257 -533 675 -885 1202 -1012 209 -50
428 -62 693 -39 995 85 1930 587 2492 1336 79 106 92 143 69 198 -18 41 -137
170 -178 191 -71 37 -124 9 -219 -116 -544 -717 -1368 -1192 -2199 -1269 -371
-35 -579 23 -781 216 -349 334 -471 931 -358 1758 22 164 89 511 140 728 l33
137 240 0 c1513 1 2398 228 2879 740 172 182 278 384 349 660 31 118 33 135
32 295 0 151 -3 181 -27 267 -53 200 -151 364 -303 506 -183 173 -418 286
-704 338 -102 19 -426 27 -550 13z m475 -359 c375 -97 593 -404 572 -805 -21
-393 -233 -723 -601 -935 -418 -240 -1023 -355 -1984 -377 -287 -6 -294 -6
-289 13 4 10 29 95 57 189 148 491 350 891 603 1194 341 407 796 680 1232 740
109 15 316 6 410 -19z"/>
</g>
</svg>
