<?xml version="1.0" standalone="no"?>
<!DOCTYPE svg PUBLIC "-//W3C//DTD SVG 20010904//EN"
 "http://www.w3.org/TR/2001/REC-SVG-20010904/DTD/svg10.dtd">
<svg version="1.0" xmlns="http://www.w3.org/2000/svg"
 width="779.000000pt" height="907.000000pt" viewBox="0 0 779.000000 907.000000"
 preserveAspectRatio="xMidYMid meet">
<metadata>
Created by potrace 1.16, written by Peter Selinger 2001-2019
</metadata>
<g transform="translate(0.000000,907.000000) scale(0.100000,-0.100000)"
fill="#000000" stroke="none">
<path d="M2281 9053 c-51 -27 -70 -59 -98 -169 -28 -110 -26 -157 6 -202 39
-55 69 -62 278 -62 350 0 650 -27 760 -68 63 -23 78 -61 69 -176 -8 -96 -1850
-7475 -1896 -7594 -58 -151 -128 -225 -246 -262 -139 -43 -449 -70 -802 -70
-211 0 -228 -4 -274 -59 -17 -19 -34 -65 -52 -136 -30 -122 -26 -162 21 -207
53 -49 56 -49 300 -38 126 5 496 15 823 21 612 12 1362 3 1981 -22 364 -15
364 -15 414 181 30 117 28 153 -12 200 -47 56 -64 60 -275 60 -343 0 -620 24
-738 63 -84 29 -92 44 -87 163 3 77 35 215 203 887 l199 797 916 0 c555 0 958
4 1020 10 1195 119 2338 989 2794 2125 340 846 227 1697 -299 2262 -286 307
-717 517 -1189 578 -99 12 -272 15 -1056 15 l-939 0 113 448 c113 453 134 517
190 607 101 161 261 199 885 212 322 6 333 8 378 56 27 28 71 187 72 253 0 52
-33 103 -81 127 -33 16 -55 16 -270 7 -881 -37 -1858 -35 -2919 6 -138 5 -159
3 -189 -13z m3479 -2181 c399 -123 668 -480 755 -1002 22 -132 30 -390 16
-540 -59 -655 -334 -1285 -775 -1773 -334 -370 -739 -621 -1159 -719 -89 -21
-117 -22 -859 -25 -423 -2 -768 -1 -768 2 0 5 988 3963 1011 4048 l10 38 847
-3 847 -3 75 -23z"/>
</g>
</svg>
