<?xml version="1.0" standalone="no"?>
<!DOCTYPE svg PUBLIC "-//W3C//DTD SVG 20010904//EN"
 "http://www.w3.org/TR/2001/REC-SVG-20010904/DTD/svg10.dtd">
<svg version="1.0" xmlns="http://www.w3.org/2000/svg"
 width="872.000000pt" height="786.000000pt" viewBox="0 0 872.000000 786.000000"
 preserveAspectRatio="xMidYMid meet">
<metadata>
Created by potrace 1.16, written by Peter Selinger 2001-2019
</metadata>
<g transform="translate(0.000000,786.000000) scale(0.100000,-0.100000)"
fill="#000000" stroke="none">
<path d="M8430 7846 c-19 -7 -1902 -851 -4185 -1877 -3266 -1467 -4156 -1871
-4182 -1897 -20 -20 -39 -53 -48 -87 -15 -50 -15 -60 -1 -107 9 -29 26 -65 38
-80 21 -25 6435 -3750 6518 -3785 83 -36 200 8 247 92 46 82 23 204 -49 258
-18 13 -1399 815 -3068 1782 -1669 967 -3036 1759 -3037 1760 -2 1 1785 804
3970 1785 3621 1627 3976 1788 4013 1826 151 153 -13 404 -216 330z"/>
</g>
</svg>
