<?xml version="1.0" standalone="no"?>
<!DOCTYPE svg PUBLIC "-//W3C//DTD SVG 20010904//EN"
 "http://www.w3.org/TR/2001/REC-SVG-20010904/DTD/svg10.dtd">
<svg version="1.0" xmlns="http://www.w3.org/2000/svg"
 width="648.000000pt" height="976.000000pt" viewBox="0 0 648.000000 976.000000"
 preserveAspectRatio="xMidYMid meet">
<metadata>
Created by potrace 1.16, written by Peter Selinger 2001-2019
</metadata>
<g transform="translate(0.000000,976.000000) scale(0.100000,-0.100000)"
fill="#000000" stroke="none">
<path d="M2140 9684 c-987 -80 -968 -78 -1008 -143 -10 -16 -33 -92 -51 -169
l-34 -139 24 -49 c44 -88 45 -88 332 -96 282 -7 415 -19 530 -50 135 -36 161
-83 138 -260 -7 -52 -454 -1860 -1038 -4192 -980 -3915 -1026 -4105 -1027
-4191 0 -115 25 -183 96 -261 227 -248 689 -135 848 208 20 44 169 623 484
1888 l455 1825 88 175 c213 424 440 755 697 1019 350 358 705 542 1141 591
261 29 406 -6 538 -130 109 -102 161 -214 198 -427 26 -150 28 -400 4 -593
-69 -569 -326 -1453 -806 -2775 -168 -461 -197 -594 -186 -854 18 -423 231
-773 572 -942 470 -231 1015 -123 1446 288 358 342 673 930 855 1598 40 148
38 178 -16 230 l-31 30 -172 3 c-242 4 -239 6 -302 -233 -133 -510 -334 -966
-540 -1230 -204 -261 -421 -388 -665 -389 -117 -1 -140 5 -190 50 -63 57 -75
107 -74 309 0 146 4 188 28 300 35 163 78 305 168 554 380 1056 512 1454 662
1986 163 580 210 849 209 1195 0 242 -17 370 -74 545 -168 526 -575 828 -1204
896 -135 14 -419 6 -565 -16 -493 -76 -937 -303 -1326 -678 l-102 -97 514
2052 c282 1129 514 2073 514 2097 0 90 -71 152 -172 150 -29 -1 -460 -35 -958
-75z"/>
</g>
</svg>
