<?xml version="1.0" standalone="no"?>
<!DOCTYPE svg PUBLIC "-//W3C//DTD SVG 20010904//EN"
 "http://www.w3.org/TR/2001/REC-SVG-20010904/DTD/svg10.dtd">
<svg version="1.0" xmlns="http://www.w3.org/2000/svg"
 width="618.000000pt" height="949.000000pt" viewBox="0 0 618.000000 949.000000"
 preserveAspectRatio="xMidYMid meet">
<metadata>
Created by potrace 1.16, written by Peter Selinger 2001-2019
</metadata>
<g transform="translate(0.000000,949.000000) scale(0.100000,-0.100000)"
fill="#000000" stroke="none">
<path d="M3215 9470 c-239 -63 -443 -181 -750 -434 -125 -103 -696 -662 -746
-730 -33 -45 -39 -117 -15 -165 16 -31 143 -147 196 -180 38 -23 83 -27 126
-11 15 6 78 59 138 118 483 466 814 668 1065 649 152 -12 250 -83 518 -379
190 -210 329 -314 491 -365 341 -108 744 59 1264 524 62 56 233 222 379 370
296 297 305 310 280 396 -14 46 -108 144 -190 198 -49 32 -114 39 -154 17 -12
-6 -87 -73 -167 -149 -568 -538 -907 -702 -1175 -570 -83 41 -171 120 -336
301 -246 270 -373 364 -557 411 -100 25 -269 25 -367 -1z"/>
<path d="M3100 6254 c-617 -74 -1215 -388 -1746 -919 -371 -370 -650 -762
-883 -1240 -485 -992 -601 -2078 -309 -2880 236 -647 682 -1054 1299 -1186 87
-19 136 -23 304 -23 172 0 215 3 305 22 420 91 827 325 1205 694 l122 118 18
-47 c36 -98 129 -264 191 -341 239 -299 626 -467 1034 -449 277 12 487 110
701 327 294 296 506 763 724 1590 63 241 64 259 5 315 l-31 30 -222 3 c-208 2
-224 1 -255 -18 -18 -11 -39 -35 -47 -52 -8 -18 -46 -156 -85 -306 -211 -821
-398 -1220 -630 -1347 -49 -26 -65 -30 -140 -30 -72 0 -93 4 -135 25 -59 30
-107 96 -130 175 -39 131 -36 365 6 615 11 69 248 1033 525 2143 548 2193 525
2088 485 2216 -36 117 -100 195 -199 245 -194 98 -435 65 -639 -88 -58 -44
-142 -142 -166 -193 -6 -13 -13 -23 -16 -22 -3 0 -35 41 -71 90 -191 263 -465
443 -785 515 -68 15 -358 27 -435 18z m315 -530 c312 -84 555 -423 658 -919
48 -230 81 -58 -316 -1647 l-354 -1418 -44 -67 c-305 -474 -698 -866 -1038
-1037 -151 -76 -342 -126 -480 -126 -338 1 -593 250 -681 665 -43 201 -39 526
11 857 62 423 345 1578 499 2038 127 377 261 668 415 900 243 365 572 642 879
740 130 42 327 48 451 14z"/>
</g>
</svg>
