<?xml version="1.0" standalone="no"?>
<!DOCTYPE svg PUBLIC "-//W3C//DTD SVG 20010904//EN"
 "http://www.w3.org/TR/2001/REC-SVG-20010904/DTD/svg10.dtd">
<svg version="1.0" xmlns="http://www.w3.org/2000/svg"
 width="504.000000pt" height="239.000000pt" viewBox="0 0 504.000000 239.000000"
 preserveAspectRatio="xMidYMid meet">
<metadata>
Created by potrace 1.16, written by Peter Selinger 2001-2019
</metadata>
<g transform="translate(0.000000,239.000000) scale(0.100000,-0.100000)"
fill="#000000" stroke="none">
<path d="M2935 2371 c-66 -30 -2847 -1910 -2886 -1950 -26 -26 -39 -51 -44
-81 -7 -41 -3 -53 56 -169 78 -152 103 -175 189 -169 53 4 109 37 1328 777
700 425 1278 771 1285 768 7 -3 405 -348 886 -767 481 -419 885 -766 898 -771
36 -13 100 -11 131 5 15 8 75 63 134 123 114 116 128 143 113 220 -7 41 90
-61 -1159 1210 -648 660 -794 804 -824 813 -50 13 -60 13 -107 -9z"/>
</g>
</svg>
