<?xml version="1.0" standalone="no"?>
<!DOCTYPE svg PUBLIC "-//W3C//DTD SVG 20010904//EN"
 "http://www.w3.org/TR/2001/REC-SVG-20010904/DTD/svg10.dtd">
<svg version="1.0" xmlns="http://www.w3.org/2000/svg"
 width="558.000000pt" height="880.000000pt" viewBox="0 0 558.000000 880.000000"
 preserveAspectRatio="xMidYMid meet">
<metadata>
Created by potrace 1.16, written by Peter Selinger 2001-2019
</metadata>
<g transform="translate(0.000000,880.000000) scale(0.100000,-0.100000)"
fill="#000000" stroke="none">
<path d="M3055 8789 c-44 -5 -132 -21 -195 -35 -1123 -247 -2188 -1352 -2638
-2734 -303 -929 -293 -1802 28 -2475 108 -227 221 -386 393 -551 233 -224 496
-361 819 -426 161 -32 455 -32 607 1 303 65 656 238 931 457 41 33 80 63 86
67 15 9 -537 -2197 -561 -2243 -36 -71 -77 -120 -118 -144 -88 -51 -290 -75
-717 -84 -326 -8 -330 -8 -369 -74 -23 -37 -101 -343 -101 -395 0 -54 30 -104
78 -131 40 -23 42 -23 239 -13 109 6 455 16 770 23 590 12 1350 3 1919 -23
229 -11 244 -11 280 7 21 11 48 33 60 51 24 36 104 343 104 400 0 52 -30 104
-74 129 -34 20 -57 21 -339 27 -387 8 -579 29 -619 69 -13 13 -18 33 -18 78 0
46 224 957 976 3962 724 2899 974 3912 970 3938 -11 66 -68 119 -139 127 -41
5 -59 -2 -213 -81 -377 -192 -609 -360 -766 -555 l-35 -44 -64 94 c-79 116
-233 277 -337 352 -141 102 -300 172 -482 213 -81 18 -366 26 -475 13z m297
-513 c96 -19 168 -48 249 -102 217 -144 387 -447 464 -829 46 -229 79 -63
-314 -1635 -204 -819 -360 -1424 -373 -1450 -72 -140 -325 -467 -507 -654
-272 -277 -543 -455 -798 -523 -141 -37 -325 -39 -432 -4 -256 84 -442 351
-495 712 -29 198 -18 519 29 820 53 333 300 1361 434 1804 193 633 380 1012
660 1338 341 395 741 589 1083 523z"/>
</g>
</svg>
