<?xml version="1.0" standalone="no"?>
<!DOCTYPE svg PUBLIC "-//W3C//DTD SVG 20010904//EN"
 "http://www.w3.org/TR/2001/REC-SVG-20010904/DTD/svg10.dtd">
<svg version="1.0" xmlns="http://www.w3.org/2000/svg"
 width="496.000000pt" height="425.000000pt" viewBox="0 0 496.000000 425.000000"
 preserveAspectRatio="xMidYMid meet">
<metadata>
Created by potrace 1.16, written by Peter Selinger 2001-2019
</metadata>
<g transform="translate(0.000000,425.000000) scale(0.100000,-0.100000)"
fill="#000000" stroke="none">
<path d="M1351 4239 c-251 -44 -488 -198 -632 -411 -59 -86 -124 -229 -150
-328 -34 -127 -32 -295 4 -406 51 -155 148 -267 292 -335 232 -110 547 -86
795 61 57 34 80 44 76 32 -2 -9 -18 -69 -35 -132 -224 -855 -807 -1711 -1581
-2324 -153 -121 -158 -170 -33 -324 75 -92 134 -94 249 -7 218 164 600 532
794 765 460 553 778 1139 955 1760 88 309 119 506 118 755 0 194 -16 304 -64
441 -58 166 -135 273 -254 353 -110 73 -208 102 -360 107 -66 1 -144 -1 -174
-7z"/>
<path d="M4091 4239 c-251 -44 -488 -198 -632 -411 -59 -86 -124 -229 -150
-328 -34 -127 -32 -295 4 -406 51 -155 148 -267 292 -335 232 -110 547 -86
795 61 57 34 80 44 76 32 -2 -9 -18 -69 -35 -132 -224 -855 -807 -1711 -1581
-2324 -153 -121 -158 -170 -33 -324 75 -92 134 -94 249 -7 218 164 600 532
794 765 460 553 778 1139 955 1760 88 309 119 506 118 755 0 194 -16 304 -64
441 -58 166 -135 273 -254 353 -110 73 -208 102 -360 107 -66 1 -144 -1 -174
-7z"/>
</g>
</svg>
