<?xml version="1.0" standalone="no"?>
<!DOCTYPE svg PUBLIC "-//W3C//DTD SVG 20010904//EN"
 "http://www.w3.org/TR/2001/REC-SVG-20010904/DTD/svg10.dtd">
<svg version="1.0" xmlns="http://www.w3.org/2000/svg"
 width="814.000000pt" height="945.000000pt" viewBox="0 0 814.000000 945.000000"
 preserveAspectRatio="xMidYMid meet">
<metadata>
Created by potrace 1.16, written by Peter Selinger 2001-2019
</metadata>
<g transform="translate(0.000000,945.000000) scale(0.100000,-0.100000)"
fill="#000000" stroke="none">
<path d="M2369 9429 c-49 -29 -67 -64 -100 -193 -35 -135 -36 -187 -8 -233 40
-65 73 -73 297 -73 332 0 663 -25 784 -60 20 -6 47 -19 60 -29 21 -18 23 -26
22 -118 -1 -96 -24 -190 -971 -3973 -1061 -4240 -991 -3979 -1092 -4080 -103
-103 -295 -135 -866 -147 -356 -6 -373 -10 -413 -75 -11 -18 -34 -94 -53 -169
l-33 -136 25 -49 c13 -26 37 -57 52 -68 33 -24 50 -24 577 -6 796 27 1860 22
2691 -11 271 -11 276 -11 316 9 57 29 75 66 114 223 l33 136 -25 49 c-45 90
-37 88 -392 96 -496 10 -736 42 -769 101 -8 13 -12 57 -11 107 1 75 24 178
197 870 108 432 201 802 207 823 l10 37 952 0 c782 0 975 3 1082 15 761 88
1500 458 2085 1045 984 985 1268 2334 687 3265 -116 187 -303 385 -488 518
-191 137 -503 272 -749 326 -251 54 -254 54 -1292 58 -533 3 -968 6 -968 9 0
20 215 855 231 901 30 80 101 185 148 217 22 15 67 36 100 46 133 42 469 70
841 70 287 0 294 5 350 229 36 147 35 182 -7 232 -49 57 -66 60 -320 49 -506
-21 -1285 -32 -1828 -26 -502 6 -687 10 -1275 31 -157 6 -167 5 -201 -16z
m3479 -2270 c122 -13 254 -56 357 -117 93 -55 251 -206 311 -297 270 -413 326
-1007 158 -1675 -137 -546 -404 -1025 -793 -1424 -321 -328 -674 -541 -1051
-634 l-105 -26 -788 -3 c-754 -4 -788 -3 -783 14 3 10 237 947 521 2083 284
1136 518 2071 520 2078 6 16 1505 18 1653 1z"/>
</g>
</svg>
