<?xml version="1.0" standalone="no"?>
<!DOCTYPE svg PUBLIC "-//W3C//DTD SVG 20010904//EN"
 "http://www.w3.org/TR/2001/REC-SVG-20010904/DTD/svg10.dtd">
<svg version="1.0" xmlns="http://www.w3.org/2000/svg"
 width="917.000000pt" height="1264.000000pt" viewBox="0 0 917.000000 1264.000000"
 preserveAspectRatio="xMidYMid meet">
<metadata>
Created by potrace 1.16, written by Peter Selinger 2001-2019
</metadata>
<g transform="translate(0.000000,1264.000000) scale(0.100000,-0.100000)"
fill="#000000" stroke="none">
<path d="M4594 12626 c-65 -29 -92 -92 -120 -280 -21 -144 -14 -391 15 -516
58 -251 176 -465 356 -646 109 -110 220 -190 372 -267 385 -195 820 -246 1307
-151 665 130 1281 532 1644 1074 129 193 272 532 272 645 0 103 -67 155 -200
155 -140 0 -170 -24 -220 -179 -120 -375 -418 -688 -855 -901 -660 -321 -1442
-318 -1926 7 -87 58 -213 190 -262 273 -85 147 -116 340 -83 528 21 121 20
158 -5 199 -33 53 -83 73 -181 73 -47 -1 -97 -7 -114 -14z"/>
<path d="M5535 10060 c-637 -54 -1291 -251 -1915 -577 -1773 -928 -3136 -2769
-3519 -4753 -66 -341 -91 -582 -98 -935 -8 -400 14 -667 83 -1013 71 -355 168
-641 329 -967 177 -359 356 -609 634 -885 521 -518 1151 -813 1951 -912 160
-20 639 -17 820 5 303 37 652 121 937 227 219 81 514 232 703 359 193 129 326
238 467 383 l102 105 55 -111 c93 -187 237 -388 406 -569 86 -92 118 -111 172
-104 51 7 85 30 103 70 8 18 170 653 360 1412 190 759 357 1416 370 1460 30
98 74 175 118 209 77 59 221 84 532 93 307 8 309 9 364 238 34 142 32 175 -11
230 -40 52 -68 56 -275 45 -717 -38 -1763 -38 -2899 1 -340 11 -340 11 -383
-10 -23 -12 -50 -35 -59 -50 -10 -16 -33 -92 -51 -169 l-34 -139 24 -49 c46
-92 28 -88 457 -96 483 -8 695 -24 864 -64 104 -25 128 -57 128 -174 0 -56
-31 -193 -160 -712 -179 -716 -183 -732 -250 -874 -231 -494 -751 -909 -1383
-1103 -112 -35 -290 -73 -427 -93 -138 -19 -503 -16 -660 5 -617 86 -1137 360
-1492 789 -657 792 -754 1943 -311 3703 351 1397 860 2398 1612 3167 644 660
1447 1114 2257 1277 258 52 403 66 674 65 257 0 408 -14 599 -55 629 -135
1085 -461 1282 -919 81 -188 112 -362 107 -606 -3 -179 2 -196 65 -234 28 -18
51 -20 187 -20 174 0 211 10 241 65 9 17 137 512 284 1102 l267 1072 -18 38
c-30 59 -74 83 -156 83 -42 0 -80 -6 -98 -15 -17 -9 -216 -145 -442 -303 -227
-159 -425 -296 -440 -306 l-28 -18 -67 50 c-118 87 -221 150 -362 221 -357
181 -746 292 -1221 346 -157 19 -647 28 -795 15z"/>
</g>
</svg>
