<?xml version="1.0" standalone="no"?>
<!DOCTYPE svg PUBLIC "-//W3C//DTD SVG 20010904//EN"
 "http://www.w3.org/TR/2001/REC-SVG-20010904/DTD/svg10.dtd">
<svg version="1.0" xmlns="http://www.w3.org/2000/svg"
 width="827.000000pt" height="1036.000000pt" viewBox="0 0 827.000000 1036.000000"
 preserveAspectRatio="xMidYMid meet">
<metadata>
Created by potrace 1.16, written by Peter Selinger 2001-2019
</metadata>
<g transform="translate(0.000000,1036.000000) scale(0.100000,-0.100000)"
fill="#000000" stroke="none">
<path d="M7405 10344 c-170 -38 -327 -124 -446 -243 -214 -215 -313 -525 -249
-775 26 -104 63 -169 137 -244 207 -210 615 -217 914 -17 43 29 79 51 79 49 0
-3 -21 -57 -46 -122 -237 -600 -704 -1124 -1301 -1461 -135 -76 -154 -132 -83
-239 42 -62 85 -92 134 -92 46 0 230 104 408 231 663 472 1116 1130 1285 1864
14 63 18 119 17 265 -1 217 -15 286 -89 438 -80 160 -200 269 -365 325 -72 25
-103 31 -205 33 -83 3 -141 -1 -190 -12z"/>
<path d="M2281 9053 c-51 -27 -70 -59 -98 -169 -28 -110 -26 -157 6 -202 39
-55 69 -62 278 -62 350 0 650 -27 760 -68 63 -23 78 -61 69 -176 -8 -96 -1850
-7475 -1896 -7594 -58 -151 -128 -225 -246 -262 -139 -43 -449 -70 -802 -70
-211 0 -228 -4 -274 -59 -37 -43 -82 -229 -68 -280 10 -37 46 -79 87 -100 16
-8 846 -11 3106 -11 l3084 0 33 22 c18 13 41 34 51 48 22 31 1149 3213 1149
3243 -1 41 -37 103 -72 125 -31 19 -50 22 -154 22 -128 0 -165 -12 -198 -62
-8 -13 -56 -138 -107 -278 -303 -844 -525 -1292 -834 -1688 -439 -562 -1119
-909 -1909 -972 -163 -13 -1515 -13 -1616 0 -138 18 -148 31 -129 168 13 98
1870 7528 1903 7616 49 128 140 237 232 276 144 62 556 99 1100 100 233 0 242
1 274 23 51 34 67 64 96 171 29 112 27 149 -13 196 -51 62 -54 62 -366 51
-1028 -38 -2167 -36 -3252 4 -143 6 -164 4 -194 -12z"/>
</g>
</svg>
