<?xml version="1.0" standalone="no"?>
<!DOCTYPE svg PUBLIC "-//W3C//DTD SVG 20010904//EN"
 "http://www.w3.org/TR/2001/REC-SVG-20010904/DTD/svg10.dtd">
<svg version="1.0" xmlns="http://www.w3.org/2000/svg"
 width="622.000000pt" height="916.000000pt" viewBox="0 0 622.000000 916.000000"
 preserveAspectRatio="xMidYMid meet">
<metadata>
Created by potrace 1.16, written by Peter Selinger 2001-2019
</metadata>
<g transform="translate(0.000000,916.000000) scale(0.100000,-0.100000)"
fill="#000000" stroke="none">
<path d="M4055 9149 c-391 -38 -839 -183 -1210 -394 -428 -242 -810 -594
-1070 -985 -92 -138 -230 -415 -280 -560 -90 -261 -125 -492 -106 -689 44
-438 301 -716 682 -738 402 -24 837 239 1046 632 167 315 170 639 9 970 -70
142 -105 190 -151 205 -54 18 -93 6 -162 -50 -87 -71 -102 -122 -58 -200 115
-202 150 -321 143 -479 -8 -182 -74 -330 -209 -475 -125 -133 -268 -219 -421
-250 -243 -50 -375 32 -424 264 -24 115 -15 340 20 494 58 253 168 503 324
736 414 621 1089 1060 1792 1165 476 72 844 -24 1098 -284 317 -326 372 -827
176 -1613 -151 -604 -371 -1034 -696 -1360 -267 -266 -613 -454 -973 -529
-102 -21 -143 -23 -570 -28 -510 -7 -506 -6 -538 -73 -8 -18 -27 -80 -42 -138
-30 -120 -28 -155 15 -203 l28 -32 434 -6 c330 -5 450 -10 503 -22 200 -43
362 -141 485 -294 106 -131 169 -272 206 -463 27 -140 25 -444 -5 -640 -30
-194 -71 -391 -137 -652 -139 -550 -306 -931 -555 -1260 -87 -115 -315 -341
-430 -426 -402 -297 -855 -449 -1279 -429 -371 18 -663 144 -893 386 -207 218
-315 479 -352 852 l-6 66 93 6 c201 12 382 106 504 262 54 70 82 124 115 220
20 59 24 90 24 190 0 114 -2 123 -32 187 -134 283 -536 333 -835 106 -126 -96
-207 -227 -251 -403 -97 -385 -85 -767 34 -1112 237 -688 862 -1103 1661
-1103 591 0 1225 185 1778 518 447 269 841 642 1111 1050 410 620 552 1327
394 1954 -123 482 -411 863 -835 1103 l-102 58 74 27 c507 186 1034 570 1385
1008 647 811 816 1760 443 2491 -82 161 -173 286 -304 416 -141 139 -263 226
-447 319 -225 113 -458 179 -718 206 -119 12 -355 11 -486 -1z"/>
</g>
</svg>
