<?xml version="1.0" standalone="no"?>
<!DOCTYPE svg PUBLIC "-//W3C//DTD SVG 20010904//EN"
 "http://www.w3.org/TR/2001/REC-SVG-20010904/DTD/svg10.dtd">
<svg version="1.0" xmlns="http://www.w3.org/2000/svg"
 width="688.000000pt" height="904.000000pt" viewBox="0 0 688.000000 904.000000"
 preserveAspectRatio="xMidYMid meet">
<metadata>
Created by potrace 1.16, written by Peter Selinger 2001-2019
</metadata>
<g transform="translate(0.000000,904.000000) scale(0.100000,-0.100000)"
fill="#000000" stroke="none">
<path d="M4085 9024 c-198 -42 -454 -182 -731 -398 -168 -130 -275 -225 -541
-478 -260 -247 -273 -264 -259 -343 8 -43 68 -112 113 -132 40 -16 91 -16 119
0 12 7 89 73 170 149 343 315 596 503 816 608 175 83 293 100 404 59 84 -32
176 -129 313 -331 217 -321 337 -427 539 -479 305 -78 698 97 1222 546 188
161 587 544 605 581 28 59 15 116 -38 172 -42 44 -78 62 -124 62 -50 0 -76
-18 -218 -150 -566 -528 -980 -762 -1212 -684 -106 35 -171 103 -343 354 -54
80 -124 175 -154 212 -107 129 -245 221 -378 253 -79 18 -212 18 -303 -1z"/>
<path d="M1237 6010 c-273 -49 -500 -211 -681 -485 -191 -289 -327 -658 -512
-1380 l-48 -190 20 -39 c34 -70 58 -81 198 -84 136 -4 182 7 211 51 9 14 48
146 86 294 205 789 351 1144 559 1354 117 118 171 144 300 144 79 0 103 -4
142 -23 83 -41 139 -126 169 -257 22 -95 17 -390 -9 -553 -33 -203 -38 -224
-578 -2382 -278 -1108 -507 -2040 -511 -2071 -21 -205 131 -373 350 -386 96
-6 177 12 271 59 84 43 194 154 234 238 23 48 145 524 472 1830 242 971 452
1792 466 1825 85 202 331 618 498 843 136 182 402 453 546 554 291 206 570
305 904 324 206 12 340 -31 454 -147 123 -123 179 -286 201 -575 41 -533 -195
-1464 -774 -3059 -70 -192 -140 -400 -156 -461 -54 -216 -61 -434 -19 -624 83
-379 309 -641 648 -753 431 -143 883 -15 1255 357 290 290 541 743 720 1301
30 94 64 211 77 261 23 90 23 91 4 129 -34 69 -59 80 -198 83 -197 6 -212 -7
-266 -216 -44 -171 -130 -436 -197 -607 -205 -519 -474 -863 -762 -974 -147
-56 -320 -65 -399 -21 -127 71 -155 302 -81 660 35 170 79 308 225 713 383
1055 626 1840 723 2332 60 305 73 652 32 879 -40 224 -125 431 -241 584 -230
306 -644 482 -1136 482 -677 0 -1296 -300 -1783 -865 -47 -55 -96 -113 -107
-129 l-21 -30 -12 67 c-57 326 -230 605 -479 771 -176 116 -371 175 -602 181
-80 2 -167 0 -193 -5z"/>
</g>
</svg>
