<?xml version="1.0" standalone="no"?>
<!DOCTYPE svg PUBLIC "-//W3C//DTD SVG 20010904//EN"
 "http://www.w3.org/TR/2001/REC-SVG-20010904/DTD/svg10.dtd">
<svg version="1.0" xmlns="http://www.w3.org/2000/svg"
 width="569.000000pt" height="1210.000000pt" viewBox="0 0 569.000000 1210.000000"
 preserveAspectRatio="xMidYMid meet">
<metadata>
Created by potrace 1.16, written by Peter Selinger 2001-2019
</metadata>
<g transform="translate(0.000000,1210.000000) scale(0.100000,-0.100000)"
fill="#000000" stroke="none">
<path d="M4110 12090 c-784 -97 -1547 -688 -1941 -1505 -87 -181 -138 -322
-187 -520 -59 -237 -77 -381 -77 -630 0 -222 10 -318 51 -505 72 -325 229
-653 428 -894 31 -38 53 -73 49 -77 -4 -4 -46 -29 -93 -55 -557 -307 -1033
-871 -1258 -1489 -53 -146 -116 -399 -138 -560 -22 -157 -25 -502 -6 -640 82
-580 354 -1070 787 -1418 141 -113 240 -176 465 -292 329 -171 480 -274 656
-450 228 -227 326 -442 327 -715 0 -129 -10 -192 -58 -360 -112 -390 -338
-787 -616 -1084 -278 -297 -619 -493 -940 -540 -506 -75 -916 156 -1057 594
-23 73 -42 168 -42 215 0 30 2 31 63 44 196 40 360 201 412 406 94 367 -286
598 -641 390 -125 -73 -213 -205 -253 -380 -78 -341 -39 -676 114 -962 340
-640 1203 -847 2015 -483 647 291 1196 892 1448 1585 53 146 116 399 138 560
22 157 25 502 6 640 -59 415 -226 808 -466 1099 -31 38 -53 73 -49 77 4 4 46
29 93 55 557 307 1033 871 1258 1489 53 146 116 399 138 560 22 157 25 502 6
640 -82 580 -354 1070 -787 1418 -141 113 -240 176 -465 292 -329 171 -480
274 -656 450 -228 227 -326 442 -327 715 0 129 10 192 58 360 112 390 338 787
616 1084 278 297 619 493 940 540 506 75 916 -156 1057 -594 23 -73 42 -168
42 -215 0 -30 -2 -31 -62 -44 -197 -40 -361 -201 -413 -406 -71 -278 133 -501
426 -464 178 22 338 135 412 291 95 199 122 540 63 798 -115 504 -476 847
-1011 960 -115 24 -400 35 -525 20z m-1329 -4434 c89 -67 198 -132 389 -232
330 -170 480 -273 656 -449 228 -227 326 -442 327 -715 0 -129 -10 -192 -58
-360 -91 -318 -272 -666 -485 -935 -152 -192 -394 -404 -588 -516 l-73 -42
-37 28 c-104 76 -225 149 -402 240 -329 171 -480 274 -656 450 -228 227 -326
442 -327 715 0 129 10 192 58 360 91 318 272 666 485 935 89 113 311 329 408
398 84 60 240 157 252 157 4 0 27 -15 51 -34z"/>
</g>
</svg>
