<?xml version="1.0" standalone="no"?>
<!DOCTYPE svg PUBLIC "-//W3C//DTD SVG 20010904//EN"
 "http://www.w3.org/TR/2001/REC-SVG-20010904/DTD/svg10.dtd">
<svg version="1.0" xmlns="http://www.w3.org/2000/svg"
 width="1068.000000pt" height="1023.000000pt" viewBox="0 0 1068.000000 1023.000000"
 preserveAspectRatio="xMidYMid meet">
<metadata>
Created by potrace 1.16, written by Peter Selinger 2001-2019
</metadata>
<g transform="translate(0.000000,1023.000000) scale(0.100000,-0.100000)"
fill="#000000" stroke="none">
<path d="M7445 10219 c-879 -67 -1788 -438 -2553 -1041 -66 -51 -111 -82 -108
-71 31 105 116 472 116 504 0 54 -31 104 -80 129 -36 18 -43 19 -151 4 -63 -8
-229 -17 -369 -20 -265 -7 -1092 8 -1596 27 l-292 12 -40 -23 c-22 -12 -49
-39 -59 -59 -32 -57 -107 -374 -99 -416 9 -45 57 -101 99 -114 18 -5 181 -12
362 -15 446 -8 674 -32 719 -76 49 -48 98 158 -934 -3972 -668 -2675 -971
-3872 -991 -3914 -34 -73 -95 -139 -152 -164 -105 -47 -332 -69 -772 -76 -181
-3 -344 -10 -362 -15 -66 -21 -86 -59 -138 -271 l-49 -195 25 -48 c13 -27 37
-58 52 -69 33 -24 52 -24 602 -6 826 27 1966 22 2832 -11 277 -11 293 -11 329
7 22 11 48 33 60 51 25 38 104 345 104 405 0 56 -29 102 -79 128 -37 18 -59
20 -253 20 -383 0 -735 27 -822 64 -47 19 -61 69 -46 158 6 35 394 1599 864
3475 l853 3413 59 72 c151 189 376 426 554 582 576 506 1227 813 1900 898 152
19 496 16 643 -6 887 -130 1495 -745 1651 -1671 55 -323 45 -730 -25 -1085
-27 -139 -1120 -4510 -1165 -4664 -232 -779 -792 -1452 -1350 -1622 -81 -25
-103 -28 -249 -28 -222 1 -395 39 -570 126 -168 84 -333 238 -418 388 l-47 85
62 7 c161 18 358 102 491 210 184 149 313 382 347 629 45 326 -137 596 -454
674 -107 26 -277 22 -399 -9 -258 -66 -491 -248 -611 -476 -155 -294 -184
-758 -70 -1107 156 -478 568 -840 1112 -978 196 -49 282 -59 532 -59 253 -1
335 7 568 55 1064 219 2006 1022 2342 1996 44 126 1155 4554 1189 4738 73 391
80 795 21 1145 -179 1050 -880 1838 -1912 2150 -386 116 -837 162 -1273 129z"/>
</g>
</svg>
