<?xml version="1.0" standalone="no"?>
<!DOCTYPE svg PUBLIC "-//W3C//DTD SVG 20010904//EN"
 "http://www.w3.org/TR/2001/REC-SVG-20010904/DTD/svg10.dtd">
<svg version="1.0" xmlns="http://www.w3.org/2000/svg"
 width="213.000000pt" height="219.000000pt" viewBox="0 0 213.000000 219.000000"
 preserveAspectRatio="xMidYMid meet">
<metadata>
Created by potrace 1.16, written by Peter Selinger 2001-2019
</metadata>
<g transform="translate(0.000000,219.000000) scale(0.100000,-0.100000)"
fill="#000000" stroke="none">
<path d="M490 2175 c-234 -65 -418 -249 -472 -471 -19 -75 -20 -94 -11 -151
16 -89 63 -181 120 -234 87 -80 1567 -1286 1600 -1302 39 -21 83 -22 126 -3
41 18 215 178 244 225 27 42 30 99 7 142 -12 25 -1100 1549 -1182 1657 -34 44
-112 100 -175 124 -69 27 -186 32 -257 13z"/>
</g>
</svg>
