<?xml version="1.0" standalone="no"?>
<!DOCTYPE svg PUBLIC "-//W3C//DTD SVG 20010904//EN"
 "http://www.w3.org/TR/2001/REC-SVG-20010904/DTD/svg10.dtd">
<svg version="1.0" xmlns="http://www.w3.org/2000/svg"
 width="374.000000pt" height="232.000000pt" viewBox="0 0 374.000000 232.000000"
 preserveAspectRatio="xMidYMid meet">
<metadata>
Created by potrace 1.16, written by Peter Selinger 2001-2019
</metadata>
<g transform="translate(0.000000,232.000000) scale(0.100000,-0.100000)"
fill="#000000" stroke="none">
<path d="M229 2302 c-51 -26 -199 -152 -215 -184 -19 -36 -18 -102 2 -141 34
-65 1237 -1893 1267 -1925 39 -40 93 -57 145 -43 28 8 295 233 1137 961 605
523 1110 962 1122 976 12 13 28 42 34 64 16 51 -2 98 -74 200 -61 86 -115 118
-180 106 -23 -4 -364 -218 -950 -595 l-914 -587 -604 573 c-369 351 -620 582
-644 593 -50 24 -81 25 -126 2z"/>
</g>
</svg>
