<?xml version="1.0" standalone="no"?>
<!DOCTYPE svg PUBLIC "-//W3C//DTD SVG 20010904//EN"
 "http://www.w3.org/TR/2001/REC-SVG-20010904/DTD/svg10.dtd">
<svg version="1.0" xmlns="http://www.w3.org/2000/svg"
 width="371.000000pt" height="992.000000pt" viewBox="0 0 371.000000 992.000000"
 preserveAspectRatio="xMidYMid meet">
<metadata>
Created by potrace 1.16, written by Peter Selinger 2001-2019
</metadata>
<g transform="translate(0.000000,992.000000) scale(0.100000,-0.100000)"
fill="#000000" stroke="none">
<path d="M2890 9900 c-300 -64 -565 -275 -697 -555 -60 -127 -83 -225 -83
-354 0 -189 53 -325 175 -447 315 -315 901 -210 1230 220 67 88 138 236 165
340 25 98 27 264 5 351 -44 173 -162 319 -316 393 -148 71 -309 89 -479 52z"/>
<path d="M2208 7244 c-15 -8 -35 -28 -44 -46 -15 -29 -2077 -6230 -2130 -6408
-109 -360 101 -703 476 -776 427 -84 927 222 1058 648 33 105 1094 6434 1089
6488 -4 35 -13 51 -41 77 l-36 33 -172 0 c-134 -1 -179 -4 -200 -16z"/>
</g>
</svg>
