<?xml version="1.0" standalone="no"?>
<!DOCTYPE svg PUBLIC "-//W3C//DTD SVG 20010904//EN"
 "http://www.w3.org/TR/2001/REC-SVG-20010904/DTD/svg10.dtd">
<svg version="1.0" xmlns="http://www.w3.org/2000/svg"
 width="542.000000pt" height="602.000000pt" viewBox="0 0 542.000000 602.000000"
 preserveAspectRatio="xMidYMid meet">
<metadata>
Created by potrace 1.16, written by Peter Selinger 2001-2019
</metadata>
<g transform="translate(0.000000,602.000000) scale(0.100000,-0.100000)"
fill="#000000" stroke="none">
<path d="M1235 6010 c-336 -60 -601 -295 -811 -719 -135 -273 -231 -567 -395
-1206 l-33 -130 20 -40 c34 -69 58 -80 198 -83 137 -4 182 7 211 52 9 14 50
153 91 309 202 781 363 1161 572 1359 85 80 156 116 243 124 183 18 301 -72
346 -265 26 -111 23 -389 -5 -569 -33 -203 -38 -224 -578 -2382 -278 -1108
-507 -2040 -511 -2071 -21 -205 131 -373 350 -386 96 -6 177 12 271 59 84 43
194 154 234 238 23 48 151 546 496 1930 l466 1865 100 200 c403 806 835 1245
1343 1362 112 26 390 23 525 -6 135 -28 257 -74 334 -123 l62 -40 -52 -18
c-172 -61 -304 -180 -383 -345 -56 -117 -72 -189 -67 -310 3 -94 6 -108 41
-178 119 -241 434 -308 730 -155 108 56 226 172 280 276 87 165 115 399 68
566 -38 138 -92 228 -201 336 -171 170 -392 272 -720 332 -94 17 -156 21 -345
22 -253 0 -330 -10 -534 -76 -347 -111 -687 -361 -979 -722 l-96 -118 -8 33
c-54 226 -146 402 -285 550 -153 161 -339 263 -575 315 -85 18 -330 27 -403
14z"/>
</g>
</svg>
