<?xml version="1.0" standalone="no"?>
<!DOCTYPE svg PUBLIC "-//W3C//DTD SVG 20010904//EN"
 "http://www.w3.org/TR/2001/REC-SVG-20010904/DTD/svg10.dtd">
<svg version="1.0" xmlns="http://www.w3.org/2000/svg"
 width="875.000000pt" height="937.000000pt" viewBox="0 0 875.000000 937.000000"
 preserveAspectRatio="xMidYMid meet">
<metadata>
Created by potrace 1.16, written by Peter Selinger 2001-2019
</metadata>
<g transform="translate(0.000000,937.000000) scale(0.100000,-0.100000)"
fill="#000000" stroke="none">
<path d="M1054 9356 c-17 -8 -40 -26 -52 -40 -26 -34 -1002 -2959 -1002 -3005
0 -47 36 -105 80 -130 33 -19 54 -21 174 -21 147 0 184 9 223 51 13 15 64 147
131 344 295 864 488 1299 722 1627 264 371 779 607 1429 658 169 13 1110 13
1211 0 148 -20 153 -25 138 -150 -10 -82 -1916 -7718 -1948 -7801 -42 -112
-155 -230 -256 -268 -165 -63 -656 -101 -1307 -101 -376 0 -368 4 -428 -241
l-33 -136 25 -49 c13 -26 37 -57 52 -68 33 -24 52 -24 752 -6 1044 27 2504 22
3591 -11 356 -11 361 -11 401 10 57 28 75 65 114 222 l33 136 -25 49 c-47 93
-21 88 -512 95 -445 7 -687 19 -887 45 -195 25 -250 48 -288 119 -40 77 -79
-87 946 4011 529 2112 973 3874 988 3914 61 169 112 208 309 230 118 13 1035
13 1201 0 439 -35 723 -143 911 -344 107 -114 144 -223 165 -490 22 -280 -20
-733 -132 -1424 -22 -134 -40 -257 -40 -274 0 -45 37 -103 81 -128 36 -20 50
-21 188 -18 133 3 153 5 177 24 64 47 51 -15 310 1530 134 802 244 1479 244
1503 0 56 -30 106 -81 131 -38 20 -77 20 -3806 20 -3131 -1 -3773 -3 -3799
-14z"/>
</g>
</svg>
