<?xml version="1.0" standalone="no"?>
<!DOCTYPE svg PUBLIC "-//W3C//DTD SVG 20010904//EN"
 "http://www.w3.org/TR/2001/REC-SVG-20010904/DTD/svg10.dtd">
<svg version="1.0" xmlns="http://www.w3.org/2000/svg"
 width="490.000000pt" height="890.000000pt" viewBox="0 0 490.000000 890.000000"
 preserveAspectRatio="xMidYMid meet">
<metadata>
Created by potrace 1.16, written by Peter Selinger 2001-2019
</metadata>
<g transform="translate(0.000000,890.000000) scale(0.100000,-0.100000)"
fill="#000000" stroke="none">
<path d="M1780 8885 c-166 -33 -313 -112 -443 -235 -140 -133 -214 -250 -262
-416 -30 -104 -34 -251 -9 -348 75 -293 378 -472 700 -415 197 34 365 128 517
289 148 156 226 330 235 525 8 183 -38 312 -156 436 -137 146 -360 209 -582
164z"/>
<path d="M4168 8890 c-177 -30 -356 -126 -494 -265 -114 -115 -180 -222 -229
-375 -24 -72 -28 -103 -29 -200 -1 -181 47 -302 165 -421 119 -120 275 -176
464 -166 122 7 218 33 334 92 252 126 442 366 495 627 21 103 20 189 -4 282
-68 267 -297 438 -580 435 -41 -1 -96 -5 -122 -9z"/>
<path d="M1535 6006 c-483 -93 -874 -451 -1191 -1086 -125 -251 -255 -602
-324 -876 -23 -90 -23 -91 -4 -129 34 -69 59 -80 198 -83 197 -6 212 7 266
216 18 70 57 204 87 297 242 750 545 1179 918 1302 103 33 289 39 342 11 102
-57 147 -216 123 -438 -15 -146 -52 -321 -100 -480 -23 -74 -295 -823 -605
-1665 -317 -862 -574 -1576 -589 -1635 -36 -145 -46 -224 -46 -371 -1 -521
280 -911 745 -1036 90 -24 117 -27 275 -27 159 0 184 3 272 27 447 123 807
471 1104 1067 125 251 255 602 324 876 23 90 23 91 4 129 -34 69 -59 80 -198
83 -197 6 -212 -7 -266 -216 -18 -70 -57 -203 -87 -297 -242 -750 -545 -1179
-918 -1302 -103 -33 -289 -39 -342 -11 -102 57 -147 216 -123 438 15 146 52
321 100 480 23 74 295 824 605 1665 317 862 574 1576 589 1635 36 145 46 224
46 371 1 521 -283 915 -745 1035 -123 32 -347 42 -460 20z"/>
</g>
</svg>
