<?xml version="1.0" standalone="no"?>
<!DOCTYPE svg PUBLIC "-//W3C//DTD SVG 20010904//EN"
 "http://www.w3.org/TR/2001/REC-SVG-20010904/DTD/svg10.dtd">
<svg version="1.0" xmlns="http://www.w3.org/2000/svg"
 width="352.000000pt" height="952.000000pt" viewBox="0 0 352.000000 952.000000"
 preserveAspectRatio="xMidYMid meet">
<metadata>
Created by potrace 1.16, written by Peter Selinger 2001-2019
</metadata>
<g transform="translate(0.000000,952.000000) scale(0.100000,-0.100000)"
fill="#000000" stroke="none">
<path d="M2750 9504 c-316 -67 -588 -297 -680 -573 -12 -36 -249 -1408 -550
-3181 -578 -3402 -542 -3162 -479 -3214 30 -25 35 -26 170 -26 154 0 188 9
213 58 7 15 476 1426 1040 3137 716 2166 1031 3133 1039 3186 41 286 -153 552
-448 614 -87 18 -219 18 -305 -1z"/>
<path d="M758 1430 c-281 -48 -555 -259 -679 -524 -128 -273 -93 -552 91 -736
121 -122 276 -177 465 -166 215 12 415 105 581 270 308 309 349 741 94 996
-136 136 -340 195 -552 160z"/>
</g>
</svg>
