<?xml version="1.0" standalone="no"?>
<!DOCTYPE svg PUBLIC "-//W3C//DTD SVG 20010904//EN"
 "http://www.w3.org/TR/2001/REC-SVG-20010904/DTD/svg10.dtd">
<svg version="1.0" xmlns="http://www.w3.org/2000/svg"
 width="614.000000pt" height="916.000000pt" viewBox="0 0 614.000000 916.000000"
 preserveAspectRatio="xMidYMid meet">
<metadata>
Created by potrace 1.16, written by Peter Selinger 2001-2019
</metadata>
<g transform="translate(0.000000,916.000000) scale(0.100000,-0.100000)"
fill="#000000" stroke="none">
<path d="M2380 9142 c-20 -10 -42 -32 -52 -52 -26 -53 -1108 -4393 -1108
-4443 0 -54 32 -105 80 -129 46 -23 178 -25 225 -2 18 8 57 45 86 82 89 111
297 319 414 415 374 307 798 487 1244 528 355 32 560 -46 726 -277 222 -307
278 -787 169 -1439 -65 -389 -255 -1142 -384 -1520 -284 -833 -749 -1420
-1364 -1721 -252 -123 -443 -169 -701 -168 -198 1 -322 22 -470 81 -480 190
-753 636 -789 1288 l-6 100 108 1 c121 0 196 17 309 70 248 117 413 376 413
648 0 144 -43 251 -135 334 -282 254 -802 114 -996 -270 -80 -159 -149 -548
-149 -841 0 -406 119 -825 318 -1123 252 -376 610 -601 1092 -686 109 -19 494
-16 633 5 693 106 1358 451 1922 999 687 665 1111 1525 1217 2463 18 164 15
553 -6 705 -40 293 -107 516 -231 765 -249 502 -643 806 -1180 912 -110 22
-483 24 -610 4 -328 -52 -554 -123 -822 -260 -133 -68 -334 -196 -435 -278
-38 -29 -68 -50 -68 -46 1 17 638 2554 643 2559 3 3 61 -13 130 -35 296 -94
506 -125 857 -125 279 0 393 11 641 64 686 145 1360 511 1885 1022 106 104
112 111 129 174 23 87 16 140 -24 176 -62 55 -77 53 -316 -46 -626 -261 -1322
-383 -1921 -336 -467 37 -840 139 -1223 336 -89 46 -175 84 -190 84 -14 0 -42
-8 -61 -18z"/>
</g>
</svg>
