<?xml version="1.0" standalone="no"?>
<!DOCTYPE svg PUBLIC "-//W3C//DTD SVG 20010904//EN"
 "http://www.w3.org/TR/2001/REC-SVG-20010904/DTD/svg10.dtd">
<svg version="1.0" xmlns="http://www.w3.org/2000/svg"
 width="617.000000pt" height="937.000000pt" viewBox="0 0 617.000000 937.000000"
 preserveAspectRatio="xMidYMid meet">
<metadata>
Created by potrace 1.16, written by Peter Selinger 2001-2019
</metadata>
<g transform="translate(0.000000,937.000000) scale(0.100000,-0.100000)"
fill="#000000" stroke="none">
<path d="M2361 9244 l-183 -126 142 -75 c367 -192 706 -432 996 -704 124 -117
229 -227 222 -234 -2 -3 -360 -184 -794 -403 -434 -219 -803 -406 -821 -415
l-31 -17 56 -170 56 -169 891 449 890 448 61 -81 c328 -442 575 -956 723
-1505 65 -239 95 -401 146 -771 4 -30 -2 -24 -52 50 -81 119 -285 319 -395
387 -235 145 -466 202 -768 189 -653 -28 -1329 -315 -1941 -822 -831 -689
-1416 -1738 -1534 -2750 -22 -184 -22 -498 0 -670 50 -406 192 -775 412 -1074
74 -100 248 -277 348 -356 404 -316 951 -467 1510 -415 1012 94 2044 764 2688
1746 283 430 433 783 576 1351 203 805 258 1227 248 1885 -5 357 -17 500 -67
793 -148 879 -543 1695 -1114 2302 -53 57 -96 106 -96 110 0 5 366 192 813
417 446 225 813 410 815 412 3 2 -79 265 -103 332 -4 10 -134 -52 -437 -206
-238 -120 -645 -326 -905 -457 l-472 -238 -53 45 c-321 271 -788 546 -1223
720 -77 31 -410 148 -420 148 -1 0 -84 -57 -184 -126z m1404 -3513 c401 -105
675 -400 800 -861 87 -322 99 -736 34 -1185 -71 -491 -258 -1210 -426 -1635
-359 -909 -954 -1479 -1713 -1641 -137 -30 -431 -32 -550 -6 -239 55 -419 150
-574 303 -127 127 -210 264 -271 447 -69 209 -90 372 -82 656 8 332 53 595
212 1236 145 586 234 882 346 1149 272 647 669 1101 1194 1366 190 96 400 164
587 189 117 16 349 6 443 -18z"/>
</g>
</svg>
