<?xml version="1.0" standalone="no"?>
<!DOCTYPE svg PUBLIC "-//W3C//DTD SVG 20010904//EN"
 "http://www.w3.org/TR/2001/REC-SVG-20010904/DTD/svg10.dtd">
<svg version="1.0" xmlns="http://www.w3.org/2000/svg"
 width="910.000000pt" height="1234.000000pt" viewBox="0 0 910.000000 1234.000000"
 preserveAspectRatio="xMidYMid meet">
<metadata>
Created by potrace 1.16, written by Peter Selinger 2001-2019
</metadata>
<g transform="translate(0.000000,1234.000000) scale(0.100000,-0.100000)"
fill="#000000" stroke="none">
<path d="M4730 12330 c-21 -5 -49 -24 -72 -49 -34 -36 -38 -46 -38 -94 0 -44
5 -61 28 -89 15 -19 339 -366 721 -771 752 -799 722 -771 805 -749 19 6 519
346 1111 757 1028 714 1078 750 1097 793 44 99 -28 206 -137 204 -31 0 -248
-100 -1003 -461 l-962 -461 -702 442 c-386 242 -716 449 -733 458 -41 24 -73
29 -115 20z"/>
<path d="M2271 9012 c-51 -25 -69 -57 -98 -168 -28 -110 -26 -157 6 -202 39
-55 69 -62 278 -62 350 0 650 -27 760 -68 63 -23 78 -61 69 -176 -8 -96 -1840
-7435 -1886 -7554 -58 -151 -128 -225 -246 -262 -139 -43 -449 -70 -802 -70
-211 0 -228 -4 -274 -59 -37 -43 -82 -229 -68 -280 10 -37 46 -79 87 -100 16
-8 933 -11 3443 -11 2919 0 3425 2 3448 14 15 8 37 25 49 38 13 14 302 708
675 1619 700 1713 678 1653 632 1716 -46 61 -77 73 -196 73 -114 0 -158 -11
-191 -47 -9 -11 -62 -128 -116 -259 -325 -788 -516 -1175 -767 -1556 -245
-372 -456 -582 -765 -761 -397 -230 -841 -342 -1494 -377 -244 -13 -2085 -13
-2185 0 -138 18 -148 31 -129 168 8 55 847 3445 940 3795 l10 39 737 -5 c607
-3 756 -7 845 -20 283 -42 432 -117 496 -250 85 -178 63 -482 -75 -1030 -20
-79 -23 -105 -14 -135 10 -38 46 -80 87 -101 32 -16 238 -14 271 3 70 36 46
-47 489 1723 304 1218 413 1667 408 1690 -3 18 -17 46 -32 63 -43 51 -71 60
-190 60 -118 0 -161 -13 -195 -60 -10 -14 -41 -113 -69 -220 -207 -799 -420
-1082 -908 -1206 -203 -52 -273 -56 -1033 -61 l-706 -5 423 1689 c232 928 430
1707 439 1731 31 86 80 164 116 188 19 12 62 31 95 40 55 16 141 18 1060 22
1017 4 1318 -3 1567 -34 520 -64 843 -240 989 -539 51 -104 87 -229 111 -385
9 -57 13 -188 13 -395 -1 -322 -8 -427 -61 -840 -30 -239 -30 -272 -1 -316 37
-55 76 -69 200 -69 119 0 147 9 190 59 14 17 28 43 31 58 20 94 357 2755 353
2785 -6 48 -38 91 -81 112 -31 15 -313 16 -3368 16 -3153 0 -3335 -1 -3367
-18z"/>
</g>
</svg>
