<?xml version="1.0" standalone="no"?>
<!DOCTYPE svg PUBLIC "-//W3C//DTD SVG 20010904//EN"
 "http://www.w3.org/TR/2001/REC-SVG-20010904/DTD/svg10.dtd">
<svg version="1.0" xmlns="http://www.w3.org/2000/svg"
 width="605.000000pt" height="1328.000000pt" viewBox="0 0 605.000000 1328.000000"
 preserveAspectRatio="xMidYMid meet">
<metadata>
Created by potrace 1.16, written by Peter Selinger 2001-2019
</metadata>
<g transform="translate(0.000000,1328.000000) scale(0.100000,-0.100000)"
fill="#000000" stroke="none">
<path d="M5585 13273 c-774 -61 -1452 -313 -1944 -721 -277 -230 -490 -528
-597 -833 -14 -41 -221 -850 -459 -1799 -465 -1854 -452 -1809 -569 -2016
-287 -510 -870 -927 -1464 -1049 -125 -26 -288 -45 -381 -45 -100 0 -139 -42
-164 -172 -9 -49 -8 -64 6 -93 27 -57 61 -71 195 -78 508 -28 895 -253 1084
-632 94 -188 129 -429 97 -662 -6 -43 -199 -833 -430 -1755 -230 -923 -426
-1717 -435 -1765 -21 -118 -21 -334 0 -443 83 -439 388 -781 886 -993 327
-139 737 -217 1141 -217 174 0 202 15 233 122 29 102 18 154 -43 195 -26 18
-48 23 -93 23 -146 0 -348 33 -493 81 -512 169 -806 595 -755 1096 9 83 105
484 435 1802 233 933 431 1744 439 1802 73 493 -120 925 -550 1235 -102 74
-341 198 -461 240 -46 16 -83 32 -83 35 0 3 30 14 68 24 115 31 321 105 462
167 660 288 1139 763 1319 1307 18 52 220 848 451 1771 231 922 431 1710 446
1751 14 41 49 118 76 171 318 624 1042 1074 1790 1114 178 9 201 24 232 143
20 79 20 89 -2 130 -33 62 -66 71 -242 69 -85 -1 -173 -3 -195 -5z"/>
</g>
</svg>
