<?xml version="1.0" standalone="no"?>
<!DOCTYPE svg PUBLIC "-//W3C//DTD SVG 20010904//EN"
 "http://www.w3.org/TR/2001/REC-SVG-20010904/DTD/svg10.dtd">
<svg version="1.0" xmlns="http://www.w3.org/2000/svg"
 width="575.000000pt" height="669.000000pt" viewBox="0 0 575.000000 669.000000"
 preserveAspectRatio="xMidYMid meet">
<metadata>
Created by potrace 1.16, written by Peter Selinger 2001-2019
</metadata>
<g transform="translate(0.000000,669.000000) scale(0.100000,-0.100000)"
fill="#000000" stroke="none">
<path d="M3313 6673 c-21 -12 -71 -73 -144 -178 -425 -607 -833 -1090 -1375
-1625 -512 -505 -1027 -930 -1607 -1324 -165 -113 -187 -136 -187 -201 0 -52
10 -67 132 -193 760 -793 1273 -1807 1484 -2936 13 -71 31 -140 40 -153 30
-47 72 -63 162 -63 99 0 143 16 173 62 19 31 20 43 15 173 -29 752 -250 1696
-567 2429 -57 131 -232 486 -296 601 l-28 50 306 305 c592 590 1051 1133 1495
1770 280 401 684 1062 700 1146 8 44 -20 102 -65 131 -29 19 -47 23 -120 23
-63 0 -95 -5 -118 -17z"/>
<path d="M5433 6673 c-21 -12 -71 -73 -144 -178 -425 -607 -833 -1090 -1375
-1625 -512 -505 -1027 -930 -1607 -1324 -165 -113 -187 -136 -187 -201 0 -52
10 -67 132 -193 760 -793 1273 -1807 1484 -2936 13 -71 31 -140 40 -153 30
-47 72 -63 162 -63 99 0 143 16 173 62 19 31 20 43 15 173 -29 752 -250 1696
-567 2429 -57 131 -232 486 -296 601 l-28 50 306 305 c592 590 1051 1133 1495
1770 280 401 684 1062 700 1146 8 44 -20 102 -65 131 -29 19 -47 23 -120 23
-63 0 -95 -5 -118 -17z"/>
</g>
</svg>
