<?xml version="1.0" standalone="no"?>
<!DOCTYPE svg PUBLIC "-//W3C//DTD SVG 20010904//EN"
 "http://www.w3.org/TR/2001/REC-SVG-20010904/DTD/svg10.dtd">
<svg version="1.0" xmlns="http://www.w3.org/2000/svg"
 width="348.000000pt" height="230.000000pt" viewBox="0 0 348.000000 230.000000"
 preserveAspectRatio="xMidYMid meet">
<metadata>
Created by potrace 1.16, written by Peter Selinger 2001-2019
</metadata>
<g transform="translate(0.000000,230.000000) scale(0.100000,-0.100000)"
fill="#000000" stroke="none">
<path d="M2144 2283 c-17 -10 -502 -454 -1078 -987 -945 -875 -1047 -973
-1057 -1009 -8 -30 -8 -51 1 -79 13 -44 116 -164 163 -190 36 -21 102 -23 133
-5 17 9 1637 1388 1750 1489 l22 20 494 -739 c346 -516 505 -745 529 -761 28
-19 44 -23 85 -20 42 4 64 14 131 61 137 96 171 154 139 230 -8 20 -266 469
-573 998 -382 657 -567 967 -587 981 -40 29 -112 34 -152 11z"/>
</g>
</svg>
