<?xml version="1.0" standalone="no"?>
<!DOCTYPE svg PUBLIC "-//W3C//DTD SVG 20010904//EN"
 "http://www.w3.org/TR/2001/REC-SVG-20010904/DTD/svg10.dtd">
<svg version="1.0" xmlns="http://www.w3.org/2000/svg"
 width="852.000000pt" height="626.000000pt" viewBox="0 0 852.000000 626.000000"
 preserveAspectRatio="xMidYMid meet">
<metadata>
Created by potrace 1.16, written by Peter Selinger 2001-2019
</metadata>
<g transform="translate(0.000000,626.000000) scale(0.100000,-0.100000)"
fill="#000000" stroke="none">
<path d="M2966 6244 c-478 -65 -976 -302 -1431 -682 -128 -107 -372 -355 -495
-503 -497 -597 -830 -1322 -974 -2119 -51 -285 -60 -392 -60 -730 0 -276 3
-333 22 -460 63 -405 191 -756 379 -1040 100 -150 305 -358 442 -449 402 -266
879 -331 1324 -180 518 176 1063 662 1535 1369 57 85 107 156 110 158 4 1 13
-24 20 -55 55 -240 225 -625 359 -812 308 -429 717 -675 1213 -732 129 -15
390 -7 550 16 262 38 596 142 855 264 508 241 973 629 1296 1081 116 163 114
183 -23 332 -158 171 -217 172 -333 7 -473 -678 -1158 -1157 -1815 -1270 -445
-76 -754 7 -1002 270 -210 221 -331 522 -390 961 -20 156 -15 561 10 775 31
252 111 701 148 828 5 16 30 17 332 17 1613 1 2486 208 3008 713 187 180 308
373 388 619 65 197 79 295 73 486 -6 180 -29 284 -96 427 -211 450 -713 725
-1325 725 -554 0 -1180 -218 -1715 -597 -41 -29 -76 -51 -77 -50 -1 1 11 56
27 122 35 143 36 209 7 296 -29 85 -107 166 -193 199 -223 85 -494 -26 -615
-251 -17 -32 -49 -130 -74 -229 -25 -95 -47 -174 -48 -176 -2 -2 -28 34 -58
78 -74 112 -251 293 -360 368 -293 200 -636 276 -1014 224z m449 -424 c373
-96 638 -416 735 -887 43 -209 48 -173 -104 -781 -249 -992 -255 -1022 -304
-1577 -11 -116 -40 -193 -197 -510 -223 -451 -487 -829 -789 -1130 -274 -274
-526 -433 -786 -497 -124 -31 -309 -31 -405 -1 -133 42 -246 133 -335 270
-209 318 -255 824 -140 1517 70 418 319 1426 457 1851 139 429 320 795 534
1082 92 124 326 359 444 446 158 118 367 212 522 237 89 14 276 4 368 -20z
m3805 16 c111 -17 235 -59 317 -107 74 -43 218 -187 261 -261 119 -203 134
-483 41 -763 -119 -356 -406 -617 -853 -777 -346 -124 -782 -190 -1426 -218
-272 -12 -740 -13 -740 -2 0 16 63 210 105 322 248 667 605 1147 1095 1475
292 196 571 300 905 339 75 8 208 5 295 -8z"/>
</g>
</svg>
