<?xml version="1.0" standalone="no"?>
<!DOCTYPE svg PUBLIC "-//W3C//DTD SVG 20010904//EN"
 "http://www.w3.org/TR/2001/REC-SVG-20010904/DTD/svg10.dtd">
<svg version="1.0" xmlns="http://www.w3.org/2000/svg"
 width="649.000000pt" height="1384.000000pt" viewBox="0 0 649.000000 1384.000000"
 preserveAspectRatio="xMidYMid meet">
<metadata>
Created by potrace 1.16, written by Peter Selinger 2001-2019
</metadata>
<g transform="translate(0.000000,1384.000000) scale(0.100000,-0.100000)"
fill="#000000" stroke="none">
<path d="M3464 13822 c-50 -32 -60 -54 -101 -219 l-38 -154 20 -37 c36 -66 66
-78 213 -85 592 -28 1039 -263 1216 -638 60 -126 71 -184 70 -364 l-1 -160
-436 -1740 c-239 -957 -443 -1783 -452 -1835 -23 -129 -23 -366 -1 -484 90
-467 392 -830 891 -1066 66 -32 150 -68 188 -81 64 -23 85 -39 51 -39 -33 0
-377 -121 -510 -180 -545 -240 -984 -599 -1241 -1013 -70 -114 -151 -283 -193
-401 -17 -49 -226 -873 -466 -1830 -311 -1244 -446 -1768 -473 -1836 -254
-634 -1040 -1105 -1911 -1147 -133 -6 -178 -19 -204 -57 -17 -26 -86 -287 -86
-326 0 -39 33 -91 71 -112 32 -18 53 -19 329 -15 309 5 457 19 700 63 385 70
725 183 1053 351 559 286 957 705 1127 1188 17 50 227 873 466 1830 254 1015
450 1779 471 1835 217 581 752 1070 1408 1285 196 65 419 105 583 105 108 0
164 22 187 72 8 18 31 97 50 175 l36 142 -20 45 c-29 66 -59 78 -221 87 -242
14 -433 63 -620 160 -474 247 -688 721 -575 1275 9 43 209 851 445 1794 304
1218 432 1745 441 1820 43 375 -86 737 -361 1010 -256 255 -640 440 -1110 534
-223 45 -358 58 -670 63 -281 4 -296 3 -326 -15z"/>
</g>
</svg>
