<?xml version="1.0" standalone="no"?>
<!DOCTYPE svg PUBLIC "-//W3C//DTD SVG 20010904//EN"
 "http://www.w3.org/TR/2001/REC-SVG-20010904/DTD/svg10.dtd">
<svg version="1.0" xmlns="http://www.w3.org/2000/svg"
 width="230.000000pt" height="435.000000pt" viewBox="0 0 230.000000 435.000000"
 preserveAspectRatio="xMidYMid meet">
<metadata>
Created by potrace 1.16, written by Peter Selinger 2001-2019
</metadata>
<g transform="translate(0.000000,435.000000) scale(0.100000,-0.100000)"
fill="#000000" stroke="none">
<path d="M1367 4335 c-415 -79 -756 -429 -833 -855 -30 -166 -10 -313 60 -456
77 -154 209 -259 396 -311 51 -14 99 -18 220 -17 174 1 248 16 394 79 44 19
82 33 84 31 5 -6 -34 -143 -85 -290 -261 -764 -795 -1502 -1483 -2050 -152
-121 -156 -158 -29 -327 85 -115 116 -139 176 -139 15 0 44 10 63 21 150 92
671 587 871 829 268 325 474 639 650 990 495 989 574 1909 198 2305 -79 82
-163 136 -274 171 -101 33 -287 42 -408 19z"/>
</g>
</svg>
