<?xml version="1.0" standalone="no"?>
<!DOCTYPE svg PUBLIC "-//W3C//DTD SVG 20010904//EN"
 "http://www.w3.org/TR/2001/REC-SVG-20010904/DTD/svg10.dtd">
<svg version="1.0" xmlns="http://www.w3.org/2000/svg"
 width="504.000000pt" height="435.000000pt" viewBox="0 0 504.000000 435.000000"
 preserveAspectRatio="xMidYMid meet">
<metadata>
Created by potrace 1.16, written by Peter Selinger 2001-2019
</metadata>
<g transform="translate(0.000000,435.000000) scale(0.100000,-0.100000)"
fill="#000000" stroke="none">
<path d="M1949 4322 c-187 -119 -628 -542 -874 -837 -811 -972 -1248 -2276
-1005 -2992 114 -334 369 -508 720 -490 449 23 825 338 946 792 34 125 38 292
11 395 -59 224 -219 385 -442 445 -86 23 -255 30 -356 16 -99 -15 -222 -52
-301 -92 l-56 -29 24 90 c85 311 248 685 430 987 293 488 661 906 1128 1283
85 68 116 109 116 153 0 38 -20 75 -102 183 -97 129 -151 151 -239 96z"/>
<path d="M4689 4322 c-187 -119 -628 -542 -874 -837 -811 -972 -1248 -2276
-1005 -2992 114 -334 369 -508 720 -490 449 23 825 338 946 792 34 125 38 292
11 395 -59 224 -219 385 -442 445 -86 23 -255 30 -356 16 -99 -15 -222 -52
-301 -92 l-56 -29 24 90 c85 311 248 685 430 987 293 488 661 906 1128 1283
85 68 116 109 116 153 0 38 -20 75 -102 183 -97 129 -151 151 -239 96z"/>
</g>
</svg>
