<?xml version="1.0" standalone="no"?>
<!DOCTYPE svg PUBLIC "-//W3C//DTD SVG 20010904//EN"
 "http://www.w3.org/TR/2001/REC-SVG-20010904/DTD/svg10.dtd">
<svg version="1.0" xmlns="http://www.w3.org/2000/svg"
 width="831.000000pt" height="907.000000pt" viewBox="0 0 831.000000 907.000000"
 preserveAspectRatio="xMidYMid meet">
<metadata>
Created by potrace 1.16, written by Peter Selinger 2001-2019
</metadata>
<g transform="translate(0.000000,907.000000) scale(0.100000,-0.100000)"
fill="#000000" stroke="none">
<path d="M2580 9048 c-18 -13 -41 -34 -52 -48 -24 -33 -838 -2769 -838 -2819
0 -48 34 -100 80 -123 27 -14 60 -18 143 -18 178 0 186 9 272 282 158 504 321
871 519 1173 402 612 977 963 1761 1075 287 42 324 43 1424 47 l1073 4 -18
-23 c-11 -13 -1556 -1862 -3434 -4107 -1878 -2246 -3423 -4096 -3434 -4112
-10 -16 -32 -82 -48 -147 -35 -138 -30 -179 25 -212 32 -20 75 -20 2923 -20
l2891 0 33 22 c18 13 41 34 51 48 10 14 250 774 534 1689 553 1781 532 1705
486 1769 -34 49 -76 62 -196 62 -118 0 -162 -13 -194 -59 -10 -14 -42 -101
-70 -193 -301 -975 -559 -1540 -888 -1948 -355 -441 -897 -730 -1574 -840
-321 -52 -359 -53 -1556 -57 -618 -2 -1123 -2 -1123 1 0 3 1542 1849 3427
4103 1884 2253 3434 4111 3444 4128 22 37 59 181 59 229 0 50 -18 83 -55 101
-30 13 -326 15 -2833 15 l-2799 0 -33 -22z"/>
</g>
</svg>
