<?xml version="1.0" standalone="no"?>
<!DOCTYPE svg PUBLIC "-//W3C//DTD SVG 20010904//EN"
 "http://www.w3.org/TR/2001/REC-SVG-20010904/DTD/svg10.dtd">
<svg version="1.0" xmlns="http://www.w3.org/2000/svg"
 width="835.000000pt" height="750.000000pt" viewBox="0 0 835.000000 750.000000"
 preserveAspectRatio="xMidYMid meet">
<metadata>
Created by potrace 1.16, written by Peter Selinger 2001-2019
</metadata>
<g transform="translate(0.000000,750.000000) scale(0.100000,-0.100000)"
fill="#000000" stroke="none">
<path d="M1914 7491 c-79 -19 -141 -106 -131 -182 13 -96 -196 30 3030 -1824
1637 -940 2976 -1712 2976 -1715 0 -3 -1728 -777 -3841 -1720 -2113 -943
-3856 -1724 -3872 -1735 -70 -47 -98 -144 -61 -214 34 -66 118 -108 185 -92
37 9 8040 3582 8076 3606 36 24 67 100 61 151 -10 96 209 -35 -3157 1900
-1708 982 -3121 1794 -3140 1804 -46 23 -88 30 -126 21z"/>
</g>
</svg>
