<?xml version="1.0" standalone="no"?>
<!DOCTYPE svg PUBLIC "-//W3C//DTD SVG 20010904//EN"
 "http://www.w3.org/TR/2001/REC-SVG-20010904/DTD/svg10.dtd">
<svg version="1.0" xmlns="http://www.w3.org/2000/svg"
 width="946.000000pt" height="1180.000000pt" viewBox="0 0 946.000000 1180.000000"
 preserveAspectRatio="xMidYMid meet">
<metadata>
Created by potrace 1.16, written by Peter Selinger 2001-2019
</metadata>
<g transform="translate(0.000000,1180.000000) scale(0.100000,-0.100000)"
fill="#000000" stroke="none">
<path d="M6085 11786 c-17 -7 -44 -29 -60 -48 -17 -19 -518 -1012 -1115 -2206
l-1085 -2172 -1522 0 c-1051 0 -1530 -3 -1550 -11 -60 -22 -113 -97 -113 -159
0 -62 53 -137 113 -159 20 -8 474 -11 1463 -11 l1434 0 -560 -1120 -560 -1120
-1198 0 c-1146 0 -1199 -1 -1238 -19 -63 -29 -89 -72 -89 -151 0 -79 26 -122
89 -151 39 -18 90 -19 1149 -19 609 0 1107 -2 1107 -5 0 -3 -475 -955 -1055
-2115 -1144 -2288 -1079 -2149 -1036 -2230 34 -64 111 -100 187 -86 83 16 32
-80 1199 2255 l1090 2181 1252 0 c689 0 1253 -2 1253 -5 0 -3 -475 -955 -1055
-2115 -1144 -2288 -1079 -2149 -1036 -2230 34 -64 111 -100 187 -86 83 16 32
-80 1199 2255 l1090 2181 1522 0 c1051 0 1530 3 1550 11 60 22 113 97 113 159
0 62 -53 137 -113 159 -20 8 -474 11 -1463 11 l-1434 0 560 1120 560 1120
1198 0 c1146 0 1199 1 1238 19 63 29 89 72 89 151 0 79 -26 122 -89 151 -39
18 -90 19 -1148 19 -610 0 -1108 2 -1108 5 0 3 475 955 1055 2115 1144 2288
1079 2149 1036 2230 -34 64 -111 100 -187 86 -83 -16 -32 80 -1199 -2255
l-1090 -2181 -1252 0 c-689 0 -1253 2 -1253 5 0 3 475 955 1056 2117 1050
2099 1056 2113 1052 2164 -5 64 -37 110 -92 135 -48 22 -99 24 -141 5z m-105
-5886 l-560 -1120 -1255 0 -1255 0 560 1120 560 1120 1255 0 1255 0 -560
-1120z"/>
</g>
</svg>
