<?xml version="1.0" standalone="no"?>
<!DOCTYPE svg PUBLIC "-//W3C//DTD SVG 20010904//EN"
 "http://www.w3.org/TR/2001/REC-SVG-20010904/DTD/svg10.dtd">
<svg version="1.0" xmlns="http://www.w3.org/2000/svg"
 width="526.000000pt" height="1039.000000pt" viewBox="0 0 526.000000 1039.000000"
 preserveAspectRatio="xMidYMid meet">
<metadata>
Created by potrace 1.16, written by Peter Selinger 2001-2019
</metadata>
<g transform="translate(0.000000,1039.000000) scale(0.100000,-0.100000)"
fill="#000000" stroke="none">
<path d="M4361 10379 c-29 -5 -95 -23 -145 -40 -309 -103 -549 -367 -637 -699
-34 -127 -32 -295 4 -406 51 -155 148 -267 292 -335 226 -107 539 -86 779 52
38 22 71 38 73 35 8 -7 -67 -178 -138 -315 -257 -497 -700 -952 -1199 -1231
-118 -66 -138 -84 -151 -133 -14 -51 -3 -81 61 -167 52 -70 96 -100 147 -100
36 0 206 94 366 203 502 340 904 794 1166 1317 103 207 168 378 223 590 39
147 41 165 45 335 4 152 2 195 -15 275 -39 191 -115 334 -237 448 -159 148
-392 211 -634 171z"/>
<path d="M1890 9684 c-968 -79 -960 -78 -1001 -136 -12 -16 -36 -90 -55 -164
-29 -116 -33 -142 -24 -175 14 -50 53 -95 93 -107 18 -6 142 -13 277 -16 270
-6 386 -17 503 -48 135 -36 161 -83 138 -260 -7 -52 -398 -1635 -896 -3627
-486 -1945 -890 -3576 -899 -3626 -72 -427 28 -837 274 -1124 163 -189 389
-318 662 -378 128 -27 385 -25 498 5 254 68 472 238 650 508 199 301 341 675
520 1364 68 262 69 279 10 335 l-31 30 -172 3 c-158 2 -175 1 -205 -18 -18
-11 -39 -35 -47 -52 -8 -18 -46 -154 -84 -303 -198 -771 -365 -1167 -577
-1365 -98 -91 -155 -115 -274 -115 -86 1 -100 4 -148 29 -57 32 -93 73 -123
141 -67 152 -65 476 5 821 14 65 477 1929 1030 4141 553 2213 1006 4042 1006
4064 0 88 -73 150 -172 148 -29 -1 -460 -35 -958 -75z"/>
</g>
</svg>
