<?xml version="1.0" standalone="no"?>
<!DOCTYPE svg PUBLIC "-//W3C//DTD SVG 20010904//EN"
 "http://www.w3.org/TR/2001/REC-SVG-20010904/DTD/svg10.dtd">
<svg version="1.0" xmlns="http://www.w3.org/2000/svg"
 width="638.000000pt" height="1248.000000pt" viewBox="0 0 638.000000 1248.000000"
 preserveAspectRatio="xMidYMid meet">
<metadata>
Created by potrace 1.16, written by Peter Selinger 2001-2019
</metadata>
<g transform="translate(0.000000,1248.000000) scale(0.100000,-0.100000)"
fill="#000000" stroke="none">
<path d="M4960 12469 c-35 -13 -2169 -1867 -2197 -1909 -24 -35 -30 -91 -13
-134 5 -14 41 -65 80 -113 102 -125 163 -155 240 -115 26 13 1672 1316 1781
1409 14 12 75 -65 535 -674 285 -379 529 -698 542 -710 33 -30 86 -46 128 -38
43 8 269 176 295 220 23 37 25 105 3 146 -14 28 -1177 1815 -1213 1866 -38 52
-119 75 -181 52z"/>
<path d="M2367 9430 c-53 -29 -68 -59 -106 -218 l-34 -139 24 -49 c45 -90 37
-88 392 -95 422 -9 628 -26 755 -64 74 -22 87 -47 86 -155 -1 -78 -86 -423
-971 -3960 -799 -3195 -975 -3887 -1004 -3945 -46 -94 -126 -176 -199 -203
-132 -48 -367 -71 -808 -79 -367 -7 -377 -8 -418 -70 -12 -18 -36 -91 -54
-162 -36 -147 -35 -182 7 -232 49 -58 64 -60 350 -49 967 38 2110 38 3125 -1
292 -11 308 -11 345 7 55 28 77 68 113 213 36 147 35 182 -7 232 -46 54 -71
59 -295 59 -369 0 -707 26 -836 65 -72 22 -85 45 -84 148 0 74 89 438 966
3943 531 2124 975 3887 987 3918 29 78 95 174 147 213 103 78 336 110 872 119
179 3 339 10 357 15 60 19 87 64 121 202 18 70 32 141 32 158 0 45 -36 103
-81 128 -37 21 -41 22 -286 12 -535 -22 -1352 -33 -1933 -27 -531 6 -733 10
-1355 31 -159 5 -172 4 -208 -15z"/>
</g>
</svg>
