<?xml version="1.0" standalone="no"?>
<!DOCTYPE svg PUBLIC "-//W3C//DTD SVG 20010904//EN"
 "http://www.w3.org/TR/2001/REC-SVG-20010904/DTD/svg10.dtd">
<svg version="1.0" xmlns="http://www.w3.org/2000/svg"
 width="870.000000pt" height="1229.000000pt" viewBox="0 0 870.000000 1229.000000"
 preserveAspectRatio="xMidYMid meet">
<metadata>
Created by potrace 1.16, written by Peter Selinger 2001-2019
</metadata>
<g transform="translate(0.000000,1229.000000) scale(0.100000,-0.100000)"
fill="#000000" stroke="none">
<path d="M5349 12277 c-14 -8 -492 -426 -1061 -930 -784 -693 -1038 -923
-1047 -948 -25 -71 -9 -113 78 -216 71 -84 115 -104 183 -84 26 8 309 231 902
711 476 385 869 700 875 700 5 0 238 -311 518 -691 464 -632 512 -694 551
-711 65 -29 106 -18 204 57 115 87 130 105 136 164 3 40 0 58 -20 93 -13 24
-277 444 -586 935 -349 552 -573 898 -590 909 -35 23 -110 29 -143 11z"/>
<path d="M411 9353 c-51 -27 -70 -59 -98 -169 -28 -110 -26 -157 6 -202 39
-55 69 -62 278 -62 350 0 650 -27 760 -68 63 -23 78 -61 69 -176 -5 -55 -209
-889 -676 -2757 -368 -1472 -681 -2738 -694 -2811 -42 -232 -51 -339 -51 -618
1 -196 5 -298 18 -390 78 -554 301 -1034 649 -1395 421 -438 985 -679 1643
-702 758 -26 1565 314 2259 954 633 582 1103 1343 1344 2173 17 58 308 1213
646 2567 634 2535 637 2545 719 2685 79 136 205 264 333 339 212 125 437 183
769 196 221 8 241 21 281 174 30 119 31 166 1 210 -43 65 -69 70 -278 59 -101
-5 -404 -15 -674 -21 -505 -12 -1103 -4 -1621 22 -220 11 -234 11 -270 -7 -53
-27 -72 -57 -99 -165 -29 -111 -30 -140 -9 -185 32 -68 59 -78 239 -86 259
-12 397 -39 532 -104 200 -96 286 -274 254 -525 -16 -128 -1246 -5042 -1310
-5235 -347 -1050 -1034 -1894 -1890 -2324 -342 -171 -672 -261 -1016 -277
-664 -29 -1186 320 -1390 930 -72 215 -99 409 -99 697 1 295 37 584 119 960
65 296 1366 5485 1392 5550 107 268 233 312 943 327 322 6 333 8 378 56 27 28
71 187 72 253 0 52 -33 103 -82 127 -33 16 -53 17 -269 7 -861 -37 -1914 -35
-2989 6 -138 5 -159 3 -189 -13z"/>
</g>
</svg>
