<?xml version="1.0" standalone="no"?>
<!DOCTYPE svg PUBLIC "-//W3C//DTD SVG 20010904//EN"
 "http://www.w3.org/TR/2001/REC-SVG-20010904/DTD/svg10.dtd">
<svg version="1.0" xmlns="http://www.w3.org/2000/svg"
 width="880.000000pt" height="1291.000000pt" viewBox="0 0 880.000000 1291.000000"
 preserveAspectRatio="xMidYMid meet">
<metadata>
Created by potrace 1.16, written by Peter Selinger 2001-2019
</metadata>
<g transform="translate(0.000000,1291.000000) scale(0.100000,-0.100000)"
fill="#000000" stroke="none">
<path d="M6617 12896 c-54 -20 -111 -60 -140 -98 -14 -18 -1081 -1907 -2372
-4198 -1291 -2291 -2353 -4169 -2360 -4175 -6 -5 -36 -48 -65 -95 -184 -296
-431 -527 -692 -650 -209 -98 -499 -160 -745 -160 -131 0 -167 -36 -212 -214
-17 -69 -31 -139 -31 -156 0 -48 33 -103 78 -128 39 -22 44 -22 189 -12 81 5
343 15 580 22 451 13 1158 3 1674 -23 215 -11 229 -11 265 7 56 28 78 68 114
213 37 149 35 183 -11 236 -37 42 -68 52 -194 59 -135 9 -224 30 -325 78 -109
53 -187 128 -220 213 -41 109 -27 262 36 386 13 26 30 65 37 86 8 21 233 425
500 898 l486 860 1540 3 1539 2 6 -72 c4 -40 36 -534 72 -1097 l65 -1025 -26
-52 c-49 -101 -147 -166 -329 -218 -132 -39 -273 -56 -501 -62 -115 -3 -224
-10 -242 -15 -60 -19 -87 -64 -121 -202 -18 -70 -32 -140 -32 -157 0 -48 33
-103 78 -128 l40 -22 254 10 c229 9 1061 30 1217 30 l63 0 -93 -67 c-294 -209
-619 -507 -789 -723 -220 -277 -365 -568 -421 -843 -124 -611 193 -1169 768
-1351 338 -106 720 -58 1067 134 314 174 640 521 823 878 49 94 52 118 22 178
-26 54 -73 84 -143 91 -44 5 -61 1 -93 -17 -22 -12 -48 -35 -57 -51 -10 -16
-50 -73 -90 -127 -332 -443 -737 -620 -1119 -487 -106 37 -174 82 -277 185
-109 109 -161 196 -206 345 -26 83 -28 103 -28 260 0 153 3 180 27 267 125
456 495 879 1087 1242 l135 83 320 -8 c176 -4 436 -13 577 -19 287 -13 308
-11 356 44 22 26 36 62 60 159 18 70 32 140 32 157 0 48 -33 103 -76 126 -36
20 -59 22 -314 27 -359 8 -573 36 -640 85 -37 27 -69 79 -85 136 -9 35 -107
1508 -300 4541 -157 2470 -288 4499 -292 4510 -11 39 -46 78 -87 96 -34 15
-66 19 -191 18 -100 0 -163 -4 -188 -13z m-502 -4101 c74 -1166 136 -2144 139
-2172 l5 -53 -1376 0 c-833 0 -1373 4 -1371 9 17 47 2464 4367 2466 4354 1
-10 63 -972 137 -2138z"/>
</g>
</svg>
