<?xml version="1.0" standalone="no"?>
<!DOCTYPE svg PUBLIC "-//W3C//DTD SVG 20010904//EN"
 "http://www.w3.org/TR/2001/REC-SVG-20010904/DTD/svg10.dtd">
<svg version="1.0" xmlns="http://www.w3.org/2000/svg"
 width="917.000000pt" height="1264.000000pt" viewBox="0 0 917.000000 1264.000000"
 preserveAspectRatio="xMidYMid meet">
<metadata>
Created by potrace 1.16, written by Peter Selinger 2001-2019
</metadata>
<g transform="translate(0.000000,1264.000000) scale(0.100000,-0.100000)"
fill="#000000" stroke="none">
<path d="M4544 12626 c-64 -28 -92 -91 -119 -271 -70 -467 91 -921 433 -1218
445 -388 1132 -514 1831 -337 210 53 375 116 583 222 569 288 999 761 1177
1293 47 139 52 200 20 252 -37 59 -79 73 -229 73 -190 0 -221 -18 -261 -154
-136 -459 -603 -836 -1229 -992 -820 -203 -1627 39 -1784 536 -31 96 -41 214
-26 305 24 154 24 190 0 230 -38 62 -79 75 -232 75 -89 -1 -143 -5 -164 -14z"/>
<path d="M5585 10064 c-22 -2 -92 -9 -155 -15 -395 -37 -877 -160 -1305 -331
-333 -133 -788 -377 -1106 -593 -720 -488 -1358 -1133 -1858 -1875 -639 -950
-1018 -1960 -1137 -3035 -22 -196 -30 -662 -15 -866 63 -864 355 -1633 839
-2209 106 -127 344 -358 462 -449 612 -475 1358 -711 2175 -688 231 7 328 16
545 53 384 64 745 182 1085 354 300 151 535 314 745 517 66 64 122 114 124
112 1 -2 26 -42 54 -89 99 -167 267 -370 438 -529 122 -114 154 -128 229 -97
47 20 63 50 95 178 428 1708 686 2721 704 2762 31 69 72 115 122 138 69 30
225 48 469 54 127 3 244 10 262 15 66 21 86 60 137 265 51 208 51 233 0 293
-39 47 -69 52 -264 41 -96 -5 -408 -15 -692 -22 -539 -13 -1628 -2 -2339 23
-313 11 -315 11 -357 -10 -23 -12 -49 -32 -58 -46 -20 -30 -103 -356 -104
-404 0 -47 35 -105 80 -130 36 -20 52 -21 291 -21 435 0 844 -24 1006 -60 84
-18 110 -60 103 -165 -4 -64 -322 -1313 -357 -1400 -237 -599 -895 -1070
-1663 -1191 -155 -25 -512 -25 -690 0 -893 123 -1547 618 -1855 1406 -172 441
-226 1057 -149 1725 85 743 345 1779 627 2490 119 300 219 517 348 752 429
782 984 1387 1672 1818 251 158 617 332 891 425 449 151 932 215 1351 180 763
-66 1318 -376 1560 -874 92 -189 128 -371 123 -617 -3 -162 3 -181 65 -219 29
-18 51 -20 237 -20 228 0 259 7 291 65 9 17 137 512 284 1102 l267 1072 -18
38 c-32 63 -72 83 -174 83 -104 0 -47 32 -609 -340 -393 -260 -415 -273 -436
-259 -13 8 -70 45 -127 84 -132 89 -387 218 -551 278 -294 108 -602 178 -962
217 -100 11 -624 22 -700 14z"/>
</g>
</svg>
