<?xml version="1.0" standalone="no"?>
<!DOCTYPE svg PUBLIC "-//W3C//DTD SVG 20010904//EN"
 "http://www.w3.org/TR/2001/REC-SVG-20010904/DTD/svg10.dtd">
<svg version="1.0" xmlns="http://www.w3.org/2000/svg"
 width="883.000000pt" height="1264.000000pt" viewBox="0 0 883.000000 1264.000000"
 preserveAspectRatio="xMidYMid meet">
<metadata>
Created by potrace 1.16, written by Peter Selinger 2001-2019
</metadata>
<g transform="translate(0.000000,1264.000000) scale(0.100000,-0.100000)"
fill="#000000" stroke="none">
<path d="M4710 12630 c-21 -5 -49 -24 -72 -49 -34 -36 -38 -46 -38 -94 0 -44
5 -61 28 -89 15 -19 339 -366 721 -771 752 -799 722 -771 805 -749 19 6 519
346 1111 757 1028 714 1078 750 1097 793 44 99 -28 206 -137 204 -31 0 -248
-100 -1003 -461 l-962 -461 -702 442 c-386 242 -716 449 -733 458 -41 24 -73
29 -115 20z"/>
<path d="M2281 9352 c-51 -25 -69 -57 -98 -168 -28 -110 -26 -157 6 -202 39
-55 69 -62 278 -62 350 0 650 -27 760 -68 63 -23 78 -61 69 -176 -8 -96 -1850
-7475 -1896 -7594 -58 -151 -128 -225 -246 -262 -139 -43 -449 -70 -802 -70
-211 0 -228 -4 -274 -59 -17 -19 -34 -65 -52 -136 -30 -122 -26 -162 21 -207
53 -49 56 -49 305 -38 128 5 499 15 823 21 608 12 1393 3 2007 -22 363 -15
363 -15 413 181 30 117 28 153 -12 200 -47 56 -64 60 -275 60 -343 0 -620 24
-738 63 -85 29 -93 43 -86 167 4 83 60 318 453 1890 l449 1795 813 3 c667 2
830 0 910 -12 467 -70 788 -378 887 -851 26 -124 26 -430 0 -560 -9 -49 -91
-385 -181 -745 -90 -360 -172 -698 -181 -750 -23 -120 -27 -520 -6 -615 43
-195 104 -346 198 -487 275 -413 797 -641 1469 -642 197 0 216 2 310 27 343
92 657 352 905 747 142 226 303 629 304 762 1 61 -2 69 -29 99 -44 47 -82 59
-182 59 -174 0 -197 -20 -253 -212 -138 -475 -369 -851 -633 -1030 -217 -148
-503 -157 -643 -22 -122 119 -172 357 -161 764 7 239 11 285 102 1234 86 890
86 1015 -1 1304 -130 430 -435 777 -883 1006 l-115 59 125 34 c1165 317 2118
1048 2454 1883 57 141 99 299 121 456 21 156 14 404 -16 549 -73 348 -248 658
-514 912 -440 421 -1065 668 -1828 722 -95 7 -831 11 -2095 11 -1835 0 -1950
-1 -1982 -18z m3948 -455 c455 -64 764 -193 984 -413 151 -149 227 -299 268
-524 20 -107 17 -395 -5 -545 -51 -353 -168 -777 -292 -1064 -215 -494 -515
-809 -997 -1046 -285 -141 -566 -222 -937 -271 -105 -14 -254 -18 -951 -21
l-827 -4 453 1808 c249 994 460 1827 469 1851 31 86 80 164 116 187 91 60 145
63 925 60 558 -2 700 -5 794 -18z"/>
</g>
</svg>
