<?xml version="1.0" standalone="no"?>
<!DOCTYPE svg PUBLIC "-//W3C//DTD SVG 20010904//EN"
 "http://www.w3.org/TR/2001/REC-SVG-20010904/DTD/svg10.dtd">
<svg version="1.0" xmlns="http://www.w3.org/2000/svg"
 width="386.000000pt" height="489.000000pt" viewBox="0 0 386.000000 489.000000"
 preserveAspectRatio="xMidYMid meet">
<metadata>
Created by potrace 1.16, written by Peter Selinger 2001-2019
</metadata>
<g transform="translate(0.000000,489.000000) scale(0.100000,-0.100000)"
fill="#000000" stroke="none">
<path d="M1185 4875 c-150 -33 -252 -92 -362 -208 -78 -82 -130 -176 -157
-282 -8 -33 -162 -1000 -342 -2149 -313 -1997 -327 -2090 -313 -2129 8 -23 30
-53 52 -71 34 -27 45 -30 107 -30 74 0 104 14 142 65 18 25 1426 4118 1459
4243 47 173 3 347 -114 452 -118 106 -298 148 -472 109z"/>
<path d="M3235 4874 c-40 -8 -110 -33 -165 -60 -164 -82 -293 -237 -343 -414
-30 -105 -669 -4211 -664 -4264 11 -117 163 -173 273 -101 13 8 30 29 39 45
17 32 1415 4104 1446 4209 26 90 33 167 20 235 -49 265 -300 410 -606 350z"/>
</g>
</svg>
