<?xml version="1.0" standalone="no"?>
<!DOCTYPE svg PUBLIC "-//W3C//DTD SVG 20010904//EN"
 "http://www.w3.org/TR/2001/REC-SVG-20010904/DTD/svg10.dtd">
<svg version="1.0" xmlns="http://www.w3.org/2000/svg"
 width="1231.000000pt" height="945.000000pt" viewBox="0 0 1231.000000 945.000000"
 preserveAspectRatio="xMidYMid meet">
<metadata>
Created by potrace 1.16, written by Peter Selinger 2001-2019
</metadata>
<g transform="translate(0.000000,945.000000) scale(0.100000,-0.100000)"
fill="#000000" stroke="none">
<path d="M5265 9436 c-57 -25 -80 -65 -114 -200 -17 -69 -31 -140 -31 -157 0
-45 36 -103 80 -128 36 -20 51 -21 381 -22 189 -1 381 -4 426 -7 l82 -7 -2139
-3710 c-1177 -2041 -2150 -3725 -2163 -3742 -12 -18 -65 -97 -118 -175 -277
-410 -606 -639 -1044 -727 -111 -22 -285 -41 -385 -41 -77 0 -125 -21 -156
-67 -31 -46 -88 -283 -80 -328 9 -45 57 -101 99 -114 22 -8 75 -8 172 -1 77 5
338 15 581 22 459 12 1145 3 1668 -24 228 -11 230 -11 271 11 23 12 49 36 60
53 23 40 74 240 75 293 0 93 -70 155 -175 155 -93 0 -245 26 -321 55 -128 48
-225 129 -267 223 -45 101 -31 264 32 391 16 31 32 67 36 81 4 14 394 697 867
1518 l861 1492 978 0 c649 0 979 -3 979 -10 0 -28 -853 -3418 -874 -3474 -83
-219 -187 -260 -701 -272 -132 -3 -254 -10 -272 -15 -60 -19 -87 -64 -121
-202 -18 -70 -32 -141 -32 -158 0 -45 36 -103 80 -128 l38 -21 3021 0 c3261 0
3058 -3 3108 51 23 26 1392 3392 1400 3443 5 39 -31 112 -70 140 -25 19 -46
21 -177 24 -132 3 -152 1 -187 -17 -22 -11 -47 -31 -56 -44 -8 -13 -54 -120
-102 -238 -364 -895 -616 -1410 -885 -1809 -188 -279 -327 -423 -549 -572
-357 -239 -748 -370 -1301 -434 -122 -14 -279 -18 -974 -21 -817 -4 -974 0
-1055 28 l-33 12 4 81 c3 64 97 453 449 1859 l444 1779 685 -5 c729 -4 783 -8
960 -57 155 -44 271 -132 310 -236 62 -167 40 -460 -67 -901 -58 -240 -63
-290 -33 -338 38 -62 79 -75 237 -75 155 0 191 11 229 67 26 39 884 3460 884
3524 0 54 -31 104 -81 129 -32 17 -59 20 -176 20 -197 0 -232 -22 -268 -172
-41 -169 -126 -462 -170 -583 -198 -545 -441 -754 -971 -832 -88 -13 -232 -17
-756 -20 -464 -3 -648 -2 -648 6 0 28 952 3817 976 3882 44 123 81 169 160
199 102 38 227 42 1084 37 863 -5 937 -8 1194 -57 386 -74 671 -251 783 -485
80 -169 108 -365 108 -745 -1 -288 -15 -492 -61 -865 -53 -430 -51 -401 -26
-449 39 -73 75 -86 236 -86 93 0 147 4 169 14 40 16 83 66 91 103 14 66 376
2898 376 2940 0 58 -30 107 -81 133 -38 20 -76 20 -3481 20 -2840 -1 -3448 -3
-3473 -14z m1544 -577 c71 -14 103 -25 130 -47 46 -37 73 -108 67 -177 -3 -27
-218 -902 -478 -1942 l-473 -1893 -892 0 c-491 0 -893 3 -893 6 0 4 529 924
1176 2045 l1175 2038 47 -5 c26 -3 89 -14 141 -25z"/>
</g>
</svg>
