<?xml version="1.0" standalone="no"?>
<!DOCTYPE svg PUBLIC "-//W3C//DTD SVG 20010904//EN"
 "http://www.w3.org/TR/2001/REC-SVG-20010904/DTD/svg10.dtd">
<svg version="1.0" xmlns="http://www.w3.org/2000/svg"
 width="687.000000pt" height="904.000000pt" viewBox="0 0 687.000000 904.000000"
 preserveAspectRatio="xMidYMid meet">
<metadata>
Created by potrace 1.16, written by Peter Selinger 2001-2019
</metadata>
<g transform="translate(0.000000,904.000000) scale(0.100000,-0.100000)"
fill="#000000" stroke="none">
<path d="M6483 9026 c-40 -18 -14 16 -648 -844 -297 -402 -543 -731 -547 -732
-4 0 -31 15 -60 34 -221 141 -530 246 -809 276 -668 70 -1442 -210 -2116 -764
-146 -121 -447 -423 -574 -577 -558 -676 -912 -1470 -1041 -2330 -21 -138 -23
-189 -23 -494 1 -374 11 -470 74 -722 85 -336 246 -677 422 -893 l45 -55 -598
-809 c-405 -548 -600 -819 -604 -841 -16 -86 20 -133 159 -212 88 -50 109 -58
154 -58 36 0 60 6 80 21 15 11 284 368 598 792 314 424 573 771 577 772 4 0
31 -15 60 -34 221 -141 530 -246 809 -276 668 -70 1442 210 2116 764 146 121
447 423 574 577 558 676 912 1470 1041 2330 21 138 23 189 23 494 -1 374 -11
470 -74 722 -85 336 -246 677 -422 893 l-45 55 598 809 c405 548 600 819 604
841 16 85 -20 134 -157 211 -109 62 -162 74 -216 50z m-2106 -1790 c95 -21
213 -67 290 -113 74 -45 195 -145 218 -179 15 -24 2 -43 -1577 -2179 -876
-1185 -1596 -2155 -1599 -2155 -20 -1 -58 266 -66 455 -14 361 48 779 213
1439 251 1003 508 1561 944 2054 326 369 787 638 1185 691 95 13 304 6 392
-13z m792 -861 c80 -357 63 -788 -54 -1363 -50 -243 -174 -733 -247 -976 -266
-887 -642 -1489 -1179 -1891 -510 -381 -1095 -470 -1496 -228 -74 45 -195 145
-218 179 -15 24 -2 43 1577 2179 876 1185 1596 2155 1599 2155 3 0 11 -25 18
-55z"/>
</g>
</svg>
