<?xml version="1.0" standalone="no"?>
<!DOCTYPE svg PUBLIC "-//W3C//DTD SVG 20010904//EN"
 "http://www.w3.org/TR/2001/REC-SVG-20010904/DTD/svg10.dtd">
<svg version="1.0" xmlns="http://www.w3.org/2000/svg"
 width="1064.000000pt" height="907.000000pt" viewBox="0 0 1064.000000 907.000000"
 preserveAspectRatio="xMidYMid meet">
<metadata>
Created by potrace 1.16, written by Peter Selinger 2001-2019
</metadata>
<g transform="translate(0.000000,907.000000) scale(0.100000,-0.100000)"
fill="#000000" stroke="none">
<path d="M2280 9053 c-49 -26 -74 -69 -100 -173 -25 -102 -23 -154 9 -198 39
-55 69 -62 278 -62 350 0 650 -27 760 -68 63 -23 78 -61 69 -176 -8 -96 -1850
-7475 -1896 -7594 -58 -151 -128 -225 -246 -262 -140 -43 -449 -70 -805 -70
-187 0 -198 -1 -229 -22 -51 -35 -67 -65 -95 -170 -29 -111 -27 -152 12 -199
50 -59 58 -60 315 -49 128 5 505 15 838 21 622 12 1419 3 2036 -22 251 -11
274 -10 308 6 52 25 73 60 102 173 30 114 28 154 -13 202 -47 56 -64 60 -275
60 -343 0 -620 24 -738 63 -85 29 -93 43 -86 167 4 82 46 262 318 1350 l314
1255 904 752 905 752 12 -32 c7 -18 330 -878 718 -1912 647 -1723 707 -1886
712 -1955 16 -212 -121 -362 -379 -416 -38 -8 -147 -18 -242 -22 -231 -10
-239 -15 -283 -189 -28 -109 -26 -156 6 -201 42 -60 63 -64 328 -52 442 18
1336 32 1673 25 302 -5 468 -12 860 -31 120 -6 126 -5 159 17 53 37 70 68 97
174 29 112 26 149 -13 195 -43 52 -63 57 -268 63 -357 12 -496 64 -617 231
-29 40 -70 106 -91 147 -21 41 -428 1116 -906 2390 l-867 2315 1267 1055 c698
580 1285 1063 1307 1074 21 11 108 75 193 143 472 373 913 621 1314 736 142
40 277 64 437 75 124 8 153 19 185 67 22 35 63 189 63 240 0 51 -32 100 -81
126 -32 16 -47 17 -155 8 -310 -25 -750 -32 -1305 -21 -306 6 -678 16 -827 22
-261 11 -272 11 -308 -8 -54 -28 -70 -55 -100 -169 -30 -116 -28 -156 13 -204
37 -45 68 -57 163 -63 156 -11 262 -62 308 -147 35 -65 28 -169 -17 -262 -37
-79 -132 -202 -192 -249 -23 -19 -51 -48 -63 -65 -18 -26 -4736 -3957 -4743
-3951 -6 7 1078 4311 1097 4357 56 131 121 204 213 238 136 51 311 70 727 79
322 6 333 8 378 56 28 30 72 182 72 248 0 57 -31 107 -82 132 -33 16 -53 17
-269 7 -861 -37 -1914 -35 -2989 6 -138 5 -159 3 -190 -13z"/>
</g>
</svg>
