<?xml version="1.0" standalone="no"?>
<!DOCTYPE svg PUBLIC "-//W3C//DTD SVG 20010904//EN"
 "http://www.w3.org/TR/2001/REC-SVG-20010904/DTD/svg10.dtd">
<svg version="1.0" xmlns="http://www.w3.org/2000/svg"
 width="628.000000pt" height="927.000000pt" viewBox="0 0 628.000000 927.000000"
 preserveAspectRatio="xMidYMid meet">
<metadata>
Created by potrace 1.16, written by Peter Selinger 2001-2019
</metadata>
<g transform="translate(0.000000,927.000000) scale(0.100000,-0.100000)"
fill="#000000" stroke="none">
<path d="M2940 9251 c-318 -70 -596 -291 -741 -586 -69 -142 -91 -233 -93
-380 -1 -204 52 -343 183 -476 138 -140 325 -208 541 -196 434 24 849 374 951
803 30 126 24 306 -14 412 -73 206 -218 345 -432 412 -100 32 -280 37 -395 11z"/>
<path d="M5410 9251 c-314 -70 -591 -286 -735 -576 -76 -152 -98 -238 -99
-395 -1 -105 3 -137 22 -200 37 -119 79 -187 167 -275 125 -126 255 -181 450
-192 435 -24 871 296 1021 747 26 78 28 98 28 240 1 144 -1 160 -26 228 -74
203 -218 342 -423 408 -110 36 -283 42 -405 15z"/>
<path d="M3410 6254 c-664 -77 -1243 -324 -1800 -769 -870 -695 -1454 -1728
-1592 -2815 -20 -157 -17 -614 4 -757 44 -290 122 -547 234 -772 123 -247 233
-399 415 -577 292 -283 645 -459 1074 -535 174 -31 535 -34 720 -5 1432 219
2752 1509 3144 3074 83 328 106 519 106 867 -1 290 -10 384 -60 612 -59 266
-183 565 -323 778 -212 325 -515 579 -871 733 -264 114 -498 162 -811 167
-113 2 -221 1 -240 -1z m389 -534 c331 -81 588 -338 695 -693 99 -328 91 -737
-24 -1302 -49 -236 -200 -846 -274 -1100 -188 -653 -408 -1085 -739 -1456
-243 -272 -565 -490 -867 -587 -167 -53 -250 -66 -420 -66 -182 0 -280 20
-417 84 -487 228 -678 771 -562 1597 55 398 289 1347 435 1763 224 644 531
1099 964 1430 254 194 548 319 830 354 81 10 297 -4 379 -24z"/>
</g>
</svg>
