<?xml version="1.0" standalone="no"?>
<!DOCTYPE svg PUBLIC "-//W3C//DTD SVG 20010904//EN"
 "http://www.w3.org/TR/2001/REC-SVG-20010904/DTD/svg10.dtd">
<svg version="1.0" xmlns="http://www.w3.org/2000/svg"
 width="775.000000pt" height="1007.000000pt" viewBox="0 0 775.000000 1007.000000"
 preserveAspectRatio="xMidYMid meet">
<metadata>
Created by potrace 1.16, written by Peter Selinger 2001-2019
</metadata>
<g transform="translate(0.000000,1007.000000) scale(0.100000,-0.100000)"
fill="#000000" stroke="none">
<path d="M4720 10063 c-566 -55 -1102 -280 -1620 -679 -137 -106 -484 -448
-594 -587 -403 -507 -654 -1066 -751 -1672 -22 -135 -31 -501 -16 -647 84
-808 546 -1412 1261 -1646 52 -17 440 -130 862 -251 422 -121 798 -232 835
-247 169 -66 361 -220 460 -369 98 -146 169 -329 205 -525 29 -158 31 -499 4
-675 -83 -541 -314 -1038 -677 -1460 -342 -397 -777 -674 -1188 -756 -389 -77
-1023 13 -1396 198 -506 252 -796 666 -892 1275 -22 140 -25 579 -5 728 23
163 52 331 78 438 29 124 30 147 6 191 -33 61 -66 71 -242 71 -136 0 -159 -2
-187 -20 -18 -10 -39 -29 -47 -42 -18 -28 -816 -3215 -816 -3260 0 -45 34 -96
75 -114 45 -18 148 -18 188 1 21 10 168 175 406 455 206 242 377 440 381 440
4 0 32 -33 63 -72 74 -97 262 -281 364 -356 329 -242 749 -397 1243 -458 198
-25 627 -25 775 -1 1023 170 1984 937 2523 2013 199 397 329 827 383 1269 19
153 17 554 -5 700 -81 561 -305 997 -666 1299 -141 118 -350 239 -520 300 -41
15 -442 133 -891 262 -449 128 -848 247 -888 264 -229 98 -410 267 -526 495
-88 174 -132 355 -141 590 -15 351 66 705 240 1055 330 663 942 1164 1577
1292 147 29 439 32 619 4 756 -114 1173 -583 1280 -1438 42 -342 30 -734 -37
-1210 -26 -186 -26 -186 -6 -220 10 -18 34 -43 53 -55 31 -21 44 -23 187 -23
168 0 207 9 237 55 9 13 198 755 422 1649 l406 1625 -18 38 c-30 60 -73 83
-159 83 -59 0 -78 -4 -106 -23 -19 -12 -195 -212 -391 -442 -197 -231 -362
-420 -367 -420 -5 0 -31 34 -58 75 -346 529 -961 816 -1733 808 -85 0 -171 -3
-190 -5z"/>
</g>
</svg>
