<?xml version="1.0" standalone="no"?>
<!DOCTYPE svg PUBLIC "-//W3C//DTD SVG 20010904//EN"
 "http://www.w3.org/TR/2001/REC-SVG-20010904/DTD/svg10.dtd">
<svg version="1.0" xmlns="http://www.w3.org/2000/svg"
 width="518.000000pt" height="1384.000000pt" viewBox="0 0 518.000000 1384.000000"
 preserveAspectRatio="xMidYMid meet">
<metadata>
Created by potrace 1.16, written by Peter Selinger 2001-2019
</metadata>
<g transform="translate(0.000000,1384.000000) scale(0.100000,-0.100000)"
fill="#000000" stroke="none">
<path d="M4735 13823 c-86 -46 -500 -375 -765 -607 -167 -146 -704 -686 -861
-866 -1154 -1320 -2017 -2956 -2564 -4861 -579 -2013 -697 -3818 -344 -5268
198 -813 547 -1521 1033 -2096 105 -124 108 -125 291 -125 168 0 196 9 235 72
38 62 30 85 -74 246 -463 709 -727 1597 -796 2677 -13 207 -13 790 0 1026 50
880 204 1818 475 2899 618 2460 1536 4333 2834 5785 243 272 586 608 846 829
125 107 148 158 107 235 -33 61 -66 71 -237 71 -119 -1 -156 -4 -180 -17z"/>
</g>
</svg>
