<?xml version="1.0" standalone="no"?>
<!DOCTYPE svg PUBLIC "-//W3C//DTD SVG 20010904//EN"
 "http://www.w3.org/TR/2001/REC-SVG-20010904/DTD/svg10.dtd">
<svg version="1.0" xmlns="http://www.w3.org/2000/svg"
 width="349.000000pt" height="642.000000pt" viewBox="0 0 349.000000 642.000000"
 preserveAspectRatio="xMidYMid meet">
<metadata>
Created by potrace 1.16, written by Peter Selinger 2001-2019
</metadata>
<g transform="translate(0.000000,642.000000) scale(0.100000,-0.100000)"
fill="#000000" stroke="none">
<path d="M1599 6397 c-67 -45 -70 -75 -39 -352 110 -965 410 -1865 880 -2635
41 -69 83 -136 93 -150 l16 -26 -137 -120 c-894 -789 -1696 -1750 -2312 -2774
-121 -202 -129 -258 -41 -317 43 -29 131 -32 178 -5 21 11 79 83 167 207 770
1082 1753 2032 2891 2792 83 55 157 108 165 118 9 11 15 39 15 75 l0 57 -160
165 c-369 379 -640 748 -893 1213 -234 432 -428 965 -537 1480 -46 216 -60
252 -105 276 -51 28 -137 26 -181 -4z"/>
</g>
</svg>
