<?xml version="1.0" standalone="no"?>
<!DOCTYPE svg PUBLIC "-//W3C//DTD SVG 20010904//EN"
 "http://www.w3.org/TR/2001/REC-SVG-20010904/DTD/svg10.dtd">
<svg version="1.0" xmlns="http://www.w3.org/2000/svg"
 width="546.000000pt" height="1192.000000pt" viewBox="0 0 546.000000 1192.000000"
 preserveAspectRatio="xMidYMid meet">
<metadata>
Created by potrace 1.16, written by Peter Selinger 2001-2019
</metadata>
<g transform="translate(0.000000,1192.000000) scale(0.100000,-0.100000)"
fill="#000000" stroke="none">
<path d="M4790 11899 c-440 -115 -702 -583 -523 -936 56 -112 181 -206 314
-238 141 -33 280 -12 438 66 277 137 461 442 423 703 -23 160 -112 292 -240
359 -131 69 -268 84 -412 46z"/>
<path d="M3515 8934 c-291 -45 -588 -187 -855 -410 -105 -87 -312 -301 -406
-419 -246 -311 -471 -710 -639 -1134 -65 -165 -66 -189 -10 -249 l33 -37 170
-3 c184 -4 215 3 246 51 8 12 47 103 86 202 207 520 461 936 740 1215 226 225
441 344 689 380 225 33 349 -22 410 -184 58 -157 55 -462 -9 -787 -43 -215
-1383 -5557 -1430 -5699 -212 -640 -589 -1152 -991 -1347 -211 -103 -430 -128
-642 -74 -118 31 -120 33 -49 71 139 74 245 186 317 335 60 124 78 208 73 337
-3 94 -7 110 -40 181 -102 213 -348 311 -618 247 -224 -54 -407 -200 -505
-404 -104 -218 -108 -492 -9 -689 213 -423 788 -610 1449 -471 567 120 1134
477 1531 964 223 274 411 626 503 941 49 170 1348 5376 1367 5479 26 144 24
413 -4 547 -86 400 -301 688 -637 849 -232 111 -504 149 -770 108z"/>
</g>
</svg>
