<?xml version="1.0" standalone="no"?>
<!DOCTYPE svg PUBLIC "-//W3C//DTD SVG 20010904//EN"
 "http://www.w3.org/TR/2001/REC-SVG-20010904/DTD/svg10.dtd">
<svg version="1.0" xmlns="http://www.w3.org/2000/svg"
 width="1307.000000pt" height="945.000000pt" viewBox="0 0 1307.000000 945.000000"
 preserveAspectRatio="xMidYMid meet">
<metadata>
Created by potrace 1.16, written by Peter Selinger 2001-2019
</metadata>
<g transform="translate(0.000000,945.000000) scale(0.100000,-0.100000)"
fill="#000000" stroke="none">
<path d="M2369 9429 c-49 -29 -67 -64 -100 -193 -35 -135 -36 -187 -8 -233 40
-65 73 -73 297 -73 332 0 663 -25 784 -60 20 -6 47 -19 60 -29 21 -18 23 -26
22 -118 -1 -96 -23 -187 -921 -3773 -506 -2021 -932 -3706 -948 -3745 -91
-228 -264 -414 -490 -528 -195 -97 -496 -157 -798 -157 -103 0 -153 -20 -185
-72 -11 -18 -34 -94 -53 -169 l-33 -136 25 -49 c13 -26 37 -57 52 -68 33 -24
62 -24 492 -6 645 27 1524 23 2240 -11 236 -11 242 -11 282 9 57 29 75 66 114
223 l33 136 -25 49 c-41 82 -55 87 -247 96 -385 17 -577 73 -713 208 -50 49
-71 79 -88 125 -29 77 -40 179 -30 280 8 76 1848 7465 1859 7465 3 0 189
-1905 413 -4233 372 -3860 410 -4236 430 -4277 16 -32 34 -51 67 -68 42 -22
54 -23 180 -20 128 3 138 5 189 33 29 16 69 48 88 70 19 22 1186 1970 2593
4328 1406 2358 2560 4290 2563 4293 2 3 -437 -1763 -977 -3923 -1075 -4299
-1004 -4032 -1105 -4133 -103 -103 -295 -135 -866 -147 -356 -6 -373 -10 -413
-75 -11 -18 -34 -94 -53 -169 l-33 -136 25 -49 c13 -26 37 -57 52 -68 33 -24
61 -24 577 -6 769 27 1821 22 2651 -11 270 -11 276 -11 316 9 57 29 75 66 114
223 l33 136 -25 49 c-45 90 -37 88 -392 96 -496 10 -736 42 -769 101 -8 13
-12 57 -11 107 1 77 87 428 967 3946 531 2124 975 3888 987 3920 30 81 101
185 148 218 22 15 67 36 100 46 133 42 469 70 841 70 229 0 255 6 296 67 31
46 88 283 80 328 -9 47 -59 102 -104 115 -26 8 -406 10 -1217 8 l-1180 -3 -50
-27 c-28 -14 -69 -46 -90 -70 -22 -23 -1082 -1790 -2355 -3925 -1273 -2135
-2318 -3879 -2321 -3875 -3 4 -173 1749 -378 3877 -205 2129 -377 3886 -382
3905 -10 40 -60 93 -102 109 -19 8 -412 11 -1250 11 -1221 0 -1222 0 -1258
-21z"/>
</g>
</svg>
