<?xml version="1.0" standalone="no"?>
<!DOCTYPE svg PUBLIC "-//W3C//DTD SVG 20010904//EN"
 "http://www.w3.org/TR/2001/REC-SVG-20010904/DTD/svg10.dtd">
<svg version="1.0" xmlns="http://www.w3.org/2000/svg"
 width="530.000000pt" height="239.000000pt" viewBox="0 0 530.000000 239.000000"
 preserveAspectRatio="xMidYMid meet">
<metadata>
Created by potrace 1.16, written by Peter Selinger 2001-2019
</metadata>
<g transform="translate(0.000000,239.000000) scale(0.100000,-0.100000)"
fill="#000000" stroke="none">
<path d="M94 2376 c-36 -16 -69 -55 -83 -99 -8 -24 11 -291 77 -1098 96 -1161
88 -1103 155 -1153 l28 -21 1845 -3 c1830 -2 1845 -2 1884 18 47 24 -21 -88
728 1201 531 912 562 968 562 1014 0 61 -29 109 -82 136 -36 19 -55 20 -238
17 -183 -3 -201 -5 -227 -24 -16 -12 -93 -130 -179 -272 -240 -399 -362 -574
-502 -716 -120 -122 -241 -196 -418 -255 -197 -66 -159 -64 -1254 -68 -1040
-5 -1138 -2 -1280 38 -88 24 -192 77 -249 125 -109 94 -172 335 -221 848 -23
246 -31 271 -101 306 -34 18 -58 20 -226 20 -135 -1 -197 -5 -219 -14z"/>
</g>
</svg>
