<?xml version="1.0" standalone="no"?>
<!DOCTYPE svg PUBLIC "-//W3C//DTD SVG 20010904//EN"
 "http://www.w3.org/TR/2001/REC-SVG-20010904/DTD/svg10.dtd">
<svg version="1.0" xmlns="http://www.w3.org/2000/svg"
 width="602.000000pt" height="1140.000000pt" viewBox="0 0 602.000000 1140.000000"
 preserveAspectRatio="xMidYMid meet">
<metadata>
Created by potrace 1.16, written by Peter Selinger 2001-2019
</metadata>
<g transform="translate(0.000000,1140.000000) scale(0.100000,-0.100000)"
fill="#000000" stroke="none">
<path d="M5535 11385 c-75 -17 -127 -39 -185 -78 -88 -61 -1988 -1627 -2006
-1654 -33 -51 -25 -108 29 -200 27 -46 62 -94 78 -107 37 -32 97 -42 140 -23
45 19 2154 1252 2199 1285 153 115 240 302 210 455 -33 174 -151 296 -314 326
-71 13 -75 13 -151 -4z"/>
<path d="M1590 8594 c-560 -82 -1010 -524 -1355 -1330 -54 -125 -182 -506
-215 -640 -23 -90 -23 -91 -4 -129 34 -69 59 -80 198 -83 197 -6 212 7 266
216 18 70 57 204 87 297 263 814 607 1259 1026 1325 103 17 197 8 251 -24 149
-87 155 -415 15 -896 -17 -58 -101 -296 -186 -530 -394 -1080 -552 -1585 -652
-2085 -102 -511 -104 -889 -6 -1230 33 -114 129 -311 193 -395 192 -253 513
-423 918 -485 142 -22 407 -30 534 -16 326 37 648 177 915 400 33 27 61 48 63
46 8 -7 -125 -504 -175 -654 -171 -517 -406 -971 -684 -1322 -104 -132 -321
-347 -427 -422 -182 -130 -334 -206 -505 -252 -249 -67 -527 -54 -721 34 -161
73 -298 205 -372 357 -25 51 -43 98 -39 104 3 5 25 10 48 10 61 0 181 36 262
78 91 48 219 173 267 262 65 119 83 190 83 325 -1 147 -20 206 -97 290 -94
104 -202 147 -363 147 -257 -1 -500 -157 -607 -390 -16 -35 -41 -111 -56 -170
-24 -97 -26 -124 -26 -287 0 -162 3 -190 26 -277 33 -121 82 -235 141 -326 56
-87 178 -216 266 -283 138 -104 352 -194 556 -236 139 -28 467 -25 638 6 562
99 1071 373 1536 826 325 317 570 653 781 1075 81 161 185 420 233 580 19 63
339 1335 712 2825 649 2598 677 2713 672 2783 -21 346 -467 449 -747 173 -121
-119 -79 26 -662 -2306 l-522 -2090 -65 -108 c-209 -344 -498 -629 -762 -751
-176 -81 -309 -110 -509 -110 -166 -1 -230 12 -350 71 -105 51 -223 169 -273
273 -126 263 -134 710 -22 1262 116 579 266 1066 655 2133 156 427 194 557
211 727 38 375 -90 747 -330 959 -135 119 -342 213 -524 238 -74 10 -241 13
-297 5z"/>
</g>
</svg>
