<?xml version="1.0" standalone="no"?>
<!DOCTYPE svg PUBLIC "-//W3C//DTD SVG 20010904//EN"
 "http://www.w3.org/TR/2001/REC-SVG-20010904/DTD/svg10.dtd">
<svg version="1.0" xmlns="http://www.w3.org/2000/svg"
 width="608.000000pt" height="916.000000pt" viewBox="0 0 608.000000 916.000000"
 preserveAspectRatio="xMidYMid meet">
<metadata>
Created by potrace 1.16, written by Peter Selinger 2001-2019
</metadata>
<g transform="translate(0.000000,916.000000) scale(0.100000,-0.100000)"
fill="#000000" stroke="none">
<path d="M4085 9154 c-209 -22 -482 -86 -675 -159 -170 -64 -433 -199 -587
-301 -459 -305 -827 -718 -1058 -1189 -102 -206 -145 -321 -196 -522 -57 -224
-72 -357 -66 -598 3 -152 10 -226 26 -309 64 -316 207 -605 404 -812 44 -47
181 -171 304 -275 123 -105 223 -192 223 -194 0 -2 -82 -44 -182 -94 -931
-458 -1615 -1068 -1984 -1766 -260 -493 -353 -1045 -253 -1500 115 -522 450
-945 943 -1192 1017 -510 2378 -200 3342 762 486 484 801 1072 908 1689 100
576 -27 1155 -343 1577 -112 149 -176 210 -543 523 -181 153 -328 281 -328
285 0 3 55 34 123 68 446 226 879 533 1188 842 350 351 576 731 677 1136 50
201 57 256 56 465 0 160 -4 213 -22 296 -143 670 -653 1120 -1412 1249 -92 16
-455 28 -545 19z m460 -404 c373 -78 668 -322 806 -665 184 -461 78 -1056
-286 -1605 -101 -152 -219 -294 -375 -451 -256 -257 -505 -447 -843 -643
l-116 -68 -563 478 c-310 263 -593 509 -630 546 -343 349 -370 921 -67 1426
81 135 153 227 273 351 189 193 368 323 611 442 225 110 432 173 675 205 145
18 384 11 515 -16z m-1145 -4750 c349 -297 667 -574 707 -615 239 -254 351
-594 321 -975 -35 -449 -263 -901 -641 -1273 -593 -583 -1456 -853 -2133 -667
-102 28 -239 89 -342 151 -107 66 -297 252 -366 356 -149 228 -221 464 -233
763 -30 786 472 1693 1294 2337 139 109 387 273 533 353 63 35 133 74 155 87
22 12 47 23 55 23 8 0 301 -243 650 -540z"/>
</g>
</svg>
