<?xml version="1.0" standalone="no"?>
<!DOCTYPE svg PUBLIC "-//W3C//DTD SVG 20010904//EN"
 "http://www.w3.org/TR/2001/REC-SVG-20010904/DTD/svg10.dtd">
<svg version="1.0" xmlns="http://www.w3.org/2000/svg"
 width="1219.000000pt" height="937.000000pt" viewBox="0 0 1219.000000 937.000000"
 preserveAspectRatio="xMidYMid meet">
<metadata>
Created by potrace 1.16, written by Peter Selinger 2001-2019
</metadata>
<g transform="translate(0.000000,937.000000) scale(0.100000,-0.100000)"
fill="#000000" stroke="none">
<path d="M121 9349 c-53 -37 -70 -68 -97 -174 -29 -112 -26 -149 13 -195 45
-54 68 -60 226 -60 282 0 524 -32 587 -78 38 -28 68 -91 80 -168 6 -38 94
-1970 195 -4294 102 -2324 187 -4239 190 -4257 7 -41 50 -92 92 -109 48 -20
246 -19 308 2 107 37 -15 -179 1970 3471 1006 1850 1830 3361 1833 3359 2 -3
71 -1519 152 -3370 137 -3104 150 -3369 167 -3399 10 -18 38 -42 63 -55 42
-21 55 -23 175 -20 109 3 136 7 170 25 50 27 99 75 130 127 13 23 978 1796
2145 3941 1167 2145 2129 3909 2139 3920 10 11 46 67 80 124 297 498 675 746
1187 779 128 9 168 24 196 75 16 31 58 196 58 233 0 39 -34 91 -80 122 -31 21
-43 23 -100 18 -451 -41 -1338 -42 -2162 -5 -233 11 -248 10 -285 -7 -51 -26
-76 -67 -102 -168 -25 -100 -26 -135 -7 -180 26 -62 64 -79 200 -88 225 -14
378 -59 503 -147 78 -55 112 -96 151 -179 23 -50 26 -69 26 -157 -1 -103 0
-102 -70 -275 -10 -25 -776 -1440 -1703 -3145 l-1686 -3100 -7 50 c-7 50 -289
6451 -288 6554 0 107 87 220 217 281 159 76 339 109 633 117 226 6 245 10 288
56 28 30 72 182 72 248 0 57 -31 107 -82 132 -33 16 -53 17 -264 8 -126 -6
-499 -16 -829 -22 -616 -12 -1212 -4 -1713 22 -208 11 -222 11 -258 -7 -53
-26 -78 -68 -104 -174 -34 -137 -18 -199 60 -241 29 -16 58 -19 181 -19 176 0
381 -16 467 -35 125 -29 164 -65 192 -177 7 -25 22 -270 34 -544 l22 -499
-1565 -2880 c-1080 -1985 -1567 -2871 -1569 -2855 -1 14 -67 1510 -147 3324
l-145 3300 28 60 c51 108 139 175 302 229 156 52 352 77 598 77 201 0 223 15
267 190 30 117 28 153 -12 200 -50 60 -57 61 -320 50 -451 -19 -1329 -32
-1688 -25 -328 5 -570 14 -945 31 -131 6 -136 5 -169 -17z"/>
</g>
</svg>
