<?xml version="1.0" standalone="no"?>
<!DOCTYPE svg PUBLIC "-//W3C//DTD SVG 20010904//EN"
 "http://www.w3.org/TR/2001/REC-SVG-20010904/DTD/svg10.dtd">
<svg version="1.0" xmlns="http://www.w3.org/2000/svg"
 width="569.000000pt" height="863.000000pt" viewBox="0 0 569.000000 863.000000"
 preserveAspectRatio="xMidYMid meet">
<metadata>
Created by potrace 1.16, written by Peter Selinger 2001-2019
</metadata>
<g transform="translate(0.000000,863.000000) scale(0.100000,-0.100000)"
fill="#000000" stroke="none">
<path d="M1980 8608 c-72 -50 -97 -123 -63 -188 25 -47 1285 -1735 1331 -1783
46 -48 96 -62 149 -44 51 17 2248 1779 2269 1818 36 70 5 166 -66 201 -76 38
-37 58 -1056 -523 -522 -298 -966 -551 -988 -564 l-38 -23 -695 555 c-382 305
-706 558 -720 564 -41 15 -88 10 -123 -13z"/>
<path d="M2852 6010 c-902 -87 -1481 -577 -1735 -1470 -65 -227 -72 -276 -72
-490 0 -179 2 -204 27 -303 96 -379 315 -653 653 -818 60 -30 306 -119 615
-224 543 -185 601 -208 702 -276 315 -214 437 -552 338 -941 -117 -455 -372
-792 -736 -972 -248 -122 -499 -170 -889 -170 -202 0 -258 4 -357 22 -219 40
-427 122 -572 226 -126 90 -255 241 -306 360 -29 69 -27 76 23 76 61 0 181 36
262 78 90 47 218 173 268 262 20 36 48 107 63 158 23 81 26 107 22 190 -6 124
-32 193 -100 267 -94 104 -202 147 -363 147 -257 -1 -500 -157 -607 -390 -16
-35 -41 -111 -55 -170 -25 -96 -27 -126 -28 -287 0 -166 2 -188 27 -278 39
-138 80 -232 148 -334 227 -344 621 -563 1170 -650 170 -27 644 -24 855 5 729
99 1231 392 1593 929 188 278 364 753 403 1085 14 125 7 333 -16 443 -93 447
-361 794 -772 1000 -72 36 -243 99 -508 189 -766 260 -774 264 -896 393 -121
129 -172 263 -173 453 0 137 30 272 99 440 165 406 437 622 875 697 123 21
435 24 540 4 337 -61 592 -245 696 -502 30 -73 30 -79 1 -79 -13 0 -53 -9 -88
-21 -207 -67 -351 -231 -396 -451 -14 -73 -15 -97 -6 -152 22 -132 92 -223
211 -279 57 -27 81 -32 162 -35 114 -5 193 13 294 66 209 109 326 351 326 672
0 329 -144 622 -405 825 -192 149 -400 237 -690 292 -96 18 -466 26 -603 13z"/>
</g>
</svg>
