<?xml version="1.0" standalone="no"?>
<!DOCTYPE svg PUBLIC "-//W3C//DTD SVG 20010904//EN"
 "http://www.w3.org/TR/2001/REC-SVG-20010904/DTD/svg10.dtd">
<svg version="1.0" xmlns="http://www.w3.org/2000/svg"
 width="917.000000pt" height="1007.000000pt" viewBox="0 0 917.000000 1007.000000"
 preserveAspectRatio="xMidYMid meet">
<metadata>
Created by potrace 1.16, written by Peter Selinger 2001-2019
</metadata>
<g transform="translate(0.000000,1007.000000) scale(0.100000,-0.100000)"
fill="#000000" stroke="none">
<path d="M5535 10059 c-619 -47 -1291 -250 -1915 -576 -1773 -928 -3136 -2769
-3519 -4753 -66 -341 -91 -582 -98 -935 -8 -400 14 -667 83 -1013 71 -355 168
-641 329 -967 177 -359 356 -609 634 -885 521 -518 1151 -813 1951 -912 160
-20 639 -17 820 5 303 37 652 121 937 227 219 81 514 232 703 359 193 129 326
238 467 383 l102 105 55 -111 c93 -187 237 -388 406 -569 86 -92 118 -111 172
-104 51 7 85 30 103 70 8 18 170 653 360 1412 190 759 357 1416 370 1460 30
98 74 175 118 209 77 59 221 84 532 93 307 8 309 9 364 238 34 142 32 175 -11
230 -40 52 -68 56 -275 45 -717 -38 -1763 -38 -2899 1 -340 11 -340 11 -383
-10 -23 -12 -50 -35 -59 -50 -10 -16 -33 -92 -51 -169 l-34 -139 24 -49 c46
-92 28 -88 457 -96 483 -8 695 -24 864 -64 104 -25 128 -57 128 -174 0 -56
-31 -193 -160 -712 -179 -716 -183 -732 -250 -874 -231 -494 -751 -909 -1383
-1103 -112 -35 -290 -73 -427 -93 -138 -19 -503 -16 -660 5 -617 86 -1137 360
-1492 789 -657 792 -754 1943 -311 3703 338 1347 801 2303 1485 3070 491 551
1110 984 1750 1224 542 203 1117 270 1548 181 581 -121 1009 -538 1233 -1202
184 -544 225 -1247 116 -1981 -19 -134 -19 -139 -2 -175 10 -20 33 -47 52 -59
32 -21 45 -23 188 -23 174 0 211 9 242 60 11 19 217 822 492 1924 l473 1891
-20 40 c-30 62 -73 85 -158 85 -52 0 -79 -5 -102 -19 -17 -11 -246 -255 -509
-543 -584 -640 -524 -578 -538 -555 -134 213 -244 353 -393 497 -181 176 -336
284 -569 396 -230 111 -516 189 -785 213 -129 12 -403 12 -555 0z"/>
</g>
</svg>
