<?xml version="1.0" standalone="no"?>
<!DOCTYPE svg PUBLIC "-//W3C//DTD SVG 20010904//EN"
 "http://www.w3.org/TR/2001/REC-SVG-20010904/DTD/svg10.dtd">
<svg version="1.0" xmlns="http://www.w3.org/2000/svg"
 width="316.000000pt" height="288.000000pt" viewBox="0 0 316.000000 288.000000"
 preserveAspectRatio="xMidYMid meet">
<metadata>
Created by potrace 1.16, written by Peter Selinger 2001-2019
</metadata>
<g transform="translate(0.000000,288.000000) scale(0.100000,-0.100000)"
fill="#000000" stroke="none">
<path d="M1740 2858 c-18 -13 -41 -34 -51 -48 -11 -15 -71 -236 -144 -528
-138 -554 -137 -548 -78 -604 42 -39 66 -48 127 -48 146 0 339 -50 448 -116
179 -109 250 -278 204 -487 -47 -208 -184 -371 -401 -476 -296 -144 -639 -197
-1335 -207 -201 -3 -375 -7 -387 -10 -43 -9 -92 -63 -109 -121 -19 -66 -13
-111 23 -153 54 -65 39 -64 553 -57 501 7 704 17 984 48 667 74 1060 221 1322
491 174 180 254 372 254 611 0 131 -19 212 -75 312 -70 126 -216 251 -378 324
-63 28 -258 93 -320 106 -21 4 -27 10 -23 23 34 111 196 791 196 820 0 49 -34
101 -80 124 -31 16 -71 18 -366 18 -327 0 -331 0 -364 -22z"/>
</g>
</svg>
