<?xml version="1.0" standalone="no"?>
<!DOCTYPE svg PUBLIC "-//W3C//DTD SVG 20010904//EN"
 "http://www.w3.org/TR/2001/REC-SVG-20010904/DTD/svg10.dtd">
<svg version="1.0" xmlns="http://www.w3.org/2000/svg"
 width="1063.000000pt" height="1018.000000pt" viewBox="0 0 1063.000000 1018.000000"
 preserveAspectRatio="xMidYMid meet">
<metadata>
Created by potrace 1.16, written by Peter Selinger 2001-2019
</metadata>
<g transform="translate(0.000000,1018.000000) scale(0.100000,-0.100000)"
fill="#000000" stroke="none">
<path d="M7415 10170 c-726 -59 -1458 -311 -2125 -733 -146 -93 -308 -210
-482 -349 -87 -70 -158 -125 -158 -123 0 3 34 140 75 305 41 165 75 318 75
341 0 53 -31 104 -79 128 -34 18 -43 18 -136 5 -218 -30 -1037 -27 -1891 7
l-282 12 -39 -23 c-53 -29 -71 -62 -104 -194 -46 -179 -35 -242 50 -286 37
-18 59 -20 239 -20 332 0 663 -25 784 -60 20 -6 47 -19 60 -29 21 -18 23 -26
22 -118 -1 -96 -24 -190 -971 -3973 -1061 -4240 -991 -3979 -1092 -4080 -103
-103 -295 -135 -866 -147 -425 -8 -405 3 -464 -241 l-34 -139 24 -49 c13 -26
37 -57 52 -68 33 -24 54 -24 586 -6 799 27 1980 22 2888 -11 287 -11 304 -10
340 7 55 28 77 68 113 213 36 147 35 182 -7 232 -46 54 -70 59 -310 59 -407 0
-765 27 -899 68 -49 15 -62 23 -76 52 -44 87 -87 -97 842 3622 473 1894 867
3457 876 3474 58 114 474 553 706 746 793 658 1728 964 2563 839 646 -97 1157
-456 1454 -1021 72 -138 137 -310 181 -483 64 -255 75 -352 74 -672 0 -291
-10 -401 -55 -629 -24 -120 -1117 -4495 -1160 -4646 -144 -497 -417 -966 -760
-1310 -261 -261 -542 -419 -801 -452 -252 -32 -584 46 -799 187 -98 64 -243
212 -302 306 -37 60 -117 232 -117 252 0 2 38 4 85 5 302 4 613 198 753 470
67 129 94 229 100 366 3 75 0 139 -8 175 -50 229 -250 395 -508 420 -160 16
-315 -15 -472 -94 -339 -170 -514 -516 -514 -1015 1 -240 41 -424 139 -628 68
-141 137 -242 245 -355 131 -138 254 -229 430 -317 388 -195 875 -240 1402
-131 618 128 1253 495 1690 976 295 325 510 685 632 1060 52 160 1160 4607
1185 4755 37 221 45 320 45 565 1 255 -8 362 -50 579 -160 823 -670 1492
-1419 1861 -327 161 -646 255 -1020 300 -154 19 -555 27 -710 15z"/>
</g>
</svg>
