<?xml version="1.0" standalone="no"?>
<!DOCTYPE svg PUBLIC "-//W3C//DTD SVG 20010904//EN"
 "http://www.w3.org/TR/2001/REC-SVG-20010904/DTD/svg10.dtd">
<svg version="1.0" xmlns="http://www.w3.org/2000/svg"
 width="872.000000pt" height="796.000000pt" viewBox="0 0 872.000000 796.000000"
 preserveAspectRatio="xMidYMid meet">
<metadata>
Created by potrace 1.16, written by Peter Selinger 2001-2019
</metadata>
<g transform="translate(0.000000,796.000000) scale(0.100000,-0.100000)"
fill="#000000" stroke="none">
<path d="M2035 7944 c-138 -49 -205 -213 -141 -349 13 -28 36 -62 52 -75 16
-14 1360 -808 2987 -1765 1626 -957 2957 -1742 2957 -1745 0 -3 -1747 -799
-3883 -1770 -2845 -1294 -3892 -1774 -3919 -1798 -54 -48 -82 -113 -81 -187 0
-70 18 -117 63 -169 62 -70 173 -103 256 -76 76 25 8258 3751 8290 3775 48 37
87 124 87 195 0 71 -39 158 -86 194 -55 40 -6380 3759 -6417 3773 -46 16 -115
15 -165 -3z"/>
</g>
</svg>
