<?xml version="1.0" standalone="no"?>
<!DOCTYPE svg PUBLIC "-//W3C//DTD SVG 20010904//EN"
 "http://www.w3.org/TR/2001/REC-SVG-20010904/DTD/svg10.dtd">
<svg version="1.0" xmlns="http://www.w3.org/2000/svg"
 width="890.000000pt" height="907.000000pt" viewBox="0 0 890.000000 907.000000"
 preserveAspectRatio="xMidYMid meet">
<metadata>
Created by potrace 1.16, written by Peter Selinger 2001-2019
</metadata>
<g transform="translate(0.000000,907.000000) scale(0.100000,-0.100000)"
fill="#000000" stroke="none">
<path d="M2281 9053 c-51 -26 -69 -58 -98 -169 -28 -110 -26 -157 6 -202 39
-55 69 -62 278 -62 350 0 650 -27 760 -68 63 -23 78 -61 69 -176 -8 -96 -1850
-7475 -1896 -7594 -58 -151 -128 -225 -246 -262 -139 -43 -449 -70 -802 -70
-211 0 -228 -4 -274 -59 -17 -19 -34 -65 -52 -136 -30 -122 -26 -162 21 -207
53 -49 56 -49 305 -38 128 5 505 15 838 21 622 12 1419 3 2036 -22 359 -15
359 -15 409 181 30 117 28 153 -12 200 -47 56 -64 60 -275 60 -343 0 -620 24
-738 63 -84 29 -92 44 -87 163 4 80 59 313 427 1783 l422 1691 1094 0 c1184 0
1228 2 1522 56 205 37 327 69 537 139 746 248 1399 707 1837 1292 781 1043
686 2280 -226 2960 -315 235 -687 379 -1166 450 -105 16 -304 17 -2385 20
-2152 3 -2272 2 -2304 -14z m4106 -444 c457 -38 790 -170 1018 -403 133 -136
203 -266 247 -459 28 -123 30 -405 4 -582 -53 -365 -208 -958 -328 -1260 -54
-134 -155 -331 -224 -435 -326 -491 -879 -805 -1594 -907 -99 -14 -256 -17
-1098 -20 -944 -4 -983 -3 -978 14 3 10 213 848 466 1863 253 1015 470 1874
482 1910 33 104 87 199 127 225 42 27 102 45 186 55 99 12 1549 11 1692 -1z"/>
</g>
</svg>
