<?xml version="1.0" standalone="no"?>
<!DOCTYPE svg PUBLIC "-//W3C//DTD SVG 20010904//EN"
 "http://www.w3.org/TR/2001/REC-SVG-20010904/DTD/svg10.dtd">
<svg version="1.0" xmlns="http://www.w3.org/2000/svg"
 width="709.000000pt" height="1144.000000pt" viewBox="0 0 709.000000 1144.000000"
 preserveAspectRatio="xMidYMid meet">
<metadata>
Created by potrace 1.16, written by Peter Selinger 2001-2019
</metadata>
<g transform="translate(0.000000,1144.000000) scale(0.100000,-0.100000)"
fill="#000000" stroke="none">
<path d="M2662 11420 c-297 -80 -522 -356 -522 -641 0 -314 279 -512 604 -429
242 62 450 266 511 500 23 89 17 233 -15 313 -42 110 -138 202 -258 248 -83
31 -223 36 -320 9z"/>
<path d="M6485 11424 c-88 -21 -211 -85 -288 -149 -153 -126 -247 -314 -247
-490 1 -317 279 -518 604 -435 239 61 443 258 511 494 13 44 16 85 13 165 -3
94 -7 114 -35 173 -94 200 -322 299 -558 242z"/>
<path d="M1590 8594 c-422 -62 -784 -331 -1086 -806 -87 -138 -229 -421 -297
-593 -62 -157 -152 -434 -187 -571 -23 -90 -23 -91 -4 -129 34 -69 59 -80 198
-83 197 -6 212 7 266 216 44 171 130 436 197 607 205 519 474 863 762 974 147
56 320 65 399 21 127 -72 155 -301 80 -664 -40 -199 -106 -387 -657 -1883
-308 -837 -572 -1560 -585 -1607 -48 -165 -60 -250 -60 -426 1 -130 5 -184 22
-255 89 -389 309 -645 650 -758 431 -143 883 -15 1255 357 290 290 541 743
720 1301 30 94 64 211 77 261 23 90 23 91 4 129 -34 69 -59 80 -198 83 -197 6
-212 -7 -266 -216 -44 -171 -130 -436 -197 -607 -205 -519 -474 -863 -762
-974 -147 -56 -320 -65 -399 -21 -127 72 -155 301 -80 664 40 199 106 387 657
1883 308 837 572 1560 585 1607 48 165 60 250 60 426 -1 130 -5 184 -22 255
-72 316 -223 534 -470 680 -88 52 -258 110 -365 124 -74 10 -241 13 -297 5z"/>
<path d="M5255 8586 c-382 -64 -755 -284 -1062 -626 -243 -270 -429 -554 -614
-935 -122 -252 -202 -459 -195 -500 8 -43 42 -84 82 -101 46 -19 243 -19 289
0 44 19 53 33 128 221 160 398 324 704 524 974 125 169 330 371 467 460 193
125 338 172 536 175 112 1 130 -1 172 -22 57 -28 103 -79 133 -146 40 -91 50
-160 49 -346 0 -175 -14 -297 -54 -495 -35 -172 -1330 -5335 -1365 -5444 -84
-258 -223 -551 -362 -760 -243 -364 -533 -599 -829 -673 -115 -29 -323 -31
-428 -5 -74 19 -186 65 -186 77 0 4 21 15 46 25 71 27 188 110 244 173 59 66
133 208 156 301 11 45 15 95 12 166 -3 94 -6 108 -41 178 -150 302 -605 319
-893 32 -145 -144 -211 -325 -202 -552 8 -183 60 -308 183 -441 259 -280 746
-387 1270 -280 165 33 386 111 560 198 275 135 486 289 721 524 302 303 517
645 643 1024 55 162 1325 5249 1345 5383 76 513 -111 996 -482 1243 -102 67
-209 114 -341 148 -98 25 -140 30 -271 34 -101 2 -183 -1 -235 -10z"/>
</g>
</svg>
