<?xml version="1.0" standalone="no"?>
<!DOCTYPE svg PUBLIC "-//W3C//DTD SVG 20010904//EN"
 "http://www.w3.org/TR/2001/REC-SVG-20010904/DTD/svg10.dtd">
<svg version="1.0" xmlns="http://www.w3.org/2000/svg"
 width="366.000000pt" height="245.000000pt" viewBox="0 0 366.000000 245.000000"
 preserveAspectRatio="xMidYMid meet">
<metadata>
Created by potrace 1.16, written by Peter Selinger 2001-2019
</metadata>
<g transform="translate(0.000000,245.000000) scale(0.100000,-0.100000)"
fill="#000000" stroke="none">
<path d="M2249 2427 c-43 -26 -2203 -2018 -2223 -2050 -49 -75 -24 -144 93
-269 135 -143 176 -142 353 10 62 53 466 400 897 771 431 370 789 674 796 675
7 0 237 -336 510 -749 273 -412 508 -760 521 -772 34 -31 96 -46 139 -34 46
13 272 176 289 209 26 52 28 89 8 134 -27 62 -1170 2019 -1196 2047 -47 53
-128 65 -187 28z"/>
</g>
</svg>
