<?xml version="1.0" standalone="no"?>
<!DOCTYPE svg PUBLIC "-//W3C//DTD SVG 20010904//EN"
 "http://www.w3.org/TR/2001/REC-SVG-20010904/DTD/svg10.dtd">
<svg version="1.0" xmlns="http://www.w3.org/2000/svg"
 width="922.000000pt" height="1241.000000pt" viewBox="0 0 922.000000 1241.000000"
 preserveAspectRatio="xMidYMid meet">
<metadata>
Created by potrace 1.16, written by Peter Selinger 2001-2019
</metadata>
<g transform="translate(0.000000,1241.000000) scale(0.100000,-0.100000)"
fill="#000000" stroke="none">
<path d="M4410 12394 c-30 -8 -93 -33 -139 -55 -116 -57 -248 -187 -307 -304
-65 -125 -79 -176 -78 -285 0 -74 5 -107 23 -153 29 -75 89 -149 154 -192 65
-43 1945 -825 1984 -825 62 0 104 35 218 187 61 80 118 159 127 177 25 45 23
106 -5 147 -27 40 -1545 1213 -1628 1258 -108 59 -235 75 -349 45z"/>
<path d="M419 9739 c-20 -12 -46 -38 -57 -58 -31 -57 -106 -374 -98 -416 9
-45 57 -101 99 -114 18 -5 181 -12 362 -15 447 -8 674 -32 719 -76 49 -48 77
73 -662 -2885 -380 -1518 -702 -2819 -716 -2891 -50 -258 -60 -369 -60 -669 0
-303 12 -412 69 -670 170 -759 650 -1370 1327 -1689 233 -110 484 -185 761
-228 193 -29 602 -32 777 -5 935 145 1814 692 2507 1559 271 339 506 734 683
1148 142 331 158 391 844 3137 355 1419 655 2607 667 2640 93 251 301 438 600
537 182 61 327 83 599 92 259 9 261 10 330 291 47 194 47 222 -1 278 -46 52
-71 56 -274 45 -99 -5 -426 -15 -727 -22 -566 -12 -1282 -3 -1827 23 -234 12
-235 12 -276 -10 -58 -31 -76 -69 -125 -268 -47 -191 -47 -221 -3 -274 39 -46
79 -59 185 -59 125 0 315 -17 413 -36 347 -68 498 -220 482 -484 -4 -68 -134
-602 -651 -2666 -355 -1420 -666 -2649 -692 -2730 -167 -541 -459 -1083 -792
-1474 -89 -104 -309 -325 -407 -409 -440 -377 -944 -614 -1485 -697 -158 -25
-487 -25 -617 -1 -315 59 -558 182 -754 383 -232 238 -352 524 -389 929 -26
282 4 628 91 1060 63 314 1444 5827 1475 5887 34 67 100 137 149 159 103 46
332 68 780 76 315 5 343 7 376 25 52 29 71 71 119 265 47 191 47 221 3 274
-49 58 -66 60 -335 49 -533 -21 -1340 -32 -1918 -26 -532 6 -745 11 -1345 31
-163 6 -172 5 -206 -16z"/>
</g>
</svg>
