<?xml version="1.0" standalone="no"?>
<!DOCTYPE svg PUBLIC "-//W3C//DTD SVG 20010904//EN"
 "http://www.w3.org/TR/2001/REC-SVG-20010904/DTD/svg10.dtd">
<svg version="1.0" xmlns="http://www.w3.org/2000/svg"
 width="857.000000pt" height="1096.000000pt" viewBox="0 0 857.000000 1096.000000"
 preserveAspectRatio="xMidYMid meet">
<metadata>
Created by potrace 1.16, written by Peter Selinger 2001-2019
</metadata>
<g transform="translate(0.000000,1096.000000) scale(0.100000,-0.100000)"
fill="#000000" stroke="none">
<path d="M7613 10946 c-217 -41 -391 -135 -544 -293 -101 -104 -156 -182 -215
-307 -69 -146 -89 -236 -89 -401 0 -120 3 -150 23 -210 71 -213 208 -344 427
-407 68 -20 102 -23 230 -23 164 1 253 18 388 75 37 16 67 26 67 21 0 -4 -36
-79 -79 -165 -258 -512 -684 -957 -1196 -1251 -113 -64 -131 -79 -151 -117
-31 -59 -18 -94 88 -234 121 -162 146 -162 398 -6 769 475 1346 1236 1550
2042 44 174 53 262 47 438 -6 186 -32 295 -101 437 -98 198 -259 335 -461 390
-82 22 -290 28 -382 11z"/>
<path d="M2369 9429 c-20 -12 -46 -38 -57 -58 -31 -57 -106 -374 -98 -416 9
-45 57 -101 99 -114 18 -5 181 -12 362 -15 446 -8 674 -32 719 -76 49 -48 98
158 -934 -3972 -668 -2675 -971 -3872 -991 -3914 -34 -73 -95 -139 -152 -164
-105 -47 -332 -69 -772 -76 -181 -3 -344 -10 -362 -15 -66 -21 -86 -59 -138
-271 l-49 -195 25 -48 c13 -27 37 -58 52 -69 l28 -21 3247 -3 c2186 -2 3259 0
3282 7 20 6 48 23 63 39 22 23 151 379 642 1777 382 1085 615 1763 615 1786 0
41 -30 91 -73 123 -26 19 -44 21 -215 24 -112 2 -201 -1 -222 -7 -66 -20 -83
-49 -184 -332 -192 -537 -317 -839 -466 -1134 -351 -694 -729 -1094 -1295
-1370 -336 -165 -669 -254 -1056 -285 -219 -18 -1547 -9 -1614 11 l-50 14 2
60 c2 79 1921 7766 1958 7843 30 63 94 135 150 167 22 13 70 31 107 40 166 38
607 65 1076 65 288 0 308 3 354 58 20 24 36 74 72 219 51 207 51 232 0 292
-42 50 -63 52 -375 42 -598 -22 -1577 -33 -2184 -27 -555 6 -751 10 -1360 31
-163 6 -172 5 -206 -16z"/>
</g>
</svg>
