<?xml version="1.0" standalone="no"?>
<!DOCTYPE svg PUBLIC "-//W3C//DTD SVG 20010904//EN"
 "http://www.w3.org/TR/2001/REC-SVG-20010904/DTD/svg10.dtd">
<svg version="1.0" xmlns="http://www.w3.org/2000/svg"
 width="615.000000pt" height="895.000000pt" viewBox="0 0 615.000000 895.000000"
 preserveAspectRatio="xMidYMid meet">
<metadata>
Created by potrace 1.16, written by Peter Selinger 2001-2019
</metadata>
<g transform="translate(0.000000,895.000000) scale(0.100000,-0.100000)"
fill="#000000" stroke="none">
<path d="M1295 8936 c-462 -90 -785 -470 -1045 -1232 -62 -182 -110 -346 -190
-654 -69 -262 -69 -278 -10 -335 l31 -30 169 -3 c183 -4 213 3 246 52 8 14 49
153 90 309 210 808 371 1186 590 1386 89 81 148 106 259 106 78 0 97 -4 147
-28 60 -30 97 -71 130 -144 65 -147 64 -465 -3 -803 -11 -58 -262 -1068 -557
-2245 -514 -2055 -536 -2144 -536 -2235 -1 -84 3 -102 27 -155 38 -82 70 -120
133 -162 269 -179 689 -10 805 324 11 32 222 868 469 1858 l450 1800 75 150
c221 444 455 784 725 1056 394 397 791 579 1270 583 138 1 162 -2 223 -22 76
-27 165 -88 220 -153 192 -224 231 -704 107 -1314 -63 -310 -190 -777 -346
-1268 -154 -483 -442 -1290 -484 -1354 -21 -33 -47 -123 -114 -390 -393 -1573
-677 -2464 -968 -3036 -142 -278 -287 -471 -412 -546 -69 -41 -147 -50 -254
-27 -107 22 -239 86 -178 86 8 0 56 21 107 47 78 38 110 62 185 138 78 77 98
105 137 185 98 202 109 389 31 548 -53 109 -175 202 -311 237 -81 21 -223 19
-317 -5 -281 -72 -490 -295 -552 -590 -22 -101 -24 -278 -5 -365 74 -341 338
-588 725 -678 136 -31 410 -31 555 1 838 187 1422 1008 1941 2727 133 443 421
1537 418 1590 -1 11 41 135 92 275 416 1144 684 2054 744 2530 57 444 11 802
-143 1108 -195 390 -581 625 -1116 683 -146 16 -434 6 -590 -20 -575 -96
-1064 -379 -1489 -861 -101 -114 -106 -118 -112 -92 -112 517 -436 850 -934
958 -102 22 -344 27 -435 10z"/>
</g>
</svg>
