<?xml version="1.0" standalone="no"?>
<!DOCTYPE svg PUBLIC "-//W3C//DTD SVG 20010904//EN"
 "http://www.w3.org/TR/2001/REC-SVG-20010904/DTD/svg10.dtd">
<svg version="1.0" xmlns="http://www.w3.org/2000/svg"
 width="524.000000pt" height="882.000000pt" viewBox="0 0 524.000000 882.000000"
 preserveAspectRatio="xMidYMid meet">
<metadata>
Created by potrace 1.16, written by Peter Selinger 2001-2019
</metadata>
<g transform="translate(0.000000,882.000000) scale(0.100000,-0.100000)"
fill="#000000" stroke="none">
<path d="M4780 8810 c-62 -11 -147 -45 -196 -77 -82 -55 -2002 -1633 -2020
-1660 -33 -51 -25 -108 29 -200 57 -97 91 -129 148 -138 34 -6 51 -2 98 22 31
16 530 306 1110 644 1122 653 1133 661 1212 781 77 120 91 280 34 406 -36 80
-130 171 -207 200 -65 24 -148 33 -208 22z"/>
<path d="M2860 6010 c-945 -89 -1533 -617 -1775 -1594 -77 -309 -71 -549 21
-826 121 -364 407 -642 792 -770 48 -15 251 -65 452 -110 385 -85 487 -114
585 -163 196 -98 354 -263 429 -447 70 -173 75 -398 13 -620 -187 -665 -594
-1023 -1271 -1117 -187 -26 -554 -23 -708 5 -219 40 -427 122 -572 226 -126
90 -255 241 -306 360 -29 69 -27 76 23 76 61 0 181 36 262 78 90 47 218 173
268 262 20 36 48 107 63 158 23 81 26 107 22 190 -6 124 -32 193 -100 267 -94
104 -202 147 -363 147 -257 -1 -500 -157 -607 -390 -16 -35 -41 -111 -55 -170
-25 -96 -27 -126 -28 -287 0 -166 2 -188 27 -278 39 -138 80 -232 148 -334
227 -344 621 -563 1170 -650 156 -25 622 -24 818 0 686 86 1193 356 1542 819
141 187 227 341 323 583 142 356 203 681 179 950 -48 521 -342 939 -823 1169
-163 79 -246 103 -684 201 -421 94 -491 116 -603 195 -178 125 -272 315 -272
547 0 287 149 650 354 861 157 162 354 260 623 308 125 22 434 25 543 5 337
-61 592 -245 696 -502 30 -73 30 -79 1 -79 -13 0 -53 -9 -88 -21 -207 -67
-351 -231 -396 -451 -14 -73 -15 -97 -6 -152 22 -132 92 -223 211 -279 57 -27
81 -32 162 -35 114 -5 193 13 294 66 209 109 326 351 326 672 0 329 -144 622
-405 825 -192 149 -400 237 -690 292 -96 18 -456 26 -595 13z"/>
</g>
</svg>
