<?xml version="1.0" standalone="no"?>
<!DOCTYPE svg PUBLIC "-//W3C//DTD SVG 20010904//EN"
 "http://www.w3.org/TR/2001/REC-SVG-20010904/DTD/svg10.dtd">
<svg version="1.0" xmlns="http://www.w3.org/2000/svg"
 width="494.000000pt" height="994.000000pt" viewBox="0 0 494.000000 994.000000"
 preserveAspectRatio="xMidYMid meet">
<metadata>
Created by potrace 1.16, written by Peter Selinger 2001-2019
</metadata>
<g transform="translate(0.000000,994.000000) scale(0.100000,-0.100000)"
fill="#000000" stroke="none">
<path d="M4081 9925 c-354 -77 -616 -334 -701 -687 -85 -356 87 -653 420 -724
55 -12 105 -15 190 -11 173 9 313 55 452 150 l67 46 -14 -37 c-231 -643 -717
-1208 -1333 -1550 -51 -28 -93 -59 -104 -77 -57 -90 46 -255 159 -255 33 0
183 82 333 183 578 385 1032 954 1254 1569 139 387 162 676 72 940 -43 128
-86 198 -172 284 -83 84 -196 145 -309 169 -87 18 -229 18 -314 0z"/>
<path d="M1800 9294 c-459 -40 -850 -76 -868 -79 -18 -3 -47 -21 -66 -39 -28
-29 -38 -51 -61 -144 -30 -123 -28 -155 12 -203 46 -54 67 -59 240 -59 291 0
532 -27 631 -70 73 -32 89 -117 56 -291 -8 -46 -397 -1612 -864 -3479 -514
-2056 -855 -3440 -866 -3510 -20 -136 -14 -392 11 -505 35 -159 103 -322 184
-445 46 -70 159 -190 234 -247 261 -201 668 -277 967 -181 257 82 457 267 634
583 151 270 270 618 442 1290 l38 150 -20 39 c-34 70 -58 81 -198 84 -136 4
-182 -7 -211 -51 -9 -14 -49 -153 -90 -310 -133 -509 -223 -779 -335 -1012
-112 -231 -228 -373 -356 -436 -62 -31 -77 -34 -154 -34 -112 0 -165 21 -224
86 -118 131 -138 445 -56 874 12 61 460 1865 996 4010 720 2880 974 3908 969
3932 -7 38 -46 88 -86 108 -15 8 -50 15 -76 14 -26 -1 -424 -34 -883 -75z"/>
</g>
</svg>
