<?xml version="1.0" standalone="no"?>
<!DOCTYPE svg PUBLIC "-//W3C//DTD SVG 20010904//EN"
 "http://www.w3.org/TR/2001/REC-SVG-20010904/DTD/svg10.dtd">
<svg version="1.0" xmlns="http://www.w3.org/2000/svg"
 width="495.000000pt" height="992.000000pt" viewBox="0 0 495.000000 992.000000"
 preserveAspectRatio="xMidYMid meet">
<metadata>
Created by potrace 1.16, written by Peter Selinger 2001-2019
</metadata>
<g transform="translate(0.000000,992.000000) scale(0.100000,-0.100000)"
fill="#000000" stroke="none">
<path d="M3030 9905 c-874 -109 -1710 -726 -2333 -1725 -281 -450 -513 -985
-649 -1500 -66 -245 -56 -376 37 -516 131 -198 444 -261 710 -143 150 66 291
197 363 337 51 97 92 248 92 336 0 126 -56 261 -140 340 -81 76 -227 135 -332
136 -21 0 -38 2 -38 4 0 2 20 53 44 112 347 859 895 1569 1486 1930 502 306
1074 379 1479 188 385 -181 601 -557 601 -1045 -1 -548 -269 -1113 -727 -1530
-40 -37 -552 -442 -1139 -900 -660 -516 -1099 -866 -1153 -920 -293 -289 -496
-694 -566 -1129 -20 -126 -20 -372 1 -481 72 -382 279 -635 589 -720 71 -19
97 -21 245 -16 142 4 181 9 281 35 388 103 728 334 980 667 139 183 280 480
295 623 7 59 -18 108 -67 134 -28 15 -58 18 -190 18 -146 0 -158 -1 -190 -23
-39 -26 -57 -60 -94 -177 -130 -409 -493 -768 -865 -855 -84 -19 -222 -20
-258 -1 -73 38 -132 139 -153 261 -23 132 9 362 71 525 61 158 183 340 286
425 27 23 522 410 1099 860 1019 796 1055 825 1231 1000 203 202 274 288 409
490 159 239 266 453 351 700 217 631 204 1204 -40 1700 -83 168 -166 285 -296
415 -354 354 -865 514 -1420 445z"/>
<path d="M1030 1540 c-300 -64 -565 -275 -697 -555 -60 -127 -83 -225 -83
-354 0 -189 53 -325 175 -447 315 -315 901 -210 1230 220 67 88 138 236 165
340 25 98 27 264 5 351 -44 173 -162 319 -316 393 -148 71 -309 89 -479 52z"/>
</g>
</svg>
