<?xml version="1.0" standalone="no"?>
<!DOCTYPE svg PUBLIC "-//W3C//DTD SVG 20010904//EN"
 "http://www.w3.org/TR/2001/REC-SVG-20010904/DTD/svg10.dtd">
<svg version="1.0" xmlns="http://www.w3.org/2000/svg"
 width="1237.000000pt" height="976.000000pt" viewBox="0 0 1237.000000 976.000000"
 preserveAspectRatio="xMidYMid meet">
<metadata>
Created by potrace 1.16, written by Peter Selinger 2001-2019
</metadata>
<g transform="translate(0.000000,976.000000) scale(0.100000,-0.100000)"
fill="#000000" stroke="none">
<path d="M2370 9743 c-54 -28 -74 -70 -119 -247 -46 -186 -50 -236 -21 -283
40 -67 56 -70 445 -76 428 -8 658 -27 757 -66 28 -10 48 -58 48 -113 0 -51
-1925 -7731 -1951 -7782 -35 -72 -101 -140 -158 -164 -112 -49 -340 -70 -821
-79 -320 -5 -359 -8 -392 -24 -21 -11 -45 -30 -54 -44 -19 -30 -103 -356 -104
-403 0 -50 32 -104 78 -130 l41 -22 268 10 c1002 38 2194 38 3220 -1 335 -12
352 -11 401 45 24 28 37 66 77 228 l49 195 -25 48 c-46 92 -32 89 -427 96
-355 7 -561 20 -689 44 -118 22 -135 40 -135 134 0 81 1912 7725 1949 7793 66
121 138 168 293 192 175 27 323 37 683 43 394 7 402 8 443 70 25 38 104 344
104 405 0 56 -29 102 -80 128 -39 20 -47 20 -298 10 -1000 -39 -2168 -37
-3372 5 -157 6 -179 5 -210 -12z"/>
<path d="M8499 9741 c-20 -11 -44 -32 -54 -48 -21 -32 -104 -352 -105 -402 0
-46 35 -105 79 -129 34 -18 61 -20 471 -25 449 -6 636 -16 824 -43 176 -25
216 -52 216 -150 0 -66 -1646 -6661 -1711 -6854 -207 -621 -614 -1161 -1075
-1428 -88 -51 -215 -103 -314 -128 -108 -27 -346 -25 -487 5 -331 69 -583 240
-732 496 -23 38 -41 73 -41 77 0 5 17 8 39 8 63 0 227 47 317 90 252 122 428
335 509 615 124 430 -100 782 -525 824 -260 27 -550 -81 -744 -275 -144 -143
-229 -315 -279 -558 -30 -149 -32 -465 -4 -596 62 -292 185 -520 391 -725 415
-414 1063 -580 1776 -454 1101 193 2080 997 2436 2000 20 57 415 1618 878
3469 507 2026 853 3388 868 3421 38 83 90 136 152 154 93 29 268 46 536 53
292 8 301 9 339 74 23 37 101 343 101 395 0 54 -30 104 -77 131 -40 22 -43 22
-239 13 -476 -24 -1099 -33 -1754 -27 -605 6 -870 11 -1555 31 -186 5 -202 4
-236 -14z"/>
</g>
</svg>
