<?xml version="1.0" standalone="no"?>
<!DOCTYPE svg PUBLIC "-//W3C//DTD SVG 20010904//EN"
 "http://www.w3.org/TR/2001/REC-SVG-20010904/DTD/svg10.dtd">
<svg version="1.0" xmlns="http://www.w3.org/2000/svg"
 width="397.000000pt" height="881.000000pt" viewBox="0 0 397.000000 881.000000"
 preserveAspectRatio="xMidYMid meet">
<metadata>
Created by potrace 1.16, written by Peter Selinger 2001-2019
</metadata>
<g transform="translate(0.000000,881.000000) scale(0.100000,-0.100000)"
fill="#000000" stroke="none">
<path d="M2552 8790 c-140 -37 -243 -98 -336 -202 -114 -126 -107 -101 -419
-1351 l-282 -1127 -653 0 c-529 0 -659 -3 -685 -14 -64 -26 -81 -59 -133 -269
l-48 -194 25 -48 c13 -27 37 -58 52 -69 28 -21 41 -21 658 -24 592 -2 630 -3
625 -20 -16 -54 -957 -3830 -970 -3895 -62 -300 -27 -632 93 -883 69 -145 131
-234 231 -334 249 -249 583 -372 970 -357 231 10 434 63 656 175 228 114 388
234 599 446 210 211 375 426 548 716 92 154 242 462 312 639 65 165 66 189 10
249 l-33 37 -221 3 c-237 3 -263 -1 -295 -51 -8 -12 -43 -92 -77 -177 -286
-717 -676 -1232 -1082 -1430 -135 -66 -250 -93 -392 -94 -99 -1 -115 2 -160
24 -59 30 -107 96 -130 175 -39 131 -36 364 6 615 15 89 912 3716 1020 4123
l10 37 655 0 c629 0 656 1 693 19 21 11 46 32 56 48 21 32 104 351 105 402 0
47 -35 105 -80 130 -37 21 -45 21 -654 21 -407 0 -616 3 -616 10 0 6 119 487
265 1070 146 583 269 1091 275 1128 46 328 -251 563 -598 472z"/>
</g>
</svg>
