<?xml version="1.0" standalone="no"?>
<!DOCTYPE svg PUBLIC "-//W3C//DTD SVG 20010904//EN"
 "http://www.w3.org/TR/2001/REC-SVG-20010904/DTD/svg10.dtd">
<svg version="1.0" xmlns="http://www.w3.org/2000/svg"
 width="949.000000pt" height="1248.000000pt" viewBox="0 0 949.000000 1248.000000"
 preserveAspectRatio="xMidYMid meet">
<metadata>
Created by potrace 1.16, written by Peter Selinger 2001-2019
</metadata>
<g transform="translate(0.000000,1248.000000) scale(0.100000,-0.100000)"
fill="#000000" stroke="none">
<path d="M7017 12467 c-46 -20 -2172 -1867 -2196 -1908 -23 -41 -28 -108 -9
-142 6 -12 45 -63 85 -114 83 -103 127 -129 195 -118 43 8 -3 -28 1063 820
352 281 670 534 706 562 l66 53 522 -690 c287 -380 532 -699 544 -710 34 -32
90 -45 135 -32 49 15 257 174 283 216 12 20 19 50 19 82 0 50 -6 60 -571 925
-314 481 -594 908 -621 950 -71 108 -140 141 -221 106z"/>
<path d="M2359 9389 c-20 -12 -44 -35 -54 -52 -23 -39 -74 -240 -75 -292 0
-55 29 -105 76 -132 37 -21 50 -23 244 -23 341 0 659 -25 782 -60 20 -6 47
-19 60 -29 21 -18 23 -26 22 -118 -1 -96 -24 -190 -966 -3953 -1055 -4218
-986 -3959 -1087 -4060 -103 -103 -295 -135 -866 -147 -422 -8 -403 2 -461
-231 -37 -147 -36 -181 8 -237 46 -59 -225 -55 3658 -55 3855 0 3607 -3 3657
51 23 26 1392 3392 1400 3443 5 39 -31 112 -70 140 -25 19 -46 21 -177 24
-132 3 -152 1 -187 -17 -22 -11 -47 -30 -55 -43 -8 -13 -72 -161 -141 -330
-444 -1078 -758 -1638 -1132 -2014 -144 -146 -241 -222 -420 -327 -408 -242
-883 -362 -1565 -397 -252 -13 -2088 -13 -2199 0 -46 5 -100 15 -119 21 l-34
11 4 82 c3 64 105 482 493 2034 l488 1954 741 -5 c613 -3 760 -7 850 -20 346
-51 501 -148 550 -342 47 -189 21 -447 -91 -911 l-46 -192 24 -48 c41 -82 57
-89 232 -92 143 -2 154 -1 191 20 21 13 47 39 57 58 22 40 879 3464 879 3511
0 45 -36 103 -80 128 -33 19 -54 21 -174 21 -152 0 -186 -9 -228 -58 -14 -17
-31 -55 -38 -84 -36 -152 -127 -467 -167 -577 -181 -501 -405 -728 -816 -826
-222 -53 -288 -57 -1049 -62 l-706 -5 433 1729 c238 950 443 1755 455 1788 60
156 116 195 317 215 174 19 2255 7 2438 -13 292 -32 486 -75 646 -142 286
-119 456 -293 542 -552 109 -331 114 -764 17 -1550 -36 -289 -36 -295 -9 -343
38 -67 76 -80 233 -80 93 0 147 4 169 14 40 16 83 66 91 103 14 66 376 2898
376 2940 0 58 -30 107 -81 133 -38 20 -76 20 -3521 20 l-3483 0 -36 -21z"/>
</g>
</svg>
