<?xml version="1.0" standalone="no"?>
<!DOCTYPE svg PUBLIC "-//W3C//DTD SVG 20010904//EN"
 "http://www.w3.org/TR/2001/REC-SVG-20010904/DTD/svg10.dtd">
<svg version="1.0" xmlns="http://www.w3.org/2000/svg"
 width="877.000000pt" height="937.000000pt" viewBox="0 0 877.000000 937.000000"
 preserveAspectRatio="xMidYMid meet">
<metadata>
Created by potrace 1.16, written by Peter Selinger 2001-2019
</metadata>
<g transform="translate(0.000000,937.000000) scale(0.100000,-0.100000)"
fill="#000000" stroke="none">
<path d="M121 9349 c-53 -37 -70 -68 -97 -174 -29 -112 -26 -149 13 -195 45
-54 58 -57 328 -63 250 -6 389 -21 495 -53 76 -23 123 -74 149 -162 16 -52
111 -1019 427 -4317 453 -4743 405 -4318 494 -4363 42 -21 55 -23 180 -20 127
3 138 5 187 32 28 15 65 42 81 60 17 17 1084 1800 2372 3961 1288 2162 2352
3941 2364 3955 13 14 45 59 71 100 327 513 750 774 1311 808 183 11 198 23
240 187 13 49 24 104 24 121 0 38 -34 91 -80 122 -31 21 -42 23 -105 18 -472
-40 -1353 -42 -2110 -5 -221 11 -235 11 -271 -7 -53 -27 -72 -57 -99 -165 -29
-111 -30 -140 -9 -185 29 -61 63 -77 188 -86 262 -19 432 -102 505 -248 57
-115 48 -263 -25 -417 -20 -43 -47 -99 -58 -125 -12 -26 -885 -1496 -1941
-3267 -1654 -2775 -1920 -3216 -1923 -3188 -2 17 -151 1574 -332 3459 -240
2500 -327 3435 -320 3458 5 17 20 51 34 74 97 165 398 256 851 256 147 0 184
11 221 67 25 37 64 185 64 241 0 49 -33 99 -81 124 -34 17 -50 18 -275 8 -892
-37 -1808 -35 -2704 6 -131 6 -136 5 -169 -17z"/>
</g>
</svg>
