<?xml version="1.0" standalone="no"?>
<!DOCTYPE svg PUBLIC "-//W3C//DTD SVG 20010904//EN"
 "http://www.w3.org/TR/2001/REC-SVG-20010904/DTD/svg10.dtd">
<svg version="1.0" xmlns="http://www.w3.org/2000/svg"
 width="585.000000pt" height="860.000000pt" viewBox="0 0 585.000000 860.000000"
 preserveAspectRatio="xMidYMid meet">
<metadata>
Created by potrace 1.16, written by Peter Selinger 2001-2019
</metadata>
<g transform="translate(0.000000,860.000000) scale(0.100000,-0.100000)"
fill="#000000" stroke="none">
<path d="M1237 8590 c-273 -49 -500 -211 -681 -485 -191 -289 -327 -658 -512
-1380 l-48 -190 20 -39 c34 -70 58 -81 198 -84 136 -4 182 7 211 51 9 14 48
146 86 294 205 789 351 1144 559 1354 117 118 171 144 300 144 79 0 103 -4
142 -23 83 -41 139 -126 169 -257 22 -95 17 -390 -9 -553 -33 -203 -38 -224
-578 -2382 -278 -1108 -507 -2040 -511 -2071 -21 -205 131 -373 350 -386 96
-6 177 12 271 59 84 43 194 154 234 238 23 48 145 524 472 1830 242 971 452
1792 466 1825 85 202 331 618 498 843 136 182 402 453 546 554 291 206 570
305 904 324 206 12 340 -31 454 -147 123 -123 179 -286 201 -575 30 -395 -87
-982 -386 -1929 -146 -465 -444 -1306 -474 -1340 -27 -30 -31 -46 -134 -453
-443 -1761 -746 -2644 -1083 -3157 -78 -119 -207 -252 -277 -286 -73 -35 -208
-33 -320 5 -77 26 -175 80 -175 96 0 4 17 11 38 14 20 4 75 26 122 49 111 54
238 177 292 282 129 252 111 475 -52 629 -158 149 -392 167 -630 50 -151 -75
-277 -215 -331 -370 -73 -207 -65 -438 21 -623 221 -472 910 -644 1487 -370
274 130 557 399 778 739 288 442 529 1015 770 1833 130 438 385 1413 385 1469
0 14 40 135 89 269 398 1092 652 1959 717 2444 25 191 23 492 -5 649 -40 224
-125 431 -241 584 -230 306 -644 482 -1136 482 -677 0 -1296 -300 -1783 -865
-47 -55 -96 -113 -107 -129 l-21 -30 -12 67 c-57 326 -230 605 -479 771 -176
116 -371 175 -602 181 -80 2 -167 0 -193 -5z"/>
</g>
</svg>
