<?xml version="1.0" standalone="no"?>
<!DOCTYPE svg PUBLIC "-//W3C//DTD SVG 20010904//EN"
 "http://www.w3.org/TR/2001/REC-SVG-20010904/DTD/svg10.dtd">
<svg version="1.0" xmlns="http://www.w3.org/2000/svg"
 width="1181.000000pt" height="967.000000pt" viewBox="0 0 1181.000000 967.000000"
 preserveAspectRatio="xMidYMid meet">
<metadata>
Created by potrace 1.16, written by Peter Selinger 2001-2019
</metadata>
<g transform="translate(0.000000,967.000000) scale(0.100000,-0.100000)"
fill="#000000" stroke="none">
<path d="M5235 9663 c-883 -58 -1856 -473 -2690 -1147 -1180 -954 -2054 -2347
-2393 -3816 -114 -491 -159 -915 -149 -1380 8 -356 45 -645 123 -953 235 -937
776 -1654 1542 -2045 393 -200 800 -303 1272 -319 283 -9 499 19 976 127 355
80 531 117 689 143 130 21 134 22 2600 27 1845 4 2475 8 2490 17 11 6 30 22
42 35 13 14 302 707 675 1619 700 1713 678 1653 632 1716 -46 61 -77 73 -196
73 -114 0 -158 -11 -191 -47 -9 -11 -63 -130 -118 -264 -381 -924 -635 -1421
-914 -1794 -160 -214 -277 -327 -469 -456 -345 -232 -756 -367 -1296 -425
-130 -14 -305 -18 -1075 -21 -1090 -5 -1145 -2 -1159 69 -3 16 -1 64 5 106 6
42 223 928 483 1967 l472 1890 815 0 c832 0 924 -4 1104 -41 255 -53 374 -136
427 -298 21 -64 23 -88 22 -256 -1 -205 -15 -303 -95 -630 -44 -181 -44 -211
-2 -260 43 -51 71 -60 190 -60 119 0 160 13 196 61 12 17 161 596 433 1683
455 1822 430 1699 367 1758 -46 43 -67 48 -183 48 -181 0 -194 -13 -256 -251
-130 -503 -249 -767 -434 -963 -166 -176 -408 -274 -780 -317 -70 -8 -370 -13
-898 -16 -766 -4 -794 -4 -788 14 3 10 190 758 416 1663 226 905 420 1674 432
1710 11 36 36 96 56 134 41 79 76 106 172 133 61 17 128 18 1030 18 715 0 999
-3 1095 -13 475 -47 746 -145 945 -342 66 -66 94 -102 122 -160 149 -307 165
-752 58 -1627 -17 -134 -30 -263 -30 -286 0 -54 32 -105 80 -129 46 -24 236
-26 279 -3 38 19 78 68 85 102 20 94 357 2755 353 2785 -6 48 -38 91 -81 112
-31 15 -231 16 -2313 16 -2413 0 -2366 -1 -2613 45 -47 9 -246 56 -443 106
-376 94 -515 122 -686 139 -95 9 -308 11 -426 3z m351 -344 c323 -32 574 -154
690 -336 167 -260 132 -839 -117 -1928 -75 -327 -1047 -4209 -1129 -4507 -215
-787 -420 -1317 -628 -1629 -221 -330 -574 -519 -1061 -569 -719 -72 -1284
241 -1670 926 -187 334 -332 813 -395 1314 -41 320 -46 845 -11 1200 84 864
315 1746 660 2515 495 1106 1284 2072 2121 2596 379 237 796 389 1159 422 91
8 278 6 381 -4z"/>
</g>
</svg>
