<?xml version="1.0" standalone="no"?>
<!DOCTYPE svg PUBLIC "-//W3C//DTD SVG 20010904//EN"
 "http://www.w3.org/TR/2001/REC-SVG-20010904/DTD/svg10.dtd">
<svg version="1.0" xmlns="http://www.w3.org/2000/svg"
 width="637.000000pt" height="1384.000000pt" viewBox="0 0 637.000000 1384.000000"
 preserveAspectRatio="xMidYMid meet">
<metadata>
Created by potrace 1.16, written by Peter Selinger 2001-2019
</metadata>
<g transform="translate(0.000000,1384.000000) scale(0.100000,-0.100000)"
fill="#000000" stroke="none">
<path d="M5775 13829 c-588 -45 -1210 -241 -1665 -524 -463 -288 -801 -694
-939 -1128 -17 -54 -227 -881 -466 -1839 -256 -1021 -449 -1776 -469 -1827
-223 -577 -760 -1062 -1411 -1276 -196 -65 -420 -105 -581 -105 -96 0 -155
-19 -183 -59 -27 -37 -64 -196 -58 -244 5 -39 34 -79 72 -100 11 -6 83 -14
160 -18 166 -9 273 -29 415 -75 427 -137 724 -462 797 -867 19 -110 21 -313 4
-417 -7 -41 -204 -838 -437 -1771 -233 -933 -433 -1738 -444 -1788 -46 -207
-44 -433 5 -627 32 -125 123 -314 204 -421 350 -465 1072 -743 1925 -743 142
0 165 2 193 20 44 27 62 57 84 146 24 97 24 141 -1 182 -28 46 -67 58 -208 66
-657 35 -1131 368 -1234 866 -17 78 -19 121 -15 245 l5 150 441 1763 c243 969
448 1804 456 1855 8 51 15 156 15 235 0 465 -225 858 -650 1135 -104 67 -316
173 -427 212 -77 27 -104 45 -69 45 8 0 84 22 169 50 375 121 702 286 985 496
129 96 340 297 435 414 141 175 268 399 336 594 18 49 230 882 472 1850 475
1899 470 1881 584 2072 355 591 1064 991 1826 1030 178 10 199 24 235 162 28
106 29 137 6 181 -34 64 -63 71 -272 70 -102 -1 -234 -6 -295 -10z"/>
</g>
</svg>
