<?xml version="1.0" standalone="no"?>
<!DOCTYPE svg PUBLIC "-//W3C//DTD SVG 20010904//EN"
 "http://www.w3.org/TR/2001/REC-SVG-20010904/DTD/svg10.dtd">
<svg version="1.0" xmlns="http://www.w3.org/2000/svg"
 width="674.000000pt" height="899.000000pt" viewBox="0 0 674.000000 899.000000"
 preserveAspectRatio="xMidYMid meet">
<metadata>
Created by potrace 1.16, written by Peter Selinger 2001-2019
</metadata>
<g transform="translate(0.000000,899.000000) scale(0.100000,-0.100000)"
fill="#000000" stroke="none">
<path d="M4735 8976 c-40 -18 -2228 -2038 -2243 -2071 -7 -14 -12 -48 -12 -74
0 -56 20 -87 126 -198 85 -88 129 -106 196 -79 30 11 316 251 937 786 492 424
898 770 902 770 3 0 234 -343 512 -763 381 -574 514 -767 539 -782 20 -11 51
-19 80 -19 50 0 83 19 257 147 64 48 97 109 86 165 -5 29 -1105 1934 -1188
2059 -43 64 -125 89 -192 59z"/>
<path d="M1625 6244 c-263 -47 -518 -183 -736 -391 -358 -342 -673 -930 -855
-1598 -40 -148 -38 -178 16 -230 l31 -30 172 -3 c242 -4 239 -6 302 233 79
302 203 642 317 869 184 367 411 614 648 705 136 53 315 65 387 27 83 -43 114
-114 120 -282 6 -138 -6 -246 -47 -424 -38 -169 -74 -276 -277 -835 -502
-1379 -677 -2022 -713 -2614 -33 -555 108 -1004 402 -1276 235 -217 576 -349
998 -386 369 -32 683 22 985 170 226 111 386 232 608 460 129 133 138 140 146
118 125 -328 381 -577 707 -687 153 -52 234 -65 414 -64 198 0 279 17 435 94
180 89 328 227 468 440 195 296 339 673 517 1360 68 262 69 279 10 335 l-31
30 -172 3 c-158 2 -175 1 -205 -18 -18 -11 -39 -35 -47 -52 -8 -18 -46 -155
-85 -305 -127 -494 -219 -770 -335 -1008 -83 -169 -132 -243 -226 -337 -106
-108 -161 -133 -289 -133 -86 1 -100 4 -148 29 -121 67 -172 207 -172 471 0
155 19 321 62 525 16 80 259 1062 539 2182 380 1522 509 2052 509 2095 0 114
-44 218 -119 286 -183 165 -504 134 -707 -68 -133 -133 -88 23 -663 -2280
-280 -1122 -516 -2079 -525 -2127 -17 -98 -42 -151 -161 -328 -317 -475 -681
-731 -1108 -781 -357 -41 -633 83 -764 346 -35 69 -54 132 -80 260 -28 141
-25 528 5 735 91 613 273 1238 707 2431 97 266 187 528 200 581 101 415 27
822 -200 1105 -231 289 -651 437 -1040 367z"/>
</g>
</svg>
