<?xml version="1.0" standalone="no"?>
<!DOCTYPE svg PUBLIC "-//W3C//DTD SVG 20010904//EN"
 "http://www.w3.org/TR/2001/REC-SVG-20010904/DTD/svg10.dtd">
<svg version="1.0" xmlns="http://www.w3.org/2000/svg"
 width="880.000000pt" height="967.000000pt" viewBox="0 0 880.000000 967.000000"
 preserveAspectRatio="xMidYMid meet">
<metadata>
Created by potrace 1.16, written by Peter Selinger 2001-2019
</metadata>
<g transform="translate(0.000000,967.000000) scale(0.100000,-0.100000)"
fill="#000000" stroke="none">
<path d="M5355 9664 c-136 -11 -344 -38 -465 -60 -1334 -246 -2659 -1126
-3597 -2388 -749 -1008 -1200 -2178 -1284 -3335 -15 -210 -7 -678 16 -861 141
-1152 689 -2061 1557 -2579 115 -68 368 -190 490 -235 687 -253 1465 -273
2220 -56 578 166 1135 496 1458 863 l64 74 42 -97 c22 -54 58 -129 79 -166 79
-142 244 -369 343 -471 63 -64 132 -70 193 -15 29 26 41 70 378 1417 192 765
359 1417 371 1450 79 209 173 249 615 262 221 6 240 10 284 57 28 30 71 178
71 247 0 57 -31 107 -81 132 -33 16 -52 17 -210 7 -96 -5 -381 -15 -634 -21
-478 -12 -1438 -2 -2115 22 -343 12 -348 12 -398 -46 -40 -45 -87 -229 -72
-284 10 -37 46 -79 87 -100 14 -7 102 -11 255 -11 530 0 926 -39 1008 -99 34
-25 53 -98 45 -183 -7 -88 -315 -1323 -355 -1422 -135 -341 -382 -637 -722
-864 -578 -386 -1268 -530 -1943 -407 -434 80 -818 273 -1119 564 -408 394
-631 880 -713 1551 -22 179 -24 686 -5 885 75 754 282 1634 564 2390 495 1331
1284 2310 2326 2888 360 200 751 341 1115 402 352 58 604 59 882 4 712 -143
1204 -747 1359 -1669 43 -254 51 -368 51 -695 -1 -313 -7 -406 -47 -698 -21
-148 -21 -159 -5 -192 30 -63 64 -75 212 -75 147 0 183 12 210 72 18 40 905
3594 905 3626 0 36 -28 81 -63 102 -42 26 -139 27 -184 3 -17 -10 -123 -121
-235 -248 -111 -126 -327 -370 -479 -541 l-276 -311 -49 80 c-160 263 -402
517 -654 685 -241 160 -556 278 -875 327 -106 16 -499 28 -620 19z"/>
</g>
</svg>
