<?xml version="1.0" standalone="no"?>
<!DOCTYPE svg PUBLIC "-//W3C//DTD SVG 20010904//EN"
 "http://www.w3.org/TR/2001/REC-SVG-20010904/DTD/svg10.dtd">
<svg version="1.0" xmlns="http://www.w3.org/2000/svg"
 width="386.000000pt" height="144.000000pt" viewBox="0 0 386.000000 144.000000"
 preserveAspectRatio="xMidYMid meet">
<metadata>
Created by potrace 1.16, written by Peter Selinger 2001-2019
</metadata>
<g transform="translate(0.000000,144.000000) scale(0.100000,-0.100000)"
fill="#000000" stroke="none">
<path d="M775 1433 c-106 -15 -264 -78 -362 -144 -249 -169 -406 -439 -407
-699 -1 -172 52 -307 164 -420 122 -121 277 -177 465 -167 386 21 737 321 826
704 91 394 -182 738 -581 731 -41 0 -88 -3 -105 -5z"/>
<path d="M3110 1425 c-166 -33 -313 -112 -443 -235 -105 -100 -164 -178 -216
-292 -52 -112 -71 -194 -71 -312 0 -180 53 -309 174 -423 181 -173 438 -209
715 -103 161 62 337 206 440 359 162 239 186 537 60 746 -125 208 -392 314
-659 260z"/>
</g>
</svg>
