<?xml version="1.0" standalone="no"?>
<!DOCTYPE svg PUBLIC "-//W3C//DTD SVG 20010904//EN"
 "http://www.w3.org/TR/2001/REC-SVG-20010904/DTD/svg10.dtd">
<svg version="1.0" xmlns="http://www.w3.org/2000/svg"
 width="377.000000pt" height="180.000000pt" viewBox="0 0 377.000000 180.000000"
 preserveAspectRatio="xMidYMid meet">
<metadata>
Created by potrace 1.16, written by Peter Selinger 2001-2019
</metadata>
<g transform="translate(0.000000,180.000000) scale(0.100000,-0.100000)"
fill="#000000" stroke="none">
<path d="M120 1778 c-53 -36 -69 -67 -92 -173 -19 -84 -22 -131 -22 -290 1
-181 2 -196 32 -310 37 -140 124 -325 200 -425 72 -94 234 -247 327 -309 660
-436 1663 -337 2433 241 185 139 399 369 525 563 111 173 237 480 237 579 0
86 -69 146 -168 146 -100 0 -139 -37 -183 -172 -61 -191 -166 -362 -314 -513
-524 -532 -1485 -745 -2160 -478 -432 170 -641 500 -571 901 21 122 20 153 -7
193 -30 46 -80 69 -148 69 -42 0 -65 -6 -89 -22z"/>
</g>
</svg>
