<?xml version="1.0" standalone="no"?>
<!DOCTYPE svg PUBLIC "-//W3C//DTD SVG 20010904//EN"
 "http://www.w3.org/TR/2001/REC-SVG-20010904/DTD/svg10.dtd">
<svg version="1.0" xmlns="http://www.w3.org/2000/svg"
 width="849.000000pt" height="848.000000pt" viewBox="0 0 849.000000 848.000000"
 preserveAspectRatio="xMidYMid meet">
<metadata>
Created by potrace 1.16, written by Peter Selinger 2001-2019
</metadata>
<g transform="translate(0.000000,848.000000) scale(0.100000,-0.100000)"
fill="#000000" stroke="none">
<path d="M5170 8471 c-65 -20 -131 -74 -161 -131 -7 -14 -227 -882 -489 -1930
l-476 -1905 -1920 -5 -1920 -5 -60 -30 c-181 -93 -184 -354 -5 -447 l53 -28
1859 0 c1238 0 1859 -3 1859 -10 0 -6 -207 -839 -461 -1853 -379 -1515 -460
-1851 -457 -1893 14 -179 206 -287 365 -205 46 23 103 83 121 126 6 17 221
869 477 1895 256 1026 470 1882 476 1903 l10 37 1923 0 1924 0 53 28 c179 93
176 354 -5 447 l-60 30 -1853 3 c-1019 1 -1853 4 -1853 7 0 3 207 834 461
1848 500 2001 477 1893 429 1991 -24 50 -83 100 -143 123 -36 13 -110 15 -147
4z"/>
</g>
</svg>
