<?xml version="1.0" standalone="no"?>
<!DOCTYPE svg PUBLIC "-//W3C//DTD SVG 20010904//EN"
 "http://www.w3.org/TR/2001/REC-SVG-20010904/DTD/svg10.dtd">
<svg version="1.0" xmlns="http://www.w3.org/2000/svg"
 width="880.000000pt" height="1214.000000pt" viewBox="0 0 880.000000 1214.000000"
 preserveAspectRatio="xMidYMid meet">
<metadata>
Created by potrace 1.16, written by Peter Selinger 2001-2019
</metadata>
<g transform="translate(0.000000,1214.000000) scale(0.100000,-0.100000)"
fill="#000000" stroke="none">
<path d="M4430 12118 c-51 -35 -68 -66 -90 -163 -28 -119 -38 -370 -20 -498
72 -532 461 -951 1021 -1101 162 -43 298 -60 489 -60 360 1 675 77 1025 249
570 280 1001 751 1175 1283 22 67 40 142 40 166 0 86 -69 146 -168 146 -101 0
-138 -36 -185 -181 -42 -128 -86 -216 -165 -335 -345 -514 -1123 -860 -1812
-804 -539 43 -928 288 -1047 658 -34 104 -42 270 -19 400 21 122 20 153 -7
193 -30 46 -80 69 -148 69 -42 0 -65 -6 -89 -22z"/>
<path d="M5355 9663 c-117 -8 -340 -36 -465 -59 -1334 -246 -2659 -1126 -3597
-2388 -749 -1008 -1200 -2178 -1284 -3335 -15 -210 -7 -678 16 -861 141 -1152
689 -2061 1557 -2579 115 -68 368 -190 490 -235 687 -253 1465 -273 2220 -56
578 166 1135 496 1458 863 l64 74 42 -97 c22 -54 58 -129 79 -166 79 -142 244
-369 343 -471 63 -64 132 -70 193 -15 29 26 41 70 378 1417 192 765 359 1417
371 1450 79 209 173 249 615 262 221 6 240 10 284 57 28 30 71 178 71 247 0
57 -31 107 -81 132 -33 16 -52 17 -210 7 -96 -5 -381 -15 -634 -21 -478 -12
-1438 -2 -2115 22 -343 12 -348 12 -398 -46 -40 -45 -87 -229 -72 -284 10 -37
46 -79 87 -100 14 -7 102 -11 255 -11 530 0 926 -39 1008 -99 34 -25 53 -98
45 -183 -7 -88 -315 -1323 -355 -1422 -135 -341 -382 -637 -722 -864 -578
-386 -1268 -530 -1943 -407 -434 80 -818 273 -1119 564 -408 394 -631 880
-713 1551 -22 179 -24 686 -5 885 90 906 365 1963 722 2770 520 1175 1320
2055 2330 2560 396 199 763 313 1190 372 176 24 576 24 755 -1 542 -74 935
-246 1231 -541 134 -133 202 -227 275 -379 89 -186 122 -355 121 -611 -1 -189
3 -206 57 -242 31 -21 45 -23 160 -23 138 0 179 12 207 60 15 27 524 2056 524
2091 0 33 -29 79 -63 99 -39 24 -138 27 -179 6 -24 -13 -236 -166 -759 -547
l-106 -77 -64 51 c-481 377 -1230 593 -2029 585 -102 -1 -207 -3 -235 -5z"/>
</g>
</svg>
