<?xml version="1.0" standalone="no"?>
<!DOCTYPE svg PUBLIC "-//W3C//DTD SVG 20010904//EN"
 "http://www.w3.org/TR/2001/REC-SVG-20010904/DTD/svg10.dtd">
<svg version="1.0" xmlns="http://www.w3.org/2000/svg"
 width="666.000000pt" height="845.000000pt" viewBox="0 0 666.000000 845.000000"
 preserveAspectRatio="xMidYMid meet">
<metadata>
Created by potrace 1.16, written by Peter Selinger 2001-2019
</metadata>
<g transform="translate(0.000000,845.000000) scale(0.100000,-0.100000)"
fill="#000000" stroke="none">
<path d="M2157 8440 c-433 -79 -739 -429 -977 -1115 -57 -166 -141 -460 -215
-750 l-49 -190 20 -40 c34 -69 58 -80 198 -83 137 -4 182 7 211 52 9 14 48
146 86 293 203 784 352 1144 559 1354 99 100 164 136 261 145 326 31 435 -271
328 -908 -26 -155 -1578 -6367 -1618 -6476 -34 -95 -78 -162 -124 -191 -81
-50 -290 -81 -548 -81 -125 0 -139 -2 -169 -22 -51 -35 -67 -65 -95 -170 -29
-111 -27 -152 12 -199 49 -57 65 -61 246 -49 89 5 344 15 567 21 420 12 1095
3 1612 -22 264 -13 276 -11 326 46 40 45 87 229 72 284 -10 37 -46 79 -87 100
-13 7 -87 11 -195 11 -292 0 -520 21 -631 56 -71 23 -81 45 -74 157 4 75 58
302 297 1257 160 641 295 1182 301 1204 l10 38 44 -76 c211 -370 517 -591 896
-647 120 -17 343 -6 499 26 642 132 1292 589 1808 1273 482 637 800 1432 898
2242 24 198 25 603 0 785 -118 896 -599 1504 -1309 1657 -152 32 -430 32 -575
0 -399 -89 -766 -313 -1154 -704 l-167 -168 -11 43 c-106 420 -393 715 -796
818 -99 26 -143 31 -264 34 -80 2 -167 0 -193 -5z m2968 -345 c228 -48 408
-239 506 -537 52 -160 71 -290 76 -530 10 -409 -38 -711 -247 -1548 -116 -466
-192 -736 -264 -945 -202 -590 -443 -1003 -781 -1340 -245 -245 -471 -378
-705 -415 -394 -62 -715 172 -893 650 -44 118 -91 310 -112 456 l-16 110 354
1417 355 1417 106 160 c317 475 674 824 1023 999 208 104 425 142 598 106z"/>
</g>
</svg>
