<?xml version="1.0" standalone="no"?>
<!DOCTYPE svg PUBLIC "-//W3C//DTD SVG 20010904//EN"
 "http://www.w3.org/TR/2001/REC-SVG-20010904/DTD/svg10.dtd">
<svg version="1.0" xmlns="http://www.w3.org/2000/svg"
 width="815.000000pt" height="610.000000pt" viewBox="0 0 815.000000 610.000000"
 preserveAspectRatio="xMidYMid meet">
<metadata>
Created by potrace 1.16, written by Peter Selinger 2001-2019
</metadata>
<g transform="translate(0.000000,610.000000) scale(0.100000,-0.100000)"
fill="#000000" stroke="none">
<path d="M2886 6089 c-666 -77 -1390 -560 -1947 -1299 -483 -640 -808 -1445
-915 -2262 -21 -165 -30 -559 -15 -718 77 -845 469 -1469 1075 -1710 577 -229
1255 -64 1916 466 215 173 463 432 650 679 29 39 55 71 59 73 4 1 19 -33 35
-75 111 -305 326 -623 545 -806 270 -227 552 -349 891 -388 126 -14 390 -6
535 16 641 99 1252 424 1740 926 147 151 223 242 330 394 112 160 112 187 -3
307 -90 94 -120 112 -175 105 -49 -7 -73 -29 -155 -147 -115 -166 -220 -290
-401 -471 -194 -193 -285 -269 -471 -394 -274 -183 -564 -311 -827 -364 -306
-62 -553 -49 -740 38 -272 128 -483 419 -583 806 -118 458 -96 1012 71 1775
l42 190 281 0 c1149 1 1895 113 2411 364 471 229 744 555 867 1035 31 119 33
136 32 296 0 151 -3 181 -27 267 -53 200 -151 364 -303 506 -238 224 -550 344
-935 359 -747 29 -1580 -338 -2226 -982 l-141 -142 -37 101 c-52 142 -163 354
-242 466 -84 117 -221 257 -333 340 -103 76 -294 171 -415 205 -176 51 -394
67 -589 44z m374 -358 c296 -92 492 -410 562 -911 18 -136 16 -510 -6 -685
-67 -558 -301 -1508 -501 -2040 -268 -712 -651 -1257 -1090 -1550 -190 -127
-357 -190 -534 -201 -380 -24 -640 253 -732 781 -20 111 -23 165 -23 370 0
407 48 692 259 1535 152 608 235 888 352 1185 327 829 867 1429 1378 1531 93
18 250 11 335 -15z m3765 -41 c458 -119 674 -551 529 -1059 -54 -187 -150
-346 -297 -488 -163 -157 -364 -270 -643 -362 -400 -132 -887 -193 -1651 -208
l-333 -6 16 54 c213 726 528 1251 975 1626 249 210 591 384 856 438 200 40
405 43 548 5z"/>
</g>
</svg>
