<?xml version="1.0" standalone="no"?>
<!DOCTYPE svg PUBLIC "-//W3C//DTD SVG 20010904//EN"
 "http://www.w3.org/TR/2001/REC-SVG-20010904/DTD/svg10.dtd">
<svg version="1.0" xmlns="http://www.w3.org/2000/svg"
 width="1308.000000pt" height="1260.000000pt" viewBox="0 0 1308.000000 1260.000000"
 preserveAspectRatio="xMidYMid meet">
<metadata>
Created by potrace 1.16, written by Peter Selinger 2001-2019
</metadata>
<g transform="translate(0.000000,1260.000000) scale(0.100000,-0.100000)"
fill="#000000" stroke="none">
<path d="M5990 12589 c-679 -58 -1236 -291 -1644 -688 -290 -283 -479 -606
-641 -1096 -110 -331 -166 -578 -366 -1622 l-73 -383 -614 0 c-669 0 -654 1
-704 -58 -37 -45 -123 -391 -108 -441 13 -45 35 -77 67 -98 25 -17 76 -18 633
-23 l605 -5 -282 -1465 c-155 -806 -312 -1618 -348 -1805 -186 -956 -785
-3715 -842 -3879 -115 -332 -286 -517 -476 -516 -106 1 -270 43 -329 85 -19
12 -17 14 26 34 67 29 188 115 238 169 102 109 165 227 204 381 68 266 -20
499 -233 614 -275 148 -692 38 -913 -242 -237 -298 -250 -776 -31 -1095 146
-212 411 -372 714 -431 116 -23 307 -30 408 -16 96 14 259 66 347 110 123 62
273 173 399 294 627 607 993 1570 1437 3787 57 282 456 2350 758 3923 l11 57
1574 0 c1495 0 1574 -1 1569 -17 -3 -10 -163 -839 -356 -1843 -193 -1004 -383
-1985 -421 -2180 -300 -1515 -528 -2421 -699 -2775 -59 -122 -179 -283 -318
-427 -227 -235 -454 -374 -677 -415 -166 -30 -472 6 -652 77 l-81 32 87 58
c176 118 282 271 337 489 55 216 10 409 -126 534 -146 136 -351 179 -573 123
-275 -70 -488 -263 -579 -526 -89 -256 -67 -525 62 -741 82 -138 256 -291 429
-379 216 -108 512 -176 812 -187 346 -13 641 57 989 233 384 194 769 520 1044
884 355 471 643 1260 930 2550 87 393 184 885 562 2852 l319 1658 1363 0
c1294 0 1363 -1 1358 -17 -16 -54 -957 -3831 -970 -3896 -77 -374 -7 -763 191
-1059 102 -154 289 -311 465 -393 172 -79 326 -114 533 -122 115 -4 157 -2
235 15 206 43 366 129 524 281 165 160 268 310 397 576 144 298 259 636 384
1123 41 160 39 185 -16 238 l-30 29 -222 3 c-207 2 -224 1 -254 -17 -18 -11
-39 -33 -47 -49 -8 -16 -38 -120 -66 -231 -191 -764 -362 -1173 -564 -1358
-85 -78 -134 -98 -236 -98 -104 0 -164 25 -210 88 -87 118 -106 393 -51 722
12 66 276 1142 588 2390 l567 2271 -20 39 c-10 22 -34 50 -53 62 l-34 23
-1853 0 c-1519 0 -1854 2 -1854 13 0 14 149 797 221 1157 194 982 369 1481
598 1711 211 211 503 331 941 386 171 21 831 25 1010 5 280 -31 494 -74 635
-127 79 -29 215 -96 215 -104 0 -3 -33 -23 -73 -43 -214 -110 -370 -332 -416
-592 -16 -88 -13 -153 9 -241 56 -221 233 -356 486 -372 165 -10 334 38 484
138 235 157 355 392 367 716 5 123 3 156 -16 237 -39 166 -116 300 -247 427
-262 253 -710 410 -1349 471 -213 20 -862 17 -1085 -6 -484 -48 -845 -146
-1190 -322 -548 -279 -944 -732 -1195 -1364 -141 -356 -208 -636 -435 -1817
l-53 -273 -1572 0 c-1493 0 -1573 1 -1569 18 2 9 54 276 114 592 215 1118 286
1431 407 1805 89 272 170 432 262 517 294 269 778 395 1336 348 139 -12 267
-33 378 -61 94 -24 187 -58 187 -68 0 -4 -31 -29 -69 -55 -158 -108 -264 -266
-317 -475 -68 -266 20 -499 233 -614 275 -148 692 -38 913 242 137 172 211
441 181 654 -25 176 -96 322 -219 449 -160 165 -390 284 -703 363 -286 73
-728 103 -1069 74z"/>
</g>
</svg>
