<?xml version="1.0" standalone="no"?>
<!DOCTYPE svg PUBLIC "-//W3C//DTD SVG 20010904//EN"
 "http://www.w3.org/TR/2001/REC-SVG-20010904/DTD/svg10.dtd">
<svg version="1.0" xmlns="http://www.w3.org/2000/svg"
 width="379.000000pt" height="992.000000pt" viewBox="0 0 379.000000 992.000000"
 preserveAspectRatio="xMidYMid meet">
<metadata>
Created by potrace 1.16, written by Peter Selinger 2001-2019
</metadata>
<g transform="translate(0.000000,992.000000) scale(0.100000,-0.100000)"
fill="#000000" stroke="none">
<path d="M2920 9901 c-194 -43 -385 -148 -534 -295 -122 -120 -235 -311 -278
-471 -28 -106 -31 -290 -5 -385 50 -186 170 -334 337 -415 153 -73 307 -92
480 -59 383 72 704 358 825 734 36 111 46 299 21 402 -55 235 -213 402 -451
478 -100 32 -279 37 -395 11z"/>
<path d="M2195 7178 c-11 -6 -30 -20 -42 -31 -31 -27 -2128 -6316 -2143 -6427
-36 -255 94 -512 318 -628 116 -60 200 -83 327 -89 439 -21 886 289 1014 702
24 75 1061 6289 1061 6352 0 50 -32 101 -75 119 -43 18 -428 20 -460 2z"/>
</g>
</svg>
