<?xml version="1.0" standalone="no"?>
<!DOCTYPE svg PUBLIC "-//W3C//DTD SVG 20010904//EN"
 "http://www.w3.org/TR/2001/REC-SVG-20010904/DTD/svg10.dtd">
<svg version="1.0" xmlns="http://www.w3.org/2000/svg"
 width="573.000000pt" height="627.000000pt" viewBox="0 0 573.000000 627.000000"
 preserveAspectRatio="xMidYMid meet">
<metadata>
Created by potrace 1.16, written by Peter Selinger 2001-2019
</metadata>
<g transform="translate(0.000000,627.000000) scale(0.100000,-0.100000)"
fill="#000000" stroke="none">
<path d="M4971 6250 c-312 -82 -563 -364 -588 -660 -12 -137 40 -258 170 -398
49 -52 106 -118 126 -146 197 -268 293 -612 278 -1005 -7 -189 -30 -324 -103
-615 -474 -1878 -1041 -2822 -1798 -2993 -112 -25 -358 -23 -461 5 -299 81
-493 288 -575 615 -43 172 -54 296 -47 539 15 575 178 1186 692 2599 229 628
254 732 242 1008 -18 423 -231 773 -572 942 -466 229 -998 127 -1432 -276
-363 -337 -684 -931 -869 -1610 -40 -148 -38 -178 16 -230 l31 -30 172 -3
c242 -4 239 -6 302 233 79 301 203 642 317 868 184 367 412 615 648 706 136
53 315 65 387 27 84 -44 114 -114 120 -286 6 -145 -11 -280 -57 -465 -41 -163
-66 -235 -267 -790 -424 -1165 -594 -1736 -658 -2210 -23 -166 -31 -483 -16
-626 34 -323 132 -604 287 -819 73 -102 226 -251 328 -320 214 -144 473 -239
786 -287 163 -25 510 -25 633 0 866 175 1566 1055 2092 2632 124 372 269 906
390 1440 198 869 225 1389 91 1747 -44 117 -89 189 -166 268 -137 139 -313
188 -499 140z"/>
</g>
</svg>
