<?xml version="1.0" standalone="no"?>
<!DOCTYPE svg PUBLIC "-//W3C//DTD SVG 20010904//EN"
 "http://www.w3.org/TR/2001/REC-SVG-20010904/DTD/svg10.dtd">
<svg version="1.0" xmlns="http://www.w3.org/2000/svg"
 width="350.000000pt" height="642.000000pt" viewBox="0 0 350.000000 642.000000"
 preserveAspectRatio="xMidYMid meet">
<metadata>
Created by potrace 1.16, written by Peter Selinger 2001-2019
</metadata>
<g transform="translate(0.000000,642.000000) scale(0.100000,-0.100000)"
fill="#000000" stroke="none">
<path d="M3244 6401 c-17 -10 -62 -63 -99 -117 -365 -528 -802 -1042 -1306
-1539 -520 -512 -995 -901 -1599 -1307 -209 -141 -240 -171 -240 -228 0 -44
27 -80 174 -229 214 -217 354 -382 522 -617 452 -632 767 -1368 924 -2159 12
-60 29 -123 37 -138 22 -43 69 -67 133 -67 68 0 117 24 142 71 22 40 20 81
-18 389 -119 959 -433 1860 -916 2628 -32 51 -58 95 -58 97 0 2 78 72 172 157
561 498 1139 1127 1594 1733 339 451 770 1116 781 1204 6 47 -23 99 -68 123
-46 24 -134 24 -175 -1z"/>
</g>
</svg>
