<?xml version="1.0" standalone="no"?>
<!DOCTYPE svg PUBLIC "-//W3C//DTD SVG 20010904//EN"
 "http://www.w3.org/TR/2001/REC-SVG-20010904/DTD/svg10.dtd">
<svg version="1.0" xmlns="http://www.w3.org/2000/svg"
 width="893.000000pt" height="903.000000pt" viewBox="0 0 893.000000 903.000000"
 preserveAspectRatio="xMidYMid meet">
<metadata>
Created by potrace 1.16, written by Peter Selinger 2001-2019
</metadata>
<g transform="translate(0.000000,903.000000) scale(0.100000,-0.100000)"
fill="#000000" stroke="none">
<path d="M2271 9012 c-51 -25 -69 -57 -98 -168 -28 -110 -26 -157 6 -202 39
-55 69 -62 278 -62 350 0 650 -27 760 -68 63 -23 78 -61 69 -176 -8 -96 -1840
-7435 -1886 -7554 -58 -151 -128 -225 -246 -262 -139 -43 -449 -70 -802 -70
-211 0 -228 -4 -274 -59 -17 -19 -34 -65 -52 -136 -30 -122 -26 -162 21 -207
53 -49 56 -49 305 -38 128 5 505 15 838 21 625 12 1598 2 2302 -22 301 -11
319 -10 355 7 52 26 77 68 103 174 25 102 23 154 -9 198 -40 57 -65 62 -328
62 -548 0 -960 41 -1037 101 -14 11 -31 39 -37 62 -27 98 -19 133 434 1942
l433 1730 695 0 c518 0 720 -3 798 -13 319 -41 489 -135 542 -300 55 -175 31
-446 -82 -912 -44 -181 -44 -211 -2 -260 43 -51 71 -60 190 -60 119 0 160 13
196 61 12 17 161 596 433 1683 455 1822 430 1699 367 1758 -46 43 -67 48 -183
48 -184 0 -193 -10 -261 -271 -96 -370 -200 -643 -311 -816 -152 -235 -379
-370 -718 -427 -170 -29 -365 -36 -963 -36 -556 0 -588 1 -583 18 3 9 199 793
436 1742 237 949 440 1754 452 1790 11 36 36 96 56 134 41 79 76 106 172 133
61 17 131 18 1135 18 1093 0 1169 -2 1429 -40 289 -43 532 -139 695 -275 315
-264 383 -760 250 -1832 -16 -131 -29 -257 -29 -281 0 -54 32 -105 80 -129 46
-24 236 -26 279 -3 38 19 78 68 85 102 20 94 357 2755 353 2785 -6 48 -38 91
-81 112 -31 15 -306 16 -3283 16 -3072 0 -3250 -1 -3282 -18z"/>
</g>
</svg>
