<?xml version="1.0" standalone="no"?>
<!DOCTYPE svg PUBLIC "-//W3C//DTD SVG 20010904//EN"
 "http://www.w3.org/TR/2001/REC-SVG-20010904/DTD/svg10.dtd">
<svg version="1.0" xmlns="http://www.w3.org/2000/svg"
 width="861.000000pt" height="1086.000000pt" viewBox="0 0 861.000000 1086.000000"
 preserveAspectRatio="xMidYMid meet">
<metadata>
Created by potrace 1.16, written by Peter Selinger 2001-2019
</metadata>
<g transform="translate(0.000000,1086.000000) scale(0.100000,-0.100000)"
fill="#000000" stroke="none">
<path d="M7730 10854 c-218 -42 -378 -122 -524 -263 -196 -190 -306 -437 -306
-684 0 -175 57 -323 165 -431 69 -69 146 -113 255 -148 107 -33 326 -33 448 0
92 25 189 66 263 112 27 16 49 28 49 27 0 -13 -82 -201 -126 -290 -263 -523
-720 -993 -1248 -1284 -98 -54 -126 -88 -126 -154 0 -37 22 -76 87 -157 45
-55 85 -76 135 -69 68 9 347 182 568 353 141 109 459 423 568 561 303 384 504
780 612 1203 108 423 36 806 -194 1035 -128 127 -274 185 -476 190 -69 2 -136
1 -150 -1z"/>
<path d="M2369 9429 c-49 -29 -67 -64 -100 -193 -35 -135 -36 -187 -8 -233 40
-65 73 -73 297 -73 332 0 663 -25 784 -60 20 -6 47 -19 60 -29 21 -18 23 -26
22 -118 -1 -96 -24 -190 -971 -3973 -1061 -4240 -991 -3979 -1092 -4080 -103
-103 -295 -135 -866 -147 -356 -6 -373 -10 -413 -75 -11 -18 -34 -94 -53 -169
l-33 -136 25 -49 c13 -26 37 -57 52 -68 l28 -21 3222 -3 c2169 -2 3234 0 3257
7 20 6 48 23 63 39 37 38 1231 3394 1230 3458 0 58 -30 105 -83 132 -39 19
-59 22 -174 22 -142 0 -198 -16 -230 -64 -8 -13 -58 -145 -112 -292 -275 -766
-470 -1186 -728 -1569 -279 -415 -597 -697 -1026 -911 -287 -142 -600 -234
-980 -285 -55 -8 -353 -13 -855 -16 -757 -4 -914 0 -994 28 l-34 12 6 86 c4
70 190 827 981 3991 1076 4302 994 3997 1106 4110 64 65 117 92 221 114 196
40 412 55 894 63 358 5 404 8 436 24 52 26 67 56 105 207 37 147 36 181 -8
237 -42 54 -60 56 -371 45 -906 -32 -2250 -36 -3007 -10 -151 5 -351 12 -445
15 -162 6 -172 5 -206 -16z"/>
</g>
</svg>
