<?xml version="1.0" standalone="no"?>
<!DOCTYPE svg PUBLIC "-//W3C//DTD SVG 20010904//EN"
 "http://www.w3.org/TR/2001/REC-SVG-20010904/DTD/svg10.dtd">
<svg version="1.0" xmlns="http://www.w3.org/2000/svg"
 width="576.000000pt" height="669.000000pt" viewBox="0 0 576.000000 669.000000"
 preserveAspectRatio="xMidYMid meet">
<metadata>
Created by potrace 1.16, written by Peter Selinger 2001-2019
</metadata>
<g transform="translate(0.000000,669.000000) scale(0.100000,-0.100000)"
fill="#000000" stroke="none">
<path d="M1680 6672 c-19 -11 -43 -36 -54 -57 -19 -36 -19 -45 -8 -190 83
-1052 425 -2135 942 -2979 22 -38 40 -72 38 -76 -2 -4 -64 -63 -138 -130 -198
-180 -722 -709 -901 -910 -575 -646 -1071 -1325 -1474 -2020 -64 -110 -78
-142 -78 -176 0 -84 60 -134 161 -134 102 0 117 11 223 161 812 1163 1817
2150 3013 2964 287 195 288 201 74 424 -777 806 -1277 1766 -1502 2881 -19 94
-42 182 -51 196 -9 14 -30 34 -48 44 -43 27 -149 27 -197 2z"/>
<path d="M3800 6672 c-19 -11 -43 -36 -54 -57 -19 -36 -19 -45 -8 -190 83
-1052 425 -2135 942 -2979 22 -38 40 -72 38 -76 -2 -4 -64 -63 -138 -130 -198
-180 -722 -709 -901 -910 -575 -646 -1071 -1325 -1474 -2020 -64 -110 -78
-142 -78 -176 0 -84 60 -134 161 -134 102 0 117 11 223 161 812 1163 1817
2150 3013 2964 287 195 288 201 74 424 -777 806 -1277 1766 -1502 2881 -19 94
-42 182 -51 196 -9 14 -30 34 -48 44 -43 27 -149 27 -197 2z"/>
</g>
</svg>
