<?xml version="1.0" standalone="no"?>
<!DOCTYPE svg PUBLIC "-//W3C//DTD SVG 20010904//EN"
 "http://www.w3.org/TR/2001/REC-SVG-20010904/DTD/svg10.dtd">
<svg version="1.0" xmlns="http://www.w3.org/2000/svg"
 width="255.000000pt" height="218.000000pt" viewBox="0 0 255.000000 218.000000"
 preserveAspectRatio="xMidYMid meet">
<metadata>
Created by potrace 1.16, written by Peter Selinger 2001-2019
</metadata>
<g transform="translate(0.000000,218.000000) scale(0.100000,-0.100000)"
fill="#000000" stroke="none">
<path d="M1360 2170 c-544 -75 -1033 -417 -1251 -874 -173 -365 -131 -733 114
-992 43 -46 110 -104 148 -130 384 -255 997 -224 1479 75 370 230 623 577 680
934 15 94 8 267 -15 352 -19 73 -73 188 -117 252 -124 181 -319 304 -578 364
-98 23 -356 33 -460 19z m385 -354 c152 -34 274 -118 321 -221 50 -110 54
-229 13 -429 -122 -603 -438 -848 -1063 -823 -482 18 -643 211 -551 661 105
520 337 765 780 825 101 14 415 5 500 -13z"/>
</g>
</svg>
