<?xml version="1.0" standalone="no"?>
<!DOCTYPE svg PUBLIC "-//W3C//DTD SVG 20010904//EN"
 "http://www.w3.org/TR/2001/REC-SVG-20010904/DTD/svg10.dtd">
<svg version="1.0" xmlns="http://www.w3.org/2000/svg"
 width="408.000000pt" height="899.000000pt" viewBox="0 0 408.000000 899.000000"
 preserveAspectRatio="xMidYMid meet">
<metadata>
Created by potrace 1.16, written by Peter Selinger 2001-2019
</metadata>
<g transform="translate(0.000000,899.000000) scale(0.100000,-0.100000)"
fill="#000000" stroke="none">
<path d="M2695 8976 c-42 -19 -2205 -2018 -2232 -2064 -49 -81 -25 -144 104
-279 78 -81 124 -102 190 -83 29 7 262 203 938 785 495 426 902 775 906 775 4
0 233 -343 510 -761 338 -512 513 -768 532 -780 45 -27 91 -32 132 -14 59 24
258 171 278 203 10 18 17 50 17 79 0 47 -27 96 -576 1039 -316 544 -587 1008
-602 1031 -46 73 -125 101 -197 69z"/>
<path d="M1625 6244 c-187 -34 -381 -117 -550 -236 -115 -81 -329 -295 -424
-423 -266 -363 -495 -859 -626 -1362 -31 -117 -27 -149 26 -199 l30 -29 172
-3 c242 -4 239 -6 302 233 155 594 385 1077 637 1341 155 162 309 248 488 275
150 22 249 -4 299 -77 70 -102 68 -374 -4 -669 -47 -189 -91 -313 -680 -1915
-341 -928 -594 -1629 -609 -1690 -59 -241 -61 -473 -7 -685 98 -383 356 -654
722 -759 361 -103 738 -31 1074 206 115 81 329 295 424 423 266 363 495 859
626 1362 31 117 27 149 -26 199 l-30 29 -172 3 c-242 4 -239 6 -302 -233 -155
-594 -385 -1077 -637 -1341 -155 -162 -309 -248 -488 -275 -150 -22 -249 4
-299 77 -70 102 -68 374 4 669 47 189 91 313 680 1915 341 928 594 1629 609
1690 38 157 49 267 43 425 -25 635 -474 1070 -1100 1064 -56 0 -138 -7 -182
-15z"/>
</g>
</svg>
