<?xml version="1.0" standalone="no"?>
<!DOCTYPE svg PUBLIC "-//W3C//DTD SVG 20010904//EN"
 "http://www.w3.org/TR/2001/REC-SVG-20010904/DTD/svg10.dtd">
<svg version="1.0" xmlns="http://www.w3.org/2000/svg"
 width="497.000000pt" height="895.000000pt" viewBox="0 0 497.000000 895.000000"
 preserveAspectRatio="xMidYMid meet">
<metadata>
Created by potrace 1.16, written by Peter Selinger 2001-2019
</metadata>
<g transform="translate(0.000000,895.000000) scale(0.100000,-0.100000)"
fill="#000000" stroke="none">
<path d="M3580 8944 c-600 -76 -1161 -513 -1611 -1256 -107 -176 -270 -505
-348 -702 -71 -181 -73 -203 -16 -264 l33 -37 170 -3 c184 -4 215 3 246 51 8
12 43 92 77 177 289 726 664 1251 1056 1481 171 101 323 144 503 144 108 0
118 -2 168 -29 58 -32 93 -73 124 -143 65 -147 64 -464 -3 -803 -20 -103 -901
-3645 -1238 -4975 -208 -823 -249 -952 -406 -1265 -300 -598 -677 -910 -1100
-910 -125 0 -406 55 -405 79 0 3 27 21 60 40 124 71 228 188 294 333 52 112
69 198 64 320 -3 94 -7 110 -40 181 -63 131 -160 208 -314 247 -190 49 -416
-3 -594 -137 -247 -186 -359 -555 -259 -857 107 -322 471 -551 961 -605 811
-89 1683 382 2220 1199 149 226 277 499 347 740 50 175 1348 5378 1367 5480
23 130 24 393 1 516 -95 517 -428 867 -932 979 -69 16 -352 28 -425 19z"/>
</g>
</svg>
