<?xml version="1.0" standalone="no"?>
<!DOCTYPE svg PUBLIC "-//W3C//DTD SVG 20010904//EN"
 "http://www.w3.org/TR/2001/REC-SVG-20010904/DTD/svg10.dtd">
<svg version="1.0" xmlns="http://www.w3.org/2000/svg"
 width="642.000000pt" height="602.000000pt" viewBox="0 0 642.000000 602.000000"
 preserveAspectRatio="xMidYMid meet">
<metadata>
Created by potrace 1.16, written by Peter Selinger 2001-2019
</metadata>
<g transform="translate(0.000000,602.000000) scale(0.100000,-0.100000)"
fill="#000000" stroke="none">
<path d="M1590 6014 c-309 -53 -541 -176 -775 -410 -171 -172 -319 -385 -464
-674 -131 -259 -260 -604 -331 -886 -23 -90 -23 -91 -4 -129 34 -69 59 -80
198 -83 197 -6 212 7 266 216 150 585 384 1083 635 1349 185 197 412 299 621
280 107 -10 165 -56 201 -159 24 -68 28 -245 9 -378 -37 -247 -77 -382 -273
-920 -469 -1284 -629 -1830 -688 -2350 -24 -207 -17 -570 14 -724 28 -138 87
-319 136 -416 224 -449 669 -703 1270 -727 576 -23 1051 211 1503 740 28 33
33 35 39 20 48 -135 98 -231 170 -328 149 -200 346 -330 602 -398 108 -28 128
-30 291 -31 163 0 181 2 265 28 385 118 654 454 874 1091 58 166 142 459 216
750 l49 190 -20 40 c-34 69 -58 80 -198 83 -136 4 -182 -7 -211 -51 -9 -14
-48 -146 -86 -294 -205 -789 -351 -1144 -559 -1354 -117 -118 -171 -144 -300
-144 -79 0 -103 4 -142 23 -83 41 -139 126 -169 257 -20 88 -17 380 5 525 31
201 47 269 557 2310 481 1924 501 2008 497 2078 -22 346 -468 449 -748 173
-120 -119 -83 12 -629 -2177 -270 -1079 -499 -2010 -510 -2068 -18 -102 -22
-113 -97 -237 -219 -364 -504 -648 -775 -773 -174 -80 -310 -110 -504 -111
-118 0 -151 4 -210 22 -101 32 -187 87 -266 170 -108 114 -168 255 -211 493
-9 51 -13 159 -12 335 0 216 4 284 23 405 91 597 245 1119 681 2315 78 215
155 440 171 501 71 281 61 545 -30 793 -116 317 -348 523 -691 613 -72 19
-326 33 -390 22z"/>
</g>
</svg>
