<?xml version="1.0" standalone="no"?>
<!DOCTYPE svg PUBLIC "-//W3C//DTD SVG 20010904//EN"
 "http://www.w3.org/TR/2001/REC-SVG-20010904/DTD/svg10.dtd">
<svg version="1.0" xmlns="http://www.w3.org/2000/svg"
 width="1073.000000pt" height="945.000000pt" viewBox="0 0 1073.000000 945.000000"
 preserveAspectRatio="xMidYMid meet">
<metadata>
Created by potrace 1.16, written by Peter Selinger 2001-2019
</metadata>
<g transform="translate(0.000000,945.000000) scale(0.100000,-0.100000)"
fill="#000000" stroke="none">
<path d="M2534 9426 c-48 -30 -64 -62 -99 -203 -41 -168 -29 -230 54 -273 36
-18 59 -20 218 -20 326 0 603 -28 721 -72 67 -25 127 -71 168 -128 24 -34 202
-518 732 -2000 385 -1075 705 -1967 711 -1982 9 -25 -53 -98 -1376 -1630 -762
-881 -1399 -1617 -1416 -1635 -350 -351 -436 -427 -632 -558 -342 -228 -723
-357 -1170 -395 -66 -5 -155 -10 -199 -10 -90 0 -141 -21 -171 -72 -23 -40
-74 -241 -75 -293 0 -55 29 -106 78 -133 40 -22 43 -22 204 -13 89 6 373 16
630 23 488 13 1290 3 1853 -23 246 -12 251 -11 292 9 57 29 75 66 114 223 l33
136 -25 49 c-35 71 -61 85 -171 95 -172 16 -276 54 -365 133 -76 69 -106 133
-111 239 -6 129 19 189 167 399 31 44 2524 2928 2528 2924 5 -5 1196 -3332
1201 -3354 11 -52 -151 -177 -318 -245 -140 -57 -336 -97 -478 -97 -62 0 -121
-26 -147 -66 -9 -15 -32 -87 -51 -162 -38 -150 -36 -184 12 -241 41 -49 65
-52 319 -41 127 5 526 15 887 22 679 12 1393 4 1947 -23 233 -12 235 -12 276
10 54 29 72 62 106 195 46 179 35 242 -50 286 -36 18 -59 20 -218 20 -306 0
-556 23 -687 61 -101 30 -155 69 -215 156 -15 22 -1618 4472 -1644 4564 -1 3
509 597 1133 1320 1329 1539 1448 1665 1765 1881 208 142 372 224 594 297 229
76 461 116 735 128 165 6 208 19 241 69 9 15 32 87 51 162 38 150 36 184 -12
241 -40 47 -70 52 -249 41 -88 -5 -370 -15 -627 -22 -487 -12 -1283 -3 -1853
23 -247 12 -249 12 -290 -10 -54 -29 -72 -62 -106 -195 -35 -135 -36 -187 -8
-233 30 -49 79 -69 184 -76 162 -11 280 -62 369 -158 66 -71 91 -135 90 -234
0 -87 -23 -155 -77 -236 -23 -34 -53 -81 -67 -104 -25 -41 -2049 -2389 -2055
-2383 -7 8 -989 2756 -993 2779 -3 21 7 36 49 78 150 147 476 261 747 261 65
0 120 27 147 72 24 42 75 242 75 298 0 58 -28 103 -79 130 -39 20 -48 20 -283
10 -789 -32 -1928 -36 -2548 -10 -574 24 -520 24 -566 -4z"/>
</g>
</svg>
