<?xml version="1.0" standalone="no"?>
<!DOCTYPE svg PUBLIC "-//W3C//DTD SVG 20010904//EN"
 "http://www.w3.org/TR/2001/REC-SVG-20010904/DTD/svg10.dtd">
<svg version="1.0" xmlns="http://www.w3.org/2000/svg"
 width="885.000000pt" height="1245.000000pt" viewBox="0 0 885.000000 1245.000000"
 preserveAspectRatio="xMidYMid meet">
<metadata>
Created by potrace 1.16, written by Peter Selinger 2001-2019
</metadata>
<g transform="translate(0.000000,1245.000000) scale(0.100000,-0.100000)"
fill="#000000" stroke="none">
<path d="M5455 12443 c-236 -16 -566 -72 -809 -139 -1546 -426 -3021 -1713
-3882 -3389 -402 -783 -650 -1600 -741 -2440 -24 -229 -25 -809 0 -1023 61
-535 184 -966 397 -1387 102 -203 183 -334 307 -498 794 -1054 2119 -1435
3553 -1022 68 20 124 34 126 32 2 -2 -12 -129 -30 -283 -106 -862 -111 -1223
-21 -1561 134 -503 509 -755 1085 -730 509 23 953 305 1347 857 286 401 569
1056 733 1696 39 151 37 189 -14 240 -60 60 -149 64 -215 9 -23 -20 -37 -52
-70 -152 -50 -158 -107 -276 -199 -413 -252 -377 -642 -646 -1036 -715 -176
-30 -399 -15 -528 36 -204 80 -344 278 -429 607 -29 114 -72 389 -84 537 l-7
80 179 89 c998 495 1880 1291 2560 2311 1001 1502 1394 3339 1027 4800 -333
1325 -1266 2229 -2499 2423 -231 37 -521 50 -750 35z m423 -572 c338 -63 640
-221 888 -466 389 -384 607 -913 686 -1665 18 -171 15 -658 -6 -880 -84 -911
-386 -2111 -748 -2969 -416 -987 -1004 -1786 -1706 -2319 -62 -47 -114 -83
-116 -81 -2 2 -11 58 -20 124 -105 752 -400 1129 -941 1204 -575 80 -1191
-294 -1470 -894 -90 -192 -126 -338 -134 -543 l-6 -153 -85 67 c-343 269 -595
678 -725 1176 -204 787 -149 1718 180 2993 194 757 394 1309 677 1875 391 784
871 1401 1443 1858 494 394 1027 633 1540 692 131 14 414 5 543 -19z m-1919
-7581 c187 -45 315 -146 394 -310 73 -151 101 -295 113 -574 l7 -164 -74 -38
c-366 -184 -798 -285 -1164 -272 -163 7 -192 16 -266 85 -115 108 -165 273
-139 461 53 390 366 744 730 827 87 20 286 12 399 -15z"/>
</g>
</svg>
