<?xml version="1.0" standalone="no"?>
<!DOCTYPE svg PUBLIC "-//W3C//DTD SVG 20010904//EN"
 "http://www.w3.org/TR/2001/REC-SVG-20010904/DTD/svg10.dtd">
<svg version="1.0" xmlns="http://www.w3.org/2000/svg"
 width="491.000000pt" height="863.000000pt" viewBox="0 0 491.000000 863.000000"
 preserveAspectRatio="xMidYMid meet">
<metadata>
Created by potrace 1.16, written by Peter Selinger 2001-2019
</metadata>
<g transform="translate(0.000000,863.000000) scale(0.100000,-0.100000)"
fill="#000000" stroke="none">
<path d="M3575 8612 c-43 -27 -2085 -1916 -2112 -1954 -34 -46 -32 -125 4
-170 50 -62 118 -130 145 -144 35 -18 91 -18 126 0 15 8 419 349 897 759 479
410 873 743 878 740 4 -2 228 -335 498 -740 348 -520 501 -740 523 -754 19
-11 49 -19 77 -19 48 0 70 12 206 111 59 44 90 106 79 161 -10 49 -1135 1977
-1168 2001 -38 28 -115 33 -153 9z"/>
<path d="M3080 6009 c-1106 -120 -2182 -906 -2705 -1974 -229 -469 -357 -1021
-372 -1606 -13 -525 72 -962 267 -1367 257 -533 675 -885 1202 -1012 209 -50
428 -62 693 -39 995 85 1930 587 2492 1336 79 106 92 143 69 198 -18 41 -137
170 -178 191 -71 37 -124 9 -219 -116 -544 -717 -1368 -1192 -2199 -1269 -371
-35 -579 23 -781 216 -349 334 -471 931 -358 1758 22 164 89 511 140 728 l33
137 240 0 c1513 1 2398 228 2879 740 172 182 278 384 349 660 31 118 33 135
32 295 0 151 -3 181 -27 267 -53 200 -151 364 -303 506 -183 173 -418 286
-704 338 -102 19 -426 27 -550 13z m475 -359 c375 -97 593 -404 572 -805 -21
-393 -233 -723 -601 -935 -418 -240 -1023 -355 -1984 -377 -287 -6 -294 -6
-289 13 4 10 29 95 57 189 148 491 350 891 603 1194 341 407 796 680 1232 740
109 15 316 6 410 -19z"/>
</g>
</svg>
