<?xml version="1.0" standalone="no"?>
<!DOCTYPE svg PUBLIC "-//W3C//DTD SVG 20010904//EN"
 "http://www.w3.org/TR/2001/REC-SVG-20010904/DTD/svg10.dtd">
<svg version="1.0" xmlns="http://www.w3.org/2000/svg"
 width="885.000000pt" height="1264.000000pt" viewBox="0 0 885.000000 1264.000000"
 preserveAspectRatio="xMidYMid meet">
<metadata>
Created by potrace 1.16, written by Peter Selinger 2001-2019
</metadata>
<g transform="translate(0.000000,1264.000000) scale(0.100000,-0.100000)"
fill="#000000" stroke="none">
<path d="M5090 12625 c-180 -30 -365 -97 -540 -196 -223 -127 -397 -268 -717
-582 -259 -255 -274 -277 -253 -358 9 -36 28 -60 98 -128 91 -87 130 -111 182
-111 47 0 82 23 188 121 375 349 750 520 1087 495 243 -18 386 -68 875 -306
168 -81 353 -166 412 -189 615 -237 1146 -124 1728 368 111 93 540 511 562
546 25 42 23 111 -5 156 -29 47 -166 175 -201 189 -70 26 -119 7 -216 -84
-432 -406 -818 -569 -1206 -512 -209 31 -332 76 -744 276 -415 202 -553 256
-765 301 -129 27 -364 34 -485 14z"/>
<path d="M5455 10063 c-236 -16 -566 -72 -809 -139 -1546 -426 -3021 -1713
-3882 -3389 -402 -783 -650 -1600 -741 -2440 -24 -229 -25 -809 0 -1023 61
-535 184 -966 397 -1387 102 -203 183 -334 307 -498 823 -1093 2218 -1460
3703 -975 322 105 689 269 1001 448 942 539 1816 1412 2421 2420 875 1458
1195 3159 852 4525 -333 1325 -1266 2229 -2499 2423 -231 37 -521 50 -750 35z
m293 -554 c219 -24 404 -78 597 -174 157 -78 285 -169 416 -293 175 -167 296
-334 415 -577 135 -277 220 -586 266 -970 20 -169 17 -777 -5 -975 -68 -609
-211 -1266 -434 -2000 -373 -1229 -904 -2193 -1597 -2899 -455 -463 -913 -766
-1406 -931 -741 -248 -1422 -106 -1900 397 -243 255 -406 555 -520 958 -212
752 -182 1652 96 2875 328 1439 777 2445 1458 3265 123 148 425 451 566 568
437 363 924 614 1390 717 206 46 462 61 658 39z"/>
</g>
</svg>
