<?xml version="1.0" standalone="no"?>
<!DOCTYPE svg PUBLIC "-//W3C//DTD SVG 20010904//EN"
 "http://www.w3.org/TR/2001/REC-SVG-20010904/DTD/svg10.dtd">
<svg version="1.0" xmlns="http://www.w3.org/2000/svg"
 width="609.000000pt" height="1148.000000pt" viewBox="0 0 609.000000 1148.000000"
 preserveAspectRatio="xMidYMid meet">
<metadata>
Created by potrace 1.16, written by Peter Selinger 2001-2019
</metadata>
<g transform="translate(0.000000,1148.000000) scale(0.100000,-0.100000)"
fill="#000000" stroke="none">
<path d="M3005 11473 c-174 -24 -367 -126 -509 -267 -167 -167 -258 -369 -260
-576 -1 -108 14 -179 55 -265 115 -243 390 -369 679 -311 333 68 608 318 711
646 20 62 24 96 23 200 0 109 -4 134 -26 192 -76 200 -225 331 -423 373 -65
14 -181 17 -250 8z"/>
<path d="M5340 11465 c-182 -38 -313 -108 -459 -249 -96 -94 -148 -166 -201
-280 -51 -110 -70 -193 -70 -310 0 -180 53 -309 174 -423 113 -108 256 -163
420 -163 270 0 567 169 735 419 162 239 186 537 60 746 -125 208 -394 314
-659 260z"/>
<path d="M1590 8594 c-560 -82 -1010 -524 -1355 -1330 -54 -125 -182 -506
-215 -640 -23 -90 -23 -91 -4 -129 34 -69 59 -80 198 -83 197 -6 212 7 266
216 18 70 57 204 87 297 263 814 607 1259 1026 1325 103 17 197 8 251 -24 149
-87 155 -415 15 -896 -17 -58 -101 -296 -186 -530 -394 -1080 -552 -1585 -652
-2085 -102 -511 -104 -889 -6 -1230 33 -114 129 -311 193 -395 192 -253 513
-423 918 -485 142 -22 407 -30 534 -16 326 37 648 177 915 400 33 27 61 48 63
46 8 -7 -125 -504 -175 -654 -171 -517 -406 -971 -684 -1322 -104 -132 -321
-347 -427 -422 -182 -130 -334 -206 -505 -252 -249 -67 -527 -54 -721 34 -161
73 -298 205 -372 357 -25 51 -43 98 -39 104 3 5 25 10 48 10 61 0 181 36 262
78 91 48 219 173 267 262 65 119 83 190 83 325 -1 147 -20 206 -97 290 -94
104 -202 147 -363 147 -257 -1 -500 -157 -607 -390 -16 -35 -41 -111 -56 -170
-24 -97 -26 -124 -26 -287 0 -162 3 -190 26 -277 33 -121 82 -235 141 -326 56
-87 178 -216 266 -283 138 -104 352 -194 556 -236 139 -28 467 -25 638 6 562
99 1071 373 1536 826 325 317 570 653 781 1075 81 161 185 420 233 580 19 63
339 1335 712 2825 649 2598 677 2713 672 2783 -21 346 -467 449 -747 173 -121
-119 -79 26 -662 -2306 l-522 -2090 -65 -108 c-209 -344 -498 -629 -762 -751
-176 -81 -309 -110 -509 -110 -166 -1 -230 12 -350 71 -105 51 -223 169 -273
273 -126 263 -134 710 -22 1262 116 579 266 1066 655 2133 156 427 194 557
211 727 38 375 -90 747 -330 959 -135 119 -342 213 -524 238 -74 10 -241 13
-297 5z"/>
</g>
</svg>
