<?xml version="1.0" standalone="no"?>
<!DOCTYPE svg PUBLIC "-//W3C//DTD SVG 20010904//EN"
 "http://www.w3.org/TR/2001/REC-SVG-20010904/DTD/svg10.dtd">
<svg version="1.0" xmlns="http://www.w3.org/2000/svg"
 width="814.000000pt" height="814.000000pt" viewBox="0 0 814.000000 814.000000"
 preserveAspectRatio="xMidYMid meet">
<metadata>
Created by potrace 1.16, written by Peter Selinger 2001-2019
</metadata>
<g transform="translate(0.000000,814.000000) scale(0.100000,-0.100000)"
fill="#000000" stroke="none">
<path d="M4975 8125 c-46 -25 -66 -46 -85 -90 -10 -22 -228 -885 -486 -1917
l-469 -1878 -1900 0 -1901 0 -44 -22 c-52 -27 -90 -90 -90 -148 0 -58 38 -121
90 -147 l44 -23 1859 0 c1483 0 1858 -3 1855 -12 -3 -7 -214 -848 -469 -1870
l-463 -1856 19 -48 c12 -27 36 -60 58 -78 34 -27 46 -31 101 -31 54 0 68 4
100 29 21 16 46 47 56 70 10 23 228 886 486 1919 l469 1877 1895 0 1896 0 44
23 c52 26 90 89 90 147 0 58 -38 121 -90 148 l-44 22 -1854 0 c-1479 0 -1853
3 -1850 13 3 6 214 847 469 1869 l463 1856 -19 48 c-28 67 -80 106 -147 111
-36 3 -63 -1 -83 -12z"/>
</g>
</svg>
