<?xml version="1.0" standalone="no"?>
<!DOCTYPE svg PUBLIC "-//W3C//DTD SVG 20010904//EN"
 "http://www.w3.org/TR/2001/REC-SVG-20010904/DTD/svg10.dtd">
<svg version="1.0" xmlns="http://www.w3.org/2000/svg"
 width="336.000000pt" height="882.000000pt" viewBox="0 0 336.000000 882.000000"
 preserveAspectRatio="xMidYMid meet">
<metadata>
Created by potrace 1.16, written by Peter Selinger 2001-2019
</metadata>
<g transform="translate(0.000000,882.000000) scale(0.100000,-0.100000)"
fill="#000000" stroke="none">
<path d="M1671 8809 c-129 -22 -283 -126 -370 -250 -71 -100 -95 -178 -89
-288 5 -94 25 -149 78 -213 49 -59 1546 -1291 1595 -1312 66 -29 105 -13 214
85 119 107 138 163 83 250 -16 24 -275 388 -576 809 -350 489 -569 785 -606
821 -88 85 -202 119 -329 98z"/>
<path d="M1535 6006 c-483 -93 -874 -451 -1191 -1086 -125 -251 -255 -602
-324 -876 -23 -90 -23 -91 -4 -129 34 -69 59 -80 198 -83 197 -6 212 7 266
216 18 70 57 204 87 297 242 750 545 1179 918 1302 103 33 289 39 342 11 102
-57 147 -216 123 -438 -15 -146 -52 -321 -100 -480 -23 -74 -295 -823 -605
-1665 -317 -862 -574 -1576 -589 -1635 -36 -145 -46 -224 -46 -371 -1 -521
280 -911 745 -1036 90 -24 117 -27 275 -27 159 0 184 3 272 27 447 123 807
471 1104 1067 125 251 255 602 324 876 23 90 23 91 4 129 -34 69 -59 80 -198
83 -197 6 -212 -7 -266 -216 -18 -70 -57 -203 -87 -297 -242 -750 -545 -1179
-918 -1302 -103 -33 -289 -39 -342 -11 -102 57 -147 216 -123 438 15 146 52
321 100 480 23 74 295 824 605 1665 317 862 574 1576 589 1635 36 145 46 224
46 371 1 521 -283 915 -745 1035 -123 32 -347 42 -460 20z"/>
</g>
</svg>
