<?xml version="1.0" standalone="no"?>
<!DOCTYPE svg PUBLIC "-//W3C//DTD SVG 20010904//EN"
 "http://www.w3.org/TR/2001/REC-SVG-20010904/DTD/svg10.dtd">
<svg version="1.0" xmlns="http://www.w3.org/2000/svg"
 width="1073.000000pt" height="626.000000pt" viewBox="0 0 1073.000000 626.000000"
 preserveAspectRatio="xMidYMid meet">
<metadata>
Created by potrace 1.16, written by Peter Selinger 2001-2019
</metadata>
<g transform="translate(0.000000,626.000000) scale(0.100000,-0.100000)"
fill="#000000" stroke="none">
<path d="M1320 6241 c-463 -102 -799 -496 -1071 -1254 -56 -155 -127 -393
-194 -647 -63 -241 -64 -259 -5 -315 l31 -30 222 -3 c208 -2 224 -1 255 18 18
11 39 35 47 52 8 18 46 156 85 306 181 702 337 1078 524 1266 71 70 138 105
220 113 131 12 232 -47 275 -161 59 -159 57 -426 -5 -741 -8 -44 -256 -1045
-551 -2225 -508 -2037 -534 -2149 -530 -2215 10 -141 69 -251 175 -322 159
-107 367 -110 570 -8 48 24 113 67 144 95 65 57 136 159 169 240 12 30 223
860 470 1845 l448 1789 72 141 c308 601 647 1023 1030 1280 108 73 299 166
418 205 189 61 487 95 616 71 131 -25 249 -106 327 -225 138 -213 160 -649 58
-1158 -16 -80 -237 -976 -491 -1990 -431 -1720 -462 -1849 -463 -1933 -2 -158
55 -273 172 -352 159 -107 367 -110 570 -8 149 75 260 197 317 349 14 37 226
869 471 1849 l445 1782 76 145 c229 436 433 729 683 981 362 364 730 539 1185
565 200 12 326 -28 435 -138 136 -137 194 -339 193 -673 0 -278 -38 -513 -158
-980 -143 -560 -323 -1121 -650 -2020 -141 -390 -170 -494 -187 -673 -50 -521
224 -1002 667 -1173 174 -68 253 -82 450 -83 143 -1 196 3 260 18 130 30 223
65 346 128 484 248 910 835 1169 1607 32 97 70 222 85 278 31 117 27 149 -26
199 l-30 29 -222 3 c-300 3 -287 12 -351 -233 -52 -195 -143 -463 -216 -635
-220 -516 -496 -816 -803 -875 -183 -35 -267 -11 -320 90 -29 56 -36 242 -13
386 34 213 78 358 271 889 314 863 520 1508 659 2065 89 356 116 551 116 833
0 307 -41 512 -144 728 -68 142 -120 218 -218 320 -222 231 -543 371 -953 415
-136 14 -429 6 -575 -16 -509 -78 -964 -310 -1362 -694 -73 -71 -173 -176
-223 -234 l-89 -106 -22 78 c-73 252 -184 445 -342 593 -194 182 -475 311
-797 364 -85 15 -164 19 -345 19 -265 0 -374 -13 -596 -70 -466 -119 -900
-389 -1255 -777 l-88 -98 -11 43 c-86 339 -331 638 -641 781 -179 83 -325 115
-539 122 -127 3 -171 1 -240 -15z"/>
</g>
</svg>
