<?xml version="1.0" standalone="no"?>
<!DOCTYPE svg PUBLIC "-//W3C//DTD SVG 20010904//EN"
 "http://www.w3.org/TR/2001/REC-SVG-20010904/DTD/svg10.dtd">
<svg version="1.0" xmlns="http://www.w3.org/2000/svg"
 width="684.000000pt" height="918.000000pt" viewBox="0 0 684.000000 918.000000"
 preserveAspectRatio="xMidYMid meet">
<metadata>
Created by potrace 1.16, written by Peter Selinger 2001-2019
</metadata>
<g transform="translate(0.000000,918.000000) scale(0.100000,-0.100000)"
fill="#000000" stroke="none">
<path d="M3433 9165 c-209 -58 -407 -241 -490 -450 -23 -60 -27 -85 -27 -175
-1 -101 1 -108 35 -180 20 -41 54 -94 75 -117 21 -23 380 -319 797 -657 538
-437 770 -619 798 -627 69 -21 101 -3 272 151 87 79 160 153 167 170 7 17 10
52 8 79 -5 45 -42 101 -564 842 -307 437 -581 818 -608 847 -33 35 -75 65
-125 90 -70 35 -81 37 -180 39 -69 2 -124 -2 -158 -12z"/>
<path d="M1730 6254 c-14 -2 -52 -9 -85 -15 -106 -19 -247 -69 -366 -131 -488
-250 -914 -839 -1173 -1621 -30 -89 -66 -208 -81 -264 -31 -117 -27 -149 26
-199 l30 -29 222 -3 c300 -3 287 -12 351 233 52 195 143 463 216 635 220 516
496 816 803 875 139 26 229 16 279 -32 56 -53 63 -81 62 -263 0 -269 -32 -386
-309 -1151 -314 -863 -461 -1315 -565 -1734 -99 -401 -137 -643 -147 -940 -13
-411 65 -739 240 -1008 202 -310 559 -508 1047 -582 149 -22 441 -31 570 -16
430 49 803 238 1161 588 l137 134 48 -93 c167 -322 452 -529 844 -614 127 -27
406 -26 511 4 559 154 911 699 1225 1895 62 237 62 256 4 312 l-31 30 -219 3
c-238 3 -262 -1 -296 -53 -9 -14 -44 -134 -79 -267 -84 -325 -127 -472 -192
-663 -145 -422 -293 -657 -473 -751 -26 -13 -58 -18 -120 -19 -72 0 -93 4
-135 25 -58 30 -107 96 -130 174 -39 134 -37 361 6 616 11 69 254 1060 540
2203 434 1737 519 2089 519 2146 0 78 -24 168 -63 234 -93 158 -322 233 -539
178 -200 -51 -358 -182 -444 -367 -25 -54 -151 -541 -538 -2090 -277 -1110
-510 -2050 -516 -2089 -14 -81 -40 -132 -151 -295 -280 -411 -582 -639 -953
-717 -114 -24 -348 -24 -436 1 -209 58 -367 207 -428 402 -48 155 -57 235 -56
489 0 260 13 373 75 680 109 534 272 1064 644 2086 97 266 187 529 200 583
147 606 -104 1176 -613 1391 -146 61 -268 86 -442 90 -85 2 -166 2 -180 -1z"/>
</g>
</svg>
