<?xml version="1.0" standalone="no"?>
<!DOCTYPE svg PUBLIC "-//W3C//DTD SVG 20010904//EN"
 "http://www.w3.org/TR/2001/REC-SVG-20010904/DTD/svg10.dtd">
<svg version="1.0" xmlns="http://www.w3.org/2000/svg"
 width="365.000000pt" height="535.000000pt" viewBox="0 0 365.000000 535.000000"
 preserveAspectRatio="xMidYMid meet">
<metadata>
Created by potrace 1.16, written by Peter Selinger 2001-2019
</metadata>
<g transform="translate(0.000000,535.000000) scale(0.100000,-0.100000)"
fill="#000000" stroke="none">
<path d="M2366 5340 c-297 -47 -608 -194 -906 -429 -134 -106 -400 -374 -510
-514 -503 -640 -822 -1415 -927 -2252 -26 -203 -23 -609 5 -790 97 -622 362
-1052 773 -1250 247 -119 532 -136 810 -49 460 143 957 604 1342 1246 332 554
566 1239 659 1932 26 194 32 646 10 806 -37 274 -111 532 -208 720 -151 297
-352 476 -621 556 -72 21 -113 27 -228 29 -77 2 -166 0 -199 -5z m260 -341
c274 -50 466 -357 546 -874 26 -168 31 -547 9 -735 -55 -488 -198 -1034 -391
-1485 -239 -560 -626 -1099 -976 -1359 -105 -78 -262 -159 -354 -183 -99 -26
-259 -23 -333 6 -178 70 -305 266 -366 566 -63 308 -45 675 55 1175 46 225
197 832 268 1072 191 648 437 1117 768 1463 268 280 527 399 774 354z"/>
</g>
</svg>
