<?xml version="1.0" standalone="no"?>
<!DOCTYPE svg PUBLIC "-//W3C//DTD SVG 20010904//EN"
 "http://www.w3.org/TR/2001/REC-SVG-20010904/DTD/svg10.dtd">
<svg version="1.0" xmlns="http://www.w3.org/2000/svg"
 width="849.000000pt" height="848.000000pt" viewBox="0 0 849.000000 848.000000"
 preserveAspectRatio="xMidYMid meet">
<metadata>
Created by potrace 1.16, written by Peter Selinger 2001-2019
</metadata>
<g transform="translate(0.000000,848.000000) scale(0.100000,-0.100000)"
fill="#000000" stroke="none">
<path d="M5161 8458 c-98 -51 -52 106 -582 -2014 -264 -1056 -484 -1936 -490
-1956 l-10 -38 -1938 0 c-2150 0 -2006 5 -2076 -65 -47 -48 -70 -127 -55 -187
17 -65 53 -113 102 -137 l44 -21 1911 0 1911 0 -474 -1892 c-335 -1339 -473
-1909 -474 -1948 0 -107 76 -187 186 -197 49 -4 67 0 103 19 98 51 51 -111
593 2057 l491 1961 1960 0 1961 0 44 21 c49 24 85 72 102 137 15 60 -8 139
-55 187 -70 69 68 65 -2022 65 -1254 0 -1883 3 -1883 10 0 6 212 856 470 1890
326 1302 470 1896 470 1932 0 105 -77 185 -186 195 -49 4 -67 0 -103 -19z"/>
</g>
</svg>
