<?xml version="1.0" standalone="no"?>
<!DOCTYPE svg PUBLIC "-//W3C//DTD SVG 20010904//EN"
 "http://www.w3.org/TR/2001/REC-SVG-20010904/DTD/svg10.dtd">
<svg version="1.0" xmlns="http://www.w3.org/2000/svg"
 width="883.000000pt" height="1291.000000pt" viewBox="0 0 883.000000 1291.000000"
 preserveAspectRatio="xMidYMid meet">
<metadata>
Created by potrace 1.16, written by Peter Selinger 2001-2019
</metadata>
<g transform="translate(0.000000,1291.000000) scale(0.100000,-0.100000)"
fill="#000000" stroke="none">
<path d="M6567 12896 c-54 -20 -111 -60 -140 -98 -14 -18 -1063 -1891 -2332
-4163 -1268 -2271 -2318 -4149 -2333 -4172 -199 -309 -322 -448 -509 -574
-248 -168 -522 -246 -934 -267 -160 -9 -184 -17 -218 -74 -23 -37 -101 -343
-101 -395 0 -54 30 -104 78 -131 40 -22 43 -23 199 -13 87 6 362 16 610 23
471 12 1197 3 1732 -23 234 -12 235 -12 276 10 58 31 76 69 124 268 46 190 47
223 3 275 -34 40 -79 58 -144 58 -216 0 -422 66 -534 171 -107 102 -132 263
-62 404 11 22 25 56 32 75 6 20 214 399 461 842 l450 807 1492 1 1491 0 6 -72
c4 -40 31 -500 62 -1022 l55 -948 -26 -39 c-90 -137 -424 -219 -889 -219 -159
0 -194 -10 -232 -67 -25 -38 -104 -344 -104 -405 0 -56 29 -102 79 -128 39
-20 48 -20 298 -10 239 9 1093 30 1262 30 l73 0 -93 -67 c-294 -209 -619 -507
-789 -723 -220 -277 -365 -568 -421 -843 -124 -611 193 -1169 768 -1351 338
-106 720 -58 1067 134 314 174 640 521 823 878 49 94 52 118 23 178 -24 48
-52 69 -118 90 -115 34 -161 11 -256 -127 -168 -244 -355 -414 -560 -509 -130
-61 -192 -75 -346 -74 -121 0 -143 3 -215 28 -395 136 -594 571 -475 1038 42
163 103 292 219 465 193 286 482 547 882 795 l134 84 310 -7 c171 -4 437 -13
591 -19 l282 -13 40 23 c22 12 49 39 59 59 11 20 39 114 63 208 47 191 47 221
3 274 -45 53 -72 59 -280 59 -365 0 -653 28 -743 73 -51 25 -90 88 -97 159 -2
24 -121 2041 -263 4483 -143 2442 -265 4454 -270 4471 -12 37 -54 79 -93 93
-43 17 -423 13 -470 -3z m-517 -4226 c66 -1125 120 -2064 120 -2087 l0 -43
-1295 0 c-712 0 -1295 3 -1295 6 0 18 2345 4201 2348 4187 1 -10 56 -938 122
-2063z"/>
</g>
</svg>
