<?xml version="1.0" standalone="no"?>
<!DOCTYPE svg PUBLIC "-//W3C//DTD SVG 20010904//EN"
 "http://www.w3.org/TR/2001/REC-SVG-20010904/DTD/svg10.dtd">
<svg version="1.0" xmlns="http://www.w3.org/2000/svg"
 width="706.000000pt" height="937.000000pt" viewBox="0 0 706.000000 937.000000"
 preserveAspectRatio="xMidYMid meet">
<metadata>
Created by potrace 1.16, written by Peter Selinger 2001-2019
</metadata>
<g transform="translate(0.000000,937.000000) scale(0.100000,-0.100000)"
fill="#000000" stroke="none">
<path d="M3494 9352 c-51 -33 -70 -67 -98 -177 -22 -88 -25 -113 -16 -145 11
-41 66 -97 103 -104 12 -3 193 -7 402 -10 640 -9 907 -44 962 -124 26 -39 37
-114 28 -184 -12 -95 -1615 -6488 -1660 -6623 -195 -585 -552 -1099 -973
-1402 -111 -80 -301 -175 -417 -208 -165 -48 -383 -44 -585 11 -367 98 -634
347 -740 691 -11 36 -20 66 -20 68 0 1 57 5 128 7 108 4 141 10 221 37 137 46
222 99 326 205 137 138 212 290 237 482 37 275 -117 508 -382 580 -84 23 -250
23 -344 0 -257 -62 -477 -248 -573 -487 -59 -146 -93 -342 -93 -538 0 -543
287 -1003 779 -1250 435 -219 1011 -239 1581 -56 894 287 1639 998 1930 1842
23 66 394 1532 846 3338 443 1771 814 3249 826 3285 88 271 182 313 728 329
l227 6 36 28 c38 29 61 85 88 214 14 69 8 100 -27 143 -50 59 -63 62 -272 50
-691 -37 -1768 -35 -3032 6 -172 5 -187 4 -216 -14z"/>
</g>
</svg>
