<?xml version="1.0" standalone="no"?>
<!DOCTYPE svg PUBLIC "-//W3C//DTD SVG 20010904//EN"
 "http://www.w3.org/TR/2001/REC-SVG-20010904/DTD/svg10.dtd">
<svg version="1.0" xmlns="http://www.w3.org/2000/svg"
 width="492.000000pt" height="845.000000pt" viewBox="0 0 492.000000 845.000000"
 preserveAspectRatio="xMidYMid meet">
<metadata>
Created by potrace 1.16, written by Peter Selinger 2001-2019
</metadata>
<g transform="translate(0.000000,845.000000) scale(0.100000,-0.100000)"
fill="#000000" stroke="none">
<path d="M3220 8440 c-945 -89 -1533 -617 -1775 -1594 -77 -309 -71 -549 21
-826 121 -364 407 -642 792 -770 48 -15 251 -65 452 -110 385 -85 487 -114
585 -163 196 -98 354 -263 429 -447 70 -173 75 -398 13 -620 -115 -409 -311
-697 -602 -885 -147 -96 -294 -156 -484 -199 l-114 -25 -20 26 c-40 50 -60 53
-412 53 -342 0 -347 -1 -396 -46 l-25 -24 -90 25 c-233 68 -395 159 -537 300
-73 74 -144 174 -177 249 -29 69 -27 76 23 76 61 0 181 36 262 78 90 47 218
173 268 262 20 36 48 107 63 158 23 81 26 107 22 190 -6 124 -32 193 -100 267
-94 104 -202 147 -363 147 -257 -1 -500 -157 -607 -390 -16 -35 -41 -111 -55
-170 -25 -96 -27 -126 -28 -287 0 -166 2 -188 27 -278 72 -256 198 -449 401
-613 189 -152 481 -286 727 -335 33 -6 63 -15 65 -20 3 -4 -33 -161 -80 -349
-96 -384 -97 -390 -30 -449 41 -36 49 -38 175 -46 156 -9 297 -51 407 -121
211 -134 260 -368 133 -629 -107 -220 -339 -366 -715 -449 -246 -54 -485 -75
-965 -82 -201 -3 -375 -7 -387 -10 -43 -9 -92 -63 -109 -121 -19 -66 -13 -111
23 -153 54 -65 39 -64 553 -57 501 7 704 17 984 48 524 58 892 167 1148 340
82 55 220 189 269 261 63 91 116 212 140 314 28 124 24 305 -11 403 -60 170
-207 317 -415 416 -70 33 -284 105 -314 105 -42 1 -41 10 28 285 l67 270 40 6
c21 4 88 15 147 24 288 45 568 140 807 276 340 193 626 503 819 887 94 187
195 478 242 697 81 379 21 775 -165 1080 -150 247 -352 428 -627 559 -163 79
-246 103 -684 201 -421 94 -491 116 -603 195 -178 125 -272 315 -272 547 0
287 149 650 354 861 157 162 354 260 623 308 125 22 434 25 543 5 337 -61 592
-245 696 -502 30 -73 30 -79 1 -79 -13 0 -53 -9 -88 -21 -207 -67 -351 -231
-396 -451 -14 -73 -15 -97 -6 -152 22 -132 92 -223 211 -279 57 -27 81 -32
162 -35 114 -5 193 13 294 66 209 109 326 351 326 672 0 329 -144 622 -405
825 -192 149 -400 237 -690 292 -96 18 -456 26 -595 13z"/>
</g>
</svg>
