<?xml version="1.0" standalone="no"?>
<!DOCTYPE svg PUBLIC "-//W3C//DTD SVG 20010904//EN"
 "http://www.w3.org/TR/2001/REC-SVG-20010904/DTD/svg10.dtd">
<svg version="1.0" xmlns="http://www.w3.org/2000/svg"
 width="566.000000pt" height="905.000000pt" viewBox="0 0 566.000000 905.000000"
 preserveAspectRatio="xMidYMid meet">
<metadata>
Created by potrace 1.16, written by Peter Selinger 2001-2019
</metadata>
<g transform="translate(0.000000,905.000000) scale(0.100000,-0.100000)"
fill="#000000" stroke="none">
<path d="M1919 9032 c-51 -26 -199 -152 -215 -184 -19 -36 -18 -102 2 -141 34
-65 1237 -1893 1267 -1925 39 -40 93 -57 145 -43 28 8 295 233 1137 961 605
523 1110 962 1122 976 12 13 28 42 34 64 16 51 -2 98 -74 200 -61 86 -115 118
-180 106 -23 -4 -364 -218 -950 -595 l-914 -587 -604 573 c-369 351 -620 582
-644 593 -50 24 -81 25 -126 2z"/>
<path d="M1343 6246 c-265 -51 -499 -207 -689 -458 -237 -316 -418 -754 -604
-1468 -57 -219 -57 -240 0 -295 l31 -30 222 -3 c306 -4 287 -18 362 278 230
913 418 1320 670 1453 32 17 58 21 130 22 81 0 95 -3 138 -28 149 -88 188
-357 116 -786 -21 -127 -233 -989 -784 -3191 -300 -1198 -317 -1269 -312
-1335 10 -142 70 -251 175 -322 159 -107 367 -110 570 -8 48 24 113 67 144 95
65 57 136 159 169 240 12 30 237 915 499 1965 l478 1910 87 170 c373 735 784
1161 1220 1266 233 56 523 23 726 -82 72 -38 160 -103 149 -111 -3 -1 -48 -24
-100 -50 -199 -99 -339 -263 -408 -478 -46 -144 -53 -246 -22 -365 56 -221
233 -356 486 -372 165 -10 334 38 484 138 174 117 275 262 338 489 24 86 27
111 27 270 0 189 -10 245 -65 382 -107 264 -371 498 -688 612 -84 30 -233 68
-342 88 -47 8 -153 13 -285 13 -178 -1 -228 -4 -323 -23 -297 -60 -573 -191
-827 -392 -98 -78 -261 -235 -340 -329 l-59 -69 -32 76 c-154 370 -448 614
-854 708 -133 31 -376 41 -487 20z"/>
</g>
</svg>
