<?xml version="1.0" standalone="no"?>
<!DOCTYPE svg PUBLIC "-//W3C//DTD SVG 20010904//EN"
 "http://www.w3.org/TR/2001/REC-SVG-20010904/DTD/svg10.dtd">
<svg version="1.0" xmlns="http://www.w3.org/2000/svg"
 width="530.000000pt" height="231.000000pt" viewBox="0 0 530.000000 231.000000"
 preserveAspectRatio="xMidYMid meet">
<metadata>
Created by potrace 1.16, written by Peter Selinger 2001-2019
</metadata>
<g transform="translate(0.000000,231.000000) scale(0.100000,-0.100000)"
fill="#000000" stroke="none">
<path d="M94 2296 c-36 -16 -69 -55 -83 -99 -8 -25 12 -268 88 -1058 105
-1112 98 -1064 164 -1113 l28 -21 1845 -3 c2131 -3 1889 -16 1967 110 25 40
301 503 613 1028 532 893 569 958 572 1007 5 66 -23 115 -80 144 -36 18 -55
20 -188 17 -132 -3 -152 -5 -177 -24 -15 -11 -81 -108 -146 -215 -404 -662
-588 -870 -876 -990 -105 -44 -276 -85 -405 -98 -147 -15 -2059 -15 -2194 0
-280 30 -456 125 -533 285 -62 131 -115 399 -154 783 -17 174 -31 208 -96 241
-33 17 -58 20 -176 20 -93 -1 -148 -5 -169 -14z"/>
</g>
</svg>
