<?xml version="1.0" standalone="no"?>
<!DOCTYPE svg PUBLIC "-//W3C//DTD SVG 20010904//EN"
 "http://www.w3.org/TR/2001/REC-SVG-20010904/DTD/svg10.dtd">
<svg version="1.0" xmlns="http://www.w3.org/2000/svg"
 width="862.000000pt" height="626.000000pt" viewBox="0 0 862.000000 626.000000"
 preserveAspectRatio="xMidYMid meet">
<metadata>
Created by potrace 1.16, written by Peter Selinger 2001-2019
</metadata>
<g transform="translate(0.000000,626.000000) scale(0.100000,-0.100000)"
fill="#000000" stroke="none">
<path d="M3040 6250 c-552 -68 -1160 -375 -1642 -828 -480 -451 -838 -979
-1081 -1593 -237 -598 -351 -1283 -307 -1845 90 -1165 749 -1942 1680 -1981
169 -7 276 5 435 47 521 138 1054 557 1540 1210 55 75 118 164 140 198 22 34
42 62 45 62 3 0 27 -67 54 -149 55 -171 174 -422 263 -556 277 -418 660 -682
1132 -782 115 -25 146 -27 356 -27 252 0 370 12 595 63 440 101 902 321 1271
607 211 163 436 388 596 597 113 148 132 196 100 254 -19 35 -238 264 -272
284 -16 11 -43 19 -58 19 -58 0 -91 -28 -189 -158 -437 -582 -1051 -1005
-1624 -1121 -381 -77 -682 -37 -909 119 -186 128 -346 353 -429 601 -80 240
-111 486 -103 823 7 306 54 654 140 1036 l24 105 444 6 c916 14 1459 75 1955
220 783 228 1247 672 1384 1321 85 404 -27 787 -312 1064 -213 208 -473 330
-838 396 -115 20 -494 17 -645 -6 -159 -24 -429 -93 -590 -150 -168 -61 -518
-234 -665 -330 -63 -41 -116 -73 -118 -72 -1 2 5 34 14 72 32 138 1 281 -81
371 -100 112 -277 159 -440 118 -233 -59 -390 -224 -454 -475 -12 -47 -24 -91
-26 -98 -3 -8 -30 18 -65 61 -122 152 -301 297 -473 383 -81 41 -241 96 -347
119 -90 19 -390 28 -500 15z m327 -515 c386 -63 662 -337 773 -770 59 -231 63
-191 -72 -723 -255 -1009 -293 -1200 -317 -1599 -9 -144 -12 -156 -52 -255
-217 -533 -577 -1089 -911 -1403 -350 -331 -705 -495 -1016 -471 -236 18 -413
154 -531 408 -157 335 -160 777 -11 1518 51 252 246 1050 326 1335 236 836
503 1326 904 1660 304 253 598 350 907 300z m3963 -15 c281 -69 490 -276 546
-540 23 -109 14 -303 -21 -430 -34 -127 -110 -277 -190 -377 -287 -359 -802
-540 -1715 -603 -165 -12 -1020 -26 -1020 -18 0 3 25 79 56 169 63 187 133
356 206 503 369 740 1003 1228 1708 1315 117 15 331 5 430 -19z"/>
</g>
</svg>
