<?xml version="1.0" standalone="no"?>
<!DOCTYPE svg PUBLIC "-//W3C//DTD SVG 20010904//EN"
 "http://www.w3.org/TR/2001/REC-SVG-20010904/DTD/svg10.dtd">
<svg version="1.0" xmlns="http://www.w3.org/2000/svg"
 width="512.000000pt" height="1384.000000pt" viewBox="0 0 512.000000 1384.000000"
 preserveAspectRatio="xMidYMid meet">
<metadata>
Created by potrace 1.16, written by Peter Selinger 2001-2019
</metadata>
<g transform="translate(0.000000,1384.000000) scale(0.100000,-0.100000)"
fill="#000000" stroke="none">
<path d="M3459 13817 c-45 -29 -73 -87 -65 -132 4 -18 32 -71 63 -117 703
-1030 983 -2414 838 -4143 -124 -1472 -596 -3383 -1202 -4864 -721 -1763
-1716 -3195 -2943 -4235 -120 -101 -150 -140 -150 -191 0 -44 31 -96 71 -117
46 -25 215 -26 262 -2 44 22 383 278 542 409 452 370 964 881 1345 1340 855
1031 1559 2289 2063 3685 403 1118 680 2320 781 3395 33 349 40 513 40 935 1
560 -23 879 -99 1325 -143 840 -419 1558 -836 2175 -168 249 -388 518 -446
545 -21 10 -63 15 -131 15 -86 0 -103 -3 -133 -23z"/>
</g>
</svg>
