<?xml version="1.0" standalone="no"?>
<!DOCTYPE svg PUBLIC "-//W3C//DTD SVG 20010904//EN"
 "http://www.w3.org/TR/2001/REC-SVG-20010904/DTD/svg10.dtd">
<svg version="1.0" xmlns="http://www.w3.org/2000/svg"
 width="387.000000pt" height="220.000000pt" viewBox="0 0 387.000000 220.000000"
 preserveAspectRatio="xMidYMid meet">
<metadata>
Created by potrace 1.16, written by Peter Selinger 2001-2019
</metadata>
<g transform="translate(0.000000,220.000000) scale(0.100000,-0.100000)"
fill="#000000" stroke="none">
<path d="M119 2172 c-94 -60 -134 -135 -110 -210 13 -44 1335 -1907 1372
-1934 35 -26 101 -34 141 -17 52 21 2289 1873 2316 1917 17 28 22 48 19 83 -4
53 -48 131 -89 162 -40 30 -116 34 -164 9 -21 -11 -466 -275 -989 -587 -522
-312 -953 -567 -957 -568 -4 -1 -309 254 -678 568 -369 314 -685 578 -703 588
-48 26 -105 22 -158 -11z"/>
</g>
</svg>
