<?xml version="1.0" standalone="no"?>
<!DOCTYPE svg PUBLIC "-//W3C//DTD SVG 20010904//EN"
 "http://www.w3.org/TR/2001/REC-SVG-20010904/DTD/svg10.dtd">
<svg version="1.0" xmlns="http://www.w3.org/2000/svg"
 width="1483.000000pt" height="1007.000000pt" viewBox="0 0 1483.000000 1007.000000"
 preserveAspectRatio="xMidYMid meet">
<metadata>
Created by potrace 1.16, written by Peter Selinger 2001-2019
</metadata>
<g transform="translate(0.000000,1007.000000) scale(0.100000,-0.100000)"
fill="#000000" stroke="none">
<path d="M4710 10064 c-93 -9 -297 -45 -394 -70 -429 -109 -823 -306 -1216
-610 -150 -116 -481 -445 -606 -604 -398 -503 -642 -1052 -741 -1665 -25 -156
-25 -615 0 -760 65 -367 192 -671 384 -920 89 -114 263 -282 377 -362 105 -75
307 -179 429 -222 48 -17 458 -137 910 -266 899 -258 933 -270 1086 -385 226
-170 371 -428 433 -770 29 -158 31 -489 4 -665 -94 -612 -380 -1173 -820
-1610 -204 -203 -401 -347 -621 -455 -365 -179 -679 -217 -1190 -144 -820 118
-1360 599 -1509 1344 -74 371 -56 838 50 1288 29 124 30 147 6 191 -33 61 -66
71 -242 71 -136 0 -159 -2 -187 -20 -18 -10 -39 -29 -47 -42 -18 -28 -816
-3215 -816 -3260 0 -45 34 -96 75 -114 49 -20 153 -18 192 3 18 10 195 209
408 461 l377 442 46 -62 c60 -83 228 -255 322 -331 418 -338 1038 -527 1729
-527 554 0 1107 194 1651 579 228 161 567 483 752 715 477 597 766 1272 859
2011 17 130 17 532 0 660 -63 491 -254 920 -542 1216 -187 192 -419 339 -672
428 -48 17 -451 135 -895 262 -845 242 -913 265 -1053 359 -148 100 -299 286
-373 459 -85 198 -111 337 -110 601 0 217 11 312 59 500 168 663 645 1271
1245 1588 379 201 744 254 1210 176 206 -35 413 -116 576 -224 98 -65 273
-241 337 -337 220 -332 318 -738 318 -1313 0 -284 -9 -413 -57 -757 -27 -191
-27 -191 -7 -225 10 -18 34 -43 53 -55 31 -21 44 -23 187 -23 168 0 207 9 237
55 9 13 198 755 422 1649 l406 1625 -18 38 c-30 60 -73 83 -159 83 -59 0 -78
-4 -106 -23 -19 -12 -198 -215 -398 -450 l-364 -428 -40 63 c-68 108 -160 219
-269 324 -277 266 -649 431 -1113 494 -84 11 -497 21 -575 14z"/>
<path d="M11780 10064 c-93 -9 -297 -45 -394 -70 -429 -109 -823 -306 -1216
-610 -150 -116 -481 -445 -606 -604 -398 -503 -642 -1052 -741 -1665 -25 -156
-25 -615 0 -760 65 -367 192 -671 384 -920 89 -114 263 -282 377 -362 105 -75
307 -179 429 -222 48 -17 458 -137 910 -266 899 -258 933 -270 1086 -385 226
-170 371 -428 433 -770 29 -158 31 -489 4 -665 -94 -612 -380 -1173 -820
-1610 -204 -203 -401 -347 -621 -455 -365 -179 -679 -217 -1190 -144 -820 118
-1360 599 -1509 1344 -74 371 -56 838 50 1288 29 124 30 147 6 191 -33 61 -66
71 -242 71 -136 0 -159 -2 -187 -20 -18 -10 -39 -29 -47 -42 -18 -28 -816
-3215 -816 -3260 0 -45 34 -96 75 -114 49 -20 153 -18 192 3 18 10 195 209
408 461 l377 442 46 -62 c60 -83 228 -255 322 -331 418 -338 1038 -527 1729
-527 554 0 1107 194 1651 579 228 161 567 483 752 715 477 597 766 1272 859
2011 17 130 17 532 0 660 -63 491 -254 920 -542 1216 -187 192 -419 339 -672
428 -48 17 -451 135 -895 262 -845 242 -913 265 -1053 359 -148 100 -299 286
-373 459 -85 198 -111 337 -110 601 0 217 11 312 59 500 168 663 645 1271
1245 1588 379 201 744 254 1210 176 206 -35 413 -116 576 -224 98 -65 273
-241 337 -337 220 -332 318 -738 318 -1313 0 -284 -9 -413 -57 -757 -27 -191
-27 -191 -7 -225 10 -18 34 -43 53 -55 31 -21 44 -23 187 -23 168 0 207 9 237
55 9 13 198 755 422 1649 l406 1625 -18 38 c-30 60 -73 83 -159 83 -59 0 -78
-4 -106 -23 -19 -12 -198 -215 -398 -450 l-364 -428 -40 63 c-68 108 -160 219
-269 324 -277 266 -649 431 -1113 494 -84 11 -497 21 -575 14z"/>
</g>
</svg>
