<?xml version="1.0" standalone="no"?>
<!DOCTYPE svg PUBLIC "-//W3C//DTD SVG 20010904//EN"
 "http://www.w3.org/TR/2001/REC-SVG-20010904/DTD/svg10.dtd">
<svg version="1.0" xmlns="http://www.w3.org/2000/svg"
 width="915.000000pt" height="310.000000pt" viewBox="0 0 915.000000 310.000000"
 preserveAspectRatio="xMidYMid meet">
<metadata>
Created by potrace 1.16, written by Peter Selinger 2001-2019
</metadata>
<g transform="translate(0.000000,310.000000) scale(0.100000,-0.100000)"
fill="#000000" stroke="none">
<path d="M795 3081 c-74 -34 -125 -111 -125 -188 1 -81 69 -170 147 -193 27
-8 1199 -10 4113 -8 l4075 3 47 32 c56 40 88 100 88 168 0 68 -32 128 -88 168
l-47 32 -4085 2 c-3960 3 -4086 2 -4125 -16z"/>
<path d="M145 403 c-42 -11 -103 -64 -124 -106 -45 -93 -17 -201 67 -260 l47
-32 4075 -3 c2914 -2 4086 0 4113 8 49 14 106 65 128 115 47 102 -5 224 -113
269 -34 14 -449 16 -4105 15 -2237 -1 -4077 -4 -4088 -6z"/>
</g>
</svg>
