<?xml version="1.0" standalone="no"?>
<!DOCTYPE svg PUBLIC "-//W3C//DTD SVG 20010904//EN"
 "http://www.w3.org/TR/2001/REC-SVG-20010904/DTD/svg10.dtd">
<svg version="1.0" xmlns="http://www.w3.org/2000/svg"
 width="930.000000pt" height="1071.000000pt" viewBox="0 0 930.000000 1071.000000"
 preserveAspectRatio="xMidYMid meet">
<metadata>
Created by potrace 1.16, written by Peter Selinger 2001-2019
</metadata>
<g transform="translate(0.000000,1071.000000) scale(0.100000,-0.100000)"
fill="#000000" stroke="none">
<path d="M9018 10695 c-15 -8 -275 -303 -578 -655 -303 -352 -554 -640 -556
-640 -3 0 -45 35 -94 79 -810 715 -1938 899 -3129 510 -675 -221 -1326 -602
-1923 -1126 -1086 -953 -1884 -2293 -2196 -3688 -222 -988 -185 -1903 109
-2695 99 -265 275 -593 432 -802 37 -50 66 -96 63 -102 -2 -6 -257 -303 -566
-661 -393 -456 -564 -661 -572 -686 -18 -61 5 -114 76 -171 64 -51 104 -64
163 -53 48 8 25 -17 655 716 l504 585 79 -69 c198 -172 386 -297 620 -412 309
-152 574 -232 935 -282 157 -21 601 -24 765 -5 1317 154 2621 947 3619 2200
1056 1327 1602 3058 1430 4542 -75 656 -315 1295 -655 1749 l-65 88 559 649
c308 357 568 663 578 679 25 40 25 111 -1 153 -11 18 -48 50 -82 72 -67 44
-120 52 -170 25z m-2996 -860 c465 -54 861 -241 1176 -554 93 -92 197 -217
257 -308 l27 -42 -23 -30 c-130 -162 -5834 -6769 -5840 -6764 -14 16 -69 177
-103 300 -78 284 -107 502 -113 864 -10 551 56 1065 238 1838 319 1352 724
2308 1302 3076 669 887 1590 1485 2482 1609 204 29 413 33 597 11z m1676
-1343 c183 -479 235 -1125 151 -1852 -102 -877 -428 -2107 -767 -2895 -431
-1001 -1039 -1778 -1787 -2284 -476 -322 -948 -510 -1460 -583 -136 -19 -505
-16 -641 5 -543 86 -993 353 -1309 777 -41 56 -75 105 -75 109 0 6 5849 6801
5855 6801 2 0 17 -35 33 -78z"/>
</g>
</svg>
