<?xml version="1.0" standalone="no"?>
<!DOCTYPE svg PUBLIC "-//W3C//DTD SVG 20010904//EN"
 "http://www.w3.org/TR/2001/REC-SVG-20010904/DTD/svg10.dtd">
<svg version="1.0" xmlns="http://www.w3.org/2000/svg"
 width="915.000000pt" height="976.000000pt" viewBox="0 0 915.000000 976.000000"
 preserveAspectRatio="xMidYMid meet">
<metadata>
Created by potrace 1.16, written by Peter Selinger 2001-2019
</metadata>
<g transform="translate(0.000000,976.000000) scale(0.100000,-0.100000)"
fill="#000000" stroke="none">
<path d="M145 9747 c-57 -26 -80 -66 -114 -201 -37 -148 -38 -176 -10 -226 41
-72 60 -77 359 -84 384 -8 557 -36 625 -101 72 -68 37 255 484 -4547 226
-2422 413 -4422 416 -4446 8 -57 62 -118 118 -133 24 -6 103 -9 196 -7 146 3
159 5 206 30 28 14 66 44 87 65 20 21 1111 1851 2458 4123 1333 2247 2433
4096 2445 4110 13 14 59 79 103 145 324 488 752 734 1322 762 137 6 183 21
215 69 9 15 32 87 51 162 38 150 36 184 -12 241 -39 46 -72 53 -225 41 -73 -5
-317 -15 -541 -22 -426 -13 -1138 -3 -1652 23 -228 12 -230 12 -271 -10 -54
-29 -72 -62 -106 -195 -34 -130 -36 -179 -10 -226 30 -57 76 -76 199 -83 335
-20 541 -162 559 -384 8 -108 -22 -208 -125 -413 -10 -19 -897 -1517 -1972
-3329 -1477 -2490 -1956 -3289 -1961 -3275 -4 11 -155 1604 -335 3541 -283
3043 -326 3528 -315 3562 17 59 101 145 174 180 156 75 350 109 657 118 304 8
303 7 359 241 l34 139 -24 49 c-13 26 -37 57 -52 68 -35 26 -34 26 -602 6
-524 -18 -1796 -19 -2175 -2 -525 24 -533 24 -565 9z"/>
</g>
</svg>
