<?xml version="1.0" standalone="no"?>
<!DOCTYPE svg PUBLIC "-//W3C//DTD SVG 20010904//EN"
 "http://www.w3.org/TR/2001/REC-SVG-20010904/DTD/svg10.dtd">
<svg version="1.0" xmlns="http://www.w3.org/2000/svg"
 width="1117.000000pt" height="1275.000000pt" viewBox="0 0 1117.000000 1275.000000"
 preserveAspectRatio="xMidYMid meet">
<metadata>
Created by potrace 1.16, written by Peter Selinger 2001-2019
</metadata>
<g transform="translate(0.000000,1275.000000) scale(0.100000,-0.100000)"
fill="#000000" stroke="none">
<path d="M5874 12735 c-32 -16 -172 -163 -192 -202 -18 -33 -15 -114 6 -144 9
-15 325 -351 701 -747 730 -770 721 -761 801 -747 28 5 316 198 1091 733 1021
704 1055 729 1078 776 22 44 23 53 12 94 -6 24 -30 82 -52 128 -34 72 -45 87
-81 105 -31 16 -53 20 -87 16 -33 -3 -297 -122 -922 -414 l-876 -409 -674 409
c-615 375 -678 411 -724 414 -32 2 -61 -2 -81 -12z"/>
<path d="M2369 9428 c-52 -30 -71 -71 -119 -265 -47 -191 -47 -221 -3 -274 47
-55 67 -59 340 -59 355 -1 873 -28 873 -46 0 -26 -1878 -7505 -1895 -7547
-100 -248 -300 -423 -596 -521 -180 -60 -329 -83 -589 -92 -91 -3 -179 -10
-197 -16 -66 -20 -86 -58 -138 -270 l-49 -195 25 -48 c13 -27 37 -58 52 -69
33 -24 56 -24 506 -6 678 27 1602 22 2319 -11 227 -11 245 -11 283 6 22 10 50
32 61 48 23 32 107 351 108 406 0 46 -35 105 -79 129 -30 16 -63 20 -211 26
-282 10 -436 39 -585 111 -171 82 -238 185 -239 370 l-1 100 874 3494 c816
3261 875 3492 887 3460 137 -389 2913 -8029 2929 -8065 17 -35 36 -56 64 -72
36 -21 51 -22 245 -22 227 0 253 5 297 58 23 26 162 576 1029 4043 552 2208
1014 4046 1028 4084 91 259 299 448 603 549 182 61 327 83 599 92 259 9 261
10 330 291 47 191 47 221 3 274 -48 57 -68 60 -300 49 -791 -38 -1703 -38
-2554 1 l-256 12 -41 -23 c-22 -12 -49 -39 -59 -59 -11 -20 -39 -114 -63 -208
-47 -191 -47 -221 -3 -274 39 -46 79 -59 185 -59 125 0 315 -17 413 -36 347
-68 498 -220 482 -484 -4 -68 -150 -664 -732 -2995 -400 -1600 -731 -2913
-734 -2917 -3 -4 -571 1551 -1261 3455 -690 1904 -1265 3482 -1277 3508 -15
30 -36 53 -62 67 l-39 22 -1208 0 -1209 0 -36 -22z"/>
</g>
</svg>
