<?xml version="1.0" standalone="no"?>
<!DOCTYPE svg PUBLIC "-//W3C//DTD SVG 20010904//EN"
 "http://www.w3.org/TR/2001/REC-SVG-20010904/DTD/svg10.dtd">
<svg version="1.0" xmlns="http://www.w3.org/2000/svg"
 width="649.000000pt" height="1384.000000pt" viewBox="0 0 649.000000 1384.000000"
 preserveAspectRatio="xMidYMid meet">
<metadata>
Created by potrace 1.16, written by Peter Selinger 2001-2019
</metadata>
<g transform="translate(0.000000,1384.000000) scale(0.100000,-0.100000)"
fill="#000000" stroke="none">
<path d="M5850 13833 c-114 -7 -340 -35 -470 -59 -491 -91 -961 -273 -1321
-513 -178 -118 -271 -195 -410 -337 -213 -219 -345 -427 -440 -693 -17 -47
-228 -875 -470 -1839 -259 -1034 -453 -1789 -473 -1841 -178 -460 -563 -869
-1058 -1121 -296 -152 -587 -232 -903 -249 -158 -8 -196 -21 -220 -74 -8 -18
-31 -96 -50 -174 l-36 -143 20 -44 c29 -66 59 -78 221 -87 165 -10 280 -29
407 -70 431 -138 720 -440 804 -839 27 -131 29 -331 5 -465 -9 -49 -205 -844
-435 -1765 -231 -921 -430 -1722 -442 -1780 -30 -139 -32 -383 -6 -509 37
-174 114 -344 220 -491 22 -30 83 -98 136 -150 198 -195 480 -353 811 -453
320 -97 623 -137 1034 -137 288 0 282 -4 340 224 42 162 42 170 16 214 -32 51
-75 72 -151 72 -102 0 -261 18 -395 45 -445 90 -781 337 -897 660 -37 105 -51
208 -44 343 5 112 22 185 440 1857 240 957 443 1783 452 1835 25 141 23 375
-4 507 -57 274 -174 488 -380 693 -179 178 -444 343 -688 427 -46 15 -83 30
-83 33 0 3 46 18 103 34 326 90 736 286 1018 486 243 173 471 404 621 630 81
122 184 326 228 454 17 49 226 873 466 1830 286 1143 447 1772 471 1831 249
633 1035 1109 1898 1151 139 7 183 19 209 59 17 25 86 289 86 327 0 37 -34 90
-71 110 -30 16 -58 18 -269 16 -129 -1 -260 -3 -290 -5z"/>
</g>
</svg>
