<?xml version="1.0" standalone="no"?>
<!DOCTYPE svg PUBLIC "-//W3C//DTD SVG 20010904//EN"
 "http://www.w3.org/TR/2001/REC-SVG-20010904/DTD/svg10.dtd">
<svg version="1.0" xmlns="http://www.w3.org/2000/svg"
 width="895.000000pt" height="1184.000000pt" viewBox="0 0 895.000000 1184.000000"
 preserveAspectRatio="xMidYMid meet">
<metadata>
Created by potrace 1.16, written by Peter Selinger 2001-2019
</metadata>
<g transform="translate(0.000000,1184.000000) scale(0.100000,-0.100000)"
fill="#000000" stroke="none">
<path d="M3829 11820 c-92 -19 -226 -77 -306 -131 -69 -47 -209 -185 -253
-249 -105 -154 -150 -291 -150 -456 0 -126 14 -184 67 -286 46 -88 156 -194
247 -237 211 -101 485 -73 723 75 106 65 254 216 315 319 173 293 154 608 -47
811 -150 151 -357 205 -596 154z"/>
<path d="M6220 11825 c-172 -34 -329 -123 -470 -264 -162 -164 -248 -346 -257
-546 -9 -183 42 -320 162 -441 188 -189 489 -227 768 -96 113 53 166 90 266
186 183 177 271 370 271 592 0 126 -14 184 -67 286 -46 88 -156 194 -247 237
-118 57 -283 75 -426 46z"/>
<path d="M121 9049 c-52 -36 -68 -65 -97 -173 -29 -112 -27 -149 13 -196 46
-55 66 -60 245 -60 396 0 642 -39 743 -116 90 -68 48 53 854 -2504 l748 -2372
-337 -1347 c-186 -740 -348 -1377 -360 -1416 -58 -184 -137 -294 -242 -333
-132 -50 -327 -71 -728 -79 -223 -4 -312 -9 -331 -19 -51 -25 -75 -68 -103
-179 -30 -122 -26 -162 21 -207 53 -49 56 -49 305 -38 128 5 501 15 828 21
612 12 1384 3 2004 -22 261 -11 276 -11 312 7 53 26 78 68 104 174 34 137 18
199 -60 241 -30 17 -59 19 -225 19 -353 0 -652 27 -765 69 -38 14 -47 23 -58
56 -17 49 -11 141 18 280 45 212 681 2742 697 2773 27 49 3295 4050 3314 4057
9 3 45 40 80 83 162 196 418 423 624 553 294 185 675 299 997 299 69 0 120 20
148 59 27 38 73 227 65 268 -7 39 -46 88 -86 109 -25 12 -51 13 -172 4 -78 -5
-311 -15 -518 -21 -390 -12 -1047 -2 -1532 22 -252 13 -266 11 -315 -46 -20
-22 -36 -59 -50 -118 -27 -107 -28 -162 -2 -204 32 -53 61 -66 173 -74 160
-13 254 -41 328 -99 127 -102 106 -316 -54 -542 -23 -32 -52 -77 -64 -99 -36
-67 -2967 -3649 -2974 -3636 -4 7 -294 921 -644 2032 -437 1386 -637 2033
-636 2060 3 103 76 170 246 224 122 40 206 51 440 58 265 8 280 16 321 174 30
119 31 166 1 210 -44 67 -64 71 -333 59 -892 -37 -1859 -35 -2769 6 -136 6
-141 5 -174 -17z"/>
</g>
</svg>
