<?xml version="1.0" standalone="no"?>
<!DOCTYPE svg PUBLIC "-//W3C//DTD SVG 20010904//EN"
 "http://www.w3.org/TR/2001/REC-SVG-20010904/DTD/svg10.dtd">
<svg version="1.0" xmlns="http://www.w3.org/2000/svg"
 width="201.000000pt" height="209.000000pt" viewBox="0 0 201.000000 209.000000"
 preserveAspectRatio="xMidYMid meet">
<metadata>
Created by potrace 1.16, written by Peter Selinger 2001-2019
</metadata>
<g transform="translate(0.000000,209.000000) scale(0.100000,-0.100000)"
fill="#000000" stroke="none">
<path d="M461 2079 c-129 -22 -283 -126 -370 -250 -71 -100 -95 -178 -89 -288
5 -94 25 -149 78 -213 49 -59 1546 -1291 1595 -1312 66 -29 105 -13 214 85
119 107 138 163 83 250 -16 24 -275 388 -576 809 -350 489 -569 785 -606 821
-88 85 -202 119 -329 98z"/>
</g>
</svg>
