<?xml version="1.0" standalone="no"?>
<!DOCTYPE svg PUBLIC "-//W3C//DTD SVG 20010904//EN"
 "http://www.w3.org/TR/2001/REC-SVG-20010904/DTD/svg10.dtd">
<svg version="1.0" xmlns="http://www.w3.org/2000/svg"
 width="620.000000pt" height="954.000000pt" viewBox="0 0 620.000000 954.000000"
 preserveAspectRatio="xMidYMid meet">
<metadata>
Created by potrace 1.16, written by Peter Selinger 2001-2019
</metadata>
<g transform="translate(0.000000,954.000000) scale(0.100000,-0.100000)"
fill="#000000" stroke="none">
<path d="M4147 9530 c-353 -34 -656 -121 -977 -281 -365 -182 -723 -452 -1105
-834 -581 -580 -900 -1153 -1108 -1990 -102 -409 -137 -659 -137 -977 0 -244
16 -384 66 -588 47 -191 99 -330 194 -525 136 -277 258 -452 437 -625 257
-250 557 -381 968 -421 608 -59 1149 154 1640 646 83 82 188 198 234 257 47
59 86 106 88 104 5 -5 -60 -247 -143 -536 -292 -1009 -621 -1710 -1060 -2260
-132 -165 -402 -438 -544 -551 -295 -233 -582 -378 -874 -441 -84 -18 -134
-22 -291 -22 -194 0 -286 10 -430 46 -221 55 -384 158 -483 306 -19 29 -33 54
-31 55 2 2 42 10 87 19 101 20 244 88 322 152 235 195 339 542 231 773 -59
125 -187 224 -327 253 -95 20 -265 9 -359 -24 -196 -67 -345 -197 -440 -386
-34 -67 -79 -243 -95 -374 -18 -142 -8 -336 23 -457 103 -395 404 -662 885
-783 186 -47 308 -60 567 -61 261 0 349 10 573 65 1442 354 2911 2005 3585
4030 114 340 211 706 321 1205 260 1180 294 2061 110 2812 -127 522 -376 905
-748 1155 -169 113 -371 196 -584 239 -111 23 -446 33 -595 19z m378 -445
c142 -25 249 -79 358 -184 144 -137 246 -343 299 -603 32 -159 32 -479 -1
-718 -43 -320 -172 -1013 -206 -1105 -8 -22 -30 -110 -49 -195 -97 -426 -225
-800 -397 -1158 -135 -281 -288 -530 -452 -732 -101 -125 -292 -313 -400 -394
-330 -246 -689 -345 -1052 -291 -119 18 -178 36 -265 81 -173 90 -293 244
-378 486 -47 132 -64 228 -69 398 -11 350 56 733 298 1703 219 879 331 1220
513 1573 128 248 260 428 461 629 246 246 501 401 777 474 67 17 145 30 263
44 78 10 221 6 300 -8z"/>
</g>
</svg>
