<?xml version="1.0" standalone="no"?>
<!DOCTYPE svg PUBLIC "-//W3C//DTD SVG 20010904//EN"
 "http://www.w3.org/TR/2001/REC-SVG-20010904/DTD/svg10.dtd">
<svg version="1.0" xmlns="http://www.w3.org/2000/svg"
 width="985.000000pt" height="1230.000000pt" viewBox="0 0 985.000000 1230.000000"
 preserveAspectRatio="xMidYMid meet">
<metadata>
Created by potrace 1.16, written by Peter Selinger 2001-2019
</metadata>
<g transform="translate(0.000000,1230.000000) scale(0.100000,-0.100000)"
fill="#000000" stroke="none">
<path d="M6313 12287 c-17 -6 -52 -27 -78 -45 -44 -31 -54 -49 -205 -355 -87
-177 -584 -1179 -1104 -2227 l-946 -1905 -1562 -5 c-1500 -5 -1564 -6 -1598
-24 -96 -51 -144 -128 -144 -231 0 -103 48 -180 144 -231 34 -18 92 -19 1464
-22 1129 -2 1427 -5 1423 -15 -2 -6 -244 -497 -538 -1089 l-533 -1078 -1215
-1 c-904 0 -1224 -4 -1248 -12 -109 -41 -168 -125 -168 -242 0 -117 59 -201
168 -242 24 -8 313 -12 1115 -12 607 -1 1082 -5 1080 -10 -1 -4 -473 -955
-1048 -2112 l-1045 -2104 0 -70 c1 -78 16 -118 69 -173 51 -55 101 -76 181
-77 81 0 130 20 184 75 24 25 337 646 1132 2250 l1098 2215 1177 3 c665 1
1174 -2 1172 -7 -1 -4 -473 -955 -1048 -2112 l-1045 -2104 0 -70 c1 -78 16
-118 69 -173 51 -55 101 -76 181 -77 81 0 130 20 184 75 24 25 337 646 1132
2250 l1098 2215 1563 5 1563 5 40 22 c92 49 139 127 139 228 0 101 -47 179
-139 228 l-40 22 -1429 3 c-1129 2 -1427 5 -1423 15 2 6 244 497 538 1090
l533 1077 1215 1 c904 0 1224 4 1248 12 109 41 168 125 168 242 0 117 -59 201
-168 242 -24 8 -313 12 -1115 12 -607 1 -1082 5 -1080 10 2 4 473 955 1048
2112 l1045 2104 0 70 c-1 78 -16 118 -69 173 -51 55 -101 76 -181 77 -81 0
-130 -20 -184 -75 -24 -25 -337 -646 -1132 -2250 l-1098 -2215 -1177 -3 c-665
-1 -1174 2 -1172 7 1 4 473 955 1048 2112 l1045 2104 0 70 c-1 101 -49 181
-140 227 -47 25 -147 33 -192 15z m314 -5059 c-2 -7 -244 -498 -538 -1090
l-533 -1078 -1174 0 c-935 0 -1173 3 -1169 13 2 6 244 497 538 1090 l533 1077
1174 0 c935 0 1173 -3 1169 -12z"/>
</g>
</svg>
