<?xml version="1.0" standalone="no"?>
<!DOCTYPE svg PUBLIC "-//W3C//DTD SVG 20010904//EN"
 "http://www.w3.org/TR/2001/REC-SVG-20010904/DTD/svg10.dtd">
<svg version="1.0" xmlns="http://www.w3.org/2000/svg"
 width="429.000000pt" height="976.000000pt" viewBox="0 0 429.000000 976.000000"
 preserveAspectRatio="xMidYMid meet">
<metadata>
Created by potrace 1.16, written by Peter Selinger 2001-2019
</metadata>
<g transform="translate(0.000000,976.000000) scale(0.100000,-0.100000)"
fill="#000000" stroke="none">
<path d="M2480 9684 c-1024 -79 -1010 -77 -1051 -136 -22 -31 -109 -354 -109
-407 0 -47 36 -105 80 -130 34 -19 53 -21 201 -21 299 0 561 -28 654 -69 74
-33 80 -47 79 -185 l-1 -121 -442 -1765 c-243 -971 -446 -1781 -451 -1800 -9
-33 -70 -81 -701 -545 -426 -313 -699 -521 -710 -540 -30 -48 -33 -88 -11
-136 30 -69 178 -286 207 -305 39 -25 105 -29 146 -9 19 10 213 150 432 312
219 161 400 293 401 293 2 0 -133 -546 -300 -1212 -167 -667 -313 -1257 -324
-1310 -117 -559 73 -1099 485 -1378 196 -133 417 -204 670 -217 315 -15 558
77 788 296 305 291 535 791 757 1641 57 219 57 240 0 295 l-31 30 -222 3
c-207 2 -224 1 -254 -17 -18 -11 -38 -33 -46 -48 -8 -15 -38 -120 -66 -233
-225 -884 -412 -1292 -652 -1425 -49 -27 -63 -30 -144 -30 -81 0 -95 3 -138
28 -55 33 -100 96 -122 172 -39 132 -37 364 5 612 11 65 226 942 477 1950
l458 1832 838 618 c461 339 849 630 862 645 31 36 41 90 26 136 -16 49 -179
291 -212 315 -37 26 -108 33 -145 14 -16 -8 -280 -200 -587 -426 -306 -225
-557 -408 -557 -405 0 2 200 805 445 1784 245 979 445 1799 445 1821 0 88 -73
150 -172 148 -29 -1 -483 -35 -1008 -75z"/>
</g>
</svg>
