<?xml version="1.0" standalone="no"?>
<!DOCTYPE svg PUBLIC "-//W3C//DTD SVG 20010904//EN"
 "http://www.w3.org/TR/2001/REC-SVG-20010904/DTD/svg10.dtd">
<svg version="1.0" xmlns="http://www.w3.org/2000/svg"
 width="475.000000pt" height="875.000000pt" viewBox="0 0 475.000000 875.000000"
 preserveAspectRatio="xMidYMid meet">
<metadata>
Created by potrace 1.16, written by Peter Selinger 2001-2019
</metadata>
<g transform="translate(0.000000,875.000000) scale(0.100000,-0.100000)"
fill="#000000" stroke="none">
<path d="M3080 8739 c-1106 -120 -2182 -906 -2705 -1974 -229 -469 -357 -1021
-372 -1606 -13 -525 72 -962 267 -1367 294 -611 809 -988 1436 -1053 141 -14
434 -7 598 16 61 8 111 13 112 12 2 -2 -67 -59 -154 -127 -270 -215 -519 -479
-675 -715 -76 -116 -178 -325 -216 -442 -135 -418 -67 -812 193 -1116 92 -106
262 -225 401 -278 388 -150 804 -107 1182 124 266 161 511 418 694 725 68 114
86 163 76 204 -19 74 -126 130 -207 108 -42 -11 -42 -12 -146 -160 -82 -118
-269 -303 -377 -374 -190 -126 -388 -179 -581 -155 -169 21 -299 83 -424 203
-304 293 -322 782 -45 1224 89 142 160 229 308 377 203 203 388 341 715 535
605 358 889 551 1115 757 197 180 446 477 459 549 10 49 -15 96 -91 176 -136
140 -187 135 -314 -32 -544 -717 -1368 -1192 -2199 -1269 -371 -35 -579 23
-781 216 -349 334 -471 931 -358 1758 22 164 89 511 140 728 l33 137 240 0
c1513 1 2398 228 2879 740 172 182 278 384 349 660 31 118 33 135 32 295 0
151 -3 181 -27 267 -53 200 -151 364 -303 506 -183 173 -418 286 -704 338
-102 19 -426 27 -550 13z m475 -359 c375 -97 593 -404 572 -805 -21 -393 -233
-723 -601 -935 -418 -240 -1023 -355 -1984 -377 -287 -6 -294 -6 -289 13 4 10
29 95 57 189 148 491 350 891 603 1194 341 407 796 680 1232 740 109 15 316 6
410 -19z"/>
</g>
</svg>
