<?xml version="1.0" standalone="no"?>
<!DOCTYPE svg PUBLIC "-//W3C//DTD SVG 20010904//EN"
 "http://www.w3.org/TR/2001/REC-SVG-20010904/DTD/svg10.dtd">
<svg version="1.0" xmlns="http://www.w3.org/2000/svg"
 width="409.000000pt" height="196.000000pt" viewBox="0 0 409.000000 196.000000"
 preserveAspectRatio="xMidYMid meet">
<metadata>
Created by potrace 1.16, written by Peter Selinger 2001-2019
</metadata>
<g transform="translate(0.000000,196.000000) scale(0.100000,-0.100000)"
fill="#000000" stroke="none">
<path d="M150 1949 c-69 -28 -96 -82 -124 -254 -51 -316 -12 -595 118 -861 78
-159 152 -259 283 -385 469 -448 1239 -571 2003 -320 672 222 1231 691 1511
1267 60 124 139 355 139 408 0 51 -34 109 -80 135 -33 18 -54 21 -168 21 -197
0 -224 -17 -271 -169 -62 -198 -156 -346 -326 -517 -285 -285 -691 -478 -1165
-551 -156 -24 -484 -24 -625 0 -461 79 -773 291 -878 596 -38 111 -47 255 -23
382 21 111 20 134 -5 179 -38 67 -76 80 -230 79 -74 0 -145 -5 -159 -10z"/>
</g>
</svg>
