<?xml version="1.0" standalone="no"?>
<!DOCTYPE svg PUBLIC "-//W3C//DTD SVG 20010904//EN"
 "http://www.w3.org/TR/2001/REC-SVG-20010904/DTD/svg10.dtd">
<svg version="1.0" xmlns="http://www.w3.org/2000/svg"
 width="885.000000pt" height="1245.000000pt" viewBox="0 0 885.000000 1245.000000"
 preserveAspectRatio="xMidYMid meet">
<metadata>
Created by potrace 1.16, written by Peter Selinger 2001-2019
</metadata>
<g transform="translate(0.000000,1245.000000) scale(0.100000,-0.100000)"
fill="#000000" stroke="none">
<path d="M5455 12443 c-236 -16 -566 -72 -809 -139 -1546 -426 -3021 -1713
-3882 -3389 -402 -783 -650 -1600 -741 -2440 -24 -229 -25 -809 0 -1023 61
-535 184 -966 397 -1387 102 -203 183 -334 307 -498 716 -950 1877 -1361 3158
-1117 132 25 351 80 455 113 l76 24 -28 -211 c-111 -849 -125 -1224 -58 -1553
77 -377 269 -626 574 -744 145 -56 248 -73 461 -73 210 -1 310 15 484 76 661
233 1224 1003 1584 2169 87 283 122 427 113 473 -15 80 -109 137 -189 115 -63
-17 -94 -52 -117 -132 -88 -307 -241 -573 -458 -799 -239 -248 -485 -399 -767
-470 -78 -20 -115 -23 -275 -22 -173 0 -190 2 -266 27 -278 92 -432 334 -509
797 -26 154 -55 422 -55 493 l1 42 176 85 c1338 645 2520 1908 3178 3395 510
1152 692 2411 499 3454 -253 1368 -1099 2346 -2290 2644 -316 79 -687 112
-1019 90z m314 -453 c880 -93 1520 -775 1721 -1835 47 -247 61 -401 67 -716
12 -624 -64 -1198 -267 -2024 -187 -761 -405 -1373 -696 -1955 -386 -770 -876
-1404 -1444 -1868 -95 -77 -281 -214 -286 -210 -1 2 -10 60 -19 128 -43 338
-97 537 -201 740 -177 348 -487 529 -905 530 -373 1 -766 -204 -1035 -538
-272 -339 -402 -760 -341 -1109 l13 -71 -38 21 c-79 45 -250 180 -341 271
-411 408 -650 1011 -708 1786 -14 192 -6 654 15 870 42 417 118 837 241 1335
361 1462 884 2539 1644 3389 655 731 1468 1195 2206 1259 89 8 285 6 374 -3z
m-1879 -7635 c108 -16 192 -43 259 -82 65 -38 156 -128 196 -193 42 -69 89
-206 111 -325 17 -98 32 -490 20 -568 l-7 -44 -107 -51 c-391 -185 -769 -270
-1144 -259 -159 5 -170 7 -219 33 -99 55 -187 180 -220 314 -21 87 -16 259 11
365 101 401 449 756 798 815 77 13 200 11 302 -5z"/>
</g>
</svg>
