<?xml version="1.0" standalone="no"?>
<!DOCTYPE svg PUBLIC "-//W3C//DTD SVG 20010904//EN"
 "http://www.w3.org/TR/2001/REC-SVG-20010904/DTD/svg10.dtd">
<svg version="1.0" xmlns="http://www.w3.org/2000/svg"
 width="753.000000pt" height="1192.000000pt" viewBox="0 0 753.000000 1192.000000"
 preserveAspectRatio="xMidYMid meet">
<metadata>
Created by potrace 1.16, written by Peter Selinger 2001-2019
</metadata>
<g transform="translate(0.000000,1192.000000) scale(0.100000,-0.100000)"
fill="#000000" stroke="none">
<path d="M2848 11900 c-356 -88 -638 -423 -638 -759 0 -364 324 -600 700 -511
347 83 621 398 638 730 8 162 -36 284 -140 396 -132 141 -346 196 -560 144z"/>
<path d="M6851 11909 c-259 -51 -503 -243 -611 -483 -71 -155 -85 -330 -38
-462 83 -234 288 -365 548 -351 202 11 385 101 541 264 174 182 255 418 214
617 -44 213 -187 361 -396 411 -69 16 -187 18 -258 4z"/>
<path d="M1671 8935 c-547 -97 -1044 -565 -1390 -1314 -101 -216 -197 -484
-256 -708 -31 -117 -27 -149 26 -199 l30 -29 222 -3 c300 -3 287 -12 351 231
20 76 58 204 85 285 207 626 472 1026 776 1172 93 44 148 59 253 67 98 7 156
-8 198 -52 46 -49 59 -109 58 -260 -1 -145 -26 -287 -89 -505 -19 -68 -296
-830 -614 -1694 -623 -1692 -611 -1657 -642 -1791 -29 -127 -37 -386 -15 -511
81 -470 391 -801 846 -905 125 -29 339 -35 465 -15 556 92 1054 558 1404 1315
101 216 197 484 256 708 31 117 27 149 -26 199 l-30 29 -222 3 c-300 3 -287
12 -351 -231 -20 -76 -58 -204 -85 -285 -207 -626 -472 -1026 -776 -1172 -93
-44 -148 -59 -253 -67 -98 -7 -156 8 -198 52 -46 49 -59 109 -58 260 1 145 26
287 89 505 20 69 296 831 614 1695 624 1692 611 1657 642 1790 29 127 37 386
15 511 -81 470 -390 800 -846 905 -116 27 -363 34 -479 14z"/>
<path d="M5532 8934 c-689 -111 -1342 -703 -1797 -1629 -51 -104 -119 -255
-150 -334 -65 -165 -66 -189 -10 -249 l33 -37 221 -3 c237 -3 263 1 295 51 8
12 43 92 77 177 286 718 676 1233 1083 1430 122 59 229 88 356 96 210 14 300
-59 340 -277 26 -139 9 -404 -41 -648 -37 -183 -1372 -5507 -1406 -5611 -146
-440 -370 -815 -636 -1066 -264 -249 -568 -361 -845 -313 l-64 11 39 27 c152
103 264 252 321 431 46 144 53 246 22 365 -56 221 -233 356 -486 372 -165 10
-334 -38 -484 -138 -175 -117 -277 -264 -337 -489 -36 -129 -38 -307 -5 -422
60 -211 173 -364 359 -485 216 -141 468 -202 782 -190 446 18 879 166 1303
445 221 147 492 392 652 592 216 271 398 612 485 913 36 124 1333 5310 1355
5420 77 374 7 763 -191 1059 -130 196 -358 365 -603 448 -184 62 -473 86 -668
54z"/>
</g>
</svg>
