<?xml version="1.0" standalone="no"?>
<!DOCTYPE svg PUBLIC "-//W3C//DTD SVG 20010904//EN"
 "http://www.w3.org/TR/2001/REC-SVG-20010904/DTD/svg10.dtd">
<svg version="1.0" xmlns="http://www.w3.org/2000/svg"
 width="1232.000000pt" height="976.000000pt" viewBox="0 0 1232.000000 976.000000"
 preserveAspectRatio="xMidYMid meet">
<metadata>
Created by potrace 1.16, written by Peter Selinger 2001-2019
</metadata>
<g transform="translate(0.000000,976.000000) scale(0.100000,-0.100000)"
fill="#000000" stroke="none">
<path d="M2370 9743 c-52 -27 -74 -70 -110 -212 -36 -147 -35 -182 7 -232 46
-54 71 -59 295 -59 369 0 707 -26 836 -65 74 -22 87 -47 86 -155 -1 -78 -86
-423 -971 -3960 -799 -3195 -975 -3887 -1004 -3945 -46 -94 -126 -176 -199
-203 -131 -48 -368 -71 -800 -78 -179 -3 -339 -10 -357 -15 -60 -19 -87 -64
-121 -202 -18 -70 -32 -140 -32 -157 0 -48 33 -103 78 -128 41 -23 41 -23 279
-13 131 6 543 16 915 23 700 12 1628 3 2262 -23 302 -13 326 -10 373 45 23 26
37 61 61 159 18 70 32 140 32 157 0 48 -33 103 -78 128 -38 21 -51 22 -248 22
-386 0 -726 27 -848 68 -65 22 -80 50 -78 152 0 64 138 623 966 3936 531 2124
975 3887 987 3918 29 78 95 174 147 213 104 79 336 110 882 119 436 8 417 -1
475 231 42 168 29 230 -55 273 -40 20 -47 20 -283 11 -514 -22 -1364 -33
-1947 -27 -534 6 -786 12 -1345 31 -152 6 -174 5 -205 -12z"/>
<path d="M8548 9741 c-52 -29 -71 -69 -109 -222 l-33 -136 25 -49 c46 -92 25
-88 482 -96 662 -10 972 -44 1035 -111 28 -30 42 -77 42 -144 0 -66 -1660
-6713 -1725 -6907 -148 -446 -383 -839 -685 -1150 -143 -147 -226 -217 -360
-305 -215 -142 -422 -211 -630 -211 -159 0 -367 42 -520 104 -246 100 -467
323 -564 568 -14 36 -26 70 -26 75 0 5 40 10 88 11 116 3 224 31 347 91 263
127 433 353 489 651 20 105 20 173 0 263 -61 269 -280 429 -590 429 -343 0
-663 -213 -801 -533 -95 -218 -129 -563 -84 -831 104 -603 567 -1054 1227
-1194 304 -64 657 -57 1013 22 1029 229 1950 1037 2275 1997 20 60 414 1620
876 3467 462 1846 850 3386 863 3422 50 138 108 202 211 234 93 28 258 44 506
50 329 9 328 8 381 218 16 61 29 129 29 151 0 55 -29 106 -78 133 -40 22 -42
22 -234 13 -460 -24 -1052 -33 -1693 -27 -591 6 -857 11 -1525 31 -182 5 -197
4 -232 -14z"/>
</g>
</svg>
