<?xml version="1.0" standalone="no"?>
<!DOCTYPE svg PUBLIC "-//W3C//DTD SVG 20010904//EN"
 "http://www.w3.org/TR/2001/REC-SVG-20010904/DTD/svg10.dtd">
<svg version="1.0" xmlns="http://www.w3.org/2000/svg"
 width="511.000000pt" height="1328.000000pt" viewBox="0 0 511.000000 1328.000000"
 preserveAspectRatio="xMidYMid meet">
<metadata>
Created by potrace 1.16, written by Peter Selinger 2001-2019
</metadata>
<g transform="translate(0.000000,1328.000000) scale(0.100000,-0.100000)"
fill="#000000" stroke="none">
<path d="M3320 13258 c-18 -13 -41 -34 -51 -48 -22 -30 -3269 -13011 -3269
-13069 0 -48 34 -100 80 -123 32 -17 94 -18 848 -18 582 0 820 3 835 11 45 23
78 64 93 117 19 65 12 110 -23 152 -51 61 -42 60 -506 60 l-425 0 1575 6300
1575 6299 473 3 c464 3 474 3 502 24 43 32 65 78 70 147 4 53 2 67 -19 97 -50
74 2 70 -909 70 l-816 0 -33 -22z"/>
</g>
</svg>
