<?xml version="1.0" standalone="no"?>
<!DOCTYPE svg PUBLIC "-//W3C//DTD SVG 20010904//EN"
 "http://www.w3.org/TR/2001/REC-SVG-20010904/DTD/svg10.dtd">
<svg version="1.0" xmlns="http://www.w3.org/2000/svg"
 width="828.000000pt" height="1260.000000pt" viewBox="0 0 828.000000 1260.000000"
 preserveAspectRatio="xMidYMid meet">
<metadata>
Created by potrace 1.16, written by Peter Selinger 2001-2019
</metadata>
<g transform="translate(0.000000,1260.000000) scale(0.100000,-0.100000)"
fill="#000000" stroke="none">
<path d="M6042 12590 c-562 -44 -1015 -183 -1387 -427 -595 -391 -923 -972
-1149 -2033 -37 -173 -256 -1304 -256 -1320 0 -6 -219 -10 -592 -10 -659 0
-638 2 -684 -67 -30 -45 -88 -283 -80 -328 7 -37 45 -88 80 -108 16 -9 168
-13 596 -17 l575 -5 -367 -1905 c-614 -3189 -724 -3730 -914 -4495 -117 -474
-183 -681 -284 -890 -135 -280 -314 -481 -489 -549 -95 -37 -244 -30 -336 16
-45 23 -125 85 -125 97 0 5 30 16 68 26 37 10 107 39 157 63 72 37 106 62 175
131 95 96 141 166 181 280 70 198 58 366 -36 507 -109 165 -347 241 -580 185
-153 -37 -266 -103 -376 -219 -90 -93 -147 -198 -186 -338 -26 -92 -28 -112
-27 -279 0 -167 2 -186 28 -269 84 -276 276 -482 533 -576 276 -99 593 -72
888 78 83 42 236 144 320 212 89 74 293 282 371 380 71 88 159 213 230 325
290 456 560 1262 828 2475 100 452 184 881 751 3825 289 1502 548 2836 576
2965 153 717 302 1162 458 1370 74 98 234 221 391 300 258 129 563 193 930
194 182 1 215 -2 295 -22 356 -90 595 -371 671 -788 24 -131 24 -398 0 -539
-9 -55 -48 -225 -87 -377 -156 -621 -276 -986 -419 -1283 -94 -196 -161 -286
-380 -510 -591 -606 -726 -865 -771 -1485 -32 -436 67 -843 280 -1155 34 -50
86 -121 117 -160 116 -146 222 -353 264 -511 56 -214 49 -385 -25 -673 -133
-512 -317 -948 -507 -1201 -224 -300 -468 -412 -797 -370 -218 28 -397 111
-522 241 -47 49 -128 175 -117 183 1 1 24 10 50 20 213 79 368 313 356 541 -9
181 -123 306 -313 345 -213 44 -472 -92 -575 -303 -129 -263 -113 -602 41
-873 90 -160 297 -340 489 -427 646 -293 1452 -142 2130 399 118 95 330 309
430 434 385 484 613 1086 586 1546 -26 439 -198 824 -577 1294 -304 377 -420
556 -492 756 -114 317 -16 550 489 1159 537 647 797 1022 1018 1465 130 261
208 466 266 700 46 186 54 253 54 440 -1 141 -5 195 -23 280 -64 301 -192 542
-401 750 -222 222 -505 378 -845 465 -212 54 -312 66 -590 70 -137 2 -301 -1
-363 -5z"/>
</g>
</svg>
