<?xml version="1.0" standalone="no"?>
<!DOCTYPE svg PUBLIC "-//W3C//DTD SVG 20010904//EN"
 "http://www.w3.org/TR/2001/REC-SVG-20010904/DTD/svg10.dtd">
<svg version="1.0" xmlns="http://www.w3.org/2000/svg"
 width="637.000000pt" height="1384.000000pt" viewBox="0 0 637.000000 1384.000000"
 preserveAspectRatio="xMidYMid meet">
<metadata>
Created by potrace 1.16, written by Peter Selinger 2001-2019
</metadata>
<g transform="translate(0.000000,1384.000000) scale(0.100000,-0.100000)"
fill="#000000" stroke="none">
<path d="M3463 13820 c-44 -26 -60 -54 -83 -145 -25 -99 -25 -141 0 -183 28
-46 67 -58 206 -66 553 -30 983 -265 1169 -640 75 -153 89 -220 89 -436 l0
-185 -442 -1763 c-243 -969 -449 -1804 -457 -1855 -34 -209 -14 -465 52 -657
106 -308 351 -587 681 -774 112 -64 266 -134 355 -162 31 -10 57 -20 57 -23 0
-3 -39 -17 -88 -30 -124 -34 -316 -104 -471 -172 -683 -302 -1182 -794 -1380
-1363 -18 -49 -230 -882 -472 -1850 -478 -1913 -469 -1882 -589 -2080 -350
-579 -1073 -983 -1826 -1022 -131 -7 -164 -16 -198 -53 -19 -21 -66 -184 -66
-230 0 -40 32 -92 71 -114 32 -17 51 -18 279 -13 135 3 306 12 380 21 857 103
1616 454 2067 955 177 196 331 458 401 680 16 52 224 873 461 1824 256 1023
446 1768 468 1825 80 215 200 414 366 606 393 456 1013 767 1577 791 141 6
200 22 229 63 27 38 64 195 58 243 -5 40 -34 80 -72 101 -11 5 -78 14 -150 18
-400 23 -704 151 -935 395 -148 156 -235 326 -277 543 -21 112 -21 325 1 446
9 50 210 866 446 1814 237 948 435 1744 440 1768 6 24 14 94 19 156 30 362
-88 695 -340 961 -374 396 -1049 626 -1833 626 -142 0 -165 -2 -193 -20z"/>
</g>
</svg>
