<?xml version="1.0" standalone="no"?>
<!DOCTYPE svg PUBLIC "-//W3C//DTD SVG 20010904//EN"
 "http://www.w3.org/TR/2001/REC-SVG-20010904/DTD/svg10.dtd">
<svg version="1.0" xmlns="http://www.w3.org/2000/svg"
 width="813.000000pt" height="602.000000pt" viewBox="0 0 813.000000 602.000000"
 preserveAspectRatio="xMidYMid meet">
<metadata>
Created by potrace 1.16, written by Peter Selinger 2001-2019
</metadata>
<g transform="translate(0.000000,602.000000) scale(0.100000,-0.100000)"
fill="#000000" stroke="none">
<path d="M2856 6009 c-688 -79 -1417 -555 -1968 -1282 -469 -619 -765 -1367
-864 -2187 -25 -203 -25 -654 -1 -830 58 -413 178 -756 358 -1024 237 -355
550 -573 942 -658 138 -29 410 -32 537 -5 506 108 1012 494 1489 1136 85 114
230 329 276 409 11 17 22 32 25 32 3 0 16 -44 28 -97 61 -254 187 -556 315
-751 255 -389 598 -628 1040 -724 137 -30 481 -32 656 -4 652 102 1256 423
1746 927 147 151 223 242 330 394 112 160 112 187 -3 307 -90 94 -120 112
-175 105 -49 -7 -73 -29 -155 -147 -115 -166 -220 -290 -401 -471 -194 -193
-285 -269 -471 -394 -346 -232 -674 -357 -1035 -396 -295 -31 -524 27 -723
186 -322 258 -502 757 -502 1390 0 330 44 655 163 1218 l10 47 301 0 c1190 0
1911 107 2434 360 293 142 481 294 644 522 104 145 176 305 229 513 32 123 34
139 33 300 0 151 -3 181 -27 267 -53 200 -151 364 -303 506 -239 225 -552 345
-939 359 -409 15 -848 -94 -1287 -319 -145 -74 -365 -213 -475 -299 -35 -27
-63 -45 -63 -40 0 5 16 76 36 157 29 116 35 161 32 209 -25 307 -415 400 -659
156 -81 -81 -105 -137 -164 -375 l-52 -209 -38 64 c-258 429 -662 663 -1135
658 -63 -1 -146 -5 -184 -10z m409 -359 c247 -64 456 -244 588 -506 73 -145
131 -350 155 -544 l10 -75 -140 -560 c-226 -911 -250 -1031 -278 -1410 -11
-147 -12 -152 -62 -270 -326 -767 -812 -1422 -1288 -1734 -262 -173 -526 -242
-741 -197 -418 89 -639 661 -563 1457 30 321 88 611 249 1259 189 756 292
1073 462 1415 165 330 333 566 565 790 227 220 447 348 666 390 102 19 272 13
377 -15z m3740 0 c458 -119 674 -551 529 -1059 -158 -553 -681 -877 -1604
-995 -307 -40 -887 -70 -1207 -64 l-162 3 58 175 c122 365 236 607 415 880
206 313 451 565 736 755 259 173 560 292 821 325 116 14 321 5 414 -20z"/>
</g>
</svg>
