<?xml version="1.0" standalone="no"?>
<!DOCTYPE svg PUBLIC "-//W3C//DTD SVG 20010904//EN"
 "http://www.w3.org/TR/2001/REC-SVG-20010904/DTD/svg10.dtd">
<svg version="1.0" xmlns="http://www.w3.org/2000/svg"
 width="1081.000000pt" height="1260.000000pt" viewBox="0 0 1081.000000 1260.000000"
 preserveAspectRatio="xMidYMid meet">
<metadata>
Created by potrace 1.16, written by Peter Selinger 2001-2019
</metadata>
<g transform="translate(0.000000,1260.000000) scale(0.100000,-0.100000)"
fill="#000000" stroke="none">
<path d="M5880 12594 c-505 -47 -951 -206 -1320 -472 -135 -97 -374 -336 -460
-459 -255 -363 -424 -806 -574 -1500 -19 -87 -85 -419 -146 -738 -61 -319
-114 -590 -117 -602 l-5 -23 -614 0 c-589 0 -616 -1 -653 -19 -21 -11 -46 -32
-55 -46 -21 -32 -106 -355 -106 -404 0 -47 36 -105 80 -130 37 -21 45 -21 635
-21 l597 0 -5 -22 c-3 -13 -146 -750 -316 -1638 -331 -1720 -383 -1978 -631
-3135 -357 -1664 -491 -2270 -521 -2358 -80 -235 -208 -418 -340 -488 -38 -20
-58 -24 -144 -24 -55 0 -125 7 -155 14 -56 14 -180 65 -180 75 0 3 20 14 45
25 66 29 187 116 237 169 102 109 165 227 204 381 68 266 -20 499 -233 614
-275 148 -692 38 -913 -242 -128 -161 -200 -402 -187 -625 23 -393 270 -704
673 -849 147 -53 264 -72 449 -72 156 0 179 3 270 28 460 128 890 556 1214
1207 250 503 473 1222 705 2275 107 485 165 781 560 2830 l352 1830 1502 3
c1200 2 1501 0 1497 -10 -2 -7 -167 -857 -365 -1888 -422 -2189 -454 -2354
-566 -2887 -247 -1177 -443 -1893 -581 -2121 -120 -198 -346 -449 -512 -571
-97 -71 -237 -142 -331 -168 -93 -26 -320 -23 -450 4 -95 21 -260 78 -260 91
1 4 32 27 71 50 95 60 166 127 228 216 65 95 97 165 127 285 68 266 -20 499
-233 614 -275 148 -692 38 -914 -242 -122 -154 -184 -348 -182 -571 1 -140 25
-245 84 -363 168 -334 554 -551 1084 -608 148 -16 391 -6 520 21 333 70 688
247 1005 500 211 169 488 468 629 679 363 540 658 1467 985 3091 36 177 713
3689 741 3843 l7 37 719 0 c785 0 760 -2 811 58 37 45 123 391 108 441 -13 45
-35 77 -67 98 -25 17 -81 18 -738 23 l-711 5 88 460 c294 1530 431 2176 511
2412 45 133 207 322 324 380 54 26 65 28 173 26 126 -1 227 -22 332 -70 52
-23 58 -29 43 -38 -252 -145 -377 -302 -441 -554 -68 -266 20 -499 233 -614
275 -148 692 -38 914 242 80 102 137 230 171 386 20 97 15 305 -11 400 -45
169 -126 301 -264 431 -165 156 -388 259 -672 311 -131 25 -421 24 -535 -1
-233 -51 -477 -168 -695 -335 -81 -62 -264 -240 -335 -326 -222 -271 -398
-680 -550 -1280 -72 -284 -128 -550 -266 -1272 l-108 -563 -1498 0 c-945 0
-1498 4 -1498 10 0 16 238 1243 286 1475 153 740 283 1187 399 1370 84 133
324 290 555 363 253 81 550 92 837 32 90 -18 263 -77 263 -88 0 -4 -28 -25
-61 -46 -89 -58 -159 -125 -218 -210 -65 -95 -97 -165 -127 -285 -55 -216 -10
-409 126 -534 146 -136 351 -179 573 -123 387 98 631 426 631 846 0 138 -18
217 -78 345 -128 271 -405 466 -811 570 -198 51 -330 67 -580 70 -121 2 -240
1 -265 -1z"/>
</g>
</svg>
