<?xml version="1.0" standalone="no"?>
<!DOCTYPE svg PUBLIC "-//W3C//DTD SVG 20010904//EN"
 "http://www.w3.org/TR/2001/REC-SVG-20010904/DTD/svg10.dtd">
<svg version="1.0" xmlns="http://www.w3.org/2000/svg"
 width="364.000000pt" height="669.000000pt" viewBox="0 0 364.000000 669.000000"
 preserveAspectRatio="xMidYMid meet">
<metadata>
Created by potrace 1.16, written by Peter Selinger 2001-2019
</metadata>
<g transform="translate(0.000000,669.000000) scale(0.100000,-0.100000)"
fill="#000000" stroke="none">
<path d="M1681 6672 c-46 -25 -71 -74 -71 -139 0 -78 28 -398 51 -573 101
-789 321 -1536 653 -2215 52 -104 116 -230 144 -280 l50 -89 -297 -296 c-163
-162 -362 -367 -442 -455 -651 -715 -1200 -1464 -1654 -2259 -117 -204 -129
-243 -91 -301 32 -49 73 -65 164 -65 126 0 133 5 252 176 404 582 804 1060
1324 1580 537 536 1017 936 1650 1374 145 100 185 133 200 163 31 64 18 96
-87 206 -266 279 -461 521 -655 812 -408 615 -692 1308 -847 2073 -25 120 -52
230 -60 243 -31 47 -73 63 -165 63 -64 0 -94 -5 -119 -18z"/>
</g>
</svg>
