<?xml version="1.0" standalone="no"?>
<!DOCTYPE svg PUBLIC "-//W3C//DTD SVG 20010904//EN"
 "http://www.w3.org/TR/2001/REC-SVG-20010904/DTD/svg10.dtd">
<svg version="1.0" xmlns="http://www.w3.org/2000/svg"
 width="1317.000000pt" height="945.000000pt" viewBox="0 0 1317.000000 945.000000"
 preserveAspectRatio="xMidYMid meet">
<metadata>
Created by potrace 1.16, written by Peter Selinger 2001-2019
</metadata>
<g transform="translate(0.000000,945.000000) scale(0.100000,-0.100000)"
fill="#000000" stroke="none">
<path d="M2369 9428 c-20 -11 -46 -37 -57 -57 -31 -57 -106 -374 -98 -416 9
-45 57 -101 99 -114 18 -5 181 -12 362 -15 447 -8 674 -32 719 -76 50 -49 94
139 -889 -3790 -504 -2016 -927 -3691 -940 -3723 -100 -248 -300 -423 -596
-521 -180 -60 -329 -83 -589 -92 -91 -3 -179 -10 -197 -16 -66 -20 -86 -58
-138 -270 l-49 -195 25 -48 c13 -27 37 -58 52 -69 33 -24 56 -24 506 -6 678
27 1602 22 2319 -11 227 -11 245 -11 283 6 22 10 50 32 61 48 23 32 107 351
108 406 0 46 -35 105 -79 129 -30 16 -63 20 -211 26 -282 10 -436 39 -585 111
-171 82 -238 185 -239 370 l-1 100 905 3618 c498 1989 907 3617 910 3617 3 0
175 -1869 383 -4153 350 -3835 380 -4155 400 -4196 16 -32 35 -51 67 -68 43
-23 51 -24 230 -21 182 3 186 3 237 32 28 15 65 42 82 60 16 17 1151 1928
2522 4246 1370 2318 2495 4219 2499 4224 4 4 -423 -1716 -950 -3823 -653
-2613 -966 -3848 -984 -3885 -33 -68 -95 -132 -149 -156 -105 -47 -332 -69
-772 -76 -181 -3 -344 -10 -362 -15 -66 -21 -86 -59 -138 -271 l-49 -195 25
-48 c13 -27 37 -58 52 -69 33 -24 54 -24 587 -6 801 27 1885 22 2730 -11 281
-11 286 -11 326 9 23 12 49 33 59 49 21 32 104 351 105 402 0 47 -35 105 -80
130 -35 20 -52 21 -251 21 -384 0 -736 27 -823 64 -28 12 -37 23 -46 56 -6 23
-8 61 -5 84 4 22 439 1768 966 3879 650 2599 968 3855 985 3889 34 67 100 137
149 159 103 46 332 68 780 76 315 5 343 7 376 25 20 11 46 37 56 57 32 57 107
374 99 416 -9 47 -59 102 -104 115 -26 8 -429 10 -1292 8 l-1255 -3 -50 -27
c-28 -14 -69 -46 -90 -70 -22 -24 -1041 -1736 -2285 -3842 -2210 -3739 -2245
-3798 -2252 -3760 -5 22 -161 1724 -348 3784 -187 2060 -343 3762 -346 3783
-7 46 -55 104 -101 123 -27 12 -262 14 -1330 14 l-1298 0 -36 -22z"/>
</g>
</svg>
