<?xml version="1.0" standalone="no"?>
<!DOCTYPE svg PUBLIC "-//W3C//DTD SVG 20010904//EN"
 "http://www.w3.org/TR/2001/REC-SVG-20010904/DTD/svg10.dtd">
<svg version="1.0" xmlns="http://www.w3.org/2000/svg"
 width="373.000000pt" height="1328.000000pt" viewBox="0 0 373.000000 1328.000000"
 preserveAspectRatio="xMidYMid meet">
<metadata>
Created by potrace 1.16, written by Peter Selinger 2001-2019
</metadata>
<g transform="translate(0.000000,1328.000000) scale(0.100000,-0.100000)"
fill="#000000" stroke="none">
<path d="M3379 13271 c-61 -19 -137 -80 -165 -133 -7 -14 -734 -2908 -1615
-6430 -1471 -5883 -1600 -6408 -1596 -6465 11 -148 142 -256 292 -240 92 9
185 77 219 159 9 20 734 2909 1612 6420 1495 5982 1596 6387 1591 6450 -5 78
-36 139 -94 188 -62 50 -170 73 -244 51z"/>
</g>
</svg>
