<?xml version="1.0" standalone="no"?>
<!DOCTYPE svg PUBLIC "-//W3C//DTD SVG 20010904//EN"
 "http://www.w3.org/TR/2001/REC-SVG-20010904/DTD/svg10.dtd">
<svg version="1.0" xmlns="http://www.w3.org/2000/svg"
 width="515.000000pt" height="882.000000pt" viewBox="0 0 515.000000 882.000000"
 preserveAspectRatio="xMidYMid meet">
<metadata>
Created by potrace 1.16, written by Peter Selinger 2001-2019
</metadata>
<g transform="translate(0.000000,882.000000) scale(0.100000,-0.100000)"
fill="#000000" stroke="none">
<path d="M3437 8810 c-824 -94 -1642 -564 -2283 -1311 -574 -668 -950 -1533
-1024 -2356 -16 -178 -8 -572 15 -723 131 -864 634 -1509 1368 -1754 59 -20
114 -36 122 -36 9 0 18 -6 21 -13 3 -8 -34 -167 -81 -355 -47 -188 -85 -360
-85 -383 0 -25 8 -55 21 -76 32 -52 78 -69 201 -77 289 -18 524 -138 609 -311
83 -169 25 -432 -134 -602 -209 -223 -543 -333 -1157 -383 -69 -6 -294 -13
-500 -16 -206 -3 -389 -10 -406 -15 -49 -15 -84 -60 -105 -136 -36 -129 -17
-203 62 -243 36 -19 60 -20 351 -20 552 0 1038 25 1368 71 878 122 1361 422
1510 939 31 107 38 301 16 404 -35 156 -134 302 -279 412 -85 65 -279 156
-414 196 -67 19 -113 38 -113 46 0 19 122 506 129 514 4 4 63 17 131 29 610
103 1197 360 1680 735 207 160 505 468 623 641 40 59 49 117 24 159 -24 42
-182 204 -213 219 -80 38 -119 15 -238 -134 -425 -533 -960 -911 -1583 -1117
-182 -60 -438 -117 -465 -103 -9 5 -176 9 -370 9 l-354 0 -84 41 c-301 145
-502 429 -580 818 -87 436 -38 902 191 1811 192 765 338 1159 579 1564 357
599 892 1027 1417 1133 118 24 364 24 484 0 219 -43 372 -119 507 -251 57 -55
139 -163 130 -170 -1 -2 -37 -11 -78 -21 -41 -10 -113 -38 -160 -61 -187 -95
-304 -230 -378 -439 -33 -96 -42 -266 -17 -351 46 -159 145 -258 310 -310 261
-83 599 40 770 281 61 86 100 175 132 303 24 94 27 126 27 272 0 147 -3 176
-27 265 -30 111 -94 251 -158 347 -23 35 -82 102 -130 150 -201 200 -479 333
-824 394 -98 18 -451 26 -558 14z"/>
</g>
</svg>
