<?xml version="1.0" standalone="no"?>
<!DOCTYPE svg PUBLIC "-//W3C//DTD SVG 20010904//EN"
 "http://www.w3.org/TR/2001/REC-SVG-20010904/DTD/svg10.dtd">
<svg version="1.0" xmlns="http://www.w3.org/2000/svg"
 width="785.000000pt" height="1306.000000pt" viewBox="0 0 785.000000 1306.000000"
 preserveAspectRatio="xMidYMid meet">
<metadata>
Created by potrace 1.16, written by Peter Selinger 2001-2019
</metadata>
<g transform="translate(0.000000,1306.000000) scale(0.100000,-0.100000)"
fill="#000000" stroke="none">
<path d="M4334 13045 c-32 -16 -172 -163 -192 -202 -18 -33 -15 -114 6 -144 9
-15 325 -351 701 -747 730 -770 721 -761 801 -747 28 5 316 198 1091 733 1021
704 1055 729 1078 776 22 44 23 53 12 94 -6 24 -30 82 -52 128 -34 72 -45 87
-81 105 -31 16 -53 20 -87 16 -33 -3 -297 -122 -922 -414 l-876 -409 -674 409
c-615 375 -678 411 -724 414 -32 2 -61 -2 -81 -12z"/>
<path d="M4715 10063 c-279 -24 -616 -116 -900 -246 -1052 -481 -1855 -1516
-2054 -2647 -41 -234 -54 -535 -30 -748 78 -720 459 -1290 1045 -1563 133 -61
221 -89 1040 -324 433 -124 817 -239 855 -255 219 -93 411 -292 508 -525 137
-329 152 -768 42 -1220 -208 -849 -833 -1597 -1536 -1838 -178 -61 -255 -72
-485 -71 -841 4 -1439 319 -1725 909 -126 260 -180 527 -179 890 0 261 29 503
90 763 29 124 30 147 6 191 -35 65 -61 71 -292 71 -186 0 -208 -2 -237 -20
-18 -10 -39 -29 -47 -42 -18 -28 -816 -3215 -816 -3260 0 -45 34 -96 75 -114
50 -21 182 -19 222 3 17 10 188 193 378 408 191 215 360 404 377 420 l29 30
32 -40 c67 -85 256 -270 347 -339 331 -250 761 -412 1255 -471 183 -22 524
-30 660 -16 881 95 1765 678 2364 1561 368 543 592 1136 672 1785 19 152 16
543 -5 700 -48 353 -167 680 -347 951 -101 153 -313 364 -463 462 -117 77
-269 155 -383 195 -39 14 -426 128 -860 252 -433 125 -817 238 -853 252 -327
129 -551 426 -622 823 -26 149 -28 397 -3 555 115 747 614 1441 1273 1770 287
143 574 196 892 166 532 -51 876 -250 1105 -636 114 -194 185 -416 232 -730
14 -97 18 -184 18 -455 0 -347 -4 -406 -52 -742 -26 -186 -26 -186 -6 -220 10
-18 34 -43 53 -55 32 -22 42 -23 237 -23 221 0 255 7 287 55 9 13 198 755 422
1649 l406 1625 -18 38 c-32 63 -72 83 -173 83 -67 0 -93 -4 -118 -19 -17 -11
-195 -203 -394 -427 l-364 -406 -20 27 c-103 143 -153 204 -240 290 -304 301
-720 478 -1235 524 -106 10 -372 12 -465 4z"/>
</g>
</svg>
