<?xml version="1.0" standalone="no"?>
<!DOCTYPE svg PUBLIC "-//W3C//DTD SVG 20010904//EN"
 "http://www.w3.org/TR/2001/REC-SVG-20010904/DTD/svg10.dtd">
<svg version="1.0" xmlns="http://www.w3.org/2000/svg"
 width="459.000000pt" height="1142.000000pt" viewBox="0 0 459.000000 1142.000000"
 preserveAspectRatio="xMidYMid meet">
<metadata>
Created by potrace 1.16, written by Peter Selinger 2001-2019
</metadata>
<g transform="translate(0.000000,1142.000000) scale(0.100000,-0.100000)"
fill="#000000" stroke="none">
<path d="M3172 11400 c-140 -37 -243 -98 -336 -202 -114 -126 -107 -101 -419
-1351 l-282 -1127 -653 0 c-529 0 -659 -3 -685 -14 -64 -26 -81 -59 -133 -269
l-48 -194 25 -48 c13 -27 37 -58 52 -69 28 -21 41 -21 658 -24 592 -2 630 -3
625 -20 -16 -54 -957 -3830 -970 -3895 -77 -373 -7 -763 190 -1059 95 -142
267 -293 427 -374 37 -19 67 -36 67 -39 0 -3 -43 -178 -96 -390 -108 -432
-108 -433 -45 -496 41 -41 43 -42 226 -58 142 -13 231 -36 342 -91 103 -51
180 -120 223 -202 62 -116 53 -278 -26 -435 -189 -377 -743 -533 -1903 -533
-228 0 -246 -1 -281 -21 -20 -11 -45 -35 -55 -51 -22 -37 -74 -239 -75 -287 0
-48 36 -105 83 -131 l40 -23 491 6 c494 6 701 15 986 43 1031 99 1608 405
1805 957 190 530 -49 951 -651 1148 -55 18 -100 33 -102 34 -6 5 127 520 135
522 5 2 72 34 148 72 243 119 401 235 620 455 210 211 375 426 548 716 92 154
242 462 312 639 65 165 66 189 10 249 l-33 37 -221 3 c-237 3 -263 -1 -295
-51 -8 -12 -43 -92 -77 -177 -286 -717 -676 -1232 -1082 -1430 -135 -66 -250
-93 -392 -94 -99 -1 -115 2 -160 24 -59 30 -107 96 -130 175 -39 131 -36 364
6 615 15 89 912 3716 1020 4123 l10 37 655 0 c629 0 656 1 693 19 21 11 46 32
56 48 21 32 104 351 105 402 0 47 -35 105 -80 130 -37 21 -45 21 -654 21 -407
0 -616 3 -616 10 0 6 119 487 265 1070 146 583 269 1091 275 1128 46 328 -251
563 -598 472z"/>
</g>
</svg>
