<?xml version="1.0" standalone="no"?>
<!DOCTYPE svg PUBLIC "-//W3C//DTD SVG 20010904//EN"
 "http://www.w3.org/TR/2001/REC-SVG-20010904/DTD/svg10.dtd">
<svg version="1.0" xmlns="http://www.w3.org/2000/svg"
 width="504.000000pt" height="435.000000pt" viewBox="0 0 504.000000 435.000000"
 preserveAspectRatio="xMidYMid meet">
<metadata>
Created by potrace 1.16, written by Peter Selinger 2001-2019
</metadata>
<g transform="translate(0.000000,435.000000) scale(0.100000,-0.100000)"
fill="#000000" stroke="none">
<path d="M1367 4335 c-415 -79 -756 -429 -833 -855 -30 -166 -10 -313 60 -456
77 -154 209 -259 396 -311 51 -14 99 -18 220 -17 174 1 248 16 394 79 44 19
82 33 84 31 12 -13 -106 -366 -184 -549 -282 -664 -773 -1301 -1369 -1778
-117 -93 -135 -117 -135 -175 0 -45 7 -58 98 -177 101 -135 155 -156 244 -97
156 103 560 481 771 720 444 504 791 1097 992 1694 258 770 238 1391 -56 1701
-79 82 -163 136 -274 171 -101 33 -287 42 -408 19z"/>
<path d="M4107 4335 c-415 -79 -756 -429 -833 -855 -30 -166 -10 -313 60 -456
77 -154 209 -259 396 -311 51 -14 99 -18 220 -17 174 1 248 16 394 79 44 19
82 33 84 31 12 -13 -106 -366 -184 -549 -282 -664 -773 -1301 -1369 -1778
-117 -93 -135 -117 -135 -175 0 -45 7 -58 98 -177 101 -135 155 -156 244 -97
156 103 560 481 771 720 444 504 791 1097 992 1694 258 770 238 1391 -56 1701
-79 82 -163 136 -274 171 -101 33 -287 42 -408 19z"/>
</g>
</svg>
