<?xml version="1.0" standalone="no"?>
<!DOCTYPE svg PUBLIC "-//W3C//DTD SVG 20010904//EN"
 "http://www.w3.org/TR/2001/REC-SVG-20010904/DTD/svg10.dtd">
<svg version="1.0" xmlns="http://www.w3.org/2000/svg"
 width="850.000000pt" height="1229.000000pt" viewBox="0 0 850.000000 1229.000000"
 preserveAspectRatio="xMidYMid meet">
<metadata>
Created by potrace 1.16, written by Peter Selinger 2001-2019
</metadata>
<g transform="translate(0.000000,1229.000000) scale(0.100000,-0.100000)"
fill="#000000" stroke="none">
<path d="M6014 12273 c-17 -10 -495 -429 -1063 -931 -1116 -990 -1063 -938
-1047 -1025 8 -42 119 -184 161 -207 47 -25 117 -18 162 15 21 16 415 334 875
707 460 373 841 678 847 678 5 0 238 -311 517 -691 468 -637 512 -693 552
-711 66 -29 103 -18 208 60 49 37 99 82 111 101 25 37 30 98 12 134 -7 12
-270 432 -586 934 -356 564 -584 918 -601 929 -39 26 -110 29 -148 7z"/>
<path d="M5175 9660 c-968 -89 -1964 -551 -2837 -1317 -897 -787 -1610 -1853
-1998 -2988 -569 -1664 -418 -3240 411 -4286 98 -124 311 -338 429 -433 285
-228 649 -416 995 -516 289 -84 511 -113 855 -114 279 -1 383 7 630 50 1448
248 2909 1330 3842 2844 800 1299 1145 2863 912 4130 -174 946 -631 1692
-1319 2155 -369 248 -765 396 -1235 460 -138 19 -543 28 -685 15z m384 -380
c860 -91 1485 -738 1685 -1746 136 -683 82 -1468 -169 -2489 -384 -1557 -966
-2719 -1785 -3559 -842 -864 -1806 -1243 -2609 -1026 -584 158 -1037 630
-1266 1316 -263 792 -243 1773 65 3079 305 1290 752 2261 1410 3055 127 154
457 485 603 606 546 450 1124 711 1697 767 78 8 281 6 369 -3z"/>
</g>
</svg>
