<?xml version="1.0" standalone="no"?>
<!DOCTYPE svg PUBLIC "-//W3C//DTD SVG 20010904//EN"
 "http://www.w3.org/TR/2001/REC-SVG-20010904/DTD/svg10.dtd">
<svg version="1.0" xmlns="http://www.w3.org/2000/svg"
 width="450.000000pt" height="148.000000pt" viewBox="0 0 450.000000 148.000000"
 preserveAspectRatio="xMidYMid meet">
<metadata>
Created by potrace 1.16, written by Peter Selinger 2001-2019
</metadata>
<g transform="translate(0.000000,148.000000) scale(0.100000,-0.100000)"
fill="#000000" stroke="none">
<path d="M1543 1455 c-234 -60 -491 -213 -816 -485 -226 -190 -683 -627 -713
-682 -19 -36 -18 -102 2 -144 19 -39 105 -117 148 -133 77 -30 119 -10 256
124 315 305 598 522 825 631 123 59 210 84 301 84 163 0 248 -65 480 -371 73
-97 164 -207 202 -246 93 -93 203 -166 305 -200 73 -24 96 -27 212 -27 161 1
248 24 440 118 210 102 435 263 714 510 188 166 563 538 577 573 37 86 -4 169
-120 247 -48 32 -116 35 -161 7 -16 -10 -93 -78 -170 -151 -498 -470 -879
-700 -1119 -676 -133 13 -244 102 -415 331 -254 339 -380 447 -586 500 -92 23
-250 19 -362 -10z"/>
</g>
</svg>
