<?xml version="1.0" standalone="no"?>
<!DOCTYPE svg PUBLIC "-//W3C//DTD SVG 20010904//EN"
 "http://www.w3.org/TR/2001/REC-SVG-20010904/DTD/svg10.dtd">
<svg version="1.0" xmlns="http://www.w3.org/2000/svg"
 width="617.000000pt" height="602.000000pt" viewBox="0 0 617.000000 602.000000"
 preserveAspectRatio="xMidYMid meet">
<metadata>
Created by potrace 1.16, written by Peter Selinger 2001-2019
</metadata>
<g transform="translate(0.000000,602.000000) scale(0.100000,-0.100000)"
fill="#000000" stroke="none">
<path d="M2247 6009 c-686 -94 -1346 -681 -1710 -1520 -57 -130 -131 -343
-162 -465 -18 -69 -18 -72 1 -109 34 -69 59 -80 198 -83 137 -4 182 7 211 52
9 14 34 86 56 160 115 401 331 812 577 1097 256 298 541 476 837 524 232 38
402 -4 538 -134 231 -218 286 -588 171 -1159 -46 -227 -712 -2873 -754 -2995
-180 -521 -491 -908 -810 -1008 -188 -59 -497 -17 -681 91 -97 57 -100 64 -37
85 118 38 246 125 319 217 52 65 113 192 135 277 11 46 15 95 12 166 -3 94 -6
108 -41 178 -149 302 -606 319 -892 32 -97 -96 -145 -182 -182 -323 -53 -204
-28 -417 70 -592 81 -145 252 -290 435 -371 203 -89 380 -123 632 -123 168 0
194 3 283 27 319 86 605 294 847 616 38 52 86 121 107 155 l37 62 62 -126
c226 -450 640 -714 1154 -737 636 -28 1280 375 1729 1085 172 271 321 613 396
908 18 69 18 72 -1 109 -34 69 -59 80 -198 83 -137 4 -182 -7 -211 -52 -9 -14
-34 -86 -56 -160 -115 -401 -331 -812 -577 -1097 -256 -298 -541 -476 -837
-524 -232 -38 -402 4 -538 134 -231 218 -286 587 -171 1159 50 249 702 2845
748 2980 185 536 493 922 816 1023 188 59 497 17 681 -91 97 -57 100 -64 37
-85 -118 -38 -246 -125 -319 -217 -52 -65 -113 -192 -135 -277 -11 -46 -15
-95 -12 -166 3 -94 6 -108 41 -178 149 -302 606 -319 892 -32 97 96 145 182
182 323 53 204 28 417 -70 592 -81 145 -252 290 -435 371 -203 89 -380 123
-632 123 -168 0 -194 -3 -283 -27 -319 -86 -605 -294 -847 -616 -38 -52 -86
-122 -107 -156 l-37 -62 -49 100 c-133 279 -341 493 -602 621 -203 100 -353
135 -590 141 -88 2 -191 0 -228 -6z"/>
</g>
</svg>
