<?xml version="1.0" standalone="no"?>
<!DOCTYPE svg PUBLIC "-//W3C//DTD SVG 20010904//EN"
 "http://www.w3.org/TR/2001/REC-SVG-20010904/DTD/svg10.dtd">
<svg version="1.0" xmlns="http://www.w3.org/2000/svg"
 width="699.000000pt" height="880.000000pt" viewBox="0 0 699.000000 880.000000"
 preserveAspectRatio="xMidYMid meet">
<metadata>
Created by potrace 1.16, written by Peter Selinger 2001-2019
</metadata>
<g transform="translate(0.000000,880.000000) scale(0.100000,-0.100000)"
fill="#000000" stroke="none">
<path d="M2255 8786 c-349 -68 -621 -306 -840 -737 -144 -283 -250 -590 -395
-1149 -69 -262 -69 -278 -10 -335 l31 -30 172 -3 c158 -2 175 -1 205 18 18 11
39 35 47 52 8 18 46 155 85 305 127 494 219 770 335 1008 83 169 132 243 226
337 106 108 161 133 289 133 86 -1 100 -4 148 -29 121 -67 171 -204 172 -473
0 -147 -18 -305 -56 -493 -13 -69 -388 -1579 -833 -3356 -585 -2338 -816
-3249 -838 -3295 -37 -79 -74 -124 -122 -148 -83 -43 -304 -71 -554 -71 -154
0 -201 -14 -235 -69 -10 -16 -33 -92 -51 -169 l-34 -139 24 -49 c13 -26 37
-57 52 -68 33 -24 61 -24 427 -6 539 27 1400 22 2121 -11 234 -11 248 -11 285
7 56 28 78 68 114 213 36 147 35 182 -7 232 -45 53 -73 59 -270 59 -402 1
-695 38 -725 93 -34 63 -23 114 298 1402 l308 1232 80 -121 c140 -212 327
-377 541 -477 269 -126 609 -142 987 -45 374 96 735 286 1103 580 131 106 391
361 518 509 474 555 814 1220 996 1945 85 340 119 581 128 903 7 248 -6 436
-43 639 -159 868 -649 1436 -1374 1591 -151 33 -450 33 -592 1 -316 -70 -639
-233 -938 -472 -58 -47 -177 -155 -264 -242 -88 -87 -160 -156 -161 -155 0 1
-11 36 -24 77 -130 415 -449 700 -891 796 -102 22 -344 27 -435 10z m3165
-430 c262 -91 439 -359 505 -766 47 -294 22 -665 -80 -1175 -47 -233 -253
-1071 -330 -1340 -225 -785 -494 -1306 -875 -1685 -252 -253 -491 -392 -740
-431 -87 -13 -229 -6 -310 16 -261 70 -484 315 -610 670 -41 118 -85 297 -105
433 l-16 109 364 1455 364 1456 68 103 c326 499 710 880 1068 1061 98 49 261
104 347 117 109 17 266 6 350 -23z"/>
</g>
</svg>
