<?xml version="1.0" standalone="no"?>
<!DOCTYPE svg PUBLIC "-//W3C//DTD SVG 20010904//EN"
 "http://www.w3.org/TR/2001/REC-SVG-20010904/DTD/svg10.dtd">
<svg version="1.0" xmlns="http://www.w3.org/2000/svg"
 width="230.000000pt" height="435.000000pt" viewBox="0 0 230.000000 435.000000"
 preserveAspectRatio="xMidYMid meet">
<metadata>
Created by potrace 1.16, written by Peter Selinger 2001-2019
</metadata>
<g transform="translate(0.000000,435.000000) scale(0.100000,-0.100000)"
fill="#000000" stroke="none">
<path d="M1965 4333 c-76 -41 -359 -286 -550 -478 -662 -660 -1121 -1451
-1330 -2285 -184 -737 -58 -1308 329 -1495 125 -60 226 -79 376 -72 449 23
825 338 946 792 34 125 38 292 11 395 -59 224 -219 385 -442 445 -86 23 -255
30 -356 16 -99 -15 -222 -52 -301 -92 l-56 -29 24 90 c225 822 778 1634 1524
2242 127 103 157 145 146 203 -9 46 -156 245 -198 268 -40 21 -84 21 -123 0z"/>
</g>
</svg>
