<?xml version="1.0" standalone="no"?>
<!DOCTYPE svg PUBLIC "-//W3C//DTD SVG 20010904//EN"
 "http://www.w3.org/TR/2001/REC-SVG-20010904/DTD/svg10.dtd">
<svg version="1.0" xmlns="http://www.w3.org/2000/svg"
 width="582.000000pt" height="860.000000pt" viewBox="0 0 582.000000 860.000000"
 preserveAspectRatio="xMidYMid meet">
<metadata>
Created by potrace 1.16, written by Peter Selinger 2001-2019
</metadata>
<g transform="translate(0.000000,860.000000) scale(0.100000,-0.100000)"
fill="#000000" stroke="none">
<path d="M3600 8589 c-370 -47 -770 -213 -1120 -462 -329 -234 -677 -590 -934
-956 -393 -559 -662 -1253 -762 -1961 -26 -182 -26 -686 -1 -854 132 -870 605
-1444 1317 -1597 155 -34 431 -34 578 -1 220 49 456 150 656 282 135 88 200
138 340 259 60 52 106 85 103 75 -4 -10 -94 -370 -201 -799 -107 -429 -209
-821 -226 -870 -42 -120 -143 -328 -215 -445 -312 -502 -766 -838 -1227 -906
-91 -13 -155 -16 -328 -11 -331 10 -581 41 -756 95 l-88 27 70 40 c109 63 202
163 258 276 63 129 79 198 74 324 -3 94 -6 108 -41 178 -149 302 -606 319
-892 32 -97 -96 -146 -183 -181 -321 -44 -175 -30 -354 39 -489 124 -245 449
-404 957 -469 305 -39 835 -45 1058 -12 1016 152 1896 832 2173 1679 17 51
375 1469 795 3152 764 3051 766 3060 762 3146 -3 68 -10 97 -32 142 -112 230
-450 263 -685 67 -73 -61 -127 -142 -162 -244 l-28 -80 -18 33 c-90 163 -249
351 -382 451 -136 103 -326 183 -508 215 -92 16 -285 18 -393 4z m380 -353
c208 -57 403 -234 524 -473 84 -167 149 -383 180 -593 l15 -105 -344 -1374
-343 -1374 -106 -156 c-58 -86 -144 -205 -192 -266 -113 -142 -404 -432 -517
-517 -190 -140 -380 -237 -554 -280 -126 -32 -321 -31 -413 1 -249 87 -429
341 -499 704 -66 343 -38 761 90 1336 45 203 203 831 260 1033 116 414 247
751 395 1019 318 576 760 978 1162 1054 92 17 261 13 342 -9z"/>
</g>
</svg>
