<?xml version="1.0" standalone="no"?>
<!DOCTYPE svg PUBLIC "-//W3C//DTD SVG 20010904//EN"
 "http://www.w3.org/TR/2001/REC-SVG-20010904/DTD/svg10.dtd">
<svg version="1.0" xmlns="http://www.w3.org/2000/svg"
 width="544.000000pt" height="1225.000000pt" viewBox="0 0 544.000000 1225.000000"
 preserveAspectRatio="xMidYMid meet">
<metadata>
Created by potrace 1.16, written by Peter Selinger 2001-2019
</metadata>
<g transform="translate(0.000000,1225.000000) scale(0.100000,-0.100000)"
fill="#000000" stroke="none">
<path d="M4859 12235 c-31 -8 -80 -25 -110 -38 -123 -54 -2185 -1211 -2216
-1242 -51 -53 -51 -82 -3 -276 32 -128 49 -178 68 -201 28 -33 77 -58 116 -58
38 0 2314 788 2376 822 170 95 275 228 321 406 31 123 21 233 -31 349 -87 192
-303 291 -521 238z"/>
<path d="M1940 9684 c-1024 -79 -1010 -77 -1051 -136 -22 -31 -109 -354 -109
-407 0 -47 36 -105 80 -130 34 -19 53 -21 201 -21 299 0 561 -28 654 -69 74
-33 80 -47 79 -185 l-1 -121 -871 -3480 c-479 -1914 -878 -3515 -886 -3558
-111 -542 84 -1082 489 -1357 196 -133 417 -204 670 -217 315 -15 558 77 788
296 305 291 535 791 757 1641 57 219 57 240 0 295 l-31 30 -222 3 c-207 2
-224 1 -254 -17 -18 -11 -38 -33 -46 -48 -8 -15 -38 -120 -66 -233 -225 -884
-412 -1292 -652 -1425 -49 -27 -63 -30 -144 -30 -81 0 -95 3 -138 28 -55 33
-100 96 -122 172 -39 133 -37 361 6 615 11 69 477 1951 1035 4183 558 2231
1014 4076 1014 4098 0 88 -73 150 -172 148 -29 -1 -483 -35 -1008 -75z"/>
</g>
</svg>
