<?xml version="1.0" standalone="no"?>
<!DOCTYPE svg PUBLIC "-//W3C//DTD SVG 20010904//EN"
 "http://www.w3.org/TR/2001/REC-SVG-20010904/DTD/svg10.dtd">
<svg version="1.0" xmlns="http://www.w3.org/2000/svg"
 width="431.000000pt" height="1090.000000pt" viewBox="0 0 431.000000 1090.000000"
 preserveAspectRatio="xMidYMid meet">
<metadata>
Created by potrace 1.16, written by Peter Selinger 2001-2019
</metadata>
<g transform="translate(0.000000,1090.000000) scale(0.100000,-0.100000)"
fill="#000000" stroke="none">
<path d="M2980 10884 c-144 -38 -282 -145 -347 -269 -25 -48 -90 -291 -314
-1188 l-281 -1127 -670 0 c-731 0 -699 3 -750 -59 -37 -43 -82 -229 -68 -280
10 -37 46 -79 87 -100 15 -8 206 -11 652 -11 412 0 631 -3 631 -10 0 -5 -220
-891 -489 -1967 -308 -1232 -494 -1994 -501 -2056 -16 -122 -8 -364 14 -467
38 -173 105 -332 198 -467 91 -131 261 -275 406 -342 28 -14 52 -28 52 -33 0
-5 -41 -171 -90 -369 -102 -405 -102 -409 -35 -468 41 -36 49 -38 176 -45 265
-16 488 -135 571 -304 31 -63 33 -73 33 -172 0 -89 -5 -118 -28 -187 -52 -151
-138 -260 -281 -354 -274 -180 -672 -254 -1436 -265 -201 -3 -375 -7 -387 -10
-43 -9 -92 -63 -109 -121 -19 -66 -13 -111 23 -153 54 -65 39 -64 553 -57 256
3 539 11 630 17 842 54 1344 203 1641 487 130 124 200 236 254 403 36 113 46
301 20 399 -74 284 -318 475 -743 581 -33 9 -42 15 -38 28 3 9 35 136 71 282
36 146 69 273 73 283 4 10 54 38 117 65 578 250 1103 896 1452 1786 59 152 62
180 21 231 -34 44 -75 55 -198 55 -121 0 -168 -13 -194 -52 -8 -12 -47 -104
-86 -203 -129 -324 -282 -620 -441 -855 -109 -162 -190 -259 -315 -380 -116
-112 -198 -175 -305 -234 -57 -31 -70 -35 -93 -26 -17 6 -146 10 -325 10
l-298 0 -26 58 c-69 153 -74 394 -16 742 10 63 247 1027 525 2143 l506 2027
665 0 c716 0 690 -2 741 53 27 28 71 187 72 253 0 51 -32 103 -80 126 -32 17
-85 18 -657 18 -404 0 -623 3 -623 10 0 5 122 497 271 1092 260 1042 271 1086
266 1161 -13 241 -241 389 -497 321z"/>
</g>
</svg>
