<?xml version="1.0" standalone="no"?>
<!DOCTYPE svg PUBLIC "-//W3C//DTD SVG 20010904//EN"
 "http://www.w3.org/TR/2001/REC-SVG-20010904/DTD/svg10.dtd">
<svg version="1.0" xmlns="http://www.w3.org/2000/svg"
 width="860.000000pt" height="627.000000pt" viewBox="0 0 860.000000 627.000000"
 preserveAspectRatio="xMidYMid meet">
<metadata>
Created by potrace 1.16, written by Peter Selinger 2001-2019
</metadata>
<g transform="translate(0.000000,627.000000) scale(0.100000,-0.100000)"
fill="#000000" stroke="none">
<path d="M7788 6250 c-149 -37 -290 -123 -414 -252 -146 -152 -214 -299 -222
-475 -7 -177 32 -265 192 -434 240 -252 355 -520 385 -891 12 -140 2 -321 -25
-468 -34 -188 -233 -953 -341 -1310 -307 -1022 -655 -1608 -1080 -1823 -28
-15 -91 -39 -140 -53 -78 -24 -104 -27 -238 -27 -167 0 -251 16 -368 72 -234
112 -366 308 -434 646 -25 127 -25 547 0 720 35 234 81 428 482 2037 438 1758
424 1695 386 1817 -48 153 -145 243 -308 285 -216 56 -496 -48 -639 -237 -94
-124 -86 -96 -508 -1783 -217 -868 -406 -1637 -421 -1709 -40 -200 -65 -422
-70 -617 -4 -203 -1 -194 -142 -470 -208 -409 -429 -647 -682 -736 -67 -23
-91 -26 -206 -26 -211 -1 -368 43 -521 146 -83 56 -184 160 -233 243 -115 191
-174 524 -152 847 40 561 192 1109 676 2439 97 266 187 529 201 584 111 453
-2 897 -299 1182 -138 133 -292 215 -503 269 -99 26 -125 29 -284 29 -244 0
-380 -33 -601 -147 -486 -249 -914 -840 -1173 -1620 -30 -89 -66 -209 -81
-265 -31 -117 -27 -149 26 -199 l30 -29 222 -3 c300 -3 287 -12 351 233 52
195 143 463 216 635 220 516 496 816 803 875 182 35 279 6 324 -95 24 -54 29
-254 9 -381 -36 -226 -63 -313 -303 -974 -185 -507 -415 -1185 -482 -1420
-129 -451 -177 -720 -188 -1050 -15 -457 78 -818 291 -1130 243 -357 688 -591
1266 -667 152 -20 517 -17 619 5 390 84 702 297 974 663 l60 82 58 -89 c193
-294 528 -510 950 -613 196 -47 316 -60 564 -60 254 0 345 13 530 76 509 173
937 632 1275 1365 237 516 416 1076 674 2109 217 868 281 1225 292 1629 7 238
-7 388 -51 541 -117 404 -407 607 -747 524z"/>
</g>
</svg>
