<?xml version="1.0" standalone="no"?>
<!DOCTYPE svg PUBLIC "-//W3C//DTD SVG 20010904//EN"
 "http://www.w3.org/TR/2001/REC-SVG-20010904/DTD/svg10.dtd">
<svg version="1.0" xmlns="http://www.w3.org/2000/svg"
 width="647.000000pt" height="954.000000pt" viewBox="0 0 647.000000 954.000000"
 preserveAspectRatio="xMidYMid meet">
<metadata>
Created by potrace 1.16, written by Peter Selinger 2001-2019
</metadata>
<g transform="translate(0.000000,954.000000) scale(0.100000,-0.100000)"
fill="#000000" stroke="none">
<path d="M4230 9530 c-734 -76 -1453 -423 -1990 -960 -377 -377 -634 -820
-750 -1292 -79 -322 -56 -609 67 -858 40 -79 62 -110 138 -186 101 -101 178
-148 310 -186 68 -20 102 -23 225 -22 176 1 284 26 444 102 403 193 680 568
728 984 20 179 -18 380 -108 568 -65 136 -112 209 -148 231 -37 22 -96 25
-134 5 -43 -22 -155 -115 -174 -144 -29 -44 -23 -106 17 -171 95 -158 135
-282 135 -427 1 -332 -279 -660 -620 -730 -207 -42 -326 20 -382 199 -33 104
-32 364 0 516 131 601 529 1154 1107 1538 322 214 678 353 1050 410 139 21
429 24 535 4 224 -40 416 -137 560 -281 329 -328 378 -837 163 -1685 -126
-499 -285 -863 -507 -1159 -74 -99 -236 -268 -332 -347 -213 -175 -478 -310
-734 -374 -186 -48 -281 -55 -733 -55 -462 0 -470 -1 -507 -63 -10 -16 -35
-96 -55 -178 -42 -166 -40 -191 16 -245 l30 -29 452 -6 c479 -6 506 -9 642
-59 254 -95 447 -319 520 -606 86 -333 53 -704 -126 -1417 -95 -381 -170 -607
-284 -859 -353 -783 -1068 -1296 -1860 -1334 -400 -20 -763 107 -1012 353
-227 225 -354 514 -386 874 l-4 46 71 6 c261 20 499 176 614 402 52 104 74
185 79 298 7 131 -11 209 -67 295 -198 307 -730 273 -1003 -63 -103 -127 -170
-328 -202 -600 -105 -903 360 -1670 1170 -1928 236 -76 449 -103 735 -94 658
21 1328 242 1910 630 708 472 1220 1155 1400 1866 105 413 112 832 20 1192
-126 491 -426 901 -835 1137 l-81 46 143 62 c414 179 761 421 1094 760 755
771 1061 1799 779 2618 -94 271 -226 481 -432 682 -279 275 -616 439 -1053
515 -127 22 -496 33 -635 19z"/>
</g>
</svg>
