<?xml version="1.0" standalone="no"?>
<!DOCTYPE svg PUBLIC "-//W3C//DTD SVG 20010904//EN"
 "http://www.w3.org/TR/2001/REC-SVG-20010904/DTD/svg10.dtd">
<svg version="1.0" xmlns="http://www.w3.org/2000/svg"
 width="663.000000pt" height="976.000000pt" viewBox="0 0 663.000000 976.000000"
 preserveAspectRatio="xMidYMid meet">
<metadata>
Created by potrace 1.16, written by Peter Selinger 2001-2019
</metadata>
<g transform="translate(0.000000,976.000000) scale(0.100000,-0.100000)"
fill="#000000" stroke="none">
<path d="M5220 9684 c-987 -80 -968 -78 -1008 -143 -10 -16 -33 -92 -51 -169
l-34 -139 24 -49 c44 -88 45 -88 332 -96 282 -7 415 -19 530 -50 185 -49 188
-101 34 -721 l-93 -372 -674 -5 c-652 -5 -676 -6 -709 -25 -19 -11 -43 -32
-53 -46 -25 -34 -78 -240 -78 -306 0 -47 4 -58 36 -93 21 -23 51 -44 72 -50
23 -6 268 -10 656 -10 490 0 617 -3 614 -12 -3 -7 -108 -425 -233 -929 l-229
-916 -80 121 c-140 212 -327 377 -541 477 -269 126 -609 142 -987 45 -374 -96
-735 -286 -1103 -580 -131 -106 -391 -361 -518 -509 -474 -555 -814 -1220
-996 -1945 -85 -340 -119 -581 -128 -903 -7 -248 6 -436 43 -639 159 -868 649
-1436 1374 -1591 151 -33 450 -33 592 -1 316 70 639 233 938 472 58 47 177
155 264 242 88 87 160 156 161 155 0 -1 11 -36 24 -77 131 -416 448 -700 893
-797 129 -28 385 -25 498 5 316 85 571 322 775 723 144 283 251 594 395 1149
68 262 69 279 10 335 l-31 30 -172 3 c-158 2 -175 1 -205 -18 -18 -11 -39 -35
-47 -52 -8 -18 -46 -155 -85 -305 -127 -494 -219 -770 -335 -1008 -83 -169
-132 -243 -226 -337 -106 -108 -161 -133 -289 -133 -86 1 -100 4 -148 29 -57
32 -93 73 -124 143 -65 147 -64 465 3 803 15 77 1422 5727 1490 5982 l9 37
323 3 c320 3 322 3 361 27 47 30 64 67 101 221 33 137 30 177 -19 226 -17 17
-50 37 -71 43 -24 7 -142 11 -301 11 l-262 0 204 813 c112 446 204 832 204
856 0 90 -71 152 -172 150 -29 -1 -460 -35 -958 -75z m-1830 -3858 c262 -72
484 -316 610 -671 41 -118 85 -297 105 -433 l16 -109 -364 -1455 -364 -1456
-68 -103 c-455 -697 -989 -1129 -1459 -1181 -314 -35 -545 97 -691 397 -54
111 -78 181 -104 310 -67 320 -47 705 64 1260 47 233 253 1071 330 1340 225
785 494 1306 875 1685 141 142 260 235 394 309 95 52 235 104 327 120 72 13
261 5 329 -13z"/>
</g>
</svg>
