<?xml version="1.0" standalone="no"?>
<!DOCTYPE svg PUBLIC "-//W3C//DTD SVG 20010904//EN"
 "http://www.w3.org/TR/2001/REC-SVG-20010904/DTD/svg10.dtd">
<svg version="1.0" xmlns="http://www.w3.org/2000/svg"
 width="486.000000pt" height="923.000000pt" viewBox="0 0 486.000000 923.000000"
 preserveAspectRatio="xMidYMid meet">
<metadata>
Created by potrace 1.16, written by Peter Selinger 2001-2019
</metadata>
<g transform="translate(0.000000,923.000000) scale(0.100000,-0.100000)"
fill="#000000" stroke="none">
<path d="M4572 9213 c-22 -12 -69 -67 -143 -168 -461 -635 -1051 -1137 -1631
-1389 -298 -129 -542 -189 -833 -205 -211 -11 -222 -21 -276 -241 -32 -133
-32 -161 1 -215 37 -60 73 -68 249 -62 269 9 551 74 855 196 118 47 396 191
514 265 67 43 101 59 98 48 -3 -9 -372 -1485 -821 -3280 -645 -2581 -822
-3277 -848 -3330 -39 -81 -124 -175 -186 -206 -130 -66 -557 -106 -1136 -106
-327 0 -328 0 -385 -229 -36 -147 -35 -182 7 -232 50 -59 62 -60 370 -49 1035
38 2253 38 3345 -1 312 -11 328 -11 365 7 55 28 77 68 113 213 36 147 35 182
-7 232 -47 55 -68 59 -330 59 -428 0 -826 27 -978 66 -96 25 -125 67 -125 181
0 37 316 1315 1031 4175 765 3063 1029 4132 1025 4158 -6 39 -30 74 -70 104
-37 28 -157 33 -204 9z"/>
</g>
</svg>
