<?xml version="1.0" standalone="no"?>
<!DOCTYPE svg PUBLIC "-//W3C//DTD SVG 20010904//EN"
 "http://www.w3.org/TR/2001/REC-SVG-20010904/DTD/svg10.dtd">
<svg version="1.0" xmlns="http://www.w3.org/2000/svg"
 width="406.000000pt" height="507.000000pt" viewBox="0 0 406.000000 507.000000"
 preserveAspectRatio="xMidYMid meet">
<metadata>
Created by potrace 1.16, written by Peter Selinger 2001-2019
</metadata>
<g transform="translate(0.000000,507.000000) scale(0.100000,-0.100000)"
fill="#000000" stroke="none">
<path d="M1260 5055 c-220 -44 -417 -190 -512 -380 -24 -50 -52 -122 -61 -160
-9 -39 -168 -1039 -353 -2223 l-336 -2153 24 -47 c32 -66 86 -92 187 -92 83 0
148 24 175 64 16 26 1479 4271 1507 4376 33 123 20 280 -32 382 -30 58 -125
150 -188 182 -119 61 -270 79 -411 51z"/>
<path d="M3399 5055 c-269 -54 -499 -265 -568 -522 -7 -24 -164 -1019 -351
-2213 -262 -1677 -337 -2177 -330 -2201 24 -83 83 -118 197 -119 86 0 145 20
173 60 22 31 1501 4322 1519 4408 27 128 7 275 -52 374 -101 173 -346 261
-588 213z"/>
</g>
</svg>
