<?xml version="1.0" standalone="no"?>
<!DOCTYPE svg PUBLIC "-//W3C//DTD SVG 20010904//EN"
 "http://www.w3.org/TR/2001/REC-SVG-20010904/DTD/svg10.dtd">
<svg version="1.0" xmlns="http://www.w3.org/2000/svg"
 width="413.000000pt" height="503.000000pt" viewBox="0 0 413.000000 503.000000"
 preserveAspectRatio="xMidYMid meet">
<metadata>
Created by potrace 1.16, written by Peter Selinger 2001-2019
</metadata>
<g transform="translate(0.000000,503.000000) scale(0.100000,-0.100000)"
fill="#000000" stroke="none">
<path d="M1327 5019 c-175 -23 -329 -101 -462 -234 -73 -72 -100 -108 -138
-181 -25 -50 -55 -124 -66 -165 -23 -87 -661 -4223 -661 -4288 0 -58 30 -104
84 -130 36 -18 61 -21 167 -21 138 0 193 16 224 63 20 31 1470 4216 1490 4302
8 33 15 101 15 151 0 149 -42 256 -139 353 -119 119 -316 177 -514 150z"/>
<path d="M3480 5020 c-325 -40 -604 -281 -681 -589 -22 -88 -659 -4223 -659
-4277 0 -53 36 -110 85 -134 35 -17 62 -20 166 -20 110 0 130 3 169 22 25 13
52 37 62 53 20 36 1449 4163 1479 4273 18 63 21 96 17 192 -4 109 -6 121 -41
194 -97 205 -334 319 -597 286z"/>
</g>
</svg>
