<?xml version="1.0" standalone="no"?>
<!DOCTYPE svg PUBLIC "-//W3C//DTD SVG 20010904//EN"
 "http://www.w3.org/TR/2001/REC-SVG-20010904/DTD/svg10.dtd">
<svg version="1.0" xmlns="http://www.w3.org/2000/svg"
 width="516.000000pt" height="899.000000pt" viewBox="0 0 516.000000 899.000000"
 preserveAspectRatio="xMidYMid meet">
<metadata>
Created by potrace 1.16, written by Peter Selinger 2001-2019
</metadata>
<g transform="translate(0.000000,899.000000) scale(0.100000,-0.100000)"
fill="#000000" stroke="none">
<path d="M3765 8976 c-35 -16 -2199 -2009 -2232 -2057 -17 -23 -23 -46 -23
-84 0 -60 17 -88 126 -202 85 -88 129 -106 196 -79 30 11 314 250 937 786 492
424 898 770 902 770 3 0 228 -334 498 -742 270 -409 505 -757 521 -775 38 -41
96 -58 148 -43 20 6 89 47 152 93 131 94 166 141 155 210 -3 25 -191 356 -566
1000 -309 529 -579 992 -602 1029 -60 98 -131 130 -212 94z"/>
<path d="M3235 6249 c-139 -13 -365 -57 -520 -101 -592 -167 -1143 -495 -1605
-958 -480 -479 -808 -1042 -965 -1654 -94 -366 -134 -646 -142 -1001 -10 -431
33 -742 154 -1107 164 -498 451 -889 833 -1136 205 -133 463 -230 725 -274
101 -16 522 -17 660 0 719 87 1361 346 1905 768 207 160 505 468 623 641 40
59 49 117 24 159 -24 42 -182 204 -213 219 -80 38 -119 15 -238 -134 -132
-166 -256 -299 -383 -413 -586 -524 -1270 -816 -1973 -845 -351 -14 -589 94
-784 355 -274 364 -355 959 -236 1712 33 204 116 607 161 773 l10 37 262 0
c1424 1 2310 204 2845 654 269 226 451 546 518 911 25 137 15 378 -20 505
-116 417 -449 720 -930 845 -197 51 -463 67 -711 44z m475 -429 c280 -69 491
-270 567 -540 14 -51 18 -99 17 -225 -1 -139 -4 -173 -27 -257 -92 -347 -309
-597 -672 -773 -427 -208 -992 -304 -1897 -322 l-327 -6 45 151 c200 678 464
1147 834 1479 315 282 666 458 1018 508 131 19 331 12 442 -15z"/>
</g>
</svg>
