<?xml version="1.0" standalone="no"?>
<!DOCTYPE svg PUBLIC "-//W3C//DTD SVG 20010904//EN"
 "http://www.w3.org/TR/2001/REC-SVG-20010904/DTD/svg10.dtd">
<svg version="1.0" xmlns="http://www.w3.org/2000/svg"
 width="992.000000pt" height="945.000000pt" viewBox="0 0 992.000000 945.000000"
 preserveAspectRatio="xMidYMid meet">
<metadata>
Created by potrace 1.16, written by Peter Selinger 2001-2019
</metadata>
<g transform="translate(0.000000,945.000000) scale(0.100000,-0.100000)"
fill="#000000" stroke="none">
<path d="M2369 9429 c-20 -12 -44 -35 -54 -52 -23 -39 -74 -240 -75 -292 0
-55 29 -105 76 -132 37 -21 50 -23 244 -23 341 0 659 -25 782 -60 20 -6 47
-19 60 -29 21 -18 23 -26 22 -118 -1 -95 -15 -156 -458 -1923 -251 -1004 -461
-1842 -467 -1862 l-10 -37 -612 -3 c-595 -3 -613 -4 -647 -23 -19 -12 -43 -35
-53 -53 -23 -40 -76 -243 -77 -292 0 -48 28 -100 69 -127 l34 -23 578 0 c319
0 579 -1 579 -2 0 -2 -198 -791 -439 -1753 -479 -1915 -462 -1857 -560 -1955
-103 -103 -295 -135 -866 -147 -422 -8 -403 2 -461 -231 -29 -114 -33 -140
-24 -173 14 -52 54 -96 98 -109 55 -16 4826 -8 4942 8 391 55 705 136 1034
267 834 331 1626 922 2276 1700 802 958 1316 2106 1489 3320 62 433 70 972 20
1360 -84 659 -312 1255 -652 1708 -474 631 -1132 994 -1932 1067 -70 6 -985
10 -2495 10 l-2385 0 -36 -21z m4546 -523 c608 -104 1063 -383 1367 -838 332
-495 444 -1163 342 -2038 -78 -680 -388 -1938 -649 -2640 -280 -752 -634
-1330 -1105 -1800 -564 -565 -1255 -924 -2005 -1042 -135 -21 -171 -22 -1065
-25 -910 -4 -1068 0 -1149 28 l-34 12 6 86 c4 69 95 446 451 1871 246 982 451
1802 457 1823 l10 37 1161 0 1161 0 34 21 c18 11 41 35 50 52 23 45 73 244 73
293 0 54 -33 103 -90 132 l-44 22 -1109 0 c-1051 0 -1108 1 -1103 18 3 9 212
845 465 1858 253 1012 472 1874 487 1914 59 165 114 207 294 229 41 5 485 8
985 7 807 -2 921 -4 1010 -20z"/>
</g>
</svg>
