<?xml version="1.0" standalone="no"?>
<!DOCTYPE svg PUBLIC "-//W3C//DTD SVG 20010904//EN"
 "http://www.w3.org/TR/2001/REC-SVG-20010904/DTD/svg10.dtd">
<svg version="1.0" xmlns="http://www.w3.org/2000/svg"
 width="272.000000pt" height="233.000000pt" viewBox="0 0 272.000000 233.000000"
 preserveAspectRatio="xMidYMid meet">
<metadata>
Created by potrace 1.16, written by Peter Selinger 2001-2019
</metadata>
<g transform="translate(0.000000,233.000000) scale(0.100000,-0.100000)"
fill="#000000" stroke="none">
<path d="M1455 2319 c-489 -63 -967 -352 -1230 -745 -103 -152 -176 -327 -205
-484 -15 -83 -15 -257 0 -339 57 -317 291 -574 622 -684 757 -253 1753 249
2009 1013 204 610 -163 1158 -831 1240 -99 12 -265 11 -365 -1z m305 -409
c165 -20 270 -63 347 -142 111 -113 126 -286 53 -586 -124 -508 -331 -710
-781 -763 -129 -15 -426 -6 -523 15 -131 29 -240 95 -292 177 -82 130 -69 386
37 709 118 361 341 546 709 589 108 12 351 13 450 1z"/>
</g>
</svg>
