<?xml version="1.0" standalone="no"?>
<!DOCTYPE svg PUBLIC "-//W3C//DTD SVG 20010904//EN"
 "http://www.w3.org/TR/2001/REC-SVG-20010904/DTD/svg10.dtd">
<svg version="1.0" xmlns="http://www.w3.org/2000/svg"
 width="301.000000pt" height="303.000000pt" viewBox="0 0 301.000000 303.000000"
 preserveAspectRatio="xMidYMid meet">
<metadata>
Created by potrace 1.16, written by Peter Selinger 2001-2019
</metadata>
<g transform="translate(0.000000,303.000000) scale(0.100000,-0.100000)"
fill="#000000" stroke="none">
<path d="M2723 3008 c-23 -13 -76 -48 -117 -78 -215 -155 -469 -291 -931 -500
-701 -316 -978 -483 -1246 -750 -200 -198 -347 -422 -399 -610 -29 -103 -37
-272 -17 -367 65 -305 297 -538 643 -646 197 -62 475 -73 709 -27 342 66 719
252 1049 516 221 176 555 526 576 603 21 77 -18 138 -159 249 -118 94 -171 82
-312 -71 -267 -289 -525 -465 -784 -533 -138 -36 -299 -39 -400 -6 -135 44
-205 122 -205 228 0 77 35 137 131 229 173 166 647 560 1336 1113 194 155 359
292 367 305 30 45 29 88 -3 187 -36 112 -50 134 -101 160 -51 26 -86 25 -137
-2z"/>
</g>
</svg>
