<?xml version="1.0" standalone="no"?>
<!DOCTYPE svg PUBLIC "-//W3C//DTD SVG 20010904//EN"
 "http://www.w3.org/TR/2001/REC-SVG-20010904/DTD/svg10.dtd">
<svg version="1.0" xmlns="http://www.w3.org/2000/svg"
 width="380.000000pt" height="558.000000pt" viewBox="0 0 380.000000 558.000000"
 preserveAspectRatio="xMidYMid meet">
<metadata>
Created by potrace 1.16, written by Peter Selinger 2001-2019
</metadata>
<g transform="translate(0.000000,558.000000) scale(0.100000,-0.100000)"
fill="#000000" stroke="none">
<path d="M2495 5574 c-588 -87 -1167 -500 -1655 -1184 -421 -590 -712 -1346
-817 -2120 -26 -192 -26 -684 0 -850 104 -665 402 -1138 838 -1327 190 -82
434 -113 626 -79 441 77 881 389 1291 914 301 387 561 879 734 1392 267 793
343 1560 212 2150 -132 592 -424 968 -839 1080 -60 16 -116 23 -220 25 -77 2
-153 1 -170 -1z m250 -535 c46 -17 76 -38 131 -93 135 -136 214 -331 271 -671
26 -157 26 -641 0 -835 -87 -640 -294 -1302 -563 -1795 -315 -578 -692 -987
-1008 -1096 -396 -137 -653 109 -696 665 -25 331 38 727 250 1576 161 639 246
915 372 1210 243 567 615 977 959 1055 87 20 207 13 284 -16z"/>
</g>
</svg>
