<?xml version="1.0" standalone="no"?>
<!DOCTYPE svg PUBLIC "-//W3C//DTD SVG 20010904//EN"
 "http://www.w3.org/TR/2001/REC-SVG-20010904/DTD/svg10.dtd">
<svg version="1.0" xmlns="http://www.w3.org/2000/svg"
 width="574.000000pt" height="875.000000pt" viewBox="0 0 574.000000 875.000000"
 preserveAspectRatio="xMidYMid meet">
<metadata>
Created by potrace 1.16, written by Peter Selinger 2001-2019
</metadata>
<g transform="translate(0.000000,875.000000) scale(0.100000,-0.100000)"
fill="#000000" stroke="none">
<path d="M2872 8739 c-405 -47 -866 -261 -1280 -594 -831 -668 -1428 -1788
-1568 -2945 -24 -198 -25 -603 0 -785 118 -896 599 -1504 1309 -1657 152 -32
430 -32 575 0 399 89 766 313 1154 704 l167 168 11 -43 c34 -133 100 -284 172
-390 83 -122 236 -261 360 -327 l46 -24 -126 -84 c-608 -405 -1023 -849 -1192
-1276 -84 -214 -111 -450 -72 -636 43 -206 134 -372 284 -516 217 -207 484
-316 813 -330 253 -12 468 36 710 156 266 132 478 323 659 595 87 131 119 200
113 241 -9 53 -33 83 -85 107 -57 25 -121 26 -156 4 -14 -10 -49 -52 -77 -95
-75 -112 -264 -296 -364 -353 -174 -101 -307 -134 -505 -127 -106 4 -139 10
-220 37 -126 43 -219 98 -312 189 -125 121 -194 245 -224 400 -59 308 62 639
355 968 160 180 409 385 661 542 l101 63 162 3 c142 3 173 6 252 30 232 70
417 218 582 466 186 280 326 658 508 1375 l49 190 -20 40 c-34 69 -58 80 -198
83 -137 4 -182 -7 -211 -52 -9 -14 -48 -146 -86 -293 -203 -784 -352 -1144
-559 -1354 -99 -100 -164 -136 -261 -145 -326 -31 -435 271 -328 908 11 68
243 1014 516 2103 491 1966 495 1981 491 2066 -3 68 -10 97 -32 142 -112 230
-449 263 -686 66 -74 -61 -131 -150 -166 -255 l-27 -84 -43 75 c-243 428 -619
659 -1063 654 -64 -1 -149 -5 -189 -10z m322 -343 c283 -55 501 -275 639 -646
44 -118 91 -310 112 -456 l16 -110 -354 -1417 -355 -1417 -106 -160 c-457
-685 -980 -1089 -1446 -1116 -375 -22 -636 246 -731 750 -16 83 -23 166 -26
328 -10 409 38 711 247 1548 116 466 192 736 264 945 202 590 443 1003 781
1340 334 334 651 469 959 411z"/>
</g>
</svg>
