<?xml version="1.0" standalone="no"?>
<!DOCTYPE svg PUBLIC "-//W3C//DTD SVG 20010904//EN"
 "http://www.w3.org/TR/2001/REC-SVG-20010904/DTD/svg10.dtd">
<svg version="1.0" xmlns="http://www.w3.org/2000/svg"
 width="710.000000pt" height="626.000000pt" viewBox="0 0 710.000000 626.000000"
 preserveAspectRatio="xMidYMid meet">
<metadata>
Created by potrace 1.16, written by Peter Selinger 2001-2019
</metadata>
<g transform="translate(0.000000,626.000000) scale(0.100000,-0.100000)"
fill="#000000" stroke="none">
<path d="M1295 6246 c-462 -90 -785 -470 -1045 -1232 -62 -182 -110 -346 -190
-654 -69 -262 -69 -278 -10 -335 l31 -30 169 -3 c183 -4 213 3 246 52 8 14 49
153 90 309 210 808 371 1186 590 1386 89 81 148 106 259 106 78 0 97 -4 147
-28 60 -30 97 -71 130 -144 65 -147 64 -465 -3 -803 -11 -58 -262 -1068 -557
-2245 -514 -2055 -536 -2144 -536 -2235 -1 -84 3 -102 27 -155 38 -82 70 -120
133 -162 269 -179 689 -10 805 324 11 32 222 868 469 1858 l450 1800 75 150
c221 444 455 784 725 1056 394 397 791 579 1270 583 138 1 162 -2 223 -22 76
-27 165 -88 220 -153 192 -224 231 -704 107 -1314 -115 -568 -347 -1319 -748
-2430 -173 -481 -199 -599 -189 -860 25 -629 472 -1065 1090 -1065 561 0 1079
407 1450 1137 141 277 250 561 333 868 40 148 38 178 -16 230 l-31 30 -172 3
c-242 4 -239 6 -301 -233 -134 -510 -334 -966 -540 -1230 -205 -261 -421 -388
-666 -389 -117 -1 -140 5 -190 50 -63 57 -75 107 -74 309 0 146 4 188 28 300
35 162 78 304 166 549 37 105 120 335 183 511 370 1031 614 1878 671 2325 57
444 11 802 -143 1108 -195 390 -581 625 -1116 683 -146 16 -434 6 -590 -20
-575 -96 -1064 -379 -1489 -861 -101 -114 -106 -118 -112 -92 -112 517 -436
850 -934 958 -102 22 -344 27 -435 10z"/>
</g>
</svg>
