<?xml version="1.0" standalone="no"?>
<!DOCTYPE svg PUBLIC "-//W3C//DTD SVG 20010904//EN"
 "http://www.w3.org/TR/2001/REC-SVG-20010904/DTD/svg10.dtd">
<svg version="1.0" xmlns="http://www.w3.org/2000/svg"
 width="926.000000pt" height="1260.000000pt" viewBox="0 0 926.000000 1260.000000"
 preserveAspectRatio="xMidYMid meet">
<metadata>
Created by potrace 1.16, written by Peter Selinger 2001-2019
</metadata>
<g transform="translate(0.000000,1260.000000) scale(0.100000,-0.100000)"
fill="#000000" stroke="none">
<path d="M5977 12590 c-414 -37 -799 -144 -1107 -307 -663 -350 -1038 -891
-1279 -1848 -59 -237 -87 -372 -221 -1066 -56 -288 -104 -534 -107 -546 l-5
-23 -615 0 -615 0 -40 -22 c-53 -30 -67 -62 -118 -265 -47 -191 -47 -221 -3
-274 51 -60 37 -59 683 -59 l592 0 -6 -27 c-4 -16 -152 -786 -331 -1713 -376
-1953 -407 -2107 -915 -4450 -190 -879 -201 -925 -257 -1060 -73 -178 -186
-325 -295 -386 -49 -27 -61 -29 -153 -29 -55 0 -125 7 -155 14 -56 14 -180 65
-180 75 0 3 20 14 45 25 66 29 187 116 237 169 102 109 165 227 204 381 68
266 -20 499 -233 614 -275 148 -692 38 -913 -242 -128 -161 -200 -402 -187
-625 29 -482 387 -830 939 -912 154 -23 328 -15 458 20 120 33 329 137 434
215 433 325 767 849 1038 1625 186 533 367 1243 564 2211 31 154 222 1137 424
2185 l367 1905 1452 3 c1380 2 1452 1 1447 -15 -16 -54 -957 -3831 -970 -3896
-62 -300 -27 -632 93 -883 69 -145 131 -234 231 -335 221 -221 509 -342 855
-356 314 -13 548 81 785 317 302 299 514 760 735 1600 63 241 64 259 5 315
l-31 30 -222 3 c-208 2 -224 1 -255 -18 -18 -11 -39 -35 -47 -52 -8 -18 -46
-156 -85 -306 -242 -939 -461 -1349 -738 -1378 -119 -13 -215 31 -264 123 -77
141 -80 448 -8 797 10 50 473 1911 1029 4135 556 2224 1011 4053 1011 4065 0
32 -36 84 -72 106 -32 19 -52 20 -466 20 -473 0 -481 -1 -518 -58 -9 -14 -63
-208 -120 -431 -74 -292 -103 -393 -103 -361 -10 425 -308 740 -846 893 -120
34 -265 64 -405 82 -136 19 -599 28 -743 15z m483 -510 c136 -12 266 -33 372
-60 93 -24 188 -59 188 -69 0 -4 -31 -29 -69 -55 -158 -108 -264 -266 -317
-475 -55 -216 -10 -409 126 -534 146 -136 351 -179 573 -123 225 57 414 201
524 398 19 35 33 56 30 48 -2 -8 -138 -554 -303 -1212 l-299 -1198 -1467 0
c-808 0 -1468 3 -1468 8 0 16 253 1319 296 1522 175 832 329 1270 496 1412
314 267 774 385 1318 338z m1507 -552 c-3 -8 -6 -5 -6 6 -1 11 2 17 5 13 3 -3
4 -12 1 -19z"/>
</g>
</svg>
