<?xml version="1.0" standalone="no"?>
<!DOCTYPE svg PUBLIC "-//W3C//DTD SVG 20010904//EN"
 "http://www.w3.org/TR/2001/REC-SVG-20010904/DTD/svg10.dtd">
<svg version="1.0" xmlns="http://www.w3.org/2000/svg"
 width="390.000000pt" height="1384.000000pt" viewBox="0 0 390.000000 1384.000000"
 preserveAspectRatio="xMidYMid meet">
<metadata>
Created by potrace 1.16, written by Peter Selinger 2001-2019
</metadata>
<g transform="translate(0.000000,1384.000000) scale(0.100000,-0.100000)"
fill="#000000" stroke="none">
<path d="M3517 13826 c-59 -22 -110 -59 -141 -104 -25 -36 -242 -896 -1703
-6739 -1396 -5584 -1673 -6704 -1667 -6738 15 -94 65 -166 146 -211 46 -25 63
-29 133 -29 70 0 87 4 133 29 50 28 95 73 120 122 6 12 763 3029 1682 6705
1446 5784 1670 6690 1665 6729 -21 142 -124 239 -264 247 -41 2 -80 -2 -104
-11z"/>
</g>
</svg>
