<?xml version="1.0" standalone="no"?>
<!DOCTYPE svg PUBLIC "-//W3C//DTD SVG 20010904//EN"
 "http://www.w3.org/TR/2001/REC-SVG-20010904/DTD/svg10.dtd">
<svg version="1.0" xmlns="http://www.w3.org/2000/svg"
 width="636.000000pt" height="976.000000pt" viewBox="0 0 636.000000 976.000000"
 preserveAspectRatio="xMidYMid meet">
<metadata>
Created by potrace 1.16, written by Peter Selinger 2001-2019
</metadata>
<g transform="translate(0.000000,976.000000) scale(0.100000,-0.100000)"
fill="#000000" stroke="none">
<path d="M2502 9611 l-213 -149 88 -47 c411 -222 774 -489 1100 -810 79 -77
143 -145 143 -150 0 -6 -71 -46 -157 -89 -87 -43 -456 -228 -820 -412 l-661
-334 65 -198 c36 -108 67 -198 68 -200 1 -2 404 200 896 448 l893 452 18 -24
c47 -61 222 -325 283 -428 97 -163 245 -468 314 -644 157 -403 248 -759 315
-1239 l5 -37 -47 62 c-141 187 -344 345 -561 435 -425 176 -1105 93 -1763
-215 -158 -74 -293 -152 -483 -277 -1049 -695 -1800 -1882 -1962 -3101 -26
-200 -24 -594 6 -783 64 -418 201 -758 424 -1057 326 -437 800 -708 1392 -796
134 -19 519 -17 670 5 616 90 1213 359 1749 787 657 524 1158 1238 1415 2020
50 149 186 690 235 926 204 1000 188 1932 -50 2787 -193 697 -564 1373 -1025
1873 -41 43 -82 89 -92 100 l-18 22 808 407 c444 224 810 409 813 412 7 7
-127 398 -136 396 -5 -1 -415 -207 -912 -457 l-903 -457 -72 59 c-426 345
-943 632 -1462 811 -81 28 -147 51 -148 51 -1 -1 -98 -68 -215 -149z m1408
-3714 c334 -87 594 -329 733 -682 154 -390 171 -932 51 -1583 -77 -421 -250
-1070 -374 -1407 -191 -520 -435 -919 -736 -1204 -619 -586 -1457 -739 -2009
-368 -134 90 -282 261 -358 412 -141 283 -177 681 -106 1184 55 391 299 1394
446 1831 222 662 536 1132 968 1450 286 210 592 341 904 386 146 20 361 12
481 -19z"/>
</g>
</svg>
