<?xml version="1.0" standalone="no"?>
<!DOCTYPE svg PUBLIC "-//W3C//DTD SVG 20010904//EN"
 "http://www.w3.org/TR/2001/REC-SVG-20010904/DTD/svg10.dtd">
<svg version="1.0" xmlns="http://www.w3.org/2000/svg"
 width="396.000000pt" height="937.000000pt" viewBox="0 0 396.000000 937.000000"
 preserveAspectRatio="xMidYMid meet">
<metadata>
Created by potrace 1.16, written by Peter Selinger 2001-2019
</metadata>
<g transform="translate(0.000000,937.000000) scale(0.100000,-0.100000)"
fill="#000000" stroke="none">
<path d="M2320 9294 c-459 -40 -850 -76 -868 -79 -18 -3 -47 -21 -66 -39 -28
-29 -38 -51 -61 -144 -30 -123 -28 -155 12 -203 46 -54 67 -59 240 -59 291 0
532 -27 631 -70 78 -35 91 -122 47 -334 -14 -66 -220 -898 -458 -1848 l-432
-1728 -655 -480 c-360 -265 -665 -493 -677 -508 -51 -60 -41 -128 34 -237 70
-101 122 -130 199 -109 12 3 226 156 475 339 250 183 455 332 456 331 1 0
-144 -584 -322 -1297 -183 -732 -331 -1345 -341 -1409 -20 -136 -14 -392 11
-505 35 -159 103 -322 184 -445 46 -70 159 -190 234 -247 261 -201 668 -277
967 -181 257 82 457 267 634 583 151 270 270 618 442 1290 l38 150 -20 39
c-34 70 -58 81 -198 84 -136 4 -182 -7 -211 -51 -9 -14 -49 -153 -90 -310
-133 -509 -223 -779 -335 -1012 -112 -231 -228 -373 -356 -436 -62 -31 -77
-34 -154 -34 -112 0 -165 21 -224 86 -123 137 -139 464 -46 919 17 80 225 921
463 1870 l432 1724 800 588 c440 323 808 599 818 613 32 43 33 97 3 157 -76
153 -159 213 -249 179 -13 -5 -288 -204 -611 -441 -323 -237 -589 -430 -591
-428 -2 2 199 813 446 1803 331 1323 449 1809 444 1832 -7 38 -46 88 -86 108
-15 8 -50 15 -76 14 -26 -1 -424 -34 -883 -75z"/>
</g>
</svg>
