<?xml version="1.0" standalone="no"?>
<!DOCTYPE svg PUBLIC "-//W3C//DTD SVG 20010904//EN"
 "http://www.w3.org/TR/2001/REC-SVG-20010904/DTD/svg10.dtd">
<svg version="1.0" xmlns="http://www.w3.org/2000/svg"
 width="688.000000pt" height="954.000000pt" viewBox="0 0 688.000000 954.000000"
 preserveAspectRatio="xMidYMid meet">
<metadata>
Created by potrace 1.16, written by Peter Selinger 2001-2019
</metadata>
<g transform="translate(0.000000,954.000000) scale(0.100000,-0.100000)"
fill="#000000" stroke="none">
<path d="M1553 9520 c-18 -10 -39 -30 -47 -42 -32 -50 -1498 -3164 -1503
-3193 -7 -44 20 -101 59 -125 30 -18 50 -20 254 -20 210 0 223 1 248 21 15 12
55 77 91 148 317 634 798 1210 1315 1577 419 297 852 459 1285 481 255 12 341
-43 565 -365 185 -263 272 -354 412 -427 168 -89 387 -98 658 -30 52 13 96 23
97 21 2 -1 -34 -61 -80 -132 -933 -1450 -1730 -2919 -2274 -4189 -310 -722
-588 -1505 -772 -2175 -118 -431 -132 -513 -111 -637 45 -273 287 -447 594
-430 342 19 642 246 750 567 13 41 47 166 75 277 223 889 542 1955 838 2798
726 2070 1590 3823 2689 5458 156 232 174 263 174 300 0 24 -9 56 -20 75 -34
56 -65 62 -292 62 -182 0 -206 -2 -234 -19 -18 -11 -80 -89 -149 -188 -365
-520 -631 -834 -875 -1030 -246 -198 -454 -285 -685 -287 -130 -1 -168 10
-225 65 -82 80 -122 203 -164 504 -15 105 -36 240 -46 302 -67 383 -215 580
-477 639 -142 31 -438 7 -694 -56 -357 -90 -732 -276 -1056 -526 -46 -35 -83
-62 -83 -60 0 2 52 113 115 247 67 143 115 256 115 274 0 44 -31 96 -71 117
-29 16 -59 18 -239 18 -186 0 -208 -2 -237 -20z"/>
</g>
</svg>
