<?xml version="1.0" standalone="no"?>
<!DOCTYPE svg PUBLIC "-//W3C//DTD SVG 20010904//EN"
 "http://www.w3.org/TR/2001/REC-SVG-20010904/DTD/svg10.dtd">
<svg version="1.0" xmlns="http://www.w3.org/2000/svg"
 width="883.000000pt" height="991.000000pt" viewBox="0 0 883.000000 991.000000"
 preserveAspectRatio="xMidYMid meet">
<metadata>
Created by potrace 1.16, written by Peter Selinger 2001-2019
</metadata>
<g transform="translate(0.000000,991.000000) scale(0.100000,-0.100000)"
fill="#000000" stroke="none">
<path d="M6567 9896 c-54 -20 -111 -60 -140 -98 -14 -18 -1063 -1891 -2332
-4163 -1268 -2271 -2318 -4149 -2333 -4172 -199 -309 -322 -448 -509 -574
-248 -168 -522 -246 -934 -267 -160 -9 -184 -17 -218 -74 -23 -37 -101 -343
-101 -395 0 -54 30 -104 78 -131 40 -22 43 -23 199 -13 87 6 362 16 610 23
471 12 1197 3 1732 -23 234 -12 235 -12 276 10 58 31 76 69 124 268 46 190 47
223 3 275 -34 40 -79 58 -144 58 -216 0 -422 66 -534 171 -107 102 -132 263
-62 404 11 22 25 56 32 75 6 20 214 399 461 842 l450 807 1492 1 1491 0 6 -73
c4 -39 31 -499 62 -1021 l55 -948 -26 -39 c-90 -137 -424 -219 -889 -219 -159
0 -194 -10 -232 -67 -25 -38 -104 -344 -104 -405 0 -56 29 -102 79 -128 39
-20 48 -20 273 -10 128 5 536 15 905 22 694 12 1450 4 2032 -24 244 -11 245
-11 286 11 58 31 76 68 125 268 47 191 47 221 3 274 -45 53 -72 59 -280 59
-365 0 -653 28 -743 73 -51 25 -90 88 -97 159 -2 24 -121 2041 -263 4483 -143
2442 -265 4454 -270 4471 -12 37 -54 79 -93 93 -43 17 -423 13 -470 -3z m-517
-4226 c66 -1125 120 -2064 120 -2087 l0 -43 -1295 0 c-712 0 -1295 3 -1295 6
0 18 2345 4201 2348 4187 1 -10 56 -938 122 -2063z"/>
</g>
</svg>
