<?xml version="1.0" standalone="no"?>
<!DOCTYPE svg PUBLIC "-//W3C//DTD SVG 20010904//EN"
 "http://www.w3.org/TR/2001/REC-SVG-20010904/DTD/svg10.dtd">
<svg version="1.0" xmlns="http://www.w3.org/2000/svg"
 width="956.000000pt" height="1118.000000pt" viewBox="0 0 956.000000 1118.000000"
 preserveAspectRatio="xMidYMid meet">
<metadata>
Created by potrace 1.16, written by Peter Selinger 2001-2019
</metadata>
<g transform="translate(0.000000,1118.000000) scale(0.100000,-0.100000)"
fill="#000000" stroke="none">
<path d="M9219 11157 c-19 -12 -277 -310 -575 -662 -298 -351 -545 -640 -550
-642 -5 -2 -46 28 -91 66 -722 610 -1673 830 -2703 625 -1649 -329 -3263
-1662 -4186 -3459 -402 -783 -650 -1600 -741 -2440 -24 -229 -25 -809 0 -1023
61 -535 184 -966 397 -1387 99 -197 182 -332 297 -486 l82 -110 -565 -667
c-390 -461 -568 -678 -576 -704 -14 -46 -4 -100 26 -135 13 -16 55 -50 94 -77
83 -57 138 -68 194 -42 26 12 185 194 574 653 297 350 542 641 546 646 3 6 46
-24 96 -65 918 -771 2193 -908 3537 -381 177 70 518 235 706 343 942 539 1816
1412 2421 2420 875 1458 1195 3159 852 4525 -120 477 -354 973 -618 1309 -45
59 -46 60 -27 80 75 84 1120 1326 1130 1343 17 32 13 111 -6 145 -18 29 -109
100 -170 132 -46 23 -103 20 -144 -7z m-3063 -958 c483 -47 918 -246 1246
-571 82 -82 214 -238 238 -283 11 -21 -163 -229 -2981 -3559 -1918 -2266
-2996 -3532 -3000 -3524 -18 33 -84 236 -114 353 -70 270 -95 470 -102 815
-13 619 76 1235 314 2175 328 1300 719 2199 1280 2940 159 210 253 318 431
499 544 551 1177 928 1827 1087 107 26 330 63 440 72 93 8 320 6 421 -4z
m1779 -1444 c77 -232 131 -501 156 -784 15 -177 6 -727 -16 -921 -104 -936
-436 -2237 -784 -3072 -304 -732 -693 -1341 -1166 -1827 -635 -654 -1399
-1063 -2185 -1172 -144 -20 -518 -18 -658 4 -460 72 -849 265 -1157 572 -76
76 -202 226 -229 273 -5 8 1049 1261 2985 3548 2838 3353 2993 3535 3004 3512
7 -12 29 -72 50 -133z"/>
</g>
</svg>
