<?xml version="1.0" standalone="no"?>
<!DOCTYPE svg PUBLIC "-//W3C//DTD SVG 20010904//EN"
 "http://www.w3.org/TR/2001/REC-SVG-20010904/DTD/svg10.dtd">
<svg version="1.0" xmlns="http://www.w3.org/2000/svg"
 width="569.000000pt" height="918.000000pt" viewBox="0 0 569.000000 918.000000"
 preserveAspectRatio="xMidYMid meet">
<metadata>
Created by potrace 1.16, written by Peter Selinger 2001-2019
</metadata>
<g transform="translate(0.000000,918.000000) scale(0.100000,-0.100000)"
fill="#000000" stroke="none">
<path d="M5140 9164 c-132 -34 -155 -52 -1205 -914 -555 -456 -1020 -844
-1032 -861 -17 -23 -23 -46 -23 -82 0 -44 8 -64 60 -152 33 -56 70 -111 83
-123 46 -43 115 -54 170 -26 80 41 2160 1250 2220 1291 183 123 285 324 257
507 -39 263 -280 426 -530 360z"/>
<path d="M2639 6250 c-205 -32 -406 -112 -599 -238 -229 -148 -450 -379 -624
-652 -118 -185 -270 -554 -282 -683 -4 -41 -1 -59 15 -84 37 -58 62 -65 252
-61 l169 3 30 30 c19 19 41 62 59 113 16 45 39 99 52 119 193 321 621 517
1038 475 165 -16 319 -59 576 -158 432 -168 618 -225 781 -240 41 -4 74 -11
74 -16 0 -11 -149 -180 -340 -388 -209 -228 -648 -666 -1235 -1235 -1025 -993
-1446 -1434 -1851 -1941 -275 -344 -605 -832 -733 -1081 -26 -53 -27 -108 -1
-151 32 -53 68 -62 243 -62 196 0 190 -4 306 188 114 189 214 322 339 454 227
236 426 341 647 342 241 1 369 -87 677 -464 267 -327 442 -456 688 -506 67
-13 113 -16 220 -11 561 25 1115 359 1545 931 230 306 423 695 527 1061 l41
143 -24 48 c-38 75 -65 84 -239 84 -121 0 -152 -4 -187 -19 -48 -22 -59 -41
-97 -165 -38 -123 -94 -239 -169 -354 -83 -125 -110 -158 -215 -265 -190 -193
-397 -326 -641 -411 -158 -55 -252 -70 -436 -70 -240 1 -347 27 -775 194 -445
173 -604 213 -862 214 -108 1 -164 5 -160 11 9 16 206 237 342 385 209 228
648 666 1235 1235 1025 993 1446 1434 1851 1941 250 314 507 684 663 958 100
176 109 211 71 274 -32 53 -68 62 -243 62 -198 0 -192 4 -305 -190 -46 -80
-149 -243 -228 -362 -163 -245 -253 -342 -373 -401 -60 -29 -73 -32 -156 -31
-218 3 -358 100 -642 449 -260 320 -412 441 -635 506 -83 24 -293 34 -389 19z"/>
</g>
</svg>
