<?xml version="1.0" standalone="no"?>
<!DOCTYPE svg PUBLIC "-//W3C//DTD SVG 20010904//EN"
 "http://www.w3.org/TR/2001/REC-SVG-20010904/DTD/svg10.dtd">
<svg version="1.0" xmlns="http://www.w3.org/2000/svg"
 width="575.000000pt" height="669.000000pt" viewBox="0 0 575.000000 669.000000"
 preserveAspectRatio="xMidYMid meet">
<metadata>
Created by potrace 1.16, written by Peter Selinger 2001-2019
</metadata>
<g transform="translate(0.000000,669.000000) scale(0.100000,-0.100000)"
fill="#000000" stroke="none">
<path d="M3354 6674 c-22 -11 -64 -61 -130 -157 -571 -818 -1285 -1594 -2070
-2248 -310 -259 -618 -490 -946 -710 -118 -79 -183 -129 -193 -149 -18 -34
-20 -93 -4 -123 7 -12 73 -85 148 -162 761 -781 1277 -1784 1496 -2905 28
-146 39 -171 88 -200 39 -24 141 -27 192 -6 78 33 87 86 60 357 -99 1006 -401
1961 -882 2787 l-95 162 59 53 c288 259 774 747 1007 1010 417 470 746 896
1081 1402 178 268 402 634 437 712 32 72 7 142 -62 178 -38 20 -146 19 -186
-1z"/>
<path d="M5474 6674 c-22 -11 -64 -61 -130 -157 -571 -818 -1285 -1594 -2070
-2248 -310 -259 -618 -490 -946 -710 -118 -79 -183 -129 -193 -149 -18 -34
-20 -93 -4 -123 7 -12 73 -85 148 -162 761 -781 1277 -1784 1496 -2905 28
-146 39 -171 88 -200 39 -24 141 -27 192 -6 78 33 87 86 60 357 -99 1006 -401
1961 -882 2787 l-95 162 59 53 c288 259 774 747 1007 1010 417 470 746 896
1081 1402 178 268 402 634 437 712 32 72 7 142 -62 178 -38 20 -146 19 -186
-1z"/>
</g>
</svg>
