<?xml version="1.0" standalone="no"?>
<!DOCTYPE svg PUBLIC "-//W3C//DTD SVG 20010904//EN"
 "http://www.w3.org/TR/2001/REC-SVG-20010904/DTD/svg10.dtd">
<svg version="1.0" xmlns="http://www.w3.org/2000/svg"
 width="844.000000pt" height="1214.000000pt" viewBox="0 0 844.000000 1214.000000"
 preserveAspectRatio="xMidYMid meet">
<metadata>
Created by potrace 1.16, written by Peter Selinger 2001-2019
</metadata>
<g transform="translate(0.000000,1214.000000) scale(0.100000,-0.100000)"
fill="#000000" stroke="none">
<path d="M7011 12125 c-192 -34 -434 -140 -621 -273 -108 -77 -304 -262 -393
-372 -344 -425 -519 -988 -451 -1449 41 -283 174 -526 365 -671 72 -54 192
-120 218 -120 6 0 11 -2 11 -5 0 -12 -4445 -7853 -4465 -7875 -12 -14 -44 -61
-71 -105 -311 -509 -748 -773 -1324 -801 -192 -10 -212 -25 -255 -194 -30
-117 -28 -153 12 -200 48 -58 65 -61 235 -50 84 5 331 15 548 21 409 12 1050
3 1545 -22 246 -13 260 -11 310 41 19 20 33 55 51 121 29 114 30 164 4 206
-33 54 -61 65 -183 75 -208 16 -359 70 -452 164 -88 88 -124 202 -105 335 10
68 49 185 75 225 8 12 17 35 22 51 4 16 230 421 502 901 l494 872 1499 0 c824
0 1498 -1 1499 -2 0 -2 34 -493 74 -1093 l73 -1089 -21 -56 c-30 -82 -110
-157 -212 -200 -181 -75 -315 -98 -610 -107 -221 -6 -240 -10 -284 -57 -28
-30 -71 -178 -71 -247 0 -57 31 -107 82 -132 33 -16 53 -17 264 -8 126 6 502
16 835 22 620 12 1275 4 1820 -22 225 -11 239 -11 275 7 21 11 46 31 56 45 21
27 67 196 68 242 0 42 -28 94 -64 120 -29 21 -44 22 -291 29 -354 9 -536 33
-607 81 -42 29 -74 77 -93 141 -11 36 -95 1256 -295 4266 -154 2319 -280 4234
-280 4256 0 40 0 40 57 58 89 28 298 139 403 214 109 77 304 262 393 372 344
425 519 988 451 1449 -54 371 -263 665 -554 781 -156 63 -369 84 -539 55z
m299 -349 c203 -57 330 -189 376 -392 24 -110 15 -335 -20 -504 -37 -175 -100
-416 -142 -539 -150 -439 -395 -696 -754 -792 -102 -27 -319 -33 -410 -10
-154 38 -285 133 -344 252 -55 110 -70 195 -63 373 6 164 26 279 98 556 91
351 172 534 319 721 148 187 366 312 615 353 56 9 270 -3 325 -18z m-1394
-6249 c75 -1137 135 -2070 132 -2072 -3 -3 -613 -4 -1356 -3 l-1351 3 1212
2140 1212 2140 7 -70 c4 -39 69 -1000 144 -2138z"/>
</g>
</svg>
