<?xml version="1.0" standalone="no"?>
<!DOCTYPE svg PUBLIC "-//W3C//DTD SVG 20010904//EN"
 "http://www.w3.org/TR/2001/REC-SVG-20010904/DTD/svg10.dtd">
<svg version="1.0" xmlns="http://www.w3.org/2000/svg"
 width="522.000000pt" height="887.000000pt" viewBox="0 0 522.000000 887.000000"
 preserveAspectRatio="xMidYMid meet">
<metadata>
Created by potrace 1.16, written by Peter Selinger 2001-2019
</metadata>
<g transform="translate(0.000000,887.000000) scale(0.100000,-0.100000)"
fill="#000000" stroke="none">
<path d="M3455 8859 c-662 -58 -1181 -352 -1515 -859 -151 -229 -275 -528
-355 -854 -49 -198 -58 -283 -52 -491 4 -157 9 -195 35 -296 90 -347 269 -604
547 -784 186 -122 272 -151 755 -260 414 -93 471 -109 570 -161 219 -115 371
-311 416 -534 24 -123 15 -290 -25 -435 -119 -431 -337 -724 -667 -892 -239
-122 -470 -168 -844 -167 -186 1 -246 4 -344 22 -327 60 -598 207 -741 402
-38 52 -43 70 -20 70 9 0 51 14 95 31 243 93 430 307 496 566 65 257 -5 475
-190 595 -142 92 -348 116 -529 64 -382 -112 -594 -407 -623 -866 -15 -240 45
-473 178 -687 73 -120 241 -288 374 -376 166 -110 451 -234 605 -262 19 -4 41
-10 48 -14 9 -6 -11 -98 -79 -372 -102 -407 -102 -409 -36 -475 36 -36 42 -37
221 -53 224 -20 374 -80 491 -196 55 -54 76 -83 93 -130 43 -115 26 -270 -47
-410 -46 -88 -169 -214 -267 -271 -301 -176 -798 -254 -1628 -254 -261 0 -283
-4 -329 -58 -33 -40 -94 -274 -84 -327 8 -43 50 -94 93 -111 64 -27 973 -13
1391 21 914 76 1470 290 1764 678 168 223 253 546 204 782 -21 103 -88 242
-159 326 -110 132 -321 260 -543 331 -57 18 -102 38 -101 43 2 6 28 107 57
226 l54 217 105 17 c412 68 789 223 1080 445 351 267 617 660 786 1165 109
323 139 486 139 740 -1 145 -5 200 -23 283 -68 321 -192 555 -410 772 -134
134 -246 214 -422 300 -165 81 -278 115 -709 210 -438 97 -489 117 -606 235
-120 121 -168 249 -168 445 0 90 6 138 27 223 72 290 203 518 382 663 150 123
329 190 570 214 278 29 536 -18 729 -132 76 -45 209 -170 243 -230 l22 -37
-92 -45 c-195 -95 -313 -236 -373 -444 -23 -80 -26 -107 -22 -195 3 -89 8
-111 35 -169 151 -322 623 -349 918 -53 89 89 135 160 170 262 46 132 60 227
59 393 -1 193 -26 299 -109 465 -113 228 -285 394 -540 522 -178 90 -385 149
-597 172 -112 13 -358 12 -503 0z"/>
</g>
</svg>
