<?xml version="1.0" standalone="no"?>
<!DOCTYPE svg PUBLIC "-//W3C//DTD SVG 20010904//EN"
 "http://www.w3.org/TR/2001/REC-SVG-20010904/DTD/svg10.dtd">
<svg version="1.0" xmlns="http://www.w3.org/2000/svg"
 width="588.000000pt" height="916.000000pt" viewBox="0 0 588.000000 916.000000"
 preserveAspectRatio="xMidYMid meet">
<metadata>
Created by potrace 1.16, written by Peter Selinger 2001-2019
</metadata>
<g transform="translate(0.000000,916.000000) scale(0.100000,-0.100000)"
fill="#000000" stroke="none">
<path d="M3868 9149 c-579 -61 -1168 -343 -1655 -791 -452 -416 -897 -1091
-1231 -1868 -232 -541 -432 -1173 -646 -2051 -243 -991 -330 -1569 -329 -2184
0 -557 88 -1026 253 -1355 379 -755 1244 -1074 2185 -805 342 97 735 300 1025
529 473 373 880 909 1243 1636 308 615 521 1230 772 2225 244 967 346 1557
377 2167 32 632 -66 1237 -261 1626 -215 428 -636 744 -1121 842 -193 39 -420
49 -612 29z m381 -359 c172 -42 322 -131 451 -266 241 -252 343 -609 312
-1092 -37 -588 -168 -1241 -562 -2812 -421 -1676 -666 -2457 -946 -3020 -144
-289 -281 -485 -483 -694 -287 -294 -588 -474 -911 -543 -123 -26 -366 -24
-472 5 -295 80 -527 298 -649 611 -88 225 -119 467 -100 778 39 629 187 1371
606 3043 284 1130 443 1691 622 2185 228 632 423 975 728 1280 316 318 639
491 1020 549 73 11 302 -3 384 -24z"/>
</g>
</svg>
