<?xml version="1.0" standalone="no"?>
<!DOCTYPE svg PUBLIC "-//W3C//DTD SVG 20010904//EN"
 "http://www.w3.org/TR/2001/REC-SVG-20010904/DTD/svg10.dtd">
<svg version="1.0" xmlns="http://www.w3.org/2000/svg"
 width="638.000000pt" height="626.000000pt" viewBox="0 0 638.000000 626.000000"
 preserveAspectRatio="xMidYMid meet">
<metadata>
Created by potrace 1.16, written by Peter Selinger 2001-2019
</metadata>
<g transform="translate(0.000000,626.000000) scale(0.100000,-0.100000)"
fill="#000000" stroke="none">
<path d="M2315 6249 c-420 -57 -826 -278 -1181 -641 -363 -371 -631 -837 -779
-1353 -42 -147 -40 -177 15 -230 l31 -30 169 -3 c239 -5 238 -5 301 212 181
632 574 1205 1007 1468 299 181 639 227 868 116 137 -66 260 -219 312 -388 64
-210 54 -515 -29 -900 -58 -269 -744 -2983 -778 -3077 -160 -444 -392 -771
-656 -923 -204 -117 -500 -117 -740 0 -111 54 -188 120 -140 120 26 0 134 49
200 91 93 58 202 178 253 277 51 97 92 248 92 336 0 288 -231 490 -540 473
-330 -19 -598 -244 -686 -577 -131 -498 146 -960 684 -1140 214 -71 503 -99
692 -66 402 71 793 356 1071 782 l40 62 43 -82 c204 -396 536 -647 993 -748
144 -32 452 -32 603 1 396 85 750 290 1076 623 363 371 631 837 779 1353 42
147 40 177 -15 230 l-31 30 -169 3 c-239 5 -238 5 -301 -212 -181 -632 -574
-1205 -1007 -1468 -299 -181 -639 -227 -868 -116 -88 42 -205 157 -252 245
-121 230 -135 537 -42 986 51 253 729 2955 774 3090 153 457 398 810 671 967
204 117 500 117 740 0 111 -54 188 -120 140 -120 -26 0 -134 -49 -200 -91 -93
-58 -202 -178 -253 -277 -51 -97 -92 -248 -92 -336 0 -288 231 -490 540 -473
330 19 598 244 686 577 131 498 -146 960 -684 1140 -214 71 -503 99 -692 66
-402 -71 -793 -356 -1071 -782 l-40 -62 -43 82 c-203 395 -539 649 -988 747
-108 23 -390 34 -503 18z"/>
</g>
</svg>
