<?xml version="1.0" standalone="no"?>
<!DOCTYPE svg PUBLIC "-//W3C//DTD SVG 20010904//EN"
 "http://www.w3.org/TR/2001/REC-SVG-20010904/DTD/svg10.dtd">
<svg version="1.0" xmlns="http://www.w3.org/2000/svg"
 width="433.000000pt" height="138.000000pt" viewBox="0 0 433.000000 138.000000"
 preserveAspectRatio="xMidYMid meet">
<metadata>
Created by potrace 1.16, written by Peter Selinger 2001-2019
</metadata>
<g transform="translate(0.000000,138.000000) scale(0.100000,-0.100000)"
fill="#000000" stroke="none">
<path d="M1535 1363 c-236 -50 -520 -216 -870 -509 -135 -113 -231 -200 -464
-424 -194 -186 -211 -210 -197 -285 8 -43 68 -112 113 -132 40 -16 91 -16 119
0 12 7 89 73 170 149 343 315 596 503 816 608 175 83 293 100 405 59 83 -32
174 -128 311 -331 219 -322 338 -427 540 -479 305 -78 698 97 1222 546 188
161 587 544 605 581 28 59 15 116 -38 172 -42 44 -78 62 -124 62 -50 0 -77
-18 -206 -139 -578 -539 -983 -771 -1219 -696 -109 34 -185 113 -366 380 -44
66 -106 150 -136 187 -107 130 -245 221 -378 253 -79 19 -212 18 -303 -2z"/>
</g>
</svg>
