<?xml version="1.0" standalone="no"?>
<!DOCTYPE svg PUBLIC "-//W3C//DTD SVG 20010904//EN"
 "http://www.w3.org/TR/2001/REC-SVG-20010904/DTD/svg10.dtd">
<svg version="1.0" xmlns="http://www.w3.org/2000/svg"
 width="997.000000pt" height="945.000000pt" viewBox="0 0 997.000000 945.000000"
 preserveAspectRatio="xMidYMid meet">
<metadata>
Created by potrace 1.16, written by Peter Selinger 2001-2019
</metadata>
<g transform="translate(0.000000,945.000000) scale(0.100000,-0.100000)"
fill="#000000" stroke="none">
<path d="M2369 9428 c-20 -11 -46 -37 -57 -57 -31 -57 -106 -374 -98 -416 9
-45 57 -101 99 -114 18 -5 181 -12 362 -15 448 -8 674 -32 719 -76 50 -49 60
1 -432 -1965 l-458 -1830 -615 -5 c-592 -5 -615 -6 -647 -25 -18 -11 -42 -33
-52 -50 -24 -39 -100 -341 -100 -397 0 -52 28 -101 72 -128 32 -19 52 -20 609
-20 l577 0 -428 -1710 c-286 -1142 -436 -1727 -454 -1764 -33 -68 -95 -132
-149 -156 -105 -47 -332 -69 -772 -76 -181 -3 -344 -10 -362 -15 -66 -21 -86
-60 -137 -265 -50 -205 -50 -230 -4 -289 46 -59 -118 -55 2455 -55 1508 0
2412 4 2488 10 1216 103 2460 821 3429 1980 927 1108 1478 2500 1535 3875 57
1387 -442 2543 -1360 3151 -356 236 -787 382 -1254 424 -70 6 -994 10 -2520
10 l-2410 0 -36 -22z m4551 -622 c252 -43 450 -106 645 -204 695 -348 1055
-1021 1055 -1977 0 -506 -87 -1040 -320 -1975 -216 -861 -378 -1348 -604
-1815 -116 -239 -188 -366 -331 -580 -233 -349 -482 -624 -780 -864 -516 -414
-1119 -674 -1745 -753 -163 -20 -1985 -18 -2055 3 l-50 14 3 65 c1 46 133 586
445 1835 l443 1770 1140 5 c874 4 1144 8 1160 17 52 30 70 68 113 237 22 91
41 187 41 213 0 54 -27 101 -75 130 -29 17 -81 18 -1126 21 l-1096 2 457 1830
c252 1006 468 1854 480 1885 41 101 99 135 266 155 38 4 467 7 954 5 769 -2
897 -4 980 -19z"/>
</g>
</svg>
