<?xml version="1.0" standalone="no"?>
<!DOCTYPE svg PUBLIC "-//W3C//DTD SVG 20010904//EN"
 "http://www.w3.org/TR/2001/REC-SVG-20010904/DTD/svg10.dtd">
<svg version="1.0" xmlns="http://www.w3.org/2000/svg"
 width="865.000000pt" height="1198.000000pt" viewBox="0 0 865.000000 1198.000000"
 preserveAspectRatio="xMidYMid meet">
<metadata>
Created by potrace 1.16, written by Peter Selinger 2001-2019
</metadata>
<g transform="translate(0.000000,1198.000000) scale(0.100000,-0.100000)"
fill="#000000" stroke="none">
<path d="M6280 11960 c-300 -64 -565 -275 -697 -555 -60 -127 -83 -225 -83
-354 0 -189 53 -325 175 -447 315 -315 901 -210 1230 220 67 88 138 236 165
340 25 98 27 264 5 351 -44 173 -162 319 -316 393 -148 71 -309 89 -479 52z"/>
<path d="M2700 9439 c-32 -13 -59 -38 -75 -70 -24 -45 -885 -2945 -885 -2979
0 -46 36 -104 80 -129 33 -19 54 -21 174 -21 147 0 184 8 224 52 15 16 45 98
88 234 182 580 348 952 572 1279 411 601 977 946 1754 1070 292 46 352 48
1461 52 581 2 1057 2 1057 -1 0 -4 -1581 -1906 -3513 -4229 -1932 -2322 -3525
-4238 -3540 -4257 -19 -26 -36 -77 -62 -180 -39 -159 -38 -185 11 -231 l26
-24 3001 -3 c2020 -2 3014 0 3037 7 82 24 45 -84 642 1838 584 1882 565 1812
521 1872 -46 61 -62 66 -224 69 -137 3 -152 2 -187 -18 -21 -12 -46 -35 -55
-50 -10 -16 -62 -169 -117 -342 -257 -811 -456 -1274 -715 -1663 -192 -289
-386 -491 -629 -654 -442 -298 -950 -448 -1661 -491 -167 -10 -2175 -15 -2175
-5 0 3 1562 1882 3472 4177 1910 2295 3500 4207 3533 4249 60 74 63 79 95 208
29 118 31 137 21 172 -8 27 -23 46 -44 59 -32 20 -75 20 -2947 19 -1897 0
-2924 -4 -2940 -10z"/>
</g>
</svg>
