<?xml version="1.0" standalone="no"?>
<!DOCTYPE svg PUBLIC "-//W3C//DTD SVG 20010904//EN"
 "http://www.w3.org/TR/2001/REC-SVG-20010904/DTD/svg10.dtd">
<svg version="1.0" xmlns="http://www.w3.org/2000/svg"
 width="469.000000pt" height="402.000000pt" viewBox="0 0 469.000000 402.000000"
 preserveAspectRatio="xMidYMid meet">
<metadata>
Created by potrace 1.16, written by Peter Selinger 2001-2019
</metadata>
<g transform="translate(0.000000,402.000000) scale(0.100000,-0.100000)"
fill="#000000" stroke="none">
<path d="M1260 4005 c-184 -38 -338 -123 -471 -261 -295 -307 -338 -771 -94
-1009 211 -205 636 -205 925 -1 66 47 69 48 64 29 -142 -635 -432 -1209 -883
-1753 -179 -216 -480 -509 -693 -675 -120 -94 -134 -144 -68 -243 64 -96 131
-115 212 -62 156 103 542 463 733 684 209 242 423 540 566 791 236 414 416
898 490 1320 26 152 36 429 20 546 -50 353 -208 560 -479 630 -88 22 -223 24
-322 4z"/>
<path d="M3870 4005 c-184 -38 -338 -123 -471 -261 -295 -307 -338 -771 -94
-1009 211 -205 636 -205 925 -1 66 47 69 48 64 29 -142 -635 -432 -1209 -883
-1753 -179 -216 -480 -509 -693 -675 -120 -94 -134 -144 -68 -243 64 -96 131
-115 212 -62 156 103 542 463 733 684 209 242 423 540 566 791 236 414 416
898 490 1320 26 152 36 429 20 546 -50 353 -208 560 -479 630 -88 22 -223 24
-322 4z"/>
</g>
</svg>
