<?xml version="1.0" standalone="no"?>
<!DOCTYPE svg PUBLIC "-//W3C//DTD SVG 20010904//EN"
 "http://www.w3.org/TR/2001/REC-SVG-20010904/DTD/svg10.dtd">
<svg version="1.0" xmlns="http://www.w3.org/2000/svg"
 width="640.000000pt" height="954.000000pt" viewBox="0 0 640.000000 954.000000"
 preserveAspectRatio="xMidYMid meet">
<metadata>
Created by potrace 1.16, written by Peter Selinger 2001-2019
</metadata>
<g transform="translate(0.000000,954.000000) scale(0.100000,-0.100000)"
fill="#000000" stroke="none">
<path d="M2420 9522 c-19 -9 -42 -30 -52 -47 -23 -41 -1198 -4744 -1198 -4797
0 -56 29 -102 79 -128 36 -18 59 -20 202 -20 197 0 204 3 304 133 91 118 305
339 425 439 254 212 559 374 845 449 299 78 573 88 743 29 186 -66 344 -240
427 -472 56 -158 69 -252 69 -498 -1 -371 -52 -673 -250 -1465 -163 -650 -254
-928 -408 -1250 -194 -404 -465 -737 -786 -965 -428 -304 -895 -413 -1327
-310 -364 87 -660 375 -788 765 -30 94 -61 243 -71 342 l-6 71 58 7 c169 19
361 97 482 195 137 112 250 294 292 470 27 115 27 265 0 352 -73 238 -303 380
-589 365 -223 -12 -420 -104 -577 -269 -146 -154 -216 -326 -271 -670 -26
-160 -26 -619 0 -758 115 -617 417 -1056 894 -1298 175 -89 334 -140 538 -174
120 -19 499 -16 650 6 1181 171 2310 1035 2900 2217 221 445 352 887 406 1379
16 148 17 534 1 675 -46 400 -172 761 -374 1066 -109 166 -312 372 -472 478
-418 278 -919 358 -1479 237 -343 -74 -706 -241 -998 -457 -52 -39 -79 -54
-75 -42 3 10 138 551 301 1203 163 651 298 1186 300 1188 2 3 39 -5 82 -16
509 -137 1101 -128 1673 24 342 92 722 249 1035 428 148 85 424 272 555 376
170 135 346 295 358 327 20 50 72 271 72 305 0 67 -64 128 -134 128 -14 0 -65
-17 -113 -39 -695 -305 -1480 -451 -2158 -401 -495 37 -920 153 -1323 361 -85
43 -166 79 -180 79 -15 0 -43 -8 -62 -18z"/>
</g>
</svg>
