<?xml version="1.0" standalone="no"?>
<!DOCTYPE svg PUBLIC "-//W3C//DTD SVG 20010904//EN"
 "http://www.w3.org/TR/2001/REC-SVG-20010904/DTD/svg10.dtd">
<svg version="1.0" xmlns="http://www.w3.org/2000/svg"
 width="695.000000pt" height="1233.000000pt" viewBox="0 0 695.000000 1233.000000"
 preserveAspectRatio="xMidYMid meet">
<metadata>
Created by potrace 1.16, written by Peter Selinger 2001-2019
</metadata>
<g transform="translate(0.000000,1233.000000) scale(0.100000,-0.100000)"
fill="#000000" stroke="none">
<path d="M3654 12319 c-84 -14 -214 -58 -298 -102 -480 -248 -710 -808 -498
-1212 49 -92 155 -198 247 -247 125 -65 201 -83 355 -83 167 0 256 22 415 100
164 80 295 189 406 335 66 86 143 244 170 350 29 110 31 284 5 380 -81 299
-347 493 -668 489 -46 -1 -106 -5 -134 -10z"/>
<path d="M6100 12316 c-260 -55 -496 -208 -665 -431 -62 -81 -139 -242 -166
-345 -29 -110 -31 -284 -5 -380 50 -187 167 -331 336 -413 125 -61 228 -82
370 -74 514 28 970 494 970 991 0 311 -170 543 -465 636 -89 28 -279 36 -375
16z"/>
<path d="M2368 9430 c-21 -11 -45 -32 -54 -45 -20 -30 -103 -356 -104 -404 0
-46 35 -105 79 -129 33 -18 62 -20 391 -26 372 -6 516 -15 664 -42 103 -19
122 -33 132 -101 7 -43 -88 -429 -958 -3909 -534 -2137 -975 -3882 -987 -3907
-34 -69 -103 -141 -160 -165 -112 -49 -340 -70 -821 -79 -329 -5 -358 -7 -391
-25 -52 -29 -71 -71 -119 -265 -47 -194 -47 -222 1 -278 47 -53 67 -56 329
-45 129 5 548 15 932 22 720 12 1657 3 2330 -23 272 -11 288 -11 325 7 21 11
47 33 59 51 25 38 104 345 104 405 0 55 -29 102 -77 126 -34 17 -71 20 -393
26 -346 6 -492 14 -635 37 -133 21 -159 44 -157 139 1 81 1914 7727 1949 7792
15 27 41 66 60 88 91 105 279 136 913 147 320 5 359 8 392 24 21 11 45 30 54
44 20 30 103 356 104 404 0 47 -36 105 -80 130 -38 21 -42 21 -297 11 -827
-32 -2071 -36 -2898 -10 -165 5 -379 12 -475 15 -163 5 -177 4 -212 -15z"/>
</g>
</svg>
