<?xml version="1.0" standalone="no"?>
<!DOCTYPE svg PUBLIC "-//W3C//DTD SVG 20010904//EN"
 "http://www.w3.org/TR/2001/REC-SVG-20010904/DTD/svg10.dtd">
<svg version="1.0" xmlns="http://www.w3.org/2000/svg"
 width="744.000000pt" height="1195.000000pt" viewBox="0 0 744.000000 1195.000000"
 preserveAspectRatio="xMidYMid meet">
<metadata>
Created by potrace 1.16, written by Peter Selinger 2001-2019
</metadata>
<g transform="translate(0.000000,1195.000000) scale(0.100000,-0.100000)"
fill="#000000" stroke="none">
<path d="M4481 11939 c-207 -23 -484 -94 -691 -176 -1166 -463 -2040 -1634
-2120 -2842 -12 -174 -2 -387 25 -544 118 -676 536 -1196 1130 -1407 50 -17
449 -134 887 -260 492 -141 826 -243 873 -264 330 -152 541 -452 622 -879 25
-132 25 -498 0 -655 -25 -160 -81 -375 -135 -522 -98 -266 -280 -587 -460
-809 -96 -119 -291 -315 -397 -400 -269 -216 -594 -375 -875 -428 -127 -24
-459 -23 -645 1 -700 92 -1170 394 -1420 911 -129 268 -180 520 -180 895 0
278 27 508 91 778 29 125 30 148 4 189 -32 53 -64 63 -200 63 -133 0 -177 -12
-205 -53 -19 -29 -785 -3086 -785 -3131 0 -43 20 -77 59 -103 45 -30 141 -32
188 -4 17 11 190 212 383 448 194 235 356 429 360 431 4 1 33 -32 65 -75 261
-349 685 -611 1185 -733 63 -15 162 -35 220 -45 58 -9 106 -18 108 -20 1 -1
-27 -120 -63 -264 -74 -297 -75 -313 -10 -370 41 -36 49 -38 175 -46 353 -21
594 -197 608 -445 6 -101 -18 -207 -68 -308 -130 -257 -421 -410 -916 -481
-211 -30 -413 -43 -809 -50 -351 -6 -361 -7 -391 -28 -44 -32 -68 -86 -69
-158 0 -71 24 -113 82 -140 35 -17 70 -18 503 -12 498 7 689 16 978 48 536 58
906 169 1167 350 94 65 241 216 288 298 89 150 127 289 127 458 0 92 -4 126
-25 192 -58 184 -215 344 -431 441 -61 28 -250 90 -317 105 -21 4 -27 10 -23
23 3 9 26 103 52 207 26 105 48 191 49 193 2 2 61 18 131 37 1142 297 2143
1368 2458 2630 77 307 101 526 93 848 -5 241 -22 368 -77 573 -153 576 -524
1007 -1041 1213 -42 16 -441 134 -885 262 -445 127 -848 248 -895 269 -236
101 -440 306 -544 548 -129 296 -149 664 -58 1047 142 602 559 1173 1101 1508
434 268 866 344 1378 242 511 -103 858 -411 1033 -918 143 -416 168 -988 71
-1645 -30 -200 -26 -225 39 -269 31 -21 45 -23 158 -23 135 0 179 11 207 54
14 23 786 3101 786 3138 0 32 -29 78 -63 98 -42 26 -139 27 -184 3 -19 -11
-175 -193 -379 -440 -191 -233 -350 -423 -353 -423 -3 0 -29 37 -58 83 -267
425 -701 686 -1288 773 -122 18 -508 26 -624 13z"/>
</g>
</svg>
