<?xml version="1.0" standalone="no"?>
<!DOCTYPE svg PUBLIC "-//W3C//DTD SVG 20010904//EN"
 "http://www.w3.org/TR/2001/REC-SVG-20010904/DTD/svg10.dtd">
<svg version="1.0" xmlns="http://www.w3.org/2000/svg"
 width="1345.000000pt" height="1260.000000pt" viewBox="0 0 1345.000000 1260.000000"
 preserveAspectRatio="xMidYMid meet">
<metadata>
Created by potrace 1.16, written by Peter Selinger 2001-2019
</metadata>
<g transform="translate(0.000000,1260.000000) scale(0.100000,-0.100000)"
fill="#000000" stroke="none">
<path d="M5920 12594 c-688 -64 -1236 -315 -1623 -743 -89 -98 -221 -290 -296
-431 -123 -233 -250 -587 -341 -954 -49 -197 -158 -733 -281 -1383 l-54 -283
-588 0 c-641 0 -629 1 -678 -58 -27 -31 -89 -250 -89 -313 0 -45 36 -103 80
-128 37 -21 46 -21 604 -21 394 0 566 -3 566 -11 0 -16 -707 -3685 -816 -4234
-264 -1331 -582 -2740 -685 -3030 -124 -354 -320 -576 -522 -592 -137 -11
-329 38 -441 112 -31 20 -56 40 -56 44 0 4 19 13 43 20 98 30 200 93 287 181
95 95 141 165 181 279 70 198 58 366 -36 507 -109 165 -347 241 -580 185 -153
-37 -266 -103 -376 -219 -130 -135 -204 -318 -216 -532 -14 -248 66 -465 236
-643 159 -166 348 -265 621 -323 63 -14 129 -18 255 -19 155 0 179 3 270 28
351 96 692 385 988 837 287 440 516 1049 762 2030 159 633 231 987 715 3505
187 974 345 1794 351 1823 l10 52 1620 0 c1206 0 1619 -3 1619 -11 0 -17 -694
-3618 -801 -4159 -346 -1744 -579 -2612 -779 -2911 -254 -379 -618 -677 -925
-759 -184 -48 -475 -32 -705 41 -74 23 -230 96 -229 107 0 4 41 27 92 51 76
37 105 58 177 130 95 96 141 166 181 280 70 198 58 366 -36 507 -109 165 -347
241 -580 185 -153 -37 -266 -103 -376 -219 -239 -249 -285 -669 -108 -968 46
-79 174 -211 262 -272 181 -125 426 -214 712 -259 155 -24 514 -24 641 0 470
89 915 334 1317 726 298 290 455 512 631 891 213 459 423 1150 620 2045 90
409 138 654 516 2615 198 1031 365 1899 371 1928 l10 52 1500 0 c987 0 1499
-3 1499 -10 0 -5 -222 -900 -494 -1987 -272 -1088 -502 -2021 -512 -2073 -21
-117 -24 -381 -5 -495 75 -462 363 -815 777 -955 153 -52 234 -65 414 -65 141
0 177 4 250 23 334 91 583 327 798 758 141 284 262 641 402 1192 46 182 46
204 -11 258 l-30 29 -172 3 c-248 4 -239 11 -312 -279 -238 -952 -452 -1408
-721 -1540 -63 -31 -77 -34 -159 -34 -78 0 -97 4 -147 28 -60 30 -97 71 -130
144 -65 147 -64 465 3 803 11 58 477 1931 1035 4164 558 2232 1014 4068 1014
4080 0 32 -36 84 -72 106 -31 19 -51 20 -416 20 -419 0 -431 -2 -468 -58 -9
-14 -61 -199 -115 -411 -82 -327 -97 -377 -98 -329 -1 31 -7 90 -15 132 -90
466 -577 747 -1401 807 -194 14 -558 6 -740 -16 -438 -53 -846 -191 -1154
-391 -565 -368 -885 -912 -1109 -1884 -40 -171 -121 -576 -238 -1192 l-59
-308 -1623 0 -1622 0 5 23 c3 12 59 301 125 642 149 773 176 906 245 1209 140
616 264 963 392 1097 264 278 695 436 1128 416 241 -12 451 -60 608 -138 l78
-40 -93 -46 c-75 -38 -108 -62 -178 -132 -95 -96 -141 -166 -181 -280 -70
-198 -58 -366 36 -507 109 -165 347 -241 580 -185 153 37 266 103 376 219 203
212 271 553 168 835 -127 348 -522 589 -1094 667 -83 11 -505 21 -585 14z
m5045 -434 c204 -31 375 -78 489 -137 l39 -20 -84 -44 c-99 -51 -233 -178
-288 -272 -72 -123 -120 -314 -106 -425 21 -168 114 -302 256 -366 201 -92
432 -69 645 66 78 49 199 175 242 253 18 33 32 51 29 40 -2 -11 -140 -568
-308 -1237 l-304 -1218 -1518 0 c-1441 0 -1518 1 -1513 18 3 9 59 301 126 647
222 1157 317 1556 454 1917 95 249 173 364 330 482 240 180 537 285 906 320
111 10 469 -4 605 -24z"/>
</g>
</svg>
