<?xml version="1.0" standalone="no"?>
<!DOCTYPE svg PUBLIC "-//W3C//DTD SVG 20010904//EN"
 "http://www.w3.org/TR/2001/REC-SVG-20010904/DTD/svg10.dtd">
<svg version="1.0" xmlns="http://www.w3.org/2000/svg"
 width="648.000000pt" height="1248.000000pt" viewBox="0 0 648.000000 1248.000000"
 preserveAspectRatio="xMidYMid meet">
<metadata>
Created by potrace 1.16, written by Peter Selinger 2001-2019
</metadata>
<g transform="translate(0.000000,1248.000000) scale(0.100000,-0.100000)"
fill="#000000" stroke="none">
<path d="M5005 12466 c-27 -12 -2079 -1731 -2182 -1828 -53 -49 -71 -101 -55
-157 14 -46 189 -276 235 -308 23 -17 46 -23 84 -23 63 0 -57 -88 991 734 448
350 815 636 817 634 2 -2 236 -302 519 -668 346 -445 527 -671 549 -682 36
-21 112 -23 143 -5 11 7 91 67 177 135 135 106 158 129 173 167 13 35 14 53 7
83 -7 26 -230 358 -633 943 -343 497 -630 914 -639 926 -40 55 -124 77 -186
49z"/>
<path d="M2368 9430 c-21 -11 -45 -32 -54 -45 -20 -30 -103 -356 -104 -404 0
-46 35 -105 79 -129 33 -18 62 -20 391 -26 372 -6 516 -15 664 -42 103 -19
122 -33 132 -101 7 -43 -88 -429 -958 -3909 -534 -2137 -975 -3882 -987 -3907
-34 -69 -103 -141 -160 -165 -112 -49 -340 -70 -821 -79 -329 -5 -358 -7 -391
-25 -52 -29 -71 -71 -119 -265 -47 -194 -47 -222 1 -278 47 -53 67 -56 329
-45 129 5 548 15 932 22 720 12 1657 3 2330 -23 272 -11 288 -11 325 7 21 11
47 33 59 51 25 38 104 345 104 405 0 55 -29 102 -77 126 -34 17 -71 20 -393
26 -346 6 -492 14 -635 37 -133 21 -159 44 -157 139 1 81 1914 7727 1949 7792
15 27 41 66 60 88 91 105 279 136 913 147 320 5 359 8 392 24 21 11 45 30 54
44 20 30 103 356 104 404 0 47 -36 105 -80 130 -38 21 -42 21 -297 11 -827
-32 -2071 -36 -2898 -10 -165 5 -379 12 -475 15 -163 5 -177 4 -212 -15z"/>
</g>
</svg>
