<?xml version="1.0" standalone="no"?>
<!DOCTYPE svg PUBLIC "-//W3C//DTD SVG 20010904//EN"
 "http://www.w3.org/TR/2001/REC-SVG-20010904/DTD/svg10.dtd">
<svg version="1.0" xmlns="http://www.w3.org/2000/svg"
 width="597.000000pt" height="916.000000pt" viewBox="0 0 597.000000 916.000000"
 preserveAspectRatio="xMidYMid meet">
<metadata>
Created by potrace 1.16, written by Peter Selinger 2001-2019
</metadata>
<g transform="translate(0.000000,916.000000) scale(0.100000,-0.100000)"
fill="#000000" stroke="none">
<path d="M4040 9153 c-248 -24 -412 -55 -595 -114 -386 -123 -704 -308 -1105
-642 -193 -162 -520 -490 -654 -657 -219 -273 -404 -583 -535 -896 -143 -342
-280 -866 -328 -1259 -18 -156 -21 -491 -4 -620 58 -436 253 -892 529 -1236
311 -387 776 -577 1357 -556 376 14 719 145 1054 402 194 149 409 373 565 592
33 46 61 81 63 79 3 -2 -16 -83 -41 -179 -308 -1177 -630 -1919 -1110 -2556
-159 -211 -419 -483 -607 -635 -271 -219 -584 -378 -862 -438 -144 -31 -446
-31 -620 0 -288 53 -487 164 -599 336 -49 77 -49 86 5 86 61 0 181 36 262 78
91 48 219 173 267 262 65 119 83 190 83 325 -1 147 -20 206 -97 290 -95 104
-198 145 -363 145 -178 0 -344 -69 -469 -195 -115 -116 -162 -213 -207 -425
-32 -150 -32 -388 -1 -514 99 -399 394 -654 887 -769 182 -42 282 -52 535 -52
199 1 255 4 364 24 658 116 1302 487 1927 1111 227 227 364 381 543 614 474
616 835 1287 1110 2060 204 572 426 1519 511 2180 48 374 67 824 46 1121 -24
348 -96 720 -186 960 -223 598 -695 992 -1282 1070 -96 13 -348 18 -443 8z
m395 -398 c313 -86 534 -382 610 -820 45 -259 24 -592 -71 -1145 -44 -257
-102 -548 -114 -570 -5 -9 -25 -91 -44 -181 -216 -1001 -720 -1879 -1306
-2271 -245 -164 -479 -243 -750 -255 -353 -15 -596 92 -755 332 -134 202 -205
464 -205 763 0 327 62 676 261 1477 164 657 235 899 350 1190 170 433 420 799
730 1072 305 267 558 382 939 427 75 9 296 -3 355 -19z"/>
</g>
</svg>
