<?xml version="1.0" standalone="no"?>
<!DOCTYPE svg PUBLIC "-//W3C//DTD SVG 20010904//EN"
 "http://www.w3.org/TR/2001/REC-SVG-20010904/DTD/svg10.dtd">
<svg version="1.0" xmlns="http://www.w3.org/2000/svg"
 width="655.000000pt" height="1184.000000pt" viewBox="0 0 655.000000 1184.000000"
 preserveAspectRatio="xMidYMid meet">
<metadata>
Created by potrace 1.16, written by Peter Selinger 2001-2019
</metadata>
<g transform="translate(0.000000,1184.000000) scale(0.100000,-0.100000)"
fill="#000000" stroke="none">
<path d="M3415 11823 c-267 -57 -511 -246 -635 -493 -55 -110 -81 -201 -87
-312 -10 -177 46 -329 166 -449 191 -191 497 -222 785 -80 279 137 475 396
516 682 37 260 -98 513 -330 616 -114 51 -279 66 -415 36z"/>
<path d="M5777 11820 c-58 -12 -124 -36 -190 -69 -280 -137 -476 -396 -517
-682 -37 -259 98 -513 329 -616 259 -116 605 -36 854 196 171 160 272 364 284
573 10 177 -46 329 -166 449 -147 147 -356 199 -594 149z"/>
<path d="M2275 9052 c-51 -33 -66 -58 -91 -154 -30 -119 -31 -165 -1 -209 42
-63 68 -69 292 -69 362 0 670 -26 793 -66 76 -25 87 -46 85 -159 -1 -84 -67
-353 -933 -3815 -512 -2048 -943 -3754 -957 -3790 -31 -79 -79 -154 -124 -197
-99 -94 -324 -130 -869 -140 -341 -6 -362 -9 -400 -62 -27 -38 -73 -227 -65
-268 7 -39 46 -88 86 -109 26 -13 62 -13 272 -4 133 5 521 15 862 21 637 12
1463 3 2107 -22 272 -11 289 -10 324 7 54 27 72 58 101 170 28 110 26 157 -6
202 -39 56 -68 62 -288 62 -353 0 -659 25 -791 65 -75 23 -87 46 -86 165 1 91
39 245 933 3817 512 2047 943 3752 957 3789 60 148 136 225 261 264 136 42
469 70 841 70 221 0 238 3 284 59 17 19 34 65 52 136 30 122 26 162 -21 207
-53 49 -55 49 -325 38 -924 -37 -1972 -35 -3098 6 -152 5 -167 4 -195 -14z"/>
</g>
</svg>
