<?xml version="1.0" standalone="no"?>
<!DOCTYPE svg PUBLIC "-//W3C//DTD SVG 20010904//EN"
 "http://www.w3.org/TR/2001/REC-SVG-20010904/DTD/svg10.dtd">
<svg version="1.0" xmlns="http://www.w3.org/2000/svg"
 width="835.000000pt" height="750.000000pt" viewBox="0 0 835.000000 750.000000"
 preserveAspectRatio="xMidYMid meet">
<metadata>
Created by potrace 1.16, written by Peter Selinger 2001-2019
</metadata>
<g transform="translate(0.000000,750.000000) scale(0.100000,-0.100000)"
fill="#000000" stroke="none">
<path d="M8135 7490 c-35 -9 -8040 -3584 -8071 -3605 -36 -23 -67 -100 -62
-150 11 -97 -222 43 3175 -1910 1720 -989 3144 -1805 3165 -1812 106 -36 230
66 215 178 -13 96 196 -30 -3030 1824 -1637 941 -2976 1712 -2976 1715 0 3
1728 777 3841 1720 2113 943 3856 1724 3872 1735 49 33 76 81 76 137 0 57 -17
96 -60 131 -26 22 -92 49 -110 46 -3 -1 -18 -5 -35 -9z"/>
</g>
</svg>
