<?xml version="1.0" standalone="no"?>
<!DOCTYPE svg PUBLIC "-//W3C//DTD SVG 20010904//EN"
 "http://www.w3.org/TR/2001/REC-SVG-20010904/DTD/svg10.dtd">
<svg version="1.0" xmlns="http://www.w3.org/2000/svg"
 width="1074.000000pt" height="945.000000pt" viewBox="0 0 1074.000000 945.000000"
 preserveAspectRatio="xMidYMid meet">
<metadata>
Created by potrace 1.16, written by Peter Selinger 2001-2019
</metadata>
<g transform="translate(0.000000,945.000000) scale(0.100000,-0.100000)"
fill="#000000" stroke="none">
<path d="M2550 9433 c-19 -10 -44 -32 -56 -50 -24 -36 -104 -343 -104 -400 0
-53 30 -104 76 -130 37 -21 51 -23 239 -23 343 0 641 -25 772 -65 55 -16 144
-87 167 -134 7 -14 316 -900 686 -1967 l672 -1942 -1382 -1623 c-760 -893
-1393 -1633 -1407 -1644 -14 -11 -87 -81 -162 -156 -264 -264 -526 -426 -873
-540 -244 -81 -502 -124 -803 -135 -88 -3 -174 -10 -192 -16 -66 -20 -86 -59
-137 -264 -51 -208 -51 -233 0 -293 39 -47 69 -52 254 -41 91 5 386 15 657 22
512 12 1344 3 1924 -23 244 -11 259 -11 295 7 21 11 48 33 60 51 25 38 104
344 104 404 0 53 -31 104 -79 128 -22 11 -70 21 -126 25 -161 11 -271 53 -361
138 -74 69 -104 132 -104 219 0 80 18 135 66 201 19 27 39 59 44 71 8 22 2414
2850 2428 2854 4 2 260 -725 568 -1615 l562 -1617 -37 -33 c-20 -17 -81 -54
-136 -82 -164 -81 -336 -123 -561 -138 -133 -9 -161 -20 -193 -74 -24 -39
-101 -344 -101 -400 0 -56 29 -102 80 -128 39 -20 47 -20 303 -10 972 38 2022
38 2892 -1 258 -11 261 -11 303 10 23 12 49 32 58 46 20 30 103 356 104 404 0
47 -35 105 -80 130 -35 19 -53 21 -236 21 -348 0 -636 24 -771 65 -71 21 -154
97 -182 167 -22 57 -1540 4435 -1544 4455 -2 11 2248 2661 2281 2687 8 6 75
72 150 146 317 314 633 494 1057 600 220 55 491 89 719 90 104 0 152 20 183
79 11 20 39 114 63 208 47 194 47 222 -1 278 -46 52 -72 56 -259 45 -91 -5
-386 -15 -657 -22 -510 -12 -1336 -3 -1921 23 -237 11 -256 10 -293 -7 -22 -9
-50 -31 -61 -47 -23 -32 -107 -351 -108 -406 0 -18 10 -50 21 -71 31 -55 78
-76 180 -83 164 -11 294 -61 378 -145 68 -68 94 -129 94 -216 0 -77 -19 -133
-71 -209 -16 -23 -38 -57 -48 -74 -25 -42 -1918 -2263 -1922 -2255 -2 4 -209
601 -462 1327 l-458 1320 35 32 c81 74 313 168 488 198 50 8 145 19 211 23
133 9 161 20 193 74 23 37 101 343 101 395 0 54 -30 104 -78 131 l-40 23 -249
-10 c-792 -32 -1997 -37 -2638 -11 -577 23 -537 23 -575 3z"/>
</g>
</svg>
