<?xml version="1.0" standalone="no"?>
<!DOCTYPE svg PUBLIC "-//W3C//DTD SVG 20010904//EN"
 "http://www.w3.org/TR/2001/REC-SVG-20010904/DTD/svg10.dtd">
<svg version="1.0" xmlns="http://www.w3.org/2000/svg"
 width="548.000000pt" height="603.000000pt" viewBox="0 0 548.000000 603.000000"
 preserveAspectRatio="xMidYMid meet">
<metadata>
Created by potrace 1.16, written by Peter Selinger 2001-2019
</metadata>
<g transform="translate(0.000000,603.000000) scale(0.100000,-0.100000)"
fill="#000000" stroke="none">
<path d="M4801 6014 c-129 -27 -282 -120 -376 -227 -65 -74 -109 -150 -140
-242 -24 -70 -27 -92 -23 -175 5 -125 36 -193 142 -310 201 -221 316 -468 368
-785 19 -121 16 -454 -6 -595 -36 -234 -203 -852 -345 -1279 -343 -1035 -749
-1670 -1233 -1931 -304 -164 -686 -171 -945 -19 -32 19 -96 72 -143 119 -130
129 -197 274 -242 520 -28 152 -30 482 -5 672 77 578 240 1129 722 2448 111
303 150 443 166 602 38 375 -90 747 -330 959 -222 197 -558 287 -864 234 -537
-94 -975 -535 -1312 -1321 -54 -125 -182 -506 -215 -640 -23 -90 -23 -91 -4
-129 34 -69 59 -80 198 -83 197 -6 212 7 266 216 18 70 57 204 87 297 263 814
607 1259 1026 1325 103 17 197 8 251 -24 149 -87 155 -414 15 -896 -17 -58
-89 -262 -159 -455 -494 -1351 -659 -1912 -710 -2419 -8 -75 -11 -201 -7 -345
4 -191 9 -245 31 -347 129 -608 488 -972 1106 -1124 178 -43 285 -55 510 -55
161 0 223 4 290 19 357 77 638 241 936 547 469 483 877 1299 1190 2384 112
385 283 1098 342 1425 59 322 76 484 76 740 0 205 -3 248 -22 337 -45 209 -99
321 -206 429 -76 75 -125 104 -221 129 -71 18 -128 18 -214 -1z"/>
</g>
</svg>
