<?xml version="1.0" standalone="no"?>
<!DOCTYPE svg PUBLIC "-//W3C//DTD SVG 20010904//EN"
 "http://www.w3.org/TR/2001/REC-SVG-20010904/DTD/svg10.dtd">
<svg version="1.0" xmlns="http://www.w3.org/2000/svg"
 width="725.000000pt" height="949.000000pt" viewBox="0 0 725.000000 949.000000"
 preserveAspectRatio="xMidYMid meet">
<metadata>
Created by potrace 1.16, written by Peter Selinger 2001-2019
</metadata>
<g transform="translate(0.000000,949.000000) scale(0.100000,-0.100000)"
fill="#000000" stroke="none">
<path d="M4295 9475 c-227 -50 -462 -184 -770 -439 -126 -104 -697 -663 -746
-730 -33 -45 -39 -117 -15 -164 17 -34 159 -163 203 -185 37 -19 80 -22 119
-7 15 6 78 59 140 119 239 230 384 351 553 463 245 162 437 218 592 172 118
-35 200 -103 472 -396 197 -211 332 -302 517 -349 327 -83 746 110 1253 576
62 57 223 215 358 351 274 277 285 292 260 377 -14 46 -108 144 -190 198 -53
34 -120 39 -163 11 -14 -9 -102 -88 -195 -176 -535 -504 -879 -667 -1140 -538
-82 39 -165 114 -343 307 -236 256 -370 355 -550 404 -88 25 -258 27 -355 6z"/>
<path d="M1320 6241 c-463 -102 -799 -496 -1071 -1254 -56 -155 -127 -393
-194 -647 -63 -241 -64 -259 -5 -315 l31 -30 222 -3 c208 -2 224 -1 255 18 18
11 39 35 47 52 8 18 46 156 85 306 181 702 337 1078 524 1266 71 70 138 105
220 113 131 12 232 -47 275 -161 59 -159 57 -426 -5 -741 -8 -44 -256 -1045
-551 -2225 -508 -2037 -534 -2149 -530 -2215 10 -141 69 -251 175 -322 159
-107 367 -110 570 -8 48 24 113 67 144 95 65 57 136 159 169 240 12 30 223
860 470 1845 l448 1789 72 141 c308 601 647 1023 1030 1280 108 73 299 166
418 205 189 61 487 95 616 71 131 -25 249 -106 327 -225 139 -214 160 -648 57
-1161 -111 -558 -351 -1337 -744 -2420 -141 -390 -170 -494 -187 -673 -50
-521 224 -1002 667 -1173 174 -68 253 -82 450 -83 143 -1 196 3 260 18 130 30
223 65 346 128 484 248 910 835 1169 1607 32 97 70 222 85 278 31 117 27 149
-26 199 l-30 29 -222 3 c-300 3 -287 12 -351 -233 -52 -195 -143 -463 -216
-635 -220 -516 -496 -816 -803 -875 -183 -35 -267 -11 -320 90 -29 56 -36 242
-13 386 34 213 78 358 271 889 439 1208 699 2090 760 2582 17 141 20 459 5
575 -46 342 -182 631 -388 825 -194 182 -475 311 -797 364 -85 15 -164 19
-345 19 -265 0 -374 -13 -596 -70 -466 -119 -900 -389 -1255 -777 l-88 -98
-11 43 c-86 339 -331 638 -641 781 -179 83 -325 115 -539 122 -127 3 -171 1
-240 -15z"/>
</g>
</svg>
