<?xml version="1.0" standalone="no"?>
<!DOCTYPE svg PUBLIC "-//W3C//DTD SVG 20010904//EN"
 "http://www.w3.org/TR/2001/REC-SVG-20010904/DTD/svg10.dtd">
<svg version="1.0" xmlns="http://www.w3.org/2000/svg"
 width="995.000000pt" height="946.000000pt" viewBox="0 0 995.000000 946.000000"
 preserveAspectRatio="xMidYMid meet">
<metadata>
Created by potrace 1.16, written by Peter Selinger 2001-2019
</metadata>
<g transform="translate(0.000000,946.000000) scale(0.100000,-0.100000)"
fill="#000000" stroke="none">
<path d="M2370 9442 c-19 -9 -44 -31 -56 -49 -24 -36 -104 -343 -104 -400 0
-52 30 -104 74 -129 35 -20 56 -21 404 -27 512 -9 753 -33 809 -81 59 -51 120
211 -927 -3976 -528 -2115 -972 -3869 -985 -3897 -48 -107 -116 -168 -216
-197 -134 -39 -526 -66 -944 -66 -256 0 -280 -5 -321 -67 -24 -36 -104 -343
-104 -400 0 -54 30 -104 78 -131 l41 -23 253 10 c139 6 576 16 970 23 740 12
1711 3 2425 -23 l301 -11 40 22 c22 12 49 39 60 59 11 20 38 113 61 208 46
190 47 223 3 275 -46 54 -69 58 -324 58 -399 0 -791 28 -894 63 -22 8 -44 24
-51 38 -32 62 -25 93 400 1794 l413 1650 1290 6 c709 4 1307 10 1329 13 22 4
90 14 150 22 1019 139 1999 641 2648 1359 414 458 662 961 733 1485 16 124 18
381 4 500 -86 691 -506 1255 -1189 1595 -339 169 -735 272 -1176 305 -91 6
-1013 10 -2650 10 -2370 0 -2512 -1 -2545 -18z m4680 -612 c552 -40 930 -181
1176 -442 175 -187 245 -386 245 -698 0 -241 -30 -432 -131 -845 -173 -710
-326 -1066 -590 -1372 -144 -169 -374 -337 -625 -459 -285 -138 -545 -210
-940 -261 -100 -13 -301 -17 -1212 -20 -601 -2 -1093 -2 -1093 2 0 3 218 879
485 1948 505 2021 511 2041 573 2086 38 27 122 49 222 60 122 12 1714 13 1890
1z"/>
</g>
</svg>
