<?xml version="1.0" standalone="no"?>
<!DOCTYPE svg PUBLIC "-//W3C//DTD SVG 20010904//EN"
 "http://www.w3.org/TR/2001/REC-SVG-20010904/DTD/svg10.dtd">
<svg version="1.0" xmlns="http://www.w3.org/2000/svg"
 width="616.000000pt" height="276.000000pt" viewBox="0 0 616.000000 276.000000"
 preserveAspectRatio="xMidYMid meet">
<metadata>
Created by potrace 1.16, written by Peter Selinger 2001-2019
</metadata>
<g transform="translate(0.000000,276.000000) scale(0.100000,-0.100000)"
fill="#000000" stroke="none">
<path d="M5043 2749 c-130 -25 -233 -146 -233 -275 0 -41 40 -193 80 -309 43
-121 125 -290 198 -405 l60 -95 -2471 -5 c-2759 -6 -2500 2 -2587 -76 -66 -60
-85 -104 -85 -204 0 -102 19 -146 90 -208 89 -79 -135 -72 2476 -72 l2338 0
-193 -193 c-260 -260 -412 -450 -442 -555 -19 -64 -13 -117 20 -187 85 -180
337 -214 460 -62 19 23 72 89 118 147 266 336 656 649 1058 850 112 56 137 75
171 128 41 64 55 138 40 206 -20 90 -57 135 -175 216 -295 200 -480 460 -582
815 -19 66 -46 138 -59 161 -54 92 -173 145 -282 123z"/>
</g>
</svg>
