<?xml version="1.0" standalone="no"?>
<!DOCTYPE svg PUBLIC "-//W3C//DTD SVG 20010904//EN"
 "http://www.w3.org/TR/2001/REC-SVG-20010904/DTD/svg10.dtd">
<svg version="1.0" xmlns="http://www.w3.org/2000/svg"
 width="930.000000pt" height="977.000000pt" viewBox="0 0 930.000000 977.000000"
 preserveAspectRatio="xMidYMid meet">
<metadata>
Created by potrace 1.16, written by Peter Selinger 2001-2019
</metadata>
<g transform="translate(0.000000,977.000000) scale(0.100000,-0.100000)"
fill="#000000" stroke="none">
<path d="M2165 9754 c-297 -40 -610 -163 -894 -352 -293 -194 -603 -508 -815
-826 -192 -288 -321 -561 -420 -889 -41 -134 -44 -179 -16 -224 27 -46 72 -56
226 -52 119 4 132 6 176 32 61 36 79 62 116 181 154 479 598 861 1169 1004
170 43 298 56 493 49 382 -14 654 -127 886 -369 232 -242 371 -580 441 -1078
22 -158 26 -830 5 -1030 -34 -337 -82 -653 -148 -974 -45 -222 -17 -109 -582
-2364 -377 -1502 -497 -1968 -521 -2017 -38 -76 -104 -152 -168 -193 -132 -84
-440 -119 -1158 -129 -396 -5 -433 -7 -468 -25 -53 -26 -68 -56 -106 -216
l-34 -139 24 -49 c13 -26 37 -57 52 -68 33 -24 49 -24 736 -6 1026 27 2458 22
3517 -11 350 -11 351 -11 393 10 23 12 50 35 59 50 10 16 33 92 51 169 l34
139 -24 49 c-46 93 -23 88 -499 96 -556 8 -859 31 -1010 74 -96 27 -124 70
-124 184 1 65 67 338 481 1995 264 1056 488 1956 498 2000 28 128 157 573 228
785 141 424 282 772 462 1135 645 1306 1473 1985 2418 1985 237 0 404 -37 592
-130 194 -97 321 -217 404 -385 54 -110 71 -180 78 -320 4 -88 1 -143 -11
-206 -20 -107 -20 -132 0 -170 24 -47 66 -59 206 -59 133 1 176 11 232 53 45
35 63 77 91 211 70 328 73 715 9 996 -75 334 -254 639 -478 816 -263 209 -554
296 -941 281 -264 -11 -465 -47 -720 -132 -253 -83 -468 -190 -710 -351 -469
-313 -894 -761 -1291 -1364 -266 -405 -479 -805 -711 -1335 l-75 -170 6 70
c74 989 -28 1764 -304 2315 -290 578 -760 899 -1405 960 -145 13 -326 11 -450
-6z"/>
</g>
</svg>
