<?xml version="1.0" standalone="no"?>
<!DOCTYPE svg PUBLIC "-//W3C//DTD SVG 20010904//EN"
 "http://www.w3.org/TR/2001/REC-SVG-20010904/DTD/svg10.dtd">
<svg version="1.0" xmlns="http://www.w3.org/2000/svg"
 width="977.000000pt" height="977.000000pt" viewBox="0 0 977.000000 977.000000"
 preserveAspectRatio="xMidYMid meet">
<metadata>
Created by potrace 1.16, written by Peter Selinger 2001-2019
</metadata>
<g transform="translate(0.000000,977.000000) scale(0.100000,-0.100000)"
fill="#000000" stroke="none">
<path d="M6000 9764 c-25 -2 -106 -8 -180 -14 -931 -75 -1888 -411 -2697 -949
-295 -196 -530 -386 -772 -624 -706 -694 -1106 -1471 -1196 -2320 -31 -303
-16 -692 41 -1017 78 -451 211 -863 544 -1695 321 -801 460 -1254 524 -1705
17 -116 36 -353 36 -442 l0 -58 -607 0 c-619 0 -859 8 -1016 35 -118 20 -153
36 -161 72 -22 101 -28 232 -33 658 -5 458 -6 482 -25 513 -11 18 -38 42 -60
53 -35 18 -55 20 -154 17 -131 -4 -155 -15 -190 -89 -22 -43 -22 -59 -39
-1061 l-17 -1017 22 -39 c12 -22 39 -49 60 -61 l38 -21 1180 0 c810 0 1190 3
1209 11 46 17 83 60 98 114 26 87 73 324 99 495 52 341 61 479 61 970 -1 560
-7 655 -120 1680 -123 1113 -145 1562 -104 2095 78 1025 401 1889 973 2605
120 150 401 434 546 552 690 561 1521 863 2290 834 797 -30 1426 -385 1763
-996 58 -105 124 -277 161 -421 169 -650 70 -1444 -291 -2349 -233 -583 -499
-1078 -1188 -2204 -337 -553 -517 -852 -642 -1071 -339 -590 -597 -1134 -765
-1610 -67 -190 -158 -507 -158 -551 0 -50 35 -107 80 -133 l38 -21 1181 0
c1272 0 1220 -2 1267 51 12 13 240 478 508 1033 530 1100 512 1057 465 1133
-12 18 -39 43 -61 54 -35 18 -55 20 -154 17 -94 -2 -117 -6 -141 -24 -20 -14
-80 -124 -218 -400 -205 -410 -323 -623 -413 -749 -55 -77 -59 -81 -126 -103
-171 -57 -455 -74 -1174 -70 l-532 3 80 143 c256 457 599 918 1150 1547 92
105 312 352 490 550 698 778 1034 1191 1325 1630 568 856 821 1653 754 2375
-78 842 -549 1569 -1319 2035 -137 84 -405 213 -566 274 -314 119 -676 203
-1064 246 -136 15 -688 28 -800 19z"/>
</g>
</svg>
