<?xml version="1.0" standalone="no"?>
<!DOCTYPE svg PUBLIC "-//W3C//DTD SVG 20010904//EN"
 "http://www.w3.org/TR/2001/REC-SVG-20010904/DTD/svg10.dtd">
<svg version="1.0" xmlns="http://www.w3.org/2000/svg"
 width="790.000000pt" height="895.000000pt" viewBox="0 0 790.000000 895.000000"
 preserveAspectRatio="xMidYMid meet">
<metadata>
Created by potrace 1.16, written by Peter Selinger 2001-2019
</metadata>
<g transform="translate(0.000000,895.000000) scale(0.100000,-0.100000)"
fill="#000000" stroke="none">
<path d="M1382 8930 c-261 -57 -485 -184 -680 -384 -151 -156 -261 -337 -318
-525 -31 -101 -25 -141 31 -190 l36 -31 133 0 c122 0 136 2 167 23 21 14 40
39 51 67 63 168 83 211 132 285 63 94 195 223 280 274 104 62 179 84 291 85
85 1 106 -2 141 -21 178 -95 349 -333 584 -809 406 -824 679 -1578 1094 -3023
l124 -433 -1700 -1877 c-1243 -1371 -1707 -1889 -1724 -1926 -28 -58 -30 -110
-8 -163 47 -115 174 -162 290 -108 61 29 -103 -150 1779 1929 l1500 1656 22
-72 c12 -40 54 -182 93 -317 316 -1080 641 -1965 933 -2546 175 -346 440 -564
859 -704 208 -70 430 -107 698 -117 184 -7 281 3 419 43 399 116 769 477 890
869 32 102 28 147 -13 193 l-34 37 -151 0 -150 0 -31 -30 c-20 -20 -37 -51
-51 -98 -96 -323 -388 -586 -670 -604 -85 -6 -92 -4 -152 25 -173 85 -334 302
-566 762 -409 810 -697 1605 -1130 3114 l-112 388 79 87 c207 228 3169 3499
3249 3589 111 123 136 180 114 260 -16 61 -56 111 -112 140 -36 19 -55 23
-104 19 -74 -5 -114 -25 -168 -82 -23 -24 -751 -826 -1617 -1783 -866 -957
-1576 -1739 -1577 -1738 -1 1 -43 141 -93 312 -332 1130 -599 1870 -923 2557
-97 204 -205 352 -345 470 -310 261 -739 401 -1267 413 -174 3 -212 1 -293
-16z"/>
</g>
</svg>
