<?xml version="1.0" standalone="no"?>
<!DOCTYPE svg PUBLIC "-//W3C//DTD SVG 20010904//EN"
 "http://www.w3.org/TR/2001/REC-SVG-20010904/DTD/svg10.dtd">
<svg version="1.0" xmlns="http://www.w3.org/2000/svg"
 width="1143.000000pt" height="946.000000pt" viewBox="0 0 1143.000000 946.000000"
 preserveAspectRatio="xMidYMid meet">
<metadata>
Created by potrace 1.16, written by Peter Selinger 2001-2019
</metadata>
<g transform="translate(0.000000,946.000000) scale(0.100000,-0.100000)"
fill="#000000" stroke="none">
<path d="M2560 9443 c-19 -10 -44 -32 -56 -50 -31 -46 -88 -283 -80 -328 9
-45 57 -101 99 -114 18 -5 165 -12 327 -15 586 -11 778 -58 890 -221 16 -23
394 -930 840 -2015 795 -1933 811 -1973 793 -1993 -87 -100 -2961 -3227 -2980
-3242 -13 -11 -84 -76 -157 -145 -165 -157 -286 -255 -446 -359 -422 -276
-891 -416 -1460 -437 -237 -9 -250 -19 -301 -218 -46 -179 -35 -242 50 -286
38 -19 48 -20 213 -10 95 5 401 15 680 22 528 12 1403 3 2006 -23 362 -16 359
-17 418 217 38 152 36 186 -12 243 -31 37 -65 48 -179 55 -185 13 -314 63
-410 160 -86 86 -100 120 -100 236 0 86 3 101 31 160 17 36 46 84 65 106 19
23 41 55 50 70 9 16 629 697 1379 1513 944 1027 1365 1479 1371 1470 20 -37
1382 -3358 1386 -3380 4 -21 -6 -35 -57 -81 -75 -68 -202 -135 -347 -181 -131
-43 -247 -64 -414 -75 -185 -12 -197 -24 -249 -233 -37 -147 -35 -181 11 -234
47 -54 66 -56 339 -45 135 5 570 15 967 22 746 12 1512 4 2108 -23 246 -12
251 -11 292 9 57 29 76 66 112 217 34 142 32 175 -11 230 -38 49 -70 55 -275
55 -453 0 -745 36 -876 108 -55 29 -136 113 -159 164 -9 18 -431 1042 -938
2276 l-922 2243 24 27 c14 15 562 612 1217 1327 656 715 1206 1311 1222 1325
17 14 92 84 167 155 234 222 421 359 664 485 366 190 765 289 1238 306 237 9
250 19 301 218 16 61 29 129 29 151 0 56 -29 106 -78 133 -40 23 -43 23 -214
13 -95 -6 -401 -16 -680 -23 -527 -12 -1398 -3 -2009 23 -262 11 -266 11 -307
-10 -23 -12 -49 -32 -58 -46 -9 -14 -32 -87 -51 -162 -40 -158 -37 -191 21
-249 35 -35 41 -36 206 -53 280 -27 465 -169 478 -367 6 -91 -14 -160 -70
-243 -24 -35 -53 -80 -65 -100 -18 -29 -906 -1001 -2068 -2262 l-162 -176
-579 1409 c-318 775 -580 1413 -582 1418 -5 15 90 101 152 138 186 113 485
192 722 192 68 0 125 27 152 72 11 18 34 94 53 169 l33 136 -25 49 c-13 26
-37 57 -52 68 -35 26 -30 26 -657 6 -575 -18 -1987 -19 -2405 -2 -159 7 -355
14 -435 18 -128 5 -149 3 -180 -13z"/>
</g>
</svg>
