<?xml version="1.0" standalone="no"?>
<!DOCTYPE svg PUBLIC "-//W3C//DTD SVG 20010904//EN"
 "http://www.w3.org/TR/2001/REC-SVG-20010904/DTD/svg10.dtd">
<svg version="1.0" xmlns="http://www.w3.org/2000/svg"
 width="663.000000pt" height="1210.000000pt" viewBox="0 0 663.000000 1210.000000"
 preserveAspectRatio="xMidYMid meet">
<metadata>
Created by potrace 1.16, written by Peter Selinger 2001-2019
</metadata>
<g transform="translate(0.000000,1210.000000) scale(0.100000,-0.100000)"
fill="#000000" stroke="none">
<path d="M5276 12090 c-325 -52 -656 -230 -927 -500 -262 -262 -437 -589 -593
-1111 -96 -324 -167 -653 -336 -1559 -44 -239 -83 -443 -86 -452 -5 -17 -42
-18 -600 -18 -643 0 -621 2 -673 -54 -28 -30 -71 -178 -71 -246 0 -52 25 -100
67 -127 25 -17 70 -18 608 -23 l582 -5 -293 -1560 c-649 -3455 -736 -3904
-904 -4661 -108 -487 -162 -666 -259 -870 -80 -166 -159 -283 -261 -384 -145
-144 -247 -187 -420 -177 -190 12 -353 61 -481 145 l-71 47 44 8 c335 65 557
265 638 576 27 100 26 228 0 314 -66 215 -265 338 -520 324 -283 -16 -534
-191 -649 -451 -42 -96 -62 -196 -68 -333 -5 -114 -3 -146 16 -227 85 -366
380 -620 835 -718 81 -18 135 -22 276 -22 161 -1 183 1 274 27 467 130 918
581 1241 1242 293 600 529 1422 793 2765 44 223 230 1205 413 2183 l334 1777
710 0 c656 0 713 1 745 18 49 24 74 68 100 172 25 102 23 154 -9 198 -45 64
-19 62 -775 62 -377 0 -686 2 -686 4 0 2 65 352 145 778 224 1193 367 1886
422 2053 22 70 83 155 181 257 179 186 315 238 548 208 179 -22 301 -63 423
-143 64 -42 65 -42 35 -49 -185 -44 -270 -80 -375 -160 -177 -134 -289 -359
-289 -579 0 -299 221 -494 540 -476 283 16 534 191 649 452 68 155 91 396 52
558 -88 368 -393 626 -850 718 -111 23 -383 33 -475 19z"/>
</g>
</svg>
