<?xml version="1.0" standalone="no"?>
<!DOCTYPE svg PUBLIC "-//W3C//DTD SVG 20010904//EN"
 "http://www.w3.org/TR/2001/REC-SVG-20010904/DTD/svg10.dtd">
<svg version="1.0" xmlns="http://www.w3.org/2000/svg"
 width="751.000000pt" height="611.000000pt" viewBox="0 0 751.000000 611.000000"
 preserveAspectRatio="xMidYMid meet">
<metadata>
Created by potrace 1.16, written by Peter Selinger 2001-2019
</metadata>
<g transform="translate(0.000000,611.000000) scale(0.100000,-0.100000)"
fill="#000000" stroke="none">
<path d="M3385 6103 c-497 -43 -1023 -243 -1510 -574 -978 -664 -1696 -1816
-1852 -2969 -20 -155 -23 -530 -4 -675 100 -776 518 -1383 1158 -1682 449
-209 987 -257 1532 -137 1141 254 2190 1173 2670 2342 240 584 331 1259 246
1833 -36 248 -128 541 -235 756 l-57 113 816 0 c795 0 818 1 891 21 238 66
412 262 451 508 26 170 -54 346 -191 416 -115 59 19 55 -2014 53 -1024 -1
-1879 -3 -1901 -5z m310 -1017 c125 -21 255 -60 353 -106 485 -228 634 -725
477 -1587 -30 -160 -127 -561 -184 -760 -190 -657 -429 -1110 -773 -1468 -614
-639 -1478 -839 -2034 -469 -418 277 -568 785 -458 1544 39 272 155 768 255
1090 213 692 531 1168 974 1462 243 160 567 273 885 307 116 13 395 6 505 -13z"/>
</g>
</svg>
