<?xml version="1.0" standalone="no"?>
<!DOCTYPE svg PUBLIC "-//W3C//DTD SVG 20010904//EN"
 "http://www.w3.org/TR/2001/REC-SVG-20010904/DTD/svg10.dtd">
<svg version="1.0" xmlns="http://www.w3.org/2000/svg"
 width="707.000000pt" height="587.000000pt" viewBox="0 0 707.000000 587.000000"
 preserveAspectRatio="xMidYMid meet">
<metadata>
Created by potrace 1.16, written by Peter Selinger 2001-2019
</metadata>
<g transform="translate(0.000000,587.000000) scale(0.100000,-0.100000)"
fill="#000000" stroke="none">
<path d="M3161 5859 c-119 -13 -315 -54 -456 -95 -1102 -325 -2108 -1362
-2520 -2599 -132 -396 -185 -699 -185 -1060 0 -402 66 -705 224 -1030 109
-225 225 -385 393 -545 312 -298 703 -472 1168 -521 135 -14 419 -6 565 16
461 70 975 284 1383 577 349 251 700 606 940 950 409 587 639 1246 677 1939
31 569 -96 1107 -357 1517 l-34 52 838 0 c907 0 884 -1 999 55 116 57 226 205
254 342 34 163 -38 315 -179 382 l-56 26 -1785 1 c-982 1 -1823 -3 -1869 -7z
m383 -824 c248 -45 448 -143 603 -296 217 -215 313 -498 313 -924 0 -286 -39
-559 -139 -960 -234 -942 -567 -1556 -1083 -2000 -569 -489 -1243 -644 -1732
-399 -240 121 -433 337 -537 602 -85 218 -114 424 -106 745 7 299 43 538 138
927 198 815 444 1315 847 1724 330 335 755 543 1218 596 110 12 371 4 478 -15z"/>
</g>
</svg>
