<?xml version="1.0" standalone="no"?>
<!DOCTYPE svg PUBLIC "-//W3C//DTD SVG 20010904//EN"
 "http://www.w3.org/TR/2001/REC-SVG-20010904/DTD/svg10.dtd">
<svg version="1.0" xmlns="http://www.w3.org/2000/svg"
 width="922.000000pt" height="946.000000pt" viewBox="0 0 922.000000 946.000000"
 preserveAspectRatio="xMidYMid meet">
<metadata>
Created by potrace 1.16, written by Peter Selinger 2001-2019
</metadata>
<g transform="translate(0.000000,946.000000) scale(0.100000,-0.100000)"
fill="#000000" stroke="none">
<path d="M2719 9440 c-20 -10 -44 -31 -53 -45 -27 -41 -926 -3048 -926 -3096
0 -54 31 -104 81 -129 33 -17 59 -20 189 -20 164 0 202 8 237 53 11 15 57 138
102 274 244 743 502 1207 880 1583 382 379 849 608 1446 709 378 64 614 73
1814 69 l994 -3 -3683 -4160 c-2026 -2288 -3690 -4170 -3698 -4183 -8 -13 -35
-102 -59 -200 -48 -193 -47 -216 3 -263 l26 -24 3276 -3 c2206 -2 3289 0 3312
7 82 24 44 -85 661 1878 382 1216 569 1822 569 1852 0 56 -30 106 -81 131 -33
17 -59 20 -189 20 -165 0 -202 -8 -238 -55 -12 -14 -58 -140 -102 -278 -269
-834 -453 -1264 -707 -1652 -115 -175 -197 -278 -328 -414 -137 -142 -231
-220 -390 -326 -387 -258 -833 -406 -1420 -469 -282 -31 -589 -37 -1642 -34
l-1042 3 3665 4140 c2016 2277 3677 4154 3690 4171 25 32 104 310 104 367 0
40 -26 84 -60 102 -26 13 -386 15 -3212 15 -3109 -1 -3184 -1 -3219 -20z"/>
</g>
</svg>
