<?xml version="1.0" standalone="no"?>
<!DOCTYPE svg PUBLIC "-//W3C//DTD SVG 20010904//EN"
 "http://www.w3.org/TR/2001/REC-SVG-20010904/DTD/svg10.dtd">
<svg version="1.0" xmlns="http://www.w3.org/2000/svg"
 width="221.000000pt" height="312.000000pt" viewBox="0 0 221.000000 312.000000"
 preserveAspectRatio="xMidYMid meet">
<metadata>
Created by potrace 1.16, written by Peter Selinger 2001-2019
</metadata>
<g transform="translate(0.000000,312.000000) scale(0.100000,-0.100000)"
fill="#000000" stroke="none">
<path d="M1725 3114 c-312 -31 -598 -113 -855 -246 -183 -94 -302 -180 -446
-323 -226 -225 -353 -464 -404 -759 -47 -279 -4 -579 120 -827 103 -205 300
-430 500 -571 332 -234 795 -380 1210 -382 174 -1 203 7 270 74 56 56 75 103
75 190 0 87 -19 134 -75 190 -59 59 -99 72 -250 81 -174 11 -212 15 -349 46
-489 107 -848 394 -953 760 -32 112 -32 314 0 426 105 366 464 653 953 760
137 31 175 35 349 46 151 9 191 22 250 81 56 56 75 103 75 190 0 87 -19 134
-75 190 -62 62 -100 74 -235 76 -66 1 -138 0 -160 -2z"/>
</g>
</svg>
