<?xml version="1.0" standalone="no"?>
<!DOCTYPE svg PUBLIC "-//W3C//DTD SVG 20010904//EN"
 "http://www.w3.org/TR/2001/REC-SVG-20010904/DTD/svg10.dtd">
<svg version="1.0" xmlns="http://www.w3.org/2000/svg"
 width="759.000000pt" height="1245.000000pt" viewBox="0 0 759.000000 1245.000000"
 preserveAspectRatio="xMidYMid meet">
<metadata>
Created by potrace 1.16, written by Peter Selinger 2001-2019
</metadata>
<g transform="translate(0.000000,1245.000000) scale(0.100000,-0.100000)"
fill="#000000" stroke="none">
<path d="M5331 12439 c-437 -49 -903 -246 -1304 -552 -781 -594 -1458 -1688
-1823 -2950 -30 -104 -538 -2124 -1130 -4490 -780 -3120 -1074 -4311 -1069
-4333 3 -18 15 -44 26 -58 37 -47 68 -56 196 -56 134 0 174 13 204 68 9 18
221 849 470 1847 250 998 456 1815 459 1815 3 0 22 -40 43 -89 87 -204 225
-402 396 -571 144 -142 265 -229 445 -320 217 -109 435 -172 701 -201 121 -13
449 -7 600 11 453 53 893 183 1306 386 445 219 786 461 1119 794 396 395 683
842 842 1310 82 242 144 540 168 808 16 175 8 589 -15 732 -102 652 -388 1181
-834 1546 -72 59 -81 70 -67 79 363 219 708 528 953 852 122 162 203 295 298
488 279 566 336 1134 164 1649 -218 657 -780 1101 -1544 1221 -121 19 -485 28
-604 14z m479 -424 c177 -35 357 -107 474 -193 414 -300 524 -799 350 -1587
-176 -792 -519 -1366 -1024 -1711 l-66 -45 -69 27 c-102 38 -352 100 -490 121
-169 25 -817 25 -1005 0 -382 -53 -577 -168 -642 -380 -77 -254 107 -423 517
-477 138 -18 676 -25 834 -11 234 21 499 76 712 149 l87 30 66 -60 c232 -209
389 -518 456 -898 28 -157 38 -520 21 -721 -31 -362 -142 -899 -258 -1248
-207 -627 -530 -1121 -959 -1465 -386 -309 -817 -500 -1294 -573 -175 -26
-488 -24 -642 5 -888 167 -1367 1021 -1177 2101 21 122 884 3586 949 3811 327
1131 918 2122 1581 2650 361 288 707 441 1109 490 107 13 369 4 470 -15z
m-1048 -3786 c57 -6 109 -14 116 -18 15 -8 -77 -26 -208 -41 -168 -19 -693 -6
-787 19 -23 6 -15 10 52 20 187 29 640 40 827 20z"/>
</g>
</svg>
