<?xml version="1.0" standalone="no"?>
<!DOCTYPE svg PUBLIC "-//W3C//DTD SVG 20010904//EN"
 "http://www.w3.org/TR/2001/REC-SVG-20010904/DTD/svg10.dtd">
<svg version="1.0" xmlns="http://www.w3.org/2000/svg"
 width="762.000000pt" height="927.000000pt" viewBox="0 0 762.000000 927.000000"
 preserveAspectRatio="xMidYMid meet">
<metadata>
Created by potrace 1.16, written by Peter Selinger 2001-2019
</metadata>
<g transform="translate(0.000000,927.000000) scale(0.100000,-0.100000)"
fill="#000000" stroke="none">
<path d="M2290 9255 c-369 -68 -758 -341 -1113 -785 -407 -507 -705 -1132
-886 -1856 -204 -814 -212 -1433 -26 -1929 67 -178 146 -313 293 -499 l70 -89
-35 -96 c-260 -704 -502 -1715 -575 -2401 -7 -63 -12 -230 -12 -370 1 -215 4
-273 22 -371 85 -465 300 -730 668 -825 135 -35 322 -43 454 -20 535 94 1060
548 1376 1191 45 94 99 214 119 269 69 188 132 446 155 636 13 110 13 387 -1
487 -25 187 -90 379 -177 525 -25 43 -315 422 -644 843 -329 422 -598 771
-598 776 0 6 45 99 100 207 689 1360 1676 2427 2715 2937 496 244 985 366
1475 369 227 1 303 -12 440 -75 299 -139 493 -437 554 -852 57 -377 10 -806
-165 -1509 -198 -797 -372 -1234 -658 -1648 -129 -188 -261 -335 -426 -477
-250 -216 -511 -354 -775 -410 -114 -24 -337 -24 -435 0 -159 39 -269 100
-375 207 -83 84 -130 156 -167 258 -28 76 -53 195 -53 252 0 36 2 38 67 70
192 95 290 323 213 497 -62 141 -229 206 -397 155 -233 -71 -336 -276 -337
-672 0 -123 5 -187 18 -250 96 -446 370 -752 796 -888 550 -176 1351 32 2015
523 240 178 533 462 727 703 429 536 722 1170 847 1832 39 210 46 299 46 600
0 323 -8 398 -66 638 -166 683 -608 1187 -1208 1376 -219 69 -396 91 -671 83
-1304 -39 -2583 -778 -3645 -2107 -307 -383 -601 -829 -840 -1273 -50 -92 -93
-167 -96 -167 -9 0 -86 140 -110 200 -113 288 -123 677 -28 1182 168 901 530
1666 996 2109 163 154 300 228 461 247 125 15 144 33 181 179 26 101 26 120 1
161 -44 72 -122 87 -290 57z m-836 -6215 c360 -460 506 -655 532 -708 92 -189
99 -495 19 -814 -138 -545 -529 -1022 -900 -1098 -69 -14 -211 -7 -294 15
-190 50 -312 194 -362 426 -27 122 -36 392 -20 566 33 360 105 730 277 1418
104 416 228 839 245 833 4 -2 230 -289 503 -638z"/>
</g>
</svg>
