<?xml version="1.0" standalone="no"?>
<!DOCTYPE svg PUBLIC "-//W3C//DTD SVG 20010904//EN"
 "http://www.w3.org/TR/2001/REC-SVG-20010904/DTD/svg10.dtd">
<svg version="1.0" xmlns="http://www.w3.org/2000/svg"
 width="926.000000pt" height="938.000000pt" viewBox="0 0 926.000000 938.000000"
 preserveAspectRatio="xMidYMid meet">
<metadata>
Created by potrace 1.16, written by Peter Selinger 2001-2019
</metadata>
<g transform="translate(0.000000,938.000000) scale(0.100000,-0.100000)"
fill="#000000" stroke="none">
<path d="M290 9362 c-19 -10 -43 -30 -53 -44 -20 -27 -66 -196 -67 -244 0 -38
34 -91 77 -120 30 -20 47 -21 365 -27 421 -8 650 -32 753 -79 36 -16 50 -62
48 -158 -1 -76 -69 -357 -673 -2770 -379 -1515 -682 -2746 -695 -2825 -69
-411 -57 -850 34 -1210 110 -435 313 -808 605 -1113 368 -384 870 -638 1442
-731 642 -105 1262 -6 1891 299 298 145 546 301 804 508 155 123 469 427 606
586 405 470 720 1029 902 1601 23 72 323 1254 666 2627 498 1991 633 2516 663
2587 110 254 307 444 575 551 209 84 478 130 763 130 88 0 105 3 134 23 52 35
69 66 96 172 29 112 26 149 -13 195 -50 60 -61 62 -286 51 -111 -6 -438 -16
-727 -22 -542 -12 -1224 -3 -1764 22 -235 11 -246 11 -282 -8 -54 -28 -72 -57
-99 -164 -31 -117 -31 -147 -2 -190 46 -68 67 -75 254 -82 92 -4 205 -11 250
-17 204 -26 388 -96 490 -185 107 -94 157 -261 133 -442 -14 -109 -1235 -4999
-1292 -5172 -255 -790 -733 -1484 -1356 -1968 -462 -360 -980 -588 -1519 -670
-156 -23 -515 -24 -643 0 -485 90 -833 319 -1059 698 -146 245 -217 526 -228
899 -9 291 19 555 97 940 22 107 341 1397 709 2866 598 2394 672 2680 709
2755 72 149 137 202 293 238 168 39 463 61 830 61 207 0 217 1 249 23 52 35
69 66 96 172 29 112 26 149 -13 195 -51 61 -56 62 -340 50 -954 -37 -2102 -35
-3223 6 -151 5 -168 4 -200 -14z"/>
</g>
</svg>
