<?xml version="1.0" standalone="no"?>
<!DOCTYPE svg PUBLIC "-//W3C//DTD SVG 20010904//EN"
 "http://www.w3.org/TR/2001/REC-SVG-20010904/DTD/svg10.dtd">
<svg version="1.0" xmlns="http://www.w3.org/2000/svg"
 width="563.000000pt" height="1201.000000pt" viewBox="0 0 563.000000 1201.000000"
 preserveAspectRatio="xMidYMid meet">
<metadata>
Created by potrace 1.16, written by Peter Selinger 2001-2019
</metadata>
<g transform="translate(0.000000,1201.000000) scale(0.100000,-0.100000)"
fill="#000000" stroke="none">
<path d="M3515 12001 c-63 -16 -118 -56 -143 -106 -5 -11 -19 -62 -32 -114
-68 -293 -68 -658 0 -900 11 -40 19 -74 18 -75 -2 -1 -64 -22 -138 -45 -763
-243 -1398 -696 -1785 -1276 -88 -132 -177 -303 -235 -451 -52 -135 -114 -377
-130 -507 -18 -142 -8 -435 19 -552 99 -428 339 -769 721 -1023 l88 -58 -50
-28 c-89 -50 -311 -201 -413 -281 -702 -548 -1188 -1280 -1384 -2081 -139
-569 14 -1126 427 -1555 112 -117 261 -238 398 -325 196 -123 344 -186 1554
-654 657 -254 1224 -477 1260 -496 127 -66 223 -175 263 -298 24 -74 28 -224
8 -306 -54 -223 -223 -429 -412 -501 -106 -41 -311 -35 -565 16 -284 57 -545
180 -853 402 -35 25 -128 28 -170 6 -83 -44 -122 -143 -86 -222 41 -93 426
-325 713 -430 360 -132 797 -176 1063 -108 253 66 459 186 654 382 207 208
360 493 422 785 27 128 25 366 -5 484 -72 289 -254 515 -524 652 -36 18 -626
250 -1310 514 -684 265 -1297 508 -1363 540 -176 86 -320 185 -447 309 -252
243 -353 465 -352 771 2 243 73 489 244 835 273 555 754 1062 1291 1359 l59
33 128 -39 c146 -44 313 -80 492 -105 179 -26 907 -26 1115 0 416 51 613 163
656 372 39 191 -121 328 -445 380 -261 42 -930 46 -1186 6 -134 -21 -358 -72
-477 -109 l-63 -20 -55 60 c-355 383 -430 1059 -190 1714 89 245 262 548 436
764 100 125 293 320 403 409 134 107 408 281 442 281 5 0 41 -27 79 -60 83
-72 235 -150 350 -181 157 -43 798 -36 1074 12 286 49 442 134 509 277 35 75
37 177 5 237 -100 189 -381 255 -1093 255 -281 0 -434 -9 -620 -37 -169 -25
-162 -26 -177 27 -58 194 -57 533 2 785 20 88 19 148 -4 193 -30 60 -119 99
-186 83z m1495 -1411 c128 -15 196 -31 179 -40 -24 -14 -159 -38 -279 -51
-165 -18 -741 -18 -800 -1 -81 25 -143 55 -128 63 12 6 164 33 248 43 65 8
694 -3 780 -14z m-905 -3610 c100 -11 199 -30 193 -35 -11 -12 -139 -37 -248
-51 -171 -21 -695 -30 -825 -15 -139 16 -286 51 -259 62 24 8 264 47 334 53
86 8 716 -3 805 -14z"/>
</g>
</svg>
