<?xml version="1.0" standalone="no"?>
<!DOCTYPE svg PUBLIC "-//W3C//DTD SVG 20010904//EN"
 "http://www.w3.org/TR/2001/REC-SVG-20010904/DTD/svg10.dtd">
<svg version="1.0" xmlns="http://www.w3.org/2000/svg"
 width="853.000000pt" height="946.000000pt" viewBox="0 0 853.000000 946.000000"
 preserveAspectRatio="xMidYMid meet">
<metadata>
Created by potrace 1.16, written by Peter Selinger 2001-2019
</metadata>
<g transform="translate(0.000000,946.000000) scale(0.100000,-0.100000)"
fill="#000000" stroke="none">
<path d="M2368 9440 c-21 -11 -45 -32 -54 -45 -19 -30 -103 -356 -104 -403 0
-49 32 -104 76 -128 37 -20 57 -22 404 -27 509 -9 751 -33 807 -81 59 -51 120
211 -927 -3976 -528 -2115 -972 -3869 -985 -3897 -48 -107 -116 -168 -216
-197 -134 -38 -526 -66 -942 -66 -209 0 -231 -2 -267 -20 -22 -11 -47 -31 -56
-45 -19 -30 -103 -356 -104 -403 0 -50 32 -104 78 -130 l40 -22 3516 0 c3802
0 3552 -4 3604 52 30 33 1282 3507 1282 3558 0 42 -30 92 -73 124 -25 19 -45
21 -180 24 -88 2 -167 -1 -187 -7 -65 -19 -83 -50 -180 -316 -304 -829 -518
-1265 -817 -1667 -135 -180 -379 -428 -544 -551 -467 -348 -1007 -537 -1674
-586 -180 -14 -1647 -14 -1774 -1 -52 6 -112 15 -134 21 l-40 10 6 59 c6 53
1923 7744 1949 7817 18 49 77 123 133 165 123 94 383 124 1178 135 505 7 500
6 543 70 24 36 104 343 104 400 0 54 -30 104 -78 131 l-40 23 -314 -10 c-657
-22 -1707 -33 -2353 -27 -590 6 -790 10 -1460 31 -168 5 -182 4 -217 -15z"/>
</g>
</svg>
