<?xml version="1.0" standalone="no"?>
<!DOCTYPE svg PUBLIC "-//W3C//DTD SVG 20010904//EN"
 "http://www.w3.org/TR/2001/REC-SVG-20010904/DTD/svg10.dtd">
<svg version="1.0" xmlns="http://www.w3.org/2000/svg"
 width="700.000000pt" height="875.000000pt" viewBox="0 0 700.000000 875.000000"
 preserveAspectRatio="xMidYMid meet">
<metadata>
Created by potrace 1.16, written by Peter Selinger 2001-2019
</metadata>
<g transform="translate(0.000000,875.000000) scale(0.100000,-0.100000)"
fill="#000000" stroke="none">
<path d="M2385 8738 c-120 -13 -291 -54 -438 -104 -660 -225 -1287 -810 -1666
-1554 -134 -263 -281 -669 -281 -777 0 -41 35 -92 75 -109 55 -22 179 -19 225
7 42 24 52 44 95 180 120 388 447 780 861 1032 519 316 1118 418 1664 282 452
-112 835 -386 1105 -791 77 -115 188 -335 241 -479 71 -195 165 -605 213 -941
82 -563 95 -1245 36 -1887 -14 -149 -19 -172 -89 -395 -168 -536 -313 -1058
-466 -1672 -279 -1118 -308 -1392 -159 -1502 38 -28 101 -34 154 -14 164 63
288 386 554 1452 173 690 277 1227 341 1764 21 171 23 181 120 470 480 1436
1045 2793 1772 4253 136 274 248 508 248 520 0 37 -34 89 -71 109 -25 13 -56
18 -120 18 -140 0 -115 34 -404 -545 -553 -1103 -987 -2098 -1429 -3270 l-45
-120 0 92 c-3 406 -91 1041 -206 1488 -330 1276 -706 1951 -1277 2290 -286
170 -677 246 -1053 203z"/>
</g>
</svg>
