<?xml version="1.0" standalone="no"?>
<!DOCTYPE svg PUBLIC "-//W3C//DTD SVG 20010904//EN"
 "http://www.w3.org/TR/2001/REC-SVG-20010904/DTD/svg10.dtd">
<svg version="1.0" xmlns="http://www.w3.org/2000/svg"
 width="384.000000pt" height="1310.000000pt" viewBox="0 0 384.000000 1310.000000"
 preserveAspectRatio="xMidYMid meet">
<metadata>
Created by potrace 1.16, written by Peter Selinger 2001-2019
</metadata>
<g transform="translate(0.000000,1310.000000) scale(0.100000,-0.100000)"
fill="#000000" stroke="none">
<path d="M3021 13050 c-163 -61 -183 -73 -210 -120 l-21 -38 0 -1425 0 -1425
-67 -26 c-38 -14 -430 -160 -873 -325 l-805 -299 -5 1371 c-6 1529 0 1410 -73
1456 -54 33 -104 27 -256 -30 -162 -60 -175 -68 -201 -119 -20 -39 -20 -56
-20 -1462 l0 -1424 -202 -74 c-112 -41 -214 -85 -231 -99 -58 -48 -57 -43 -57
-622 0 -523 0 -532 21 -569 25 -44 83 -80 129 -80 18 0 99 25 181 55 81 30
151 55 154 55 3 0 5 -1041 5 -2313 l0 -2313 -202 -74 c-112 -41 -214 -85 -231
-99 -58 -48 -57 -43 -57 -622 0 -523 0 -532 21 -569 25 -44 83 -80 129 -80 18
0 99 25 181 55 81 30 151 55 153 55 3 0 7 -402 8 -894 3 -886 3 -895 24 -922
64 -87 110 -90 288 -25 167 62 188 74 215 121 21 38 21 42 21 983 l0 945 68
26 c37 14 429 160 872 325 l805 299 5 -891 c6 -993 1 -931 73 -976 54 -33 104
-27 256 30 162 60 175 68 201 119 20 38 20 57 20 982 l0 944 188 68 c225 83
254 97 281 146 21 37 21 46 21 575 0 529 0 538 -21 575 -25 44 -83 80 -129 80
-18 0 -99 -25 -181 -55 -81 -30 -151 -55 -154 -55 -3 0 -5 1041 -5 2313 l0
2313 188 68 c225 83 254 97 281 146 21 37 21 46 21 575 0 529 0 538 -21 575
-25 44 -83 80 -129 80 -18 0 -99 -25 -181 -55 -81 -30 -151 -55 -153 -55 -3 0
-7 618 -8 1374 -3 1371 -3 1375 -24 1402 -64 86 -116 91 -293 24z m-235 -8968
c-3 -2 -395 -149 -873 -327 l-868 -323 -3 2310 c-1 1271 0 2313 2 2316 3 2
395 149 873 327 l868 323 3 -2310 c1 -1271 0 -2313 -2 -2316z"/>
</g>
</svg>
