<?xml version="1.0" standalone="no"?>
<!DOCTYPE svg PUBLIC "-//W3C//DTD SVG 20010904//EN"
 "http://www.w3.org/TR/2001/REC-SVG-20010904/DTD/svg10.dtd">
<svg version="1.0" xmlns="http://www.w3.org/2000/svg"
 width="705.000000pt" height="979.000000pt" viewBox="0 0 705.000000 979.000000"
 preserveAspectRatio="xMidYMid meet">
<metadata>
Created by potrace 1.16, written by Peter Selinger 2001-2019
</metadata>
<g transform="translate(0.000000,979.000000) scale(0.100000,-0.100000)"
fill="#000000" stroke="none">
<path d="M1847 9776 c-99 -37 -158 -99 -188 -198 -31 -98 -7 -185 67 -246 43
-36 90 -49 204 -57 301 -21 520 -244 705 -720 24 -60 350 -965 725 -2010 375
-1044 683 -1902 685 -1906 3 -3 -866 -848 -1930 -1878 -1064 -1029 -1950
-1891 -1968 -1914 -117 -144 -170 -333 -133 -476 46 -180 176 -308 361 -356
173 -44 382 20 539 166 39 37 807 920 1706 1962 965 1118 1638 1891 1641 1884
4 -7 284 -786 624 -1732 339 -946 631 -1752 650 -1792 89 -191 239 -344 432
-442 l62 -31 452 0 c499 0 501 0 540 64 37 61 21 133 -42 191 -72 67 -165 240
-267 500 -28 72 -704 1950 -1502 4175 -798 2225 -1468 4079 -1488 4120 -165
336 -532 564 -1054 655 -260 46 -745 70 -821 41z"/>
</g>
</svg>
