<?xml version="1.0" standalone="no"?>
<!DOCTYPE svg PUBLIC "-//W3C//DTD SVG 20010904//EN"
 "http://www.w3.org/TR/2001/REC-SVG-20010904/DTD/svg10.dtd">
<svg version="1.0" xmlns="http://www.w3.org/2000/svg"
 width="773.000000pt" height="911.000000pt" viewBox="0 0 773.000000 911.000000"
 preserveAspectRatio="xMidYMid meet">
<metadata>
Created by potrace 1.16, written by Peter Selinger 2001-2019
</metadata>
<g transform="translate(0.000000,911.000000) scale(0.100000,-0.100000)"
fill="#000000" stroke="none">
<path d="M2530 9089 c-212 -54 -391 -204 -469 -394 -34 -81 -2046 -8116 -2056
-8210 -8 -75 13 -182 50 -255 76 -150 252 -239 450 -227 268 15 498 182 600
434 13 32 170 645 350 1363 179 718 330 1322 336 1343 l10 38 52 -31 c223
-134 525 -233 842 -275 165 -22 475 -30 604 -16 521 57 994 302 1433 743 70
70 129 124 131 120 3 -4 10 -25 17 -47 7 -22 28 -71 47 -110 178 -357 500
-594 937 -687 81 -17 137 -21 286 -22 215 -1 288 14 446 88 123 58 202 114
308 216 314 302 545 794 766 1630 57 219 57 240 0 295 l-31 30 -184 3 c-257 4
-254 6 -311 -210 -97 -368 -130 -486 -176 -628 -188 -575 -390 -861 -646 -911
-72 -13 -173 -7 -225 15 -194 81 -260 399 -181 871 8 50 244 1008 524 2130
280 1122 512 2065 515 2095 8 69 -14 179 -50 250 -76 150 -252 239 -450 227
-268 -15 -498 -182 -600 -434 -13 -32 -245 -942 -515 -2023 l-491 -1965 -83
-125 c-280 -421 -605 -730 -939 -894 -366 -179 -795 -205 -1095 -65 -264 122
-408 318 -481 654 -24 112 -26 138 -26 375 0 411 -13 346 507 2425 l420 1680
-5 100 c-5 129 -30 195 -102 274 -123 132 -317 182 -515 130z"/>
</g>
</svg>
