<?xml version="1.0" standalone="no"?>
<!DOCTYPE svg PUBLIC "-//W3C//DTD SVG 20010904//EN"
 "http://www.w3.org/TR/2001/REC-SVG-20010904/DTD/svg10.dtd">
<svg version="1.0" xmlns="http://www.w3.org/2000/svg"
 width="582.000000pt" height="880.000000pt" viewBox="0 0 582.000000 880.000000"
 preserveAspectRatio="xMidYMid meet">
<metadata>
Created by potrace 1.16, written by Peter Selinger 2001-2019
</metadata>
<g transform="translate(0.000000,880.000000) scale(0.100000,-0.100000)"
fill="#000000" stroke="none">
<path d="M3155 8788 c-318 -36 -713 -170 -1028 -351 -966 -552 -1715 -1574
-2007 -2737 -44 -176 -72 -319 -97 -500 -25 -181 -25 -676 0 -845 68 -452 221
-834 452 -1130 357 -457 894 -706 1475 -682 172 8 293 31 480 93 309 102 676
326 949 580 40 37 62 51 58 39 -3 -11 -139 -551 -301 -1200 -162 -649 -307
-1209 -322 -1245 -42 -103 -93 -168 -156 -201 -102 -52 -307 -78 -688 -86
-379 -7 -368 -1 -425 -230 -41 -168 -29 -230 54 -273 38 -19 48 -20 233 -10
106 5 448 15 761 22 586 12 1318 3 1878 -23 225 -11 238 -11 275 7 56 28 78
68 114 213 36 147 35 182 -7 232 -45 53 -73 59 -270 59 -402 1 -695 38 -725
93 -37 68 -64 -47 972 4097 729 2915 980 3934 976 3960 -15 97 -132 158 -217
115 -53 -27 -243 -159 -358 -249 -227 -176 -402 -355 -519 -529 l-45 -67 -39
72 c-240 442 -611 715 -1062 777 -90 13 -296 12 -411 -1z m415 -423 c234 -56
433 -202 586 -431 107 -160 203 -399 248 -614 l22 -105 -380 -1520 -381 -1520
-69 -95 c-296 -405 -604 -702 -937 -901 -438 -261 -879 -300 -1156 -103 -371
263 -506 810 -392 1584 10 74 38 225 60 335 50 247 249 1045 323 1295 209 711
466 1193 835 1572 280 288 566 459 856 513 97 18 289 13 385 -10z"/>
</g>
</svg>
