<?xml version="1.0" standalone="no"?>
<!DOCTYPE svg PUBLIC "-//W3C//DTD SVG 20010904//EN"
 "http://www.w3.org/TR/2001/REC-SVG-20010904/DTD/svg10.dtd">
<svg version="1.0" xmlns="http://www.w3.org/2000/svg"
 width="516.000000pt" height="1328.000000pt" viewBox="0 0 516.000000 1328.000000"
 preserveAspectRatio="xMidYMid meet">
<metadata>
Created by potrace 1.16, written by Peter Selinger 2001-2019
</metadata>
<g transform="translate(0.000000,1328.000000) scale(0.100000,-0.100000)"
fill="#000000" stroke="none">
<path d="M4797 13268 c-53 -14 -140 -97 -165 -155 -44 -105 -4616 -12751
-4626 -12796 -29 -137 67 -280 209 -310 108 -22 227 27 279 116 14 24 1066
2916 2337 6427 2279 6294 2312 6386 2313 6460 0 55 -4 85 -19 115 -25 51 -80
106 -130 129 -46 22 -145 29 -198 14z"/>
</g>
</svg>
