<?xml version="1.0" standalone="no"?>
<!DOCTYPE svg PUBLIC "-//W3C//DTD SVG 20010904//EN"
 "http://www.w3.org/TR/2001/REC-SVG-20010904/DTD/svg10.dtd">
<svg version="1.0" xmlns="http://www.w3.org/2000/svg"
 width="653.000000pt" height="946.000000pt" viewBox="0 0 653.000000 946.000000"
 preserveAspectRatio="xMidYMid meet">
<metadata>
Created by potrace 1.16, written by Peter Selinger 2001-2019
</metadata>
<g transform="translate(0.000000,946.000000) scale(0.100000,-0.100000)"
fill="#000000" stroke="none">
<path d="M2370 9443 c-52 -27 -74 -70 -110 -212 -36 -147 -35 -182 7 -232 47
-55 69 -59 320 -59 513 0 922 -41 985 -97 24 -21 41 -114 33 -176 -4 -29 -441
-1789 -972 -3912 -809 -3241 -970 -3872 -1000 -3935 -52 -109 -137 -191 -224
-218 -159 -49 -401 -71 -879 -79 -467 -7 -445 2 -501 -217 -16 -61 -29 -131
-29 -155 0 -56 30 -106 81 -132 38 -19 49 -19 297 -10 141 6 584 16 984 23
750 12 1727 3 2445 -23 l301 -11 39 22 c53 29 71 62 104 194 35 135 36 187 8
233 -41 67 -70 73 -326 73 -405 0 -769 26 -912 65 -30 8 -66 26 -80 40 -23 22
-26 35 -29 108 -3 80 18 167 966 3961 1065 4258 988 3969 1092 4076 55 56 101
81 191 103 161 40 550 67 959 67 310 0 313 2 370 229 36 147 35 182 -7 232
-50 58 -64 60 -356 49 -1041 -39 -2285 -37 -3542 5 -162 6 -183 5 -215 -12z"/>
</g>
</svg>
