<?xml version="1.0" standalone="no"?>
<!DOCTYPE svg PUBLIC "-//W3C//DTD SVG 20010904//EN"
 "http://www.w3.org/TR/2001/REC-SVG-20010904/DTD/svg10.dtd">
<svg version="1.0" xmlns="http://www.w3.org/2000/svg"
 width="701.000000pt" height="1195.000000pt" viewBox="0 0 701.000000 1195.000000"
 preserveAspectRatio="xMidYMid meet">
<metadata>
Created by potrace 1.16, written by Peter Selinger 2001-2019
</metadata>
<g transform="translate(0.000000,1195.000000) scale(0.100000,-0.100000)"
fill="#000000" stroke="none">
<path d="M4943 11934 c-18 -9 -39 -27 -47 -39 -9 -13 -199 -756 -422 -1652
-224 -895 -410 -1632 -414 -1636 -4 -4 -65 -12 -136 -18 -893 -65 -1783 -422
-2516 -1007 -754 -602 -1252 -1404 -1383 -2227 -23 -140 -31 -476 -15 -617 59
-540 275 -995 649 -1368 132 -132 307 -270 453 -358 376 -227 897 -389 1348
-418 86 -6 100 -9 96 -23 -27 -89 -606 -2427 -606 -2446 0 -39 27 -83 63 -105
25 -16 50 -20 122 -20 101 0 143 17 168 67 8 15 153 584 322 1263 169 679 311
1239 315 1243 4 4 65 12 136 18 1206 88 2421 723 3168 1654 396 493 642 1026
731 1581 23 138 31 475 15 616 -59 540 -275 995 -649 1368 -132 132 -307 270
-453 358 -376 227 -897 389 -1348 418 -86 6 -100 9 -96 23 34 112 796 3190
796 3213 0 45 -19 78 -59 105 -29 20 -47 23 -120 23 -58 0 -97 -6 -118 -16z
m-973 -3691 c0 -5 -298 -1202 -662 -2660 l-663 -2653 -45 0 c-125 1 -390 53
-559 112 -268 92 -471 217 -662 408 -250 250 -381 512 -444 890 -22 131 -31
456 -16 616 62 689 326 1411 712 1949 513 716 1332 1212 2194 1329 122 17 145
18 145 9z m575 -8 c451 -64 796 -226 1076 -505 250 -250 381 -512 444 -890 22
-131 31 -456 16 -616 -62 -689 -326 -1411 -712 -1949 -517 -721 -1341 -1217
-2209 -1330 -67 -9 -124 -14 -127 -11 -3 3 293 1200 658 2661 l664 2655 45 0
c25 0 90 -7 145 -15z"/>
</g>
</svg>
