<?xml version="1.0" standalone="no"?>
<!DOCTYPE svg PUBLIC "-//W3C//DTD SVG 20010904//EN"
 "http://www.w3.org/TR/2001/REC-SVG-20010904/DTD/svg10.dtd">
<svg version="1.0" xmlns="http://www.w3.org/2000/svg"
 width="646.000000pt" height="626.000000pt" viewBox="0 0 646.000000 626.000000"
 preserveAspectRatio="xMidYMid meet">
<metadata>
Created by potrace 1.16, written by Peter Selinger 2001-2019
</metadata>
<g transform="translate(0.000000,626.000000) scale(0.100000,-0.100000)"
fill="#000000" stroke="none">
<path d="M3155 6249 c-327 -40 -714 -172 -1028 -352 -966 -552 -1715 -1574
-2007 -2737 -92 -367 -114 -548 -115 -925 0 -315 9 -419 56 -630 185 -838 703
-1402 1434 -1564 217 -48 500 -52 700 -11 253 53 540 176 785 338 193 127 321
232 512 420 92 91 169 164 171 161 1 -2 13 -38 26 -79 132 -429 488 -741 959
-840 141 -30 362 -37 475 -16 301 57 537 228 742 536 200 301 353 695 525
1352 69 260 69 276 10 333 -31 30 -32 30 -165 33 -145 4 -179 -5 -211 -53 -9
-14 -44 -134 -79 -267 -151 -583 -254 -877 -393 -1121 -170 -299 -365 -433
-602 -413 -128 11 -216 70 -274 184 -79 156 -93 445 -36 775 10 62 245 1015
521 2117 476 1901 502 2010 502 2095 0 70 -5 103 -22 148 -47 120 -148 206
-286 241 -180 47 -401 -20 -550 -169 -75 -74 -121 -150 -158 -261 l-22 -65
-40 68 c-177 302 -461 541 -765 643 -140 47 -228 61 -410 65 -96 2 -211 -1
-255 -6z m415 -424 c234 -56 433 -202 586 -431 107 -160 203 -399 248 -614
l22 -105 -380 -1520 -381 -1520 -69 -95 c-296 -405 -604 -702 -937 -901 -438
-261 -879 -300 -1156 -103 -371 263 -506 810 -392 1584 10 74 38 225 60 335
50 247 249 1045 323 1295 209 711 466 1193 835 1572 280 288 566 459 856 513
97 18 289 13 385 -10z"/>
</g>
</svg>
