<?xml version="1.0" standalone="no"?>
<!DOCTYPE svg PUBLIC "-//W3C//DTD SVG 20010904//EN"
 "http://www.w3.org/TR/2001/REC-SVG-20010904/DTD/svg10.dtd">
<svg version="1.0" xmlns="http://www.w3.org/2000/svg"
 width="790.000000pt" height="914.000000pt" viewBox="0 0 790.000000 914.000000"
 preserveAspectRatio="xMidYMid meet">
<metadata>
Created by potrace 1.16, written by Peter Selinger 2001-2019
</metadata>
<g transform="translate(0.000000,914.000000) scale(0.100000,-0.100000)"
fill="#000000" stroke="none">
<path d="M6035 9128 c-384 -43 -798 -225 -1142 -502 -567 -458 -1088 -1272
-1536 -2406 -172 -435 -275 -737 -550 -1613 -107 -340 -196 -620 -199 -622 -6
-6 -202 40 -346 81 -746 213 -1300 615 -1536 1114 -94 200 -134 368 -143 605
-7 202 12 359 73 609 250 1010 577 1714 1045 2250 52 59 104 121 116 138 46
62 21 158 -50 191 -47 23 -353 25 -395 3 -32 -16 -109 -97 -208 -216 -468
-562 -799 -1291 -1052 -2315 -83 -335 -105 -499 -105 -790 0 -408 80 -755 254
-1105 128 -258 252 -431 459 -644 287 -294 611 -513 1026 -691 115 -50 462
-169 527 -180 33 -6 37 -10 31 -29 -264 -822 -767 -2449 -775 -2503 -41 -294
200 -526 517 -500 269 23 507 208 595 464 11 32 116 580 235 1218 118 638 217
1169 220 1180 5 20 12 20 337 20 365 0 480 10 762 66 799 158 1582 569 2235
1171 825 760 1359 1791 1450 2795 16 176 8 551 -15 703 -130 858 -628 1408
-1363 1505 -122 16 -339 18 -467 3z m215 -998 c554 -67 923 -423 1027 -990 23
-129 23 -416 -1 -555 -134 -788 -664 -1528 -1463 -2048 -540 -351 -1132 -563
-1783 -639 -122 -14 -723 -18 -736 -5 -6 6 21 161 177 997 65 347 124 585 214
855 411 1236 1159 2122 1968 2334 98 26 184 42 292 55 67 7 226 5 305 -4z"/>
</g>
</svg>
