<?xml version="1.0" standalone="no"?>
<!DOCTYPE svg PUBLIC "-//W3C//DTD SVG 20010904//EN"
 "http://www.w3.org/TR/2001/REC-SVG-20010904/DTD/svg10.dtd">
<svg version="1.0" xmlns="http://www.w3.org/2000/svg"
 width="576.000000pt" height="927.000000pt" viewBox="0 0 576.000000 927.000000"
 preserveAspectRatio="xMidYMid meet">
<metadata>
Created by potrace 1.16, written by Peter Selinger 2001-2019
</metadata>
<g transform="translate(0.000000,927.000000) scale(0.100000,-0.100000)"
fill="#000000" stroke="none">
<path d="M2505 9259 c-402 -38 -805 -162 -1130 -348 -523 -300 -852 -733 -966
-1271 -18 -86 -22 -138 -23 -290 0 -182 0 -187 32 -280 68 -203 177 -333 362
-429 197 -103 435 -118 652 -42 113 40 183 86 278 181 98 98 156 200 191 335
28 112 28 299 -1 410 -58 226 -193 393 -394 490 -66 31 -191 69 -261 77 -30 4
-29 5 66 99 128 126 254 214 434 304 319 158 635 230 1010 229 159 0 207 -4
295 -23 402 -86 693 -337 814 -701 67 -202 81 -314 81 -650 0 -231 -4 -321
-18 -415 -110 -733 -413 -1259 -867 -1504 -190 -102 -287 -121 -820 -161 -453
-34 -454 -34 -497 -100 -21 -31 -23 -44 -23 -182 0 -165 9 -202 58 -235 25
-17 69 -18 597 -24 625 -7 628 -7 815 -74 266 -96 524 -309 692 -570 229 -354
331 -859 315 -1550 -10 -405 -48 -673 -132 -931 -208 -636 -707 -1024 -1316
-1024 -585 1 -1186 179 -1577 469 -80 60 -226 191 -219 198 2 2 42 13 88 24
297 75 496 264 586 556 24 80 27 103 27 248 0 145 -3 168 -27 248 -74 240
-212 401 -432 503 -221 102 -509 102 -730 0 -408 -189 -555 -612 -410 -1181
81 -318 239 -589 485 -834 452 -452 1161 -742 1960 -802 189 -14 518 -7 690
16 1288 170 2284 1033 2515 2180 96 476 41 910 -170 1340 -119 243 -259 438
-455 635 -360 359 -847 632 -1380 771 -63 17 -122 32 -130 35 -8 3 30 23 84
45 253 102 573 289 782 456 612 494 960 1213 931 1923 -40 961 -1022 1746
-2311 1850 -148 12 -420 11 -551 -1z"/>
</g>
</svg>
