<?xml version="1.0" standalone="no"?>
<!DOCTYPE svg PUBLIC "-//W3C//DTD SVG 20010904//EN"
 "http://www.w3.org/TR/2001/REC-SVG-20010904/DTD/svg10.dtd">
<svg version="1.0" xmlns="http://www.w3.org/2000/svg"
 width="922.000000pt" height="627.000000pt" viewBox="0 0 922.000000 627.000000"
 preserveAspectRatio="xMidYMid meet">
<metadata>
Created by potrace 1.16, written by Peter Selinger 2001-2019
</metadata>
<g transform="translate(0.000000,627.000000) scale(0.100000,-0.100000)"
fill="#000000" stroke="none">
<path d="M8431 6255 c-207 -47 -429 -222 -533 -421 -63 -122 -81 -194 -76
-319 3 -91 7 -107 40 -178 33 -69 54 -94 191 -230 218 -215 320 -376 396 -623
50 -163 65 -268 65 -464 0 -217 -11 -284 -109 -665 -394 -1545 -800 -2364
-1360 -2739 -212 -143 -477 -216 -735 -203 -488 25 -797 287 -894 760 -42 200
-46 535 -11 787 31 225 90 474 486 2060 372 1487 402 1611 402 1690 0 193
-113 334 -308 384 -180 47 -400 -20 -551 -169 -134 -132 -102 -28 -554 -1836
-219 -877 -410 -1651 -424 -1721 -49 -241 -59 -348 -62 -627 l-3 -264 -70
-141 c-279 -557 -605 -863 -976 -916 -196 -27 -445 7 -631 87 -395 171 -586
529 -586 1103 0 577 153 1147 705 2626 90 241 171 466 180 499 71 263 63 562
-23 797 -170 465 -629 750 -1169 725 -274 -13 -548 -120 -788 -309 -114 -89
-286 -267 -385 -398 -267 -354 -496 -844 -628 -1347 -25 -95 -19 -131 31 -179
30 -29 31 -29 167 -32 197 -4 206 2 260 208 173 648 486 1200 827 1458 87 66
249 146 335 167 99 23 216 29 284 15 196 -41 254 -296 165 -733 -31 -157 -80
-303 -253 -766 -556 -1484 -698 -2007 -699 -2576 0 -234 14 -356 64 -543 179
-680 703 -1084 1554 -1198 191 -26 579 -26 695 0 210 46 419 140 585 264 164
122 399 383 500 557 l28 47 36 -69 c64 -121 121 -195 240 -314 259 -258 591
-409 1053 -480 117 -18 188 -22 393 -23 223 0 261 2 352 22 351 77 623 226
897 492 416 404 756 1015 1052 1895 157 464 343 1151 478 1765 185 841 191
1372 21 1715 -138 279 -393 419 -654 360z"/>
</g>
</svg>
