<?xml version="1.0" standalone="no"?>
<!DOCTYPE svg PUBLIC "-//W3C//DTD SVG 20010904//EN"
 "http://www.w3.org/TR/2001/REC-SVG-20010904/DTD/svg10.dtd">
<svg version="1.0" xmlns="http://www.w3.org/2000/svg"
 width="554.000000pt" height="916.000000pt" viewBox="0 0 554.000000 916.000000"
 preserveAspectRatio="xMidYMid meet">
<metadata>
Created by potrace 1.16, written by Peter Selinger 2001-2019
</metadata>
<g transform="translate(0.000000,916.000000) scale(0.100000,-0.100000)"
fill="#000000" stroke="none">
<path d="M3300 9153 c-751 -72 -1416 -405 -1986 -996 -533 -551 -935 -1306
-1143 -2149 -115 -464 -158 -808 -168 -1343 -21 -1197 136 -2202 464 -2955
225 -518 482 -879 830 -1167 265 -218 589 -387 899 -468 404 -105 886 -98
1314 19 408 112 742 317 1100 676 675 675 940 1355 917 2350 -12 487 -83 843
-243 1203 -212 479 -680 1033 -1109 1313 -383 249 -843 369 -1345 351 -677
-25 -1213 -408 -1572 -1122 l-80 -160 6 325 c22 1141 153 1822 468 2441 354
697 915 1162 1546 1281 168 32 471 31 657 -1 217 -38 395 -104 550 -205 60
-40 245 -217 245 -236 0 -6 -30 -10 -68 -10 -281 0 -531 -198 -587 -465 -73
-346 111 -651 443 -736 274 -70 581 64 696 304 56 115 69 195 62 367 -24 621
-374 1080 -975 1280 -136 46 -322 84 -475 99 -100 10 -362 13 -446 4z m-178
-3527 c252 -45 464 -155 641 -331 253 -252 424 -574 500 -941 63 -300 78 -504
84 -1164 9 -938 -23 -1326 -141 -1685 -143 -432 -457 -814 -801 -970 -181 -83
-366 -118 -615 -119 -185 0 -248 8 -385 51 -438 137 -820 549 -990 1067 -110
335 -190 931 -211 1571 -25 768 181 1519 544 1985 249 318 550 499 917 549 95
13 350 6 457 -13z"/>
</g>
</svg>
