<?xml version="1.0" standalone="no"?>
<!DOCTYPE svg PUBLIC "-//W3C//DTD SVG 20010904//EN"
 "http://www.w3.org/TR/2001/REC-SVG-20010904/DTD/svg10.dtd">
<svg version="1.0" xmlns="http://www.w3.org/2000/svg"
 width="957.000000pt" height="1246.000000pt" viewBox="0 0 957.000000 1246.000000"
 preserveAspectRatio="xMidYMid meet">
<metadata>
Created by potrace 1.16, written by Peter Selinger 2001-2019
</metadata>
<g transform="translate(0.000000,1246.000000) scale(0.100000,-0.100000)"
fill="#000000" stroke="none">
<path d="M5740 12450 c-488 -40 -977 -154 -1444 -336 -1957 -762 -3569 -2599
-4110 -4684 -399 -1537 -126 -2995 741 -3955 431 -478 1024 -826 1676 -985
647 -158 1334 -145 2076 41 107 27 197 46 199 44 3 -3 -6 -159 -19 -347 -27
-399 -33 -954 -11 -1118 30 -223 86 -429 153 -562 191 -380 553 -567 1054
-545 567 26 1072 354 1509 980 220 316 446 784 596 1237 63 192 130 434 130
472 0 97 -99 173 -193 147 -68 -19 -93 -50 -127 -162 -137 -444 -509 -827
-986 -1016 -212 -84 -394 -116 -617 -108 -251 8 -379 59 -527 207 -163 163
-267 410 -349 825 -45 229 -56 197 84 259 1127 498 2172 1399 2900 2501 1014
1535 1342 3344 865 4775 -436 1307 -1471 2151 -2840 2315 -158 19 -605 28
-760 15z m385 -550 c815 -77 1464 -581 1778 -1380 305 -779 301 -1771 -13
-3068 -441 -1818 -1248 -3127 -2414 -3914 l-129 -88 -29 137 c-162 795 -476
1168 -1046 1244 -113 15 -321 6 -437 -20 -707 -155 -1267 -828 -1243 -1491 l4
-119 -35 21 c-779 471 -1176 1395 -1121 2606 31 674 188 1469 447 2267 468
1443 1244 2554 2248 3222 509 339 1053 541 1580 586 92 8 308 6 410 -3z
m-1885 -7584 c322 -49 508 -221 595 -549 35 -133 54 -263 62 -418 l6 -135
-154 -62 c-251 -99 -478 -161 -734 -199 -87 -12 -184 -17 -355 -17 l-235 -1
-60 30 c-32 17 -85 55 -116 85 -96 94 -139 205 -139 360 0 226 99 437 293 627
244 240 510 328 837 279z"/>
</g>
</svg>
