<?xml version="1.0" standalone="no"?>
<!DOCTYPE svg PUBLIC "-//W3C//DTD SVG 20010904//EN"
 "http://www.w3.org/TR/2001/REC-SVG-20010904/DTD/svg10.dtd">
<svg version="1.0" xmlns="http://www.w3.org/2000/svg"
 width="587.000000pt" height="603.000000pt" viewBox="0 0 587.000000 603.000000"
 preserveAspectRatio="xMidYMid meet">
<metadata>
Created by potrace 1.16, written by Peter Selinger 2001-2019
</metadata>
<g transform="translate(0.000000,603.000000) scale(0.100000,-0.100000)"
fill="#000000" stroke="none">
<path d="M5130 6009 c-206 -53 -385 -200 -480 -394 -69 -139 -85 -244 -55
-358 27 -105 58 -149 207 -299 226 -226 343 -428 408 -703 44 -185 54 -423 25
-622 -18 -124 -91 -414 -164 -653 -315 -1036 -742 -1821 -1220 -2247 -278
-248 -555 -373 -866 -390 -438 -24 -789 189 -924 561 -158 437 -105 1046 168
1926 104 334 209 632 455 1287 74 198 146 405 160 460 79 314 57 589 -70 852
-169 354 -511 568 -939 588 -340 16 -637 -100 -946 -370 -356 -310 -700 -946
-870 -1608 -22 -85 -22 -86 -3 -124 31 -63 63 -79 158 -83 143 -6 177 21 216
177 58 234 184 568 296 788 227 447 506 736 809 840 164 56 345 54 429 -4 96
-66 140 -239 118 -467 -25 -261 -68 -414 -269 -951 -472 -1260 -627 -1774
-683 -2275 -17 -146 -14 -466 5 -595 101 -685 503 -1114 1200 -1278 206 -49
321 -61 575 -61 223 -1 241 1 355 28 199 46 373 119 547 226 631 392 1195
1258 1589 2440 98 296 140 440 233 815 199 799 259 1155 260 1550 1 260 -11
351 -68 517 -44 129 -86 198 -176 289 -140 142 -295 186 -480 138z"/>
</g>
</svg>
