<?xml version="1.0" standalone="no"?>
<!DOCTYPE svg PUBLIC "-//W3C//DTD SVG 20010904//EN"
 "http://www.w3.org/TR/2001/REC-SVG-20010904/DTD/svg10.dtd">
<svg version="1.0" xmlns="http://www.w3.org/2000/svg"
 width="990.000000pt" height="942.000000pt" viewBox="0 0 990.000000 942.000000"
 preserveAspectRatio="xMidYMid meet">
<metadata>
Created by potrace 1.16, written by Peter Selinger 2001-2019
</metadata>
<g transform="translate(0.000000,942.000000) scale(0.100000,-0.100000)"
fill="#000000" stroke="none">
<path d="M2357 9399 c-53 -28 -68 -58 -106 -217 l-34 -139 24 -49 c45 -91 34
-88 417 -95 461 -9 724 -35 819 -81 39 -19 56 -74 50 -163 -4 -45 -343 -1419
-966 -3915 -874 -3497 -965 -3853 -1003 -3929 -44 -91 -109 -165 -169 -193
-128 -61 -507 -98 -997 -98 -234 0 -259 -5 -303 -58 -27 -31 -89 -250 -89
-313 0 -45 36 -103 80 -128 38 -21 43 -21 282 -12 134 6 561 16 950 23 731 12
1883 3 2669 -23 334 -11 336 -11 378 10 23 12 50 35 59 50 10 16 33 92 51 169
l34 139 -24 49 c-46 93 -23 88 -499 96 -432 6 -668 19 -850 44 -244 33 -286
66 -283 219 1 70 60 313 450 1870 l449 1790 680 3 c421 2 751 -1 869 -8 557
-33 759 -138 816 -425 14 -67 14 -270 0 -375 -17 -122 -46 -271 -92 -459 -45
-188 -47 -210 -18 -261 35 -62 79 -80 198 -80 63 0 114 5 134 14 77 32 48 -71
523 1828 l438 1754 -25 49 c-39 79 -61 89 -193 93 -98 3 -119 1 -153 -17 -22
-11 -48 -32 -58 -47 -9 -15 -40 -113 -67 -218 -88 -342 -175 -575 -277 -748
-227 -384 -513 -526 -1146 -568 -151 -10 -1495 -14 -1495 -5 0 28 907 3624
930 3688 43 118 89 170 176 197 36 11 116 25 177 31 153 15 2404 6 2572 -10
585 -56 895 -159 1119 -370 223 -212 319 -533 320 -1071 0 -269 -10 -411 -55
-814 -16 -148 -27 -282 -24 -298 9 -39 52 -88 92 -104 20 -9 71 -14 134 -14
85 0 107 3 140 22 76 43 62 -45 254 1577 l175 1475 -22 45 c-13 25 -36 54 -51
65 l-28 21 -3697 2 c-3682 2 -3697 2 -3735 -18z"/>
</g>
</svg>
