<?xml version="1.0" standalone="no"?>
<!DOCTYPE svg PUBLIC "-//W3C//DTD SVG 20010904//EN"
 "http://www.w3.org/TR/2001/REC-SVG-20010904/DTD/svg10.dtd">
<svg version="1.0" xmlns="http://www.w3.org/2000/svg"
 width="494.000000pt" height="937.000000pt" viewBox="0 0 494.000000 937.000000"
 preserveAspectRatio="xMidYMid meet">
<metadata>
Created by potrace 1.16, written by Peter Selinger 2001-2019
</metadata>
<g transform="translate(0.000000,937.000000) scale(0.100000,-0.100000)"
fill="#000000" stroke="none">
<path d="M1515 9293 c-682 -58 -878 -78 -905 -91 -49 -24 -74 -67 -100 -172
-34 -137 -18 -199 60 -241 30 -16 58 -19 195 -19 293 0 534 -27 633 -70 73
-32 89 -117 56 -291 -8 -46 -316 -1288 -684 -2759 -368 -1471 -680 -2729 -694
-2795 -59 -281 -70 -406 -71 -745 0 -331 5 -388 52 -615 58 -281 197 -614 341
-814 396 -555 1017 -784 1723 -635 665 140 1361 611 1870 1264 511 655 816
1391 921 2215 19 154 16 602 -6 750 -109 752 -460 1297 -1015 1575 -97 48
-282 112 -391 134 -213 43 -466 46 -650 7 -385 -82 -802 -316 -1150 -647 l-87
-84 494 1978 c364 1454 493 1986 488 2009 -7 38 -46 88 -86 108 -15 8 -50 14
-76 14 -26 -1 -439 -35 -918 -76z m1728 -3624 c288 -44 523 -282 631 -639 62
-206 88 -507 67 -765 -28 -333 -85 -632 -241 -1255 -154 -611 -236 -874 -372
-1195 -393 -925 -1103 -1538 -1701 -1468 -187 22 -331 96 -463 236 -296 314
-394 839 -293 1567 36 262 96 529 322 1433 l223 892 61 85 c262 367 579 681
877 867 316 197 628 282 889 242z"/>
</g>
</svg>
