<?xml version="1.0" standalone="no"?>
<!DOCTYPE svg PUBLIC "-//W3C//DTD SVG 20010904//EN"
 "http://www.w3.org/TR/2001/REC-SVG-20010904/DTD/svg10.dtd">
<svg version="1.0" xmlns="http://www.w3.org/2000/svg"
 width="1378.000000pt" height="977.000000pt" viewBox="0 0 1378.000000 977.000000"
 preserveAspectRatio="xMidYMid meet">
<metadata>
Created by potrace 1.16, written by Peter Selinger 2001-2019
</metadata>
<g transform="translate(0.000000,977.000000) scale(0.100000,-0.100000)"
fill="#000000" stroke="none">
<path d="M137 9750 c-53 -29 -68 -59 -106 -218 l-34 -139 24 -49 c44 -88 43
-88 347 -96 370 -9 556 -35 634 -90 35 -24 77 -111 84 -174 3 -27 146 -2034
318 -4460 301 -4250 313 -4412 335 -4447 13 -21 40 -44 67 -57 40 -20 57 -22
172 -18 141 4 177 16 250 82 27 25 562 954 2057 3573 1111 1947 2021 3532
2023 3524 1 -9 115 -1601 252 -3538 188 -2654 253 -3529 264 -3550 18 -36 54
-69 89 -82 16 -6 79 -11 141 -11 143 0 189 15 261 84 49 46 291 466 2391 4146
1285 2252 2348 4109 2361 4125 14 17 60 84 103 150 198 302 436 505 740 630
151 61 436 115 613 115 79 0 138 25 165 69 10 16 33 92 51 169 l34 139 -24 49
c-13 26 -37 57 -52 68 -33 24 -64 24 -382 6 -466 -27 -1404 -22 -2164 11 -286
12 -311 9 -358 -45 -23 -26 -37 -61 -61 -159 -38 -149 -39 -177 -11 -227 31
-55 82 -80 162 -80 168 0 376 -35 505 -86 99 -39 226 -126 272 -188 88 -117
100 -257 33 -405 -14 -31 -28 -66 -32 -77 -3 -12 -838 -1480 -1856 -3262
l-1850 -3241 -8 57 c-15 111 -487 6852 -482 6874 10 38 72 116 123 152 26 19
83 49 127 66 185 71 368 99 695 106 124 3 239 10 257 15 60 19 87 64 121 202
18 70 32 140 32 157 0 48 -33 103 -78 128 l-41 22 -268 -10 c-1000 -38 -2043
-38 -2899 1 l-262 12 -39 -23 c-53 -29 -71 -62 -104 -194 -35 -135 -36 -187
-8 -233 39 -63 76 -73 266 -73 308 0 575 -28 669 -70 49 -21 86 -67 108 -133
11 -33 26 -197 51 -541 19 -272 35 -514 35 -537 0 -37 -179 -355 -1692 -3005
-930 -1630 -1694 -2964 -1697 -2964 -3 0 -116 1555 -251 3456 l-244 3455 23
45 c37 68 118 137 207 174 180 75 390 108 744 118 310 9 304 5 360 233 37 147
35 181 -11 234 -48 54 -66 56 -345 45 -812 -31 -2027 -36 -2644 -10 -541 23
-521 23 -563 0z"/>
</g>
</svg>
