<?xml version="1.0" standalone="no"?>
<!DOCTYPE svg PUBLIC "-//W3C//DTD SVG 20010904//EN"
 "http://www.w3.org/TR/2001/REC-SVG-20010904/DTD/svg10.dtd">
<svg version="1.0" xmlns="http://www.w3.org/2000/svg"
 width="581.000000pt" height="991.000000pt" viewBox="0 0 581.000000 991.000000"
 preserveAspectRatio="xMidYMid meet">
<metadata>
Created by potrace 1.16, written by Peter Selinger 2001-2019
</metadata>
<g transform="translate(0.000000,991.000000) scale(0.100000,-0.100000)"
fill="#000000" stroke="none">
<path d="M3940 9904 c-396 -49 -795 -234 -1195 -554 -164 -131 -504 -470 -661
-660 -292 -351 -555 -731 -793 -1145 -122 -211 -367 -704 -463 -930 -445
-1045 -747 -2265 -819 -3308 -18 -258 -6 -875 20 -1091 100 -816 332 -1423
685 -1794 119 -124 235 -210 381 -282 569 -282 1263 -134 1950 418 158 126
521 489 672 672 748 902 1328 2040 1688 3314 200 707 319 1337 371 1956 21
249 24 806 5 1015 -72 802 -279 1445 -596 1850 -86 110 -244 260 -340 324
-141 92 -303 160 -475 197 -73 15 -354 27 -430 18z m321 -434 c81 -27 120 -51
188 -115 172 -161 271 -436 326 -908 69 -597 18 -1264 -165 -2162 -43 -210
-157 -708 -213 -930 l-33 -130 -1401 -3 -1401 -2 59 232 c360 1406 697 2265
1191 3037 214 335 445 611 648 773 138 111 311 195 457 223 106 20 259 13 344
-15z m-35 -4797 c-3 -10 -19 -74 -36 -143 -306 -1232 -634 -2126 -1035 -2820
-494 -857 -926 -1264 -1375 -1296 -421 -30 -655 265 -749 946 -66 479 -53
1008 39 1633 62 417 227 1202 351 1659 l10 38 1400 0 c1329 0 1400 -1 1395
-17z"/>
</g>
</svg>
