<?xml version="1.0" standalone="no"?>
<!DOCTYPE svg PUBLIC "-//W3C//DTD SVG 20010904//EN"
 "http://www.w3.org/TR/2001/REC-SVG-20010904/DTD/svg10.dtd">
<svg version="1.0" xmlns="http://www.w3.org/2000/svg"
 width="384.000000pt" height="1069.000000pt" viewBox="0 0 384.000000 1069.000000"
 preserveAspectRatio="xMidYMid meet">
<metadata>
Created by potrace 1.16, written by Peter Selinger 2001-2019
</metadata>
<g transform="translate(0.000000,1069.000000) scale(0.100000,-0.100000)"
fill="#000000" stroke="none">
<path d="M95 10676 c-37 -16 -70 -52 -84 -89 -8 -20 -11 -1575 -11 -5249 l0
-5220 21 -38 c36 -64 78 -80 207 -80 l110 0 124 81 c448 296 1017 729 1413
1074 209 182 620 593 777 775 690 805 1058 1586 1160 2465 19 168 16 576 -5
700 -41 233 -100 412 -198 606 -265 521 -726 879 -1274 990 -136 27 -426 37
-597 20 -483 -47 -925 -212 -1227 -458 l-56 -46 -5 2189 c-5 2132 -5 2190 -24
2221 -34 56 -80 73 -197 73 -64 -1 -116 -6 -134 -14z m1916 -4576 c297 -93
507 -441 586 -967 24 -160 24 -589 0 -783 -94 -759 -355 -1436 -832 -2155
-312 -471 -707 -945 -1174 -1410 l-141 -140 2 2360 3 2360 23 70 c100 299 377
512 812 624 264 69 577 86 721 41z"/>
</g>
</svg>
