<?xml version="1.0" standalone="no"?>
<!DOCTYPE svg PUBLIC "-//W3C//DTD SVG 20010904//EN"
 "http://www.w3.org/TR/2001/REC-SVG-20010904/DTD/svg10.dtd">
<svg version="1.0" xmlns="http://www.w3.org/2000/svg"
 width="525.000000pt" height="895.000000pt" viewBox="0 0 525.000000 895.000000"
 preserveAspectRatio="xMidYMid meet">
<metadata>
Created by potrace 1.16, written by Peter Selinger 2001-2019
</metadata>
<g transform="translate(0.000000,895.000000) scale(0.100000,-0.100000)"
fill="#000000" stroke="none">
<path d="M3665 8939 c-746 -102 -1474 -744 -1944 -1714 -38 -77 -92 -198 -120
-269 -60 -148 -61 -174 -6 -234 l33 -37 186 -3 c246 -4 244 -6 312 164 317
785 828 1372 1339 1537 126 40 191 51 320 51 136 1 167 -8 235 -70 135 -122
172 -416 104 -819 -15 -89 -1329 -5365 -1386 -5563 -181 -633 -561 -1170 -973
-1373 -159 -78 -228 -93 -430 -91 -96 0 -198 6 -234 14 l-64 13 59 39 c224
148 377 440 376 716 0 125 -22 206 -80 296 -77 118 -206 204 -359 238 -282 63
-626 -67 -828 -311 -69 -84 -147 -241 -176 -353 -27 -105 -36 -281 -20 -376
87 -496 647 -818 1376 -791 513 19 1041 220 1507 573 143 109 434 401 540 544
201 269 346 553 427 833 77 266 1360 5430 1371 5520 17 136 8 377 -19 483
-128 514 -486 849 -1028 964 -114 24 -403 35 -518 19z"/>
</g>
</svg>
