<?xml version="1.0" standalone="no"?>
<!DOCTYPE svg PUBLIC "-//W3C//DTD SVG 20010904//EN"
 "http://www.w3.org/TR/2001/REC-SVG-20010904/DTD/svg10.dtd">
<svg version="1.0" xmlns="http://www.w3.org/2000/svg"
 width="547.000000pt" height="1150.000000pt" viewBox="0 0 547.000000 1150.000000"
 preserveAspectRatio="xMidYMid meet">
<metadata>
Created by potrace 1.16, written by Peter Selinger 2001-2019
</metadata>
<g transform="translate(0.000000,1150.000000) scale(0.100000,-0.100000)"
fill="#000000" stroke="none">
<path d="M4798 11480 c-160 -40 -336 -156 -434 -286 -204 -272 -205 -586 -3
-779 230 -219 635 -164 900 123 240 260 264 609 55 818 -129 129 -316 173
-518 124z"/>
<path d="M3515 8585 c-668 -109 -1288 -676 -1735 -1586 -114 -233 -193 -435
-185 -475 7 -42 41 -83 81 -100 43 -18 165 -18 209 0 43 18 56 39 111 177 190
477 468 914 770 1212 221 218 437 349 681 414 80 21 122 26 233 27 129 1 138
0 192 -27 150 -73 218 -245 218 -549 0 -153 -16 -310 -49 -469 -36 -176 -1320
-5294 -1351 -5389 -137 -410 -343 -759 -610 -1034 -274 -282 -547 -423 -855
-442 -156 -10 -376 22 -491 71 l-39 17 52 18 c113 40 196 93 288 185 108 107
163 204 201 352 65 258 -13 471 -214 576 -316 166 -757 3 -933 -345 -81 -160
-109 -378 -70 -540 66 -276 270 -478 598 -592 153 -53 293 -77 478 -83 1097
-36 2243 808 2554 1880 39 133 1273 5069 1302 5207 17 82 22 141 23 270 1 183
-10 264 -56 410 -134 421 -444 698 -897 801 -117 27 -382 34 -506 14z"/>
</g>
</svg>
