<?xml version="1.0" standalone="no"?>
<!DOCTYPE svg PUBLIC "-//W3C//DTD SVG 20010904//EN"
 "http://www.w3.org/TR/2001/REC-SVG-20010904/DTD/svg10.dtd">
<svg version="1.0" xmlns="http://www.w3.org/2000/svg"
 width="634.000000pt" height="875.000000pt" viewBox="0 0 634.000000 875.000000"
 preserveAspectRatio="xMidYMid meet">
<metadata>
Created by potrace 1.16, written by Peter Selinger 2001-2019
</metadata>
<g transform="translate(0.000000,875.000000) scale(0.100000,-0.100000)"
fill="#000000" stroke="none">
<path d="M4240 8739 c-635 -71 -1332 -462 -1863 -1044 -450 -493 -776 -1060
-970 -1685 -20 -63 -343 -1341 -718 -2840 -736 -2943 -704 -2802 -666 -2920
96 -293 513 -336 769 -80 119 119 94 36 530 1778 214 856 394 1575 399 1596
l11 39 44 -83 c208 -390 543 -649 955 -742 90 -20 131 -23 299 -23 218 1 329
15 545 70 411 105 804 308 1187 613 171 136 494 459 631 632 399 502 675 1056
827 1660 88 346 115 588 107 952 -6 337 -38 526 -136 810 -249 722 -807 1185
-1526 1268 -104 11 -317 11 -425 -1z m413 -358 c137 -36 228 -91 347 -211 111
-111 159 -183 226 -339 132 -304 152 -752 59 -1305 -63 -371 -263 -1168 -385
-1536 -105 -315 -260 -654 -400 -878 -202 -322 -466 -605 -733 -786 -326 -220
-643 -297 -962 -231 -291 60 -548 261 -718 560 -62 111 -130 286 -167 436
l-31 126 211 844 c277 1107 322 1265 462 1614 383 953 1047 1618 1723 1725 92
14 278 4 368 -19z"/>
</g>
</svg>
