<?xml version="1.0" standalone="no"?>
<!DOCTYPE svg PUBLIC "-//W3C//DTD SVG 20010904//EN"
 "http://www.w3.org/TR/2001/REC-SVG-20010904/DTD/svg10.dtd">
<svg version="1.0" xmlns="http://www.w3.org/2000/svg"
 width="1230.000000pt" height="367.000000pt" viewBox="0 0 1230.000000 367.000000"
 preserveAspectRatio="xMidYMid meet">
<metadata>
Created by potrace 1.16, written by Peter Selinger 2001-2019
</metadata>
<g transform="translate(0.000000,367.000000) scale(0.100000,-0.100000)"
fill="#000000" stroke="none">
<path d="M5890 3659 c-803 -24 -1593 -181 -2360 -466 -1403 -524 -2610 -1470
-3433 -2691 -82 -122 -97 -158 -97 -237 0 -180 216 -319 380 -244 61 27 90 57
168 169 217 312 391 521 661 791 222 221 379 359 606 529 897 673 2035 1112
3290 1269 391 49 506 56 1040 56 534 0 649 -7 1040 -56 1255 -157 2393 -596
3290 -1269 227 -170 384 -308 606 -529 270 -270 444 -479 661 -791 78 -112
107 -142 168 -169 164 -75 380 64 380 244 0 79 -15 115 -97 237 -630 935
-1477 1704 -2489 2259 -981 538 -2165 865 -3239 894 -104 3 -224 7 -265 8 -41
2 -181 0 -310 -4z"/>
</g>
</svg>
