<?xml version="1.0" standalone="no"?>
<!DOCTYPE svg PUBLIC "-//W3C//DTD SVG 20010904//EN"
 "http://www.w3.org/TR/2001/REC-SVG-20010904/DTD/svg10.dtd">
<svg version="1.0" xmlns="http://www.w3.org/2000/svg"
 width="554.000000pt" height="952.000000pt" viewBox="0 0 554.000000 952.000000"
 preserveAspectRatio="xMidYMid meet">
<metadata>
Created by potrace 1.16, written by Peter Selinger 2001-2019
</metadata>
<g transform="translate(0.000000,952.000000) scale(0.100000,-0.100000)"
fill="#000000" stroke="none">
<path d="M3721 9509 c-508 -68 -1066 -420 -1580 -994 -684 -765 -1241 -1757
-1616 -2880 -284 -848 -461 -1690 -515 -2447 -13 -188 -13 -704 0 -879 68
-882 336 -1609 727 -1969 261 -240 577 -354 937 -337 681 32 1388 528 2084
1462 688 923 1172 1990 1498 3298 173 697 257 1281 271 1887 26 1142 -268
2120 -769 2557 -166 145 -342 234 -558 284 -101 24 -364 33 -479 18z m310
-343 c170 -36 292 -142 389 -336 119 -239 186 -622 197 -1125 14 -659 -84
-1336 -354 -2442 l-67 -273 -1373 0 c-1052 0 -1373 3 -1373 12 0 17 121 483
185 713 311 1115 645 1886 1126 2600 344 511 671 790 994 850 94 18 196 18
276 1z m45 -4653 c-2 -10 -32 -126 -66 -258 -337 -1319 -668 -2150 -1169
-2935 -457 -716 -894 -1037 -1321 -971 -258 40 -439 272 -529 676 -102 459
-113 1077 -30 1715 58 446 206 1167 360 1753 l10 37 1375 0 c1305 0 1375 -1
1370 -17z"/>
</g>
</svg>
