<?xml version="1.0" standalone="no"?>
<!DOCTYPE svg PUBLIC "-//W3C//DTD SVG 20010904//EN"
 "http://www.w3.org/TR/2001/REC-SVG-20010904/DTD/svg10.dtd">
<svg version="1.0" xmlns="http://www.w3.org/2000/svg"
 width="774.000000pt" height="626.000000pt" viewBox="0 0 774.000000 626.000000"
 preserveAspectRatio="xMidYMid meet">
<metadata>
Created by potrace 1.16, written by Peter Selinger 2001-2019
</metadata>
<g transform="translate(0.000000,626.000000) scale(0.100000,-0.100000)"
fill="#000000" stroke="none">
<path d="M1405 6254 c-143 -24 -315 -93 -436 -175 -92 -62 -230 -199 -315
-311 -237 -316 -422 -759 -605 -1453 -57 -213 -57 -235 1 -290 l31 -30 184 -3
c257 -4 254 -6 311 210 97 368 130 486 176 628 188 575 390 861 646 911 72 13
173 7 225 -15 198 -82 263 -415 176 -899 -11 -59 -256 -1054 -545 -2210 l-526
-2102 5 -95 c5 -124 31 -192 102 -269 155 -167 415 -197 660 -77 142 71 265
200 324 341 18 42 215 813 486 1895 444 1778 457 1827 502 1910 111 205 254
425 397 610 103 132 322 359 440 454 332 269 684 416 1095 456 313 30 471 -10
623 -161 91 -89 134 -170 172 -319 78 -307 51 -670 -90 -1235 -143 -570 -338
-1171 -674 -2070 -177 -476 -199 -564 -200 -796 -1 -499 293 -913 766 -1082
149 -53 264 -71 454 -72 249 0 389 33 615 145 172 86 287 172 461 345 367 364
644 863 819 1475 53 185 52 210 -5 265 l-31 30 -184 3 c-154 3 -189 1 -215
-13 -38 -20 -65 -63 -81 -129 -24 -103 -102 -345 -156 -481 -228 -578 -549
-971 -889 -1089 -136 -48 -313 -58 -383 -22 -45 24 -89 82 -108 144 -22 70
-24 289 -4 402 36 208 71 321 254 810 389 1041 662 1920 742 2394 162 956
-158 1618 -904 1866 -244 82 -509 117 -805 107 -203 -7 -333 -24 -515 -68
-340 -83 -696 -261 -991 -495 -97 -77 -382 -355 -450 -438 -25 -30 -48 -55
-51 -56 -4 0 -9 18 -13 40 -11 67 -66 230 -103 305 -178 356 -503 595 -932
685 -95 20 -386 35 -456 24z"/>
</g>
</svg>
