<?xml version="1.0" standalone="no"?>
<!DOCTYPE svg PUBLIC "-//W3C//DTD SVG 20010904//EN"
 "http://www.w3.org/TR/2001/REC-SVG-20010904/DTD/svg10.dtd">
<svg version="1.0" xmlns="http://www.w3.org/2000/svg"
 width="733.000000pt" height="911.000000pt" viewBox="0 0 733.000000 911.000000"
 preserveAspectRatio="xMidYMid meet">
<metadata>
Created by potrace 1.16, written by Peter Selinger 2001-2019
</metadata>
<g transform="translate(0.000000,911.000000) scale(0.100000,-0.100000)"
fill="#000000" stroke="none">
<path d="M2530 9099 c-355 -40 -728 -182 -1070 -407 -663 -436 -1207 -1196
-1426 -1991 -28 -104 -32 -130 -24 -161 10 -37 37 -68 77 -89 32 -16 246 -14
288 3 45 19 57 40 104 183 137 420 437 775 881 1043 197 119 426 214 650 269
200 49 324 64 530 64 248 1 418 -24 625 -90 404 -129 751 -396 998 -769 165
-250 268 -502 356 -874 179 -758 228 -1613 145 -2550 -14 -164 -19 -187 -74
-365 -185 -596 -335 -1135 -489 -1750 -197 -789 -243 -1030 -245 -1275 -1
-162 -1 -166 27 -223 34 -69 85 -107 152 -115 189 -21 326 211 520 883 74 258
244 932 309 1225 87 396 169 869 215 1245 19 152 25 175 121 465 504 1514
1112 2971 1883 4513 262 524 257 510 202 575 -39 47 -70 54 -208 50 -108 -3
-130 -6 -154 -24 -45 -32 -510 -967 -836 -1679 -301 -659 -644 -1478 -873
-2088 -51 -137 -59 -153 -61 -120 -46 739 -114 1136 -308 1808 -198 684 -410
1165 -668 1515 -315 425 -730 673 -1222 730 -104 11 -317 11 -425 -1z"/>
</g>
</svg>
