<?xml version="1.0" standalone="no"?>
<!DOCTYPE svg PUBLIC "-//W3C//DTD SVG 20010904//EN"
 "http://www.w3.org/TR/2001/REC-SVG-20010904/DTD/svg10.dtd">
<svg version="1.0" xmlns="http://www.w3.org/2000/svg"
 width="554.000000pt" height="916.000000pt" viewBox="0 0 554.000000 916.000000"
 preserveAspectRatio="xMidYMid meet">
<metadata>
Created by potrace 1.16, written by Peter Selinger 2001-2019
</metadata>
<g transform="translate(0.000000,916.000000) scale(0.100000,-0.100000)"
fill="#000000" stroke="none">
<path d="M2510 9149 c-815 -90 -1506 -529 -1878 -1194 -237 -424 -317 -940
-221 -1420 50 -245 175 -544 317 -755 101 -151 184 -250 308 -370 141 -136
276 -236 616 -455 153 -98 277 -179 275 -180 -1 -2 -67 -36 -147 -78 -1029
-533 -1615 -1220 -1755 -2057 -22 -134 -30 -401 -16 -535 54 -506 280 -956
661 -1318 428 -407 1009 -670 1685 -763 184 -25 630 -26 800 0 800 118 1459
491 1899 1076 404 537 561 1220 430 1870 -104 517 -403 1021 -815 1374 -147
126 -205 166 -682 474 -230 149 -418 274 -419 278 0 4 55 39 123 77 743 414
1207 901 1382 1452 108 338 115 696 21 1023 -223 772 -951 1336 -1914 1483
-156 23 -530 34 -670 18z m590 -399 c569 -99 1038 -428 1284 -900 223 -427
219 -949 -8 -1415 -159 -324 -439 -636 -802 -892 -124 -88 -351 -226 -363
-221 -5 1 -386 246 -846 543 -601 388 -861 562 -925 618 -235 204 -383 445
-442 722 -19 90 -16 332 6 435 94 443 446 805 978 1004 162 60 367 105 603
130 101 11 394 -3 515 -24z m95 -4790 c490 -316 931 -604 980 -641 309 -230
543 -567 623 -899 49 -203 53 -419 12 -620 -136 -668 -749 -1192 -1575 -1345
-816 -151 -1609 105 -2102 679 -335 390 -482 858 -432 1372 69 711 491 1351
1199 1820 159 105 380 226 394 215 6 -4 411 -266 901 -581z"/>
</g>
</svg>
