<?xml version="1.0" standalone="no"?>
<!DOCTYPE svg PUBLIC "-//W3C//DTD SVG 20010904//EN"
 "http://www.w3.org/TR/2001/REC-SVG-20010904/DTD/svg10.dtd">
<svg version="1.0" xmlns="http://www.w3.org/2000/svg"
 width="957.000000pt" height="1008.000000pt" viewBox="0 0 957.000000 1008.000000"
 preserveAspectRatio="xMidYMid meet">
<metadata>
Created by potrace 1.16, written by Peter Selinger 2001-2019
</metadata>
<g transform="translate(0.000000,1008.000000) scale(0.100000,-0.100000)"
fill="#000000" stroke="none">
<path d="M5740 10070 c-488 -40 -977 -154 -1444 -336 -1957 -762 -3569 -2599
-4110 -4684 -399 -1537 -126 -2995 741 -3955 495 -549 1193 -919 1963 -1044
237 -38 348 -46 650 -45 314 0 458 12 739 60 1599 270 3181 1363 4196 2899
1014 1535 1342 3344 865 4775 -436 1307 -1471 2151 -2840 2315 -158 19 -605
28 -760 15z m545 -529 c454 -77 810 -257 1126 -571 318 -315 518 -682 644
-1180 183 -726 143 -1617 -124 -2711 -274 -1128 -671 -2026 -1223 -2765 -300
-401 -654 -760 -1023 -1036 -429 -321 -897 -549 -1361 -664 -957 -235 -1833
37 -2376 739 -275 357 -453 834 -525 1407 -25 201 -25 791 0 1025 44 402 122
830 232 1259 276 1084 653 1936 1184 2671 751 1042 1791 1723 2811 1841 164
19 480 11 635 -15z"/>
<path d="M2755 6096 c-73 -32 -65 -4 -313 -1000 -128 -509 -232 -940 -232
-957 0 -45 36 -103 80 -128 34 -19 53 -21 189 -21 242 0 247 5 316 279 l47
191 1799 0 c990 0 1799 -2 1799 -6 0 -3 -16 -68 -35 -144 -41 -162 -42 -189
-14 -240 39 -68 74 -80 248 -80 105 0 162 4 184 14 75 31 66 0 315 1000 128
509 232 940 232 957 0 45 -36 103 -80 128 -34 19 -53 21 -189 21 -242 0 -247
-5 -316 -279 l-47 -191 -1799 0 c-990 0 -1799 2 -1799 6 0 3 16 68 35 144 41
162 42 189 14 240 -39 69 -74 80 -250 80 -105 -1 -164 -5 -184 -14z"/>
</g>
</svg>
