<?xml version="1.0" standalone="no"?>
<!DOCTYPE svg PUBLIC "-//W3C//DTD SVG 20010904//EN"
 "http://www.w3.org/TR/2001/REC-SVG-20010904/DTD/svg10.dtd">
<svg version="1.0" xmlns="http://www.w3.org/2000/svg"
 width="856.000000pt" height="946.000000pt" viewBox="0 0 856.000000 946.000000"
 preserveAspectRatio="xMidYMid meet">
<metadata>
Created by potrace 1.16, written by Peter Selinger 2001-2019
</metadata>
<g transform="translate(0.000000,946.000000) scale(0.100000,-0.100000)"
fill="#000000" stroke="none">
<path d="M3155 9447 c-57 -26 -80 -66 -114 -201 -17 -69 -31 -140 -31 -157 0
-45 36 -103 80 -128 36 -20 51 -21 311 -21 591 -1 1054 -36 1177 -90 33 -15
47 -29 62 -62 38 -83 31 -122 -121 -733 l-141 -565 -39 0 c-67 0 -417 -48
-614 -84 -1172 -215 -2283 -773 -2974 -1491 -417 -435 -666 -902 -737 -1386
-22 -156 -16 -452 14 -589 115 -533 444 -980 982 -1337 480 -318 1058 -519
1760 -613 84 -11 169 -20 190 -20 l38 0 -133 -531 c-95 -378 -142 -548 -164
-594 -38 -76 -104 -152 -168 -193 -132 -84 -440 -119 -1158 -129 -396 -5 -433
-7 -468 -25 -53 -26 -68 -56 -106 -216 l-34 -139 24 -49 c13 -26 37 -57 52
-68 33 -24 45 -24 726 -6 1023 27 2399 22 3447 -11 350 -11 350 -11 393 10 23
12 50 35 59 50 10 16 33 92 51 169 l34 139 -24 49 c-46 93 -23 88 -499 96
-432 6 -668 19 -850 44 -244 33 -286 66 -283 219 1 67 24 170 140 630 l139
550 75 7 c1022 103 1993 435 2788 955 1035 677 1594 1587 1500 2441 -86 784
-704 1458 -1685 1837 -330 128 -794 238 -1169 276 -66 6 -121 13 -123 14 -1 1
56 238 128 526 91 364 140 543 161 587 43 87 135 184 213 221 33 17 98 37 144
45 217 40 654 66 1130 66 288 0 308 3 353 58 27 31 89 250 89 313 0 45 -36
103 -80 128 -38 21 -41 21 -342 11 -1174 -39 -2545 -37 -3978 5 -155 4 -201 3
-225 -8z m1115 -2377 c0 -8 -1126 -4520 -1161 -4653 -9 -35 -12 -37 -42 -33
-211 35 -300 52 -397 76 -329 83 -604 213 -820 387 -322 260 -470 579 -487
1049 -20 552 173 1264 487 1795 141 238 371 509 565 666 189 153 456 313 709
423 331 145 691 240 1139 299 4 1 7 -4 7 -9z m1395 -26 c441 -77 801 -234
1074 -468 247 -211 380 -470 432 -836 17 -121 14 -410 -5 -565 -104 -828 -477
-1592 -991 -2033 -383 -328 -945 -587 -1525 -701 -101 -20 -363 -61 -367 -57
-1 1 262 1057 585 2348 l586 2346 36 -5 c19 -2 98 -16 175 -29z"/>
</g>
</svg>
