<?xml version="1.0" standalone="no"?>
<!DOCTYPE svg PUBLIC "-//W3C//DTD SVG 20010904//EN"
 "http://www.w3.org/TR/2001/REC-SVG-20010904/DTD/svg10.dtd">
<svg version="1.0" xmlns="http://www.w3.org/2000/svg"
 width="615.000000pt" height="627.000000pt" viewBox="0 0 615.000000 627.000000"
 preserveAspectRatio="xMidYMid meet">
<metadata>
Created by potrace 1.16, written by Peter Selinger 2001-2019
</metadata>
<g transform="translate(0.000000,627.000000) scale(0.100000,-0.100000)"
fill="#000000" stroke="none">
<path d="M5361 6255 c-207 -47 -429 -222 -533 -421 -63 -122 -81 -194 -76
-319 3 -91 7 -107 40 -178 33 -69 54 -94 191 -230 218 -215 320 -376 396 -623
50 -163 65 -268 65 -464 0 -243 -27 -385 -159 -839 -315 -1086 -759 -1926
-1256 -2375 -176 -159 -382 -283 -565 -340 -257 -79 -571 -69 -793 27 -372
161 -551 510 -551 1078 0 273 38 538 130 914 99 407 245 845 583 1751 90 241
171 466 180 499 71 263 63 562 -23 797 -170 465 -629 750 -1169 725 -274 -13
-548 -120 -788 -309 -114 -89 -286 -267 -385 -398 -267 -354 -496 -844 -628
-1347 -25 -95 -19 -131 31 -179 30 -29 31 -29 167 -32 197 -4 206 2 260 208
173 648 486 1200 827 1458 87 66 249 146 335 167 99 23 216 29 284 15 196 -41
254 -296 165 -733 -31 -157 -80 -303 -253 -766 -408 -1089 -586 -1649 -661
-2086 -32 -190 -45 -339 -45 -532 0 -403 93 -741 281 -1020 71 -106 230 -267
342 -347 175 -125 433 -235 679 -290 214 -47 335 -60 593 -60 211 0 252 2 342
22 294 64 575 202 828 407 125 101 371 356 483 500 426 550 799 1332 1057
2215 106 363 275 1072 329 1380 133 755 86 1238 -148 1522 -141 171 -354 249
-555 203z"/>
</g>
</svg>
