<?xml version="1.0" standalone="no"?>
<!DOCTYPE svg PUBLIC "-//W3C//DTD SVG 20010904//EN"
 "http://www.w3.org/TR/2001/REC-SVG-20010904/DTD/svg10.dtd">
<svg version="1.0" xmlns="http://www.w3.org/2000/svg"
 width="539.000000pt" height="602.000000pt" viewBox="0 0 539.000000 602.000000"
 preserveAspectRatio="xMidYMid meet">
<metadata>
Created by potrace 1.16, written by Peter Selinger 2001-2019
</metadata>
<g transform="translate(0.000000,602.000000) scale(0.100000,-0.100000)"
fill="#000000" stroke="none">
<path d="M2240 6009 c-1022 -89 -1794 -557 -2014 -1219 -49 -147 -67 -245 -73
-390 -6 -142 6 -212 57 -316 61 -125 200 -226 355 -259 88 -18 132 -18 220 0
250 52 415 256 415 510 -1 250 -145 441 -386 510 -32 10 -61 19 -63 21 -9 8
107 149 187 226 406 391 1112 560 1832 437 616 -105 1086 -415 1289 -850 78
-166 108 -297 118 -499 19 -425 -137 -789 -500 -1166 -249 -260 -472 -433
-1117 -871 -980 -666 -2518 -1726 -2535 -1748 -17 -23 -20 -45 -23 -153 -3
-119 -2 -129 20 -162 13 -19 39 -45 57 -57 l34 -23 2389 0 c2184 0 2393 1
2424 16 19 9 43 29 54 44 28 40 403 1572 397 1622 -11 84 -74 128 -182 128
-76 0 -126 -19 -154 -59 -11 -15 -38 -101 -61 -191 -53 -206 -99 -338 -155
-449 -72 -140 -50 -129 -270 -141 -193 -11 -3164 -27 -3155 -17 13 13 1519
912 1625 969 66 36 323 167 570 291 475 238 615 314 810 434 280 174 544 404
688 598 123 166 214 369 259 578 32 149 32 453 0 614 -46 229 -136 442 -258
615 -125 175 -345 376 -550 501 -377 230 -881 382 -1459 442 -179 19 -697 27
-845 14z"/>
</g>
</svg>
