<?xml version="1.0" standalone="no"?>
<!DOCTYPE svg PUBLIC "-//W3C//DTD SVG 20010904//EN"
 "http://www.w3.org/TR/2001/REC-SVG-20010904/DTD/svg10.dtd">
<svg version="1.0" xmlns="http://www.w3.org/2000/svg"
 width="822.000000pt" height="908.000000pt" viewBox="0 0 822.000000 908.000000"
 preserveAspectRatio="xMidYMid meet">
<metadata>
Created by potrace 1.16, written by Peter Selinger 2001-2019
</metadata>
<g transform="translate(0.000000,908.000000) scale(0.100000,-0.100000)"
fill="#000000" stroke="none">
<path d="M3042 9064 c-49 -25 -70 -62 -98 -172 -30 -114 -28 -154 13 -202 49
-58 58 -60 340 -60 452 0 862 -26 1030 -65 143 -33 169 -65 167 -210 -1 -81
-14 -142 -128 -595 -70 -277 -132 -507 -137 -511 -6 -3 -50 -9 -97 -13 -48 -3
-166 -18 -262 -31 -1370 -197 -2629 -850 -3335 -1730 -219 -272 -403 -632
-480 -937 -320 -1275 744 -2404 2515 -2668 74 -11 169 -23 212 -26 42 -4 81
-10 88 -14 12 -7 -204 -892 -242 -990 -62 -159 -167 -266 -297 -304 -185 -54
-611 -86 -1157 -86 -254 0 -262 -1 -294 -22 -51 -35 -67 -65 -96 -172 -29
-112 -27 -149 13 -196 51 -61 52 -61 380 -50 164 5 636 15 1048 21 773 12
1814 3 2566 -22 312 -10 339 -10 373 6 52 25 73 60 102 173 30 114 28 154 -13
202 -49 58 -58 60 -340 60 -452 0 -862 26 -1030 65 -143 33 -169 65 -167 210
1 81 14 142 128 595 70 277 132 507 137 511 6 3 50 9 97 13 48 3 166 18 262
31 1370 197 2629 850 3335 1730 219 272 403 632 480 937 320 1275 -744 2404
-2515 2668 -74 11 -169 23 -212 26 -42 4 -81 10 -88 14 -12 7 204 892 242 990
62 159 167 266 297 304 185 54 611 86 1157 86 254 0 262 1 294 23 51 34 67 64
96 171 29 112 27 149 -13 196 -51 62 -51 62 -385 50 -1115 -37 -2460 -35
-3768 5 -162 5 -189 4 -218 -11z m1108 -2166 c-3 -21 -1179 -4711 -1183 -4714
-8 -8 -252 34 -384 67 -356 87 -659 235 -884 432 -93 82 -183 182 -234 262
-210 328 -270 766 -179 1308 128 761 481 1451 951 1860 366 318 854 562 1381
691 170 42 533 106 532 94z m1230 -18 c467 -76 856 -242 1131 -483 93 -82 183
-182 234 -262 210 -328 270 -766 179 -1308 -128 -761 -481 -1451 -951 -1860
-435 -377 -1021 -641 -1668 -750 -244 -41 -248 -42 -241 -20 3 10 264 1055
581 2323 659 2639 594 2380 603 2380 4 0 63 -9 132 -20z"/>
</g>
</svg>
