<?xml version="1.0" standalone="no"?>
<!DOCTYPE svg PUBLIC "-//W3C//DTD SVG 20010904//EN"
 "http://www.w3.org/TR/2001/REC-SVG-20010904/DTD/svg10.dtd">
<svg version="1.0" xmlns="http://www.w3.org/2000/svg"
 width="984.000000pt" height="953.000000pt" viewBox="0 0 984.000000 953.000000"
 preserveAspectRatio="xMidYMid meet">
<metadata>
Created by potrace 1.16, written by Peter Selinger 2001-2019
</metadata>
<g transform="translate(0.000000,953.000000) scale(0.100000,-0.100000)"
fill="#000000" stroke="none">
<path d="M7103 9515 c-58 -17 -122 -57 -159 -97 -35 -36 -6892 -9228 -6924
-9281 -27 -44 -25 -83 5 -112 l24 -25 4837 0 c4420 0 4839 1 4870 16 39 19 74
70 74 108 0 14 -511 2104 -1135 4644 -779 3174 -1142 4631 -1158 4662 -18 34
-37 52 -77 73 -50 26 -59 27 -184 26 -78 0 -148 -6 -173 -14z m347 -4905 c484
-1972 883 -3593 886 -3602 5 -17 -170 -18 -3586 -18 -1975 0 -3590 4 -3588 8
2 5 1216 1634 2698 3621 2087 2798 2696 3608 2702 3594 4 -10 404 -1631 888
-3603z"/>
</g>
</svg>
