<?xml version="1.0" standalone="no"?>
<!DOCTYPE svg PUBLIC "-//W3C//DTD SVG 20010904//EN"
 "http://www.w3.org/TR/2001/REC-SVG-20010904/DTD/svg10.dtd">
<svg version="1.0" xmlns="http://www.w3.org/2000/svg"
 width="529.000000pt" height="976.000000pt" viewBox="0 0 529.000000 976.000000"
 preserveAspectRatio="xMidYMid meet">
<metadata>
Created by potrace 1.16, written by Peter Selinger 2001-2019
</metadata>
<g transform="translate(0.000000,976.000000) scale(0.100000,-0.100000)"
fill="#000000" stroke="none">
<path d="M1650 9684 c-1057 -80 -1035 -77 -1076 -139 -19 -30 -103 -355 -104
-403 0 -50 32 -104 78 -130 37 -20 52 -22 203 -22 295 0 562 -28 654 -69 74
-33 80 -47 79 -185 l-1 -121 -686 -2740 c-377 -1507 -697 -2794 -712 -2860
-57 -255 -76 -429 -82 -730 -6 -300 5 -448 47 -658 101 -500 341 -941 660
-1212 544 -464 1272 -541 2070 -218 299 120 576 286 879 524 122 96 462 431
573 564 445 535 762 1154 927 1812 75 297 109 531 118 818 16 492 -72 918
-268 1305 -117 232 -219 371 -399 543 -262 252 -602 417 -985 478 -107 18
-439 18 -535 1 -390 -70 -766 -250 -1126 -538 l-101 -81 493 1971 c272 1084
494 1991 494 2015 0 89 -71 152 -172 150 -29 -1 -492 -34 -1028 -75z m1835
-3959 c295 -78 516 -341 595 -711 31 -142 39 -482 16 -684 -20 -175 -55 -378
-102 -600 -50 -232 -233 -962 -298 -1187 -214 -738 -444 -1181 -801 -1539
-244 -245 -479 -391 -744 -461 -126 -34 -345 -38 -456 -9 -151 40 -273 113
-386 233 -273 289 -363 769 -268 1428 37 259 99 535 330 1460 259 1038 220
923 387 1134 425 539 902 874 1344 945 113 19 297 14 383 -9z"/>
</g>
</svg>
