<?xml version="1.0" standalone="no"?>
<!DOCTYPE svg PUBLIC "-//W3C//DTD SVG 20010904//EN"
 "http://www.w3.org/TR/2001/REC-SVG-20010904/DTD/svg10.dtd">
<svg version="1.0" xmlns="http://www.w3.org/2000/svg"
 width="1176.000000pt" height="942.000000pt" viewBox="0 0 1176.000000 942.000000"
 preserveAspectRatio="xMidYMid meet">
<metadata>
Created by potrace 1.16, written by Peter Selinger 2001-2019
</metadata>
<g transform="translate(0.000000,942.000000) scale(0.100000,-0.100000)"
fill="#000000" stroke="none">
<path d="M2360 9402 c-19 -9 -44 -32 -56 -50 -31 -46 -87 -281 -78 -328 8 -46
55 -100 97 -113 18 -5 183 -12 367 -15 184 -3 389 -10 455 -16 135 -13 289
-41 332 -62 39 -19 56 -74 50 -163 -4 -45 -342 -1418 -967 -3915 -766 -3065
-968 -3859 -994 -3915 -68 -142 -132 -200 -257 -234 -159 -44 -515 -71 -923
-71 -203 0 -221 -1 -256 -21 -20 -11 -45 -35 -55 -51 -23 -40 -74 -241 -75
-293 0 -55 29 -106 78 -133 40 -22 40 -22 284 -13 133 6 561 16 950 23 733 12
1685 3 2363 -23 288 -12 289 -12 330 10 23 12 49 36 60 53 23 40 74 240 75
293 0 55 -29 105 -76 132 -37 22 -50 23 -259 23 -387 0 -744 27 -872 65 -75
22 -87 41 -91 144 -3 85 4 115 998 4091 550 2203 1005 4022 1011 4043 l10 37
2060 0 c1958 0 2060 -1 2055 -17 -3 -10 -453 -1811 -1001 -4003 -794 -3179
-1002 -3999 -1029 -4055 -68 -142 -132 -200 -257 -234 -159 -44 -515 -71 -923
-71 -203 0 -221 -1 -256 -21 -20 -11 -45 -35 -55 -51 -23 -40 -74 -241 -75
-293 0 -55 29 -106 78 -133 40 -22 40 -22 284 -13 133 6 561 16 950 23 733 12
1685 3 2363 -23 288 -12 289 -12 330 10 23 12 49 36 60 53 23 40 74 240 75
293 0 55 -29 105 -76 132 -37 22 -50 23 -259 23 -387 0 -744 27 -872 65 -75
22 -87 41 -91 144 -4 85 4 114 961 3943 800 3202 970 3870 1000 3932 39 83
112 168 167 196 122 62 500 100 1005 100 246 0 270 5 311 68 31 46 87 281 78
328 -8 44 -48 92 -91 110 -27 12 -772 14 -4645 14 -4372 0 -4615 -1 -4648 -18z"/>
</g>
</svg>
