<?xml version="1.0" standalone="no"?>
<!DOCTYPE svg PUBLIC "-//W3C//DTD SVG 20010904//EN"
 "http://www.w3.org/TR/2001/REC-SVG-20010904/DTD/svg10.dtd">
<svg version="1.0" xmlns="http://www.w3.org/2000/svg"
 width="1026.000000pt" height="992.000000pt" viewBox="0 0 1026.000000 992.000000"
 preserveAspectRatio="xMidYMid meet">
<metadata>
Created by potrace 1.16, written by Peter Selinger 2001-2019
</metadata>
<g transform="translate(0.000000,992.000000) scale(0.100000,-0.100000)"
fill="#000000" stroke="none">
<path d="M7311 9904 c-55 -20 -108 -53 -148 -93 -53 -53 -7144 -9671 -7153
-9702 -11 -37 1 -72 32 -93 20 -15 457 -16 5063 -16 5011 0 5040 0 5073 20 35
22 72 74 72 104 0 15 -2257 9522 -2291 9651 -14 52 -81 119 -134 134 -64 18
-460 14 -514 -5z m334 -5125 c470 -1976 853 -3594 852 -3596 -2 -2 -1582 -2
-3510 -1 l-3507 3 2653 3596 c1458 1978 2653 3595 2655 3594 2 -1 387 -1619
857 -3596z"/>
</g>
</svg>
