<?xml version="1.0" standalone="no"?>
<!DOCTYPE svg PUBLIC "-//W3C//DTD SVG 20010904//EN"
 "http://www.w3.org/TR/2001/REC-SVG-20010904/DTD/svg10.dtd">
<svg version="1.0" xmlns="http://www.w3.org/2000/svg"
 width="554.000000pt" height="890.000000pt" viewBox="0 0 554.000000 890.000000"
 preserveAspectRatio="xMidYMid meet">
<metadata>
Created by potrace 1.16, written by Peter Selinger 2001-2019
</metadata>
<g transform="translate(0.000000,890.000000) scale(0.100000,-0.100000)"
fill="#000000" stroke="none">
<path d="M2435 8889 c-360 -32 -717 -130 -1020 -278 -608 -299 -969 -764
-1036 -1335 -33 -281 24 -489 176 -641 257 -258 703 -258 960 0 77 77 121 151
157 265 33 108 33 302 0 410 -36 114 -80 188 -157 265 -122 123 -300 195 -483
195 l-84 0 33 43 c68 89 240 247 346 318 260 174 594 300 938 353 362 56 647
44 873 -36 431 -152 693 -466 783 -938 27 -144 38 -508 20 -687 -99 -991 -586
-1683 -1266 -1797 -50 -9 -274 -29 -500 -46 -451 -34 -466 -37 -497 -100 -26
-50 -24 -164 2 -207 38 -63 21 -61 641 -66 529 -4 569 -5 649 -25 567 -138
982 -588 1141 -1237 126 -517 116 -1285 -25 -1771 -117 -403 -347 -734 -652
-937 -281 -186 -559 -250 -949 -218 -406 34 -722 114 -1032 261 -245 117 -425
243 -593 416 -89 92 -200 228 -200 246 0 3 44 8 98 11 344 19 599 233 666 559
67 328 -78 654 -353 792 -126 64 -200 81 -351 81 -114 0 -147 -4 -210 -23
-329 -104 -510 -355 -510 -709 0 -240 62 -511 168 -733 333 -697 1134 -1182
2147 -1300 151 -18 488 -24 640 -11 612 50 1177 268 1635 630 219 174 453 436
593 666 308 506 417 1098 301 1623 -199 898 -977 1613 -2018 1856 l-139 33
119 43 c265 97 595 283 814 458 587 470 924 1162 897 1841 -6 153 -22 238 -73
390 -168 504 -653 942 -1298 1173 -399 143 -913 206 -1351 167z"/>
</g>
</svg>
