<?xml version="1.0" standalone="no"?>
<!DOCTYPE svg PUBLIC "-//W3C//DTD SVG 20010904//EN"
 "http://www.w3.org/TR/2001/REC-SVG-20010904/DTD/svg10.dtd">
<svg version="1.0" xmlns="http://www.w3.org/2000/svg"
 width="576.000000pt" height="927.000000pt" viewBox="0 0 576.000000 927.000000"
 preserveAspectRatio="xMidYMid meet">
<metadata>
Created by potrace 1.16, written by Peter Selinger 2001-2019
</metadata>
<g transform="translate(0.000000,927.000000) scale(0.100000,-0.100000)"
fill="#000000" stroke="none">
<path d="M2641 9259 c-621 -51 -1154 -293 -1622 -735 -657 -621 -948 -1204
-1010 -2024 -14 -188 -6 -592 15 -770 80 -662 319 -1171 802 -1704 437 -484
893 -742 1459 -827 174 -26 468 -36 616 -20 623 68 1154 458 1499 1101 l62
115 -6 -330 c-15 -789 -74 -1297 -207 -1767 -206 -730 -608 -1294 -1139 -1597
-284 -163 -581 -232 -932 -217 -471 19 -818 122 -1060 315 l-83 66 55 6 c150
16 283 81 390 189 90 89 140 179 170 301 87 365 -110 711 -460 808 -103 29
-267 29 -370 0 -118 -32 -205 -83 -290 -169 -91 -90 -141 -179 -171 -306 -19
-77 -21 -108 -16 -234 9 -238 55 -418 155 -614 233 -457 721 -741 1422 -828
161 -20 587 -17 730 5 533 82 1027 311 1475 681 110 92 331 311 435 432 621
722 1027 1706 1150 2783 34 298 43 549 37 966 -15 886 -92 1490 -272 2108
-149 515 -402 1027 -672 1362 -104 129 -311 330 -438 426 -358 269 -777 436
-1194 479 -119 12 -378 11 -530 -1z m482 -444 c361 -54 684 -281 924 -647 68
-103 156 -281 192 -386 80 -235 138 -606 177 -1142 22 -285 25 -844 6 -1015
-78 -703 -302 -1257 -656 -1623 -201 -208 -428 -338 -686 -393 -137 -30 -420
-32 -575 -5 -331 57 -581 211 -801 492 -331 424 -414 845 -414 2104 0 883 39
1258 167 1600 141 377 428 713 748 874 253 127 628 185 918 141z"/>
</g>
</svg>
