<?xml version="1.0" standalone="no"?>
<!DOCTYPE svg PUBLIC "-//W3C//DTD SVG 20010904//EN"
 "http://www.w3.org/TR/2001/REC-SVG-20010904/DTD/svg10.dtd">
<svg version="1.0" xmlns="http://www.w3.org/2000/svg"
 width="1055.000000pt" height="587.000000pt" viewBox="0 0 1055.000000 587.000000"
 preserveAspectRatio="xMidYMid meet">
<metadata>
Created by potrace 1.16, written by Peter Selinger 2001-2019
</metadata>
<g transform="translate(0.000000,587.000000) scale(0.100000,-0.100000)"
fill="#000000" stroke="none">
<path d="M1935 5863 c-364 -47 -690 -223 -1034 -558 -160 -155 -252 -262 -408
-470 -167 -222 -455 -670 -484 -754 -14 -40 2 -88 42 -127 30 -28 33 -29 139
-29 130 0 123 -5 227 155 322 494 789 847 1258 951 91 20 134 22 473 26 318 4
373 3 365 -9 -4 -8 -51 -70 -104 -139 -445 -577 -786 -1200 -977 -1789 -112
-343 -201 -769 -244 -1165 -17 -160 -17 -650 0 -775 109 -783 499 -1180 1160
-1180 548 0 1122 221 1627 626 138 111 386 353 518 504 199 230 427 553 596
845 44 77 84 146 89 154 4 8 8 -118 9 -280 0 -212 5 -333 17 -434 56 -460 190
-799 413 -1046 67 -74 213 -179 328 -235 348 -171 824 -179 1283 -23 148 50
386 167 522 256 724 475 1344 1390 1713 2528 66 206 144 496 171 644 83 441
68 917 -43 1366 l-38 155 281 0 c305 0 341 5 444 57 170 86 289 314 253 486
-24 114 -80 188 -181 236 l-55 26 -4165 1 c-2291 1 -4178 -1 -4195 -3z m7249
-850 c30 -92 75 -296 95 -426 76 -502 34 -959 -136 -1482 -270 -829 -789
-1558 -1393 -1960 -391 -260 -842 -378 -1223 -320 -230 35 -384 111 -526 260
-182 192 -281 440 -338 845 -23 172 -23 629 1 855 38 363 106 750 187 1069 19
75 19 82 4 122 -25 66 -62 84 -175 84 -145 0 -159 -14 -210 -205 -179 -679
-555 -1416 -987 -1935 -110 -132 -340 -368 -458 -469 -390 -334 -795 -537
-1220 -612 -183 -32 -453 -32 -568 -1 -338 93 -551 391 -612 859 -19 147 -19
440 0 608 95 826 509 1709 1212 2588 l134 167 3099 0 3098 0 16 -47z"/>
</g>
</svg>
