<?xml version="1.0" standalone="no"?>
<!DOCTYPE svg PUBLIC "-//W3C//DTD SVG 20010904//EN"
 "http://www.w3.org/TR/2001/REC-SVG-20010904/DTD/svg10.dtd">
<svg version="1.0" xmlns="http://www.w3.org/2000/svg"
 width="410.000000pt" height="847.000000pt" viewBox="0 0 410.000000 847.000000"
 preserveAspectRatio="xMidYMid meet">
<metadata>
Created by potrace 1.16, written by Peter Selinger 2001-2019
</metadata>
<g transform="translate(0.000000,847.000000) scale(0.100000,-0.100000)"
fill="#000000" stroke="none">
<path d="M2598 8454 c-158 -38 -307 -157 -375 -300 -30 -63 -86 -276 -311
-1181 l-274 -1103 -740 0 c-808 0 -769 3 -820 -59 -37 -43 -82 -229 -68 -280
10 -37 46 -79 87 -100 15 -8 224 -11 722 -11 458 0 701 -3 701 -10 0 -5 -220
-891 -489 -1967 -528 -2110 -520 -2074 -507 -2287 32 -539 358 -960 851 -1100
865 -247 1752 337 2345 1545 114 233 193 435 185 475 -7 42 -41 83 -81 100
-43 18 -165 18 -209 0 -43 -18 -56 -39 -111 -177 -303 -758 -789 -1356 -1272
-1565 -143 -62 -258 -86 -412 -88 -129 -1 -138 0 -192 27 -93 45 -153 129
-190 263 -19 70 -22 104 -22 299 -1 184 3 241 22 345 12 69 247 1028 523 2133
l501 2007 740 0 c798 0 765 -2 816 53 27 28 71 187 72 253 0 51 -32 103 -80
126 -32 17 -88 18 -732 18 -454 0 -698 3 -698 10 0 5 120 488 266 1072 290
1156 289 1152 251 1268 -62 190 -274 289 -499 234z"/>
</g>
</svg>
