<?xml version="1.0" standalone="no"?>
<!DOCTYPE svg PUBLIC "-//W3C//DTD SVG 20010904//EN"
 "http://www.w3.org/TR/2001/REC-SVG-20010904/DTD/svg10.dtd">
<svg version="1.0" xmlns="http://www.w3.org/2000/svg"
 width="1036.000000pt" height="946.000000pt" viewBox="0 0 1036.000000 946.000000"
 preserveAspectRatio="xMidYMid meet">
<metadata>
Created by potrace 1.16, written by Peter Selinger 2001-2019
</metadata>
<g transform="translate(0.000000,946.000000) scale(0.100000,-0.100000)"
fill="#000000" stroke="none">
<path d="M2369 9440 c-20 -10 -44 -31 -54 -47 -21 -32 -104 -351 -105 -401 0
-24 323 -720 1114 -2403 l1114 -2370 -52 -48 c-28 -26 -1016 -915 -2196 -1976
-1180 -1060 -2155 -1944 -2167 -1964 -44 -71 -18 -168 57 -210 l38 -21 3906 0
c4223 0 3942 -4 3993 52 35 38 1203 3190 1203 3247 0 57 -30 106 -82 132 -36
18 -55 20 -203 17 -147 -3 -167 -5 -192 -24 -37 -27 -56 -67 -159 -329 -181
-462 -328 -756 -529 -1061 -215 -324 -468 -592 -745 -789 -294 -208 -755 -353
-1335 -420 -516 -59 -869 -67 -2836 -63 l-1665 3 2140 1925 c1177 1059 2151
1940 2163 1959 51 76 112 -63 -931 2156 l-955 2030 1527 3 c1466 3 1956 -3
2282 -28 733 -57 1176 -187 1401 -412 337 -337 451 -925 354 -1820 -30 -273
-31 -312 -5 -352 12 -20 40 -46 62 -57 36 -18 55 -20 203 -17 148 3 166 5 192
24 63 48 52 -24 255 1617 l188 1531 -22 45 c-13 25 -36 54 -51 65 l-28 21
-3922 2 c-3840 2 -3923 2 -3958 -17z"/>
</g>
</svg>
