<?xml version="1.0" standalone="no"?>
<!DOCTYPE svg PUBLIC "-//W3C//DTD SVG 20010904//EN"
 "http://www.w3.org/TR/2001/REC-SVG-20010904/DTD/svg10.dtd">
<svg version="1.0" xmlns="http://www.w3.org/2000/svg"
 width="653.000000pt" height="895.000000pt" viewBox="0 0 653.000000 895.000000"
 preserveAspectRatio="xMidYMid meet">
<metadata>
Created by potrace 1.16, written by Peter Selinger 2001-2019
</metadata>
<g transform="translate(0.000000,895.000000) scale(0.100000,-0.100000)"
fill="#000000" stroke="none">
<path d="M3961 8939 c-583 -65 -1208 -363 -1731 -825 -784 -692 -1306 -1681
-1425 -2700 -19 -162 -22 -530 -5 -674 47 -414 170 -770 372 -1074 346 -521
921 -826 1557 -826 443 0 937 194 1386 545 56 44 94 68 91 58 -3 -10 -93 -371
-201 -802 -135 -539 -208 -815 -236 -885 -254 -640 -872 -1149 -1496 -1231
-202 -27 -743 -16 -1048 21 -71 9 -133 18 -138 21 -4 2 19 24 52 49 200 150
334 426 333 684 0 78 -5 122 -21 171 -43 135 -145 252 -275 313 -210 100 -449
86 -697 -40 -229 -118 -391 -330 -455 -599 -23 -98 -26 -124 -21 -245 4 -114
9 -147 32 -213 163 -464 792 -687 1940 -687 311 0 523 23 809 86 826 183 1550
654 1918 1246 71 114 170 324 208 437 43 130 1596 6351 1605 6426 8 75 -13
182 -50 255 -92 182 -332 270 -571 210 -194 -49 -349 -167 -442 -339 l-29 -51
-65 87 c-92 124 -256 279 -376 358 -158 103 -298 162 -487 205 -105 25 -396
35 -534 19z m414 -529 c227 -59 435 -219 583 -449 96 -149 222 -487 222 -593
0 -15 -161 -670 -357 -1456 l-356 -1427 -75 -100 c-433 -577 -954 -951 -1423
-1019 -134 -20 -213 -20 -324 -1 -245 43 -439 196 -564 442 -157 312 -166 744
-30 1416 39 197 208 889 275 1127 95 340 182 590 284 820 306 688 841 1174
1386 1260 92 14 287 4 379 -20z"/>
</g>
</svg>
