<?xml version="1.0" standalone="no"?>
<!DOCTYPE svg PUBLIC "-//W3C//DTD SVG 20010904//EN"
 "http://www.w3.org/TR/2001/REC-SVG-20010904/DTD/svg10.dtd">
<svg version="1.0" xmlns="http://www.w3.org/2000/svg"
 width="1180.000000pt" height="336.000000pt" viewBox="0 0 1180.000000 336.000000"
 preserveAspectRatio="xMidYMid meet">
<metadata>
Created by potrace 1.16, written by Peter Selinger 2001-2019
</metadata>
<g transform="translate(0.000000,336.000000) scale(0.100000,-0.100000)"
fill="#000000" stroke="none">
<path d="M5475 3349 c-310 -18 -678 -64 -983 -125 -1737 -344 -3247 -1286
-4269 -2664 -170 -229 -215 -303 -221 -359 -13 -141 135 -243 262 -181 37 17
59 40 113 118 197 285 364 483 623 743 353 354 668 600 1098 858 1428 859
3356 1177 5212 860 1217 -207 2302 -692 3150 -1407 161 -136 508 -483 636
-637 114 -137 220 -277 317 -417 54 -78 76 -101 113 -118 127 -62 275 40 262
181 -6 56 -51 130 -221 359 -442 596 -961 1099 -1577 1529 -1074 749 -2353
1185 -3700 1261 -200 11 -609 11 -815 -1z"/>
</g>
</svg>
