<?xml version="1.0" standalone="no"?>
<!DOCTYPE svg PUBLIC "-//W3C//DTD SVG 20010904//EN"
 "http://www.w3.org/TR/2001/REC-SVG-20010904/DTD/svg10.dtd">
<svg version="1.0" xmlns="http://www.w3.org/2000/svg"
 width="604.000000pt" height="937.000000pt" viewBox="0 0 604.000000 937.000000"
 preserveAspectRatio="xMidYMid meet">
<metadata>
Created by potrace 1.16, written by Peter Selinger 2001-2019
</metadata>
<g transform="translate(0.000000,937.000000) scale(0.100000,-0.100000)"
fill="#000000" stroke="none">
<path d="M2045 9293 c-682 -58 -878 -78 -905 -91 -49 -24 -74 -67 -100 -172
-34 -137 -18 -199 60 -241 30 -16 58 -19 195 -19 293 0 534 -27 633 -70 73
-32 89 -117 56 -291 -8 -46 -459 -1857 -1001 -4024 -973 -3896 -985 -3941
-981 -4025 2 -72 8 -96 36 -152 101 -205 372 -268 612 -142 92 48 199 159 241
249 23 49 123 433 371 1424 186 746 343 1372 348 1392 l10 36 97 -13 c673 -92
1145 -348 1332 -721 60 -119 76 -200 75 -373 0 -137 -4 -171 -32 -290 -46
-203 -55 -289 -49 -499 6 -203 17 -272 72 -438 177 -531 645 -852 1210 -830
203 8 356 57 524 168 417 275 737 875 981 1845 12 46 11 55 -6 89 -33 67 -61
80 -174 80 -155 0 -156 -1 -239 -320 -163 -622 -354 -1042 -583 -1281 -130
-135 -234 -198 -381 -228 -90 -19 -166 -20 -239 -5 -74 16 -117 40 -167 94
-170 185 -180 602 -30 1253 82 356 67 611 -51 860 -58 123 -130 220 -240 326
-310 297 -808 488 -1542 591 l-47 6 97 66 c272 184 532 420 1018 925 666 691
983 948 1359 1101 362 148 697 141 872 -17 l47 -43 -75 -6 c-96 -8 -193 -38
-294 -90 -114 -59 -245 -191 -304 -305 -129 -251 -119 -504 27 -663 196 -214
578 -210 855 10 195 155 292 383 291 686 0 256 -78 459 -239 621 -367 370
-1038 332 -1670 -94 -299 -202 -485 -373 -1215 -1118 -407 -414 -579 -567
-826 -730 -105 -69 -323 -188 -331 -180 -2 2 310 1256 692 2787 513 2053 695
2792 690 2816 -7 38 -46 88 -86 108 -15 8 -50 14 -76 14 -26 -1 -439 -35 -918
-76z"/>
</g>
</svg>
