<?xml version="1.0" standalone="no"?>
<!DOCTYPE svg PUBLIC "-//W3C//DTD SVG 20010904//EN"
 "http://www.w3.org/TR/2001/REC-SVG-20010904/DTD/svg10.dtd">
<svg version="1.0" xmlns="http://www.w3.org/2000/svg"
 width="937.000000pt" height="938.000000pt" viewBox="0 0 937.000000 938.000000"
 preserveAspectRatio="xMidYMid meet">
<metadata>
Created by potrace 1.16, written by Peter Selinger 2001-2019
</metadata>
<g transform="translate(0.000000,938.000000) scale(0.100000,-0.100000)"
fill="#000000" stroke="none">
<path d="M5750 9374 c-25 -2 -103 -9 -175 -14 -1121 -91 -2278 -582 -3133
-1332 -242 -213 -531 -532 -712 -788 -164 -231 -334 -545 -429 -793 -85 -221
-162 -528 -193 -777 -20 -163 -17 -651 5 -820 38 -286 107 -578 214 -905 76
-232 141 -405 351 -930 270 -676 351 -907 432 -1236 68 -275 110 -580 110
-801 l0 -118 -617 0 c-630 0 -868 8 -1027 35 -130 22 -139 28 -153 100 -21
108 -33 351 -33 697 0 376 -2 386 -64 431 -27 19 -44 22 -121 22 -77 0 -94 -3
-121 -22 -66 -47 -62 6 -75 -1045 -13 -1053 -16 -996 49 -1046 l35 -27 1132
-3 1132 -2 33 22 c56 38 69 67 105 228 92 408 119 687 119 1225 1 536 -12 708
-124 1650 -108 904 -125 1121 -124 1595 0 382 11 556 55 850 238 1589 1228
2833 2633 3307 642 216 1302 216 1842 -1 401 -161 718 -434 926 -799 185 -323
278 -792 248 -1250 -41 -653 -241 -1306 -638 -2087 -199 -390 -406 -746 -860
-1480 -679 -1094 -930 -1541 -1169 -2075 -160 -359 -353 -926 -353 -1040 0
-51 31 -100 80 -126 33 -18 84 -19 1153 -19 1206 0 1144 -3 1194 52 11 12 229
448 483 968 437 896 461 947 457 991 -5 57 -34 101 -83 124 -52 24 -178 18
-218 -11 -21 -15 -78 -119 -210 -380 -239 -471 -361 -684 -440 -769 -53 -56
-197 -87 -486 -105 -193 -12 -1310 -14 -1310 -2 0 17 173 318 264 459 267 416
604 835 1235 1533 316 350 665 742 787 885 829 970 1253 1757 1381 2560 14 85
18 171 18 375 0 294 -10 379 -70 615 -148 577 -499 1075 -1018 1443 -473 335
-1054 542 -1738 617 -136 15 -672 28 -779 19z"/>
</g>
</svg>
