<?xml version="1.0" standalone="no"?>
<!DOCTYPE svg PUBLIC "-//W3C//DTD SVG 20010904//EN"
 "http://www.w3.org/TR/2001/REC-SVG-20010904/DTD/svg10.dtd">
<svg version="1.0" xmlns="http://www.w3.org/2000/svg"
 width="618.000000pt" height="704.000000pt" viewBox="0 0 618.000000 704.000000"
 preserveAspectRatio="xMidYMid meet">
<metadata>
Created by potrace 1.16, written by Peter Selinger 2001-2019
</metadata>
<g transform="translate(0.000000,704.000000) scale(0.100000,-0.100000)"
fill="#000000" stroke="none">
<path d="M5809 7026 c-53 -19 70 52 -2929 -1680 -1521 -879 -2778 -1609 -2793
-1624 -84 -79 -108 -226 -55 -327 14 -27 39 -62 55 -77 25 -24 5545 -3218
5674 -3283 116 -59 234 -41 325 50 93 93 84 -269 84 3435 0 3704 9 3343 -83
3435 -78 78 -184 105 -278 71z m-199 -3507 c0 -1569 -4 -2749 -9 -2747 -23 9
-4751 2743 -4751 2748 0 6 4740 2748 4753 2749 4 1 7 -1237 7 -2750z"/>
</g>
</svg>
