<?xml version="1.0" standalone="no"?>
<!DOCTYPE svg PUBLIC "-//W3C//DTD SVG 20010904//EN"
 "http://www.w3.org/TR/2001/REC-SVG-20010904/DTD/svg10.dtd">
<svg version="1.0" xmlns="http://www.w3.org/2000/svg"
 width="1002.000000pt" height="938.000000pt" viewBox="0 0 1002.000000 938.000000"
 preserveAspectRatio="xMidYMid meet">
<metadata>
Created by potrace 1.16, written by Peter Selinger 2001-2019
</metadata>
<g transform="translate(0.000000,938.000000) scale(0.100000,-0.100000)"
fill="#000000" stroke="none">
<path d="M2419 9360 c-20 -10 -44 -31 -53 -45 -10 -15 -155 -464 -322 -998
-231 -737 -304 -980 -299 -1003 8 -46 45 -96 85 -116 52 -27 226 -25 279 2 53
27 70 60 126 240 140 454 294 814 375 871 28 20 120 32 370 51 216 15 5258 24
5718 9 343 -11 558 -26 601 -42 l24 -10 -6 -162 c-7 -175 -27 -330 -83 -640
l-36 -198 24 -46 c38 -77 61 -87 192 -91 99 -3 119 -1 154 17 22 11 49 35 60
53 15 24 68 293 202 1011 l182 977 -24 47 c-12 26 -36 56 -51 67 l-28 21
-3727 2 c-3648 2 -3728 2 -3763 -17z"/>
<path d="M2750 6072 c-19 -9 -44 -31 -56 -49 -26 -39 -554 -2140 -554 -2204 0
-54 31 -104 81 -129 31 -16 58 -20 141 -20 117 0 159 14 194 67 13 19 47 136
88 300 37 147 71 285 77 306 l10 37 2230 0 c2119 0 2230 -1 2225 -17 -32 -108
-126 -512 -126 -544 0 -54 31 -104 81 -129 31 -16 58 -20 141 -20 117 0 159
14 194 67 26 39 554 2140 554 2204 0 54 -31 104 -81 129 -31 16 -58 20 -141
20 -117 0 -159 -14 -194 -67 -13 -19 -47 -136 -88 -300 -37 -147 -71 -285 -77
-305 l-10 -38 -2230 0 c-2119 0 -2230 1 -2225 18 32 107 126 511 126 543 0 54
-31 104 -81 129 -53 27 -227 29 -279 2z"/>
<path d="M468 2328 c-22 -12 -45 -38 -58 -62 -14 -28 -82 -368 -215 -1065
-107 -563 -195 -1038 -195 -1054 0 -43 37 -102 80 -126 l38 -21 3781 0 c4098
0 3817 -4 3870 53 18 20 101 277 348 1074 345 1114 339 1093 296 1152 -44 57
-66 66 -188 69 -102 3 -118 1 -153 -18 -21 -12 -46 -35 -56 -50 -9 -16 -47
-127 -86 -247 -157 -495 -260 -759 -351 -897 -48 -73 -56 -77 -219 -95 -280
-32 -441 -34 -3040 -38 -2585 -4 -3101 0 -3415 28 -203 19 -198 17 -207 69
-17 96 22 436 98 850 27 147 43 258 39 277 -7 41 -50 92 -92 109 -20 9 -70 14
-135 14 -87 0 -109 -4 -140 -22z"/>
</g>
</svg>
