<?xml version="1.0" standalone="no"?>
<!DOCTYPE svg PUBLIC "-//W3C//DTD SVG 20010904//EN"
 "http://www.w3.org/TR/2001/REC-SVG-20010904/DTD/svg10.dtd">
<svg version="1.0" xmlns="http://www.w3.org/2000/svg"
 width="1002.000000pt" height="938.000000pt" viewBox="0 0 1002.000000 938.000000"
 preserveAspectRatio="xMidYMid meet">
<metadata>
Created by potrace 1.16, written by Peter Selinger 2001-2019
</metadata>
<g transform="translate(0.000000,938.000000) scale(0.100000,-0.100000)"
fill="#000000" stroke="none">
<path d="M2419 9360 c-20 -10 -44 -31 -53 -45 -10 -14 -159 -482 -332 -1038
-239 -768 -314 -1020 -309 -1043 8 -46 45 -96 85 -116 29 -15 62 -18 188 -18
167 0 211 11 245 64 9 13 49 125 88 248 78 245 150 443 211 582 45 105 122
232 146 245 21 11 158 27 357 43 105 8 916 12 2690 15 2482 4 3032 0 3308 -27
159 -16 154 -14 161 -68 13 -100 -20 -378 -90 -765 l-36 -198 24 -46 c41 -82
55 -88 243 -91 148 -3 167 -1 203 17 22 11 49 35 60 53 14 24 72 312 212 1051
l192 1017 -23 47 c-13 26 -37 56 -52 67 l-28 21 -3727 2 c-3648 2 -3728 2
-3763 -17z"/>
<path d="M2760 6112 c-19 -9 -44 -31 -56 -49 -26 -39 -574 -2220 -574 -2284 0
-54 31 -104 81 -129 33 -17 59 -20 191 -20 172 0 205 9 244 67 13 19 47 136
88 300 37 147 71 285 77 306 l10 37 2130 0 c2024 0 2130 -1 2125 -17 -32 -108
-126 -512 -126 -544 0 -54 31 -104 81 -129 33 -17 59 -20 191 -20 172 0 205 9
244 67 26 39 574 2220 574 2284 0 54 -31 104 -81 129 -33 17 -59 20 -191 20
-172 0 -205 -9 -244 -67 -13 -19 -47 -136 -88 -300 -37 -147 -71 -285 -77
-305 l-10 -38 -2130 0 c-2024 0 -2130 1 -2125 18 32 107 126 511 126 543 0 54
-31 104 -81 129 -33 17 -59 20 -191 20 -126 0 -159 -3 -188 -18z"/>
<path d="M488 2408 c-22 -12 -46 -38 -58 -62 -14 -28 -86 -384 -225 -1106
-113 -586 -205 -1078 -205 -1094 0 -42 37 -101 80 -125 l38 -21 3781 0 c3181
0 3787 2 3814 14 70 30 61 3 414 1153 355 1156 349 1133 306 1192 -47 62 -61
66 -239 69 -153 3 -167 2 -202 -18 -21 -12 -46 -35 -56 -51 -9 -15 -44 -115
-77 -221 -182 -583 -326 -933 -403 -983 -27 -18 -184 -40 -406 -56 -215 -17
-5146 -25 -5595 -10 -300 10 -508 24 -600 40 l-40 7 1 139 c2 187 32 405 115
840 34 175 32 207 -8 256 -44 52 -75 59 -245 59 -138 0 -157 -3 -190 -22z"/>
</g>
</svg>
