<?xml version="1.0" standalone="no"?>
<!DOCTYPE svg PUBLIC "-//W3C//DTD SVG 20010904//EN"
 "http://www.w3.org/TR/2001/REC-SVG-20010904/DTD/svg10.dtd">
<svg version="1.0" xmlns="http://www.w3.org/2000/svg"
 width="1230.000000pt" height="339.000000pt" viewBox="0 0 1230.000000 339.000000"
 preserveAspectRatio="xMidYMid meet">
<metadata>
Created by potrace 1.16, written by Peter Selinger 2001-2019
</metadata>
<g transform="translate(0.000000,339.000000) scale(0.100000,-0.100000)"
fill="#000000" stroke="none">
<path d="M198 3380 c-75 -22 -154 -98 -183 -173 -21 -56 -17 -155 9 -205 9
-18 63 -94 120 -170 1097 -1454 2795 -2434 4744 -2737 433 -67 749 -90 1257
-90 508 0 824 23 1257 90 1949 303 3647 1283 4744 2737 57 76 111 152 120 170
26 50 30 149 9 205 -55 144 -227 222 -363 163 -60 -26 -99 -67 -231 -239 -325
-424 -761 -827 -1246 -1151 -937 -626 -2129 -1013 -3465 -1124 -1670 -140
-3296 142 -4545 788 -728 377 -1364 898 -1816 1487 -131 171 -167 209 -224
235 -52 25 -132 31 -187 14z"/>
</g>
</svg>
