<?xml version="1.0" standalone="no"?>
<!DOCTYPE svg PUBLIC "-//W3C//DTD SVG 20010904//EN"
 "http://www.w3.org/TR/2001/REC-SVG-20010904/DTD/svg10.dtd">
<svg version="1.0" xmlns="http://www.w3.org/2000/svg"
 width="518.000000pt" height="956.000000pt" viewBox="0 0 518.000000 956.000000"
 preserveAspectRatio="xMidYMid meet">
<metadata>
Created by potrace 1.16, written by Peter Selinger 2001-2019
</metadata>
<g transform="translate(0.000000,956.000000) scale(0.100000,-0.100000)"
fill="#000000" stroke="none">
<path d="M4213 9546 c-261 -50 -497 -184 -742 -421 -190 -184 -336 -368 -556
-700 -673 -1015 -1143 -2121 -1500 -3530 -213 -838 -299 -1414 -313 -2095 l-7
-305 -210 -205 c-116 -113 -358 -347 -539 -520 -180 -173 -332 -325 -337 -338
-12 -32 -11 -79 3 -105 6 -12 31 -48 55 -79 51 -67 99 -87 157 -68 32 10 256
219 735 683 90 87 167 155 171 150 4 -4 12 -53 19 -108 18 -146 74 -418 121
-587 168 -612 447 -1016 825 -1199 189 -92 361 -126 585 -116 561 25 1101 335
1912 1099 181 171 190 200 97 323 -47 62 -82 85 -131 85 -48 0 -77 -21 -233
-170 -472 -447 -776 -683 -1080 -835 -205 -103 -359 -149 -545 -161 -202 -14
-341 34 -464 159 -172 174 -267 444 -326 922 -47 380 -49 802 -4 1235 l16 155
112 115 c1684 1729 2635 3188 2989 4585 103 404 137 628 144 945 8 342 -20
512 -118 710 -90 182 -236 305 -429 360 -96 28 -301 36 -407 16z m262 -337
c124 -23 208 -87 265 -203 96 -194 99 -556 9 -1038 -258 -1383 -1031 -2697
-2572 -4366 -83 -89 -152 -161 -154 -158 -20 20 299 1373 523 2216 223 841
433 1475 666 2020 103 240 377 793 465 937 179 295 342 476 500 557 84 42 191
55 298 35z"/>
</g>
</svg>
