<?xml version="1.0" standalone="no"?>
<!DOCTYPE svg PUBLIC "-//W3C//DTD SVG 20010904//EN"
 "http://www.w3.org/TR/2001/REC-SVG-20010904/DTD/svg10.dtd">
<svg version="1.0" xmlns="http://www.w3.org/2000/svg"
 width="358.000000pt" height="602.000000pt" viewBox="0 0 358.000000 602.000000"
 preserveAspectRatio="xMidYMid meet">
<metadata>
Created by potrace 1.16, written by Peter Selinger 2001-2019
</metadata>
<g transform="translate(0.000000,602.000000) scale(0.100000,-0.100000)"
fill="#000000" stroke="none">
<path d="M1579 6005 c-278 -53 -517 -185 -750 -415 -299 -295 -547 -730 -724
-1265 -34 -104 -72 -231 -85 -281 -23 -90 -23 -91 -4 -129 31 -63 63 -79 158
-83 94 -4 144 11 172 52 9 15 34 88 55 164 156 565 384 1012 663 1300 117 121
196 181 321 242 129 64 211 83 350 84 95 1 116 -2 151 -21 55 -30 97 -80 125
-150 22 -53 23 -73 24 -238 0 -201 -16 -302 -81 -528 -20 -67 -294 -804 -609
-1638 -316 -834 -586 -1556 -600 -1605 -47 -162 -58 -252 -52 -439 4 -143 9
-185 31 -265 132 -472 514 -766 1021 -787 157 -6 261 7 406 53 547 170 1027
770 1314 1639 34 105 72 231 85 281 23 90 23 91 4 129 -31 63 -63 79 -158 83
-94 4 -144 -11 -172 -52 -9 -15 -34 -88 -55 -164 -156 -565 -384 -1012 -663
-1300 -117 -121 -196 -181 -321 -242 -129 -64 -211 -83 -350 -84 -95 -1 -116
2 -151 21 -55 30 -97 80 -125 150 -22 53 -23 73 -24 238 0 201 16 302 81 528
20 67 294 804 609 1638 316 834 586 1556 600 1605 47 162 58 252 52 439 -6
201 -28 298 -106 460 -141 295 -379 480 -726 566 -107 27 -358 35 -466 14z"/>
</g>
</svg>
