<?xml version="1.0" standalone="no"?>
<!DOCTYPE svg PUBLIC "-//W3C//DTD SVG 20010904//EN"
 "http://www.w3.org/TR/2001/REC-SVG-20010904/DTD/svg10.dtd">
<svg version="1.0" xmlns="http://www.w3.org/2000/svg"
 width="603.000000pt" height="626.000000pt" viewBox="0 0 603.000000 626.000000"
 preserveAspectRatio="xMidYMid meet">
<metadata>
Created by potrace 1.16, written by Peter Selinger 2001-2019
</metadata>
<g transform="translate(0.000000,626.000000) scale(0.100000,-0.100000)"
fill="#000000" stroke="none">
<path d="M3500 6250 c-778 -80 -1574 -470 -2207 -1083 -581 -563 -990 -1252
-1176 -1982 -68 -265 -94 -434 -106 -675 -33 -640 123 -1199 462 -1659 276
-374 700 -653 1181 -776 182 -46 322 -65 526 -72 1157 -38 2421 696 3172 1842
210 319 354 613 469 955 116 348 172 629 188 950 33 640 -123 1199 -462 1659
-276 374 -700 653 -1181 776 -72 18 -180 41 -241 50 -128 20 -495 28 -625 15z
m385 -411 c300 -37 579 -197 752 -432 292 -397 346 -947 177 -1787 -44 -213
-147 -634 -214 -865 -225 -780 -515 -1310 -942 -1721 -727 -699 -1647 -825
-2174 -297 -331 330 -439 848 -333 1588 54 378 229 1089 364 1484 250 730 599
1253 1076 1614 330 248 640 378 1004 421 68 7 206 5 290 -5z"/>
</g>
</svg>
