<?xml version="1.0" standalone="no"?>
<!DOCTYPE svg PUBLIC "-//W3C//DTD SVG 20010904//EN"
 "http://www.w3.org/TR/2001/REC-SVG-20010904/DTD/svg10.dtd">
<svg version="1.0" xmlns="http://www.w3.org/2000/svg"
 width="994.000000pt" height="977.000000pt" viewBox="0 0 994.000000 977.000000"
 preserveAspectRatio="xMidYMid meet">
<metadata>
Created by potrace 1.16, written by Peter Selinger 2001-2019
</metadata>
<g transform="translate(0.000000,977.000000) scale(0.100000,-0.100000)"
fill="#000000" stroke="none">
<path d="M158 9750 c-21 -11 -45 -32 -54 -45 -20 -30 -103 -356 -104 -404 0
-46 35 -105 79 -129 33 -18 62 -20 346 -26 400 -7 602 -29 688 -73 40 -20 84
-87 97 -146 6 -29 242 -2018 525 -4422 565 -4801 516 -4429 594 -4478 35 -21
45 -22 271 -22 228 0 236 1 283 24 27 13 67 42 89 65 24 25 1049 1675 2564
4126 1388 2247 2537 4101 2553 4120 17 19 58 76 93 125 87 124 270 306 388
384 282 188 590 279 1001 297 245 10 246 11 314 286 l49 195 -25 48 c-13 27
-37 58 -52 69 -33 24 -53 24 -427 6 -561 -27 -1477 -22 -2246 11 l-261 12 -41
-23 c-22 -12 -49 -39 -59 -59 -11 -20 -39 -114 -63 -208 -47 -191 -47 -221 -3
-274 35 -42 79 -59 150 -59 317 -1 592 -117 663 -282 18 -42 21 -66 18 -132
-3 -78 -20 -128 -88 -266 -4 -8 -918 -1489 -2031 -3290 l-2024 -3275 -8 40
c-4 22 -188 1565 -407 3430 -220 1865 -404 3421 -409 3460 l-8 69 45 48 c114
122 383 184 847 195 262 6 293 13 329 68 21 32 106 355 106 404 0 47 -36 105
-81 130 -38 21 -41 22 -306 12 -849 -32 -2102 -37 -2788 -11 -604 23 -566 23
-607 0z"/>
</g>
</svg>
