<?xml version="1.0" standalone="no"?>
<!DOCTYPE svg PUBLIC "-//W3C//DTD SVG 20010904//EN"
 "http://www.w3.org/TR/2001/REC-SVG-20010904/DTD/svg10.dtd">
<svg version="1.0" xmlns="http://www.w3.org/2000/svg"
 width="957.000000pt" height="992.000000pt" viewBox="0 0 957.000000 992.000000"
 preserveAspectRatio="xMidYMid meet">
<metadata>
Created by potrace 1.16, written by Peter Selinger 2001-2019
</metadata>
<g transform="translate(0.000000,992.000000) scale(0.100000,-0.100000)"
fill="#000000" stroke="none">
<path d="M6923 9899 c-32 -12 -72 -39 -100 -67 -36 -37 -593 -981 -2490 -4217
-1344 -2293 -2453 -4179 -2463 -4190 -10 -11 -46 -63 -81 -115 -81 -123 -271
-313 -393 -394 -278 -184 -602 -275 -1031 -292 -175 -7 -204 -14 -243 -58 -24
-28 -37 -66 -77 -228 l-49 -195 25 -48 c13 -27 37 -58 52 -69 33 -24 61 -24
452 -6 583 27 1535 22 2279 -11 280 -13 306 -9 354 45 24 28 37 65 77 228 l49
195 -25 48 c-38 77 -59 87 -201 96 -68 5 -154 14 -193 20 -215 35 -394 136
-455 255 -22 42 -25 62 -25 144 0 86 3 101 32 160 17 36 32 72 34 80 2 9 225
392 494 853 l490 836 1648 1 c1137 0 1647 -3 1647 -10 0 -17 169 -1981 175
-2036 6 -48 4 -52 -35 -97 -92 -104 -318 -171 -665 -197 -77 -5 -209 -10 -293
-10 -133 0 -158 -3 -192 -20 -22 -11 -47 -31 -56 -45 -20 -30 -103 -356 -104
-404 0 -47 36 -105 81 -130 37 -21 41 -22 296 -12 142 6 581 16 975 23 739 12
1578 3 2186 -23 237 -11 256 -10 293 7 22 9 50 31 61 47 23 32 107 351 108
406 0 47 -35 105 -80 130 -35 19 -52 21 -241 21 -345 0 -679 25 -801 60 -49
14 -94 53 -120 104 -19 37 -55 437 -408 4526 -296 3429 -391 4493 -403 4515
-21 42 -58 74 -98 85 -19 6 -124 10 -234 9 -176 0 -206 -2 -252 -20z m-432
-4176 c101 -1167 180 -2125 178 -2128 -3 -3 -649 -4 -1436 -3 l-1429 3 1250
2133 c688 1173 1252 2129 1253 2125 1 -4 84 -963 184 -2130z"/>
</g>
</svg>
