<?xml version="1.0" standalone="no"?>
<!DOCTYPE svg PUBLIC "-//W3C//DTD SVG 20010904//EN"
 "http://www.w3.org/TR/2001/REC-SVG-20010904/DTD/svg10.dtd">
<svg version="1.0" xmlns="http://www.w3.org/2000/svg"
 width="659.000000pt" height="602.000000pt" viewBox="0 0 659.000000 602.000000"
 preserveAspectRatio="xMidYMid meet">
<metadata>
Created by potrace 1.16, written by Peter Selinger 2001-2019
</metadata>
<g transform="translate(0.000000,602.000000) scale(0.100000,-0.100000)"
fill="#000000" stroke="none">
<path d="M1678 5997 c-169 -52 -310 -180 -368 -336 -12 -29 -311 -1214 -665
-2632 -697 -2789 -667 -2653 -630 -2775 58 -196 280 -297 512 -234 190 51 339
194 397 379 13 42 175 685 361 1430 l338 1354 126 -7 c1221 -66 1921 -351
2088 -851 25 -74 27 -92 27 -250 0 -155 -3 -182 -31 -305 -47 -202 -56 -289
-50 -499 6 -203 17 -272 73 -441 176 -528 645 -850 1209 -827 272 11 489 108
705 314 327 311 592 875 800 1699 12 46 11 55 -6 89 -33 67 -61 80 -174 80
-155 0 -156 -1 -239 -320 -217 -829 -496 -1320 -836 -1470 -132 -59 -330 -70
-432 -25 -159 70 -235 254 -236 570 0 222 28 428 103 755 50 215 64 339 57
485 -10 198 -68 379 -173 537 -253 380 -805 625 -1651 732 -140 18 -265 29
-621 57 l-73 6 134 82 c264 163 487 333 1046 799 554 462 773 629 1036 788
115 70 363 199 382 199 5 0 -1 -39 -13 -87 -50 -194 -13 -370 104 -495 53 -57
103 -88 188 -120 89 -32 289 -32 394 0 243 77 421 250 506 493 32 91 43 251
24 338 -39 176 -169 303 -357 347 -53 13 -100 15 -208 11 -521 -21 -1032 -256
-1703 -784 -75 -59 -315 -256 -533 -438 -530 -443 -760 -616 -1029 -777 -181
-109 -385 -207 -506 -242 -20 -6 -2 71 222 969 207 828 244 987 244 1049 0
133 -48 235 -143 300 -74 50 -129 67 -232 72 -74 3 -104 0 -167 -19z"/>
</g>
</svg>
