<?xml version="1.0" standalone="no"?>
<!DOCTYPE svg PUBLIC "-//W3C//DTD SVG 20010904//EN"
 "http://www.w3.org/TR/2001/REC-SVG-20010904/DTD/svg10.dtd">
<svg version="1.0" xmlns="http://www.w3.org/2000/svg"
 width="878.000000pt" height="992.000000pt" viewBox="0 0 878.000000 992.000000"
 preserveAspectRatio="xMidYMid meet">
<metadata>
Created by potrace 1.16, written by Peter Selinger 2001-2019
</metadata>
<g transform="translate(0.000000,992.000000) scale(0.100000,-0.100000)"
fill="#000000" stroke="none">
<path d="M6599 9901 c-64 -25 -113 -64 -148 -119 -16 -26 -1081 -1901 -2366
-4167 -1285 -2266 -2349 -4138 -2365 -4160 -16 -22 -46 -67 -66 -100 -145
-234 -350 -459 -523 -574 -239 -158 -502 -240 -823 -257 -67 -3 -137 -10 -155
-15 -60 -19 -87 -64 -121 -202 -18 -70 -32 -141 -32 -158 0 -45 36 -103 80
-128 37 -21 44 -21 182 -12 79 6 331 16 560 23 435 13 1203 2 1754 -23 229
-11 244 -11 280 7 56 28 78 68 114 213 36 147 35 182 -7 232 -35 42 -79 59
-150 59 -84 0 -216 17 -308 41 -130 33 -220 82 -301 163 -63 63 -74 80 -93
140 -33 109 -23 222 30 329 11 23 27 60 35 82 8 22 848 1509 1867 3305 l1852
3264 7 -49 c5 -28 112 -1599 239 -3492 219 -3270 230 -3444 214 -3476 -46 -97
-131 -160 -285 -211 -198 -65 -335 -85 -660 -93 -321 -7 -319 -6 -375 -230
-41 -168 -29 -230 55 -273 39 -20 47 -20 308 -10 1001 38 2080 38 2929 -1 281
-12 303 -10 351 45 22 26 36 62 60 159 38 149 39 177 11 227 -40 70 -73 80
-265 80 -308 0 -576 28 -669 69 -53 23 -91 69 -110 134 -12 39 -95 1221 -320
4564 -232 3443 -308 4519 -319 4540 -18 36 -54 69 -89 82 -16 6 -96 11 -180
11 -122 -1 -161 -4 -198 -19z"/>
</g>
</svg>
