<?xml version="1.0" standalone="no"?>
<!DOCTYPE svg PUBLIC "-//W3C//DTD SVG 20010904//EN"
 "http://www.w3.org/TR/2001/REC-SVG-20010904/DTD/svg10.dtd">
<svg version="1.0" xmlns="http://www.w3.org/2000/svg"
 width="499.000000pt" height="860.000000pt" viewBox="0 0 499.000000 860.000000"
 preserveAspectRatio="xMidYMid meet">
<metadata>
Created by potrace 1.16, written by Peter Selinger 2001-2019
</metadata>
<g transform="translate(0.000000,860.000000) scale(0.100000,-0.100000)"
fill="#000000" stroke="none">
<path d="M3515 8584 c-662 -102 -1288 -674 -1735 -1585 -114 -233 -193 -435
-185 -475 7 -42 41 -83 81 -100 43 -18 165 -18 209 0 43 18 56 39 111 177 303
758 789 1356 1272 1565 143 62 258 86 412 88 129 1 138 0 192 -27 61 -30 101
-70 142 -140 86 -147 100 -491 35 -837 -40 -210 -1329 -5342 -1379 -5491 -253
-752 -696 -1279 -1172 -1394 -177 -43 -478 -23 -700 47 -62 19 -89 38 -54 38
8 0 56 21 106 46 77 38 109 63 184 138 109 108 164 204 202 353 65 258 -13
471 -214 576 -316 166 -757 3 -933 -345 -76 -150 -107 -366 -75 -518 57 -273
282 -489 629 -605 343 -114 762 -125 1139 -30 461 117 936 409 1276 785 107
118 233 283 312 410 79 126 203 388 249 526 37 112 1282 5067 1332 5304 29
137 32 411 5 535 -114 533 -482 879 -1021 960 -122 18 -299 18 -420 -1z"/>
</g>
</svg>
