<?xml version="1.0" standalone="no"?>
<!DOCTYPE svg PUBLIC "-//W3C//DTD SVG 20010904//EN"
 "http://www.w3.org/TR/2001/REC-SVG-20010904/DTD/svg10.dtd">
<svg version="1.0" xmlns="http://www.w3.org/2000/svg"
 width="510.000000pt" height="626.000000pt" viewBox="0 0 510.000000 626.000000"
 preserveAspectRatio="xMidYMid meet">
<metadata>
Created by potrace 1.16, written by Peter Selinger 2001-2019
</metadata>
<g transform="translate(0.000000,626.000000) scale(0.100000,-0.100000)"
fill="#000000" stroke="none">
<path d="M3190 6249 c-559 -48 -1050 -259 -1408 -604 -63 -60 -142 -144 -175
-185 -228 -283 -396 -645 -479 -1034 -29 -137 -32 -420 -5 -546 62 -292 187
-521 388 -715 160 -153 361 -271 584 -340 61 -19 299 -73 530 -120 462 -94
540 -115 665 -175 374 -182 548 -482 486 -839 -69 -396 -339 -760 -706 -955
-189 -100 -411 -169 -655 -202 -198 -27 -591 -25 -783 5 -362 55 -621 158
-822 324 -38 32 -70 62 -70 66 0 4 29 13 64 20 182 36 385 168 508 330 145
191 214 478 163 676 -64 246 -283 397 -574 397 -355 -1 -676 -219 -811 -549
-68 -167 -100 -394 -81 -573 71 -680 715 -1141 1707 -1221 181 -14 533 -7 724
16 664 79 1224 330 1620 725 209 208 344 396 476 665 106 217 171 404 221 635
26 122 26 468 0 590 -112 523 -474 927 -1023 1143 -134 53 -274 87 -714 177
-437 89 -462 96 -570 151 -171 88 -292 231 -335 396 -24 91 -20 240 9 353 117
462 466 775 956 861 290 51 634 29 887 -56 156 -53 367 -183 415 -257 l17 -25
-59 -18 c-154 -46 -335 -195 -415 -338 -76 -137 -114 -312 -95 -433 54 -342
427 -498 796 -334 205 92 358 274 418 499 86 320 43 614 -129 877 -215 329
-671 561 -1209 613 -124 12 -374 12 -516 0z"/>
</g>
</svg>
