<?xml version="1.0" standalone="no"?>
<!DOCTYPE svg PUBLIC "-//W3C//DTD SVG 20010904//EN"
 "http://www.w3.org/TR/2001/REC-SVG-20010904/DTD/svg10.dtd">
<svg version="1.0" xmlns="http://www.w3.org/2000/svg"
 width="623.000000pt" height="908.000000pt" viewBox="0 0 623.000000 908.000000"
 preserveAspectRatio="xMidYMid meet">
<metadata>
Created by potrace 1.16, written by Peter Selinger 2001-2019
</metadata>
<g transform="translate(0.000000,908.000000) scale(0.100000,-0.100000)"
fill="#000000" stroke="none">
<path d="M2280 9062 c-51 -28 -67 -56 -96 -168 -30 -116 -28 -156 13 -204 48
-57 61 -60 300 -60 402 0 738 -27 875 -70 88 -27 101 -50 100 -170 0 -78 -76
-387 -934 -3820 -1016 -4063 -953 -3827 -1054 -3939 -26 -29 -69 -63 -96 -77
-131 -66 -496 -104 -1014 -104 -213 0 -222 -1 -254 -22 -51 -35 -67 -65 -96
-172 -29 -112 -27 -149 13 -196 51 -61 55 -62 351 -50 147 5 566 15 932 21
686 12 1593 3 2272 -22 296 -11 308 -11 344 8 54 28 70 55 100 169 30 116 28
156 -13 204 -48 57 -61 60 -300 60 -402 0 -738 27 -875 70 -88 27 -101 50
-100 170 0 78 76 387 934 3820 1016 4063 953 3827 1054 3939 26 29 69 63 96
77 131 66 496 104 1014 104 213 0 222 1 254 23 51 34 67 64 96 171 29 112 27
149 -13 196 -51 61 -54 62 -356 50 -994 -37 -2154 -35 -3337 6 -161 5 -178 4
-210 -14z"/>
</g>
</svg>
