<?xml version="1.0" standalone="no"?>
<!DOCTYPE svg PUBLIC "-//W3C//DTD SVG 20010904//EN"
 "http://www.w3.org/TR/2001/REC-SVG-20010904/DTD/svg10.dtd">
<svg version="1.0" xmlns="http://www.w3.org/2000/svg"
 width="914.000000pt" height="953.000000pt" viewBox="0 0 914.000000 953.000000"
 preserveAspectRatio="xMidYMid meet">
<metadata>
Created by potrace 1.16, written by Peter Selinger 2001-2019
</metadata>
<g transform="translate(0.000000,953.000000) scale(0.100000,-0.100000)"
fill="#000000" stroke="none">
<path d="M6727 9516 c-54 -20 -111 -60 -140 -98 -13 -18 -1088 -1824 -2387
-4013 -1299 -2189 -2373 -3993 -2386 -4010 -13 -16 -61 -86 -108 -155 -237
-351 -516 -571 -875 -690 -186 -62 -417 -100 -608 -100 -125 0 -163 -33 -199
-171 -30 -119 -31 -166 -1 -210 42 -64 71 -71 258 -59 90 5 355 15 589 21 442
12 1146 3 1672 -22 227 -11 247 -11 281 6 53 25 74 60 103 173 30 114 28 154
-13 202 -39 47 -68 57 -194 64 -286 15 -508 123 -586 284 -24 51 -27 68 -27
162 0 90 4 115 28 175 15 39 34 81 43 94 8 13 19 36 23 52 5 16 246 429 537
919 l528 890 1648 0 c1136 0 1647 -3 1647 -10 0 -6 45 -490 100 -1076 55 -587
100 -1087 100 -1113 0 -85 -81 -191 -187 -244 -179 -90 -454 -137 -806 -137
-207 0 -228 -14 -272 -190 -30 -117 -28 -153 12 -200 51 -61 56 -62 335 -50
139 5 546 15 903 21 666 12 1393 3 1966 -22 276 -13 288 -11 337 46 41 46 87
229 72 285 -11 41 -66 97 -103 104 -12 3 -143 7 -292 10 -487 9 -659 46 -722
153 -14 24 -31 64 -39 90 -8 28 -185 1873 -419 4363 -222 2373 -407 4328 -410
4343 -8 44 -44 87 -89 108 -51 23 -258 26 -319 5z m-413 -3886 l202 -2145
-1485 -3 c-816 -1 -1486 0 -1489 2 -2 3 574 977 1280 2166 788 1329 1284 2155
1287 2143 2 -10 94 -983 205 -2163z"/>
</g>
</svg>
