<?xml version="1.0" standalone="no"?>
<!DOCTYPE svg PUBLIC "-//W3C//DTD SVG 20010904//EN"
 "http://www.w3.org/TR/2001/REC-SVG-20010904/DTD/svg10.dtd">
<svg version="1.0" xmlns="http://www.w3.org/2000/svg"
 width="764.000000pt" height="626.000000pt" viewBox="0 0 764.000000 626.000000"
 preserveAspectRatio="xMidYMid meet">
<metadata>
Created by potrace 1.16, written by Peter Selinger 2001-2019
</metadata>
<g transform="translate(0.000000,626.000000) scale(0.100000,-0.100000)"
fill="#000000" stroke="none">
<path d="M1300 6241 c-452 -100 -771 -467 -1034 -1193 -61 -168 -134 -412
-206 -690 -69 -260 -69 -276 -10 -333 31 -30 32 -30 165 -33 145 -4 179 5 211
53 9 14 44 134 79 267 81 312 134 494 191 660 187 537 404 819 670 869 84 16
198 4 261 -26 202 -99 267 -431 182 -935 -12 -69 -262 -1088 -556 -2265 -534
-2138 -534 -2140 -531 -2230 3 -76 8 -100 35 -157 111 -235 417 -297 699 -141
27 15 83 61 125 102 133 133 91 -10 620 2105 349 1396 477 1892 498 1935 57
112 175 308 272 451 372 548 785 895 1264 1060 286 98 677 137 865 86 144 -40
291 -155 363 -286 134 -245 156 -647 62 -1152 -101 -550 -374 -1421 -785
-2513 -106 -283 -131 -364 -155 -499 -17 -101 -20 -330 -5 -423 40 -244 163
-482 333 -640 343 -319 888 -403 1342 -206 264 114 514 322 730 607 264 349
493 841 625 1343 25 95 19 131 -31 179 -30 29 -31 29 -167 32 -197 4 -206 -2
-260 -208 -179 -668 -509 -1239 -857 -1479 -191 -132 -423 -196 -589 -161
-196 41 -254 296 -165 733 30 151 78 297 228 699 449 1204 710 2066 782 2588
21 146 17 520 -5 645 -56 311 -179 561 -367 747 -237 236 -577 377 -1009 419
-152 14 -442 7 -590 -16 -438 -67 -837 -244 -1200 -533 -125 -99 -349 -320
-463 -455 -50 -59 -94 -104 -97 -100 -4 5 -12 42 -19 83 -6 41 -27 121 -47
179 -142 427 -485 723 -952 821 -144 31 -389 36 -502 11z"/>
</g>
</svg>
