<?xml version="1.0" standalone="no"?>
<!DOCTYPE svg PUBLIC "-//W3C//DTD SVG 20010904//EN"
 "http://www.w3.org/TR/2001/REC-SVG-20010904/DTD/svg10.dtd">
<svg version="1.0" xmlns="http://www.w3.org/2000/svg"
 width="1096.000000pt" height="602.000000pt" viewBox="0 0 1096.000000 602.000000"
 preserveAspectRatio="xMidYMid meet">
<metadata>
Created by potrace 1.16, written by Peter Selinger 2001-2019
</metadata>
<g transform="translate(0.000000,602.000000) scale(0.100000,-0.100000)"
fill="#000000" stroke="none">
<path d="M1257 6010 c-401 -68 -707 -386 -940 -975 -90 -228 -172 -500 -287
-950 l-34 -131 20 -39 c31 -63 63 -79 158 -83 94 -4 144 11 171 52 9 14 46
137 81 273 127 489 213 748 324 978 134 279 298 458 475 520 72 26 232 26 304
1 102 -35 179 -139 218 -293 28 -108 25 -455 -6 -628 -12 -71 -256 -1065 -542
-2208 -561 -2244 -540 -2152 -504 -2273 58 -196 280 -297 512 -234 183 49 335
190 392 363 11 34 223 873 471 1865 285 1142 459 1821 475 1851 96 191 308
516 452 696 103 129 305 335 415 424 187 150 424 283 637 356 275 94 668 131
841 79 187 -55 331 -194 401 -384 96 -265 98 -632 3 -1098 -13 -68 -227 -933
-474 -1923 -486 -1943 -471 -1875 -435 -1995 58 -196 280 -297 512 -234 190
51 339 194 397 379 17 56 857 3417 907 3631 12 48 159 304 283 490 365 547
787 901 1261 1058 264 87 598 124 783 86 465 -95 622 -620 446 -1494 -109
-542 -350 -1310 -739 -2350 -116 -311 -139 -385 -160 -525 -58 -385 59 -757
314 -998 196 -185 433 -281 726 -294 216 -10 385 26 591 127 360 176 676 531
928 1045 119 242 229 540 297 806 22 85 22 86 3 124 -31 63 -63 79 -158 83
-143 6 -177 -21 -216 -177 -58 -234 -184 -568 -295 -788 -190 -372 -423 -645
-666 -777 -203 -111 -461 -137 -573 -59 -97 68 -140 243 -118 474 25 246 71
416 237 859 367 981 599 1704 720 2245 182 814 23 1443 -449 1777 -392 277
-1025 354 -1622 199 -547 -143 -1039 -501 -1461 -1064 l-81 -107 -7 57 c-19
165 -76 356 -145 493 -227 448 -723 700 -1379 700 -544 0 -1047 -178 -1491
-529 -131 -104 -389 -363 -495 -498 l-80 -101 -7 70 c-15 143 -69 310 -146
450 -176 323 -490 533 -887 593 -106 16 -278 18 -358 5z"/>
</g>
</svg>
