<?xml version="1.0" standalone="no"?>
<!DOCTYPE svg PUBLIC "-//W3C//DTD SVG 20010904//EN"
 "http://www.w3.org/TR/2001/REC-SVG-20010904/DTD/svg10.dtd">
<svg version="1.0" xmlns="http://www.w3.org/2000/svg"
 width="690.000000pt" height="613.000000pt" viewBox="0 0 690.000000 613.000000"
 preserveAspectRatio="xMidYMid meet">
<metadata>
Created by potrace 1.16, written by Peter Selinger 2001-2019
</metadata>
<g transform="translate(0.000000,613.000000) scale(0.100000,-0.100000)"
fill="#000000" stroke="none">
<path d="M2035 6115 c-318 -50 -626 -199 -930 -450 -118 -98 -369 -351 -480
-485 -172 -207 -423 -565 -568 -810 -78 -130 -77 -194 2 -247 32 -22 43 -23
210 -23 213 0 216 1 294 122 246 382 639 696 1036 828 220 74 211 73 969 77
655 4 683 3 678 -14 -3 -10 -319 -1039 -703 -2288 l-697 -2270 0 -115 c-1 -97
3 -124 22 -172 69 -170 229 -268 441 -268 120 0 189 17 311 77 130 64 227 160
292 290 26 50 52 118 59 150 8 32 212 1082 454 2333 l440 2275 1265 5 1265 5
65 22 c230 79 394 283 425 529 19 152 -69 324 -200 391 -108 56 25 53 -2360
52 -1727 -1 -2227 -4 -2290 -14z"/>
</g>
</svg>
