<?xml version="1.0" standalone="no"?>
<!DOCTYPE svg PUBLIC "-//W3C//DTD SVG 20010904//EN"
 "http://www.w3.org/TR/2001/REC-SVG-20010904/DTD/svg10.dtd">
<svg version="1.0" xmlns="http://www.w3.org/2000/svg"
 width="1067.000000pt" height="946.000000pt" viewBox="0 0 1067.000000 946.000000"
 preserveAspectRatio="xMidYMid meet">
<metadata>
Created by potrace 1.16, written by Peter Selinger 2001-2019
</metadata>
<g transform="translate(0.000000,946.000000) scale(0.100000,-0.100000)"
fill="#000000" stroke="none">
<path d="M2368 9440 c-21 -11 -45 -32 -54 -45 -19 -30 -103 -356 -104 -403 0
-49 32 -104 76 -128 37 -20 57 -22 404 -27 509 -9 751 -33 807 -81 59 -51 120
211 -927 -3976 -528 -2115 -972 -3869 -985 -3897 -48 -107 -116 -168 -216
-197 -135 -39 -521 -66 -942 -66 -208 0 -231 -2 -267 -20 -22 -11 -47 -31 -56
-45 -19 -30 -103 -356 -104 -403 0 -50 32 -104 78 -130 l41 -23 2653 4 c2866
3 2678 0 2998 53 900 148 1795 581 2611 1260 183 152 613 578 761 754 756 898
1229 1872 1427 2935 234 1257 14 2426 -613 3259 -444 589 -1085 988 -1816
1131 -327 63 -99 59 -3050 62 -2662 2 -2685 2 -2722 -17z m4987 -628 c539 -86
956 -279 1278 -591 121 -117 193 -204 281 -338 337 -515 433 -1227 290 -2163
-57 -377 -217 -1084 -349 -1545 -287 -1002 -627 -1682 -1122 -2245 -546 -621
-1295 -1058 -2106 -1229 -355 -75 -340 -74 -1452 -78 -981 -4 -1158 0 -1259
28 l-39 11 6 58 c4 32 448 1824 987 3982 738 2954 988 3938 1011 3985 16 34
42 71 57 82 38 27 121 49 222 60 47 5 528 8 1070 7 965 -2 988 -3 1125 -24z"/>
</g>
</svg>
