<?xml version="1.0" standalone="no"?>
<!DOCTYPE svg PUBLIC "-//W3C//DTD SVG 20010904//EN"
 "http://www.w3.org/TR/2001/REC-SVG-20010904/DTD/svg10.dtd">
<svg version="1.0" xmlns="http://www.w3.org/2000/svg"
 width="655.000000pt" height="624.000000pt" viewBox="0 0 655.000000 624.000000"
 preserveAspectRatio="xMidYMid meet">
<metadata>
Created by potrace 1.16, written by Peter Selinger 2001-2019
</metadata>
<g transform="translate(0.000000,624.000000) scale(0.100000,-0.100000)"
fill="#000000" stroke="none">
<path d="M3215 6229 c-32 -19 -66 -52 -80 -79 -8 -15 -82 -588 -175 -1340 -88
-723 -164 -1322 -168 -1331 -6 -13 -176 17 -1307 237 -715 139 -1318 253
-1341 253 -124 2 -190 -158 -103 -245 26 -25 319 -166 1244 -599 708 -331
1209 -570 1207 -577 -2 -6 -294 -536 -650 -1177 -618 -1114 -646 -1168 -647
-1218 0 -56 18 -89 68 -127 34 -25 114 -27 150 -3 15 9 437 458 939 996 502
539 915 979 918 979 3 0 416 -440 918 -979 502 -538 924 -987 939 -996 36 -24
116 -22 150 3 50 38 68 71 68 127 -1 50 -29 104 -647 1218 -356 641 -648 1171
-650 1177 -2 7 499 246 1207 577 925 433 1218 574 1244 599 87 87 21 247 -103
246 -23 -1 -626 -115 -1341 -254 -1129 -219 -1301 -250 -1307 -237 -4 9 -80
608 -168 1331 -106 861 -167 1326 -177 1348 -9 18 -29 42 -46 54 -34 25 -113
34 -142 17z"/>
</g>
</svg>
