<?xml version="1.0" standalone="no"?>
<!DOCTYPE svg PUBLIC "-//W3C//DTD SVG 20010904//EN"
 "http://www.w3.org/TR/2001/REC-SVG-20010904/DTD/svg10.dtd">
<svg version="1.0" xmlns="http://www.w3.org/2000/svg"
 width="758.000000pt" height="612.000000pt" viewBox="0 0 758.000000 612.000000"
 preserveAspectRatio="xMidYMid meet">
<metadata>
Created by potrace 1.16, written by Peter Selinger 2001-2019
</metadata>
<g transform="translate(0.000000,612.000000) scale(0.100000,-0.100000)"
fill="#000000" stroke="none">
<path d="M2040 6113 c-75 -8 -200 -37 -297 -69 -420 -137 -845 -486 -1253
-1029 -98 -131 -319 -462 -419 -629 -58 -96 -71 -126 -71 -160 0 -53 17 -85
59 -113 31 -21 45 -23 160 -23 106 0 131 3 157 19 18 11 62 67 106 132 354
539 883 906 1393 968 54 7 282 11 566 11 l477 0 -55 -187 c-359 -1237 -913
-2654 -1595 -4078 -183 -382 -191 -402 -196 -511 -3 -75 0 -104 17 -155 55
-165 201 -267 396 -277 169 -8 309 49 441 182 70 69 89 96 132 186 121 252
363 1088 772 2665 113 436 550 2159 550 2169 0 3 329 6 730 6 402 0 730 -4
730 -8 0 -5 -33 -148 -74 -318 -341 -1418 -476 -2300 -476 -3104 0 -473 44
-827 145 -1180 43 -151 124 -357 166 -422 87 -135 246 -204 411 -178 312 48
565 317 562 595 -1 87 -2 89 -112 358 -219 533 -345 1138 -382 1842 -34 644
30 1401 186 2199 19 99 37 189 40 199 5 16 56 17 896 17 982 0 949 -2 1073 63
121 64 237 211 276 352 21 76 17 189 -11 259 -26 69 -95 148 -155 178 -97 50
35 48 -2725 46 -1422 -1 -2601 -3 -2620 -5z"/>
</g>
</svg>
