<?xml version="1.0" standalone="no"?>
<!DOCTYPE svg PUBLIC "-//W3C//DTD SVG 20010904//EN"
 "http://www.w3.org/TR/2001/REC-SVG-20010904/DTD/svg10.dtd">
<svg version="1.0" xmlns="http://www.w3.org/2000/svg"
 width="389.000000pt" height="929.000000pt" viewBox="0 0 389.000000 929.000000"
 preserveAspectRatio="xMidYMid meet">
<metadata>
Created by potrace 1.16, written by Peter Selinger 2001-2019
</metadata>
<g transform="translate(0.000000,929.000000) scale(0.100000,-0.100000)"
fill="#000000" stroke="none">
<path d="M3020 9283 c-123 -21 -298 -95 -396 -168 -218 -164 -355 -401 -370
-645 -24 -356 259 -630 625 -607 123 8 193 27 316 87 278 134 463 374 514 664
43 239 -76 494 -279 600 -119 63 -283 90 -410 69z"/>
<path d="M1749 6250 c-216 -34 -417 -116 -614 -251 -471 -321 -874 -952 -1090
-1709 -53 -185 -52 -210 5 -265 l31 -30 184 -3 c154 -3 189 -1 215 13 38 20
65 63 81 129 44 191 167 530 265 731 229 471 528 777 844 861 68 18 244 25
292 12 38 -11 86 -54 108 -98 74 -146 48 -478 -65 -824 -14 -44 -292 -782
-617 -1640 -379 -1001 -601 -1602 -619 -1674 -78 -306 -54 -592 72 -852 63
-130 116 -206 216 -305 163 -161 376 -271 631 -322 64 -13 134 -18 267 -18
161 1 191 4 285 27 191 48 336 114 505 229 471 321 874 952 1090 1709 53 185
52 210 -5 265 l-31 30 -184 3 c-154 3 -189 1 -215 -13 -38 -20 -65 -63 -81
-129 -44 -191 -167 -530 -265 -731 -229 -471 -528 -777 -844 -861 -68 -18
-244 -25 -292 -12 -38 11 -86 54 -108 98 -74 146 -48 478 65 824 14 44 292
782 617 1640 379 1001 601 1602 619 1674 78 306 54 592 -72 852 -63 130 -116
206 -216 305 -159 158 -361 263 -608 317 -103 22 -374 33 -466 18z"/>
</g>
</svg>
