<?xml version="1.0" standalone="no"?>
<!DOCTYPE svg PUBLIC "-//W3C//DTD SVG 20010904//EN"
 "http://www.w3.org/TR/2001/REC-SVG-20010904/DTD/svg10.dtd">
<svg version="1.0" xmlns="http://www.w3.org/2000/svg"
 width="572.000000pt" height="903.000000pt" viewBox="0 0 572.000000 903.000000"
 preserveAspectRatio="xMidYMid meet">
<metadata>
Created by potrace 1.16, written by Peter Selinger 2001-2019
</metadata>
<g transform="translate(0.000000,903.000000) scale(0.100000,-0.100000)"
fill="#000000" stroke="none">
<path d="M532 9013 c-41 -20 -68 -57 -81 -114 -6 -24 -110 -584 -232 -1244
-140 -760 -219 -1214 -216 -1237 6 -48 38 -91 81 -112 45 -21 157 -21 202 0
62 29 70 53 128 346 85 428 140 630 216 795 35 75 41 82 72 87 185 32 1147 48
2690 44 l1297 -3 -506 -685 c-800 -1085 -849 -1152 -1008 -1390 -993 -1486
-1533 -3100 -1571 -4700 -7 -253 -6 -269 15 -350 30 -115 73 -192 152 -271
235 -236 643 -236 878 0 77 77 121 155 150 265 20 75 21 107 21 505 1 1418 78
2304 270 3088 145 590 381 1139 674 1568 45 66 496 680 1001 1365 505 685 925
1257 933 1273 10 20 13 59 10 145 -3 102 -6 121 -25 148 -49 69 84 64 -1720
64 -1891 0 -2350 10 -2733 56 -150 18 -225 36 -306 74 -83 40 -97 58 -105 137
-7 71 -26 104 -79 141 -27 18 -47 22 -104 22 -45 0 -83 -6 -104 -17z"/>
</g>
</svg>
