<?xml version="1.0" standalone="no"?>
<!DOCTYPE svg PUBLIC "-//W3C//DTD SVG 20010904//EN"
 "http://www.w3.org/TR/2001/REC-SVG-20010904/DTD/svg10.dtd">
<svg version="1.0" xmlns="http://www.w3.org/2000/svg"
 width="822.000000pt" height="1008.000000pt" viewBox="0 0 822.000000 1008.000000"
 preserveAspectRatio="xMidYMid meet">
<metadata>
Created by potrace 1.16, written by Peter Selinger 2001-2019
</metadata>
<g transform="translate(0.000000,1008.000000) scale(0.100000,-0.100000)"
fill="#000000" stroke="none">
<path d="M4920 10073 c-223 -17 -573 -94 -803 -177 -523 -190 -972 -479 -1377
-885 -618 -620 -980 -1397 -1007 -2161 -13 -380 56 -718 213 -1040 159 -327
377 -572 687 -774 115 -75 325 -175 462 -219 61 -20 513 -142 1005 -271 911
-239 992 -264 1130 -345 517 -308 724 -979 535 -1732 -212 -838 -898 -1591
-1691 -1854 -224 -74 -424 -101 -689 -92 -667 23 -1188 175 -1570 460 -155
115 -327 302 -425 462 -261 425 -326 1007 -188 1670 41 199 43 222 20 264 -32
58 -69 71 -207 71 -129 0 -166 -11 -199 -62 -18 -28 -816 -3215 -816 -3260 0
-45 34 -96 75 -114 49 -20 153 -18 192 4 18 9 210 222 428 472 218 250 399
456 403 457 4 1 21 -17 39 -40 147 -195 414 -414 676 -552 435 -230 1000 -355
1608 -355 622 0 1257 213 1829 613 917 642 1528 1638 1651 2692 17 145 14 485
-6 630 -110 829 -587 1449 -1310 1705 -49 17 -501 139 -1004 271 -503 133
-948 254 -988 270 -162 64 -284 141 -403 255 -344 329 -459 853 -309 1413 204
767 902 1462 1682 1675 211 58 314 71 557 70 625 -2 1081 -172 1414 -526 257
-273 410 -641 473 -1139 34 -270 20 -717 -33 -1077 -14 -97 -14 -106 3 -140
10 -20 33 -47 52 -59 31 -21 46 -23 155 -23 140 0 180 13 209 70 17 34 817
3223 817 3257 0 29 -37 82 -72 103 -41 25 -154 28 -198 5 -16 -8 -207 -220
-426 -470 -218 -251 -400 -455 -405 -453 -4 2 -32 38 -61 80 -342 496 -898
784 -1633 847 -111 10 -389 12 -495 4z"/>
</g>
</svg>
