<?xml version="1.0" standalone="no"?>
<!DOCTYPE svg PUBLIC "-//W3C//DTD SVG 20010904//EN"
 "http://www.w3.org/TR/2001/REC-SVG-20010904/DTD/svg10.dtd">
<svg version="1.0" xmlns="http://www.w3.org/2000/svg"
 width="340.000000pt" height="1319.000000pt" viewBox="0 0 340.000000 1319.000000"
 preserveAspectRatio="xMidYMid meet">
<metadata>
Created by potrace 1.16, written by Peter Selinger 2001-2019
</metadata>
<g transform="translate(0.000000,1319.000000) scale(0.100000,-0.100000)"
fill="#000000" stroke="none">
<path d="M161 13149 c-105 -44 -128 -60 -147 -106 -12 -27 -14 -917 -14 -5554
l0 -5521 21 -38 c25 -44 83 -80 130 -80 21 0 560 207 1394 534 748 294 1368
538 1378 541 16 7 17 -64 17 -1394 0 -1522 -3 -1444 55 -1489 50 -39 96 -45
167 -21 122 40 182 75 206 117 l22 40 0 4967 0 4967 -21 38 c-25 44 -83 80
-130 80 -21 0 -560 -207 -1394 -534 -748 -294 -1368 -538 -1377 -541 -17 -7
-18 90 -18 1955 l0 1962 -21 38 c-26 47 -84 80 -135 79 -22 0 -81 -18 -133
-40z m2779 -6621 l0 -2363 -1235 -485 c-680 -267 -1240 -486 -1245 -488 -7 -2
-10 842 -10 2360 l0 2363 1238 487 c680 267 1240 487 1245 487 4 1 7 -1062 7
-2361z"/>
</g>
</svg>
