<?xml version="1.0" standalone="no"?>
<!DOCTYPE svg PUBLIC "-//W3C//DTD SVG 20010904//EN"
 "http://www.w3.org/TR/2001/REC-SVG-20010904/DTD/svg10.dtd">
<svg version="1.0" xmlns="http://www.w3.org/2000/svg"
 width="554.000000pt" height="927.000000pt" viewBox="0 0 554.000000 927.000000"
 preserveAspectRatio="xMidYMid meet">
<metadata>
Created by potrace 1.16, written by Peter Selinger 2001-2019
</metadata>
<g transform="translate(0.000000,927.000000) scale(0.100000,-0.100000)"
fill="#000000" stroke="none">
<path d="M679 9247 c-19 -12 -42 -38 -52 -57 -16 -33 -17 -162 -15 -2372 l3
-2337 21 -27 c48 -65 61 -69 237 -72 231 -5 237 -2 326 146 92 154 166 247
306 387 191 192 360 306 590 398 344 137 771 184 1046 113 370 -94 687 -397
852 -816 145 -365 195 -828 184 -1685 -6 -433 -19 -619 -58 -848 -96 -564
-329 -955 -730 -1223 -431 -288 -997 -351 -1544 -174 -418 136 -796 430 -1023
795 -44 72 -102 178 -102 188 0 2 42 7 93 10 265 15 508 173 616 400 54 114
74 208 75 347 0 150 -17 226 -79 355 -91 190 -269 328 -493 382 -99 23 -275
21 -377 -6 -138 -36 -237 -93 -341 -196 -76 -75 -98 -104 -132 -175 -68 -142
-77 -190 -77 -395 1 -263 34 -461 122 -725 237 -715 826 -1294 1563 -1536 111
-37 294 -80 422 -100 141 -23 548 -26 708 -6 552 68 1082 280 1510 603 691
521 1116 1288 1191 2149 14 163 7 476 -16 645 -92 704 -394 1336 -859 1800
-399 398 -873 642 -1421 732 -85 14 -165 18 -350 18 -241 -1 -297 -6 -505 -47
-386 -75 -779 -271 -1078 -538 l-57 -51 -3 1177 c-1 648 0 1179 2 1181 2 2 43
-5 92 -16 292 -65 564 -94 889 -94 291 0 465 17 721 68 571 116 1073 347 1544
711 134 104 471 430 494 479 25 51 23 318 -2 364 -21 39 -73 71 -114 71 -14 0
-88 -25 -164 -56 -578 -235 -1142 -353 -1774 -370 -672 -19 -1355 105 -1993
362 -87 35 -171 64 -186 64 -15 0 -43 -10 -62 -23z"/>
</g>
</svg>
