<?xml version="1.0" standalone="no"?>
<!DOCTYPE svg PUBLIC "-//W3C//DTD SVG 20010904//EN"
 "http://www.w3.org/TR/2001/REC-SVG-20010904/DTD/svg10.dtd">
<svg version="1.0" xmlns="http://www.w3.org/2000/svg"
 width="925.000000pt" height="946.000000pt" viewBox="0 0 925.000000 946.000000"
 preserveAspectRatio="xMidYMid meet">
<metadata>
Created by potrace 1.16, written by Peter Selinger 2001-2019
</metadata>
<g transform="translate(0.000000,946.000000) scale(0.100000,-0.100000)"
fill="#000000" stroke="none">
<path d="M2825 9447 c-57 -26 -80 -66 -114 -201 -17 -69 -31 -140 -31 -157 0
-45 36 -103 80 -128 36 -20 51 -21 311 -21 591 -1 1054 -36 1177 -90 55 -25
81 -78 82 -168 0 -49 -156 -686 -776 -3167 l-776 -3105 -27 6 c-68 16 -272 88
-349 124 -281 132 -540 379 -673 641 -161 320 -240 741 -225 1199 12 386 63
723 185 1236 113 473 135 638 136 979 0 286 -9 357 -67 525 -95 272 -274 438
-531 491 -83 17 -141 19 -586 19 -484 0 -494 0 -531 -21 -46 -26 -72 -72 -95
-167 -16 -69 -16 -75 0 -117 20 -53 63 -92 108 -99 18 -2 69 -9 115 -15 99
-12 155 -35 212 -87 57 -51 96 -111 126 -191 50 -133 59 -200 59 -448 -1 -297
-18 -420 -125 -873 -217 -925 -182 -1717 104 -2326 323 -690 987 -1136 1911
-1286 77 -13 141 -24 142 -24 1 -1 -58 -241 -132 -534 -95 -381 -142 -551
-164 -597 -38 -76 -104 -152 -168 -193 -132 -84 -440 -119 -1158 -129 -396 -5
-433 -7 -468 -25 -53 -26 -68 -56 -106 -216 l-34 -139 24 -49 c13 -26 37 -57
52 -68 33 -24 45 -24 726 -6 1022 27 2416 22 3452 -11 345 -11 345 -11 388 10
23 12 50 35 59 50 10 16 33 92 51 169 l34 139 -24 49 c-46 93 -23 88 -499 96
-432 6 -668 19 -850 44 -244 33 -286 66 -283 219 1 67 24 170 140 630 l139
550 155 22 c324 47 588 108 871 203 1297 432 2247 1397 2768 2813 64 176 129
385 191 619 62 238 106 373 176 553 258 657 644 1044 1041 1045 55 0 115 31
140 72 28 47 56 171 48 213 -9 47 -59 102 -104 116 -25 7 -203 9 -552 7 l-515
-4 -98 -26 c-504 -138 -908 -653 -1186 -1510 -28 -87 -78 -262 -112 -390 -219
-836 -445 -1367 -810 -1903 -396 -582 -885 -991 -1469 -1229 -123 -49 -316
-113 -396 -130 l-32 -7 767 3068 c607 2426 774 3080 797 3123 16 30 55 82 88
117 99 107 186 136 494 168 195 20 576 35 900 35 288 0 308 3 353 58 27 31 89
250 89 313 0 45 -36 103 -80 128 -38 21 -41 21 -342 11 -1174 -39 -2545 -37
-3978 5 -155 4 -201 3 -225 -8z"/>
</g>
</svg>
