<?xml version="1.0" standalone="no"?>
<!DOCTYPE svg PUBLIC "-//W3C//DTD SVG 20010904//EN"
 "http://www.w3.org/TR/2001/REC-SVG-20010904/DTD/svg10.dtd">
<svg version="1.0" xmlns="http://www.w3.org/2000/svg"
 width="787.000000pt" height="626.000000pt" viewBox="0 0 787.000000 626.000000"
 preserveAspectRatio="xMidYMid meet">
<metadata>
Created by potrace 1.16, written by Peter Selinger 2001-2019
</metadata>
<g transform="translate(0.000000,626.000000) scale(0.100000,-0.100000)"
fill="#000000" stroke="none">
<path d="M3580 6254 c-1470 -132 -2878 -1291 -3391 -2792 -91 -266 -155 -561
-180 -825 -15 -164 -7 -545 16 -687 152 -971 777 -1666 1695 -1884 166 -40
301 -56 505 -63 824 -26 1704 249 2512 783 130 87 329 231 431 313 23 19 43
32 44 30 2 -2 20 -56 42 -119 210 -625 633 -979 1201 -1006 150 -8 263 5 393
42 368 106 680 360 842 684 39 77 90 224 90 257 0 31 -22 72 -55 103 -26 24
-30 25 -205 28 -237 4 -255 -3 -295 -128 -62 -193 -241 -373 -440 -442 -46
-15 -115 -31 -156 -34 -63 -5 -79 -2 -106 15 -106 67 -189 321 -232 711 -32
288 -57 923 -37 951 6 9 72 98 147 197 611 808 1092 1774 1373 2752 92 321 92
320 70 366 -10 21 -35 49 -54 62 -34 22 -40 23 -217 20 -248 -4 -235 8 -313
-286 -157 -591 -446 -1286 -768 -1847 -125 -219 -254 -426 -261 -420 -2 3 -8
170 -12 373 -8 365 -17 501 -45 682 -78 498 -277 967 -562 1328 -78 100 -240
263 -341 344 -305 247 -690 412 -1102 474 -100 15 -490 27 -589 18z m320 -515
c252 -31 449 -128 616 -301 283 -295 444 -751 518 -1468 23 -221 35 -533 51
-1375 9 -423 18 -799 21 -835 l6 -65 -139 -117 c-801 -680 -1629 -1031 -2503
-1065 -402 -15 -684 82 -921 317 -358 353 -438 895 -262 1769 44 224 168 721
238 961 209 717 452 1168 834 1550 157 157 284 258 451 358 362 218 748 314
1090 271z"/>
</g>
</svg>
