<?xml version="1.0" standalone="no"?>
<!DOCTYPE svg PUBLIC "-//W3C//DTD SVG 20010904//EN"
 "http://www.w3.org/TR/2001/REC-SVG-20010904/DTD/svg10.dtd">
<svg version="1.0" xmlns="http://www.w3.org/2000/svg"
 width="728.000000pt" height="875.000000pt" viewBox="0 0 728.000000 875.000000"
 preserveAspectRatio="xMidYMid meet">
<metadata>
Created by potrace 1.16, written by Peter Selinger 2001-2019
</metadata>
<g transform="translate(0.000000,875.000000) scale(0.100000,-0.100000)"
fill="#000000" stroke="none">
<path d="M2368 8727 c-169 -52 -310 -180 -368 -336 -12 -29 -464 -1827 -1006
-3995 -1071 -4280 -1011 -4023 -971 -4146 96 -293 513 -336 769 -80 118 118
99 56 482 1584 l341 1363 65 -49 c76 -57 284 -164 388 -202 122 -44 293 -86
434 -107 178 -26 462 -36 609 -19 519 57 1027 349 1440 828 49 56 91 97 93 90
2 -7 16 -53 31 -103 114 -382 426 -675 830 -780 428 -111 777 -22 1052 269
269 284 456 724 673 1582 l43 171 -19 38 c-31 63 -63 79 -158 83 -97 5 -146
-12 -174 -58 -11 -16 -38 -108 -62 -203 -148 -595 -283 -971 -435 -1217 -79
-128 -223 -273 -317 -318 -133 -65 -316 -67 -416 -5 -92 57 -150 162 -178 327
-22 125 -14 403 16 576 12 69 247 1025 522 2125 421 1684 500 2012 502 2075 3
178 -91 307 -262 360 -230 71 -519 -65 -628 -294 -30 -64 -122 -418 -529
-2045 l-492 -1968 -49 -79 c-134 -216 -300 -420 -496 -609 -254 -246 -513
-398 -800 -469 -485 -120 -914 6 -1134 333 -125 186 -196 522 -180 851 18 356
34 430 507 2322 452 1812 440 1754 404 1874 -21 72 -68 137 -128 178 -74 50
-129 67 -232 72 -74 3 -104 0 -167 -19z"/>
</g>
</svg>
