<?xml version="1.0" standalone="no"?>
<!DOCTYPE svg PUBLIC "-//W3C//DTD SVG 20010904//EN"
 "http://www.w3.org/TR/2001/REC-SVG-20010904/DTD/svg10.dtd">
<svg version="1.0" xmlns="http://www.w3.org/2000/svg"
 width="1230.000000pt" height="389.000000pt" viewBox="0 0 1230.000000 389.000000"
 preserveAspectRatio="xMidYMid meet">
<metadata>
Created by potrace 1.16, written by Peter Selinger 2001-2019
</metadata>
<g transform="translate(0.000000,389.000000) scale(0.100000,-0.100000)"
fill="#000000" stroke="none">
<path d="M3023 3870 c-41 -25 -55 -47 -93 -149 -143 -391 -386 -861 -645
-1251 -268 -405 -506 -692 -866 -1045 -387 -380 -745 -656 -1214 -936 -198
-119 -205 -127 -205 -273 0 -115 18 -160 80 -195 l38 -21 5970 0 5971 0 55 20
c101 38 176 149 176 260 0 103 -68 211 -160 254 l-45 21 -5393 5 -5392 5 127
106 c816 677 1483 1579 1901 2569 77 182 168 426 178 478 10 49 -20 117 -64
147 -36 24 -42 25 -212 25 -156 0 -178 -2 -207 -20z"/>
</g>
</svg>
