<?xml version="1.0" standalone="no"?>
<!DOCTYPE svg PUBLIC "-//W3C//DTD SVG 20010904//EN"
 "http://www.w3.org/TR/2001/REC-SVG-20010904/DTD/svg10.dtd">
<svg version="1.0" xmlns="http://www.w3.org/2000/svg"
 width="556.000000pt" height="175.000000pt" viewBox="0 0 556.000000 175.000000"
 preserveAspectRatio="xMidYMid meet">
<metadata>
Created by potrace 1.16, written by Peter Selinger 2001-2019
</metadata>
<g transform="translate(0.000000,175.000000) scale(0.100000,-0.100000)"
fill="#000000" stroke="none">
<path d="M2835 1744 c-856 -54 -1643 -316 -2214 -736 -120 -88 -360 -328 -429
-430 -105 -154 -192 -360 -192 -454 0 -36 6 -51 34 -82 l34 -37 201 0 200 0
30 29 c19 18 38 54 51 95 93 289 431 545 987 747 741 268 1762 321 2507 129
441 -113 800 -332 909 -555 32 -65 32 -65 32 -222 l0 -158 33 -32 32 -33 201
0 201 0 33 36 c47 51 60 120 60 309 0 131 -4 167 -23 234 -90 312 -321 574
-693 785 -324 185 -724 304 -1194 357 -134 15 -662 27 -800 18z"/>
</g>
</svg>
