<?xml version="1.0" standalone="no"?>
<!DOCTYPE svg PUBLIC "-//W3C//DTD SVG 20010904//EN"
 "http://www.w3.org/TR/2001/REC-SVG-20010904/DTD/svg10.dtd">
<svg version="1.0" xmlns="http://www.w3.org/2000/svg"
 width="995.000000pt" height="942.000000pt" viewBox="0 0 995.000000 942.000000"
 preserveAspectRatio="xMidYMid meet">
<metadata>
Created by potrace 1.16, written by Peter Selinger 2001-2019
</metadata>
<g transform="translate(0.000000,942.000000) scale(0.100000,-0.100000)"
fill="#000000" stroke="none">
<path d="M2358 9399 c-21 -10 -45 -31 -54 -44 -20 -30 -103 -356 -104 -404 0
-46 35 -105 79 -129 33 -18 61 -20 401 -25 509 -9 751 -33 807 -81 59 -51 120
209 -922 -3956 -526 -2104 -967 -3849 -980 -3877 -48 -107 -116 -168 -216
-197 -135 -39 -521 -66 -942 -66 -208 0 -231 -2 -267 -20 -22 -11 -47 -31 -56
-45 -20 -30 -103 -356 -104 -404 0 -47 36 -105 81 -130 38 -22 40 -22 316 -11
1012 38 2368 38 3644 -1 374 -11 376 -11 417 10 23 12 49 32 58 46 20 30 103
356 104 404 0 46 -35 105 -79 129 -34 18 -61 20 -491 25 -467 7 -662 16 -855
42 -145 20 -176 29 -209 64 -57 60 -78 -37 405 1896 l444 1775 670 0 c368 0
738 -5 820 -10 268 -18 437 -54 557 -117 181 -95 236 -225 225 -533 -6 -170
-31 -323 -97 -599 -46 -187 -49 -230 -19 -278 38 -62 77 -73 251 -73 172 0
205 9 244 67 33 49 919 3600 910 3647 -8 44 -50 95 -93 112 -22 10 -79 14
-184 14 -169 0 -208 -11 -243 -71 -10 -17 -38 -106 -62 -198 -139 -535 -255
-789 -453 -995 -138 -143 -271 -215 -506 -275 -230 -58 -461 -71 -1238 -71
-594 0 -628 1 -623 18 3 9 204 811 446 1782 329 1319 448 1781 471 1828 48 98
97 121 299 142 126 13 2047 13 2305 0 683 -35 1055 -148 1297 -397 211 -217
292 -505 292 -1038 -1 -270 -14 -453 -59 -838 -14 -114 -25 -228 -25 -254 0
-59 30 -107 82 -134 36 -18 55 -20 203 -17 148 3 166 5 192 24 63 48 52 -24
255 1617 l188 1531 -22 45 c-13 25 -36 54 -51 65 l-28 21 -3722 2 c-3690 2
-3722 2 -3759 -18z"/>
</g>
</svg>
