<?xml version="1.0" standalone="no"?>
<!DOCTYPE svg PUBLIC "-//W3C//DTD SVG 20010904//EN"
 "http://www.w3.org/TR/2001/REC-SVG-20010904/DTD/svg10.dtd">
<svg version="1.0" xmlns="http://www.w3.org/2000/svg"
 width="758.000000pt" height="877.000000pt" viewBox="0 0 758.000000 877.000000"
 preserveAspectRatio="xMidYMid meet">
<metadata>
Created by potrace 1.16, written by Peter Selinger 2001-2019
</metadata>
<g transform="translate(0.000000,877.000000) scale(0.100000,-0.100000)"
fill="#000000" stroke="none">
<path d="M5830 8760 c-850 -104 -1552 -733 -2154 -1930 -319 -633 -496 -1106
-927 -2475 -122 -385 -223 -702 -225 -704 -13 -13 -365 71 -543 129 -473 157
-819 357 -1096 635 -152 152 -242 274 -325 440 -97 195 -140 353 -161 586 -18
213 5 412 83 723 238 953 550 1616 1003 2134 49 57 98 116 107 130 36 55 14
136 -45 172 -25 16 -50 20 -113 20 -45 0 -95 -5 -113 -11 -56 -20 -288 -299
-448 -539 -216 -324 -419 -753 -568 -1201 -110 -332 -230 -785 -264 -999 -60
-372 -45 -735 44 -1076 185 -706 683 -1283 1420 -1644 230 -112 433 -189 662
-249 73 -19 108 -33 107 -42 -1 -8 -169 -547 -375 -1199 l-374 -1185 0 -110
c0 -106 1 -112 34 -173 105 -193 366 -249 607 -131 122 60 231 184 273 311 11
35 118 587 237 1228 118 641 217 1166 218 1167 1 2 58 -2 127 -7 830 -64 1655
153 2439 642 320 200 693 510 952 791 647 705 1034 1517 1139 2392 20 164 17
570 -4 720 -104 716 -456 1206 -992 1385 -167 56 -262 71 -465 75 -102 2 -219
0 -260 -5z m370 -829 c500 -102 843 -475 937 -1021 23 -133 23 -419 0 -565
-208 -1289 -1454 -2425 -2982 -2719 -264 -51 -394 -61 -740 -59 -176 0 -332 5
-346 10 l-26 8 123 660 c161 871 183 964 310 1336 448 1314 1306 2238 2189
2358 44 6 94 13 110 15 69 10 334 -4 425 -23z"/>
</g>
</svg>
