<?xml version="1.0" standalone="no"?>
<!DOCTYPE svg PUBLIC "-//W3C//DTD SVG 20010904//EN"
 "http://www.w3.org/TR/2001/REC-SVG-20010904/DTD/svg10.dtd">
<svg version="1.0" xmlns="http://www.w3.org/2000/svg"
 width="555.000000pt" height="658.000000pt" viewBox="0 0 555.000000 658.000000"
 preserveAspectRatio="xMidYMid meet">
<metadata>
Created by potrace 1.16, written by Peter Selinger 2001-2019
</metadata>
<g transform="translate(0.000000,658.000000) scale(0.100000,-0.100000)"
fill="#000000" stroke="none">
<path d="M3480 6570 c-759 -62 -1470 -318 -2019 -727 -148 -110 -402 -364
-493 -493 -82 -115 -186 -316 -221 -425 -58 -180 -61 -200 -62 -390 0 -167 2
-187 28 -279 56 -203 158 -377 316 -539 74 -77 92 -100 81 -107 -41 -23 -210
-155 -300 -235 -542 -478 -854 -1153 -801 -1733 54 -597 411 -1090 996 -1378
387 -190 821 -275 1325 -261 521 15 993 128 1425 341 476 235 834 574 1037
982 82 164 78 276 -11 365 -73 74 -159 88 -250 43 -55 -28 -58 -32 -146 -181
-234 -397 -686 -613 -1445 -689 -247 -26 -888 -26 -1109 -1 -482 55 -796 174
-1009 384 -339 334 -337 869 5 1381 165 246 407 478 677 646 49 31 97 56 106
56 9 0 54 -14 100 -31 317 -115 726 -163 1217 -141 264 12 389 29 518 69 245
77 383 211 431 418 20 88 12 155 -27 234 -65 130 -193 203 -435 247 -145 27
-824 28 -994 1 -229 -36 -500 -109 -690 -186 l-67 -28 -54 36 c-82 55 -204
176 -259 257 -110 165 -142 354 -94 546 31 122 87 218 194 332 314 333 903
562 1625 631 227 22 626 30 754 16 356 -39 650 -162 966 -405 107 -82 213
-109 329 -82 134 32 257 119 336 239 124 189 101 390 -58 523 -116 97 -331
233 -497 314 -236 116 -480 194 -740 236 -118 19 -525 27 -685 14z"/>
</g>
</svg>
