<?xml version="1.0" standalone="no"?>
<!DOCTYPE svg PUBLIC "-//W3C//DTD SVG 20010904//EN"
 "http://www.w3.org/TR/2001/REC-SVG-20010904/DTD/svg10.dtd">
<svg version="1.0" xmlns="http://www.w3.org/2000/svg"
 width="1177.000000pt" height="946.000000pt" viewBox="0 0 1177.000000 946.000000"
 preserveAspectRatio="xMidYMid meet">
<metadata>
Created by potrace 1.16, written by Peter Selinger 2001-2019
</metadata>
<g transform="translate(0.000000,946.000000) scale(0.100000,-0.100000)"
fill="#000000" stroke="none">
<path d="M2370 9442 c-19 -9 -44 -32 -56 -50 -31 -46 -87 -281 -78 -328 8 -46
55 -100 97 -113 18 -5 203 -12 412 -15 209 -3 436 -10 505 -16 130 -11 331
-37 338 -45 8 -8 -1888 -7577 -1917 -7652 -79 -203 -241 -389 -432 -495 -229
-129 -506 -192 -894 -205 -254 -8 -265 -15 -316 -217 -16 -61 -29 -129 -29
-151 0 -55 29 -106 78 -133 40 -23 41 -23 259 -12 807 38 1717 38 2604 -1
l267 -12 39 23 c22 12 48 36 58 52 23 40 74 241 75 293 0 55 -29 105 -76 132
-33 19 -54 23 -141 23 -56 0 -160 5 -230 11 -464 39 -706 179 -754 434 -29
154 -77 -51 910 3895 501 2005 915 3653 919 3663 5 12 538 -1244 1761 -4150
965 -2292 1771 -4204 1792 -4248 31 -67 44 -84 78 -103 39 -22 51 -23 176 -20
144 3 164 10 207 69 10 15 407 1584 1028 4069 607 2427 1023 4072 1040 4113
67 161 214 342 349 431 247 163 527 236 977 254 258 10 260 12 314 234 35 146
34 182 -12 234 -45 51 -70 55 -278 44 -102 -5 -442 -15 -757 -22 -590 -12
-1315 -4 -1889 23 -230 11 -244 11 -280 -7 -21 -11 -49 -34 -61 -52 -30 -46
-86 -281 -77 -328 8 -46 55 -100 97 -112 18 -6 109 -13 202 -16 403 -13 641
-82 786 -226 49 -48 71 -80 87 -122 30 -80 45 -181 37 -258 -5 -58 -1533
-6205 -1541 -6198 -1 2 -689 1634 -1529 3628 -839 1994 -1536 3635 -1548 3649
-49 53 9 51 -1324 51 -1159 0 -1240 -1 -1273 -18z"/>
</g>
</svg>
