<?xml version="1.0" standalone="no"?>
<!DOCTYPE svg PUBLIC "-//W3C//DTD SVG 20010904//EN"
 "http://www.w3.org/TR/2001/REC-SVG-20010904/DTD/svg10.dtd">
<svg version="1.0" xmlns="http://www.w3.org/2000/svg"
 width="596.000000pt" height="941.000000pt" viewBox="0 0 596.000000 941.000000"
 preserveAspectRatio="xMidYMid meet">
<metadata>
Created by potrace 1.16, written by Peter Selinger 2001-2019
</metadata>
<g transform="translate(0.000000,941.000000) scale(0.100000,-0.100000)"
fill="#000000" stroke="none">
<path d="M538 9389 c-21 -13 -46 -39 -57 -63 -15 -29 -86 -411 -251 -1349
-126 -719 -230 -1319 -230 -1333 0 -41 38 -99 80 -123 32 -18 54 -21 145 -21
91 0 113 3 146 22 57 32 74 78 114 308 80 451 169 786 248 925 17 30 30 41 57
46 164 34 1151 51 2745 47 l1301 -3 -613 -825 c-829 -1117 -928 -1255 -1160
-1630 -217 -349 -496 -875 -648 -1220 -501 -1138 -763 -2285 -769 -3355 -1
-267 0 -283 22 -355 70 -225 242 -384 473 -440 350 -84 693 103 800 435 22 69
22 82 30 745 9 828 23 1194 64 1670 110 1261 403 2216 909 2960 51 74 514 703
1029 1398 516 694 946 1277 957 1295 17 28 20 50 20 176 0 165 -12 202 -80
240 l-38 21 -1673 0 c-1994 0 -2435 10 -2834 60 -206 26 -317 65 -387 134 -21
22 -26 38 -30 91 -4 69 -21 101 -72 139 -23 18 -44 21 -144 24 -105 2 -121 0
-154 -19z"/>
</g>
</svg>
