<?xml version="1.0" standalone="no"?>
<!DOCTYPE svg PUBLIC "-//W3C//DTD SVG 20010904//EN"
 "http://www.w3.org/TR/2001/REC-SVG-20010904/DTD/svg10.dtd">
<svg version="1.0" xmlns="http://www.w3.org/2000/svg"
 width="948.000000pt" height="904.000000pt" viewBox="0 0 948.000000 904.000000"
 preserveAspectRatio="xMidYMid meet">
<metadata>
Created by potrace 1.16, written by Peter Selinger 2001-2019
</metadata>
<g transform="translate(0.000000,904.000000) scale(0.100000,-0.100000)"
fill="#000000" stroke="none">
<path d="M2270 9021 c-51 -27 -67 -55 -96 -167 -30 -116 -28 -156 13 -204 47
-56 51 -57 408 -63 418 -8 647 -32 750 -79 36 -16 50 -62 48 -158 -1 -77 -92
-448 -930 -3801 -838 -3349 -934 -3724 -971 -3800 -87 -179 -164 -226 -434
-264 -142 -20 -442 -35 -694 -35 -202 0 -212 -1 -244 -22 -51 -35 -67 -65 -96
-172 -29 -112 -27 -149 13 -196 51 -61 56 -62 335 -50 139 5 546 15 903 21
671 12 1721 3 2483 -22 325 -11 343 -10 378 7 54 27 72 58 101 170 28 110 26
157 -6 202 -41 58 -63 62 -348 62 -452 0 -862 26 -1030 65 -143 33 -169 65
-167 210 1 84 30 205 428 1795 235 938 431 1722 437 1743 l10 37 702 0 c703 0
943 -8 1112 -35 190 -31 335 -88 408 -161 157 -157 159 -480 6 -1087 -24 -97
-28 -124 -19 -155 10 -38 46 -80 87 -101 31 -16 158 -14 191 3 70 36 46 -47
489 1723 304 1218 413 1667 408 1690 -7 38 -46 88 -86 108 -16 9 -56 15 -96
15 -76 0 -125 -19 -155 -60 -10 -14 -40 -111 -68 -215 -201 -776 -430 -1078
-908 -1199 -252 -64 -451 -76 -1293 -76 l-667 0 443 1768 c243 972 452 1792
464 1822 36 95 82 162 128 188 103 56 85 56 1248 60 1326 4 1596 -6 1933 -74
580 -116 849 -369 942 -887 50 -278 48 -608 -7 -1132 -34 -325 -35 -380 -6
-421 35 -50 82 -67 172 -63 87 4 128 26 154 81 15 33 327 2702 327 2801 0 54
-31 105 -80 129 -33 17 -224 18 -3560 18 -3412 0 -3526 -1 -3560 -19z"/>
</g>
</svg>
