<?xml version="1.0" standalone="no"?>
<!DOCTYPE svg PUBLIC "-//W3C//DTD SVG 20010904//EN"
 "http://www.w3.org/TR/2001/REC-SVG-20010904/DTD/svg10.dtd">
<svg version="1.0" xmlns="http://www.w3.org/2000/svg"
 width="984.000000pt" height="1008.000000pt" viewBox="0 0 984.000000 1008.000000"
 preserveAspectRatio="xMidYMid meet">
<metadata>
Created by potrace 1.16, written by Peter Selinger 2001-2019
</metadata>
<g transform="translate(0.000000,1008.000000) scale(0.100000,-0.100000)"
fill="#000000" stroke="none">
<path d="M5935 10074 c-606 -46 -1117 -165 -1705 -397 -228 -90 -640 -291
-855 -417 -1478 -866 -2630 -2297 -3120 -3875 -288 -929 -329 -1850 -118
-2670 168 -655 482 -1215 933 -1665 174 -175 311 -286 525 -429 482 -321 1051
-522 1690 -597 214 -26 705 -26 900 -1 863 111 1690 485 2425 1098 162 134
518 490 650 649 475 572 799 1176 986 1837 40 141 41 157 14 201 -40 65 -65
72 -253 72 -182 0 -220 -8 -251 -55 -8 -12 -31 -78 -50 -146 -317 -1123 -1097
-2114 -2100 -2668 -326 -180 -692 -304 -1076 -364 -176 -27 -574 -29 -776 -4
-570 72 -1033 257 -1419 570 -258 209 -496 520 -629 823 -166 376 -236 758
-236 1279 0 509 74 1030 241 1700 338 1352 846 2341 1584 3081 385 386 792
679 1270 914 599 295 1199 442 1810 444 251 1 359 -10 537 -55 299 -75 596
-255 800 -484 405 -457 611 -1110 611 -1945 0 -270 -8 -391 -45 -677 -20 -160
-20 -162 -1 -195 10 -18 34 -43 53 -55 32 -22 42 -23 239 -23 232 0 259 7 293
71 18 36 968 3824 968 3861 0 33 -35 85 -72 108 -41 25 -183 28 -226 6 -15 -8
-274 -269 -576 -580 l-548 -566 -60 87 c-169 247 -406 479 -668 655 -127 84
-386 213 -530 263 -307 106 -542 145 -905 150 -143 1 -282 1 -310 -1z"/>
</g>
</svg>
