<?xml version="1.0" standalone="no"?>
<!DOCTYPE svg PUBLIC "-//W3C//DTD SVG 20010904//EN"
 "http://www.w3.org/TR/2001/REC-SVG-20010904/DTD/svg10.dtd">
<svg version="1.0" xmlns="http://www.w3.org/2000/svg"
 width="725.000000pt" height="1195.000000pt" viewBox="0 0 725.000000 1195.000000"
 preserveAspectRatio="xMidYMid meet">
<metadata>
Created by potrace 1.16, written by Peter Selinger 2001-2019
</metadata>
<g transform="translate(0.000000,1195.000000) scale(0.100000,-0.100000)"
fill="#000000" stroke="none">
<path d="M5065 11936 c-564 -73 -1071 -342 -1550 -821 -358 -357 -649 -769
-919 -1305 -220 -435 -380 -849 -505 -1304 -83 -301 -2091 -8346 -2091 -8376
0 -43 25 -87 63 -110 25 -16 50 -20 115 -20 93 0 141 16 166 55 9 13 216 826
461 1807 245 981 448 1790 451 1798 3 8 22 -30 44 -87 156 -414 453 -751 830
-942 209 -106 414 -165 665 -192 136 -14 452 -6 625 16 1236 160 2390 949
2920 1996 118 234 176 385 236 622 278 1098 -3 2153 -729 2737 l-106 85 52 32
c448 273 777 584 1043 988 206 313 339 657 390 1005 23 161 15 492 -15 633
-114 526 -423 928 -901 1171 -188 96 -406 165 -635 201 -136 22 -481 28 -610
11z m428 -341 c248 -33 465 -128 631 -276 64 -57 156 -172 200 -252 110 -197
159 -471 136 -767 -39 -501 -206 -1037 -447 -1435 -157 -258 -396 -512 -641
-679 l-72 -49 -147 46 c-311 98 -516 123 -952 114 -405 -8 -593 -37 -749 -116
-229 -116 -301 -374 -146 -525 71 -70 213 -123 389 -146 138 -18 637 -25 793
-11 222 20 487 75 691 145 l73 26 58 -51 c72 -62 173 -182 232 -274 288 -447
347 -1063 183 -1891 -128 -646 -308 -1109 -593 -1524 -371 -541 -955 -946
-1582 -1095 -450 -106 -870 -79 -1205 80 -257 123 -488 353 -629 628 -182 358
-238 821 -156 1302 20 117 853 3464 920 3695 317 1096 894 2062 1545 2585 200
161 479 317 693 388 260 87 528 115 775 82z m-911 -3650 c62 -8 135 -21 162
-28 l49 -13 -94 -21 c-192 -44 -233 -48 -549 -47 -232 0 -330 5 -408 17 -57 9
-108 20 -114 23 -30 19 150 60 317 73 192 14 514 12 637 -4z"/>
</g>
</svg>
