<?xml version="1.0" standalone="no"?>
<!DOCTYPE svg PUBLIC "-//W3C//DTD SVG 20010904//EN"
 "http://www.w3.org/TR/2001/REC-SVG-20010904/DTD/svg10.dtd">
<svg version="1.0" xmlns="http://www.w3.org/2000/svg"
 width="611.000000pt" height="626.000000pt" viewBox="0 0 611.000000 626.000000"
 preserveAspectRatio="xMidYMid meet">
<metadata>
Created by potrace 1.16, written by Peter Selinger 2001-2019
</metadata>
<g transform="translate(0.000000,626.000000) scale(0.100000,-0.100000)"
fill="#000000" stroke="none">
<path d="M3535 6250 c-611 -62 -1255 -318 -1802 -716 -354 -258 -711 -615
-964 -964 -432 -594 -698 -1271 -760 -1933 -15 -164 -7 -545 16 -687 138 -883
674 -1549 1465 -1818 239 -82 453 -120 725 -129 797 -27 1654 299 2385 905
149 124 430 405 556 557 502 606 811 1283 921 2020 25 173 26 651 0 815 -85
547 -315 1007 -673 1350 -322 308 -749 511 -1234 585 -125 19 -504 28 -635 15z
m495 -534 c211 -48 375 -139 525 -290 215 -216 317 -469 345 -856 24 -335 -34
-735 -206 -1420 -125 -499 -217 -793 -336 -1070 -361 -841 -990 -1403 -1733
-1547 -65 -12 -139 -17 -265 -17 -153 0 -189 3 -285 26 -217 51 -379 140 -530
292 -215 216 -317 469 -345 856 -24 335 34 735 206 1420 125 499 217 793 336
1070 383 892 1069 1470 1858 1564 93 11 327 -4 430 -28z"/>
</g>
</svg>
