<?xml version="1.0" standalone="no"?>
<!DOCTYPE svg PUBLIC "-//W3C//DTD SVG 20010904//EN"
 "http://www.w3.org/TR/2001/REC-SVG-20010904/DTD/svg10.dtd">
<svg version="1.0" xmlns="http://www.w3.org/2000/svg"
 width="944.000000pt" height="968.000000pt" viewBox="0 0 944.000000 968.000000"
 preserveAspectRatio="xMidYMid meet">
<metadata>
Created by potrace 1.16, written by Peter Selinger 2001-2019
</metadata>
<g transform="translate(0.000000,968.000000) scale(0.100000,-0.100000)"
fill="#000000" stroke="none">
<path d="M5630 9669 c-681 -54 -1353 -248 -2020 -580 -646 -323 -1213 -733
-1735 -1254 -522 -522 -931 -1089 -1259 -1745 -875 -1753 -810 -3585 172
-4820 154 -193 394 -423 611 -583 477 -354 1085 -585 1741 -662 296 -35 695
-30 975 11 620 90 1241 335 1810 712 953 632 1674 1601 1971 2649 39 141 40
147 16 192 -28 53 -72 71 -170 71 -138 0 -157 -18 -206 -190 -86 -307 -214
-612 -374 -895 -87 -153 -274 -427 -395 -578 -144 -179 -413 -457 -580 -600
-298 -254 -581 -439 -929 -606 -350 -169 -669 -264 -1058 -318 -156 -21 -545
-24 -705 -5 -625 76 -1120 305 -1516 701 -278 279 -453 567 -577 951 -221 685
-195 1590 78 2680 288 1154 708 2035 1320 2770 134 160 449 476 609 609 703
585 1497 938 2326 1033 168 19 535 16 675 -5 517 -80 920 -319 1224 -727 247
-331 405 -744 476 -1250 48 -337 48 -705 -1 -1098 -21 -163 -21 -175 -6 -208
30 -62 64 -74 212 -74 111 0 135 3 162 20 17 10 37 28 43 40 18 33 910 3604
910 3641 0 46 -19 79 -59 106 -45 30 -141 32 -187 4 -17 -10 -248 -259 -514
-552 -266 -294 -497 -549 -514 -567 l-32 -33 -66 98 c-326 479 -777 809 -1324
968 -102 30 -292 69 -409 85 -108 15 -552 21 -695 9z"/>
</g>
</svg>
