<?xml version="1.0" standalone="no"?>
<!DOCTYPE svg PUBLIC "-//W3C//DTD SVG 20010904//EN"
 "http://www.w3.org/TR/2001/REC-SVG-20010904/DTD/svg10.dtd">
<svg version="1.0" xmlns="http://www.w3.org/2000/svg"
 width="383.000000pt" height="626.000000pt" viewBox="0 0 383.000000 626.000000"
 preserveAspectRatio="xMidYMid meet">
<metadata>
Created by potrace 1.16, written by Peter Selinger 2001-2019
</metadata>
<g transform="translate(0.000000,626.000000) scale(0.100000,-0.100000)"
fill="#000000" stroke="none">
<path d="M1815 6253 c-47 -10 -165 -54 -211 -80 -27 -15 -83 -61 -125 -102
-119 -119 -129 -144 -273 -716 -378 -1494 -688 -2535 -1043 -3500 -141 -381
-163 -477 -163 -708 0 -574 350 -1002 920 -1124 129 -28 450 -25 623 6 496 87
968 315 1372 661 414 356 734 844 875 1335 37 125 33 159 -20 210 -31 30 -32
30 -168 33 -199 5 -195 9 -277 -248 -48 -152 -164 -388 -263 -535 -418 -625
-1089 -1033 -1757 -1071 -176 -10 -254 15 -309 101 -77 117 -85 345 -24 640
30 149 67 266 184 583 372 1011 702 2120 1089 3662 92 367 97 389 93 475 -2
76 -8 100 -35 157 -52 109 -140 179 -270 213 -53 14 -171 18 -218 8z"/>
</g>
</svg>
