<?xml version="1.0" standalone="no"?>
<!DOCTYPE svg PUBLIC "-//W3C//DTD SVG 20010904//EN"
 "http://www.w3.org/TR/2001/REC-SVG-20010904/DTD/svg10.dtd">
<svg version="1.0" xmlns="http://www.w3.org/2000/svg"
 width="735.000000pt" height="626.000000pt" viewBox="0 0 735.000000 626.000000"
 preserveAspectRatio="xMidYMid meet">
<metadata>
Created by potrace 1.16, written by Peter Selinger 2001-2019
</metadata>
<g transform="translate(0.000000,626.000000) scale(0.100000,-0.100000)"
fill="#000000" stroke="none">
<path d="M1730 6246 c-315 -56 -575 -196 -838 -451 -378 -366 -668 -882 -848
-1510 -52 -180 -51 -205 6 -260 l31 -30 184 -3 c154 -3 189 -1 215 13 38 20
65 63 81 129 24 103 102 345 156 481 219 556 535 951 858 1076 150 58 337 74
413 35 46 -24 90 -81 109 -144 28 -91 24 -312 -10 -472 -41 -196 -66 -272
-267 -810 -439 -1176 -593 -1679 -664 -2165 -105 -711 39 -1294 408 -1660 195
-194 430 -321 740 -400 182 -46 312 -65 517 -72 351 -12 639 50 940 203 219
112 409 254 615 460 l131 132 34 -72 c171 -358 501 -603 942 -698 85 -18 134
-22 292 -22 178 0 195 2 280 27 188 57 327 140 474 281 317 307 555 825 781
1703 36 139 33 167 -21 219 l-30 29 -184 3 c-257 4 -254 6 -311 -210 -129
-491 -186 -680 -266 -883 -121 -307 -286 -538 -440 -616 -99 -50 -253 -62
-340 -26 -195 82 -262 398 -182 872 8 50 244 1008 524 2130 280 1122 512 2065
515 2095 8 69 -14 179 -50 250 -76 150 -252 239 -450 227 -268 -15 -498 -182
-601 -434 -24 -62 -1034 -4088 -1034 -4126 0 -46 -180 -303 -336 -481 -198
-225 -462 -408 -707 -490 -135 -44 -238 -60 -402 -60 -169 0 -233 13 -350 69
-400 193 -526 741 -365 1585 96 504 247 980 655 2070 203 542 224 624 225 856
1 563 -353 998 -920 1130 -131 31 -391 41 -510 20z"/>
</g>
</svg>
