<?xml version="1.0" standalone="no"?>
<!DOCTYPE svg PUBLIC "-//W3C//DTD SVG 20010904//EN"
 "http://www.w3.org/TR/2001/REC-SVG-20010904/DTD/svg10.dtd">
<svg version="1.0" xmlns="http://www.w3.org/2000/svg"
 width="569.000000pt" height="1201.000000pt" viewBox="0 0 569.000000 1201.000000"
 preserveAspectRatio="xMidYMid meet">
<metadata>
Created by potrace 1.16, written by Peter Selinger 2001-2019
</metadata>
<g transform="translate(0.000000,1201.000000) scale(0.100000,-0.100000)"
fill="#000000" stroke="none">
<path d="M3575 12001 c-63 -16 -117 -56 -143 -106 -17 -34 -60 -244 -73 -354
-15 -137 -6 -459 16 -561 9 -41 34 -128 56 -194 22 -65 39 -119 37 -121 -2 -1
-52 -31 -113 -65 -841 -481 -1751 -1429 -2388 -2491 -513 -855 -809 -1681
-934 -2607 -25 -183 -27 -224 -27 -567 -1 -335 1 -383 22 -510 131 -828 541
-1404 1252 -1760 208 -104 254 -121 1090 -402 781 -263 897 -308 1035 -404
319 -220 440 -596 312 -970 -51 -149 -107 -239 -217 -350 -79 -80 -109 -103
-180 -138 -47 -23 -112 -46 -145 -52 -121 -23 -377 8 -550 65 -169 56 -396
184 -525 296 -97 83 -127 100 -183 100 -102 0 -181 -77 -181 -176 0 -66 14
-87 127 -181 471 -393 1091 -549 1566 -393 492 160 903 635 1041 1201 168 689
-135 1297 -789 1585 -53 23 -447 160 -876 304 -429 144 -829 282 -890 307
-434 175 -766 470 -947 843 -129 265 -186 529 -195 912 -10 402 39 789 163
1283 270 1074 943 2248 1779 3104 311 319 559 524 866 715 l102 65 51 -45 c63
-56 225 -137 331 -165 157 -43 798 -36 1074 12 286 49 442 134 509 277 35 75
37 177 5 237 -98 186 -382 254 -1058 255 -127 0 -269 -5 -315 -10 -101 -12
-309 -62 -399 -96 -35 -13 -67 -24 -71 -24 -13 0 -59 155 -75 252 -28 176 -16
458 30 653 20 88 19 148 -4 193 -30 60 -119 99 -186 83z m1490 -1410 c132 -16
201 -32 184 -41 -24 -14 -159 -38 -279 -51 -64 -7 -258 -13 -435 -13 -306 -1
-323 0 -392 22 -40 12 -74 26 -77 31 -6 10 89 37 200 56 93 17 649 13 799 -4z"/>
</g>
</svg>
