<?xml version="1.0" standalone="no"?>
<!DOCTYPE svg PUBLIC "-//W3C//DTD SVG 20010904//EN"
 "http://www.w3.org/TR/2001/REC-SVG-20010904/DTD/svg10.dtd">
<svg version="1.0" xmlns="http://www.w3.org/2000/svg"
 width="681.000000pt" height="613.000000pt" viewBox="0 0 681.000000 613.000000"
 preserveAspectRatio="xMidYMid meet">
<metadata>
Created by potrace 1.16, written by Peter Selinger 2001-2019
</metadata>
<g transform="translate(0.000000,613.000000) scale(0.100000,-0.100000)"
fill="#000000" stroke="none">
<path d="M2010 6119 c-161 -21 -369 -90 -530 -177 -416 -223 -797 -612 -1205
-1227 -210 -317 -275 -430 -275 -479 0 -53 17 -85 59 -113 31 -21 45 -23 160
-23 106 0 131 3 157 19 18 11 62 67 106 132 357 544 889 911 1404 969 66 7
315 10 745 8 l647 -3 -721 -2355 -720 -2355 -1 -110 c-1 -101 1 -115 28 -172
31 -69 107 -148 172 -181 203 -103 481 -48 659 132 69 69 127 162 154 247 7
21 220 1107 475 2415 l463 2379 1289 5 c1269 5 1290 5 1345 26 141 51 250 148
317 283 129 257 35 511 -213 577 -41 11 -444 14 -2250 13 -1210 -1 -2229 -5
-2265 -10z"/>
</g>
</svg>
