<?xml version="1.0" standalone="no"?>
<!DOCTYPE svg PUBLIC "-//W3C//DTD SVG 20010904//EN"
 "http://www.w3.org/TR/2001/REC-SVG-20010904/DTD/svg10.dtd">
<svg version="1.0" xmlns="http://www.w3.org/2000/svg"
 width="1180.000000pt" height="374.000000pt" viewBox="0 0 1180.000000 374.000000"
 preserveAspectRatio="xMidYMid meet">
<metadata>
Created by potrace 1.16, written by Peter Selinger 2001-2019
</metadata>
<g transform="translate(0.000000,374.000000) scale(0.100000,-0.100000)"
fill="#000000" stroke="none">
<path d="M8520 3729 c-65 -26 -108 -100 -95 -165 3 -20 33 -108 67 -197 396
-1057 1073 -2013 1929 -2725 l116 -97 -5171 -5 -5171 -5 -47 -23 c-121 -60
-177 -204 -131 -337 23 -69 95 -139 164 -159 48 -15 596 -16 5772 -16 5256 0
5722 1 5753 16 63 30 79 65 82 184 4 151 5 151 -209 280 -345 209 -591 386
-879 635 -746 643 -1350 1499 -1705 2415 -59 151 -68 166 -116 191 -33 16 -59
19 -186 18 -81 0 -159 -5 -173 -10z"/>
</g>
</svg>
