<?xml version="1.0" standalone="no"?>
<!DOCTYPE svg PUBLIC "-//W3C//DTD SVG 20010904//EN"
 "http://www.w3.org/TR/2001/REC-SVG-20010904/DTD/svg10.dtd">
<svg version="1.0" xmlns="http://www.w3.org/2000/svg"
 width="1187.000000pt" height="946.000000pt" viewBox="0 0 1187.000000 946.000000"
 preserveAspectRatio="xMidYMid meet">
<metadata>
Created by potrace 1.16, written by Peter Selinger 2001-2019
</metadata>
<g transform="translate(0.000000,946.000000) scale(0.100000,-0.100000)"
fill="#000000" stroke="none">
<path d="M2370 9443 c-19 -10 -44 -32 -56 -50 -24 -36 -104 -343 -104 -400 0
-52 30 -104 74 -129 35 -20 56 -21 404 -27 512 -9 753 -33 809 -81 59 -51 120
211 -927 -3976 -528 -2115 -972 -3869 -985 -3897 -48 -107 -116 -168 -216
-197 -134 -39 -526 -66 -944 -66 -256 0 -280 -5 -321 -67 -24 -36 -104 -343
-104 -400 0 -54 30 -104 78 -131 l41 -23 253 10 c139 6 576 16 970 23 740 12
1711 3 2425 -23 l301 -11 40 22 c22 12 49 39 60 59 11 20 38 113 61 208 46
190 47 223 3 275 -46 54 -69 58 -324 58 -399 0 -791 28 -894 63 -22 8 -44 24
-51 38 -32 62 -27 85 455 2014 l468 1870 2011 3 2011 2 -463 -1847 c-281
-1126 -471 -1866 -485 -1893 -52 -101 -115 -157 -211 -184 -134 -39 -526 -66
-944 -66 -256 0 -280 -5 -321 -67 -24 -36 -104 -343 -104 -400 0 -54 30 -104
78 -131 l41 -23 253 10 c139 6 576 16 970 23 740 12 1711 3 2425 -23 l301 -11
40 22 c22 12 49 39 60 59 11 20 38 113 61 208 46 190 47 223 3 275 -46 54 -69
58 -324 58 -399 0 -791 28 -894 63 -49 17 -64 45 -64 120 0 77 1907 7713 1946
7789 35 70 106 142 162 166 111 48 363 71 857 79 345 5 372 7 406 25 52 29 71
71 118 265 46 190 47 223 3 275 -49 58 -62 59 -369 48 -1034 -38 -2244 -38
-3335 1 -312 11 -328 11 -365 -7 -21 -11 -47 -33 -59 -51 -24 -36 -104 -343
-104 -400 0 -52 30 -104 74 -129 35 -20 56 -21 404 -27 513 -9 753 -33 810
-82 58 -50 72 19 -391 -1830 l-423 -1690 -2011 -3 -2011 -2 414 1656 c277
1107 423 1672 440 1706 35 70 106 142 162 166 111 48 363 71 857 79 345 5 372
7 406 25 52 29 71 71 118 265 46 190 47 223 3 275 -48 57 -64 59 -355 48
-1035 -39 -2247 -37 -3502 5 -162 6 -183 5 -215 -12z"/>
</g>
</svg>
