<?xml version="1.0" standalone="no"?>
<!DOCTYPE svg PUBLIC "-//W3C//DTD SVG 20010904//EN"
 "http://www.w3.org/TR/2001/REC-SVG-20010904/DTD/svg10.dtd">
<svg version="1.0" xmlns="http://www.w3.org/2000/svg"
 width="809.000000pt" height="1195.000000pt" viewBox="0 0 809.000000 1195.000000"
 preserveAspectRatio="xMidYMid meet">
<metadata>
Created by potrace 1.16, written by Peter Selinger 2001-2019
</metadata>
<g transform="translate(0.000000,1195.000000) scale(0.100000,-0.100000)"
fill="#000000" stroke="none">
<path d="M5813 11935 c-17 -7 -38 -24 -47 -37 -8 -13 -513 -2014 -1121 -4448
-608 -2434 -1110 -4442 -1116 -4463 l-10 -38 -47 6 c-128 18 -355 69 -465 106
-547 182 -864 528 -951 1038 -87 508 26 986 594 2506 183 491 202 552 225 700
58 385 -59 757 -314 998 -196 185 -433 281 -726 294 -216 10 -385 -26 -591
-127 -361 -176 -682 -539 -934 -1055 -115 -236 -224 -536 -291 -796 -22 -85
-22 -86 -3 -124 31 -63 63 -79 158 -83 143 -6 177 21 216 177 58 234 184 568
295 788 190 372 423 645 666 777 203 111 461 137 573 59 97 -68 140 -243 118
-471 -26 -268 -65 -399 -297 -1022 -300 -805 -445 -1235 -540 -1605 -56 -214
-73 -315 -85 -488 -17 -255 13 -497 90 -728 80 -242 204 -443 377 -610 380
-370 936 -592 1691 -675 81 -8 148 -17 150 -18 1 -2 -135 -553 -303 -1225
-168 -671 -305 -1232 -305 -1246 0 -39 27 -83 63 -105 25 -16 50 -20 114 -20
45 0 93 4 108 10 66 25 52 -21 386 1314 l313 1253 236 6 c326 8 522 42 825
142 588 193 1112 530 1631 1049 421 421 730 850 979 1361 158 325 236 546 346
987 171 685 242 1085 255 1442 12 298 -24 518 -117 705 -137 278 -385 397
-649 310 -330 -107 -570 -468 -496 -744 26 -100 64 -155 178 -265 205 -196
324 -376 404 -615 97 -290 100 -632 9 -980 -158 -604 -490 -1210 -965 -1758
-120 -139 -411 -423 -548 -535 -432 -352 -889 -591 -1332 -697 -167 -40 -292
-56 -489 -62 -177 -6 -183 -5 -178 13 28 89 2217 8870 2217 8889 0 39 -27 83
-63 105 -39 24 -183 27 -234 5z"/>
</g>
</svg>
