<?xml version="1.0" standalone="no"?>
<!DOCTYPE svg PUBLIC "-//W3C//DTD SVG 20010904//EN"
 "http://www.w3.org/TR/2001/REC-SVG-20010904/DTD/svg10.dtd">
<svg version="1.0" xmlns="http://www.w3.org/2000/svg"
 width="696.000000pt" height="627.000000pt" viewBox="0 0 696.000000 627.000000"
 preserveAspectRatio="xMidYMid meet">
<metadata>
Created by potrace 1.16, written by Peter Selinger 2001-2019
</metadata>
<g transform="translate(0.000000,627.000000) scale(0.100000,-0.100000)"
fill="#000000" stroke="none">
<path d="M6125 6255 c-250 -55 -482 -244 -600 -490 -73 -153 -92 -283 -60
-410 32 -123 57 -159 240 -340 220 -218 311 -353 385 -575 62 -184 86 -450 60
-656 -26 -210 -170 -698 -303 -1024 -467 -1150 -1148 -1949 -1856 -2180 -245
-80 -533 -90 -829 -29 -444 91 -733 342 -848 739 -45 153 -58 260 -58 470 0
535 141 1049 691 2510 198 529 221 623 210 885 -20 481 -305 864 -763 1028
-149 53 -264 71 -454 72 -187 0 -262 -11 -417 -60 -112 -36 -303 -134 -413
-212 -127 -90 -373 -336 -483 -485 -251 -336 -451 -752 -582 -1208 -53 -185
-52 -210 5 -265 l31 -30 184 -3 c154 -3 189 -1 215 13 38 20 65 63 81 129 24
103 102 345 156 481 228 578 549 971 889 1089 136 48 313 58 383 22 45 -24 89
-82 108 -144 27 -86 24 -302 -6 -452 -42 -217 -54 -254 -289 -880 -510 -1362
-652 -1883 -652 -2391 0 -401 97 -749 288 -1039 67 -101 237 -279 341 -358
344 -259 811 -411 1391 -452 440 -31 714 4 1042 131 870 339 1713 1346 2211
2645 122 318 176 500 301 1009 266 1091 296 1663 105 2065 -145 304 -418 458
-704 395z"/>
</g>
</svg>
