<?xml version="1.0" standalone="no"?>
<!DOCTYPE svg PUBLIC "-//W3C//DTD SVG 20010904//EN"
 "http://www.w3.org/TR/2001/REC-SVG-20010904/DTD/svg10.dtd">
<svg version="1.0" xmlns="http://www.w3.org/2000/svg"
 width="927.000000pt" height="946.000000pt" viewBox="0 0 927.000000 946.000000"
 preserveAspectRatio="xMidYMid meet">
<metadata>
Created by potrace 1.16, written by Peter Selinger 2001-2019
</metadata>
<g transform="translate(0.000000,946.000000) scale(0.100000,-0.100000)"
fill="#000000" stroke="none">
<path d="M2805 9447 c-63 -29 -79 -62 -131 -270 l-48 -194 25 -48 c47 -94 19
-89 522 -96 574 -9 880 -29 1029 -70 86 -23 117 -90 92 -203 -23 -109 -1481
-5936 -1487 -5942 -11 -11 -264 81 -370 134 -328 167 -542 399 -679 735 -119
292 -166 595 -155 996 9 320 53 644 137 1003 141 598 173 802 173 1118 0 271
-32 431 -121 605 -62 121 -173 234 -282 287 -151 73 -131 71 -767 75 -555 4
-573 3 -611 -16 -21 -11 -47 -32 -57 -48 -23 -35 -74 -235 -75 -292 0 -93 62
-144 192 -154 100 -9 176 -38 236 -92 134 -121 198 -390 172 -724 -13 -165
-47 -381 -84 -527 -56 -226 -104 -483 -133 -724 -21 -181 -24 -654 -4 -805 91
-707 364 -1209 861 -1583 327 -247 775 -422 1304 -511 65 -11 121 -23 124 -25
8 -9 -278 -1138 -300 -1184 -30 -62 -112 -140 -182 -173 -135 -63 -587 -98
-1264 -99 -320 0 -337 -3 -384 -58 -19 -23 -37 -75 -74 -225 l-48 -194 25 -48
c13 -27 37 -58 52 -69 33 -24 44 -24 742 -6 1045 27 2455 22 3526 -11 353 -11
356 -11 397 10 23 12 49 32 58 46 20 30 103 356 104 404 0 46 -35 105 -79 129
-34 18 -61 20 -491 25 -467 7 -662 16 -855 42 -145 20 -176 29 -209 64 -54 57
-53 65 114 731 83 332 153 606 155 608 1 2 54 10 116 18 712 91 1400 341 1949
707 466 311 843 690 1165 1172 143 215 213 338 336 590 161 331 285 669 388
1060 142 541 331 925 577 1178 173 178 322 255 531 275 146 15 164 35 214 237
l33 132 -25 49 c-47 95 -5 89 -622 92 -578 3 -626 1 -772 -45 -175 -55 -329
-156 -486 -320 -295 -310 -520 -786 -704 -1493 -197 -756 -412 -1266 -739
-1750 -441 -654 -1007 -1087 -1691 -1295 -65 -19 -120 -33 -123 -31 -8 8 1459
5866 1480 5913 43 93 144 178 248 207 156 44 457 65 1050 73 418 5 458 7 492
24 21 11 45 30 54 44 20 30 103 356 104 404 0 47 -36 105 -81 130 -38 22 -40
22 -346 12 -1179 -39 -2631 -38 -4073 4 -155 4 -201 3 -225 -8z"/>
</g>
</svg>
