<?xml version="1.0" standalone="no"?>
<!DOCTYPE svg PUBLIC "-//W3C//DTD SVG 20010904//EN"
 "http://www.w3.org/TR/2001/REC-SVG-20010904/DTD/svg10.dtd">
<svg version="1.0" xmlns="http://www.w3.org/2000/svg"
 width="585.000000pt" height="1259.000000pt" viewBox="0 0 585.000000 1259.000000"
 preserveAspectRatio="xMidYMid meet">
<metadata>
Created by potrace 1.16, written by Peter Selinger 2001-2019
</metadata>
<g transform="translate(0.000000,1259.000000) scale(0.100000,-0.100000)"
fill="#000000" stroke="none">
<path d="M3696 12566 c-66 -28 -126 -80 -161 -141 -25 -44 -66 -205 -89 -355
-40 -251 -44 -534 -11 -735 19 -118 20 -112 -17 -120 -18 -4 -91 -29 -163 -55
-753 -275 -1376 -745 -1758 -1325 -200 -305 -343 -673 -393 -1015 -23 -160
-15 -483 15 -622 71 -326 218 -601 451 -841 65 -67 156 -151 203 -186 l85 -65
-131 -89 c-816 -554 -1430 -1406 -1661 -2303 -51 -199 -66 -313 -66 -501 0
-185 10 -272 50 -429 79 -313 230 -573 480 -825 202 -205 435 -366 699 -485
64 -28 653 -259 1310 -513 657 -254 1219 -475 1250 -491 166 -83 261 -230 261
-401 0 -96 -16 -161 -62 -259 -51 -106 -160 -220 -253 -266 -59 -29 -62 -29
-220 -28 -401 4 -796 113 -1151 319 -138 81 -194 95 -274 72 -146 -43 -242
-166 -227 -295 8 -73 45 -114 167 -186 488 -290 1042 -442 1540 -423 376 15
708 175 995 479 203 216 359 515 422 808 22 106 25 395 5 480 -84 344 -265
576 -572 730 -47 24 -654 263 -1350 532 -696 269 -1319 516 -1385 548 -313
154 -543 361 -670 604 -158 300 -143 622 50 1097 167 409 453 816 790 1121
195 178 548 427 585 413 123 -48 397 -112 600 -140 159 -23 663 -31 912 -16
517 32 795 144 903 365 96 195 53 366 -119 478 -172 111 -503 156 -1080 145
-361 -6 -578 -37 -867 -122 l-84 -25 -23 28 c-45 51 -133 192 -163 259 -138
304 -170 701 -89 1103 143 707 613 1377 1223 1745 l71 43 66 -61 c83 -77 214
-147 341 -183 87 -25 112 -27 334 -31 844 -17 1256 116 1356 438 37 119 19
241 -50 328 -69 87 -235 163 -429 195 -299 50 -1105 45 -1338 -9 -20 -4 -22 1
-33 83 -24 193 -7 461 46 711 46 217 42 287 -19 357 -71 81 -195 105 -302 60z"/>
</g>
</svg>
