<?xml version="1.0" standalone="no"?>
<!DOCTYPE svg PUBLIC "-//W3C//DTD SVG 20010904//EN"
 "http://www.w3.org/TR/2001/REC-SVG-20010904/DTD/svg10.dtd">
<svg version="1.0" xmlns="http://www.w3.org/2000/svg"
 width="682.000000pt" height="650.000000pt" viewBox="0 0 682.000000 650.000000"
 preserveAspectRatio="xMidYMid meet">
<metadata>
Created by potrace 1.16, written by Peter Selinger 2001-2019
</metadata>
<g transform="translate(0.000000,650.000000) scale(0.100000,-0.100000)"
fill="#000000" stroke="none">
<path d="M3350 6489 c-37 -15 -78 -58 -90 -93 -5 -17 -98 -634 -205 -1371
-108 -737 -198 -1341 -199 -1343 -2 -1 -612 101 -1355 228 -1150 196 -1358
229 -1390 220 -37 -10 -79 -46 -100 -87 -24 -47 -6 -139 35 -174 11 -9 568
-288 1239 -619 671 -331 1223 -605 1227 -609 4 -3 -234 -465 -528 -1026 -753
-1435 -744 -1417 -744 -1454 0 -72 46 -130 121 -152 84 -26 46 -61 1042 959
503 515 935 957 960 980 l45 44 957 -981 c1042 -1066 1000 -1028 1084 -1002
75 22 121 80 121 152 0 37 9 19 -744 1454 -294 561 -532 1023 -528 1026 4 4
556 278 1227 609 671 331 1228 610 1239 619 41 35 59 127 35 174 -21 41 -63
77 -100 87 -32 9 -240 -24 -1390 -220 -743 -127 -1353 -229 -1355 -228 -1 2
-91 609 -199 1348 -154 1059 -200 1354 -216 1386 -34 69 -118 101 -189 73z"/>
</g>
</svg>
