<?xml version="1.0" standalone="no"?>
<!DOCTYPE svg PUBLIC "-//W3C//DTD SVG 20010904//EN"
 "http://www.w3.org/TR/2001/REC-SVG-20010904/DTD/svg10.dtd">
<svg version="1.0" xmlns="http://www.w3.org/2000/svg"
 width="1097.000000pt" height="908.000000pt" viewBox="0 0 1097.000000 908.000000"
 preserveAspectRatio="xMidYMid meet">
<metadata>
Created by potrace 1.16, written by Peter Selinger 2001-2019
</metadata>
<g transform="translate(0.000000,908.000000) scale(0.100000,-0.100000)"
fill="#000000" stroke="none">
<path d="M2464 9062 c-51 -33 -70 -67 -98 -177 -22 -88 -25 -113 -16 -145 11
-41 66 -97 103 -104 12 -3 144 -7 292 -10 545 -11 725 -59 839 -226 23 -33
1598 -3789 1618 -3856 2 -6 -646 -713 -1440 -1570 -1432 -1548 -1624 -1748
-1852 -1930 -473 -377 -983 -564 -1605 -590 -93 -4 -160 -12 -176 -20 -51 -25
-75 -68 -103 -179 -30 -122 -26 -162 21 -207 53 -49 59 -50 254 -38 99 5 387
15 640 21 475 12 1268 2 1852 -22 205 -9 274 -9 296 1 53 22 81 62 107 156 29
108 31 168 4 211 -32 52 -61 65 -173 75 -238 20 -396 100 -472 239 -40 74 -47
186 -16 277 23 68 59 131 97 172 12 14 30 38 38 55 25 48 2700 2936 2707 2922
4 -7 316 -754 693 -1660 468 -1122 685 -1654 681 -1668 -11 -33 -101 -116
-174 -159 -179 -106 -451 -180 -664 -180 -68 0 -119 -21 -147 -59 -27 -38 -73
-227 -65 -268 7 -39 46 -88 86 -109 25 -12 65 -13 286 -4 142 5 555 15 919 21
679 12 1383 4 1951 -22 238 -11 253 -11 289 7 54 27 72 57 101 170 28 110 26
157 -6 202 -39 55 -61 59 -366 66 -388 8 -562 31 -689 91 -74 35 -150 114
-191 199 -19 39 -435 1033 -925 2210 -873 2095 -891 2139 -873 2159 94 108
2360 2556 2377 2566 11 8 77 69 146 136 206 200 368 326 574 448 394 233 883
366 1344 367 135 0 171 30 208 171 30 119 31 166 1 210 -43 65 -69 71 -278 59
-688 -37 -1605 -35 -2609 6 -152 6 -156 6 -189 -17 -53 -37 -70 -68 -97 -174
-29 -112 -26 -149 13 -195 38 -45 68 -57 169 -63 172 -11 309 -63 398 -151 79
-79 100 -131 100 -241 0 -110 -24 -177 -95 -271 -27 -36 -54 -75 -61 -88 -15
-28 -2176 -2366 -2187 -2366 -4 0 -266 622 -583 1383 -546 1310 -575 1383
-562 1408 24 47 126 128 225 179 175 90 347 135 558 146 172 10 199 30 237
175 30 119 31 166 1 210 -45 68 -62 71 -353 59 -487 -18 -1469 -32 -1884 -26
-377 6 -675 15 -1095 31 -138 6 -153 5 -181 -13z"/>
</g>
</svg>
