<?xml version="1.0" standalone="no"?>
<!DOCTYPE svg PUBLIC "-//W3C//DTD SVG 20010904//EN"
 "http://www.w3.org/TR/2001/REC-SVG-20010904/DTD/svg10.dtd">
<svg version="1.0" xmlns="http://www.w3.org/2000/svg"
 width="952.000000pt" height="942.000000pt" viewBox="0 0 952.000000 942.000000"
 preserveAspectRatio="xMidYMid meet">
<metadata>
Created by potrace 1.16, written by Peter Selinger 2001-2019
</metadata>
<g transform="translate(0.000000,942.000000) scale(0.100000,-0.100000)"
fill="#000000" stroke="none">
<path d="M2357 9399 c-53 -28 -68 -58 -106 -217 l-34 -139 24 -49 c45 -91 34
-88 417 -95 461 -9 724 -35 819 -81 39 -19 56 -74 50 -163 -4 -45 -343 -1419
-966 -3915 -874 -3497 -965 -3853 -1003 -3929 -44 -91 -109 -165 -169 -193
-128 -61 -507 -98 -997 -98 -234 0 -259 -5 -303 -58 -27 -31 -89 -250 -89
-312 0 -48 33 -103 78 -128 40 -22 41 -22 284 -13 134 6 561 16 950 23 731 12
1883 3 2670 -23 321 -11 339 -10 375 7 21 11 48 34 60 52 30 46 86 281 77 328
-8 46 -55 100 -97 113 -18 5 -221 12 -452 15 -430 6 -615 15 -811 41 -245 33
-288 66 -288 215 1 65 126 575 967 3936 531 2123 980 3899 997 3947 43 118 89
170 175 196 36 11 110 25 166 31 131 13 1897 13 2154 0 623 -33 972 -144 1211
-385 116 -117 181 -244 229 -450 42 -177 50 -272 50 -585 0 -308 -6 -399 -56
-844 -16 -148 -27 -282 -24 -298 9 -39 52 -88 92 -104 20 -9 71 -14 134 -14
85 0 107 3 140 22 76 43 62 -45 254 1577 l175 1475 -22 45 c-13 25 -36 54 -51
65 l-28 21 -3507 2 c-3492 2 -3507 2 -3545 -18z"/>
</g>
</svg>
