<?xml version="1.0" standalone="no"?>
<!DOCTYPE svg PUBLIC "-//W3C//DTD SVG 20010904//EN"
 "http://www.w3.org/TR/2001/REC-SVG-20010904/DTD/svg10.dtd">
<svg version="1.0" xmlns="http://www.w3.org/2000/svg"
 width="590.000000pt" height="875.000000pt" viewBox="0 0 590.000000 875.000000"
 preserveAspectRatio="xMidYMid meet">
<metadata>
Created by potrace 1.16, written by Peter Selinger 2001-2019
</metadata>
<g transform="translate(0.000000,875.000000) scale(0.100000,-0.100000)"
fill="#000000" stroke="none">
<path d="M4145 8731 c-22 -10 -49 -29 -61 -42 -33 -38 -4054 -5616 -4070
-5647 -10 -20 -14 -68 -14 -188 0 -151 1 -163 23 -195 12 -18 38 -44 56 -56
l34 -23 1713 0 1714 0 0 -880 c0 -590 -4 -904 -11 -953 -15 -102 -53 -176
-106 -205 -100 -55 -316 -80 -756 -89 -292 -6 -310 -7 -339 -27 -66 -45 -73
-65 -73 -201 0 -137 7 -156 76 -204 33 -22 39 -23 169 -17 880 40 2220 40
3100 0 130 -6 136 -5 169 17 69 48 76 67 76 204 0 136 -7 156 -73 201 -29 20
-47 21 -339 27 -440 9 -656 34 -756 89 -53 29 -91 103 -106 205 -7 49 -11 363
-11 953 l0 880 606 0 c670 0 650 -2 697 64 20 28 22 43 22 161 0 118 -2 133
-22 161 -47 66 -27 64 -697 64 l-606 0 0 2801 c0 2564 -1 2804 -16 2835 -32
68 -62 79 -219 82 -120 2 -146 0 -180 -17z m-535 -3501 l0 -2200 -1586 0
c-872 0 -1584 4 -1582 8 4 10 3162 4391 3166 4391 1 1 2 -989 2 -2199z"/>
</g>
</svg>
