<?xml version="1.0" standalone="no"?>
<!DOCTYPE svg PUBLIC "-//W3C//DTD SVG 20010904//EN"
 "http://www.w3.org/TR/2001/REC-SVG-20010904/DTD/svg10.dtd">
<svg version="1.0" xmlns="http://www.w3.org/2000/svg"
 width="1062.000000pt" height="946.000000pt" viewBox="0 0 1062.000000 946.000000"
 preserveAspectRatio="xMidYMid meet">
<metadata>
Created by potrace 1.16, written by Peter Selinger 2001-2019
</metadata>
<g transform="translate(0.000000,946.000000) scale(0.100000,-0.100000)"
fill="#000000" stroke="none">
<path d="M2367 9439 c-53 -28 -68 -58 -106 -217 l-34 -139 24 -49 c45 -91 34
-88 417 -95 461 -9 724 -35 819 -81 39 -19 56 -74 50 -163 -4 -45 -344 -1426
-971 -3935 -879 -3515 -970 -3873 -1008 -3949 -44 -91 -109 -165 -169 -193
-128 -61 -507 -98 -997 -98 -234 0 -259 -5 -303 -58 -27 -31 -89 -250 -89
-312 0 -48 33 -103 78 -128 l40 -22 2538 0 c1602 0 2589 4 2674 10 1091 81
2200 587 3155 1440 140 125 463 453 581 590 758 881 1253 1891 1453 2965 256
1378 -31 2635 -796 3480 -417 460 -1003 787 -1633 910 -326 63 -101 59 -3025
62 -2650 2 -2660 2 -2698 -18z m4808 -509 c683 -62 1238 -328 1613 -775 273
-325 441 -740 504 -1245 17 -139 17 -693 0 -860 -55 -534 -210 -1271 -407
-1940 -242 -817 -546 -1461 -934 -1974 -649 -860 -1607 -1434 -2636 -1580
-227 -32 -360 -36 -1313 -36 -954 0 -1104 4 -1190 34 l-37 13 2 84 c1 75 105
499 987 4025 542 2167 999 3979 1016 4027 44 120 89 170 178 197 37 11 103 24
147 29 116 12 1937 13 2070 1z"/>
</g>
</svg>
