<?xml version="1.0" standalone="no"?>
<!DOCTYPE svg PUBLIC "-//W3C//DTD SVG 20010904//EN"
 "http://www.w3.org/TR/2001/REC-SVG-20010904/DTD/svg10.dtd">
<svg version="1.0" xmlns="http://www.w3.org/2000/svg"
 width="787.000000pt" height="977.000000pt" viewBox="0 0 787.000000 977.000000"
 preserveAspectRatio="xMidYMid meet">
<metadata>
Created by potrace 1.16, written by Peter Selinger 2001-2019
</metadata>
<g transform="translate(0.000000,977.000000) scale(0.100000,-0.100000)"
fill="#000000" stroke="none">
<path d="M3819 9749 c-20 -11 -44 -35 -54 -52 -23 -39 -74 -240 -75 -292 0
-55 29 -105 76 -132 38 -22 48 -23 319 -23 650 -1 1146 -40 1250 -98 44 -25
75 -94 75 -164 0 -44 -209 -894 -835 -3399 -460 -1837 -852 -3391 -871 -3452
-216 -672 -676 -1262 -1214 -1555 -104 -57 -231 -106 -357 -139 -100 -26 -121
-28 -288 -27 -135 1 -208 6 -295 22 -419 76 -742 289 -914 603 l-36 66 117 6
c466 21 844 382 905 864 23 180 -30 364 -141 485 -283 309 -857 260 -1196
-104 -192 -204 -285 -481 -285 -845 0 -239 44 -424 151 -633 233 -455 702
-755 1341 -857 173 -27 582 -24 778 6 385 59 701 158 1040 327 219 109 366
199 544 333 507 381 867 855 1052 1386 19 55 413 1611 874 3457 462 1846 851
3387 865 3425 53 141 119 207 237 239 105 28 288 45 538 50 140 3 269 10 287
15 60 19 87 64 121 202 18 70 32 141 32 158 0 45 -36 103 -81 128 -37 21 -42
21 -246 12 -802 -40 -1980 -38 -3468 4 -203 6 -211 5 -246 -16z"/>
</g>
</svg>
