<?xml version="1.0" standalone="no"?>
<!DOCTYPE svg PUBLIC "-//W3C//DTD SVG 20010904//EN"
 "http://www.w3.org/TR/2001/REC-SVG-20010904/DTD/svg10.dtd">
<svg version="1.0" xmlns="http://www.w3.org/2000/svg"
 width="911.000000pt" height="904.000000pt" viewBox="0 0 911.000000 904.000000"
 preserveAspectRatio="xMidYMid meet">
<metadata>
Created by potrace 1.16, written by Peter Selinger 2001-2019
</metadata>
<g transform="translate(0.000000,904.000000) scale(0.100000,-0.100000)"
fill="#000000" stroke="none">
<path d="M2272 9023 c-48 -23 -69 -60 -98 -171 -30 -114 -28 -154 13 -202 47
-56 51 -57 408 -63 418 -8 647 -32 750 -79 36 -16 50 -62 48 -158 -1 -77 -92
-448 -930 -3801 -838 -3349 -934 -3724 -971 -3800 -87 -179 -164 -226 -434
-264 -142 -20 -442 -35 -694 -35 -202 0 -212 -1 -244 -22 -51 -35 -67 -65 -96
-172 -29 -112 -27 -149 13 -196 51 -61 56 -62 335 -50 139 5 546 15 903 21
671 12 1721 3 2483 -22 329 -11 343 -10 379 8 20 11 45 31 56 44 20 28 66 196
67 245 0 38 -34 91 -79 121 -33 22 -40 23 -295 23 -455 0 -865 26 -1033 65
-143 33 -169 65 -167 210 1 85 56 309 936 3825 514 2054 945 3760 957 3790 57
149 107 196 243 228 66 15 170 17 1158 17 1133 0 1218 -3 1485 -45 447 -71
733 -233 883 -500 42 -75 97 -245 116 -360 53 -324 47 -659 -25 -1335 -22
-203 -22 -211 -4 -248 31 -65 66 -82 170 -82 102 0 140 17 168 77 15 33 327
2702 327 2801 0 54 -31 105 -80 129 -33 17 -215 18 -3375 18 -3056 0 -3343 -2
-3373 -17z"/>
</g>
</svg>
