<?xml version="1.0" standalone="no"?>
<!DOCTYPE svg PUBLIC "-//W3C//DTD SVG 20010904//EN"
 "http://www.w3.org/TR/2001/REC-SVG-20010904/DTD/svg10.dtd">
<svg version="1.0" xmlns="http://www.w3.org/2000/svg"
 width="678.000000pt" height="626.000000pt" viewBox="0 0 678.000000 626.000000"
 preserveAspectRatio="xMidYMid meet">
<metadata>
Created by potrace 1.16, written by Peter Selinger 2001-2019
</metadata>
<g transform="translate(0.000000,626.000000) scale(0.100000,-0.100000)"
fill="#000000" stroke="none">
<path d="M2350 6246 c-504 -73 -1010 -363 -1402 -803 -320 -361 -558 -796
-679 -1245 -24 -90 -18 -126 32 -174 l30 -29 187 -3 c261 -4 240 -22 337 278
160 497 508 968 910 1233 431 284 915 326 1207 107 125 -95 210 -241 238 -410
27 -161 10 -405 -46 -675 -46 -216 -732 -2948 -764 -3040 -101 -289 -306 -602
-496 -756 -203 -166 -381 -230 -597 -216 -197 13 -359 66 -490 160 l-48 34 66
18 c373 101 649 461 647 845 0 125 -22 206 -80 296 -147 226 -452 311 -762
212 -400 -127 -640 -485 -640 -953 0 -550 387 -973 1003 -1097 92 -19 145 -23
297 -23 167 1 195 3 291 27 185 47 331 113 500 227 210 141 423 359 561 574
l31 48 39 -73 c132 -244 359 -466 618 -606 363 -195 845 -253 1260 -152 163
40 275 81 435 160 683 335 1250 1052 1466 1852 24 90 18 126 -32 174 l-30 29
-187 3 c-261 4 -240 22 -337 -278 -160 -497 -508 -968 -910 -1233 -431 -284
-915 -326 -1207 -107 -125 95 -210 241 -238 410 -27 161 -10 406 47 675 50
242 723 2923 758 3025 155 446 462 819 774 939 249 95 591 48 814 -112 l48
-34 -66 -18 c-373 -101 -649 -461 -647 -845 0 -125 22 -206 80 -296 147 -226
452 -311 762 -212 400 127 640 485 640 953 0 550 -387 973 -1003 1097 -92 19
-145 23 -297 23 -167 -1 -195 -3 -291 -27 -185 -47 -331 -113 -500 -227 -210
-141 -423 -359 -561 -574 l-31 -48 -39 73 c-65 120 -147 227 -258 338 -235
235 -533 383 -895 446 -126 22 -425 27 -545 10z"/>
</g>
</svg>
