<?xml version="1.0" standalone="no"?>
<!DOCTYPE svg PUBLIC "-//W3C//DTD SVG 20010904//EN"
 "http://www.w3.org/TR/2001/REC-SVG-20010904/DTD/svg10.dtd">
<svg version="1.0" xmlns="http://www.w3.org/2000/svg"
 width="966.000000pt" height="904.000000pt" viewBox="0 0 966.000000 904.000000"
 preserveAspectRatio="xMidYMid meet">
<metadata>
Created by potrace 1.16, written by Peter Selinger 2001-2019
</metadata>
<g transform="translate(0.000000,904.000000) scale(0.100000,-0.100000)"
fill="#000000" stroke="none">
<path d="M2270 9021 c-19 -10 -42 -29 -52 -42 -20 -28 -68 -199 -68 -245 0
-38 34 -91 77 -120 30 -20 47 -21 365 -27 421 -8 650 -32 753 -79 36 -16 50
-62 48 -158 -1 -77 -92 -448 -930 -3801 -838 -3349 -934 -3724 -971 -3800 -87
-179 -164 -226 -434 -264 -142 -20 -442 -35 -694 -35 -202 0 -212 -1 -244 -22
-18 -13 -42 -35 -52 -49 -27 -36 -71 -215 -63 -256 7 -38 46 -88 86 -108 42
-22 7435 -23 7477 -1 15 8 37 25 49 38 12 13 327 741 699 1618 731 1720 705
1653 658 1717 -40 54 -80 73 -156 73 -73 0 -122 -15 -150 -46 -9 -11 -66 -134
-127 -274 -393 -914 -655 -1388 -987 -1780 -424 -502 -997 -780 -1790 -869
-304 -34 -579 -41 -1744 -41 -1093 0 -1240 4 -1325 32 l-40 13 1 95 c0 91 20
175 473 1988 l473 1892 727 0 c755 0 977 -8 1167 -40 289 -50 427 -138 483
-307 60 -182 44 -427 -55 -838 -49 -203 -52 -250 -22 -295 34 -51 79 -70 164
-70 77 0 118 19 155 70 28 38 842 3304 836 3352 -11 84 -74 128 -182 128 -76
0 -126 -19 -154 -59 -11 -15 -38 -101 -61 -191 -83 -328 -192 -615 -292 -770
-224 -350 -506 -482 -1108 -520 -250 -15 -1540 -13 -1540 3 1 28 839 3357 859
3407 57 149 107 196 243 228 67 16 180 17 1338 17 1297 0 1379 -2 1680 -41
569 -73 895 -252 1055 -579 154 -316 185 -730 108 -1465 -34 -331 -35 -385 -6
-426 35 -50 82 -67 172 -63 87 4 128 26 154 81 15 33 327 2702 327 2801 0 54
-31 105 -80 129 -33 17 -228 18 -3650 18 -3500 0 -3616 -1 -3650 -19z"/>
</g>
</svg>
