<?xml version="1.0" standalone="no"?>
<!DOCTYPE svg PUBLIC "-//W3C//DTD SVG 20010904//EN"
 "http://www.w3.org/TR/2001/REC-SVG-20010904/DTD/svg10.dtd">
<svg version="1.0" xmlns="http://www.w3.org/2000/svg"
 width="735.000000pt" height="1245.000000pt" viewBox="0 0 735.000000 1245.000000"
 preserveAspectRatio="xMidYMid meet">
<metadata>
Created by potrace 1.16, written by Peter Selinger 2001-2019
</metadata>
<g transform="translate(0.000000,1245.000000) scale(0.100000,-0.100000)"
fill="#000000" stroke="none">
<path d="M5141 12432 c-19 -10 -42 -33 -51 -50 -10 -18 -208 -794 -440 -1725
-232 -930 -429 -1697 -436 -1703 -8 -6 -62 -14 -121 -17 -412 -24 -909 -140
-1363 -318 -778 -305 -1470 -809 -1977 -1441 -101 -126 -294 -417 -372 -561
-174 -323 -302 -692 -357 -1030 -21 -134 -30 -518 -15 -657 88 -808 568 -1489
1323 -1879 360 -187 814 -314 1236 -346 62 -5 92 -11 89 -19 -2 -6 -147 -585
-322 -1286 l-319 -1276 20 -39 c10 -22 34 -50 53 -62 31 -21 46 -23 153 -23
136 0 177 12 207 60 11 19 156 580 341 1324 178 710 329 1296 336 1302 8 6 62
14 121 17 412 24 909 140 1363 318 778 305 1470 809 1977 1441 101 126 294
417 372 561 174 323 302 692 357 1030 21 134 30 518 15 657 -88 808 -568 1489
-1323 1879 -360 187 -814 314 -1236 346 -79 7 -92 10 -88 24 25 81 836 3346
836 3363 0 33 -35 85 -72 108 -47 28 -256 29 -307 2z m-1699 -6604 c-371
-1487 -679 -2707 -683 -2712 -5 -6 -50 -5 -116 3 -825 94 -1411 552 -1584
1240 -45 178 -62 330 -62 556 0 628 215 1395 554 1971 303 516 729 937 1239
1224 395 222 809 356 1275 413 17 2 35 5 41 6 7 0 -279 -1160 -664 -2701z
m1341 2682 c781 -115 1331 -566 1498 -1229 45 -178 62 -330 62 -556 0 -628
-215 -1395 -554 -1971 -303 -516 -729 -937 -1239 -1224 -402 -226 -776 -347
-1286 -414 l-41 -6 674 2698 c370 1483 676 2703 678 2710 6 17 48 15 208 -8z"/>
</g>
</svg>
