<?xml version="1.0" standalone="no"?>
<!DOCTYPE svg PUBLIC "-//W3C//DTD SVG 20010904//EN"
 "http://www.w3.org/TR/2001/REC-SVG-20010904/DTD/svg10.dtd">
<svg version="1.0" xmlns="http://www.w3.org/2000/svg"
 width="665.000000pt" height="911.000000pt" viewBox="0 0 665.000000 911.000000"
 preserveAspectRatio="xMidYMid meet">
<metadata>
Created by potrace 1.16, written by Peter Selinger 2001-2019
</metadata>
<g transform="translate(0.000000,911.000000) scale(0.100000,-0.100000)"
fill="#000000" stroke="none">
<path d="M4425 9099 c-412 -50 -853 -223 -1260 -495 -761 -508 -1395 -1371
-1694 -2309 -23 -71 -362 -1408 -753 -2970 -666 -2660 -711 -2845 -711 -2925
0 -193 113 -334 308 -384 180 -47 400 20 551 169 133 132 101 25 561 1865 322
1286 409 1620 417 1606 185 -317 417 -540 697 -669 189 -88 344 -125 559 -134
383 -15 806 84 1218 287 391 192 690 408 1018 735 375 375 625 722 861 1199
605 1226 585 2516 -52 3331 -75 96 -243 261 -340 332 -232 173 -512 293 -805
345 -133 23 -446 33 -575 17z m330 -409 c537 -77 851 -637 797 -1423 -24 -335
-78 -627 -228 -1229 -171 -687 -270 -1001 -424 -1338 -338 -745 -915 -1295
-1481 -1415 -235 -50 -507 -17 -713 86 -225 112 -417 315 -537 566 -49 103
-110 285 -134 398 l-17 80 225 900 c281 1119 322 1265 464 1625 303 770 781
1347 1338 1615 158 76 278 112 465 139 53 7 178 5 245 -4z"/>
</g>
</svg>
