<?xml version="1.0" standalone="no"?>
<!DOCTYPE svg PUBLIC "-//W3C//DTD SVG 20010904//EN"
 "http://www.w3.org/TR/2001/REC-SVG-20010904/DTD/svg10.dtd">
<svg version="1.0" xmlns="http://www.w3.org/2000/svg"
 width="510.000000pt" height="626.000000pt" viewBox="0 0 510.000000 626.000000"
 preserveAspectRatio="xMidYMid meet">
<metadata>
Created by potrace 1.16, written by Peter Selinger 2001-2019
</metadata>
<g transform="translate(0.000000,626.000000) scale(0.100000,-0.100000)"
fill="#000000" stroke="none">
<path d="M3187 6249 c-766 -68 -1379 -420 -1739 -1001 -220 -355 -353 -806
-334 -1132 20 -335 149 -622 385 -856 166 -165 353 -279 585 -355 57 -18 312
-77 567 -129 256 -52 500 -107 544 -122 350 -116 596 -349 671 -634 25 -91 24
-280 0 -385 -25 -108 -70 -233 -118 -330 -251 -501 -718 -795 -1388 -877 -138
-16 -546 -17 -680 0 -488 61 -851 222 -1055 469 -61 74 -60 83 16 83 117 0
306 75 433 171 136 104 246 274 292 456 57 225 13 414 -125 547 -107 102 -237
148 -411 148 -338 -2 -647 -229 -761 -560 -77 -224 -86 -491 -23 -709 164
-571 786 -952 1670 -1024 163 -13 533 -7 694 11 572 65 1083 259 1460 553 92
72 269 246 358 352 345 411 575 1031 548 1475 -23 367 -164 679 -426 940 -220
220 -484 370 -817 465 -48 14 -288 66 -532 115 -280 57 -471 101 -518 119
-186 73 -338 203 -412 351 -43 88 -71 202 -71 290 0 179 83 419 212 612 189
282 483 460 873 529 181 32 512 33 686 1 203 -37 404 -113 535 -203 71 -48
171 -146 215 -210 l38 -56 -49 -6 c-122 -15 -262 -83 -367 -181 -202 -187
-273 -513 -157 -712 85 -144 283 -231 470 -206 270 36 485 206 569 449 44 127
58 219 59 373 0 163 -19 259 -79 401 -178 422 -670 717 -1299 778 -122 12
-385 12 -519 0z"/>
</g>
</svg>
