<?xml version="1.0" standalone="no"?>
<!DOCTYPE svg PUBLIC "-//W3C//DTD SVG 20010904//EN"
 "http://www.w3.org/TR/2001/REC-SVG-20010904/DTD/svg10.dtd">
<svg version="1.0" xmlns="http://www.w3.org/2000/svg"
 width="1395.000000pt" height="946.000000pt" viewBox="0 0 1395.000000 946.000000"
 preserveAspectRatio="xMidYMid meet">
<metadata>
Created by potrace 1.16, written by Peter Selinger 2001-2019
</metadata>
<g transform="translate(0.000000,946.000000) scale(0.100000,-0.100000)"
fill="#000000" stroke="none">
<path d="M2367 9439 c-53 -28 -68 -58 -106 -217 l-34 -139 24 -49 c45 -91 34
-88 417 -95 461 -9 724 -35 819 -81 39 -19 56 -74 50 -163 -7 -86 -1824 -7362
-1866 -7472 -79 -203 -241 -389 -432 -495 -227 -127 -506 -192 -884 -204 -93
-3 -184 -10 -202 -16 -60 -18 -87 -63 -121 -201 -18 -70 -32 -140 -32 -157 0
-48 33 -103 78 -128 41 -23 41 -23 259 -12 804 38 1742 38 2600 -1 281 -12
303 -10 351 45 22 26 36 62 60 159 37 147 39 175 13 225 -32 62 -80 82 -199
82 -56 0 -159 5 -229 11 -465 39 -706 178 -754 435 -29 155 -80 -62 950 4049
522 2085 950 3784 950 3777 5 -71 1144 -8655 1152 -8679 13 -40 65 -87 114
-103 56 -18 199 -9 257 18 26 11 69 43 95 70 33 33 938 1457 2813 4424 1521
2407 2766 4376 2767 4375 1 -2 -449 -1807 -1001 -4012 -918 -3675 -1006 -4016
-1042 -4085 -43 -83 -110 -156 -165 -182 -128 -61 -507 -98 -997 -98 -234 0
-259 -5 -303 -58 -27 -31 -89 -250 -89 -312 0 -48 33 -103 78 -128 41 -23 41
-23 279 -13 131 6 545 16 921 23 704 12 1639 3 2276 -23 301 -13 326 -10 373
45 23 26 37 61 61 159 18 70 32 140 32 157 0 48 -33 103 -78 128 -38 21 -50
22 -258 22 -384 0 -743 27 -871 65 -75 22 -87 41 -91 144 -4 85 4 114 966
3963 805 3218 975 3890 1005 3952 39 83 112 168 167 196 122 62 500 100 1003
100 199 0 221 2 258 20 22 12 48 34 57 49 10 16 33 92 51 169 l34 139 -24 49
c-13 26 -37 57 -52 68 -28 21 -34 21 -1290 21 l-1262 0 -47 -22 c-26 -12 -69
-44 -95 -71 -33 -33 -850 -1317 -2533 -3981 -2266 -3587 -2486 -3931 -2493
-3905 -4 16 -239 1786 -522 3934 -284 2148 -520 3919 -526 3936 -12 39 -53 78
-101 98 -33 14 -182 16 -1315 16 -1259 -1 -1279 -1 -1316 -21z"/>
</g>
</svg>
