<?xml version="1.0" standalone="no"?>
<!DOCTYPE svg PUBLIC "-//W3C//DTD SVG 20010904//EN"
 "http://www.w3.org/TR/2001/REC-SVG-20010904/DTD/svg10.dtd">
<svg version="1.0" xmlns="http://www.w3.org/2000/svg"
 width="616.000000pt" height="911.000000pt" viewBox="0 0 616.000000 911.000000"
 preserveAspectRatio="xMidYMid meet">
<metadata>
Created by potrace 1.16, written by Peter Selinger 2001-2019
</metadata>
<g transform="translate(0.000000,911.000000) scale(0.100000,-0.100000)"
fill="#000000" stroke="none">
<path d="M4205 9096 c-17 -7 -43 -26 -58 -42 -41 -43 -4128 -5715 -4139 -5743
-5 -14 -8 -134 -6 -272 3 -272 3 -272 72 -323 27 -21 27 -21 1787 -24 l1759
-2 -2 -928 -3 -927 -24 -53 c-28 -63 -57 -85 -136 -105 -132 -34 -472 -57
-838 -57 -245 0 -275 -7 -316 -73 -20 -32 -21 -49 -21 -237 0 -231 6 -252 82
-291 39 -20 47 -20 302 -10 813 33 1996 38 2789 10 534 -18 591 -17 624 7 15
11 38 40 51 64 20 41 22 57 22 220 0 163 -2 179 -22 220 -45 86 -35 84 -416
92 -477 9 -724 35 -794 82 -17 11 -43 44 -57 71 l-26 50 -3 933 -2 932 601 0
c594 0 602 0 639 21 72 41 80 70 80 289 0 219 -8 248 -80 289 -37 21 -45 21
-639 21 l-601 0 -2 2849 -3 2850 -21 27 c-51 69 -51 69 -322 71 -190 2 -254 0
-277 -11z m-508 -5783 c-2 -2 -688 -2 -1524 -1 l-1521 3 1522 2110 1521 2111
3 -2110 c1 -1160 1 -2111 -1 -2113z"/>
</g>
</svg>
