<?xml version="1.0" standalone="no"?>
<!DOCTYPE svg PUBLIC "-//W3C//DTD SVG 20010904//EN"
 "http://www.w3.org/TR/2001/REC-SVG-20010904/DTD/svg10.dtd">
<svg version="1.0" xmlns="http://www.w3.org/2000/svg"
 width="316.000000pt" height="976.000000pt" viewBox="0 0 316.000000 976.000000"
 preserveAspectRatio="xMidYMid meet">
<metadata>
Created by potrace 1.16, written by Peter Selinger 2001-2019
</metadata>
<g transform="translate(0.000000,976.000000) scale(0.100000,-0.100000)"
fill="#000000" stroke="none">
<path d="M1950 9684 c-1084 -82 -1035 -75 -1077 -152 -11 -20 -39 -115 -63
-209 -47 -191 -47 -221 -3 -274 44 -52 75 -59 250 -59 293 0 556 -28 648 -69
74 -33 80 -47 79 -185 l-1 -121 -881 -3520 c-565 -2261 -885 -3555 -892 -3618
-20 -161 -8 -377 28 -520 125 -482 491 -815 1022 -928 150 -32 438 -33 552 -1
311 86 554 289 765 640 184 305 329 690 484 1276 57 214 57 236 -1 291 l-31
30 -184 3 c-199 3 -228 -2 -261 -53 -8 -13 -45 -135 -80 -272 -138 -530 -242
-829 -361 -1038 -163 -285 -336 -409 -545 -392 -154 13 -241 95 -289 273 -30
107 -32 374 -5 549 11 73 417 1716 1032 4178 558 2231 1014 4076 1014 4098 0
88 -73 150 -172 148 -29 -1 -492 -34 -1028 -75z"/>
</g>
</svg>
