<?xml version="1.0" standalone="no"?>
<!DOCTYPE svg PUBLIC "-//W3C//DTD SVG 20010904//EN"
 "http://www.w3.org/TR/2001/REC-SVG-20010904/DTD/svg10.dtd">
<svg version="1.0" xmlns="http://www.w3.org/2000/svg"
 width="393.000000pt" height="626.000000pt" viewBox="0 0 393.000000 626.000000"
 preserveAspectRatio="xMidYMid meet">
<metadata>
Created by potrace 1.16, written by Peter Selinger 2001-2019
</metadata>
<g transform="translate(0.000000,626.000000) scale(0.100000,-0.100000)"
fill="#000000" stroke="none">
<path d="M1810 6239 c-149 -38 -287 -126 -375 -237 -87 -109 -107 -165 -234
-669 -373 -1470 -669 -2465 -1003 -3378 -179 -487 -203 -592 -195 -835 11
-293 111 -545 300 -747 158 -169 390 -293 657 -350 118 -25 447 -25 610 1
1070 166 2031 994 2320 2001 37 125 33 159 -20 210 l-31 30 -187 3 c-256 4
-245 12 -322 -232 -199 -627 -785 -1206 -1440 -1424 -290 -96 -626 -129 -726
-73 -130 73 -158 312 -78 670 32 142 73 267 212 646 345 944 663 2016 1042
3525 90 358 92 366 88 460 -6 124 -32 192 -103 269 -123 132 -317 182 -515
130z"/>
</g>
</svg>
