<?xml version="1.0" standalone="no"?>
<!DOCTYPE svg PUBLIC "-//W3C//DTD SVG 20010904//EN"
 "http://www.w3.org/TR/2001/REC-SVG-20010904/DTD/svg10.dtd">
<svg version="1.0" xmlns="http://www.w3.org/2000/svg"
 width="1180.000000pt" height="318.000000pt" viewBox="0 0 1180.000000 318.000000"
 preserveAspectRatio="xMidYMid meet">
<metadata>
Created by potrace 1.16, written by Peter Selinger 2001-2019
</metadata>
<g transform="translate(0.000000,318.000000) scale(0.100000,-0.100000)"
fill="#000000" stroke="none">
<path d="M102 3159 c-82 -41 -123 -148 -89 -230 8 -20 69 -107 135 -195 1105
-1464 2823 -2427 4770 -2673 354 -45 527 -55 977 -55 450 0 623 10 977 55
1947 246 3665 1209 4770 2673 66 88 127 174 134 192 63 152 -101 307 -249 235
-36 -17 -64 -47 -140 -149 -294 -393 -648 -748 -1042 -1044 -899 -676 -2048
-1108 -3355 -1262 -415 -49 -612 -60 -1095 -60 -483 0 -680 11 -1095 60 -1307
154 -2456 586 -3355 1262 -394 296 -748 651 -1042 1044 -74 99 -105 132 -137
148 -54 26 -110 25 -164 -1z"/>
</g>
</svg>
