<?xml version="1.0" standalone="no"?>
<!DOCTYPE svg PUBLIC "-//W3C//DTD SVG 20010904//EN"
 "http://www.w3.org/TR/2001/REC-SVG-20010904/DTD/svg10.dtd">
<svg version="1.0" xmlns="http://www.w3.org/2000/svg"
 width="692.000000pt" height="976.000000pt" viewBox="0 0 692.000000 976.000000"
 preserveAspectRatio="xMidYMid meet">
<metadata>
Created by potrace 1.16, written by Peter Selinger 2001-2019
</metadata>
<g transform="translate(0.000000,976.000000) scale(0.100000,-0.100000)"
fill="#000000" stroke="none">
<path d="M2145 9683 c-1008 -80 -979 -76 -1022 -141 -30 -46 -86 -281 -77
-328 8 -46 55 -100 97 -113 18 -5 142 -12 277 -15 270 -6 386 -17 503 -48 135
-36 161 -83 138 -260 -7 -52 -456 -1868 -1037 -4192 l-1026 -4101 4 -95 c3
-76 9 -106 30 -152 136 -293 564 -319 834 -50 124 123 88 0 615 2106 349 1396
477 1892 498 1935 57 112 175 308 272 451 372 548 785 895 1264 1060 286 98
677 137 865 86 144 -40 291 -155 363 -286 134 -245 156 -647 62 -1152 -101
-550 -374 -1421 -785 -2513 -146 -388 -170 -492 -170 -727 0 -608 402 -1059
1015 -1139 130 -17 326 -6 451 25 355 88 673 316 949 680 264 349 493 841 625
1343 25 95 19 131 -31 179 -30 29 -31 29 -167 32 -198 4 -206 -2 -260 -208
-17 -63 -56 -188 -86 -276 -229 -666 -554 -1118 -930 -1295 -140 -65 -314 -93
-430 -69 -196 41 -254 296 -165 733 30 151 78 297 228 699 449 1204 710 2066
782 2588 21 146 17 520 -5 645 -56 311 -179 561 -367 747 -237 236 -577 377
-1009 419 -152 14 -442 7 -590 -16 -437 -67 -834 -243 -1200 -533 -52 -41
-170 -150 -263 -242 -92 -91 -165 -159 -162 -151 41 138 1065 4273 1065 4302
0 88 -73 150 -172 148 -29 -1 -471 -35 -983 -76z"/>
</g>
</svg>
