<?xml version="1.0" standalone="no"?>
<!DOCTYPE svg PUBLIC "-//W3C//DTD SVG 20010904//EN"
 "http://www.w3.org/TR/2001/REC-SVG-20010904/DTD/svg10.dtd">
<svg version="1.0" xmlns="http://www.w3.org/2000/svg"
 width="1230.000000pt" height="389.000000pt" viewBox="0 0 1230.000000 389.000000"
 preserveAspectRatio="xMidYMid meet">
<metadata>
Created by potrace 1.16, written by Peter Selinger 2001-2019
</metadata>
<g transform="translate(0.000000,389.000000) scale(0.100000,-0.100000)"
fill="#000000" stroke="none">
<path d="M8848 3865 c-44 -30 -74 -98 -64 -147 10 -52 101 -296 178 -478 418
-990 1085 -1892 1901 -2569 l127 -106 -5392 -5 -5393 -5 -45 -21 c-92 -43
-160 -151 -160 -254 0 -111 75 -222 176 -260 l55 -20 5971 0 5970 0 38 21 c21
12 48 39 60 61 19 35 21 50 18 148 -2 91 -6 113 -24 136 -11 16 -92 71 -180
124 -469 280 -826 555 -1213 935 -360 353 -598 640 -866 1045 -259 390 -502
860 -645 1251 -38 102 -52 124 -93 149 -29 18 -51 20 -207 20 -170 0 -176 -1
-212 -25z"/>
</g>
</svg>
