<?xml version="1.0" standalone="no"?>
<!DOCTYPE svg PUBLIC "-//W3C//DTD SVG 20010904//EN"
 "http://www.w3.org/TR/2001/REC-SVG-20010904/DTD/svg10.dtd">
<svg version="1.0" xmlns="http://www.w3.org/2000/svg"
 width="846.000000pt" height="802.000000pt" viewBox="0 0 846.000000 802.000000"
 preserveAspectRatio="xMidYMid meet">
<metadata>
Created by potrace 1.16, written by Peter Selinger 2001-2019
</metadata>
<g transform="translate(0.000000,802.000000) scale(0.100000,-0.100000)"
fill="#000000" stroke="none">
<path d="M180 8003 c-66 -24 -144 -107 -164 -173 -20 -67 -20 -112 -1 -176 24
-80 72 -128 194 -188 58 -29 1723 -817 3699 -1751 1975 -934 3592 -1701 3592
-1705 0 -4 -1617 -771 -3593 -1705 -1975 -934 -3640 -1722 -3698 -1751 -122
-60 -170 -108 -194 -188 -32 -108 -9 -203 69 -281 63 -63 130 -89 215 -83 50
4 470 199 4036 1884 3768 1780 3983 1884 4032 1931 41 40 55 63 69 109 31 108
1 221 -79 290 -30 25 -1181 574 -4022 1917 -3906 1847 -3981 1881 -4045 1884
-41 2 -82 -4 -110 -14z"/>
</g>
</svg>
