<?xml version="1.0" standalone="no"?>
<!DOCTYPE svg PUBLIC "-//W3C//DTD SVG 20010904//EN"
 "http://www.w3.org/TR/2001/REC-SVG-20010904/DTD/svg10.dtd">
<svg version="1.0" xmlns="http://www.w3.org/2000/svg"
 width="1145.000000pt" height="946.000000pt" viewBox="0 0 1145.000000 946.000000"
 preserveAspectRatio="xMidYMid meet">
<metadata>
Created by potrace 1.16, written by Peter Selinger 2001-2019
</metadata>
<g transform="translate(0.000000,946.000000) scale(0.100000,-0.100000)"
fill="#000000" stroke="none">
<path d="M2575 9447 c-63 -29 -79 -63 -131 -270 l-48 -194 25 -48 c45 -92 34
-89 412 -97 642 -12 823 -47 927 -178 20 -25 274 -650 805 -1978 426 -1067
775 -1945 775 -1951 0 -12 -2894 -3211 -2946 -3256 -19 -16 -92 -84 -162 -150
-145 -138 -204 -184 -358 -285 -243 -158 -516 -270 -829 -339 -199 -44 -537
-81 -748 -81 -169 0 -188 -20 -253 -283 l-48 -194 25 -48 c13 -27 37 -58 52
-69 33 -24 59 -24 482 -6 630 27 1697 22 2527 -11 308 -12 327 -10 376 46 25
27 37 64 76 221 51 208 51 233 0 293 -31 37 -66 48 -179 55 -105 6 -221 34
-300 71 -67 32 -169 124 -195 176 -46 90 -32 216 34 303 19 24 41 57 50 73 15
28 2609 2896 2624 2901 8 2 1312 -3252 1312 -3275 0 -17 -119 -89 -212 -127
-175 -72 -356 -111 -566 -122 -139 -7 -185 -22 -216 -69 -21 -32 -106 -355
-106 -404 0 -47 36 -105 81 -130 37 -21 40 -21 326 -11 1072 38 2215 38 3134
-1 264 -11 279 -11 315 7 21 11 48 33 60 51 25 38 104 344 104 404 0 53 -31
104 -79 128 -32 16 -74 19 -371 25 -608 11 -784 43 -891 164 -38 43 -119 241
-936 2286 -491 1232 -892 2244 -889 2250 7 19 2375 2630 2418 2666 22 19 95
87 162 151 446 425 970 637 1701 689 77 5 180 10 228 10 169 0 188 21 251 277
51 207 51 232 0 292 -40 48 -69 52 -264 42 -96 -6 -412 -16 -703 -23 -546 -12
-1474 -2 -2081 23 -292 12 -316 9 -364 -45 -24 -28 -37 -65 -77 -228 l-49
-195 25 -48 c37 -75 60 -86 186 -97 204 -16 333 -63 434 -156 77 -71 104 -127
103 -217 -1 -79 -16 -120 -69 -190 -20 -26 -39 -55 -43 -66 -8 -21 -2079
-2309 -2090 -2309 -4 0 -249 604 -544 1343 l-537 1342 32 28 c18 15 73 47 122
71 175 85 352 130 575 147 207 15 209 16 250 57 35 35 40 49 85 233 l49 196
-25 48 c-13 27 -37 58 -52 69 -35 26 -27 26 -672 6 -595 -18 -2047 -19 -2485
-2 -617 24 -593 24 -625 9z"/>
</g>
</svg>
