<?xml version="1.0" standalone="no"?>
<!DOCTYPE svg PUBLIC "-//W3C//DTD SVG 20010904//EN"
 "http://www.w3.org/TR/2001/REC-SVG-20010904/DTD/svg10.dtd">
<svg version="1.0" xmlns="http://www.w3.org/2000/svg"
 width="1186.000000pt" height="942.000000pt" viewBox="0 0 1186.000000 942.000000"
 preserveAspectRatio="xMidYMid meet">
<metadata>
Created by potrace 1.16, written by Peter Selinger 2001-2019
</metadata>
<g transform="translate(0.000000,942.000000) scale(0.100000,-0.100000)"
fill="#000000" stroke="none">
<path d="M2360 9402 c-19 -9 -44 -31 -56 -49 -24 -36 -104 -343 -104 -400 0
-52 30 -104 74 -129 35 -20 56 -21 404 -27 512 -9 753 -33 809 -81 59 -51 120
209 -922 -3956 -526 -2104 -967 -3849 -980 -3877 -48 -107 -116 -168 -216
-197 -134 -39 -526 -66 -944 -66 -256 0 -280 -5 -321 -67 -24 -36 -104 -343
-104 -400 0 -54 30 -104 78 -131 l41 -23 253 10 c139 6 576 16 970 23 740 12
1711 3 2425 -23 l301 -11 40 22 c22 12 49 39 60 59 11 20 38 113 61 208 46
190 47 223 3 275 -46 54 -69 58 -324 58 -399 0 -791 28 -894 63 -48 17 -64 45
-64 117 0 41 258 1089 992 4028 l993 3972 2007 0 c1335 0 2008 -3 2008 -10 0
-34 -1966 -7865 -1985 -7907 -48 -107 -116 -168 -216 -197 -134 -39 -526 -66
-944 -66 -256 0 -280 -5 -321 -67 -24 -36 -104 -343 -104 -400 0 -54 30 -104
78 -131 l41 -23 253 10 c139 6 576 16 970 23 740 12 1711 3 2425 -23 l301 -11
40 22 c22 12 49 39 60 59 11 20 38 113 61 208 46 190 47 223 3 275 -46 54 -69
58 -324 58 -399 0 -791 28 -894 63 -49 17 -64 45 -64 120 0 77 1897 7673 1936
7749 35 70 106 142 162 166 111 48 363 71 857 79 345 5 372 7 406 25 20 11 46
37 57 57 31 57 104 373 96 416 -8 45 -48 93 -91 111 -27 12 -780 14 -4695 14
-4419 0 -4665 -1 -4698 -18z"/>
</g>
</svg>
