<?xml version="1.0" standalone="no"?>
<!DOCTYPE svg PUBLIC "-//W3C//DTD SVG 20010904//EN"
 "http://www.w3.org/TR/2001/REC-SVG-20010904/DTD/svg10.dtd">
<svg version="1.0" xmlns="http://www.w3.org/2000/svg"
 width="649.000000pt" height="589.000000pt" viewBox="0 0 649.000000 589.000000"
 preserveAspectRatio="xMidYMid meet">
<metadata>
Created by potrace 1.16, written by Peter Selinger 2001-2019
</metadata>
<g transform="translate(0.000000,589.000000) scale(0.100000,-0.100000)"
fill="#000000" stroke="none">
<path d="M1885 5876 c-551 -87 -1075 -518 -1600 -1316 -124 -189 -262 -417
-276 -459 -14 -40 2 -88 42 -127 30 -28 33 -29 139 -29 130 0 123 -5 227 155
324 496 784 844 1261 952 94 21 119 22 794 25 l697 4 -8 -28 c-5 -15 -323
-1054 -707 -2308 l-699 -2280 0 -95 c0 -84 3 -102 29 -157 76 -165 281 -249
481 -198 188 48 340 179 404 349 14 39 670 3386 902 4604 l21 112 1232 0
c1335 0 1275 -2 1392 55 70 34 161 125 201 200 114 217 62 436 -126 524 l-56
26 -2135 2 c-1671 1 -2152 -2 -2215 -11z"/>
</g>
</svg>
