<?xml version="1.0" standalone="no"?>
<!DOCTYPE svg PUBLIC "-//W3C//DTD SVG 20010904//EN"
 "http://www.w3.org/TR/2001/REC-SVG-20010904/DTD/svg10.dtd">
<svg version="1.0" xmlns="http://www.w3.org/2000/svg"
 width="574.000000pt" height="845.000000pt" viewBox="0 0 574.000000 845.000000"
 preserveAspectRatio="xMidYMid meet">
<metadata>
Created by potrace 1.16, written by Peter Selinger 2001-2019
</metadata>
<g transform="translate(0.000000,845.000000) scale(0.100000,-0.100000)"
fill="#000000" stroke="none">
<path d="M3640 8439 c-635 -71 -1332 -462 -1863 -1044 -450 -493 -777 -1060
-970 -1685 -38 -123 -220 -843 -336 -1330 -454 -1910 -568 -2920 -381 -3387
112 -280 348 -478 713 -598 405 -132 918 -164 1737 -105 395 28 730 36 915 21
178 -14 221 -24 258 -59 24 -23 27 -33 27 -91 0 -77 13 -107 59 -138 29 -19
47 -23 118 -23 94 0 141 16 168 56 51 78 76 403 42 534 -63 238 -185 338 -487
400 -265 54 -545 70 -1440 80 -404 5 -782 14 -840 19 -271 28 -493 85 -622
160 -79 45 -185 150 -221 218 -51 96 -69 189 -74 394 -8 280 19 568 98 1044
39 229 166 875 175 884 6 7 8 3 43 -104 120 -361 327 -672 590 -883 220 -177
457 -287 743 -344 152 -30 475 -33 643 -5 500 84 973 304 1427 665 171 136
494 459 631 632 399 502 675 1056 827 1660 88 346 115 588 107 952 -6 337 -38
526 -136 810 -249 722 -807 1185 -1526 1268 -104 11 -317 11 -425 -1z m413
-358 c137 -36 228 -91 347 -211 111 -111 159 -183 226 -339 132 -304 152 -752
59 -1305 -63 -371 -263 -1168 -385 -1536 -105 -315 -260 -654 -400 -878 -356
-568 -853 -958 -1312 -1028 -116 -18 -263 -14 -366 11 -357 85 -622 410 -717
879 -86 429 -42 930 150 1706 141 568 266 937 436 1285 385 790 996 1341 1594
1435 92 14 278 4 368 -19z"/>
</g>
</svg>
