<?xml version="1.0" standalone="no"?>
<!DOCTYPE svg PUBLIC "-//W3C//DTD SVG 20010904//EN"
 "http://www.w3.org/TR/2001/REC-SVG-20010904/DTD/svg10.dtd">
<svg version="1.0" xmlns="http://www.w3.org/2000/svg"
 width="603.000000pt" height="880.000000pt" viewBox="0 0 603.000000 880.000000"
 preserveAspectRatio="xMidYMid meet">
<metadata>
Created by potrace 1.16, written by Peter Selinger 2001-2019
</metadata>
<g transform="translate(0.000000,880.000000) scale(0.100000,-0.100000)"
fill="#000000" stroke="none">
<path d="M3805 8789 c-412 -50 -853 -223 -1260 -495 -761 -508 -1395 -1372
-1694 -2309 -46 -143 -245 -929 -376 -1484 -356 -1512 -498 -2432 -464 -3023
13 -235 50 -388 130 -536 148 -277 423 -464 834 -570 249 -64 473 -90 850 -99
278 -6 441 1 915 38 353 27 661 35 845 20 184 -15 216 -23 250 -63 25 -29 26
-36 20 -97 -5 -56 -3 -71 15 -99 37 -60 70 -72 205 -72 184 0 207 19 245 207
65 323 17 570 -141 722 -104 99 -291 157 -634 195 -262 29 -479 38 -1235 46
-415 5 -802 14 -860 19 -495 51 -749 168 -860 395 -55 111 -70 209 -70 445 0
261 27 532 95 941 49 294 167 882 175 873 4 -4 22 -46 40 -93 242 -619 711
-1036 1315 -1169 464 -102 1021 -13 1553 249 391 192 690 408 1018 735 375
375 625 722 861 1199 605 1226 585 2516 -52 3331 -75 96 -243 261 -340 332
-232 173 -512 293 -805 345 -133 23 -446 33 -575 17z m330 -409 c537 -77 851
-637 797 -1423 -24 -335 -78 -627 -228 -1229 -171 -687 -270 -1001 -424 -1338
-343 -755 -928 -1307 -1505 -1421 -88 -18 -320 -18 -400 0 -396 87 -684 436
-770 936 -75 432 -25 920 174 1720 113 454 190 707 308 1005 303 770 781 1347
1338 1615 158 76 278 112 465 139 53 7 178 5 245 -4z"/>
</g>
</svg>
