<?xml version="1.0" standalone="no"?>
<!DOCTYPE svg PUBLIC "-//W3C//DTD SVG 20010904//EN"
 "http://www.w3.org/TR/2001/REC-SVG-20010904/DTD/svg10.dtd">
<svg version="1.0" xmlns="http://www.w3.org/2000/svg"
 width="537.000000pt" height="626.000000pt" viewBox="0 0 537.000000 626.000000"
 preserveAspectRatio="xMidYMid meet">
<metadata>
Created by potrace 1.16, written by Peter Selinger 2001-2019
</metadata>
<g transform="translate(0.000000,626.000000) scale(0.100000,-0.100000)"
fill="#000000" stroke="none">
<path d="M3405 6249 c-241 -22 -560 -90 -805 -174 -1217 -416 -2179 -1410
-2469 -2550 -135 -533 -167 -1076 -90 -1549 24 -149 87 -394 134 -524 53 -143
183 -402 263 -522 325 -489 799 -797 1387 -901 113 -20 163 -23 390 -24 148 0
314 6 385 13 834 89 1609 404 2190 893 129 109 364 345 457 459 100 124 113
147 113 200 0 53 -11 72 -99 163 -61 64 -97 87 -134 87 -59 0 -87 -21 -184
-144 -614 -769 -1638 -1255 -2658 -1260 -244 -1 -316 11 -471 75 -339 141
-596 499 -683 951 -46 240 -56 555 -26 845 26 250 113 727 176 966 l10 37 367
0 c1296 1 2045 110 2597 379 449 219 730 528 870 956 131 400 93 747 -117
1052 -66 95 -216 239 -323 309 -337 219 -766 307 -1280 263z m410 -410 c440
-54 742 -297 810 -652 48 -251 -36 -564 -212 -795 -291 -381 -859 -592 -1788
-662 -390 -29 -1225 -42 -1225 -18 0 21 81 280 127 403 235 635 554 1064 1028
1380 398 265 863 392 1260 344z"/>
</g>
</svg>
