<?xml version="1.0" standalone="no"?>
<!DOCTYPE svg PUBLIC "-//W3C//DTD SVG 20010904//EN"
 "http://www.w3.org/TR/2001/REC-SVG-20010904/DTD/svg10.dtd">
<svg version="1.0" xmlns="http://www.w3.org/2000/svg"
 width="646.000000pt" height="895.000000pt" viewBox="0 0 646.000000 895.000000"
 preserveAspectRatio="xMidYMid meet">
<metadata>
Created by potrace 1.16, written by Peter Selinger 2001-2019
</metadata>
<g transform="translate(0.000000,895.000000) scale(0.100000,-0.100000)"
fill="#000000" stroke="none">
<path d="M3985 8943 c-377 -44 -676 -137 -1013 -314 -349 -182 -630 -396 -947
-720 -460 -470 -812 -1052 -1021 -1685 -282 -854 -267 -1681 41 -2323 113
-233 226 -392 404 -563 262 -253 565 -405 946 -474 118 -22 361 -29 485 -15
126 15 331 66 458 115 277 106 641 335 865 544 26 25 47 42 47 38 0 -3 -95
-385 -211 -849 -159 -638 -221 -870 -255 -957 -259 -654 -849 -1176 -1471
-1301 -251 -50 -935 -31 -1300 37 -51 10 -93 20 -93 23 0 3 30 23 66 44 129
76 257 221 320 364 41 91 74 235 74 322 0 321 -248 539 -589 518 -446 -27
-781 -394 -784 -857 0 -138 17 -211 76 -324 47 -91 133 -188 222 -251 193
-137 518 -238 900 -279 366 -40 948 -45 1195 -11 1176 161 2128 845 2430 1746
17 51 387 1515 822 3253 754 3012 791 3165 791 3251 0 70 -5 103 -22 148 -47
120 -148 206 -286 241 -172 45 -388 -17 -537 -154 -82 -75 -131 -158 -182
-304 -5 -15 -15 -5 -52 54 -103 168 -258 336 -409 443 -38 27 -124 76 -190
108 -204 99 -389 140 -620 137 -71 0 -143 -3 -160 -5z m363 -427 c294 -63 553
-292 711 -627 53 -113 120 -313 142 -423 l13 -69 -368 -1474 -369 -1474 -55
-77 c-425 -594 -953 -993 -1452 -1099 -115 -24 -339 -24 -430 1 -143 39 -286
129 -379 239 -310 367 -362 933 -166 1827 45 209 204 843 266 1063 209 743
472 1247 850 1626 272 273 569 446 854 496 98 17 280 13 383 -9z"/>
</g>
</svg>
