<?xml version="1.0" standalone="no"?>
<!DOCTYPE svg PUBLIC "-//W3C//DTD SVG 20010904//EN"
 "http://www.w3.org/TR/2001/REC-SVG-20010904/DTD/svg10.dtd">
<svg version="1.0" xmlns="http://www.w3.org/2000/svg"
 width="668.000000pt" height="911.000000pt" viewBox="0 0 668.000000 911.000000"
 preserveAspectRatio="xMidYMid meet">
<metadata>
Created by potrace 1.16, written by Peter Selinger 2001-2019
</metadata>
<g transform="translate(0.000000,911.000000) scale(0.100000,-0.100000)"
fill="#000000" stroke="none">
<path d="M1405 9104 c-143 -24 -315 -93 -436 -175 -92 -62 -230 -199 -315
-311 -237 -316 -421 -755 -604 -1448 -57 -219 -57 -240 0 -295 l31 -30 184 -3
c257 -4 254 -6 311 210 97 368 130 486 176 628 188 575 390 861 646 911 72 13
173 7 225 -15 198 -82 263 -414 176 -899 -11 -59 -256 -1054 -545 -2210 l-526
-2102 5 -95 c5 -124 31 -192 102 -269 155 -167 415 -197 660 -77 142 71 265
200 324 341 18 42 215 813 486 1895 444 1778 457 1827 502 1910 111 205 254
425 397 610 103 132 322 359 440 454 332 269 684 416 1095 456 313 30 471 -10
623 -161 91 -89 134 -170 172 -319 63 -248 55 -562 -24 -951 -12 -57 -387
-1569 -835 -3359 -447 -1790 -816 -3282 -820 -3315 -8 -75 13 -182 50 -255 76
-150 252 -239 450 -227 268 15 498 182 601 434 37 93 1638 6514 1668 6690 98
580 28 1028 -216 1384 -272 399 -822 618 -1492 596 -203 -7 -333 -24 -515 -68
-340 -83 -696 -261 -991 -495 -97 -77 -382 -355 -450 -438 -25 -30 -48 -55
-51 -56 -4 0 -9 18 -13 40 -3 23 -20 85 -37 138 -141 441 -500 748 -998 852
-95 20 -386 35 -456 24z"/>
</g>
</svg>
