<?xml version="1.0" standalone="no"?>
<!DOCTYPE svg PUBLIC "-//W3C//DTD SVG 20010904//EN"
 "http://www.w3.org/TR/2001/REC-SVG-20010904/DTD/svg10.dtd">
<svg version="1.0" xmlns="http://www.w3.org/2000/svg"
 width="661.000000pt" height="602.000000pt" viewBox="0 0 661.000000 602.000000"
 preserveAspectRatio="xMidYMid meet">
<metadata>
Created by potrace 1.16, written by Peter Selinger 2001-2019
</metadata>
<g transform="translate(0.000000,602.000000) scale(0.100000,-0.100000)"
fill="#000000" stroke="none">
<path d="M2340 6010 c-189 -26 -390 -90 -572 -181 -232 -116 -407 -246 -613
-453 -326 -328 -574 -737 -718 -1181 -71 -221 -74 -235 -51 -280 33 -67 61
-80 174 -80 149 0 145 -5 234 275 133 417 367 796 676 1093 270 261 567 418
870 463 281 41 482 -15 646 -181 66 -66 90 -100 128 -176 79 -161 90 -218 90
-479 1 -203 -2 -241 -27 -385 -38 -211 -716 -2927 -763 -3053 -173 -462 -463
-821 -787 -972 -136 -63 -191 -75 -367 -74 -228 1 -403 39 -573 127 l-79 40
74 18 c40 11 115 40 167 65 78 39 108 61 185 138 109 108 164 204 202 353 50
200 20 360 -94 484 -196 214 -578 210 -855 -10 -181 -144 -287 -377 -287 -633
0 -134 19 -226 71 -338 161 -346 574 -565 1109 -587 247 -10 406 24 625 132
72 35 171 95 220 131 194 145 405 385 542 615 31 54 60 96 64 93 4 -2 10 -16
13 -30 13 -52 97 -214 158 -306 37 -56 105 -136 172 -204 214 -213 445 -334
777 -405 88 -19 135 -23 309 -23 176 0 220 3 310 23 399 85 746 284 1075 615
326 328 574 737 718 1181 71 221 74 235 51 280 -33 67 -61 80 -174 80 -149 0
-145 5 -234 -275 -133 -417 -367 -796 -676 -1093 -270 -261 -567 -418 -870
-463 -281 -41 -482 15 -646 181 -66 66 -90 100 -128 176 -70 143 -87 222 -93
429 -6 197 8 328 57 570 59 283 696 2812 735 2915 177 469 463 823 788 975
136 63 191 75 367 74 228 -1 403 -39 573 -127 l79 -40 -74 -18 c-40 -11 -115
-40 -167 -65 -78 -39 -108 -61 -185 -138 -109 -108 -164 -204 -202 -353 -50
-200 -20 -360 94 -484 196 -214 578 -210 855 10 185 147 287 374 287 637 0
130 -20 223 -71 334 -161 346 -574 565 -1109 587 -247 10 -406 -24 -625 -132
-71 -35 -170 -95 -220 -131 -194 -145 -405 -385 -542 -615 -31 -54 -60 -96
-64 -93 -4 2 -10 16 -13 30 -13 52 -97 214 -158 306 -37 56 -105 136 -172 204
-213 212 -448 335 -772 404 -113 24 -404 35 -514 20z"/>
</g>
</svg>
