<?xml version="1.0" standalone="no"?>
<!DOCTYPE svg PUBLIC "-//W3C//DTD SVG 20010904//EN"
 "http://www.w3.org/TR/2001/REC-SVG-20010904/DTD/svg10.dtd">
<svg version="1.0" xmlns="http://www.w3.org/2000/svg"
 width="1405.000000pt" height="946.000000pt" viewBox="0 0 1405.000000 946.000000"
 preserveAspectRatio="xMidYMid meet">
<metadata>
Created by potrace 1.16, written by Peter Selinger 2001-2019
</metadata>
<g transform="translate(0.000000,946.000000) scale(0.100000,-0.100000)"
fill="#000000" stroke="none">
<path d="M2368 9439 c-21 -10 -45 -31 -54 -44 -19 -30 -103 -356 -104 -403 0
-49 32 -104 76 -128 37 -20 57 -22 404 -27 509 -9 751 -33 807 -81 59 -51 116
195 -881 -3794 -504 -2015 -927 -3690 -941 -3723 -53 -130 -180 -284 -307
-370 -123 -84 -320 -161 -506 -198 -140 -28 -262 -41 -477 -48 -206 -6 -247
-16 -281 -68 -19 -30 -103 -356 -104 -403 0 -50 32 -104 78 -130 40 -22 42
-22 244 -13 112 6 465 16 786 23 601 12 1390 3 1941 -23 264 -13 291 -9 339
45 24 28 37 65 77 228 l49 195 -25 48 c-42 85 -52 89 -271 97 -234 9 -351 22
-488 54 -114 27 -261 92 -323 144 -89 75 -131 177 -129 315 1 84 67 350 931
3800 510 2041 931 3703 934 3695 3 -8 247 -1921 542 -4250 295 -2329 540
-4249 546 -4267 13 -41 67 -89 117 -104 24 -7 89 -10 173 -7 156 4 198 18 271
89 30 31 877 1373 2743 4351 1485 2369 2701 4306 2702 4304 8 -8 -1951 -7816
-1972 -7863 -48 -107 -116 -168 -216 -197 -135 -39 -521 -66 -942 -66 -208 0
-231 -2 -267 -20 -22 -11 -47 -31 -56 -45 -19 -30 -103 -356 -104 -403 0 -50
32 -104 78 -130 l41 -22 268 10 c1000 38 2195 38 3235 -1 341 -12 357 -11 406
45 24 28 37 66 77 228 l49 195 -25 48 c-46 93 -29 89 -447 97 -551 10 -799 37
-838 92 -38 55 -58 -31 946 3987 655 2620 969 3856 986 3891 35 70 106 142
162 166 111 47 364 71 847 78 198 3 374 10 392 15 66 21 86 59 138 271 l49
195 -25 48 c-13 27 -37 58 -52 69 -28 21 -33 21 -1365 21 l-1337 0 -45 -21
c-25 -12 -63 -37 -85 -57 -29 -25 -717 -1116 -2465 -3905 -1724 -2751 -2427
-3865 -2432 -3854 -4 10 -226 1745 -493 3857 -267 2112 -490 3854 -496 3871
-12 39 -53 78 -101 98 -33 14 -189 16 -1390 16 -1327 -1 -1354 -1 -1390 -21z"/>
</g>
</svg>
