<?xml version="1.0" standalone="no"?>
<!DOCTYPE svg PUBLIC "-//W3C//DTD SVG 20010904//EN"
 "http://www.w3.org/TR/2001/REC-SVG-20010904/DTD/svg10.dtd">
<svg version="1.0" xmlns="http://www.w3.org/2000/svg"
 width="568.000000pt" height="626.000000pt" viewBox="0 0 568.000000 626.000000"
 preserveAspectRatio="xMidYMid meet">
<metadata>
Created by potrace 1.16, written by Peter Selinger 2001-2019
</metadata>
<g transform="translate(0.000000,626.000000) scale(0.100000,-0.100000)"
fill="#000000" stroke="none">
<path d="M1350 6241 c-231 -52 -406 -154 -579 -337 -299 -316 -525 -821 -741
-1661 -36 -139 -33 -167 21 -219 l30 -29 187 -3 c172 -2 190 -1 219 17 44 28
54 51 107 261 133 520 228 801 352 1041 97 186 223 332 336 390 100 51 253 62
344 24 196 -81 260 -415 173 -898 -11 -59 -256 -1054 -545 -2210 l-526 -2102
5 -95 c5 -124 31 -192 102 -269 155 -167 415 -197 660 -77 142 71 265 200 324
341 18 42 226 855 515 2015 309 1238 495 1965 512 2000 76 161 263 455 395
622 45 56 128 150 183 207 258 264 507 411 793 468 123 24 355 24 442 -1 86
-23 186 -75 240 -123 l44 -39 -86 -23 c-269 -71 -491 -260 -597 -508 -101
-239 -98 -474 8 -639 271 -418 1009 -296 1279 212 85 162 123 329 123 548 0
157 -13 248 -54 370 -55 164 -138 295 -259 413 -211 205 -459 306 -782 320
-591 24 -1166 -243 -1618 -753 -50 -57 -95 -104 -99 -104 -3 0 -12 17 -19 38
-6 20 -31 75 -54 122 -174 345 -496 580 -922 670 -146 31 -400 36 -513 11z"/>
</g>
</svg>
