<?xml version="1.0" standalone="no"?>
<!DOCTYPE svg PUBLIC "-//W3C//DTD SVG 20010904//EN"
 "http://www.w3.org/TR/2001/REC-SVG-20010904/DTD/svg10.dtd">
<svg version="1.0" xmlns="http://www.w3.org/2000/svg"
 width="993.000000pt" height="908.000000pt" viewBox="0 0 993.000000 908.000000"
 preserveAspectRatio="xMidYMid meet">
<metadata>
Created by potrace 1.16, written by Peter Selinger 2001-2019
</metadata>
<g transform="translate(0.000000,908.000000) scale(0.100000,-0.100000)"
fill="#000000" stroke="none">
<path d="M2274 9061 c-51 -31 -70 -66 -98 -178 -20 -82 -24 -115 -17 -138 5
-16 477 -1081 1050 -2365 l1040 -2335 -42 -42 c-23 -22 -969 -874 -2102 -1892
-1133 -1018 -2070 -1865 -2083 -1882 -47 -68 -20 -169 58 -210 34 -18 154 -19
3786 -19 l3751 0 33 23 c18 12 41 33 51 47 10 14 264 675 565 1470 423 1116
548 1455 547 1488 0 49 -22 85 -73 120 -27 18 -47 22 -107 22 -122 0 -153 -26
-211 -180 -363 -950 -794 -1573 -1347 -1945 -303 -204 -766 -337 -1390 -400
-502 -50 -852 -57 -2865 -53 l-1756 3 2135 1920 c1174 1056 2144 1933 2155
1948 49 66 94 -44 -880 2142 l-900 2020 1580 3 c2121 4 2490 -9 2990 -109 400
-79 624 -181 782 -353 206 -224 319 -536 354 -980 18 -229 11 -447 -26 -836
-16 -167 -16 -177 1 -213 31 -65 66 -82 170 -82 102 0 140 17 168 77 15 33
327 2702 327 2801 0 54 -31 105 -80 129 -33 17 -235 18 -3785 18 -3655 0
-3751 -1 -3781 -19z"/>
</g>
</svg>
