<?xml version="1.0" standalone="no"?>
<!DOCTYPE svg PUBLIC "-//W3C//DTD SVG 20010904//EN"
 "http://www.w3.org/TR/2001/REC-SVG-20010904/DTD/svg10.dtd">
<svg version="1.0" xmlns="http://www.w3.org/2000/svg"
 width="543.000000pt" height="1003.000000pt" viewBox="0 0 543.000000 1003.000000"
 preserveAspectRatio="xMidYMid meet">
<metadata>
Created by potrace 1.16, written by Peter Selinger 2001-2019
</metadata>
<g transform="translate(0.000000,1003.000000) scale(0.100000,-0.100000)"
fill="#000000" stroke="none">
<path d="M4423 10016 c-459 -87 -875 -443 -1338 -1146 -652 -988 -1100 -1989
-1470 -3284 -286 -1000 -429 -1825 -452 -2614 l-6 -223 -316 -308 c-174 -169
-428 -415 -566 -546 -137 -132 -255 -248 -262 -260 -7 -11 -12 -41 -13 -67 0
-44 6 -55 88 -165 105 -139 118 -152 165 -160 79 -12 47 -38 579 474 318 306
368 350 372 331 3 -13 16 -95 30 -183 192 -1188 689 -1829 1446 -1862 296 -13
578 53 905 211 380 183 727 438 1224 899 96 89 182 175 192 192 21 34 25 96 7
128 -6 12 -49 72 -95 134 -71 94 -92 115 -128 129 -68 26 -101 9 -230 -115
-717 -691 -1173 -993 -1595 -1057 -337 -50 -543 53 -680 341 -189 397 -241
1190 -134 2039 l17 131 61 65 c33 36 124 133 201 215 1152 1229 1947 2351
2431 3431 362 808 586 1732 561 2309 -16 362 -97 594 -267 765 -85 85 -186
144 -310 180 -96 28 -310 36 -417 16z m270 -517 c55 -18 122 -81 150 -142 42
-89 52 -157 51 -352 -1 -264 -42 -509 -166 -1000 -314 -1250 -1001 -2437
-2216 -3828 -90 -103 -165 -187 -166 -187 -11 0 388 1611 529 2140 322 1208
543 1840 890 2545 163 330 291 528 432 668 93 92 177 146 260 167 48 12 186 5
236 -11z"/>
</g>
</svg>
