<?xml version="1.0" standalone="no"?>
<!DOCTYPE svg PUBLIC "-//W3C//DTD SVG 20010904//EN"
 "http://www.w3.org/TR/2001/REC-SVG-20010904/DTD/svg10.dtd">
<svg version="1.0" xmlns="http://www.w3.org/2000/svg"
 width="945.000000pt" height="968.000000pt" viewBox="0 0 945.000000 968.000000"
 preserveAspectRatio="xMidYMid meet">
<metadata>
Created by potrace 1.16, written by Peter Selinger 2001-2019
</metadata>
<g transform="translate(0.000000,968.000000) scale(0.100000,-0.100000)"
fill="#000000" stroke="none">
<path d="M5640 9670 c-1173 -90 -2353 -607 -3386 -1484 -185 -157 -617 -594
-773 -781 -366 -440 -624 -834 -870 -1325 -741 -1485 -808 -3056 -180 -4259
509 -975 1440 -1614 2594 -1780 840 -121 1795 28 2529 396 301 151 516 302
735 519 l143 142 16 -41 c73 -192 272 -489 459 -684 83 -85 147 -96 213 -35
28 26 45 92 370 1387 187 748 352 1394 366 1436 55 169 119 232 271 268 105
24 305 41 496 41 206 0 228 16 273 188 30 114 28 154 -13 202 -49 59 -62 62
-275 50 -482 -25 -1153 -33 -1890 -21 -403 6 -885 16 -1069 22 -434 14 -423
18 -474 -181 -30 -117 -28 -153 12 -200 48 -58 59 -60 330 -60 565 0 1003 -39
1105 -98 41 -24 61 -79 60 -169 -1 -66 -24 -173 -161 -720 -189 -756 -203
-795 -351 -1017 -79 -117 -249 -301 -369 -398 -391 -316 -934 -528 -1536 -600
-163 -19 -577 -16 -740 6 -632 86 -1137 319 -1526 706 -410 408 -628 879 -715
1540 -22 169 -30 605 -15 812 74 1007 435 2259 891 3088 282 515 563 894 940
1270 738 737 1642 1196 2595 1316 195 25 567 25 722 1 299 -47 545 -139 773
-292 442 -295 762 -818 890 -1455 87 -431 99 -841 38 -1328 -20 -162 -20 -175
-5 -208 30 -62 64 -74 212 -74 111 0 135 3 162 20 17 10 37 28 43 40 18 33
910 3604 910 3641 0 46 -19 79 -59 106 -45 30 -141 32 -187 4 -17 -10 -248
-259 -514 -552 -266 -294 -497 -549 -514 -567 l-32 -33 -59 87 c-143 211 -352
434 -543 582 -318 244 -709 407 -1138 472 -159 25 -556 35 -754 20z"/>
</g>
</svg>
