<?xml version="1.0" standalone="no"?>
<!DOCTYPE svg PUBLIC "-//W3C//DTD SVG 20010904//EN"
 "http://www.w3.org/TR/2001/REC-SVG-20010904/DTD/svg10.dtd">
<svg version="1.0" xmlns="http://www.w3.org/2000/svg"
 width="885.000000pt" height="908.000000pt" viewBox="0 0 885.000000 908.000000"
 preserveAspectRatio="xMidYMid meet">
<metadata>
Created by potrace 1.16, written by Peter Selinger 2001-2019
</metadata>
<g transform="translate(0.000000,908.000000) scale(0.100000,-0.100000)"
fill="#000000" stroke="none">
<path d="M2610 9058 c-18 -13 -41 -34 -51 -48 -10 -14 -207 -648 -439 -1410
-334 -1097 -421 -1392 -417 -1422 11 -84 74 -128 182 -128 76 0 128 20 153 58
9 14 46 115 83 226 338 1018 793 1627 1468 1965 307 154 651 250 1066 295 285
31 577 37 1675 34 l1086 -3 -3663 -4110 c-2015 -2261 -3671 -4126 -3681 -4145
-11 -19 -31 -85 -47 -147 -32 -131 -26 -170 29 -204 30 -19 93 -19 3182 -19
l3151 0 33 22 c18 13 41 34 51 48 10 14 255 774 544 1689 427 1349 526 1672
522 1702 -11 85 -74 129 -182 129 -76 0 -126 -19 -153 -59 -10 -14 -60 -154
-111 -311 -206 -634 -352 -989 -542 -1320 -474 -828 -1149 -1254 -2171 -1369
-316 -36 -606 -42 -1799 -39 l-1136 3 3644 4090 c2005 2250 3657 4107 3673
4127 19 26 36 73 55 147 32 128 26 169 -29 202 -30 19 -92 19 -3087 19 l-3056
0 -33 -22z"/>
</g>
</svg>
