<?xml version="1.0" standalone="no"?>
<!DOCTYPE svg PUBLIC "-//W3C//DTD SVG 20010904//EN"
 "http://www.w3.org/TR/2001/REC-SVG-20010904/DTD/svg10.dtd">
<svg version="1.0" xmlns="http://www.w3.org/2000/svg"
 width="725.000000pt" height="890.000000pt" viewBox="0 0 725.000000 890.000000"
 preserveAspectRatio="xMidYMid meet">
<metadata>
Created by potrace 1.16, written by Peter Selinger 2001-2019
</metadata>
<g transform="translate(0.000000,890.000000) scale(0.100000,-0.100000)"
fill="#000000" stroke="none">
<path d="M2195 8893 c-120 -18 -293 -78 -405 -140 -575 -318 -1124 -1080
-1420 -1973 -165 -496 -255 -967 -267 -1390 -8 -318 18 -540 94 -775 70 -216
141 -345 318 -571 71 -90 100 -135 95 -145 -15 -27 -179 -525 -220 -667 -121
-424 -274 -1096 -335 -1472 -51 -318 -70 -694 -45 -900 36 -293 132 -508 293
-655 221 -203 602 -261 950 -144 456 152 896 581 1151 1121 166 351 250 704
249 1053 -1 293 -60 524 -188 734 -19 32 -298 395 -619 806 l-584 748 53 112
c29 62 94 190 145 285 850 1593 2016 2661 3244 2971 260 66 613 107 816 96
233 -13 418 -99 570 -264 279 -305 370 -801 269 -1473 -78 -515 -281 -1259
-455 -1668 -352 -824 -949 -1397 -1559 -1498 -199 -32 -399 -4 -575 82 -80 40
-109 61 -186 138 -77 77 -98 106 -137 186 -55 112 -76 185 -84 297 -5 75 -4
83 13 88 52 17 128 58 163 91 51 45 107 157 116 228 16 126 -61 247 -181 282
-163 47 -347 -41 -420 -201 -52 -113 -82 -362 -64 -530 54 -515 387 -876 912
-992 113 -25 428 -24 573 1 765 131 1491 629 2042 1398 378 527 635 1189 708
1823 17 152 20 501 4 643 -27 249 -110 543 -213 755 -265 542 -738 881 -1326
948 -128 14 -432 7 -610 -16 -598 -76 -1196 -309 -1757 -686 -437 -293 -904
-726 -1288 -1194 -347 -422 -718 -992 -959 -1474 -31 -61 -61 -109 -66 -106
-15 9 -96 136 -127 200 -39 79 -78 198 -100 310 -25 126 -25 509 0 680 74 509
214 993 403 1393 190 404 499 815 738 984 137 96 225 132 364 148 69 7 80 12
108 42 21 23 36 56 48 102 20 81 12 117 -35 162 -28 26 -37 29 -107 30 -42 1
-90 0 -107 -3z m-824 -5943 c255 -327 483 -623 505 -657 219 -324 108 -1019
-236 -1483 -179 -241 -405 -411 -606 -456 -137 -30 -317 -5 -426 59 -192 112
-280 409 -250 840 27 375 98 750 278 1470 82 328 111 435 181 656 62 201 61
197 77 180 7 -8 222 -282 477 -609z"/>
</g>
</svg>
