<?xml version="1.0" standalone="no"?>
<!DOCTYPE svg PUBLIC "-//W3C//DTD SVG 20010904//EN"
 "http://www.w3.org/TR/2001/REC-SVG-20010904/DTD/svg10.dtd">
<svg version="1.0" xmlns="http://www.w3.org/2000/svg"
 width="369.000000pt" height="1026.000000pt" viewBox="0 0 369.000000 1026.000000"
 preserveAspectRatio="xMidYMid meet">
<metadata>
Created by potrace 1.16, written by Peter Selinger 2001-2019
</metadata>
<g transform="translate(0.000000,1026.000000) scale(0.100000,-0.100000)"
fill="#000000" stroke="none">
<path d="M80 10238 c-19 -13 -45 -39 -57 -57 l-23 -34 0 -5014 c0 -4606 1
-5018 16 -5049 29 -62 66 -79 169 -79 l90 0 201 136 c1317 894 2144 1681 2643
2514 359 600 539 1188 558 1825 8 288 -14 457 -92 700 -96 297 -243 529 -481
760 -244 236 -525 385 -863 457 -116 25 -144 27 -356 27 -310 0 -529 -33 -795
-120 -262 -86 -510 -224 -677 -378 l-43 -39 0 2128 c0 1942 -1 2130 -16 2161
-28 58 -67 79 -159 82 -71 3 -84 1 -115 -20z m1825 -4343 c118 -25 208 -76
305 -174 171 -173 283 -439 337 -798 24 -163 24 -542 -1 -743 -62 -515 -184
-922 -421 -1405 -117 -240 -205 -391 -360 -625 -320 -484 -749 -988 -1234
-1449 l-161 -154 2 2304 3 2304 23 70 c83 247 279 426 605 552 268 103 702
160 902 118z"/>
</g>
</svg>
