<?xml version="1.0" standalone="no"?>
<!DOCTYPE svg PUBLIC "-//W3C//DTD SVG 20010904//EN"
 "http://www.w3.org/TR/2001/REC-SVG-20010904/DTD/svg10.dtd">
<svg version="1.0" xmlns="http://www.w3.org/2000/svg"
 width="846.000000pt" height="802.000000pt" viewBox="0 0 846.000000 802.000000"
 preserveAspectRatio="xMidYMid meet">
<metadata>
Created by potrace 1.16, written by Peter Selinger 2001-2019
</metadata>
<g transform="translate(0.000000,802.000000) scale(0.100000,-0.100000)"
fill="#000000" stroke="none">
<path d="M8080 8005 c-19 -7 -1815 -854 -3990 -1883 -3743 -1769 -3958 -1872
-4007 -1919 -41 -40 -55 -63 -69 -109 -31 -108 -1 -221 79 -290 30 -25 1181
-574 4022 -1917 3567 -1686 3986 -1881 4036 -1885 171 -13 314 135 296 305 -7
72 -40 135 -90 179 -30 25 -1098 535 -3725 1776 -2025 958 -3682 1744 -3682
1748 0 4 1657 790 3683 1748 2626 1241 3694 1751 3724 1776 80 69 110 182 79
291 -42 143 -219 233 -356 180z"/>
</g>
</svg>
