<?xml version="1.0" standalone="no"?>
<!DOCTYPE svg PUBLIC "-//W3C//DTD SVG 20010904//EN"
 "http://www.w3.org/TR/2001/REC-SVG-20010904/DTD/svg10.dtd">
<svg version="1.0" xmlns="http://www.w3.org/2000/svg"
 width="541.000000pt" height="626.000000pt" viewBox="0 0 541.000000 626.000000"
 preserveAspectRatio="xMidYMid meet">
<metadata>
Created by potrace 1.16, written by Peter Selinger 2001-2019
</metadata>
<g transform="translate(0.000000,626.000000) scale(0.100000,-0.100000)"
fill="#000000" stroke="none">
<path d="M3520 6253 c-293 -27 -407 -46 -645 -108 -831 -214 -1593 -714 -2135
-1400 -192 -244 -399 -608 -509 -899 -91 -241 -170 -586 -207 -901 -25 -208
-25 -628 -1 -816 116 -900 554 -1569 1250 -1910 305 -149 621 -219 986 -219
933 0 1879 317 2551 855 200 160 460 423 551 559 66 98 54 133 -99 289 -94 95
-125 117 -169 117 -47 0 -87 -31 -168 -130 -573 -699 -1510 -1140 -2505 -1177
-261 -9 -416 18 -596 107 -415 205 -644 675 -644 1319 0 301 63 737 173 1201
l22 95 490 6 c478 6 562 9 870 30 917 62 1564 257 1987 598 316 254 528 650
570 1063 20 202 -17 402 -112 593 -61 124 -125 209 -235 313 -235 223 -591
372 -984 412 -94 9 -357 11 -441 3z m435 -531 c287 -62 508 -218 610 -433 50
-106 68 -201 62 -329 -13 -283 -151 -552 -375 -731 -316 -253 -783 -389 -1532
-449 -356 -28 -1210 -42 -1210 -20 0 31 157 475 210 595 216 488 509 836 918
1089 257 158 555 262 848 296 120 13 364 4 469 -18z"/>
</g>
</svg>
