<?xml version="1.0" standalone="no"?>
<!DOCTYPE svg PUBLIC "-//W3C//DTD SVG 20010904//EN"
 "http://www.w3.org/TR/2001/REC-SVG-20010904/DTD/svg10.dtd">
<svg version="1.0" xmlns="http://www.w3.org/2000/svg"
 width="980.000000pt" height="977.000000pt" viewBox="0 0 980.000000 977.000000"
 preserveAspectRatio="xMidYMid meet">
<metadata>
Created by potrace 1.16, written by Peter Selinger 2001-2019
</metadata>
<g transform="translate(0.000000,977.000000) scale(0.100000,-0.100000)"
fill="#000000" stroke="none">
<path d="M300 9753 c-19 -10 -44 -32 -56 -50 -24 -36 -104 -343 -104 -400 0
-52 30 -104 74 -129 35 -20 56 -21 404 -27 512 -9 753 -33 809 -81 59 -51 96
116 -655 -2891 -380 -1518 -699 -2807 -711 -2865 -46 -237 -55 -334 -56 -620
0 -296 6 -366 57 -610 68 -330 218 -687 396 -940 142 -202 362 -432 547 -571
383 -287 852 -471 1395 -546 178 -24 626 -24 800 0 179 25 353 62 525 112
1346 391 2537 1569 3005 2975 43 127 238 891 705 2760 355 1422 657 2614 671
2650 59 150 196 310 345 403 151 94 389 170 629 201 69 9 213 19 320 23 283 8
280 7 349 290 47 193 47 224 -1 279 -46 52 -69 55 -293 44 -110 -5 -462 -15
-782 -22 -602 -12 -1389 -3 -1975 23 -233 11 -248 11 -284 -7 -21 -11 -48 -33
-60 -51 -24 -36 -104 -343 -104 -400 0 -53 30 -104 76 -130 34 -20 54 -23 150
-23 253 0 490 -31 646 -84 175 -59 267 -130 321 -244 30 -63 32 -74 31 -177
l0 -110 -647 -2580 c-355 -1419 -667 -2645 -692 -2725 -448 -1395 -1545 -2392
-2840 -2580 -820 -119 -1493 138 -1818 695 -230 394 -267 958 -112 1730 58
290 1432 5770 1461 5827 35 70 106 142 162 166 111 48 363 71 857 79 345 5
372 7 406 25 52 29 71 71 118 265 46 190 47 223 3 275 -48 57 -64 59 -355 48
-1035 -39 -2247 -37 -3502 5 -162 6 -183 5 -215 -12z"/>
</g>
</svg>
