<?xml version="1.0" standalone="no"?>
<!DOCTYPE svg PUBLIC "-//W3C//DTD SVG 20010904//EN"
 "http://www.w3.org/TR/2001/REC-SVG-20010904/DTD/svg10.dtd">
<svg version="1.0" xmlns="http://www.w3.org/2000/svg"
 width="471.000000pt" height="627.000000pt" viewBox="0 0 471.000000 627.000000"
 preserveAspectRatio="xMidYMid meet">
<metadata>
Created by potrace 1.16, written by Peter Selinger 2001-2019
</metadata>
<g transform="translate(0.000000,627.000000) scale(0.100000,-0.100000)"
fill="#000000" stroke="none">
<path d="M2605 6202 c-339 -211 -662 -335 -1100 -421 -303 -60 -582 -87 -1060
-102 -375 -12 -378 -12 -422 -79 -22 -31 -23 -42 -23 -235 0 -193 1 -204 23
-235 12 -18 35 -43 50 -54 28 -20 39 -21 280 -18 526 5 929 45 1321 131 l126
28 0 -2159 c0 -1627 -3 -2171 -12 -2206 -9 -35 -25 -60 -63 -98 -47 -47 -59
-53 -126 -68 -187 -40 -434 -56 -991 -64 -495 -8 -470 -4 -515 -92 -21 -41
-23 -57 -23 -220 0 -163 2 -179 23 -220 12 -24 35 -53 50 -64 35 -26 50 -26
757 -6 331 9 880 15 1485 15 605 0 1154 -6 1485 -15 708 -20 722 -20 756 6 67
49 69 57 72 267 3 184 2 194 -20 236 -46 90 -21 85 -516 93 -557 8 -804 24
-991 64 -67 15 -79 21 -126 68 -38 38 -54 63 -63 98 -9 35 -12 688 -12 2674
l0 2626 -21 38 c-31 56 -82 80 -166 80 -68 0 -70 -1 -178 -68z"/>
</g>
</svg>
