<?xml version="1.0" standalone="no"?>
<!DOCTYPE svg PUBLIC "-//W3C//DTD SVG 20010904//EN"
 "http://www.w3.org/TR/2001/REC-SVG-20010904/DTD/svg10.dtd">
<svg version="1.0" xmlns="http://www.w3.org/2000/svg"
 width="886.000000pt" height="908.000000pt" viewBox="0 0 886.000000 908.000000"
 preserveAspectRatio="xMidYMid meet">
<metadata>
Created by potrace 1.16, written by Peter Selinger 2001-2019
</metadata>
<g transform="translate(0.000000,908.000000) scale(0.100000,-0.100000)"
fill="#000000" stroke="none">
<path d="M2700 9062 c-19 -10 -42 -30 -52 -43 -20 -28 -68 -199 -68 -245 0
-38 34 -91 79 -121 33 -22 40 -23 295 -23 455 0 865 -26 1033 -65 142 -33 168
-65 168 -205 0 -79 -50 -287 -760 -3121 l-759 -3036 -82 22 c-238 65 -469 186
-634 331 -283 248 -445 599 -516 1114 -22 154 -25 555 -6 740 31 300 88 615
181 1005 91 383 120 575 128 850 9 315 -23 509 -114 695 -40 80 -62 109 -138
186 -99 99 -163 138 -285 175 -73 22 -91 23 -554 27 -354 2 -486 0 -507 -9
-85 -35 -133 -161 -93 -245 27 -56 64 -76 164 -85 155 -14 236 -55 312 -155
81 -106 117 -245 125 -490 9 -265 -23 -511 -117 -904 -126 -529 -176 -980
-151 -1377 18 -302 51 -481 133 -730 150 -457 420 -813 820 -1082 209 -140
509 -268 798 -341 131 -33 377 -80 419 -80 l29 0 -119 -477 c-120 -481 -142
-554 -187 -628 -92 -151 -178 -203 -389 -239 -203 -34 -594 -56 -1019 -56
-254 0 -262 -1 -294 -22 -52 -36 -69 -67 -96 -173 -29 -112 -26 -149 13 -195
51 -61 52 -61 380 -50 164 5 636 15 1048 21 774 12 1814 3 2567 -22 326 -11
339 -11 375 8 20 11 45 30 55 44 20 28 68 199 68 245 0 38 -34 91 -79 121 -33
22 -40 23 -295 23 -455 0 -865 26 -1033 65 -142 33 -168 65 -168 205 0 76 14
141 129 601 l130 515 135 17 c170 22 446 77 613 123 1152 317 2040 1049 2621
2164 199 381 341 764 478 1285 87 331 165 548 289 800 178 362 377 594 605
705 113 54 160 67 285 79 101 9 137 28 166 88 27 56 25 149 -3 189 -47 66 -41
66 -576 62 l-482 -4 -98 -26 c-199 -54 -376 -166 -549 -346 -307 -320 -529
-788 -719 -1516 -213 -818 -466 -1408 -826 -1924 -273 -391 -564 -681 -918
-914 -135 -89 -430 -238 -578 -293 -101 -37 -338 -108 -343 -103 -6 6 1488
5966 1508 6018 61 156 163 262 289 301 180 56 607 89 1165 89 254 0 262 1 294
23 52 35 69 66 96 172 29 112 26 149 -13 195 -51 62 -51 62 -385 50 -1115 -37
-2518 -35 -3768 6 -171 5 -188 4 -220 -14z"/>
</g>
</svg>
