<?xml version="1.0" standalone="no"?>
<!DOCTYPE svg PUBLIC "-//W3C//DTD SVG 20010904//EN"
 "http://www.w3.org/TR/2001/REC-SVG-20010904/DTD/svg10.dtd">
<svg version="1.0" xmlns="http://www.w3.org/2000/svg"
 width="684.000000pt" height="626.000000pt" viewBox="0 0 684.000000 626.000000"
 preserveAspectRatio="xMidYMid meet">
<metadata>
Created by potrace 1.16, written by Peter Selinger 2001-2019
</metadata>
<g transform="translate(0.000000,626.000000) scale(0.100000,-0.100000)"
fill="#000000" stroke="none">
<path d="M2405 6249 c-754 -97 -1506 -729 -1891 -1590 -59 -132 -128 -325
-164 -458 -25 -93 -19 -129 31 -177 30 -29 31 -29 167 -32 198 -5 199 -4 272
238 219 722 772 1359 1345 1549 150 49 245 65 400 65 162 1 227 -13 350 -73
148 -73 266 -207 326 -371 77 -213 78 -483 3 -865 -41 -209 -729 -2950 -769
-3064 -173 -496 -517 -896 -877 -1020 -229 -79 -617 -31 -837 101 -30 18 -54
37 -53 42 1 5 34 19 74 31 345 101 590 423 592 775 0 160 -47 274 -154 374
-249 230 -700 181 -976 -106 -106 -110 -168 -220 -212 -376 -25 -89 -27 -111
-27 -272 1 -170 2 -178 33 -270 49 -148 112 -249 222 -361 106 -107 171 -154
308 -223 232 -117 522 -176 801 -163 473 21 934 325 1271 839 l77 117 56 -112
c262 -528 805 -846 1442 -847 752 0 1512 523 1984 1367 112 200 220 466 281
692 25 93 19 129 -31 177 -30 29 -31 29 -167 32 -198 5 -199 4 -272 -238 -219
-722 -772 -1359 -1345 -1549 -150 -49 -245 -65 -400 -65 -162 -1 -227 13 -350
73 -148 73 -266 207 -326 371 -77 213 -78 485 -3 865 45 226 721 2925 764
3048 176 510 517 911 882 1036 229 79 617 31 837 -101 30 -18 52 -37 50 -43
-2 -5 -35 -19 -74 -31 -342 -100 -587 -423 -589 -774 0 -160 47 -274 154 -374
113 -104 258 -152 435 -143 356 18 652 263 753 625 25 89 27 111 27 272 -1
170 -2 178 -33 270 -49 148 -112 249 -222 361 -106 107 -171 154 -308 223
-232 117 -522 176 -801 163 -473 -21 -934 -325 -1271 -839 l-77 -117 -56 112
c-233 469 -684 773 -1242 837 -106 12 -311 11 -410 -1z"/>
</g>
</svg>
