<?xml version="1.0" standalone="no"?>
<!DOCTYPE svg PUBLIC "-//W3C//DTD SVG 20010904//EN"
 "http://www.w3.org/TR/2001/REC-SVG-20010904/DTD/svg10.dtd">
<svg version="1.0" xmlns="http://www.w3.org/2000/svg"
 width="519.000000pt" height="168.000000pt" viewBox="0 0 519.000000 168.000000"
 preserveAspectRatio="xMidYMid meet">
<metadata>
Created by potrace 1.16, written by Peter Selinger 2001-2019
</metadata>
<g transform="translate(0.000000,168.000000) scale(0.100000,-0.100000)"
fill="#000000" stroke="none">
<path d="M2595 1670 c-1131 -87 -2140 -594 -2489 -1250 -49 -92 -106 -251
-106 -295 0 -40 27 -89 59 -108 22 -13 53 -17 131 -17 102 0 102 0 134 33 22
21 40 55 54 102 36 119 101 217 231 346 170 169 355 290 635 414 355 158 720
252 1166 302 215 24 738 24 930 0 601 -75 1025 -245 1281 -514 149 -157 195
-287 169 -480 -11 -89 -11 -103 4 -134 26 -56 59 -69 174 -69 93 0 103 2 131
26 37 31 57 94 72 219 30 275 -77 556 -300 789 -318 330 -824 545 -1466 622
-143 17 -654 26 -810 14z"/>
</g>
</svg>
