<?xml version="1.0" standalone="no"?>
<!DOCTYPE svg PUBLIC "-//W3C//DTD SVG 20010904//EN"
 "http://www.w3.org/TR/2001/REC-SVG-20010904/DTD/svg10.dtd">
<svg version="1.0" xmlns="http://www.w3.org/2000/svg"
 width="315.000000pt" height="1261.000000pt" viewBox="0 0 315.000000 1261.000000"
 preserveAspectRatio="xMidYMid meet">
<metadata>
Created by potrace 1.16, written by Peter Selinger 2001-2019
</metadata>
<g transform="translate(0.000000,1261.000000) scale(0.100000,-0.100000)"
fill="#000000" stroke="none">
<path d="M145 12589 c-76 -26 -108 -50 -129 -93 -15 -31 -16 -463 -16 -5306 0
-4843 1 -5275 16 -5306 21 -45 66 -76 117 -81 37 -4 196 55 1322 495 704 276
1288 504 1298 507 16 7 17 -61 17 -1334 0 -1464 -3 -1381 58 -1433 45 -38 89
-43 163 -18 79 27 112 50 133 94 15 31 16 421 16 4771 0 4350 -1 4740 -16
4771 -21 45 -66 76 -117 81 -37 4 -196 -55 -1322 -495 -704 -276 -1288 -504
-1297 -507 -17 -7 -18 91 -20 1883 l-3 1891 -21 27 c-51 69 -109 84 -199 53z
m2625 -6351 l0 -2293 -1183 -462 c-650 -254 -1190 -465 -1200 -468 -16 -7 -17
106 -17 2286 l0 2294 1193 467 c655 256 1195 467 1200 467 4 1 7 -1031 7
-2291z"/>
</g>
</svg>
