<?xml version="1.0" standalone="no"?>
<!DOCTYPE svg PUBLIC "-//W3C//DTD SVG 20010904//EN"
 "http://www.w3.org/TR/2001/REC-SVG-20010904/DTD/svg10.dtd">
<svg version="1.0" xmlns="http://www.w3.org/2000/svg"
 width="748.000000pt" height="602.000000pt" viewBox="0 0 748.000000 602.000000"
 preserveAspectRatio="xMidYMid meet">
<metadata>
Created by potrace 1.16, written by Peter Selinger 2001-2019
</metadata>
<g transform="translate(0.000000,602.000000) scale(0.100000,-0.100000)"
fill="#000000" stroke="none">
<path d="M3385 6014 c-16 -2 -73 -9 -125 -15 -224 -25 -511 -99 -754 -195
-1166 -462 -2110 -1552 -2411 -2786 -76 -312 -100 -532 -92 -846 6 -235 21
-356 68 -550 77 -314 216 -609 397 -842 344 -441 858 -713 1457 -771 214 -21
557 -3 830 42 722 121 1481 476 2118 991 60 49 97 73 97 64 0 -9 20 -76 44
-148 147 -448 393 -740 736 -876 147 -58 248 -76 430 -76 150 -1 174 2 264 27
391 109 730 434 850 815 32 102 32 130 3 173 -33 49 -60 59 -162 59 -138 0
-151 -11 -210 -181 -79 -230 -297 -449 -519 -524 -93 -31 -200 -42 -251 -25
-92 30 -175 164 -225 362 -55 221 -76 426 -91 909 l-11 356 84 104 c494 607
929 1357 1235 2129 128 323 307 894 319 1015 6 60 -8 90 -55 122 -29 19 -47
23 -118 23 -93 0 -141 -16 -167 -55 -8 -12 -25 -60 -36 -106 -169 -666 -465
-1381 -837 -2017 -86 -148 -290 -464 -374 -579 l-46 -63 -7 553 c-7 602 -17
743 -66 987 -148 735 -521 1311 -1056 1633 -252 151 -577 256 -888 286 -101
10 -361 13 -431 5z m430 -358 c208 -42 373 -134 523 -290 279 -292 442 -762
506 -1471 22 -240 27 -425 36 -1420 5 -500 12 -923 15 -940 5 -28 -2 -36 -122
-137 -679 -571 -1399 -916 -2133 -1022 -623 -90 -972 -10 -1262 292 -373 388
-458 975 -273 1889 43 208 137 592 199 803 224 771 517 1302 945 1713 357 342
763 548 1181 601 64 8 314 -4 385 -18z"/>
</g>
</svg>
