<?xml version="1.0" standalone="no"?>
<!DOCTYPE svg PUBLIC "-//W3C//DTD SVG 20010904//EN"
 "http://www.w3.org/TR/2001/REC-SVG-20010904/DTD/svg10.dtd">
<svg version="1.0" xmlns="http://www.w3.org/2000/svg"
 width="945.000000pt" height="938.000000pt" viewBox="0 0 945.000000 938.000000"
 preserveAspectRatio="xMidYMid meet">
<metadata>
Created by potrace 1.16, written by Peter Selinger 2001-2019
</metadata>
<g transform="translate(0.000000,938.000000) scale(0.100000,-0.100000)"
fill="#000000" stroke="none">
<path d="M1079 9360 c-20 -10 -43 -30 -53 -44 -9 -14 -244 -688 -522 -1498
-542 -1578 -522 -1515 -477 -1577 44 -57 66 -66 188 -69 102 -3 118 -1 153 18
21 12 46 34 55 49 9 15 59 149 110 297 292 832 499 1283 734 1603 272 370 701
596 1288 680 246 36 462 43 1130 38 528 -3 639 -6 688 -19 33 -9 64 -21 70
-27 35 -36 26 -74 -958 -4014 -805 -3220 -971 -3874 -1000 -3934 -44 -90 -134
-182 -219 -223 -156 -75 -510 -107 -1294 -117 -532 -7 -525 -6 -568 -70 -12
-18 -36 -91 -54 -162 -36 -147 -35 -182 7 -232 51 -60 56 -60 440 -49 1306 38
2895 38 4260 -1 384 -10 404 -10 440 8 21 10 47 32 59 50 31 46 88 283 80 328
-9 45 -57 101 -99 114 -18 5 -246 12 -507 15 -579 7 -834 22 -1061 62 -104 19
-156 47 -186 99 -49 87 -105 -155 937 4013 527 2111 973 3877 990 3925 43 118
89 170 176 197 121 37 255 42 960 37 707 -5 782 -9 1024 -58 311 -63 566 -205
683 -382 172 -260 174 -814 6 -1897 -17 -107 -27 -209 -24 -227 7 -41 50 -92
92 -109 20 -9 71 -14 134 -14 122 0 165 18 199 84 16 32 72 370 251 1514 l230
1474 -23 46 c-13 25 -36 55 -51 66 l-28 21 -4112 2 c-4026 2 -4113 2 -4148
-17z"/>
</g>
</svg>
