<?xml version="1.0" standalone="no"?>
<!DOCTYPE svg PUBLIC "-//W3C//DTD SVG 20010904//EN"
 "http://www.w3.org/TR/2001/REC-SVG-20010904/DTD/svg10.dtd">
<svg version="1.0" xmlns="http://www.w3.org/2000/svg"
 width="1380.000000pt" height="977.000000pt" viewBox="0 0 1380.000000 977.000000"
 preserveAspectRatio="xMidYMid meet">
<metadata>
Created by potrace 1.16, written by Peter Selinger 2001-2019
</metadata>
<g transform="translate(0.000000,977.000000) scale(0.100000,-0.100000)"
fill="#000000" stroke="none">
<path d="M158 9750 c-21 -11 -45 -32 -54 -45 -19 -30 -103 -356 -104 -403 0
-49 32 -104 76 -128 36 -20 58 -22 324 -27 535 -11 656 -41 695 -170 12 -39
94 -1197 316 -4447 164 -2417 304 -4409 310 -4427 13 -40 58 -79 107 -94 23
-7 101 -9 207 -7 166 3 171 4 223 32 29 17 67 46 85 66 18 19 909 1580 1982
3467 1072 1888 1951 3431 1952 3429 2 -2 109 -1550 238 -3440 180 -2623 239
-3444 250 -3465 22 -44 71 -79 119 -86 23 -4 115 -5 202 -3 155 3 160 4 213
33 29 16 67 46 85 66 17 21 1075 1875 2351 4120 1276 2246 2330 4097 2342
4114 12 16 56 82 99 145 147 218 366 411 579 511 206 97 503 159 758 159 147
0 169 27 233 283 l48 194 -25 48 c-13 27 -37 58 -52 69 -33 24 -66 24 -394 6
-484 -27 -1443 -22 -2254 11 -270 11 -276 11 -316 -9 -22 -12 -48 -33 -57 -47
-21 -32 -106 -355 -106 -404 0 -47 36 -105 80 -130 28 -16 55 -21 108 -21 326
0 614 -89 762 -234 93 -92 123 -209 80 -316 -12 -30 -29 -73 -37 -95 -22 -62
-3585 -6327 -3593 -6318 -10 12 -463 6688 -456 6711 9 27 85 96 133 120 160
82 491 132 871 132 167 0 213 12 248 65 20 30 103 356 104 404 0 47 -36 105
-81 130 -37 21 -41 22 -296 12 -142 -6 -580 -16 -974 -23 -737 -12 -1473 -4
-2055 23 -230 11 -244 11 -280 -7 -21 -11 -48 -33 -60 -51 -25 -38 -104 -344
-104 -404 0 -53 31 -104 79 -128 31 -16 72 -19 321 -24 297 -7 413 -16 540
-43 63 -14 81 -22 111 -54 21 -22 40 -56 47 -81 7 -24 27 -271 46 -549 l34
-505 -1632 -2871 c-1566 -2757 -1631 -2870 -1638 -2835 -4 20 -109 1531 -234
3359 l-226 3323 27 35 c42 54 122 102 225 134 194 60 346 79 695 88 265 8 276
10 314 74 23 37 101 343 101 395 0 54 -30 104 -78 131 l-41 23 -263 -10 c-827
-32 -2090 -37 -2733 -11 -563 23 -536 23 -577 0z"/>
</g>
</svg>
