<?xml version="1.0" standalone="no"?>
<!DOCTYPE svg PUBLIC "-//W3C//DTD SVG 20010904//EN"
 "http://www.w3.org/TR/2001/REC-SVG-20010904/DTD/svg10.dtd">
<svg version="1.0" xmlns="http://www.w3.org/2000/svg"
 width="1125.000000pt" height="908.000000pt" viewBox="0 0 1125.000000 908.000000"
 preserveAspectRatio="xMidYMid meet">
<metadata>
Created by potrace 1.16, written by Peter Selinger 2001-2019
</metadata>
<g transform="translate(0.000000,908.000000) scale(0.100000,-0.100000)"
fill="#000000" stroke="none">
<path d="M2280 9062 c-19 -10 -43 -30 -53 -44 -20 -27 -66 -196 -67 -244 0
-38 34 -91 77 -120 30 -20 47 -21 365 -27 421 -8 650 -32 753 -79 36 -16 50
-62 48 -158 -1 -77 -92 -450 -935 -3821 -843 -3367 -939 -3744 -976 -3820 -72
-149 -137 -202 -293 -238 -168 -39 -463 -61 -830 -61 -207 0 -217 -1 -249 -22
-52 -36 -69 -67 -96 -173 -29 -112 -26 -149 13 -195 51 -61 56 -62 335 -50
139 5 546 15 903 21 669 12 1533 3 2191 -22 282 -11 294 -11 330 8 21 11 46
31 57 44 20 28 66 196 67 245 0 38 -34 91 -77 120 -30 20 -47 21 -365 27 -421
8 -650 32 -753 79 -36 16 -50 62 -48 158 1 76 50 279 458 1910 251 1004 460
1842 466 1863 l10 37 1999 0 c1100 0 2000 -1 2000 -2 0 -2 -207 -827 -459
-1834 -407 -1627 -462 -1841 -499 -1915 -72 -149 -137 -202 -293 -238 -168
-39 -463 -61 -830 -61 -207 0 -217 -1 -249 -22 -52 -36 -69 -67 -96 -173 -29
-112 -26 -149 13 -195 51 -61 56 -62 335 -50 139 5 546 15 903 21 669 12 1533
3 2191 -22 282 -11 294 -11 330 8 21 11 46 31 57 44 20 28 66 196 67 245 0 38
-34 91 -77 120 -30 20 -47 21 -365 27 -421 8 -650 32 -753 79 -36 16 -50 62
-48 158 1 77 92 450 935 3821 843 3367 939 3744 976 3820 72 149 137 202 293
238 168 39 463 61 830 61 207 0 217 1 249 23 52 35 69 66 96 172 29 112 26
149 -13 195 -51 61 -56 62 -335 50 -139 -5 -545 -15 -903 -21 -669 -12 -1533
-3 -2191 22 -282 11 -294 11 -330 -8 -21 -11 -46 -31 -57 -44 -20 -28 -66
-196 -67 -245 0 -38 34 -91 77 -120 30 -20 47 -21 365 -27 421 -8 650 -32 753
-79 36 -16 50 -62 48 -158 -1 -76 -46 -266 -420 -1760 l-419 -1675 -2001 -3
-2001 -2 413 1649 c365 1460 417 1658 453 1732 72 149 137 202 293 238 168 39
463 61 830 61 207 0 217 1 249 23 52 35 69 66 96 172 29 112 26 149 -13 195
-51 61 -56 62 -340 50 -954 -37 -2102 -35 -3223 6 -151 5 -168 4 -200 -14z"/>
</g>
</svg>
