<?xml version="1.0" standalone="no"?>
<!DOCTYPE svg PUBLIC "-//W3C//DTD SVG 20010904//EN"
 "http://www.w3.org/TR/2001/REC-SVG-20010904/DTD/svg10.dtd">
<svg version="1.0" xmlns="http://www.w3.org/2000/svg"
 width="798.000000pt" height="895.000000pt" viewBox="0 0 798.000000 895.000000"
 preserveAspectRatio="xMidYMid meet">
<metadata>
Created by potrace 1.16, written by Peter Selinger 2001-2019
</metadata>
<g transform="translate(0.000000,895.000000) scale(0.100000,-0.100000)"
fill="#000000" stroke="none">
<path d="M1446 8935 c-266 -51 -508 -184 -722 -399 -177 -178 -286 -352 -360
-571 -39 -117 -42 -157 -14 -202 36 -59 60 -65 266 -61 l186 3 32 36 c22 23
41 61 55 109 50 163 169 346 290 447 36 30 103 73 148 95 72 36 92 41 171 46
85 4 94 3 155 -26 166 -77 337 -300 568 -740 361 -685 647 -1439 964 -2537 75
-260 245 -869 245 -878 0 -2 -758 -834 -1684 -1847 -1047 -1145 -1695 -1863
-1713 -1894 -37 -67 -39 -169 -6 -232 66 -125 217 -168 355 -101 49 24 188
173 1414 1514 747 818 1458 1595 1578 1727 l219 238 92 -323 c297 -1042 549
-1739 865 -2396 107 -222 183 -334 311 -458 121 -117 230 -193 390 -269 274
-132 590 -201 979 -213 205 -6 300 5 445 52 427 140 793 509 935 946 35 107
36 127 10 178 -33 65 -62 73 -270 69 -210 -4 -222 -8 -254 -99 -71 -208 -143
-333 -257 -447 -122 -122 -238 -181 -371 -190 -120 -7 -198 28 -315 145 -138
138 -271 352 -482 773 -290 581 -489 1086 -726 1842 -133 425 -409 1399 -403
1423 2 6 759 838 1683 1848 1061 1161 1690 1856 1707 1887 36 68 44 125 24
192 -20 70 -64 120 -132 154 -48 23 -63 26 -123 22 -134 -10 -18 108 -1709
-1743 -844 -924 -1553 -1699 -1576 -1723 l-42 -43 -63 223 c-320 1129 -607
1924 -923 2551 -49 98 -116 212 -148 255 -244 324 -656 534 -1190 607 -170 23
-505 28 -604 10z"/>
</g>
</svg>
