<?xml version="1.0" standalone="no"?>
<!DOCTYPE svg PUBLIC "-//W3C//DTD SVG 20010904//EN"
 "http://www.w3.org/TR/2001/REC-SVG-20010904/DTD/svg10.dtd">
<svg version="1.0" xmlns="http://www.w3.org/2000/svg"
 width="573.000000pt" height="602.000000pt" viewBox="0 0 573.000000 602.000000"
 preserveAspectRatio="xMidYMid meet">
<metadata>
Created by potrace 1.16, written by Peter Selinger 2001-2019
</metadata>
<g transform="translate(0.000000,602.000000) scale(0.100000,-0.100000)"
fill="#000000" stroke="none">
<path d="M3325 6009 c-1158 -118 -2324 -977 -2915 -2150 -227 -448 -358 -891
-401 -1342 -17 -184 -7 -536 20 -696 86 -506 307 -948 626 -1250 377 -356 851
-549 1400 -568 1247 -43 2596 851 3256 2159 167 331 273 629 343 963 53 253
61 340 60 650 0 312 -11 416 -69 645 -101 399 -314 777 -580 1029 -307 290
-667 466 -1110 542 -138 24 -481 34 -630 18z m382 -339 c253 -32 452 -130 630
-313 376 -384 463 -978 278 -1894 -133 -657 -325 -1265 -526 -1665 -166 -332
-334 -565 -588 -818 -513 -511 -1123 -734 -1646 -600 -170 44 -334 141 -472
283 -239 244 -355 558 -370 1002 -12 343 43 725 186 1302 218 876 447 1397
814 1853 93 115 341 357 449 438 425 318 856 461 1245 412z"/>
</g>
</svg>
