<?xml version="1.0" standalone="no"?>
<!DOCTYPE svg PUBLIC "-//W3C//DTD SVG 20010904//EN"
 "http://www.w3.org/TR/2001/REC-SVG-20010904/DTD/svg10.dtd">
<svg version="1.0" xmlns="http://www.w3.org/2000/svg"
 width="696.000000pt" height="978.000000pt" viewBox="0 0 696.000000 978.000000"
 preserveAspectRatio="xMidYMid meet">
<metadata>
Created by potrace 1.16, written by Peter Selinger 2001-2019
</metadata>
<g transform="translate(0.000000,978.000000) scale(0.100000,-0.100000)"
fill="#000000" stroke="none">
<path d="M1816 9766 c-156 -59 -196 -276 -67 -362 34 -22 58 -28 137 -35 190
-16 287 -61 419 -194 120 -121 206 -265 307 -515 46 -115 1448 -4022 1448
-4037 0 -7 -881 -874 -1959 -1927 -1304 -1276 -1972 -1935 -1997 -1973 -82
-124 -114 -255 -90 -372 48 -229 225 -361 468 -349 113 6 180 30 287 102 71
48 189 183 1744 1996 917 1070 1682 1962 1700 1983 l32 38 634 -1768 c348
-972 653 -1809 677 -1860 92 -193 247 -354 431 -447 l52 -26 402 0 c444 0 452
1 490 64 34 56 19 144 -31 179 -69 48 -195 276 -293 527 -24 63 -693 1924
-1486 4135 -924 2576 -1459 4056 -1491 4120 -27 55 -72 130 -99 166 -267 352
-777 545 -1486 565 -152 4 -198 2 -229 -10z"/>
</g>
</svg>
