<?xml version="1.0" standalone="no"?>
<!DOCTYPE svg PUBLIC "-//W3C//DTD SVG 20010904//EN"
 "http://www.w3.org/TR/2001/REC-SVG-20010904/DTD/svg10.dtd">
<svg version="1.0" xmlns="http://www.w3.org/2000/svg"
 width="360.000000pt" height="1327.000000pt" viewBox="0 0 360.000000 1327.000000"
 preserveAspectRatio="xMidYMid meet">
<metadata>
Created by potrace 1.16, written by Peter Selinger 2001-2019
</metadata>
<g transform="translate(0.000000,1327.000000) scale(0.100000,-0.100000)"
fill="#000000" stroke="none">
<path d="M211 13209 c-155 -63 -176 -77 -197 -126 -12 -27 -14 -925 -14 -5604
l0 -5571 21 -38 c25 -44 83 -80 130 -80 21 0 576 217 1459 569 l1425 569 5
-1413 5 -1414 21 -28 c30 -41 80 -66 128 -66 26 0 90 20 171 53 162 65 178 74
204 120 l21 38 0 5017 0 5017 -21 38 c-25 44 -83 80 -130 80 -21 0 -576 -217
-1459 -569 l-1425 -569 -5 1967 c-5 1913 -6 1967 -24 1998 -25 41 -84 73 -132
72 -23 0 -99 -25 -183 -60z m2829 -6632 l0 -2314 -1212 -483 c-667 -266 -1228
-489 -1246 -497 l-32 -13 0 2313 0 2314 1243 496 c683 273 1243 496 1245 496
1 1 2 -1040 2 -2312z"/>
</g>
</svg>
