<?xml version="1.0" standalone="no"?>
<!DOCTYPE svg PUBLIC "-//W3C//DTD SVG 20010904//EN"
 "http://www.w3.org/TR/2001/REC-SVG-20010904/DTD/svg10.dtd">
<svg version="1.0" xmlns="http://www.w3.org/2000/svg"
 width="1113.000000pt" height="611.000000pt" viewBox="0 0 1113.000000 611.000000"
 preserveAspectRatio="xMidYMid meet">
<metadata>
Created by potrace 1.16, written by Peter Selinger 2001-2019
</metadata>
<g transform="translate(0.000000,611.000000) scale(0.100000,-0.100000)"
fill="#000000" stroke="none">
<path d="M2035 6095 c-388 -62 -743 -259 -1109 -615 -244 -238 -458 -499 -679
-831 -182 -275 -247 -389 -247 -433 0 -53 17 -85 59 -113 32 -22 43 -23 210
-23 213 0 216 1 294 122 246 382 639 695 1036 828 194 65 250 72 641 77 296 4
352 3 343 -9 -97 -121 -290 -400 -410 -593 -456 -729 -711 -1432 -824 -2265
-30 -221 -38 -708 -15 -904 92 -791 468 -1248 1093 -1327 116 -14 372 -7 518
16 436 67 885 264 1275 560 416 315 798 749 1145 1302 l52 82 11 -202 c15
-245 42 -436 87 -612 165 -645 510 -1003 1085 -1126 91 -20 135 -23 325 -23
242 0 329 11 535 65 322 85 645 255 945 496 133 107 348 319 475 467 520 612
953 1488 1180 2389 91 365 105 477 105 867 0 346 -7 418 -60 682 -14 67 -25
125 -25 129 0 5 114 9 253 9 225 0 261 2 327 21 113 31 186 74 270 159 208
208 245 512 84 689 -46 51 -105 87 -185 112 -59 18 -176 19 -4387 18 -3462 -1
-4343 -4 -4407 -14z m7499 -1052 c68 -305 81 -429 81 -763 -1 -254 -4 -315
-23 -440 -61 -391 -198 -813 -389 -1194 -92 -183 -141 -268 -259 -446 -436
-658 -986 -1072 -1564 -1177 -134 -24 -405 -24 -520 1 -455 98 -701 439 -786
1091 -23 176 -23 597 0 825 35 351 105 750 186 1071 24 92 16 133 -36 178
l-35 31 -189 0 -190 0 -36 -32 c-32 -30 -39 -48 -80 -196 -343 -1248 -1121
-2325 -1994 -2763 -314 -157 -581 -223 -900 -223 -147 1 -188 4 -253 22 -380
104 -594 468 -614 1047 -30 860 425 1956 1236 2977 l46 58 3152 0 3151 0 16
-67z"/>
</g>
</svg>
