<?xml version="1.0" standalone="no"?>
<!DOCTYPE svg PUBLIC "-//W3C//DTD SVG 20010904//EN"
 "http://www.w3.org/TR/2001/REC-SVG-20010904/DTD/svg10.dtd">
<svg version="1.0" xmlns="http://www.w3.org/2000/svg"
 width="977.000000pt" height="977.000000pt" viewBox="0 0 977.000000 977.000000"
 preserveAspectRatio="xMidYMid meet">
<metadata>
Created by potrace 1.16, written by Peter Selinger 2001-2019
</metadata>
<g transform="translate(0.000000,977.000000) scale(0.100000,-0.100000)"
fill="#000000" stroke="none">
<path d="M6000 9764 c-25 -2 -106 -8 -180 -14 -931 -75 -1888 -411 -2697 -949
-295 -196 -530 -386 -772 -624 -719 -706 -1120 -1498 -1202 -2369 -15 -168 -6
-653 15 -803 75 -519 185 -901 501 -1731 195 -510 246 -650 308 -834 167 -499
246 -873 273 -1293 l7 -109 -649 5 c-672 5 -778 11 -919 52 -46 13 -53 18 -59
47 -20 101 -27 304 -24 705 3 433 3 442 -18 469 -48 65 -60 69 -240 72 -153 3
-166 2 -203 -19 -21 -12 -48 -38 -60 -59 -21 -37 -22 -64 -53 -1111 l-31
-1073 22 -42 c13 -24 38 -50 61 -63 l38 -21 1220 2 c1215 3 1221 3 1248 24 50
37 64 68 98 220 104 464 140 828 140 1404 0 494 -11 678 -99 1570 -94 957
-110 1225 -102 1722 6 355 18 534 57 803 128 887 465 1668 979 2270 678 795
1716 1278 2666 1241 453 -17 823 -130 1160 -354 130 -86 356 -309 442 -437
200 -297 297 -609 323 -1030 41 -705 -183 -1544 -677 -2535 -217 -437 -371
-707 -943 -1665 -677 -1132 -943 -1637 -1190 -2255 -116 -290 -260 -750 -260
-829 0 -47 36 -105 80 -130 l38 -21 1206 0 c1299 0 1244 -2 1292 51 12 13 246
499 520 1079 451 956 498 1060 498 1107 1 56 -17 89 -68 127 -25 19 -44 21
-192 24 -223 4 -224 4 -307 -168 -272 -567 -432 -872 -528 -1012 -52 -74 -95
-99 -215 -122 -165 -33 -261 -38 -852 -43 l-604 -5 13 23 c106 200 341 557
549 834 250 332 463 586 1005 1200 871 985 1228 1442 1545 1970 97 163 285
542 349 703 202 514 281 981 240 1422 -78 842 -549 1569 -1319 2035 -137 84
-405 213 -566 274 -314 119 -676 203 -1064 246 -136 15 -688 28 -800 19z"/>
</g>
</svg>
