<?xml version="1.0" standalone="no"?>
<!DOCTYPE svg PUBLIC "-//W3C//DTD SVG 20010904//EN"
 "http://www.w3.org/TR/2001/REC-SVG-20010904/DTD/svg10.dtd">
<svg version="1.0" xmlns="http://www.w3.org/2000/svg"
 width="595.000000pt" height="626.000000pt" viewBox="0 0 595.000000 626.000000"
 preserveAspectRatio="xMidYMid meet">
<metadata>
Created by potrace 1.16, written by Peter Selinger 2001-2019
</metadata>
<g transform="translate(0.000000,626.000000) scale(0.100000,-0.100000)"
fill="#000000" stroke="none">
<path d="M2675 6246 c-260 -44 -493 -146 -735 -325 -90 -66 -268 -237 -356
-343 -161 -193 -324 -483 -403 -722 -53 -159 -60 -219 -32 -263 35 -56 66 -65
218 -61 l135 3 33 37 c19 20 39 56 45 80 33 123 146 268 277 357 296 198 718
274 1133 202 137 -24 315 -73 620 -170 358 -114 568 -161 787 -176 80 -6 101
-10 95 -21 -16 -28 -396 -416 -585 -597 -293 -279 -517 -483 -1112 -1012 -602
-535 -825 -738 -1110 -1012 -730 -699 -1246 -1315 -1614 -1927 -79 -132 -88
-173 -51 -234 31 -50 71 -62 208 -62 148 0 161 7 244 140 149 238 368 485 553
623 226 169 480 249 691 217 192 -29 313 -105 539 -339 445 -461 539 -533 790
-607 280 -82 704 -12 1074 179 638 327 1181 1029 1401 1809 l33 117 -24 47
c-36 71 -68 84 -204 84 -86 0 -119 -5 -152 -19 -47 -22 -60 -43 -92 -149 -87
-291 -323 -584 -633 -786 -175 -114 -407 -211 -608 -254 -363 -78 -654 -47
-1190 127 -410 133 -610 182 -830 202 -124 11 -300 7 -373 -10 l-37 -9 26 32
c64 77 414 433 597 609 293 279 517 483 1112 1012 602 535 825 738 1110 1012
730 699 1246 1315 1614 1927 79 132 88 173 51 234 -31 50 -71 62 -208 62 -155
0 -159 -2 -271 -185 -291 -472 -490 -684 -729 -773 -56 -21 -85 -25 -172 -25
-232 -1 -386 82 -633 341 -230 241 -404 409 -480 460 -97 67 -223 126 -324
153 -99 27 -313 34 -428 15z"/>
</g>
</svg>
