<?xml version="1.0" standalone="no"?>
<!DOCTYPE svg PUBLIC "-//W3C//DTD SVG 20010904//EN"
 "http://www.w3.org/TR/2001/REC-SVG-20010904/DTD/svg10.dtd">
<svg version="1.0" xmlns="http://www.w3.org/2000/svg"
 width="379.000000pt" height="626.000000pt" viewBox="0 0 379.000000 626.000000"
 preserveAspectRatio="xMidYMid meet">
<metadata>
Created by potrace 1.16, written by Peter Selinger 2001-2019
</metadata>
<g transform="translate(0.000000,626.000000) scale(0.100000,-0.100000)"
fill="#000000" stroke="none">
<path d="M1671 6245 c-548 -97 -1044 -565 -1390 -1314 -101 -216 -197 -484
-256 -708 -31 -117 -27 -149 26 -199 30 -29 31 -29 167 -32 198 -4 206 2 260
208 41 152 130 409 193 556 236 554 565 937 896 1047 209 69 393 59 469 -25
127 -138 114 -517 -31 -963 -15 -43 -291 -779 -615 -1634 -323 -856 -597
-1587 -608 -1626 -113 -387 -66 -762 133 -1061 157 -236 399 -395 705 -465
125 -29 348 -35 475 -15 556 92 1054 558 1404 1315 101 216 197 484 256 708
31 117 27 149 -26 199 -30 29 -31 29 -167 32 -198 4 -206 -2 -260 -208 -41
-152 -130 -409 -193 -556 -236 -554 -565 -937 -896 -1047 -209 -69 -393 -59
-469 25 -127 138 -114 517 31 963 15 43 291 779 615 1634 323 856 597 1588
608 1626 113 387 66 762 -133 1061 -157 235 -398 395 -705 465 -116 27 -373
34 -489 14z"/>
</g>
</svg>
