<?xml version="1.0" standalone="no"?>
<!DOCTYPE svg PUBLIC "-//W3C//DTD SVG 20010904//EN"
 "http://www.w3.org/TR/2001/REC-SVG-20010904/DTD/svg10.dtd">
<svg version="1.0" xmlns="http://www.w3.org/2000/svg"
 width="947.000000pt" height="938.000000pt" viewBox="0 0 947.000000 938.000000"
 preserveAspectRatio="xMidYMid meet">
<metadata>
Created by potrace 1.16, written by Peter Selinger 2001-2019
</metadata>
<g transform="translate(0.000000,938.000000) scale(0.100000,-0.100000)"
fill="#000000" stroke="none">
<path d="M1099 9360 c-20 -10 -44 -30 -53 -44 -9 -15 -248 -707 -531 -1540
-359 -1055 -515 -1527 -515 -1557 0 -54 31 -104 81 -129 33 -17 59 -20 191
-20 167 0 203 9 240 60 10 14 60 147 112 295 351 1013 590 1500 880 1791 244
244 604 417 1021 489 248 43 333 48 968 52 605 5 784 -1 880 -27 36 -11 37
-12 37 -60 0 -62 -1911 -7713 -1941 -7772 -30 -60 -110 -133 -182 -167 -149
-71 -474 -98 -1287 -108 -490 -5 -517 -6 -551 -25 -52 -29 -71 -71 -119 -265
-47 -191 -47 -221 -3 -274 51 -60 55 -61 451 -49 1317 38 2955 38 4339 -1 394
-11 414 -10 450 7 21 11 47 33 59 51 25 38 104 345 104 405 0 55 -29 102 -77
126 -35 18 -73 20 -548 25 -649 8 -1005 30 -1150 72 -65 18 -115 68 -122 121
-7 56 1904 7701 1948 7791 71 147 144 157 1049 150 484 -4 641 -8 737 -21 405
-53 660 -158 833 -343 137 -146 183 -330 183 -723 0 -302 -31 -618 -113 -1153
-22 -142 -40 -276 -40 -299 0 -53 32 -103 82 -129 36 -18 55 -20 203 -17 181
3 199 9 238 76 14 23 84 439 263 1562 l245 1531 -23 47 c-13 25 -36 55 -51 66
l-28 21 -4112 2 c-4026 2 -4113 2 -4148 -17z"/>
</g>
</svg>
