<?xml version="1.0" standalone="no"?>
<!DOCTYPE svg PUBLIC "-//W3C//DTD SVG 20010904//EN"
 "http://www.w3.org/TR/2001/REC-SVG-20010904/DTD/svg10.dtd">
<svg version="1.0" xmlns="http://www.w3.org/2000/svg"
 width="692.000000pt" height="627.000000pt" viewBox="0 0 692.000000 627.000000"
 preserveAspectRatio="xMidYMid meet">
<metadata>
Created by potrace 1.16, written by Peter Selinger 2001-2019
</metadata>
<g transform="translate(0.000000,627.000000) scale(0.100000,-0.100000)"
fill="#000000" stroke="none">
<path d="M6130 6255 c-36 -8 -112 -38 -170 -67 -94 -46 -117 -63 -211 -157
-88 -89 -113 -121 -151 -196 -64 -124 -81 -196 -76 -320 3 -91 7 -107 41 -179
33 -70 53 -94 191 -230 216 -214 319 -375 395 -622 50 -163 65 -268 65 -464 0
-200 -14 -294 -75 -530 -158 -609 -456 -1281 -792 -1785 -476 -715 -1012
-1145 -1580 -1267 -134 -28 -437 -31 -592 -5 -289 50 -514 149 -681 300 -286
259 -402 720 -328 1307 60 477 230 1033 692 2261 181 481 202 565 202 811 0
608 -402 1059 -1015 1139 -130 17 -326 6 -451 -25 -355 -88 -673 -316 -949
-680 -264 -349 -493 -841 -625 -1343 -25 -95 -19 -131 31 -179 30 -29 31 -29
167 -32 198 -4 206 2 260 208 17 63 56 188 86 276 229 666 554 1118 930 1295
140 65 314 93 430 69 196 -41 254 -296 165 -733 -31 -153 -80 -304 -226 -692
-396 -1055 -594 -1664 -667 -2054 -48 -251 -61 -618 -31 -830 53 -373 194
-677 423 -913 299 -308 716 -499 1267 -579 257 -37 606 -50 790 -29 845 97
1658 760 2305 1881 158 272 347 682 465 1006 109 302 232 752 349 1283 185
840 191 1372 21 1715 -138 280 -392 419 -655 360z"/>
</g>
</svg>
