<?xml version="1.0" standalone="no"?>
<!DOCTYPE svg PUBLIC "-//W3C//DTD SVG 20010904//EN"
 "http://www.w3.org/TR/2001/REC-SVG-20010904/DTD/svg10.dtd">
<svg version="1.0" xmlns="http://www.w3.org/2000/svg"
 width="441.000000pt" height="587.000000pt" viewBox="0 0 441.000000 587.000000"
 preserveAspectRatio="xMidYMid meet">
<metadata>
Created by potrace 1.16, written by Peter Selinger 2001-2019
</metadata>
<g transform="translate(0.000000,587.000000) scale(0.100000,-0.100000)"
fill="#000000" stroke="none">
<path d="M3230 5863 c-695 -51 -1409 -339 -1996 -804 -161 -127 -461 -427
-578 -579 -384 -496 -583 -1000 -645 -1634 -16 -160 -14 -528 4 -680 125
-1066 789 -1849 1775 -2090 192 -47 338 -66 550 -73 357 -12 709 52 1070 194
270 106 699 353 735 424 22 41 16 104 -16 183 -43 106 -119 131 -215 69 -269
-174 -443 -270 -626 -347 -476 -200 -927 -237 -1308 -110 -467 156 -806 566
-915 1108 -39 196 -48 324 -42 595 7 307 37 537 118 920 l22 101 1239 0 c1356
0 1269 -4 1342 60 99 87 113 242 29 326 -66 67 -9 64 -1315 64 -648 0 -1178 2
-1178 4 0 12 107 313 136 385 90 216 240 477 363 631 74 93 243 263 331 333
287 230 618 382 979 449 106 19 161 22 621 27 366 5 513 10 533 19 85 37 145
116 154 205 10 94 -32 172 -112 208 -37 17 -74 18 -525 17 -267 -1 -505 -3
-530 -5z"/>
</g>
</svg>
