<?xml version="1.0" standalone="no"?>
<!DOCTYPE svg PUBLIC "-//W3C//DTD SVG 20010904//EN"
 "http://www.w3.org/TR/2001/REC-SVG-20010904/DTD/svg10.dtd">
<svg version="1.0" xmlns="http://www.w3.org/2000/svg"
 width="1010.000000pt" height="942.000000pt" viewBox="0 0 1010.000000 942.000000"
 preserveAspectRatio="xMidYMid meet">
<metadata>
Created by potrace 1.16, written by Peter Selinger 2001-2019
</metadata>
<g transform="translate(0.000000,942.000000) scale(0.100000,-0.100000)"
fill="#000000" stroke="none">
<path d="M2360 9403 c-19 -10 -44 -33 -56 -51 -31 -46 -87 -281 -78 -328 8
-46 55 -100 97 -113 18 -5 183 -12 367 -15 184 -3 389 -10 455 -16 135 -13
289 -41 332 -62 39 -19 56 -74 50 -163 -4 -45 -343 -1419 -966 -3915 -874
-3497 -965 -3853 -1003 -3929 -44 -91 -109 -165 -169 -193 -128 -61 -507 -98
-1003 -98 -203 0 -221 -1 -256 -21 -20 -11 -45 -35 -55 -51 -23 -40 -74 -241
-75 -293 0 -55 29 -105 76 -132 l39 -23 3878 0 c4187 0 3914 -4 3964 51 24 27
1452 3395 1459 3443 6 39 -30 112 -69 140 -24 18 -46 22 -141 24 -98 3 -119 1
-153 -17 -22 -11 -47 -30 -55 -43 -8 -13 -59 -126 -113 -253 -438 -1030 -769
-1607 -1151 -2005 -414 -430 -957 -679 -1683 -770 -327 -41 -395 -43 -1686
-47 -1271 -5 -1419 -2 -1512 31 l-38 13 1 80 c1 71 59 313 489 2032 l487 1951
732 0 c402 0 803 -5 891 -10 465 -31 688 -115 774 -293 43 -90 56 -163 54
-327 -1 -181 -24 -331 -99 -641 l-47 -197 24 -48 c39 -78 61 -89 197 -92 107
-2 120 -1 156 20 21 13 47 39 57 58 22 40 879 3464 879 3511 0 45 -36 103 -80
128 -32 18 -54 21 -139 21 -181 0 -200 -18 -260 -256 -98 -382 -202 -648 -328
-838 -176 -264 -400 -401 -763 -466 -211 -38 -305 -42 -1117 -47 l-801 -5 433
1729 c238 950 445 1761 460 1800 39 104 89 157 171 183 128 39 234 42 1524 37
1235 -4 1309 -6 1605 -43 595 -73 938 -258 1108 -599 165 -332 191 -812 91
-1675 -14 -118 -22 -229 -19 -247 7 -41 50 -92 92 -109 20 -9 71 -14 134 -14
85 0 107 3 140 22 76 43 62 -45 254 1577 l175 1475 -22 45 c-13 25 -36 54 -51
65 l-28 21 -3797 3 c-3600 2 -3799 1 -3832 -15z"/>
</g>
</svg>
