<?xml version="1.0" standalone="no"?>
<!DOCTYPE svg PUBLIC "-//W3C//DTD SVG 20010904//EN"
 "http://www.w3.org/TR/2001/REC-SVG-20010904/DTD/svg10.dtd">
<svg version="1.0" xmlns="http://www.w3.org/2000/svg"
 width="658.000000pt" height="911.000000pt" viewBox="0 0 658.000000 911.000000"
 preserveAspectRatio="xMidYMid meet">
<metadata>
Created by potrace 1.16, written by Peter Selinger 2001-2019
</metadata>
<g transform="translate(0.000000,911.000000) scale(0.100000,-0.100000)"
fill="#000000" stroke="none">
<path d="M1300 9091 c-290 -64 -516 -232 -715 -531 -200 -301 -353 -695 -525
-1352 -69 -260 -69 -276 -10 -333 31 -30 32 -30 165 -33 145 -4 179 5 211 53
9 14 44 134 79 267 81 312 134 494 191 660 187 536 405 820 670 869 84 16 198
4 261 -26 202 -99 267 -433 182 -937 -11 -68 -261 -1086 -556 -2263 -534
-2138 -534 -2140 -531 -2230 3 -76 8 -100 35 -157 111 -235 417 -297 699 -141
27 15 83 61 125 102 133 133 91 -10 620 2105 349 1396 477 1892 498 1935 57
112 175 308 272 451 372 548 785 895 1264 1060 286 98 677 137 865 86 144 -40
291 -155 363 -286 134 -246 156 -646 62 -1155 -14 -75 -397 -1622 -852 -3438
-787 -3147 -826 -3306 -826 -3392 0 -70 5 -103 22 -148 47 -120 148 -206 286
-241 180 -47 400 20 551 169 138 136 52 -171 964 3476 445 1779 820 3288 834
3354 49 235 60 345 60 590 0 179 -4 252 -18 330 -57 311 -179 561 -367 747
-237 236 -577 377 -1009 419 -152 14 -442 7 -590 -16 -438 -67 -837 -244
-1200 -533 -125 -99 -349 -320 -463 -455 -50 -59 -94 -104 -97 -100 -4 5 -12
42 -19 83 -6 41 -27 121 -47 179 -142 427 -485 723 -952 821 -144 31 -389 36
-502 11z"/>
</g>
</svg>
