<?xml version="1.0" standalone="no"?>
<!DOCTYPE svg PUBLIC "-//W3C//DTD SVG 20010904//EN"
 "http://www.w3.org/TR/2001/REC-SVG-20010904/DTD/svg10.dtd">
<svg version="1.0" xmlns="http://www.w3.org/2000/svg"
 width="881.000000pt" height="992.000000pt" viewBox="0 0 881.000000 992.000000"
 preserveAspectRatio="xMidYMid meet">
<metadata>
Created by potrace 1.16, written by Peter Selinger 2001-2019
</metadata>
<g transform="translate(0.000000,992.000000) scale(0.100000,-0.100000)"
fill="#000000" stroke="none">
<path d="M6559 9906 c-56 -20 -106 -54 -137 -94 -16 -20 -1083 -1913 -2372
-4207 -1288 -2293 -2348 -4174 -2354 -4180 -7 -5 -47 -64 -91 -130 -92 -141
-275 -332 -395 -412 -251 -168 -592 -263 -943 -263 -78 0 -133 -23 -162 -67
-21 -32 -104 -351 -105 -402 0 -47 36 -105 80 -130 37 -20 44 -21 187 -11 81
5 346 15 589 22 458 12 1257 2 1808 -23 270 -13 296 -9 344 45 24 28 37 65 77
228 l49 195 -25 48 c-32 66 -65 87 -136 92 -152 9 -285 26 -358 44 -169 43
-323 143 -375 245 -19 37 -26 69 -28 130 -3 70 0 90 23 145 14 35 29 73 32 84
3 11 809 1451 1792 3199 l1786 3180 7 -50 c7 -41 418 -6653 418 -6707 0 -29
-90 -111 -155 -141 -79 -38 -260 -82 -409 -101 -66 -9 -227 -18 -356 -21 -129
-3 -249 -10 -267 -15 -66 -21 -86 -59 -138 -271 l-49 -195 25 -48 c13 -27 37
-58 52 -69 33 -24 37 -24 642 -7 939 28 1979 24 2714 -10 275 -13 301 -9 349
45 24 28 37 65 77 228 l49 195 -25 48 c-45 90 -40 89 -367 97 -381 8 -552 27
-635 70 -29 14 -45 32 -63 72 -24 52 -27 107 -299 4497 -151 2444 -279 4473
-284 4508 -11 71 -41 113 -98 137 -44 19 -422 19 -474 0z"/>
</g>
</svg>
