<?xml version="1.0" standalone="no"?>
<!DOCTYPE svg PUBLIC "-//W3C//DTD SVG 20010904//EN"
 "http://www.w3.org/TR/2001/REC-SVG-20010904/DTD/svg10.dtd">
<svg version="1.0" xmlns="http://www.w3.org/2000/svg"
 width="957.000000pt" height="942.000000pt" viewBox="0 0 957.000000 942.000000"
 preserveAspectRatio="xMidYMid meet">
<metadata>
Created by potrace 1.16, written by Peter Selinger 2001-2019
</metadata>
<g transform="translate(0.000000,942.000000) scale(0.100000,-0.100000)"
fill="#000000" stroke="none">
<path d="M2358 9399 c-21 -10 -45 -31 -54 -44 -19 -30 -103 -356 -104 -403 0
-49 32 -104 76 -128 37 -20 57 -22 404 -27 509 -9 751 -33 807 -81 59 -51 120
209 -922 -3956 -526 -2104 -967 -3849 -980 -3877 -48 -107 -116 -168 -216
-197 -134 -38 -526 -66 -942 -66 -209 0 -231 -2 -267 -20 -22 -11 -47 -31 -56
-45 -19 -30 -103 -356 -104 -403 0 -50 32 -104 78 -130 l41 -23 278 11 c1012
38 2368 38 3645 -1 360 -11 379 -10 415 7 21 11 47 33 59 51 24 36 104 343
104 400 0 52 -30 104 -74 129 -35 20 -54 21 -494 27 -469 7 -665 16 -857 42
-145 20 -176 29 -209 64 -21 22 -30 43 -33 78 -4 39 168 740 961 3913 728
2909 974 3880 997 3927 16 34 42 71 57 82 40 28 123 49 241 61 136 13 1805 13
2056 0 596 -33 935 -138 1174 -364 115 -110 187 -244 235 -439 44 -178 51
-261 51 -597 -1 -326 -8 -434 -60 -873 -14 -114 -25 -228 -25 -254 0 -59 30
-107 82 -134 36 -18 55 -20 203 -17 148 3 166 5 192 24 63 48 52 -24 255 1617
l188 1531 -22 45 c-13 25 -36 54 -51 65 l-28 21 -3532 2 c-3501 2 -3532 2
-3569 -18z"/>
</g>
</svg>
