<?xml version="1.0" standalone="no"?>
<!DOCTYPE svg PUBLIC "-//W3C//DTD SVG 20010904//EN"
 "http://www.w3.org/TR/2001/REC-SVG-20010904/DTD/svg10.dtd">
<svg version="1.0" xmlns="http://www.w3.org/2000/svg"
 width="930.000000pt" height="977.000000pt" viewBox="0 0 930.000000 977.000000"
 preserveAspectRatio="xMidYMid meet">
<metadata>
Created by potrace 1.16, written by Peter Selinger 2001-2019
</metadata>
<g transform="translate(0.000000,977.000000) scale(0.100000,-0.100000)"
fill="#000000" stroke="none">
<path d="M2200 9754 c-793 -107 -1567 -736 -1989 -1616 -77 -160 -122 -276
-175 -451 -41 -134 -44 -179 -16 -224 29 -48 68 -55 275 -51 176 3 181 4 227
31 61 36 80 64 112 170 33 108 109 259 178 352 72 98 217 238 328 318 121 86
343 196 490 242 412 129 851 104 1170 -66 330 -177 549 -518 649 -1014 37
-183 53 -346 58 -605 10 -478 -39 -951 -163 -1565 -54 -270 -5 -71 -592 -2414
-469 -1868 -492 -1956 -526 -2006 -71 -102 -164 -155 -316 -179 -220 -35 -630
-55 -1108 -56 -320 0 -337 -3 -384 -58 -19 -23 -37 -75 -74 -225 l-48 -194 25
-48 c13 -27 37 -58 52 -69 33 -24 52 -24 752 -6 1044 27 2504 22 3591 -11 358
-11 361 -11 402 10 23 12 49 32 58 46 20 30 103 356 104 404 0 46 -35 105 -79
129 -34 18 -61 20 -491 25 -467 7 -662 16 -855 42 -145 20 -176 29 -209 64
-58 60 -80 -45 442 2046 263 1056 487 1956 497 2000 10 44 48 188 86 320 462
1636 1141 2768 1944 3240 624 368 1384 362 1777 -13 184 -175 263 -429 213
-689 -20 -102 -19 -132 5 -170 29 -48 68 -55 275 -51 176 3 181 4 227 31 62
36 85 71 108 164 95 382 92 821 -9 1160 -101 336 -292 606 -552 779 -151 101
-301 160 -504 201 -111 22 -449 24 -595 4 -1045 -143 -1945 -878 -2710 -2212
-124 -216 -331 -630 -436 -871 -37 -87 -70 -156 -72 -154 -2 2 1 72 7 156 14
193 14 705 1 881 -46 598 -180 1075 -402 1433 -159 257 -391 472 -648 601
-301 151 -736 218 -1100 169z"/>
</g>
</svg>
