<?xml version="1.0" standalone="no"?>
<!DOCTYPE svg PUBLIC "-//W3C//DTD SVG 20010904//EN"
 "http://www.w3.org/TR/2001/REC-SVG-20010904/DTD/svg10.dtd">
<svg version="1.0" xmlns="http://www.w3.org/2000/svg"
 width="570.000000pt" height="1198.000000pt" viewBox="0 0 570.000000 1198.000000"
 preserveAspectRatio="xMidYMid meet">
<metadata>
Created by potrace 1.16, written by Peter Selinger 2001-2019
</metadata>
<g transform="translate(0.000000,1198.000000) scale(0.100000,-0.100000)"
fill="#000000" stroke="none">
<path d="M4977 11959 c-152 -37 -272 -105 -396 -223 -164 -158 -251 -349 -251
-552 0 -254 152 -452 396 -514 231 -59 503 25 708 219 113 108 207 272 240
418 56 252 -48 494 -261 606 -130 68 -282 84 -436 46z"/>
<path d="M3646 8935 c-414 -68 -774 -272 -1142 -646 -170 -174 -271 -300 -419
-524 -173 -262 -312 -526 -425 -810 -59 -148 -60 -174 -5 -233 l33 -37 132 -3
c142 -4 177 4 209 44 10 13 43 84 72 156 121 304 309 640 500 896 127 169 363
408 499 505 118 83 308 179 420 211 181 51 370 58 468 16 208 -90 278 -430
191 -939 -23 -139 -1356 -5478 -1406 -5636 -255 -796 -794 -1394 -1358 -1506
-142 -28 -439 -11 -552 32 -25 9 -23 11 49 48 175 87 308 225 385 400 40 90
73 234 73 320 0 321 -248 539 -589 518 -445 -27 -781 -393 -781 -852 0 -439
306 -746 861 -867 91 -19 133 -22 334 -22 247 0 370 15 584 69 686 174 1314
616 1711 1206 124 183 225 388 294 594 45 135 1370 5428 1391 5557 20 122 19
360 0 474 -33 185 -122 397 -225 535 -66 88 -215 230 -297 283 -145 93 -307
159 -481 196 -130 28 -400 35 -526 15z"/>
</g>
</svg>
