<?xml version="1.0" standalone="no"?>
<!DOCTYPE svg PUBLIC "-//W3C//DTD SVG 20010904//EN"
 "http://www.w3.org/TR/2001/REC-SVG-20010904/DTD/svg10.dtd">
<svg version="1.0" xmlns="http://www.w3.org/2000/svg"
 width="544.000000pt" height="626.000000pt" viewBox="0 0 544.000000 626.000000"
 preserveAspectRatio="xMidYMid meet">
<metadata>
Created by potrace 1.16, written by Peter Selinger 2001-2019
</metadata>
<g transform="translate(0.000000,626.000000) scale(0.100000,-0.100000)"
fill="#000000" stroke="none">
<path d="M3540 6253 c-562 -44 -1201 -287 -1731 -659 -260 -183 -561 -452
-765 -685 -375 -427 -663 -917 -837 -1425 -156 -456 -219 -873 -196 -1305 27
-503 192 -975 471 -1341 282 -372 695 -641 1172 -763 228 -58 329 -69 626 -70
153 0 318 6 390 13 835 89 1609 404 2190 893 129 109 364 345 457 459 100 124
113 147 113 200 0 53 -11 72 -99 163 -61 64 -97 87 -134 87 -59 0 -87 -21
-184 -144 -615 -770 -1641 -1256 -2663 -1260 -173 -1 -232 3 -300 17 -234 51
-412 147 -573 311 -325 332 -432 848 -326 1581 55 380 229 1090 364 1484 211
617 475 1058 845 1414 325 314 705 525 1075 597 321 62 713 19 1003 -111 121
-55 333 -213 318 -238 -3 -5 -30 -11 -60 -14 -30 -3 -93 -19 -140 -35 -330
-114 -559 -427 -560 -767 0 -209 92 -364 271 -454 97 -48 179 -64 313 -59 96
4 131 10 210 37 334 113 529 371 581 766 33 254 -43 533 -201 743 -271 360
-818 577 -1434 570 -83 -1 -171 -3 -196 -5z"/>
</g>
</svg>
