<?xml version="1.0" standalone="no"?>
<!DOCTYPE svg PUBLIC "-//W3C//DTD SVG 20010904//EN"
 "http://www.w3.org/TR/2001/REC-SVG-20010904/DTD/svg10.dtd">
<svg version="1.0" xmlns="http://www.w3.org/2000/svg"
 width="746.000000pt" height="991.000000pt" viewBox="0 0 746.000000 991.000000"
 preserveAspectRatio="xMidYMid meet">
<metadata>
Created by potrace 1.16, written by Peter Selinger 2001-2019
</metadata>
<g transform="translate(0.000000,991.000000) scale(0.100000,-0.100000)"
fill="#000000" stroke="none">
<path d="M5291 9899 c-296 -38 -622 -187 -899 -410 -100 -81 -279 -262 -365
-369 -189 -234 -379 -571 -486 -860 -57 -156 -121 -404 -147 -570 -27 -170
-25 -504 4 -660 76 -415 258 -756 572 -1071 354 -355 829 -637 1500 -888 90
-34 165 -63 167 -64 5 -5 -206 -824 -275 -1072 -288 -1024 -564 -1704 -970
-2390 -202 -340 -382 -584 -567 -770 -296 -296 -542 -395 -885 -356 -278 32
-480 119 -621 267 -99 105 -150 210 -196 403 -37 158 -43 460 -14 691 35 270
76 449 385 1688 163 650 303 1224 311 1275 20 121 19 359 0 473 -79 454 -380
808 -818 963 -203 71 -485 100 -660 67 -301 -57 -537 -228 -742 -536 -200
-301 -353 -695 -525 -1352 -69 -260 -69 -276 -10 -333 31 -30 32 -30 165 -33
145 -4 179 5 211 53 9 14 44 134 79 267 151 583 254 877 393 1121 170 299 365
433 602 413 128 -11 216 -70 274 -184 79 -156 93 -445 36 -775 -10 -62 -147
-625 -304 -1252 -396 -1584 -400 -1607 -401 -2035 0 -268 6 -324 51 -500 162
-629 625 -974 1445 -1077 92 -11 216 -17 394 -17 233 -1 270 1 360 21 567 126
1098 516 1660 1218 724 906 1281 2043 1651 3368 26 95 28 99 53 94 14 -2 139
-28 276 -56 294 -62 331 -63 380 -9 24 26 37 55 53 124 12 49 22 100 22 114 0
31 -32 84 -62 104 -18 12 -399 96 -560 124 -16 2 -28 11 -28 18 0 8 13 74 29
147 96 432 157 820 198 1257 25 268 25 938 0 1174 -74 694 -239 1239 -488
1611 -140 209 -352 399 -541 484 -212 95 -468 131 -707 100z m282 -414 c283
-60 449 -348 521 -905 82 -628 41 -1301 -130 -2172 -64 -329 -210 -967 -224
-982 -5 -5 -69 15 -147 44 -550 210 -979 466 -1274 761 -301 301 -461 643
-488 1039 -29 423 106 930 362 1355 223 371 532 663 837 788 191 79 388 105
543 72z"/>
</g>
</svg>
