<?xml version="1.0" standalone="no"?>
<!DOCTYPE svg PUBLIC "-//W3C//DTD SVG 20010904//EN"
 "http://www.w3.org/TR/2001/REC-SVG-20010904/DTD/svg10.dtd">
<svg version="1.0" xmlns="http://www.w3.org/2000/svg"
 width="1124.000000pt" height="904.000000pt" viewBox="0 0 1124.000000 904.000000"
 preserveAspectRatio="xMidYMid meet">
<metadata>
Created by potrace 1.16, written by Peter Selinger 2001-2019
</metadata>
<g transform="translate(0.000000,904.000000) scale(0.100000,-0.100000)"
fill="#000000" stroke="none">
<path d="M2270 9021 c-19 -10 -43 -29 -53 -43 -20 -27 -66 -196 -67 -244 0
-38 34 -91 77 -120 30 -20 47 -21 365 -27 421 -8 650 -32 753 -79 36 -16 50
-62 48 -158 -1 -77 -92 -448 -930 -3801 -838 -3349 -934 -3724 -971 -3800 -72
-149 -137 -202 -293 -238 -168 -39 -463 -61 -830 -61 -207 0 -217 -1 -249 -22
-52 -36 -69 -67 -96 -173 -29 -112 -26 -149 13 -195 51 -61 56 -62 335 -50
139 5 546 15 903 21 669 12 1533 3 2191 -22 282 -11 294 -11 330 8 21 11 46
31 57 44 20 28 66 196 67 245 0 38 -34 91 -77 120 -30 20 -47 21 -365 27 -421
8 -650 32 -753 79 -35 16 -50 62 -49 154 1 73 103 490 979 3993 l977 3911
1999 0 c1100 0 1999 -2 1999 -5 0 -3 -434 -1743 -965 -3867 -604 -2416 -977
-3889 -996 -3934 -113 -271 -251 -316 -1027 -331 -317 -6 -335 -7 -364 -27
-50 -34 -68 -66 -94 -171 -29 -112 -26 -149 13 -195 51 -61 56 -62 335 -50
139 5 546 15 903 21 669 12 1533 3 2191 -22 282 -11 294 -11 330 8 21 11 46
31 57 44 20 28 66 196 67 245 0 38 -34 91 -77 120 -30 20 -47 21 -365 27 -421
8 -650 32 -753 79 -36 16 -50 62 -48 158 1 77 92 448 930 3801 838 3349 934
3724 971 3800 72 149 137 202 293 238 168 39 463 61 830 61 207 0 217 1 249
23 18 12 42 34 52 48 27 36 71 215 63 256 -7 38 -46 88 -86 108 -24 13 -585
15 -4431 15 -4266 0 -4404 -1 -4438 -19z"/>
</g>
</svg>
