<?xml version="1.0" standalone="no"?>
<!DOCTYPE svg PUBLIC "-//W3C//DTD SVG 20010904//EN"
 "http://www.w3.org/TR/2001/REC-SVG-20010904/DTD/svg10.dtd">
<svg version="1.0" xmlns="http://www.w3.org/2000/svg"
 width="790.000000pt" height="913.000000pt" viewBox="0 0 790.000000 913.000000"
 preserveAspectRatio="xMidYMid meet">
<metadata>
Created by potrace 1.16, written by Peter Selinger 2001-2019
</metadata>
<g transform="translate(0.000000,913.000000) scale(0.100000,-0.100000)"
fill="#000000" stroke="none">
<path d="M6070 9120 c-390 -48 -784 -217 -1115 -480 -105 -84 -326 -299 -434
-426 -465 -537 -891 -1351 -1280 -2440 -113 -319 -156 -448 -406 -1249 -114
-363 -208 -661 -209 -662 -3 -4 -262 55 -344 77 -561 156 -992 388 -1308 704
-136 136 -218 241 -298 384 -147 263 -203 507 -193 847 6 208 17 285 78 530
250 1000 575 1697 1040 2229 52 59 104 121 117 138 45 62 20 158 -51 191 -46
22 -254 24 -295 3 -32 -16 -109 -97 -208 -216 -468 -562 -799 -1291 -1052
-2315 -83 -335 -105 -499 -105 -790 0 -408 80 -755 254 -1105 128 -258 252
-431 459 -644 287 -294 611 -513 1026 -691 120 -52 456 -166 547 -186 35 -7
57 -17 57 -26 0 -7 -174 -568 -388 -1245 l-387 -1233 0 -115 c0 -104 3 -121
27 -172 48 -104 136 -177 255 -213 73 -22 226 -19 309 6 196 60 352 208 414
394 11 33 121 602 244 1263 124 662 226 1205 228 1207 2 1 64 -2 138 -7 194
-14 573 -3 756 21 463 62 903 201 1354 427 1422 715 2435 2113 2580 3563 15
156 13 526 -5 671 -57 462 -226 853 -483 1122 -214 223 -450 351 -767 418
-115 24 -427 35 -555 20z m357 -919 c502 -103 845 -465 948 -1001 26 -133 31
-389 11 -548 -125 -975 -882 -1918 -1971 -2454 -348 -171 -717 -294 -1085
-362 -279 -51 -400 -61 -758 -60 -218 0 -336 4 -343 11 -10 10 199 1165 263
1443 114 502 333 1068 577 1495 359 626 800 1077 1286 1315 201 99 383 154
595 180 120 14 360 5 477 -19z"/>
</g>
</svg>
