<?xml version="1.0" standalone="no"?>
<!DOCTYPE svg PUBLIC "-//W3C//DTD SVG 20010904//EN"
 "http://www.w3.org/TR/2001/REC-SVG-20010904/DTD/svg10.dtd">
<svg version="1.0" xmlns="http://www.w3.org/2000/svg"
 width="954.000000pt" height="938.000000pt" viewBox="0 0 954.000000 938.000000"
 preserveAspectRatio="xMidYMid meet">
<metadata>
Created by potrace 1.16, written by Peter Selinger 2001-2019
</metadata>
<g transform="translate(0.000000,938.000000) scale(0.100000,-0.100000)"
fill="#000000" stroke="none">
<path d="M2280 9362 c-19 -11 -43 -30 -53 -44 -20 -27 -66 -196 -67 -244 0
-38 34 -91 77 -120 30 -20 47 -21 365 -27 421 -8 650 -32 753 -79 36 -16 50
-62 48 -158 -1 -77 -92 -450 -935 -3821 -843 -3367 -939 -3744 -976 -3820 -72
-149 -137 -202 -293 -238 -168 -39 -463 -61 -830 -61 -207 0 -217 -1 -249 -22
-52 -36 -69 -67 -96 -173 -29 -112 -26 -149 13 -195 51 -61 56 -62 335 -50
139 5 539 15 888 21 654 12 1515 3 2167 -22 281 -11 293 -11 329 8 21 11 46
31 57 44 20 28 66 196 67 245 0 38 -34 91 -77 120 -30 20 -47 21 -365 27 -421
8 -650 32 -753 79 -36 16 -50 62 -48 158 1 76 49 276 450 1880 l449 1795 875
3 c600 2 910 -1 989 -8 218 -22 431 -92 607 -201 102 -63 260 -215 323 -308
171 -255 231 -572 174 -908 -8 -45 -90 -387 -183 -760 -182 -729 -201 -830
-201 -1051 0 -288 71 -537 215 -752 240 -361 644 -575 1235 -656 158 -22 526
-25 615 -6 180 39 360 119 516 227 122 85 366 334 461 470 147 211 262 448
334 684 43 141 43 195 -2 243 -38 40 -82 58 -141 58 -123 0 -162 -35 -204
-179 -156 -539 -504 -983 -884 -1126 -224 -85 -467 -69 -609 40 -49 37 -103
120 -131 201 -46 132 -59 247 -59 509 0 267 -3 225 95 1240 67 691 70 740 66
920 -6 207 -16 274 -72 441 -149 449 -521 817 -1037 1029 l-78 32 148 38 c542
138 1106 387 1537 679 388 262 741 620 930 941 479 813 291 1702 -480 2281
-447 335 -976 526 -1695 611 -132 16 -341 17 -2355 20 -2144 3 -2211 3 -2245
-15z m4135 -442 c601 -43 1021 -190 1305 -457 217 -204 310 -449 310 -818 0
-420 -146 -987 -356 -1385 -229 -432 -514 -701 -979 -926 -244 -118 -457 -188
-735 -244 -356 -71 -514 -80 -1506 -80 l-832 0 453 1808 c249 994 462 1832
474 1862 33 87 79 159 114 181 44 27 118 47 207 58 106 12 1376 13 1545 1z"/>
</g>
</svg>
