<?xml version="1.0" standalone="no"?>
<!DOCTYPE svg PUBLIC "-//W3C//DTD SVG 20010904//EN"
 "http://www.w3.org/TR/2001/REC-SVG-20010904/DTD/svg10.dtd">
<svg version="1.0" xmlns="http://www.w3.org/2000/svg"
 width="576.000000pt" height="954.000000pt" viewBox="0 0 576.000000 954.000000"
 preserveAspectRatio="xMidYMid meet">
<metadata>
Created by potrace 1.16, written by Peter Selinger 2001-2019
</metadata>
<g transform="translate(0.000000,954.000000) scale(0.100000,-0.100000)"
fill="#000000" stroke="none">
<path d="M2675 9534 c-16 -2 -73 -9 -125 -15 -458 -52 -940 -256 -1305 -552
-116 -94 -320 -306 -407 -423 -694 -935 -588 -2192 253 -3009 151 -147 239
-214 519 -394 129 -84 239 -156 243 -160 4 -4 -34 -30 -85 -57 -232 -123 -496
-296 -703 -460 -159 -126 -452 -424 -561 -569 -260 -348 -418 -710 -480 -1101
-25 -160 -29 -424 -10 -593 58 -499 286 -961 656 -1331 211 -212 434 -373 705
-512 498 -254 1027 -372 1590 -355 762 23 1464 315 1989 827 237 231 397 451
536 735 120 246 195 484 237 755 25 164 25 538 -1 705 -70 452 -263 890 -552
1255 -86 108 -304 326 -414 415 -87 69 -353 248 -717 481 -111 71 -203 131
-203 134 0 3 33 23 72 45 118 65 415 266 533 361 134 107 341 307 443 429 424
506 577 1138 423 1742 -62 241 -175 475 -328 682 -76 100 -277 306 -383 391
-394 314 -928 521 -1470 570 -107 9 -386 12 -455 4z m383 -545 c222 -24 399
-73 592 -165 475 -227 804 -645 896 -1139 23 -121 25 -397 5 -520 -91 -558
-452 -1052 -1057 -1448 -55 -36 -111 -71 -125 -77 -25 -11 -66 14 -805 490
-429 276 -813 527 -854 558 -161 119 -314 298 -402 468 -201 389 -161 840 107
1195 131 175 337 340 559 448 317 154 738 228 1084 190z m218 -4924 c498 -322
945 -616 993 -654 304 -243 507 -560 583 -914 31 -145 31 -407 0 -554 -63
-294 -201 -544 -424 -766 -540 -537 -1470 -740 -2229 -487 -681 228 -1180 783
-1300 1446 -17 93 -22 161 -23 314 -1 199 8 294 45 465 146 668 636 1280 1349
1681 52 30 96 54 97 54 2 0 410 -263 909 -585z"/>
</g>
</svg>
