<?xml version="1.0" standalone="no"?>
<!DOCTYPE svg PUBLIC "-//W3C//DTD SVG 20010904//EN"
 "http://www.w3.org/TR/2001/REC-SVG-20010904/DTD/svg10.dtd">
<svg version="1.0" xmlns="http://www.w3.org/2000/svg"
 width="573.000000pt" height="1004.000000pt" viewBox="0 0 573.000000 1004.000000"
 preserveAspectRatio="xMidYMid meet">
<metadata>
Created by potrace 1.16, written by Peter Selinger 2001-2019
</metadata>
<g transform="translate(0.000000,1004.000000) scale(0.100000,-0.100000)"
fill="#000000" stroke="none">
<path d="M3508 10029 c-236 -34 -494 -132 -685 -260 -109 -72 -285 -252 -362
-369 -168 -255 -234 -481 -234 -805 0 -192 10 -295 54 -507 90 -443 282 -947
621 -1632 77 -153 137 -280 136 -282 -2 -2 -55 -19 -118 -38 -443 -134 -830
-329 -1205 -608 -330 -245 -656 -571 -902 -902 -438 -588 -717 -1277 -794
-1966 -17 -157 -15 -510 5 -665 64 -492 251 -929 544 -1266 291 -336 687 -567
1152 -673 208 -48 516 -68 711 -46 362 39 713 192 1054 459 92 72 329 304 419
411 533 630 885 1465 1040 2470 79 514 81 1018 5 1420 -111 585 -353 1088
-786 1637 -70 89 -193 244 -273 345 -713 903 -1083 1513 -1176 1944 -20 94
-23 261 -5 324 32 114 159 274 280 353 124 82 212 107 397 114 202 8 352 -19
528 -96 82 -36 208 -117 389 -249 301 -219 502 -340 655 -393 132 -45 255 -34
402 38 112 54 231 177 293 300 55 111 71 181 65 288 -8 147 -91 271 -222 331
-102 47 -1015 248 -1331 293 -284 41 -513 51 -657 30z m-138 -4484 c343 -679
493 -1131 562 -1695 20 -158 16 -619 -6 -800 -100 -824 -387 -1630 -756 -2122
-144 -191 -359 -371 -528 -443 -135 -56 -200 -69 -367 -69 -367 -2 -670 118
-910 359 -379 380 -495 971 -354 1800 72 422 213 942 354 1305 303 779 772
1355 1380 1698 151 85 444 204 490 199 15 -1 47 -57 135 -232z"/>
</g>
</svg>
