<?xml version="1.0" standalone="no"?>
<!DOCTYPE svg PUBLIC "-//W3C//DTD SVG 20010904//EN"
 "http://www.w3.org/TR/2001/REC-SVG-20010904/DTD/svg10.dtd">
<svg version="1.0" xmlns="http://www.w3.org/2000/svg"
 width="546.000000pt" height="962.000000pt" viewBox="0 0 546.000000 962.000000"
 preserveAspectRatio="xMidYMid meet">
<metadata>
Created by potrace 1.16, written by Peter Selinger 2001-2019
</metadata>
<g transform="translate(0.000000,962.000000) scale(0.100000,-0.100000)"
fill="#000000" stroke="none">
<path d="M3415 9613 c-158 -14 -415 -84 -560 -153 -381 -182 -640 -533 -710
-965 -22 -133 -19 -389 5 -556 67 -457 249 -957 612 -1678 87 -173 158 -315
158 -317 0 -1 -15 -6 -32 -9 -59 -13 -311 -96 -413 -137 -598 -236 -1201 -700
-1631 -1253 -474 -608 -769 -1326 -835 -2028 -15 -163 -6 -546 15 -682 43
-264 116 -492 233 -725 164 -326 370 -562 663 -759 359 -241 809 -365 1260
-348 482 19 926 234 1346 652 285 283 504 593 704 1000 196 398 324 787 425
1299 65 330 93 569 101 876 18 602 -92 1113 -348 1624 -137 274 -261 460 -546
819 -358 451 -498 636 -678 892 -390 556 -595 963 -640 1272 -32 215 10 336
171 498 70 71 107 99 167 129 193 94 487 101 750 17 139 -45 264 -113 522
-284 264 -176 340 -221 481 -288 167 -79 259 -94 378 -63 91 23 169 67 241
135 86 80 140 165 172 266 65 206 -1 385 -175 473 -82 41 -873 214 -1186 259
-244 35 -491 48 -650 34z m-211 -4191 c381 -721 547 -1247 587 -1863 54 -835
-279 -2028 -746 -2671 -91 -125 -284 -316 -387 -383 -191 -123 -306 -158 -528
-159 -214 0 -382 35 -545 116 -470 234 -725 726 -725 1399 0 551 191 1394 457
2018 310 727 807 1291 1401 1590 144 72 370 157 383 143 4 -4 50 -89 103 -190z"/>
</g>
</svg>
