<?xml version="1.0" standalone="no"?>
<!DOCTYPE svg PUBLIC "-//W3C//DTD SVG 20010904//EN"
 "http://www.w3.org/TR/2001/REC-SVG-20010904/DTD/svg10.dtd">
<svg version="1.0" xmlns="http://www.w3.org/2000/svg"
 width="1230.000000pt" height="357.000000pt" viewBox="0 0 1230.000000 357.000000"
 preserveAspectRatio="xMidYMid meet">
<metadata>
Created by potrace 1.16, written by Peter Selinger 2001-2019
</metadata>
<g transform="translate(0.000000,357.000000) scale(0.100000,-0.100000)"
fill="#000000" stroke="none">
<path d="M5880 3559 c-1550 -46 -3070 -592 -4305 -1549 -371 -287 -805 -711
-1120 -1095 -124 -150 -269 -345 -369 -496 -67 -101 -78 -123 -83 -172 -8 -77
15 -135 74 -187 70 -62 160 -77 238 -41 51 24 71 46 188 213 402 570 906 1056
1507 1453 899 594 1975 969 3168 1105 345 39 479 45 967 45 488 0 622 -6 967
-45 2012 -228 3675 -1139 4675 -2558 117 -167 137 -189 188 -213 78 -36 168
-21 238 41 59 52 82 110 74 187 -5 49 -16 71 -83 172 -157 236 -360 496 -575
736 -150 168 -497 508 -664 651 -909 776 -2012 1322 -3196 1583 -441 97 -901
156 -1294 166 -104 3 -226 7 -270 8 -44 2 -190 0 -325 -4z"/>
</g>
</svg>
