<?xml version="1.0" standalone="no"?>
<!DOCTYPE svg PUBLIC "-//W3C//DTD SVG 20010904//EN"
 "http://www.w3.org/TR/2001/REC-SVG-20010904/DTD/svg10.dtd">
<svg version="1.0" xmlns="http://www.w3.org/2000/svg"
 width="822.000000pt" height="1008.000000pt" viewBox="0 0 822.000000 1008.000000"
 preserveAspectRatio="xMidYMid meet">
<metadata>
Created by potrace 1.16, written by Peter Selinger 2001-2019
</metadata>
<g transform="translate(0.000000,1008.000000) scale(0.100000,-0.100000)"
fill="#000000" stroke="none">
<path d="M4920 10073 c-679 -53 -1411 -380 -1990 -889 -775 -681 -1242 -1665
-1207 -2544 34 -854 490 -1532 1232 -1833 143 -59 114 -50 1110 -311 473 -124
896 -240 940 -257 380 -149 626 -471 712 -932 24 -131 24 -442 -1 -592 -92
-560 -366 -1069 -794 -1476 -421 -399 -922 -619 -1413 -619 -646 0 -1233 163
-1616 449 -573 427 -780 1142 -591 2046 41 199 43 222 20 264 -34 63 -65 71
-257 71 -151 0 -174 -2 -202 -20 -18 -10 -39 -29 -47 -42 -18 -28 -816 -3215
-816 -3260 0 -45 34 -96 75 -114 50 -21 182 -19 222 3 17 10 210 214 428 453
218 239 399 435 403 435 4 0 41 -38 83 -85 467 -526 1260 -820 2210 -820 586
0 1169 185 1723 547 926 605 1575 1590 1747 2648 27 166 37 571 19 738 -71
655 -377 1200 -863 1535 -124 85 -345 194 -492 241 -66 22 -509 141 -985 266
-518 136 -899 241 -950 262 -155 64 -269 143 -390 269 -288 303 -385 741 -273
1244 176 797 909 1525 1714 1704 267 59 542 60 864 5 767 -133 1234 -637 1355
-1462 53 -356 44 -764 -25 -1212 -8 -50 17 -101 64 -132 32 -22 44 -23 205
-23 195 0 228 9 259 70 17 34 817 3223 817 3257 0 29 -37 82 -72 103 -41 25
-183 28 -227 6 -15 -8 -207 -211 -425 -450 -219 -240 -401 -436 -404 -436 -4
0 -26 29 -49 63 -23 34 -76 101 -118 149 -392 449 -1028 694 -1785 686 -91 -1
-185 -3 -210 -5z"/>
</g>
</svg>
