<?xml version="1.0" standalone="no"?>
<!DOCTYPE svg PUBLIC "-//W3C//DTD SVG 20010904//EN"
 "http://www.w3.org/TR/2001/REC-SVG-20010904/DTD/svg10.dtd">
<svg version="1.0" xmlns="http://www.w3.org/2000/svg"
 width="464.000000pt" height="611.000000pt" viewBox="0 0 464.000000 611.000000"
 preserveAspectRatio="xMidYMid meet">
<metadata>
Created by potrace 1.16, written by Peter Selinger 2001-2019
</metadata>
<g transform="translate(0.000000,611.000000) scale(0.100000,-0.100000)"
fill="#000000" stroke="none">
<path d="M3340 6099 c-485 -40 -1045 -215 -1511 -474 -143 -79 -421 -266 -554
-371 -141 -112 -466 -437 -579 -579 -404 -508 -626 -1069 -686 -1733 -17 -177
-8 -619 15 -762 63 -406 209 -798 408 -1097 397 -596 1020 -970 1777 -1065
152 -19 555 -16 693 5 463 71 906 246 1323 523 117 77 144 110 144 170 0 45
-59 211 -86 244 -29 34 -84 55 -122 45 -15 -4 -83 -44 -152 -90 -635 -421
-1224 -578 -1758 -469 -524 107 -929 511 -1072 1068 -51 203 -64 325 -64 606
0 330 27 570 112 975 l27 130 1275 5 c1050 4 1281 8 1312 19 65 25 131 82 162
144 69 135 32 279 -87 336 -43 21 -46 21 -1285 21 -683 0 -1242 2 -1242 4 0 2
25 78 56 168 184 536 428 907 782 1190 291 232 626 382 1007 450 109 19 169
22 650 27 l530 6 51 27 c57 30 103 77 136 141 33 61 32 176 -1 234 -13 22 -37
51 -53 63 -67 49 -76 50 -607 49 -273 -1 -543 -6 -601 -10z"/>
</g>
</svg>
