<?xml version="1.0" standalone="no"?>
<!DOCTYPE svg PUBLIC "-//W3C//DTD SVG 20010904//EN"
 "http://www.w3.org/TR/2001/REC-SVG-20010904/DTD/svg10.dtd">
<svg version="1.0" xmlns="http://www.w3.org/2000/svg"
 width="576.000000pt" height="954.000000pt" viewBox="0 0 576.000000 954.000000"
 preserveAspectRatio="xMidYMid meet">
<metadata>
Created by potrace 1.16, written by Peter Selinger 2001-2019
</metadata>
<g transform="translate(0.000000,954.000000) scale(0.100000,-0.100000)"
fill="#000000" stroke="none">
<path d="M2620 9529 c-430 -41 -878 -204 -1230 -447 -348 -240 -605 -537 -785
-907 -103 -210 -160 -389 -202 -630 -24 -141 -24 -519 0 -660 41 -234 105
-433 207 -641 115 -233 256 -431 445 -620 147 -147 266 -238 602 -454 l301
-195 -142 -74 c-420 -220 -754 -459 -1042 -746 -245 -244 -394 -446 -533 -725
-400 -804 -296 -1730 271 -2405 536 -638 1429 -1026 2362 -1025 805 1 1576
312 2120 856 433 433 691 972 747 1564 14 150 6 431 -16 575 -67 438 -260 870
-546 1224 -110 137 -344 362 -485 466 -66 50 -306 209 -532 355 -226 145 -409
267 -406 271 2 4 58 37 125 74 159 89 446 281 582 390 618 493 925 1084 904
1735 -13 372 -115 684 -328 995 -388 570 -1101 951 -1914 1025 -126 11 -381
11 -505 -1z m441 -440 c551 -56 1021 -320 1324 -744 383 -535 377 -1269 -15
-1864 -97 -148 -162 -225 -324 -386 -190 -189 -429 -372 -643 -491 l-62 -35
-823 531 c-453 292 -856 557 -897 588 -234 178 -424 445 -495 692 -166 584
131 1172 752 1488 350 178 794 261 1183 221z m308 -5024 c469 -302 891 -579
939 -615 166 -123 343 -318 452 -495 278 -452 291 -1021 32 -1483 -138 -248
-379 -489 -652 -654 -573 -345 -1341 -432 -1977 -223 -715 235 -1239 812
-1365 1503 -29 158 -31 472 -4 642 79 504 317 954 715 1350 211 209 474 405
744 553 l119 65 72 -46 c40 -26 456 -294 925 -597z"/>
</g>
</svg>
