<?xml version="1.0" standalone="no"?>
<!DOCTYPE svg PUBLIC "-//W3C//DTD SVG 20010904//EN"
 "http://www.w3.org/TR/2001/REC-SVG-20010904/DTD/svg10.dtd">
<svg version="1.0" xmlns="http://www.w3.org/2000/svg"
 width="567.000000pt" height="626.000000pt" viewBox="0 0 567.000000 626.000000"
 preserveAspectRatio="xMidYMid meet">
<metadata>
Created by potrace 1.16, written by Peter Selinger 2001-2019
</metadata>
<g transform="translate(0.000000,626.000000) scale(0.100000,-0.100000)"
fill="#000000" stroke="none">
<path d="M1300 6241 c-451 -99 -771 -469 -1035 -1197 -59 -164 -149 -465 -215
-722 -58 -226 -57 -242 1 -298 30 -29 31 -29 167 -32 123 -2 140 -1 170 18 18
11 39 35 47 52 8 18 44 146 80 284 125 486 207 731 329 979 135 276 288 442
459 502 80 28 245 24 314 -6 210 -93 278 -427 192 -941 -11 -69 -261 -1088
-556 -2265 -534 -2138 -534 -2140 -531 -2230 3 -76 8 -100 35 -157 111 -235
417 -297 699 -141 27 15 83 61 125 102 134 134 88 -22 645 2207 l495 1979 55
104 c295 552 658 969 1029 1180 411 235 936 253 1184 41 34 -29 34 -29 10 -34
-179 -37 -289 -83 -405 -171 -195 -149 -317 -393 -318 -635 0 -160 47 -274
154 -374 113 -104 258 -152 435 -143 295 15 555 189 694 465 66 130 109 365
96 522 -38 464 -348 798 -840 907 -95 21 -327 28 -454 14 -569 -62 -1061 -348
-1493 -868 l-76 -91 -27 86 c-137 442 -486 751 -963 852 -144 31 -389 36 -502
11z"/>
</g>
</svg>
