<?xml version="1.0" standalone="no"?>
<!DOCTYPE svg PUBLIC "-//W3C//DTD SVG 20010904//EN"
 "http://www.w3.org/TR/2001/REC-SVG-20010904/DTD/svg10.dtd">
<svg version="1.0" xmlns="http://www.w3.org/2000/svg"
 width="957.000000pt" height="1246.000000pt" viewBox="0 0 957.000000 1246.000000"
 preserveAspectRatio="xMidYMid meet">
<metadata>
Created by potrace 1.16, written by Peter Selinger 2001-2019
</metadata>
<g transform="translate(0.000000,1246.000000) scale(0.100000,-0.100000)"
fill="#000000" stroke="none">
<path d="M5740 12450 c-1917 -159 -3824 -1490 -4911 -3426 -748 -1333 -1002
-2812 -693 -4038 166 -660 517 -1274 965 -1690 550 -510 1220 -807 2029 -898
173 -19 667 -16 855 6 276 32 600 95 826 161 l81 23 -6 -66 c-54 -574 -68
-1230 -33 -1465 73 -483 249 -777 556 -931 185 -93 323 -121 586 -120 165 0
205 4 305 26 477 106 893 419 1264 951 220 316 446 784 596 1237 63 192 130
434 130 472 0 97 -99 173 -193 147 -71 -19 -91 -47 -136 -186 -50 -158 -107
-276 -199 -414 -272 -406 -707 -694 -1166 -774 -111 -19 -321 -19 -418 -1
-152 29 -251 79 -357 180 -139 134 -231 318 -307 616 -30 120 -94 460 -94 501
0 10 38 32 113 64 1136 489 2206 1406 2942 2520 1014 1535 1342 3344 865 4775
-436 1307 -1471 2151 -2840 2315 -158 19 -605 28 -760 15z m540 -465 c756
-115 1370 -604 1678 -1335 357 -846 358 -1916 2 -3315 -252 -991 -612 -1819
-1094 -2512 -338 -487 -746 -916 -1181 -1238 -101 -76 -338 -235 -349 -235 -2
0 -7 19 -11 42 -99 610 -282 998 -566 1201 -423 301 -1049 253 -1523 -117
-292 -228 -506 -561 -577 -899 -28 -131 -31 -347 -5 -451 9 -38 14 -71 12 -74
-7 -7 -172 83 -262 144 -616 414 -980 1135 -1055 2088 -15 189 -6 685 16 891
88 837 343 1812 686 2620 82 196 286 603 390 780 370 633 832 1181 1330 1577
631 502 1300 792 1969 852 96 8 439 -3 540 -19z m-1940 -7635 c138 -34 222
-80 316 -174 63 -63 89 -99 122 -166 48 -98 86 -226 107 -355 18 -110 38 -388
33 -470 l-3 -60 -110 -46 c-240 -101 -522 -181 -780 -221 -115 -18 -183 -22
-385 -22 -275 0 -282 1 -386 80 -136 103 -204 249 -204 440 0 244 101 477 298
686 156 165 392 296 590 328 90 14 305 3 402 -20z"/>
</g>
</svg>
