<?xml version="1.0" standalone="no"?>
<!DOCTYPE svg PUBLIC "-//W3C//DTD SVG 20010904//EN"
 "http://www.w3.org/TR/2001/REC-SVG-20010904/DTD/svg10.dtd">
<svg version="1.0" xmlns="http://www.w3.org/2000/svg"
 width="664.000000pt" height="939.000000pt" viewBox="0 0 664.000000 939.000000"
 preserveAspectRatio="xMidYMid meet">
<metadata>
Created by potrace 1.16, written by Peter Selinger 2001-2019
</metadata>
<g transform="translate(0.000000,939.000000) scale(0.100000,-0.100000)"
fill="#000000" stroke="none">
<path d="M1702 9369 c-63 -32 -97 -87 -97 -160 0 -43 5 -65 21 -85 40 -54 67
-66 166 -75 179 -17 287 -68 404 -191 106 -110 204 -282 297 -518 75 -192
1409 -3900 1405 -3909 -2 -4 -802 -792 -1778 -1750 -976 -958 -1832 -1800
-1902 -1871 -109 -111 -132 -141 -169 -215 -39 -78 -43 -95 -47 -175 -3 -67 0
-103 13 -142 53 -165 190 -266 372 -276 141 -7 266 44 383 158 38 36 789 913
1671 1950 881 1037 1605 1888 1609 1893 3 4 284 -766 624 -1710 340 -945 634
-1751 652 -1791 39 -85 105 -187 166 -257 58 -65 177 -159 250 -196 l59 -30
374 3 373 3 27 25 c37 34 58 85 50 122 -4 16 -32 57 -62 91 -31 34 -72 87 -91
117 -49 75 -141 271 -195 415 -25 66 -667 1846 -1426 3955 -760 2109 -1401
3876 -1425 3925 -55 111 -120 198 -220 293 -161 152 -367 259 -637 331 -205
55 -494 91 -723 91 -83 0 -109 -4 -144 -21z"/>
</g>
</svg>
