<?xml version="1.0" standalone="no"?>
<!DOCTYPE svg PUBLIC "-//W3C//DTD SVG 20010904//EN"
 "http://www.w3.org/TR/2001/REC-SVG-20010904/DTD/svg10.dtd">
<svg version="1.0" xmlns="http://www.w3.org/2000/svg"
 width="984.000000pt" height="1008.000000pt" viewBox="0 0 984.000000 1008.000000"
 preserveAspectRatio="xMidYMid meet">
<metadata>
Created by potrace 1.16, written by Peter Selinger 2001-2019
</metadata>
<g transform="translate(0.000000,1008.000000) scale(0.100000,-0.100000)"
fill="#000000" stroke="none">
<path d="M5950 10073 c-901 -61 -1778 -342 -2603 -832 -737 -439 -1387 -1005
-1925 -1679 -768 -963 -1257 -2094 -1387 -3207 -54 -473 -34 -998 56 -1440
230 -1124 896 -2017 1868 -2504 405 -203 818 -324 1331 -388 193 -24 744 -24
960 0 592 66 1096 211 1563 449 286 146 526 317 736 525 63 62 115 112 116
110 1 -1 26 -48 54 -104 96 -187 230 -369 411 -556 57 -60 118 -116 134 -124
56 -29 141 -2 171 56 8 16 170 652 360 1412 190 761 355 1413 367 1449 61 191
126 251 301 285 101 19 325 35 501 35 218 0 236 14 287 214 16 61 29 131 29
155 0 56 -30 106 -81 131 -37 19 -48 20 -241 10 -758 -38 -1905 -38 -3124 1
-357 11 -361 11 -401 -10 -57 -28 -75 -65 -114 -222 l-33 -136 25 -49 c46 -92
24 -88 487 -96 519 -8 765 -25 947 -65 39 -8 81 -22 93 -30 35 -22 62 -89 62
-155 0 -79 -315 -1341 -370 -1482 -170 -433 -606 -833 -1157 -1062 -268 -112
-560 -186 -883 -226 -156 -19 -562 -16 -735 6 -685 85 -1228 336 -1651 762
-389 391 -619 890 -699 1516 -76 598 -9 1321 201 2171 396 1598 1056 2740
2049 3543 604 488 1323 828 2028 958 247 46 404 60 662 60 235 0 296 -5 480
-40 213 -42 493 -163 675 -292 120 -85 316 -278 407 -402 350 -474 524 -1087
524 -1845 0 -249 -10 -407 -42 -638 -19 -144 -19 -150 -2 -185 10 -20 33 -47
52 -59 32 -21 45 -23 190 -23 175 0 211 10 242 65 9 17 230 884 490 1928 l474
1897 -20 37 c-32 60 -76 83 -156 83 -37 0 -80 -5 -94 -12 -15 -7 -273 -276
-574 -598 l-547 -586 -63 93 c-96 142 -182 246 -315 378 -418 415 -963 661
-1591 714 -109 10 -413 12 -525 4z"/>
</g>
</svg>
