<?xml version="1.0" standalone="no"?>
<!DOCTYPE svg PUBLIC "-//W3C//DTD SVG 20010904//EN"
 "http://www.w3.org/TR/2001/REC-SVG-20010904/DTD/svg10.dtd">
<svg version="1.0" xmlns="http://www.w3.org/2000/svg"
 width="984.000000pt" height="1008.000000pt" viewBox="0 0 984.000000 1008.000000"
 preserveAspectRatio="xMidYMid meet">
<metadata>
Created by potrace 1.16, written by Peter Selinger 2001-2019
</metadata>
<g transform="translate(0.000000,1008.000000) scale(0.100000,-0.100000)"
fill="#000000" stroke="none">
<path d="M5935 10074 c-606 -46 -1117 -165 -1705 -397 -228 -90 -640 -291
-855 -417 -1478 -866 -2630 -2297 -3120 -3875 -288 -929 -329 -1850 -118
-2670 168 -655 482 -1215 933 -1665 174 -175 311 -286 525 -429 479 -319 1058
-525 1680 -596 199 -22 574 -30 785 -16 783 54 1525 285 2063 644 173 116 271
193 402 318 l90 87 37 -62 c59 -100 147 -217 248 -332 102 -115 316 -316 364
-341 56 -29 141 -1 170 56 9 16 172 656 364 1423 217 868 359 1416 376 1453
50 111 106 149 251 174 94 17 325 31 500 31 179 0 212 9 251 67 25 38 104 344
104 404 0 54 -31 104 -81 129 -37 19 -48 20 -231 10 -512 -26 -1290 -34 -2110
-22 -447 7 -963 17 -1146 23 -313 10 -336 10 -374 -7 -21 -10 -49 -31 -60 -47
-23 -32 -107 -351 -108 -406 0 -46 35 -105 79 -129 34 -18 61 -20 476 -25 561
-8 862 -29 982 -71 52 -18 83 -65 83 -128 0 -54 -305 -1287 -344 -1390 -87
-231 -264 -473 -475 -648 -152 -126 -286 -212 -476 -305 -600 -295 -1281 -369
-1999 -218 -702 146 -1272 519 -1621 1058 -480 742 -531 1794 -160 3276 336
1339 846 2328 1580 3065 385 386 792 679 1270 914 599 295 1199 442 1810 444
251 1 359 -10 537 -55 299 -75 596 -255 800 -484 405 -457 611 -1110 611
-1945 0 -270 -8 -391 -45 -677 -20 -160 -20 -162 -1 -195 10 -18 34 -43 53
-55 32 -22 42 -23 239 -23 232 0 259 7 293 71 18 36 968 3824 968 3861 0 33
-35 85 -72 108 -41 25 -183 28 -226 6 -15 -8 -274 -269 -576 -580 l-548 -566
-60 87 c-169 247 -406 479 -668 655 -127 84 -386 213 -530 263 -307 106 -542
145 -905 150 -143 1 -282 1 -310 -1z"/>
</g>
</svg>
