<?xml version="1.0" standalone="no"?>
<!DOCTYPE svg PUBLIC "-//W3C//DTD SVG 20010904//EN"
 "http://www.w3.org/TR/2001/REC-SVG-20010904/DTD/svg10.dtd">
<svg version="1.0" xmlns="http://www.w3.org/2000/svg"
 width="723.000000pt" height="587.000000pt" viewBox="0 0 723.000000 587.000000"
 preserveAspectRatio="xMidYMid meet">
<metadata>
Created by potrace 1.16, written by Peter Selinger 2001-2019
</metadata>
<g transform="translate(0.000000,587.000000) scale(0.100000,-0.100000)"
fill="#000000" stroke="none">
<path d="M1905 5859 c-344 -50 -672 -230 -999 -549 -163 -159 -253 -262 -404
-461 -169 -224 -463 -682 -493 -768 -14 -40 2 -88 42 -127 30 -28 33 -29 139
-29 130 0 123 -5 227 155 243 372 563 662 916 830 137 65 214 92 349 122 87
20 129 22 616 25 287 3 522 1 522 -3 0 -16 -144 -497 -215 -720 -339 -1057
-806 -2212 -1423 -3514 -144 -303 -162 -354 -162 -446 0 -214 173 -374 405
-374 222 0 422 145 519 378 142 337 516 1713 1089 3994 l172 688 733 0 732 0
-6 -27 c-3 -16 -21 -89 -40 -163 -294 -1194 -450 -2072 -495 -2805 -15 -242
-6 -772 15 -945 35 -273 84 -496 156 -705 85 -246 141 -328 258 -383 74 -35
210 -43 299 -17 270 78 471 345 434 575 -9 56 -15 73 -94 265 -341 834 -456
1888 -331 3050 33 310 73 573 140 918 l46 237 872 0 c943 0 917 -1 1032 55 70
34 161 125 201 200 114 217 62 436 -126 524 l-56 26 -2505 1 c-1378 1 -2532
-2 -2565 -7z"/>
</g>
</svg>
