<?xml version="1.0" standalone="no"?>
<!DOCTYPE svg PUBLIC "-//W3C//DTD SVG 20010904//EN"
 "http://www.w3.org/TR/2001/REC-SVG-20010904/DTD/svg10.dtd">
<svg version="1.0" xmlns="http://www.w3.org/2000/svg"
 width="554.000000pt" height="927.000000pt" viewBox="0 0 554.000000 927.000000"
 preserveAspectRatio="xMidYMid meet">
<metadata>
Created by potrace 1.16, written by Peter Selinger 2001-2019
</metadata>
<g transform="translate(0.000000,927.000000) scale(0.100000,-0.100000)"
fill="#000000" stroke="none">
<path d="M729 9247 c-19 -12 -42 -38 -52 -57 -16 -33 -17 -159 -15 -2322 l3
-2287 21 -27 c44 -60 67 -69 181 -72 58 -2 120 -1 139 2 47 9 85 45 132 123
179 301 479 581 787 736 385 192 960 271 1275 175 379 -116 693 -430 874 -874
159 -390 215 -864 203 -1709 -9 -598 -49 -910 -159 -1240 -269 -810 -989
-1287 -1819 -1205 -506 50 -946 260 -1289 616 -165 170 -264 310 -360 509 -86
177 -92 160 58 160 144 0 223 19 347 83 95 49 218 172 267 267 95 183 111 403
44 597 -89 254 -318 426 -606 453 -143 13 -332 -35 -454 -116 -206 -136 -306
-338 -306 -616 1 -633 284 -1287 751 -1738 388 -375 869 -607 1424 -687 118
-17 528 -17 665 0 236 29 495 93 730 178 144 53 460 213 595 302 179 118 294
211 454 367 161 157 273 288 383 450 486 710 641 1557 447 2425 -58 256 -179
583 -296 800 -382 706 -984 1188 -1706 1365 -330 82 -728 85 -1087 10 -412
-85 -782 -272 -1096 -551 l-84 -75 0 1261 c0 693 2 1260 4 1260 2 0 68 -15
147 -34 522 -125 1049 -149 1529 -70 655 107 1299 422 1783 871 123 114 313
320 332 360 23 47 21 218 -3 262 -21 39 -73 71 -114 71 -16 0 -88 -25 -161
-56 -604 -255 -1325 -389 -1992 -370 -602 17 -1149 130 -1703 352 -102 41
-197 74 -212 74 -15 0 -42 -10 -61 -23z"/>
</g>
</svg>
