<?xml version="1.0" standalone="no"?>
<!DOCTYPE svg PUBLIC "-//W3C//DTD SVG 20010904//EN"
 "http://www.w3.org/TR/2001/REC-SVG-20010904/DTD/svg10.dtd">
<svg version="1.0" xmlns="http://www.w3.org/2000/svg"
 width="659.000000pt" height="895.000000pt" viewBox="0 0 659.000000 895.000000"
 preserveAspectRatio="xMidYMid meet">
<metadata>
Created by potrace 1.16, written by Peter Selinger 2001-2019
</metadata>
<g transform="translate(0.000000,895.000000) scale(0.100000,-0.100000)"
fill="#000000" stroke="none">
<path d="M1729 8936 c-310 -55 -573 -197 -837 -451 -377 -363 -668 -882 -848
-1510 -52 -180 -51 -205 6 -260 l31 -30 184 -3 c154 -3 189 -1 215 13 38 20
65 63 81 129 49 213 173 545 285 766 255 504 565 790 913 841 92 13 187 7 230
-15 45 -24 89 -82 108 -144 28 -90 24 -311 -10 -472 -41 -196 -66 -272 -267
-810 -469 -1256 -621 -1770 -681 -2295 -19 -162 -16 -495 4 -637 88 -596 403
-1011 926 -1218 123 -49 325 -102 471 -125 153 -23 432 -31 571 -15 338 37
676 175 968 394 41 31 76 54 78 52 7 -7 -109 -451 -154 -585 -324 -982 -968
-1761 -1632 -1975 -176 -57 -264 -70 -461 -70 -324 0 -584 75 -783 225 l-69
52 81 24 c256 73 468 260 571 500 74 176 94 377 51 514 -43 135 -145 252 -275
313 -210 100 -449 86 -697 -40 -228 -117 -388 -327 -456 -599 -25 -99 -28
-128 -28 -290 0 -167 2 -187 28 -280 133 -480 553 -801 1192 -912 155 -27 544
-24 730 5 1089 170 2125 961 2671 2039 84 166 160 347 214 513 40 124 1426
5668 1435 5740 8 69 -14 178 -50 250 -76 150 -252 239 -450 227 -268 -15 -498
-182 -600 -434 -13 -32 -256 -987 -540 -2122 l-516 -2064 -61 -91 c-305 -457
-670 -751 -1049 -845 -538 -133 -921 64 -1044 535 -93 356 -65 797 89 1419
101 406 246 840 581 1735 202 539 224 626 225 856 1 563 -353 998 -920 1130
-132 31 -391 41 -511 20z"/>
</g>
</svg>
