<?xml version="1.0" standalone="no"?>
<!DOCTYPE svg PUBLIC "-//W3C//DTD SVG 20010904//EN"
 "http://www.w3.org/TR/2001/REC-SVG-20010904/DTD/svg10.dtd">
<svg version="1.0" xmlns="http://www.w3.org/2000/svg"
 width="431.000000pt" height="881.000000pt" viewBox="0 0 431.000000 881.000000"
 preserveAspectRatio="xMidYMid meet">
<metadata>
Created by potrace 1.16, written by Peter Selinger 2001-2019
</metadata>
<g transform="translate(0.000000,881.000000) scale(0.100000,-0.100000)"
fill="#000000" stroke="none">
<path d="M2775 8804 c-163 -34 -274 -92 -381 -199 -144 -143 -128 -95 -449
-1382 l-277 -1113 -730 0 c-593 0 -735 -3 -761 -14 -64 -26 -81 -59 -133 -269
l-48 -194 25 -48 c13 -27 37 -58 52 -69 28 -21 41 -21 733 -24 387 -1 704 -5
704 -7 0 -3 -220 -886 -489 -1963 -269 -1076 -495 -1997 -502 -2047 -16 -127
-6 -377 20 -481 129 -516 483 -847 1034 -966 87 -19 133 -22 307 -22 230 0
321 14 520 80 625 206 1230 814 1629 1639 38 77 92 198 120 269 60 148 61 174
6 234 l-33 37 -186 3 c-246 4 -244 6 -312 -164 -317 -785 -828 -1372 -1339
-1537 -126 -40 -191 -51 -320 -51 -136 -1 -167 8 -235 70 -52 48 -92 126 -116
229 -25 107 -25 353 0 520 11 73 213 900 512 2100 272 1089 499 1997 505 2018
l10 37 730 0 c703 0 731 1 768 19 21 11 46 32 56 48 21 32 104 351 105 402 0
47 -35 105 -80 130 -37 21 -43 21 -729 21 -449 0 -691 3 -691 10 0 5 122 496
270 1090 231 926 270 1091 270 1154 0 217 -131 381 -342 431 -58 14 -176 18
-223 9z"/>
</g>
</svg>
