<?xml version="1.0" standalone="no"?>
<!DOCTYPE svg PUBLIC "-//W3C//DTD SVG 20010904//EN"
 "http://www.w3.org/TR/2001/REC-SVG-20010904/DTD/svg10.dtd">
<svg version="1.0" xmlns="http://www.w3.org/2000/svg"
 width="764.000000pt" height="911.000000pt" viewBox="0 0 764.000000 911.000000"
 preserveAspectRatio="xMidYMid meet">
<metadata>
Created by potrace 1.16, written by Peter Selinger 2001-2019
</metadata>
<g transform="translate(0.000000,911.000000) scale(0.100000,-0.100000)"
fill="#000000" stroke="none">
<path d="M2545 9103 c-47 -10 -165 -54 -211 -80 -27 -15 -83 -61 -125 -102
-137 -137 -27 267 -1176 -4327 -979 -3913 -1026 -4103 -1026 -4189 0 -70 5
-103 22 -148 47 -120 148 -206 286 -241 180 -47 400 20 551 169 132 130 108
51 506 1641 l350 1401 81 -54 c218 -143 504 -245 824 -293 179 -27 491 -37
633 -21 230 26 474 98 673 197 281 141 453 268 718 534 l196 196 23 -71 c136
-428 489 -737 958 -835 141 -30 362 -37 475 -16 301 57 537 228 742 536 200
301 353 695 525 1352 69 260 69 276 10 333 -31 30 -32 30 -165 33 -145 4 -179
-5 -211 -53 -9 -14 -44 -134 -79 -267 -151 -583 -254 -877 -393 -1121 -170
-299 -365 -433 -602 -413 -128 11 -216 70 -274 184 -79 156 -93 445 -36 775
10 62 252 1042 536 2177 490 1958 517 2070 517 2155 0 70 -5 103 -22 148 -47
120 -148 206 -286 241 -180 47 -400 -20 -551 -169 -135 -133 -89 24 -662
-2267 l-507 -2025 -97 -144 c-346 -514 -733 -849 -1147 -993 -169 -59 -300
-80 -491 -80 -269 0 -450 54 -625 187 -338 258 -445 791 -309 1547 14 80 222
928 461 1885 l434 1740 -3 95 c-3 82 -7 104 -35 162 -52 110 -140 179 -270
213 -53 14 -171 18 -218 8z"/>
</g>
</svg>
