<?xml version="1.0" standalone="no"?>
<!DOCTYPE svg PUBLIC "-//W3C//DTD SVG 20010904//EN"
 "http://www.w3.org/TR/2001/REC-SVG-20010904/DTD/svg10.dtd">
<svg version="1.0" xmlns="http://www.w3.org/2000/svg"
 width="1104.000000pt" height="611.000000pt" viewBox="0 0 1104.000000 611.000000"
 preserveAspectRatio="xMidYMid meet">
<metadata>
Created by potrace 1.16, written by Peter Selinger 2001-2019
</metadata>
<g transform="translate(0.000000,611.000000) scale(0.100000,-0.100000)"
fill="#000000" stroke="none">
<path d="M2040 6103 c-217 -23 -489 -127 -706 -268 -429 -280 -839 -754 -1263
-1459 -58 -96 -71 -126 -71 -160 0 -53 17 -85 59 -113 31 -21 45 -23 160 -23
105 0 131 3 156 19 18 10 67 73 117 147 355 532 877 891 1383 953 50 6 237 11
418 11 l327 0 -68 -87 c-763 -985 -1171 -1972 -1278 -3098 -20 -213 -15 -665
10 -820 63 -391 183 -667 381 -874 155 -162 326 -255 567 -308 113 -25 444
-25 603 0 271 42 509 118 770 246 357 176 659 401 970 722 274 284 562 668
772 1031 l58 99 6 -263 c9 -381 46 -627 134 -893 82 -252 201 -450 363 -606
182 -177 365 -271 642 -330 91 -20 135 -23 325 -23 242 0 329 11 535 65 420
112 825 356 1191 719 460 457 841 1059 1141 1805 147 366 303 906 349 1210 27
178 37 603 20 793 -17 174 -80 525 -108 598 -4 12 40 14 272 14 220 0 290 3
339 16 233 60 408 280 409 514 0 180 -98 311 -268 356 -41 11 -794 14 -4365
12 -2373 -1 -4331 -3 -4350 -5z m7515 -950 c25 -84 71 -309 92 -448 28 -188
25 -668 -5 -865 -44 -281 -124 -568 -238 -856 -415 -1050 -1169 -1836 -1945
-2028 -167 -41 -244 -50 -424 -50 -134 0 -190 4 -265 21 -291 63 -496 227
-637 508 -177 352 -230 904 -152 1590 32 290 106 695 174 966 29 114 23 151
-31 198 l-35 31 -139 0 -140 0 -36 -32 c-31 -30 -39 -48 -75 -178 -354 -1294
-1163 -2412 -2075 -2868 -208 -104 -377 -163 -578 -202 -282 -54 -509 -52
-686 6 -591 197 -757 1126 -398 2224 207 632 554 1246 1082 1912 l101 128
3197 0 3197 0 16 -57z"/>
</g>
</svg>
