<?xml version="1.0" standalone="no"?>
<!DOCTYPE svg PUBLIC "-//W3C//DTD SVG 20010904//EN"
 "http://www.w3.org/TR/2001/REC-SVG-20010904/DTD/svg10.dtd">
<svg version="1.0" xmlns="http://www.w3.org/2000/svg"
 width="590.000000pt" height="991.000000pt" viewBox="0 0 590.000000 991.000000"
 preserveAspectRatio="xMidYMid meet">
<metadata>
Created by potrace 1.16, written by Peter Selinger 2001-2019
</metadata>
<g transform="translate(0.000000,991.000000) scale(0.100000,-0.100000)"
fill="#000000" stroke="none">
<path d="M3922 9895 c-779 -119 -1595 -781 -2339 -1896 -231 -346 -361 -573
-557 -969 -312 -629 -550 -1287 -735 -2025 -189 -756 -274 -1339 -288 -1975
-11 -509 33 -947 136 -1374 255 -1052 783 -1620 1536 -1653 420 -18 838 125
1287 440 182 128 317 244 533 461 522 523 1004 1218 1386 2001 307 630 528
1243 719 2000 140 551 216 980 267 1500 25 262 25 952 0 1185 -113 1021 -444
1753 -947 2089 -151 101 -301 164 -490 206 -105 23 -386 29 -508 10z m300
-510 c86 -18 139 -42 205 -92 250 -189 384 -676 384 -1393 -1 -621 -120 -1359
-412 -2537 l-23 -93 -1348 0 c-1072 0 -1348 3 -1348 13 0 6 25 108 55 226 366
1415 690 2241 1162 2960 410 626 794 926 1188 930 39 0 100 -6 137 -14z m-58
-4957 c-341 -1325 -633 -2103 -1050 -2798 -454 -755 -884 -1120 -1319 -1120
-389 1 -607 320 -690 1010 -23 185 -30 585 -16 795 35 503 125 1044 301 1801
51 219 117 488 125 512 3 9 283 12 1354 12 l1349 0 -54 -212z"/>
</g>
</svg>
