<?xml version="1.0" standalone="no"?>
<!DOCTYPE svg PUBLIC "-//W3C//DTD SVG 20010904//EN"
 "http://www.w3.org/TR/2001/REC-SVG-20010904/DTD/svg10.dtd">
<svg version="1.0" xmlns="http://www.w3.org/2000/svg"
 width="1337.000000pt" height="908.000000pt" viewBox="0 0 1337.000000 908.000000"
 preserveAspectRatio="xMidYMid meet">
<metadata>
Created by potrace 1.16, written by Peter Selinger 2001-2019
</metadata>
<g transform="translate(0.000000,908.000000) scale(0.100000,-0.100000)"
fill="#000000" stroke="none">
<path d="M2281 9062 c-51 -25 -69 -57 -98 -168 -28 -110 -26 -157 6 -202 40
-56 56 -59 416 -66 417 -7 647 -31 750 -78 36 -16 50 -62 49 -158 -2 -77 -87
-426 -888 -3627 -712 -2849 -893 -3560 -924 -3632 -110 -254 -303 -440 -572
-549 -208 -85 -478 -132 -763 -132 -162 0 -190 -23 -232 -190 -30 -117 -28
-153 12 -200 50 -60 62 -62 281 -51 108 6 431 16 717 22 534 12 1194 3 1742
-22 229 -11 243 -11 279 7 53 27 72 57 99 165 29 111 30 140 9 185 -33 69 -58
78 -249 86 -93 4 -209 12 -257 18 -204 25 -392 95 -495 185 -107 94 -157 260
-133 442 18 141 1845 7434 1853 7398 4 -16 261 -1895 572 -4175 311 -2280 568
-4160 571 -4178 9 -50 44 -94 94 -120 85 -44 213 -15 297 66 22 21 1197 1859
2742 4285 1487 2336 2705 4246 2707 4245 1 -2 -435 -1754 -970 -3894 -877
-3509 -977 -3899 -1014 -3975 -87 -179 -164 -226 -434 -264 -140 -19 -451 -35
-696 -35 -281 0 -290 -5 -337 -190 -30 -117 -28 -153 12 -200 51 -61 57 -62
331 -50 136 5 529 15 873 21 644 12 1483 3 2121 -22 272 -11 288 -11 324 7 54
27 72 57 101 170 28 110 26 157 -6 202 -40 56 -56 59 -416 66 -417 7 -647 31
-750 78 -36 16 -50 62 -49 158 2 77 91 442 933 3809 583 2329 943 3752 962
3797 60 144 139 225 252 259 150 45 356 64 777 72 352 6 371 9 410 62 27 39
73 227 65 268 -7 40 -54 96 -92 112 -21 8 -337 11 -1188 9 l-1160 -3 -47 -23
c-26 -13 -64 -40 -85 -60 -22 -21 -1083 -1679 -2473 -3864 -1719 -2700 -2437
-3821 -2442 -3809 -4 9 -239 1721 -523 3806 -284 2085 -521 3806 -526 3826
-13 50 -45 88 -93 110 -39 18 -94 19 -1226 19 -1109 0 -1187 -1 -1219 -18z"/>
</g>
</svg>
