<?xml version="1.0" standalone="no"?>
<!DOCTYPE svg PUBLIC "-//W3C//DTD SVG 20010904//EN"
 "http://www.w3.org/TR/2001/REC-SVG-20010904/DTD/svg10.dtd">
<svg version="1.0" xmlns="http://www.w3.org/2000/svg"
 width="763.000000pt" height="1245.000000pt" viewBox="0 0 763.000000 1245.000000"
 preserveAspectRatio="xMidYMid meet">
<metadata>
Created by potrace 1.16, written by Peter Selinger 2001-2019
</metadata>
<g transform="translate(0.000000,1245.000000) scale(0.100000,-0.100000)"
fill="#000000" stroke="none">
<path d="M5425 12444 c-517 -54 -995 -258 -1450 -620 -212 -169 -520 -488
-716 -744 -447 -581 -824 -1347 -1055 -2143 -30 -104 -538 -2124 -1130 -4490
-780 -3120 -1074 -4311 -1069 -4333 3 -18 15 -44 26 -58 40 -50 64 -56 244
-56 183 0 218 8 251 58 10 15 216 821 459 1791 l441 1765 51 -94 c282 -520
764 -851 1392 -957 128 -22 555 -24 716 -5 364 44 689 126 1025 259 1067 421
1926 1277 2257 2248 76 222 140 530 164 788 15 168 6 606 -16 742 -100 621
-365 1134 -769 1485 l-94 82 82 56 c789 537 1310 1369 1377 2197 6 77 8 192 4
255 -53 936 -677 1603 -1641 1756 -95 15 -462 27 -549 18z m405 -529 c361 -69
628 -268 750 -561 53 -127 71 -228 77 -426 8 -257 -19 -474 -103 -818 -148
-612 -353 -1035 -657 -1356 -79 -84 -259 -236 -301 -255 -16 -8 -44 -3 -112
20 -120 41 -314 87 -444 107 -68 10 -205 18 -386 21 -886 17 -1270 -107 -1379
-446 -26 -81 -18 -200 20 -269 117 -216 445 -293 1178 -279 286 5 386 15 582
57 118 25 330 85 398 111 l49 19 78 -76 c421 -409 523 -1077 319 -2074 -149
-726 -355 -1242 -656 -1645 -315 -421 -765 -735 -1273 -888 -366 -111 -757
-135 -1071 -67 -470 102 -833 421 -1014 890 -119 306 -150 713 -85 1093 22
130 888 3605 956 3834 332 1131 921 2088 1599 2598 324 244 658 384 1015 425
108 12 360 4 460 -15z"/>
</g>
</svg>
