<?xml version="1.0" standalone="no"?>
<!DOCTYPE svg PUBLIC "-//W3C//DTD SVG 20010904//EN"
 "http://www.w3.org/TR/2001/REC-SVG-20010904/DTD/svg10.dtd">
<svg version="1.0" xmlns="http://www.w3.org/2000/svg"
 width="674.000000pt" height="911.000000pt" viewBox="0 0 674.000000 911.000000"
 preserveAspectRatio="xMidYMid meet">
<metadata>
Created by potrace 1.16, written by Peter Selinger 2001-2019
</metadata>
<g transform="translate(0.000000,911.000000) scale(0.100000,-0.100000)"
fill="#000000" stroke="none">
<path d="M4434 9094 c-441 -53 -935 -256 -1359 -559 -184 -132 -307 -237 -496
-425 -108 -107 -229 -235 -271 -285 -375 -450 -658 -958 -838 -1505 -53 -158
-1455 -5749 -1465 -5840 -8 -69 14 -179 50 -250 76 -150 252 -239 450 -227
268 15 498 182 600 434 13 32 195 744 405 1583 209 839 383 1531 385 1538 3 7
37 -30 79 -85 93 -123 266 -291 376 -364 167 -112 344 -186 547 -231 132 -30
468 -32 643 -4 1115 175 2193 1051 2771 2251 199 414 331 852 389 1293 19 142
28 416 19 587 -36 718 -341 1349 -829 1716 -404 303 -928 437 -1456 373z m431
-524 c251 -65 444 -233 565 -493 77 -164 110 -332 117 -592 10 -377 -38 -671
-247 -1505 -172 -684 -261 -963 -413 -1296 -140 -303 -329 -584 -535 -791
-266 -268 -570 -446 -872 -510 -116 -24 -342 -24 -460 1 -214 45 -372 130
-531 286 -160 157 -263 331 -333 560 -57 188 -76 69 189 1128 292 1168 359
1396 524 1769 230 522 577 952 976 1213 180 118 423 215 610 245 122 19 305
13 410 -15z"/>
</g>
</svg>
