<?xml version="1.0" standalone="no"?>
<!DOCTYPE svg PUBLIC "-//W3C//DTD SVG 20010904//EN"
 "http://www.w3.org/TR/2001/REC-SVG-20010904/DTD/svg10.dtd">
<svg version="1.0" xmlns="http://www.w3.org/2000/svg"
 width="656.000000pt" height="626.000000pt" viewBox="0 0 656.000000 626.000000"
 preserveAspectRatio="xMidYMid meet">
<metadata>
Created by potrace 1.16, written by Peter Selinger 2001-2019
</metadata>
<g transform="translate(0.000000,626.000000) scale(0.100000,-0.100000)"
fill="#000000" stroke="none">
<path d="M3174 6245 c-521 -66 -1039 -301 -1553 -706 -122 -96 -462 -431 -573
-564 -445 -535 -761 -1152 -927 -1810 -75 -300 -109 -533 -118 -820 -16 -492
72 -918 268 -1305 117 -232 219 -371 399 -543 262 -252 602 -417 985 -478 107
-18 439 -18 535 -1 480 86 937 338 1382 761 l116 111 18 -52 c9 -29 32 -84 51
-123 177 -357 500 -594 937 -687 81 -17 137 -21 286 -22 215 -1 288 14 446 88
123 58 202 114 308 216 314 302 545 794 766 1630 57 219 57 240 0 295 l-31 30
-184 3 c-257 4 -254 6 -311 -210 -97 -368 -130 -486 -176 -628 -188 -575 -390
-861 -646 -911 -72 -13 -173 -7 -225 15 -88 36 -151 125 -189 264 -28 104 -30
364 -4 537 11 70 226 954 517 2120 274 1100 501 2025 504 2055 8 69 -14 179
-50 250 -76 150 -252 239 -450 227 -223 -12 -442 -143 -545 -326 -19 -34 -39
-68 -45 -76 -8 -12 -26 6 -84 86 -217 292 -514 487 -856 561 -120 26 -397 33
-551 13z m416 -520 c194 -46 360 -153 496 -319 145 -176 253 -411 313 -681
l19 -84 -370 -1478 c-417 -1669 -357 -1479 -526 -1692 -300 -379 -602 -641
-931 -806 -276 -138 -576 -187 -796 -130 -294 77 -516 341 -595 711 -31 142
-39 482 -16 684 20 175 55 378 102 600 50 232 233 962 298 1187 208 717 437
1166 776 1517 272 282 580 460 875 506 81 12 275 4 355 -15z"/>
</g>
</svg>
