<?xml version="1.0" standalone="no"?>
<!DOCTYPE svg PUBLIC "-//W3C//DTD SVG 20010904//EN"
 "http://www.w3.org/TR/2001/REC-SVG-20010904/DTD/svg10.dtd">
<svg version="1.0" xmlns="http://www.w3.org/2000/svg"
 width="384.000000pt" height="1302.000000pt" viewBox="0 0 384.000000 1302.000000"
 preserveAspectRatio="xMidYMid meet">
<metadata>
Created by potrace 1.16, written by Peter Selinger 2001-2019
</metadata>
<g transform="translate(0.000000,1302.000000) scale(0.100000,-0.100000)"
fill="#000000" stroke="none">
<path d="M3023 12991 c-108 -38 -137 -57 -162 -101 l-21 -38 0 -1455 0 -1455
-72 -25 c-40 -13 -454 -156 -920 -316 -465 -160 -849 -291 -852 -291 -3 0 -6
628 -6 1395 0 1163 -2 1401 -14 1429 -17 40 -56 72 -108 88 -34 10 -49 8 -140
-23 -111 -37 -153 -65 -174 -116 -12 -27 -14 -280 -14 -1482 l0 -1449 -143
-50 c-78 -27 -179 -62 -225 -77 -45 -15 -97 -39 -114 -53 -58 -49 -58 -47 -58
-573 0 -472 0 -482 21 -519 25 -43 83 -80 127 -80 17 0 110 27 208 60 97 33
179 60 180 60 2 0 4 -1064 4 -2364 l0 -2364 -142 -50 c-79 -27 -180 -62 -226
-77 -45 -15 -97 -39 -114 -53 -58 -49 -58 -47 -58 -573 0 -472 0 -482 21 -519
25 -43 83 -80 127 -80 17 0 110 27 208 60 97 33 179 60 180 60 2 0 4 -412 4
-915 0 -1001 -3 -956 59 -1008 50 -41 91 -44 190 -12 114 36 154 60 180 105
21 38 21 38 21 1013 l0 975 73 25 c39 13 453 156 919 316 465 160 849 291 852
291 3 0 6 -412 6 -915 0 -756 2 -921 14 -949 17 -40 56 -72 108 -88 34 -10 49
-8 140 23 56 18 115 45 131 58 59 50 57 5 57 1060 l0 969 48 17 c26 9 125 43
220 75 200 69 223 80 251 130 21 37 21 49 21 525 0 478 0 488 -21 525 -25 43
-83 80 -127 80 -17 0 -110 -27 -208 -60 -97 -33 -179 -60 -180 -60 -2 0 -4
1064 -4 2364 l0 2364 48 17 c26 9 125 43 220 75 200 69 223 80 251 130 21 37
21 49 21 525 0 478 0 488 -21 525 -25 43 -83 80 -127 80 -17 0 -110 -27 -208
-60 -97 -33 -179 -60 -180 -60 -2 0 -5 634 -6 1409 -3 1406 -3 1410 -24 1437
-57 77 -118 88 -241 45z m-183 -6645 l0 -2364 -72 -25 c-40 -13 -454 -156
-920 -316 -465 -160 -849 -291 -852 -291 -3 0 -6 1064 -6 2364 l0 2364 193 66
c105 37 516 178 912 315 396 137 726 249 733 250 9 1 12 -478 12 -2363z"/>
</g>
</svg>
