<?xml version="1.0" standalone="no"?>
<!DOCTYPE svg PUBLIC "-//W3C//DTD SVG 20010904//EN"
 "http://www.w3.org/TR/2001/REC-SVG-20010904/DTD/svg10.dtd">
<svg version="1.0" xmlns="http://www.w3.org/2000/svg"
 width="230.000000pt" height="326.000000pt" viewBox="0 0 230.000000 326.000000"
 preserveAspectRatio="xMidYMid meet">
<metadata>
Created by potrace 1.16, written by Peter Selinger 2001-2019
</metadata>
<g transform="translate(0.000000,326.000000) scale(0.100000,-0.100000)"
fill="#000000" stroke="none">
<path d="M1805 3253 c-752 -65 -1386 -444 -1654 -988 -111 -225 -146 -375
-146 -635 0 -260 35 -410 146 -635 281 -571 963 -958 1749 -992 184 -8 229 4
306 82 112 112 112 278 1 390 -64 63 -121 85 -226 85 -323 1 -693 107 -948
272 -223 144 -385 354 -445 575 -30 111 -30 335 0 446 60 221 222 431 445 575
255 165 625 271 948 272 105 0 162 22 226 85 111 112 111 278 0 390 -70 70
-119 86 -256 83 -58 -1 -124 -3 -146 -5z"/>
</g>
</svg>
