<?xml version="1.0" standalone="no"?>
<!DOCTYPE svg PUBLIC "-//W3C//DTD SVG 20010904//EN"
 "http://www.w3.org/TR/2001/REC-SVG-20010904/DTD/svg10.dtd">
<svg version="1.0" xmlns="http://www.w3.org/2000/svg"
 width="630.000000pt" height="976.000000pt" viewBox="0 0 630.000000 976.000000"
 preserveAspectRatio="xMidYMid meet">
<metadata>
Created by potrace 1.16, written by Peter Selinger 2001-2019
</metadata>
<g transform="translate(0.000000,976.000000) scale(0.100000,-0.100000)"
fill="#000000" stroke="none">
<path d="M2150 9684 c-1009 -80 -988 -77 -1028 -143 -10 -16 -33 -92 -51 -169
l-34 -139 24 -49 c44 -88 45 -88 332 -96 282 -7 415 -19 530 -50 135 -36 161
-83 138 -260 -7 -52 -456 -1868 -1037 -4192 l-1026 -4101 4 -95 c3 -76 9 -106
30 -152 136 -293 564 -319 834 -50 122 121 101 52 501 1651 l356 1423 51 -6
c28 -4 116 -18 196 -32 687 -123 1153 -441 1260 -859 42 -166 38 -305 -20
-566 -74 -339 -63 -632 35 -926 130 -389 428 -686 810 -806 188 -59 420 -82
585 -58 436 64 804 390 1093 966 148 296 273 642 377 1042 36 139 33 167 -21
219 -30 29 -31 29 -167 32 -209 5 -204 10 -292 -328 -162 -619 -356 -1050
-580 -1284 -131 -137 -239 -201 -391 -232 -167 -34 -312 -3 -398 86 -169 175
-183 615 -37 1237 51 219 59 292 53 476 -4 133 -10 179 -31 257 -32 116 -118
292 -185 381 -74 97 -235 247 -342 318 -296 199 -736 352 -1229 431 -74 12
-145 23 -158 26 -19 4 -5 17 90 85 252 181 401 317 983 902 565 568 758 740
1030 920 286 188 563 288 845 304 176 9 301 -29 396 -123 l49 -48 -70 -8
c-426 -50 -747 -397 -749 -808 0 -160 47 -274 154 -374 113 -104 258 -152 435
-143 296 15 555 189 695 467 89 177 125 493 80 710 -40 193 -113 341 -234 467
-115 122 -245 198 -417 245 -74 20 -106 23 -264 22 -146 0 -200 -5 -285 -23
-417 -88 -809 -317 -1275 -742 -77 -70 -336 -324 -575 -565 -239 -240 -500
-495 -580 -567 -164 -146 -372 -306 -506 -389 -107 -66 -254 -141 -261 -134
-3 3 317 1295 711 2871 394 1576 716 2884 716 2906 0 88 -73 150 -172 148 -29
-1 -469 -34 -978 -75z"/>
</g>
</svg>
