<?xml version="1.0" standalone="no"?>
<!DOCTYPE svg PUBLIC "-//W3C//DTD SVG 20010904//EN"
 "http://www.w3.org/TR/2001/REC-SVG-20010904/DTD/svg10.dtd">
<svg version="1.0" xmlns="http://www.w3.org/2000/svg"
 width="949.000000pt" height="938.000000pt" viewBox="0 0 949.000000 938.000000"
 preserveAspectRatio="xMidYMid meet">
<metadata>
Created by potrace 1.16, written by Peter Selinger 2001-2019
</metadata>
<g transform="translate(0.000000,938.000000) scale(0.100000,-0.100000)"
fill="#000000" stroke="none">
<path d="M115 9362 c-51 -32 -65 -57 -91 -148 -29 -108 -31 -168 -4 -211 40
-66 47 -67 335 -75 289 -7 429 -19 543 -49 109 -28 143 -54 186 -141 l35 -73
536 -4265 c595 -4729 538 -4331 625 -4378 42 -22 53 -23 185 -20 132 3 143 5
192 32 28 15 65 42 82 60 16 17 1135 1797 2486 3956 1351 2159 2469 3939 2485
3955 15 17 50 64 78 106 323 485 754 753 1301 808 57 6 133 11 170 11 122 0
164 40 201 190 25 102 23 154 -9 198 -40 57 -71 63 -243 52 -84 -5 -333 -15
-554 -21 -416 -12 -1122 -2 -1651 22 -269 13 -281 11 -331 -46 -32 -36 -72
-174 -72 -248 0 -88 69 -147 170 -147 249 0 492 -92 583 -218 48 -68 58 -98
64 -182 6 -89 -12 -174 -60 -270 -17 -36 -39 -81 -47 -102 -8 -20 -935 -1506
-2060 -3302 -1836 -2932 -2046 -3264 -2052 -3239 -5 16 -204 1586 -443 3491
-363 2885 -434 3469 -425 3497 17 52 68 122 112 154 87 64 287 128 478 151 52
7 194 15 315 19 286 8 286 8 332 188 28 109 26 156 -6 201 -43 61 -61 64 -348
52 -962 -37 -1911 -35 -2923 6 -132 5 -148 4 -175 -14z"/>
</g>
</svg>
