<?xml version="1.0" standalone="no"?>
<!DOCTYPE svg PUBLIC "-//W3C//DTD SVG 20010904//EN"
 "http://www.w3.org/TR/2001/REC-SVG-20010904/DTD/svg10.dtd">
<svg version="1.0" xmlns="http://www.w3.org/2000/svg"
 width="1026.000000pt" height="992.000000pt" viewBox="0 0 1026.000000 992.000000"
 preserveAspectRatio="xMidYMid meet">
<metadata>
Created by potrace 1.16, written by Peter Selinger 2001-2019
</metadata>
<g transform="translate(0.000000,992.000000) scale(0.100000,-0.100000)"
fill="#000000" stroke="none">
<path d="M7373 9905 c-60 -18 -122 -57 -164 -102 -25 -26 -6814 -9154 -7178
-9649 -33 -45 -31 -101 4 -131 l26 -23 5040 0 c4430 0 5043 2 5069 15 35 18
67 57 75 94 7 32 -2323 9629 -2355 9698 -21 45 -66 84 -119 102 -48 16 -344
13 -398 -4z m352 -5118 l901 -3702 -1834 -3 c-1008 -1 -2656 -1 -3662 0
l-1828 3 2756 3707 c1516 2039 2758 3705 2761 3702 3 -3 411 -1671 906 -3707z"/>
</g>
</svg>
