<?xml version="1.0" standalone="no"?>
<!DOCTYPE svg PUBLIC "-//W3C//DTD SVG 20010904//EN"
 "http://www.w3.org/TR/2001/REC-SVG-20010904/DTD/svg10.dtd">
<svg version="1.0" xmlns="http://www.w3.org/2000/svg"
 width="556.000000pt" height="658.000000pt" viewBox="0 0 556.000000 658.000000"
 preserveAspectRatio="xMidYMid meet">
<metadata>
Created by potrace 1.16, written by Peter Selinger 2001-2019
</metadata>
<g transform="translate(0.000000,658.000000) scale(0.100000,-0.100000)"
fill="#000000" stroke="none">
<path d="M3545 6574 c-22 -2 -96 -9 -165 -15 -381 -34 -846 -149 -1185 -294
-397 -169 -720 -375 -968 -615 -228 -220 -359 -406 -450 -635 -150 -379 -117
-738 99 -1061 61 -93 188 -232 264 -290 l49 -37 -102 -69 c-522 -355 -909
-875 -1036 -1394 -43 -178 -55 -292 -48 -473 6 -171 26 -280 76 -430 205 -610
778 -1056 1549 -1205 70 -14 174 -31 232 -38 136 -17 608 -17 755 0 651 75
1219 295 1640 635 118 95 310 298 392 412 77 109 168 264 189 323 20 55 17
136 -5 180 -37 72 -88 102 -169 102 -79 0 -117 -30 -181 -142 -285 -494 -799
-723 -1746 -778 -334 -19 -714 -10 -990 25 -610 78 -1019 309 -1194 676 -67
138 -84 220 -85 394 0 133 3 163 27 258 125 485 504 945 1025 1246 l73 43 152
-50 c353 -117 699 -155 1204 -134 365 16 535 48 694 133 143 76 228 199 237
343 6 98 -15 160 -78 229 -59 64 -118 98 -230 130 -159 46 -237 52 -660 52
-331 0 -413 -3 -505 -18 -236 -38 -476 -102 -672 -178 -114 -45 -107 -46 -198
19 -152 109 -264 235 -327 370 -122 259 -78 562 114 791 304 361 927 632 1658
720 313 38 705 51 898 30 354 -38 669 -165 972 -391 106 -78 137 -94 215 -109
41 -7 69 -6 121 6 141 32 253 124 320 259 36 73 39 87 39 160 0 153 -47 212
-315 389 -317 210 -689 355 -1060 412 -100 16 -525 29 -625 19z m-235 -2902
c163 -32 -430 -73 -765 -52 -104 6 -206 14 -225 18 -35 8 -16 12 235 46 54 7
709 -3 755 -12z"/>
</g>
</svg>
