<?xml version="1.0" standalone="no"?>
<!DOCTYPE svg PUBLIC "-//W3C//DTD SVG 20010904//EN"
 "http://www.w3.org/TR/2001/REC-SVG-20010904/DTD/svg10.dtd">
<svg version="1.0" xmlns="http://www.w3.org/2000/svg"
 width="618.000000pt" height="704.000000pt" viewBox="0 0 618.000000 704.000000"
 preserveAspectRatio="xMidYMid meet">
<metadata>
Created by potrace 1.16, written by Peter Selinger 2001-2019
</metadata>
<g transform="translate(0.000000,704.000000) scale(0.100000,-0.100000)"
fill="#000000" stroke="none">
<path d="M210 7031 c-83 -26 -141 -74 -181 -151 l-24 -45 0 -3315 0 -3315 24
-45 c13 -25 35 -58 50 -73 64 -70 196 -105 282 -74 24 8 1315 749 2869 1646
2339 1351 2832 1639 2867 1677 96 103 96 265 0 368 -35 38 -528 326 -2867
1677 -1554 897 -2842 1637 -2864 1645 -41 15 -115 17 -156 5z m2739 -2136
c1304 -753 2371 -1372 2371 -1375 0 -5 -4728 -2739 -4751 -2748 -5 -2 -9 1178
-9 2748 0 1570 4 2750 9 2748 5 -1 1076 -619 2380 -1373z"/>
</g>
</svg>
