<?xml version="1.0" standalone="no"?>
<!DOCTYPE svg PUBLIC "-//W3C//DTD SVG 20010904//EN"
 "http://www.w3.org/TR/2001/REC-SVG-20010904/DTD/svg10.dtd">
<svg version="1.0" xmlns="http://www.w3.org/2000/svg"
 width="661.000000pt" height="603.000000pt" viewBox="0 0 661.000000 603.000000"
 preserveAspectRatio="xMidYMid meet">
<metadata>
Created by potrace 1.16, written by Peter Selinger 2001-2019
</metadata>
<g transform="translate(0.000000,603.000000) scale(0.100000,-0.100000)"
fill="#000000" stroke="none">
<path d="M5920 6023 c-56 -9 -158 -46 -215 -78 -269 -151 -437 -466 -369 -696
31 -103 63 -150 177 -259 205 -196 323 -376 403 -615 72 -215 94 -498 59 -741
-60 -409 -317 -1113 -587 -1605 -492 -897 -1104 -1479 -1723 -1639 -219 -57
-448 -63 -696 -21 -869 150 -1159 857 -849 2076 95 375 226 766 535 1595 95
256 182 503 193 550 74 308 50 581 -74 839 -169 354 -512 568 -939 588 -216
10 -385 -26 -592 -127 -242 -118 -461 -314 -661 -592 -230 -320 -445 -800
-563 -1259 -22 -85 -22 -86 -3 -124 31 -63 63 -79 158 -83 143 -6 177 21 216
177 58 234 184 568 296 788 227 447 506 736 809 840 165 56 346 54 429 -4 128
-90 158 -353 81 -712 -36 -170 -70 -271 -260 -781 -488 -1310 -631 -1813 -651
-2296 -17 -402 74 -772 261 -1059 205 -316 550 -549 993 -671 258 -70 479
-101 793 -111 389 -12 648 43 984 207 597 292 1154 884 1605 1711 204 373 391
828 510 1234 43 147 165 640 215 870 172 784 189 1268 55 1600 -111 280 -347
438 -590 398z"/>
</g>
</svg>
