<?xml version="1.0" standalone="no"?>
<!DOCTYPE svg PUBLIC "-//W3C//DTD SVG 20010904//EN"
 "http://www.w3.org/TR/2001/REC-SVG-20010904/DTD/svg10.dtd">
<svg version="1.0" xmlns="http://www.w3.org/2000/svg"
 width="954.000000pt" height="908.000000pt" viewBox="0 0 954.000000 908.000000"
 preserveAspectRatio="xMidYMid meet">
<metadata>
Created by potrace 1.16, written by Peter Selinger 2001-2019
</metadata>
<g transform="translate(0.000000,908.000000) scale(0.100000,-0.100000)"
fill="#000000" stroke="none">
<path d="M2280 9062 c-19 -11 -42 -30 -52 -43 -20 -28 -68 -199 -68 -245 0
-38 34 -91 77 -120 30 -20 47 -21 365 -27 421 -8 650 -32 753 -79 36 -16 50
-62 48 -158 -1 -77 -92 -450 -935 -3821 -843 -3367 -939 -3744 -976 -3820 -72
-149 -137 -202 -293 -238 -168 -39 -463 -61 -830 -61 -207 0 -217 -1 -249 -22
-18 -13 -42 -35 -52 -49 -27 -36 -71 -215 -63 -256 7 -40 54 -96 93 -112 20
-9 709 -11 2717 -8 l2690 3 150 22 c609 88 1115 265 1605 562 413 250 780 580
1050 945 412 555 575 1172 454 1713 -167 745 -831 1293 -1770 1461 -62 11
-146 23 -189 27 l-77 7 135 28 c995 204 1869 744 2340 1446 70 105 195 357
232 468 96 286 118 607 59 885 -79 380 -318 740 -659 995 -351 262 -737 411
-1268 487 l-152 22 -2550 3 c-2475 3 -2551 3 -2585 -15z m4988 -459 c130 -30
213 -59 314 -108 360 -177 597 -505 674 -930 24 -135 25 -420 1 -560 -81 -467
-297 -882 -658 -1260 -366 -383 -901 -685 -1406 -795 -255 -55 -212 -53 -1425
-57 -621 -2 -1128 -1 -1128 2 0 19 845 3384 865 3445 34 102 85 190 125 218
43 29 115 50 210 61 41 5 584 8 1205 7 1114 -2 1131 -2 1223 -23z m-908 -4068
c305 -47 546 -168 756 -381 221 -224 364 -546 404 -914 23 -204 4 -496 -45
-725 -77 -350 -257 -720 -501 -1025 -96 -119 -330 -352 -450 -447 -377 -297
-764 -474 -1237 -565 -110 -21 -133 -22 -1281 -25 -1154 -4 -1291 -1 -1381 29
l-40 13 1 95 c0 91 21 176 483 2028 l483 1932 1357 0 c1137 0 1371 -2 1451
-15z"/>
</g>
</svg>
