<?xml version="1.0" standalone="no"?>
<!DOCTYPE svg PUBLIC "-//W3C//DTD SVG 20010904//EN"
 "http://www.w3.org/TR/2001/REC-SVG-20010904/DTD/svg10.dtd">
<svg version="1.0" xmlns="http://www.w3.org/2000/svg"
 width="562.000000pt" height="627.000000pt" viewBox="0 0 562.000000 627.000000"
 preserveAspectRatio="xMidYMid meet">
<metadata>
Created by potrace 1.16, written by Peter Selinger 2001-2019
</metadata>
<g transform="translate(0.000000,627.000000) scale(0.100000,-0.100000)"
fill="#000000" stroke="none">
<path d="M2400 6264 c-19 -2 -91 -9 -160 -15 -419 -36 -886 -167 -1210 -341
-492 -264 -785 -643 -855 -1108 -32 -207 -13 -371 60 -508 92 -174 255 -283
473 -314 193 -27 431 59 552 200 161 189 196 482 84 712 -50 102 -160 212
-262 263 l-74 37 64 60 c216 209 561 351 937 390 331 33 785 -19 1121 -130
314 -103 539 -238 732 -438 180 -187 282 -390 324 -641 24 -149 15 -387 -20
-527 -76 -305 -278 -607 -590 -883 -223 -196 -398 -326 -812 -602 -638 -425
-2692 -1814 -2716 -1836 -46 -43 -49 -65 -46 -281 3 -220 5 -227 72 -276 l27
-21 2506 -3 2505 -2 38 21 c24 14 47 38 59 63 21 41 401 1760 401 1811 0 41
-38 100 -80 124 -34 19 -53 21 -195 21 -142 0 -161 -2 -195 -21 -42 -24 -74
-74 -84 -134 -14 -77 -77 -321 -107 -415 -33 -98 -96 -239 -127 -277 -16 -21
-29 -23 -227 -33 -210 -11 -2975 -27 -2965 -17 6 6 1306 767 1454 851 142 81
387 204 691 346 800 374 1100 556 1381 835 244 243 356 439 424 740 27 119 37
355 21 495 -64 559 -338 994 -831 1322 -529 352 -1289 543 -2135 536 -110 0
-216 -3 -235 -4z"/>
</g>
</svg>
