<?xml version="1.0" standalone="no"?>
<!DOCTYPE svg PUBLIC "-//W3C//DTD SVG 20010904//EN"
 "http://www.w3.org/TR/2001/REC-SVG-20010904/DTD/svg10.dtd">
<svg version="1.0" xmlns="http://www.w3.org/2000/svg"
 width="576.000000pt" height="927.000000pt" viewBox="0 0 576.000000 927.000000"
 preserveAspectRatio="xMidYMid meet">
<metadata>
Created by potrace 1.16, written by Peter Selinger 2001-2019
</metadata>
<g transform="translate(0.000000,927.000000) scale(0.100000,-0.100000)"
fill="#000000" stroke="none">
<path d="M2700 9263 c-450 -32 -879 -166 -1215 -378 -546 -346 -1055 -944
-1281 -1507 -130 -325 -191 -656 -201 -1098 -22 -984 219 -1650 852 -2350 358
-396 745 -638 1191 -744 60 -14 157 -33 215 -41 151 -22 452 -30 579 -16 363
42 683 176 970 408 166 134 371 371 492 569 49 81 53 85 56 58 5 -40 -16 -633
-29 -801 -67 -916 -253 -1538 -599 -1998 -214 -284 -457 -489 -741 -624 -255
-122 -496 -170 -794 -158 -401 16 -706 98 -929 250 -51 35 -57 42 -40 48 10 4
53 19 95 33 288 101 464 378 446 706 -13 226 -94 390 -258 522 -206 165 -533
198 -784 78 -172 -82 -309 -248 -360 -435 -23 -83 -30 -270 -16 -395 23 -201
71 -362 158 -531 235 -456 710 -742 1383 -836 179 -24 601 -25 760 0 534 83
1027 311 1475 681 110 92 331 311 435 432 621 722 1027 1706 1150 2783 34 298
43 549 37 966 -15 886 -92 1490 -272 2108 -149 515 -402 1027 -672 1362 -104
129 -311 330 -438 426 -358 269 -777 436 -1194 479 -94 9 -361 11 -471 3z
m395 -544 c181 -25 372 -101 520 -206 293 -209 527 -568 603 -923 58 -268 98
-704 122 -1302 27 -694 -75 -1286 -304 -1763 -113 -236 -225 -395 -388 -551
-259 -247 -555 -357 -923 -340 -481 21 -790 189 -1044 569 -164 244 -230 499
-273 1057 -18 231 -18 1577 0 1785 47 538 125 816 303 1075 252 367 574 556
1022 599 123 12 276 12 362 0z"/>
</g>
</svg>
