<?xml version="1.0" standalone="no"?>
<!DOCTYPE svg PUBLIC "-//W3C//DTD SVG 20010904//EN"
 "http://www.w3.org/TR/2001/REC-SVG-20010904/DTD/svg10.dtd">
<svg version="1.0" xmlns="http://www.w3.org/2000/svg"
 width="997.000000pt" height="977.000000pt" viewBox="0 0 997.000000 977.000000"
 preserveAspectRatio="xMidYMid meet">
<metadata>
Created by potrace 1.16, written by Peter Selinger 2001-2019
</metadata>
<g transform="translate(0.000000,977.000000) scale(0.100000,-0.100000)"
fill="#000000" stroke="none">
<path d="M2370 9752 c-19 -9 -44 -32 -56 -50 -31 -46 -87 -281 -78 -328 8 -46
55 -100 97 -113 18 -5 183 -12 367 -15 184 -3 389 -10 455 -16 135 -13 289
-41 332 -62 39 -19 56 -74 50 -163 -4 -45 -344 -1425 -972 -3935 -770 -3081
-973 -3879 -999 -3935 -68 -142 -132 -200 -257 -234 -159 -44 -515 -71 -923
-71 -203 0 -221 -1 -256 -21 -20 -11 -45 -35 -55 -51 -23 -40 -74 -241 -75
-293 0 -55 29 -106 78 -133 40 -22 40 -22 284 -13 133 6 555 16 935 23 716 12
1672 3 2343 -23 283 -12 285 -12 325 10 23 12 49 36 60 53 23 40 74 240 75
293 0 55 -29 105 -76 132 -37 22 -50 23 -259 23 -387 0 -744 27 -872 65 -77
23 -88 41 -91 149 -2 90 0 102 461 1941 l463 1850 895 3 c616 2 930 -1 1009
-8 453 -45 815 -275 1000 -636 43 -84 91 -227 112 -334 16 -86 16 -365 -1
-460 -7 -41 -89 -379 -181 -750 -189 -759 -207 -842 -219 -1023 -25 -386 67
-720 270 -983 66 -86 219 -226 320 -294 281 -187 659 -303 1113 -340 371 -30
585 1 831 120 478 231 884 761 1059 1382 32 114 27 154 -27 206 -42 40 -81 52
-177 52 -155 0 -194 -31 -239 -190 -163 -568 -529 -1016 -931 -1141 -99 -31
-300 -34 -398 -5 -131 39 -225 125 -279 258 -50 123 -64 223 -70 485 -6 283
-4 321 83 1323 60 689 65 771 60 935 -5 203 -23 310 -80 480 -109 324 -309
596 -600 814 -116 87 -196 136 -349 212 l-122 62 130 34 c310 82 627 200 940
352 496 241 874 505 1190 832 359 371 563 747 642 1179 23 130 23 419 0 547
-51 272 -159 517 -331 748 -84 112 -291 316 -418 410 -521 390 -1163 602
-1973 655 -102 6 -960 10 -2370 10 -2084 0 -2212 -1 -2245 -18z m4500 -526
c492 -58 822 -177 1087 -391 148 -119 239 -244 299 -410 104 -290 95 -656 -27
-1155 -123 -499 -299 -876 -551 -1175 -322 -382 -882 -667 -1529 -780 -331
-57 -358 -58 -1377 -62 -908 -4 -944 -4 -938 14 3 10 210 837 460 1839 250
1001 469 1860 486 1907 44 119 89 170 178 197 37 11 103 25 147 29 44 5 429 8
855 6 636 -2 799 -5 910 -19z"/>
</g>
</svg>
