<?xml version="1.0" standalone="no"?>
<!DOCTYPE svg PUBLIC "-//W3C//DTD SVG 20010904//EN"
 "http://www.w3.org/TR/2001/REC-SVG-20010904/DTD/svg10.dtd">
<svg version="1.0" xmlns="http://www.w3.org/2000/svg"
 width="586.000000pt" height="1254.000000pt" viewBox="0 0 586.000000 1254.000000"
 preserveAspectRatio="xMidYMid meet">
<metadata>
Created by potrace 1.16, written by Peter Selinger 2001-2019
</metadata>
<g transform="translate(0.000000,1254.000000) scale(0.100000,-0.100000)"
fill="#000000" stroke="none">
<path d="M3680 12531 c-70 -23 -123 -67 -154 -128 -23 -46 -62 -218 -80 -348
-35 -262 -29 -507 18 -713 l22 -100 -115 -37 c-366 -117 -748 -305 -1056 -519
-308 -216 -589 -494 -787 -781 -322 -466 -477 -1036 -413 -1518 64 -479 342
-911 768 -1192 l57 -38 -57 -34 c-463 -279 -916 -705 -1238 -1163 -314 -448
-543 -981 -621 -1446 -20 -121 -23 -395 -5 -509 57 -366 218 -687 485 -963
140 -145 227 -216 391 -324 218 -144 347 -198 1670 -710 1377 -531 1347 -518
1447 -643 174 -215 125 -561 -111 -795 -149 -148 -257 -178 -547 -149 -377 36
-708 157 -1037 377 -91 61 -104 66 -160 70 -53 3 -70 0 -117 -25 -77 -41 -113
-94 -118 -176 -5 -92 13 -117 146 -208 327 -222 712 -375 1097 -434 161 -25
431 -30 547 -11 601 99 1106 612 1238 1256 19 90 21 129 17 275 -4 147 -8 182
-31 260 -56 189 -138 326 -272 456 -89 85 -165 139 -274 194 -41 20 -655 262
-1365 537 -709 274 -1339 523 -1400 553 -419 206 -692 503 -787 853 -28 105
-31 349 -5 469 166 772 735 1541 1464 1982 l123 74 122 -37 c237 -70 433 -107
688 -127 167 -13 777 -6 935 11 406 43 621 142 712 327 33 66 37 85 37 147 0
198 -156 317 -487 371 -261 43 -937 46 -1202 6 -141 -22 -365 -72 -485 -110
l-65 -20 -38 37 c-52 50 -159 211 -201 303 -47 104 -90 244 -112 364 -15 79
-19 148 -19 325 1 252 15 357 79 591 183 667 692 1318 1282 1640 l60 32 71
-59 c121 -101 221 -153 381 -196 65 -18 114 -22 321 -26 262 -4 567 9 727 33
401 61 612 212 623 447 3 65 -1 85 -22 131 -65 143 -234 224 -545 263 -165 21
-765 30 -962 15 -144 -11 -343 -35 -382 -47 -13 -4 -19 4 -27 33 -55 204 -46
561 19 841 26 109 25 157 -2 212 -33 64 -90 101 -164 106 -32 2 -70 0 -84 -5z
m1364 -1551 c82 -5 172 -13 200 -17 l51 -7 -75 -12 c-128 -21 -465 -36 -680
-32 -169 4 -216 8 -265 25 l-60 20 85 11 c47 7 96 14 110 16 56 8 495 5 634
-4z m-929 -3750 c83 -5 170 -13 195 -17 l45 -7 -75 -12 c-132 -22 -465 -36
-704 -31 -218 5 -371 21 -361 37 3 4 49 13 102 19 54 6 112 13 128 14 67 8
530 6 670 -3z"/>
</g>
</svg>
