<?xml version="1.0" standalone="no"?>
<!DOCTYPE svg PUBLIC "-//W3C//DTD SVG 20010904//EN"
 "http://www.w3.org/TR/2001/REC-SVG-20010904/DTD/svg10.dtd">
<svg version="1.0" xmlns="http://www.w3.org/2000/svg"
 width="230.000000pt" height="326.000000pt" viewBox="0 0 230.000000 326.000000"
 preserveAspectRatio="xMidYMid meet">
<metadata>
Created by potrace 1.16, written by Peter Selinger 2001-2019
</metadata>
<g transform="translate(0.000000,326.000000) scale(0.100000,-0.100000)"
fill="#000000" stroke="none">
<path d="M180 3243 c-66 -24 -144 -107 -164 -173 -33 -112 -11 -206 67 -285
64 -63 121 -85 226 -85 323 -1 693 -107 948 -272 223 -144 385 -354 445 -575
30 -111 30 -335 0 -446 -60 -221 -222 -431 -445 -575 -255 -165 -625 -271
-948 -272 -105 0 -162 -22 -226 -85 -111 -112 -111 -278 1 -390 77 -78 122
-90 306 -82 786 34 1468 421 1749 992 111 225 146 375 146 635 0 260 -35 410
-146 635 -283 575 -979 967 -1759 990 -128 4 -163 2 -200 -12z"/>
</g>
</svg>
