<?xml version="1.0" standalone="no"?>
<!DOCTYPE svg PUBLIC "-//W3C//DTD SVG 20010904//EN"
 "http://www.w3.org/TR/2001/REC-SVG-20010904/DTD/svg10.dtd">
<svg version="1.0" xmlns="http://www.w3.org/2000/svg"
 width="306.000000pt" height="976.000000pt" viewBox="0 0 306.000000 976.000000"
 preserveAspectRatio="xMidYMid meet">
<metadata>
Created by potrace 1.16, written by Peter Selinger 2001-2019
</metadata>
<g transform="translate(0.000000,976.000000) scale(0.100000,-0.100000)"
fill="#000000" stroke="none">
<path d="M1900 9684 c-1016 -81 -983 -76 -1025 -146 -24 -41 -75 -241 -75
-297 0 -55 30 -106 79 -130 31 -16 71 -19 286 -24 275 -7 390 -18 508 -49 135
-36 161 -83 138 -260 -7 -52 -398 -1635 -896 -3630 -487 -1946 -892 -3580
-900 -3630 -20 -122 -19 -360 0 -474 44 -253 165 -491 336 -663 181 -182 413
-301 694 -357 64 -13 139 -18 260 -19 147 0 181 3 255 23 437 119 754 512
1005 1242 59 172 119 379 190 650 63 240 64 259 5 315 -31 30 -32 30 -165 33
-145 4 -179 -5 -211 -52 -8 -14 -47 -145 -85 -293 -79 -305 -121 -449 -184
-631 -213 -623 -474 -909 -801 -879 -175 17 -275 125 -321 347 -24 114 -21
369 6 549 16 106 293 1229 1037 4203 557 2232 1014 4077 1014 4099 0 88 -73
150 -172 148 -29 -1 -469 -35 -978 -75z"/>
</g>
</svg>
