<?xml version="1.0" standalone="no"?>
<!DOCTYPE svg PUBLIC "-//W3C//DTD SVG 20010904//EN"
 "http://www.w3.org/TR/2001/REC-SVG-20010904/DTD/svg10.dtd">
<svg version="1.0" xmlns="http://www.w3.org/2000/svg"
 width="659.000000pt" height="937.000000pt" viewBox="0 0 659.000000 937.000000"
 preserveAspectRatio="xMidYMid meet">
<metadata>
Created by potrace 1.16, written by Peter Selinger 2001-2019
</metadata>
<g transform="translate(0.000000,937.000000) scale(0.100000,-0.100000)"
fill="#000000" stroke="none">
<path d="M2045 9293 c-940 -80 -919 -77 -961 -140 -25 -37 -64 -185 -64 -241
0 -48 32 -98 80 -123 30 -16 58 -19 195 -19 293 0 534 -27 633 -70 73 -32 89
-117 56 -291 -8 -46 -459 -1857 -1001 -4024 -973 -3896 -985 -3941 -981 -4025
2 -72 8 -96 36 -152 101 -205 372 -268 612 -142 92 48 199 159 242 249 23 50
151 549 493 1915 l462 1848 73 129 c99 174 279 445 381 573 315 395 685 669
1074 798 264 87 598 124 783 86 465 -95 622 -620 446 -1494 -109 -543 -352
-1315 -740 -2352 -141 -377 -174 -512 -174 -715 0 -619 433 -1071 1055 -1100
216 -10 385 26 592 127 242 118 461 314 661 592 230 320 445 800 563 1259 22
85 22 86 3 124 -31 63 -63 79 -158 83 -143 6 -177 -21 -216 -177 -58 -234
-184 -568 -296 -788 -227 -447 -506 -736 -809 -840 -165 -56 -346 -54 -429 4
-97 68 -140 238 -118 467 23 249 70 420 237 866 367 981 599 1704 720 2245
182 814 23 1443 -449 1777 -392 277 -1025 354 -1622 199 -456 -119 -882 -395
-1263 -816 -40 -44 -70 -71 -67 -60 3 11 237 949 521 2085 380 1519 515 2074
510 2097 -7 38 -46 88 -86 108 -15 8 -50 14 -76 14 -26 -1 -439 -35 -918 -76z"/>
</g>
</svg>
