<?xml version="1.0" standalone="no"?>
<!DOCTYPE svg PUBLIC "-//W3C//DTD SVG 20010904//EN"
 "http://www.w3.org/TR/2001/REC-SVG-20010904/DTD/svg10.dtd">
<svg version="1.0" xmlns="http://www.w3.org/2000/svg"
 width="650.000000pt" height="895.000000pt" viewBox="0 0 650.000000 895.000000"
 preserveAspectRatio="xMidYMid meet">
<metadata>
Created by potrace 1.16, written by Peter Selinger 2001-2019
</metadata>
<g transform="translate(0.000000,895.000000) scale(0.100000,-0.100000)"
fill="#000000" stroke="none">
<path d="M1709 8939 c-223 -32 -448 -130 -656 -285 -113 -84 -305 -281 -406
-416 -270 -360 -495 -842 -627 -1345 -25 -95 -19 -131 31 -179 30 -29 31 -29
167 -32 197 -4 206 2 260 208 173 648 486 1200 827 1458 87 66 249 146 335
167 154 36 299 29 367 -18 126 -86 156 -342 82 -702 -34 -161 -79 -298 -253
-762 -560 -1496 -716 -2076 -716 -2668 0 -196 12 -319 46 -474 69 -308 188
-535 384 -732 213 -214 491 -354 840 -423 570 -113 1062 -22 1515 282 66 44
155 110 198 146 42 37 77 64 77 60 0 -19 -136 -539 -166 -635 -81 -257 -239
-621 -369 -849 -196 -345 -464 -680 -709 -886 -262 -221 -529 -358 -805 -414
-461 -94 -991 52 -1214 334 l-39 50 79 12 c344 49 609 283 698 617 60 225 14
432 -125 560 -221 205 -604 193 -896 -29 -152 -116 -247 -267 -302 -482 -25
-97 -27 -124 -27 -292 0 -171 2 -192 27 -283 142 -507 613 -847 1273 -918 135
-14 427 -6 575 16 561 86 1096 330 1595 729 124 100 389 358 505 492 339 392
594 838 755 1319 20 61 354 1379 743 2930 661 2642 705 2825 705 2905 0 193
-113 334 -308 384 -180 47 -400 -20 -551 -169 -135 -133 -86 35 -685 -2361
l-530 -2119 -66 -100 c-118 -178 -215 -297 -363 -445 -161 -161 -277 -249
-440 -334 -209 -108 -384 -150 -620 -150 -126 1 -170 5 -231 22 -241 66 -421
238 -504 482 -128 377 -108 872 64 1565 104 419 251 859 585 1755 90 239 170
462 179 495 71 264 63 562 -23 797 -76 208 -222 397 -400 518 -84 57 -248 134
-340 160 -163 45 -388 62 -541 39z"/>
</g>
</svg>
