<?xml version="1.0" standalone="no"?>
<!DOCTYPE svg PUBLIC "-//W3C//DTD SVG 20010904//EN"
 "http://www.w3.org/TR/2001/REC-SVG-20010904/DTD/svg10.dtd">
<svg version="1.0" xmlns="http://www.w3.org/2000/svg"
 width="662.000000pt" height="613.000000pt" viewBox="0 0 662.000000 613.000000"
 preserveAspectRatio="xMidYMid meet">
<metadata>
Created by potrace 1.16, written by Peter Selinger 2001-2019
</metadata>
<g transform="translate(0.000000,613.000000) scale(0.100000,-0.100000)"
fill="#000000" stroke="none">
<path d="M1330 6055 c-503 -41 -931 -77 -950 -80 -20 -4 -49 -21 -70 -43 -33
-33 -40 -51 -68 -164 -38 -150 -39 -178 -11 -228 39 -70 73 -80 260 -80 295 0
562 -28 654 -69 74 -33 80 -47 79 -185 l-1 -121 -611 -2443 c-337 -1343 -612
-2456 -612 -2473 0 -45 36 -103 79 -127 55 -31 224 -47 353 -33 256 28 859
198 1303 368 1576 604 3007 1741 3916 3113 425 641 709 1254 912 1969 37 132
41 157 42 261 0 109 -2 119 -32 182 -111 234 -420 297 -699 141 -70 -39 -174
-141 -217 -214 -39 -67 -55 -112 -133 -394 -279 -1006 -826 -2016 -1553 -2865
-695 -812 -1576 -1467 -2462 -1834 -145 -59 -379 -146 -379 -140 0 2 302 1211
671 2687 497 1988 669 2691 665 2717 -12 76 -71 123 -159 126 -34 2 -474 -30
-977 -71z"/>
</g>
</svg>
