<?xml version="1.0" standalone="no"?>
<!DOCTYPE svg PUBLIC "-//W3C//DTD SVG 20010904//EN"
 "http://www.w3.org/TR/2001/REC-SVG-20010904/DTD/svg10.dtd">
<svg version="1.0" xmlns="http://www.w3.org/2000/svg"
 width="532.000000pt" height="890.000000pt" viewBox="0 0 532.000000 890.000000"
 preserveAspectRatio="xMidYMid meet">
<metadata>
Created by potrace 1.16, written by Peter Selinger 2001-2019
</metadata>
<g transform="translate(0.000000,890.000000) scale(0.100000,-0.100000)"
fill="#000000" stroke="none">
<path d="M731 8882 c-19 -10 -43 -34 -53 -53 -17 -33 -18 -116 -16 -2201 l3
-2167 21 -28 c43 -58 79 -73 174 -73 112 0 133 14 219 140 121 181 237 313
376 429 345 288 751 436 1250 458 364 15 619 -87 885 -356 301 -304 468 -704
534 -1281 40 -346 46 -1106 12 -1443 -63 -620 -230 -1047 -538 -1372 -367
-388 -854 -569 -1389 -515 -250 26 -476 89 -697 195 -215 104 -360 205 -531
370 -220 212 -391 469 -490 739 -20 54 -20 58 -4 51 41 -17 230 -18 306 -1 88
20 213 79 279 133 140 113 218 291 218 498 0 262 -115 459 -334 571 -324 166
-738 42 -886 -267 -60 -126 -73 -202 -66 -394 12 -350 88 -648 246 -970 238
-487 608 -857 1095 -1096 327 -160 622 -234 985 -246 1261 -43 2428 768 2829
1966 93 279 139 533 148 826 21 677 -177 1351 -550 1874 -265 370 -567 631
-952 821 -353 175 -693 249 -1085 237 -390 -13 -703 -88 -1015 -242 -207 -102
-351 -200 -542 -371 l-53 -47 0 1253 c0 1179 1 1252 17 1246 46 -18 300 -79
417 -100 410 -76 863 -85 1216 -25 784 133 1461 519 1961 1119 64 76 69 89 69
170 0 83 -16 122 -63 150 -47 29 -83 25 -188 -21 -425 -186 -871 -302 -1359
-356 -224 -24 -689 -24 -910 0 -499 56 -964 180 -1393 371 -68 31 -100 32
-146 8z"/>
</g>
</svg>
