<?xml version="1.0" standalone="no"?>
<!DOCTYPE svg PUBLIC "-//W3C//DTD SVG 20010904//EN"
 "http://www.w3.org/TR/2001/REC-SVG-20010904/DTD/svg10.dtd">
<svg version="1.0" xmlns="http://www.w3.org/2000/svg"
 width="957.000000pt" height="1008.000000pt" viewBox="0 0 957.000000 1008.000000"
 preserveAspectRatio="xMidYMid meet">
<metadata>
Created by potrace 1.16, written by Peter Selinger 2001-2019
</metadata>
<g transform="translate(0.000000,1008.000000) scale(0.100000,-0.100000)"
fill="#000000" stroke="none">
<path d="M5740 10070 c-488 -40 -977 -154 -1444 -336 -1957 -762 -3569 -2599
-4110 -4684 -399 -1537 -126 -2995 741 -3955 495 -549 1193 -919 1963 -1044
237 -38 348 -46 650 -45 314 0 458 12 739 60 1599 270 3181 1363 4196 2899
1014 1535 1342 3344 865 4775 -436 1307 -1471 2151 -2840 2315 -158 19 -605
28 -760 15z m545 -465 c531 -83 993 -338 1317 -725 317 -379 509 -845 589
-1434 27 -195 37 -663 20 -898 -63 -852 -338 -1931 -724 -2838 -575 -1352
-1493 -2404 -2543 -2915 -1056 -514 -2087 -412 -2773 274 -398 398 -634 934
-732 1666 -21 152 -23 210 -24 560 0 395 4 466 46 800 85 674 289 1499 531
2140 487 1289 1270 2290 2256 2881 467 281 922 442 1412 500 145 17 486 11
625 -11z"/>
</g>
</svg>
