<?xml version="1.0" standalone="no"?>
<!DOCTYPE svg PUBLIC "-//W3C//DTD SVG 20010904//EN"
 "http://www.w3.org/TR/2001/REC-SVG-20010904/DTD/svg10.dtd">
<svg version="1.0" xmlns="http://www.w3.org/2000/svg"
 width="438.000000pt" height="602.000000pt" viewBox="0 0 438.000000 602.000000"
 preserveAspectRatio="xMidYMid meet">
<metadata>
Created by potrace 1.16, written by Peter Selinger 2001-2019
</metadata>
<g transform="translate(0.000000,602.000000) scale(0.100000,-0.100000)"
fill="#000000" stroke="none">
<path d="M2425 5970 c-336 -220 -659 -347 -1110 -434 -257 -49 -690 -86 -1022
-86 -181 0 -208 -6 -258 -59 -30 -32 -30 -34 -33 -154 -3 -139 8 -175 67 -214
32 -22 43 -23 221 -23 469 0 933 50 1308 140 68 17 125 30 128 30 2 0 4 -975
4 -2167 0 -2371 3 -2248 -58 -2357 -38 -67 -89 -101 -187 -125 -177 -44 -579
-71 -1051 -71 -244 0 -252 -1 -284 -23 -68 -46 -75 -65 -75 -202 0 -137 7
-156 76 -204 33 -23 38 -23 189 -17 997 40 2763 40 3760 0 151 -6 156 -6 189
17 69 48 76 67 76 204 0 137 -7 156 -75 203 -32 21 -40 22 -284 22 -472 0
-874 27 -1051 71 -98 24 -149 58 -187 125 -61 109 -58 -49 -58 2722 0 2317 -1
2537 -16 2568 -24 50 -68 77 -133 82 -53 4 -60 1 -136 -48z"/>
</g>
</svg>
