<?xml version="1.0" standalone="no"?>
<!DOCTYPE svg PUBLIC "-//W3C//DTD SVG 20010904//EN"
 "http://www.w3.org/TR/2001/REC-SVG-20010904/DTD/svg10.dtd">
<svg version="1.0" xmlns="http://www.w3.org/2000/svg"
 width="926.000000pt" height="627.000000pt" viewBox="0 0 926.000000 627.000000"
 preserveAspectRatio="xMidYMid meet">
<metadata>
Created by potrace 1.16, written by Peter Selinger 2001-2019
</metadata>
<g transform="translate(0.000000,627.000000) scale(0.100000,-0.100000)"
fill="#000000" stroke="none">
<path d="M8424 6255 c-84 -18 -186 -62 -269 -116 -287 -186 -456 -527 -390
-784 32 -123 57 -159 240 -340 220 -218 311 -353 385 -575 62 -184 86 -449 61
-656 -25 -202 -262 -1088 -400 -1495 -308 -914 -656 -1438 -1100 -1659 -293
-147 -670 -159 -948 -30 -292 135 -443 365 -498 759 -23 160 -16 483 14 676
35 227 62 338 464 1955 217 872 398 1610 402 1640 8 69 -14 178 -50 250 -76
150 -252 239 -450 227 -268 -15 -498 -182 -600 -434 -28 -69 -782 -3080 -825
-3292 -49 -242 -63 -383 -64 -642 l-1 -236 -64 -126 c-240 -473 -512 -749
-826 -839 -68 -19 -103 -22 -235 -22 -330 1 -580 97 -765 295 -300 319 -349
907 -144 1721 98 392 247 836 574 1708 203 542 224 624 225 856 1 570 -361
1007 -941 1135 -137 31 -409 34 -536 6 -196 -42 -405 -135 -573 -254 -106 -76
-300 -259 -395 -373 -290 -349 -523 -809 -671 -1325 -52 -180 -51 -205 6 -260
l31 -30 184 -3 c154 -3 189 -1 215 13 38 20 65 63 81 129 24 103 102 345 156
481 219 556 535 951 858 1076 150 58 337 74 413 35 46 -24 90 -81 109 -144 27
-86 24 -302 -6 -452 -42 -215 -59 -267 -269 -825 -533 -1418 -682 -1967 -682
-2518 0 -260 32 -467 107 -680 211 -609 739 -977 1550 -1083 189 -25 587 -25
708 -1 410 84 740 305 1027 689 l80 107 60 -92 c80 -122 260 -302 388 -386
246 -162 548 -268 910 -318 90 -12 195 -17 370 -17 217 0 257 2 347 22 350 76
623 226 897 492 353 342 642 819 912 1506 131 334 287 826 407 1290 275 1057
358 1534 344 1979 -8 265 -43 418 -133 595 -147 286 -411 426 -690 365z"/>
</g>
</svg>
