<?xml version="1.0" standalone="no"?>
<!DOCTYPE svg PUBLIC "-//W3C//DTD SVG 20010904//EN"
 "http://www.w3.org/TR/2001/REC-SVG-20010904/DTD/svg10.dtd">
<svg version="1.0" xmlns="http://www.w3.org/2000/svg"
 width="638.000000pt" height="937.000000pt" viewBox="0 0 638.000000 937.000000"
 preserveAspectRatio="xMidYMid meet">
<metadata>
Created by potrace 1.16, written by Peter Selinger 2001-2019
</metadata>
<g transform="translate(0.000000,937.000000) scale(0.100000,-0.100000)"
fill="#000000" stroke="none">
<path d="M5285 9293 c-940 -80 -919 -77 -961 -140 -25 -37 -64 -185 -64 -241
0 -48 32 -98 80 -123 30 -16 58 -19 195 -19 293 0 534 -27 633 -70 73 -32 89
-117 56 -291 -13 -72 -775 -3138 -790 -3178 -3 -9 -28 27 -62 85 -263 456
-668 704 -1147 704 -776 0 -1661 -508 -2286 -1310 -510 -654 -817 -1391 -921
-2215 -19 -154 -16 -602 6 -750 85 -588 321 -1056 685 -1359 319 -265 720
-400 1136 -383 239 10 456 70 703 192 282 140 503 304 778 579 l181 182 26
-96 c37 -134 131 -315 220 -424 233 -289 623 -453 1026 -433 489 24 841 389
1106 1147 53 153 151 492 215 746 l43 171 -19 38 c-31 63 -63 79 -158 83 -97
5 -146 -12 -174 -58 -11 -16 -38 -108 -62 -203 -148 -595 -283 -971 -435
-1217 -79 -128 -223 -273 -317 -318 -133 -65 -316 -67 -416 -5 -92 57 -150
162 -178 327 -22 125 -14 403 16 576 12 69 460 1880 996 4025 720 2879 974
3908 969 3932 -7 38 -46 88 -86 108 -15 8 -50 14 -76 14 -26 -1 -439 -35 -918
-76z m-1938 -3624 c186 -25 352 -110 498 -254 186 -185 317 -444 395 -785 l21
-95 -374 -1495 -373 -1495 -61 -85 c-445 -624 -991 -1032 -1476 -1104 -233
-35 -397 -6 -557 100 -262 172 -417 530 -437 1009 -14 361 48 751 247 1545
154 611 236 874 372 1195 302 710 798 1252 1298 1419 159 53 291 67 447 45z"/>
</g>
</svg>
