<?xml version="1.0" standalone="no"?>
<!DOCTYPE svg PUBLIC "-//W3C//DTD SVG 20010904//EN"
 "http://www.w3.org/TR/2001/REC-SVG-20010904/DTD/svg10.dtd">
<svg version="1.0" xmlns="http://www.w3.org/2000/svg"
 width="1015.000000pt" height="942.000000pt" viewBox="0 0 1015.000000 942.000000"
 preserveAspectRatio="xMidYMid meet">
<metadata>
Created by potrace 1.16, written by Peter Selinger 2001-2019
</metadata>
<g transform="translate(0.000000,942.000000) scale(0.100000,-0.100000)"
fill="#000000" stroke="none">
<path d="M2360 9403 c-19 -10 -44 -32 -56 -50 -24 -36 -104 -343 -104 -400 0
-52 30 -104 74 -129 35 -20 56 -21 404 -27 512 -9 753 -33 809 -81 59 -51 120
209 -922 -3956 -526 -2104 -967 -3849 -980 -3877 -48 -107 -116 -168 -216
-197 -134 -39 -526 -66 -944 -66 -256 0 -280 -5 -321 -67 -24 -36 -104 -343
-104 -400 0 -53 30 -104 76 -130 l39 -23 3903 0 c4214 0 3939 -4 3989 51 33
37 1483 3512 1483 3556 0 49 -35 106 -80 132 -34 19 -53 21 -189 21 -162 0
-198 -8 -238 -51 -12 -13 -64 -125 -116 -249 -394 -936 -667 -1445 -995 -1855
-79 -99 -273 -296 -362 -368 -362 -293 -842 -485 -1405 -561 -352 -48 -597
-56 -1830 -56 -1047 0 -1220 4 -1318 31 l-40 10 6 59 c5 42 854 3468 948 3823
l10 39 792 -5 c857 -4 943 -9 1154 -62 431 -110 502 -387 306 -1198 -50 -207
-50 -235 -6 -288 44 -51 75 -59 244 -59 177 0 212 12 249 84 26 53 900 3553
900 3607 0 54 -31 104 -81 129 -33 17 -59 20 -191 20 -233 0 -241 -7 -308
-266 -139 -541 -271 -818 -488 -1026 -201 -192 -467 -277 -957 -308 -216 -13
-1455 -13 -1455 0 0 6 189 767 420 1693 311 1242 429 1698 451 1744 34 71 62
94 137 116 118 36 266 39 1482 34 1185 -5 1259 -7 1550 -43 503 -63 837 -220
1010 -474 228 -336 269 -853 145 -1846 -27 -214 -16 -263 67 -305 36 -18 55
-20 203 -17 148 3 166 5 192 24 63 48 52 -24 255 1617 l188 1531 -22 45 c-13
25 -36 54 -51 65 l-28 21 -3822 3 c-3623 2 -3824 1 -3857 -15z"/>
</g>
</svg>
