<?xml version="1.0" standalone="no"?>
<!DOCTYPE svg PUBLIC "-//W3C//DTD SVG 20010904//EN"
 "http://www.w3.org/TR/2001/REC-SVG-20010904/DTD/svg10.dtd">
<svg version="1.0" xmlns="http://www.w3.org/2000/svg"
 width="738.000000pt" height="911.000000pt" viewBox="0 0 738.000000 911.000000"
 preserveAspectRatio="xMidYMid meet">
<metadata>
Created by potrace 1.16, written by Peter Selinger 2001-2019
</metadata>
<g transform="translate(0.000000,911.000000) scale(0.100000,-0.100000)"
fill="#000000" stroke="none">
<path d="M2620 9104 c-14 -2 -65 -9 -115 -15 -401 -50 -883 -269 -1275 -578
-140 -111 -443 -418 -554 -561 -307 -397 -523 -819 -642 -1249 -37 -137 -36
-178 8 -218 44 -40 63 -43 233 -43 237 0 243 3 296 176 84 270 263 533 504
741 689 595 1710 733 2420 326 323 -185 588 -475 765 -838 88 -180 130 -296
185 -508 117 -457 187 -937 216 -1487 13 -248 7 -777 -11 -1025 -11 -142 -15
-161 -77 -355 -186 -588 -361 -1211 -522 -1855 -175 -703 -220 -938 -228
-1191 -5 -157 -4 -178 16 -244 58 -189 242 -237 393 -102 174 157 314 534 552
1489 186 744 303 1370 362 1933 18 176 26 203 191 670 483 1362 1061 2702
1800 4173 258 513 253 499 198 565 -41 49 -66 54 -258 50 -158 -3 -178 -5
-204 -24 -21 -15 -91 -147 -269 -500 -493 -984 -883 -1851 -1261 -2809 -74
-187 -137 -349 -142 -360 -5 -12 -12 31 -20 120 -44 495 -123 909 -276 1445
-304 1063 -650 1665 -1150 1999 -198 132 -395 211 -646 257 -80 15 -433 28
-489 18z"/>
</g>
</svg>
