<?xml version="1.0" standalone="no"?>
<!DOCTYPE svg PUBLIC "-//W3C//DTD SVG 20010904//EN"
 "http://www.w3.org/TR/2001/REC-SVG-20010904/DTD/svg10.dtd">
<svg version="1.0" xmlns="http://www.w3.org/2000/svg"
 width="797.000000pt" height="977.000000pt" viewBox="0 0 797.000000 977.000000"
 preserveAspectRatio="xMidYMid meet">
<metadata>
Created by potrace 1.16, written by Peter Selinger 2001-2019
</metadata>
<g transform="translate(0.000000,977.000000) scale(0.100000,-0.100000)"
fill="#000000" stroke="none">
<path d="M3819 9749 c-53 -31 -72 -73 -118 -266 -46 -190 -47 -223 -3 -275 47
-55 64 -58 384 -58 523 0 1022 -27 1180 -64 101 -23 140 -64 140 -144 0 -75
-1667 -6725 -1726 -6886 -283 -772 -884 -1379 -1508 -1523 -90 -21 -374 -23
-493 -4 -376 60 -667 212 -852 446 l-63 79 103 18 c315 52 588 248 740 528 73
135 127 337 127 477 0 244 -132 462 -340 561 -127 60 -202 76 -355 75 -166 -1
-283 -30 -440 -108 -322 -160 -520 -450 -579 -848 -46 -306 -1 -601 131 -860
71 -139 152 -249 267 -362 122 -120 251 -210 426 -298 295 -149 599 -222 975
-234 682 -21 1393 191 2000 597 186 125 329 244 505 420 266 265 411 463 559
760 48 96 106 231 129 300 23 69 415 1620 872 3446 456 1827 839 3347 851
3378 24 67 72 132 118 163 72 48 255 71 636 80 246 5 285 8 317 25 21 10 45
29 54 43 20 30 103 356 104 404 0 47 -36 105 -81 130 -37 21 -42 21 -251 12
-833 -40 -2064 -38 -3563 4 -204 6 -211 5 -246 -16z"/>
</g>
</svg>
