<?xml version="1.0" standalone="no"?>
<!DOCTYPE svg PUBLIC "-//W3C//DTD SVG 20010904//EN"
 "http://www.w3.org/TR/2001/REC-SVG-20010904/DTD/svg10.dtd">
<svg version="1.0" xmlns="http://www.w3.org/2000/svg"
 width="626.000000pt" height="875.000000pt" viewBox="0 0 626.000000 875.000000"
 preserveAspectRatio="xMidYMid meet">
<metadata>
Created by potrace 1.16, written by Peter Selinger 2001-2019
</metadata>
<g transform="translate(0.000000,875.000000) scale(0.100000,-0.100000)"
fill="#000000" stroke="none">
<path d="M1257 8740 c-435 -73 -758 -440 -1002 -1140 -53 -153 -151 -492 -215
-746 l-43 -171 19 -38 c31 -63 63 -79 158 -83 97 -5 146 12 174 58 11 16 38
108 62 203 148 595 283 971 435 1217 79 128 223 273 317 318 133 65 316 67
416 5 92 -57 150 -162 178 -327 22 -125 14 -403 -16 -576 -12 -69 -255 -1060
-541 -2203 -561 -2244 -540 -2152 -504 -2273 58 -196 280 -297 512 -234 167
45 307 163 375 318 12 26 229 878 483 1894 l462 1846 73 129 c99 174 279 445
381 573 315 395 685 669 1074 798 264 87 598 124 783 86 464 -95 622 -622 446
-1493 -13 -67 -380 -1546 -815 -3285 -671 -2680 -791 -3172 -793 -3236 -3
-178 91 -307 262 -360 230 -71 519 65 628 294 31 64 164 586 806 3154 423
1692 783 3138 799 3212 186 830 31 1456 -445 1792 -392 277 -1025 354 -1622
199 -315 -83 -633 -249 -912 -478 -172 -141 -370 -348 -505 -527 l-37 -49 0
42 c0 110 -61 315 -136 461 -148 285 -403 488 -726 579 -160 45 -397 63 -531
41z"/>
</g>
</svg>
