<?xml version="1.0" standalone="no"?>
<!DOCTYPE svg PUBLIC "-//W3C//DTD SVG 20010904//EN"
 "http://www.w3.org/TR/2001/REC-SVG-20010904/DTD/svg10.dtd">
<svg version="1.0" xmlns="http://www.w3.org/2000/svg"
 width="489.000000pt" height="602.000000pt" viewBox="0 0 489.000000 602.000000"
 preserveAspectRatio="xMidYMid meet">
<metadata>
Created by potrace 1.16, written by Peter Selinger 2001-2019
</metadata>
<g transform="translate(0.000000,602.000000) scale(0.100000,-0.100000)"
fill="#000000" stroke="none">
<path d="M3095 6013 c-414 -33 -790 -149 -1093 -337 -440 -273 -751 -718 -894
-1281 -26 -104 -31 -143 -35 -295 -4 -138 -2 -194 11 -264 78 -411 331 -737
721 -926 153 -74 293 -112 755 -206 436 -88 572 -125 702 -190 401 -202 579
-537 497 -937 -56 -275 -190 -518 -404 -733 -260 -261 -572 -406 -1025 -475
-120 -18 -190 -22 -400 -23 -268 -1 -357 7 -566 49 -397 80 -707 257 -866 495
l-50 75 98 6 c176 11 314 63 447 168 123 98 204 221 253 388 87 295 -34 552
-300 636 -102 32 -271 31 -376 -2 -135 -41 -225 -96 -325 -196 -112 -111 -162
-202 -208 -373 -28 -110 -30 -128 -31 -297 0 -152 4 -192 21 -255 60 -216 149
-369 302 -520 256 -255 659 -428 1151 -497 156 -22 646 -25 815 -5 879 103
1509 460 1915 1087 154 238 266 508 332 800 28 128 36 415 14 542 -45 262
-179 530 -360 722 -176 185 -458 357 -731 444 -120 38 -182 52 -690 156 -187
38 -366 79 -397 90 -268 93 -454 286 -504 521 -74 348 166 833 529 1068 286
185 715 268 1127 217 352 -42 596 -147 780 -334 60 -62 140 -178 140 -204 0
-2 -28 -8 -62 -11 -161 -19 -327 -106 -421 -221 -116 -144 -171 -347 -133
-490 50 -188 201 -295 414 -295 99 0 164 15 258 59 249 117 369 348 369 711
-1 159 -17 245 -76 386 -65 157 -210 331 -369 443 -221 156 -551 269 -879 301
-94 9 -360 11 -456 3z"/>
</g>
</svg>
