<?xml version="1.0" standalone="no"?>
<!DOCTYPE svg PUBLIC "-//W3C//DTD SVG 20010904//EN"
 "http://www.w3.org/TR/2001/REC-SVG-20010904/DTD/svg10.dtd">
<svg version="1.0" xmlns="http://www.w3.org/2000/svg"
 width="576.000000pt" height="927.000000pt" viewBox="0 0 576.000000 927.000000"
 preserveAspectRatio="xMidYMid meet">
<metadata>
Created by potrace 1.16, written by Peter Selinger 2001-2019
</metadata>
<g transform="translate(0.000000,927.000000) scale(0.100000,-0.100000)"
fill="#000000" stroke="none">
<path d="M2520 9260 c-391 -37 -797 -155 -1110 -322 -557 -299 -902 -737
-1007 -1283 -25 -130 -25 -396 0 -485 70 -248 243 -420 494 -492 114 -33 307
-33 413 0 353 111 544 403 509 779 -13 141 -57 256 -142 369 -115 153 -340
264 -534 264 l-74 0 22 33 c41 58 223 231 306 290 329 234 717 366 1193 408
464 40 834 -75 1103 -345 173 -173 277 -385 328 -672 30 -167 37 -528 15 -744
-103 -982 -606 -1684 -1286 -1794 -52 -9 -282 -30 -510 -47 -453 -33 -454 -33
-497 -99 -20 -29 -23 -46 -23 -132 0 -111 14 -155 58 -185 25 -17 70 -18 607
-24 485 -5 592 -9 655 -22 119 -26 197 -54 315 -112 428 -208 730 -616 858
-1160 109 -461 116 -1154 16 -1650 -129 -639 -493 -1102 -1009 -1282 -157 -55
-244 -68 -465 -68 -805 2 -1546 307 -1940 800 l-49 60 85 6 c417 31 709 350
709 774 0 451 -327 777 -780 777 -344 0 -624 -188 -731 -490 -41 -117 -53
-213 -46 -370 20 -456 208 -872 547 -1213 194 -195 401 -340 685 -479 499
-246 1062 -364 1650 -347 498 14 908 115 1340 327 673 331 1167 874 1394 1533
82 237 118 434 128 687 12 348 -53 648 -212 975 -242 499 -653 898 -1210 1177
-224 113 -554 227 -791 274 l-92 18 142 53 c881 332 1513 993 1716 1793 50
197 64 305 64 525 1 158 -3 218 -17 285 -98 453 -377 840 -819 1133 -373 248
-825 407 -1333 467 -121 15 -557 21 -675 10z"/>
</g>
</svg>
