<?xml version="1.0" standalone="no"?>
<!DOCTYPE svg PUBLIC "-//W3C//DTD SVG 20010904//EN"
 "http://www.w3.org/TR/2001/REC-SVG-20010904/DTD/svg10.dtd">
<svg version="1.0" xmlns="http://www.w3.org/2000/svg"
 width="1188.000000pt" height="946.000000pt" viewBox="0 0 1188.000000 946.000000"
 preserveAspectRatio="xMidYMid meet">
<metadata>
Created by potrace 1.16, written by Peter Selinger 2001-2019
</metadata>
<g transform="translate(0.000000,946.000000) scale(0.100000,-0.100000)"
fill="#000000" stroke="none">
<path d="M2368 9440 c-21 -11 -45 -32 -54 -45 -19 -30 -103 -356 -104 -403 0
-49 32 -104 76 -128 37 -20 57 -22 404 -27 509 -9 751 -33 807 -81 59 -51 120
211 -927 -3976 -528 -2115 -972 -3869 -985 -3897 -48 -107 -116 -168 -216
-197 -135 -39 -521 -66 -942 -66 -208 0 -231 -2 -267 -20 -22 -11 -47 -31 -56
-45 -19 -30 -103 -356 -104 -403 0 -50 32 -104 79 -130 l40 -23 253 10 c139 6
576 16 970 23 738 12 1735 3 2418 -23 318 -12 340 -10 388 45 24 28 37 65 77
228 l49 195 -25 48 c-46 93 -30 89 -442 96 -364 7 -569 20 -707 44 -100 17
-128 30 -140 60 -27 70 -14 127 313 1429 l322 1280 940 737 c517 405 941 736
942 735 1 -1 365 -870 809 -1931 l808 -1930 0 -75 c1 -64 -3 -82 -27 -122 -56
-97 -173 -167 -334 -199 -61 -13 -163 -22 -287 -27 -211 -8 -229 -13 -265 -74
-24 -39 -101 -344 -101 -400 0 -56 29 -102 80 -128 39 -20 47 -20 298 -11 141
6 587 16 989 23 753 12 1424 4 1972 -24 223 -11 225 -11 266 11 58 31 76 68
125 268 47 191 47 221 3 274 -43 51 -75 59 -241 59 -324 0 -561 34 -698 100
-66 32 -95 54 -155 118 -41 43 -89 106 -106 138 -17 32 -477 1127 -1023 2432
-966 2312 -992 2374 -974 2392 51 49 2803 2198 2823 2205 12 3 50 28 84 54
534 407 1073 652 1627 740 146 24 333 41 444 41 93 0 143 22 173 79 11 20 39
114 63 208 47 194 47 222 -1 278 -44 50 -74 56 -219 45 -360 -27 -890 -34
-1572 -22 -376 7 -810 17 -966 23 -265 11 -286 10 -323 -7 -22 -9 -49 -30 -60
-46 -22 -31 -109 -354 -109 -407 0 -18 10 -50 21 -71 32 -57 77 -76 195 -84
306 -19 429 -153 327 -356 -77 -156 -31 -118 -2787 -2279 -1397 -1095 -2541
-1989 -2543 -1987 -2 2 240 976 537 2165 364 1458 549 2179 566 2213 35 70
106 142 162 166 111 47 364 71 847 78 198 3 374 10 392 15 66 21 86 59 138
271 l49 195 -25 48 c-13 27 -37 58 -52 69 -35 26 -31 26 -657 6 -576 -18
-2113 -19 -2650 -2 -201 7 -439 14 -530 17 -153 5 -168 4 -202 -15z"/>
</g>
</svg>
