<?xml version="1.0" standalone="no"?>
<!DOCTYPE svg PUBLIC "-//W3C//DTD SVG 20010904//EN"
 "http://www.w3.org/TR/2001/REC-SVG-20010904/DTD/svg10.dtd">
<svg version="1.0" xmlns="http://www.w3.org/2000/svg"
 width="547.000000pt" height="626.000000pt" viewBox="0 0 547.000000 626.000000"
 preserveAspectRatio="xMidYMid meet">
<metadata>
Created by potrace 1.16, written by Peter Selinger 2001-2019
</metadata>
<g transform="translate(0.000000,626.000000) scale(0.100000,-0.100000)"
fill="#000000" stroke="none">
<path d="M3535 6249 c-231 -22 -507 -83 -755 -168 -1472 -502 -2630 -1942
-2771 -3444 -15 -164 -7 -545 16 -687 67 -434 240 -838 492 -1150 78 -96 256
-268 355 -343 238 -178 544 -320 843 -390 176 -42 307 -58 515 -64 945 -27
1944 295 2640 852 200 160 460 423 551 559 66 98 54 133 -99 289 -94 95 -125
117 -169 117 -47 0 -87 -31 -168 -130 -573 -699 -1510 -1139 -2505 -1177 -400
-15 -678 75 -910 293 -329 309 -437 777 -339 1473 30 215 81 457 175 831 158
634 269 956 447 1304 349 682 943 1174 1572 1301 401 81 874 5 1151 -186 l47
-32 -79 -27 c-295 -100 -506 -327 -584 -630 -62 -240 -19 -443 124 -585 299
-297 890 -183 1165 224 115 169 182 430 167 652 -30 470 -360 842 -901 1019
-293 95 -642 130 -980 99z"/>
</g>
</svg>
