<?xml version="1.0" standalone="no"?>
<!DOCTYPE svg PUBLIC "-//W3C//DTD SVG 20010904//EN"
 "http://www.w3.org/TR/2001/REC-SVG-20010904/DTD/svg10.dtd">
<svg version="1.0" xmlns="http://www.w3.org/2000/svg"
 width="688.000000pt" height="1260.000000pt" viewBox="0 0 688.000000 1260.000000"
 preserveAspectRatio="xMidYMid meet">
<metadata>
Created by potrace 1.16, written by Peter Selinger 2001-2019
</metadata>
<g transform="translate(0.000000,1260.000000) scale(0.100000,-0.100000)"
fill="#000000" stroke="none">
<path d="M5455 12590 c-412 -65 -825 -316 -1138 -691 -240 -289 -425 -711
-577 -1319 -66 -265 -119 -522 -246 -1202 l-108 -578 -659 0 c-653 0 -660 0
-697 -21 -53 -30 -72 -71 -120 -266 -47 -191 -47 -221 -3 -274 51 -60 33 -59
728 -59 l635 0 -5 -22 c-3 -13 -178 -945 -389 -2073 -498 -2651 -608 -3222
-762 -3945 -183 -859 -258 -1098 -420 -1347 -56 -86 -188 -213 -259 -248 -57
-29 -66 -30 -180 -29 -124 1 -210 16 -317 55 l-58 21 108 53 c186 92 313 218
402 400 67 135 94 242 94 375 1 61 -5 126 -13 155 -72 260 -310 416 -611 402
-394 -19 -719 -290 -819 -685 -175 -684 322 -1257 1119 -1289 149 -6 229 3
366 42 116 33 324 137 444 222 116 83 370 333 470 463 507 659 828 1572 1190
3387 39 197 228 1191 418 2208 l348 1850 779 5 c722 5 782 6 812 23 18 9 40
29 49 42 20 30 103 356 104 404 0 44 -34 103 -73 127 -31 18 -67 19 -793 24
l-760 5 143 760 c222 1186 355 1848 419 2085 19 72 36 108 67 150 94 126 211
227 307 267 57 23 241 23 346 0 80 -18 184 -55 183 -65 0 -4 -44 -28 -97 -54
-227 -109 -397 -322 -463 -578 -27 -102 -32 -268 -10 -345 72 -260 310 -416
611 -402 330 16 631 222 765 523 56 126 77 227 82 399 4 148 2 168 -21 259
-102 394 -420 665 -901 766 -115 24 -391 35 -490 20z"/>
</g>
</svg>
