<?xml version="1.0" standalone="no"?>
<!DOCTYPE svg PUBLIC "-//W3C//DTD SVG 20010904//EN"
 "http://www.w3.org/TR/2001/REC-SVG-20010904/DTD/svg10.dtd">
<svg version="1.0" xmlns="http://www.w3.org/2000/svg"
 width="992.000000pt" height="977.000000pt" viewBox="0 0 992.000000 977.000000"
 preserveAspectRatio="xMidYMid meet">
<metadata>
Created by potrace 1.16, written by Peter Selinger 2001-2019
</metadata>
<g transform="translate(0.000000,977.000000) scale(0.100000,-0.100000)"
fill="#000000" stroke="none">
<path d="M139 9751 c-52 -29 -67 -59 -105 -209 -37 -147 -36 -181 8 -237 38
-48 70 -55 270 -55 328 0 607 -28 721 -70 64 -24 98 -57 131 -130 23 -50 70
-417 571 -4475 300 -2431 548 -4433 551 -4448 9 -42 59 -93 108 -112 36 -14
73 -16 207 -13 155 3 167 5 214 30 28 14 67 44 87 65 21 21 1188 1883 2593
4138 1406 2255 2561 4102 2566 4103 5 2 33 38 61 80 85 126 137 192 243 301
329 340 709 503 1230 527 153 7 197 21 230 70 9 15 32 87 51 162 38 150 36
184 -12 241 -39 46 -70 52 -234 41 -80 -5 -346 -15 -593 -22 -464 -12 -1225
-3 -1783 23 -229 11 -244 11 -280 -7 -56 -28 -78 -68 -114 -213 -36 -147 -35
-182 7 -232 35 -42 79 -59 150 -59 86 0 217 -18 303 -41 118 -32 197 -75 271
-149 79 -78 102 -135 101 -247 -1 -85 -16 -137 -81 -272 -44 -94 -4221 -6804
-4230 -6796 -2 3 -203 1617 -447 3587 l-443 3583 25 52 c14 29 45 70 70 92
139 122 467 191 912 191 160 0 206 13 240 69 10 16 33 92 51 169 l34 139 -24
49 c-13 26 -37 57 -52 68 -35 26 -33 26 -642 6 -560 -18 -1946 -19 -2355 -2
-599 25 -571 25 -611 3z"/>
</g>
</svg>
