<?xml version="1.0" standalone="no"?>
<!DOCTYPE svg PUBLIC "-//W3C//DTD SVG 20010904//EN"
 "http://www.w3.org/TR/2001/REC-SVG-20010904/DTD/svg10.dtd">
<svg version="1.0" xmlns="http://www.w3.org/2000/svg"
 width="698.000000pt" height="845.000000pt" viewBox="0 0 698.000000 845.000000"
 preserveAspectRatio="xMidYMid meet">
<metadata>
Created by potrace 1.16, written by Peter Selinger 2001-2019
</metadata>
<g transform="translate(0.000000,845.000000) scale(0.100000,-0.100000)"
fill="#000000" stroke="none">
<path d="M2087 8440 c-435 -73 -758 -440 -1002 -1140 -53 -153 -151 -492 -215
-746 l-43 -171 19 -38 c31 -63 63 -79 158 -83 97 -5 146 12 174 58 11 16 38
108 62 203 148 595 283 971 435 1217 79 128 223 273 317 318 133 65 316 67
416 5 92 -57 150 -162 178 -327 22 -125 14 -403 -16 -576 -28 -162 -1570
-6332 -1609 -6438 -34 -95 -78 -162 -124 -191 -81 -50 -290 -81 -545 -81 -195
0 -222 -20 -266 -195 -30 -122 -26 -162 21 -207 52 -48 61 -49 234 -39 88 6
348 16 577 22 433 12 1126 2 1644 -22 264 -13 276 -11 326 46 20 22 36 59 50
118 29 112 28 165 -1 208 -40 61 -70 69 -262 69 -289 0 -518 21 -628 56 -71
23 -81 45 -74 157 4 76 60 311 311 1317 169 674 309 1231 312 1239 3 9 28 -27
62 -85 263 -456 668 -704 1147 -704 776 0 1661 508 2286 1310 510 654 817
1391 921 2215 19 154 16 602 -6 750 -85 588 -321 1056 -685 1359 -319 265
-720 400 -1136 383 -239 -10 -456 -70 -703 -192 -282 -140 -503 -304 -778
-579 l-181 -182 -26 96 c-37 134 -131 315 -220 424 -146 182 -358 317 -599
385 -160 45 -397 63 -531 41z m3196 -341 c288 -44 523 -282 631 -639 62 -206
88 -507 67 -765 -28 -333 -85 -632 -241 -1255 -154 -611 -236 -874 -372 -1195
-349 -821 -950 -1404 -1512 -1467 -279 -31 -527 56 -731 257 -186 185 -317
444 -395 785 l-21 95 374 1495 373 1495 61 85 c262 368 579 681 877 867 316
197 628 282 889 242z"/>
</g>
</svg>
