<?xml version="1.0" standalone="no"?>
<!DOCTYPE svg PUBLIC "-//W3C//DTD SVG 20010904//EN"
 "http://www.w3.org/TR/2001/REC-SVG-20010904/DTD/svg10.dtd">
<svg version="1.0" xmlns="http://www.w3.org/2000/svg"
 width="682.000000pt" height="650.000000pt" viewBox="0 0 682.000000 650.000000"
 preserveAspectRatio="xMidYMid meet">
<metadata>
Created by potrace 1.16, written by Peter Selinger 2001-2019
</metadata>
<g transform="translate(0.000000,650.000000) scale(0.100000,-0.100000)"
fill="#000000" stroke="none">
<path d="M3345 6486 c-36 -16 -70 -52 -83 -87 -6 -14 -89 -630 -186 -1370 -97
-739 -180 -1356 -184 -1370 l-7 -26 -1365 253 c-927 172 -1376 252 -1398 248
-39 -8 -87 -45 -107 -85 -28 -53 -12 -143 31 -180 11 -9 579 -284 1264 -610
685 -326 1249 -596 1254 -600 5 -4 -282 -542 -637 -1196 -354 -653 -654 -1207
-666 -1230 -48 -97 -6 -193 100 -224 86 -26 46 -64 1011 954 487 513 918 967
959 1010 l74 79 958 -1011 c1047 -1103 1000 -1058 1086 -1032 106 31 148 127
100 224 -12 23 -312 577 -666 1230 -355 654 -642 1192 -637 1196 5 4 569 274
1254 600 685 326 1253 601 1264 610 43 37 59 127 31 180 -20 40 -68 77 -107
85 -22 4 -471 -76 -1398 -248 l-1365 -253 -7 26 c-4 14 -87 631 -183 1371
-143 1100 -179 1352 -196 1386 -35 71 -121 102 -194 70z"/>
</g>
</svg>
