<?xml version="1.0" standalone="no"?>
<!DOCTYPE svg PUBLIC "-//W3C//DTD SVG 20010904//EN"
 "http://www.w3.org/TR/2001/REC-SVG-20010904/DTD/svg10.dtd">
<svg version="1.0" xmlns="http://www.w3.org/2000/svg"
 width="570.000000pt" height="602.000000pt" viewBox="0 0 570.000000 602.000000"
 preserveAspectRatio="xMidYMid meet">
<metadata>
Created by potrace 1.16, written by Peter Selinger 2001-2019
</metadata>
<g transform="translate(0.000000,602.000000) scale(0.100000,-0.100000)"
fill="#000000" stroke="none">
<path d="M2569 6010 c-333 -53 -648 -226 -920 -507 -247 -255 -447 -601 -535
-930 -27 -101 -27 -101 -8 -139 11 -21 35 -49 54 -62 32 -21 44 -23 127 -20
110 4 138 20 167 94 96 250 221 381 479 504 170 81 351 125 567 136 225 13
436 -27 790 -148 528 -180 708 -225 949 -236 l144 -7 -190 -200 c-159 -167
-474 -473 -748 -726 -128 -118 -376 -339 -750 -669 -406 -358 -726 -645 -880
-790 -617 -579 -1014 -1008 -1364 -1474 -190 -254 -422 -609 -441 -678 -13
-43 2 -86 41 -124 30 -28 33 -29 139 -29 93 0 111 3 130 20 12 11 64 83 116
162 276 417 592 683 916 770 92 25 294 24 368 -1 148 -50 270 -140 428 -316
196 -219 366 -391 443 -450 94 -71 213 -130 324 -162 113 -32 370 -32 523 0
639 137 1211 620 1583 1337 101 194 173 378 235 599 25 87 25 91 9 134 -26 66
-59 82 -174 82 -144 0 -152 -7 -211 -192 -12 -38 -44 -111 -70 -164 -253 -495
-835 -859 -1426 -890 -250 -14 -423 22 -929 191 -375 125 -520 164 -699 186
-116 14 -345 7 -428 -14 l-58 -14 83 90 c119 132 496 509 687 687 229 215 499
458 955 860 407 359 727 646 880 790 617 579 1014 1008 1364 1474 180 240 416
600 442 674 14 41 -1 89 -42 128 -30 28 -33 29 -139 29 -131 0 -130 0 -222
-149 -335 -548 -614 -803 -902 -823 -111 -8 -209 11 -303 56 -137 67 -206 128
-428 376 -296 333 -451 451 -678 516 -82 23 -303 34 -398 19z"/>
</g>
</svg>
