<?xml version="1.0" standalone="no"?>
<!DOCTYPE svg PUBLIC "-//W3C//DTD SVG 20010904//EN"
 "http://www.w3.org/TR/2001/REC-SVG-20010904/DTD/svg10.dtd">
<svg version="1.0" xmlns="http://www.w3.org/2000/svg"
 width="767.000000pt" height="612.000000pt" viewBox="0 0 767.000000 612.000000"
 preserveAspectRatio="xMidYMid meet">
<metadata>
Created by potrace 1.16, written by Peter Selinger 2001-2019
</metadata>
<g transform="translate(0.000000,612.000000) scale(0.100000,-0.100000)"
fill="#000000" stroke="none">
<path d="M2035 6105 c-306 -48 -616 -195 -904 -428 -107 -86 -346 -322 -458
-452 -182 -209 -414 -534 -597 -834 -62 -102 -76 -132 -76 -165 0 -53 17 -85
59 -113 32 -22 43 -23 210 -23 213 0 216 1 294 122 246 382 639 695 1036 828
209 70 233 72 789 77 484 4 504 4 498 -14 -3 -10 -33 -110 -66 -223 -354
-1193 -853 -2445 -1573 -3946 -145 -303 -167 -365 -167 -474 0 -275 213 -462
510 -448 253 13 468 167 585 421 148 320 460 1442 1060 3807 l222 875 682 3
c647 2 682 1 677 -15 -15 -47 -142 -591 -200 -853 -296 -1343 -385 -2294 -286
-3067 43 -334 134 -663 252 -912 108 -227 331 -318 588 -239 283 88 501 337
517 594 7 104 -6 157 -77 319 -449 1019 -551 2263 -305 3735 19 113 45 257 58
320 l23 115 889 5 c886 5 890 5 955 27 221 75 384 270 420 499 27 172 -53 349
-190 419 -116 59 90 55 -2749 54 -2038 -1 -2613 -4 -2676 -14z"/>
</g>
</svg>
