<?xml version="1.0" standalone="no"?>
<!DOCTYPE svg PUBLIC "-//W3C//DTD SVG 20010904//EN"
 "http://www.w3.org/TR/2001/REC-SVG-20010904/DTD/svg10.dtd">
<svg version="1.0" xmlns="http://www.w3.org/2000/svg"
 width="691.000000pt" height="1260.000000pt" viewBox="0 0 691.000000 1260.000000"
 preserveAspectRatio="xMidYMid meet">
<metadata>
Created by potrace 1.16, written by Peter Selinger 2001-2019
</metadata>
<g transform="translate(0.000000,1260.000000) scale(0.100000,-0.100000)"
fill="#000000" stroke="none">
<path d="M5515 12593 c-275 -36 -582 -173 -835 -374 -85 -67 -246 -226 -313
-309 -168 -209 -308 -482 -427 -840 -125 -372 -194 -674 -371 -1614 l-123
-656 -634 0 c-625 0 -635 0 -672 -21 -50 -28 -68 -63 -101 -193 -46 -179 -35
-242 50 -286 39 -19 56 -20 651 -20 578 0 611 -1 606 -17 -3 -10 -181 -954
-395 -2098 -614 -3273 -748 -3951 -916 -4630 -77 -312 -115 -427 -200 -601
-155 -316 -354 -504 -552 -521 -83 -7 -234 10 -336 38 -81 23 -243 98 -230
108 4 4 42 18 83 30 276 86 479 299 555 584 60 225 14 432 -125 560 -221 205
-604 193 -896 -29 -209 -159 -327 -415 -327 -714 -1 -366 192 -664 542 -839
313 -157 703 -194 1000 -95 437 146 878 586 1198 1199 207 397 409 985 592
1720 152 613 230 1004 692 3472 l344 1833 748 0 c815 0 788 -2 838 58 27 31
89 250 89 313 0 42 -35 102 -73 125 -31 18 -66 19 -768 24 l-735 5 142 760
c160 853 315 1637 373 1886 72 306 78 323 142 410 107 144 236 254 351 300
112 44 338 30 516 -32 82 -29 182 -78 182 -89 0 -3 -29 -14 -65 -24 -280 -80
-493 -300 -570 -589 -60 -225 -14 -432 125 -560 221 -205 604 -193 896 29 144
109 245 264 294 450 162 616 -253 1143 -977 1239 -99 13 -295 18 -368 8z"/>
</g>
</svg>
