<?xml version="1.0" standalone="no"?>
<!DOCTYPE svg PUBLIC "-//W3C//DTD SVG 20010904//EN"
 "http://www.w3.org/TR/2001/REC-SVG-20010904/DTD/svg10.dtd">
<svg version="1.0" xmlns="http://www.w3.org/2000/svg"
 width="619.000000pt" height="627.000000pt" viewBox="0 0 619.000000 627.000000"
 preserveAspectRatio="xMidYMid meet">
<metadata>
Created by potrace 1.16, written by Peter Selinger 2001-2019
</metadata>
<g transform="translate(0.000000,627.000000) scale(0.100000,-0.100000)"
fill="#000000" stroke="none">
<path d="M5354 6255 c-84 -18 -186 -62 -269 -116 -287 -186 -456 -527 -390
-784 32 -123 57 -159 240 -340 184 -183 252 -271 324 -426 87 -186 120 -327
128 -545 9 -247 -17 -395 -148 -853 -389 -1358 -934 -2258 -1553 -2560 -316
-154 -691 -160 -979 -15 -261 131 -411 371 -463 741 -22 157 -14 490 15 678
84 537 232 1019 676 2205 203 542 224 624 225 856 1 570 -361 1007 -941 1135
-137 31 -409 34 -536 6 -196 -42 -405 -135 -573 -254 -106 -76 -300 -259 -395
-373 -290 -349 -523 -809 -671 -1325 -52 -180 -51 -205 6 -260 l31 -30 184 -3
c154 -3 189 -1 215 13 38 20 65 63 81 129 24 103 102 345 156 481 219 556 535
951 858 1076 150 58 337 74 413 35 46 -24 90 -81 109 -144 27 -86 24 -302 -6
-452 -42 -215 -59 -267 -269 -825 -439 -1168 -605 -1716 -668 -2202 -23 -177
-23 -529 0 -678 58 -374 190 -657 417 -890 125 -128 246 -216 414 -299 211
-105 409 -165 690 -208 114 -17 186 -21 390 -22 223 0 261 2 352 22 294 64
575 202 828 407 125 101 371 356 483 500 426 550 799 1332 1057 2215 94 321
241 927 304 1250 114 588 121 1031 20 1338 -124 380 -428 588 -755 517z"/>
</g>
</svg>
