<?xml version="1.0" standalone="no"?>
<!DOCTYPE svg PUBLIC "-//W3C//DTD SVG 20010904//EN"
 "http://www.w3.org/TR/2001/REC-SVG-20010904/DTD/svg10.dtd">
<svg version="1.0" xmlns="http://www.w3.org/2000/svg"
 width="631.000000pt" height="588.000000pt" viewBox="0 0 631.000000 588.000000"
 preserveAspectRatio="xMidYMid meet">
<metadata>
Created by potrace 1.16, written by Peter Selinger 2001-2019
</metadata>
<g transform="translate(0.000000,588.000000) scale(0.100000,-0.100000)"
fill="#000000" stroke="none">
<path d="M1235 5803 c-928 -79 -915 -78 -958 -134 -20 -28 -66 -196 -67 -245
0 -38 34 -91 79 -121 32 -22 44 -23 195 -23 401 0 656 -44 693 -120 19 -37 16
-165 -6 -271 -11 -52 -279 -1130 -595 -2396 -317 -1267 -576 -2320 -576 -2341
0 -51 34 -102 85 -126 56 -28 264 -34 403 -12 196 31 682 168 990 280 1476
536 2804 1536 3722 2801 491 677 870 1459 1061 2190 43 166 50 256 24 341 -58
196 -280 297 -512 234 -139 -37 -255 -122 -334 -243 -42 -65 -59 -112 -119
-337 -148 -553 -423 -1202 -735 -1735 -838 -1432 -2058 -2500 -3424 -2997 -73
-27 -135 -47 -138 -45 -2 3 289 1176 647 2608 479 1913 650 2614 647 2641 -10
78 -76 129 -164 127 -26 -1 -439 -35 -918 -76z"/>
</g>
</svg>
