<?xml version="1.0" standalone="no"?>
<!DOCTYPE svg PUBLIC "-//W3C//DTD SVG 20010904//EN"
 "http://www.w3.org/TR/2001/REC-SVG-20010904/DTD/svg10.dtd">
<svg version="1.0" xmlns="http://www.w3.org/2000/svg"
 width="596.000000pt" height="941.000000pt" viewBox="0 0 596.000000 941.000000"
 preserveAspectRatio="xMidYMid meet">
<metadata>
Created by potrace 1.16, written by Peter Selinger 2001-2019
</metadata>
<g transform="translate(0.000000,941.000000) scale(0.100000,-0.100000)"
fill="#000000" stroke="none">
<path d="M536 9388 c-22 -13 -48 -37 -57 -53 -12 -20 -92 -473 -248 -1397
-127 -752 -231 -1379 -231 -1394 0 -41 38 -99 80 -123 34 -19 53 -21 195 -21
142 0 161 2 196 22 53 30 75 80 99 233 74 452 158 797 237 967 l35 76 47 7
c243 31 1165 47 2623 43 l1217 -3 -615 -820 c-674 -898 -795 -1064 -966 -1325
-809 -1233 -1325 -2572 -1493 -3876 -64 -497 -83 -1055 -41 -1209 26 -95 89
-214 151 -282 329 -363 966 -286 1176 142 74 151 71 125 79 862 8 650 11 772
31 1163 76 1487 356 2532 903 3365 51 77 512 700 1025 1384 513 684 941 1257
952 1275 17 28 19 52 19 225 0 178 -2 196 -21 231 -12 21 -38 47 -59 59 l-38
21 -1643 0 c-1919 0 -2358 9 -2749 56 -155 18 -258 45 -335 88 -77 43 -98 71
-100 140 -3 61 -25 108 -68 140 -26 19 -44 21 -195 24 -158 2 -169 1 -206 -20z"/>
</g>
</svg>
