<?xml version="1.0" standalone="no"?>
<!DOCTYPE svg PUBLIC "-//W3C//DTD SVG 20010904//EN"
 "http://www.w3.org/TR/2001/REC-SVG-20010904/DTD/svg10.dtd">
<svg version="1.0" xmlns="http://www.w3.org/2000/svg"
 width="1036.000000pt" height="946.000000pt" viewBox="0 0 1036.000000 946.000000"
 preserveAspectRatio="xMidYMid meet">
<metadata>
Created by potrace 1.16, written by Peter Selinger 2001-2019
</metadata>
<g transform="translate(0.000000,946.000000) scale(0.100000,-0.100000)"
fill="#000000" stroke="none">
<path d="M2368 9440 c-51 -28 -71 -67 -108 -218 l-33 -134 25 -61 c14 -34 510
-1130 1102 -2436 l1077 -2374 -48 -47 c-26 -26 -1013 -915 -2193 -1975 -1180
-1060 -2155 -1944 -2167 -1964 -44 -71 -18 -168 57 -210 l38 -21 3906 0 c4222
0 3942 -4 3993 52 14 15 240 602 604 1574 627 1671 599 1589 552 1653 -44 57
-66 66 -188 69 -102 3 -118 1 -153 -18 -50 -28 -55 -37 -146 -267 -224 -567
-431 -952 -699 -1307 -119 -158 -405 -444 -552 -554 -430 -319 -939 -452
-2005 -523 -109 -8 -854 -13 -2185 -16 l-2020 -4 25 24 c14 13 1007 907 2208
1986 1200 1079 2189 1975 2197 1991 8 16 15 47 15 69 0 31 -195 470 -931 2093
-513 1129 -938 2068 -946 2086 l-14 33 1828 -4 c1243 -3 1882 -8 1998 -16 775
-53 1197 -146 1477 -326 192 -125 357 -374 439 -664 94 -335 110 -764 49
-1343 -12 -105 -18 -204 -15 -220 9 -39 52 -88 92 -104 20 -9 71 -14 134 -14
85 0 107 3 140 22 76 43 62 -45 254 1577 l175 1475 -22 45 c-13 25 -36 54 -51
65 l-28 21 -3922 2 c-3859 2 -3923 2 -3959 -17z"/>
</g>
</svg>
