<?xml version="1.0" standalone="no"?>
<!DOCTYPE svg PUBLIC "-//W3C//DTD SVG 20010904//EN"
 "http://www.w3.org/TR/2001/REC-SVG-20010904/DTD/svg10.dtd">
<svg version="1.0" xmlns="http://www.w3.org/2000/svg"
 width="984.000000pt" height="1008.000000pt" viewBox="0 0 984.000000 1008.000000"
 preserveAspectRatio="xMidYMid meet">
<metadata>
Created by potrace 1.16, written by Peter Selinger 2001-2019
</metadata>
<g transform="translate(0.000000,1008.000000) scale(0.100000,-0.100000)"
fill="#000000" stroke="none">
<path d="M5950 10073 c-901 -61 -1778 -342 -2603 -832 -737 -439 -1387 -1005
-1925 -1679 -768 -963 -1257 -2094 -1387 -3207 -68 -590 -22 -1212 130 -1740
367 -1277 1292 -2172 2580 -2493 345 -86 588 -115 985 -116 322 -1 416 6 670
50 1251 215 2467 1038 3225 2184 135 204 209 335 321 565 134 277 240 559 304
811 23 91 23 91 4 130 -10 21 -34 49 -53 61 -31 21 -46 23 -153 23 -131 0
-176 -12 -203 -53 -9 -14 -38 -101 -65 -194 -201 -692 -584 -1327 -1130 -1873
-276 -277 -542 -487 -843 -668 -719 -430 -1448 -594 -2197 -491 -921 125
-1644 640 -1990 1416 -268 602 -321 1368 -160 2329 151 896 458 1852 812 2524
373 708 817 1258 1383 1716 604 488 1323 828 2028 958 247 46 404 60 662 60
235 0 296 -5 480 -40 213 -42 493 -163 675 -292 120 -85 316 -278 407 -402
350 -474 524 -1087 524 -1845 0 -249 -10 -407 -42 -638 -19 -144 -19 -150 -2
-185 10 -20 33 -47 52 -59 32 -21 45 -23 190 -23 175 0 211 10 242 65 9 17
230 884 490 1928 l474 1897 -20 37 c-32 60 -76 83 -156 83 -37 0 -80 -5 -94
-12 -15 -7 -273 -276 -574 -598 l-547 -586 -63 93 c-96 142 -182 246 -315 378
-418 415 -963 661 -1591 714 -109 10 -413 12 -525 4z"/>
</g>
</svg>
