<?xml version="1.0" standalone="no"?>
<!DOCTYPE svg PUBLIC "-//W3C//DTD SVG 20010904//EN"
 "http://www.w3.org/TR/2001/REC-SVG-20010904/DTD/svg10.dtd">
<svg version="1.0" xmlns="http://www.w3.org/2000/svg"
 width="600.000000pt" height="626.000000pt" viewBox="0 0 600.000000 626.000000"
 preserveAspectRatio="xMidYMid meet">
<metadata>
Created by potrace 1.16, written by Peter Selinger 2001-2019
</metadata>
<g transform="translate(0.000000,626.000000) scale(0.100000,-0.100000)"
fill="#000000" stroke="none">
<path d="M2770 6254 c-285 -35 -589 -165 -851 -365 -324 -246 -609 -647 -740
-1038 -51 -154 -58 -214 -30 -258 37 -59 61 -65 267 -61 l184 3 30 30 c17 17
41 60 54 96 30 83 61 133 122 194 166 165 457 265 824 282 245 11 490 -27 910
-142 446 -121 621 -159 793 -172 48 -3 87 -10 87 -14 0 -16 -699 -709 -905
-900 -110 -101 -335 -305 -500 -454 -1035 -930 -1117 -1006 -1521 -1410 -341
-341 -524 -538 -747 -805 -246 -295 -506 -659 -672 -938 -83 -140 -92 -179
-55 -240 33 -54 67 -62 258 -62 206 0 207 1 294 140 334 535 793 844 1173 791
220 -31 340 -108 670 -431 270 -264 343 -322 518 -406 121 -58 226 -84 364
-91 412 -21 885 150 1293 465 124 96 347 319 460 458 269 334 471 729 580
1133 l22 81 -23 47 c-38 75 -63 83 -254 83 -135 0 -166 -3 -202 -19 -48 -22
-54 -31 -93 -150 -106 -326 -366 -603 -735 -786 -375 -185 -718 -233 -1147
-161 -163 28 -206 38 -568 137 -447 121 -630 152 -892 153 -93 1 -168 4 -168
8 0 5 159 167 353 361 363 364 537 528 1052 992 1035 930 1117 1006 1521 1410
462 462 724 757 1019 1151 170 226 272 377 389 573 95 160 104 196 66 259 -33
54 -67 62 -257 62 -194 0 -214 -7 -261 -86 -141 -237 -324 -508 -404 -600
-120 -137 -253 -224 -376 -245 -84 -15 -221 2 -316 39 -146 57 -242 133 -559
441 -275 266 -401 351 -624 417 -73 21 -112 27 -228 29 -77 2 -156 1 -175 -1z"/>
</g>
</svg>
