<?xml version="1.0" standalone="no"?>
<!DOCTYPE svg PUBLIC "-//W3C//DTD SVG 20010904//EN"
 "http://www.w3.org/TR/2001/REC-SVG-20010904/DTD/svg10.dtd">
<svg version="1.0" xmlns="http://www.w3.org/2000/svg"
 width="850.000000pt" height="1245.000000pt" viewBox="0 0 850.000000 1245.000000"
 preserveAspectRatio="xMidYMid meet">
<metadata>
Created by potrace 1.16, written by Peter Selinger 2001-2019
</metadata>
<g transform="translate(0.000000,1245.000000) scale(0.100000,-0.100000)"
fill="#000000" stroke="none">
<path d="M6053 12430 c-18 -10 -39 -29 -47 -42 -8 -13 -524 -2059 -1146 -4548
-622 -2489 -1135 -4542 -1141 -4562 -11 -43 11 -43 -199 -2 -403 79 -766 276
-960 520 -188 237 -270 501 -270 871 0 425 128 879 625 2208 225 604 244 675
245 916 1 499 -293 913 -766 1082 -149 53 -264 71 -454 72 -249 0 -389 -33
-615 -145 -172 -86 -287 -172 -461 -345 -368 -365 -643 -862 -820 -1477 -52
-183 -51 -208 6 -263 l31 -30 184 -3 c154 -3 189 -1 215 13 38 20 65 63 81
129 66 284 237 707 384 951 175 289 407 516 620 605 140 57 347 75 423 36 46
-24 90 -81 109 -144 22 -70 24 -289 4 -402 -38 -219 -66 -309 -299 -930 -378
-1008 -560 -1586 -606 -1918 -92 -663 103 -1256 541 -1644 182 -162 502 -344
777 -443 257 -92 635 -175 944 -206 103 -11 121 -15 117 -28 -33 -110 -635
-2550 -635 -2573 0 -45 31 -91 73 -111 28 -14 67 -17 204 -17 149 0 172 2 200
20 18 10 39 29 47 42 8 13 157 592 331 1288 174 696 320 1281 325 1301 l10 36
197 6 c227 7 395 29 599 81 552 139 1080 420 1599 850 143 119 419 388 555
541 473 534 838 1157 1039 1778 67 207 215 812 280 1147 85 441 112 812 76
1083 -54 413 -263 702 -556 772 -481 113 -1050 -472 -905 -930 35 -109 70
-156 221 -299 159 -150 245 -261 320 -411 112 -226 150 -411 142 -685 -8 -239
-52 -439 -168 -748 -489 -1307 -1709 -2448 -2819 -2636 -174 -29 -450 -48
-450 -31 0 3 511 2048 1135 4545 624 2497 1135 4555 1135 4572 0 18 -9 48 -20
66 -33 54 -67 62 -257 62 -149 0 -172 -2 -200 -20z"/>
</g>
</svg>
