<?xml version="1.0" standalone="no"?>
<!DOCTYPE svg PUBLIC "-//W3C//DTD SVG 20010904//EN"
 "http://www.w3.org/TR/2001/REC-SVG-20010904/DTD/svg10.dtd">
<svg version="1.0" xmlns="http://www.w3.org/2000/svg"
 width="846.000000pt" height="1245.000000pt" viewBox="0 0 846.000000 1245.000000"
 preserveAspectRatio="xMidYMid meet">
<metadata>
Created by potrace 1.16, written by Peter Selinger 2001-2019
</metadata>
<g transform="translate(0.000000,1245.000000) scale(0.100000,-0.100000)"
fill="#000000" stroke="none">
<path d="M6054 12431 c-18 -11 -38 -29 -47 -41 -8 -12 -534 -2098 -1168 -4636
l-1154 -4614 -30 0 c-43 0 -304 54 -409 85 -423 123 -750 367 -914 682 -53
102 -104 257 -128 388 -28 152 -26 504 4 679 67 385 249 952 650 2017 180 480
202 566 202 808 0 208 -32 356 -115 527 -186 385 -595 625 -1063 624 -287 -1
-562 -98 -818 -288 -121 -89 -311 -282 -416 -422 -268 -356 -496 -843 -628
-1347 -25 -95 -19 -131 31 -179 30 -29 31 -29 167 -32 198 -4 206 2 260 208
17 63 56 188 86 276 230 668 553 1118 930 1295 140 65 314 93 430 69 196 -41
254 -296 165 -733 -31 -153 -80 -304 -226 -692 -406 -1082 -601 -1683 -665
-2055 -25 -150 -35 -439 -19 -580 45 -393 199 -739 441 -993 313 -329 781
-561 1374 -682 167 -34 453 -75 521 -75 18 0 40 -2 48 -6 12 -4 -46 -247 -304
-1277 -175 -700 -319 -1288 -319 -1307 0 -19 9 -49 19 -66 31 -51 73 -64 208
-64 127 0 164 12 197 62 8 13 157 592 331 1288 174 696 320 1281 325 1301 l10
36 223 6 c252 6 407 26 623 81 552 139 1080 420 1599 850 143 119 419 388 555
541 473 534 838 1157 1039 1778 46 142 166 614 235 928 176 797 190 1318 43
1665 -91 216 -250 364 -438 409 -132 31 -251 11 -409 -66 -94 -47 -116 -63
-211 -158 -87 -88 -113 -121 -151 -196 -58 -114 -81 -198 -81 -300 1 -89 25
-177 70 -248 14 -23 92 -107 173 -187 206 -203 304 -356 384 -600 54 -167 70
-278 69 -485 0 -202 -17 -318 -77 -535 -185 -672 -604 -1379 -1151 -1939 -709
-728 -1524 -1131 -2285 -1131 l-108 0 1149 4593 c632 2525 1149 4608 1149
4627 0 19 -9 50 -20 68 -31 50 -71 62 -207 62 -99 0 -123 -3 -149 -19z"/>
</g>
</svg>
