<?xml version="1.0" standalone="no"?>
<!DOCTYPE svg PUBLIC "-//W3C//DTD SVG 20010904//EN"
 "http://www.w3.org/TR/2001/REC-SVG-20010904/DTD/svg10.dtd">
<svg version="1.0" xmlns="http://www.w3.org/2000/svg"
 width="729.000000pt" height="1023.000000pt" viewBox="0 0 729.000000 1023.000000"
 preserveAspectRatio="xMidYMid meet">
<metadata>
Created by potrace 1.16, written by Peter Selinger 2001-2019
</metadata>
<g transform="translate(0.000000,1023.000000) scale(0.100000,-0.100000)"
fill="#000000" stroke="none">
<path d="M4070 10224 c-557 -50 -1074 -253 -1476 -579 -120 -98 -288 -267
-387 -390 -249 -309 -460 -739 -558 -1140 -63 -260 -25 -440 125 -591 117
-117 242 -164 438 -164 375 0 704 237 829 598 68 195 65 380 -8 532 -38 78
-151 189 -233 228 -79 37 -172 62 -234 62 -29 0 -46 4 -46 12 0 24 147 206
250 308 381 382 889 588 1451 590 917 2 1606 -598 1794 -1562 107 -548 81
-1128 -90 -1983 -46 -231 -162 -744 -170 -753 -1 -1 -19 46 -40 105 -53 155
-141 330 -236 474 -106 159 -315 373 -459 468 -255 169 -532 267 -855 302
-136 14 -472 6 -640 -15 -247 -33 -502 -96 -720 -181 -497 -192 -1012 -552
-1525 -1065 -593 -595 -930 -1200 -1145 -2056 -229 -916 -160 -1570 234 -2219
435 -717 977 -1081 1752 -1180 177 -23 514 -30 684 -16 687 60 1393 361 1997
853 153 125 404 372 555 547 682 792 1192 1804 1568 3112 275 953 366 1534
352 2239 -8 402 -44 692 -127 1028 -163 659 -442 1187 -845 1601 -440 451
-956 716 -1585 812 -131 20 -528 34 -650 23z m193 -3999 c283 -37 506 -143
692 -331 475 -477 586 -1411 290 -2434 -166 -573 -366 -1106 -548 -1465 -218
-428 -531 -784 -917 -1040 -437 -291 -865 -408 -1342 -366 -441 39 -713 170
-918 443 -74 98 -170 292 -205 412 -89 312 -69 739 61 1331 52 233 246 1009
309 1231 219 776 440 1200 819 1579 333 331 671 525 1058 605 236 49 497 62
701 35z"/>
</g>
</svg>
