<?xml version="1.0" standalone="no"?>
<!DOCTYPE svg PUBLIC "-//W3C//DTD SVG 20010904//EN"
 "http://www.w3.org/TR/2001/REC-SVG-20010904/DTD/svg10.dtd">
<svg version="1.0" xmlns="http://www.w3.org/2000/svg"
 width="663.000000pt" height="946.000000pt" viewBox="0 0 663.000000 946.000000"
 preserveAspectRatio="xMidYMid meet">
<metadata>
Created by potrace 1.16, written by Peter Selinger 2001-2019
</metadata>
<g transform="translate(0.000000,946.000000) scale(0.100000,-0.100000)"
fill="#000000" stroke="none">
<path d="M2370 9443 c-54 -28 -74 -70 -119 -247 -47 -188 -50 -234 -20 -283
43 -68 50 -70 479 -76 389 -6 549 -16 717 -42 104 -17 134 -28 152 -56 38 -62
75 94 -938 -3959 -721 -2882 -969 -3860 -992 -3907 -37 -77 -120 -155 -186
-177 -135 -44 -388 -65 -886 -73 -427 -7 -431 -7 -473 -70 -25 -38 -104 -344
-104 -404 0 -54 31 -104 81 -130 38 -19 49 -19 302 -10 144 6 596 16 1004 23
768 12 1797 3 2513 -23 304 -12 305 -12 346 10 57 31 75 69 124 268 47 191 47
221 3 274 -47 55 -68 59 -335 59 -550 1 -945 37 -994 91 -12 14 -19 40 -22 82
-3 56 97 465 958 3907 691 2765 968 3857 987 3891 56 103 123 158 225 185 145
37 553 64 987 64 338 0 328 -7 401 287 47 191 47 221 3 274 -50 58 -63 60
-360 49 -1069 -39 -2360 -37 -3633 5 -167 6 -188 5 -220 -12z"/>
</g>
</svg>
