<?xml version="1.0" standalone="no"?>
<!DOCTYPE svg PUBLIC "-//W3C//DTD SVG 20010904//EN"
 "http://www.w3.org/TR/2001/REC-SVG-20010904/DTD/svg10.dtd">
<svg version="1.0" xmlns="http://www.w3.org/2000/svg"
 width="729.000000pt" height="1023.000000pt" viewBox="0 0 729.000000 1023.000000"
 preserveAspectRatio="xMidYMid meet">
<metadata>
Created by potrace 1.16, written by Peter Selinger 2001-2019
</metadata>
<g transform="translate(0.000000,1023.000000) scale(0.100000,-0.100000)"
fill="#000000" stroke="none">
<path d="M4070 10224 c-374 -35 -703 -124 -1005 -273 -637 -314 -1104 -858
-1339 -1562 -110 -330 -119 -484 -41 -648 61 -126 161 -210 307 -256 104 -33
266 -35 383 -5 162 41 331 147 431 269 153 185 232 478 178 662 -66 224 -263
366 -514 372 l-79 1 20 35 c86 145 285 367 449 498 369 297 802 451 1320 469
531 19 986 -153 1340 -508 533 -532 732 -1367 599 -2508 -42 -359 -141 -877
-262 -1370 l-53 -215 -19 75 c-88 360 -263 685 -497 926 -144 148 -260 233
-439 323 -266 133 -526 191 -857 191 -817 0 -1504 -258 -2232 -838 -316 -252
-640 -569 -851 -833 -347 -434 -584 -911 -744 -1494 -126 -464 -173 -795 -162
-1145 17 -527 182 -972 537 -1448 103 -139 312 -359 430 -455 405 -327 926
-487 1584 -487 347 0 681 57 1028 176 338 116 701 304 1008 524 340 243 697
598 994 989 656 865 1124 1925 1480 3347 166 666 225 1136 213 1724 -8 402
-44 692 -127 1028 -163 659 -442 1187 -845 1601 -440 451 -956 716 -1585 812
-131 20 -530 34 -650 23z m290 -3959 c487 -88 840 -409 1019 -928 80 -233 111
-427 118 -747 11 -518 -69 -924 -324 -1650 -288 -821 -541 -1283 -914 -1675
-474 -496 -1079 -784 -1644 -785 -292 0 -579 57 -770 152 -330 166 -577 534
-656 976 -17 90 -21 160 -22 307 -1 356 44 616 244 1420 166 663 230 881 346
1175 182 460 402 795 734 1115 421 406 821 600 1349 655 126 13 409 5 520 -15z"/>
</g>
</svg>
