<?xml version="1.0" standalone="no"?>
<!DOCTYPE svg PUBLIC "-//W3C//DTD SVG 20010904//EN"
 "http://www.w3.org/TR/2001/REC-SVG-20010904/DTD/svg10.dtd">
<svg version="1.0" xmlns="http://www.w3.org/2000/svg"
 width="679.000000pt" height="976.000000pt" viewBox="0 0 679.000000 976.000000"
 preserveAspectRatio="xMidYMid meet">
<metadata>
Created by potrace 1.16, written by Peter Selinger 2001-2019
</metadata>
<g transform="translate(0.000000,976.000000) scale(0.100000,-0.100000)"
fill="#000000" stroke="none">
<path d="M5575 9683 c-1063 -80 -1028 -76 -1071 -140 -24 -36 -104 -343 -104
-400 0 -53 30 -104 76 -130 36 -21 52 -23 204 -23 297 0 564 -28 655 -69 74
-33 80 -47 79 -185 l-1 -121 -377 -1505 c-207 -828 -379 -1511 -381 -1518 -3
-7 -37 30 -79 85 -182 242 -426 422 -692 511 -317 106 -717 93 -1144 -38 -382
-118 -741 -314 -1119 -611 -122 -96 -462 -431 -573 -564 -445 -535 -761 -1152
-927 -1810 -75 -300 -109 -533 -118 -820 -16 -492 72 -918 268 -1305 117 -232
219 -371 399 -543 262 -252 602 -417 985 -478 107 -18 439 -18 535 -1 480 86
937 338 1382 761 l116 111 18 -52 c9 -29 32 -84 51 -123 177 -357 500 -594
937 -687 81 -17 137 -21 286 -22 215 -1 288 14 446 88 123 58 202 114 308 216
314 302 545 794 766 1630 57 219 57 240 0 295 l-31 30 -184 3 c-257 4 -254 6
-311 -210 -97 -368 -130 -486 -176 -628 -188 -575 -390 -861 -646 -911 -72
-13 -173 -7 -225 15 -88 36 -151 125 -189 264 -28 104 -30 363 -4 537 11 74
404 1665 1032 4178 558 2231 1014 4076 1014 4098 0 88 -73 150 -172 148 -29
-1 -494 -35 -1033 -76z m-1985 -3958 c194 -46 360 -153 496 -319 145 -176 253
-411 313 -681 l19 -84 -370 -1478 c-417 -1669 -357 -1479 -526 -1692 -300
-379 -602 -641 -931 -806 -276 -138 -576 -187 -796 -130 -294 77 -516 341
-595 711 -31 142 -39 482 -16 684 20 175 55 378 102 600 50 232 233 962 298
1187 208 717 437 1166 776 1517 272 282 580 460 875 506 81 12 275 4 355 -15z"/>
</g>
</svg>
