<?xml version="1.0" standalone="no"?>
<!DOCTYPE svg PUBLIC "-//W3C//DTD SVG 20010904//EN"
 "http://www.w3.org/TR/2001/REC-SVG-20010904/DTD/svg10.dtd">
<svg version="1.0" xmlns="http://www.w3.org/2000/svg"
 width="584.000000pt" height="658.000000pt" viewBox="0 0 584.000000 658.000000"
 preserveAspectRatio="xMidYMid meet">
<metadata>
Created by potrace 1.16, written by Peter Selinger 2001-2019
</metadata>
<g transform="translate(0.000000,658.000000) scale(0.100000,-0.100000)"
fill="#000000" stroke="none">
<path d="M2670 6574 c-533 -46 -864 -126 -1220 -297 -739 -354 -1210 -1052
-1374 -2037 -92 -552 -100 -1281 -20 -1830 131 -899 512 -1569 1114 -1959 453
-293 1063 -451 1745 -451 779 0 1452 203 1925 580 113 90 289 273 377 390 290
386 473 860 557 1440 64 439 72 1063 21 1540 -115 1052 -526 1803 -1215 2218
-342 207 -733 331 -1215 388 -122 14 -596 27 -695 18z m600 -529 c377 -58 659
-190 866 -406 169 -176 249 -363 309 -724 55 -337 75 -731 75 -1525 0 -1100
-41 -1628 -156 -2010 -163 -538 -715 -870 -1449 -870 -734 0 -1286 332 -1449
870 -115 382 -156 910 -156 2010 0 794 20 1188 75 1525 60 361 140 548 309
724 235 244 551 376 1021 425 88 9 454 -3 555 -19z"/>
</g>
</svg>
