<?xml version="1.0" standalone="no"?>
<!DOCTYPE svg PUBLIC "-//W3C//DTD SVG 20010904//EN"
 "http://www.w3.org/TR/2001/REC-SVG-20010904/DTD/svg10.dtd">
<svg version="1.0" xmlns="http://www.w3.org/2000/svg"
 width="428.000000pt" height="881.000000pt" viewBox="0 0 428.000000 881.000000"
 preserveAspectRatio="xMidYMid meet">
<metadata>
Created by potrace 1.16, written by Peter Selinger 2001-2019
</metadata>
<g transform="translate(0.000000,881.000000) scale(0.100000,-0.100000)"
fill="#000000" stroke="none">
<path d="M2706 8794 c-106 -26 -201 -79 -287 -161 -142 -135 -122 -76 -450
-1385 l-284 -1138 -753 0 c-821 0 -793 2 -843 -58 -27 -31 -89 -250 -89 -313
0 -45 36 -103 80 -128 37 -21 43 -21 754 -21 394 0 716 -4 716 -9 0 -4 -225
-910 -499 -2012 -274 -1102 -504 -2036 -510 -2076 -16 -105 -14 -345 4 -449
79 -454 380 -808 818 -963 168 -59 270 -75 487 -75 166 0 211 3 300 22 396 86
752 298 1091 650 331 343 623 807 829 1316 59 148 60 174 5 234 l-33 37 -139
3 c-200 4 -182 21 -308 -278 -180 -429 -432 -816 -715 -1100 -280 -281 -544
-427 -855 -471 -106 -15 -230 -6 -294 22 -98 42 -173 156 -207 314 -24 117
-22 369 4 550 15 99 173 747 539 2213 l518 2072 753 0 c821 0 793 -2 843 58
27 31 89 250 89 313 0 45 -36 103 -80 128 -37 21 -43 21 -754 21 -466 0 -716
3 -716 10 0 5 124 506 276 1112 275 1099 276 1103 272 1193 -5 107 -33 178
-99 250 -106 115 -287 162 -463 119z"/>
</g>
</svg>
