<?xml version="1.0" standalone="no"?>
<!DOCTYPE svg PUBLIC "-//W3C//DTD SVG 20010904//EN"
 "http://www.w3.org/TR/2001/REC-SVG-20010904/DTD/svg10.dtd">
<svg version="1.0" xmlns="http://www.w3.org/2000/svg"
 width="713.000000pt" height="952.000000pt" viewBox="0 0 713.000000 952.000000"
 preserveAspectRatio="xMidYMid meet">
<metadata>
Created by potrace 1.16, written by Peter Selinger 2001-2019
</metadata>
<g transform="translate(0.000000,952.000000) scale(0.100000,-0.100000)"
fill="#000000" stroke="none">
<path d="M5075 9513 c-145 -18 -331 -73 -470 -137 -501 -235 -964 -784 -1200
-1424 -63 -170 -130 -437 -150 -601 -24 -184 -17 -481 14 -635 159 -788 803
-1387 1951 -1814 74 -28 147 -53 161 -57 l27 -7 -98 -386 c-360 -1422 -651
-2193 -1128 -2997 -214 -360 -383 -589 -571 -775 -168 -167 -337 -274 -496
-315 -196 -51 -518 -13 -720 84 -284 138 -408 353 -447 777 -9 97 -9 164 0
283 26 343 48 443 382 1781 153 613 289 1162 301 1220 30 138 32 411 5 535
-80 364 -272 639 -560 804 -211 120 -466 180 -715 168 -489 -24 -841 -389
-1106 -1147 -53 -153 -151 -492 -215 -746 l-43 -171 19 -38 c31 -63 63 -79
158 -83 97 -5 146 12 174 58 11 16 38 108 62 203 148 595 283 971 435 1217 79
128 223 273 317 318 133 65 316 67 416 5 92 -57 150 -162 178 -327 22 -125 14
-404 -16 -576 -12 -69 -148 -629 -301 -1245 -374 -1498 -383 -1543 -384 -1960
0 -232 2 -272 23 -373 120 -595 483 -943 1132 -1086 203 -45 353 -59 625 -60
227 -1 260 1 353 22 566 127 1106 547 1671 1302 633 845 1121 1860 1441 3000
35 124 65 227 67 229 1 2 26 -1 55 -7 556 -116 579 -119 628 -74 42 37 77 166
60 218 -21 62 -54 79 -211 109 -168 31 -437 90 -443 96 -3 2 4 40 14 85 94
402 172 887 212 1309 18 189 18 955 0 1125 -63 605 -204 1111 -405 1453 -213
362 -503 574 -862 632 -81 14 -264 18 -340 8z m240 -344 c255 -47 408 -270
490 -714 47 -259 60 -431 60 -825 0 -457 -24 -729 -110 -1226 -55 -319 -191
-957 -255 -1194 l-10 -39 -53 18 c-222 77 -572 235 -772 350 -587 337 -929
750 -1025 1238 -80 404 7 894 241 1363 207 413 492 730 814 906 193 105 446
155 620 123z"/>
</g>
</svg>
