<?xml version="1.0" standalone="no"?>
<!DOCTYPE svg PUBLIC "-//W3C//DTD SVG 20010904//EN"
 "http://www.w3.org/TR/2001/REC-SVG-20010904/DTD/svg10.dtd">
<svg version="1.0" xmlns="http://www.w3.org/2000/svg"
 width="576.000000pt" height="954.000000pt" viewBox="0 0 576.000000 954.000000"
 preserveAspectRatio="xMidYMid meet">
<metadata>
Created by potrace 1.16, written by Peter Selinger 2001-2019
</metadata>
<g transform="translate(0.000000,954.000000) scale(0.100000,-0.100000)"
fill="#000000" stroke="none">
<path d="M3430 9534 c-790 -74 -1518 -450 -2114 -1092 -500 -539 -893 -1271
-1110 -2067 -141 -519 -206 -1041 -206 -1657 1 -1468 223 -2532 708 -3383 423
-743 1125 -1228 1910 -1320 147 -17 366 -19 537 -5 592 51 1069 264 1520 679
210 193 437 458 590 691 288 434 434 885 476 1465 13 176 7 605 -11 770 -66
626 -272 1120 -676 1623 -571 713 -1188 1032 -2001 1032 -597 0 -1108 -268
-1490 -782 -67 -90 -148 -219 -220 -352 l-55 -101 7 295 c18 906 97 1476 279
2007 226 658 622 1187 1113 1484 364 221 747 309 1159 268 369 -37 642 -155
843 -364 72 -74 71 -85 -9 -85 -64 0 -182 -35 -265 -78 -95 -49 -208 -163
-258 -258 -101 -196 -101 -452 0 -648 50 -95 163 -209 258 -258 108 -56 200
-78 330 -78 198 0 344 59 475 190 91 90 141 179 171 306 19 78 21 108 16 239
-9 241 -62 455 -162 655 -72 143 -141 237 -254 350 -239 237 -570 392 -976
455 -97 16 -488 28 -585 19z m-180 -3700 c311 -54 568 -214 775 -479 291 -373
391 -732 426 -1520 13 -308 6 -1364 -11 -1560 -46 -536 -137 -857 -321 -1133
-295 -442 -634 -635 -1159 -659 -225 -10 -421 28 -606 116 -422 202 -748 625
-879 1141 -82 322 -146 914 -162 1485 -28 1052 299 1961 856 2378 179 134 378
215 606 246 98 14 361 5 475 -15z"/>
</g>
</svg>
