<?xml version="1.0" standalone="no"?>
<!DOCTYPE svg PUBLIC "-//W3C//DTD SVG 20010904//EN"
 "http://www.w3.org/TR/2001/REC-SVG-20010904/DTD/svg10.dtd">
<svg version="1.0" xmlns="http://www.w3.org/2000/svg"
 width="692.000000pt" height="626.000000pt" viewBox="0 0 692.000000 626.000000"
 preserveAspectRatio="xMidYMid meet">
<metadata>
Created by potrace 1.16, written by Peter Selinger 2001-2019
</metadata>
<g transform="translate(0.000000,626.000000) scale(0.100000,-0.100000)"
fill="#000000" stroke="none">
<path d="M1825 6253 c-47 -10 -165 -54 -211 -80 -27 -15 -83 -61 -125 -102
-135 -135 -68 103 -821 -2907 l-669 -2679 3 -95 c3 -82 7 -104 35 -162 111
-235 417 -297 699 -141 27 15 83 61 125 102 132 132 104 41 506 1652 196 783
359 1428 363 1432 14 16 521 -25 790 -64 866 -124 1368 -408 1485 -838 22 -78
30 -269 16 -361 -6 -41 -25 -136 -41 -210 -74 -342 -63 -633 35 -927 64 -192
160 -349 299 -491 144 -148 295 -242 489 -307 144 -48 242 -66 393 -72 216
-10 370 23 558 120 231 118 443 330 622 622 197 322 372 764 504 1272 36 139
33 167 -21 219 -30 29 -31 29 -167 32 -209 5 -204 10 -292 -328 -162 -619
-356 -1050 -580 -1284 -131 -137 -239 -201 -391 -232 -167 -34 -312 -3 -398
86 -170 176 -183 618 -36 1242 97 411 85 673 -45 945 -54 114 -88 166 -161
250 -344 396 -1019 625 -2091 709 l-217 17 162 107 c269 177 457 322 944 728
522 434 767 623 1020 784 134 86 430 244 439 235 2 -2 -2 -30 -11 -63 -20 -78
-20 -244 1 -315 72 -245 285 -382 568 -366 130 7 197 26 323 87 328 162 527
573 428 887 -56 178 -173 285 -363 334 -144 37 -393 19 -645 -45 -172 -45
-298 -92 -482 -181 -347 -169 -679 -399 -1210 -839 -663 -550 -834 -685 -1069
-845 -222 -151 -447 -273 -634 -346 -48 -18 -88 -32 -90 -31 -1 2 108 446 243
987 l246 984 -3 95 c-3 82 -7 104 -35 162 -52 110 -140 179 -270 213 -53 14
-171 18 -218 8z"/>
</g>
</svg>
