<?xml version="1.0" standalone="no"?>
<!DOCTYPE svg PUBLIC "-//W3C//DTD SVG 20010904//EN"
 "http://www.w3.org/TR/2001/REC-SVG-20010904/DTD/svg10.dtd">
<svg version="1.0" xmlns="http://www.w3.org/2000/svg"
 width="543.000000pt" height="602.000000pt" viewBox="0 0 543.000000 602.000000"
 preserveAspectRatio="xMidYMid meet">
<metadata>
Created by potrace 1.16, written by Peter Selinger 2001-2019
</metadata>
<g transform="translate(0.000000,602.000000) scale(0.100000,-0.100000)"
fill="#000000" stroke="none">
<path d="M1257 6010 c-442 -80 -757 -440 -1002 -1140 -53 -153 -151 -492 -215
-746 l-43 -171 19 -38 c31 -63 63 -79 158 -83 97 -5 146 12 174 58 11 16 38
108 62 203 145 581 274 947 423 1197 82 139 230 291 329 338 134 65 316 67
416 5 93 -57 149 -160 178 -326 22 -126 14 -404 -16 -577 -12 -69 -255 -1060
-541 -2203 -561 -2244 -540 -2152 -504 -2273 58 -196 280 -297 512 -234 183
49 335 190 392 363 11 34 234 919 496 1966 l476 1904 61 111 c199 361 386 615
619 841 291 283 581 428 926 466 250 27 492 -24 641 -135 l34 -24 -49 -8 c-78
-11 -172 -43 -258 -87 -114 -59 -245 -191 -304 -305 -129 -251 -119 -504 27
-663 196 -214 578 -210 855 10 188 149 289 379 289 656 0 472 -353 825 -897
896 -110 14 -355 6 -476 -16 -208 -37 -425 -116 -611 -223 -250 -143 -523
-388 -730 -659 -34 -44 -60 -70 -62 -62 -2 8 -16 57 -30 109 -14 52 -51 145
-81 206 -162 330 -445 543 -830 626 -102 22 -360 32 -438 18z"/>
</g>
</svg>
