<?xml version="1.0" standalone="no"?>
<!DOCTYPE svg PUBLIC "-//W3C//DTD SVG 20010904//EN"
 "http://www.w3.org/TR/2001/REC-SVG-20010904/DTD/svg10.dtd">
<svg version="1.0" xmlns="http://www.w3.org/2000/svg"
 width="970.000000pt" height="977.000000pt" viewBox="0 0 970.000000 977.000000"
 preserveAspectRatio="xMidYMid meet">
<metadata>
Created by potrace 1.16, written by Peter Selinger 2001-2019
</metadata>
<g transform="translate(0.000000,977.000000) scale(0.100000,-0.100000)"
fill="#000000" stroke="none">
<path d="M300 9753 c-19 -10 -44 -33 -56 -51 -31 -46 -87 -281 -78 -328 8 -46
55 -100 97 -113 18 -5 183 -12 367 -15 184 -3 389 -10 455 -16 135 -13 289
-41 332 -62 39 -19 56 -74 50 -163 -4 -45 -250 -1049 -695 -2830 -380 -1518
-700 -2807 -711 -2865 -49 -248 -56 -332 -55 -640 0 -255 3 -314 22 -439 118
-753 498 -1363 1102 -1766 577 -385 1377 -545 2122 -424 1074 174 2150 920
2843 1969 230 348 430 765 555 1155 22 72 334 1300 691 2730 384 1535 662
2628 679 2668 67 161 214 342 349 431 247 163 527 236 977 254 258 10 260 12
314 234 35 146 34 182 -12 234 -45 51 -69 55 -283 44 -104 -5 -448 -15 -763
-22 -591 -12 -1333 -4 -1908 23 -229 11 -244 11 -280 -7 -21 -11 -49 -34 -61
-52 -30 -46 -86 -281 -77 -328 8 -46 55 -100 97 -112 18 -6 109 -13 202 -16
403 -13 641 -82 786 -226 49 -48 71 -80 87 -122 31 -82 44 -182 37 -263 -9
-94 -1290 -5217 -1354 -5415 -129 -400 -326 -794 -565 -1135 -179 -256 -454
-558 -687 -756 -542 -461 -1185 -739 -1844 -799 -902 -82 -1601 363 -1799
1145 -46 182 -60 319 -60 570 1 323 36 605 125 995 22 96 347 1404 723 2907
563 2252 690 2745 719 2807 39 83 112 168 167 196 122 62 500 100 1005 100
304 0 310 3 365 230 35 148 34 184 -12 236 -47 53 -66 55 -344 44 -997 -39
-2192 -37 -3414 5 -157 6 -179 5 -210 -12z"/>
</g>
</svg>
