<?xml version="1.0" standalone="no"?>
<!DOCTYPE svg PUBLIC "-//W3C//DTD SVG 20010904//EN"
 "http://www.w3.org/TR/2001/REC-SVG-20010904/DTD/svg10.dtd">
<svg version="1.0" xmlns="http://www.w3.org/2000/svg"
 width="541.000000pt" height="998.000000pt" viewBox="0 0 541.000000 998.000000"
 preserveAspectRatio="xMidYMid meet">
<metadata>
Created by potrace 1.16, written by Peter Selinger 2001-2019
</metadata>
<g transform="translate(0.000000,998.000000) scale(0.100000,-0.100000)"
fill="#000000" stroke="none">
<path d="M4403 9966 c-310 -59 -623 -257 -906 -574 -146 -162 -253 -303 -426
-562 -547 -819 -967 -1694 -1299 -2710 -280 -855 -485 -1736 -566 -2430 -37
-314 -46 -443 -53 -758 l-6 -283 -391 -378 c-215 -207 -468 -451 -562 -540
-95 -90 -177 -174 -183 -188 -22 -48 -13 -97 28 -159 96 -143 149 -179 226
-154 27 9 130 102 392 354 196 187 395 378 443 423 l88 83 12 -88 c100 -729
333 -1313 653 -1636 254 -257 566 -377 942 -362 178 6 294 29 490 93 440 146
958 505 1544 1069 127 123 133 131 138 175 6 54 0 67 -79 171 -77 102 -122
125 -193 98 -14 -6 -119 -97 -233 -204 -427 -400 -673 -597 -944 -757 -417
-248 -825 -307 -1062 -155 -234 151 -361 473 -433 1098 -25 213 -24 830 0
1068 10 91 20 194 24 230 l6 64 191 201 c1319 1385 2127 2504 2629 3640 395
896 597 1874 502 2440 -40 242 -114 403 -245 535 -85 85 -186 144 -310 180
-96 28 -310 36 -417 16z m253 -407 c362 -63 408 -594 142 -1644 -264 -1042
-852 -2107 -1814 -3286 -209 -256 -575 -676 -736 -844 l-67 -70 34 160 c115
553 453 1902 641 2563 267 938 481 1507 828 2202 214 427 392 683 569 816 137
103 245 131 403 103z"/>
</g>
</svg>
