<?xml version="1.0" standalone="no"?>
<!DOCTYPE svg PUBLIC "-//W3C//DTD SVG 20010904//EN"
 "http://www.w3.org/TR/2001/REC-SVG-20010904/DTD/svg10.dtd">
<svg version="1.0" xmlns="http://www.w3.org/2000/svg"
 width="773.000000pt" height="927.000000pt" viewBox="0 0 773.000000 927.000000"
 preserveAspectRatio="xMidYMid meet">
<metadata>
Created by potrace 1.16, written by Peter Selinger 2001-2019
</metadata>
<g transform="translate(0.000000,927.000000) scale(0.100000,-0.100000)"
fill="#000000" stroke="none">
<path d="M2353 9255 c-299 -54 -597 -237 -904 -552 -497 -513 -886 -1252
-1097 -2088 -134 -531 -178 -860 -169 -1269 4 -176 10 -261 27 -356 56 -320
162 -571 336 -803 l52 -70 -30 -81 c-259 -697 -462 -1515 -544 -2196 -21 -181
-30 -624 -15 -771 65 -633 359 -990 870 -1059 319 -44 653 59 981 301 120 88
349 322 456 464 337 450 540 1007 569 1560 18 342 -68 691 -228 924 -17 25
-279 363 -582 751 -303 388 -563 722 -579 742 l-28 38 75 143 c903 1724 2214
2885 3567 3157 229 46 385 63 600 64 156 1 210 -3 272 -17 219 -51 400 -178
525 -365 144 -215 201 -470 190 -846 -9 -303 -54 -570 -188 -1109 -185 -744
-323 -1118 -548 -1482 -376 -610 -978 -1000 -1501 -971 -124 7 -199 24 -295
70 -208 98 -346 307 -380 573 l-7 52 53 27 c187 94 301 340 245 526 -53 178
-258 270 -462 207 -192 -59 -302 -185 -353 -404 -107 -463 8 -922 304 -1220
274 -275 652 -386 1127 -330 865 101 1764 706 2348 1580 382 572 615 1213 671
1845 15 168 6 515 -16 660 -77 506 -300 955 -621 1248 -217 198 -488 343 -783
416 -175 44 -243 51 -501 50 -166 0 -291 -6 -390 -17 -1313 -157 -2584 -989
-3611 -2362 -210 -281 -432 -625 -634 -979 l-28 -49 -23 57 c-110 271 -111
681 -3 1206 144 695 346 1211 650 1660 250 369 473 557 686 577 68 6 113 28
139 67 17 28 83 275 84 316 0 35 -34 87 -72 110 -39 24 -123 25 -235 5z m-883
-6250 c326 -418 471 -610 495 -660 127 -263 72 -752 -130 -1170 -137 -283
-348 -520 -552 -618 -67 -32 -96 -40 -160 -44 -103 -7 -238 17 -317 56 -112
55 -208 178 -250 321 -68 228 -61 603 20 1079 64 376 224 1047 344 1444 51
168 66 205 76 195 7 -7 220 -278 474 -603z"/>
</g>
</svg>
