<?xml version="1.0" standalone="no"?>
<!DOCTYPE svg PUBLIC "-//W3C//DTD SVG 20010904//EN"
 "http://www.w3.org/TR/2001/REC-SVG-20010904/DTD/svg10.dtd">
<svg version="1.0" xmlns="http://www.w3.org/2000/svg"
 width="1018.000000pt" height="908.000000pt" viewBox="0 0 1018.000000 908.000000"
 preserveAspectRatio="xMidYMid meet">
<metadata>
Created by potrace 1.16, written by Peter Selinger 2001-2019
</metadata>
<g transform="translate(0.000000,908.000000) scale(0.100000,-0.100000)"
fill="#000000" stroke="none">
<path d="M2280 9061 c-19 -10 -43 -29 -53 -43 -20 -27 -66 -196 -67 -244 0
-38 34 -91 77 -120 30 -20 47 -21 365 -27 421 -8 650 -32 753 -79 36 -16 50
-62 49 -158 -2 -77 -91 -442 -936 -3821 -843 -3367 -939 -3744 -976 -3820 -72
-149 -137 -202 -293 -238 -168 -39 -463 -61 -830 -61 -207 0 -217 -1 -249 -22
-18 -13 -42 -35 -52 -49 -27 -36 -71 -215 -63 -256 7 -40 54 -96 93 -112 20
-9 665 -11 2537 -8 2758 3 2549 -1 2905 63 893 162 1803 627 2575 1316 997
891 1688 2070 1944 3318 177 866 136 1681 -124 2405 -65 182 -226 504 -332
665 -360 546 -854 931 -1463 1141 -230 80 -514 138 -769 158 -91 7 -942 11
-2596 11 -2375 0 -2462 -1 -2495 -19z m4788 -459 c592 -96 1064 -346 1389
-735 616 -739 680 -1808 212 -3572 -189 -713 -415 -1301 -678 -1760 -218 -380
-524 -770 -811 -1033 -664 -609 -1474 -973 -2315 -1042 -153 -12 -1983 -13
-2090 -1 -44 6 -98 16 -120 23 l-40 13 1 100 c2 97 29 208 948 3885 521 2082
958 3819 971 3860 34 102 85 190 125 218 43 29 115 50 210 61 41 5 523 8 1070
7 965 -2 999 -3 1128 -24z"/>
</g>
</svg>
