<?xml version="1.0" standalone="no"?>
<!DOCTYPE svg PUBLIC "-//W3C//DTD SVG 20010904//EN"
 "http://www.w3.org/TR/2001/REC-SVG-20010904/DTD/svg10.dtd">
<svg version="1.0" xmlns="http://www.w3.org/2000/svg"
 width="957.000000pt" height="1008.000000pt" viewBox="0 0 957.000000 1008.000000"
 preserveAspectRatio="xMidYMid meet">
<metadata>
Created by potrace 1.16, written by Peter Selinger 2001-2019
</metadata>
<g transform="translate(0.000000,1008.000000) scale(0.100000,-0.100000)"
fill="#000000" stroke="none">
<path d="M5740 10070 c-488 -40 -977 -154 -1444 -336 -1957 -762 -3569 -2599
-4110 -4684 -399 -1537 -126 -2995 741 -3955 495 -549 1193 -919 1963 -1044
237 -38 348 -46 650 -45 314 0 458 12 739 60 1599 270 3181 1363 4196 2899
1014 1535 1342 3344 865 4775 -436 1307 -1471 2151 -2840 2315 -158 19 -605
28 -760 15z m575 -429 c481 -81 887 -293 1210 -633 602 -633 841 -1617 699
-2873 -63 -554 -223 -1263 -419 -1850 -296 -887 -704 -1641 -1225 -2265 -124
-147 -415 -447 -552 -567 -621 -545 -1311 -888 -2003 -995 -187 -29 -562 -32
-730 -5 -549 86 -1001 331 -1341 730 -748 875 -854 2311 -310 4195 316 1093
773 1985 1394 2722 139 165 486 512 637 636 631 521 1318 842 1955 913 52 6
111 13 130 15 92 11 440 -4 555 -23z"/>
<path d="M2629 6038 c-20 -11 -46 -37 -57 -57 -10 -20 -117 -428 -237 -908
-168 -676 -216 -880 -211 -907 8 -44 50 -95 93 -112 20 -9 71 -14 134 -14 118
0 163 18 197 79 10 20 39 116 63 214 l43 177 1998 0 c1355 0 1998 -3 1998 -10
0 -6 -16 -75 -36 -155 -41 -161 -40 -194 3 -246 40 -47 79 -59 194 -59 118 0
163 18 196 79 11 20 118 428 238 908 168 676 216 880 211 907 -8 44 -50 95
-93 112 -20 9 -71 14 -134 14 -118 0 -163 -18 -197 -79 -10 -20 -39 -116 -63
-213 l-43 -178 -1998 0 c-1355 0 -1998 3 -1998 10 0 6 16 75 36 155 41 161 40
194 -3 246 -40 48 -78 59 -195 59 -86 0 -109 -4 -139 -22z"/>
</g>
</svg>
