<?xml version="1.0" standalone="no"?>
<!DOCTYPE svg PUBLIC "-//W3C//DTD SVG 20010904//EN"
 "http://www.w3.org/TR/2001/REC-SVG-20010904/DTD/svg10.dtd">
<svg version="1.0" xmlns="http://www.w3.org/2000/svg"
 width="573.000000pt" height="1198.000000pt" viewBox="0 0 573.000000 1198.000000"
 preserveAspectRatio="xMidYMid meet">
<metadata>
Created by potrace 1.16, written by Peter Selinger 2001-2019
</metadata>
<g transform="translate(0.000000,1198.000000) scale(0.100000,-0.100000)"
fill="#000000" stroke="none">
<path d="M4977 11964 c-313 -67 -589 -315 -685 -614 -44 -136 -51 -230 -27
-345 61 -288 309 -470 614 -452 429 26 810 397 837 817 26 397 -328 682 -739
594z"/>
<path d="M3690 8944 c-607 -74 -1195 -490 -1656 -1174 -172 -254 -317 -526
-433 -814 -60 -148 -61 -174 -6 -234 l33 -37 189 -3 c183 -3 189 -3 223 20 25
17 43 43 64 93 187 439 293 632 495 903 117 158 358 400 491 495 235 166 518
261 735 244 97 -7 146 -30 203 -92 123 -135 152 -403 86 -800 -20 -119 -1356
-5468 -1401 -5609 -222 -693 -719 -1261 -1218 -1391 -135 -35 -324 -43 -443
-19 l-33 7 68 45 c234 156 386 441 385 722 0 125 -22 206 -80 296 -147 226
-452 311 -762 212 -235 -75 -423 -236 -530 -453 -76 -155 -95 -238 -95 -430 0
-155 1 -163 33 -255 44 -128 100 -219 191 -314 130 -134 267 -218 461 -280
185 -60 260 -71 500 -71 237 1 354 14 570 66 415 99 814 293 1170 570 120 93
328 295 432 419 207 248 372 542 467 833 62 191 1377 5464 1391 5580 17 136 8
377 -19 483 -128 514 -486 850 -1026 964 -97 21 -393 35 -485 24z"/>
</g>
</svg>
