<?xml version="1.0" standalone="no"?>
<!DOCTYPE svg PUBLIC "-//W3C//DTD SVG 20010904//EN"
 "http://www.w3.org/TR/2001/REC-SVG-20010904/DTD/svg10.dtd">
<svg version="1.0" xmlns="http://www.w3.org/2000/svg"
 width="1183.000000pt" height="946.000000pt" viewBox="0 0 1183.000000 946.000000"
 preserveAspectRatio="xMidYMid meet">
<metadata>
Created by potrace 1.16, written by Peter Selinger 2001-2019
</metadata>
<g transform="translate(0.000000,946.000000) scale(0.100000,-0.100000)"
fill="#000000" stroke="none">
<path d="M2367 9440 c-53 -29 -68 -59 -106 -218 l-34 -139 24 -49 c45 -91 34
-88 417 -95 461 -9 724 -35 819 -81 39 -19 56 -74 50 -163 -4 -45 -344 -1426
-971 -3935 -879 -3515 -970 -3873 -1008 -3949 -44 -91 -109 -165 -169 -193
-128 -61 -507 -98 -997 -98 -234 0 -259 -5 -303 -58 -27 -31 -89 -250 -89
-312 0 -48 33 -103 78 -128 40 -22 41 -22 284 -13 134 6 561 16 951 23 729 12
1703 3 2356 -23 307 -12 331 -10 378 45 23 26 37 61 61 159 18 70 32 140 32
157 0 48 -33 103 -78 128 -38 21 -50 22 -258 22 -384 0 -743 27 -871 65 -77
23 -88 41 -91 149 -2 90 1 106 326 1401 l328 1310 984 767 c542 422 990 767
995 767 6 0 390 -896 854 -1991 l845 -1991 0 -81 c0 -105 -23 -154 -108 -234
-117 -109 -260 -149 -571 -159 -264 -8 -269 -12 -324 -241 l-34 -139 24 -49
c13 -26 37 -57 52 -68 33 -24 42 -24 632 -6 917 27 1835 23 2521 -11 231 -12
231 -12 271 11 53 29 71 62 104 194 35 135 36 187 8 233 -37 60 -79 73 -232
73 -319 0 -556 39 -676 112 -90 55 -185 157 -249 269 -21 37 -1738 4065 -2078
4875 -6 13 2801 2198 2858 2226 21 10 91 58 155 107 428 321 850 551 1258 686
261 86 474 127 746 143 196 12 207 21 259 233 36 145 35 180 -7 230 -45 54
-74 60 -220 49 -508 -38 -1337 -38 -2380 1 l-311 11 -39 -22 c-22 -12 -48 -36
-58 -52 -23 -40 -74 -241 -75 -293 0 -92 70 -154 175 -155 94 -1 213 -26 281
-60 116 -57 160 -144 130 -261 -25 -96 -78 -172 -210 -304 -104 -104 -480
-400 -2766 -2176 -1455 -1131 -2646 -2053 -2648 -2049 -1 4 249 1013 556 2243
608 2429 581 2333 679 2438 54 58 94 81 179 103 151 39 519 66 907 66 199 0
221 2 258 20 22 12 48 34 57 49 10 16 33 92 51 169 l34 139 -24 49 c-13 26
-37 57 -52 68 -35 26 -34 26 -642 6 -558 -18 -2051 -19 -2580 -2 -198 7 -432
14 -520 17 -149 5 -163 4 -198 -15z"/>
</g>
</svg>
