<?xml version="1.0" standalone="no"?>
<!DOCTYPE svg PUBLIC "-//W3C//DTD SVG 20010904//EN"
 "http://www.w3.org/TR/2001/REC-SVG-20010904/DTD/svg10.dtd">
<svg version="1.0" xmlns="http://www.w3.org/2000/svg"
 width="632.000000pt" height="976.000000pt" viewBox="0 0 632.000000 976.000000"
 preserveAspectRatio="xMidYMid meet">
<metadata>
Created by potrace 1.16, written by Peter Selinger 2001-2019
</metadata>
<g transform="translate(0.000000,976.000000) scale(0.100000,-0.100000)"
fill="#000000" stroke="none">
<path d="M2190 9684 c-1057 -80 -1035 -77 -1076 -139 -19 -30 -103 -355 -104
-403 0 -50 32 -104 78 -130 37 -20 52 -22 203 -22 295 0 562 -28 654 -69 74
-33 80 -47 79 -185 l-1 -121 -1013 -4045 -1012 -4045 4 -102 c4 -93 8 -109 42
-177 120 -244 428 -316 726 -170 77 38 110 62 176 128 144 145 116 53 509
1625 188 755 345 1374 346 1375 7 6 279 -43 382 -69 544 -136 908 -399 1021
-737 57 -170 56 -327 -4 -598 -121 -548 -1 -1051 333 -1396 187 -195 408 -313
701 -376 83 -18 134 -22 286 -22 169 0 193 2 285 27 128 35 315 127 425 210
399 302 730 899 955 1722 52 191 52 215 -5 270 l-31 30 -187 3 c-267 4 -251
19 -342 -328 -231 -882 -519 -1336 -900 -1416 -94 -20 -221 -13 -284 15 -235
103 -278 534 -121 1211 49 212 58 280 58 430 0 612 -391 1054 -1168 1317 -159
54 -434 123 -614 154 -128 22 -133 24 -110 39 49 31 271 213 376 307 59 54
296 283 525 509 567 560 773 742 1046 924 317 212 602 312 897 314 134 1 142
0 197 -27 50 -25 148 -115 148 -137 0 -4 -29 -10 -65 -14 -312 -32 -602 -245
-725 -533 -101 -239 -98 -474 8 -639 271 -418 1009 -296 1279 212 136 258 177
662 97 973 -32 124 -117 297 -188 383 -108 130 -254 223 -421 270 -116 32
-392 32 -545 -1 -258 -55 -524 -171 -777 -340 -289 -194 -485 -366 -1061 -935
-550 -543 -725 -698 -982 -872 -95 -65 -261 -162 -301 -176 -12 -5 150 659
692 2825 390 1558 709 2852 709 2876 0 89 -71 152 -172 150 -29 -1 -492 -34
-1028 -75z"/>
</g>
</svg>
