<?xml version="1.0" standalone="no"?>
<!DOCTYPE svg PUBLIC "-//W3C//DTD SVG 20010904//EN"
 "http://www.w3.org/TR/2001/REC-SVG-20010904/DTD/svg10.dtd">
<svg version="1.0" xmlns="http://www.w3.org/2000/svg"
 width="534.000000pt" height="632.000000pt" viewBox="0 0 534.000000 632.000000"
 preserveAspectRatio="xMidYMid meet">
<metadata>
Created by potrace 1.16, written by Peter Selinger 2001-2019
</metadata>
<g transform="translate(0.000000,632.000000) scale(0.100000,-0.100000)"
fill="#000000" stroke="none">
<path d="M3325 6309 c-760 -62 -1490 -335 -2000 -746 -132 -106 -314 -296
-397 -413 -177 -251 -260 -490 -260 -750 0 -151 22 -260 82 -402 65 -157 210
-343 358 -457 l69 -54 -107 -72 c-461 -308 -813 -736 -969 -1179 -72 -203
-101 -367 -101 -566 0 -455 206 -876 574 -1174 427 -345 996 -513 1671 -493
1013 31 1874 458 2297 1139 79 128 108 195 108 254 0 121 -117 196 -224 144
-38 -18 -53 -34 -83 -88 -66 -120 -131 -207 -225 -299 -303 -296 -776 -451
-1502 -493 -562 -32 -1053 11 -1390 121 -606 198 -920 631 -831 1145 87 495
513 1026 1065 1327 l65 36 146 -49 c164 -55 386 -103 560 -120 143 -15 831 -8
934 9 325 53 491 154 547 333 22 72 23 109 3 175 -30 101 -133 181 -285 222
-125 34 -194 41 -464 51 -280 10 -506 2 -691 -25 -158 -24 -430 -95 -590 -155
-75 -28 -144 -49 -152 -46 -8 3 -54 33 -103 67 -166 114 -301 281 -356 444
-51 152 -42 368 21 512 184 415 831 773 1635 903 298 48 776 73 992 51 360
-35 668 -155 976 -379 57 -41 126 -83 153 -93 170 -65 391 59 460 258 24 72
24 129 -1 195 -26 69 -39 82 -150 168 -317 242 -713 412 -1120 481 -144 24
-527 34 -715 18z m-194 -2749 c122 -12 204 -29 192 -41 -16 -16 -158 -47 -268
-58 -248 -25 -836 -8 -970 27 -56 15 244 69 450 82 143 8 461 3 596 -10z"/>
</g>
</svg>
