<?xml version="1.0" standalone="no"?>
<!DOCTYPE svg PUBLIC "-//W3C//DTD SVG 20010904//EN"
 "http://www.w3.org/TR/2001/REC-SVG-20010904/DTD/svg10.dtd">
<svg version="1.0" xmlns="http://www.w3.org/2000/svg"
 width="745.000000pt" height="1245.000000pt" viewBox="0 0 745.000000 1245.000000"
 preserveAspectRatio="xMidYMid meet">
<metadata>
Created by potrace 1.16, written by Peter Selinger 2001-2019
</metadata>
<g transform="translate(0.000000,1245.000000) scale(0.100000,-0.100000)"
fill="#000000" stroke="none">
<path d="M5140 12432 c-19 -11 -42 -34 -52 -53 -9 -19 -204 -783 -433 -1699
-229 -916 -420 -1682 -426 -1702 -10 -37 -11 -38 -57 -38 -59 0 -285 -25 -412
-46 -978 -156 -1927 -629 -2631 -1311 -606 -587 -992 -1286 -1106 -2007 -26
-160 -25 -609 1 -751 116 -639 424 -1144 930 -1524 436 -328 987 -528 1644
-597 41 -4 62 -10 59 -18 -2 -6 -147 -585 -322 -1286 l-319 -1276 20 -39 c10
-22 34 -50 53 -62 32 -22 44 -23 205 -23 191 0 225 9 258 65 9 17 159 599 333
1295 174 696 320 1282 326 1303 10 36 11 37 57 37 59 0 285 25 412 46 978 156
1927 629 2631 1311 644 623 1046 1386 1120 2127 15 157 7 509 -16 636 -112
630 -424 1140 -929 1519 -436 328 -987 528 -1644 596 -52 6 -62 10 -58 24 25
80 836 3346 836 3363 0 33 -35 85 -72 108 -30 18 -51 20 -203 20 -146 0 -175
-3 -205 -18z m-353 -4017 c610 -80 1081 -354 1339 -779 167 -275 245 -670 215
-1086 -65 -879 -426 -1767 -945 -2328 -465 -501 -1091 -842 -1776 -966 -74
-13 -166 -28 -204 -31 -64 -7 -68 -6 -62 11 3 11 296 1183 652 2607 356 1423
650 2587 655 2587 4 0 61 -7 126 -15z m-701 -12 c-3 -10 -296 -1181 -651
-2603 -355 -1421 -648 -2586 -650 -2588 -7 -7 -255 30 -363 54 -496 111 -884
370 -1108 738 -167 275 -245 670 -215 1086 65 879 426 1767 945 2328 466 502
1096 844 1781 966 232 42 269 44 261 19z"/>
</g>
</svg>
