<?xml version="1.0" standalone="no"?>
<!DOCTYPE svg PUBLIC "-//W3C//DTD SVG 20010904//EN"
 "http://www.w3.org/TR/2001/REC-SVG-20010904/DTD/svg10.dtd">
<svg version="1.0" xmlns="http://www.w3.org/2000/svg"
 width="742.000000pt" height="611.000000pt" viewBox="0 0 742.000000 611.000000"
 preserveAspectRatio="xMidYMid meet">
<metadata>
Created by potrace 1.16, written by Peter Selinger 2001-2019
</metadata>
<g transform="translate(0.000000,611.000000) scale(0.100000,-0.100000)"
fill="#000000" stroke="none">
<path d="M3350 6103 c-98 -8 -302 -45 -428 -78 -905 -238 -1760 -925 -2332
-1875 -35 -58 -105 -188 -156 -290 -211 -423 -350 -862 -410 -1291 -25 -174
-25 -568 -1 -734 38 -258 109 -493 216 -710 115 -234 229 -393 407 -566 157
-151 290 -244 497 -345 632 -308 1406 -282 2181 72 791 362 1489 1052 1891
1869 200 407 322 829 376 1300 17 141 17 560 0 690 -45 366 -166 735 -330
1013 l-31 52 851 0 c744 0 859 2 913 16 196 50 360 224 402 426 45 209 -63
391 -261 444 -41 11 -384 13 -1895 12 -1015 -1 -1865 -3 -1890 -5z m343 -918
c479 -86 779 -347 888 -773 73 -288 62 -683 -32 -1142 -206 -999 -519 -1688
-983 -2168 -687 -710 -1600 -898 -2164 -446 -245 196 -395 494 -442 878 -16
129 -13 418 5 586 54 488 228 1166 407 1590 373 881 1005 1397 1823 1490 111
12 392 4 498 -15z"/>
</g>
</svg>
