<?xml version="1.0" standalone="no"?>
<!DOCTYPE svg PUBLIC "-//W3C//DTD SVG 20010904//EN"
 "http://www.w3.org/TR/2001/REC-SVG-20010904/DTD/svg10.dtd">
<svg version="1.0" xmlns="http://www.w3.org/2000/svg"
 width="473.000000pt" height="611.000000pt" viewBox="0 0 473.000000 611.000000"
 preserveAspectRatio="xMidYMid meet">
<metadata>
Created by potrace 1.16, written by Peter Selinger 2001-2019
</metadata>
<g transform="translate(0.000000,611.000000) scale(0.100000,-0.100000)"
fill="#000000" stroke="none">
<path d="M3390 6099 c-531 -47 -1074 -215 -1555 -483 -721 -401 -1283 -995
-1577 -1666 -111 -253 -183 -522 -235 -875 -25 -175 -25 -692 0 -855 52 -331
128 -582 257 -845 122 -248 273 -461 464 -650 375 -373 858 -607 1441 -697
185 -28 600 -31 768 -5 466 72 906 246 1323 523 117 78 144 110 144 171 0 29
-77 269 -99 312 -18 33 -71 61 -117 61 -34 0 -58 -11 -140 -67 -388 -263 -754
-423 -1124 -490 -119 -21 -420 -24 -530 -4 -271 47 -468 131 -656 277 -271
210 -446 518 -514 904 -17 94 -24 180 -27 348 -7 311 16 541 93 934 l37 188
1256 2 1256 3 57 23 c127 51 219 179 226 314 7 118 -44 208 -143 254 l-50 24
-1217 0 c-710 0 -1218 4 -1218 9 0 44 129 379 202 525 213 424 508 725 908
926 202 101 381 159 625 202 108 19 172 22 660 27 l540 6 66 32 c79 39 140
102 177 181 34 72 38 196 8 252 -30 58 -86 109 -143 130 -51 19 -77 20 -561
19 -279 -1 -550 -5 -602 -10z"/>
</g>
</svg>
