<?xml version="1.0" standalone="no"?>
<!DOCTYPE svg PUBLIC "-//W3C//DTD SVG 20010904//EN"
 "http://www.w3.org/TR/2001/REC-SVG-20010904/DTD/svg10.dtd">
<svg version="1.0" xmlns="http://www.w3.org/2000/svg"
 width="577.000000pt" height="1008.000000pt" viewBox="0 0 577.000000 1008.000000"
 preserveAspectRatio="xMidYMid meet">
<metadata>
Created by potrace 1.16, written by Peter Selinger 2001-2019
</metadata>
<g transform="translate(0.000000,1008.000000) scale(0.100000,-0.100000)"
fill="#000000" stroke="none">
<path d="M3425 10056 c-337 -80 -562 -202 -780 -420 -237 -238 -372 -489 -420
-781 -20 -118 -19 -391 0 -542 65 -500 270 -1089 670 -1934 58 -122 104 -223
103 -224 -2 -1 -64 -21 -138 -44 -363 -115 -740 -302 -1061 -527 -356 -250
-726 -607 -983 -948 -445 -591 -723 -1265 -801 -1941 -19 -168 -19 -502 0
-667 106 -906 649 -1613 1451 -1891 397 -138 856 -174 1199 -95 308 71 635
239 905 466 520 435 976 1171 1215 1959 119 389 220 905 256 1303 16 174 16
591 0 745 -56 543 -230 1035 -529 1495 -104 161 -141 210 -456 605 -612 768
-904 1189 -1106 1600 -147 297 -197 473 -187 660 3 62 11 115 22 140 32 75
105 173 182 245 134 125 286 180 501 180 307 0 474 -77 832 -385 223 -191 344
-277 508 -359 125 -63 194 -79 307 -74 157 8 278 63 409 188 233 221 303 536
165 743 -70 107 -158 153 -402 212 -877 212 -1349 303 -1612 311 -133 3 -161
1 -250 -20z m-115 -4516 c259 -517 435 -994 514 -1390 124 -622 83 -1266 -129
-2000 -263 -910 -673 -1492 -1134 -1611 -207 -53 -508 -25 -747 71 -289 115
-527 350 -650 641 -75 177 -113 373 -121 629 -11 341 41 707 177 1250 218 869
500 1441 930 1884 288 297 620 512 975 632 55 18 103 34 107 34 5 0 39 -63 78
-140z"/>
</g>
</svg>
