<?xml version="1.0" standalone="no"?>
<!DOCTYPE svg PUBLIC "-//W3C//DTD SVG 20010904//EN"
 "http://www.w3.org/TR/2001/REC-SVG-20010904/DTD/svg10.dtd">
<svg version="1.0" xmlns="http://www.w3.org/2000/svg"
 width="363.000000pt" height="602.000000pt" viewBox="0 0 363.000000 602.000000"
 preserveAspectRatio="xMidYMid meet">
<metadata>
Created by potrace 1.16, written by Peter Selinger 2001-2019
</metadata>
<g transform="translate(0.000000,602.000000) scale(0.100000,-0.100000)"
fill="#000000" stroke="none">
<path d="M1668 5997 c-178 -54 -322 -192 -377 -360 -11 -34 -74 -276 -140
-537 -360 -1428 -669 -2457 -1021 -3399 -142 -382 -166 -643 -84 -930 98 -344
345 -601 682 -710 146 -47 211 -56 417 -55 217 0 364 21 570 80 876 252 1627
996 1875 1859 37 125 33 164 -20 209 -37 31 -79 39 -170 34 -114 -6 -120 -14
-195 -248 -76 -238 -244 -538 -419 -749 -399 -478 -930 -781 -1478 -840 -259
-29 -358 3 -419 133 -42 91 -56 214 -41 370 23 247 72 422 252 911 317 862
607 1835 977 3280 137 537 150 612 120 716 -22 76 -68 141 -130 183 -74 50
-129 67 -232 72 -74 3 -104 0 -167 -19z"/>
</g>
</svg>
