<?xml version="1.0" standalone="no"?>
<!DOCTYPE svg PUBLIC "-//W3C//DTD SVG 20010904//EN"
 "http://www.w3.org/TR/2001/REC-SVG-20010904/DTD/svg10.dtd">
<svg version="1.0" xmlns="http://www.w3.org/2000/svg"
 width="701.000000pt" height="976.000000pt" viewBox="0 0 701.000000 976.000000"
 preserveAspectRatio="xMidYMid meet">
<metadata>
Created by potrace 1.16, written by Peter Selinger 2001-2019
</metadata>
<g transform="translate(0.000000,976.000000) scale(0.100000,-0.100000)"
fill="#000000" stroke="none">
<path d="M2185 9683 c-1063 -80 -1028 -76 -1071 -140 -24 -36 -104 -343 -104
-400 0 -53 30 -104 76 -130 36 -21 52 -23 204 -23 297 0 564 -28 655 -69 74
-33 80 -47 79 -185 l-1 -121 -1013 -4045 -1012 -4045 4 -102 c4 -93 8 -109 42
-177 120 -244 428 -316 726 -170 77 38 110 62 176 128 147 147 101 -5 625
2092 448 1792 461 1841 506 1924 111 205 254 425 397 610 103 132 322 359 440
454 332 269 684 416 1095 456 313 30 471 -10 623 -161 91 -89 134 -170 172
-319 78 -307 51 -670 -90 -1235 -147 -584 -362 -1242 -706 -2155 -149 -398
-175 -517 -165 -765 20 -481 305 -864 763 -1028 149 -53 264 -71 454 -72 187
0 262 11 417 60 112 36 303 134 413 212 127 90 373 336 483 485 251 336 451
752 582 1208 53 185 52 210 -5 265 l-31 30 -184 3 c-154 3 -189 1 -215 -13
-38 -20 -65 -63 -81 -129 -24 -103 -102 -345 -156 -481 -228 -578 -549 -971
-889 -1089 -136 -48 -313 -58 -383 -22 -45 24 -89 82 -108 144 -27 86 -24 302
6 452 41 208 60 268 244 760 389 1042 662 1920 742 2394 162 956 -158 1618
-904 1866 -244 82 -509 117 -805 107 -384 -13 -694 -91 -1031 -261 -266 -135
-465 -277 -686 -494 l-127 -123 524 2093 c288 1151 524 2113 524 2137 0 89
-71 152 -172 150 -29 -1 -494 -35 -1033 -76z"/>
</g>
</svg>
