<?xml version="1.0" standalone="no"?>
<!DOCTYPE svg PUBLIC "-//W3C//DTD SVG 20010904//EN"
 "http://www.w3.org/TR/2001/REC-SVG-20010904/DTD/svg10.dtd">
<svg version="1.0" xmlns="http://www.w3.org/2000/svg"
 width="918.000000pt" height="968.000000pt" viewBox="0 0 918.000000 968.000000"
 preserveAspectRatio="xMidYMid meet">
<metadata>
Created by potrace 1.16, written by Peter Selinger 2001-2019
</metadata>
<g transform="translate(0.000000,968.000000) scale(0.100000,-0.100000)"
fill="#000000" stroke="none">
<path d="M5495 9669 c-1490 -126 -2992 -997 -4077 -2362 -1100 -1386 -1609
-3111 -1342 -4554 248 -1347 1137 -2325 2399 -2642 327 -82 532 -105 915 -105
370 0 600 25 960 105 513 114 1086 343 1575 629 1483 869 2629 2361 3059 3980
117 442 174 841 183 1280 6 295 -4 483 -38 730 -195 1401 -1050 2440 -2313
2809 -166 49 -343 85 -541 112 -175 23 -604 33 -780 18z m585 -357 c838 -143
1448 -699 1734 -1577 245 -754 229 -1705 -48 -2847 -231 -956 -565 -1755
-1021 -2443 -754 -1139 -1810 -1890 -2890 -2057 -189 -29 -544 -31 -715 -5
-824 128 -1447 657 -1744 1479 -274 758 -269 1708 15 2878 267 1102 688 2041
1252 2792 318 423 767 865 1147 1130 548 381 1089 600 1640 664 161 18 480 11
630 -14z"/>
<path d="M2501 5791 c-18 -5 -49 -25 -68 -44 -34 -34 -37 -43 -239 -848 -112
-448 -204 -830 -204 -850 0 -40 30 -91 70 -120 33 -24 124 -34 178 -20 86 24
100 46 152 252 l47 184 2035 3 2036 2 -34 -132 c-40 -158 -42 -194 -11 -238
33 -49 66 -69 127 -76 72 -8 136 10 175 49 30 31 41 68 240 865 l208 834 -19
46 c-33 78 -107 112 -217 97 -43 -6 -59 -14 -92 -49 -39 -39 -42 -49 -84 -218
l-43 -178 -2035 0 c-1933 0 -2035 1 -2031 18 3 9 20 78 38 153 l34 136 -25 49
c-14 29 -37 56 -57 67 -36 21 -130 30 -181 18z"/>
</g>
</svg>
