<?xml version="1.0" standalone="no"?>
<!DOCTYPE svg PUBLIC "-//W3C//DTD SVG 20010904//EN"
 "http://www.w3.org/TR/2001/REC-SVG-20010904/DTD/svg10.dtd">
<svg version="1.0" xmlns="http://www.w3.org/2000/svg"
 width="1320.000000pt" height="938.000000pt" viewBox="0 0 1320.000000 938.000000"
 preserveAspectRatio="xMidYMid meet">
<metadata>
Created by potrace 1.16, written by Peter Selinger 2001-2019
</metadata>
<g transform="translate(0.000000,938.000000) scale(0.100000,-0.100000)"
fill="#000000" stroke="none">
<path d="M115 9362 c-51 -33 -67 -59 -92 -150 -30 -112 -30 -169 0 -213 40
-60 72 -69 247 -69 189 0 409 -16 509 -36 145 -30 182 -57 221 -161 19 -52 49
-441 334 -4339 283 -3876 315 -4285 332 -4315 11 -20 39 -44 64 -57 39 -20 56
-23 135 -20 77 3 98 8 144 33 29 16 67 46 85 67 17 20 915 1581 1996 3468
1882 3286 1965 3429 1968 3388 2 -24 115 -1574 252 -3446 240 -3282 249 -3403
271 -3438 32 -52 85 -74 184 -74 68 0 89 4 140 29 33 16 74 44 91 62 18 19
1047 1807 2289 3974 1241 2167 2265 3949 2275 3960 10 11 43 59 73 107 321
510 729 762 1293 796 183 11 203 27 244 194 34 136 18 199 -61 240 -33 17 -48
17 -175 8 -76 -5 -303 -15 -504 -21 -381 -12 -1138 -2 -1684 22 -283 13 -294
11 -344 -46 -21 -23 -36 -60 -56 -139 -30 -123 -26 -163 21 -208 43 -40 67
-48 138 -48 276 0 537 -81 679 -211 139 -127 167 -294 82 -487 -18 -42 -38
-87 -42 -99 -5 -12 -821 -1439 -1814 -3171 -1361 -2375 -1806 -3144 -1808
-3124 -1 15 -112 1534 -247 3377 l-244 3349 24 53 c93 205 437 313 990 313
205 0 227 15 271 186 30 116 28 156 -13 204 -51 61 -56 62 -335 50 -139 -5
-545 -15 -903 -21 -665 -12 -1291 -4 -1837 22 -260 13 -273 11 -323 -41 -19
-20 -33 -55 -51 -121 -29 -114 -30 -164 -4 -206 39 -65 48 -67 330 -75 377
-10 535 -38 600 -107 63 -66 68 -94 112 -682 l39 -536 -1657 -2893 c-912
-1591 -1659 -2889 -1661 -2884 -1 5 -113 1520 -248 3368 -198 2709 -243 3366
-234 3395 28 93 121 179 250 230 180 71 355 100 664 108 311 7 313 9 360 193
30 117 28 153 -12 200 -51 61 -56 62 -340 50 -485 -18 -1438 -32 -1828 -25
-351 5 -592 13 -1020 31 -127 5 -143 4 -170 -14z"/>
</g>
</svg>
