<?xml version="1.0" standalone="no"?>
<!DOCTYPE svg PUBLIC "-//W3C//DTD SVG 20010904//EN"
 "http://www.w3.org/TR/2001/REC-SVG-20010904/DTD/svg10.dtd">
<svg version="1.0" xmlns="http://www.w3.org/2000/svg"
 width="590.000000pt" height="264.000000pt" viewBox="0 0 590.000000 264.000000"
 preserveAspectRatio="xMidYMid meet">
<metadata>
Created by potrace 1.16, written by Peter Selinger 2001-2019
</metadata>
<g transform="translate(0.000000,264.000000) scale(0.100000,-0.100000)"
fill="#000000" stroke="none">
<path d="M4776 2620 c-63 -25 -119 -79 -147 -144 -33 -78 -24 -174 36 -351 54
-163 119 -302 203 -435 l60 -95 -2366 -5 -2367 -5 -40 -22 c-54 -28 -119 -100
-136 -149 -17 -50 -17 -138 0 -188 17 -49 82 -121 136 -149 l40 -22 2252 -3
2252 -2 -188 -188 c-187 -187 -346 -373 -398 -467 -24 -42 -28 -61 -28 -125 0
-87 19 -134 75 -190 56 -56 103 -75 190 -75 122 0 154 22 301 210 265 337 605
616 998 817 150 76 170 92 209 158 24 39 27 56 27 131 0 78 -3 90 -30 135 -17
27 -48 61 -70 77 -250 177 -330 252 -442 419 -78 117 -140 251 -177 384 -39
136 -55 172 -99 221 -70 77 -190 102 -291 63z"/>
</g>
</svg>
