<?xml version="1.0" standalone="no"?>
<!DOCTYPE svg PUBLIC "-//W3C//DTD SVG 20010904//EN"
 "http://www.w3.org/TR/2001/REC-SVG-20010904/DTD/svg10.dtd">
<svg version="1.0" xmlns="http://www.w3.org/2000/svg"
 width="619.000000pt" height="860.000000pt" viewBox="0 0 619.000000 860.000000"
 preserveAspectRatio="xMidYMid meet">
<metadata>
Created by potrace 1.16, written by Peter Selinger 2001-2019
</metadata>
<g transform="translate(0.000000,860.000000) scale(0.100000,-0.100000)"
fill="#000000" stroke="none">
<path d="M1605 8590 c-306 -48 -634 -244 -872 -522 -315 -367 -569 -882 -714
-1449 -22 -85 -22 -86 -3 -124 31 -63 63 -79 158 -83 143 -6 177 21 216 177
58 234 184 568 296 788 227 447 506 736 809 840 165 56 346 54 429 -4 128 -90
158 -353 81 -712 -36 -170 -70 -271 -260 -781 -314 -841 -456 -1269 -555
-1664 -98 -389 -124 -602 -117 -943 4 -206 8 -254 31 -359 100 -468 336 -788
727 -985 258 -129 613 -198 954 -186 427 16 799 176 1173 505 l60 52 -73 -287
c-86 -337 -114 -430 -202 -653 -352 -897 -929 -1561 -1546 -1779 -462 -163
-1021 -68 -1309 221 -55 55 -138 165 -138 182 0 3 33 6 73 6 261 0 535 170
654 405 148 290 104 582 -108 724 -94 63 -180 86 -319 86 -134 0 -215 -21
-345 -88 -113 -59 -245 -191 -303 -303 -76 -149 -119 -368 -109 -554 37 -648
626 -1101 1429 -1100 609 1 1260 251 1823 700 158 125 469 436 584 581 294
375 494 734 632 1137 34 99 271 1030 731 2867 561 2241 681 2732 682 2790 2
174 -93 303 -262 355 -230 71 -519 -65 -628 -294 -30 -64 -126 -433 -552
-2139 l-516 -2062 -44 -70 c-183 -287 -425 -547 -647 -697 -250 -168 -478
-241 -760 -242 -173 0 -248 14 -361 70 -251 124 -392 368 -434 752 -16 140 -8
460 15 622 77 551 237 1090 666 2238 168 452 208 578 228 725 50 367 -71 737
-318 970 -149 141 -314 225 -533 273 -86 19 -336 27 -423 14z"/>
</g>
</svg>
