<?xml version="1.0" standalone="no"?>
<!DOCTYPE svg PUBLIC "-//W3C//DTD SVG 20010904//EN"
 "http://www.w3.org/TR/2001/REC-SVG-20010904/DTD/svg10.dtd">
<svg version="1.0" xmlns="http://www.w3.org/2000/svg"
 width="1014.000000pt" height="946.000000pt" viewBox="0 0 1014.000000 946.000000"
 preserveAspectRatio="xMidYMid meet">
<metadata>
Created by potrace 1.16, written by Peter Selinger 2001-2019
</metadata>
<g transform="translate(0.000000,946.000000) scale(0.100000,-0.100000)"
fill="#000000" stroke="none">
<path d="M160 9443 c-19 -10 -44 -32 -56 -50 -24 -36 -104 -343 -104 -400 0
-53 30 -104 76 -130 37 -22 50 -23 254 -23 231 0 512 -14 650 -31 183 -23 286
-66 346 -145 19 -25 284 -761 884 -2457 l856 -2422 -352 -1405 c-193 -773
-361 -1430 -373 -1461 -48 -125 -126 -204 -231 -233 -139 -39 -528 -66 -945
-66 -256 0 -280 -5 -321 -67 -24 -36 -104 -343 -104 -400 0 -54 30 -104 77
-131 l41 -22 278 10 c1038 38 2230 38 3311 -1 l321 -11 40 22 c22 12 49 39 59
59 11 20 39 114 63 208 47 191 47 221 3 274 -46 55 -69 59 -320 59 -358 0
-733 23 -848 51 -106 26 -121 48 -112 162 6 78 706 2902 731 2948 17 33 3544
4171 3595 4218 20 18 101 98 181 176 444 435 931 635 1613 661 245 10 248 13
317 291 47 194 47 222 -1 278 -45 51 -72 56 -244 45 -82 -5 -362 -15 -622 -22
-491 -12 -1305 -3 -1878 23 -248 12 -249 12 -291 -10 -57 -31 -75 -69 -124
-268 -47 -194 -47 -222 1 -278 38 -43 68 -52 199 -59 184 -11 293 -43 375
-111 55 -45 75 -88 75 -164 0 -95 -41 -181 -183 -386 -40 -57 -3067 -3596
-3074 -3594 -9 3 -1433 4025 -1433 4048 0 7 9 29 21 47 26 42 96 77 219 108
137 34 246 46 495 53 239 6 276 14 311 68 20 30 103 356 104 404 0 47 -36 105
-81 130 -37 21 -41 21 -311 12 -874 -32 -2158 -37 -2868 -11 -140 5 -329 12
-420 15 -148 6 -169 4 -200 -12z"/>
</g>
</svg>
