<?xml version="1.0" standalone="no"?>
<!DOCTYPE svg PUBLIC "-//W3C//DTD SVG 20010904//EN"
 "http://www.w3.org/TR/2001/REC-SVG-20010904/DTD/svg10.dtd">
<svg version="1.0" xmlns="http://www.w3.org/2000/svg"
 width="1125.000000pt" height="908.000000pt" viewBox="0 0 1125.000000 908.000000"
 preserveAspectRatio="xMidYMid meet">
<metadata>
Created by potrace 1.16, written by Peter Selinger 2001-2019
</metadata>
<g transform="translate(0.000000,908.000000) scale(0.100000,-0.100000)"
fill="#000000" stroke="none">
<path d="M2280 9061 c-19 -10 -43 -29 -53 -43 -20 -27 -66 -196 -67 -244 0
-38 34 -91 77 -120 30 -20 47 -21 390 -27 197 -3 412 -11 478 -17 211 -18 355
-43 355 -61 0 -5 -412 -1656 -915 -3669 -736 -2944 -922 -3677 -953 -3749
-110 -254 -307 -444 -575 -551 -209 -84 -478 -130 -763 -130 -88 0 -105 -3
-134 -22 -52 -36 -69 -67 -96 -173 -29 -112 -26 -149 13 -195 50 -60 62 -62
280 -51 107 6 430 16 717 22 535 12 1193 3 1743 -22 232 -11 243 -11 279 8 54
28 72 57 99 164 31 117 31 147 2 190 -46 68 -67 75 -254 82 -92 4 -205 11
-250 17 -204 26 -388 96 -490 185 -105 92 -157 261 -134 437 6 46 410 1682
898 3635 l888 3553 27 -53 c14 -29 794 -1873 1733 -4098 938 -2224 1714 -4055
1724 -4069 31 -45 77 -60 177 -60 98 0 135 15 175 70 12 16 384 1489 989 3907
781 3128 977 3900 1008 3972 110 254 307 444 575 551 209 84 478 130 763 130
88 0 105 3 134 23 52 35 69 66 96 172 29 112 26 149 -13 195 -50 60 -62 62
-280 51 -107 -6 -430 -16 -717 -22 -535 -12 -1193 -3 -1743 22 -232 11 -243
11 -279 -8 -54 -28 -72 -57 -99 -164 -31 -117 -31 -147 -2 -190 46 -68 67 -75
254 -82 92 -4 205 -11 250 -17 204 -26 388 -96 490 -185 105 -92 157 -261 134
-437 -13 -102 -1493 -6030 -1503 -6020 -4 4 -673 1586 -1488 3517 -814 1931
-1489 3521 -1498 3535 -10 14 -34 33 -53 42 -32 17 -109 18 -1194 18 -1110 0
-1162 -1 -1195 -19z"/>
</g>
</svg>
