<?xml version="1.0" standalone="no"?>
<!DOCTYPE svg PUBLIC "-//W3C//DTD SVG 20010904//EN"
 "http://www.w3.org/TR/2001/REC-SVG-20010904/DTD/svg10.dtd">
<svg version="1.0" xmlns="http://www.w3.org/2000/svg"
 width="811.000000pt" height="770.000000pt" viewBox="0 0 811.000000 770.000000"
 preserveAspectRatio="xMidYMid meet">
<metadata>
Created by potrace 1.16, written by Peter Selinger 2001-2019
</metadata>
<g transform="translate(0.000000,770.000000) scale(0.100000,-0.100000)"
fill="#000000" stroke="none">
<path d="M7735 7681 c-65 -24 -7568 -3579 -7618 -3609 -50 -32 -96 -100 -110
-167 -22 -105 22 -217 107 -274 23 -15 1749 -836 3837 -1824 2964 -1403 3808
-1799 3847 -1804 139 -16 266 75 295 212 23 112 -28 229 -124 284 -27 15
-1626 774 -3554 1687 -1927 912 -3505 1661 -3505 1664 0 3 1578 752 3505 1664
1928 913 3527 1672 3554 1687 96 55 147 172 124 284 -35 163 -200 254 -358
196z"/>
</g>
</svg>
