<?xml version="1.0" standalone="no"?>
<!DOCTYPE svg PUBLIC "-//W3C//DTD SVG 20010904//EN"
 "http://www.w3.org/TR/2001/REC-SVG-20010904/DTD/svg10.dtd">
<svg version="1.0" xmlns="http://www.w3.org/2000/svg"
 width="518.000000pt" height="761.000000pt" viewBox="0 0 518.000000 761.000000"
 preserveAspectRatio="xMidYMid meet">
<metadata>
Created by potrace 1.16, written by Peter Selinger 2001-2019
</metadata>
<g transform="translate(0.000000,761.000000) scale(0.100000,-0.100000)"
fill="#000000" stroke="none">
<path d="M3525 7604 c-206 -20 -279 -29 -400 -50 -968 -165 -1891 -696 -2479
-1425 -87 -108 -226 -315 -301 -449 -152 -270 -261 -574 -322 -900 -22 -121
-26 -552 -5 -670 102 -576 406 -1044 892 -1370 47 -31 515 -295 1040 -585 525
-290 976 -543 1002 -562 75 -54 166 -160 204 -238 169 -343 -49 -819 -386
-843 -161 -11 -416 35 -578 105 -150 64 -261 55 -356 -29 -72 -63 -101 -120
-101 -199 0 -55 4 -72 28 -108 24 -36 45 -51 121 -87 443 -209 890 -249 1257
-111 437 165 811 572 968 1052 58 181 75 284 74 465 0 262 -57 451 -198 665
-60 91 -218 250 -313 314 -34 23 -511 290 -1060 593 -548 303 -1028 571 -1067
596 -400 257 -627 659 -627 1112 -2 1125 1254 2161 2687 2217 339 13 601 -71
960 -308 162 -106 205 -124 280 -116 76 8 137 38 204 102 76 72 113 147 119
241 4 62 1 79 -22 130 -35 77 -63 104 -171 171 -212 132 -497 228 -795 268
-109 15 -562 28 -655 19z"/>
</g>
</svg>
