<?xml version="1.0" standalone="no"?>
<!DOCTYPE svg PUBLIC "-//W3C//DTD SVG 20010904//EN"
 "http://www.w3.org/TR/2001/REC-SVG-20010904/DTD/svg10.dtd">
<svg version="1.0" xmlns="http://www.w3.org/2000/svg"
 width="1187.000000pt" height="946.000000pt" viewBox="0 0 1187.000000 946.000000"
 preserveAspectRatio="xMidYMid meet">
<metadata>
Created by potrace 1.16, written by Peter Selinger 2001-2019
</metadata>
<g transform="translate(0.000000,946.000000) scale(0.100000,-0.100000)"
fill="#000000" stroke="none">
<path d="M2370 9442 c-19 -9 -44 -31 -56 -49 -24 -36 -104 -343 -104 -400 0
-53 30 -104 76 -130 38 -22 48 -23 319 -23 439 -1 965 -29 965 -52 0 -29
-1875 -7501 -1895 -7549 -52 -129 -182 -285 -307 -370 -123 -84 -320 -161
-506 -198 -135 -28 -274 -41 -497 -49 -210 -8 -228 -13 -264 -74 -23 -37 -101
-343 -101 -395 0 -54 30 -104 78 -131 40 -22 42 -22 244 -13 111 6 465 16 786
23 602 12 1377 3 1951 -24 244 -11 245 -11 286 11 25 13 50 37 62 59 32 59
106 373 97 418 -8 46 -55 100 -97 112 -18 6 -115 13 -217 16 -314 10 -497 44
-655 121 -102 50 -153 88 -194 148 -46 68 -65 140 -63 242 1 84 65 343 899
3677 l898 3587 1724 -4097 c948 -2253 1741 -4133 1762 -4177 31 -67 44 -84 78
-103 39 -22 49 -23 225 -20 200 3 212 6 258 69 10 15 405 1576 1023 4049 553
2214 1017 4054 1031 4090 59 150 196 310 345 403 151 94 389 170 629 201 69 9
213 19 320 23 283 8 280 7 349 290 46 190 47 223 3 275 -47 56 -67 59 -309 48
-826 -38 -1789 -38 -2690 1 -258 11 -273 11 -310 -7 -21 -11 -47 -33 -59 -51
-24 -36 -104 -343 -104 -400 0 -53 30 -104 76 -130 34 -20 54 -23 150 -23 253
0 490 -31 646 -84 175 -59 267 -130 321 -244 30 -62 32 -75 32 -172 l0 -105
-740 -2957 c-407 -1627 -742 -2958 -745 -2958 -3 0 -675 1590 -1494 3534
-1089 2588 -1495 3541 -1514 3559 -15 14 -40 31 -55 36 -20 8 -433 11 -1325
11 -1215 0 -1299 -1 -1332 -18z"/>
</g>
</svg>
