<?xml version="1.0" standalone="no"?>
<!DOCTYPE svg PUBLIC "-//W3C//DTD SVG 20010904//EN"
 "http://www.w3.org/TR/2001/REC-SVG-20010904/DTD/svg10.dtd">
<svg version="1.0" xmlns="http://www.w3.org/2000/svg"
 width="1230.000000pt" height="389.000000pt" viewBox="0 0 1230.000000 389.000000"
 preserveAspectRatio="xMidYMid meet">
<metadata>
Created by potrace 1.16, written by Peter Selinger 2001-2019
</metadata>
<g transform="translate(0.000000,389.000000) scale(0.100000,-0.100000)"
fill="#000000" stroke="none">
<path d="M174 3869 c-99 -38 -174 -150 -174 -259 0 -103 68 -211 160 -254 l45
-21 5393 -5 5392 -5 -127 -106 c-816 -677 -1483 -1579 -1901 -2569 -77 -182
-168 -426 -178 -478 -10 -49 20 -117 64 -147 36 -24 42 -25 212 -25 232 0 239
4 300 169 143 391 386 861 645 1251 268 405 506 692 866 1045 387 380 744 655
1213 935 88 53 169 108 180 124 18 23 22 45 24 136 3 98 1 113 -18 148 -12 22
-39 49 -60 61 l-38 21 -5973 -1 c-5926 0 -5974 0 -6025 -20z"/>
</g>
</svg>
