<?xml version="1.0" standalone="no"?>
<!DOCTYPE svg PUBLIC "-//W3C//DTD SVG 20010904//EN"
 "http://www.w3.org/TR/2001/REC-SVG-20010904/DTD/svg10.dtd">
<svg version="1.0" xmlns="http://www.w3.org/2000/svg"
 width="1133.000000pt" height="908.000000pt" viewBox="0 0 1133.000000 908.000000"
 preserveAspectRatio="xMidYMid meet">
<metadata>
Created by potrace 1.16, written by Peter Selinger 2001-2019
</metadata>
<g transform="translate(0.000000,908.000000) scale(0.100000,-0.100000)"
fill="#000000" stroke="none">
<path d="M2280 9062 c-19 -10 -43 -30 -53 -44 -20 -27 -66 -196 -67 -244 0
-38 34 -91 77 -120 30 -20 47 -21 365 -27 421 -8 650 -32 753 -79 36 -16 50
-62 49 -158 -2 -77 -91 -442 -936 -3821 -843 -3367 -939 -3744 -976 -3820 -72
-149 -137 -202 -293 -238 -168 -39 -463 -61 -830 -61 -207 0 -217 -1 -249 -22
-52 -36 -69 -67 -96 -173 -29 -112 -26 -149 13 -195 51 -61 56 -62 335 -50
139 5 546 15 903 21 669 12 1534 3 2191 -22 282 -11 294 -11 330 8 21 11 46
31 57 44 20 28 66 196 67 245 0 38 -34 91 -77 120 -30 20 -47 21 -365 27 -421
8 -650 32 -753 79 -35 16 -50 62 -49 153 0 70 39 235 318 1355 253 1011 323
1279 340 1297 27 27 1928 1495 1931 1491 2 -2 378 -876 836 -1943 l832 -1940
1 -90 c0 -109 -21 -161 -98 -238 -114 -114 -308 -166 -621 -167 -183 0 -209
-20 -252 -186 -28 -110 -26 -157 6 -202 43 -61 62 -64 343 -52 139 5 550 15
913 21 674 12 1229 5 1742 -22 247 -13 262 -11 311 46 20 22 36 59 50 118 29
112 28 165 -1 208 -38 58 -74 69 -222 69 -369 0 -577 54 -710 185 -135 133
-92 39 -1180 2579 -554 1291 -1005 2349 -1003 2351 92 77 2742 2115 2751 2115
8 0 81 50 163 111 565 420 1091 685 1569 789 122 26 305 49 400 50 126 0 168
39 205 190 25 102 23 154 -9 198 -38 54 -73 63 -207 52 -310 -25 -760 -32
-1351 -21 -326 6 -717 16 -868 22 -304 13 -313 12 -363 -46 -32 -36 -72 -174
-72 -248 0 -88 68 -147 170 -147 81 -1 202 -25 263 -53 166 -76 191 -238 66
-425 -18 -26 -89 -104 -159 -173 -112 -110 -437 -365 -2719 -2128 -1426 -1102
-2595 -2001 -2597 -1998 -3 2 242 992 544 2199 490 1960 553 2204 590 2279 87
179 164 226 434 264 141 19 451 35 699 35 197 0 207 1 239 23 52 35 69 66 96
172 29 112 26 149 -13 195 -51 61 -56 62 -340 50 -948 -37 -2103 -35 -3223 6
-151 5 -168 4 -200 -14z"/>
</g>
</svg>
