<?xml version="1.0" standalone="no"?>
<!DOCTYPE svg PUBLIC "-//W3C//DTD SVG 20010904//EN"
 "http://www.w3.org/TR/2001/REC-SVG-20010904/DTD/svg10.dtd">
<svg version="1.0" xmlns="http://www.w3.org/2000/svg"
 width="856.000000pt" height="946.000000pt" viewBox="0 0 856.000000 946.000000"
 preserveAspectRatio="xMidYMid meet">
<metadata>
Created by potrace 1.16, written by Peter Selinger 2001-2019
</metadata>
<g transform="translate(0.000000,946.000000) scale(0.100000,-0.100000)"
fill="#000000" stroke="none">
<path d="M3105 9447 c-63 -29 -79 -62 -131 -270 l-48 -194 25 -48 c47 -94 19
-89 522 -96 574 -9 880 -29 1029 -70 50 -13 83 -45 97 -95 13 -48 14 -47 -157
-729 l-138 -550 -55 -7 c-30 -4 -115 -14 -189 -23 -1704 -205 -3282 -1104
-3834 -2184 -96 -188 -158 -364 -198 -566 -33 -161 -33 -452 0 -612 124 -615
574 -1128 1311 -1497 417 -209 893 -346 1451 -417 96 -12 176 -23 178 -24 7
-6 -281 -1135 -300 -1173 -30 -62 -112 -140 -182 -173 -135 -63 -587 -98
-1264 -99 -320 0 -337 -3 -384 -58 -19 -23 -37 -75 -74 -225 l-48 -194 25 -48
c13 -27 37 -58 52 -69 33 -24 44 -24 742 -6 1045 27 2455 22 3526 -11 353 -11
356 -11 397 10 23 12 49 32 58 46 20 30 103 356 104 404 0 46 -35 105 -79 129
-34 18 -61 20 -491 25 -467 7 -662 16 -855 42 -145 20 -176 29 -209 64 -54 57
-53 65 114 731 83 332 152 605 153 606 1 1 70 10 152 19 1086 121 2154 522
2941 1105 157 117 324 263 470 411 236 242 381 440 515 704 255 506 283 1026
79 1496 -300 691 -1096 1244 -2130 1479 -191 43 -606 110 -686 110 -13 0 262
1114 290 1172 25 53 87 120 143 156 127 80 399 108 1153 119 418 5 458 7 492
24 21 11 45 30 54 44 20 30 103 356 104 404 0 47 -36 105 -81 130 -38 22 -40
22 -346 12 -654 -22 -1682 -33 -2408 -27 -662 6 -940 11 -1655 31 -164 4 -211
3 -235 -8z m1065 -2579 c-1 -16 -1067 -4278 -1071 -4283 -2 -2 -60 5 -129 15
-511 75 -914 252 -1181 519 -221 222 -319 500 -319 908 0 303 53 608 166 956
111 339 252 620 436 866 95 126 299 330 418 419 332 246 777 440 1233 538 92
19 363 65 440 73 4 1 7 -5 7 -11z m1463 -18 c470 -77 839 -240 1095 -485 180
-171 271 -343 324 -607 29 -148 32 -467 4 -653 -88 -604 -320 -1171 -636
-1561 -322 -396 -823 -690 -1455 -854 -228 -60 -590 -119 -582 -96 2 6 244
973 538 2148 l534 2137 25 -5 c14 -2 82 -13 153 -24z"/>
</g>
</svg>
