<?xml version="1.0" standalone="no"?>
<!DOCTYPE svg PUBLIC "-//W3C//DTD SVG 20010904//EN"
 "http://www.w3.org/TR/2001/REC-SVG-20010904/DTD/svg10.dtd">
<svg version="1.0" xmlns="http://www.w3.org/2000/svg"
 width="554.000000pt" height="845.000000pt" viewBox="0 0 554.000000 845.000000"
 preserveAspectRatio="xMidYMid meet">
<metadata>
Created by potrace 1.16, written by Peter Selinger 2001-2019
</metadata>
<g transform="translate(0.000000,845.000000) scale(0.100000,-0.100000)"
fill="#000000" stroke="none">
<path d="M3010 8439 c-721 -83 -1509 -577 -2071 -1299 -510 -654 -817 -1391
-921 -2215 -19 -154 -16 -602 6 -750 109 -752 460 -1297 1015 -1575 97 -48
282 -112 391 -134 213 -43 466 -46 650 -7 385 82 802 316 1150 647 l88 84
-298 -1187 c-164 -654 -307 -1213 -319 -1243 -52 -136 -124 -215 -224 -245
-135 -41 -392 -65 -692 -65 -238 0 -262 -15 -305 -190 -34 -138 -18 -201 62
-242 32 -17 49 -18 234 -8 109 5 431 15 715 21 531 12 1210 3 1741 -22 264
-13 276 -11 326 46 20 22 36 59 50 118 29 112 28 165 -1 208 -40 61 -70 69
-262 69 -396 1 -652 36 -692 96 -42 65 -68 -46 937 3974 693 2771 940 3775
937 3802 -13 100 -126 158 -215 111 -72 -40 -306 -237 -453 -383 -157 -156
-258 -278 -345 -415 l-47 -74 -51 103 c-217 431 -564 702 -988 771 -100 16
-296 18 -418 4z m337 -340 c186 -25 352 -110 498 -254 186 -185 317 -444 395
-785 l21 -95 -374 -1495 -373 -1495 -61 -85 c-445 -624 -991 -1032 -1476
-1104 -233 -35 -397 -6 -557 100 -262 172 -417 530 -437 1009 -14 361 48 751
247 1545 154 611 236 874 372 1195 302 710 798 1252 1298 1419 159 53 291 67
447 45z"/>
</g>
</svg>
