<?xml version="1.0" standalone="no"?>
<!DOCTYPE svg PUBLIC "-//W3C//DTD SVG 20010904//EN"
 "http://www.w3.org/TR/2001/REC-SVG-20010904/DTD/svg10.dtd">
<svg version="1.0" xmlns="http://www.w3.org/2000/svg"
 width="846.000000pt" height="946.000000pt" viewBox="0 0 846.000000 946.000000"
 preserveAspectRatio="xMidYMid meet">
<metadata>
Created by potrace 1.16, written by Peter Selinger 2001-2019
</metadata>
<g transform="translate(0.000000,946.000000) scale(0.100000,-0.100000)"
fill="#000000" stroke="none">
<path d="M2367 9440 c-53 -29 -68 -59 -106 -218 l-34 -139 24 -49 c45 -91 34
-88 417 -95 461 -9 724 -35 819 -81 39 -19 56 -74 50 -163 -4 -45 -344 -1426
-971 -3935 -879 -3515 -970 -3873 -1008 -3949 -44 -91 -109 -165 -169 -193
-128 -61 -507 -98 -997 -98 -234 0 -259 -5 -303 -58 -27 -31 -89 -250 -89
-312 0 -48 33 -103 78 -128 l40 -22 3491 0 c3775 0 3527 -4 3579 52 15 16 235
610 643 1732 666 1834 633 1732 589 1804 -32 53 -85 72 -194 72 -109 0 -165
-17 -195 -59 -10 -14 -53 -120 -96 -236 -316 -863 -563 -1354 -881 -1755 -105
-131 -365 -385 -495 -482 -477 -357 -1030 -549 -1724 -598 -191 -13 -1728 -13
-1851 1 -52 5 -111 16 -132 23 l-37 13 2 84 c1 75 104 496 977 3989 745 2980
984 3920 1007 3968 43 88 135 184 213 221 33 17 98 37 144 45 218 41 655 66
1136 66 254 0 270 1 306 21 20 11 45 35 55 51 23 40 74 241 75 293 0 56 -29
106 -78 133 l-41 23 -308 -10 c-637 -21 -1670 -33 -2298 -27 -572 6 -781 10
-1425 31 -164 5 -177 4 -213 -15z"/>
</g>
</svg>
