<?xml version="1.0" standalone="no"?>
<!DOCTYPE svg PUBLIC "-//W3C//DTD SVG 20010904//EN"
 "http://www.w3.org/TR/2001/REC-SVG-20010904/DTD/svg10.dtd">
<svg version="1.0" xmlns="http://www.w3.org/2000/svg"
 width="969.000000pt" height="908.000000pt" viewBox="0 0 969.000000 908.000000"
 preserveAspectRatio="xMidYMid meet">
<metadata>
Created by potrace 1.16, written by Peter Selinger 2001-2019
</metadata>
<g transform="translate(0.000000,908.000000) scale(0.100000,-0.100000)"
fill="#000000" stroke="none">
<path d="M120 9062 c-19 -10 -42 -30 -52 -43 -20 -28 -68 -199 -68 -245 0 -38
34 -91 79 -121 32 -22 43 -23 215 -23 215 0 448 -15 568 -35 185 -32 279 -81
348 -185 29 -42 235 -595 903 -2417 l865 -2361 -338 -1349 c-185 -741 -349
-1384 -364 -1428 -54 -157 -118 -251 -203 -298 -128 -69 -465 -107 -964 -107
-207 0 -217 -1 -249 -22 -52 -36 -69 -67 -96 -173 -29 -112 -26 -149 13 -195
51 -61 56 -62 335 -50 139 5 541 15 893 21 659 12 1504 3 2162 -22 319 -12
328 -12 378 41 19 20 33 55 51 121 30 120 31 166 1 210 -42 64 -51 65 -414 72
-340 7 -478 16 -623 43 -104 19 -151 40 -168 77 -20 41 -17 146 7 268 11 58
171 710 356 1448 l335 1342 1746 2017 c960 1109 1755 2024 1767 2032 11 8 54
51 96 95 353 376 698 612 1081 739 211 70 477 116 675 116 58 0 78 4 105 23
52 35 69 66 96 172 29 112 26 149 -13 195 -48 58 -65 61 -239 50 -87 -5 -338
-15 -558 -21 -417 -12 -1140 -2 -1663 22 -269 13 -281 11 -331 -46 -21 -23
-36 -60 -56 -139 -30 -123 -26 -163 21 -208 43 -39 66 -48 132 -48 82 0 201
-18 275 -40 123 -39 207 -120 222 -217 15 -98 -39 -247 -137 -382 -30 -40 -64
-89 -76 -110 -32 -52 -3157 -3660 -3164 -3652 -14 15 -1494 4070 -1497 4102
-6 54 28 122 78 158 122 88 395 140 740 141 199 0 228 21 270 190 25 102 23
154 -9 198 -43 61 -61 63 -353 52 -983 -37 -1975 -35 -2993 6 -136 5 -153 4
-185 -14z"/>
</g>
</svg>
