<?xml version="1.0" standalone="no"?>
<!DOCTYPE svg PUBLIC "-//W3C//DTD SVG 20010904//EN"
 "http://www.w3.org/TR/2001/REC-SVG-20010904/DTD/svg10.dtd">
<svg version="1.0" xmlns="http://www.w3.org/2000/svg"
 width="906.000000pt" height="901.000000pt" viewBox="0 0 906.000000 901.000000"
 preserveAspectRatio="xMidYMid meet">
<metadata>
Created by potrace 1.16, written by Peter Selinger 2001-2019
</metadata>
<g transform="translate(0.000000,901.000000) scale(0.100000,-0.100000)"
fill="#000000" stroke="none">
<path d="M1030 8992 c-19 -9 -44 -31 -55 -48 -11 -17 -236 -654 -499 -1417
-521 -1509 -495 -1421 -439 -1487 38 -46 74 -60 148 -60 71 0 120 16 149 48
10 11 66 157 126 324 281 794 472 1207 700 1513 97 131 160 196 270 279 325
245 715 370 1265 406 206 13 1322 13 1438 0 162 -19 176 -34 157 -173 -6 -45
-429 -1753 -940 -3795 -729 -2920 -935 -3727 -959 -3777 -57 -115 -168 -218
-276 -256 -173 -61 -693 -99 -1355 -99 -371 0 -369 1 -417 -186 -28 -110 -26
-157 6 -202 44 -62 54 -64 423 -52 183 5 716 15 1183 21 874 12 2029 3 2873
-22 285 -9 379 -8 401 1 55 22 81 62 107 161 30 120 31 166 1 210 -44 66 -58
69 -382 69 -515 0 -992 27 -1180 66 -158 33 -208 86 -208 223 1 67 103 488
922 3761 507 2027 935 3726 952 3777 37 112 88 193 140 222 91 51 127 54 809
59 815 5 1033 -8 1305 -78 209 -54 380 -143 495 -258 98 -98 136 -174 170
-341 61 -298 42 -728 -62 -1421 -23 -151 -42 -298 -42 -327 -1 -58 19 -93 75
-131 30 -21 43 -23 116 -20 90 3 123 19 155 74 26 45 450 2801 438 2844 -11
38 -43 76 -82 96 -23 12 -602 14 -3960 14 -3724 0 -3935 -1 -3968 -18z"/>
</g>
</svg>
