<?xml version="1.0" standalone="no"?>
<!DOCTYPE svg PUBLIC "-//W3C//DTD SVG 20010904//EN"
 "http://www.w3.org/TR/2001/REC-SVG-20010904/DTD/svg10.dtd">
<svg version="1.0" xmlns="http://www.w3.org/2000/svg"
 width="957.000000pt" height="1008.000000pt" viewBox="0 0 957.000000 1008.000000"
 preserveAspectRatio="xMidYMid meet">
<metadata>
Created by potrace 1.16, written by Peter Selinger 2001-2019
</metadata>
<g transform="translate(0.000000,1008.000000) scale(0.100000,-0.100000)"
fill="#000000" stroke="none">
<path d="M5740 10070 c-488 -40 -977 -154 -1444 -336 -1957 -762 -3569 -2599
-4110 -4684 -399 -1537 -126 -2995 741 -3955 495 -549 1193 -919 1963 -1044
237 -38 348 -46 650 -45 314 0 458 12 739 60 1599 270 3181 1363 4196 2899
1014 1535 1342 3344 865 4775 -436 1307 -1471 2151 -2840 2315 -158 19 -605
28 -760 15z m519 -565 c805 -126 1414 -649 1692 -1453 280 -813 223 -1862
-176 -3247 -272 -946 -628 -1718 -1092 -2372 -729 -1028 -1688 -1688 -2673
-1840 -162 -24 -513 -25 -665 0 -891 145 -1512 778 -1744 1777 -66 287 -94
559 -94 925 0 551 68 1064 235 1775 293 1246 729 2186 1378 2970 129 156 448
476 600 602 274 227 522 390 818 538 394 196 750 300 1177 344 88 9 444 -3
544 -19z"/>
</g>
</svg>
