<?xml version="1.0" standalone="no"?>
<!DOCTYPE svg PUBLIC "-//W3C//DTD SVG 20010904//EN"
 "http://www.w3.org/TR/2001/REC-SVG-20010904/DTD/svg10.dtd">
<svg version="1.0" xmlns="http://www.w3.org/2000/svg"
 width="783.000000pt" height="626.000000pt" viewBox="0 0 783.000000 626.000000"
 preserveAspectRatio="xMidYMid meet">
<metadata>
Created by potrace 1.16, written by Peter Selinger 2001-2019
</metadata>
<g transform="translate(0.000000,626.000000) scale(0.100000,-0.100000)"
fill="#000000" stroke="none">
<path d="M3470 6246 c-1421 -167 -2762 -1303 -3263 -2762 -155 -453 -218 -865
-196 -1294 32 -639 279 -1207 700 -1605 258 -245 612 -432 979 -519 373 -89
839 -87 1310 5 713 139 1456 494 2089 999 55 44 103 80 106 80 3 0 5 -7 5 -15
0 -29 81 -258 125 -351 209 -447 529 -702 965 -769 278 -43 542 10 793 158
274 162 479 413 578 706 16 47 29 95 29 108 0 31 -22 72 -55 103 -25 24 -34
25 -155 28 -187 5 -203 -4 -254 -153 -91 -264 -331 -487 -581 -540 -144 -30
-217 -11 -280 75 -139 189 -201 565 -221 1327 l-7 272 90 113 c675 848 1207
1881 1507 2928 92 321 92 320 70 366 -10 21 -35 49 -54 62 -33 22 -43 23 -167
20 -190 -4 -187 -1 -263 -288 -23 -85 -77 -262 -120 -393 -235 -705 -554
-1358 -965 -1975 l-102 -152 -7 502 c-4 328 -11 552 -21 643 -113 1069 -668
1874 -1510 2190 -121 45 -324 98 -466 120 -142 23 -507 28 -659 11z m420 -407
c259 -32 446 -123 625 -303 244 -246 402 -623 490 -1166 60 -372 72 -619 86
-1765 6 -478 13 -897 16 -930 l5 -60 -112 -95 c-841 -712 -1690 -1074 -2595
-1107 -194 -7 -339 10 -479 54 -275 87 -507 285 -646 554 -169 328 -210 741
-129 1301 61 426 252 1183 403 1597 283 776 700 1321 1272 1661 351 209 730
301 1064 259z"/>
</g>
</svg>
