<?xml version="1.0" standalone="no"?>
<!DOCTYPE svg PUBLIC "-//W3C//DTD SVG 20010904//EN"
 "http://www.w3.org/TR/2001/REC-SVG-20010904/DTD/svg10.dtd">
<svg version="1.0" xmlns="http://www.w3.org/2000/svg"
 width="922.000000pt" height="946.000000pt" viewBox="0 0 922.000000 946.000000"
 preserveAspectRatio="xMidYMid meet">
<metadata>
Created by potrace 1.16, written by Peter Selinger 2001-2019
</metadata>
<g transform="translate(0.000000,946.000000) scale(0.100000,-0.100000)"
fill="#000000" stroke="none">
<path d="M2719 9440 c-20 -10 -44 -31 -53 -45 -10 -15 -218 -689 -462 -1499
-473 -1562 -460 -1516 -417 -1575 44 -57 66 -66 188 -69 102 -3 118 -1 153 18
21 12 46 34 55 49 9 15 46 119 82 231 182 558 375 954 630 1295 251 336 553
590 909 764 393 193 819 289 1431 321 189 10 2405 15 2405 5 0 -3 -1691 -1907
-3758 -4233 -2066 -2325 -3770 -4243 -3784 -4262 -20 -26 -37 -76 -63 -180
-39 -159 -38 -185 11 -231 l26 -24 3276 -3 c2206 -2 3289 0 3312 7 82 24 45
-80 652 1838 596 1885 575 1812 531 1872 -44 57 -66 66 -188 69 -103 3 -118 1
-153 -18 -22 -12 -49 -39 -59 -59 -11 -20 -51 -133 -88 -251 -326 -1036 -622
-1623 -1035 -2054 -431 -449 -999 -707 -1765 -800 -300 -37 -367 -39 -1670
-43 -1256 -4 -1299 -4 -1284 14 9 10 1708 1922 3775 4248 2068 2327 3765 4244
3771 4260 19 46 63 230 63 260 0 38 -26 83 -60 100 -26 13 -386 15 -3212 15
-3109 -1 -3184 -1 -3219 -20z"/>
</g>
</svg>
