<?xml version="1.0" standalone="no"?>
<!DOCTYPE svg PUBLIC "-//W3C//DTD SVG 20010904//EN"
 "http://www.w3.org/TR/2001/REC-SVG-20010904/DTD/svg10.dtd">
<svg version="1.0" xmlns="http://www.w3.org/2000/svg"
 width="727.000000pt" height="602.000000pt" viewBox="0 0 727.000000 602.000000"
 preserveAspectRatio="xMidYMid meet">
<metadata>
Created by potrace 1.16, written by Peter Selinger 2001-2019
</metadata>
<g transform="translate(0.000000,602.000000) scale(0.100000,-0.100000)"
fill="#000000" stroke="none">
<path d="M1257 6010 c-336 -57 -610 -295 -824 -715 -136 -268 -251 -613 -398
-1191 l-38 -150 19 -39 c31 -63 63 -79 158 -83 94 -4 144 11 171 52 10 15 46
138 82 274 202 782 356 1139 584 1357 132 126 262 176 421 161 166 -15 264
-113 315 -313 28 -108 25 -455 -6 -628 -12 -71 -256 -1065 -542 -2208 -561
-2244 -540 -2152 -504 -2273 58 -196 280 -297 512 -234 167 45 307 163 375
318 12 26 229 878 483 1894 l462 1846 73 129 c99 174 279 445 381 573 315 395
685 669 1074 798 264 87 598 124 783 86 465 -95 622 -620 446 -1494 -109 -543
-352 -1315 -740 -2352 -141 -377 -174 -512 -174 -715 0 -619 433 -1071 1055
-1100 216 -10 385 26 592 127 360 176 682 540 933 1055 115 236 224 536 291
796 22 85 22 86 3 124 -31 63 -63 79 -158 83 -143 6 -177 -21 -216 -177 -58
-234 -184 -568 -295 -788 -190 -373 -421 -642 -667 -777 -201 -111 -460 -137
-572 -59 -97 68 -140 243 -118 474 25 246 71 416 237 859 367 981 599 1704
720 2245 182 814 23 1443 -449 1777 -392 277 -1025 354 -1622 199 -315 -83
-633 -249 -912 -478 -172 -141 -370 -348 -505 -527 l-37 -49 0 42 c0 107 -60
313 -132 454 -175 341 -493 560 -903 622 -106 16 -278 18 -358 5z"/>
</g>
</svg>
