<?xml version="1.0" standalone="no"?>
<!DOCTYPE svg PUBLIC "-//W3C//DTD SVG 20010904//EN"
 "http://www.w3.org/TR/2001/REC-SVG-20010904/DTD/svg10.dtd">
<svg version="1.0" xmlns="http://www.w3.org/2000/svg"
 width="841.000000pt" height="953.000000pt" viewBox="0 0 841.000000 953.000000"
 preserveAspectRatio="xMidYMid meet">
<metadata>
Created by potrace 1.16, written by Peter Selinger 2001-2019
</metadata>
<g transform="translate(0.000000,953.000000) scale(0.100000,-0.100000)"
fill="#000000" stroke="none">
<path d="M6360 9513 c-107 -38 36 206 -2434 -4134 -1255 -2203 -2291 -4019
-2304 -4035 -13 -16 -56 -79 -96 -141 -254 -387 -560 -615 -947 -707 -112 -27
-262 -46 -360 -46 -70 0 -121 -20 -149 -59 -27 -38 -73 -227 -65 -268 7 -39
46 -88 86 -109 24 -12 52 -13 176 -4 82 5 315 15 519 21 386 12 1097 2 1621
-22 269 -13 281 -11 331 46 21 23 36 60 56 139 30 123 26 163 -21 208 -43 39
-66 48 -130 48 -85 0 -217 18 -301 40 -142 39 -279 128 -337 220 -73 116 -73
270 1 435 20 44 43 97 53 117 24 54 3626 6376 3628 6369 1 -3 109 -1536 239
-3406 195 -2811 234 -3406 224 -3435 -31 -94 -123 -179 -251 -229 -180 -71
-355 -100 -664 -108 -311 -7 -313 -9 -360 -193 -30 -117 -28 -153 12 -200 51
-61 56 -62 335 -50 139 5 548 15 908 21 671 12 1328 4 1871 -22 225 -11 239
-11 275 7 21 11 46 31 56 45 21 27 67 196 68 242 0 42 -28 94 -64 120 -29 21
-44 22 -286 29 -480 13 -610 52 -655 198 -13 43 -84 1018 -320 4413 -294 4211
-305 4359 -326 4393 -36 58 -83 74 -224 73 -83 0 -134 -6 -165 -16z"/>
</g>
</svg>
