<?xml version="1.0" standalone="no"?>
<!DOCTYPE svg PUBLIC "-//W3C//DTD SVG 20010904//EN"
 "http://www.w3.org/TR/2001/REC-SVG-20010904/DTD/svg10.dtd">
<svg version="1.0" xmlns="http://www.w3.org/2000/svg"
 width="501.000000pt" height="731.000000pt" viewBox="0 0 501.000000 731.000000"
 preserveAspectRatio="xMidYMid meet">
<metadata>
Created by potrace 1.16, written by Peter Selinger 2001-2019
</metadata>
<g transform="translate(0.000000,731.000000) scale(0.100000,-0.100000)"
fill="#000000" stroke="none">
<path d="M3315 7300 c-895 -80 -1785 -483 -2412 -1093 -279 -271 -472 -534
-633 -862 -94 -190 -152 -346 -201 -536 -155 -612 -39 -1213 330 -1694 112
-147 314 -333 486 -447 39 -25 490 -278 1004 -562 514 -284 956 -532 981 -551
127 -93 234 -245 265 -376 19 -83 19 -232 -1 -322 -43 -196 -189 -392 -349
-471 -80 -39 -146 -50 -265 -43 -181 11 -303 39 -479 109 -101 41 -130 49
-159 43 -51 -10 -84 -29 -120 -69 -49 -57 -55 -144 -12 -198 42 -55 312 -158
520 -199 93 -19 148 -23 290 -24 188 0 233 7 385 57 339 113 653 398 830 753
104 209 150 378 161 585 22 399 -162 766 -493 986 -29 19 -493 278 -1030 575
-538 298 -1014 565 -1058 594 -250 166 -450 419 -549 693 -86 239 -95 534 -24
817 154 621 648 1188 1345 1543 468 238 937 355 1428 356 179 1 226 -3 320
-22 214 -43 353 -93 627 -224 102 -49 204 -92 225 -95 60 -8 142 28 196 86
102 109 95 261 -14 337 -137 95 -497 201 -809 239 -158 19 -634 28 -785 15z"/>
</g>
</svg>
