<?xml version="1.0" standalone="no"?>
<!DOCTYPE svg PUBLIC "-//W3C//DTD SVG 20010904//EN"
 "http://www.w3.org/TR/2001/REC-SVG-20010904/DTD/svg10.dtd">
<svg version="1.0" xmlns="http://www.w3.org/2000/svg"
 width="918.000000pt" height="1196.000000pt" viewBox="0 0 918.000000 1196.000000"
 preserveAspectRatio="xMidYMid meet">
<metadata>
Created by potrace 1.16, written by Peter Selinger 2001-2019
</metadata>
<g transform="translate(0.000000,1196.000000) scale(0.100000,-0.100000)"
fill="#000000" stroke="none">
<path d="M5495 11949 c-1490 -126 -2992 -997 -4077 -2362 -1100 -1386 -1609
-3111 -1342 -4554 180 -978 700 -1772 1475 -2253 409 -254 873 -412 1399 -477
202 -24 676 -24 880 0 265 32 540 86 773 151 l87 24 0 -26 c0 -15 -9 -133 -20
-262 -75 -907 -43 -1332 125 -1670 96 -191 244 -337 431 -421 265 -120 664
-130 984 -23 650 218 1236 948 1590 1980 89 260 153 499 147 545 -13 101 -120
157 -213 113 -44 -21 -67 -55 -88 -129 -148 -525 -573 -980 -1096 -1175 -163
-60 -249 -74 -450 -75 -149 0 -198 4 -250 18 -306 86 -483 327 -589 807 -40
178 -85 480 -75 490 5 4 59 29 119 55 156 67 456 220 620 316 1478 862 2630
2360 3059 3979 117 442 174 841 183 1280 6 295 -4 483 -38 730 -195 1401
-1050 2440 -2313 2809 -166 49 -343 85 -541 112 -175 23 -604 33 -780 18z
m430 -379 c569 -54 1080 -326 1434 -765 196 -243 358 -565 457 -908 205 -711
186 -1577 -57 -2631 -293 -1269 -770 -2283 -1457 -3096 -131 -154 -420 -445
-567 -570 -143 -122 -344 -272 -497 -369 -68 -44 -124 -78 -124 -78 -1 1 -14
70 -29 152 -86 475 -204 760 -399 964 -154 160 -312 241 -544 281 -404 70
-799 -60 -1125 -369 -375 -357 -542 -840 -432 -1249 14 -51 25 -96 25 -98 0
-11 -241 119 -323 174 -507 338 -846 880 -987 1582 -138 685 -93 1463 141
2430 244 1011 620 1886 1113 2595 792 1139 1891 1866 2961 1958 92 8 308 6
410 -3z m-1750 -7370 c249 -64 403 -219 478 -480 49 -168 78 -464 69 -695 l-3
-80 -89 -37 c-410 -173 -842 -259 -1233 -245 -154 5 -161 6 -225 38 -114 55
-209 169 -251 299 -23 72 -31 190 -20 284 54 447 440 855 886 936 80 15 298 4
388 -20z"/>
</g>
</svg>
