<?xml version="1.0" standalone="no"?>
<!DOCTYPE svg PUBLIC "-//W3C//DTD SVG 20010904//EN"
 "http://www.w3.org/TR/2001/REC-SVG-20010904/DTD/svg10.dtd">
<svg version="1.0" xmlns="http://www.w3.org/2000/svg"
 width="820.000000pt" height="627.000000pt" viewBox="0 0 820.000000 627.000000"
 preserveAspectRatio="xMidYMid meet">
<metadata>
Created by potrace 1.16, written by Peter Selinger 2001-2019
</metadata>
<g transform="translate(0.000000,627.000000) scale(0.100000,-0.100000)"
fill="#000000" stroke="none">
<path d="M7420 6255 c-36 -8 -112 -38 -170 -67 -93 -46 -117 -64 -211 -157
-95 -95 -111 -117 -158 -211 -95 -192 -101 -334 -21 -497 34 -70 54 -94 131
-165 262 -239 416 -515 481 -858 29 -149 31 -441 4 -595 -53 -314 -207 -771
-377 -1120 -354 -728 -837 -1233 -1352 -1414 -156 -55 -272 -74 -452 -74 -360
-1 -638 101 -873 318 -154 143 -298 377 -372 606 l-31 95 40 86 c186 401 431
1159 470 1451 37 272 -28 456 -187 534 -50 25 -68 28 -153 28 -92 0 -98 -1
-181 -42 -199 -99 -325 -312 -423 -715 -95 -392 -145 -743 -161 -1138 l-7
-175 -61 -80 c-377 -496 -839 -828 -1296 -931 -404 -91 -778 -26 -1037 181
-174 139 -309 347 -391 605 -112 350 -127 826 -41 1303 125 696 469 1398 1148
2347 73 102 141 201 151 220 95 186 -18 392 -228 417 -103 12 -235 -51 -313
-149 -73 -91 -297 -436 -388 -598 -104 -183 -239 -450 -320 -634 -331 -748
-571 -1674 -631 -2430 -15 -196 -12 -623 5 -794 108 -1032 637 -1600 1492
-1602 710 -1 1393 404 1951 1156 l76 103 37 -112 c236 -719 740 -1117 1445
-1144 474 -18 906 138 1313 475 383 318 747 837 1040 1484 217 480 374 947
541 1615 216 867 280 1247 280 1668 0 303 -30 464 -120 650 -112 232 -288 361
-505 371 -47 2 -107 -2 -145 -11z"/>
</g>
</svg>
