<?xml version="1.0" standalone="no"?>
<!DOCTYPE svg PUBLIC "-//W3C//DTD SVG 20010904//EN"
 "http://www.w3.org/TR/2001/REC-SVG-20010904/DTD/svg10.dtd">
<svg version="1.0" xmlns="http://www.w3.org/2000/svg"
 width="592.000000pt" height="1254.000000pt" viewBox="0 0 592.000000 1254.000000"
 preserveAspectRatio="xMidYMid meet">
<metadata>
Created by potrace 1.16, written by Peter Selinger 2001-2019
</metadata>
<g transform="translate(0.000000,1254.000000) scale(0.100000,-0.100000)"
fill="#000000" stroke="none">
<path d="M3750 12531 c-70 -23 -123 -67 -154 -128 -23 -45 -62 -216 -82 -358
-12 -83 -18 -181 -17 -320 0 -229 19 -360 75 -531 l33 -101 -94 -54 c-771
-441 -1602 -1259 -2243 -2209 -717 -1062 -1108 -2085 -1245 -3255 -24 -213
-25 -736 0 -920 122 -907 551 -1528 1324 -1914 198 -99 284 -132 893 -336 980
-329 1048 -353 1142 -400 276 -138 450 -345 503 -594 20 -94 19 -262 -1 -359
-37 -181 -116 -326 -248 -457 -172 -171 -305 -209 -599 -170 -313 41 -571 153
-847 366 -89 68 -114 79 -184 79 -151 0 -262 -172 -194 -298 61 -112 460 -361
728 -455 236 -83 402 -111 650 -111 210 -1 292 14 475 85 184 71 341 175 504
333 266 260 440 569 527 942 26 111 28 134 29 339 0 209 -1 225 -28 328 -109
417 -353 710 -764 916 -129 64 -176 81 -1204 426 -316 107 -622 212 -680 235
-617 246 -1001 691 -1128 1307 -86 417 -69 945 50 1523 152 740 432 1441 857
2150 480 801 1074 1487 1677 1936 102 75 288 198 319 210 7 3 44 -18 82 -47
85 -64 222 -131 329 -160 69 -19 114 -23 324 -27 262 -4 567 9 727 33 403 61
612 211 623 448 3 71 0 84 -28 142 -18 36 -48 78 -69 95 -92 77 -276 136 -497
160 -160 18 -713 25 -832 11 -113 -13 -268 -48 -385 -87 -43 -14 -82 -23 -87
-20 -14 9 -49 167 -62 281 -19 168 3 445 52 653 25 109 24 158 -3 212 -33 64
-90 101 -164 106 -32 2 -70 0 -84 -5z m1355 -1551 c77 -4 165 -12 195 -16 l55
-8 -75 -12 c-219 -36 -833 -44 -930 -12 l-45 15 60 13 c33 7 83 16 110 20 72
11 466 11 630 0z"/>
</g>
</svg>
