<?xml version="1.0" standalone="no"?>
<!DOCTYPE svg PUBLIC "-//W3C//DTD SVG 20010904//EN"
 "http://www.w3.org/TR/2001/REC-SVG-20010904/DTD/svg10.dtd">
<svg version="1.0" xmlns="http://www.w3.org/2000/svg"
 width="1002.000000pt" height="977.000000pt" viewBox="0 0 1002.000000 977.000000"
 preserveAspectRatio="xMidYMid meet">
<metadata>
Created by potrace 1.16, written by Peter Selinger 2001-2019
</metadata>
<g transform="translate(0.000000,977.000000) scale(0.100000,-0.100000)"
fill="#000000" stroke="none">
<path d="M2370 9752 c-19 -9 -44 -31 -56 -49 -24 -36 -104 -343 -104 -400 0
-52 30 -104 74 -129 35 -20 56 -21 404 -27 512 -9 753 -33 809 -81 59 -51 120
211 -927 -3976 -528 -2115 -972 -3869 -985 -3897 -48 -107 -116 -168 -216
-197 -134 -39 -526 -66 -944 -66 -256 0 -280 -5 -321 -67 -24 -36 -104 -343
-104 -400 0 -54 30 -104 77 -131 l41 -22 278 10 c1038 38 2230 38 3311 -1
l321 -11 40 22 c22 12 49 39 60 59 11 20 38 113 61 208 46 190 47 223 3 275
-46 54 -69 58 -324 58 -399 0 -791 28 -894 63 -48 17 -64 45 -64 117 0 40 121
541 452 1868 l453 1812 890 0 c963 0 1010 -3 1188 -55 200 -58 330 -131 469
-264 199 -190 306 -411 339 -701 13 -116 7 -269 -15 -395 -8 -44 -89 -377
-179 -740 -209 -832 -208 -831 -214 -1071 -8 -288 26 -464 132 -680 266 -546
910 -856 1830 -881 233 -6 334 5 487 53 549 172 1043 751 1242 1456 23 81 26
102 17 135 -13 47 -65 100 -112 113 -44 13 -273 13 -319 0 -61 -17 -96 -64
-125 -165 -92 -323 -252 -613 -450 -811 -204 -204 -391 -286 -620 -271 -213
14 -345 96 -420 260 -65 144 -88 296 -87 592 0 234 -1 226 83 1190 37 439 59
742 59 834 0 656 -329 1197 -943 1549 l-88 50 88 27 c686 205 1289 517 1767
914 131 110 340 320 438 441 237 295 396 615 465 939 25 114 27 146 28 346 0
240 -8 296 -67 490 -254 835 -1172 1448 -2378 1589 -284 34 -444 36 -2675 36
-2113 0 -2242 -1 -2275 -18z m4537 -626 c520 -62 849 -189 1095 -424 176 -169
258 -366 274 -662 24 -439 -182 -1237 -430 -1663 -196 -338 -428 -554 -798
-743 -372 -189 -778 -290 -1303 -324 -88 -5 -529 -10 -981 -10 l-822 0 458
1828 c477 1909 476 1907 540 1952 36 25 120 48 220 59 47 5 427 8 850 6 619
-2 790 -6 897 -19z"/>
</g>
</svg>
