<?xml version="1.0" standalone="no"?>
<!DOCTYPE svg PUBLIC "-//W3C//DTD SVG 20010904//EN"
 "http://www.w3.org/TR/2001/REC-SVG-20010904/DTD/svg10.dtd">
<svg version="1.0" xmlns="http://www.w3.org/2000/svg"
 width="995.000000pt" height="946.000000pt" viewBox="0 0 995.000000 946.000000"
 preserveAspectRatio="xMidYMid meet">
<metadata>
Created by potrace 1.16, written by Peter Selinger 2001-2019
</metadata>
<g transform="translate(0.000000,946.000000) scale(0.100000,-0.100000)"
fill="#000000" stroke="none">
<path d="M2367 9439 c-53 -28 -68 -58 -106 -217 l-34 -139 24 -49 c45 -91 34
-88 417 -95 461 -9 724 -35 819 -81 39 -19 56 -74 50 -163 -4 -45 -344 -1426
-971 -3935 -879 -3515 -970 -3873 -1008 -3949 -44 -91 -109 -165 -169 -193
-128 -61 -507 -98 -997 -98 -234 0 -259 -5 -303 -58 -27 -31 -89 -250 -89
-312 0 -48 33 -103 78 -128 l41 -22 2808 3 c3061 3 2834 -1 3178 57 946 160
1894 704 2464 1415 548 682 739 1422 534 2060 -205 637 -765 1114 -1547 1320
-136 36 -400 85 -464 86 -23 0 5 9 76 24 504 107 962 285 1383 538 604 363
1056 852 1259 1365 152 384 170 821 49 1186 -224 672 -856 1161 -1729 1336
-345 69 -130 64 -3070 67 -2644 2 -2655 2 -2693 -18z m5191 -526 c130 -30 213
-59 314 -108 349 -172 579 -480 670 -898 19 -89 22 -132 22 -327 0 -239 -8
-306 -60 -506 -76 -296 -248 -626 -470 -904 -93 -116 -307 -328 -434 -429
-406 -323 -863 -523 -1360 -597 -102 -15 -243 -18 -1257 -21 -802 -3 -1143 -1
-1143 6 0 32 874 3502 900 3574 44 119 89 170 178 197 37 11 103 24 147 29 44
5 602 8 1240 7 1145 -2 1161 -2 1253 -23z m-854 -4226 c500 -124 833 -433 996
-926 68 -205 90 -352 90 -608 0 -776 -360 -1491 -1023 -2031 -301 -245 -719
-454 -1075 -538 -254 -60 -180 -57 -1477 -61 -1197 -4 -1350 -1 -1442 31 l-38
13 1 80 c1 71 60 317 499 2072 l498 1992 1451 -4 c1329 -3 1457 -5 1520 -20z"/>
</g>
</svg>
