<?xml version="1.0" standalone="no"?>
<!DOCTYPE svg PUBLIC "-//W3C//DTD SVG 20010904//EN"
 "http://www.w3.org/TR/2001/REC-SVG-20010904/DTD/svg10.dtd">
<svg version="1.0" xmlns="http://www.w3.org/2000/svg"
 width="1180.000000pt" height="374.000000pt" viewBox="0 0 1180.000000 374.000000"
 preserveAspectRatio="xMidYMid meet">
<metadata>
Created by potrace 1.16, written by Peter Selinger 2001-2019
</metadata>
<g transform="translate(0.000000,374.000000) scale(0.100000,-0.100000)"
fill="#000000" stroke="none">
<path d="M176 3724 c-64 -20 -137 -92 -159 -159 -46 -133 10 -277 131 -337
l47 -23 5171 -5 5171 -5 -116 -97 c-857 -713 -1524 -1655 -1931 -2728 -86
-227 -86 -278 4 -344 24 -19 44 -21 186 -24 142 -3 162 -1 198 17 49 25 58 39
117 191 355 916 959 1772 1705 2415 288 249 534 426 879 635 214 129 213 129
209 280 -3 119 -19 154 -82 184 -31 15 -497 16 -5758 15 -5045 0 -5729 -2
-5772 -15z"/>
</g>
</svg>
