<?xml version="1.0" standalone="no"?>
<!DOCTYPE svg PUBLIC "-//W3C//DTD SVG 20010904//EN"
 "http://www.w3.org/TR/2001/REC-SVG-20010904/DTD/svg10.dtd">
<svg version="1.0" xmlns="http://www.w3.org/2000/svg"
 width="461.000000pt" height="627.000000pt" viewBox="0 0 461.000000 627.000000"
 preserveAspectRatio="xMidYMid meet">
<metadata>
Created by potrace 1.16, written by Peter Selinger 2001-2019
</metadata>
<g transform="translate(0.000000,627.000000) scale(0.100000,-0.100000)"
fill="#000000" stroke="none">
<path d="M2632 6263 c-7 -3 -65 -38 -128 -78 -289 -185 -634 -321 -1015 -399
-323 -66 -639 -96 -1181 -112 -229 -7 -249 -12 -288 -76 -18 -29 -20 -51 -20
-181 0 -162 6 -185 60 -230 17 -14 49 -29 73 -32 50 -7 600 11 772 25 261 22
507 60 734 112 74 16 141 32 148 35 18 7 19 -4416 2 -4499 -21 -99 -71 -173
-139 -208 -115 -59 -434 -88 -1072 -98 -461 -8 -440 -4 -485 -92 -20 -39 -23
-59 -23 -170 0 -111 3 -131 23 -170 12 -24 35 -53 50 -64 35 -26 53 -26 742
-6 681 20 2219 20 2900 0 689 -20 707 -20 741 6 63 47 69 63 72 217 3 132 2
145 -20 186 -46 89 -25 85 -486 93 -638 10 -957 39 -1072 98 -68 35 -118 109
-139 208 -8 38 -11 777 -11 2689 l0 2635 -21 38 c-29 52 -83 80 -150 79 -30 0
-60 -3 -67 -6z"/>
</g>
</svg>
