<?xml version="1.0" standalone="no"?>
<!DOCTYPE svg PUBLIC "-//W3C//DTD SVG 20010904//EN"
 "http://www.w3.org/TR/2001/REC-SVG-20010904/DTD/svg10.dtd">
<svg version="1.0" xmlns="http://www.w3.org/2000/svg"
 width="751.000000pt" height="938.000000pt" viewBox="0 0 751.000000 938.000000"
 preserveAspectRatio="xMidYMid meet">
<metadata>
Created by potrace 1.16, written by Peter Selinger 2001-2019
</metadata>
<g transform="translate(0.000000,938.000000) scale(0.100000,-0.100000)"
fill="#000000" stroke="none">
<path d="M3670 9362 c-19 -10 -42 -30 -52 -43 -20 -28 -68 -199 -68 -245 0
-38 34 -91 77 -120 30 -20 45 -21 455 -27 691 -10 993 -44 1068 -119 36 -35
55 -118 45 -197 -12 -100 -1611 -6477 -1659 -6616 -313 -911 -1045 -1613
-1721 -1652 -249 -14 -544 46 -760 155 -166 83 -333 225 -425 361 -34 51 -120
217 -120 233 0 2 51 4 113 4 469 3 859 373 884 839 9 183 -35 305 -156 426
-120 120 -246 168 -438 169 -341 0 -647 -194 -794 -505 -81 -173 -114 -337
-113 -575 0 -234 37 -397 136 -595 67 -134 144 -240 259 -355 246 -246 569
-401 984 -472 184 -31 565 -32 765 -1 589 92 1108 318 1571 684 125 98 409
380 503 499 179 226 354 541 433 780 23 69 402 1567 843 3330 440 1763 810
3234 822 3270 52 162 123 246 237 280 134 39 346 60 624 60 223 0 246 15 291
195 30 122 26 162 -21 207 -53 49 -58 49 -280 38 -757 -37 -1987 -35 -3278 6
-176 5 -193 4 -225 -14z"/>
</g>
</svg>
