<?xml version="1.0" standalone="no"?>
<!DOCTYPE svg PUBLIC "-//W3C//DTD SVG 20010904//EN"
 "http://www.w3.org/TR/2001/REC-SVG-20010904/DTD/svg10.dtd">
<svg version="1.0" xmlns="http://www.w3.org/2000/svg"
 width="546.000000pt" height="175.000000pt" viewBox="0 0 546.000000 175.000000"
 preserveAspectRatio="xMidYMid meet">
<metadata>
Created by potrace 1.16, written by Peter Selinger 2001-2019
</metadata>
<g transform="translate(0.000000,175.000000) scale(0.100000,-0.100000)"
fill="#000000" stroke="none">
<path d="M2790 1744 c-657 -46 -1199 -190 -1723 -456 -278 -142 -503 -302
-687 -487 -168 -170 -298 -374 -355 -554 -36 -112 -34 -158 9 -205 l34 -37
151 0 150 0 30 29 c19 18 38 54 51 95 112 346 513 649 1154 870 271 94 581
160 926 198 219 24 745 24 958 0 193 -22 396 -59 535 -97 493 -137 876 -404
952 -665 18 -62 22 -143 11 -261 l-9 -91 36 -39 35 -39 151 0 151 0 30 31 c44
43 61 115 67 279 4 119 2 153 -16 227 -53 222 -150 387 -332 563 -346 334
-859 544 -1519 621 -129 15 -661 27 -790 18z"/>
</g>
</svg>
