<?xml version="1.0" standalone="no"?>
<!DOCTYPE svg PUBLIC "-//W3C//DTD SVG 20010904//EN"
 "http://www.w3.org/TR/2001/REC-SVG-20010904/DTD/svg10.dtd">
<svg version="1.0" xmlns="http://www.w3.org/2000/svg"
 width="515.000000pt" height="602.000000pt" viewBox="0 0 515.000000 602.000000"
 preserveAspectRatio="xMidYMid meet">
<metadata>
Created by potrace 1.16, written by Peter Selinger 2001-2019
</metadata>
<g transform="translate(0.000000,602.000000) scale(0.100000,-0.100000)"
fill="#000000" stroke="none">
<path d="M3253 6010 c-1078 -104 -2123 -757 -2727 -1704 -83 -129 -215 -384
-267 -512 -110 -276 -191 -603 -236 -959 -21 -167 -24 -652 -5 -805 43 -343
130 -637 272 -920 313 -626 864 -1015 1550 -1097 102 -12 186 -14 345 -10
1141 31 2228 560 2869 1396 114 149 115 185 7 296 -36 37 -64 56 -87 61 -73
14 -103 -9 -229 -171 -91 -117 -314 -345 -438 -448 -551 -457 -1235 -729
-1982 -788 -431 -34 -691 45 -926 282 -268 271 -402 679 -402 1219 1 353 57
746 184 1286 l12 51 506 6 c518 7 727 15 1026 42 1177 107 1859 474 2121 1142
19 47 48 143 66 212 30 117 32 138 32 286 0 141 -4 172 -27 258 -122 454 -507
761 -1082 863 -98 18 -456 26 -582 14z m430 -345 c150 -22 212 -41 332 -100
224 -109 368 -276 427 -492 31 -117 29 -304 -5 -434 -116 -444 -406 -723 -934
-898 -418 -139 -895 -194 -1790 -208 l-432 -6 20 74 c130 464 315 857 553
1177 99 133 339 374 466 469 443 329 941 482 1363 418z"/>
</g>
</svg>
