<?xml version="1.0" standalone="no"?>
<!DOCTYPE svg PUBLIC "-//W3C//DTD SVG 20010904//EN"
 "http://www.w3.org/TR/2001/REC-SVG-20010904/DTD/svg10.dtd">
<svg version="1.0" xmlns="http://www.w3.org/2000/svg"
 width="701.000000pt" height="982.000000pt" viewBox="0 0 701.000000 982.000000"
 preserveAspectRatio="xMidYMid meet">
<metadata>
Created by potrace 1.16, written by Peter Selinger 2001-2019
</metadata>
<g transform="translate(0.000000,982.000000) scale(0.100000,-0.100000)"
fill="#000000" stroke="none">
<path d="M3860 9809 c-683 -68 -1281 -369 -1698 -854 -253 -295 -444 -666
-549 -1070 -81 -311 33 -554 301 -638 102 -32 271 -31 376 2 135 41 225 96
325 196 108 107 163 204 201 352 50 200 20 360 -94 484 -96 104 -249 163 -408
157 l-83 -3 19 30 c123 195 358 447 527 565 371 260 762 388 1238 406 508 20
942 -135 1280 -458 124 -118 197 -205 285 -338 368 -561 477 -1344 330 -2372
-51 -351 -146 -820 -254 -1243 l-43 -170 -22 100 c-163 717 -584 1205 -1185
1374 -204 57 -277 66 -566 65 -283 0 -408 -12 -648 -60 -574 -116 -1116 -404
-1697 -903 -556 -478 -893 -919 -1145 -1496 -104 -240 -231 -664 -289 -967
-155 -810 -11 -1448 470 -2079 420 -551 927 -821 1653 -879 607 -48 1173 70
1746 363 423 217 847 547 1165 908 526 597 933 1288 1268 2154 234 606 483
1503 571 2055 43 272 58 457 63 790 7 441 -12 674 -82 1025 -142 706 -443
1304 -875 1735 -214 214 -425 367 -691 499 -253 126 -512 208 -795 251 -160
25 -537 35 -694 19z m350 -3774 c547 -98 935 -503 1079 -1125 38 -161 52 -294
58 -515 12 -511 -79 -944 -359 -1694 -213 -573 -417 -966 -669 -1291 -96 -124
-317 -350 -447 -457 -289 -239 -652 -426 -965 -497 -241 -56 -524 -59 -797
-10 -406 72 -682 287 -878 679 -130 261 -181 546 -161 886 17 276 66 534 215
1131 228 919 345 1249 576 1634 208 346 560 716 893 938 296 197 591 299 980
340 89 9 383 -3 475 -19z"/>
</g>
</svg>
