<?xml version="1.0" standalone="no"?>
<!DOCTYPE svg PUBLIC "-//W3C//DTD SVG 20010904//EN"
 "http://www.w3.org/TR/2001/REC-SVG-20010904/DTD/svg10.dtd">
<svg version="1.0" xmlns="http://www.w3.org/2000/svg"
 width="576.000000pt" height="954.000000pt" viewBox="0 0 576.000000 954.000000"
 preserveAspectRatio="xMidYMid meet">
<metadata>
Created by potrace 1.16, written by Peter Selinger 2001-2019
</metadata>
<g transform="translate(0.000000,954.000000) scale(0.100000,-0.100000)"
fill="#000000" stroke="none">
<path d="M3430 9533 c-521 -41 -1075 -250 -1544 -585 -841 -601 -1480 -1640
-1745 -2840 -97 -434 -141 -874 -141 -1390 1 -1468 223 -2532 708 -3383 432
-758 1150 -1245 1957 -1326 161 -16 478 -6 659 21 370 56 685 174 977 369 187
124 280 202 460 381 553 551 849 1110 949 1792 45 302 51 803 15 1123 -78 686
-326 1221 -833 1797 -282 321 -601 552 -946 685 -117 45 -324 98 -471 119
-151 23 -542 26 -655 6 -557 -98 -995 -399 -1329 -913 -42 -64 -82 -125 -89
-135 -21 -32 0 603 34 966 103 1135 462 1915 1101 2396 354 266 766 399 1183
381 360 -17 625 -111 834 -298 l59 -53 -91 -22 c-264 -65 -449 -241 -519 -494
-24 -91 -24 -309 0 -400 68 -246 253 -426 503 -490 162 -42 369 -21 519 50
172 82 309 248 360 435 36 131 29 395 -15 597 -64 295 -190 529 -394 734 -269
268 -640 430 -1090 473 -101 10 -351 12 -456 4z m-185 -3748 c118 -21 182 -40
286 -85 222 -95 422 -284 575 -543 154 -260 218 -589 245 -1258 13 -330 6
-1432 -10 -1634 -47 -564 -120 -834 -299 -1101 -138 -204 -307 -357 -497 -449
-300 -145 -731 -175 -1045 -74 -327 107 -643 397 -820 754 -81 162 -108 242
-145 415 -91 433 -152 1449 -115 1895 93 1100 528 1861 1175 2054 174 52 444
63 650 26z"/>
</g>
</svg>
