<?xml version="1.0" standalone="no"?>
<!DOCTYPE svg PUBLIC "-//W3C//DTD SVG 20010904//EN"
 "http://www.w3.org/TR/2001/REC-SVG-20010904/DTD/svg10.dtd">
<svg version="1.0" xmlns="http://www.w3.org/2000/svg"
 width="1177.000000pt" height="946.000000pt" viewBox="0 0 1177.000000 946.000000"
 preserveAspectRatio="xMidYMid meet">
<metadata>
Created by potrace 1.16, written by Peter Selinger 2001-2019
</metadata>
<g transform="translate(0.000000,946.000000) scale(0.100000,-0.100000)"
fill="#000000" stroke="none">
<path d="M2370 9443 c-19 -10 -44 -33 -56 -51 -31 -46 -87 -281 -78 -328 8
-46 55 -100 97 -113 18 -5 183 -12 367 -15 184 -3 389 -10 455 -16 135 -13
289 -41 332 -62 39 -19 56 -74 50 -163 -4 -45 -344 -1425 -972 -3935 -770
-3081 -973 -3879 -999 -3935 -68 -142 -132 -200 -257 -234 -159 -44 -515 -71
-923 -71 -203 0 -221 -1 -256 -21 -20 -11 -45 -35 -55 -51 -23 -40 -74 -241
-75 -293 0 -55 29 -106 78 -133 40 -22 40 -22 284 -13 133 6 561 16 950 23
733 12 1685 3 2363 -23 288 -12 289 -12 330 10 23 12 49 36 60 53 23 40 74
240 75 293 0 55 -29 105 -76 132 -37 22 -50 23 -259 23 -387 0 -744 27 -872
65 -75 22 -87 41 -91 144 -3 85 3 112 468 1971 259 1037 475 1902 481 1923
l10 37 2060 0 c1958 0 2060 -1 2055 -17 -3 -10 -215 -857 -471 -1883 -486
-1947 -484 -1939 -563 -2047 -66 -90 -164 -129 -387 -158 -162 -20 -464 -35
-729 -35 -203 0 -221 -1 -256 -21 -20 -11 -45 -35 -55 -51 -23 -40 -74 -241
-75 -293 0 -55 29 -106 78 -133 40 -22 40 -22 284 -13 133 6 561 16 950 23
733 12 1685 3 2363 -23 288 -12 289 -12 330 10 23 12 49 36 60 53 23 40 74
240 75 293 0 55 -29 105 -76 132 -37 22 -50 23 -259 23 -387 0 -744 27 -872
65 -75 22 -87 41 -91 144 -4 85 4 114 966 3963 805 3218 975 3890 1005 3952
39 83 112 168 167 196 122 62 500 100 1005 100 304 0 310 3 365 230 35 145 33
182 -8 232 -49 58 -63 60 -360 48 -999 -38 -2182 -38 -3254 1 -302 11 -319 10
-355 -7 -21 -11 -48 -34 -60 -52 -30 -46 -86 -281 -77 -328 8 -46 55 -100 97
-113 18 -5 183 -12 367 -15 184 -3 389 -10 455 -16 135 -13 289 -41 332 -62
39 -19 56 -74 50 -163 -4 -45 -159 -683 -427 -1755 -231 -927 -425 -1702 -431
-1722 l-10 -38 -2059 0 c-1133 0 -2060 1 -2060 3 0 1 191 763 424 1694 460
1838 446 1791 543 1894 54 58 94 81 179 103 151 39 519 66 909 66 304 0 310 3
365 230 35 148 34 184 -12 236 -47 53 -66 55 -344 44 -997 -39 -2192 -37
-3414 5 -157 6 -179 5 -210 -12z"/>
</g>
</svg>
