<?xml version="1.0" standalone="no"?>
<!DOCTYPE svg PUBLIC "-//W3C//DTD SVG 20010904//EN"
 "http://www.w3.org/TR/2001/REC-SVG-20010904/DTD/svg10.dtd">
<svg version="1.0" xmlns="http://www.w3.org/2000/svg"
 width="950.000000pt" height="908.000000pt" viewBox="0 0 950.000000 908.000000"
 preserveAspectRatio="xMidYMid meet">
<metadata>
Created by potrace 1.16, written by Peter Selinger 2001-2019
</metadata>
<g transform="translate(0.000000,908.000000) scale(0.100000,-0.100000)"
fill="#000000" stroke="none">
<path d="M2280 9062 c-19 -11 -42 -30 -52 -43 -20 -28 -68 -199 -68 -245 0
-38 34 -91 77 -120 30 -20 47 -21 365 -27 421 -8 650 -32 753 -79 36 -16 50
-62 48 -158 -1 -77 -92 -450 -932 -3809 -583 -2330 -943 -3751 -962 -3797 -60
-144 -139 -225 -252 -259 -151 -45 -349 -64 -770 -72 -322 -6 -340 -7 -369
-27 -50 -34 -68 -66 -94 -171 -29 -112 -26 -149 13 -195 51 -61 56 -62 335
-50 139 5 546 15 903 21 669 12 1533 3 2191 -22 282 -11 294 -11 330 8 21 11
46 30 56 44 20 28 68 199 68 245 0 38 -34 91 -77 120 -30 20 -47 21 -365 27
-421 8 -650 32 -753 79 -35 16 -50 62 -49 154 1 71 49 275 424 1772 l422 1691
1277 4 c1254 3 1279 4 1431 25 427 61 826 171 1180 325 724 314 1306 779 1681
1342 102 152 236 424 288 581 163 493 138 992 -71 1422 -96 198 -214 358 -389
528 -381 369 -895 594 -1559 681 -126 16 -307 18 -2590 20 -2381 3 -2456 3
-2490 -15z m4476 -442 c433 -34 744 -126 1003 -298 100 -66 230 -192 290 -281
213 -314 226 -742 44 -1465 -215 -861 -511 -1316 -1071 -1651 -284 -170 -641
-291 -1017 -345 -250 -36 -382 -40 -1413 -40 -960 0 -1013 1 -1008 18 3 9 213
847 466 1862 253 1015 472 1879 485 1920 34 102 85 190 125 218 43 29 115 50
210 61 107 12 1730 13 1886 1z"/>
</g>
</svg>
