<?xml version="1.0" standalone="no"?>
<!DOCTYPE svg PUBLIC "-//W3C//DTD SVG 20010904//EN"
 "http://www.w3.org/TR/2001/REC-SVG-20010904/DTD/svg10.dtd">
<svg version="1.0" xmlns="http://www.w3.org/2000/svg"
 width="669.000000pt" height="976.000000pt" viewBox="0 0 669.000000 976.000000"
 preserveAspectRatio="xMidYMid meet">
<metadata>
Created by potrace 1.16, written by Peter Selinger 2001-2019
</metadata>
<g transform="translate(0.000000,976.000000) scale(0.100000,-0.100000)"
fill="#000000" stroke="none">
<path d="M5525 9683 c-1008 -80 -979 -76 -1022 -141 -30 -46 -86 -281 -77
-328 8 -46 55 -100 97 -113 18 -5 142 -12 277 -15 270 -6 386 -17 503 -48 135
-35 160 -83 139 -256 -6 -48 -192 -811 -413 -1696 l-402 -1609 -31 53 c-188
318 -467 556 -776 660 -182 61 -413 84 -631 61 -692 -72 -1419 -474 -1999
-1106 -305 -333 -533 -666 -737 -1079 -220 -448 -360 -902 -430 -1406 -25
-181 -25 -676 0 -845 143 -955 677 -1598 1472 -1774 217 -48 500 -52 700 -11
253 53 540 176 785 338 193 127 321 232 512 420 92 91 169 164 171 161 1 -2
13 -38 26 -79 132 -429 488 -741 959 -840 141 -30 362 -37 475 -16 301 57 537
228 742 536 200 301 353 695 525 1352 69 260 69 276 10 333 -31 30 -32 30
-165 33 -145 4 -179 -5 -211 -53 -9 -14 -44 -134 -79 -267 -151 -583 -254
-877 -393 -1121 -170 -299 -365 -433 -602 -413 -128 11 -216 70 -274 184 -79
156 -93 445 -36 775 10 62 474 1932 1029 4155 556 2223 1011 4061 1011 4083 0
88 -73 150 -172 148 -29 -1 -471 -35 -983 -76z m-1955 -3858 c234 -56 433
-202 586 -431 107 -160 203 -399 248 -614 l22 -105 -380 -1520 -381 -1520 -69
-95 c-296 -405 -604 -702 -937 -901 -438 -261 -879 -300 -1156 -103 -371 263
-506 810 -392 1584 10 74 38 225 60 335 50 247 249 1045 323 1295 209 711 466
1193 835 1572 280 288 566 459 856 513 97 18 289 13 385 -10z"/>
</g>
</svg>
