<?xml version="1.0" standalone="no"?>
<!DOCTYPE svg PUBLIC "-//W3C//DTD SVG 20010904//EN"
 "http://www.w3.org/TR/2001/REC-SVG-20010904/DTD/svg10.dtd">
<svg version="1.0" xmlns="http://www.w3.org/2000/svg"
 width="753.000000pt" height="860.000000pt" viewBox="0 0 753.000000 860.000000"
 preserveAspectRatio="xMidYMid meet">
<metadata>
Created by potrace 1.16, written by Peter Selinger 2001-2019
</metadata>
<g transform="translate(0.000000,860.000000) scale(0.100000,-0.100000)"
fill="#000000" stroke="none">
<path d="M1295 8580 c-415 -90 -768 -402 -900 -794 -39 -117 -31 -176 31 -217
24 -15 47 -19 125 -19 115 0 154 19 177 85 65 189 119 281 229 393 131 134
300 218 460 229 79 6 86 4 149 -27 166 -82 314 -286 544 -755 260 -529 470
-1052 700 -1745 174 -523 505 -1643 492 -1664 -4 -7 -738 -823 -1632 -1815
-894 -991 -1635 -1821 -1647 -1843 -84 -151 76 -314 233 -238 32 16 375 391
1604 1756 1026 1138 1566 1731 1571 1722 3 -7 30 -94 59 -193 169 -583 381
-1239 528 -1635 206 -553 413 -1030 518 -1187 212 -319 600 -532 1104 -608
153 -23 417 -31 520 -16 234 35 460 148 645 323 151 142 259 310 320 496 32
97 29 136 -15 185 -28 32 -30 32 -132 36 -152 5 -167 -7 -217 -159 -47 -144
-179 -317 -317 -416 -172 -123 -373 -165 -498 -105 -144 70 -314 298 -501 671
-410 819 -698 1616 -1163 3215 l-78 270 30 35 c17 19 744 827 1616 1795 872
968 1599 1777 1617 1798 80 92 61 216 -42 274 -80 45 -165 22 -251 -68 -29
-30 -732 -810 -1564 -1734 -832 -924 -1516 -1681 -1519 -1683 -3 -1 -17 35
-30 80 -167 587 -439 1429 -600 1854 -144 384 -352 870 -433 1014 -175 311
-501 536 -931 640 -179 44 -309 60 -522 65 -164 4 -203 2 -280 -15z"/>
</g>
</svg>
