<?xml version="1.0" standalone="no"?>
<!DOCTYPE svg PUBLIC "-//W3C//DTD SVG 20010904//EN"
 "http://www.w3.org/TR/2001/REC-SVG-20010904/DTD/svg10.dtd">
<svg version="1.0" xmlns="http://www.w3.org/2000/svg"
 width="690.000000pt" height="602.000000pt" viewBox="0 0 690.000000 602.000000"
 preserveAspectRatio="xMidYMid meet">
<metadata>
Created by potrace 1.16, written by Peter Selinger 2001-2019
</metadata>
<g transform="translate(0.000000,602.000000) scale(0.100000,-0.100000)"
fill="#000000" stroke="none">
<path d="M1605 6010 c-272 -43 -553 -197 -790 -435 -336 -337 -637 -918 -796
-1536 -22 -85 -22 -86 -3 -124 31 -63 63 -79 158 -83 143 -6 177 21 216 177
58 234 184 568 296 788 227 447 506 736 809 840 165 56 346 54 429 -4 128 -90
158 -353 81 -712 -36 -170 -70 -271 -260 -781 -314 -841 -456 -1269 -555
-1664 -98 -389 -124 -602 -117 -943 4 -206 8 -254 31 -359 66 -309 186 -545
370 -729 199 -198 471 -336 791 -400 259 -52 573 -58 780 -15 425 89 811 330
1137 708 50 59 94 108 98 110 3 1 14 -24 24 -55 30 -97 122 -263 199 -357 232
-288 622 -453 1026 -433 510 25 873 423 1141 1252 46 143 126 428 185 661 l38
150 -19 39 c-31 63 -63 79 -158 83 -97 5 -146 -12 -174 -58 -11 -16 -38 -108
-62 -203 -148 -595 -283 -971 -435 -1217 -78 -127 -223 -273 -315 -317 -126
-61 -289 -68 -396 -17 -90 43 -155 137 -191 281 -28 109 -25 456 6 628 12 72
248 1030 523 2130 421 1684 500 2012 502 2075 3 178 -91 307 -262 360 -230 71
-519 -65 -628 -294 -30 -64 -121 -416 -525 -2029 -268 -1074 -495 -1994 -505
-2045 -14 -80 -24 -104 -71 -179 -187 -297 -430 -562 -658 -715 -250 -168
-478 -241 -760 -242 -173 0 -248 14 -361 70 -251 124 -392 368 -434 752 -16
140 -8 460 15 622 77 552 234 1078 670 2250 95 256 182 503 193 550 74 308 50
581 -74 839 -141 295 -399 491 -746 567 -86 19 -336 27 -423 14z"/>
</g>
</svg>
