<?xml version="1.0" standalone="no"?>
<!DOCTYPE svg PUBLIC "-//W3C//DTD SVG 20010904//EN"
 "http://www.w3.org/TR/2001/REC-SVG-20010904/DTD/svg10.dtd">
<svg version="1.0" xmlns="http://www.w3.org/2000/svg"
 width="615.000000pt" height="860.000000pt" viewBox="0 0 615.000000 860.000000"
 preserveAspectRatio="xMidYMid meet">
<metadata>
Created by potrace 1.16, written by Peter Selinger 2001-2019
</metadata>
<g transform="translate(0.000000,860.000000) scale(0.100000,-0.100000)"
fill="#000000" stroke="none">
<path d="M3800 8594 c-14 -2 -65 -9 -115 -15 -125 -15 -367 -78 -515 -134
-171 -65 -433 -199 -593 -304 -575 -380 -1047 -921 -1377 -1582 -149 -300
-237 -535 -319 -857 -88 -341 -116 -588 -108 -949 4 -206 9 -272 30 -393 153
-864 662 -1438 1416 -1597 112 -24 148 -27 331 -27 177 0 219 3 310 22 396 86
813 318 1154 642 45 43 76 67 73 55 -4 -11 -98 -389 -211 -841 -113 -451 -219
-858 -236 -905 -76 -210 -228 -473 -374 -648 -95 -114 -299 -307 -402 -380
-267 -190 -528 -297 -804 -331 -105 -13 -368 -13 -605 0 -212 12 -328 24 -485
51 -100 17 -139 26 -198 45 -8 2 28 25 79 50 126 63 255 190 318 312 129 251
119 504 -27 663 -275 300 -858 154 -1058 -266 -76 -159 -106 -386 -69 -530 97
-383 489 -589 1245 -655 211 -18 708 -24 865 -11 923 81 1773 546 2220 1216
86 128 190 340 235 474 58 177 1560 6207 1560 6264 -1 385 -485 511 -791 207
-76 -76 -119 -154 -153 -281 l-23 -84 -31 61 c-73 145 -216 323 -342 429 -166
137 -315 214 -519 267 -102 26 -136 30 -286 33 -93 2 -181 2 -195 -1z m385
-364 c223 -57 419 -204 565 -421 106 -158 170 -308 226 -526 l34 -133 -363
-1454 -364 -1453 -47 -66 c-434 -608 -991 -1020 -1477 -1091 -207 -31 -345
-14 -496 60 -311 153 -492 521 -510 1039 -12 347 42 700 218 1407 169 681 262
973 421 1323 321 705 872 1231 1395 1330 105 20 291 13 398 -15z"/>
</g>
</svg>
