<?xml version="1.0" standalone="no"?>
<!DOCTYPE svg PUBLIC "-//W3C//DTD SVG 20010904//EN"
 "http://www.w3.org/TR/2001/REC-SVG-20010904/DTD/svg10.dtd">
<svg version="1.0" xmlns="http://www.w3.org/2000/svg"
 width="894.000000pt" height="938.000000pt" viewBox="0 0 894.000000 938.000000"
 preserveAspectRatio="xMidYMid meet">
<metadata>
Created by potrace 1.16, written by Peter Selinger 2001-2019
</metadata>
<g transform="translate(0.000000,938.000000) scale(0.100000,-0.100000)"
fill="#000000" stroke="none">
<path d="M2125 9373 c-188 -17 -438 -92 -640 -192 -241 -119 -422 -249 -634
-455 -385 -376 -669 -849 -816 -1359 -41 -141 -41 -178 0 -220 30 -30 63 -37
164 -37 101 0 145 14 197 62 37 35 47 52 74 141 64 203 172 381 333 545 313
319 730 503 1173 519 870 31 1363 -503 1455 -1575 15 -183 6 -721 -16 -927
-38 -358 -136 -923 -208 -1200 -13 -49 -232 -920 -486 -1935 -254 -1015 -471
-1870 -483 -1900 -61 -156 -163 -262 -289 -301 -180 -56 -607 -89 -1165 -89
-254 0 -262 -1 -294 -22 -52 -36 -69 -67 -96 -173 -29 -112 -26 -149 13 -195
52 -62 52 -62 386 -51 166 6 647 16 1069 22 788 12 1830 3 2605 -22 330 -11
344 -10 380 8 20 11 45 30 55 44 20 28 68 199 68 245 0 38 -34 91 -79 121 -33
22 -40 23 -295 23 -455 0 -865 26 -1033 65 -143 33 -169 65 -167 210 1 84 31
212 462 1930 253 1012 468 1874 476 1915 55 265 249 876 402 1262 588 1489
1384 2355 2319 2524 143 26 476 26 595 1 397 -85 665 -314 751 -642 29 -108
31 -276 5 -406 -17 -89 -17 -98 -2 -130 24 -52 49 -62 156 -67 127 -5 173 8
231 67 43 43 48 53 68 141 86 390 87 774 0 1090 -144 521 -498 862 -989 951
-110 20 -444 17 -590 -5 -611 -92 -1161 -387 -1676 -901 -538 -537 -1001
-1264 -1401 -2200 -35 -82 -62 -134 -59 -115 31 211 32 974 2 1230 -55 464
-166 853 -324 1140 -126 228 -336 465 -521 588 -232 153 -491 241 -800 272
-97 9 -286 11 -376 3z"/>
</g>
</svg>
