<?xml version="1.0" standalone="no"?>
<!DOCTYPE svg PUBLIC "-//W3C//DTD SVG 20010904//EN"
 "http://www.w3.org/TR/2001/REC-SVG-20010904/DTD/svg10.dtd">
<svg version="1.0" xmlns="http://www.w3.org/2000/svg"
 width="616.000000pt" height="911.000000pt" viewBox="0 0 616.000000 911.000000"
 preserveAspectRatio="xMidYMid meet">
<metadata>
Created by potrace 1.16, written by Peter Selinger 2001-2019
</metadata>
<g transform="translate(0.000000,911.000000) scale(0.100000,-0.100000)"
fill="#000000" stroke="none">
<path d="M4274 9091 c-22 -10 -56 -38 -76 -62 -64 -80 -4170 -5780 -4185
-5810 -11 -22 -14 -70 -11 -228 3 -219 5 -226 72 -275 l27 -21 1785 -3 1785
-2 -3 -953 c-3 -902 -4 -955 -22 -1002 -23 -63 -59 -111 -95 -130 -40 -20
-206 -52 -341 -65 -63 -6 -261 -13 -440 -17 -362 -6 -377 -9 -419 -76 -19 -31
-21 -49 -21 -187 0 -175 10 -204 82 -241 39 -20 47 -20 312 -10 942 39 2060
39 3002 0 265 -10 273 -10 312 10 72 37 82 66 82 241 0 138 -2 156 -21 187
-42 67 -57 70 -419 76 -179 4 -377 11 -440 17 -135 13 -301 45 -341 65 -36 19
-72 67 -95 130 -18 47 -19 100 -22 1003 l-3 952 627 0 c619 0 627 0 664 21 68
38 80 75 80 239 0 164 -12 201 -80 239 -37 21 -45 21 -664 21 l-626 0 -2 2899
-3 2900 -21 27 c-49 66 -58 69 -257 72 -161 2 -187 0 -223 -17z m-527 -5878
c-2 -2 -727 -2 -1611 -1 l-1607 3 1608 2230 1608 2230 3 -2229 c1 -1226 1
-2231 -1 -2233z"/>
</g>
</svg>
