<?xml version="1.0" standalone="no"?>
<!DOCTYPE svg PUBLIC "-//W3C//DTD SVG 20010904//EN"
 "http://www.w3.org/TR/2001/REC-SVG-20010904/DTD/svg10.dtd">
<svg version="1.0" xmlns="http://www.w3.org/2000/svg"
 width="883.000000pt" height="603.000000pt" viewBox="0 0 883.000000 603.000000"
 preserveAspectRatio="xMidYMid meet">
<metadata>
Created by potrace 1.16, written by Peter Selinger 2001-2019
</metadata>
<g transform="translate(0.000000,603.000000) scale(0.100000,-0.100000)"
fill="#000000" stroke="none">
<path d="M8140 6023 c-14 -2 -54 -13 -90 -24 -326 -102 -570 -468 -496 -744
26 -100 62 -150 204 -293 197 -197 301 -358 378 -587 71 -214 94 -502 58 -744
-37 -253 -257 -1045 -403 -1454 -246 -685 -486 -1114 -800 -1427 -285 -285
-558 -405 -921 -404 -244 0 -406 46 -581 165 -311 210 -442 685 -363 1309 30
239 74 426 465 1995 434 1739 423 1689 386 1805 -96 293 -513 336 -769 80
-119 -119 -96 -42 -515 -1717 -205 -823 -387 -1556 -404 -1629 -61 -275 -71
-367 -76 -673 l-3 -283 -69 -138 c-130 -260 -241 -425 -389 -581 -115 -121
-199 -186 -317 -244 -162 -81 -341 -109 -544 -86 -760 89 -1051 701 -845 1776
83 432 239 922 604 1900 183 491 202 552 225 700 58 385 -59 757 -314 998
-196 185 -433 281 -726 294 -220 10 -388 -27 -600 -132 -161 -80 -277 -166
-420 -310 -340 -343 -637 -916 -796 -1536 -22 -85 -22 -86 -3 -124 31 -63 63
-79 158 -83 143 -6 177 21 216 177 58 234 184 568 296 788 189 373 421 644
665 777 203 111 461 137 573 59 128 -90 157 -351 81 -711 -38 -178 -68 -267
-258 -777 -307 -823 -447 -1240 -548 -1631 -150 -584 -158 -1049 -23 -1454
152 -457 481 -769 984 -934 265 -87 492 -120 815 -121 242 0 311 10 475 67
320 113 617 370 845 734 l53 84 42 -77 c97 -180 216 -323 364 -437 108 -83
161 -116 286 -174 283 -134 618 -202 995 -202 886 0 1566 665 2080 2035 145
386 274 821 430 1445 193 777 256 1127 272 1510 11 292 -26 513 -118 699 -119
241 -336 371 -559 334z"/>
</g>
</svg>
