<?xml version="1.0" standalone="no"?>
<!DOCTYPE svg PUBLIC "-//W3C//DTD SVG 20010904//EN"
 "http://www.w3.org/TR/2001/REC-SVG-20010904/DTD/svg10.dtd">
<svg version="1.0" xmlns="http://www.w3.org/2000/svg"
 width="671.000000pt" height="613.000000pt" viewBox="0 0 671.000000 613.000000"
 preserveAspectRatio="xMidYMid meet">
<metadata>
Created by potrace 1.16, written by Peter Selinger 2001-2019
</metadata>
<g transform="translate(0.000000,613.000000) scale(0.100000,-0.100000)"
fill="#000000" stroke="none">
<path d="M1375 6055 c-528 -41 -976 -77 -995 -80 -20 -4 -49 -21 -70 -43 -35
-35 -40 -49 -85 -233 l-49 -196 25 -48 c44 -89 45 -89 332 -97 282 -7 415 -19
530 -50 135 -36 161 -83 138 -260 -7 -51 -276 -1149 -606 -2470 -327 -1308
-595 -2392 -595 -2409 0 -45 36 -103 79 -127 56 -31 174 -46 324 -39 110 5
166 14 342 55 1378 325 2647 989 3724 1951 153 136 538 525 670 676 432 494
773 995 1045 1535 210 415 343 754 464 1180 44 155 46 172 47 285 0 102 -4
129 -24 178 -46 115 -168 215 -307 251 -219 57 -506 -49 -659 -242 -69 -86
-108 -178 -165 -387 -126 -466 -287 -882 -516 -1335 -572 -1131 -1418 -2095
-2439 -2777 -260 -174 -643 -382 -925 -504 -151 -65 -393 -159 -398 -154 -1 1
293 1183 653 2626 487 1945 655 2633 651 2659 -6 39 -30 74 -69 104 -21 15
-45 21 -95 22 -37 2 -499 -31 -1027 -71z"/>
</g>
</svg>
