<?xml version="1.0" standalone="no"?>
<!DOCTYPE svg PUBLIC "-//W3C//DTD SVG 20010904//EN"
 "http://www.w3.org/TR/2001/REC-SVG-20010904/DTD/svg10.dtd">
<svg version="1.0" xmlns="http://www.w3.org/2000/svg"
 width="384.000000pt" height="1069.000000pt" viewBox="0 0 384.000000 1069.000000"
 preserveAspectRatio="xMidYMid meet">
<metadata>
Created by potrace 1.16, written by Peter Selinger 2001-2019
</metadata>
<g transform="translate(0.000000,1069.000000) scale(0.100000,-0.100000)"
fill="#000000" stroke="none">
<path d="M95 10676 c-37 -16 -70 -52 -84 -89 -8 -20 -11 -1575 -11 -5249 l0
-5220 21 -38 c39 -69 74 -80 257 -80 l160 0 92 61 c116 76 402 280 583 416
1126 848 1885 1692 2307 2568 204 421 322 814 381 1265 26 198 36 528 20 675
-77 716 -465 1311 -1047 1603 -280 140 -569 195 -913 173 -465 -30 -891 -165
-1215 -385 l-96 -65 0 2131 0 2130 -21 38 c-39 69 -74 80 -250 80 -106 -1
-163 -5 -184 -14z m1851 -4610 c234 -62 410 -299 503 -676 52 -214 65 -335 65
-625 0 -353 -33 -630 -114 -961 -227 -924 -761 -1834 -1644 -2809 -90 -99
-173 -189 -185 -199 l-21 -19 2 2294 c3 2200 4 2296 21 2349 28 82 81 178 136
245 164 200 479 352 831 400 130 18 342 18 406 1z"/>
</g>
</svg>
