<?xml version="1.0" standalone="no"?>
<!DOCTYPE svg PUBLIC "-//W3C//DTD SVG 20010904//EN"
 "http://www.w3.org/TR/2001/REC-SVG-20010904/DTD/svg10.dtd">
<svg version="1.0" xmlns="http://www.w3.org/2000/svg"
 width="820.000000pt" height="627.000000pt" viewBox="0 0 820.000000 627.000000"
 preserveAspectRatio="xMidYMid meet">
<metadata>
Created by potrace 1.16, written by Peter Selinger 2001-2019
</metadata>
<g transform="translate(0.000000,627.000000) scale(0.100000,-0.100000)"
fill="#000000" stroke="none">
<path d="M7365 6255 c-415 -91 -750 -549 -660 -900 31 -120 59 -161 210 -310
194 -192 282 -313 360 -494 104 -244 141 -552 100 -840 -54 -382 -277 -969
-525 -1384 -371 -624 -846 -1018 -1336 -1110 -250 -47 -526 -21 -759 73 -280
112 -513 350 -650 665 l-33 76 58 122 c199 420 426 1086 485 1425 55 314 -48
584 -253 663 -270 103 -580 -75 -761 -439 -70 -139 -145 -421 -201 -754 -43
-262 -61 -457 -67 -737 l-6 -253 -31 -37 c-224 -263 -445 -454 -689 -595 -273
-157 -525 -229 -812 -230 -286 0 -492 64 -678 214 -242 194 -392 495 -454 906
-24 165 -24 547 1 729 108 786 443 1492 1186 2500 112 153 145 213 160 297 25
136 -50 274 -180 332 -151 68 -314 30 -442 -102 -89 -92 -291 -390 -448 -663
-100 -173 -286 -553 -365 -744 -267 -644 -464 -1382 -535 -2005 -102 -890 10
-1589 331 -2070 37 -55 106 -137 164 -195 191 -192 404 -303 699 -367 86 -19
134 -22 321 -22 186 0 238 3 337 22 373 71 713 232 1048 498 110 88 375 352
475 474 43 52 81 96 84 98 4 1 13 -15 20 -35 33 -93 128 -277 198 -383 102
-154 277 -331 420 -424 264 -172 561 -256 908 -256 429 1 846 156 1230 460
108 85 352 332 451 456 436 545 801 1301 1060 2194 89 306 243 943 303 1250
149 768 128 1260 -65 1581 -63 104 -185 222 -275 266 -122 60 -254 77 -384 48z"/>
</g>
</svg>
