<?xml version="1.0" standalone="no"?>
<!DOCTYPE svg PUBLIC "-//W3C//DTD SVG 20010904//EN"
 "http://www.w3.org/TR/2001/REC-SVG-20010904/DTD/svg10.dtd">
<svg version="1.0" xmlns="http://www.w3.org/2000/svg"
 width="592.000000pt" height="1259.000000pt" viewBox="0 0 592.000000 1259.000000"
 preserveAspectRatio="xMidYMid meet">
<metadata>
Created by potrace 1.16, written by Peter Selinger 2001-2019
</metadata>
<g transform="translate(0.000000,1259.000000) scale(0.100000,-0.100000)"
fill="#000000" stroke="none">
<path d="M3776 12566 c-66 -28 -126 -80 -161 -141 -28 -48 -69 -218 -97 -403
-17 -107 -21 -186 -22 -362 -1 -238 7 -308 51 -488 14 -56 24 -104 22 -105 -2
-2 -38 -23 -79 -47 -621 -360 -1322 -1009 -1892 -1751 -678 -884 -1163 -1847
-1396 -2774 -142 -561 -196 -953 -196 -1430 -1 -369 15 -528 83 -810 188 -776
678 -1334 1457 -1661 60 -25 464 -165 899 -311 434 -146 831 -285 882 -309
160 -74 314 -197 396 -315 128 -187 162 -445 90 -674 -54 -173 -187 -345 -323
-419 -84 -46 -160 -59 -295 -53 -348 18 -674 126 -945 315 -136 94 -209 111
-315 71 -113 -42 -205 -175 -191 -278 10 -75 43 -118 141 -186 303 -210 646
-352 995 -410 150 -25 406 -30 522 -11 496 82 939 441 1192 966 135 281 196
556 183 825 -26 551 -338 987 -877 1226 -58 25 -476 171 -930 324 -454 153
-865 295 -913 316 -495 215 -818 551 -972 1013 -73 217 -104 410 -112 701 -19
667 161 1496 494 2278 519 1221 1440 2399 2296 2935 l67 42 50 -39 c123 -97
261 -159 417 -186 103 -18 445 -20 692 -4 532 33 812 165 901 424 26 76 26
178 1 245 -88 231 -392 319 -1101 320 -265 0 -358 -10 -540 -57 -74 -19 -145
-37 -156 -40 -20 -4 -23 1 -35 69 -9 48 -14 147 -13 288 0 223 15 349 64 558
34 144 23 231 -38 295 -71 75 -193 96 -296 53z"/>
</g>
</svg>
