<?xml version="1.0" standalone="no"?>
<!DOCTYPE svg PUBLIC "-//W3C//DTD SVG 20010904//EN"
 "http://www.w3.org/TR/2001/REC-SVG-20010904/DTD/svg10.dtd">
<svg version="1.0" xmlns="http://www.w3.org/2000/svg"
 width="521.000000pt" height="895.000000pt" viewBox="0 0 521.000000 895.000000"
 preserveAspectRatio="xMidYMid meet">
<metadata>
Created by potrace 1.16, written by Peter Selinger 2001-2019
</metadata>
<g transform="translate(0.000000,895.000000) scale(0.100000,-0.100000)"
fill="#000000" stroke="none">
<path d="M3659 8935 c-191 -31 -334 -77 -514 -167 -590 -292 -1143 -967 -1485
-1812 -59 -148 -60 -174 -5 -234 l33 -37 139 -3 c200 -4 182 -21 308 278 180
429 432 816 715 1100 280 281 544 427 855 471 106 15 230 6 294 -22 206 -88
276 -435 191 -937 -18 -102 -1298 -5247 -1386 -5570 -69 -251 -202 -564 -334
-782 -276 -458 -612 -733 -972 -796 -149 -26 -415 -7 -587 42 l-55 16 43 19
c121 54 261 176 336 293 112 176 161 409 120 571 -64 250 -289 399 -574 382
-368 -22 -662 -272 -757 -642 -22 -89 -25 -115 -21 -230 3 -106 9 -145 30
-210 133 -405 632 -665 1278 -665 553 0 1147 232 1625 634 120 101 315 300
407 416 212 265 394 612 480 915 58 203 1348 5382 1362 5467 20 122 19 360 0
474 -9 49 -32 136 -51 193 -142 427 -485 722 -952 821 -128 28 -400 35 -523
15z"/>
</g>
</svg>
