<?xml version="1.0" standalone="no"?>
<!DOCTYPE svg PUBLIC "-//W3C//DTD SVG 20010904//EN"
 "http://www.w3.org/TR/2001/REC-SVG-20010904/DTD/svg10.dtd">
<svg version="1.0" xmlns="http://www.w3.org/2000/svg"
 width="369.000000pt" height="1244.000000pt" viewBox="0 0 369.000000 1244.000000"
 preserveAspectRatio="xMidYMid meet">
<metadata>
Created by potrace 1.16, written by Peter Selinger 2001-2019
</metadata>
<g transform="translate(0.000000,1244.000000) scale(0.100000,-0.100000)"
fill="#000000" stroke="none">
<path d="M2890 12423 c-62 -22 -95 -47 -114 -87 -15 -31 -16 -164 -16 -1443
l0 -1408 -917 -301 -918 -301 -5 1371 c-3 754 -6 1372 -8 1373 -1 1 -16 18
-33 38 -46 52 -94 62 -178 36 -71 -22 -113 -48 -134 -84 -9 -17 -13 -335 -17
-1441 l-5 -1418 -227 -74 c-152 -50 -237 -83 -258 -100 -61 -52 -60 -42 -60
-519 0 -481 0 -482 62 -527 56 -39 96 -35 293 31 99 34 183 61 187 61 5 0 7
-1033 6 -2296 l-3 -2296 -227 -74 c-152 -50 -237 -83 -258 -100 -61 -52 -60
-42 -60 -519 0 -481 0 -482 62 -527 56 -39 96 -35 293 31 99 34 183 61 187 61
4 0 8 -404 8 -897 0 -1002 -4 -941 69 -990 55 -37 168 -24 242 28 62 43 59 -5
59 1036 l0 948 918 301 917 301 5 -911 c3 -501 6 -912 8 -913 1 -1 16 -18 33
-38 46 -52 94 -62 178 -36 71 22 113 48 134 84 9 17 13 242 17 981 l5 958 230
75 c127 42 242 84 256 94 58 41 59 46 59 524 0 481 0 482 -62 527 -56 39 -96
35 -293 -31 -99 -34 -183 -61 -187 -61 -5 0 -7 1033 -6 2296 l3 2296 230 75
c127 42 242 84 256 94 58 41 59 46 59 524 0 481 0 482 -62 527 -56 39 -96 35
-293 -31 -99 -34 -183 -61 -187 -61 -4 0 -8 611 -8 1358 0 1272 -1 1359 -18
1392 -37 75 -120 98 -222 63z m-130 -6361 l0 -2297 -697 -229 c-384 -126 -798
-262 -920 -302 l-223 -72 0 2297 0 2296 918 302 c504 166 918 302 920 302 1 1
2 -1033 2 -2297z"/>
</g>
</svg>
