<?xml version="1.0" standalone="no"?>
<!DOCTYPE svg PUBLIC "-//W3C//DTD SVG 20010904//EN"
 "http://www.w3.org/TR/2001/REC-SVG-20010904/DTD/svg10.dtd">
<svg version="1.0" xmlns="http://www.w3.org/2000/svg"
 width="520.000000pt" height="976.000000pt" viewBox="0 0 520.000000 976.000000"
 preserveAspectRatio="xMidYMid meet">
<metadata>
Created by potrace 1.16, written by Peter Selinger 2001-2019
</metadata>
<g transform="translate(0.000000,976.000000) scale(0.100000,-0.100000)"
fill="#000000" stroke="none">
<path d="M1610 9684 c-1009 -80 -988 -77 -1028 -143 -10 -16 -33 -92 -51 -169
l-34 -139 24 -49 c44 -88 45 -88 332 -96 282 -7 415 -19 530 -50 135 -36 161
-83 138 -260 -7 -50 -327 -1351 -720 -2927 -390 -1560 -721 -2901 -735 -2981
-45 -253 -59 -405 -59 -675 0 -271 13 -408 59 -628 57 -268 187 -591 320 -793
313 -476 798 -752 1354 -771 498 -18 1037 157 1555 503 761 508 1395 1371
1694 2309 80 248 140 517 178 785 25 181 25 676 0 845 -68 452 -221 834 -452
1130 -357 457 -894 706 -1475 682 -172 -8 -293 -31 -480 -93 -309 -102 -676
-326 -949 -580 -40 -37 -62 -51 -58 -39 40 132 1007 4036 1007 4066 0 88 -73
150 -172 148 -29 -1 -469 -34 -978 -75z m1855 -3859 c263 -71 464 -281 569
-596 118 -353 114 -790 -15 -1424 -50 -247 -249 -1045 -323 -1295 -209 -711
-466 -1193 -835 -1572 -175 -180 -330 -299 -511 -392 -350 -180 -709 -179
-967 3 -393 278 -538 857 -422 1681 37 266 88 488 325 1442 l236 946 71 99
c155 216 349 437 507 580 339 306 668 485 990 538 105 18 291 13 375 -10z"/>
</g>
</svg>
