<?xml version="1.0" standalone="no"?>
<!DOCTYPE svg PUBLIC "-//W3C//DTD SVG 20010904//EN"
 "http://www.w3.org/TR/2001/REC-SVG-20010904/DTD/svg10.dtd">
<svg version="1.0" xmlns="http://www.w3.org/2000/svg"
 width="752.000000pt" height="991.000000pt" viewBox="0 0 752.000000 991.000000"
 preserveAspectRatio="xMidYMid meet">
<metadata>
Created by potrace 1.16, written by Peter Selinger 2001-2019
</metadata>
<g transform="translate(0.000000,991.000000) scale(0.100000,-0.100000)"
fill="#000000" stroke="none">
<path d="M5306 9895 c-414 -68 -808 -288 -1146 -641 -345 -363 -594 -821 -716
-1319 -47 -194 -64 -313 -70 -505 -36 -975 563 -1734 1791 -2272 83 -36 220
-92 305 -123 85 -32 156 -59 158 -61 5 -3 -190 -766 -263 -1029 -310 -1111
-595 -1807 -1021 -2488 -186 -297 -389 -546 -564 -692 -244 -204 -452 -273
-737 -247 -305 27 -523 126 -663 301 -168 209 -224 595 -155 1069 32 216 80
423 370 1583 163 651 303 1227 311 1279 18 124 18 335 -1 444 -94 538 -476
916 -1049 1038 -81 17 -137 21 -286 22 -215 1 -288 -14 -446 -88 -123 -58
-202 -114 -308 -216 -314 -302 -545 -794 -766 -1630 -57 -219 -57 -240 0 -295
l31 -30 184 -3 c257 -4 254 -6 311 210 97 368 130 486 176 628 188 575 390
861 646 911 72 13 173 7 225 -15 88 -36 151 -125 189 -264 28 -104 30 -363 4
-537 -10 -68 -145 -630 -311 -1295 -161 -646 -307 -1242 -324 -1325 -108 -537
-106 -954 8 -1296 47 -140 94 -236 172 -349 66 -97 211 -243 312 -315 150
-105 401 -212 628 -265 337 -79 865 -103 1114 -50 325 69 652 234 980 496 149
119 494 466 646 649 739 894 1320 2030 1680 3285 29 102 54 187 55 189 2 1
117 -20 256 -48 139 -28 269 -51 288 -51 46 0 97 32 115 72 21 47 75 271 75
312 0 43 -46 100 -93 115 -18 5 -139 31 -269 57 -184 36 -238 50 -238 62 0 8
16 88 35 177 289 1344 264 2544 -72 3455 -19 52 -63 154 -97 225 -229 477
-529 746 -948 851 -131 33 -382 42 -522 19z m344 -524 c295 -94 453 -492 489
-1236 25 -510 -46 -1139 -220 -1955 -50 -233 -156 -691 -162 -696 -8 -9 -378
149 -552 235 -227 112 -375 202 -544 328 -134 101 -341 303 -425 415 -160 216
-254 441 -292 700 -20 138 -15 424 11 563 52 287 155 570 290 801 286 489 675
800 1081 864 91 14 249 5 324 -19z"/>
</g>
</svg>
