<?xml version="1.0" standalone="no"?>
<!DOCTYPE svg PUBLIC "-//W3C//DTD SVG 20010904//EN"
 "http://www.w3.org/TR/2001/REC-SVG-20010904/DTD/svg10.dtd">
<svg version="1.0" xmlns="http://www.w3.org/2000/svg"
 width="612.000000pt" height="880.000000pt" viewBox="0 0 612.000000 880.000000"
 preserveAspectRatio="xMidYMid meet">
<metadata>
Created by potrace 1.16, written by Peter Selinger 2001-2019
</metadata>
<g transform="translate(0.000000,880.000000) scale(0.100000,-0.100000)"
fill="#000000" stroke="none">
<path d="M3814 8784 c-441 -53 -935 -256 -1359 -559 -184 -132 -307 -237 -496
-425 -108 -107 -229 -235 -271 -285 -241 -289 -433 -584 -598 -920 -179 -362
-249 -570 -410 -1216 -394 -1578 -578 -2487 -656 -3244 -25 -237 -25 -700 -1
-837 44 -249 129 -421 286 -579 300 -301 850 -449 1671 -449 219 0 358 9 770
47 302 28 747 37 914 19 69 -7 84 -12 109 -38 29 -29 30 -30 23 -111 -5 -72
-4 -86 14 -115 40 -65 65 -72 253 -72 234 0 248 8 287 159 72 284 66 550 -16
719 -36 74 -131 172 -201 209 -156 83 -429 134 -868 164 -88 5 -497 14 -910
19 -784 9 -918 16 -1135 60 -245 50 -413 137 -507 265 -82 110 -106 216 -105
470 1 320 55 728 184 1383 l51 263 71 -138 c120 -233 216 -364 395 -535 263
-253 600 -416 986 -480 122 -20 482 -17 625 6 1114 174 2193 1051 2771 2251
199 414 331 852 389 1293 19 142 28 416 19 587 -36 718 -341 1349 -829 1716
-404 303 -928 437 -1456 373z m431 -524 c251 -65 444 -233 565 -493 77 -164
110 -332 117 -592 10 -377 -38 -671 -247 -1505 -172 -684 -261 -963 -413
-1296 -140 -303 -329 -584 -535 -791 -510 -513 -1124 -670 -1575 -402 -89 53
-227 189 -291 286 -132 201 -194 442 -203 781 -10 387 38 704 213 1405 134
536 236 853 373 1164 230 522 577 952 976 1213 180 118 423 215 610 245 122
19 305 13 410 -15z"/>
</g>
</svg>
