<?xml version="1.0" standalone="no"?>
<!DOCTYPE svg PUBLIC "-//W3C//DTD SVG 20010904//EN"
 "http://www.w3.org/TR/2001/REC-SVG-20010904/DTD/svg10.dtd">
<svg version="1.0" xmlns="http://www.w3.org/2000/svg"
 width="1230.000000pt" height="334.000000pt" viewBox="0 0 1230.000000 334.000000"
 preserveAspectRatio="xMidYMid meet">
<metadata>
Created by potrace 1.16, written by Peter Selinger 2001-2019
</metadata>
<g transform="translate(0.000000,334.000000) scale(0.100000,-0.100000)"
fill="#000000" stroke="none">
<path d="M155 3329 c-45 -12 -115 -77 -136 -123 -25 -54 -24 -129 1 -181 22
-45 180 -258 293 -395 352 -425 750 -804 1187 -1132 1867 -1399 4427 -1856
6790 -1212 1572 429 2925 1328 3859 2564 56 74 110 153 121 175 69 143 -47
315 -213 315 -45 0 -103 -23 -135 -53 -13 -12 -61 -71 -107 -132 -153 -203
-298 -369 -490 -560 -285 -286 -507 -467 -840 -690 -431 -287 -849 -498 -1366
-688 -1799 -662 -4149 -662 -5948 0 -733 269 -1342 619 -1901 1090 -254 215
-578 561 -795 848 -46 61 -94 120 -107 132 -50 47 -137 65 -213 42z"/>
</g>
</svg>
