<?xml version="1.0" standalone="no"?>
<!DOCTYPE svg PUBLIC "-//W3C//DTD SVG 20010904//EN"
 "http://www.w3.org/TR/2001/REC-SVG-20010904/DTD/svg10.dtd">
<svg version="1.0" xmlns="http://www.w3.org/2000/svg"
 width="1012.000000pt" height="946.000000pt" viewBox="0 0 1012.000000 946.000000"
 preserveAspectRatio="xMidYMid meet">
<metadata>
Created by potrace 1.16, written by Peter Selinger 2001-2019
</metadata>
<g transform="translate(0.000000,946.000000) scale(0.100000,-0.100000)"
fill="#000000" stroke="none">
<path d="M138 9441 c-52 -29 -71 -69 -109 -222 l-33 -136 25 -49 c45 -89 39
-88 372 -95 410 -10 599 -30 736 -81 64 -24 167 -120 191 -179 8 -18 411
-1127 895 -2464 l881 -2430 -352 -1405 c-194 -773 -360 -1430 -369 -1460 -21
-67 -63 -151 -103 -207 -66 -89 -164 -129 -387 -158 -162 -20 -464 -35 -729
-35 -203 0 -221 -1 -256 -21 -20 -11 -45 -35 -55 -51 -23 -40 -74 -241 -75
-293 0 -55 29 -106 78 -133 l40 -22 249 10 c136 5 559 15 940 22 715 12 1655
3 2328 -23 288 -12 289 -12 330 10 54 29 72 62 106 195 46 179 35 242 -50 286
-37 18 -59 20 -263 20 -379 1 -738 27 -864 65 -28 8 -59 24 -69 35 -25 28 -32
130 -15 224 19 110 718 2908 734 2937 7 15 816 957 1797 2095 1850 2146 1992
2306 2249 2519 407 337 881 517 1430 541 223 10 236 22 291 245 l33 136 -25
49 c-13 26 -37 57 -52 68 -33 24 -57 24 -417 6 -534 -27 -1451 -22 -2169 11
-274 13 -301 9 -348 -45 -23 -26 -37 -61 -61 -159 -38 -149 -39 -177 -11 -227
34 -60 76 -76 210 -84 294 -16 469 -124 469 -291 0 -90 -59 -229 -146 -345
-31 -41 -60 -83 -64 -94 -6 -16 -2669 -3114 -3164 -3682 l-62 -71 -762 2104
c-738 2037 -762 2106 -752 2144 6 23 27 56 49 78 98 98 406 161 788 161 210 0
232 17 282 214 17 69 31 140 31 157 0 45 -36 103 -81 128 -38 21 -41 22 -306
12 -853 -32 -2091 -37 -2778 -11 -603 23 -566 23 -607 1z"/>
</g>
</svg>
