<?xml version="1.0" standalone="no"?>
<!DOCTYPE svg PUBLIC "-//W3C//DTD SVG 20010904//EN"
 "http://www.w3.org/TR/2001/REC-SVG-20010904/DTD/svg10.dtd">
<svg version="1.0" xmlns="http://www.w3.org/2000/svg"
 width="1000.000000pt" height="946.000000pt" viewBox="0 0 1000.000000 946.000000"
 preserveAspectRatio="xMidYMid meet">
<metadata>
Created by potrace 1.16, written by Peter Selinger 2001-2019
</metadata>
<g transform="translate(0.000000,946.000000) scale(0.100000,-0.100000)"
fill="#000000" stroke="none">
<path d="M2368 9440 c-21 -11 -45 -32 -54 -45 -19 -30 -103 -356 -104 -403 0
-49 32 -104 76 -128 37 -20 57 -22 404 -27 509 -9 751 -33 807 -81 59 -51 120
211 -927 -3976 -528 -2115 -972 -3869 -985 -3897 -48 -107 -116 -168 -216
-197 -135 -39 -521 -66 -942 -66 -208 0 -231 -2 -267 -20 -22 -11 -47 -31 -56
-45 -19 -30 -103 -356 -104 -403 0 -50 32 -104 78 -130 l41 -22 2833 3 c3111
3 2871 -1 3223 62 1107 200 2124 861 2674 1737 181 288 307 604 363 908 28
151 30 458 5 595 -27 143 -64 270 -113 387 -138 327 -384 614 -714 833 -304
201 -699 347 -1113 409 -45 7 -75 15 -67 18 8 3 93 24 188 47 1075 259 2015
932 2396 1716 311 638 241 1348 -185 1875 -325 401 -820 678 -1429 800 -344
69 -127 64 -3095 67 -2657 2 -2680 2 -2717 -17z m5122 -615 c258 -39 469 -139
645 -306 100 -95 163 -181 229 -309 227 -444 200 -1018 -75 -1569 -131 -263
-273 -458 -498 -681 -75 -75 -179 -169 -231 -210 -346 -268 -739 -454 -1120
-529 -230 -45 -211 -44 -1372 -48 -615 -2 -1118 -2 -1118 2 0 3 194 780 430
1728 321 1284 438 1738 461 1785 47 96 99 122 284 141 44 5 573 9 1175 10 908
1 1111 -2 1190 -14z m-815 -4181 c525 -91 917 -499 1034 -1079 72 -357 40
-780 -90 -1170 -51 -153 -187 -429 -278 -565 -381 -571 -958 -987 -1586 -1144
-250 -63 -182 -60 -1455 -64 -1143 -3 -1322 0 -1424 29 l-39 11 6 58 c5 42
873 3545 968 3903 l10 37 1382 0 c1207 0 1393 -2 1472 -16z"/>
</g>
</svg>
