<?xml version="1.0" standalone="no"?>
<!DOCTYPE svg PUBLIC "-//W3C//DTD SVG 20010904//EN"
 "http://www.w3.org/TR/2001/REC-SVG-20010904/DTD/svg10.dtd">
<svg version="1.0" xmlns="http://www.w3.org/2000/svg"
 width="560.000000pt" height="632.000000pt" viewBox="0 0 560.000000 632.000000"
 preserveAspectRatio="xMidYMid meet">
<metadata>
Created by potrace 1.16, written by Peter Selinger 2001-2019
</metadata>
<g transform="translate(0.000000,632.000000) scale(0.100000,-0.100000)"
fill="#000000" stroke="none">
<path d="M2490 6309 c-820 -66 -1459 -371 -1861 -889 -427 -549 -629 -1284
-629 -2290 0 -1034 220 -1779 684 -2317 260 -301 581 -507 1011 -648 332 -110
701 -165 1100 -165 586 0 1126 124 1540 353 297 164 541 388 733 670 353 519
522 1202 522 2107 0 1006 -202 1741 -629 2290 -408 525 -1042 825 -1885 890
-149 12 -434 11 -586 -1z m526 -340 c615 -60 1062 -340 1256 -790 96 -223 157
-544 190 -994 18 -246 18 -1645 0 -1905 -61 -879 -197 -1281 -532 -1564 -386
-326 -972 -450 -1566 -331 -466 94 -829 354 -1004 720 -125 262 -193 604 -232
1175 -18 260 -18 1659 0 1905 63 867 224 1249 640 1522 317 209 786 307 1248
262z"/>
</g>
</svg>
