<?xml version="1.0" standalone="no"?>
<!DOCTYPE svg PUBLIC "-//W3C//DTD SVG 20010904//EN"
 "http://www.w3.org/TR/2001/REC-SVG-20010904/DTD/svg10.dtd">
<svg version="1.0" xmlns="http://www.w3.org/2000/svg"
 width="290.000000pt" height="937.000000pt" viewBox="0 0 290.000000 937.000000"
 preserveAspectRatio="xMidYMid meet">
<metadata>
Created by potrace 1.16, written by Peter Selinger 2001-2019
</metadata>
<g transform="translate(0.000000,937.000000) scale(0.100000,-0.100000)"
fill="#000000" stroke="none">
<path d="M1805 9293 c-928 -79 -915 -77 -958 -134 -20 -28 -67 -197 -67 -244
0 -43 39 -105 80 -126 30 -16 58 -19 195 -19 293 0 534 -27 633 -70 73 -32 89
-117 56 -291 -8 -46 -393 -1594 -854 -3439 -461 -1845 -849 -3402 -861 -3460
-27 -128 -32 -390 -10 -510 91 -507 432 -858 942 -971 148 -33 406 -33 524 -1
300 83 538 307 730 686 139 274 244 589 400 1201 l39 150 -20 40 c-31 63 -63
79 -158 83 -94 4 -144 -11 -171 -51 -9 -14 -48 -146 -86 -294 -38 -147 -81
-306 -95 -353 -147 -498 -293 -800 -474 -981 -124 -125 -261 -178 -420 -165
-167 14 -262 105 -317 306 -29 103 -25 460 6 635 12 72 461 1885 997 4030 720
2879 974 3908 969 3932 -7 38 -46 88 -86 108 -15 8 -50 14 -76 14 -26 -1 -439
-35 -918 -76z"/>
</g>
</svg>
