<?xml version="1.0" standalone="no"?>
<!DOCTYPE svg PUBLIC "-//W3C//DTD SVG 20010904//EN"
 "http://www.w3.org/TR/2001/REC-SVG-20010904/DTD/svg10.dtd">
<svg version="1.0" xmlns="http://www.w3.org/2000/svg"
 width="788.000000pt" height="968.000000pt" viewBox="0 0 788.000000 968.000000"
 preserveAspectRatio="xMidYMid meet">
<metadata>
Created by potrace 1.16, written by Peter Selinger 2001-2019
</metadata>
<g transform="translate(0.000000,968.000000) scale(0.100000,-0.100000)"
fill="#000000" stroke="none">
<path d="M4730 9674 c-19 -2 -78 -9 -130 -15 -228 -26 -511 -99 -754 -196
-792 -313 -1471 -927 -1850 -1672 -154 -303 -240 -558 -297 -879 -27 -149 -37
-481 -20 -632 39 -343 165 -681 349 -940 123 -173 315 -355 501 -475 113 -73
292 -159 426 -203 66 -23 509 -143 985 -267 476 -125 901 -242 946 -259 211
-86 397 -235 527 -423 57 -83 142 -264 170 -363 46 -158 61 -272 61 -465 1
-503 -173 -990 -518 -1450 -104 -138 -358 -398 -486 -497 -319 -246 -658 -402
-1005 -463 -254 -45 -739 -19 -1080 56 -736 163 -1230 565 -1430 1162 -72 215
-99 404 -99 682 1 224 17 374 66 610 50 238 48 266 -21 312 -29 19 -47 23
-118 23 -107 0 -147 -17 -174 -74 -22 -47 -779 -3085 -779 -3125 0 -38 21 -72
59 -98 45 -30 141 -32 187 -4 18 11 200 219 405 463 204 244 375 446 379 451
3 4 45 -40 93 -97 350 -421 900 -698 1582 -795 318 -46 720 -52 965 -16 163
24 433 94 596 155 1087 405 1979 1398 2267 2525 77 298 103 527 94 820 -21
721 -339 1324 -882 1673 -97 62 -311 163 -425 201 -52 17 -480 132 -950 255
-470 124 -881 234 -914 245 -295 103 -552 334 -680 612 -177 385 -159 868 48
1336 285 641 905 1176 1567 1352 205 55 293 65 534 65 474 -1 823 -93 1145
-304 124 -81 303 -261 389 -390 308 -462 404 -1075 300 -1910 -22 -176 -21
-221 8 -252 33 -37 69 -48 155 -48 92 0 139 17 164 60 17 30 784 3099 784
3138 0 39 -20 73 -59 99 -45 30 -141 32 -188 4 -17 -11 -201 -222 -409 -469
l-378 -449 -54 81 c-79 118 -152 205 -262 309 -134 128 -259 214 -435 302
-226 112 -459 182 -735 220 -109 15 -541 28 -620 19z"/>
</g>
</svg>
