<?xml version="1.0" standalone="no"?>
<!DOCTYPE svg PUBLIC "-//W3C//DTD SVG 20010904//EN"
 "http://www.w3.org/TR/2001/REC-SVG-20010904/DTD/svg10.dtd">
<svg version="1.0" xmlns="http://www.w3.org/2000/svg"
 width="701.000000pt" height="626.000000pt" viewBox="0 0 701.000000 626.000000"
 preserveAspectRatio="xMidYMid meet">
<metadata>
Created by potrace 1.16, written by Peter Selinger 2001-2019
</metadata>
<g transform="translate(0.000000,626.000000) scale(0.100000,-0.100000)"
fill="#000000" stroke="none">
<path d="M1810 6239 c-212 -54 -390 -204 -469 -394 -17 -41 -298 -1144 -686
-2695 l-657 -2625 5 -100 c5 -129 30 -195 102 -274 155 -167 415 -197 660 -77
142 71 265 200 324 341 18 41 172 642 372 1440 188 754 343 1371 344 1372 3 5
315 -17 475 -33 1070 -105 1653 -412 1729 -911 21 -140 13 -246 -39 -483 -87
-399 -51 -755 107 -1078 147 -301 425 -542 747 -647 168 -54 266 -69 466 -69
169 0 194 2 285 27 127 34 313 126 425 211 397 299 730 899 955 1721 52 191
52 215 -5 270 l-31 30 -187 3 c-267 4 -251 19 -342 -328 -92 -350 -222 -708
-327 -899 -109 -197 -259 -371 -383 -444 -104 -61 -186 -82 -315 -82 -90 1
-118 5 -156 22 -242 110 -282 526 -119 1238 46 199 60 303 60 437 0 355 -144
668 -410 892 -376 316 -985 507 -1895 591 -93 9 -176 17 -184 18 -7 1 27 29
75 62 49 33 168 119 264 191 169 128 236 182 796 641 308 252 518 412 709 538
182 121 439 265 451 253 1 -2 -2 -28 -8 -58 -15 -79 -4 -212 25 -296 83 -245
299 -375 597 -360 134 6 203 23 318 77 195 91 356 253 444 448 157 344 70 696
-206 831 -99 49 -191 70 -314 70 -344 0 -730 -113 -1117 -330 -283 -157 -574
-366 -1009 -723 -536 -440 -625 -512 -776 -626 -185 -140 -339 -247 -475 -328
-174 -105 -465 -244 -465 -222 0 5 104 424 231 931 l231 923 -5 100 c-5 129
-30 195 -102 274 -123 132 -317 182 -515 130z"/>
</g>
</svg>
