<?xml version="1.0" standalone="no"?>
<!DOCTYPE svg PUBLIC "-//W3C//DTD SVG 20010904//EN"
 "http://www.w3.org/TR/2001/REC-SVG-20010904/DTD/svg10.dtd">
<svg version="1.0" xmlns="http://www.w3.org/2000/svg"
 width="725.000000pt" height="626.000000pt" viewBox="0 0 725.000000 626.000000"
 preserveAspectRatio="xMidYMid meet">
<metadata>
Created by potrace 1.16, written by Peter Selinger 2001-2019
</metadata>
<g transform="translate(0.000000,626.000000) scale(0.100000,-0.100000)"
fill="#000000" stroke="none">
<path d="M1709 6249 c-223 -32 -448 -130 -656 -285 -111 -83 -303 -280 -405
-414 -267 -354 -496 -844 -628 -1347 -25 -95 -19 -131 31 -179 30 -29 31 -29
167 -32 197 -4 206 2 260 208 173 648 486 1200 827 1458 87 66 249 146 335
167 99 23 216 29 284 15 148 -31 216 -182 203 -450 -14 -267 -58 -422 -306
-1088 -551 -1477 -701 -2038 -701 -2627 0 -196 12 -319 46 -474 69 -308 188
-535 384 -732 165 -165 349 -276 596 -358 278 -93 655 -134 924 -100 485 60
937 313 1310 733 51 58 97 106 101 106 4 0 10 -12 14 -28 3 -15 24 -64 45
-110 163 -349 489 -596 898 -682 142 -30 362 -37 476 -16 519 99 871 553 1155
1490 28 91 78 270 111 398 69 260 69 276 10 333 -31 30 -32 30 -165 33 -145 4
-179 -5 -211 -53 -9 -13 -45 -136 -80 -272 -36 -136 -85 -317 -110 -401 -194
-661 -413 -1014 -687 -1109 -80 -28 -245 -24 -314 6 -207 92 -279 436 -193
934 10 62 252 1042 536 2177 490 1958 517 2070 517 2155 0 70 -5 103 -22 148
-47 120 -148 206 -286 241 -180 47 -400 -20 -551 -169 -135 -133 -89 25 -664
-2276 -280 -1119 -514 -2065 -521 -2104 -10 -61 -21 -85 -87 -185 -123 -189
-219 -307 -372 -460 -161 -161 -277 -249 -440 -334 -209 -108 -384 -150 -620
-150 -126 1 -170 5 -231 22 -241 66 -421 238 -504 482 -128 377 -108 872 64
1565 104 419 247 846 584 1750 90 242 171 467 180 500 71 263 63 562 -23 797
-76 208 -222 397 -400 518 -84 57 -248 134 -340 160 -163 45 -388 62 -541 39z"/>
</g>
</svg>
