<?xml version="1.0" standalone="no"?>
<!DOCTYPE svg PUBLIC "-//W3C//DTD SVG 20010904//EN"
 "http://www.w3.org/TR/2001/REC-SVG-20010904/DTD/svg10.dtd">
<svg version="1.0" xmlns="http://www.w3.org/2000/svg"
 width="809.000000pt" height="908.000000pt" viewBox="0 0 809.000000 908.000000"
 preserveAspectRatio="xMidYMid meet">
<metadata>
Created by potrace 1.16, written by Peter Selinger 2001-2019
</metadata>
<g transform="translate(0.000000,908.000000) scale(0.100000,-0.100000)"
fill="#000000" stroke="none">
<path d="M2282 9064 c-49 -25 -70 -62 -98 -172 -30 -114 -28 -154 13 -202 47
-56 51 -57 408 -63 418 -8 647 -32 750 -79 36 -16 50 -62 48 -158 -1 -77 -92
-450 -932 -3809 -583 -2330 -943 -3751 -962 -3797 -60 -144 -139 -225 -252
-259 -151 -45 -349 -64 -770 -72 -322 -6 -340 -7 -369 -27 -17 -12 -39 -32
-49 -46 -27 -37 -72 -216 -64 -256 7 -39 46 -89 86 -109 24 -13 456 -15 3372
-15 l3344 0 33 23 c18 12 41 33 51 47 25 36 1189 3214 1189 3248 0 39 -32 93
-70 119 -28 19 -46 23 -114 23 -88 0 -131 -17 -160 -62 -8 -13 -62 -150 -120
-304 -238 -634 -412 -1001 -633 -1337 -527 -800 -1282 -1221 -2328 -1297 -175
-12 -1731 -13 -1840 -1 -44 6 -98 16 -120 23 l-40 13 1 100 c2 97 29 208 938
3845 515 2060 946 3770 958 3800 61 156 163 262 289 301 180 56 607 89 1165
89 254 0 262 1 294 23 52 35 69 66 96 172 29 112 26 149 -13 195 -52 62 -51
62 -391 50 -1122 -37 -2337 -35 -3512 5 -143 5 -169 4 -198 -11z"/>
</g>
</svg>
