<?xml version="1.0" standalone="no"?>
<!DOCTYPE svg PUBLIC "-//W3C//DTD SVG 20010904//EN"
 "http://www.w3.org/TR/2001/REC-SVG-20010904/DTD/svg10.dtd">
<svg version="1.0" xmlns="http://www.w3.org/2000/svg"
 width="584.000000pt" height="658.000000pt" viewBox="0 0 584.000000 658.000000"
 preserveAspectRatio="xMidYMid meet">
<metadata>
Created by potrace 1.16, written by Peter Selinger 2001-2019
</metadata>
<g transform="translate(0.000000,658.000000) scale(0.100000,-0.100000)"
fill="#000000" stroke="none">
<path d="M2670 6574 c-533 -46 -864 -126 -1220 -297 -739 -354 -1210 -1052
-1374 -2037 -92 -552 -100 -1281 -20 -1830 131 -899 512 -1569 1114 -1959 453
-293 1063 -451 1745 -451 779 0 1452 203 1925 580 113 90 289 273 377 390 290
386 473 860 557 1440 64 439 72 1063 21 1540 -115 1052 -526 1803 -1215 2218
-342 207 -733 331 -1215 388 -122 14 -596 27 -695 18z m476 -415 c430 -41 787
-191 1024 -429 267 -267 376 -608 431 -1355 17 -230 23 -1368 10 -1737 -26
-700 -90 -1123 -214 -1413 -170 -395 -540 -669 -1042 -770 -696 -140 -1408 58
-1750 488 -151 190 -226 368 -289 682 -84 427 -112 947 -103 1965 3 349 10
703 16 785 55 747 164 1088 431 1355 280 280 712 434 1236 439 77 0 190 -4
250 -10z"/>
</g>
</svg>
