<?xml version="1.0" standalone="no"?>
<!DOCTYPE svg PUBLIC "-//W3C//DTD SVG 20010904//EN"
 "http://www.w3.org/TR/2001/REC-SVG-20010904/DTD/svg10.dtd">
<svg version="1.0" xmlns="http://www.w3.org/2000/svg"
 width="554.000000pt" height="890.000000pt" viewBox="0 0 554.000000 890.000000"
 preserveAspectRatio="xMidYMid meet">
<metadata>
Created by potrace 1.16, written by Peter Selinger 2001-2019
</metadata>
<g transform="translate(0.000000,890.000000) scale(0.100000,-0.100000)"
fill="#000000" stroke="none">
<path d="M2585 8894 c-571 -45 -1029 -226 -1463 -581 -147 -119 -386 -362
-511 -518 -289 -360 -457 -706 -545 -1124 -77 -361 -87 -874 -25 -1276 90
-591 367 -1112 849 -1595 235 -236 432 -382 675 -500 329 -161 629 -225 1050
-224 210 0 253 3 344 22 367 80 655 241 916 513 160 166 263 314 393 564 l83
160 -5 -350 c-11 -644 -47 -1042 -132 -1456 -68 -335 -153 -588 -294 -874
-284 -581 -719 -996 -1216 -1163 -191 -64 -364 -87 -599 -79 -423 15 -762 99
-995 249 -66 42 -190 146 -190 159 0 5 22 9 48 9 70 0 188 33 272 75 344 173
419 687 140 966 -238 237 -642 237 -880 0 -129 -130 -176 -272 -166 -506 28
-671 458 -1130 1216 -1299 347 -77 783 -86 1110 -25 455 86 866 282 1270 606
795 637 1366 1728 1539 2938 48 335 56 467 56 955 -1 475 -10 695 -46 1050
-57 568 -175 1079 -354 1535 -60 155 -205 450 -290 590 -379 628 -972 1041
-1665 1161 -92 15 -466 27 -585 18z m482 -398 c333 -73 620 -281 844 -615 217
-321 315 -678 378 -1366 54 -588 54 -898 0 -1270 -127 -882 -561 -1548 -1147
-1759 -148 -53 -260 -70 -462 -70 -207 0 -315 15 -462 64 -273 91 -480 258
-676 543 -200 291 -292 580 -338 1067 -21 225 -31 1152 -15 1467 33 660 135
1001 407 1363 271 360 583 540 1025 589 117 13 359 6 446 -13z"/>
</g>
</svg>
