<?xml version="1.0" standalone="no"?>
<!DOCTYPE svg PUBLIC "-//W3C//DTD SVG 20010904//EN"
 "http://www.w3.org/TR/2001/REC-SVG-20010904/DTD/svg10.dtd">
<svg version="1.0" xmlns="http://www.w3.org/2000/svg"
 width="221.000000pt" height="312.000000pt" viewBox="0 0 221.000000 312.000000"
 preserveAspectRatio="xMidYMid meet">
<metadata>
Created by potrace 1.16, written by Peter Selinger 2001-2019
</metadata>
<g transform="translate(0.000000,312.000000) scale(0.100000,-0.100000)"
fill="#000000" stroke="none">
<path d="M191 3109 c-169 -52 -243 -261 -145 -409 53 -80 137 -120 250 -120
102 0 262 -19 383 -46 491 -110 848 -395 953 -761 32 -112 32 -314 0 -426
-105 -366 -464 -653 -953 -760 -137 -31 -175 -35 -349 -46 -151 -9 -191 -22
-250 -81 -56 -56 -75 -103 -75 -190 0 -87 19 -134 75 -190 67 -67 96 -75 270
-74 330 1 672 87 980 246 183 94 302 180 446 323 226 225 353 464 404 759 76
447 -67 876 -404 1211 -144 143 -263 229 -446 323 -221 114 -416 177 -685 222
-140 24 -404 35 -454 19z"/>
</g>
</svg>
