<?xml version="1.0" standalone="no"?>
<!DOCTYPE svg PUBLIC "-//W3C//DTD SVG 20010904//EN"
 "http://www.w3.org/TR/2001/REC-SVG-20010904/DTD/svg10.dtd">
<svg version="1.0" xmlns="http://www.w3.org/2000/svg"
 width="789.000000pt" height="603.000000pt" viewBox="0 0 789.000000 603.000000"
 preserveAspectRatio="xMidYMid meet">
<metadata>
Created by potrace 1.16, written by Peter Selinger 2001-2019
</metadata>
<g transform="translate(0.000000,603.000000) scale(0.100000,-0.100000)"
fill="#000000" stroke="none">
<path d="M7200 6023 c-14 -2 -54 -13 -90 -24 -326 -102 -570 -468 -496 -744
25 -96 65 -156 166 -255 167 -163 256 -283 339 -460 81 -174 123 -339 140
-552 22 -273 -26 -564 -160 -963 -308 -915 -837 -1624 -1415 -1896 -189 -89
-378 -131 -589 -131 -367 1 -650 115 -884 357 -148 153 -250 329 -324 560 -57
178 -57 172 7 323 169 401 361 1023 406 1314 18 111 9 250 -20 316 -88 201
-363 216 -534 31 -100 -108 -160 -251 -236 -564 -95 -387 -160 -834 -160
-1103 l0 -84 -59 -86 c-160 -233 -432 -526 -621 -669 -321 -242 -620 -365
-951 -391 -443 -35 -787 122 -1007 461 -274 423 -327 1127 -140 1871 151 604
479 1237 1070 2068 163 229 183 280 154 383 -21 71 -70 126 -138 155 -43 18
-65 22 -123 18 -125 -8 -180 -50 -307 -235 -465 -674 -793 -1424 -1023 -2341
-224 -896 -263 -1706 -110 -2291 161 -608 503 -960 1041 -1068 126 -25 449
-25 589 1 603 110 1147 505 1607 1168 45 64 84 115 88 113 4 -2 12 -30 19 -62
37 -166 140 -420 231 -568 137 -224 341 -416 556 -523 301 -151 729 -193 1086
-106 643 156 1189 677 1637 1564 269 531 451 1047 650 1845 185 743 252 1104
270 1469 23 463 -51 757 -239 947 -124 125 -273 178 -430 152z"/>
</g>
</svg>
