<?xml version="1.0" standalone="no"?>
<!DOCTYPE svg PUBLIC "-//W3C//DTD SVG 20010904//EN"
 "http://www.w3.org/TR/2001/REC-SVG-20010904/DTD/svg10.dtd">
<svg version="1.0" xmlns="http://www.w3.org/2000/svg"
 width="562.000000pt" height="627.000000pt" viewBox="0 0 562.000000 627.000000"
 preserveAspectRatio="xMidYMid meet">
<metadata>
Created by potrace 1.16, written by Peter Selinger 2001-2019
</metadata>
<g transform="translate(0.000000,627.000000) scale(0.100000,-0.100000)"
fill="#000000" stroke="none">
<path d="M2340 6259 c-754 -61 -1405 -328 -1784 -730 -252 -268 -396 -618
-396 -965 0 -282 152 -492 415 -570 81 -24 239 -24 320 0 206 61 344 202 395
402 78 304 -77 601 -362 695 -78 25 -78 22 3 114 334 384 949 587 1616 536
665 -51 1175 -281 1483 -666 179 -226 270 -497 270 -808 0 -540 -277 -987
-922 -1489 -162 -127 -331 -247 -675 -479 -828 -560 -2631 -1794 -2655 -1816
-44 -42 -50 -68 -46 -231 3 -164 8 -179 72 -226 l27 -21 2506 -3 2505 -2 37
21 c21 11 46 34 55 50 19 32 406 1674 406 1723 0 42 -37 101 -80 125 -32 18
-54 21 -145 21 -120 0 -167 -17 -199 -71 -9 -15 -34 -99 -56 -186 -68 -276
-122 -429 -192 -544 l-41 -66 -81 -6 c-213 -16 -1256 -28 -2225 -25 l-1075 3
760 452 c417 248 806 477 864 509 58 32 335 171 615 310 561 278 750 379 960
518 189 125 318 231 457 374 279 290 420 611 435 992 16 375 -82 726 -286
1028 -400 592 -1230 962 -2316 1032 -184 12 -513 11 -665 -1z"/>
</g>
</svg>
