<?xml version="1.0" standalone="no"?>
<!DOCTYPE svg PUBLIC "-//W3C//DTD SVG 20010904//EN"
 "http://www.w3.org/TR/2001/REC-SVG-20010904/DTD/svg10.dtd">
<svg version="1.0" xmlns="http://www.w3.org/2000/svg"
 width="991.000000pt" height="946.000000pt" viewBox="0 0 991.000000 946.000000"
 preserveAspectRatio="xMidYMid meet">
<metadata>
Created by potrace 1.16, written by Peter Selinger 2001-2019
</metadata>
<g transform="translate(0.000000,946.000000) scale(0.100000,-0.100000)"
fill="#000000" stroke="none">
<path d="M2370 9442 c-19 -9 -44 -32 -56 -50 -31 -46 -87 -281 -78 -328 8 -46
55 -100 97 -113 18 -5 183 -12 367 -15 184 -3 389 -10 455 -16 135 -13 289
-41 332 -62 39 -19 56 -74 50 -163 -4 -45 -344 -1426 -971 -3935 -879 -3515
-970 -3873 -1008 -3949 -44 -91 -109 -165 -169 -193 -128 -61 -507 -98 -1003
-98 -203 0 -221 -1 -256 -21 -20 -11 -45 -35 -55 -51 -23 -40 -74 -241 -75
-293 0 -55 29 -106 78 -133 40 -22 40 -22 284 -13 133 6 561 16 950 23 733 12
1685 3 2363 -23 288 -12 289 -12 330 10 23 12 49 36 60 53 23 40 74 240 75
293 0 55 -29 105 -76 132 -37 22 -50 23 -259 23 -387 0 -744 27 -872 65 -75
22 -87 42 -92 142 -3 83 4 114 429 1813 l432 1729 1312 4 c1428 4 1362 1 1706
63 1134 204 2188 853 2748 1692 293 439 432 862 432 1317 -1 318 -63 585 -201
856 -106 208 -218 358 -395 529 -431 417 -1038 662 -1783 720 -89 6 -984 10
-2625 10 -2352 0 -2493 -1 -2526 -18z m4828 -525 c421 -57 702 -159 938 -343
390 -303 477 -742 303 -1524 -255 -1150 -583 -1659 -1299 -2016 -333 -166
-706 -260 -1155 -294 -140 -10 -2205 -15 -2205 -5 0 28 977 3904 1000 3968 44
119 89 170 178 197 37 11 103 24 147 29 44 5 505 8 1025 7 812 -3 962 -5 1068
-19z"/>
</g>
</svg>
