<?xml version="1.0" standalone="no"?>
<!DOCTYPE svg PUBLIC "-//W3C//DTD SVG 20010904//EN"
 "http://www.w3.org/TR/2001/REC-SVG-20010904/DTD/svg10.dtd">
<svg version="1.0" xmlns="http://www.w3.org/2000/svg"
 width="742.000000pt" height="880.000000pt" viewBox="0 0 742.000000 880.000000"
 preserveAspectRatio="xMidYMid meet">
<metadata>
Created by potrace 1.16, written by Peter Selinger 2001-2019
</metadata>
<g transform="translate(0.000000,880.000000) scale(0.100000,-0.100000)"
fill="#000000" stroke="none">
<path d="M2265 8794 c-143 -24 -315 -93 -436 -175 -92 -62 -230 -199 -315
-311 -237 -316 -421 -755 -604 -1448 -57 -219 -57 -240 0 -295 l31 -30 184 -3
c257 -4 254 -6 311 210 97 368 130 486 176 628 188 575 390 861 646 911 72 13
173 7 225 -15 88 -36 151 -125 189 -264 28 -104 30 -363 4 -537 -25 -168
-1627 -6576 -1664 -6658 -66 -144 -154 -172 -577 -183 -121 -3 -234 -10 -252
-15 -66 -20 -86 -59 -137 -266 -53 -212 -53 -244 1 -295 48 -46 70 -49 247
-38 88 5 376 15 638 22 494 12 1290 2 1827 -23 264 -13 291 -9 339 45 25 28
37 64 76 222 39 162 45 194 36 226 -14 50 -53 94 -93 106 -18 6 -162 13 -322
16 -384 7 -577 28 -617 68 -41 41 -33 77 277 1320 163 651 298 1189 300 1196
3 7 37 -30 79 -85 182 -242 426 -422 692 -511 317 -106 717 -93 1144 38 382
118 741 314 1119 611 122 96 462 431 573 564 445 535 762 1154 927 1812 75
297 109 531 118 818 16 492 -72 918 -268 1305 -117 232 -219 371 -399 543
-262 252 -602 417 -985 478 -107 18 -439 18 -535 1 -480 -86 -937 -338 -1382
-761 l-116 -111 -18 52 c-45 138 -156 317 -267 430 -184 189 -428 318 -716
378 -95 20 -386 35 -456 24z m3350 -529 c295 -78 516 -341 595 -711 31 -142
39 -482 16 -684 -20 -175 -55 -378 -102 -600 -50 -232 -233 -962 -298 -1187
-214 -738 -444 -1181 -801 -1539 -244 -245 -479 -391 -744 -461 -126 -33 -334
-38 -453 -10 -200 47 -365 152 -504 321 -145 176 -253 411 -313 681 l-19 84
370 1478 c417 1669 357 1479 526 1692 425 539 902 874 1344 945 113 19 297 14
383 -9z"/>
</g>
</svg>
