<?xml version="1.0" standalone="no"?>
<!DOCTYPE svg PUBLIC "-//W3C//DTD SVG 20010904//EN"
 "http://www.w3.org/TR/2001/REC-SVG-20010904/DTD/svg10.dtd">
<svg version="1.0" xmlns="http://www.w3.org/2000/svg"
 width="964.000000pt" height="901.000000pt" viewBox="0 0 964.000000 901.000000"
 preserveAspectRatio="xMidYMid meet">
<metadata>
Created by potrace 1.16, written by Peter Selinger 2001-2019
</metadata>
<g transform="translate(0.000000,901.000000) scale(0.100000,-0.100000)"
fill="#000000" stroke="none">
<path d="M2341 8992 c-19 -9 -43 -29 -54 -43 -11 -15 -147 -436 -303 -935
-306 -979 -298 -944 -247 -1005 39 -45 74 -59 153 -59 132 0 152 23 224 252
129 408 255 713 333 806 18 22 42 36 68 42 73 16 277 30 570 40 388 13 5037
13 5405 0 270 -10 485 -24 522 -36 49 -15 25 -329 -62 -799 -32 -175 -31 -206
12 -253 38 -40 72 -52 151 -52 80 0 121 18 158 70 13 18 67 285 188 935 184
980 180 948 129 1003 -13 13 -35 30 -50 38 -23 12 -550 14 -3595 14 -3377 0
-3570 -1 -3602 -18z"/>
<path d="M2630 5798 c-19 -13 -43 -39 -53 -58 -9 -19 -130 -486 -267 -1038
-275 -1103 -265 -1046 -203 -1104 44 -40 67 -48 146 -48 80 0 122 18 158 70 9
14 49 157 89 318 l72 292 2209 0 c1215 0 2209 -2 2209 -5 0 -3 -29 -123 -65
-266 -72 -288 -73 -309 -18 -361 44 -40 67 -48 146 -48 80 0 122 18 158 70 9
14 128 472 270 1041 l253 1016 -18 46 c-27 71 -62 91 -166 95 -93 3 -132 -11
-166 -63 -9 -14 -45 -141 -81 -283 -35 -141 -68 -274 -74 -294 l-10 -38 -2210
0 c-1765 0 -2210 3 -2207 13 3 6 34 127 68 268 l64 256 -18 46 c-27 71 -62 91
-166 95 -76 3 -89 1 -120 -20z"/>
<path d="M440 2178 c-18 -13 -42 -34 -52 -48 -14 -19 -67 -277 -203 -985 -102
-528 -185 -978 -185 -1001 0 -50 31 -100 80 -125 34 -18 151 -19 3686 -19
l3651 0 33 22 c18 13 41 34 51 48 25 36 609 1941 609 1988 0 87 -71 142 -183
142 -136 0 -149 -18 -247 -326 -124 -393 -222 -646 -305 -794 -54 -96 -67
-107 -144 -119 -288 -47 -699 -53 -3561 -48 -2558 4 -2709 6 -2972 38 l-98 11
-1 52 c-4 182 21 406 87 764 24 134 44 261 44 281 0 48 -34 100 -80 123 -54
27 -167 25 -210 -4z"/>
</g>
</svg>
