<?xml version="1.0" standalone="no"?>
<!DOCTYPE svg PUBLIC "-//W3C//DTD SVG 20010904//EN"
 "http://www.w3.org/TR/2001/REC-SVG-20010904/DTD/svg10.dtd">
<svg version="1.0" xmlns="http://www.w3.org/2000/svg"
 width="811.000000pt" height="770.000000pt" viewBox="0 0 811.000000 770.000000"
 preserveAspectRatio="xMidYMid meet">
<metadata>
Created by potrace 1.16, written by Peter Selinger 2001-2019
</metadata>
<g transform="translate(0.000000,770.000000) scale(0.100000,-0.100000)"
fill="#000000" stroke="none">
<path d="M191 7689 c-52 -16 -114 -63 -145 -109 -84 -127 -44 -305 85 -379 27
-15 1626 -774 3554 -1687 1927 -912 3505 -1661 3505 -1664 0 -3 -1578 -752
-3505 -1664 -1928 -913 -3527 -1672 -3554 -1687 -96 -55 -147 -172 -124 -284
29 -137 156 -228 295 -212 39 5 883 401 3847 1804 2088 988 3814 1809 3837
1824 149 100 149 338 0 438 -23 15 -1750 836 -3839 1825 -3598 1703 -3802
1799 -3860 1802 -34 2 -77 -1 -96 -7z"/>
</g>
</svg>
