<?xml version="1.0" standalone="no"?>
<!DOCTYPE svg PUBLIC "-//W3C//DTD SVG 20010904//EN"
 "http://www.w3.org/TR/2001/REC-SVG-20010904/DTD/svg10.dtd">
<svg version="1.0" xmlns="http://www.w3.org/2000/svg"
 width="592.000000pt" height="880.000000pt" viewBox="0 0 592.000000 880.000000"
 preserveAspectRatio="xMidYMid meet">
<metadata>
Created by potrace 1.16, written by Peter Selinger 2001-2019
</metadata>
<g transform="translate(0.000000,880.000000) scale(0.100000,-0.100000)"
fill="#000000" stroke="none">
<path d="M3174 8785 c-521 -66 -1039 -301 -1553 -706 -122 -96 -462 -431 -573
-564 -445 -535 -761 -1152 -927 -1810 -75 -300 -109 -533 -118 -820 -16 -492
72 -918 268 -1305 117 -232 219 -371 399 -543 262 -252 602 -417 985 -478 107
-18 439 -18 535 -1 390 70 766 250 1126 538 l101 81 -287 -1146 c-158 -630
-295 -1162 -305 -1181 -36 -71 -77 -120 -118 -144 -88 -51 -290 -75 -717 -84
-326 -8 -330 -8 -369 -74 -24 -39 -101 -344 -101 -400 0 -56 29 -102 80 -128
39 -20 47 -20 242 -10 112 5 463 15 780 22 597 12 1374 3 1944 -23 229 -11
244 -11 280 7 21 11 48 33 60 51 25 38 104 345 104 405 0 55 -29 102 -77 126
-34 17 -70 20 -333 25 -390 8 -582 29 -622 69 -13 13 -18 33 -18 78 0 46 224
957 976 3962 724 2899 974 3912 970 3938 -11 66 -68 119 -139 127 -42 5 -58
-1 -194 -72 -401 -208 -668 -404 -819 -601 -54 -70 -60 -75 -72 -58 -7 11 -41
59 -75 109 -80 114 -228 269 -336 350 -153 115 -351 205 -546 247 -120 26
-397 33 -551 13z m416 -520 c194 -46 360 -153 496 -319 145 -176 253 -411 313
-681 l19 -84 -370 -1478 c-417 -1669 -357 -1479 -526 -1692 -300 -379 -602
-641 -931 -806 -276 -138 -576 -187 -796 -130 -294 77 -516 341 -595 711 -31
142 -39 482 -16 684 20 175 55 378 102 600 50 232 233 962 298 1187 208 717
437 1166 776 1517 272 282 580 460 875 506 81 12 275 4 355 -15z"/>
</g>
</svg>
