<?xml version="1.0" standalone="no"?>
<!DOCTYPE svg PUBLIC "-//W3C//DTD SVG 20010904//EN"
 "http://www.w3.org/TR/2001/REC-SVG-20010904/DTD/svg10.dtd">
<svg version="1.0" xmlns="http://www.w3.org/2000/svg"
 width="732.000000pt" height="880.000000pt" viewBox="0 0 732.000000 880.000000"
 preserveAspectRatio="xMidYMid meet">
<metadata>
Created by potrace 1.16, written by Peter Selinger 2001-2019
</metadata>
<g transform="translate(0.000000,880.000000) scale(0.100000,-0.100000)"
fill="#000000" stroke="none">
<path d="M2160 8781 c-290 -64 -516 -232 -715 -531 -200 -301 -353 -695 -525
-1352 -69 -260 -69 -276 -10 -333 31 -30 32 -30 165 -33 145 -4 179 5 211 53
9 14 44 134 79 267 151 583 254 877 393 1121 170 299 365 433 602 413 128 -11
216 -70 274 -184 79 -156 93 -445 36 -776 -10 -62 -385 -1577 -833 -3368 -589
-2357 -822 -3273 -844 -3319 -37 -79 -74 -124 -122 -148 -83 -43 -304 -71
-554 -71 -151 0 -199 -13 -233 -65 -9 -14 -31 -84 -50 -157 -38 -150 -38 -190
4 -240 46 -55 71 -59 259 -48 647 38 1506 38 2349 -1 281 -13 303 -10 352 45
22 26 36 62 60 159 38 149 39 177 11 227 -40 71 -71 80 -280 80 -408 0 -701
38 -731 93 -34 64 -24 112 308 1440 l317 1270 31 -53 c188 -318 467 -556 776
-660 182 -61 413 -84 631 -61 692 72 1419 474 1999 1106 305 333 533 666 737
1079 221 448 360 902 430 1406 25 181 25 676 0 845 -143 955 -677 1598 -1472
1774 -217 48 -500 52 -700 11 -253 -53 -540 -176 -785 -338 -193 -127 -321
-232 -512 -420 -92 -91 -169 -164 -171 -161 -1 2 -13 38 -26 79 -132 429 -487
741 -959 840 -144 31 -389 36 -502 11z m3425 -416 c263 -71 464 -281 569 -596
118 -353 114 -790 -15 -1424 -50 -247 -249 -1045 -323 -1295 -209 -711 -466
-1193 -835 -1572 -175 -180 -330 -299 -511 -392 -445 -229 -897 -163 -1206
177 -161 178 -298 466 -358 757 l-22 105 380 1520 381 1520 69 95 c233 320
463 560 722 756 263 198 519 317 774 359 105 18 291 13 375 -10z"/>
</g>
</svg>
