<?xml version="1.0" standalone="no"?>
<!DOCTYPE svg PUBLIC "-//W3C//DTD SVG 20010904//EN"
 "http://www.w3.org/TR/2001/REC-SVG-20010904/DTD/svg10.dtd">
<svg version="1.0" xmlns="http://www.w3.org/2000/svg"
 width="918.000000pt" height="968.000000pt" viewBox="0 0 918.000000 968.000000"
 preserveAspectRatio="xMidYMid meet">
<metadata>
Created by potrace 1.16, written by Peter Selinger 2001-2019
</metadata>
<g transform="translate(0.000000,968.000000) scale(0.100000,-0.100000)"
fill="#000000" stroke="none">
<path d="M5495 9669 c-1490 -126 -2992 -997 -4077 -2362 -1100 -1386 -1609
-3111 -1342 -4554 248 -1347 1137 -2325 2399 -2642 327 -82 532 -105 915 -105
370 0 600 25 960 105 513 114 1086 343 1575 629 1483 869 2629 2361 3059 3980
117 442 174 841 183 1280 6 295 -4 483 -38 730 -195 1401 -1050 2440 -2313
2809 -166 49 -343 85 -541 112 -175 23 -604 33 -780 18z m565 -394 c1015 -159
1702 -940 1861 -2116 27 -200 37 -638 20 -870 -58 -781 -290 -1728 -630 -2572
-549 -1359 -1430 -2414 -2464 -2952 -715 -372 -1412 -461 -2025 -259 -667 219
-1155 763 -1382 1539 -205 702 -198 1552 20 2585 314 1481 861 2596 1689 3443
681 696 1515 1134 2316 1216 129 14 470 5 595 -14z"/>
</g>
</svg>
