<?xml version="1.0" standalone="no"?>
<!DOCTYPE svg PUBLIC "-//W3C//DTD SVG 20010904//EN"
 "http://www.w3.org/TR/2001/REC-SVG-20010904/DTD/svg10.dtd">
<svg version="1.0" xmlns="http://www.w3.org/2000/svg"
 width="521.000000pt" height="602.000000pt" viewBox="0 0 521.000000 602.000000"
 preserveAspectRatio="xMidYMid meet">
<metadata>
Created by potrace 1.16, written by Peter Selinger 2001-2019
</metadata>
<g transform="translate(0.000000,602.000000) scale(0.100000,-0.100000)"
fill="#000000" stroke="none">
<path d="M3325 6009 c-1160 -118 -2321 -975 -2915 -2151 -204 -402 -322 -770
-387 -1203 -25 -172 -25 -642 0 -803 148 -929 717 -1578 1564 -1786 215 -52
298 -61 588 -61 276 1 413 13 675 61 918 168 1744 654 2264 1333 114 149 115
185 7 296 -36 37 -64 56 -87 61 -73 14 -103 -9 -229 -171 -91 -117 -314 -345
-438 -448 -545 -452 -1228 -726 -1960 -786 -327 -27 -522 -2 -726 94 -339 161
-564 486 -641 925 -68 394 -21 872 159 1597 190 761 378 1230 662 1648 366
538 892 922 1422 1037 144 31 437 31 611 -1 283 -51 524 -166 669 -320 99
-105 99 -106 13 -108 -267 -10 -527 -183 -642 -428 -161 -345 -55 -666 252
-761 75 -24 95 -26 206 -22 143 5 236 31 353 100 102 61 221 184 272 283 125
243 148 542 59 801 -139 409 -540 693 -1121 795 -138 24 -478 34 -630 18z"/>
</g>
</svg>
