<?xml version="1.0" standalone="no"?>
<!DOCTYPE svg PUBLIC "-//W3C//DTD SVG 20010904//EN"
 "http://www.w3.org/TR/2001/REC-SVG-20010904/DTD/svg10.dtd">
<svg version="1.0" xmlns="http://www.w3.org/2000/svg"
 width="521.000000pt" height="761.000000pt" viewBox="0 0 521.000000 761.000000"
 preserveAspectRatio="xMidYMid meet">
<metadata>
Created by potrace 1.16, written by Peter Selinger 2001-2019
</metadata>
<g transform="translate(0.000000,761.000000) scale(0.100000,-0.100000)"
fill="#000000" stroke="none">
<path d="M3525 7603 c-864 -68 -1656 -381 -2334 -921 -133 -106 -459 -435
-561 -566 -134 -173 -244 -347 -339 -536 -180 -360 -274 -703 -288 -1055 -29
-708 323 -1375 933 -1768 40 -26 501 -283 1025 -573 525 -290 982 -546 1015
-570 93 -65 180 -166 224 -259 49 -104 64 -169 63 -285 -1 -271 -153 -521
-379 -628 -55 -25 -67 -27 -194 -26 -205 0 -346 29 -543 110 -99 41 -118 46
-165 41 -140 -15 -245 -159 -197 -272 8 -22 23 -48 33 -59 44 -49 340 -160
542 -203 111 -24 147 -27 320 -27 177 0 204 3 290 26 433 117 783 411 995 836
238 475 225 970 -35 1346 -67 98 -218 242 -322 309 -46 30 -526 298 -1068 597
-542 299 -1028 571 -1080 606 -327 216 -539 521 -617 884 -28 131 -25 438 5
580 115 533 456 1020 972 1390 441 316 963 520 1530 596 181 25 514 25 640 0
218 -42 374 -106 804 -330 103 -53 211 -33 304 57 86 83 119 191 88 284 -25
76 -63 113 -174 171 -254 133 -569 213 -942 242 -123 9 -447 11 -545 3z"/>
</g>
</svg>
