<?xml version="1.0" standalone="no"?>
<!DOCTYPE svg PUBLIC "-//W3C//DTD SVG 20010904//EN"
 "http://www.w3.org/TR/2001/REC-SVG-20010904/DTD/svg10.dtd">
<svg version="1.0" xmlns="http://www.w3.org/2000/svg"
 width="955.000000pt" height="992.000000pt" viewBox="0 0 955.000000 992.000000"
 preserveAspectRatio="xMidYMid meet">
<metadata>
Created by potrace 1.16, written by Peter Selinger 2001-2019
</metadata>
<g transform="translate(0.000000,992.000000) scale(0.100000,-0.100000)"
fill="#000000" stroke="none">
<path d="M6993 9906 c-49 -16 -109 -58 -145 -101 -13 -16 -1133 -1904 -2487
-4195 -1355 -2291 -2474 -4176 -2486 -4190 -13 -14 -55 -72 -93 -130 -328
-489 -801 -738 -1457 -766 -164 -7 -207 -20 -240 -70 -9 -15 -32 -87 -51 -162
-38 -150 -36 -184 12 -241 40 -47 70 -52 249 -41 88 5 370 15 627 22 485 12
1247 3 1804 -23 229 -11 244 -11 280 7 56 28 78 68 114 213 36 147 35 182 -7
232 -35 42 -79 59 -150 59 -77 0 -212 17 -293 37 -170 41 -332 154 -381 266
-46 107 -35 247 31 376 16 33 30 66 30 73 0 7 240 418 533 913 l533 900 1695
3 1694 2 102 -1116 c114 -1244 111 -1142 37 -1224 -60 -66 -114 -97 -241 -139
-187 -62 -415 -91 -723 -91 -218 0 -236 -14 -290 -229 -37 -149 -35 -183 11
-236 47 -54 67 -56 334 -45 132 5 558 15 947 22 729 12 1524 4 2121 -23 344
-16 344 -16 403 217 29 116 33 142 24 175 -14 50 -53 95 -93 107 -18 6 -162
13 -322 16 -619 12 -749 49 -804 233 -17 56 -94 868 -426 4513 -223 2445 -408
4467 -412 4493 -8 63 -38 107 -93 135 -40 20 -58 22 -195 21 -94 0 -166 -5
-192 -13z m-438 -4083 c111 -1214 201 -2209 200 -2211 -1 -1 -682 -1 -1514 0
l-1511 3 1307 2211 c720 1216 1310 2210 1312 2208 2 -2 95 -997 206 -2211z"/>
</g>
</svg>
