<?xml version="1.0" standalone="no"?>
<!DOCTYPE svg PUBLIC "-//W3C//DTD SVG 20010904//EN"
 "http://www.w3.org/TR/2001/REC-SVG-20010904/DTD/svg10.dtd">
<svg version="1.0" xmlns="http://www.w3.org/2000/svg"
 width="608.000000pt" height="888.000000pt" viewBox="0 0 608.000000 888.000000"
 preserveAspectRatio="xMidYMid meet">
<metadata>
Created by potrace 1.16, written by Peter Selinger 2001-2019
</metadata>
<g transform="translate(0.000000,888.000000) scale(0.100000,-0.100000)"
fill="#000000" stroke="none">
<path d="M5063 8828 c-17 -29 -171 -316 -343 -638 -172 -322 -314 -586 -315
-588 -1 -1 -67 4 -146 12 -376 40 -1047 45 -1307 12 -1178 -154 -2161 -844
-2647 -1858 -306 -640 -384 -1350 -221 -2013 169 -688 577 -1299 1157 -1737
79 -60 108 -88 105 -100 -2 -9 -203 -387 -445 -839 -243 -452 -443 -826 -444
-831 -3 -12 436 -249 445 -240 3 4 205 378 449 832 243 454 444 827 445 829 2
2 44 -15 94 -38 708 -329 1581 -411 2345 -219 212 53 375 112 570 207 526 257
914 655 1150 1180 55 124 115 295 115 330 0 40 -33 92 -71 113 -29 15 -58 18
-202 18 -236 0 -238 -1 -296 -170 -199 -575 -628 -993 -1186 -1155 -181 -52
-319 -69 -565 -69 -320 0 -532 34 -823 131 -230 76 -557 253 -704 380 l-32 28
1120 2085 c616 1147 1127 2096 1135 2110 l15 25 -6 -25 c-3 -14 -9 -75 -12
-136 -19 -361 174 -638 517 -746 64 -19 96 -23 215 -23 119 0 151 4 215 23
347 109 535 383 517 757 -22 466 -296 786 -837 976 -91 32 -134 52 -132 61 3
11 498 939 574 1075 l29 51 -153 82 c-84 46 -185 100 -224 122 l-72 39 -29
-53z m-1062 -1737 l125 -6 -1150 -2142 c-633 -1179 -1153 -2143 -1156 -2143
-12 0 -130 196 -186 310 -97 195 -159 377 -210 608 -119 548 -90 1334 71 1891
151 527 467 955 890 1211 244 147 506 236 795 269 88 10 639 12 821 2z m719
-74 c0 -2 -22 -23 -49 -45 l-50 -42 26 45 c19 34 31 45 49 45 13 0 24 -2 24
-3z"/>
</g>
</svg>
