<?xml version="1.0" standalone="no"?>
<!DOCTYPE svg PUBLIC "-//W3C//DTD SVG 20010904//EN"
 "http://www.w3.org/TR/2001/REC-SVG-20010904/DTD/svg10.dtd">
<svg version="1.0" xmlns="http://www.w3.org/2000/svg"
 width="499.000000pt" height="604.000000pt" viewBox="0 0 499.000000 604.000000"
 preserveAspectRatio="xMidYMid meet">
<metadata>
Created by potrace 1.16, written by Peter Selinger 2001-2019
</metadata>
<g transform="translate(0.000000,604.000000) scale(0.100000,-0.100000)"
fill="#000000" stroke="none">
<path d="M2140 6024 c-932 -127 -1649 -898 -1751 -1883 -18 -177 -8 -335 30
-452 98 -303 377 -499 710 -499 362 0 645 211 731 546 29 110 29 298 1 406
-21 83 -76 200 -119 258 -85 113 -213 203 -364 253 -86 29 -103 31 -235 32
-79 0 -143 1 -143 3 0 12 72 141 113 202 225 338 551 574 918 664 406 99 772
31 989 -184 127 -125 179 -262 200 -532 19 -237 -17 -542 -91 -763 -124 -374
-370 -638 -659 -708 -36 -9 -195 -28 -355 -42 -318 -29 -345 -36 -377 -95 -26
-49 -26 -220 0 -269 37 -69 48 -71 411 -71 241 0 350 -4 430 -16 360 -53 651
-260 779 -556 72 -168 109 -436 99 -718 -8 -209 -29 -347 -73 -480 -44 -132
-97 -222 -188 -317 -154 -163 -340 -257 -586 -299 -87 -14 -146 -16 -379 -11
-277 5 -445 20 -661 58 -115 20 -308 67 -365 89 l-30 11 70 37 c84 44 233 188
284 274 140 240 146 589 15 839 -76 143 -186 249 -339 325 -137 67 -223 87
-385 87 -162 0 -248 -20 -385 -87 -204 -101 -331 -253 -402 -481 -25 -84 -27
-102 -27 -260 1 -150 4 -181 27 -268 92 -344 322 -604 707 -797 315 -158 735
-260 1228 -300 175 -14 644 -14 797 0 559 52 1058 215 1460 477 382 249 626
560 722 920 23 86 26 117 27 258 0 134 -4 173 -22 238 -79 285 -284 537 -612
750 -172 111 -396 218 -626 297 -118 41 -393 113 -477 125 -27 4 -45 11 -40
15 4 4 60 26 123 50 264 97 564 271 752 434 259 226 429 507 499 826 19 87 23
134 23 270 0 151 -2 173 -27 253 -57 186 -147 326 -312 485 -303 294 -793 510
-1330 586 -265 38 -592 46 -785 20z"/>
</g>
</svg>
