<?xml version="1.0" standalone="no"?>
<!DOCTYPE svg PUBLIC "-//W3C//DTD SVG 20010904//EN"
 "http://www.w3.org/TR/2001/REC-SVG-20010904/DTD/svg10.dtd">
<svg version="1.0" xmlns="http://www.w3.org/2000/svg"
 width="461.000000pt" height="1276.000000pt" viewBox="0 0 461.000000 1276.000000"
 preserveAspectRatio="xMidYMid meet">
<metadata>
Created by potrace 1.16, written by Peter Selinger 2001-2019
</metadata>
<g transform="translate(0.000000,1276.000000) scale(0.100000,-0.100000)"
fill="#000000" stroke="none">
<path d="M2168 12744 c-185 -44 -329 -184 -378 -366 -21 -79 -22 -95 -16 -308
11 -418 38 -650 176 -1540 101 -652 137 -942 156 -1252 7 -137 18 -127 -114
-103 -127 22 -277 60 -502 126 -458 135 -655 176 -885 186 -125 5 -149 3 -223
-17 -434 -118 -521 -713 -140 -960 34 -22 91 -47 140 -60 74 -20 98 -22 223
-17 230 10 427 51 885 186 225 66 375 104 502 126 127 23 120 25 113 -47 -31
-313 -63 -507 -175 -1066 -154 -775 -155 -785 -154 -1677 3 -1801 101 -3767
284 -5673 19 -208 26 -227 83 -262 27 -17 51 -20 157 -20 106 0 130 3 157 20
57 35 64 54 83 262 183 1906 281 3872 284 5673 1 892 0 902 -154 1677 -112
559 -144 753 -175 1066 -7 72 -14 70 113 47 127 -22 277 -60 502 -126 458
-135 655 -176 885 -186 125 -5 149 -3 223 17 434 118 521 713 140 960 -34 22
-91 47 -140 60 -74 20 -98 22 -223 17 -230 -10 -427 -51 -885 -186 -225 -66
-375 -104 -502 -126 -132 -24 -121 -34 -114 103 19 310 55 600 156 1252 138
890 165 1122 176 1540 6 213 5 229 -16 308 -74 273 -358 435 -642 366z"/>
</g>
</svg>
