<?xml version="1.0" standalone="no"?>
<!DOCTYPE svg PUBLIC "-//W3C//DTD SVG 20010904//EN"
 "http://www.w3.org/TR/2001/REC-SVG-20010904/DTD/svg10.dtd">
<svg version="1.0" xmlns="http://www.w3.org/2000/svg"
 width="514.000000pt" height="596.000000pt" viewBox="0 0 514.000000 596.000000"
 preserveAspectRatio="xMidYMid meet">
<metadata>
Created by potrace 1.16, written by Peter Selinger 2001-2019
</metadata>
<g transform="translate(0.000000,596.000000) scale(0.100000,-0.100000)"
fill="#000000" stroke="none">
<path d="M2440 5944 c-193 -51 -336 -209 -347 -382 -3 -42 32 -445 91 -1066
53 -549 94 -1001 92 -1003 -3 -3 -358 257 -790 577 -452 334 -810 592 -843
607 -43 20 -79 28 -140 31 -429 23 -675 -535 -362 -821 51 -47 135 -89 962
-477 499 -234 906 -427 906 -430 0 -3 -407 -196 -906 -430 -827 -388 -911
-430 -962 -477 -262 -239 -140 -697 212 -805 94 -28 208 -23 290 15 33 15 391
273 843 607 432 320 787 580 790 577 2 -2 -39 -454 -92 -1003 -59 -621 -94
-1024 -91 -1066 14 -216 230 -398 472 -398 242 0 458 182 472 398 3 42 -32
445 -91 1066 -53 549 -94 1001 -92 1003 3 3 358 -257 790 -577 452 -334 810
-592 843 -607 43 -20 79 -28 140 -31 429 -23 675 535 362 821 -51 47 -135 89
-962 477 -499 234 -906 427 -906 430 0 3 407 196 906 430 827 388 911 430 962
477 262 239 140 697 -212 805 -94 28 -208 23 -290 -15 -33 -15 -391 -273 -843
-607 -432 -320 -787 -580 -790 -577 -2 2 39 454 92 1003 59 621 94 1024 91
1066 -17 262 -320 456 -597 382z"/>
</g>
</svg>
