<?xml version="1.0" standalone="no"?>
<!DOCTYPE svg PUBLIC "-//W3C//DTD SVG 20010904//EN"
 "http://www.w3.org/TR/2001/REC-SVG-20010904/DTD/svg10.dtd">
<svg version="1.0" xmlns="http://www.w3.org/2000/svg"
 width="168.000000pt" height="166.000000pt" viewBox="0 0 168.000000 166.000000"
 preserveAspectRatio="xMidYMid meet">
<metadata>
Created by potrace 1.16, written by Peter Selinger 2001-2019
</metadata>
<g transform="translate(0.000000,166.000000) scale(0.100000,-0.100000)"
fill="#000000" stroke="none">
<path d="M680 1646 c-188 -40 -325 -118 -459 -262 -57 -61 -84 -101 -126 -188
-65 -135 -87 -226 -87 -366 0 -140 22 -231 87 -366 60 -125 149 -230 261 -310
146 -104 289 -148 479 -148 190 0 333 44 479 148 112 80 201 185 261 310 65
135 87 226 87 366 0 140 -22 231 -87 366 -42 87 -69 127 -126 188 -118 127
-255 210 -409 251 -88 22 -277 28 -360 11z"/>
</g>
</svg>
