<?xml version="1.0" standalone="no"?>
<!DOCTYPE svg PUBLIC "-//W3C//DTD SVG 20010904//EN"
 "http://www.w3.org/TR/2001/REC-SVG-20010904/DTD/svg10.dtd">
<svg version="1.0" xmlns="http://www.w3.org/2000/svg"
 width="845.000000pt" height="1115.000000pt" viewBox="0 0 845.000000 1115.000000"
 preserveAspectRatio="xMidYMid meet">
<metadata>
Created by potrace 1.16, written by Peter Selinger 2001-2019
</metadata>
<g transform="translate(0.000000,1115.000000) scale(0.100000,-0.100000)"
fill="#000000" stroke="none">
<path d="M4530 10837 l0 -314 -159 -16 c-427 -45 -861 -152 -1266 -312 -160
-63 -511 -236 -658 -324 -385 -230 -672 -457 -992 -783 -189 -192 -291 -309
-429 -493 -1005 -1340 -1294 -3121 -767 -4722 206 -628 512 -1182 932 -1688
115 -138 420 -446 563 -568 220 -189 439 -346 693 -498 147 -88 498 -261 658
-324 405 -160 839 -267 1266 -312 l159 -16 0 -234 0 -233 310 0 310 0 0 234
c0 268 -12 240 105 251 39 4 131 18 205 31 896 164 1699 672 2247 1421 222
304 421 693 540 1053 113 343 177 705 189 1059 5 161 4 179 -13 210 -35 63
-66 71 -258 71 -259 0 -268 -8 -278 -257 -15 -364 -77 -698 -187 -1018 -346
-1000 -1125 -1736 -2035 -1920 -134 -27 -363 -55 -457 -55 l-58 0 0 4416 0
4417 103 -7 c409 -28 742 -141 1081 -367 404 -269 742 -672 1006 -1199 238
-475 386 -984 464 -1591 34 -274 28 -269 328 -269 229 0 255 6 290 71 17 32
18 113 18 1954 0 1841 -1 1922 -18 1954 -29 53 -72 71 -172 71 -65 0 -92 -4
-115 -18 -17 -11 -208 -253 -444 -565 l-413 -545 -92 95 c-432 453 -985 782
-1566 934 -125 33 -381 79 -436 79 l-34 0 0 320 0 320 -310 0 -310 0 0 -313z
m0 -5341 l0 -4364 -132 29 c-276 59 -516 140 -764 259 -356 170 -626 362 -909
645 -385 385 -630 787 -820 1346 -188 554 -285 1267 -285 2089 1 1597 345
2672 1095 3426 460 462 1039 774 1690 910 61 12 113 23 118 23 4 1 7 -1963 7
-4363z"/>
</g>
</svg>
