<?xml version="1.0" standalone="no"?>
<!DOCTYPE svg PUBLIC "-//W3C//DTD SVG 20010904//EN"
 "http://www.w3.org/TR/2001/REC-SVG-20010904/DTD/svg10.dtd">
<svg version="1.0" xmlns="http://www.w3.org/2000/svg"
 width="516.000000pt" height="609.000000pt" viewBox="0 0 516.000000 609.000000"
 preserveAspectRatio="xMidYMid meet">
<metadata>
Created by potrace 1.16, written by Peter Selinger 2001-2019
</metadata>
<g transform="translate(0.000000,609.000000) scale(0.100000,-0.100000)"
fill="#000000" stroke="none">
<path d="M2340 6079 c-1039 -107 -1923 -874 -2224 -1931 -281 -981 -38 -1978
648 -2663 407 -406 915 -656 1496 -736 124 -18 506 -18 630 0 581 80 1089 330
1496 736 686 685 929 1682 648 2663 -329 1153 -1349 1952 -2478 1941 -72 -1
-169 -6 -216 -10z m530 -363 c248 -57 465 -175 644 -350 257 -250 401 -591
456 -1076 41 -366 41 -1308 0 -1685 -75 -686 -320 -1109 -777 -1343 -122 -62
-210 -94 -344 -124 -150 -33 -398 -33 -548 0 -445 99 -790 385 -962 796 -75
180 -131 416 -159 671 -41 377 -41 1319 0 1685 43 381 148 690 310 910 194
263 488 453 806 519 138 29 150 30 319 25 113 -2 176 -9 255 -28z"/>
<path d="M305 326 c-17 -7 -45 -29 -62 -49 -56 -64 -56 -150 0 -214 60 -68
-126 -63 2335 -63 l2238 0 44 22 c52 27 90 90 90 148 0 58 -38 121 -90 148
l-44 22 -2241 0 c-1829 -1 -2246 -3 -2270 -14z"/>
</g>
</svg>
