<?xml version="1.0" standalone="no"?>
<!DOCTYPE svg PUBLIC "-//W3C//DTD SVG 20010904//EN"
 "http://www.w3.org/TR/2001/REC-SVG-20010904/DTD/svg10.dtd">
<svg version="1.0" xmlns="http://www.w3.org/2000/svg"
 width="539.000000pt" height="649.000000pt" viewBox="0 0 539.000000 649.000000"
 preserveAspectRatio="xMidYMid meet">
<metadata>
Created by potrace 1.16, written by Peter Selinger 2001-2019
</metadata>
<g transform="translate(0.000000,649.000000) scale(0.100000,-0.100000)"
fill="#000000" stroke="none">
<path d="M2505 6484 c-16 -2 -73 -9 -125 -15 -285 -32 -623 -139 -890 -280
-119 -63 -318 -195 -430 -284 -118 -95 -339 -320 -437 -446 -423 -544 -645
-1233 -620 -1924 26 -710 310 -1354 813 -1845 221 -216 424 -360 688 -490 268
-131 506 -206 797 -251 207 -33 571 -33 778 0 291 45 529 120 797 251 264 130
467 274 688 490 703 686 969 1663 727 2665 -96 396 -282 779 -534 1104 -94
121 -316 348 -430 440 -375 303 -816 496 -1289 567 -98 14 -469 27 -533 18z
m470 -534 c263 -59 452 -159 632 -333 247 -239 350 -513 403 -1067 17 -174 24
-1115 11 -1383 -23 -476 -76 -773 -177 -1004 -45 -103 -147 -243 -243 -335
-179 -174 -378 -275 -651 -334 -120 -26 -400 -26 -520 0 -273 59 -472 160
-651 334 -350 337 -440 776 -426 2087 6 527 12 642 47 885 56 379 163 614 373
817 207 200 460 318 767 357 84 10 347 -4 435 -24z"/>
<path d="M305 494 c-222 -79 -218 -405 5 -479 40 -13 318 -15 2400 -13 l2355
3 41 22 c48 26 100 82 122 132 19 46 19 146 0 192 -22 50 -74 106 -122 132
l-41 22 -2360 2 c-2030 1 -2366 -1 -2400 -13z"/>
</g>
</svg>
