<?xml version="1.0" standalone="no"?>
<!DOCTYPE svg PUBLIC "-//W3C//DTD SVG 20010904//EN"
 "http://www.w3.org/TR/2001/REC-SVG-20010904/DTD/svg10.dtd">
<svg version="1.0" xmlns="http://www.w3.org/2000/svg"
 width="554.000000pt" height="927.000000pt" viewBox="0 0 554.000000 927.000000"
 preserveAspectRatio="xMidYMid meet">
<metadata>
Created by potrace 1.16, written by Peter Selinger 2001-2019
</metadata>
<g transform="translate(0.000000,927.000000) scale(0.100000,-0.100000)"
fill="#000000" stroke="none">
<path d="M679 9247 c-19 -12 -42 -38 -52 -57 -16 -33 -17 -162 -15 -2372 l3
-2337 21 -27 c48 -65 61 -69 237 -72 98 -2 176 1 199 7 44 13 75 50 148 171
203 338 502 601 848 747 135 56 312 105 467 129 160 24 441 25 541 2 273 -63
528 -250 706 -518 166 -251 254 -574 298 -1095 18 -205 24 -1036 11 -1290 -40
-739 -187 -1163 -521 -1495 -343 -342 -807 -501 -1311 -449 -573 58 -1066 345
-1391 809 -36 52 -138 225 -138 235 0 1 42 5 93 8 114 8 245 45 352 100 121
62 236 181 297 307 69 140 82 199 83 370 0 160 -17 244 -76 366 -149 313 -539
482 -901 390 -280 -71 -470 -254 -550 -531 -20 -71 -23 -101 -23 -260 1 -99 6
-220 13 -270 128 -908 735 -1659 1592 -1968 252 -91 485 -135 765 -144 665
-22 1351 189 1902 584 202 145 444 373 596 563 422 526 657 1191 657 1860 0
514 -116 997 -351 1461 -276 546 -705 978 -1227 1237 -246 122 -482 198 -742
239 -163 25 -537 25 -705 -1 -408 -62 -757 -208 -1074 -449 -51 -39 -118 -93
-147 -120 l-54 -49 0 1151 c0 633 3 1151 8 1151 4 0 59 -11 122 -24 480 -102
1037 -111 1485 -26 626 120 1189 385 1668 785 143 120 437 418 460 468 26 53
24 318 -1 366 -21 39 -73 71 -114 71 -14 0 -88 -25 -164 -56 -578 -235 -1142
-353 -1774 -370 -672 -19 -1355 105 -1993 362 -87 35 -171 64 -186 64 -15 0
-43 -10 -62 -23z"/>
</g>
</svg>
