<?xml version="1.0" standalone="no"?>
<!DOCTYPE svg PUBLIC "-//W3C//DTD SVG 20010904//EN"
 "http://www.w3.org/TR/2001/REC-SVG-20010904/DTD/svg10.dtd">
<svg version="1.0" xmlns="http://www.w3.org/2000/svg"
 width="554.000000pt" height="890.000000pt" viewBox="0 0 554.000000 890.000000"
 preserveAspectRatio="xMidYMid meet">
<metadata>
Created by potrace 1.16, written by Peter Selinger 2001-2019
</metadata>
<g transform="translate(0.000000,890.000000) scale(0.100000,-0.100000)"
fill="#000000" stroke="none">
<path d="M2427 8890 c-352 -34 -678 -122 -972 -264 -265 -128 -441 -252 -621
-439 -232 -240 -368 -494 -435 -810 -30 -139 -33 -400 -6 -497 34 -122 84
-208 172 -295 88 -89 170 -137 295 -177 108 -33 302 -33 410 0 125 40 207 88
295 177 88 87 138 174 172 295 24 90 24 300 0 390 -34 121 -84 208 -172 295
-138 138 -287 199 -486 200 -75 0 -115 4 -111 10 21 38 151 179 217 237 280
244 670 411 1116 479 193 29 503 32 630 6 242 -49 449 -157 612 -320 296 -296
405 -768 331 -1437 -104 -934 -572 -1598 -1208 -1715 -45 -8 -265 -28 -491
-45 -451 -34 -466 -37 -497 -100 -25 -50 -24 -164 2 -207 36 -59 17 -57 620
-64 592 -6 605 -7 765 -61 160 -53 343 -163 475 -285 423 -390 609 -987 586
-1873 -8 -337 -35 -558 -97 -797 -154 -599 -560 -1034 -1081 -1155 -80 -19
-122 -22 -303 -22 -660 2 -1296 217 -1705 578 -78 69 -185 183 -231 247 l-18
26 107 6 c294 15 534 168 648 412 56 120 68 183 68 345 0 162 -12 225 -68 345
-88 188 -254 324 -472 387 -114 33 -314 33 -428 0 -218 -63 -384 -199 -472
-387 -47 -102 -64 -175 -71 -305 -15 -294 67 -621 224 -893 148 -256 379 -493
663 -680 134 -88 428 -232 595 -292 230 -83 535 -152 820 -187 159 -19 633
-16 790 6 374 51 682 145 1000 305 798 402 1323 1116 1421 1931 134 1125 -692
2170 -1981 2505 -71 18 -152 37 -179 41 l-50 7 115 42 c841 310 1447 921 1658
1670 59 210 74 327 75 565 0 209 -1 218 -31 331 -57 214 -132 369 -265 548
-359 480 -990 809 -1740 907 -142 18 -559 27 -691 14z"/>
</g>
</svg>
