<?xml version="1.0" standalone="no"?>
<!DOCTYPE svg PUBLIC "-//W3C//DTD SVG 20010904//EN"
 "http://www.w3.org/TR/2001/REC-SVG-20010904/DTD/svg10.dtd">
<svg version="1.0" xmlns="http://www.w3.org/2000/svg"
 width="595.000000pt" height="1338.000000pt" viewBox="0 0 595.000000 1338.000000"
 preserveAspectRatio="xMidYMid meet">
<metadata>
Created by potrace 1.16, written by Peter Selinger 2001-2019
</metadata>
<g transform="translate(0.000000,1338.000000) scale(0.100000,-0.100000)"
fill="#000000" stroke="none">
<path d="M3245 13341 c-373 -238 -833 -391 -1390 -461 -260 -32 -384 -40 -697
-47 l-298 -6 0 -260 0 -260 298 6 c497 10 851 52 1215 143 76 19 140 34 142
34 3 0 4 -962 3 -2137 l-3 -2138 -27 -57 c-96 -205 -246 -242 -1050 -255
l-388 -6 0 -260 0 -260 128 7 c819 41 2989 41 3780 0 l122 -6 0 261 0 261
-237 0 c-531 1 -903 34 -1013 91 -73 37 -134 113 -161 200 -18 59 -19 131 -19
2566 l0 2505 -21 38 c-36 64 -78 80 -210 80 l-114 0 -60 -39z"/>
<path d="M210 6811 c-83 -26 -141 -74 -181 -151 -19 -35 -24 -61 -24 -120 1
-116 50 -196 155 -251 l45 -24 2750 -3 c3115 -2 2807 -11 2901 83 112 112 112
278 1 390 -95 94 213 85 -2886 84 -1505 0 -2747 -4 -2761 -8z"/>
<path d="M2405 5999 c-700 -46 -1230 -225 -1521 -514 -131 -130 -218 -279
-265 -455 -31 -113 -33 -359 -5 -459 96 -349 381 -561 751 -561 370 0 655 213
751 561 28 101 26 329 -4 433 -45 157 -149 313 -265 397 l-38 27 53 12 c155
33 270 43 498 44 138 0 272 -5 325 -12 432 -60 752 -195 979 -412 225 -215
326 -454 326 -772 0 -475 -233 -953 -704 -1446 -265 -276 -291 -300 -1591
-1432 -539 -469 -1002 -874 -1028 -899 -77 -73 -77 -73 -77 -306 l0 -205 2190
0 2189 0 6 33 c3 17 86 567 185 1222 99 655 182 1205 185 1222 l6 33 -225 0
-225 0 -5 -32 c-3 -18 -26 -159 -51 -313 -96 -587 -185 -895 -268 -930 -42
-17 -180 -33 -402 -46 -180 -10 -2174 -26 -2165 -17 8 8 1142 823 1238 890 99
70 323 213 645 412 435 270 659 430 867 619 309 280 490 580 567 937 25 118
25 427 0 553 -66 328 -230 611 -479 824 -395 339 -994 544 -1733 593 -172 11
-533 11 -710 -1z"/>
</g>
</svg>
