<?xml version="1.0" standalone="no"?>
<!DOCTYPE svg PUBLIC "-//W3C//DTD SVG 20010904//EN"
 "http://www.w3.org/TR/2001/REC-SVG-20010904/DTD/svg10.dtd">
<svg version="1.0" xmlns="http://www.w3.org/2000/svg"
 width="538.000000pt" height="1038.000000pt" viewBox="0 0 538.000000 1038.000000"
 preserveAspectRatio="xMidYMid meet">
<metadata>
Created by potrace 1.16, written by Peter Selinger 2001-2019
</metadata>
<g transform="translate(0.000000,1038.000000) scale(0.100000,-0.100000)"
fill="#000000" stroke="none">
<path d="M4994 10364 c-87 -31 -117 -70 -233 -303 -59 -119 -1153 -2350 -2430
-4957 -1991 -4065 -2323 -4749 -2328 -4796 -17 -163 114 -308 277 -308 64 0
130 25 179 67 34 29 62 75 145 242 57 113 1150 2344 2430 4957 1995 4073 2328
4759 2333 4806 17 165 -116 310 -281 307 -28 0 -70 -7 -92 -15z"/>
<path d="M1247 10219 c-215 -23 -401 -114 -553 -271 -174 -179 -256 -380 -256
-628 0 -248 82 -449 256 -628 194 -201 459 -298 733 -271 221 23 405 111 559
271 174 179 256 380 256 628 0 248 -82 449 -256 628 -145 150 -335 247 -523
267 -117 12 -139 12 -216 4z"/>
<path d="M3937 1959 c-215 -23 -401 -114 -553 -271 -174 -179 -256 -380 -256
-628 0 -248 82 -449 256 -628 154 -160 338 -248 558 -271 275 -27 540 70 734
271 174 179 256 380 256 628 0 248 -82 449 -256 628 -145 150 -335 247 -523
267 -117 12 -139 12 -216 4z"/>
</g>
</svg>
