<?xml version="1.0" standalone="no"?>
<!DOCTYPE svg PUBLIC "-//W3C//DTD SVG 20010904//EN"
 "http://www.w3.org/TR/2001/REC-SVG-20010904/DTD/svg10.dtd">
<svg version="1.0" xmlns="http://www.w3.org/2000/svg"
 width="876.000000pt" height="572.000000pt" viewBox="0 0 876.000000 572.000000"
 preserveAspectRatio="xMidYMid meet">
<metadata>
Created by potrace 1.16, written by Peter Selinger 2001-2019
</metadata>
<g transform="translate(0.000000,572.000000) scale(0.100000,-0.100000)"
fill="#000000" stroke="none">
<path d="M2600 5714 c-360 -33 -693 -125 -1005 -279 -310 -152 -500 -289 -751
-539 -362 -362 -597 -761 -733 -1244 -83 -293 -106 -464 -106 -792 0 -328 23
-499 106 -792 136 -483 371 -882 733 -1244 251 -250 441 -387 751 -539 263
-130 521 -211 820 -257 189 -29 571 -32 745 -5 437 68 848 233 1167 469 29 21
54 34 57 29 11 -17 201 -138 311 -199 270 -150 563 -247 895 -299 174 -27 556
-24 745 5 299 46 557 127 820 257 310 152 500 289 751 539 362 362 597 761
733 1244 83 293 106 464 106 792 0 328 -23 499 -106 792 -136 483 -371 882
-733 1244 -251 250 -441 387 -751 539 -263 130 -521 211 -820 257 -189 29
-571 32 -745 5 -437 -68 -848 -233 -1167 -469 -29 -21 -54 -34 -57 -29 -3 5
-50 38 -103 74 -335 222 -692 360 -1093 422 -101 15 -471 28 -570 19z m575
-668 c206 -31 375 -74 551 -141 91 -36 209 -88 222 -100 2 -2 -24 -36 -58 -77
-329 -390 -559 -924 -637 -1478 -24 -176 -24 -604 0 -780 78 -554 308 -1088
637 -1478 34 -41 60 -75 58 -77 -13 -12 -131 -64 -222 -100 -266 -101 -515
-150 -826 -161 -602 -22 -1151 156 -1557 505 -296 255 -530 665 -627 1101 -46
209 -60 345 -60 600 0 437 71 763 239 1105 157 320 356 549 640 740 293 197
633 313 1035 355 118 12 485 4 605 -14z m2990 14 c491 -46 910 -214 1242 -499
296 -255 530 -665 627 -1101 46 -209 60 -345 60 -600 0 -437 -71 -763 -239
-1105 -193 -392 -475 -678 -860 -868 -513 -255 -1165 -307 -1765 -140 -135 37
-396 140 -428 168 -2 2 24 36 58 77 329 390 559 924 637 1478 24 176 24 604 0
780 -78 554 -308 1088 -637 1478 -34 41 -60 75 -58 77 12 11 139 68 218 98
351 135 768 192 1145 157z m-1538 -830 c261 -354 401 -750 433 -1228 20 -310
-32 -682 -136 -961 -109 -291 -261 -537 -459 -739 l-90 -94 -91 94 c-295 305
-487 697 -563 1148 -124 736 88 1477 563 1968 l91 94 90 -94 c50 -51 123 -136
162 -188z"/>
</g>
</svg>
