<?xml version="1.0" standalone="no"?>
<!DOCTYPE svg PUBLIC "-//W3C//DTD SVG 20010904//EN"
 "http://www.w3.org/TR/2001/REC-SVG-20010904/DTD/svg10.dtd">
<svg version="1.0" xmlns="http://www.w3.org/2000/svg"
 width="895.000000pt" height="894.000000pt" viewBox="0 0 895.000000 894.000000"
 preserveAspectRatio="xMidYMid meet">
<metadata>
Created by potrace 1.16, written by Peter Selinger 2001-2019
</metadata>
<g transform="translate(0.000000,894.000000) scale(0.100000,-0.100000)"
fill="#000000" stroke="none">
<path d="M227 8929 c-132 -32 -221 -143 -221 -274 0 -120 -24 -92 749 -865
388 -388 705 -708 705 -712 0 -4 -24 -35 -53 -70 -141 -168 -322 -434 -431
-635 -648 -1196 -648 -2610 0 -3806 109 -201 290 -467 431 -635 29 -35 53 -66
53 -70 0 -4 -317 -324 -705 -712 -773 -773 -749 -745 -749 -865 0 -154 125
-279 279 -278 121 0 92 -25 865 748 388 388 708 705 712 705 4 0 35 -24 70
-53 482 -405 1110 -707 1743 -836 292 -59 456 -75 795 -75 339 0 503 16 795
75 633 129 1261 431 1743 836 35 29 66 53 70 53 4 0 324 -317 712 -705 773
-773 744 -748 865 -748 155 0 279 124 279 278 0 120 24 92 -749 865 -388 388
-705 708 -705 712 0 4 24 35 53 70 141 168 322 434 431 635 648 1196 648 2610
0 3806 -109 201 -290 467 -431 635 -29 35 -53 66 -53 70 0 4 317 324 705 712
773 773 749 745 749 865 0 154 -124 278 -279 278 -121 0 -92 25 -865 -748
-388 -388 -708 -705 -712 -705 -4 0 -35 24 -70 53 -482 405 -1110 707 -1743
836 -292 59 -456 75 -795 75 -339 0 -503 -16 -795 -75 -633 -129 -1261 -431
-1743 -836 -35 -29 -66 -53 -70 -53 -4 0 -324 317 -712 705 -560 560 -714 708
-750 724 -57 24 -124 32 -173 20z m4653 -1064 c899 -114 1697 -561 2265 -1267
75 -94 221 -308 284 -415 183 -317 333 -717 397 -1062 46 -253 58 -379 58
-651 0 -356 -37 -624 -128 -943 -195 -679 -598 -1281 -1158 -1732 -94 -75
-308 -221 -415 -284 -389 -225 -839 -376 -1308 -438 -182 -24 -628 -24 -810 0
-913 121 -1700 561 -2270 1269 -36 46 -106 142 -154 213 -316 467 -495 950
-568 1530 -23 178 -23 592 0 770 40 315 109 595 212 857 225 567 580 1049
1057 1433 94 75 308 221 415 284 442 256 953 412 1488 455 108 8 516 -3 635
-19z"/>
</g>
</svg>
