<?xml version="1.0" standalone="no"?>
<!DOCTYPE svg PUBLIC "-//W3C//DTD SVG 20010904//EN"
 "http://www.w3.org/TR/2001/REC-SVG-20010904/DTD/svg10.dtd">
<svg version="1.0" xmlns="http://www.w3.org/2000/svg"
 width="209.000000pt" height="1384.000000pt" viewBox="0 0 209.000000 1384.000000"
 preserveAspectRatio="xMidYMid meet">
<metadata>
Created by potrace 1.16, written by Peter Selinger 2001-2019
</metadata>
<g transform="translate(0.000000,1384.000000) scale(0.100000,-0.100000)"
fill="#000000" stroke="none">
<path d="M176 13820 c-63 -25 -122 -81 -152 -145 l-24 -50 0 -6705 0 -6705 24
-50 c103 -222 411 -215 514 12 16 36 17 400 17 6743 0 6343 -1 6707 -17 6743
-48 105 -136 167 -247 174 -49 2 -78 -2 -115 -17z"/>
<path d="M1696 13820 c-63 -25 -122 -81 -152 -145 l-24 -50 0 -6705 0 -6705
24 -50 c103 -222 411 -215 514 12 16 36 17 400 17 6743 0 6343 -1 6707 -17
6743 -48 105 -136 167 -247 174 -49 2 -78 -2 -115 -17z"/>
</g>
</svg>
