<?xml version="1.0" standalone="no"?>
<!DOCTYPE svg PUBLIC "-//W3C//DTD SVG 20010904//EN"
 "http://www.w3.org/TR/2001/REC-SVG-20010904/DTD/svg10.dtd">
<svg version="1.0" xmlns="http://www.w3.org/2000/svg"
 width="1230.000000pt" height="1007.000000pt" viewBox="0 0 1230.000000 1007.000000"
 preserveAspectRatio="xMidYMid meet">
<metadata>
Created by potrace 1.16, written by Peter Selinger 2001-2019
</metadata>
<g transform="translate(0.000000,1007.000000) scale(0.100000,-0.100000)"
fill="#000000" stroke="none">
<path d="M8345 10059 c-884 -67 -1744 -388 -2469 -923 -432 -317 -840 -743
-1145 -1191 -899 -1324 -1134 -3014 -631 -4535 262 -793 676 -1460 1262 -2035
533 -524 1158 -907 1860 -1139 715 -236 1490 -298 2138 -170 587 116 1152 390
1615 784 119 101 380 370 472 487 522 657 812 1437 839 2252 5 161 4 179 -13
210 -35 63 -66 71 -258 71 -259 0 -268 -9 -278 -253 -8 -180 -20 -307 -48
-472 -211 -1260 -1094 -2256 -2194 -2474 -190 -37 -286 -46 -525 -46 -845 1
-1619 287 -2252 833 -614 531 -1002 1289 -1162 2272 -58 356 -84 679 -93 1145
-30 1676 320 2820 1102 3600 529 528 1214 854 2000 951 174 22 558 25 690 6
606 -88 1104 -385 1525 -909 462 -574 759 -1334 874 -2234 34 -274 28 -269
328 -269 229 0 255 6 290 71 17 32 18 113 18 1954 0 1841 -1 1922 -18 1954
-29 53 -72 71 -172 71 -65 0 -92 -4 -115 -18 -17 -11 -208 -254 -445 -566
l-415 -548 -60 67 c-75 84 -260 254 -389 357 -253 203 -638 419 -931 524 -245
87 -543 152 -800 174 -138 11 -440 11 -600 -1z"/>
<path d="M1350 9750 c-265 -37 -523 -143 -732 -300 -304 -230 -503 -544 -590
-932 -20 -88 -23 -131 -23 -293 0 -162 3 -205 23 -293 140 -626 595 -1080
1216 -1214 146 -32 436 -32 582 0 621 134 1076 588 1216 1214 20 88 23 131 23
293 0 162 -3 205 -23 293 -140 624 -598 1083 -1210 1212 -111 24 -376 35 -482
20z m412 -579 c358 -94 621 -356 720 -719 30 -110 30 -344 0 -454 -117 -429
-471 -722 -902 -745 -428 -23 -831 257 -969 671 -184 556 173 1150 758 1261
103 20 291 13 393 -14z"/>
</g>
</svg>
