<?xml version="1.0" standalone="no"?>
<!DOCTYPE svg PUBLIC "-//W3C//DTD SVG 20010904//EN"
 "http://www.w3.org/TR/2001/REC-SVG-20010904/DTD/svg10.dtd">
<svg version="1.0" xmlns="http://www.w3.org/2000/svg"
 width="576.000000pt" height="927.000000pt" viewBox="0 0 576.000000 927.000000"
 preserveAspectRatio="xMidYMid meet">
<metadata>
Created by potrace 1.16, written by Peter Selinger 2001-2019
</metadata>
<g transform="translate(0.000000,927.000000) scale(0.100000,-0.100000)"
fill="#000000" stroke="none">
<path d="M2505 9260 c-524 -53 -1010 -233 -1387 -512 -115 -85 -306 -275 -393
-389 -186 -248 -305 -543 -336 -840 -33 -312 32 -541 201 -709 90 -90 172
-139 300 -182 88 -30 105 -32 235 -32 117 -1 153 3 219 22 135 39 230 95 327
191 148 149 211 310 210 536 0 183 -41 317 -136 450 -126 177 -360 295 -582
295 l-85 0 33 43 c19 23 70 78 114 122 346 343 869 548 1465 571 323 13 600
-63 820 -227 343 -254 484 -609 483 -1214 -1 -454 -83 -870 -243 -1228 -193
-432 -511 -747 -865 -856 -117 -36 -224 -50 -645 -81 -453 -34 -454 -34 -497
-100 -20 -29 -23 -46 -23 -134 0 -117 15 -158 71 -188 31 -17 69 -18 546 -18
522 0 600 -4 745 -41 431 -109 821 -497 992 -988 99 -284 142 -566 153 -1001
22 -916 -150 -1502 -558 -1896 -187 -180 -384 -288 -634 -347 -78 -18 -119
-21 -305 -21 -643 2 -1256 197 -1670 531 -41 33 -115 103 -165 154 l-90 94 95
6 c213 15 430 124 557 280 66 79 116 176 149 284 25 82 28 104 28 250 0 146
-3 168 -28 250 -81 265 -261 447 -526 530 -323 100 -698 -2 -898 -246 -149
-182 -206 -419 -172 -720 70 -637 467 -1169 1130 -1517 353 -185 779 -310
1245 -364 170 -20 648 -16 810 6 739 101 1370 409 1845 902 363 376 605 857
685 1364 23 143 30 399 16 535 -109 1020 -975 1870 -2182 2141 l-125 28 140
53 c170 64 443 198 584 287 328 208 619 486 817 781 267 398 409 876 392 1320
-7 166 -22 250 -72 401 -242 730 -1048 1276 -2077 1410 -145 18 -581 27 -713
14z"/>
</g>
</svg>
