<?xml version="1.0" standalone="no"?>
<!DOCTYPE svg PUBLIC "-//W3C//DTD SVG 20010904//EN"
 "http://www.w3.org/TR/2001/REC-SVG-20010904/DTD/svg10.dtd">
<svg version="1.0" xmlns="http://www.w3.org/2000/svg"
 width="966.000000pt" height="907.000000pt" viewBox="0 0 966.000000 907.000000"
 preserveAspectRatio="xMidYMid meet">
<metadata>
Created by potrace 1.16, written by Peter Selinger 2001-2019
</metadata>
<g transform="translate(0.000000,907.000000) scale(0.100000,-0.100000)"
fill="#000000" stroke="none">
<path d="M0 8848 l0 -225 308 -6 c617 -12 794 -53 973 -224 43 -42 103 -112
134 -157 30 -44 378 -612 774 -1261 l719 -1180 -1026 -5 c-778 -4 -1032 -8
-1048 -17 -37 -21 -83 -81 -90 -118 -13 -71 22 -151 79 -183 30 -16 117 -17
1165 -22 l1134 -5 554 -908 554 -909 0 -209 0 -209 -1675 0 c-1385 0 -1681 -2
-1708 -14 -44 -18 -95 -78 -103 -121 -14 -77 24 -156 90 -186 39 -18 105 -19
1719 -19 l1677 0 0 -1015 c0 -713 -3 -1030 -11 -1067 -14 -65 -49 -136 -91
-183 -93 -107 -296 -141 -915 -152 l-343 -6 0 -225 0 -225 118 7 c731 39 2881
39 3665 0 l127 -7 0 225 0 225 -347 6 c-443 8 -670 28 -793 71 -94 32 -162
104 -204 214 -21 57 -21 61 -24 1095 l-3 1037 1683 0 c1619 0 1685 1 1724 19
66 30 104 109 90 186 -8 43 -59 103 -103 121 -27 12 -324 14 -1713 14 l-1680
0 0 206 0 207 558 913 557 913 1125 1 c1075 0 1127 1 1166 19 97 44 123 176
51 258 -59 67 6 63 -1112 63 -558 0 -1015 2 -1015 4 0 13 1271 2083 1318 2146
116 158 304 324 478 424 272 157 673 255 1042 256 l72 0 0 226 0 226 -82 -6
c-519 -39 -2041 -39 -2685 0 l-103 6 0 -224 0 -225 99 -7 c279 -18 489 -116
589 -273 78 -123 83 -299 15 -454 -11 -25 -303 -508 -648 -1072 l-627 -1027
-957 0 -956 1 -640 1050 c-352 578 -684 1123 -737 1211 -54 88 -103 179 -109
202 -15 53 1 136 36 186 73 105 306 166 678 177 l207 6 0 225 0 225 -137 -7
c-845 -39 -2810 -39 -3485 0 l-108 7 0 -225z m5912 -3541 c-48 -78 -215 -353
-372 -609 -216 -355 -288 -464 -296 -455 -13 13 -734 1195 -734 1202 0 3 335
5 745 5 l745 0 -88 -143z"/>
</g>
</svg>
