<?xml version="1.0" standalone="no"?>
<!DOCTYPE svg PUBLIC "-//W3C//DTD SVG 20010904//EN"
 "http://www.w3.org/TR/2001/REC-SVG-20010904/DTD/svg10.dtd">
<svg version="1.0" xmlns="http://www.w3.org/2000/svg"
 width="1372.000000pt" height="976.000000pt" viewBox="0 0 1372.000000 976.000000"
 preserveAspectRatio="xMidYMid meet">
<metadata>
Created by potrace 1.16, written by Peter Selinger 2001-2019
</metadata>
<g transform="translate(0.000000,976.000000) scale(0.100000,-0.100000)"
fill="#000000" stroke="none">
<path d="M0 9501 l0 -261 183 0 c349 0 642 -27 764 -70 113 -40 217 -150 272
-290 11 -30 199 -608 417 -1285 218 -676 399 -1236 401 -1242 4 -10 -115 -13
-573 -13 -570 0 -578 0 -622 -21 -112 -55 -143 -212 -61 -312 62 -75 28 -71
749 -77 l645 -5 366 -1135 366 -1135 -1021 -5 -1021 -5 -38 -23 c-42 -27 -82
-89 -92 -145 -15 -79 36 -175 112 -213 36 -18 87 -19 1117 -24 l1079 -5 503
-1558 c359 -1113 510 -1568 528 -1592 14 -18 49 -45 78 -59 47 -23 63 -26 162
-26 143 0 180 11 237 69 45 44 49 55 116 261 38 118 264 821 503 1562 l435
1348 1250 0 1250 0 435 -1348 c239 -741 465 -1444 503 -1562 67 -206 71 -217
116 -261 57 -58 94 -69 237 -69 99 0 115 3 162 26 29 14 64 41 78 59 18 24
170 483 528 1592 l503 1558 1079 5 c1030 5 1081 6 1117 24 76 38 127 134 112
213 -10 56 -50 118 -92 145 l-38 23 -1021 5 -1022 5 367 1135 366 1135 645 5
c721 6 687 2 749 77 82 100 51 257 -61 312 -44 21 -52 21 -622 21 -458 0 -577
3 -573 13 2 6 158 489 346 1072 189 583 356 1093 373 1133 94 226 269 408 503
522 194 95 403 143 677 157 l138 6 0 260 0 259 -72 -6 c-487 -41 -2104 -41
-2835 0 l-113 6 0 -261 0 -261 63 0 c95 0 269 -19 379 -41 414 -83 711 -305
758 -567 6 -34 8 -79 5 -100 -3 -20 -162 -522 -352 -1114 l-347 -1078 -1367 0
-1368 0 -75 233 c-41 127 -224 693 -406 1257 -296 915 -331 1031 -327 1077 15
206 322 315 930 330 l237 6 0 260 0 260 -127 -7 c-829 -41 -2828 -41 -3525 0
l-108 7 0 -260 0 -260 293 -6 c401 -9 579 -30 695 -82 75 -35 160 -123 205
-215 20 -41 111 -305 201 -586 l165 -511 -242 -749 -242 -749 -1369 0 -1370 0
-404 1250 c-275 851 -404 1264 -405 1295 -1 80 65 170 160 218 159 81 492 132
866 132 l147 0 0 261 0 262 -127 -7 c-821 -41 -2901 -41 -3535 0 l-98 7 0
-262z m6979 -2773 c66 -207 121 -379 121 -382 0 -3 -111 -6 -246 -6 -230 0
-246 1 -242 18 13 44 242 751 244 749 1 -1 56 -171 123 -379z m-982 -810 c-2
-7 -168 -520 -368 -1140 l-364 -1128 -500 0 -500 0 -359 1118 c-198 614 -363
1127 -368 1140 l-8 22 1236 0 c985 0 1235 -3 1231 -12z m1603 -1115 c200 -621
365 -1134 368 -1140 3 -10 -224 -13 -1113 -13 -889 0 -1116 3 -1113 13 3 6
168 519 368 1140 l364 1127 381 0 381 0 364 -1127z m3460 1121 c0 -4 -153
-480 -339 -1058 -187 -578 -352 -1088 -366 -1134 l-26 -82 -501 2 -500 3 -364
1125 c-200 619 -363 1131 -364 1138 0 9 252 12 1230 12 677 0 1230 -3 1230 -6z
m-5932 -2696 c-2 -7 -85 -263 -183 -569 l-179 -556 -183 566 c-101 311 -183
567 -183 569 0 1 165 2 366 2 289 0 365 -3 362 -12z m5062 5 c1 -12 -352
-1107 -359 -1115 -5 -6 -65 175 -317 960 l-52 162 364 0 c200 0 364 -3 364 -7z"/>
</g>
</svg>
