<?xml version="1.0" standalone="no"?>
<!DOCTYPE svg PUBLIC "-//W3C//DTD SVG 20010904//EN"
 "http://www.w3.org/TR/2001/REC-SVG-20010904/DTD/svg10.dtd">
<svg version="1.0" xmlns="http://www.w3.org/2000/svg"
 width="768.000000pt" height="1003.000000pt" viewBox="0 0 768.000000 1003.000000"
 preserveAspectRatio="xMidYMid meet">
<metadata>
Created by potrace 1.16, written by Peter Selinger 2001-2019
</metadata>
<g transform="translate(0.000000,1003.000000) scale(0.100000,-0.100000)"
fill="#000000" stroke="none">
<path d="M4717 10015 c-447 -56 -885 -244 -1242 -532 -136 -109 -321 -302
-432 -450 -275 -366 -446 -778 -526 -1266 -20 -128 -21 -167 -24 -1159 l-4
-1028 -507 0 c-488 0 -509 -1 -552 -21 -120 -54 -177 -183 -138 -313 8 -25 32
-61 63 -93 82 -84 77 -83 647 -83 l488 0 0 -790 0 -790 -507 0 -508 0 -50 -24
c-117 -55 -171 -181 -133 -310 8 -25 32 -61 63 -93 82 -84 76 -83 648 -83
l490 0 -7 -462 c-4 -255 -9 -484 -12 -509 l-6 -46 -95 23 c-730 177 -1457 66
-1928 -295 -391 -299 -551 -808 -371 -1176 117 -238 376 -404 758 -487 91 -19
132 -22 338 -22 208 1 251 4 380 27 351 63 662 185 949 374 159 103 234 165
387 316 110 107 136 128 153 122 12 -4 165 -74 339 -157 774 -367 1089 -493
1472 -588 650 -163 1179 -127 1665 114 675 334 1120 1015 1151 1761 5 116 4
134 -13 164 -35 63 -66 71 -256 71 -247 0 -265 -12 -278 -190 -29 -383 -163
-681 -409 -913 -236 -222 -504 -327 -835 -327 -431 0 -903 123 -1521 395 -162
72 -867 404 -876 413 -4 4 15 75 41 157 101 312 122 456 128 893 l5 342 677 0
c762 0 748 -1 826 71 134 124 103 340 -60 415 l-50 24 -697 0 -698 0 0 790 0
790 678 0 c763 0 749 -1 827 71 134 124 103 340 -60 415 l-50 24 -697 0 -698
0 0 1033 c0 1217 8 1409 71 1722 122 613 494 1038 1013 1158 133 30 387 30
544 -1 566 -113 1034 -543 1285 -1182 25 -63 52 -139 60 -167 l16 -53 -92 0
c-337 0 -616 -210 -704 -530 -28 -102 -25 -321 6 -420 91 -293 310 -473 622
-513 290 -36 601 117 726 359 77 148 88 202 88 424 0 217 -12 336 -55 550 -50
252 -127 482 -239 715 -244 507 -611 897 -1060 1124 -212 107 -380 163 -616
206 -125 23 -457 28 -598 10z m-2942 -8754 c133 -20 301 -56 412 -88 l62 -18
-57 -85 c-69 -104 -242 -279 -338 -343 -219 -144 -435 -211 -684 -212 -116 0
-145 3 -208 24 -135 44 -231 133 -251 233 -13 64 -1 150 29 213 66 136 245
250 457 290 106 20 403 13 578 -14z"/>
</g>
</svg>
