<?xml version="1.0" standalone="no"?>
<!DOCTYPE svg PUBLIC "-//W3C//DTD SVG 20010904//EN"
 "http://www.w3.org/TR/2001/REC-SVG-20010904/DTD/svg10.dtd">
<svg version="1.0" xmlns="http://www.w3.org/2000/svg"
 width="920.000000pt" height="596.000000pt" viewBox="0 0 920.000000 596.000000"
 preserveAspectRatio="xMidYMid meet">
<metadata>
Created by potrace 1.16, written by Peter Selinger 2001-2019
</metadata>
<g transform="translate(0.000000,596.000000) scale(0.100000,-0.100000)"
fill="#000000" stroke="none">
<path d="M2695 5950 c-1184 -120 -2166 -903 -2540 -2025 -59 -178 -96 -332
-128 -535 -30 -196 -30 -624 0 -820 60 -385 177 -733 350 -1044 538 -967 1575
-1559 2668 -1523 518 17 1008 173 1440 457 58 39 108 70 110 70 2 0 52 -31
110 -70 653 -430 1446 -564 2221 -376 621 151 1197 517 1596 1012 345 428 552
904 641 1474 17 113 21 180 21 410 0 230 -4 297 -21 410 -60 385 -177 733
-350 1044 -538 967 -1575 1559 -2668 1523 -518 -17 -1008 -173 -1440 -457 -58
-39 -108 -70 -110 -70 -2 0 -52 31 -110 70 -338 223 -721 369 -1128 431 -151
24 -514 33 -662 19z m655 -755 c220 -30 436 -86 623 -161 62 -25 116 -49 120
-53 5 -5 -21 -45 -57 -89 -427 -530 -666 -1215 -666 -1912 0 -697 239 -1382
666 -1912 36 -44 62 -84 57 -89 -16 -16 -232 -98 -340 -129 -274 -79 -474
-105 -798 -104 -206 0 -275 4 -395 23 -817 125 -1376 550 -1651 1254 -115 297
-163 576 -163 957 0 312 23 495 95 751 244 874 924 1401 1914 1483 102 8 484
-4 595 -19z m3285 -5 c807 -121 1372 -551 1646 -1253 115 -297 163 -576 163
-957 0 -312 -23 -495 -95 -751 -204 -732 -723 -1230 -1470 -1413 -215 -52
-372 -69 -644 -70 -324 -1 -524 25 -798 104 -108 31 -324 113 -340 129 -5 5
21 45 57 89 427 530 666 1215 666 1912 0 697 -239 1382 -666 1912 -36 44 -62
84 -57 89 16 16 232 98 340 129 184 53 323 77 588 104 105 11 476 -4 610 -24z
m-1867 -725 c494 -586 648 -1478 390 -2262 -104 -316 -271 -594 -497 -825
l-65 -68 -49 48 c-286 278 -509 704 -590 1127 -153 789 62 1575 572 2097 l65
68 49 -48 c27 -26 83 -87 125 -137z"/>
</g>
</svg>
