<?xml version="1.0" standalone="no"?>
<!DOCTYPE svg PUBLIC "-//W3C//DTD SVG 20010904//EN"
 "http://www.w3.org/TR/2001/REC-SVG-20010904/DTD/svg10.dtd">
<svg version="1.0" xmlns="http://www.w3.org/2000/svg"
 width="930.000000pt" height="596.000000pt" viewBox="0 0 930.000000 596.000000"
 preserveAspectRatio="xMidYMid meet">
<metadata>
Created by potrace 1.16, written by Peter Selinger 2001-2019
</metadata>
<g transform="translate(0.000000,596.000000) scale(0.100000,-0.100000)"
fill="#000000" stroke="none">
<path d="M2743 5950 c-591 -57 -1134 -272 -1603 -636 -142 -110 -378 -344
-489 -484 -867 -1096 -867 -2604 0 -3700 111 -140 347 -374 489 -484 429 -333
908 -536 1450 -617 130 -19 196 -23 410 -24 318 0 518 27 795 106 240 69 534
201 745 334 93 59 107 65 125 54 369 -236 685 -368 1057 -443 221 -44 301 -51
568 -51 214 1 280 5 410 24 542 81 1021 284 1450 617 142 110 378 344 489 484
867 1096 867 2604 0 3700 -111 140 -347 374 -489 484 -429 333 -908 536 -1450
617 -130 19 -196 23 -410 24 -267 0 -347 -7 -568 -51 -372 -75 -688 -207
-1057 -443 -18 -11 -32 -5 -125 54 -132 83 -391 212 -533 265 -194 71 -399
123 -621 156 -121 18 -512 26 -643 14z m667 -855 c218 -28 399 -70 581 -137
l86 -31 -65 -81 c-403 -499 -642 -1193 -642 -1866 0 -673 239 -1367 642 -1866
l65 -81 -86 -31 c-182 -67 -359 -108 -586 -139 -183 -24 -600 -24 -780 1 -379
51 -697 163 -955 335 -442 294 -705 744 -801 1371 -33 210 -33 610 0 820 42
276 101 471 206 685 300 614 853 956 1675 1035 135 12 512 4 660 -15z m3260 0
c551 -72 1004 -294 1295 -635 241 -281 388 -628 456 -1070 33 -210 33 -610 0
-820 -42 -276 -101 -471 -206 -685 -284 -581 -798 -919 -1550 -1021 -180 -25
-597 -25 -780 -1 -227 31 -404 72 -586 139 l-86 31 65 81 c403 499 642 1193
642 1866 0 673 -239 1367 -642 1866 l-65 81 86 31 c225 82 446 127 761 156 99
9 491 -3 610 -19z m-1814 -762 c207 -273 341 -603 401 -988 25 -156 25 -574 0
-730 -72 -462 -240 -824 -527 -1137 l-84 -91 -79 84 c-288 308 -461 680 -534
1144 -25 156 -25 574 0 730 72 462 240 824 527 1137 l84 91 79 -84 c43 -46
103 -116 133 -156z"/>
</g>
</svg>
