<?xml version="1.0" standalone="no"?>
<!DOCTYPE svg PUBLIC "-//W3C//DTD SVG 20010904//EN"
 "http://www.w3.org/TR/2001/REC-SVG-20010904/DTD/svg10.dtd">
<svg version="1.0" xmlns="http://www.w3.org/2000/svg"
 width="863.000000pt" height="1115.000000pt" viewBox="0 0 863.000000 1115.000000"
 preserveAspectRatio="xMidYMid meet">
<metadata>
Created by potrace 1.16, written by Peter Selinger 2001-2019
</metadata>
<g transform="translate(0.000000,1115.000000) scale(0.100000,-0.100000)"
fill="#000000" stroke="none">
<path d="M4550 10685 l0 -465 -2275 0 -2275 0 0 -308 0 -309 402 -6 c546 -8
761 -27 863 -77 50 -24 108 -78 132 -123 17 -30 18 -234 18 -3902 0 -3668 -1
-3872 -18 -3902 -24 -45 -82 -99 -132 -123 -102 -50 -317 -69 -862 -77 l-403
-6 0 -309 0 -308 2275 0 2275 0 0 -385 0 -385 310 0 310 0 0 384 0 383 348 6
c372 6 511 19 777 73 496 100 1000 333 1385 640 122 97 352 332 443 451 312
411 475 846 494 1318 13 330 -52 624 -207 942 -115 234 -256 430 -455 628
-461 461 -1103 766 -1845 876 -47 7 -76 15 -65 17 143 27 429 112 584 174 566
224 1032 581 1314 1008 231 351 330 742 286 1138 -118 1080 -1162 1966 -2529
2147 -138 18 -358 35 -457 35 l-73 0 0 465 0 465 -310 0 -310 0 0 -465z m0
-2915 l0 -1830 -890 0 -890 0 0 1705 c0 1177 3 1720 11 1754 20 95 74 148 173
170 108 24 233 28 914 30 l682 1 0 -1830z m900 1798 c557 -120 1019 -594 1180
-1210 149 -573 44 -1150 -297 -1632 -75 -105 -315 -345 -421 -420 -214 -152
-477 -271 -709 -321 l-33 -7 0 1813 0 1812 93 -7 c50 -4 135 -16 187 -28z
m-900 -6159 l0 -2020 -742 4 c-450 3 -763 9 -794 15 -140 28 -182 54 -218 132
l-21 45 -3 1923 -2 1922 890 0 890 0 0 -2021z m1085 1991 c470 -100 890 -449
1143 -948 145 -285 224 -574 253 -922 68 -830 -343 -1590 -1052 -1945 -231
-116 -540 -195 -764 -195 l-45 0 0 2021 0 2022 183 -6 c129 -4 211 -12 282
-27z"/>
</g>
</svg>
