<?xml version="1.0" standalone="no"?>
<!DOCTYPE svg PUBLIC "-//W3C//DTD SVG 20010904//EN"
 "http://www.w3.org/TR/2001/REC-SVG-20010904/DTD/svg10.dtd">
<svg version="1.0" xmlns="http://www.w3.org/2000/svg"
 width="868.000000pt" height="581.000000pt" viewBox="0 0 868.000000 581.000000"
 preserveAspectRatio="xMidYMid meet">
<metadata>
Created by potrace 1.16, written by Peter Selinger 2001-2019
</metadata>
<g transform="translate(0.000000,581.000000) scale(0.100000,-0.100000)"
fill="#000000" stroke="none">
<path d="M5296 5800 c-45 -14 -92 -51 -120 -94 l-26 -40 0 -2761 0 -2761 26
-41 c78 -120 256 -138 358 -37 15 16 35 42 44 59 16 28 17 203 22 2180 l5
2151 549 -1327 c301 -730 557 -1341 567 -1358 10 -17 37 -43 60 -58 35 -23 55
-29 118 -31 65 -3 83 0 120 20 25 13 56 39 71 58 15 20 269 625 576 1374 l549
1339 5 -2170 5 -2169 25 -36 c112 -164 388 -107 415 86 3 22 5 1263 3 2756 -3
2506 -4 2717 -20 2745 -21 39 -64 82 -103 103 -41 23 -169 23 -211 0 -78 -42
-60 -2 -755 -1694 -364 -888 -665 -1617 -668 -1619 -3 -1 -307 725 -675 1616
-700 1693 -683 1656 -760 1696 -36 19 -139 26 -180 13z"/>
<path d="M125 5476 c-80 -37 -125 -103 -125 -181 0 -78 45 -144 125 -181 l50
-24 953 0 952 0 0 -2465 c0 -2434 0 -2466 20 -2504 80 -158 320 -159 402 -2
l28 53 0 2459 0 2459 963 2 c1059 3 985 -1 1051 64 42 43 60 84 60 139 0 74
-44 143 -119 183 -28 16 -199 17 -2170 19 l-2140 3 -50 -24z"/>
</g>
</svg>
