<?xml version="1.0" standalone="no"?>
<!DOCTYPE svg PUBLIC "-//W3C//DTD SVG 20010904//EN"
 "http://www.w3.org/TR/2001/REC-SVG-20010904/DTD/svg10.dtd">
<svg version="1.0" xmlns="http://www.w3.org/2000/svg"
 width="993.000000pt" height="907.000000pt" viewBox="0 0 993.000000 907.000000"
 preserveAspectRatio="xMidYMid meet">
<metadata>
Created by potrace 1.16, written by Peter Selinger 2001-2019
</metadata>
<g transform="translate(0.000000,907.000000) scale(0.100000,-0.100000)"
fill="#000000" stroke="none">
<path d="M410 8845 l0 -225 243 0 c448 0 875 -27 1050 -66 l67 -16 0 -1374 0
-1374 -815 0 c-898 0 -854 3 -912 -63 -72 -82 -46 -214 51 -258 39 -18 83 -19
859 -19 l817 0 0 -1120 0 -1120 -815 0 c-898 0 -854 3 -912 -63 -72 -82 -46
-214 51 -258 39 -18 83 -19 859 -19 l818 0 -3 -872 -3 -873 -23 -70 c-43 -128
-90 -204 -182 -295 -66 -66 -105 -95 -175 -131 -220 -114 -437 -162 -797 -175
l-178 -7 0 -225 0 -224 103 6 c644 39 2280 39 2925 0 l102 -6 0 224 0 225
-177 7 c-361 13 -578 61 -798 175 -70 36 -109 65 -175 131 -92 91 -139 167
-182 295 l-23 70 -3 873 -3 872 1839 0 1839 0 963 -1415 c530 -778 975 -1423
989 -1433 21 -14 48 -17 136 -17 98 0 113 2 141 22 69 49 64 -56 64 1467 l0
1376 818 0 c775 0 819 1 858 19 97 44 123 176 51 258 -58 66 -14 63 -912 63
l-815 0 0 1120 0 1120 818 0 c775 0 819 1 858 19 97 44 123 176 51 258 -58 66
-14 63 -912 63 l-816 0 3 1078 3 1077 23 70 c43 128 90 204 182 295 66 66 105
95 175 131 220 114 437 162 798 175 l177 7 0 225 0 224 -102 -6 c-645 -39
-2281 -39 -2925 0 l-103 6 0 -224 0 -225 178 -7 c360 -13 577 -61 797 -175 70
-36 109 -65 175 -131 92 -91 139 -167 182 -295 l23 -70 3 -1078 3 -1077 -1267
2 -1266 3 -1089 1599 c-599 879 -1099 1610 -1111 1623 -52 56 25 53 -1338 53
l-1260 0 0 -225z m2595 -1785 c417 -613 782 -1150 812 -1192 l54 -78 -845 0
-846 0 0 1236 0 1237 33 -44 c18 -24 375 -546 792 -1159z m1857 -2728 c417
-613 758 -1115 758 -1118 0 -2 -774 -4 -1720 -4 l-1720 0 0 1120 0 1120 962
-2 962 -3 758 -1113z m2878 -2 l0 -1120 -387 0 -388 1 -755 1110 c-415 611
-756 1114 -758 1120 -2 5 431 9 1142 9 l1146 0 0 -1120z m0 -1857 c0 -218 -2
-394 -4 -392 -2 2 -110 162 -241 354 -131 193 -251 369 -267 393 l-29 42 271
0 270 0 0 -397z"/>
</g>
</svg>
