<?xml version="1.0" standalone="no"?>
<!DOCTYPE svg PUBLIC "-//W3C//DTD SVG 20010904//EN"
 "http://www.w3.org/TR/2001/REC-SVG-20010904/DTD/svg10.dtd">
<svg version="1.0" xmlns="http://www.w3.org/2000/svg"
 width="306.000000pt" height="312.000000pt" viewBox="0 0 306.000000 312.000000"
 preserveAspectRatio="xMidYMid meet">
<metadata>
Created by potrace 1.16, written by Peter Selinger 2001-2019
</metadata>
<g transform="translate(0.000000,312.000000) scale(0.100000,-0.100000)"
fill="#000000" stroke="none">
<path d="M2340 3057 c-115 -106 -295 -235 -485 -347 -49 -29 -238 -129 -420
-223 -419 -216 -550 -289 -705 -392 -301 -200 -494 -406 -616 -660 -83 -171
-106 -264 -106 -415 0 -106 4 -138 26 -213 49 -165 124 -286 256 -417 181
-181 425 -304 713 -362 144 -29 421 -32 562 -6 509 95 951 394 1304 883 117
161 185 277 170 286 -8 4 -84 57 -169 117 l-155 109 -56 -86 c-217 -335 -501
-545 -811 -601 -99 -18 -262 -14 -351 9 -172 45 -307 143 -369 269 -30 60 -33
75 -33 157 0 69 5 99 20 130 12 26 279 301 748 772 l729 732 -82 143 c-46 79
-88 150 -94 159 -10 14 -20 8 -76 -44z"/>
</g>
</svg>
