<?xml version="1.0" standalone="no"?>
<!DOCTYPE svg PUBLIC "-//W3C//DTD SVG 20010904//EN"
 "http://www.w3.org/TR/2001/REC-SVG-20010904/DTD/svg10.dtd">
<svg version="1.0" xmlns="http://www.w3.org/2000/svg"
 width="877.000000pt" height="976.000000pt" viewBox="0 0 877.000000 976.000000"
 preserveAspectRatio="xMidYMid meet">
<metadata>
Created by potrace 1.16, written by Peter Selinger 2001-2019
</metadata>
<g transform="translate(0.000000,976.000000) scale(0.100000,-0.100000)"
fill="#000000" stroke="none">
<path d="M457 9738 c-3 -13 -105 -549 -227 -1193 -122 -643 -224 -1180 -227
-1192 l-5 -23 275 0 275 0 5 23 c3 12 18 85 32 162 80 427 179 828 234 950 35
76 71 105 172 139 151 51 253 58 891 63 l588 5 -16 -53 c-47 -157 -144 -404
-243 -617 -152 -329 -371 -708 -768 -1332 -456 -718 -629 -1014 -819 -1405
-302 -623 -444 -1147 -461 -1705 -19 -628 153 -1212 522 -1765 135 -204 247
-338 439 -531 586 -587 1354 -985 2246 -1164 1090 -218 2256 -73 3193 396 265
133 540 309 767 489 162 129 443 408 564 560 405 508 643 1084 697 1685 14
163 7 474 -16 645 -61 462 -196 889 -439 1390 -190 391 -363 687 -819 1405
-397 624 -616 1003 -768 1332 -99 213 -196 460 -243 617 l-16 53 588 -5 c638
-5 740 -12 891 -63 101 -34 137 -63 172 -139 55 -122 154 -523 234 -950 14
-77 29 -150 32 -162 l5 -23 275 0 275 0 -5 23 c-3 12 -105 549 -227 1192 -122
644 -224 1180 -227 1193 l-5 22 -1278 -2 c-1274 -3 -1279 -3 -1306 -24 -58
-43 -69 -68 -73 -172 -10 -275 52 -809 143 -1243 103 -488 212 -861 550 -1887
261 -789 357 -1108 451 -1497 158 -653 220 -1250 185 -1765 -56 -803 -304
-1425 -753 -1887 -153 -157 -242 -231 -415 -347 -848 -566 -1996 -566 -2844 0
-173 116 -262 190 -415 347 -449 462 -697 1084 -753 1887 -35 515 27 1112 185
1765 94 389 190 708 451 1497 281 853 372 1151 469 1538 143 571 225 1135 225
1559 0 132 -16 174 -80 210 l-38 21 -1270 0 -1270 0 -5 -22z"/>
</g>
</svg>
