<?xml version="1.0" standalone="no"?>
<!DOCTYPE svg PUBLIC "-//W3C//DTD SVG 20010904//EN"
 "http://www.w3.org/TR/2001/REC-SVG-20010904/DTD/svg10.dtd">
<svg version="1.0" xmlns="http://www.w3.org/2000/svg"
 width="1383.000000pt" height="1446.000000pt" viewBox="0 0 1383.000000 1446.000000"
 preserveAspectRatio="xMidYMid meet">
<metadata>
Created by potrace 1.16, written by Peter Selinger 2001-2019
</metadata>
<g transform="translate(0.000000,1446.000000) scale(0.100000,-0.100000)"
fill="#000000" stroke="none">
<path d="M6520 14449 c-2123 -132 -4042 -1248 -5269 -3062 -226 -335 -518
-878 -670 -1247 -776 -1878 -776 -3942 0 -5820 94 -229 331 -697 464 -919 370
-617 806 -1152 1320 -1620 1972 -1795 4740 -2276 7158 -1245 1347 575 2474
1567 3252 2865 133 222 370 690 464 919 776 1878 776 3942 0 5820 -152 369
-444 912 -670 1247 -1169 1729 -2963 2824 -4979 3037 -325 35 -756 45 -1070
25z m730 -559 c1041 -64 2022 -376 2900 -923 1194 -744 2102 -1847 2635 -3202
351 -891 517 -1927 465 -2885 -56 -1009 -295 -1918 -736 -2791 -410 -811 -976
-1522 -1674 -2101 -1107 -918 -2512 -1428 -3930 -1428 -1013 0 -2042 265
-2935 755 -1341 736 -2362 1909 -2940 3380 -351 891 -517 1927 -465 2885 75
1369 512 2624 1284 3690 688 950 1603 1685 2660 2137 861 368 1828 538 2736
483z"/>
<path d="M2540 10122 l0 -259 373 -6 c385 -7 544 -16 707 -43 150 -25 215 -60
274 -147 71 -106 66 106 66 -2592 0 -2698 5 -2486 -66 -2592 -59 -87 -124
-122 -274 -147 -163 -27 -322 -36 -707 -43 l-373 -6 0 -260 0 -260 128 7 c817
41 3057 41 3875 0 l127 -7 0 260 0 260 -372 6 c-386 7 -545 16 -708 43 -150
25 -215 60 -274 147 -69 103 -66 53 -66 1148 l0 988 1353 4 c1471 3 1421 2
1797 63 805 130 1511 451 1936 880 475 479 544 1062 190 1598 -138 209 -386
440 -653 608 -224 142 -510 274 -793 368 -339 113 -619 170 -1090 222 -76 8
-841 12 -2777 15 l-2673 4 0 -259z m5236 -285 c437 -48 754 -146 1013 -314
181 -117 292 -270 365 -500 110 -344 99 -852 -24 -1170 -105 -272 -284 -437
-626 -577 -259 -106 -545 -162 -949 -186 -95 -5 -639 -10 -1237 -10 l-1068 0
0 1239 c0 790 4 1258 10 1292 30 159 111 215 345 238 50 5 524 8 1055 7 813
-3 989 -6 1116 -19z"/>
</g>
</svg>
