<?xml version="1.0" standalone="no"?>
<!DOCTYPE svg PUBLIC "-//W3C//DTD SVG 20010904//EN"
 "http://www.w3.org/TR/2001/REC-SVG-20010904/DTD/svg10.dtd">
<svg version="1.0" xmlns="http://www.w3.org/2000/svg"
 width="347.000000pt" height="292.000000pt" viewBox="0 0 347.000000 292.000000"
 preserveAspectRatio="xMidYMid meet">
<metadata>
Created by potrace 1.16, written by Peter Selinger 2001-2019
</metadata>
<g transform="translate(0.000000,292.000000) scale(0.100000,-0.100000)"
fill="#000000" stroke="none">
<path d="M1150 2432 l0 -489 121 -7 c247 -14 459 -64 634 -152 191 -95 305
-209 362 -364 25 -67 28 -88 28 -195 -1 -101 -4 -129 -24 -177 -84 -214 -335
-366 -727 -442 -302 -58 -522 -76 -1014 -82 -223 -2 -433 -7 -467 -10 l-63 -6
0 -253 0 -253 153 4 c83 2 345 6 582 8 452 5 628 14 965 47 931 92 1475 339
1675 760 102 217 112 511 25 750 -121 332 -462 588 -972 730 l-118 32 0 294 0
293 -580 0 -580 0 0 -488z"/>
</g>
</svg>
