<?xml version="1.0" standalone="no"?>
<!DOCTYPE svg PUBLIC "-//W3C//DTD SVG 20010904//EN"
 "http://www.w3.org/TR/2001/REC-SVG-20010904/DTD/svg10.dtd">
<svg version="1.0" xmlns="http://www.w3.org/2000/svg"
 width="583.000000pt" height="846.000000pt" viewBox="0 0 583.000000 846.000000"
 preserveAspectRatio="xMidYMid meet">
<metadata>
Created by potrace 1.16, written by Peter Selinger 2001-2019
</metadata>
<g transform="translate(0.000000,846.000000) scale(0.100000,-0.100000)"
fill="#000000" stroke="none">
<path d="M4681 7840 c-269 -486 -347 -619 -360 -615 -36 11 -254 45 -386 59
-452 51 -906 47 -1242 -9 -684 -116 -1282 -415 -1765 -883 -434 -421 -730
-950 -862 -1542 -47 -212 -60 -345 -60 -615 -1 -260 6 -334 49 -550 145 -723
570 -1375 1190 -1825 47 -34 85 -63 85 -65 0 -1 -203 -368 -451 -815 -247
-447 -446 -816 -442 -820 14 -14 284 -162 288 -158 2 1 202 363 446 803 243
440 445 804 449 808 5 5 18 2 31 -7 41 -26 280 -132 397 -175 233 -86 503
-151 778 -188 183 -24 666 -24 849 1 840 113 1463 478 1865 1091 104 159 266
521 277 621 6 51 -16 98 -60 124 -25 16 -50 20 -122 20 -140 0 -149 -8 -215
-195 -47 -133 -139 -316 -219 -435 -360 -538 -944 -838 -1686 -867 -501 -19
-981 125 -1380 415 -107 77 -195 152 -195 165 0 23 2555 4617 2568 4617 46 0
292 -99 391 -157 l44 -26 -84 -24 c-46 -13 -113 -40 -148 -60 -342 -191 -406
-714 -121 -994 298 -293 835 -212 1010 152 57 119 73 206 67 354 -12 278 -112
503 -311 700 -145 145 -363 276 -598 360 -43 15 -78 29 -78 30 0 1 144 262
321 580 176 318 317 581 312 585 -9 9 -279 160 -285 160 -2 0 -158 -279 -347
-620z m-850 -924 c85 -8 192 -20 237 -26 l82 -12 -19 -32 c-10 -17 -562 -1012
-1226 -2211 -664 -1199 -1209 -2182 -1211 -2184 -6 -6 -24 18 -104 138 -331
493 -481 1178 -430 1956 39 577 164 1026 392 1405 88 147 165 247 293 379 183
189 340 303 570 416 202 99 408 159 631 185 106 12 592 3 785 -14z"/>
</g>
</svg>
