<?xml version="1.0" standalone="no"?>
<!DOCTYPE svg PUBLIC "-//W3C//DTD SVG 20010904//EN"
 "http://www.w3.org/TR/2001/REC-SVG-20010904/DTD/svg10.dtd">
<svg version="1.0" xmlns="http://www.w3.org/2000/svg"
 width="423.000000pt" height="589.000000pt" viewBox="0 0 423.000000 589.000000"
 preserveAspectRatio="xMidYMid meet">
<metadata>
Created by potrace 1.16, written by Peter Selinger 2001-2019
</metadata>
<g transform="translate(0.000000,589.000000) scale(0.100000,-0.100000)"
fill="#000000" stroke="none">
<path d="M2378 5782 c-253 -286 -610 -529 -998 -681 -382 -150 -759 -225
-1227 -247 l-153 -7 0 -310 0 -310 153 7 c535 25 963 122 1400 320 l57 26 0
-1848 0 -1847 -24 -50 c-26 -57 -81 -109 -141 -136 -104 -46 -403 -69 -907
-69 l-348 0 0 -315 0 -315 2015 0 2015 0 0 315 0 315 -338 0 c-499 0 -767 21
-880 70 -63 27 -133 101 -150 158 -9 30 -12 623 -12 2477 l0 2437 -21 38 c-37
65 -77 80 -221 80 l-124 0 -96 -108z m1392 -5761 c96 -4 -606 -7 -1560 -7
-954 0 -1699 2 -1655 3 490 21 2727 23 3215 4z"/>
</g>
</svg>
