<?xml version="1.0" standalone="no"?>
<!DOCTYPE svg PUBLIC "-//W3C//DTD SVG 20010904//EN"
 "http://www.w3.org/TR/2001/REC-SVG-20010904/DTD/svg10.dtd">
<svg version="1.0" xmlns="http://www.w3.org/2000/svg"
 width="701.000000pt" height="1180.000000pt" viewBox="0 0 701.000000 1180.000000"
 preserveAspectRatio="xMidYMid meet">
<metadata>
Created by potrace 1.16, written by Peter Selinger 2001-2019
</metadata>
<g transform="translate(0.000000,1180.000000) scale(0.100000,-0.100000)"
fill="#000000" stroke="none">
<path d="M3020 11789 c-151 -13 -403 -56 -564 -96 -865 -217 -1612 -761 -2045
-1491 -207 -349 -333 -715 -392 -1142 -18 -128 -18 -556 0 -675 51 -343 127
-585 270 -861 134 -257 282 -457 510 -685 391 -390 874 -682 1496 -904 423
-151 1007 -267 1463 -291 l122 -7 0 -2548 0 -2548 -457 -3 c-448 -3 -459 -3
-498 -25 -48 -25 -106 -84 -131 -133 -26 -48 -26 -172 0 -220 25 -49 83 -108
131 -133 l40 -22 1920 0 c1889 0 1921 0 1960 20 50 25 105 80 130 130 27 55
27 175 0 230 -25 50 -80 105 -130 130 -38 19 -66 20 -497 23 l-458 3 0 5359 0
5359 458 3 c431 3 459 4 497 23 50 25 105 80 130 130 27 55 27 175 0 230 -25
50 -80 105 -130 130 -39 20 -72 20 -1880 21 -1012 1 -1887 -3 -1945 -7z m2330
-5889 l0 -5360 -465 0 -465 0 0 5360 0 5360 465 0 465 0 0 -5360z"/>
</g>
</svg>
