<?xml version="1.0" standalone="no"?>
<!DOCTYPE svg PUBLIC "-//W3C//DTD SVG 20010904//EN"
 "http://www.w3.org/TR/2001/REC-SVG-20010904/DTD/svg10.dtd">
<svg version="1.0" xmlns="http://www.w3.org/2000/svg"
 width="538.000000pt" height="137.000000pt" viewBox="0 0 538.000000 137.000000"
 preserveAspectRatio="xMidYMid meet">
<metadata>
Created by potrace 1.16, written by Peter Selinger 2001-2019
</metadata>
<g transform="translate(0.000000,137.000000) scale(0.100000,-0.100000)"
fill="#000000" stroke="none">
<path d="M1320 1359 c-161 -21 -348 -78 -464 -143 -93 -52 -211 -143 -287
-222 -37 -38 -180 -203 -318 -367 l-251 -298 193 -163 192 -163 95 91 c181
175 346 265 590 323 145 34 407 42 605 19 198 -23 485 -84 810 -171 822 -221
1121 -276 1440 -262 359 15 650 139 876 373 37 38 180 203 318 367 l251 298
-193 163 -192 163 -95 -91 c-181 -175 -346 -265 -590 -323 -145 -34 -407 -42
-605 -19 -198 23 -485 84 -810 171 -630 170 -913 232 -1160 255 -127 12 -311
11 -405 -1z"/>
</g>
</svg>
