<?xml version="1.0" standalone="no"?>
<!DOCTYPE svg PUBLIC "-//W3C//DTD SVG 20010904//EN"
 "http://www.w3.org/TR/2001/REC-SVG-20010904/DTD/svg10.dtd">
<svg version="1.0" xmlns="http://www.w3.org/2000/svg"
 width="572.000000pt" height="903.000000pt" viewBox="0 0 572.000000 903.000000"
 preserveAspectRatio="xMidYMid meet">
<metadata>
Created by potrace 1.16, written by Peter Selinger 2001-2019
</metadata>
<g transform="translate(0.000000,903.000000) scale(0.100000,-0.100000)"
fill="#000000" stroke="none">
<path d="M435 9008 c-3 -13 -100 -626 -215 -1363 -116 -737 -213 -1352 -216
-1367 l-6 -28 186 0 185 0 6 33 c3 17 21 127 40 242 80 476 168 779 264 913
27 37 35 41 98 51 230 37 1082 53 2654 49 l1227 -3 -585 -790 c-783 -1057
-884 -1200 -1118 -1575 -220 -352 -520 -925 -678 -1295 -384 -900 -604 -1771
-677 -2675 -5 -69 -13 -240 -17 -380 -7 -297 1 -356 69 -493 181 -360 713
-439 1007 -148 78 78 132 174 161 287 18 71 20 112 20 508 1 1521 93 2487 316
3286 144 517 382 1038 641 1401 33 46 471 640 973 1319 503 679 920 1246 927
1260 9 18 13 74 13 193 l0 167 -1617 0 c-2139 0 -2612 15 -2933 91 -216 51
-351 163 -352 294 l-1 45 -183 0 c-182 0 -184 0 -189 -22z"/>
</g>
</svg>
