<?xml version="1.0" standalone="no"?>
<!DOCTYPE svg PUBLIC "-//W3C//DTD SVG 20010904//EN"
 "http://www.w3.org/TR/2001/REC-SVG-20010904/DTD/svg10.dtd">
<svg version="1.0" xmlns="http://www.w3.org/2000/svg"
 width="668.000000pt" height="668.000000pt" viewBox="0 0 668.000000 668.000000"
 preserveAspectRatio="xMidYMid meet">
<metadata>
Created by potrace 1.16, written by Peter Selinger 2001-2019
</metadata>
<g transform="translate(0.000000,668.000000) scale(0.100000,-0.100000)"
fill="#000000" stroke="none">
<path d="M210 6671 c-83 -26 -141 -74 -181 -151 -33 -64 -33 -176 0 -240 16
-32 446 -469 1469 -1492 l1447 -1448 -1447 -1447 c-1023 -1024 -1453 -1461
-1469 -1493 -33 -64 -33 -176 0 -240 32 -62 67 -97 125 -127 67 -34 148 -41
217 -18 52 16 114 77 1509 1471 l1455 1454 1440 -1441 c1098 -1098 1452 -1446
1489 -1466 112 -57 232 -38 322 52 79 79 101 172 68 286 -15 53 -46 85 -1472
1512 l-1457 1457 1457 1458 c1426 1426 1457 1458 1472 1511 33 114 11 207 -68
286 -90 90 -210 109 -322 52 -37 -20 -391 -368 -1489 -1466 l-1440 -1441
-1455 1454 c-1340 1338 -1459 1455 -1504 1470 -52 17 -123 20 -166 7z"/>
</g>
</svg>
