<?xml version="1.0" standalone="no"?>
<!DOCTYPE svg PUBLIC "-//W3C//DTD SVG 20010904//EN"
 "http://www.w3.org/TR/2001/REC-SVG-20010904/DTD/svg10.dtd">
<svg version="1.0" xmlns="http://www.w3.org/2000/svg"
 width="608.000000pt" height="872.000000pt" viewBox="0 0 608.000000 872.000000"
 preserveAspectRatio="xMidYMid meet">
<metadata>
Created by potrace 1.16, written by Peter Selinger 2001-2019
</metadata>
<g transform="translate(0.000000,872.000000) scale(0.100000,-0.100000)"
fill="#000000" stroke="none">
<path d="M3070 8121 l0 -599 -27 -6 c-16 -3 -57 -8 -93 -11 -105 -11 -325 -53
-465 -90 -1376 -360 -2357 -1491 -2476 -2855 -15 -176 -6 -474 20 -650 80
-528 299 -1029 641 -1460 110 -140 377 -404 520 -514 360 -279 752 -479 1180
-602 171 -50 394 -96 540 -114 52 -6 110 -13 128 -16 l32 -5 0 -599 0 -600
310 0 310 0 0 599 0 600 43 5 c446 54 747 137 1072 295 526 257 914 655 1150
1180 55 124 115 295 115 330 0 40 -33 92 -71 113 -29 15 -58 18 -202 18 -236
0 -238 -1 -296 -170 -92 -265 -236 -503 -425 -698 -323 -334 -727 -507 -1238
-529 l-148 -6 0 2621 0 2622 73 0 c112 0 470 -19 587 -30 58 -6 164 -20 237
-32 l131 -20 -72 -72 c-125 -125 -194 -289 -203 -482 -18 -362 174 -638 517
-746 64 -19 96 -23 215 -23 119 0 151 4 215 23 347 109 535 383 517 757 -28
594 -470 956 -1341 1099 -183 31 -403 53 -591 61 -77 3 -173 8 -212 11 l-73 6
0 594 0 594 -310 0 -310 0 0 -599z m0 -3730 l0 -2560 -52 15 c-200 60 -453
176 -618 284 -513 336 -835 820 -976 1468 -119 548 -90 1334 71 1891 195 678
657 1182 1273 1391 95 32 239 68 280 69 l22 1 0 -2559z"/>
</g>
</svg>
