<?xml version="1.0" standalone="no"?>
<!DOCTYPE svg PUBLIC "-//W3C//DTD SVG 20010904//EN"
 "http://www.w3.org/TR/2001/REC-SVG-20010904/DTD/svg10.dtd">
<svg version="1.0" xmlns="http://www.w3.org/2000/svg"
 width="480.000000pt" height="580.000000pt" viewBox="0 0 480.000000 580.000000"
 preserveAspectRatio="xMidYMid meet">
<metadata>
Created by potrace 1.16, written by Peter Selinger 2001-2019
</metadata>
<g transform="translate(0.000000,580.000000) scale(0.100000,-0.100000)"
fill="#000000" stroke="none">
<path d="M2103 5790 c-923 -117 -1626 -847 -1724 -1789 -32 -313 26 -527 187
-687 130 -129 302 -198 499 -198 322 0 572 181 667 484 20 64 23 95 22 215 0
124 -3 149 -27 220 -71 214 -219 361 -432 432 -64 21 -104 27 -206 31 -69 2
-142 -1 -162 -6 -27 -8 -37 -7 -37 1 0 20 110 205 169 284 246 331 590 545
994 619 127 24 394 24 495 1 260 -60 454 -211 538 -418 80 -196 92 -544 29
-854 -30 -150 -63 -252 -125 -381 -62 -131 -116 -210 -209 -308 -119 -123
-246 -199 -384 -231 -34 -8 -192 -26 -352 -41 -185 -17 -300 -31 -318 -41 -48
-24 -67 -68 -67 -153 0 -57 5 -83 20 -107 37 -62 46 -63 392 -63 338 0 446 -9
578 -46 181 -52 328 -140 460 -274 161 -163 238 -353 269 -659 39 -382 -25
-764 -164 -977 -109 -166 -308 -310 -521 -377 -150 -47 -281 -60 -534 -53
-418 12 -732 56 -1011 142 l-116 36 86 44 c156 79 258 181 327 329 56 120 68
183 68 345 0 162 -12 225 -68 345 -88 188 -254 324 -472 387 -114 33 -314 33
-428 0 -218 -63 -384 -199 -472 -387 -58 -125 -69 -182 -68 -360 1 -139 4
-173 26 -255 86 -321 297 -559 653 -735 298 -148 630 -234 1090 -281 244 -26
793 -26 995 -1 997 124 1762 612 1968 1257 59 184 67 386 23 554 -117 443
-569 825 -1241 1047 -96 31 -235 70 -307 86 -73 15 -133 31 -133 34 0 3 26 13
58 23 31 10 109 41 172 68 362 155 644 363 836 617 80 105 185 315 219 436
124 436 41 765 -270 1064 -303 291 -784 496 -1335 566 -146 19 -553 28 -657
15z"/>
</g>
</svg>
