<?xml version="1.0" standalone="no"?>
<!DOCTYPE svg PUBLIC "-//W3C//DTD SVG 20010904//EN"
 "http://www.w3.org/TR/2001/REC-SVG-20010904/DTD/svg10.dtd">
<svg version="1.0" xmlns="http://www.w3.org/2000/svg"
 width="315.000000pt" height="1408.000000pt" viewBox="0 0 315.000000 1408.000000"
 preserveAspectRatio="xMidYMid meet">
<metadata>
Created by potrace 1.16, written by Peter Selinger 2001-2019
</metadata>
<g transform="translate(0.000000,1408.000000) scale(0.100000,-0.100000)"
fill="#000000" stroke="none">
<path d="M2605 14069 c-1130 -70 -1990 -430 -2364 -988 -103 -156 -168 -308
-214 -506 -21 -89 -21 -102 -25 -1900 -2 -1271 0 -1839 8 -1907 42 -374 202
-690 492 -974 265 -260 607 -453 1045 -591 68 -21 123 -40 123 -43 0 -3 -55
-22 -123 -43 -325 -102 -610 -243 -849 -419 -111 -81 -294 -262 -378 -373
-172 -227 -278 -491 -310 -773 -8 -68 -10 -634 -7 -1912 3 -1641 5 -1823 20
-1895 73 -353 224 -638 471 -888 502 -508 1362 -821 2346 -854 166 -5 190 -4
223 12 65 31 77 69 77 242 0 166 -9 194 -72 233 -30 18 -51 20 -215 20 -351 0
-598 54 -853 186 -400 208 -688 565 -794 984 -47 187 -47 204 -44 2095 l4
1780 22 97 c12 54 34 131 48 170 219 609 875 1038 1646 1077 171 8 193 15 228
74 18 28 20 51 20 187 0 136 -2 159 -20 187 -35 59 -57 66 -228 74 -771 39
-1427 468 -1646 1077 -14 39 -36 116 -48 170 l-22 97 -4 1785 c-2 1234 0 1810
8 1867 52 395 297 722 701 937 278 148 585 216 977 216 212 0 240 7 272 71 17
33 20 59 20 186 0 166 -9 194 -72 233 -29 18 -49 20 -183 19 -82 -1 -208 -6
-280 -10z"/>
</g>
</svg>
