<?xml version="1.0" standalone="no"?>
<!DOCTYPE svg PUBLIC "-//W3C//DTD SVG 20010904//EN"
 "http://www.w3.org/TR/2001/REC-SVG-20010904/DTD/svg10.dtd">
<svg version="1.0" xmlns="http://www.w3.org/2000/svg"
 width="443.000000pt" height="1210.000000pt" viewBox="0 0 443.000000 1210.000000"
 preserveAspectRatio="xMidYMid meet">
<metadata>
Created by potrace 1.16, written by Peter Selinger 2001-2019
</metadata>
<g transform="translate(0.000000,1210.000000) scale(0.100000,-0.100000)"
fill="#000000" stroke="none">
<path d="M2075 12081 c-171 -49 -286 -169 -332 -344 -13 -51 -15 -94 -10 -247
11 -302 50 -581 162 -1160 95 -485 135 -746 154 -990 4 -58 7 -106 7 -107 -1
0 -46 5 -101 14 -129 18 -340 69 -575 138 -242 71 -487 130 -622 150 -133 19
-347 22 -408 5 -124 -34 -243 -128 -294 -232 -125 -258 -33 -549 211 -666 77
-37 79 -37 225 -40 230 -6 451 35 888 163 235 69 446 120 575 138 55 9 100 14
101 14 0 -1 -3 -49 -7 -107 -19 -244 -59 -505 -154 -990 -112 -579 -151 -858
-162 -1160 -5 -154 -3 -196 11 -249 46 -177 167 -300 343 -345 212 -55 445 41
542 223 56 105 65 162 58 371 -11 302 -50 581 -162 1160 -95 485 -135 746
-154 990 -4 58 -7 106 -7 107 1 0 46 -5 101 -14 129 -18 340 -69 575 -138 437
-128 658 -169 888 -163 146 3 148 3 225 40 244 117 336 408 211 666 -51 104
-170 198 -294 232 -61 17 -275 14 -408 -5 -135 -20 -380 -79 -622 -150 -235
-69 -446 -120 -575 -138 -55 -9 -100 -14 -101 -14 0 1 3 49 7 107 19 244 59
505 154 990 112 579 151 858 162 1160 6 204 -2 261 -53 362 -96 190 -343 291
-559 229z"/>
<path d="M2075 6021 c-169 -48 -286 -168 -330 -338 -18 -67 -19 -213 -5 -404
21 -271 53 -477 155 -1004 101 -521 136 -750 153 -987 9 -126 24 -117 -142
-88 -138 23 -251 51 -526 130 -419 120 -600 157 -815 167 -153 7 -216 -4 -314
-53 -333 -166 -333 -682 0 -848 98 -49 161 -60 314 -53 215 10 396 47 815 167
275 79 388 107 526 130 166 29 151 38 142 -87 -17 -238 -52 -467 -153 -988
-124 -643 -165 -950 -165 -1245 0 -174 45 -294 145 -389 224 -212 613 -156
753 108 63 117 74 231 52 522 -21 271 -53 477 -155 1004 -101 521 -136 750
-153 988 -9 125 -24 116 142 87 138 -23 251 -51 526 -130 419 -120 600 -157
815 -167 153 -7 216 4 314 53 333 166 333 682 0 848 -98 49 -161 60 -314 53
-215 -10 -396 -47 -815 -167 -275 -79 -388 -107 -526 -130 -166 -29 -151 -38
-142 88 17 237 52 466 153 987 102 527 134 733 155 1004 27 357 2 486 -121
616 -116 123 -315 175 -484 126z"/>
</g>
</svg>
