<?xml version="1.0" standalone="no"?>
<!DOCTYPE svg PUBLIC "-//W3C//DTD SVG 20010904//EN"
 "http://www.w3.org/TR/2001/REC-SVG-20010904/DTD/svg10.dtd">
<svg version="1.0" xmlns="http://www.w3.org/2000/svg"
 width="841.000000pt" height="937.000000pt" viewBox="0 0 841.000000 937.000000"
 preserveAspectRatio="xMidYMid meet">
<metadata>
Created by potrace 1.16, written by Peter Selinger 2001-2019
</metadata>
<g transform="translate(0.000000,937.000000) scale(0.100000,-0.100000)"
fill="#000000" stroke="none">
<path d="M3925 9364 c-297 -22 -529 -53 -765 -103 -663 -141 -1280 -430 -1790
-837 -169 -136 -415 -381 -545 -544 -355 -444 -568 -924 -652 -1467 -24 -157
-24 -590 1 -768 68 -492 232 -967 517 -1498 163 -304 309 -542 714 -1162 281
-430 386 -598 519 -825 120 -205 286 -532 361 -710 59 -141 168 -457 181 -523
l7 -39 -669 5 c-421 3 -702 9 -759 16 -133 18 -253 48 -310 79 -44 24 -55 37
-87 102 -61 122 -166 524 -248 945 -12 61 -24 118 -26 128 -5 15 -23 17 -190
17 l-184 0 5 -23 c3 -12 100 -492 215 -1067 115 -575 212 -1055 215 -1067 l5
-23 1176 0 c1301 0 1218 -4 1267 64 29 40 34 152 18 396 -48 720 -199 1321
-673 2670 -273 776 -388 1137 -481 1505 -206 814 -248 1500 -131 2135 198
1072 846 1835 1823 2144 255 81 461 111 761 111 236 0 333 -10 531 -51 545
-113 1065 -418 1419 -830 611 -710 826 -1725 624 -2939 -91 -543 -219 -986
-602 -2075 -286 -814 -420 -1245 -518 -1660 -102 -437 -164 -904 -164 -1246 0
-99 2 -115 23 -145 12 -18 38 -44 56 -56 l34 -23 1178 0 1179 0 5 23 c3 12
100 492 215 1067 115 575 212 1055 215 1067 l5 23 -184 0 c-167 0 -185 -2
-190 -17 -2 -10 -14 -67 -26 -128 -82 -421 -187 -823 -248 -945 -32 -65 -43
-78 -87 -102 -57 -31 -177 -61 -310 -79 -57 -7 -338 -13 -759 -16 l-669 -5 7
39 c13 66 122 382 181 523 75 178 241 505 361 710 133 227 238 395 519 825
405 620 551 858 714 1162 285 531 449 1006 517 1498 25 178 25 611 1 768 -103
667 -402 1242 -907 1747 -409 410 -920 728 -1506 938 -338 121 -703 203 -1114
248 -127 14 -662 27 -775 18z"/>
</g>
</svg>
