<?xml version="1.0" standalone="no"?>
<!DOCTYPE svg PUBLIC "-//W3C//DTD SVG 20010904//EN"
 "http://www.w3.org/TR/2001/REC-SVG-20010904/DTD/svg10.dtd">
<svg version="1.0" xmlns="http://www.w3.org/2000/svg"
 width="866.000000pt" height="945.000000pt" viewBox="0 0 866.000000 945.000000"
 preserveAspectRatio="xMidYMid meet">
<metadata>
Created by potrace 1.16, written by Peter Selinger 2001-2019
</metadata>
<g transform="translate(0.000000,945.000000) scale(0.100000,-0.100000)"
fill="#000000" stroke="none">
<path d="M440 9192 l0 -259 373 -6 c717 -12 882 -44 981 -190 72 -107 66 126
66 -2779 l0 -2618 -867 -2 -868 -3 -33 -23 c-62 -45 -86 -88 -90 -163 -4 -60
-1 -74 22 -113 17 -29 44 -56 74 -73 l47 -28 857 -3 858 -2 0 -1028 c0 -1141
3 -1086 -66 -1189 -99 -146 -264 -178 -981 -190 l-373 -6 0 -260 0 -260 128 7
c825 41 3089 41 3915 0 l127 -7 0 260 0 260 -373 6 c-717 12 -882 44 -981 190
-69 103 -66 48 -66 1189 l0 1028 1321 0 c973 0 1332 3 1367 12 94 23 163 132
147 229 -10 59 -56 123 -107 148 l-44 21 -1342 0 -1342 0 0 465 0 464 1293 4
c1261 3 1296 4 1442 25 378 54 708 143 1004 269 1087 464 1755 1374 1718 2338
-47 1194 -1087 2214 -2527 2479 -349 64 -150 60 -3047 63 l-2633 3 0 -258z
m4865 -272 c763 -57 1316 -331 1587 -788 115 -192 183 -431 220 -772 21 -187
17 -918 -5 -1100 -67 -549 -228 -861 -577 -1120 -309 -228 -713 -359 -1234
-400 -74 -6 -556 -10 -1137 -10 l-1009 0 0 1949 c0 1268 4 1967 10 2002 30
159 112 215 345 238 131 12 1632 13 1800 1z"/>
</g>
</svg>
