<?xml version="1.0" standalone="no"?>
<!DOCTYPE svg PUBLIC "-//W3C//DTD SVG 20010904//EN"
 "http://www.w3.org/TR/2001/REC-SVG-20010904/DTD/svg10.dtd">
<svg version="1.0" xmlns="http://www.w3.org/2000/svg"
 width="861.000000pt" height="860.000000pt" viewBox="0 0 861.000000 860.000000"
 preserveAspectRatio="xMidYMid meet">
<metadata>
Created by potrace 1.16, written by Peter Selinger 2001-2019
</metadata>
<g transform="translate(0.000000,860.000000) scale(0.100000,-0.100000)"
fill="#000000" stroke="none">
<path d="M197 8586 c-94 -26 -170 -112 -188 -211 -10 -51 -9 -70 5 -120 l17
-60 690 -690 689 -691 -46 -54 c-411 -482 -709 -1114 -828 -1763 -52 -279 -60
-372 -60 -697 0 -325 8 -418 60 -697 119 -649 417 -1281 828 -1763 l46 -54
-689 -691 -690 -690 -17 -60 c-31 -110 7 -218 104 -291 48 -37 135 -59 191
-49 98 18 101 20 803 723 l677 676 25 -19 c224 -182 387 -296 576 -404 385
-221 778 -365 1213 -445 279 -52 372 -60 697 -60 325 0 418 8 697 60 649 119
1281 417 1763 828 l54 46 691 -689 690 -690 60 -17 c110 -31 218 7 291 104 37
48 59 135 49 191 -18 98 -20 101 -723 803 l-676 677 19 25 c182 224 296 387
404 576 262 457 412 911 488 1478 24 180 24 684 0 864 -76 567 -226 1021 -488
1478 -108 189 -222 352 -404 576 l-19 25 676 677 c703 702 705 705 723 803 10
56 -12 143 -49 191 -73 97 -181 135 -291 104 l-60 -17 -690 -690 -691 -689
-54 46 c-149 128 -361 275 -552 384 -455 261 -910 411 -1476 487 -180 24 -684
24 -864 0 -567 -76 -1021 -226 -1478 -488 -189 -108 -352 -222 -576 -404 l-25
-19 -677 676 c-722 722 -712 713 -820 723 -26 3 -69 -1 -95 -9z m4502 -1021
c392 -51 723 -151 1071 -324 329 -164 594 -355 855 -616 261 -261 452 -526
616 -855 179 -360 280 -702 331 -1120 16 -136 16 -564 0 -700 -51 -418 -152
-760 -331 -1120 -164 -329 -355 -594 -616 -855 -261 -261 -526 -452 -855 -616
-360 -179 -702 -280 -1120 -331 -136 -16 -564 -16 -700 0 -667 81 -1241 323
-1750 739 -122 100 -333 311 -433 433 -368 450 -609 972 -706 1530 -37 210
-46 322 -46 570 0 248 9 360 46 570 141 810 591 1550 1244 2046 498 379 1092
607 1730 664 136 12 525 4 664 -15z"/>
</g>
</svg>
