<?xml version="1.0" standalone="no"?>
<!DOCTYPE svg PUBLIC "-//W3C//DTD SVG 20010904//EN"
 "http://www.w3.org/TR/2001/REC-SVG-20010904/DTD/svg10.dtd">
<svg version="1.0" xmlns="http://www.w3.org/2000/svg"
 width="436.000000pt" height="175.000000pt" viewBox="0 0 436.000000 175.000000"
 preserveAspectRatio="xMidYMid meet">
<metadata>
Created by potrace 1.16, written by Peter Selinger 2001-2019
</metadata>
<g transform="translate(0.000000,175.000000) scale(0.100000,-0.100000)"
fill="#000000" stroke="none">
<path d="M1907 1740 c-322 -31 -630 -114 -894 -240 -249 -119 -426 -244 -598
-421 -248 -256 -392 -559 -411 -864 -8 -118 6 -163 58 -195 30 -18 50 -20 214
-20 172 0 183 1 215 23 39 26 53 63 68 185 19 156 83 273 226 418 241 243 579
394 1030 460 168 25 552 25 720 0 167 -24 280 -50 419 -97 254 -84 451 -202
611 -363 143 -145 207 -262 226 -418 15 -122 29 -159 68 -185 32 -22 43 -23
215 -23 164 0 184 2 214 20 52 32 66 77 58 195 -19 305 -163 608 -411 864
-326 336 -789 559 -1335 642 -153 23 -542 34 -693 19z"/>
</g>
</svg>
