<?xml version="1.0" standalone="no"?>
<!DOCTYPE svg PUBLIC "-//W3C//DTD SVG 20010904//EN"
 "http://www.w3.org/TR/2001/REC-SVG-20010904/DTD/svg10.dtd">
<svg version="1.0" xmlns="http://www.w3.org/2000/svg"
 width="463.000000pt" height="976.000000pt" viewBox="0 0 463.000000 976.000000"
 preserveAspectRatio="xMidYMid meet">
<metadata>
Created by potrace 1.16, written by Peter Selinger 2001-2019
</metadata>
<g transform="translate(0.000000,976.000000) scale(0.100000,-0.100000)"
fill="#000000" stroke="none">
<path d="M3215 9754 c-612 -60 -1151 -312 -1544 -719 -332 -345 -540 -784
-590 -1247 -7 -61 -11 -420 -11 -963 l0 -865 -520 0 -520 0 0 -260 0 -260 520
0 520 0 -2 -2317 -3 -2318 -24 -59 c-33 -84 -92 -139 -173 -164 -126 -39 -374
-61 -690 -62 l-178 0 0 -261 0 -261 92 6 c604 41 2533 41 3231 0 l107 -7 0
260 0 260 -347 6 c-470 9 -692 30 -804 78 -60 26 -122 92 -157 167 l-27 57 -3
2308 -2 2307 765 0 765 0 0 260 0 260 -786 0 -785 0 4 933 c3 799 6 946 20
1032 75 468 236 813 501 1081 216 217 430 323 692 341 93 6 238 -7 328 -30
l49 -13 -50 -32 c-84 -54 -168 -151 -213 -244 -96 -199 -94 -414 4 -614 187
-378 727 -461 1043 -161 60 57 82 87 119 161 60 123 77 210 71 356 -21 460
-371 832 -897 957 -87 20 -136 25 -285 28 -99 1 -198 1 -220 -1z"/>
</g>
</svg>
