<?xml version="1.0" standalone="no"?>
<!DOCTYPE svg PUBLIC "-//W3C//DTD SVG 20010904//EN"
 "http://www.w3.org/TR/2001/REC-SVG-20010904/DTD/svg10.dtd">
<svg version="1.0" xmlns="http://www.w3.org/2000/svg"
 width="590.000000pt" height="206.000000pt" viewBox="0 0 590.000000 206.000000"
 preserveAspectRatio="xMidYMid meet">
<metadata>
Created by potrace 1.16, written by Peter Selinger 2001-2019
</metadata>
<g transform="translate(0.000000,206.000000) scale(0.100000,-0.100000)"
fill="#000000" stroke="none">
<path d="M2605 2049 c-636 -44 -1234 -229 -1707 -526 -545 -342 -870 -820
-894 -1313 -5 -94 -3 -108 15 -137 40 -64 56 -68 256 -68 157 0 184 2 208 18
42 27 67 75 67 129 0 71 26 190 58 267 172 409 773 779 1500 921 297 59 469
74 837 74 368 0 540 -15 837 -74 727 -142 1328 -512 1500 -921 32 -77 58 -196
58 -267 0 -54 25 -102 67 -129 24 -16 51 -18 208 -18 200 0 216 4 256 68 37
58 14 282 -47 472 -245 752 -1176 1345 -2329 1484 -244 30 -632 39 -890 20z"/>
</g>
</svg>
