<?xml version="1.0" standalone="no"?>
<!DOCTYPE svg PUBLIC "-//W3C//DTD SVG 20010904//EN"
 "http://www.w3.org/TR/2001/REC-SVG-20010904/DTD/svg10.dtd">
<svg version="1.0" xmlns="http://www.w3.org/2000/svg"
 width="841.000000pt" height="937.000000pt" viewBox="0 0 841.000000 937.000000"
 preserveAspectRatio="xMidYMid meet">
<metadata>
Created by potrace 1.16, written by Peter Selinger 2001-2019
</metadata>
<g transform="translate(0.000000,937.000000) scale(0.100000,-0.100000)"
fill="#000000" stroke="none">
<path d="M435 9348 c-3 -13 -100 -493 -215 -1068 -115 -575 -212 -1055 -215
-1067 l-5 -23 185 0 c183 0 185 0 190 23 3 12 23 112 46 222 86 427 180 769
239 873 36 62 89 93 213 122 162 38 249 42 931 47 l669 5 -7 -39 c-13 -66
-122 -382 -181 -523 -75 -178 -241 -505 -361 -710 -133 -227 -238 -395 -519
-825 -405 -620 -551 -858 -714 -1162 -285 -531 -449 -1006 -517 -1498 -25
-178 -25 -611 -1 -768 103 -667 402 -1242 907 -1747 409 -410 920 -728 1506
-938 347 -124 725 -207 1164 -254 151 -16 749 -16 900 0 953 102 1722 402
2380 928 169 136 415 381 545 544 355 444 568 924 652 1467 24 157 24 590 -1
768 -68 492 -232 967 -517 1498 -163 304 -309 542 -714 1162 -281 430 -386
598 -519 825 -120 205 -286 532 -361 710 -59 141 -168 457 -181 523 l-7 39
669 -5 c682 -5 769 -9 931 -47 124 -29 177 -60 213 -122 59 -104 153 -446 239
-873 23 -110 43 -210 46 -222 5 -23 7 -23 190 -23 l185 0 -5 23 c-3 12 -100
492 -215 1067 -115 575 -212 1055 -215 1068 l-5 22 -1179 0 -1178 0 -34 -23
c-18 -12 -44 -38 -56 -56 -21 -30 -23 -46 -23 -145 0 -342 62 -809 164 -1246
98 -415 232 -846 518 -1660 273 -776 388 -1137 481 -1505 230 -909 256 -1677
81 -2370 -277 -1095 -1115 -1854 -2214 -2006 -125 -18 -515 -18 -640 0 -644
89 -1229 400 -1630 867 -611 710 -826 1725 -624 2939 91 543 219 986 602 2075
474 1349 625 1950 673 2670 16 244 11 356 -18 396 -49 68 34 64 -1267 64
l-1176 0 -5 -22z"/>
</g>
</svg>
