<?xml version="1.0" standalone="no"?>
<!DOCTYPE svg PUBLIC "-//W3C//DTD SVG 20010904//EN"
 "http://www.w3.org/TR/2001/REC-SVG-20010904/DTD/svg10.dtd">
<svg version="1.0" xmlns="http://www.w3.org/2000/svg"
 width="315.000000pt" height="1384.000000pt" viewBox="0 0 315.000000 1384.000000"
 preserveAspectRatio="xMidYMid meet">
<metadata>
Created by potrace 1.16, written by Peter Selinger 2001-2019
</metadata>
<g transform="translate(0.000000,1384.000000) scale(0.100000,-0.100000)"
fill="#000000" stroke="none">
<path d="M82 13821 c-63 -41 -72 -68 -72 -234 0 -159 5 -181 55 -227 26 -25
28 -25 278 -31 381 -10 603 -56 861 -179 435 -207 712 -559 766 -973 8 -57 10
-633 8 -1867 l-4 -1785 -22 -97 c-85 -373 -307 -683 -652 -913 -302 -201 -661
-315 -1057 -334 -166 -8 -188 -15 -223 -74 -18 -28 -20 -51 -20 -187 0 -136 2
-159 20 -187 35 -59 57 -66 223 -74 396 -19 755 -133 1057 -334 345 -230 567
-540 652 -913 l22 -97 4 -1785 c2 -1234 0 -1810 -8 -1867 -31 -241 -135 -457
-306 -643 -154 -166 -387 -314 -628 -399 -216 -76 -375 -101 -693 -110 -250
-6 -252 -6 -278 -31 -50 -46 -55 -68 -55 -227 0 -166 9 -193 72 -234 32 -20
42 -20 253 -15 864 23 1610 217 2105 549 309 207 528 484 629 794 71 217 66
62 66 2128 l0 1860 -23 105 c-49 222 -119 388 -239 569 -83 125 -246 302 -373
404 -238 192 -626 386 -959 479 -45 13 -81 25 -81 28 0 3 36 15 81 28 333 93
721 287 959 479 127 102 290 279 373 404 120 181 190 347 239 569 l23 105 0
1860 c0 1746 -1 1865 -18 1948 -120 591 -557 1019 -1303 1277 -434 150 -925
231 -1479 246 -211 5 -221 5 -253 -15z"/>
</g>
</svg>
