<?xml version="1.0" standalone="no"?>
<!DOCTYPE svg PUBLIC "-//W3C//DTD SVG 20010904//EN"
 "http://www.w3.org/TR/2001/REC-SVG-20010904/DTD/svg10.dtd">
<svg version="1.0" xmlns="http://www.w3.org/2000/svg"
 width="286.000000pt" height="274.000000pt" viewBox="0 0 286.000000 274.000000"
 preserveAspectRatio="xMidYMid meet">
<metadata>
Created by potrace 1.16, written by Peter Selinger 2001-2019
</metadata>
<g transform="translate(0.000000,274.000000) scale(0.100000,-0.100000)"
fill="#000000" stroke="none">
<path d="M1240 2730 c-618 -86 -1092 -518 -1217 -1110 -25 -118 -25 -382 0
-500 117 -555 538 -968 1110 -1092 147 -32 437 -32 584 0 572 124 993 537
1110 1092 25 118 25 382 0 500 -117 553 -541 971 -1105 1090 -111 24 -376 35
-482 20z m539 -529 c260 -56 427 -211 485 -451 48 -200 48 -560 0 -760 -59
-242 -224 -395 -490 -453 -87 -18 -130 -21 -349 -21 -219 0 -262 3 -349 21
-266 58 -431 211 -490 453 -48 200 -48 560 0 760 43 178 151 315 304 389 148
72 279 91 580 86 167 -3 236 -8 309 -24z"/>
</g>
</svg>
