<?xml version="1.0" standalone="no"?>
<!DOCTYPE svg PUBLIC "-//W3C//DTD SVG 20010904//EN"
 "http://www.w3.org/TR/2001/REC-SVG-20010904/DTD/svg10.dtd">
<svg version="1.0" xmlns="http://www.w3.org/2000/svg"
 width="616.000000pt" height="911.000000pt" viewBox="0 0 616.000000 911.000000"
 preserveAspectRatio="xMidYMid meet">
<metadata>
Created by potrace 1.16, written by Peter Selinger 2001-2019
</metadata>
<g transform="translate(0.000000,911.000000) scale(0.100000,-0.100000)"
fill="#000000" stroke="none">
<path d="M4305 9091 c-22 -10 -52 -31 -66 -47 -14 -16 -974 -1335 -2133 -2931
l-2106 -2903 0 -260 0 -260 1820 0 1820 0 -2 -932 -3 -933 -27 -57 c-35 -75
-97 -141 -157 -167 -112 -48 -334 -69 -803 -78 l-348 -6 0 -260 0 -260 118 7
c758 41 2859 41 3615 0 l117 -7 0 260 0 260 -347 6 c-474 9 -693 30 -803 78
-63 28 -123 91 -157 163 l-28 61 -3 933 -2 932 670 0 670 0 0 260 0 260 -670
0 -670 0 -2 2899 -3 2900 -21 27 c-49 66 -58 69 -257 72 -161 2 -187 0 -222
-17z m-588 -5878 c-2 -2 -720 -2 -1595 -1 l-1592 3 1593 2193 1592 2194 3
-2193 c1 -1206 1 -2194 -1 -2196z"/>
</g>
</svg>
