<?xml version="1.0" standalone="no"?>
<!DOCTYPE svg PUBLIC "-//W3C//DTD SVG 20010904//EN"
 "http://www.w3.org/TR/2001/REC-SVG-20010904/DTD/svg10.dtd">
<svg version="1.0" xmlns="http://www.w3.org/2000/svg"
 width="423.000000pt" height="1260.000000pt" viewBox="0 0 423.000000 1260.000000"
 preserveAspectRatio="xMidYMid meet">
<metadata>
Created by potrace 1.16, written by Peter Selinger 2001-2019
</metadata>
<g transform="translate(0.000000,1260.000000) scale(0.100000,-0.100000)"
fill="#000000" stroke="none">
<path d="M1880 12589 c-319 -39 -656 -162 -913 -333 -325 -217 -570 -498 -742
-851 -145 -297 -210 -558 -222 -885 -21 -580 157 -1171 505 -1680 107 -156
207 -276 369 -441 84 -85 153 -158 153 -161 0 -4 -17 -17 -37 -29 -148 -90
-361 -277 -489 -431 -152 -181 -303 -448 -379 -667 -82 -239 -114 -416 -122
-671 -31 -1046 572 -2063 1571 -2649 128 -76 340 -179 501 -246 750 -310 1151
-606 1331 -981 72 -150 89 -237 88 -449 -3 -530 -201 -1030 -536 -1351 -231
-222 -482 -333 -788 -350 -547 -31 -1091 248 -1362 699 l-49 81 75 18 c350 82
518 447 355 770 -65 129 -182 219 -335 258 -98 25 -170 25 -268 0 -200 -51
-335 -188 -382 -387 -12 -52 -15 -99 -11 -198 27 -672 492 -1267 1191 -1526
360 -134 776 -164 1152 -84 536 113 1007 435 1321 902 77 115 198 360 242 488
74 222 109 412 118 645 21 580 -157 1171 -505 1680 -107 156 -207 276 -369
441 -84 85 -153 158 -153 161 0 4 17 17 38 29 147 90 360 277 488 431 152 181
303 448 379 667 82 239 114 416 122 671 31 1046 -572 2063 -1571 2649 -128 76
-340 179 -501 246 -750 310 -1151 606 -1331 981 -72 150 -89 237 -88 449 3
530 201 1030 536 1351 231 222 482 333 788 350 547 31 1091 -248 1362 -699
l49 -81 -75 -18 c-350 -82 -518 -447 -355 -770 65 -129 182 -219 335 -258 98
-25 170 -25 268 0 200 51 335 188 382 387 12 52 15 99 11 198 -27 672 -492
1267 -1191 1526 -103 39 -278 85 -396 104 -113 20 -451 28 -560 14z m-75
-4859 c77 -38 205 -95 285 -128 526 -217 863 -421 1095 -663 302 -315 375
-628 269 -1158 -52 -263 -170 -542 -311 -741 -79 -110 -221 -258 -311 -323
l-62 -46 -108 65 c-135 82 -345 185 -532 262 -526 217 -863 421 -1095 663
-302 315 -375 628 -269 1158 52 263 170 542 311 741 79 110 221 258 311 323
l62 46 108 -65 c59 -36 170 -96 247 -134z"/>
</g>
</svg>
