<?xml version="1.0" standalone="no"?>
<!DOCTYPE svg PUBLIC "-//W3C//DTD SVG 20010904//EN"
 "http://www.w3.org/TR/2001/REC-SVG-20010904/DTD/svg10.dtd">
<svg version="1.0" xmlns="http://www.w3.org/2000/svg"
 width="554.000000pt" height="916.000000pt" viewBox="0 0 554.000000 916.000000"
 preserveAspectRatio="xMidYMid meet">
<metadata>
Created by potrace 1.16, written by Peter Selinger 2001-2019
</metadata>
<g transform="translate(0.000000,916.000000) scale(0.100000,-0.100000)"
fill="#000000" stroke="none">
<path d="M3300 9153 c-751 -72 -1416 -405 -1986 -996 -533 -551 -935 -1306
-1143 -2149 -115 -464 -158 -808 -168 -1343 -21 -1197 136 -2202 464 -2955
225 -518 482 -879 830 -1167 265 -218 589 -387 899 -468 404 -105 886 -98
1314 19 408 112 742 317 1100 676 651 651 920 1308 920 2245 0 945 -270 1605
-924 2261 -408 409 -799 612 -1331 690 -89 14 -181 18 -360 18 -264 0 -350
-12 -540 -75 -456 -152 -829 -506 -1087 -1034 l-59 -120 6 330 c18 1057 130
1702 398 2292 323 714 895 1229 1512 1362 345 75 758 40 1056 -88 144 -63 234
-124 349 -240 l105 -106 -100 -6 c-125 -8 -178 -21 -282 -70 -368 -175 -449
-717 -151 -1011 296 -292 827 -211 1007 153 60 122 74 202 67 379 -8 214 -55
414 -137 587 -251 527 -829 829 -1573 821 -83 0 -167 -3 -186 -5z m-160 -3532
c365 -74 629 -278 866 -671 155 -256 233 -559 275 -1055 6 -71 13 -384 16
-695 6 -590 -4 -955 -33 -1202 -63 -549 -213 -897 -518 -1204 -67 -67 -150
-140 -185 -164 -143 -96 -316 -164 -496 -196 -135 -24 -429 -25 -532 -1 -257
59 -449 169 -653 376 -177 177 -304 374 -401 619 -129 323 -217 1028 -219
1749 0 329 7 471 36 673 89 620 319 1128 653 1443 217 203 450 312 751 351 77
10 347 -4 440 -23z"/>
</g>
</svg>
