<?xml version="1.0" standalone="no"?>
<!DOCTYPE svg PUBLIC "-//W3C//DTD SVG 20010904//EN"
 "http://www.w3.org/TR/2001/REC-SVG-20010904/DTD/svg10.dtd">
<svg version="1.0" xmlns="http://www.w3.org/2000/svg"
 width="877.000000pt" height="976.000000pt" viewBox="0 0 877.000000 976.000000"
 preserveAspectRatio="xMidYMid meet">
<metadata>
Created by potrace 1.16, written by Peter Selinger 2001-2019
</metadata>
<g transform="translate(0.000000,976.000000) scale(0.100000,-0.100000)"
fill="#000000" stroke="none">
<path d="M4020 9749 c-304 -21 -698 -88 -991 -168 -592 -164 -1136 -438 -1599
-806 -162 -129 -443 -408 -564 -560 -405 -508 -643 -1084 -697 -1685 -14 -163
-7 -474 16 -645 61 -462 196 -889 439 -1390 190 -391 363 -687 819 -1405 397
-624 616 -1003 768 -1332 99 -213 196 -460 243 -617 l16 -53 -588 5 c-638 5
-740 12 -891 63 -101 34 -137 63 -172 139 -55 122 -154 523 -234 950 -14 77
-29 150 -32 162 l-5 23 -275 0 -275 0 5 -23 c3 -12 105 -548 227 -1192 122
-643 224 -1180 227 -1192 l5 -23 1270 0 1270 0 38 21 c64 36 80 78 80 210 0
424 -82 988 -225 1559 -97 387 -188 685 -469 1538 -261 789 -357 1108 -451
1497 -158 653 -220 1250 -185 1765 56 803 304 1425 753 1887 153 157 242 231
415 347 753 503 1745 564 2572 158 148 -73 366 -213 487 -315 115 -96 312
-301 393 -412 547 -736 703 -1792 454 -3070 -95 -488 -209 -886 -530 -1857
-338 -1026 -447 -1399 -550 -1887 -91 -434 -153 -968 -143 -1243 4 -104 15
-129 73 -172 27 -21 32 -21 1306 -24 l1278 -2 5 22 c3 13 105 550 227 1193
122 644 224 1180 227 1193 l5 22 -275 0 -275 0 -5 -23 c-3 -12 -18 -85 -32
-162 -80 -427 -179 -828 -234 -950 -35 -76 -71 -105 -172 -139 -151 -51 -253
-58 -891 -63 l-588 -5 16 53 c47 157 144 404 243 617 152 329 371 708 768
1332 456 718 629 1014 819 1405 302 623 444 1147 461 1705 19 628 -153 1212
-522 1765 -135 204 -247 338 -439 531 -309 309 -660 560 -1073 768 -741 371
-1651 545 -2543 485z"/>
</g>
</svg>
