<?xml version="1.0" standalone="no"?>
<!DOCTYPE svg PUBLIC "-//W3C//DTD SVG 20010904//EN"
 "http://www.w3.org/TR/2001/REC-SVG-20010904/DTD/svg10.dtd">
<svg version="1.0" xmlns="http://www.w3.org/2000/svg"
 width="391.000000pt" height="249.000000pt" viewBox="0 0 391.000000 249.000000"
 preserveAspectRatio="xMidYMid meet">
<metadata>
Created by potrace 1.16, written by Peter Selinger 2001-2019
</metadata>
<g transform="translate(0.000000,249.000000) scale(0.100000,-0.100000)"
fill="#000000" stroke="none">
<path d="M391 2475 c-85 -24 -188 -84 -251 -145 -149 -148 -180 -343 -83 -534
18 -36 1261 -1744 1303 -1789 5 -6 309 149 327 166 5 6 -743 2019 -771 2075
-41 82 -118 157 -203 199 -69 34 -84 38 -172 40 -63 2 -115 -2 -150 -12z"/>
<path d="M2601 2475 c-85 -24 -188 -84 -251 -145 -149 -148 -180 -343 -83
-534 18 -36 1261 -1744 1303 -1789 5 -6 309 149 327 166 5 6 -743 2019 -771
2075 -41 82 -118 157 -203 199 -69 34 -84 38 -172 40 -63 2 -115 -2 -150 -12z"/>
</g>
</svg>
