<?xml version="1.0" standalone="no"?>
<!DOCTYPE svg PUBLIC "-//W3C//DTD SVG 20010904//EN"
 "http://www.w3.org/TR/2001/REC-SVG-20010904/DTD/svg10.dtd">
<svg version="1.0" xmlns="http://www.w3.org/2000/svg"
 width="775.000000pt" height="558.000000pt" viewBox="0 0 775.000000 558.000000"
 preserveAspectRatio="xMidYMid meet">
<metadata>
Created by potrace 1.16, written by Peter Selinger 2001-2019
</metadata>
<g transform="translate(0.000000,558.000000) scale(0.100000,-0.100000)"
fill="#000000" stroke="none">
<path d="M4522 5559 c-24 -12 -54 -38 -68 -58 l-24 -36 0 -2675 0 -2675 25
-37 c70 -104 243 -101 313 5 l27 41 5 2157 5 2158 539 -1337 c297 -735 550
-1357 562 -1382 38 -76 103 -120 181 -120 47 0 117 34 142 68 10 15 270 650
577 1412 l559 1384 5 -2179 5 -2180 23 -32 c71 -99 241 -94 310 10 l27 41 0
2666 0 2666 -27 41 c-70 106 -246 109 -312 4 -13 -20 -313 -755 -667 -1633
-354 -879 -646 -1598 -649 -1598 -3 0 -295 719 -649 1598 -354 878 -654 1613
-667 1633 -46 73 -157 100 -242 58z"/>
<path d="M970 5273 c-191 -14 -382 -62 -510 -129 -254 -131 -385 -332 -442
-679 -17 -110 -17 -670 0 -780 57 -347 188 -549 441 -679 103 -53 188 -80 336
-108 102 -19 164 -21 880 -28 424 -5 781 -11 795 -14 14 -2 61 -10 105 -16 96
-14 219 -52 295 -90 181 -91 290 -266 332 -530 18 -119 18 -811 0 -930 -68
-427 -283 -599 -806 -640 -76 -6 -564 -10 -1190 -10 -1011 0 -1063 -1 -1102
-19 -75 -34 -117 -117 -96 -190 16 -53 48 -90 96 -112 39 -18 91 -19 1117 -19
644 0 1128 4 1205 10 270 22 429 60 609 149 327 161 495 432 545 876 13 117
13 723 0 840 -39 346 -152 587 -355 758 -84 71 -272 166 -395 201 -230 65
-399 76 -1139 76 -627 0 -775 7 -910 41 -212 54 -329 171 -375 375 -48 214
-48 684 0 898 57 256 220 373 565 405 72 7 501 11 1159 11 996 0 1047 1 1086
19 75 34 117 117 96 190 -16 53 -48 90 -96 112 -39 18 -89 18 -1121 17 -594
-1 -1100 -3 -1125 -5z"/>
</g>
</svg>
