<?xml version="1.0" standalone="no"?>
<!DOCTYPE svg PUBLIC "-//W3C//DTD SVG 20010904//EN"
 "http://www.w3.org/TR/2001/REC-SVG-20010904/DTD/svg10.dtd">
<svg version="1.0" xmlns="http://www.w3.org/2000/svg"
 width="824.000000pt" height="945.000000pt" viewBox="0 0 824.000000 945.000000"
 preserveAspectRatio="xMidYMid meet">
<metadata>
Created by potrace 1.16, written by Peter Selinger 2001-2019
</metadata>
<g transform="translate(0.000000,945.000000) scale(0.100000,-0.100000)"
fill="#000000" stroke="none">
<path d="M4050 9443 c-104 -6 -325 -35 -460 -59 -1564 -286 -2871 -1510 -3370
-3156 -554 -1827 -47 -3791 1302 -5046 627 -583 1408 -974 2228 -1117 241 -41
393 -56 655 -62 1029 -23 1994 159 2651 501 262 137 445 269 648 466 209 204
342 382 468 627 54 105 60 122 56 164 -10 98 -74 143 -197 138 -104 -5 -122
-20 -191 -155 -352 -694 -1077 -1129 -2160 -1293 -456 -69 -1079 -89 -1400
-46 -643 88 -1266 401 -1746 880 -637 635 -993 1496 -1099 2660 -18 203 -35
519 -35 668 l0 107 3356 0 c3076 0 3359 1 3390 16 65 31 79 64 82 199 5 142
-13 509 -34 720 -116 1175 -509 2109 -1160 2760 -602 602 -1438 956 -2424
1025 -133 9 -428 11 -560 3z m455 -343 c641 -61 1234 -399 1631 -931 138 -186
303 -489 412 -760 235 -582 355 -1257 388 -2176 l7 -193 -2770 0 -2769 0 3 93
c53 1470 409 2485 1123 3197 557 557 1272 836 1975 770z"/>
</g>
</svg>
