<?xml version="1.0" standalone="no"?>
<!DOCTYPE svg PUBLIC "-//W3C//DTD SVG 20010904//EN"
 "http://www.w3.org/TR/2001/REC-SVG-20010904/DTD/svg10.dtd">
<svg version="1.0" xmlns="http://www.w3.org/2000/svg"
 width="406.000000pt" height="565.000000pt" viewBox="0 0 406.000000 565.000000"
 preserveAspectRatio="xMidYMid meet">
<metadata>
Created by potrace 1.16, written by Peter Selinger 2001-2019
</metadata>
<g transform="translate(0.000000,565.000000) scale(0.100000,-0.100000)"
fill="#000000" stroke="none">
<path d="M2266 5581 c-82 -100 -256 -264 -371 -352 -451 -339 -1025 -532
-1692 -569 -98 -5 -184 -10 -190 -10 -10 0 -13 -52 -13 -225 0 -173 3 -225 13
-225 6 0 92 5 190 10 478 27 883 126 1266 311 79 38 145 69 147 69 2 0 3 -856
2 -1902 l-3 -1903 -23 -57 c-29 -71 -100 -152 -162 -183 -119 -60 -485 -94
-1017 -95 l-233 0 0 -226 0 -227 127 7 c787 39 2832 39 3616 0 l127 -7 0 227
0 226 -227 0 c-408 0 -767 26 -918 65 -113 30 -195 106 -242 225 -17 43 -18
175 -23 2430 l-5 2385 -22 31 c-36 50 -77 64 -191 64 l-100 0 -56 -69z"/>
</g>
</svg>
