<?xml version="1.0" standalone="no"?>
<!DOCTYPE svg PUBLIC "-//W3C//DTD SVG 20010904//EN"
 "http://www.w3.org/TR/2001/REC-SVG-20010904/DTD/svg10.dtd">
<svg version="1.0" xmlns="http://www.w3.org/2000/svg"
 width="580.000000pt" height="206.000000pt" viewBox="0 0 580.000000 206.000000"
 preserveAspectRatio="xMidYMid meet">
<metadata>
Created by potrace 1.16, written by Peter Selinger 2001-2019
</metadata>
<g transform="translate(0.000000,206.000000) scale(0.100000,-0.100000)"
fill="#000000" stroke="none">
<path d="M2555 2049 c-1352 -100 -2422 -833 -2544 -1742 -24 -172 -10 -241 56
-284 40 -27 276 -27 316 0 41 27 67 75 67 127 0 117 39 261 100 377 58 108
111 177 229 293 444 439 1232 700 2116 700 884 0 1672 -261 2116 -700 118
-116 171 -185 229 -293 61 -116 100 -260 100 -377 0 -52 26 -100 67 -127 40
-27 276 -27 316 0 66 43 80 112 56 284 -113 841 -1047 1545 -2275 1712 -288
40 -662 51 -949 30z"/>
</g>
</svg>
