<?xml version="1.0" standalone="no"?>
<!DOCTYPE svg PUBLIC "-//W3C//DTD SVG 20010904//EN"
 "http://www.w3.org/TR/2001/REC-SVG-20010904/DTD/svg10.dtd">
<svg version="1.0" xmlns="http://www.w3.org/2000/svg"
 width="467.000000pt" height="627.000000pt" viewBox="0 0 467.000000 627.000000"
 preserveAspectRatio="xMidYMid meet">
<metadata>
Created by potrace 1.16, written by Peter Selinger 2001-2019
</metadata>
<g transform="translate(0.000000,627.000000) scale(0.100000,-0.100000)"
fill="#000000" stroke="none">
<path d="M2490 6209 c-435 -277 -990 -443 -1693 -504 -134 -12 -616 -34 -764
-35 l-33 0 0 -260 0 -260 33 0 c17 0 159 5 314 10 548 19 910 65 1288 165 72
18 138 37 148 40 16 7 17 -100 15 -2256 l-3 -2264 -23 -50 c-29 -63 -102 -139
-164 -171 -26 -13 -77 -31 -114 -39 -164 -39 -623 -65 -1136 -65 l-288 0 0
-261 0 -262 143 7 c906 41 3398 41 4305 0 l142 -7 0 262 0 261 -287 0 c-514 0
-973 26 -1137 65 -37 8 -88 26 -114 39 -62 32 -135 108 -164 171 l-23 50 -5
2660 c-5 2596 -5 2661 -24 2692 -35 58 -79 73 -207 73 l-114 -1 -95 -60z"/>
</g>
</svg>
