<?xml version="1.0" standalone="no"?>
<!DOCTYPE svg PUBLIC "-//W3C//DTD SVG 20010904//EN"
 "http://www.w3.org/TR/2001/REC-SVG-20010904/DTD/svg10.dtd">
<svg version="1.0" xmlns="http://www.w3.org/2000/svg"
 width="1317.000000pt" height="937.000000pt" viewBox="0 0 1317.000000 937.000000"
 preserveAspectRatio="xMidYMid meet">
<metadata>
Created by potrace 1.16, written by Peter Selinger 2001-2019
</metadata>
<g transform="translate(0.000000,937.000000) scale(0.100000,-0.100000)"
fill="#000000" stroke="none">
<path d="M0 9148 l0 -225 268 -6 c593 -14 741 -65 861 -296 27 -52 164 -460
435 -1297 218 -672 396 -1224 396 -1228 0 -3 -245 -6 -545 -6 -602 0 -585 2
-642 -63 -72 -82 -46 -214 51 -258 39 -17 78 -19 646 -19 l605 0 359 -1108
c197 -609 361 -1113 363 -1119 4 -10 -192 -13 -961 -13 -1064 0 -1004 4 -1063
-63 -51 -59 -56 -133 -12 -204 45 -73 -33 -67 1118 -73 l1034 -5 492 -1518
c310 -956 502 -1532 518 -1556 40 -60 112 -91 212 -91 103 0 174 31 213 94 14
23 237 694 516 1556 l492 1515 1224 0 1224 0 493 -1520 c294 -906 503 -1534
517 -1556 39 -58 112 -89 211 -89 100 0 172 31 212 91 16 24 208 601 518 1556
l492 1518 1034 5 c1151 6 1073 0 1118 73 44 71 39 145 -12 204 -59 67 1 63
-1063 63 -769 0 -965 3 -961 13 2 6 166 510 363 1119 l359 1108 605 0 c568 0
607 2 646 19 97 44 123 176 51 258 -57 65 -40 63 -642 63 -300 0 -545 3 -545
6 0 27 680 2097 710 2160 155 333 431 542 823 624 99 21 277 40 370 40 l57 0
0 226 0 226 -72 -6 c-464 -39 -1974 -39 -2650 0 l-108 7 0 -227 0 -226 60 0
c34 0 104 -5 158 -10 338 -36 610 -147 774 -317 116 -120 164 -236 155 -376
-4 -73 -39 -188 -336 -1100 -182 -559 -331 -1020 -331 -1022 0 -3 -610 -4
-1356 -3 l-1356 3 -391 1200 c-423 1301 -413 1265 -369 1350 26 52 96 116 161
149 154 78 457 126 804 126 l137 0 0 226 0 227 -127 -7 c-787 -39 -2711 -39
-3325 0 l-98 7 0 -227 0 -226 173 0 c185 0 416 -13 537 -30 229 -33 338 -106
428 -286 30 -58 352 -1032 352 -1064 1 -8 -104 -338 -232 -733 l-232 -717
-1355 2 -1355 3 -389 1195 c-424 1303 -415 1270 -370 1355 29 54 97 117 160
149 158 79 459 126 806 126 l137 0 0 226 0 227 -127 -7 c-782 -39 -2713 -39
-3325 0 l-98 7 0 -225z m6718 -2636 c73 -224 132 -410 132 -415 0 -4 -121 -7
-270 -7 -148 0 -270 3 -270 8 0 16 264 822 270 822 3 0 66 -183 138 -408z
m-918 -770 c0 -5 -123 -389 -274 -853 -151 -464 -313 -964 -361 -1111 l-86
-268 -517 0 -517 0 -359 1108 c-197 609 -361 1113 -364 1120 -3 9 248 12 1237
12 683 0 1241 -4 1241 -8z m1525 -1099 c197 -610 360 -1114 363 -1120 3 -10
-223 -13 -1108 -13 -885 0 -1111 3 -1108 13 3 6 166 510 363 1120 l359 1107
386 0 386 0 359 -1107z m3108 295 c-145 -447 -309 -951 -364 -1120 l-100 -308
-517 0 -517 0 -359 1108 c-197 609 -361 1113 -363 1120 -4 9 248 12 1240 12
l1244 0 -264 -812z m-5527 -1960 c-253 -784 -341 -1047 -347 -1041 -7 8 -399
1213 -399 1226 0 4 182 7 404 7 l404 0 -62 -192z m4951 185 c-2 -5 -93 -285
-203 -625 -109 -339 -200 -615 -202 -614 -3 4 -402 1233 -402 1240 0 3 183 6
406 6 223 0 403 -3 401 -7z"/>
</g>
</svg>
