<?xml version="1.0" standalone="no"?>
<!DOCTYPE svg PUBLIC "-//W3C//DTD SVG 20010904//EN"
 "http://www.w3.org/TR/2001/REC-SVG-20010904/DTD/svg10.dtd">
<svg version="1.0" xmlns="http://www.w3.org/2000/svg"
 width="707.000000pt" height="880.000000pt" viewBox="0 0 707.000000 880.000000"
 preserveAspectRatio="xMidYMid meet">
<metadata>
Created by potrace 1.16, written by Peter Selinger 2001-2019
</metadata>
<g transform="translate(0.000000,880.000000) scale(0.100000,-0.100000)"
fill="#000000" stroke="none">
<path d="M1055 8724 c-561 -40 -1028 -73 -1037 -73 -17 -1 -18 -20 -18 -261
l0 -260 143 0 c190 0 400 -17 522 -41 237 -48 342 -144 393 -361 16 -68 17
-300 17 -3498 l0 -3425 -24 -59 c-33 -84 -92 -139 -173 -164 -127 -40 -374
-61 -695 -62 l-183 0 0 -261 0 -261 103 6 c669 41 2345 41 3015 0 l102 -6 0
261 0 261 -182 0 c-322 1 -569 22 -696 62 -79 24 -140 82 -174 166 l-23 57 -3
941 -3 941 73 -23 c97 -32 269 -70 403 -88 242 -34 622 -46 813 -25 268 29
578 139 807 286 259 168 501 417 667 689 l53 87 3 -537 2 -538 68 6 c37 4 479
36 982 71 503 35 945 67 983 71 l67 6 0 259 0 259 -142 0 c-191 0 -401 17
-523 41 -235 47 -340 142 -393 356 -15 63 -17 268 -19 2631 l-3 2564 -73 -7
c-59 -5 -2049 -145 -2063 -145 -2 0 -4 -117 -4 -260 l0 -260 143 0 c190 0 400
-17 522 -41 235 -47 340 -143 392 -356 15 -61 17 -203 21 -1478 2 -974 0
-1450 -8 -1538 -18 -210 -57 -400 -121 -592 -41 -120 -164 -370 -234 -474
-242 -360 -568 -594 -931 -671 -276 -58 -748 -25 -992 70 -148 57 -290 169
-355 281 -52 88 -85 211 -115 419 -14 103 -16 373 -19 2583 l-4 2467 -32 -1
c-18 -1 -491 -34 -1052 -75z"/>
</g>
</svg>
