<?xml version="1.0" standalone="no"?>
<!DOCTYPE svg PUBLIC "-//W3C//DTD SVG 20010904//EN"
 "http://www.w3.org/TR/2001/REC-SVG-20010904/DTD/svg10.dtd">
<svg version="1.0" xmlns="http://www.w3.org/2000/svg"
 width="423.000000pt" height="589.000000pt" viewBox="0 0 423.000000 589.000000"
 preserveAspectRatio="xMidYMid meet">
<metadata>
Created by potrace 1.16, written by Peter Selinger 2001-2019
</metadata>
<g transform="translate(0.000000,589.000000) scale(0.100000,-0.100000)"
fill="#000000" stroke="none">
<path d="M2425 5864 c-34 -52 -262 -278 -360 -357 -348 -280 -781 -477 -1273
-576 -198 -41 -349 -59 -589 -73 l-203 -12 0 -258 0 -258 53 0 c28 0 120 5
202 10 485 33 900 135 1290 319 59 28 110 51 112 51 2 0 2 -872 1 -1937 l-3
-1938 -27 -55 c-101 -204 -237 -238 -1010 -247 l-428 -5 0 -264 0 -264 2015 0
2015 0 0 264 0 263 -417 6 c-752 10 -887 44 -982 246 l-26 56 -5 2475 c-5
2414 -5 2476 -24 2507 -35 58 -79 73 -209 73 -113 0 -115 0 -132 -26z m1345
-5843 c96 -4 -606 -7 -1560 -7 -954 0 -1699 2 -1655 3 490 21 2727 23 3215 4z"/>
</g>
</svg>
