<?xml version="1.0" standalone="no"?>
<!DOCTYPE svg PUBLIC "-//W3C//DTD SVG 20010904//EN"
 "http://www.w3.org/TR/2001/REC-SVG-20010904/DTD/svg10.dtd">
<svg version="1.0" xmlns="http://www.w3.org/2000/svg"
 width="583.000000pt" height="838.000000pt" viewBox="0 0 583.000000 838.000000"
 preserveAspectRatio="xMidYMid meet">
<metadata>
Created by potrace 1.16, written by Peter Selinger 2001-2019
</metadata>
<g transform="translate(0.000000,838.000000) scale(0.100000,-0.100000)"
fill="#000000" stroke="none">
<path d="M3020 7806 l0 -573 -92 -7 c-413 -31 -919 -186 -1310 -401 -719 -395
-1259 -1057 -1491 -1825 -91 -302 -121 -508 -121 -845 -1 -260 6 -334 49 -550
189 -943 849 -1748 1774 -2164 325 -147 712 -250 1060 -283 l131 -12 0 -573 0
-573 225 0 225 0 0 575 0 575 44 0 c68 0 277 28 414 56 701 142 1253 501 1612
1049 104 159 266 521 277 621 6 51 -16 98 -60 124 -25 16 -50 20 -122 20 -140
0 -149 -8 -215 -195 -47 -133 -139 -316 -219 -435 -350 -522 -905 -817 -1628
-866 l-103 -7 0 2672 0 2671 68 -5 c37 -2 141 -10 232 -16 475 -32 883 -132
1129 -276 l44 -26 -84 -24 c-46 -13 -113 -40 -148 -60 -342 -191 -406 -714
-121 -994 298 -293 835 -212 1010 152 57 119 73 206 67 354 -12 278 -112 503
-311 700 -313 312 -886 509 -1612 555 -93 6 -193 14 -221 16 l-53 5 0 570 0
569 -225 0 -225 0 0 -574z m-5 -6244 c-8 -8 -196 39 -299 75 -550 191 -992
576 -1255 1093 -243 477 -345 1066 -301 1735 45 668 213 1187 515 1590 76 101
257 289 355 368 262 212 582 357 905 410 l80 13 3 -2639 c1 -1452 0 -2642 -3
-2645z"/>
</g>
</svg>
