<?xml version="1.0" standalone="no"?>
<!DOCTYPE svg PUBLIC "-//W3C//DTD SVG 20010904//EN"
 "http://www.w3.org/TR/2001/REC-SVG-20010904/DTD/svg10.dtd">
<svg version="1.0" xmlns="http://www.w3.org/2000/svg"
 width="1006.000000pt" height="945.000000pt" viewBox="0 0 1006.000000 945.000000"
 preserveAspectRatio="xMidYMid meet">
<metadata>
Created by potrace 1.16, written by Peter Selinger 2001-2019
</metadata>
<g transform="translate(0.000000,945.000000) scale(0.100000,-0.100000)"
fill="#000000" stroke="none">
<path d="M0 9191 l0 -261 208 0 c224 0 536 -14 672 -30 142 -17 231 -40 320
-82 70 -34 100 -56 175 -132 l90 -91 772 -1277 c425 -702 773 -1279 773 -1282
0 -3 -476 -6 -1058 -6 l-1059 0 -44 -23 c-119 -63 -144 -216 -52 -318 66 -73
-1 -69 1302 -69 l1166 0 558 -920 557 -920 0 -220 0 -220 -1743 0 -1744 0 -44
-23 c-119 -63 -144 -216 -52 -318 67 -74 -63 -69 1860 -69 l1723 0 0 -1028 c0
-1141 3 -1086 -66 -1189 -99 -146 -264 -178 -981 -190 l-373 -6 0 -260 0 -260
128 7 c817 41 3057 41 3875 0 l127 -7 0 262 0 261 -232 0 c-513 1 -898 34
-1002 87 -55 28 -123 102 -152 166 l-29 62 -3 1047 -2 1048 1723 0 c1923 0
1793 -5 1860 69 92 102 67 255 -52 318 l-44 23 -1744 0 -1743 0 0 219 0 218
558 922 557 921 1166 0 c1303 0 1236 -4 1302 69 92 102 67 255 -52 318 l-44
23 -1059 0 c-582 0 -1058 2 -1058 5 0 15 1321 2182 1366 2242 80 104 237 251
351 326 296 198 668 303 1137 323 l156 7 0 260 0 260 -77 -7 c-513 -41 -2194
-41 -2860 0 l-103 6 0 -259 0 -260 101 -7 c248 -16 423 -82 549 -207 126 -124
158 -300 90 -483 -11 -29 -199 -348 -416 -707 -218 -360 -511 -844 -652 -1076
l-256 -423 -950 0 -951 1 -764 1262 c-761 1256 -765 1262 -769 1323 -14 203
205 295 736 311 l212 6 0 260 0 260 -127 -7 c-824 -41 -3009 -41 -3705 0
l-108 7 0 -262z m6167 -3584 c-8 -22 -668 -1111 -682 -1125 -10 -11 -77 93
-356 554 -189 312 -345 571 -347 575 -2 5 310 9 693 9 570 0 696 -2 692 -13z"/>
</g>
</svg>
