<?xml version="1.0" standalone="no"?>
<!DOCTYPE svg PUBLIC "-//W3C//DTD SVG 20010904//EN"
 "http://www.w3.org/TR/2001/REC-SVG-20010904/DTD/svg10.dtd">
<svg version="1.0" xmlns="http://www.w3.org/2000/svg"
 width="860.000000pt" height="983.000000pt" viewBox="0 0 860.000000 983.000000"
 preserveAspectRatio="xMidYMid meet">
<metadata>
Created by potrace 1.16, written by Peter Selinger 2001-2019
</metadata>
<g transform="translate(0.000000,983.000000) scale(0.100000,-0.100000)"
fill="#000000" stroke="none">
<path d="M4225 9824 c-137 -11 -344 -38 -465 -60 -1092 -200 -2073 -824 -2765
-1759 -429 -579 -738 -1278 -885 -1998 -80 -395 -103 -631 -104 -1067 -1 -421
22 -669 95 -1035 87 -430 217 -815 409 -1210 120 -248 190 -372 335 -590 399
-602 911 -1092 1525 -1462 151 -91 501 -264 661 -327 438 -172 889 -274 1364
-307 287 -20 831 -4 1215 37 1478 155 2463 704 2929 1631 57 115 63 154 30
213 -36 63 -79 80 -204 80 -152 0 -167 -10 -242 -154 -244 -468 -636 -811
-1183 -1036 -447 -183 -966 -287 -1605 -321 -446 -24 -807 5 -1142 91 -998
256 -1813 954 -2242 1917 -265 597 -401 1298 -427 2212 l-7 231 3478 0 3477 0
38 21 c21 12 48 39 60 62 23 40 23 43 17 296 -35 1381 -375 2441 -1044 3248
-107 129 -331 348 -468 457 -245 195 -578 389 -882 514 -357 147 -778 251
-1203 297 -138 15 -653 28 -765 19z m595 -429 c300 -46 612 -161 874 -323 302
-187 582 -468 783 -787 318 -506 533 -1153 632 -1910 37 -281 71 -746 71 -972
l0 -103 -2827 0 -2826 0 6 183 c25 687 141 1341 325 1845 293 800 792 1413
1450 1781 300 168 596 258 1002 305 74 9 410 -4 510 -19z"/>
</g>
</svg>
