<?xml version="1.0" standalone="no"?>
<!DOCTYPE svg PUBLIC "-//W3C//DTD SVG 20010904//EN"
 "http://www.w3.org/TR/2001/REC-SVG-20010904/DTD/svg10.dtd">
<svg version="1.0" xmlns="http://www.w3.org/2000/svg"
 width="1360.000000pt" height="1056.000000pt" viewBox="0 0 1360.000000 1056.000000"
 preserveAspectRatio="xMidYMid meet">
<metadata>
Created by potrace 1.16, written by Peter Selinger 2001-2019
</metadata>
<g transform="translate(0.000000,1056.000000) scale(0.100000,-0.100000)"
fill="#000000" stroke="none">
<path d="M9680 10550 c-650 -39 -1277 -133 -1872 -281 -2473 -612 -4608 -2095
-6040 -4194 -967 -1417 -1575 -3110 -1732 -4820 -23 -247 -40 -576 -32 -618
14 -75 51 -101 219 -156 720 -236 1495 -388 2332 -457 259 -21 1015 -30 1300
-15 959 50 1825 214 2730 516 1295 431 2470 1104 3514 2013 834 726 1586 1645
2141 2617 799 1399 1255 2942 1342 4539 l12 228 -22 42 c-29 55 -50 66 -223
121 -740 237 -1478 381 -2314 451 -222 18 -1123 27 -1355 14z m1295 -334 c536
-45 973 -110 1475 -222 178 -40 599 -150 608 -159 4 -4 125 81 -2798 -1950
-1400 -972 -2566 -1783 -2592 -1801 l-48 -34 0 1919 0 1919 248 61 c624 152
1213 241 1872 281 222 13 1012 4 1235 -14z m-3676 -2408 l0 -1983 -1815 -1260
c-999 -693 -1822 -1264 -1830 -1268 -12 -7 -14 301 -13 2210 l0 2218 82 70
c405 350 861 686 1307 962 641 398 1330 721 2050 964 113 38 208 69 213 69 4
0 7 -892 6 -1982z m5946 1680 c-36 -407 -81 -739 -141 -1058 -160 -844 -407
-1614 -767 -2390 l-63 -135 -2149 -3 c-1182 -1 -2146 0 -2143 4 15 15 5254
3653 5262 3653 4 1 5 -32 1 -71z m-9925 -4246 l0 -2179 -1486 -1032 c-817
-568 -1488 -1030 -1491 -1028 -6 6 23 316 48 517 166 1321 579 2565 1229 3705
424 744 925 1406 1543 2041 82 85 151 154 153 154 2 0 4 -980 4 -2178z m8775
321 c-33 -87 -359 -626 -533 -883 -346 -510 -794 -1052 -1204 -1458 l-83 -82
-3135 2 -3134 3 1750 1217 1749 1216 2299 1 c2185 1 2298 0 2291 -16z m-2215
-2785 c-110 -101 -373 -313 -570 -462 -1374 -1033 -2954 -1679 -4670 -1910
-486 -66 -926 -91 -1450 -83 -727 11 -1331 83 -2050 243 -180 41 -599 150
-608 159 -2 2 74 57 170 124 95 66 772 537 1503 1045 l1330 925 3195 0 3195 0
-45 -41z"/>
</g>
</svg>
