<?xml version="1.0" standalone="no"?>
<!DOCTYPE svg PUBLIC "-//W3C//DTD SVG 20010904//EN"
 "http://www.w3.org/TR/2001/REC-SVG-20010904/DTD/svg10.dtd">
<svg version="1.0" xmlns="http://www.w3.org/2000/svg"
 width="643.000000pt" height="642.000000pt" viewBox="0 0 643.000000 642.000000"
 preserveAspectRatio="xMidYMid meet">
<metadata>
Created by potrace 1.16, written by Peter Selinger 2001-2019
</metadata>
<g transform="translate(0.000000,642.000000) scale(0.100000,-0.100000)"
fill="#000000" stroke="none">
<path d="M200 6411 c-71 -23 -140 -82 -176 -151 -26 -48 -26 -171 0 -220 10
-19 646 -664 1414 -1432 l1397 -1398 -1397 -1398 c-768 -768 -1404 -1413
-1414 -1432 -27 -52 -26 -172 3 -225 25 -47 84 -106 133 -131 49 -26 170 -26
225 0 28 13 474 452 1435 1412 l1395 1394 1390 -1391 c824 -824 1406 -1399
1430 -1412 54 -29 172 -30 230 -2 50 25 105 80 130 130 27 54 27 174 1 230
-13 28 -452 473 -1410 1433 l-1391 1392 1391 1393 c958 959 1397 1404 1410
1432 26 56 26 176 -1 230 -25 50 -80 105 -130 130 -58 28 -176 27 -230 -2 -24
-13 -606 -588 -1430 -1412 l-1390 -1391 -1395 1394 c-973 972 -1407 1398
-1434 1411 -44 20 -148 29 -186 16z"/>
</g>
</svg>
