<?xml version="1.0" standalone="no"?>
<!DOCTYPE svg PUBLIC "-//W3C//DTD SVG 20010904//EN"
 "http://www.w3.org/TR/2001/REC-SVG-20010904/DTD/svg10.dtd">
<svg version="1.0" xmlns="http://www.w3.org/2000/svg"
 width="554.000000pt" height="175.000000pt" viewBox="0 0 554.000000 175.000000"
 preserveAspectRatio="xMidYMid meet">
<metadata>
Created by potrace 1.16, written by Peter Selinger 2001-2019
</metadata>
<g transform="translate(0.000000,175.000000) scale(0.100000,-0.100000)"
fill="#000000" stroke="none">
<path d="M2470 1744 c-602 -42 -1066 -160 -1510 -385 -407 -205 -695 -463
-841 -751 -96 -191 -145 -437 -105 -533 28 -67 57 -75 262 -75 172 0 183 1
215 23 39 26 53 62 67 169 24 190 166 359 437 517 445 261 1063 401 1770 401
707 0 1325 -140 1770 -401 271 -158 413 -327 437 -517 14 -107 28 -143 67
-169 32 -22 43 -23 215 -23 164 0 184 2 214 20 61 38 76 123 48 280 -76 420
-401 784 -946 1059 -388 197 -796 312 -1290 366 -138 15 -681 28 -810 19z"/>
</g>
</svg>
