<?xml version="1.0" standalone="no"?>
<!DOCTYPE svg PUBLIC "-//W3C//DTD SVG 20010904//EN"
 "http://www.w3.org/TR/2001/REC-SVG-20010904/DTD/svg10.dtd">
<svg version="1.0" xmlns="http://www.w3.org/2000/svg"
 width="477.000000pt" height="588.000000pt" viewBox="0 0 477.000000 588.000000"
 preserveAspectRatio="xMidYMid meet">
<metadata>
Created by potrace 1.16, written by Peter Selinger 2001-2019
</metadata>
<g transform="translate(0.000000,588.000000) scale(0.100000,-0.100000)"
fill="#000000" stroke="none">
<path d="M1945 5873 c-466 -37 -802 -119 -1122 -273 -339 -163 -574 -378 -703
-645 -89 -183 -127 -365 -117 -560 7 -121 24 -198 67 -291 124 -273 385 -434
705 -434 370 0 655 213 751 561 28 101 26 329 -4 433 -39 134 -95 230 -191
327 -75 75 -99 93 -188 135 -56 27 -102 51 -103 54 0 3 39 22 88 42 488 206
1144 175 1578 -73 230 -132 440 -350 552 -574 139 -279 180 -661 102 -959 -92
-351 -363 -686 -840 -1038 -183 -135 -431 -295 -1470 -948 -536 -337 -986
-622 -998 -634 -53 -47 -52 -42 -52 -536 l0 -460 2189 0 2189 0 6 27 c3 16 87
566 186 1223 99 657 182 1210 185 1228 l6 32 -225 0 -225 0 -5 -32 c-105 -647
-146 -852 -201 -1028 -34 -107 -79 -195 -108 -214 -27 -18 -127 -32 -317 -47
-142 -11 -2641 -26 -2630 -16 17 16 1261 683 1380 739 79 38 309 142 510 230
837 368 1144 547 1415 823 270 275 405 603 405 980 -1 453 -165 863 -475 1184
-192 198 -336 301 -610 436 -342 169 -732 269 -1184 305 -123 9 -448 11 -546
3z"/>
</g>
</svg>
