<?xml version="1.0" standalone="no"?>
<!DOCTYPE svg PUBLIC "-//W3C//DTD SVG 20010904//EN"
 "http://www.w3.org/TR/2001/REC-SVG-20010904/DTD/svg10.dtd">
<svg version="1.0" xmlns="http://www.w3.org/2000/svg"
 width="1383.000000pt" height="1446.000000pt" viewBox="0 0 1383.000000 1446.000000"
 preserveAspectRatio="xMidYMid meet">
<metadata>
Created by potrace 1.16, written by Peter Selinger 2001-2019
</metadata>
<g transform="translate(0.000000,1446.000000) scale(0.100000,-0.100000)"
fill="#000000" stroke="none">
<path d="M6520 14449 c-2123 -132 -4042 -1248 -5269 -3062 -226 -335 -518
-878 -670 -1247 -776 -1878 -776 -3942 0 -5820 94 -229 331 -697 464 -919 370
-617 806 -1152 1320 -1620 1972 -1795 4740 -2276 7158 -1245 1347 575 2474
1567 3252 2865 133 222 370 690 464 919 776 1878 776 3942 0 5820 -152 369
-444 912 -670 1247 -1169 1729 -2963 2824 -4979 3037 -325 35 -756 45 -1070
25z m730 -559 c1041 -64 2022 -376 2900 -923 1194 -744 2102 -1847 2635 -3202
351 -891 517 -1927 465 -2885 -56 -1009 -295 -1918 -736 -2791 -410 -811 -976
-1522 -1674 -2101 -1107 -918 -2512 -1428 -3930 -1428 -1013 0 -2042 265
-2935 755 -1341 736 -2362 1909 -2940 3380 -351 891 -517 1927 -465 2885 75
1369 512 2624 1284 3690 688 950 1603 1685 2660 2137 861 368 1828 538 2736
483z"/>
<path d="M6735 10680 c-868 -70 -1667 -379 -2315 -896 -159 -127 -452 -417
-566 -559 -422 -530 -669 -1096 -760 -1745 -25 -177 -25 -633 0 -810 53 -380
156 -719 321 -1055 187 -381 383 -654 695 -966 326 -326 687 -582 1100 -777
786 -372 1741 -505 2493 -346 278 59 473 127 742 259 313 153 530 309 775 554
315 317 529 669 654 1082 88 291 134 702 88 788 -34 62 -64 71 -257 71 -146 0
-175 -3 -204 -18 -48 -26 -71 -73 -71 -148 0 -182 -42 -429 -106 -624 -280
-850 -1047 -1410 -1934 -1410 -590 0 -1187 165 -1620 448 -761 497 -1080 1249
-1080 2547 0 963 172 1611 553 2086 338 420 873 726 1477 844 393 76 764 84
1042 20 597 -136 1111 -627 1393 -1329 93 -232 148 -442 190 -718 36 -240 33
-238 327 -238 229 0 255 6 290 71 17 32 18 96 18 1404 0 1308 -1 1372 -18
1404 -29 53 -72 71 -172 71 -66 0 -92 -4 -115 -19 -16 -10 -191 -170 -389
-355 -197 -185 -360 -336 -362 -336 -2 0 -35 26 -73 58 -227 190 -533 368
-819 476 -156 59 -394 121 -564 147 -153 24 -548 34 -733 19z"/>
</g>
</svg>
