<?xml version="1.0" standalone="no"?>
<!DOCTYPE svg PUBLIC "-//W3C//DTD SVG 20010904//EN"
 "http://www.w3.org/TR/2001/REC-SVG-20010904/DTD/svg10.dtd">
<svg version="1.0" xmlns="http://www.w3.org/2000/svg"
 width="1327.000000pt" height="1388.000000pt" viewBox="0 0 1327.000000 1388.000000"
 preserveAspectRatio="xMidYMid meet">
<metadata>
Created by potrace 1.16, written by Peter Selinger 2001-2019
</metadata>
<g transform="translate(0.000000,1388.000000) scale(0.100000,-0.100000)"
fill="#000000" stroke="none">
<path d="M6320 13874 c-25 -2 -110 -9 -190 -14 -607 -45 -1256 -197 -1858
-436 -2093 -830 -3664 -2745 -4122 -5024 -173 -860 -197 -1663 -74 -2505 326
-2236 1664 -4154 3608 -5170 747 -391 1569 -628 2446 -707 191 -17 809 -17
1000 0 1253 113 2379 545 3378 1296 1329 1000 2268 2503 2602 4166 173 860
197 1663 74 2505 -326 2236 -1664 4154 -3608 5170 -742 388 -1563 626 -2431
706 -118 10 -737 20 -825 13z m785 -554 c763 -68 1436 -258 2120 -595 1467
-724 2603 -2040 3142 -3640 470 -1396 470 -2894 0 -4290 -539 -1600 -1675
-2916 -3142 -3640 -689 -340 -1351 -525 -2135 -597 -174 -16 -746 -16 -920 0
-784 72 -1446 257 -2135 597 -1162 573 -2126 1524 -2743 2705 -1001 1917
-1001 4243 0 6160 617 1181 1581 2132 2743 2705 690 340 1411 541 2135 595 80
5 165 12 190 14 84 7 624 -3 745 -14z"/>
</g>
</svg>
