<?xml version="1.0" standalone="no"?>
<!DOCTYPE svg PUBLIC "-//W3C//DTD SVG 20010904//EN"
 "http://www.w3.org/TR/2001/REC-SVG-20010904/DTD/svg10.dtd">
<svg version="1.0" xmlns="http://www.w3.org/2000/svg"
 width="1939.000000pt" height="1115.000000pt" viewBox="0 0 1939.000000 1115.000000"
 preserveAspectRatio="xMidYMid meet">
<metadata>
Created by potrace 1.16, written by Peter Selinger 2001-2019
</metadata>
<g transform="translate(0.000000,1115.000000) scale(0.100000,-0.100000)"
fill="#000000" stroke="none">
<path d="M1860 11139 c-401 -51 -810 -282 -1119 -630 -383 -432 -631 -1022
-718 -1704 -25 -198 -25 -692 0 -890 87 -682 335 -1272 718 -1704 279 -314
642 -534 1007 -611 141 -30 361 -37 482 -16 495 87 924 454 1225 1047 193 381
305 766 361 1244 25 213 25 757 0 970 -29 253 -98 581 -156 751 l-18 52 131
-63 c844 -403 1708 -532 2569 -385 260 45 608 147 832 246 55 24 101 42 103
40 2 -1 -1361 -2032 -3029 -4512 -1668 -2480 -3046 -4534 -3062 -4564 -27 -48
-31 -65 -31 -130 0 -61 5 -84 27 -125 87 -165 300 -206 432 -82 61 58 7184
10655 7203 10716 31 102 6 200 -71 276 -89 90 -210 109 -322 52 -56 -29 -81
-54 -149 -151 -453 -647 -1158 -1105 -1940 -1260 -797 -157 -1618 -44 -2360
327 -353 176 -644 384 -991 708 -233 217 -479 347 -748 394 -94 16 -268 18
-376 4z m370 -523 c78 -22 204 -86 280 -144 102 -77 233 -222 321 -355 231
-350 372 -772 436 -1302 12 -103 16 -223 16 -455 0 -339 -10 -466 -59 -740
-123 -680 -468 -1268 -859 -1461 -101 -50 -167 -68 -280 -75 -367 -24 -707
280 -875 782 -110 332 -150 726 -150 1494 0 768 40 1162 150 1494 138 413 402
703 701 771 77 18 237 13 319 -9z"/>
<path d="M8000 5569 c-401 -51 -810 -282 -1119 -630 -383 -432 -631 -1022
-718 -1704 -25 -198 -25 -692 0 -890 87 -682 335 -1272 718 -1704 279 -314
642 -534 1007 -611 141 -30 361 -37 482 -16 495 87 924 454 1225 1047 193 381
305 766 361 1244 25 213 25 757 0 970 -56 478 -168 863 -361 1244 -343 676
-865 1066 -1419 1060 -61 -1 -140 -5 -176 -10z m370 -523 c78 -22 204 -86 280
-144 102 -77 233 -222 321 -355 231 -350 372 -772 436 -1302 12 -103 16 -223
16 -455 0 -339 -10 -466 -59 -740 -123 -680 -468 -1268 -859 -1461 -101 -50
-167 -68 -280 -75 -367 -24 -707 280 -875 782 -110 332 -150 726 -150 1494 0
768 40 1162 150 1494 138 413 402 703 701 771 77 18 237 13 319 -9z"/>
<path d="M12700 5569 c-320 -41 -661 -203 -933 -444 -416 -368 -721 -934 -852
-1580 -58 -288 -69 -412 -69 -755 0 -343 11 -467 69 -755 194 -957 755 -1699
1474 -1949 150 -52 275 -76 441 -82 171 -7 277 8 440 62 408 137 766 484 1025
995 193 381 305 766 361 1244 25 213 25 757 0 970 -56 478 -168 863 -361 1244
-343 676 -865 1066 -1419 1060 -61 -1 -140 -5 -176 -10z m370 -523 c78 -22
204 -86 280 -144 102 -77 233 -222 321 -355 231 -350 372 -772 436 -1302 12
-103 16 -223 16 -455 0 -339 -10 -466 -59 -740 -123 -680 -468 -1268 -859
-1461 -101 -50 -167 -68 -280 -75 -367 -24 -707 280 -875 782 -110 332 -150
726 -150 1494 0 768 40 1162 150 1494 138 413 402 703 701 771 77 18 237 13
319 -9z"/>
<path d="M17400 5569 c-320 -41 -661 -203 -933 -444 -416 -368 -721 -934 -852
-1580 -58 -288 -69 -412 -69 -755 0 -343 11 -467 69 -755 194 -957 755 -1699
1474 -1949 150 -52 275 -76 441 -82 171 -7 277 8 440 62 408 137 766 484 1025
995 193 381 305 766 361 1244 25 213 25 757 0 970 -56 478 -168 863 -361 1244
-343 676 -865 1066 -1419 1060 -61 -1 -140 -5 -176 -10z m370 -523 c78 -22
204 -86 280 -144 102 -77 233 -222 321 -355 231 -350 372 -772 436 -1302 12
-103 16 -223 16 -455 0 -339 -10 -466 -59 -740 -123 -680 -468 -1268 -859
-1461 -101 -50 -167 -68 -280 -75 -367 -24 -707 280 -875 782 -110 332 -150
726 -150 1494 0 768 40 1162 150 1494 138 413 402 703 701 771 77 18 237 13
319 -9z"/>
</g>
</svg>
