<?xml version="1.0" standalone="no"?>
<!DOCTYPE svg PUBLIC "-//W3C//DTD SVG 20010904//EN"
 "http://www.w3.org/TR/2001/REC-SVG-20010904/DTD/svg10.dtd">
<svg version="1.0" xmlns="http://www.w3.org/2000/svg"
 width="730.000000pt" height="1230.000000pt" viewBox="0 0 730.000000 1230.000000"
 preserveAspectRatio="xMidYMid meet">
<metadata>
Created by potrace 1.16, written by Peter Selinger 2001-2019
</metadata>
<g transform="translate(0.000000,1230.000000) scale(0.100000,-0.100000)"
fill="#000000" stroke="none">
<path d="M3157 12289 c-1362 -112 -2524 -951 -2967 -2143 -64 -171 -132 -436
-161 -627 -31 -198 -33 -631 -5 -814 90 -581 347 -1095 764 -1527 286 -296
620 -536 1042 -746 531 -266 1091 -431 1730 -512 195 -24 368 -40 443 -40 l57
0 0 -2660 0 -2659 -472 -3 -473 -3 -45 -24 c-62 -32 -97 -67 -128 -126 -22
-41 -26 -63 -26 -125 0 -116 49 -196 154 -251 l45 -24 1970 -3 c2235 -3 2028
-11 2121 83 112 112 112 278 1 390 -87 86 -79 85 -609 85 l-458 0 0 5590 0
5590 458 0 c530 0 522 -1 609 85 111 112 111 278 0 390 -94 93 105 85 -2051
84 -1046 -1 -1945 -5 -1999 -10z m2423 -6139 l0 -5590 -480 0 -480 0 0 5590 0
5590 480 0 480 0 0 -5590z"/>
</g>
</svg>
