<?xml version="1.0" standalone="no"?>
<!DOCTYPE svg PUBLIC "-//W3C//DTD SVG 20010904//EN"
 "http://www.w3.org/TR/2001/REC-SVG-20010904/DTD/svg10.dtd">
<svg version="1.0" xmlns="http://www.w3.org/2000/svg"
 width="768.000000pt" height="998.000000pt" viewBox="0 0 768.000000 998.000000"
 preserveAspectRatio="xMidYMid meet">
<metadata>
Created by potrace 1.16, written by Peter Selinger 2001-2019
</metadata>
<g transform="translate(0.000000,998.000000) scale(0.100000,-0.100000)"
fill="#000000" stroke="none">
<path d="M4790 9973 c-99 -8 -292 -44 -410 -77 -408 -112 -786 -338 -1090
-652 -343 -355 -571 -783 -684 -1287 -61 -271 -59 -232 -63 -1349 l-4 -1028
-527 0 c-490 0 -530 -2 -567 -19 -79 -36 -121 -112 -113 -207 7 -81 73 -156
154 -174 21 -5 267 -10 547 -10 l507 0 0 -840 0 -840 -527 0 c-491 0 -531 -2
-568 -19 -79 -36 -121 -112 -113 -207 7 -81 73 -156 154 -174 21 -5 268 -10
548 -10 l509 0 -7 -492 c-6 -455 -13 -628 -26 -642 -3 -3 -53 8 -111 23 -700
188 -1378 108 -1869 -220 -175 -117 -318 -272 -406 -442 -187 -361 -163 -717
65 -959 89 -95 158 -143 295 -209 180 -85 360 -127 597 -136 692 -28 1433 301
1885 838 l66 78 481 -240 c510 -256 690 -340 907 -424 415 -162 764 -240 1125
-252 275 -9 473 19 723 102 799 266 1361 1018 1398 1870 5 116 4 134 -13 164
-33 58 -70 71 -206 71 -193 0 -216 -20 -229 -200 -11 -151 -32 -262 -73 -387
-154 -461 -539 -808 -1003 -902 -300 -61 -714 -18 -1139 120 -301 97 -501 186
-1109 491 l-481 241 39 111 c22 61 55 174 73 251 61 252 67 311 72 747 l5 397
722 3 c793 3 747 0 807 65 47 50 62 90 57 155 -5 74 -44 133 -108 166 l-44 22
-718 0 -718 0 0 840 0 839 723 3 c794 3 748 0 808 65 47 50 62 90 57 155 -5
74 -44 133 -108 166 l-44 22 -718 0 -718 0 0 1008 c0 995 6 1226 36 1472 73
611 301 1041 686 1300 307 206 650 259 1059 161 603 -143 1112 -666 1338
-1374 17 -53 31 -101 31 -105 0 -4 -53 -5 -119 -3 -97 2 -133 -1 -202 -19
-327 -84 -524 -356 -506 -699 13 -257 143 -464 358 -570 119 -58 193 -75 324
-75 131 0 205 17 324 75 154 76 270 211 329 384 26 78 27 86 26 290 -1 240
-21 398 -78 630 -100 402 -289 792 -533 1095 -370 461 -911 762 -1473 820 -90
9 -312 11 -410 3z m-3025 -8622 c165 -25 281 -50 439 -97 l125 -37 -13 -31
c-7 -17 -34 -67 -60 -110 -138 -232 -342 -424 -574 -541 -225 -112 -526 -153
-727 -99 -183 49 -322 178 -345 320 -42 258 180 509 523 589 168 39 393 41
632 6z"/>
</g>
</svg>
