<?xml version="1.0" standalone="no"?>
<!DOCTYPE svg PUBLIC "-//W3C//DTD SVG 20010904//EN"
 "http://www.w3.org/TR/2001/REC-SVG-20010904/DTD/svg10.dtd">
<svg version="1.0" xmlns="http://www.w3.org/2000/svg"
 width="288.000000pt" height="1336.000000pt" viewBox="0 0 288.000000 1336.000000"
 preserveAspectRatio="xMidYMid meet">
<metadata>
Created by potrace 1.16, written by Peter Selinger 2001-2019
</metadata>
<g transform="translate(0.000000,1336.000000) scale(0.100000,-0.100000)"
fill="#000000" stroke="none">
<path d="M2460 13353 c-296 -20 -483 -45 -712 -93 -883 -186 -1479 -611 -1672
-1191 -77 -230 -71 -62 -71 -2079 l0 -1805 23 -102 c63 -284 186 -514 390
-725 260 -269 616 -472 1051 -600 61 -18 111 -35 111 -38 0 -3 -50 -20 -111
-38 -704 -207 -1205 -617 -1388 -1135 -17 -48 -41 -132 -53 -185 l-22 -97 -4
-1760 c-2 -1171 0 -1790 7 -1850 64 -553 421 -1006 1026 -1299 438 -213 972
-335 1545 -352 186 -5 196 -5 228 15 43 28 62 75 62 153 0 130 -46 168 -203
168 -490 0 -965 187 -1281 504 -61 61 -131 139 -156 173 -116 161 -201 348
-242 533 l-23 105 0 1785 c0 1675 1 1790 18 1873 104 512 516 939 1089 1131
179 60 455 106 630 106 114 0 158 48 158 170 0 122 -44 170 -158 170 -97 0
-269 20 -400 46 -463 92 -887 361 -1117 709 -96 145 -158 289 -198 460 -21 90
-21 99 -24 1835 -3 1555 -2 1757 12 1855 40 271 160 501 375 715 165 166 342
280 570 371 215 85 425 126 692 136 189 7 218 16 244 78 20 48 18 152 -4 195
-29 58 -66 70 -217 68 -71 -1 -150 -3 -175 -5z"/>
</g>
</svg>
