<?xml version="1.0" standalone="no"?>
<!DOCTYPE svg PUBLIC "-//W3C//DTD SVG 20010904//EN"
 "http://www.w3.org/TR/2001/REC-SVG-20010904/DTD/svg10.dtd">
<svg version="1.0" xmlns="http://www.w3.org/2000/svg"
 width="1230.000000pt" height="1007.000000pt" viewBox="0 0 1230.000000 1007.000000"
 preserveAspectRatio="xMidYMid meet">
<metadata>
Created by potrace 1.16, written by Peter Selinger 2001-2019
</metadata>
<g transform="translate(0.000000,1007.000000) scale(0.100000,-0.100000)"
fill="#000000" stroke="none">
<path d="M8356 10060 c-1561 -121 -2960 -994 -3778 -2357 -400 -665 -641
-1407 -720 -2208 -17 -171 -17 -749 0 -920 110 -1121 540 -2127 1259 -2945
927 -1054 2299 -1664 3658 -1627 299 8 499 35 770 103 1510 380 2611 1707
2735 3298 30 381 11 416 -215 416 -202 0 -218 -18 -228 -257 -36 -859 -365
-1632 -942 -2208 -568 -568 -1302 -861 -2085 -832 -804 30 -1528 313 -2131
834 -607 525 -1003 1254 -1188 2189 -134 676 -168 1623 -85 2404 142 1350 622
2297 1489 2941 399 296 897 512 1380 599 969 175 1727 -48 2375 -699 592 -594
974 -1445 1104 -2457 15 -120 29 -189 40 -206 32 -49 69 -58 238 -58 174 0
207 10 240 71 17 32 18 113 18 1929 0 1816 -1 1897 -18 1929 -27 50 -73 71
-157 71 -50 0 -78 -5 -100 -19 -19 -11 -181 -227 -430 -571 -220 -304 -403
-558 -407 -563 -4 -6 -54 39 -117 104 -190 200 -369 349 -606 507 -411 274
-869 449 -1360 517 -130 19 -578 28 -739 15z"/>
<path d="M1350 9750 c-265 -37 -523 -143 -732 -300 -304 -230 -503 -544 -590
-932 -20 -88 -23 -131 -23 -293 0 -162 3 -205 23 -293 140 -626 595 -1080
1216 -1214 146 -32 436 -32 582 0 621 134 1076 588 1216 1214 20 88 23 131 23
293 0 162 -3 205 -23 293 -140 624 -598 1083 -1210 1212 -111 24 -376 35 -482
20z m412 -579 c358 -94 621 -356 720 -719 30 -110 30 -344 0 -454 -117 -429
-471 -722 -902 -745 -428 -23 -831 257 -969 671 -184 556 173 1150 758 1261
103 20 291 13 393 -14z"/>
</g>
</svg>
