<?xml version="1.0" standalone="no"?>
<!DOCTYPE svg PUBLIC "-//W3C//DTD SVG 20010904//EN"
 "http://www.w3.org/TR/2001/REC-SVG-20010904/DTD/svg10.dtd">
<svg version="1.0" xmlns="http://www.w3.org/2000/svg"
 width="562.000000pt" height="627.000000pt" viewBox="0 0 562.000000 627.000000"
 preserveAspectRatio="xMidYMid meet">
<metadata>
Created by potrace 1.16, written by Peter Selinger 2001-2019
</metadata>
<g transform="translate(0.000000,627.000000) scale(0.100000,-0.100000)"
fill="#000000" stroke="none">
<path d="M2335 6259 c-329 -25 -715 -109 -985 -214 -232 -90 -481 -230 -642
-362 -160 -130 -318 -325 -405 -496 -54 -108 -110 -289 -129 -417 -48 -332 33
-559 250 -701 96 -63 200 -92 331 -92 92 0 123 4 191 26 185 61 321 199 380
385 25 78 29 227 10 315 -47 208 -178 355 -383 427 l-75 27 51 58 c331 378
960 581 1626 525 617 -53 1100 -270 1394 -626 203 -245 301 -521 301 -849 0
-421 -178 -793 -563 -1176 -229 -229 -469 -413 -1132 -870 -1316 -906 -2483
-1714 -2503 -1733 -49 -44 -52 -62 -52 -281 l0 -205 2614 0 2614 0 5 22 c3 13
87 453 187 978 100 525 184 965 187 977 l5 23 -226 0 c-124 0 -226 -2 -226 -4
0 -43 -88 -409 -126 -521 -44 -134 -146 -316 -184 -330 -74 -29 -1020 -47
-2276 -43 l-982 3 726 430 c399 237 769 454 821 484 53 29 339 174 636 321
559 278 768 391 972 528 379 254 628 532 756 842 164 397 138 906 -67 1320
-139 281 -341 505 -626 695 -459 307 -1069 488 -1805 535 -184 12 -509 11
-670 -1z"/>
</g>
</svg>
