<?xml version="1.0" standalone="no"?>
<!DOCTYPE svg PUBLIC "-//W3C//DTD SVG 20010904//EN"
 "http://www.w3.org/TR/2001/REC-SVG-20010904/DTD/svg10.dtd">
<svg version="1.0" xmlns="http://www.w3.org/2000/svg"
 width="458.000000pt" height="565.000000pt" viewBox="0 0 458.000000 565.000000"
 preserveAspectRatio="xMidYMid meet">
<metadata>
Created by potrace 1.16, written by Peter Selinger 2001-2019
</metadata>
<g transform="translate(0.000000,565.000000) scale(0.100000,-0.100000)"
fill="#000000" stroke="none">
<path d="M1860 5644 c-536 -47 -957 -176 -1283 -394 -384 -256 -594 -639 -574
-1044 14 -289 149 -499 392 -611 109 -50 194 -69 320 -69 334 0 598 192 687
499 30 105 32 315 5 414 -39 139 -118 265 -220 349 -59 49 -213 127 -270 138
-20 3 -39 10 -42 14 -2 4 44 32 103 63 408 211 977 256 1409 112 475 -160 811
-537 904 -1017 59 -306 25 -580 -106 -843 -143 -288 -403 -561 -813 -855 -190
-136 -344 -236 -1432 -929 -774 -493 -908 -581 -922 -611 -16 -32 -18 -75 -18
-447 l0 -413 2099 0 2099 0 6 28 c3 15 84 531 181 1147 97 616 178 1132 181
1148 l6 27 -186 0 -185 0 -6 -32 c-3 -18 -19 -116 -36 -218 -86 -527 -169
-848 -244 -946 -19 -25 -36 -35 -77 -43 -182 -36 -859 -53 -2007 -49 l-894 3
607 333 c627 345 850 458 1286 653 314 140 707 335 858 426 230 138 454 322
578 477 141 174 232 366 281 588 27 127 25 446 -6 587 -82 385 -253 677 -539
921 -364 312 -846 503 -1447 576 -123 15 -592 27 -695 18z"/>
</g>
</svg>
