<?xml version="1.0" standalone="no"?>
<!DOCTYPE svg PUBLIC "-//W3C//DTD SVG 20010904//EN"
 "http://www.w3.org/TR/2001/REC-SVG-20010904/DTD/svg10.dtd">
<svg version="1.0" xmlns="http://www.w3.org/2000/svg"
 width="554.000000pt" height="639.000000pt" viewBox="0 0 554.000000 639.000000"
 preserveAspectRatio="xMidYMid meet">
<metadata>
Created by potrace 1.16, written by Peter Selinger 2001-2019
</metadata>
<g transform="translate(0.000000,639.000000) scale(0.100000,-0.100000)"
fill="#000000" stroke="none">
<path d="M1990 6384 c-404 -51 -770 -245 -1047 -554 -218 -244 -388 -574 -473
-922 -51 -207 -64 -316 -64 -523 -1 -180 1 -194 26 -270 39 -113 91 -196 175
-276 125 -119 292 -182 478 -182 308 0 558 175 652 458 24 72 27 95 27 225 0
133 -2 151 -28 225 -54 156 -135 262 -265 347 -112 73 -207 101 -368 106 -73
2 -133 8 -133 12 0 17 72 178 113 252 134 246 342 460 552 570 193 100 448
148 621 117 393 -71 764 -710 868 -1494 28 -214 36 -392 36 -867 l0 -467 -32
-5 c-18 -3 -123 -7 -233 -11 -1030 -28 -1984 -245 -2468 -561 -117 -76 -263
-218 -316 -307 -181 -306 -137 -691 110 -961 291 -317 895 -494 1619 -473 315
9 538 46 799 133 246 81 431 186 578 327 54 52 84 75 87 66 3 -8 10 -34 16
-59 38 -151 152 -305 268 -362 l66 -33 225 -3 c255 -4 596 11 781 33 432 54
698 183 808 392 54 102 62 163 62 481 l0 282 -225 0 -224 0 -3 -276 -3 -276
-32 -28 c-62 -55 -120 -65 -393 -65 -273 0 -331 10 -393 65 l-32 28 -6 1344
c-5 1321 -5 1345 -27 1478 -82 509 -262 930 -549 1285 -306 380 -719 636
-1169 725 -106 21 -392 35 -484 24z m1170 -4046 c0 -321 -4 -428 -15 -481 -74
-352 -511 -599 -1100 -623 -276 -12 -489 52 -664 199 -197 165 -264 432 -161
636 189 376 889 624 1908 679 l32 2 0 -412z"/>
<path d="M177 400 c-82 -25 -137 -104 -137 -197 0 -72 28 -125 88 -168 l44
-30 2351 -3 c2631 -3 2404 -9 2471 70 88 102 53 264 -68 319 -40 18 -125 19
-2381 18 -1287 0 -2353 -5 -2368 -9z"/>
</g>
</svg>
