<?xml version="1.0" standalone="no"?>
<!DOCTYPE svg PUBLIC "-//W3C//DTD SVG 20010904//EN"
 "http://www.w3.org/TR/2001/REC-SVG-20010904/DTD/svg10.dtd">
<svg version="1.0" xmlns="http://www.w3.org/2000/svg"
 width="1383.000000pt" height="1446.000000pt" viewBox="0 0 1383.000000 1446.000000"
 preserveAspectRatio="xMidYMid meet">
<metadata>
Created by potrace 1.16, written by Peter Selinger 2001-2019
</metadata>
<g transform="translate(0.000000,1446.000000) scale(0.100000,-0.100000)"
fill="#000000" stroke="none">
<path d="M6520 14449 c-2123 -132 -4042 -1248 -5269 -3062 -226 -335 -518
-878 -670 -1247 -776 -1878 -776 -3942 0 -5820 94 -229 331 -697 464 -919 370
-617 806 -1152 1320 -1620 1972 -1795 4740 -2276 7158 -1245 1347 575 2474
1567 3252 2865 133 222 370 690 464 919 776 1878 776 3942 0 5820 -152 369
-444 912 -670 1247 -1169 1729 -2963 2824 -4979 3037 -325 35 -756 45 -1070
25z m730 -559 c1041 -64 2022 -376 2900 -923 1194 -744 2102 -1847 2635 -3202
351 -891 517 -1927 465 -2885 -56 -1009 -295 -1918 -736 -2791 -410 -811 -976
-1522 -1674 -2101 -1107 -918 -2512 -1428 -3930 -1428 -1013 0 -2042 265
-2935 755 -1341 736 -2362 1909 -2940 3380 -351 891 -517 1927 -465 2885 75
1369 512 2624 1284 3690 688 950 1603 1685 2660 2137 861 368 1828 538 2736
483z"/>
<path d="M2540 10122 l0 -259 373 -6 c385 -7 544 -16 707 -43 150 -25 215 -60
274 -147 71 -106 66 106 66 -2592 0 -2698 5 -2486 -66 -2592 -59 -87 -124
-122 -274 -147 -163 -27 -322 -36 -707 -43 l-373 -6 0 -260 0 -260 128 7 c817
41 3057 41 3875 0 l127 -7 0 260 0 260 -372 6 c-386 7 -545 16 -708 43 -150
25 -215 60 -274 147 -69 103 -66 39 -66 1274 l0 1114 733 -4 c710 -3 735 -4
829 -25 276 -63 499 -182 670 -360 128 -133 201 -262 251 -442 20 -71 21 -109
27 -680 7 -570 8 -611 29 -702 137 -618 613 -986 1461 -1132 305 -52 861 -83
1040 -57 422 61 765 380 933 867 95 274 137 646 81 721 -46 62 -65 68 -199 68
-109 0 -127 -2 -151 -21 -59 -43 -67 -65 -76 -196 -4 -68 -12 -154 -18 -193
-63 -415 -263 -723 -530 -816 -53 -19 -87 -23 -185 -23 -70 -1 -143 5 -175 13
-204 50 -366 202 -485 453 -96 204 -139 358 -305 1091 -117 521 -136 589 -206
737 -75 159 -163 281 -303 420 -177 175 -349 292 -594 400 -53 24 -94 47 -90
50 5 4 53 19 108 35 396 110 845 322 1123 532 294 222 469 456 544 730 18 65
21 105 21 238 0 201 -23 301 -113 480 -165 331 -484 618 -954 855 -480 243
-955 374 -1626 447 -140 15 -370 17 -2352 20 l-2198 4 0 -259z m4450 -286
c380 -43 682 -143 908 -299 181 -124 292 -320 344 -606 29 -160 32 -545 4
-696 -35 -193 -98 -349 -190 -472 -139 -185 -473 -349 -863 -423 -253 -48
-333 -52 -1160 -57 l-783 -5 0 1140 c0 724 4 1159 10 1193 23 120 82 185 195
214 115 29 241 33 815 30 453 -2 606 -6 720 -19z"/>
</g>
</svg>
