<?xml version="1.0" standalone="no"?>
<!DOCTYPE svg PUBLIC "-//W3C//DTD SVG 20010904//EN"
 "http://www.w3.org/TR/2001/REC-SVG-20010904/DTD/svg10.dtd">
<svg version="1.0" xmlns="http://www.w3.org/2000/svg"
 width="544.000000pt" height="175.000000pt" viewBox="0 0 544.000000 175.000000"
 preserveAspectRatio="xMidYMid meet">
<metadata>
Created by potrace 1.16, written by Peter Selinger 2001-2019
</metadata>
<g transform="translate(0.000000,175.000000) scale(0.100000,-0.100000)"
fill="#000000" stroke="none">
<path d="M2370 1739 c-638 -45 -1221 -226 -1665 -517 -396 -259 -629 -570
-690 -921 -29 -162 -15 -243 47 -281 29 -17 50 -20 164 -20 120 0 134 2 165
23 39 26 53 63 68 184 55 443 765 854 1671 967 700 88 1449 12 1988 -200 509
-201 817 -477 853 -767 15 -121 29 -158 68 -184 31 -21 45 -23 165 -23 114 0
135 3 164 20 62 38 76 119 47 281 -49 281 -215 547 -480 768 -395 329 -991
566 -1625 645 -278 35 -659 45 -940 25z"/>
</g>
</svg>
