<?xml version="1.0" standalone="no"?>
<!DOCTYPE svg PUBLIC "-//W3C//DTD SVG 20010904//EN"
 "http://www.w3.org/TR/2001/REC-SVG-20010904/DTD/svg10.dtd">
<svg version="1.0" xmlns="http://www.w3.org/2000/svg"
 width="824.000000pt" height="581.000000pt" viewBox="0 0 824.000000 581.000000"
 preserveAspectRatio="xMidYMid meet">
<metadata>
Created by potrace 1.16, written by Peter Selinger 2001-2019
</metadata>
<g transform="translate(0.000000,581.000000) scale(0.100000,-0.100000)"
fill="#000000" stroke="none">
<path d="M4800 5801 c-73 -22 -137 -76 -170 -142 -20 -38 -20 -76 -20 -2754 0
-2678 0 -2716 20 -2754 25 -50 71 -96 124 -124 59 -31 193 -31 252 0 53 28 99
74 127 127 l22 41 5 1997 5 1997 498 -1172 c274 -645 508 -1190 520 -1212 28
-49 95 -101 150 -116 23 -6 73 -9 113 -7 81 4 146 37 194 98 16 19 252 566
531 1230 l504 1195 5 -2015 c5 -1882 6 -2017 22 -2046 24 -44 73 -91 122 -117
59 -31 193 -31 252 0 53 28 99 74 127 127 l22 41 0 2710 0 2710 -22 41 c-48
90 -129 144 -228 151 -100 8 -194 -31 -248 -104 -13 -17 -311 -714 -663 -1547
-351 -834 -642 -1516 -645 -1516 -3 0 -295 682 -649 1516 -354 833 -654 1530
-667 1547 -29 39 -94 84 -142 97 -41 11 -124 12 -161 1z"/>
<path d="M1095 5493 c-395 -26 -694 -154 -866 -371 -104 -130 -165 -280 -206
-502 -25 -138 -25 -692 0 -830 27 -148 54 -237 102 -337 118 -242 326 -403
625 -482 191 -51 236 -53 1070 -61 467 -5 814 -12 857 -19 408 -60 563 -205
620 -578 24 -155 24 -741 0 -896 -62 -404 -245 -550 -737 -587 -79 -6 -592
-10 -1230 -10 -714 0 -1108 -4 -1132 -10 -109 -31 -193 -136 -193 -245 0 -110
84 -215 196 -245 28 -8 412 -10 1242 -7 1291 4 1276 3 1503 57 330 77 553 221
710 456 99 148 162 334 196 574 18 131 18 799 0 930 -82 583 -363 903 -906
1030 -207 49 -257 52 -1091 60 -633 7 -806 11 -870 23 -244 46 -345 128 -395
322 -50 191 -50 690 0 880 50 194 149 275 395 322 68 14 254 17 1260 22 l1180
6 47 23 c58 29 120 97 136 150 29 96 8 177 -64 249 -88 89 1 83 -1278 81 -617
-1 -1143 -3 -1171 -5z"/>
</g>
</svg>
