<?xml version="1.0" standalone="no"?>
<!DOCTYPE svg PUBLIC "-//W3C//DTD SVG 20010904//EN"
 "http://www.w3.org/TR/2001/REC-SVG-20010904/DTD/svg10.dtd">
<svg version="1.0" xmlns="http://www.w3.org/2000/svg"
 width="873.000000pt" height="581.000000pt" viewBox="0 0 873.000000 581.000000"
 preserveAspectRatio="xMidYMid meet">
<metadata>
Created by potrace 1.16, written by Peter Selinger 2001-2019
</metadata>
<g transform="translate(0.000000,581.000000) scale(0.100000,-0.100000)"
fill="#000000" stroke="none">
<path d="M5290 5801 c-73 -22 -137 -76 -170 -142 -20 -38 -20 -76 -20 -2754 0
-2678 0 -2716 20 -2754 25 -50 71 -96 124 -124 59 -31 193 -31 252 0 53 28 99
74 127 127 l22 41 5 1997 5 1997 498 -1172 c274 -645 508 -1190 520 -1212 28
-49 95 -101 150 -116 23 -6 73 -9 113 -7 81 4 146 37 194 98 16 19 252 566
531 1230 l504 1195 5 -2015 c5 -1882 6 -2017 22 -2046 24 -44 73 -91 122 -117
59 -31 193 -31 252 0 53 28 99 74 127 127 l22 41 0 2710 0 2710 -22 41 c-48
90 -129 144 -228 151 -100 8 -194 -31 -248 -104 -13 -17 -311 -714 -663 -1547
-351 -834 -642 -1516 -645 -1516 -3 0 -295 682 -649 1516 -354 833 -654 1530
-667 1547 -29 39 -94 84 -142 97 -41 11 -124 12 -161 1z"/>
<path d="M178 5483 c-59 -20 -122 -72 -151 -127 -16 -31 -21 -58 -21 -111 0
-84 23 -135 84 -187 82 -71 41 -68 1041 -68 l899 0 0 -2386 c0 -1845 3 -2396
12 -2428 19 -64 101 -141 173 -162 152 -44 309 33 351 173 12 39 14 420 14
2424 l0 2379 918 2 917 3 41 22 c197 105 197 351 0 456 l-41 22 -2095 2
c-1888 2 -2100 0 -2142 -14z"/>
</g>
</svg>
