<?xml version="1.0" standalone="no"?>
<!DOCTYPE svg PUBLIC "-//W3C//DTD SVG 20010904//EN"
 "http://www.w3.org/TR/2001/REC-SVG-20010904/DTD/svg10.dtd">
<svg version="1.0" xmlns="http://www.w3.org/2000/svg"
 width="399.000000pt" height="229.000000pt" viewBox="0 0 399.000000 229.000000"
 preserveAspectRatio="xMidYMid meet">
<metadata>
Created by potrace 1.16, written by Peter Selinger 2001-2019
</metadata>
<g transform="translate(0.000000,229.000000) scale(0.100000,-0.100000)"
fill="#000000" stroke="none">
<path d="M150 2114 l-153 -176 94 -93 c347 -343 1891 -1835 1899 -1835 8 0
1552 1492 1899 1835 l94 93 -153 176 c-146 170 -153 177 -174 163 -12 -8 -388
-281 -836 -608 -448 -326 -822 -593 -830 -593 -8 0 -382 267 -830 593 -448
327 -824 600 -836 608 -21 14 -28 7 -174 -163z"/>
</g>
</svg>
