<?xml version="1.0" standalone="no"?>
<!DOCTYPE svg PUBLIC "-//W3C//DTD SVG 20010904//EN"
 "http://www.w3.org/TR/2001/REC-SVG-20010904/DTD/svg10.dtd">
<svg version="1.0" xmlns="http://www.w3.org/2000/svg"
 width="608.000000pt" height="884.000000pt" viewBox="0 0 608.000000 884.000000"
 preserveAspectRatio="xMidYMid meet">
<metadata>
Created by potrace 1.16, written by Peter Selinger 2001-2019
</metadata>
<g transform="translate(0.000000,884.000000) scale(0.100000,-0.100000)"
fill="#000000" stroke="none">
<path d="M4836 8201 l-350 -637 -90 13 c-237 33 -496 46 -891 47 -423 1 -499
-4 -755 -50 -1080 -195 -1989 -875 -2445 -1826 -306 -640 -384 -1350 -221
-2013 171 -695 584 -1310 1176 -1751 l117 -88 -23 -40 c-226 -409 -904 -1650
-904 -1655 0 -5 353 -202 356 -198 1 1 207 378 459 837 252 459 459 838 461
841 2 3 49 -16 104 -43 510 -244 1072 -361 1655 -345 384 11 652 57 990 168
187 62 467 198 630 307 436 290 752 703 931 1215 39 113 41 139 16 186 -31 58
-69 71 -205 71 -128 0 -173 -12 -200 -53 -7 -12 -29 -67 -47 -122 -46 -135
-176 -391 -253 -497 -99 -138 -211 -262 -315 -349 -308 -257 -641 -399 -1082
-460 -142 -20 -507 -17 -650 4 -332 51 -633 158 -900 321 -102 63 -261 179
-297 218 l-23 24 1305 2379 c718 1308 1307 2380 1310 2383 8 9 245 -56 245
-67 0 -3 -29 -21 -64 -39 -220 -114 -348 -358 -333 -636 16 -304 200 -535 492
-617 112 -32 268 -32 380 0 294 83 477 314 492 622 26 502 -283 890 -859 1080
-73 24 -135 45 -137 46 -2 1 138 260 310 574 173 315 315 577 317 583 1 6 -37
32 -85 58 -49 26 -129 70 -178 97 l-90 49 -349 -637z m-858 -1032 c135 -6 253
-14 262 -17 14 -6 -200 -401 -1219 -2259 -680 -1238 -1239 -2249 -1244 -2246
-15 9 -144 209 -192 297 -255 469 -371 1110 -325 1801 43 642 185 1126 445
1515 337 505 860 835 1433 904 146 17 513 20 840 5z"/>
</g>
</svg>
