<?xml version="1.0" standalone="no"?>
<!DOCTYPE svg PUBLIC "-//W3C//DTD SVG 20010904//EN"
 "http://www.w3.org/TR/2001/REC-SVG-20010904/DTD/svg10.dtd">
<svg version="1.0" xmlns="http://www.w3.org/2000/svg"
 width="1229.000000pt" height="692.000000pt" viewBox="0 0 1229.000000 692.000000"
 preserveAspectRatio="xMidYMid meet">
<metadata>
Created by potrace 1.16, written by Peter Selinger 2001-2019
</metadata>
<g transform="translate(0.000000,692.000000) scale(0.100000,-0.100000)"
fill="#000000" stroke="none">
<path d="M2784 6883 c-90 -522 -319 -1111 -619 -1594 -476 -767 -1215 -1413
-2019 -1765 -75 -32 -135 -61 -135 -64 0 -3 60 -32 135 -64 983 -430 1844
-1283 2292 -2271 160 -351 289 -759 346 -1088 l7 -37 280 0 280 0 -7 38 c-21
121 -83 382 -129 537 -212 719 -579 1391 -1076 1970 -127 147 -399 419 -541
540 l-106 90 5297 5 5296 5 55 30 c95 52 147 153 137 270 -7 99 -58 179 -140
223 l-52 27 -5296 5 -5297 5 106 90 c142 121 414 393 541 540 497 579 864
1251 1076 1970 46 155 108 416 129 538 l7 37 -280 0 -280 0 -7 -37z"/>
</g>
</svg>
