<?xml version="1.0" standalone="no"?>
<!DOCTYPE svg PUBLIC "-//W3C//DTD SVG 20010904//EN"
 "http://www.w3.org/TR/2001/REC-SVG-20010904/DTD/svg10.dtd">
<svg version="1.0" xmlns="http://www.w3.org/2000/svg"
 width="694.000000pt" height="1162.000000pt" viewBox="0 0 694.000000 1162.000000"
 preserveAspectRatio="xMidYMid meet">
<metadata>
Created by potrace 1.16, written by Peter Selinger 2001-2019
</metadata>
<g transform="translate(0.000000,1162.000000) scale(0.100000,-0.100000)"
fill="#000000" stroke="none">
<path d="M5050 11611 c-81 -25 -143 -75 -178 -146 -11 -22 -560 -2103 -1221
-4625 -661 -2522 -1204 -4592 -1208 -4600 -5 -13 -125 577 -650 3182 l-78 388
-857 -1392 -858 -1393 177 -177 c98 -98 180 -178 183 -178 3 0 181 286 395
634 215 349 391 632 392 628 2 -4 178 -880 393 -1947 214 -1067 392 -1950 395
-1962 5 -23 8 -23 168 -23 201 0 239 10 314 85 41 41 55 65 71 116 10 35 655
2493 1433 5461 l1414 5398 682 0 c656 0 684 1 735 20 107 40 178 144 178 260
0 116 -71 220 -178 260 -51 19 -77 20 -865 19 -447 0 -823 -4 -837 -8z"/>
</g>
</svg>
