<?xml version="1.0" standalone="no"?>
<!DOCTYPE svg PUBLIC "-//W3C//DTD SVG 20010904//EN"
 "http://www.w3.org/TR/2001/REC-SVG-20010904/DTD/svg10.dtd">
<svg version="1.0" xmlns="http://www.w3.org/2000/svg"
 width="461.000000pt" height="1260.000000pt" viewBox="0 0 461.000000 1260.000000"
 preserveAspectRatio="xMidYMid meet">
<metadata>
Created by potrace 1.16, written by Peter Selinger 2001-2019
</metadata>
<g transform="translate(0.000000,1260.000000) scale(0.100000,-0.100000)"
fill="#000000" stroke="none">
<path d="M2150 12582 c-93 -27 -134 -46 -204 -96 -108 -77 -180 -191 -212
-336 -14 -61 -16 -106 -11 -255 12 -321 41 -523 172 -1185 46 -234 95 -499
109 -590 32 -205 52 -397 43 -407 -13 -13 -264 47 -532 128 -472 141 -632 176
-855 186 -156 7 -244 -8 -345 -56 -132 -63 -237 -185 -285 -331 -36 -107 -36
-273 0 -380 48 -146 153 -268 285 -331 101 -48 189 -63 345 -56 223 10 383 45
855 186 268 81 519 141 532 128 9 -10 -11 -202 -43 -407 -14 -91 -63 -356
-109 -590 -131 -662 -160 -864 -172 -1185 -7 -204 4 -283 56 -390 63 -132 185
-237 331 -285 107 -36 273 -36 380 0 146 48 268 153 331 285 52 107 63 186 56
390 -12 321 -41 523 -172 1185 -46 234 -95 499 -109 590 -32 205 -52 397 -43
407 13 13 264 -47 532 -128 472 -141 632 -176 855 -186 156 -7 244 8 345 56
132 63 237 185 285 331 36 107 36 273 0 380 -48 146 -153 268 -285 331 -101
48 -189 63 -345 56 -223 -10 -383 -45 -855 -186 -268 -81 -519 -141 -532 -128
-9 10 11 202 43 407 14 91 63 356 109 590 131 662 160 864 172 1185 5 149 3
194 -11 256 -45 202 -174 349 -366 415 -102 36 -256 42 -350 16z"/>
<path d="M2150 6272 c-93 -27 -134 -46 -204 -96 -108 -77 -180 -191 -212 -336
-14 -61 -16 -106 -11 -255 11 -313 43 -538 167 -1160 106 -535 160 -866 160
-987 0 -37 -1 -37 -32 -32 -153 28 -233 49 -685 183 -327 97 -515 131 -725
132 -141 1 -193 -9 -298 -59 -54 -25 -93 -53 -140 -101 -298 -301 -186 -824
205 -962 186 -65 510 -31 955 101 454 134 534 156 688 184 31 5 32 5 32 -32 0
-121 -54 -452 -160 -987 -124 -622 -156 -847 -167 -1160 -7 -204 5 -283 56
-390 63 -132 185 -237 331 -285 107 -36 273 -36 380 0 146 48 268 153 331 285
51 107 63 186 56 390 -11 313 -43 538 -167 1160 -106 535 -160 866 -160 987 0
37 1 37 33 32 153 -28 233 -50 687 -184 445 -132 769 -166 955 -101 277 97
431 399 355 695 -42 166 -150 302 -290 368 -105 50 -157 60 -299 59 -211 -1
-397 -35 -724 -132 -452 -134 -532 -155 -684 -183 -32 -5 -33 -5 -33 32 0 121
54 452 160 987 124 622 156 847 167 1160 5 149 3 194 -11 256 -45 202 -174
349 -366 415 -102 36 -256 42 -350 16z"/>
</g>
</svg>
