<?xml version="1.0" standalone="no"?>
<!DOCTYPE svg PUBLIC "-//W3C//DTD SVG 20010904//EN"
 "http://www.w3.org/TR/2001/REC-SVG-20010904/DTD/svg10.dtd">
<svg version="1.0" xmlns="http://www.w3.org/2000/svg"
 width="517.000000pt" height="516.000000pt" viewBox="0 0 517.000000 516.000000"
 preserveAspectRatio="xMidYMid meet">
<metadata>
Created by potrace 1.16, written by Peter Selinger 2001-2019
</metadata>
<g transform="translate(0.000000,516.000000) scale(0.100000,-0.100000)"
fill="#000000" stroke="none">
<path d="M2380 5154 c-168 -20 -221 -28 -330 -50 -481 -98 -930 -343 -1291
-703 -412 -413 -655 -906 -741 -1506 -17 -118 -17 -512 0 -630 86 -600 329
-1093 741 -1506 413 -412 906 -655 1506 -741 52 -7 184 -13 315 -13 131 0 263
6 315 13 600 86 1093 329 1506 741 412 413 655 906 741 1506 17 118 17 512 0
630 -86 600 -329 1093 -741 1506 -403 403 -885 645 -1461 734 -100 16 -481 28
-560 19z m391 -544 c1119 -109 1947 -1109 1839 -2221 -109 -1119 -1109 -1947
-2221 -1839 -1119 109 -1947 1109 -1839 2221 109 1119 1109 1947 2221 1839z"/>
</g>
</svg>
