<?xml version="1.0" standalone="no"?>
<!DOCTYPE svg PUBLIC "-//W3C//DTD SVG 20010904//EN"
 "http://www.w3.org/TR/2001/REC-SVG-20010904/DTD/svg10.dtd">
<svg version="1.0" xmlns="http://www.w3.org/2000/svg"
 width="426.000000pt" height="156.000000pt" viewBox="0 0 426.000000 156.000000"
 preserveAspectRatio="xMidYMid meet">
<metadata>
Created by potrace 1.16, written by Peter Selinger 2001-2019
</metadata>
<g transform="translate(0.000000,156.000000) scale(0.100000,-0.100000)"
fill="#000000" stroke="none">
<path d="M630 1545 c-297 -63 -525 -279 -606 -575 -25 -90 -25 -290 0 -380 43
-157 142 -313 259 -410 73 -60 215 -133 307 -157 91 -24 292 -24 380 0 90 24
234 96 302 151 119 95 222 253 264 406 26 91 26 309 0 400 -42 153 -145 311
-264 406 -67 54 -212 127 -297 150 -82 22 -263 27 -345 9z"/>
<path d="M3320 1546 c-251 -58 -445 -207 -549 -420 -62 -127 -75 -190 -75
-346 0 -99 4 -152 18 -200 42 -153 145 -311 264 -406 68 -55 212 -127 302
-151 88 -24 289 -24 380 0 92 24 234 97 307 157 117 97 216 253 259 410 25 90
25 290 0 380 -43 157 -142 313 -259 410 -71 59 -214 133 -302 156 -80 21 -274
27 -345 10z"/>
</g>
</svg>
