<?xml version="1.0" standalone="no"?>
<!DOCTYPE svg PUBLIC "-//W3C//DTD SVG 20010904//EN"
 "http://www.w3.org/TR/2001/REC-SVG-20010904/DTD/svg10.dtd">
<svg version="1.0" xmlns="http://www.w3.org/2000/svg"
 width="499.000000pt" height="604.000000pt" viewBox="0 0 499.000000 604.000000"
 preserveAspectRatio="xMidYMid meet">
<metadata>
Created by potrace 1.16, written by Peter Selinger 2001-2019
</metadata>
<g transform="translate(0.000000,604.000000) scale(0.100000,-0.100000)"
fill="#000000" stroke="none">
<path d="M2129 6025 c-415 -57 -795 -245 -1095 -542 -181 -180 -299 -344 -415
-578 -148 -301 -223 -595 -236 -927 -7 -163 4 -257 42 -369 42 -121 84 -188
180 -284 106 -106 169 -145 308 -193 92 -32 115 -36 237 -40 113 -3 149 -1
224 17 107 26 229 82 313 144 54 41 60 43 47 19 -21 -41 -20 -312 2 -357 33
-70 28 -69 439 -76 408 -7 459 -14 622 -79 178 -71 363 -226 435 -365 94 -181
123 -341 123 -690 0 -339 -31 -515 -116 -675 -102 -192 -303 -340 -554 -408
-99 -26 -104 -27 -410 -26 -263 0 -335 3 -475 22 -149 20 -346 57 -424 80
l-30 8 35 24 c163 115 276 277 331 476 18 66 21 106 22 244 0 151 -3 172 -28
254 -81 266 -248 451 -497 550 -119 46 -193 60 -339 60 -146 0 -220 -14 -339
-60 -186 -74 -341 -209 -423 -370 -119 -229 -140 -491 -62 -762 134 -470 561
-810 1239 -987 221 -58 430 -93 690 -115 188 -17 630 -14 812 5 559 58 1050
225 1457 497 127 85 216 160 336 284 276 287 414 619 397 954 -18 353 -252
683 -666 940 -239 148 -573 284 -885 361 -65 16 -121 30 -123 32 -2 2 30 16
69 32 122 47 357 169 468 242 346 229 576 509 684 833 56 170 70 255 71 435 0
137 -3 172 -23 245 -76 277 -268 521 -572 725 -115 77 -399 215 -542 264 -333
114 -708 173 -1082 170 -83 -1 -194 -7 -247 -14z m386 -535 c192 -28 321 -86
430 -194 44 -43 82 -93 98 -126 92 -190 109 -573 42 -906 -90 -447 -334 -766
-648 -850 -29 -8 -178 -25 -332 -40 -154 -14 -292 -31 -306 -38 -22 -11 -19
-4 23 52 109 144 159 299 160 497 1 453 -305 781 -750 802 l-112 6 31 56 c225
401 604 673 1024 736 110 16 247 18 340 5z"/>
</g>
</svg>
