<?xml version="1.0" standalone="no"?>
<!DOCTYPE svg PUBLIC "-//W3C//DTD SVG 20010904//EN"
 "http://www.w3.org/TR/2001/REC-SVG-20010904/DTD/svg10.dtd">
<svg version="1.0" xmlns="http://www.w3.org/2000/svg"
 width="532.000000pt" height="890.000000pt" viewBox="0 0 532.000000 890.000000"
 preserveAspectRatio="xMidYMid meet">
<metadata>
Created by potrace 1.16, written by Peter Selinger 2001-2019
</metadata>
<g transform="translate(0.000000,890.000000) scale(0.100000,-0.100000)"
fill="#000000" stroke="none">
<path d="M731 8882 c-19 -10 -43 -34 -53 -53 -17 -33 -18 -116 -16 -2201 l3
-2167 21 -28 c43 -58 79 -73 174 -73 106 0 136 16 194 105 366 560 866 859
1531 916 265 22 433 -1 611 -85 136 -65 229 -133 352 -260 176 -182 296 -385
386 -657 121 -362 164 -800 153 -1564 -8 -526 -35 -786 -112 -1080 -160 -613
-543 -1051 -1083 -1239 -475 -165 -1075 -84 -1565 213 -307 186 -572 470 -736
790 -40 77 -111 241 -111 255 0 1 30 -4 68 -12 79 -16 217 -11 307 13 181 47
337 169 413 325 59 119 76 193 76 325 0 132 -17 206 -76 325 -77 157 -231 277
-418 327 -101 27 -275 24 -370 -5 -115 -37 -203 -86 -277 -156 -80 -75 -133
-160 -171 -271 -25 -76 -27 -90 -26 -265 1 -887 527 -1718 1338 -2115 318
-156 615 -230 966 -242 1130 -38 2203 602 2699 1610 148 302 234 584 283 927
19 142 17 580 -5 743 -32 235 -94 489 -172 704 -54 146 -213 462 -300 593
-355 534 -857 910 -1425 1066 -237 66 -327 77 -600 78 -334 0 -535 -29 -810
-121 -299 -99 -571 -260 -802 -473 l-68 -62 0 1222 c0 1060 2 1221 14 1217 46
-18 350 -88 458 -106 283 -48 679 -65 934 -40 566 54 1109 258 1568 587 204
147 444 370 592 552 109 134 114 143 114 227 0 86 -16 125 -63 153 -47 29 -83
25 -188 -21 -425 -186 -871 -302 -1359 -356 -224 -24 -689 -24 -910 0 -499 56
-964 180 -1393 371 -68 31 -100 32 -146 8z"/>
</g>
</svg>
