<?xml version="1.0" standalone="no"?>
<!DOCTYPE svg PUBLIC "-//W3C//DTD SVG 20010904//EN"
 "http://www.w3.org/TR/2001/REC-SVG-20010904/DTD/svg10.dtd">
<svg version="1.0" xmlns="http://www.w3.org/2000/svg"
 width="595.000000pt" height="1338.000000pt" viewBox="0 0 595.000000 1338.000000"
 preserveAspectRatio="xMidYMid meet">
<metadata>
Created by potrace 1.16, written by Peter Selinger 2001-2019
</metadata>
<g transform="translate(0.000000,1338.000000) scale(0.100000,-0.100000)"
fill="#000000" stroke="none">
<path d="M2655 13374 c-395 -42 -743 -163 -1041 -363 -384 -256 -635 -618
-726 -1045 -29 -139 -32 -407 -4 -511 25 -96 84 -218 139 -291 194 -256 581
-364 911 -253 127 42 217 98 312 194 66 66 90 99 128 176 66 133 87 225 87
379 2 395 -215 685 -587 783 l-86 23 44 36 c177 145 445 263 704 309 154 28
422 31 530 7 224 -51 407 -194 474 -368 93 -242 86 -756 -15 -1105 -112 -384
-333 -648 -605 -720 -30 -8 -181 -26 -335 -41 -307 -28 -335 -35 -367 -94 -27
-51 -27 -319 0 -369 37 -69 50 -71 397 -71 340 0 448 -10 583 -55 210 -71 406
-225 502 -398 89 -160 127 -346 137 -662 17 -576 -82 -884 -350 -1086 -181
-137 -395 -199 -682 -199 -304 0 -731 54 -943 118 l-57 18 50 33 c165 111 281
278 336 482 33 122 33 356 0 478 -83 308 -294 516 -612 603 -121 33 -337 33
-458 0 -386 -105 -620 -397 -638 -797 -16 -333 109 -648 353 -890 397 -395
1134 -624 2010 -625 708 0 1331 173 1839 513 399 267 653 611 750 1017 25 105
31 309 11 413 -80 420 -407 774 -961 1042 -148 71 -356 148 -518 191 -72 20
-152 41 -176 47 l-44 12 84 34 c182 73 433 216 594 340 81 62 234 210 299 290
245 302 371 664 353 1021 -21 441 -342 839 -892 1105 -272 132 -553 214 -895
260 -110 15 -549 28 -635 19z"/>
<path d="M210 6811 c-83 -26 -141 -74 -181 -151 -19 -35 -24 -61 -24 -120 1
-116 50 -196 155 -251 l45 -24 2750 -3 c3115 -2 2807 -11 2901 83 112 112 112
278 1 390 -95 94 213 85 -2886 84 -1505 0 -2747 -4 -2761 -8z"/>
<path d="M3705 6141 c-22 -10 -54 -34 -71 -52 -17 -19 -779 -946 -1693 -2061
l-1661 -2028 0 -310 0 -310 1411 0 1410 0 -3 -262 -3 -263 -27 -45 c-88 -150
-214 -175 -925 -187 l-383 -6 0 -310 0 -310 118 7 c756 41 2911 41 3665 0
l117 -7 0 312 0 311 -232 0 c-285 0 -620 16 -751 35 -160 24 -235 69 -283 170
-23 48 -24 58 -24 303 l0 252 645 0 645 0 0 310 0 310 -645 0 -645 0 -2 2029
-3 2030 -21 27 c-11 15 -33 37 -48 48 -26 20 -43 21 -289 24 -239 2 -266 0
-302 -17z m-528 -4138 c-2 -2 -501 -2 -1108 -1 l-1105 3 1106 1349 1105 1348
3 -1348 c1 -741 1 -1349 -1 -1351z"/>
</g>
</svg>
