<?xml version="1.0" standalone="no"?>
<!DOCTYPE svg PUBLIC "-//W3C//DTD SVG 20010904//EN"
 "http://www.w3.org/TR/2001/REC-SVG-20010904/DTD/svg10.dtd">
<svg version="1.0" xmlns="http://www.w3.org/2000/svg"
 width="260.000000pt" height="249.000000pt" viewBox="0 0 260.000000 249.000000"
 preserveAspectRatio="xMidYMid meet">
<metadata>
Created by potrace 1.16, written by Peter Selinger 2001-2019
</metadata>
<g transform="translate(0.000000,249.000000) scale(0.100000,-0.100000)"
fill="#000000" stroke="none">
<path d="M1120 2480 c-574 -81 -1023 -510 -1105 -1057 -78 -515 188 -1024 664
-1271 118 -62 207 -93 342 -124 150 -33 398 -33 548 0 135 31 224 62 342 124
293 152 512 405 614 710 144 432 40 890 -279 1226 -172 181 -399 309 -656 368
-119 28 -356 40 -470 24z m365 -341 c134 -17 229 -44 335 -95 178 -88 307
-251 360 -457 54 -212 54 -472 0 -684 -53 -206 -182 -369 -360 -457 -148 -72
-315 -106 -525 -106 -210 0 -377 34 -525 106 -178 88 -307 251 -360 457 -54
212 -54 472 0 684 53 206 182 369 360 457 99 48 207 80 325 95 102 12 286 13
390 0z"/>
</g>
</svg>
