<?xml version="1.0" standalone="no"?>
<!DOCTYPE svg PUBLIC "-//W3C//DTD SVG 20010904//EN"
 "http://www.w3.org/TR/2001/REC-SVG-20010904/DTD/svg10.dtd">
<svg version="1.0" xmlns="http://www.w3.org/2000/svg"
 width="403.000000pt" height="218.000000pt" viewBox="0 0 403.000000 218.000000"
 preserveAspectRatio="xMidYMid meet">
<metadata>
Created by potrace 1.16, written by Peter Selinger 2001-2019
</metadata>
<g transform="translate(0.000000,218.000000) scale(0.100000,-0.100000)"
fill="#000000" stroke="none">
<path d="M101 2074 c-50 -58 -91 -109 -91 -114 0 -12 1987 -1945 2000 -1945
13 0 2000 1933 2000 1945 0 12 -180 220 -190 220 -4 0 -411 -292 -905 -650
-493 -357 -900 -650 -905 -650 -5 0 -412 293 -905 650 -494 358 -901 650 -905
650 -5 0 -49 -48 -99 -106z"/>
</g>
</svg>
