<?xml version="1.0" standalone="no"?>
<!DOCTYPE svg PUBLIC "-//W3C//DTD SVG 20010904//EN"
 "http://www.w3.org/TR/2001/REC-SVG-20010904/DTD/svg10.dtd">
<svg version="1.0" xmlns="http://www.w3.org/2000/svg"
 width="461.000000pt" height="1260.000000pt" viewBox="0 0 461.000000 1260.000000"
 preserveAspectRatio="xMidYMid meet">
<metadata>
Created by potrace 1.16, written by Peter Selinger 2001-2019
</metadata>
<g transform="translate(0.000000,1260.000000) scale(0.100000,-0.100000)"
fill="#000000" stroke="none">
<path d="M2166 12584 c-88 -21 -187 -78 -249 -142 -138 -146 -165 -274 -137
-652 21 -279 57 -509 169 -1080 97 -493 124 -669 156 -997 7 -73 14 -71 -113
-48 -127 22 -277 60 -502 126 -458 135 -655 176 -885 186 -125 5 -149 3 -223
-17 -434 -118 -521 -713 -140 -960 34 -22 91 -47 140 -60 74 -20 98 -22 223
-17 230 10 427 51 885 186 225 66 375 104 502 126 127 23 120 25 113 -47 -32
-329 -59 -505 -156 -998 -112 -571 -148 -801 -169 -1080 -28 -378 -1 -506 137
-652 200 -209 566 -209 766 0 138 146 165 274 137 652 -21 279 -57 509 -169
1080 -97 493 -124 669 -156 998 -7 72 -14 70 113 47 127 -22 277 -60 502 -126
458 -135 655 -176 885 -186 125 -5 149 -3 223 17 434 118 521 713 140 960 -34
22 -91 47 -140 60 -74 20 -98 22 -223 17 -230 -10 -427 -51 -885 -186 -225
-66 -375 -104 -502 -126 -127 -23 -120 -25 -113 48 32 328 59 504 156 997 112
571 148 801 169 1080 28 378 1 506 -137 652 -124 130 -331 187 -517 142z"/>
<path d="M2166 6274 c-88 -21 -187 -78 -249 -142 -138 -146 -165 -275 -137
-652 21 -275 54 -485 166 -1058 101 -518 134 -732 159 -1009 l6 -73 -28 5
c-224 38 -338 65 -674 164 -404 119 -618 161 -836 162 -141 1 -197 -9 -290
-53 -218 -102 -332 -376 -260 -626 55 -188 185 -315 372 -362 67 -17 281 -14
413 5 140 21 349 71 601 146 336 99 450 126 674 164 l28 5 -6 -73 c-25 -277
-58 -491 -159 -1009 -112 -573 -145 -783 -166 -1058 -28 -377 -1 -506 137
-652 200 -209 566 -209 766 0 138 146 165 275 137 652 -21 275 -54 485 -166
1058 -101 518 -134 732 -159 1009 l-6 73 28 -5 c224 -38 338 -65 674 -164 403
-119 617 -160 836 -162 141 -1 196 9 290 53 218 102 332 376 260 626 -55 188
-186 316 -372 362 -67 16 -283 14 -414 -6 -139 -20 -348 -71 -600 -145 -336
-99 -450 -126 -674 -164 l-28 -5 6 73 c25 277 58 491 159 1009 112 573 145
783 166 1058 28 377 1 506 -137 652 -124 130 -331 187 -517 142z"/>
</g>
</svg>
