<?xml version="1.0" standalone="no"?>
<!DOCTYPE svg PUBLIC "-//W3C//DTD SVG 20010904//EN"
 "http://www.w3.org/TR/2001/REC-SVG-20010904/DTD/svg10.dtd">
<svg version="1.0" xmlns="http://www.w3.org/2000/svg"
 width="499.000000pt" height="992.000000pt" viewBox="0 0 499.000000 992.000000"
 preserveAspectRatio="xMidYMid meet">
<metadata>
Created by potrace 1.16, written by Peter Selinger 2001-2019
</metadata>
<g transform="translate(0.000000,992.000000) scale(0.100000,-0.100000)"
fill="#000000" stroke="none">
<path d="M2310 9901 c-314 -67 -556 -291 -630 -585 -24 -95 -25 -192 -5 -410
8 -88 14 -160 12 -161 -1 -1 -40 -9 -87 -19 -298 -63 -639 -199 -867 -348
-419 -273 -669 -647 -724 -1084 -15 -126 -7 -298 20 -389 72 -243 247 -415
496 -487 114 -33 306 -33 420 0 255 74 434 255 501 507 26 97 26 303 0 400
-65 247 -243 430 -484 501 l-74 21 74 55 c141 105 301 188 483 251 102 35 284
82 289 76 1 -2 84 -916 183 -2030 l180 -2026 -19 -104 c-39 -221 -48 -371 -48
-816 0 -412 1 -429 20 -461 35 -58 60 -62 347 -62 226 0 262 2 292 18 74 37
65 -19 152 948 43 484 79 889 79 900 0 12 26 62 58 110 112 169 238 320 422
505 250 251 451 410 795 629 197 126 254 171 375 296 196 203 326 450 387 734
25 119 25 391 0 510 -25 118 -78 273 -126 367 -98 196 -273 406 -450 538 -234
176 -605 335 -957 411 -71 15 -130 29 -132 30 -2 1 4 79 12 173 21 230 20 321
-4 417 -105 417 -547 678 -990 585z m1051 -1837 c164 -118 233 -277 260 -599
16 -191 6 -500 -19 -625 -36 -172 -101 -323 -191 -442 -22 -30 -113 -123 -202
-208 l-162 -154 6 54 c4 30 45 494 92 1030 47 536 88 985 91 998 l5 23 37 -22
c20 -12 58 -37 83 -55z"/>
<path d="M2370 1654 c-211 -41 -400 -149 -520 -297 -64 -79 -133 -211 -162
-313 -33 -113 -33 -315 0 -428 66 -230 215 -413 423 -521 135 -70 219 -90 379
-90 160 0 244 20 379 90 161 83 273 195 356 356 70 135 90 219 90 379 0 160
-20 244 -90 379 -107 206 -290 356 -515 421 -74 21 -279 36 -340 24z"/>
</g>
</svg>
