<?xml version="1.0" standalone="no"?>
<!DOCTYPE svg PUBLIC "-//W3C//DTD SVG 20010904//EN"
 "http://www.w3.org/TR/2001/REC-SVG-20010904/DTD/svg10.dtd">
<svg version="1.0" xmlns="http://www.w3.org/2000/svg"
 width="559.000000pt" height="649.000000pt" viewBox="0 0 559.000000 649.000000"
 preserveAspectRatio="xMidYMid meet">
<metadata>
Created by potrace 1.16, written by Peter Selinger 2001-2019
</metadata>
<g transform="translate(0.000000,649.000000) scale(0.100000,-0.100000)"
fill="#000000" stroke="none">
<path d="M1970 6475 c-734 -101 -1330 -629 -1513 -1340 -41 -162 -51 -241 -52
-415 0 -191 11 -245 77 -380 33 -69 58 -102 127 -170 98 -98 176 -144 316
-186 76 -22 109 -26 210 -26 215 0 379 66 526 212 69 68 94 101 127 170 63
127 77 192 77 350 0 156 -20 244 -82 365 -55 105 -183 229 -293 284 -91 44
-219 81 -282 81 l-39 0 33 47 c53 76 216 234 300 291 161 110 336 179 519 206
190 28 288 19 404 -38 323 -159 603 -699 695 -1341 32 -218 40 -391 40 -857
l0 -448 -119 0 c-143 0 -412 -15 -651 -36 -840 -73 -1595 -275 -1987 -530 -49
-31 -127 -95 -174 -143 -148 -148 -217 -299 -226 -491 -12 -250 79 -486 261
-678 230 -241 580 -397 1041 -464 135 -20 620 -16 810 6 510 59 898 195 1164
409 l44 35 48 -98 c75 -152 184 -249 323 -286 61 -16 257 -18 506 -4 806 46
1228 238 1351 615 20 63 23 94 27 318 l4 247 -276 0 -276 0 0 -196 c0 -227 -6
-249 -77 -294 -73 -47 -128 -55 -353 -55 -168 1 -212 4 -242 17 l-37 17 -4
1318 c-4 1391 -2 1351 -52 1598 -102 506 -323 937 -655 1279 -186 191 -366
324 -582 430 -337 164 -712 228 -1058 181z m1190 -4054 c0 -211 -4 -402 -10
-432 -46 -246 -315 -442 -712 -518 -235 -45 -493 -51 -638 -15 -36 8 -112 38
-169 66 -89 43 -116 62 -186 132 -95 95 -146 187 -166 300 -31 183 36 323 216
451 280 199 880 348 1565 388 30 2 65 4 78 5 l22 2 0 -379z"/>
<path d="M205 494 c-222 -79 -218 -405 5 -479 40 -13 318 -15 2400 -13 l2355
3 41 22 c48 26 100 82 122 132 19 46 19 146 0 192 -22 50 -74 106 -122 132
l-41 22 -2360 2 c-2030 1 -2366 -1 -2400 -13z"/>
</g>
</svg>
