<?xml version="1.0" standalone="no"?>
<!DOCTYPE svg PUBLIC "-//W3C//DTD SVG 20010904//EN"
 "http://www.w3.org/TR/2001/REC-SVG-20010904/DTD/svg10.dtd">
<svg version="1.0" xmlns="http://www.w3.org/2000/svg"
 width="737.000000pt" height="956.000000pt" viewBox="0 0 737.000000 956.000000"
 preserveAspectRatio="xMidYMid meet">
<metadata>
Created by potrace 1.16, written by Peter Selinger 2001-2019
</metadata>
<g transform="translate(0.000000,956.000000) scale(0.100000,-0.100000)"
fill="#000000" stroke="none">
<path d="M4556 9549 c-259 -27 -578 -127 -816 -256 -709 -383 -1190 -1136
-1270 -1988 -6 -66 -10 -476 -10 -1022 l0 -913 -510 0 c-563 0 -550 1 -607
-63 -72 -82 -46 -214 51 -258 38 -17 75 -19 554 -19 l512 0 0 -835 0 -835
-510 0 c-563 0 -550 1 -607 -63 -72 -82 -46 -214 51 -258 38 -17 76 -19 555
-19 l513 0 -5 -492 c-5 -423 -15 -660 -29 -673 -2 -2 -41 7 -87 20 -234 68
-445 103 -676 112 -910 33 -1629 -467 -1662 -1157 -6 -139 11 -233 61 -335 74
-149 193 -261 371 -350 182 -90 362 -133 605 -142 664 -26 1355 290 1791 818
l81 98 72 -36 c39 -19 194 -101 345 -181 554 -293 909 -456 1204 -551 503
-163 956 -194 1354 -92 471 121 878 415 1153 836 29 44 80 139 115 210 124
255 188 505 202 785 5 107 3 130 -11 158 -29 55 -68 72 -171 72 -151 0 -178
-30 -189 -203 -20 -341 -149 -637 -384 -879 -152 -156 -294 -252 -487 -327
-175 -69 -279 -86 -510 -86 -232 1 -361 17 -590 75 -350 89 -696 238 -1305
562 -129 69 -287 151 -350 183 -63 31 -116 58 -117 59 -1 1 14 46 33 101 42
121 88 298 108 420 29 171 36 298 36 646 l0 349 714 2 714 3 39 31 c102 83 89
223 -27 282 l-44 22 -698 0 -698 0 0 835 0 835 714 2 714 3 39 31 c102 83 89
223 -27 282 l-44 22 -698 0 -698 0 0 953 c0 526 5 1026 10 1117 41 673 190
1078 515 1406 263 265 557 386 905 370 280 -12 511 -78 752 -214 427 -242 771
-699 926 -1231 l30 -103 -26 7 c-106 28 -256 22 -372 -14 -357 -112 -523 -531
-353 -891 44 -92 157 -209 248 -257 191 -100 439 -100 630 0 34 18 92 63 136
107 159 157 201 330 169 690 -56 622 -322 1211 -730 1620 -353 354 -788 568
-1262 619 -111 12 -325 12 -442 0z m-2817 -8209 c185 -31 495 -114 524 -140
12 -11 -69 -168 -144 -280 -78 -118 -255 -298 -363 -370 -369 -246 -802 -278
-1071 -78 -165 122 -207 318 -111 513 92 186 306 319 595 371 110 19 410 11
570 -16z"/>
</g>
</svg>
