<?xml version="1.0" standalone="no"?>
<!DOCTYPE svg PUBLIC "-//W3C//DTD SVG 20010904//EN"
 "http://www.w3.org/TR/2001/REC-SVG-20010904/DTD/svg10.dtd">
<svg version="1.0" xmlns="http://www.w3.org/2000/svg"
 width="1051.000000pt" height="945.000000pt" viewBox="0 0 1051.000000 945.000000"
 preserveAspectRatio="xMidYMid meet">
<metadata>
Created by potrace 1.16, written by Peter Selinger 2001-2019
</metadata>
<g transform="translate(0.000000,945.000000) scale(0.100000,-0.100000)"
fill="#000000" stroke="none">
<path d="M420 9142 l0 -309 498 -6 c450 -6 607 -12 845 -33 l77 -7 0 -1378 0
-1379 -816 0 c-597 0 -827 -3 -856 -12 -52 -15 -121 -78 -148 -133 -33 -68
-26 -174 15 -241 34 -55 111 -107 172 -118 21 -3 397 -6 836 -6 l797 0 0
-1090 0 -1090 -816 0 c-597 0 -827 -3 -856 -12 -52 -15 -121 -78 -148 -133
-33 -68 -26 -174 15 -241 34 -55 111 -107 172 -118 21 -3 397 -6 836 -6 l797
0 0 -787 c0 -868 0 -857 -62 -977 -47 -90 -173 -211 -274 -264 -218 -112 -482
-166 -881 -179 l-203 -6 0 -310 0 -310 98 7 c634 40 2600 40 3235 0 l97 -7 0
310 0 310 -202 6 c-400 13 -664 67 -882 179 -101 53 -227 174 -274 264 -62
120 -62 109 -62 977 l0 787 1888 0 1889 0 949 -1394 c783 -1151 955 -1398 985
-1415 33 -19 54 -21 214 -21 202 0 234 9 274 80 l21 38 0 1356 0 1355 828 3
827 3 55 31 c99 55 152 168 129 273 -17 83 -89 163 -168 190 -24 8 -267 11
-852 11 l-819 0 0 1090 0 1089 828 3 827 3 55 31 c99 55 152 168 129 273 -17
83 -89 163 -168 190 -24 8 -267 11 -852 11 l-819 0 0 1083 c0 1191 -2 1148 62
1271 47 90 173 211 274 264 218 112 482 166 882 179 l202 6 0 310 0 310 -97
-7 c-635 -40 -2601 -40 -3235 0 l-98 7 0 -310 0 -310 203 -6 c399 -13 663 -67
881 -179 101 -53 227 -174 274 -264 64 -123 62 -80 62 -1272 l0 -1082 -1222 2
-1221 3 -1146 1684 c-631 926 -1159 1694 -1175 1705 l-27 21 -1425 3 -1424 2
0 -308z m2755 -1857 c400 -588 756 -1112 791 -1162 l64 -93 -800 0 -800 0 0
1172 c0 680 4 1168 9 1163 5 -6 336 -491 736 -1080z m1832 -2692 c348 -511
681 -1001 742 -1090 l111 -163 -1715 0 -1715 0 0 1090 0 1090 973 0 973 0 631
-927z m3053 -163 l0 -1090 -306 2 -307 3 -738 1085 c-406 597 -739 1086 -739
1088 0 1 470 2 1045 2 l1045 0 0 -1090z m0 -1792 l0 -191 -41 59 c-42 59 -197
287 -212 311 -6 10 19 13 123 13 l130 0 0 -192z"/>
</g>
</svg>
