<?xml version="1.0" standalone="no"?>
<!DOCTYPE svg PUBLIC "-//W3C//DTD SVG 20010904//EN"
 "http://www.w3.org/TR/2001/REC-SVG-20010904/DTD/svg10.dtd">
<svg version="1.0" xmlns="http://www.w3.org/2000/svg"
 width="461.000000pt" height="1276.000000pt" viewBox="0 0 461.000000 1276.000000"
 preserveAspectRatio="xMidYMid meet">
<metadata>
Created by potrace 1.16, written by Peter Selinger 2001-2019
</metadata>
<g transform="translate(0.000000,1276.000000) scale(0.100000,-0.100000)"
fill="#000000" stroke="none">
<path d="M2150 12742 c-93 -27 -134 -46 -204 -96 -156 -111 -226 -272 -226
-520 0 -363 43 -759 170 -1556 103 -645 140 -931 164 -1272 5 -73 4 -78 -14
-78 -50 0 -279 57 -525 131 -472 141 -632 176 -855 186 -156 7 -244 -8 -345
-56 -132 -63 -237 -185 -285 -331 -36 -107 -36 -273 0 -380 48 -146 153 -268
285 -331 101 -48 189 -63 345 -56 223 10 383 45 855 186 271 82 519 141 532
127 10 -10 -22 -286 -57 -490 -16 -94 -63 -340 -104 -546 -161 -808 -161 -809
-160 -1705 3 -1801 101 -3767 284 -5673 19 -208 26 -227 83 -262 29 -18 51
-20 207 -20 156 0 178 2 207 20 57 35 64 54 83 262 183 1906 281 3872 284
5673 1 896 1 897 -160 1705 -41 206 -88 452 -104 546 -35 204 -67 480 -57 490
13 14 261 -45 532 -127 472 -141 632 -176 855 -186 156 -7 244 8 345 56 132
63 237 185 285 331 36 107 36 273 0 380 -48 146 -153 268 -285 331 -101 48
-189 63 -345 56 -223 -10 -383 -45 -855 -186 -246 -74 -475 -131 -525 -131
-18 0 -19 5 -14 78 24 341 61 627 164 1272 104 652 138 920 160 1265 22 350
10 498 -53 622 -63 122 -179 221 -317 269 -102 36 -256 42 -350 16z"/>
</g>
</svg>
