<?xml version="1.0" standalone="no"?>
<!DOCTYPE svg PUBLIC "-//W3C//DTD SVG 20010904//EN"
 "http://www.w3.org/TR/2001/REC-SVG-20010904/DTD/svg10.dtd">
<svg version="1.0" xmlns="http://www.w3.org/2000/svg"
 width="590.000000pt" height="875.000000pt" viewBox="0 0 590.000000 875.000000"
 preserveAspectRatio="xMidYMid meet">
<metadata>
Created by potrace 1.16, written by Peter Selinger 2001-2019
</metadata>
<g transform="translate(0.000000,875.000000) scale(0.100000,-0.100000)"
fill="#000000" stroke="none">
<path d="M4165 8731 c-22 -10 -50 -29 -61 -42 -12 -13 -940 -1292 -2063 -2842
l-2041 -2817 0 -225 0 -225 1760 0 1761 0 -3 -902 -3 -903 -23 -57 c-85 -211
-224 -251 -929 -265 l-333 -6 0 -225 0 -225 118 7 c730 39 2674 39 3405 0
l117 -7 0 225 0 225 -332 6 c-706 14 -845 54 -930 265 l-23 57 -3 903 -3 902
656 0 655 0 0 225 0 225 -655 0 -655 0 0 2801 c0 2564 -1 2804 -16 2835 -32
68 -62 79 -219 82 -120 2 -146 0 -180 -17z m-578 -5698 c-2 -2 -711 -2 -1576
-1 l-1573 3 1574 2171 1573 2171 3 -2170 c1 -1194 1 -2172 -1 -2174z"/>
</g>
</svg>
