<?xml version="1.0" standalone="no"?>
<!DOCTYPE svg PUBLIC "-//W3C//DTD SVG 20010904//EN"
 "http://www.w3.org/TR/2001/REC-SVG-20010904/DTD/svg10.dtd">
<svg version="1.0" xmlns="http://www.w3.org/2000/svg"
 width="477.000000pt" height="588.000000pt" viewBox="0 0 477.000000 588.000000"
 preserveAspectRatio="xMidYMid meet">
<metadata>
Created by potrace 1.16, written by Peter Selinger 2001-2019
</metadata>
<g transform="translate(0.000000,588.000000) scale(0.100000,-0.100000)"
fill="#000000" stroke="none">
<path d="M1920 5874 c-552 -40 -1038 -184 -1370 -406 -109 -73 -259 -212 -329
-306 -152 -203 -231 -462 -218 -717 7 -139 26 -214 87 -340 94 -196 247 -324
480 -401 80 -26 95 -28 255 -28 160 0 175 2 255 28 233 77 386 205 480 401 71
147 85 211 85 390 -1 161 -15 237 -69 358 -52 117 -155 242 -257 311 l-49 33
37 11 c144 43 400 61 593 43 443 -43 764 -182 1025 -445 194 -195 299 -390
352 -654 22 -110 24 -385 4 -487 -32 -160 -111 -337 -219 -490 -74 -104 -328
-358 -462 -461 -249 -192 -257 -197 -1630 -1044 -492 -304 -906 -562 -918
-574 -53 -47 -52 -38 -52 -586 l0 -510 2189 0 2189 0 6 27 c3 16 87 588 186
1273 99 685 182 1260 185 1278 l6 32 -275 0 -275 0 -6 -32 c-3 -18 -19 -125
-36 -238 -88 -591 -182 -953 -262 -1004 -27 -17 -127 -33 -307 -47 -172 -14
-2439 -24 -2425 -11 22 19 1181 626 1316 688 79 36 315 138 524 226 770 323
1093 506 1350 763 185 184 294 370 357 613 30 112 31 126 32 322 1 221 -6 280
-55 468 -74 282 -213 533 -416 751 -380 407 -956 665 -1678 751 -91 11 -585
21 -685 14z"/>
</g>
</svg>
