<?xml version="1.0" standalone="no"?>
<!DOCTYPE svg PUBLIC "-//W3C//DTD SVG 20010904//EN"
 "http://www.w3.org/TR/2001/REC-SVG-20010904/DTD/svg10.dtd">
<svg version="1.0" xmlns="http://www.w3.org/2000/svg"
 width="157.000000pt" height="156.000000pt" viewBox="0 0 157.000000 156.000000"
 preserveAspectRatio="xMidYMid meet">
<metadata>
Created by potrace 1.16, written by Peter Selinger 2001-2019
</metadata>
<g transform="translate(0.000000,156.000000) scale(0.100000,-0.100000)"
fill="#000000" stroke="none">
<path d="M630 1546 c-192 -44 -359 -148 -465 -287 -56 -75 -118 -199 -141
-284 -28 -105 -30 -250 -4 -360 70 -303 292 -526 596 -596 109 -25 254 -23
359 5 90 24 232 98 306 159 115 96 214 253 256 407 24 89 25 290 0 380 -25 95
-98 235 -160 311 -95 114 -252 214 -402 255 -78 21 -273 27 -345 10z"/>
</g>
</svg>
