<?xml version="1.0" standalone="no"?>
<!DOCTYPE svg PUBLIC "-//W3C//DTD SVG 20010904//EN"
 "http://www.w3.org/TR/2001/REC-SVG-20010904/DTD/svg10.dtd">
<svg version="1.0" xmlns="http://www.w3.org/2000/svg"
 width="516.000000pt" height="114.000000pt" viewBox="0 0 516.000000 114.000000"
 preserveAspectRatio="xMidYMid meet">
<metadata>
Created by potrace 1.16, written by Peter Selinger 2001-2019
</metadata>
<g transform="translate(0.000000,114.000000) scale(0.100000,-0.100000)"
fill="#000000" stroke="none">
<path d="M1270 1133 c-293 -31 -556 -150 -764 -344 -72 -68 -493 -544 -497
-563 -1 -5 54 -58 122 -117 l124 -108 100 98 c264 256 559 371 955 371 308 0
551 -48 1225 -240 658 -188 941 -240 1245 -227 348 15 627 127 864 348 72 68
493 544 497 563 1 5 -54 58 -122 117 l-124 108 -100 -98 c-264 -256 -559 -371
-955 -371 -308 0 -551 48 -1225 240 -499 143 -726 194 -974 219 -97 10 -294
12 -371 4z"/>
</g>
</svg>
