<?xml version="1.0" standalone="no"?>
<!DOCTYPE svg PUBLIC "-//W3C//DTD SVG 20010904//EN"
 "http://www.w3.org/TR/2001/REC-SVG-20010904/DTD/svg10.dtd">
<svg version="1.0" xmlns="http://www.w3.org/2000/svg"
 width="570.000000pt" height="870.000000pt" viewBox="0 0 570.000000 870.000000"
 preserveAspectRatio="xMidYMid meet">
<metadata>
Created by potrace 1.16, written by Peter Selinger 2001-2019
</metadata>
<g transform="translate(0.000000,870.000000) scale(0.100000,-0.100000)"
fill="#000000" stroke="none">
<path d="M2354 8686 c-17 -8 -40 -26 -52 -41 -39 -49 -42 -83 -21 -242 90
-704 144 -1458 165 -2302 l6 -274 -353 7 c-591 11 -1095 30 -1681 62 l-296 16
-40 -22 c-22 -12 -49 -39 -61 -60 -20 -36 -21 -51 -21 -334 0 -228 3 -304 14
-329 17 -42 68 -85 109 -92 18 -3 154 1 302 9 528 30 1087 51 1673 62 l353 7
-6 -134 c-2 -74 -7 -350 -10 -614 -13 -1158 -79 -2853 -159 -4065 -14 -206
-11 -239 26 -285 43 -54 49 -55 543 -55 494 0 500 1 543 55 37 46 40 79 26
285 -80 1212 -146 2907 -159 4065 -3 264 -8 540 -10 614 l-6 134 353 -7 c590
-11 1094 -30 1680 -62 l296 -16 40 22 c22 12 49 39 61 60 20 36 21 51 21 340
0 289 -1 304 -21 340 -12 21 -39 48 -61 60 l-40 22 -296 -16 c-586 -32 -1090
-51 -1681 -62 l-353 -7 6 274 c21 844 75 1598 165 2302 21 159 18 193 -21 242
-43 54 -49 55 -545 55 -361 -1 -465 -4 -489 -14z"/>
</g>
</svg>
