<?xml version="1.0" standalone="no"?>
<!DOCTYPE svg PUBLIC "-//W3C//DTD SVG 20010904//EN"
 "http://www.w3.org/TR/2001/REC-SVG-20010904/DTD/svg10.dtd">
<svg version="1.0" xmlns="http://www.w3.org/2000/svg"
 width="1383.000000pt" height="1446.000000pt" viewBox="0 0 1383.000000 1446.000000"
 preserveAspectRatio="xMidYMid meet">
<metadata>
Created by potrace 1.16, written by Peter Selinger 2001-2019
</metadata>
<g transform="translate(0.000000,1446.000000) scale(0.100000,-0.100000)"
fill="#000000" stroke="none">
<path d="M6520 14449 c-2123 -132 -4042 -1248 -5269 -3062 -226 -335 -518
-878 -670 -1247 -776 -1878 -776 -3942 0 -5820 94 -229 331 -697 464 -919 370
-617 806 -1152 1320 -1620 1972 -1795 4740 -2276 7158 -1245 1347 575 2474
1567 3252 2865 133 222 370 690 464 919 776 1878 776 3942 0 5820 -152 369
-444 912 -670 1247 -1169 1729 -2963 2824 -4979 3037 -325 35 -756 45 -1070
25z m730 -559 c1041 -64 2022 -376 2900 -923 1194 -744 2102 -1847 2635 -3202
351 -891 517 -1927 465 -2885 -56 -1009 -295 -1918 -736 -2791 -410 -811 -976
-1522 -1674 -2101 -1107 -918 -2512 -1428 -3930 -1428 -1013 0 -2042 265
-2935 755 -1341 736 -2362 1909 -2940 3380 -351 891 -517 1927 -465 2885 75
1369 512 2624 1284 3690 688 950 1603 1685 2660 2137 861 368 1828 538 2736
483z"/>
<path d="M3911 10672 c-19 -10 -43 -34 -53 -53 -17 -32 -18 -96 -18 -1404 0
-1349 0 -1370 20 -1403 41 -67 61 -72 288 -72 294 0 291 -2 327 238 42 276 97
486 190 718 249 621 689 1087 1202 1274 489 178 1128 112 1690 -174 812 -413
1386 -1242 1532 -2213 69 -457 48 -886 -64 -1329 -276 -1087 -1107 -1918
-2124 -2124 -135 -27 -350 -50 -477 -50 -879 -1 -1649 563 -1928 1410 -64 195
-106 442 -106 624 0 75 -23 122 -71 148 -29 15 -58 18 -204 18 -190 0 -215 -7
-255 -72 -24 -39 -26 -131 -9 -304 47 -476 224 -920 528 -1319 89 -117 330
-362 451 -459 221 -176 574 -375 833 -471 214 -78 504 -148 737 -177 159 -20
592 -17 762 5 758 98 1487 434 2133 982 636 539 1104 1174 1310 1775 105 307
140 515 140 835 0 254 -13 366 -66 582 -125 514 -398 1001 -835 1492 -136 153
-369 383 -519 512 -653 562 -1386 904 -2160 1006 -189 25 -604 24 -780 -1
-849 -120 -1612 -632 -2075 -1392 l-60 -98 -1 74 c0 41 -8 361 -17 711 -19
702 -15 667 -85 709 -44 27 -187 28 -236 2z"/>
</g>
</svg>
