<?xml version="1.0" standalone="no"?>
<!DOCTYPE svg PUBLIC "-//W3C//DTD SVG 20010904//EN"
 "http://www.w3.org/TR/2001/REC-SVG-20010904/DTD/svg10.dtd">
<svg version="1.0" xmlns="http://www.w3.org/2000/svg"
 width="621.000000pt" height="206.000000pt" viewBox="0 0 621.000000 206.000000"
 preserveAspectRatio="xMidYMid meet">
<metadata>
Created by potrace 1.16, written by Peter Selinger 2001-2019
</metadata>
<g transform="translate(0.000000,206.000000) scale(0.100000,-0.100000)"
fill="#000000" stroke="none">
<path d="M2735 2049 c-915 -62 -1761 -392 -2259 -883 -291 -287 -455 -617
-472 -951 -5 -99 -4 -113 15 -142 38 -61 61 -68 206 -68 109 0 135 3 158 18
41 27 67 75 67 127 1 396 355 781 965 1050 346 153 725 248 1180 297 225 24
786 24 1010 0 459 -50 833 -144 1180 -297 610 -269 964 -654 965 -1050 0 -52
26 -100 67 -127 23 -15 49 -18 158 -18 145 0 168 7 206 68 19 29 20 43 15 142
-20 391 -247 784 -633 1096 -180 145 -481 321 -734 428 -402 170 -882 278
-1384 310 -180 12 -530 12 -710 0z"/>
</g>
</svg>
