<?xml version="1.0" standalone="no"?>
<!DOCTYPE svg PUBLIC "-//W3C//DTD SVG 20010904//EN"
 "http://www.w3.org/TR/2001/REC-SVG-20010904/DTD/svg10.dtd">
<svg version="1.0" xmlns="http://www.w3.org/2000/svg"
 width="570.000000pt" height="1284.000000pt" viewBox="0 0 570.000000 1284.000000"
 preserveAspectRatio="xMidYMid meet">
<metadata>
Created by potrace 1.16, written by Peter Selinger 2001-2019
</metadata>
<g transform="translate(0.000000,1284.000000) scale(0.100000,-0.100000)"
fill="#000000" stroke="none">
<path d="M2565 12833 c-262 -23 -566 -103 -790 -207 -435 -203 -756 -538 -883
-921 -52 -158 -66 -245 -67 -415 0 -135 3 -165 23 -230 75 -238 235 -393 478
-461 110 -31 268 -31 378 0 243 68 403 223 478 461 20 64 23 95 22 215 0 124
-3 149 -27 220 -91 274 -317 446 -611 464 l-99 6 79 69 c266 233 618 375 1028
415 273 27 456 0 635 -94 197 -104 318 -268 366 -497 55 -258 33 -658 -52
-952 -120 -418 -375 -712 -677 -781 -33 -8 -191 -26 -351 -41 -185 -17 -300
-31 -318 -41 -48 -24 -67 -68 -67 -153 0 -57 5 -83 20 -107 36 -60 40 -61 440
-66 401 -5 435 -9 602 -71 139 -52 240 -118 354 -231 151 -149 227 -295 273
-522 58 -286 51 -701 -15 -956 -79 -309 -284 -543 -578 -663 -164 -67 -240
-78 -516 -78 -424 0 -813 54 -1093 150 -56 20 -110 38 -120 41 -13 4 -2 12 38
28 95 39 166 87 245 165 127 126 196 288 207 487 26 463 -296 806 -757 806
-269 0 -498 -116 -636 -325 -147 -221 -164 -545 -44 -845 187 -467 738 -776
1575 -883 349 -44 817 -51 1110 -15 580 70 1104 283 1487 604 286 240 483 570
528 886 75 530 -248 1015 -897 1343 -233 118 -460 198 -717 254 -58 13 -106
25 -106 28 0 3 48 23 106 44 59 22 170 71 248 110 476 241 794 578 930 987 58
173 70 253 70 439 0 150 -2 173 -27 251 -53 172 -129 303 -253 438 -281 304
-779 538 -1311 616 -207 30 -534 43 -708 28z"/>
<path d="M200 6531 c-46 -14 -85 -39 -121 -78 -59 -61 -74 -98 -74 -183 0 -53
6 -85 19 -110 25 -49 83 -108 131 -133 l40 -22 2650 0 c2615 0 2651 0 2690 20
50 25 105 80 130 130 27 55 27 175 0 230 -25 50 -80 105 -130 130 -39 20 -77
20 -2675 22 -1449 1 -2646 -2 -2660 -6z"/>
<path d="M3685 5900 c-16 -5 -44 -22 -62 -37 -17 -15 -779 -940 -1692 -2055
l-1661 -2028 0 -225 0 -225 1391 0 1390 0 -3 -277 c-3 -261 -5 -282 -26 -335
-85 -211 -224 -251 -929 -265 l-333 -6 0 -225 0 -225 118 7 c730 39 2674 39
3405 0 l117 -7 0 225 0 225 -332 6 c-706 14 -845 54 -930 265 -21 53 -23 74
-26 334 l-3 278 655 0 656 0 0 225 0 225 -655 0 -655 0 0 2006 c0 2222 5 2047
-64 2097 -28 20 -44 22 -181 24 -82 1 -163 -2 -180 -7z m-568 -4117 c-2 -2
-540 -2 -1196 -1 l-1192 3 1193 1455 1193 1456 3 -1455 c1 -800 1 -1456 -1
-1458z"/>
</g>
</svg>
