<?xml version="1.0" standalone="no"?>
<!DOCTYPE svg PUBLIC "-//W3C//DTD SVG 20010904//EN"
 "http://www.w3.org/TR/2001/REC-SVG-20010904/DTD/svg10.dtd">
<svg version="1.0" xmlns="http://www.w3.org/2000/svg"
 width="499.000000pt" height="992.000000pt" viewBox="0 0 499.000000 992.000000"
 preserveAspectRatio="xMidYMid meet">
<metadata>
Created by potrace 1.16, written by Peter Selinger 2001-2019
</metadata>
<g transform="translate(0.000000,992.000000) scale(0.100000,-0.100000)"
fill="#000000" stroke="none">
<path d="M2370 9914 c-211 -41 -400 -149 -520 -297 -64 -79 -133 -211 -162
-313 -33 -113 -33 -315 0 -428 66 -230 215 -413 423 -521 135 -70 219 -90 379
-90 160 0 244 20 379 90 161 83 273 195 356 356 70 135 90 219 90 379 0 160
-20 244 -90 379 -107 206 -290 356 -515 421 -74 21 -279 36 -340 24z"/>
<path d="M2103 7175 c-69 -30 -69 -31 -76 -473 -6 -412 -17 -550 -58 -741
-103 -473 -326 -907 -678 -1316 -176 -204 -360 -372 -638 -583 -184 -139 -294
-251 -389 -393 -113 -170 -188 -351 -236 -571 -32 -150 -32 -456 0 -606 48
-221 122 -401 239 -576 79 -119 240 -284 358 -368 251 -177 575 -305 930 -369
72 -12 131 -23 131 -23 1 -1 -4 -66 -12 -146 -26 -287 -14 -404 61 -557 160
-325 543 -508 915 -437 325 61 574 287 650 588 24 95 25 192 5 411 -8 88 -15
169 -15 180 0 18 17 25 138 54 205 51 438 133 610 216 522 253 816 594 918
1066 26 121 26 378 0 469 -73 253 -249 429 -501 502 -114 33 -306 33 -420 0
-204 -59 -362 -188 -449 -367 -55 -113 -71 -192 -71 -340 0 -148 16 -227 71
-340 83 -171 244 -307 427 -360 l58 -17 -33 -25 c-119 -88 -315 -185 -500
-246 -124 -42 -285 -83 -292 -76 -3 3 -113 1213 -245 2688 -263 2959 -236
2715 -312 2753 -30 16 -66 18 -294 18 -201 -1 -267 -4 -292 -15z m-256 -4237
c-60 -673 -110 -1224 -112 -1226 -6 -7 -132 62 -175 96 -95 74 -134 139 -163
267 -31 139 -42 287 -42 610 0 266 3 339 18 430 44 259 104 394 272 605 62 79
158 210 212 292 54 81 98 148 98 148 0 0 -48 -550 -108 -1222z"/>
</g>
</svg>
