<?xml version="1.0" standalone="no"?>
<!DOCTYPE svg PUBLIC "-//W3C//DTD SVG 20010904//EN"
 "http://www.w3.org/TR/2001/REC-SVG-20010904/DTD/svg10.dtd">
<svg version="1.0" xmlns="http://www.w3.org/2000/svg"
 width="499.000000pt" height="992.000000pt" viewBox="0 0 499.000000 992.000000"
 preserveAspectRatio="xMidYMid meet">
<metadata>
Created by potrace 1.16, written by Peter Selinger 2001-2019
</metadata>
<g transform="translate(0.000000,992.000000) scale(0.100000,-0.100000)"
fill="#000000" stroke="none">
<path d="M2340 9905 c-298 -63 -528 -282 -607 -575 -24 -89 -24 -291 0 -380
60 -223 209 -405 412 -506 129 -63 196 -79 345 -79 149 0 216 16 345 79 203
101 352 283 412 506 24 89 24 290 0 380 -25 94 -97 235 -160 311 -95 114 -254
215 -402 255 -83 22 -264 27 -345 9z"/>
<path d="M2119 7221 l-39 -39 0 -278 c-1 -597 -30 -845 -137 -1179 -150 -464
-398 -865 -778 -1254 -158 -162 -303 -287 -527 -454 -170 -127 -274 -231 -367
-366 -112 -165 -198 -368 -243 -575 -32 -147 -32 -456 0 -599 78 -353 247
-645 491 -850 266 -224 653 -387 1087 -458 71 -11 130 -22 132 -24 2 -1 -4
-79 -12 -173 -29 -307 -17 -404 65 -565 61 -118 190 -245 315 -309 141 -73
223 -93 384 -93 161 0 243 20 384 93 125 64 254 191 315 309 82 160 94 261 66
558 -8 88 -15 178 -15 200 l0 41 93 18 c217 44 501 136 694 226 517 242 832
602 928 1060 26 121 31 310 11 410 -48 244 -210 427 -451 507 -72 24 -95 27
-220 27 -125 0 -148 -3 -220 -27 -304 -102 -480 -365 -462 -692 14 -261 148
-469 372 -574 56 -27 105 -41 220 -66 l30 -7 -50 -46 c-106 -97 -276 -196
-474 -277 -163 -67 -491 -158 -508 -142 -3 4 -115 1252 -248 2774 -155 1773
-247 2778 -255 2796 -8 15 -28 36 -45 47 -30 18 -51 20 -265 20 l-232 0 -39
-39z m-214 -4200 c-68 -777 -127 -1416 -129 -1419 -11 -10 -147 50 -219 97
-88 58 -166 139 -202 211 -15 29 -37 94 -50 144 -40 160 -50 287 -49 636 0
287 3 339 22 440 49 269 112 404 292 628 182 228 320 431 420 620 18 34 34 61
36 60 1 -2 -53 -639 -121 -1417z"/>
</g>
</svg>
