<?xml version="1.0" standalone="no"?>
<!DOCTYPE svg PUBLIC "-//W3C//DTD SVG 20010904//EN"
 "http://www.w3.org/TR/2001/REC-SVG-20010904/DTD/svg10.dtd">
<svg version="1.0" xmlns="http://www.w3.org/2000/svg"
 width="372.000000pt" height="499.000000pt" viewBox="0 0 372.000000 499.000000"
 preserveAspectRatio="xMidYMid meet">
<metadata>
Created by potrace 1.16, written by Peter Selinger 2001-2019
</metadata>
<g transform="translate(0.000000,499.000000) scale(0.100000,-0.100000)"
fill="#000000" stroke="none">
<path d="M525 4975 c-303 -69 -499 -290 -521 -588 -5 -69 33 -429 235 -2212
133 -1172 244 -2140 247 -2152 4 -23 5 -23 209 -23 163 0 205 3 205 13 0 7
108 964 240 2125 138 1210 240 2149 240 2199 -1 189 -56 330 -180 453 -82 82
-166 133 -285 170 -89 28 -298 37 -390 15z"/>
<path d="M2871 4980 c-148 -31 -263 -92 -361 -190 -124 -123 -179 -264 -180
-453 0 -50 102 -989 240 -2199 132 -1161 240 -2118 240 -2125 0 -10 42 -13
205 -13 204 0 205 0 209 23 3 12 114 980 247 2152 202 1783 240 2143 235 2212
-21 282 -203 501 -481 579 -70 19 -287 28 -354 14z"/>
</g>
</svg>
