<?xml version="1.0" standalone="no"?>
<!DOCTYPE svg PUBLIC "-//W3C//DTD SVG 20010904//EN"
 "http://www.w3.org/TR/2001/REC-SVG-20010904/DTD/svg10.dtd">
<svg version="1.0" xmlns="http://www.w3.org/2000/svg"
 width="499.000000pt" height="992.000000pt" viewBox="0 0 499.000000 992.000000"
 preserveAspectRatio="xMidYMid meet">
<metadata>
Created by potrace 1.16, written by Peter Selinger 2001-2019
</metadata>
<g transform="translate(0.000000,992.000000) scale(0.100000,-0.100000)"
fill="#000000" stroke="none">
<path d="M2370 9914 c-87 -17 -186 -51 -264 -92 -125 -64 -254 -191 -315 -309
-82 -160 -94 -261 -66 -558 8 -88 15 -169 15 -180 0 -17 -13 -22 -98 -39 -133
-25 -376 -96 -499 -145 -616 -246 -998 -643 -1114 -1161 -29 -128 -36 -325
-15 -430 48 -244 210 -427 451 -507 72 -24 95 -27 220 -27 125 0 148 3 220 27
304 102 480 365 462 692 -17 330 -225 567 -551 631 l-87 17 33 35 c47 49 181
152 263 202 108 66 259 135 406 184 125 41 335 93 344 84 2 -2 87 -953 188
-2113 176 -2007 184 -2113 172 -2180 -44 -230 -48 -299 -52 -808 l-4 -498 39
-39 40 -40 232 0 c217 0 235 1 266 20 21 14 38 35 47 63 10 27 42 358 93 947
l77 905 82 125 c264 398 650 769 1120 1075 320 208 353 232 454 330 139 134
218 242 301 410 115 232 156 417 146 660 -8 207 -51 375 -144 560 -124 248
-331 472 -574 619 -114 69 -348 179 -479 224 -125 44 -401 115 -486 127 -63 8
-60 -9 -38 230 28 297 16 398 -66 558 -61 118 -190 245 -314 309 -130 67 -215
89 -360 93 -66 2 -131 1 -145 -1z m975 -1732 c92 -55 222 -177 256 -242 98
-188 137 -436 126 -805 -8 -267 -45 -431 -136 -613 -61 -121 -116 -187 -373
-442 -175 -174 -235 -228 -232 -210 2 14 50 557 106 1207 l102 1181 36 -14
c19 -8 71 -36 115 -62z"/>
<path d="M2340 1545 c-298 -63 -528 -282 -607 -575 -24 -89 -24 -291 0 -380
60 -223 209 -405 412 -506 129 -63 196 -79 345 -79 149 0 216 16 345 79 203
101 352 283 412 506 24 89 24 290 0 380 -25 94 -97 235 -160 311 -95 114 -254
215 -402 255 -83 22 -264 27 -345 9z"/>
</g>
</svg>
