<?xml version="1.0" standalone="no"?>
<!DOCTYPE svg PUBLIC "-//W3C//DTD SVG 20010904//EN"
 "http://www.w3.org/TR/2001/REC-SVG-20010904/DTD/svg10.dtd">
<svg version="1.0" xmlns="http://www.w3.org/2000/svg"
 width="140.000000pt" height="499.000000pt" viewBox="0 0 140.000000 499.000000"
 preserveAspectRatio="xMidYMid meet">
<metadata>
Created by potrace 1.16, written by Peter Selinger 2001-2019
</metadata>
<g transform="translate(0.000000,499.000000) scale(0.100000,-0.100000)"
fill="#000000" stroke="none">
<path d="M525 4974 c-38 -8 -112 -35 -164 -60 -77 -37 -108 -59 -172 -123
-125 -125 -182 -267 -182 -456 0 -65 84 -835 237 -2175 130 -1141 239 -2094
242 -2118 l6 -42 203 0 203 0 6 43 c3 23 112 976 242 2117 153 1340 237 2110
237 2175 0 189 -57 331 -182 456 -64 64 -95 86 -172 123 -53 26 -128 52 -171
61 -95 19 -240 18 -333 -1z"/>
</g>
</svg>
