<?xml version="1.0" standalone="no"?>
<!DOCTYPE svg PUBLIC "-//W3C//DTD SVG 20010904//EN"
 "http://www.w3.org/TR/2001/REC-SVG-20010904/DTD/svg10.dtd">
<svg version="1.0" xmlns="http://www.w3.org/2000/svg"
 width="305.000000pt" height="1398.000000pt" viewBox="0 0 305.000000 1398.000000"
 preserveAspectRatio="xMidYMid meet">
<metadata>
Created by potrace 1.16, written by Peter Selinger 2001-2019
</metadata>
<g transform="translate(0.000000,1398.000000) scale(0.100000,-0.100000)"
fill="#000000" stroke="none">
<path d="M2535 13969 c-632 -42 -1233 -198 -1640 -425 -494 -276 -772 -628
-871 -1099 -18 -86 -19 -167 -19 -1960 0 -1770 1 -1875 18 -1960 115 -562 504
-1002 1137 -1285 117 -53 451 -170 483 -170 9 0 17 -4 17 -10 0 -5 -8 -10 -17
-10 -10 0 -97 -27 -193 -59 -811 -275 -1295 -748 -1427 -1396 -17 -85 -18
-191 -18 -1970 l0 -1880 22 -101 c57 -255 147 -453 298 -653 77 -102 240 -266
340 -342 506 -387 1245 -617 2070 -645 221 -8 251 -1 285 67 29 56 29 220 0
267 -38 63 -60 68 -273 75 -279 8 -469 46 -692 138 -212 87 -390 206 -555 369
-215 215 -348 456 -413 749 -21 95 -21 107 -25 1896 -3 1870 -3 1903 39 2076
129 539 623 988 1264 1148 130 33 270 52 427 60 160 8 183 16 218 74 29 47 29
227 0 274 -35 58 -58 66 -218 74 -157 8 -297 27 -427 60 -641 160 -1135 609
-1264 1148 -42 173 -42 206 -38 2071 3 1655 4 1800 20 1865 66 269 164 442
362 641 335 336 805 514 1357 514 153 0 188 11 218 71 29 56 29 220 0 267 -39
63 -68 72 -225 71 -77 -1 -194 -5 -260 -10z"/>
</g>
</svg>
