<?xml version="1.0" standalone="no"?>
<!DOCTYPE svg PUBLIC "-//W3C//DTD SVG 20010904//EN"
 "http://www.w3.org/TR/2001/REC-SVG-20010904/DTD/svg10.dtd">
<svg version="1.0" xmlns="http://www.w3.org/2000/svg"
 width="941.000000pt" height="1115.000000pt" viewBox="0 0 941.000000 1115.000000"
 preserveAspectRatio="xMidYMid meet">
<metadata>
Created by potrace 1.16, written by Peter Selinger 2001-2019
</metadata>
<g transform="translate(0.000000,1115.000000) scale(0.100000,-0.100000)"
fill="#000000" stroke="none">
<path d="M4530 10837 l0 -314 -159 -16 c-427 -45 -861 -152 -1266 -312 -160
-63 -511 -236 -658 -324 -385 -230 -672 -457 -992 -783 -189 -192 -291 -309
-429 -493 -1005 -1340 -1294 -3121 -767 -4722 206 -628 512 -1182 932 -1688
115 -138 420 -446 563 -568 220 -189 439 -346 693 -498 147 -88 498 -261 658
-324 405 -160 839 -267 1266 -312 l159 -16 0 -234 0 -233 310 0 310 0 0 234 0
235 58 6 c266 28 439 58 647 112 437 112 827 297 1115 530 96 78 271 259 334
344 l48 66 166 -167 c173 -173 300 -279 510 -428 171 -121 240 -162 276 -162
45 0 97 31 118 71 17 32 18 97 18 1425 0 1507 -2 1439 54 1524 59 90 193 117
629 127 l277 6 0 310 0 309 -102 -6 c-676 -41 -2886 -41 -3865 0 l-153 7 0
-312 0 -311 318 0 c360 0 789 -14 967 -31 251 -24 374 -80 426 -194 17 -37 19
-81 19 -685 0 -711 -3 -763 -60 -932 -167 -499 -705 -875 -1395 -973 -55 -8
-169 -18 -252 -22 l-153 -6 0 4418 0 4418 103 -7 c409 -28 742 -141 1081 -367
404 -269 742 -672 1006 -1199 238 -475 386 -984 464 -1591 34 -274 28 -269
328 -269 229 0 255 6 290 71 17 32 18 113 18 1954 0 1841 -1 1922 -18 1954
-29 53 -72 71 -172 71 -65 0 -92 -4 -115 -18 -17 -11 -208 -253 -444 -565
l-413 -545 -92 95 c-432 453 -985 782 -1566 934 -125 33 -381 79 -436 79 l-34
0 0 320 0 320 -310 0 -310 0 0 -313z m0 -5333 l0 -4356 -47 7 c-88 13 -326 76
-457 122 -799 278 -1428 795 -1836 1507 -380 663 -571 1573 -570 2716 1 1597
345 2672 1095 3426 460 462 1039 774 1690 910 61 12 113 23 118 23 4 1 7
-1959 7 -4355z"/>
</g>
</svg>
