<?xml version="1.0" standalone="no"?>
<!DOCTYPE svg PUBLIC "-//W3C//DTD SVG 20010904//EN"
 "http://www.w3.org/TR/2001/REC-SVG-20010904/DTD/svg10.dtd">
<svg version="1.0" xmlns="http://www.w3.org/2000/svg"
 width="931.000000pt" height="937.000000pt" viewBox="0 0 931.000000 937.000000"
 preserveAspectRatio="xMidYMid meet">
<metadata>
Created by potrace 1.16, written by Peter Selinger 2001-2019
</metadata>
<g transform="translate(0.000000,937.000000) scale(0.100000,-0.100000)"
fill="#000000" stroke="none">
<path d="M0 9147 l0 -224 343 -6 c619 -11 822 -45 915 -152 42 -47 77 -118 91
-183 16 -76 16 -7418 0 -7494 -14 -65 -49 -136 -91 -183 -93 -107 -296 -141
-915 -152 l-343 -6 0 -225 0 -225 117 7 c731 39 2504 39 3021 0 l82 -6 0 224
0 225 -172 6 c-359 12 -462 64 -497 252 -8 41 -11 600 -11 1862 l0 1804 913
-3 c904 -3 913 -4 1020 -26 583 -123 1032 -509 1220 -1048 81 -232 87 -305 88
-1143 l1 -716 -569 -472 c-312 -260 -567 -475 -567 -479 1 -3 60 -76 130 -162
71 -85 134 -162 139 -169 9 -12 109 67 489 382 263 218 482 393 486 388 4 -4
22 -42 39 -84 78 -190 210 -378 379 -540 144 -139 265 -223 457 -319 352 -175
722 -261 1195 -277 213 -7 338 8 474 58 485 177 825 731 853 1389 5 130 4 136
-18 169 -45 64 -71 76 -164 76 -69 0 -88 -4 -112 -21 -51 -38 -73 -81 -73
-144 0 -173 -47 -430 -106 -585 -102 -263 -247 -441 -439 -536 -110 -54 -203
-72 -335 -66 -445 24 -654 346 -804 1242 -76 450 -107 679 -94 691 7 6 488
404 1068 884 580 480 1063 880 1072 889 16 15 7 28 -124 186 -78 94 -145 169
-149 168 -4 -2 -445 -365 -980 -808 -534 -443 -974 -803 -977 -801 -2 3 -19
99 -38 213 -49 305 -85 432 -183 638 -105 220 -268 434 -468 617 -245 225
-533 391 -938 543 -16 6 -8 11 35 22 284 73 574 183 835 317 319 163 546 320
761 528 319 309 505 626 585 998 20 89 23 135 23 300 0 172 -3 210 -27 321
-78 370 -262 701 -562 1008 -600 616 -1516 993 -2580 1061 -100 6 -963 10
-2327 10 l-2168 0 0 -223z m4322 -237 c485 -34 880 -141 1190 -323 449 -264
651 -594 735 -1197 21 -158 25 -641 5 -800 -58 -472 -192 -778 -444 -1015
-282 -267 -715 -454 -1213 -524 -251 -36 -413 -41 -1244 -41 l-811 0 0 1798
c0 1256 3 1816 11 1857 30 161 113 221 342 245 111 11 1256 11 1429 0z"/>
</g>
</svg>
