<?xml version="1.0" standalone="no"?>
<!DOCTYPE svg PUBLIC "-//W3C//DTD SVG 20010904//EN"
 "http://www.w3.org/TR/2001/REC-SVG-20010904/DTD/svg10.dtd">
<svg version="1.0" xmlns="http://www.w3.org/2000/svg"
 width="309.000000pt" height="1384.000000pt" viewBox="0 0 309.000000 1384.000000"
 preserveAspectRatio="xMidYMid meet">
<metadata>
Created by potrace 1.16, written by Peter Selinger 2001-2019
</metadata>
<g transform="translate(0.000000,1384.000000) scale(0.100000,-0.100000)"
fill="#000000" stroke="none">
<path d="M180 13823 c-27 -10 -65 -37 -97 -68 -62 -62 -89 -136 -80 -219 3
-34 424 -1155 1251 -3333 l1246 -3283 -1246 -3282 c-827 -2179 -1248 -3300
-1251 -3334 -17 -158 116 -304 277 -304 108 0 205 64 253 166 15 33 593 1548
1284 3369 l1257 3310 0 75 0 75 -1257 3310 c-691 1821 -1269 3336 -1284 3369
-64 136 -212 198 -353 149z"/>
</g>
</svg>
