<?xml version="1.0" standalone="no"?>
<!DOCTYPE svg PUBLIC "-//W3C//DTD SVG 20010904//EN"
 "http://www.w3.org/TR/2001/REC-SVG-20010904/DTD/svg10.dtd">
<svg version="1.0" xmlns="http://www.w3.org/2000/svg"
 width="595.000000pt" height="1338.000000pt" viewBox="0 0 595.000000 1338.000000"
 preserveAspectRatio="xMidYMid meet">
<metadata>
Created by potrace 1.16, written by Peter Selinger 2001-2019
</metadata>
<g transform="translate(0.000000,1338.000000) scale(0.100000,-0.100000)"
fill="#000000" stroke="none">
<path d="M3196 13299 c-493 -299 -1142 -448 -2034 -466 l-302 -6 0 -310 0
-310 303 6 c485 10 880 55 1209 138 42 10 81 19 87 19 15 0 15 -4078 1 -4130
-22 -80 -108 -156 -207 -183 -126 -35 -494 -57 -945 -57 l-258 0 0 -311 0
-312 128 7 c819 41 2989 41 3780 0 l122 -6 0 309 0 310 -397 6 c-557 9 -745
28 -847 85 -58 33 -110 95 -126 150 -7 25 -10 844 -10 2531 l0 2493 -21 38
c-12 21 -38 47 -59 59 -33 19 -53 21 -166 20 l-129 -1 -129 -79z"/>
<path d="M210 6811 c-83 -26 -141 -74 -181 -151 -19 -35 -24 -61 -24 -120 1
-116 50 -196 155 -251 l45 -24 2750 -3 c3115 -2 2807 -11 2901 83 112 112 112
278 1 390 -95 94 213 85 -2886 84 -1505 0 -2747 -4 -2761 -8z"/>
<path d="M2380 6000 c-517 -35 -900 -123 -1203 -277 -397 -202 -603 -531 -584
-933 7 -143 25 -217 87 -345 94 -196 247 -324 480 -401 80 -26 95 -28 255 -28
160 0 175 2 255 28 233 77 386 205 480 401 71 147 85 211 85 390 -1 124 -4
163 -22 227 -30 104 -64 178 -117 254 l-45 64 26 6 c41 11 386 -3 518 -21 628
-83 1071 -352 1228 -746 52 -131 62 -189 61 -384 0 -146 -5 -199 -22 -282 -85
-393 -312 -755 -751 -1193 -198 -197 -230 -225 -1411 -1249 -542 -470 -1007
-875 -1033 -900 -78 -75 -77 -68 -77 -356 l0 -255 2190 0 2189 0 6 33 c3 17
86 590 185 1272 99 682 182 1255 185 1273 l6 32 -275 0 -275 0 -6 -32 c-2 -18
-21 -139 -41 -268 -90 -596 -184 -941 -267 -975 -44 -18 -177 -33 -397 -46
-250 -14 -1978 -24 -1965 -11 23 22 1168 831 1284 907 69 45 259 162 421 260
590 356 843 537 1071 772 319 327 461 675 445 1093 -33 922 -775 1524 -2066
1676 -158 18 -708 27 -900 14z"/>
</g>
</svg>
