<?xml version="1.0" standalone="no"?>
<!DOCTYPE svg PUBLIC "-//W3C//DTD SVG 20010904//EN"
 "http://www.w3.org/TR/2001/REC-SVG-20010904/DTD/svg10.dtd">
<svg version="1.0" xmlns="http://www.w3.org/2000/svg"
 width="615.000000pt" height="170.000000pt" viewBox="0 0 615.000000 170.000000"
 preserveAspectRatio="xMidYMid meet">
<metadata>
Created by potrace 1.16, written by Peter Selinger 2001-2019
</metadata>
<g transform="translate(0.000000,170.000000) scale(0.100000,-0.100000)"
fill="#000000" stroke="none">
<path d="M1785 1689 c-156 -23 -355 -93 -500 -176 -325 -187 -564 -407 -1028
-947 l-258 -299 33 -27 c18 -15 87 -74 153 -132 l120 -104 225 227 c124 125
268 259 320 299 360 276 644 390 973 390 164 0 273 -18 435 -72 205 -68 374
-156 826 -432 248 -152 410 -238 562 -300 634 -259 1195 -83 1840 575 77 79
256 279 397 443 l258 299 -33 27 c-18 15 -87 74 -153 132 l-120 104 -225 -227
c-124 -125 -268 -259 -320 -299 -360 -276 -644 -390 -973 -390 -164 0 -273 18
-435 72 -205 68 -374 156 -826 432 -428 261 -657 361 -921 401 -108 16 -254
18 -350 4z"/>
</g>
</svg>
