<?xml version="1.0" standalone="no"?>
<!DOCTYPE svg PUBLIC "-//W3C//DTD SVG 20010904//EN"
 "http://www.w3.org/TR/2001/REC-SVG-20010904/DTD/svg10.dtd">
<svg version="1.0" xmlns="http://www.w3.org/2000/svg"
 width="1372.000000pt" height="976.000000pt" viewBox="0 0 1372.000000 976.000000"
 preserveAspectRatio="xMidYMid meet">
<metadata>
Created by potrace 1.16, written by Peter Selinger 2001-2019
</metadata>
<g transform="translate(0.000000,976.000000) scale(0.100000,-0.100000)"
fill="#000000" stroke="none">
<path d="M0 9451 l0 -311 208 0 c411 0 717 -28 819 -75 69 -31 144 -103 178
-168 19 -38 825 -2532 825 -2554 0 -1 -265 -4 -588 -5 l-589 -3 -49 -30 c-57
-36 -110 -115 -120 -181 -18 -126 71 -255 196 -283 28 -7 283 -11 680 -11
l636 0 344 -1076 c190 -592 346 -1082 348 -1090 3 -12 -158 -14 -1016 -16
l-1019 -3 -49 -30 c-57 -36 -110 -115 -120 -181 -18 -126 71 -255 196 -283 29
-7 420 -11 1111 -11 l1066 0 484 -1512 484 -1513 45 -47 c29 -29 59 -50 85
-57 51 -14 338 -14 388 0 43 11 111 68 131 108 7 14 228 700 492 1523 l479
1498 1210 0 1210 0 479 -1497 c264 -824 485 -1510 492 -1524 20 -40 88 -97
131 -108 50 -14 337 -14 388 0 26 7 56 28 85 57 l45 47 484 1513 484 1512
1066 0 c691 0 1082 4 1111 11 125 28 214 157 196 283 -10 66 -63 145 -120 181
l-49 30 -1019 3 c-858 2 -1019 4 -1016 16 2 8 158 498 348 1090 l344 1076 636
0 c397 0 652 4 680 11 125 28 214 157 196 283 -10 66 -63 145 -120 181 l-49
30 -589 3 -589 2 7 23 c62 202 679 2118 693 2153 43 112 135 238 234 322 215
185 513 279 945 298 l152 7 0 310 0 310 -77 -7 c-515 -41 -2233 -41 -2935 0
l-108 7 0 -312 0 -311 63 0 c105 0 286 -20 413 -45 266 -54 479 -157 606 -294
74 -80 109 -153 115 -239 4 -66 -3 -90 -340 -1142 l-345 -1075 -1300 -3 -1300
-2 -16 47 c-295 906 -786 2466 -786 2496 0 35 6 47 43 82 56 53 143 88 299
119 180 36 284 46 570 53 l258 6 0 310 0 310 -127 -7 c-823 -41 -2999 -41
-3635 0 l-98 7 0 -312 0 -311 208 0 c411 -1 718 -28 818 -74 63 -29 136 -94
169 -150 27 -47 355 -1063 355 -1098 -1 -13 -106 -349 -234 -748 l-232 -725
-1301 -3 -1300 -2 -401 1254 c-221 690 -402 1267 -402 1283 0 156 318 246 918
260 l252 6 0 310 0 310 -128 -7 c-826 -41 -2926 -41 -3624 0 l-108 7 0 -312z
m6944 -2809 c48 -150 89 -279 92 -287 5 -13 -20 -15 -181 -15 -145 0 -186 3
-182 13 2 6 44 137 93 289 48 152 89 276 90 275 1 -1 40 -125 88 -275z m-1050
-919 c-18 -60 -175 -549 -348 -1088 l-314 -980 -439 -3 -439 -2 -344 1076
c-190 592 -346 1083 -348 1090 -3 12 169 14 1131 14 l1135 0 -34 -107z m1655
-971 c189 -592 346 -1083 349 -1089 3 -10 -210 -13 -1043 -13 -833 0 -1046 3
-1043 13 3 6 160 497 349 1089 l344 1078 350 0 350 0 344 -1078z m3388 1071
c-3 -5 -147 -453 -321 -998 -174 -544 -331 -1032 -347 -1082 l-31 -93 -439 0
c-241 0 -439 2 -439 5 0 2 -153 483 -340 1067 -188 585 -343 1073 -346 1086
l-6 22 1137 0 c625 0 1134 -3 1132 -7z m-5933 -2880 c-35 -109 -96 -300 -136
-426 -40 -125 -75 -221 -79 -215 -5 10 -210 642 -263 816 l-7 22 274 0 275 0
-64 -197z m5066 188 c0 -27 -269 -843 -274 -831 -11 28 -266 828 -266 834 0 3
122 6 270 6 149 0 270 -4 270 -9z"/>
</g>
</svg>
