<?xml version="1.0" standalone="no"?>
<!DOCTYPE svg PUBLIC "-//W3C//DTD SVG 20010904//EN"
 "http://www.w3.org/TR/2001/REC-SVG-20010904/DTD/svg10.dtd">
<svg version="1.0" xmlns="http://www.w3.org/2000/svg"
 width="589.000000pt" height="249.000000pt" viewBox="0 0 589.000000 249.000000"
 preserveAspectRatio="xMidYMid meet">
<metadata>
Created by potrace 1.16, written by Peter Selinger 2001-2019
</metadata>
<g transform="translate(0.000000,249.000000) scale(0.100000,-0.100000)"
fill="#000000" stroke="none">
<path d="M0 2437 c0 -94 20 -268 46 -395 99 -489 389 -965 794 -1304 1034
-867 2623 -983 3813 -277 622 369 1052 944 1181 1581 26 127 46 301 46 395 l0
53 -254 0 -253 0 -7 -97 c-40 -570 -391 -1042 -1001 -1346 -306 -152 -644
-248 -1055 -299 -138 -17 -602 -17 -740 0 -411 51 -749 147 -1055 299 -610
304 -961 776 -1001 1346 l-7 97 -253 0 -254 0 0 -53z"/>
</g>
</svg>
