<?xml version="1.0" standalone="no"?>
<!DOCTYPE svg PUBLIC "-//W3C//DTD SVG 20010904//EN"
 "http://www.w3.org/TR/2001/REC-SVG-20010904/DTD/svg10.dtd">
<svg version="1.0" xmlns="http://www.w3.org/2000/svg"
 width="584.000000pt" height="658.000000pt" viewBox="0 0 584.000000 658.000000"
 preserveAspectRatio="xMidYMid meet">
<metadata>
Created by potrace 1.16, written by Peter Selinger 2001-2019
</metadata>
<g transform="translate(0.000000,658.000000) scale(0.100000,-0.100000)"
fill="#000000" stroke="none">
<path d="M2670 6574 c-533 -46 -864 -126 -1220 -297 -739 -354 -1210 -1052
-1374 -2037 -92 -552 -100 -1281 -20 -1830 131 -899 512 -1569 1114 -1959 453
-293 1063 -451 1745 -451 779 0 1452 203 1925 580 113 90 289 273 377 390 290
386 473 860 557 1440 64 439 72 1063 21 1540 -115 1052 -526 1803 -1215 2218
-342 207 -733 331 -1215 388 -122 14 -596 27 -695 18z m615 -533 c573 -97 941
-382 1064 -824 105 -374 137 -899 128 -2062 -8 -947 -34 -1324 -116 -1676 -86
-369 -276 -612 -612 -784 -482 -246 -1186 -246 -1668 0 -336 172 -526 415
-612 784 -82 352 -108 729 -116 1676 -12 1483 48 2038 254 2348 212 319 599
514 1113 561 114 10 448 -3 565 -23z"/>
</g>
</svg>
