<?xml version="1.0" standalone="no"?>
<!DOCTYPE svg PUBLIC "-//W3C//DTD SVG 20010904//EN"
 "http://www.w3.org/TR/2001/REC-SVG-20010904/DTD/svg10.dtd">
<svg version="1.0" xmlns="http://www.w3.org/2000/svg"
 width="382.000000pt" height="495.000000pt" viewBox="0 0 382.000000 495.000000"
 preserveAspectRatio="xMidYMid meet">
<metadata>
Created by potrace 1.16, written by Peter Selinger 2001-2019
</metadata>
<g transform="translate(0.000000,495.000000) scale(0.100000,-0.100000)"
fill="#000000" stroke="none">
<path d="M580 4936 c-283 -60 -471 -226 -551 -486 -46 -146 -47 -130 214
-2370 131 -1119 240 -2045 243 -2057 l4 -23 255 0 c202 0 255 3 255 13 0 7
108 941 240 2074 159 1370 240 2095 240 2160 0 54 -7 130 -15 168 -40 189
-177 362 -356 449 -52 24 -121 52 -154 61 -83 22 -292 28 -375 11z"/>
<path d="M2945 4943 c-73 -10 -157 -38 -244 -79 -77 -38 -108 -60 -176 -127
-136 -135 -194 -283 -195 -490 0 -65 81 -790 240 -2160 132 -1133 240 -2067
240 -2074 0 -10 53 -13 255 -13 l255 0 4 23 c3 12 112 938 243 2057 261 2240
260 2224 214 2370 -51 166 -160 310 -294 389 -149 88 -363 129 -542 104z"/>
</g>
</svg>
