<?xml version="1.0" standalone="no"?>
<!DOCTYPE svg PUBLIC "-//W3C//DTD SVG 20010904//EN"
 "http://www.w3.org/TR/2001/REC-SVG-20010904/DTD/svg10.dtd">
<svg version="1.0" xmlns="http://www.w3.org/2000/svg"
 width="1401.000000pt" height="1070.000000pt" viewBox="0 0 1401.000000 1070.000000"
 preserveAspectRatio="xMidYMid meet">
<metadata>
Created by potrace 1.16, written by Peter Selinger 2001-2019
</metadata>
<g transform="translate(0.000000,1070.000000) scale(0.100000,-0.100000)"
fill="#000000" stroke="none">
<path d="M1755 10685 c-176 -28 -307 -71 -475 -155 -665 -334 -1135 -1108
-1257 -2070 -24 -189 -24 -681 0 -870 55 -432 180 -831 364 -1164 318 -575
768 -937 1310 -1051 118 -25 328 -31 439 -11 486 84 895 438 1191 1031 248
495 367 1087 350 1740 -9 341 -41 588 -112 871 -29 114 -108 363 -140 437 -5
13 9 8 56 -19 456 -259 1006 -435 1549 -495 149 -17 612 -17 755 -1 459 53
879 178 1253 372 104 54 112 56 96 32 -9 -15 -1357 -2021 -2996 -4459 -1638
-2438 -2991 -4454 -3006 -4480 -23 -40 -27 -60 -27 -123 0 -85 15 -122 74
-183 93 -99 234 -114 346 -37 36 25 588 841 3471 5130 1886 2805 3438 5117
3449 5137 15 28 20 57 20 113 0 87 -19 134 -75 190 -56 56 -103 75 -190 75
-118 -1 -169 -37 -287 -202 -400 -562 -1010 -974 -1700 -1146 -271 -68 -511
-97 -809 -97 -561 0 -1082 124 -1588 377 -327 163 -619 366 -877 609 -192 181
-294 258 -446 333 -232 116 -489 156 -738 116z m405 -351 c272 -68 548 -312
755 -668 198 -342 312 -707 371 -1196 25 -204 25 -686 0 -890 -34 -283 -76
-480 -147 -693 -290 -874 -879 -1351 -1421 -1150 -257 95 -505 382 -651 753
-149 377 -207 803 -207 1535 0 732 58 1158 207 1535 171 434 466 734 778 790
69 12 236 4 315 -16z"/>
<path d="M7700 5343 c-76 -8 -237 -46 -333 -79 -474 -165 -874 -552 -1147
-1109 -168 -342 -267 -689 -312 -1090 -17 -157 -17 -623 0 -780 45 -401 144
-748 312 -1090 270 -551 668 -939 1135 -1105 362 -128 701 -119 1011 29 656
313 1127 1191 1204 2246 52 718 -77 1424 -361 1973 -181 352 -407 619 -678
801 -142 97 -351 177 -515 200 -73 10 -237 12 -316 4z m300 -347 c390 -70 759
-459 988 -1042 94 -239 158 -509 199 -834 23 -190 23 -700 0 -890 -54 -431
-150 -769 -309 -1079 -341 -667 -870 -961 -1325 -736 -385 190 -657 676 -752
1340 -39 271 -46 413 -46 920 0 507 7 649 46 920 41 289 106 517 209 732 142
298 321 498 543 608 142 71 285 90 447 61z"/>
<path d="M12075 5335 c-176 -28 -307 -71 -475 -155 -665 -334 -1135 -1108
-1257 -2070 -24 -189 -24 -681 0 -870 55 -432 180 -831 364 -1164 318 -575
768 -937 1310 -1051 118 -25 328 -31 439 -11 486 84 895 438 1191 1031 472
943 472 2317 0 3260 -152 304 -336 550 -538 716 -127 105 -179 140 -298 199
-230 115 -487 155 -736 115z m405 -351 c272 -68 548 -312 755 -668 198 -342
312 -707 371 -1196 25 -204 25 -686 0 -890 -34 -283 -76 -480 -147 -693 -290
-874 -879 -1351 -1421 -1150 -257 95 -505 382 -651 753 -149 377 -207 803
-207 1535 0 732 58 1158 207 1535 171 434 466 734 778 790 69 12 236 4 315
-16z"/>
</g>
</svg>
