<?xml version="1.0" standalone="no"?>
<!DOCTYPE svg PUBLIC "-//W3C//DTD SVG 20010904//EN"
 "http://www.w3.org/TR/2001/REC-SVG-20010904/DTD/svg10.dtd">
<svg version="1.0" xmlns="http://www.w3.org/2000/svg"
 width="1327.000000pt" height="1388.000000pt" viewBox="0 0 1327.000000 1388.000000"
 preserveAspectRatio="xMidYMid meet">
<metadata>
Created by potrace 1.16, written by Peter Selinger 2001-2019
</metadata>
<g transform="translate(0.000000,1388.000000) scale(0.100000,-0.100000)"
fill="#000000" stroke="none">
<path d="M6320 13874 c-25 -2 -110 -9 -190 -14 -607 -45 -1256 -197 -1858
-436 -2093 -830 -3664 -2745 -4122 -5024 -173 -860 -197 -1663 -74 -2505 326
-2236 1664 -4154 3608 -5170 747 -391 1569 -628 2446 -707 191 -17 809 -17
1000 0 1253 113 2379 545 3378 1296 1329 1000 2268 2503 2602 4166 173 860
197 1663 74 2505 -326 2236 -1664 4154 -3608 5170 -742 388 -1563 626 -2431
706 -118 10 -737 20 -825 13z m785 -554 c763 -68 1436 -258 2120 -595 1467
-724 2603 -2040 3142 -3640 470 -1396 470 -2894 0 -4290 -539 -1600 -1675
-2916 -3142 -3640 -689 -340 -1351 -525 -2135 -597 -174 -16 -746 -16 -920 0
-784 72 -1446 257 -2135 597 -1162 573 -2126 1524 -2743 2705 -1001 1917
-1001 4243 0 6160 617 1181 1581 2132 2743 2705 690 340 1411 541 2135 595 80
5 165 12 190 14 84 7 624 -3 745 -14z"/>
<path d="M6455 10259 c-1270 -104 -2391 -755 -3015 -1751 -249 -397 -424 -891
-482 -1358 -17 -137 -17 -573 0 -710 58 -467 233 -961 482 -1358 442 -705
1143 -1249 1981 -1537 276 -94 574 -161 899 -202 173 -21 657 -24 810 -5 1372
172 2389 1186 2446 2437 8 159 0 190 -59 225 -46 29 -198 29 -244 0 -49 -29
-60 -61 -67 -200 -20 -384 -128 -719 -333 -1030 -452 -685 -1250 -1060 -2107
-991 -461 37 -858 160 -1224 378 -215 128 -464 343 -619 534 -391 482 -583
1175 -583 2104 0 902 177 1571 543 2057 85 113 263 296 381 391 375 301 809
481 1336 554 192 26 537 23 694 -5 417 -77 769 -266 1078 -578 134 -136 201
-216 297 -360 235 -348 390 -759 446 -1179 28 -211 44 -225 240 -225 111 0
135 3 162 20 67 41 63 -58 63 1390 0 1448 4 1349 -63 1390 -42 26 -139 27
-184 3 -17 -10 -183 -174 -368 -366 -205 -211 -341 -344 -348 -340 -7 4 -41
32 -77 63 -379 331 -845 547 -1360 631 -145 24 -540 34 -725 18z"/>
</g>
</svg>
