<?xml version="1.0" standalone="no"?>
<!DOCTYPE svg PUBLIC "-//W3C//DTD SVG 20010904//EN"
 "http://www.w3.org/TR/2001/REC-SVG-20010904/DTD/svg10.dtd">
<svg version="1.0" xmlns="http://www.w3.org/2000/svg"
 width="554.000000pt" height="890.000000pt" viewBox="0 0 554.000000 890.000000"
 preserveAspectRatio="xMidYMid meet">
<metadata>
Created by potrace 1.16, written by Peter Selinger 2001-2019
</metadata>
<g transform="translate(0.000000,890.000000) scale(0.100000,-0.100000)"
fill="#000000" stroke="none">
<path d="M2585 8894 c-571 -45 -1029 -226 -1463 -581 -147 -119 -386 -362
-511 -518 -347 -432 -525 -855 -593 -1410 -17 -140 -17 -690 0 -830 67 -549
226 -957 536 -1368 435 -579 940 -937 1492 -1057 243 -52 565 -73 775 -51 597
66 1087 438 1406 1069 l73 144 0 -194 c0 -977 -100 -1688 -315 -2238 -269
-691 -775 -1215 -1336 -1384 -173 -52 -247 -61 -489 -60 -523 2 -904 115
-1173 347 -31 28 -57 54 -57 58 0 5 23 9 51 9 77 0 186 28 276 71 368 176 449
717 151 1011 -296 292 -827 211 -1007 -153 -59 -120 -74 -203 -68 -369 15
-368 134 -651 376 -891 259 -257 612 -411 1086 -474 169 -23 482 -30 635 -16
643 62 1252 364 1765 876 662 660 1122 1633 1274 2700 48 335 56 467 56 955
-1 475 -10 695 -46 1050 -57 568 -175 1079 -354 1535 -60 155 -205 450 -290
590 -379 628 -972 1041 -1665 1161 -92 15 -466 27 -585 18z m418 -389 c275
-41 530 -189 740 -430 177 -202 308 -448 377 -710 134 -506 196 -1561 124
-2120 -101 -794 -460 -1430 -952 -1688 -231 -120 -486 -166 -767 -137 -352 36
-612 171 -831 432 -280 334 -392 652 -445 1263 -16 198 -24 1188 -10 1462 30
618 118 957 330 1272 237 352 518 554 877 631 191 40 394 50 557 25z"/>
</g>
</svg>
