<?xml version="1.0" standalone="no"?>
<!DOCTYPE svg PUBLIC "-//W3C//DTD SVG 20010904//EN"
 "http://www.w3.org/TR/2001/REC-SVG-20010904/DTD/svg10.dtd">
<svg version="1.0" xmlns="http://www.w3.org/2000/svg"
 width="1383.000000pt" height="1446.000000pt" viewBox="0 0 1383.000000 1446.000000"
 preserveAspectRatio="xMidYMid meet">
<metadata>
Created by potrace 1.16, written by Peter Selinger 2001-2019
</metadata>
<g transform="translate(0.000000,1446.000000) scale(0.100000,-0.100000)"
fill="#000000" stroke="none">
<path d="M6520 14449 c-2123 -132 -4042 -1248 -5269 -3062 -226 -335 -518
-878 -670 -1247 -776 -1878 -776 -3942 0 -5820 94 -229 331 -697 464 -919 370
-617 806 -1152 1320 -1620 1972 -1795 4740 -2276 7158 -1245 1347 575 2474
1567 3252 2865 133 222 370 690 464 919 776 1878 776 3942 0 5820 -152 369
-444 912 -670 1247 -1169 1729 -2963 2824 -4979 3037 -325 35 -756 45 -1070
25z m730 -559 c1041 -64 2022 -376 2900 -923 1194 -744 2102 -1847 2635 -3202
351 -891 517 -1927 465 -2885 -56 -1009 -295 -1918 -736 -2791 -410 -811 -976
-1522 -1674 -2101 -1107 -918 -2512 -1428 -3930 -1428 -1013 0 -2042 265
-2935 755 -1341 736 -2362 1909 -2940 3380 -351 891 -517 1927 -465 2885 75
1369 512 2624 1284 3690 688 950 1603 1685 2660 2137 861 368 1828 538 2736
483z"/>
<path d="M2490 10072 l0 -309 403 -6 c545 -8 760 -27 862 -77 50 -24 108 -78
132 -123 17 -30 18 -167 18 -2482 0 -2315 -1 -2452 -18 -2482 -24 -45 -82 -99
-132 -123 -102 -50 -317 -69 -862 -77 l-403 -6 0 -310 0 -310 128 7 c819 41
3155 41 3975 0 l127 -7 0 310 0 310 -402 6 c-679 10 -839 33 -942 133 -77 75
-71 -11 -74 1046 l-2 947 1322 4 c1441 3 1399 2 1768 63 474 79 841 196 1237
398 281 143 478 282 669 471 228 225 350 427 421 693 23 85 26 118 27 262 1
182 -12 266 -66 420 -247 707 -1179 1301 -2328 1484 -409 66 -429 66 -3272 66
l-2588 0 0 -308z m5118 -322 c308 -18 518 -53 731 -122 146 -47 350 -147 443
-218 247 -187 361 -543 345 -1070 -15 -488 -137 -771 -404 -944 -249 -160
-545 -250 -978 -297 -76 -8 -466 -13 -1277 -16 l-1168 -4 0 1215 c0 829 3
1231 11 1265 27 128 99 171 317 190 130 12 1781 12 1980 1z"/>
</g>
</svg>
