<?xml version="1.0" standalone="no"?>
<!DOCTYPE svg PUBLIC "-//W3C//DTD SVG 20010904//EN"
 "http://www.w3.org/TR/2001/REC-SVG-20010904/DTD/svg10.dtd">
<svg version="1.0" xmlns="http://www.w3.org/2000/svg"
 width="1226.000000pt" height="982.000000pt" viewBox="0 0 1226.000000 982.000000"
 preserveAspectRatio="xMidYMid meet">
<metadata>
Created by potrace 1.16, written by Peter Selinger 2001-2019
</metadata>
<g transform="translate(0.000000,982.000000) scale(0.100000,-0.100000)"
fill="#000000" stroke="none">
<path d="M5684 9806 c-72 -32 -96 -96 -83 -222 57 -559 118 -1483 149 -2239
67 -1666 10 -4523 -139 -6915 -18 -297 -17 -327 21 -375 42 -54 53 -55 493
-55 440 0 451 1 493 55 38 48 39 78 21 375 -149 2392 -206 5249 -139 6915 31
756 92 1680 149 2239 13 128 -12 191 -85 222 -48 20 -834 20 -880 0z"/>
<path d="M2290 7879 c-604 -68 -1189 -405 -1600 -919 -369 -463 -593 -1019
-671 -1665 -18 -146 -18 -624 0 -770 78 -646 302 -1202 671 -1665 465 -582
1145 -930 1820 -930 817 0 1593 519 2033 1360 195 372 310 756 369 1230 17
139 17 641 0 780 -72 580 -238 1057 -516 1480 -416 632 -1018 1026 -1681 1100
-105 12 -317 11 -425 -1z m418 -740 c425 -46 785 -212 1062 -489 272 -271 471
-663 560 -1100 45 -222 55 -333 55 -640 0 -307 -10 -418 -55 -640 -120 -590
-425 -1067 -852 -1332 -514 -319 -1206 -355 -1735 -90 -452 228 -757 634 -903
1206 -133 520 -133 1192 0 1712 100 394 270 698 523 940 339 324 846 488 1345
433z"/>
<path d="M9520 7879 c-737 -85 -1416 -591 -1813 -1349 -195 -372 -310 -756
-369 -1230 -17 -139 -17 -641 0 -780 59 -474 174 -858 369 -1230 440 -841
1216 -1360 2033 -1360 675 0 1355 348 1820 930 369 463 593 1019 671 1665 18
146 18 624 0 770 -78 646 -302 1202 -671 1665 -416 520 -998 852 -1615 920
-106 12 -319 11 -425 -1z m398 -740 c594 -64 1059 -386 1327 -919 203 -403
298 -1001 255 -1595 -65 -879 -401 -1479 -993 -1777 -529 -265 -1221 -229
-1735 90 -427 265 -732 742 -852 1332 -45 222 -55 333 -55 640 0 307 10 418
55 640 120 590 425 1067 852 1332 330 205 754 300 1146 257z"/>
</g>
</svg>
