<?xml version="1.0" standalone="no"?>
<!DOCTYPE svg PUBLIC "-//W3C//DTD SVG 20010904//EN"
 "http://www.w3.org/TR/2001/REC-SVG-20010904/DTD/svg10.dtd">
<svg version="1.0" xmlns="http://www.w3.org/2000/svg"
 width="570.000000pt" height="870.000000pt" viewBox="0 0 570.000000 870.000000"
 preserveAspectRatio="xMidYMid meet">
<metadata>
Created by potrace 1.16, written by Peter Selinger 2001-2019
</metadata>
<g transform="translate(0.000000,870.000000) scale(0.100000,-0.100000)"
fill="#000000" stroke="none">
<path d="M2404 8686 c-17 -8 -40 -26 -52 -41 -38 -49 -41 -82 -21 -246 91
-731 144 -1503 165 -2388 l6 -284 -378 7 c-593 10 -1102 29 -1706 62 l-296 16
-40 -22 c-22 -12 -49 -39 -61 -60 -20 -36 -21 -52 -21 -284 0 -186 3 -255 14
-279 17 -42 68 -85 109 -92 18 -3 154 1 302 9 546 31 1106 52 1693 62 l383 7
-5 -224 c-3 -123 -8 -413 -11 -644 -15 -1164 -87 -2938 -164 -4025 -9 -124 -3
-162 31 -205 42 -54 53 -55 493 -55 440 0 451 1 493 55 34 43 40 81 31 205
-77 1087 -149 2861 -164 4025 -3 231 -8 521 -11 644 l-5 224 378 -7 c592 -10
1101 -29 1705 -62 l296 -16 40 22 c22 12 49 39 61 60 20 36 21 52 21 290 0
238 -1 254 -21 290 -12 21 -39 48 -61 60 l-40 22 -296 -16 c-604 -33 -1113
-52 -1706 -62 l-378 -7 6 284 c21 885 74 1657 165 2388 20 164 17 197 -21 246
-42 54 -53 55 -495 55 -319 -1 -415 -4 -439 -14z"/>
</g>
</svg>
