<?xml version="1.0" standalone="no"?>
<!DOCTYPE svg PUBLIC "-//W3C//DTD SVG 20010904//EN"
 "http://www.w3.org/TR/2001/REC-SVG-20010904/DTD/svg10.dtd">
<svg version="1.0" xmlns="http://www.w3.org/2000/svg"
 width="904.000000pt" height="1070.000000pt" viewBox="0 0 904.000000 1070.000000"
 preserveAspectRatio="xMidYMid meet">
<metadata>
Created by potrace 1.16, written by Peter Selinger 2001-2019
</metadata>
<g transform="translate(0.000000,1070.000000) scale(0.100000,-0.100000)"
fill="#000000" stroke="none">
<path d="M4430 10402 l0 -299 -112 -6 c-228 -13 -514 -60 -775 -128 -1118
-287 -2089 -988 -2738 -1975 -384 -584 -652 -1295 -754 -2004 -37 -253 -46
-390 -46 -715 0 -487 37 -783 151 -1238 298 -1179 1016 -2195 2017 -2852 639
-419 1436 -691 2145 -732 l112 -6 0 -224 0 -223 225 0 225 0 0 225 0 225 48 0
c26 0 106 7 177 15 727 81 1362 352 1759 749 79 79 201 231 238 297 12 21 24
39 27 39 3 0 22 -24 41 -53 70 -104 198 -254 312 -368 106 -105 324 -294 411
-356 68 -49 154 -38 194 24 17 25 18 113 23 1428 5 1345 6 1402 24 1450 47
122 110 171 259 200 106 20 312 35 490 35 l147 0 0 226 0 227 -97 -7 c-613
-39 -2648 -39 -3555 0 l-148 7 0 -227 0 -226 268 0 c293 0 678 -14 842 -30
320 -32 437 -88 514 -250 l31 -65 3 -647 c3 -692 -1 -759 -49 -920 -64 -218
-222 -449 -416 -610 -352 -294 -847 -468 -1400 -494 l-143 -7 0 4388 0 4388
83 -7 c235 -19 403 -52 602 -117 259 -85 545 -242 775 -425 113 -90 346 -325
446 -449 461 -572 765 -1326 859 -2130 27 -232 40 -245 240 -245 111 0 135 3
162 20 68 41 63 -111 63 1890 0 2001 5 1849 -63 1890 -42 26 -139 27 -185 3
-23 -13 -130 -159 -408 -558 -207 -297 -380 -544 -385 -549 -5 -5 -70 54 -156
140 -418 423 -864 697 -1398 859 -145 44 -371 90 -522 107 l-113 12 0 298 0
298 -225 0 -225 0 0 -298z m0 -5122 l0 -4350 -25 0 c-50 0 -294 53 -440 95
-345 101 -651 246 -955 452 -183 125 -297 220 -466 388 -220 219 -364 401
-516 655 -342 568 -529 1221 -605 2110 -21 256 -25 989 -5 1235 61 761 181
1290 412 1810 418 943 1230 1640 2200 1886 117 29 317 67 363 68 l37 1 0
-4350z"/>
</g>
</svg>
