<?xml version="1.0" standalone="no"?>
<!DOCTYPE svg PUBLIC "-//W3C//DTD SVG 20010904//EN"
 "http://www.w3.org/TR/2001/REC-SVG-20010904/DTD/svg10.dtd">
<svg version="1.0" xmlns="http://www.w3.org/2000/svg"
 width="922.000000pt" height="792.000000pt" viewBox="0 0 922.000000 792.000000"
 preserveAspectRatio="xMidYMid meet">
<metadata>
Created by potrace 1.16, written by Peter Selinger 2001-2019
</metadata>
<g transform="translate(0.000000,792.000000) scale(0.100000,-0.100000)"
fill="#000000" stroke="none">
<path d="M4455 7910 c-128 -20 -291 -86 -405 -163 -66 -45 -186 -163 -236
-233 -60 -83 -130 -233 -156 -334 -32 -122 -32 -348 0 -470 26 -101 96 -251
156 -334 51 -71 170 -188 238 -234 74 -51 225 -120 313 -143 66 -18 107 -22
240 -22 188 0 264 16 413 88 119 57 170 92 261 179 92 89 148 166 205 287 71
147 90 235 90 414 0 123 -4 165 -22 235 -26 101 -96 251 -156 334 -51 71 -170
188 -238 234 -76 52 -226 120 -313 142 -92 24 -296 34 -390 20z"/>
<path d="M180 4223 c-66 -24 -144 -106 -164 -173 -33 -112 -11 -206 67 -285
35 -34 69 -57 101 -68 46 -16 357 -17 4421 -17 4064 0 4375 1 4421 17 70 24
147 103 168 173 20 68 20 112 0 180 -21 70 -98 149 -168 173 -46 16 -356 17
-4425 16 -3960 -1 -4380 -2 -4421 -16z"/>
<path d="M4455 1940 c-128 -20 -291 -86 -405 -163 -66 -45 -186 -163 -236
-233 -60 -83 -130 -233 -156 -334 -32 -122 -32 -348 0 -470 26 -101 96 -251
156 -334 51 -71 170 -188 238 -234 74 -51 225 -120 313 -143 66 -18 107 -22
240 -22 188 0 264 16 413 88 119 57 170 92 261 179 92 89 148 166 205 287 71
147 90 235 90 414 0 123 -4 165 -22 235 -26 101 -96 251 -156 334 -51 71 -170
188 -238 234 -76 52 -226 120 -313 142 -92 24 -296 34 -390 20z"/>
</g>
</svg>
