<?xml version="1.0" standalone="no"?>
<!DOCTYPE svg PUBLIC "-//W3C//DTD SVG 20010904//EN"
 "http://www.w3.org/TR/2001/REC-SVG-20010904/DTD/svg10.dtd">
<svg version="1.0" xmlns="http://www.w3.org/2000/svg"
 width="150.000000pt" height="495.000000pt" viewBox="0 0 150.000000 495.000000"
 preserveAspectRatio="xMidYMid meet">
<metadata>
Created by potrace 1.16, written by Peter Selinger 2001-2019
</metadata>
<g transform="translate(0.000000,495.000000) scale(0.100000,-0.100000)"
fill="#000000" stroke="none">
<path d="M635 4944 c-11 -2 -45 -9 -75 -15 -238 -47 -446 -225 -519 -444 -28
-85 -44 -218 -36 -300 7 -76 471 -4072 480 -4142 l6 -43 254 0 254 0 6 42 c9
71 473 4067 480 4143 8 82 -8 215 -36 300 -70 208 -246 369 -480 435 -71 21
-284 36 -334 24z"/>
</g>
</svg>
