<?xml version="1.0" standalone="no"?>
<!DOCTYPE svg PUBLIC "-//W3C//DTD SVG 20010904//EN"
 "http://www.w3.org/TR/2001/REC-SVG-20010904/DTD/svg10.dtd">
<svg version="1.0" xmlns="http://www.w3.org/2000/svg"
 width="977.000000pt" height="976.000000pt" viewBox="0 0 977.000000 976.000000"
 preserveAspectRatio="xMidYMid meet">
<metadata>
Created by potrace 1.16, written by Peter Selinger 2001-2019
</metadata>
<g transform="translate(0.000000,976.000000) scale(0.100000,-0.100000)"
fill="#000000" stroke="none">
<path d="M0 9452 l0 -309 403 -6 c545 -8 760 -27 862 -77 50 -24 108 -78 132
-123 17 -30 18 -234 18 -3902 0 -3668 -1 -3872 -18 -3902 -24 -45 -82 -99
-132 -123 -102 -50 -317 -69 -862 -77 l-403 -6 0 -310 0 -310 128 7 c823 41
2758 41 3310 0 l82 -6 0 309 0 310 -202 6 c-349 11 -435 38 -484 150 -18 40
-19 115 -22 1870 l-2 1827 844 0 c931 0 980 -3 1177 -61 488 -144 891 -556
1033 -1056 60 -210 59 -190 63 -1048 l3 -790 -590 -489 -589 -488 67 -82 c312
-380 326 -395 341 -383 21 16 902 746 923 764 15 14 20 9 49 -49 47 -93 112
-191 196 -295 409 -505 1166 -795 2083 -797 247 -1 258 0 355 27 342 93 619
341 796 711 114 238 189 566 189 821 0 64 -5 88 -23 119 -38 67 -68 76 -252
76 -137 0 -165 -3 -195 -19 -59 -31 -76 -74 -83 -214 -18 -332 -113 -621 -264
-798 -138 -162 -286 -227 -488 -215 -276 16 -447 122 -590 366 -128 219 -206
508 -305 1125 -49 309 -50 320 -33 335 11 8 519 431 1131 939 l1112 923 -38
47 c-209 253 -346 417 -351 423 -4 4 -450 -360 -991 -811 -542 -450 -986 -817
-988 -815 -2 1 -16 78 -32 171 -43 254 -93 412 -195 621 -173 353 -448 660
-810 902 -110 74 -284 172 -385 217 l-65 29 115 38 c981 322 1715 949 1954
1667 61 186 80 307 81 524 0 316 -58 555 -208 850 -114 225 -254 413 -456 615
-521 519 -1267 872 -2142 1015 -382 62 -236 59 -2856 62 l-2393 4 0 -309z
m4760 -336 c386 -46 650 -118 900 -247 595 -307 800 -772 777 -1764 -7 -278
-16 -381 -53 -565 -81 -403 -247 -660 -562 -871 -262 -176 -606 -294 -997
-344 -232 -29 -427 -35 -1217 -35 l-798 0 0 1800 c0 1245 3 1814 11 1849 20
95 74 148 173 170 114 25 243 29 931 26 564 -2 726 -6 835 -19z"/>
</g>
</svg>
