<?xml version="1.0" standalone="no"?>
<!DOCTYPE svg PUBLIC "-//W3C//DTD SVG 20010904//EN"
 "http://www.w3.org/TR/2001/REC-SVG-20010904/DTD/svg10.dtd">
<svg version="1.0" xmlns="http://www.w3.org/2000/svg"
 width="682.000000pt" height="650.000000pt" viewBox="0 0 682.000000 650.000000"
 preserveAspectRatio="xMidYMid meet">
<metadata>
Created by potrace 1.16, written by Peter Selinger 2001-2019
</metadata>
<g transform="translate(0.000000,650.000000) scale(0.100000,-0.100000)"
fill="#000000" stroke="none">
<path d="M3345 6486 c-36 -16 -70 -51 -83 -86 -6 -14 -101 -626 -212 -1360
-112 -734 -204 -1337 -206 -1339 -2 -2 -610 96 -1351 218 -1150 189 -1353 220
-1385 211 -40 -12 -94 -66 -104 -106 -10 -38 2 -104 23 -133 14 -18 377 -206
1244 -642 673 -339 1223 -620 1222 -625 -1 -5 -283 -554 -627 -1219 -457 -884
-626 -1218 -626 -1243 0 -73 45 -131 121 -153 84 -26 43 -63 1084 991 526 534
958 970 960 970 2 0 434 -436 960 -970 1041 -1054 1000 -1017 1084 -991 76 22
121 80 121 153 0 25 -168 359 -626 1243 -344 666 -626 1214 -627 1219 -1 5
549 286 1222 625 867 436 1230 624 1244 642 21 29 33 95 23 133 -10 40 -64 94
-104 106 -32 9 -235 -22 -1385 -211 -741 -122 -1349 -220 -1351 -218 -2 2 -94
605 -205 1339 -156 1035 -206 1344 -222 1376 -35 71 -121 102 -194 70z"/>
</g>
</svg>
