<?xml version="1.0" standalone="no"?>
<!DOCTYPE svg PUBLIC "-//W3C//DTD SVG 20010904//EN"
 "http://www.w3.org/TR/2001/REC-SVG-20010904/DTD/svg10.dtd">
<svg version="1.0" xmlns="http://www.w3.org/2000/svg"
 width="814.000000pt" height="581.000000pt" viewBox="0 0 814.000000 581.000000"
 preserveAspectRatio="xMidYMid meet">
<metadata>
Created by potrace 1.16, written by Peter Selinger 2001-2019
</metadata>
<g transform="translate(0.000000,581.000000) scale(0.100000,-0.100000)"
fill="#000000" stroke="none">
<path d="M4756 5800 c-45 -14 -92 -51 -120 -94 l-26 -40 0 -2761 0 -2761 26
-41 c78 -120 256 -138 358 -37 15 16 35 42 44 59 16 28 17 203 22 2180 l5
2151 549 -1327 c301 -730 557 -1341 567 -1358 10 -17 37 -43 60 -58 35 -23 55
-29 118 -31 65 -3 83 0 120 20 25 13 56 39 71 58 15 20 269 625 576 1374 l549
1339 5 -2170 5 -2169 25 -36 c112 -164 388 -107 415 86 3 22 5 1263 3 2756 -3
2506 -4 2717 -20 2745 -21 39 -64 82 -103 103 -41 23 -169 23 -211 0 -78 -42
-60 -2 -755 -1694 -364 -888 -665 -1617 -668 -1619 -3 -1 -307 725 -675 1616
-700 1693 -683 1656 -760 1696 -36 19 -139 26 -180 13z"/>
<path d="M1001 5489 c-554 -49 -867 -298 -966 -768 -46 -218 -46 -764 0 -982
92 -435 361 -675 847 -755 87 -14 223 -18 893 -24 864 -8 917 -12 1097 -70
289 -93 418 -281 457 -669 14 -133 14 -629 0 -762 -46 -458 -218 -646 -654
-715 -98 -16 -237 -18 -1315 -23 l-1205 -6 -47 -28 c-136 -80 -136 -264 0
-344 l47 -28 1120 -3 c701 -2 1175 1 1266 7 743 53 1107 344 1226 981 16 82
18 156 18 540 0 384 -2 458 -18 540 -104 558 -405 855 -964 950 -194 33 -357
40 -1000 40 -811 0 -931 11 -1093 96 -119 62 -191 165 -225 319 -28 129 -40
423 -27 633 14 212 30 300 71 389 57 120 166 202 324 242 141 37 293 41 1404
41 777 0 1086 3 1114 11 84 26 149 110 149 194 0 84 -65 168 -149 194 -46 13
-2217 13 -2370 0z"/>
</g>
</svg>
