<?xml version="1.0" standalone="no"?>
<!DOCTYPE svg PUBLIC "-//W3C//DTD SVG 20010904//EN"
 "http://www.w3.org/TR/2001/REC-SVG-20010904/DTD/svg10.dtd">
<svg version="1.0" xmlns="http://www.w3.org/2000/svg"
 width="570.000000pt" height="1284.000000pt" viewBox="0 0 570.000000 1284.000000"
 preserveAspectRatio="xMidYMid meet">
<metadata>
Created by potrace 1.16, written by Peter Selinger 2001-2019
</metadata>
<g transform="translate(0.000000,1284.000000) scale(0.100000,-0.100000)"
fill="#000000" stroke="none">
<path d="M3065 12789 c-312 -196 -708 -337 -1155 -408 -256 -42 -641 -70 -937
-71 l-153 0 0 -225 0 -225 153 0 c527 1 1054 69 1445 186 l22 6 -2 -2093 -3
-2094 -23 -57 c-29 -71 -100 -152 -162 -183 -119 -60 -485 -94 -1017 -95
l-233 0 0 -226 0 -227 128 7 c786 39 2831 39 3615 0 l127 -7 0 227 0 226 -227
0 c-408 0 -767 26 -918 65 -113 30 -195 106 -242 225 -17 43 -18 177 -23 2485
l-5 2440 -22 31 c-36 50 -77 64 -190 64 l-98 0 -80 -51z"/>
<path d="M200 6531 c-46 -14 -85 -39 -121 -78 -59 -61 -74 -98 -74 -183 0 -53
6 -85 19 -110 25 -49 83 -108 131 -133 l40 -22 2650 0 c2615 0 2651 0 2690 20
50 25 105 80 130 130 27 55 27 175 0 230 -25 50 -80 105 -130 130 -39 20 -77
20 -2675 22 -1449 1 -2646 -2 -2660 -6z"/>
<path d="M2305 5750 c-538 -39 -976 -162 -1270 -355 -237 -156 -379 -345 -446
-595 -19 -70 -23 -111 -24 -235 0 -130 3 -160 23 -225 81 -259 270 -430 534
-484 315 -65 644 79 782 343 64 122 81 198 81 356 0 119 -4 151 -23 215 -52
166 -148 295 -280 380 -39 25 -71 48 -71 52 -1 10 243 66 374 85 168 24 537
24 695 0 534 -82 918 -320 1097 -682 72 -144 98 -268 97 -465 0 -209 -29 -370
-99 -552 -121 -314 -322 -601 -660 -947 -236 -241 -301 -299 -1507 -1349 -754
-657 -1030 -902 -1037 -924 -6 -17 -11 -106 -11 -199 l0 -169 2099 0 2099 0 6
28 c3 15 84 531 181 1147 97 616 178 1132 181 1147 l6 28 -186 0 -185 0 -6
-32 c-3 -18 -19 -116 -36 -218 -86 -527 -169 -848 -244 -946 -19 -25 -36 -35
-77 -43 -174 -35 -860 -53 -1827 -49 l-715 3 608 439 c662 478 733 527 1156
791 586 367 813 535 1045 777 235 245 378 505 442 808 25 120 25 420 0 539
-85 395 -286 682 -642 913 -315 205 -762 345 -1290 404 -166 18 -693 27 -870
14z"/>
</g>
</svg>
