<?xml version="1.0" standalone="no"?>
<!DOCTYPE svg PUBLIC "-//W3C//DTD SVG 20010904//EN"
 "http://www.w3.org/TR/2001/REC-SVG-20010904/DTD/svg10.dtd">
<svg version="1.0" xmlns="http://www.w3.org/2000/svg"
 width="539.000000pt" height="602.000000pt" viewBox="0 0 539.000000 602.000000"
 preserveAspectRatio="xMidYMid meet">
<metadata>
Created by potrace 1.16, written by Peter Selinger 2001-2019
</metadata>
<g transform="translate(0.000000,602.000000) scale(0.100000,-0.100000)"
fill="#000000" stroke="none">
<path d="M2285 6014 c-663 -53 -1229 -256 -1610 -576 -116 -97 -167 -151 -254
-268 -163 -217 -254 -471 -267 -745 -6 -113 -4 -141 14 -213 62 -245 261 -396
522 -396 258 0 459 150 520 390 79 307 -86 595 -384 670 -43 11 -63 20 -59 28
23 40 115 145 179 205 236 220 589 375 999 437 179 27 539 25 732 -5 461 -70
800 -227 1064 -490 201 -200 303 -386 361 -654 31 -146 31 -408 0 -554 -70
-326 -244 -608 -568 -923 -240 -233 -429 -378 -1079 -828 -2070 -1433 -2420
-1679 -2437 -1713 -15 -28 -18 -62 -18 -206 l0 -173 2505 0 c1378 0 2505 1
2505 3 0 1 83 418 185 927 102 509 185 926 185 927 0 2 -83 3 -184 3 l-185 0
-16 -77 c-60 -283 -104 -430 -166 -558 -51 -105 -106 -177 -143 -186 -82 -22
-531 -31 -1831 -36 -1218 -4 -1397 -3 -1380 10 49 35 1474 881 1590 944 72 39
333 172 580 296 482 242 699 361 884 487 608 413 870 858 848 1445 -10 256
-61 462 -168 672 -75 149 -152 255 -279 386 -398 412 -1025 667 -1845 752
-142 15 -689 28 -800 19z"/>
</g>
</svg>
