<?xml version="1.0" standalone="no"?>
<!DOCTYPE svg PUBLIC "-//W3C//DTD SVG 20010904//EN"
 "http://www.w3.org/TR/2001/REC-SVG-20010904/DTD/svg10.dtd">
<svg version="1.0" xmlns="http://www.w3.org/2000/svg"
 width="1170.000000pt" height="942.000000pt" viewBox="0 0 1170.000000 942.000000"
 preserveAspectRatio="xMidYMid meet">
<metadata>
Created by potrace 1.16, written by Peter Selinger 2001-2019
</metadata>
<g transform="translate(0.000000,942.000000) scale(0.100000,-0.100000)"
fill="#000000" stroke="none">
<path d="M5440 9398 c-56 -38 -75 -72 -73 -131 1 -29 13 -180 27 -337 102
-1131 146 -2167 146 -3455 0 -1667 -65 -3663 -169 -5214 -9 -134 -4 -171 31
-209 49 -52 50 -52 443 -52 393 0 394 0 443 52 35 38 40 75 31 209 -150 2232
-210 5205 -139 6889 25 593 67 1240 116 1780 14 157 26 308 27 337 2 59 -17
93 -73 131 -33 22 -36 22 -405 22 -369 0 -372 0 -405 -22z"/>
<path d="M2170 7559 c-400 -45 -821 -229 -1145 -501 -546 -458 -891 -1120
-1001 -1923 -26 -185 -26 -665 0 -850 110 -803 455 -1465 1001 -1923 329 -276
745 -457 1157 -501 867 -95 1709 440 2162 1374 152 312 251 652 303 1041 24
183 24 685 0 868 -52 389 -151 729 -303 1041 -454 937 -1301 1472 -2174 1374z
m395 -649 c722 -81 1261 -543 1510 -1295 213 -640 179 -1449 -85 -2035 -98
-215 -240 -428 -390 -580 -481 -488 -1252 -636 -1878 -361 -541 238 -901 756
-1022 1471 -36 213 -45 332 -45 600 0 515 74 888 246 1250 215 449 565 758
1007 889 90 26 238 56 322 64 78 8 250 6 335 -3z"/>
<path d="M9103 7559 c-889 -104 -1658 -847 -1953 -1888 -95 -338 -124 -563
-124 -961 0 -326 9 -433 60 -691 246 -1263 1174 -2168 2222 -2169 472 0 971
188 1357 512 546 458 891 1120 1001 1923 14 101 18 197 18 425 0 307 -10 422
-55 655 -198 1010 -849 1821 -1685 2098 -281 93 -576 127 -841 96z m510 -668
c740 -149 1229 -711 1377 -1581 36 -213 45 -332 45 -600 0 -515 -74 -888 -246
-1250 -242 -506 -645 -825 -1176 -930 -133 -27 -341 -36 -478 -21 -729 79
-1270 540 -1520 1296 -213 640 -179 1449 85 2035 278 616 771 990 1410 1070
116 14 388 4 503 -19z"/>
</g>
</svg>
