<?xml version="1.0" standalone="no"?>
<!DOCTYPE svg PUBLIC "-//W3C//DTD SVG 20010904//EN"
 "http://www.w3.org/TR/2001/REC-SVG-20010904/DTD/svg10.dtd">
<svg version="1.0" xmlns="http://www.w3.org/2000/svg"
 width="922.000000pt" height="782.000000pt" viewBox="0 0 922.000000 782.000000"
 preserveAspectRatio="xMidYMid meet">
<metadata>
Created by potrace 1.16, written by Peter Selinger 2001-2019
</metadata>
<g transform="translate(0.000000,782.000000) scale(0.100000,-0.100000)"
fill="#000000" stroke="none">
<path d="M4443 7806 c-188 -36 -339 -114 -477 -245 -122 -117 -212 -269 -258
-436 -32 -115 -32 -345 0 -460 46 -167 136 -319 258 -436 85 -81 140 -118 246
-169 138 -66 219 -83 393 -83 174 0 255 17 393 83 106 51 161 88 246 169 122
117 212 269 258 436 32 115 32 345 0 460 -46 167 -136 319 -258 436 -173 164
-368 246 -609 254 -77 3 -146 0 -192 -9z"/>
<path d="M180 4173 c-66 -24 -144 -106 -164 -173 -33 -112 -11 -206 67 -285
35 -34 69 -57 101 -68 46 -16 357 -17 4421 -17 4064 0 4375 1 4421 17 70 24
147 103 168 173 20 68 20 112 0 180 -21 70 -98 149 -168 173 -46 16 -356 17
-4425 16 -3960 -1 -4380 -2 -4421 -16z"/>
<path d="M4443 1836 c-188 -36 -339 -114 -477 -245 -122 -117 -212 -269 -258
-436 -32 -115 -32 -345 0 -460 46 -167 136 -319 258 -436 85 -81 140 -118 246
-169 138 -66 219 -83 393 -83 174 0 255 17 393 83 106 51 161 88 246 169 122
117 212 269 258 436 32 115 32 345 0 460 -46 167 -136 319 -258 436 -173 164
-368 246 -609 254 -77 3 -146 0 -192 -9z"/>
</g>
</svg>
