<?xml version="1.0" standalone="no"?>
<!DOCTYPE svg PUBLIC "-//W3C//DTD SVG 20010904//EN"
 "http://www.w3.org/TR/2001/REC-SVG-20010904/DTD/svg10.dtd">
<svg version="1.0" xmlns="http://www.w3.org/2000/svg"
 width="1383.000000pt" height="1446.000000pt" viewBox="0 0 1383.000000 1446.000000"
 preserveAspectRatio="xMidYMid meet">
<metadata>
Created by potrace 1.16, written by Peter Selinger 2001-2019
</metadata>
<g transform="translate(0.000000,1446.000000) scale(0.100000,-0.100000)"
fill="#000000" stroke="none">
<path d="M6520 14449 c-2123 -132 -4042 -1248 -5269 -3062 -226 -335 -518
-878 -670 -1247 -776 -1878 -776 -3942 0 -5820 94 -229 331 -697 464 -919 370
-617 806 -1152 1320 -1620 1972 -1795 4740 -2276 7158 -1245 1347 575 2474
1567 3252 2865 133 222 370 690 464 919 776 1878 776 3942 0 5820 -152 369
-444 912 -670 1247 -1169 1729 -2963 2824 -4979 3037 -325 35 -756 45 -1070
25z m730 -559 c1041 -64 2022 -376 2900 -923 1194 -744 2102 -1847 2635 -3202
351 -891 517 -1927 465 -2885 -56 -1009 -295 -1918 -736 -2791 -410 -811 -976
-1522 -1674 -2101 -1107 -918 -2512 -1428 -3930 -1428 -1013 0 -2042 265
-2935 755 -1341 736 -2362 1909 -2940 3380 -351 891 -517 1927 -465 2885 75
1369 512 2624 1284 3690 688 950 1603 1685 2660 2137 861 368 1828 538 2736
483z"/>
<path d="M2490 10072 l0 -309 403 -6 c545 -8 760 -27 862 -77 50 -24 108 -78
132 -123 17 -30 18 -167 18 -2482 0 -2315 -1 -2452 -18 -2482 -24 -45 -82 -99
-132 -123 -102 -50 -317 -69 -862 -77 l-403 -6 0 -310 0 -310 128 7 c819 41
3155 41 3975 0 l127 -7 0 310 0 310 -402 6 c-679 10 -839 33 -942 133 -77 75
-71 -30 -74 1197 l-2 1098 702 -4 c626 -3 711 -5 778 -21 254 -59 451 -166
607 -329 124 -130 200 -262 245 -425 20 -73 22 -108 28 -682 7 -570 8 -611 29
-702 28 -127 62 -221 122 -338 210 -408 661 -674 1339 -789 362 -62 974 -91
1173 -56 406 71 736 386 900 861 95 274 137 646 81 721 -49 65 -59 68 -249 68
-160 0 -176 -2 -201 -21 -59 -44 -67 -64 -76 -201 -24 -369 -121 -630 -296
-794 -114 -108 -228 -147 -390 -136 -322 24 -528 202 -681 589 -67 168 -102
302 -231 872 -61 269 -124 529 -140 578 -37 111 -133 301 -199 394 -159 226
-398 429 -658 562 -51 26 -93 50 -93 53 0 4 28 14 63 24 89 25 304 105 432
161 574 252 969 586 1124 950 47 111 71 218 77 344 13 249 -57 475 -220 715
-78 115 -297 336 -434 435 -463 338 -1106 582 -1784 675 -367 50 -248 48
-2630 52 l-2228 4 0 -309z m4345 -322 c378 -24 627 -81 863 -198 270 -134 390
-307 449 -647 22 -127 25 -557 5 -680 -34 -205 -96 -363 -186 -477 -110 -138
-401 -285 -687 -347 -277 -59 -492 -71 -1311 -71 l-668 0 0 1090 c0 739 3
1105 11 1139 27 128 99 171 317 190 131 12 1024 12 1207 1z"/>
</g>
</svg>
