<?xml version="1.0" standalone="no"?>
<!DOCTYPE svg PUBLIC "-//W3C//DTD SVG 20010904//EN"
 "http://www.w3.org/TR/2001/REC-SVG-20010904/DTD/svg10.dtd">
<svg version="1.0" xmlns="http://www.w3.org/2000/svg"
 width="871.000000pt" height="945.000000pt" viewBox="0 0 871.000000 945.000000"
 preserveAspectRatio="xMidYMid meet">
<metadata>
Created by potrace 1.16, written by Peter Selinger 2001-2019
</metadata>
<g transform="translate(0.000000,945.000000) scale(0.100000,-0.100000)"
fill="#000000" stroke="none">
<path d="M440 9142 l0 -309 403 -6 c545 -8 760 -27 862 -77 50 -24 108 -78
132 -123 17 -30 18 -178 21 -2659 l2 -2628 -826 0 c-605 0 -837 -3 -866 -12
-52 -15 -121 -78 -148 -133 -33 -68 -26 -174 15 -241 34 -55 111 -107 172
-118 21 -3 401 -6 846 -6 l807 0 -2 -987 c-3 -1103 3 -1012 -74 -1087 -103
-100 -263 -123 -941 -133 l-403 -6 0 -310 0 -310 128 7 c826 41 3188 41 4015
0 l127 -7 0 310 0 310 -402 6 c-679 10 -839 33 -942 133 -77 75 -71 -16 -74
1087 l-2 987 1313 0 c1497 0 1385 -6 1472 83 79 81 97 184 51 282 -28 60 -66
97 -126 124 -45 20 -59 21 -1377 21 l-1333 0 0 415 0 415 1198 0 c1251 0 1301
2 1589 46 947 145 1771 637 2234 1333 453 681 511 1468 163 2201 -395 829
-1265 1443 -2319 1635 -349 63 -130 59 -3052 62 l-2663 3 0 -308z m5070 -335
c759 -100 1250 -411 1438 -911 107 -283 138 -582 129 -1231 -6 -416 -14 -529
-52 -721 -80 -397 -249 -656 -569 -869 -290 -193 -644 -299 -1121 -334 -84 -7
-532 -11 -1112 -11 l-973 0 0 1925 c0 1334 3 1939 11 1974 20 95 74 148 173
170 115 26 247 29 1091 26 730 -2 879 -5 985 -18z"/>
</g>
</svg>
