<?xml version="1.0" standalone="no"?>
<!DOCTYPE svg PUBLIC "-//W3C//DTD SVG 20010904//EN"
 "http://www.w3.org/TR/2001/REC-SVG-20010904/DTD/svg10.dtd">
<svg version="1.0" xmlns="http://www.w3.org/2000/svg"
 width="1327.000000pt" height="1388.000000pt" viewBox="0 0 1327.000000 1388.000000"
 preserveAspectRatio="xMidYMid meet">
<metadata>
Created by potrace 1.16, written by Peter Selinger 2001-2019
</metadata>
<g transform="translate(0.000000,1388.000000) scale(0.100000,-0.100000)"
fill="#000000" stroke="none">
<path d="M6320 13874 c-25 -2 -110 -9 -190 -14 -607 -45 -1256 -197 -1858
-436 -2093 -830 -3664 -2745 -4122 -5024 -173 -860 -197 -1663 -74 -2505 326
-2236 1664 -4154 3608 -5170 747 -391 1569 -628 2446 -707 191 -17 809 -17
1000 0 1253 113 2379 545 3378 1296 1329 1000 2268 2503 2602 4166 173 860
197 1663 74 2505 -326 2236 -1664 4154 -3608 5170 -742 388 -1563 626 -2431
706 -118 10 -737 20 -825 13z m785 -554 c763 -68 1436 -258 2120 -595 1467
-724 2603 -2040 3142 -3640 470 -1396 470 -2894 0 -4290 -539 -1600 -1675
-2916 -3142 -3640 -689 -340 -1351 -525 -2135 -597 -174 -16 -746 -16 -920 0
-784 72 -1446 257 -2135 597 -1162 573 -2126 1524 -2743 2705 -1001 1917
-1001 4243 0 6160 617 1181 1581 2132 2743 2705 690 340 1411 541 2135 595 80
5 165 12 190 14 84 7 624 -3 745 -14z"/>
<path d="M3743 10250 c-67 -41 -63 57 -63 -1387 0 -1225 1 -1310 18 -1343 28
-57 67 -70 212 -70 191 0 207 16 235 225 56 420 211 831 446 1179 96 144 163
224 297 360 309 312 663 502 1078 577 159 29 471 32 649 5 524 -77 1004 -324
1400 -721 469 -469 771 -1091 869 -1790 116 -823 -64 -1659 -496 -2307 -137
-204 -203 -284 -382 -463 -399 -398 -870 -641 -1401 -721 -87 -13 -178 -18
-330 -18 -239 0 -368 15 -583 70 -844 214 -1493 909 -1617 1730 -8 54 -18 155
-21 224 -7 139 -18 171 -67 200 -44 27 -186 28 -237 2 -62 -31 -72 -66 -66
-227 29 -698 377 -1363 953 -1822 419 -334 929 -544 1493 -615 156 -19 600
-16 765 6 1004 134 1906 650 2631 1506 352 415 600 876 714 1325 61 239 74
355 74 620 0 265 -13 381 -74 620 -53 207 -118 379 -224 590 -111 219 -187
341 -333 537 -145 194 -254 318 -433 498 -684 685 -1470 1088 -2355 1206 -187
25 -626 26 -785 1 -584 -92 -1079 -336 -1511 -745 -196 -186 -408 -463 -539
-705 l-37 -68 -7 198 c-3 109 -9 430 -12 713 -7 579 -7 580 -77 613 -49 24
-143 22 -184 -3z"/>
</g>
</svg>
