<?xml version="1.0" standalone="no"?>
<!DOCTYPE svg PUBLIC "-//W3C//DTD SVG 20010904//EN"
 "http://www.w3.org/TR/2001/REC-SVG-20010904/DTD/svg10.dtd">
<svg version="1.0" xmlns="http://www.w3.org/2000/svg"
 width="591.000000pt" height="1180.000000pt" viewBox="0 0 591.000000 1180.000000"
 preserveAspectRatio="xMidYMid meet">
<metadata>
Created by potrace 1.16, written by Peter Selinger 2001-2019
</metadata>
<g transform="translate(0.000000,1180.000000) scale(0.100000,-0.100000)"
fill="#000000" stroke="none">
<path d="M2852 11781 c-60 -21 -113 -67 -145 -126 l-22 -40 -3 -4919 -2 -4918
-57 78 c-312 431 -689 796 -1128 1089 -321 214 -584 348 -945 483 -116 43
-392 126 -485 146 -16 4 -38 9 -47 12 -17 5 -18 -12 -18 -265 l0 -270 38 -10
c20 -5 75 -19 121 -31 411 -104 898 -336 1269 -607 505 -368 948 -898 1204
-1440 45 -96 48 -107 48 -183 l0 -80 34 0 c34 0 34 0 70 -97 62 -170 156 -506
156 -558 0 -8 5 -15 10 -15 6 0 10 7 10 15 0 52 94 388 156 558 36 97 36 97
70 97 l34 0 0 80 c0 76 3 87 48 183 256 542 699 1072 1204 1440 371 271 858
503 1269 607 46 12 101 26 122 31 l37 10 0 270 c0 253 -1 270 -17 265 -10 -3
-31 -8 -48 -12 -93 -20 -369 -103 -485 -146 -361 -135 -624 -269 -945 -483
-439 -293 -816 -658 -1128 -1089 l-57 -78 -2 4918 -3 4919 -22 41 c-64 120
-206 172 -341 125z"/>
</g>
</svg>
