<?xml version="1.0" standalone="no"?>
<!DOCTYPE svg PUBLIC "-//W3C//DTD SVG 20010904//EN"
 "http://www.w3.org/TR/2001/REC-SVG-20010904/DTD/svg10.dtd">
<svg version="1.0" xmlns="http://www.w3.org/2000/svg"
 width="615.000000pt" height="1227.000000pt" viewBox="0 0 615.000000 1227.000000"
 preserveAspectRatio="xMidYMid meet">
<metadata>
Created by potrace 1.16, written by Peter Selinger 2001-2019
</metadata>
<g transform="translate(0.000000,1227.000000) scale(0.100000,-0.100000)"
fill="#000000" stroke="none">
<path d="M3060 12252 c0 -38 -83 -345 -134 -497 -164 -485 -437 -962 -770
-1344 -119 -136 -382 -391 -511 -494 -479 -383 -982 -630 -1602 -787 l-43 -11
0 -280 c0 -262 1 -280 18 -275 9 2 78 20 152 40 589 153 1181 449 1670 834
323 255 638 583 879 916 l71 98 2 -5128 3 -5129 27 -52 c44 -82 124 -133 223
-140 117 -10 218 42 270 137 l30 55 3 5129 2 5128 71 -98 c241 -333 556 -661
879 -916 489 -385 1081 -681 1670 -834 74 -20 143 -38 153 -40 16 -5 17 13 17
275 l0 280 -42 11 c-621 157 -1124 404 -1603 787 -129 103 -392 358 -511 494
-333 382 -606 859 -770 1344 -51 152 -134 459 -134 497 0 10 -4 18 -10 18 -5
0 -10 -8 -10 -18z"/>
</g>
</svg>
