<?xml version="1.0" standalone="no"?>
<!DOCTYPE svg PUBLIC "-//W3C//DTD SVG 20010904//EN"
 "http://www.w3.org/TR/2001/REC-SVG-20010904/DTD/svg10.dtd">
<svg version="1.0" xmlns="http://www.w3.org/2000/svg"
 width="688.000000pt" height="689.000000pt" viewBox="0 0 688.000000 689.000000"
 preserveAspectRatio="xMidYMid meet">
<metadata>
Created by potrace 1.16, written by Peter Selinger 2001-2019
</metadata>
<g transform="translate(0.000000,689.000000) scale(0.100000,-0.100000)"
fill="#000000" stroke="none">
<path d="M200 6881 c-71 -23 -140 -82 -176 -151 -28 -53 -26 -171 5 -230 16
-32 463 -486 1527 -1550 l1504 -1505 -1499 -1499 c-1089 -1089 -1508 -1514
-1528 -1550 -37 -67 -40 -178 -6 -241 25 -47 84 -106 133 -131 47 -25 171 -26
220 -1 21 10 674 656 1545 1527 l1510 1510 1510 -1509 c830 -830 1526 -1517
1545 -1527 50 -26 171 -26 225 1 50 25 105 80 130 130 27 54 27 174 1 230 -13
28 -486 508 -1527 1550 l-1509 1510 1509 1510 c1041 1042 1514 1522 1527 1550
26 56 26 176 -1 230 -25 50 -80 105 -130 130 -54 27 -175 27 -225 1 -19 -10
-715 -697 -1545 -1527 l-1510 -1509 -1510 1510 c-889 889 -1523 1516 -1544
1526 -39 19 -144 28 -181 15z"/>
<path d="M3260 6871 c-177 -38 -312 -114 -442 -249 -99 -102 -156 -195 -197
-318 -107 -321 -28 -651 214 -889 163 -161 369 -245 600 -245 231 0 437 84
600 245 285 281 343 706 143 1048 -54 93 -193 236 -283 293 -192 119 -420 160
-635 115z"/>
<path d="M740 4299 c-94 -14 -231 -63 -313 -111 -93 -54 -236 -193 -293 -283
-177 -285 -177 -635 0 -920 57 -90 200 -229 293 -283 342 -200 767 -142 1048
143 161 163 245 369 245 600 0 231 -84 437 -245 600 -161 163 -352 248 -582
260 -49 2 -117 -1 -153 -6z"/>
<path d="M5925 4303 c-211 -26 -385 -111 -530 -258 -161 -163 -245 -369 -245
-600 0 -231 84 -437 245 -600 281 -285 706 -343 1048 -143 93 54 236 193 293
283 177 285 177 635 0 920 -57 90 -200 229 -293 283 -150 88 -361 135 -518
115z"/>
<path d="M3255 1704 c-154 -33 -303 -114 -420 -229 -285 -281 -343 -706 -143
-1048 85 -147 261 -299 419 -363 253 -103 547 -77 784 70 90 57 229 200 283
293 200 342 142 767 -143 1048 -119 117 -267 197 -427 229 -95 20 -259 19
-353 0z"/>
</g>
</svg>
