<?xml version="1.0" standalone="no"?>
<!DOCTYPE svg PUBLIC "-//W3C//DTD SVG 20010904//EN"
 "http://www.w3.org/TR/2001/REC-SVG-20010904/DTD/svg10.dtd">
<svg version="1.0" xmlns="http://www.w3.org/2000/svg"
 width="659.000000pt" height="937.000000pt" viewBox="0 0 659.000000 937.000000"
 preserveAspectRatio="xMidYMid meet">
<metadata>
Created by potrace 1.16, written by Peter Selinger 2001-2019
</metadata>
<g transform="translate(0.000000,937.000000) scale(0.100000,-0.100000)"
fill="#000000" stroke="none">
<path d="M955 9294 c-512 -40 -936 -73 -942 -73 -10 -1 -13 -53 -13 -224 l0
-224 218 -6 c562 -15 721 -91 790 -375 13 -58 16 -171 19 -837 l4 -770 -476
-394 c-419 -348 -474 -396 -462 -410 8 -9 69 -83 137 -166 68 -82 126 -154
130 -158 4 -4 155 115 336 266 l329 273 3 -3023 2 -3023 186 2 187 3 232 402
232 403 74 -98 c370 -486 898 -790 1484 -853 131 -14 433 -6 581 15 774 113
1455 504 1926 1107 419 536 648 1198 648 1876 0 1273 -738 2401 -1856 2836
-475 186 -1025 226 -1504 111 -447 -107 -870 -347 -1182 -672 l-88 -91 0 887
1 887 1114 924 c984 815 1113 926 1102 940 -8 9 -69 84 -137 166 -68 83 -126
153 -130 158 -4 4 -443 -354 -976 -797 l-969 -804 -3 909 -2 909 -33 -1 c-17
-1 -450 -34 -962 -75z m3008 -3639 c406 -74 793 -341 1049 -724 231 -346 345
-727 400 -1341 20 -226 17 -949 -6 -1170 -41 -408 -111 -704 -233 -977 -348
-778 -1141 -1223 -1916 -1073 -148 29 -241 61 -392 136 -339 167 -616 450
-819 835 l-56 106 0 1591 0 1592 57 95 c317 530 841 870 1453 945 104 12 358
4 463 -15z"/>
</g>
</svg>
