<?xml version="1.0" standalone="no"?>
<!DOCTYPE svg PUBLIC "-//W3C//DTD SVG 20010904//EN"
 "http://www.w3.org/TR/2001/REC-SVG-20010904/DTD/svg10.dtd">
<svg version="1.0" xmlns="http://www.w3.org/2000/svg"
 width="560.000000pt" height="632.000000pt" viewBox="0 0 560.000000 632.000000"
 preserveAspectRatio="xMidYMid meet">
<metadata>
Created by potrace 1.16, written by Peter Selinger 2001-2019
</metadata>
<g transform="translate(0.000000,632.000000) scale(0.100000,-0.100000)"
fill="#000000" stroke="none">
<path d="M2490 6309 c-820 -66 -1459 -371 -1861 -889 -427 -549 -629 -1284
-629 -2290 0 -1034 220 -1779 684 -2317 260 -301 581 -507 1011 -648 332 -110
701 -165 1100 -165 586 0 1126 124 1540 353 297 164 541 388 733 670 353 519
522 1202 522 2107 0 1006 -202 1741 -629 2290 -408 525 -1042 825 -1885 890
-149 12 -434 11 -586 -1z m521 -339 c484 -49 869 -243 1101 -554 195 -261 287
-670 318 -1411 12 -302 13 -1213 0 -1530 -32 -806 -120 -1232 -315 -1530 -56
-86 -246 -272 -340 -334 -552 -361 -1408 -361 -1960 0 -94 62 -284 248 -340
334 -195 298 -283 724 -315 1530 -13 317 -12 1228 0 1530 31 741 123 1150 318
1411 266 356 728 557 1298 563 73 0 178 -4 235 -9z"/>
</g>
</svg>
