<?xml version="1.0" standalone="no"?>
<!DOCTYPE svg PUBLIC "-//W3C//DTD SVG 20010904//EN"
 "http://www.w3.org/TR/2001/REC-SVG-20010904/DTD/svg10.dtd">
<svg version="1.0" xmlns="http://www.w3.org/2000/svg"
 width="595.000000pt" height="1338.000000pt" viewBox="0 0 595.000000 1338.000000"
 preserveAspectRatio="xMidYMid meet">
<metadata>
Created by potrace 1.16, written by Peter Selinger 2001-2019
</metadata>
<g transform="translate(0.000000,1338.000000) scale(0.100000,-0.100000)"
fill="#000000" stroke="none">
<path d="M2680 13374 c-361 -42 -588 -104 -855 -235 -499 -243 -832 -646 -937
-1132 -17 -80 -22 -137 -22 -267 -1 -190 10 -242 76 -380 34 -70 58 -101 132
-175 104 -103 201 -159 341 -195 110 -29 279 -29 390 -1 349 90 555 359 556
726 1 146 -23 252 -84 370 -57 111 -181 235 -292 292 -91 47 -198 80 -292 89
l-63 7 47 41 c256 228 585 366 977 412 502 58 859 -106 986 -455 86 -236 86
-688 -1 -1043 -98 -402 -315 -707 -581 -815 -102 -41 -164 -51 -463 -78 -318
-29 -345 -36 -377 -95 -26 -49 -26 -220 0 -269 37 -69 49 -71 402 -71 440 0
546 -16 745 -114 235 -116 396 -288 481 -514 124 -331 126 -957 4 -1295 -47
-129 -112 -231 -209 -327 -139 -138 -306 -228 -510 -274 -85 -18 -125 -21
-346 -20 -408 2 -767 51 -1060 145 l-98 31 43 19 c400 179 569 705 361 1124
-101 204 -268 338 -508 407 -112 32 -334 32 -446 0 -240 -69 -407 -203 -508
-407 -128 -258 -118 -598 27 -891 241 -486 840 -788 1764 -891 225 -25 771
-25 965 0 435 57 792 164 1125 338 522 274 864 665 977 1115 24 96 27 129 27
269 1 143 -2 170 -26 255 -69 248 -228 478 -463 670 -296 242 -778 457 -1222
546 -51 10 -93 21 -93 24 0 3 44 21 98 40 132 47 415 190 537 272 290 194 502
426 634 693 67 135 99 227 133 377 32 146 32 405 0 523 -30 110 -118 282 -197
387 -295 391 -890 676 -1580 758 -92 11 -532 22 -595 14z"/>
<path d="M210 6811 c-83 -26 -141 -74 -181 -151 -19 -35 -24 -61 -24 -120 1
-116 50 -196 155 -251 l45 -24 2750 -3 c3115 -2 2807 -11 2901 83 112 112 112
278 1 390 -95 94 213 85 -2886 84 -1505 0 -2747 -4 -2761 -8z"/>
<path d="M3785 6142 c-23 -11 -65 -47 -96 -83 -31 -35 -810 -985 -1732 -2112
l-1677 -2047 0 -260 0 -260 1436 0 1435 0 -3 -278 c-3 -276 -3 -277 -30 -334
-35 -75 -97 -141 -157 -167 -112 -48 -334 -69 -803 -78 l-348 -6 0 -260 0
-260 118 7 c753 41 2861 41 3615 0 l117 -7 0 260 0 260 -347 6 c-474 9 -693
30 -803 78 -63 28 -123 91 -157 163 l-28 61 -3 278 -3 277 670 0 671 0 0 260
0 260 -670 0 -670 0 -2 2079 -3 2080 -21 27 c-49 67 -57 69 -272 72 -175 2
-202 0 -237 -16z m-558 -4239 c-2 -2 -541 -2 -1198 -1 l-1194 3 1195 1459
1195 1459 3 -1458 c1 -802 1 -1460 -1 -1462z"/>
</g>
</svg>
