<?xml version="1.0" standalone="no"?>
<!DOCTYPE svg PUBLIC "-//W3C//DTD SVG 20010904//EN"
 "http://www.w3.org/TR/2001/REC-SVG-20010904/DTD/svg10.dtd">
<svg version="1.0" xmlns="http://www.w3.org/2000/svg"
 width="1085.000000pt" height="937.000000pt" viewBox="0 0 1085.000000 937.000000"
 preserveAspectRatio="xMidYMid meet">
<metadata>
Created by potrace 1.16, written by Peter Selinger 2001-2019
</metadata>
<g transform="translate(0.000000,937.000000) scale(0.100000,-0.100000)"
fill="#000000" stroke="none">
<path d="M6701 9359 c-149 -29 -280 -104 -408 -234 -247 -253 -465 -741 -562
-1260 -57 -303 -54 -172 -60 -2563 l-6 -2203 -1294 3022 c-712 1661 -1304
3032 -1315 3046 -43 55 12 53 -1296 53 l-1210 0 0 -223 0 -224 377 -6 c516 -8
792 -33 929 -84 l49 -19 0 -3419 c0 -3228 -1 -3428 -18 -3565 -40 -323 -112
-594 -216 -815 -137 -290 -298 -440 -484 -453 l-72 -4 75 49 c154 102 265 258
310 437 28 109 28 293 0 402 -34 137 -91 236 -189 334 -98 97 -166 140 -284
181 -148 51 -349 54 -502 8 -116 -35 -202 -86 -295 -176 -101 -97 -156 -186
-196 -318 -24 -80 -27 -106 -27 -235 0 -124 4 -160 27 -245 29 -111 93 -252
157 -347 58 -86 198 -223 289 -285 215 -144 478 -221 720 -210 195 9 338 76
504 236 288 280 498 781 588 1405 l22 151 4 3145 3 3145 1682 -3926 c925
-2159 1690 -3937 1699 -3951 30 -45 78 -60 186 -56 110 3 147 21 176 82 15 31
16 327 16 3556 0 2363 3 3570 11 3668 27 379 98 694 220 980 149 348 322 523
517 522 l57 -1 -60 -32 c-91 -49 -212 -175 -262 -273 -69 -132 -88 -215 -88
-379 0 -116 4 -154 23 -219 38 -133 95 -230 189 -323 70 -70 98 -90 185 -132
127 -61 219 -82 358 -82 139 0 231 21 358 82 87 42 115 62 185 132 136 135
203 292 214 498 29 547 -390 1029 -977 1124 -102 16 -238 18 -309 4z"/>
<path d="M9060 7234 c-14 -2 -52 -9 -85 -15 -247 -43 -509 -204 -703 -434
-349 -413 -530 -1016 -491 -1634 44 -704 392 -1290 912 -1536 185 -88 419
-124 618 -96 454 65 868 434 1078 961 108 270 146 483 146 825 0 253 -9 342
-52 550 -57 276 -194 600 -340 804 -255 356 -594 562 -947 575 -61 3 -122 3
-136 0z m246 -373 c107 -50 194 -155 256 -308 17 -43 35 -105 40 -138 14 -91
22 -1734 9 -1965 l-10 -195 -41 -82 c-56 -114 -131 -192 -228 -240 -73 -36
-80 -38 -176 -38 -94 0 -106 2 -168 33 -93 45 -178 133 -229 237 -37 74 -42
92 -49 191 -15 198 -21 1021 -11 1539 11 572 11 568 87 723 70 143 177 243
291 272 64 16 159 4 229 -29z"/>
<path d="M7564 2726 c-71 -31 -98 -99 -92 -237 4 -109 15 -134 78 -176 l33
-23 1571 0 c1476 0 1573 1 1605 18 65 33 76 59 79 195 3 142 -9 177 -74 214
l-39 23 -1565 -1 c-1288 0 -1570 -2 -1596 -13z"/>
</g>
</svg>
