<?xml version="1.0" standalone="no"?>
<!DOCTYPE svg PUBLIC "-//W3C//DTD SVG 20010904//EN"
 "http://www.w3.org/TR/2001/REC-SVG-20010904/DTD/svg10.dtd">
<svg version="1.0" xmlns="http://www.w3.org/2000/svg"
 width="570.000000pt" height="1284.000000pt" viewBox="0 0 570.000000 1284.000000"
 preserveAspectRatio="xMidYMid meet">
<metadata>
Created by potrace 1.16, written by Peter Selinger 2001-2019
</metadata>
<g transform="translate(0.000000,1284.000000) scale(0.100000,-0.100000)"
fill="#000000" stroke="none">
<path d="M3065 12789 c-312 -196 -708 -337 -1155 -408 -256 -42 -641 -70 -937
-71 l-153 0 0 -225 0 -225 153 0 c527 1 1054 69 1445 186 l22 6 -2 -2093 -3
-2094 -23 -57 c-29 -71 -100 -152 -162 -183 -119 -60 -485 -94 -1017 -95
l-233 0 0 -226 0 -227 128 7 c786 39 2831 39 3615 0 l127 -7 0 227 0 226 -227
0 c-408 0 -767 26 -918 65 -113 30 -195 106 -242 225 -17 43 -18 177 -23 2485
l-5 2440 -22 31 c-36 50 -77 64 -190 64 l-98 0 -80 -51z"/>
<path d="M200 6531 c-46 -14 -85 -39 -121 -78 -59 -61 -74 -98 -74 -183 0 -53
6 -85 19 -110 25 -49 83 -108 131 -133 l40 -22 2650 0 c2615 0 2651 0 2690 20
50 25 105 80 130 130 27 55 27 175 0 230 -25 50 -80 105 -130 130 -39 20 -77
20 -2675 22 -1449 1 -2646 -2 -2660 -6z"/>
<path d="M3685 5900 c-16 -5 -44 -22 -62 -37 -17 -15 -779 -940 -1692 -2055
l-1661 -2028 0 -225 0 -225 1391 0 1390 0 -3 -277 c-3 -261 -5 -282 -26 -335
-85 -211 -224 -251 -929 -265 l-333 -6 0 -225 0 -225 118 7 c730 39 2674 39
3405 0 l117 -7 0 225 0 225 -332 6 c-706 14 -845 54 -930 265 -21 53 -23 74
-26 334 l-3 278 655 0 656 0 0 225 0 225 -655 0 -655 0 0 2006 c0 2222 5 2047
-64 2097 -28 20 -44 22 -181 24 -82 1 -163 -2 -180 -7z m-568 -4117 c-2 -2
-540 -2 -1196 -1 l-1192 3 1193 1455 1193 1456 3 -1455 c1 -800 1 -1456 -1
-1458z"/>
</g>
</svg>
