<?xml version="1.0" standalone="no"?>
<!DOCTYPE svg PUBLIC "-//W3C//DTD SVG 20010904//EN"
 "http://www.w3.org/TR/2001/REC-SVG-20010904/DTD/svg10.dtd">
<svg version="1.0" xmlns="http://www.w3.org/2000/svg"
 width="249.000000pt" height="251.000000pt" viewBox="0 0 249.000000 251.000000"
 preserveAspectRatio="xMidYMid meet">
<metadata>
Created by potrace 1.16, written by Peter Selinger 2001-2019
</metadata>
<g transform="translate(0.000000,251.000000) scale(0.100000,-0.100000)"
fill="#000000" stroke="none">
<path d="M374 2497 c-140 -46 -260 -151 -327 -286 l-42 -84 0 -116 c0 -110 2
-119 32 -181 18 -36 56 -91 85 -122 37 -40 1849 -1517 2086 -1701 10 -8 45 21
144 120 l130 130 -807 1034 c-444 569 -833 1059 -865 1090 -33 33 -88 71 -126
90 -61 30 -77 34 -168 36 -64 2 -116 -2 -142 -10z"/>
</g>
</svg>
