<?xml version="1.0" standalone="no"?>
<!DOCTYPE svg PUBLIC "-//W3C//DTD SVG 20010904//EN"
 "http://www.w3.org/TR/2001/REC-SVG-20010904/DTD/svg10.dtd">
<svg version="1.0" xmlns="http://www.w3.org/2000/svg"
 width="616.000000pt" height="911.000000pt" viewBox="0 0 616.000000 911.000000"
 preserveAspectRatio="xMidYMid meet">
<metadata>
Created by potrace 1.16, written by Peter Selinger 2001-2019
</metadata>
<g transform="translate(0.000000,911.000000) scale(0.100000,-0.100000)"
fill="#000000" stroke="none">
<path d="M4221 9088 c-40 -21 -247 -303 -2133 -2901 l-2088 -2877 0 -310 0
-310 1795 0 1795 0 -2 -917 -3 -918 -27 -45 c-88 -150 -214 -175 -925 -187
l-383 -6 0 -310 0 -310 118 7 c756 41 2911 41 3665 0 l117 -7 0 312 0 311
-232 0 c-285 0 -620 16 -751 35 -160 24 -235 69 -283 170 l-24 50 0 908 0 907
645 0 645 0 0 310 0 310 -645 0 -645 0 -2 2849 -3 2850 -21 27 c-51 69 -51 69
-322 72 -242 3 -248 2 -291 -20z m-554 -5775 c-2 -2 -681 -2 -1509 -1 l-1504
3 1505 2074 1506 2075 3 -2074 c1 -1140 1 -2075 -1 -2077z"/>
</g>
</svg>
