<?xml version="1.0" standalone="no"?>
<!DOCTYPE svg PUBLIC "-//W3C//DTD SVG 20010904//EN"
 "http://www.w3.org/TR/2001/REC-SVG-20010904/DTD/svg10.dtd">
<svg version="1.0" xmlns="http://www.w3.org/2000/svg"
 width="425.000000pt" height="192.000000pt" viewBox="0 0 425.000000 192.000000"
 preserveAspectRatio="xMidYMid meet">
<metadata>
Created by potrace 1.16, written by Peter Selinger 2001-2019
</metadata>
<g transform="translate(0.000000,192.000000) scale(0.100000,-0.100000)"
fill="#000000" stroke="none">
<path d="M0 1863 c1 -150 53 -410 115 -573 254 -666 875 -1137 1670 -1267 154
-25 516 -25 670 0 795 130 1416 601 1670 1267 62 163 114 423 115 573 l0 57
-205 0 -205 0 0 -43 c0 -75 -31 -228 -66 -326 -102 -287 -337 -532 -669 -698
-190 -95 -375 -154 -615 -195 -180 -31 -540 -31 -720 0 -651 112 -1123 440
-1284 893 -35 98 -66 251 -66 326 l0 43 -205 0 -205 0 0 -57z"/>
</g>
</svg>
