<?xml version="1.0" standalone="no"?>
<!DOCTYPE svg PUBLIC "-//W3C//DTD SVG 20010904//EN"
 "http://www.w3.org/TR/2001/REC-SVG-20010904/DTD/svg10.dtd">
<svg version="1.0" xmlns="http://www.w3.org/2000/svg"
 width="1180.000000pt" height="664.000000pt" viewBox="0 0 1180.000000 664.000000"
 preserveAspectRatio="xMidYMid meet">
<metadata>
Created by potrace 1.16, written by Peter Selinger 2001-2019
</metadata>
<g transform="translate(0.000000,664.000000) scale(0.100000,-0.100000)"
fill="#000000" stroke="none">
<path d="M2676 6618 c-34 -166 -65 -297 -97 -408 -341 -1207 -1184 -2218
-2304 -2764 -93 -46 -191 -92 -217 -102 -27 -11 -48 -21 -48 -24 0 -3 21 -13
48 -24 26 -10 124 -56 217 -102 1120 -546 1963 -1557 2304 -2764 32 -111 63
-242 97 -408 l4 -22 270 0 270 0 -6 33 c-120 656 -392 1328 -767 1892 -245
369 -561 731 -878 1006 l-131 114 5084 5 5083 5 41 22 c85 46 144 145 144 243
0 98 -59 197 -144 243 l-41 22 -5083 5 -5084 5 131 114 c317 275 633 637 878
1006 375 564 647 1236 767 1893 l6 32 -270 0 -270 0 -4 -22z"/>
</g>
</svg>
