<?xml version="1.0" standalone="no"?>
<!DOCTYPE svg PUBLIC "-//W3C//DTD SVG 20010904//EN"
 "http://www.w3.org/TR/2001/REC-SVG-20010904/DTD/svg10.dtd">
<svg version="1.0" xmlns="http://www.w3.org/2000/svg"
 width="57.000000pt" height="1384.000000pt" viewBox="0 0 57.000000 1384.000000"
 preserveAspectRatio="xMidYMid meet">
<metadata>
Created by potrace 1.16, written by Peter Selinger 2001-2019
</metadata>
<g transform="translate(0.000000,1384.000000) scale(0.100000,-0.100000)"
fill="#000000" stroke="none">
<path d="M210 13831 c-83 -26 -141 -74 -181 -151 l-24 -45 -3 -2705 c-2 -3032
-9 -2760 72 -2848 110 -121 286 -125 404 -9 25 25 50 62 62 95 20 52 20 82 20
2741 0 3041 8 2754 -83 2846 -74 73 -178 103 -267 76z"/>
<path d="M165 5826 c-64 -30 -128 -99 -149 -162 -15 -46 -16 -267 -14 -2754
l3 -2705 24 -45 c32 -62 67 -97 125 -127 112 -57 233 -38 322 52 92 92 84
-195 84 2846 0 2659 0 2689 -20 2741 -23 63 -85 128 -150 157 -64 29 -160 28
-225 -3z"/>
</g>
</svg>
