<?xml version="1.0" standalone="no"?>
<!DOCTYPE svg PUBLIC "-//W3C//DTD SVG 20010904//EN"
 "http://www.w3.org/TR/2001/REC-SVG-20010904/DTD/svg10.dtd">
<svg version="1.0" xmlns="http://www.w3.org/2000/svg"
 width="530.000000pt" height="609.000000pt" viewBox="0 0 530.000000 609.000000"
 preserveAspectRatio="xMidYMid meet">
<metadata>
Created by potrace 1.16, written by Peter Selinger 2001-2019
</metadata>
<g transform="translate(0.000000,609.000000) scale(0.100000,-0.100000)"
fill="#000000" stroke="none">
<path d="M1890 6084 c-19 -2 -79 -14 -134 -25 -690 -143 -1205 -795 -1341
-1699 -25 -166 -30 -429 -11 -520 47 -225 202 -392 426 -462 107 -33 273 -33
380 0 171 53 297 157 369 303 159 323 42 709 -260 858 -113 56 -206 74 -334
67 -55 -3 -110 -8 -122 -12 -32 -9 -30 5 18 149 141 424 392 744 704 899 147
73 274 102 445 102 103 -1 135 -4 184 -22 317 -117 615 -594 744 -1192 65
-299 82 -534 82 -1132 l0 -468 -92 0 c-241 0 -705 -35 -1003 -75 -524 -71
-1030 -211 -1354 -375 -183 -92 -358 -231 -447 -356 -179 -251 -192 -572 -33
-841 42 -71 165 -197 244 -250 240 -161 595 -259 1057 -292 188 -14 435 -14
574 0 477 46 928 249 1135 511 43 55 37 59 59 -47 37 -173 135 -315 259 -377
45 -23 50 -23 391 -22 439 1 675 22 902 79 249 63 415 172 497 325 52 97 61
162 61 463 l0 267 -185 0 -185 0 0 -250 c0 -273 -3 -292 -57 -342 -69 -66
-294 -99 -531 -79 -182 15 -272 51 -315 126 -9 15 -13 357 -18 1315 -5 1259
-6 1299 -26 1425 -97 589 -329 1065 -695 1421 -174 169 -325 276 -521 369
-227 107 -422 154 -667 160 -91 2 -181 1 -200 -1z m1148 -3974 c-4 -354 -5
-379 -26 -440 -98 -292 -407 -500 -857 -576 -136 -24 -404 -24 -501 -2 -412
94 -650 421 -550 753 33 107 148 254 271 345 315 232 928 394 1605 423 l55 2
3 -65 c2 -36 2 -234 0 -440z"/>
<path d="M145 326 c-17 -7 -45 -29 -62 -49 -56 -64 -56 -150 0 -214 60 -68
-126 -63 2335 -63 l2238 0 44 22 c52 27 90 90 90 148 0 58 -38 121 -90 148
l-44 22 -2241 0 c-1829 -1 -2246 -3 -2270 -14z"/>
</g>
</svg>
