<?xml version="1.0" standalone="no"?>
<!DOCTYPE svg PUBLIC "-//W3C//DTD SVG 20010904//EN"
 "http://www.w3.org/TR/2001/REC-SVG-20010904/DTD/svg10.dtd">
<svg version="1.0" xmlns="http://www.w3.org/2000/svg"
 width="516.000000pt" height="996.000000pt" viewBox="0 0 516.000000 996.000000"
 preserveAspectRatio="xMidYMid meet">
<metadata>
Created by potrace 1.16, written by Peter Selinger 2001-2019
</metadata>
<g transform="translate(0.000000,996.000000) scale(0.100000,-0.100000)"
fill="#000000" stroke="none">
<path d="M4797 9949 c-20 -6 -60 -32 -88 -57 -43 -38 -64 -73 -143 -231 -51
-102 -1098 -2240 -2327 -4751 l-2234 -4565 0 -75 c0 -87 19 -134 75 -190 95
-95 242 -105 352 -25 42 31 56 53 146 232 55 109 1105 2252 2333 4763 l2234
4565 0 75 c0 54 -6 86 -20 115 -25 51 -80 106 -130 129 -46 22 -145 29 -198
15z"/>
<path d="M1100 9795 c-168 -34 -305 -109 -431 -234 -275 -275 -328 -681 -132
-1016 61 -106 192 -237 298 -298 266 -155 584 -155 850 0 106 61 237 192 298
298 155 266 155 584 0 850 -61 106 -192 237 -298 298 -176 103 -393 141 -585
102z"/>
<path d="M3730 1815 c-168 -34 -305 -109 -431 -234 -163 -163 -249 -367 -249
-591 0 -224 86 -428 249 -591 275 -275 681 -328 1016 -132 106 61 237 192 298
298 155 266 155 584 0 850 -61 106 -192 237 -298 298 -176 103 -393 141 -585
102z"/>
</g>
</svg>
