<?xml version="1.0" standalone="no"?>
<!DOCTYPE svg PUBLIC "-//W3C//DTD SVG 20010904//EN"
 "http://www.w3.org/TR/2001/REC-SVG-20010904/DTD/svg10.dtd">
<svg version="1.0" xmlns="http://www.w3.org/2000/svg"
 width="584.000000pt" height="658.000000pt" viewBox="0 0 584.000000 658.000000"
 preserveAspectRatio="xMidYMid meet">
<metadata>
Created by potrace 1.16, written by Peter Selinger 2001-2019
</metadata>
<g transform="translate(0.000000,658.000000) scale(0.100000,-0.100000)"
fill="#000000" stroke="none">
<path d="M2670 6574 c-533 -46 -864 -126 -1220 -297 -739 -354 -1210 -1052
-1374 -2037 -92 -552 -100 -1281 -20 -1830 131 -899 512 -1569 1114 -1959 453
-293 1063 -451 1745 -451 779 0 1452 203 1925 580 113 90 289 273 377 390 290
386 473 860 557 1440 64 439 72 1063 21 1540 -115 1052 -526 1803 -1215 2218
-342 207 -733 331 -1215 388 -122 14 -596 27 -695 18z m610 -432 c296 -51 532
-144 723 -285 399 -295 528 -685 568 -1723 13 -346 6 -1544 -10 -1804 -62
-941 -200 -1319 -588 -1607 -560 -415 -1556 -415 -2116 0 -388 288 -526 666
-588 1607 -16 260 -23 1458 -10 1804 32 822 123 1230 333 1497 176 225 450
391 776 473 93 23 256 51 352 60 111 10 448 -3 560 -22z"/>
</g>
</svg>
