<?xml version="1.0" standalone="no"?>
<!DOCTYPE svg PUBLIC "-//W3C//DTD SVG 20010904//EN"
 "http://www.w3.org/TR/2001/REC-SVG-20010904/DTD/svg10.dtd">
<svg version="1.0" xmlns="http://www.w3.org/2000/svg"
 width="690.000000pt" height="976.000000pt" viewBox="0 0 690.000000 976.000000"
 preserveAspectRatio="xMidYMid meet">
<metadata>
Created by potrace 1.16, written by Peter Selinger 2001-2019
</metadata>
<g transform="translate(0.000000,976.000000) scale(0.100000,-0.100000)"
fill="#000000" stroke="none">
<path d="M1035 9684 c-550 -40 -1008 -73 -1017 -73 -17 -1 -18 -20 -18 -261
l0 -260 143 0 c190 0 400 -17 522 -41 235 -47 341 -143 392 -356 14 -59 17
-167 20 -844 l4 -775 -495 -412 -496 -412 166 -200 167 -201 21 19 c11 11 158
133 326 272 l305 252 3 -3121 2 -3121 226 2 227 3 226 402 c124 221 228 402
231 402 3 0 25 -27 50 -61 61 -83 287 -311 385 -388 275 -217 597 -374 935
-455 317 -76 742 -71 1125 13 573 126 1124 437 1528 862 469 494 757 1099 854
1800 21 157 25 612 5 770 -67 549 -242 1035 -523 1461 -414 623 -1012 1054
-1699 1223 -198 48 -323 66 -535 73 -205 7 -381 -6 -581 -43 -508 -92 -1006
-343 -1351 -677 l-83 -81 0 895 1 894 681 565 c375 311 897 744 1160 962 l478
398 -166 200 -166 200 -71 -59 c-40 -33 -486 -404 -992 -824 l-920 -764 -3
919 -2 918 -33 -1 c-17 -1 -482 -34 -1032 -75z m3125 -3859 c604 -117 1088
-568 1304 -1216 116 -347 163 -698 173 -1309 14 -857 -65 -1388 -271 -1825
-250 -529 -714 -907 -1256 -1023 -771 -166 -1490 189 -1909 943 l-61 110 0
1660 0 1661 44 71 c101 165 270 358 427 489 299 249 675 408 1074 454 114 13
374 5 475 -15z"/>
</g>
</svg>
