<?xml version="1.0" standalone="no"?>
<!DOCTYPE svg PUBLIC "-//W3C//DTD SVG 20010904//EN"
 "http://www.w3.org/TR/2001/REC-SVG-20010904/DTD/svg10.dtd">
<svg version="1.0" xmlns="http://www.w3.org/2000/svg"
 width="315.000000pt" height="325.000000pt" viewBox="0 0 315.000000 325.000000"
 preserveAspectRatio="xMidYMid meet">
<metadata>
Created by potrace 1.16, written by Peter Selinger 2001-2019
</metadata>
<g transform="translate(0.000000,325.000000) scale(0.100000,-0.100000)"
fill="#000000" stroke="none">
<path d="M2375 3203 c-137 -126 -354 -282 -565 -405 -52 -31 -234 -131 -405
-223 -362 -195 -460 -252 -611 -352 -362 -240 -596 -501 -718 -803 -49 -120
-66 -191 -73 -302 -23 -383 215 -738 637 -951 433 -218 970 -214 1439 9 398
190 716 489 1003 945 l58 91 -206 144 c-113 79 -208 144 -212 143 -4 0 -36
-46 -72 -102 -86 -134 -270 -322 -394 -402 -164 -107 -307 -154 -486 -162
-193 -8 -346 40 -460 144 -132 121 -160 312 -62 433 83 102 327 355 856 887
l558 562 -113 195 c-63 108 -116 196 -119 196 -3 -1 -27 -22 -55 -47z"/>
</g>
</svg>
