<?xml version="1.0" standalone="no"?>
<!DOCTYPE svg PUBLIC "-//W3C//DTD SVG 20010904//EN"
 "http://www.w3.org/TR/2001/REC-SVG-20010904/DTD/svg10.dtd">
<svg version="1.0" xmlns="http://www.w3.org/2000/svg"
 width="479.000000pt" height="952.000000pt" viewBox="0 0 479.000000 952.000000"
 preserveAspectRatio="xMidYMid meet">
<metadata>
Created by potrace 1.16, written by Peter Selinger 2001-2019
</metadata>
<g transform="translate(0.000000,952.000000) scale(0.100000,-0.100000)"
fill="#000000" stroke="none">
<path d="M2203 9495 c-316 -81 -532 -343 -533 -645 0 -41 7 -147 15 -235 21
-225 27 -201 -52 -214 -316 -54 -708 -201 -938 -351 -437 -286 -672 -667 -692
-1120 -5 -117 -3 -146 15 -218 32 -126 76 -206 157 -287 247 -248 663 -248
910 0 186 185 229 492 106 740 -52 103 -103 162 -197 224 -88 59 -202 98 -318
109 l-78 7 95 92 c222 215 539 369 931 453 54 11 101 18 104 16 3 -3 86 -938
185 -2078 170 -1956 179 -2077 167 -2148 -41 -244 -43 -274 -47 -756 -4 -428
-3 -485 11 -513 29 -55 55 -61 258 -61 164 0 186 2 215 20 17 10 37 29 44 41
6 13 45 403 90 921 73 839 79 901 100 936 254 419 668 833 1139 1138 67 44
176 115 243 158 142 92 319 262 404 387 103 151 181 332 220 511 22 104 25
369 4 473 -66 334 -260 644 -536 856 -240 184 -634 346 -1022 420 l-123 23 0
30 c0 17 7 103 15 191 8 88 15 194 15 235 -1 439 -455 762 -907 645z m921
-1539 c174 -80 317 -205 384 -334 88 -170 116 -332 116 -682 1 -271 -9 -352
-64 -522 -67 -208 -130 -300 -358 -523 -101 -99 -223 -225 -270 -280 -47 -55
-91 -106 -97 -113 -8 -9 -10 -4 -8 20 5 50 213 2453 213 2461 0 11 7 9 84 -27z"/>
<path d="M2245 1426 c-155 -37 -253 -92 -365 -205 -98 -99 -157 -202 -190
-335 -41 -162 -19 -333 62 -496 33 -66 61 -104 128 -171 94 -95 175 -146 298
-187 67 -23 94 -26 212 -26 118 0 145 3 212 26 123 41 204 92 298 187 98 99
157 202 190 335 41 162 19 333 -62 496 -33 66 -61 104 -128 171 -95 96 -177
147 -298 186 -96 31 -266 40 -357 19z"/>
</g>
</svg>
