<?xml version="1.0" standalone="no"?>
<!DOCTYPE svg PUBLIC "-//W3C//DTD SVG 20010904//EN"
 "http://www.w3.org/TR/2001/REC-SVG-20010904/DTD/svg10.dtd">
<svg version="1.0" xmlns="http://www.w3.org/2000/svg"
 width="828.000000pt" height="907.000000pt" viewBox="0 0 828.000000 907.000000"
 preserveAspectRatio="xMidYMid meet">
<metadata>
Created by potrace 1.16, written by Peter Selinger 2001-2019
</metadata>
<g transform="translate(0.000000,907.000000) scale(0.100000,-0.100000)"
fill="#000000" stroke="none">
<path d="M430 8847 l0 -224 343 -6 c619 -11 822 -45 915 -152 42 -47 77 -118
91 -183 8 -38 11 -743 11 -2562 l0 -2510 -825 0 c-909 0 -864 3 -922 -63 -72
-82 -46 -214 51 -258 39 -18 83 -19 869 -19 l827 0 0 -1015 c0 -713 -3 -1030
-11 -1067 -14 -65 -49 -136 -91 -183 -93 -107 -296 -141 -915 -152 l-343 -6 0
-225 0 -225 128 7 c787 39 2897 39 3685 0 l127 -7 0 225 0 225 -342 6 c-620
11 -823 45 -916 152 -42 47 -77 118 -91 183 -8 37 -11 354 -11 1067 l0 1015
1299 2 1299 3 39 31 c102 83 89 223 -27 282 l-44 22 -1283 0 -1283 0 0 470 0
469 1258 4 c1353 4 1288 1 1600 57 751 134 1431 504 1870 1015 361 421 549
927 529 1425 -23 564 -266 1076 -719 1516 -536 520 -1275 831 -2128 894 -85 6
-1035 10 -2562 10 l-2428 0 0 -223z m4651 -238 c582 -45 1024 -214 1335 -511
119 -114 179 -194 249 -329 157 -305 214 -677 202 -1304 -8 -403 -38 -629
-113 -855 -83 -251 -202 -431 -387 -588 -327 -278 -746 -430 -1297 -472 -79
-6 -542 -10 -1117 -10 l-983 0 0 1883 c0 1318 3 1901 11 1942 30 161 113 221
342 245 113 12 1604 11 1758 -1z"/>
</g>
</svg>
