<?xml version="1.0" standalone="no"?>
<!DOCTYPE svg PUBLIC "-//W3C//DTD SVG 20010904//EN"
 "http://www.w3.org/TR/2001/REC-SVG-20010904/DTD/svg10.dtd">
<svg version="1.0" xmlns="http://www.w3.org/2000/svg"
 width="538.000000pt" height="1038.000000pt" viewBox="0 0 538.000000 1038.000000"
 preserveAspectRatio="xMidYMid meet">
<metadata>
Created by potrace 1.16, written by Peter Selinger 2001-2019
</metadata>
<g transform="translate(0.000000,1038.000000) scale(0.100000,-0.100000)"
fill="#000000" stroke="none">
<path d="M4994 10364 c-87 -31 -117 -70 -233 -303 -59 -119 -1153 -2350 -2430
-4957 -1991 -4065 -2323 -4749 -2328 -4796 -17 -163 114 -308 277 -308 64 0
130 25 179 67 34 29 62 75 145 242 57 113 1150 2344 2430 4957 1995 4073 2328
4759 2333 4806 17 165 -116 310 -281 307 -28 0 -70 -7 -92 -15z"/>
<path d="M1293 10219 c-108 -10 -189 -33 -299 -84 -122 -57 -194 -107 -285
-202 -92 -94 -127 -146 -184 -266 -63 -134 -87 -244 -87 -397 0 -153 24 -263
87 -397 57 -120 92 -172 184 -266 91 -95 163 -145 285 -202 113 -52 188 -73
305 -84 104 -9 245 1 335 25 80 22 229 91 302 142 69 47 198 177 244 245 52
79 117 226 140 322 31 125 31 305 0 430 -23 96 -88 243 -140 322 -45 67 -174
197 -240 243 -194 133 -415 191 -647 169z"/>
<path d="M3883 2059 c-45 -4 -110 -15 -145 -25 -82 -22 -230 -91 -304 -142
-69 -47 -198 -177 -244 -245 -52 -79 -117 -226 -140 -322 -31 -125 -31 -305 0
-430 23 -96 88 -243 140 -322 46 -68 175 -198 244 -245 73 -51 222 -120 302
-142 139 -37 349 -37 488 0 80 22 229 91 302 142 69 47 198 177 244 245 52 79
117 226 140 322 31 125 31 305 0 430 -23 96 -88 243 -140 322 -45 67 -174 197
-240 243 -194 133 -415 191 -647 169z"/>
</g>
</svg>
