<?xml version="1.0" standalone="no"?>
<!DOCTYPE svg PUBLIC "-//W3C//DTD SVG 20010904//EN"
 "http://www.w3.org/TR/2001/REC-SVG-20010904/DTD/svg10.dtd">
<svg version="1.0" xmlns="http://www.w3.org/2000/svg"
 width="935.000000pt" height="945.000000pt" viewBox="0 0 935.000000 945.000000"
 preserveAspectRatio="xMidYMid meet">
<metadata>
Created by potrace 1.16, written by Peter Selinger 2001-2019
</metadata>
<g transform="translate(0.000000,945.000000) scale(0.100000,-0.100000)"
fill="#000000" stroke="none">
<path d="M5900 9439 c-177 -12 -368 -35 -565 -69 -1085 -188 -2057 -691 -2791
-1443 -496 -507 -848 -1086 -1062 -1743 l-47 -144 -668 0 c-727 0 -700 2 -746
-56 -20 -25 -21 -39 -21 -248 0 -204 2 -224 20 -254 39 -63 27 -62 691 -62
l602 0 -6 -37 c-28 -179 -33 -682 -8 -915 l6 -68 -598 0 c-659 0 -648 1 -687
-62 -18 -30 -20 -50 -20 -254 0 -209 1 -223 21 -248 46 -58 20 -56 736 -56
l658 0 24 -92 c121 -477 363 -1020 646 -1448 197 -298 360 -497 634 -771 319
-319 579 -524 956 -752 167 -101 550 -290 731 -361 426 -167 869 -276 1354
-333 128 -15 302 -17 1520 -20 1328 -3 1376 -3 1409 15 19 10 43 34 52 53 11
22 120 650 308 1789 160 965 291 1764 291 1775 0 35 -35 88 -71 107 -29 15
-58 18 -202 18 -185 0 -220 -8 -253 -58 -11 -16 -39 -154 -79 -391 -176 -1026
-292 -1556 -422 -1916 -49 -139 -102 -237 -177 -331 -195 -244 -439 -399 -684
-434 -53 -8 -284 -10 -752 -7 -745 4 -782 7 -1065 76 -794 196 -1509 750
-2017 1564 -176 282 -374 715 -477 1042 -40 128 -121 437 -121 462 0 26 1118
14 1515 -17 719 -56 1176 -200 1425 -449 258 -258 413 -613 480 -1101 31 -225
40 -360 47 -698 7 -348 9 -359 74 -394 29 -15 58 -18 204 -18 193 0 223 9 257
71 17 32 18 102 18 1584 0 1482 -1 1552 -18 1584 -10 19 -34 43 -53 53 -32 17
-116 18 -2040 18 l-2006 0 -6 78 c-22 263 -16 814 10 920 l5 22 2002 0 c1919
0 2003 1 2035 18 19 10 43 34 53 53 17 32 18 102 18 1584 0 1482 -1 1552 -18
1584 -34 62 -64 71 -257 71 -146 0 -175 -3 -204 -18 -65 -35 -67 -46 -74 -394
-12 -540 -54 -871 -148 -1157 -142 -431 -380 -718 -720 -868 -415 -182 -1014
-253 -2147 -253 -408 0 -433 1 -428 18 88 314 166 523 296 787 110 226 194
368 324 550 228 321 486 587 793 816 356 267 795 468 1208 554 282 58 315 60
1140 60 816 0 816 0 975 -53 253 -83 512 -288 610 -482 128 -255 241 -795 360
-1720 28 -215 48 -337 59 -359 31 -62 63 -71 256 -71 196 0 224 8 259 76 l20
39 -192 1545 c-144 1149 -198 1554 -211 1579 -9 19 -32 42 -51 53 -33 17 -93
18 -1450 17 -778 -1 -1471 -6 -1540 -10z"/>
</g>
</svg>
