<?xml version="1.0" standalone="no"?>
<!DOCTYPE svg PUBLIC "-//W3C//DTD SVG 20010904//EN"
 "http://www.w3.org/TR/2001/REC-SVG-20010904/DTD/svg10.dtd">
<svg version="1.0" xmlns="http://www.w3.org/2000/svg"
 width="413.000000pt" height="227.000000pt" viewBox="0 0 413.000000 227.000000"
 preserveAspectRatio="xMidYMid meet">
<metadata>
Created by potrace 1.16, written by Peter Selinger 2001-2019
</metadata>
<g transform="translate(0.000000,227.000000) scale(0.100000,-0.100000)"
fill="#000000" stroke="none">
<path d="M135 2153 c-55 -64 -108 -127 -117 -139 -17 -21 -4 -34 1008 -1015
564 -547 1029 -994 1034 -994 5 0 470 447 1034 994 869 842 1024 997 1013
1010 -58 71 -220 257 -226 259 -4 1 -416 -292 -914 -652 l-907 -655 -906 655
c-499 359 -909 654 -913 654 -3 0 -51 -53 -106 -117z"/>
</g>
</svg>
