<?xml version="1.0" standalone="no"?>
<!DOCTYPE svg PUBLIC "-//W3C//DTD SVG 20010904//EN"
 "http://www.w3.org/TR/2001/REC-SVG-20010904/DTD/svg10.dtd">
<svg version="1.0" xmlns="http://www.w3.org/2000/svg"
 width="477.000000pt" height="627.000000pt" viewBox="0 0 477.000000 627.000000"
 preserveAspectRatio="xMidYMid meet">
<metadata>
Created by potrace 1.16, written by Peter Selinger 2001-2019
</metadata>
<g transform="translate(0.000000,627.000000) scale(0.100000,-0.100000)"
fill="#000000" stroke="none">
<path d="M2570 6214 c-425 -273 -1013 -446 -1732 -509 -138 -12 -650 -34 -810
-35 l-28 0 0 -310 0 -310 28 0 c15 0 163 5 330 10 558 18 929 63 1314 161 64
16 119 29 122 29 3 0 6 -982 6 -2182 0 -2096 -1 -2185 -19 -2223 -52 -114
-175 -170 -426 -194 -178 -17 -607 -31 -967 -31 l-318 0 0 -311 0 -312 148 7
c945 41 3449 41 4395 0 l147 -7 0 312 0 311 -317 0 c-361 0 -790 14 -968 31
-251 24 -374 80 -426 194 -18 38 -19 140 -19 2674 l0 2633 -21 38 c-37 66 -77
80 -225 79 l-129 -1 -85 -54z"/>
</g>
</svg>
