<?xml version="1.0" standalone="no"?>
<!DOCTYPE svg PUBLIC "-//W3C//DTD SVG 20010904//EN"
 "http://www.w3.org/TR/2001/REC-SVG-20010904/DTD/svg10.dtd">
<svg version="1.0" xmlns="http://www.w3.org/2000/svg"
 width="666.000000pt" height="1115.000000pt" viewBox="0 0 666.000000 1115.000000"
 preserveAspectRatio="xMidYMid meet">
<metadata>
Created by potrace 1.16, written by Peter Selinger 2001-2019
</metadata>
<g transform="translate(0.000000,1115.000000) scale(0.100000,-0.100000)"
fill="#000000" stroke="none">
<path d="M4840 11141 c-70 -22 -152 -93 -178 -156 -7 -16 -545 -2064 -1196
-4550 -679 -2593 -1186 -4511 -1189 -4500 -3 11 -168 830 -367 1820 -198 990
-362 1804 -363 1808 -2 5 -350 -539 -775 -1209 l-772 -1219 120 -119 c65 -66
121 -118 123 -116 3 3 179 281 393 618 331 523 390 610 396 590 4 -12 190
-934 413 -2048 224 -1114 409 -2033 411 -2042 5 -16 22 -18 175 -18 160 0 172
1 217 24 57 29 106 78 126 128 9 20 623 2357 1366 5195 743 2837 1357 5182
1366 5211 l15 52 647 0 c713 0 711 0 785 60 20 18 49 53 65 78 24 41 27 57 27
132 0 75 -3 91 -27 132 -16 25 -45 60 -65 78 -75 61 -60 60 -912 59 -427 0
-787 -4 -801 -8z"/>
</g>
</svg>
