<?xml version="1.0" standalone="no"?>
<!DOCTYPE svg PUBLIC "-//W3C//DTD SVG 20010904//EN"
 "http://www.w3.org/TR/2001/REC-SVG-20010904/DTD/svg10.dtd">
<svg version="1.0" xmlns="http://www.w3.org/2000/svg"
 width="576.000000pt" height="954.000000pt" viewBox="0 0 576.000000 954.000000"
 preserveAspectRatio="xMidYMid meet">
<metadata>
Created by potrace 1.16, written by Peter Selinger 2001-2019
</metadata>
<g transform="translate(0.000000,954.000000) scale(0.100000,-0.100000)"
fill="#000000" stroke="none">
<path d="M2620 9529 c-537 -55 -1041 -275 -1445 -629 -437 -382 -727 -943
-785 -1519 -72 -716 219 -1459 763 -1952 132 -119 209 -175 449 -330 112 -73
207 -135 211 -139 4 -4 -46 -36 -111 -72 -365 -200 -683 -438 -952 -715 -163
-166 -236 -255 -348 -422 -464 -695 -531 -1539 -177 -2259 386 -788 1217
-1332 2240 -1469 204 -27 643 -24 835 6 534 82 1012 284 1420 599 113 87 354
325 444 437 273 339 453 721 536 1132 89 448 59 888 -91 1330 -137 402 -356
742 -680 1058 -172 167 -288 253 -701 519 -186 120 -340 221 -342 225 -3 4 32
29 77 56 957 568 1434 1284 1404 2105 -11 280 -71 519 -194 765 -101 201 -202
343 -363 509 -133 137 -228 216 -385 321 -442 295 -1005 458 -1565 454 -85 -1
-193 -6 -240 -10z m438 -540 c423 -46 786 -224 1073 -527 506 -535 557 -1338
127 -2000 -182 -279 -511 -592 -823 -781 l-52 -32 -754 487 c-415 267 -785
507 -824 533 -380 251 -604 627 -605 1016 0 90 23 241 51 330 101 327 366 610
739 789 317 152 723 223 1068 185z m207 -4964 c484 -313 916 -595 960 -628
106 -80 265 -240 348 -352 73 -100 171 -281 211 -393 129 -363 87 -804 -110
-1147 -274 -475 -800 -799 -1464 -901 -161 -25 -494 -25 -645 -1 -587 96
-1063 394 -1377 862 -228 340 -329 760 -287 1191 51 532 285 1009 699 1425
199 201 404 360 640 497 l85 50 30 -18 c17 -9 426 -273 910 -585z"/>
</g>
</svg>
