<?xml version="1.0" standalone="no"?>
<!DOCTYPE svg PUBLIC "-//W3C//DTD SVG 20010904//EN"
 "http://www.w3.org/TR/2001/REC-SVG-20010904/DTD/svg10.dtd">
<svg version="1.0" xmlns="http://www.w3.org/2000/svg"
 width="305.000000pt" height="1384.000000pt" viewBox="0 0 305.000000 1384.000000"
 preserveAspectRatio="xMidYMid meet">
<metadata>
Created by potrace 1.16, written by Peter Selinger 2001-2019
</metadata>
<g transform="translate(0.000000,1384.000000) scale(0.100000,-0.100000)"
fill="#000000" stroke="none">
<path d="M82 13820 c-57 -35 -72 -72 -72 -183 0 -106 9 -134 55 -177 26 -24
31 -25 228 -32 352 -11 576 -61 846 -189 440 -209 724 -546 817 -969 18 -81
19 -166 19 -1925 0 -2045 5 -1897 -66 -2110 -206 -619 -878 -1065 -1661 -1104
-171 -8 -193 -15 -228 -74 -29 -47 -29 -227 0 -274 35 -59 57 -66 228 -74 783
-39 1455 -485 1661 -1104 71 -213 66 -65 66 -2110 0 -1759 -1 -1844 -19 -1925
-93 -423 -377 -760 -817 -969 -270 -128 -494 -178 -846 -189 -197 -7 -202 -8
-228 -32 -46 -43 -55 -71 -55 -177 0 -111 15 -148 72 -183 39 -24 154 -26 413
-10 690 44 1304 213 1740 477 466 283 742 683 795 1152 8 67 10 649 8 1921
l-4 1825 -21 93 c-107 463 -368 812 -814 1093 -181 114 -513 258 -738 321 -45
13 -81 25 -81 28 0 3 36 15 81 28 225 63 557 207 738 321 446 281 707 630 814
1093 l21 93 4 1825 c2 1272 0 1854 -8 1921 -53 469 -329 869 -795 1152 -436
264 -1050 433 -1740 477 -259 16 -374 14 -413 -10z"/>
</g>
</svg>
