<?xml version="1.0" standalone="no"?>
<!DOCTYPE svg PUBLIC "-//W3C//DTD SVG 20010904//EN"
 "http://www.w3.org/TR/2001/REC-SVG-20010904/DTD/svg10.dtd">
<svg version="1.0" xmlns="http://www.w3.org/2000/svg"
 width="576.000000pt" height="927.000000pt" viewBox="0 0 576.000000 927.000000"
 preserveAspectRatio="xMidYMid meet">
<metadata>
Created by potrace 1.16, written by Peter Selinger 2001-2019
</metadata>
<g transform="translate(0.000000,927.000000) scale(0.100000,-0.100000)"
fill="#000000" stroke="none">
<path d="M2530 9264 c-518 -49 -1004 -226 -1378 -503 -466 -345 -746 -850
-769 -1386 -7 -162 4 -251 46 -373 81 -235 258 -399 518 -479 78 -24 105 -27
233 -27 121 0 158 3 224 22 368 106 579 391 577 782 0 154 -21 246 -87 379
-85 171 -243 304 -440 370 -50 17 -122 35 -160 39 l-69 8 96 95 c328 322 801
511 1344 536 440 20 811 -147 1024 -460 174 -256 241 -690 190 -1237 -31 -333
-115 -650 -244 -917 -165 -342 -379 -576 -647 -706 -181 -88 -235 -98 -756
-138 -444 -33 -446 -34 -489 -99 -21 -31 -23 -44 -23 -184 0 -172 10 -205 71
-238 31 -17 69 -18 534 -18 393 0 521 -3 600 -15 401 -60 759 -335 969 -744
159 -311 236 -738 236 -1316 0 -841 -150 -1345 -505 -1700 -186 -186 -391
-299 -635 -350 -203 -43 -575 -24 -915 46 -304 63 -615 189 -835 337 -118 79
-242 181 -235 192 3 4 25 11 50 14 120 18 283 95 389 182 87 72 147 149 202
259 71 144 88 221 88 410 0 189 -17 266 -88 410 -55 110 -115 187 -203 259
-368 304 -972 250 -1259 -112 -59 -75 -129 -218 -155 -317 -53 -202 -31 -507
57 -780 37 -116 154 -345 231 -455 86 -121 319 -356 446 -450 500 -368 1156
-576 1882 -597 437 -12 847 51 1242 192 284 102 644 303 883 496 590 473 952
1170 977 1879 12 347 -55 654 -212 975 -265 542 -775 996 -1418 1264 -123 51
-375 133 -484 157 -46 10 -83 21 -83 24 0 3 46 23 101 44 340 132 702 365 966
619 228 220 385 432 513 691 108 218 174 423 216 671 26 147 26 489 0 605
-105 482 -418 899 -899 1196 -378 234 -799 376 -1292 434 -93 12 -545 21 -625
14z"/>
</g>
</svg>
