<?xml version="1.0" standalone="no"?>
<!DOCTYPE svg PUBLIC "-//W3C//DTD SVG 20010904//EN"
 "http://www.w3.org/TR/2001/REC-SVG-20010904/DTD/svg10.dtd">
<svg version="1.0" xmlns="http://www.w3.org/2000/svg"
 width="1167.000000pt" height="975.000000pt" viewBox="0 0 1167.000000 975.000000"
 preserveAspectRatio="xMidYMid meet">
<metadata>
Created by potrace 1.16, written by Peter Selinger 2001-2019
</metadata>
<g transform="translate(0.000000,975.000000) scale(0.100000,-0.100000)"
fill="#000000" stroke="none">
<path d="M7410 9744 c-392 -77 -705 -382 -980 -957 -137 -285 -222 -574 -277
-931 -16 -101 -18 -298 -23 -2170 l-5 -2059 -1259 2944 c-693 1619 -1266 2954
-1274 2967 -8 13 -32 32 -53 43 -37 19 -71 19 -1389 19 l-1350 0 0 -310 0
-310 293 0 c474 0 886 -20 1065 -51 l62 -11 0 -3407 c0 -2247 -4 -3461 -10
-3566 -37 -565 -173 -954 -412 -1181 -102 -96 -184 -141 -312 -169 -26 -6 -23
0 38 67 78 85 154 227 188 353 31 115 31 364 0 479 -50 182 -155 341 -292 445
-157 118 -305 170 -510 178 -431 18 -778 -227 -880 -622 -12 -44 -24 -129 -27
-190 -32 -617 435 -1146 1132 -1282 65 -12 138 -17 260 -17 156 0 177 3 260
28 249 75 458 231 641 476 213 285 360 634 444 1050 69 339 63 76 69 3429 l6
3033 1644 -3843 c904 -2114 1659 -3876 1677 -3914 51 -109 67 -115 289 -115
161 0 181 2 215 21 20 11 45 35 56 52 19 31 19 114 24 3787 6 3495 7 3763 23
3875 58 398 162 706 323 953 104 159 253 284 372 310 l42 10 -66 -72 c-76 -83
-152 -226 -186 -351 -31 -115 -31 -364 1 -480 104 -383 429 -625 841 -625 412
0 742 246 840 625 27 102 36 274 21 388 -71 533 -497 950 -1098 1077 -95 20
-365 35 -423 24z"/>
<path d="M9770 7524 c-182 -20 -310 -57 -463 -136 -443 -227 -782 -727 -908
-1336 -46 -225 -64 -593 -39 -802 46 -374 177 -716 382 -995 81 -110 270 -293
377 -364 242 -161 463 -231 726 -231 340 0 647 129 914 385 318 306 509 706
572 1200 17 132 14 446 -5 600 -100 789 -537 1423 -1120 1621 -120 41 -332 69
-436 58z m136 -515 c156 -29 291 -160 353 -346 55 -164 65 -423 31 -793 -25
-272 -25 -485 0 -715 36 -333 24 -544 -40 -682 -39 -85 -74 -129 -143 -180
-74 -54 -165 -83 -262 -83 -215 0 -378 135 -441 365 -28 104 -30 320 -4 555
27 244 29 474 5 700 -23 220 -31 527 -16 631 28 196 86 334 181 430 64 65 121
98 200 115 71 16 67 16 136 3z"/>
<path d="M8112 2900 c-67 -41 -72 -62 -72 -286 0 -192 1 -203 23 -234 12 -18
35 -43 50 -54 l28 -21 1702 0 c1684 0 1702 0 1735 20 18 11 43 36 55 55 21 33
22 47 22 237 0 224 -2 231 -75 281 l-33 22 -1701 0 c-1680 0 -1701 0 -1734
-20z"/>
</g>
</svg>
