<?xml version="1.0" standalone="no"?>
<!DOCTYPE svg PUBLIC "-//W3C//DTD SVG 20010904//EN"
 "http://www.w3.org/TR/2001/REC-SVG-20010904/DTD/svg10.dtd">
<svg version="1.0" xmlns="http://www.w3.org/2000/svg"
 width="539.000000pt" height="639.000000pt" viewBox="0 0 539.000000 639.000000"
 preserveAspectRatio="xMidYMid meet">
<metadata>
Created by potrace 1.16, written by Peter Selinger 2001-2019
</metadata>
<g transform="translate(0.000000,639.000000) scale(0.100000,-0.100000)"
fill="#000000" stroke="none">
<path d="M2505 6384 c-16 -2 -73 -9 -125 -15 -285 -32 -623 -139 -890 -280
-119 -63 -318 -195 -430 -284 -118 -95 -339 -320 -437 -446 -423 -544 -645
-1233 -620 -1924 26 -710 310 -1354 813 -1845 221 -216 424 -360 688 -490 268
-131 506 -206 797 -251 207 -33 571 -33 778 0 291 45 529 120 797 251 264 130
467 274 688 490 703 686 969 1663 727 2665 -96 396 -282 779 -534 1104 -94
121 -316 348 -430 440 -375 303 -816 496 -1289 567 -98 14 -469 27 -533 18z
m450 -429 c288 -60 536 -194 729 -396 285 -297 401 -651 437 -1337 14 -264 7
-1150 -11 -1342 -56 -620 -192 -974 -478 -1242 -521 -489 -1363 -489 -1884 0
-286 268 -422 622 -478 1242 -18 192 -25 1078 -11 1342 30 561 114 896 292
1163 69 102 217 256 316 327 185 133 417 227 639 257 99 14 354 6 449 -14z"/>
<path d="M327 400 c-82 -25 -137 -104 -137 -197 0 -72 28 -125 88 -168 l44
-30 2351 -3 c2631 -3 2404 -9 2471 70 88 102 53 264 -68 319 -40 18 -125 19
-2381 18 -1287 0 -2353 -5 -2368 -9z"/>
</g>
</svg>
