<?xml version="1.0" standalone="no"?>
<!DOCTYPE svg PUBLIC "-//W3C//DTD SVG 20010904//EN"
 "http://www.w3.org/TR/2001/REC-SVG-20010904/DTD/svg10.dtd">
<svg version="1.0" xmlns="http://www.w3.org/2000/svg"
 width="1383.000000pt" height="1446.000000pt" viewBox="0 0 1383.000000 1446.000000"
 preserveAspectRatio="xMidYMid meet">
<metadata>
Created by potrace 1.16, written by Peter Selinger 2001-2019
</metadata>
<g transform="translate(0.000000,1446.000000) scale(0.100000,-0.100000)"
fill="#000000" stroke="none">
<path d="M6520 14449 c-2123 -132 -4042 -1248 -5269 -3062 -226 -335 -518
-878 -670 -1247 -776 -1878 -776 -3942 0 -5820 94 -229 331 -697 464 -919 370
-617 806 -1152 1320 -1620 1972 -1795 4740 -2276 7158 -1245 1347 575 2474
1567 3252 2865 133 222 370 690 464 919 776 1878 776 3942 0 5820 -152 369
-444 912 -670 1247 -1169 1729 -2963 2824 -4979 3037 -325 35 -756 45 -1070
25z m730 -559 c1041 -64 2022 -376 2900 -923 1194 -744 2102 -1847 2635 -3202
351 -891 517 -1927 465 -2885 -56 -1009 -295 -1918 -736 -2791 -410 -811 -976
-1522 -1674 -2101 -1107 -918 -2512 -1428 -3930 -1428 -1013 0 -2042 265
-2935 755 -1341 736 -2362 1909 -2940 3380 -351 891 -517 1927 -465 2885 75
1369 512 2624 1284 3690 688 950 1603 1685 2660 2137 861 368 1828 538 2736
483z"/>
<path d="M6810 10684 c-436 -36 -733 -91 -1072 -200 -657 -211 -1236 -568
-1692 -1045 -280 -292 -521 -650 -681 -1007 -430 -964 -388 -2016 116 -2948
82 -152 253 -410 362 -544 587 -729 1484 -1243 2465 -1414 277 -49 415 -60
742 -60 267 0 323 3 450 23 394 61 753 180 1065 353 804 447 1320 1204 1404
2062 24 244 12 320 -60 358 -49 26 -259 26 -308 0 -48 -26 -71 -73 -71 -148 0
-33 -5 -110 -11 -170 -60 -619 -375 -1167 -884 -1539 -290 -211 -614 -343
-985 -401 -156 -25 -530 -25 -715 0 -640 84 -1154 318 -1562 710 -138 133
-220 229 -318 377 -247 369 -390 844 -447 1479 -17 193 -17 831 0 1015 58 626
184 1057 418 1435 334 541 943 943 1643 1085 223 45 362 58 606 59 309 0 488
-32 729 -130 750 -306 1295 -1083 1440 -2051 15 -96 31 -171 41 -186 31 -48
69 -57 237 -57 174 0 207 10 240 71 17 32 18 96 18 1404 0 1308 -1 1372 -18
1404 -27 50 -73 71 -155 71 -40 0 -79 -6 -95 -14 -15 -8 -189 -177 -386 -374
l-359 -360 -98 83 c-407 342 -885 557 -1419 640 -100 16 -528 28 -640 19z"/>
</g>
</svg>
