<?xml version="1.0" standalone="no"?>
<!DOCTYPE svg PUBLIC "-//W3C//DTD SVG 20010904//EN"
 "http://www.w3.org/TR/2001/REC-SVG-20010904/DTD/svg10.dtd">
<svg version="1.0" xmlns="http://www.w3.org/2000/svg"
 width="423.000000pt" height="1260.000000pt" viewBox="0 0 423.000000 1260.000000"
 preserveAspectRatio="xMidYMid meet">
<metadata>
Created by potrace 1.16, written by Peter Selinger 2001-2019
</metadata>
<g transform="translate(0.000000,1260.000000) scale(0.100000,-0.100000)"
fill="#000000" stroke="none">
<path d="M1881 12589 c-356 -38 -744 -199 -1047 -435 -517 -403 -834 -1068
-834 -1753 0 -603 204 -1204 583 -1721 95 -129 152 -195 284 -331 l113 -115
-107 -81 c-545 -407 -873 -1078 -873 -1782 0 -534 165 -1084 469 -1556 232
-362 577 -711 951 -960 223 -148 374 -227 707 -370 581 -250 921 -490 1120
-792 129 -197 172 -401 144 -693 -58 -608 -331 -1104 -740 -1346 -82 -48 -208
-97 -316 -121 -101 -24 -368 -23 -495 1 -287 55 -545 190 -740 386 -83 83
-188 218 -206 263 -4 10 8 18 43 26 70 18 178 78 237 132 179 164 228 465 114
697 -146 296 -557 400 -844 214 -165 -107 -254 -282 -254 -502 1 -402 167
-815 456 -1128 356 -386 906 -622 1455 -622 547 0 1069 215 1460 602 421 417
659 993 659 1597 0 603 -204 1204 -583 1721 -95 129 -152 195 -284 331 l-113
115 107 81 c545 407 873 1078 873 1782 0 534 -165 1084 -469 1556 -232 362
-577 711 -951 960 -223 148 -374 227 -707 370 -581 250 -921 490 -1120 792
-129 197 -172 401 -144 693 58 608 331 1104 740 1346 82 48 208 97 316 121
101 24 368 23 495 -1 287 -55 545 -190 740 -386 83 -83 188 -218 206 -263 4
-10 -8 -18 -43 -26 -70 -18 -178 -78 -237 -132 -179 -164 -228 -465 -114 -697
146 -296 557 -400 844 -214 165 107 254 282 254 502 -1 402 -167 815 -456
1128 -308 334 -764 558 -1249 612 -106 12 -325 11 -444 -1z m-294 -4809 c147
-88 307 -167 535 -264 582 -248 925 -490 1125 -793 129 -197 172 -401 144
-693 -26 -273 -89 -506 -196 -725 -102 -209 -232 -384 -372 -498 l-71 -58
-118 71 c-148 87 -308 167 -536 264 -582 248 -925 490 -1125 793 -129 197
-172 401 -144 693 49 508 253 953 556 1212 44 37 81 68 82 68 2 0 56 -32 120
-70z"/>
</g>
</svg>
