<?xml version="1.0" standalone="no"?>
<!DOCTYPE svg PUBLIC "-//W3C//DTD SVG 20010904//EN"
 "http://www.w3.org/TR/2001/REC-SVG-20010904/DTD/svg10.dtd">
<svg version="1.0" xmlns="http://www.w3.org/2000/svg"
 width="550.000000pt" height="198.000000pt" viewBox="0 0 550.000000 198.000000"
 preserveAspectRatio="xMidYMid meet">
<metadata>
Created by potrace 1.16, written by Peter Selinger 2001-2019
</metadata>
<g transform="translate(0.000000,198.000000) scale(0.100000,-0.100000)"
fill="#000000" stroke="none">
<path d="M2415 1969 c-1050 -80 -1953 -581 -2280 -1264 -106 -223 -165 -533
-119 -631 23 -48 82 -74 169 -74 124 0 185 50 185 152 0 69 19 167 49 255 167
486 821 910 1621 1052 248 44 392 55 705 55 313 0 457 -11 705 -55 800 -142
1454 -566 1621 -1052 30 -88 49 -186 49 -255 0 -102 61 -152 185 -152 87 0
146 26 169 74 46 98 -13 408 -119 631 -301 630 -1101 1112 -2055 1240 -259 34
-620 44 -885 24z"/>
</g>
</svg>
