<?xml version="1.0" standalone="no"?>
<!DOCTYPE svg PUBLIC "-//W3C//DTD SVG 20010904//EN"
 "http://www.w3.org/TR/2001/REC-SVG-20010904/DTD/svg10.dtd">
<svg version="1.0" xmlns="http://www.w3.org/2000/svg"
 width="595.000000pt" height="1338.000000pt" viewBox="0 0 595.000000 1338.000000"
 preserveAspectRatio="xMidYMid meet">
<metadata>
Created by potrace 1.16, written by Peter Selinger 2001-2019
</metadata>
<g transform="translate(0.000000,1338.000000) scale(0.100000,-0.100000)"
fill="#000000" stroke="none">
<path d="M3196 13299 c-493 -299 -1142 -448 -2034 -466 l-302 -6 0 -310 0
-310 303 6 c485 10 880 55 1209 138 42 10 81 19 87 19 15 0 15 -4078 1 -4130
-22 -80 -108 -156 -207 -183 -126 -35 -494 -57 -945 -57 l-258 0 0 -311 0
-312 128 7 c819 41 2989 41 3780 0 l122 -6 0 309 0 310 -397 6 c-557 9 -745
28 -847 85 -58 33 -110 95 -126 150 -7 25 -10 844 -10 2531 l0 2493 -21 38
c-12 21 -38 47 -59 59 -33 19 -53 21 -166 20 l-129 -1 -129 -79z"/>
<path d="M210 6811 c-83 -26 -141 -74 -181 -151 -19 -35 -24 -61 -24 -120 1
-116 50 -196 155 -251 l45 -24 2750 -3 c3115 -2 2807 -11 2901 83 112 112 112
278 1 390 -95 94 213 85 -2886 84 -1505 0 -2747 -4 -2761 -8z"/>
<path d="M3705 6141 c-22 -10 -54 -34 -71 -52 -17 -19 -779 -946 -1693 -2061
l-1661 -2028 0 -310 0 -310 1411 0 1410 0 -3 -262 -3 -263 -27 -45 c-88 -150
-214 -175 -925 -187 l-383 -6 0 -310 0 -310 118 7 c756 41 2911 41 3665 0
l117 -7 0 312 0 311 -232 0 c-285 0 -620 16 -751 35 -160 24 -235 69 -283 170
-23 48 -24 58 -24 303 l0 252 645 0 645 0 0 310 0 310 -645 0 -645 0 -2 2029
-3 2030 -21 27 c-11 15 -33 37 -48 48 -26 20 -43 21 -289 24 -239 2 -266 0
-302 -17z m-528 -4138 c-2 -2 -501 -2 -1108 -1 l-1105 3 1106 1349 1105 1348
3 -1348 c1 -741 1 -1349 -1 -1351z"/>
</g>
</svg>
