<?xml version="1.0" standalone="no"?>
<!DOCTYPE svg PUBLIC "-//W3C//DTD SVG 20010904//EN"
 "http://www.w3.org/TR/2001/REC-SVG-20010904/DTD/svg10.dtd">
<svg version="1.0" xmlns="http://www.w3.org/2000/svg"
 width="691.000000pt" height="1115.000000pt" viewBox="0 0 691.000000 1115.000000"
 preserveAspectRatio="xMidYMid meet">
<metadata>
Created by potrace 1.16, written by Peter Selinger 2001-2019
</metadata>
<g transform="translate(0.000000,1115.000000) scale(0.100000,-0.100000)"
fill="#000000" stroke="none">
<path d="M2380 10775 l0 -374 -42 -11 c-115 -29 -408 -129 -533 -182 -422
-179 -768 -409 -1066 -707 -399 -400 -626 -824 -716 -1336 -25 -143 -24 -499
1 -649 23 -141 75 -329 127 -462 311 -796 1101 -1437 2132 -1729 l97 -28 0
-1973 c0 -1781 -2 -1974 -16 -1974 -29 0 -259 62 -377 101 -628 210 -1069 581
-1281 1077 -20 46 -36 84 -36 85 0 1 42 3 93 4 212 5 417 101 547 258 51 62
114 188 137 275 27 101 25 311 -5 415 -36 125 -86 209 -177 300 -92 92 -159
135 -282 179 -85 30 -94 31 -248 31 -154 0 -163 -1 -248 -31 -123 -44 -190
-87 -282 -179 -90 -90 -140 -174 -175 -295 -57 -195 -27 -639 65 -975 148
-541 443 -972 892 -1302 334 -246 814 -453 1286 -553 l107 -23 0 -359 0 -358
310 0 310 0 0 314 0 313 348 -1 c191 0 393 3 450 7 l102 8 0 -321 0 -320 310
0 310 0 0 379 0 380 88 26 c360 107 672 252 987 460 191 127 335 244 496 405
237 237 402 464 544 755 168 341 250 660 262 1015 21 655 -209 1266 -677 1795
-388 438 -998 816 -1602 992 l-98 28 0 1793 0 1793 38 -7 c69 -11 323 -74 410
-100 127 -38 301 -108 432 -174 359 -181 618 -427 774 -737 l36 -73 -54 0
c-118 0 -285 -47 -393 -111 -89 -52 -192 -162 -240 -255 -61 -118 -84 -201
-90 -330 -18 -362 174 -638 517 -746 64 -19 96 -23 215 -23 119 0 151 4 215
23 338 106 520 363 520 734 0 530 -157 1015 -458 1413 -66 87 -264 286 -362
364 -372 297 -901 524 -1462 627 l-98 18 0 353 0 353 -310 0 -310 0 0 -313 0
-314 -357 1 c-197 1 -400 -3 -450 -7 l-93 -8 0 321 0 320 -310 0 -310 0 0
-375z m1378 -872 l142 -6 0 -1754 0 -1754 -22 7 c-13 4 -214 55 -448 114
l-425 106 -3 1636 -2 1636 107 7 c60 3 119 7 133 9 51 6 379 6 518 -1z m-1378
-1633 c0 -862 -4 -1490 -9 -1490 -18 0 -250 83 -351 126 -530 226 -912 578
-1053 969 -45 125 -61 228 -61 385 -1 204 26 316 119 505 199 402 636 743
1220 951 66 24 123 43 128 43 4 1 7 -669 7 -1489z m1075 -3241 l445 -111 0
-1823 0 -1823 -22 -5 c-13 -3 -95 -11 -183 -18 -156 -11 -621 -7 -672 7 l-23
6 0 1939 c0 1067 2 1939 5 1939 3 0 205 -50 450 -111z m1225 -336 c570 -225
1018 -616 1205 -1053 96 -224 133 -478 104 -715 -66 -542 -463 -1039 -1083
-1355 -113 -57 -288 -132 -363 -155 l-23 -6 0 1671 0 1671 23 -6 c12 -4 74
-27 137 -52z"/>
</g>
</svg>
