<?xml version="1.0" standalone="no"?>
<!DOCTYPE svg PUBLIC "-//W3C//DTD SVG 20010904//EN"
 "http://www.w3.org/TR/2001/REC-SVG-20010904/DTD/svg10.dtd">
<svg version="1.0" xmlns="http://www.w3.org/2000/svg"
 width="546.000000pt" height="835.000000pt" viewBox="0 0 546.000000 835.000000"
 preserveAspectRatio="xMidYMid meet">
<metadata>
Created by potrace 1.16, written by Peter Selinger 2001-2019
</metadata>
<g transform="translate(0.000000,835.000000) scale(0.100000,-0.100000)"
fill="#000000" stroke="none">
<path d="M2325 8331 c-84 -52 -89 -77 -60 -318 88 -738 155 -1762 155 -2395
l0 -187 -252 5 c-724 14 -1174 29 -1750 60 -278 15 -299 15 -332 -1 -20 -10
-46 -32 -59 -49 -21 -29 -22 -42 -25 -251 -3 -217 -3 -221 20 -255 13 -19 39
-45 58 -58 33 -23 41 -24 140 -18 215 13 714 36 985 46 353 13 1208 30 1214
24 6 -6 -16 -1388 -29 -1794 -30 -953 -67 -1737 -121 -2590 -28 -448 -28 -443
-3 -477 11 -15 36 -38 54 -51 33 -22 36 -22 405 -22 369 0 372 0 405 22 18 13
43 36 54 51 25 34 25 29 -3 477 -85 1347 -150 3152 -151 4187 l0 202 253 -5
c723 -14 1173 -29 1749 -60 278 -15 299 -15 332 1 20 10 46 32 59 49 21 30 22
39 22 261 0 222 -1 231 -22 261 -13 17 -39 39 -59 49 -33 16 -54 16 -332 1
-576 -31 -1026 -46 -1749 -60 l-253 -5 0 187 c0 633 67 1657 155 2395 25 212
23 241 -17 285 -49 52 -50 52 -445 52 -341 0 -370 -1 -398 -19z"/>
</g>
</svg>
