<?xml version="1.0" standalone="no"?>
<!DOCTYPE svg PUBLIC "-//W3C//DTD SVG 20010904//EN"
 "http://www.w3.org/TR/2001/REC-SVG-20010904/DTD/svg10.dtd">
<svg version="1.0" xmlns="http://www.w3.org/2000/svg"
 width="576.000000pt" height="927.000000pt" viewBox="0 0 576.000000 927.000000"
 preserveAspectRatio="xMidYMid meet">
<metadata>
Created by potrace 1.16, written by Peter Selinger 2001-2019
</metadata>
<g transform="translate(0.000000,927.000000) scale(0.100000,-0.100000)"
fill="#000000" stroke="none">
<path d="M2700 9263 c-450 -32 -879 -166 -1215 -378 -460 -292 -938 -810
-1176 -1277 -203 -399 -293 -786 -306 -1318 -25 -1027 247 -1739 932 -2439
243 -248 426 -385 686 -510 213 -103 398 -159 649 -198 87 -13 175 -17 360
-17 227 0 254 2 371 27 507 108 905 392 1226 876 l83 124 0 -54 c0 -118 -20
-623 -30 -764 -53 -756 -193 -1333 -417 -1729 -305 -538 -761 -895 -1276 -998
-95 -19 -144 -23 -317 -22 -420 0 -752 83 -994 247 l-60 40 85 27 c133 41 204
84 299 180 97 96 145 176 182 305 33 115 33 315 0 430 -37 129 -85 209 -182
305 -146 147 -305 210 -525 210 -220 0 -379 -63 -525 -210 -139 -138 -197
-276 -207 -490 -16 -337 91 -697 282 -952 259 -344 675 -563 1238 -650 193
-29 612 -32 787 -5 535 83 1028 311 1475 681 110 92 331 311 435 432 621 722
1027 1706 1150 2783 34 298 43 549 37 966 -15 886 -92 1490 -272 2108 -149
515 -402 1027 -672 1362 -104 129 -311 330 -438 426 -358 269 -777 436 -1194
479 -94 9 -361 11 -471 3z m498 -562 c367 -91 691 -378 877 -776 86 -184 124
-346 159 -675 51 -475 72 -1217 46 -1570 -65 -873 -366 -1546 -829 -1855 -217
-144 -449 -205 -731 -192 -435 21 -733 174 -963 495 -192 267 -252 485 -298
1072 -16 213 -23 1354 -10 1655 27 605 96 952 239 1190 214 360 516 582 883
650 218 40 478 43 627 6z"/>
</g>
</svg>
