<?xml version="1.0" standalone="no"?>
<!DOCTYPE svg PUBLIC "-//W3C//DTD SVG 20010904//EN"
 "http://www.w3.org/TR/2001/REC-SVG-20010904/DTD/svg10.dtd">
<svg version="1.0" xmlns="http://www.w3.org/2000/svg"
 width="885.000000pt" height="886.000000pt" viewBox="0 0 885.000000 886.000000"
 preserveAspectRatio="xMidYMid meet">
<metadata>
Created by potrace 1.16, written by Peter Selinger 2001-2019
</metadata>
<g transform="translate(0.000000,886.000000) scale(0.100000,-0.100000)"
fill="#000000" stroke="none">
<path d="M4350 8851 c-71 -23 -140 -82 -176 -151 -18 -34 -19 -107 -22 -2017
l-2 -1983 -1978 -2 c-1943 -3 -1978 -3 -2017 -23 -50 -25 -105 -80 -130 -130
-27 -55 -27 -175 0 -230 25 -50 80 -105 130 -130 39 -20 74 -20 2018 -23
l1977 -2 0 -1810 0 -1810 -1977 -2 c-1944 -3 -1979 -3 -2018 -23 -50 -25 -105
-80 -130 -130 -27 -55 -27 -175 0 -230 25 -50 80 -105 130 -130 40 -20 84 -20
4265 -20 4181 0 4225 0 4265 20 50 25 105 80 130 130 27 55 27 175 0 230 -25
50 -80 105 -130 130 -39 20 -74 20 -2017 23 l-1978 2 0 1810 0 1810 1978 2
c1943 3 1978 3 2017 23 50 25 105 80 130 130 27 55 27 175 0 230 -25 50 -80
105 -130 130 -39 20 -74 20 -2017 23 l-1978 2 -2 1983 c-3 1948 -3 1983 -23
2022 -25 51 -80 106 -130 129 -43 21 -146 30 -185 17z"/>
</g>
</svg>
