<?xml version="1.0" standalone="no"?>
<!DOCTYPE svg PUBLIC "-//W3C//DTD SVG 20010904//EN"
 "http://www.w3.org/TR/2001/REC-SVG-20010904/DTD/svg10.dtd">
<svg version="1.0" xmlns="http://www.w3.org/2000/svg"
 width="426.000000pt" height="175.000000pt" viewBox="0 0 426.000000 175.000000"
 preserveAspectRatio="xMidYMid meet">
<metadata>
Created by potrace 1.16, written by Peter Selinger 2001-2019
</metadata>
<g transform="translate(0.000000,175.000000) scale(0.100000,-0.100000)"
fill="#000000" stroke="none">
<path d="M1905 1744 c-363 -37 -633 -109 -913 -244 -234 -114 -407 -236 -568
-401 -205 -213 -327 -426 -390 -683 -33 -135 -42 -288 -21 -338 27 -65 62 -78
212 -78 113 0 134 3 163 20 38 24 62 73 62 129 0 65 27 186 58 260 95 226 332
449 628 592 212 102 489 174 764 199 423 37 878 -37 1214 -199 296 -143 533
-366 628 -592 31 -74 58 -195 58 -260 0 -56 24 -105 62 -129 29 -17 50 -20
163 -20 150 0 185 13 212 78 21 50 12 203 -21 338 -144 592 -686 1067 -1430
1255 -206 52 -355 70 -611 74 -126 2 -248 1 -270 -1z"/>
</g>
</svg>
