<?xml version="1.0" standalone="no"?>
<!DOCTYPE svg PUBLIC "-//W3C//DTD SVG 20010904//EN"
 "http://www.w3.org/TR/2001/REC-SVG-20010904/DTD/svg10.dtd">
<svg version="1.0" xmlns="http://www.w3.org/2000/svg"
 width="608.000000pt" height="872.000000pt" viewBox="0 0 608.000000 872.000000"
 preserveAspectRatio="xMidYMid meet">
<metadata>
Created by potrace 1.16, written by Peter Selinger 2001-2019
</metadata>
<g transform="translate(0.000000,872.000000) scale(0.100000,-0.100000)"
fill="#000000" stroke="none">
<path d="M3120 8122 l0 -599 -117 -12 c-614 -65 -1216 -300 -1709 -666 -838
-623 -1322 -1603 -1291 -2610 20 -644 250 -1259 667 -1785 110 -140 377 -404
520 -514 537 -416 1187 -673 1853 -732 l77 -6 0 -599 0 -599 260 0 260 0 0
598 0 599 118 11 c493 48 978 214 1347 460 436 290 752 703 931 1215 39 113
41 139 16 186 -31 58 -69 71 -205 71 -128 0 -173 -12 -200 -53 -7 -12 -29 -67
-47 -122 -46 -135 -176 -391 -253 -497 -200 -278 -436 -478 -728 -617 -258
-123 -529 -189 -856 -207 l-123 -7 0 2723 0 2722 188 -6 c383 -14 628 -37 847
-81 127 -26 265 -64 265 -74 0 -3 -29 -21 -64 -39 -220 -114 -348 -358 -333
-636 16 -304 200 -535 492 -617 168 -48 369 -25 530 59 88 46 198 150 248 233
108 182 127 440 50 684 -146 464 -602 745 -1393 861 -154 22 -436 46 -712 60
l-118 6 0 594 0 594 -260 0 -260 0 0 -598z m0 -3742 c0 -1918 -3 -2680 -11
-2680 -23 0 -172 42 -270 76 -529 183 -982 569 -1254 1068 -290 533 -396 1268
-299 2081 113 947 543 1622 1249 1961 167 80 458 170 563 173 l22 1 0 -2680z"/>
</g>
</svg>
