<?xml version="1.0" standalone="no"?>
<!DOCTYPE svg PUBLIC "-//W3C//DTD SVG 20010904//EN"
 "http://www.w3.org/TR/2001/REC-SVG-20010904/DTD/svg10.dtd">
<svg version="1.0" xmlns="http://www.w3.org/2000/svg"
 width="276.000000pt" height="264.000000pt" viewBox="0 0 276.000000 264.000000"
 preserveAspectRatio="xMidYMid meet">
<metadata>
Created by potrace 1.16, written by Peter Selinger 2001-2019
</metadata>
<g transform="translate(0.000000,264.000000) scale(0.100000,-0.100000)"
fill="#000000" stroke="none">
<path d="M1225 2634 c-120 -19 -214 -40 -302 -69 -485 -161 -835 -570 -907
-1058 -92 -618 276 -1210 887 -1426 165 -58 271 -75 472 -75 201 0 307 17 472
75 476 168 816 571 887 1052 103 687 -361 1326 -1072 1477 -94 21 -364 35
-437 24z m351 -415 c53 -6 130 -19 172 -30 97 -24 242 -96 305 -150 107 -93
188 -246 224 -424 25 -128 25 -462 0 -590 -36 -178 -117 -331 -224 -424 -63
-54 -208 -126 -305 -150 -212 -54 -534 -54 -746 0 -97 24 -242 96 -305 150
-107 93 -188 246 -224 424 -25 128 -25 462 0 590 36 178 117 331 224 424 101
87 286 159 463 180 109 12 306 13 416 0z"/>
</g>
</svg>
