<?xml version="1.0" standalone="no"?>
<!DOCTYPE svg PUBLIC "-//W3C//DTD SVG 20010904//EN"
 "http://www.w3.org/TR/2001/REC-SVG-20010904/DTD/svg10.dtd">
<svg version="1.0" xmlns="http://www.w3.org/2000/svg"
 width="1180.000000pt" height="967.000000pt" viewBox="0 0 1180.000000 967.000000"
 preserveAspectRatio="xMidYMid meet">
<metadata>
Created by potrace 1.16, written by Peter Selinger 2001-2019
</metadata>
<g transform="translate(0.000000,967.000000) scale(0.100000,-0.100000)"
fill="#000000" stroke="none">
<path d="M8010 9660 c-603 -50 -1183 -213 -1712 -481 -1212 -615 -2110 -1752
-2451 -3104 -115 -457 -152 -753 -152 -1240 0 -487 37 -783 152 -1240 368
-1459 1379 -2657 2728 -3233 775 -331 1674 -443 2405 -301 658 128 1255 442
1739 914 293 286 513 587 692 945 232 466 356 947 376 1460 7 186 0 214 -60
250 -46 29 -198 29 -244 0 -51 -31 -60 -60 -67 -225 -10 -250 -35 -428 -92
-662 -229 -942 -893 -1732 -1756 -2087 -855 -352 -1914 -242 -2758 285 -795
496 -1320 1275 -1560 2310 -176 760 -209 1834 -84 2709 118 833 390 1509 820
2045 106 132 334 363 460 467 414 341 907 578 1419 682 230 46 364 60 620 60
270 1 384 -12 612 -70 306 -77 650 -250 915 -462 177 -142 386 -361 540 -566
408 -547 685 -1270 773 -2021 27 -232 40 -245 240 -245 111 0 135 3 162 20 68
41 63 -111 63 1890 0 2001 5 1849 -63 1890 -40 25 -135 27 -181 5 -26 -12
-115 -134 -416 -565 -211 -303 -386 -550 -389 -550 -4 0 -50 47 -103 104 -173
185 -416 387 -646 537 -135 89 -442 242 -592 297 -214 78 -450 138 -660 167
-136 19 -574 28 -730 15z"/>
<path d="M1265 9354 c-401 -62 -741 -265 -977 -584 -390 -526 -381 -1259 21
-1777 592 -762 1740 -762 2332 0 459 591 397 1446 -142 1963 -330 316 -795
466 -1234 398z m340 -535 c497 -69 853 -526 797 -1022 -28 -253 -151 -479
-342 -631 -290 -229 -673 -268 -1007 -104 -341 169 -548 550 -505 931 6 56 21
134 32 172 136 442 569 718 1025 654z"/>
</g>
</svg>
