<?xml version="1.0" standalone="no"?>
<!DOCTYPE svg PUBLIC "-//W3C//DTD SVG 20010904//EN"
 "http://www.w3.org/TR/2001/REC-SVG-20010904/DTD/svg10.dtd">
<svg version="1.0" xmlns="http://www.w3.org/2000/svg"
 width="860.000000pt" height="983.000000pt" viewBox="0 0 860.000000 983.000000"
 preserveAspectRatio="xMidYMid meet">
<metadata>
Created by potrace 1.16, written by Peter Selinger 2001-2019
</metadata>
<g transform="translate(0.000000,983.000000) scale(0.100000,-0.100000)"
fill="#000000" stroke="none">
<path d="M4225 9824 c-137 -11 -344 -38 -465 -60 -1092 -200 -2073 -824 -2765
-1759 -429 -579 -738 -1278 -885 -1998 -80 -395 -103 -631 -104 -1067 -1 -421
22 -669 95 -1035 87 -430 217 -815 409 -1210 120 -248 190 -372 335 -590 399
-602 911 -1092 1525 -1462 151 -91 501 -264 661 -327 438 -172 890 -274 1364
-307 302 -21 842 -3 1250 42 1453 160 2436 715 2900 1640 51 101 56 142 24
199 -39 69 -74 80 -254 80 -204 0 -215 -5 -281 -133 -118 -229 -325 -481 -519
-632 -463 -362 -1078 -564 -1930 -636 -203 -17 -740 -18 -875 -1 -352 44 -634
115 -919 232 -783 322 -1400 917 -1744 1684 -267 592 -398 1269 -423 2184 l-7
242 3428 0 3427 0 38 21 c21 12 48 39 60 62 23 40 23 43 17 296 -35 1381 -375
2441 -1044 3248 -107 129 -331 348 -468 457 -245 195 -578 389 -882 514 -357
147 -778 251 -1203 297 -138 15 -653 28 -765 19z m585 -529 c380 -59 758 -227
1060 -472 111 -90 316 -304 402 -419 375 -505 637 -1239 742 -2074 32 -250 66
-708 66 -877 l0 -53 -2726 0 -2727 0 7 153 c55 1228 339 2125 881 2782 98 119
318 336 430 425 405 321 843 500 1360 554 83 9 404 -4 505 -19z"/>
</g>
</svg>
