<?xml version="1.0" standalone="no"?>
<!DOCTYPE svg PUBLIC "-//W3C//DTD SVG 20010904//EN"
 "http://www.w3.org/TR/2001/REC-SVG-20010904/DTD/svg10.dtd">
<svg version="1.0" xmlns="http://www.w3.org/2000/svg"
 width="288.000000pt" height="1328.000000pt" viewBox="0 0 288.000000 1328.000000"
 preserveAspectRatio="xMidYMid meet">
<metadata>
Created by potrace 1.16, written by Peter Selinger 2001-2019
</metadata>
<g transform="translate(0.000000,1328.000000) scale(0.100000,-0.100000)"
fill="#000000" stroke="none">
<path d="M80 13263 c-48 -25 -70 -73 -70 -151 0 -78 19 -126 62 -152 27 -16
50 -20 134 -20 307 0 633 -74 887 -202 172 -85 290 -170 423 -303 169 -168
266 -320 333 -521 64 -191 62 -129 58 -2054 -3 -1736 -3 -1745 -24 -1835 -65
-279 -192 -497 -412 -707 -183 -175 -408 -310 -666 -397 -190 -64 -461 -111
-642 -111 -119 0 -163 -45 -163 -170 0 -125 44 -170 163 -170 181 0 452 -47
642 -111 258 -87 483 -222 666 -397 220 -210 347 -428 412 -707 21 -90 21 -99
24 -1835 4 -1925 6 -1863 -58 -2054 -67 -201 -164 -353 -333 -521 -133 -133
-251 -218 -423 -303 -254 -128 -580 -202 -887 -202 -117 0 -157 -17 -182 -75
-20 -48 -18 -152 4 -195 32 -66 61 -72 277 -66 813 23 1525 238 1990 601 44
34 125 109 180 166 156 162 253 321 320 522 76 228 70 62 70 2077 l0 1805 -23
102 c-105 476 -411 846 -922 1117 -133 70 -368 164 -516 207 -62 18 -114 36
-114 39 0 3 52 21 114 39 148 43 383 137 516 207 219 116 386 240 541 402 196
203 320 436 381 715 l23 102 0 1805 c0 2015 6 1849 -70 2077 -126 377 -418
690 -853 911 -453 231 -1012 360 -1637 378 -171 5 -193 4 -225 -13z"/>
</g>
</svg>
