<?xml version="1.0" standalone="no"?>
<!DOCTYPE svg PUBLIC "-//W3C//DTD SVG 20010904//EN"
 "http://www.w3.org/TR/2001/REC-SVG-20010904/DTD/svg10.dtd">
<svg version="1.0" xmlns="http://www.w3.org/2000/svg"
 width="655.000000pt" height="624.000000pt" viewBox="0 0 655.000000 624.000000"
 preserveAspectRatio="xMidYMid meet">
<metadata>
Created by potrace 1.16, written by Peter Selinger 2001-2019
</metadata>
<g transform="translate(0.000000,624.000000) scale(0.100000,-0.100000)"
fill="#000000" stroke="none">
<path d="M3215 6229 c-35 -20 -73 -60 -84 -88 -6 -14 -87 -617 -181 -1340 -93
-723 -171 -1315 -172 -1317 -2 -1 -588 108 -1303 242 -715 134 -1316 244
-1336 244 -119 0 -183 -161 -98 -246 26 -25 311 -165 1144 -560 611 -289 1151
-546 1202 -569 l92 -44 -641 -1173 c-611 -1117 -642 -1175 -643 -1225 0 -56
18 -89 68 -127 34 -25 114 -27 150 -3 14 9 436 451 938 982 502 531 915 965
919 965 4 0 417 -434 919 -965 502 -531 924 -973 938 -982 36 -24 116 -22 150
3 50 38 68 71 68 127 -1 50 -31 108 -643 1225 l-641 1173 92 44 c51 23 592
280 1202 569 833 395 1118 535 1144 560 85 85 21 246 -98 246 -20 0 -621 -110
-1336 -244 -715 -134 -1301 -243 -1303 -242 -1 2 -79 597 -173 1322 -108 838
-176 1331 -186 1352 -9 18 -29 42 -46 54 -34 25 -113 34 -142 17z"/>
</g>
</svg>
