<?xml version="1.0" standalone="no"?>
<!DOCTYPE svg PUBLIC "-//W3C//DTD SVG 20010904//EN"
 "http://www.w3.org/TR/2001/REC-SVG-20010904/DTD/svg10.dtd">
<svg version="1.0" xmlns="http://www.w3.org/2000/svg"
 width="537.000000pt" height="538.000000pt" viewBox="0 0 537.000000 538.000000"
 preserveAspectRatio="xMidYMid meet">
<metadata>
Created by potrace 1.16, written by Peter Selinger 2001-2019
</metadata>
<g transform="translate(0.000000,538.000000) scale(0.100000,-0.100000)"
fill="#000000" stroke="none">
<path d="M2475 5374 c-507 -54 -895 -190 -1285 -450 -147 -97 -253 -186 -401
-333 -413 -413 -666 -918 -766 -1533 -24 -146 -24 -590 0 -736 81 -499 260
-916 557 -1302 88 -114 312 -340 430 -433 380 -302 820 -491 1315 -564 167
-24 543 -24 710 0 495 73 935 262 1315 564 118 93 342 319 430 433 297 386
476 803 557 1302 24 146 24 590 0 736 -81 499 -260 916 -557 1302 -88 114
-312 340 -430 433 -373 297 -808 486 -1282 558 -128 20 -491 34 -593 23z"/>
</g>
</svg>
