<?xml version="1.0" standalone="no"?>
<!DOCTYPE svg PUBLIC "-//W3C//DTD SVG 20010904//EN"
 "http://www.w3.org/TR/2001/REC-SVG-20010904/DTD/svg10.dtd">
<svg version="1.0" xmlns="http://www.w3.org/2000/svg"
 width="922.000000pt" height="922.000000pt" viewBox="0 0 922.000000 922.000000"
 preserveAspectRatio="xMidYMid meet">
<metadata>
Created by potrace 1.16, written by Peter Selinger 2001-2019
</metadata>
<g transform="translate(0.000000,922.000000) scale(0.100000,-0.100000)"
fill="#000000" stroke="none">
<path d="M4506 9200 c-63 -25 -122 -81 -152 -145 l-24 -50 0 -2057 0 -2058
-2048 0 c-2323 0 -2105 8 -2199 -85 -111 -112 -111 -278 0 -390 94 -93 -124
-85 2199 -85 l2048 0 0 -1885 0 -1885 -2048 0 c-2323 0 -2105 8 -2199 -85 -78
-79 -100 -173 -67 -285 21 -70 98 -149 168 -173 46 -16 357 -17 4421 -17 4064
0 4375 1 4421 17 70 24 147 103 168 173 33 112 11 206 -67 285 -94 93 123 85
-2194 85 l-2043 0 0 1885 0 1885 2043 0 c2317 0 2100 -8 2194 85 111 112 111
278 0 390 -94 93 123 85 -2194 85 l-2043 0 -2 2058 c-3 1928 -4 2059 -20 2095
-48 105 -136 167 -247 174 -49 2 -78 -2 -115 -17z"/>
</g>
</svg>
