<?xml version="1.0" standalone="no"?>
<!DOCTYPE svg PUBLIC "-//W3C//DTD SVG 20010904//EN"
 "http://www.w3.org/TR/2001/REC-SVG-20010904/DTD/svg10.dtd">
<svg version="1.0" xmlns="http://www.w3.org/2000/svg"
 width="691.000000pt" height="1115.000000pt" viewBox="0 0 691.000000 1115.000000"
 preserveAspectRatio="xMidYMid meet">
<metadata>
Created by potrace 1.16, written by Peter Selinger 2001-2019
</metadata>
<g transform="translate(0.000000,1115.000000) scale(0.100000,-0.100000)"
fill="#000000" stroke="none">
<path d="M2430 10782 l0 -367 -92 -24 c-826 -210 -1549 -694 -1960 -1311 -94
-141 -215 -387 -265 -540 -87 -264 -119 -478 -110 -740 16 -459 166 -871 460
-1263 107 -143 338 -379 482 -493 392 -310 881 -549 1398 -684 l87 -23 0
-2054 0 -2053 -22 5 c-13 3 -66 14 -118 25 -246 54 -513 146 -723 251 -487
244 -810 582 -983 1031 -19 48 -34 91 -34 95 0 5 49 7 109 5 134 -5 236 18
361 80 459 230 467 961 12 1196 -129 67 -208 87 -347 87 -98 0 -134 -4 -195
-23 -234 -73 -382 -215 -458 -437 -26 -77 -27 -87 -26 -290 1 -411 83 -769
254 -1114 187 -376 441 -664 797 -904 253 -171 560 -315 873 -410 107 -33 391
-103 453 -112 l47 -7 0 -354 0 -354 260 0 260 0 0 321 0 322 38 -7 c82 -14
579 -19 747 -7 94 7 180 15 193 18 l22 5 0 -326 0 -326 260 0 260 0 0 373 0
373 53 13 c97 25 324 101 438 147 963 389 1649 1125 1869 2003 53 215 65 315
65 566 0 259 -14 371 -70 590 -92 359 -274 711 -518 1007 -94 114 -324 343
-432 429 -365 294 -788 513 -1260 655 l-140 42 -3 1866 c-2 1630 0 1866 13
1866 25 0 306 -60 401 -86 630 -170 1073 -465 1329 -887 35 -58 125 -245 125
-260 0 -1 -48 -1 -106 1 -136 4 -227 -15 -344 -74 -160 -80 -269 -208 -326
-380 -27 -82 -29 -101 -28 -229 0 -124 3 -149 27 -220 37 -111 90 -196 172
-274 131 -124 289 -185 480 -185 191 0 349 61 480 185 82 78 135 162 173 274
25 76 27 89 26 275 0 375 -71 696 -223 1007 -239 487 -632 844 -1211 1098
-224 99 -578 204 -862 256 l-128 24 0 348 0 347 -260 0 -260 0 0 -320 0 -320
-27 7 c-41 11 -795 8 -890 -3 l-83 -10 0 323 0 323 -260 0 -260 0 0 -368z
m1493 -788 l27 -6 0 -1829 c0 -1006 -3 -1829 -7 -1829 -5 0 -228 56 -498 123
l-490 123 -3 1702 -2 1701 42 6 c125 18 295 23 583 19 176 -2 332 -7 348 -10z
m-1493 -1699 c0 -872 -2 -1585 -4 -1585 -19 0 -236 72 -346 115 -255 99 -461
211 -651 351 -119 88 -301 266 -377 369 -275 373 -327 841 -137 1242 190 402
615 758 1170 979 102 41 313 112 338 113 4 1 7 -712 7 -1584z m1520 -5230 l0
-1892 -52 -6 c-187 -22 -365 -29 -588 -23 -135 3 -271 9 -302 12 l-58 7 0
2022 0 2023 500 -125 500 -125 0 -1893z m690 1700 c694 -255 1192 -698 1379
-1227 54 -154 75 -291 75 -478 0 -187 -14 -280 -70 -450 -173 -534 -685 -1006
-1369 -1263 -66 -25 -135 -48 -152 -52 l-33 -7 0 1766 0 1766 28 -6 c15 -4 79
-26 142 -49z"/>
</g>
</svg>
