<?xml version="1.0" standalone="no"?>
<!DOCTYPE svg PUBLIC "-//W3C//DTD SVG 20010904//EN"
 "http://www.w3.org/TR/2001/REC-SVG-20010904/DTD/svg10.dtd">
<svg version="1.0" xmlns="http://www.w3.org/2000/svg"
 width="885.000000pt" height="744.000000pt" viewBox="0 0 885.000000 744.000000"
 preserveAspectRatio="xMidYMid meet">
<metadata>
Created by potrace 1.16, written by Peter Selinger 2001-2019
</metadata>
<g transform="translate(0.000000,744.000000) scale(0.100000,-0.100000)"
fill="#000000" stroke="none">
<path d="M4239 7420 c-92 -19 -226 -77 -306 -131 -339 -232 -468 -694 -295
-1062 94 -202 227 -334 427 -428 325 -152 727 -75 976 187 286 303 317 759 75
1097 -195 273 -545 407 -877 337z"/>
<path d="M191 3978 c-51 -14 -114 -61 -145 -108 -101 -153 -20 -367 155 -410
31 -7 1262 -10 4244 -8 4153 3 4200 3 4240 23 50 25 105 80 130 130 27 55 27
175 0 230 -25 50 -80 105 -130 130 -40 20 -85 20 -4250 22 -2745 1 -4222 -2
-4244 -9z"/>
<path d="M4239 1700 c-92 -19 -226 -77 -306 -131 -339 -232 -468 -694 -295
-1062 94 -202 227 -334 427 -428 325 -152 727 -75 976 187 286 303 317 759 75
1097 -195 273 -545 407 -877 337z"/>
</g>
</svg>
