<?xml version="1.0" standalone="no"?>
<!DOCTYPE svg PUBLIC "-//W3C//DTD SVG 20010904//EN"
 "http://www.w3.org/TR/2001/REC-SVG-20010904/DTD/svg10.dtd">
<svg version="1.0" xmlns="http://www.w3.org/2000/svg"
 width="562.000000pt" height="627.000000pt" viewBox="0 0 562.000000 627.000000"
 preserveAspectRatio="xMidYMid meet">
<metadata>
Created by potrace 1.16, written by Peter Selinger 2001-2019
</metadata>
<g transform="translate(0.000000,627.000000) scale(0.100000,-0.100000)"
fill="#000000" stroke="none">
<path d="M2380 6263 c-30 -2 -118 -10 -195 -19 -1025 -114 -1748 -560 -1959
-1208 -48 -145 -61 -230 -61 -396 1 -143 3 -162 28 -237 88 -263 323 -427 612
-427 289 0 524 164 612 427 24 73 27 96 27 217 0 122 -3 143 -28 215 -15 44
-43 105 -62 136 -50 83 -152 174 -245 219 l-78 38 70 58 c305 255 715 379
1199 361 801 -30 1407 -320 1692 -810 95 -163 146 -346 155 -562 24 -584 -277
-1038 -1073 -1615 -69 -50 -329 -230 -577 -399 -1259 -857 -2425 -1656 -2445
-1675 -50 -45 -52 -58 -52 -331 l0 -255 2614 0 2615 0 10 53 c6 28 90 491 186
1027 97 536 179 985 182 997 l5 23 -276 0 c-152 0 -276 -2 -276 -5 0 -3 -16
-84 -35 -180 -39 -195 -90 -373 -136 -473 -35 -78 -107 -189 -128 -197 -74
-29 -997 -47 -2165 -43 l-889 3 728 425 c761 443 918 528 1355 733 500 235
774 378 984 514 465 302 729 648 811 1064 23 115 30 341 16 469 -64 559 -338
994 -831 1322 -529 352 -1292 544 -2135 536 -110 -1 -225 -3 -255 -5z"/>
</g>
</svg>
