<?xml version="1.0" standalone="no"?>
<!DOCTYPE svg PUBLIC "-//W3C//DTD SVG 20010904//EN"
 "http://www.w3.org/TR/2001/REC-SVG-20010904/DTD/svg10.dtd">
<svg version="1.0" xmlns="http://www.w3.org/2000/svg"
 width="1041.000000pt" height="945.000000pt" viewBox="0 0 1041.000000 945.000000"
 preserveAspectRatio="xMidYMid meet">
<metadata>
Created by potrace 1.16, written by Peter Selinger 2001-2019
</metadata>
<g transform="translate(0.000000,945.000000) scale(0.100000,-0.100000)"
fill="#000000" stroke="none">
<path d="M420 9190 l0 -260 278 0 c504 -1 941 -26 1120 -65 l22 -5 0 -1415 0
-1415 -858 -2 -859 -3 -36 -27 c-61 -48 -81 -84 -85 -160 -4 -59 -1 -73 22
-112 17 -29 44 -56 74 -73 l47 -28 848 -3 847 -2 0 -1140 0 -1140 -857 -2
-858 -3 -33 -23 c-62 -45 -86 -88 -90 -163 -4 -60 -1 -74 22 -113 17 -29 44
-56 74 -73 l47 -28 848 -3 848 -2 -3 -873 -3 -872 -30 -85 c-60 -173 -183
-312 -353 -398 -228 -116 -463 -166 -844 -179 l-188 -6 0 -260 0 -260 98 7
c632 40 2502 40 3135 0 l97 -7 0 260 0 260 -187 6 c-687 23 -1069 208 -1198
577 l-30 85 -3 873 -3 872 1907 -2 1906 -3 981 -1442 c811 -1191 988 -1445
1018 -1462 32 -18 54 -21 164 -21 147 0 187 14 224 80 l21 38 0 1406 0 1406
848 2 847 3 47 27 c111 66 136 209 53 306 -66 77 -3 72 -949 72 l-846 0 0
1140 0 1140 848 2 847 3 47 27 c111 66 136 209 53 306 -66 77 -3 72 -949 72
l-847 0 3 1118 3 1117 30 85 c60 173 183 312 353 398 228 116 463 166 845 179
l187 6 0 260 0 260 -97 -7 c-633 -40 -2503 -40 -3135 0 l-98 7 0 -260 0 -260
188 -6 c686 -23 1068 -208 1197 -577 l30 -85 3 -1118 3 -1117 -1283 2 -1282 3
-1147 1685 c-973 1431 -1152 1688 -1185 1707 l-39 23 -1352 0 -1353 0 0 -260z
m2745 -1890 c428 -630 798 -1173 822 -1207 l44 -63 -850 0 -851 0 0 1247 0
1247 28 -40 c16 -21 379 -554 807 -1184z m1866 -2742 c397 -585 747 -1098 777
-1140 l54 -78 -1766 0 -1766 0 0 1140 0 1140 989 0 989 0 723 -1062z m3029
-78 l0 -1140 -367 2 -367 3 -643 945 c-354 520 -702 1032 -774 1138 l-130 192
1140 0 1141 0 0 -1140z m0 -1882 l0 -331 -91 134 c-50 74 -152 223 -226 332
l-134 197 225 0 226 0 0 -332z"/>
</g>
</svg>
