<?xml version="1.0" standalone="no"?>
<!DOCTYPE svg PUBLIC "-//W3C//DTD SVG 20010904//EN"
 "http://www.w3.org/TR/2001/REC-SVG-20010904/DTD/svg10.dtd">
<svg version="1.0" xmlns="http://www.w3.org/2000/svg"
 width="411.000000pt" height="262.000000pt" viewBox="0 0 411.000000 262.000000"
 preserveAspectRatio="xMidYMid meet">
<metadata>
Created by potrace 1.16, written by Peter Selinger 2001-2019
</metadata>
<g transform="translate(0.000000,262.000000) scale(0.100000,-0.100000)"
fill="#000000" stroke="none">
<path d="M447 2604 c-96 -23 -214 -90 -288 -165 -180 -180 -203 -434 -58 -646
35 -50 1192 -1649 1260 -1740 l38 -51 192 101 c105 55 193 106 195 112 7 17
-743 2092 -779 2155 -41 72 -130 161 -195 194 -109 55 -243 70 -365 40z"/>
<path d="M2747 2604 c-96 -23 -214 -90 -288 -165 -180 -180 -203 -434 -58
-646 35 -50 1192 -1649 1260 -1740 l38 -51 192 101 c105 55 193 106 195 112 7
17 -743 2092 -779 2155 -41 72 -130 161 -195 194 -109 55 -243 70 -365 40z"/>
</g>
</svg>
