<?xml version="1.0" standalone="no"?>
<!DOCTYPE svg PUBLIC "-//W3C//DTD SVG 20010904//EN"
 "http://www.w3.org/TR/2001/REC-SVG-20010904/DTD/svg10.dtd">
<svg version="1.0" xmlns="http://www.w3.org/2000/svg"
 width="415.000000pt" height="265.000000pt" viewBox="0 0 415.000000 265.000000"
 preserveAspectRatio="xMidYMid meet">
<metadata>
Created by potrace 1.16, written by Peter Selinger 2001-2019
</metadata>
<g transform="translate(0.000000,265.000000) scale(0.100000,-0.100000)"
fill="#000000" stroke="none">
<path d="M1071 2634 c-137 -37 -265 -141 -333 -269 -36 -69 -741 -2090 -735
-2108 3 -9 478 -259 482 -254 2 1 287 398 635 882 348 484 646 907 661 940 39
84 59 167 59 250 0 147 -48 253 -170 376 -70 71 -101 94 -171 128 -141 68
-303 89 -428 55z"/>
<path d="M3371 2634 c-137 -37 -265 -141 -333 -269 -36 -69 -741 -2090 -735
-2108 3 -9 478 -259 482 -254 2 1 287 398 635 882 348 484 646 907 661 940 39
84 59 167 59 250 0 147 -48 253 -170 376 -70 71 -101 94 -171 128 -141 68
-303 89 -428 55z"/>
</g>
</svg>
