<?xml version="1.0" standalone="no"?>
<!DOCTYPE svg PUBLIC "-//W3C//DTD SVG 20010904//EN"
 "http://www.w3.org/TR/2001/REC-SVG-20010904/DTD/svg10.dtd">
<svg version="1.0" xmlns="http://www.w3.org/2000/svg"
 width="935.000000pt" height="945.000000pt" viewBox="0 0 935.000000 945.000000"
 preserveAspectRatio="xMidYMid meet">
<metadata>
Created by potrace 1.16, written by Peter Selinger 2001-2019
</metadata>
<g transform="translate(0.000000,945.000000) scale(0.100000,-0.100000)"
fill="#000000" stroke="none">
<path d="M5900 9439 c-177 -12 -368 -35 -565 -69 -1085 -188 -2057 -691 -2791
-1443 -552 -564 -942 -1248 -1130 -1974 l-29 -113 -643 0 c-699 0 -675 2 -721
-56 -19 -25 -21 -39 -21 -198 0 -154 2 -174 20 -204 39 -63 28 -62 685 -62
l596 0 -8 -67 c-10 -85 -10 -688 0 -725 l7 -28 -595 0 c-657 0 -646 1 -685
-62 -18 -30 -20 -50 -20 -204 0 -159 2 -173 21 -198 45 -58 22 -56 713 -56
l636 0 4 -23 c178 -822 521 -1535 1044 -2167 125 -151 476 -501 627 -626 207
-170 398 -307 630 -447 167 -101 550 -290 731 -361 426 -167 869 -276 1354
-333 128 -15 302 -17 1520 -20 1328 -3 1376 -3 1409 15 19 10 43 34 52 53 16
31 599 3402 599 3461 0 37 -34 90 -71 110 -27 14 -57 18 -152 18 -131 0 -173
-12 -203 -57 -10 -16 -42 -169 -85 -417 -164 -929 -282 -1460 -404 -1814 -87
-254 -155 -363 -332 -533 -154 -147 -312 -241 -490 -292 -77 -22 -84 -22 -823
-22 -801 0 -819 1 -1080 56 -697 148 -1351 570 -1859 1198 -457 565 -776 1261
-931 2026 -16 83 -30 156 -30 163 0 26 1329 12 1725 -18 603 -47 1024 -152
1285 -321 284 -184 504 -545 604 -992 58 -257 84 -524 93 -955 7 -326 10 -339
74 -374 27 -15 57 -18 154 -18 138 0 176 13 207 71 17 32 18 100 18 1534 0
1434 -1 1502 -18 1534 -10 19 -34 43 -53 53 -32 17 -118 18 -2092 18 -1950 0
-2058 1 -2065 18 -9 24 -9 697 1 755 l8 47 2057 0 c1973 0 2059 1 2091 18 19
10 43 34 53 53 17 32 18 100 18 1534 0 1434 -1 1502 -18 1534 -31 58 -69 71
-207 71 -97 0 -127 -3 -154 -18 -64 -35 -67 -48 -74 -374 -15 -688 -82 -1069
-251 -1413 -115 -235 -270 -420 -446 -534 -220 -142 -574 -244 -1025 -296
-354 -40 -737 -55 -1437 -55 l-536 0 19 87 c168 769 559 1494 1091 2024 467
466 1055 791 1650 913 295 61 302 61 1173 61 736 0 807 -1 885 -18 281 -60
532 -210 705 -422 160 -194 298 -781 441 -1865 39 -298 49 -332 104 -362 50
-26 260 -26 309 0 37 20 71 73 71 110 0 12 -86 687 -191 1500 -139 1080 -195
1486 -208 1511 -9 19 -32 42 -51 53 -33 17 -93 18 -1450 17 -778 -1 -1471 -6
-1540 -10z"/>
</g>
</svg>
