<?xml version="1.0" standalone="no"?>
<!DOCTYPE svg PUBLIC "-//W3C//DTD SVG 20010904//EN"
 "http://www.w3.org/TR/2001/REC-SVG-20010904/DTD/svg10.dtd">
<svg version="1.0" xmlns="http://www.w3.org/2000/svg"
 width="972.000000pt" height="976.000000pt" viewBox="0 0 972.000000 976.000000"
 preserveAspectRatio="xMidYMid meet">
<metadata>
Created by potrace 1.16, written by Peter Selinger 2001-2019
</metadata>
<g transform="translate(0.000000,976.000000) scale(0.100000,-0.100000)"
fill="#000000" stroke="none">
<path d="M0 9502 l0 -259 373 -6 c385 -7 544 -16 707 -43 150 -25 215 -60 274
-147 72 -107 66 262 66 -4012 0 -4274 6 -3905 -66 -4012 -59 -87 -124 -122
-274 -147 -163 -27 -322 -36 -707 -43 l-373 -6 0 -260 0 -260 128 7 c821 41
2659 41 3210 0 l82 -6 0 259 0 260 -187 6 c-351 12 -444 47 -500 188 -17 41
-18 153 -21 1927 l-2 1882 864 0 c563 0 901 -4 968 -11 658 -71 1216 -553
1383 -1196 51 -196 55 -263 55 -1069 l1 -746 -363 -301 c-200 -165 -465 -385
-590 -488 l-228 -189 166 -200 167 -201 21 19 c57 51 958 793 960 790 1 -2 13
-28 25 -58 35 -85 125 -241 191 -330 317 -427 854 -710 1535 -809 344 -50 673
-53 850 -7 337 88 619 339 796 710 114 238 189 566 189 821 0 95 -24 147 -80
176 -50 27 -240 27 -290 0 -53 -27 -80 -82 -80 -161 0 -168 -41 -397 -100
-565 -105 -296 -295 -507 -520 -577 -62 -19 -96 -23 -200 -23 -144 1 -216 17
-330 72 -98 47 -216 164 -280 278 -93 164 -172 413 -235 730 -25 128 -135 812
-135 840 0 7 404 348 898 757 493 408 1002 829 1129 935 l233 193 -166 201
-167 200 -21 -19 c-67 -61 -1998 -1653 -2001 -1650 -1 1 -15 80 -30 173 -48
308 -94 467 -200 683 -173 355 -435 646 -805 893 -108 72 -338 193 -485 256
-55 23 -93 44 -85 46 371 115 506 166 740 278 426 206 779 466 1033 759 525
606 628 1317 293 2005 -429 879 -1525 1530 -2826 1679 -293 34 -457 36 -2722
36 l-2268 0 0 -258z m4515 -272 c457 -31 800 -113 1105 -265 371 -185 596
-420 725 -754 97 -251 145 -574 145 -972 0 -682 -143 -1132 -454 -1426 -299
-283 -740 -469 -1271 -537 -236 -30 -421 -36 -1232 -36 l-823 0 0 1849 c0
1201 4 1867 10 1902 30 158 110 214 340 238 119 12 1273 13 1455 1z"/>
</g>
</svg>
