<?xml version="1.0" standalone="no"?>
<!DOCTYPE svg PUBLIC "-//W3C//DTD SVG 20010904//EN"
 "http://www.w3.org/TR/2001/REC-SVG-20010904/DTD/svg10.dtd">
<svg version="1.0" xmlns="http://www.w3.org/2000/svg"
 width="538.000000pt" height="123.000000pt" viewBox="0 0 538.000000 123.000000"
 preserveAspectRatio="xMidYMid meet">
<metadata>
Created by potrace 1.16, written by Peter Selinger 2001-2019
</metadata>
<g transform="translate(0.000000,123.000000) scale(0.100000,-0.100000)"
fill="#000000" stroke="none">
<path d="M1320 1224 c-308 -37 -533 -130 -745 -310 -55 -47 -560 -618 -568
-642 -1 -5 66 -67 149 -139 l152 -131 63 65 c176 178 379 291 634 351 104 25
124 27 365 27 337 0 503 -26 1030 -161 768 -197 897 -227 1141 -261 174 -24
510 -24 634 0 248 49 438 138 620 293 55 47 560 618 568 642 1 5 -66 67 -149
139 l-152 131 -63 -65 c-176 -178 -379 -291 -634 -351 -104 -25 -124 -27 -365
-27 -337 0 -503 26 -1030 161 -764 196 -900 227 -1131 259 -110 15 -447 28
-519 19z"/>
</g>
</svg>
