<?xml version="1.0" standalone="no"?>
<!DOCTYPE svg PUBLIC "-//W3C//DTD SVG 20010904//EN"
 "http://www.w3.org/TR/2001/REC-SVG-20010904/DTD/svg10.dtd">
<svg version="1.0" xmlns="http://www.w3.org/2000/svg"
 width="1417.000000pt" height="1101.000000pt" viewBox="0 0 1417.000000 1101.000000"
 preserveAspectRatio="xMidYMid meet">
<metadata>
Created by potrace 1.16, written by Peter Selinger 2001-2019
</metadata>
<g transform="translate(0.000000,1101.000000) scale(0.100000,-0.100000)"
fill="#000000" stroke="none">
<path d="M10225 11004 c-27 -2 -129 -8 -225 -14 -2236 -138 -4420 -1009 -6153
-2453 -297 -247 -429 -369 -728 -667 -609 -608 -1076 -1198 -1527 -1927 -242
-391 -553 -990 -731 -1407 -507 -1188 -792 -2426 -857 -3721 -10 -215 7 -238
239 -314 632 -206 1355 -359 2082 -440 416 -47 587 -55 1135 -56 535 0 670 6
1070 46 2128 212 4145 1057 5783 2422 297 247 429 369 728 667 609 608 1076
1198 1527 1927 242 391 553 990 731 1407 507 1189 790 2420 857 3722 11 218
-5 239 -236 313 -793 252 -1587 406 -2465 477 -186 15 -1089 28 -1230 18z
m1230 -358 c718 -58 1326 -165 2013 -353 72 -20 132 -39 132 -43 0 -5 -5591
-3899 -5647 -3933 -11 -7 -13 333 -13 1991 l0 1999 228 56 c636 157 1222 249
1832 287 96 6 198 12 225 14 141 10 1044 -3 1230 -18z m-3857 -2512 l-3 -2066
-1895 -1318 -1895 -1318 -3 2312 -2 2311 37 33 c945 830 2030 1482 3198 1922
200 76 531 189 553 190 10 0 12 -416 10 -2066z m6192 1678 c-101 -1201 -418
-2397 -925 -3485 l-78 -167 -2235 0 -2236 0 100 69 c54 38 1287 895 2739 1905
1452 1010 2642 1831 2644 1825 1 -5 -2 -72 -9 -147z m-10330 -4351 l0 -2269
-1548 -1076 c-851 -592 -1549 -1071 -1551 -1065 -4 14 16 246 40 459 113 991
371 1960 770 2896 116 273 372 788 517 1039 446 777 976 1478 1591 2107 95 98
175 178 177 178 2 0 4 -1021 4 -2269z m9150 355 c0 -2 -32 -62 -71 -132 -458
-828 -1082 -1658 -1731 -2302 l-113 -112 -3264 2 -3264 3 1829 1272 1829 1272
2393 1 c1315 0 2392 -2 2392 -4z m-2371 -2966 c-1589 -1378 -3613 -2250 -5709
-2459 -400 -40 -535 -46 -1070 -46 -406 1 -574 5 -740 18 -537 43 -988 109
-1460 213 -333 74 -702 172 -698 186 2 4 701 494 1553 1087 l1550 1079 3333 1
3334 1 -93 -80z"/>
</g>
</svg>
