<?xml version="1.0" standalone="no"?>
<!DOCTYPE svg PUBLIC "-//W3C//DTD SVG 20010904//EN"
 "http://www.w3.org/TR/2001/REC-SVG-20010904/DTD/svg10.dtd">
<svg version="1.0" xmlns="http://www.w3.org/2000/svg"
 width="479.000000pt" height="952.000000pt" viewBox="0 0 479.000000 952.000000"
 preserveAspectRatio="xMidYMid meet">
<metadata>
Created by potrace 1.16, written by Peter Selinger 2001-2019
</metadata>
<g transform="translate(0.000000,952.000000) scale(0.100000,-0.100000)"
fill="#000000" stroke="none">
<path d="M2245 9506 c-155 -37 -253 -92 -365 -205 -98 -99 -157 -202 -190
-335 -41 -162 -19 -333 62 -496 33 -66 61 -104 128 -171 94 -95 175 -146 298
-187 67 -23 94 -26 212 -26 118 0 145 3 212 26 123 41 204 92 298 187 98 99
157 202 190 335 41 162 19 333 -62 496 -33 66 -61 104 -128 171 -95 96 -177
147 -298 186 -96 31 -266 40 -357 19z"/>
<path d="M2088 6994 c-54 -29 -58 -49 -58 -331 -1 -580 -34 -852 -142 -1177
-209 -626 -658 -1210 -1263 -1640 -181 -128 -340 -299 -431 -463 -215 -383
-251 -823 -104 -1238 163 -459 533 -776 1104 -949 122 -37 330 -81 439 -92 52
-5 67 -10 67 -23 0 -9 -7 -88 -15 -176 -8 -88 -15 -194 -15 -235 1 -438 452
-760 904 -646 265 68 462 260 521 510 19 80 19 150 -1 387 -10 108 -14 203
-11 211 3 9 25 18 49 22 23 4 99 20 168 37 929 227 1447 718 1477 1399 5 117
3 146 -15 218 -32 126 -76 206 -157 287 -247 248 -663 248 -910 0 -186 -185
-229 -492 -106 -740 52 -103 103 -162 197 -224 87 -58 200 -98 314 -109 l74
-7 -83 -73 c-200 -177 -460 -308 -785 -396 -124 -34 -255 -61 -260 -55 -1 2
-107 1217 -235 2699 -128 1482 -238 2713 -244 2735 -8 26 -23 47 -46 62 -32
22 -43 23 -220 23 -145 -1 -192 -4 -213 -16z m-226 -4051 c-70 -804 -130
-1464 -133 -1467 -8 -8 -102 25 -169 59 -224 113 -326 254 -374 511 -43 232
-47 732 -8 954 50 279 111 405 328 670 162 199 296 404 410 624 38 74 70 130
71 123 2 -7 -55 -670 -125 -1474z"/>
</g>
</svg>
