<?xml version="1.0" standalone="no"?>
<!DOCTYPE svg PUBLIC "-//W3C//DTD SVG 20010904//EN"
 "http://www.w3.org/TR/2001/REC-SVG-20010904/DTD/svg10.dtd">
<svg version="1.0" xmlns="http://www.w3.org/2000/svg"
 width="682.000000pt" height="650.000000pt" viewBox="0 0 682.000000 650.000000"
 preserveAspectRatio="xMidYMid meet">
<metadata>
Created by potrace 1.16, written by Peter Selinger 2001-2019
</metadata>
<g transform="translate(0.000000,650.000000) scale(0.100000,-0.100000)"
fill="#000000" stroke="none">
<path d="M3350 6489 c-37 -15 -78 -58 -90 -93 -5 -17 -93 -641 -196 -1386
-102 -745 -187 -1356 -188 -1357 -1 -1 -613 108 -1361 243 -915 164 -1371 242
-1393 238 -39 -8 -87 -45 -107 -85 -28 -53 -12 -143 31 -180 11 -9 575 -285
1254 -614 679 -328 1238 -600 1243 -604 4 -4 -272 -529 -614 -1167 -719 -1342
-689 -1284 -689 -1324 0 -71 46 -129 121 -151 85 -26 40 -69 1086 1022 l958
999 55 -58 c30 -32 462 -482 959 -1000 985 -1026 945 -989 1030 -963 75 22
121 80 121 151 0 40 30 -18 -689 1324 -342 638 -618 1163 -614 1167 5 4 564
276 1243 604 679 329 1243 605 1254 614 43 37 59 127 31 180 -20 40 -68 77
-107 85 -22 4 -478 -74 -1393 -238 -748 -135 -1360 -244 -1361 -243 -1 1 -86
614 -188 1362 -150 1095 -190 1368 -207 1401 -34 69 -118 101 -189 73z"/>
</g>
</svg>
