<?xml version="1.0" standalone="no"?>
<!DOCTYPE svg PUBLIC "-//W3C//DTD SVG 20010904//EN"
 "http://www.w3.org/TR/2001/REC-SVG-20010904/DTD/svg10.dtd">
<svg version="1.0" xmlns="http://www.w3.org/2000/svg"
 width="830.000000pt" height="558.000000pt" viewBox="0 0 830.000000 558.000000"
 preserveAspectRatio="xMidYMid meet">
<metadata>
Created by potrace 1.16, written by Peter Selinger 2001-2019
</metadata>
<g transform="translate(0.000000,558.000000) scale(0.100000,-0.100000)"
fill="#000000" stroke="none">
<path d="M5072 5559 c-24 -12 -54 -38 -68 -58 l-24 -36 0 -2675 0 -2675 25
-37 c70 -104 243 -101 313 5 l27 41 5 2157 5 2158 539 -1337 c297 -735 550
-1357 562 -1382 38 -76 103 -120 181 -120 47 0 117 34 142 68 10 15 270 650
577 1412 l559 1384 5 -2179 5 -2180 23 -32 c71 -99 241 -94 310 10 l27 41 0
2666 0 2666 -27 41 c-70 106 -246 109 -312 4 -13 -20 -313 -755 -667 -1633
-354 -879 -646 -1598 -649 -1598 -3 0 -295 719 -649 1598 -354 878 -654 1613
-667 1633 -46 73 -157 100 -242 58z"/>
<path d="M105 5261 c-138 -62 -138 -240 0 -302 38 -18 90 -19 983 -19 l942 0
0 -2413 0 -2412 25 -37 c70 -104 243 -101 313 5 l27 41 3 2408 2 2408 938 0
c887 0 939 1 977 19 138 62 138 240 0 302 -38 18 -123 19 -2105 19 -1982 0
-2067 -1 -2105 -19z"/>
</g>
</svg>
