<?xml version="1.0" standalone="no"?>
<!DOCTYPE svg PUBLIC "-//W3C//DTD SVG 20010904//EN"
 "http://www.w3.org/TR/2001/REC-SVG-20010904/DTD/svg10.dtd">
<svg version="1.0" xmlns="http://www.w3.org/2000/svg"
 width="590.000000pt" height="198.000000pt" viewBox="0 0 590.000000 198.000000"
 preserveAspectRatio="xMidYMid meet">
<metadata>
Created by potrace 1.16, written by Peter Selinger 2001-2019
</metadata>
<g transform="translate(0.000000,198.000000) scale(0.100000,-0.100000)"
fill="#000000" stroke="none">
<path d="M2645 1974 c-457 -31 -883 -122 -1265 -271 -153 -60 -422 -197 -551
-281 -502 -328 -797 -760 -825 -1208 -6 -83 -4 -106 11 -137 24 -51 81 -77
170 -77 124 0 185 50 185 152 3 322 253 659 675 910 179 106 385 198 610 272
758 247 1822 247 2580 0 420 -137 748 -324 982 -559 195 -195 301 -414 303
-623 0 -102 61 -152 185 -152 89 0 146 26 170 77 34 70 5 289 -60 473 -232
650 -1049 1188 -2071 1365 -249 43 -411 56 -734 59 -168 2 -332 2 -365 0z"/>
</g>
</svg>
