<?xml version="1.0" standalone="no"?>
<!DOCTYPE svg PUBLIC "-//W3C//DTD SVG 20010904//EN"
 "http://www.w3.org/TR/2001/REC-SVG-20010904/DTD/svg10.dtd">
<svg version="1.0" xmlns="http://www.w3.org/2000/svg"
 width="443.000000pt" height="1225.000000pt" viewBox="0 0 443.000000 1225.000000"
 preserveAspectRatio="xMidYMid meet">
<metadata>
Created by potrace 1.16, written by Peter Selinger 2001-2019
</metadata>
<g transform="translate(0.000000,1225.000000) scale(0.100000,-0.100000)"
fill="#000000" stroke="none">
<path d="M2075 12231 c-171 -49 -286 -169 -332 -344 -13 -52 -15 -97 -9 -282
10 -380 43 -667 161 -1435 103 -668 137 -949 159 -1317 7 -109 21 -102 -148
-73 -138 23 -251 51 -526 130 -419 120 -600 157 -815 167 -153 7 -216 -4 -314
-53 -333 -166 -333 -682 0 -848 98 -49 161 -60 314 -53 215 10 396 47 815 167
275 79 388 107 526 130 158 27 150 28 146 -22 -19 -271 -56 -507 -157 -1010
-159 -799 -160 -808 -159 -1678 3 -1648 85 -3348 249 -5175 19 -214 38 -405
41 -423 3 -19 20 -50 39 -70 l33 -37 112 0 112 0 33 37 c19 20 36 51 39 70 3
18 22 209 41 423 164 1827 246 3527 249 5175 1 870 0 879 -159 1678 -101 503
-138 739 -157 1010 -4 50 -12 49 146 22 138 -23 251 -51 526 -130 419 -120
600 -157 815 -167 153 -7 216 4 314 53 333 166 333 682 0 848 -98 49 -161 60
-314 53 -215 -10 -396 -47 -815 -167 -275 -79 -388 -107 -526 -130 -169 -29
-155 -36 -148 73 22 368 56 649 159 1317 118 768 151 1055 161 1435 7 242 1
293 -52 397 -96 190 -343 291 -559 229z"/>
</g>
</svg>
