<?xml version="1.0" standalone="no"?>
<!DOCTYPE svg PUBLIC "-//W3C//DTD SVG 20010904//EN"
 "http://www.w3.org/TR/2001/REC-SVG-20010904/DTD/svg10.dtd">
<svg version="1.0" xmlns="http://www.w3.org/2000/svg"
 width="595.000000pt" height="1338.000000pt" viewBox="0 0 595.000000 1338.000000"
 preserveAspectRatio="xMidYMid meet">
<metadata>
Created by potrace 1.16, written by Peter Selinger 2001-2019
</metadata>
<g transform="translate(0.000000,1338.000000) scale(0.100000,-0.100000)"
fill="#000000" stroke="none">
<path d="M3245 13341 c-373 -238 -833 -391 -1390 -461 -260 -32 -384 -40 -697
-47 l-298 -6 0 -260 0 -260 298 6 c497 10 851 52 1215 143 76 19 140 34 142
34 3 0 4 -962 3 -2137 l-3 -2138 -27 -57 c-96 -205 -246 -242 -1050 -255
l-388 -6 0 -260 0 -260 128 7 c819 41 2989 41 3780 0 l122 -6 0 261 0 261
-237 0 c-531 1 -903 34 -1013 91 -73 37 -134 113 -161 200 -18 59 -19 131 -19
2566 l0 2505 -21 38 c-36 64 -78 80 -210 80 l-114 0 -60 -39z"/>
<path d="M210 6811 c-83 -26 -141 -74 -181 -151 -19 -35 -24 -61 -24 -120 1
-116 50 -196 155 -251 l45 -24 2750 -3 c3115 -2 2807 -11 2901 83 112 112 112
278 1 390 -95 94 213 85 -2886 84 -1505 0 -2747 -4 -2761 -8z"/>
<path d="M3785 6142 c-23 -11 -65 -47 -96 -83 -31 -35 -810 -985 -1732 -2112
l-1677 -2047 0 -260 0 -260 1436 0 1435 0 -3 -278 c-3 -276 -3 -277 -30 -334
-35 -75 -97 -141 -157 -167 -112 -48 -334 -69 -803 -78 l-348 -6 0 -260 0
-260 118 7 c753 41 2861 41 3615 0 l117 -7 0 260 0 260 -347 6 c-474 9 -693
30 -803 78 -63 28 -123 91 -157 163 l-28 61 -3 278 -3 277 670 0 671 0 0 260
0 260 -670 0 -670 0 -2 2079 -3 2080 -21 27 c-49 67 -57 69 -272 72 -175 2
-202 0 -237 -16z m-558 -4239 c-2 -2 -541 -2 -1198 -1 l-1194 3 1195 1459
1195 1459 3 -1458 c1 -802 1 -1460 -1 -1462z"/>
</g>
</svg>
