<?xml version="1.0" standalone="no"?>
<!DOCTYPE svg PUBLIC "-//W3C//DTD SVG 20010904//EN"
 "http://www.w3.org/TR/2001/REC-SVG-20010904/DTD/svg10.dtd">
<svg version="1.0" xmlns="http://www.w3.org/2000/svg"
 width="377.000000pt" height="222.000000pt" viewBox="0 0 377.000000 222.000000"
 preserveAspectRatio="xMidYMid meet">
<metadata>
Created by potrace 1.16, written by Peter Selinger 2001-2019
</metadata>
<g transform="translate(0.000000,222.000000) scale(0.100000,-0.100000)"
fill="#000000" stroke="none">
<path d="M1104 1443 c-422 -428 -844 -855 -937 -950 l-170 -171 154 -161 c85
-89 157 -160 160 -158 4 1 358 316 788 700 l781 697 781 -697 c430 -384 784
-699 788 -700 3 -2 75 69 160 158 l154 161 -170 171 c-93 95 -515 522 -937
950 -423 427 -772 777 -776 777 -4 0 -353 -350 -776 -777z"/>
</g>
</svg>
