<?xml version="1.0" standalone="no"?>
<!DOCTYPE svg PUBLIC "-//W3C//DTD SVG 20010904//EN"
 "http://www.w3.org/TR/2001/REC-SVG-20010904/DTD/svg10.dtd">
<svg version="1.0" xmlns="http://www.w3.org/2000/svg"
 width="811.000000pt" height="1070.000000pt" viewBox="0 0 811.000000 1070.000000"
 preserveAspectRatio="xMidYMid meet">
<metadata>
Created by potrace 1.16, written by Peter Selinger 2001-2019
</metadata>
<g transform="translate(0.000000,1070.000000) scale(0.100000,-0.100000)"
fill="#000000" stroke="none">
<path d="M4420 10402 l0 -299 -107 -6 c-436 -25 -983 -159 -1428 -349 -1349
-576 -2360 -1774 -2728 -3233 -115 -457 -152 -753 -152 -1240 0 -487 37 -783
152 -1240 368 -1459 1379 -2657 2728 -3233 445 -190 992 -324 1428 -349 l107
-6 0 -224 0 -223 225 0 225 0 0 223 0 223 123 12 c391 37 816 161 1182 345
386 193 781 502 1065 832 523 610 826 1381 857 2185 7 186 0 214 -60 250 -46
29 -198 29 -244 0 -51 -31 -60 -60 -67 -225 -10 -250 -35 -428 -92 -662 -246
-1012 -986 -1836 -1934 -2153 -206 -68 -481 -120 -722 -136 l-108 -6 0 4387 0
4387 88 -6 c437 -33 808 -158 1167 -394 150 -98 245 -174 376 -299 414 -397
726 -904 930 -1514 96 -288 169 -613 204 -914 27 -232 40 -245 240 -245 111 0
135 3 162 20 68 41 63 -111 63 1890 0 2001 5 1849 -63 1890 -40 25 -135 27
-181 5 -26 -12 -115 -134 -416 -565 -211 -303 -386 -550 -389 -550 -4 0 -50
47 -103 104 -114 121 -290 279 -436 389 -304 230 -671 416 -1017 516 -198 57
-488 111 -596 111 l-29 0 0 300 0 300 -225 0 -225 0 0 -298z m0 -5128 l0
-4357 -52 7 c-215 28 -495 102 -723 193 -981 389 -1694 1202 -2010 2289 -148
511 -218 1026 -232 1714 -28 1448 266 2544 893 3325 106 132 334 363 460 467
415 342 915 582 1420 682 159 31 171 33 212 35 l32 1 0 -4356z"/>
</g>
</svg>
