<?xml version="1.0" standalone="no"?>
<!DOCTYPE svg PUBLIC "-//W3C//DTD SVG 20010904//EN"
 "http://www.w3.org/TR/2001/REC-SVG-20010904/DTD/svg10.dtd">
<svg version="1.0" xmlns="http://www.w3.org/2000/svg"
 width="516.000000pt" height="1180.000000pt" viewBox="0 0 516.000000 1180.000000"
 preserveAspectRatio="xMidYMid meet">
<metadata>
Created by potrace 1.16, written by Peter Selinger 2001-2019
</metadata>
<g transform="translate(0.000000,1180.000000) scale(0.100000,-0.100000)"
fill="#000000" stroke="none">
<path d="M2200 11793 c-512 -51 -957 -272 -1327 -657 -545 -567 -873 -1471
-873 -2406 0 -843 367 -1596 1060 -2177 595 -498 1445 -831 2307 -905 l143
-12 0 -2547 0 -2548 -452 -3 c-443 -3 -454 -3 -493 -25 -48 -25 -106 -84 -131
-133 -26 -48 -26 -172 0 -220 25 -49 83 -108 131 -133 l40 -22 1175 0 c1148 0
1176 0 1215 20 50 25 105 80 130 130 27 55 27 175 0 230 -25 50 -80 105 -130
130 -38 19 -66 20 -492 23 l-453 3 0 5359 0 5359 453 3 c426 3 454 4 492 23
50 25 105 80 130 130 27 55 27 175 0 230 -25 50 -80 105 -130 130 -39 20 -69
20 -1400 21 -748 1 -1376 -1 -1395 -3z"/>
</g>
</svg>
