<?xml version="1.0" standalone="no"?>
<!DOCTYPE svg PUBLIC "-//W3C//DTD SVG 20010904//EN"
 "http://www.w3.org/TR/2001/REC-SVG-20010904/DTD/svg10.dtd">
<svg version="1.0" xmlns="http://www.w3.org/2000/svg"
 width="858.000000pt" height="1115.000000pt" viewBox="0 0 858.000000 1115.000000"
 preserveAspectRatio="xMidYMid meet">
<metadata>
Created by potrace 1.16, written by Peter Selinger 2001-2019
</metadata>
<g transform="translate(0.000000,1115.000000) scale(0.100000,-0.100000)"
fill="#000000" stroke="none">
<path d="M4600 10685 l0 -465 -2300 0 -2300 0 0 -258 0 -259 372 -6 c386 -7
545 -16 708 -43 150 -25 215 -60 274 -147 72 -107 66 262 66 -4012 0 -4274 6
-3905 -66 -4012 -59 -87 -124 -122 -274 -147 -163 -27 -322 -36 -707 -43
l-373 -6 0 -259 0 -258 2300 0 2300 0 0 -385 0 -385 260 0 260 0 0 385 0 385
264 0 c291 0 451 10 661 41 1080 158 1975 790 2345 1654 355 825 176 1687
-486 2350 -452 452 -1116 771 -1814 870 -178 25 -177 25 -60 51 293 66 537
152 795 279 308 152 528 303 742 509 528 507 726 1126 568 1774 -150 618 -635
1180 -1321 1529 -470 240 -963 365 -1536 389 l-158 7 0 464 0 463 -260 0 -260
0 0 -465z m0 -2890 l0 -1905 -965 0 -965 0 0 1754 c0 1137 4 1772 10 1807 30
159 112 215 345 238 50 4 424 9 833 10 l742 1 0 -1905z m799 1875 c687 -140
1204 -728 1327 -1510 22 -143 23 -439 0 -580 -67 -428 -260 -805 -562 -1102
-174 -171 -323 -278 -529 -378 -157 -77 -431 -170 -499 -170 -15 0 -16 172
-16 1886 l0 1887 91 -6 c49 -4 134 -16 188 -27z m-799 -6286 l0 -2095 -797 4
c-674 3 -810 6 -876 20 -138 28 -194 68 -234 168 -17 41 -18 157 -21 2022 l-2
1977 965 0 965 0 0 -2096z m875 2085 c800 -97 1440 -813 1586 -1771 29 -187
31 -528 5 -687 -111 -685 -521 -1246 -1121 -1532 -230 -110 -551 -188 -777
-189 l-48 0 0 2095 0 2095 133 0 c72 0 173 -5 222 -11z"/>
</g>
</svg>
