<?xml version="1.0" standalone="no"?>
<!DOCTYPE svg PUBLIC "-//W3C//DTD SVG 20010904//EN"
 "http://www.w3.org/TR/2001/REC-SVG-20010904/DTD/svg10.dtd">
<svg version="1.0" xmlns="http://www.w3.org/2000/svg"
 width="631.000000pt" height="206.000000pt" viewBox="0 0 631.000000 206.000000"
 preserveAspectRatio="xMidYMid meet">
<metadata>
Created by potrace 1.16, written by Peter Selinger 2001-2019
</metadata>
<g transform="translate(0.000000,206.000000) scale(0.100000,-0.100000)"
fill="#000000" stroke="none">
<path d="M2780 2049 c-432 -28 -885 -122 -1257 -259 -172 -64 -504 -226 -642
-314 -544 -347 -853 -792 -877 -1261 -5 -99 -4 -113 15 -142 38 -61 60 -68
219 -71 189 -5 227 1 268 42 36 36 38 41 52 172 32 284 253 545 652 767 394
220 859 354 1425 413 239 25 791 25 1030 0 566 -59 1031 -193 1425 -413 161
-90 289 -183 395 -288 158 -156 237 -305 257 -479 14 -131 16 -136 52 -172 41
-41 79 -47 268 -42 159 3 181 10 219 71 19 29 20 43 15 142 -24 469 -333 914
-877 1261 -138 88 -470 250 -642 314 -383 142 -820 230 -1282 260 -182 11
-530 11 -715 -1z"/>
</g>
</svg>
