<?xml version="1.0" standalone="no"?>
<!DOCTYPE svg PUBLIC "-//W3C//DTD SVG 20010904//EN"
 "http://www.w3.org/TR/2001/REC-SVG-20010904/DTD/svg10.dtd">
<svg version="1.0" xmlns="http://www.w3.org/2000/svg"
 width="529.000000pt" height="229.000000pt" viewBox="0 0 529.000000 229.000000"
 preserveAspectRatio="xMidYMid meet">
<metadata>
Created by potrace 1.16, written by Peter Selinger 2001-2019
</metadata>
<g transform="translate(0.000000,229.000000) scale(0.100000,-0.100000)"
fill="#000000" stroke="none">
<path d="M155 2069 c-77 -121 -141 -226 -143 -233 -3 -13 2607 -1826 2628
-1826 16 0 2630 1811 2630 1822 0 7 -266 432 -286 456 -1 2 -527 -301 -1169
-673 -698 -406 -1173 -675 -1183 -673 -9 3 -538 307 -1174 676 -636 370 -1158
672 -1160 672 -2 0 -66 -100 -143 -221z"/>
</g>
</svg>
