<?xml version="1.0" standalone="no"?>
<!DOCTYPE svg PUBLIC "-//W3C//DTD SVG 20010904//EN"
 "http://www.w3.org/TR/2001/REC-SVG-20010904/DTD/svg10.dtd">
<svg version="1.0" xmlns="http://www.w3.org/2000/svg"
 width="665.000000pt" height="964.000000pt" viewBox="0 0 665.000000 964.000000"
 preserveAspectRatio="xMidYMid meet">
<metadata>
Created by potrace 1.16, written by Peter Selinger 2001-2019
</metadata>
<g transform="translate(0.000000,964.000000) scale(0.100000,-0.100000)"
fill="#000000" stroke="none">
<path d="M4060 9631 c-51 -16 -87 -40 -127 -84 -80 -86 -73 218 -73 -3260 l0
-3109 -52 45 c-305 257 -759 439 -1268 509 -145 19 -565 16 -715 -6 -364 -53
-677 -154 -941 -304 -486 -277 -783 -673 -865 -1153 -27 -161 -23 -421 10
-599 40 -209 123 -428 240 -628 146 -251 416 -522 681 -686 747 -462 1672
-475 2444 -34 272 156 569 445 731 711 112 184 193 395 242 622 34 163 32 -49
33 2970 l0 2390 54 -125 c127 -297 237 -530 556 -1180 457 -929 640 -1344 796
-1803 185 -544 272 -990 293 -1486 9 -218 15 -242 77 -311 129 -142 354 -109
440 66 l27 55 -6 217 c-16 608 -163 1256 -452 1992 -164 418 -302 722 -685
1500 -436 887 -585 1219 -745 1655 -214 586 -319 1071 -345 1595 -7 123 -17
237 -25 266 -29 102 -124 173 -239 180 -33 2 -72 0 -86 -5z"/>
</g>
</svg>
