<?xml version="1.0" standalone="no"?>
<!DOCTYPE svg PUBLIC "-//W3C//DTD SVG 20010904//EN"
 "http://www.w3.org/TR/2001/REC-SVG-20010904/DTD/svg10.dtd">
<svg version="1.0" xmlns="http://www.w3.org/2000/svg"
 width="664.000000pt" height="1070.000000pt" viewBox="0 0 664.000000 1070.000000"
 preserveAspectRatio="xMidYMid meet">
<metadata>
Created by potrace 1.16, written by Peter Selinger 2001-2019
</metadata>
<g transform="translate(0.000000,1070.000000) scale(0.100000,-0.100000)"
fill="#000000" stroke="none">
<path d="M2360 10353 l0 -348 -98 -23 c-154 -37 -434 -134 -597 -206 -667
-295 -1183 -761 -1451 -1311 -243 -501 -279 -1013 -108 -1534 187 -569 638
-1069 1280 -1420 245 -134 586 -267 862 -337 l112 -29 0 -2013 0 -2014 -32 7
c-263 53 -446 105 -637 179 -539 210 -917 533 -1126 961 -50 104 -121 292
-113 301 3 2 20 -1 39 -7 19 -6 79 -11 134 -11 255 -2 467 124 570 337 87 183
86 397 -2 585 -44 92 -157 209 -248 257 -189 99 -441 99 -630 0 -91 -48 -204
-165 -248 -257 -58 -124 -71 -205 -64 -410 14 -377 89 -692 237 -998 228 -471
584 -816 1105 -1072 269 -132 566 -232 878 -295 l137 -28 0 -334 0 -333 225 0
225 0 0 306 0 307 43 -7 c23 -3 164 -9 312 -12 246 -6 505 3 628 23 l37 6 0
-312 0 -311 225 0 225 0 0 353 0 353 73 19 c110 28 369 117 492 170 390 167
751 409 1035 694 478 481 750 1108 750 1731 0 1106 -811 2095 -2065 2517 -71
24 -165 53 -207 64 l-78 21 0 1834 c0 1009 1 1834 3 1834 2 0 55 -9 118 -20
537 -96 1008 -299 1312 -564 194 -170 343 -384 432 -620 l26 -69 -23 7 c-13 4
-66 10 -118 13 -251 14 -484 -116 -589 -328 -159 -323 -40 -714 261 -857 46
-22 115 -47 155 -56 286 -63 581 69 702 314 62 127 74 201 67 405 -17 501
-169 933 -453 1285 -83 103 -258 270 -373 356 -354 266 -839 461 -1402 565
l-118 21 0 329 0 329 -225 0 -225 0 0 -306 0 -306 -27 6 c-65 13 -613 18 -783
7 -96 -7 -183 -14 -192 -17 -17 -5 -18 14 -18 305 l0 311 -225 0 -225 0 0
-347z m1428 -709 l42 -7 0 -1798 c0 -1212 -3 -1799 -10 -1799 -9 0 -847 208
-972 241 l-38 10 0 1668 0 1669 63 7 c165 20 276 23 562 19 171 -2 329 -7 353
-10z m-1428 -1673 l0 -1569 -72 20 c-673 189 -1202 555 -1426 987 -102 197
-136 334 -136 556 -1 158 8 217 51 350 141 442 588 857 1178 1096 100 40 364
128 388 129 16 0 17 -81 17 -1569z m965 -3067 l505 -127 -2 -1851 -3 -1851
-105 -13 c-121 -16 -687 -22 -822 -9 l-88 9 0 1984 c0 1091 2 1984 5 1984 3 0
232 -57 510 -126z m1130 -300 c534 -191 947 -490 1200 -869 372 -555 334
-1216 -101 -1759 -273 -340 -726 -636 -1194 -780 l-80 -24 0 1744 0 1744 28
-6 c15 -4 81 -26 147 -50z"/>
</g>
</svg>
