<?xml version="1.0" standalone="no"?>
<!DOCTYPE svg PUBLIC "-//W3C//DTD SVG 20010904//EN"
 "http://www.w3.org/TR/2001/REC-SVG-20010904/DTD/svg10.dtd">
<svg version="1.0" xmlns="http://www.w3.org/2000/svg"
 width="307.000000pt" height="306.000000pt" viewBox="0 0 307.000000 306.000000"
 preserveAspectRatio="xMidYMid meet">
<metadata>
Created by potrace 1.16, written by Peter Selinger 2001-2019
</metadata>
<g transform="translate(0.000000,306.000000) scale(0.100000,-0.100000)"
fill="#000000" stroke="none">
<path d="M1375 3054 c-300 -46 -505 -122 -720 -268 -117 -79 -302 -264 -381
-381 -119 -175 -208 -388 -251 -600 -25 -126 -25 -424 0 -550 43 -212 132
-425 251 -600 79 -117 264 -302 381 -381 178 -121 398 -212 607 -251 128 -24
408 -24 536 0 209 39 429 130 607 251 117 79 302 264 381 381 119 175 208 388
251 600 25 126 25 424 0 550 -43 212 -132 425 -251 600 -79 117 -264 302 -381
381 -177 121 -399 213 -602 250 -85 15 -366 27 -428 18z m316 -569 c366 -64
652 -312 762 -661 109 -345 17 -725 -238 -979 -512 -513 -1390 -299 -1608 391
-109 345 -17 725 238 979 222 223 539 324 846 270z"/>
</g>
</svg>
