<?xml version="1.0" standalone="no"?>
<!DOCTYPE svg PUBLIC "-//W3C//DTD SVG 20010904//EN"
 "http://www.w3.org/TR/2001/REC-SVG-20010904/DTD/svg10.dtd">
<svg version="1.0" xmlns="http://www.w3.org/2000/svg"
 width="391.000000pt" height="249.000000pt" viewBox="0 0 391.000000 249.000000"
 preserveAspectRatio="xMidYMid meet">
<metadata>
Created by potrace 1.16, written by Peter Selinger 2001-2019
</metadata>
<g transform="translate(0.000000,249.000000) scale(0.100000,-0.100000)"
fill="#000000" stroke="none">
<path d="M1035 2472 c-113 -39 -209 -122 -261 -225 -28 -55 -776 -2068 -771
-2073 18 -18 322 -173 327 -167 42 46 1285 1753 1303 1790 71 140 75 272 12
401 -65 131 -200 238 -351 277 -78 20 -196 19 -259 -3z"/>
<path d="M3245 2472 c-113 -39 -209 -122 -261 -225 -28 -55 -776 -2068 -771
-2073 18 -18 322 -173 327 -167 42 46 1285 1753 1303 1790 71 140 75 272 12
401 -65 131 -200 238 -351 277 -78 20 -196 19 -259 -3z"/>
</g>
</svg>
