<?xml version="1.0" standalone="no"?>
<!DOCTYPE svg PUBLIC "-//W3C//DTD SVG 20010904//EN"
 "http://www.w3.org/TR/2001/REC-SVG-20010904/DTD/svg10.dtd">
<svg version="1.0" xmlns="http://www.w3.org/2000/svg"
 width="615.000000pt" height="170.000000pt" viewBox="0 0 615.000000 170.000000"
 preserveAspectRatio="xMidYMid meet">
<metadata>
Created by potrace 1.16, written by Peter Selinger 2001-2019
</metadata>
<g transform="translate(0.000000,170.000000) scale(0.100000,-0.100000)"
fill="#000000" stroke="none">
<path d="M1695 1689 c-154 -21 -340 -83 -485 -161 -285 -153 -491 -345 -934
-871 l-276 -328 192 -162 192 -163 186 187 c194 195 328 304 484 393 239 135
460 196 716 196 320 0 622 -90 1155 -345 551 -264 763 -347 1025 -402 108 -23
150 -27 305 -27 137 -1 200 3 264 17 331 71 592 222 895 517 85 83 251 268
432 483 l294 348 -192 162 -192 163 -186 -187 c-194 -195 -328 -304 -484 -393
-239 -135 -460 -196 -716 -196 -320 0 -622 90 -1155 345 -550 263 -765 348
-1020 401 -136 28 -380 40 -500 23z"/>
</g>
</svg>
