<?xml version="1.0" standalone="no"?>
<!DOCTYPE svg PUBLIC "-//W3C//DTD SVG 20010904//EN"
 "http://www.w3.org/TR/2001/REC-SVG-20010904/DTD/svg10.dtd">
<svg version="1.0" xmlns="http://www.w3.org/2000/svg"
 width="821.000000pt" height="1070.000000pt" viewBox="0 0 821.000000 1070.000000"
 preserveAspectRatio="xMidYMid meet">
<metadata>
Created by potrace 1.16, written by Peter Selinger 2001-2019
</metadata>
<g transform="translate(0.000000,1070.000000) scale(0.100000,-0.100000)"
fill="#000000" stroke="none">
<path d="M4430 10255 l0 -445 -2215 0 -2215 0 0 -223 0 -224 343 -6 c619 -11
822 -45 915 -152 42 -47 77 -118 91 -183 16 -76 16 -7418 0 -7494 -14 -65 -49
-136 -91 -183 -93 -107 -296 -141 -915 -152 l-343 -6 0 -224 0 -223 2215 0
2215 0 0 -370 0 -370 225 0 225 0 0 369 0 369 338 5 c407 7 588 27 880 98 564
137 1065 417 1442 805 197 202 324 382 441 619 362 740 271 1520 -254 2170
-94 117 -305 318 -437 417 -407 305 -876 501 -1418 592 -85 14 -168 26 -185
26 -18 0 -39 5 -47 10 -12 8 -10 10 10 10 43 0 342 78 480 125 899 308 1532
930 1670 1642 71 362 8 760 -176 1119 -225 439 -620 812 -1134 1070 -437 219
-918 338 -1452 361 l-158 6 0 444 0 443 -225 0 -225 0 0 -445z m0 -2760 l0
-1865 -960 0 -960 0 0 1708 c0 1191 3 1726 11 1767 30 161 113 221 342 245 39
4 408 8 820 9 l747 1 0 -1865z m722 1839 c202 -38 434 -138 608 -262 113 -80
274 -237 357 -348 208 -274 332 -590 374 -948 18 -158 6 -444 -25 -593 -157
-743 -719 -1316 -1471 -1499 -55 -13 -103 -24 -107 -24 -5 0 -8 833 -8 1851
l0 1852 95 -7 c52 -3 132 -13 177 -22z m-722 -6095 l0 -2050 -797 4 c-718 3
-806 5 -873 21 -154 36 -214 94 -239 231 -8 41 -11 627 -11 1952 l0 1893 960
0 960 0 0 -2051z m885 2026 c529 -92 1003 -467 1273 -1011 309 -620 331 -1354
57 -1931 -198 -418 -511 -737 -919 -938 -235 -115 -561 -195 -796 -195 l-50 0
0 2052 0 2051 173 -6 c94 -3 213 -13 262 -22z"/>
</g>
</svg>
