<?xml version="1.0" standalone="no"?>
<!DOCTYPE svg PUBLIC "-//W3C//DTD SVG 20010904//EN"
 "http://www.w3.org/TR/2001/REC-SVG-20010904/DTD/svg10.dtd">
<svg version="1.0" xmlns="http://www.w3.org/2000/svg"
 width="768.000000pt" height="1003.000000pt" viewBox="0 0 768.000000 1003.000000"
 preserveAspectRatio="xMidYMid meet">
<metadata>
Created by potrace 1.16, written by Peter Selinger 2001-2019
</metadata>
<g transform="translate(0.000000,1003.000000) scale(0.100000,-0.100000)"
fill="#000000" stroke="none">
<path d="M4717 10015 c-447 -56 -885 -244 -1242 -532 -136 -109 -321 -302
-432 -450 -275 -366 -446 -777 -526 -1266 -21 -129 -21 -162 -24 -1314 l-4
-1183 -490 0 c-543 0 -541 0 -580 -64 -17 -28 -19 -53 -19 -246 0 -198 2 -218
20 -248 38 -62 38 -62 580 -62 l491 0 -5 -1298 c-2 -713 -8 -1318 -11 -1343
l-7 -46 -95 23 c-730 177 -1457 66 -1928 -295 -391 -299 -551 -808 -371 -1176
117 -238 376 -404 758 -487 91 -19 132 -22 338 -22 208 1 251 4 380 27 351 63
662 185 949 374 159 103 234 165 387 316 110 107 136 128 153 122 12 -4 165
-74 339 -157 774 -367 1089 -493 1472 -588 650 -163 1179 -127 1665 114 675
334 1120 1015 1151 1761 5 116 4 134 -13 164 -35 63 -66 71 -256 71 -247 0
-265 -12 -278 -190 -29 -383 -163 -681 -409 -913 -236 -222 -504 -327 -835
-327 -431 0 -903 123 -1521 395 -162 72 -867 404 -876 413 -4 4 15 75 41 157
51 156 81 281 109 450 14 88 16 246 19 1277 l4 1178 682 0 c642 0 684 1 716
18 65 35 71 61 71 292 0 231 -6 257 -71 292 -32 17 -74 18 -716 18 l-683 0 0
1188 c0 1381 7 1558 71 1877 122 613 494 1038 1013 1158 133 30 387 30 544 -1
566 -113 1034 -543 1285 -1182 25 -63 52 -139 60 -167 l16 -53 -92 0 c-337 0
-616 -210 -704 -530 -28 -102 -25 -321 6 -420 91 -293 310 -473 622 -513 290
-36 601 117 726 359 77 148 88 202 88 424 0 217 -12 336 -55 550 -50 252 -127
482 -239 715 -244 507 -611 897 -1060 1124 -212 107 -380 163 -616 206 -125
23 -457 28 -598 10z m-2942 -8754 c133 -20 301 -56 412 -88 l62 -18 -57 -85
c-69 -104 -242 -279 -338 -343 -219 -144 -435 -211 -684 -212 -116 0 -145 3
-208 24 -135 44 -231 133 -251 233 -13 64 -1 150 29 213 66 136 245 250 457
290 106 20 403 13 578 -14z"/>
</g>
</svg>
