<?xml version="1.0" standalone="no"?>
<!DOCTYPE svg PUBLIC "-//W3C//DTD SVG 20010904//EN"
 "http://www.w3.org/TR/2001/REC-SVG-20010904/DTD/svg10.dtd">
<svg version="1.0" xmlns="http://www.w3.org/2000/svg"
 width="596.000000pt" height="941.000000pt" viewBox="0 0 596.000000 941.000000"
 preserveAspectRatio="xMidYMid meet">
<metadata>
Created by potrace 1.16, written by Peter Selinger 2001-2019
</metadata>
<g transform="translate(0.000000,941.000000) scale(0.100000,-0.100000)"
fill="#000000" stroke="none">
<path d="M226 7902 c-120 -829 -220 -1517 -223 -1529 l-5 -23 275 0 275 0 6
28 c3 15 13 79 21 142 66 466 155 836 242 1001 47 91 65 106 143 118 231 36
1118 53 2589 49 l1133 -3 -609 -810 c-797 -1060 -911 -1222 -1181 -1671 -656
-1093 -1080 -2243 -1241 -3369 -78 -540 -103 -1140 -56 -1310 67 -243 250
-425 500 -497 114 -33 306 -33 420 0 204 59 361 187 449 367 70 142 68 118 76
870 8 691 19 1015 45 1410 93 1367 371 2349 884 3120 48 72 504 685 1014 1362
510 678 936 1247 947 1265 19 31 20 51 20 286 l0 252 -1632 0 c-1904 0 -2349
9 -2738 56 -245 29 -395 81 -490 170 -61 57 -89 107 -97 175 l-6 49 -271 0
-271 0 -219 -1508z"/>
</g>
</svg>
