<?xml version="1.0" standalone="no"?>
<!DOCTYPE svg PUBLIC "-//W3C//DTD SVG 20010904//EN"
 "http://www.w3.org/TR/2001/REC-SVG-20010904/DTD/svg10.dtd">
<svg version="1.0" xmlns="http://www.w3.org/2000/svg"
 width="941.000000pt" height="1115.000000pt" viewBox="0 0 941.000000 1115.000000"
 preserveAspectRatio="xMidYMid meet">
<metadata>
Created by potrace 1.16, written by Peter Selinger 2001-2019
</metadata>
<g transform="translate(0.000000,1115.000000) scale(0.100000,-0.100000)"
fill="#000000" stroke="none">
<path d="M4580 10836 l0 -313 -102 -7 c-243 -17 -560 -71 -826 -142 -675 -179
-1307 -508 -1857 -966 -138 -115 -414 -387 -540 -532 -452 -522 -775 -1092
-995 -1756 -503 -1521 -268 -3211 631 -4535 298 -438 695 -855 1114 -1169 411
-308 886 -558 1362 -715 366 -121 771 -204 1111 -227 l102 -7 0 -233 0 -234
260 0 260 0 0 235 0 235 38 0 c20 0 96 7 167 15 668 77 1253 299 1665 632 109
88 285 274 359 380 l65 91 64 -86 c76 -101 348 -377 472 -478 121 -99 279
-218 317 -237 18 -10 44 -17 58 -17 39 0 91 27 112 58 17 26 18 99 23 1472 l5
1445 24 58 c44 112 103 154 252 181 112 21 328 36 522 36 l157 0 0 261 0 261
-102 -6 c-671 -41 -2818 -41 -3770 0 l-148 7 0 -262 0 -261 288 0 c513 0 972
-26 1136 -65 37 -8 88 -26 114 -39 62 -32 135 -108 164 -171 l23 -50 3 -650
c2 -428 -1 -683 -8 -747 -22 -192 -82 -358 -190 -521 -310 -469 -924 -764
-1652 -794 l-158 -6 0 4518 0 4518 93 -7 c644 -46 1174 -300 1644 -790 571
-594 940 -1431 1067 -2422 15 -120 29 -189 40 -206 32 -49 69 -58 238 -58 174
0 207 10 240 71 17 32 18 113 18 1929 0 1816 -1 1897 -18 1929 -27 50 -73 71
-157 71 -50 0 -78 -5 -100 -19 -19 -11 -182 -228 -430 -571 -220 -304 -403
-557 -406 -561 -3 -5 -81 66 -175 159 -386 383 -778 636 -1249 807 -214 78
-514 146 -742 170 l-63 7 0 314 0 314 -260 0 -260 0 0 -314z m0 -5336 c0
-2837 -3 -4470 -10 -4470 -30 0 -320 66 -418 96 -567 171 -1034 443 -1446 844
-284 277 -491 557 -670 910 -280 550 -432 1166 -498 2020 -17 217 -17 991 0
1210 65 852 216 1468 493 2023 470 937 1326 1597 2344 1807 77 16 155 29 173
29 l32 1 0 -4470z"/>
</g>
</svg>
