<?xml version="1.0" standalone="no"?>
<!DOCTYPE svg PUBLIC "-//W3C//DTD SVG 20010904//EN"
 "http://www.w3.org/TR/2001/REC-SVG-20010904/DTD/svg10.dtd">
<svg version="1.0" xmlns="http://www.w3.org/2000/svg"
 width="415.000000pt" height="265.000000pt" viewBox="0 0 415.000000 265.000000"
 preserveAspectRatio="xMidYMid meet">
<metadata>
Created by potrace 1.16, written by Peter Selinger 2001-2019
</metadata>
<g transform="translate(0.000000,265.000000) scale(0.100000,-0.100000)"
fill="#000000" stroke="none">
<path d="M485 2634 c-82 -20 -210 -84 -270 -136 -219 -187 -274 -432 -152
-678 17 -36 315 -460 661 -943 l629 -877 236 122 c130 66 239 124 244 128 11
9 -675 1999 -724 2098 -71 146 -193 247 -346 287 -71 19 -199 18 -278 -1z"/>
<path d="M2785 2634 c-82 -20 -210 -84 -270 -136 -219 -187 -274 -432 -152
-678 17 -36 315 -460 661 -943 l629 -877 236 122 c130 66 239 124 244 128 11
9 -675 1999 -724 2098 -71 146 -193 247 -346 287 -71 19 -199 18 -278 -1z"/>
</g>
</svg>
