<?xml version="1.0" standalone="no"?>
<!DOCTYPE svg PUBLIC "-//W3C//DTD SVG 20010904//EN"
 "http://www.w3.org/TR/2001/REC-SVG-20010904/DTD/svg10.dtd">
<svg version="1.0" xmlns="http://www.w3.org/2000/svg"
 width="615.000000pt" height="1230.000000pt" viewBox="0 0 615.000000 1230.000000"
 preserveAspectRatio="xMidYMid meet">
<metadata>
Created by potrace 1.16, written by Peter Selinger 2001-2019
</metadata>
<g transform="translate(0.000000,1230.000000) scale(0.100000,-0.100000)"
fill="#000000" stroke="none">
<path d="M2984 12290 c-63 -20 -128 -73 -159 -130 l-30 -55 -3 -5129 -2 -5128
-71 98 c-620 855 -1541 1488 -2549 1750 -74 20 -143 38 -152 40 -17 5 -18 -13
-18 -275 l0 -280 43 -11 c620 -157 1123 -404 1602 -787 129 -103 392 -358 511
-494 203 -233 391 -513 541 -805 l93 -181 0 -92 0 -91 38 0 39 0 57 -168 c53
-160 136 -465 136 -504 0 -10 5 -18 10 -18 6 0 10 8 10 18 0 39 83 344 136
504 l57 168 39 0 38 0 0 91 0 92 93 181 c150 292 338 572 541 805 119 136 382
391 511 494 479 383 982 630 1603 787 l42 11 0 280 c0 262 -1 280 -17 275 -10
-2 -79 -20 -153 -40 -1008 -262 -1929 -895 -2549 -1750 l-71 -98 -2 5128 -3
5129 -27 52 c-28 52 -64 86 -128 118 -41 21 -159 29 -206 15z"/>
</g>
</svg>
