<?xml version="1.0" standalone="no"?>
<!DOCTYPE svg PUBLIC "-//W3C//DTD SVG 20010904//EN"
 "http://www.w3.org/TR/2001/REC-SVG-20010904/DTD/svg10.dtd">
<svg version="1.0" xmlns="http://www.w3.org/2000/svg"
 width="554.000000pt" height="927.000000pt" viewBox="0 0 554.000000 927.000000"
 preserveAspectRatio="xMidYMid meet">
<metadata>
Created by potrace 1.16, written by Peter Selinger 2001-2019
</metadata>
<g transform="translate(0.000000,927.000000) scale(0.100000,-0.100000)"
fill="#000000" stroke="none">
<path d="M729 9247 c-19 -12 -42 -38 -52 -57 -16 -33 -17 -159 -15 -2322 l3
-2287 21 -27 c44 -60 67 -69 181 -72 58 -2 120 -1 139 2 47 9 85 45 133 125
23 39 74 114 115 168 327 437 759 685 1331 764 123 18 424 18 500 0 245 -55
468 -195 643 -404 271 -322 398 -698 454 -1347 18 -205 17 -1174 0 -1380 -37
-424 -106 -715 -232 -978 -170 -353 -421 -612 -760 -782 -127 -64 -247 -105
-399 -137 -111 -23 -149 -27 -321 -27 -210 -1 -326 13 -515 61 -549 137 -1039
531 -1293 1038 -27 55 -57 116 -65 135 l-14 36 71 -10 c139 -19 341 26 470
105 226 136 348 378 333 659 -7 129 -25 199 -79 310 -53 110 -177 237 -283
292 -129 67 -201 83 -365 83 -164 0 -236 -16 -365 -83 -106 -55 -230 -182
-283 -292 -68 -138 -77 -187 -76 -400 1 -358 81 -694 249 -1035 361 -736 1040
-1231 1870 -1362 173 -28 570 -25 775 6 464 69 895 232 1270 479 184 121 320
231 481 392 240 240 417 487 569 795 174 352 267 685 301 1075 14 165 7 476
-16 650 -206 1571 -1446 2672 -2860 2540 -542 -51 -1031 -264 -1400 -609 l-60
-56 -3 1224 c-1 673 0 1226 2 1228 2 2 39 -5 82 -16 134 -34 322 -70 484 -91
222 -30 649 -38 858 -16 795 85 1522 428 2076 980 138 138 265 283 291 332 23
44 21 219 -3 263 -21 39 -73 71 -114 71 -16 0 -88 -25 -161 -56 -604 -255
-1325 -389 -1992 -370 -602 17 -1149 130 -1703 352 -102 41 -197 74 -212 74
-15 0 -42 -10 -61 -23z"/>
</g>
</svg>
