<?xml version="1.0" standalone="no"?>
<!DOCTYPE svg PUBLIC "-//W3C//DTD SVG 20010904//EN"
 "http://www.w3.org/TR/2001/REC-SVG-20010904/DTD/svg10.dtd">
<svg version="1.0" xmlns="http://www.w3.org/2000/svg"
 width="1236.000000pt" height="982.000000pt" viewBox="0 0 1236.000000 982.000000"
 preserveAspectRatio="xMidYMid meet">
<metadata>
Created by potrace 1.16, written by Peter Selinger 2001-2019
</metadata>
<g transform="translate(0.000000,982.000000) scale(0.100000,-0.100000)"
fill="#000000" stroke="none">
<path d="M5684 9806 c-72 -32 -96 -96 -83 -222 57 -559 118 -1483 149 -2239
67 -1666 10 -4523 -139 -6915 -18 -297 -17 -327 21 -375 43 -54 49 -55 543
-55 494 0 500 1 543 55 38 48 39 78 21 375 -149 2392 -206 5249 -139 6915 31
756 92 1680 149 2239 13 128 -12 191 -85 222 -48 20 -934 20 -980 0z"/>
<path d="M2331 7879 c-265 -28 -568 -122 -820 -255 -925 -488 -1511 -1540
-1511 -2714 0 -1457 899 -2689 2145 -2939 357 -72 713 -50 1063 65 514 168
961 526 1300 1038 83 126 254 464 306 606 288 789 288 1671 0 2460 -52 142
-223 480 -306 606 -223 337 -500 614 -804 805 -276 174 -614 294 -929 329
-106 12 -325 11 -444 -1z m430 -840 c437 -44 780 -199 1055 -473 324 -325 511
-776 564 -1361 13 -141 13 -449 0 -590 -23 -252 -82 -526 -155 -715 -170 -443
-456 -768 -835 -949 -429 -205 -969 -237 -1420 -84 -527 178 -878 584 -1035
1198 -126 489 -126 1201 0 1690 157 614 508 1020 1035 1199 242 82 527 112
791 85z"/>
<path d="M9560 7879 c-301 -35 -644 -158 -914 -328 -304 -191 -581 -468 -804
-805 -83 -126 -254 -464 -306 -606 -288 -789 -288 -1671 0 -2460 52 -142 223
-480 306 -606 170 -256 387 -497 599 -661 403 -313 874 -483 1340 -483 1174
-1 2218 945 2493 2256 316 1513 -388 3025 -1649 3537 -335 137 -730 194 -1065
156z m418 -840 c587 -64 1017 -348 1271 -839 174 -337 261 -768 261 -1290 0
-992 -317 -1657 -935 -1964 -475 -235 -1117 -233 -1615 5 -320 153 -588 424
-754 762 -165 338 -246 731 -246 1197 0 298 25 511 90 765 145 566 459 978
910 1194 301 144 680 207 1018 170z"/>
</g>
</svg>
