<?xml version="1.0" standalone="no"?>
<!DOCTYPE svg PUBLIC "-//W3C//DTD SVG 20010904//EN"
 "http://www.w3.org/TR/2001/REC-SVG-20010904/DTD/svg10.dtd">
<svg version="1.0" xmlns="http://www.w3.org/2000/svg"
 width="1327.000000pt" height="1388.000000pt" viewBox="0 0 1327.000000 1388.000000"
 preserveAspectRatio="xMidYMid meet">
<metadata>
Created by potrace 1.16, written by Peter Selinger 2001-2019
</metadata>
<g transform="translate(0.000000,1388.000000) scale(0.100000,-0.100000)"
fill="#000000" stroke="none">
<path d="M6320 13874 c-25 -2 -110 -9 -190 -14 -607 -45 -1256 -197 -1858
-436 -2093 -830 -3664 -2745 -4122 -5024 -173 -860 -197 -1663 -74 -2505 326
-2236 1664 -4154 3608 -5170 747 -391 1569 -628 2446 -707 191 -17 809 -17
1000 0 1253 113 2379 545 3378 1296 1329 1000 2268 2503 2602 4166 173 860
197 1663 74 2505 -326 2236 -1664 4154 -3608 5170 -742 388 -1563 626 -2431
706 -118 10 -737 20 -825 13z m785 -554 c763 -68 1436 -258 2120 -595 1467
-724 2603 -2040 3142 -3640 470 -1396 470 -2894 0 -4290 -539 -1600 -1675
-2916 -3142 -3640 -689 -340 -1351 -525 -2135 -597 -174 -16 -746 -16 -920 0
-784 72 -1446 257 -2135 597 -1162 573 -2126 1524 -2743 2705 -1001 1917
-1001 4243 0 6160 617 1181 1581 2132 2743 2705 690 340 1411 541 2135 595 80
5 165 12 190 14 84 7 624 -3 745 -14z"/>
<path d="M2460 9747 l0 -224 343 -6 c619 -11 822 -45 915 -152 42 -47 77 -118
91 -183 16 -75 16 -4699 0 -4774 -14 -65 -49 -136 -91 -183 -93 -107 -296
-141 -915 -152 l-343 -6 0 -225 0 -225 118 7 c729 39 2935 39 3665 0 l117 -7
0 225 0 225 -342 6 c-620 11 -823 45 -916 152 -42 47 -77 118 -91 183 -8 37
-11 373 -11 1137 l0 1085 673 0 c407 0 706 -4 757 -10 355 -44 677 -209 865
-443 78 -96 156 -249 187 -362 20 -76 22 -109 29 -665 7 -630 8 -640 65 -815
214 -656 926 -1005 2059 -1009 298 -1 333 4 496 74 166 70 365 243 477 415
167 254 272 613 272 928 0 84 -19 124 -79 164 -49 33 -163 33 -212 0 -63 -42
-75 -72 -82 -204 -30 -547 -282 -953 -638 -1029 -147 -32 -345 0 -462 72 -134
84 -237 226 -325 449 -75 190 -112 331 -262 1010 -56 253 -118 507 -136 564
-70 214 -181 386 -363 564 -189 184 -416 321 -716 431 -14 5 28 21 148 56 776
223 1347 600 1552 1024 190 394 87 848 -274 1214 -450 454 -1229 778 -2111
876 -295 33 -470 36 -2462 36 l-1998 0 0 -223z m4239 -251 c432 -50 771 -172
992 -357 135 -113 239 -323 285 -574 25 -139 26 -489 1 -625 -47 -253 -128
-422 -268 -556 -192 -182 -560 -327 -964 -379 -226 -28 -421 -35 -1082 -35
l-663 0 0 1118 c0 765 3 1137 11 1177 24 130 86 194 217 225 107 25 209 28
762 25 445 -2 595 -6 709 -19z"/>
</g>
</svg>
