<?xml version="1.0" standalone="no"?>
<!DOCTYPE svg PUBLIC "-//W3C//DTD SVG 20010904//EN"
 "http://www.w3.org/TR/2001/REC-SVG-20010904/DTD/svg10.dtd">
<svg version="1.0" xmlns="http://www.w3.org/2000/svg"
 width="576.000000pt" height="927.000000pt" viewBox="0 0 576.000000 927.000000"
 preserveAspectRatio="xMidYMid meet">
<metadata>
Created by potrace 1.16, written by Peter Selinger 2001-2019
</metadata>
<g transform="translate(0.000000,927.000000) scale(0.100000,-0.100000)"
fill="#000000" stroke="none">
<path d="M2641 9259 c-621 -51 -1154 -293 -1622 -735 -657 -621 -948 -1204
-1010 -2024 -14 -188 -6 -592 15 -771 78 -644 305 -1138 765 -1661 267 -304
534 -516 834 -664 308 -151 597 -218 987 -230 351 -11 602 41 880 182 163 84
288 174 428 309 177 170 300 333 431 570 l61 110 0 -145 c-1 -188 -17 -635
-30 -820 -81 -1115 -352 -1848 -875 -2366 -272 -268 -579 -438 -918 -506 -94
-19 -145 -22 -317 -23 -495 0 -881 106 -1142 314 l-83 66 67 7 c151 15 295 84
404 192 80 80 132 166 166 276 19 63 23 97 23 210 0 113 -4 147 -23 210 -66
213 -220 368 -437 441 -61 21 -89 24 -220 24 -131 0 -159 -3 -220 -24 -110
-37 -194 -88 -271 -165 -80 -80 -132 -166 -166 -276 -21 -67 -23 -93 -22 -250
0 -141 5 -196 23 -280 43 -202 109 -364 214 -520 70 -105 252 -283 366 -360
245 -164 566 -276 931 -326 181 -25 612 -26 770 -1 535 83 1028 311 1475 681
110 92 331 311 435 432 621 722 1027 1706 1150 2783 34 298 43 549 37 966 -15
886 -92 1490 -272 2108 -149 515 -402 1027 -672 1362 -104 129 -311 330 -438
426 -358 269 -777 436 -1194 479 -119 12 -378 11 -530 -1z m535 -453 c267 -58
516 -215 708 -444 166 -200 296 -448 355 -678 129 -505 188 -1645 115 -2224
-127 -1015 -621 -1721 -1294 -1855 -112 -22 -308 -29 -435 -16 -358 38 -623
174 -837 431 -366 437 -448 835 -448 2170 0 501 11 817 35 1040 56 505 169
798 429 1107 286 342 660 500 1156 488 81 -2 176 -10 216 -19z"/>
</g>
</svg>
