<?xml version="1.0" standalone="no"?>
<!DOCTYPE svg PUBLIC "-//W3C//DTD SVG 20010904//EN"
 "http://www.w3.org/TR/2001/REC-SVG-20010904/DTD/svg10.dtd">
<svg version="1.0" xmlns="http://www.w3.org/2000/svg"
 width="435.000000pt" height="192.000000pt" viewBox="0 0 435.000000 192.000000"
 preserveAspectRatio="xMidYMid meet">
<metadata>
Created by potrace 1.16, written by Peter Selinger 2001-2019
</metadata>
<g transform="translate(0.000000,192.000000) scale(0.100000,-0.100000)"
fill="#000000" stroke="none">
<path d="M0 1875 c0 -222 73 -511 185 -735 298 -595 897 -1002 1645 -1117 160
-25 520 -25 680 0 556 86 1035 334 1367 707 207 232 361 529 421 811 22 101
42 260 42 334 l0 45 -254 0 -253 0 -7 -77 c-15 -180 -88 -373 -195 -514 -504
-662 -1835 -804 -2622 -278 -294 197 -469 476 -495 792 l-7 77 -253 0 -254 0
0 -45z"/>
</g>
</svg>
