<?xml version="1.0" standalone="no"?>
<!DOCTYPE svg PUBLIC "-//W3C//DTD SVG 20010904//EN"
 "http://www.w3.org/TR/2001/REC-SVG-20010904/DTD/svg10.dtd">
<svg version="1.0" xmlns="http://www.w3.org/2000/svg"
 width="579.000000pt" height="244.000000pt" viewBox="0 0 579.000000 244.000000"
 preserveAspectRatio="xMidYMid meet">
<metadata>
Created by potrace 1.16, written by Peter Selinger 2001-2019
</metadata>
<g transform="translate(0.000000,244.000000) scale(0.100000,-0.100000)"
fill="#000000" stroke="none">
<path d="M0 2386 c0 -90 19 -254 45 -383 168 -832 851 -1533 1793 -1837 358
-116 652 -160 1052 -160 400 0 694 44 1052 160 942 304 1625 1005 1793 1837
26 129 45 293 45 383 l0 54 -205 0 -205 0 0 -47 c0 -141 -43 -348 -105 -505
-231 -583 -865 -1029 -1695 -1192 -244 -48 -385 -60 -680 -60 -295 0 -436 12
-680 60 -543 107 -1019 341 -1336 658 -212 212 -351 450 -419 719 -25 98 -45
242 -45 320 l0 47 -205 0 -205 0 0 -54z"/>
</g>
</svg>
