<?xml version="1.0" standalone="no"?>
<!DOCTYPE svg PUBLIC "-//W3C//DTD SVG 20010904//EN"
 "http://www.w3.org/TR/2001/REC-SVG-20010904/DTD/svg10.dtd">
<svg version="1.0" xmlns="http://www.w3.org/2000/svg"
 width="538.000000pt" height="1230.000000pt" viewBox="0 0 538.000000 1230.000000"
 preserveAspectRatio="xMidYMid meet">
<metadata>
Created by potrace 1.16, written by Peter Selinger 2001-2019
</metadata>
<g transform="translate(0.000000,1230.000000) scale(0.100000,-0.100000)"
fill="#000000" stroke="none">
<path d="M2240 12285 c-414 -50 -803 -220 -1130 -493 -582 -486 -976 -1298
-1086 -2237 -23 -190 -26 -672 -6 -815 83 -584 312 -1087 698 -1530 598 -686
1527 -1155 2569 -1295 99 -13 224 -27 278 -31 l97 -7 0 -2658 0 -2658 -472 -3
-473 -3 -45 -24 c-62 -32 -97 -67 -128 -126 -22 -41 -26 -63 -26 -125 0 -116
49 -196 154 -251 l45 -24 1209 -3 c1379 -3 1270 -9 1362 83 112 112 112 278 1
390 -87 86 -79 85 -609 85 l-458 0 0 5590 0 5590 458 0 c530 0 522 -1 609 85
111 112 111 278 0 390 -93 92 40 85 -1546 84 -1064 -1 -1421 -4 -1501 -14z"/>
</g>
</svg>
