<?xml version="1.0" standalone="no"?>
<!DOCTYPE svg PUBLIC "-//W3C//DTD SVG 20010904//EN"
 "http://www.w3.org/TR/2001/REC-SVG-20010904/DTD/svg10.dtd">
<svg version="1.0" xmlns="http://www.w3.org/2000/svg"
 width="591.000000pt" height="1177.000000pt" viewBox="0 0 591.000000 1177.000000"
 preserveAspectRatio="xMidYMid meet">
<metadata>
Created by potrace 1.16, written by Peter Selinger 2001-2019
</metadata>
<g transform="translate(0.000000,1177.000000) scale(0.100000,-0.100000)"
fill="#000000" stroke="none">
<path d="M2940 11753 c0 -31 -77 -324 -115 -438 -258 -774 -744 -1443 -1397
-1918 -371 -271 -858 -503 -1269 -607 -46 -12 -101 -26 -121 -31 l-38 -10 0
-270 c0 -253 1 -270 18 -265 9 3 31 8 47 12 93 20 369 103 485 146 361 135
624 269 945 483 439 293 816 658 1128 1089 l57 78 2 -4918 3 -4919 22 -41 c46
-85 145 -144 243 -144 98 0 197 59 243 144 l22 41 3 4919 2 4918 57 -78 c312
-431 689 -796 1128 -1089 321 -214 584 -348 945 -483 116 -43 392 -126 485
-146 17 -4 38 -9 48 -12 16 -5 17 12 17 265 l0 270 -37 10 c-21 5 -76 19 -122
31 -411 104 -898 336 -1269 607 -157 114 -271 211 -421 357 -454 444 -776 959
-976 1561 -38 114 -115 407 -115 438 0 9 -4 17 -10 17 -5 0 -10 -8 -10 -17z"/>
</g>
</svg>
