<?xml version="1.0" standalone="no"?>
<!DOCTYPE svg PUBLIC "-//W3C//DTD SVG 20010904//EN"
 "http://www.w3.org/TR/2001/REC-SVG-20010904/DTD/svg10.dtd">
<svg version="1.0" xmlns="http://www.w3.org/2000/svg"
 width="877.000000pt" height="976.000000pt" viewBox="0 0 877.000000 976.000000"
 preserveAspectRatio="xMidYMid meet">
<metadata>
Created by potrace 1.16, written by Peter Selinger 2001-2019
</metadata>
<g transform="translate(0.000000,976.000000) scale(0.100000,-0.100000)"
fill="#000000" stroke="none">
<path d="M457 9738 c-3 -13 -105 -527 -227 -1143 -122 -616 -224 -1130 -227
-1142 l-5 -23 226 0 c124 0 226 2 226 5 0 3 25 126 55 273 102 490 177 763
241 883 24 44 39 58 84 81 67 34 144 54 287 75 159 23 1423 32 1423 10 0 -28
-82 -273 -147 -437 -169 -430 -397 -835 -956 -1700 -557 -859 -786 -1265 -973
-1721 -279 -681 -367 -1343 -258 -1939 92 -505 316 -984 660 -1415 121 -152
402 -431 564 -560 227 -180 502 -356 767 -489 1318 -660 3048 -660 4366 0 179
90 281 149 462 269 238 158 413 300 611 499 192 193 304 327 439 531 478 718
628 1495 454 2350 -84 412 -238 818 -492 1300 -157 298 -329 581 -714 1175
-559 865 -787 1270 -956 1700 -65 164 -147 409 -147 437 0 22 1264 13 1423
-10 143 -21 220 -41 287 -75 45 -23 60 -37 84 -81 64 -120 139 -393 241 -883
30 -147 55 -270 55 -273 0 -3 102 -5 226 -5 l226 0 -5 23 c-3 12 -105 526
-227 1142 -122 616 -224 1130 -227 1143 l-5 22 -1253 -2 c-1248 -3 -1254 -3
-1281 -24 -67 -50 -69 -57 -68 -267 3 -418 75 -901 218 -1462 85 -330 170
-608 326 -1070 71 -209 200 -591 287 -850 274 -809 404 -1290 482 -1780 105
-664 90 -1282 -44 -1817 -108 -431 -285 -797 -535 -1107 -101 -125 -319 -337
-441 -428 -349 -262 -745 -434 -1150 -502 -746 -125 -1464 49 -2068 502 -122
91 -340 303 -441 428 -566 703 -769 1726 -579 2924 78 490 208 971 482 1780
87 259 216 641 287 850 371 1096 523 1789 546 2501 7 196 7 202 -16 241 -12
23 -39 50 -60 62 l-38 21 -1245 0 -1245 0 -5 -22z"/>
</g>
</svg>
