<?xml version="1.0" standalone="no"?>
<!DOCTYPE svg PUBLIC "-//W3C//DTD SVG 20010904//EN"
 "http://www.w3.org/TR/2001/REC-SVG-20010904/DTD/svg10.dtd">
<svg version="1.0" xmlns="http://www.w3.org/2000/svg"
 width="692.000000pt" height="1004.000000pt" viewBox="0 0 692.000000 1004.000000"
 preserveAspectRatio="xMidYMid meet">
<metadata>
Created by potrace 1.16, written by Peter Selinger 2001-2019
</metadata>
<g transform="translate(0.000000,1004.000000) scale(0.100000,-0.100000)"
fill="#000000" stroke="none">
<path d="M4230 10031 c-83 -26 -141 -74 -181 -151 l-24 -45 -3 -3262 -2 -3263
-103 78 c-328 250 -726 412 -1183 483 -198 30 -565 37 -764 15 -621 -71 -1136
-300 -1500 -666 -224 -226 -373 -496 -441 -802 -30 -134 -37 -422 -15 -578
122 -845 742 -1511 1634 -1756 212 -58 373 -78 632 -78 237 -1 329 8 535 51
326 67 687 234 960 441 89 69 299 276 370 367 96 124 170 242 240 387 141 293
199 564 194 903 -1 94 -2 1291 -1 2660 l2 2490 78 -180 c147 -336 271 -597
597 -1260 502 -1020 723 -1548 890 -2125 128 -446 205 -928 205 -1290 0 -163
43 -254 147 -312 105 -59 227 -46 318 34 77 67 89 101 93 258 14 490 -111
1159 -343 1838 -176 516 -356 924 -873 1977 -280 573 -349 718 -479 1010 -407
917 -603 1655 -628 2366 -8 223 -20 265 -88 334 -74 73 -178 103 -267 76z"/>
</g>
</svg>
