<?xml version="1.0" standalone="no"?>
<!DOCTYPE svg PUBLIC "-//W3C//DTD SVG 20010904//EN"
 "http://www.w3.org/TR/2001/REC-SVG-20010904/DTD/svg10.dtd">
<svg version="1.0" xmlns="http://www.w3.org/2000/svg"
 width="596.000000pt" height="941.000000pt" viewBox="0 0 596.000000 941.000000"
 preserveAspectRatio="xMidYMid meet">
<metadata>
Created by potrace 1.16, written by Peter Selinger 2001-2019
</metadata>
<g transform="translate(0.000000,941.000000) scale(0.100000,-0.100000)"
fill="#000000" stroke="none">
<path d="M445 9388 c-2 -13 -102 -666 -220 -1453 -119 -786 -218 -1442 -221
-1457 l-6 -28 226 0 225 0 5 33 c3 17 22 131 42 252 74 459 141 715 230 886
48 91 66 106 144 118 230 36 1139 53 2697 49 l1222 -3 -610 -820 c-700 -940
-796 -1073 -981 -1355 -775 -1180 -1276 -2429 -1478 -3685 -58 -363 -87 -674
-96 -1045 -8 -306 1 -373 71 -516 237 -485 983 -485 1220 0 72 148 73 157 79
926 7 819 21 1167 67 1673 103 1134 353 2011 768 2696 114 187 85 148 1136
1560 520 700 955 1287 965 1304 18 29 20 51 20 235 l0 202 -1662 0 c-1984 0
-2426 10 -2823 60 -244 32 -376 78 -475 167 -62 56 -89 109 -90 176 l0 47
-225 0 -225 0 -5 -22z"/>
</g>
</svg>
