<?xml version="1.0" standalone="no"?>
<!DOCTYPE svg PUBLIC "-//W3C//DTD SVG 20010904//EN"
 "http://www.w3.org/TR/2001/REC-SVG-20010904/DTD/svg10.dtd">
<svg version="1.0" xmlns="http://www.w3.org/2000/svg"
 width="717.000000pt" height="717.000000pt" viewBox="0 0 717.000000 717.000000"
 preserveAspectRatio="xMidYMid meet">
<metadata>
Created by potrace 1.16, written by Peter Selinger 2001-2019
</metadata>
<g transform="translate(0.000000,717.000000) scale(0.100000,-0.100000)"
fill="#000000" stroke="none">
<path d="M210 7161 c-83 -26 -141 -74 -181 -151 -35 -67 -33 -176 3 -245 20
-38 417 -440 1592 -1615 l1566 -1565 -1569 -1570 c-1112 -1112 -1576 -1583
-1592 -1615 -33 -64 -33 -176 0 -240 32 -62 67 -97 125 -127 67 -34 148 -41
217 -18 52 17 118 81 1632 1594 l1577 1576 1568 -1567 c1130 -1129 1579 -1572
1611 -1588 108 -54 229 -33 317 55 79 79 101 172 68 286 -15 53 -48 86 -1595
1634 l-1579 1580 1570 1570 c1105 1104 1576 1582 1591 1612 29 61 35 138 15
208 -23 77 -98 154 -175 180 -67 22 -149 16 -212 -15 -32 -16 -481 -459 -1611
-1588 l-1568 -1567 -1577 1576 c-1454 1453 -1582 1578 -1627 1593 -52 17 -123
20 -166 7z"/>
<path d="M3443 7161 c-331 -53 -611 -292 -713 -607 -108 -337 -24 -676 230
-924 287 -281 734 -332 1082 -123 295 176 473 536 429 868 -50 370 -294 657
-648 760 -97 29 -283 41 -380 26z"/>
<path d="M748 4470 c-352 -64 -626 -317 -721 -665 -31 -114 -31 -326 0 -440
87 -320 320 -555 640 -647 67 -19 101 -23 233 -22 138 1 164 3 243 27 153 47
256 107 371 216 182 175 276 394 276 646 0 252 -94 471 -276 646 -172 164
-350 238 -589 244 -71 2 -151 0 -177 -5z"/>
<path d="M6117 4470 c-185 -33 -335 -110 -471 -239 -182 -175 -276 -394 -276
-646 0 -252 94 -471 276 -646 115 -109 218 -169 371 -216 79 -24 105 -26 243
-27 132 -1 166 3 233 22 320 92 553 327 640 647 18 64 22 107 22 220 0 113 -4
156 -22 220 -87 318 -320 555 -635 645 -82 24 -298 35 -381 20z"/>
<path d="M3420 1779 c-88 -15 -216 -64 -302 -116 -295 -176 -473 -536 -429
-868 50 -370 290 -653 648 -762 79 -24 104 -26 243 -26 139 0 164 2 243 26
358 109 598 392 648 762 35 266 -67 545 -271 745 -127 124 -300 212 -470 239
-77 13 -233 12 -310 0z"/>
</g>
</svg>
