<?xml version="1.0" standalone="no"?>
<!DOCTYPE svg PUBLIC "-//W3C//DTD SVG 20010904//EN"
 "http://www.w3.org/TR/2001/REC-SVG-20010904/DTD/svg10.dtd">
<svg version="1.0" xmlns="http://www.w3.org/2000/svg"
 width="845.000000pt" height="1115.000000pt" viewBox="0 0 845.000000 1115.000000"
 preserveAspectRatio="xMidYMid meet">
<metadata>
Created by potrace 1.16, written by Peter Selinger 2001-2019
</metadata>
<g transform="translate(0.000000,1115.000000) scale(0.100000,-0.100000)"
fill="#000000" stroke="none">
<path d="M4580 10836 l0 -313 -102 -7 c-243 -17 -560 -71 -826 -142 -675 -179
-1307 -508 -1857 -966 -138 -115 -414 -387 -540 -532 -452 -522 -775 -1092
-995 -1756 -503 -1521 -268 -3211 631 -4535 298 -438 695 -855 1114 -1169 411
-308 886 -558 1362 -715 366 -121 771 -204 1111 -227 l102 -7 0 -233 0 -234
260 0 260 0 0 234 0 233 73 7 c683 64 1343 336 1904 782 131 105 428 403 537
539 345 433 594 941 721 1468 63 264 92 473 101 742 7 193 -1 222 -67 257 -49
26 -259 26 -308 0 -58 -31 -67 -61 -74 -241 -43 -1022 -507 -1928 -1284 -2503
-431 -320 -931 -499 -1490 -534 l-113 -7 0 4518 0 4518 93 -7 c644 -46 1174
-300 1644 -790 571 -594 940 -1431 1067 -2422 15 -120 29 -189 40 -206 32 -49
69 -58 238 -58 174 0 207 10 240 71 17 32 18 113 18 1929 0 1816 -1 1897 -18
1929 -27 50 -73 71 -157 71 -50 0 -78 -5 -100 -19 -19 -11 -182 -228 -430
-571 -220 -304 -403 -557 -406 -561 -3 -5 -81 66 -175 159 -386 383 -778 636
-1249 807 -214 78 -514 146 -742 170 l-63 7 0 314 0 314 -260 0 -260 0 0 -314z
m0 -5341 c0 -4463 0 -4475 -20 -4475 -45 0 -294 54 -436 95 -416 119 -801 318
-1164 599 -140 108 -444 413 -554 556 -550 710 -817 1568 -877 2815 -13 259
-7 802 11 1040 62 828 215 1457 491 2008 470 937 1326 1597 2344 1807 77 16
155 29 173 29 l32 1 0 -4475z"/>
</g>
</svg>
