<?xml version="1.0" standalone="no"?>
<!DOCTYPE svg PUBLIC "-//W3C//DTD SVG 20010904//EN"
 "http://www.w3.org/TR/2001/REC-SVG-20010904/DTD/svg10.dtd">
<svg version="1.0" xmlns="http://www.w3.org/2000/svg"
 width="898.000000pt" height="907.000000pt" viewBox="0 0 898.000000 907.000000"
 preserveAspectRatio="xMidYMid meet">
<metadata>
Created by potrace 1.16, written by Peter Selinger 2001-2019
</metadata>
<g transform="translate(0.000000,907.000000) scale(0.100000,-0.100000)"
fill="#000000" stroke="none">
<path d="M5655 9059 c-507 -34 -1078 -163 -1560 -354 -149 -59 -485 -221 -630
-304 -467 -268 -925 -649 -1253 -1044 -447 -538 -738 -1129 -896 -1819 l-6
-28 -608 0 c-584 0 -608 -1 -639 -20 -53 -32 -63 -64 -63 -202 0 -143 13 -182
70 -210 32 -17 82 -18 600 -18 l565 0 0 -340 0 -340 -565 0 c-518 0 -568 -1
-600 -18 -57 -28 -70 -67 -70 -210 0 -138 10 -170 63 -202 31 -19 55 -20 633
-20 l601 0 13 -72 c7 -40 32 -152 56 -248 495 -2008 2237 -3455 4332 -3599 95
-7 624 -11 1390 -11 1217 0 1238 0 1270 20 18 11 39 35 47 52 14 32 565 3218
565 3268 0 35 -34 86 -69 105 -20 10 -58 15 -118 15 -102 0 -143 -18 -168 -72
-8 -18 -37 -163 -64 -323 -183 -1062 -332 -1681 -480 -1990 -126 -265 -428
-513 -728 -598 -77 -22 -86 -22 -803 -22 -774 0 -813 2 -1060 52 -387 78 -759
243 -1127 499 -268 187 -572 485 -796 782 -359 473 -628 1050 -777 1667 -35
141 -90 427 -90 462 0 16 1027 18 1415 3 840 -33 1354 -143 1649 -354 141
-101 309 -313 400 -506 155 -330 219 -698 233 -1335 6 -306 9 -321 66 -355 25
-16 50 -20 122 -20 72 0 97 4 122 20 68 41 63 -69 63 1497 0 1389 0 1419 -20
1450 -41 68 132 63 -2088 63 l-2009 0 -6 83 c-9 106 -9 355 0 490 l6 107 2009
0 c2220 0 2047 -5 2088 63 20 31 20 61 20 1452 0 1391 0 1421 -20 1452 -30 49
-66 63 -167 63 -70 0 -95 -4 -120 -20 -57 -34 -60 -49 -66 -355 -14 -637 -78
-1005 -233 -1335 -91 -193 -259 -405 -400 -506 -141 -101 -390 -198 -634 -248
-432 -88 -874 -116 -1843 -116 l-579 0 7 33 c90 442 198 763 375 1117 496 989
1354 1689 2325 1894 285 60 310 61 1160 61 844 0 846 0 1016 -56 192 -62 349
-160 491 -307 71 -74 102 -115 130 -172 132 -274 249 -817 368 -1705 17 -126
37 -245 45 -263 25 -54 66 -72 170 -72 105 0 145 17 172 76 17 35 15 58 -171
1447 -112 842 -194 1423 -203 1440 -8 15 -28 37 -46 47 -31 20 -59 20 -1392
19 -748 -1 -1418 -6 -1490 -10z"/>
</g>
</svg>
