<?xml version="1.0" standalone="no"?>
<!DOCTYPE svg PUBLIC "-//W3C//DTD SVG 20010904//EN"
 "http://www.w3.org/TR/2001/REC-SVG-20010904/DTD/svg10.dtd">
<svg version="1.0" xmlns="http://www.w3.org/2000/svg"
 width="694.000000pt" height="1162.000000pt" viewBox="0 0 694.000000 1162.000000"
 preserveAspectRatio="xMidYMid meet">
<metadata>
Created by potrace 1.16, written by Peter Selinger 2001-2019
</metadata>
<g transform="translate(0.000000,1162.000000) scale(0.100000,-0.100000)"
fill="#000000" stroke="none">
<path d="M5050 11611 c-89 -27 -147 -78 -183 -161 -13 -30 -573 -2149 -1243
-4707 -670 -2559 -1222 -4653 -1225 -4653 -3 0 -174 837 -379 1859 l-375 1860
-20 -32 c-11 -17 -381 -605 -822 -1307 l-802 -1275 145 -145 c89 -89 147 -141
152 -134 4 6 184 293 401 638 217 344 395 625 397 623 2 -2 190 -932 419
-2068 228 -1135 417 -2074 420 -2086 5 -23 8 -23 168 -23 201 0 239 10 314 85
41 41 55 65 71 116 10 35 655 2493 1433 5461 l1414 5398 682 0 c656 0 684 1
735 20 107 40 178 144 178 260 0 116 -71 220 -178 260 -51 19 -77 20 -865 19
-447 0 -823 -4 -837 -8z"/>
</g>
</svg>
