<?xml version="1.0" standalone="no"?>
<!DOCTYPE svg PUBLIC "-//W3C//DTD SVG 20010904//EN"
 "http://www.w3.org/TR/2001/REC-SVG-20010904/DTD/svg10.dtd">
<svg version="1.0" xmlns="http://www.w3.org/2000/svg"
 width="1383.000000pt" height="1446.000000pt" viewBox="0 0 1383.000000 1446.000000"
 preserveAspectRatio="xMidYMid meet">
<metadata>
Created by potrace 1.16, written by Peter Selinger 2001-2019
</metadata>
<g transform="translate(0.000000,1446.000000) scale(0.100000,-0.100000)"
fill="#000000" stroke="none">
<path d="M6520 14449 c-2123 -132 -4042 -1248 -5269 -3062 -226 -335 -518
-878 -670 -1247 -776 -1878 -776 -3942 0 -5820 94 -229 331 -697 464 -919 370
-617 806 -1152 1320 -1620 1972 -1795 4740 -2276 7158 -1245 1347 575 2474
1567 3252 2865 133 222 370 690 464 919 776 1878 776 3942 0 5820 -152 369
-444 912 -670 1247 -1169 1729 -2963 2824 -4979 3037 -325 35 -756 45 -1070
25z m730 -559 c1041 -64 2022 -376 2900 -923 1194 -744 2102 -1847 2635 -3202
351 -891 517 -1927 465 -2885 -56 -1009 -295 -1918 -736 -2791 -410 -811 -976
-1522 -1674 -2101 -1107 -918 -2512 -1428 -3930 -1428 -1013 0 -2042 265
-2935 755 -1341 736 -2362 1909 -2940 3380 -351 891 -517 1927 -465 2885 75
1369 512 2624 1284 3690 688 950 1603 1685 2660 2137 861 368 1828 538 2736
483z"/>
</g>
</svg>
