<?xml version="1.0" standalone="no"?>
<!DOCTYPE svg PUBLIC "-//W3C//DTD SVG 20010904//EN"
 "http://www.w3.org/TR/2001/REC-SVG-20010904/DTD/svg10.dtd">
<svg version="1.0" xmlns="http://www.w3.org/2000/svg"
 width="1006.000000pt" height="945.000000pt" viewBox="0 0 1006.000000 945.000000"
 preserveAspectRatio="xMidYMid meet">
<metadata>
Created by potrace 1.16, written by Peter Selinger 2001-2019
</metadata>
<g transform="translate(0.000000,945.000000) scale(0.100000,-0.100000)"
fill="#000000" stroke="none">
<path d="M0 9141 l0 -311 238 0 c294 0 637 -16 788 -35 122 -16 211 -44 290
-90 116 -68 111 -60 912 -1402 413 -694 752 -1264 752 -1267 0 -3 -472 -6
-1048 -6 l-1048 0 -52 -26 c-192 -96 -184 -372 13 -461 38 -17 112 -18 1244
-23 l1205 -5 517 -865 518 -865 0 -222 1 -223 -1723 0 -1723 0 -52 -26 c-162
-81 -189 -294 -53 -417 79 -72 -46 -67 1848 -67 l1703 0 -2 -987 c-3 -1103 3
-1012 -74 -1087 -103 -100 -263 -123 -941 -133 l-403 -6 0 -310 0 -310 128 7
c819 41 3155 41 3975 0 l127 -7 0 310 0 310 -402 6 c-548 8 -760 27 -864 78
-55 26 -127 105 -142 157 -9 29 -12 288 -12 1006 l0 966 1703 0 c1894 0 1769
-5 1848 67 136 123 109 336 -53 417 l-52 26 -1723 0 -1723 0 0 219 0 219 519
868 518 869 1204 5 c1132 5 1206 6 1244 23 197 89 205 365 13 461 l-52 26
-1048 0 c-576 0 -1048 2 -1048 5 0 8 1260 2115 1303 2179 59 89 199 223 306
294 295 197 676 299 1199 319 l172 6 0 310 0 309 -82 -6 c-540 -41 -2271 -41
-2970 0 l-108 7 0 -312 0 -311 53 0 c76 0 221 -19 304 -40 166 -43 325 -155
379 -268 39 -81 44 -210 12 -299 -13 -34 -309 -541 -658 -1127 l-635 -1065
-870 0 -870 0 -740 1240 c-407 682 -746 1253 -754 1269 -29 60 17 148 102 192
118 60 389 98 698 98 l139 0 0 311 0 312 -127 -7 c-826 -41 -3117 -41 -3815 0
l-108 7 0 -312z m6030 -3628 c0 -17 -554 -933 -560 -926 -4 4 -131 216 -283
471 l-275 462 559 0 c307 0 559 -3 559 -7z"/>
</g>
</svg>
