<?xml version="1.0" standalone="no"?>
<!DOCTYPE svg PUBLIC "-//W3C//DTD SVG 20010904//EN"
 "http://www.w3.org/TR/2001/REC-SVG-20010904/DTD/svg10.dtd">
<svg version="1.0" xmlns="http://www.w3.org/2000/svg"
 width="1143.000000pt" height="975.000000pt" viewBox="0 0 1143.000000 975.000000"
 preserveAspectRatio="xMidYMid meet">
<metadata>
Created by potrace 1.16, written by Peter Selinger 2001-2019
</metadata>
<g transform="translate(0.000000,975.000000) scale(0.100000,-0.100000)"
fill="#000000" stroke="none">
<path d="M7105 9736 c-268 -63 -484 -246 -681 -578 -226 -382 -350 -758 -426
-1298 -9 -63 -13 -662 -17 -2286 l-6 -2201 -1305 3051 c-718 1678 -1314 3069
-1326 3091 -12 24 -36 49 -60 62 l-39 23 -1297 0 -1298 0 0 -258 0 -259 408
-6 c532 -8 793 -28 954 -73 l58 -17 0 -3441 c0 -2170 -4 -3496 -10 -3591 -36
-533 -154 -940 -350 -1204 -109 -146 -247 -242 -370 -257 l-55 -7 50 40 c198
159 305 385 305 647 0 330 -158 595 -435 732 -137 68 -223 87 -385 87 -162 0
-248 -20 -385 -87 -164 -81 -272 -189 -350 -351 -68 -140 -80 -203 -79 -390 1
-139 4 -173 27 -258 119 -446 501 -785 994 -884 122 -24 364 -25 453 0 103 27
256 108 345 182 304 253 548 728 660 1290 75 372 69 91 75 3605 l5 3156 1705
-3986 c938 -2192 1715 -4006 1727 -4031 37 -74 74 -89 228 -89 147 0 187 14
224 80 l21 38 0 3666 c0 2467 3 3715 11 3814 29 407 111 741 254 1037 137 282
302 448 470 471 l50 7 -50 -40 c-215 -174 -316 -405 -302 -693 7 -141 26 -219
82 -335 78 -162 186 -270 350 -351 137 -67 223 -87 385 -87 162 0 248 20 385
87 164 81 272 189 350 351 67 139 80 202 79 390 -1 140 -4 172 -27 258 -119
444 -502 787 -990 883 -115 22 -336 28 -412 10z"/>
<path d="M9530 7519 c-439 -48 -849 -379 -1095 -884 -133 -272 -205 -532 -236
-852 -17 -174 -7 -519 20 -668 105 -587 404 -1051 836 -1297 529 -302 1168
-165 1589 341 329 395 492 937 456 1515 -23 365 -95 653 -236 945 -252 524
-661 854 -1115 901 -111 11 -111 11 -219 -1z m175 -410 c156 -29 279 -148 358
-346 l31 -78 9 -603 c6 -360 6 -807 1 -1110 l-9 -508 -39 -80 c-51 -103 -138
-192 -233 -237 -64 -30 -75 -32 -178 -32 -105 0 -114 2 -180 34 -95 46 -181
135 -231 237 l-39 78 -3 1039 c-2 630 1 1074 7 1127 21 185 138 370 285 448
26 14 117 38 152 41 6 1 37 -4 69 -10z"/>
<path d="M7952 2850 c-63 -39 -72 -67 -72 -236 0 -140 2 -153 23 -184 12 -18
35 -43 50 -54 l28 -21 1662 0 c1644 0 1662 0 1695 20 18 11 43 36 55 55 20 32
22 48 22 187 0 168 -5 183 -75 231 l-33 22 -1661 0 c-1640 0 -1661 0 -1694
-20z"/>
</g>
</svg>
