<?xml version="1.0" standalone="no"?>
<!DOCTYPE svg PUBLIC "-//W3C//DTD SVG 20010904//EN"
 "http://www.w3.org/TR/2001/REC-SVG-20010904/DTD/svg10.dtd">
<svg version="1.0" xmlns="http://www.w3.org/2000/svg"
 width="576.000000pt" height="954.000000pt" viewBox="0 0 576.000000 954.000000"
 preserveAspectRatio="xMidYMid meet">
<metadata>
Created by potrace 1.16, written by Peter Selinger 2001-2019
</metadata>
<g transform="translate(0.000000,954.000000) scale(0.100000,-0.100000)"
fill="#000000" stroke="none">
<path d="M3430 9534 c-789 -73 -1518 -450 -2114 -1092 -500 -539 -893 -1271
-1110 -2067 -141 -519 -206 -1041 -206 -1657 1 -1468 223 -2532 708 -3383 423
-743 1125 -1228 1910 -1320 147 -17 366 -19 537 -5 592 51 1069 264 1520 679
210 193 437 458 590 691 337 509 485 1051 485 1775 0 884 -211 1497 -734 2132
-107 129 -360 384 -469 472 -327 264 -701 427 -1117 486 -160 23 -450 31 -580
16 -610 -70 -1098 -427 -1445 -1059 l-65 -117 0 135 c0 350 25 817 61 1135
119 1068 487 1839 1114 2337 378 300 850 444 1310 399 369 -36 636 -146 834
-341 61 -61 110 -123 84 -107 -17 11 -181 -13 -251 -37 -107 -37 -178 -81
-258 -160 -80 -80 -131 -166 -166 -276 -33 -108 -33 -312 0 -420 66 -213 220
-368 437 -441 61 -21 89 -24 220 -24 131 0 159 3 220 24 110 37 194 88 271
165 125 126 182 261 191 456 12 269 -50 553 -173 790 -223 429 -649 706 -1224
795 -102 16 -479 28 -580 19z m-190 -3699 c329 -63 559 -210 769 -490 270
-359 358 -697 392 -1493 13 -314 6 -1398 -10 -1602 -46 -556 -130 -856 -319
-1140 -242 -362 -520 -546 -927 -611 -123 -20 -402 -17 -505 5 -461 99 -862
477 -1063 1001 -93 241 -158 664 -197 1275 -15 226 -14 840 0 1006 40 462 145
866 310 1194 256 511 626 807 1085 869 98 14 363 5 465 -14z"/>
</g>
</svg>
