<?xml version="1.0" standalone="no"?>
<!DOCTYPE svg PUBLIC "-//W3C//DTD SVG 20010904//EN"
 "http://www.w3.org/TR/2001/REC-SVG-20010904/DTD/svg10.dtd">
<svg version="1.0" xmlns="http://www.w3.org/2000/svg"
 width="337.000000pt" height="287.000000pt" viewBox="0 0 337.000000 287.000000"
 preserveAspectRatio="xMidYMid meet">
<metadata>
Created by potrace 1.16, written by Peter Selinger 2001-2019
</metadata>
<g transform="translate(0.000000,287.000000) scale(0.100000,-0.100000)"
fill="#000000" stroke="none">
<path d="M1150 2380 l0 -490 49 0 c79 0 249 -20 349 -40 469 -98 751 -357 752
-691 0 -147 -44 -263 -137 -361 -97 -101 -197 -161 -370 -221 -294 -103 -646
-145 -1268 -153 -220 -2 -428 -7 -462 -10 l-63 -6 0 -201 0 -202 397 2 c1011
6 1584 59 2045 189 467 131 771 363 872 664 87 263 50 566 -97 787 -56 84
-187 212 -282 275 -157 103 -421 211 -647 264 l-78 18 0 333 0 333 -530 0
-530 0 0 -490z"/>
</g>
</svg>
