<?xml version="1.0" standalone="no"?>
<!DOCTYPE svg PUBLIC "-//W3C//DTD SVG 20010904//EN"
 "http://www.w3.org/TR/2001/REC-SVG-20010904/DTD/svg10.dtd">
<svg version="1.0" xmlns="http://www.w3.org/2000/svg"
 width="551.000000pt" height="247.000000pt" viewBox="0 0 551.000000 247.000000"
 preserveAspectRatio="xMidYMid meet">
<metadata>
Created by potrace 1.16, written by Peter Selinger 2001-2019
</metadata>
<g transform="translate(0.000000,247.000000) scale(0.100000,-0.100000)"
fill="#000000" stroke="none">
<path d="M155 2456 c-61 -27 -84 -72 -114 -228 -209 -1085 490 -1981 1709
-2188 267 -45 641 -51 910 -15 577 78 1130 285 1600 599 584 390 994 902 1191
1487 52 157 60 233 29 284 -38 61 -79 75 -230 75 -138 0 -179 -9 -214 -48 -10
-12 -38 -81 -62 -153 -114 -341 -291 -601 -579 -849 -913 -785 -2488 -957
-3365 -367 -152 103 -320 289 -395 437 -95 188 -127 428 -89 660 28 174 29
205 4 245 -38 62 -79 75 -232 75 -88 -1 -143 -5 -163 -14z"/>
</g>
</svg>
