<?xml version="1.0" standalone="no"?>
<!DOCTYPE svg PUBLIC "-//W3C//DTD SVG 20010904//EN"
 "http://www.w3.org/TR/2001/REC-SVG-20010904/DTD/svg10.dtd">
<svg version="1.0" xmlns="http://www.w3.org/2000/svg"
 width="812.000000pt" height="956.000000pt" viewBox="0 0 812.000000 956.000000"
 preserveAspectRatio="xMidYMid meet">
<metadata>
Created by potrace 1.16, written by Peter Selinger 2001-2019
</metadata>
<g transform="translate(0.000000,956.000000) scale(0.100000,-0.100000)"
fill="#000000" stroke="none">
<path d="M6370 9550 c-242 -30 -530 -119 -774 -239 -685 -338 -1275 -986
-1586 -1741 -89 -217 -136 -386 -355 -1260 -119 -476 -220 -882 -226 -902
l-10 -38 -487 0 c-486 0 -488 0 -532 -22 -116 -59 -129 -199 -27 -282 l39 -31
459 -3 c290 -2 459 -6 459 -12 0 -6 -93 -381 -206 -835 l-206 -825 -482 0
c-283 0 -495 -4 -515 -10 -61 -17 -121 -95 -121 -158 0 -64 52 -138 113 -161
19 -7 183 -11 473 -11 244 0 444 -3 444 -6 0 -3 -45 -184 -100 -402 -92 -368
-150 -572 -201 -714 l-21 -56 -64 24 c-88 33 -270 80 -389 101 -127 21 -483
24 -595 5 -424 -75 -795 -258 -1066 -527 -119 -117 -202 -232 -275 -380 -137
-279 -153 -485 -52 -678 153 -290 551 -434 1033 -372 270 34 507 109 785 249
290 146 513 307 760 547 l130 127 200 -140 c477 -334 654 -445 899 -564 457
-221 935 -288 1358 -190 225 52 516 180 718 314 526 351 935 906 1110 1506 34
118 36 145 15 187 -30 58 -65 69 -210 69 -192 0 -188 4 -265 -239 -125 -391
-398 -777 -718 -1014 -385 -287 -770 -351 -1277 -212 -294 80 -562 226 -1095
598 -152 106 -287 199 -300 209 l-25 16 28 49 c74 128 200 393 251 526 60 155
114 344 211 735 l57 232 662 0 662 0 44 22 c120 61 118 244 -3 299 -40 18 -76
19 -659 19 -340 0 -618 3 -618 8 0 4 92 379 206 835 l206 827 667 0 666 0 39
23 c63 36 81 68 81 145 0 81 -25 124 -89 153 -39 17 -78 19 -658 19 -340 0
-618 3 -618 6 0 29 504 1993 542 2112 131 411 281 719 485 995 93 126 339 372
453 454 360 257 698 335 1059 246 278 -68 517 -276 651 -566 111 -240 171
-591 153 -896 l-6 -106 -74 3 c-292 13 -581 -204 -662 -498 -57 -203 -22 -371
99 -484 182 -170 490 -166 735 9 173 123 254 290 314 650 46 276 53 628 16
860 -119 754 -535 1237 -1184 1376 -111 23 -406 34 -531 19z m-4600 -8171 c63
-11 154 -30 201 -44 96 -27 249 -84 249 -92 0 -10 -113 -168 -174 -243 -341
-420 -812 -681 -1184 -656 -306 20 -408 288 -227 594 141 239 428 422 720 461
93 12 273 4 415 -20z"/>
</g>
</svg>
