<?xml version="1.0" standalone="no"?>
<!DOCTYPE svg PUBLIC "-//W3C//DTD SVG 20010904//EN"
 "http://www.w3.org/TR/2001/REC-SVG-20010904/DTD/svg10.dtd">
<svg version="1.0" xmlns="http://www.w3.org/2000/svg"
 width="1153.000000pt" height="982.000000pt" viewBox="0 0 1153.000000 982.000000"
 preserveAspectRatio="xMidYMid meet">
<metadata>
Created by potrace 1.16, written by Peter Selinger 2001-2019
</metadata>
<g transform="translate(0.000000,982.000000) scale(0.100000,-0.100000)"
fill="#000000" stroke="none">
<path d="M6539 9799 c-41 -24 -73 -75 -82 -129 -82 -495 -329 -1721 -493
-2450 -382 -1697 -1072 -4292 -1764 -6641 -134 -454 -135 -458 -83 -520 49
-58 57 -59 459 -59 356 0 367 1 405 22 23 13 46 37 58 62 12 24 52 198 97 416
427 2111 1061 4826 1520 6510 207 759 436 1537 669 2274 124 392 128 411 87
465 -10 14 -31 34 -46 45 -26 20 -41 21 -409 23 -374 3 -383 2 -418 -18z"/>
<path d="M2915 7879 c-355 -48 -743 -198 -1075 -416 -964 -635 -1656 -1789
-1817 -3028 -25 -195 -25 -638 0 -810 83 -561 317 -1031 652 -1313 219 -184
442 -293 725 -353 89 -19 136 -23 310 -23 217 0 290 9 486 60 224 58 519 193
744 341 858 565 1516 1571 1754 2683 69 325 81 437 81 795 0 259 -3 341 -18
430 -103 641 -368 1111 -784 1393 -144 98 -357 185 -542 223 -112 23 -404 33
-516 18z m390 -717 c207 -44 382 -134 525 -269 256 -242 380 -596 380 -1082 0
-270 -35 -534 -110 -839 -84 -339 -172 -585 -310 -867 -408 -832 -1057 -1366
-1777 -1460 -532 -70 -968 135 -1180 555 -70 138 -122 336 -143 549 -34 347
27 806 175 1322 184 637 454 1127 830 1505 334 337 718 540 1134 600 127 18
356 11 476 -14z"/>
<path d="M9600 7880 c-703 -99 -1395 -552 -1948 -1278 -466 -611 -768 -1336
-884 -2122 -20 -136 -23 -194 -23 -475 0 -259 3 -341 18 -430 103 -641 368
-1111 784 -1393 84 -57 250 -138 355 -173 341 -114 721 -103 1133 32 400 132
821 399 1179 749 698 681 1154 1605 1283 2595 25 195 25 638 0 810 -83 561
-317 1031 -652 1313 -218 183 -443 294 -720 352 -114 24 -413 35 -525 20z
m298 -706 c361 -53 632 -244 789 -554 94 -185 153 -477 153 -754 -1 -462 -159
-1158 -379 -1666 -246 -565 -635 -1041 -1062 -1298 -529 -317 -1120 -358
-1541 -106 -147 88 -304 257 -382 411 -111 222 -166 485 -166 802 0 270 35
534 110 839 84 339 172 585 310 867 174 356 362 617 626 876 447 436 1036 659
1542 583z"/>
</g>
</svg>
