<?xml version="1.0" standalone="no"?>
<!DOCTYPE svg PUBLIC "-//W3C//DTD SVG 20010904//EN"
 "http://www.w3.org/TR/2001/REC-SVG-20010904/DTD/svg10.dtd">
<svg version="1.0" xmlns="http://www.w3.org/2000/svg"
 width="842.000000pt" height="1162.000000pt" viewBox="0 0 842.000000 1162.000000"
 preserveAspectRatio="xMidYMid meet">
<metadata>
Created by potrace 1.16, written by Peter Selinger 2001-2019
</metadata>
<g transform="translate(0.000000,1162.000000) scale(0.100000,-0.100000)"
fill="#000000" stroke="none">
<path d="M6639 11606 c-53 -19 -105 -53 -132 -87 -12 -16 -1055 -2134 -2317
-4708 -2132 -4345 -2295 -4675 -2298 -4635 -2 24 27 852 63 1840 37 988 64
1812 60 1832 -9 46 -60 97 -111 111 -45 12 -100 1 -133 -27 -11 -9 -408 -458
-881 -997 -597 -681 -865 -993 -876 -1021 -21 -54 -8 -101 46 -174 64 -88 139
-118 213 -86 23 9 160 157 452 490 230 262 420 475 422 473 2 -2 -33 -980 -77
-2173 -44 -1193 -80 -2207 -80 -2253 0 -100 19 -140 82 -172 37 -19 55 -21
172 -17 123 3 134 5 185 33 29 16 65 44 80 62 14 17 1232 2491 2706 5497
l2680 5465 641 1 c718 0 695 -2 779 72 71 62 90 106 90 208 0 102 -19 146 -90
208 -85 75 -48 72 -889 72 -588 -1 -759 -4 -787 -14z"/>
</g>
</svg>
