<?xml version="1.0" standalone="no"?>
<!DOCTYPE svg PUBLIC "-//W3C//DTD SVG 20010904//EN"
 "http://www.w3.org/TR/2001/REC-SVG-20010904/DTD/svg10.dtd">
<svg version="1.0" xmlns="http://www.w3.org/2000/svg"
 width="1320.000000pt" height="1446.000000pt" viewBox="0 0 1320.000000 1446.000000"
 preserveAspectRatio="xMidYMid meet">
<metadata>
Created by potrace 1.16, written by Peter Selinger 2001-2019
</metadata>
<g transform="translate(0.000000,1446.000000) scale(0.100000,-0.100000)"
fill="#000000" stroke="none">
<path d="M8050 14453 c-201 -13 -352 -28 -509 -49 -1248 -167 -2559 -749
-3713 -1646 -541 -421 -1093 -957 -1552 -1508 -1284 -1543 -2086 -3438 -2251
-5320 -22 -249 -30 -752 -16 -1000 68 -1199 429 -2258 1057 -3095 141 -189
242 -304 424 -486 244 -244 433 -399 710 -582 981 -646 2181 -889 3488 -706
1322 184 2744 852 3930 1847 446 373 917 847 1296 1302 1284 1543 2086 3438
2251 5320 22 249 30 752 16 1000 -68 1199 -429 2258 -1057 3095 -141 189 -242
304 -424 486 -244 244 -433 399 -710 582 -677 445 -1455 699 -2325 757 -136 9
-503 11 -615 3z m585 -563 c659 -44 1265 -217 1790 -509 986 -549 1675 -1466
2004 -2666 250 -910 264 -1977 40 -3075 -410 -2008 -1575 -3932 -3211 -5302
-886 -742 -1908 -1293 -2910 -1567 -1314 -361 -2577 -252 -3583 308 -986 549
-1675 1466 -2004 2666 -250 910 -264 1977 -40 3075 410 2008 1575 3932 3211
5302 1121 939 2434 1555 3678 1727 124 17 274 31 470 44 110 8 418 6 555 -3z"/>
<path d="M3409 10359 c-49 -29 -67 -64 -100 -193 -46 -179 -35 -242 50 -286
37 -18 59 -20 239 -20 332 0 663 -25 784 -60 20 -6 47 -19 60 -29 21 -18 23
-26 22 -118 -1 -95 -18 -166 -616 -2553 -672 -2686 -637 -2560 -737 -2660
-103 -103 -295 -135 -866 -147 -425 -8 -405 3 -464 -241 l-34 -139 24 -49 c13
-26 37 -57 52 -68 33 -24 43 -24 577 -7 820 28 1885 23 2725 -10 279 -12 281
-11 323 10 24 12 51 35 60 50 10 16 33 92 51 169 l34 139 -24 49 c-45 90 -37
88 -392 96 -496 10 -736 42 -769 101 -8 13 -12 57 -11 107 1 76 29 197 255
1100 l254 1015 1255 6 c690 4 1272 10 1294 13 22 4 96 14 165 22 910 108 1811
506 2340 1034 275 275 442 571 496 880 24 138 15 351 -19 483 -108 409 -434
760 -932 1002 -339 165 -613 239 -1140 307 -65 8 -752 12 -2505 15 l-2415 3
-36 -21z m4617 -522 c351 -43 592 -121 791 -259 269 -186 339 -473 238 -973
-91 -451 -255 -799 -481 -1020 -203 -200 -571 -366 -971 -440 -309 -57 -329
-58 -1499 -62 l-1082 -4 313 1248 c172 686 323 1275 335 1308 58 151 114 193
290 214 41 5 494 8 1005 6 775 -2 952 -5 1061 -18z"/>
</g>
</svg>
