<?xml version="1.0" standalone="no"?>
<!DOCTYPE svg PUBLIC "-//W3C//DTD SVG 20010904//EN"
 "http://www.w3.org/TR/2001/REC-SVG-20010904/DTD/svg10.dtd">
<svg version="1.0" xmlns="http://www.w3.org/2000/svg"
 width="615.000000pt" height="927.000000pt" viewBox="0 0 615.000000 927.000000"
 preserveAspectRatio="xMidYMid meet">
<metadata>
Created by potrace 1.16, written by Peter Selinger 2001-2019
</metadata>
<g transform="translate(0.000000,927.000000) scale(0.100000,-0.100000)"
fill="#000000" stroke="none">
<path d="M4120 9263 c-424 -41 -700 -118 -1041 -289 -367 -184 -705 -440
-1095 -828 -358 -359 -562 -633 -754 -1016 -207 -414 -376 -988 -447 -1518
-24 -182 -24 -557 0 -712 68 -431 252 -862 512 -1195 127 -162 323 -327 489
-412 343 -174 848 -222 1256 -118 408 103 803 355 1140 725 49 55 90 96 90 91
0 -26 -181 -638 -250 -843 -308 -923 -662 -1530 -1153 -1976 -338 -308 -697
-504 -1042 -568 -130 -25 -406 -25 -547 -1 -233 40 -413 126 -513 246 l-27 31
27 10 c14 5 31 10 36 10 6 0 42 14 81 30 284 121 477 395 495 705 15 254 -134
457 -382 520 -86 22 -253 20 -346 -5 -270 -70 -481 -262 -571 -520 -38 -109
-68 -281 -75 -425 -26 -608 337 -1024 1011 -1160 824 -165 1697 121 2563 840
146 121 469 439 613 605 408 467 727 944 1008 1505 270 540 448 1025 606 1650
233 926 328 1566 329 2200 0 424 -30 683 -119 1034 -96 380 -243 657 -473 895
-269 277 -593 436 -991 485 -77 10 -346 13 -430 4z m290 -544 c282 -45 495
-247 603 -571 97 -289 86 -549 -49 -1243 -56 -287 -130 -624 -149 -684 -8 -25
-35 -129 -60 -231 -91 -376 -233 -765 -399 -1095 -165 -326 -326 -562 -526
-768 -312 -324 -612 -475 -980 -493 -198 -10 -405 28 -528 98 -219 125 -365
392 -379 695 -15 309 64 742 317 1753 271 1080 423 1497 668 1826 91 123 336
365 452 447 117 82 284 166 410 205 191 60 462 87 620 61z"/>
</g>
</svg>
