<?xml version="1.0" standalone="no"?>
<!DOCTYPE svg PUBLIC "-//W3C//DTD SVG 20010904//EN"
 "http://www.w3.org/TR/2001/REC-SVG-20010904/DTD/svg10.dtd">
<svg version="1.0" xmlns="http://www.w3.org/2000/svg"
 width="938.000000pt" height="1115.000000pt" viewBox="0 0 938.000000 1115.000000"
 preserveAspectRatio="xMidYMid meet">
<metadata>
Created by potrace 1.16, written by Peter Selinger 2001-2019
</metadata>
<g transform="translate(0.000000,1115.000000) scale(0.100000,-0.100000)"
fill="#000000" stroke="none">
<path d="M6890 11132 c-19 -9 -44 -31 -56 -49 -14 -21 -58 -178 -125 -448
l-104 -415 -2099 0 -2098 0 -38 -21 c-21 -12 -47 -38 -57 -58 -32 -57 -107
-374 -99 -416 9 -45 57 -101 99 -114 18 -5 181 -12 362 -15 446 -8 674 -32
719 -76 49 -48 98 158 -934 -3972 -668 -2675 -971 -3872 -991 -3914 -34 -73
-95 -139 -152 -164 -105 -47 -332 -69 -772 -76 -181 -3 -344 -10 -362 -15 -66
-21 -86 -59 -138 -271 l-49 -195 25 -48 c13 -27 37 -58 52 -69 28 -21 29 -21
2099 -24 1963 -2 2070 -3 2066 -20 -3 -9 -38 -150 -78 -313 l-74 -296 25 -48
c43 -87 51 -90 279 -93 183 -3 202 -2 238 17 22 11 49 35 60 53 10 18 56 182
101 364 l83 331 241 6 c253 7 385 20 602 62 590 115 1169 389 1669 789 132
106 384 353 501 491 352 417 588 892 676 1359 30 160 37 451 15 606 -68 461
-283 841 -646 1142 -282 234 -736 426 -1145 483 l-49 7 149 38 c432 108 853
295 1225 543 971 648 1434 1610 1200 2493 -202 760 -894 1293 -1831 1409 -68
8 -144 15 -169 15 -82 0 -83 -21 19 384 50 201 91 384 91 407 0 54 -31 104
-81 129 -34 18 -59 20 -226 20 -159 0 -193 -3 -223 -18z m-442 -1544 c-3 -7
-209 -831 -459 -1830 l-454 -1818 -867 0 c-478 0 -868 2 -868 5 0 26 864 3454
880 3491 43 100 101 134 260 153 41 5 398 9 794 10 571 1 717 -2 714 -11z
m795 -43 c133 -44 242 -112 347 -215 102 -99 154 -174 220 -314 101 -211 135
-398 127 -696 -9 -353 -76 -618 -247 -965 -257 -524 -683 -956 -1185 -1200
-148 -72 -301 -133 -311 -123 -4 4 864 3497 881 3545 6 17 46 9 168 -32z
m-2341 -6136 l-505 -2020 -801 4 c-662 3 -810 6 -851 18 l-50 14 2 60 c1 41
150 654 478 1965 262 1048 480 1922 486 1943 l10 37 868 0 869 0 -506 -2021z
m1294 2010 c402 -56 718 -349 862 -800 101 -314 117 -649 51 -1044 -47 -278
-120 -508 -244 -760 -334 -683 -940 -1205 -1590 -1370 -71 -18 -156 -36 -188
-40 -54 -6 -58 -5 -53 12 3 10 228 911 501 2003 273 1092 498 1991 500 1998 5
15 58 15 161 1z"/>
</g>
</svg>
