<?xml version="1.0" standalone="no"?>
<!DOCTYPE svg PUBLIC "-//W3C//DTD SVG 20010904//EN"
 "http://www.w3.org/TR/2001/REC-SVG-20010904/DTD/svg10.dtd">
<svg version="1.0" xmlns="http://www.w3.org/2000/svg"
 width="689.000000pt" height="900.000000pt" viewBox="0 0 689.000000 900.000000"
 preserveAspectRatio="xMidYMid meet">
<metadata>
Created by potrace 1.16, written by Peter Selinger 2001-2019
</metadata>
<g transform="translate(0.000000,900.000000) scale(0.100000,-0.100000)"
fill="#000000" stroke="none">
<path d="M6583 8981 c-37 -17 -101 -98 -543 -688 -326 -434 -508 -668 -518
-667 -10 0 -73 10 -142 22 -250 43 -417 55 -760 56 -259 1 -350 -3 -450 -17
-419 -59 -778 -171 -1175 -367 -470 -231 -787 -460 -1175 -849 -293 -294 -485
-536 -674 -851 -460 -768 -645 -1611 -511 -2335 88 -474 308 -908 613 -1209
l71 -69 -652 -866 c-430 -572 -654 -878 -661 -902 -20 -77 19 -142 119 -198
74 -42 113 -47 168 -23 41 18 92 83 692 881 l647 862 51 -31 c271 -163 633
-287 982 -338 160 -23 615 -22 785 1 388 54 708 152 1040 318 509 255 931 629
1251 1111 102 155 189 310 195 351 6 42 -21 95 -65 124 -32 21 -44 23 -190 23
-206 0 -206 0 -289 -145 -403 -706 -999 -1178 -1654 -1309 -588 -119 -1106 0
-1495 341 -34 30 -82 79 -108 108 l-46 54 1771 2358 c974 1297 1777 2362 1784
2367 18 12 124 -32 209 -87 l62 -40 -38 -13 c-182 -63 -343 -207 -427 -379
-202 -414 1 -790 425 -789 157 0 300 49 442 150 180 128 295 370 309 649 14
269 -100 524 -313 698 -78 64 -227 154 -308 187 -30 12 -55 26 -55 31 0 5 207
284 460 620 333 442 461 620 466 646 14 76 -24 137 -121 192 -72 41 -119 47
-172 22z m-1548 -1747 c88 -9 166 -19 173 -23 9 -5 -494 -683 -1658 -2232
-919 -1223 -1674 -2223 -1678 -2223 -15 4 -73 200 -96 327 -88 476 -33 1012
175 1710 219 734 548 1313 990 1742 417 405 903 655 1384 714 111 14 518 5
710 -15z"/>
</g>
</svg>
