<?xml version="1.0" standalone="no"?>
<!DOCTYPE svg PUBLIC "-//W3C//DTD SVG 20010904//EN"
 "http://www.w3.org/TR/2001/REC-SVG-20010904/DTD/svg10.dtd">
<svg version="1.0" xmlns="http://www.w3.org/2000/svg"
 width="333.000000pt" height="267.000000pt" viewBox="0 0 333.000000 267.000000"
 preserveAspectRatio="xMidYMid meet">
<metadata>
Created by potrace 1.16, written by Peter Selinger 2001-2019
</metadata>
<g transform="translate(0.000000,267.000000) scale(0.100000,-0.100000)"
fill="#000000" stroke="none">
<path d="M485 2656 c-162 -37 -324 -151 -411 -287 -66 -105 -93 -264 -63 -374
16 -60 668 -1864 690 -1911 23 -49 80 -84 137 -84 38 0 244 80 300 116 40 26
62 74 62 135 0 105 -200 2082 -216 2139 -22 75 -39 105 -90 160 -65 69 -162
111 -267 116 -48 2 -107 -2 -142 -10z"/>
<path d="M2605 2656 c-162 -37 -324 -151 -411 -287 -66 -105 -93 -264 -63
-374 16 -60 668 -1864 690 -1911 23 -49 80 -84 137 -84 38 0 244 80 300 116
40 26 62 74 62 135 0 105 -200 2082 -216 2139 -22 75 -39 105 -90 160 -65 69
-162 111 -267 116 -48 2 -107 -2 -142 -10z"/>
</g>
</svg>
