<?xml version="1.0" standalone="no"?>
<!DOCTYPE svg PUBLIC "-//W3C//DTD SVG 20010904//EN"
 "http://www.w3.org/TR/2001/REC-SVG-20010904/DTD/svg10.dtd">
<svg version="1.0" xmlns="http://www.w3.org/2000/svg"
 width="579.000000pt" height="1180.000000pt" viewBox="0 0 579.000000 1180.000000"
 preserveAspectRatio="xMidYMid meet">
<metadata>
Created by potrace 1.16, written by Peter Selinger 2001-2019
</metadata>
<g transform="translate(0.000000,1180.000000) scale(0.100000,-0.100000)"
fill="#000000" stroke="none">
<path d="M3653 11784 c-50 -25 -62 -45 -113 -186 -179 -503 -437 -948 -810
-1398 -133 -161 -449 -477 -610 -610 -567 -470 -1186 -796 -1820 -959 -143
-37 -186 -56 -212 -92 -23 -31 -87 -277 -88 -335 0 -72 71 -144 142 -144 41 0
284 65 463 124 849 281 1633 792 2280 1485 48 52 85 86 82 75 -4 -10 -538
-2145 -1188 -4744 -1096 -4386 -1180 -4730 -1176 -4789 6 -78 40 -131 112
-176 44 -27 56 -30 129 -29 67 0 90 5 132 26 55 29 116 90 140 141 8 18 556
2196 1218 4841 l1202 4809 39 -94 c319 -769 959 -1347 1787 -1614 169 -54 205
-61 251 -46 67 23 90 62 132 230 33 132 36 157 27 190 -20 64 -64 95 -187 130
-1244 362 -1930 1507 -1735 2894 23 166 20 195 -28 239 -55 51 -109 61 -169
32z"/>
</g>
</svg>
