<?xml version="1.0" standalone="no"?>
<!DOCTYPE svg PUBLIC "-//W3C//DTD SVG 20010904//EN"
 "http://www.w3.org/TR/2001/REC-SVG-20010904/DTD/svg10.dtd">
<svg version="1.0" xmlns="http://www.w3.org/2000/svg"
 width="726.000000pt" height="592.000000pt" viewBox="0 0 726.000000 592.000000"
 preserveAspectRatio="xMidYMid meet">
<metadata>
Created by potrace 1.16, written by Peter Selinger 2001-2019
</metadata>
<g transform="translate(0.000000,592.000000) scale(0.100000,-0.100000)"
fill="#000000" stroke="none">
<path d="M1540 5911 c-76 -23 -157 -98 -181 -167 -17 -51 -16 -150 3 -195 8
-19 437 -599 953 -1288 515 -689 933 -1257 928 -1261 -4 -4 -712 -571 -1573
-1260 -861 -688 -1582 -1269 -1602 -1291 -117 -127 -78 -340 78 -419 66 -34
179 -35 239 -3 22 12 748 589 1614 1283 1517 1217 1574 1261 1591 1244 10 -11
426 -566 925 -1234 499 -668 918 -1227 932 -1241 46 -49 110 -74 193 -74 90 1
135 21 197 88 43 47 73 122 73 181 -1 83 -22 113 -974 1385 l-939 1254 24 18
c13 10 730 584 1594 1277 1302 1043 1575 1267 1600 1307 27 44 30 56 30 134 0
76 -3 92 -27 133 -16 25 -45 61 -65 78 -76 62 -204 76 -289 32 -22 -12 -747
-588 -1613 -1282 -1517 -1217 -1574 -1261 -1591 -1244 -10 11 -426 566 -924
1234 -499 668 -926 1232 -948 1252 -61 57 -170 82 -248 59z"/>
</g>
</svg>
