<?xml version="1.0" standalone="no"?>
<!DOCTYPE svg PUBLIC "-//W3C//DTD SVG 20010904//EN"
 "http://www.w3.org/TR/2001/REC-SVG-20010904/DTD/svg10.dtd">
<svg version="1.0" xmlns="http://www.w3.org/2000/svg"
 width="621.000000pt" height="641.000000pt" viewBox="0 0 621.000000 641.000000"
 preserveAspectRatio="xMidYMid meet">
<metadata>
Created by potrace 1.16, written by Peter Selinger 2001-2019
</metadata>
<g transform="translate(0.000000,641.000000) scale(0.100000,-0.100000)"
fill="#000000" stroke="none">
<path d="M3360 6404 c-396 -49 -822 -242 -1200 -544 -145 -116 -404 -378 -534
-540 -116 -145 -301 -418 -383 -565 -259 -465 -431 -977 -510 -1520 -25 -174
-25 -654 0 -814 71 -446 239 -817 489 -1076 200 -209 439 -340 728 -402 121
-26 394 -25 505 1 340 79 653 264 985 582 l96 92 39 -76 c187 -363 576 -596
1030 -619 315 -15 558 77 788 296 305 291 535 791 757 1641 57 219 57 240 0
295 l-31 30 -222 3 c-207 2 -224 1 -254 -17 -18 -11 -38 -33 -46 -48 -8 -15
-38 -120 -66 -233 -225 -884 -412 -1292 -652 -1425 -49 -27 -63 -30 -144 -30
-81 0 -95 3 -138 28 -55 33 -100 96 -122 172 -39 133 -37 361 6 615 11 69 205
862 430 1763 363 1455 409 1646 409 1715 0 215 -118 363 -333 419 -169 43
-406 -23 -548 -154 l-56 -52 -23 32 c-144 196 -366 350 -590 407 -83 21 -319
35 -410 24z m201 -514 c139 -26 278 -143 362 -306 59 -115 110 -266 138 -411
l22 -112 -322 -1288 c-176 -708 -324 -1313 -327 -1343 -8 -65 -44 -125 -196
-328 -190 -254 -436 -482 -623 -579 -127 -65 -212 -88 -335 -88 -99 0 -110 2
-172 33 -213 105 -327 420 -289 802 32 316 101 659 271 1339 143 572 204 794
286 1046 117 357 220 578 355 759 264 355 563 526 830 476z"/>
<path d="M190 501 c-69 -21 -131 -74 -166 -141 -25 -48 -25 -162 0 -210 25
-49 74 -98 121 -123 l40 -22 2340 -3 c1671 -2 2351 0 2380 8 111 31 180 124
180 245 0 117 -59 201 -168 242 -24 9 -604 11 -2367 11 -1284 0 -2346 -3
-2360 -7z"/>
</g>
</svg>
