<?xml version="1.0" standalone="no"?>
<!DOCTYPE svg PUBLIC "-//W3C//DTD SVG 20010904//EN"
 "http://www.w3.org/TR/2001/REC-SVG-20010904/DTD/svg10.dtd">
<svg version="1.0" xmlns="http://www.w3.org/2000/svg"
 width="933.000000pt" height="945.000000pt" viewBox="0 0 933.000000 945.000000"
 preserveAspectRatio="xMidYMid meet">
<metadata>
Created by potrace 1.16, written by Peter Selinger 2001-2019
</metadata>
<g transform="translate(0.000000,945.000000) scale(0.100000,-0.100000)"
fill="#000000" stroke="none">
<path d="M2369 9429 c-20 -12 -46 -38 -57 -58 -32 -58 -104 -373 -96 -417 8
-46 55 -100 97 -113 18 -5 181 -12 362 -15 447 -8 674 -32 719 -76 49 -48 74
61 -624 -2730 -358 -1433 -655 -2622 -661 -2642 l-10 -38 -797 0 -797 0 -50
-24 c-117 -55 -170 -179 -134 -311 7 -26 29 -58 63 -91 87 -87 51 -84 873 -84
392 0 713 -3 713 -7 0 -5 -108 -437 -239 -960 -154 -617 -248 -972 -265 -1007
-33 -68 -95 -132 -149 -156 -105 -47 -332 -69 -772 -76 -181 -3 -344 -10 -362
-15 -66 -21 -86 -60 -137 -265 -51 -208 -51 -233 0 -293 41 -49 66 -52 319
-41 127 5 530 15 897 22 690 12 1613 3 2256 -23 256 -11 276 -10 313 7 22 9
49 30 60 46 22 31 109 354 109 407 0 47 -36 105 -80 130 -35 20 -52 21 -251
21 -384 0 -736 27 -823 64 -28 12 -37 23 -46 56 -6 23 -8 61 -5 84 4 22 117
483 252 1024 l245 982 1227 0 c674 0 1243 3 1264 6 61 11 138 63 172 118 41
67 48 173 15 241 -27 55 -96 118 -148 133 -29 9 -344 12 -1221 12 l-1181 0 7
28 c3 15 50 200 103 412 l96 385 1160 6 c1269 6 1206 3 1540 69 978 194 1897
780 2461 1570 560 785 685 1699 332 2430 -284 588 -853 1003 -1580 1149 -287
58 -121 55 -2734 58 l-2400 3 -36 -21z m4426 -622 c396 -60 641 -160 837 -345
271 -256 332 -618 207 -1234 -38 -187 -153 -652 -214 -863 -208 -716 -495
-1101 -1024 -1369 -286 -145 -591 -225 -976 -256 -121 -10 -1895 -14 -1895 -5
0 26 974 3894 990 3931 43 100 100 134 260 153 41 5 442 8 890 7 697 -2 831
-5 925 -19z"/>
</g>
</svg>
