<?xml version="1.0" standalone="no"?>
<!DOCTYPE svg PUBLIC "-//W3C//DTD SVG 20010904//EN"
 "http://www.w3.org/TR/2001/REC-SVG-20010904/DTD/svg10.dtd">
<svg version="1.0" xmlns="http://www.w3.org/2000/svg"
 width="250.000000pt" height="176.000000pt" viewBox="0 0 250.000000 176.000000"
 preserveAspectRatio="xMidYMid meet">
<metadata>
Created by potrace 1.16, written by Peter Selinger 2001-2019
</metadata>
<g transform="translate(0.000000,176.000000) scale(0.100000,-0.100000)"
fill="#000000" stroke="none">
<path d="M473 1746 c-179 -44 -356 -201 -435 -386 -30 -70 -32 -83 -33 -190 0
-110 1 -118 31 -175 35 -66 110 -142 170 -173 21 -11 469 -200 995 -421 1022
-428 1008 -423 1074 -383 17 11 70 72 119 136 85 111 90 121 94 174 3 47 0 63
-20 91 -27 40 -1606 1248 -1683 1288 -100 52 -204 65 -312 39z"/>
</g>
</svg>
