<?xml version="1.0" standalone="no"?>
<!DOCTYPE svg PUBLIC "-//W3C//DTD SVG 20010904//EN"
 "http://www.w3.org/TR/2001/REC-SVG-20010904/DTD/svg10.dtd">
<svg version="1.0" xmlns="http://www.w3.org/2000/svg"
 width="682.000000pt" height="650.000000pt" viewBox="0 0 682.000000 650.000000"
 preserveAspectRatio="xMidYMid meet">
<metadata>
Created by potrace 1.16, written by Peter Selinger 2001-2019
</metadata>
<g transform="translate(0.000000,650.000000) scale(0.100000,-0.100000)"
fill="#000000" stroke="none">
<path d="M3935 6486 c-16 -7 -40 -24 -52 -37 -13 -14 -249 -604 -562 -1403
-298 -759 -542 -1381 -544 -1382 -2 -2 -594 104 -1316 236 -1454 267 -1359
254 -1420 185 -17 -20 -34 -47 -37 -61 -10 -39 2 -100 25 -132 15 -22 313
-193 1093 -627 590 -329 1074 -598 1075 -599 1 0 -424 -545 -943 -1211 -545
-699 -951 -1227 -960 -1251 -42 -108 69 -226 184 -194 27 7 366 280 1247 1004
914 751 1213 991 1222 983 6 -7 323 -446 703 -977 381 -531 702 -973 714 -982
63 -52 152 -42 210 22 31 35 36 47 36 89 0 34 -105 423 -340 1262 -186 667
-338 1214 -337 1214 1 1 630 275 1397 609 767 334 1405 614 1418 622 56 36 80
131 47 193 -20 40 -68 77 -107 85 -22 4 -515 -75 -1428 -229 -767 -128 -1395
-233 -1396 -232 0 1 64 594 142 1317 79 723 143 1332 144 1354 1 108 -116 186
-215 142z"/>
</g>
</svg>
