<?xml version="1.0" standalone="no"?>
<!DOCTYPE svg PUBLIC "-//W3C//DTD SVG 20010904//EN"
 "http://www.w3.org/TR/2001/REC-SVG-20010904/DTD/svg10.dtd">
<svg version="1.0" xmlns="http://www.w3.org/2000/svg"
 width="578.000000pt" height="658.000000pt" viewBox="0 0 578.000000 658.000000"
 preserveAspectRatio="xMidYMid meet">
<metadata>
Created by potrace 1.16, written by Peter Selinger 2001-2019
</metadata>
<g transform="translate(0.000000,658.000000) scale(0.100000,-0.100000)"
fill="#000000" stroke="none">
<path d="M3490 6573 c-19 -1 -87 -8 -150 -14 -410 -38 -870 -178 -1233 -375
-125 -68 -324 -200 -437 -290 -119 -94 -399 -378 -503 -508 -407 -512 -697
-1124 -921 -1945 -309 -1130 -320 -1933 -36 -2516 121 -248 276 -425 510 -581
700 -466 1970 -458 2904 19 278 142 518 319 751 552 565 565 948 1330 1209
2415 125 517 178 906 178 1295 0 462 -81 810 -261 1128 -302 534 -958 833
-1811 825 -91 -1 -181 -3 -200 -5z m288 -514 c389 -42 680 -209 810 -465 147
-289 92 -756 -249 -2127 -331 -1332 -527 -1927 -737 -2248 -223 -341 -629
-594 -1088 -681 -159 -29 -462 -32 -598 -5 -126 26 -238 63 -336 112 -274 138
-431 372 -447 668 -18 345 86 916 387 2117 246 982 386 1429 554 1775 84 171
156 274 277 393 346 340 899 519 1427 461z"/>
</g>
</svg>
