<?xml version="1.0" standalone="no"?>
<!DOCTYPE svg PUBLIC "-//W3C//DTD SVG 20010904//EN"
 "http://www.w3.org/TR/2001/REC-SVG-20010904/DTD/svg10.dtd">
<svg version="1.0" xmlns="http://www.w3.org/2000/svg"
 width="373.000000pt" height="1328.000000pt" viewBox="0 0 373.000000 1328.000000"
 preserveAspectRatio="xMidYMid meet">
<metadata>
Created by potrace 1.16, written by Peter Selinger 2001-2019
</metadata>
<g transform="translate(0.000000,1328.000000) scale(0.100000,-0.100000)"
fill="#000000" stroke="none">
<path d="M3379 13271 c-61 -19 -137 -80 -165 -133 -7 -14 -304 -1189 -659
-2610 -694 -2773 -658 -2614 -619 -2708 19 -45 78 -106 129 -133 60 -32 173
-31 239 3 58 29 107 84 129 143 9 23 303 1187 653 2587 593 2373 635 2550 631
2612 -5 78 -36 139 -94 188 -62 50 -170 73 -244 51z"/>
<path d="M1460 5609 c-19 -6 -53 -22 -75 -37 -90 -62 -38 126 -741 -2683 -370
-1480 -644 -2593 -644 -2620 0 -100 57 -193 146 -239 66 -34 179 -35 239 -3
52 28 110 88 129 135 9 20 302 1181 652 2580 466 1863 637 2559 637 2603 1 33
-5 78 -12 99 -17 49 -83 121 -135 148 -46 24 -144 32 -196 17z"/>
</g>
</svg>
