<?xml version="1.0" standalone="no"?>
<!DOCTYPE svg PUBLIC "-//W3C//DTD SVG 20010904//EN"
 "http://www.w3.org/TR/2001/REC-SVG-20010904/DTD/svg10.dtd">
<svg version="1.0" xmlns="http://www.w3.org/2000/svg"
 width="594.000000pt" height="170.000000pt" viewBox="0 0 594.000000 170.000000"
 preserveAspectRatio="xMidYMid meet">
<metadata>
Created by potrace 1.16, written by Peter Selinger 2001-2019
</metadata>
<g transform="translate(0.000000,170.000000) scale(0.100000,-0.100000)"
fill="#000000" stroke="none">
<path d="M1935 1689 c-370 -54 -782 -281 -1251 -691 -193 -169 -643 -609 -665
-650 -23 -44 -25 -98 -5 -136 20 -37 164 -176 203 -196 77 -39 119 -21 261
112 409 381 719 602 1008 716 153 60 251 80 399 79 275 0 443 -83 890 -438
322 -257 498 -365 695 -428 526 -170 1092 44 1819 687 63 55 226 210 362 344
276 271 290 291 269 373 -9 36 -28 60 -98 128 -91 87 -130 111 -182 111 -49 0
-84 -24 -204 -137 -404 -384 -778 -638 -1081 -738 -186 -61 -375 -68 -542 -19
-184 53 -321 137 -648 398 -326 260 -500 368 -703 436 -164 55 -360 73 -527
49z"/>
</g>
</svg>
