<?xml version="1.0" standalone="no"?>
<!DOCTYPE svg PUBLIC "-//W3C//DTD SVG 20010904//EN"
 "http://www.w3.org/TR/2001/REC-SVG-20010904/DTD/svg10.dtd">
<svg version="1.0" xmlns="http://www.w3.org/2000/svg"
 width="1360.000000pt" height="976.000000pt" viewBox="0 0 1360.000000 976.000000"
 preserveAspectRatio="xMidYMid meet">
<metadata>
Created by potrace 1.16, written by Peter Selinger 2001-2019
</metadata>
<g transform="translate(0.000000,976.000000) scale(0.100000,-0.100000)"
fill="#000000" stroke="none">
<path d="M1035 9747 c-63 -29 -80 -63 -129 -264 -39 -161 -45 -193 -36 -225
14 -50 53 -94 93 -106 18 -6 149 -13 292 -16 246 -5 422 -21 509 -46 51 -15
83 -52 100 -114 10 -37 27 -384 60 -1241 26 -654 49 -1236 53 -1292 l6 -103
-560 0 -559 0 -52 -26 c-164 -81 -190 -299 -50 -418 76 -66 79 -66 689 -66
l547 0 6 -117 c4 -65 22 -516 41 -1003 19 -487 36 -924 39 -972 l6 -88 -948 0
-947 0 -50 -24 c-117 -55 -171 -181 -133 -310 8 -25 32 -61 63 -93 86 -88 22
-83 1097 -83 l938 0 0 -37 c0 -21 27 -701 60 -1511 66 -1656 54 -1524 141
-1570 43 -23 50 -23 259 -20 l215 3 54 30 c29 16 67 46 85 67 17 20 395 712
841 1537 l809 1501 1072 0 1072 0 6 -113 c4 -61 31 -735 61 -1497 30 -762 58
-1397 61 -1413 8 -37 51 -87 91 -103 24 -10 86 -14 231 -14 230 0 265 8 340
75 43 39 129 193 862 1553 l815 1511 1025 3 1025 3 45 23 c60 32 88 58 115
112 55 109 38 211 -50 297 -32 31 -68 56 -92 62 -25 7 -322 11 -910 11 -480 0
-873 3 -873 8 0 4 263 493 584 1087 l583 1080 634 5 634 5 47 23 c82 41 148
142 148 229 0 90 -60 186 -141 227 l-53 26 -493 0 c-271 0 -493 2 -493 4 0 12
1062 1969 1097 2021 22 33 65 98 96 145 262 399 629 600 1141 626 219 11 225
16 290 280 51 208 51 233 0 293 -38 46 -71 52 -224 41 -74 -5 -314 -15 -532
-22 -416 -13 -1266 -2 -1802 23 -270 13 -296 9 -344 -45 -25 -28 -37 -64 -76
-222 -39 -161 -44 -194 -36 -225 23 -82 79 -119 180 -119 175 0 392 -44 517
-106 90 -45 186 -131 220 -198 49 -96 43 -180 -25 -351 -11 -27 -274 -520
-585 -1095 l-565 -1045 -1175 -3 -1176 -2 -5 52 c-12 113 -99 2465 -92 2491 9
37 74 101 133 130 160 81 444 127 785 127 227 0 236 8 302 277 51 207 51 232
0 292 -41 49 -66 52 -319 41 -127 -5 -533 -15 -902 -22 -693 -12 -1370 -4
-1914 23 -215 11 -229 11 -265 -7 -21 -10 -48 -33 -60 -51 -24 -36 -104 -343
-104 -400 0 -53 30 -104 76 -130 36 -21 52 -23 206 -23 303 0 576 -28 649 -65
33 -18 56 -52 69 -107 5 -23 19 -261 29 -528 l20 -484 -436 -808 -436 -808
-1179 0 -1178 0 0 68 c-1 37 -23 607 -49 1267 l-49 1200 24 38 c90 140 358
211 844 225 248 8 261 11 299 74 23 37 101 343 101 395 0 54 -30 104 -78 131
l-41 23 -243 -10 c-769 -32 -1923 -37 -2538 -11 -510 21 -503 21 -535 7z
m5549 -3185 l8 -222 -145 0 -145 0 132 244 c102 190 132 239 137 222 3 -12 9
-122 13 -244z m-1261 -840 c-32 -59 -296 -550 -588 -1090 l-530 -982 -397 0
-398 0 0 21 c0 22 -77 1971 -83 2092 l-3 67 1029 0 1028 0 -58 -108z m1291 66
c7 -57 87 -2130 83 -2135 -2 -2 -418 -2 -924 -1 l-921 3 587 1087 586 1087
292 1 292 0 5 -42z m3374 33 c-1 -5 -266 -495 -587 -1090 l-584 -1081 -396 0
-397 0 -42 1078 c-24 592 -43 1083 -42 1090 0 9 212 12 1026 12 596 0 1024 -4
1022 -9z m-6101 -2759 c-315 -584 -412 -760 -418 -754 -3 4 -11 160 -18 347
-6 187 -14 373 -17 413 l-6 72 250 0 251 0 -42 -78z m4604 -14 c-27 -51 -131
-244 -230 -428 -100 -184 -181 -333 -181 -330 -8 135 -30 709 -30 768 l0 82
246 0 245 0 -50 -92z"/>
</g>
</svg>
