<?xml version="1.0" standalone="no"?>
<!DOCTYPE svg PUBLIC "-//W3C//DTD SVG 20010904//EN"
 "http://www.w3.org/TR/2001/REC-SVG-20010904/DTD/svg10.dtd">
<svg version="1.0" xmlns="http://www.w3.org/2000/svg"
 width="383.000000pt" height="589.000000pt" viewBox="0 0 383.000000 589.000000"
 preserveAspectRatio="xMidYMid meet">
<metadata>
Created by potrace 1.16, written by Peter Selinger 2001-2019
</metadata>
<g transform="translate(0.000000,589.000000) scale(0.100000,-0.100000)"
fill="#000000" stroke="none">
<path d="M3526 5873 c-16 -8 -82 -68 -146 -132 -579 -580 -1353 -924 -2155
-960 -186 -8 -216 -16 -257 -72 -21 -27 -107 -353 -108 -404 0 -43 30 -96 69
-122 31 -21 45 -23 175 -23 230 0 543 45 806 117 109 29 371 118 413 140 16 8
31 12 33 10 9 -8 -873 -3512 -895 -3559 -30 -63 -94 -134 -143 -159 -95 -49
-300 -70 -753 -78 -481 -8 -453 7 -524 -275 -22 -91 -41 -183 -41 -204 0 -48
32 -98 80 -126 35 -21 38 -21 1770 -21 1651 0 1737 1 1768 18 50 27 66 64 116
264 40 159 45 190 36 223 -13 47 -63 98 -110 109 -19 5 -192 12 -385 14 -442
7 -630 30 -657 81 -30 56 -21 98 596 2563 333 1333 606 2442 606 2464 0 54
-31 104 -81 129 -49 25 -169 27 -213 3z m-401 -5852 c83 -4 -507 -7 -1310 -7
-803 0 -1428 2 -1390 3 424 21 2290 24 2700 4z"/>
</g>
</svg>
