<?xml version="1.0" standalone="no"?>
<!DOCTYPE svg PUBLIC "-//W3C//DTD SVG 20010904//EN"
 "http://www.w3.org/TR/2001/REC-SVG-20010904/DTD/svg10.dtd">
<svg version="1.0" xmlns="http://www.w3.org/2000/svg"
 width="682.000000pt" height="650.000000pt" viewBox="0 0 682.000000 650.000000"
 preserveAspectRatio="xMidYMid meet">
<metadata>
Created by potrace 1.16, written by Peter Selinger 2001-2019
</metadata>
<g transform="translate(0.000000,650.000000) scale(0.100000,-0.100000)"
fill="#000000" stroke="none">
<path d="M3935 6486 c-16 -7 -40 -24 -52 -38 -14 -15 -223 -556 -549 -1418
-289 -767 -529 -1400 -532 -1406 -5 -7 -425 73 -1327 253 -926 184 -1330 261
-1354 256 -40 -7 -94 -52 -111 -93 -18 -44 -7 -114 23 -152 20 -26 273 -165
1121 -618 603 -321 1096 -587 1096 -591 0 -3 -436 -552 -970 -1220 -589 -737
-976 -1230 -986 -1255 -42 -108 69 -226 184 -195 27 8 346 270 1252 1031 668
561 1217 1020 1221 1020 4 0 317 -449 696 -997 378 -549 699 -1008 712 -1020
61 -57 155 -50 215 17 31 35 36 47 36 89 0 36 -101 386 -364 1268 -200 670
-361 1221 -358 1225 4 4 644 275 1422 603 778 328 1425 603 1438 611 78 50 83
173 10 242 -57 52 18 63 -1511 -214 -780 -141 -1420 -255 -1422 -252 -3 2 70
607 160 1344 91 736 165 1354 165 1373 0 104 -119 180 -215 137z"/>
</g>
</svg>
