<?xml version="1.0" standalone="no"?>
<!DOCTYPE svg PUBLIC "-//W3C//DTD SVG 20010904//EN"
 "http://www.w3.org/TR/2001/REC-SVG-20010904/DTD/svg10.dtd">
<svg version="1.0" xmlns="http://www.w3.org/2000/svg"
 width="389.000000pt" height="1384.000000pt" viewBox="0 0 389.000000 1384.000000"
 preserveAspectRatio="xMidYMid meet">
<metadata>
Created by potrace 1.16, written by Peter Selinger 2001-2019
</metadata>
<g transform="translate(0.000000,1384.000000) scale(0.100000,-0.100000)"
fill="#000000" stroke="none">
<path d="M3496 13820 c-63 -25 -129 -89 -155 -150 -26 -61 -1351 -5360 -1351
-5403 0 -152 128 -277 283 -277 111 0 194 49 241 142 18 37 230 867 697 2737
712 2854 679 2711 643 2799 -56 135 -224 207 -358 152z"/>
<path d="M1492 5835 c-55 -24 -106 -70 -135 -122 -40 -74 -1357 -5349 -1357
-5436 0 -209 226 -341 411 -241 57 32 114 98 129 153 49 175 1340 5368 1340
5389 0 97 -71 205 -165 248 -59 28 -169 32 -223 9z"/>
</g>
</svg>
