<?xml version="1.0" standalone="no"?>
<!DOCTYPE svg PUBLIC "-//W3C//DTD SVG 20010904//EN"
 "http://www.w3.org/TR/2001/REC-SVG-20010904/DTD/svg10.dtd">
<svg version="1.0" xmlns="http://www.w3.org/2000/svg"
 width="719.000000pt" height="911.000000pt" viewBox="0 0 719.000000 911.000000"
 preserveAspectRatio="xMidYMid meet">
<metadata>
Created by potrace 1.16, written by Peter Selinger 2001-2019
</metadata>
<g transform="translate(0.000000,911.000000) scale(0.100000,-0.100000)"
fill="#000000" stroke="none">
<path d="M2470 9087 c-101 -31 -172 -71 -247 -141 -70 -65 -124 -146 -154
-233 -11 -32 -481 -1902 -1044 -4156 -1091 -4363 -1042 -4156 -1011 -4275 86
-322 536 -381 812 -107 131 131 107 54 500 1630 191 765 349 1392 350 1394 2
2 39 -19 82 -47 283 -187 626 -285 1042 -299 264 -9 456 19 689 99 339 116
678 348 954 653 50 55 94 101 97 103 3 1 14 -23 24 -55 108 -341 380 -618 722
-733 153 -52 234 -65 414 -65 198 0 278 18 435 95 234 115 425 326 590 651
144 283 251 594 395 1149 68 262 69 279 10 335 l-31 30 -172 3 c-158 2 -175 1
-205 -18 -18 -11 -39 -35 -47 -52 -8 -18 -46 -155 -85 -305 -127 -494 -219
-770 -335 -1008 -83 -169 -132 -243 -226 -337 -106 -108 -161 -133 -289 -133
-86 1 -100 4 -148 29 -121 67 -171 204 -172 473 0 152 19 319 62 523 16 80
259 1062 539 2182 380 1522 509 2052 509 2095 0 114 -44 218 -119 286 -183
165 -504 134 -706 -68 -134 -134 -85 36 -661 -2268 l-512 -2048 -67 -115
c-214 -365 -483 -669 -755 -851 -154 -104 -326 -177 -503 -215 -146 -31 -397
-31 -512 0 -169 46 -324 147 -420 273 -99 131 -168 331 -195 561 -18 149 -8
492 19 668 39 252 72 394 504 2115 412 1647 431 1724 431 1815 1 84 -3 102
-27 155 -38 82 -70 120 -133 162 -109 73 -263 92 -404 50z"/>
</g>
</svg>
