<?xml version="1.0" standalone="no"?>
<!DOCTYPE svg PUBLIC "-//W3C//DTD SVG 20010904//EN"
 "http://www.w3.org/TR/2001/REC-SVG-20010904/DTD/svg10.dtd">
<svg version="1.0" xmlns="http://www.w3.org/2000/svg"
 width="579.000000pt" height="1180.000000pt" viewBox="0 0 579.000000 1180.000000"
 preserveAspectRatio="xMidYMid meet">
<metadata>
Created by potrace 1.16, written by Peter Selinger 2001-2019
</metadata>
<g transform="translate(0.000000,1180.000000) scale(0.100000,-0.100000)"
fill="#000000" stroke="none">
<path d="M4865 11791 c-81 -21 -166 -91 -201 -164 -8 -18 -556 -2196 -1218
-4841 l-1202 -4809 -39 94 c-319 769 -959 1347 -1787 1614 -169 54 -205 61
-251 46 -67 -23 -90 -62 -132 -230 -33 -132 -36 -157 -27 -190 20 -64 64 -95
187 -130 485 -141 925 -427 1219 -792 295 -367 472 -802 531 -1309 22 -181 19
-224 -20 -381 -39 -153 -38 -188 5 -234 l22 -23 -22 -152 c-24 -174 -20 -200
36 -249 41 -36 72 -46 122 -37 78 12 97 39 172 251 32 92 57 145 71 155 84 60
88 66 129 228 34 139 45 165 105 270 327 567 794 1089 1330 1488 489 363 1044
634 1585 773 143 37 186 56 212 92 23 31 87 277 88 335 0 72 -71 144 -142 144
-41 0 -284 -65 -463 -124 -849 -281 -1633 -792 -2280 -1485 -48 -52 -85 -86
-82 -75 4 10 538 2145 1188 4744 1096 4386 1180 4730 1176 4789 -9 117 -97
200 -219 207 -35 2 -76 0 -93 -5z"/>
</g>
</svg>
