<?xml version="1.0" standalone="no"?>
<!DOCTYPE svg PUBLIC "-//W3C//DTD SVG 20010904//EN"
 "http://www.w3.org/TR/2001/REC-SVG-20010904/DTD/svg10.dtd">
<svg version="1.0" xmlns="http://www.w3.org/2000/svg"
 width="489.000000pt" height="476.000000pt" viewBox="0 0 489.000000 476.000000"
 preserveAspectRatio="xMidYMid meet">
<metadata>
Created by potrace 1.16, written by Peter Selinger 2001-2019
</metadata>
<g transform="translate(0.000000,476.000000) scale(0.100000,-0.100000)"
fill="#000000" stroke="none">
<path d="M2765 4753 c-82 -7 -253 -35 -365 -60 -1074 -236 -2040 -1156 -2315
-2206 -64 -243 -79 -364 -79 -617 0 -242 10 -332 61 -525 130 -501 465 -912
927 -1140 611 -301 1399 -267 2131 90 813 398 1455 1159 1670 1978 64 243 79
364 79 617 0 298 -32 483 -125 725 -247 637 -827 1059 -1559 1135 -89 9 -335
11 -425 3z m518 -563 c277 -54 509 -172 687 -350 348 -348 455 -872 296 -1450
-123 -448 -412 -892 -796 -1222 -375 -322 -797 -525 -1255 -604 -156 -27 -466
-25 -612 4 -285 57 -514 173 -693 352 -348 348 -455 872 -296 1450 123 448
412 892 796 1222 383 329 859 553 1285 607 50 6 104 13 120 15 78 11 365 -4
468 -24z"/>
</g>
</svg>
