<?xml version="1.0" standalone="no"?>
<!DOCTYPE svg PUBLIC "-//W3C//DTD SVG 20010904//EN"
 "http://www.w3.org/TR/2001/REC-SVG-20010904/DTD/svg10.dtd">
<svg version="1.0" xmlns="http://www.w3.org/2000/svg"
 width="574.000000pt" height="870.000000pt" viewBox="0 0 574.000000 870.000000"
 preserveAspectRatio="xMidYMid meet">
<metadata>
Created by potrace 1.16, written by Peter Selinger 2001-2019
</metadata>
<g transform="translate(0.000000,870.000000) scale(0.100000,-0.100000)"
fill="#000000" stroke="none">
<path d="M2999 8678 c-53 -30 -75 -77 -94 -203 -84 -554 -227 -1313 -360
-1911 -63 -281 -176 -757 -181 -763 -10 -11 -1176 25 -1785 55 -325 16 -326
16 -366 -5 -23 -11 -50 -35 -61 -53 -10 -18 -50 -156 -87 -306 l-68 -272 17
-45 c20 -52 63 -92 109 -100 18 -4 171 1 342 9 487 24 1432 55 1697 56 l36 0
-64 -252 c-314 -1225 -753 -2815 -1114 -4038 -61 -206 -131 -445 -156 -532
-52 -174 -53 -204 -7 -259 50 -59 53 -59 509 -59 407 0 417 0 455 22 23 13 46
37 58 62 12 24 56 216 106 466 245 1210 582 2730 885 3985 61 253 118 493 127
533 l16 72 251 0 c453 0 1225 -23 1892 -56 320 -16 321 -16 361 5 23 11 50 35
61 53 10 18 50 156 87 306 l68 272 -17 45 c-20 52 -63 92 -109 100 -18 4 -171
-1 -342 -9 -621 -31 -1455 -56 -1873 -56 -198 0 -213 1 -208 18 2 9 39 148 81
307 169 641 379 1339 607 2021 143 428 144 432 91 495 -50 59 -53 59 -510 59
-407 0 -419 -1 -454 -22z"/>
</g>
</svg>
