<?xml version="1.0" standalone="no"?>
<!DOCTYPE svg PUBLIC "-//W3C//DTD SVG 20010904//EN"
 "http://www.w3.org/TR/2001/REC-SVG-20010904/DTD/svg10.dtd">
<svg version="1.0" xmlns="http://www.w3.org/2000/svg"
 width="556.000000pt" height="1336.000000pt" viewBox="0 0 556.000000 1336.000000"
 preserveAspectRatio="xMidYMid meet">
<metadata>
Created by potrace 1.16, written by Peter Selinger 2001-2019
</metadata>
<g transform="translate(0.000000,1336.000000) scale(0.100000,-0.100000)"
fill="#000000" stroke="none">
<path d="M5095 13349 c-365 -29 -758 -115 -1113 -246 -163 -60 -467 -212 -602
-300 -429 -282 -720 -640 -849 -1046 -52 -164 -858 -3404 -875 -3518 -58 -390
57 -759 324 -1042 168 -179 433 -346 688 -434 77 -26 103 -43 67 -43 -28 0
-367 -116 -480 -164 -342 -146 -650 -350 -885 -586 -217 -217 -383 -478 -469
-739 -32 -95 -831 -3276 -872 -3471 -29 -138 -32 -393 -5 -515 55 -249 157
-443 331 -624 134 -140 270 -238 468 -337 338 -170 733 -264 1177 -281 217 -8
242 4 276 129 19 72 18 107 -6 145 -31 51 -59 60 -225 66 -280 11 -490 72
-685 198 -80 51 -218 184 -275 264 -163 228 -226 527 -179 843 22 151 846
3442 890 3556 102 264 243 477 464 696 384 384 900 618 1424 646 168 9 191 24
221 138 20 75 19 105 -5 143 -26 43 -68 63 -135 63 -92 0 -244 19 -352 45
-406 97 -715 365 -832 725 -50 152 -64 368 -36 550 18 122 834 3387 876 3506
86 246 227 462 439 675 393 394 939 628 1468 629 147 0 174 20 207 153 16 62
16 67 -3 109 -29 66 -62 78 -209 77 -65 -1 -167 -6 -228 -10z"/>
</g>
</svg>
