<?xml version="1.0" standalone="no"?>
<!DOCTYPE svg PUBLIC "-//W3C//DTD SVG 20010904//EN"
 "http://www.w3.org/TR/2001/REC-SVG-20010904/DTD/svg10.dtd">
<svg version="1.0" xmlns="http://www.w3.org/2000/svg"
 width="590.000000pt" height="896.000000pt" viewBox="0 0 590.000000 896.000000"
 preserveAspectRatio="xMidYMid meet">
<metadata>
Created by potrace 1.16, written by Peter Selinger 2001-2019
</metadata>
<g transform="translate(0.000000,896.000000) scale(0.100000,-0.100000)"
fill="#000000" stroke="none">
<path d="M4632 8940 c-159 -43 -302 -142 -386 -268 -56 -85 -78 -141 -127
-327 -462 -1743 -1525 -3355 -2924 -4435 -321 -247 -707 -499 -862 -561 -124
-50 -205 -94 -259 -142 -56 -49 -74 -84 -74 -141 0 -42 8 -56 107 -188 159
-211 180 -220 334 -139 52 27 119 54 149 60 195 41 653 65 1100 58 350 -5 507
-21 820 -83 158 -31 849 -199 859 -209 2 -2 -112 -467 -253 -1032 -224 -897
-256 -1038 -256 -1104 0 -128 42 -231 125 -308 157 -144 409 -159 640 -38 116
62 245 208 294 334 10 27 126 479 257 1005 l239 958 165 0 c323 0 620 42 1073
151 144 35 171 45 197 70 32 32 46 83 35 126 -3 16 -56 94 -116 175 -141 188
-142 188 -290 159 -192 -39 -328 -51 -623 -58 -281 -6 -288 -6 -283 13 4 10
146 579 318 1264 346 1381 337 1336 291 1470 -58 171 -201 269 -408 278 -185
8 -341 -54 -480 -193 -143 -141 -121 -73 -465 -1450 -165 -660 -302 -1201
-304 -1203 -2 -2 -165 37 -362 86 -651 164 -950 211 -1352 213 -150 0 -155 1
-132 17 191 132 573 435 819 650 189 165 727 699 878 872 698 797 1203 1604
1557 2485 84 210 217 618 267 819 36 144 42 179 37 236 -12 139 -71 247 -175
317 -81 55 -145 74 -262 79 -73 3 -112 0 -168 -16z"/>
</g>
</svg>
