<?xml version="1.0" standalone="no"?>
<!DOCTYPE svg PUBLIC "-//W3C//DTD SVG 20010904//EN"
 "http://www.w3.org/TR/2001/REC-SVG-20010904/DTD/svg10.dtd">
<svg version="1.0" xmlns="http://www.w3.org/2000/svg"
 width="534.000000pt" height="1384.000000pt" viewBox="0 0 534.000000 1384.000000"
 preserveAspectRatio="xMidYMid meet">
<metadata>
Created by potrace 1.16, written by Peter Selinger 2001-2019
</metadata>
<g transform="translate(0.000000,1384.000000) scale(0.100000,-0.100000)"
fill="#000000" stroke="none">
<path d="M3496 13820 c-63 -25 -129 -89 -155 -150 -11 -26 -767 -3036 -1681
-6689 -1326 -5306 -1660 -6654 -1660 -6704 0 -209 226 -341 411 -241 57 32
114 98 129 153 6 20 760 3035 1676 6701 1389 5558 1664 6671 1658 6705 -23
139 -125 234 -263 242 -49 2 -78 -2 -115 -17z"/>
<path d="M4946 13820 c-63 -25 -129 -89 -155 -150 -11 -26 -767 -3036 -1681
-6689 -1326 -5306 -1660 -6654 -1660 -6704 0 -209 226 -341 411 -241 57 32
114 98 129 153 6 20 760 3035 1676 6701 1389 5558 1664 6671 1658 6705 -23
139 -125 234 -263 242 -49 2 -78 -2 -115 -17z"/>
</g>
</svg>
