<?xml version="1.0" standalone="no"?>
<!DOCTYPE svg PUBLIC "-//W3C//DTD SVG 20010904//EN"
 "http://www.w3.org/TR/2001/REC-SVG-20010904/DTD/svg10.dtd">
<svg version="1.0" xmlns="http://www.w3.org/2000/svg"
 width="540.000000pt" height="206.000000pt" viewBox="0 0 540.000000 206.000000"
 preserveAspectRatio="xMidYMid meet">
<metadata>
Created by potrace 1.16, written by Peter Selinger 2001-2019
</metadata>
<g transform="translate(0.000000,206.000000) scale(0.100000,-0.100000)"
fill="#000000" stroke="none">
<path d="M2805 2049 c-884 -67 -1776 -465 -2313 -1034 -219 -232 -371 -478
-458 -743 -39 -118 -42 -154 -14 -199 38 -63 56 -68 241 -68 154 0 170 2 196
21 33 25 54 64 83 159 28 90 104 236 177 339 79 111 285 315 418 414 542 402
1286 623 2020 599 409 -14 710 -79 1002 -217 357 -170 593 -416 675 -707 27
-94 31 -296 9 -409 -17 -86 -10 -117 33 -160 40 -40 81 -47 255 -43 145 4 171
14 203 80 53 107 72 434 35 606 -101 474 -420 851 -928 1098 -389 188 -830
278 -1343 274 -100 -1 -230 -6 -291 -10z"/>
</g>
</svg>
