<?xml version="1.0" standalone="no"?>
<!DOCTYPE svg PUBLIC "-//W3C//DTD SVG 20010904//EN"
 "http://www.w3.org/TR/2001/REC-SVG-20010904/DTD/svg10.dtd">
<svg version="1.0" xmlns="http://www.w3.org/2000/svg"
 width="172.000000pt" height="166.000000pt" viewBox="0 0 172.000000 166.000000"
 preserveAspectRatio="xMidYMid meet">
<metadata>
Created by potrace 1.16, written by Peter Selinger 2001-2019
</metadata>
<g transform="translate(0.000000,166.000000) scale(0.100000,-0.100000)"
fill="#000000" stroke="none">
<path d="M850 1641 c-468 -99 -842 -532 -843 -976 -1 -198 56 -340 187 -471
95 -94 182 -141 321 -175 217 -52 487 7 708 155 172 114 303 263 388 441 68
141 93 244 93 380 0 127 -17 201 -71 315 -49 103 -167 221 -273 273 -154 75
-333 95 -510 58z"/>
</g>
</svg>
