<?xml version="1.0" standalone="no"?>
<!DOCTYPE svg PUBLIC "-//W3C//DTD SVG 20010904//EN"
 "http://www.w3.org/TR/2001/REC-SVG-20010904/DTD/svg10.dtd">
<svg version="1.0" xmlns="http://www.w3.org/2000/svg"
 width="609.000000pt" height="890.000000pt" viewBox="0 0 609.000000 890.000000"
 preserveAspectRatio="xMidYMid meet">
<metadata>
Created by potrace 1.16, written by Peter Selinger 2001-2019
</metadata>
<g transform="translate(0.000000,890.000000) scale(0.100000,-0.100000)"
fill="#000000" stroke="none">
<path d="M2330 8882 c-20 -10 -42 -32 -52 -52 -26 -53 -1078 -4273 -1078
-4323 0 -54 32 -105 80 -129 49 -25 183 -25 227 0 17 9 74 67 126 127 332 388
760 674 1195 799 286 82 632 108 792 60 192 -57 370 -225 464 -439 149 -336
158 -780 30 -1413 -40 -198 -176 -750 -234 -953 -211 -730 -502 -1248 -905
-1612 -546 -492 -1187 -658 -1730 -446 -459 180 -750 627 -782 1204 l-6 110
99 1 c122 1 201 20 319 78 197 97 331 266 386 486 27 108 23 246 -11 331 -69
177 -244 284 -465 283 -118 -1 -197 -19 -310 -74 -199 -96 -328 -259 -390
-491 -104 -394 -107 -825 -9 -1189 123 -457 404 -826 792 -1037 296 -162 682
-232 1073 -193 1422 142 2761 1355 3134 2840 79 317 108 538 108 845 0 151 -5
259 -17 345 -98 728 -446 1265 -990 1526 -135 65 -259 106 -408 136 -96 19
-145 22 -328 23 -272 0 -453 -25 -700 -97 -277 -80 -573 -229 -832 -420 -51
-37 -93 -66 -95 -64 -3 3 605 2448 610 2453 2 1 58 -16 125 -37 420 -135 908
-164 1382 -84 722 122 1452 501 2016 1046 92 90 102 103 117 158 20 71 21 116
4 150 -17 33 -74 70 -108 70 -15 0 -104 -31 -199 -70 -1145 -465 -2294 -466
-3198 -3 -79 40 -156 73 -170 73 -15 0 -43 -8 -62 -18z"/>
</g>
</svg>
