<?xml version="1.0" standalone="no"?>
<!DOCTYPE svg PUBLIC "-//W3C//DTD SVG 20010904//EN"
 "http://www.w3.org/TR/2001/REC-SVG-20010904/DTD/svg10.dtd">
<svg version="1.0" xmlns="http://www.w3.org/2000/svg"
 width="628.000000pt" height="1338.000000pt" viewBox="0 0 628.000000 1338.000000"
 preserveAspectRatio="xMidYMid meet">
<metadata>
Created by potrace 1.16, written by Peter Selinger 2001-2019
</metadata>
<g transform="translate(0.000000,1338.000000) scale(0.100000,-0.100000)"
fill="#000000" stroke="none">
<path d="M5550 13369 c-13 -5 -90 -74 -170 -152 -80 -78 -179 -170 -220 -203
-234 -190 -501 -354 -761 -467 -384 -167 -749 -252 -1169 -273 -147 -7 -188
-19 -220 -63 -23 -33 -80 -254 -80 -312 0 -89 75 -149 186 -149 90 0 317 19
434 36 293 43 614 134 901 258 l36 15 -477 -1907 c-448 -1794 -479 -1912 -519
-1990 -57 -108 -119 -165 -210 -192 -158 -46 -315 -61 -741 -69 -343 -6 -367
-7 -400 -26 -19 -12 -43 -35 -53 -53 -25 -42 -76 -244 -77 -298 0 -50 31 -100
80 -128 35 -21 38 -21 1770 -21 1651 0 1737 1 1768 18 48 26 67 65 103 211 35
143 35 184 -2 230 -46 59 -53 60 -439 67 -362 7 -518 21 -641 55 -81 23 -93
42 -92 148 1 72 71 361 627 2584 344 1376 626 2521 626 2543 0 89 -72 150
-177 148 -32 0 -69 -5 -83 -10z m-415 -5978 c83 -4 -507 -7 -1310 -7 -803 0
-1428 2 -1390 3 424 21 2290 24 2700 4z"/>
<path d="M1003 6810 c-130 -26 -233 -147 -233 -275 0 -100 70 -207 165 -251
l50 -24 2538 0 c2222 0 2542 2 2573 15 58 24 108 70 140 127 25 46 29 63 29
133 0 70 -4 87 -29 133 -32 57 -81 102 -143 130 -36 16 -188 17 -2543 18
-1378 1 -2524 -2 -2547 -6z"/>
<path d="M4145 6011 c-33 -9 -87 -32 -121 -49 l-60 -33 -65 30 c-194 91 -442
38 -609 -129 -80 -80 -127 -167 -169 -314 -73 -251 -166 -452 -312 -669 -297
-444 -759 -835 -1388 -1177 -296 -160 -725 -340 -1086 -455 -116 -36 -229 -76
-253 -87 -54 -27 -82 -71 -82 -132 0 -57 5 -66 92 -182 77 -102 120 -130 185
-122 21 3 144 38 273 78 282 87 261 87 577 5 345 -89 382 -96 636 -105 332
-14 496 -31 935 -102 144 -23 262 -46 262 -50 0 -4 -115 -467 -255 -1028 -275
-1100 -275 -1100 -240 -1216 93 -314 541 -369 811 -99 123 123 113 92 390
1201 135 538 249 995 254 1015 l10 36 177 7 c271 10 917 74 990 97 40 13 79
58 94 109 16 54 0 92 -90 213 -95 126 -111 133 -272 117 -63 -6 -262 -13 -443
-17 -320 -6 -328 -6 -323 13 4 10 151 597 328 1304 299 1192 322 1291 322
1370 -1 98 -17 151 -69 227 -44 63 -120 118 -203 144 -79 24 -212 25 -296 0z
m-898 -2353 c-82 -332 -153 -606 -157 -611 -3 -4 -132 13 -286 38 -447 72
-757 105 -984 105 l-105 0 150 69 c597 271 1045 555 1425 904 58 53 106 96
106 97 1 0 -66 -271 -149 -602z"/>
</g>
</svg>
