<?xml version="1.0" standalone="no"?>
<!DOCTYPE svg PUBLIC "-//W3C//DTD SVG 20010904//EN"
 "http://www.w3.org/TR/2001/REC-SVG-20010904/DTD/svg10.dtd">
<svg version="1.0" xmlns="http://www.w3.org/2000/svg"
 width="616.000000pt" height="927.000000pt" viewBox="0 0 616.000000 927.000000"
 preserveAspectRatio="xMidYMid meet">
<metadata>
Created by potrace 1.16, written by Peter Selinger 2001-2019
</metadata>
<g transform="translate(0.000000,927.000000) scale(0.100000,-0.100000)"
fill="#000000" stroke="none">
<path d="M4120 9263 c-762 -60 -1421 -405 -2141 -1123 -554 -552 -858 -1094
-1057 -1886 -164 -650 -183 -1087 -67 -1540 46 -177 91 -298 185 -489 130
-263 282 -481 446 -634 301 -281 693 -421 1178 -421 449 0 861 158 1253 479
130 106 320 300 432 440 44 56 81 99 81 95 0 -12 -82 -310 -146 -531 -330
-1140 -726 -1895 -1289 -2458 -232 -232 -465 -404 -715 -529 -311 -154 -586
-208 -910 -177 -366 36 -620 149 -739 328 l-32 47 82 18 c100 22 244 90 319
152 235 195 339 542 231 773 -59 125 -187 224 -327 253 -95 20 -265 9 -359
-24 -196 -67 -345 -197 -440 -386 -65 -129 -112 -399 -102 -594 28 -564 420
-923 1127 -1033 165 -25 562 -25 714 0 597 101 1163 380 1743 862 146 121 469
439 613 605 408 467 727 944 1008 1505 270 540 448 1025 606 1650 233 926 328
1566 329 2200 0 424 -30 683 -119 1034 -96 380 -243 657 -473 895 -269 277
-593 436 -991 485 -78 10 -334 12 -440 4z m324 -443 c312 -46 550 -284 660
-662 95 -329 70 -710 -104 -1583 -28 -137 -57 -268 -65 -290 -8 -22 -28 -103
-45 -180 -112 -507 -317 -1034 -558 -1435 -363 -605 -805 -970 -1290 -1067
-131 -26 -396 -24 -521 5 -111 26 -235 84 -308 144 -73 61 -156 169 -202 263
-205 419 -177 818 150 2127 220 882 323 1202 500 1550 206 403 553 770 909
961 253 135 615 204 874 167z"/>
</g>
</svg>
