<?xml version="1.0" standalone="no"?>
<!DOCTYPE svg PUBLIC "-//W3C//DTD SVG 20010904//EN"
 "http://www.w3.org/TR/2001/REC-SVG-20010904/DTD/svg10.dtd">
<svg version="1.0" xmlns="http://www.w3.org/2000/svg"
 width="876.000000pt" height="937.000000pt" viewBox="0 0 876.000000 937.000000"
 preserveAspectRatio="xMidYMid meet">
<metadata>
Created by potrace 1.16, written by Peter Selinger 2001-2019
</metadata>
<g transform="translate(0.000000,937.000000) scale(0.100000,-0.100000)"
fill="#000000" stroke="none">
<path d="M1900 9348 c-18 -13 -41 -34 -52 -48 -10 -14 -211 -437 -448 -940
-471 -1001 -457 -967 -407 -1041 36 -55 76 -69 195 -69 64 0 115 5 135 14 31
13 87 68 87 86 0 16 287 607 369 760 67 124 156 272 202 333 13 18 158 58 262
73 90 13 230 17 710 21 l597 5 -10 -28 c-17 -43 -157 -298 -233 -424 -281
-461 -561 -826 -1322 -1720 -672 -789 -904 -1082 -1173 -1483 -485 -720 -747
-1377 -803 -2008 -14 -163 -7 -472 16 -619 108 -712 490 -1317 1085 -1719 675
-457 1571 -632 2530 -495 1847 264 3488 1634 3894 3249 73 291 99 513 99 845
0 606 -106 1088 -463 2095 -391 1102 -490 1515 -507 2098 l-6 209 644 -5 c540
-3 660 -7 746 -21 150 -25 176 -36 185 -77 18 -84 28 -466 20 -754 -4 -165 -4
-314 0 -332 11 -40 67 -90 112 -98 19 -4 79 -5 134 -3 117 4 144 17 178 89 21
42 22 76 48 976 26 881 27 934 11 968 -10 19 -32 45 -49 58 l-31 22 -1050 3
c-577 1 -1060 0 -1072 -3 -29 -7 -81 -51 -97 -84 -17 -33 -68 -261 -101 -451
-90 -530 -108 -1168 -55 -1925 6 -82 31 -388 55 -680 56 -667 63 -772 75
-1122 16 -447 -6 -868 -66 -1263 -224 -1467 -999 -2633 -2124 -3196 -790 -395
-1607 -403 -2193 -21 -420 274 -675 701 -764 1277 -28 178 -25 619 5 840 85
624 281 1219 647 1965 184 375 367 704 797 1439 477 814 667 1156 862 1551
248 501 412 916 531 1340 51 181 54 221 16 273 -46 66 19 62 -1139 62 l-1049
0 -33 -22z"/>
</g>
</svg>
