<?xml version="1.0" standalone="no"?>
<!DOCTYPE svg PUBLIC "-//W3C//DTD SVG 20010904//EN"
 "http://www.w3.org/TR/2001/REC-SVG-20010904/DTD/svg10.dtd">
<svg version="1.0" xmlns="http://www.w3.org/2000/svg"
 width="1320.000000pt" height="1446.000000pt" viewBox="0 0 1320.000000 1446.000000"
 preserveAspectRatio="xMidYMid meet">
<metadata>
Created by potrace 1.16, written by Peter Selinger 2001-2019
</metadata>
<g transform="translate(0.000000,1446.000000) scale(0.100000,-0.100000)"
fill="#000000" stroke="none">
<path d="M8050 14453 c-201 -13 -352 -28 -509 -49 -1248 -167 -2559 -749
-3713 -1646 -541 -421 -1093 -957 -1552 -1508 -1284 -1543 -2086 -3438 -2251
-5320 -22 -249 -30 -752 -16 -1000 68 -1199 429 -2258 1057 -3095 141 -189
242 -304 424 -486 244 -244 433 -399 710 -582 981 -646 2181 -889 3488 -706
1322 184 2744 852 3930 1847 446 373 917 847 1296 1302 1284 1543 2086 3438
2251 5320 22 249 30 752 16 1000 -68 1199 -429 2258 -1057 3095 -141 189 -242
304 -424 486 -244 244 -433 399 -710 582 -677 445 -1455 699 -2325 757 -136 9
-503 11 -615 3z m585 -563 c659 -44 1265 -217 1790 -509 986 -549 1675 -1466
2004 -2666 250 -910 264 -1977 40 -3075 -410 -2008 -1575 -3932 -3211 -5302
-886 -742 -1908 -1293 -2910 -1567 -1314 -361 -2577 -252 -3583 308 -986 549
-1675 1466 -2004 2666 -250 910 -264 1977 -40 3075 410 2008 1575 3932 3211
5302 1121 939 2434 1555 3678 1727 124 17 274 31 470 44 110 8 418 6 555 -3z"/>
<path d="M4680 10672 c-20 -9 -43 -32 -53 -52 -22 -44 -687 -2708 -687 -2752
0 -18 9 -48 20 -66 32 -53 69 -62 240 -62 211 0 216 3 281 180 136 372 358
778 596 1092 479 633 1050 1026 1648 1134 147 27 449 25 606 -4 782 -142 1316
-775 1446 -1712 21 -157 24 -591 5 -755 -146 -1223 -790 -2356 -1747 -3076
-656 -492 -1388 -707 -1993 -583 -513 105 -901 490 -1038 1033 -71 279 -72
660 -4 976 25 113 25 152 0 193 -32 53 -69 62 -242 62 -218 0 -229 -9 -272
-200 -42 -190 -58 -338 -58 -550 -1 -384 70 -685 237 -1009 86 -166 176 -290
309 -428 174 -180 313 -284 525 -392 294 -149 603 -226 961 -238 740 -25 1557
240 2355 764 633 416 1264 1011 1664 1567 237 331 432 705 543 1041 173 529
190 1058 52 1585 -136 520 -457 1073 -849 1465 -432 432 -950 692 -1560 781
-170 25 -565 26 -725 1 -582 -90 -1140 -355 -1655 -786 -177 -148 -477 -461
-640 -669 -1 -1 67 296 152 660 84 363 153 673 153 687 0 40 -33 92 -71 113
-45 24 -151 24 -199 0z"/>
</g>
</svg>
