<?xml version="1.0" standalone="no"?>
<!DOCTYPE svg PUBLIC "-//W3C//DTD SVG 20010904//EN"
 "http://www.w3.org/TR/2001/REC-SVG-20010904/DTD/svg10.dtd">
<svg version="1.0" xmlns="http://www.w3.org/2000/svg"
 width="847.000000pt" height="558.000000pt" viewBox="0 0 847.000000 558.000000"
 preserveAspectRatio="xMidYMid meet">
<metadata>
Created by potrace 1.16, written by Peter Selinger 2001-2019
</metadata>
<g transform="translate(0.000000,558.000000) scale(0.100000,-0.100000)"
fill="#000000" stroke="none">
<path d="M5421 5557 c-104 -42 -35 202 -770 -2741 -437 -1749 -660 -2658 -656
-2676 10 -47 61 -97 121 -119 102 -39 212 -20 278 48 l38 39 506 2026 c279
1114 509 2026 512 2026 3 0 72 -541 154 -1202 106 -865 153 -1215 166 -1244
55 -126 280 -154 381 -47 20 21 370 577 779 1236 409 659 745 1196 747 1194 2
-3 -217 -888 -487 -1967 -324 -1294 -489 -1972 -485 -1990 10 -47 61 -97 121
-119 102 -39 212 -20 278 48 l38 39 660 2638 c522 2090 659 2648 655 2682 -9
85 -108 152 -223 152 -58 0 -148 -35 -176 -68 -13 -15 -453 -720 -978 -1566
-550 -886 -956 -1531 -957 -1520 -2 10 -84 678 -183 1484 -99 806 -185 1488
-191 1516 -25 125 -186 190 -328 131z"/>
<path d="M2060 5269 c-242 -25 -457 -95 -613 -201 -196 -133 -341 -337 -437
-613 -41 -121 -121 -424 -161 -610 -30 -143 -37 -349 -15 -449 52 -230 208
-389 460 -465 166 -51 207 -54 941 -61 585 -6 704 -9 780 -24 210 -39 312
-132 346 -312 14 -74 6 -280 -15 -399 -26 -147 -144 -606 -187 -733 -158 -459
-382 -672 -775 -739 -87 -15 -229 -17 -1164 -22 -850 -5 -1071 -9 -1095 -19
-55 -24 -93 -61 -110 -107 -17 -43 -17 -47 0 -91 20 -53 71 -95 137 -113 33
-9 302 -11 1108 -9 1034 4 1069 5 1195 26 350 57 582 169 786 378 219 224 328
463 468 1022 98 393 106 442 106 662 0 166 -2 193 -23 260 -95 304 -319 470
-724 536 -86 14 -219 18 -798 24 -738 8 -773 10 -866 58 -51 26 -78 56 -106
117 -20 45 -23 65 -23 185 1 149 8 190 85 500 58 231 107 378 160 477 131 245
300 353 599 383 63 6 475 10 1066 10 1046 0 1006 -2 1081 55 18 14 40 44 49
70 17 43 17 47 0 90 -9 26 -31 56 -49 70 -75 57 -31 55 -1120 54 -550 -1
-1039 -6 -1086 -10z"/>
</g>
</svg>
