<?xml version="1.0" standalone="no"?>
<!DOCTYPE svg PUBLIC "-//W3C//DTD SVG 20010904//EN"
 "http://www.w3.org/TR/2001/REC-SVG-20010904/DTD/svg10.dtd">
<svg version="1.0" xmlns="http://www.w3.org/2000/svg"
 width="1320.000000pt" height="1446.000000pt" viewBox="0 0 1320.000000 1446.000000"
 preserveAspectRatio="xMidYMid meet">
<metadata>
Created by potrace 1.16, written by Peter Selinger 2001-2019
</metadata>
<g transform="translate(0.000000,1446.000000) scale(0.100000,-0.100000)"
fill="#000000" stroke="none">
<path d="M8050 14453 c-201 -13 -352 -28 -509 -49 -1248 -167 -2559 -749
-3713 -1646 -541 -421 -1093 -957 -1552 -1508 -1284 -1543 -2086 -3438 -2251
-5320 -22 -249 -30 -752 -16 -1000 68 -1199 429 -2258 1057 -3095 141 -189
242 -304 424 -486 244 -244 433 -399 710 -582 981 -646 2181 -889 3488 -706
1322 184 2744 852 3930 1847 446 373 917 847 1296 1302 1284 1543 2086 3438
2251 5320 22 249 30 752 16 1000 -68 1199 -429 2258 -1057 3095 -141 189 -242
304 -424 486 -244 244 -433 399 -710 582 -677 445 -1455 699 -2325 757 -136 9
-503 11 -615 3z m585 -563 c659 -44 1265 -217 1790 -509 986 -549 1675 -1466
2004 -2666 250 -910 264 -1977 40 -3075 -410 -2008 -1575 -3932 -3211 -5302
-886 -742 -1908 -1293 -2910 -1567 -1314 -361 -2577 -252 -3583 308 -986 549
-1675 1466 -2004 2666 -250 910 -264 1977 -40 3075 410 2008 1575 3932 3211
5302 1121 939 2434 1555 3678 1727 124 17 274 31 470 44 110 8 418 6 555 -3z"/>
<path d="M3409 10359 c-49 -29 -67 -64 -100 -193 -46 -179 -35 -242 50 -286
37 -18 59 -20 239 -20 332 0 663 -25 784 -60 20 -6 47 -19 60 -29 21 -18 23
-26 22 -118 -1 -95 -18 -166 -616 -2553 -672 -2686 -637 -2560 -737 -2660
-103 -103 -295 -135 -866 -147 -425 -8 -405 3 -464 -241 l-34 -139 24 -49 c13
-26 37 -57 52 -68 33 -24 43 -24 577 -7 820 28 1885 23 2725 -10 279 -12 281
-11 323 10 24 12 51 35 60 50 10 16 33 92 51 169 l34 139 -24 49 c-45 90 -37
88 -392 96 -496 10 -736 42 -769 101 -8 13 -12 57 -11 107 1 76 31 204 277
1190 152 608 281 1122 287 1143 l10 37 647 0 c700 0 763 -4 911 -54 354 -122
558 -448 511 -820 -6 -49 -67 -313 -135 -585 -68 -273 -129 -533 -135 -579 -8
-51 -10 -143 -7 -240 6 -190 25 -273 96 -417 207 -417 688 -648 1466 -705 383
-28 573 -4 790 100 233 111 487 356 665 640 126 200 293 606 307 746 7 65 -22
122 -77 153 -33 19 -54 21 -174 21 -213 0 -228 -12 -287 -216 -75 -255 -170
-471 -291 -655 -72 -110 -218 -259 -299 -307 -120 -70 -252 -95 -385 -73 -230
39 -321 190 -354 587 -8 88 -10 377 -8 842 3 660 2 713 -16 792 -22 103 -67
233 -109 315 -107 214 -323 433 -549 557 -42 24 -78 45 -78 48 0 3 42 16 93
29 263 67 569 184 847 323 698 348 1103 780 1196 1276 22 118 15 345 -14 455
-157 585 -832 1052 -1752 1211 -360 63 -248 60 -2410 63 l-1975 3 -36 -21z
m3716 -509 c446 -29 716 -115 933 -298 212 -178 240 -504 92 -1053 -109 -402
-265 -668 -493 -840 -98 -74 -342 -195 -489 -243 -209 -68 -431 -107 -713
-126 -82 -5 -427 -10 -766 -10 l-617 0 288 1148 c158 631 298 1174 310 1207
58 151 115 193 290 214 105 12 984 13 1165 1z"/>
</g>
</svg>
