<?xml version="1.0" standalone="no"?>
<!DOCTYPE svg PUBLIC "-//W3C//DTD SVG 20010904//EN"
 "http://www.w3.org/TR/2001/REC-SVG-20010904/DTD/svg10.dtd">
<svg version="1.0" xmlns="http://www.w3.org/2000/svg"
 width="676.000000pt" height="1384.000000pt" viewBox="0 0 676.000000 1384.000000"
 preserveAspectRatio="xMidYMid meet">
<metadata>
Created by potrace 1.16, written by Peter Selinger 2001-2019
</metadata>
<g transform="translate(0.000000,1384.000000) scale(0.100000,-0.100000)"
fill="#000000" stroke="none">
<path d="M3468 13820 c-20 -11 -45 -34 -56 -52 -11 -20 -701 -2759 -1718
-6829 l-1698 -6795 24 -49 c14 -27 38 -58 53 -69 28 -21 33 -21 1598 -24 1547
-2 1570 -2 1608 18 56 28 74 65 117 241 l38 156 -25 48 c-47 96 -6 90 -615 93
-501 2 -535 4 -530 20 3 9 714 2854 1581 6322 867 3468 1580 6322 1586 6343
l10 37 560 0 c537 0 561 1 598 20 56 28 74 65 117 241 l38 156 -25 48 c-13 27
-37 58 -52 69 -28 21 -33 21 -1600 23 -1537 2 -1573 2 -1609 -17z m1398 -557
c-3 -10 -714 -2855 -1581 -6323 -867 -3468 -1580 -6322 -1586 -6342 l-10 -38
-510 0 c-481 0 -510 1 -505 18 3 9 714 2854 1581 6322 867 3468 1580 6322
1586 6343 l10 37 510 0 c481 0 510 -1 505 -17z"/>
</g>
</svg>
