<?xml version="1.0" standalone="no"?>
<!DOCTYPE svg PUBLIC "-//W3C//DTD SVG 20010904//EN"
 "http://www.w3.org/TR/2001/REC-SVG-20010904/DTD/svg10.dtd">
<svg version="1.0" xmlns="http://www.w3.org/2000/svg"
 width="910.000000pt" height="814.000000pt" viewBox="0 0 910.000000 814.000000"
 preserveAspectRatio="xMidYMid meet">
<metadata>
Created by potrace 1.16, written by Peter Selinger 2001-2019
</metadata>
<g transform="translate(0.000000,814.000000) scale(0.100000,-0.100000)"
fill="#000000" stroke="none">
<path d="M5900 8131 c-70 -23 -141 -83 -174 -148 -8 -17 -219 -844 -467 -1837
l-451 -1806 -1814 0 c-1787 0 -1814 0 -1867 -20 -140 -52 -213 -230 -147 -360
33 -66 87 -117 147 -140 53 -20 80 -20 1798 -20 960 0 1745 -2 1745 -5 0 -3
-183 -736 -406 -1630 l-406 -1625 -1814 0 c-1787 0 -1814 0 -1867 -20 -60 -23
-114 -74 -147 -140 -66 -130 7 -308 147 -360 53 -20 82 -20 3893 -20 3811 0
3840 0 3893 20 60 23 114 74 147 140 66 130 -7 308 -147 360 -53 20 -80 20
-1798 20 -1162 0 -1745 3 -1745 10 0 8 766 3080 801 3213 l10 37 1814 0 c1788
0 1815 0 1868 20 60 23 114 74 147 140 66 130 -7 308 -147 360 -53 20 -80 20
-1798 20 -1162 0 -1745 3 -1745 10 0 6 196 794 436 1753 471 1882 451 1792
408 1883 -24 49 -79 105 -129 128 -43 21 -146 30 -185 17z"/>
</g>
</svg>
