<?xml version="1.0" standalone="no"?>
<!DOCTYPE svg PUBLIC "-//W3C//DTD SVG 20010904//EN"
 "http://www.w3.org/TR/2001/REC-SVG-20010904/DTD/svg10.dtd">
<svg version="1.0" xmlns="http://www.w3.org/2000/svg"
 width="525.000000pt" height="604.000000pt" viewBox="0 0 525.000000 604.000000"
 preserveAspectRatio="xMidYMid meet">
<metadata>
Created by potrace 1.16, written by Peter Selinger 2001-2019
</metadata>
<g transform="translate(0.000000,604.000000) scale(0.100000,-0.100000)"
fill="#000000" stroke="none">
<path d="M2886 6029 c-553 -57 -1073 -252 -1475 -551 -53 -40 -152 -129 -221
-198 -236 -237 -385 -492 -456 -786 -38 -153 -37 -310 1 -439 79 -269 258
-445 540 -531 84 -26 102 -28 270 -28 148 0 198 4 285 23 318 68 612 215 842
421 143 129 280 317 354 488 43 101 84 258 84 326 -1 134 -70 291 -182 411
-129 138 -206 177 -278 140 -62 -32 -259 -197 -275 -231 -35 -74 -12 -126 90
-209 39 -31 83 -73 98 -93 25 -33 28 -43 23 -87 -8 -70 -82 -215 -153 -300
-169 -201 -443 -343 -725 -376 -131 -15 -204 -7 -259 30 -232 156 -108 640
249 971 128 119 248 201 417 285 225 112 440 179 700 216 118 18 428 18 525 0
242 -43 421 -142 537 -296 154 -204 161 -477 28 -1021 -24 -100 -58 -217 -74
-260 -92 -237 -293 -492 -557 -704 -287 -231 -638 -430 -1140 -648 -490 -213
-861 -467 -1230 -843 -298 -304 -500 -592 -684 -972 -124 -256 -228 -568 -217
-650 7 -48 47 -93 96 -107 20 -5 116 -10 213 -10 255 0 271 9 322 172 82 269
246 487 427 568 48 22 66 25 174 24 257 -3 427 -75 870 -364 377 -247 547
-327 796 -375 109 -21 350 -21 489 0 610 90 1205 478 1565 1019 129 195 277
542 279 658 1 55 -23 94 -75 120 -29 15 -63 18 -227 18 -251 0 -279 -12 -317
-130 -73 -233 -297 -392 -665 -474 -222 -49 -367 -59 -765 -53 -198 3 -450 13
-560 21 -592 45 -776 57 -1045 68 -162 6 -297 13 -299 15 -7 5 83 95 205 204
224 199 501 388 747 508 56 27 230 104 387 171 1164 497 1752 832 2140 1220
326 325 453 641 437 1080 -11 282 -85 512 -240 748 -279 422 -759 698 -1382
793 -150 23 -543 34 -689 18z"/>
</g>
</svg>
