<?xml version="1.0" standalone="no"?>
<!DOCTYPE svg PUBLIC "-//W3C//DTD SVG 20010904//EN"
 "http://www.w3.org/TR/2001/REC-SVG-20010904/DTD/svg10.dtd">
<svg version="1.0" xmlns="http://www.w3.org/2000/svg"
 width="813.000000pt" height="744.000000pt" viewBox="0 0 813.000000 744.000000"
 preserveAspectRatio="xMidYMid meet">
<metadata>
Created by potrace 1.16, written by Peter Selinger 2001-2019
</metadata>
<g transform="translate(0.000000,744.000000) scale(0.100000,-0.100000)"
fill="#000000" stroke="none">
<path d="M4740 7421 c-351 -77 -653 -334 -781 -665 -86 -222 -79 -460 18 -656
55 -112 188 -243 303 -298 112 -55 182 -73 315 -79 413 -19 838 271 996 681
86 222 79 460 -18 656 -55 112 -188 243 -303 298 -116 57 -184 73 -325 78 -92
3 -140 0 -205 -15z"/>
<path d="M191 3978 c-51 -14 -114 -61 -145 -108 -101 -153 -20 -367 155 -410
31 -7 1159 -10 3884 -8 3795 3 3840 3 3880 23 50 25 105 80 130 130 27 55 27
175 0 230 -25 50 -80 105 -130 130 -40 20 -83 20 -3890 22 -2509 1 -3862 -2
-3884 -9z"/>
<path d="M3310 1701 c-351 -77 -653 -334 -781 -665 -86 -222 -79 -460 18 -656
55 -112 188 -243 303 -298 112 -55 182 -73 315 -79 413 -19 838 271 996 681
86 222 79 460 -18 656 -55 112 -188 243 -303 298 -116 57 -184 73 -325 78 -92
3 -140 0 -205 -15z"/>
</g>
</svg>
