<?xml version="1.0" standalone="no"?>
<!DOCTYPE svg PUBLIC "-//W3C//DTD SVG 20010904//EN"
 "http://www.w3.org/TR/2001/REC-SVG-20010904/DTD/svg10.dtd">
<svg version="1.0" xmlns="http://www.w3.org/2000/svg"
 width="292.000000pt" height="290.000000pt" viewBox="0 0 292.000000 290.000000"
 preserveAspectRatio="xMidYMid meet">
<metadata>
Created by potrace 1.16, written by Peter Selinger 2001-2019
</metadata>
<g transform="translate(0.000000,290.000000) scale(0.100000,-0.100000)"
fill="#000000" stroke="none">
<path d="M2663 2880 c-17 -10 -67 -45 -109 -76 -197 -146 -444 -273 -959 -494
-660 -284 -949 -454 -1204 -711 -183 -185 -328 -418 -371 -599 -68 -286 32
-574 265 -763 287 -233 738 -294 1195 -162 449 129 921 453 1304 895 111 128
116 136 116 193 0 64 -17 94 -85 150 -109 90 -178 87 -267 -11 -390 -428 -712
-620 -1068 -639 -98 -5 -128 -2 -200 16 -169 43 -260 134 -260 260 0 96 28
155 107 227 192 172 584 495 1266 1042 262 210 485 395 494 409 45 68 1 218
-76 261 -48 27 -106 28 -148 2z"/>
</g>
</svg>
