<?xml version="1.0" standalone="no"?>
<!DOCTYPE svg PUBLIC "-//W3C//DTD SVG 20010904//EN"
 "http://www.w3.org/TR/2001/REC-SVG-20010904/DTD/svg10.dtd">
<svg version="1.0" xmlns="http://www.w3.org/2000/svg"
 width="846.000000pt" height="1003.000000pt" viewBox="0 0 846.000000 1003.000000"
 preserveAspectRatio="xMidYMid meet">
<metadata>
Created by potrace 1.16, written by Peter Selinger 2001-2019
</metadata>
<g transform="translate(0.000000,1003.000000) scale(0.100000,-0.100000)"
fill="#000000" stroke="none">
<path d="M6645 10019 c-587 -71 -1183 -376 -1679 -859 -393 -383 -691 -829
-883 -1320 -92 -234 -108 -291 -363 -1310 l-236 -945 -505 -5 c-492 -5 -505
-5 -544 -27 -109 -59 -159 -181 -124 -308 7 -26 29 -58 63 -91 82 -83 88 -84
568 -84 268 0 408 -3 408 -10 0 -8 -347 -1404 -381 -1532 l-10 -38 -486 0
c-346 0 -497 -3 -525 -12 -53 -16 -132 -88 -153 -140 -10 -24 -18 -68 -18 -98
0 -98 47 -177 134 -225 l54 -30 433 -3 c237 -2 432 -5 432 -8 0 -2 -36 -149
-80 -327 -77 -305 -173 -649 -189 -676 -6 -9 -29 -6 -95 13 -390 113 -832 113
-1216 0 -661 -195 -1127 -638 -1236 -1174 -69 -344 149 -649 548 -764 301 -87
745 -45 1164 109 134 49 436 199 562 279 141 89 347 246 461 350 51 47 95 86
97 86 2 0 133 -79 290 -176 363 -223 492 -297 678 -390 558 -277 1089 -366
1576 -262 351 74 736 267 1048 526 426 352 777 888 917 1397 30 108 31 130 7
174 -35 65 -61 71 -293 71 -198 0 -207 -1 -240 -23 -42 -28 -59 -62 -99 -197
-97 -319 -279 -622 -514 -855 -302 -299 -593 -415 -965 -385 -213 17 -366 48
-558 114 -281 95 -497 208 -1061 555 l-233 143 22 37 c121 202 234 446 308
664 26 78 81 271 121 429 l73 288 652 0 c729 0 721 -1 797 68 135 122 110 330
-51 414 l-53 28 -610 0 c-484 0 -609 3 -606 13 3 6 92 362 199 789 l194 777
670 3 670 3 57 28 c90 44 138 123 138 224 -1 98 -50 181 -135 226 -39 22 -49
22 -657 27 l-617 5 254 1010 c269 1069 310 1221 382 1428 214 616 533 1047
966 1307 112 67 277 134 398 162 120 28 364 30 475 5 409 -93 667 -411 759
-935 22 -125 38 -390 30 -477 l-7 -75 -46 0 c-72 0 -208 -37 -297 -80 -250
-121 -416 -351 -457 -636 -57 -397 291 -673 718 -569 80 20 212 79 280 126
112 76 223 215 278 347 50 119 113 419 136 651 15 152 12 486 -5 634 -39 337
-151 657 -316 906 -76 115 -240 287 -347 364 -163 117 -367 205 -580 248 -114
23 -420 33 -547 18z m-4940 -8710 c143 -17 346 -64 437 -100 l28 -11 -48 -61
c-135 -174 -364 -364 -561 -465 -212 -110 -380 -155 -571 -156 -108 -1 -118 1
-162 27 -30 17 -57 44 -74 73 -24 41 -26 52 -22 127 3 69 10 94 41 157 107
220 329 380 582 419 65 10 223 6 350 -10z"/>
</g>
</svg>
