<?xml version="1.0" standalone="no"?>
<!DOCTYPE svg PUBLIC "-//W3C//DTD SVG 20010904//EN"
 "http://www.w3.org/TR/2001/REC-SVG-20010904/DTD/svg10.dtd">
<svg version="1.0" xmlns="http://www.w3.org/2000/svg"
 width="423.000000pt" height="366.000000pt" viewBox="0 0 423.000000 366.000000"
 preserveAspectRatio="xMidYMid meet">
<metadata>
Created by potrace 1.16, written by Peter Selinger 2001-2019
</metadata>
<g transform="translate(0.000000,366.000000) scale(0.100000,-0.100000)"
fill="#000000" stroke="none">
<path d="M944 3649 c-18 -5 -47 -26 -65 -46 -32 -36 -40 -60 -123 -395 -96
-388 -97 -401 -49 -459 53 -63 -53 -59 1659 -59 l1566 0 39 22 c23 13 46 37
59 62 11 23 59 195 105 384 75 300 84 348 75 380 -12 46 -64 99 -111 112 -44
13 -3111 12 -3155 -1z"/>
<path d="M280 961 c-41 -13 -70 -34 -90 -66 -21 -34 -190 -697 -190 -746 0
-45 36 -103 80 -128 l38 -21 1566 0 c1301 0 1572 2 1599 14 70 29 77 48 170
420 48 190 87 363 87 384 0 48 -32 98 -80 126 -35 21 -41 21 -1595 23 -858 1
-1571 -2 -1585 -6z"/>
</g>
</svg>
