<?xml version="1.0" standalone="no"?>
<!DOCTYPE svg PUBLIC "-//W3C//DTD SVG 20010904//EN"
 "http://www.w3.org/TR/2001/REC-SVG-20010904/DTD/svg10.dtd">
<svg version="1.0" xmlns="http://www.w3.org/2000/svg"
 width="1131.000000pt" height="722.000000pt" viewBox="0 0 1131.000000 722.000000"
 preserveAspectRatio="xMidYMid meet">
<metadata>
Created by potrace 1.16, written by Peter Selinger 2001-2019
</metadata>
<g transform="translate(0.000000,722.000000) scale(0.100000,-0.100000)"
fill="#000000" stroke="none">
<path d="M8973 7200 c-62 -37 -72 -75 -85 -316 -27 -513 42 -1038 198 -1517
169 -517 454 -997 815 -1372 l102 -105 -4865 0 c-4322 0 -4870 -2 -4916 -15
-73 -22 -141 -80 -182 -156 -31 -57 -35 -72 -35 -139 1 -108 42 -177 135 -226
34 -18 174 -19 4849 -22 l4815 -2 -115 -78 c-650 -440 -1280 -1052 -1750
-1699 -283 -390 -558 -871 -728 -1275 -46 -110 -50 -142 -21 -199 37 -72 60
-79 258 -79 230 0 233 1 300 160 377 886 1030 1728 1844 2378 465 370 1077
727 1558 909 113 42 164 116 140 202 -10 37 -77 111 -100 111 -19 0 -258 138
-378 218 -333 224 -651 551 -868 894 -89 141 -233 436 -289 593 -162 450 -230
928 -204 1433 12 230 7 255 -60 299 -32 22 -44 23 -210 23 -157 0 -179 -2
-208 -20z"/>
</g>
</svg>
