<?xml version="1.0" standalone="no"?>
<!DOCTYPE svg PUBLIC "-//W3C//DTD SVG 20010904//EN"
 "http://www.w3.org/TR/2001/REC-SVG-20010904/DTD/svg10.dtd">
<svg version="1.0" xmlns="http://www.w3.org/2000/svg"
 width="1269.000000pt" height="1388.000000pt" viewBox="0 0 1269.000000 1388.000000"
 preserveAspectRatio="xMidYMid meet">
<metadata>
Created by potrace 1.16, written by Peter Selinger 2001-2019
</metadata>
<g transform="translate(0.000000,1388.000000) scale(0.100000,-0.100000)"
fill="#000000" stroke="none">
<path d="M7650 13870 c-661 -50 -1300 -200 -1944 -456 -1263 -502 -2430 -1356
-3417 -2499 -877 -1015 -1560 -2257 -1937 -3520 -346 -1155 -439 -2334 -267
-3356 72 -425 168 -777 312 -1144 509 -1292 1456 -2213 2721 -2645 659 -226
1418 -300 2182 -214 1420 161 2907 870 4164 1986 1258 1118 2217 2554 2759
4133 428 1249 561 2564 372 3686 -200 1187 -706 2165 -1490 2883 -699 639
-1573 1022 -2585 1132 -171 18 -700 27 -870 14z m830 -555 c797 -86 1493 -366
2080 -834 718 -574 1227 -1434 1449 -2447 390 -1781 -113 -3964 -1337 -5804
-1053 -1583 -2554 -2797 -4152 -3357 -1001 -351 -2002 -425 -2877 -213 -571
138 -1080 386 -1523 739 -718 574 -1227 1434 -1449 2447 -390 1781 113 3964
1337 5804 1053 1583 2554 2797 4152 3357 508 178 1002 283 1530 323 163 12
618 4 790 -15z"/>
<path d="M3321 9953 c-51 -26 -69 -58 -98 -169 -28 -110 -26 -157 6 -202 39
-55 69 -62 278 -62 350 0 650 -27 760 -68 63 -23 78 -61 69 -176 -8 -95 -1170
-4756 -1216 -4874 -58 -151 -128 -225 -246 -262 -139 -43 -449 -70 -802 -70
-211 0 -228 -4 -274 -59 -17 -19 -34 -65 -52 -136 -30 -122 -26 -162 21 -207
53 -49 56 -49 305 -38 128 5 499 15 823 21 608 12 1393 3 2007 -22 363 -15
363 -15 413 181 30 117 28 153 -12 200 -47 56 -64 60 -275 60 -343 0 -620 24
-738 63 -85 29 -93 43 -86 167 4 82 42 247 283 1210 l279 1115 685 0 684 -1
99 -27 c239 -65 409 -190 514 -377 69 -124 100 -292 82 -448 -5 -49 -64 -305
-129 -568 -66 -264 -125 -516 -131 -562 -19 -126 -8 -377 20 -472 148 -501
621 -779 1425 -839 199 -15 366 -13 470 5 504 88 968 599 1180 1300 41 135 43
169 12 215 -44 66 -77 79 -199 79 -166 0 -200 -26 -243 -185 -63 -235 -176
-490 -293 -666 -186 -278 -393 -418 -619 -419 -237 0 -362 115 -408 377 -31
174 -34 355 -19 928 19 676 16 824 -19 957 -55 209 -150 373 -306 528 -109
107 -208 179 -355 256 -58 31 -94 55 -86 58 8 2 83 23 166 45 714 191 1358
566 1674 972 295 381 349 800 152 1184 -234 455 -849 817 -1604 944 -333 57
-239 54 -2278 58 -1787 3 -1887 2 -1919 -14z m3706 -457 c463 -60 774 -217
887 -447 48 -99 66 -188 66 -339 0 -203 -42 -426 -127 -675 -86 -250 -195
-437 -338 -580 -216 -217 -600 -382 -1031 -444 -233 -34 -405 -41 -1030 -41
l-602 0 283 1128 c156 620 290 1146 299 1170 31 86 80 164 116 187 89 59 156
64 800 60 435 -2 581 -6 677 -19z"/>
</g>
</svg>
