<?xml version="1.0" standalone="no"?>
<!DOCTYPE svg PUBLIC "-//W3C//DTD SVG 20010904//EN"
 "http://www.w3.org/TR/2001/REC-SVG-20010904/DTD/svg10.dtd">
<svg version="1.0" xmlns="http://www.w3.org/2000/svg"
 width="592.000000pt" height="1260.000000pt" viewBox="0 0 592.000000 1260.000000"
 preserveAspectRatio="xMidYMid meet">
<metadata>
Created by potrace 1.16, written by Peter Selinger 2001-2019
</metadata>
<g transform="translate(0.000000,1260.000000) scale(0.100000,-0.100000)"
fill="#000000" stroke="none">
<path d="M4283 12590 c-200 -25 -441 -94 -633 -180 -759 -342 -1380 -1093
-1591 -1924 -70 -276 -94 -489 -86 -766 6 -212 27 -359 76 -546 78 -293 224
-589 409 -824 l50 -64 -71 -39 c-317 -171 -653 -470 -903 -804 -505 -674 -699
-1550 -509 -2304 100 -394 307 -762 590 -1044 192 -191 367 -315 674 -475 311
-161 494 -290 658 -464 282 -298 366 -609 268 -995 -87 -343 -260 -701 -479
-989 -420 -554 -949 -825 -1456 -747 -213 32 -370 113 -512 263 -125 133 -217
337 -230 511 l-3 43 55 14 c207 53 383 227 433 429 26 104 29 149 13 225 -18
86 -49 142 -109 197 -112 103 -264 136 -431 93 -113 -29 -190 -73 -276 -160
-112 -111 -155 -206 -197 -435 -25 -137 -22 -400 6 -532 59 -283 178 -501 377
-694 184 -178 398 -286 696 -351 149 -32 470 -32 638 0 613 115 1184 489 1606
1048 335 445 532 945 585 1492 16 162 6 474 -20 627 -68 395 -225 757 -459
1055 l-50 64 71 39 c317 171 653 470 903 804 505 674 699 1550 509 2304 -100
394 -307 762 -590 1044 -192 191 -367 315 -674 475 -311 161 -494 290 -658
464 -282 298 -366 609 -268 995 87 343 260 701 479 989 420 554 949 825 1456
747 213 -32 370 -113 512 -263 125 -133 217 -337 230 -511 l3 -43 -55 -14
c-207 -53 -383 -227 -433 -429 -26 -104 -29 -149 -13 -225 18 -86 49 -142 109
-197 112 -103 264 -136 431 -93 113 29 190 73 277 160 111 110 153 204 196
435 25 137 22 400 -6 532 -59 283 -178 501 -377 694 -183 177 -401 287 -691
349 -112 24 -408 35 -530 20z m-1404 -4649 c81 -64 245 -164 406 -247 311
-160 475 -274 651 -449 308 -307 397 -625 291 -1035 -165 -636 -586 -1237
-1073 -1530 l-84 -51 -38 29 c-82 65 -246 164 -407 248 -311 160 -475 274
-651 449 -308 307 -397 625 -291 1035 164 632 576 1222 1063 1524 49 31 91 56
93 56 2 0 20 -13 40 -29z"/>
</g>
</svg>
