<?xml version="1.0" standalone="no"?>
<!DOCTYPE svg PUBLIC "-//W3C//DTD SVG 20010904//EN"
 "http://www.w3.org/TR/2001/REC-SVG-20010904/DTD/svg10.dtd">
<svg version="1.0" xmlns="http://www.w3.org/2000/svg"
 width="1104.000000pt" height="894.000000pt" viewBox="0 0 1104.000000 894.000000"
 preserveAspectRatio="xMidYMid meet">
<metadata>
Created by potrace 1.16, written by Peter Selinger 2001-2019
</metadata>
<g transform="translate(0.000000,894.000000) scale(0.100000,-0.100000)"
fill="#000000" stroke="none">
<path d="M2308 8926 c-168 -46 -256 -229 -184 -381 13 -27 253 -356 533 -729
l510 -679 -232 -231 c-470 -469 -775 -891 -1054 -1454 -236 -480 -383 -972
-443 -1487 -20 -172 -17 -649 5 -815 58 -434 192 -842 389 -1182 29 -51 31
-59 18 -72 -8 -8 -410 -330 -893 -715 -942 -752 -924 -737 -947 -848 -43 -207
174 -385 375 -309 36 14 288 211 933 728 l885 709 106 -104 c458 -446 1073
-737 1756 -831 500 -68 1029 -36 1565 95 210 51 530 158 735 245 333 141 716
353 989 547 37 27 72 45 76 40 4 -4 238 -315 519 -691 550 -735 545 -728 653
-751 220 -48 408 193 307 392 -11 21 -250 345 -530 718 -280 373 -509 681
-509 684 0 2 103 107 228 232 467 467 773 889 1051 1451 236 480 383 972 443
1487 20 172 17 649 -5 815 -58 434 -192 842 -389 1182 -20 37 -29 61 -23 66 6
5 404 324 885 709 481 385 889 716 906 735 119 136 61 361 -113 434 -54 24
-158 22 -213 -3 -25 -11 -443 -338 -928 -727 l-884 -707 -106 103 c-459 447
-1074 738 -1757 832 -500 68 -1029 36 -1565 -95 -210 -51 -530 -158 -735 -245
-333 -141 -716 -353 -987 -546 l-68 -48 -508 678 c-280 372 -526 692 -547 711
-68 59 -161 81 -247 57z m4387 -1046 c1057 -89 1845 -647 2186 -1546 113 -300
162 -589 163 -959 1 -242 -9 -358 -50 -595 -162 -946 -761 -1930 -1599 -2631
-1164 -971 -2628 -1336 -3785 -942 -820 279 -1397 931 -1570 1776 -53 264 -72
664 -42 922 53 457 176 875 383 1296 565 1152 1621 2077 2829 2479 340 113
635 172 1015 203 94 8 359 6 470 -3z"/>
</g>
</svg>
