<?xml version="1.0" standalone="no"?>
<!DOCTYPE svg PUBLIC "-//W3C//DTD SVG 20010904//EN"
 "http://www.w3.org/TR/2001/REC-SVG-20010904/DTD/svg10.dtd">
<svg version="1.0" xmlns="http://www.w3.org/2000/svg"
 width="539.000000pt" height="596.000000pt" viewBox="0 0 539.000000 596.000000"
 preserveAspectRatio="xMidYMid meet">
<metadata>
Created by potrace 1.16, written by Peter Selinger 2001-2019
</metadata>
<g transform="translate(0.000000,596.000000) scale(0.100000,-0.100000)"
fill="#000000" stroke="none">
<path d="M3315 5947 c-205 -53 -380 -210 -429 -387 -8 -30 -87 -496 -176
-1035 -88 -539 -164 -989 -169 -1000 -6 -16 -90 63 -575 543 -330 327 -583
570 -605 582 -55 28 -144 39 -219 29 -385 -55 -671 -552 -451 -785 16 -16 358
-228 759 -470 401 -241 729 -441 729 -444 0 -3 -370 -176 -822 -384 -1167
-539 -1118 -515 -1197 -594 -153 -154 -202 -371 -121 -536 84 -170 280 -234
481 -157 31 12 419 263 905 585 468 309 851 562 852 562 1 -1 -153 -464 -342
-1030 -335 -998 -345 -1030 -345 -1105 0 -67 4 -87 31 -139 89 -179 326 -233
557 -127 160 74 276 201 316 345 8 30 87 496 176 1035 88 539 164 989 169
1000 6 16 90 -63 575 -543 330 -327 583 -570 605 -582 55 -28 144 -39 219 -29
385 55 671 552 451 785 -16 16 -358 228 -759 470 -401 241 -729 441 -729 444
0 3 370 176 822 384 1167 539 1118 515 1197 594 153 154 202 371 121 536 -84
170 -280 234 -481 157 -31 -12 -419 -263 -905 -585 -467 -309 -851 -562 -852
-562 -1 1 153 464 342 1030 335 998 345 1030 345 1105 0 67 -4 87 -31 139 -36
72 -94 124 -171 154 -66 25 -203 33 -273 15z"/>
</g>
</svg>
