<?xml version="1.0" standalone="no"?>
<!DOCTYPE svg PUBLIC "-//W3C//DTD SVG 20010904//EN"
 "http://www.w3.org/TR/2001/REC-SVG-20010904/DTD/svg10.dtd">
<svg version="1.0" xmlns="http://www.w3.org/2000/svg"
 width="972.000000pt" height="907.000000pt" viewBox="0 0 972.000000 907.000000"
 preserveAspectRatio="xMidYMid meet">
<metadata>
Created by potrace 1.16, written by Peter Selinger 2001-2019
</metadata>
<g transform="translate(0.000000,907.000000) scale(0.100000,-0.100000)"
fill="#000000" stroke="none">
<path d="M891 9049 c-52 -36 -68 -65 -97 -173 -29 -112 -27 -149 13 -196 46
-55 66 -60 245 -60 305 0 544 -26 664 -72 63 -24 129 -83 166 -149 20 -34 791
-2454 823 -2582 l7 -27 -963 0 c-957 0 -963 0 -1006 -21 -116 -56 -123 -229
-13 -293 35 -21 48 -21 1065 -26 l1029 -5 287 -909 286 -908 -52 -207 -51
-206 -1585 -5 c-1477 -5 -1586 -6 -1616 -22 -68 -38 -105 -119 -84 -188 15
-50 56 -99 98 -116 27 -12 293 -14 1566 -14 l1535 0 -243 -968 c-262 -1044
-269 -1070 -322 -1181 -100 -211 -248 -254 -913 -268 -223 -4 -312 -9 -331
-19 -51 -25 -75 -68 -103 -179 -30 -122 -26 -162 21 -207 53 -49 56 -49 305
-38 128 5 501 15 828 21 612 12 1384 3 2004 -22 261 -11 276 -11 312 7 53 26
78 68 104 174 34 137 18 199 -60 241 -30 17 -59 19 -225 19 -353 0 -652 27
-765 69 -38 14 -47 23 -58 56 -17 49 -11 141 18 280 16 77 443 1795 491 1977
l10 38 1593 2 1594 3 39 31 c102 83 89 223 -27 282 l-44 22 -1533 0 c-1220 0
-1533 3 -1533 13 1 30 99 399 111 417 8 11 343 422 744 914 l730 895 1065 1
c1021 0 1067 1 1107 19 51 24 93 90 93 146 0 55 -35 120 -78 147 l-37 23 -933
5 -933 5 768 942 c422 518 775 945 784 948 9 3 45 40 80 83 162 196 418 423
624 553 294 185 675 299 997 299 69 0 120 20 148 59 27 38 73 227 65 268 -7
39 -46 88 -86 109 -25 12 -51 13 -172 4 -78 -5 -311 -15 -518 -21 -390 -12
-1047 -2 -1532 22 -252 13 -266 11 -315 -46 -20 -22 -36 -59 -50 -118 -27
-107 -28 -162 -2 -204 32 -53 61 -66 173 -74 160 -13 254 -41 328 -99 127
-102 106 -315 -54 -542 -23 -33 -51 -76 -62 -96 -11 -20 -397 -499 -858 -1064
l-839 -1028 -886 2 -885 3 -397 1259 c-375 1188 -396 1261 -388 1304 18 98 85
152 253 205 114 36 202 47 430 54 265 8 280 16 321 174 30 119 31 166 1 210
-44 67 -64 71 -333 59 -892 -37 -1859 -35 -2769 6 -136 6 -141 5 -174 -17z
m4458 -3711 c-50 -62 -274 -337 -498 -610 -248 -305 -408 -493 -412 -485 -8
14 -379 1189 -379 1200 0 4 311 7 691 7 l690 0 -92 -112z"/>
</g>
</svg>
