<?xml version="1.0" standalone="no"?>
<!DOCTYPE svg PUBLIC "-//W3C//DTD SVG 20010904//EN"
 "http://www.w3.org/TR/2001/REC-SVG-20010904/DTD/svg10.dtd">
<svg version="1.0" xmlns="http://www.w3.org/2000/svg"
 width="1162.000000pt" height="975.000000pt" viewBox="0 0 1162.000000 975.000000"
 preserveAspectRatio="xMidYMid meet">
<metadata>
Created by potrace 1.16, written by Peter Selinger 2001-2019
</metadata>
<g transform="translate(0.000000,975.000000) scale(0.100000,-0.100000)"
fill="#000000" stroke="none">
<path d="M8720 9734 c-308 -66 -610 -312 -980 -799 -270 -355 -499 -781 -632
-1176 -22 -68 -267 -1025 -542 -2127 l-501 -2002 -379 2917 c-407 3144 -383
2979 -449 3027 -28 21 -36 21 -1200 24 -1101 2 -1174 1 -1207 -15 -19 -10 -44
-32 -56 -50 -24 -36 -104 -343 -104 -400 0 -52 30 -104 74 -129 35 -20 56 -21
414 -27 366 -7 495 -14 673 -38 l86 -11 -862 -3447 c-475 -1895 -883 -3512
-909 -3592 -184 -588 -431 -977 -734 -1155 l-43 -26 37 49 c50 65 129 232 156
329 31 116 32 312 1 409 -56 176 -187 305 -378 371 -112 38 -289 45 -422 15
-172 -37 -322 -116 -452 -237 -132 -122 -228 -285 -278 -470 -23 -85 -26 -120
-27 -249 -1 -128 3 -162 22 -230 99 -346 376 -583 782 -671 64 -14 127 -18
250 -18 150 0 173 3 255 28 356 107 697 398 1014 866 209 308 387 682 512
1080 23 74 356 1388 739 2920 606 2424 698 2779 703 2740 4 -25 220 -1692 482
-3705 519 -4007 477 -3720 554 -3763 36 -21 52 -22 245 -22 227 0 253 5 297
58 22 26 152 532 942 3693 504 2015 937 3729 963 3809 153 477 381 890 638
1158 105 109 159 152 118 94 -40 -55 -112 -216 -133 -297 -30 -114 -36 -263
-15 -359 47 -207 182 -353 393 -422 81 -27 100 -29 233 -29 111 0 162 4 215
19 425 115 709 469 732 911 18 348 -160 652 -479 824 -210 114 -543 169 -748
125z"/>
<path d="M10455 7695 c-545 -101 -1113 -605 -1465 -1300 -150 -296 -263 -645
-312 -960 -29 -195 -29 -470 1 -639 56 -314 198 -584 393 -745 89 -74 245
-154 353 -182 113 -29 285 -35 407 -15 566 93 1134 578 1472 1256 195 392 291
773 303 1200 10 366 -39 618 -169 872 -133 260 -326 426 -580 498 -97 28 -292
35 -403 15z m136 -510 c138 -49 209 -201 196 -424 -11 -187 -36 -285 -187
-746 -109 -334 -125 -398 -170 -700 -47 -320 -77 -430 -158 -590 -36 -71 -63
-107 -126 -170 -88 -87 -150 -126 -241 -150 -133 -34 -230 -11 -315 73 -86 86
-111 184 -91 349 16 129 48 246 140 506 98 277 127 394 186 751 68 414 126
612 229 786 146 248 364 376 537 315z"/>
<path d="M7823 3090 c-24 -10 -51 -33 -62 -50 -24 -41 -101 -346 -101 -403 0
-54 32 -105 80 -129 33 -17 131 -18 1624 -18 l1588 0 38 21 c21 12 47 38 58
58 28 51 105 375 97 409 -10 50 -44 93 -88 112 -41 19 -85 20 -1617 20 -1532
0 -1576 -1 -1617 -20z"/>
</g>
</svg>
