<?xml version="1.0" standalone="no"?>
<!DOCTYPE svg PUBLIC "-//W3C//DTD SVG 20010904//EN"
 "http://www.w3.org/TR/2001/REC-SVG-20010904/DTD/svg10.dtd">
<svg version="1.0" xmlns="http://www.w3.org/2000/svg"
 width="836.000000pt" height="983.000000pt" viewBox="0 0 836.000000 983.000000"
 preserveAspectRatio="xMidYMid meet">
<metadata>
Created by potrace 1.16, written by Peter Selinger 2001-2019
</metadata>
<g transform="translate(0.000000,983.000000) scale(0.100000,-0.100000)"
fill="#000000" stroke="none">
<path d="M5255 9824 c-201 -19 -279 -29 -400 -50 -677 -118 -1386 -428 -2029
-888 -636 -455 -1218 -1062 -1676 -1746 -911 -1362 -1318 -2996 -1079 -4340
67 -378 179 -720 343 -1050 314 -629 769 -1096 1364 -1398 339 -172 685 -278
1072 -327 265 -34 770 -29 1160 10 1019 105 1882 417 2517 912 277 216 543
495 704 741 62 94 68 127 38 189 -41 81 -58 88 -226 91 -190 5 -202 -1 -286
-117 -445 -622 -1113 -1048 -1977 -1260 -512 -126 -1146 -173 -1540 -116 -486
71 -904 278 -1235 610 -544 547 -770 1373 -670 2446 32 340 91 692 182 1089
31 135 58 255 61 268 l4 22 3194 0 c3489 0 3233 -5 3286 58 59 70 207 814 265
1332 22 198 26 894 5 1060 -132 1067 -576 1760 -1377 2150 -313 153 -608 240
-989 291 -144 19 -600 34 -711 23z m386 -414 c613 -61 1101 -454 1308 -1054
70 -201 121 -443 153 -711 20 -169 17 -787 -5 -990 -41 -372 -101 -734 -183
-1104 -26 -113 -49 -216 -52 -228 l-4 -23 -2584 0 c-1421 0 -2584 3 -2584 7 0
20 131 443 199 645 256 751 558 1343 961 1885 264 354 638 729 965 968 615
450 1254 661 1826 605z"/>
</g>
</svg>
