<?xml version="1.0" standalone="no"?>
<!DOCTYPE svg PUBLIC "-//W3C//DTD SVG 20010904//EN"
 "http://www.w3.org/TR/2001/REC-SVG-20010904/DTD/svg10.dtd">
<svg version="1.0" xmlns="http://www.w3.org/2000/svg"
 width="655.000000pt" height="624.000000pt" viewBox="0 0 655.000000 624.000000"
 preserveAspectRatio="xMidYMid meet">
<metadata>
Created by potrace 1.16, written by Peter Selinger 2001-2019
</metadata>
<g transform="translate(0.000000,624.000000) scale(0.100000,-0.100000)"
fill="#000000" stroke="none">
<path d="M3770 6222 c-19 -9 -44 -31 -55 -48 -11 -16 -242 -635 -514 -1375
-271 -739 -496 -1347 -500 -1352 -4 -4 -574 112 -1266 258 -693 146 -1275 265
-1295 265 -76 0 -140 -69 -140 -151 0 -94 -58 -59 1095 -659 578 -300 1063
-552 1078 -561 l28 -15 -955 -1177 c-592 -730 -959 -1190 -966 -1212 -35 -107
68 -215 178 -186 29 8 313 245 1211 1011 l1173 1001 87 -128 c48 -71 340 -506
650 -968 310 -462 578 -855 595 -873 38 -41 92 -57 144 -43 60 17 112 83 112
144 0 12 -166 555 -369 1207 -203 652 -368 1186 -367 1187 1 1 624 259 1386
573 761 314 1395 580 1408 593 30 27 52 76 52 114 0 72 -72 143 -144 143 -23
-1 -651 -117 -1396 -259 -745 -143 -1356 -257 -1358 -256 -2 2 75 597 172
1324 134 1011 173 1327 166 1352 -26 89 -127 133 -210 91z"/>
</g>
</svg>
