<?xml version="1.0" standalone="no"?>
<!DOCTYPE svg PUBLIC "-//W3C//DTD SVG 20010904//EN"
 "http://www.w3.org/TR/2001/REC-SVG-20010904/DTD/svg10.dtd">
<svg version="1.0" xmlns="http://www.w3.org/2000/svg"
 width="847.000000pt" height="689.000000pt" viewBox="0 0 847.000000 689.000000"
 preserveAspectRatio="xMidYMid meet">
<metadata>
Created by potrace 1.16, written by Peter Selinger 2001-2019
</metadata>
<g transform="translate(0.000000,689.000000) scale(0.100000,-0.100000)"
fill="#000000" stroke="none">
<path d="M1770 6875 c-62 -19 -128 -78 -156 -139 -30 -65 -32 -162 -5 -222 10
-22 519 -710 1130 -1529 l1112 -1489 -23 -22 c-13 -12 -855 -689 -1873 -1504
-1017 -815 -1867 -1499 -1887 -1521 -117 -127 -78 -340 78 -419 66 -34 179
-35 239 -3 28 15 3543 2826 3779 3022 10 9 248 -303 1124 -1477 612 -819 1120
-1496 1129 -1504 10 -9 38 -27 63 -40 62 -32 176 -32 235 -1 89 47 156 154
155 247 -1 84 -19 108 -1144 1616 -610 817 -1113 1490 -1118 1496 -6 8 586
489 1859 1509 1027 824 1883 1512 1901 1529 86 80 110 211 59 312 -70 137
-232 192 -364 122 -24 -13 -884 -698 -1913 -1523 -1028 -825 -1872 -1499
-1875 -1498 -3 1 -499 663 -1102 1470 -602 807 -1112 1485 -1131 1506 -65 68
-173 92 -272 62z"/>
<path d="M4856 6875 c-318 -66 -593 -270 -749 -555 -69 -127 -117 -308 -117
-439 0 -95 35 -235 81 -329 82 -167 258 -308 444 -358 83 -22 259 -29 352 -14
503 81 904 550 880 1030 -10 202 -64 327 -202 465 -74 74 -106 99 -175 132
-47 23 -112 49 -145 58 -84 23 -282 28 -369 10z"/>
<path d="M1720 4304 c-14 -2 -52 -9 -85 -15 -315 -54 -613 -283 -760 -584
-127 -258 -135 -509 -24 -735 34 -68 59 -102 128 -171 131 -130 249 -186 445
-210 75 -9 110 -9 198 4 242 36 441 140 619 324 178 184 275 396 286 629 7
146 -13 247 -74 373 -37 78 -59 109 -127 177 -131 131 -290 198 -491 208 -49
3 -101 3 -115 0z"/>
<path d="M6810 4295 c-503 -79 -916 -560 -887 -1035 7 -115 27 -192 73 -286
102 -208 296 -344 544 -381 100 -15 118 -15 222 -1 169 24 294 71 439 166 356
232 549 670 454 1027 -72 267 -294 464 -576 510 -111 18 -155 18 -269 0z"/>
<path d="M3550 1705 c-266 -59 -508 -220 -665 -440 -59 -82 -130 -232 -157
-331 -28 -105 -31 -308 -5 -404 89 -335 400 -550 760 -527 256 17 491 130 684
330 101 105 148 173 204 292 212 452 27 925 -416 1065 -91 29 -307 37 -405 15z"/>
</g>
</svg>
