<?xml version="1.0" standalone="no"?>
<!DOCTYPE svg PUBLIC "-//W3C//DTD SVG 20010904//EN"
 "http://www.w3.org/TR/2001/REC-SVG-20010904/DTD/svg10.dtd">
<svg version="1.0" xmlns="http://www.w3.org/2000/svg"
 width="876.000000pt" height="937.000000pt" viewBox="0 0 876.000000 937.000000"
 preserveAspectRatio="xMidYMid meet">
<metadata>
Created by potrace 1.16, written by Peter Selinger 2001-2019
</metadata>
<g transform="translate(0.000000,937.000000) scale(0.100000,-0.100000)"
fill="#000000" stroke="none">
<path d="M5415 9359 c-1015 -76 -2035 -503 -2836 -1186 -144 -122 -408 -386
-525 -524 -755 -884 -1060 -1889 -903 -2974 64 -444 183 -856 538 -1860 281
-794 391 -1302 395 -1810 l1 -170 -620 0 c-642 0 -760 6 -883 43 -47 15 -57
22 -64 47 -21 80 -30 346 -23 710 l7 380 -24 35 c-38 57 -77 70 -201 70 -61 0
-118 -5 -130 -11 -38 -20 -76 -61 -86 -93 -5 -17 -22 -450 -37 -962 -31 -1028
-32 -971 34 -1022 l35 -27 1051 -3 c578 -1 1061 0 1073 3 13 3 38 19 58 36 42
37 52 68 105 329 121 594 148 1269 85 2130 -9 113 -33 417 -55 675 -90 1065
-100 1529 -44 2065 155 1495 855 2713 1931 3360 989 594 2052 568 2687 -67
280 -280 444 -642 508 -1123 16 -126 16 -524 0 -675 -74 -665 -288 -1327 -688
-2127 -183 -366 -369 -701 -784 -1408 -647 -1103 -905 -1595 -1135 -2160 -133
-326 -285 -803 -285 -894 0 -53 30 -101 80 -127 33 -18 82 -19 1083 -19 1130
0 1074 -3 1124 52 12 12 218 441 457 951 474 1010 461 976 413 1048 -37 55
-76 69 -200 69 -114 0 -143 -8 -184 -52 -12 -12 -63 -111 -113 -218 -201 -426
-396 -795 -473 -893 -42 -53 -104 -76 -287 -103 -84 -13 -227 -17 -702 -21
-329 -3 -598 -2 -598 3 0 16 144 282 232 427 281 469 567 841 1373 1787 891
1045 1229 1512 1529 2110 446 891 532 1703 259 2461 -81 225 -238 503 -394
696 -83 104 -283 302 -389 386 -209 167 -536 352 -787 445 -477 177 -1053 253
-1608 211z"/>
</g>
</svg>
