<?xml version="1.0" standalone="no"?>
<!DOCTYPE svg PUBLIC "-//W3C//DTD SVG 20010904//EN"
 "http://www.w3.org/TR/2001/REC-SVG-20010904/DTD/svg10.dtd">
<svg version="1.0" xmlns="http://www.w3.org/2000/svg"
 width="624.000000pt" height="198.000000pt" viewBox="0 0 624.000000 198.000000"
 preserveAspectRatio="xMidYMid meet">
<metadata>
Created by potrace 1.16, written by Peter Selinger 2001-2019
</metadata>
<g transform="translate(0.000000,198.000000) scale(0.100000,-0.100000)"
fill="#000000" stroke="none">
<path d="M3155 1970 c-696 -50 -1330 -217 -1888 -496 -652 -327 -1083 -754
-1237 -1224 -34 -105 -36 -129 -14 -176 26 -55 80 -74 207 -74 117 0 175 16
200 53 8 12 24 54 36 92 51 159 137 297 277 444 117 123 209 198 380 311 226
149 519 287 822 389 337 114 665 181 1087 222 172 17 730 18 900 1 585 -58
1010 -192 1372 -431 346 -229 518 -527 474 -821 -7 -41 -14 -91 -18 -111 -8
-54 19 -103 71 -129 35 -16 62 -20 149 -20 118 0 175 16 201 54 45 70 71 341
46 493 -36 226 -155 457 -335 651 -72 77 -229 206 -350 285 -109 71 -395 213
-525 261 -296 108 -632 181 -990 216 -149 15 -710 21 -865 10z"/>
</g>
</svg>
