<?xml version="1.0" standalone="no"?>
<!DOCTYPE svg PUBLIC "-//W3C//DTD SVG 20010904//EN"
 "http://www.w3.org/TR/2001/REC-SVG-20010904/DTD/svg10.dtd">
<svg version="1.0" xmlns="http://www.w3.org/2000/svg"
 width="770.000000pt" height="1115.000000pt" viewBox="0 0 770.000000 1115.000000"
 preserveAspectRatio="xMidYMid meet">
<metadata>
Created by potrace 1.16, written by Peter Selinger 2001-2019
</metadata>
<g transform="translate(0.000000,1115.000000) scale(0.100000,-0.100000)"
fill="#000000" stroke="none">
<path d="M4285 11136 c-68 -30 -74 -46 -161 -392 -45 -179 -84 -327 -86 -329
-2 -2 -75 -25 -163 -50 -595 -173 -1169 -481 -1620 -870 -138 -119 -341 -330
-453 -469 -808 -1005 -845 -2181 -93 -2960 255 -263 578 -469 946 -601 72 -26
131 -48 133 -50 4 -4 -1035 -4155 -1041 -4162 -8 -8 -213 60 -326 108 -347
147 -611 384 -751 673 -88 183 -126 336 -137 552 l-6 131 94 6 c191 13 356 91
489 234 112 120 177 258 201 426 21 152 -26 301 -126 402 -133 133 -362 179
-570 115 -131 -41 -221 -96 -320 -195 -117 -116 -163 -203 -210 -388 -64 -255
-85 -428 -85 -697 0 -212 14 -342 54 -499 172 -678 658 -1135 1449 -1361 92
-27 116 -37 112 -50 -2 -8 -34 -135 -71 -282 -72 -292 -74 -313 -27 -369 43
-50 76 -59 229 -59 153 0 194 13 229 73 10 17 48 150 85 296 l66 266 120 -5
c181 -8 565 -6 690 3 l112 8 -60 -240 c-66 -263 -67 -286 -21 -342 43 -50 76
-59 229 -59 156 0 196 13 231 79 11 20 56 179 99 354 l79 318 40 10 c22 6 120
37 217 69 489 162 930 403 1353 739 145 115 481 448 591 587 409 513 654 1067
713 1616 16 140 13 399 -4 533 -84 639 -437 1186 -996 1540 -124 79 -326 179
-464 230 -55 20 -102 39 -104 41 -2 2 210 856 470 1899 359 1436 477 1895 489
1895 27 0 236 -63 335 -101 231 -89 402 -197 556 -349 113 -112 169 -187 229
-309 68 -136 120 -344 120 -478 l0 -53 -69 0 c-86 0 -220 -37 -316 -88 -92
-49 -238 -192 -289 -283 -200 -363 -93 -713 249 -815 79 -24 236 -23 324 0
206 55 383 193 479 373 104 198 174 643 151 976 -36 549 -295 991 -757 1294
-200 131 -473 247 -753 320 -76 20 -139 40 -139 45 0 5 29 125 65 268 36 143
65 274 65 291 0 45 -36 103 -80 128 -33 19 -54 21 -174 21 -234 0 -230 4 -322
-365 l-69 -277 -45 6 c-104 13 -580 18 -719 7 -79 -6 -146 -9 -149 -7 -2 3 21
107 52 231 31 123 56 239 56 256 0 45 -36 103 -80 128 -34 19 -53 21 -176 21
-93 -1 -149 -5 -169 -14z m972 -1135 c62 -4 115 -10 119 -14 7 -6 -913 -3706
-925 -3719 -8 -9 -844 236 -848 249 -4 11 841 3404 856 3439 8 19 22 22 138
33 70 6 144 13 163 14 68 7 386 6 497 -2z m-1754 -1741 c-218 -872 -399 -1589
-403 -1593 -9 -11 -210 71 -310 126 -559 305 -818 765 -735 1307 106 704 781
1369 1735 1710 58 21 106 37 107 36 1 -1 -176 -715 -394 -1586z m215 -3111
c230 -67 419 -123 421 -125 5 -4 -950 -3827 -959 -3837 -13 -15 -229 -37 -425
-43 -172 -6 -479 7 -492 19 -7 7 1022 4107 1030 4107 5 0 196 -55 425 -121z
m1068 -344 c454 -218 756 -581 851 -1025 28 -131 25 -438 -6 -580 -149 -695
-717 -1342 -1514 -1725 -123 -60 -358 -156 -365 -150 -1 1 197 799 440 1774
418 1671 444 1770 463 1765 11 -3 70 -30 131 -59z"/>
</g>
</svg>
