<?xml version="1.0" standalone="no"?>
<!DOCTYPE svg PUBLIC "-//W3C//DTD SVG 20010904//EN"
 "http://www.w3.org/TR/2001/REC-SVG-20010904/DTD/svg10.dtd">
<svg version="1.0" xmlns="http://www.w3.org/2000/svg"
 width="583.000000pt" height="1384.000000pt" viewBox="0 0 583.000000 1384.000000"
 preserveAspectRatio="xMidYMid meet">
<metadata>
Created by potrace 1.16, written by Peter Selinger 2001-2019
</metadata>
<g transform="translate(0.000000,1384.000000) scale(0.100000,-0.100000)"
fill="#000000" stroke="none">
<path d="M3463 13821 c-44 -28 -58 -53 -82 -148 -26 -102 -26 -139 -1 -181 31
-51 64 -59 265 -65 206 -7 317 -24 464 -73 426 -142 691 -460 730 -877 20
-207 30 -159 -455 -2100 -262 -1049 -458 -1814 -478 -1866 -223 -577 -759
-1062 -1411 -1276 -196 -65 -420 -105 -581 -105 -96 0 -155 -19 -183 -59 -27
-37 -64 -196 -58 -244 5 -39 34 -79 72 -100 11 -6 83 -14 160 -18 166 -9 273
-29 415 -75 427 -137 724 -462 797 -867 19 -110 21 -313 4 -417 -15 -87 -871
-3523 -903 -3620 -27 -85 -103 -247 -158 -335 -211 -344 -574 -649 -974 -819
-249 -107 -475 -155 -766 -163 -190 -6 -217 -11 -253 -51 -19 -21 -66 -186
-67 -232 0 -39 33 -91 71 -113 31 -17 49 -18 219 -13 503 16 1001 116 1450
291 137 53 419 194 537 269 222 139 448 335 586 506 136 169 248 368 317 565
39 112 894 3531 915 3657 8 52 15 157 15 236 0 465 -225 858 -650 1135 -104
67 -316 173 -427 212 -77 27 -104 45 -69 45 8 0 84 22 169 50 375 121 702 286
985 496 129 96 340 297 435 414 142 175 268 399 337 595 40 115 905 3573 920
3683 8 51 10 145 7 250 -6 198 -28 295 -107 460 -81 170 -182 301 -325 421
-388 329 -1000 525 -1705 547 -174 5 -187 4 -217 -15z"/>
</g>
</svg>
