<?xml version="1.0" standalone="no"?>
<!DOCTYPE svg PUBLIC "-//W3C//DTD SVG 20010904//EN"
 "http://www.w3.org/TR/2001/REC-SVG-20010904/DTD/svg10.dtd">
<svg version="1.0" xmlns="http://www.w3.org/2000/svg"
 width="593.000000pt" height="890.000000pt" viewBox="0 0 593.000000 890.000000"
 preserveAspectRatio="xMidYMid meet">
<metadata>
Created by potrace 1.16, written by Peter Selinger 2001-2019
</metadata>
<g transform="translate(0.000000,890.000000) scale(0.100000,-0.100000)"
fill="#000000" stroke="none">
<path d="M3970 8894 c-362 -32 -667 -116 -985 -274 -345 -170 -675 -415 -1034
-765 -320 -314 -537 -597 -712 -930 -211 -402 -372 -925 -445 -1450 -26 -182
-26 -546 0 -700 50 -306 158 -595 328 -875 306 -507 700 -762 1267 -820 527
-53 982 91 1416 447 178 147 400 386 525 568 18 26 34 45 36 42 6 -5 -125
-490 -190 -703 -247 -812 -521 -1392 -891 -1890 -165 -222 -433 -505 -625
-658 -290 -233 -625 -400 -910 -453 -130 -24 -422 -24 -575 1 -300 49 -493
148 -612 315 -29 40 -53 77 -53 82 0 5 19 9 43 9 61 0 181 36 262 78 91 48
219 173 267 262 65 119 83 190 83 325 -1 147 -20 206 -97 290 -95 104 -198
145 -363 145 -178 0 -344 -69 -469 -195 -115 -116 -162 -214 -207 -425 -33
-159 -31 -379 4 -515 113 -431 469 -695 1052 -781 146 -21 438 -29 580 -15
720 70 1485 491 2170 1192 692 709 1231 1601 1571 2603 210 617 413 1541 478
2178 82 793 -1 1520 -229 1994 -132 273 -333 508 -575 671 -76 52 -247 133
-354 168 -182 61 -278 76 -506 80 -113 1 -225 1 -250 -1z m405 -398 c262 -70
470 -294 573 -616 95 -300 93 -602 -8 -1230 -36 -220 -108 -588 -121 -611 -5
-9 -22 -81 -39 -160 -102 -479 -295 -978 -529 -1368 -447 -741 -1023 -1130
-1626 -1098 -410 22 -642 200 -779 594 -48 139 -66 242 -73 408 -10 233 29
542 117 944 56 255 240 987 304 1209 197 680 432 1102 818 1467 307 291 600
431 998 479 74 9 306 -3 365 -18z"/>
</g>
</svg>
