<?xml version="1.0" standalone="no"?>
<!DOCTYPE svg PUBLIC "-//W3C//DTD SVG 20010904//EN"
 "http://www.w3.org/TR/2001/REC-SVG-20010904/DTD/svg10.dtd">
<svg version="1.0" xmlns="http://www.w3.org/2000/svg"
 width="1086.000000pt" height="694.000000pt" viewBox="0 0 1086.000000 694.000000"
 preserveAspectRatio="xMidYMid meet">
<metadata>
Created by potrace 1.16, written by Peter Selinger 2001-2019
</metadata>
<g transform="translate(0.000000,694.000000) scale(0.100000,-0.100000)"
fill="#000000" stroke="none">
<path d="M8630 6922 c-43 -24 -69 -58 -81 -108 -16 -67 -23 -525 -10 -699 65
-897 395 -1670 971 -2277 l92 -98 -4689 -2 -4688 -3 -46 -21 c-108 -50 -179
-157 -179 -271 0 -102 39 -170 125 -216 l40 -22 4618 -5 4619 -5 -109 -75
c-550 -378 -1080 -874 -1499 -1400 -353 -444 -671 -975 -878 -1467 -46 -110
-28 -191 54 -234 29 -16 58 -19 183 -19 214 0 225 7 302 185 222 517 581 1072
984 1525 618 694 1450 1281 2266 1600 81 31 109 53 130 96 35 74 2 164 -72
199 -84 40 -294 161 -388 226 -671 457 -1110 1154 -1250 1984 -46 274 -60 555
-45 907 5 106 3 119 -16 144 -48 65 -61 69 -237 72 -143 2 -166 1 -197 -16z"/>
</g>
</svg>
