<?xml version="1.0" standalone="no"?>
<!DOCTYPE svg PUBLIC "-//W3C//DTD SVG 20010904//EN"
 "http://www.w3.org/TR/2001/REC-SVG-20010904/DTD/svg10.dtd">
<svg version="1.0" xmlns="http://www.w3.org/2000/svg"
 width="509.000000pt" height="233.000000pt" viewBox="0 0 509.000000 233.000000"
 preserveAspectRatio="xMidYMid meet">
<metadata>
Created by potrace 1.16, written by Peter Selinger 2001-2019
</metadata>
<g transform="translate(0.000000,233.000000) scale(0.100000,-0.100000)"
fill="#000000" stroke="none">
<path d="M333 2308 c-24 -13 -103 -87 -178 -167 -104 -111 -137 -153 -146
-184 -14 -52 1 -106 39 -147 53 -57 1948 -1774 1977 -1792 42 -25 110 -23 161
6 99 56 2821 1761 2843 1780 29 26 51 75 51 117 0 29 -112 294 -146 347 -23
36 -98 65 -142 57 -28 -5 -1444 -790 -2464 -1366 l-67 -38 -879 683 c-483 376
-889 690 -903 699 -44 29 -99 31 -146 5z"/>
</g>
</svg>
