<?xml version="1.0" standalone="no"?>
<!DOCTYPE svg PUBLIC "-//W3C//DTD SVG 20010904//EN"
 "http://www.w3.org/TR/2001/REC-SVG-20010904/DTD/svg10.dtd">
<svg version="1.0" xmlns="http://www.w3.org/2000/svg"
 width="913.000000pt" height="976.000000pt" viewBox="0 0 913.000000 976.000000"
 preserveAspectRatio="xMidYMid meet">
<metadata>
Created by potrace 1.16, written by Peter Selinger 2001-2019
</metadata>
<g transform="translate(0.000000,976.000000) scale(0.100000,-0.100000)"
fill="#000000" stroke="none">
<path d="M5652 9750 c-1033 -81 -2046 -495 -2882 -1177 -174 -142 -425 -384
-569 -549 -533 -608 -865 -1276 -980 -1969 -39 -237 -46 -327 -46 -615 0 -308
9 -420 55 -698 63 -376 159 -724 370 -1342 220 -642 295 -871 354 -1076 137
-477 206 -895 206 -1249 l0 -155 -532 0 c-642 0 -842 12 -979 56 -42 13 -48
18 -53 52 -13 75 -17 624 -7 857 10 237 10 241 -12 284 -38 78 -57 86 -227 89
-133 3 -152 1 -188 -17 -22 -11 -50 -37 -62 -57 -22 -35 -23 -53 -63 -1047
l-40 -1011 22 -41 c13 -25 38 -51 61 -64 l38 -21 1125 2 c1119 3 1126 3 1153
24 50 37 64 68 98 221 103 459 144 832 153 1393 7 484 -7 803 -77 1695 -85
1081 -88 1670 -14 2250 118 925 434 1749 917 2389 809 1074 2112 1608 3110
1276 264 -88 455 -207 653 -404 294 -295 455 -647 516 -1126 17 -136 17 -548
0 -705 -73 -662 -295 -1361 -691 -2170 -199 -406 -382 -740 -918 -1670 -582
-1011 -845 -1522 -1080 -2102 -126 -314 -293 -837 -293 -922 0 -47 36 -105 80
-130 l38 -21 1111 0 c1197 0 1150 -2 1197 51 27 30 934 1999 940 2042 6 40
-29 112 -69 141 -25 19 -45 21 -180 24 -143 2 -154 1 -191 -20 -47 -28 -46
-25 -232 -423 -158 -338 -291 -595 -369 -714 -70 -106 -123 -129 -365 -162
-98 -13 -1250 -25 -1250 -13 0 14 132 257 207 384 299 496 586 874 1373 1805
534 633 769 923 990 1225 587 799 915 1492 1034 2181 31 176 38 307 33 557 -4
206 -9 271 -30 392 -76 428 -231 791 -480 1123 -110 147 -351 392 -492 498
-471 358 -1005 564 -1665 644 -159 19 -629 28 -798 15z"/>
</g>
</svg>
