<?xml version="1.0" standalone="no"?>
<!DOCTYPE svg PUBLIC "-//W3C//DTD SVG 20010904//EN"
 "http://www.w3.org/TR/2001/REC-SVG-20010904/DTD/svg10.dtd">
<svg version="1.0" xmlns="http://www.w3.org/2000/svg"
 width="1101.000000pt" height="942.000000pt" viewBox="0 0 1101.000000 942.000000"
 preserveAspectRatio="xMidYMid meet">
<metadata>
Created by potrace 1.16, written by Peter Selinger 2001-2019
</metadata>
<g transform="translate(0.000000,942.000000) scale(0.100000,-0.100000)"
fill="#000000" stroke="none">
<path d="M6270 9398 c-61 -42 -66 -56 -125 -383 -211 -1161 -488 -2423 -816
-3715 -426 -1676 -839 -3184 -1310 -4777 -100 -340 -109 -375 -100 -410 11
-39 47 -81 88 -102 15 -7 128 -11 356 -11 330 0 334 0 367 23 18 12 41 33 51
47 11 16 47 171 99 425 423 2079 1023 4647 1456 6235 222 813 461 1620 705
2378 55 170 56 200 12 253 -50 59 -51 59 -416 59 -330 0 -334 0 -367 -22z"/>
<path d="M2740 7554 c-674 -95 -1361 -555 -1897 -1269 -430 -573 -718 -1277
-820 -2005 -22 -159 -25 -666 -5 -805 84 -576 318 -1030 678 -1311 654 -511
1575 -389 2399 317 122 105 362 351 467 479 429 526 731 1154 882 1835 215
972 45 1845 -459 2351 -208 209 -436 336 -710 394 -134 28 -389 35 -535 14z
m421 -633 c799 -181 1077 -1081 720 -2331 -233 -812 -687 -1470 -1266 -1835
-130 -82 -276 -150 -428 -199 -201 -66 -291 -81 -497 -80 -154 1 -186 4 -271
27 -395 104 -641 359 -754 777 -64 242 -78 572 -37 881 121 897 477 1693 982
2198 321 322 733 533 1140 585 79 10 327 -4 411 -23z"/>
<path d="M9186 7559 c-370 -51 -768 -223 -1108 -480 -277 -209 -577 -519 -797
-823 -617 -853 -931 -2020 -780 -2905 104 -615 412 -1097 854 -1336 815 -441
1981 25 2802 1120 430 573 718 1277 820 2005 22 159 25 666 5 805 -128 879
-615 1471 -1318 1600 -106 20 -381 28 -478 14z m395 -642 c391 -101 641 -359
754 -777 45 -169 59 -296 58 -520 -1 -228 -20 -408 -73 -665 -252 -1239 -898
-2129 -1745 -2405 -189 -61 -274 -74 -470 -74 -188 1 -287 17 -427 72 -678
263 -889 1127 -559 2282 233 812 687 1470 1266 1835 233 147 484 237 780 279
17 2 95 3 175 1 112 -3 166 -9 241 -28z"/>
</g>
</svg>
