<?xml version="1.0" standalone="no"?>
<!DOCTYPE svg PUBLIC "-//W3C//DTD SVG 20010904//EN"
 "http://www.w3.org/TR/2001/REC-SVG-20010904/DTD/svg10.dtd">
<svg version="1.0" xmlns="http://www.w3.org/2000/svg"
 width="1354.000000pt" height="976.000000pt" viewBox="0 0 1354.000000 976.000000"
 preserveAspectRatio="xMidYMid meet">
<metadata>
Created by potrace 1.16, written by Peter Selinger 2001-2019
</metadata>
<g transform="translate(0.000000,976.000000) scale(0.100000,-0.100000)"
fill="#000000" stroke="none">
<path d="M975 9747 c-57 -26 -80 -66 -114 -201 -37 -148 -38 -176 -10 -226 40
-71 63 -77 334 -83 452 -11 566 -42 610 -167 22 -62 20 -27 75 -1350 27 -652
52 -1229 55 -1282 l7 -98 -565 -2 -564 -3 -40 -28 c-106 -74 -120 -221 -29
-312 29 -28 57 -45 88 -53 33 -9 208 -12 587 -12 l541 0 0 -48 c0 -26 20 -522
45 -1102 25 -580 45 -1071 45 -1092 l0 -38 -954 -2 -954 -3 -43 -30 c-142
-100 -102 -322 67 -364 29 -8 336 -11 972 -11 l930 0 6 -107 c4 -60 33 -747
66 -1528 33 -781 62 -1440 65 -1464 6 -53 41 -102 88 -125 49 -23 313 -23 380
0 110 37 63 -41 986 1659 l846 1560 1118 3 1117 2 0 -34 c0 -18 29 -720 65
-1560 70 -1650 63 -1557 125 -1609 41 -35 72 -39 247 -35 142 3 150 4 202 33
29 16 68 48 86 70 17 22 409 736 871 1587 l839 1548 983 0 c716 0 996 3 1030
12 85 21 152 111 152 204 0 49 -47 132 -93 162 l-41 27 -903 5 -903 5 617
1137 616 1137 616 3 c677 3 643 0 702 65 47 50 62 90 57 155 -5 74 -44 133
-108 166 -44 22 -46 22 -542 22 -274 0 -498 1 -498 3 0 12 1078 1988 1097
2012 14 17 48 69 76 117 83 140 165 245 277 358 256 257 552 385 939 406 128
7 175 23 206 70 9 15 32 87 51 162 38 150 36 184 -12 241 -38 46 -71 52 -219
41 -71 -5 -302 -15 -512 -22 -399 -13 -1187 -2 -1733 23 -244 12 -246 11 -288
-10 -24 -12 -51 -35 -60 -50 -10 -16 -33 -92 -51 -169 l-34 -139 24 -49 c39
-77 58 -86 211 -96 361 -24 591 -134 682 -327 27 -59 30 -76 30 -156 -1 -92
-1 -94 -72 -272 -9 -23 -273 -515 -587 -1093 l-570 -1050 -1242 0 -1242 0 -5
33 c-3 17 -28 593 -57 1279 l-52 1246 24 48 c50 104 157 175 341 228 136 39
275 56 513 63 310 8 308 7 364 241 l34 139 -24 49 c-13 26 -37 57 -52 68 -33
24 -53 24 -582 6 -816 -27 -1728 -23 -2421 11 -231 12 -231 12 -271 -11 -53
-29 -71 -62 -104 -194 -35 -135 -36 -187 -8 -233 40 -64 65 -70 339 -76 350
-9 513 -37 564 -98 49 -58 56 -106 76 -564 10 -236 20 -469 21 -517 l2 -87
-443 -815 -442 -816 -1244 0 c-684 0 -1244 1 -1244 3 0 1 -25 576 -55 1277
l-55 1275 26 52 c35 74 116 144 210 183 172 71 340 99 669 109 281 8 279 7
335 232 37 147 35 181 -11 234 -47 54 -68 56 -320 46 -725 -32 -1871 -37
-2454 -11 -481 21 -488 21 -520 7z m5517 -3405 c-56 -1 -149 -1 -206 0 l-104
3 191 352 192 353 15 -353 15 -352 -103 -3z m-1085 -424 c-3 -7 -280 -519
-615 -1138 l-611 -1125 -460 -3 -461 -2 0 48 c0 27 -20 521 -45 1098 -25 577
-45 1068 -45 1092 l0 42 1121 0 c893 0 1120 -3 1116 -12z m1207 -40 c7 -70 97
-2221 92 -2225 -1 -2 -448 -2 -993 -1 l-990 3 616 1137 616 1137 327 1 327 0
5 -52z m3439 -2 c-16 -29 -293 -542 -618 -1140 l-590 -1086 -457 0 c-312 0
-458 3 -458 10 0 21 -89 2126 -93 2198 l-4 72 1124 0 1123 0 -27 -54z m-6103
-2642 c0 -10 -613 -1135 -616 -1131 -2 2 -13 213 -24 468 -10 255 -22 510 -25
567 l-6 102 335 0 c185 0 336 -2 336 -6z m4608 -112 c-222 -415 -554 -1020
-557 -1016 -5 4 -49 975 -50 1087 l-1 47 336 0 335 0 -63 -118z"/>
</g>
</svg>
