<?xml version="1.0" standalone="no"?>
<!DOCTYPE svg PUBLIC "-//W3C//DTD SVG 20010904//EN"
 "http://www.w3.org/TR/2001/REC-SVG-20010904/DTD/svg10.dtd">
<svg version="1.0" xmlns="http://www.w3.org/2000/svg"
 width="639.000000pt" height="890.000000pt" viewBox="0 0 639.000000 890.000000"
 preserveAspectRatio="xMidYMid meet">
<metadata>
Created by potrace 1.16, written by Peter Selinger 2001-2019
</metadata>
<g transform="translate(0.000000,890.000000) scale(0.100000,-0.100000)"
fill="#000000" stroke="none">
<path d="M1352 8883 c-27 -13 -43 -36 -81 -112 -175 -349 -1263 -2645 -1267
-2672 -7 -45 22 -97 67 -121 27 -15 57 -18 160 -18 115 0 129 2 160 23 18 12
39 34 46 47 299 602 727 1096 1245 1441 408 271 806 418 1238 460 322 30 403
-11 667 -338 301 -374 496 -464 881 -407 111 16 294 68 386 108 l55 24 -96
-146 c-1371 -2100 -2249 -3803 -2804 -5442 -160 -470 -333 -1077 -354 -1235
-16 -125 38 -277 128 -362 273 -259 788 -120 972 262 23 48 61 175 115 385
660 2565 1535 4747 2663 6640 216 362 469 758 736 1148 93 136 111 168 111
200 0 49 -18 81 -59 109 -31 21 -45 23 -158 23 -159 0 -173 -6 -248 -113 -534
-752 -966 -1137 -1400 -1248 -68 -17 -119 -23 -210 -23 -136 -1 -175 12 -233
79 -74 83 -105 179 -166 503 -55 290 -83 389 -144 506 -81 157 -193 245 -360
282 -61 14 -104 16 -222 11 -541 -23 -1080 -248 -1597 -667 -58 -47 -116 -93
-129 -103 -18 -14 -6 18 57 150 206 430 219 459 219 493 0 47 -18 80 -59 107
-31 21 -45 23 -160 23 -96 0 -134 -4 -159 -17z"/>
</g>
</svg>
