<?xml version="1.0" standalone="no"?>
<!DOCTYPE svg PUBLIC "-//W3C//DTD SVG 20010904//EN"
 "http://www.w3.org/TR/2001/REC-SVG-20010904/DTD/svg10.dtd">
<svg version="1.0" xmlns="http://www.w3.org/2000/svg"
 width="1320.000000pt" height="1446.000000pt" viewBox="0 0 1320.000000 1446.000000"
 preserveAspectRatio="xMidYMid meet">
<metadata>
Created by potrace 1.16, written by Peter Selinger 2001-2019
</metadata>
<g transform="translate(0.000000,1446.000000) scale(0.100000,-0.100000)"
fill="#000000" stroke="none">
<path d="M8050 14453 c-201 -13 -352 -28 -509 -49 -1248 -167 -2559 -749
-3713 -1646 -541 -421 -1093 -957 -1552 -1508 -1284 -1543 -2086 -3438 -2251
-5320 -22 -249 -30 -752 -16 -1000 68 -1199 429 -2258 1057 -3095 141 -189
242 -304 424 -486 244 -244 433 -399 710 -582 981 -646 2181 -889 3488 -706
1322 184 2744 852 3930 1847 446 373 917 847 1296 1302 1284 1543 2086 3438
2251 5320 22 249 30 752 16 1000 -68 1199 -429 2258 -1057 3095 -141 189 -242
304 -424 486 -244 244 -433 399 -710 582 -677 445 -1455 699 -2325 757 -136 9
-503 11 -615 3z m585 -563 c659 -44 1265 -217 1790 -509 986 -549 1675 -1466
2004 -2666 250 -910 264 -1977 40 -3075 -410 -2008 -1575 -3932 -3211 -5302
-886 -742 -1908 -1293 -2910 -1567 -1314 -361 -2577 -252 -3583 308 -986 549
-1675 1466 -2004 2666 -250 910 -264 1977 -40 3075 410 2008 1575 3932 3211
5302 1121 939 2434 1555 3678 1727 124 17 274 31 470 44 110 8 418 6 555 -3z"/>
<path d="M7255 10679 c-1381 -110 -2795 -975 -3610 -2209 -132 -200 -197 -314
-306 -534 -215 -435 -343 -861 -401 -1336 -17 -138 -17 -574 0 -710 77 -624
323 -1159 722 -1573 454 -472 1041 -748 1780 -839 140 -17 595 -17 720 1 531
74 1017 263 1485 576 703 471 1246 1191 1460 1936 40 139 43 181 15 227 -34
56 -65 62 -292 62 -271 0 -274 -2 -323 -185 -123 -457 -410 -941 -775 -1305
-371 -371 -777 -598 -1220 -682 -95 -18 -151 -22 -320 -22 -376 0 -678 62
-969 200 -176 84 -298 170 -437 308 -275 276 -397 564 -434 1026 -34 422 71
1077 294 1832 295 999 737 1653 1421 2103 444 291 940 461 1475 506 464 38
763 -52 1015 -305 140 -141 234 -291 308 -491 124 -335 167 -799 112 -1230
-20 -158 -19 -193 5 -233 34 -55 65 -62 290 -62 216 0 238 4 278 54 13 18 125
447 363 1398 l343 1373 -20 40 c-32 65 -72 85 -173 85 -70 0 -93 -4 -120 -21
-19 -12 -211 -163 -425 -336 -215 -174 -397 -321 -405 -327 -10 -8 -29 8 -84
68 -308 340 -754 557 -1241 605 -123 12 -380 12 -531 0z"/>
</g>
</svg>
