<?xml version="1.0" standalone="no"?>
<!DOCTYPE svg PUBLIC "-//W3C//DTD SVG 20010904//EN"
 "http://www.w3.org/TR/2001/REC-SVG-20010904/DTD/svg10.dtd">
<svg version="1.0" xmlns="http://www.w3.org/2000/svg"
 width="880.000000pt" height="1070.000000pt" viewBox="0 0 880.000000 1070.000000"
 preserveAspectRatio="xMidYMid meet">
<metadata>
Created by potrace 1.16, written by Peter Selinger 2001-2019
</metadata>
<g transform="translate(0.000000,1070.000000) scale(0.100000,-0.100000)"
fill="#000000" stroke="none">
<path d="M5605 10681 c-60 -37 -67 -54 -135 -319 l-65 -257 -50 -3 c-104 -5
-335 -34 -465 -58 -1334 -246 -2659 -1126 -3597 -2388 -749 -1008 -1200 -2178
-1284 -3335 -15 -210 -7 -678 16 -861 130 -1067 607 -1920 1375 -2462 407
-287 940 -482 1470 -538 63 -7 116 -14 118 -15 2 -1 -13 -67 -33 -146 -40
-158 -40 -190 2 -239 43 -51 71 -60 190 -60 122 0 163 14 198 65 11 17 40 111
64 208 l43 177 54 0 c155 0 532 67 786 140 578 166 1135 496 1458 863 l64 74
42 -97 c22 -54 58 -129 79 -166 79 -142 244 -369 343 -471 63 -64 132 -70 193
-15 29 26 41 70 378 1417 192 765 359 1417 371 1450 79 209 173 249 615 262
221 6 240 10 284 57 28 30 71 178 71 247 0 57 -31 107 -81 132 -33 16 -52 17
-210 7 -96 -5 -381 -15 -634 -21 -478 -12 -1438 -2 -2115 22 -343 12 -348 12
-398 -46 -40 -45 -87 -229 -72 -284 10 -37 46 -79 87 -100 14 -7 102 -11 255
-11 530 0 926 -39 1008 -99 34 -25 53 -98 45 -183 -7 -88 -315 -1323 -355
-1422 -161 -405 -469 -735 -925 -988 -327 -182 -733 -299 -1127 -324 l-106 -7
1095 4384 c603 2411 1098 4386 1100 4388 6 8 248 -20 348 -40 714 -145 1204
-747 1359 -1669 43 -254 51 -368 51 -695 -1 -313 -7 -406 -47 -698 -21 -148
-21 -159 -5 -192 30 -63 64 -75 212 -75 147 0 183 12 210 72 18 40 905 3594
905 3626 0 36 -28 81 -63 102 -42 26 -139 27 -184 3 -17 -10 -123 -121 -235
-248 -111 -126 -327 -370 -479 -541 l-276 -311 -49 80 c-160 263 -402 517
-654 685 -240 159 -562 280 -869 325 -56 9 -105 18 -108 21 -3 3 17 98 46 210
28 113 51 223 51 244 0 49 -34 101 -80 124 -52 26 -243 26 -285 -1z m-1405
-5398 l-1087 -4348 -49 2 c-27 1 -102 16 -166 32 -371 96 -700 277 -962 530
-408 394 -631 880 -713 1551 -22 179 -24 686 -5 885 75 754 282 1634 564 2390
495 1331 1284 2310 2326 2888 337 187 714 328 1056 392 67 13 122 24 122 24 1
1 -488 -1955 -1086 -4346z"/>
</g>
</svg>
