<?xml version="1.0" standalone="no"?>
<!DOCTYPE svg PUBLIC "-//W3C//DTD SVG 20010904//EN"
 "http://www.w3.org/TR/2001/REC-SVG-20010904/DTD/svg10.dtd">
<svg version="1.0" xmlns="http://www.w3.org/2000/svg"
 width="517.000000pt" height="133.000000pt" viewBox="0 0 517.000000 133.000000"
 preserveAspectRatio="xMidYMid meet">
<metadata>
Created by potrace 1.16, written by Peter Selinger 2001-2019
</metadata>
<g transform="translate(0.000000,133.000000) scale(0.100000,-0.100000)"
fill="#000000" stroke="none">
<path d="M1550 1316 c-173 -31 -293 -72 -470 -161 -232 -117 -458 -283 -736
-543 -244 -228 -331 -322 -339 -364 -10 -54 11 -105 69 -167 75 -79 140 -100
208 -65 17 9 85 65 152 126 474 431 885 609 1256 544 199 -35 357 -105 720
-321 473 -282 690 -359 1005 -360 235 0 415 44 645 160 283 142 496 305 872
666 220 212 239 240 218 319 -21 79 -138 180 -209 180 -51 0 -82 -18 -175
-103 -142 -129 -213 -188 -319 -266 -422 -312 -780 -398 -1144 -276 -145 48
-271 111 -513 256 -363 217 -588 319 -800 365 -101 22 -343 27 -440 10z"/>
</g>
</svg>
