<?xml version="1.0" standalone="no"?>
<!DOCTYPE svg PUBLIC "-//W3C//DTD SVG 20010904//EN"
 "http://www.w3.org/TR/2001/REC-SVG-20010904/DTD/svg10.dtd">
<svg version="1.0" xmlns="http://www.w3.org/2000/svg"
 width="373.000000pt" height="211.000000pt" viewBox="0 0 373.000000 211.000000"
 preserveAspectRatio="xMidYMid meet">
<metadata>
Created by potrace 1.16, written by Peter Selinger 2001-2019
</metadata>
<g transform="translate(0.000000,211.000000) scale(0.100000,-0.100000)"
fill="#000000" stroke="none">
<path d="M210 2089 c-50 -31 -172 -147 -192 -183 -20 -36 -23 -112 -5 -142 33
-56 1323 -1727 1344 -1741 41 -27 112 -27 156 -1 21 13 517 401 1102 863 796
629 1069 850 1085 878 31 55 23 108 -30 199 -24 40 -52 84 -64 96 -49 56 -118
66 -189 31 -23 -12 -432 -251 -910 -530 -477 -280 -871 -509 -876 -509 -6 0
-289 232 -631 515 -341 283 -634 522 -650 530 -41 21 -99 19 -140 -6z"/>
</g>
</svg>
