<?xml version="1.0" standalone="no"?>
<!DOCTYPE svg PUBLIC "-//W3C//DTD SVG 20010904//EN"
 "http://www.w3.org/TR/2001/REC-SVG-20010904/DTD/svg10.dtd">
<svg version="1.0" xmlns="http://www.w3.org/2000/svg"
 width="572.000000pt" height="860.000000pt" viewBox="0 0 572.000000 860.000000"
 preserveAspectRatio="xMidYMid meet">
<metadata>
Created by potrace 1.16, written by Peter Selinger 2001-2019
</metadata>
<g transform="translate(0.000000,860.000000) scale(0.100000,-0.100000)"
fill="#000000" stroke="none">
<path d="M4485 8581 c-150 -43 -276 -144 -339 -272 -20 -41 -54 -143 -76 -227
-440 -1666 -1427 -3213 -2735 -4285 -337 -277 -833 -612 -985 -666 -150 -53
-299 -152 -335 -222 -18 -34 -19 -92 -3 -122 28 -54 132 -178 160 -193 48 -25
91 -13 236 65 93 50 153 76 203 86 193 41 548 65 966 65 490 0 734 -35 1430
-207 289 -71 352 -90 348 -103 -21 -72 -506 -2031 -515 -2082 -20 -113 18
-237 97 -313 162 -158 462 -132 653 55 105 104 102 96 370 1170 133 531 245
981 250 1000 l9 35 263 1 c279 0 386 10 655 60 176 32 470 102 506 121 56 28
84 113 55 166 -22 43 -129 178 -153 193 -31 20 -76 16 -270 -24 -82 -17 -211
-38 -285 -47 -150 -17 -566 -32 -622 -21 l-35 6 319 1278 c311 1244 320 1279
316 1358 -3 63 -11 94 -32 137 -119 243 -488 262 -715 37 -114 -113 -99 -63
-442 -1433 -169 -675 -309 -1230 -312 -1233 -2 -3 -141 29 -308 71 -724 182
-934 214 -1435 224 l-322 6 137 97 c299 214 627 479 916 741 195 176 589 575
744 752 665 760 1162 1556 1502 2407 116 290 268 780 294 945 14 89 -33 221
-102 288 -97 95 -260 129 -408 86z"/>
</g>
</svg>
