<?xml version="1.0" standalone="no"?>
<!DOCTYPE svg PUBLIC "-//W3C//DTD SVG 20010904//EN"
 "http://www.w3.org/TR/2001/REC-SVG-20010904/DTD/svg10.dtd">
<svg version="1.0" xmlns="http://www.w3.org/2000/svg"
 width="711.000000pt" height="1171.000000pt" viewBox="0 0 711.000000 1171.000000"
 preserveAspectRatio="xMidYMid meet">
<metadata>
Created by potrace 1.16, written by Peter Selinger 2001-2019
</metadata>
<g transform="translate(0.000000,1171.000000) scale(0.100000,-0.100000)"
fill="#000000" stroke="none">
<path d="M5790 11634 c-994 -81 -964 -76 -1005 -146 -24 -41 -75 -241 -75
-298 0 -57 28 -103 77 -128 33 -17 69 -20 288 -25 383 -9 579 -43 629 -110 25
-34 33 -129 17 -224 -6 -37 -75 -323 -152 -635 l-141 -568 -672 0 c-619 0
-674 -1 -706 -18 -52 -26 -74 -68 -110 -211 -36 -147 -35 -182 7 -232 51 -60
34 -59 721 -59 l629 0 -280 -1123 -281 -1124 -80 121 c-140 212 -327 377 -541
477 -269 126 -609 142 -987 45 -374 -96 -735 -286 -1103 -580 -131 -106 -391
-361 -518 -509 -474 -555 -814 -1220 -996 -1945 -85 -340 -119 -581 -128 -903
-7 -248 6 -436 43 -639 159 -868 649 -1436 1374 -1591 151 -33 450 -33 592 -1
316 70 639 233 938 472 58 47 177 155 264 242 88 87 160 156 161 155 0 -1 11
-36 24 -77 131 -416 448 -700 893 -797 129 -28 385 -25 498 5 316 85 571 322
775 723 144 283 251 594 395 1149 68 262 69 279 10 335 l-31 30 -172 3 c-158
2 -175 1 -205 -18 -18 -11 -39 -35 -47 -52 -8 -18 -46 -155 -85 -305 -127
-494 -219 -770 -335 -1008 -83 -169 -132 -243 -226 -337 -106 -108 -161 -133
-289 -133 -86 1 -100 4 -148 29 -121 67 -171 204 -172 473 0 152 20 321 61
518 16 77 379 1540 807 3250 l778 3110 325 5 c287 4 328 7 357 23 48 26 64 59
101 215 l34 139 -24 49 c-45 90 -39 89 -371 92 -268 3 -290 4 -286 20 3 9 119
474 258 1033 l254 1015 -25 49 c-34 70 -65 89 -147 91 -37 2 -474 -31 -972
-72z m-2020 -4628 c262 -72 484 -316 610 -671 41 -118 85 -297 105 -433 l16
-109 -364 -1455 -364 -1456 -68 -103 c-455 -697 -989 -1129 -1459 -1181 -314
-35 -545 97 -691 397 -54 111 -78 181 -104 310 -67 320 -47 705 64 1260 47
233 253 1071 330 1340 225 785 494 1306 875 1685 141 142 260 235 394 309 95
52 235 104 327 120 72 13 261 5 329 -13z"/>
<path d="M210 551 c-83 -26 -141 -74 -181 -151 -19 -35 -24 -61 -24 -120 1
-116 50 -196 155 -251 l45 -24 2370 0 2370 0 41 22 c92 49 147 126 160 224 14
102 -48 217 -146 273 l-55 31 -2355 2 c-1295 1 -2366 -2 -2380 -6z"/>
</g>
</svg>
