<?xml version="1.0" standalone="no"?>
<!DOCTYPE svg PUBLIC "-//W3C//DTD SVG 20010904//EN"
 "http://www.w3.org/TR/2001/REC-SVG-20010904/DTD/svg10.dtd">
<svg version="1.0" xmlns="http://www.w3.org/2000/svg"
 width="507.000000pt" height="176.000000pt" viewBox="0 0 507.000000 176.000000"
 preserveAspectRatio="xMidYMid meet">
<metadata>
Created by potrace 1.16, written by Peter Selinger 2001-2019
</metadata>
<g transform="translate(0.000000,176.000000) scale(0.100000,-0.100000)"
fill="#000000" stroke="none">
<path d="M2428 1744 c-31 -7 -93 -31 -137 -54 -85 -42 -2190 -1202 -2229
-1228 -29 -19 -62 -83 -62 -119 1 -43 56 -250 75 -279 24 -38 74 -64 122 -64
49 0 2334 788 2443 842 87 44 207 162 249 246 75 149 81 303 18 436 -89 187
-271 271 -479 220z"/>
<path d="M4538 1744 c-31 -7 -93 -31 -137 -54 -85 -42 -2190 -1202 -2229
-1228 -29 -19 -62 -83 -62 -119 1 -43 56 -250 75 -279 24 -38 74 -64 122 -64
49 0 2334 788 2443 842 87 44 207 162 249 246 75 149 81 303 18 436 -89 187
-271 271 -479 220z"/>
</g>
</svg>
