<?xml version="1.0" standalone="no"?>
<!DOCTYPE svg PUBLIC "-//W3C//DTD SVG 20010904//EN"
 "http://www.w3.org/TR/2001/REC-SVG-20010904/DTD/svg10.dtd">
<svg version="1.0" xmlns="http://www.w3.org/2000/svg"
 width="550.000000pt" height="206.000000pt" viewBox="0 0 550.000000 206.000000"
 preserveAspectRatio="xMidYMid meet">
<metadata>
Created by potrace 1.16, written by Peter Selinger 2001-2019
</metadata>
<g transform="translate(0.000000,206.000000) scale(0.100000,-0.100000)"
fill="#000000" stroke="none">
<path d="M2910 2054 c-629 -55 -1082 -180 -1575 -433 -310 -159 -543 -321
-754 -526 -277 -268 -451 -530 -547 -821 -39 -121 -42 -156 -14 -201 38 -63
55 -68 254 -71 296 -6 304 -2 365 175 60 176 143 304 305 471 350 361 907 631
1517 736 243 42 350 51 629 50 286 -1 421 -13 643 -60 496 -105 891 -361 1047
-679 74 -151 92 -284 64 -462 -17 -114 -17 -116 2 -151 10 -19 32 -45 47 -56
27 -20 41 -21 246 -21 239 0 252 3 290 66 53 88 74 433 37 608 -84 391 -306
703 -676 950 -315 210 -684 341 -1130 401 -116 16 -224 22 -430 24 -151 2
-295 2 -320 0z"/>
</g>
</svg>
