<?xml version="1.0" standalone="no"?>
<!DOCTYPE svg PUBLIC "-//W3C//DTD SVG 20010904//EN"
 "http://www.w3.org/TR/2001/REC-SVG-20010904/DTD/svg10.dtd">
<svg version="1.0" xmlns="http://www.w3.org/2000/svg"
 width="372.000000pt" height="233.000000pt" viewBox="0 0 372.000000 233.000000"
 preserveAspectRatio="xMidYMid meet">
<metadata>
Created by potrace 1.16, written by Peter Selinger 2001-2019
</metadata>
<g transform="translate(0.000000,233.000000) scale(0.100000,-0.100000)"
fill="#000000" stroke="none">
<path d="M2229 2307 c-20 -12 -523 -431 -1117 -930 -756 -636 -1085 -919
-1096 -942 -19 -39 -21 -97 -4 -128 27 -52 204 -271 232 -288 43 -26 112 -25
157 4 20 12 415 319 878 682 463 363 845 661 849 662 4 1 239 -297 522 -663
291 -375 529 -673 546 -684 33 -21 97 -26 136 -11 35 13 330 248 349 278 29
43 32 88 11 136 -19 41 -1233 1809 -1276 1856 -47 53 -128 65 -187 28z"/>
</g>
</svg>
