<?xml version="1.0" standalone="no"?>
<!DOCTYPE svg PUBLIC "-//W3C//DTD SVG 20010904//EN"
 "http://www.w3.org/TR/2001/REC-SVG-20010904/DTD/svg10.dtd">
<svg version="1.0" xmlns="http://www.w3.org/2000/svg"
 width="503.000000pt" height="976.000000pt" viewBox="0 0 503.000000 976.000000"
 preserveAspectRatio="xMidYMid meet">
<metadata>
Created by potrace 1.16, written by Peter Selinger 2001-2019
</metadata>
<g transform="translate(0.000000,976.000000) scale(0.100000,-0.100000)"
fill="#000000" stroke="none">
<path d="M1760 9684 c-968 -79 -960 -78 -1001 -136 -12 -16 -36 -90 -55 -164
-29 -116 -33 -142 -24 -175 14 -50 53 -95 93 -107 18 -6 142 -13 277 -16 270
-6 386 -17 503 -48 135 -36 161 -83 138 -260 -10 -80 -388 -1622 -410 -1673
-4 -11 -286 -224 -625 -473 -339 -250 -624 -465 -633 -478 -9 -14 -18 -46 -20
-72 -4 -42 1 -55 48 -134 28 -48 66 -104 82 -124 50 -60 126 -80 187 -49 16 8
195 137 396 285 202 149 368 269 370 267 1 -1 -179 -729 -401 -1617 -222 -888
-417 -1680 -434 -1760 -182 -880 -78 -1690 289 -2250 370 -564 958 -799 1643
-659 367 75 815 299 1172 585 136 109 405 372 532 519 630 729 1044 1714 1123
2669 17 206 8 558 -20 740 -84 552 -320 1028 -653 1317 -210 181 -454 302
-728 360 -122 25 -357 35 -474 20 -381 -49 -762 -237 -1143 -564 -84 -72 -92
-77 -86 -51 4 16 96 381 203 811 l196 781 1288 947 c708 521 1295 958 1304
971 9 14 18 46 20 72 4 42 -1 55 -48 134 -28 48 -66 104 -82 124 -50 60 -126
80 -187 49 -16 -8 -429 -309 -917 -668 -488 -359 -956 -703 -1039 -764 l-151
-111 198 792 c109 435 199 811 199 835 0 90 -71 152 -172 150 -29 -1 -460 -35
-958 -75z m1635 -3849 c349 -73 568 -448 591 -1014 16 -373 -51 -791 -265
-1646 -211 -844 -320 -1179 -506 -1560 -298 -609 -749 -1062 -1171 -1177 -107
-29 -311 -31 -399 -4 -277 84 -475 338 -559 718 -75 341 -69 692 19 1199 40
225 100 481 324 1377 l209 833 105 157 c530 789 1166 1219 1652 1117z"/>
</g>
</svg>
