<?xml version="1.0" standalone="no"?>
<!DOCTYPE svg PUBLIC "-//W3C//DTD SVG 20010904//EN"
 "http://www.w3.org/TR/2001/REC-SVG-20010904/DTD/svg10.dtd">
<svg version="1.0" xmlns="http://www.w3.org/2000/svg"
 width="407.000000pt" height="156.000000pt" viewBox="0 0 407.000000 156.000000"
 preserveAspectRatio="xMidYMid meet">
<metadata>
Created by potrace 1.16, written by Peter Selinger 2001-2019
</metadata>
<g transform="translate(0.000000,156.000000) scale(0.100000,-0.100000)"
fill="#000000" stroke="none">
<path d="M778 1540 c-287 -60 -548 -264 -683 -535 -71 -141 -95 -236 -95 -374
0 -188 55 -327 180 -452 358 -358 1065 -149 1324 391 63 130 86 227 86 359 0
189 -53 325 -175 447 -157 157 -389 217 -637 164z"/>
<path d="M3250 1540 c-299 -64 -560 -270 -694 -550 -63 -130 -86 -227 -86
-359 0 -189 53 -325 175 -447 361 -361 1059 -162 1325 379 66 135 90 231 90
366 0 188 -55 327 -180 452 -151 151 -388 211 -630 159z"/>
</g>
</svg>
