<?xml version="1.0" standalone="no"?>
<!DOCTYPE svg PUBLIC "-//W3C//DTD SVG 20010904//EN"
 "http://www.w3.org/TR/2001/REC-SVG-20010904/DTD/svg10.dtd">
<svg version="1.0" xmlns="http://www.w3.org/2000/svg"
 width="885.000000pt" height="581.000000pt" viewBox="0 0 885.000000 581.000000"
 preserveAspectRatio="xMidYMid meet">
<metadata>
Created by potrace 1.16, written by Peter Selinger 2001-2019
</metadata>
<g transform="translate(0.000000,581.000000) scale(0.100000,-0.100000)"
fill="#000000" stroke="none">
<path d="M5663 5791 c-65 -22 -116 -61 -136 -103 -9 -19 -322 -1260 -697
-2758 -645 -2579 -681 -2727 -670 -2765 18 -60 53 -100 114 -130 110 -54 247
-40 327 32 22 20 45 46 51 57 7 12 240 932 519 2046 278 1114 509 2018 512
2010 3 -8 71 -532 152 -1165 80 -632 151 -1165 157 -1183 15 -49 66 -102 123
-128 39 -19 67 -24 125 -23 84 0 134 14 183 52 23 18 266 395 778 1210 409
652 745 1184 746 1183 1 -1 -219 -883 -488 -1961 -464 -1852 -490 -1962 -479
-2000 18 -60 53 -100 114 -130 113 -55 248 -40 331 36 23 22 48 52 54 67 24
62 1361 5435 1361 5472 0 137 -181 235 -344 186 -108 -33 -49 54 -1102 -1622
-896 -1425 -979 -1555 -986 -1528 -4 16 -93 699 -198 1517 -116 908 -196 1499
-205 1516 -54 106 -211 158 -342 112z"/>
<path d="M2195 5493 c-282 -19 -562 -114 -746 -252 -138 -105 -267 -268 -349
-444 -70 -149 -151 -423 -221 -747 -41 -187 -51 -414 -24 -534 46 -208 209
-388 425 -469 89 -34 234 -64 366 -77 60 -5 363 -10 679 -10 599 0 762 -8 885
-41 128 -35 189 -82 235 -181 75 -164 54 -397 -86 -938 -94 -365 -174 -565
-288 -718 -149 -199 -316 -294 -606 -343 -50 -9 -390 -14 -1180 -18 -1235 -7
-1147 -1 -1224 -74 -85 -81 -82 -189 7 -269 81 -73 18 -70 1269 -65 1188 4
1155 3 1378 52 433 96 761 357 956 761 66 138 136 350 208 634 106 420 138
618 128 800 -21 383 -238 644 -617 745 -211 55 -240 57 -1015 65 -765 8 -797
10 -891 58 -89 46 -117 103 -122 250 -5 139 11 244 83 527 67 262 94 344 155
470 114 233 260 343 522 397 35 7 422 13 1143 17 l1090 6 58 28 c163 80 163
264 0 344 l-58 28 -1055 1 c-580 0 -1077 -1 -1105 -3z"/>
</g>
</svg>
