<?xml version="1.0" standalone="no"?>
<!DOCTYPE svg PUBLIC "-//W3C//DTD SVG 20010904//EN"
 "http://www.w3.org/TR/2001/REC-SVG-20010904/DTD/svg10.dtd">
<svg version="1.0" xmlns="http://www.w3.org/2000/svg"
 width="404.000000pt" height="602.000000pt" viewBox="0 0 404.000000 602.000000"
 preserveAspectRatio="xMidYMid meet">
<metadata>
Created by potrace 1.16, written by Peter Selinger 2001-2019
</metadata>
<g transform="translate(0.000000,602.000000) scale(0.100000,-0.100000)"
fill="#000000" stroke="none">
<path d="M3545 5944 c-292 -171 -524 -267 -860 -354 -334 -87 -780 -140 -1188
-140 -221 0 -246 -17 -291 -195 -22 -88 -25 -113 -16 -145 11 -43 65 -96 107
-106 42 -11 511 4 693 21 259 25 670 95 763 130 10 4 17 3 17 -4 0 -6 -241
-975 -535 -2154 -495 -1977 -539 -2149 -580 -2232 -51 -106 -116 -177 -193
-212 -141 -65 -528 -103 -1073 -103 -228 0 -237 -1 -269 -22 -52 -36 -69 -67
-96 -173 -29 -112 -26 -149 13 -195 51 -61 56 -62 343 -51 143 6 561 16 928
22 687 12 1589 3 2264 -22 282 -11 298 -10 334 7 54 27 72 57 101 170 28 110
26 157 -6 202 -40 57 -65 62 -323 62 -497 0 -856 32 -979 86 -54 24 -64 51
-63 173 1 106 2 111 633 2631 466 1862 631 2533 626 2557 -7 38 -46 88 -86
108 -15 8 -52 15 -81 15 -49 0 -66 -7 -183 -76z"/>
</g>
</svg>
