<?xml version="1.0" standalone="no"?>
<!DOCTYPE svg PUBLIC "-//W3C//DTD SVG 20010904//EN"
 "http://www.w3.org/TR/2001/REC-SVG-20010904/DTD/svg10.dtd">
<svg version="1.0" xmlns="http://www.w3.org/2000/svg"
 width="933.000000pt" height="1115.000000pt" viewBox="0 0 933.000000 1115.000000"
 preserveAspectRatio="xMidYMid meet">
<metadata>
Created by potrace 1.16, written by Peter Selinger 2001-2019
</metadata>
<g transform="translate(0.000000,1115.000000) scale(0.100000,-0.100000)"
fill="#000000" stroke="none">
<path d="M6940 11132 c-19 -9 -44 -31 -56 -49 -14 -21 -58 -178 -125 -448
l-104 -415 -2124 0 -2123 0 -38 -21 c-50 -28 -68 -63 -101 -193 -46 -179 -35
-242 50 -286 37 -18 59 -20 239 -20 332 0 663 -25 784 -60 20 -6 47 -19 60
-29 21 -18 23 -26 22 -118 -1 -96 -24 -190 -971 -3973 -1061 -4240 -991 -3979
-1092 -4080 -103 -103 -295 -135 -866 -147 -425 -8 -405 3 -464 -241 l-34
-139 24 -49 c13 -26 37 -57 52 -68 28 -21 29 -21 2124 -24 1987 -2 2095 -3
2091 -20 -3 -9 -38 -150 -78 -313 l-74 -296 25 -48 c41 -83 57 -89 229 -93
133 -3 152 -1 188 17 22 11 49 35 60 53 10 18 56 182 102 364 l82 331 241 6
c305 8 492 32 767 98 562 137 1105 415 1575 807 134 112 366 350 480 492 473
589 708 1258 644 1838 -78 719 -543 1283 -1283 1557 -120 44 -369 108 -486
125 -47 6 -92 14 -100 17 -8 2 71 26 175 53 674 171 1281 507 1741 965 234
233 407 470 534 730 107 220 166 410 195 631 127 968 -479 1780 -1525 2044
-148 37 -333 68 -465 76 -57 4 -109 10 -116 14 -9 6 11 99 80 374 50 201 91
384 91 407 0 54 -31 104 -81 129 -54 28 -295 29 -349 2z m-420 -1444 c0 -7
-213 -863 -473 -1903 l-473 -1890 -942 -3 c-629 -1 -942 1 -942 8 0 28 873
3497 896 3560 59 165 114 208 294 229 41 5 427 9 858 10 620 1 782 -2 782 -11z
m688 -34 c396 -114 681 -465 768 -949 26 -140 26 -457 1 -610 -94 -573 -359
-1073 -793 -1494 -216 -210 -437 -366 -699 -492 -118 -57 -328 -139 -355 -139
-4 0 202 837 458 1860 l465 1860 36 -6 c20 -4 73 -17 119 -30z m-1745 -4201
c-3 -16 -239 -957 -523 -2093 l-516 -2065 -795 -3 c-775 -3 -940 2 -1018 29
l-33 12 4 81 c3 64 107 492 502 2074 l498 1992 944 0 944 0 -7 -27z m822 -8
c202 -51 345 -133 495 -284 175 -175 295 -400 361 -677 68 -285 67 -667 -2
-1014 -147 -733 -585 -1388 -1209 -1805 -149 -100 -393 -220 -550 -272 -182
-60 -420 -108 -420 -84 0 9 994 3993 1031 4135 l10 39 96 -7 c53 -4 137 -18
188 -31z"/>
</g>
</svg>
