<?xml version="1.0" standalone="no"?>
<!DOCTYPE svg PUBLIC "-//W3C//DTD SVG 20010904//EN"
 "http://www.w3.org/TR/2001/REC-SVG-20010904/DTD/svg10.dtd">
<svg version="1.0" xmlns="http://www.w3.org/2000/svg"
 width="294.000000pt" height="269.000000pt" viewBox="0 0 294.000000 269.000000"
 preserveAspectRatio="xMidYMid meet">
<metadata>
Created by potrace 1.16, written by Peter Selinger 2001-2019
</metadata>
<g transform="translate(0.000000,269.000000) scale(0.100000,-0.100000)"
fill="#000000" stroke="none">
<path d="M2370 2671 c-76 -24 -147 -62 -206 -109 -71 -56 -2126 -2157 -2146
-2195 -24 -43 -23 -104 3 -147 43 -70 158 -187 201 -205 85 -34 18 -81 1311
916 706 545 1216 945 1250 981 36 39 73 93 100 147 l42 84 0 116 c0 109 -2
120 -31 181 -57 119 -142 193 -262 230 -80 25 -187 25 -262 1z"/>
</g>
</svg>
