<?xml version="1.0" standalone="no"?>
<!DOCTYPE svg PUBLIC "-//W3C//DTD SVG 20010904//EN"
 "http://www.w3.org/TR/2001/REC-SVG-20010904/DTD/svg10.dtd">
<svg version="1.0" xmlns="http://www.w3.org/2000/svg"
 width="957.000000pt" height="945.000000pt" viewBox="0 0 957.000000 945.000000"
 preserveAspectRatio="xMidYMid meet">
<metadata>
Created by potrace 1.16, written by Peter Selinger 2001-2019
</metadata>
<g transform="translate(0.000000,945.000000) scale(0.100000,-0.100000)"
fill="#000000" stroke="none">
<path d="M6820 9443 c-497 -34 -916 -117 -1395 -278 -728 -244 -1405 -627
-2036 -1151 -194 -161 -637 -603 -796 -794 -326 -392 -573 -768 -789 -1202
l-89 -178 -605 0 c-582 0 -606 -1 -637 -20 -18 -10 -39 -29 -47 -42 -16 -25
-86 -293 -86 -330 0 -37 34 -90 71 -110 31 -17 70 -18 567 -18 445 0 533 -2
529 -14 -16 -40 -81 -270 -111 -391 -28 -113 -86 -389 -86 -410 0 -3 -254 -5
-565 -5 -619 0 -617 0 -652 -58 -10 -16 -35 -99 -56 -185 l-39 -156 19 -38
c10 -21 33 -48 52 -60 l34 -23 572 0 571 0 -4 -218 c-39 -1918 1088 -3383
2848 -3701 306 -55 268 -54 1627 -58 1371 -4 1311 -7 1348 50 30 46 1387 3422
1392 3462 5 51 -22 102 -68 127 -28 15 -58 18 -189 18 -136 0 -159 -2 -187
-20 -18 -10 -39 -29 -47 -42 -8 -13 -69 -158 -136 -323 -318 -785 -520 -1246
-718 -1641 -180 -360 -266 -495 -411 -646 -209 -218 -441 -373 -661 -439 -74
-23 -85 -23 -660 -27 -614 -4 -743 2 -940 39 -310 60 -623 212 -882 428 -438
367 -755 975 -877 1681 -48 280 -55 380 -56 745 0 193 4 398 8 457 l9 108 481
0 c1097 0 1587 -60 1937 -235 247 -124 385 -316 447 -621 28 -139 25 -518 -5
-724 -29 -196 -87 -479 -152 -738 -27 -112 -50 -220 -50 -240 0 -20 9 -52 20
-70 32 -53 69 -62 242 -62 166 0 197 8 232 63 17 25 756 2977 756 3018 0 38
-33 91 -71 111 -32 17 -111 18 -1897 18 l-1862 0 5 22 c3 13 16 77 30 143 34
162 96 399 140 540 l36 115 1890 0 c2078 0 1938 -4 1978 61 19 31 761 2981
761 3025 0 30 -36 82 -72 104 -29 18 -51 20 -186 20 -168 0 -206 -9 -237 -57
-9 -13 -45 -138 -81 -276 -191 -747 -368 -1176 -626 -1518 -429 -570 -963
-778 -2128 -829 -321 -14 -1090 -13 -1090 1 0 20 165 353 246 496 601 1069
1495 1916 2449 2321 328 139 648 222 975 251 178 17 1326 14 1421 -3 201 -36
381 -159 492 -338 68 -108 78 -161 84 -436 8 -342 -20 -700 -112 -1431 -44
-346 -45 -355 -28 -390 10 -20 33 -46 52 -58 32 -21 45 -23 190 -23 175 0 211
10 244 67 14 24 60 357 214 1529 l196 1498 -19 35 c-10 20 -34 46 -53 58 l-34
23 -1296 -2 c-713 -1 -1316 -3 -1341 -5z"/>
</g>
</svg>
