<?xml version="1.0" standalone="no"?>
<!DOCTYPE svg PUBLIC "-//W3C//DTD SVG 20010904//EN"
 "http://www.w3.org/TR/2001/REC-SVG-20010904/DTD/svg10.dtd">
<svg version="1.0" xmlns="http://www.w3.org/2000/svg"
 width="632.000000pt" height="1115.000000pt" viewBox="0 0 632.000000 1115.000000"
 preserveAspectRatio="xMidYMid meet">
<metadata>
Created by potrace 1.16, written by Peter Selinger 2001-2019
</metadata>
<g transform="translate(0.000000,1115.000000) scale(0.100000,-0.100000)"
fill="#000000" stroke="none">
<path d="M4268 11130 c-20 -11 -45 -34 -56 -52 -10 -18 -45 -136 -76 -263 -31
-126 -61 -246 -66 -266 l-10 -36 -87 -12 c-263 -37 -611 -155 -898 -305 -335
-175 -616 -387 -903 -680 -385 -395 -673 -857 -843 -1356 -282 -821 -220
-1609 169 -2191 130 -193 274 -340 461 -467 176 -121 322 -187 601 -271 91
-27 164 -53 164 -58 -1 -4 -221 -887 -489 -1961 l-488 -1954 -56 7 c-95 12
-272 61 -366 102 -349 151 -573 440 -655 842 -22 109 -43 339 -38 421 l3 54
100 17 c119 20 175 38 275 90 259 134 430 412 430 699 0 155 -42 264 -139 360
-100 100 -235 150 -406 150 -309 0 -596 -188 -726 -476 -48 -105 -109 -374
-144 -629 -22 -163 -31 -500 -16 -650 33 -342 136 -649 301 -896 84 -126 282
-323 410 -407 219 -145 506 -251 790 -293 44 -6 80 -13 80 -15 0 -3 -25 -103
-55 -224 -61 -243 -65 -286 -34 -337 40 -64 74 -73 286 -73 210 0 239 7 279
67 13 20 47 137 89 302 l67 270 72 11 c98 16 287 64 398 101 326 109 713 324
1013 565 132 106 385 351 504 489 503 581 831 1290 942 2035 26 176 36 530 20
707 -64 684 -373 1233 -866 1540 -158 99 -305 160 -568 238 -72 21 -87 29 -83
43 3 9 202 805 442 1767 240 963 439 1752 441 1755 2 2 48 -3 101 -12 628
-108 987 -502 1028 -1127 l7 -97 -82 -11 c-286 -42 -519 -212 -635 -465 -104
-225 -102 -456 5 -617 48 -72 90 -109 179 -155 100 -52 189 -70 318 -63 195
10 366 84 511 223 143 136 202 253 260 514 115 521 100 989 -46 1380 -211 565
-693 926 -1385 1037 -65 10 -107 21 -105 27 2 6 30 117 62 247 l59 236 -25 48
c-43 87 -51 90 -282 92 -184 3 -205 1 -239 -17z m-372 -1277 c-3 -10 -191
-760 -417 -1668 -226 -907 -415 -1653 -418 -1657 -10 -10 -228 64 -311 106
-501 253 -722 827 -574 1494 176 792 861 1513 1634 1721 93 25 92 25 86 4z
m-497 -4868 c186 -59 323 -143 456 -279 146 -150 244 -331 299 -552 38 -149
49 -252 49 -434 0 -1027 -753 -2087 -1706 -2400 -54 -18 -101 -30 -104 -26 -5
4 918 3716 924 3716 1 0 38 -11 82 -25z"/>
</g>
</svg>
