<?xml version="1.0" standalone="no"?>
<!DOCTYPE svg PUBLIC "-//W3C//DTD SVG 20010904//EN"
 "http://www.w3.org/TR/2001/REC-SVG-20010904/DTD/svg10.dtd">
<svg version="1.0" xmlns="http://www.w3.org/2000/svg"
 width="1269.000000pt" height="1388.000000pt" viewBox="0 0 1269.000000 1388.000000"
 preserveAspectRatio="xMidYMid meet">
<metadata>
Created by potrace 1.16, written by Peter Selinger 2001-2019
</metadata>
<g transform="translate(0.000000,1388.000000) scale(0.100000,-0.100000)"
fill="#000000" stroke="none">
<path d="M7650 13870 c-661 -50 -1300 -200 -1944 -456 -1263 -502 -2430 -1356
-3417 -2499 -877 -1015 -1560 -2257 -1937 -3520 -346 -1155 -439 -2334 -267
-3356 72 -425 168 -777 312 -1144 509 -1292 1456 -2213 2721 -2645 659 -226
1418 -300 2182 -214 1420 161 2907 870 4164 1986 1258 1118 2217 2554 2759
4133 428 1249 561 2564 372 3686 -200 1187 -706 2165 -1490 2883 -699 639
-1573 1022 -2585 1132 -171 18 -700 27 -870 14z m830 -555 c797 -86 1493 -366
2080 -834 718 -574 1227 -1434 1449 -2447 390 -1781 -113 -3964 -1337 -5804
-1053 -1583 -2554 -2797 -4152 -3357 -1001 -351 -2002 -425 -2877 -213 -571
138 -1080 386 -1523 739 -718 574 -1227 1434 -1449 2447 -390 1781 113 3964
1337 5804 1053 1583 2554 2797 4152 3357 508 178 1002 283 1530 323 163 12
618 4 790 -15z"/>
</g>
</svg>
