<?xml version="1.0" standalone="no"?>
<!DOCTYPE svg PUBLIC "-//W3C//DTD SVG 20010904//EN"
 "http://www.w3.org/TR/2001/REC-SVG-20010904/DTD/svg10.dtd">
<svg version="1.0" xmlns="http://www.w3.org/2000/svg"
 width="379.000000pt" height="201.000000pt" viewBox="0 0 379.000000 201.000000"
 preserveAspectRatio="xMidYMid meet">
<metadata>
Created by potrace 1.16, written by Peter Selinger 2001-2019
</metadata>
<g transform="translate(0.000000,201.000000) scale(0.100000,-0.100000)"
fill="#000000" stroke="none">
<path d="M95 1996 c-72 -31 -110 -116 -83 -184 18 -45 1339 -1766 1373 -1788
35 -23 95 -28 132 -12 49 20 2224 1739 2245 1773 23 38 23 101 0 145 -24 46
-93 83 -144 77 -26 -4 -332 -177 -1023 -582 -885 -518 -988 -575 -1003 -562
-234 200 -1364 1123 -1388 1133 -41 17 -70 17 -109 0z"/>
</g>
</svg>
