<?xml version="1.0" standalone="no"?>
<!DOCTYPE svg PUBLIC "-//W3C//DTD SVG 20010904//EN"
 "http://www.w3.org/TR/2001/REC-SVG-20010904/DTD/svg10.dtd">
<svg version="1.0" xmlns="http://www.w3.org/2000/svg"
 width="845.000000pt" height="1162.000000pt" viewBox="0 0 845.000000 1162.000000"
 preserveAspectRatio="xMidYMid meet">
<metadata>
Created by potrace 1.16, written by Peter Selinger 2001-2019
</metadata>
<g transform="translate(0.000000,1162.000000) scale(0.100000,-0.100000)"
fill="#000000" stroke="none">
<path d="M6667 11606 c-58 -21 -114 -62 -141 -104 -14 -20 -1038 -2104 -2277
-4630 -1239 -2526 -2253 -4591 -2255 -4589 -1 1 26 783 62 1737 36 954 63
1761 61 1793 -2 38 -10 67 -24 85 -44 59 -123 81 -190 53 -22 -9 -302 -326
-950 -1073 -505 -584 -926 -1073 -935 -1087 -21 -30 -24 -111 -6 -144 29 -56
142 -194 171 -209 37 -21 104 -23 142 -6 15 7 210 223 433 482 288 333 408
464 410 450 1 -10 -31 -935 -73 -2054 -41 -1119 -75 -2073 -75 -2119 0 -100
19 -140 82 -172 37 -19 55 -21 172 -17 123 3 134 5 185 33 29 16 65 44 80 62
14 17 1232 2491 2706 5497 l2680 5465 641 1 c718 0 695 -2 779 72 71 62 90
106 90 208 0 102 -19 146 -90 208 -85 75 -48 72 -889 72 -606 -1 -758 -4 -789
-14z"/>
</g>
</svg>
