<?xml version="1.0" standalone="no"?>
<!DOCTYPE svg PUBLIC "-//W3C//DTD SVG 20010904//EN"
 "http://www.w3.org/TR/2001/REC-SVG-20010904/DTD/svg10.dtd">
<svg version="1.0" xmlns="http://www.w3.org/2000/svg"
 width="662.000000pt" height="862.000000pt" viewBox="0 0 662.000000 862.000000"
 preserveAspectRatio="xMidYMid meet">
<metadata>
Created by potrace 1.16, written by Peter Selinger 2001-2019
</metadata>
<g transform="translate(0.000000,862.000000) scale(0.100000,-0.100000)"
fill="#000000" stroke="none">
<path d="M6375 8606 c-16 -7 -42 -26 -56 -42 -15 -16 -239 -310 -499 -654
-260 -344 -473 -626 -474 -627 0 -1 -55 12 -121 27 -315 76 -771 109 -1095 80
-992 -89 -2003 -665 -2698 -1535 -438 -549 -720 -1173 -828 -1832 -25 -152
-30 -584 -10 -743 36 -274 106 -509 221 -745 106 -219 216 -378 384 -557 l72
-77 -624 -824 c-344 -453 -630 -833 -636 -845 -17 -33 -13 -103 9 -139 23 -39
89 -83 135 -90 46 -7 96 12 132 50 17 17 304 393 638 835 333 441 611 802 616
802 5 0 34 -16 65 -36 106 -68 336 -173 488 -223 263 -86 452 -118 741 -128
1158 -36 2205 558 2795 1588 77 134 85 170 50 226 -32 54 -63 63 -207 63 -165
0 -171 -4 -247 -140 -222 -397 -544 -751 -892 -982 -487 -324 -1074 -448
-1593 -336 -179 38 -367 123 -524 235 -76 56 -281 258 -275 273 2 4 786 1040
1742 2303 l1739 2296 51 -26 c87 -44 189 -118 249 -181 31 -33 57 -64 57 -69
0 -5 -28 -14 -62 -20 -35 -7 -106 -33 -158 -59 -386 -191 -508 -724 -215 -941
88 -65 167 -88 305 -87 97 0 128 4 195 27 205 68 360 217 432 414 45 124 56
198 56 363 1 140 -2 164 -26 243 -52 170 -153 330 -278 440 -66 59 -213 158
-291 198 -39 20 -56 34 -52 42 4 7 209 278 455 603 245 325 452 600 458 612
17 33 13 103 -9 139 -42 69 -150 109 -215 79z m-1759 -1596 c236 -19 461 -58
456 -79 -3 -16 -3304 -4380 -3313 -4380 -21 -2 -96 259 -126 434 -25 154 -25
603 0 785 92 650 327 1342 624 1840 387 647 943 1121 1549 1319 248 81 496
106 810 81z"/>
</g>
</svg>
