<?xml version="1.0" standalone="no"?>
<!DOCTYPE svg PUBLIC "-//W3C//DTD SVG 20010904//EN"
 "http://www.w3.org/TR/2001/REC-SVG-20010904/DTD/svg10.dtd">
<svg version="1.0" xmlns="http://www.w3.org/2000/svg"
 width="740.000000pt" height="1038.000000pt" viewBox="0 0 740.000000 1038.000000"
 preserveAspectRatio="xMidYMid meet">
<metadata>
Created by potrace 1.16, written by Peter Selinger 2001-2019
</metadata>
<g transform="translate(0.000000,1038.000000) scale(0.100000,-0.100000)"
fill="#000000" stroke="none">
<path d="M7030 10371 c-49 -16 -85 -40 -126 -83 -23 -24 -1579 -2257 -3459
-4962 -2372 -3414 -3422 -4933 -3431 -4964 -32 -103 -7 -200 69 -277 110 -109
272 -114 381 -12 47 44 6877 9865 6904 9927 20 47 20 155 -1 203 -45 104 -135
168 -246 173 -36 2 -77 0 -91 -5z"/>
<path d="M3660 10218 c-238 -21 -503 -156 -686 -350 -85 -89 -137 -164 -191
-273 -82 -163 -107 -281 -101 -462 8 -214 67 -352 213 -498 143 -144 325 -216
544 -217 173 0 299 31 461 112 317 159 548 457 611 787 7 37 10 113 7 190 -8
214 -67 352 -213 498 -163 164 -383 237 -645 213z"/>
<path d="M3890 1963 c-334 -29 -638 -202 -833 -476 -65 -90 -141 -252 -168
-357 -116 -449 130 -865 564 -956 86 -19 247 -20 337 -5 278 50 554 226 723
464 65 90 141 252 168 357 102 395 -76 773 -431 917 -99 39 -260 65 -360 56z"/>
</g>
</svg>
