<?xml version="1.0" standalone="no"?>
<!DOCTYPE svg PUBLIC "-//W3C//DTD SVG 20010904//EN"
 "http://www.w3.org/TR/2001/REC-SVG-20010904/DTD/svg10.dtd">
<svg version="1.0" xmlns="http://www.w3.org/2000/svg"
 width="407.000000pt" height="175.000000pt" viewBox="0 0 407.000000 175.000000"
 preserveAspectRatio="xMidYMid meet">
<metadata>
Created by potrace 1.16, written by Peter Selinger 2001-2019
</metadata>
<g transform="translate(0.000000,175.000000) scale(0.100000,-0.100000)"
fill="#000000" stroke="none">
<path d="M2125 1739 c-585 -56 -1193 -330 -1603 -723 -227 -218 -401 -482
-488 -741 -45 -136 -45 -183 0 -233 l34 -37 236 0 235 0 31 30 c20 19 37 51
50 96 123 411 597 793 1159 933 185 47 302 60 516 60 149 0 225 -5 300 -18
285 -52 475 -143 635 -305 138 -140 194 -271 194 -451 1 -58 -3 -142 -8 -186
l-9 -81 36 -39 35 -39 236 0 235 0 30 29 c17 16 35 43 40 60 23 68 41 215 41
321 0 559 -375 1027 -985 1229 -273 91 -623 126 -950 95z"/>
</g>
</svg>
