<?xml version="1.0" standalone="no"?>
<!DOCTYPE svg PUBLIC "-//W3C//DTD SVG 20010904//EN"
 "http://www.w3.org/TR/2001/REC-SVG-20010904/DTD/svg10.dtd">
<svg version="1.0" xmlns="http://www.w3.org/2000/svg"
 width="376.000000pt" height="168.000000pt" viewBox="0 0 376.000000 168.000000"
 preserveAspectRatio="xMidYMid meet">
<metadata>
Created by potrace 1.16, written by Peter Selinger 2001-2019
</metadata>
<g transform="translate(0.000000,168.000000) scale(0.100000,-0.100000)"
fill="#000000" stroke="none">
<path d="M2015 1673 c-893 -77 -1736 -676 -1979 -1405 -37 -108 -42 -157 -22
-199 28 -60 55 -69 216 -69 l142 0 32 33 c23 22 40 55 55 107 88 290 331 581
656 785 486 305 1122 389 1593 212 144 -54 243 -118 358 -232 87 -87 107 -113
147 -195 80 -163 103 -309 73 -478 -20 -113 -20 -126 -1 -166 27 -57 56 -66
214 -66 139 0 141 0 172 28 50 45 70 134 76 342 4 149 2 189 -15 270 -56 268
-195 501 -402 673 -239 199 -536 317 -892 356 -90 10 -329 12 -423 4z"/>
</g>
</svg>
