<?xml version="1.0" standalone="no"?>
<!DOCTYPE svg PUBLIC "-//W3C//DTD SVG 20010904//EN"
 "http://www.w3.org/TR/2001/REC-SVG-20010904/DTD/svg10.dtd">
<svg version="1.0" xmlns="http://www.w3.org/2000/svg"
 width="752.000000pt" height="1230.000000pt" viewBox="0 0 752.000000 1230.000000"
 preserveAspectRatio="xMidYMid meet">
<metadata>
Created by potrace 1.16, written by Peter Selinger 2001-2019
</metadata>
<g transform="translate(0.000000,1230.000000) scale(0.100000,-0.100000)"
fill="#000000" stroke="none">
<path d="M3770 12293 c-188 -17 -274 -28 -390 -49 -806 -146 -1611 -591 -2230
-1230 -613 -634 -1003 -1390 -1127 -2184 -28 -178 -25 -572 5 -740 91 -513
298 -915 657 -1276 71 -72 176 -168 232 -212 487 -384 1113 -624 1846 -706 71
-8 130 -16 132 -18 3 -2 -1260 -5069 -1316 -5280 l-10 -38 -444 0 c-419 0
-447 -1 -497 -20 -58 -21 -123 -81 -154 -140 -14 -26 -19 -57 -19 -120 0 -100
18 -143 87 -207 87 -79 -80 -74 1988 -71 l1845 3 55 31 c98 56 160 171 146
273 -13 98 -68 175 -160 224 -40 21 -51 22 -428 25 -214 2 -388 5 -388 7 0 3
628 2518 1396 5590 l1396 5585 444 0 c418 0 446 1 496 20 58 21 123 81 154
140 26 49 26 191 0 240 -31 59 -96 119 -154 140 -52 20 -78 20 -1790 18 -955
0 -1753 -3 -1772 -5z m2040 -563 c0 -8 -2745 -10998 -2781 -11132 l-10 -38
-434 0 c-239 0 -435 2 -435 5 0 3 628 2518 1396 5590 l1396 5585 434 0 c283 0
434 -3 434 -10z"/>
</g>
</svg>
