<?xml version="1.0" standalone="no"?>
<!DOCTYPE svg PUBLIC "-//W3C//DTD SVG 20010904//EN"
 "http://www.w3.org/TR/2001/REC-SVG-20010904/DTD/svg10.dtd">
<svg version="1.0" xmlns="http://www.w3.org/2000/svg"
 width="603.000000pt" height="1230.000000pt" viewBox="0 0 603.000000 1230.000000"
 preserveAspectRatio="xMidYMid meet">
<metadata>
Created by potrace 1.16, written by Peter Selinger 2001-2019
</metadata>
<g transform="translate(0.000000,1230.000000) scale(0.100000,-0.100000)"
fill="#000000" stroke="none">
<path d="M3798 12278 c-44 -26 -63 -60 -123 -231 -186 -523 -522 -1076 -932
-1534 -663 -740 -1541 -1288 -2431 -1518 -160 -41 -196 -57 -221 -99 -21 -33
-91 -297 -91 -341 0 -40 37 -104 73 -125 49 -30 115 -25 283 21 1030 281 1986
882 2730 1718 7 7 -546 -2221 -1229 -4951 l-1241 -4964 13 -57 c16 -73 62
-134 126 -166 73 -38 178 -37 257 2 64 31 122 90 149 151 10 23 581 2293 1269
5046 688 2752 1252 5006 1254 5007 1 1 17 -34 35 -80 56 -138 184 -379 274
-514 383 -575 974 -1003 1658 -1202 125 -36 181 -39 227 -11 49 30 67 69 107
232 33 132 36 154 26 188 -15 52 -62 97 -114 110 -93 25 -315 102 -415 146
-491 212 -901 580 -1165 1044 -298 522 -406 1179 -306 1864 22 153 20 182 -19
228 -50 59 -129 74 -194 36z"/>
</g>
</svg>
