<?xml version="1.0" standalone="no"?>
<!DOCTYPE svg PUBLIC "-//W3C//DTD SVG 20010904//EN"
 "http://www.w3.org/TR/2001/REC-SVG-20010904/DTD/svg10.dtd">
<svg version="1.0" xmlns="http://www.w3.org/2000/svg"
 width="698.000000pt" height="1338.000000pt" viewBox="0 0 698.000000 1338.000000"
 preserveAspectRatio="xMidYMid meet">
<metadata>
Created by potrace 1.16, written by Peter Selinger 2001-2019
</metadata>
<g transform="translate(0.000000,1338.000000) scale(0.100000,-0.100000)"
fill="#000000" stroke="none">
<path d="M4915 13370 c-266 -25 -596 -97 -840 -185 -386 -138 -759 -378 -975
-627 -226 -260 -370 -585 -370 -835 0 -191 54 -318 194 -458 76 -75 107 -99
186 -138 121 -60 255 -96 390 -103 86 -5 116 -11 165 -34 33 -15 69 -35 80
-43 20 -15 20 -15 -1 -39 -47 -50 -57 -105 -29 -158 46 -90 155 -95 258 -12
l38 31 43 -19 c82 -35 150 -43 210 -26 84 25 135 69 179 156 53 106 74 199 58
258 -6 25 -20 57 -31 72 -23 32 -85 60 -133 60 -36 0 -126 -39 -174 -76 -39
-30 -46 -30 -39 -1 3 12 -1 7 -9 -10 -13 -28 -87 -94 -104 -93 -3 1 -28 33
-56 72 -74 104 -166 200 -224 231 -37 21 -74 31 -138 37 -106 12 -141 21 -198
54 -90 53 -145 150 -145 256 0 95 57 266 128 385 274 460 868 773 1587 835
579 51 973 -139 1050 -505 33 -159 13 -391 -60 -680 -110 -438 -261 -698 -516
-890 -167 -125 -368 -211 -603 -257 -101 -19 -155 -22 -596 -27 -528 -7 -516
-5 -554 -64 -16 -23 -86 -292 -86 -327 0 -31 35 -93 62 -110 19 -13 98 -16
478 -21 421 -6 461 -8 538 -27 154 -40 280 -119 357 -223 131 -178 130 -415
-1 -944 -101 -407 -204 -648 -362 -847 -158 -198 -412 -367 -693 -462 -264
-88 -623 -119 -839 -72 -453 98 -734 510 -757 1114 l-6 142 52 0 c29 0 87 7
129 16 320 66 553 313 603 641 47 311 -173 553 -503 553 -206 0 -418 -100
-556 -262 -144 -170 -226 -474 -239 -888 -12 -384 52 -697 202 -989 203 -394
518 -634 962 -733 86 -20 128 -22 343 -22 135 0 295 5 355 12 653 75 1243 300
1723 656 140 104 406 371 494 496 167 236 264 487 288 745 46 496 -213 969
-676 1238 -41 23 -74 44 -74 47 0 3 33 18 73 34 97 38 310 149 427 221 142 88
282 198 404 315 290 280 460 554 549 890 29 109 31 125 31 300 0 170 -2 193
-27 285 -35 127 -129 319 -206 422 -242 321 -648 539 -1156 619 -120 18 -514
27 -660 14z"/>
<path d="M967 6806 c-98 -36 -166 -111 -188 -212 -31 -136 62 -286 201 -324
22 -6 934 -10 2547 -10 2484 0 2513 0 2565 20 58 21 123 81 154 140 26 49 26
191 0 240 -31 59 -96 119 -154 140 -52 20 -81 20 -2570 20 -2091 -1 -2523 -3
-2555 -14z"/>
<path d="M4160 6014 c-30 -8 -85 -29 -123 -48 l-67 -34 -43 23 c-187 105 -459
53 -632 -120 -86 -86 -132 -171 -173 -320 -213 -772 -861 -1440 -1887 -1945
-338 -166 -832 -357 -1113 -430 -24 -6 -60 -26 -79 -44 -29 -27 -36 -41 -40
-82 -5 -45 -1 -54 36 -109 103 -153 167 -215 221 -215 25 0 199 50 405 117
142 45 167 43 502 -43 295 -75 406 -94 556 -94 139 0 362 -16 552 -40 238 -30
685 -103 685 -112 0 -4 -115 -468 -256 -1030 -253 -1013 -255 -1024 -252
-1113 3 -73 9 -102 32 -152 98 -215 382 -286 634 -159 131 66 232 171 284 295
11 29 134 505 273 1059 l251 1007 60 2 c147 7 515 36 794 64 334 33 359 39
392 100 35 63 22 104 -77 235 -59 79 -97 120 -118 129 -26 10 -67 11 -197 5
-91 -5 -290 -9 -444 -10 l-278 0 6 23 c49 183 647 2596 651 2633 13 97 -29
224 -100 302 -40 45 -117 89 -189 108 -65 18 -195 17 -266 -2z m-912 -2354
c-83 -333 -154 -609 -158 -613 -4 -4 -87 6 -186 22 -468 78 -719 108 -999 118
l-190 6 80 36 c149 66 509 248 645 326 172 98 446 280 575 380 104 81 299 250
349 304 16 17 31 30 32 28 2 -1 -65 -275 -148 -607z"/>
</g>
</svg>
