<?xml version="1.0" standalone="no"?>
<!DOCTYPE svg PUBLIC "-//W3C//DTD SVG 20010904//EN"
 "http://www.w3.org/TR/2001/REC-SVG-20010904/DTD/svg10.dtd">
<svg version="1.0" xmlns="http://www.w3.org/2000/svg"
 width="1057.000000pt" height="907.000000pt" viewBox="0 0 1057.000000 907.000000"
 preserveAspectRatio="xMidYMid meet">
<metadata>
Created by potrace 1.16, written by Peter Selinger 2001-2019
</metadata>
<g transform="translate(0.000000,907.000000) scale(0.100000,-0.100000)"
fill="#000000" stroke="none">
<path d="M2281 9052 c-51 -25 -69 -57 -98 -168 -28 -110 -26 -157 6 -202 40
-57 56 -59 416 -66 182 -3 377 -10 435 -16 147 -14 301 -41 306 -54 2 -6 -151
-627 -339 -1381 l-343 -1370 -785 -5 c-768 -5 -785 -5 -819 -26 -107 -62 -115
-199 -17 -278 l39 -31 748 -3 747 -2 -280 -1120 -279 -1120 -775 0 c-852 0
-812 3 -870 -63 -72 -82 -46 -214 51 -258 39 -18 81 -19 774 -19 402 0 732 -2
732 -5 0 -3 -92 -374 -205 -826 -128 -511 -218 -852 -240 -906 -66 -163 -175
-313 -299 -412 -219 -173 -557 -271 -944 -271 -139 0 -175 -33 -216 -195 -30
-122 -26 -162 21 -207 52 -48 58 -49 265 -38 106 5 412 15 679 21 501 12 1170
3 1647 -22 117 -6 228 -8 247 -5 20 4 50 21 69 40 28 29 38 51 61 144 30 123
28 155 -12 203 -40 47 -73 59 -163 59 -380 0 -667 94 -774 255 -56 83 -71 142
-71 290 l0 130 219 873 218 872 1601 -2 1601 -3 501 -1385 c276 -762 511
-1398 521 -1415 34 -53 73 -65 217 -65 93 0 136 4 156 15 71 36 54 -23 426
1464 l347 1391 777 0 c735 0 778 1 817 19 97 44 123 176 51 258 -58 66 -22 63
-827 63 -401 0 -730 3 -730 8 0 4 126 507 278 1117 l278 1110 790 5 791 5 36
28 c49 37 67 75 67 140 0 68 -28 113 -90 145 l-44 22 -732 0 -732 0 259 1035
c263 1050 284 1125 362 1257 79 136 205 264 333 339 212 125 437 183 769 196
221 8 241 21 281 174 30 119 31 166 1 210 -43 65 -68 70 -283 59 -104 -5 -409
-15 -679 -21 -505 -12 -1137 -3 -1651 22 -220 11 -234 11 -270 -7 -53 -27 -72
-57 -99 -165 -29 -111 -30 -140 -9 -185 32 -68 59 -78 239 -86 259 -12 397
-39 532 -104 200 -96 285 -271 254 -523 -7 -57 -118 -521 -275 -1146 l-262
-1050 -1160 -3 -1160 -2 -575 1587 c-315 873 -583 1600 -594 1617 -11 17 -36
41 -54 53 l-34 23 -1071 0 c-1000 0 -1073 -1 -1105 -18z m1874 -2104 c226
-622 411 -1137 413 -1144 3 -12 -115 -14 -701 -14 l-704 0 286 1145 c157 630
288 1145 291 1145 3 0 190 -509 415 -1132z m741 -2045 c109 -302 291 -804 405
-1118 l206 -570 -1490 -3 c-820 -1 -1492 0 -1494 2 -3 3 539 2186 552 2224 3
9 175 12 813 12 l809 0 199 -547z m2771 -573 l-280 -1120 -370 2 -370 3 -399
1100 c-219 605 -401 1108 -404 1118 -5 16 49 17 1049 17 l1055 0 -281 -1120z
m-367 -1465 c0 -9 -211 -849 -214 -852 -2 -2 -65 169 -141 379 -76 211 -146
404 -156 431 l-19 47 265 0 c146 0 265 -2 265 -5z"/>
</g>
</svg>
