<?xml version="1.0" standalone="no"?>
<!DOCTYPE svg PUBLIC "-//W3C//DTD SVG 20010904//EN"
 "http://www.w3.org/TR/2001/REC-SVG-20010904/DTD/svg10.dtd">
<svg version="1.0" xmlns="http://www.w3.org/2000/svg"
 width="378.000000pt" height="589.000000pt" viewBox="0 0 378.000000 589.000000"
 preserveAspectRatio="xMidYMid meet">
<metadata>
Created by potrace 1.16, written by Peter Selinger 2001-2019
</metadata>
<g transform="translate(0.000000,589.000000) scale(0.100000,-0.100000)"
fill="#000000" stroke="none">
<path d="M3510 5879 c-13 -5 -92 -76 -175 -157 -177 -175 -309 -282 -500 -408
-495 -325 -1046 -507 -1616 -533 -239 -11 -251 -19 -305 -235 -43 -171 -38
-204 40 -264 27 -20 39 -22 170 -22 368 0 859 105 1220 261 50 21 92 36 94 34
3 -2 -202 -829 -453 -1837 -425 -1699 -462 -1839 -502 -1920 -56 -113 -118
-170 -212 -198 -158 -46 -315 -61 -741 -69 -343 -6 -367 -7 -400 -26 -19 -12
-43 -35 -53 -53 -25 -42 -76 -244 -77 -298 0 -50 31 -100 80 -128 35 -21 38
-21 1770 -21 1651 0 1737 1 1768 18 48 26 67 65 103 211 35 143 35 184 -2 230
-46 59 -53 60 -439 67 -362 7 -518 21 -641 55 -81 23 -93 42 -92 148 1 72 70
355 612 2524 336 1343 611 2461 611 2483 0 89 -72 150 -177 148 -32 0 -69 -5
-83 -10z m-385 -5858 c83 -4 -507 -7 -1310 -7 -803 0 -1428 2 -1390 3 424 21
2290 24 2700 4z"/>
</g>
</svg>
