<?xml version="1.0" standalone="no"?>
<!DOCTYPE svg PUBLIC "-//W3C//DTD SVG 20010904//EN"
 "http://www.w3.org/TR/2001/REC-SVG-20010904/DTD/svg10.dtd">
<svg version="1.0" xmlns="http://www.w3.org/2000/svg"
 width="555.000000pt" height="1328.000000pt" viewBox="0 0 555.000000 1328.000000"
 preserveAspectRatio="xMidYMid meet">
<metadata>
Created by potrace 1.16, written by Peter Selinger 2001-2019
</metadata>
<g transform="translate(0.000000,1328.000000) scale(0.100000,-0.100000)"
fill="#000000" stroke="none">
<path d="M3323 13260 c-37 -22 -51 -45 -69 -115 -19 -69 -17 -104 6 -142 31
-51 65 -63 179 -63 508 0 923 -227 1106 -605 54 -111 81 -206 96 -342 23 -203
32 -160 -445 -2067 -466 -1862 -452 -1814 -570 -2022 -287 -510 -870 -927
-1464 -1049 -125 -26 -288 -45 -381 -45 -100 0 -139 -42 -164 -172 -9 -49 -8
-64 6 -93 27 -57 61 -71 195 -78 508 -28 895 -253 1084 -632 94 -188 129 -429
97 -662 -13 -97 -848 -3442 -885 -3544 -199 -558 -763 -1053 -1388 -1219 -159
-42 -280 -60 -451 -67 -211 -8 -226 -17 -260 -156 -16 -62 -16 -67 3 -109 32
-74 62 -82 267 -75 568 22 1135 162 1596 395 582 295 970 709 1128 1205 52
163 858 3404 875 3518 73 493 -120 925 -550 1235 -102 74 -341 198 -461 240
-46 16 -83 32 -83 35 0 3 30 14 68 24 115 31 321 105 462 167 660 288 1139
763 1320 1307 37 114 853 3372 875 3498 19 105 22 332 5 422 -42 233 -154 454
-313 619 -322 334 -875 551 -1531 602 -209 16 -315 13 -353 -10z"/>
</g>
</svg>
