<?xml version="1.0" standalone="no"?>
<!DOCTYPE svg PUBLIC "-//W3C//DTD SVG 20010904//EN"
 "http://www.w3.org/TR/2001/REC-SVG-20010904/DTD/svg10.dtd">
<svg version="1.0" xmlns="http://www.w3.org/2000/svg"
 width="619.000000pt" height="954.000000pt" viewBox="0 0 619.000000 954.000000"
 preserveAspectRatio="xMidYMid meet">
<metadata>
Created by potrace 1.16, written by Peter Selinger 2001-2019
</metadata>
<g transform="translate(0.000000,954.000000) scale(0.100000,-0.100000)"
fill="#000000" stroke="none">
<path d="M4660 9534 c-378 -43 -684 -128 -1020 -283 -824 -379 -1613 -1102
-2245 -2056 -179 -270 -285 -453 -435 -750 -286 -567 -462 -1049 -634 -1740
-239 -963 -338 -1679 -323 -2330 14 -575 105 -1027 281 -1390 236 -487 618
-807 1110 -930 183 -46 322 -59 540 -52 270 10 466 43 704 119 477 152 895
426 1391 913 485 475 778 902 996 1455 146 370 281 897 331 1295 25 191 25
564 1 726 -49 327 -170 669 -343 965 -107 184 -176 275 -304 405 -252 254
-547 389 -939 428 -674 69 -1270 -191 -1821 -794 -40 -44 -71 -73 -68 -65 3 9
18 60 32 115 130 483 309 1005 471 1370 336 759 784 1327 1346 1705 459 310
966 428 1369 319 156 -42 299 -147 363 -266 l28 -52 -28 -7 c-194 -44 -330
-119 -450 -248 -136 -146 -209 -315 -220 -511 -15 -254 134 -457 382 -520 86
-22 253 -20 346 5 234 61 426 215 533 427 82 163 134 494 116 728 -44 541
-392 895 -985 1001 -86 15 -442 28 -525 18z m-1055 -3749 c279 -59 449 -222
550 -529 108 -331 52 -740 -284 -2081 -225 -899 -336 -1249 -501 -1590 -82
-171 -157 -284 -285 -433 -259 -301 -543 -478 -875 -543 -151 -30 -398 -33
-505 -6 -309 78 -539 359 -614 751 -40 208 -37 351 15 701 47 318 171 943 213
1080 11 33 38 140 61 239 150 634 404 1233 702 1650 319 447 684 707 1083 771
113 18 330 13 440 -10z"/>
</g>
</svg>
