<?xml version="1.0" standalone="no"?>
<!DOCTYPE svg PUBLIC "-//W3C//DTD SVG 20010904//EN"
 "http://www.w3.org/TR/2001/REC-SVG-20010904/DTD/svg10.dtd">
<svg version="1.0" xmlns="http://www.w3.org/2000/svg"
 width="1141.000000pt" height="975.000000pt" viewBox="0 0 1141.000000 975.000000"
 preserveAspectRatio="xMidYMid meet">
<metadata>
Created by potrace 1.16, written by Peter Selinger 2001-2019
</metadata>
<g transform="translate(0.000000,975.000000) scale(0.100000,-0.100000)"
fill="#000000" stroke="none">
<path d="M8473 9734 c-178 -39 -341 -140 -528 -328 -150 -151 -269 -301 -430
-541 -232 -347 -400 -690 -531 -1085 -27 -83 -277 -1064 -583 -2288 l-536
-2144 -399 3063 c-219 1684 -402 3074 -408 3088 -13 36 -47 71 -85 87 -27 12
-223 14 -1135 14 -1030 0 -1105 -1 -1138 -18 -53 -26 -75 -70 -110 -212 -35
-145 -33 -182 8 -232 45 -53 70 -58 309 -58 354 -1 657 -21 824 -56 l76 -16
-867 -3467 c-478 -1906 -887 -3529 -910 -3606 -112 -372 -243 -664 -411 -914
-114 -170 -195 -261 -323 -361 -11 -8 2 17 29 55 96 139 152 298 162 461 18
282 -142 504 -418 580 -93 26 -278 24 -384 -5 -278 -74 -505 -272 -610 -529
-49 -122 -69 -225 -68 -367 0 -101 5 -148 22 -210 81 -301 319 -522 656 -611
86 -23 122 -27 255 -28 184 -1 251 14 409 93 239 120 488 368 721 716 232 348
413 738 545 1176 25 85 370 1452 767 3039 396 1587 724 2888 727 2892 4 4 231
-1717 505 -3825 545 -4196 499 -3883 577 -3926 37 -21 50 -22 208 -19 184 3
198 7 243 69 10 15 371 1441 933 3686 503 2014 935 3728 961 3810 85 273 196
541 310 745 120 215 281 444 374 533 l42 40 -31 -49 c-76 -122 -130 -309 -131
-451 0 -264 159 -469 421 -541 93 -26 278 -24 384 5 254 68 459 232 576 458
135 264 141 567 14 811 -130 252 -371 416 -689 467 -111 18 -249 18 -333 -1z"/>
<path d="M10277 7695 c-221 -42 -454 -158 -677 -335 -155 -124 -361 -346 -496
-535 -378 -528 -615 -1253 -591 -1810 26 -592 290 -1010 724 -1142 78 -23 105
-26 238 -27 114 -1 169 4 230 18 710 165 1360 908 1595 1820 166 648 113 1243
-146 1632 -128 194 -290 313 -504 370 -81 22 -278 27 -373 9z m189 -423 c76
-39 132 -122 159 -234 26 -113 20 -176 -45 -450 -91 -380 -438 -1760 -469
-1863 -31 -103 -74 -174 -158 -259 -271 -276 -610 -216 -665 117 -13 76 -15
69 263 1177 277 1108 275 1102 340 1206 102 162 222 269 353 316 66 24 165 19
222 -10z"/>
<path d="M7670 3038 c-25 -13 -53 -37 -63 -56 -23 -39 -76 -243 -77 -290 0
-51 35 -109 80 -132 39 -20 55 -20 1587 -20 1488 0 1550 1 1583 19 52 27 67
55 100 181 49 187 37 256 -54 299 -42 21 -45 21 -1577 21 l-1535 0 -44 -22z"/>
</g>
</svg>
