<?xml version="1.0" standalone="no"?>
<!DOCTYPE svg PUBLIC "-//W3C//DTD SVG 20010904//EN"
 "http://www.w3.org/TR/2001/REC-SVG-20010904/DTD/svg10.dtd">
<svg version="1.0" xmlns="http://www.w3.org/2000/svg"
 width="239.000000pt" height="167.000000pt" viewBox="0 0 239.000000 167.000000"
 preserveAspectRatio="xMidYMid meet">
<metadata>
Created by potrace 1.16, written by Peter Selinger 2001-2019
</metadata>
<g transform="translate(0.000000,167.000000) scale(0.100000,-0.100000)"
fill="#000000" stroke="none">
<path d="M433 1655 c-184 -40 -371 -225 -423 -417 -20 -75 -9 -202 22 -263 28
-54 105 -133 157 -159 17 -9 451 -195 964 -413 998 -424 986 -420 1051 -378
40 26 154 180 168 227 14 49 -1 104 -39 140 -59 55 -1590 1211 -1633 1233 -44
22 -142 46 -184 44 -12 0 -49 -7 -83 -14z"/>
</g>
</svg>
