<?xml version="1.0" standalone="no"?>
<!DOCTYPE svg PUBLIC "-//W3C//DTD SVG 20010904//EN"
 "http://www.w3.org/TR/2001/REC-SVG-20010904/DTD/svg10.dtd">
<svg version="1.0" xmlns="http://www.w3.org/2000/svg"
 width="849.000000pt" height="792.000000pt" viewBox="0 0 849.000000 792.000000"
 preserveAspectRatio="xMidYMid meet">
<metadata>
Created by potrace 1.16, written by Peter Selinger 2001-2019
</metadata>
<g transform="translate(0.000000,792.000000) scale(0.100000,-0.100000)"
fill="#000000" stroke="none">
<path d="M5002 7909 c-35 -5 -107 -23 -160 -40 -473 -151 -827 -589 -849
-1050 -19 -391 199 -701 574 -816 80 -24 102 -27 248 -26 142 0 171 3 260 27
119 32 292 114 392 185 459 326 640 890 422 1313 -34 65 -64 104 -139 179 -85
86 -107 102 -200 147 -58 28 -134 58 -170 67 -78 20 -290 28 -378 14z"/>
<path d="M197 4226 c-136 -49 -215 -184 -187 -320 21 -101 103 -190 201 -216
24 -7 1451 -9 4050 -8 l4014 3 53 29 c95 53 145 138 145 246 0 108 -50 193
-145 246 l-53 29 -4020 2 c-3364 2 -4026 0 -4058 -11z"/>
<path d="M3516 1940 c-160 -26 -365 -110 -503 -209 -459 -326 -640 -890 -422
-1313 34 -65 64 -104 139 -179 85 -86 107 -102 200 -147 126 -61 203 -81 335
-89 603 -36 1193 494 1222 1098 19 391 -202 705 -574 815 -99 29 -290 40 -397
24z"/>
</g>
</svg>
