<?xml version="1.0" standalone="no"?>
<!DOCTYPE svg PUBLIC "-//W3C//DTD SVG 20010904//EN"
 "http://www.w3.org/TR/2001/REC-SVG-20010904/DTD/svg10.dtd">
<svg version="1.0" xmlns="http://www.w3.org/2000/svg"
 width="643.000000pt" height="927.000000pt" viewBox="0 0 643.000000 927.000000"
 preserveAspectRatio="xMidYMid meet">
<metadata>
Created by potrace 1.16, written by Peter Selinger 2001-2019
</metadata>
<g transform="translate(0.000000,927.000000) scale(0.100000,-0.100000)"
fill="#000000" stroke="none">
<path d="M4177 9259 c-621 -64 -1212 -304 -1727 -703 -136 -105 -424 -393
-521 -521 -215 -283 -364 -570 -448 -865 -102 -360 -90 -643 40 -910 45 -91
63 -116 143 -195 74 -74 107 -99 176 -132 133 -65 192 -78 360 -77 128 0 156
4 235 28 189 56 347 150 499 296 350 335 546 835 506 1293 -23 265 -140 617
-223 667 -66 40 -112 26 -238 -76 -100 -82 -108 -117 -54 -243 72 -169 105
-324 105 -497 0 -494 -350 -1001 -729 -1056 -234 -34 -354 89 -368 378 -22
437 211 966 608 1379 422 438 971 727 1543 810 506 74 889 -27 1146 -302 184
-196 260 -424 260 -780 0 -288 -63 -647 -185 -1048 -238 -783 -665 -1286
-1290 -1520 -264 -99 -395 -115 -933 -115 -384 0 -420 -2 -458 -19 -27 -12
-46 -30 -57 -52 -24 -52 -77 -272 -77 -323 0 -51 31 -96 77 -114 18 -7 183
-13 468 -15 481 -5 502 -7 653 -67 95 -39 194 -104 270 -179 266 -262 333
-661 217 -1296 -59 -325 -206 -865 -300 -1105 -236 -603 -603 -1020 -1120
-1275 -778 -384 -1625 -241 -2010 340 -102 154 -169 324 -199 504 -25 145 -26
141 37 141 125 0 317 74 432 167 201 163 319 473 261 690 -60 227 -275 368
-531 350 -282 -20 -535 -204 -641 -466 -30 -73 -57 -183 -80 -316 -22 -128
-25 -474 -6 -585 71 -394 209 -669 466 -925 273 -272 587 -428 1011 -502 140
-24 566 -24 750 0 1138 151 2168 813 2711 1743 219 376 338 782 351 1199 12
378 -53 690 -208 995 -162 317 -389 556 -705 739 l-65 38 73 28 c121 46 345
158 473 235 746 451 1282 1145 1475 1911 123 487 78 955 -131 1369 -261 516
-772 863 -1419 965 -124 19 -493 28 -623 14z"/>
</g>
</svg>
