<?xml version="1.0" standalone="no"?>
<!DOCTYPE svg PUBLIC "-//W3C//DTD SVG 20010904//EN"
 "http://www.w3.org/TR/2001/REC-SVG-20010904/DTD/svg10.dtd">
<svg version="1.0" xmlns="http://www.w3.org/2000/svg"
 width="710.000000pt" height="996.000000pt" viewBox="0 0 710.000000 996.000000"
 preserveAspectRatio="xMidYMid meet">
<metadata>
Created by potrace 1.16, written by Peter Selinger 2001-2019
</metadata>
<g transform="translate(0.000000,996.000000) scale(0.100000,-0.100000)"
fill="#000000" stroke="none">
<path d="M6750 9951 c-46 -14 -85 -39 -121 -78 -59 -62 -6601 -9472 -6617
-9517 -9 -27 -12 -64 -9 -108 8 -114 78 -203 186 -235 102 -29 200 -3 272 74
59 62 6601 9472 6617 9517 21 62 11 163 -22 220 -61 104 -196 160 -306 127z"/>
<path d="M3398 9791 c-148 -32 -260 -82 -383 -169 -389 -274 -544 -752 -363
-1119 65 -131 226 -274 369 -326 314 -116 701 -10 974 267 134 135 210 262
260 432 57 192 43 379 -42 553 -82 171 -249 307 -438 357 -96 25 -273 27 -377
5z"/>
<path d="M3619 1810 c-194 -40 -374 -142 -524 -294 -134 -135 -210 -262 -260
-432 -57 -192 -43 -379 42 -553 37 -78 59 -109 127 -176 130 -130 273 -191
471 -202 304 -17 622 138 834 407 213 269 264 623 129 897 -65 131 -226 274
-369 326 -129 48 -303 58 -450 27z"/>
</g>
</svg>
