<?xml version="1.0" standalone="no"?>
<!DOCTYPE svg PUBLIC "-//W3C//DTD SVG 20010904//EN"
 "http://www.w3.org/TR/2001/REC-SVG-20010904/DTD/svg10.dtd">
<svg version="1.0" xmlns="http://www.w3.org/2000/svg"
 width="317.000000pt" height="255.000000pt" viewBox="0 0 317.000000 255.000000"
 preserveAspectRatio="xMidYMid meet">
<metadata>
Created by potrace 1.16, written by Peter Selinger 2001-2019
</metadata>
<g transform="translate(0.000000,255.000000) scale(0.100000,-0.100000)"
fill="#000000" stroke="none">
<path d="M416 2535 c-138 -39 -293 -159 -354 -274 -45 -83 -66 -172 -59 -248
5 -47 86 -280 346 -990 188 -510 349 -939 359 -952 58 -78 121 -83 257 -23
103 46 151 86 160 136 7 35 -195 1972 -216 2076 -14 71 -63 163 -106 200 -19
17 -57 42 -86 57 -45 23 -66 27 -152 30 -64 1 -118 -3 -149 -12z"/>
<path d="M2446 2535 c-138 -39 -293 -159 -354 -274 -45 -83 -66 -172 -59 -248
5 -47 86 -280 346 -990 188 -510 349 -939 359 -952 58 -78 121 -83 257 -23
103 46 151 86 160 136 7 35 -195 1972 -216 2076 -14 71 -63 163 -106 200 -19
17 -57 42 -86 57 -45 23 -66 27 -152 30 -64 1 -118 -3 -149 -12z"/>
</g>
</svg>
