<?xml version="1.0" standalone="no"?>
<!DOCTYPE svg PUBLIC "-//W3C//DTD SVG 20010904//EN"
 "http://www.w3.org/TR/2001/REC-SVG-20010904/DTD/svg10.dtd">
<svg version="1.0" xmlns="http://www.w3.org/2000/svg"
 width="506.000000pt" height="183.000000pt" viewBox="0 0 506.000000 183.000000"
 preserveAspectRatio="xMidYMid meet">
<metadata>
Created by potrace 1.16, written by Peter Selinger 2001-2019
</metadata>
<g transform="translate(0.000000,183.000000) scale(0.100000,-0.100000)"
fill="#000000" stroke="none">
<path d="M2354 1810 c-40 -10 -96 -31 -125 -46 -132 -66 -2156 -1199 -2177
-1218 -33 -29 -52 -69 -52 -108 1 -52 77 -339 97 -367 11 -13 30 -33 44 -43
60 -45 17 -58 1236 362 700 241 1168 407 1215 432 291 151 421 485 294 753
-98 206 -301 296 -532 235z"/>
<path d="M4464 1810 c-40 -10 -96 -31 -125 -46 -132 -66 -2156 -1199 -2177
-1218 -33 -29 -52 -69 -52 -108 1 -52 77 -339 97 -367 11 -13 30 -33 44 -43
60 -45 17 -58 1236 362 700 241 1168 407 1215 432 291 151 421 485 294 753
-98 206 -301 296 -532 235z"/>
</g>
</svg>
