<?xml version="1.0" standalone="no"?>
<!DOCTYPE svg PUBLIC "-//W3C//DTD SVG 20010904//EN"
 "http://www.w3.org/TR/2001/REC-SVG-20010904/DTD/svg10.dtd">
<svg version="1.0" xmlns="http://www.w3.org/2000/svg"
 width="810.000000pt" height="581.000000pt" viewBox="0 0 810.000000 581.000000"
 preserveAspectRatio="xMidYMid meet">
<metadata>
Created by potrace 1.16, written by Peter Selinger 2001-2019
</metadata>
<g transform="translate(0.000000,581.000000) scale(0.100000,-0.100000)"
fill="#000000" stroke="none">
<path d="M4913 5791 c-65 -22 -116 -61 -136 -103 -9 -19 -322 -1260 -697
-2758 -645 -2579 -681 -2727 -670 -2765 18 -60 53 -100 114 -130 110 -54 247
-40 327 32 22 20 45 46 51 57 7 12 240 932 519 2046 278 1114 509 2018 512
2010 3 -8 71 -532 152 -1165 80 -632 151 -1165 157 -1183 15 -49 66 -102 123
-128 39 -19 67 -24 125 -23 84 0 134 14 183 52 23 18 266 395 778 1210 409
652 745 1184 746 1183 1 -1 -219 -883 -488 -1961 -464 -1852 -490 -1962 -479
-2000 18 -60 53 -100 114 -130 113 -55 248 -40 331 36 23 22 48 52 54 67 24
62 1361 5435 1361 5472 0 137 -181 235 -344 186 -108 -33 -49 54 -1102 -1622
-896 -1425 -979 -1555 -986 -1528 -4 16 -93 699 -198 1517 -116 908 -196 1499
-205 1516 -54 106 -211 158 -342 112z"/>
<path d="M152 5481 c-56 -19 -114 -67 -138 -113 -18 -35 -18 -111 0 -147 8
-15 33 -44 55 -64 76 -69 54 -67 937 -67 l791 0 -610 -2443 c-588 -2350 -611
-2445 -599 -2485 26 -87 113 -148 226 -159 93 -8 166 16 225 75 l47 47 620
2480 620 2480 865 5 c953 6 894 1 971 69 93 81 90 195 -5 277 -81 68 60 64
-2046 64 -1823 -1 -1908 -1 -1959 -19z"/>
</g>
</svg>
