<?xml version="1.0" standalone="no"?>
<!DOCTYPE svg PUBLIC "-//W3C//DTD SVG 20010904//EN"
 "http://www.w3.org/TR/2001/REC-SVG-20010904/DTD/svg10.dtd">
<svg version="1.0" xmlns="http://www.w3.org/2000/svg"
 width="1130.000000pt" height="722.000000pt" viewBox="0 0 1130.000000 722.000000"
 preserveAspectRatio="xMidYMid meet">
<metadata>
Created by potrace 1.16, written by Peter Selinger 2001-2019
</metadata>
<g transform="translate(0.000000,722.000000) scale(0.100000,-0.100000)"
fill="#000000" stroke="none">
<path d="M3635 7202 c-42 -26 -48 -35 -93 -142 -295 -694 -782 -1392 -1356
-1948 -576 -556 -1212 -983 -1921 -1287 -110 -47 -208 -93 -218 -103 -31 -27
-47 -68 -47 -115 0 -75 26 -101 201 -198 315 -175 522 -332 759 -575 234 -241
386 -457 540 -769 258 -522 371 -1107 339 -1743 -12 -230 -7 -255 60 -299 32
-22 44 -23 210 -23 201 0 224 7 261 80 46 91 49 665 5 1010 -108 836 -452
1580 -986 2135 l-102 105 4865 0 c4322 0 4870 2 4916 15 73 22 141 80 182 156
31 57 35 72 35 139 -1 108 -42 177 -135 226 -34 18 -174 19 -4849 22 l-4815 2
115 78 c650 440 1280 1052 1750 1699 283 390 558 871 728 1275 46 110 50 142
21 199 -37 72 -60 79 -260 79 -152 0 -179 -2 -205 -18z"/>
</g>
</svg>
