<?xml version="1.0" standalone="no"?>
<!DOCTYPE svg PUBLIC "-//W3C//DTD SVG 20010904//EN"
 "http://www.w3.org/TR/2001/REC-SVG-20010904/DTD/svg10.dtd">
<svg version="1.0" xmlns="http://www.w3.org/2000/svg"
 width="618.000000pt" height="890.000000pt" viewBox="0 0 618.000000 890.000000"
 preserveAspectRatio="xMidYMid meet">
<metadata>
Created by potrace 1.16, written by Peter Selinger 2001-2019
</metadata>
<g transform="translate(0.000000,890.000000) scale(0.100000,-0.100000)"
fill="#000000" stroke="none">
<path d="M4050 8893 c-25 -2 -108 -12 -185 -23 -638 -90 -1295 -418 -1765
-882 -347 -341 -584 -739 -695 -1163 -44 -167 -59 -292 -52 -430 24 -455 292
-759 689 -782 573 -34 1134 543 1229 1262 26 201 -6 476 -81 689 -70 198 -107
246 -190 246 -41 0 -55 -6 -106 -45 -62 -48 -94 -94 -94 -135 0 -13 20 -74 44
-135 134 -332 123 -672 -34 -991 -127 -261 -321 -453 -530 -525 -49 -17 -89
-23 -160 -23 -83 -1 -102 2 -145 25 -229 117 -238 596 -22 1084 289 651 952
1207 1682 1409 296 82 629 106 861 61 399 -76 695 -347 790 -723 70 -275 51
-627 -57 -1072 -145 -600 -357 -1020 -679 -1340 -273 -272 -636 -464 -1008
-532 -104 -19 -165 -22 -567 -27 -408 -5 -454 -8 -478 -24 -36 -24 -50 -53
-82 -185 -27 -109 -27 -114 -11 -155 33 -85 13 -81 516 -88 472 -6 483 -7 626
-60 184 -68 366 -234 458 -417 136 -271 149 -655 40 -1177 -185 -882 -429
-1401 -844 -1798 -314 -301 -698 -496 -1130 -574 -135 -24 -430 -24 -565 1
-523 94 -897 444 -1015 950 -10 45 -22 110 -25 146 -3 36 -8 75 -11 87 -4 22
-1 23 56 23 212 0 443 127 561 308 57 87 83 153 106 268 82 421 -346 672 -769
452 -169 -87 -289 -245 -343 -449 -47 -179 -59 -279 -59 -499 0 -183 3 -219
27 -331 67 -319 199 -576 406 -792 282 -293 660 -469 1116 -518 134 -14 439
-7 611 15 783 100 1541 473 2099 1031 249 249 435 506 580 800 117 237 187
452 230 705 25 145 31 458 11 607 -78 590 -402 1071 -897 1333 l-89 46 113 44
c306 118 616 301 894 529 714 585 1134 1470 1052 2219 -102 943 -876 1573
-1918 1560 -80 -1 -166 -3 -191 -5z"/>
</g>
</svg>
