<?xml version="1.0" standalone="no"?>
<!DOCTYPE svg PUBLIC "-//W3C//DTD SVG 20010904//EN"
 "http://www.w3.org/TR/2001/REC-SVG-20010904/DTD/svg10.dtd">
<svg version="1.0" xmlns="http://www.w3.org/2000/svg"
 width="917.000000pt" height="1115.000000pt" viewBox="0 0 917.000000 1115.000000"
 preserveAspectRatio="xMidYMid meet">
<metadata>
Created by potrace 1.16, written by Peter Selinger 2001-2019
</metadata>
<g transform="translate(0.000000,1115.000000) scale(0.100000,-0.100000)"
fill="#000000" stroke="none">
<path d="M5758 11130 c-20 -11 -45 -34 -56 -52 -10 -18 -48 -148 -82 -288 -35
-140 -65 -258 -69 -262 -3 -3 -55 -11 -116 -17 -413 -43 -883 -162 -1310 -333
-333 -133 -788 -377 -1106 -593 -720 -488 -1358 -1133 -1858 -1875 -639 -950
-1018 -1960 -1137 -3035 -22 -196 -30 -662 -15 -866 63 -864 355 -1633 839
-2209 106 -127 344 -358 462 -449 376 -293 817 -500 1289 -606 131 -30 349
-65 404 -65 20 0 37 -2 37 -6 0 -3 -16 -68 -35 -144 -41 -162 -43 -209 -14
-257 40 -64 74 -73 286 -73 276 0 274 -1 344 276 26 102 49 187 51 189 2 2 50
9 108 15 473 51 928 184 1335 390 300 151 535 314 745 517 66 64 122 114 124
112 1 -2 26 -42 54 -89 99 -167 267 -370 438 -529 122 -114 154 -128 229 -97
47 20 63 50 95 178 428 1708 686 2721 704 2762 31 69 72 115 122 138 69 30
225 48 469 54 127 3 244 10 262 15 66 21 86 60 137 265 51 208 51 233 0 293
-39 47 -69 52 -264 41 -96 -5 -408 -15 -692 -22 -539 -13 -1628 -2 -2339 23
-313 11 -315 11 -357 -10 -23 -12 -49 -32 -58 -46 -20 -30 -103 -356 -104
-404 0 -47 35 -105 80 -130 36 -20 52 -21 291 -21 435 0 844 -24 1006 -60 84
-18 110 -60 103 -165 -4 -64 -322 -1313 -357 -1400 -262 -661 -1033 -1160
-1871 -1211 l-110 -7 1103 4412 c606 2427 1106 4415 1109 4418 10 10 251 -15
351 -36 623 -132 1047 -642 1210 -1456 61 -303 70 -414 70 -840 -1 -396 -6
-483 -56 -832 -22 -150 -22 -151 -2 -185 10 -18 34 -43 53 -55 32 -22 42 -23
239 -23 231 0 258 6 292 69 10 19 232 894 495 1946 l477 1913 -19 38 c-32 64
-72 84 -173 84 -67 0 -93 -4 -117 -19 -17 -10 -257 -257 -534 -549 l-504 -530
-77 113 c-172 255 -389 472 -629 628 -235 153 -522 264 -814 317 -60 11 -110
21 -112 23 -1 1 25 113 59 248 l61 246 -25 48 c-43 87 -50 90 -282 92 -184 3
-205 1 -239 -17z m-378 -1295 c0 -5 -2140 -8568 -2161 -8648 -10 -38 -11 -39
-46 -32 -19 3 -74 17 -121 31 -766 222 -1319 780 -1528 1544 -116 423 -143
938 -78 1505 54 474 186 1100 357 1695 299 1037 677 1799 1217 2450 118 143
422 450 555 561 505 422 1046 709 1630 863 124 33 175 42 175 31z"/>
</g>
</svg>
