<?xml version="1.0" standalone="no"?>
<!DOCTYPE svg PUBLIC "-//W3C//DTD SVG 20010904//EN"
 "http://www.w3.org/TR/2001/REC-SVG-20010904/DTD/svg10.dtd">
<svg version="1.0" xmlns="http://www.w3.org/2000/svg"
 width="893.000000pt" height="581.000000pt" viewBox="0 0 893.000000 581.000000"
 preserveAspectRatio="xMidYMid meet">
<metadata>
Created by potrace 1.16, written by Peter Selinger 2001-2019
</metadata>
<g transform="translate(0.000000,581.000000) scale(0.100000,-0.100000)"
fill="#000000" stroke="none">
<path d="M5695 5797 c-99 -33 -166 -87 -193 -153 -27 -69 -1342 -5357 -1342
-5399 0 -84 68 -173 165 -217 76 -34 210 -33 285 3 73 34 114 70 139 122 11
23 231 883 488 1912 257 1029 469 1859 471 1845 2 -14 66 -477 143 -1030 152
-1095 145 -1059 222 -1125 66 -57 136 -78 242 -73 102 5 167 31 221 90 17 18
320 486 674 1041 354 554 645 1006 647 1003 2 -2 -194 -796 -437 -1765 -257
-1029 -440 -1780 -440 -1806 0 -84 68 -173 165 -217 76 -34 210 -33 285 3 73
34 114 70 139 122 27 57 1351 5356 1351 5409 0 84 -71 177 -169 221 -35 16
-66 21 -136 22 -78 0 -98 -4 -150 -28 -33 -16 -72 -39 -86 -53 -14 -14 -444
-679 -955 -1479 -676 -1058 -931 -1450 -936 -1437 -4 9 -93 640 -198 1402
-105 762 -196 1399 -201 1417 -15 48 -84 119 -144 148 -65 32 -187 43 -250 22z"/>
<path d="M2175 5489 c-291 -27 -546 -118 -736 -261 -193 -145 -341 -368 -434
-653 -43 -131 -136 -499 -161 -640 -26 -145 -24 -355 4 -458 83 -302 321 -481
733 -548 49 -8 312 -14 789 -19 731 -7 784 -10 896 -50 177 -62 225 -229 168
-580 -21 -129 -136 -586 -184 -732 -131 -399 -320 -607 -618 -683 -145 -37
-184 -38 -1307 -44 l-1110 -6 -57 -28 c-94 -46 -158 -136 -158 -222 0 -86 64
-176 158 -222 l57 -28 1115 0 c1175 0 1187 0 1414 47 436 89 781 350 977 740
93 185 149 356 248 753 98 398 125 610 101 795 -55 421 -324 661 -835 746 -83
14 -223 18 -820 24 -605 6 -731 10 -788 23 -146 34 -182 86 -181 257 1 119 16
209 79 461 129 515 243 692 501 778 133 44 140 44 1279 50 l1090 6 50 23 c176
81 219 270 89 394 -22 20 -61 47 -89 60 l-50 23 -1065 1 c-586 1 -1105 -2
-1155 -7z"/>
</g>
</svg>
