<?xml version="1.0" standalone="no"?>
<!DOCTYPE svg PUBLIC "-//W3C//DTD SVG 20010904//EN"
 "http://www.w3.org/TR/2001/REC-SVG-20010904/DTD/svg10.dtd">
<svg version="1.0" xmlns="http://www.w3.org/2000/svg"
 width="594.000000pt" height="1384.000000pt" viewBox="0 0 594.000000 1384.000000"
 preserveAspectRatio="xMidYMid meet">
<metadata>
Created by potrace 1.16, written by Peter Selinger 2001-2019
</metadata>
<g transform="translate(0.000000,1384.000000) scale(0.100000,-0.100000)"
fill="#000000" stroke="none">
<path d="M3464 13822 c-50 -32 -60 -54 -100 -216 l-37 -152 19 -40 c38 -77 52
-81 321 -87 304 -7 431 -31 621 -118 158 -71 326 -215 420 -359 122 -186 165
-461 113 -715 -48 -232 -873 -3502 -905 -3583 -178 -461 -563 -870 -1058
-1122 -296 -152 -587 -232 -903 -249 -158 -8 -196 -21 -220 -74 -8 -18 -31
-96 -50 -174 l-36 -143 20 -44 c29 -66 59 -78 221 -87 165 -10 280 -29 407
-70 431 -138 720 -440 804 -839 27 -131 29 -331 5 -465 -26 -145 -872 -3513
-906 -3605 -73 -203 -199 -390 -390 -580 -192 -192 -393 -329 -631 -429 -271
-115 -452 -151 -784 -158 -246 -5 -279 -12 -309 -58 -17 -25 -86 -289 -86
-327 0 -37 34 -90 71 -110 40 -22 148 -24 394 -7 1042 68 1949 435 2441 989
163 183 293 401 369 620 40 116 884 3479 910 3630 25 141 23 376 -4 507 -57
274 -174 488 -380 693 -179 178 -444 343 -688 427 -46 15 -83 30 -83 33 0 3
46 18 103 34 326 90 736 286 1018 486 243 173 471 404 621 630 81 122 184 326
228 454 32 94 878 3462 904 3605 24 127 30 264 17 380 -61 525 -440 919 -1101
1146 -341 117 -705 178 -1130 191 -183 5 -197 4 -226 -14z"/>
</g>
</svg>
