<?xml version="1.0" standalone="no"?>
<!DOCTYPE svg PUBLIC "-//W3C//DTD SVG 20010904//EN"
 "http://www.w3.org/TR/2001/REC-SVG-20010904/DTD/svg10.dtd">
<svg version="1.0" xmlns="http://www.w3.org/2000/svg"
 width="992.000000pt" height="976.000000pt" viewBox="0 0 992.000000 976.000000"
 preserveAspectRatio="xMidYMid meet">
<metadata>
Created by potrace 1.16, written by Peter Selinger 2001-2019
</metadata>
<g transform="translate(0.000000,976.000000) scale(0.100000,-0.100000)"
fill="#000000" stroke="none">
<path d="M2369 9739 c-20 -12 -46 -38 -57 -58 -31 -57 -106 -374 -98 -416 9
-45 57 -101 99 -114 18 -5 181 -12 362 -15 446 -8 674 -32 719 -76 49 -48 98
158 -934 -3972 -668 -2675 -971 -3872 -991 -3914 -34 -73 -95 -139 -152 -164
-105 -47 -332 -69 -772 -76 -181 -3 -344 -10 -362 -15 -66 -20 -86 -59 -137
-267 -53 -210 -53 -229 0 -292 41 -48 66 -51 319 -40 127 5 526 15 887 22 675
12 1197 5 1662 -24 187 -11 189 -11 231 11 25 13 50 37 62 59 32 58 107 375
99 417 -9 45 -57 101 -99 113 -18 6 -108 13 -202 16 -93 3 -192 11 -220 18
l-50 13 1 57 c1 39 149 648 464 1907 l462 1851 802 0 c863 0 914 -3 1061 -53
150 -52 257 -119 365 -233 153 -161 245 -360 279 -609 16 -111 13 -331 -5
-454 -8 -58 -93 -419 -188 -801 -95 -382 -177 -712 -182 -732 -8 -36 -45 -64
-624 -488 -338 -248 -631 -464 -652 -480 -50 -40 -75 -107 -60 -158 16 -52
184 -306 216 -327 40 -26 106 -30 147 -10 19 10 243 171 498 359 256 188 467
339 470 336 3 -2 15 -36 27 -75 169 -567 690 -931 1475 -1030 181 -23 476 -31
579 -16 451 66 879 428 1159 979 118 233 221 522 221 620 0 56 -26 104 -72
132 -30 18 -51 20 -233 20 -275 0 -269 4 -340 -237 -110 -373 -249 -639 -429
-819 -148 -148 -273 -202 -446 -191 -106 7 -174 28 -236 70 -90 62 -153 186
-185 367 -25 136 -16 628 18 1012 16 180 31 329 34 331 2 2 569 418 1259 924
813 597 1261 932 1273 951 10 18 17 51 17 80 0 52 2 48 -158 290 -51 78 -125
109 -195 83 -20 -8 -2060 -1498 -2121 -1550 -18 -15 -19 -15 -12 4 14 39 19
407 7 515 -63 547 -340 1001 -799 1307 l-112 75 172 58 c810 268 1503 727
1954 1291 481 603 634 1286 429 1919 -72 222 -216 469 -378 647 -377 415 -900
686 -1557 807 -345 63 -203 60 -2575 63 l-2160 3 -36 -21z m3991 -609 c480
-35 806 -142 1047 -341 331 -272 397 -659 237 -1373 -217 -966 -457 -1397
-959 -1726 -197 -129 -511 -257 -770 -315 -333 -74 -508 -85 -1398 -85 -689 0
-728 1 -723 18 3 9 208 827 455 1818 248 990 460 1823 471 1850 43 100 101
134 260 153 106 12 1217 13 1380 1z"/>
</g>
</svg>
