<?xml version="1.0" standalone="no"?>
<!DOCTYPE svg PUBLIC "-//W3C//DTD SVG 20010904//EN"
 "http://www.w3.org/TR/2001/REC-SVG-20010904/DTD/svg10.dtd">
<svg version="1.0" xmlns="http://www.w3.org/2000/svg"
 width="1061.000000pt" height="860.000000pt" viewBox="0 0 1061.000000 860.000000"
 preserveAspectRatio="xMidYMid meet">
<metadata>
Created by potrace 1.16, written by Peter Selinger 2001-2019
</metadata>
<g transform="translate(0.000000,860.000000) scale(0.100000,-0.100000)"
fill="#000000" stroke="none">
<path d="M2192 8581 c-136 -47 -213 -203 -168 -337 12 -35 155 -233 515 -713
l498 -664 -217 -216 c-355 -353 -585 -644 -820 -1036 -337 -563 -548 -1170
-620 -1785 -18 -159 -24 -482 -11 -645 37 -462 170 -909 377 -1268 25 -43 44
-80 42 -81 -673 -535 -1711 -1371 -1731 -1395 -41 -50 -57 -96 -57 -170 0
-111 50 -189 154 -243 58 -31 165 -30 224 1 24 12 425 328 892 701 l847 678
74 -75 c389 -395 921 -673 1514 -792 273 -55 382 -65 705 -65 316 0 451 11
720 60 662 121 1315 392 1895 788 84 57 113 72 121 63 6 -7 227 -300 491 -652
264 -352 496 -654 516 -672 37 -32 118 -63 167 -63 90 0 199 69 242 154 29 56
34 142 14 202 -12 35 -155 233 -515 713 l-498 664 217 216 c355 353 585 644
820 1036 337 563 548 1170 620 1785 18 159 24 482 11 645 -37 462 -170 909
-377 1268 -25 43 -44 80 -42 81 673 535 1711 1371 1731 1395 41 50 57 96 57
170 0 111 -50 189 -154 243 -58 31 -165 30 -224 -1 -24 -12 -425 -328 -892
-701 l-847 -678 -74 75 c-389 395 -921 673 -1514 792 -273 55 -382 65 -705 65
-316 0 -451 -11 -720 -60 -662 -121 -1315 -392 -1895 -788 -84 -57 -113 -72
-121 -63 -6 7 -227 300 -491 652 -264 352 -496 654 -516 672 -39 34 -119 63
-171 63 -17 -1 -55 -9 -84 -19z m4387 -1016 c852 -109 1520 -564 1866 -1270
118 -239 194 -491 231 -761 22 -160 25 -546 6 -709 -103 -869 -521 -1707
-1207 -2423 -96 -100 -338 -321 -426 -389 -164 -126 -280 -210 -369 -270 -579
-385 -1225 -631 -1870 -709 -198 -25 -603 -25 -784 -1 -864 116 -1524 564
-1871 1272 -118 239 -194 491 -231 761 -22 160 -25 546 -6 709 103 869 521
1707 1207 2423 96 100 338 321 426 389 352 270 553 400 848 548 533 267 1012
404 1576 449 105 8 486 -3 604 -19z"/>
</g>
</svg>
