<?xml version="1.0" standalone="no"?>
<!DOCTYPE svg PUBLIC "-//W3C//DTD SVG 20010904//EN"
 "http://www.w3.org/TR/2001/REC-SVG-20010904/DTD/svg10.dtd">
<svg version="1.0" xmlns="http://www.w3.org/2000/svg"
 width="585.000000pt" height="1398.000000pt" viewBox="0 0 585.000000 1398.000000"
 preserveAspectRatio="xMidYMid meet">
<metadata>
Created by potrace 1.16, written by Peter Selinger 2001-2019
</metadata>
<g transform="translate(0.000000,1398.000000) scale(0.100000,-0.100000)"
fill="#000000" stroke="none">
<path d="M5430 13973 c-239 -13 -567 -64 -812 -124 -1017 -251 -1717 -785
-1968 -1504 -39 -112 -894 -3531 -915 -3657 -34 -210 -14 -466 52 -658 106
-308 351 -587 681 -774 112 -64 266 -134 355 -162 31 -10 57 -20 57 -23 0 -3
-39 -17 -88 -30 -124 -34 -316 -104 -471 -172 -683 -302 -1182 -794 -1380
-1363 -30 -85 -865 -3405 -912 -3626 -30 -142 -33 -421 -5 -550 101 -466 394
-808 898 -1049 175 -84 296 -127 504 -179 245 -62 555 -102 786 -102 153 0
178 22 218 188 23 99 23 100 4 138 -36 73 -58 80 -271 87 -207 7 -326 26 -465
77 -517 189 -791 687 -703 1275 22 145 878 3567 922 3684 80 215 200 414 366
606 393 456 1013 767 1577 791 141 6 200 22 229 63 27 38 64 195 58 243 -5 40
-34 80 -72 101 -11 5 -78 14 -150 18 -400 23 -704 151 -935 395 -148 156 -235
326 -277 543 -21 112 -21 325 1 446 20 112 855 3458 891 3575 118 374 413 739
800 993 121 79 344 187 486 236 215 73 440 110 677 111 189 0 210 13 248 162
29 112 29 133 6 177 -32 59 -69 71 -212 69 -69 -1 -150 -3 -180 -5z"/>
</g>
</svg>
