<?xml version="1.0" standalone="no"?>
<!DOCTYPE svg PUBLIC "-//W3C//DTD SVG 20010904//EN"
 "http://www.w3.org/TR/2001/REC-SVG-20010904/DTD/svg10.dtd">
<svg version="1.0" xmlns="http://www.w3.org/2000/svg"
 width="361.000000pt" height="565.000000pt" viewBox="0 0 361.000000 565.000000"
 preserveAspectRatio="xMidYMid meet">
<metadata>
Created by potrace 1.16, written by Peter Selinger 2001-2019
</metadata>
<g transform="translate(0.000000,565.000000) scale(0.100000,-0.100000)"
fill="#000000" stroke="none">
<path d="M3355 5638 c-11 -6 -78 -68 -150 -138 -384 -374 -771 -611 -1255
-770 -268 -89 -508 -133 -806 -148 -206 -11 -218 -19 -261 -189 -28 -109 -26
-156 6 -201 32 -46 77 -62 173 -62 361 0 860 110 1227 269 52 23 95 41 97 41
1 0 -202 -814 -451 -1809 -494 -1976 -477 -1918 -576 -2020 -107 -111 -312
-147 -894 -158 -338 -6 -348 -7 -393 -56 -28 -30 -72 -182 -72 -248 0 -57 31
-107 82 -132 33 -16 53 -17 264 -8 126 6 499 16 829 22 617 12 1381 3 1986
-22 254 -11 269 -11 305 7 54 27 72 57 101 170 28 110 26 157 -6 202 -39 56
-58 59 -396 66 -403 7 -602 29 -695 74 -48 23 -64 72 -55 172 4 47 223 942
596 2435 435 1737 589 2368 584 2392 -7 38 -46 88 -86 108 -33 18 -125 19
-154 3z"/>
</g>
</svg>
