<?xml version="1.0" standalone="no"?>
<!DOCTYPE svg PUBLIC "-//W3C//DTD SVG 20010904//EN"
 "http://www.w3.org/TR/2001/REC-SVG-20010904/DTD/svg10.dtd">
<svg version="1.0" xmlns="http://www.w3.org/2000/svg"
 width="458.000000pt" height="952.000000pt" viewBox="0 0 458.000000 952.000000"
 preserveAspectRatio="xMidYMid meet">
<metadata>
Created by potrace 1.16, written by Peter Selinger 2001-2019
</metadata>
<g transform="translate(0.000000,952.000000) scale(0.100000,-0.100000)"
fill="#000000" stroke="none">
<path d="M3588 9510 c-281 -48 -555 -259 -679 -524 -128 -273 -93 -552 91
-736 121 -122 276 -177 465 -166 215 12 415 105 581 270 308 309 349 741 94
996 -136 136 -340 195 -552 160z"/>
<path d="M2845 6994 c-291 -53 -557 -180 -790 -376 -205 -172 -376 -429 -436
-654 l-21 -81 19 -45 c30 -66 62 -78 213 -78 165 0 194 16 225 125 62 215 239
455 440 595 75 51 261 147 270 138 3 -3 -104 -335 -238 -739 l-242 -733 -642
-451 c-353 -247 -681 -481 -730 -520 -407 -323 -727 -803 -848 -1270 -53 -205
-60 -262 -59 -475 0 -162 4 -213 23 -300 66 -309 187 -537 395 -745 125 -125
244 -210 396 -285 57 -27 105 -51 106 -53 2 -1 -22 -79 -52 -172 -93 -285 -95
-396 -13 -564 147 -299 536 -397 905 -227 223 103 404 297 474 504 11 35 34
143 51 240 17 97 32 179 34 181 2 2 75 27 162 56 884 296 1626 989 1957 1829
57 144 114 347 122 436 12 127 -38 262 -126 344 -182 170 -490 166 -735 -9
-88 -63 -149 -135 -201 -240 -61 -124 -77 -195 -72 -320 3 -94 6 -108 41 -178
62 -125 170 -202 320 -228 40 -7 73 -13 75 -15 5 -4 -86 -152 -156 -253 -95
-137 -200 -261 -336 -396 -217 -215 -445 -381 -701 -511 -143 -73 -273 -129
-281 -121 -4 4 551 3298 560 3322 2 6 70 57 152 114 82 58 181 130 219 162
264 216 448 515 536 869 20 81 23 120 23 270 0 209 -16 285 -95 449 -44 89
-63 116 -137 191 -98 98 -187 155 -307 196 -73 25 -95 28 -250 30 -117 2 -195
-2 -250 -12z m498 -493 c28 -57 32 -77 35 -166 6 -160 -40 -313 -137 -452 -55
-79 -111 -141 -111 -124 0 13 123 750 136 814 6 27 7 28 25 11 11 -10 34 -47
52 -83z m-1867 -3805 l-431 -1305 -35 21 c-105 63 -152 99 -221 168 -125 125
-205 261 -251 431 -20 73 -23 107 -23 259 0 156 3 186 27 280 83 327 297 653
590 897 48 41 761 549 774 553 1 0 -193 -587 -430 -1304z"/>
</g>
</svg>
