<?xml version="1.0" standalone="no"?>
<!DOCTYPE svg PUBLIC "-//W3C//DTD SVG 20010904//EN"
 "http://www.w3.org/TR/2001/REC-SVG-20010904/DTD/svg10.dtd">
<svg version="1.0" xmlns="http://www.w3.org/2000/svg"
 width="1022.000000pt" height="945.000000pt" viewBox="0 0 1022.000000 945.000000"
 preserveAspectRatio="xMidYMid meet">
<metadata>
Created by potrace 1.16, written by Peter Selinger 2001-2019
</metadata>
<g transform="translate(0.000000,945.000000) scale(0.100000,-0.100000)"
fill="#000000" stroke="none">
<path d="M1019 9431 c-20 -11 -44 -32 -54 -48 -21 -32 -104 -352 -105 -402 0
-46 35 -105 79 -129 33 -18 62 -20 341 -26 401 -7 599 -29 691 -76 58 -30 116
-103 140 -179 11 -36 188 -622 393 -1301 l372 -1235 -1016 -5 c-1140 -6 -1039
2 -1118 -83 -75 -82 -88 -185 -37 -287 27 -54 55 -80 115 -112 l45 -23 1084
-5 1083 -5 259 -859 c143 -473 259 -867 259 -875 0 -9 -23 -112 -52 -228 l-53
-213 -1625 0 c-1551 0 -1627 -1 -1665 -19 -58 -26 -97 -63 -123 -115 -54 -107
-32 -229 55 -306 85 -75 -31 -70 1689 -70 l1542 0 -233 -927 c-128 -511 -242
-955 -254 -988 -47 -134 -129 -212 -249 -239 -152 -34 -470 -56 -825 -56 -307
0 -301 4 -373 -283 l-48 -194 25 -48 c13 -27 37 -58 52 -69 33 -24 52 -24 602
-6 823 27 1927 22 2792 -11 277 -11 293 -11 329 7 22 11 48 33 60 51 24 36
104 343 104 400 0 53 -30 104 -76 130 -37 22 -50 23 -254 23 -387 0 -737 27
-824 64 -82 34 -77 66 194 1146 127 509 235 942 241 963 l10 37 1608 0 c1827
0 1677 -7 1767 84 34 33 56 65 63 91 37 133 -19 260 -139 314 -45 20 -57 21
-1607 21 -860 0 -1563 3 -1563 8 1 29 110 433 121 449 8 11 322 403 698 871
l684 852 1151 2 1151 3 54 30 c98 54 153 166 132 266 -6 27 -18 63 -26 78 -21
42 -98 106 -143 119 -29 9 -286 12 -971 12 -513 0 -931 4 -929 8 10 26 1562
1948 1612 1997 34 33 102 103 151 156 381 404 853 609 1463 635 161 7 204 20
236 69 21 32 106 355 106 404 0 47 -36 105 -80 130 -37 20 -44 21 -187 11 -81
-5 -343 -15 -580 -22 -451 -13 -1195 -3 -1734 23 -225 11 -238 11 -275 -7 -21
-10 -48 -33 -60 -51 -25 -38 -104 -345 -104 -405 0 -98 62 -142 215 -152 207
-13 324 -63 386 -162 17 -28 22 -51 21 -102 0 -86 -29 -163 -98 -268 -30 -45
-57 -91 -61 -102 -5 -11 -395 -502 -868 -1091 l-860 -1071 -799 2 -798 3 -389
1290 c-214 710 -389 1295 -389 1302 0 20 61 83 99 102 117 60 293 90 576 98
300 8 294 4 365 290 47 191 47 221 3 274 -49 58 -65 60 -340 49 -807 -31
-1996 -36 -2653 -10 -577 23 -541 22 -581 1z m4485 -3923 c-4 -7 -172 -217
-373 -467 -358 -446 -365 -454 -375 -425 -5 16 -69 226 -141 467 l-132 437
514 0 c399 0 513 -3 507 -12z"/>
</g>
</svg>
