<?xml version="1.0" standalone="no"?>
<!DOCTYPE svg PUBLIC "-//W3C//DTD SVG 20010904//EN"
 "http://www.w3.org/TR/2001/REC-SVG-20010904/DTD/svg10.dtd">
<svg version="1.0" xmlns="http://www.w3.org/2000/svg"
 width="572.000000pt" height="632.000000pt" viewBox="0 0 572.000000 632.000000"
 preserveAspectRatio="xMidYMid meet">
<metadata>
Created by potrace 1.16, written by Peter Selinger 2001-2019
</metadata>
<g transform="translate(0.000000,632.000000) scale(0.100000,-0.100000)"
fill="#000000" stroke="none">
<path d="M3245 6314 c-616 -65 -1200 -347 -1645 -793 -208 -208 -364 -425
-484 -674 -81 -165 -121 -276 -163 -443 -24 -95 -27 -129 -27 -259 0 -169 19
-262 78 -390 165 -353 565 -501 981 -364 382 126 703 481 801 883 63 263 31
509 -102 783 -68 138 -102 173 -173 173 -42 0 -56 -6 -107 -45 -103 -80 -115
-130 -58 -232 51 -92 90 -190 109 -278 25 -112 17 -292 -18 -400 -113 -342
-462 -613 -763 -592 -142 10 -228 83 -280 237 -15 44 -19 84 -19 200 0 126 4
159 28 251 132 509 494 984 982 1294 196 124 457 231 666 275 206 42 383 50
589 25 330 -39 576 -143 762 -323 202 -195 279 -394 279 -722 0 -227 -43 -495
-112 -705 -37 -112 -119 -270 -196 -378 -66 -93 -294 -327 -398 -409 -339
-266 -760 -487 -1465 -768 -311 -124 -462 -192 -636 -287 -271 -148 -526 -322
-769 -528 -143 -121 -397 -381 -508 -520 -262 -327 -477 -735 -573 -1081 -37
-136 -30 -177 35 -221 31 -21 45 -23 158 -23 134 0 179 12 206 53 7 12 26 62
41 112 56 180 159 349 286 468 146 138 258 175 468 157 329 -28 521 -95 1107
-390 357 -180 442 -218 637 -285 650 -224 1244 -116 1799 327 353 280 650 706
793 1137 57 172 66 233 38 277 -34 54 -76 66 -217 62 -169 -4 -179 -13 -240
-190 -15 -43 -53 -116 -86 -167 -185 -282 -542 -496 -955 -573 -106 -20 -150
-22 -404 -22 -293 1 -523 15 -987 60 -139 13 -367 35 -505 49 -390 37 -694 56
-956 58 l-240 2 19 26 c33 47 261 273 364 360 209 179 429 331 686 474 189
105 337 171 679 305 694 271 1031 415 1405 600 309 153 457 236 665 375 291
193 516 395 649 580 273 383 317 890 119 1350 -99 229 -287 459 -515 633 -314
238 -721 393 -1203 457 -110 15 -540 28 -625 19z"/>
</g>
</svg>
