<?xml version="1.0" standalone="no"?>
<!DOCTYPE svg PUBLIC "-//W3C//DTD SVG 20010904//EN"
 "http://www.w3.org/TR/2001/REC-SVG-20010904/DTD/svg10.dtd">
<svg version="1.0" xmlns="http://www.w3.org/2000/svg"
 width="593.000000pt" height="175.000000pt" viewBox="0 0 593.000000 175.000000"
 preserveAspectRatio="xMidYMid meet">
<metadata>
Created by potrace 1.16, written by Peter Selinger 2001-2019
</metadata>
<g transform="translate(0.000000,175.000000) scale(0.100000,-0.100000)"
fill="#000000" stroke="none">
<path d="M3000 1743 c-698 -38 -1345 -199 -1905 -473 -389 -191 -698 -425
-880 -669 -114 -152 -215 -375 -215 -475 0 -39 6 -52 34 -84 l34 -37 236 0
235 0 30 29 c19 18 38 54 51 95 70 217 269 405 614 578 470 236 1023 374 1656
413 541 33 1123 -19 1509 -136 426 -130 754 -336 856 -539 30 -59 30 -62 30
-217 l0 -158 33 -32 32 -33 235 0 235 0 31 31 c42 42 60 111 66 260 9 192 -36
360 -141 527 -280 448 -980 792 -1816 891 -257 31 -689 44 -960 29z"/>
</g>
</svg>
