<?xml version="1.0" standalone="no"?>
<!DOCTYPE svg PUBLIC "-//W3C//DTD SVG 20010904//EN"
 "http://www.w3.org/TR/2001/REC-SVG-20010904/DTD/svg10.dtd">
<svg version="1.0" xmlns="http://www.w3.org/2000/svg"
 width="554.000000pt" height="1180.000000pt" viewBox="0 0 554.000000 1180.000000"
 preserveAspectRatio="xMidYMid meet">
<metadata>
Created by potrace 1.16, written by Peter Selinger 2001-2019
</metadata>
<g transform="translate(0.000000,1180.000000) scale(0.100000,-0.100000)"
fill="#000000" stroke="none">
<path d="M2735 11784 c-245 -33 -452 -97 -680 -209 -282 -139 -505 -303 -760
-559 -480 -481 -858 -1125 -1103 -1876 -145 -443 -201 -784 -189 -1135 18
-500 170 -936 461 -1325 96 -129 326 -357 466 -462 399 -300 900 -495 1435
-558 55 -7 105 -14 111 -15 8 -2 -208 -884 -625 -2552 l-637 -2548 -445 -5
c-431 -5 -445 -6 -484 -27 -87 -46 -155 -153 -155 -243 0 -90 68 -197 155
-243 l40 -22 1095 0 1095 0 49 25 c194 99 194 381 0 480 l-49 25 -373 3 c-346
3 -373 4 -368 20 3 9 602 2404 1331 5322 729 2918 1330 5322 1336 5342 l10 37
442 3 c431 3 443 4 482 25 87 46 155 153 155 243 0 90 -68 197 -155 243 l-40
22 -1250 2 c-1008 1 -1269 -2 -1350 -13z"/>
</g>
</svg>
