<?xml version="1.0" standalone="no"?>
<!DOCTYPE svg PUBLIC "-//W3C//DTD SVG 20010904//EN"
 "http://www.w3.org/TR/2001/REC-SVG-20010904/DTD/svg10.dtd">
<svg version="1.0" xmlns="http://www.w3.org/2000/svg"
 width="740.000000pt" height="1038.000000pt" viewBox="0 0 740.000000 1038.000000"
 preserveAspectRatio="xMidYMid meet">
<metadata>
Created by potrace 1.16, written by Peter Selinger 2001-2019
</metadata>
<g transform="translate(0.000000,1038.000000) scale(0.100000,-0.100000)"
fill="#000000" stroke="none">
<path d="M7030 10371 c-49 -16 -85 -40 -126 -83 -23 -24 -1579 -2257 -3459
-4962 -2372 -3414 -3422 -4933 -3431 -4964 -32 -103 -7 -200 69 -277 110 -109
272 -114 381 -12 47 44 6877 9865 6904 9927 20 47 20 155 -1 203 -45 104 -135
168 -246 173 -36 2 -77 0 -91 -5z"/>
<path d="M3712 10219 c-545 -52 -1018 -534 -1049 -1069 -4 -79 -2 -126 11
-189 38 -185 91 -286 221 -417 77 -77 105 -98 185 -137 110 -54 181 -74 302
-86 299 -28 621 92 864 321 157 149 272 334 330 533 39 130 45 323 15 450 -66
276 -257 478 -533 563 -59 19 -92 24 -228 36 -19 2 -72 -1 -118 -5z"/>
<path d="M3822 2059 c-545 -52 -1018 -534 -1049 -1069 -4 -79 -2 -126 11 -189
38 -185 91 -286 221 -417 77 -77 105 -98 185 -137 110 -54 181 -74 302 -86
299 -28 621 92 864 321 157 149 272 334 330 533 39 130 45 323 15 450 -66 276
-257 478 -533 563 -59 19 -92 24 -228 36 -19 2 -72 -1 -118 -5z"/>
</g>
</svg>
