<?xml version="1.0" standalone="no"?>
<!DOCTYPE svg PUBLIC "-//W3C//DTD SVG 20010904//EN"
 "http://www.w3.org/TR/2001/REC-SVG-20010904/DTD/svg10.dtd">
<svg version="1.0" xmlns="http://www.w3.org/2000/svg"
 width="947.000000pt" height="937.000000pt" viewBox="0 0 947.000000 937.000000"
 preserveAspectRatio="xMidYMid meet">
<metadata>
Created by potrace 1.16, written by Peter Selinger 2001-2019
</metadata>
<g transform="translate(0.000000,937.000000) scale(0.100000,-0.100000)"
fill="#000000" stroke="none">
<path d="M2281 9352 c-51 -25 -69 -57 -98 -168 -28 -110 -26 -157 6 -202 39
-55 69 -62 278 -62 350 0 650 -27 760 -68 63 -23 78 -61 69 -176 -8 -96 -1850
-7475 -1896 -7594 -58 -151 -128 -225 -246 -262 -139 -43 -449 -70 -802 -70
-211 0 -228 -4 -274 -59 -17 -19 -34 -65 -52 -136 -30 -122 -26 -162 21 -207
53 -49 56 -49 305 -38 128 5 499 15 823 21 602 12 1048 5 1471 -22 171 -11
183 -11 220 7 53 26 78 67 104 174 34 137 18 199 -60 241 -27 15 -57 19 -140
19 -116 1 -241 14 -281 31 -35 14 -42 49 -28 147 6 42 216 900 468 1907 l457
1830 813 3 c667 2 830 0 910 -12 467 -70 788 -378 887 -851 26 -124 26 -430 0
-560 -9 -49 -93 -394 -186 -765 -92 -371 -170 -685 -172 -697 -2 -15 -182
-153 -632 -484 -391 -288 -635 -474 -647 -493 -38 -62 -19 -138 60 -242 63
-83 126 -111 193 -85 13 5 244 171 513 370 l490 361 17 -82 c55 -273 167 -485
350 -668 299 -298 750 -454 1313 -454 197 0 216 2 310 27 343 92 657 352 905
747 142 226 303 629 304 762 1 61 -2 69 -29 99 -44 47 -82 59 -182 59 -174 0
-197 -20 -253 -212 -138 -475 -369 -851 -633 -1030 -167 -114 -379 -148 -540
-88 -181 68 -267 303 -267 730 0 177 10 321 52 774 l32 348 56 42 c30 24 568
420 1195 880 627 461 1157 855 1178 877 33 34 37 44 37 91 0 46 -7 64 -51 135
-59 96 -93 124 -158 131 -42 4 -53 0 -111 -40 -36 -24 -519 -378 -1074 -786
-554 -409 -1010 -742 -1012 -740 -2 2 3 64 11 138 20 183 19 446 -1 574 -83
523 -413 954 -933 1220 l-115 59 125 34 c1165 317 2118 1048 2454 1883 57 141
99 299 121 456 21 156 14 404 -16 549 -73 348 -248 658 -514 912 -440 421
-1065 668 -1828 722 -95 7 -831 11 -2095 11 -1835 0 -1950 -1 -1982 -18z
m3948 -455 c455 -64 764 -193 984 -413 151 -149 227 -299 268 -524 20 -107 17
-395 -5 -545 -51 -353 -168 -777 -292 -1064 -215 -494 -515 -809 -997 -1046
-285 -141 -566 -222 -937 -271 -105 -14 -254 -18 -951 -21 l-827 -4 453 1808
c249 994 460 1827 469 1851 31 86 80 164 116 187 91 60 145 63 925 60 558 -2
700 -5 794 -18z"/>
</g>
</svg>
