<?xml version="1.0" standalone="no"?>
<!DOCTYPE svg PUBLIC "-//W3C//DTD SVG 20010904//EN"
 "http://www.w3.org/TR/2001/REC-SVG-20010904/DTD/svg10.dtd">
<svg version="1.0" xmlns="http://www.w3.org/2000/svg"
 width="827.000000pt" height="572.000000pt" viewBox="0 0 827.000000 572.000000"
 preserveAspectRatio="xMidYMid meet">
<metadata>
Created by potrace 1.16, written by Peter Selinger 2001-2019
</metadata>
<g transform="translate(0.000000,572.000000) scale(0.100000,-0.100000)"
fill="#000000" stroke="none">
<path d="M3160 5713 c-620 -62 -1182 -302 -1725 -737 -124 -100 -389 -358
-504 -491 -516 -597 -848 -1341 -921 -2068 -18 -175 -8 -558 19 -712 67 -390
218 -737 438 -1007 30 -37 106 -117 169 -177 367 -353 878 -538 1429 -518 268
9 545 65 810 163 157 58 440 197 590 291 l110 69 85 -74 c465 -403 1106 -543
1795 -391 469 104 939 338 1370 683 124 100 389 358 504 491 516 597 848 1341
921 2068 18 175 8 558 -19 712 -67 390 -218 737 -438 1007 -30 37 -106 117
-169 177 -367 353 -878 538 -1429 518 -268 -9 -545 -65 -810 -163 -157 -58
-440 -197 -590 -291 l-110 -69 -85 74 c-343 297 -791 456 -1270 450 -74 -1
-151 -3 -170 -5z m425 -638 c211 -37 417 -110 562 -201 l73 -46 -126 -131
c-239 -249 -414 -475 -577 -743 -380 -629 -581 -1377 -538 -2007 23 -341 91
-613 221 -883 l59 -124 -42 -24 c-59 -35 -234 -112 -347 -153 -126 -46 -329
-98 -470 -119 -142 -22 -484 -25 -605 -6 -692 114 -1090 526 -1170 1212 -73
621 147 1444 547 2045 242 364 517 635 855 842 315 193 663 312 1028 353 115
13 424 4 530 -15z m2910 1 c672 -118 1061 -530 1140 -1206 53 -448 -47 -1011
-272 -1535 -361 -843 -1016 -1437 -1808 -1640 -215 -55 -333 -70 -570 -69
-158 0 -235 5 -310 18 -217 39 -416 111 -562 202 l-73 46 126 131 c239 249
414 475 577 743 380 629 581 1377 538 2007 -23 341 -91 613 -221 883 l-59 124
42 24 c199 116 592 244 847 275 47 6 101 13 120 15 69 8 407 -4 485 -18z
m-1889 -697 c130 -260 183 -530 171 -884 -22 -645 -280 -1327 -701 -1855 -102
-126 -218 -252 -304 -329 l-71 -62 -46 91 c-131 261 -184 531 -172 885 26 766
375 1555 934 2113 73 72 135 132 138 132 3 0 25 -41 51 -91z"/>
</g>
</svg>
