<?xml version="1.0" standalone="no"?>
<!DOCTYPE svg PUBLIC "-//W3C//DTD SVG 20010904//EN"
 "http://www.w3.org/TR/2001/REC-SVG-20010904/DTD/svg10.dtd">
<svg version="1.0" xmlns="http://www.w3.org/2000/svg"
 width="509.000000pt" height="630.000000pt" viewBox="0 0 509.000000 630.000000"
 preserveAspectRatio="xMidYMid meet">
<metadata>
Created by potrace 1.16, written by Peter Selinger 2001-2019
</metadata>
<g transform="translate(0.000000,630.000000) scale(0.100000,-0.100000)"
fill="#000000" stroke="none">
<path d="M2640 6279 c-38 -23 -167 -125 -215 -170 -21 -19 -79 -44 -195 -82
-395 -130 -707 -313 -950 -557 -129 -129 -206 -232 -281 -373 -207 -394 -196
-725 30 -956 111 -113 240 -183 427 -232 76 -20 112 -23 254 -23 150 0 173 3
255 28 123 37 273 113 375 190 109 81 256 235 342 356 131 184 248 451 300
687 19 84 22 129 23 314 l0 216 74 7 c266 22 511 -12 681 -96 98 -48 202 -144
238 -219 75 -156 67 -372 -27 -755 -52 -209 -91 -327 -150 -450 -64 -135 -119
-213 -210 -305 -168 -167 -389 -269 -681 -315 -82 -13 -209 -17 -572 -21 -436
-5 -469 -7 -498 -24 -17 -11 -37 -34 -45 -53 -29 -69 -106 -401 -101 -430 9
-42 31 -73 69 -93 29 -16 77 -19 492 -24 507 -6 509 -6 650 -73 91 -43 163
-109 205 -188 33 -60 34 -69 38 -189 3 -98 -1 -158 -18 -265 -26 -165 -135
-608 -185 -754 -52 -151 -134 -311 -213 -415 -198 -261 -541 -434 -962 -485
-123 -15 -365 -13 -453 4 -187 36 -349 134 -467 282 -141 177 -229 434 -246
723 l-7 111 45 0 c119 0 329 85 445 180 156 127 264 324 295 536 29 205 -56
401 -219 504 -137 87 -350 109 -528 56 -298 -90 -494 -297 -575 -608 -50 -192
-71 -345 -77 -564 -11 -375 43 -661 178 -944 206 -431 563 -703 1034 -785 107
-19 430 -21 606 -5 1125 105 2127 708 2442 1470 176 425 127 889 -134 1260
-71 102 -225 251 -336 328 l-92 63 158 79 c624 315 1049 798 1189 1348 24 97
27 123 26 287 0 162 -3 190 -27 278 -59 222 -160 393 -331 562 -256 254 -597
413 -1031 480 -144 23 -450 30 -635 16 -85 -7 -163 -14 -172 -17 -12 -4 -23 6
-37 33 -30 60 -64 85 -118 90 -37 3 -56 -1 -83 -18z m-145 -785 c33 -394 -202
-883 -504 -1047 -207 -113 -472 -44 -510 132 -9 41 -8 67 3 120 61 292 304
564 661 741 114 57 308 137 337 139 3 1 9 -38 13 -85z"/>
</g>
</svg>
