<?xml version="1.0" standalone="no"?>
<!DOCTYPE svg PUBLIC "-//W3C//DTD SVG 20010904//EN"
 "http://www.w3.org/TR/2001/REC-SVG-20010904/DTD/svg10.dtd">
<svg version="1.0" xmlns="http://www.w3.org/2000/svg"
 width="634.000000pt" height="927.000000pt" viewBox="0 0 634.000000 927.000000"
 preserveAspectRatio="xMidYMid meet">
<metadata>
Created by potrace 1.16, written by Peter Selinger 2001-2019
</metadata>
<g transform="translate(0.000000,927.000000) scale(0.100000,-0.100000)"
fill="#000000" stroke="none">
<path d="M2413 9255 c-18 -8 -41 -28 -52 -45 -11 -19 -255 -977 -586 -2301
-445 -1778 -566 -2276 -561 -2303 8 -44 50 -95 93 -112 39 -17 226 -19 271 -3
21 7 63 49 125 122 124 147 358 374 478 464 409 307 823 460 1294 479 93 4
154 1 213 -10 302 -54 533 -319 612 -701 83 -395 36 -838 -180 -1705 -156
-627 -255 -931 -405 -1246 -397 -836 -1102 -1377 -1835 -1411 -235 -10 -456
34 -655 132 -288 141 -494 383 -609 713 -42 120 -74 282 -83 408 l-6 91 104 6
c416 22 748 370 749 783 0 247 -142 424 -390 485 -30 7 -100 13 -155 12 -280
-3 -549 -171 -680 -424 -53 -103 -101 -275 -131 -474 -26 -165 -26 -555 -1
-700 75 -432 231 -749 502 -1021 190 -191 399 -319 655 -403 338 -111 760
-120 1188 -25 683 152 1318 510 1857 1049 656 657 1057 1471 1167 2370 19 159
16 608 -5 748 -88 577 -325 1040 -685 1341 -424 352 -967 471 -1596 350 -380
-74 -777 -252 -1099 -495 -44 -33 -81 -58 -83 -57 -1 2 136 557 305 1233 232
926 311 1230 322 1229 8 -1 55 -14 104 -28 118 -35 352 -82 490 -98 164 -19
588 -16 750 6 788 107 1548 460 2175 1011 159 140 216 204 229 256 6 24 16 60
21 80 16 57 12 111 -10 147 -21 34 -71 62 -111 62 -12 0 -105 -33 -208 -74
-1194 -476 -2420 -473 -3364 9 -132 67 -160 74 -214 50z"/>
</g>
</svg>
