<?xml version="1.0" standalone="no"?>
<!DOCTYPE svg PUBLIC "-//W3C//DTD SVG 20010904//EN"
 "http://www.w3.org/TR/2001/REC-SVG-20010904/DTD/svg10.dtd">
<svg version="1.0" xmlns="http://www.w3.org/2000/svg"
 width="1127.000000pt" height="967.000000pt" viewBox="0 0 1127.000000 967.000000"
 preserveAspectRatio="xMidYMid meet">
<metadata>
Created by potrace 1.16, written by Peter Selinger 2001-2019
</metadata>
<g transform="translate(0.000000,967.000000) scale(0.100000,-0.100000)"
fill="#000000" stroke="none">
<path d="M7825 9664 c-136 -11 -344 -38 -465 -60 -1334 -246 -2659 -1126
-3597 -2388 -749 -1008 -1200 -2178 -1284 -3335 -15 -210 -7 -678 16 -861 131
-1074 617 -1938 1390 -2472 255 -175 568 -323 872 -412 735 -213 1470 -177
2203 109 117 46 392 177 514 247 539 305 1065 775 1459 1303 196 262 335 490
482 790 144 293 238 540 315 824 35 129 32 156 -21 207 l-30 29 -150 0 -151 0
-32 -36 c-24 -26 -38 -55 -51 -110 -10 -41 -44 -153 -75 -249 -420 -1271
-1443 -2351 -2543 -2684 -263 -80 -472 -110 -752 -110 -221 0 -322 9 -517 50
-673 140 -1230 601 -1507 1245 -321 749 -313 1719 25 3072 329 1318 794 2261
1496 3035 624 689 1480 1185 2271 1317 352 58 604 59 882 4 712 -143 1204
-747 1359 -1669 43 -254 51 -368 51 -695 -1 -313 -7 -406 -47 -698 -21 -148
-21 -159 -5 -192 30 -63 64 -75 212 -75 147 0 183 12 210 72 18 40 905 3594
905 3626 0 36 -28 81 -63 102 -42 26 -139 27 -184 3 -17 -10 -123 -121 -235
-248 -111 -126 -327 -370 -479 -541 l-276 -311 -49 80 c-160 263 -402 517
-654 685 -241 160 -556 278 -875 327 -106 16 -499 28 -620 19z"/>
<path d="M1515 9363 c-205 -26 -389 -83 -575 -179 -176 -91 -295 -178 -445
-329 -154 -154 -241 -272 -330 -450 -107 -214 -152 -382 -162 -606 -30 -670
480 -1166 1166 -1136 238 10 446 67 671 183 176 91 295 178 445 329 154 154
241 272 330 450 107 214 152 382 162 606 29 654 -458 1147 -1124 1138 -59 -1
-121 -4 -138 -6z m293 -549 c399 -81 544 -480 337 -921 -215 -457 -747 -764
-1173 -677 -399 81 -544 480 -337 921 215 457 747 764 1173 677z"/>
</g>
</svg>
