<?xml version="1.0" standalone="no"?>
<!DOCTYPE svg PUBLIC "-//W3C//DTD SVG 20010904//EN"
 "http://www.w3.org/TR/2001/REC-SVG-20010904/DTD/svg10.dtd">
<svg version="1.0" xmlns="http://www.w3.org/2000/svg"
 width="387.000000pt" height="210.000000pt" viewBox="0 0 387.000000 210.000000"
 preserveAspectRatio="xMidYMid meet">
<metadata>
Created by potrace 1.16, written by Peter Selinger 2001-2019
</metadata>
<g transform="translate(0.000000,210.000000) scale(0.100000,-0.100000)"
fill="#000000" stroke="none">
<path d="M116 2069 c-82 -55 -123 -128 -110 -197 8 -43 1367 -1815 1415 -1845
37 -24 102 -26 141 -6 15 8 532 412 1149 898 875 690 1125 892 1135 917 20 47
17 98 -7 147 -60 119 -148 148 -258 86 -31 -18 -465 -271 -966 -564 -500 -292
-920 -537 -932 -544 -21 -10 -72 30 -695 545 -370 306 -686 565 -703 575 -48
30 -112 25 -169 -12z"/>
</g>
</svg>
