<?xml version="1.0" standalone="no"?>
<!DOCTYPE svg PUBLIC "-//W3C//DTD SVG 20010904//EN"
 "http://www.w3.org/TR/2001/REC-SVG-20010904/DTD/svg10.dtd">
<svg version="1.0" xmlns="http://www.w3.org/2000/svg"
 width="836.000000pt" height="983.000000pt" viewBox="0 0 836.000000 983.000000"
 preserveAspectRatio="xMidYMid meet">
<metadata>
Created by potrace 1.16, written by Peter Selinger 2001-2019
</metadata>
<g transform="translate(0.000000,983.000000) scale(0.100000,-0.100000)"
fill="#000000" stroke="none">
<path d="M5255 9824 c-201 -19 -279 -29 -400 -50 -677 -118 -1386 -428 -2029
-888 -636 -455 -1218 -1062 -1676 -1746 -911 -1362 -1318 -2996 -1079 -4340
67 -378 179 -720 343 -1050 314 -629 769 -1096 1364 -1398 339 -172 685 -278
1072 -327 267 -34 767 -30 1160 11 923 94 1734 367 2349 791 330 227 677 570
877 868 57 86 63 121 33 182 -43 85 -52 88 -277 91 -254 4 -241 10 -368 -162
-116 -156 -360 -405 -509 -517 -523 -397 -1155 -630 -1945 -715 -198 -22 -662
-25 -800 -6 -857 121 -1483 602 -1776 1365 -175 457 -225 1037 -148 1727 31
286 112 725 200 1093 l38 157 3143 0 c3433 0 3182 -5 3235 58 59 70 207 814
265 1332 22 198 26 894 5 1060 -132 1067 -576 1760 -1377 2150 -313 153 -608
240 -989 291 -144 19 -600 34 -711 23z m465 -529 c115 -20 302 -81 397 -128
177 -90 358 -238 478 -391 124 -160 200 -305 270 -519 213 -651 204 -1498 -26
-2592 -22 -104 -45 -207 -50 -227 l-10 -38 -2479 0 c-1901 0 -2480 3 -2480 12
0 6 25 95 56 197 261 869 556 1508 958 2081 511 727 1208 1282 1896 1509 169
56 329 90 540 115 75 9 360 -3 450 -19z"/>
</g>
</svg>
