<?xml version="1.0" standalone="no"?>
<!DOCTYPE svg PUBLIC "-//W3C//DTD SVG 20010904//EN"
 "http://www.w3.org/TR/2001/REC-SVG-20010904/DTD/svg10.dtd">
<svg version="1.0" xmlns="http://www.w3.org/2000/svg"
 width="445.000000pt" height="45.000000pt" viewBox="0 0 445.000000 45.000000"
 preserveAspectRatio="xMidYMid meet">
<metadata>
Created by potrace 1.16, written by Peter Selinger 2001-2019
</metadata>
<g transform="translate(0.000000,45.000000) scale(0.100000,-0.100000)"
fill="#000000" stroke="none">
<path d="M121 432 c-19 -9 -43 -29 -53 -43 -21 -28 -67 -196 -68 -245 0 -38
34 -91 79 -121 l34 -23 2084 0 c1903 0 2088 1 2119 16 50 24 70 58 99 174 30
117 28 153 -12 200 -54 65 121 60 -2165 60 -1963 0 -2085 -1 -2117 -18z"/>
</g>
</svg>
