<?xml version="1.0" standalone="no"?>
<!DOCTYPE svg PUBLIC "-//W3C//DTD SVG 20010904//EN"
 "http://www.w3.org/TR/2001/REC-SVG-20010904/DTD/svg10.dtd">
<svg version="1.0" xmlns="http://www.w3.org/2000/svg"
 width="273.000000pt" height="264.000000pt" viewBox="0 0 273.000000 264.000000"
 preserveAspectRatio="xMidYMid meet">
<metadata>
Created by potrace 1.16, written by Peter Selinger 2001-2019
</metadata>
<g transform="translate(0.000000,264.000000) scale(0.100000,-0.100000)"
fill="#000000" stroke="none">
<path d="M1485 2624 c-695 -108 -1310 -679 -1460 -1355 -9 -41 -19 -142 -22
-229 -4 -134 -2 -169 17 -260 88 -428 402 -710 858 -771 105 -14 293 -7 412
16 498 96 966 441 1232 908 144 252 217 569 190 817 -33 292 -162 529 -374
688 -219 164 -541 235 -853 186z m377 -423 c276 -72 388 -246 357 -556 -20
-199 -125 -588 -199 -735 -178 -355 -488 -517 -950 -497 -415 17 -594 183
-577 532 8 158 76 463 146 652 138 375 375 570 756 622 114 16 377 6 467 -18z"/>
</g>
</svg>
