<?xml version="1.0" standalone="no"?>
<!DOCTYPE svg PUBLIC "-//W3C//DTD SVG 20010904//EN"
 "http://www.w3.org/TR/2001/REC-SVG-20010904/DTD/svg10.dtd">
<svg version="1.0" xmlns="http://www.w3.org/2000/svg"
 width="609.000000pt" height="1070.000000pt" viewBox="0 0 609.000000 1070.000000"
 preserveAspectRatio="xMidYMid meet">
<metadata>
Created by potrace 1.16, written by Peter Selinger 2001-2019
</metadata>
<g transform="translate(0.000000,1070.000000) scale(0.100000,-0.100000)"
fill="#000000" stroke="none">
<path d="M4184 10681 c-59 -36 -69 -61 -135 -324 l-62 -252 -129 -18 c-973
-136 -1938 -876 -2413 -1852 -111 -228 -178 -415 -240 -665 -57 -237 -70 -345
-69 -625 0 -266 8 -346 59 -546 144 -568 508 -1000 1019 -1210 79 -32 247 -87
447 -144 l56 -16 -497 -1987 -497 -1987 -69 3 c-84 3 -235 33 -346 68 -299 95
-529 278 -680 544 -73 129 -136 346 -157 542 -12 103 -15 349 -5 384 5 19 15
22 112 27 263 13 473 151 583 382 56 117 72 189 67 310 -3 94 -6 108 -41 178
-44 89 -103 147 -192 187 -163 75 -338 66 -525 -26 -77 -39 -109 -62 -175
-128 -99 -101 -145 -183 -185 -337 -78 -304 -104 -506 -104 -819 0 -206 4
-265 22 -370 46 -268 139 -513 269 -708 136 -205 378 -408 613 -514 170 -77
377 -136 575 -163 66 -9 121 -18 122 -19 1 -1 -23 -100 -53 -221 -60 -239 -61
-263 -17 -315 43 -51 71 -60 190 -60 119 0 160 13 196 61 10 14 43 123 73 245
30 120 59 235 65 255 l9 37 83 11 c836 120 1662 686 2211 1516 192 290 319
546 427 865 262 765 247 1506 -42 2085 -92 187 -178 304 -329 456 -231 232
-428 341 -825 458 -135 40 -160 50 -158 66 1 10 203 823 449 1808 l447 1789
61 -6 c376 -40 676 -167 880 -370 219 -219 324 -488 342 -877 l7 -139 -94 0
c-182 0 -331 -62 -465 -195 -88 -87 -136 -164 -175 -280 -20 -58 -24 -90 -24
-190 0 -102 4 -129 24 -178 28 -70 110 -163 178 -199 221 -120 533 -60 732
142 110 110 155 205 205 430 86 388 93 792 20 1085 -54 215 -152 429 -270 585
-254 338 -653 549 -1184 625 -63 10 -117 19 -119 21 -2 2 19 96 48 208 58 232
61 268 28 317 -37 56 -76 69 -202 69 -90 0 -116 -3 -141 -19z m-318 -1058 c-3
-10 -195 -776 -426 -1703 -232 -927 -425 -1701 -431 -1721 l-9 -37 -153 45
c-387 113 -641 312 -800 628 -165 330 -174 813 -21 1237 171 475 520 916 954
1208 243 164 522 284 782 339 116 24 110 24 104 4z m-601 -4753 c260 -79 404
-160 556 -317 183 -187 294 -417 346 -713 24 -135 24 -466 -1 -613 -76 -463
-273 -901 -568 -1265 -91 -112 -309 -332 -413 -417 -217 -176 -502 -336 -736
-413 -126 -41 -245 -69 -255 -60 -8 9 950 3828 961 3828 5 0 55 -14 110 -30z"/>
</g>
</svg>
