<?xml version="1.0" standalone="no"?>
<!DOCTYPE svg PUBLIC "-//W3C//DTD SVG 20010904//EN"
 "http://www.w3.org/TR/2001/REC-SVG-20010904/DTD/svg10.dtd">
<svg version="1.0" xmlns="http://www.w3.org/2000/svg"
 width="571.000000pt" height="870.000000pt" viewBox="0 0 571.000000 870.000000"
 preserveAspectRatio="xMidYMid meet">
<metadata>
Created by potrace 1.16, written by Peter Selinger 2001-2019
</metadata>
<g transform="translate(0.000000,870.000000) scale(0.100000,-0.100000)"
fill="#000000" stroke="none">
<path d="M3048 8678 c-61 -36 -73 -73 -128 -413 -90 -555 -199 -1121 -326
-1695 -61 -277 -168 -733 -193 -827 l-12 -43 -102 0 c-306 0 -1168 28 -1730
56 -352 17 -366 16 -415 -40 -24 -28 -38 -69 -87 -265 l-58 -231 17 -45 c20
-52 63 -92 109 -100 18 -4 174 1 347 9 593 29 1764 65 1775 54 3 -2 -6 -44
-19 -94 -14 -49 -75 -282 -136 -519 -318 -1227 -669 -2487 -1057 -3802 -180
-611 -178 -601 -126 -664 49 -58 57 -59 459 -59 356 0 367 1 405 22 23 13 46
37 58 62 12 25 61 242 121 541 233 1152 528 2484 821 3710 66 275 136 569 156
653 l37 152 275 0 c477 0 1237 -22 1917 -56 319 -16 321 -16 361 4 22 12 48
33 58 49 21 32 124 431 125 482 0 47 -36 105 -82 131 l-39 22 -332 -16 c-1015
-48 -2137 -72 -2137 -44 0 31 207 794 321 1183 127 430 187 622 356 1136 181
553 180 546 126 610 -49 58 -57 59 -460 59 -358 0 -369 -1 -405 -22z"/>
</g>
</svg>
