<?xml version="1.0" standalone="no"?>
<!DOCTYPE svg PUBLIC "-//W3C//DTD SVG 20010904//EN"
 "http://www.w3.org/TR/2001/REC-SVG-20010904/DTD/svg10.dtd">
<svg version="1.0" xmlns="http://www.w3.org/2000/svg"
 width="696.000000pt" height="1338.000000pt" viewBox="0 0 696.000000 1338.000000"
 preserveAspectRatio="xMidYMid meet">
<metadata>
Created by potrace 1.16, written by Peter Selinger 2001-2019
</metadata>
<g transform="translate(0.000000,1338.000000) scale(0.100000,-0.100000)"
fill="#000000" stroke="none">
<path d="M4945 13374 c-508 -50 -863 -146 -1229 -331 -537 -273 -893 -691
-990 -1165 -93 -453 247 -819 794 -857 94 -6 127 -13 178 -36 34 -15 62 -31
62 -34 0 -4 -25 -28 -55 -54 -63 -55 -81 -99 -65 -159 10 -34 50 -79 82 -91 9
-4 5 -12 -14 -29 -38 -33 -42 -45 -92 -246 -51 -203 -54 -233 -26 -279 37 -62
33 -61 521 -66 493 -4 521 -7 657 -72 89 -42 182 -128 217 -199 71 -146 51
-381 -75 -885 -142 -567 -267 -799 -536 -998 -264 -195 -672 -309 -1039 -290
-149 7 -241 30 -360 87 -299 144 -479 475 -511 937 l-7 100 59 7 c102 13 176
35 284 88 93 46 116 63 200 147 124 125 182 225 225 387 101 377 -133 684
-520 684 -232 0 -462 -110 -616 -293 -80 -96 -133 -208 -173 -368 -47 -188
-67 -335 -73 -544 -12 -380 53 -694 202 -984 203 -394 518 -634 962 -733 86
-20 128 -22 343 -22 135 0 295 5 355 12 653 75 1243 300 1723 656 140 104 406
371 494 496 131 186 223 392 270 607 31 143 30 397 -1 538 -58 254 -172 464
-351 646 -79 81 -227 199 -277 222 -20 9 -8 17 105 72 722 354 1211 960 1273
1580 18 182 -16 401 -90 575 -195 458 -670 777 -1301 875 -100 16 -509 29
-605 19z m460 -532 c177 -39 288 -95 382 -195 95 -100 127 -198 126 -382 -2
-227 -101 -659 -210 -915 -162 -380 -435 -589 -883 -676 -69 -13 -171 -17
-540 -21 l-455 -4 46 29 c25 16 65 52 89 80 l42 51 31 -15 c188 -98 359 -59
444 103 64 119 80 262 36 321 -36 48 -81 72 -137 72 -61 0 -108 -21 -223 -96
-94 -61 -108 -60 -98 6 3 26 2 30 -5 15 -5 -11 -9 -34 -9 -52 -1 -26 -22 -63
-36 -63 -3 0 -36 62 -75 138 -121 237 -164 277 -318 294 -264 29 -336 187
-215 475 87 207 281 412 530 560 231 138 575 248 883 282 52 6 111 13 130 15
89 10 378 -4 465 -22z"/>
<path d="M947 6806 c-98 -36 -166 -111 -188 -212 -31 -136 62 -286 201 -324
22 -6 934 -10 2547 -10 2484 0 2513 0 2565 20 58 21 123 81 154 140 26 49 26
191 0 240 -31 59 -96 119 -154 140 -52 20 -81 20 -2570 20 -2091 -1 -2523 -3
-2555 -14z"/>
<path d="M4110 6007 c-41 -13 -94 -33 -117 -45 l-43 -22 -38 19 c-141 72 -346
65 -509 -17 -187 -95 -303 -246 -363 -472 -137 -524 -524 -1023 -1111 -1436
-436 -305 -1058 -597 -1677 -785 -90 -27 -176 -56 -192 -64 -38 -20 -60 -63
-60 -119 0 -42 8 -56 107 -188 111 -147 156 -188 203 -188 16 0 125 29 244 65
119 36 233 65 253 64 48 0 159 -30 383 -101 248 -80 292 -87 555 -98 246 -11
492 -35 750 -75 88 -14 207 -33 265 -41 58 -9 109 -20 113 -24 4 -4 -103 -449
-238 -989 -215 -862 -245 -991 -245 -1060 0 -130 41 -233 125 -310 157 -144
409 -159 640 -38 116 62 245 208 294 334 10 27 125 478 257 1004 l238 956 146
7 c148 7 226 14 695 61 292 30 312 35 352 95 26 38 29 79 9 118 -8 15 -60 88
-115 162 -128 171 -127 170 -310 163 -110 -5 -609 12 -618 20 -1 1 140 569
314 1262 277 1105 316 1270 316 1340 2 187 -94 327 -271 396 -87 34 -251 37
-352 6z m-946 -2402 c-69 -275 -127 -501 -129 -504 -3 -2 -118 15 -257 37
-332 54 -736 101 -872 102 -5 0 103 56 240 124 440 219 794 445 1064 679 41
36 76 64 77 63 1 -1 -55 -226 -123 -501z"/>
</g>
</svg>
