<?xml version="1.0" standalone="no"?>
<!DOCTYPE svg PUBLIC "-//W3C//DTD SVG 20010904//EN"
 "http://www.w3.org/TR/2001/REC-SVG-20010904/DTD/svg10.dtd">
<svg version="1.0" xmlns="http://www.w3.org/2000/svg"
 width="603.000000pt" height="1230.000000pt" viewBox="0 0 603.000000 1230.000000"
 preserveAspectRatio="xMidYMid meet">
<metadata>
Created by potrace 1.16, written by Peter Selinger 2001-2019
</metadata>
<g transform="translate(0.000000,1230.000000) scale(0.100000,-0.100000)"
fill="#000000" stroke="none">
<path d="M5053 12286 c-87 -28 -159 -91 -194 -171 -10 -22 -581 -2292 -1269
-5045 -688 -2752 -1252 -5006 -1254 -5007 -1 -1 -17 34 -35 80 -56 138 -184
379 -274 514 -383 575 -974 1003 -1658 1202 -125 36 -181 39 -227 11 -49 -30
-67 -69 -107 -232 -33 -132 -36 -154 -26 -188 15 -52 62 -97 114 -110 93 -25
315 -102 415 -146 491 -212 901 -580 1165 -1044 190 -332 313 -756 334 -1146
6 -118 5 -126 -32 -274 -41 -166 -40 -199 6 -249 l22 -24 -22 -161 c-21 -146
-21 -166 -8 -197 37 -88 136 -124 217 -78 45 25 63 55 99 162 69 200 88 241
128 262 57 31 72 60 112 222 42 166 66 218 210 447 673 1067 1777 1891 2939
2191 160 41 196 57 221 99 21 33 91 297 91 341 0 40 -37 104 -73 125 -49 30
-115 25 -283 -21 -1030 -281 -1986 -883 -2730 -1718 -7 -7 546 2221 1229 4951
l1241 4964 -13 57 c-25 114 -116 189 -235 194 -34 1 -80 -3 -103 -11z"/>
</g>
</svg>
