<?xml version="1.0" standalone="no"?>
<!DOCTYPE svg PUBLIC "-//W3C//DTD SVG 20010904//EN"
 "http://www.w3.org/TR/2001/REC-SVG-20010904/DTD/svg10.dtd">
<svg version="1.0" xmlns="http://www.w3.org/2000/svg"
 width="988.000000pt" height="976.000000pt" viewBox="0 0 988.000000 976.000000"
 preserveAspectRatio="xMidYMid meet">
<metadata>
Created by potrace 1.16, written by Peter Selinger 2001-2019
</metadata>
<g transform="translate(0.000000,976.000000) scale(0.100000,-0.100000)"
fill="#000000" stroke="none">
<path d="M2369 9739 c-49 -29 -67 -64 -100 -193 -35 -135 -36 -187 -8 -233 40
-65 73 -73 297 -73 332 0 663 -25 784 -60 20 -6 47 -19 60 -29 21 -18 23 -26
22 -118 -1 -96 -24 -190 -971 -3973 -1061 -4240 -991 -3979 -1092 -4080 -103
-103 -295 -135 -866 -147 -356 -6 -373 -10 -413 -75 -10 -18 -34 -92 -52 -165
-35 -146 -34 -173 16 -233 41 -48 67 -51 310 -40 120 5 510 15 866 22 663 12
1138 5 1597 -24 182 -11 185 -11 226 11 54 29 72 62 106 195 35 135 36 187 8
233 -35 56 -82 73 -201 73 -117 0 -255 14 -306 31 l-34 11 4 82 c3 64 102 472
479 1979 l474 1897 820 0 c514 0 852 -4 905 -11 473 -58 798 -363 905 -849 26
-117 31 -389 11 -530 -10 -63 -92 -412 -182 -775 -91 -363 -173 -697 -183
-742 l-17 -81 -644 -474 c-401 -294 -653 -486 -667 -507 -16 -23 -23 -49 -23
-81 0 -40 8 -60 58 -136 81 -126 83 -129 122 -153 43 -26 94 -27 140 -3 19 10
247 174 506 364 259 191 477 348 483 350 8 2 23 -38 41 -107 43 -168 92 -279
180 -411 129 -190 305 -340 535 -454 289 -144 594 -213 995 -227 203 -7 298 4
440 49 384 123 737 460 979 936 118 233 221 522 221 620 0 56 -26 104 -72 132
-29 18 -51 20 -183 20 -217 0 -221 -4 -289 -232 -172 -577 -457 -978 -776
-1089 -92 -32 -279 -33 -360 -1 -176 69 -254 236 -280 600 -14 184 -3 440 39
933 25 287 31 334 47 349 11 9 578 428 1262 929 683 502 1250 924 1259 937 9
14 18 46 20 72 4 42 -1 55 -48 134 -28 48 -66 104 -82 124 -50 60 -126 80
-187 49 -21 -11 -1336 -973 -2129 -1558 l-53 -39 8 113 c5 63 9 206 8 319 -1
181 -4 220 -27 331 -69 328 -213 606 -436 841 -144 151 -304 274 -484 369
l-89 47 54 12 c29 7 123 35 208 62 965 311 1741 863 2184 1558 73 115 181 342
225 475 164 493 128 978 -105 1424 -188 362 -536 683 -974 900 -380 189 -793
294 -1295 331 -89 6 -892 10 -2190 10 l-2050 0 -36 -21z m3966 -510 c340 -25
588 -83 813 -190 140 -66 230 -127 335 -228 139 -134 207 -250 253 -430 66
-260 49 -567 -58 -1031 -141 -613 -312 -1006 -572 -1317 -369 -444 -1011 -726
-1781 -783 -139 -10 -1645 -15 -1645 -5 0 24 926 3699 946 3755 59 165 114
208 294 229 109 12 1249 13 1415 0z"/>
</g>
</svg>
