<?xml version="1.0" standalone="no"?>
<!DOCTYPE svg PUBLIC "-//W3C//DTD SVG 20010904//EN"
 "http://www.w3.org/TR/2001/REC-SVG-20010904/DTD/svg10.dtd">
<svg version="1.0" xmlns="http://www.w3.org/2000/svg"
 width="913.000000pt" height="976.000000pt" viewBox="0 0 913.000000 976.000000"
 preserveAspectRatio="xMidYMid meet">
<metadata>
Created by potrace 1.16, written by Peter Selinger 2001-2019
</metadata>
<g transform="translate(0.000000,976.000000) scale(0.100000,-0.100000)"
fill="#000000" stroke="none">
<path d="M1971 9742 c-19 -9 -43 -28 -53 -42 -10 -14 -228 -491 -485 -1060
-417 -924 -467 -1041 -467 -1087 -1 -56 17 -89 68 -127 25 -19 44 -21 227 -24
284 -4 254 -28 419 338 124 276 337 705 402 810 63 101 95 121 240 150 145 30
348 40 806 40 l424 0 -48 -87 c-285 -527 -641 -1016 -1454 -1993 -904 -1087
-1247 -1557 -1543 -2116 -346 -655 -507 -1222 -507 -1793 0 -434 86 -810 271
-1186 381 -776 1154 -1321 2129 -1499 276 -51 401 -61 750 -60 268 0 356 4
500 22 611 74 1165 242 1719 522 683 344 1239 790 1698 1360 502 624 790 1300
868 2039 19 174 22 561 5 741 -31 344 -107 724 -235 1164 -25 86 -117 375
-205 643 -198 600 -277 859 -341 1118 -90 362 -136 665 -146 953 l-6 174 559
-5 c565 -5 669 -11 783 -46 50 -15 56 -20 64 -51 14 -51 12 -620 -2 -878 -13
-244 -10 -270 37 -315 44 -42 72 -47 269 -47 211 0 242 9 282 80 20 36 24 87
71 1032 28 546 50 1026 50 1067 0 88 -21 131 -81 161 -38 20 -59 20 -1188 18
l-1150 -3 -28 -21 c-45 -34 -62 -74 -98 -236 -116 -513 -160 -966 -159 -1638
1 -457 4 -531 59 -1415 65 -1036 70 -1460 25 -1980 -110 -1256 -549 -2314
-1255 -3020 -852 -852 -2020 -1162 -2862 -759 -291 139 -553 391 -711 684
-171 318 -249 775 -212 1246 48 616 231 1269 566 2024 187 422 428 880 953
1814 636 1131 887 1623 1117 2194 139 342 304 866 304 961 0 56 -30 106 -81
131 -37 20 -64 20 -1176 20 -1064 0 -1140 -1 -1172 -18z"/>
</g>
</svg>
