<?xml version="1.0" standalone="no"?>
<!DOCTYPE svg PUBLIC "-//W3C//DTD SVG 20010904//EN"
 "http://www.w3.org/TR/2001/REC-SVG-20010904/DTD/svg10.dtd">
<svg version="1.0" xmlns="http://www.w3.org/2000/svg"
 width="929.000000pt" height="945.000000pt" viewBox="0 0 929.000000 945.000000"
 preserveAspectRatio="xMidYMid meet">
<metadata>
Created by potrace 1.16, written by Peter Selinger 2001-2019
</metadata>
<g transform="translate(0.000000,945.000000) scale(0.100000,-0.100000)"
fill="#000000" stroke="none">
<path d="M2369 9429 c-20 -12 -44 -35 -54 -52 -23 -39 -74 -240 -75 -292 0
-55 29 -105 76 -132 37 -21 50 -23 244 -23 341 0 659 -25 782 -60 20 -6 47
-19 60 -29 21 -18 23 -26 22 -118 -1 -95 -18 -169 -653 -2703 -358 -1433 -656
-2622 -662 -2642 l-10 -38 -813 0 -813 0 -44 -23 c-119 -63 -144 -216 -52
-318 64 -71 44 -69 879 -69 l742 0 -258 -1028 c-281 -1126 -285 -1138 -379
-1232 -103 -103 -295 -135 -866 -147 -422 -8 -403 2 -461 -231 -38 -150 -36
-184 12 -241 41 -49 66 -52 309 -41 121 5 516 15 877 22 680 12 1559 3 2191
-23 367 -16 364 -17 423 217 37 149 36 183 -8 239 -38 49 -69 55 -285 55 -478
0 -821 42 -855 103 -8 13 -12 57 -11 107 1 76 30 200 265 1140 l264 1055 1260
5 c1149 5 1262 6 1289 22 38 20 78 63 99 105 33 66 11 178 -45 230 -61 56 3
53 -1299 53 -1140 0 -1201 1 -1196 18 3 9 55 218 117 465 l111 447 1127 0
c924 0 1151 3 1266 15 486 51 918 177 1370 400 967 476 1680 1287 1894 2156
59 241 81 489 62 704 -44 491 -229 894 -564 1226 -387 385 -936 618 -1576 668
-91 7 -892 11 -2430 11 l-2296 0 -36 -21z m4420 -523 c465 -69 780 -224 972
-478 220 -292 250 -654 108 -1298 -46 -205 -136 -558 -185 -720 -174 -577
-400 -934 -765 -1205 -320 -239 -685 -380 -1169 -451 -101 -15 -237 -18 -1117
-21 -552 -2 -1003 -2 -1003 1 0 25 975 3899 996 3956 59 165 113 207 294 229
41 5 453 8 915 7 732 -2 855 -5 954 -20z"/>
</g>
</svg>
