<?xml version="1.0" standalone="no"?>
<!DOCTYPE svg PUBLIC "-//W3C//DTD SVG 20010904//EN"
 "http://www.w3.org/TR/2001/REC-SVG-20010904/DTD/svg10.dtd">
<svg version="1.0" xmlns="http://www.w3.org/2000/svg"
 width="880.000000pt" height="1070.000000pt" viewBox="0 0 880.000000 1070.000000"
 preserveAspectRatio="xMidYMid meet">
<metadata>
Created by potrace 1.16, written by Peter Selinger 2001-2019
</metadata>
<g transform="translate(0.000000,1070.000000) scale(0.100000,-0.100000)"
fill="#000000" stroke="none">
<path d="M5605 10681 c-60 -37 -67 -54 -135 -319 l-65 -257 -50 -3 c-104 -5
-335 -34 -465 -58 -1334 -246 -2659 -1126 -3597 -2388 -749 -1008 -1200 -2178
-1284 -3335 -15 -210 -7 -678 16 -861 130 -1067 607 -1920 1375 -2462 407
-287 940 -482 1470 -538 63 -7 116 -14 118 -15 2 -1 -13 -67 -33 -146 -40
-158 -40 -190 2 -239 43 -51 71 -60 190 -60 122 0 163 14 198 65 11 17 39 110
63 207 l43 175 92 7 c271 21 636 110 947 231 117 46 392 177 514 247 539 305
1065 775 1459 1303 196 262 335 490 482 790 144 293 238 540 315 824 35 129
32 156 -21 207 l-30 29 -150 0 -151 0 -32 -36 c-24 -26 -38 -55 -51 -110 -10
-41 -44 -153 -75 -249 -420 -1271 -1443 -2351 -2543 -2684 -185 -56 -349 -87
-588 -110 l-56 -6 1095 4383 c602 2410 1097 4384 1099 4386 6 8 248 -20 348
-40 714 -145 1204 -747 1359 -1669 43 -254 51 -368 51 -695 -1 -313 -7 -406
-47 -698 -21 -148 -21 -159 -5 -192 30 -63 64 -75 212 -75 147 0 183 12 210
72 18 40 905 3594 905 3626 0 36 -28 81 -63 102 -42 26 -139 27 -184 3 -17
-10 -123 -121 -235 -248 -111 -126 -327 -370 -479 -541 l-276 -311 -49 80
c-160 263 -402 517 -654 685 -240 159 -562 280 -869 325 -56 9 -105 18 -108
21 -3 3 17 98 46 210 28 113 51 223 51 244 0 49 -34 101 -80 124 -52 26 -243
26 -285 -1z m-1397 -5368 c-593 -2375 -1083 -4335 -1089 -4355 -12 -47 -16
-47 -178 -13 -679 144 -1233 601 -1510 1246 -321 749 -313 1719 25 3072 329
1318 794 2261 1496 3035 606 669 1438 1160 2212 1307 67 13 122 24 122 24 1 1
-484 -1942 -1078 -4316z"/>
</g>
</svg>
