<?xml version="1.0" standalone="no"?>
<!DOCTYPE svg PUBLIC "-//W3C//DTD SVG 20010904//EN"
 "http://www.w3.org/TR/2001/REC-SVG-20010904/DTD/svg10.dtd">
<svg version="1.0" xmlns="http://www.w3.org/2000/svg"
 width="513.000000pt" height="1328.000000pt" viewBox="0 0 513.000000 1328.000000"
 preserveAspectRatio="xMidYMid meet">
<metadata>
Created by potrace 1.16, written by Peter Selinger 2001-2019
</metadata>
<g transform="translate(0.000000,1328.000000) scale(0.100000,-0.100000)"
fill="#000000" stroke="none">
<path d="M3381 13269 c-80 -24 -144 -85 -175 -164 -8 -22 -732 -2904 -1607
-6405 -1176 -4704 -1592 -6381 -1592 -6425 -1 -33 5 -78 12 -99 17 -49 83
-121 134 -148 124 -63 293 -9 355 114 22 43 3222 12826 3222 12871 0 87 -71
197 -154 239 -47 24 -145 32 -195 17z"/>
<path d="M4771 13269 c-80 -24 -144 -85 -175 -164 -8 -22 -732 -2904 -1607
-6405 -1176 -4704 -1592 -6381 -1592 -6425 -1 -33 5 -78 12 -99 17 -49 83
-121 134 -148 124 -63 293 -9 355 114 22 43 3222 12826 3222 12871 0 87 -71
197 -154 239 -47 24 -145 32 -195 17z"/>
</g>
</svg>
