<?xml version="1.0" standalone="no"?>
<!DOCTYPE svg PUBLIC "-//W3C//DTD SVG 20010904//EN"
 "http://www.w3.org/TR/2001/REC-SVG-20010904/DTD/svg10.dtd">
<svg version="1.0" xmlns="http://www.w3.org/2000/svg"
 width="513.000000pt" height="198.000000pt" viewBox="0 0 513.000000 198.000000"
 preserveAspectRatio="xMidYMid meet">
<metadata>
Created by potrace 1.16, written by Peter Selinger 2001-2019
</metadata>
<g transform="translate(0.000000,198.000000) scale(0.100000,-0.100000)"
fill="#000000" stroke="none">
<path d="M2715 1973 c-1238 -82 -2387 -814 -2680 -1708 -39 -120 -42 -143 -19
-191 26 -55 80 -74 207 -74 117 0 175 16 200 53 7 12 26 60 41 107 124 387
482 758 986 1018 327 169 675 276 1075 328 184 25 603 25 775 1 480 -67 821
-217 1076 -471 150 -151 235 -304 270 -483 16 -83 18 -232 4 -308 -22 -121
-23 -132 -5 -168 27 -58 79 -77 211 -77 179 1 205 21 240 190 25 117 26 364 1
477 -44 205 -124 381 -247 545 -321 428 -901 702 -1604 758 -118 9 -411 11
-531 3z"/>
</g>
</svg>
