<?xml version="1.0" standalone="no"?>
<!DOCTYPE svg PUBLIC "-//W3C//DTD SVG 20010904//EN"
 "http://www.w3.org/TR/2001/REC-SVG-20010904/DTD/svg10.dtd">
<svg version="1.0" xmlns="http://www.w3.org/2000/svg"
 width="1016.000000pt" height="945.000000pt" viewBox="0 0 1016.000000 945.000000"
 preserveAspectRatio="xMidYMid meet">
<metadata>
Created by potrace 1.16, written by Peter Selinger 2001-2019
</metadata>
<g transform="translate(0.000000,945.000000) scale(0.100000,-0.100000)"
fill="#000000" stroke="none">
<path d="M959 9429 c-49 -29 -67 -64 -100 -193 -35 -135 -36 -187 -8 -233 39
-63 75 -73 271 -73 205 0 437 -15 565 -35 165 -26 238 -66 305 -163 25 -36
114 -314 442 -1371 l412 -1326 -1022 -5 -1021 -5 -36 -27 c-61 -47 -81 -85
-85 -158 -5 -86 24 -142 93 -185 l48 -30 1076 -3 1076 -2 283 -913 c155 -501
282 -919 282 -927 0 -8 -23 -111 -52 -227 l-53 -213 -1637 0 c-1130 0 -1645
-3 -1665 -11 -35 -13 -90 -64 -110 -104 -9 -16 -16 -55 -17 -85 -1 -95 59
-174 153 -200 23 -6 584 -10 1604 -10 862 0 1567 -2 1567 -5 0 -14 -475 -1902
-497 -1975 -59 -197 -137 -307 -247 -349 -129 -48 -336 -69 -761 -78 -356 -6
-373 -10 -413 -75 -11 -18 -34 -94 -53 -169 l-33 -136 25 -49 c13 -26 37 -57
52 -68 33 -24 43 -24 577 -7 819 28 1875 24 2727 -10 267 -11 283 -10 320 7
56 28 78 70 113 214 35 145 33 182 -8 232 -44 53 -71 58 -289 58 -353 0 -679
27 -794 65 -60 20 -74 47 -72 141 1 93 -19 7 276 1191 l252 1013 1645 2 1645
3 47 28 c119 70 138 231 37 321 -22 20 -51 41 -65 46 -16 6 -629 10 -1615 10
-874 0 -1589 3 -1589 8 0 4 25 103 54 220 l54 212 155 193 c86 105 421 518
744 917 l589 725 1129 5 c1080 5 1132 6 1168 24 77 38 126 132 112 214 -10 62
-56 126 -107 151 l-44 21 -957 0 c-526 0 -957 2 -957 5 0 13 1571 1937 1643
2012 46 48 131 137 188 197 419 437 878 650 1480 684 196 11 207 21 259 233
37 147 35 181 -11 234 -44 50 -74 56 -224 45 -71 -5 -319 -14 -551 -21 -438
-13 -1127 -4 -1660 22 -220 11 -234 11 -270 -7 -57 -28 -79 -69 -114 -214 -35
-145 -33 -182 8 -232 34 -40 79 -58 145 -58 80 0 225 -28 282 -54 114 -52 168
-128 167 -238 0 -108 -41 -211 -139 -351 -29 -43 -57 -86 -61 -96 -4 -11 -398
-501 -876 -1090 l-869 -1071 -878 0 -878 0 -31 98 c-17 53 -200 643 -407 1310
-363 1171 -375 1214 -364 1253 45 149 263 223 706 237 281 9 279 8 335 233 36
145 35 180 -7 230 -49 58 -66 61 -331 49 -762 -31 -1930 -36 -2567 -10 -575
23 -526 23 -566 -1z m4639 -3827 c-28 -40 -909 -1121 -916 -1126 -6 -4 -313
958 -359 1127 -5 16 30 17 641 17 623 0 647 -1 634 -18z"/>
</g>
</svg>
