<?xml version="1.0" standalone="no"?>
<!DOCTYPE svg PUBLIC "-//W3C//DTD SVG 20010904//EN"
 "http://www.w3.org/TR/2001/REC-SVG-20010904/DTD/svg10.dtd">
<svg version="1.0" xmlns="http://www.w3.org/2000/svg"
 width="1086.000000pt" height="694.000000pt" viewBox="0 0 1086.000000 694.000000"
 preserveAspectRatio="xMidYMid meet">
<metadata>
Created by potrace 1.16, written by Peter Selinger 2001-2019
</metadata>
<g transform="translate(0.000000,694.000000) scale(0.100000,-0.100000)"
fill="#000000" stroke="none">
<path d="M3515 6926 c-47 -21 -69 -53 -120 -171 -192 -445 -502 -948 -834
-1350 -643 -779 -1506 -1413 -2415 -1775 -123 -49 -175 -135 -132 -218 22 -43
52 -64 196 -143 898 -488 1438 -1326 1551 -2404 13 -125 18 -447 9 -647 -5
-106 -3 -119 16 -144 49 -66 59 -69 247 -69 164 0 174 1 205 23 18 13 39 37
48 54 20 39 33 213 34 443 1 1010 -337 1900 -980 2577 l-92 98 4689 2 4688 3
46 21 c108 50 179 157 179 271 0 102 -39 170 -125 216 l-40 22 -4618 5 -4619
5 109 75 c550 378 1080 874 1499 1400 353 444 671 975 878 1467 46 110 28 191
-54 234 -29 16 -57 19 -185 19 -103 -1 -159 -5 -180 -14z"/>
</g>
</svg>
