<?xml version="1.0" standalone="no"?>
<!DOCTYPE svg PUBLIC "-//W3C//DTD SVG 20010904//EN"
 "http://www.w3.org/TR/2001/REC-SVG-20010904/DTD/svg10.dtd">
<svg version="1.0" xmlns="http://www.w3.org/2000/svg"
 width="1320.000000pt" height="1446.000000pt" viewBox="0 0 1320.000000 1446.000000"
 preserveAspectRatio="xMidYMid meet">
<metadata>
Created by potrace 1.16, written by Peter Selinger 2001-2019
</metadata>
<g transform="translate(0.000000,1446.000000) scale(0.100000,-0.100000)"
fill="#000000" stroke="none">
<path d="M8050 14453 c-201 -13 -352 -28 -509 -49 -1248 -167 -2559 -749
-3713 -1646 -541 -421 -1093 -957 -1552 -1508 -1284 -1543 -2086 -3438 -2251
-5320 -22 -249 -30 -752 -16 -1000 68 -1199 429 -2258 1057 -3095 141 -189
242 -304 424 -486 244 -244 433 -399 710 -582 981 -646 2181 -889 3488 -706
1322 184 2744 852 3930 1847 446 373 917 847 1296 1302 1284 1543 2086 3438
2251 5320 22 249 30 752 16 1000 -68 1199 -429 2258 -1057 3095 -141 189 -242
304 -424 486 -244 244 -433 399 -710 582 -677 445 -1455 699 -2325 757 -136 9
-503 11 -615 3z m585 -563 c659 -44 1265 -217 1790 -509 986 -549 1675 -1466
2004 -2666 250 -910 264 -1977 40 -3075 -410 -2008 -1575 -3932 -3211 -5302
-886 -742 -1908 -1293 -2910 -1567 -1314 -361 -2577 -252 -3583 308 -986 549
-1675 1466 -2004 2666 -250 910 -264 1977 -40 3075 410 2008 1575 3932 3211
5302 1121 939 2434 1555 3678 1727 124 17 274 31 470 44 110 8 418 6 555 -3z"/>
<path d="M7315 10684 c-577 -46 -1121 -196 -1660 -459 -1302 -635 -2306 -1831
-2626 -3130 -80 -326 -103 -517 -103 -855 0 -285 12 -408 59 -628 116 -536
371 -1004 741 -1362 433 -419 986 -673 1669 -766 203 -28 642 -26 834 4 1116
174 2149 941 2670 1981 112 223 241 587 241 679 0 20 -9 52 -20 70 -32 53 -69
62 -242 62 -213 0 -226 -8 -273 -185 -206 -769 -832 -1528 -1550 -1880 -225
-110 -391 -165 -621 -206 -169 -31 -484 -33 -669 -5 -627 94 -1091 402 -1330
881 -134 270 -185 515 -185 900 0 367 52 727 180 1245 294 1187 712 1923 1400
2466 198 155 468 316 704 419 580 252 1242 324 1648 179 496 -177 810 -651
899 -1359 19 -145 16 -540 -4 -697 -22 -163 -21 -196 3 -236 32 -53 69 -62
240 -62 163 0 190 7 228 54 13 18 125 447 363 1398 l343 1373 -20 40 c-30 62
-73 85 -158 85 -54 0 -79 -5 -105 -21 -18 -11 -216 -176 -438 -366 l-405 -345
-30 38 c-63 80 -267 272 -358 336 -231 164 -522 281 -830 333 -92 16 -478 28
-595 19z"/>
</g>
</svg>
