<?xml version="1.0" standalone="no"?>
<!DOCTYPE svg PUBLIC "-//W3C//DTD SVG 20010904//EN"
 "http://www.w3.org/TR/2001/REC-SVG-20010904/DTD/svg10.dtd">
<svg version="1.0" xmlns="http://www.w3.org/2000/svg"
 width="495.000000pt" height="580.000000pt" viewBox="0 0 495.000000 580.000000"
 preserveAspectRatio="xMidYMid meet">
<metadata>
Created by potrace 1.16, written by Peter Selinger 2001-2019
</metadata>
<g transform="translate(0.000000,580.000000) scale(0.100000,-0.100000)"
fill="#000000" stroke="none">
<path d="M2765 5794 c-16 -2 -73 -9 -125 -15 -387 -44 -825 -202 -1145 -413
-142 -94 -218 -156 -334 -269 -235 -231 -375 -468 -456 -767 -117 -434 85
-838 475 -950 161 -46 398 -35 622 31 136 39 378 160 493 245 191 142 364 350
450 539 117 257 117 441 -1 621 -42 65 -157 184 -207 214 -39 24 -104 26 -137
3 -120 -81 -155 -139 -125 -208 8 -20 49 -68 90 -107 42 -39 87 -91 102 -115
22 -38 25 -52 21 -106 -19 -230 -269 -532 -563 -679 -204 -103 -464 -153 -596
-115 -291 85 -273 597 35 1008 306 408 833 684 1411 740 420 41 780 -76 980
-318 198 -240 223 -583 81 -1145 -71 -284 -191 -485 -430 -724 -296 -295 -717
-553 -1326 -813 -432 -184 -712 -355 -1036 -634 -469 -404 -850 -985 -1009
-1539 -49 -169 -45 -208 24 -255 31 -21 45 -23 158 -23 182 0 201 12 242 150
91 298 331 551 564 591 50 8 91 8 160 0 240 -28 367 -87 772 -357 465 -309
699 -395 1039 -381 706 28 1414 518 1751 1211 73 148 134 324 141 400 6 61 -8
91 -55 123 -31 21 -45 23 -158 23 -95 0 -133 -4 -159 -16 -41 -20 -50 -34 -84
-135 -92 -269 -379 -481 -790 -584 -195 -49 -305 -60 -595 -59 -285 0 -355 5
-935 59 -201 19 -437 39 -525 46 -186 14 -587 18 -629 6 -26 -7 -23 -2 35 70
160 196 430 440 654 592 223 151 357 220 750 384 1202 503 1794 838 2170 1228
199 207 298 390 352 649 25 119 25 392 0 509 -45 212 -131 405 -247 561 -89
118 -131 162 -245 258 -283 238 -659 392 -1100 452 -82 11 -506 22 -560 14z"/>
</g>
</svg>
