<?xml version="1.0" standalone="no"?>
<!DOCTYPE svg PUBLIC "-//W3C//DTD SVG 20010904//EN"
 "http://www.w3.org/TR/2001/REC-SVG-20010904/DTD/svg10.dtd">
<svg version="1.0" xmlns="http://www.w3.org/2000/svg"
 width="917.000000pt" height="907.000000pt" viewBox="0 0 917.000000 907.000000"
 preserveAspectRatio="xMidYMid meet">
<metadata>
Created by potrace 1.16, written by Peter Selinger 2001-2019
</metadata>
<g transform="translate(0.000000,907.000000) scale(0.100000,-0.100000)"
fill="#000000" stroke="none">
<path d="M6500 9063 c-1711 -106 -3451 -1157 -4465 -2698 -136 -206 -224 -362
-352 -620 l-113 -230 -580 -5 -580 -5 -30 -31 c-26 -25 -37 -52 -60 -145 -16
-63 -30 -127 -30 -142 0 -40 26 -85 63 -107 31 -19 54 -20 540 -20 279 0 507
-1 507 -3 0 -2 -11 -41 -25 -88 -38 -124 -83 -306 -114 -454 l-27 -130 -550
-5 c-503 -5 -551 -6 -575 -23 -34 -23 -43 -44 -79 -187 -34 -134 -31 -159 25
-210 l27 -25 542 -3 543 -2 -5 -293 c-3 -182 0 -348 7 -442 90 -1136 609
-2072 1462 -2638 428 -283 913 -457 1489 -534 109 -14 277 -17 1339 -20 887
-3 1222 -1 1242 7 15 7 36 21 47 33 29 33 1332 3249 1332 3289 0 45 -19 78
-59 105 -31 21 -45 23 -158 23 -179 0 -193 -9 -247 -145 -212 -536 -542 -1300
-725 -1680 -193 -398 -318 -595 -480 -755 -235 -233 -469 -373 -695 -415 -77
-14 -163 -16 -709 -12 -679 5 -704 7 -937 71 -1146 313 -1797 1631 -1628 3295
l11 113 671 -5 c369 -3 732 -10 806 -16 739 -60 1094 -188 1271 -458 221 -339
218 -827 -11 -1751 -27 -112 -50 -214 -50 -228 0 -38 27 -83 63 -104 27 -17
51 -20 162 -20 147 0 183 12 210 72 22 48 705 2792 705 2830 0 45 -19 78 -59
105 l-34 23 -1829 0 -1830 0 7 43 c12 68 110 454 140 550 l27 87 1855 0 c2027
0 1899 -4 1937 55 18 27 716 2810 716 2852 0 16 -9 42 -20 60 -32 54 -63 63
-207 63 -138 0 -177 -12 -204 -61 -6 -12 -40 -133 -74 -268 -180 -702 -345
-1099 -594 -1436 -105 -142 -302 -335 -426 -417 -284 -189 -642 -300 -1135
-352 -300 -32 -431 -38 -1048 -43 l-633 -6 10 24 c31 81 123 275 191 405 601
1156 1556 2066 2589 2469 249 97 499 161 766 197 75 10 273 13 790 13 777 0
739 3 905 -78 69 -33 103 -59 176 -132 102 -101 154 -184 176 -280 18 -80 18
-629 0 -820 -23 -247 -52 -502 -93 -833 -40 -321 -40 -323 -22 -359 32 -60 68
-73 214 -73 115 0 129 2 160 23 19 12 40 35 47 49 7 14 95 660 197 1434 202
1543 192 1437 130 1494 l-27 25 -1261 1 c-694 0 -1287 -1 -1317 -3z"/>
</g>
</svg>
