<?xml version="1.0" standalone="no"?>
<!DOCTYPE svg PUBLIC "-//W3C//DTD SVG 20010904//EN"
 "http://www.w3.org/TR/2001/REC-SVG-20010904/DTD/svg10.dtd">
<svg version="1.0" xmlns="http://www.w3.org/2000/svg"
 width="180.000000pt" height="489.000000pt" viewBox="0 0 180.000000 489.000000"
 preserveAspectRatio="xMidYMid meet">
<metadata>
Created by potrace 1.16, written by Peter Selinger 2001-2019
</metadata>
<g transform="translate(0.000000,489.000000) scale(0.100000,-0.100000)"
fill="#000000" stroke="none">
<path d="M1185 4875 c-257 -56 -466 -260 -519 -507 -9 -40 -163 -1007 -342
-2148 -323 -2061 -325 -2075 -309 -2117 19 -50 52 -79 108 -94 64 -17 123 -3
168 39 38 36 53 80 745 2097 389 1133 718 2096 731 2140 20 67 23 96 20 180
-4 129 -29 194 -102 274 -117 126 -309 178 -500 136z"/>
</g>
</svg>
