<?xml version="1.0" standalone="no"?>
<!DOCTYPE svg PUBLIC "-//W3C//DTD SVG 20010904//EN"
 "http://www.w3.org/TR/2001/REC-SVG-20010904/DTD/svg10.dtd">
<svg version="1.0" xmlns="http://www.w3.org/2000/svg"
 width="285.000000pt" height="167.000000pt" viewBox="0 0 285.000000 167.000000"
 preserveAspectRatio="xMidYMid meet">
<metadata>
Created by potrace 1.16, written by Peter Selinger 2001-2019
</metadata>
<g transform="translate(0.000000,167.000000) scale(0.100000,-0.100000)"
fill="#000000" stroke="none">
<path d="M2390 1660 c-25 -5 -65 -17 -90 -26 -89 -34 -2224 -1215 -2257 -1249
-17 -18 -35 -49 -39 -69 -8 -43 28 -198 57 -245 24 -39 99 -76 139 -67 55 10
2266 788 2338 822 174 81 302 271 302 449 0 157 -102 314 -234 364 -65 24
-156 33 -216 21z"/>
</g>
</svg>
