<?xml version="1.0" standalone="no"?>
<!DOCTYPE svg PUBLIC "-//W3C//DTD SVG 20010904//EN"
 "http://www.w3.org/TR/2001/REC-SVG-20010904/DTD/svg10.dtd">
<svg version="1.0" xmlns="http://www.w3.org/2000/svg"
 width="776.000000pt" height="558.000000pt" viewBox="0 0 776.000000 558.000000"
 preserveAspectRatio="xMidYMid meet">
<metadata>
Created by potrace 1.16, written by Peter Selinger 2001-2019
</metadata>
<g transform="translate(0.000000,558.000000) scale(0.100000,-0.100000)"
fill="#000000" stroke="none">
<path d="M4711 5557 c-104 -42 -35 202 -770 -2741 -437 -1749 -660 -2658 -656
-2676 10 -47 61 -97 121 -119 102 -39 212 -20 278 48 l38 39 506 2026 c279
1114 509 2026 512 2026 3 0 72 -541 154 -1202 106 -865 153 -1215 166 -1244
55 -126 280 -154 381 -47 20 21 370 577 779 1236 409 659 745 1196 747 1194 2
-3 -217 -888 -487 -1967 -324 -1294 -489 -1972 -485 -1990 10 -47 61 -97 121
-119 102 -39 212 -20 278 48 l38 39 660 2638 c522 2090 659 2648 655 2682 -9
85 -108 152 -223 152 -58 0 -148 -35 -176 -68 -13 -15 -453 -720 -978 -1566
-550 -886 -956 -1531 -957 -1520 -2 10 -84 678 -183 1484 -99 806 -185 1488
-191 1516 -25 125 -186 190 -328 131z"/>
<path d="M121 5257 c-156 -64 -156 -230 0 -294 l54 -22 793 -1 c435 0 792 -4
792 -8 0 -5 -268 -1079 -596 -2387 l-595 -2379 17 -44 c30 -78 130 -129 238
-120 63 5 140 42 168 78 12 17 225 846 623 2435 333 1326 605 2413 605 2418 0
4 377 7 838 7 l837 1 54 22 c34 14 65 36 85 60 66 83 28 188 -85 234 l-54 22
-1860 0 -1860 0 -54 -22z"/>
</g>
</svg>
