<?xml version="1.0" standalone="no"?>
<!DOCTYPE svg PUBLIC "-//W3C//DTD SVG 20010904//EN"
 "http://www.w3.org/TR/2001/REC-SVG-20010904/DTD/svg10.dtd">
<svg version="1.0" xmlns="http://www.w3.org/2000/svg"
 width="640.000000pt" height="964.000000pt" viewBox="0 0 640.000000 964.000000"
 preserveAspectRatio="xMidYMid meet">
<metadata>
Created by potrace 1.16, written by Peter Selinger 2001-2019
</metadata>
<g transform="translate(0.000000,964.000000) scale(0.100000,-0.100000)"
fill="#000000" stroke="none">
<path d="M5621 9629 c-19 -6 -53 -23 -76 -39 -90 -62 -28 167 -877 -3230 -429
-1713 -783 -3131 -788 -3150 l-9 -35 -100 97 c-431 417 -1123 572 -1861 417
-392 -83 -811 -280 -1125 -529 -44 -35 -132 -115 -195 -179 -353 -354 -537
-748 -581 -1241 -32 -369 63 -751 262 -1051 84 -126 282 -324 408 -407 302
-199 655 -293 1046 -279 497 18 983 198 1423 526 230 172 520 482 664 711 165
264 277 537 331 807 13 65 28 127 34 138 5 11 275 1080 599 2376 l588 2356 53
-311 c28 -171 88 -498 133 -726 181 -921 233 -1248 282 -1770 20 -211 17 -876
-5 -1070 -25 -218 -53 -390 -94 -570 -48 -212 -39 -284 47 -370 56 -56 103
-75 190 -75 87 0 133 20 191 82 52 54 63 80 98 233 92 407 131 776 131 1250 0
661 -57 1095 -310 2390 -213 1091 -268 1567 -257 2205 7 412 35 660 113 1010
38 171 40 224 8 287 -23 47 -82 106 -129 130 -46 24 -144 32 -194 17z"/>
</g>
</svg>
