<?xml version="1.0" standalone="no"?>
<!DOCTYPE svg PUBLIC "-//W3C//DTD SVG 20010904//EN"
 "http://www.w3.org/TR/2001/REC-SVG-20010904/DTD/svg10.dtd">
<svg version="1.0" xmlns="http://www.w3.org/2000/svg"
 width="1320.000000pt" height="1446.000000pt" viewBox="0 0 1320.000000 1446.000000"
 preserveAspectRatio="xMidYMid meet">
<metadata>
Created by potrace 1.16, written by Peter Selinger 2001-2019
</metadata>
<g transform="translate(0.000000,1446.000000) scale(0.100000,-0.100000)"
fill="#000000" stroke="none">
<path d="M8050 14453 c-201 -13 -352 -28 -509 -49 -1248 -167 -2559 -749
-3713 -1646 -541 -421 -1093 -957 -1552 -1508 -1284 -1543 -2086 -3438 -2251
-5320 -22 -249 -30 -752 -16 -1000 68 -1199 429 -2258 1057 -3095 141 -189
242 -304 424 -486 244 -244 433 -399 710 -582 981 -646 2181 -889 3488 -706
1322 184 2744 852 3930 1847 446 373 917 847 1296 1302 1284 1543 2086 3438
2251 5320 22 249 30 752 16 1000 -68 1199 -429 2258 -1057 3095 -141 189 -242
304 -424 486 -244 244 -433 399 -710 582 -677 445 -1455 699 -2325 757 -136 9
-503 11 -615 3z m585 -563 c659 -44 1265 -217 1790 -509 986 -549 1675 -1466
2004 -2666 250 -910 264 -1977 40 -3075 -410 -2008 -1575 -3932 -3211 -5302
-886 -742 -1908 -1293 -2910 -1567 -1314 -361 -2577 -252 -3583 308 -986 549
-1675 1466 -2004 2666 -250 910 -264 1977 -40 3075 410 2008 1575 3932 3211
5302 1121 939 2434 1555 3678 1727 124 17 274 31 470 44 110 8 418 6 555 -3z"/>
<path d="M3359 10359 c-20 -12 -46 -38 -57 -58 -31 -57 -106 -374 -98 -416 9
-45 57 -101 99 -114 18 -5 181 -12 362 -15 446 -8 674 -32 719 -76 49 -48 72
53 -579 -2552 -418 -1674 -617 -2452 -636 -2494 -34 -73 -95 -139 -152 -164
-105 -47 -332 -69 -772 -76 -181 -3 -344 -10 -362 -15 -66 -21 -86 -59 -138
-271 l-49 -195 25 -48 c13 -27 37 -58 52 -69 33 -24 42 -24 592 -6 842 27
1934 23 2800 -11 288 -11 291 -11 333 10 23 12 49 32 58 46 20 30 103 356 104
404 0 47 -35 105 -80 130 -35 20 -52 21 -251 21 -384 0 -736 27 -823 64 -28
12 -37 23 -46 56 -6 23 -8 61 -5 84 4 22 113 465 242 983 l235 942 1222 4
c1311 4 1266 2 1606 57 1051 171 2007 702 2442 1355 108 163 194 361 234 540
24 109 29 342 10 451 -120 691 -811 1226 -1800 1395 -326 55 -179 52 -2816 56
l-2435 3 -36 -21z m4631 -618 c334 -40 555 -109 731 -228 198 -134 273 -286
272 -553 0 -152 -23 -304 -79 -531 -125 -510 -304 -821 -576 -1002 -231 -154
-562 -268 -903 -312 -234 -29 -451 -35 -1401 -35 l-962 0 308 1230 c169 677
318 1255 330 1285 41 101 99 134 266 155 105 13 1900 5 2014 -9z"/>
</g>
</svg>
