<?xml version="1.0" standalone="no"?>
<!DOCTYPE svg PUBLIC "-//W3C//DTD SVG 20010904//EN"
 "http://www.w3.org/TR/2001/REC-SVG-20010904/DTD/svg10.dtd">
<svg version="1.0" xmlns="http://www.w3.org/2000/svg"
 width="1296.000000pt" height="937.000000pt" viewBox="0 0 1296.000000 937.000000"
 preserveAspectRatio="xMidYMid meet">
<metadata>
Created by potrace 1.16, written by Peter Selinger 2001-2019
</metadata>
<g transform="translate(0.000000,937.000000) scale(0.100000,-0.100000)"
fill="#000000" stroke="none">
<path d="M891 9349 c-53 -37 -70 -68 -97 -174 -29 -112 -26 -149 13 -195 45
-54 68 -60 226 -60 282 0 524 -32 587 -79 38 -27 68 -88 80 -161 6 -36 33
-587 60 -1225 27 -638 52 -1206 56 -1262 l6 -102 -534 -3 -535 -3 -36 -28
c-43 -32 -77 -93 -77 -135 0 -45 25 -96 65 -131 20 -17 37 -32 38 -33 1 -1
247 -5 547 -8 l545 -5 47 -1050 c26 -577 47 -1080 47 -1117 l1 -68 -898 0
-898 0 -44 -22 c-63 -32 -92 -85 -87 -159 4 -68 33 -114 91 -140 39 -18 85
-19 949 -19 857 0 907 -1 907 -17 0 -65 131 -3005 135 -3030 7 -41 50 -92 92
-109 47 -20 246 -19 306 2 107 36 66 -32 967 1624 l829 1525 1085 3 c597 1
1086 1 1087 0 0 -2 32 -690 69 -1531 76 -1713 63 -1570 150 -1615 42 -21 55
-23 175 -20 146 4 179 15 246 83 38 37 77 109 1150 2082 l544 1002 950 1 951
0 44 23 c114 57 120 227 10 291 -34 21 -50 21 -900 26 l-866 5 607 1115 607
1115 583 5 c416 4 590 8 604 17 48 27 95 102 95 150 -1 45 -35 108 -76 139
l-37 29 -489 3 c-268 1 -488 5 -488 7 0 10 1034 1903 1049 1920 10 11 46 67
80 124 297 498 675 746 1187 779 128 9 168 24 196 75 16 31 58 196 58 233 0
39 -34 91 -80 122 -31 21 -43 23 -100 18 -451 -41 -1338 -42 -2162 -5 -233 11
-248 10 -285 -7 -51 -26 -76 -67 -102 -168 -25 -100 -26 -135 -7 -180 26 -62
64 -79 200 -88 225 -14 378 -59 503 -147 78 -55 112 -96 151 -179 23 -50 26
-69 26 -157 -1 -103 0 -101 -70 -275 -10 -25 -265 -501 -568 -1057 l-550
-1013 -1233 0 -1233 0 0 48 c0 26 -23 553 -50 1172 -27 619 -50 1156 -50 1194
0 58 5 77 32 128 56 106 154 171 336 223 140 41 253 55 482 62 226 6 245 10
288 56 28 30 72 182 72 248 0 57 -31 107 -82 132 -33 16 -53 17 -264 8 -126
-6 -499 -16 -829 -22 -616 -12 -1212 -4 -1713 22 -208 11 -222 11 -258 -7 -53
-26 -78 -68 -104 -174 -34 -137 -18 -199 60 -241 29 -16 58 -19 181 -19 176 0
381 -16 467 -35 125 -29 164 -65 192 -177 7 -25 22 -270 34 -544 l22 -499
-426 -785 -426 -785 -1231 -3 -1231 -2 -6 82 c-4 46 -29 600 -56 1232 l-50
1149 28 61 c51 108 139 175 302 229 156 52 352 77 598 77 201 0 223 15 267
190 30 117 28 153 -12 200 -50 60 -57 61 -320 50 -451 -19 -1329 -32 -1688
-25 -328 5 -570 14 -945 31 -131 6 -136 5 -169 -17z m5420 -2926 c7 -178 10
-325 7 -328 -3 -3 -104 -4 -225 -3 l-220 3 206 379 206 379 6 -54 c4 -30 13
-199 20 -376z m-1101 -678 c0 -4 -273 -508 -606 -1120 l-607 -1115 -473 0
-474 0 0 26 c0 40 -88 2060 -94 2142 l-4 72 1129 0 c621 0 1129 -2 1129 -5z
m1134 -107 c4 -62 24 -525 46 -1028 21 -503 42 -957 45 -1007 l6 -93 -986 0
c-543 0 -985 4 -983 8 2 5 275 509 608 1120 l605 1112 326 0 327 0 6 -112z
m3329 24 c-26 -49 -300 -553 -608 -1120 l-560 -1031 -472 -1 -472 0 -5 53 c-4
40 -97 2147 -96 2180 0 4 509 7 1130 7 l1131 0 -48 -88z m-5866 -2499 c-435
-807 -682 -1253 -684 -1233 -4 36 -53 1154 -53 1200 l0 40 371 0 c203 0 368
-3 366 -7z m4498 -10 c-3 -10 -156 -292 -338 -628 l-332 -610 -7 50 c-4 28
-17 280 -28 560 -11 281 -23 540 -26 578 l-5 67 371 0 c350 0 372 -1 365 -17z"/>
</g>
</svg>
