<?xml version="1.0" standalone="no"?>
<!DOCTYPE svg PUBLIC "-//W3C//DTD SVG 20010904//EN"
 "http://www.w3.org/TR/2001/REC-SVG-20010904/DTD/svg10.dtd">
<svg version="1.0" xmlns="http://www.w3.org/2000/svg"
 width="491.000000pt" height="599.000000pt" viewBox="0 0 491.000000 599.000000"
 preserveAspectRatio="xMidYMid meet">
<metadata>
Created by potrace 1.16, written by Peter Selinger 2001-2019
</metadata>
<g transform="translate(0.000000,599.000000) scale(0.100000,-0.100000)"
fill="#000000" stroke="none">
<path d="M2485 5978 c-37 -21 -124 -98 -129 -116 -4 -12 -36 -27 -103 -47
-624 -186 -1090 -531 -1311 -971 -91 -180 -137 -359 -130 -498 21 -380 384
-648 847 -623 324 17 640 222 866 562 243 366 340 796 268 1198 -8 48 -13 90
-10 93 10 10 139 23 287 30 252 12 433 -20 610 -107 88 -44 117 -65 185 -133
122 -123 163 -224 172 -426 11 -242 -72 -611 -197 -874 -197 -414 -567 -670
-1069 -740 -86 -12 -206 -16 -527 -16 -440 0 -456 -2 -497 -48 -21 -23 -76
-227 -77 -280 0 -42 24 -84 60 -106 25 -14 74 -16 397 -16 491 0 609 -15 768
-98 83 -43 197 -153 238 -228 91 -171 82 -409 -32 -858 -105 -411 -229 -655
-440 -866 -257 -257 -619 -418 -1030 -460 -425 -43 -724 67 -931 341 -161 215
-250 518 -250 859 l0 105 98 1 c355 5 653 309 654 669 1 191 -97 334 -280 406
-47 19 -77 23 -177 23 -107 1 -130 -2 -209 -28 -163 -53 -313 -179 -390 -326
-100 -189 -166 -663 -137 -977 74 -805 529 -1327 1231 -1414 115 -14 453 -6
615 15 431 56 788 163 1149 343 427 214 741 474 952 788 244 365 305 745 180
1112 -97 286 -326 538 -637 702 l-89 48 87 33 c328 123 656 333 894 570 248
247 403 508 473 797 62 257 35 497 -83 738 -201 408 -631 677 -1236 772 -190
30 -650 23 -850 -13 -25 -4 -33 -1 -44 19 -26 49 -115 74 -166 45z m-40 -500
c43 -196 34 -443 -24 -638 -96 -329 -321 -620 -564 -730 -169 -77 -376 -60
-489 39 -97 86 -127 201 -90 348 106 418 478 766 1037 969 108 40 123 41 130
12z"/>
</g>
</svg>
