<?xml version="1.0" standalone="no"?>
<!DOCTYPE svg PUBLIC "-//W3C//DTD SVG 20010904//EN"
 "http://www.w3.org/TR/2001/REC-SVG-20010904/DTD/svg10.dtd">
<svg version="1.0" xmlns="http://www.w3.org/2000/svg"
 width="432.000000pt" height="1328.000000pt" viewBox="0 0 432.000000 1328.000000"
 preserveAspectRatio="xMidYMid meet">
<metadata>
Created by potrace 1.16, written by Peter Selinger 2001-2019
</metadata>
<g transform="translate(0.000000,1328.000000) scale(0.100000,-0.100000)"
fill="#000000" stroke="none">
<path d="M3970 13271 c-45 -14 -84 -38 -118 -73 -18 -19 -888 -1478 -1933
-3244 -1473 -2486 -1903 -3220 -1911 -3259 -9 -42 36 -556 286 -3261 214
-2323 301 -3224 313 -3259 37 -110 158 -184 278 -172 106 11 201 90 230 191
16 55 12 97 -276 3220 l-291 3165 1872 3161 c1029 1739 1877 3178 1882 3198
16 59 4 155 -26 206 -61 104 -196 160 -306 127z"/>
</g>
</svg>
