<?xml version="1.0" standalone="no"?>
<!DOCTYPE svg PUBLIC "-//W3C//DTD SVG 20010904//EN"
 "http://www.w3.org/TR/2001/REC-SVG-20010904/DTD/svg10.dtd">
<svg version="1.0" xmlns="http://www.w3.org/2000/svg"
 width="1546.000000pt" height="1073.000000pt" viewBox="0 0 1546.000000 1073.000000"
 preserveAspectRatio="xMidYMid meet">
<metadata>
Created by potrace 1.16, written by Peter Selinger 2001-2019
</metadata>
<g transform="translate(0.000000,1073.000000) scale(0.100000,-0.100000)"
fill="#000000" stroke="none">
<path d="M12219 10720 c-2371 -106 -4786 -988 -6909 -2524 -1033 -748 -2006
-1669 -2789 -2641 -1165 -1446 -2014 -3081 -2455 -4727 -71 -267 -72 -270 -51
-323 31 -83 77 -104 430 -199 1401 -374 2931 -402 4530 -81 1477 296 2969 898
4325 1743 1675 1045 3133 2424 4232 4007 773 1113 1369 2324 1742 3536 83 273
176 618 176 658 0 51 -29 107 -68 134 -23 16 -118 49 -247 85 -580 165 -1197
271 -1845 317 -264 18 -820 26 -1071 15z m1071 -355 c375 -27 682 -66 1029
-131 208 -39 533 -112 543 -122 3 -4 -1369 -881 -3049 -1950 -1681 -1068
-3057 -1941 -3059 -1940 -1 2 208 845 465 1873 l467 1869 32 13 c47 19 571
147 772 188 601 123 1184 193 1830 219 175 7 763 -5 970 -19z m-4468 -2467
l-487 -1947 -2054 -1306 c-1129 -718 -2055 -1304 -2058 -1302 -2 3 247 1006
553 2230 l556 2225 206 148 c989 711 2032 1273 3147 1696 160 61 620 216 622
209 1 -3 -217 -882 -485 -1953z m6136 1730 c-363 -1195 -978 -2436 -1738
-3508 l-71 -100 -2037 1 c-1771 0 -2034 2 -2017 14 51 36 5901 3754 5906 3755
4 0 -15 -73 -43 -162z m-10608 -4366 c-301 -1206 -549 -2194 -551 -2196 -2 -2
-703 -447 -1557 -990 -855 -543 -1609 -1023 -1677 -1066 -68 -44 -122 -74
-120 -67 2 7 34 109 71 227 251 817 647 1708 1111 2500 723 1234 1687 2401
2803 3391 155 138 463 399 467 395 1 -1 -245 -988 -547 -2194z m8540 412 c0
-7 -245 -315 -374 -469 -462 -553 -1021 -1124 -1561 -1595 -196 -171 -242
-210 -413 -348 l-163 -132 -2927 0 -2927 0 35 23 c19 12 921 586 2005 1274
l1970 1253 2177 0 c1198 0 2178 -3 2178 -6z m-2971 -2888 c-2 -2 -60 -43 -129
-91 -1648 -1157 -3463 -1917 -5295 -2215 -1153 -188 -2308 -182 -3365 16 -220
41 -541 117 -538 126 2 5 766 495 1698 1088 l1695 1079 2969 0 c1633 1 2967
-1 2965 -3z"/>
</g>
</svg>
