<?xml version="1.0" standalone="no"?>
<!DOCTYPE svg PUBLIC "-//W3C//DTD SVG 20010904//EN"
 "http://www.w3.org/TR/2001/REC-SVG-20010904/DTD/svg10.dtd">
<svg version="1.0" xmlns="http://www.w3.org/2000/svg"
 width="846.000000pt" height="998.000000pt" viewBox="0 0 846.000000 998.000000"
 preserveAspectRatio="xMidYMid meet">
<metadata>
Created by potrace 1.16, written by Peter Selinger 2001-2019
</metadata>
<g transform="translate(0.000000,998.000000) scale(0.100000,-0.100000)"
fill="#000000" stroke="none">
<path d="M6640 9970 c-1054 -129 -2073 -1007 -2526 -2176 -72 -187 -100 -288
-344 -1264 l-236 -945 -521 -5 -521 -5 -43 -30 c-106 -75 -118 -218 -26 -313
57 -59 81 -62 569 -62 414 0 439 -1 434 -17 -3 -10 -93 -371 -201 -803 -108
-432 -200 -802 -206 -822 l-10 -38 -505 0 c-433 0 -510 -2 -542 -15 -76 -32
-122 -102 -122 -184 0 -63 13 -97 53 -139 66 -70 43 -67 553 -70 l462 -3 -103
-407 c-92 -366 -181 -677 -205 -723 -9 -15 -19 -14 -117 17 -542 173 -1099
129 -1602 -127 -86 -43 -199 -109 -251 -146 -118 -84 -338 -302 -408 -405
-133 -196 -222 -438 -222 -608 0 -162 61 -303 185 -427 71 -70 98 -89 196
-137 74 -36 153 -65 224 -83 102 -26 124 -28 310 -27 227 0 369 20 577 80 463
133 870 371 1265 740 61 57 115 104 119 104 4 0 156 -98 338 -219 182 -120
376 -245 431 -278 735 -441 1378 -542 2025 -318 229 79 520 245 740 421 116
94 318 297 420 424 233 291 429 663 520 986 35 125 36 147 12 193 -33 61 -66
71 -243 71 -146 0 -158 -1 -190 -23 -41 -28 -59 -62 -99 -196 -133 -441 -437
-862 -794 -1103 -237 -158 -453 -228 -710 -228 -306 0 -599 73 -921 229 -207
101 -359 192 -746 449 l-317 209 30 48 c53 85 156 288 208 409 84 197 137 362
229 726 l88 345 689 5 689 5 42 24 c118 68 139 237 41 328 -57 54 -47 53 -728
53 -597 0 -631 1 -626 18 3 9 93 370 201 802 108 432 200 802 206 822 l10 37
687 3 687 3 47 28 c83 48 120 142 93 233 -13 46 -41 80 -99 125 -16 12 -122
15 -667 19 l-648 5 249 986 c136 543 262 1038 280 1100 140 492 312 862 543
1169 94 125 308 340 427 428 353 261 711 352 1072 272 350 -77 616 -339 743
-730 68 -211 95 -403 95 -673 l0 -174 -102 -5 c-188 -9 -335 -76 -479 -218
-126 -125 -195 -262 -219 -440 -52 -378 286 -633 690 -520 128 36 223 93 325
195 146 145 200 277 259 626 94 557 38 1089 -159 1506 -217 459 -570 740
-1060 843 -115 24 -418 35 -545 20z m-4920 -8570 c139 -18 277 -49 408 -92 67
-22 124 -44 127 -48 11 -18 -158 -233 -275 -350 -242 -241 -527 -409 -804
-472 -132 -30 -323 -31 -387 -2 -60 28 -115 78 -142 128 -17 33 -21 58 -21
131 1 155 62 281 209 430 137 139 297 228 475 266 98 20 282 24 410 9z"/>
</g>
</svg>
