<?xml version="1.0" standalone="no"?>
<!DOCTYPE svg PUBLIC "-//W3C//DTD SVG 20010904//EN"
 "http://www.w3.org/TR/2001/REC-SVG-20010904/DTD/svg10.dtd">
<svg version="1.0" xmlns="http://www.w3.org/2000/svg"
 width="549.000000pt" height="992.000000pt" viewBox="0 0 549.000000 992.000000"
 preserveAspectRatio="xMidYMid meet">
<metadata>
Created by potrace 1.16, written by Peter Selinger 2001-2019
</metadata>
<g transform="translate(0.000000,992.000000) scale(0.100000,-0.100000)"
fill="#000000" stroke="none">
<path d="M3507 9910 c-301 -51 -593 -262 -725 -525 -43 -86 -66 -169 -97 -345
-15 -85 -28 -156 -29 -157 -1 -1 -62 -18 -136 -37 -1237 -317 -2201 -1173
-2481 -2203 -56 -204 -42 -347 46 -479 131 -198 444 -261 710 -143 150 66 291
197 363 337 51 97 92 248 92 336 0 224 -149 410 -367 459 -31 8 -58 18 -60 24
-2 5 29 54 68 109 313 434 771 793 1294 1014 158 67 390 142 393 127 2 -11
-551 -3323 -563 -3372 -3 -12 -86 -75 -211 -160 -256 -174 -338 -240 -449
-357 -269 -286 -417 -651 -402 -997 10 -242 91 -440 246 -605 111 -117 267
-204 448 -252 93 -24 108 -25 298 -21 233 5 341 23 555 93 530 174 936 545
1074 982 31 98 32 126 8 171 -33 61 -66 71 -240 71 -210 0 -222 -7 -277 -165
-99 -286 -352 -531 -682 -662 -51 -20 -96 -33 -100 -30 -3 4 103 334 236 734
l241 728 903 622 c496 342 940 653 987 689 120 95 352 331 437 445 194 259
316 525 369 804 23 122 23 359 0 478 -57 295 -196 548 -420 764 -208 202 -495
367 -784 453 -46 13 -72 26 -69 33 38 99 99 313 108 373 34 247 -95 487 -322
598 -141 69 -305 92 -462 66z m652 -1487 c314 -117 553 -316 666 -554 19 -41
42 -108 51 -149 21 -100 14 -276 -16 -380 -62 -216 -232 -454 -456 -637 -81
-66 -1215 -856 -1220 -850 -2 1 191 588 429 1304 l432 1302 25 -6 c14 -3 54
-17 89 -30z m-2398 -4885 c-37 -219 -70 -400 -73 -403 -10 -11 -96 85 -119
132 -32 65 -38 205 -14 289 21 75 67 166 112 224 31 40 155 162 159 157 1 -1
-28 -181 -65 -399z"/>
<path d="M1380 1540 c-300 -64 -565 -275 -697 -555 -60 -127 -83 -225 -83
-354 0 -189 53 -325 175 -447 315 -315 901 -210 1230 220 67 88 138 236 165
340 25 98 27 264 5 351 -44 173 -162 319 -316 393 -148 71 -309 89 -479 52z"/>
</g>
</svg>
