<?xml version="1.0" standalone="no"?>
<!DOCTYPE svg PUBLIC "-//W3C//DTD SVG 20010904//EN"
 "http://www.w3.org/TR/2001/REC-SVG-20010904/DTD/svg10.dtd">
<svg version="1.0" xmlns="http://www.w3.org/2000/svg"
 width="517.000000pt" height="604.000000pt" viewBox="0 0 517.000000 604.000000"
 preserveAspectRatio="xMidYMid meet">
<metadata>
Created by potrace 1.16, written by Peter Selinger 2001-2019
</metadata>
<g transform="translate(0.000000,604.000000) scale(0.100000,-0.100000)"
fill="#000000" stroke="none">
<path d="M2890 6033 c-545 -42 -1117 -262 -1520 -583 -107 -85 -279 -262 -352
-360 -134 -182 -227 -374 -280 -578 -27 -103 -31 -133 -31 -252 0 -117 4 -147
27 -225 43 -143 87 -217 190 -321 103 -102 195 -156 332 -196 112 -32 360 -32
511 0 562 121 1024 504 1190 987 35 103 38 118 38 225 0 128 -16 184 -77 289
-37 62 -176 208 -229 240 -56 34 -117 29 -176 -16 -111 -84 -132 -105 -149
-149 -16 -41 -16 -47 0 -88 12 -31 34 -57 78 -92 77 -62 135 -135 144 -181 14
-74 -54 -245 -147 -368 -185 -246 -478 -414 -797 -456 -259 -34 -380 48 -412
279 -40 292 154 681 474 949 288 242 630 396 1036 465 183 32 473 31 620 -1
255 -55 450 -176 563 -350 95 -145 122 -264 114 -511 -5 -185 -28 -333 -87
-565 -83 -331 -187 -512 -445 -771 -317 -319 -721 -568 -1375 -849 -467 -200
-825 -436 -1164 -765 -450 -438 -776 -962 -931 -1500 -43 -148 -43 -195 1
-241 38 -40 79 -49 226 -49 198 0 224 16 271 172 54 174 155 338 280 454 131
122 235 160 402 151 242 -14 418 -91 833 -366 382 -252 550 -334 785 -382 185
-37 458 -25 678 31 546 140 1061 523 1370 1021 119 190 250 514 253 621 1 55
-23 94 -75 120 -28 15 -61 18 -177 18 -195 0 -231 -17 -267 -130 -106 -330
-466 -546 -1025 -615 -146 -18 -533 -20 -775 -5 -88 6 -322 24 -520 40 -596
48 -659 52 -945 59 l-275 6 190 190 c252 253 466 417 747 573 149 83 190 102
633 291 468 199 640 278 958 438 534 270 870 495 1132 758 262 263 381 507
415 850 20 203 -5 402 -76 606 -75 216 -192 396 -373 572 -325 315 -785 507
-1331 557 -107 9 -376 11 -480 3z"/>
</g>
</svg>
