<?xml version="1.0" standalone="no"?>
<!DOCTYPE svg PUBLIC "-//W3C//DTD SVG 20010904//EN"
 "http://www.w3.org/TR/2001/REC-SVG-20010904/DTD/svg10.dtd">
<svg version="1.0" xmlns="http://www.w3.org/2000/svg"
 width="631.000000pt" height="954.000000pt" viewBox="0 0 631.000000 954.000000"
 preserveAspectRatio="xMidYMid meet">
<metadata>
Created by potrace 1.16, written by Peter Selinger 2001-2019
</metadata>
<g transform="translate(0.000000,954.000000) scale(0.100000,-0.100000)"
fill="#000000" stroke="none">
<path d="M4255 9533 c-636 -55 -1280 -367 -1794 -868 -482 -469 -787 -1030
-902 -1654 -29 -155 -36 -486 -15 -648 51 -383 202 -718 445 -984 38 -41 151
-145 250 -229 l181 -154 -112 -59 c-850 -448 -1442 -949 -1841 -1557 -398
-607 -551 -1293 -421 -1879 105 -469 384 -871 794 -1141 351 -231 816 -360
1295 -360 713 1 1468 296 2100 821 148 124 386 366 508 519 462 576 721 1228
744 1870 16 472 -102 909 -345 1271 -117 174 -216 276 -542 554 l-301 257 113
62 c796 438 1363 973 1652 1556 115 232 186 455 220 691 18 123 21 381 5 496
-63 464 -322 873 -714 1129 -242 158 -578 272 -894 304 -96 9 -333 11 -426 3z
m290 -544 c267 -33 475 -135 647 -318 138 -147 224 -316 271 -531 26 -116 30
-418 9 -540 -121 -685 -593 -1332 -1322 -1814 -85 -57 -176 -115 -202 -129
l-47 -27 -573 489 c-316 269 -592 511 -614 537 -163 197 -229 386 -228 654 0
338 126 654 385 964 409 490 1100 785 1674 715z m-1058 -4902 c368 -314 663
-573 694 -609 320 -382 374 -915 149 -1461 -265 -643 -903 -1186 -1604 -1367
-192 -50 -312 -65 -516 -64 -265 0 -432 36 -630 135 -514 257 -768 835 -664
1514 70 459 298 947 650 1390 119 150 420 448 584 579 222 178 639 443 681
433 8 -2 304 -250 656 -550z"/>
</g>
</svg>
