<?xml version="1.0" standalone="no"?>
<!DOCTYPE svg PUBLIC "-//W3C//DTD SVG 20010904//EN"
 "http://www.w3.org/TR/2001/REC-SVG-20010904/DTD/svg10.dtd">
<svg version="1.0" xmlns="http://www.w3.org/2000/svg"
 width="577.000000pt" height="838.000000pt" viewBox="0 0 577.000000 838.000000"
 preserveAspectRatio="xMidYMid meet">
<metadata>
Created by potrace 1.16, written by Peter Selinger 2001-2019
</metadata>
<g transform="translate(0.000000,838.000000) scale(0.100000,-0.100000)"
fill="#000000" stroke="none">
<path d="M3945 8365 c-64 -33 -67 -41 -206 -600 l-133 -532 -90 -7 c-212 -16
-505 -82 -769 -173 -1072 -367 -2002 -1237 -2464 -2303 -119 -273 -209 -583
-259 -887 -25 -152 -30 -584 -10 -743 58 -437 221 -834 476 -1155 128 -160
324 -335 508 -453 263 -168 630 -300 971 -348 58 -8 107 -16 109 -19 3 -2 -51
-225 -118 -495 -129 -518 -132 -532 -91 -589 35 -48 76 -61 199 -61 118 0 150
12 194 71 12 16 68 221 151 551 l131 525 91 7 c50 3 144 15 210 26 935 154
1721 707 2205 1551 77 134 85 170 50 226 -32 54 -63 63 -207 63 -165 0 -171
-4 -247 -140 -222 -397 -544 -751 -892 -982 -240 -160 -520 -278 -784 -332
-99 -20 -330 -48 -330 -40 0 4 1303 5218 1321 5288 l11 39 99 -7 c370 -24 723
-127 940 -273 69 -47 189 -161 189 -180 0 -5 -28 -14 -62 -20 -35 -7 -106 -33
-158 -59 -386 -191 -508 -724 -215 -941 88 -65 167 -88 305 -87 97 0 128 4
195 27 205 68 360 217 432 414 45 124 56 198 56 363 1 140 -2 164 -26 243
-105 343 -373 586 -818 742 -202 71 -507 132 -751 151 -49 4 -88 11 -88 16 0
4 54 225 121 491 126 505 129 525 91 577 -44 59 -76 70 -196 70 -79 0 -120 -4
-141 -15z m-1098 -4166 l-660 -2641 -41 6 c-72 12 -218 66 -324 121 -143 75
-248 153 -359 269 -245 255 -379 571 -424 994 -15 145 -7 506 16 667 87 635
326 1338 622 1835 384 643 934 1113 1538 1315 63 22 253 71 286 74 4 1 -291
-1187 -654 -2640z"/>
</g>
</svg>
