<?xml version="1.0" standalone="no"?>
<!DOCTYPE svg PUBLIC "-//W3C//DTD SVG 20010904//EN"
 "http://www.w3.org/TR/2001/REC-SVG-20010904/DTD/svg10.dtd">
<svg version="1.0" xmlns="http://www.w3.org/2000/svg"
 width="605.000000pt" height="1284.000000pt" viewBox="0 0 605.000000 1284.000000"
 preserveAspectRatio="xMidYMid meet">
<metadata>
Created by potrace 1.16, written by Peter Selinger 2001-2019
</metadata>
<g transform="translate(0.000000,1284.000000) scale(0.100000,-0.100000)"
fill="#000000" stroke="none">
<path d="M5335 12828 c-11 -6 -76 -66 -145 -132 -371 -362 -757 -601 -1220
-758 -284 -96 -624 -158 -872 -158 -100 0 -130 -9 -175 -52 -27 -26 -36 -49
-59 -143 -27 -111 -27 -113 -10 -159 10 -27 30 -55 49 -68 30 -22 41 -23 202
-22 331 2 708 80 1067 219 75 30 150 61 168 70 30 16 32 16 26 -2 -3 -10 -213
-848 -466 -1863 -390 -1561 -467 -1857 -500 -1927 -67 -143 -120 -194 -243
-232 -140 -43 -468 -71 -847 -71 -278 0 -295 -10 -340 -190 -34 -137 -15 -206
64 -244 32 -15 59 -16 263 -7 125 6 498 16 828 22 616 12 1380 3 1988 -22 291
-12 302 -11 352 41 19 20 33 55 51 121 29 114 30 164 4 206 -40 67 -42 67
-380 74 -168 4 -359 12 -425 19 -143 13 -287 45 -316 69 -29 23 -40 98 -27
191 5 41 279 1155 609 2475 442 1768 599 2408 594 2432 -7 38 -46 88 -86 108
-33 18 -125 19 -154 3z"/>
<path d="M960 6531 c-49 -15 -86 -40 -127 -84 -48 -52 -67 -102 -67 -177 0
-30 6 -73 13 -94 17 -49 82 -121 136 -149 l40 -22 2425 -3 c2666 -2 2484 -7
2563 58 20 17 49 53 65 78 24 41 27 57 27 132 0 75 -3 91 -27 132 -16 25 -45
60 -65 78 -79 64 102 60 -2547 59 -1326 0 -2422 -4 -2436 -8z"/>
<path d="M4028 5775 c-60 -15 -123 -44 -170 -77 -28 -19 -28 -19 -70 6 -173
101 -426 59 -582 -97 -75 -76 -125 -169 -161 -301 -201 -745 -850 -1414 -1850
-1906 -300 -147 -607 -270 -910 -365 -192 -60 -231 -77 -255 -117 -46 -75 -33
-132 54 -240 81 -101 -11 -92 900 -89 828 3 948 -1 1256 -40 163 -20 651 -97
657 -103 2 -2 -109 -454 -247 -1005 -277 -1110 -274 -1095 -228 -1218 30 -80
112 -162 193 -192 177 -66 389 -17 529 122 115 116 107 90 376 1167 132 531
245 981 250 1001 l10 36 202 6 c340 12 898 67 958 95 83 40 105 141 49 225
-54 82 -118 146 -156 156 -22 6 -65 7 -116 1 -135 -15 -450 -30 -643 -30
l-182 0 320 1278 c307 1228 319 1280 316 1357 -6 142 -76 247 -203 307 -79 36
-206 46 -297 23z m-851 -2227 c-88 -354 -163 -646 -166 -650 -4 -4 -102 8
-219 27 -501 82 -695 104 -1001 114 l-204 6 79 34 c142 61 516 247 654 326
175 100 444 279 595 397 66 51 187 159 270 240 82 81 151 147 151 148 1 0 -71
-289 -159 -642z"/>
</g>
</svg>
