<?xml version="1.0" standalone="no"?>
<!DOCTYPE svg PUBLIC "-//W3C//DTD SVG 20010904//EN"
 "http://www.w3.org/TR/2001/REC-SVG-20010904/DTD/svg10.dtd">
<svg version="1.0" xmlns="http://www.w3.org/2000/svg"
 width="475.000000pt" height="992.000000pt" viewBox="0 0 475.000000 992.000000"
 preserveAspectRatio="xMidYMid meet">
<metadata>
Created by potrace 1.16, written by Peter Selinger 2001-2019
</metadata>
<g transform="translate(0.000000,992.000000) scale(0.100000,-0.100000)"
fill="#000000" stroke="none">
<path d="M3690 9901 c-194 -43 -385 -148 -534 -295 -122 -120 -235 -311 -278
-471 -28 -106 -31 -290 -5 -385 50 -186 170 -334 337 -415 153 -73 307 -92
480 -59 383 72 704 358 825 734 36 111 46 299 21 402 -55 235 -213 402 -451
478 -100 32 -279 37 -395 11z"/>
<path d="M2978 7185 c-3 -3 -50 -15 -104 -26 -242 -50 -520 -169 -714 -307
-126 -89 -320 -283 -397 -397 -76 -113 -135 -230 -173 -344 -35 -104 -37 -154
-10 -199 34 -55 65 -62 290 -62 260 0 269 4 315 145 71 217 225 404 443 537
42 26 80 48 84 48 11 0 -414 -1264 -431 -1281 -9 -9 -266 -184 -571 -389 -305
-205 -607 -412 -670 -459 -157 -116 -428 -388 -549 -551 -577 -776 -648 -1669
-183 -2300 121 -164 340 -349 526 -442 33 -17 62 -31 63 -32 1 -1 -22 -76 -52
-167 -83 -251 -91 -355 -39 -520 79 -253 319 -422 619 -436 438 -21 887 290
1014 700 11 38 32 137 46 220 14 83 28 154 31 158 2 4 19 11 37 14 17 4 85 27
149 51 333 123 631 290 928 520 141 109 429 393 538 531 259 328 443 688 539
1057 49 190 31 349 -55 482 -139 215 -465 285 -759 162 -240 -99 -410 -295
-478 -551 -29 -107 -33 -240 -10 -326 42 -160 170 -292 330 -340 22 -7 46 -14
53 -17 18 -5 7 -23 -98 -163 -206 -274 -477 -515 -785 -699 -126 -75 -295
-156 -295 -142 0 14 520 3134 523 3135 208 126 445 347 566 529 386 581 407
1260 52 1629 -62 65 -146 126 -224 163 -29 14 -65 35 -80 47 -27 21 -39 22
-246 25 -119 2 -219 0 -223 -3z m-1520 -4387 c-204 -612 -374 -1117 -379
-1122 -9 -10 -77 42 -141 108 -305 314 -326 824 -52 1286 107 181 274 370 441
499 85 66 483 340 495 341 3 0 -160 -501 -364 -1112z"/>
</g>
</svg>
