<?xml version="1.0" standalone="no"?>
<!DOCTYPE svg PUBLIC "-//W3C//DTD SVG 20010904//EN"
 "http://www.w3.org/TR/2001/REC-SVG-20010904/DTD/svg10.dtd">
<svg version="1.0" xmlns="http://www.w3.org/2000/svg"
 width="503.000000pt" height="227.000000pt" viewBox="0 0 503.000000 227.000000"
 preserveAspectRatio="xMidYMid meet">
<metadata>
Created by potrace 1.16, written by Peter Selinger 2001-2019
</metadata>
<g transform="translate(0.000000,227.000000) scale(0.100000,-0.100000)"
fill="#000000" stroke="none">
<path d="M274 2260 c-48 -15 -249 -226 -265 -278 -15 -52 -1 -109 39 -152 15
-16 457 -430 982 -920 1022 -952 989 -925 1069 -904 36 10 2819 1773 2869
1818 35 31 52 70 52 116 0 49 -86 239 -127 283 -34 34 -92 51 -136 39 -17 -5
-599 -329 -1291 -721 -693 -391 -1263 -710 -1267 -709 -4 2 -404 316 -890 698
-485 382 -894 703 -908 712 -34 21 -88 29 -127 18z"/>
</g>
</svg>
