<?xml version="1.0" standalone="no"?>
<!DOCTYPE svg PUBLIC "-//W3C//DTD SVG 20010904//EN"
 "http://www.w3.org/TR/2001/REC-SVG-20010904/DTD/svg10.dtd">
<svg version="1.0" xmlns="http://www.w3.org/2000/svg"
 width="947.000000pt" height="848.000000pt" viewBox="0 0 947.000000 848.000000"
 preserveAspectRatio="xMidYMid meet">
<metadata>
Created by potrace 1.16, written by Peter Selinger 2001-2019
</metadata>
<g transform="translate(0.000000,848.000000) scale(0.100000,-0.100000)"
fill="#000000" stroke="none">
<path d="M6116 8460 c-57 -22 -119 -79 -147 -132 -10 -20 -231 -885 -490
-1922 l-471 -1886 -1892 0 c-2147 0 -1949 8 -2043 -85 -111 -112 -111 -278 0
-390 94 -93 -95 -85 1973 -85 l1822 0 -425 -1700 -425 -1700 -1892 0 c-2147 0
-1949 8 -2043 -85 -78 -79 -100 -173 -67 -285 21 -70 98 -149 168 -173 46 -16
333 -17 4051 -17 3718 0 4005 1 4051 17 70 24 147 103 168 173 33 112 11 206
-67 285 -94 93 94 85 -1969 85 -1000 0 -1818 3 -1818 8 0 4 190 769 422 1700
l423 1692 1891 0 c2145 0 1947 -8 2041 85 111 112 111 278 0 390 -94 93 94 85
-1969 85 -1197 0 -1818 3 -1818 10 0 5 205 830 456 1832 487 1951 466 1855
428 1946 -56 136 -224 207 -358 152z"/>
</g>
</svg>
