<?xml version="1.0" standalone="no"?>
<!DOCTYPE svg PUBLIC "-//W3C//DTD SVG 20010904//EN"
 "http://www.w3.org/TR/2001/REC-SVG-20010904/DTD/svg10.dtd">
<svg version="1.0" xmlns="http://www.w3.org/2000/svg"
 width="583.000000pt" height="175.000000pt" viewBox="0 0 583.000000 175.000000"
 preserveAspectRatio="xMidYMid meet">
<metadata>
Created by potrace 1.16, written by Peter Selinger 2001-2019
</metadata>
<g transform="translate(0.000000,175.000000) scale(0.100000,-0.100000)"
fill="#000000" stroke="none">
<path d="M2885 1740 c-954 -65 -1863 -391 -2412 -864 -220 -190 -372 -403
-448 -630 -36 -107 -34 -157 9 -204 l34 -37 186 0 185 0 30 29 c19 18 38 54
51 94 105 323 455 598 1050 825 699 267 1637 348 2430 212 461 -80 888 -267
1110 -485 156 -154 197 -272 176 -506 l-9 -91 36 -39 35 -39 187 0 187 0 33
36 c47 51 60 120 59 304 0 133 -4 160 -28 239 -33 108 -98 238 -166 327 -64
86 -225 239 -326 310 -382 272 -917 449 -1534 509 -150 15 -709 21 -875 10z"/>
</g>
</svg>
