<?xml version="1.0" standalone="no"?>
<!DOCTYPE svg PUBLIC "-//W3C//DTD SVG 20010904//EN"
 "http://www.w3.org/TR/2001/REC-SVG-20010904/DTD/svg10.dtd">
<svg version="1.0" xmlns="http://www.w3.org/2000/svg"
 width="547.000000pt" height="992.000000pt" viewBox="0 0 547.000000 992.000000"
 preserveAspectRatio="xMidYMid meet">
<metadata>
Created by potrace 1.16, written by Peter Selinger 2001-2019
</metadata>
<g transform="translate(0.000000,992.000000) scale(0.100000,-0.100000)"
fill="#000000" stroke="none">
<path d="M3450 9901 c-273 -60 -523 -225 -669 -439 -89 -132 -134 -257 -166
-462 -10 -63 -21 -118 -25 -123 -3 -4 -65 -23 -136 -42 -178 -47 -433 -136
-594 -207 -934 -412 -1606 -1130 -1822 -1947 -55 -205 -39 -359 50 -497 139
-215 465 -285 759 -162 240 99 410 295 478 551 60 221 17 415 -119 546 -66 62
-120 95 -203 120 l-51 17 44 59 c322 431 846 795 1417 983 42 14 79 23 82 20
4 -4 -498 -3048 -521 -3160 -4 -22 -39 -51 -177 -144 -222 -151 -272 -191
-394 -317 -247 -257 -402 -584 -434 -913 -44 -464 209 -875 616 -1004 22 -6
59 -21 81 -31 38 -18 61 -19 250 -16 142 2 239 8 304 20 697 128 1234 530
1410 1056 35 104 37 154 10 199 -34 55 -65 62 -290 62 -130 0 -209 -4 -223
-11 -44 -23 -68 -54 -84 -109 -50 -173 -165 -332 -332 -458 -76 -57 -225 -140
-300 -167 l-39 -13 220 656 219 657 812 545 c446 300 865 585 931 635 136 101
365 319 463 440 240 297 387 617 434 944 15 106 6 360 -16 460 -103 464 -410
833 -889 1066 -72 35 -174 78 -226 96 -52 18 -96 33 -98 35 -2 1 17 65 42 142
73 225 80 333 30 493 -61 195 -215 338 -439 409 -100 32 -288 37 -405 11z
m699 -1598 c524 -225 739 -633 564 -1072 -73 -183 -243 -392 -443 -546 -43
-33 -859 -586 -972 -659 -25 -16 2 68 358 1136 436 1308 391 1178 400 1178 4
0 46 -17 93 -37z m-2428 -4678 c-20 -121 -39 -215 -42 -210 -25 43 -27 183 -4
263 15 51 74 176 80 170 2 -2 -14 -102 -34 -223z"/>
<path d="M1390 1640 c-377 -80 -686 -360 -805 -730 -36 -111 -46 -299 -21
-402 56 -238 214 -403 456 -480 104 -32 315 -32 435 0 165 45 360 159 488 284
123 122 236 313 279 473 28 106 31 290 5 385 -50 186 -170 334 -337 415 -156
75 -323 93 -500 55z"/>
</g>
</svg>
