<?xml version="1.0" standalone="no"?>
<!DOCTYPE svg PUBLIC "-//W3C//DTD SVG 20010904//EN"
 "http://www.w3.org/TR/2001/REC-SVG-20010904/DTD/svg10.dtd">
<svg version="1.0" xmlns="http://www.w3.org/2000/svg"
 width="498.000000pt" height="124.000000pt" viewBox="0 0 498.000000 124.000000"
 preserveAspectRatio="xMidYMid meet">
<metadata>
Created by potrace 1.16, written by Peter Selinger 2001-2019
</metadata>
<g transform="translate(0.000000,124.000000) scale(0.100000,-0.100000)"
fill="#000000" stroke="none">
<path d="M1495 1224 c-186 -31 -383 -107 -574 -222 -232 -139 -398 -271 -698
-555 -216 -204 -236 -233 -214 -307 23 -78 101 -140 174 -140 43 0 85 28 201
135 404 373 792 574 1107 575 225 0 414 -72 742 -282 363 -232 499 -306 671
-363 431 -143 851 -48 1346 303 135 96 285 224 497 425 216 204 236 233 214
307 -23 78 -101 140 -174 140 -43 0 -85 -28 -201 -135 -404 -373 -792 -574
-1107 -575 -225 0 -414 72 -742 282 -363 232 -499 306 -671 363 -189 63 -390
80 -571 49z"/>
</g>
</svg>
