<?xml version="1.0" standalone="no"?>
<!DOCTYPE svg PUBLIC "-//W3C//DTD SVG 20010904//EN"
 "http://www.w3.org/TR/2001/REC-SVG-20010904/DTD/svg10.dtd">
<svg version="1.0" xmlns="http://www.w3.org/2000/svg"
 width="646.000000pt" height="1369.000000pt" viewBox="0 0 646.000000 1369.000000"
 preserveAspectRatio="xMidYMid meet">
<metadata>
Created by potrace 1.16, written by Peter Selinger 2001-2019
</metadata>
<g transform="translate(0.000000,1369.000000) scale(0.100000,-0.100000)"
fill="#000000" stroke="none">
<path d="M5730 13679 c-13 -5 -90 -74 -170 -152 -80 -78 -179 -170 -220 -203
-234 -190 -501 -354 -761 -467 -384 -167 -749 -252 -1169 -273 -147 -7 -188
-19 -220 -63 -23 -33 -80 -254 -80 -312 0 -89 75 -149 186 -149 90 0 317 19
434 36 293 43 614 134 901 258 l36 15 -477 -1907 c-448 -1794 -479 -1912 -519
-1990 -57 -108 -119 -165 -210 -192 -158 -46 -315 -61 -741 -69 -343 -6 -367
-7 -400 -26 -19 -12 -43 -35 -53 -53 -25 -42 -76 -244 -77 -298 0 -50 31 -100
80 -128 35 -21 38 -21 1770 -21 1651 0 1737 1 1768 18 48 26 67 65 103 211 35
143 35 184 -2 230 -46 59 -53 60 -439 67 -362 7 -518 21 -641 55 -81 23 -93
42 -92 148 1 72 71 361 627 2584 344 1376 626 2521 626 2543 0 89 -72 150
-177 148 -32 0 -69 -5 -83 -10z m-415 -5978 c83 -4 -507 -7 -1310 -7 -803 0
-1428 2 -1390 3 424 21 2290 24 2700 4z"/>
<path d="M1183 7120 c-130 -26 -233 -147 -233 -275 0 -100 70 -207 165 -251
l50 -24 2538 0 c2222 0 2542 2 2573 15 58 24 108 70 140 127 25 46 29 63 29
133 0 70 -4 87 -29 133 -32 57 -81 102 -143 130 -36 16 -188 17 -2543 18
-1378 1 -2524 -2 -2547 -6z"/>
<path d="M3050 6309 c-433 -26 -891 -240 -1288 -601 -569 -520 -1052 -1381
-1293 -2305 -37 -143 -41 -166 -36 -245 13 -234 191 -410 492 -487 257 -65
553 -49 796 42 381 144 727 454 946 849 75 135 137 289 175 437 26 102 29 128
25 216 -3 55 -12 127 -21 160 -39 146 -199 400 -277 441 -57 29 -109 15 -197
-53 -89 -69 -122 -112 -122 -159 0 -48 12 -74 69 -140 170 -198 174 -361 16
-679 -242 -485 -726 -800 -1133 -736 -133 21 -209 59 -238 121 -16 32 -16 39
6 130 65 270 201 665 325 944 333 750 771 1282 1250 1516 198 97 380 140 595
140 296 0 495 -75 675 -255 140 -140 208 -281 241 -498 19 -123 14 -386 -11
-542 -42 -265 -135 -654 -192 -800 -218 -557 -739 -1090 -1503 -1535 -69 -40
-253 -139 -410 -220 -628 -324 -991 -568 -1318 -884 -202 -196 -357 -401 -472
-626 -57 -113 -131 -313 -145 -390 -7 -45 18 -97 64 -127 32 -21 45 -23 188
-23 214 0 231 9 274 141 50 152 145 290 268 389 152 122 279 151 511 116 210
-32 385 -106 801 -337 394 -218 676 -309 964 -309 750 0 1455 562 1934 1545
117 240 227 534 301 806 34 123 31 166 -12 206 -39 36 -74 43 -224 43 -211 0
-227 -10 -271 -166 -165 -588 -644 -1130 -1147 -1299 -185 -62 -109 -58 -1311
-62 l-1100 -4 100 71 c234 167 481 308 945 540 969 484 1458 765 1867 1074
646 486 932 925 993 1525 56 553 -116 1077 -474 1450 -393 407 -982 617 -1626
580z"/>
</g>
</svg>
