<?xml version="1.0" standalone="no"?>
<!DOCTYPE svg PUBLIC "-//W3C//DTD SVG 20010904//EN"
 "http://www.w3.org/TR/2001/REC-SVG-20010904/DTD/svg10.dtd">
<svg version="1.0" xmlns="http://www.w3.org/2000/svg"
 width="597.000000pt" height="658.000000pt" viewBox="0 0 597.000000 658.000000"
 preserveAspectRatio="xMidYMid meet">
<metadata>
Created by potrace 1.16, written by Peter Selinger 2001-2019
</metadata>
<g transform="translate(0.000000,658.000000) scale(0.100000,-0.100000)"
fill="#000000" stroke="none">
<path d="M3410 6574 c-170 -20 -220 -28 -320 -50 -403 -90 -821 -291 -1160
-560 -121 -96 -382 -361 -471 -479 -244 -321 -407 -673 -465 -1005 -22 -126
-15 -322 15 -435 63 -235 208 -419 406 -515 132 -64 187 -75 370 -74 144 0
169 3 250 27 239 72 470 225 627 413 300 361 392 785 257 1197 -29 90 -112
264 -150 318 -42 59 -117 75 -178 38 -19 -11 -64 -45 -102 -75 -104 -85 -111
-126 -44 -249 57 -105 101 -237 115 -347 33 -250 -73 -519 -281 -711 -158
-147 -324 -216 -494 -205 -186 12 -284 158 -285 421 0 374 248 878 610 1237
308 306 714 533 1087 609 380 78 804 35 1097 -110 113 -56 180 -104 269 -188
130 -124 204 -258 245 -439 26 -118 23 -434 -6 -607 -74 -432 -166 -651 -385
-911 -333 -398 -870 -722 -1827 -1103 -446 -178 -822 -379 -1142 -611 -709
-513 -1217 -1191 -1419 -1890 -34 -121 -36 -163 -9 -208 32 -53 69 -62 240
-62 213 0 218 4 278 186 66 201 155 351 283 476 141 138 254 176 469 158 346
-30 520 -91 1155 -407 509 -253 712 -331 999 -384 145 -26 380 -35 516 -20
595 70 1181 457 1569 1036 145 216 265 470 332 703 l32 112 -18 46 c-29 77
-50 84 -254 84 l-173 0 -32 -33 c-21 -20 -41 -56 -55 -101 -98 -306 -379 -553
-778 -686 -384 -128 -684 -131 -1938 -20 -675 60 -1145 89 -1440 90 l-60 0
110 111 c194 196 387 353 630 516 306 204 528 312 1140 556 1046 417 1532 649
1990 951 223 147 353 251 505 405 209 212 332 413 389 641 134 533 -6 1057
-388 1453 -183 189 -336 299 -586 422 -279 137 -580 222 -940 265 -92 12 -522
21 -585 14z"/>
</g>
</svg>
