<?xml version="1.0" standalone="no"?>
<!DOCTYPE svg PUBLIC "-//W3C//DTD SVG 20010904//EN"
 "http://www.w3.org/TR/2001/REC-SVG-20010904/DTD/svg10.dtd">
<svg version="1.0" xmlns="http://www.w3.org/2000/svg"
 width="803.000000pt" height="945.000000pt" viewBox="0 0 803.000000 945.000000"
 preserveAspectRatio="xMidYMid meet">
<metadata>
Created by potrace 1.16, written by Peter Selinger 2001-2019
</metadata>
<g transform="translate(0.000000,945.000000) scale(0.100000,-0.100000)"
fill="#000000" stroke="none">
<path d="M5035 9443 c-202 -16 -449 -55 -625 -98 -1136 -277 -2255 -1066
-3093 -2180 -1039 -1383 -1516 -3139 -1236 -4550 157 -793 532 -1457 1084
-1922 249 -210 579 -398 895 -510 434 -155 877 -206 1470 -173 1132 65 2045
368 2750 916 215 167 483 451 646 684 55 79 59 89 59 140 0 41 -6 63 -22 86
-37 51 -77 64 -198 64 -139 0 -159 -9 -230 -111 -529 -754 -1411 -1227 -2555
-1369 -356 -44 -769 -50 -994 -15 -883 137 -1531 798 -1720 1750 -109 555 -96
1115 45 1895 26 144 114 549 137 635 l8 30 3110 5 c2985 5 3110 6 3136 23 44
30 57 60 98 230 100 417 167 823 201 1217 16 175 16 661 0 815 -62 629 -250
1148 -551 1524 -85 106 -271 291 -365 362 -413 315 -922 497 -1540 549 -110 9
-415 11 -510 3z m510 -358 c462 -82 830 -338 1058 -738 93 -163 168 -381 221
-637 138 -674 84 -1468 -174 -2577 l-22 -93 -2543 0 -2544 0 20 73 c229 829
562 1597 941 2167 494 742 1121 1305 1787 1606 235 106 521 187 752 213 116
13 395 6 504 -14z"/>
</g>
</svg>
