<?xml version="1.0" standalone="no"?>
<!DOCTYPE svg PUBLIC "-//W3C//DTD SVG 20010904//EN"
 "http://www.w3.org/TR/2001/REC-SVG-20010904/DTD/svg10.dtd">
<svg version="1.0" xmlns="http://www.w3.org/2000/svg"
 width="1320.000000pt" height="1446.000000pt" viewBox="0 0 1320.000000 1446.000000"
 preserveAspectRatio="xMidYMid meet">
<metadata>
Created by potrace 1.16, written by Peter Selinger 2001-2019
</metadata>
<g transform="translate(0.000000,1446.000000) scale(0.100000,-0.100000)"
fill="#000000" stroke="none">
<path d="M8050 14453 c-201 -13 -352 -28 -509 -49 -1248 -167 -2559 -749
-3713 -1646 -541 -421 -1093 -957 -1552 -1508 -1284 -1543 -2086 -3438 -2251
-5320 -22 -249 -30 -752 -16 -1000 68 -1199 429 -2258 1057 -3095 141 -189
242 -304 424 -486 244 -244 433 -399 710 -582 981 -646 2181 -889 3488 -706
1322 184 2744 852 3930 1847 446 373 917 847 1296 1302 1284 1543 2086 3438
2251 5320 22 249 30 752 16 1000 -68 1199 -429 2258 -1057 3095 -141 189 -242
304 -424 486 -244 244 -433 399 -710 582 -677 445 -1455 699 -2325 757 -136 9
-503 11 -615 3z m585 -563 c659 -44 1265 -217 1790 -509 986 -549 1675 -1466
2004 -2666 250 -910 264 -1977 40 -3075 -410 -2008 -1575 -3932 -3211 -5302
-886 -742 -1908 -1293 -2910 -1567 -1314 -361 -2577 -252 -3583 308 -986 549
-1675 1466 -2004 2666 -250 910 -264 1977 -40 3075 410 2008 1575 3932 3211
5302 1121 939 2434 1555 3678 1727 124 17 274 31 470 44 110 8 418 6 555 -3z"/>
<path d="M3359 10358 c-20 -11 -46 -37 -57 -57 -31 -57 -106 -374 -98 -416 9
-45 57 -101 99 -114 18 -5 181 -12 362 -15 446 -8 674 -32 719 -76 49 -48 72
53 -579 -2552 -418 -1674 -617 -2452 -636 -2494 -34 -73 -95 -139 -152 -164
-105 -47 -332 -69 -772 -76 -181 -3 -344 -10 -362 -15 -66 -21 -86 -59 -138
-271 l-49 -195 25 -48 c13 -27 37 -58 52 -69 33 -24 42 -24 592 -6 842 27
1934 23 2800 -11 288 -11 291 -11 333 10 23 12 49 32 58 46 20 30 103 356 104
404 0 47 -35 105 -80 130 -35 20 -52 21 -251 21 -384 0 -736 27 -823 64 -47
20 -62 72 -47 160 7 34 132 543 279 1131 l268 1070 660 0 c648 0 660 0 742
-22 364 -97 575 -409 532 -789 -6 -55 -62 -302 -134 -591 -68 -274 -130 -535
-136 -581 -19 -125 -8 -376 20 -477 112 -408 463 -681 1040 -809 230 -50 447
-74 755 -83 302 -8 431 13 623 104 238 113 492 355 672 643 126 200 293 606
307 746 7 65 -22 122 -77 153 -35 19 -53 21 -224 21 -269 0 -276 -5 -336 -211
-107 -373 -240 -631 -411 -794 -145 -138 -271 -178 -455 -144 -207 38 -306
181 -356 514 -10 69 -13 262 -13 815 0 659 -2 732 -18 800 -59 253 -169 464
-330 636 -67 72 -187 173 -261 220 -25 16 -46 31 -46 34 0 3 44 19 98 34 466
138 969 389 1303 651 113 89 326 309 399 412 275 391 323 816 136 1199 -150
306 -422 554 -821 749 -383 187 -802 290 -1320 325 -91 6 -897 10 -2055 10
l-1905 0 -36 -22z m3921 -617 c357 -44 589 -137 738 -295 92 -97 127 -206 125
-391 -1 -145 -19 -262 -78 -501 -140 -567 -309 -821 -662 -998 -248 -123 -527
-191 -898 -216 -203 -13 -1365 -13 -1365 0 0 29 553 2214 570 2256 43 100 100
134 260 153 107 13 1192 6 1310 -8z"/>
</g>
</svg>
