<?xml version="1.0" standalone="no"?>
<!DOCTYPE svg PUBLIC "-//W3C//DTD SVG 20010904//EN"
 "http://www.w3.org/TR/2001/REC-SVG-20010904/DTD/svg10.dtd">
<svg version="1.0" xmlns="http://www.w3.org/2000/svg"
 width="601.000000pt" height="658.000000pt" viewBox="0 0 601.000000 658.000000"
 preserveAspectRatio="xMidYMid meet">
<metadata>
Created by potrace 1.16, written by Peter Selinger 2001-2019
</metadata>
<g transform="translate(0.000000,658.000000) scale(0.100000,-0.100000)"
fill="#000000" stroke="none">
<path d="M3405 6569 c-293 -32 -627 -134 -910 -279 -720 -368 -1251 -1003
-1430 -1710 -121 -478 38 -917 397 -1093 141 -70 196 -82 378 -82 139 0 165 3
254 28 352 98 667 367 845 724 93 187 132 333 139 525 5 158 -7 256 -49 402
-39 133 -151 359 -193 390 -43 33 -87 40 -127 23 -45 -19 -259 -190 -281 -225
-31 -48 -23 -96 37 -216 72 -143 96 -239 96 -376 1 -162 -41 -298 -136 -441
-127 -190 -315 -314 -497 -326 -138 -10 -217 44 -259 177 -27 84 -29 259 -5
375 123 575 576 1133 1151 1415 357 175 724 228 1115 161 441 -76 734 -300
822 -630 32 -122 36 -365 9 -556 -44 -307 -98 -503 -186 -680 -82 -165 -166
-278 -324 -435 -351 -349 -832 -621 -1731 -980 -439 -175 -867 -423 -1244
-721 -156 -124 -519 -482 -632 -625 -294 -368 -499 -748 -609 -1127 -40 -137
-43 -179 -15 -225 34 -55 65 -62 290 -62 261 0 274 6 315 147 87 301 255 542
435 627 77 36 173 44 328 27 306 -33 493 -99 1032 -361 429 -209 535 -256 730
-320 551 -184 1015 -157 1516 85 604 293 1108 892 1295 1542 l32 113 -18 46
c-30 80 -44 84 -302 84 l-223 0 -30 -27 c-21 -19 -41 -56 -64 -119 -129 -359
-540 -606 -1105 -663 -239 -25 -664 -8 -1501 59 -671 54 -950 72 -1332 83
l-76 2 111 102 c295 270 620 490 1002 678 105 51 371 166 591 254 1404 561
2043 908 2490 1355 252 253 370 455 435 749 30 134 38 429 15 567 -90 538
-441 981 -996 1260 -265 133 -570 222 -910 265 -150 19 -550 28 -675 14z"/>
</g>
</svg>
