<?xml version="1.0" standalone="no"?>
<!DOCTYPE svg PUBLIC "-//W3C//DTD SVG 20010904//EN"
 "http://www.w3.org/TR/2001/REC-SVG-20010904/DTD/svg10.dtd">
<svg version="1.0" xmlns="http://www.w3.org/2000/svg"
 width="1107.000000pt" height="945.000000pt" viewBox="0 0 1107.000000 945.000000"
 preserveAspectRatio="xMidYMid meet">
<metadata>
Created by potrace 1.16, written by Peter Selinger 2001-2019
</metadata>
<g transform="translate(0.000000,945.000000) scale(0.100000,-0.100000)"
fill="#000000" stroke="none">
<path d="M2369 9429 c-49 -29 -67 -64 -100 -193 -35 -135 -36 -187 -8 -233 41
-66 70 -73 321 -73 414 0 899 -37 898 -68 0 -4 -159 -641 -353 -1417 l-353
-1410 -815 -5 -814 -5 -38 -23 c-42 -27 -82 -89 -92 -145 -17 -93 54 -202 147
-225 34 -9 254 -12 778 -12 692 0 731 -1 726 -17 -3 -10 -127 -506 -276 -1103
-149 -597 -275 -1102 -281 -1122 l-10 -38 -803 0 -803 0 -44 -23 c-119 -63
-144 -216 -52 -318 64 -70 46 -69 869 -69 l732 0 -208 -827 c-114 -456 -219
-859 -235 -898 -90 -228 -264 -414 -490 -528 -195 -97 -496 -157 -798 -157
-103 0 -153 -20 -185 -72 -11 -18 -34 -94 -53 -169 l-33 -136 25 -49 c13 -26
37 -57 52 -68 33 -24 62 -24 492 -6 647 27 1533 22 2240 -11 236 -12 241 -12
282 9 57 29 75 66 114 223 l33 136 -25 49 c-41 82 -55 87 -247 96 -385 17
-577 73 -713 208 -50 49 -71 79 -88 125 -30 79 -40 180 -29 285 5 52 92 417
221 935 l213 850 1664 0 1664 0 507 -1400 c279 -770 517 -1418 529 -1441 38
-73 72 -84 254 -84 110 0 166 4 189 14 77 33 53 -50 438 1489 l355 1422 805 5
c588 4 811 8 830 17 149 67 171 265 40 358 l-43 30 -764 3 c-720 2 -765 3
-760 20 3 9 127 505 276 1102 149 597 275 1102 281 1122 l10 37 807 3 c730 3
810 5 837 20 38 20 78 63 99 105 33 66 11 178 -45 230 -59 54 -38 53 -847 53
l-750 0 268 1068 c146 587 279 1100 294 1139 86 225 265 422 486 533 194 98
506 160 805 160 156 0 185 28 235 229 37 149 35 183 -11 236 -46 52 -71 57
-269 46 -96 -6 -417 -16 -712 -23 -557 -12 -1263 -3 -1792 23 -228 12 -230 12
-271 -10 -54 -29 -72 -62 -106 -195 -35 -135 -36 -187 -8 -233 36 -59 73 -69
260 -76 470 -18 726 -138 796 -372 13 -44 17 -91 16 -175 l-1 -115 -279 -1115
-279 -1115 -1179 0 -1179 0 -606 1672 c-334 919 -613 1679 -620 1688 -8 9 -31
25 -51 36 -37 18 -72 19 -1186 19 -1146 0 -1148 -1 -1184 -21z m1969 -2214
c226 -622 415 -1142 421 -1157 l11 -28 -714 0 -714 0 291 1160 c159 639 291
1159 293 1158 1 -2 187 -512 412 -1133z m987 -2722 c225 -621 410 -1134 413
-1140 3 -10 -308 -13 -1533 -13 -1459 0 -1536 1 -1531 18 3 9 127 505 276
1102 149 597 275 1102 281 1123 l10 37 838 0 838 0 408 -1127z m2941 1110 c-3
-10 -127 -506 -276 -1103 -149 -597 -275 -1102 -281 -1122 l-10 -38 -353 0
-352 0 -409 1128 c-224 620 -410 1133 -413 1140 -3 9 211 12 1048 12 997 0
1051 -1 1046 -17z m-760 -3038 c-50 -200 -94 -361 -98 -357 -4 4 -65 168 -136
365 l-129 357 227 0 227 0 -91 -365z"/>
</g>
</svg>
