<?xml version="1.0" standalone="no"?>
<!DOCTYPE svg PUBLIC "-//W3C//DTD SVG 20010904//EN"
 "http://www.w3.org/TR/2001/REC-SVG-20010904/DTD/svg10.dtd">
<svg version="1.0" xmlns="http://www.w3.org/2000/svg"
 width="254.000000pt" height="183.000000pt" viewBox="0 0 254.000000 183.000000"
 preserveAspectRatio="xMidYMid meet">
<metadata>
Created by potrace 1.16, written by Peter Selinger 2001-2019
</metadata>
<g transform="translate(0.000000,183.000000) scale(0.100000,-0.100000)"
fill="#000000" stroke="none">
<path d="M570 1823 c-317 -53 -607 -423 -561 -714 22 -137 106 -251 230 -313
36 -19 479 -206 985 -416 824 -343 923 -382 959 -377 22 3 52 14 66 25 14 10
80 91 148 180 137 181 148 206 117 281 -18 43 -67 83 -804 654 -485 375 -808
618 -845 636 -92 44 -198 60 -295 44z"/>
</g>
</svg>
