<?xml version="1.0" standalone="no"?>
<!DOCTYPE svg PUBLIC "-//W3C//DTD SVG 20010904//EN"
 "http://www.w3.org/TR/2001/REC-SVG-20010904/DTD/svg10.dtd">
<svg version="1.0" xmlns="http://www.w3.org/2000/svg"
 width="679.000000pt" height="927.000000pt" viewBox="0 0 679.000000 927.000000"
 preserveAspectRatio="xMidYMid meet">
<metadata>
Created by potrace 1.16, written by Peter Selinger 2001-2019
</metadata>
<g transform="translate(0.000000,927.000000) scale(0.100000,-0.100000)"
fill="#000000" stroke="none">
<path d="M1405 9252 c-16 -11 -35 -25 -41 -33 -6 -8 -315 -649 -688 -1426
-531 -1109 -676 -1420 -676 -1450 0 -50 18 -82 59 -110 33 -22 42 -23 246 -23
265 0 253 -6 343 165 529 1006 1582 1715 2552 1719 140 1 161 -1 212 -22 100
-40 178 -101 378 -297 256 -250 348 -311 539 -357 146 -35 404 -13 610 51 34
10 61 17 61 15 0 -3 -35 -57 -78 -122 -331 -493 -861 -1354 -1185 -1922 -446
-784 -876 -1639 -1180 -2351 -328 -767 -597 -1544 -787 -2274 -51 -194 -61
-316 -36 -415 51 -203 195 -337 412 -386 262 -58 591 66 779 293 101 122 144
225 215 513 303 1220 735 2568 1187 3705 654 1644 1419 3077 2388 4473 73 105
82 148 45 210 -34 56 -65 62 -292 62 -181 0 -206 -2 -234 -19 -17 -10 -66 -67
-109 -127 -602 -831 -1077 -1202 -1545 -1208 -140 -1 -189 14 -249 79 -79 85
-102 147 -191 500 -71 287 -107 391 -167 495 -78 133 -210 231 -359 266 -141
33 -479 4 -746 -65 -341 -88 -740 -282 -1059 -516 -49 -35 -89 -63 -89 -61 0
2 52 111 115 242 125 259 133 290 95 352 -34 56 -65 62 -292 62 -179 0 -207
-2 -233 -18z"/>
</g>
</svg>
