<?xml version="1.0" standalone="no"?>
<!DOCTYPE svg PUBLIC "-//W3C//DTD SVG 20010904//EN"
 "http://www.w3.org/TR/2001/REC-SVG-20010904/DTD/svg10.dtd">
<svg version="1.0" xmlns="http://www.w3.org/2000/svg"
 width="664.000000pt" height="206.000000pt" viewBox="0 0 664.000000 206.000000"
 preserveAspectRatio="xMidYMid meet">
<metadata>
Created by potrace 1.16, written by Peter Selinger 2001-2019
</metadata>
<g transform="translate(0.000000,206.000000) scale(0.100000,-0.100000)"
fill="#000000" stroke="none">
<path d="M3435 2053 c-428 -26 -732 -70 -1092 -158 -638 -157 -1246 -439
-1668 -773 -90 -71 -291 -268 -359 -352 -125 -152 -231 -343 -286 -510 -35
-107 -37 -143 -10 -187 38 -63 55 -68 254 -71 99 -2 200 -1 224 3 67 10 97 44
136 157 56 162 131 273 284 420 391 375 1117 679 1902 797 591 89 1272 78
1800 -29 729 -147 1288 -509 1369 -888 14 -69 14 -184 -1 -273 -11 -65 -11
-74 7 -106 11 -20 33 -46 48 -57 27 -20 41 -21 246 -21 235 0 250 3 287 60 47
72 69 361 40 518 -47 247 -167 466 -365 667 -521 527 -1431 817 -2536 808
-126 -1 -252 -3 -280 -5z"/>
</g>
</svg>
