<?xml version="1.0" standalone="no"?>
<!DOCTYPE svg PUBLIC "-//W3C//DTD SVG 20010904//EN"
 "http://www.w3.org/TR/2001/REC-SVG-20010904/DTD/svg10.dtd">
<svg version="1.0" xmlns="http://www.w3.org/2000/svg"
 width="379.000000pt" height="137.000000pt" viewBox="0 0 379.000000 137.000000"
 preserveAspectRatio="xMidYMid meet">
<metadata>
Created by potrace 1.16, written by Peter Selinger 2001-2019
</metadata>
<g transform="translate(0.000000,137.000000) scale(0.100000,-0.100000)"
fill="#000000" stroke="none">
<path d="M685 1353 c-259 -55 -506 -255 -616 -499 -118 -261 -80 -523 101
-698 256 -247 701 -193 1002 122 87 92 150 191 191 306 39 106 49 288 22 381
-58 202 -213 348 -412 390 -86 18 -198 18 -288 -2z"/>
<path d="M3056 1353 c-152 -32 -289 -107 -414 -227 -125 -120 -201 -241 -242
-388 -63 -225 -17 -423 134 -574 81 -81 163 -126 271 -149 241 -51 499 33 703
229 178 171 266 359 266 571 0 171 -56 301 -178 412 -134 123 -337 170 -540
126z"/>
</g>
</svg>
