<?xml version="1.0" standalone="no"?>
<!DOCTYPE svg PUBLIC "-//W3C//DTD SVG 20010904//EN"
 "http://www.w3.org/TR/2001/REC-SVG-20010904/DTD/svg10.dtd">
<svg version="1.0" xmlns="http://www.w3.org/2000/svg"
 width="406.000000pt" height="506.000000pt" viewBox="0 0 406.000000 506.000000"
 preserveAspectRatio="xMidYMid meet">
<metadata>
Created by potrace 1.16, written by Peter Selinger 2001-2019
</metadata>
<g transform="translate(0.000000,506.000000) scale(0.100000,-0.100000)"
fill="#000000" stroke="none">
<path d="M1265 5053 c-171 -38 -332 -133 -433 -256 -59 -73 -119 -193 -142
-284 -23 -93 -682 -4300 -683 -4359 0 -51 27 -101 73 -131 29 -20 46 -23 130
-23 84 0 101 3 130 23 19 12 42 36 51 52 22 38 1487 4299 1507 4380 9 38 13
96 10 160 -3 91 -7 107 -40 178 -61 128 -169 214 -315 252 -54 14 -239 19
-288 8z"/>
<path d="M3360 5040 c-133 -35 -233 -92 -336 -195 -75 -74 -99 -106 -136 -182
-26 -50 -53 -125 -62 -165 -26 -121 -676 -4303 -676 -4350 0 -52 27 -101 72
-128 27 -16 51 -20 126 -20 99 0 130 10 169 52 14 15 266 734 766 2188 409
1191 749 2186 755 2212 19 76 15 216 -8 291 -22 72 -87 167 -141 208 -50 38
-131 77 -196 94 -81 21 -240 19 -333 -5z"/>
</g>
</svg>
