<?xml version="1.0" standalone="no"?>
<!DOCTYPE svg PUBLIC "-//W3C//DTD SVG 20010904//EN"
 "http://www.w3.org/TR/2001/REC-SVG-20010904/DTD/svg10.dtd">
<svg version="1.0" xmlns="http://www.w3.org/2000/svg"
 width="517.000000pt" height="572.000000pt" viewBox="0 0 517.000000 572.000000"
 preserveAspectRatio="xMidYMid meet">
<metadata>
Created by potrace 1.16, written by Peter Selinger 2001-2019
</metadata>
<g transform="translate(0.000000,572.000000) scale(0.100000,-0.100000)"
fill="#000000" stroke="none">
<path d="M3190 5705 c-73 -21 -99 -33 -162 -77 -72 -51 -143 -143 -163 -212
-8 -28 -96 -537 -195 -1131 -100 -594 -182 -1083 -183 -1087 -1 -5 -285 268
-630 606 -353 345 -644 622 -664 631 -166 79 -429 -49 -534 -261 -44 -88 -56
-174 -36 -244 9 -30 29 -69 44 -87 16 -19 350 -227 803 -503 426 -259 776
-474 778 -478 1 -4 -388 -189 -865 -411 -1235 -576 -1183 -551 -1248 -612
-111 -105 -158 -255 -120 -385 13 -46 28 -70 68 -111 92 -91 220 -107 349 -45
35 17 472 300 973 630 501 330 911 599 912 598 1 -1 -163 -497 -364 -1101
-340 -1021 -367 -1105 -367 -1170 0 -84 22 -135 84 -188 112 -96 304 -86 460
24 74 52 145 143 165 213 8 28 96 537 195 1131 100 594 182 1083 183 1087 1 5
285 -268 630 -606 353 -345 644 -622 664 -631 166 -79 429 49 534 261 44 88
56 174 36 244 -9 30 -29 69 -44 87 -16 19 -350 227 -803 503 -426 259 -776
474 -778 478 -1 4 388 189 865 411 1235 576 1183 551 1248 612 111 105 158
255 120 385 -13 46 -28 70 -68 111 -92 91 -220 107 -349 45 -35 -17 -472 -300
-973 -630 -500 -330 -911 -599 -912 -598 -1 1 163 497 364 1101 340 1021 367
1105 367 1170 0 84 -22 135 -84 187 -72 63 -193 84 -300 53z"/>
</g>
</svg>
