<?xml version="1.0" standalone="no"?>
<!DOCTYPE svg PUBLIC "-//W3C//DTD SVG 20010904//EN"
 "http://www.w3.org/TR/2001/REC-SVG-20010904/DTD/svg10.dtd">
<svg version="1.0" xmlns="http://www.w3.org/2000/svg"
 width="590.000000pt" height="1260.000000pt" viewBox="0 0 590.000000 1260.000000"
 preserveAspectRatio="xMidYMid meet">
<metadata>
Created by potrace 1.16, written by Peter Selinger 2001-2019
</metadata>
<g transform="translate(0.000000,1260.000000) scale(0.100000,-0.100000)"
fill="#000000" stroke="none">
<path d="M4276 12590 c-409 -51 -839 -243 -1206 -536 -117 -94 -349 -328 -450
-454 -434 -543 -670 -1195 -670 -1850 0 -510 146 -985 423 -1377 l66 -92 -97
-60 c-357 -219 -695 -560 -938 -943 -95 -150 -246 -462 -299 -618 -59 -173
-109 -377 -137 -555 -29 -188 -32 -561 -5 -735 42 -269 109 -485 222 -717 123
-250 258 -436 461 -633 176 -171 331 -281 591 -418 388 -206 605 -383 761
-621 175 -266 198 -545 75 -926 -242 -756 -774 -1362 -1320 -1505 -368 -96
-715 -9 -920 231 -91 107 -171 283 -189 415 l-6 51 31 6 c56 11 177 77 240
130 121 102 194 231 227 401 15 76 16 99 5 160 -29 170 -119 277 -287 337 -92
33 -243 31 -349 -5 -245 -84 -388 -244 -455 -511 -128 -510 -6 -1017 329
-1358 342 -349 852 -481 1414 -366 334 68 716 257 1027 505 117 94 349 328
450 454 215 270 400 599 505 900 290 834 195 1686 -258 2327 l-66 92 97 60
c357 219 695 560 938 943 95 150 246 462 299 618 121 356 174 694 162 1030
-14 364 -88 662 -242 977 -123 250 -258 436 -461 633 -176 171 -331 281 -591
418 -388 206 -606 384 -761 621 -175 266 -198 545 -75 926 242 756 774 1362
1320 1505 368 96 715 9 920 -231 91 -107 171 -283 189 -415 l6 -51 -31 -6
c-56 -11 -177 -77 -240 -130 -121 -102 -194 -231 -227 -401 -15 -76 -16 -99
-5 -160 29 -170 119 -277 287 -337 92 -33 243 -31 349 5 240 82 391 248 455
501 52 207 63 497 25 683 -55 274 -171 498 -354 685 -191 195 -417 315 -710
378 -109 23 -407 34 -525 19z m-1363 -4758 c105 -75 203 -134 351 -211 481
-252 760 -532 862 -866 25 -82 28 -104 28 -250 0 -152 -2 -167 -37 -296 -155
-586 -501 -1115 -930 -1423 -125 -89 -112 -88 -209 -19 -106 76 -203 135 -352
212 -481 252 -760 532 -862 866 -25 82 -28 104 -28 250 0 152 2 167 37 296
140 529 459 1048 822 1341 83 66 215 158 228 158 5 0 46 -26 90 -58z"/>
</g>
</svg>
