<?xml version="1.0" standalone="no"?>
<!DOCTYPE svg PUBLIC "-//W3C//DTD SVG 20010904//EN"
 "http://www.w3.org/TR/2001/REC-SVG-20010904/DTD/svg10.dtd">
<svg version="1.0" xmlns="http://www.w3.org/2000/svg"
 width="778.000000pt" height="56.000000pt" viewBox="0 0 778.000000 56.000000"
 preserveAspectRatio="xMidYMid meet">
<metadata>
Created by potrace 1.16, written by Peter Selinger 2001-2019
</metadata>
<g transform="translate(0.000000,56.000000) scale(0.100000,-0.100000)"
fill="#000000" stroke="none">
<path d="M197 546 c-98 -36 -166 -111 -188 -212 -31 -136 62 -286 201 -324 22
-6 1326 -10 3682 -10 3617 0 3648 0 3700 20 58 21 123 81 154 140 26 49 26
191 0 240 -31 59 -96 119 -154 140 -52 20 -83 20 -3705 20 -3046 -1 -3658 -3
-3690 -14z"/>
</g>
</svg>
