<?xml version="1.0" standalone="no"?>
<!DOCTYPE svg PUBLIC "-//W3C//DTD SVG 20010904//EN"
 "http://www.w3.org/TR/2001/REC-SVG-20010904/DTD/svg10.dtd">
<svg version="1.0" xmlns="http://www.w3.org/2000/svg"
 width="1174.000000pt" height="1007.000000pt" viewBox="0 0 1174.000000 1007.000000"
 preserveAspectRatio="xMidYMid meet">
<metadata>
Created by potrace 1.16, written by Peter Selinger 2001-2019
</metadata>
<g transform="translate(0.000000,1007.000000) scale(0.100000,-0.100000)"
fill="#000000" stroke="none">
<path d="M8105 10059 c-619 -47 -1291 -250 -1915 -576 -1773 -928 -3136 -2769
-3519 -4753 -66 -341 -91 -582 -98 -935 -8 -400 14 -667 83 -1013 71 -355 168
-641 329 -967 177 -359 356 -609 634 -885 511 -509 1137 -806 1906 -906 167
-21 505 -29 680 -15 702 57 1401 335 2050 816 369 273 750 655 1040 1040 380
506 673 1092 831 1664 39 143 42 183 14 229 -32 53 -69 62 -242 62 -210 0
-228 -11 -268 -170 -58 -229 -179 -553 -304 -815 -418 -871 -1115 -1618 -1868
-2001 -535 -272 -1070 -365 -1621 -284 -811 120 -1449 619 -1745 1365 -301
759 -283 1731 58 3094 342 1367 803 2323 1492 3096 491 551 1110 984 1750
1224 542 203 1117 270 1548 181 581 -121 1009 -538 1233 -1202 184 -544 225
-1247 116 -1981 -19 -134 -19 -139 -2 -175 10 -20 33 -47 52 -59 32 -21 45
-23 188 -23 174 0 211 9 242 60 11 19 217 822 492 1924 l473 1891 -20 40 c-30
62 -73 85 -158 85 -52 0 -79 -5 -102 -19 -17 -11 -246 -255 -509 -543 -584
-640 -524 -578 -538 -555 -134 213 -244 353 -393 497 -181 176 -336 284 -569
396 -230 111 -516 189 -785 213 -129 12 -403 12 -555 0z"/>
<path d="M1520 9745 c-758 -114 -1403 -750 -1510 -1490 -33 -235 10 -504 115
-709 304 -595 1063 -779 1763 -427 531 267 912 778 992 1326 33 235 -10 504
-115 709 -223 437 -714 671 -1245 591z m430 -582 c228 -78 354 -242 376 -489
39 -425 -337 -936 -814 -1108 -136 -49 -207 -61 -352 -61 -124 1 -142 3 -220
31 -150 53 -250 136 -313 259 -150 296 -35 718 283 1035 175 175 390 297 608
345 109 23 112 24 232 21 97 -3 129 -8 200 -33z"/>
</g>
</svg>
