<?xml version="1.0" standalone="no"?>
<!DOCTYPE svg PUBLIC "-//W3C//DTD SVG 20010904//EN"
 "http://www.w3.org/TR/2001/REC-SVG-20010904/DTD/svg10.dtd">
<svg version="1.0" xmlns="http://www.w3.org/2000/svg"
 width="1163.000000pt" height="982.000000pt" viewBox="0 0 1163.000000 982.000000"
 preserveAspectRatio="xMidYMid meet">
<metadata>
Created by potrace 1.16, written by Peter Selinger 2001-2019
</metadata>
<g transform="translate(0.000000,982.000000) scale(0.100000,-0.100000)"
fill="#000000" stroke="none">
<path d="M6539 9799 c-41 -24 -73 -75 -82 -129 -82 -495 -329 -1721 -493
-2450 -382 -1697 -1072 -4292 -1764 -6641 -134 -454 -135 -458 -83 -520 50
-59 53 -59 509 -59 407 0 417 0 455 22 23 13 46 37 58 62 12 24 52 198 97 416
427 2111 1061 4826 1520 6510 207 759 436 1537 669 2274 124 392 128 411 87
465 -10 14 -31 34 -46 45 -27 20 -41 21 -459 23 -425 3 -433 3 -468 -18z"/>
<path d="M2966 7880 c-399 -50 -845 -231 -1216 -493 -455 -322 -879 -794
-1176 -1312 -250 -436 -434 -946 -518 -1435 -41 -235 -50 -351 -50 -605 0
-258 13 -390 60 -604 58 -271 199 -602 338 -796 448 -623 1186 -853 1957 -609
718 228 1403 813 1887 1614 315 521 526 1124 609 1740 22 170 25 643 5 790
-52 366 -163 696 -320 948 -166 267 -394 478 -657 607 -232 114 -402 154 -670
160 -99 2 -211 0 -249 -5z m284 -805 c864 -116 1163 -902 830 -2181 -176 -678
-456 -1196 -860 -1593 -248 -244 -559 -422 -891 -510 -571 -152 -1096 -8
-1348 369 -249 373 -266 966 -51 1785 177 674 427 1162 788 1536 186 193 342
309 567 419 318 157 653 218 965 175z"/>
<path d="M9620 7875 c-196 -28 -362 -73 -555 -152 -750 -306 -1449 -1006
-1875 -1878 -223 -456 -360 -908 -427 -1405 -22 -170 -25 -643 -5 -790 52
-366 163 -696 320 -948 166 -267 394 -478 657 -607 217 -106 398 -152 640
-162 874 -34 1853 573 2510 1557 127 191 195 309 297 515 218 444 364 941 420
1430 18 164 15 562 -5 714 -42 300 -117 549 -239 791 -149 297 -345 521 -603
689 -319 209 -742 301 -1135 246z m275 -795 c321 -37 588 -187 744 -420 249
-373 266 -966 51 -1785 -177 -674 -427 -1162 -788 -1536 -186 -193 -342 -309
-567 -419 -386 -190 -804 -239 -1159 -135 -717 209 -942 966 -636 2141 176
678 456 1196 860 1593 408 402 986 618 1495 561z"/>
</g>
</svg>
