<?xml version="1.0" standalone="no"?>
<!DOCTYPE svg PUBLIC "-//W3C//DTD SVG 20010904//EN"
 "http://www.w3.org/TR/2001/REC-SVG-20010904/DTD/svg10.dtd">
<svg version="1.0" xmlns="http://www.w3.org/2000/svg"
 width="627.000000pt" height="1338.000000pt" viewBox="0 0 627.000000 1338.000000"
 preserveAspectRatio="xMidYMid meet">
<metadata>
Created by potrace 1.16, written by Peter Selinger 2001-2019
</metadata>
<g transform="translate(0.000000,1338.000000) scale(0.100000,-0.100000)"
fill="#000000" stroke="none">
<path d="M5549 13360 c-20 -11 -55 -41 -78 -67 -73 -84 -261 -251 -396 -353
-369 -278 -779 -471 -1229 -580 -170 -42 -352 -68 -556 -80 -231 -14 -235 -15
-274 -54 -30 -31 -37 -51 -81 -225 -53 -213 -53 -239 -4 -296 44 -50 87 -59
254 -50 372 18 738 93 1078 222 65 25 121 43 123 40 9 -8 -903 -3632 -925
-3679 -30 -63 -94 -134 -143 -159 -95 -49 -300 -70 -753 -78 -481 -8 -453 7
-524 -275 -22 -91 -41 -183 -41 -204 0 -48 32 -98 80 -126 35 -21 38 -21 1770
-21 1651 0 1737 1 1768 18 50 27 66 64 116 264 40 159 45 190 36 223 -13 47
-63 98 -110 109 -19 5 -192 12 -385 14 -442 7 -630 30 -657 81 -30 56 -21 96
611 2623 342 1366 621 2502 621 2524 0 54 -31 104 -81 129 -52 27 -169 27
-220 0z m-424 -5969 c83 -4 -507 -7 -1310 -7 -803 0 -1428 2 -1390 3 424 21
2290 24 2700 4z"/>
<path d="M993 6810 c-130 -26 -233 -147 -233 -275 0 -100 70 -207 165 -251
l50 -24 2538 0 c2222 0 2542 2 2573 15 58 24 108 70 140 127 25 46 29 63 29
133 0 70 -4 87 -29 133 -32 57 -81 102 -143 130 -36 16 -188 17 -2543 18
-1378 1 -2524 -2 -2547 -6z"/>
<path d="M4136 6014 c-32 -8 -86 -27 -121 -44 l-62 -30 -62 26 c-238 96 -549
2 -712 -216 -60 -79 -93 -150 -128 -275 -124 -432 -352 -787 -725 -1127 -500
-455 -1199 -824 -2075 -1094 -108 -33 -183 -62 -197 -75 -13 -12 -31 -42 -40
-66 -25 -64 -10 -100 102 -250 99 -134 144 -173 201 -173 18 0 130 29 248 65
119 36 231 65 248 65 48 0 133 -23 327 -85 286 -92 351 -105 610 -115 124 -5
293 -17 375 -25 223 -23 743 -102 758 -115 4 -4 -103 -450 -239 -991 l-246
-984 5 -96 c3 -81 9 -107 35 -163 115 -245 430 -317 722 -165 132 68 249 199
300 336 11 30 127 481 257 1002 130 520 239 949 242 953 3 3 69 12 146 18 646
51 950 82 986 100 51 27 79 75 79 138 0 49 -4 56 -105 191 -57 77 -117 148
-132 158 -25 16 -50 18 -274 14 -135 -1 -313 0 -396 4 l-150 7 309 1234 c169
679 312 1265 318 1302 31 223 -99 420 -315 477 -73 18 -210 18 -289 -1z m-963
-2411 c-68 -274 -126 -499 -128 -502 -2 -2 -120 15 -262 38 -293 46 -526 77
-658 86 -49 3 -116 8 -148 11 l-59 6 249 123 c434 216 752 418 1043 664 46 39
85 71 86 71 1 0 -54 -224 -123 -497z"/>
</g>
</svg>
