<?xml version="1.0" standalone="no"?>
<!DOCTYPE svg PUBLIC "-//W3C//DTD SVG 20010904//EN"
 "http://www.w3.org/TR/2001/REC-SVG-20010904/DTD/svg10.dtd">
<svg version="1.0" xmlns="http://www.w3.org/2000/svg"
 width="723.000000pt" height="1180.000000pt" viewBox="0 0 723.000000 1180.000000"
 preserveAspectRatio="xMidYMid meet">
<metadata>
Created by potrace 1.16, written by Peter Selinger 2001-2019
</metadata>
<g transform="translate(0.000000,1180.000000) scale(0.100000,-0.100000)"
fill="#000000" stroke="none">
<path d="M3600 11793 c-96 -7 -301 -36 -415 -59 -841 -170 -1642 -650 -2252
-1351 -643 -738 -1002 -1705 -922 -2484 27 -274 95 -512 214 -754 238 -487
626 -861 1183 -1139 383 -191 747 -290 1338 -362 l41 -5 -636 -2547 -637
-2547 -445 -5 c-431 -5 -445 -6 -484 -27 -87 -46 -155 -153 -155 -243 0 -90
68 -197 155 -243 l40 -22 1790 0 1790 0 49 25 c194 99 194 381 0 480 l-49 25
-373 3 c-346 3 -373 4 -368 20 3 9 602 2404 1331 5322 729 2918 1330 5322
1336 5342 l10 37 442 3 c431 3 443 4 482 25 87 46 155 153 155 243 0 90 -68
197 -155 243 l-40 22 -1690 1 c-929 0 -1710 -1 -1735 -3z m1980 -540 c0 -5
-603 -2415 -1338 -5358 l-1338 -5350 -418 -3 c-395 -2 -417 -1 -412 15 3 10
602 2405 1331 5323 729 2918 1330 5322 1336 5343 l10 37 414 0 c228 0 415 -3
415 -7z"/>
</g>
</svg>
