<?xml version="1.0" standalone="no"?>
<!DOCTYPE svg PUBLIC "-//W3C//DTD SVG 20010904//EN"
 "http://www.w3.org/TR/2001/REC-SVG-20010904/DTD/svg10.dtd">
<svg version="1.0" xmlns="http://www.w3.org/2000/svg"
 width="633.000000pt" height="1210.000000pt" viewBox="0 0 633.000000 1210.000000"
 preserveAspectRatio="xMidYMid meet">
<metadata>
Created by potrace 1.16, written by Peter Selinger 2001-2019
</metadata>
<g transform="translate(0.000000,1210.000000) scale(0.100000,-0.100000)"
fill="#000000" stroke="none">
<path d="M5039 12084 c-417 -75 -862 -412 -1098 -831 -128 -230 -259 -594
-366 -1025 -61 -245 -173 -792 -306 -1495 l-54 -283 -553 0 c-607 0 -599 1
-642 -59 -27 -38 -73 -227 -65 -268 6 -35 44 -86 79 -106 15 -9 160 -13 557
-17 l535 -5 -377 -1960 c-597 -3096 -704 -3617 -955 -4619 -96 -385 -125 -479
-194 -623 -101 -213 -216 -351 -345 -414 -67 -33 -74 -34 -180 -33 -67 0 -136
7 -175 17 -88 23 -215 88 -270 139 l-45 42 70 21 c177 54 341 184 417 330 125
241 109 488 -42 629 -182 170 -490 166 -735 -9 -162 -115 -260 -300 -285 -541
-37 -352 148 -673 485 -842 253 -126 592 -166 830 -98 325 93 629 349 904 761
286 426 512 1024 750 1981 154 616 235 1013 732 3597 l313 1627 659 0 c723 0
703 -2 747 59 27 38 73 227 65 268 -3 18 -17 46 -32 63 -52 63 -21 60 -718 60
l-635 0 5 23 c3 12 57 292 121 622 218 1139 319 1626 404 1960 61 240 78 284
152 397 116 177 264 294 387 305 77 7 209 -12 304 -43 75 -25 202 -100 240
-142 17 -18 15 -19 -45 -36 -229 -64 -414 -249 -477 -476 -57 -203 -22 -371
99 -484 182 -170 490 -166 735 9 88 63 149 135 200 240 63 126 77 187 82 351
4 121 2 153 -16 225 -92 365 -410 616 -864 683 -126 19 -295 19 -398 0z"/>
</g>
</svg>
