<?xml version="1.0" standalone="no"?>
<!DOCTYPE svg PUBLIC "-//W3C//DTD SVG 20010904//EN"
 "http://www.w3.org/TR/2001/REC-SVG-20010904/DTD/svg10.dtd">
<svg version="1.0" xmlns="http://www.w3.org/2000/svg"
 width="420.000000pt" height="356.000000pt" viewBox="0 0 420.000000 356.000000"
 preserveAspectRatio="xMidYMid meet">
<metadata>
Created by potrace 1.16, written by Peter Selinger 2001-2019
</metadata>
<g transform="translate(0.000000,356.000000) scale(0.100000,-0.100000)"
fill="#000000" stroke="none">
<path d="M915 3545 c-78 -28 -84 -41 -170 -383 -84 -339 -86 -356 -38 -413 53
-63 -53 -59 1659 -59 l1566 0 38 21 c21 12 47 38 58 58 10 20 52 169 92 331
82 330 83 349 26 406 -17 17 -50 37 -71 43 -28 8 -492 11 -1580 11 -1301 -1
-1546 -3 -1580 -15z"/>
<path d="M247 855 c-46 -16 -81 -47 -96 -83 -20 -50 -151 -591 -151 -623 0
-45 36 -103 80 -128 l38 -21 1566 0 c1301 0 1572 2 1599 14 69 28 78 51 162
386 71 285 77 315 66 350 -15 50 -61 96 -109 110 -25 6 -550 10 -1577 10
-1278 -1 -1547 -3 -1578 -15z"/>
</g>
</svg>
