<?xml version="1.0" standalone="no"?>
<!DOCTYPE svg PUBLIC "-//W3C//DTD SVG 20010904//EN"
 "http://www.w3.org/TR/2001/REC-SVG-20010904/DTD/svg10.dtd">
<svg version="1.0" xmlns="http://www.w3.org/2000/svg"
 width="893.000000pt" height="1070.000000pt" viewBox="0 0 893.000000 1070.000000"
 preserveAspectRatio="xMidYMid meet">
<metadata>
Created by potrace 1.16, written by Peter Selinger 2001-2019
</metadata>
<g transform="translate(0.000000,1070.000000) scale(0.100000,-0.100000)"
fill="#000000" stroke="none">
<path d="M6685 10681 c-62 -38 -66 -48 -171 -464 l-101 -402 -2059 -5 c-1946
-5 -2061 -6 -2087 -23 -41 -27 -57 -58 -84 -164 -28 -109 -26 -156 6 -201 39
-55 69 -62 278 -62 350 0 650 -27 760 -68 63 -23 78 -61 69 -176 -8 -96 -1850
-7475 -1896 -7594 -58 -151 -128 -225 -246 -262 -139 -43 -449 -70 -802 -70
-211 0 -228 -4 -274 -59 -37 -43 -82 -229 -68 -280 10 -37 46 -79 87 -100 16
-8 566 -11 2032 -11 1369 0 2011 -3 2011 -10 0 -6 -32 -137 -70 -291 -76 -304
-78 -326 -33 -380 43 -50 71 -59 190 -59 122 0 164 14 198 65 12 19 52 162
100 353 l80 322 157 0 c725 0 1423 227 2057 668 323 225 658 559 873 872 182
264 315 539 394 815 260 899 -108 1741 -939 2148 -205 101 -443 175 -677 212
-158 24 -164 26 -110 37 1195 245 2218 1067 2485 1998 46 159 65 281 72 450
25 612 -260 1145 -802 1500 -284 185 -723 327 -1100 355 -44 3 -94 8 -111 11
l-31 4 88 353 c49 193 89 370 89 393 0 51 -32 102 -80 126 -52 26 -243 26
-285 -1z m-389 -1338 c-3 -10 -213 -849 -467 -1865 l-461 -1848 -939 0 c-517
0 -939 2 -939 5 0 15 844 3381 862 3435 33 104 87 199 127 225 92 60 128 62
1034 64 747 1 788 0 783 -16z m594 -19 c387 -104 665 -403 775 -834 35 -140
47 -247 47 -420 -2 -514 -198 -1037 -558 -1490 -87 -109 -305 -327 -414 -414
-178 -142 -385 -268 -585 -356 -119 -52 -295 -114 -303 -106 -4 5 895 3620
905 3639 5 9 54 2 133 -19z m-1610 -4039 c0 -3 -230 -925 -511 -2050 l-511
-2045 -812 0 c-774 1 -925 5 -987 31 -34 14 -42 49 -29 142 5 40 226 939 491
2000 l481 1927 939 0 c517 0 939 -2 939 -5z m698 -21 c334 -60 617 -284 787
-622 62 -125 120 -303 147 -453 19 -105 23 -160 23 -354 0 -241 -8 -321 -51
-535 -85 -413 -274 -813 -550 -1160 -105 -132 -355 -375 -491 -477 -333 -250
-725 -419 -1067 -459 -54 -7 -58 -6 -53 12 4 10 234 932 513 2048 l507 2028
76 -6 c42 -4 113 -14 159 -22z"/>
</g>
</svg>
