<?xml version="1.0" standalone="no"?>
<!DOCTYPE svg PUBLIC "-//W3C//DTD SVG 20010904//EN"
 "http://www.w3.org/TR/2001/REC-SVG-20010904/DTD/svg10.dtd">
<svg version="1.0" xmlns="http://www.w3.org/2000/svg"
 width="675.000000pt" height="1384.000000pt" viewBox="0 0 675.000000 1384.000000"
 preserveAspectRatio="xMidYMid meet">
<metadata>
Created by potrace 1.16, written by Peter Selinger 2001-2019
</metadata>
<g transform="translate(0.000000,1384.000000) scale(0.100000,-0.100000)"
fill="#000000" stroke="none">
<path d="M3468 13820 c-53 -28 -71 -67 -114 -241 l-38 -156 25 -48 c47 -96 7
-90 610 -93 497 -2 530 -4 525 -20 -3 -9 -714 -2854 -1581 -6322 -867 -3468
-1580 -6322 -1586 -6342 l-10 -38 -555 0 c-532 0 -556 -1 -593 -20 -56 -28
-74 -65 -117 -241 l-38 -156 25 -48 c13 -27 37 -58 52 -69 28 -21 33 -21 1593
-24 1542 -2 1565 -2 1603 18 22 10 48 34 59 52 11 20 699 2751 1718 6829
l1698 6795 -24 49 c-14 27 -38 58 -53 69 -28 21 -33 21 -1595 23 -1532 2
-1568 2 -1604 -17z m2598 -557 c-3 -10 -714 -2855 -1581 -6323 -867 -3468
-1580 -6322 -1586 -6342 l-10 -38 -510 0 c-481 0 -510 1 -505 18 3 9 714 2854
1581 6322 867 3468 1580 6322 1586 6343 l10 37 510 0 c481 0 510 -1 505 -17z"/>
</g>
</svg>
