<?xml version="1.0" standalone="no"?>
<!DOCTYPE svg PUBLIC "-//W3C//DTD SVG 20010904//EN"
 "http://www.w3.org/TR/2001/REC-SVG-20010904/DTD/svg10.dtd">
<svg version="1.0" xmlns="http://www.w3.org/2000/svg"
 width="440.000000pt" height="1225.000000pt" viewBox="0 0 440.000000 1225.000000"
 preserveAspectRatio="xMidYMid meet">
<metadata>
Created by potrace 1.16, written by Peter Selinger 2001-2019
</metadata>
<g transform="translate(0.000000,1225.000000) scale(0.100000,-0.100000)"
fill="#000000" stroke="none">
<path d="M3100 12235 c-148 -41 -286 -151 -348 -276 -67 -139 -166 -628 -236
-1169 -14 -107 -46 -377 -71 -600 -73 -644 -116 -946 -181 -1265 -20 -93 -37
-171 -38 -173 -2 -1 -50 4 -106 13 -123 18 -272 55 -517 129 -340 102 -496
134 -698 143 -104 4 -143 2 -195 -12 -96 -25 -177 -72 -250 -145 -112 -112
-166 -246 -158 -395 5 -96 29 -155 89 -220 84 -92 181 -121 368 -112 183 9
369 44 791 150 356 90 574 136 587 123 8 -8 -85 -276 -169 -486 -38 -96 -142
-344 -230 -550 -299 -698 -365 -888 -497 -1415 -444 -1779 -860 -3725 -1197
-5596 l-48 -266 20 -38 c32 -62 69 -75 212 -75 127 0 159 8 194 46 33 38 502
1542 822 2639 310 1063 617 2191 881 3242 120 481 155 697 195 1238 57 769 78
960 131 1223 l11 53 46 -6 c110 -15 263 -49 407 -90 85 -25 224 -65 308 -89
321 -93 586 -127 739 -95 248 51 443 304 426 551 -10 134 -94 251 -217 300
-50 21 -72 23 -211 22 -204 -1 -318 -21 -788 -140 -354 -89 -587 -139 -617
-132 -29 7 158 560 422 1243 320 828 466 1240 570 1610 42 153 47 181 48 275
0 95 -3 110 -28 162 -35 72 -110 140 -185 169 -74 28 -205 35 -282 14z"/>
</g>
</svg>
