<?xml version="1.0" standalone="no"?>
<!DOCTYPE svg PUBLIC "-//W3C//DTD SVG 20010904//EN"
 "http://www.w3.org/TR/2001/REC-SVG-20010904/DTD/svg10.dtd">
<svg version="1.0" xmlns="http://www.w3.org/2000/svg"
 width="769.000000pt" height="1115.000000pt" viewBox="0 0 769.000000 1115.000000"
 preserveAspectRatio="xMidYMid meet">
<metadata>
Created by potrace 1.16, written by Peter Selinger 2001-2019
</metadata>
<g transform="translate(0.000000,1115.000000) scale(0.100000,-0.100000)"
fill="#000000" stroke="none">
<path d="M4235 11136 c-68 -29 -76 -51 -166 -409 l-83 -336 -36 -6 c-64 -12
-413 -132 -550 -190 -1106 -467 -1931 -1339 -2170 -2295 -222 -889 105 -1714
880 -2223 128 -84 359 -200 500 -251 58 -21 109 -42 113 -46 7 -7 -984 -3995
-997 -4007 -3 -3 -52 11 -108 32 -476 174 -783 464 -913 861 -31 95 -65 284
-65 364 l0 59 48 6 c155 21 329 94 439 185 179 146 293 384 293 610 0 155 -42
264 -139 360 -100 100 -235 150 -406 150 -309 0 -596 -188 -726 -476 -35 -77
-80 -252 -108 -419 -139 -826 84 -1502 641 -1942 198 -157 502 -309 778 -389
52 -15 99 -31 103 -34 4 -4 -24 -136 -64 -293 -78 -312 -79 -331 -32 -388 45
-53 72 -59 279 -59 171 0 189 2 224 21 20 11 45 35 55 52 10 17 48 150 85 296
l66 266 100 -5 c147 -7 590 -6 660 2 l61 7 -59 -239 c-66 -262 -67 -285 -21
-341 45 -53 72 -59 279 -59 172 0 189 2 225 22 23 13 46 37 59 62 11 23 52
169 91 326 38 157 74 301 79 320 9 35 11 36 132 74 276 85 657 255 908 406
161 97 355 231 502 348 161 127 500 464 622 617 380 477 617 995 702 1536 26
160 26 540 1 690 -130 780 -624 1385 -1384 1699 -65 27 -119 55 -120 62 -2 7
201 828 451 1823 413 1650 454 1810 472 1807 10 -2 69 -19 129 -39 550 -179
880 -514 959 -972 23 -136 27 -126 -57 -140 -278 -45 -507 -215 -621 -463
-104 -225 -102 -456 5 -617 48 -72 90 -109 179 -155 100 -52 189 -70 318 -63
195 10 366 84 511 223 168 160 235 320 296 711 22 137 30 425 16 552 -88 806
-619 1345 -1557 1581 l-42 10 69 273 c38 149 69 287 69 306 0 47 -35 105 -80
130 -35 19 -53 21 -224 21 -292 0 -278 14 -372 -364 -56 -224 -72 -275 -84
-271 -27 11 -564 17 -680 7 -63 -5 -117 -7 -119 -6 -2 2 22 105 53 229 31 123
56 239 56 256 0 45 -36 103 -80 128 -35 19 -52 21 -226 21 -134 -1 -198 -5
-219 -14z m1071 -1239 c5 -5 -881 -3555 -889 -3564 -9 -8 -749 210 -754 223
-2 6 182 755 410 1664 l413 1654 29 8 c70 17 278 26 524 23 145 -2 265 -6 267
-8z m-1861 -1668 c-205 -819 -375 -1493 -378 -1496 -11 -10 -260 117 -357 182
-182 121 -330 270 -427 431 -205 340 -198 765 18 1184 208 402 624 779 1137
1031 105 52 354 158 373 159 4 0 -161 -671 -366 -1491z m300 -3144 c182 -53
332 -98 334 -101 2 -2 -205 -838 -460 -1858 l-463 -1854 -116 -14 c-120 -14
-633 -18 -681 -5 l-27 7 485 1937 c266 1066 488 1955 494 1975 l9 37 48 -14
c26 -7 196 -57 377 -110z m1077 -367 c399 -227 653 -563 724 -959 21 -113 23
-340 5 -454 -95 -603 -516 -1170 -1176 -1583 -174 -110 -554 -291 -543 -259 3
6 191 758 419 1670 l414 1658 25 -6 c14 -3 73 -33 132 -67z"/>
</g>
</svg>
