<?xml version="1.0" standalone="no"?>
<!DOCTYPE svg PUBLIC "-//W3C//DTD SVG 20010904//EN"
 "http://www.w3.org/TR/2001/REC-SVG-20010904/DTD/svg10.dtd">
<svg version="1.0" xmlns="http://www.w3.org/2000/svg"
 width="451.000000pt" height="1384.000000pt" viewBox="0 0 451.000000 1384.000000"
 preserveAspectRatio="xMidYMid meet">
<metadata>
Created by potrace 1.16, written by Peter Selinger 2001-2019
</metadata>
<g transform="translate(0.000000,1384.000000) scale(0.100000,-0.100000)"
fill="#000000" stroke="none">
<path d="M4140 13831 c-49 -15 -86 -40 -126 -83 -59 -64 -3990 -6712 -4003
-6769 -8 -37 46 -653 298 -3400 277 -3015 311 -3360 330 -3404 32 -72 62 -107
121 -139 127 -69 289 -31 368 89 62 93 81 -167 -252 3440 l-303 3290 1950
3295 c1499 2532 1954 3308 1965 3351 43 170 -98 341 -278 338 -25 0 -56 -4
-70 -8z"/>
</g>
</svg>
