<?xml version="1.0" standalone="no"?>
<!DOCTYPE svg PUBLIC "-//W3C//DTD SVG 20010904//EN"
 "http://www.w3.org/TR/2001/REC-SVG-20010904/DTD/svg10.dtd">
<svg version="1.0" xmlns="http://www.w3.org/2000/svg"
 width="913.000000pt" height="976.000000pt" viewBox="0 0 913.000000 976.000000"
 preserveAspectRatio="xMidYMid meet">
<metadata>
Created by potrace 1.16, written by Peter Selinger 2001-2019
</metadata>
<g transform="translate(0.000000,976.000000) scale(0.100000,-0.100000)"
fill="#000000" stroke="none">
<path d="M5652 9750 c-1033 -81 -2046 -495 -2882 -1177 -174 -142 -425 -384
-569 -549 -456 -521 -766 -1086 -916 -1669 -76 -296 -104 -509 -112 -835 -8
-360 15 -623 88 -984 71 -354 163 -676 393 -1371 278 -844 372 -1200 426
-1618 16 -123 39 -427 40 -510 0 -18 -20 -19 -562 -14 -570 5 -672 11 -787 46
-55 17 -56 18 -63 61 -12 74 -10 557 3 841 l12 266 -23 40 c-41 75 -70 83
-283 83 -107 0 -198 -5 -214 -11 -39 -14 -81 -57 -92 -93 -6 -17 -33 -503 -62
-1080 l-52 -1049 22 -42 c13 -25 37 -51 60 -63 l39 -22 1135 0 c778 0 1145 3
1164 11 46 17 83 60 98 114 68 234 143 717 177 1130 17 207 17 1067 0 1345 -7
113 -26 417 -42 675 -67 1069 -73 1528 -24 2045 90 966 356 1778 799 2440 136
203 249 344 415 514 292 301 565 502 921 680 797 399 1640 391 2214 -19 118
-84 274 -239 358 -356 74 -104 182 -313 221 -430 85 -253 111 -436 111 -779
-1 -341 -34 -609 -120 -966 -187 -777 -507 -1504 -1220 -2774 -601 -1071 -618
-1102 -797 -1445 -269 -516 -478 -982 -623 -1394 -90 -253 -185 -583 -185
-640 0 -47 36 -105 80 -130 l38 -21 1136 0 c1224 0 1174 -2 1222 51 12 13 234
495 493 1072 341 758 471 1057 471 1083 0 50 -35 107 -80 133 -35 19 -53 21
-224 21 -200 0 -232 -6 -272 -51 -12 -13 -66 -121 -119 -239 -198 -438 -370
-782 -449 -895 -44 -63 -67 -79 -150 -102 -140 -38 -251 -45 -779 -50 l-518
-5 32 58 c338 611 626 1007 1504 2063 548 660 795 973 1027 1301 581 821 905
1576 979 2279 7 69 10 204 6 359 -4 206 -9 271 -30 392 -76 428 -231 791 -480
1123 -110 147 -351 392 -492 498 -471 358 -1005 564 -1665 644 -159 19 -629
28 -798 15z"/>
</g>
</svg>
