<?xml version="1.0" standalone="no"?>
<!DOCTYPE svg PUBLIC "-//W3C//DTD SVG 20010904//EN"
 "http://www.w3.org/TR/2001/REC-SVG-20010904/DTD/svg10.dtd">
<svg version="1.0" xmlns="http://www.w3.org/2000/svg"
 width="1082.000000pt" height="937.000000pt" viewBox="0 0 1082.000000 937.000000"
 preserveAspectRatio="xMidYMid meet">
<metadata>
Created by potrace 1.16, written by Peter Selinger 2001-2019
</metadata>
<g transform="translate(0.000000,937.000000) scale(0.100000,-0.100000)"
fill="#000000" stroke="none">
<path d="M8005 9355 c-129 -29 -230 -80 -349 -176 -290 -233 -670 -800 -897
-1340 -121 -287 -159 -430 -705 -2614 -290 -1160 -530 -2113 -533 -2117 -3 -4
-181 1342 -395 2990 -214 1648 -393 3008 -398 3022 -5 14 -19 36 -31 48 -51
55 5 52 -1109 52 -964 0 -1035 -1 -1067 -18 -51 -25 -69 -57 -98 -168 -28
-110 -26 -157 6 -202 40 -56 57 -59 406 -65 339 -7 545 -24 670 -56 42 -11 78
-21 80 -23 2 -2 -376 -1520 -839 -3373 -882 -3524 -895 -3575 -1025 -3884
-129 -307 -285 -565 -446 -739 -76 -82 -128 -120 -77 -56 103 130 162 290 170
460 3 86 1 124 -13 170 -53 183 -195 319 -385 365 -75 19 -249 16 -335 -5 -38
-9 -116 -39 -172 -66 -155 -76 -295 -216 -376 -377 -80 -157 -109 -396 -69
-564 40 -164 102 -270 231 -391 224 -211 598 -286 882 -177 409 157 888 810
1173 1602 25 70 70 212 100 315 29 103 368 1446 752 2984 384 1538 700 2796
701 2794 1 -1 221 -1687 488 -3746 371 -2859 490 -3751 503 -3774 37 -63 59
-71 215 -74 135 -3 144 -2 176 20 19 13 42 34 52 48 11 16 351 1356 898 3546
484 1937 901 3589 926 3670 51 162 147 412 219 566 93 202 262 479 385 631 62
76 92 104 52 48 -37 -52 -90 -174 -111 -255 -27 -108 -27 -260 0 -349 74 -240
329 -385 614 -349 205 26 364 108 509 262 89 94 163 230 199 365 31 119 31
321 0 429 -60 208 -210 390 -402 486 -165 84 -416 121 -575 85z"/>
<path d="M9825 7410 c-489 -61 -1037 -541 -1378 -1207 -253 -496 -381 -1034
-347 -1461 44 -557 301 -930 709 -1033 73 -18 104 -21 225 -16 159 5 242 24
395 88 189 79 389 217 567 394 412 408 674 937 785 1585 20 117 23 169 24 400
0 237 -2 277 -23 378 -109 537 -398 851 -807 875 -44 3 -111 1 -150 -3z m135
-360 c106 -54 170 -199 172 -385 1 -95 -43 -295 -241 -1091 -146 -585 -248
-974 -285 -1081 -33 -96 -83 -171 -176 -264 -105 -105 -197 -151 -314 -157
-69 -4 -90 -1 -134 18 -111 48 -192 188 -192 334 0 67 65 354 231 1021 141
565 249 976 292 1116 28 88 99 214 175 305 148 180 336 253 472 184z"/>
<path d="M7283 2901 c-23 -11 -49 -31 -59 -46 -23 -35 -64 -189 -64 -240 0
-49 29 -98 72 -125 33 -20 54 -20 1502 -20 l1469 0 34 21 c43 27 57 54 89 183
l26 106 -23 47 c-18 36 -35 54 -69 71 l-44 22 -1446 0 c-1396 0 -1446 -1
-1487 -19z"/>
</g>
</svg>
