<?xml version="1.0" standalone="no"?>
<!DOCTYPE svg PUBLIC "-//W3C//DTD SVG 20010904//EN"
 "http://www.w3.org/TR/2001/REC-SVG-20010904/DTD/svg10.dtd">
<svg version="1.0" xmlns="http://www.w3.org/2000/svg"
 width="284.000000pt" height="274.000000pt" viewBox="0 0 284.000000 274.000000"
 preserveAspectRatio="xMidYMid meet">
<metadata>
Created by potrace 1.16, written by Peter Selinger 2001-2019
</metadata>
<g transform="translate(0.000000,274.000000) scale(0.100000,-0.100000)"
fill="#000000" stroke="none">
<path d="M1580 2729 c-573 -72 -1135 -481 -1406 -1022 -190 -377 -222 -767
-91 -1087 48 -116 105 -206 191 -297 212 -225 512 -336 861 -320 698 32 1385
566 1615 1256 123 368 97 714 -74 1005 -89 151 -279 314 -450 385 -188 78
-427 108 -646 80z m352 -528 c42 -11 95 -29 117 -40 164 -84 221 -253 175
-522 -23 -132 -98 -430 -140 -552 -116 -336 -298 -500 -619 -559 -108 -20
-462 -16 -550 5 -182 46 -277 130 -311 276 -29 121 -14 259 62 564 110 439
210 616 421 743 87 52 189 82 368 108 17 2 113 3 215 1 146 -3 201 -8 262 -24z"/>
</g>
</svg>
