<?xml version="1.0" standalone="no"?>
<!DOCTYPE svg PUBLIC "-//W3C//DTD SVG 20010904//EN"
 "http://www.w3.org/TR/2001/REC-SVG-20010904/DTD/svg10.dtd">
<svg version="1.0" xmlns="http://www.w3.org/2000/svg"
 width="711.000000pt" height="1171.000000pt" viewBox="0 0 711.000000 1171.000000"
 preserveAspectRatio="xMidYMid meet">
<metadata>
Created by potrace 1.16, written by Peter Selinger 2001-2019
</metadata>
<g transform="translate(0.000000,1171.000000) scale(0.100000,-0.100000)"
fill="#000000" stroke="none">
<path d="M5790 11634 c-1062 -82 -1015 -75 -1057 -152 -11 -20 -39 -115 -63
-209 -47 -191 -47 -221 -3 -274 44 -52 75 -59 250 -59 406 0 680 -46 717 -119
43 -85 30 -170 -125 -793 l-131 -528 -647 0 c-718 0 -691 2 -737 -67 -25 -38
-104 -344 -104 -404 0 -54 31 -104 81 -129 37 -19 61 -20 644 -20 333 0 605
-2 605 -5 0 -11 -501 -2011 -508 -2028 -6 -14 -20 -1 -72 69 -197 261 -465
433 -783 501 -123 27 -422 24 -577 -5 -567 -106 -1109 -411 -1596 -897 -371
-370 -650 -762 -883 -1240 -485 -992 -601 -2078 -309 -2880 236 -647 682
-1054 1299 -1186 87 -19 136 -23 304 -23 172 0 215 3 305 22 420 91 827 325
1205 694 l122 118 18 -47 c36 -98 129 -264 191 -341 239 -299 626 -467 1034
-449 277 12 487 110 701 327 294 296 506 763 724 1590 63 241 64 259 5 315
l-31 30 -222 3 c-208 2 -224 1 -255 -18 -18 -11 -39 -35 -47 -52 -8 -18 -46
-156 -85 -306 -211 -821 -398 -1220 -630 -1347 -49 -26 -65 -30 -140 -30 -72
0 -93 4 -135 25 -59 30 -107 96 -131 175 -37 130 -35 367 6 612 11 65 371
1525 801 3246 l781 3127 290 0 c316 0 333 3 380 58 19 23 37 75 74 225 l48
194 -25 48 c-45 90 -42 90 -346 93 -244 3 -265 4 -261 20 3 9 119 474 258
1033 l254 1015 -25 49 c-34 70 -65 89 -147 91 -37 2 -497 -31 -1022 -72z
m-2045 -4730 c312 -84 555 -423 658 -919 48 -230 81 -58 -316 -1647 l-354
-1418 -44 -67 c-305 -474 -698 -866 -1038 -1037 -151 -76 -342 -126 -480 -126
-338 1 -593 250 -681 665 -43 201 -39 526 11 857 62 423 345 1578 499 2038
127 377 261 668 415 900 243 365 572 642 879 740 130 42 327 48 451 14z"/>
<path d="M210 551 c-83 -26 -141 -74 -181 -151 -19 -35 -24 -61 -24 -120 1
-116 50 -196 155 -251 l45 -24 2370 0 2370 0 41 22 c92 49 147 126 160 224 14
102 -48 217 -146 273 l-55 31 -2355 2 c-1295 1 -2366 -2 -2380 -6z"/>
</g>
</svg>
