<?xml version="1.0" standalone="no"?>
<!DOCTYPE svg PUBLIC "-//W3C//DTD SVG 20010904//EN"
 "http://www.w3.org/TR/2001/REC-SVG-20010904/DTD/svg10.dtd">
<svg version="1.0" xmlns="http://www.w3.org/2000/svg"
 width="741.000000pt" height="1070.000000pt" viewBox="0 0 741.000000 1070.000000"
 preserveAspectRatio="xMidYMid meet">
<metadata>
Created by potrace 1.16, written by Peter Selinger 2001-2019
</metadata>
<g transform="translate(0.000000,1070.000000) scale(0.100000,-0.100000)"
fill="#000000" stroke="none">
<path d="M4144 10681 c-59 -36 -69 -60 -138 -338 -37 -147 -71 -284 -77 -304
-9 -36 -12 -37 -82 -54 -113 -27 -423 -130 -555 -185 -271 -111 -602 -293
-830 -455 -648 -463 -1094 -1065 -1258 -1700 -164 -636 -36 -1229 371 -1713
244 -292 619 -536 1033 -676 57 -19 106 -37 109 -40 3 -3 -223 -921 -503
-2041 -437 -1747 -511 -2035 -527 -2035 -38 0 -324 102 -430 154 -170 82 -287
165 -413 290 -195 193 -299 387 -355 659 -12 57 -23 162 -26 238 l-6 136 104
6 c260 14 470 153 580 382 56 117 72 189 67 310 -3 94 -6 108 -41 178 -44 89
-103 147 -192 187 -163 75 -338 66 -525 -26 -77 -39 -109 -62 -175 -128 -128
-129 -173 -235 -230 -541 -134 -719 29 -1330 466 -1750 52 -50 122 -112 156
-138 221 -169 549 -318 876 -398 26 -6 47 -13 47 -15 0 -3 -30 -123 -66 -267
-71 -283 -72 -304 -27 -357 43 -51 71 -60 190 -60 122 0 164 14 198 65 11 18
47 141 84 289 l64 259 66 -7 c164 -15 532 -19 689 -6 90 6 165 10 168 7 3 -2
-20 -105 -51 -228 -61 -243 -63 -267 -18 -319 43 -51 71 -60 190 -60 119 0
160 13 196 61 11 15 50 152 96 335 l77 308 50 15 c139 40 442 144 538 186 880
378 1585 1017 1961 1780 154 312 234 565 276 875 19 138 17 450 -4 587 -104
676 -519 1230 -1162 1549 -82 41 -199 92 -260 114 -60 21 -109 42 -109 47 1 4
210 843 465 1864 l463 1856 78 -19 c431 -100 782 -307 983 -580 127 -171 215
-438 215 -650 l0 -68 -83 0 c-169 0 -323 -66 -453 -195 -88 -87 -136 -164
-175 -280 -20 -58 -24 -90 -24 -190 0 -102 4 -129 24 -178 28 -70 110 -163
178 -199 221 -120 533 -60 732 142 110 111 155 205 205 431 62 278 73 644 26
863 -117 546 -442 932 -992 1178 -133 60 -363 137 -500 168 -54 12 -98 27 -98
32 0 5 27 116 60 248 33 132 60 257 60 278 0 49 -34 101 -80 124 -45 23 -236
26 -278 4 -65 -34 -73 -53 -143 -329 l-66 -262 -119 5 c-182 8 -576 6 -700 -3
l-112 -8 54 213 c60 241 64 280 31 329 -37 56 -76 69 -202 69 -90 0 -116 -3
-141 -19z m1044 -1038 c19 -3 31 -10 29 -17 -2 -6 -208 -829 -458 -1828 -250
-1000 -458 -1818 -464 -1818 -10 0 -847 241 -854 246 -7 6 842 3389 852 3395
5 4 66 12 136 18 69 6 142 13 161 15 48 6 557 -3 598 -11z m-1785 -1710 l-395
-1582 -82 30 c-319 117 -616 325 -784 548 -222 294 -279 653 -167 1046 33 117
157 366 240 480 321 445 823 798 1445 1016 74 26 136 46 137 45 1 -1 -176
-713 -394 -1583z m197 -2968 c223 -65 408 -121 412 -124 6 -5 -924 -3746 -934
-3756 -12 -12 -267 -37 -428 -42 -163 -5 -485 9 -498 22 -3 2 222 909 498
2016 480 1919 504 2011 524 2006 12 -2 203 -57 426 -122z m930 -285 c506 -209
847 -587 947 -1050 28 -131 25 -438 -5 -580 -124 -570 -543 -1114 -1159 -1503
-141 -88 -455 -244 -612 -302 -68 -25 -125 -44 -127 -43 -2 3 860 3465 871
3496 6 16 1 17 85 -18z"/>
</g>
</svg>
