<?xml version="1.0" standalone="no"?>
<!DOCTYPE svg PUBLIC "-//W3C//DTD SVG 20010904//EN"
 "http://www.w3.org/TR/2001/REC-SVG-20010904/DTD/svg10.dtd">
<svg version="1.0" xmlns="http://www.w3.org/2000/svg"
 width="561.000000pt" height="631.000000pt" viewBox="0 0 561.000000 631.000000"
 preserveAspectRatio="xMidYMid meet">
<metadata>
Created by potrace 1.16, written by Peter Selinger 2001-2019
</metadata>
<g transform="translate(0.000000,631.000000) scale(0.100000,-0.100000)"
fill="#000000" stroke="none">
<path d="M3585 6299 c-437 -53 -921 -253 -1322 -546 -563 -411 -1037 -1024
-1292 -1672 -375 -952 -339 -1858 100 -2516 96 -145 304 -355 439 -444 600
-398 1340 -401 2111 -10 332 168 600 370 899 675 306 313 503 591 700 989 187
377 298 726 357 1120 25 170 25 665 0 809 -130 741 -521 1258 -1127 1491 -93
37 -211 69 -335 92 -98 18 -420 25 -530 12z m383 -423 c248 -68 442 -278 526
-570 87 -299 71 -684 -50 -1241 -54 -250 -218 -891 -278 -1090 -228 -752 -546
-1238 -1009 -1539 -274 -179 -571 -245 -811 -180 -306 82 -514 372 -566 787
-18 138 -8 453 20 631 32 211 80 436 180 837 172 690 271 991 425 1298 290
580 750 988 1212 1076 93 17 271 13 351 -9z"/>
<path d="M124 391 c-53 -24 -100 -82 -114 -141 -15 -62 2 -127 46 -179 67 -78
-136 -72 2281 -69 l2161 3 44 30 c61 43 88 95 88 170 0 75 -27 127 -88 170
l-44 30 -2166 2 c-2091 3 -2168 2 -2208 -16z"/>
</g>
</svg>
