<?xml version="1.0" standalone="no"?>
<!DOCTYPE svg PUBLIC "-//W3C//DTD SVG 20010904//EN"
 "http://www.w3.org/TR/2001/REC-SVG-20010904/DTD/svg10.dtd">
<svg version="1.0" xmlns="http://www.w3.org/2000/svg"
 width="647.000000pt" height="1328.000000pt" viewBox="0 0 647.000000 1328.000000"
 preserveAspectRatio="xMidYMid meet">
<metadata>
Created by potrace 1.16, written by Peter Selinger 2001-2019
</metadata>
<g transform="translate(0.000000,1328.000000) scale(0.100000,-0.100000)"
fill="#000000" stroke="none">
<path d="M3324 13261 c-54 -33 -70 -65 -109 -220 -41 -164 -40 -191 2 -242 51
-61 36 -59 578 -59 468 0 496 -1 491 -17 -3 -10 -685 -2738 -1516 -6063 -831
-3325 -1515 -6062 -1521 -6082 l-10 -38 -532 0 c-487 0 -535 -2 -566 -18 -19
-9 -43 -29 -53 -43 -23 -31 -87 -277 -88 -335 0 -51 32 -102 80 -126 33 -17
127 -18 1531 -18 l1496 0 33 23 c18 12 41 33 51 47 22 30 3269 13011 3269
13069 0 48 -34 100 -80 123 -33 17 -127 18 -1530 18 -1447 0 -1496 -1 -1526
-19z m2492 -538 c-3 -10 -685 -2738 -1516 -6063 -831 -3325 -1515 -6062 -1521
-6082 l-10 -38 -490 0 c-462 0 -490 1 -485 18 3 9 685 2737 1516 6062 831
3325 1515 6062 1521 6083 l10 37 490 0 c462 0 490 -1 485 -17z"/>
</g>
</svg>
