<?xml version="1.0" standalone="no"?>
<!DOCTYPE svg PUBLIC "-//W3C//DTD SVG 20010904//EN"
 "http://www.w3.org/TR/2001/REC-SVG-20010904/DTD/svg10.dtd">
<svg version="1.0" xmlns="http://www.w3.org/2000/svg"
 width="672.000000pt" height="1284.000000pt" viewBox="0 0 672.000000 1284.000000"
 preserveAspectRatio="xMidYMid meet">
<metadata>
Created by potrace 1.16, written by Peter Selinger 2001-2019
</metadata>
<g transform="translate(0.000000,1284.000000) scale(0.100000,-0.100000)"
fill="#000000" stroke="none">
<path d="M4775 12834 c-336 -34 -564 -82 -831 -175 -135 -46 -392 -167 -504
-236 -434 -268 -722 -648 -806 -1063 -31 -154 4 -333 90 -463 120 -181 368
-308 631 -324 103 -6 148 -21 229 -75 31 -21 33 -25 20 -43 -24 -32 -18 -109
11 -144 47 -55 118 -62 196 -19 l36 20 61 -22 c48 -17 76 -21 131 -18 84 4
137 36 189 112 70 105 100 284 56 342 -79 106 -175 97 -350 -33 l-81 -61 -109
107 c-137 134 -185 160 -322 173 -255 23 -386 186 -337 422 112 541 714 999
1486 1130 509 87 903 10 1120 -220 99 -105 140 -198 159 -360 38 -315 -108
-860 -310 -1159 -183 -272 -498 -471 -859 -545 -147 -30 -332 -40 -725 -40
l-358 0 -32 -32 c-28 -28 -37 -52 -65 -165 -33 -132 -33 -132 -15 -169 11 -21
32 -47 47 -58 27 -20 44 -21 480 -27 485 -6 486 -6 625 -63 133 -53 250 -161
307 -282 81 -170 68 -417 -41 -848 -76 -297 -160 -508 -269 -677 -266 -412
-754 -669 -1320 -696 -206 -9 -355 17 -505 88 -349 166 -546 539 -567 1074
l-6 150 94 1 c174 1 333 68 459 194 117 117 178 240 202 409 20 137 -18 265
-107 360 -252 269 -780 135 -960 -244 -88 -186 -146 -614 -125 -922 46 -676
386 -1182 923 -1372 177 -62 267 -75 522 -76 246 0 390 12 605 51 719 131
1392 489 1770 941 399 478 488 1013 247 1477 -113 218 -329 428 -567 550 l-92
48 124 49 c471 190 881 509 1121 874 283 430 333 874 143 1260 -205 413 -633
687 -1221 780 -96 15 -508 28 -600 19z"/>
<path d="M950 6531 c-49 -15 -86 -40 -127 -84 -48 -52 -67 -102 -67 -177 0
-30 6 -73 13 -94 17 -49 82 -121 136 -149 l40 -22 2425 -3 c2666 -2 2484 -7
2563 58 20 17 49 53 65 78 24 41 27 57 27 132 0 75 -3 91 -27 132 -16 25 -45
60 -65 78 -79 64 102 60 -2547 59 -1326 0 -2422 -4 -2436 -8z"/>
<path d="M4015 5771 c-81 -25 -107 -36 -154 -65 l-40 -25 -45 25 c-177 99
-423 54 -584 -105 -73 -72 -112 -146 -157 -301 -116 -396 -308 -717 -630
-1049 -485 -500 -1170 -899 -2049 -1197 -104 -35 -196 -64 -205 -64 -36 0
-120 -49 -135 -79 -19 -35 -21 -93 -4 -124 23 -45 129 -177 151 -189 17 -9
214 -11 812 -9 816 3 939 -1 1245 -40 152 -19 662 -98 668 -104 1 -1 -107
-443 -242 -981 -135 -539 -250 -1009 -256 -1046 -20 -113 18 -237 97 -313 162
-158 462 -132 653 55 105 105 102 93 378 1200 l248 995 170 7 c373 15 953 71
1003 96 45 24 74 76 67 125 -5 48 -134 223 -174 238 -19 8 -103 7 -277 0 -137
-6 -346 -11 -463 -11 -199 0 -213 1 -208 18 3 9 148 586 322 1282 307 1232
316 1267 312 1346 -10 196 -145 320 -358 330 -63 3 -100 -1 -145 -15z m-850
-2228 l-162 -648 -29 3 c-16 2 -140 21 -276 42 -452 73 -719 100 -988 100
l-145 0 135 61 c633 283 1135 606 1495 961 72 70 131 128 131 128 1 0 -71
-291 -161 -647z"/>
</g>
</svg>
