<?xml version="1.0" standalone="no"?>
<!DOCTYPE svg PUBLIC "-//W3C//DTD SVG 20010904//EN"
 "http://www.w3.org/TR/2001/REC-SVG-20010904/DTD/svg10.dtd">
<svg version="1.0" xmlns="http://www.w3.org/2000/svg"
 width="583.000000pt" height="1260.000000pt" viewBox="0 0 583.000000 1260.000000"
 preserveAspectRatio="xMidYMid meet">
<metadata>
Created by potrace 1.16, written by Peter Selinger 2001-2019
</metadata>
<g transform="translate(0.000000,1260.000000) scale(0.100000,-0.100000)"
fill="#000000" stroke="none">
<path d="M4325 12584 c-159 -39 -313 -157 -387 -299 -76 -145 -155 -554 -203
-1045 -8 -85 -26 -299 -40 -475 -39 -502 -69 -765 -116 -1011 l-21 -111 -86
14 c-132 21 -232 46 -506 129 -138 42 -298 87 -356 100 -227 52 -448 67 -569
39 -266 -63 -475 -334 -458 -595 11 -183 110 -303 292 -356 49 -14 84 -16 195
-11 217 9 376 41 875 172 179 47 349 85 482 109 l32 5 -60 -175 c-79 -231
-154 -423 -344 -874 -285 -679 -403 -997 -479 -1290 -45 -174 -50 -214 -37
-286 23 -121 93 -219 193 -270 149 -76 300 -72 477 11 103 49 217 163 266 266
97 205 173 692 235 1504 36 462 66 730 112 994 l21 124 66 -7 c88 -8 263 -52
522 -130 380 -115 519 -144 729 -153 119 -5 144 -3 215 16 113 31 189 75 270
156 53 53 81 91 112 155 53 108 67 174 61 286 -7 140 -67 243 -178 307 -81 47
-158 60 -310 54 -183 -8 -334 -36 -660 -119 -448 -115 -705 -173 -719 -162 -6
5 111 338 189 534 43 107 149 364 235 570 205 488 271 658 360 925 130 387
153 511 121 633 -57 212 -284 326 -531 266z"/>
<path d="M2748 6274 c-131 -31 -267 -122 -343 -228 -60 -84 -87 -153 -124
-314 -73 -315 -111 -615 -161 -1257 -38 -481 -77 -819 -123 -1065 l-13 -65
-49 3 c-87 6 -263 48 -520 125 -137 42 -287 85 -332 96 -252 64 -527 82 -653
42 -150 -47 -297 -174 -364 -313 -49 -102 -72 -222 -58 -304 31 -187 157 -311
338 -333 74 -9 266 1 376 18 134 22 270 53 568 131 277 72 533 130 573 130 14
0 14 -5 0 -52 -51 -176 -181 -508 -393 -1013 -210 -498 -290 -704 -375 -960
-130 -388 -153 -511 -121 -633 86 -321 537 -381 811 -107 95 95 135 174 180
356 72 295 115 617 165 1249 44 559 85 908 130 1118 l12 54 47 -7 c121 -17
268 -54 511 -127 424 -127 576 -158 794 -159 194 -2 324 48 446 172 115 115
175 257 174 409 0 121 -25 187 -96 266 -89 97 -173 127 -355 125 -211 -2 -383
-33 -838 -153 -248 -65 -525 -128 -567 -128 -33 0 128 434 407 1095 246 582
354 872 446 1190 39 135 43 161 44 260 0 101 -2 115 -29 172 -80 173 -292 260
-508 207z"/>
</g>
</svg>
