<?xml version="1.0" standalone="no"?>
<!DOCTYPE svg PUBLIC "-//W3C//DTD SVG 20010904//EN"
 "http://www.w3.org/TR/2001/REC-SVG-20010904/DTD/svg10.dtd">
<svg version="1.0" xmlns="http://www.w3.org/2000/svg"
 width="562.000000pt" height="1210.000000pt" viewBox="0 0 562.000000 1210.000000"
 preserveAspectRatio="xMidYMid meet">
<metadata>
Created by potrace 1.16, written by Peter Selinger 2001-2019
</metadata>
<g transform="translate(0.000000,1210.000000) scale(0.100000,-0.100000)"
fill="#000000" stroke="none">
<path d="M4160 12085 c-94 -26 -180 -76 -250 -145 -105 -104 -140 -195 -204
-525 -50 -258 -79 -512 -121 -1055 -14 -179 -37 -424 -50 -545 -26 -228 -80
-564 -93 -577 -11 -11 -199 19 -327 52 -60 16 -186 52 -280 80 -349 105 -577
150 -762 150 -160 0 -286 -51 -394 -159 -111 -111 -164 -241 -157 -389 6 -149
67 -244 197 -306 65 -31 67 -31 221 -30 221 1 356 26 925 173 216 55 480 109
490 99 7 -7 -41 -157 -110 -343 -83 -226 -119 -314 -302 -750 -240 -571 -344
-848 -435 -1162 -36 -127 -42 -161 -43 -244 0 -90 2 -100 35 -164 125 -244
482 -262 709 -36 89 88 123 157 166 333 70 291 114 624 160 1213 41 519 71
787 116 1025 29 153 23 142 77 135 128 -18 310 -61 522 -124 404 -120 538
-148 745 -158 185 -8 279 18 402 111 75 57 151 165 184 263 32 93 32 214 0
296 -31 78 -109 157 -188 188 -53 22 -72 24 -213 23 -203 -1 -322 -22 -765
-134 -328 -83 -496 -120 -607 -136 l-48 -6 16 51 c58 197 183 521 387 1006
287 684 391 965 473 1289 49 190 21 323 -87 420 -27 25 -76 55 -107 67 -74 28
-205 35 -282 14z"/>
<path d="M2635 6022 c-99 -30 -166 -71 -241 -146 -88 -88 -121 -155 -163 -331
-73 -310 -108 -576 -161 -1250 -33 -403 -59 -654 -90 -850 -23 -146 -46 -254
-54 -262 -9 -10 -173 15 -290 43 -56 14 -198 54 -316 89 -118 35 -252 73 -297
85 -253 63 -519 80 -644 41 -224 -71 -394 -313 -376 -534 11 -130 86 -244 193
-293 70 -33 155 -42 304 -33 178 11 306 36 732 143 313 79 606 142 615 132 1
-1 -25 -83 -58 -181 -73 -217 -167 -457 -327 -835 -293 -695 -405 -998 -488
-1324 -49 -190 -21 -323 87 -420 154 -139 418 -124 608 34 107 89 153 180 202
397 68 307 102 563 149 1153 46 574 72 803 121 1065 25 134 11 126 170 99 118
-20 225 -48 476 -123 365 -109 525 -140 729 -143 128 -1 196 12 284 57 113 58
216 175 262 300 18 48 23 81 23 170 0 106 -1 112 -34 173 -40 74 -85 116 -159
150 -148 67 -443 39 -935 -89 -382 -99 -707 -168 -707 -150 0 12 57 187 95
291 55 155 177 457 315 785 291 691 466 1188 487 1385 15 151 -62 286 -204
352 -84 40 -214 48 -308 20z"/>
</g>
</svg>
