<?xml version="1.0" standalone="no"?>
<!DOCTYPE svg PUBLIC "-//W3C//DTD SVG 20010904//EN"
 "http://www.w3.org/TR/2001/REC-SVG-20010904/DTD/svg10.dtd">
<svg version="1.0" xmlns="http://www.w3.org/2000/svg"
 width="296.000000pt" height="273.000000pt" viewBox="0 0 296.000000 273.000000"
 preserveAspectRatio="xMidYMid meet">
<metadata>
Created by potrace 1.16, written by Peter Selinger 2001-2019
</metadata>
<g transform="translate(0.000000,273.000000) scale(0.100000,-0.100000)"
fill="#000000" stroke="none">
<path d="M2364 2715 c-85 -18 -207 -83 -287 -151 -37 -33 -515 -524 -1062
-1092 -1078 -1120 -1029 -1064 -1005 -1152 12 -45 199 -260 259 -297 39 -24
84 -29 126 -13 45 17 2295 1770 2375 1850 83 83 138 180 165 285 54 212 -52
438 -249 531 -113 54 -204 65 -322 39z"/>
</g>
</svg>
