<?xml version="1.0" standalone="no"?>
<!DOCTYPE svg PUBLIC "-//W3C//DTD SVG 20010904//EN"
 "http://www.w3.org/TR/2001/REC-SVG-20010904/DTD/svg10.dtd">
<svg version="1.0" xmlns="http://www.w3.org/2000/svg"
 width="1117.000000pt" height="945.000000pt" viewBox="0 0 1117.000000 945.000000"
 preserveAspectRatio="xMidYMid meet">
<metadata>
Created by potrace 1.16, written by Peter Selinger 2001-2019
</metadata>
<g transform="translate(0.000000,945.000000) scale(0.100000,-0.100000)"
fill="#000000" stroke="none">
<path d="M2369 9428 c-52 -30 -71 -71 -119 -265 -47 -191 -47 -221 -3 -274 47
-55 67 -59 340 -59 380 -1 874 -28 873 -49 0 -3 -155 -622 -343 -1376 l-343
-1370 -800 -5 -799 -5 -47 -28 c-151 -88 -170 -291 -39 -410 75 -68 63 -67
848 -67 465 0 703 -3 703 -10 0 -8 -496 -2002 -531 -2132 l-10 -38 -787 0
-787 0 -50 -24 c-117 -55 -170 -179 -134 -311 7 -26 29 -58 63 -91 86 -87 52
-84 863 -84 387 0 703 -3 703 -7 0 -5 -88 -355 -194 -780 -202 -805 -213 -840
-297 -965 -118 -174 -273 -283 -512 -363 -178 -59 -328 -82 -587 -91 -91 -3
-179 -10 -197 -16 -66 -20 -86 -58 -138 -270 l-49 -195 25 -48 c13 -27 37 -58
52 -69 33 -24 56 -24 506 -6 678 27 1602 22 2319 -11 227 -11 245 -11 283 6
22 10 50 32 61 48 23 32 107 351 108 406 0 46 -35 105 -79 129 -30 16 -63 20
-211 26 -282 10 -436 39 -585 111 -171 82 -238 185 -239 370 -1 98 3 116 203
913 l203 812 1643 0 c1432 0 1644 -2 1648 -15 4 -8 223 -612 487 -1342 265
-730 492 -1351 505 -1379 18 -35 36 -56 64 -72 36 -21 51 -22 245 -22 152 0
215 4 239 14 77 31 56 -38 427 1445 l342 1370 792 3 c873 3 821 -1 899 67 139
122 93 365 -82 427 -28 10 -197 13 -760 14 -574 0 -722 3 -719 13 3 6 126 497
274 1089 l269 1078 771 0 c856 0 833 -2 912 66 140 119 114 337 -50 418 l-52
26 -727 0 -727 0 268 1068 c147 587 276 1090 288 1117 98 245 302 422 593 519
182 61 327 83 599 92 259 9 261 10 330 291 47 191 47 221 3 274 -48 57 -68 60
-300 49 -791 -38 -1703 -38 -2554 1 l-256 12 -41 -23 c-22 -12 -49 -39 -59
-59 -11 -20 -39 -114 -63 -208 -47 -191 -47 -221 -3 -274 39 -46 79 -59 185
-59 51 0 147 -5 213 -10 402 -34 617 -149 671 -360 33 -128 29 -146 -269
-1335 l-273 -1090 -1120 -2 -1119 -3 -599 1653 c-329 908 -607 1668 -618 1688
-11 20 -37 46 -58 58 l-38 21 -1208 0 -1209 0 -36 -22z m2009 -2323 c204 -561
375 -1032 381 -1047 l11 -28 -664 0 -664 0 271 1082 c254 1015 271 1080 283
1047 6 -19 178 -493 382 -1054z m969 -2670 c216 -594 392 -1083 393 -1087 0
-5 -669 -8 -1486 -8 -1185 0 -1485 3 -1482 13 3 6 126 497 274 1090 l269 1077
820 -2 820 -3 392 -1080z m2893 1075 c0 -8 -496 -2002 -531 -2132 l-10 -38
-293 0 c-271 0 -294 1 -301 18 -7 18 -677 1864 -746 2055 l-38 107 959 0 c638
0 960 -3 960 -10z m-670 -2685 c0 -15 -104 -421 -109 -427 -5 -6 -73 174 -159
420 -3 9 27 12 132 12 75 0 136 -2 136 -5z"/>
</g>
</svg>
