<?xml version="1.0" standalone="no"?>
<!DOCTYPE svg PUBLIC "-//W3C//DTD SVG 20010904//EN"
 "http://www.w3.org/TR/2001/REC-SVG-20010904/DTD/svg10.dtd">
<svg version="1.0" xmlns="http://www.w3.org/2000/svg"
 width="515.000000pt" height="139.000000pt" viewBox="0 0 515.000000 139.000000"
 preserveAspectRatio="xMidYMid meet">
<metadata>
Created by potrace 1.16, written by Peter Selinger 2001-2019
</metadata>
<g transform="translate(0.000000,139.000000) scale(0.100000,-0.100000)"
fill="#000000" stroke="none">
<path d="M1565 1383 c-280 -35 -560 -159 -845 -374 -151 -114 -222 -178 -483
-437 -240 -239 -251 -255 -228 -334 15 -49 120 -164 190 -209 85 -55 138 -38
272 87 185 173 363 299 541 384 216 103 415 136 629 107 212 -30 402 -103 849
-327 283 -142 471 -213 680 -257 132 -28 393 -25 529 5 271 61 522 190 794
407 142 114 604 560 628 607 23 44 25 99 5 136 -20 37 -164 176 -203 196 -37
18 -80 21 -118 6 -14 -5 -79 -58 -143 -116 -475 -431 -863 -566 -1307 -453
-140 36 -262 87 -587 245 -456 222 -624 285 -853 319 -91 13 -274 18 -350 8z"/>
</g>
</svg>
