<?xml version="1.0" standalone="no"?>
<!DOCTYPE svg PUBLIC "-//W3C//DTD SVG 20010904//EN"
 "http://www.w3.org/TR/2001/REC-SVG-20010904/DTD/svg10.dtd">
<svg version="1.0" xmlns="http://www.w3.org/2000/svg"
 width="605.000000pt" height="872.000000pt" viewBox="0 0 605.000000 872.000000"
 preserveAspectRatio="xMidYMid meet">
<metadata>
Created by potrace 1.16, written by Peter Selinger 2001-2019
</metadata>
<g transform="translate(0.000000,872.000000) scale(0.100000,-0.100000)"
fill="#000000" stroke="none">
<path d="M4090 8702 c-19 -9 -44 -31 -56 -49 -14 -21 -68 -218 -158 -580
l-137 -549 -142 -17 c-401 -48 -785 -166 -1192 -367 -470 -231 -787 -460
-1175 -849 -229 -229 -357 -381 -516 -607 -499 -715 -762 -1572 -705 -2299 54
-675 334 -1239 816 -1643 319 -268 789 -468 1235 -526 52 -7 94 -17 94 -22 -1
-5 -59 -240 -129 -521 -138 -554 -138 -554 -88 -614 43 -50 76 -59 229 -59
153 0 194 13 229 73 10 17 80 276 155 576 l136 546 115 12 c384 42 732 144
1084 318 519 256 941 629 1266 1117 102 155 189 310 195 351 6 42 -21 95 -65
124 -32 21 -44 23 -190 23 -206 0 -206 0 -289 -145 -403 -706 -999 -1178
-1654 -1310 -120 -23 -336 -50 -345 -42 -2 2 301 1224 674 2716 l678 2711 68
0 c93 0 337 -26 482 -51 228 -40 432 -110 557 -191 l63 -41 -38 -13 c-182 -63
-343 -207 -427 -379 -202 -414 1 -790 425 -789 157 0 300 49 442 150 180 128
295 370 309 649 14 269 -101 524 -313 697 -280 229 -769 379 -1345 414 -60 4
-108 9 -108 11 0 2 56 228 125 503 69 275 125 519 125 542 0 56 -29 102 -79
128 -35 17 -59 20 -178 20 -111 0 -145 -3 -173 -18z m-472 -1664 c-3 -7 -304
-1209 -669 -2672 -392 -1571 -669 -2660 -677 -2663 -20 -8 -169 45 -287 102
-293 142 -516 367 -661 669 -69 143 -109 267 -139 430 -87 475 -32 1011 176
1709 219 734 547 1312 990 1742 345 335 731 562 1134 666 126 32 139 34 133
17z"/>
</g>
</svg>
