<?xml version="1.0" standalone="no"?>
<!DOCTYPE svg PUBLIC "-//W3C//DTD SVG 20010904//EN"
 "http://www.w3.org/TR/2001/REC-SVG-20010904/DTD/svg10.dtd">
<svg version="1.0" xmlns="http://www.w3.org/2000/svg"
 width="1485.000000pt" height="1028.000000pt" viewBox="0 0 1485.000000 1028.000000"
 preserveAspectRatio="xMidYMid meet">
<metadata>
Created by potrace 1.16, written by Peter Selinger 2001-2019
</metadata>
<g transform="translate(0.000000,1028.000000) scale(0.100000,-0.100000)"
fill="#000000" stroke="none">
<path d="M11550 10269 c-710 -41 -1436 -158 -2140 -344 -2905 -765 -5609
-2653 -7442 -5194 -642 -890 -1181 -1881 -1558 -2866 -139 -365 -354 -1047
-401 -1273 -25 -121 14 -185 139 -226 494 -161 1145 -285 1802 -342 246 -21
1015 -30 1291 -15 2071 116 4164 844 6069 2114 774 516 1433 1059 2121 1746
689 690 1218 1333 1734 2111 299 451 526 844 779 1350 240 480 403 859 569
1325 161 451 335 1054 323 1119 -8 41 -39 91 -69 111 -35 23 -443 136 -678
189 -461 102 -934 167 -1424 196 -196 11 -916 11 -1115 -1z m1055 -319 c489
-28 965 -94 1420 -196 110 -24 213 -48 229 -52 28 -8 -10 -33 -570 -389 -3681
-2339 -5278 -3352 -5280 -3350 -4 4 893 3587 900 3594 10 10 284 81 531 138
593 135 1185 220 1775 254 199 12 799 12 995 1z m-4135 -2371 c-258 -1029
-472 -1875 -477 -1879 -20 -20 -3935 -2501 -3939 -2497 -3 2 235 964 528 2137
l533 2132 180 131 c920 665 1943 1221 2970 1615 179 68 642 231 661 231 7 1
-181 -769 -456 -1870z m5931 1775 c-5 -16 -33 -105 -61 -199 -103 -337 -276
-796 -448 -1185 -105 -238 -348 -726 -473 -950 -205 -369 -568 -946 -753
-1197 l-46 -63 -1962 0 -1962 0 685 435 c376 239 1661 1055 2854 1813 1194
759 2171 1378 2173 1377 1 -1 -2 -15 -7 -31z m-10230 -4316 l-526 -2102 -1603
-1019 c-882 -560 -1606 -1016 -1609 -1014 -6 7 63 233 144 472 371 1092 942
2182 1667 3184 647 895 1406 1709 2286 2450 85 72 158 130 161 131 4 0 -230
-946 -520 -2102z m8183 365 c-295 -394 -688 -837 -1154 -1304 -410 -410 -686
-661 -1078 -977 l-163 -132 -2812 0 -2812 1 40 24 c22 14 888 564 1925 1224
l1885 1199 2099 1 2098 1 -28 -37z m-2834 -2737 c0 -14 -498 -348 -770 -518
-1617 -1006 -3406 -1628 -5145 -1787 -382 -35 -607 -44 -1020 -38 -489 7 -797
32 -1255 103 -264 41 -771 148 -769 163 0 3 734 472 1632 1043 l1632 1036
2848 1 c1566 1 2847 -1 2847 -3z"/>
</g>
</svg>
