<?xml version="1.0" standalone="no"?>
<!DOCTYPE svg PUBLIC "-//W3C//DTD SVG 20010904//EN"
 "http://www.w3.org/TR/2001/REC-SVG-20010904/DTD/svg10.dtd">
<svg version="1.0" xmlns="http://www.w3.org/2000/svg"
 width="1320.000000pt" height="1446.000000pt" viewBox="0 0 1320.000000 1446.000000"
 preserveAspectRatio="xMidYMid meet">
<metadata>
Created by potrace 1.16, written by Peter Selinger 2001-2019
</metadata>
<g transform="translate(0.000000,1446.000000) scale(0.100000,-0.100000)"
fill="#000000" stroke="none">
<path d="M8050 14453 c-201 -13 -352 -28 -509 -49 -1248 -167 -2559 -749
-3713 -1646 -541 -421 -1093 -957 -1552 -1508 -1284 -1543 -2086 -3438 -2251
-5320 -22 -249 -30 -752 -16 -1000 68 -1199 429 -2258 1057 -3095 141 -189
242 -304 424 -486 244 -244 433 -399 710 -582 981 -646 2181 -889 3488 -706
1322 184 2744 852 3930 1847 446 373 917 847 1296 1302 1284 1543 2086 3438
2251 5320 22 249 30 752 16 1000 -68 1199 -429 2258 -1057 3095 -141 189 -242
304 -424 486 -244 244 -433 399 -710 582 -677 445 -1455 699 -2325 757 -136 9
-503 11 -615 3z m585 -563 c659 -44 1265 -217 1790 -509 986 -549 1675 -1466
2004 -2666 250 -910 264 -1977 40 -3075 -410 -2008 -1575 -3932 -3211 -5302
-886 -742 -1908 -1293 -2910 -1567 -1314 -361 -2577 -252 -3583 308 -986 549
-1675 1466 -2004 2666 -250 910 -264 1977 -40 3075 410 2008 1575 3932 3211
5302 1121 939 2434 1555 3678 1727 124 17 274 31 470 44 110 8 418 6 555 -3z"/>
<path d="M4680 10672 c-20 -9 -43 -32 -53 -52 -22 -44 -687 -2708 -687 -2752
0 -18 9 -48 20 -66 34 -55 65 -62 290 -62 264 0 265 1 323 160 286 787 797
1479 1367 1853 415 272 842 367 1300 288 702 -121 1233 -677 1394 -1462 47
-229 59 -376 53 -659 -7 -322 -33 -514 -113 -835 -363 -1451 -1557 -2709
-2809 -2960 -657 -132 -1172 40 -1469 489 -161 244 -234 498 -243 857 -6 215
3 330 43 526 29 148 30 178 4 221 -34 56 -65 62 -292 62 -275 0 -278 -2 -322
-200 -40 -183 -58 -348 -58 -545 -1 -202 12 -327 48 -493 171 -771 725 -1330
1504 -1516 166 -40 291 -56 490 -63 894 -29 1897 378 2860 1162 593 483 1061
999 1360 1502 231 385 369 747 441 1151 30 167 38 544 15 732 -67 545 -304
1085 -702 1600 -111 143 -356 391 -491 498 -392 309 -825 493 -1323 563 -139
20 -555 17 -688 -4 -648 -104 -1240 -404 -1786 -902 -120 -110 -295 -292 -397
-415 -45 -54 -61 -68 -56 -49 35 140 277 1239 277 1258 0 40 -33 92 -71 113
-46 25 -180 25 -229 0z"/>
</g>
</svg>
