<?xml version="1.0" standalone="no"?>
<!DOCTYPE svg PUBLIC "-//W3C//DTD SVG 20010904//EN"
 "http://www.w3.org/TR/2001/REC-SVG-20010904/DTD/svg10.dtd">
<svg version="1.0" xmlns="http://www.w3.org/2000/svg"
 width="642.000000pt" height="927.000000pt" viewBox="0 0 642.000000 927.000000"
 preserveAspectRatio="xMidYMid meet">
<metadata>
Created by potrace 1.16, written by Peter Selinger 2001-2019
</metadata>
<g transform="translate(0.000000,927.000000) scale(0.100000,-0.100000)"
fill="#000000" stroke="none">
<path d="M4175 9259 c-681 -64 -1384 -378 -1906 -852 -411 -373 -689 -830
-816 -1342 -25 -101 -27 -127 -28 -305 0 -183 2 -201 28 -295 72 -260 216
-444 422 -541 122 -57 183 -68 350 -68 133 1 160 4 240 28 205 61 376 166 540
331 171 171 300 371 389 601 136 353 140 734 11 1089 -54 149 -100 240 -132
263 -43 31 -92 36 -133 15 -62 -32 -268 -204 -280 -234 -18 -42 -7 -105 33
-194 145 -324 112 -707 -89 -1032 -63 -102 -218 -258 -300 -300 -107 -57 -214
-75 -297 -52 -237 65 -227 586 20 1072 308 604 951 1095 1646 1256 231 54 566
73 737 42 323 -58 561 -224 686 -476 144 -292 137 -663 -26 -1322 -153 -617
-331 -993 -612 -1288 -220 -233 -531 -411 -847 -486 -173 -42 -276 -49 -716
-49 -460 0 -463 0 -508 -61 -10 -14 -41 -115 -69 -225 -56 -223 -55 -244 2
-299 l31 -30 452 -6 c483 -7 517 -10 647 -62 101 -41 171 -88 255 -172 120
-120 179 -232 218 -415 27 -128 29 -381 3 -565 -35 -254 -149 -752 -251 -1100
-191 -650 -464 -1057 -905 -1348 -528 -348 -1227 -426 -1698 -188 -317 160
-533 442 -613 801 -24 108 -24 110 4 110 13 0 59 9 103 20 299 76 519 294 599
593 84 313 -41 571 -323 665 -66 22 -95 26 -197 25 -101 0 -134 -4 -208 -26
-155 -48 -268 -117 -374 -231 -129 -137 -190 -283 -239 -571 -22 -128 -25
-474 -6 -585 71 -394 209 -669 466 -925 273 -272 587 -428 1011 -502 140 -24
566 -24 750 0 1138 151 2168 813 2711 1743 163 280 264 560 326 904 20 109 23
159 23 395 0 288 -4 331 -55 535 -114 457 -376 836 -748 1084 l-73 48 116 53
c534 246 1029 664 1367 1155 263 383 436 822 488 1240 15 122 12 398 -5 519
-99 695 -554 1234 -1230 1456 -302 100 -646 136 -990 104z"/>
</g>
</svg>
