<?xml version="1.0" standalone="no"?>
<!DOCTYPE svg PUBLIC "-//W3C//DTD SVG 20010904//EN"
 "http://www.w3.org/TR/2001/REC-SVG-20010904/DTD/svg10.dtd">
<svg version="1.0" xmlns="http://www.w3.org/2000/svg"
 width="508.000000pt" height="494.000000pt" viewBox="0 0 508.000000 494.000000"
 preserveAspectRatio="xMidYMid meet">
<metadata>
Created by potrace 1.16, written by Peter Selinger 2001-2019
</metadata>
<g transform="translate(0.000000,494.000000) scale(0.100000,-0.100000)"
fill="#000000" stroke="none">
<path d="M2885 4933 c-393 -35 -759 -144 -1129 -336 -185 -96 -294 -165 -463
-291 -611 -456 -1049 -1096 -1218 -1777 -59 -239 -70 -329 -70 -584 0 -239 7
-306 50 -490 130 -553 472 -990 970 -1236 526 -261 1165 -289 1811 -78 517
168 1006 483 1397 900 310 332 556 736 699 1149 38 111 92 329 114 466 23 136
26 524 6 649 -76 459 -259 820 -562 1109 -301 286 -725 471 -1184 515 -102 10
-330 12 -421 4z"/>
</g>
</svg>
