<?xml version="1.0" standalone="no"?>
<!DOCTYPE svg PUBLIC "-//W3C//DTD SVG 20010904//EN"
 "http://www.w3.org/TR/2001/REC-SVG-20010904/DTD/svg10.dtd">
<svg version="1.0" xmlns="http://www.w3.org/2000/svg"
 width="657.000000pt" height="1260.000000pt" viewBox="0 0 657.000000 1260.000000"
 preserveAspectRatio="xMidYMid meet">
<metadata>
Created by potrace 1.16, written by Peter Selinger 2001-2019
</metadata>
<g transform="translate(0.000000,1260.000000) scale(0.100000,-0.100000)"
fill="#000000" stroke="none">
<path d="M5205 12584 c-227 -40 -468 -153 -690 -323 -82 -62 -244 -220 -320
-311 -193 -232 -351 -560 -484 -1005 -104 -350 -158 -594 -330 -1485 l-127
-655 -625 -5 c-693 -6 -656 -2 -698 -72 -24 -39 -101 -344 -101 -400 0 -56 29
-102 79 -128 39 -19 56 -20 631 -20 397 0 590 -3 590 -10 0 -43 -659 -3414
-761 -3895 -492 -2309 -681 -3179 -709 -3260 -95 -271 -245 -459 -393 -496
-57 -14 -170 -7 -260 17 -56 14 -157 59 -157 69 0 2 20 13 45 24 66 29 187
116 237 169 102 109 165 227 204 381 68 266 -20 499 -233 614 -275 148 -692
38 -913 -242 -91 -114 -146 -248 -176 -423 -59 -355 94 -714 391 -915 195
-131 418 -200 680 -210 116 -4 156 -2 235 15 273 57 482 181 730 431 483 485
792 1168 1115 2461 160 642 217 920 685 3350 193 998 355 1839 361 1868 l10
52 720 0 c693 0 721 1 758 19 21 11 46 32 56 48 21 32 104 351 105 402 0 47
-35 105 -80 130 -37 21 -43 21 -739 21 l-701 0 5 23 c3 12 66 337 140 722 293
1521 415 2087 481 2218 61 122 185 260 270 303 80 39 283 18 412 -43 58 -27
64 -38 28 -47 -40 -10 -198 -121 -247 -173 -103 -110 -166 -227 -205 -382 -68
-266 20 -499 233 -614 275 -148 692 -38 913 242 200 251 245 649 110 948 -98
217 -311 410 -554 504 -231 89 -506 121 -721 83z"/>
</g>
</svg>
