<?xml version="1.0" standalone="no"?>
<!DOCTYPE svg PUBLIC "-//W3C//DTD SVG 20010904//EN"
 "http://www.w3.org/TR/2001/REC-SVG-20010904/DTD/svg10.dtd">
<svg version="1.0" xmlns="http://www.w3.org/2000/svg"
 width="867.000000pt" height="596.000000pt" viewBox="0 0 867.000000 596.000000"
 preserveAspectRatio="xMidYMid meet">
<metadata>
Created by potrace 1.16, written by Peter Selinger 2001-2019
</metadata>
<g transform="translate(0.000000,596.000000) scale(0.100000,-0.100000)"
fill="#000000" stroke="none">
<path d="M3310 5953 c-182 -14 -441 -67 -645 -133 -891 -288 -1695 -971 -2189
-1859 -234 -421 -382 -857 -451 -1331 -22 -149 -31 -497 -16 -656 56 -602 322
-1152 720 -1485 302 -254 634 -403 1036 -466 155 -25 516 -24 675 0 414 65
801 208 1178 436 l133 80 82 -70 c299 -258 685 -418 1114 -460 142 -14 413 -6
563 16 1061 160 2085 916 2674 1974 234 421 382 857 451 1331 22 149 31 497
16 656 -56 602 -322 1152 -720 1485 -302 254 -634 403 -1036 466 -155 25 -516
24 -675 0 -414 -65 -801 -208 -1178 -436 l-133 -80 -82 70 c-394 341 -936 506
-1517 462z m435 -718 c200 -31 429 -108 569 -192 34 -20 63 -38 65 -39 2 -2
-59 -68 -135 -146 -625 -643 -1039 -1506 -1124 -2347 -15 -154 -13 -496 5
-641 32 -260 110 -530 214 -747 l59 -121 -92 -43 c-352 -164 -656 -240 -1021
-255 -671 -29 -1207 240 -1440 721 -51 105 -102 267 -127 401 -32 173 -31 545
1 754 65 426 221 900 407 1235 73 130 187 304 283 430 98 130 358 390 487 487
398 302 819 466 1339 522 85 9 405 -3 510 -19z m2921 14 c543 -53 952 -307
1149 -714 51 -105 102 -267 127 -401 32 -173 31 -545 -1 -754 -65 -426 -221
-900 -407 -1235 -149 -268 -307 -478 -514 -685 -276 -277 -545 -455 -892 -590
-292 -114 -563 -164 -883 -164 -304 0 -526 41 -754 139 -67 28 -183 90 -210
111 -2 2 59 68 135 146 625 643 1039 1506 1124 2347 15 154 13 496 -5 641 -32
260 -110 530 -214 747 l-59 121 92 43 c320 149 577 218 936 252 82 8 275 6
376 -4z m-1852 -741 c191 -394 215 -903 71 -1486 -119 -484 -338 -930 -644
-1312 -82 -102 -323 -350 -340 -350 -15 0 -95 169 -130 275 -119 359 -118 811
4 1303 119 484 338 930 644 1312 82 102 323 350 340 350 6 0 31 -42 55 -92z"/>
</g>
</svg>
