<?xml version="1.0" standalone="no"?>
<!DOCTYPE svg PUBLIC "-//W3C//DTD SVG 20010904//EN"
 "http://www.w3.org/TR/2001/REC-SVG-20010904/DTD/svg10.dtd">
<svg version="1.0" xmlns="http://www.w3.org/2000/svg"
 width="913.000000pt" height="976.000000pt" viewBox="0 0 913.000000 976.000000"
 preserveAspectRatio="xMidYMid meet">
<metadata>
Created by potrace 1.16, written by Peter Selinger 2001-2019
</metadata>
<g transform="translate(0.000000,976.000000) scale(0.100000,-0.100000)"
fill="#000000" stroke="none">
<path d="M1975 9746 c-16 -7 -38 -23 -48 -34 -10 -11 -225 -469 -478 -1018
-499 -1083 -484 -1046 -438 -1121 37 -60 79 -73 234 -73 142 0 184 9 217 47
10 10 71 134 137 274 224 482 410 833 478 906 33 35 92 56 223 78 153 27 357
35 858 35 l492 0 -26 -52 c-98 -195 -283 -500 -447 -738 -268 -389 -477 -650
-1308 -1635 -763 -905 -1137 -1429 -1424 -1995 -302 -599 -445 -1133 -445
-1669 0 -434 86 -810 271 -1186 381 -776 1154 -1321 2129 -1499 276 -51 401
-61 750 -60 268 0 356 4 500 22 611 74 1165 242 1719 522 683 344 1239 790
1698 1360 516 641 804 1333 874 2100 17 185 6 634 -21 830 -40 298 -122 659
-229 1010 -52 170 -114 355 -316 945 -294 859 -396 1314 -412 1838 l-6 209
629 -5 c508 -3 649 -7 734 -20 106 -16 165 -30 188 -45 28 -18 35 -181 29
-676 -6 -483 -6 -490 14 -523 12 -19 39 -43 61 -54 36 -18 55 -20 188 -17 171
3 189 11 226 89 21 42 23 84 58 989 20 520 36 974 36 1009 0 78 -24 123 -81
151 -38 20 -59 20 -1163 18 l-1125 -3 -28 -21 c-15 -12 -36 -35 -46 -52 -33
-56 -114 -458 -152 -755 -39 -307 -49 -495 -49 -962 0 -493 6 -614 69 -1440
64 -828 69 -929 69 -1420 0 -469 -8 -619 -50 -950 -77 -609 -254 -1206 -510
-1716 -476 -951 -1277 -1656 -2187 -1924 -464 -136 -923 -138 -1325 -6 -478
157 -848 507 -1035 981 -288 729 -170 1765 338 2955 215 503 471 990 1025
1950 686 1188 961 1719 1200 2320 134 335 280 802 280 892 0 58 -30 107 -81
133 -37 20 -63 20 -1151 20 -901 -1 -1119 -3 -1143 -14z"/>
</g>
</svg>
