<?xml version="1.0" standalone="no"?>
<!DOCTYPE svg PUBLIC "-//W3C//DTD SVG 20010904//EN"
 "http://www.w3.org/TR/2001/REC-SVG-20010904/DTD/svg10.dtd">
<svg version="1.0" xmlns="http://www.w3.org/2000/svg"
 width="609.000000pt" height="872.000000pt" viewBox="0 0 609.000000 872.000000"
 preserveAspectRatio="xMidYMid meet">
<metadata>
Created by potrace 1.16, written by Peter Selinger 2001-2019
</metadata>
<g transform="translate(0.000000,872.000000) scale(0.100000,-0.100000)"
fill="#000000" stroke="none">
<path d="M4040 8702 c-19 -9 -44 -31 -56 -49 -14 -21 -68 -219 -159 -582
l-137 -551 -32 -4 c-353 -52 -526 -91 -777 -176 -487 -165 -993 -457 -1404
-812 -260 -225 -565 -563 -758 -841 -505 -725 -765 -1573 -708 -2302 54 -675
334 -1239 816 -1643 312 -262 763 -457 1208 -523 64 -9 77 -14 73 -28 -3 -9
-62 -244 -132 -523 -137 -549 -137 -549 -87 -609 45 -53 72 -59 279 -59 171 0
189 2 224 21 20 11 45 35 55 52 10 17 80 276 155 576 l136 546 40 7 c21 4 91
14 154 23 787 110 1530 537 2040 1171 161 201 365 524 376 596 6 43 -21 96
-65 125 -33 22 -42 23 -240 23 -263 0 -254 4 -339 -145 -150 -263 -278 -432
-482 -636 -88 -88 -202 -190 -263 -236 -307 -229 -633 -353 -994 -379 l-91 -7
655 2623 656 2623 176 -7 c296 -11 520 -34 662 -67 l46 -10 -96 -97 c-125
-126 -183 -226 -226 -388 -101 -377 133 -684 520 -684 117 0 235 29 350 85
218 106 362 287 432 540 23 85 27 120 28 235 0 153 -17 228 -83 355 -49 95
-188 233 -298 297 -245 143 -596 231 -1073 268 -74 5 -170 10 -212 10 -43 0
-80 4 -83 8 -2 4 51 230 119 502 69 272 125 515 125 540 0 58 -28 103 -79 130
-36 18 -59 20 -228 20 -159 0 -193 -3 -223 -18z m-500 -1767 c0 -7 -1272
-5099 -1275 -5103 -4 -5 -183 71 -245 105 -385 209 -636 555 -725 997 -78 393
-52 837 81 1371 218 870 520 1473 973 1939 317 325 708 566 1086 670 99 27
105 28 105 21z"/>
</g>
</svg>
