<?xml version="1.0" standalone="no"?>
<!DOCTYPE svg PUBLIC "-//W3C//DTD SVG 20010904//EN"
 "http://www.w3.org/TR/2001/REC-SVG-20010904/DTD/svg10.dtd">
<svg version="1.0" xmlns="http://www.w3.org/2000/svg"
 width="728.000000pt" height="911.000000pt" viewBox="0 0 728.000000 911.000000"
 preserveAspectRatio="xMidYMid meet">
<metadata>
Created by potrace 1.16, written by Peter Selinger 2001-2019
</metadata>
<g transform="translate(0.000000,911.000000) scale(0.100000,-0.100000)"
fill="#000000" stroke="none">
<path d="M2512 9090 c-96 -26 -215 -89 -285 -150 -68 -62 -139 -165 -172 -255
-14 -37 -482 -1893 -1040 -4126 -1104 -4414 -1037 -4128 -996 -4258 48 -153
145 -243 308 -285 216 -56 496 48 639 237 93 123 90 112 450 1553 185 742 338
1350 339 1352 1 1 33 -16 71 -39 188 -115 447 -202 734 -246 87 -13 174 -17
355 -17 222 0 249 2 367 27 437 93 790 292 1149 647 l127 125 47 -102 c66
-143 134 -242 234 -343 245 -244 587 -373 951 -357 277 12 487 110 701 327
294 296 506 763 724 1590 63 241 64 259 5 315 l-31 30 -222 3 c-208 2 -224 1
-255 -18 -18 -11 -39 -35 -47 -52 -8 -18 -46 -156 -85 -306 -211 -821 -398
-1220 -630 -1347 -49 -26 -65 -30 -140 -30 -72 0 -93 4 -135 25 -59 30 -107
96 -130 175 -39 131 -36 365 6 615 11 69 254 1060 540 2203 434 1737 519 2089
519 2146 0 78 -24 168 -63 234 -93 158 -322 233 -539 178 -200 -51 -358 -182
-444 -367 -25 -54 -150 -539 -533 -2072 l-501 -2001 -56 -93 c-246 -405 -516
-695 -810 -867 -210 -123 -485 -191 -719 -178 -648 37 -902 617 -719 1637 14
80 220 919 457 1865 401 1602 430 1726 431 1810 1 107 -20 181 -73 258 -42 61
-138 129 -214 153 -83 26 -228 28 -315 4z"/>
</g>
</svg>
