<?xml version="1.0" standalone="no"?>
<!DOCTYPE svg PUBLIC "-//W3C//DTD SVG 20010904//EN"
 "http://www.w3.org/TR/2001/REC-SVG-20010904/DTD/svg10.dtd">
<svg version="1.0" xmlns="http://www.w3.org/2000/svg"
 width="917.000000pt" height="1115.000000pt" viewBox="0 0 917.000000 1115.000000"
 preserveAspectRatio="xMidYMid meet">
<metadata>
Created by potrace 1.16, written by Peter Selinger 2001-2019
</metadata>
<g transform="translate(0.000000,1115.000000) scale(0.100000,-0.100000)"
fill="#000000" stroke="none">
<path d="M5809 11130 c-20 -10 -44 -32 -54 -47 -10 -15 -48 -147 -85 -293
l-66 -265 -35 -3 c-641 -47 -1316 -248 -1949 -579 -1773 -928 -3136 -2769
-3519 -4753 -66 -341 -91 -582 -98 -935 -8 -400 14 -667 83 -1013 71 -355 168
-641 329 -967 177 -359 356 -609 634 -885 518 -516 1166 -819 1941 -910 52 -6
95 -12 97 -13 1 -2 -13 -63 -32 -137 -41 -159 -43 -209 -14 -257 37 -60 79
-73 236 -73 213 0 229 13 287 247 62 248 51 223 94 223 77 0 313 32 477 65
350 70 644 169 960 325 327 161 604 358 832 592 l102 105 55 -111 c93 -187
237 -388 406 -569 86 -92 118 -111 172 -104 51 7 85 30 103 70 8 18 170 653
360 1412 190 759 357 1416 370 1460 30 98 74 175 118 209 77 59 221 84 532 93
307 8 309 9 364 238 34 142 32 175 -11 230 -40 52 -68 56 -275 45 -717 -38
-1763 -38 -2899 1 -340 11 -340 11 -383 -10 -23 -12 -50 -35 -59 -50 -10 -16
-33 -92 -51 -169 l-34 -139 24 -49 c46 -92 28 -88 457 -96 483 -8 695 -24 864
-64 104 -25 128 -57 128 -174 0 -56 -31 -193 -160 -712 -179 -716 -183 -732
-250 -874 -284 -606 -991 -1079 -1777 -1190 -121 -16 -333 -30 -333 -21 0 11
2253 9022 2257 9026 7 9 271 -20 363 -39 582 -122 1009 -538 1233 -1202 184
-544 225 -1247 116 -1981 -19 -134 -19 -139 -2 -175 10 -20 33 -47 52 -59 32
-21 45 -23 188 -23 174 0 211 9 242 60 11 19 217 822 492 1924 l473 1891 -20
40 c-30 62 -73 85 -158 85 -52 0 -79 -5 -102 -19 -17 -11 -246 -255 -509 -543
-584 -640 -524 -578 -538 -555 -134 213 -244 353 -393 497 -304 296 -668 485
-1094 570 -80 16 -161 30 -180 32 -19 2 -34 8 -34 13 1 6 28 116 60 246 l58
236 -25 48 c-41 84 -57 90 -232 92 -134 3 -156 1 -188 -17z m-349 -1177 c-1
-17 -2228 -8915 -2233 -8919 -3 -3 -56 7 -119 22 -479 114 -914 378 -1210 736
-657 792 -754 1943 -311 3703 338 1347 801 2303 1485 3070 491 551 1111 985
1750 1224 262 98 639 195 638 164z"/>
</g>
</svg>
