<?xml version="1.0" standalone="no"?>
<!DOCTYPE svg PUBLIC "-//W3C//DTD SVG 20010904//EN"
 "http://www.w3.org/TR/2001/REC-SVG-20010904/DTD/svg10.dtd">
<svg version="1.0" xmlns="http://www.w3.org/2000/svg"
 width="414.000000pt" height="502.000000pt" viewBox="0 0 414.000000 502.000000"
 preserveAspectRatio="xMidYMid meet">
<metadata>
Created by potrace 1.16, written by Peter Selinger 2001-2019
</metadata>
<g transform="translate(0.000000,502.000000) scale(0.100000,-0.100000)"
fill="#000000" stroke="none">
<path d="M1275 5003 c-306 -65 -545 -297 -615 -596 -10 -45 -164 -1025 -341
-2179 l-322 -2096 22 -44 c36 -75 71 -88 242 -88 156 0 189 9 223 62 13 21
1440 4134 1481 4268 43 144 26 323 -41 436 -117 199 -380 295 -649 237z"/>
<path d="M3415 5003 c-159 -34 -297 -111 -417 -234 -60 -62 -87 -100 -126
-176 -27 -54 -56 -127 -66 -163 -9 -36 -163 -1014 -341 -2174 -353 -2289 -336
-2154 -278 -2208 48 -44 65 -48 215 -48 155 0 187 9 222 63 22 32 1471 4222
1490 4307 69 304 -82 554 -382 631 -90 23 -216 24 -317 2z"/>
</g>
</svg>
