<?xml version="1.0" standalone="no"?>
<!DOCTYPE svg PUBLIC "-//W3C//DTD SVG 20010904//EN"
 "http://www.w3.org/TR/2001/REC-SVG-20010904/DTD/svg10.dtd">
<svg version="1.0" xmlns="http://www.w3.org/2000/svg"
 width="540.000000pt" height="242.000000pt" viewBox="0 0 540.000000 242.000000"
 preserveAspectRatio="xMidYMid meet">
<metadata>
Created by potrace 1.16, written by Peter Selinger 2001-2019
</metadata>
<g transform="translate(0.000000,242.000000) scale(0.100000,-0.100000)"
fill="#000000" stroke="none">
<path d="M140 2402 c-66 -33 -92 -99 -126 -326 -23 -147 -14 -474 16 -611 96
-445 362 -823 762 -1083 622 -404 1534 -494 2387 -235 802 242 1464 711 1874
1328 152 229 322 620 334 772 10 117 -54 173 -197 173 -91 0 -137 -15 -167
-54 -12 -14 -39 -83 -61 -154 -95 -297 -268 -564 -518 -801 -675 -638 -1815
-947 -2770 -751 -646 133 -1097 486 -1225 960 -30 109 -37 352 -14 480 30 168
30 204 5 245 -34 54 -83 75 -182 75 -59 0 -93 -5 -118 -18z"/>
</g>
</svg>
