<?xml version="1.0" standalone="no"?>
<!DOCTYPE svg PUBLIC "-//W3C//DTD SVG 20010904//EN"
 "http://www.w3.org/TR/2001/REC-SVG-20010904/DTD/svg10.dtd">
<svg version="1.0" xmlns="http://www.w3.org/2000/svg"
 width="960.000000pt" height="51.000000pt" viewBox="0 0 960.000000 51.000000"
 preserveAspectRatio="xMidYMid meet">
<metadata>
Created by potrace 1.16, written by Peter Selinger 2001-2019
</metadata>
<g transform="translate(0.000000,51.000000) scale(0.100000,-0.100000)"
fill="#000000" stroke="none">
<path d="M129 490 c-20 -10 -44 -31 -54 -47 -23 -35 -74 -235 -75 -292 0 -56
30 -106 81 -131 38 -20 82 -20 4686 -20 4405 0 4650 1 4683 18 53 26 75 69
111 215 l33 134 -25 49 c-13 26 -37 57 -52 68 l-28 21 -4662 2 c-4567 2 -4663
2 -4698 -17z"/>
</g>
</svg>
