<?xml version="1.0" standalone="no"?>
<!DOCTYPE svg PUBLIC "-//W3C//DTD SVG 20010904//EN"
 "http://www.w3.org/TR/2001/REC-SVG-20010904/DTD/svg10.dtd">
<svg version="1.0" xmlns="http://www.w3.org/2000/svg"
 width="399.000000pt" height="192.000000pt" viewBox="0 0 399.000000 192.000000"
 preserveAspectRatio="xMidYMid meet">
<metadata>
Created by potrace 1.16, written by Peter Selinger 2001-2019
</metadata>
<g transform="translate(0.000000,192.000000) scale(0.100000,-0.100000)"
fill="#000000" stroke="none">
<path d="M140 1909 c-43 -17 -80 -62 -95 -114 -49 -169 -60 -466 -25 -647 36
-188 110 -365 215 -514 73 -103 246 -270 354 -343 584 -389 1428 -387 2181 5
568 297 985 761 1166 1298 49 147 53 192 23 246 -33 58 -81 80 -178 80 -142 0
-174 -26 -224 -181 -42 -125 -80 -205 -152 -314 -402 -605 -1357 -952 -2145
-779 -414 92 -706 312 -806 609 -32 97 -43 269 -24 380 24 143 24 160 0 203
-35 61 -81 82 -181 81 -46 0 -95 -5 -109 -10z"/>
</g>
</svg>
