<?xml version="1.0" standalone="no"?>
<!DOCTYPE svg PUBLIC "-//W3C//DTD SVG 20010904//EN"
 "http://www.w3.org/TR/2001/REC-SVG-20010904/DTD/svg10.dtd">
<svg version="1.0" xmlns="http://www.w3.org/2000/svg"
 width="460.000000pt" height="1276.000000pt" viewBox="0 0 460.000000 1276.000000"
 preserveAspectRatio="xMidYMid meet">
<metadata>
Created by potrace 1.16, written by Peter Selinger 2001-2019
</metadata>
<g transform="translate(0.000000,1276.000000) scale(0.100000,-0.100000)"
fill="#000000" stroke="none">
<path d="M3255 12744 c-104 -25 -203 -81 -280 -159 -118 -118 -154 -208 -235
-600 -69 -333 -118 -677 -200 -1410 -72 -634 -131 -1039 -196 -1346 l-17 -76
-86 14 c-125 20 -260 54 -486 123 -401 123 -629 166 -825 157 -175 -8 -301
-63 -417 -184 -62 -65 -135 -203 -153 -289 -32 -153 8 -301 106 -394 95 -90
187 -116 378 -107 182 9 333 36 676 124 492 125 700 171 700 153 0 -17 -97
-289 -165 -460 -40 -102 -145 -356 -234 -565 -331 -775 -388 -938 -536 -1532
-461 -1856 -890 -3864 -1235 -5785 l-52 -287 19 -38 c10 -21 33 -48 52 -60 32
-21 45 -23 188 -23 169 0 209 9 239 55 41 62 581 1804 893 2880 313 1079 618
2204 871 3212 146 585 171 750 225 1488 39 533 66 784 121 1096 l6 36 87 -14
c125 -20 260 -54 486 -123 401 -123 629 -166 825 -157 175 8 301 63 417 184
62 65 135 203 153 289 32 153 -8 301 -106 394 -95 90 -187 116 -378 107 -210
-10 -402 -49 -946 -192 -114 -30 -278 -66 -407 -89 l-31 -5 25 82 c100 331
210 639 455 1272 348 900 472 1260 582 1690 40 153 31 268 -28 368 -87 149
-290 219 -491 171z"/>
</g>
</svg>
