<?xml version="1.0" standalone="no"?>
<!DOCTYPE svg PUBLIC "-//W3C//DTD SVG 20010904//EN"
 "http://www.w3.org/TR/2001/REC-SVG-20010904/DTD/svg10.dtd">
<svg version="1.0" xmlns="http://www.w3.org/2000/svg"
 width="584.000000pt" height="1260.000000pt" viewBox="0 0 584.000000 1260.000000"
 preserveAspectRatio="xMidYMid meet">
<metadata>
Created by potrace 1.16, written by Peter Selinger 2001-2019
</metadata>
<g transform="translate(0.000000,1260.000000) scale(0.100000,-0.100000)"
fill="#000000" stroke="none">
<path d="M4304 12580 c-140 -37 -279 -127 -360 -233 -89 -118 -131 -241 -188
-548 -50 -269 -72 -469 -116 -1049 -39 -508 -73 -811 -111 -997 -10 -52 -11
-52 -42 -47 -98 17 -268 63 -464 124 -408 127 -543 155 -763 154 -141 0 -162
-2 -227 -26 -180 -65 -311 -184 -392 -359 -145 -311 -20 -616 277 -678 113
-24 334 -6 572 45 63 13 230 56 370 94 267 72 352 93 461 115 l67 12 -33 -96
c-77 -226 -155 -421 -350 -881 -247 -582 -360 -878 -444 -1171 -28 -95 -55
-206 -60 -245 -41 -289 178 -511 484 -491 269 18 508 205 588 462 23 73 64
265 92 428 35 208 62 458 95 895 32 418 43 529 65 722 14 115 55 382 60 388 1
1 46 -7 101 -18 103 -21 236 -59 459 -130 401 -128 693 -168 879 -120 187 47
344 176 430 351 86 177 96 328 28 473 -41 87 -91 139 -173 180 -98 49 -160 60
-314 53 -208 -10 -377 -45 -920 -192 -171 -46 -355 -85 -355 -75 0 13 131 369
188 510 27 69 114 276 192 460 338 797 510 1297 510 1481 0 76 -25 166 -63
232 -93 158 -326 234 -543 177z"/>
<path d="M2780 6283 c-52 -9 -157 -46 -215 -76 -111 -59 -238 -200 -290 -323
-25 -59 -81 -300 -109 -469 -44 -261 -61 -423 -106 -1005 -17 -217 -37 -456
-46 -530 -16 -146 -64 -472 -70 -479 -14 -15 -231 42 -628 164 -289 88 -433
115 -631 116 -143 1 -216 -15 -325 -72 -179 -93 -303 -262 -347 -472 -14 -71
-15 -98 -6 -160 25 -179 141 -310 313 -357 61 -17 275 -14 401 5 144 22 282
53 584 135 280 76 493 126 501 118 13 -14 -173 -493 -386 -993 -323 -759 -500
-1274 -500 -1456 0 -162 84 -305 218 -373 279 -141 665 2 817 304 33 66 52
128 85 274 67 298 101 580 150 1216 33 428 59 684 91 880 24 151 26 160 46
160 42 0 265 -58 465 -121 394 -124 562 -159 770 -160 172 -1 275 27 396 109
112 77 201 194 255 336 27 72 31 93 31 191 1 91 -3 120 -22 170 -47 124 -135
206 -262 246 -52 16 -91 20 -192 20 -212 -1 -394 -34 -833 -155 -211 -57 -455
-116 -485 -116 -21 0 148 445 355 930 285 669 383 930 481 1275 76 265 51 432
-81 554 -103 95 -270 140 -425 114z"/>
</g>
</svg>
