<?xml version="1.0" standalone="no"?>
<!DOCTYPE svg PUBLIC "-//W3C//DTD SVG 20010904//EN"
 "http://www.w3.org/TR/2001/REC-SVG-20010904/DTD/svg10.dtd">
<svg version="1.0" xmlns="http://www.w3.org/2000/svg"
 width="849.000000pt" height="782.000000pt" viewBox="0 0 849.000000 782.000000"
 preserveAspectRatio="xMidYMid meet">
<metadata>
Created by potrace 1.16, written by Peter Selinger 2001-2019
</metadata>
<g transform="translate(0.000000,782.000000) scale(0.100000,-0.100000)"
fill="#000000" stroke="none">
<path d="M4977 7805 c-505 -96 -910 -543 -934 -1030 -7 -145 18 -262 83 -394
39 -79 61 -109 133 -180 93 -93 164 -140 269 -178 351 -129 779 -12 1082 296
99 101 164 194 225 323 71 151 89 237 90 413 0 144 -1 154 -33 245 -45 129
-105 222 -203 314 -90 85 -209 150 -329 181 -92 23 -286 28 -383 10z"/>
<path d="M197 4176 c-136 -49 -215 -184 -187 -320 21 -101 103 -190 201 -216
24 -7 1451 -9 4050 -8 l4014 3 53 29 c95 53 145 138 145 246 0 108 -50 193
-145 246 l-53 29 -4020 2 c-3364 2 -4026 0 -4058 -11z"/>
<path d="M3506 1839 c-145 -21 -336 -101 -476 -199 -95 -67 -231 -205 -293
-298 -65 -97 -131 -239 -159 -342 -19 -71 -22 -110 -23 -235 0 -144 1 -154 33
-245 68 -196 203 -352 376 -434 137 -66 205 -81 376 -80 124 1 159 5 245 27
388 104 716 427 822 812 24 86 28 118 28 235 0 159 -20 244 -88 374 -49 95
-177 231 -270 285 -158 93 -368 130 -571 100z"/>
</g>
</svg>
