<?xml version="1.0" standalone="no"?>
<!DOCTYPE svg PUBLIC "-//W3C//DTD SVG 20010904//EN"
 "http://www.w3.org/TR/2001/REC-SVG-20010904/DTD/svg10.dtd">
<svg version="1.0" xmlns="http://www.w3.org/2000/svg"
 width="528.000000pt" height="952.000000pt" viewBox="0 0 528.000000 952.000000"
 preserveAspectRatio="xMidYMid meet">
<metadata>
Created by potrace 1.16, written by Peter Selinger 2001-2019
</metadata>
<g transform="translate(0.000000,952.000000) scale(0.100000,-0.100000)"
fill="#000000" stroke="none">
<path d="M3350 9504 c-267 -57 -501 -226 -628 -454 -46 -82 -70 -163 -101
-346 -16 -91 -31 -167 -33 -170 -3 -2 -65 -20 -139 -38 -1140 -288 -2057
-1064 -2369 -2005 -52 -155 -80 -276 -80 -338 0 -58 28 -161 57 -215 113 -208
414 -277 681 -157 149 67 256 170 328 314 61 124 77 195 72 320 -3 94 -6 108
-41 178 -61 123 -156 193 -309 226 l-79 17 70 104 c313 472 811 868 1381 1098
125 50 358 127 365 121 3 -4 -561 -3344 -569 -3364 -2 -6 -107 -82 -232 -170
-126 -88 -267 -192 -315 -232 -245 -205 -419 -496 -483 -805 -25 -122 -21
-304 9 -424 46 -184 145 -346 278 -454 84 -69 240 -145 362 -176 95 -24 109
-25 300 -20 200 5 245 11 420 57 458 121 860 428 1044 797 36 72 91 232 91
266 0 36 -34 88 -71 108 -27 15 -57 18 -157 18 -164 0 -196 -16 -225 -115 -56
-192 -187 -381 -357 -517 -116 -93 -288 -185 -431 -228 l-56 -17 143 436 c79
240 190 576 247 746 l104 310 874 613 c481 336 921 649 978 695 263 207 482
470 617 739 184 366 219 763 98 1100 -157 436 -535 774 -1058 947 l-142 46 49
149 c61 187 75 277 59 383 -43 282 -288 474 -602 472 -47 0 -114 -7 -150 -15z
m626 -1350 c44 -14 126 -48 183 -75 526 -249 728 -698 521 -1157 -73 -159
-251 -378 -415 -511 -58 -47 -483 -347 -1236 -872 -24 -17 -6 42 203 674 126
381 323 979 439 1330 116 350 214 637 218 637 5 0 44 -12 87 -26z m-2264
-4811 c-42 -247 -77 -450 -79 -453 -7 -9 -72 33 -114 74 -23 22 -55 70 -72
105 -27 56 -30 74 -30 150 1 147 58 278 178 409 43 47 170 155 191 162 1 0
-33 -201 -74 -447z"/>
<path d="M1358 1430 c-281 -48 -555 -259 -679 -524 -128 -273 -93 -552 91
-736 121 -122 276 -177 465 -166 215 12 415 105 581 270 308 309 349 741 94
996 -136 136 -340 195 -552 160z"/>
</g>
</svg>
