<?xml version="1.0" standalone="no"?>
<!DOCTYPE svg PUBLIC "-//W3C//DTD SVG 20010904//EN"
 "http://www.w3.org/TR/2001/REC-SVG-20010904/DTD/svg10.dtd">
<svg version="1.0" xmlns="http://www.w3.org/2000/svg"
 width="288.000000pt" height="280.000000pt" viewBox="0 0 288.000000 280.000000"
 preserveAspectRatio="xMidYMid meet">
<metadata>
Created by potrace 1.16, written by Peter Selinger 2001-2019
</metadata>
<g transform="translate(0.000000,280.000000) scale(0.100000,-0.100000)"
fill="#000000" stroke="none">
<path d="M1502 2785 c-570 -87 -1087 -473 -1342 -1000 -103 -213 -147 -384
-157 -601 -35 -824 678 -1352 1533 -1134 641 164 1159 694 1304 1335 31 133
37 344 16 476 -79 478 -397 808 -881 915 -100 22 -357 27 -473 9z m435 -579
c203 -66 326 -210 361 -424 70 -425 -256 -925 -735 -1132 -151 -65 -247 -84
-408 -84 -125 0 -149 3 -222 27 -253 84 -387 296 -369 583 32 487 469 951 989
1050 112 21 283 12 384 -20z"/>
</g>
</svg>
