<?xml version="1.0" standalone="no"?>
<!DOCTYPE svg PUBLIC "-//W3C//DTD SVG 20010904//EN"
 "http://www.w3.org/TR/2001/REC-SVG-20010904/DTD/svg10.dtd">
<svg version="1.0" xmlns="http://www.w3.org/2000/svg"
 width="397.000000pt" height="175.000000pt" viewBox="0 0 397.000000 175.000000"
 preserveAspectRatio="xMidYMid meet">
<metadata>
Created by potrace 1.16, written by Peter Selinger 2001-2019
</metadata>
<g transform="translate(0.000000,175.000000) scale(0.100000,-0.100000)"
fill="#000000" stroke="none">
<path d="M2080 1739 c-210 -23 -460 -82 -656 -154 -228 -84 -559 -269 -727
-407 -328 -269 -553 -575 -662 -900 -46 -139 -46 -186 -1 -236 l34 -37 186 0
185 0 31 30 c21 20 37 51 51 100 136 457 644 880 1237 1029 185 47 303 60 512
60 209 0 317 -14 477 -60 270 -78 503 -257 607 -466 76 -154 88 -257 60 -549
-6 -66 -6 -67 29 -105 l35 -39 186 0 185 0 30 29 c17 16 35 43 40 60 41 125
53 390 25 537 -109 576 -573 978 -1264 1094 -114 20 -476 28 -600 14z"/>
</g>
</svg>
