<?xml version="1.0" standalone="no"?>
<!DOCTYPE svg PUBLIC "-//W3C//DTD SVG 20010904//EN"
 "http://www.w3.org/TR/2001/REC-SVG-20010904/DTD/svg10.dtd">
<svg version="1.0" xmlns="http://www.w3.org/2000/svg"
 width="595.000000pt" height="1408.000000pt" viewBox="0 0 595.000000 1408.000000"
 preserveAspectRatio="xMidYMid meet">
<metadata>
Created by potrace 1.16, written by Peter Selinger 2001-2019
</metadata>
<g transform="translate(0.000000,1408.000000) scale(0.100000,-0.100000)"
fill="#000000" stroke="none">
<path d="M5530 14074 c-399 -27 -717 -78 -1035 -165 -959 -263 -1605 -771
-1840 -1449 -40 -117 -884 -3479 -910 -3630 -23 -129 -23 -366 -1 -484 90
-467 392 -830 891 -1066 66 -32 150 -68 188 -81 64 -23 85 -39 51 -39 -33 0
-377 -121 -510 -180 -545 -240 -984 -599 -1241 -1013 -70 -114 -151 -283 -193
-401 -39 -113 -894 -3532 -915 -3658 -20 -122 -20 -378 0 -492 142 -814 1001
-1369 2190 -1413 247 -9 253 -4 311 230 l37 153 -19 40 c-10 21 -34 49 -53 61
-32 22 -44 23 -215 23 -182 0 -327 15 -436 45 -386 107 -662 418 -737 828 -22
122 -22 359 0 489 28 161 875 3532 914 3637 217 582 752 1071 1408 1286 196
65 419 105 583 105 108 0 164 22 187 72 8 18 31 97 50 175 l36 142 -20 45
c-29 66 -59 78 -221 87 -242 14 -433 63 -620 160 -474 247 -688 721 -575 1275
36 175 856 3436 885 3519 167 477 639 910 1191 1093 224 74 412 102 690 102
185 0 222 8 253 55 17 25 86 289 86 327 0 37 -34 90 -71 110 -28 15 -55 18
-164 16 -71 -1 -150 -3 -175 -4z"/>
</g>
</svg>
