<?xml version="1.0" standalone="no"?>
<!DOCTYPE svg PUBLIC "-//W3C//DTD SVG 20010904//EN"
 "http://www.w3.org/TR/2001/REC-SVG-20010904/DTD/svg10.dtd">
<svg version="1.0" xmlns="http://www.w3.org/2000/svg"
 width="682.000000pt" height="1124.000000pt" viewBox="0 0 682.000000 1124.000000"
 preserveAspectRatio="xMidYMid meet">
<metadata>
Created by potrace 1.16, written by Peter Selinger 2001-2019
</metadata>
<g transform="translate(0.000000,1124.000000) scale(0.100000,-0.100000)"
fill="#000000" stroke="none">
<path d="M5570 11164 c-459 -40 -850 -76 -868 -79 -18 -3 -47 -21 -66 -39 -28
-29 -38 -51 -61 -144 -30 -123 -28 -155 12 -203 46 -54 67 -59 240 -59 398 0
664 -46 692 -118 36 -95 26 -155 -142 -829 l-142 -573 -658 0 c-711 0 -684 2
-736 -54 -29 -31 -71 -179 -71 -253 0 -41 5 -58 26 -83 53 -63 23 -60 704 -60
341 0 620 -2 620 -5 0 -5 -530 -2128 -551 -2209 l-10 -38 -44 76 c-211 370
-517 591 -896 647 -120 17 -343 6 -499 -26 -642 -132 -1292 -589 -1808 -1273
-481 -637 -800 -1432 -898 -2242 -24 -198 -25 -603 0 -785 118 -896 599 -1504
1309 -1657 152 -32 430 -32 575 0 399 89 766 313 1154 704 l167 168 11 -43
c106 -419 390 -712 796 -819 111 -29 130 -31 294 -32 163 0 181 2 265 28 233
71 417 219 582 466 186 280 326 658 508 1375 l49 190 -20 40 c-34 69 -58 80
-198 83 -137 4 -182 -7 -211 -52 -9 -14 -48 -146 -86 -293 -203 -784 -352
-1144 -559 -1354 -99 -100 -164 -136 -261 -145 -325 -31 -435 270 -329 904 11
64 367 1506 791 3205 l771 3087 320 0 c343 0 347 1 397 54 28 30 71 178 71
247 0 56 -31 107 -80 131 -31 16 -68 18 -312 18 -180 0 -278 4 -278 10 0 6
108 442 240 970 132 528 240 977 240 998 0 81 -73 143 -165 141 -27 -1 -426
-35 -885 -75z m-1986 -4368 c283 -55 501 -275 639 -646 44 -118 91 -310 112
-456 l16 -110 -354 -1417 -355 -1417 -106 -160 c-457 -685 -980 -1089 -1446
-1116 -375 -22 -636 246 -731 750 -16 83 -23 166 -26 328 -10 409 38 711 247
1548 116 466 192 736 264 945 202 590 443 1003 781 1340 334 334 651 469 959
411z"/>
<path d="M191 529 c-230 -67 -259 -390 -45 -499 l49 -25 2255 -3 c2500 -2
2315 -7 2399 65 122 104 122 302 0 406 -84 72 101 67 -2383 66 -1411 0 -2253
-4 -2275 -10z"/>
</g>
</svg>
