<?xml version="1.0" standalone="no"?>
<!DOCTYPE svg PUBLIC "-//W3C//DTD SVG 20010904//EN"
 "http://www.w3.org/TR/2001/REC-SVG-20010904/DTD/svg10.dtd">
<svg version="1.0" xmlns="http://www.w3.org/2000/svg"
 width="619.000000pt" height="954.000000pt" viewBox="0 0 619.000000 954.000000"
 preserveAspectRatio="xMidYMid meet">
<metadata>
Created by potrace 1.16, written by Peter Selinger 2001-2019
</metadata>
<g transform="translate(0.000000,954.000000) scale(0.100000,-0.100000)"
fill="#000000" stroke="none">
<path d="M4660 9533 c-340 -32 -686 -128 -1020 -282 -824 -379 -1613 -1102
-2245 -2056 -179 -270 -285 -453 -435 -750 -286 -567 -462 -1049 -634 -1740
-239 -963 -338 -1679 -323 -2330 14 -575 105 -1027 281 -1390 195 -402 489
-690 867 -850 379 -160 844 -179 1349 -54 413 102 850 344 1260 697 334 287
659 641 856 932 155 229 308 515 403 755 148 374 286 923 333 1320 19 163 16
524 -6 665 -58 388 -206 761 -437 1104 -324 483 -787 716 -1418 716 -613 -1
-1192 -317 -1669 -912 -47 -59 -87 -106 -89 -105 -4 5 112 424 173 627 289
954 627 1627 1102 2195 42 50 144 158 226 240 569 568 1190 843 1751 774 305
-37 513 -164 611 -374 32 -68 31 -75 -13 -75 -107 -1 -301 -80 -403 -164 -235
-195 -339 -542 -231 -773 59 -125 187 -224 327 -253 95 -20 265 -9 359 24 210
72 380 232 460 433 50 124 78 285 83 474 5 192 -3 260 -44 399 -114 377 -423
629 -886 724 -153 31 -428 45 -588 29z m-1044 -3697 c297 -64 479 -239 588
-566 58 -174 69 -263 63 -505 -10 -373 -66 -670 -302 -1615 -214 -856 -332
-1217 -509 -1565 -126 -248 -271 -441 -483 -645 -313 -301 -620 -438 -1023
-457 -215 -9 -380 33 -527 136 -208 147 -349 395 -409 723 -48 264 -17 649
107 1305 46 249 60 313 110 513 12 47 41 167 66 268 198 812 571 1529 1019
1962 258 248 553 409 824 449 41 6 86 13 100 15 52 9 308 -3 376 -18z"/>
</g>
</svg>
