<?xml version="1.0" standalone="no"?>
<!DOCTYPE svg PUBLIC "-//W3C//DTD SVG 20010904//EN"
 "http://www.w3.org/TR/2001/REC-SVG-20010904/DTD/svg10.dtd">
<svg version="1.0" xmlns="http://www.w3.org/2000/svg"
 width="827.000000pt" height="1384.000000pt" viewBox="0 0 827.000000 1384.000000"
 preserveAspectRatio="xMidYMid meet">
<metadata>
Created by potrace 1.16, written by Peter Selinger 2001-2019
</metadata>
<g transform="translate(0.000000,1384.000000) scale(0.100000,-0.100000)"
fill="#000000" stroke="none">
<path d="M7900 13831 c-49 -15 -86 -40 -126 -83 -24 -26 -1553 -2657 -3897
-6704 -2937 -5073 -3859 -6674 -3868 -6713 -29 -137 65 -284 206 -322 54 -15
142 -6 191 19 22 11 58 40 80 64 24 26 1548 2649 3897 6704 2937 5073 3859
6674 3868 6713 29 135 -64 283 -201 321 -41 11 -114 12 -150 1z"/>
</g>
</svg>
