<?xml version="1.0" standalone="no"?>
<!DOCTYPE svg PUBLIC "-//W3C//DTD SVG 20010904//EN"
 "http://www.w3.org/TR/2001/REC-SVG-20010904/DTD/svg10.dtd">
<svg version="1.0" xmlns="http://www.w3.org/2000/svg"
 width="580.000000pt" height="601.000000pt" viewBox="0 0 580.000000 601.000000"
 preserveAspectRatio="xMidYMid meet">
<metadata>
Created by potrace 1.16, written by Peter Selinger 2001-2019
</metadata>
<g transform="translate(0.000000,601.000000) scale(0.100000,-0.100000)"
fill="#000000" stroke="none">
<path d="M3130 6003 c-87 -10 -237 -46 -343 -83 -364 -125 -675 -334 -1009
-678 -473 -488 -815 -1115 -996 -1827 -76 -299 -110 -523 -119 -800 -32 -948
387 -1673 1064 -1846 402 -103 793 3 1195 323 99 79 278 250 360 345 l46 52
17 -47 c170 -455 604 -734 1105 -709 386 19 678 248 911 716 132 265 239 585
384 1156 l49 190 -20 40 c-34 69 -58 80 -198 83 -137 4 -182 -7 -211 -52 -9
-14 -50 -153 -91 -309 -202 -781 -363 -1161 -572 -1359 -85 -80 -156 -116
-243 -124 -183 -18 -301 72 -346 265 -24 103 -24 380 1 541 31 200 48 271 452
1890 379 1517 396 1588 392 1658 -22 342 -466 449 -741 179 -35 -34 -71 -73
-81 -87 -10 -15 -19 -21 -22 -13 -20 45 -121 172 -194 243 -181 178 -393 262
-648 258 -59 0 -123 -3 -142 -5z m311 -362 c205 -77 363 -323 439 -683 42
-201 67 -74 -275 -1438 -168 -674 -314 -1273 -325 -1333 l-18 -108 -85 -127
c-256 -385 -537 -667 -792 -795 -121 -60 -206 -82 -325 -82 -93 0 -111 3 -163
27 -193 91 -317 392 -317 771 0 319 63 677 256 1452 202 809 302 1119 469
1460 231 470 557 803 850 871 81 19 214 12 286 -15z"/>
<path d="M110 329 c-56 -23 -110 -101 -110 -159 0 -60 55 -137 113 -159 20 -8
703 -11 2260 -11 2155 0 2233 1 2273 19 63 29 89 72 89 151 0 79 -26 122 -89
151 -40 18 -117 19 -2276 18 -1461 0 -2244 -4 -2260 -10z"/>
</g>
</svg>
