<?xml version="1.0" standalone="no"?>
<!DOCTYPE svg PUBLIC "-//W3C//DTD SVG 20010904//EN"
 "http://www.w3.org/TR/2001/REC-SVG-20010904/DTD/svg10.dtd">
<svg version="1.0" xmlns="http://www.w3.org/2000/svg"
 width="572.000000pt" height="641.000000pt" viewBox="0 0 572.000000 641.000000"
 preserveAspectRatio="xMidYMid meet">
<metadata>
Created by potrace 1.16, written by Peter Selinger 2001-2019
</metadata>
<g transform="translate(0.000000,641.000000) scale(0.100000,-0.100000)"
fill="#000000" stroke="none">
<path d="M3690 6404 c-223 -26 -376 -60 -570 -124 -1076 -358 -1996 -1392
-2295 -2579 -78 -310 -99 -501 -92 -829 5 -253 21 -379 73 -572 146 -541 476
-960 937 -1192 362 -181 799 -233 1245 -147 475 92 990 352 1407 712 665 573
1134 1390 1274 2222 60 355 55 732 -14 1037 -179 792 -713 1321 -1470 1454
-78 14 -424 26 -495 18z m260 -518 c105 -19 181 -50 269 -110 100 -68 180
-165 241 -291 84 -173 105 -299 97 -584 -9 -314 -51 -550 -222 -1231 -167
-664 -252 -924 -400 -1225 -126 -257 -222 -395 -398 -573 -204 -207 -441 -351
-682 -413 -118 -30 -325 -33 -425 -5 -209 58 -391 224 -476 436 -107 263 -106
591 2 1145 45 230 237 995 308 1230 186 613 402 997 716 1271 319 279 667 405
970 350z"/>
<path d="M190 501 c-69 -21 -131 -74 -166 -141 -25 -48 -25 -162 0 -210 25
-49 74 -98 121 -123 l40 -22 2160 -3 c1542 -2 2171 0 2200 8 111 31 180 124
180 245 0 117 -59 201 -168 242 -24 9 -562 11 -2187 11 -1185 0 -2166 -3
-2180 -7z"/>
</g>
</svg>
