<?xml version="1.0" standalone="no"?>
<!DOCTYPE svg PUBLIC "-//W3C//DTD SVG 20010904//EN"
 "http://www.w3.org/TR/2001/REC-SVG-20010904/DTD/svg10.dtd">
<svg version="1.0" xmlns="http://www.w3.org/2000/svg"
 width="597.000000pt" height="170.000000pt" viewBox="0 0 597.000000 170.000000"
 preserveAspectRatio="xMidYMid meet">
<metadata>
Created by potrace 1.16, written by Peter Selinger 2001-2019
</metadata>
<g transform="translate(0.000000,170.000000) scale(0.100000,-0.100000)"
fill="#000000" stroke="none">
<path d="M2005 1685 c-139 -26 -295 -81 -460 -164 -385 -191 -737 -464 -1302
-1008 -237 -228 -255 -253 -233 -333 13 -50 86 -133 142 -161 42 -22 90 -24
130 -6 15 7 98 78 185 158 543 503 957 779 1309 870 70 18 116 23 214 23 114
0 133 -2 211 -30 162 -58 231 -112 574 -458 322 -324 396 -386 550 -466 530
-271 1165 -39 2050 752 218 195 548 516 567 551 21 39 23 99 4 135 -20 38
-116 129 -149 141 -44 17 -89 13 -127 -10 -19 -12 -91 -74 -160 -139 -784
-738 -1373 -1025 -1775 -864 -159 64 -254 145 -655 560 -91 94 -205 200 -255
238 -110 82 -281 168 -395 197 -111 28 -311 35 -425 14z"/>
</g>
</svg>
