<?xml version="1.0" standalone="no"?>
<!DOCTYPE svg PUBLIC "-//W3C//DTD SVG 20010904//EN"
 "http://www.w3.org/TR/2001/REC-SVG-20010904/DTD/svg10.dtd">
<svg version="1.0" xmlns="http://www.w3.org/2000/svg"
 width="534.000000pt" height="601.000000pt" viewBox="0 0 534.000000 601.000000"
 preserveAspectRatio="xMidYMid meet">
<metadata>
Created by potrace 1.16, written by Peter Selinger 2001-2019
</metadata>
<g transform="translate(0.000000,601.000000) scale(0.100000,-0.100000)"
fill="#000000" stroke="none">
<path d="M3405 5999 c-240 -29 -535 -122 -792 -249 -714 -353 -1315 -1011
-1656 -1811 -101 -237 -195 -557 -236 -804 -113 -680 8 -1305 341 -1757 77
-105 250 -276 353 -350 292 -207 651 -310 1030 -295 289 12 556 77 850 208
344 154 648 370 955 678 416 418 702 877 891 1431 291 849 235 1666 -153 2248
-239 357 -601 596 -1034 682 -126 25 -415 35 -549 19z m421 -364 c151 -51 268
-145 363 -290 205 -313 234 -763 95 -1439 -37 -181 -171 -725 -230 -936 -189
-672 -412 -1098 -759 -1445 -347 -348 -706 -500 -1040 -440 -128 23 -232 80
-335 184 -127 129 -200 268 -245 468 -86 377 -48 745 161 1587 170 683 288
1027 459 1336 265 478 641 831 1022 959 172 58 366 64 509 16z"/>
<path d="M110 329 c-56 -23 -110 -101 -110 -159 0 -60 55 -137 113 -159 20 -8
653 -11 2090 -11 1989 0 2063 1 2103 19 63 29 89 72 89 151 0 79 -26 122 -89
151 -40 18 -113 19 -2106 18 -1348 0 -2074 -4 -2090 -10z"/>
</g>
</svg>
