<?xml version="1.0" standalone="no"?>
<!DOCTYPE svg PUBLIC "-//W3C//DTD SVG 20010904//EN"
 "http://www.w3.org/TR/2001/REC-SVG-20010904/DTD/svg10.dtd">
<svg version="1.0" xmlns="http://www.w3.org/2000/svg"
 width="439.000000pt" height="627.000000pt" viewBox="0 0 439.000000 627.000000"
 preserveAspectRatio="xMidYMid meet">
<metadata>
Created by potrace 1.16, written by Peter Selinger 2001-2019
</metadata>
<g transform="translate(0.000000,627.000000) scale(0.100000,-0.100000)"
fill="#000000" stroke="none">
<path d="M3910 6252 c-19 -10 -92 -51 -161 -90 -353 -201 -784 -344 -1259
-416 -244 -37 -459 -55 -800 -66 -335 -11 -353 -14 -390 -74 -10 -17 -39 -113
-65 -214 -51 -206 -51 -235 6 -291 50 -51 80 -54 408 -42 437 16 731 47 1042
111 79 16 145 28 147 25 10 -10 -1059 -4261 -1084 -4313 -32 -65 -107 -142
-166 -170 -123 -57 -541 -92 -1127 -92 -361 0 -348 9 -421 -287 -47 -194 -47
-222 1 -278 47 -54 65 -56 344 -45 138 5 586 15 998 22 770 12 1773 3 2494
-23 287 -11 303 -10 340 7 21 11 47 33 59 51 25 38 104 344 104 404 0 53 -31
104 -79 128 -32 16 -75 19 -441 24 -415 6 -603 17 -770 43 -154 24 -190 51
-190 147 0 30 242 1015 656 2670 486 1944 654 2631 650 2657 -6 39 -30 74 -70
104 -40 30 -176 35 -226 8z"/>
</g>
</svg>
