<?xml version="1.0" standalone="no"?>
<!DOCTYPE svg PUBLIC "-//W3C//DTD SVG 20010904//EN"
 "http://www.w3.org/TR/2001/REC-SVG-20010904/DTD/svg10.dtd">
<svg version="1.0" xmlns="http://www.w3.org/2000/svg"
 width="409.000000pt" height="192.000000pt" viewBox="0 0 409.000000 192.000000"
 preserveAspectRatio="xMidYMid meet">
<metadata>
Created by potrace 1.16, written by Peter Selinger 2001-2019
</metadata>
<g transform="translate(0.000000,192.000000) scale(0.100000,-0.100000)"
fill="#000000" stroke="none">
<path d="M140 1909 c-43 -17 -80 -62 -95 -114 -28 -97 -45 -241 -45 -381 0
-235 38 -400 140 -601 71 -141 135 -229 250 -343 231 -228 554 -383 930 -445
136 -23 400 -30 550 -16 997 96 1884 745 2166 1585 49 147 53 192 23 246 -37
66 -77 80 -227 80 -72 0 -143 -5 -159 -11 -53 -20 -82 -58 -109 -148 -54 -179
-157 -345 -303 -491 -110 -110 -194 -175 -337 -260 -512 -305 -1229 -395
-1762 -221 -189 62 -325 143 -448 266 -164 164 -225 373 -179 612 20 103 19
128 -6 173 -38 67 -76 80 -230 79 -74 0 -145 -5 -159 -10z"/>
</g>
</svg>
