<?xml version="1.0" standalone="no"?>
<!DOCTYPE svg PUBLIC "-//W3C//DTD SVG 20010904//EN"
 "http://www.w3.org/TR/2001/REC-SVG-20010904/DTD/svg10.dtd">
<svg version="1.0" xmlns="http://www.w3.org/2000/svg"
 width="476.000000pt" height="992.000000pt" viewBox="0 0 476.000000 992.000000"
 preserveAspectRatio="xMidYMid meet">
<metadata>
Created by potrace 1.16, written by Peter Selinger 2001-2019
</metadata>
<g transform="translate(0.000000,992.000000) scale(0.100000,-0.100000)"
fill="#000000" stroke="none">
<path d="M3700 9900 c-300 -64 -565 -275 -697 -555 -60 -127 -83 -225 -83
-354 0 -189 53 -325 175 -447 315 -315 901 -210 1230 220 67 88 138 236 165
340 25 98 27 264 5 351 -44 173 -162 319 -316 393 -148 71 -309 89 -479 52z"/>
<path d="M3010 7253 c-640 -104 -1160 -507 -1342 -1038 -43 -124 -46 -156 -20
-204 33 -61 66 -71 242 -71 207 0 226 11 271 155 64 207 222 416 425 561 66
47 234 138 241 130 6 -6 -468 -1430 -480 -1443 -7 -7 -295 -208 -642 -448
-346 -239 -677 -472 -734 -517 -441 -349 -786 -865 -910 -1364 -48 -194 -56
-256 -56 -464 0 -222 14 -323 72 -505 77 -242 184 -418 367 -601 132 -132 266
-228 417 -299 l85 -40 -58 -176 c-62 -188 -83 -301 -73 -383 35 -276 225 -477
505 -532 375 -74 827 160 1008 521 44 89 70 182 100 366 l27 164 60 19 c365
115 792 339 1085 570 485 383 851 876 1043 1406 128 355 134 528 22 696 -109
165 -347 241 -580 185 -153 -37 -266 -103 -376 -219 -91 -95 -150 -204 -185
-339 -39 -156 -28 -271 38 -395 58 -109 176 -192 318 -224 79 -18 78 -9 12
-114 -293 -461 -761 -865 -1251 -1080 -51 -22 -97 -39 -100 -38 -9 4 554 3347
565 3357 5 4 74 52 154 107 397 272 642 629 742 1081 18 80 22 130 22 273 0
158 -3 185 -27 275 -68 252 -215 448 -410 544 -174 87 -194 91 -383 90 -93 -1
-180 -4 -194 -6z m428 -718 c3 -79 0 -119 -17 -190 -21 -87 -111 -291 -118
-268 -2 6 19 144 46 307 28 162 51 301 52 308 0 7 8 -3 16 -22 9 -21 18 -76
21 -135z m-1511 -2478 c-3 -7 -192 -577 -422 -1267 -229 -690 -418 -1256 -420
-1259 -7 -7 -89 47 -157 103 -143 118 -261 302 -310 481 -18 68 -22 107 -22
265 -1 162 2 197 23 280 54 217 149 407 300 605 62 81 219 243 304 313 74 61
686 490 701 491 4 1 6 -5 3 -12z"/>
</g>
</svg>
