<?xml version="1.0" standalone="no"?>
<!DOCTYPE svg PUBLIC "-//W3C//DTD SVG 20010904//EN"
 "http://www.w3.org/TR/2001/REC-SVG-20010904/DTD/svg10.dtd">
<svg version="1.0" xmlns="http://www.w3.org/2000/svg"
 width="539.000000pt" height="596.000000pt" viewBox="0 0 539.000000 596.000000"
 preserveAspectRatio="xMidYMid meet">
<metadata>
Created by potrace 1.16, written by Peter Selinger 2001-2019
</metadata>
<g transform="translate(0.000000,596.000000) scale(0.100000,-0.100000)"
fill="#000000" stroke="none">
<path d="M3323 5946 c-172 -42 -326 -180 -372 -334 -10 -31 -98 -542 -197
-1134 -98 -593 -183 -1078 -187 -1078 -5 0 -281 269 -613 598 -383 378 -624
607 -655 625 -184 107 -495 -37 -618 -287 -42 -86 -59 -187 -42 -260 24 -110
3 -94 863 -615 432 -262 783 -479 779 -483 -3 -4 -440 -209 -971 -456 -531
-247 -996 -465 -1035 -483 -91 -44 -179 -131 -222 -219 -98 -203 -50 -397 122
-488 44 -24 61 -27 145 -27 82 0 103 4 151 26 31 15 458 292 950 616 492 324
906 597 921 607 25 16 -2 -67 -343 -1091 -340 -1021 -369 -1113 -369 -1176 0
-137 72 -230 210 -271 225 -67 519 99 589 332 10 31 98 542 197 1134 98 593
183 1078 187 1078 5 0 281 -269 613 -597 383 -379 624 -608 655 -626 184 -107
495 37 618 287 42 86 59 187 42 260 -24 110 -3 94 -863 615 -432 262 -783 479
-779 483 3 4 440 209 971 456 531 247 996 465 1035 483 91 44 179 131 222 219
98 203 50 397 -122 488 -44 24 -61 27 -145 27 -82 0 -103 -4 -151 -26 -31 -15
-458 -292 -950 -616 -492 -324 -906 -597 -921 -607 -25 -16 2 67 343 1091 340
1021 369 1113 369 1176 0 73 -15 121 -56 174 -71 93 -225 134 -371 99z"/>
</g>
</svg>
