<?xml version="1.0" standalone="no"?>
<!DOCTYPE svg PUBLIC "-//W3C//DTD SVG 20010904//EN"
 "http://www.w3.org/TR/2001/REC-SVG-20010904/DTD/svg10.dtd">
<svg version="1.0" xmlns="http://www.w3.org/2000/svg"
 width="409.000000pt" height="158.000000pt" viewBox="0 0 409.000000 158.000000"
 preserveAspectRatio="xMidYMid meet">
<metadata>
Created by potrace 1.16, written by Peter Selinger 2001-2019
</metadata>
<g transform="translate(0.000000,158.000000) scale(0.100000,-0.100000)"
fill="#000000" stroke="none">
<path d="M790 1560 c-235 -50 -459 -197 -609 -399 -64 -87 -136 -235 -161
-335 -25 -98 -27 -264 -5 -351 76 -301 345 -490 670 -472 230 13 440 107 622
280 99 94 156 172 214 292 66 135 89 230 89 364 0 132 -18 211 -72 314 -131
251 -432 375 -748 307z"/>
<path d="M3260 1560 c-232 -49 -456 -195 -607 -394 -61 -81 -138 -242 -163
-340 -24 -97 -27 -262 -5 -355 69 -292 347 -486 670 -468 230 13 440 107 621
279 96 92 162 182 218 299 63 129 86 226 86 358 0 127 -16 197 -70 307 -124
255 -430 383 -750 314z"/>
</g>
</svg>
