<?xml version="1.0" standalone="no"?>
<!DOCTYPE svg PUBLIC "-//W3C//DTD SVG 20010904//EN"
 "http://www.w3.org/TR/2001/REC-SVG-20010904/DTD/svg10.dtd">
<svg version="1.0" xmlns="http://www.w3.org/2000/svg"
 width="651.000000pt" height="1369.000000pt" viewBox="0 0 651.000000 1369.000000"
 preserveAspectRatio="xMidYMid meet">
<metadata>
Created by potrace 1.16, written by Peter Selinger 2001-2019
</metadata>
<g transform="translate(0.000000,1369.000000) scale(0.100000,-0.100000)"
fill="#000000" stroke="none">
<path d="M5789 13670 c-20 -11 -55 -41 -78 -67 -73 -84 -261 -251 -396 -353
-369 -278 -779 -471 -1229 -580 -170 -42 -352 -68 -556 -80 -231 -14 -235 -15
-274 -54 -30 -31 -37 -51 -81 -225 -53 -213 -53 -239 -4 -296 44 -50 87 -59
254 -50 372 18 738 93 1078 222 65 25 121 43 123 40 9 -8 -903 -3632 -925
-3679 -30 -63 -94 -134 -143 -159 -95 -49 -300 -70 -753 -78 -481 -8 -453 7
-524 -275 -22 -91 -41 -183 -41 -204 0 -48 32 -98 80 -126 35 -21 38 -21 1770
-21 1651 0 1737 1 1768 18 50 27 66 64 116 264 40 159 45 190 36 223 -13 47
-63 98 -110 109 -19 5 -192 12 -385 14 -442 7 -630 30 -657 81 -30 56 -21 96
611 2623 342 1366 621 2502 621 2524 0 54 -31 104 -81 129 -52 27 -169 27
-220 0z m-424 -5969 c83 -4 -507 -7 -1310 -7 -803 0 -1428 2 -1390 3 424 21
2290 24 2700 4z"/>
<path d="M1233 7120 c-130 -26 -233 -147 -233 -275 0 -100 70 -207 165 -251
l50 -24 2538 0 c2222 0 2542 2 2573 15 58 24 108 70 140 127 25 46 29 63 29
133 0 70 -4 87 -29 133 -32 57 -81 102 -143 130 -36 16 -188 17 -2543 18
-1378 1 -2524 -2 -2547 -6z"/>
<path d="M3105 6310 c-329 -21 -677 -144 -990 -350 -419 -276 -808 -714 -1123
-1266 -80 -141 -254 -503 -315 -659 -122 -307 -236 -690 -244 -817 -19 -281
179 -476 569 -560 140 -30 439 -32 568 -5 613 131 1141 628 1350 1272 37 114
43 144 48 248 5 134 -6 205 -49 318 -35 92 -131 240 -202 312 -95 97 -139 88
-327 -65 -168 -137 -176 -178 -60 -313 131 -152 151 -248 91 -425 -134 -395
-471 -735 -826 -831 -65 -18 -108 -22 -225 -23 -205 0 -310 31 -310 93 0 37
58 249 121 441 142 434 343 857 559 1181 355 528 779 851 1218 924 140 24 372
17 487 -14 273 -73 483 -278 549 -534 66 -255 36 -574 -105 -1142 -89 -356
-175 -542 -374 -810 -325 -439 -801 -809 -1518 -1182 -398 -207 -646 -354
-893 -528 -559 -397 -912 -828 -1062 -1295 -17 -52 -33 -111 -36 -130 -9 -45
17 -97 64 -128 34 -23 39 -23 252 -20 248 3 259 7 290 89 9 24 29 77 44 117
39 102 109 205 196 288 127 120 236 162 392 150 258 -20 427 -80 836 -299 365
-196 547 -272 764 -319 146 -32 435 -32 586 1 294 62 594 213 845 423 111 93
308 294 398 408 318 398 590 948 738 1493 33 121 30 164 -13 204 -40 38 -73
43 -274 43 -269 0 -273 -2 -324 -172 -96 -323 -269 -603 -522 -843 -214 -203
-434 -329 -678 -387 -80 -19 -136 -21 -890 -29 -443 -5 -895 -8 -1005 -7
l-200 3 130 81 c201 125 371 217 875 474 256 130 560 289 675 352 1015 556
1586 1041 1841 1563 85 175 136 358 164 587 19 150 8 486 -19 622 -49 239
-142 466 -272 662 -101 151 -312 362 -464 463 -294 195 -667 320 -1005 336
-58 3 -130 7 -160 9 -30 1 -104 -1 -165 -4z"/>
</g>
</svg>
