<?xml version="1.0" standalone="no"?>
<!DOCTYPE svg PUBLIC "-//W3C//DTD SVG 20010904//EN"
 "http://www.w3.org/TR/2001/REC-SVG-20010904/DTD/svg10.dtd">
<svg version="1.0" xmlns="http://www.w3.org/2000/svg"
 width="917.000000pt" height="1115.000000pt" viewBox="0 0 917.000000 1115.000000"
 preserveAspectRatio="xMidYMid meet">
<metadata>
Created by potrace 1.16, written by Peter Selinger 2001-2019
</metadata>
<g transform="translate(0.000000,1115.000000) scale(0.100000,-0.100000)"
fill="#000000" stroke="none">
<path d="M5809 11130 c-20 -10 -44 -32 -54 -47 -10 -15 -48 -147 -85 -293
l-66 -265 -35 -3 c-641 -47 -1316 -248 -1949 -579 -1773 -928 -3136 -2769
-3519 -4753 -66 -341 -91 -582 -98 -935 -8 -400 14 -667 83 -1013 71 -355 168
-641 329 -967 177 -359 356 -609 634 -885 518 -516 1166 -819 1941 -910 52 -6
95 -12 97 -13 1 -2 -13 -63 -32 -137 -41 -159 -43 -209 -14 -257 37 -60 79
-73 236 -73 213 0 229 13 287 247 20 81 41 164 47 184 l9 36 83 7 c286 25 664
120 985 247 760 302 1492 879 2037 1604 380 506 673 1092 831 1664 39 143 42
183 14 229 -32 53 -69 62 -242 62 -210 0 -228 -11 -268 -170 -33 -132 -106
-350 -172 -515 -534 -1333 -1645 -2362 -2772 -2570 -124 -22 -355 -49 -363
-41 -4 3 2247 9018 2254 9025 7 9 271 -20 363 -39 582 -122 1009 -538 1233
-1202 184 -544 225 -1247 116 -1981 -19 -134 -19 -139 -2 -175 10 -20 33 -47
52 -59 32 -21 45 -23 188 -23 174 0 211 9 242 60 11 19 217 822 492 1924 l473
1891 -20 40 c-30 62 -73 85 -158 85 -52 0 -79 -5 -102 -19 -17 -11 -246 -255
-509 -543 -584 -640 -524 -578 -538 -555 -134 213 -244 353 -393 497 -304 296
-668 485 -1094 570 -80 16 -161 30 -180 32 -19 2 -34 8 -34 13 1 6 28 116 60
246 l58 236 -25 48 c-41 84 -57 90 -232 92 -134 3 -156 1 -188 -17z m-349
-1175 c0 -13 -2232 -8930 -2236 -8934 -10 -11 -229 41 -359 84 -618 203 -1100
659 -1343 1270 -301 759 -283 1731 58 3094 305 1217 701 2102 1268 2829 598
767 1394 1330 2232 1577 185 55 380 96 380 80z"/>
</g>
</svg>
