<?xml version="1.0" standalone="no"?>
<!DOCTYPE svg PUBLIC "-//W3C//DTD SVG 20010904//EN"
 "http://www.w3.org/TR/2001/REC-SVG-20010904/DTD/svg10.dtd">
<svg version="1.0" xmlns="http://www.w3.org/2000/svg"
 width="654.000000pt" height="206.000000pt" viewBox="0 0 654.000000 206.000000"
 preserveAspectRatio="xMidYMid meet">
<metadata>
Created by potrace 1.16, written by Peter Selinger 2001-2019
</metadata>
<g transform="translate(0.000000,206.000000) scale(0.100000,-0.100000)"
fill="#000000" stroke="none">
<path d="M3385 2053 c-556 -33 -1008 -119 -1490 -283 -990 -339 -1688 -912
-1874 -1538 -26 -86 -26 -118 -1 -159 35 -59 60 -68 203 -72 71 -1 149 0 175
4 66 10 103 51 131 145 124 408 579 786 1281 1063 418 165 836 260 1355 309
206 19 777 16 978 -5 421 -46 755 -127 1047 -256 376 -167 644 -391 754 -633
61 -134 75 -260 46 -427 -13 -79 -13 -85 6 -119 37 -68 60 -77 205 -81 229 -6
265 10 301 134 25 89 36 330 19 431 -62 366 -298 694 -681 949 -467 311 -1060
488 -1785 535 -143 9 -541 11 -670 3z"/>
</g>
</svg>
