<?xml version="1.0" standalone="no"?>
<!DOCTYPE svg PUBLIC "-//W3C//DTD SVG 20010904//EN"
 "http://www.w3.org/TR/2001/REC-SVG-20010904/DTD/svg10.dtd">
<svg version="1.0" xmlns="http://www.w3.org/2000/svg"
 width="808.000000pt" height="1115.000000pt" viewBox="0 0 808.000000 1115.000000"
 preserveAspectRatio="xMidYMid meet">
<metadata>
Created by potrace 1.16, written by Peter Selinger 2001-2019
</metadata>
<g transform="translate(0.000000,1115.000000) scale(0.100000,-0.100000)"
fill="#000000" stroke="none">
<path d="M6369 11141 c-44 -14 -73 -32 -114 -72 -34 -33 -358 -687 -2275
-4588 -1229 -2503 -2235 -4549 -2236 -4548 -1 1 27 776 62 1722 35 946 63
1777 64 1847 l0 127 -30 34 c-16 19 -44 40 -60 47 -39 16 -115 8 -142 -16 -12
-11 -380 -423 -819 -916 -629 -706 -800 -905 -810 -937 -16 -53 6 -112 62
-167 38 -37 43 -39 103 -39 50 0 69 4 87 20 12 11 204 225 427 474 l405 455
-7 -105 c-16 -266 -158 -4351 -152 -4375 4 -15 24 -45 45 -66 l39 -38 138 0
c125 0 144 3 190 24 28 13 65 41 83 62 19 23 1105 2222 2606 5279 l2574 5240
633 5 c625 5 633 5 673 27 87 46 155 153 155 243 0 90 -68 197 -155 243 -40
22 -42 22 -780 24 -407 1 -752 -2 -766 -6z"/>
</g>
</svg>
