<?xml version="1.0" standalone="no"?>
<!DOCTYPE svg PUBLIC "-//W3C//DTD SVG 20010904//EN"
 "http://www.w3.org/TR/2001/REC-SVG-20010904/DTD/svg10.dtd">
<svg version="1.0" xmlns="http://www.w3.org/2000/svg"
 width="512.000000pt" height="976.000000pt" viewBox="0 0 512.000000 976.000000"
 preserveAspectRatio="xMidYMid meet">
<metadata>
Created by potrace 1.16, written by Peter Selinger 2001-2019
</metadata>
<g transform="translate(0.000000,976.000000) scale(0.100000,-0.100000)"
fill="#000000" stroke="none">
<path d="M1800 9684 c-1024 -79 -1010 -77 -1051 -136 -22 -31 -109 -354 -109
-407 0 -47 36 -105 80 -130 34 -19 53 -21 201 -21 299 0 561 -28 654 -69 74
-33 80 -48 80 -180 l-1 -116 -189 -756 -189 -755 -618 -454 c-387 -284 -627
-467 -639 -486 -12 -20 -19 -49 -19 -82 0 -52 -3 -47 158 -290 49 -75 116
-105 189 -86 12 3 173 118 360 254 186 137 339 247 341 246 1 -2 -173 -705
-387 -1562 -408 -1635 -437 -1755 -473 -2011 -31 -218 -33 -737 -4 -938 116
-814 536 -1407 1145 -1619 282 -98 593 -112 921 -40 1121 246 2188 1352 2638
2734 303 929 293 1802 -28 2475 -108 227 -221 386 -393 551 -233 224 -496 361
-819 426 -161 32 -455 32 -607 -1 -303 -65 -656 -238 -931 -457 -41 -33 -80
-63 -86 -67 -16 -9 362 1495 378 1508 8 5 588 431 1289 946 824 606 1280 948
1292 967 10 18 17 51 17 80 0 52 2 48 -158 290 -51 78 -125 109 -195 83 -14
-5 -475 -341 -1026 -745 -551 -405 -1003 -736 -1005 -736 -2 0 79 330 180 733
101 402 184 752 184 776 0 90 -71 152 -172 150 -29 -1 -483 -35 -1008 -75z
m1681 -3968 c250 -87 431 -352 483 -707 29 -198 18 -519 -29 -820 -53 -333
-300 -1361 -434 -1804 -193 -633 -380 -1012 -660 -1338 -279 -324 -605 -517
-901 -533 -414 -23 -699 260 -796 791 -23 124 -26 564 -6 715 23 166 71 432
107 592 80 361 466 1886 487 1928 13 24 61 99 107 165 357 511 763 868 1125
990 183 61 378 69 517 21z"/>
</g>
</svg>
