<?xml version="1.0" standalone="no"?>
<!DOCTYPE svg PUBLIC "-//W3C//DTD SVG 20010904//EN"
 "http://www.w3.org/TR/2001/REC-SVG-20010904/DTD/svg10.dtd">
<svg version="1.0" xmlns="http://www.w3.org/2000/svg"
 width="635.000000pt" height="927.000000pt" viewBox="0 0 635.000000 927.000000"
 preserveAspectRatio="xMidYMid meet">
<metadata>
Created by potrace 1.16, written by Peter Selinger 2001-2019
</metadata>
<g transform="translate(0.000000,927.000000) scale(0.100000,-0.100000)"
fill="#000000" stroke="none">
<path d="M2370 9252 c-19 -9 -42 -30 -52 -47 -23 -41 -1168 -4624 -1168 -4677
0 -56 29 -102 79 -128 36 -18 59 -20 202 -20 197 0 202 2 308 136 358 455 838
778 1327 893 113 26 323 51 429 51 238 -1 421 -89 560 -270 191 -249 243 -611
164 -1155 -55 -383 -275 -1292 -410 -1697 -226 -678 -547 -1134 -1019 -1450
-658 -439 -1455 -402 -1860 88 -155 187 -261 443 -286 687 l-7 67 37 0 c103 0
279 58 403 132 75 45 196 159 245 231 167 246 206 544 97 748 -38 70 -136 167
-204 202 -105 53 -181 70 -310 69 -100 0 -135 -4 -209 -26 -334 -100 -540
-322 -625 -673 -45 -189 -61 -308 -68 -508 -14 -449 91 -844 318 -1185 85
-129 300 -344 429 -428 351 -232 767 -326 1245 -282 1353 125 2668 1183 3187
2565 104 276 183 605 219 910 17 144 18 550 1 685 -70 565 -308 1059 -658
1364 -158 139 -367 263 -554 330 -360 130 -796 139 -1233 27 -303 -79 -628
-239 -946 -468 -23 -17 -23 -16 -18 2 4 11 133 526 287 1145 154 619 282 1130
284 1136 3 7 35 3 97 -13 385 -97 857 -114 1289 -47 612 96 1259 366 1806 756
224 159 494 389 512 435 20 50 72 271 72 305 0 66 -64 128 -131 128 -12 0 -94
-29 -183 -64 -1227 -487 -2467 -487 -3438 0 -70 35 -140 64 -155 64 -16 0 -44
-8 -63 -18z"/>
</g>
</svg>
