<?xml version="1.0" standalone="no"?>
<!DOCTYPE svg PUBLIC "-//W3C//DTD SVG 20010904//EN"
 "http://www.w3.org/TR/2001/REC-SVG-20010904/DTD/svg10.dtd">
<svg version="1.0" xmlns="http://www.w3.org/2000/svg"
 width="706.000000pt" height="370.000000pt" viewBox="0 0 706.000000 370.000000"
 preserveAspectRatio="xMidYMid meet">
<metadata>
Created by potrace 1.16, written by Peter Selinger 2001-2019
</metadata>
<g transform="translate(0.000000,370.000000) scale(0.100000,-0.100000)"
fill="#000000" stroke="none">
<path d="M197 3686 c-98 -36 -166 -111 -188 -212 -31 -136 62 -286 201 -324
22 -6 1131 -10 3118 -10 2059 0 3082 -3 3082 -10 0 -6 -158 -641 -351 -1413
-314 -1256 -350 -1408 -346 -1462 5 -75 32 -129 89 -182 134 -123 354 -82 432
80 16 32 176 653 422 1637 363 1454 395 1590 391 1650 -2 36 -12 81 -22 100
-29 58 -95 118 -153 140 -52 20 -82 20 -3345 20 -2743 -1 -3298 -3 -3330 -14z"/>
</g>
</svg>
