<?xml version="1.0" standalone="no"?>
<!DOCTYPE svg PUBLIC "-//W3C//DTD SVG 20010904//EN"
 "http://www.w3.org/TR/2001/REC-SVG-20010904/DTD/svg10.dtd">
<svg version="1.0" xmlns="http://www.w3.org/2000/svg"
 width="576.000000pt" height="1230.000000pt" viewBox="0 0 576.000000 1230.000000"
 preserveAspectRatio="xMidYMid meet">
<metadata>
Created by potrace 1.16, written by Peter Selinger 2001-2019
</metadata>
<g transform="translate(0.000000,1230.000000) scale(0.100000,-0.100000)"
fill="#000000" stroke="none">
<path d="M2851 12284 c-376 -45 -775 -213 -1124 -471 -661 -491 -1213 -1319
-1531 -2302 -204 -627 -246 -1086 -145 -1584 184 -909 861 -1610 1840 -1907
159 -48 431 -104 584 -121 61 -7 111 -13 113 -14 2 -2 -1274 -5119 -1319
-5287 l-10 -38 -444 0 c-419 0 -447 -1 -497 -20 -58 -21 -123 -81 -154 -140
-14 -26 -19 -57 -19 -120 0 -100 18 -143 87 -207 86 -78 7 -74 1264 -71 l1119
3 55 31 c98 56 160 171 146 273 -13 98 -68 175 -160 224 -40 21 -51 22 -428
25 -214 2 -388 5 -388 7 0 3 628 2518 1396 5590 l1396 5585 444 0 c418 0 446
1 496 20 58 21 123 81 154 140 14 26 19 57 19 120 0 63 -5 94 -19 120 -31 59
-96 119 -154 140 -52 20 -78 20 -1330 19 -1019 -1 -1300 -4 -1391 -15z"/>
</g>
</svg>
