<?xml version="1.0" standalone="no"?>
<!DOCTYPE svg PUBLIC "-//W3C//DTD SVG 20010904//EN"
 "http://www.w3.org/TR/2001/REC-SVG-20010904/DTD/svg10.dtd">
<svg version="1.0" xmlns="http://www.w3.org/2000/svg"
 width="669.000000pt" height="927.000000pt" viewBox="0 0 669.000000 927.000000"
 preserveAspectRatio="xMidYMid meet">
<metadata>
Created by potrace 1.16, written by Peter Selinger 2001-2019
</metadata>
<g transform="translate(0.000000,927.000000) scale(0.100000,-0.100000)"
fill="#000000" stroke="none">
<path d="M1399 9247 c-19 -12 -46 -45 -61 -72 -14 -28 -321 -667 -682 -1422
-515 -1078 -656 -1380 -656 -1410 0 -50 18 -82 59 -110 32 -22 44 -23 196 -23
209 0 205 -2 298 175 457 874 1280 1548 2137 1749 225 53 508 79 622 57 122
-24 227 -99 384 -276 279 -315 424 -418 641 -456 149 -26 404 7 619 80 l112
37 -78 -116 c-229 -342 -667 -1038 -922 -1465 -1047 -1755 -1772 -3347 -2203
-4840 -107 -371 -155 -576 -155 -665 0 -272 196 -469 485 -487 341 -21 664
207 773 547 12 36 42 147 67 248 360 1445 878 3002 1425 4282 617 1445 1263
2620 2149 3908 80 115 89 157 51 220 -32 53 -69 62 -242 62 -186 0 -189 -2
-278 -126 -494 -690 -916 -1085 -1310 -1222 -121 -42 -209 -57 -335 -57 -125
0 -162 13 -227 80 -76 78 -115 192 -189 549 -45 219 -92 376 -140 466 -73 138
-183 235 -316 280 -174 58 -553 26 -889 -76 -345 -104 -744 -321 -1066 -577
l-106 -85 75 156 c41 86 106 222 144 302 38 80 69 159 69 176 0 43 -32 95 -71
116 -28 15 -58 18 -190 18 -146 0 -158 -1 -190 -23z"/>
</g>
</svg>
