<?xml version="1.0" standalone="no"?>
<!DOCTYPE svg PUBLIC "-//W3C//DTD SVG 20010904//EN"
 "http://www.w3.org/TR/2001/REC-SVG-20010904/DTD/svg10.dtd">
<svg version="1.0" xmlns="http://www.w3.org/2000/svg"
 width="881.000000pt" height="717.000000pt" viewBox="0 0 881.000000 717.000000"
 preserveAspectRatio="xMidYMid meet">
<metadata>
Created by potrace 1.16, written by Peter Selinger 2001-2019
</metadata>
<g transform="translate(0.000000,717.000000) scale(0.100000,-0.100000)"
fill="#000000" stroke="none">
<path d="M1847 7156 c-96 -35 -164 -109 -187 -207 -15 -60 -7 -123 23 -181 12
-24 542 -738 1176 -1587 l1153 -1543 -23 -23 c-13 -12 -888 -714 -1944 -1560
-1056 -846 -1935 -1552 -1953 -1569 -59 -54 -86 -120 -87 -206 0 -82 22 -137
74 -193 66 -72 194 -104 288 -73 40 13 424 317 2014 1591 1080 866 1967 1574
1970 1573 4 -2 521 -691 1149 -1533 629 -841 1154 -1543 1169 -1558 67 -73
194 -104 292 -72 77 26 152 103 175 180 19 69 14 148 -13 203 -10 20 -540 734
-1176 1586 -1102 1474 -1157 1550 -1140 1566 10 10 882 709 1938 1555 1056
846 1939 1556 1963 1579 70 66 87 106 87 206 0 100 -18 143 -87 207 -85 77
-215 94 -312 40 -24 -13 -917 -725 -1985 -1581 -1068 -856 -1947 -1559 -1954
-1561 -7 -2 -494 643 -1142 1512 -621 833 -1152 1539 -1178 1569 -76 84 -190
115 -290 80z"/>
<path d="M5063 7156 c-410 -78 -770 -408 -874 -801 -30 -114 -37 -289 -14
-392 60 -274 241 -469 515 -555 65 -20 95 -23 230 -23 185 0 267 18 429 96
331 157 561 448 626 792 27 142 16 275 -34 420 -34 98 -80 168 -170 258 -97
96 -192 152 -321 189 -97 27 -285 35 -387 16z"/>
<path d="M1745 4473 c-142 -22 -329 -98 -456 -184 -205 -137 -375 -368 -445
-604 -38 -129 -45 -315 -15 -435 144 -574 832 -742 1373 -335 403 304 551 828
337 1202 -45 78 -151 188 -235 243 -43 28 -111 60 -170 80 -88 29 -113 33
-229 35 -71 2 -143 1 -160 -2z"/>
<path d="M7058 4465 c-405 -77 -759 -409 -864 -810 -20 -76 -26 -127 -27 -210
-2 -137 18 -225 80 -355 38 -79 59 -107 132 -180 72 -72 102 -95 181 -133 52
-26 122 -54 155 -63 85 -22 246 -29 346 -15 503 73 927 539 932 1026 2 137
-18 225 -80 355 -38 79 -59 107 -132 180 -72 72 -102 95 -181 133 -52 26 -122
54 -155 63 -84 22 -290 27 -387 9z"/>
<path d="M3724 1780 c-331 -60 -646 -296 -798 -599 -141 -280 -149 -552 -24
-794 58 -113 181 -236 293 -294 296 -153 661 -112 982 109 89 62 233 210 296
305 114 172 167 342 167 538 0 143 -25 250 -88 370 -53 101 -181 228 -287 282
-132 68 -200 85 -355 89 -74 1 -158 -1 -186 -6z"/>
</g>
</svg>
