<?xml version="1.0" standalone="no"?>
<!DOCTYPE svg PUBLIC "-//W3C//DTD SVG 20010904//EN"
 "http://www.w3.org/TR/2001/REC-SVG-20010904/DTD/svg10.dtd">
<svg version="1.0" xmlns="http://www.w3.org/2000/svg"
 width="648.000000pt" height="1328.000000pt" viewBox="0 0 648.000000 1328.000000"
 preserveAspectRatio="xMidYMid meet">
<metadata>
Created by potrace 1.16, written by Peter Selinger 2001-2019
</metadata>
<g transform="translate(0.000000,1328.000000) scale(0.100000,-0.100000)"
fill="#000000" stroke="none">
<path d="M3320 13258 c-18 -13 -41 -34 -51 -48 -22 -30 -3269 -13011 -3269
-13069 0 -48 34 -100 80 -123 33 -17 127 -18 1533 -18 1641 0 1526 -4 1579 59
18 21 36 71 63 179 41 165 40 192 -2 243 -51 61 -35 59 -583 59 -473 0 -501 1
-496 18 3 9 685 2737 1516 6062 831 3325 1515 6062 1521 6083 l10 37 537 0
c491 0 540 2 571 18 19 9 43 29 53 43 23 31 87 277 88 335 0 51 -32 102 -80
126 -33 17 -127 18 -1536 18 l-1501 0 -33 -22z m1346 -535 c-3 -10 -685 -2738
-1516 -6063 -831 -3325 -1515 -6062 -1521 -6082 l-10 -38 -490 0 c-462 0 -490
1 -485 18 3 9 685 2737 1516 6062 831 3325 1515 6062 1521 6083 l10 37 490 0
c462 0 490 -1 485 -17z"/>
</g>
</svg>
