<?xml version="1.0" standalone="no"?>
<!DOCTYPE svg PUBLIC "-//W3C//DTD SVG 20010904//EN"
 "http://www.w3.org/TR/2001/REC-SVG-20010904/DTD/svg10.dtd">
<svg version="1.0" xmlns="http://www.w3.org/2000/svg"
 width="962.000000pt" height="945.000000pt" viewBox="0 0 962.000000 945.000000"
 preserveAspectRatio="xMidYMid meet">
<metadata>
Created by potrace 1.16, written by Peter Selinger 2001-2019
</metadata>
<g transform="translate(0.000000,945.000000) scale(0.100000,-0.100000)"
fill="#000000" stroke="none">
<path d="M6870 9443 c-497 -34 -916 -117 -1395 -278 -728 -244 -1405 -627
-2036 -1151 -194 -161 -637 -603 -796 -794 -294 -353 -580 -780 -739 -1102
l-38 -78 -631 0 c-607 0 -631 -1 -662 -20 -18 -10 -39 -30 -48 -43 -9 -14 -38
-114 -65 -223 -54 -216 -55 -248 -8 -291 48 -43 46 -43 604 -43 506 0 536 -1
531 -17 -2 -10 -26 -85 -51 -168 -62 -195 -127 -461 -161 -655 -15 -85 -29
-161 -31 -167 -3 -10 -126 -13 -576 -13 -550 0 -574 -1 -605 -20 -18 -10 -39
-30 -48 -44 -9 -13 -39 -116 -67 -229 l-51 -205 19 -38 c11 -21 34 -49 53 -61
l34 -23 593 0 594 0 0 -142 c0 -79 5 -206 10 -283 126 -1735 1217 -3000 2840
-3294 307 -55 268 -54 1630 -58 1196 -3 1267 -3 1300 14 19 10 42 32 51 48 10
17 333 822 719 1789 754 1891 717 1789 669 1850 -41 52 -62 56 -279 56 -217 0
-254 -7 -284 -52 -9 -13 -92 -213 -185 -444 -445 -1103 -709 -1677 -919 -1994
-55 -82 -110 -149 -197 -235 -229 -230 -442 -360 -652 -401 -93 -17 -1084 -20
-1259 -3 -1190 116 -1965 1236 -1964 2838 0 113 3 230 7 260 l6 54 526 -6
c546 -6 696 -14 966 -47 809 -102 1104 -351 1155 -976 23 -289 -29 -672 -171
-1253 -32 -134 -59 -260 -59 -280 0 -20 9 -51 20 -69 34 -55 65 -62 290 -62
216 0 238 4 278 54 13 18 138 499 408 1578 l388 1553 -20 40 c-10 21 -32 48
-47 59 -28 21 -29 21 -1847 26 l-1818 5 38 185 c48 238 116 497 177 680 l48
145 1847 5 1847 5 28 21 c15 11 36 36 46 55 18 36 777 3063 777 3101 0 33 -35
85 -72 108 -30 18 -51 20 -236 20 -222 0 -254 -6 -287 -57 -9 -13 -47 -144
-85 -291 -229 -890 -438 -1340 -795 -1711 -346 -359 -789 -529 -1567 -601
-196 -18 -649 -31 -946 -28 l-293 3 52 100 c435 843 1083 1585 1809 2070 527
352 1063 554 1600 604 180 17 1265 14 1363 -4 255 -45 488 -273 529 -515 18
-104 15 -519 -6 -755 -22 -253 -69 -672 -111 -985 -40 -297 -41 -304 -17 -349
35 -65 61 -71 293 -71 198 0 207 1 240 23 19 12 42 38 51 57 13 26 74 456 225
1574 l206 1539 -19 36 c-10 19 -34 46 -53 58 l-34 23 -1296 -2 c-713 -1 -1316
-3 -1341 -5z"/>
</g>
</svg>
