<?xml version="1.0" standalone="no"?>
<!DOCTYPE svg PUBLIC "-//W3C//DTD SVG 20010904//EN"
 "http://www.w3.org/TR/2001/REC-SVG-20010904/DTD/svg10.dtd">
<svg version="1.0" xmlns="http://www.w3.org/2000/svg"
 width="1269.000000pt" height="1388.000000pt" viewBox="0 0 1269.000000 1388.000000"
 preserveAspectRatio="xMidYMid meet">
<metadata>
Created by potrace 1.16, written by Peter Selinger 2001-2019
</metadata>
<g transform="translate(0.000000,1388.000000) scale(0.100000,-0.100000)"
fill="#000000" stroke="none">
<path d="M7650 13870 c-661 -50 -1300 -200 -1944 -456 -1263 -502 -2430 -1356
-3417 -2499 -877 -1015 -1560 -2257 -1937 -3520 -346 -1155 -439 -2334 -267
-3356 72 -425 168 -777 312 -1144 509 -1292 1456 -2213 2721 -2645 659 -226
1418 -300 2182 -214 1420 161 2907 870 4164 1986 1258 1118 2217 2554 2759
4133 428 1249 561 2564 372 3686 -200 1187 -706 2165 -1490 2883 -699 639
-1573 1022 -2585 1132 -171 18 -700 27 -870 14z m830 -555 c797 -86 1493 -366
2080 -834 718 -574 1227 -1434 1449 -2447 390 -1781 -113 -3964 -1337 -5804
-1053 -1583 -2554 -2797 -4152 -3357 -1001 -351 -2002 -425 -2877 -213 -571
138 -1080 386 -1523 739 -718 574 -1227 1434 -1449 2447 -390 1781 113 3964
1337 5804 1053 1583 2554 2797 4152 3357 508 178 1002 283 1530 323 163 12
618 4 790 -15z"/>
<path d="M3321 9952 c-51 -25 -69 -57 -98 -168 -28 -110 -26 -157 6 -202 39
-55 69 -62 278 -62 350 0 650 -27 760 -68 63 -23 78 -61 69 -176 -8 -95 -1170
-4756 -1216 -4874 -58 -151 -128 -225 -246 -262 -139 -43 -449 -70 -802 -70
-211 0 -228 -4 -274 -59 -17 -19 -34 -65 -52 -136 -30 -122 -26 -162 21 -207
53 -49 56 -49 305 -38 128 5 499 15 823 21 608 12 1393 3 2007 -22 363 -15
363 -15 413 181 30 117 28 153 -12 200 -47 56 -64 60 -275 60 -343 0 -620 24
-738 63 -84 29 -92 44 -87 163 3 78 41 239 257 1103 l252 1011 1142 0 c1131 0
1238 3 1506 36 1176 146 2242 752 2585 1469 299 624 56 1249 -645 1663 -356
210 -843 345 -1380 382 -90 6 -985 10 -2355 10 -2084 0 -2212 -1 -2244 -18z
m4234 -442 c443 -30 721 -106 955 -263 145 -98 233 -216 275 -372 36 -135 30
-385 -15 -605 -105 -504 -327 -891 -625 -1089 -181 -120 -474 -241 -720 -296
-338 -76 -520 -85 -1668 -85 -899 0 -948 1 -943 18 3 9 136 541 296 1182 160
641 300 1194 312 1230 33 104 87 199 127 225 42 27 102 45 186 55 93 11 1651
11 1820 0z"/>
</g>
</svg>
