<?xml version="1.0" standalone="no"?>
<!DOCTYPE svg PUBLIC "-//W3C//DTD SVG 20010904//EN"
 "http://www.w3.org/TR/2001/REC-SVG-20010904/DTD/svg10.dtd">
<svg version="1.0" xmlns="http://www.w3.org/2000/svg"
 width="479.000000pt" height="937.000000pt" viewBox="0 0 479.000000 937.000000"
 preserveAspectRatio="xMidYMid meet">
<metadata>
Created by potrace 1.16, written by Peter Selinger 2001-2019
</metadata>
<g transform="translate(0.000000,937.000000) scale(0.100000,-0.100000)"
fill="#000000" stroke="none">
<path d="M1665 9293 c-661 -58 -858 -78 -885 -91 -49 -24 -74 -67 -100 -172
-34 -137 -18 -199 60 -241 30 -16 58 -19 195 -19 293 0 534 -27 633 -70 52
-23 72 -64 72 -148 0 -91 -8 -128 -216 -964 l-196 -787 -595 -437 c-371 -272
-602 -449 -614 -468 -38 -62 -19 -138 60 -242 63 -83 126 -111 193 -85 13 5
194 135 403 289 209 154 381 279 383 277 1 -1 -175 -713 -392 -1581 -413
-1654 -442 -1775 -478 -2031 -19 -137 -22 -201 -23 -483 0 -362 9 -448 71
-700 180 -734 593 -1185 1205 -1317 66 -14 126 -18 279 -17 172 0 211 4 325
28 652 136 1295 588 1813 1274 482 637 800 1432 898 2242 24 198 25 603 0 785
-118 896 -599 1504 -1309 1657 -152 32 -430 32 -575 0 -345 -77 -669 -258
-1013 -565 l-96 -85 201 805 201 805 1220 896 c671 493 1232 909 1247 925 57
59 48 130 -29 242 -70 101 -122 130 -199 109 -12 -3 -483 -344 -1045 -758
-563 -414 -1025 -752 -1026 -752 -1 1 88 361 198 801 146 582 199 809 194 832
-7 38 -46 88 -86 108 -15 8 -50 14 -76 14 -26 -1 -430 -35 -898 -76z m1590
-3628 c228 -48 408 -239 506 -537 52 -160 71 -290 76 -530 10 -409 -38 -711
-247 -1548 -116 -466 -192 -736 -264 -945 -202 -590 -443 -1003 -781 -1340
-250 -250 -475 -380 -716 -416 -431 -63 -746 244 -851 831 -30 167 -36 500
-14 720 39 373 82 579 360 1688 l204 812 106 160 c317 475 674 824 1023 999
208 104 425 142 598 106z"/>
</g>
</svg>
