<?xml version="1.0" standalone="no"?>
<!DOCTYPE svg PUBLIC "-//W3C//DTD SVG 20010904//EN"
 "http://www.w3.org/TR/2001/REC-SVG-20010904/DTD/svg10.dtd">
<svg version="1.0" xmlns="http://www.w3.org/2000/svg"
 width="347.000000pt" height="219.000000pt" viewBox="0 0 347.000000 219.000000"
 preserveAspectRatio="xMidYMid meet">
<metadata>
Created by potrace 1.16, written by Peter Selinger 2001-2019
</metadata>
<g transform="translate(0.000000,219.000000) scale(0.100000,-0.100000)"
fill="#000000" stroke="none">
<path d="M2119 2177 c-26 -14 -2034 -1778 -2076 -1823 -12 -13 -28 -42 -34
-64 -18 -59 7 -113 94 -204 81 -84 119 -100 182 -75 19 8 425 328 901 712 476
384 867 697 868 695 63 -92 990 -1335 1014 -1360 42 -44 90 -63 137 -54 38 7
177 108 226 164 29 32 31 40 27 91 -4 54 -22 84 -587 973 -356 561 -592 923
-609 934 -35 23 -110 29 -143 11z"/>
</g>
</svg>
