<?xml version="1.0" standalone="no"?>
<!DOCTYPE svg PUBLIC "-//W3C//DTD SVG 20010904//EN"
 "http://www.w3.org/TR/2001/REC-SVG-20010904/DTD/svg10.dtd">
<svg version="1.0" xmlns="http://www.w3.org/2000/svg"
 width="432.000000pt" height="1328.000000pt" viewBox="0 0 432.000000 1328.000000"
 preserveAspectRatio="xMidYMid meet">
<metadata>
Created by potrace 1.16, written by Peter Selinger 2001-2019
</metadata>
<g transform="translate(0.000000,1328.000000) scale(0.100000,-0.100000)"
fill="#000000" stroke="none">
<path d="M3380 13271 c-85 -26 -161 -102 -185 -185 -16 -55 -12 -97 276 -3220
l291 -3165 -1872 -3161 c-1029 -1739 -1877 -3178 -1882 -3198 -6 -20 -8 -65
-5 -99 18 -225 298 -324 455 -161 18 19 888 1478 1933 3244 1473 2486 1903
3220 1911 3259 9 42 -36 556 -286 3261 -214 2323 -301 3224 -313 3259 -23 69
-95 139 -164 159 -56 17 -117 19 -159 7z"/>
</g>
</svg>
