<?xml version="1.0" standalone="no"?>
<!DOCTYPE svg PUBLIC "-//W3C//DTD SVG 20010904//EN"
 "http://www.w3.org/TR/2001/REC-SVG-20010904/DTD/svg10.dtd">
<svg version="1.0" xmlns="http://www.w3.org/2000/svg"
 width="575.000000pt" height="163.000000pt" viewBox="0 0 575.000000 163.000000"
 preserveAspectRatio="xMidYMid meet">
<metadata>
Created by potrace 1.16, written by Peter Selinger 2001-2019
</metadata>
<g transform="translate(0.000000,163.000000) scale(0.100000,-0.100000)"
fill="#000000" stroke="none">
<path d="M1970 1614 c-454 -84 -984 -439 -1760 -1178 -199 -189 -223 -225
-201 -296 23 -76 100 -140 171 -140 48 0 80 21 202 136 238 224 517 455 717
595 476 333 829 438 1087 324 142 -63 242 -157 475 -446 305 -379 466 -509
717 -582 65 -18 101 -22 227 -21 134 1 162 4 265 31 450 120 1000 506 1706
1197 l164 161 0 58 c0 53 -3 61 -42 103 -49 53 -85 74 -127 74 -51 0 -78 -17
-177 -110 -602 -567 -1102 -901 -1457 -974 -150 -31 -288 -16 -407 44 -131 66
-242 176 -475 470 -121 152 -287 325 -376 391 -88 65 -209 125 -306 150 -105
28 -289 34 -403 13z"/>
</g>
</svg>
