<?xml version="1.0" standalone="no"?>
<!DOCTYPE svg PUBLIC "-//W3C//DTD SVG 20010904//EN"
 "http://www.w3.org/TR/2001/REC-SVG-20010904/DTD/svg10.dtd">
<svg version="1.0" xmlns="http://www.w3.org/2000/svg"
 width="336.000000pt" height="271.000000pt" viewBox="0 0 336.000000 271.000000"
 preserveAspectRatio="xMidYMid meet">
<metadata>
Created by potrace 1.16, written by Peter Selinger 2001-2019
</metadata>
<g transform="translate(0.000000,271.000000) scale(0.100000,-0.100000)"
fill="#000000" stroke="none">
<path d="M1755 2696 c-69 -30 -76 -48 -176 -448 l-93 -374 25 -49 c37 -76 59
-87 191 -96 328 -25 540 -135 631 -327 29 -62 32 -75 31 -167 0 -82 -5 -114
-28 -180 -160 -465 -700 -645 -1945 -645 -229 0 -245 -1 -281 -21 -47 -27 -73
-72 -95 -170 l-18 -77 24 -48 c45 -90 39 -89 372 -92 451 -5 953 16 1292 54
704 78 1193 277 1442 587 185 229 265 539 203 781 -23 93 -85 213 -142 280
-122 142 -382 285 -611 336 -44 10 -56 17 -53 29 27 90 116 468 116 492 0 45
-36 103 -80 128 -37 20 -49 21 -406 21 -284 -1 -376 -4 -399 -14z"/>
</g>
</svg>
