<?xml version="1.0" standalone="no"?>
<!DOCTYPE svg PUBLIC "-//W3C//DTD SVG 20010904//EN"
 "http://www.w3.org/TR/2001/REC-SVG-20010904/DTD/svg10.dtd">
<svg version="1.0" xmlns="http://www.w3.org/2000/svg"
 width="555.000000pt" height="632.000000pt" viewBox="0 0 555.000000 632.000000"
 preserveAspectRatio="xMidYMid meet">
<metadata>
Created by potrace 1.16, written by Peter Selinger 2001-2019
</metadata>
<g transform="translate(0.000000,632.000000) scale(0.100000,-0.100000)"
fill="#000000" stroke="none">
<path d="M3285 6310 c-1288 -115 -2220 -852 -2781 -2199 -216 -517 -414 -1284
-480 -1856 -24 -205 -24 -584 -1 -755 91 -664 405 -1096 963 -1324 546 -223
1316 -234 1994 -29 489 147 902 399 1256 766 529 547 880 1260 1129 2290 120
500 169 855 169 1237 0 413 -56 690 -199 985 -80 166 -163 281 -286 399 -259
249 -625 409 -1079 471 -137 19 -541 27 -685 15z m417 -345 c476 -63 790 -299
889 -670 42 -157 37 -468 -11 -794 -53 -356 -209 -1036 -416 -1810 -245 -915
-461 -1434 -727 -1743 -234 -271 -590 -478 -968 -562 -674 -149 -1275 79
-1458 554 -53 135 -64 233 -58 490 10 407 84 812 322 1769 261 1050 416 1522
620 1891 211 380 535 644 970 789 272 91 571 121 837 86z"/>
</g>
</svg>
