<?xml version="1.0" standalone="no"?>
<!DOCTYPE svg PUBLIC "-//W3C//DTD SVG 20010904//EN"
 "http://www.w3.org/TR/2001/REC-SVG-20010904/DTD/svg10.dtd">
<svg version="1.0" xmlns="http://www.w3.org/2000/svg"
 width="756.000000pt" height="616.000000pt" viewBox="0 0 756.000000 616.000000"
 preserveAspectRatio="xMidYMid meet">
<metadata>
Created by potrace 1.16, written by Peter Selinger 2001-2019
</metadata>
<g transform="translate(0.000000,616.000000) scale(0.100000,-0.100000)"
fill="#000000" stroke="none">
<path d="M1576 6140 c-147 -59 -218 -236 -152 -375 13 -27 458 -630 990 -1340
531 -710 964 -1293 963 -1296 -1 -4 -731 -591 -1622 -1304 -891 -713 -1640
-1315 -1664 -1338 -123 -118 -123 -300 1 -413 88 -81 217 -96 316 -37 27 15
781 614 1675 1331 894 717 1629 1304 1634 1304 4 1 437 -572 961 -1273 524
-701 972 -1293 995 -1317 137 -140 375 -91 454 95 19 46 22 144 5 194 -7 20
-453 625 -992 1345 -539 720 -979 1312 -977 1315 1 4 745 601 1652 1328 1172
938 1659 1334 1682 1366 127 180 -9 435 -233 435 -100 0 -51 37 -1792 -1357
l-1652 -1323 -353 472 c-1592 2132 -1600 2141 -1657 2172 -71 39 -163 45 -234
16z"/>
</g>
</svg>
