<?xml version="1.0" standalone="no"?>
<!DOCTYPE svg PUBLIC "-//W3C//DTD SVG 20010904//EN"
 "http://www.w3.org/TR/2001/REC-SVG-20010904/DTD/svg10.dtd">
<svg version="1.0" xmlns="http://www.w3.org/2000/svg"
 width="578.000000pt" height="658.000000pt" viewBox="0 0 578.000000 658.000000"
 preserveAspectRatio="xMidYMid meet">
<metadata>
Created by potrace 1.16, written by Peter Selinger 2001-2019
</metadata>
<g transform="translate(0.000000,658.000000) scale(0.100000,-0.100000)"
fill="#000000" stroke="none">
<path d="M3490 6573 c-19 -1 -87 -8 -150 -14 -410 -38 -870 -178 -1233 -375
-125 -68 -324 -200 -437 -290 -119 -94 -399 -378 -503 -508 -407 -512 -697
-1124 -921 -1945 -309 -1130 -320 -1933 -36 -2516 121 -248 276 -425 510 -581
700 -466 1970 -458 2904 19 278 142 518 319 751 552 565 565 948 1330 1209
2415 125 517 178 906 178 1295 0 462 -81 810 -261 1128 -302 534 -958 833
-1811 825 -91 -1 -181 -3 -200 -5z m444 -433 c461 -93 746 -348 806 -723 18
-109 7 -451 -19 -632 -51 -342 -127 -696 -295 -1370 -277 -1105 -422 -1568
-622 -1985 -156 -323 -323 -520 -599 -705 -553 -371 -1324 -420 -1780 -112
-185 125 -314 315 -361 532 -23 106 -23 388 0 580 35 294 110 689 217 1139
360 1515 575 2176 837 2576 80 123 278 316 416 409 252 168 537 270 866 311
121 14 419 4 534 -20z"/>
</g>
</svg>
