<?xml version="1.0" standalone="no"?>
<!DOCTYPE svg PUBLIC "-//W3C//DTD SVG 20010904//EN"
 "http://www.w3.org/TR/2001/REC-SVG-20010904/DTD/svg10.dtd">
<svg version="1.0" xmlns="http://www.w3.org/2000/svg"
 width="687.000000pt" height="904.000000pt" viewBox="0 0 687.000000 904.000000"
 preserveAspectRatio="xMidYMid meet">
<metadata>
Created by potrace 1.16, written by Peter Selinger 2001-2019
</metadata>
<g transform="translate(0.000000,904.000000) scale(0.100000,-0.100000)"
fill="#000000" stroke="none">
<path d="M6483 9026 c-39 -18 -23 4 -563 -728 -375 -509 -459 -616 -475 -612
-118 25 -631 47 -925 41 -350 -8 -564 -40 -887 -132 -230 -66 -405 -135 -648
-255 -470 -231 -787 -460 -1175 -849 -229 -229 -357 -381 -516 -607 -367 -526
-618 -1155 -689 -1727 -97 -786 125 -1533 603 -2029 l84 -87 -637 -862 c-351
-475 -642 -877 -648 -895 -13 -43 -1 -97 29 -134 14 -16 71 -56 127 -87 88
-50 109 -58 154 -58 36 0 60 6 80 21 21 16 1234 1639 1272 1703 7 11 42 -3
167 -66 244 -122 534 -211 814 -249 58 -8 191 -17 295 -21 1008 -32 1969 412
2605 1203 161 201 365 524 376 596 6 43 -21 96 -65 125 -33 22 -42 23 -240 23
-263 0 -254 4 -339 -145 -150 -263 -278 -432 -482 -636 -88 -88 -202 -190
-263 -236 -194 -144 -414 -255 -627 -316 -473 -136 -1048 -55 -1428 200 -93
63 -243 192 -260 225 -13 24 34 89 1539 2124 853 1154 1561 2110 1572 2124 16
20 19 21 13 5 -147 -405 84 -755 499 -755 117 0 235 29 350 85 218 106 362
287 432 540 23 85 27 120 28 235 0 114 -4 146 -23 210 -41 130 -87 206 -187
305 -102 102 -196 162 -351 224 -54 22 -99 42 -99 44 0 2 191 262 424 577 233
316 428 588 434 606 13 43 1 97 -29 134 -14 16 -70 55 -125 86 -109 62 -162
74 -216 50z m-1469 -1855 l68 -6 -1573 -2127 -1574 -2128 -18 53 c-28 81 -65
279 -78 417 -14 149 -7 424 15 595 66 502 249 1121 467 1583 334 706 870 1240
1492 1487 167 66 321 103 532 128 52 7 597 5 669 -2z m636 -75 c0 -2 -8 -10
-17 -17 -16 -13 -17 -12 -4 4 13 16 21 21 21 13z"/>
</g>
</svg>
