<?xml version="1.0" standalone="no"?>
<!DOCTYPE svg PUBLIC "-//W3C//DTD SVG 20010904//EN"
 "http://www.w3.org/TR/2001/REC-SVG-20010904/DTD/svg10.dtd">
<svg version="1.0" xmlns="http://www.w3.org/2000/svg"
 width="610.000000pt" height="631.000000pt" viewBox="0 0 610.000000 631.000000"
 preserveAspectRatio="xMidYMid meet">
<metadata>
Created by potrace 1.16, written by Peter Selinger 2001-2019
</metadata>
<g transform="translate(0.000000,631.000000) scale(0.100000,-0.100000)"
fill="#000000" stroke="none">
<path d="M3261 6299 c-356 -48 -785 -254 -1138 -546 -136 -112 -389 -373 -509
-523 -376 -472 -647 -1026 -799 -1632 -86 -342 -117 -585 -117 -903 0 -224 11
-352 48 -535 54 -269 179 -571 316 -765 358 -506 989 -704 1544 -485 255 101
501 274 756 533 l127 129 35 -76 c155 -340 447 -568 838 -653 128 -27 385 -25
498 5 254 68 472 238 650 508 199 301 341 675 520 1364 68 262 69 279 10 335
l-31 30 -172 3 c-158 2 -175 1 -205 -18 -18 -11 -39 -35 -47 -52 -8 -18 -46
-154 -84 -303 -198 -771 -365 -1167 -577 -1365 -98 -91 -155 -115 -274 -115
-86 1 -100 4 -148 29 -57 32 -93 73 -123 141 -67 152 -65 476 5 821 14 65 208
852 431 1748 402 1609 407 1631 403 1715 -8 180 -106 301 -287 355 -182 54
-445 -36 -571 -195 l-37 -48 -48 70 c-137 200 -348 350 -575 410 -98 25 -315
34 -439 18z m325 -423 c219 -68 388 -336 470 -744 l26 -132 -325 -1308 c-180
-719 -331 -1340 -338 -1380 -10 -65 -19 -85 -81 -180 -211 -319 -483 -613
-695 -749 -309 -198 -603 -201 -755 -9 -209 264 -229 673 -72 1439 50 241 265
1115 339 1372 215 753 409 1136 733 1446 149 144 280 223 417 255 73 17 210
12 281 -10z"/>
<path d="M124 391 c-53 -24 -100 -82 -114 -141 -15 -62 2 -127 46 -179 67 -78
-157 -72 2461 -69 l2341 3 44 30 c61 43 88 95 88 170 0 75 -27 127 -88 170
l-44 30 -2346 2 c-2267 3 -2348 2 -2388 -16z"/>
</g>
</svg>
