<?xml version="1.0" standalone="no"?>
<!DOCTYPE svg PUBLIC "-//W3C//DTD SVG 20010904//EN"
 "http://www.w3.org/TR/2001/REC-SVG-20010904/DTD/svg10.dtd">
<svg version="1.0" xmlns="http://www.w3.org/2000/svg"
 width="547.000000pt" height="835.000000pt" viewBox="0 0 547.000000 835.000000"
 preserveAspectRatio="xMidYMid meet">
<metadata>
Created by potrace 1.16, written by Peter Selinger 2001-2019
</metadata>
<g transform="translate(0.000000,835.000000) scale(0.100000,-0.100000)"
fill="#000000" stroke="none">
<path d="M2950 8332 c-60 -30 -74 -63 -104 -248 -98 -596 -231 -1287 -355
-1844 -76 -341 -189 -821 -195 -827 -11 -11 -1204 24 -1779 53 -346 17 -351
17 -402 -36 -22 -22 -35 -61 -71 -201 -24 -96 -44 -195 -44 -220 0 -58 31
-107 83 -132 36 -18 49 -18 360 -3 591 29 1714 62 1725 51 6 -5 -28 -142 -178
-715 -337 -1292 -693 -2563 -1076 -3842 -59 -195 -64 -220 -55 -255 11 -39 47
-81 88 -102 15 -7 128 -11 356 -11 330 0 334 0 367 22 18 13 41 34 51 48 11
16 45 162 94 405 258 1285 615 2885 926 4158 l73 297 205 0 c446 0 1294 -25
1914 -56 346 -17 351 -17 402 36 22 23 36 63 76 225 43 170 48 201 39 235 -11
41 -65 96 -104 106 -13 3 -167 -2 -342 -10 -639 -32 -1735 -62 -1970 -54
l-101 3 79 300 c178 675 392 1393 625 2099 136 411 137 416 86 476 -50 60 -51
60 -410 60 -292 0 -332 -2 -363 -18z"/>
</g>
</svg>
