<?xml version="1.0" standalone="no"?>
<!DOCTYPE svg PUBLIC "-//W3C//DTD SVG 20010904//EN"
 "http://www.w3.org/TR/2001/REC-SVG-20010904/DTD/svg10.dtd">
<svg version="1.0" xmlns="http://www.w3.org/2000/svg"
 width="593.000000pt" height="896.000000pt" viewBox="0 0 593.000000 896.000000"
 preserveAspectRatio="xMidYMid meet">
<metadata>
Created by potrace 1.16, written by Peter Selinger 2001-2019
</metadata>
<g transform="translate(0.000000,896.000000) scale(0.100000,-0.100000)"
fill="#000000" stroke="none">
<path d="M4650 8937 c-102 -31 -172 -71 -248 -141 -108 -101 -139 -168 -222
-475 -165 -615 -451 -1315 -775 -1896 -543 -974 -1251 -1820 -2080 -2484 -370
-297 -809 -591 -965 -646 -156 -56 -303 -153 -342 -225 -39 -73 -20 -123 107
-283 94 -119 130 -122 314 -23 137 74 177 85 386 110 282 34 925 47 1192 25
168 -13 373 -43 553 -80 196 -40 880 -212 880 -221 0 -4 -120 -486 -266 -1070
-263 -1053 -265 -1064 -262 -1153 3 -73 9 -102 32 -152 98 -215 382 -286 634
-159 130 65 229 168 282 292 12 27 132 490 266 1029 135 539 249 996 254 1015
l9 35 248 0 c323 0 535 27 921 116 250 58 301 76 329 118 33 49 31 106 -7 162
-74 110 -147 195 -184 213 -38 19 -39 18 -130 -3 -113 -28 -289 -57 -421 -71
-137 -15 -611 -25 -617 -14 -3 5 140 592 318 1304 177 712 326 1318 329 1346
14 105 -39 249 -116 319 -86 77 -194 110 -333 102 -114 -7 -195 -34 -292 -99
-92 -61 -144 -121 -195 -224 -36 -71 -75 -220 -353 -1329 -171 -687 -317
-1250 -323 -1252 -6 -2 -170 37 -364 86 -683 174 -905 209 -1379 219 l-294 7
104 75 c262 186 546 412 825 655 212 185 716 688 896 895 891 1020 1493 2104
1810 3261 35 129 43 170 43 249 1 84 -2 102 -27 155 -38 82 -70 120 -133 162
-109 73 -263 92 -404 50z"/>
</g>
</svg>
