<?xml version="1.0" standalone="no"?>
<!DOCTYPE svg PUBLIC "-//W3C//DTD SVG 20010904//EN"
 "http://www.w3.org/TR/2001/REC-SVG-20010904/DTD/svg10.dtd">
<svg version="1.0" xmlns="http://www.w3.org/2000/svg"
 width="341.000000pt" height="270.000000pt" viewBox="0 0 341.000000 270.000000"
 preserveAspectRatio="xMidYMid meet">
<metadata>
Created by potrace 1.16, written by Peter Selinger 2001-2019
</metadata>
<g transform="translate(0.000000,270.000000) scale(0.100000,-0.100000)"
fill="#000000" stroke="none">
<path d="M586 2689 c-74 -12 -142 -36 -226 -80 -233 -121 -372 -340 -357 -564
4 -73 33 -161 332 -1015 180 -514 334 -947 343 -962 21 -36 82 -68 130 -68 44
0 378 134 414 166 12 11 29 37 39 59 17 39 16 56 -67 1065 -46 564 -89 1048
-95 1075 -54 231 -266 366 -513 324z"/>
<path d="M2706 2689 c-74 -12 -142 -36 -226 -80 -233 -121 -372 -340 -357
-564 4 -73 33 -161 332 -1015 180 -514 334 -947 343 -962 21 -36 82 -68 130
-68 44 0 378 134 414 166 12 11 29 37 39 59 17 39 16 56 -67 1065 -46 564 -89
1048 -95 1075 -54 231 -266 366 -513 324z"/>
</g>
</svg>
