<?xml version="1.0" standalone="no"?>
<!DOCTYPE svg PUBLIC "-//W3C//DTD SVG 20010904//EN"
 "http://www.w3.org/TR/2001/REC-SVG-20010904/DTD/svg10.dtd">
<svg version="1.0" xmlns="http://www.w3.org/2000/svg"
 width="917.000000pt" height="1115.000000pt" viewBox="0 0 917.000000 1115.000000"
 preserveAspectRatio="xMidYMid meet">
<metadata>
Created by potrace 1.16, written by Peter Selinger 2001-2019
</metadata>
<g transform="translate(0.000000,1115.000000) scale(0.100000,-0.100000)"
fill="#000000" stroke="none">
<path d="M5758 11130 c-20 -11 -45 -34 -56 -52 -10 -18 -48 -148 -82 -288 -35
-140 -65 -258 -69 -262 -3 -3 -55 -11 -116 -17 -413 -43 -883 -162 -1310 -333
-333 -133 -788 -377 -1106 -593 -720 -488 -1358 -1133 -1858 -1875 -639 -950
-1018 -1960 -1137 -3035 -22 -196 -30 -662 -15 -866 63 -864 355 -1633 839
-2209 106 -127 344 -358 462 -449 376 -293 817 -500 1289 -606 131 -30 349
-65 404 -65 20 0 37 -2 37 -6 0 -3 -16 -68 -35 -144 -41 -162 -43 -209 -14
-257 40 -64 74 -73 286 -73 271 0 277 4 337 247 60 242 52 222 89 227 259 38
342 53 475 86 1348 333 2584 1462 3197 2920 63 149 179 494 215 636 23 90 23
91 4 130 -10 21 -34 49 -53 61 -32 22 -43 23 -238 23 -227 0 -259 -7 -291 -60
-11 -17 -32 -79 -47 -138 -15 -59 -54 -184 -86 -278 -427 -1252 -1353 -2288
-2359 -2639 -189 -66 -407 -111 -626 -130 l-72 -6 1103 4411 c607 2426 1106
4414 1109 4417 10 10 251 -15 351 -36 623 -132 1047 -642 1210 -1456 61 -303
70 -414 70 -840 -1 -396 -6 -483 -56 -832 -22 -150 -22 -151 -2 -185 10 -18
34 -43 53 -55 32 -22 42 -23 239 -23 231 0 258 6 292 69 10 19 232 894 495
1946 l477 1913 -19 38 c-32 64 -72 84 -173 84 -67 0 -93 -4 -117 -19 -17 -10
-257 -257 -534 -549 l-504 -530 -77 113 c-172 255 -389 472 -629 628 -235 153
-522 264 -814 317 -60 11 -110 21 -112 23 -1 1 25 113 59 248 l61 246 -25 48
c-43 87 -50 90 -282 92 -184 3 -205 1 -239 -17z m-378 -1297 c0 -5 -490 -1964
-1088 -4355 l-1087 -4347 -130 34 c-171 44 -271 81 -440 164 -550 270 -933
737 -1110 1352 -222 771 -131 1828 280 3253 297 1033 676 1795 1215 2446 118
143 422 450 555 561 505 422 1046 709 1630 863 132 35 175 42 175 29z"/>
</g>
</svg>
