<?xml version="1.0" standalone="no"?>
<!DOCTYPE svg PUBLIC "-//W3C//DTD SVG 20010904//EN"
 "http://www.w3.org/TR/2001/REC-SVG-20010904/DTD/svg10.dtd">
<svg version="1.0" xmlns="http://www.w3.org/2000/svg"
 width="427.000000pt" height="627.000000pt" viewBox="0 0 427.000000 627.000000"
 preserveAspectRatio="xMidYMid meet">
<metadata>
Created by potrace 1.16, written by Peter Selinger 2001-2019
</metadata>
<g transform="translate(0.000000,627.000000) scale(0.100000,-0.100000)"
fill="#000000" stroke="none">
<path d="M3815 6242 c-27 -16 -90 -53 -140 -82 -260 -153 -613 -288 -955 -364
-326 -72 -643 -106 -1140 -121 -234 -8 -254 -14 -288 -88 -33 -69 -76 -267
-68 -310 9 -49 47 -92 100 -112 39 -15 71 -15 332 -6 442 16 712 47 1043 117
90 19 165 33 167 31 3 -2 -243 -995 -546 -2206 -432 -1727 -557 -2216 -583
-2269 -39 -81 -124 -175 -186 -206 -130 -66 -557 -106 -1136 -106 -327 0 -328
0 -385 -229 -36 -147 -35 -182 7 -232 50 -59 62 -60 370 -49 1035 38 2253 38
3345 -1 312 -11 328 -11 365 7 55 28 77 68 113 213 36 147 35 182 -7 232 -47
55 -68 59 -330 59 -428 0 -826 27 -978 66 -96 25 -125 67 -125 181 0 37 205
873 661 2695 489 1958 659 2652 655 2678 -6 39 -30 74 -70 104 -20 15 -45 21
-99 24 -64 2 -77 0 -122 -26z"/>
</g>
</svg>
