<?xml version="1.0" standalone="no"?>
<!DOCTYPE svg PUBLIC "-//W3C//DTD SVG 20010904//EN"
 "http://www.w3.org/TR/2001/REC-SVG-20010904/DTD/svg10.dtd">
<svg version="1.0" xmlns="http://www.w3.org/2000/svg"
 width="851.000000pt" height="41.000000pt" viewBox="0 0 851.000000 41.000000"
 preserveAspectRatio="xMidYMid meet">
<metadata>
Created by potrace 1.16, written by Peter Selinger 2001-2019
</metadata>
<g transform="translate(0.000000,41.000000) scale(0.100000,-0.100000)"
fill="#000000" stroke="none">
<path d="M110 392 c-19 -9 -44 -31 -56 -49 -24 -35 -54 -144 -54 -194 0 -45
36 -103 80 -128 l38 -21 4116 0 c3465 0 4122 2 4149 14 50 21 78 59 98 133 36
129 17 203 -62 243 -38 20 -80 20 -4156 20 -3901 0 -4120 -1 -4153 -18z"/>
</g>
</svg>
