<?xml version="1.0" standalone="no"?>
<!DOCTYPE svg PUBLIC "-//W3C//DTD SVG 20010904//EN"
 "http://www.w3.org/TR/2001/REC-SVG-20010904/DTD/svg10.dtd">
<svg version="1.0" xmlns="http://www.w3.org/2000/svg"
 width="686.000000pt" height="875.000000pt" viewBox="0 0 686.000000 875.000000"
 preserveAspectRatio="xMidYMid meet">
<metadata>
Created by potrace 1.16, written by Peter Selinger 2001-2019
</metadata>
<g transform="translate(0.000000,875.000000) scale(0.100000,-0.100000)"
fill="#000000" stroke="none">
<path d="M2365 8732 c-99 -30 -166 -71 -241 -146 -48 -48 -81 -92 -102 -136
-23 -49 -275 -1041 -1027 -4050 -973 -3889 -997 -3987 -993 -4063 20 -350 466
-457 748 -178 118 117 99 55 470 1541 182 729 335 1342 341 1362 l10 37 78
-57 c184 -137 459 -243 749 -288 137 -21 426 -29 542 -15 362 45 683 183 990
428 92 73 296 271 377 367 l50 58 26 -83 c118 -377 394 -641 773 -741 111 -29
130 -31 294 -32 163 0 181 2 265 28 233 71 417 219 582 466 186 280 326 658
508 1375 l49 190 -20 40 c-34 69 -58 80 -198 83 -137 4 -182 -7 -211 -52 -9
-14 -48 -146 -86 -293 -203 -784 -352 -1144 -559 -1354 -99 -100 -164 -136
-261 -145 -183 -18 -301 72 -346 265 -24 103 -24 380 1 541 31 201 47 269 557
2310 481 1924 501 2008 497 2078 -22 346 -468 449 -748 173 -121 -119 -82 14
-635 -2199 l-495 -1983 -82 -136 c-351 -585 -763 -930 -1218 -1023 -518 -105
-902 88 -1043 525 -96 295 -99 648 -11 1135 14 80 217 909 450 1844 234 934
427 1725 431 1756 15 151 -62 286 -204 352 -84 40 -214 48 -308 20z"/>
</g>
</svg>
