<?xml version="1.0" standalone="no"?>
<!DOCTYPE svg PUBLIC "-//W3C//DTD SVG 20010904//EN"
 "http://www.w3.org/TR/2001/REC-SVG-20010904/DTD/svg10.dtd">
<svg version="1.0" xmlns="http://www.w3.org/2000/svg"
 width="618.000000pt" height="1314.000000pt" viewBox="0 0 618.000000 1314.000000"
 preserveAspectRatio="xMidYMid meet">
<metadata>
Created by potrace 1.16, written by Peter Selinger 2001-2019
</metadata>
<g transform="translate(0.000000,1314.000000) scale(0.100000,-0.100000)"
fill="#000000" stroke="none">
<path d="M5465 13128 c-11 -6 -76 -66 -145 -132 -371 -362 -757 -601 -1220
-758 -284 -96 -624 -158 -872 -158 -100 0 -130 -9 -175 -52 -27 -26 -36 -49
-59 -143 -27 -111 -27 -113 -10 -159 10 -27 30 -55 49 -68 30 -22 41 -23 202
-22 331 2 708 80 1067 219 75 30 150 61 168 70 30 16 32 16 26 -2 -3 -10 -213
-848 -466 -1863 -390 -1561 -467 -1857 -500 -1927 -67 -143 -120 -194 -243
-232 -140 -43 -468 -71 -847 -71 -278 0 -295 -10 -340 -190 -34 -137 -15 -206
64 -244 32 -15 59 -16 263 -7 125 6 498 16 828 22 616 12 1380 3 1988 -22 291
-12 302 -11 352 41 19 20 33 55 51 121 29 114 30 164 4 206 -40 67 -42 67
-380 74 -168 4 -359 12 -425 19 -143 13 -287 45 -316 69 -29 23 -40 98 -27
191 5 41 279 1155 609 2475 442 1768 599 2408 594 2432 -7 38 -46 88 -86 108
-33 18 -125 19 -154 3z"/>
<path d="M1090 6831 c-49 -15 -86 -40 -127 -84 -48 -52 -67 -102 -67 -177 0
-30 6 -73 13 -94 17 -49 82 -121 136 -149 l40 -22 2425 -3 c2666 -2 2484 -7
2563 58 20 17 49 53 65 78 24 41 27 57 27 132 0 75 -3 91 -27 132 -16 25 -45
60 -65 78 -79 64 102 60 -2547 59 -1326 0 -2422 -4 -2436 -8z"/>
<path d="M2860 6053 c-94 -10 -265 -48 -374 -84 -509 -167 -973 -562 -1369
-1165 -286 -435 -531 -994 -669 -1524 -36 -138 -40 -164 -36 -245 5 -120 41
-200 130 -289 76 -75 144 -115 265 -156 252 -84 540 -78 803 15 478 171 902
642 1056 1174 37 129 47 216 34 310 -20 149 -72 269 -177 408 -65 86 -93 110
-140 119 -42 8 -78 -7 -150 -65 -57 -46 -79 -92 -69 -144 4 -18 33 -66 67
-107 163 -203 169 -356 25 -656 -178 -372 -492 -656 -823 -746 -111 -30 -312
-30 -401 -1 -107 36 -172 101 -172 173 0 47 58 266 127 475 222 682 538 1251
906 1631 240 249 469 401 727 482 139 44 227 57 390 57 170 0 275 -19 393 -70
114 -49 180 -91 263 -169 309 -287 359 -733 170 -1511 -25 -101 -61 -228 -81
-282 -180 -485 -626 -971 -1260 -1373 -186 -118 -320 -193 -645 -360 -179 -92
-388 -204 -465 -250 -726 -431 -1168 -896 -1339 -1410 -47 -142 -52 -176 -28
-219 32 -58 69 -71 210 -71 173 0 190 11 238 150 66 191 209 351 391 436 96
45 188 58 317 44 221 -25 389 -89 747 -286 365 -200 521 -267 741 -316 136
-30 406 -33 538 -5 503 107 932 433 1307 992 225 336 434 808 548 1235 30 114
31 145 6 186 -33 54 -75 66 -216 62 -177 -4 -180 -7 -255 -244 -180 -569 -641
-1076 -1123 -1233 -179 -58 -144 -56 -1022 -53 -445 2 -935 7 -1089 10 l-278
7 120 88 c270 197 478 315 1177 665 549 275 736 374 980 517 964 564 1428
1064 1544 1660 100 519 7 1007 -267 1395 -85 121 -269 305 -392 393 -322 229
-773 361 -1214 355 -72 0 -147 -3 -166 -5z"/>
</g>
</svg>
