<?xml version="1.0" standalone="no"?>
<!DOCTYPE svg PUBLIC "-//W3C//DTD SVG 20010904//EN"
 "http://www.w3.org/TR/2001/REC-SVG-20010904/DTD/svg10.dtd">
<svg version="1.0" xmlns="http://www.w3.org/2000/svg"
 width="666.000000pt" height="1004.000000pt" viewBox="0 0 666.000000 1004.000000"
 preserveAspectRatio="xMidYMid meet">
<metadata>
Created by potrace 1.16, written by Peter Selinger 2001-2019
</metadata>
<g transform="translate(0.000000,1004.000000) scale(0.100000,-0.100000)"
fill="#000000" stroke="none">
<path d="M5860 10031 c-82 -25 -143 -76 -177 -146 -11 -22 -388 -1513 -838
-3313 l-818 -3273 -106 104 c-334 325 -807 497 -1366 497 -988 0 -1949 -553
-2351 -1352 -95 -189 -166 -432 -195 -661 -17 -144 -7 -444 21 -572 48 -224
131 -424 251 -605 86 -130 281 -324 414 -412 457 -302 1039 -378 1641 -212
174 47 296 94 479 184 280 137 537 322 765 550 382 382 634 836 730 1319 12
57 25 112 30 121 5 10 284 1117 620 2461 336 1344 613 2451 617 2459 3 8 16
-52 29 -135 35 -218 94 -540 179 -976 222 -1132 288 -1615 302 -2209 10 -464
-33 -923 -124 -1307 -45 -190 -36 -269 43 -362 62 -74 195 -109 292 -77 63 21
134 82 162 140 25 53 80 291 115 501 60 361 80 663 72 1105 -11 637 -73 1105
-297 2245 -213 1082 -280 1576 -296 2175 -12 430 33 899 125 1314 35 157 37
182 15 256 -21 70 -98 149 -168 173 -51 18 -123 21 -166 8z"/>
</g>
</svg>
