<?xml version="1.0" standalone="no"?>
<!DOCTYPE svg PUBLIC "-//W3C//DTD SVG 20010904//EN"
 "http://www.w3.org/TR/2001/REC-SVG-20010904/DTD/svg10.dtd">
<svg version="1.0" xmlns="http://www.w3.org/2000/svg"
 width="510.000000pt" height="627.000000pt" viewBox="0 0 510.000000 627.000000"
 preserveAspectRatio="xMidYMid meet">
<metadata>
Created by potrace 1.16, written by Peter Selinger 2001-2019
</metadata>
<g transform="translate(0.000000,627.000000) scale(0.100000,-0.100000)"
fill="#000000" stroke="none">
<path d="M2621 6260 c-31 -14 -142 -102 -178 -143 -24 -27 -55 -41 -203 -90
-404 -134 -708 -313 -960 -566 -169 -170 -275 -327 -353 -526 -55 -140 -80
-247 -81 -355 -1 -115 14 -179 66 -289 56 -118 166 -228 293 -293 285 -146
599 -156 880 -29 513 233 903 926 871 1546 -3 66 -11 149 -16 184 -6 35 -9 65
-8 67 12 11 286 26 403 20 306 -13 515 -92 663 -250 109 -117 146 -227 145
-436 -1 -154 -23 -299 -79 -509 -146 -559 -405 -866 -862 -1025 -222 -77 -407
-96 -947 -96 -276 0 -376 -3 -395 -13 -43 -22 -66 -72 -105 -226 l-37 -149 21
-46 c16 -37 29 -51 63 -66 40 -18 68 -20 458 -20 241 0 442 -5 480 -11 242
-39 423 -170 493 -357 19 -50 21 -79 22 -222 0 -185 -12 -257 -91 -573 -118
-472 -232 -707 -443 -917 -233 -232 -551 -381 -931 -435 -141 -20 -384 -19
-491 1 -391 74 -659 379 -749 852 -20 106 -41 360 -32 395 4 14 16 17 77 17
90 0 222 36 320 88 92 49 238 192 289 283 210 381 80 745 -295 825 -277 59
-612 -111 -757 -383 -83 -158 -140 -447 -149 -759 -11 -375 43 -661 178 -944
206 -431 563 -703 1034 -785 107 -19 430 -21 606 -5 1076 100 2049 660 2402
1381 97 199 139 376 140 584 0 149 -9 216 -49 352 -88 304 -324 588 -638 767
l-74 42 62 24 c111 42 370 178 491 258 214 140 431 333 564 502 173 218 293
467 347 715 28 127 23 353 -9 476 -65 249 -165 419 -351 596 -201 192 -457
327 -771 408 -233 59 -335 70 -650 68 -169 -1 -319 -6 -380 -15 l-100 -13 -20
29 c-41 60 -111 88 -164 66z m-91 -647 c15 -86 15 -286 0 -378 -24 -154 -63
-271 -143 -429 -118 -232 -315 -427 -491 -486 -209 -69 -428 -5 -502 148 -43
87 -25 239 45 396 126 280 434 558 781 707 71 31 278 107 291 108 4 1 12 -29
19 -66z"/>
</g>
</svg>
