<?xml version="1.0" standalone="no"?>
<!DOCTYPE svg PUBLIC "-//W3C//DTD SVG 20010904//EN"
 "http://www.w3.org/TR/2001/REC-SVG-20010904/DTD/svg10.dtd">
<svg version="1.0" xmlns="http://www.w3.org/2000/svg"
 width="816.000000pt" height="581.000000pt" viewBox="0 0 816.000000 581.000000"
 preserveAspectRatio="xMidYMid meet">
<metadata>
Created by potrace 1.16, written by Peter Selinger 2001-2019
</metadata>
<g transform="translate(0.000000,581.000000) scale(0.100000,-0.100000)"
fill="#000000" stroke="none">
<path d="M4925 5797 c-99 -33 -166 -87 -193 -153 -27 -69 -1342 -5357 -1342
-5399 0 -84 68 -173 165 -217 76 -34 210 -33 285 3 73 34 114 70 139 122 11
23 231 883 488 1912 257 1029 469 1859 471 1845 2 -14 66 -477 143 -1030 152
-1095 145 -1059 222 -1125 66 -57 136 -78 242 -73 102 5 167 31 221 90 17 18
320 486 674 1041 354 554 645 1006 647 1003 2 -2 -194 -796 -437 -1765 -257
-1029 -440 -1780 -440 -1806 0 -84 68 -173 165 -217 76 -34 210 -33 285 3 73
34 114 70 139 122 27 57 1351 5356 1351 5409 0 84 -71 177 -169 221 -35 16
-66 21 -136 22 -78 0 -98 -4 -150 -28 -33 -16 -72 -39 -86 -53 -14 -14 -444
-679 -955 -1479 -676 -1058 -931 -1450 -936 -1437 -4 9 -93 640 -198 1402
-105 762 -196 1399 -201 1417 -15 48 -84 119 -144 148 -65 32 -187 43 -250 22z"/>
<path d="M213 5486 c-109 -35 -181 -104 -203 -196 -25 -104 32 -205 148 -262
l67 -33 757 -3 c417 -1 758 -5 758 -7 0 -3 -266 -1068 -591 -2367 -578 -2315
-590 -2363 -578 -2411 17 -72 63 -126 143 -167 64 -33 75 -35 160 -35 73 1
101 5 141 23 58 27 119 82 144 132 10 19 288 1114 617 2432 l599 2398 820 2
820 3 60 28 c110 51 159 120 159 222 0 102 -49 171 -159 222 l-60 28 -1880 2
c-1535 1 -1888 -1 -1922 -11z"/>
</g>
</svg>
