<?xml version="1.0" standalone="no"?>
<!DOCTYPE svg PUBLIC "-//W3C//DTD SVG 20010904//EN"
 "http://www.w3.org/TR/2001/REC-SVG-20010904/DTD/svg10.dtd">
<svg version="1.0" xmlns="http://www.w3.org/2000/svg"
 width="348.000000pt" height="276.000000pt" viewBox="0 0 348.000000 276.000000"
 preserveAspectRatio="xMidYMid meet">
<metadata>
Created by potrace 1.16, written by Peter Selinger 2001-2019
</metadata>
<g transform="translate(0.000000,276.000000) scale(0.100000,-0.100000)"
fill="#000000" stroke="none">
<path d="M1765 2746 c-68 -30 -76 -48 -175 -445 l-93 -371 17 -45 c21 -53 64
-92 109 -99 18 -2 86 -9 152 -15 220 -20 374 -80 486 -191 88 -88 112 -140
117 -257 4 -79 1 -105 -21 -175 -117 -373 -494 -554 -1287 -618 -69 -6 -296
-13 -505 -16 -209 -3 -394 -10 -412 -15 -60 -19 -87 -64 -123 -208 -36 -147
-35 -181 7 -232 48 -57 62 -59 405 -59 1329 1 2046 126 2514 438 222 149 375
344 455 578 127 374 43 699 -241 925 -92 73 -272 165 -411 209 -57 18 -105 34
-106 34 -1 1 20 89 47 196 27 107 50 210 50 229 0 47 -35 105 -80 130 -37 20
-48 21 -456 21 -326 -1 -426 -4 -449 -14z"/>
</g>
</svg>
