<?xml version="1.0" standalone="no"?>
<!DOCTYPE svg PUBLIC "-//W3C//DTD SVG 20010904//EN"
 "http://www.w3.org/TR/2001/REC-SVG-20010904/DTD/svg10.dtd">
<svg version="1.0" xmlns="http://www.w3.org/2000/svg"
 width="1314.000000pt" height="1115.000000pt" viewBox="0 0 1314.000000 1115.000000"
 preserveAspectRatio="xMidYMid meet">
<metadata>
Created by potrace 1.16, written by Peter Selinger 2001-2019
</metadata>
<g transform="translate(0.000000,1115.000000) scale(0.100000,-0.100000)"
fill="#000000" stroke="none">
<path d="M3335 11144 c-339 -49 -673 -204 -995 -460 -127 -101 -401 -381 -524
-534 -510 -639 -852 -1469 -962 -2335 -22 -173 -26 -619 -6 -765 84 -622 338
-1090 715 -1318 220 -133 521 -191 767 -148 452 79 914 416 1333 972 447 593
771 1376 907 2188 45 267 55 391 55 663 0 139 1 253 2 253 2 0 33 -19 70 -42
106 -64 370 -191 495 -237 280 -103 562 -165 872 -192 167 -15 590 -6 756 15
323 42 681 134 993 255 16 6 26 7 23 3 -3 -4 -1756 -2035 -3896 -4513 -2140
-2477 -3901 -4522 -3913 -4544 -31 -58 -31 -192 0 -251 74 -138 247 -192 383
-118 45 24 634 702 4652 5353 2998 3471 4608 5342 4621 5371 26 56 28 158 4
213 -76 178 -302 233 -440 108 -22 -20 -95 -99 -163 -177 -143 -164 -240 -258
-408 -392 -744 -598 -1669 -903 -2523 -831 -789 66 -1437 420 -1851 1012 -156
224 -351 367 -582 428 -63 16 -120 22 -220 24 -74 2 -148 1 -165 -1z m248
-534 c69 -26 158 -105 214 -188 114 -172 189 -458 214 -812 30 -441 -69 -1054
-266 -1645 -138 -417 -287 -726 -511 -1065 -338 -512 -672 -791 -977 -816
-144 -13 -251 29 -347 133 -234 256 -262 769 -84 1578 58 263 250 1017 308
1211 183 606 383 999 660 1292 175 185 356 300 526 332 73 14 198 5 263 -20z"/>
<path d="M7545 5566 c-262 -43 -498 -142 -760 -317 -378 -253 -752 -664 -1037
-1139 -321 -533 -553 -1208 -635 -1845 -23 -177 -25 -670 -5 -810 99 -655 365
-1113 770 -1323 399 -208 846 -168 1282 115 158 103 245 176 425 357 201 201
312 339 479 591 140 211 191 302 310 547 175 361 301 726 399 1153 180 782
144 1501 -99 2023 -153 329 -381 539 -679 627 -74 22 -115 28 -230 31 -87 2
-170 -2 -220 -10z m223 -506 c80 -15 142 -49 208 -115 131 -131 218 -346 271
-678 28 -174 25 -645 -5 -862 -71 -503 -216 -1017 -411 -1460 -231 -521 -588
-1020 -899 -1252 -321 -241 -634 -242 -802 -2 -114 162 -161 356 -160 662 0
350 51 640 252 1442 193 773 321 1150 499 1471 307 552 710 858 1047 794z"/>
<path d="M11785 5566 c-262 -43 -498 -142 -760 -317 -378 -253 -752 -664
-1037 -1139 -321 -533 -553 -1208 -635 -1845 -23 -177 -25 -670 -5 -810 99
-655 365 -1113 770 -1323 399 -208 846 -168 1282 115 158 103 245 176 425 357
201 201 312 339 479 591 140 211 191 302 310 547 175 361 301 726 399 1153
180 782 144 1501 -99 2023 -153 329 -381 539 -679 627 -74 22 -115 28 -230 31
-87 2 -170 -2 -220 -10z m223 -506 c80 -15 142 -49 208 -115 131 -131 218
-346 271 -678 28 -174 25 -645 -5 -862 -71 -503 -216 -1017 -411 -1460 -231
-521 -588 -1020 -899 -1252 -321 -241 -634 -242 -802 -2 -114 162 -161 356
-160 662 0 350 51 640 252 1442 193 773 321 1150 499 1471 307 552 710 858
1047 794z"/>
</g>
</svg>
