<?xml version="1.0" standalone="no"?>
<!DOCTYPE svg PUBLIC "-//W3C//DTD SVG 20010904//EN"
 "http://www.w3.org/TR/2001/REC-SVG-20010904/DTD/svg10.dtd">
<svg version="1.0" xmlns="http://www.w3.org/2000/svg"
 width="465.000000pt" height="1276.000000pt" viewBox="0 0 465.000000 1276.000000"
 preserveAspectRatio="xMidYMid meet">
<metadata>
Created by potrace 1.16, written by Peter Selinger 2001-2019
</metadata>
<g transform="translate(0.000000,1276.000000) scale(0.100000,-0.100000)"
fill="#000000" stroke="none">
<path d="M3284 12740 c-140 -37 -279 -127 -360 -233 -89 -117 -125 -222 -195
-567 -70 -343 -108 -615 -189 -1335 -76 -677 -131 -1064 -190 -1343 -11 -50
-12 -51 -43 -46 -95 17 -296 70 -479 128 -350 111 -505 144 -704 153 -103 5
-146 2 -208 -11 -217 -49 -402 -215 -483 -434 -35 -93 -43 -237 -18 -328 25
-92 82 -174 157 -224 94 -62 148 -75 318 -74 218 0 342 24 845 160 269 72 465
116 465 104 0 -40 -174 -484 -379 -965 -331 -775 -388 -938 -536 -1532 -461
-1856 -890 -3864 -1235 -5785 l-52 -287 19 -38 c10 -21 33 -48 52 -60 32 -22
43 -23 238 -23 223 0 257 7 289 55 41 62 581 1804 893 2880 313 1079 618 2204
871 3212 146 585 171 750 225 1488 31 434 59 710 91 912 13 86 24 158 24 160
0 13 292 -62 512 -131 350 -111 505 -144 704 -153 103 -5 146 -2 208 11 217
49 402 215 483 434 35 93 43 237 18 328 -25 92 -82 174 -157 224 -94 62 -148
75 -318 74 -217 0 -367 -29 -877 -168 -111 -30 -246 -64 -300 -75 -54 -12
-108 -23 -120 -26 -22 -5 -22 -5 -7 47 67 232 229 678 459 1268 310 795 450
1199 549 1586 52 203 45 313 -27 437 -93 158 -326 234 -543 177z"/>
</g>
</svg>
