<?xml version="1.0" standalone="no"?>
<!DOCTYPE svg PUBLIC "-//W3C//DTD SVG 20010904//EN"
 "http://www.w3.org/TR/2001/REC-SVG-20010904/DTD/svg10.dtd">
<svg version="1.0" xmlns="http://www.w3.org/2000/svg"
 width="917.000000pt" height="34.000000pt" viewBox="0 0 917.000000 34.000000"
 preserveAspectRatio="xMidYMid meet">
<metadata>
Created by potrace 1.16, written by Peter Selinger 2001-2019
</metadata>
<g transform="translate(0.000000,34.000000) scale(0.100000,-0.100000)"
fill="#000000" stroke="none">
<path d="M92 323 c-18 -9 -41 -28 -52 -43 -27 -37 -44 -119 -36 -164 9 -46 64
-103 108 -111 18 -3 2038 -4 4488 -3 l4455 3 31 22 c44 32 68 86 69 158 0 70
-24 113 -79 139 -31 15 -399 16 -4493 16 -4086 0 -4461 -2 -4491 -17z"/>
</g>
</svg>
