<?xml version="1.0" standalone="no"?>
<!DOCTYPE svg PUBLIC "-//W3C//DTD SVG 20010904//EN"
 "http://www.w3.org/TR/2001/REC-SVG-20010904/DTD/svg10.dtd">
<svg version="1.0" xmlns="http://www.w3.org/2000/svg"
 width="1269.000000pt" height="1388.000000pt" viewBox="0 0 1269.000000 1388.000000"
 preserveAspectRatio="xMidYMid meet">
<metadata>
Created by potrace 1.16, written by Peter Selinger 2001-2019
</metadata>
<g transform="translate(0.000000,1388.000000) scale(0.100000,-0.100000)"
fill="#000000" stroke="none">
<path d="M7650 13870 c-661 -50 -1300 -200 -1944 -456 -1263 -502 -2430 -1356
-3417 -2499 -877 -1015 -1560 -2257 -1937 -3520 -346 -1155 -439 -2334 -267
-3356 72 -425 168 -777 312 -1144 509 -1292 1456 -2213 2721 -2645 659 -226
1418 -300 2182 -214 1420 161 2907 870 4164 1986 1258 1118 2217 2554 2759
4133 428 1249 561 2564 372 3686 -200 1187 -706 2165 -1490 2883 -699 639
-1573 1022 -2585 1132 -171 18 -700 27 -870 14z m830 -555 c797 -86 1493 -366
2080 -834 718 -574 1227 -1434 1449 -2447 390 -1781 -113 -3964 -1337 -5804
-1053 -1583 -2554 -2797 -4152 -3357 -1001 -351 -2002 -425 -2877 -213 -571
138 -1080 386 -1523 739 -718 574 -1227 1434 -1449 2447 -390 1781 113 3964
1337 5804 1053 1583 2554 2797 4152 3357 508 178 1002 283 1530 323 163 12
618 4 790 -15z"/>
<path d="M4493 10250 c-17 -10 -36 -28 -42 -38 -6 -11 -157 -608 -337 -1327
-322 -1286 -327 -1309 -313 -1348 25 -71 50 -82 207 -85 198 -4 187 -13 283
238 137 360 358 742 616 1066 100 125 401 431 516 523 303 244 686 436 998
500 567 117 1105 -27 1491 -398 581 -557 760 -1502 488 -2582 -308 -1223
-1201 -2344 -2234 -2807 -691 -309 -1370 -292 -1839 46 -217 156 -401 413
-492 685 -112 338 -120 693 -24 1128 11 51 11 60 -7 94 -33 62 -68 75 -214 75
-181 0 -199 -14 -238 -185 -42 -183 -56 -311 -56 -530 0 -355 54 -608 194
-902 274 -575 801 -950 1485 -1058 144 -23 432 -30 600 -15 842 73 1695 462
2515 1148 843 704 1388 1476 1589 2253 64 244 82 374 88 620 6 250 -4 385 -48
604 -107 537 -425 1127 -824 1530 -526 531 -1220 807 -1965 782 -259 -9 -493
-52 -745 -137 -621 -209 -1225 -652 -1685 -1235 -35 -44 -60 -71 -57 -60 3 11
74 310 157 665 l152 645 -19 44 c-24 57 -67 81 -148 81 -42 0 -70 -6 -92 -20z"/>
</g>
</svg>
