<?xml version="1.0" standalone="no"?>
<!DOCTYPE svg PUBLIC "-//W3C//DTD SVG 20010904//EN"
 "http://www.w3.org/TR/2001/REC-SVG-20010904/DTD/svg10.dtd">
<svg version="1.0" xmlns="http://www.w3.org/2000/svg"
 width="877.000000pt" height="596.000000pt" viewBox="0 0 877.000000 596.000000"
 preserveAspectRatio="xMidYMid meet">
<metadata>
Created by potrace 1.16, written by Peter Selinger 2001-2019
</metadata>
<g transform="translate(0.000000,596.000000) scale(0.100000,-0.100000)"
fill="#000000" stroke="none">
<path d="M3365 5954 c-16 -2 -73 -9 -125 -15 -52 -5 -150 -21 -217 -35 -991
-201 -1943 -914 -2508 -1877 -87 -149 -237 -465 -294 -620 -95 -255 -170 -563
-203 -827 -17 -137 -17 -556 0 -675 91 -638 370 -1146 812 -1479 284 -214 583
-338 975 -403 154 -25 532 -25 695 0 188 29 334 65 520 127 247 82 486 193
701 323 l73 45 39 -31 c225 -185 424 -296 682 -381 384 -127 857 -139 1310
-31 966 229 1873 925 2420 1858 87 149 237 465 294 620 95 255 170 563 203
827 17 137 17 556 0 675 -91 638 -370 1146 -812 1479 -284 214 -583 338 -975
403 -154 25 -532 25 -695 0 -188 -29 -334 -65 -520 -127 -247 -82 -486 -193
-701 -323 l-73 -45 -39 31 c-337 276 -679 422 -1104 472 -113 13 -375 18 -458
9z m415 -819 c58 -8 154 -28 215 -45 140 -37 345 -118 345 -137 0 -3 -49 -56
-108 -117 -592 -612 -975 -1380 -1098 -2206 -21 -146 -30 -507 -15 -666 25
-274 105 -575 213 -805 28 -60 49 -111 47 -113 -14 -11 -210 -89 -289 -114
-637 -204 -1314 -167 -1740 96 -114 70 -259 205 -329 307 -101 146 -172 326
-209 535 -26 148 -23 519 7 710 78 510 256 1005 503 1394 188 297 448 572 713
755 311 215 718 367 1095 410 52 6 111 13 130 15 74 9 420 -4 520 -19z m3045
0 c322 -50 579 -166 770 -347 189 -180 299 -398 353 -698 26 -148 23 -519 -7
-710 -78 -510 -256 -1005 -503 -1394 -188 -297 -448 -572 -713 -755 -309 -214
-688 -356 -1095 -412 -54 -8 -187 -13 -310 -13 -241 0 -374 15 -555 64 -141
37 -345 118 -345 137 0 3 49 56 108 117 592 612 975 1380 1098 2206 21 146 30
507 15 666 -25 274 -105 575 -213 805 -28 60 -49 111 -47 113 2 1 47 21 99 43
230 98 502 165 775 193 124 12 449 4 570 -15z m-1985 -711 c163 -358 182 -828
54 -1364 -147 -615 -429 -1136 -832 -1533 l-89 -89 -21 34 c-56 91 -129 321
-152 483 -80 556 104 1331 453 1910 124 207 243 360 416 538 131 134 120 133
171 21z"/>
</g>
</svg>
