<?xml version="1.0" standalone="no"?>
<!DOCTYPE svg PUBLIC "-//W3C//DTD SVG 20010904//EN"
 "http://www.w3.org/TR/2001/REC-SVG-20010904/DTD/svg10.dtd">
<svg version="1.0" xmlns="http://www.w3.org/2000/svg"
 width="365.000000pt" height="230.000000pt" viewBox="0 0 365.000000 230.000000"
 preserveAspectRatio="xMidYMid meet">
<metadata>
Created by potrace 1.16, written by Peter Selinger 2001-2019
</metadata>
<g transform="translate(0.000000,230.000000) scale(0.100000,-0.100000)"
fill="#000000" stroke="none">
<path d="M2212 2280 c-39 -24 -2136 -1840 -2170 -1879 -33 -38 -46 -94 -32
-137 7 -20 47 -80 90 -133 61 -77 87 -102 121 -115 87 -35 39 -69 1016 710
494 392 900 710 904 706 3 -4 242 -319 530 -701 474 -628 528 -696 567 -713
71 -32 105 -20 244 86 75 57 128 104 139 126 29 54 25 107 -14 171 -76 123
-1191 1826 -1211 1848 -46 52 -128 65 -184 31z"/>
</g>
</svg>
